<?xml version="1.0" encoding="utf-8" standalone="no"?>
<!DOCTYPE svg PUBLIC "-//W3C//DTD SVG 1.1//EN"
  "http://www.w3.org/Graphics/SVG/1.1/DTD/svg11.dtd">
<svg xmlns:xlink="http://www.w3.org/1999/xlink" width="460.8pt" height="345.6pt" viewBox="0 0 460.8 345.6" xmlns="http://www.w3.org/2000/svg" version="1.1">
 <metadata>
  <rdf:RDF xmlns:dc="http://purl.org/dc/elements/1.1/" xmlns:cc="http://creativecommons.org/ns#" xmlns:rdf="http://www.w3.org/1999/02/22-rdf-syntax-ns#">
   <cc:Work>
    <dc:type rdf:resource="http://purl.org/dc/dcmitype/StillImage"/>
    <dc:date>2024-02-15T09:45:44.998318</dc:date>
    <dc:format>image/svg+xml</dc:format>
    <dc:creator>
     <cc:Agent>
      <dc:title>Matplotlib v3.7.1, https://matplotlib.org/</dc:title>
     </cc:Agent>
    </dc:creator>
   </cc:Work>
  </rdf:RDF>
 </metadata>
 <defs>
  <style type="text/css">*{stroke-linejoin: round; stroke-linecap: butt}</style>
 </defs>
 <g id="figure_1">
  <g id="patch_1">
   <path d="M 0 345.6 
L 460.8 345.6 
L 460.8 0 
L 0 0 
z
" style="fill: #ffffff"/>
  </g>
  <g id="axes_1">
   <g id="patch_2">
    <path d="M 60.959215 310.16 
L 437.389615 310.16 
L 437.389615 15.12 
L 60.959215 15.12 
z
" style="fill: #ffffff"/>
   </g>
   <g id="matplotlib.axis_1">
    <g id="xtick_1">
     <g id="text_1">
      <!-- 1920 -->
      <g style="fill: #262626" transform="translate(45.559215 327.548437) scale(0.14 -0.14)">
       <defs>
        <path id="Montserrat-Regular-31" d="M 1574 4480 
L 1574 0 
L 1114 0 
L 1114 4070 
L 58 4070 
L 58 4480 
L 1574 4480 
z
" transform="scale(0.015625)"/>
        <path id="Montserrat-Regular-39" d="M 1728 4518 
Q 2618 4518 3091 3932 
Q 3565 3347 3565 2278 
Q 3565 1530 3309 1011 
Q 3053 493 2592 227 
Q 2131 -38 1517 -38 
Q 851 -38 454 205 
L 640 576 
Q 960 365 1510 365 
Q 2253 365 2675 835 
Q 3098 1306 3098 2202 
Q 3098 2368 3078 2566 
Q 2912 2202 2547 2000 
Q 2182 1798 1709 1798 
Q 1267 1798 924 1964 
Q 582 2131 390 2435 
Q 198 2739 198 3142 
Q 198 3552 396 3865 
Q 595 4179 944 4348 
Q 1293 4518 1728 4518 
z
M 1779 2189 
Q 2118 2189 2377 2317 
Q 2637 2445 2784 2669 
Q 2931 2893 2931 3168 
Q 2931 3424 2793 3641 
Q 2656 3859 2387 3993 
Q 2118 4128 1747 4128 
Q 1261 4128 957 3862 
Q 653 3597 653 3155 
Q 653 2714 957 2451 
Q 1261 2189 1779 2189 
z
" transform="scale(0.015625)"/>
        <path id="Montserrat-Regular-32" d="M 3392 410 
L 3392 0 
L 250 0 
L 250 326 
L 2112 2150 
Q 2464 2496 2589 2749 
Q 2714 3002 2714 3258 
Q 2714 3654 2442 3875 
Q 2170 4096 1664 4096 
Q 877 4096 442 3597 
L 115 3878 
Q 378 4186 784 4352 
Q 1190 4518 1702 4518 
Q 2387 4518 2787 4195 
Q 3187 3872 3187 3309 
Q 3187 2963 3033 2643 
Q 2880 2323 2451 1907 
L 928 410 
L 3392 410 
z
" transform="scale(0.015625)"/>
        <path id="Montserrat-Regular-30" d="M 2118 -38 
Q 1600 -38 1193 237 
Q 787 512 560 1027 
Q 333 1542 333 2240 
Q 333 2938 560 3453 
Q 787 3968 1193 4243 
Q 1600 4518 2118 4518 
Q 2637 4518 3043 4243 
Q 3450 3968 3680 3453 
Q 3910 2938 3910 2240 
Q 3910 1542 3680 1027 
Q 3450 512 3043 237 
Q 2637 -38 2118 -38 
z
M 2118 384 
Q 2509 384 2806 601 
Q 3104 819 3270 1235 
Q 3437 1651 3437 2240 
Q 3437 2829 3270 3245 
Q 3104 3661 2806 3878 
Q 2509 4096 2118 4096 
Q 1728 4096 1430 3878 
Q 1133 3661 966 3245 
Q 800 2829 800 2240 
Q 800 1651 966 1235 
Q 1133 819 1430 601 
Q 1728 384 2118 384 
z
" transform="scale(0.015625)"/>
       </defs>
       <use xlink:href="#Montserrat-Regular-31"/>
       <use xlink:href="#Montserrat-Regular-39" x="36.099991"/>
       <use xlink:href="#Montserrat-Regular-32" x="96.999985"/>
       <use xlink:href="#Montserrat-Regular-30" x="153.799973"/>
      </g>
     </g>
    </g>
    <g id="xtick_2">
     <g id="text_2">
      <!-- 1940 -->
      <g style="fill: #262626" transform="translate(117.298895 327.548437) scale(0.14 -0.14)">
       <defs>
        <path id="Montserrat-Regular-34" d="M 4141 1178 
L 3245 1178 
L 3245 0 
L 2784 0 
L 2784 1178 
L 256 1178 
L 256 1510 
L 2630 4480 
L 3142 4480 
L 851 1587 
L 2797 1587 
L 2797 2624 
L 3245 2624 
L 3245 1587 
L 4141 1587 
L 4141 1178 
z
" transform="scale(0.015625)"/>
       </defs>
       <use xlink:href="#Montserrat-Regular-31"/>
       <use xlink:href="#Montserrat-Regular-39" x="36.099991"/>
       <use xlink:href="#Montserrat-Regular-34" x="96.999985"/>
       <use xlink:href="#Montserrat-Regular-30" x="163.099976"/>
      </g>
     </g>
    </g>
    <g id="xtick_3">
     <g id="text_3">
      <!-- 1960 -->
      <g style="fill: #262626" transform="translate(190.052482 327.548437) scale(0.14 -0.14)">
       <defs>
        <path id="Montserrat-Regular-36" d="M 2189 2682 
Q 2630 2682 2972 2515 
Q 3315 2349 3507 2045 
Q 3699 1741 3699 1338 
Q 3699 928 3500 614 
Q 3302 301 2953 131 
Q 2605 -38 2170 -38 
Q 1280 -38 806 547 
Q 333 1133 333 2202 
Q 333 2950 589 3468 
Q 845 3987 1305 4252 
Q 1766 4518 2381 4518 
Q 3046 4518 3443 4275 
L 3258 3904 
Q 2938 4115 2387 4115 
Q 1645 4115 1222 3644 
Q 800 3174 800 2278 
Q 800 2118 819 1914 
Q 986 2278 1350 2480 
Q 1715 2682 2189 2682 
z
M 2150 352 
Q 2637 352 2941 617 
Q 3245 883 3245 1325 
Q 3245 1766 2941 2028 
Q 2637 2291 2118 2291 
Q 1779 2291 1520 2163 
Q 1261 2035 1113 1811 
Q 966 1587 966 1312 
Q 966 1056 1104 838 
Q 1242 621 1510 486 
Q 1779 352 2150 352 
z
" transform="scale(0.015625)"/>
       </defs>
       <use xlink:href="#Montserrat-Regular-31"/>
       <use xlink:href="#Montserrat-Regular-39" x="36.099991"/>
       <use xlink:href="#Montserrat-Regular-36" x="96.999985"/>
       <use xlink:href="#Montserrat-Regular-30" x="157.899979"/>
      </g>
     </g>
    </g>
    <g id="xtick_4">
     <g id="text_4">
      <!-- 1980 -->
      <g style="fill: #262626" transform="translate(262.2406 327.548437) scale(0.14 -0.14)">
       <defs>
        <path id="Montserrat-Regular-38" d="M 2899 2349 
Q 3322 2208 3549 1926 
Q 3776 1645 3776 1248 
Q 3776 858 3565 566 
Q 3354 275 2960 118 
Q 2566 -38 2035 -38 
Q 1229 -38 768 307 
Q 307 653 307 1248 
Q 307 1651 528 1929 
Q 749 2208 1171 2349 
Q 826 2483 646 2736 
Q 467 2989 467 3334 
Q 467 3878 892 4198 
Q 1318 4518 2035 4518 
Q 2509 4518 2864 4374 
Q 3219 4230 3417 3961 
Q 3616 3693 3616 3334 
Q 3616 2989 3430 2736 
Q 3245 2483 2899 2349 
z
M 928 3322 
Q 928 2950 1222 2732 
Q 1517 2515 2035 2515 
Q 2554 2515 2851 2732 
Q 3149 2950 3149 3315 
Q 3149 3693 2845 3910 
Q 2541 4128 2035 4128 
Q 1523 4128 1225 3910 
Q 928 3693 928 3322 
z
M 2035 352 
Q 2630 352 2966 595 
Q 3302 838 3302 1254 
Q 3302 1670 2966 1910 
Q 2630 2150 2035 2150 
Q 1446 2150 1110 1910 
Q 774 1670 774 1254 
Q 774 832 1107 592 
Q 1440 352 2035 352 
z
" transform="scale(0.015625)"/>
       </defs>
       <use xlink:href="#Montserrat-Regular-31"/>
       <use xlink:href="#Montserrat-Regular-39" x="36.099991"/>
       <use xlink:href="#Montserrat-Regular-38" x="96.999985"/>
       <use xlink:href="#Montserrat-Regular-30" x="160.799973"/>
      </g>
     </g>
    </g>
    <g id="xtick_5">
     <g id="text_5">
      <!-- 2000 -->
      <g style="fill: #262626" transform="translate(332.642624 327.548437) scale(0.14 -0.14)">
       <use xlink:href="#Montserrat-Regular-32"/>
       <use xlink:href="#Montserrat-Regular-30" x="56.799988"/>
       <use xlink:href="#Montserrat-Regular-30" x="122.999985"/>
       <use xlink:href="#Montserrat-Regular-30" x="189.199982"/>
      </g>
     </g>
    </g>
    <g id="xtick_6">
     <g id="text_6">
      <!-- 2020 -->
      <g style="fill: #262626" transform="translate(405.691523 327.548437) scale(0.14 -0.14)">
       <use xlink:href="#Montserrat-Regular-32"/>
       <use xlink:href="#Montserrat-Regular-30" x="56.799988"/>
       <use xlink:href="#Montserrat-Regular-32" x="122.999985"/>
       <use xlink:href="#Montserrat-Regular-30" x="179.799973"/>
      </g>
     </g>
    </g>
   </g>
   <g id="matplotlib.axis_2">
    <g id="ytick_1">
     <g id="text_7">
      <!-- $\mathdefault{10^{2}}$ -->
      <g style="fill: #262626" transform="translate(33.519215 284.760648) scale(0.14 -0.14)">
       <use xlink:href="#Montserrat-Regular-31" transform="translate(0 0.76875)"/>
       <use xlink:href="#Montserrat-Regular-30" transform="translate(36.099991 0.76875)"/>
       <use xlink:href="#Montserrat-Regular-32" transform="translate(103.220378 37.584375) scale(0.7)"/>
      </g>
     </g>
    </g>
    <g id="ytick_2">
     <g id="text_8">
      <!-- $\mathdefault{10^{3}}$ -->
      <g style="fill: #262626" transform="translate(33.519215 183.131004) scale(0.14 -0.14)">
       <defs>
        <path id="Montserrat-Regular-33" d="M 1856 2560 
Q 2560 2522 2928 2179 
Q 3296 1837 3296 1286 
Q 3296 902 3110 604 
Q 2925 307 2560 134 
Q 2195 -38 1670 -38 
Q 1184 -38 752 118 
Q 320 275 58 538 
L 282 902 
Q 506 672 877 528 
Q 1248 384 1670 384 
Q 2221 384 2521 624 
Q 2822 864 2822 1286 
Q 2822 1702 2521 1939 
Q 2221 2176 1613 2176 
L 1293 2176 
L 1293 2515 
L 2534 4070 
L 243 4070 
L 243 4480 
L 3123 4480 
L 3123 4154 
L 1856 2560 
z
" transform="scale(0.015625)"/>
       </defs>
       <use xlink:href="#Montserrat-Regular-31" transform="translate(0 0.184375)"/>
       <use xlink:href="#Montserrat-Regular-30" transform="translate(36.099991 0.184375)"/>
       <use xlink:href="#Montserrat-Regular-33" transform="translate(103.220378 37) scale(0.7)"/>
      </g>
     </g>
    </g>
    <g id="ytick_3">
     <g id="text_9">
      <!-- $\mathdefault{10^{4}}$ -->
      <g style="fill: #262626" transform="translate(32.539215 81.501361) scale(0.14 -0.14)">
       <use xlink:href="#Montserrat-Regular-31" transform="translate(0 0.184375)"/>
       <use xlink:href="#Montserrat-Regular-30" transform="translate(36.099991 0.184375)"/>
       <use xlink:href="#Montserrat-Regular-34" transform="translate(103.220378 37) scale(0.7)"/>
      </g>
     </g>
    </g>
    <g id="ytick_4"/>
    <g id="ytick_5"/>
    <g id="ytick_6"/>
    <g id="ytick_7"/>
    <g id="ytick_8"/>
    <g id="ytick_9"/>
    <g id="ytick_10"/>
    <g id="ytick_11"/>
    <g id="ytick_12"/>
    <g id="ytick_13"/>
    <g id="ytick_14"/>
    <g id="ytick_15"/>
    <g id="ytick_16"/>
    <g id="ytick_17"/>
    <g id="ytick_18"/>
    <g id="ytick_19"/>
    <g id="ytick_20"/>
    <g id="ytick_21"/>
    <g id="ytick_22"/>
    <g id="ytick_23"/>
    <g id="ytick_24"/>
    <g id="ytick_25"/>
    <g id="ytick_26"/>
    <g id="ytick_27"/>
    <g id="text_10">
     <!-- Born per year in the US -->
     <g style="fill: #262626" transform="translate(25.75234 244.045625) rotate(-90) scale(0.14 -0.14)">
      <defs>
       <path id="Montserrat-Regular-42" d="M 3552 2310 
Q 3994 2214 4234 1929 
Q 4474 1645 4474 1197 
Q 4474 621 4048 310 
Q 3622 0 2790 0 
L 730 0 
L 730 4480 
L 2662 4480 
Q 3411 4480 3824 4179 
Q 4237 3878 4237 3328 
Q 4237 2957 4054 2697 
Q 3872 2438 3552 2310 
z
M 1203 4090 
L 1203 2464 
L 2630 2464 
Q 3174 2464 3468 2672 
Q 3763 2880 3763 3277 
Q 3763 3674 3468 3882 
Q 3174 4090 2630 4090 
L 1203 4090 
z
M 2784 390 
Q 3386 390 3693 595 
Q 4000 800 4000 1235 
Q 4000 2074 2784 2074 
L 1203 2074 
L 1203 390 
L 2784 390 
z
" transform="scale(0.015625)"/>
       <path id="Montserrat-Regular-6f" d="M 2010 -32 
Q 1523 -32 1132 189 
Q 742 410 518 800 
Q 294 1190 294 1683 
Q 294 2176 518 2566 
Q 742 2957 1132 3174 
Q 1523 3392 2010 3392 
Q 2496 3392 2886 3174 
Q 3277 2957 3497 2566 
Q 3718 2176 3718 1683 
Q 3718 1190 3497 800 
Q 3277 410 2886 189 
Q 2496 -32 2010 -32 
z
M 2010 371 
Q 2368 371 2653 534 
Q 2938 698 3098 998 
Q 3258 1299 3258 1683 
Q 3258 2067 3098 2368 
Q 2938 2669 2653 2832 
Q 2368 2995 2010 2995 
Q 1651 2995 1366 2832 
Q 1082 2669 918 2368 
Q 755 2067 755 1683 
Q 755 1299 918 998 
Q 1082 698 1366 534 
Q 1651 371 2010 371 
z
" transform="scale(0.015625)"/>
       <path id="Montserrat-Regular-72" d="M 1069 2707 
Q 1229 3046 1545 3219 
Q 1862 3392 2330 3392 
L 2330 2950 
L 2221 2957 
Q 1690 2957 1389 2630 
Q 1088 2304 1088 1715 
L 1088 0 
L 634 0 
L 634 3366 
L 1069 3366 
L 1069 2707 
z
" transform="scale(0.015625)"/>
       <path id="Montserrat-Regular-6e" d="M 2349 3392 
Q 2982 3392 3356 3024 
Q 3731 2656 3731 1952 
L 3731 0 
L 3277 0 
L 3277 1907 
Q 3277 2432 3014 2707 
Q 2752 2982 2266 2982 
Q 1722 2982 1405 2659 
Q 1088 2336 1088 1766 
L 1088 0 
L 634 0 
L 634 3366 
L 1069 3366 
L 1069 2746 
Q 1254 3053 1584 3222 
Q 1914 3392 2349 3392 
z
" transform="scale(0.015625)"/>
       <path id="Montserrat-Regular-20" transform="scale(0.015625)"/>
       <path id="Montserrat-Regular-70" d="M 2368 3392 
Q 2842 3392 3226 3177 
Q 3610 2963 3827 2572 
Q 4045 2182 4045 1683 
Q 4045 1178 3827 787 
Q 3610 397 3229 182 
Q 2848 -32 2368 -32 
Q 1958 -32 1628 137 
Q 1299 307 1088 634 
L 1088 -1242 
L 634 -1242 
L 634 3366 
L 1069 3366 
L 1069 2701 
Q 1274 3034 1610 3213 
Q 1946 3392 2368 3392 
z
M 2336 371 
Q 2688 371 2976 534 
Q 3264 698 3427 998 
Q 3590 1299 3590 1683 
Q 3590 2067 3427 2364 
Q 3264 2662 2976 2828 
Q 2688 2995 2336 2995 
Q 1978 2995 1693 2828 
Q 1408 2662 1245 2364 
Q 1082 2067 1082 1683 
Q 1082 1299 1245 998 
Q 1408 698 1693 534 
Q 1978 371 2336 371 
z
" transform="scale(0.015625)"/>
       <path id="Montserrat-Regular-65" d="M 3565 1542 
L 749 1542 
Q 787 1018 1152 694 
Q 1517 371 2074 371 
Q 2387 371 2649 483 
Q 2912 595 3104 813 
L 3360 518 
Q 3136 250 2800 109 
Q 2464 -32 2061 -32 
Q 1542 -32 1142 189 
Q 742 410 518 800 
Q 294 1190 294 1683 
Q 294 2176 508 2566 
Q 723 2957 1097 3174 
Q 1472 3392 1939 3392 
Q 2406 3392 2777 3174 
Q 3149 2957 3360 2569 
Q 3571 2182 3571 1683 
L 3565 1542 
z
M 1939 3002 
Q 1453 3002 1123 2691 
Q 794 2381 749 1882 
L 3136 1882 
Q 3091 2381 2761 2691 
Q 2432 3002 1939 3002 
z
" transform="scale(0.015625)"/>
       <path id="Montserrat-Regular-79" d="M 3462 3366 
L 1779 -403 
Q 1574 -877 1305 -1075 
Q 1037 -1274 659 -1274 
Q 416 -1274 205 -1197 
Q -6 -1120 -160 -966 
L 51 -627 
Q 307 -883 666 -883 
Q 896 -883 1059 -755 
Q 1222 -627 1363 -320 
L 1510 6 
L 6 3366 
L 480 3366 
L 1747 506 
L 3014 3366 
L 3462 3366 
z
" transform="scale(0.015625)"/>
       <path id="Montserrat-Regular-61" d="M 1811 3392 
Q 2470 3392 2822 3062 
Q 3174 2733 3174 2086 
L 3174 0 
L 2739 0 
L 2739 525 
Q 2586 262 2288 115 
Q 1990 -32 1581 -32 
Q 1018 -32 685 237 
Q 352 506 352 947 
Q 352 1376 662 1638 
Q 973 1901 1651 1901 
L 2720 1901 
L 2720 2106 
Q 2720 2541 2477 2768 
Q 2234 2995 1766 2995 
Q 1446 2995 1152 2889 
Q 858 2784 646 2598 
L 442 2938 
Q 698 3155 1056 3273 
Q 1414 3392 1811 3392 
z
M 1651 326 
Q 2035 326 2310 502 
Q 2586 678 2720 1011 
L 2720 1562 
L 1664 1562 
Q 800 1562 800 960 
Q 800 666 1024 496 
Q 1248 326 1651 326 
z
" transform="scale(0.015625)"/>
       <path id="Montserrat-Regular-69" d="M 634 3366 
L 1088 3366 
L 1088 0 
L 634 0 
L 634 3366 
z
M 864 4102 
Q 723 4102 627 4198 
Q 531 4294 531 4429 
Q 531 4557 627 4653 
Q 723 4749 864 4749 
Q 1005 4749 1101 4656 
Q 1197 4563 1197 4435 
Q 1197 4294 1101 4198 
Q 1005 4102 864 4102 
z
" transform="scale(0.015625)"/>
       <path id="Montserrat-Regular-74" d="M 2406 205 
Q 2278 90 2089 29 
Q 1901 -32 1696 -32 
Q 1222 -32 966 224 
Q 710 480 710 947 
L 710 2982 
L 109 2982 
L 109 3366 
L 710 3366 
L 710 4102 
L 1165 4102 
L 1165 3366 
L 2189 3366 
L 2189 2982 
L 1165 2982 
L 1165 973 
Q 1165 672 1315 515 
Q 1466 358 1747 358 
Q 1888 358 2019 403 
Q 2150 448 2246 531 
L 2406 205 
z
" transform="scale(0.015625)"/>
       <path id="Montserrat-Regular-68" d="M 2349 3392 
Q 2982 3392 3356 3024 
Q 3731 2656 3731 1952 
L 3731 0 
L 3277 0 
L 3277 1907 
Q 3277 2432 3014 2707 
Q 2752 2982 2266 2982 
Q 1722 2982 1405 2659 
Q 1088 2336 1088 1766 
L 1088 0 
L 634 0 
L 634 4749 
L 1088 4749 
L 1088 2778 
Q 1274 3072 1600 3232 
Q 1926 3392 2349 3392 
z
" transform="scale(0.015625)"/>
       <path id="Montserrat-Regular-55" d="M 2534 -38 
Q 1664 -38 1177 461 
Q 691 960 691 1914 
L 691 4480 
L 1165 4480 
L 1165 1933 
Q 1165 1152 1517 768 
Q 1869 384 2534 384 
Q 3206 384 3558 768 
Q 3910 1152 3910 1933 
L 3910 4480 
L 4371 4480 
L 4371 1914 
Q 4371 960 3888 461 
Q 3405 -38 2534 -38 
z
" transform="scale(0.015625)"/>
       <path id="Montserrat-Regular-53" d="M 1965 -38 
Q 1466 -38 1008 122 
Q 550 282 301 544 
L 486 909 
Q 730 666 1133 515 
Q 1536 365 1965 365 
Q 2566 365 2867 585 
Q 3168 806 3168 1158 
Q 3168 1427 3005 1587 
Q 2842 1747 2605 1833 
Q 2368 1920 1946 2022 
Q 1440 2150 1139 2268 
Q 838 2387 624 2630 
Q 410 2874 410 3290 
Q 410 3629 589 3907 
Q 768 4186 1139 4352 
Q 1510 4518 2061 4518 
Q 2445 4518 2813 4412 
Q 3181 4307 3450 4122 
L 3290 3744 
Q 3008 3930 2688 4022 
Q 2368 4115 2061 4115 
Q 1472 4115 1174 3888 
Q 877 3661 877 3302 
Q 877 3034 1040 2870 
Q 1203 2707 1449 2620 
Q 1696 2534 2112 2432 
Q 2605 2310 2909 2192 
Q 3213 2074 3424 1834 
Q 3635 1594 3635 1184 
Q 3635 845 3452 566 
Q 3270 288 2892 125 
Q 2515 -38 1965 -38 
z
" transform="scale(0.015625)"/>
      </defs>
      <use xlink:href="#Montserrat-Regular-42"/>
      <use xlink:href="#Montserrat-Regular-6f" x="75.399994"/>
      <use xlink:href="#Montserrat-Regular-72" x="138.099991"/>
      <use xlink:href="#Montserrat-Regular-6e" x="178.199982"/>
      <use xlink:href="#Montserrat-Regular-20" x="245.899963"/>
      <use xlink:href="#Montserrat-Regular-70" x="272.09996"/>
      <use xlink:href="#Montserrat-Regular-65" x="339.899948"/>
      <use xlink:href="#Montserrat-Regular-72" x="400.299942"/>
      <use xlink:href="#Montserrat-Regular-20" x="440.399933"/>
      <use xlink:href="#Montserrat-Regular-79" x="466.59993"/>
      <use xlink:href="#Montserrat-Regular-65" x="520.799927"/>
      <use xlink:href="#Montserrat-Regular-61" x="581.199921"/>
      <use xlink:href="#Montserrat-Regular-72" x="640.199905"/>
      <use xlink:href="#Montserrat-Regular-20" x="680.299896"/>
      <use xlink:href="#Montserrat-Regular-69" x="706.499893"/>
      <use xlink:href="#Montserrat-Regular-6e" x="733.399887"/>
      <use xlink:href="#Montserrat-Regular-20" x="801.099869"/>
      <use xlink:href="#Montserrat-Regular-74" x="827.299866"/>
      <use xlink:href="#Montserrat-Regular-68" x="867.899857"/>
      <use xlink:href="#Montserrat-Regular-65" x="935.599838"/>
      <use xlink:href="#Montserrat-Regular-20" x="995.999832"/>
      <use xlink:href="#Montserrat-Regular-55" x="1022.199829"/>
      <use xlink:href="#Montserrat-Regular-53" x="1101.399811"/>
     </g>
    </g>
   </g>
   <g id="line2d_1">
    <path d="M 56.911461 346.6 
L 57.339692 345.263992 
L 60.959215 338.460214 
L 64.578738 328.11919 
L 68.198261 321.942255 
L 71.817784 312.225275 
L 75.437307 302.499855 
L 79.05683 298.677089 
L 82.676353 293.919961 
L 86.295876 286.616098 
L 89.915399 283.429801 
L 93.534922 279.819365 
L 97.154446 278.527859 
L 100.773969 281.874641 
L 104.393492 281.084496 
L 108.013015 272.493247 
L 111.632538 262.906515 
L 115.252061 252.744564 
L 118.871584 243.254213 
L 122.491107 240.498657 
L 126.11063 240.98704 
L 129.730153 223.257885 
L 133.349676 196.216007 
L 136.969199 158.870934 
L 140.588723 128.917168 
L 144.208246 113.802192 
L 147.827769 101.848814 
L 151.447292 89.855725 
L 155.066815 78.797105 
L 158.686338 69.00839 
L 162.305861 61.700532 
L 165.925384 57.547047 
L 169.544907 54.42179 
L 173.16443 48.773475 
L 176.783953 41.777082 
L 180.403476 36.34808 
L 184.023 32.821294 
L 187.642523 32.03409 
L 191.262046 33.354325 
L 194.881569 34.325713 
L 198.501092 35.814731 
L 202.120615 37.942075 
L 205.740138 39.68839 
L 209.359661 41.92179 
L 212.979184 43.266342 
L 216.598707 44.521916 
L 220.21823 47.254485 
L 223.837753 50.597921 
L 227.457277 54.465847 
L 231.0768 58.234575 
L 234.696323 60.157536 
L 238.315846 62.952055 
L 241.935369 67.999083 
L 245.554892 75.846326 
L 249.174415 86.274982 
L 252.793938 98.298337 
L 256.413461 107.577176 
L 260.032984 115.367528 
L 263.652507 124.089374 
L 267.27203 130.754687 
L 270.891554 131.175244 
L 274.511077 126.582813 
L 278.1306 121.624134 
L 281.750123 119.917694 
L 285.369646 122.85161 
L 288.989169 127.212335 
L 292.608692 134.010341 
L 296.228215 140.05836 
L 299.847738 145.95397 
L 303.467261 152.505586 
L 307.086784 159.641764 
L 310.706307 164.800127 
L 314.325831 170.290778 
L 317.945354 175.537801 
L 321.564877 181.026998 
L 325.1844 187.362146 
L 328.803923 190.774606 
L 332.423446 190.906934 
L 336.042969 190.188149 
L 339.662492 190.293694 
L 343.282015 191.977204 
L 346.901538 196.273287 
L 350.521061 200.884349 
L 354.140584 201.410645 
L 357.760108 201.08275 
L 361.379631 203.043112 
L 364.999154 203.886345 
L 368.618677 204.765296 
L 372.2382 207.376974 
L 375.857723 208.509344 
L 379.477246 213.934369 
L 383.096769 224.129101 
L 386.716292 233.540274 
L 390.335815 241.03091 
L 393.955338 244.347769 
L 397.574861 248.429753 
L 401.194385 252.48208 
L 404.813908 253.916058 
L 408.433431 257.323717 
L 412.052954 259.36368 
L 415.672477 262.177667 
L 419.292 266.633132 
L 422.911523 269.16609 
L 426.531046 273.727934 
L 430.150569 283.60219 
" clip-path="url(#p2a10b08486)" style="fill: none; stroke: #1f77b4; stroke-width: 1.5; stroke-linecap: round"/>
   </g>
   <g id="line2d_2">
    <path d="M 132.640983 346.6 
L 133.349676 340.837722 
L 136.969199 328.947783 
L 140.588723 321.832597 
L 144.208246 321.234302 
L 147.827769 321.342481 
L 151.447292 321.342481 
L 155.066815 320.061506 
L 158.686338 315.516528 
L 162.305861 310.117985 
L 165.925384 306.802095 
L 169.544907 311.569435 
L 173.16443 300.6995 
L 176.783953 289.997164 
L 180.403476 283.544652 
L 184.023 280.010023 
L 187.642523 282.905302 
L 191.262046 294.594272 
L 194.881569 297.431005 
L 198.501092 294.387954 
L 202.120615 289.917374 
L 205.740138 280.716233 
L 209.359661 271.361915 
L 212.979184 267.026865 
L 216.598707 269.869086 
L 220.21823 261.979678 
L 223.837753 253.054703 
L 227.457277 243.652976 
L 231.0768 237.692952 
L 234.696323 222.242659 
L 238.315846 209.447791 
L 241.935369 198.363108 
L 245.554892 192.725977 
L 249.174415 189.516387 
L 252.793938 187.56558 
L 256.413461 180.393626 
L 260.032984 171.633048 
L 263.652507 161.479071 
L 267.27203 150.260194 
L 270.891554 134.463259 
L 274.511077 117.886506 
L 278.1306 111.197485 
L 281.750123 111.58327 
L 285.369646 117.932357 
L 288.989169 128.575838 
L 292.608692 136.475426 
L 296.228215 134.566202 
L 299.847738 133.520515 
L 303.467261 129.79246 
L 307.086784 122.928906 
L 310.706307 114.672312 
L 314.325831 107.985847 
L 317.945354 102.66572 
L 321.564877 100.094053 
L 325.1844 98.872121 
L 328.803923 97.44632 
L 332.423446 95.780945 
L 336.042969 94.887915 
L 339.662492 94.454902 
L 343.282015 95.892176 
L 346.901538 98.891049 
L 350.521061 102.154281 
L 354.140584 103.131793 
L 357.760108 102.788479 
L 361.379631 101.870563 
L 364.999154 100.623221 
L 368.618677 100.592967 
L 372.2382 101.80385 
L 375.857723 102.341539 
L 379.477246 105.409144 
L 383.096769 110.801265 
L 386.716292 117.329851 
L 390.335815 124.063941 
L 393.955338 130.185379 
L 397.574861 133.960648 
L 401.194385 139.031498 
L 404.813908 144.565657 
L 408.433431 150.539502 
L 412.052954 155.191577 
L 415.672477 159.730723 
L 419.292 163.553709 
L 422.911523 166.92137 
L 426.531046 169.576348 
L 430.150569 171.362395 
" clip-path="url(#p2a10b08486)" style="fill: none; stroke: #ff7f0e; stroke-width: 1.5; stroke-linecap: round"/>
   </g>
   <g id="line2d_3">
    <path d="M -1 159.534564 
L -0.572678 159.282204 
L 3.046845 154.111452 
L 6.666368 150.895696 
L 10.285892 147.991088 
L 13.905415 145.314033 
L 17.524938 141.933994 
L 21.144461 137.893742 
L 24.763984 130.426116 
L 28.383507 122.1792 
L 32.00303 115.248525 
L 35.622553 106.681832 
L 39.242076 98.636552 
L 42.861599 93.24336 
L 46.481122 88.870592 
L 50.100645 86.328491 
L 53.720169 85.675293 
L 57.339692 84.666891 
L 60.959215 84.360105 
L 64.578738 84.865971 
L 68.198261 84.789491 
L 71.817784 84.865716 
L 75.437307 85.495825 
L 79.05683 86.344319 
L 82.676353 88.449061 
L 86.295876 91.443245 
L 89.915399 93.768425 
L 93.534922 97.111682 
L 97.154446 99.946225 
L 100.773969 102.486593 
L 104.393492 104.440859 
L 108.013015 106.013907 
L 111.632538 107.78254 
L 115.252061 110.194271 
L 118.871584 112.092391 
L 122.491107 115.065057 
L 126.11063 117.5749 
L 129.730153 119.200374 
L 133.349676 121.188539 
L 136.969199 121.643503 
L 140.588723 122.269615 
L 144.208246 124.388226 
L 147.827769 126.754511 
L 151.447292 128.378454 
L 155.066815 129.198414 
L 158.686338 129.881517 
L 162.305861 131.590286 
L 165.925384 135.198533 
L 169.544907 138.388549 
L 173.16443 139.761766 
L 176.783953 140.287941 
L 180.403476 141.668905 
L 184.023 143.390387 
L 187.642523 146.076338 
L 194.881569 152.055461 
L 198.501092 155.710584 
L 202.120615 159.945516 
L 205.740138 164.596144 
L 209.359661 166.371316 
L 212.979184 167.631199 
L 216.598707 169.125625 
L 220.21823 172.388334 
L 223.837753 177.466402 
L 227.457277 186.839622 
L 231.0768 191.997431 
L 234.696323 195.503084 
L 238.315846 194.878556 
L 241.935369 194.583364 
L 245.554892 194.053309 
L 252.793938 197.984132 
L 256.413461 199.475429 
L 260.032984 199.509681 
L 263.652507 199.832956 
L 267.27203 199.032554 
L 270.891554 198.493509 
L 274.511077 196.766409 
L 278.1306 195.817117 
L 281.750123 196.6667 
L 285.369646 198.356431 
L 288.989169 199.712311 
L 292.608692 201.910717 
L 296.228215 201.719373 
L 299.847738 201.965022 
L 303.467261 200.951564 
L 307.086784 195.628429 
L 310.706307 188.543568 
L 314.325831 182.47748 
L 317.945354 177.764776 
L 321.564877 176.244108 
L 325.1844 175.983949 
L 328.803923 176.448874 
L 332.423446 177.535079 
L 336.042969 176.524126 
L 339.662492 174.645155 
L 343.282015 172.306855 
L 346.901538 169.572001 
L 350.521061 166.575566 
L 354.140584 164.134068 
L 357.760108 158.96929 
L 361.379631 151.814079 
L 364.999154 145.437657 
L 368.618677 139.549869 
L 372.2382 134.453841 
L 375.857723 131.216792 
L 379.477246 129.945949 
L 383.096769 130.128424 
L 386.716292 131.845488 
L 390.335815 131.771578 
L 393.955338 129.7064 
L 397.574861 126.917617 
L 401.194385 123.379057 
L 404.813908 121.401128 
L 408.433431 121.091033 
L 412.052954 120.177016 
L 415.672477 120.937665 
L 419.292 122.18752 
L 422.911523 122.396627 
L 426.531046 122.167911 
L 430.150569 121.518344 
L 430.150569 121.518344 
" clip-path="url(#p2a10b08486)" style="fill: none; stroke: #2ca02c; stroke-width: 1.5; stroke-linecap: round"/>
   </g>
   <g id="text_11">
    <!-- dynomight.net -->
    <g style="fill: #262626; opacity: 0.5" transform="translate(404.813908 310.16) scale(0.05 -0.05)">
     <defs>
      <path id="CourierNewPSMT-64" d="M 3206 3922 
L 3206 263 
L 3556 263 
Q 3653 263 3693 227 
Q 3734 191 3734 131 
Q 3734 75 3693 37 
Q 3653 0 3556 0 
L 2941 0 
L 2941 522 
Q 2484 -103 1781 -103 
Q 1425 -103 1098 86 
Q 772 275 583 625 
Q 394 975 394 1347 
Q 394 1722 583 2070 
Q 772 2419 1098 2609 
Q 1425 2800 1784 2800 
Q 2472 2800 2941 2175 
L 2941 3656 
L 2591 3656 
Q 2494 3656 2453 3693 
Q 2413 3731 2413 3791 
Q 2413 3847 2453 3884 
Q 2494 3922 2591 3922 
L 3206 3922 
z
M 2941 1347 
Q 2941 1847 2603 2190 
Q 2266 2534 1800 2534 
Q 1331 2534 993 2190 
Q 656 1847 656 1347 
Q 656 850 993 504 
Q 1331 159 1800 159 
Q 2266 159 2603 504 
Q 2941 850 2941 1347 
z
" transform="scale(0.015625)"/>
      <path id="CourierNewPSMT-79" d="M 1938 0 
L 719 2441 
L 641 2441 
Q 547 2441 506 2478 
Q 466 2516 466 2572 
Q 466 2613 486 2645 
Q 506 2678 539 2692 
Q 572 2706 641 2706 
L 1359 2706 
Q 1453 2706 1493 2668 
Q 1534 2631 1534 2572 
Q 1534 2516 1493 2478 
Q 1453 2441 1359 2441 
L 1006 2441 
L 2078 288 
L 3134 2441 
L 2781 2441 
Q 2688 2441 2647 2478 
Q 2606 2516 2606 2575 
Q 2606 2631 2647 2668 
Q 2688 2706 2781 2706 
L 3497 2706 
Q 3594 2706 3634 2668 
Q 3675 2631 3675 2572 
Q 3675 2531 3650 2497 
Q 3625 2463 3594 2452 
Q 3563 2441 3419 2441 
L 1756 -944 
L 2166 -944 
Q 2259 -944 2300 -980 
Q 2341 -1016 2341 -1075 
Q 2341 -1131 2300 -1168 
Q 2259 -1206 2166 -1206 
L 653 -1206 
Q 559 -1206 518 -1170 
Q 478 -1134 478 -1075 
Q 478 -1016 518 -980 
Q 559 -944 653 -944 
L 1475 -944 
L 1938 0 
z
" transform="scale(0.015625)"/>
      <path id="CourierNewPSMT-6e" d="M 1072 2706 
L 1072 2309 
Q 1347 2588 1569 2694 
Q 1791 2800 2069 2800 
Q 2369 2800 2616 2672 
Q 2791 2578 2933 2361 
Q 3075 2144 3075 1916 
L 3075 263 
L 3297 263 
Q 3391 263 3431 227 
Q 3472 191 3472 131 
Q 3472 75 3431 37 
Q 3391 0 3297 0 
L 2594 0 
Q 2497 0 2456 37 
Q 2416 75 2416 131 
Q 2416 191 2456 227 
Q 2497 263 2594 263 
L 2813 263 
L 2813 1872 
Q 2813 2150 2609 2342 
Q 2406 2534 2066 2534 
Q 1806 2534 1615 2429 
Q 1425 2325 1072 1909 
L 1072 263 
L 1369 263 
Q 1463 263 1503 227 
Q 1544 191 1544 131 
Q 1544 75 1503 37 
Q 1463 0 1369 0 
L 513 0 
Q 419 0 378 37 
Q 338 75 338 131 
Q 338 191 378 227 
Q 419 263 513 263 
L 809 263 
L 809 2441 
L 588 2441 
Q 494 2441 453 2478 
Q 413 2516 413 2575 
Q 413 2631 453 2668 
Q 494 2706 588 2706 
L 1072 2706 
z
" transform="scale(0.015625)"/>
      <path id="CourierNewPSMT-6f" d="M 3388 1347 
Q 3388 747 2958 322 
Q 2528 -103 1922 -103 
Q 1309 -103 881 323 
Q 453 750 453 1347 
Q 453 1947 881 2373 
Q 1309 2800 1922 2800 
Q 2528 2800 2958 2375 
Q 3388 1950 3388 1347 
z
M 3122 1347 
Q 3122 1841 2770 2187 
Q 2419 2534 1919 2534 
Q 1419 2534 1067 2186 
Q 716 1838 716 1347 
Q 716 859 1067 509 
Q 1419 159 1919 159 
Q 2419 159 2770 507 
Q 3122 856 3122 1347 
z
" transform="scale(0.015625)"/>
      <path id="CourierNewPSMT-6d" d="M 725 2706 
L 725 2441 
Q 1059 2800 1397 2800 
Q 1600 2800 1753 2692 
Q 1906 2584 2009 2366 
Q 2184 2584 2364 2692 
Q 2544 2800 2725 2800 
Q 3009 2800 3178 2616 
Q 3400 2378 3400 2097 
L 3400 263 
L 3622 263 
Q 3716 263 3756 227 
Q 3797 191 3797 131 
Q 3797 75 3756 37 
Q 3716 0 3622 0 
L 3138 0 
L 3138 2072 
Q 3138 2272 3016 2403 
Q 2894 2534 2734 2534 
Q 2591 2534 2431 2426 
Q 2272 2319 2069 2003 
L 2069 263 
L 2288 263 
Q 2381 263 2422 227 
Q 2463 191 2463 131 
Q 2463 75 2422 37 
Q 2381 0 2288 0 
L 1803 0 
L 1803 2053 
Q 1803 2263 1679 2398 
Q 1556 2534 1403 2534 
Q 1263 2534 1125 2444 
Q 934 2316 725 2003 
L 725 263 
L 947 263 
Q 1041 263 1081 227 
Q 1122 191 1122 131 
Q 1122 75 1081 37 
Q 1041 0 947 0 
L 241 0 
Q 147 0 106 37 
Q 66 75 66 131 
Q 66 191 106 227 
Q 147 263 241 263 
L 463 263 
L 463 2441 
L 241 2441 
Q 147 2441 106 2478 
Q 66 2516 66 2575 
Q 66 2631 106 2668 
Q 147 2706 241 2706 
L 725 2706 
z
" transform="scale(0.015625)"/>
      <path id="CourierNewPSMT-69" d="M 2050 4053 
L 2050 3375 
L 1663 3375 
L 1663 4053 
L 2050 4053 
z
M 2059 2706 
L 2059 263 
L 3091 263 
Q 3188 263 3228 227 
Q 3269 191 3269 131 
Q 3269 75 3228 37 
Q 3188 0 3091 0 
L 766 0 
Q 672 0 631 37 
Q 591 75 591 131 
Q 591 191 631 227 
Q 672 263 766 263 
L 1797 263 
L 1797 2441 
L 1031 2441 
Q 938 2441 895 2478 
Q 853 2516 853 2572 
Q 853 2631 893 2668 
Q 934 2706 1031 2706 
L 2059 2706 
z
" transform="scale(0.015625)"/>
      <path id="CourierNewPSMT-67" d="M 2803 2225 
L 2803 2706 
L 3419 2706 
Q 3513 2706 3553 2668 
Q 3594 2631 3594 2572 
Q 3594 2516 3553 2478 
Q 3513 2441 3419 2441 
L 3066 2441 
L 3066 -181 
Q 3066 -444 2953 -650 
Q 2878 -788 2703 -934 
Q 2528 -1081 2384 -1143 
Q 2241 -1206 2000 -1206 
L 1256 -1206 
Q 1163 -1206 1122 -1170 
Q 1081 -1134 1081 -1075 
Q 1081 -1016 1122 -978 
Q 1163 -941 1256 -941 
L 2009 -944 
Q 2241 -944 2427 -825 
Q 2613 -706 2734 -478 
Q 2803 -347 2803 -144 
L 2803 644 
Q 2381 66 1716 66 
Q 1175 66 783 467 
Q 391 869 391 1434 
Q 391 2000 783 2400 
Q 1175 2800 1716 2800 
Q 2381 2800 2803 2225 
z
M 2803 1434 
Q 2803 1897 2486 2215 
Q 2169 2534 1728 2534 
Q 1288 2534 972 2214 
Q 656 1894 656 1434 
Q 656 972 972 651 
Q 1288 331 1728 331 
Q 2169 331 2486 651 
Q 2803 972 2803 1434 
z
" transform="scale(0.015625)"/>
      <path id="CourierNewPSMT-68" d="M 1056 3922 
L 1056 2306 
Q 1306 2578 1536 2689 
Q 1766 2800 2050 2800 
Q 2356 2800 2570 2692 
Q 2784 2584 2928 2361 
Q 3072 2138 3072 1891 
L 3072 263 
L 3366 263 
Q 3463 263 3502 227 
Q 3541 191 3541 131 
Q 3541 75 3502 37 
Q 3463 0 3366 0 
L 2513 0 
Q 2416 0 2375 37 
Q 2334 75 2334 131 
Q 2334 191 2375 227 
Q 2416 263 2513 263 
L 2806 263 
L 2806 1872 
Q 2806 2156 2601 2347 
Q 2397 2538 2031 2538 
Q 1744 2538 1541 2397 
Q 1394 2297 1056 1925 
L 1056 263 
L 1353 263 
Q 1447 263 1487 227 
Q 1528 191 1528 131 
Q 1528 75 1487 37 
Q 1447 0 1353 0 
L 497 0 
Q 403 0 362 37 
Q 322 75 322 131 
Q 322 191 362 227 
Q 403 263 497 263 
L 794 263 
L 794 3656 
L 441 3656 
Q 347 3656 306 3693 
Q 266 3731 266 3791 
Q 266 3847 306 3884 
Q 347 3922 441 3922 
L 1056 3922 
z
" transform="scale(0.015625)"/>
      <path id="CourierNewPSMT-74" d="M 1381 2706 
L 2806 2706 
Q 2900 2706 2940 2668 
Q 2981 2631 2981 2572 
Q 2981 2516 2940 2478 
Q 2900 2441 2806 2441 
L 1381 2441 
L 1381 694 
Q 1381 466 1564 312 
Q 1747 159 2100 159 
Q 2366 159 2675 239 
Q 2984 319 3156 419 
Q 3219 459 3259 459 
Q 3309 459 3346 420 
Q 3384 381 3384 328 
Q 3384 281 3344 241 
Q 3244 138 2858 17 
Q 2472 -103 2119 -103 
Q 1659 -103 1387 112 
Q 1116 328 1116 694 
L 1116 2441 
L 631 2441 
Q 538 2441 497 2478 
Q 456 2516 456 2575 
Q 456 2631 497 2668 
Q 538 2706 631 2706 
L 1116 2706 
L 1116 3481 
Q 1116 3575 1153 3615 
Q 1191 3656 1247 3656 
Q 1306 3656 1343 3615 
Q 1381 3575 1381 3481 
L 1381 2706 
z
" transform="scale(0.015625)"/>
      <path id="CourierNewPSMT-2e" d="M 1866 753 
L 1978 753 
Q 2153 753 2278 629 
Q 2403 506 2403 331 
Q 2403 150 2276 28 
Q 2150 -94 1978 -94 
L 1866 -94 
Q 1691 -94 1566 29 
Q 1441 153 1441 328 
Q 1441 509 1567 631 
Q 1694 753 1866 753 
z
" transform="scale(0.015625)"/>
      <path id="CourierNewPSMT-65" d="M 3341 1291 
L 666 1291 
Q 734 781 1092 470 
Q 1450 159 1978 159 
Q 2272 159 2594 256 
Q 2916 353 3119 513 
Q 3178 559 3222 559 
Q 3272 559 3309 520 
Q 3347 481 3347 428 
Q 3347 375 3297 325 
Q 3147 169 2764 33 
Q 2381 -103 1978 -103 
Q 1303 -103 851 339 
Q 400 781 400 1409 
Q 400 1981 823 2390 
Q 1247 2800 1872 2800 
Q 2516 2800 2931 2379 
Q 3347 1959 3341 1291 
z
M 3075 1556 
Q 2997 1991 2664 2262 
Q 2331 2534 1872 2534 
Q 1413 2534 1081 2265 
Q 750 1997 669 1556 
L 3075 1556 
z
" transform="scale(0.015625)"/>
     </defs>
     <use xlink:href="#CourierNewPSMT-64"/>
     <use xlink:href="#CourierNewPSMT-79" x="60.009766"/>
     <use xlink:href="#CourierNewPSMT-6e" x="120.019531"/>
     <use xlink:href="#CourierNewPSMT-6f" x="180.029297"/>
     <use xlink:href="#CourierNewPSMT-6d" x="240.039062"/>
     <use xlink:href="#CourierNewPSMT-69" x="300.048828"/>
     <use xlink:href="#CourierNewPSMT-67" x="360.058594"/>
     <use xlink:href="#CourierNewPSMT-68" x="420.068359"/>
     <use xlink:href="#CourierNewPSMT-74" x="480.078125"/>
     <use xlink:href="#CourierNewPSMT-2e" x="540.087891"/>
     <use xlink:href="#CourierNewPSMT-6e" x="600.097656"/>
     <use xlink:href="#CourierNewPSMT-65" x="660.107422"/>
     <use xlink:href="#CourierNewPSMT-74" x="720.117188"/>
    </g>
   </g>
   <g id="legend_1">
    <g id="line2d_4">
     <path d="M 331.941178 33.208437 
L 345.941178 33.208437 
L 359.941178 33.208437 
" style="fill: none; stroke: #1f77b4; stroke-width: 1.5; stroke-linecap: round"/>
    </g>
    <g id="text_12">
     <!-- Pamela -->
     <g style="fill: #262626" transform="translate(371.141178 38.108437) scale(0.14 -0.14)">
      <defs>
       <path id="Montserrat-Regular-50" d="M 2406 4480 
Q 3264 4480 3750 4070 
Q 4237 3661 4237 2944 
Q 4237 2227 3750 1820 
Q 3264 1414 2406 1414 
L 1203 1414 
L 1203 0 
L 730 0 
L 730 4480 
L 2406 4480 
z
M 2394 1830 
Q 3059 1830 3411 2121 
Q 3763 2413 3763 2944 
Q 3763 3488 3411 3779 
Q 3059 4070 2394 4070 
L 1203 4070 
L 1203 1830 
L 2394 1830 
z
" transform="scale(0.015625)"/>
       <path id="Montserrat-Regular-6d" d="M 4832 3392 
Q 5466 3392 5827 3027 
Q 6189 2662 6189 1952 
L 6189 0 
L 5734 0 
L 5734 1907 
Q 5734 2432 5481 2707 
Q 5229 2982 4768 2982 
Q 4243 2982 3942 2659 
Q 3642 2336 3642 1766 
L 3642 0 
L 3187 0 
L 3187 1907 
Q 3187 2432 2934 2707 
Q 2682 2982 2214 2982 
Q 1696 2982 1392 2659 
Q 1088 2336 1088 1766 
L 1088 0 
L 634 0 
L 634 3366 
L 1069 3366 
L 1069 2752 
Q 1248 3059 1568 3225 
Q 1888 3392 2304 3392 
Q 2726 3392 3036 3213 
Q 3347 3034 3501 2682 
Q 3686 3014 4035 3203 
Q 4384 3392 4832 3392 
z
" transform="scale(0.015625)"/>
       <path id="Montserrat-Regular-6c" d="M 634 4749 
L 1088 4749 
L 1088 0 
L 634 0 
L 634 4749 
z
" transform="scale(0.015625)"/>
      </defs>
      <use xlink:href="#Montserrat-Regular-50"/>
      <use xlink:href="#Montserrat-Regular-61" x="71.799988"/>
      <use xlink:href="#Montserrat-Regular-6d" x="130.799973"/>
      <use xlink:href="#Montserrat-Regular-65" x="236.899963"/>
      <use xlink:href="#Montserrat-Regular-6c" x="297.299957"/>
      <use xlink:href="#Montserrat-Regular-61" x="324.199951"/>
     </g>
    </g>
    <g id="line2d_5">
     <path d="M 331.941178 53.31375 
L 345.941178 53.31375 
L 359.941178 53.31375 
" style="fill: none; stroke: #ff7f0e; stroke-width: 1.5; stroke-linecap: round"/>
    </g>
    <g id="text_13">
     <!-- Brooke -->
     <g style="fill: #262626" transform="translate(371.141178 58.21375) scale(0.14 -0.14)">
      <defs>
       <path id="Montserrat-Regular-6b" d="M 1882 1690 
L 1088 960 
L 1088 0 
L 634 0 
L 634 4749 
L 1088 4749 
L 1088 1530 
L 3098 3366 
L 3661 3366 
L 2221 1990 
L 3795 0 
L 3238 0 
L 1882 1690 
z
" transform="scale(0.015625)"/>
      </defs>
      <use xlink:href="#Montserrat-Regular-42"/>
      <use xlink:href="#Montserrat-Regular-72" x="75.399994"/>
      <use xlink:href="#Montserrat-Regular-6f" x="115.499985"/>
      <use xlink:href="#Montserrat-Regular-6f" x="178.199982"/>
      <use xlink:href="#Montserrat-Regular-6b" x="240.899979"/>
      <use xlink:href="#Montserrat-Regular-65" x="300.999969"/>
     </g>
    </g>
    <g id="line2d_6">
     <path d="M 331.941178 73.419062 
L 345.941178 73.419062 
L 359.941178 73.419062 
" style="fill: none; stroke: #2ca02c; stroke-width: 1.5; stroke-linecap: round"/>
    </g>
    <g id="text_14">
     <!-- Ruby -->
     <g style="fill: #262626" transform="translate(371.141178 78.319062) scale(0.14 -0.14)">
      <defs>
       <path id="Montserrat-Regular-52" d="M 3789 0 
L 2765 1440 
Q 2592 1421 2406 1421 
L 1203 1421 
L 1203 0 
L 730 0 
L 730 4480 
L 2406 4480 
Q 3264 4480 3750 4070 
Q 4237 3661 4237 2944 
Q 4237 2419 3971 2057 
Q 3706 1696 3213 1536 
L 4307 0 
L 3789 0 
z
M 2394 1824 
Q 3059 1824 3411 2118 
Q 3763 2413 3763 2944 
Q 3763 3488 3411 3779 
Q 3059 4070 2394 4070 
L 1203 4070 
L 1203 1824 
L 2394 1824 
z
" transform="scale(0.015625)"/>
       <path id="Montserrat-Regular-75" d="M 3667 3366 
L 3667 0 
L 3232 0 
L 3232 614 
Q 3053 307 2739 137 
Q 2426 -32 2022 -32 
Q 1363 -32 982 336 
Q 602 704 602 1414 
L 602 3366 
L 1056 3366 
L 1056 1459 
Q 1056 928 1318 653 
Q 1581 378 2067 378 
Q 2598 378 2905 701 
Q 3213 1024 3213 1600 
L 3213 3366 
L 3667 3366 
z
" transform="scale(0.015625)"/>
       <path id="Montserrat-Regular-62" d="M 2368 3392 
Q 2842 3392 3226 3177 
Q 3610 2963 3827 2572 
Q 4045 2182 4045 1683 
Q 4045 1184 3827 793 
Q 3610 403 3226 185 
Q 2842 -32 2368 -32 
Q 1946 -32 1610 147 
Q 1274 326 1069 666 
L 1069 0 
L 634 0 
L 634 4749 
L 1088 4749 
L 1088 2726 
Q 1299 3053 1628 3222 
Q 1958 3392 2368 3392 
z
M 2336 371 
Q 2688 371 2976 534 
Q 3264 698 3427 998 
Q 3590 1299 3590 1683 
Q 3590 2067 3427 2368 
Q 3264 2669 2976 2832 
Q 2688 2995 2336 2995 
Q 1978 2995 1693 2832 
Q 1408 2669 1245 2368 
Q 1082 2067 1082 1683 
Q 1082 1299 1245 998 
Q 1408 698 1693 534 
Q 1978 371 2336 371 
z
" transform="scale(0.015625)"/>
      </defs>
      <use xlink:href="#Montserrat-Regular-52"/>
      <use xlink:href="#Montserrat-Regular-75" x="72.299988"/>
      <use xlink:href="#Montserrat-Regular-62" x="139.599976"/>
      <use xlink:href="#Montserrat-Regular-79" x="207.399963"/>
     </g>
    </g>
   </g>
  </g>
 </g>
 <defs>
  <clipPath id="p2a10b08486">
   <rect x="60.959215" y="15.12" width="376.430401" height="295.04"/>
  </clipPath>
 </defs>
</svg>
