<?xml version="1.0" encoding="utf-8" standalone="no"?>
<!DOCTYPE svg PUBLIC "-//W3C//DTD SVG 1.1//EN"
  "http://www.w3.org/Graphics/SVG/1.1/DTD/svg11.dtd">
<svg xmlns:xlink="http://www.w3.org/1999/xlink" width="432pt" height="252pt" viewBox="0 0 432 252" xmlns="http://www.w3.org/2000/svg" version="1.1">
 <metadata>
  <rdf:RDF xmlns:dc="http://purl.org/dc/elements/1.1/" xmlns:cc="http://creativecommons.org/ns#" xmlns:rdf="http://www.w3.org/1999/02/22-rdf-syntax-ns#">
   <cc:Work>
    <dc:type rdf:resource="http://purl.org/dc/dcmitype/StillImage"/>
    <dc:date>2024-11-19T17:58:49.993420</dc:date>
    <dc:format>image/svg+xml</dc:format>
    <dc:creator>
     <cc:Agent>
      <dc:title>Matplotlib v3.8.4, https://matplotlib.org/</dc:title>
     </cc:Agent>
    </dc:creator>
   </cc:Work>
  </rdf:RDF>
 </metadata>
 <defs>
  <style type="text/css">*{stroke-linejoin: round; stroke-linecap: butt}</style>
 </defs>
 <g id="figure_1">
  <g id="patch_1">
   <path d="M 0 252 
L 432 252 
L 432 0 
L 0 0 
z
" style="fill: #ffffff"/>
  </g>
  <g id="axes_1">
   <g id="patch_2">
    <path d="M 54 224.28 
L 388.8 224.28 
L 388.8 30.24 
L 54 30.24 
z
" style="fill: #ffffff"/>
   </g>
   <g id="matplotlib.axis_1">
    <g id="xtick_1">
     <g id="line2d_1"/>
     <g id="text_1">
      <!-- 0 -->
      <g transform="translate(50.689844 235.200312) scale(0.1 -0.1)">
       <defs>
        <path id="Montserrat-Regular-30" d="M 2118 -38 
Q 1600 -38 1193 237 
Q 787 512 560 1027 
Q 333 1542 333 2240 
Q 333 2938 560 3453 
Q 787 3968 1193 4243 
Q 1600 4518 2118 4518 
Q 2637 4518 3043 4243 
Q 3450 3968 3680 3453 
Q 3910 2938 3910 2240 
Q 3910 1542 3680 1027 
Q 3450 512 3043 237 
Q 2637 -38 2118 -38 
z
M 2118 384 
Q 2509 384 2806 601 
Q 3104 819 3270 1235 
Q 3437 1651 3437 2240 
Q 3437 2829 3270 3245 
Q 3104 3661 2806 3878 
Q 2509 4096 2118 4096 
Q 1728 4096 1430 3878 
Q 1133 3661 966 3245 
Q 800 2829 800 2240 
Q 800 1651 966 1235 
Q 1133 819 1430 601 
Q 1728 384 2118 384 
z
" transform="scale(0.015625)"/>
       </defs>
       <use xlink:href="#Montserrat-Regular-30"/>
      </g>
     </g>
    </g>
    <g id="xtick_2">
     <g id="line2d_2"/>
     <g id="text_2">
      <!-- 20 -->
      <g transform="translate(111.621429 235.200312) scale(0.1 -0.1)">
       <defs>
        <path id="Montserrat-Regular-32" d="M 3392 410 
L 3392 0 
L 250 0 
L 250 326 
L 2112 2150 
Q 2464 2496 2589 2749 
Q 2714 3002 2714 3258 
Q 2714 3654 2442 3875 
Q 2170 4096 1664 4096 
Q 877 4096 442 3597 
L 115 3878 
Q 378 4186 784 4352 
Q 1190 4518 1702 4518 
Q 2387 4518 2787 4195 
Q 3187 3872 3187 3309 
Q 3187 2963 3033 2643 
Q 2880 2323 2451 1907 
L 928 410 
L 3392 410 
z
" transform="scale(0.015625)"/>
       </defs>
       <use xlink:href="#Montserrat-Regular-32"/>
       <use xlink:href="#Montserrat-Regular-30" x="56.799988"/>
      </g>
     </g>
    </g>
    <g id="xtick_3">
     <g id="line2d_3"/>
     <g id="text_3">
      <!-- 40 -->
      <g transform="translate(174.928013 235.200312) scale(0.1 -0.1)">
       <defs>
        <path id="Montserrat-Regular-34" d="M 4141 1178 
L 3245 1178 
L 3245 0 
L 2784 0 
L 2784 1178 
L 256 1178 
L 256 1510 
L 2630 4480 
L 3142 4480 
L 851 1587 
L 2797 1587 
L 2797 2624 
L 3245 2624 
L 3245 1587 
L 4141 1587 
L 4141 1178 
z
" transform="scale(0.015625)"/>
       </defs>
       <use xlink:href="#Montserrat-Regular-34"/>
       <use xlink:href="#Montserrat-Regular-30" x="66.099991"/>
      </g>
     </g>
    </g>
    <g id="xtick_4">
     <g id="line2d_4"/>
     <g id="text_4">
      <!-- 60 -->
      <g transform="translate(238.958817 235.200312) scale(0.1 -0.1)">
       <defs>
        <path id="Montserrat-Regular-36" d="M 2189 2682 
Q 2630 2682 2972 2515 
Q 3315 2349 3507 2045 
Q 3699 1741 3699 1338 
Q 3699 928 3500 614 
Q 3302 301 2953 131 
Q 2605 -38 2170 -38 
Q 1280 -38 806 547 
Q 333 1133 333 2202 
Q 333 2950 589 3468 
Q 845 3987 1305 4252 
Q 1766 4518 2381 4518 
Q 3046 4518 3443 4275 
L 3258 3904 
Q 2938 4115 2387 4115 
Q 1645 4115 1222 3644 
Q 800 3174 800 2278 
Q 800 2118 819 1914 
Q 986 2278 1350 2480 
Q 1715 2682 2189 2682 
z
M 2150 352 
Q 2637 352 2941 617 
Q 3245 883 3245 1325 
Q 3245 1766 2941 2028 
Q 2637 2291 2118 2291 
Q 1779 2291 1520 2163 
Q 1261 2035 1113 1811 
Q 966 1587 966 1312 
Q 966 1056 1104 838 
Q 1242 621 1510 486 
Q 1779 352 2150 352 
z
" transform="scale(0.015625)"/>
       </defs>
       <use xlink:href="#Montserrat-Regular-36"/>
       <use xlink:href="#Montserrat-Regular-30" x="60.899994"/>
      </g>
     </g>
    </g>
    <g id="xtick_5">
     <g id="line2d_5"/>
     <g id="text_5">
      <!-- 80 -->
      <g transform="translate(302.585714 235.200312) scale(0.1 -0.1)">
       <defs>
        <path id="Montserrat-Regular-38" d="M 2899 2349 
Q 3322 2208 3549 1926 
Q 3776 1645 3776 1248 
Q 3776 858 3565 566 
Q 3354 275 2960 118 
Q 2566 -38 2035 -38 
Q 1229 -38 768 307 
Q 307 653 307 1248 
Q 307 1651 528 1929 
Q 749 2208 1171 2349 
Q 826 2483 646 2736 
Q 467 2989 467 3334 
Q 467 3878 892 4198 
Q 1318 4518 2035 4518 
Q 2509 4518 2864 4374 
Q 3219 4230 3417 3961 
Q 3616 3693 3616 3334 
Q 3616 2989 3430 2736 
Q 3245 2483 2899 2349 
z
M 928 3322 
Q 928 2950 1222 2732 
Q 1517 2515 2035 2515 
Q 2554 2515 2851 2732 
Q 3149 2950 3149 3315 
Q 3149 3693 2845 3910 
Q 2541 4128 2035 4128 
Q 1523 4128 1225 3910 
Q 928 3693 928 3322 
z
M 2035 352 
Q 2630 352 2966 595 
Q 3302 838 3302 1254 
Q 3302 1670 2966 1910 
Q 2630 2150 2035 2150 
Q 1446 2150 1110 1910 
Q 774 1670 774 1254 
Q 774 832 1107 592 
Q 1440 352 2035 352 
z
" transform="scale(0.015625)"/>
       </defs>
       <use xlink:href="#Montserrat-Regular-38"/>
       <use xlink:href="#Montserrat-Regular-30" x="63.799988"/>
      </g>
     </g>
    </g>
    <g id="xtick_6">
     <g id="line2d_6"/>
     <g id="text_6">
      <!-- 100 -->
      <g transform="translate(364.432143 235.200312) scale(0.1 -0.1)">
       <defs>
        <path id="Montserrat-Regular-31" d="M 1574 4480 
L 1574 0 
L 1114 0 
L 1114 4070 
L 58 4070 
L 58 4480 
L 1574 4480 
z
" transform="scale(0.015625)"/>
       </defs>
       <use xlink:href="#Montserrat-Regular-31"/>
       <use xlink:href="#Montserrat-Regular-30" x="36.099991"/>
       <use xlink:href="#Montserrat-Regular-30" x="102.299988"/>
      </g>
     </g>
    </g>
    <g id="text_7">
     <!-- turns -->
     <g transform="translate(208.170312 248.56125) scale(0.1 -0.1)">
      <defs>
       <path id="Montserrat-Regular-74" d="M 2406 205 
Q 2278 90 2089 29 
Q 1901 -32 1696 -32 
Q 1222 -32 966 224 
Q 710 480 710 947 
L 710 2982 
L 109 2982 
L 109 3366 
L 710 3366 
L 710 4102 
L 1165 4102 
L 1165 3366 
L 2189 3366 
L 2189 2982 
L 1165 2982 
L 1165 973 
Q 1165 672 1315 515 
Q 1466 358 1747 358 
Q 1888 358 2019 403 
Q 2150 448 2246 531 
L 2406 205 
z
" transform="scale(0.015625)"/>
       <path id="Montserrat-Regular-75" d="M 3667 3366 
L 3667 0 
L 3232 0 
L 3232 614 
Q 3053 307 2739 137 
Q 2426 -32 2022 -32 
Q 1363 -32 982 336 
Q 602 704 602 1414 
L 602 3366 
L 1056 3366 
L 1056 1459 
Q 1056 928 1318 653 
Q 1581 378 2067 378 
Q 2598 378 2905 701 
Q 3213 1024 3213 1600 
L 3213 3366 
L 3667 3366 
z
" transform="scale(0.015625)"/>
       <path id="Montserrat-Regular-72" d="M 1069 2707 
Q 1229 3046 1545 3219 
Q 1862 3392 2330 3392 
L 2330 2950 
L 2221 2957 
Q 1690 2957 1389 2630 
Q 1088 2304 1088 1715 
L 1088 0 
L 634 0 
L 634 3366 
L 1069 3366 
L 1069 2707 
z
" transform="scale(0.015625)"/>
       <path id="Montserrat-Regular-6e" d="M 2349 3392 
Q 2982 3392 3356 3024 
Q 3731 2656 3731 1952 
L 3731 0 
L 3277 0 
L 3277 1907 
Q 3277 2432 3014 2707 
Q 2752 2982 2266 2982 
Q 1722 2982 1405 2659 
Q 1088 2336 1088 1766 
L 1088 0 
L 634 0 
L 634 3366 
L 1069 3366 
L 1069 2746 
Q 1254 3053 1584 3222 
Q 1914 3392 2349 3392 
z
" transform="scale(0.015625)"/>
       <path id="Montserrat-Regular-73" d="M 1536 -32 
Q 1126 -32 752 86 
Q 378 205 166 384 
L 371 742 
Q 582 576 902 470 
Q 1222 365 1568 365 
Q 2029 365 2249 509 
Q 2470 653 2470 915 
Q 2470 1101 2348 1206 
Q 2227 1312 2041 1366 
Q 1856 1421 1549 1472 
Q 1139 1549 889 1629 
Q 640 1709 464 1901 
Q 288 2093 288 2432 
Q 288 2854 640 3123 
Q 992 3392 1619 3392 
Q 1946 3392 2272 3305 
Q 2598 3219 2810 3078 
L 2611 2714 
Q 2195 3002 1619 3002 
Q 1184 3002 963 2848 
Q 742 2694 742 2445 
Q 742 2253 867 2137 
Q 992 2022 1177 1968 
Q 1363 1914 1690 1856 
Q 2093 1779 2336 1702 
Q 2579 1626 2752 1440 
Q 2925 1254 2925 928 
Q 2925 486 2557 227 
Q 2189 -32 1536 -32 
z
" transform="scale(0.015625)"/>
      </defs>
      <use xlink:href="#Montserrat-Regular-74"/>
      <use xlink:href="#Montserrat-Regular-75" x="40.599991"/>
      <use xlink:href="#Montserrat-Regular-72" x="107.899979"/>
      <use xlink:href="#Montserrat-Regular-6e" x="147.999969"/>
      <use xlink:href="#Montserrat-Regular-73" x="215.699951"/>
     </g>
    </g>
   </g>
   <g id="matplotlib.axis_2">
    <g id="ytick_1">
     <g id="line2d_7"/>
     <g id="text_8">
      <!-- LOSS -->
      <g transform="translate(23.91875 227.667831) scale(0.1 -0.1)">
       <defs>
        <path id="Montserrat-Regular-4c" d="M 730 4480 
L 1203 4480 
L 1203 410 
L 3712 410 
L 3712 0 
L 730 0 
L 730 4480 
z
" transform="scale(0.015625)"/>
        <path id="Montserrat-Regular-4f" d="M 2688 -38 
Q 2022 -38 1481 259 
Q 941 557 637 1075 
Q 333 1594 333 2240 
Q 333 2886 637 3404 
Q 941 3923 1481 4220 
Q 2022 4518 2688 4518 
Q 3354 4518 3888 4224 
Q 4422 3930 4729 3408 
Q 5037 2886 5037 2240 
Q 5037 1594 4729 1072 
Q 4422 550 3888 256 
Q 3354 -38 2688 -38 
z
M 2688 384 
Q 3219 384 3648 624 
Q 4077 864 4320 1289 
Q 4563 1715 4563 2240 
Q 4563 2765 4320 3190 
Q 4077 3616 3648 3856 
Q 3219 4096 2688 4096 
Q 2157 4096 1725 3856 
Q 1293 3616 1046 3190 
Q 800 2765 800 2240 
Q 800 1715 1046 1289 
Q 1293 864 1725 624 
Q 2157 384 2688 384 
z
" transform="scale(0.015625)"/>
        <path id="Montserrat-Regular-53" d="M 1965 -38 
Q 1466 -38 1008 122 
Q 550 282 301 544 
L 486 909 
Q 730 666 1133 515 
Q 1536 365 1965 365 
Q 2566 365 2867 585 
Q 3168 806 3168 1158 
Q 3168 1427 3005 1587 
Q 2842 1747 2605 1833 
Q 2368 1920 1946 2022 
Q 1440 2150 1139 2268 
Q 838 2387 624 2630 
Q 410 2874 410 3290 
Q 410 3629 589 3907 
Q 768 4186 1139 4352 
Q 1510 4518 2061 4518 
Q 2445 4518 2813 4412 
Q 3181 4307 3450 4122 
L 3290 3744 
Q 3008 3930 2688 4022 
Q 2368 4115 2061 4115 
Q 1472 4115 1174 3888 
Q 877 3661 877 3302 
Q 877 3034 1040 2870 
Q 1203 2707 1449 2620 
Q 1696 2534 2112 2432 
Q 2605 2310 2909 2192 
Q 3213 2074 3424 1834 
Q 3635 1594 3635 1184 
Q 3635 845 3452 566 
Q 3270 288 2892 125 
Q 2515 -38 1965 -38 
z
" transform="scale(0.015625)"/>
       </defs>
       <use xlink:href="#Montserrat-Regular-4c"/>
       <use xlink:href="#Montserrat-Regular-4f" x="58.899994"/>
       <use xlink:href="#Montserrat-Regular-53" x="142.799988"/>
       <use xlink:href="#Montserrat-Regular-53" x="204.299973"/>
      </g>
     </g>
    </g>
    <g id="ytick_2">
     <g id="line2d_8"/>
     <g id="text_9">
      <!-- -1000 -->
      <g transform="translate(23.209375 195.435273) scale(0.1 -0.1)">
       <defs>
        <path id="Montserrat-Regular-2d" d="M 384 1933 
L 2061 1933 
L 2061 1536 
L 384 1536 
L 384 1933 
z
" transform="scale(0.015625)"/>
       </defs>
       <use xlink:href="#Montserrat-Regular-2d"/>
       <use xlink:href="#Montserrat-Regular-31" x="38.199997"/>
       <use xlink:href="#Montserrat-Regular-30" x="74.299988"/>
       <use xlink:href="#Montserrat-Regular-30" x="140.499985"/>
       <use xlink:href="#Montserrat-Regular-30" x="206.699982"/>
      </g>
     </g>
    </g>
    <g id="ytick_3">
     <g id="line2d_9"/>
     <g id="text_10">
      <!-- -500 -->
      <g transform="translate(27.779687 163.202714) scale(0.1 -0.1)">
       <defs>
        <path id="Montserrat-Regular-35" d="M 1510 2643 
Q 2483 2643 2928 2294 
Q 3373 1946 3373 1318 
Q 3373 928 3190 621 
Q 3008 314 2643 138 
Q 2278 -38 1747 -38 
Q 1267 -38 835 118 
Q 403 275 141 538 
L 365 902 
Q 589 672 953 528 
Q 1318 384 1741 384 
Q 2298 384 2602 633 
Q 2906 883 2906 1299 
Q 2906 1760 2563 1997 
Q 2221 2234 1408 2234 
L 454 2234 
L 685 4480 
L 3136 4480 
L 3136 4070 
L 1088 4070 
L 934 2643 
L 1510 2643 
z
" transform="scale(0.015625)"/>
       </defs>
       <use xlink:href="#Montserrat-Regular-2d"/>
       <use xlink:href="#Montserrat-Regular-35" x="38.199997"/>
       <use xlink:href="#Montserrat-Regular-30" x="94.799988"/>
       <use xlink:href="#Montserrat-Regular-30" x="160.999985"/>
      </g>
     </g>
    </g>
    <g id="ytick_4">
     <g id="line2d_10"/>
     <g id="text_11">
      <!-- 0 -->
      <g transform="translate(43.879688 130.970156) scale(0.1 -0.1)">
       <use xlink:href="#Montserrat-Regular-30"/>
      </g>
     </g>
    </g>
    <g id="ytick_5">
     <g id="line2d_11"/>
     <g id="text_12">
      <!-- 500 -->
      <g transform="translate(31.6 98.737598) scale(0.1 -0.1)">
       <use xlink:href="#Montserrat-Regular-35"/>
       <use xlink:href="#Montserrat-Regular-30" x="56.599991"/>
       <use xlink:href="#Montserrat-Regular-30" x="122.799988"/>
      </g>
     </g>
    </g>
    <g id="ytick_6">
     <g id="line2d_12"/>
     <g id="text_13">
      <!-- 1000 -->
      <g transform="translate(27.029687 66.50504) scale(0.1 -0.1)">
       <use xlink:href="#Montserrat-Regular-31"/>
       <use xlink:href="#Montserrat-Regular-30" x="36.099991"/>
       <use xlink:href="#Montserrat-Regular-30" x="102.299988"/>
       <use xlink:href="#Montserrat-Regular-30" x="168.499985"/>
      </g>
     </g>
    </g>
    <g id="ytick_7">
     <g id="line2d_13"/>
     <g id="text_14">
      <!-- WIN -->
      <g transform="translate(28.240625 34.272482) scale(0.1 -0.1)">
       <defs>
        <path id="Montserrat-Regular-57" d="M 6880 4480 
L 5370 0 
L 4870 0 
L 3558 3821 
L 2240 0 
L 1747 0 
L 237 4480 
L 723 4480 
L 2016 627 
L 3354 4480 
L 3795 4480 
L 5114 608 
L 6426 4480 
L 6880 4480 
z
" transform="scale(0.015625)"/>
        <path id="Montserrat-Regular-49" d="M 730 4480 
L 1203 4480 
L 1203 0 
L 730 0 
L 730 4480 
z
" transform="scale(0.015625)"/>
        <path id="Montserrat-Regular-4e" d="M 4474 4480 
L 4474 0 
L 4083 0 
L 1203 3635 
L 1203 0 
L 730 0 
L 730 4480 
L 1120 4480 
L 4006 845 
L 4006 4480 
L 4474 4480 
z
" transform="scale(0.015625)"/>
       </defs>
       <use xlink:href="#Montserrat-Regular-57"/>
       <use xlink:href="#Montserrat-Regular-49" x="111.099991"/>
       <use xlink:href="#Montserrat-Regular-4e" x="141.299988"/>
      </g>
     </g>
    </g>
    <g id="text_15">
     <!-- mean centipawn difference -->
     <g transform="translate(17.26875 196.6475) rotate(-90) scale(0.1 -0.1)">
      <defs>
       <path id="Montserrat-Regular-6d" d="M 4832 3392 
Q 5466 3392 5827 3027 
Q 6189 2662 6189 1952 
L 6189 0 
L 5734 0 
L 5734 1907 
Q 5734 2432 5481 2707 
Q 5229 2982 4768 2982 
Q 4243 2982 3942 2659 
Q 3642 2336 3642 1766 
L 3642 0 
L 3187 0 
L 3187 1907 
Q 3187 2432 2934 2707 
Q 2682 2982 2214 2982 
Q 1696 2982 1392 2659 
Q 1088 2336 1088 1766 
L 1088 0 
L 634 0 
L 634 3366 
L 1069 3366 
L 1069 2752 
Q 1248 3059 1568 3225 
Q 1888 3392 2304 3392 
Q 2726 3392 3036 3213 
Q 3347 3034 3501 2682 
Q 3686 3014 4035 3203 
Q 4384 3392 4832 3392 
z
" transform="scale(0.015625)"/>
       <path id="Montserrat-Regular-65" d="M 3565 1542 
L 749 1542 
Q 787 1018 1152 694 
Q 1517 371 2074 371 
Q 2387 371 2649 483 
Q 2912 595 3104 813 
L 3360 518 
Q 3136 250 2800 109 
Q 2464 -32 2061 -32 
Q 1542 -32 1142 189 
Q 742 410 518 800 
Q 294 1190 294 1683 
Q 294 2176 508 2566 
Q 723 2957 1097 3174 
Q 1472 3392 1939 3392 
Q 2406 3392 2777 3174 
Q 3149 2957 3360 2569 
Q 3571 2182 3571 1683 
L 3565 1542 
z
M 1939 3002 
Q 1453 3002 1123 2691 
Q 794 2381 749 1882 
L 3136 1882 
Q 3091 2381 2761 2691 
Q 2432 3002 1939 3002 
z
" transform="scale(0.015625)"/>
       <path id="Montserrat-Regular-61" d="M 1811 3392 
Q 2470 3392 2822 3062 
Q 3174 2733 3174 2086 
L 3174 0 
L 2739 0 
L 2739 525 
Q 2586 262 2288 115 
Q 1990 -32 1581 -32 
Q 1018 -32 685 237 
Q 352 506 352 947 
Q 352 1376 662 1638 
Q 973 1901 1651 1901 
L 2720 1901 
L 2720 2106 
Q 2720 2541 2477 2768 
Q 2234 2995 1766 2995 
Q 1446 2995 1152 2889 
Q 858 2784 646 2598 
L 442 2938 
Q 698 3155 1056 3273 
Q 1414 3392 1811 3392 
z
M 1651 326 
Q 2035 326 2310 502 
Q 2586 678 2720 1011 
L 2720 1562 
L 1664 1562 
Q 800 1562 800 960 
Q 800 666 1024 496 
Q 1248 326 1651 326 
z
" transform="scale(0.015625)"/>
       <path id="Montserrat-Regular-20" transform="scale(0.015625)"/>
       <path id="Montserrat-Regular-63" d="M 2029 -32 
Q 1530 -32 1136 185 
Q 742 403 518 796 
Q 294 1190 294 1683 
Q 294 2176 518 2566 
Q 742 2957 1136 3174 
Q 1530 3392 2029 3392 
Q 2464 3392 2806 3222 
Q 3149 3053 3347 2726 
L 3008 2496 
Q 2842 2746 2586 2870 
Q 2330 2995 2029 2995 
Q 1664 2995 1373 2832 
Q 1082 2669 918 2368 
Q 755 2067 755 1683 
Q 755 1293 918 995 
Q 1082 698 1373 534 
Q 1664 371 2029 371 
Q 2330 371 2586 492 
Q 2842 614 3008 864 
L 3347 634 
Q 3149 307 2803 137 
Q 2458 -32 2029 -32 
z
" transform="scale(0.015625)"/>
       <path id="Montserrat-Regular-69" d="M 634 3366 
L 1088 3366 
L 1088 0 
L 634 0 
L 634 3366 
z
M 864 4102 
Q 723 4102 627 4198 
Q 531 4294 531 4429 
Q 531 4557 627 4653 
Q 723 4749 864 4749 
Q 1005 4749 1101 4656 
Q 1197 4563 1197 4435 
Q 1197 4294 1101 4198 
Q 1005 4102 864 4102 
z
" transform="scale(0.015625)"/>
       <path id="Montserrat-Regular-70" d="M 2368 3392 
Q 2842 3392 3226 3177 
Q 3610 2963 3827 2572 
Q 4045 2182 4045 1683 
Q 4045 1178 3827 787 
Q 3610 397 3229 182 
Q 2848 -32 2368 -32 
Q 1958 -32 1628 137 
Q 1299 307 1088 634 
L 1088 -1242 
L 634 -1242 
L 634 3366 
L 1069 3366 
L 1069 2701 
Q 1274 3034 1610 3213 
Q 1946 3392 2368 3392 
z
M 2336 371 
Q 2688 371 2976 534 
Q 3264 698 3427 998 
Q 3590 1299 3590 1683 
Q 3590 2067 3427 2364 
Q 3264 2662 2976 2828 
Q 2688 2995 2336 2995 
Q 1978 2995 1693 2828 
Q 1408 2662 1245 2364 
Q 1082 2067 1082 1683 
Q 1082 1299 1245 998 
Q 1408 698 1693 534 
Q 1978 371 2336 371 
z
" transform="scale(0.015625)"/>
       <path id="Montserrat-Regular-77" d="M 5574 3366 
L 4301 0 
L 3872 0 
L 2810 2758 
L 1747 0 
L 1318 0 
L 51 3366 
L 486 3366 
L 1542 506 
L 2624 3366 
L 3014 3366 
L 4090 506 
L 5158 3366 
L 5574 3366 
z
" transform="scale(0.015625)"/>
       <path id="Montserrat-Regular-64" d="M 3706 4749 
L 3706 0 
L 3270 0 
L 3270 666 
Q 3066 326 2730 147 
Q 2394 -32 1971 -32 
Q 1498 -32 1114 185 
Q 730 403 512 793 
Q 294 1184 294 1683 
Q 294 2182 512 2572 
Q 730 2963 1114 3177 
Q 1498 3392 1971 3392 
Q 2381 3392 2710 3222 
Q 3040 3053 3251 2726 
L 3251 4749 
L 3706 4749 
z
M 2010 371 
Q 2362 371 2646 534 
Q 2931 698 3094 998 
Q 3258 1299 3258 1683 
Q 3258 2067 3094 2368 
Q 2931 2669 2646 2832 
Q 2362 2995 2010 2995 
Q 1651 2995 1366 2832 
Q 1082 2669 918 2368 
Q 755 2067 755 1683 
Q 755 1299 918 998 
Q 1082 698 1366 534 
Q 1651 371 2010 371 
z
" transform="scale(0.015625)"/>
       <path id="Montserrat-Regular-66" d="M 1747 4397 
Q 1453 4397 1302 4237 
Q 1152 4077 1152 3763 
L 1152 3366 
L 2189 3366 
L 2189 2982 
L 1165 2982 
L 1165 0 
L 710 0 
L 710 2982 
L 109 2982 
L 109 3366 
L 710 3366 
L 710 3782 
Q 710 4243 976 4512 
Q 1242 4781 1728 4781 
Q 1920 4781 2099 4726 
Q 2278 4672 2400 4570 
L 2246 4230 
Q 2048 4397 1747 4397 
z
" transform="scale(0.015625)"/>
      </defs>
      <use xlink:href="#Montserrat-Regular-6d"/>
      <use xlink:href="#Montserrat-Regular-65" x="106.099991"/>
      <use xlink:href="#Montserrat-Regular-61" x="166.499985"/>
      <use xlink:href="#Montserrat-Regular-6e" x="225.499969"/>
      <use xlink:href="#Montserrat-Regular-20" x="293.199951"/>
      <use xlink:href="#Montserrat-Regular-63" x="319.399948"/>
      <use xlink:href="#Montserrat-Regular-65" x="375.699936"/>
      <use xlink:href="#Montserrat-Regular-6e" x="436.09993"/>
      <use xlink:href="#Montserrat-Regular-74" x="503.799911"/>
      <use xlink:href="#Montserrat-Regular-69" x="544.399902"/>
      <use xlink:href="#Montserrat-Regular-70" x="571.299896"/>
      <use xlink:href="#Montserrat-Regular-61" x="639.099884"/>
      <use xlink:href="#Montserrat-Regular-77" x="698.099869"/>
      <use xlink:href="#Montserrat-Regular-6e" x="785.999863"/>
      <use xlink:href="#Montserrat-Regular-20" x="853.699844"/>
      <use xlink:href="#Montserrat-Regular-64" x="879.899841"/>
      <use xlink:href="#Montserrat-Regular-69" x="947.699829"/>
      <use xlink:href="#Montserrat-Regular-66" x="974.599823"/>
      <use xlink:href="#Montserrat-Regular-66" x="1008.499817"/>
      <use xlink:href="#Montserrat-Regular-65" x="1042.399811"/>
      <use xlink:href="#Montserrat-Regular-72" x="1102.799805"/>
      <use xlink:href="#Montserrat-Regular-65" x="1142.899796"/>
      <use xlink:href="#Montserrat-Regular-6e" x="1203.299789"/>
      <use xlink:href="#Montserrat-Regular-63" x="1270.999771"/>
      <use xlink:href="#Montserrat-Regular-65" x="1327.299759"/>
     </g>
    </g>
   </g>
   <g id="line2d_14">
    <path d="M 54 125.454977 
L 57.188571 124.852873 
L 60.377143 123.697658 
L 63.565714 121.688925 
L 66.754286 119.344973 
L 69.942857 117.284668 
L 73.131429 115.466752 
L 76.32 111.93922 
L 79.508571 110.194794 
L 82.697143 108.00298 
L 85.885714 106.422296 
L 89.074286 104.528311 
L 92.262857 101.829801 
L 95.451429 102.556967 
L 98.64 101.989674 
L 101.828571 99.747578 
L 105.017143 100.320028 
L 108.205714 98.935317 
L 111.394286 97.336582 
L 114.582857 97.330136 
L 117.771429 93.410657 
L 120.96 95.285302 
L 124.148571 92.983898 
L 127.337143 92.20258 
L 130.525714 91.943431 
L 133.714286 92.432076 
L 136.902857 89.569825 
L 140.091429 87.051818 
L 143.28 89.128884 
L 146.468571 88.990928 
L 149.657143 89.07989 
L 152.845714 87.619111 
L 156.034286 86.634084 
L 159.222857 88.617031 
L 165.6 85.451793 
L 168.788571 84.765885 
L 171.977143 80.063799 
L 175.165714 82.170519 
L 178.354286 79.016886 
L 181.542857 75.473883 
L 184.731429 75.35011 
L 187.92 75.825862 
L 191.108571 77.592207 
L 194.297143 78.695849 
L 197.485714 76.195892 
L 200.674286 75.593788 
L 203.862857 76.431834 
L 207.051429 77.1229 
L 210.24 77.367868 
L 213.428571 77.264724 
L 216.617143 78.32582 
L 219.805714 77.198969 
L 222.994286 77.209284 
L 226.182857 77.592207 
L 229.371429 78.850566 
L 232.56 78.964024 
L 235.748571 78.933081 
L 238.937143 79.261853 
L 242.125714 79.474588 
L 245.314286 80.734236 
L 248.502857 81.770835 
L 251.691429 82.107343 
L 254.88 81.409831 
L 258.068571 81.719263 
L 261.257143 82.269795 
L 264.445714 82.358757 
L 267.634286 81.198385 
L 270.822857 80.547287 
L 274.011429 80.809016 
L 277.2 80.696847 
L 280.388571 80.028988 
L 283.577143 80.123107 
L 289.954286 80.136 
L 296.331429 79.742763 
L 299.52 79.778863 
L 302.708571 79.559682 
L 305.897143 79.662826 
L 331.405714 79.594493 
L 337.782857 79.622858 
L 344.16 79.568707 
L 347.348571 79.776285 
L 350.537143 79.564839 
L 353.725714 79.643487 
L 356.914286 80.827066 
L 360.102857 79.706662 
L 363.291429 80.825777 
L 366.48 79.677008 
L 369.668571 79.549367 
L 420.685714 79.438487 
L 433 79.385404 
L 433 79.385404 
" clip-path="url(#p48a71967c6)" style="fill: none; stroke: #17becf; stroke-width: 0.5; stroke-linecap: square"/>
   </g>
   <g id="line2d_15">
    <path d="M 54 125.454977 
L 57.188571 124.935388 
L 60.377143 124.052216 
L 63.565714 122.471531 
L 66.754286 118.960761 
L 69.942857 117.252435 
L 73.131429 115.880618 
L 76.32 114.016287 
L 79.508571 114.018865 
L 82.697143 113.575345 
L 89.074286 107.714177 
L 92.262857 107.382826 
L 95.451429 102.318447 
L 98.64 103.209354 
L 101.828571 100.974993 
L 105.017143 100.691347 
L 108.205714 98.919846 
L 111.394286 95.356214 
L 114.582857 90.48523 
L 117.771429 88.810426 
L 120.96 86.778486 
L 124.148571 89.123727 
L 127.337143 84.911576 
L 130.525714 82.75973 
L 133.714286 81.13392 
L 136.902857 81.311844 
L 140.091429 79.918108 
L 143.28 77.902928 
L 146.468571 76.861172 
L 149.657143 76.794128 
L 152.845714 77.857803 
L 156.034286 75.35011 
L 159.222857 76.614915 
L 162.411429 77.360132 
L 165.6 73.387792 
L 168.788571 73.681753 
L 171.977143 72.317671 
L 175.165714 75.525455 
L 178.354286 76.947555 
L 181.542857 78.87893 
L 184.731429 78.061513 
L 187.92 76.2913 
L 191.108571 76.407338 
L 194.297143 79.56226 
L 197.485714 79.376601 
L 200.674286 80.717475 
L 210.24 80.76518 
L 213.428571 80.475087 
L 216.617143 81.317001 
L 219.805714 81.705081 
L 222.994286 81.234486 
L 226.182857 81.332473 
L 229.371429 81.13392 
L 232.56 81.770835 
L 235.748571 81.255114 
L 238.937143 82.348443 
L 242.125714 82.27882 
L 245.314286 82.745548 
L 248.502857 82.842246 
L 251.691429 85.153965 
L 261.257143 85.317706 
L 264.445714 85.45824 
L 267.634286 86.49355 
L 270.822857 87.027321 
L 277.2 87.125308 
L 280.388571 88.534515 
L 305.897143 88.56288 
L 309.085714 87.576564 
L 312.274286 87.394772 
L 325.028571 88.094863 
L 328.217143 87.846028 
L 334.594286 88.067788 
L 337.782857 88.565459 
L 433 88.58093 
L 433 88.58093 
" clip-path="url(#p48a71967c6)" style="fill: none; stroke: #bcbd22; stroke-width: 0.5; stroke-linecap: square"/>
   </g>
   <g id="line2d_16">
    <path d="M 54 125.454977 
L 57.188571 124.716207 
L 60.377143 123.808538 
L 63.565714 122.247193 
L 66.754286 120.888268 
L 69.942857 121.023645 
L 76.32 118.098218 
L 79.508571 117.851961 
L 82.697143 114.757635 
L 85.885714 113.075096 
L 89.074286 111.242997 
L 92.262857 110.100675 
L 95.451429 111.406739 
L 98.64 107.155909 
L 101.828571 106.837451 
L 105.017143 106.94962 
L 108.205714 103.847559 
L 111.394286 101.124553 
L 114.582857 99.772074 
L 117.771429 97.854882 
L 120.96 100.77902 
L 124.148571 99.012675 
L 127.337143 99.177706 
L 130.525714 101.811751 
L 133.714286 103.113946 
L 136.902857 105.577803 
L 140.091429 108.923542 
L 143.28 110.452655 
L 146.468571 117.488378 
L 149.657143 117.457434 
L 152.845714 119.638934 
L 156.034286 122.872504 
L 159.222857 128.564774 
L 162.411429 132.263782 
L 165.6 134.954556 
L 168.788571 138.324793 
L 171.977143 140.715159 
L 175.165714 141.474558 
L 178.354286 143.835271 
L 181.542857 144.602406 
L 184.731429 145.506207 
L 187.92 147.184878 
L 191.108571 147.798586 
L 194.297143 149.447604 
L 197.485714 150.812975 
L 200.674286 152.431049 
L 203.862857 152.450389 
L 207.051429 153.726798 
L 210.24 154.548084 
L 213.428571 155.703299 
L 216.617143 155.353898 
L 219.805714 155.536979 
L 222.994286 155.400313 
L 226.182857 158.178759 
L 229.371429 158.187784 
L 232.56 160.309976 
L 235.748571 160.569126 
L 238.937143 161.721762 
L 242.125714 161.716605 
L 245.314286 161.581228 
L 248.502857 162.252954 
L 254.88 162.374149 
L 258.068571 163.289553 
L 261.257143 163.128391 
L 264.445714 163.207038 
L 267.634286 163.115498 
L 270.822857 163.324365 
L 274.011429 163.181252 
L 277.2 163.228956 
L 283.577143 163.972884 
L 286.765714 164.230744 
L 289.954286 164.250084 
L 293.142857 164.934703 
L 296.331429 164.943728 
L 299.52 165.944227 
L 366.48 165.945516 
L 433 165.945516 
L 433 165.945516 
" clip-path="url(#p48a71967c6)" style="fill: none; stroke-dasharray: 1.85,0.8; stroke-dashoffset: 0; stroke: #bcbd22; stroke-width: 0.5"/>
   </g>
   <g id="patch_3">
    <path d="M 54 224.28 
L 54 30.24 
" style="fill: none"/>
   </g>
   <g id="patch_4">
    <path d="M 388.8 224.28 
L 388.8 30.24 
" style="fill: none"/>
   </g>
   <g id="patch_5">
    <path d="M 54 224.28 
L 388.8 224.28 
" style="fill: none"/>
   </g>
   <g id="patch_6">
    <path d="M 54 30.24 
L 388.8 30.24 
" style="fill: none"/>
   </g>
   <g id="text_16">
    <g id="patch_7">
     <a xlink:href="https://dynomight.net/chess">
      <path d="M 310.825143 225.676606 
L 375.839987 225.676606 
L 375.839987 213.343012 
L 310.825143 213.343012 
z
" style="fill: #ffffff; opacity: 0.000001; stroke: #ffffff; stroke-linejoin: miter"/>
     </a>
    </g>
    <a xlink:href="https://dynomight.net/chess">
     <!-- dynomight.net/chess -->
     <g style="opacity: 0.3" transform="translate(314.825143 220.734419) scale(0.05 -0.05)">
      <defs>
       <path id="CourierNewPSMT-64" d="M 3206 3922 
L 3206 263 
L 3556 263 
Q 3653 263 3693 227 
Q 3734 191 3734 131 
Q 3734 75 3693 37 
Q 3653 0 3556 0 
L 2941 0 
L 2941 522 
Q 2484 -103 1781 -103 
Q 1425 -103 1098 86 
Q 772 275 583 625 
Q 394 975 394 1347 
Q 394 1722 583 2070 
Q 772 2419 1098 2609 
Q 1425 2800 1784 2800 
Q 2472 2800 2941 2175 
L 2941 3656 
L 2591 3656 
Q 2494 3656 2453 3693 
Q 2413 3731 2413 3791 
Q 2413 3847 2453 3884 
Q 2494 3922 2591 3922 
L 3206 3922 
z
M 2941 1347 
Q 2941 1847 2603 2190 
Q 2266 2534 1800 2534 
Q 1331 2534 993 2190 
Q 656 1847 656 1347 
Q 656 850 993 504 
Q 1331 159 1800 159 
Q 2266 159 2603 504 
Q 2941 850 2941 1347 
z
" transform="scale(0.015625)"/>
       <path id="CourierNewPSMT-79" d="M 1938 0 
L 719 2441 
L 641 2441 
Q 547 2441 506 2478 
Q 466 2516 466 2572 
Q 466 2613 486 2645 
Q 506 2678 539 2692 
Q 572 2706 641 2706 
L 1359 2706 
Q 1453 2706 1493 2668 
Q 1534 2631 1534 2572 
Q 1534 2516 1493 2478 
Q 1453 2441 1359 2441 
L 1006 2441 
L 2078 288 
L 3134 2441 
L 2781 2441 
Q 2688 2441 2647 2478 
Q 2606 2516 2606 2575 
Q 2606 2631 2647 2668 
Q 2688 2706 2781 2706 
L 3497 2706 
Q 3594 2706 3634 2668 
Q 3675 2631 3675 2572 
Q 3675 2531 3650 2497 
Q 3625 2463 3594 2452 
Q 3563 2441 3419 2441 
L 1756 -944 
L 2166 -944 
Q 2259 -944 2300 -980 
Q 2341 -1016 2341 -1075 
Q 2341 -1131 2300 -1168 
Q 2259 -1206 2166 -1206 
L 653 -1206 
Q 559 -1206 518 -1170 
Q 478 -1134 478 -1075 
Q 478 -1016 518 -980 
Q 559 -944 653 -944 
L 1475 -944 
L 1938 0 
z
" transform="scale(0.015625)"/>
       <path id="CourierNewPSMT-6e" d="M 1072 2706 
L 1072 2309 
Q 1347 2588 1569 2694 
Q 1791 2800 2069 2800 
Q 2369 2800 2616 2672 
Q 2791 2578 2933 2361 
Q 3075 2144 3075 1916 
L 3075 263 
L 3297 263 
Q 3391 263 3431 227 
Q 3472 191 3472 131 
Q 3472 75 3431 37 
Q 3391 0 3297 0 
L 2594 0 
Q 2497 0 2456 37 
Q 2416 75 2416 131 
Q 2416 191 2456 227 
Q 2497 263 2594 263 
L 2813 263 
L 2813 1872 
Q 2813 2150 2609 2342 
Q 2406 2534 2066 2534 
Q 1806 2534 1615 2429 
Q 1425 2325 1072 1909 
L 1072 263 
L 1369 263 
Q 1463 263 1503 227 
Q 1544 191 1544 131 
Q 1544 75 1503 37 
Q 1463 0 1369 0 
L 513 0 
Q 419 0 378 37 
Q 338 75 338 131 
Q 338 191 378 227 
Q 419 263 513 263 
L 809 263 
L 809 2441 
L 588 2441 
Q 494 2441 453 2478 
Q 413 2516 413 2575 
Q 413 2631 453 2668 
Q 494 2706 588 2706 
L 1072 2706 
z
" transform="scale(0.015625)"/>
       <path id="CourierNewPSMT-6f" d="M 3388 1347 
Q 3388 747 2958 322 
Q 2528 -103 1922 -103 
Q 1309 -103 881 323 
Q 453 750 453 1347 
Q 453 1947 881 2373 
Q 1309 2800 1922 2800 
Q 2528 2800 2958 2375 
Q 3388 1950 3388 1347 
z
M 3122 1347 
Q 3122 1841 2770 2187 
Q 2419 2534 1919 2534 
Q 1419 2534 1067 2186 
Q 716 1838 716 1347 
Q 716 859 1067 509 
Q 1419 159 1919 159 
Q 2419 159 2770 507 
Q 3122 856 3122 1347 
z
" transform="scale(0.015625)"/>
       <path id="CourierNewPSMT-6d" d="M 725 2706 
L 725 2441 
Q 1059 2800 1397 2800 
Q 1600 2800 1753 2692 
Q 1906 2584 2009 2366 
Q 2184 2584 2364 2692 
Q 2544 2800 2725 2800 
Q 3009 2800 3178 2616 
Q 3400 2378 3400 2097 
L 3400 263 
L 3622 263 
Q 3716 263 3756 227 
Q 3797 191 3797 131 
Q 3797 75 3756 37 
Q 3716 0 3622 0 
L 3138 0 
L 3138 2072 
Q 3138 2272 3016 2403 
Q 2894 2534 2734 2534 
Q 2591 2534 2431 2426 
Q 2272 2319 2069 2003 
L 2069 263 
L 2288 263 
Q 2381 263 2422 227 
Q 2463 191 2463 131 
Q 2463 75 2422 37 
Q 2381 0 2288 0 
L 1803 0 
L 1803 2053 
Q 1803 2263 1679 2398 
Q 1556 2534 1403 2534 
Q 1263 2534 1125 2444 
Q 934 2316 725 2003 
L 725 263 
L 947 263 
Q 1041 263 1081 227 
Q 1122 191 1122 131 
Q 1122 75 1081 37 
Q 1041 0 947 0 
L 241 0 
Q 147 0 106 37 
Q 66 75 66 131 
Q 66 191 106 227 
Q 147 263 241 263 
L 463 263 
L 463 2441 
L 241 2441 
Q 147 2441 106 2478 
Q 66 2516 66 2575 
Q 66 2631 106 2668 
Q 147 2706 241 2706 
L 725 2706 
z
" transform="scale(0.015625)"/>
       <path id="CourierNewPSMT-69" d="M 2050 4053 
L 2050 3375 
L 1663 3375 
L 1663 4053 
L 2050 4053 
z
M 2059 2706 
L 2059 263 
L 3091 263 
Q 3188 263 3228 227 
Q 3269 191 3269 131 
Q 3269 75 3228 37 
Q 3188 0 3091 0 
L 766 0 
Q 672 0 631 37 
Q 591 75 591 131 
Q 591 191 631 227 
Q 672 263 766 263 
L 1797 263 
L 1797 2441 
L 1031 2441 
Q 938 2441 895 2478 
Q 853 2516 853 2572 
Q 853 2631 893 2668 
Q 934 2706 1031 2706 
L 2059 2706 
z
" transform="scale(0.015625)"/>
       <path id="CourierNewPSMT-67" d="M 2803 2225 
L 2803 2706 
L 3419 2706 
Q 3513 2706 3553 2668 
Q 3594 2631 3594 2572 
Q 3594 2516 3553 2478 
Q 3513 2441 3419 2441 
L 3066 2441 
L 3066 -181 
Q 3066 -444 2953 -650 
Q 2878 -788 2703 -934 
Q 2528 -1081 2384 -1143 
Q 2241 -1206 2000 -1206 
L 1256 -1206 
Q 1163 -1206 1122 -1170 
Q 1081 -1134 1081 -1075 
Q 1081 -1016 1122 -978 
Q 1163 -941 1256 -941 
L 2009 -944 
Q 2241 -944 2427 -825 
Q 2613 -706 2734 -478 
Q 2803 -347 2803 -144 
L 2803 644 
Q 2381 66 1716 66 
Q 1175 66 783 467 
Q 391 869 391 1434 
Q 391 2000 783 2400 
Q 1175 2800 1716 2800 
Q 2381 2800 2803 2225 
z
M 2803 1434 
Q 2803 1897 2486 2215 
Q 2169 2534 1728 2534 
Q 1288 2534 972 2214 
Q 656 1894 656 1434 
Q 656 972 972 651 
Q 1288 331 1728 331 
Q 2169 331 2486 651 
Q 2803 972 2803 1434 
z
" transform="scale(0.015625)"/>
       <path id="CourierNewPSMT-68" d="M 1056 3922 
L 1056 2306 
Q 1306 2578 1536 2689 
Q 1766 2800 2050 2800 
Q 2356 2800 2570 2692 
Q 2784 2584 2928 2361 
Q 3072 2138 3072 1891 
L 3072 263 
L 3366 263 
Q 3463 263 3502 227 
Q 3541 191 3541 131 
Q 3541 75 3502 37 
Q 3463 0 3366 0 
L 2513 0 
Q 2416 0 2375 37 
Q 2334 75 2334 131 
Q 2334 191 2375 227 
Q 2416 263 2513 263 
L 2806 263 
L 2806 1872 
Q 2806 2156 2601 2347 
Q 2397 2538 2031 2538 
Q 1744 2538 1541 2397 
Q 1394 2297 1056 1925 
L 1056 263 
L 1353 263 
Q 1447 263 1487 227 
Q 1528 191 1528 131 
Q 1528 75 1487 37 
Q 1447 0 1353 0 
L 497 0 
Q 403 0 362 37 
Q 322 75 322 131 
Q 322 191 362 227 
Q 403 263 497 263 
L 794 263 
L 794 3656 
L 441 3656 
Q 347 3656 306 3693 
Q 266 3731 266 3791 
Q 266 3847 306 3884 
Q 347 3922 441 3922 
L 1056 3922 
z
" transform="scale(0.015625)"/>
       <path id="CourierNewPSMT-74" d="M 1381 2706 
L 2806 2706 
Q 2900 2706 2940 2668 
Q 2981 2631 2981 2572 
Q 2981 2516 2940 2478 
Q 2900 2441 2806 2441 
L 1381 2441 
L 1381 694 
Q 1381 466 1564 312 
Q 1747 159 2100 159 
Q 2366 159 2675 239 
Q 2984 319 3156 419 
Q 3219 459 3259 459 
Q 3309 459 3346 420 
Q 3384 381 3384 328 
Q 3384 281 3344 241 
Q 3244 138 2858 17 
Q 2472 -103 2119 -103 
Q 1659 -103 1387 112 
Q 1116 328 1116 694 
L 1116 2441 
L 631 2441 
Q 538 2441 497 2478 
Q 456 2516 456 2575 
Q 456 2631 497 2668 
Q 538 2706 631 2706 
L 1116 2706 
L 1116 3481 
Q 1116 3575 1153 3615 
Q 1191 3656 1247 3656 
Q 1306 3656 1343 3615 
Q 1381 3575 1381 3481 
L 1381 2706 
z
" transform="scale(0.015625)"/>
       <path id="CourierNewPSMT-2e" d="M 1866 753 
L 1978 753 
Q 2153 753 2278 629 
Q 2403 506 2403 331 
Q 2403 150 2276 28 
Q 2150 -94 1978 -94 
L 1866 -94 
Q 1691 -94 1566 29 
Q 1441 153 1441 328 
Q 1441 509 1567 631 
Q 1694 753 1866 753 
z
" transform="scale(0.015625)"/>
       <path id="CourierNewPSMT-65" d="M 3341 1291 
L 666 1291 
Q 734 781 1092 470 
Q 1450 159 1978 159 
Q 2272 159 2594 256 
Q 2916 353 3119 513 
Q 3178 559 3222 559 
Q 3272 559 3309 520 
Q 3347 481 3347 428 
Q 3347 375 3297 325 
Q 3147 169 2764 33 
Q 2381 -103 1978 -103 
Q 1303 -103 851 339 
Q 400 781 400 1409 
Q 400 1981 823 2390 
Q 1247 2800 1872 2800 
Q 2516 2800 2931 2379 
Q 3347 1959 3341 1291 
z
M 3075 1556 
Q 2997 1991 2664 2262 
Q 2331 2534 1872 2534 
Q 1413 2534 1081 2265 
Q 750 1997 669 1556 
L 3075 1556 
z
" transform="scale(0.015625)"/>
       <path id="CourierNewPSMT-2f" d="M 3100 4113 
L 988 -413 
Q 934 -528 850 -528 
Q 797 -528 758 -489 
Q 719 -450 719 -403 
Q 719 -366 750 -300 
L 2859 4225 
Q 2894 4297 2925 4319 
Q 2956 4341 3000 4341 
Q 3053 4341 3092 4302 
Q 3131 4263 3131 4216 
Q 3131 4181 3100 4113 
z
" transform="scale(0.015625)"/>
       <path id="CourierNewPSMT-63" d="M 3016 2441 
L 3016 2528 
Q 3016 2625 3053 2665 
Q 3091 2706 3147 2706 
Q 3206 2706 3243 2665 
Q 3281 2625 3281 2528 
L 3281 1934 
Q 3278 1838 3242 1797 
Q 3206 1756 3147 1756 
Q 3094 1756 3058 1792 
Q 3022 1828 3016 1913 
Q 2997 2134 2723 2334 
Q 2450 2534 1988 2534 
Q 1403 2534 1100 2168 
Q 797 1803 797 1331 
Q 797 822 1131 490 
Q 1466 159 1997 159 
Q 2303 159 2620 271 
Q 2938 384 3194 634 
Q 3259 697 3309 697 
Q 3363 697 3398 661 
Q 3434 625 3434 572 
Q 3434 438 3119 231 
Q 2609 -103 1984 -103 
Q 1350 -103 942 301 
Q 534 706 534 1328 
Q 534 1963 951 2381 
Q 1369 2800 2003 2800 
Q 2606 2800 3016 2441 
z
" transform="scale(0.015625)"/>
       <path id="CourierNewPSMT-73" d="M 2788 2534 
Q 2788 2625 2825 2665 
Q 2863 2706 2919 2706 
Q 2978 2706 3015 2665 
Q 3053 2625 3053 2528 
L 3053 2078 
Q 3053 1984 3015 1943 
Q 2978 1903 2919 1903 
Q 2866 1903 2830 1937 
Q 2794 1972 2788 2050 
Q 2769 2238 2594 2359 
Q 2338 2534 1916 2534 
Q 1475 2534 1231 2356 
Q 1047 2222 1047 2056 
Q 1047 1869 1266 1744 
Q 1416 1656 1834 1609 
Q 2381 1550 2594 1475 
Q 2897 1366 3045 1172 
Q 3194 978 3194 753 
Q 3194 419 2872 158 
Q 2550 -103 1928 -103 
Q 1306 -103 909 213 
Q 909 106 896 75 
Q 884 44 851 22 
Q 819 0 778 0 
Q 722 0 684 40 
Q 647 81 647 175 
L 647 716 
Q 647 809 683 850 
Q 719 891 778 891 
Q 834 891 873 852 
Q 913 813 913 747 
Q 913 603 984 506 
Q 1094 356 1333 257 
Q 1572 159 1919 159 
Q 2431 159 2681 350 
Q 2931 541 2931 753 
Q 2931 997 2678 1144 
Q 2422 1291 1933 1341 
Q 1444 1391 1231 1472 
Q 1019 1553 900 1715 
Q 781 1878 781 2066 
Q 781 2403 1112 2601 
Q 1444 2800 1903 2800 
Q 2447 2800 2788 2534 
z
" transform="scale(0.015625)"/>
      </defs>
      <use xlink:href="#CourierNewPSMT-64"/>
      <use xlink:href="#CourierNewPSMT-79" x="60.009766"/>
      <use xlink:href="#CourierNewPSMT-6e" x="120.019531"/>
      <use xlink:href="#CourierNewPSMT-6f" x="180.029297"/>
      <use xlink:href="#CourierNewPSMT-6d" x="240.039062"/>
      <use xlink:href="#CourierNewPSMT-69" x="300.048828"/>
      <use xlink:href="#CourierNewPSMT-67" x="360.058594"/>
      <use xlink:href="#CourierNewPSMT-68" x="420.068359"/>
      <use xlink:href="#CourierNewPSMT-74" x="480.078125"/>
      <use xlink:href="#CourierNewPSMT-2e" x="540.087891"/>
      <use xlink:href="#CourierNewPSMT-6e" x="600.097656"/>
      <use xlink:href="#CourierNewPSMT-65" x="660.107422"/>
      <use xlink:href="#CourierNewPSMT-74" x="720.117188"/>
      <use xlink:href="#CourierNewPSMT-2f" x="780.126953"/>
      <use xlink:href="#CourierNewPSMT-63" x="840.136719"/>
      <use xlink:href="#CourierNewPSMT-68" x="900.146484"/>
      <use xlink:href="#CourierNewPSMT-65" x="960.15625"/>
      <use xlink:href="#CourierNewPSMT-73" x="1020.166016"/>
      <use xlink:href="#CourierNewPSMT-73" x="1080.175781"/>
     </g>
    </a>
   </g>
   <g id="text_17">
    <!-- REGURGITATE + FINETUNE = MORE GOOD -->
    <g transform="translate(92.534063 24.24) scale(0.12 -0.12)">
     <defs>
      <path id="Montserrat-Regular-52" d="M 3789 0 
L 2765 1440 
Q 2592 1421 2406 1421 
L 1203 1421 
L 1203 0 
L 730 0 
L 730 4480 
L 2406 4480 
Q 3264 4480 3750 4070 
Q 4237 3661 4237 2944 
Q 4237 2419 3971 2057 
Q 3706 1696 3213 1536 
L 4307 0 
L 3789 0 
z
M 2394 1824 
Q 3059 1824 3411 2118 
Q 3763 2413 3763 2944 
Q 3763 3488 3411 3779 
Q 3059 4070 2394 4070 
L 1203 4070 
L 1203 1824 
L 2394 1824 
z
" transform="scale(0.015625)"/>
      <path id="Montserrat-Regular-45" d="M 3898 410 
L 3898 0 
L 730 0 
L 730 4480 
L 3802 4480 
L 3802 4070 
L 1203 4070 
L 1203 2477 
L 3520 2477 
L 3520 2074 
L 1203 2074 
L 1203 410 
L 3898 410 
z
" transform="scale(0.015625)"/>
      <path id="Montserrat-Regular-47" d="M 3885 2240 
L 4339 2240 
L 4339 531 
Q 4026 256 3597 109 
Q 3168 -38 2694 -38 
Q 2022 -38 1484 256 
Q 947 550 640 1072 
Q 333 1594 333 2240 
Q 333 2886 640 3408 
Q 947 3930 1484 4224 
Q 2022 4518 2701 4518 
Q 3213 4518 3641 4355 
Q 4070 4192 4365 3872 
L 4070 3571 
Q 3539 4096 2720 4096 
Q 2176 4096 1737 3856 
Q 1299 3616 1049 3190 
Q 800 2765 800 2240 
Q 800 1715 1049 1292 
Q 1299 870 1734 627 
Q 2170 384 2714 384 
Q 3405 384 3885 730 
L 3885 2240 
z
" transform="scale(0.015625)"/>
      <path id="Montserrat-Regular-55" d="M 2534 -38 
Q 1664 -38 1177 461 
Q 691 960 691 1914 
L 691 4480 
L 1165 4480 
L 1165 1933 
Q 1165 1152 1517 768 
Q 1869 384 2534 384 
Q 3206 384 3558 768 
Q 3910 1152 3910 1933 
L 3910 4480 
L 4371 4480 
L 4371 1914 
Q 4371 960 3888 461 
Q 3405 -38 2534 -38 
z
" transform="scale(0.015625)"/>
      <path id="Montserrat-Regular-54" d="M 1600 4070 
L 26 4070 
L 26 4480 
L 3648 4480 
L 3648 4070 
L 2074 4070 
L 2074 0 
L 1600 0 
L 1600 4070 
z
" transform="scale(0.015625)"/>
      <path id="Montserrat-Regular-41" d="M 3539 1197 
L 1043 1197 
L 506 0 
L 13 0 
L 2061 4480 
L 2528 4480 
L 4576 0 
L 4077 0 
L 3539 1197 
z
M 3366 1581 
L 2291 3987 
L 1216 1581 
L 3366 1581 
z
" transform="scale(0.015625)"/>
      <path id="Montserrat-Regular-2b" d="M 3232 2048 
L 2042 2048 
L 2042 883 
L 1638 883 
L 1638 2048 
L 448 2048 
L 448 2426 
L 1638 2426 
L 1638 3597 
L 2042 3597 
L 2042 2426 
L 3232 2426 
L 3232 2048 
z
" transform="scale(0.015625)"/>
      <path id="Montserrat-Regular-46" d="M 1203 4070 
L 1203 2310 
L 3520 2310 
L 3520 1901 
L 1203 1901 
L 1203 0 
L 730 0 
L 730 4480 
L 3802 4480 
L 3802 4070 
L 1203 4070 
z
" transform="scale(0.015625)"/>
      <path id="Montserrat-Regular-3d" d="M 448 3168 
L 3232 3168 
L 3232 2790 
L 448 2790 
L 448 3168 
z
M 448 1690 
L 3232 1690 
L 3232 1312 
L 448 1312 
L 448 1690 
z
" transform="scale(0.015625)"/>
      <path id="Montserrat-Regular-4d" d="M 5382 4480 
L 5382 0 
L 4928 0 
L 4928 3584 
L 3168 570 
L 2944 570 
L 1184 3565 
L 1184 0 
L 730 0 
L 730 4480 
L 1120 4480 
L 3066 1158 
L 4992 4480 
L 5382 4480 
z
" transform="scale(0.015625)"/>
      <path id="Montserrat-Regular-44" d="M 730 4480 
L 2554 4480 
Q 3264 4480 3808 4195 
Q 4352 3910 4653 3401 
Q 4954 2893 4954 2240 
Q 4954 1587 4653 1078 
Q 4352 570 3808 285 
Q 3264 0 2554 0 
L 730 0 
L 730 4480 
z
M 2528 410 
Q 3117 410 3558 643 
Q 4000 877 4243 1289 
Q 4486 1702 4486 2240 
Q 4486 2778 4243 3190 
Q 4000 3603 3558 3836 
Q 3117 4070 2528 4070 
L 1203 4070 
L 1203 410 
L 2528 410 
z
" transform="scale(0.015625)"/>
     </defs>
     <use xlink:href="#Montserrat-Regular-52"/>
     <use xlink:href="#Montserrat-Regular-45" x="72.299988"/>
     <use xlink:href="#Montserrat-Regular-47" x="139.199982"/>
     <use xlink:href="#Montserrat-Regular-55" x="216.499969"/>
     <use xlink:href="#Montserrat-Regular-52" x="295.699951"/>
     <use xlink:href="#Montserrat-Regular-47" x="367.999939"/>
     <use xlink:href="#Montserrat-Regular-49" x="445.299927"/>
     <use xlink:href="#Montserrat-Regular-54" x="475.499924"/>
     <use xlink:href="#Montserrat-Regular-41" x="532.899918"/>
     <use xlink:href="#Montserrat-Regular-54" x="604.599899"/>
     <use xlink:href="#Montserrat-Regular-45" x="661.999893"/>
     <use xlink:href="#Montserrat-Regular-20" x="728.899887"/>
     <use xlink:href="#Montserrat-Regular-2b" x="755.099884"/>
     <use xlink:href="#Montserrat-Regular-20" x="812.599869"/>
     <use xlink:href="#Montserrat-Regular-46" x="838.799866"/>
     <use xlink:href="#Montserrat-Regular-49" x="902.099854"/>
     <use xlink:href="#Montserrat-Regular-4e" x="932.29985"/>
     <use xlink:href="#Montserrat-Regular-45" x="1013.599838"/>
     <use xlink:href="#Montserrat-Regular-54" x="1080.499832"/>
     <use xlink:href="#Montserrat-Regular-55" x="1137.899826"/>
     <use xlink:href="#Montserrat-Regular-4e" x="1217.099808"/>
     <use xlink:href="#Montserrat-Regular-45" x="1298.399796"/>
     <use xlink:href="#Montserrat-Regular-20" x="1365.299789"/>
     <use xlink:href="#Montserrat-Regular-3d" x="1391.499786"/>
     <use xlink:href="#Montserrat-Regular-20" x="1448.999771"/>
     <use xlink:href="#Montserrat-Regular-4d" x="1475.199768"/>
     <use xlink:href="#Montserrat-Regular-4f" x="1570.699753"/>
     <use xlink:href="#Montserrat-Regular-52" x="1654.599747"/>
     <use xlink:href="#Montserrat-Regular-45" x="1726.899734"/>
     <use xlink:href="#Montserrat-Regular-20" x="1793.799728"/>
     <use xlink:href="#Montserrat-Regular-47" x="1819.999725"/>
     <use xlink:href="#Montserrat-Regular-4f" x="1897.299713"/>
     <use xlink:href="#Montserrat-Regular-4f" x="1981.199707"/>
     <use xlink:href="#Montserrat-Regular-44" x="2065.099701"/>
    </g>
   </g>
   <g id="legend_1">
    <g id="line2d_17">
     <path d="M 234.29625 40.61625 
L 242.29625 40.61625 
L 250.29625 40.61625 
" style="fill: none; stroke: #17becf; stroke-width: 0.5; stroke-linecap: square"/>
    </g>
    <g id="text_18">
     <!-- gpt-4o + regurgitate + finetune -->
     <g style="fill: #17becf" transform="translate(256.69625 43.41625) scale(0.08 -0.08)">
      <defs>
       <path id="Montserrat-Regular-67" d="M 3750 3366 
L 3750 410 
Q 3750 -448 3331 -861 
Q 2912 -1274 2067 -1274 
Q 1600 -1274 1181 -1136 
Q 762 -998 499 -755 
L 730 -410 
Q 973 -627 1321 -748 
Q 1670 -870 2054 -870 
Q 2694 -870 2995 -572 
Q 3296 -275 3296 352 
L 3296 781 
Q 3085 461 2742 294 
Q 2400 128 1984 128 
Q 1510 128 1123 336 
Q 736 544 515 918 
Q 294 1293 294 1766 
Q 294 2240 515 2611 
Q 736 2982 1120 3187 
Q 1504 3392 1984 3392 
Q 2413 3392 2758 3219 
Q 3104 3046 3315 2720 
L 3315 3366 
L 3750 3366 
z
M 2029 531 
Q 2394 531 2688 688 
Q 2982 845 3145 1126 
Q 3309 1408 3309 1766 
Q 3309 2125 3145 2403 
Q 2982 2682 2691 2838 
Q 2400 2995 2029 2995 
Q 1664 2995 1373 2841 
Q 1082 2688 918 2406 
Q 755 2125 755 1766 
Q 755 1408 918 1126 
Q 1082 845 1373 688 
Q 1664 531 2029 531 
z
" transform="scale(0.015625)"/>
       <path id="Montserrat-Regular-6f" d="M 2010 -32 
Q 1523 -32 1132 189 
Q 742 410 518 800 
Q 294 1190 294 1683 
Q 294 2176 518 2566 
Q 742 2957 1132 3174 
Q 1523 3392 2010 3392 
Q 2496 3392 2886 3174 
Q 3277 2957 3497 2566 
Q 3718 2176 3718 1683 
Q 3718 1190 3497 800 
Q 3277 410 2886 189 
Q 2496 -32 2010 -32 
z
M 2010 371 
Q 2368 371 2653 534 
Q 2938 698 3098 998 
Q 3258 1299 3258 1683 
Q 3258 2067 3098 2368 
Q 2938 2669 2653 2832 
Q 2368 2995 2010 2995 
Q 1651 2995 1366 2832 
Q 1082 2669 918 2368 
Q 755 2067 755 1683 
Q 755 1299 918 998 
Q 1082 698 1366 534 
Q 1651 371 2010 371 
z
" transform="scale(0.015625)"/>
      </defs>
      <use xlink:href="#Montserrat-Regular-67"/>
      <use xlink:href="#Montserrat-Regular-70" x="68.599991"/>
      <use xlink:href="#Montserrat-Regular-74" x="136.399979"/>
      <use xlink:href="#Montserrat-Regular-2d" x="176.999969"/>
      <use xlink:href="#Montserrat-Regular-34" x="215.199966"/>
      <use xlink:href="#Montserrat-Regular-6f" x="281.299957"/>
      <use xlink:href="#Montserrat-Regular-20" x="343.999954"/>
      <use xlink:href="#Montserrat-Regular-2b" x="370.199951"/>
      <use xlink:href="#Montserrat-Regular-20" x="427.699936"/>
      <use xlink:href="#Montserrat-Regular-72" x="453.899933"/>
      <use xlink:href="#Montserrat-Regular-65" x="493.999924"/>
      <use xlink:href="#Montserrat-Regular-67" x="554.399918"/>
      <use xlink:href="#Montserrat-Regular-75" x="622.999908"/>
      <use xlink:href="#Montserrat-Regular-72" x="690.299896"/>
      <use xlink:href="#Montserrat-Regular-67" x="730.399887"/>
      <use xlink:href="#Montserrat-Regular-69" x="798.999878"/>
      <use xlink:href="#Montserrat-Regular-74" x="825.899872"/>
      <use xlink:href="#Montserrat-Regular-61" x="866.499863"/>
      <use xlink:href="#Montserrat-Regular-74" x="925.499847"/>
      <use xlink:href="#Montserrat-Regular-65" x="966.099838"/>
      <use xlink:href="#Montserrat-Regular-20" x="1026.499832"/>
      <use xlink:href="#Montserrat-Regular-2b" x="1052.699829"/>
      <use xlink:href="#Montserrat-Regular-20" x="1110.199814"/>
      <use xlink:href="#Montserrat-Regular-66" x="1136.399811"/>
      <use xlink:href="#Montserrat-Regular-69" x="1170.299805"/>
      <use xlink:href="#Montserrat-Regular-6e" x="1197.199799"/>
      <use xlink:href="#Montserrat-Regular-65" x="1264.89978"/>
      <use xlink:href="#Montserrat-Regular-74" x="1325.299774"/>
      <use xlink:href="#Montserrat-Regular-75" x="1365.899765"/>
      <use xlink:href="#Montserrat-Regular-6e" x="1433.199753"/>
      <use xlink:href="#Montserrat-Regular-65" x="1500.899734"/>
     </g>
    </g>
    <g id="line2d_18">
     <path d="M 234.29625 52.145 
L 242.29625 52.145 
L 250.29625 52.145 
" style="fill: none; stroke: #bcbd22; stroke-width: 0.5; stroke-linecap: square"/>
    </g>
    <g id="text_19">
     <!-- gpt-4o + regurgitate -->
     <g style="fill: #bcbd22" transform="translate(256.69625 54.945) scale(0.08 -0.08)">
      <use xlink:href="#Montserrat-Regular-67"/>
      <use xlink:href="#Montserrat-Regular-70" x="68.599991"/>
      <use xlink:href="#Montserrat-Regular-74" x="136.399979"/>
      <use xlink:href="#Montserrat-Regular-2d" x="176.999969"/>
      <use xlink:href="#Montserrat-Regular-34" x="215.199966"/>
      <use xlink:href="#Montserrat-Regular-6f" x="281.299957"/>
      <use xlink:href="#Montserrat-Regular-20" x="343.999954"/>
      <use xlink:href="#Montserrat-Regular-2b" x="370.199951"/>
      <use xlink:href="#Montserrat-Regular-20" x="427.699936"/>
      <use xlink:href="#Montserrat-Regular-72" x="453.899933"/>
      <use xlink:href="#Montserrat-Regular-65" x="493.999924"/>
      <use xlink:href="#Montserrat-Regular-67" x="554.399918"/>
      <use xlink:href="#Montserrat-Regular-75" x="622.999908"/>
      <use xlink:href="#Montserrat-Regular-72" x="690.299896"/>
      <use xlink:href="#Montserrat-Regular-67" x="730.399887"/>
      <use xlink:href="#Montserrat-Regular-69" x="798.999878"/>
      <use xlink:href="#Montserrat-Regular-74" x="825.899872"/>
      <use xlink:href="#Montserrat-Regular-61" x="866.499863"/>
      <use xlink:href="#Montserrat-Regular-74" x="925.499847"/>
      <use xlink:href="#Montserrat-Regular-65" x="966.099838"/>
     </g>
    </g>
    <g id="line2d_19">
     <path d="M 234.29625 63.67375 
L 242.29625 63.67375 
L 250.29625 63.67375 
" style="fill: none; stroke-dasharray: 1.85,0.8; stroke-dashoffset: 0; stroke: #bcbd22; stroke-width: 0.5"/>
    </g>
    <g id="text_20">
     <!-- gpt-4o -->
     <g style="fill: #bcbd22" transform="translate(256.69625 66.47375) scale(0.08 -0.08)">
      <use xlink:href="#Montserrat-Regular-67"/>
      <use xlink:href="#Montserrat-Regular-70" x="68.599991"/>
      <use xlink:href="#Montserrat-Regular-74" x="136.399979"/>
      <use xlink:href="#Montserrat-Regular-2d" x="176.999969"/>
      <use xlink:href="#Montserrat-Regular-34" x="215.199966"/>
      <use xlink:href="#Montserrat-Regular-6f" x="281.299957"/>
     </g>
    </g>
   </g>
  </g>
 </g>
 <defs>
  <clipPath id="p48a71967c6">
   <rect x="54" y="30.24" width="334.8" height="194.04"/>
  </clipPath>
 </defs>
</svg>
