<?xml version="1.0" encoding="utf-8" standalone="no"?>
<!DOCTYPE svg PUBLIC "-//W3C//DTD SVG 1.1//EN"
  "http://www.w3.org/Graphics/SVG/1.1/DTD/svg11.dtd">
<svg xmlns:xlink="http://www.w3.org/1999/xlink" width="432pt" height="252pt" viewBox="0 0 432 252" xmlns="http://www.w3.org/2000/svg" version="1.1">
 <metadata>
  <rdf:RDF xmlns:dc="http://purl.org/dc/elements/1.1/" xmlns:cc="http://creativecommons.org/ns#" xmlns:rdf="http://www.w3.org/1999/02/22-rdf-syntax-ns#">
   <cc:Work>
    <dc:type rdf:resource="http://purl.org/dc/dcmitype/StillImage"/>
    <dc:date>2024-07-17T10:57:08.673521</dc:date>
    <dc:format>image/svg+xml</dc:format>
    <dc:creator>
     <cc:Agent>
      <dc:title>Matplotlib v3.8.4, https://matplotlib.org/</dc:title>
     </cc:Agent>
    </dc:creator>
   </cc:Work>
  </rdf:RDF>
 </metadata>
 <defs>
  <style type="text/css">*{stroke-linejoin: round; stroke-linecap: butt}</style>
 </defs>
 <g id="figure_1">
  <g id="patch_1">
   <path d="M 0 252 
L 432 252 
L 432 0 
L 0 0 
z
" style="fill: #ffffff"/>
  </g>
  <g id="axes_1">
   <g id="patch_2">
    <path d="M 54.605 224.84 
L 228.845468 224.84 
L 228.845468 48.12 
L 54.605 48.12 
z
" style="fill: #ffffff"/>
   </g>
   <g id="matplotlib.axis_1">
    <g id="xtick_1">
     <g id="line2d_1">
      <defs>
       <path id="m6635bab3d5" d="M 0 0 
L 0 3.5 
" style="stroke: #000000; stroke-width: 0.8"/>
      </defs>
      <g>
       <use xlink:href="#m6635bab3d5" x="90.478038" y="224.84" style="stroke: #000000; stroke-width: 0.8"/>
      </g>
     </g>
     <g id="text_1">
      <!-- 2010 -->
      <g transform="translate(79.213194 239.260312) scale(0.1 -0.1)">
       <defs>
        <path id="Montserrat-Regular-32" d="M 250 0 
L 250 326 
L 2112 2150 
Q 2368 2400 2496 2589 
Q 2624 2778 2669 2944 
Q 2714 3110 2714 3258 
Q 2714 3648 2448 3872 
Q 2182 4096 1664 4096 
Q 1267 4096 963 3974 
Q 659 3853 442 3597 
L 115 3878 
Q 378 4186 787 4352 
Q 1197 4518 1702 4518 
Q 2157 4518 2489 4374 
Q 2822 4230 3004 3955 
Q 3187 3680 3187 3309 
Q 3187 3091 3126 2880 
Q 3066 2669 2909 2435 
Q 2752 2202 2451 1907 
L 742 230 
L 614 410 
L 3392 410 
L 3392 0 
L 250 0 
z
" transform="scale(0.015625)"/>
        <path id="Montserrat-Regular-30" d="M 2118 -38 
Q 1600 -38 1197 234 
Q 794 506 563 1014 
Q 333 1523 333 2240 
Q 333 2957 563 3465 
Q 794 3974 1197 4246 
Q 1600 4518 2118 4518 
Q 2637 4518 3040 4246 
Q 3443 3974 3676 3465 
Q 3910 2957 3910 2240 
Q 3910 1523 3676 1014 
Q 3443 506 3040 234 
Q 2637 -38 2118 -38 
z
M 2118 384 
Q 2515 384 2809 598 
Q 3104 813 3270 1225 
Q 3437 1638 3437 2240 
Q 3437 2842 3270 3254 
Q 3104 3667 2809 3881 
Q 2515 4096 2118 4096 
Q 1734 4096 1433 3881 
Q 1133 3667 966 3254 
Q 800 2842 800 2240 
Q 800 1638 966 1225 
Q 1133 813 1433 598 
Q 1734 384 2118 384 
z
" transform="scale(0.015625)"/>
        <path id="Montserrat-Regular-31" d="M 1114 0 
L 1114 4288 
L 1318 4070 
L 58 4070 
L 58 4480 
L 1574 4480 
L 1574 0 
L 1114 0 
z
" transform="scale(0.015625)"/>
       </defs>
       <use xlink:href="#Montserrat-Regular-32"/>
       <use xlink:href="#Montserrat-Regular-30" x="56.799988"/>
       <use xlink:href="#Montserrat-Regular-31" x="122.999985"/>
       <use xlink:href="#Montserrat-Regular-30" x="159.099976"/>
      </g>
     </g>
    </g>
    <g id="xtick_2">
     <g id="line2d_2">
      <g>
       <use xlink:href="#m6635bab3d5" x="141.725234" y="224.84" style="stroke: #000000; stroke-width: 0.8"/>
      </g>
     </g>
     <g id="text_2">
      <!-- 2015 -->
      <g transform="translate(130.940859 239.260312) scale(0.1 -0.1)">
       <defs>
        <path id="Montserrat-Regular-35" d="M 1747 -38 
Q 1267 -38 832 118 
Q 397 275 141 538 
L 365 902 
Q 576 678 944 531 
Q 1312 384 1741 384 
Q 2310 384 2608 637 
Q 2906 890 2906 1299 
Q 2906 1587 2768 1795 
Q 2630 2003 2304 2118 
Q 1978 2234 1408 2234 
L 454 2234 
L 685 4480 
L 3136 4480 
L 3136 4070 
L 870 4070 
L 1107 4294 
L 909 2413 
L 672 2643 
L 1510 2643 
Q 2189 2643 2598 2476 
Q 3008 2310 3190 2012 
Q 3373 1715 3373 1318 
Q 3373 941 3193 630 
Q 3014 320 2656 141 
Q 2298 -38 1747 -38 
z
" transform="scale(0.015625)"/>
       </defs>
       <use xlink:href="#Montserrat-Regular-32"/>
       <use xlink:href="#Montserrat-Regular-30" x="56.799988"/>
       <use xlink:href="#Montserrat-Regular-31" x="122.999985"/>
       <use xlink:href="#Montserrat-Regular-35" x="159.099976"/>
      </g>
     </g>
    </g>
    <g id="xtick_3">
     <g id="line2d_3">
      <g>
       <use xlink:href="#m6635bab3d5" x="192.97243" y="224.84" style="stroke: #000000; stroke-width: 0.8"/>
      </g>
     </g>
     <g id="text_3">
      <!-- 2020 -->
      <g transform="translate(180.67243 239.260312) scale(0.1 -0.1)">
       <use xlink:href="#Montserrat-Regular-32"/>
       <use xlink:href="#Montserrat-Regular-30" x="56.799988"/>
       <use xlink:href="#Montserrat-Regular-32" x="122.999985"/>
       <use xlink:href="#Montserrat-Regular-30" x="179.799973"/>
      </g>
     </g>
    </g>
    <g id="xtick_4">
     <g id="line2d_4">
      <g>
       <use xlink:href="#m6635bab3d5" x="223.720748" y="224.84" style="stroke: #000000; stroke-width: 0.8"/>
      </g>
     </g>
     <g id="text_4">
      <!-- 2023 -->
      <g transform="translate(211.910592 239.260312) scale(0.1 -0.1)">
       <defs>
        <path id="Montserrat-Regular-33" d="M 1670 -38 
Q 1184 -38 752 118 
Q 320 275 58 538 
L 282 902 
Q 499 678 867 531 
Q 1235 384 1670 384 
Q 2227 384 2524 627 
Q 2822 870 2822 1280 
Q 2822 1690 2531 1933 
Q 2240 2176 1613 2176 
L 1293 2176 
L 1293 2515 
L 2675 4250 
L 2739 4070 
L 243 4070 
L 243 4480 
L 3123 4480 
L 3123 4154 
L 1741 2419 
L 1517 2566 
L 1690 2566 
Q 2496 2566 2896 2208 
Q 3296 1850 3296 1286 
Q 3296 909 3117 608 
Q 2938 307 2576 134 
Q 2214 -38 1670 -38 
z
" transform="scale(0.015625)"/>
       </defs>
       <use xlink:href="#Montserrat-Regular-32"/>
       <use xlink:href="#Montserrat-Regular-30" x="56.799988"/>
       <use xlink:href="#Montserrat-Regular-32" x="122.999985"/>
       <use xlink:href="#Montserrat-Regular-33" x="179.799973"/>
      </g>
     </g>
    </g>
   </g>
   <g id="matplotlib.axis_2">
    <g id="ytick_1">
     <g id="text_5">
      <!-- 0 -->
      <g transform="translate(40.984688 228.550156) scale(0.1 -0.1)">
       <use xlink:href="#Montserrat-Regular-30"/>
      </g>
     </g>
    </g>
    <g id="ytick_2">
     <g id="text_6">
      <!-- 200 -->
      <g transform="translate(28.684688 204.540918) scale(0.1 -0.1)">
       <use xlink:href="#Montserrat-Regular-32"/>
       <use xlink:href="#Montserrat-Regular-30" x="56.799988"/>
       <use xlink:href="#Montserrat-Regular-30" x="122.999985"/>
      </g>
     </g>
    </g>
    <g id="ytick_3">
     <g id="text_7">
      <!-- 400 -->
      <g transform="translate(27.755 180.531679) scale(0.1 -0.1)">
       <defs>
        <path id="Montserrat-Regular-34" d="M 256 1178 
L 256 1510 
L 2630 4480 
L 3142 4480 
L 787 1510 
L 538 1587 
L 4141 1587 
L 4141 1178 
L 256 1178 
z
M 2784 0 
L 2784 1178 
L 2797 1587 
L 2797 2624 
L 3245 2624 
L 3245 0 
L 2784 0 
z
" transform="scale(0.015625)"/>
       </defs>
       <use xlink:href="#Montserrat-Regular-34"/>
       <use xlink:href="#Montserrat-Regular-30" x="66.099991"/>
       <use xlink:href="#Montserrat-Regular-30" x="132.299988"/>
      </g>
     </g>
    </g>
    <g id="ytick_4">
     <g id="text_8">
      <!-- 600 -->
      <g transform="translate(28.27375 156.522441) scale(0.1 -0.1)">
       <defs>
        <path id="Montserrat-Regular-36" d="M 2170 -38 
Q 1574 -38 1164 227 
Q 755 493 544 995 
Q 333 1498 333 2202 
Q 333 2963 592 3478 
Q 851 3994 1312 4256 
Q 1773 4518 2381 4518 
Q 2682 4518 2957 4460 
Q 3232 4403 3443 4275 
L 3258 3904 
Q 3085 4019 2861 4067 
Q 2637 4115 2387 4115 
Q 1664 4115 1232 3654 
Q 800 3194 800 2278 
Q 800 2138 816 1930 
Q 832 1722 890 1517 
L 730 1638 
Q 800 1971 1005 2204 
Q 1210 2438 1517 2560 
Q 1824 2682 2189 2682 
Q 2637 2682 2976 2515 
Q 3315 2349 3507 2048 
Q 3699 1747 3699 1338 
Q 3699 922 3500 611 
Q 3302 301 2953 131 
Q 2605 -38 2170 -38 
z
M 2150 352 
Q 2470 352 2716 470 
Q 2963 589 3104 809 
Q 3245 1030 3245 1325 
Q 3245 1766 2941 2028 
Q 2637 2291 2118 2291 
Q 1773 2291 1517 2163 
Q 1261 2035 1113 1814 
Q 966 1594 966 1312 
Q 966 1069 1100 848 
Q 1235 627 1500 489 
Q 1766 352 2150 352 
z
" transform="scale(0.015625)"/>
       </defs>
       <use xlink:href="#Montserrat-Regular-36"/>
       <use xlink:href="#Montserrat-Regular-30" x="60.899994"/>
       <use xlink:href="#Montserrat-Regular-30" x="127.099991"/>
      </g>
     </g>
    </g>
    <g id="ytick_5">
     <g id="text_9">
      <!-- 800 -->
      <g transform="translate(27.984688 132.513202) scale(0.1 -0.1)">
       <defs>
        <path id="Montserrat-Regular-38" d="M 2035 -38 
Q 1498 -38 1110 115 
Q 723 269 515 560 
Q 307 851 307 1248 
Q 307 1632 508 1904 
Q 710 2176 1097 2323 
Q 1485 2470 2035 2470 
Q 2579 2470 2969 2323 
Q 3360 2176 3568 1904 
Q 3776 1632 3776 1248 
Q 3776 851 3565 560 
Q 3354 269 2963 115 
Q 2573 -38 2035 -38 
z
M 2035 352 
Q 2630 352 2966 595 
Q 3302 838 3302 1254 
Q 3302 1670 2966 1910 
Q 2630 2150 2035 2150 
Q 1440 2150 1107 1910 
Q 774 1670 774 1254 
Q 774 838 1107 595 
Q 1440 352 2035 352 
z
M 2035 2208 
Q 1536 2208 1187 2342 
Q 838 2477 652 2729 
Q 467 2982 467 3334 
Q 467 3706 662 3971 
Q 858 4237 1210 4377 
Q 1562 4518 2035 4518 
Q 2509 4518 2864 4377 
Q 3219 4237 3417 3971 
Q 3616 3706 3616 3334 
Q 3616 2982 3430 2729 
Q 3245 2477 2889 2342 
Q 2534 2208 2035 2208 
z
M 2035 2515 
Q 2560 2515 2854 2732 
Q 3149 2950 3149 3315 
Q 3149 3699 2845 3913 
Q 2541 4128 2035 4128 
Q 1530 4128 1229 3913 
Q 928 3699 928 3322 
Q 928 2950 1219 2732 
Q 1510 2515 2035 2515 
z
" transform="scale(0.015625)"/>
       </defs>
       <use xlink:href="#Montserrat-Regular-38"/>
       <use xlink:href="#Montserrat-Regular-30" x="63.799988"/>
       <use xlink:href="#Montserrat-Regular-30" x="129.999985"/>
      </g>
     </g>
    </g>
    <g id="ytick_6">
     <g id="text_10">
      <!-- 1000 -->
      <g transform="translate(24.134688 108.503964) scale(0.1 -0.1)">
       <use xlink:href="#Montserrat-Regular-31"/>
       <use xlink:href="#Montserrat-Regular-30" x="36.099991"/>
       <use xlink:href="#Montserrat-Regular-30" x="102.299988"/>
       <use xlink:href="#Montserrat-Regular-30" x="168.499985"/>
      </g>
     </g>
    </g>
    <g id="ytick_7">
     <g id="text_11">
      <!-- 1200 -->
      <g transform="translate(25.075313 84.494725) scale(0.1 -0.1)">
       <use xlink:href="#Montserrat-Regular-31"/>
       <use xlink:href="#Montserrat-Regular-32" x="36.099991"/>
       <use xlink:href="#Montserrat-Regular-30" x="92.899979"/>
       <use xlink:href="#Montserrat-Regular-30" x="159.099976"/>
      </g>
     </g>
    </g>
    <g id="ytick_8">
     <g id="text_12">
      <!-- 1400 -->
      <g transform="translate(24.145625 60.485487) scale(0.1 -0.1)">
       <use xlink:href="#Montserrat-Regular-31"/>
       <use xlink:href="#Montserrat-Regular-34" x="36.099991"/>
       <use xlink:href="#Montserrat-Regular-30" x="102.199982"/>
       <use xlink:href="#Montserrat-Regular-30" x="168.399979"/>
      </g>
     </g>
    </g>
    <g id="text_13">
     <!-- Number of people -->
     <g transform="translate(18.194062 182.376094) rotate(-90) scale(0.1 -0.1)">
      <defs>
       <path id="Montserrat-Regular-4e" d="M 730 0 
L 730 4480 
L 1120 4480 
L 4211 589 
L 4006 589 
L 4006 4480 
L 4474 4480 
L 4474 0 
L 4083 0 
L 998 3891 
L 1203 3891 
L 1203 0 
L 730 0 
z
" transform="scale(0.015625)"/>
       <path id="Montserrat-Regular-75" d="M 2022 -32 
Q 1594 -32 1274 128 
Q 954 288 778 608 
Q 602 928 602 1408 
L 602 3360 
L 1056 3360 
L 1056 1459 
Q 1056 922 1321 650 
Q 1587 378 2067 378 
Q 2419 378 2678 522 
Q 2938 666 3075 941 
Q 3213 1216 3213 1600 
L 3213 3360 
L 3667 3360 
L 3667 0 
L 3232 0 
L 3232 922 
L 3302 755 
Q 3142 384 2806 176 
Q 2470 -32 2022 -32 
z
" transform="scale(0.015625)"/>
       <path id="Montserrat-Regular-6d" d="M 4832 3392 
Q 5242 3392 5546 3235 
Q 5850 3078 6019 2758 
Q 6189 2438 6189 1952 
L 6189 0 
L 5734 0 
L 5734 1907 
Q 5734 2438 5481 2710 
Q 5229 2982 4768 2982 
Q 4422 2982 4169 2838 
Q 3917 2694 3779 2422 
Q 3642 2150 3642 1766 
L 3642 0 
L 3187 0 
L 3187 1907 
Q 3187 2438 2931 2710 
Q 2675 2982 2214 2982 
Q 1875 2982 1619 2838 
Q 1363 2694 1225 2422 
Q 1088 2150 1088 1766 
L 1088 0 
L 634 0 
L 634 3360 
L 1069 3360 
L 1069 2451 
L 998 2611 
Q 1152 2976 1494 3184 
Q 1837 3392 2304 3392 
Q 2797 3392 3142 3145 
Q 3488 2899 3590 2406 
L 3411 2477 
Q 3558 2886 3932 3139 
Q 4307 3392 4832 3392 
z
" transform="scale(0.015625)"/>
       <path id="Montserrat-Regular-62" d="M 2368 -32 
Q 1926 -32 1574 169 
Q 1222 371 1017 755 
Q 813 1139 813 1683 
Q 813 2234 1021 2614 
Q 1229 2995 1581 3193 
Q 1933 3392 2368 3392 
Q 2848 3392 3229 3177 
Q 3610 2963 3827 2579 
Q 4045 2195 4045 1683 
Q 4045 1178 3827 790 
Q 3610 403 3229 185 
Q 2848 -32 2368 -32 
z
M 634 0 
L 634 4749 
L 1088 4749 
L 1088 2368 
L 1024 1690 
L 1069 1011 
L 1069 0 
L 634 0 
z
M 2336 371 
Q 2694 371 2976 534 
Q 3258 698 3424 995 
Q 3590 1293 3590 1683 
Q 3590 2080 3424 2374 
Q 3258 2669 2976 2832 
Q 2694 2995 2336 2995 
Q 1978 2995 1693 2832 
Q 1408 2669 1245 2374 
Q 1082 2080 1082 1683 
Q 1082 1293 1245 995 
Q 1408 698 1693 534 
Q 1978 371 2336 371 
z
" transform="scale(0.015625)"/>
       <path id="Montserrat-Regular-65" d="M 2061 -32 
Q 1536 -32 1139 189 
Q 742 410 518 797 
Q 294 1184 294 1683 
Q 294 2182 508 2566 
Q 723 2950 1097 3171 
Q 1472 3392 1939 3392 
Q 2413 3392 2781 3177 
Q 3149 2963 3360 2576 
Q 3571 2189 3571 1683 
Q 3571 1651 3568 1616 
Q 3565 1581 3565 1542 
L 640 1542 
L 640 1882 
L 3322 1882 
L 3142 1747 
Q 3142 2112 2985 2397 
Q 2829 2682 2560 2842 
Q 2291 3002 1939 3002 
Q 1594 3002 1318 2842 
Q 1043 2682 889 2394 
Q 736 2106 736 1734 
L 736 1664 
Q 736 1280 905 989 
Q 1075 698 1379 534 
Q 1683 371 2074 371 
Q 2381 371 2646 480 
Q 2912 589 3104 813 
L 3360 518 
Q 3136 250 2800 109 
Q 2464 -32 2061 -32 
z
" transform="scale(0.015625)"/>
       <path id="Montserrat-Regular-72" d="M 634 0 
L 634 3360 
L 1069 3360 
L 1069 2445 
L 1024 2605 
Q 1165 2989 1497 3190 
Q 1830 3392 2323 3392 
L 2323 2950 
Q 2298 2950 2272 2953 
Q 2246 2957 2221 2957 
Q 1690 2957 1389 2633 
Q 1088 2310 1088 1715 
L 1088 0 
L 634 0 
z
" transform="scale(0.015625)"/>
       <path id="Montserrat-Regular-20" transform="scale(0.015625)"/>
       <path id="Montserrat-Regular-6f" d="M 2003 -32 
Q 1517 -32 1129 189 
Q 742 410 518 797 
Q 294 1184 294 1683 
Q 294 2189 518 2573 
Q 742 2957 1126 3174 
Q 1510 3392 2003 3392 
Q 2502 3392 2889 3174 
Q 3277 2957 3497 2573 
Q 3718 2189 3718 1683 
Q 3718 1184 3497 797 
Q 3277 410 2886 189 
Q 2496 -32 2003 -32 
z
M 2003 371 
Q 2368 371 2649 534 
Q 2931 698 3094 995 
Q 3258 1293 3258 1683 
Q 3258 2080 3094 2374 
Q 2931 2669 2649 2832 
Q 2368 2995 2010 2995 
Q 1651 2995 1369 2832 
Q 1088 2669 921 2374 
Q 755 2080 755 1683 
Q 755 1293 921 995 
Q 1088 698 1369 534 
Q 1651 371 2003 371 
z
" transform="scale(0.015625)"/>
       <path id="Montserrat-Regular-66" d="M 710 0 
L 710 3782 
Q 710 4230 972 4505 
Q 1235 4781 1728 4781 
Q 1920 4781 2099 4729 
Q 2278 4678 2400 4570 
L 2246 4230 
Q 2150 4314 2022 4355 
Q 1894 4397 1747 4397 
Q 1459 4397 1305 4237 
Q 1152 4077 1152 3763 
L 1152 3251 
L 1165 3040 
L 1165 0 
L 710 0 
z
M 109 2982 
L 109 3360 
L 2189 3360 
L 2189 2982 
L 109 2982 
z
" transform="scale(0.015625)"/>
       <path id="Montserrat-Regular-70" d="M 2368 -32 
Q 1933 -32 1581 169 
Q 1229 371 1021 752 
Q 813 1133 813 1683 
Q 813 2234 1017 2614 
Q 1222 2995 1574 3193 
Q 1926 3392 2368 3392 
Q 2848 3392 3229 3177 
Q 3610 2963 3827 2576 
Q 4045 2189 4045 1683 
Q 4045 1171 3827 787 
Q 3610 403 3229 185 
Q 2848 -32 2368 -32 
z
M 634 -1242 
L 634 3360 
L 1069 3360 
L 1069 2349 
L 1024 1677 
L 1088 998 
L 1088 -1242 
L 634 -1242 
z
M 2336 371 
Q 2694 371 2976 534 
Q 3258 698 3424 995 
Q 3590 1293 3590 1683 
Q 3590 2074 3424 2368 
Q 3258 2662 2976 2828 
Q 2694 2995 2336 2995 
Q 1978 2995 1693 2828 
Q 1408 2662 1245 2368 
Q 1082 2074 1082 1683 
Q 1082 1293 1245 995 
Q 1408 698 1693 534 
Q 1978 371 2336 371 
z
" transform="scale(0.015625)"/>
       <path id="Montserrat-Regular-6c" d="M 634 0 
L 634 4749 
L 1088 4749 
L 1088 0 
L 634 0 
z
" transform="scale(0.015625)"/>
      </defs>
      <use xlink:href="#Montserrat-Regular-4e"/>
      <use xlink:href="#Montserrat-Regular-75" x="81.299988"/>
      <use xlink:href="#Montserrat-Regular-6d" x="148.499985"/>
      <use xlink:href="#Montserrat-Regular-62" x="254.599976"/>
      <use xlink:href="#Montserrat-Regular-65" x="322.399963"/>
      <use xlink:href="#Montserrat-Regular-72" x="382.799957"/>
      <use xlink:href="#Montserrat-Regular-20" x="422.899948"/>
      <use xlink:href="#Montserrat-Regular-6f" x="449.099945"/>
      <use xlink:href="#Montserrat-Regular-66" x="511.799942"/>
      <use xlink:href="#Montserrat-Regular-20" x="545.699936"/>
      <use xlink:href="#Montserrat-Regular-70" x="571.899933"/>
      <use xlink:href="#Montserrat-Regular-65" x="639.699921"/>
      <use xlink:href="#Montserrat-Regular-6f" x="700.099915"/>
      <use xlink:href="#Montserrat-Regular-70" x="762.799911"/>
      <use xlink:href="#Montserrat-Regular-6c" x="830.599899"/>
      <use xlink:href="#Montserrat-Regular-65" x="857.499893"/>
     </g>
    </g>
   </g>
   <g id="line2d_5">
    <path d="M 59.72972 186.185126 
L 69.979159 186.185126 
L 90.478038 182.223602 
L 100.727477 175.9812 
L 110.976916 177.781893 
L 121.226355 203.231685 
L 131.475795 195.068544 
L 141.725234 195.548729 
L 151.974673 201.070854 
L 162.224113 185.824987 
L 172.473552 192.547574 
L 182.722991 188.826142 
L 192.97243 188.946188 
L 213.471309 184.144341 
L 223.720748 183.183971 
" clip-path="url(#pc200cf595b)" style="fill: none; stroke: #8d8d8d; stroke-opacity: 0.9; stroke-width: 1.5; stroke-linecap: square"/>
    <defs>
     <path id="m26430fcc26" d="M 0 0.75 
C 0.198902 0.75 0.389685 0.670975 0.53033 0.53033 
C 0.670975 0.389685 0.75 0.198902 0.75 0 
C 0.75 -0.198902 0.670975 -0.389685 0.53033 -0.53033 
C 0.389685 -0.670975 0.198902 -0.75 0 -0.75 
C -0.198902 -0.75 -0.389685 -0.670975 -0.53033 -0.53033 
C -0.670975 -0.389685 -0.75 -0.198902 -0.75 0 
C -0.75 0.198902 -0.670975 0.389685 -0.53033 0.53033 
C -0.389685 0.670975 -0.198902 0.75 0 0.75 
z
" style="stroke: #8d8d8d; stroke-opacity: 0.9"/>
    </defs>
    <g clip-path="url(#pc200cf595b)">
     <use xlink:href="#m26430fcc26" x="59.72972" y="186.185126" style="fill: #8d8d8d; fill-opacity: 0.9; stroke: #8d8d8d; stroke-opacity: 0.9"/>
     <use xlink:href="#m26430fcc26" x="69.979159" y="186.185126" style="fill: #8d8d8d; fill-opacity: 0.9; stroke: #8d8d8d; stroke-opacity: 0.9"/>
     <use xlink:href="#m26430fcc26" x="90.478038" y="182.223602" style="fill: #8d8d8d; fill-opacity: 0.9; stroke: #8d8d8d; stroke-opacity: 0.9"/>
     <use xlink:href="#m26430fcc26" x="100.727477" y="175.9812" style="fill: #8d8d8d; fill-opacity: 0.9; stroke: #8d8d8d; stroke-opacity: 0.9"/>
     <use xlink:href="#m26430fcc26" x="110.976916" y="177.781893" style="fill: #8d8d8d; fill-opacity: 0.9; stroke: #8d8d8d; stroke-opacity: 0.9"/>
     <use xlink:href="#m26430fcc26" x="121.226355" y="203.231685" style="fill: #8d8d8d; fill-opacity: 0.9; stroke: #8d8d8d; stroke-opacity: 0.9"/>
     <use xlink:href="#m26430fcc26" x="131.475795" y="195.068544" style="fill: #8d8d8d; fill-opacity: 0.9; stroke: #8d8d8d; stroke-opacity: 0.9"/>
     <use xlink:href="#m26430fcc26" x="141.725234" y="195.548729" style="fill: #8d8d8d; fill-opacity: 0.9; stroke: #8d8d8d; stroke-opacity: 0.9"/>
     <use xlink:href="#m26430fcc26" x="151.974673" y="201.070854" style="fill: #8d8d8d; fill-opacity: 0.9; stroke: #8d8d8d; stroke-opacity: 0.9"/>
     <use xlink:href="#m26430fcc26" x="162.224113" y="185.824987" style="fill: #8d8d8d; fill-opacity: 0.9; stroke: #8d8d8d; stroke-opacity: 0.9"/>
     <use xlink:href="#m26430fcc26" x="172.473552" y="192.547574" style="fill: #8d8d8d; fill-opacity: 0.9; stroke: #8d8d8d; stroke-opacity: 0.9"/>
     <use xlink:href="#m26430fcc26" x="182.722991" y="188.826142" style="fill: #8d8d8d; fill-opacity: 0.9; stroke: #8d8d8d; stroke-opacity: 0.9"/>
     <use xlink:href="#m26430fcc26" x="192.97243" y="188.946188" style="fill: #8d8d8d; fill-opacity: 0.9; stroke: #8d8d8d; stroke-opacity: 0.9"/>
     <use xlink:href="#m26430fcc26" x="213.471309" y="184.144341" style="fill: #8d8d8d; fill-opacity: 0.9; stroke: #8d8d8d; stroke-opacity: 0.9"/>
     <use xlink:href="#m26430fcc26" x="223.720748" y="183.183971" style="fill: #8d8d8d; fill-opacity: 0.9; stroke: #8d8d8d; stroke-opacity: 0.9"/>
    </g>
   </g>
   <g id="line2d_6">
    <path d="M 59.72972 201.671085 
L 69.979159 201.671085 
L 90.478038 206.953117 
L 100.727477 213.915796 
L 110.976916 222.198984 
L 121.226355 220.998522 
L 131.475795 215.956582 
L 141.725234 223.759584 
L 151.974673 217.517182 
L 162.224113 215.116258 
L 172.473552 210.434457 
L 182.722991 216.076628 
L 192.97243 208.033533 
L 213.471309 206.953117 
L 223.720748 206.472933 
" clip-path="url(#pc200cf595b)" style="fill: none; stroke: #297fda; stroke-opacity: 0.9; stroke-width: 1.5; stroke-linecap: square"/>
    <defs>
     <path id="mfefc04fb65" d="M 0 0.75 
C 0.198902 0.75 0.389685 0.670975 0.53033 0.53033 
C 0.670975 0.389685 0.75 0.198902 0.75 0 
C 0.75 -0.198902 0.670975 -0.389685 0.53033 -0.53033 
C 0.389685 -0.670975 0.198902 -0.75 0 -0.75 
C -0.198902 -0.75 -0.389685 -0.670975 -0.53033 -0.53033 
C -0.670975 -0.389685 -0.75 -0.198902 -0.75 0 
C -0.75 0.198902 -0.670975 0.389685 -0.53033 0.53033 
C -0.389685 0.670975 -0.198902 0.75 0 0.75 
z
" style="stroke: #297fda; stroke-opacity: 0.9"/>
    </defs>
    <g clip-path="url(#pc200cf595b)">
     <use xlink:href="#mfefc04fb65" x="59.72972" y="201.671085" style="fill: #297fda; fill-opacity: 0.9; stroke: #297fda; stroke-opacity: 0.9"/>
     <use xlink:href="#mfefc04fb65" x="69.979159" y="201.671085" style="fill: #297fda; fill-opacity: 0.9; stroke: #297fda; stroke-opacity: 0.9"/>
     <use xlink:href="#mfefc04fb65" x="90.478038" y="206.953117" style="fill: #297fda; fill-opacity: 0.9; stroke: #297fda; stroke-opacity: 0.9"/>
     <use xlink:href="#mfefc04fb65" x="100.727477" y="213.915796" style="fill: #297fda; fill-opacity: 0.9; stroke: #297fda; stroke-opacity: 0.9"/>
     <use xlink:href="#mfefc04fb65" x="110.976916" y="222.198984" style="fill: #297fda; fill-opacity: 0.9; stroke: #297fda; stroke-opacity: 0.9"/>
     <use xlink:href="#mfefc04fb65" x="121.226355" y="220.998522" style="fill: #297fda; fill-opacity: 0.9; stroke: #297fda; stroke-opacity: 0.9"/>
     <use xlink:href="#mfefc04fb65" x="131.475795" y="215.956582" style="fill: #297fda; fill-opacity: 0.9; stroke: #297fda; stroke-opacity: 0.9"/>
     <use xlink:href="#mfefc04fb65" x="141.725234" y="223.759584" style="fill: #297fda; fill-opacity: 0.9; stroke: #297fda; stroke-opacity: 0.9"/>
     <use xlink:href="#mfefc04fb65" x="151.974673" y="217.517182" style="fill: #297fda; fill-opacity: 0.9; stroke: #297fda; stroke-opacity: 0.9"/>
     <use xlink:href="#mfefc04fb65" x="162.224113" y="215.116258" style="fill: #297fda; fill-opacity: 0.9; stroke: #297fda; stroke-opacity: 0.9"/>
     <use xlink:href="#mfefc04fb65" x="172.473552" y="210.434457" style="fill: #297fda; fill-opacity: 0.9; stroke: #297fda; stroke-opacity: 0.9"/>
     <use xlink:href="#mfefc04fb65" x="182.722991" y="216.076628" style="fill: #297fda; fill-opacity: 0.9; stroke: #297fda; stroke-opacity: 0.9"/>
     <use xlink:href="#mfefc04fb65" x="192.97243" y="208.033533" style="fill: #297fda; fill-opacity: 0.9; stroke: #297fda; stroke-opacity: 0.9"/>
     <use xlink:href="#mfefc04fb65" x="213.471309" y="206.953117" style="fill: #297fda; fill-opacity: 0.9; stroke: #297fda; stroke-opacity: 0.9"/>
     <use xlink:href="#mfefc04fb65" x="223.720748" y="206.472933" style="fill: #297fda; fill-opacity: 0.9; stroke: #297fda; stroke-opacity: 0.9"/>
    </g>
   </g>
   <g id="line2d_7">
    <path d="M 59.72972 197.829607 
L 69.979159 197.829607 
L 90.478038 211.034688 
L 100.727477 210.674549 
L 110.976916 215.236305 
L 121.226355 219.557968 
L 131.475795 219.557968 
L 141.725234 224.239769 
L 151.974673 218.957737 
L 162.224113 219.918106 
L 172.473552 215.476397 
L 182.722991 220.518337 
L 192.97243 216.31672 
L 213.471309 215.476397 
L 223.720748 215.116258 
" clip-path="url(#pc200cf595b)" style="fill: none; stroke: #ff8a46; stroke-opacity: 0.9; stroke-width: 1.5; stroke-linecap: square"/>
    <defs>
     <path id="mce56baecfb" d="M 0 0.75 
C 0.198902 0.75 0.389685 0.670975 0.53033 0.53033 
C 0.670975 0.389685 0.75 0.198902 0.75 0 
C 0.75 -0.198902 0.670975 -0.389685 0.53033 -0.53033 
C 0.389685 -0.670975 0.198902 -0.75 0 -0.75 
C -0.198902 -0.75 -0.389685 -0.670975 -0.53033 -0.53033 
C -0.670975 -0.389685 -0.75 -0.198902 -0.75 0 
C -0.75 0.198902 -0.670975 0.389685 -0.53033 0.53033 
C -0.389685 0.670975 -0.198902 0.75 0 0.75 
z
" style="stroke: #ff8a46; stroke-opacity: 0.9"/>
    </defs>
    <g clip-path="url(#pc200cf595b)">
     <use xlink:href="#mce56baecfb" x="59.72972" y="197.829607" style="fill: #ff8a46; fill-opacity: 0.9; stroke: #ff8a46; stroke-opacity: 0.9"/>
     <use xlink:href="#mce56baecfb" x="69.979159" y="197.829607" style="fill: #ff8a46; fill-opacity: 0.9; stroke: #ff8a46; stroke-opacity: 0.9"/>
     <use xlink:href="#mce56baecfb" x="90.478038" y="211.034688" style="fill: #ff8a46; fill-opacity: 0.9; stroke: #ff8a46; stroke-opacity: 0.9"/>
     <use xlink:href="#mce56baecfb" x="100.727477" y="210.674549" style="fill: #ff8a46; fill-opacity: 0.9; stroke: #ff8a46; stroke-opacity: 0.9"/>
     <use xlink:href="#mce56baecfb" x="110.976916" y="215.236305" style="fill: #ff8a46; fill-opacity: 0.9; stroke: #ff8a46; stroke-opacity: 0.9"/>
     <use xlink:href="#mce56baecfb" x="121.226355" y="219.557968" style="fill: #ff8a46; fill-opacity: 0.9; stroke: #ff8a46; stroke-opacity: 0.9"/>
     <use xlink:href="#mce56baecfb" x="131.475795" y="219.557968" style="fill: #ff8a46; fill-opacity: 0.9; stroke: #ff8a46; stroke-opacity: 0.9"/>
     <use xlink:href="#mce56baecfb" x="141.725234" y="224.239769" style="fill: #ff8a46; fill-opacity: 0.9; stroke: #ff8a46; stroke-opacity: 0.9"/>
     <use xlink:href="#mce56baecfb" x="151.974673" y="218.957737" style="fill: #ff8a46; fill-opacity: 0.9; stroke: #ff8a46; stroke-opacity: 0.9"/>
     <use xlink:href="#mce56baecfb" x="162.224113" y="219.918106" style="fill: #ff8a46; fill-opacity: 0.9; stroke: #ff8a46; stroke-opacity: 0.9"/>
     <use xlink:href="#mce56baecfb" x="172.473552" y="215.476397" style="fill: #ff8a46; fill-opacity: 0.9; stroke: #ff8a46; stroke-opacity: 0.9"/>
     <use xlink:href="#mce56baecfb" x="182.722991" y="220.518337" style="fill: #ff8a46; fill-opacity: 0.9; stroke: #ff8a46; stroke-opacity: 0.9"/>
     <use xlink:href="#mce56baecfb" x="192.97243" y="216.31672" style="fill: #ff8a46; fill-opacity: 0.9; stroke: #ff8a46; stroke-opacity: 0.9"/>
     <use xlink:href="#mce56baecfb" x="213.471309" y="215.476397" style="fill: #ff8a46; fill-opacity: 0.9; stroke: #ff8a46; stroke-opacity: 0.9"/>
     <use xlink:href="#mce56baecfb" x="223.720748" y="215.116258" style="fill: #ff8a46; fill-opacity: 0.9; stroke: #ff8a46; stroke-opacity: 0.9"/>
    </g>
   </g>
   <g id="patch_3">
    <path d="M 54.605 224.84 
L 228.845468 224.84 
" style="fill: none; stroke: #000000; stroke-width: 0.8; stroke-linejoin: miter; stroke-linecap: square"/>
   </g>
   <g id="text_14">
    <!-- Sheltered homeless -->
    <g transform="translate(82.108671 42.12) scale(0.12 -0.12)">
     <defs>
      <path id="Montserrat-Regular-53" d="M 1965 -38 
Q 1466 -38 1008 125 
Q 550 288 301 544 
L 486 909 
Q 723 678 1123 521 
Q 1523 365 1965 365 
Q 2387 365 2652 470 
Q 2918 576 3043 755 
Q 3168 934 3168 1152 
Q 3168 1414 3017 1574 
Q 2867 1734 2624 1827 
Q 2381 1920 2086 1990 
Q 1792 2061 1497 2141 
Q 1203 2221 956 2355 
Q 710 2490 560 2710 
Q 410 2931 410 3290 
Q 410 3622 586 3900 
Q 762 4179 1126 4348 
Q 1491 4518 2061 4518 
Q 2438 4518 2809 4412 
Q 3181 4307 3450 4122 
L 3290 3744 
Q 3002 3936 2678 4025 
Q 2355 4115 2054 4115 
Q 1651 4115 1388 4006 
Q 1126 3898 1001 3715 
Q 877 3533 877 3302 
Q 877 3040 1027 2880 
Q 1178 2720 1424 2630 
Q 1670 2541 1964 2470 
Q 2259 2400 2550 2317 
Q 2842 2234 3088 2102 
Q 3334 1971 3484 1753 
Q 3635 1536 3635 1184 
Q 3635 858 3456 579 
Q 3277 301 2909 131 
Q 2541 -38 1965 -38 
z
" transform="scale(0.015625)"/>
      <path id="Montserrat-Regular-68" d="M 2349 3392 
Q 2758 3392 3068 3235 
Q 3379 3078 3555 2758 
Q 3731 2438 3731 1952 
L 3731 0 
L 3277 0 
L 3277 1907 
Q 3277 2438 3011 2710 
Q 2746 2982 2266 2982 
Q 1907 2982 1641 2838 
Q 1376 2694 1232 2422 
Q 1088 2150 1088 1766 
L 1088 0 
L 634 0 
L 634 4749 
L 1088 4749 
L 1088 2438 
L 998 2611 
Q 1158 2976 1510 3184 
Q 1862 3392 2349 3392 
z
" transform="scale(0.015625)"/>
      <path id="Montserrat-Regular-74" d="M 1696 -32 
Q 1222 -32 966 224 
Q 710 480 710 947 
L 710 4102 
L 1165 4102 
L 1165 973 
Q 1165 678 1315 518 
Q 1466 358 1747 358 
Q 2048 358 2246 531 
L 2406 205 
Q 2272 83 2083 25 
Q 1894 -32 1696 -32 
z
M 109 2982 
L 109 3360 
L 2189 3360 
L 2189 2982 
L 109 2982 
z
" transform="scale(0.015625)"/>
      <path id="Montserrat-Regular-64" d="M 1971 -32 
Q 1491 -32 1110 185 
Q 730 403 512 790 
Q 294 1178 294 1683 
Q 294 2195 512 2579 
Q 730 2963 1110 3177 
Q 1491 3392 1971 3392 
Q 2413 3392 2761 3193 
Q 3110 2995 3318 2614 
Q 3526 2234 3526 1683 
Q 3526 1139 3321 755 
Q 3117 371 2768 169 
Q 2419 -32 1971 -32 
z
M 2003 371 
Q 2362 371 2646 534 
Q 2931 698 3094 995 
Q 3258 1293 3258 1683 
Q 3258 2080 3094 2374 
Q 2931 2669 2646 2832 
Q 2362 2995 2003 2995 
Q 1651 2995 1369 2832 
Q 1088 2669 921 2374 
Q 755 2080 755 1683 
Q 755 1293 921 995 
Q 1088 698 1369 534 
Q 1651 371 2003 371 
z
M 3270 0 
L 3270 1011 
L 3315 1690 
L 3251 2368 
L 3251 4749 
L 3706 4749 
L 3706 0 
L 3270 0 
z
" transform="scale(0.015625)"/>
      <path id="Montserrat-Regular-73" d="M 1536 -32 
Q 1120 -32 749 86 
Q 378 205 166 384 
L 371 742 
Q 576 589 896 477 
Q 1216 365 1568 365 
Q 2048 365 2259 515 
Q 2470 666 2470 915 
Q 2470 1101 2352 1206 
Q 2234 1312 2042 1366 
Q 1850 1421 1613 1459 
Q 1376 1498 1142 1549 
Q 909 1600 717 1699 
Q 525 1798 406 1971 
Q 288 2144 288 2432 
Q 288 2707 441 2924 
Q 595 3142 892 3267 
Q 1190 3392 1619 3392 
Q 1946 3392 2272 3305 
Q 2598 3219 2810 3078 
L 2611 2714 
Q 2387 2867 2131 2934 
Q 1875 3002 1619 3002 
Q 1165 3002 950 2845 
Q 736 2688 736 2445 
Q 736 2253 854 2144 
Q 973 2035 1168 1974 
Q 1363 1914 1596 1875 
Q 1830 1837 2064 1782 
Q 2298 1728 2493 1635 
Q 2688 1542 2806 1372 
Q 2925 1203 2925 928 
Q 2925 634 2761 419 
Q 2598 205 2288 86 
Q 1978 -32 1536 -32 
z
" transform="scale(0.015625)"/>
     </defs>
     <use xlink:href="#Montserrat-Regular-53"/>
     <use xlink:href="#Montserrat-Regular-68" x="61.499985"/>
     <use xlink:href="#Montserrat-Regular-65" x="129.099976"/>
     <use xlink:href="#Montserrat-Regular-6c" x="189.499969"/>
     <use xlink:href="#Montserrat-Regular-74" x="216.399963"/>
     <use xlink:href="#Montserrat-Regular-65" x="256.999954"/>
     <use xlink:href="#Montserrat-Regular-72" x="317.399948"/>
     <use xlink:href="#Montserrat-Regular-65" x="357.499939"/>
     <use xlink:href="#Montserrat-Regular-64" x="417.899933"/>
     <use xlink:href="#Montserrat-Regular-20" x="485.699921"/>
     <use xlink:href="#Montserrat-Regular-68" x="511.899918"/>
     <use xlink:href="#Montserrat-Regular-6f" x="579.499908"/>
     <use xlink:href="#Montserrat-Regular-6d" x="642.199905"/>
     <use xlink:href="#Montserrat-Regular-65" x="748.299896"/>
     <use xlink:href="#Montserrat-Regular-6c" x="808.69989"/>
     <use xlink:href="#Montserrat-Regular-65" x="835.599884"/>
     <use xlink:href="#Montserrat-Regular-73" x="895.999878"/>
     <use xlink:href="#Montserrat-Regular-73" x="944.799866"/>
    </g>
   </g>
   <g id="legend_1">
    <g id="patch_4">
     <path d="M 78.017343 99.202812 
L 221.845468 99.202812 
Q 223.845468 99.202812 223.845468 97.202812 
L 223.845468 55.12 
Q 223.845468 53.12 221.845468 53.12 
L 78.017343 53.12 
Q 76.017343 53.12 76.017343 55.12 
L 76.017343 97.202812 
Q 76.017343 99.202812 78.017343 99.202812 
z
" style="fill: #ffffff; opacity: 0.7"/>
    </g>
    <g id="line2d_8">
     <path d="M 80.017343 61.040312 
L 90.017343 61.040312 
L 100.017343 61.040312 
" style="fill: none; stroke: #8d8d8d; stroke-opacity: 0.9; stroke-width: 1.5; stroke-linecap: square"/>
     <g>
      <use xlink:href="#m26430fcc26" x="90.017343" y="61.040312" style="fill: #8d8d8d; fill-opacity: 0.9; stroke: #8d8d8d; stroke-opacity: 0.9"/>
     </g>
    </g>
    <g id="text_15">
     <!-- All -->
     <g transform="translate(108.017343 64.540312) scale(0.1 -0.1)">
      <defs>
       <path id="Montserrat-Regular-41" d="M 13 0 
L 2061 4480 
L 2528 4480 
L 4576 0 
L 4077 0 
L 2195 4205 
L 2387 4205 
L 506 0 
L 13 0 
z
M 819 1197 
L 960 1581 
L 3565 1581 
L 3706 1197 
L 819 1197 
z
" transform="scale(0.015625)"/>
      </defs>
      <use xlink:href="#Montserrat-Regular-41"/>
      <use xlink:href="#Montserrat-Regular-6c" x="71.699982"/>
      <use xlink:href="#Montserrat-Regular-6c" x="98.599976"/>
     </g>
    </g>
    <g id="line2d_9">
     <path d="M 80.017343 75.40125 
L 90.017343 75.40125 
L 100.017343 75.40125 
" style="fill: none; stroke: #297fda; stroke-opacity: 0.9; stroke-width: 1.5; stroke-linecap: square"/>
     <g>
      <use xlink:href="#mfefc04fb65" x="90.017343" y="75.40125" style="fill: #297fda; fill-opacity: 0.9; stroke: #297fda; stroke-opacity: 0.9"/>
     </g>
    </g>
    <g id="text_16">
     <!-- With mental illness -->
     <g transform="translate(108.017343 78.90125) scale(0.1 -0.1)">
      <defs>
       <path id="Montserrat-Regular-57" d="M 1747 0 
L 237 4480 
L 723 4480 
L 2138 262 
L 1894 262 
L 3354 4480 
L 3789 4480 
L 5229 262 
L 4998 262 
L 6426 4480 
L 6880 4480 
L 5370 0 
L 4870 0 
L 3494 4000 
L 3622 4000 
L 2240 0 
L 1747 0 
z
" transform="scale(0.015625)"/>
       <path id="Montserrat-Regular-69" d="M 634 0 
L 634 3360 
L 1088 3360 
L 1088 0 
L 634 0 
z
M 864 4102 
Q 723 4102 627 4198 
Q 531 4294 531 4429 
Q 531 4563 627 4656 
Q 723 4749 864 4749 
Q 1005 4749 1101 4659 
Q 1197 4570 1197 4435 
Q 1197 4294 1104 4198 
Q 1011 4102 864 4102 
z
" transform="scale(0.015625)"/>
       <path id="Montserrat-Regular-6e" d="M 2349 3392 
Q 2758 3392 3068 3235 
Q 3379 3078 3555 2758 
Q 3731 2438 3731 1952 
L 3731 0 
L 3277 0 
L 3277 1907 
Q 3277 2438 3011 2710 
Q 2746 2982 2266 2982 
Q 1907 2982 1641 2838 
Q 1376 2694 1232 2422 
Q 1088 2150 1088 1766 
L 1088 0 
L 634 0 
L 634 3360 
L 1069 3360 
L 1069 2438 
L 998 2611 
Q 1158 2976 1510 3184 
Q 1862 3392 2349 3392 
z
" transform="scale(0.015625)"/>
       <path id="Montserrat-Regular-61" d="M 2739 0 
L 2739 742 
L 2720 864 
L 2720 2106 
Q 2720 2534 2480 2764 
Q 2240 2995 1766 2995 
Q 1440 2995 1145 2886 
Q 851 2778 646 2598 
L 442 2938 
Q 698 3155 1056 3273 
Q 1414 3392 1811 3392 
Q 2464 3392 2819 3069 
Q 3174 2746 3174 2086 
L 3174 0 
L 2739 0 
z
M 1581 -32 
Q 1203 -32 924 93 
Q 646 218 499 438 
Q 352 659 352 947 
Q 352 1210 477 1424 
Q 602 1638 886 1769 
Q 1171 1901 1651 1901 
L 2810 1901 
L 2810 1562 
L 1664 1562 
Q 1178 1562 989 1389 
Q 800 1216 800 960 
Q 800 672 1024 499 
Q 1248 326 1651 326 
Q 2035 326 2313 502 
Q 2592 678 2720 1011 
L 2822 698 
Q 2694 365 2377 166 
Q 2061 -32 1581 -32 
z
" transform="scale(0.015625)"/>
      </defs>
      <use xlink:href="#Montserrat-Regular-57"/>
      <use xlink:href="#Montserrat-Regular-69" x="111.099991"/>
      <use xlink:href="#Montserrat-Regular-74" x="137.999985"/>
      <use xlink:href="#Montserrat-Regular-68" x="178.599976"/>
      <use xlink:href="#Montserrat-Regular-20" x="246.199966"/>
      <use xlink:href="#Montserrat-Regular-6d" x="272.399963"/>
      <use xlink:href="#Montserrat-Regular-65" x="378.499954"/>
      <use xlink:href="#Montserrat-Regular-6e" x="438.899948"/>
      <use xlink:href="#Montserrat-Regular-74" x="506.499939"/>
      <use xlink:href="#Montserrat-Regular-61" x="547.09993"/>
      <use xlink:href="#Montserrat-Regular-6c" x="606.099915"/>
      <use xlink:href="#Montserrat-Regular-20" x="632.999908"/>
      <use xlink:href="#Montserrat-Regular-69" x="659.199905"/>
      <use xlink:href="#Montserrat-Regular-6c" x="686.099899"/>
      <use xlink:href="#Montserrat-Regular-6c" x="712.999893"/>
      <use xlink:href="#Montserrat-Regular-6e" x="739.899887"/>
      <use xlink:href="#Montserrat-Regular-65" x="807.499878"/>
      <use xlink:href="#Montserrat-Regular-73" x="867.899872"/>
      <use xlink:href="#Montserrat-Regular-73" x="916.69986"/>
     </g>
    </g>
    <g id="line2d_10">
     <path d="M 80.017343 89.762187 
L 90.017343 89.762187 
L 100.017343 89.762187 
" style="fill: none; stroke: #ff8a46; stroke-opacity: 0.9; stroke-width: 1.5; stroke-linecap: square"/>
     <g>
      <use xlink:href="#mce56baecfb" x="90.017343" y="89.762187" style="fill: #ff8a46; fill-opacity: 0.9; stroke: #ff8a46; stroke-opacity: 0.9"/>
     </g>
    </g>
    <g id="text_17">
     <!-- With substance abuse -->
     <g transform="translate(108.017343 93.262187) scale(0.1 -0.1)">
      <defs>
       <path id="Montserrat-Regular-63" d="M 2029 -32 
Q 1530 -32 1136 189 
Q 742 410 518 797 
Q 294 1184 294 1683 
Q 294 2189 518 2573 
Q 742 2957 1136 3174 
Q 1530 3392 2029 3392 
Q 2458 3392 2803 3225 
Q 3149 3059 3347 2726 
L 3008 2496 
Q 2835 2752 2579 2873 
Q 2323 2995 2022 2995 
Q 1664 2995 1376 2832 
Q 1088 2669 921 2374 
Q 755 2080 755 1683 
Q 755 1286 921 992 
Q 1088 698 1376 534 
Q 1664 371 2022 371 
Q 2323 371 2579 492 
Q 2835 614 3008 864 
L 3347 634 
Q 3149 307 2803 137 
Q 2458 -32 2029 -32 
z
" transform="scale(0.015625)"/>
      </defs>
      <use xlink:href="#Montserrat-Regular-57"/>
      <use xlink:href="#Montserrat-Regular-69" x="111.099991"/>
      <use xlink:href="#Montserrat-Regular-74" x="137.999985"/>
      <use xlink:href="#Montserrat-Regular-68" x="178.599976"/>
      <use xlink:href="#Montserrat-Regular-20" x="246.199966"/>
      <use xlink:href="#Montserrat-Regular-73" x="272.399963"/>
      <use xlink:href="#Montserrat-Regular-75" x="321.199951"/>
      <use xlink:href="#Montserrat-Regular-62" x="388.399948"/>
      <use xlink:href="#Montserrat-Regular-73" x="456.199936"/>
      <use xlink:href="#Montserrat-Regular-74" x="504.999924"/>
      <use xlink:href="#Montserrat-Regular-61" x="545.599915"/>
      <use xlink:href="#Montserrat-Regular-6e" x="604.599899"/>
      <use xlink:href="#Montserrat-Regular-63" x="672.19989"/>
      <use xlink:href="#Montserrat-Regular-65" x="728.499878"/>
      <use xlink:href="#Montserrat-Regular-20" x="788.899872"/>
      <use xlink:href="#Montserrat-Regular-61" x="815.099869"/>
      <use xlink:href="#Montserrat-Regular-62" x="874.099854"/>
      <use xlink:href="#Montserrat-Regular-75" x="941.899841"/>
      <use xlink:href="#Montserrat-Regular-73" x="1009.099838"/>
      <use xlink:href="#Montserrat-Regular-65" x="1057.899826"/>
     </g>
    </g>
   </g>
  </g>
  <g id="axes_2">
   <g id="patch_5">
    <path d="M 246.959532 224.84 
L 421.2 224.84 
L 421.2 48.12 
L 246.959532 48.12 
z
" style="fill: #ffffff"/>
   </g>
   <g id="matplotlib.axis_3">
    <g id="xtick_5">
     <g id="line2d_11">
      <g>
       <use xlink:href="#m6635bab3d5" x="282.83257" y="224.84" style="stroke: #000000; stroke-width: 0.8"/>
      </g>
     </g>
     <g id="text_18">
      <!-- 2010 -->
      <g transform="translate(271.567726 239.260312) scale(0.1 -0.1)">
       <use xlink:href="#Montserrat-Regular-32"/>
       <use xlink:href="#Montserrat-Regular-30" x="56.799988"/>
       <use xlink:href="#Montserrat-Regular-31" x="122.999985"/>
       <use xlink:href="#Montserrat-Regular-30" x="159.099976"/>
      </g>
     </g>
    </g>
    <g id="xtick_6">
     <g id="line2d_12">
      <g>
       <use xlink:href="#m6635bab3d5" x="334.079766" y="224.84" style="stroke: #000000; stroke-width: 0.8"/>
      </g>
     </g>
     <g id="text_19">
      <!-- 2015 -->
      <g transform="translate(323.295391 239.260312) scale(0.1 -0.1)">
       <use xlink:href="#Montserrat-Regular-32"/>
       <use xlink:href="#Montserrat-Regular-30" x="56.799988"/>
       <use xlink:href="#Montserrat-Regular-31" x="122.999985"/>
       <use xlink:href="#Montserrat-Regular-35" x="159.099976"/>
      </g>
     </g>
    </g>
    <g id="xtick_7">
     <g id="line2d_13">
      <g>
       <use xlink:href="#m6635bab3d5" x="385.326962" y="224.84" style="stroke: #000000; stroke-width: 0.8"/>
      </g>
     </g>
     <g id="text_20">
      <!-- 2020 -->
      <g transform="translate(373.026962 239.260312) scale(0.1 -0.1)">
       <use xlink:href="#Montserrat-Regular-32"/>
       <use xlink:href="#Montserrat-Regular-30" x="56.799988"/>
       <use xlink:href="#Montserrat-Regular-32" x="122.999985"/>
       <use xlink:href="#Montserrat-Regular-30" x="179.799973"/>
      </g>
     </g>
    </g>
    <g id="xtick_8">
     <g id="line2d_14">
      <g>
       <use xlink:href="#m6635bab3d5" x="416.07528" y="224.84" style="stroke: #000000; stroke-width: 0.8"/>
      </g>
     </g>
     <g id="text_21">
      <!-- 2023 -->
      <g transform="translate(404.265124 239.260312) scale(0.1 -0.1)">
       <use xlink:href="#Montserrat-Regular-32"/>
       <use xlink:href="#Montserrat-Regular-30" x="56.799988"/>
       <use xlink:href="#Montserrat-Regular-32" x="122.999985"/>
       <use xlink:href="#Montserrat-Regular-33" x="179.799973"/>
      </g>
     </g>
    </g>
   </g>
   <g id="matplotlib.axis_4">
    <g id="ytick_9"/>
    <g id="ytick_10"/>
    <g id="ytick_11"/>
    <g id="ytick_12"/>
    <g id="ytick_13"/>
    <g id="ytick_14"/>
    <g id="ytick_15"/>
    <g id="ytick_16"/>
   </g>
   <g id="line2d_15">
    <path d="M 252.084252 154.612977 
L 262.333691 154.612977 
L 282.83257 104.793807 
L 293.082009 170.339029 
L 303.331448 170.339029 
L 313.580887 142.728404 
L 323.830327 142.728404 
L 334.079766 112.476764 
L 344.329205 112.476764 
L 354.578645 172.739952 
L 364.828084 172.739952 
L 375.077523 56.535238 
L 385.326962 56.535238 
L 405.825841 67.699534 
L 416.07528 67.699534 
" clip-path="url(#pf5b5225a46)" style="fill: none; stroke: #8d8d8d; stroke-opacity: 0.9; stroke-width: 1.5; stroke-linecap: square"/>
    <g clip-path="url(#pf5b5225a46)">
     <use xlink:href="#m26430fcc26" x="252.084252" y="154.612977" style="fill: #8d8d8d; fill-opacity: 0.9; stroke: #8d8d8d; stroke-opacity: 0.9"/>
     <use xlink:href="#m26430fcc26" x="262.333691" y="154.612977" style="fill: #8d8d8d; fill-opacity: 0.9; stroke: #8d8d8d; stroke-opacity: 0.9"/>
     <use xlink:href="#m26430fcc26" x="282.83257" y="104.793807" style="fill: #8d8d8d; fill-opacity: 0.9; stroke: #8d8d8d; stroke-opacity: 0.9"/>
     <use xlink:href="#m26430fcc26" x="293.082009" y="170.339029" style="fill: #8d8d8d; fill-opacity: 0.9; stroke: #8d8d8d; stroke-opacity: 0.9"/>
     <use xlink:href="#m26430fcc26" x="303.331448" y="170.339029" style="fill: #8d8d8d; fill-opacity: 0.9; stroke: #8d8d8d; stroke-opacity: 0.9"/>
     <use xlink:href="#m26430fcc26" x="313.580887" y="142.728404" style="fill: #8d8d8d; fill-opacity: 0.9; stroke: #8d8d8d; stroke-opacity: 0.9"/>
     <use xlink:href="#m26430fcc26" x="323.830327" y="142.728404" style="fill: #8d8d8d; fill-opacity: 0.9; stroke: #8d8d8d; stroke-opacity: 0.9"/>
     <use xlink:href="#m26430fcc26" x="334.079766" y="112.476764" style="fill: #8d8d8d; fill-opacity: 0.9; stroke: #8d8d8d; stroke-opacity: 0.9"/>
     <use xlink:href="#m26430fcc26" x="344.329205" y="112.476764" style="fill: #8d8d8d; fill-opacity: 0.9; stroke: #8d8d8d; stroke-opacity: 0.9"/>
     <use xlink:href="#m26430fcc26" x="354.578645" y="172.739952" style="fill: #8d8d8d; fill-opacity: 0.9; stroke: #8d8d8d; stroke-opacity: 0.9"/>
     <use xlink:href="#m26430fcc26" x="364.828084" y="172.739952" style="fill: #8d8d8d; fill-opacity: 0.9; stroke: #8d8d8d; stroke-opacity: 0.9"/>
     <use xlink:href="#m26430fcc26" x="375.077523" y="56.535238" style="fill: #8d8d8d; fill-opacity: 0.9; stroke: #8d8d8d; stroke-opacity: 0.9"/>
     <use xlink:href="#m26430fcc26" x="385.326962" y="56.535238" style="fill: #8d8d8d; fill-opacity: 0.9; stroke: #8d8d8d; stroke-opacity: 0.9"/>
     <use xlink:href="#m26430fcc26" x="405.825841" y="67.699534" style="fill: #8d8d8d; fill-opacity: 0.9; stroke: #8d8d8d; stroke-opacity: 0.9"/>
     <use xlink:href="#m26430fcc26" x="416.07528" y="67.699534" style="fill: #8d8d8d; fill-opacity: 0.9; stroke: #8d8d8d; stroke-opacity: 0.9"/>
    </g>
   </g>
   <g id="line2d_16">
    <path d="M 252.084252 224.84 
L 262.333691 224.84 
L 282.83257 224.84 
L 293.082009 214.035843 
L 303.331448 214.035843 
L 313.580887 213.555658 
L 323.830327 213.555658 
L 334.079766 189.906558 
L 344.329205 189.906558 
L 354.578645 200.350577 
L 364.828084 200.350577 
L 375.077523 179.942724 
L 385.326962 179.942724 
L 405.825841 150.651453 
L 416.07528 150.651453 
" clip-path="url(#pf5b5225a46)" style="fill: none; stroke: #297fda; stroke-opacity: 0.9; stroke-width: 1.5; stroke-linecap: square"/>
    <g clip-path="url(#pf5b5225a46)">
     <use xlink:href="#mfefc04fb65" x="252.084252" y="224.84" style="fill: #297fda; fill-opacity: 0.9; stroke: #297fda; stroke-opacity: 0.9"/>
     <use xlink:href="#mfefc04fb65" x="262.333691" y="224.84" style="fill: #297fda; fill-opacity: 0.9; stroke: #297fda; stroke-opacity: 0.9"/>
     <use xlink:href="#mfefc04fb65" x="282.83257" y="224.84" style="fill: #297fda; fill-opacity: 0.9; stroke: #297fda; stroke-opacity: 0.9"/>
     <use xlink:href="#mfefc04fb65" x="293.082009" y="214.035843" style="fill: #297fda; fill-opacity: 0.9; stroke: #297fda; stroke-opacity: 0.9"/>
     <use xlink:href="#mfefc04fb65" x="303.331448" y="214.035843" style="fill: #297fda; fill-opacity: 0.9; stroke: #297fda; stroke-opacity: 0.9"/>
     <use xlink:href="#mfefc04fb65" x="313.580887" y="213.555658" style="fill: #297fda; fill-opacity: 0.9; stroke: #297fda; stroke-opacity: 0.9"/>
     <use xlink:href="#mfefc04fb65" x="323.830327" y="213.555658" style="fill: #297fda; fill-opacity: 0.9; stroke: #297fda; stroke-opacity: 0.9"/>
     <use xlink:href="#mfefc04fb65" x="334.079766" y="189.906558" style="fill: #297fda; fill-opacity: 0.9; stroke: #297fda; stroke-opacity: 0.9"/>
     <use xlink:href="#mfefc04fb65" x="344.329205" y="189.906558" style="fill: #297fda; fill-opacity: 0.9; stroke: #297fda; stroke-opacity: 0.9"/>
     <use xlink:href="#mfefc04fb65" x="354.578645" y="200.350577" style="fill: #297fda; fill-opacity: 0.9; stroke: #297fda; stroke-opacity: 0.9"/>
     <use xlink:href="#mfefc04fb65" x="364.828084" y="200.350577" style="fill: #297fda; fill-opacity: 0.9; stroke: #297fda; stroke-opacity: 0.9"/>
     <use xlink:href="#mfefc04fb65" x="375.077523" y="179.942724" style="fill: #297fda; fill-opacity: 0.9; stroke: #297fda; stroke-opacity: 0.9"/>
     <use xlink:href="#mfefc04fb65" x="385.326962" y="179.942724" style="fill: #297fda; fill-opacity: 0.9; stroke: #297fda; stroke-opacity: 0.9"/>
     <use xlink:href="#mfefc04fb65" x="405.825841" y="150.651453" style="fill: #297fda; fill-opacity: 0.9; stroke: #297fda; stroke-opacity: 0.9"/>
     <use xlink:href="#mfefc04fb65" x="416.07528" y="150.651453" style="fill: #297fda; fill-opacity: 0.9; stroke: #297fda; stroke-opacity: 0.9"/>
    </g>
   </g>
   <g id="line2d_17">
    <path d="M 252.084252 224.84 
L 262.333691 224.84 
L 282.83257 224.84 
L 293.082009 219.557968 
L 303.331448 219.557968 
L 313.580887 215.716489 
L 323.830327 215.716489 
L 334.079766 187.62568 
L 344.329205 187.62568 
L 354.578645 199.390207 
L 364.828084 199.390207 
L 375.077523 172.980045 
L 385.326962 172.980045 
L 405.825841 139.847296 
L 416.07528 139.847296 
" clip-path="url(#pf5b5225a46)" style="fill: none; stroke: #ff8a46; stroke-opacity: 0.9; stroke-width: 1.5; stroke-linecap: square"/>
    <g clip-path="url(#pf5b5225a46)">
     <use xlink:href="#mce56baecfb" x="252.084252" y="224.84" style="fill: #ff8a46; fill-opacity: 0.9; stroke: #ff8a46; stroke-opacity: 0.9"/>
     <use xlink:href="#mce56baecfb" x="262.333691" y="224.84" style="fill: #ff8a46; fill-opacity: 0.9; stroke: #ff8a46; stroke-opacity: 0.9"/>
     <use xlink:href="#mce56baecfb" x="282.83257" y="224.84" style="fill: #ff8a46; fill-opacity: 0.9; stroke: #ff8a46; stroke-opacity: 0.9"/>
     <use xlink:href="#mce56baecfb" x="293.082009" y="219.557968" style="fill: #ff8a46; fill-opacity: 0.9; stroke: #ff8a46; stroke-opacity: 0.9"/>
     <use xlink:href="#mce56baecfb" x="303.331448" y="219.557968" style="fill: #ff8a46; fill-opacity: 0.9; stroke: #ff8a46; stroke-opacity: 0.9"/>
     <use xlink:href="#mce56baecfb" x="313.580887" y="215.716489" style="fill: #ff8a46; fill-opacity: 0.9; stroke: #ff8a46; stroke-opacity: 0.9"/>
     <use xlink:href="#mce56baecfb" x="323.830327" y="215.716489" style="fill: #ff8a46; fill-opacity: 0.9; stroke: #ff8a46; stroke-opacity: 0.9"/>
     <use xlink:href="#mce56baecfb" x="334.079766" y="187.62568" style="fill: #ff8a46; fill-opacity: 0.9; stroke: #ff8a46; stroke-opacity: 0.9"/>
     <use xlink:href="#mce56baecfb" x="344.329205" y="187.62568" style="fill: #ff8a46; fill-opacity: 0.9; stroke: #ff8a46; stroke-opacity: 0.9"/>
     <use xlink:href="#mce56baecfb" x="354.578645" y="199.390207" style="fill: #ff8a46; fill-opacity: 0.9; stroke: #ff8a46; stroke-opacity: 0.9"/>
     <use xlink:href="#mce56baecfb" x="364.828084" y="199.390207" style="fill: #ff8a46; fill-opacity: 0.9; stroke: #ff8a46; stroke-opacity: 0.9"/>
     <use xlink:href="#mce56baecfb" x="375.077523" y="172.980045" style="fill: #ff8a46; fill-opacity: 0.9; stroke: #ff8a46; stroke-opacity: 0.9"/>
     <use xlink:href="#mce56baecfb" x="385.326962" y="172.980045" style="fill: #ff8a46; fill-opacity: 0.9; stroke: #ff8a46; stroke-opacity: 0.9"/>
     <use xlink:href="#mce56baecfb" x="405.825841" y="139.847296" style="fill: #ff8a46; fill-opacity: 0.9; stroke: #ff8a46; stroke-opacity: 0.9"/>
     <use xlink:href="#mce56baecfb" x="416.07528" y="139.847296" style="fill: #ff8a46; fill-opacity: 0.9; stroke: #ff8a46; stroke-opacity: 0.9"/>
    </g>
   </g>
   <g id="patch_6">
    <path d="M 246.959532 224.84 
L 421.2 224.84 
" style="fill: none; stroke: #000000; stroke-width: 0.8; stroke-linejoin: miter; stroke-linecap: square"/>
   </g>
   <g id="text_22">
    <!-- Unsheltered homeless -->
    <g transform="translate(266.417579 42.12) scale(0.12 -0.12)">
     <defs>
      <path id="Montserrat-Regular-55" d="M 2534 -38 
Q 1677 -38 1184 454 
Q 691 947 691 1914 
L 691 4480 
L 1165 4480 
L 1165 1933 
Q 1165 1139 1523 761 
Q 1882 384 2534 384 
Q 3194 384 3552 761 
Q 3910 1139 3910 1933 
L 3910 4480 
L 4371 4480 
L 4371 1914 
Q 4371 947 3881 454 
Q 3392 -38 2534 -38 
z
" transform="scale(0.015625)"/>
     </defs>
     <use xlink:href="#Montserrat-Regular-55"/>
     <use xlink:href="#Montserrat-Regular-6e" x="79.199982"/>
     <use xlink:href="#Montserrat-Regular-73" x="146.799973"/>
     <use xlink:href="#Montserrat-Regular-68" x="195.59996"/>
     <use xlink:href="#Montserrat-Regular-65" x="263.199951"/>
     <use xlink:href="#Montserrat-Regular-6c" x="323.599945"/>
     <use xlink:href="#Montserrat-Regular-74" x="350.499939"/>
     <use xlink:href="#Montserrat-Regular-65" x="391.09993"/>
     <use xlink:href="#Montserrat-Regular-72" x="451.499924"/>
     <use xlink:href="#Montserrat-Regular-65" x="491.599915"/>
     <use xlink:href="#Montserrat-Regular-64" x="551.999908"/>
     <use xlink:href="#Montserrat-Regular-20" x="619.799896"/>
     <use xlink:href="#Montserrat-Regular-68" x="645.999893"/>
     <use xlink:href="#Montserrat-Regular-6f" x="713.599884"/>
     <use xlink:href="#Montserrat-Regular-6d" x="776.299881"/>
     <use xlink:href="#Montserrat-Regular-65" x="882.399872"/>
     <use xlink:href="#Montserrat-Regular-6c" x="942.799866"/>
     <use xlink:href="#Montserrat-Regular-65" x="969.69986"/>
     <use xlink:href="#Montserrat-Regular-73" x="1030.099854"/>
     <use xlink:href="#Montserrat-Regular-73" x="1078.899841"/>
    </g>
   </g>
  </g>
  <g id="text_23">
   <!-- CA-Humboldt County -->
   <g transform="translate(150.443438 13.944375) scale(0.12 -0.12)">
    <defs>
     <path id="Montserrat-Regular-43" d="M 2675 -38 
Q 2170 -38 1741 131 
Q 1312 301 998 608 
Q 685 915 509 1331 
Q 333 1747 333 2240 
Q 333 2733 509 3149 
Q 685 3565 1001 3872 
Q 1318 4179 1747 4348 
Q 2176 4518 2682 4518 
Q 3168 4518 3597 4355 
Q 4026 4192 4320 3866 
L 4019 3565 
Q 3744 3846 3411 3971 
Q 3078 4096 2694 4096 
Q 2291 4096 1945 3958 
Q 1600 3821 1344 3568 
Q 1088 3315 944 2979 
Q 800 2643 800 2240 
Q 800 1837 944 1501 
Q 1088 1165 1344 912 
Q 1600 659 1945 521 
Q 2291 384 2694 384 
Q 3078 384 3411 512 
Q 3744 640 4019 922 
L 4320 621 
Q 4026 294 3597 128 
Q 3168 -38 2675 -38 
z
" transform="scale(0.015625)"/>
     <path id="Montserrat-Regular-2d" d="M 384 1536 
L 384 1933 
L 2061 1933 
L 2061 1536 
L 384 1536 
z
" transform="scale(0.015625)"/>
     <path id="Montserrat-Regular-48" d="M 4006 4480 
L 4474 4480 
L 4474 0 
L 4006 0 
L 4006 4480 
z
M 1203 0 
L 730 0 
L 730 4480 
L 1203 4480 
L 1203 0 
z
M 4051 2067 
L 1152 2067 
L 1152 2483 
L 4051 2483 
L 4051 2067 
z
" transform="scale(0.015625)"/>
     <path id="Montserrat-Regular-79" d="M 659 -1274 
Q 422 -1274 208 -1197 
Q -6 -1120 -160 -966 
L 51 -627 
Q 179 -749 329 -816 
Q 480 -883 666 -883 
Q 890 -883 1053 -758 
Q 1216 -634 1363 -320 
L 1581 173 
L 1632 243 
L 3014 3360 
L 3462 3360 
L 1779 -403 
Q 1638 -730 1468 -922 
Q 1299 -1114 1100 -1194 
Q 902 -1274 659 -1274 
z
M 1555 -96 
L 6 3360 
L 480 3360 
L 1850 275 
L 1555 -96 
z
" transform="scale(0.015625)"/>
    </defs>
    <use xlink:href="#Montserrat-Regular-43"/>
    <use xlink:href="#Montserrat-Regular-41" x="71.899994"/>
    <use xlink:href="#Montserrat-Regular-2d" x="143.599976"/>
    <use xlink:href="#Montserrat-Regular-48" x="181.799973"/>
    <use xlink:href="#Montserrat-Regular-75" x="263.09996"/>
    <use xlink:href="#Montserrat-Regular-6d" x="330.299957"/>
    <use xlink:href="#Montserrat-Regular-62" x="436.399948"/>
    <use xlink:href="#Montserrat-Regular-6f" x="504.199936"/>
    <use xlink:href="#Montserrat-Regular-6c" x="566.899933"/>
    <use xlink:href="#Montserrat-Regular-64" x="593.799927"/>
    <use xlink:href="#Montserrat-Regular-74" x="661.599915"/>
    <use xlink:href="#Montserrat-Regular-20" x="702.199905"/>
    <use xlink:href="#Montserrat-Regular-43" x="728.399902"/>
    <use xlink:href="#Montserrat-Regular-6f" x="800.299896"/>
    <use xlink:href="#Montserrat-Regular-75" x="862.999893"/>
    <use xlink:href="#Montserrat-Regular-6e" x="930.19989"/>
    <use xlink:href="#Montserrat-Regular-74" x="997.799881"/>
    <use xlink:href="#Montserrat-Regular-79" x="1038.399872"/>
   </g>
  </g>
  <g id="text_24">
   <g id="patch_7">
    <a xlink:href="https://dynomight.net">
     <path d="M 354.56 253.93875 
L 425.17125 253.93875 
L 425.17125 238.14125 
L 354.56 238.14125 
z
" style="fill: #1f77b4; opacity: 0.01; stroke: #000000; stroke-linejoin: miter"/>
    </a>
   </g>
   <a xlink:href="https://dynomight.net">
    <!-- dynomight.net -->
    <g style="fill: #808080; opacity: 0.5" transform="translate(358.56 248.22) scale(0.08 -0.08)">
     <defs>
      <path id="DejaVuSansMono-64" d="M 2681 3053 
L 2681 4863 
L 3256 4863 
L 3256 0 
L 2681 0 
L 2681 441 
Q 2538 181 2298 45 
Q 2059 -91 1747 -91 
Q 1113 -91 748 401 
Q 384 894 384 1759 
Q 384 2613 750 3098 
Q 1116 3584 1747 3584 
Q 2063 3584 2303 3448 
Q 2544 3313 2681 3053 
z
M 991 1747 
Q 991 1078 1203 737 
Q 1416 397 1831 397 
Q 2247 397 2464 740 
Q 2681 1084 2681 1747 
Q 2681 2413 2464 2755 
Q 2247 3097 1831 3097 
Q 1416 3097 1203 2756 
Q 991 2416 991 1747 
z
" transform="scale(0.015625)"/>
      <path id="DejaVuSansMono-79" d="M 2681 1125 
Q 2538 759 2316 163 
Q 2006 -663 1900 -844 
Q 1756 -1088 1540 -1209 
Q 1325 -1331 1038 -1331 
L 575 -1331 
L 575 -850 
L 916 -850 
Q 1169 -850 1312 -703 
Q 1456 -556 1678 56 
L 325 3500 
L 934 3500 
L 1972 763 
L 2994 3500 
L 3603 3500 
L 2681 1125 
z
" transform="scale(0.015625)"/>
      <path id="DejaVuSansMono-6e" d="M 3284 2169 
L 3284 0 
L 2706 0 
L 2706 2169 
Q 2706 2641 2540 2862 
Q 2375 3084 2022 3084 
Q 1619 3084 1401 2798 
Q 1184 2513 1184 1978 
L 1184 0 
L 609 0 
L 609 3500 
L 1184 3500 
L 1184 2975 
Q 1338 3275 1600 3429 
Q 1863 3584 2222 3584 
Q 2756 3584 3020 3232 
Q 3284 2881 3284 2169 
z
" transform="scale(0.015625)"/>
      <path id="DejaVuSansMono-6f" d="M 1925 3097 
Q 1488 3097 1263 2756 
Q 1038 2416 1038 1747 
Q 1038 1081 1263 739 
Q 1488 397 1925 397 
Q 2366 397 2591 739 
Q 2816 1081 2816 1747 
Q 2816 2416 2591 2756 
Q 2366 3097 1925 3097 
z
M 1925 3584 
Q 2653 3584 3039 3112 
Q 3425 2641 3425 1747 
Q 3425 850 3040 379 
Q 2656 -91 1925 -91 
Q 1197 -91 812 379 
Q 428 850 428 1747 
Q 428 2641 812 3112 
Q 1197 3584 1925 3584 
z
" transform="scale(0.015625)"/>
      <path id="DejaVuSansMono-6d" d="M 2113 3144 
Q 2219 3369 2383 3476 
Q 2547 3584 2778 3584 
Q 3200 3584 3373 3257 
Q 3547 2931 3547 2028 
L 3547 0 
L 3022 0 
L 3022 2003 
Q 3022 2744 2939 2923 
Q 2856 3103 2638 3103 
Q 2388 3103 2295 2911 
Q 2203 2719 2203 2003 
L 2203 0 
L 1678 0 
L 1678 2003 
Q 1678 2753 1589 2928 
Q 1500 3103 1269 3103 
Q 1041 3103 952 2911 
Q 863 2719 863 2003 
L 863 0 
L 341 0 
L 341 3500 
L 863 3500 
L 863 3200 
Q 966 3388 1120 3486 
Q 1275 3584 1472 3584 
Q 1709 3584 1867 3475 
Q 2025 3366 2113 3144 
z
" transform="scale(0.015625)"/>
      <path id="DejaVuSansMono-69" d="M 800 3500 
L 2272 3500 
L 2272 447 
L 3413 447 
L 3413 0 
L 556 0 
L 556 447 
L 1697 447 
L 1697 3053 
L 800 3053 
L 800 3500 
z
M 1697 4863 
L 2272 4863 
L 2272 4134 
L 1697 4134 
L 1697 4863 
z
" transform="scale(0.015625)"/>
      <path id="DejaVuSansMono-67" d="M 2681 1778 
Q 2681 2425 2470 2761 
Q 2259 3097 1856 3097 
Q 1434 3097 1212 2761 
Q 991 2425 991 1778 
Q 991 1131 1214 792 
Q 1438 453 1863 453 
Q 2259 453 2470 793 
Q 2681 1134 2681 1778 
z
M 3256 225 
Q 3256 -563 2884 -969 
Q 2513 -1375 1791 -1375 
Q 1553 -1375 1293 -1331 
Q 1034 -1288 775 -1203 
L 775 -634 
Q 1081 -778 1331 -847 
Q 1581 -916 1791 -916 
Q 2256 -916 2468 -662 
Q 2681 -409 2681 141 
L 2681 166 
L 2681 556 
Q 2544 263 2306 119 
Q 2069 -25 1728 -25 
Q 1116 -25 750 465 
Q 384 956 384 1778 
Q 384 2603 750 3093 
Q 1116 3584 1728 3584 
Q 2066 3584 2300 3450 
Q 2534 3316 2681 3034 
L 2681 3488 
L 3256 3488 
L 3256 225 
z
" transform="scale(0.015625)"/>
      <path id="DejaVuSansMono-68" d="M 3284 2169 
L 3284 0 
L 2706 0 
L 2706 2169 
Q 2706 2641 2540 2862 
Q 2375 3084 2022 3084 
Q 1619 3084 1401 2798 
Q 1184 2513 1184 1978 
L 1184 0 
L 609 0 
L 609 4863 
L 1184 4863 
L 1184 2975 
Q 1338 3275 1600 3429 
Q 1863 3584 2222 3584 
Q 2756 3584 3020 3232 
Q 3284 2881 3284 2169 
z
" transform="scale(0.015625)"/>
      <path id="DejaVuSansMono-74" d="M 1919 4494 
L 1919 3500 
L 3225 3500 
L 3225 3053 
L 1919 3053 
L 1919 1153 
Q 1919 766 2066 612 
Q 2213 459 2578 459 
L 3225 459 
L 3225 0 
L 2522 0 
Q 1875 0 1609 259 
Q 1344 519 1344 1153 
L 1344 3053 
L 409 3053 
L 409 3500 
L 1344 3500 
L 1344 4494 
L 1919 4494 
z
" transform="scale(0.015625)"/>
      <path id="DejaVuSansMono-2e" d="M 1528 953 
L 2316 953 
L 2316 0 
L 1528 0 
L 1528 953 
z
" transform="scale(0.015625)"/>
      <path id="DejaVuSansMono-65" d="M 3475 1894 
L 3475 1613 
L 984 1613 
L 984 1594 
Q 984 1022 1282 709 
Q 1581 397 2125 397 
Q 2400 397 2700 484 
Q 3000 572 3341 750 
L 3341 178 
Q 3013 44 2708 -23 
Q 2403 -91 2119 -91 
Q 1303 -91 843 398 
Q 384 888 384 1747 
Q 384 2584 834 3084 
Q 1284 3584 2034 3584 
Q 2703 3584 3089 3131 
Q 3475 2678 3475 1894 
z
M 2900 2063 
Q 2888 2569 2661 2833 
Q 2434 3097 2009 3097 
Q 1594 3097 1325 2822 
Q 1056 2547 1006 2059 
L 2900 2063 
z
" transform="scale(0.015625)"/>
     </defs>
     <use xlink:href="#DejaVuSansMono-64"/>
     <use xlink:href="#DejaVuSansMono-79" x="60.205078"/>
     <use xlink:href="#DejaVuSansMono-6e" x="120.410156"/>
     <use xlink:href="#DejaVuSansMono-6f" x="180.615234"/>
     <use xlink:href="#DejaVuSansMono-6d" x="240.820312"/>
     <use xlink:href="#DejaVuSansMono-69" x="301.025391"/>
     <use xlink:href="#DejaVuSansMono-67" x="361.230469"/>
     <use xlink:href="#DejaVuSansMono-68" x="421.435547"/>
     <use xlink:href="#DejaVuSansMono-74" x="481.640625"/>
     <use xlink:href="#DejaVuSansMono-2e" x="541.845703"/>
     <use xlink:href="#DejaVuSansMono-6e" x="602.050781"/>
     <use xlink:href="#DejaVuSansMono-65" x="662.255859"/>
     <use xlink:href="#DejaVuSansMono-74" x="722.460938"/>
    </g>
   </a>
  </g>
 </g>
 <defs>
  <clipPath id="pc200cf595b">
   <rect x="54.605" y="48.12" width="174.240468" height="176.72"/>
  </clipPath>
  <clipPath id="pf5b5225a46">
   <rect x="246.959532" y="48.12" width="174.240468" height="176.72"/>
  </clipPath>
 </defs>
</svg>
