<?xml version="1.0" encoding="utf-8" standalone="no"?>
<!DOCTYPE svg PUBLIC "-//W3C//DTD SVG 1.1//EN"
  "http://www.w3.org/Graphics/SVG/1.1/DTD/svg11.dtd">
<svg xmlns:xlink="http://www.w3.org/1999/xlink" width="432pt" height="252pt" viewBox="0 0 432 252" xmlns="http://www.w3.org/2000/svg" version="1.1">
 <metadata>
  <rdf:RDF xmlns:dc="http://purl.org/dc/elements/1.1/" xmlns:cc="http://creativecommons.org/ns#" xmlns:rdf="http://www.w3.org/1999/02/22-rdf-syntax-ns#">
   <cc:Work>
    <dc:type rdf:resource="http://purl.org/dc/dcmitype/StillImage"/>
    <dc:date>2024-07-17T10:53:15.150451</dc:date>
    <dc:format>image/svg+xml</dc:format>
    <dc:creator>
     <cc:Agent>
      <dc:title>Matplotlib v3.8.4, https://matplotlib.org/</dc:title>
     </cc:Agent>
    </dc:creator>
   </cc:Work>
  </rdf:RDF>
 </metadata>
 <defs>
  <style type="text/css">*{stroke-linejoin: round; stroke-linecap: butt}</style>
 </defs>
 <g id="figure_1">
  <g id="patch_1">
   <path d="M 0 252 
L 432 252 
L 432 0 
L 0 0 
z
" style="fill: #ffffff"/>
  </g>
  <g id="axes_1">
   <g id="patch_2">
    <path d="M 57.62 224.84 
L 230.352968 224.84 
L 230.352968 48.12 
L 57.62 48.12 
z
" style="fill: #ffffff"/>
   </g>
   <g id="matplotlib.axis_1">
    <g id="xtick_1">
     <g id="line2d_1">
      <defs>
       <path id="m746dd44fce" d="M 0 0 
L 0 3.5 
" style="stroke: #000000; stroke-width: 0.8"/>
      </defs>
      <g>
       <use xlink:href="#m746dd44fce" x="93.18267" y="224.84" style="stroke: #000000; stroke-width: 0.8"/>
      </g>
     </g>
     <g id="text_1">
      <!-- 2010 -->
      <g transform="translate(81.917826 239.260312) scale(0.1 -0.1)">
       <defs>
        <path id="Montserrat-Regular-32" d="M 250 0 
L 250 326 
L 2112 2150 
Q 2368 2400 2496 2589 
Q 2624 2778 2669 2944 
Q 2714 3110 2714 3258 
Q 2714 3648 2448 3872 
Q 2182 4096 1664 4096 
Q 1267 4096 963 3974 
Q 659 3853 442 3597 
L 115 3878 
Q 378 4186 787 4352 
Q 1197 4518 1702 4518 
Q 2157 4518 2489 4374 
Q 2822 4230 3004 3955 
Q 3187 3680 3187 3309 
Q 3187 3091 3126 2880 
Q 3066 2669 2909 2435 
Q 2752 2202 2451 1907 
L 742 230 
L 614 410 
L 3392 410 
L 3392 0 
L 250 0 
z
" transform="scale(0.015625)"/>
        <path id="Montserrat-Regular-30" d="M 2118 -38 
Q 1600 -38 1197 234 
Q 794 506 563 1014 
Q 333 1523 333 2240 
Q 333 2957 563 3465 
Q 794 3974 1197 4246 
Q 1600 4518 2118 4518 
Q 2637 4518 3040 4246 
Q 3443 3974 3676 3465 
Q 3910 2957 3910 2240 
Q 3910 1523 3676 1014 
Q 3443 506 3040 234 
Q 2637 -38 2118 -38 
z
M 2118 384 
Q 2515 384 2809 598 
Q 3104 813 3270 1225 
Q 3437 1638 3437 2240 
Q 3437 2842 3270 3254 
Q 3104 3667 2809 3881 
Q 2515 4096 2118 4096 
Q 1734 4096 1433 3881 
Q 1133 3667 966 3254 
Q 800 2842 800 2240 
Q 800 1638 966 1225 
Q 1133 813 1433 598 
Q 1734 384 2118 384 
z
" transform="scale(0.015625)"/>
        <path id="Montserrat-Regular-31" d="M 1114 0 
L 1114 4288 
L 1318 4070 
L 58 4070 
L 58 4480 
L 1574 4480 
L 1574 0 
L 1114 0 
z
" transform="scale(0.015625)"/>
       </defs>
       <use xlink:href="#Montserrat-Regular-32"/>
       <use xlink:href="#Montserrat-Regular-30" x="56.799988"/>
       <use xlink:href="#Montserrat-Regular-31" x="122.999985"/>
       <use xlink:href="#Montserrat-Regular-30" x="159.099976"/>
      </g>
     </g>
    </g>
    <g id="xtick_2">
     <g id="line2d_2">
      <g>
       <use xlink:href="#m746dd44fce" x="143.986484" y="224.84" style="stroke: #000000; stroke-width: 0.8"/>
      </g>
     </g>
     <g id="text_2">
      <!-- 2015 -->
      <g transform="translate(133.202109 239.260312) scale(0.1 -0.1)">
       <defs>
        <path id="Montserrat-Regular-35" d="M 1747 -38 
Q 1267 -38 832 118 
Q 397 275 141 538 
L 365 902 
Q 576 678 944 531 
Q 1312 384 1741 384 
Q 2310 384 2608 637 
Q 2906 890 2906 1299 
Q 2906 1587 2768 1795 
Q 2630 2003 2304 2118 
Q 1978 2234 1408 2234 
L 454 2234 
L 685 4480 
L 3136 4480 
L 3136 4070 
L 870 4070 
L 1107 4294 
L 909 2413 
L 672 2643 
L 1510 2643 
Q 2189 2643 2598 2476 
Q 3008 2310 3190 2012 
Q 3373 1715 3373 1318 
Q 3373 941 3193 630 
Q 3014 320 2656 141 
Q 2298 -38 1747 -38 
z
" transform="scale(0.015625)"/>
       </defs>
       <use xlink:href="#Montserrat-Regular-32"/>
       <use xlink:href="#Montserrat-Regular-30" x="56.799988"/>
       <use xlink:href="#Montserrat-Regular-31" x="122.999985"/>
       <use xlink:href="#Montserrat-Regular-35" x="159.099976"/>
      </g>
     </g>
    </g>
    <g id="xtick_3">
     <g id="line2d_3">
      <g>
       <use xlink:href="#m746dd44fce" x="194.790298" y="224.84" style="stroke: #000000; stroke-width: 0.8"/>
      </g>
     </g>
     <g id="text_3">
      <!-- 2020 -->
      <g transform="translate(182.490298 239.260312) scale(0.1 -0.1)">
       <use xlink:href="#Montserrat-Regular-32"/>
       <use xlink:href="#Montserrat-Regular-30" x="56.799988"/>
       <use xlink:href="#Montserrat-Regular-32" x="122.999985"/>
       <use xlink:href="#Montserrat-Regular-30" x="179.799973"/>
      </g>
     </g>
    </g>
    <g id="xtick_4">
     <g id="line2d_4">
      <g>
       <use xlink:href="#m746dd44fce" x="225.272587" y="224.84" style="stroke: #000000; stroke-width: 0.8"/>
      </g>
     </g>
     <g id="text_4">
      <!-- 2023 -->
      <g transform="translate(213.46243 239.260312) scale(0.1 -0.1)">
       <defs>
        <path id="Montserrat-Regular-33" d="M 1670 -38 
Q 1184 -38 752 118 
Q 320 275 58 538 
L 282 902 
Q 499 678 867 531 
Q 1235 384 1670 384 
Q 2227 384 2524 627 
Q 2822 870 2822 1280 
Q 2822 1690 2531 1933 
Q 2240 2176 1613 2176 
L 1293 2176 
L 1293 2515 
L 2675 4250 
L 2739 4070 
L 243 4070 
L 243 4480 
L 3123 4480 
L 3123 4154 
L 1741 2419 
L 1517 2566 
L 1690 2566 
Q 2496 2566 2896 2208 
Q 3296 1850 3296 1286 
Q 3296 909 3117 608 
Q 2938 307 2576 134 
Q 2214 -38 1670 -38 
z
" transform="scale(0.015625)"/>
       </defs>
       <use xlink:href="#Montserrat-Regular-32"/>
       <use xlink:href="#Montserrat-Regular-30" x="56.799988"/>
       <use xlink:href="#Montserrat-Regular-32" x="122.999985"/>
       <use xlink:href="#Montserrat-Regular-33" x="179.799973"/>
      </g>
     </g>
    </g>
   </g>
   <g id="matplotlib.axis_2">
    <g id="ytick_1">
     <g id="text_5">
      <!-- 0 -->
      <g transform="translate(43.999688 228.550156) scale(0.1 -0.1)">
       <use xlink:href="#Montserrat-Regular-30"/>
      </g>
     </g>
    </g>
    <g id="ytick_2">
     <g id="text_6">
      <!-- 1000 -->
      <g transform="translate(27.149688 195.149727) scale(0.1 -0.1)">
       <use xlink:href="#Montserrat-Regular-31"/>
       <use xlink:href="#Montserrat-Regular-30" x="36.099991"/>
       <use xlink:href="#Montserrat-Regular-30" x="102.299988"/>
       <use xlink:href="#Montserrat-Regular-30" x="168.499985"/>
      </g>
     </g>
    </g>
    <g id="ytick_3">
     <g id="text_7">
      <!-- 2000 -->
      <g transform="translate(25.079375 161.749298) scale(0.1 -0.1)">
       <use xlink:href="#Montserrat-Regular-32"/>
       <use xlink:href="#Montserrat-Regular-30" x="56.799988"/>
       <use xlink:href="#Montserrat-Regular-30" x="122.999985"/>
       <use xlink:href="#Montserrat-Regular-30" x="189.199982"/>
      </g>
     </g>
    </g>
    <g id="ytick_4">
     <g id="text_8">
      <!-- 3000 -->
      <g transform="translate(25.118438 128.348869) scale(0.1 -0.1)">
       <use xlink:href="#Montserrat-Regular-33"/>
       <use xlink:href="#Montserrat-Regular-30" x="56.399994"/>
       <use xlink:href="#Montserrat-Regular-30" x="122.599991"/>
       <use xlink:href="#Montserrat-Regular-30" x="188.799988"/>
      </g>
     </g>
    </g>
    <g id="ytick_5">
     <g id="text_9">
      <!-- 4000 -->
      <g transform="translate(24.149688 94.94844) scale(0.1 -0.1)">
       <defs>
        <path id="Montserrat-Regular-34" d="M 256 1178 
L 256 1510 
L 2630 4480 
L 3142 4480 
L 787 1510 
L 538 1587 
L 4141 1587 
L 4141 1178 
L 256 1178 
z
M 2784 0 
L 2784 1178 
L 2797 1587 
L 2797 2624 
L 3245 2624 
L 3245 0 
L 2784 0 
z
" transform="scale(0.015625)"/>
       </defs>
       <use xlink:href="#Montserrat-Regular-34"/>
       <use xlink:href="#Montserrat-Regular-30" x="66.099991"/>
       <use xlink:href="#Montserrat-Regular-30" x="132.299988"/>
       <use xlink:href="#Montserrat-Regular-30" x="198.499985"/>
      </g>
     </g>
    </g>
    <g id="ytick_6">
     <g id="text_10">
      <!-- 5000 -->
      <g transform="translate(25.099688 61.548011) scale(0.1 -0.1)">
       <use xlink:href="#Montserrat-Regular-35"/>
       <use xlink:href="#Montserrat-Regular-30" x="56.599991"/>
       <use xlink:href="#Montserrat-Regular-30" x="122.799988"/>
       <use xlink:href="#Montserrat-Regular-30" x="188.999985"/>
      </g>
     </g>
    </g>
    <g id="text_11">
     <!-- Number of people -->
     <g transform="translate(18.209063 182.376094) rotate(-90) scale(0.1 -0.1)">
      <defs>
       <path id="Montserrat-Regular-4e" d="M 730 0 
L 730 4480 
L 1120 4480 
L 4211 589 
L 4006 589 
L 4006 4480 
L 4474 4480 
L 4474 0 
L 4083 0 
L 998 3891 
L 1203 3891 
L 1203 0 
L 730 0 
z
" transform="scale(0.015625)"/>
       <path id="Montserrat-Regular-75" d="M 2022 -32 
Q 1594 -32 1274 128 
Q 954 288 778 608 
Q 602 928 602 1408 
L 602 3360 
L 1056 3360 
L 1056 1459 
Q 1056 922 1321 650 
Q 1587 378 2067 378 
Q 2419 378 2678 522 
Q 2938 666 3075 941 
Q 3213 1216 3213 1600 
L 3213 3360 
L 3667 3360 
L 3667 0 
L 3232 0 
L 3232 922 
L 3302 755 
Q 3142 384 2806 176 
Q 2470 -32 2022 -32 
z
" transform="scale(0.015625)"/>
       <path id="Montserrat-Regular-6d" d="M 4832 3392 
Q 5242 3392 5546 3235 
Q 5850 3078 6019 2758 
Q 6189 2438 6189 1952 
L 6189 0 
L 5734 0 
L 5734 1907 
Q 5734 2438 5481 2710 
Q 5229 2982 4768 2982 
Q 4422 2982 4169 2838 
Q 3917 2694 3779 2422 
Q 3642 2150 3642 1766 
L 3642 0 
L 3187 0 
L 3187 1907 
Q 3187 2438 2931 2710 
Q 2675 2982 2214 2982 
Q 1875 2982 1619 2838 
Q 1363 2694 1225 2422 
Q 1088 2150 1088 1766 
L 1088 0 
L 634 0 
L 634 3360 
L 1069 3360 
L 1069 2451 
L 998 2611 
Q 1152 2976 1494 3184 
Q 1837 3392 2304 3392 
Q 2797 3392 3142 3145 
Q 3488 2899 3590 2406 
L 3411 2477 
Q 3558 2886 3932 3139 
Q 4307 3392 4832 3392 
z
" transform="scale(0.015625)"/>
       <path id="Montserrat-Regular-62" d="M 2368 -32 
Q 1926 -32 1574 169 
Q 1222 371 1017 755 
Q 813 1139 813 1683 
Q 813 2234 1021 2614 
Q 1229 2995 1581 3193 
Q 1933 3392 2368 3392 
Q 2848 3392 3229 3177 
Q 3610 2963 3827 2579 
Q 4045 2195 4045 1683 
Q 4045 1178 3827 790 
Q 3610 403 3229 185 
Q 2848 -32 2368 -32 
z
M 634 0 
L 634 4749 
L 1088 4749 
L 1088 2368 
L 1024 1690 
L 1069 1011 
L 1069 0 
L 634 0 
z
M 2336 371 
Q 2694 371 2976 534 
Q 3258 698 3424 995 
Q 3590 1293 3590 1683 
Q 3590 2080 3424 2374 
Q 3258 2669 2976 2832 
Q 2694 2995 2336 2995 
Q 1978 2995 1693 2832 
Q 1408 2669 1245 2374 
Q 1082 2080 1082 1683 
Q 1082 1293 1245 995 
Q 1408 698 1693 534 
Q 1978 371 2336 371 
z
" transform="scale(0.015625)"/>
       <path id="Montserrat-Regular-65" d="M 2061 -32 
Q 1536 -32 1139 189 
Q 742 410 518 797 
Q 294 1184 294 1683 
Q 294 2182 508 2566 
Q 723 2950 1097 3171 
Q 1472 3392 1939 3392 
Q 2413 3392 2781 3177 
Q 3149 2963 3360 2576 
Q 3571 2189 3571 1683 
Q 3571 1651 3568 1616 
Q 3565 1581 3565 1542 
L 640 1542 
L 640 1882 
L 3322 1882 
L 3142 1747 
Q 3142 2112 2985 2397 
Q 2829 2682 2560 2842 
Q 2291 3002 1939 3002 
Q 1594 3002 1318 2842 
Q 1043 2682 889 2394 
Q 736 2106 736 1734 
L 736 1664 
Q 736 1280 905 989 
Q 1075 698 1379 534 
Q 1683 371 2074 371 
Q 2381 371 2646 480 
Q 2912 589 3104 813 
L 3360 518 
Q 3136 250 2800 109 
Q 2464 -32 2061 -32 
z
" transform="scale(0.015625)"/>
       <path id="Montserrat-Regular-72" d="M 634 0 
L 634 3360 
L 1069 3360 
L 1069 2445 
L 1024 2605 
Q 1165 2989 1497 3190 
Q 1830 3392 2323 3392 
L 2323 2950 
Q 2298 2950 2272 2953 
Q 2246 2957 2221 2957 
Q 1690 2957 1389 2633 
Q 1088 2310 1088 1715 
L 1088 0 
L 634 0 
z
" transform="scale(0.015625)"/>
       <path id="Montserrat-Regular-20" transform="scale(0.015625)"/>
       <path id="Montserrat-Regular-6f" d="M 2003 -32 
Q 1517 -32 1129 189 
Q 742 410 518 797 
Q 294 1184 294 1683 
Q 294 2189 518 2573 
Q 742 2957 1126 3174 
Q 1510 3392 2003 3392 
Q 2502 3392 2889 3174 
Q 3277 2957 3497 2573 
Q 3718 2189 3718 1683 
Q 3718 1184 3497 797 
Q 3277 410 2886 189 
Q 2496 -32 2003 -32 
z
M 2003 371 
Q 2368 371 2649 534 
Q 2931 698 3094 995 
Q 3258 1293 3258 1683 
Q 3258 2080 3094 2374 
Q 2931 2669 2649 2832 
Q 2368 2995 2010 2995 
Q 1651 2995 1369 2832 
Q 1088 2669 921 2374 
Q 755 2080 755 1683 
Q 755 1293 921 995 
Q 1088 698 1369 534 
Q 1651 371 2003 371 
z
" transform="scale(0.015625)"/>
       <path id="Montserrat-Regular-66" d="M 710 0 
L 710 3782 
Q 710 4230 972 4505 
Q 1235 4781 1728 4781 
Q 1920 4781 2099 4729 
Q 2278 4678 2400 4570 
L 2246 4230 
Q 2150 4314 2022 4355 
Q 1894 4397 1747 4397 
Q 1459 4397 1305 4237 
Q 1152 4077 1152 3763 
L 1152 3251 
L 1165 3040 
L 1165 0 
L 710 0 
z
M 109 2982 
L 109 3360 
L 2189 3360 
L 2189 2982 
L 109 2982 
z
" transform="scale(0.015625)"/>
       <path id="Montserrat-Regular-70" d="M 2368 -32 
Q 1933 -32 1581 169 
Q 1229 371 1021 752 
Q 813 1133 813 1683 
Q 813 2234 1017 2614 
Q 1222 2995 1574 3193 
Q 1926 3392 2368 3392 
Q 2848 3392 3229 3177 
Q 3610 2963 3827 2576 
Q 4045 2189 4045 1683 
Q 4045 1171 3827 787 
Q 3610 403 3229 185 
Q 2848 -32 2368 -32 
z
M 634 -1242 
L 634 3360 
L 1069 3360 
L 1069 2349 
L 1024 1677 
L 1088 998 
L 1088 -1242 
L 634 -1242 
z
M 2336 371 
Q 2694 371 2976 534 
Q 3258 698 3424 995 
Q 3590 1293 3590 1683 
Q 3590 2074 3424 2368 
Q 3258 2662 2976 2828 
Q 2694 2995 2336 2995 
Q 1978 2995 1693 2828 
Q 1408 2662 1245 2368 
Q 1082 2074 1082 1683 
Q 1082 1293 1245 995 
Q 1408 698 1693 534 
Q 1978 371 2336 371 
z
" transform="scale(0.015625)"/>
       <path id="Montserrat-Regular-6c" d="M 634 0 
L 634 4749 
L 1088 4749 
L 1088 0 
L 634 0 
z
" transform="scale(0.015625)"/>
      </defs>
      <use xlink:href="#Montserrat-Regular-4e"/>
      <use xlink:href="#Montserrat-Regular-75" x="81.299988"/>
      <use xlink:href="#Montserrat-Regular-6d" x="148.499985"/>
      <use xlink:href="#Montserrat-Regular-62" x="254.599976"/>
      <use xlink:href="#Montserrat-Regular-65" x="322.399963"/>
      <use xlink:href="#Montserrat-Regular-72" x="382.799957"/>
      <use xlink:href="#Montserrat-Regular-20" x="422.899948"/>
      <use xlink:href="#Montserrat-Regular-6f" x="449.099945"/>
      <use xlink:href="#Montserrat-Regular-66" x="511.799942"/>
      <use xlink:href="#Montserrat-Regular-20" x="545.699936"/>
      <use xlink:href="#Montserrat-Regular-70" x="571.899933"/>
      <use xlink:href="#Montserrat-Regular-65" x="639.699921"/>
      <use xlink:href="#Montserrat-Regular-6f" x="700.099915"/>
      <use xlink:href="#Montserrat-Regular-70" x="762.799911"/>
      <use xlink:href="#Montserrat-Regular-6c" x="830.599899"/>
      <use xlink:href="#Montserrat-Regular-65" x="857.499893"/>
     </g>
    </g>
   </g>
   <g id="line2d_5">
    <path d="M 62.700381 131.185197 
L 72.861144 81.58556 
L 83.021907 165.387236 
L 93.18267 157.805339 
L 103.343433 148.252816 
L 113.504196 156.870127 
L 123.664958 151.392457 
L 133.825721 146.549394 
L 143.986484 149.956238 
L 154.147247 162.748602 
L 164.30801 157.170731 
L 174.468772 162.782003 
L 184.629535 155.901514 
L 194.790298 179.883023 
L 215.111824 185.728098 
L 225.272587 176.54298 
" clip-path="url(#pa09b98303b)" style="fill: none; stroke: #8d8d8d; stroke-opacity: 0.9; stroke-width: 1.5; stroke-linecap: square"/>
    <defs>
     <path id="mb300369352" d="M 0 0.75 
C 0.198902 0.75 0.389685 0.670975 0.53033 0.53033 
C 0.670975 0.389685 0.75 0.198902 0.75 0 
C 0.75 -0.198902 0.670975 -0.389685 0.53033 -0.53033 
C 0.389685 -0.670975 0.198902 -0.75 0 -0.75 
C -0.198902 -0.75 -0.389685 -0.670975 -0.53033 -0.53033 
C -0.670975 -0.389685 -0.75 -0.198902 -0.75 0 
C -0.75 0.198902 -0.670975 0.389685 -0.53033 0.53033 
C -0.389685 0.670975 -0.198902 0.75 0 0.75 
z
" style="stroke: #8d8d8d; stroke-opacity: 0.9"/>
    </defs>
    <g clip-path="url(#pa09b98303b)">
     <use xlink:href="#mb300369352" x="62.700381" y="131.185197" style="fill: #8d8d8d; fill-opacity: 0.9; stroke: #8d8d8d; stroke-opacity: 0.9"/>
     <use xlink:href="#mb300369352" x="72.861144" y="81.58556" style="fill: #8d8d8d; fill-opacity: 0.9; stroke: #8d8d8d; stroke-opacity: 0.9"/>
     <use xlink:href="#mb300369352" x="83.021907" y="165.387236" style="fill: #8d8d8d; fill-opacity: 0.9; stroke: #8d8d8d; stroke-opacity: 0.9"/>
     <use xlink:href="#mb300369352" x="93.18267" y="157.805339" style="fill: #8d8d8d; fill-opacity: 0.9; stroke: #8d8d8d; stroke-opacity: 0.9"/>
     <use xlink:href="#mb300369352" x="103.343433" y="148.252816" style="fill: #8d8d8d; fill-opacity: 0.9; stroke: #8d8d8d; stroke-opacity: 0.9"/>
     <use xlink:href="#mb300369352" x="113.504196" y="156.870127" style="fill: #8d8d8d; fill-opacity: 0.9; stroke: #8d8d8d; stroke-opacity: 0.9"/>
     <use xlink:href="#mb300369352" x="123.664958" y="151.392457" style="fill: #8d8d8d; fill-opacity: 0.9; stroke: #8d8d8d; stroke-opacity: 0.9"/>
     <use xlink:href="#mb300369352" x="133.825721" y="146.549394" style="fill: #8d8d8d; fill-opacity: 0.9; stroke: #8d8d8d; stroke-opacity: 0.9"/>
     <use xlink:href="#mb300369352" x="143.986484" y="149.956238" style="fill: #8d8d8d; fill-opacity: 0.9; stroke: #8d8d8d; stroke-opacity: 0.9"/>
     <use xlink:href="#mb300369352" x="154.147247" y="162.748602" style="fill: #8d8d8d; fill-opacity: 0.9; stroke: #8d8d8d; stroke-opacity: 0.9"/>
     <use xlink:href="#mb300369352" x="164.30801" y="157.170731" style="fill: #8d8d8d; fill-opacity: 0.9; stroke: #8d8d8d; stroke-opacity: 0.9"/>
     <use xlink:href="#mb300369352" x="174.468772" y="162.782003" style="fill: #8d8d8d; fill-opacity: 0.9; stroke: #8d8d8d; stroke-opacity: 0.9"/>
     <use xlink:href="#mb300369352" x="184.629535" y="155.901514" style="fill: #8d8d8d; fill-opacity: 0.9; stroke: #8d8d8d; stroke-opacity: 0.9"/>
     <use xlink:href="#mb300369352" x="194.790298" y="179.883023" style="fill: #8d8d8d; fill-opacity: 0.9; stroke: #8d8d8d; stroke-opacity: 0.9"/>
     <use xlink:href="#mb300369352" x="215.111824" y="185.728098" style="fill: #8d8d8d; fill-opacity: 0.9; stroke: #8d8d8d; stroke-opacity: 0.9"/>
     <use xlink:href="#mb300369352" x="225.272587" y="176.54298" style="fill: #8d8d8d; fill-opacity: 0.9; stroke: #8d8d8d; stroke-opacity: 0.9"/>
    </g>
   </g>
   <g id="line2d_6">
    <path d="M 62.700381 217.224702 
L 72.861144 215.020274 
L 83.021907 217.658908 
L 93.18267 217.491906 
L 103.343433 218.427118 
L 113.504196 199.589276 
L 123.664958 217.725709 
L 133.825721 210.578017 
L 143.986484 220.364343 
L 154.147247 213.14985 
L 164.30801 223.470582 
L 174.468772 210.878621 
L 184.629535 217.792509 
L 194.790298 223.971589 
L 215.111824 222.802574 
L 225.272587 220.19734 
" clip-path="url(#pa09b98303b)" style="fill: none; stroke: #297fda; stroke-opacity: 0.9; stroke-width: 1.5; stroke-linecap: square"/>
    <defs>
     <path id="m37b45c58e4" d="M 0 0.75 
C 0.198902 0.75 0.389685 0.670975 0.53033 0.53033 
C 0.670975 0.389685 0.75 0.198902 0.75 0 
C 0.75 -0.198902 0.670975 -0.389685 0.53033 -0.53033 
C 0.389685 -0.670975 0.198902 -0.75 0 -0.75 
C -0.198902 -0.75 -0.389685 -0.670975 -0.53033 -0.53033 
C -0.670975 -0.389685 -0.75 -0.198902 -0.75 0 
C -0.75 0.198902 -0.670975 0.389685 -0.53033 0.53033 
C -0.389685 0.670975 -0.198902 0.75 0 0.75 
z
" style="stroke: #297fda; stroke-opacity: 0.9"/>
    </defs>
    <g clip-path="url(#pa09b98303b)">
     <use xlink:href="#m37b45c58e4" x="62.700381" y="217.224702" style="fill: #297fda; fill-opacity: 0.9; stroke: #297fda; stroke-opacity: 0.9"/>
     <use xlink:href="#m37b45c58e4" x="72.861144" y="215.020274" style="fill: #297fda; fill-opacity: 0.9; stroke: #297fda; stroke-opacity: 0.9"/>
     <use xlink:href="#m37b45c58e4" x="83.021907" y="217.658908" style="fill: #297fda; fill-opacity: 0.9; stroke: #297fda; stroke-opacity: 0.9"/>
     <use xlink:href="#m37b45c58e4" x="93.18267" y="217.491906" style="fill: #297fda; fill-opacity: 0.9; stroke: #297fda; stroke-opacity: 0.9"/>
     <use xlink:href="#m37b45c58e4" x="103.343433" y="218.427118" style="fill: #297fda; fill-opacity: 0.9; stroke: #297fda; stroke-opacity: 0.9"/>
     <use xlink:href="#m37b45c58e4" x="113.504196" y="199.589276" style="fill: #297fda; fill-opacity: 0.9; stroke: #297fda; stroke-opacity: 0.9"/>
     <use xlink:href="#m37b45c58e4" x="123.664958" y="217.725709" style="fill: #297fda; fill-opacity: 0.9; stroke: #297fda; stroke-opacity: 0.9"/>
     <use xlink:href="#m37b45c58e4" x="133.825721" y="210.578017" style="fill: #297fda; fill-opacity: 0.9; stroke: #297fda; stroke-opacity: 0.9"/>
     <use xlink:href="#m37b45c58e4" x="143.986484" y="220.364343" style="fill: #297fda; fill-opacity: 0.9; stroke: #297fda; stroke-opacity: 0.9"/>
     <use xlink:href="#m37b45c58e4" x="154.147247" y="213.14985" style="fill: #297fda; fill-opacity: 0.9; stroke: #297fda; stroke-opacity: 0.9"/>
     <use xlink:href="#m37b45c58e4" x="164.30801" y="223.470582" style="fill: #297fda; fill-opacity: 0.9; stroke: #297fda; stroke-opacity: 0.9"/>
     <use xlink:href="#m37b45c58e4" x="174.468772" y="210.878621" style="fill: #297fda; fill-opacity: 0.9; stroke: #297fda; stroke-opacity: 0.9"/>
     <use xlink:href="#m37b45c58e4" x="184.629535" y="217.792509" style="fill: #297fda; fill-opacity: 0.9; stroke: #297fda; stroke-opacity: 0.9"/>
     <use xlink:href="#m37b45c58e4" x="194.790298" y="223.971589" style="fill: #297fda; fill-opacity: 0.9; stroke: #297fda; stroke-opacity: 0.9"/>
     <use xlink:href="#m37b45c58e4" x="215.111824" y="222.802574" style="fill: #297fda; fill-opacity: 0.9; stroke: #297fda; stroke-opacity: 0.9"/>
     <use xlink:href="#m37b45c58e4" x="225.272587" y="220.19734" style="fill: #297fda; fill-opacity: 0.9; stroke: #297fda; stroke-opacity: 0.9"/>
    </g>
   </g>
   <g id="line2d_7">
    <path d="M 62.700381 216.322891 
L 72.861144 214.252064 
L 83.021907 212.648843 
L 93.18267 213.350252 
L 103.343433 211.513229 
L 113.504196 190.303956 
L 123.664958 209.776407 
L 133.825721 209.242 
L 143.986484 222.969576 
L 154.147247 211.513229 
L 164.30801 223.437182 
L 174.468772 208.607391 
L 184.629535 216.823897 
L 194.790298 224.773199 
L 215.111824 224.03839 
L 225.272587 223.236779 
" clip-path="url(#pa09b98303b)" style="fill: none; stroke: #ff8a46; stroke-opacity: 0.9; stroke-width: 1.5; stroke-linecap: square"/>
    <defs>
     <path id="m15a5a190e0" d="M 0 0.75 
C 0.198902 0.75 0.389685 0.670975 0.53033 0.53033 
C 0.670975 0.389685 0.75 0.198902 0.75 0 
C 0.75 -0.198902 0.670975 -0.389685 0.53033 -0.53033 
C 0.389685 -0.670975 0.198902 -0.75 0 -0.75 
C -0.198902 -0.75 -0.389685 -0.670975 -0.53033 -0.53033 
C -0.670975 -0.389685 -0.75 -0.198902 -0.75 0 
C -0.75 0.198902 -0.670975 0.389685 -0.53033 0.53033 
C -0.389685 0.670975 -0.198902 0.75 0 0.75 
z
" style="stroke: #ff8a46; stroke-opacity: 0.9"/>
    </defs>
    <g clip-path="url(#pa09b98303b)">
     <use xlink:href="#m15a5a190e0" x="62.700381" y="216.322891" style="fill: #ff8a46; fill-opacity: 0.9; stroke: #ff8a46; stroke-opacity: 0.9"/>
     <use xlink:href="#m15a5a190e0" x="72.861144" y="214.252064" style="fill: #ff8a46; fill-opacity: 0.9; stroke: #ff8a46; stroke-opacity: 0.9"/>
     <use xlink:href="#m15a5a190e0" x="83.021907" y="212.648843" style="fill: #ff8a46; fill-opacity: 0.9; stroke: #ff8a46; stroke-opacity: 0.9"/>
     <use xlink:href="#m15a5a190e0" x="93.18267" y="213.350252" style="fill: #ff8a46; fill-opacity: 0.9; stroke: #ff8a46; stroke-opacity: 0.9"/>
     <use xlink:href="#m15a5a190e0" x="103.343433" y="211.513229" style="fill: #ff8a46; fill-opacity: 0.9; stroke: #ff8a46; stroke-opacity: 0.9"/>
     <use xlink:href="#m15a5a190e0" x="113.504196" y="190.303956" style="fill: #ff8a46; fill-opacity: 0.9; stroke: #ff8a46; stroke-opacity: 0.9"/>
     <use xlink:href="#m15a5a190e0" x="123.664958" y="209.776407" style="fill: #ff8a46; fill-opacity: 0.9; stroke: #ff8a46; stroke-opacity: 0.9"/>
     <use xlink:href="#m15a5a190e0" x="133.825721" y="209.242" style="fill: #ff8a46; fill-opacity: 0.9; stroke: #ff8a46; stroke-opacity: 0.9"/>
     <use xlink:href="#m15a5a190e0" x="143.986484" y="222.969576" style="fill: #ff8a46; fill-opacity: 0.9; stroke: #ff8a46; stroke-opacity: 0.9"/>
     <use xlink:href="#m15a5a190e0" x="154.147247" y="211.513229" style="fill: #ff8a46; fill-opacity: 0.9; stroke: #ff8a46; stroke-opacity: 0.9"/>
     <use xlink:href="#m15a5a190e0" x="164.30801" y="223.437182" style="fill: #ff8a46; fill-opacity: 0.9; stroke: #ff8a46; stroke-opacity: 0.9"/>
     <use xlink:href="#m15a5a190e0" x="174.468772" y="208.607391" style="fill: #ff8a46; fill-opacity: 0.9; stroke: #ff8a46; stroke-opacity: 0.9"/>
     <use xlink:href="#m15a5a190e0" x="184.629535" y="216.823897" style="fill: #ff8a46; fill-opacity: 0.9; stroke: #ff8a46; stroke-opacity: 0.9"/>
     <use xlink:href="#m15a5a190e0" x="194.790298" y="224.773199" style="fill: #ff8a46; fill-opacity: 0.9; stroke: #ff8a46; stroke-opacity: 0.9"/>
     <use xlink:href="#m15a5a190e0" x="215.111824" y="224.03839" style="fill: #ff8a46; fill-opacity: 0.9; stroke: #ff8a46; stroke-opacity: 0.9"/>
     <use xlink:href="#m15a5a190e0" x="225.272587" y="223.236779" style="fill: #ff8a46; fill-opacity: 0.9; stroke: #ff8a46; stroke-opacity: 0.9"/>
    </g>
   </g>
   <g id="patch_3">
    <path d="M 57.62 224.84 
L 230.352968 224.84 
" style="fill: none; stroke: #000000; stroke-width: 0.8; stroke-linejoin: miter; stroke-linecap: square"/>
   </g>
   <g id="text_12">
    <!-- Sheltered homeless -->
    <g transform="translate(84.369921 42.12) scale(0.12 -0.12)">
     <defs>
      <path id="Montserrat-Regular-53" d="M 1965 -38 
Q 1466 -38 1008 125 
Q 550 288 301 544 
L 486 909 
Q 723 678 1123 521 
Q 1523 365 1965 365 
Q 2387 365 2652 470 
Q 2918 576 3043 755 
Q 3168 934 3168 1152 
Q 3168 1414 3017 1574 
Q 2867 1734 2624 1827 
Q 2381 1920 2086 1990 
Q 1792 2061 1497 2141 
Q 1203 2221 956 2355 
Q 710 2490 560 2710 
Q 410 2931 410 3290 
Q 410 3622 586 3900 
Q 762 4179 1126 4348 
Q 1491 4518 2061 4518 
Q 2438 4518 2809 4412 
Q 3181 4307 3450 4122 
L 3290 3744 
Q 3002 3936 2678 4025 
Q 2355 4115 2054 4115 
Q 1651 4115 1388 4006 
Q 1126 3898 1001 3715 
Q 877 3533 877 3302 
Q 877 3040 1027 2880 
Q 1178 2720 1424 2630 
Q 1670 2541 1964 2470 
Q 2259 2400 2550 2317 
Q 2842 2234 3088 2102 
Q 3334 1971 3484 1753 
Q 3635 1536 3635 1184 
Q 3635 858 3456 579 
Q 3277 301 2909 131 
Q 2541 -38 1965 -38 
z
" transform="scale(0.015625)"/>
      <path id="Montserrat-Regular-68" d="M 2349 3392 
Q 2758 3392 3068 3235 
Q 3379 3078 3555 2758 
Q 3731 2438 3731 1952 
L 3731 0 
L 3277 0 
L 3277 1907 
Q 3277 2438 3011 2710 
Q 2746 2982 2266 2982 
Q 1907 2982 1641 2838 
Q 1376 2694 1232 2422 
Q 1088 2150 1088 1766 
L 1088 0 
L 634 0 
L 634 4749 
L 1088 4749 
L 1088 2438 
L 998 2611 
Q 1158 2976 1510 3184 
Q 1862 3392 2349 3392 
z
" transform="scale(0.015625)"/>
      <path id="Montserrat-Regular-74" d="M 1696 -32 
Q 1222 -32 966 224 
Q 710 480 710 947 
L 710 4102 
L 1165 4102 
L 1165 973 
Q 1165 678 1315 518 
Q 1466 358 1747 358 
Q 2048 358 2246 531 
L 2406 205 
Q 2272 83 2083 25 
Q 1894 -32 1696 -32 
z
M 109 2982 
L 109 3360 
L 2189 3360 
L 2189 2982 
L 109 2982 
z
" transform="scale(0.015625)"/>
      <path id="Montserrat-Regular-64" d="M 1971 -32 
Q 1491 -32 1110 185 
Q 730 403 512 790 
Q 294 1178 294 1683 
Q 294 2195 512 2579 
Q 730 2963 1110 3177 
Q 1491 3392 1971 3392 
Q 2413 3392 2761 3193 
Q 3110 2995 3318 2614 
Q 3526 2234 3526 1683 
Q 3526 1139 3321 755 
Q 3117 371 2768 169 
Q 2419 -32 1971 -32 
z
M 2003 371 
Q 2362 371 2646 534 
Q 2931 698 3094 995 
Q 3258 1293 3258 1683 
Q 3258 2080 3094 2374 
Q 2931 2669 2646 2832 
Q 2362 2995 2003 2995 
Q 1651 2995 1369 2832 
Q 1088 2669 921 2374 
Q 755 2080 755 1683 
Q 755 1293 921 995 
Q 1088 698 1369 534 
Q 1651 371 2003 371 
z
M 3270 0 
L 3270 1011 
L 3315 1690 
L 3251 2368 
L 3251 4749 
L 3706 4749 
L 3706 0 
L 3270 0 
z
" transform="scale(0.015625)"/>
      <path id="Montserrat-Regular-73" d="M 1536 -32 
Q 1120 -32 749 86 
Q 378 205 166 384 
L 371 742 
Q 576 589 896 477 
Q 1216 365 1568 365 
Q 2048 365 2259 515 
Q 2470 666 2470 915 
Q 2470 1101 2352 1206 
Q 2234 1312 2042 1366 
Q 1850 1421 1613 1459 
Q 1376 1498 1142 1549 
Q 909 1600 717 1699 
Q 525 1798 406 1971 
Q 288 2144 288 2432 
Q 288 2707 441 2924 
Q 595 3142 892 3267 
Q 1190 3392 1619 3392 
Q 1946 3392 2272 3305 
Q 2598 3219 2810 3078 
L 2611 2714 
Q 2387 2867 2131 2934 
Q 1875 3002 1619 3002 
Q 1165 3002 950 2845 
Q 736 2688 736 2445 
Q 736 2253 854 2144 
Q 973 2035 1168 1974 
Q 1363 1914 1596 1875 
Q 1830 1837 2064 1782 
Q 2298 1728 2493 1635 
Q 2688 1542 2806 1372 
Q 2925 1203 2925 928 
Q 2925 634 2761 419 
Q 2598 205 2288 86 
Q 1978 -32 1536 -32 
z
" transform="scale(0.015625)"/>
     </defs>
     <use xlink:href="#Montserrat-Regular-53"/>
     <use xlink:href="#Montserrat-Regular-68" x="61.499985"/>
     <use xlink:href="#Montserrat-Regular-65" x="129.099976"/>
     <use xlink:href="#Montserrat-Regular-6c" x="189.499969"/>
     <use xlink:href="#Montserrat-Regular-74" x="216.399963"/>
     <use xlink:href="#Montserrat-Regular-65" x="256.999954"/>
     <use xlink:href="#Montserrat-Regular-72" x="317.399948"/>
     <use xlink:href="#Montserrat-Regular-65" x="357.499939"/>
     <use xlink:href="#Montserrat-Regular-64" x="417.899933"/>
     <use xlink:href="#Montserrat-Regular-20" x="485.699921"/>
     <use xlink:href="#Montserrat-Regular-68" x="511.899918"/>
     <use xlink:href="#Montserrat-Regular-6f" x="579.499908"/>
     <use xlink:href="#Montserrat-Regular-6d" x="642.199905"/>
     <use xlink:href="#Montserrat-Regular-65" x="748.299896"/>
     <use xlink:href="#Montserrat-Regular-6c" x="808.69989"/>
     <use xlink:href="#Montserrat-Regular-65" x="835.599884"/>
     <use xlink:href="#Montserrat-Regular-73" x="895.999878"/>
     <use xlink:href="#Montserrat-Regular-73" x="944.799866"/>
    </g>
   </g>
   <g id="legend_1">
    <g id="patch_4">
     <path d="M 79.524843 99.202812 
L 223.352968 99.202812 
Q 225.352968 99.202812 225.352968 97.202812 
L 225.352968 55.12 
Q 225.352968 53.12 223.352968 53.12 
L 79.524843 53.12 
Q 77.524843 53.12 77.524843 55.12 
L 77.524843 97.202812 
Q 77.524843 99.202812 79.524843 99.202812 
z
" style="fill: #ffffff; opacity: 0.7"/>
    </g>
    <g id="line2d_8">
     <path d="M 81.524843 61.040312 
L 91.524843 61.040312 
L 101.524843 61.040312 
" style="fill: none; stroke: #8d8d8d; stroke-opacity: 0.9; stroke-width: 1.5; stroke-linecap: square"/>
     <g>
      <use xlink:href="#mb300369352" x="91.524843" y="61.040312" style="fill: #8d8d8d; fill-opacity: 0.9; stroke: #8d8d8d; stroke-opacity: 0.9"/>
     </g>
    </g>
    <g id="text_13">
     <!-- All -->
     <g transform="translate(109.524843 64.540312) scale(0.1 -0.1)">
      <defs>
       <path id="Montserrat-Regular-41" d="M 13 0 
L 2061 4480 
L 2528 4480 
L 4576 0 
L 4077 0 
L 2195 4205 
L 2387 4205 
L 506 0 
L 13 0 
z
M 819 1197 
L 960 1581 
L 3565 1581 
L 3706 1197 
L 819 1197 
z
" transform="scale(0.015625)"/>
      </defs>
      <use xlink:href="#Montserrat-Regular-41"/>
      <use xlink:href="#Montserrat-Regular-6c" x="71.699982"/>
      <use xlink:href="#Montserrat-Regular-6c" x="98.599976"/>
     </g>
    </g>
    <g id="line2d_9">
     <path d="M 81.524843 75.40125 
L 91.524843 75.40125 
L 101.524843 75.40125 
" style="fill: none; stroke: #297fda; stroke-opacity: 0.9; stroke-width: 1.5; stroke-linecap: square"/>
     <g>
      <use xlink:href="#m37b45c58e4" x="91.524843" y="75.40125" style="fill: #297fda; fill-opacity: 0.9; stroke: #297fda; stroke-opacity: 0.9"/>
     </g>
    </g>
    <g id="text_14">
     <!-- With mental illness -->
     <g transform="translate(109.524843 78.90125) scale(0.1 -0.1)">
      <defs>
       <path id="Montserrat-Regular-57" d="M 1747 0 
L 237 4480 
L 723 4480 
L 2138 262 
L 1894 262 
L 3354 4480 
L 3789 4480 
L 5229 262 
L 4998 262 
L 6426 4480 
L 6880 4480 
L 5370 0 
L 4870 0 
L 3494 4000 
L 3622 4000 
L 2240 0 
L 1747 0 
z
" transform="scale(0.015625)"/>
       <path id="Montserrat-Regular-69" d="M 634 0 
L 634 3360 
L 1088 3360 
L 1088 0 
L 634 0 
z
M 864 4102 
Q 723 4102 627 4198 
Q 531 4294 531 4429 
Q 531 4563 627 4656 
Q 723 4749 864 4749 
Q 1005 4749 1101 4659 
Q 1197 4570 1197 4435 
Q 1197 4294 1104 4198 
Q 1011 4102 864 4102 
z
" transform="scale(0.015625)"/>
       <path id="Montserrat-Regular-6e" d="M 2349 3392 
Q 2758 3392 3068 3235 
Q 3379 3078 3555 2758 
Q 3731 2438 3731 1952 
L 3731 0 
L 3277 0 
L 3277 1907 
Q 3277 2438 3011 2710 
Q 2746 2982 2266 2982 
Q 1907 2982 1641 2838 
Q 1376 2694 1232 2422 
Q 1088 2150 1088 1766 
L 1088 0 
L 634 0 
L 634 3360 
L 1069 3360 
L 1069 2438 
L 998 2611 
Q 1158 2976 1510 3184 
Q 1862 3392 2349 3392 
z
" transform="scale(0.015625)"/>
       <path id="Montserrat-Regular-61" d="M 2739 0 
L 2739 742 
L 2720 864 
L 2720 2106 
Q 2720 2534 2480 2764 
Q 2240 2995 1766 2995 
Q 1440 2995 1145 2886 
Q 851 2778 646 2598 
L 442 2938 
Q 698 3155 1056 3273 
Q 1414 3392 1811 3392 
Q 2464 3392 2819 3069 
Q 3174 2746 3174 2086 
L 3174 0 
L 2739 0 
z
M 1581 -32 
Q 1203 -32 924 93 
Q 646 218 499 438 
Q 352 659 352 947 
Q 352 1210 477 1424 
Q 602 1638 886 1769 
Q 1171 1901 1651 1901 
L 2810 1901 
L 2810 1562 
L 1664 1562 
Q 1178 1562 989 1389 
Q 800 1216 800 960 
Q 800 672 1024 499 
Q 1248 326 1651 326 
Q 2035 326 2313 502 
Q 2592 678 2720 1011 
L 2822 698 
Q 2694 365 2377 166 
Q 2061 -32 1581 -32 
z
" transform="scale(0.015625)"/>
      </defs>
      <use xlink:href="#Montserrat-Regular-57"/>
      <use xlink:href="#Montserrat-Regular-69" x="111.099991"/>
      <use xlink:href="#Montserrat-Regular-74" x="137.999985"/>
      <use xlink:href="#Montserrat-Regular-68" x="178.599976"/>
      <use xlink:href="#Montserrat-Regular-20" x="246.199966"/>
      <use xlink:href="#Montserrat-Regular-6d" x="272.399963"/>
      <use xlink:href="#Montserrat-Regular-65" x="378.499954"/>
      <use xlink:href="#Montserrat-Regular-6e" x="438.899948"/>
      <use xlink:href="#Montserrat-Regular-74" x="506.499939"/>
      <use xlink:href="#Montserrat-Regular-61" x="547.09993"/>
      <use xlink:href="#Montserrat-Regular-6c" x="606.099915"/>
      <use xlink:href="#Montserrat-Regular-20" x="632.999908"/>
      <use xlink:href="#Montserrat-Regular-69" x="659.199905"/>
      <use xlink:href="#Montserrat-Regular-6c" x="686.099899"/>
      <use xlink:href="#Montserrat-Regular-6c" x="712.999893"/>
      <use xlink:href="#Montserrat-Regular-6e" x="739.899887"/>
      <use xlink:href="#Montserrat-Regular-65" x="807.499878"/>
      <use xlink:href="#Montserrat-Regular-73" x="867.899872"/>
      <use xlink:href="#Montserrat-Regular-73" x="916.69986"/>
     </g>
    </g>
    <g id="line2d_10">
     <path d="M 81.524843 89.762187 
L 91.524843 89.762187 
L 101.524843 89.762187 
" style="fill: none; stroke: #ff8a46; stroke-opacity: 0.9; stroke-width: 1.5; stroke-linecap: square"/>
     <g>
      <use xlink:href="#m15a5a190e0" x="91.524843" y="89.762187" style="fill: #ff8a46; fill-opacity: 0.9; stroke: #ff8a46; stroke-opacity: 0.9"/>
     </g>
    </g>
    <g id="text_15">
     <!-- With substance abuse -->
     <g transform="translate(109.524843 93.262187) scale(0.1 -0.1)">
      <defs>
       <path id="Montserrat-Regular-63" d="M 2029 -32 
Q 1530 -32 1136 189 
Q 742 410 518 797 
Q 294 1184 294 1683 
Q 294 2189 518 2573 
Q 742 2957 1136 3174 
Q 1530 3392 2029 3392 
Q 2458 3392 2803 3225 
Q 3149 3059 3347 2726 
L 3008 2496 
Q 2835 2752 2579 2873 
Q 2323 2995 2022 2995 
Q 1664 2995 1376 2832 
Q 1088 2669 921 2374 
Q 755 2080 755 1683 
Q 755 1286 921 992 
Q 1088 698 1376 534 
Q 1664 371 2022 371 
Q 2323 371 2579 492 
Q 2835 614 3008 864 
L 3347 634 
Q 3149 307 2803 137 
Q 2458 -32 2029 -32 
z
" transform="scale(0.015625)"/>
      </defs>
      <use xlink:href="#Montserrat-Regular-57"/>
      <use xlink:href="#Montserrat-Regular-69" x="111.099991"/>
      <use xlink:href="#Montserrat-Regular-74" x="137.999985"/>
      <use xlink:href="#Montserrat-Regular-68" x="178.599976"/>
      <use xlink:href="#Montserrat-Regular-20" x="246.199966"/>
      <use xlink:href="#Montserrat-Regular-73" x="272.399963"/>
      <use xlink:href="#Montserrat-Regular-75" x="321.199951"/>
      <use xlink:href="#Montserrat-Regular-62" x="388.399948"/>
      <use xlink:href="#Montserrat-Regular-73" x="456.199936"/>
      <use xlink:href="#Montserrat-Regular-74" x="504.999924"/>
      <use xlink:href="#Montserrat-Regular-61" x="545.599915"/>
      <use xlink:href="#Montserrat-Regular-6e" x="604.599899"/>
      <use xlink:href="#Montserrat-Regular-63" x="672.19989"/>
      <use xlink:href="#Montserrat-Regular-65" x="728.499878"/>
      <use xlink:href="#Montserrat-Regular-20" x="788.899872"/>
      <use xlink:href="#Montserrat-Regular-61" x="815.099869"/>
      <use xlink:href="#Montserrat-Regular-62" x="874.099854"/>
      <use xlink:href="#Montserrat-Regular-75" x="941.899841"/>
      <use xlink:href="#Montserrat-Regular-73" x="1009.099838"/>
      <use xlink:href="#Montserrat-Regular-65" x="1057.899826"/>
     </g>
    </g>
   </g>
  </g>
  <g id="axes_2">
   <g id="patch_5">
    <path d="M 248.467032 224.84 
L 421.2 224.84 
L 421.2 48.12 
L 248.467032 48.12 
z
" style="fill: #ffffff"/>
   </g>
   <g id="matplotlib.axis_3">
    <g id="xtick_5">
     <g id="line2d_11">
      <g>
       <use xlink:href="#m746dd44fce" x="284.029702" y="224.84" style="stroke: #000000; stroke-width: 0.8"/>
      </g>
     </g>
     <g id="text_16">
      <!-- 2010 -->
      <g transform="translate(272.764858 239.260312) scale(0.1 -0.1)">
       <use xlink:href="#Montserrat-Regular-32"/>
       <use xlink:href="#Montserrat-Regular-30" x="56.799988"/>
       <use xlink:href="#Montserrat-Regular-31" x="122.999985"/>
       <use xlink:href="#Montserrat-Regular-30" x="159.099976"/>
      </g>
     </g>
    </g>
    <g id="xtick_6">
     <g id="line2d_12">
      <g>
       <use xlink:href="#m746dd44fce" x="334.833516" y="224.84" style="stroke: #000000; stroke-width: 0.8"/>
      </g>
     </g>
     <g id="text_17">
      <!-- 2015 -->
      <g transform="translate(324.049141 239.260312) scale(0.1 -0.1)">
       <use xlink:href="#Montserrat-Regular-32"/>
       <use xlink:href="#Montserrat-Regular-30" x="56.799988"/>
       <use xlink:href="#Montserrat-Regular-31" x="122.999985"/>
       <use xlink:href="#Montserrat-Regular-35" x="159.099976"/>
      </g>
     </g>
    </g>
    <g id="xtick_7">
     <g id="line2d_13">
      <g>
       <use xlink:href="#m746dd44fce" x="385.63733" y="224.84" style="stroke: #000000; stroke-width: 0.8"/>
      </g>
     </g>
     <g id="text_18">
      <!-- 2020 -->
      <g transform="translate(373.33733 239.260312) scale(0.1 -0.1)">
       <use xlink:href="#Montserrat-Regular-32"/>
       <use xlink:href="#Montserrat-Regular-30" x="56.799988"/>
       <use xlink:href="#Montserrat-Regular-32" x="122.999985"/>
       <use xlink:href="#Montserrat-Regular-30" x="179.799973"/>
      </g>
     </g>
    </g>
    <g id="xtick_8">
     <g id="line2d_14">
      <g>
       <use xlink:href="#m746dd44fce" x="416.119619" y="224.84" style="stroke: #000000; stroke-width: 0.8"/>
      </g>
     </g>
     <g id="text_19">
      <!-- 2023 -->
      <g transform="translate(404.309462 239.260312) scale(0.1 -0.1)">
       <use xlink:href="#Montserrat-Regular-32"/>
       <use xlink:href="#Montserrat-Regular-30" x="56.799988"/>
       <use xlink:href="#Montserrat-Regular-32" x="122.999985"/>
       <use xlink:href="#Montserrat-Regular-33" x="179.799973"/>
      </g>
     </g>
    </g>
   </g>
   <g id="matplotlib.axis_4">
    <g id="ytick_7"/>
    <g id="ytick_8"/>
    <g id="ytick_9"/>
    <g id="ytick_10"/>
    <g id="ytick_11"/>
    <g id="ytick_12"/>
   </g>
   <g id="line2d_15">
    <path d="M 253.547413 170.397301 
L 263.708176 105.466867 
L 273.868939 136.963471 
L 284.029702 74.838673 
L 294.190465 67.423778 
L 304.351228 88.900254 
L 314.51199 113.750173 
L 324.672753 165.454037 
L 334.833516 114.551783 
L 344.994279 96.214948 
L 355.155042 98.953783 
L 365.315804 73.402455 
L 375.476567 56.535238 
L 385.63733 81.351757 
L 405.958856 128.446362 
L 416.119619 93.943719 
" clip-path="url(#pa746875f39)" style="fill: none; stroke: #8d8d8d; stroke-opacity: 0.9; stroke-width: 1.5; stroke-linecap: square"/>
    <g clip-path="url(#pa746875f39)">
     <use xlink:href="#mb300369352" x="253.547413" y="170.397301" style="fill: #8d8d8d; fill-opacity: 0.9; stroke: #8d8d8d; stroke-opacity: 0.9"/>
     <use xlink:href="#mb300369352" x="263.708176" y="105.466867" style="fill: #8d8d8d; fill-opacity: 0.9; stroke: #8d8d8d; stroke-opacity: 0.9"/>
     <use xlink:href="#mb300369352" x="273.868939" y="136.963471" style="fill: #8d8d8d; fill-opacity: 0.9; stroke: #8d8d8d; stroke-opacity: 0.9"/>
     <use xlink:href="#mb300369352" x="284.029702" y="74.838673" style="fill: #8d8d8d; fill-opacity: 0.9; stroke: #8d8d8d; stroke-opacity: 0.9"/>
     <use xlink:href="#mb300369352" x="294.190465" y="67.423778" style="fill: #8d8d8d; fill-opacity: 0.9; stroke: #8d8d8d; stroke-opacity: 0.9"/>
     <use xlink:href="#mb300369352" x="304.351228" y="88.900254" style="fill: #8d8d8d; fill-opacity: 0.9; stroke: #8d8d8d; stroke-opacity: 0.9"/>
     <use xlink:href="#mb300369352" x="314.51199" y="113.750173" style="fill: #8d8d8d; fill-opacity: 0.9; stroke: #8d8d8d; stroke-opacity: 0.9"/>
     <use xlink:href="#mb300369352" x="324.672753" y="165.454037" style="fill: #8d8d8d; fill-opacity: 0.9; stroke: #8d8d8d; stroke-opacity: 0.9"/>
     <use xlink:href="#mb300369352" x="334.833516" y="114.551783" style="fill: #8d8d8d; fill-opacity: 0.9; stroke: #8d8d8d; stroke-opacity: 0.9"/>
     <use xlink:href="#mb300369352" x="344.994279" y="96.214948" style="fill: #8d8d8d; fill-opacity: 0.9; stroke: #8d8d8d; stroke-opacity: 0.9"/>
     <use xlink:href="#mb300369352" x="355.155042" y="98.953783" style="fill: #8d8d8d; fill-opacity: 0.9; stroke: #8d8d8d; stroke-opacity: 0.9"/>
     <use xlink:href="#mb300369352" x="365.315804" y="73.402455" style="fill: #8d8d8d; fill-opacity: 0.9; stroke: #8d8d8d; stroke-opacity: 0.9"/>
     <use xlink:href="#mb300369352" x="375.476567" y="56.535238" style="fill: #8d8d8d; fill-opacity: 0.9; stroke: #8d8d8d; stroke-opacity: 0.9"/>
     <use xlink:href="#mb300369352" x="385.63733" y="81.351757" style="fill: #8d8d8d; fill-opacity: 0.9; stroke: #8d8d8d; stroke-opacity: 0.9"/>
     <use xlink:href="#mb300369352" x="405.958856" y="128.446362" style="fill: #8d8d8d; fill-opacity: 0.9; stroke: #8d8d8d; stroke-opacity: 0.9"/>
     <use xlink:href="#mb300369352" x="416.119619" y="93.943719" style="fill: #8d8d8d; fill-opacity: 0.9; stroke: #8d8d8d; stroke-opacity: 0.9"/>
    </g>
   </g>
   <g id="line2d_16">
    <path d="M 253.547413 220.330942 
L 263.708176 218.159914 
L 273.868939 211.279426 
L 284.029702 212.34824 
L 294.190465 218.827923 
L 304.351228 212.882646 
L 314.51199 217.0243 
L 324.672753 224.84 
L 334.833516 218.761122 
L 344.994279 208.774394 
L 355.155042 223.002976 
L 365.315804 199.656077 
L 375.476567 207.104372 
L 385.63733 223.971589 
L 405.958856 208.50719 
L 416.119619 204.298736 
" clip-path="url(#pa746875f39)" style="fill: none; stroke: #297fda; stroke-opacity: 0.9; stroke-width: 1.5; stroke-linecap: square"/>
    <g clip-path="url(#pa746875f39)">
     <use xlink:href="#m37b45c58e4" x="253.547413" y="220.330942" style="fill: #297fda; fill-opacity: 0.9; stroke: #297fda; stroke-opacity: 0.9"/>
     <use xlink:href="#m37b45c58e4" x="263.708176" y="218.159914" style="fill: #297fda; fill-opacity: 0.9; stroke: #297fda; stroke-opacity: 0.9"/>
     <use xlink:href="#m37b45c58e4" x="273.868939" y="211.279426" style="fill: #297fda; fill-opacity: 0.9; stroke: #297fda; stroke-opacity: 0.9"/>
     <use xlink:href="#m37b45c58e4" x="284.029702" y="212.34824" style="fill: #297fda; fill-opacity: 0.9; stroke: #297fda; stroke-opacity: 0.9"/>
     <use xlink:href="#m37b45c58e4" x="294.190465" y="218.827923" style="fill: #297fda; fill-opacity: 0.9; stroke: #297fda; stroke-opacity: 0.9"/>
     <use xlink:href="#m37b45c58e4" x="304.351228" y="212.882646" style="fill: #297fda; fill-opacity: 0.9; stroke: #297fda; stroke-opacity: 0.9"/>
     <use xlink:href="#m37b45c58e4" x="314.51199" y="217.0243" style="fill: #297fda; fill-opacity: 0.9; stroke: #297fda; stroke-opacity: 0.9"/>
     <use xlink:href="#m37b45c58e4" x="324.672753" y="224.84" style="fill: #297fda; fill-opacity: 0.9; stroke: #297fda; stroke-opacity: 0.9"/>
     <use xlink:href="#m37b45c58e4" x="334.833516" y="218.761122" style="fill: #297fda; fill-opacity: 0.9; stroke: #297fda; stroke-opacity: 0.9"/>
     <use xlink:href="#m37b45c58e4" x="344.994279" y="208.774394" style="fill: #297fda; fill-opacity: 0.9; stroke: #297fda; stroke-opacity: 0.9"/>
     <use xlink:href="#m37b45c58e4" x="355.155042" y="223.002976" style="fill: #297fda; fill-opacity: 0.9; stroke: #297fda; stroke-opacity: 0.9"/>
     <use xlink:href="#m37b45c58e4" x="365.315804" y="199.656077" style="fill: #297fda; fill-opacity: 0.9; stroke: #297fda; stroke-opacity: 0.9"/>
     <use xlink:href="#m37b45c58e4" x="375.476567" y="207.104372" style="fill: #297fda; fill-opacity: 0.9; stroke: #297fda; stroke-opacity: 0.9"/>
     <use xlink:href="#m37b45c58e4" x="385.63733" y="223.971589" style="fill: #297fda; fill-opacity: 0.9; stroke: #297fda; stroke-opacity: 0.9"/>
     <use xlink:href="#m37b45c58e4" x="405.958856" y="208.50719" style="fill: #297fda; fill-opacity: 0.9; stroke: #297fda; stroke-opacity: 0.9"/>
     <use xlink:href="#m37b45c58e4" x="416.119619" y="204.298736" style="fill: #297fda; fill-opacity: 0.9; stroke: #297fda; stroke-opacity: 0.9"/>
    </g>
   </g>
   <g id="line2d_17">
    <path d="M 253.547413 220.464544 
L 263.708176 217.592107 
L 273.868939 211.546629 
L 284.029702 215.120475 
L 294.190465 218.761122 
L 304.351228 211.747032 
L 314.51199 214.185263 
L 324.672753 224.84 
L 334.833516 223.437182 
L 344.994279 212.014235 
L 355.155042 223.437182 
L 365.315804 199.689477 
L 375.476567 210.01021 
L 385.63733 224.773199 
L 405.958856 215.220676 
L 416.119619 211.012222 
" clip-path="url(#pa746875f39)" style="fill: none; stroke: #ff8a46; stroke-opacity: 0.9; stroke-width: 1.5; stroke-linecap: square"/>
    <g clip-path="url(#pa746875f39)">
     <use xlink:href="#m15a5a190e0" x="253.547413" y="220.464544" style="fill: #ff8a46; fill-opacity: 0.9; stroke: #ff8a46; stroke-opacity: 0.9"/>
     <use xlink:href="#m15a5a190e0" x="263.708176" y="217.592107" style="fill: #ff8a46; fill-opacity: 0.9; stroke: #ff8a46; stroke-opacity: 0.9"/>
     <use xlink:href="#m15a5a190e0" x="273.868939" y="211.546629" style="fill: #ff8a46; fill-opacity: 0.9; stroke: #ff8a46; stroke-opacity: 0.9"/>
     <use xlink:href="#m15a5a190e0" x="284.029702" y="215.120475" style="fill: #ff8a46; fill-opacity: 0.9; stroke: #ff8a46; stroke-opacity: 0.9"/>
     <use xlink:href="#m15a5a190e0" x="294.190465" y="218.761122" style="fill: #ff8a46; fill-opacity: 0.9; stroke: #ff8a46; stroke-opacity: 0.9"/>
     <use xlink:href="#m15a5a190e0" x="304.351228" y="211.747032" style="fill: #ff8a46; fill-opacity: 0.9; stroke: #ff8a46; stroke-opacity: 0.9"/>
     <use xlink:href="#m15a5a190e0" x="314.51199" y="214.185263" style="fill: #ff8a46; fill-opacity: 0.9; stroke: #ff8a46; stroke-opacity: 0.9"/>
     <use xlink:href="#m15a5a190e0" x="324.672753" y="224.84" style="fill: #ff8a46; fill-opacity: 0.9; stroke: #ff8a46; stroke-opacity: 0.9"/>
     <use xlink:href="#m15a5a190e0" x="334.833516" y="223.437182" style="fill: #ff8a46; fill-opacity: 0.9; stroke: #ff8a46; stroke-opacity: 0.9"/>
     <use xlink:href="#m15a5a190e0" x="344.994279" y="212.014235" style="fill: #ff8a46; fill-opacity: 0.9; stroke: #ff8a46; stroke-opacity: 0.9"/>
     <use xlink:href="#m15a5a190e0" x="355.155042" y="223.437182" style="fill: #ff8a46; fill-opacity: 0.9; stroke: #ff8a46; stroke-opacity: 0.9"/>
     <use xlink:href="#m15a5a190e0" x="365.315804" y="199.689477" style="fill: #ff8a46; fill-opacity: 0.9; stroke: #ff8a46; stroke-opacity: 0.9"/>
     <use xlink:href="#m15a5a190e0" x="375.476567" y="210.01021" style="fill: #ff8a46; fill-opacity: 0.9; stroke: #ff8a46; stroke-opacity: 0.9"/>
     <use xlink:href="#m15a5a190e0" x="385.63733" y="224.773199" style="fill: #ff8a46; fill-opacity: 0.9; stroke: #ff8a46; stroke-opacity: 0.9"/>
     <use xlink:href="#m15a5a190e0" x="405.958856" y="215.220676" style="fill: #ff8a46; fill-opacity: 0.9; stroke: #ff8a46; stroke-opacity: 0.9"/>
     <use xlink:href="#m15a5a190e0" x="416.119619" y="211.012222" style="fill: #ff8a46; fill-opacity: 0.9; stroke: #ff8a46; stroke-opacity: 0.9"/>
    </g>
   </g>
   <g id="patch_6">
    <path d="M 248.467032 224.84 
L 421.2 224.84 
" style="fill: none; stroke: #000000; stroke-width: 0.8; stroke-linejoin: miter; stroke-linecap: square"/>
   </g>
   <g id="text_20">
    <!-- Unsheltered homeless -->
    <g transform="translate(267.171329 42.12) scale(0.12 -0.12)">
     <defs>
      <path id="Montserrat-Regular-55" d="M 2534 -38 
Q 1677 -38 1184 454 
Q 691 947 691 1914 
L 691 4480 
L 1165 4480 
L 1165 1933 
Q 1165 1139 1523 761 
Q 1882 384 2534 384 
Q 3194 384 3552 761 
Q 3910 1139 3910 1933 
L 3910 4480 
L 4371 4480 
L 4371 1914 
Q 4371 947 3881 454 
Q 3392 -38 2534 -38 
z
" transform="scale(0.015625)"/>
     </defs>
     <use xlink:href="#Montserrat-Regular-55"/>
     <use xlink:href="#Montserrat-Regular-6e" x="79.199982"/>
     <use xlink:href="#Montserrat-Regular-73" x="146.799973"/>
     <use xlink:href="#Montserrat-Regular-68" x="195.59996"/>
     <use xlink:href="#Montserrat-Regular-65" x="263.199951"/>
     <use xlink:href="#Montserrat-Regular-6c" x="323.599945"/>
     <use xlink:href="#Montserrat-Regular-74" x="350.499939"/>
     <use xlink:href="#Montserrat-Regular-65" x="391.09993"/>
     <use xlink:href="#Montserrat-Regular-72" x="451.499924"/>
     <use xlink:href="#Montserrat-Regular-65" x="491.599915"/>
     <use xlink:href="#Montserrat-Regular-64" x="551.999908"/>
     <use xlink:href="#Montserrat-Regular-20" x="619.799896"/>
     <use xlink:href="#Montserrat-Regular-68" x="645.999893"/>
     <use xlink:href="#Montserrat-Regular-6f" x="713.599884"/>
     <use xlink:href="#Montserrat-Regular-6d" x="776.299881"/>
     <use xlink:href="#Montserrat-Regular-65" x="882.399872"/>
     <use xlink:href="#Montserrat-Regular-6c" x="942.799866"/>
     <use xlink:href="#Montserrat-Regular-65" x="969.69986"/>
     <use xlink:href="#Montserrat-Regular-73" x="1030.099854"/>
     <use xlink:href="#Montserrat-Regular-73" x="1078.899841"/>
    </g>
   </g>
  </g>
  <g id="text_21">
   <!-- OR-Oregon Balance of State -->
   <g transform="translate(130.828125 14.004375) scale(0.12 -0.12)">
    <defs>
     <path id="Montserrat-Regular-4f" d="M 2688 -38 
Q 2182 -38 1750 131 
Q 1318 301 1001 611 
Q 685 922 509 1334 
Q 333 1747 333 2240 
Q 333 2733 509 3145 
Q 685 3558 1001 3868 
Q 1318 4179 1747 4348 
Q 2176 4518 2688 4518 
Q 3194 4518 3622 4348 
Q 4051 4179 4368 3872 
Q 4685 3565 4861 3149 
Q 5037 2733 5037 2240 
Q 5037 1747 4861 1331 
Q 4685 915 4368 608 
Q 4051 301 3622 131 
Q 3194 -38 2688 -38 
z
M 2688 384 
Q 3091 384 3433 521 
Q 3776 659 4029 912 
Q 4282 1165 4422 1501 
Q 4563 1837 4563 2240 
Q 4563 2643 4422 2979 
Q 4282 3315 4029 3568 
Q 3776 3821 3433 3958 
Q 3091 4096 2688 4096 
Q 2285 4096 1939 3958 
Q 1594 3821 1341 3568 
Q 1088 3315 944 2979 
Q 800 2643 800 2240 
Q 800 1843 944 1504 
Q 1088 1165 1341 912 
Q 1594 659 1939 521 
Q 2285 384 2688 384 
z
" transform="scale(0.015625)"/>
     <path id="Montserrat-Regular-52" d="M 730 0 
L 730 4480 
L 2406 4480 
Q 2976 4480 3385 4297 
Q 3795 4115 4016 3772 
Q 4237 3430 4237 2944 
Q 4237 2470 4016 2128 
Q 3795 1786 3385 1603 
Q 2976 1421 2406 1421 
L 992 1421 
L 1203 1638 
L 1203 0 
L 730 0 
z
M 3789 0 
L 2637 1626 
L 3149 1626 
L 4307 0 
L 3789 0 
z
M 1203 1600 
L 992 1824 
L 2394 1824 
Q 3066 1824 3414 2118 
Q 3763 2413 3763 2944 
Q 3763 3482 3414 3776 
Q 3066 4070 2394 4070 
L 992 4070 
L 1203 4294 
L 1203 1600 
z
" transform="scale(0.015625)"/>
     <path id="Montserrat-Regular-2d" d="M 384 1536 
L 384 1933 
L 2061 1933 
L 2061 1536 
L 384 1536 
z
" transform="scale(0.015625)"/>
     <path id="Montserrat-Regular-67" d="M 2067 -1274 
Q 1606 -1274 1184 -1139 
Q 762 -1005 499 -755 
L 730 -410 
Q 966 -621 1315 -745 
Q 1664 -870 2054 -870 
Q 2694 -870 2995 -572 
Q 3296 -275 3296 352 
L 3296 1190 
L 3360 1766 
L 3315 2342 
L 3315 3360 
L 3750 3360 
L 3750 410 
Q 3750 -461 3324 -867 
Q 2899 -1274 2067 -1274 
z
M 1984 128 
Q 1504 128 1120 336 
Q 736 544 515 915 
Q 294 1286 294 1766 
Q 294 2246 515 2614 
Q 736 2982 1120 3187 
Q 1504 3392 1984 3392 
Q 2432 3392 2790 3206 
Q 3149 3021 3360 2656 
Q 3571 2291 3571 1766 
Q 3571 1242 3360 877 
Q 3149 512 2790 320 
Q 2432 128 1984 128 
z
M 2029 531 
Q 2400 531 2688 688 
Q 2976 845 3142 1123 
Q 3309 1402 3309 1766 
Q 3309 2131 3142 2406 
Q 2976 2682 2688 2838 
Q 2400 2995 2029 2995 
Q 1664 2995 1373 2838 
Q 1082 2682 918 2406 
Q 755 2131 755 1766 
Q 755 1402 918 1123 
Q 1082 845 1373 688 
Q 1664 531 2029 531 
z
" transform="scale(0.015625)"/>
     <path id="Montserrat-Regular-42" d="M 730 0 
L 730 4480 
L 2662 4480 
Q 3411 4480 3824 4179 
Q 4237 3878 4237 3328 
Q 4237 2963 4067 2713 
Q 3898 2464 3606 2336 
Q 3315 2208 2970 2208 
L 3078 2362 
Q 3507 2362 3817 2230 
Q 4128 2099 4301 1840 
Q 4474 1581 4474 1197 
Q 4474 627 4054 313 
Q 3635 0 2790 0 
L 730 0 
z
M 1203 390 
L 2784 390 
Q 3373 390 3686 592 
Q 4000 794 4000 1235 
Q 4000 1670 3686 1872 
Q 3373 2074 2784 2074 
L 1152 2074 
L 1152 2464 
L 2630 2464 
Q 3168 2464 3465 2669 
Q 3763 2874 3763 3277 
Q 3763 3686 3465 3888 
Q 3168 4090 2630 4090 
L 1203 4090 
L 1203 390 
z
" transform="scale(0.015625)"/>
    </defs>
    <use xlink:href="#Montserrat-Regular-4f"/>
    <use xlink:href="#Montserrat-Regular-52" x="83.899994"/>
    <use xlink:href="#Montserrat-Regular-2d" x="156.199982"/>
    <use xlink:href="#Montserrat-Regular-4f" x="194.399979"/>
    <use xlink:href="#Montserrat-Regular-72" x="278.299973"/>
    <use xlink:href="#Montserrat-Regular-65" x="318.399963"/>
    <use xlink:href="#Montserrat-Regular-67" x="378.799957"/>
    <use xlink:href="#Montserrat-Regular-6f" x="447.299942"/>
    <use xlink:href="#Montserrat-Regular-6e" x="509.999939"/>
    <use xlink:href="#Montserrat-Regular-20" x="577.59993"/>
    <use xlink:href="#Montserrat-Regular-42" x="603.799927"/>
    <use xlink:href="#Montserrat-Regular-61" x="679.199921"/>
    <use xlink:href="#Montserrat-Regular-6c" x="738.199905"/>
    <use xlink:href="#Montserrat-Regular-61" x="765.099899"/>
    <use xlink:href="#Montserrat-Regular-6e" x="824.099884"/>
    <use xlink:href="#Montserrat-Regular-63" x="891.699875"/>
    <use xlink:href="#Montserrat-Regular-65" x="947.999863"/>
    <use xlink:href="#Montserrat-Regular-20" x="1008.399857"/>
    <use xlink:href="#Montserrat-Regular-6f" x="1034.599854"/>
    <use xlink:href="#Montserrat-Regular-66" x="1097.29985"/>
    <use xlink:href="#Montserrat-Regular-20" x="1131.199844"/>
    <use xlink:href="#Montserrat-Regular-53" x="1157.399841"/>
    <use xlink:href="#Montserrat-Regular-74" x="1218.899826"/>
    <use xlink:href="#Montserrat-Regular-61" x="1259.499817"/>
    <use xlink:href="#Montserrat-Regular-74" x="1318.499802"/>
    <use xlink:href="#Montserrat-Regular-65" x="1359.099792"/>
   </g>
  </g>
  <g id="text_22">
   <g id="patch_7">
    <a xlink:href="https://dynomight.net">
     <path d="M 354.56 253.93875 
L 425.17125 253.93875 
L 425.17125 238.14125 
L 354.56 238.14125 
z
" style="fill: #1f77b4; opacity: 0.01; stroke: #000000; stroke-linejoin: miter"/>
    </a>
   </g>
   <a xlink:href="https://dynomight.net">
    <!-- dynomight.net -->
    <g style="fill: #808080; opacity: 0.5" transform="translate(358.56 248.22) scale(0.08 -0.08)">
     <defs>
      <path id="DejaVuSansMono-64" d="M 2681 3053 
L 2681 4863 
L 3256 4863 
L 3256 0 
L 2681 0 
L 2681 441 
Q 2538 181 2298 45 
Q 2059 -91 1747 -91 
Q 1113 -91 748 401 
Q 384 894 384 1759 
Q 384 2613 750 3098 
Q 1116 3584 1747 3584 
Q 2063 3584 2303 3448 
Q 2544 3313 2681 3053 
z
M 991 1747 
Q 991 1078 1203 737 
Q 1416 397 1831 397 
Q 2247 397 2464 740 
Q 2681 1084 2681 1747 
Q 2681 2413 2464 2755 
Q 2247 3097 1831 3097 
Q 1416 3097 1203 2756 
Q 991 2416 991 1747 
z
" transform="scale(0.015625)"/>
      <path id="DejaVuSansMono-79" d="M 2681 1125 
Q 2538 759 2316 163 
Q 2006 -663 1900 -844 
Q 1756 -1088 1540 -1209 
Q 1325 -1331 1038 -1331 
L 575 -1331 
L 575 -850 
L 916 -850 
Q 1169 -850 1312 -703 
Q 1456 -556 1678 56 
L 325 3500 
L 934 3500 
L 1972 763 
L 2994 3500 
L 3603 3500 
L 2681 1125 
z
" transform="scale(0.015625)"/>
      <path id="DejaVuSansMono-6e" d="M 3284 2169 
L 3284 0 
L 2706 0 
L 2706 2169 
Q 2706 2641 2540 2862 
Q 2375 3084 2022 3084 
Q 1619 3084 1401 2798 
Q 1184 2513 1184 1978 
L 1184 0 
L 609 0 
L 609 3500 
L 1184 3500 
L 1184 2975 
Q 1338 3275 1600 3429 
Q 1863 3584 2222 3584 
Q 2756 3584 3020 3232 
Q 3284 2881 3284 2169 
z
" transform="scale(0.015625)"/>
      <path id="DejaVuSansMono-6f" d="M 1925 3097 
Q 1488 3097 1263 2756 
Q 1038 2416 1038 1747 
Q 1038 1081 1263 739 
Q 1488 397 1925 397 
Q 2366 397 2591 739 
Q 2816 1081 2816 1747 
Q 2816 2416 2591 2756 
Q 2366 3097 1925 3097 
z
M 1925 3584 
Q 2653 3584 3039 3112 
Q 3425 2641 3425 1747 
Q 3425 850 3040 379 
Q 2656 -91 1925 -91 
Q 1197 -91 812 379 
Q 428 850 428 1747 
Q 428 2641 812 3112 
Q 1197 3584 1925 3584 
z
" transform="scale(0.015625)"/>
      <path id="DejaVuSansMono-6d" d="M 2113 3144 
Q 2219 3369 2383 3476 
Q 2547 3584 2778 3584 
Q 3200 3584 3373 3257 
Q 3547 2931 3547 2028 
L 3547 0 
L 3022 0 
L 3022 2003 
Q 3022 2744 2939 2923 
Q 2856 3103 2638 3103 
Q 2388 3103 2295 2911 
Q 2203 2719 2203 2003 
L 2203 0 
L 1678 0 
L 1678 2003 
Q 1678 2753 1589 2928 
Q 1500 3103 1269 3103 
Q 1041 3103 952 2911 
Q 863 2719 863 2003 
L 863 0 
L 341 0 
L 341 3500 
L 863 3500 
L 863 3200 
Q 966 3388 1120 3486 
Q 1275 3584 1472 3584 
Q 1709 3584 1867 3475 
Q 2025 3366 2113 3144 
z
" transform="scale(0.015625)"/>
      <path id="DejaVuSansMono-69" d="M 800 3500 
L 2272 3500 
L 2272 447 
L 3413 447 
L 3413 0 
L 556 0 
L 556 447 
L 1697 447 
L 1697 3053 
L 800 3053 
L 800 3500 
z
M 1697 4863 
L 2272 4863 
L 2272 4134 
L 1697 4134 
L 1697 4863 
z
" transform="scale(0.015625)"/>
      <path id="DejaVuSansMono-67" d="M 2681 1778 
Q 2681 2425 2470 2761 
Q 2259 3097 1856 3097 
Q 1434 3097 1212 2761 
Q 991 2425 991 1778 
Q 991 1131 1214 792 
Q 1438 453 1863 453 
Q 2259 453 2470 793 
Q 2681 1134 2681 1778 
z
M 3256 225 
Q 3256 -563 2884 -969 
Q 2513 -1375 1791 -1375 
Q 1553 -1375 1293 -1331 
Q 1034 -1288 775 -1203 
L 775 -634 
Q 1081 -778 1331 -847 
Q 1581 -916 1791 -916 
Q 2256 -916 2468 -662 
Q 2681 -409 2681 141 
L 2681 166 
L 2681 556 
Q 2544 263 2306 119 
Q 2069 -25 1728 -25 
Q 1116 -25 750 465 
Q 384 956 384 1778 
Q 384 2603 750 3093 
Q 1116 3584 1728 3584 
Q 2066 3584 2300 3450 
Q 2534 3316 2681 3034 
L 2681 3488 
L 3256 3488 
L 3256 225 
z
" transform="scale(0.015625)"/>
      <path id="DejaVuSansMono-68" d="M 3284 2169 
L 3284 0 
L 2706 0 
L 2706 2169 
Q 2706 2641 2540 2862 
Q 2375 3084 2022 3084 
Q 1619 3084 1401 2798 
Q 1184 2513 1184 1978 
L 1184 0 
L 609 0 
L 609 4863 
L 1184 4863 
L 1184 2975 
Q 1338 3275 1600 3429 
Q 1863 3584 2222 3584 
Q 2756 3584 3020 3232 
Q 3284 2881 3284 2169 
z
" transform="scale(0.015625)"/>
      <path id="DejaVuSansMono-74" d="M 1919 4494 
L 1919 3500 
L 3225 3500 
L 3225 3053 
L 1919 3053 
L 1919 1153 
Q 1919 766 2066 612 
Q 2213 459 2578 459 
L 3225 459 
L 3225 0 
L 2522 0 
Q 1875 0 1609 259 
Q 1344 519 1344 1153 
L 1344 3053 
L 409 3053 
L 409 3500 
L 1344 3500 
L 1344 4494 
L 1919 4494 
z
" transform="scale(0.015625)"/>
      <path id="DejaVuSansMono-2e" d="M 1528 953 
L 2316 953 
L 2316 0 
L 1528 0 
L 1528 953 
z
" transform="scale(0.015625)"/>
      <path id="DejaVuSansMono-65" d="M 3475 1894 
L 3475 1613 
L 984 1613 
L 984 1594 
Q 984 1022 1282 709 
Q 1581 397 2125 397 
Q 2400 397 2700 484 
Q 3000 572 3341 750 
L 3341 178 
Q 3013 44 2708 -23 
Q 2403 -91 2119 -91 
Q 1303 -91 843 398 
Q 384 888 384 1747 
Q 384 2584 834 3084 
Q 1284 3584 2034 3584 
Q 2703 3584 3089 3131 
Q 3475 2678 3475 1894 
z
M 2900 2063 
Q 2888 2569 2661 2833 
Q 2434 3097 2009 3097 
Q 1594 3097 1325 2822 
Q 1056 2547 1006 2059 
L 2900 2063 
z
" transform="scale(0.015625)"/>
     </defs>
     <use xlink:href="#DejaVuSansMono-64"/>
     <use xlink:href="#DejaVuSansMono-79" x="60.205078"/>
     <use xlink:href="#DejaVuSansMono-6e" x="120.410156"/>
     <use xlink:href="#DejaVuSansMono-6f" x="180.615234"/>
     <use xlink:href="#DejaVuSansMono-6d" x="240.820312"/>
     <use xlink:href="#DejaVuSansMono-69" x="301.025391"/>
     <use xlink:href="#DejaVuSansMono-67" x="361.230469"/>
     <use xlink:href="#DejaVuSansMono-68" x="421.435547"/>
     <use xlink:href="#DejaVuSansMono-74" x="481.640625"/>
     <use xlink:href="#DejaVuSansMono-2e" x="541.845703"/>
     <use xlink:href="#DejaVuSansMono-6e" x="602.050781"/>
     <use xlink:href="#DejaVuSansMono-65" x="662.255859"/>
     <use xlink:href="#DejaVuSansMono-74" x="722.460938"/>
    </g>
   </a>
  </g>
 </g>
 <defs>
  <clipPath id="pa09b98303b">
   <rect x="57.62" y="48.12" width="172.732968" height="176.72"/>
  </clipPath>
  <clipPath id="pa746875f39">
   <rect x="248.467032" y="48.12" width="172.732968" height="176.72"/>
  </clipPath>
 </defs>
</svg>
