<svg xmlns="http://www.w3.org/2000/svg" xmlns:xlink="http://www.w3.org/1999/xlink" viewBox="0 0 258 194" height="194pt" width="344"><defs><symbol id="e" overflow="visible"><path d="M1.813-6.188a.571.571 0 0 1-.141.391.508.508 0 0 1-.375.156.518.518 0 0 1-.39-.156C.796-5.89.75-6.016.75-6.187c0-.125.047-.266.156-.36a.463.463 0 0 1 .375-.156c.157 0 .282.047.375.156.11.094.157.234.157.36ZM2.515.016C2.406.016 2.25 0 2.046 0c-.218 0-.421-.016-.593-.016-.203 0-.406.016-.64.016C.593 0 .406.016.28.016v-.204c.219 0 .375-.03.469-.078a.37.37 0 0 0 .188-.218C.953-.578.984-.72.984-.906v-1.688c0-.61-.03-.969-.046-1.078-.047-.14-.235-.234-.532-.234-.031 0-.078.015-.094.015H.234v-.203l1.594-.297v3.547c0 .156.016.281.047.36a.302.302 0 0 0 .172.218c.11.047.25.079.469.079Zm0 0" style="stroke:none"/></symbol><symbol id="v" overflow="visible"><path d="M3.281-1.188c0 .25-.078.5-.219.704-.124.187-.312.359-.53.453a1.854 1.854 0 0 1-.72.156C1.375.125 1 .015.704-.219l-.25.266H.36L.313-1.375h.203c.203.86.609 1.281 1.234 1.281.234 0 .438-.062.594-.172.172-.125.25-.296.25-.53a.647.647 0 0 0-.094-.36c-.063-.11-.14-.188-.234-.282a3.626 3.626 0 0 0-.36-.218c-.14-.063-.25-.125-.312-.157-.25-.125-.469-.234-.64-.359a2.072 2.072 0 0 1-.407-.422 1.054 1.054 0 0 1-.156-.594 1.2 1.2 0 0 1 .156-.624 1.41 1.41 0 0 1 .437-.422c.188-.094.407-.157.641-.157.172 0 .328.032.516.079.171.03.328.093.453.156l.203-.219h.11v1.25h-.204a3.124 3.124 0 0 0-.406-.766c-.14-.171-.36-.265-.64-.265a.744.744 0 0 0-.454.14.542.542 0 0 0-.172.407c0 .125.016.234.078.312.063.11.125.188.204.25.093.063.203.125.359.203.14.078.234.125.281.14.36.188.61.329.75.438.156.094.281.22.406.391.11.188.172.406.172.688Zm0 0" style="stroke:none"/></symbol><symbol id="p" overflow="visible"><path d="M5.64.016C5.517.016 5.345 0 5.126 0c-.234 0-.438-.016-.64-.016-.173 0-.376.016-.579.016-.219 0-.39.016-.5.016v-.204c.219 0 .375-.03.469-.078.11-.046.172-.109.188-.218.03-.079.046-.22.046-.391v-1.734c0-.438-.062-.782-.171-1.063-.126-.265-.376-.406-.75-.406-.22 0-.422.062-.641.203-.219.14-.36.313-.469.5-.125.25-.187.61-.187 1.078v1.422c0 .25.046.422.125.531.078.094.28.156.578.156v.204c-.14 0-.297-.016-.5-.016-.219 0-.406-.016-.61-.016-.187 0-.39.016-.609.016C.656 0 .469.016.344.016v-.204c.219 0 .375-.03.469-.078C.921-.312.984-.39 1-.484c.016-.094.047-.235.047-.422v-4.078c0-.563-.031-.922-.094-1.063-.031-.047-.078-.078-.11-.125-.046-.031-.109-.047-.155-.062-.063-.016-.125-.032-.172-.032-.063 0-.141-.015-.22-.03v-.188l1.595-.329v3.266h.015a1.93 1.93 0 0 1 .657-.625c.28-.14.578-.219.89-.219.485 0 .86.125 1.11.344.265.234.39.594.39 1.063v2.14c0 .156.016.281.047.36.016.093.078.171.188.218.093.047.25.079.453.079Zm0 0" style="stroke:none"/></symbol><symbol id="w" overflow="visible"><path d="M5.203-2.14c0 .437-.11.828-.328 1.187-.219.344-.5.61-.875.797a2.622 2.622 0 0 1-1.203.281c-.422 0-.828-.094-1.203-.297A2.342 2.342 0 0 1 .719-1a2.215 2.215 0 0 1-.313-1.188c0-.312.047-.609.188-.874.125-.25.312-.5.531-.704a2.6 2.6 0 0 1 .781-.468c.282-.094.578-.157.89-.157.392 0 .782.094 1.157.297.39.203.688.469.906.813.22.344.344.719.344 1.14Zm-1 .062c0-.36-.047-.703-.14-1.016a1.502 1.502 0 0 0-.438-.765c-.219-.204-.5-.297-.875-.297-.484 0-.844.203-1.047.61-.203.39-.297.858-.297 1.405 0 .579.11 1.063.328 1.454.22.406.579.593 1.11.593.484 0 .844-.187 1.047-.594.203-.375.312-.859.312-1.39Zm0 0" style="stroke:none"/></symbol><symbol id="i" overflow="visible"><path d="M6.547-4.125c-.094.016-.219.078-.375.172-.125.094-.266.39-.422.86L4.703.202h-.266l-1.25-3.14-1.14 3.14h-.25L.734-3.03C.672-3.187.625-3.328.578-3.47a1.168 1.168 0 0 0-.14-.312.778.778 0 0 0-.266-.235c-.11-.046-.219-.078-.313-.109v-.188c.125.016.297.016.547.032.25.015.438.015.563.015.11 0 .297 0 .531-.015.234-.016.438-.016.547-.032v.188a1.628 1.628 0 0 0-.438.11.367.367 0 0 0-.187.327c0 .141.062.422.219.86l.578 1.844h.015l1.141-3.297h.14L4.798-.984h.016l.625-2.047c.078-.266.125-.469.125-.594 0-.266-.204-.438-.61-.5v-.188c.094.016.219.016.39.032.188.015.313.015.407.015.078 0 .203 0 .39-.015.173-.016.313-.016.407-.032Zm0 0" style="stroke:none"/></symbol><symbol id="b" overflow="visible"><path d="M5.64.016C5.517.016 5.36 0 5.157 0c-.218 0-.422-.016-.593-.016-.204 0-.407.016-.625.016-.235 0-.407.016-.547.016v-.204c.218 0 .375-.03.468-.078a.37.37 0 0 0 .188-.218c.031-.094.047-.235.047-.422v-1.625c0-.485-.047-.844-.157-1.125-.124-.281-.374-.422-.765-.422-.25 0-.469.062-.656.172-.204.125-.36.297-.47.5-.108.203-.155.422-.155.672v1.89c0 .156.015.281.046.36.016.093.079.171.188.218.094.047.25.079.469.079v.203c-.125 0-.297-.016-.5-.016-.219 0-.406-.016-.594-.016-.188 0-.406.016-.625.016C.656 0 .469.016.344.016v-.204c.219 0 .375-.03.469-.078C.921-.312.984-.39 1-.484c.016-.094.047-.235.047-.422v-1.469c0-.64-.031-1.031-.047-1.188-.031-.14-.078-.234-.156-.265-.078-.047-.203-.063-.36-.063H.328v-.203c.203-.015.453-.062.75-.14.297-.079.5-.141.625-.157l.14.907h.016c.157-.313.375-.532.657-.672.265-.157.578-.235.937-.235 1 0 1.5.454 1.5 1.375v2.141c0 .25.031.422.11.531.093.094.28.156.578.156Zm0 0" style="stroke:none"/></symbol><symbol id="s" overflow="visible"><path d="M2.516.016C2.406.016 2.219 0 2 0c-.234 0-.438-.016-.625-.016-.188 0-.39.016-.594.016C.562 0 .406.016.266.016v-.204c.218 0 .39-.03.484-.078a.37.37 0 0 0 .188-.218C.953-.578.984-.72.984-.906v-4.078c0-.563-.046-.922-.109-1.063-.031-.047-.078-.078-.11-.125-.062-.031-.109-.047-.156-.062C.547-6.25.5-6.266.438-6.266c-.063 0-.141-.015-.22-.03v-.188l1.61-.329v5.97c0 .155.016.28.047.359a.302.302 0 0 0 .172.218c.11.047.25.079.469.079Zm0 0" style="stroke:none"/></symbol><symbol id="f" overflow="visible"><path d="M4.563-2.766c0 .063-.047.094-.141.094h-.047c-.031 0-.047-.015-.063-.015H1.438l-.03.484c0 .047-.016.078-.016.11v.062c0 .312.062.61.171.89.125.282.313.516.563.688.234.187.516.266.828.266.25 0 .485-.079.703-.22.219-.14.406-.296.563-.515l.218.219c-.234.281-.5.5-.78.64a2.536 2.536 0 0 1-1 .188c-.423 0-.798-.078-1.141-.266a1.917 1.917 0 0 1-.813-.765C.5-1.22.406-1.594.406-2.016c0-.421.078-.796.281-1.171.188-.36.47-.657.797-.876a2.136 2.136 0 0 1 1.172-.328c.235 0 .469.047.703.094.235.078.438.172.61.313.187.14.328.328.437.53.094.204.157.438.157.688Zm-.938-.375a1.14 1.14 0 0 0-.25-.75c-.172-.171-.422-.265-.719-.265-.36 0-.61.11-.797.328a1.947 1.947 0 0 0-.375.89h1.829c.203 0 .312-.062.312-.203Zm0 0" style="stroke:none"/></symbol><symbol id="x" overflow="visible"><path d="m5.594-.219-1.39.344-.22-.938a2.018 2.018 0 0 1-.718.688 1.89 1.89 0 0 1-.954.25c-.328 0-.593-.063-.796-.156a.948.948 0 0 1-.438-.485C.984-.719.953-.984.953-1.296v-1.985c0-.203-.015-.344-.047-.453a.477.477 0 0 0-.219-.25c-.109-.063-.28-.094-.5-.141v-.188c.094.016.235.016.407.032.187.015.328.015.422.015.078 0 .218 0 .39-.015.172-.016.297-.016.39-.032v2.735c0 .406.048.734.157 1 .094.265.328.39.672.39.25 0 .469-.062.688-.203.203-.14.374-.312.5-.546.124-.22.171-.47.171-.72V-3.28c0-.203-.015-.344-.03-.453a.52.52 0 0 0-.204-.25c-.11-.063-.281-.094-.516-.141v-.188c.141 0 .25.016.375.016.125.016.266.031.454.031.171 0 .312-.015.421-.03.094 0 .22 0 .36-.016v3.218c0 .203.015.375.062.5.032.11.14.172.297.172.047 0 .094 0 .156-.016.063 0 .141 0 .235-.015Zm0 0" style="stroke:none"/></symbol><symbol id="r" overflow="visible"><path d="M5.406-2.094c0 .39-.093.781-.281 1.11-.172.343-.438.609-.766.812a2.055 2.055 0 0 1-1.093.297c-.313 0-.563-.047-.797-.14a1.683 1.683 0 0 1-.656-.422V1.78c0 .188.015.328.046.422a.35.35 0 0 0 .204.219c.109.047.28.078.515.094v.187c-.125 0-.281 0-.515-.015H.812c-.234.015-.406.015-.546.015v-.187c.218-.016.359-.047.468-.094a.37.37 0 0 0 .188-.219c.031-.078.047-.219.047-.39v-4.188c0-.64-.016-1.031-.063-1.188-.031-.14-.078-.234-.156-.265-.078-.047-.203-.063-.344-.063H.234v-.203c.22-.015.704-.11 1.454-.297v.829h.015c.39-.547.89-.829 1.484-.829.329 0 .626.063.907.172.265.125.5.282.703.485.203.218.36.453.453.718.094.282.156.579.156.922Zm-1-.031c0-.328-.047-.64-.125-.938a1.452 1.452 0 0 0-.437-.734c-.188-.187-.469-.281-.797-.281-.235 0-.422.062-.594.156-.187.11-.328.235-.422.406a1.634 1.634 0 0 0-.187.5 6.449 6.449 0 0 0-.032.641v.703c0 .25.016.469.032.64a.764.764 0 0 0 .203.438c.219.281.547.406.969.406.484 0 .843-.187 1.062-.578.219-.375.328-.828.328-1.359Zm0 0" style="stroke:none"/></symbol><symbol id="j" overflow="visible"><path d="M8.297.016C8.157.016 7.984 0 7.766 0c-.22 0-.422-.016-.594-.016-.188 0-.375.016-.61.016-.218 0-.375.016-.5.016v-.204c.22 0 .375-.03.47-.078a.302.302 0 0 0 .171-.218c.031-.094.047-.235.047-.422v-1.781c0-.266-.016-.5-.063-.704a.965.965 0 0 0-.25-.484c-.14-.14-.343-.203-.609-.203a.936.936 0 0 0-.562.187 1.251 1.251 0 0 0-.422.485c-.047.11-.078.234-.094.39-.016.172-.016.36-.016.61v1.219c0 .093-.015.171-.015.218v.156c0 .22.047.375.125.47.078.109.265.156.562.156v.203c-.11 0-.281-.016-.5-.016-.218 0-.406-.016-.593-.016-.188 0-.375.016-.61.016-.219 0-.39.016-.515.016v-.204c.203 0 .359-.03.453-.078a.33.33 0 0 0 .187-.218c.031-.079.047-.22.047-.391v-1.813c0-.265-.016-.5-.063-.703a.88.88 0 0 0-.265-.484c-.14-.14-.344-.203-.61-.203a.86.86 0 0 0-.562.203 1.023 1.023 0 0 0-.39.469.825.825 0 0 0-.11.406c-.031.156-.031.344-.031.594v1.593c0 .22.031.375.11.47.093.109.265.156.562.156v.203C2.39.016 2.219 0 2.016 0c-.204 0-.391-.016-.579-.016-.203 0-.406.016-.625.016C.595 0 .406.016.297.016v-.204c.219 0 .375-.03.469-.078.109-.046.171-.125.187-.218C.984-.578 1-.72 1-.906v-1.469c0-.64-.016-1.031-.047-1.188-.031-.124-.094-.218-.172-.25a.699.699 0 0 0-.344-.078H.266v-.203c.203-.015.453-.062.75-.14.296-.079.53-.141.64-.157l.11.813c.39-.547.89-.813 1.515-.813.313 0 .594.079.844.204.25.125.422.328.516.609a1.75 1.75 0 0 1 .656-.61c.25-.125.547-.203.875-.203.516 0 .89.157 1.156.47.125.155.188.327.234.546.032.219.047.484.047.781v1.766c0 .156.016.281.047.375.032.078.078.14.188.187.093.047.234.079.453.079Zm0 0" style="stroke:none"/></symbol><symbol id="o" overflow="visible"><path d="M3.328-.5a.778.778 0 0 1-.265.36 1.32 1.32 0 0 1-.422.203 2.571 2.571 0 0 1-.485.062C1.36.125.953-.203.953-.891v-3.062H.438v-.188c.625-.359 1.046-.78 1.218-1.265h.157v1.187h1.125v.266H1.812v2.86c0 .265.032.484.125.655.079.172.25.25.5.25a.867.867 0 0 0 .266-.046.876.876 0 0 0 .235-.157c.046-.062.124-.14.203-.234Zm0 0" style="stroke:none"/></symbol><symbol id="k" overflow="visible"><path d="M4.797-.547a1.235 1.235 0 0 1-.375.485.873.873 0 0 1-.516.187.86.86 0 0 1-.547-.188.986.986 0 0 1-.312-.515c-.594.484-1.14.703-1.672.703a1.19 1.19 0 0 1-.719-.219.766.766 0 0 1-.312-.656c0-.203.031-.375.14-.516a1.53 1.53 0 0 1 .375-.406 2.11 2.11 0 0 1 .516-.297c.172-.078.36-.172.547-.265l.984-.47c.047-.03.078-.093.078-.202V-3c0-.266-.015-.484-.046-.656a.548.548 0 0 0-.25-.36c-.126-.093-.313-.14-.579-.14-.296 0-.53.031-.671.11-.172.062-.25.218-.25.452a.695.695 0 0 1-.125.313c-.079.094-.157.125-.282.125-.125 0-.219-.031-.281-.094a.368.368 0 0 1-.094-.266c0-.218.094-.39.313-.53a2.29 2.29 0 0 1 .734-.266c.281-.047.547-.079.781-.079.391 0 .688.047.922.125.25.079.406.22.531.438.11.219.172.515.172.875v1.797c0 .562.11.843.344.843a.348.348 0 0 0 .203-.062c.032-.047.11-.125.203-.25ZM3-.828v-1.64c-.172.077-.36.171-.563.265-.203.094-.39.187-.562.312-.172.125-.313.25-.438.407a.723.723 0 0 0-.171.5c0 .187.046.375.171.515.11.14.266.203.47.203.171 0 .359-.046.546-.171.203-.11.375-.235.547-.391Zm0 0" style="stroke:none"/></symbol><symbol id="d" overflow="visible"><path d="M3.969-3.875a.333.333 0 0 1-.11.25.302.302 0 0 1-.234.11.404.404 0 0 1-.219-.063.625.625 0 0 1-.156-.188c-.047-.078-.094-.156-.14-.187a.297.297 0 0 0-.204-.078.715.715 0 0 0-.437.156.995.995 0 0 0-.344.328c-.11.188-.172.375-.188.578a4.822 4.822 0 0 0-.046.735v1.359c0 .266.046.438.125.531.078.11.296.156.64.156v.204C2.546.016 2.36 0 2.141 0c-.235 0-.438-.016-.641-.016-.188 0-.406.016-.625.016C.656 0 .469.016.344.016v-.204c.219 0 .375-.03.469-.078C.921-.312.984-.39 1-.484c.016-.094.047-.235.047-.422v-1.531c0-.61-.031-.985-.063-1.126-.03-.14-.093-.234-.171-.265-.079-.047-.188-.063-.329-.063H.328v-.203c.188 0 .438-.047.75-.14.328-.079.516-.141.594-.157.078.266.125.579.125.891v.125h.016c.14-.328.328-.563.562-.75.25-.172.547-.266.89-.266a.97.97 0 0 1 .485.125c.14.094.219.22.219.391Zm0 0" style="stroke:none"/></symbol><symbol id="z" overflow="visible"><path d="M4.344-4.11a.739.739 0 0 0-.297.094.494.494 0 0 0-.156.22 3.44 3.44 0 0 0-.141.327l-.125.297-2.078 4.797a1.507 1.507 0 0 0-.14.313c-.063.125-.126.25-.188.359-.063.11-.157.203-.235.281-.093.078-.187.125-.28.125H.64a.224.224 0 0 1-.172-.078c-.031-.063-.063-.11-.063-.172 0-.125.031-.219.11-.281.062-.063.171-.125.328-.219.156-.078.265-.156.328-.25.094-.14.234-.437.453-.906L2-.047.594-3.328a5.673 5.673 0 0 0-.297-.578c-.063-.031-.125-.078-.219-.14-.094-.032-.172-.063-.234-.063v-.204c.11.016.281.016.5.032.234.015.406.015.515.015.125 0 .329 0 .579-.015.25-.016.437-.016.562-.032v.204c-.016.015-.094.03-.219.046a.737.737 0 0 0-.297.11c-.062.031-.093.11-.093.203 0 .063.015.188.062.328.047.156.11.313.172.469.063.156.125.297.172.406l.64 1.516.75-1.797c.188-.438.282-.735.282-.922 0-.125-.063-.203-.172-.266a1.587 1.587 0 0 0-.39-.093v-.204c.093.016.218.016.39.032.156.015.297.015.39.015.063 0 .172 0 .329-.015.14-.016.25-.016.328-.032Zm0 0" style="stroke:none"/></symbol><symbol id="n" overflow="visible"><path d="M5.61-.203 4.265.125c-.11-.188-.172-.438-.204-.75-.218.266-.437.453-.687.578-.266.11-.563.172-.875.172-.422 0-.781-.094-1.094-.281a1.849 1.849 0 0 1-.75-.797 2.269 2.269 0 0 1-.281-1.125c0-.406.078-.781.266-1.14.171-.345.421-.626.765-.845A1.917 1.917 0 0 1 2.5-4.39c.281 0 .547.047.797.157.25.093.469.25.64.468v-1.593c0-.22-.015-.407-.046-.516a.576.576 0 0 0-.204-.313c-.093-.062-.265-.109-.5-.109v-.187l1.61-.329v5.047c0 .532.016.86.078 1.032.063.156.14.25.234.28.094.048.235.048.407.048h.093ZM3.936-1.641v-1.421c0-.297-.124-.532-.374-.735a1.296 1.296 0 0 0-.829-.281c-.328 0-.593.094-.796.297a1.7 1.7 0 0 0-.438.765 3.865 3.865 0 0 0-.125.938c0 .531.11.984.313 1.375.218.375.562.562 1.046.562.422 0 .735-.125.922-.406.188-.281.281-.64.281-1.094Zm0 0" style="stroke:none"/></symbol><symbol id="R" overflow="visible"><path d="M5.094.016C4.954.016 4.797 0 4.578 0c-.219 0-.422-.016-.61-.016-.202 0-.405.016-.624.016-.235 0-.406.016-.547.016v-.204h.11c.312 0 .468-.046.468-.187 0-.063-.078-.188-.219-.36l-.86-1-.405.5c-.094.126-.188.266-.297.407-.11.14-.157.265-.157.344 0 .109.047.187.157.218a.861.861 0 0 0 .39.079v.203C1.875.016 1.734 0 1.547 0c-.172 0-.344-.016-.5-.016C.875-.016.703 0 .53 0 .344 0 .203.016.11.016v-.204c.25 0 .454-.046.641-.187.188-.14.375-.344.578-.61l.781-.968L.766-3.656c-.11-.156-.22-.281-.297-.328a.694.694 0 0 0-.36-.125v-.204c.094.016.266.016.516.032.234.015.422.015.531.015.11 0 .297 0 .532-.015.25-.016.437-.016.546-.032v.204c-.015.015-.078.015-.187.03a.949.949 0 0 0-.266.063c-.078.032-.093.063-.093.11 0 .062.015.125.078.203.062.094.14.187.203.265.078.094.14.172.218.25l.516.626.485-.626s.03-.046.078-.109a.974.974 0 0 0 .14-.187c.047-.063.094-.125.11-.172.03-.047.03-.078.03-.125 0-.11-.062-.188-.171-.25a.852.852 0 0 0-.344-.078v-.204c.094.016.25.016.453.032a5.4 5.4 0 0 0 .454.015c.093 0 .234 0 .421-.015.188-.016.329-.016.438-.032v.204c-.234.015-.422.062-.531.171-.141.094-.313.266-.5.5l-.907 1.063L4.234-.781c.094.14.188.234.266.312.063.078.156.14.234.188.094.047.22.078.36.094Zm0 0" style="stroke:none"/></symbol><symbol id="H" overflow="visible"><path d="M1.875-.453a.567.567 0 0 1-.172.406.595.595 0 0 1-.406.172.584.584 0 0 1-.39-.156.48.48 0 0 1-.173-.39c0-.142.047-.282.141-.407a.495.495 0 0 1 .39-.188c.157 0 .298.063.423.172.125.11.187.235.187.39Zm0 0" style="stroke:none"/></symbol><symbol id="a" overflow="visible"><path d="M3.281.016C3.11.016 2.891 0 2.61 0c-.28 0-.53-.016-.765-.016-.266 0-.532.016-.828.016C.734 0 .5.016.328.016v-.22c.219 0 .406-.015.547-.062.14-.03.25-.14.313-.28.062-.173.093-.61.093-1.298v-2.89c0-.688-.031-1.11-.093-1.297a.506.506 0 0 0-.313-.282 2.512 2.512 0 0 0-.547-.062v-.219c.156 0 .39.016.719.032.312.015.547.015.719.015.171 0 .421 0 .75-.016.328-.015.578-.03.765-.03v.218a2.71 2.71 0 0 0-.578.063.423.423 0 0 0-.281.28c-.078.188-.11.61-.11 1.298v2.89c0 .688.032 1.125.11 1.297.047.14.14.25.281.281.14.047.344.063.578.063Zm0 0" style="stroke:none"/></symbol><symbol id="c" overflow="visible"><path d="M5.297-2.156A2.4 2.4 0 0 1 5-1c-.203.344-.453.625-.797.828a2.181 2.181 0 0 1-1.14.297c-.188 0-.376-.031-.563-.063a1.823 1.823 0 0 1-.547-.218A1.46 1.46 0 0 1 1.531-.5l-.484.563h-.14v-5.047c0-.563-.032-.922-.095-1.063-.015-.047-.062-.078-.109-.125a.468.468 0 0 0-.156-.062c-.063-.016-.11-.032-.172-.032-.063 0-.125-.015-.203-.03v-.188l1.594-.329v2.985a1.77 1.77 0 0 1 .609-.438c.219-.078.469-.125.75-.125.313 0 .594.063.86.188.265.11.5.266.703.469.187.203.343.437.437.718.11.266.172.563.172.86Zm-1 .031c0-.328-.047-.656-.14-.938a1.624 1.624 0 0 0-.454-.734c-.219-.187-.5-.281-.828-.281-.188 0-.39.047-.578.14-.203.11-.344.235-.422.391-.078.156-.11.406-.11.735v1.624c0 .344.079.61.282.782.172.187.437.265.797.265.531 0 .89-.187 1.11-.562.233-.39.343-.86.343-1.422Zm0 0" style="stroke:none"/></symbol><symbol id="g" overflow="visible"><path d="M4.016-6.078a.281.281 0 0 1-.11.234.373.373 0 0 1-.219.078c-.171 0-.296-.093-.359-.28a1.09 1.09 0 0 0-.219-.329.595.595 0 0 0-.375-.11c-.39 0-.671.173-.796.47a2.647 2.647 0 0 0-.125.53c-.016.204-.016.438-.016.704v.687H3.03v.282H1.797v2.64c0 .266.016.469.078.625a.653.653 0 0 0 .172.235.737.737 0 0 0 .234.093c.078.016.172.032.281.032h.329v.203C2.734.016 2.516 0 2.234 0c-.28 0-.546-.016-.78-.016-.22 0-.47.016-.75.016-.266 0-.47.016-.626.016v-.204c.266 0 .469-.046.594-.109.125-.062.187-.156.234-.297.031-.11.047-.312.047-.594v-2.625H.156v-.28h.797v-.532c0-.672.14-1.188.422-1.547.281-.36.766-.531 1.422-.531.281 0 .562.047.828.14.25.094.39.25.39.485Zm0 0" style="stroke:none"/></symbol><symbol id="h" overflow="visible"><path d="M2.016-.156c0 .281-.063.5-.172.703-.125.203-.25.36-.39.469-.141.109-.391.28-.75.515l-.11-.187c.297-.219.531-.422.719-.625.171-.203.28-.438.28-.672 0-.047-.015-.078-.015-.11a.648.648 0 0 1-.312.094.57.57 0 0 1-.375-.125.518.518 0 0 1-.157-.375c0-.156.063-.297.172-.39a.518.518 0 0 1 .375-.157c.219 0 .407.079.532.25.125.188.203.391.203.61Zm0 0" style="stroke:none"/></symbol><symbol id="l" overflow="visible"><path d="M5.188-3.938a.332.332 0 0 1-.11.235.281.281 0 0 1-.234.11.318.318 0 0 1-.235-.095c-.062-.062-.125-.109-.187-.171a.318.318 0 0 0-.234-.094c-.125 0-.25.078-.407.187.235.282.375.61.375.985 0 .547-.187.937-.531 1.172-.344.234-.813.375-1.39.39a4.444 4.444 0 0 0-.782.094c-.187.047-.297.156-.297.328a.27.27 0 0 0 .078.203.785.785 0 0 0 .204.078.817.817 0 0 0 .28.047c.095 0 .157.016.204.016l.672.016c.312.03.578.046.812.078.235.03.438.093.64.171.204.11.36.235.47.422.125.203.187.454.187.782a1.8 1.8 0 0 1-.187.78c-.141.22-.313.391-.532.516-.218.141-.468.235-.718.297a3.637 3.637 0 0 1-.829.094c-.53 0-1-.11-1.453-.328-.437-.219-.656-.547-.656-1 0-.219.078-.422.219-.578a.615.615 0 0 1 .515-.25c.141 0 .282.047.422.156-.171.031-.28.125-.375.266a.827.827 0 0 0-.14.469c0 .375.156.64.469.796.296.157.671.235 1.109.235.406 0 .75-.094 1.031-.281a.95.95 0 0 0 .438-.829c0-.234-.063-.421-.172-.546a.878.878 0 0 0-.438-.297 2.144 2.144 0 0 0-.531-.11c-.188 0-.39-.015-.64-.015a7.112 7.112 0 0 1-.829-.079C1.203.297 1.046.204.875.095.719-.031.656-.234.656-.5c0-.234.078-.422.266-.578.172-.156.375-.25.61-.297v-.016a1.523 1.523 0 0 1-.766-.53 1.311 1.311 0 0 1-.313-.845c0-.328.094-.64.266-.875a1.88 1.88 0 0 1 .687-.562c.297-.11.61-.188.938-.188.234 0 .469.047.687.11.219.078.422.187.578.328.36-.281.688-.422.97-.422.155 0 .296.047.405.11.125.077.204.187.204.327ZM3.296-2.78a1.94 1.94 0 0 0-.25-.969c-.156-.266-.422-.406-.75-.406-.25 0-.438.062-.594.203-.14.14-.25.297-.297.515a2.22 2.22 0 0 0-.093.657c0 .344.062.656.234.937.156.266.39.39.734.39a.886.886 0 0 0 .578-.187c.157-.125.266-.296.344-.484a2.22 2.22 0 0 0 .094-.656Zm0 0" style="stroke:none"/></symbol><symbol id="q" overflow="visible"><path d="M7.14.016C6.97.016 6.735 0 6.423 0c-.328 0-.61-.016-.86-.016-.265 0-.53.016-.828.016-.296 0-.546.016-.703.016v-.22h.125c.469 0 .719-.093.719-.296 0-.125-.266-.516-.781-1.156L2.875-3.125l-.625.656v1.188c0 .343.016.578.047.703.015.125.11.219.234.265.125.047.36.094.703.11v.219C3.063.016 2.844 0 2.563 0c-.266 0-.547-.016-.782-.016-.265 0-.531.016-.828.016C.656 0 .406.016.25.016v-.22c.234 0 .422-.015.563-.062.14-.03.234-.125.296-.28.079-.173.11-.61.11-1.298v-2.89c0-.688-.032-1.11-.11-1.297a.443.443 0 0 0-.296-.282 2.55 2.55 0 0 0-.563-.062v-.219c.156 0 .406.016.719.032.328.015.547.015.719.015.156 0 .421 0 .765-.016.344-.015.61-.03.781-.03v.218c-.359.047-.593.078-.718.125a.346.346 0 0 0-.22.266c-.03.14-.046.359-.046.703v2.437c.234-.25.547-.578.922-1a17.39 17.39 0 0 0 1.031-1.25c.297-.406.453-.703.453-.875a.339.339 0 0 0-.078-.218.328.328 0 0 0-.172-.125 1.376 1.376 0 0 0-.265-.032.761.761 0 0 1-.235-.031v-.219c.14 0 .328.016.594.032a9.3 9.3 0 0 0 .594.015c.11 0 .281 0 .515-.016.22-.015.407-.03.516-.03v.218a2.03 2.03 0 0 0-.422.063c-.11.046-.187.093-.266.156-.093.093-.187.203-.312.343l-1.594 2 1.39 1.579c.016.03.079.109.22.28.125.173.312.391.53.657.22.266.391.469.516.61.125.14.25.25.36.328a.62.62 0 0 0 .187.109.784.784 0 0 0 .188.031.894.894 0 0 0 .219.016Zm0 0" style="stroke:none"/></symbol><symbol id="t" overflow="visible"><path d="M2.406-1.906H0v-.657h2.406Zm0 0" style="stroke:none"/></symbol><symbol id="u" overflow="visible"><path d="M8.516.016C8.344.016 8.094 0 7.812 0c-.296 0-.546-.016-.796-.016S6.484 0 6.187 0c-.296 0-.53.016-.687.016v-.22c.344-.015.578-.062.703-.109a.366.366 0 0 0 .234-.265c.032-.125.047-.36.047-.703v-4.36H6.47L5.344-2.859c-.11.234-.203.484-.313.75-.125.265-.218.484-.297.671l-.25.547c-.078.188-.218.485-.39.907h-.11L1.547-5.641H1.53v4.204c0 .28.016.515.063.687a.753.753 0 0 0 .297.39c.14.094.343.157.609.157v.219C2.375.016 2.203 0 1.984 0c-.218 0-.421-.016-.593-.016-.188 0-.375.016-.579.016C.595 0 .438.016.344.016v-.22c.344 0 .562-.077.703-.25.125-.171.187-.39.187-.655v-4.266c0-.281-.03-.5-.078-.656a.506.506 0 0 0-.312-.282 2.55 2.55 0 0 0-.563-.062v-.219c.516.032.844.047 1.016.047.14 0 .437-.016.922-.047l2.187 5.125 2.14-5.125c.47.032.798.047.954.047.125 0 .453-.016.984-.047v.235c-.218 0-.39.03-.546.062a.506.506 0 0 0-.313.281c-.078.141-.11.516-.11 1.11v3.625c0 .343.016.578.048.703a.387.387 0 0 0 .25.265c.125.047.359.094.703.11Zm0 0" style="stroke:none"/></symbol><symbol id="y" overflow="visible"><path d="M4.313-.625a2.231 2.231 0 0 1-.782.563 2.748 2.748 0 0 1-.984.187c-.313 0-.594-.047-.86-.14a2.17 2.17 0 0 1-.671-.438 1.821 1.821 0 0 1-.454-.688 2.189 2.189 0 0 1-.156-.843c0-.454.094-.86.313-1.235.219-.36.5-.656.875-.86a2.602 2.602 0 0 1 1.25-.312c.297 0 .594.047.875.157.281.093.437.265.437.5 0 .109-.047.187-.11.265a.297.297 0 0 1-.234.125c-.187 0-.343-.14-.437-.406a.974.974 0 0 0-.188-.297.815.815 0 0 0-.39-.078c-.344 0-.61.094-.828.297-.203.203-.36.453-.438.75a3.09 3.09 0 0 0-.125.937c0 .563.11 1.016.328 1.391.22.375.579.563 1.11.563.234 0 .453-.047.672-.172.218-.11.421-.266.578-.454Zm0 0" style="stroke:none"/></symbol><symbol id="A" overflow="visible"><path d="M4.797-2.14c0 .343-.094.656-.234.937-.157.266-.36.516-.61.719-.265.203-.547.359-.86.468a3.38 3.38 0 0 1-.968.141c-.219 0-.469-.031-.719-.078a1.638 1.638 0 0 1-.64-.313.668.668 0 0 1-.282-.562c0-.11.047-.188.141-.266a.37.37 0 0 1 .297-.125c.172 0 .297.047.36.125.062.094.124.235.187.422.078.188.172.328.297.438.109.093.312.14.593.14.344 0 .625-.078.844-.25.203-.172.36-.39.453-.656.078-.266.125-.578.125-.922 0-.453-.078-.812-.219-1.11-.156-.28-.437-.421-.843-.421-.203 0-.344.031-.422.11a2.764 2.764 0 0 0-.328.359c-.14.171-.266.25-.375.25-.047 0-.11 0-.14-.047a.177.177 0 0 1-.048-.125c0-.078.032-.14.11-.219.046-.063.14-.11.218-.172.094-.047.172-.078.22-.125.327-.203.593-.39.78-.547.204-.156.36-.344.47-.578.124-.219.187-.484.187-.797 0-.312-.079-.562-.235-.765-.156-.188-.39-.297-.703-.297-.297 0-.562.093-.765.25-.204.172-.297.39-.297.672 0 .187.046.343.171.484.11.14.25.203.438.203s.375-.062.578-.219a.699.699 0 0 1-.203.344.636.636 0 0 1-.313.219 1.174 1.174 0 0 1-.406.078.885.885 0 0 1-.453-.11.791.791 0 0 1-.328-.312.774.774 0 0 1-.11-.422c0-.234.047-.453.172-.64.125-.188.266-.344.47-.47a1.98 1.98 0 0 1 .609-.28c.218-.063.453-.094.687-.094.281 0 .531.047.797.14.25.079.453.22.625.407.156.203.234.453.234.718 0 .422-.156.75-.453 1.016-.297.266-.703.5-1.203.734l.031.016h.094c.047 0 .078-.015.125-.015h.094c.312 0 .61.062.875.171a1.494 1.494 0 0 1 .875 1.375Zm0 0" style="stroke:none"/></symbol><symbol id="B" overflow="visible"><path d="M4.813-3.344c0 .344-.047.719-.125 1.11a4.751 4.751 0 0 1-.422 1.14c-.172.36-.422.657-.72.89-.296.22-.64.329-1.03.329-.36 0-.672-.11-.938-.328-.281-.219-.5-.5-.672-.86a3.808 3.808 0 0 1-.39-1.093 4.504 4.504 0 0 1-.141-1.047c0-.453.078-.969.25-1.516a3.8 3.8 0 0 1 .75-1.406c.344-.39.766-.578 1.266-.578.359 0 .687.11.968.328.282.219.5.5.688.828a6.2 6.2 0 0 1 .39 1.11c.079.39.125.75.125 1.093Zm-1-.672c0-.375-.032-.75-.094-1.125-.063-.375-.172-.687-.344-.953-.172-.25-.406-.39-.688-.39-.374 0-.64.14-.796.421-.172.282-.297.625-.375 1.047L1.375-3.03c-.016.187-.016.344-.016.515 0 .391.032.766.094 1.125.063.36.172.672.36.922.171.266.39.375.703.375.375 0 .671-.14.843-.469.188-.312.282-.671.329-1.093l.124-1.969v-.39Zm0 0" style="stroke:none"/></symbol><symbol id="C" overflow="visible"><path d="M8.094-1.953c0 .25-.047.531-.125.828a3.205 3.205 0 0 1-.344.781c-.172.25-.36.422-.578.578a1.39 1.39 0 0 1-.781.235c-.454 0-.813-.156-1.079-.422-.28-.281-.421-.64-.421-1.094 0-.266.046-.547.14-.828.11-.281.25-.531.438-.766a1.96 1.96 0 0 1 .64-.546c.25-.126.532-.204.813-.204.266 0 .5.079.703.188.188.125.344.297.438.515.109.22.156.454.156.735ZM7.03-7.297 2.25.734h-.406l4.218-7.14-.015-.032c-.125.094-.25.141-.39.204-.126.046-.25.093-.391.125-.125.046-.25.046-.391.046a2.37 2.37 0 0 1-.781-.156c.062.203.11.438.11.688a2.8 2.8 0 0 1-.235 1.078c-.156.39-.36.687-.625.937-.281.266-.578.391-.922.391-.313 0-.578-.063-.813-.203a1.5 1.5 0 0 1-.546-.578 1.73 1.73 0 0 1-.188-.813c0-.343.094-.687.281-1.062.172-.36.407-.657.719-.907a1.766 1.766 0 0 1 1.016-.343c.203 0 .375.031.515.093.125.063.281.141.438.25.172.125.328.22.469.282.14.062.312.078.53.078.657 0 1.266-.328 1.845-.969Zm.735 5.25c0-.125-.016-.25-.047-.39a1.155 1.155 0 0 0-.157-.344.957.957 0 0 0-.265-.235.707.707 0 0 0-.375-.109c-.219 0-.406.094-.578.25-.188.172-.328.39-.438.64-.125.25-.218.5-.297.782a2.66 2.66 0 0 0-.109.687c0 .266.063.5.203.688a.75.75 0 0 0 .594.281c.297 0 .547-.14.781-.375.219-.234.39-.531.516-.89.11-.375.172-.688.172-.985ZM3.89-5.657c0-.187-.032-.359-.094-.53a1.188 1.188 0 0 0-.25-.407.756.756 0 0 0-.453-.156c-.281 0-.531.14-.75.406-.219.282-.406.61-.531 1-.11.375-.172.703-.172.969s.062.484.203.688c.14.203.328.28.578.28.297 0 .562-.109.781-.374.235-.25.39-.547.5-.906.125-.36.188-.688.188-.97Zm0 0" style="stroke:none"/></symbol><symbol id="D" overflow="visible"><path d="M5.516-4.86c0 .344-.079.641-.22.876a1.62 1.62 0 0 1-.609.562c-.265.14-.546.235-.843.281-.297.063-.61.079-.938.079h-.422c-.062 0-.109-.016-.14-.016-.047 0-.078-.016-.094-.016v1.219c0 .703.031 1.14.094 1.328a.423.423 0 0 0 .14.203c.063.047.141.078.25.11.11.015.204.03.297.03h.281v.22C3.126.016 2.892 0 2.595 0S2-.016 1.734-.016c-.234 0-.5.016-.78.016C.671 0 .437.016.265.016v-.22c.234 0 .421-.015.562-.062.14-.03.235-.14.297-.28.031-.11.063-.266.078-.516 0-.25.016-.532.016-.813v-2.844c0-.281-.016-.547-.016-.797a2.394 2.394 0 0 0-.078-.515c-.063-.14-.14-.235-.281-.282a2.099 2.099 0 0 0-.516-.062H.266v-.219c.171 0 .421.016.75.032.343.015.593.015.78.015.141 0 .345 0 .61-.016.266-.03.5-.03.688-.03h.11c.39 0 .765.062 1.108.187.36.11.641.312.875.562.22.266.329.578.329.985Zm-1.141.032c0-.5-.125-.875-.36-1.11-.25-.25-.609-.359-1.077-.359h-.016c-.344 0-.547.016-.61.047-.046.047-.062.125-.062.266v2.64h.188a.814.814 0 0 0 .218.031h.172c.516 0 .906-.124 1.156-.374.25-.235.391-.61.391-1.141Zm0 0" style="stroke:none"/></symbol><symbol id="E" overflow="visible"><path d="m3.703 1.734-.219.204a8.242 8.242 0 0 1-.859-.985 5.945 5.945 0 0 1-.64-1.031 4.631 4.631 0 0 1-.423-1.156 4.81 4.81 0 0 1-.156-1.25c0-.532.078-1.047.25-1.563.157-.516.39-1.016.688-1.469.297-.468.64-.89 1.062-1.296l.219.187c-.39.516-.688.969-.89 1.344a5.39 5.39 0 0 0-.438 1.218c-.094.438-.125.954-.125 1.547 0 .86.11 1.641.344 2.329.25.671.64 1.312 1.187 1.921Zm0 0" style="stroke:none"/></symbol><symbol id="F" overflow="visible"><path d="M9.203-6.375h-.031a.786.786 0 0 0-.422.125.734.734 0 0 0-.266.313c-.078.125-.14.28-.187.453-.063.187-.094.328-.14.437L6.515.203h-.344l-1.578-5.11h-.016l-.781 2.72c-.094.312-.25.765-.469 1.374-.219.61-.344.938-.36 1.016h-.327L.875-5.187C.844-5.282.812-5.375.765-5.5a3.04 3.04 0 0 0-.124-.344.882.882 0 0 0-.125-.25.491.491 0 0 0-.297-.203c-.125-.031-.266-.047-.422-.078v-.219c.156 0 .39.016.719.032.312.015.562.015.718.015.172 0 .407 0 .735-.016.328-.015.578-.03.734-.03v.218c-.265.031-.5.078-.656.125-.156.047-.235.188-.235.375 0 .172.094.578.297 1.219l1.047 3.422h.031l1.579-5.36h.296l1.641 5.297h.031l.688-2.187c.062-.22.14-.47.219-.782.078-.296.156-.578.203-.843a2.82 2.82 0 0 0 .093-.579c0-.28-.062-.453-.187-.515-.125-.078-.344-.125-.672-.172v-.219c.125 0 .313.016.547.032.234.015.422.015.531.015.125 0 .297 0 .531-.016.22-.015.391-.03.516-.03Zm0 0" style="stroke:none"/></symbol><symbol id="G" overflow="visible"><path d="M6.688-6.375c-.204 0-.375.063-.516.14a.908.908 0 0 0-.344.344 4.114 4.114 0 0 0-.266.579c-.093.234-.156.39-.171.468L3.344.203h-.281L.905-5.14a3.236 3.236 0 0 1-.172-.421A2.545 2.545 0 0 0 .5-5.984a.86.86 0 0 0-.313-.266 1.286 1.286 0 0 0-.484-.125v-.219c.172 0 .39.016.703.032.297.015.531.015.688.015.172 0 .422 0 .75-.016.312-.015.562-.03.718-.03v.218c-.218 0-.406.031-.546.078a.345.345 0 0 0-.22.344c0 .156.079.469.25.937.157.485.329.938.5 1.36L3.564-1.11l.968-2.329c.032-.109.094-.265.188-.515.093-.235.187-.485.265-.735.079-.234.141-.468.204-.687.046-.219.078-.39.078-.5 0-.219-.063-.344-.172-.406-.125-.063-.313-.094-.547-.094H4.5v-.219c.125 0 .297.016.563.032.25.015.437.015.562.015.125 0 .313 0 .531-.016.235-.015.407-.03.532-.03Zm0 0" style="stroke:none"/></symbol><symbol id="I" overflow="visible"><path d="M4.953-6.39a21.408 21.408 0 0 0-1.922 5.28 7.27 7.27 0 0 1-.265.923.475.475 0 0 1-.47.312.495.495 0 0 1-.358-.14C1.843-.11 1.813-.22 1.813-.36c0-.172.078-.454.234-.844a19.3 19.3 0 0 1 .547-1.188c.219-.406.406-.765.562-1.062l1.203-2.25H1.938c-.25 0-.422.016-.532.047a.466.466 0 0 0-.265.187c-.079.094-.157.266-.235.532l-.11.343H.563l.563-2.734h.281l-.031.094a4.27 4.27 0 0 0-.063.406c0 .125.032.187.094.234.047.032.14.047.282.047h3.265Zm0 0" style="stroke:none"/></symbol><symbol id="J" overflow="visible"><path d="M2.969-2.406c0 .5-.047.937-.14 1.312-.095.39-.235.719-.392 1.032-.171.296-.39.625-.671 1-.297.375-.563.703-.782 1l-.218-.204c.28-.359.5-.703.687-1 .172-.312.328-.609.438-.906.109-.297.187-.625.234-.984.063-.36.078-.766.078-1.203 0-.563-.047-1.094-.14-1.579a5.98 5.98 0 0 0-.485-1.406 5.26 5.26 0 0 0-.89-1.281l.218-.188c.297.297.594.61.86.97.25.343.468.702.64 1.062.188.36.313.75.406 1.156.11.39.157.813.157 1.219Zm0 0" style="stroke:none"/></symbol><symbol id="K" overflow="visible"><path d="M6.438-5.031h-.266c-.016-.313-.078-.563-.188-.75a.795.795 0 0 0-.437-.375c-.188-.078-.438-.11-.75-.11H4.5c-.219 0-.39.016-.516.047-.109.032-.171.11-.171.203v4.75c0 .204 0 .36.03.485a.677.677 0 0 0 .5.5c.141.047.345.078.595.078v.219C4.734.016 4.484 0 4.155 0c-.312 0-.61-.016-.89-.016C3-.016 2.703 0 2.406 0c-.312 0-.562.016-.734.016v-.22c.312 0 .562-.046.719-.124a.581.581 0 0 0 .312-.328c.047-.14.078-.328.078-.61v-4.75a.216.216 0 0 0-.156-.203 1.937 1.937 0 0 0-.484-.047h-.204c-.39 0-.671.032-.875.063a.737.737 0 0 0-.453.328c-.109.172-.171.453-.171.844H.203v-1.563h6.14Zm0 0" style="stroke:none"/></symbol><symbol id="L" overflow="visible"><path d="M4.125.016C3.953.016 3.719 0 3.437 0c-.296 0-.562-.016-.812-.016-.11 0-.281.016-.469.016h-.5c-.14 0-.343 0-.562.016v-.22h.281c.14 0 .25-.015.328-.03a.735.735 0 0 0 .25-.063c.078-.047.14-.078.172-.14.063-.126.094-.47.094-1.016v-3.578c0-.469-.031-.766-.125-.89-.047-.126-.266-.173-.625-.173H.89v-.203c.203-.016.406-.031.593-.047.204-.031.391-.047.579-.093a2.64 2.64 0 0 0 .53-.141c.173-.063.345-.14.516-.234v5.375c0 .453.016.75.063.937.015.094.094.172.203.203a.91.91 0 0 0 .39.078c.172.016.282.016.36.016Zm0 0" style="stroke:none"/></symbol><symbol id="M" overflow="visible"><path d="M4.36-4.11a.96.96 0 0 0-.407.235c-.047.078-.14.234-.219.453-.093.219-.187.469-.28.719L2.265.203h-.204l-1.5-3.562a5.057 5.057 0 0 1-.187-.438A.765.765 0 0 0 .187-4a.745.745 0 0 0-.343-.11v-.202c.125.015.297.015.531.03.234.016.422.016.531.016.188 0 .531 0 1.031-.046v.203c-.39.015-.562.14-.562.343 0 .11.031.282.11.47l.984 2.421c.047-.14.125-.36.234-.64.125-.282.235-.563.344-.844.11-.282.219-.547.297-.797.078-.235.125-.422.125-.547 0-.14-.063-.235-.156-.281-.11-.063-.25-.11-.407-.125v-.204c.078.016.188.016.36.032.156.015.28.015.359.015.078 0 .219 0 .375-.015.156-.016.281-.016.36-.032Zm0 0" style="stroke:none"/></symbol><symbol id="P" overflow="visible"><path d="M6.828.016C6.672.016 6.453 0 6.172 0s-.531-.016-.766-.016c-.25 0-.5.016-.781.016s-.516.016-.672.016v-.22c.235 0 .422-.03.563-.062.14-.046.218-.14.218-.328 0-.156-.078-.422-.203-.781l-.39-1.031H1.656l-.078.265c-.047.125-.125.282-.203.485-.078.203-.14.406-.203.593a1.293 1.293 0 0 0-.078.438c0 .094.015.172.062.219.047.062.11.11.188.125a1.698 1.698 0 0 0 .563.078v.219C1.78.016 1.624 0 1.406 0c-.22 0-.423-.016-.595-.016C.625-.016.454 0 .25 0 .047 0-.094.016-.219.016v-.22c.266-.03.453-.093.594-.202.125-.094.25-.266.36-.5.093-.25.187-.469.28-.688.11-.203.188-.406.282-.61.078-.202.172-.405.25-.624L3.094-6.75h.328l2.015 5.078c.047.11.11.234.157.39.062.157.125.298.187.407.063.125.125.219.188.297.093.14.218.234.343.265.125.047.297.094.516.11ZM4-2.704 2.906-5.546l-1.11 2.844Zm0 0" style="stroke:none"/></symbol><symbol id="Q" overflow="visible"><path d="M5.219.016C5.156.016 5.094 0 5.016 0h-.204c-.062 0-.125-.016-.203-.016-.062 0-.14.016-.203.016h-.203c-.078 0-.14 0-.219.016l-1.89-2.032-.203.204v.968c0 .156.015.281.046.36.016.093.079.171.188.218.094.047.25.079.469.079v.203C2.454.016 2.297 0 2.078 0c-.219 0-.422-.016-.61-.016-.171 0-.374.016-.593.016-.219 0-.39.016-.531.016v-.204c.219 0 .375-.03.469-.078C.921-.312.984-.39 1-.484c.016-.094.047-.235.047-.422v-4.172c0-.5-.047-.828-.11-.969-.03-.047-.078-.078-.125-.125-.046-.031-.109-.047-.156-.062-.062-.016-.11-.032-.172-.032-.046 0-.125-.015-.203-.03v-.188l1.61-.329v4.688l.671-.719c.5-.515.766-.86.766-1.015 0-.157-.172-.25-.531-.25v-.204c.094.016.25.016.437.032a5.4 5.4 0 0 0 .454.015c.078 0 .218 0 .406-.015.187-.016.343-.016.437-.032v.204a2.44 2.44 0 0 0-.422.062.867.867 0 0 0-.265.172c-.078.078-.188.188-.297.328L2.625-2.5 4.547-.625c.062.078.14.156.187.219.063.062.141.11.204.14a.5.5 0 0 0 .28.079Zm0 0" style="stroke:none"/></symbol><symbol id="S" overflow="visible"><path d="M4.938-1.813c0 .422-.125.766-.344 1.079a2.078 2.078 0 0 1-.89.656 3.28 3.28 0 0 1-1.157.203c-.344 0-.64-.047-.922-.14a3.257 3.257 0 0 1-.828-.438l-.235.406H.438V-2h.235c.11.563.312 1.016.625 1.344.297.344.719.515 1.266.515.25 0 .5-.047.718-.14.219-.094.39-.235.516-.422a1.26 1.26 0 0 0 .187-.688c0-.203-.046-.406-.125-.562a1.102 1.102 0 0 0-.328-.422 2.876 2.876 0 0 0-.484-.313 4.685 4.685 0 0 0-.563-.25 7.066 7.066 0 0 1-.968-.453 1.93 1.93 0 0 1-.657-.625 1.553 1.553 0 0 1-.265-.906c0-.36.094-.672.265-.953a1.67 1.67 0 0 1 .704-.61c.312-.14.64-.218 1-.218.53 0 1.03.156 1.53.5l.22-.39h.109l.062 1.734h-.25c-.296-1.063-.843-1.594-1.671-1.594-.329 0-.61.11-.829.297a.993.993 0 0 0-.328.765c0 .25.063.454.188.625.11.157.25.282.422.36.14.093.39.203.718.343.454.188.829.375 1.141.547.297.172.547.407.75.688.203.281.313.625.313 1.015Zm0 0" style="stroke:none"/></symbol><symbol id="T" overflow="visible"><path d="M3.172-6.375c-.219 0-.406.031-.547.063a.506.506 0 0 0-.313.28c-.062.157-.093.516-.093 1.11V.422c0 .594-.125 1.078-.344 1.422a1.718 1.718 0 0 1-.734.61 2.97 2.97 0 0 1-1.032.171c-.203 0-.421-.016-.656-.063a1.638 1.638 0 0 1-.64-.218c-.172-.11-.266-.25-.266-.453 0-.125.047-.204.125-.282a.377.377 0 0 1 .281-.109c.234 0 .39.14.5.422.078.172.172.297.25.375.11.078.234.11.422.11.547 0 .875-.282 1-.845.031-.171.063-.39.063-.656v-6.343c0-.22-.032-.407-.11-.594a.443.443 0 0 0-.297-.282 2.55 2.55 0 0 0-.562-.062v-.219c.156 0 .406.016.719.032.328.015.562.015.718.015.157 0 .407 0 .75-.016.328-.015.578-.03.766-.03Zm0 0" style="stroke:none"/></symbol><symbol id="U" overflow="visible"><path d="M6.453-.11h-.14l-.235-.515a2.907 2.907 0 0 1-.672.438c-.218.124-.468.187-.718.234A4.345 4.345 0 0 1 2.5-.093a3.032 3.032 0 0 1-1.094-.688 2.874 2.874 0 0 1-.703-1.063 3.824 3.824 0 0 1-.25-1.36c0-.5.094-.968.266-1.39.172-.437.406-.812.734-1.125a3.13 3.13 0 0 1 1.11-.734c.421-.172.89-.25 1.39-.25.406 0 .75.047 1.047.14.297.079.625.25 1 .47l.156-.47h.14l.095 1.97h-.235a2.086 2.086 0 0 0-.234-.766 1.933 1.933 0 0 0-.453-.594c-.172-.172-.407-.297-.64-.39a2.166 2.166 0 0 0-.782-.141c-.438 0-.813.109-1.11.296a2.205 2.205 0 0 0-.718.75 4.013 4.013 0 0 0-.39 1.047 5.884 5.884 0 0 0-.126 1.188c0 .547.078 1.047.234 1.515.157.485.407.86.766 1.157.344.297.813.437 1.36.437.343 0 .625-.047.875-.172.25-.109.468-.265.625-.468a2.71 2.71 0 0 0 .421-.672c.11-.266.204-.547.282-.89h.187Zm0 0" style="stroke:none"/></symbol><symbol id="V" overflow="visible"><path d="M7.453-6.375c-.234.016-.406.031-.531.078-.125.031-.219.125-.266.281-.11.25-.156.766-.156 1.532v1.859c0 .625-.094 1.14-.266 1.547-.171.39-.437.703-.828.906-.39.203-.89.297-1.5.297A5.37 5.37 0 0 1 2.703 0c-.328-.078-.594-.203-.812-.406a1.568 1.568 0 0 1-.485-.75 3.438 3.438 0 0 1-.172-1.14v-2.438c0-.688-.03-1.11-.109-1.297a.443.443 0 0 0-.297-.282 2.55 2.55 0 0 0-.562-.062v-.219c.156 0 .39.016.718.032.313.015.547.015.704.015.171 0 .437 0 .765-.016.344-.015.594-.03.75-.03v.218h-.047c-.219 0-.39.031-.531.063-.14.046-.219.14-.281.28a1.01 1.01 0 0 0-.047.345c-.016.156-.031.312-.031.468v2.985c0 .437.062.812.187 1.109.11.297.313.516.594.672.281.156.64.234 1.094.234.671 0 1.187-.172 1.546-.515.344-.36.516-.875.516-1.563v-2.219c0-.718-.031-1.187-.11-1.39a.514.514 0 0 0-.312-.375 1.632 1.632 0 0 0-.593-.094v-.219c.125 0 .312.016.578.032.25.015.437.015.562.015.125 0 .313 0 .578-.016.25-.015.438-.03.547-.03Zm0 0" style="stroke:none"/></symbol><symbol id="m" overflow="visible"><path d="M5.688.016c-.141 0-.313-.016-.5-.016-.22 0-.422-.016-.61-.016-.187 0-.39.016-.625.016-.219 0-.39.016-.531.016v-.204c.312-.015.515-.078.594-.171.078-.094.125-.297.125-.579v-2.468a.623.623 0 0 0-.047-.266.179.179 0 0 0-.125-.11 1.65 1.65 0 0 0-.36-.03H1.86v2.937c0 .25.047.422.125.531.079.094.266.156.563.156v.204C2.422.016 2.25 0 2.047 0s-.406-.016-.594-.016c-.187 0-.406.016-.625.016C.61 0 .438.016.313.016v-.204c.171 0 .296-.015.39-.046A.551.551 0 0 0 .906-.36C.937-.422.97-.484.984-.563c.016-.062.032-.171.032-.328v-2.921H.28v-.282h.735v-.5c0-.718.171-1.265.5-1.61.343-.343.89-.5 1.609-.5.172 0 .344 0 .531.016.172.032.344.063.516.125a.827.827 0 0 1 .422.25c.11.11.172.25.172.422 0 .125-.047.204-.125.297a.45.45 0 0 1-.313.11c-.156 0-.25-.032-.281-.094a4.394 4.394 0 0 1-.14-.36c-.063-.187-.141-.328-.25-.406-.126-.093-.313-.14-.579-.14-.375 0-.64.078-.812.218a.912.912 0 0 0-.329.594c-.062.25-.078.563-.078.922v.656h1.704c.484 0 .968-.031 1.421-.14v3.39c0 .156.016.281.047.36a.302.302 0 0 0 .172.218c.11.047.25.079.484.079Zm0 0" style="stroke:none"/></symbol><symbol id="N" overflow="visible"><path d="M3.094 0H.813v-.14h.218c.094 0 .188 0 .25-.016a.47.47 0 0 0 .188-.047c.047-.031.093-.047.125-.094.047-.078.078-.297.078-.672v-2.39c0-.313-.031-.516-.094-.594-.047-.078-.203-.11-.469-.11H.672v-.14c.14 0 .297-.016.453-.031.14-.016.281-.032.422-.063.14-.016.281-.047.406-.094.11-.046.25-.093.375-.156v3.594c0 .297.016.5.047.625.016.062.063.11.156.14.078.016.172.047.297.047h.266Zm0 0" style="stroke:none"/></symbol><symbol id="O" overflow="visible"><path d="M3.781-1.422h-.86v.688c0 .078 0 .14.017.203 0 .078.015.14.03.203.032.062.079.11.173.14a.673.673 0 0 0 .265.047h.281V0H1.484v-.14c.172 0 .313 0 .422-.016.11-.016.188-.047.235-.094.093-.094.14-.344.14-.734v-.438h-2v-.234L2.734-4.5h.188v2.828h.86Zm-1.5-.25v-1.984H2.25L.562-1.672Zm0 0" style="stroke:none"/></symbol></defs><g style="fill:#000;fill-opacity:1"><use y="8.728" x="218.237" xlink:href="#a"/><use y="8.728" x="221.777" xlink:href="#b"/></g><g style="fill:#000;fill-opacity:1"><use y="8.728" x="231.617" xlink:href="#c"/><use y="8.728" x="237.137" xlink:href="#d"/><use y="8.728" x="241.087" xlink:href="#e"/><use y="8.728" x="243.787" xlink:href="#f"/><use y="8.728" x="248.787" xlink:href="#g"/><use y="8.728" x="251.907" xlink:href="#h"/></g><use y="20.747" x="7.84" xlink:href="#i" style="fill:#000;fill-opacity:1"/><use y="20.747" x="13.963" xlink:href="#f" style="fill:#000;fill-opacity:1"/><g style="fill:#000;fill-opacity:1"><use y="20.747" x="21.957" xlink:href="#j"/><use y="20.747" x="30.497" xlink:href="#k"/><use y="20.747" x="35.287" xlink:href="#l"/><use y="20.747" x="40.387" xlink:href="#b"/></g><use y="20.747" x="46.393" xlink:href="#e" style="fill:#000;fill-opacity:1"/><use y="20.747" x="49.112" xlink:href="#m" style="fill:#000;fill-opacity:1"/><g style="fill:#000;fill-opacity:1"><use y="20.747" x="55.008" xlink:href="#f"/><use y="20.747" x="60.008" xlink:href="#n"/></g><g style="fill:#000;fill-opacity:1"><use y="20.747" x="68.785" xlink:href="#o"/><use y="20.747" x="71.905" xlink:href="#p"/><use y="20.747" x="77.835" xlink:href="#f"/></g><g style="fill:#000;fill-opacity:1"><use y="20.747" x="85.85" xlink:href="#q"/><use y="20.747" x="92.411" xlink:href="#k"/><use y="20.747" x="97.201" xlink:href="#r"/><use y="20.747" x="102.921" xlink:href="#s"/><use y="20.747" x="105.621" xlink:href="#k"/><use y="20.747" x="110.411" xlink:href="#b"/><use y="20.747" x="116.341" xlink:href="#t"/></g><g style="fill:#000;fill-opacity:1"><use y="20.747" x="118.848" xlink:href="#u"/><use y="20.747" x="127.598" xlink:href="#f"/><use y="20.747" x="132.598" xlink:href="#e"/><use y="20.747" x="135.298" xlink:href="#f"/><use y="20.747" x="140.298" xlink:href="#d"/></g><g style="fill:#000;fill-opacity:1"><use y="20.747" x="147.252" xlink:href="#l"/><use y="20.747" x="152.352" xlink:href="#d"/></g><g style="fill:#000;fill-opacity:1"><use y="20.747" x="156.153" xlink:href="#k"/><use y="20.747" x="160.943" xlink:href="#r"/><use y="20.747" x="166.663" xlink:href="#p"/><use y="20.747" x="172.593" xlink:href="#v"/></g><g style="fill:#000;fill-opacity:1"><use y="20.747" x="179.171" xlink:href="#g"/><use y="20.747" x="182.291" xlink:href="#d"/></g><g style="fill:#000;fill-opacity:1"><use y="20.747" x="186.031" xlink:href="#w"/><use y="20.747" x="191.552" xlink:href="#j"/></g><g style="fill:#000;fill-opacity:1"><use y="20.747" x="203.154" xlink:href="#o"/><use y="20.747" x="206.274" xlink:href="#p"/><use y="20.747" x="212.204" xlink:href="#f"/></g><g style="fill:#000;fill-opacity:1"><use y="20.747" x="220.219" xlink:href="#r"/><use y="20.747" x="225.939" xlink:href="#x"/><use y="20.747" x="231.659" xlink:href="#c"/><use y="20.747" x="237.179" xlink:href="#s"/><use y="20.747" x="239.879" xlink:href="#e"/><use y="20.747" x="242.579" xlink:href="#y"/></g><g style="fill:#000;fill-opacity:1"><use y="20.747" x="247.263" xlink:href="#k"/><use y="20.747" x="252.053" xlink:href="#t"/></g><g style="fill:#000;fill-opacity:1"><use y="32.709" x="7.84" xlink:href="#o"/><use y="32.709" x="10.96" xlink:href="#e"/><use y="32.709" x="13.66" xlink:href="#w"/><use y="32.709" x="19.18" xlink:href="#b"/><use y="32.709" x="25.11" xlink:href="#v"/></g><g style="fill:#000;fill-opacity:1"><use y="32.709" x="32.106" xlink:href="#c"/><use y="32.709" x="37.626" xlink:href="#z"/></g><g style="fill:#000;fill-opacity:1"><use y="32.709" x="45.202" xlink:href="#A"/><use y="32.709" x="50.302" xlink:href="#B"/><use y="32.709" x="55.402" xlink:href="#B"/><use y="32.709" x="60.502" xlink:href="#C"/></g><g style="fill:#000;fill-opacity:1"><use y="32.709" x="72.926" xlink:href="#k"/><use y="32.709" x="77.716" xlink:href="#b"/><use y="32.709" x="83.646" xlink:href="#n"/></g><g style="fill:#000;fill-opacity:1"><use y="32.709" x="92.77" xlink:href="#e"/><use y="32.709" x="95.47" xlink:href="#j"/><use y="32.709" x="104.01" xlink:href="#r"/><use y="32.709" x="109.73" xlink:href="#w"/></g><g style="fill:#000;fill-opacity:1"><use y="32.709" x="115.335" xlink:href="#d"/><use y="32.709" x="119.285" xlink:href="#o"/><use y="32.709" x="122.405" xlink:href="#f"/><use y="32.709" x="127.405" xlink:href="#n"/></g><g style="fill:#000;fill-opacity:1"><use y="32.709" x="136.539" xlink:href="#o"/><use y="32.709" x="139.659" xlink:href="#p"/><use y="32.709" x="145.589" xlink:href="#f"/><use y="32.709" x="150.589" xlink:href="#j"/></g><g style="fill:#000;fill-opacity:1"><use y="32.709" x="162.619" xlink:href="#e"/><use y="32.709" x="165.319" xlink:href="#b"/><use y="32.709" x="171.249" xlink:href="#o"/><use y="32.709" x="174.369" xlink:href="#w"/></g><use y="32.709" x="183.313" xlink:href="#D" style="fill:#000;fill-opacity:1"/><g style="fill:#000;fill-opacity:1"><use y="32.709" x="188.87" xlink:href="#k"/><use y="32.709" x="193.66" xlink:href="#e"/><use y="32.709" x="196.36" xlink:href="#b"/><use y="32.709" x="202.29" xlink:href="#o"/></g><g style="fill:#000;fill-opacity:1"><use y="32.709" x="209.394" xlink:href="#E"/><use y="32.709" x="213.764" xlink:href="#u"/><use y="32.709" x="222.514" xlink:href="#e"/><use y="32.709" x="225.214" xlink:href="#y"/><use y="32.709" x="229.794" xlink:href="#d"/></g><g style="fill:#000;fill-opacity:1"><use y="32.709" x="233.546" xlink:href="#w"/><use y="32.709" x="239.066" xlink:href="#v"/><use y="32.709" x="242.606" xlink:href="#w"/><use y="32.709" x="248.126" xlink:href="#g"/><use y="32.709" x="251.246" xlink:href="#o"/></g><use y="44.728" x="7.84" xlink:href="#F" style="fill:#000;fill-opacity:1"/><g style="fill:#000;fill-opacity:1"><use y="44.728" x="16.571" xlink:href="#e"/><use y="44.728" x="19.271" xlink:href="#b"/><use y="44.728" x="25.201" xlink:href="#n"/><use y="44.728" x="30.921" xlink:href="#w"/></g><g style="fill:#000;fill-opacity:1"><use y="44.728" x="36.301" xlink:href="#i"/><use y="44.728" x="42.651" xlink:href="#v"/></g><use y="44.728" x="50.645" xlink:href="#G" style="fill:#000;fill-opacity:1"/><g style="fill:#000;fill-opacity:1"><use y="44.728" x="55.634" xlink:href="#H"/><use y="44.728" x="58.134" xlink:href="#I"/><use y="44.728" x="63.234" xlink:href="#J"/><use y="44.728" x="67.604" xlink:href="#H"/></g><use y="44.728" x="74.627" xlink:href="#K" style="fill:#000;fill-opacity:1"/><g style="fill:#000;fill-opacity:1"><use y="44.728" x="79.786" xlink:href="#f"/><use y="44.728" x="84.786" xlink:href="#b"/></g><g style="fill:#000;fill-opacity:1"><use y="44.728" x="95.208" xlink:href="#w"/><use y="44.728" x="100.728" xlink:href="#g"/></g><g style="fill:#000;fill-opacity:1"><use y="44.728" x="108.361" xlink:href="#L"/><use y="44.728" x="113.461" xlink:href="#L"/></g><g style="fill:#000;fill-opacity:1"><use y="44.728" x="122.988" xlink:href="#r"/><use y="44.728" x="128.708" xlink:href="#x"/><use y="44.728" x="134.428" xlink:href="#c"/><use y="44.728" x="139.948" xlink:href="#s"/><use y="44.728" x="142.648" xlink:href="#e"/><use y="44.728" x="145.348" xlink:href="#y"/></g><use y="44.728" x="150.032" xlink:href="#k" style="fill:#000;fill-opacity:1"/><g style="fill:#000;fill-opacity:1"><use y="44.728" x="154.624" xlink:href="#o"/><use y="44.728" x="157.744" xlink:href="#e"/><use y="44.728" x="160.444" xlink:href="#w"/><use y="44.728" x="165.964" xlink:href="#b"/><use y="44.728" x="171.894" xlink:href="#v"/></g><use y="44.728" x="179.91" xlink:href="#i" style="fill:#000;fill-opacity:1"/><g style="fill:#000;fill-opacity:1"><use y="44.728" x="186.09" xlink:href="#f"/><use y="44.728" x="191.091" xlink:href="#d"/></g><use y="44.728" x="194.822" xlink:href="#f" style="fill:#000;fill-opacity:1"/><use y="44.728" x="204.29" xlink:href="#k" style="fill:#000;fill-opacity:1"/><g style="fill:#000;fill-opacity:1"><use y="44.728" x="208.882" xlink:href="#M"/><use y="44.728" x="213.042" xlink:href="#k"/><use y="44.728" x="217.832" xlink:href="#e"/><use y="44.728" x="220.532" xlink:href="#s"/><use y="44.728" x="223.232" xlink:href="#k"/><use y="44.728" x="228.022" xlink:href="#c"/><use y="44.728" x="233.542" xlink:href="#s"/><use y="44.728" x="236.242" xlink:href="#f"/></g><g style="fill:#000;fill-opacity:1"><use y="44.728" x="245.791" xlink:href="#e"/><use y="44.728" x="248.491" xlink:href="#b"/></g><g style="fill:#000;fill-opacity:1"><use y="56.747" x="7.84" xlink:href="#f"/><use y="56.747" x="12.84" xlink:href="#s"/><use y="56.747" x="15.54" xlink:href="#f"/><use y="56.747" x="20.54" xlink:href="#y"/><use y="56.747" x="25.12" xlink:href="#o"/><use y="56.747" x="28.24" xlink:href="#d"/></g><g style="fill:#000;fill-opacity:1"><use y="56.747" x="31.992" xlink:href="#w"/><use y="56.747" x="37.512" xlink:href="#b"/><use y="56.747" x="43.442" xlink:href="#e"/><use y="56.747" x="46.142" xlink:href="#y"/><use y="56.747" x="50.722" xlink:href="#k"/><use y="56.747" x="55.512" xlink:href="#s"/><use y="56.747" x="58.212" xlink:href="#s"/><use y="56.747" x="60.912" xlink:href="#z"/></g><g style="fill:#000;fill-opacity:1"><use y="56.747" x="69.865" xlink:href="#r"/><use y="56.747" x="75.585" xlink:href="#d"/></g><g style="fill:#000;fill-opacity:1"><use y="56.747" x="79.333" xlink:href="#w"/><use y="56.747" x="84.853" xlink:href="#y"/><use y="56.747" x="89.434" xlink:href="#f"/><use y="56.747" x="94.434" xlink:href="#v"/></g><g style="fill:#000;fill-opacity:1"><use y="56.747" x="98.044" xlink:href="#v"/><use y="56.747" x="101.584" xlink:href="#f"/><use y="56.747" x="106.584" xlink:href="#n"/></g><g style="fill:#000;fill-opacity:1"><use y="56.747" x="116.98" xlink:href="#g"/><use y="56.747" x="120.1" xlink:href="#w"/><use y="56.747" x="125.62" xlink:href="#d"/><use y="56.747" x="129.57" xlink:href="#j"/></g><use y="56.747" x="138.184" xlink:href="#k" style="fill:#000;fill-opacity:1"/><g style="fill:#000;fill-opacity:1"><use y="56.747" x="142.776" xlink:href="#o"/><use y="56.747" x="145.896" xlink:href="#h"/></g><g style="fill:#000;fill-opacity:1"><use y="56.747" x="153.094" xlink:href="#o"/><use y="56.747" x="156.214" xlink:href="#p"/><use y="56.747" x="162.144" xlink:href="#f"/></g><g style="fill:#000;fill-opacity:1"><use y="56.747" x="171.86" xlink:href="#s"/><use y="56.747" x="174.56" xlink:href="#k"/><use y="56.747" x="179.35" xlink:href="#v"/></g><use y="56.747" x="182.745" xlink:href="#o" style="fill:#000;fill-opacity:1"/><g style="fill:#00f;fill-opacity:1"><use y="52.266" x="185.855" xlink:href="#N"/><use y="52.266" x="189.68" xlink:href="#O"/></g><use y="56.745" x="198.214" xlink:href="#i" style="fill:#000;fill-opacity:1"/><g style="fill:#000;fill-opacity:1"><use y="56.745" x="204.337" xlink:href="#k"/><use y="56.745" x="209.127" xlink:href="#v"/></g><use y="56.745" x="217.377" xlink:href="#k" style="fill:#000;fill-opacity:1"/><g style="fill:#000;fill-opacity:1"><use y="56.745" x="221.969" xlink:href="#M"/><use y="56.745" x="226.129" xlink:href="#k"/><use y="56.745" x="230.919" xlink:href="#e"/><use y="56.745" x="233.619" xlink:href="#s"/><use y="56.745" x="236.319" xlink:href="#k"/><use y="56.745" x="241.11" xlink:href="#c"/><use y="56.745" x="246.63" xlink:href="#s"/><use y="56.745" x="249.33" xlink:href="#f"/></g><g style="fill:#000;fill-opacity:1"><use y="68.707" x="7.838" xlink:href="#e"/><use y="68.707" x="10.538" xlink:href="#b"/></g><use y="68.707" x="20.707" xlink:href="#k" style="fill:#000;fill-opacity:1"/><g style="fill:#000;fill-opacity:1"><use y="68.707" x="29.778" xlink:href="#v"/><use y="68.707" x="33.318" xlink:href="#y"/><use y="68.707" x="37.899" xlink:href="#k"/><use y="68.707" x="42.689" xlink:href="#b"/><use y="68.707" x="48.619" xlink:href="#b"/><use y="68.707" x="54.549" xlink:href="#f"/><use y="68.707" x="59.549" xlink:href="#n"/></g><g style="fill:#000;fill-opacity:1"><use y="68.707" x="69.636" xlink:href="#y"/><use y="68.707" x="74.216" xlink:href="#w"/><use y="68.707" x="79.736" xlink:href="#r"/><use y="68.707" x="85.456" xlink:href="#z"/></g><use y="68.707" x="88.799" xlink:href="#H" style="fill:#000;fill-opacity:1"/><use y="68.707" x="95.602" xlink:href="#P" style="fill:#000;fill-opacity:1"/><use y="68.707" x="105.693" xlink:href="#M" style="fill:#000;fill-opacity:1"/><g style="fill:#000;fill-opacity:1"><use y="68.707" x="109.661" xlink:href="#f"/><use y="68.707" x="114.661" xlink:href="#d"/><use y="68.707" x="118.611" xlink:href="#o"/><use y="68.707" x="121.731" xlink:href="#e"/><use y="68.707" x="124.431" xlink:href="#y"/><use y="68.707" x="129.011" xlink:href="#k"/><use y="68.707" x="133.801" xlink:href="#s"/></g><g style="fill:#000;fill-opacity:1"><use y="68.707" x="140.788" xlink:href="#s"/><use y="68.707" x="143.488" xlink:href="#e"/><use y="68.707" x="146.188" xlink:href="#b"/><use y="68.707" x="152.118" xlink:href="#f"/></g><use y="68.707" x="161.255" xlink:href="#i" style="fill:#000;fill-opacity:1"/><g style="fill:#000;fill-opacity:1"><use y="68.707" x="167.378" xlink:href="#k"/><use y="68.707" x="172.168" xlink:href="#v"/></g><g style="fill:#000;fill-opacity:1"><use y="68.707" x="180.021" xlink:href="#n"/><use y="68.707" x="185.741" xlink:href="#d"/></g><use y="68.707" x="189.489" xlink:href="#k" style="fill:#000;fill-opacity:1"/><g style="fill:#000;fill-opacity:1"><use y="68.707" x="194.081" xlink:href="#i"/><use y="68.707" x="200.431" xlink:href="#b"/></g><use y="68.707" x="210.636" xlink:href="#k" style="fill:#000;fill-opacity:1"/><use y="68.707" x="215.228" xlink:href="#o" style="fill:#000;fill-opacity:1"/><g style="fill:#000;fill-opacity:1"><use y="68.707" x="222.655" xlink:href="#o"/><use y="68.707" x="225.775" xlink:href="#p"/><use y="68.707" x="231.705" xlink:href="#f"/></g><g style="fill:#000;fill-opacity:1"><use y="68.707" x="240.968" xlink:href="#y"/><use y="68.707" x="245.548" xlink:href="#x"/><use y="68.707" x="251.268" xlink:href="#o"/></g><g style="fill:#000;fill-opacity:1"><use y="80.726" x="7.838" xlink:href="#r"/><use y="80.726" x="13.558" xlink:href="#w"/><use y="80.726" x="19.078" xlink:href="#e"/><use y="80.726" x="21.778" xlink:href="#b"/><use y="80.726" x="27.708" xlink:href="#o"/></g><use y="80.726" x="34.485" xlink:href="#k" style="fill:#000;fill-opacity:1"/><g style="fill:#000;fill-opacity:1"><use y="80.726" x="39.078" xlink:href="#y"/><use y="80.726" x="43.658" xlink:href="#y"/><use y="80.726" x="48.238" xlink:href="#w"/><use y="80.726" x="53.758" xlink:href="#d"/><use y="80.726" x="57.708" xlink:href="#n"/><use y="80.726" x="63.428" xlink:href="#e"/><use y="80.726" x="66.128" xlink:href="#b"/><use y="80.726" x="72.058" xlink:href="#l"/></g><g style="fill:#000;fill-opacity:1"><use y="80.726" x="80.863" xlink:href="#o"/><use y="80.726" x="83.983" xlink:href="#w"/></g><g style="fill:#000;fill-opacity:1"><use y="80.726" x="93.165" xlink:href="#o"/><use y="80.726" x="96.285" xlink:href="#p"/><use y="80.726" x="102.215" xlink:href="#f"/></g><g style="fill:#000;fill-opacity:1"><use y="80.726" x="110.91" xlink:href="#w"/><use y="80.726" x="116.43" xlink:href="#d"/><use y="80.726" x="120.38" xlink:href="#e"/><use y="80.726" x="123.08" xlink:href="#l"/><use y="80.726" x="128.18" xlink:href="#e"/><use y="80.726" x="130.88" xlink:href="#b"/><use y="80.726" x="136.81" xlink:href="#k"/><use y="80.726" x="141.601" xlink:href="#s"/></g><g style="fill:#000;fill-opacity:1"><use y="80.726" x="147.99" xlink:href="#r"/><use y="80.726" x="153.71" xlink:href="#x"/><use y="80.726" x="159.43" xlink:href="#c"/><use y="80.726" x="164.95" xlink:href="#s"/><use y="80.726" x="167.65" xlink:href="#e"/><use y="80.726" x="170.35" xlink:href="#y"/><use y="80.726" x="174.93" xlink:href="#k"/></g><g style="fill:#000;fill-opacity:1"><use y="80.726" x="179.57" xlink:href="#o"/><use y="80.726" x="182.69" xlink:href="#e"/><use y="80.726" x="185.39" xlink:href="#w"/><use y="80.726" x="190.91" xlink:href="#b"/><use y="80.726" x="196.84" xlink:href="#H"/></g><use y="80.726" x="203.042" xlink:href="#P" style="fill:#000;fill-opacity:1"/><use y="80.726" x="213.247" xlink:href="#d" style="fill:#000;fill-opacity:1"/><g style="fill:#000;fill-opacity:1"><use y="80.726" x="216.989" xlink:href="#f"/><use y="80.726" x="221.989" xlink:href="#g"/><use y="80.726" x="225.109" xlink:href="#f"/><use y="80.726" x="230.109" xlink:href="#d"/></g><g style="fill:#000;fill-opacity:1"><use y="80.726" x="233.884" xlink:href="#f"/><use y="80.726" x="238.885" xlink:href="#b"/><use y="80.726" x="244.815" xlink:href="#y"/><use y="80.726" x="249.395" xlink:href="#f"/></g><g style="fill:#000;fill-opacity:1"><use y="92.745" x="7.838" xlink:href="#k"/><use y="92.745" x="12.628" xlink:href="#d"/></g><g style="fill:#000;fill-opacity:1"><use y="92.745" x="16.342" xlink:href="#f"/><use y="92.745" x="21.342" xlink:href="#k"/></g><use y="92.745" x="30.799" xlink:href="#i" style="fill:#000;fill-opacity:1"/><g style="fill:#000;fill-opacity:1"><use y="92.745" x="36.922" xlink:href="#k"/><use y="92.745" x="41.713" xlink:href="#v"/></g><g style="fill:#000;fill-opacity:1"><use y="92.745" x="50.133" xlink:href="#n"/><use y="92.745" x="55.853" xlink:href="#d"/></g><use y="92.745" x="59.601" xlink:href="#k" style="fill:#000;fill-opacity:1"/><g style="fill:#000;fill-opacity:1"><use y="92.745" x="64.193" xlink:href="#i"/><use y="92.745" x="70.543" xlink:href="#b"/></g><g style="fill:#000;fill-opacity:1"><use y="92.745" x="81.371" xlink:href="#e"/><use y="92.745" x="84.071" xlink:href="#b"/></g><g style="fill:#000;fill-opacity:1"><use y="92.745" x="94.864" xlink:href="#o"/><use y="92.745" x="97.984" xlink:href="#p"/><use y="92.745" x="103.914" xlink:href="#f"/></g><g style="fill:#000;fill-opacity:1"><use y="92.745" x="113.743" xlink:href="#s"/><use y="92.745" x="116.443" xlink:href="#w"/></g><use y="92.745" x="121.794" xlink:href="#i" style="fill:#000;fill-opacity:1"/><g style="fill:#000;fill-opacity:1"><use y="92.745" x="127.917" xlink:href="#f"/><use y="92.745" x="132.917" xlink:href="#d"/></g><g style="fill:#000;fill-opacity:1"><use y="92.745" x="141.751" xlink:href="#s"/><use y="92.745" x="144.451" xlink:href="#f"/><use y="92.745" x="149.451" xlink:href="#g"/><use y="92.745" x="152.571" xlink:href="#o"/></g><g style="fill:#000;fill-opacity:1"><use y="92.745" x="160.574" xlink:href="#y"/><use y="92.745" x="165.154" xlink:href="#w"/><use y="92.745" x="170.674" xlink:href="#d"/><use y="92.745" x="174.624" xlink:href="#b"/><use y="92.745" x="180.554" xlink:href="#f"/><use y="92.745" x="185.554" xlink:href="#d"/></g><g style="fill:#000;fill-opacity:1"><use y="92.745" x="194.194" xlink:href="#w"/><use y="92.745" x="199.714" xlink:href="#g"/></g><g style="fill:#000;fill-opacity:1"><use y="92.745" x="207.687" xlink:href="#o"/><use y="92.745" x="210.807" xlink:href="#p"/><use y="92.745" x="216.737" xlink:href="#f"/></g><g style="fill:#000;fill-opacity:1"><use y="92.745" x="226.566" xlink:href="#l"/><use y="92.745" x="231.666" xlink:href="#d"/></g><g style="fill:#000;fill-opacity:1"><use y="92.745" x="235.467" xlink:href="#k"/><use y="92.745" x="240.258" xlink:href="#r"/><use y="92.745" x="245.978" xlink:href="#p"/><use y="92.745" x="251.908" xlink:href="#h"/></g><g style="fill:#000;fill-opacity:1"><use y="104.707" x="7.838" xlink:href="#x"/><use y="104.707" x="13.558" xlink:href="#v"/><use y="104.707" x="17.098" xlink:href="#e"/><use y="104.707" x="19.798" xlink:href="#b"/><use y="104.707" x="25.728" xlink:href="#l"/></g><g style="fill:#000;fill-opacity:1"><use y="104.707" x="34.598" xlink:href="#o"/><use y="104.707" x="37.718" xlink:href="#p"/><use y="104.707" x="43.649" xlink:href="#f"/></g><g style="fill:#000;fill-opacity:1"><use y="104.707" x="52.458" xlink:href="#o"/><use y="104.707" x="55.578" xlink:href="#e"/><use y="104.707" x="58.278" xlink:href="#y"/><use y="104.707" x="62.858" xlink:href="#Q"/></g><g style="fill:#000;fill-opacity:1"><use y="104.707" x="71.791" xlink:href="#j"/><use y="104.707" x="80.331" xlink:href="#k"/><use y="104.707" x="85.121" xlink:href="#d"/><use y="104.707" x="89.071" xlink:href="#Q"/><use y="104.707" x="94.171" xlink:href="#v"/></g><g style="fill:#000;fill-opacity:1"><use y="104.707" x="101.499" xlink:href="#w"/><use y="104.707" x="107.019" xlink:href="#g"/></g><g style="fill:#000;fill-opacity:1"><use y="104.707" x="113.972" xlink:href="#o"/><use y="104.707" x="117.092" xlink:href="#p"/><use y="104.707" x="123.022" xlink:href="#f"/></g><use y="104.707" x="131.604" xlink:href="#R" style="fill:#000;fill-opacity:1"/><g style="fill:#000;fill-opacity:1"><use y="104.707" x="140.449" xlink:href="#k"/><use y="104.707" x="145.239" xlink:href="#b"/><use y="104.707" x="151.169" xlink:href="#n"/></g><use y="104.707" x="160.746" xlink:href="#z" style="fill:#000;fill-opacity:1"/><g style="fill:#000;fill-opacity:1"><use y="104.707" x="168.456" xlink:href="#k"/><use y="104.707" x="173.246" xlink:href="#R"/><use y="104.707" x="178.346" xlink:href="#f"/><use y="104.707" x="183.346" xlink:href="#v"/></g><g style="fill:#000;fill-opacity:1"><use y="104.707" x="190.68" xlink:href="#e"/><use y="104.707" x="193.38" xlink:href="#b"/></g><g style="fill:#000;fill-opacity:1"><use y="104.707" x="203.096" xlink:href="#o"/><use y="104.707" x="206.216" xlink:href="#p"/><use y="104.707" x="212.146" xlink:href="#f"/></g><g style="fill:#000;fill-opacity:1"><use y="104.707" x="220.955" xlink:href="#w"/><use y="104.707" x="226.475" xlink:href="#d"/><use y="104.707" x="230.425" xlink:href="#e"/><use y="104.707" x="233.125" xlink:href="#l"/><use y="104.707" x="238.226" xlink:href="#e"/><use y="104.707" x="240.926" xlink:href="#b"/><use y="104.707" x="246.856" xlink:href="#k"/><use y="104.707" x="251.646" xlink:href="#s"/></g><g style="fill:#000;fill-opacity:1"><use y="116.727" x="7.838" xlink:href="#l"/><use y="116.727" x="12.938" xlink:href="#d"/></g><g style="fill:#000;fill-opacity:1"><use y="116.727" x="16.682" xlink:href="#k"/><use y="116.727" x="21.472" xlink:href="#r"/><use y="116.727" x="27.192" xlink:href="#p"/><use y="116.727" x="33.122" xlink:href="#H"/></g><g style="fill:#000;fill-opacity:1"><use y="116.727" x="39.701" xlink:href="#K"/><use y="116.727" x="46.261" xlink:href="#p"/><use y="116.727" x="52.191" xlink:href="#f"/></g><g style="fill:#000;fill-opacity:1"><use y="116.727" x="61.302" xlink:href="#b"/><use y="116.727" x="67.232" xlink:href="#x"/><use y="116.727" x="72.952" xlink:href="#j"/><use y="116.727" x="81.492" xlink:href="#c"/></g><g style="fill:#000;fill-opacity:1"><use y="116.727" x="87.098" xlink:href="#f"/><use y="116.727" x="92.098" xlink:href="#d"/></g><g style="fill:#000;fill-opacity:1"><use y="116.727" x="99.911" xlink:href="#w"/><use y="116.727" x="105.431" xlink:href="#g"/></g><g style="fill:#000;fill-opacity:1"><use y="116.727" x="112.667" xlink:href="#r"/><use y="116.727" x="118.387" xlink:href="#e"/><use y="116.727" x="121.087" xlink:href="#R"/><use y="116.727" x="126.187" xlink:href="#f"/><use y="116.727" x="131.187" xlink:href="#s"/><use y="116.727" x="133.887" xlink:href="#v"/></g><g style="fill:#000;fill-opacity:1"><use y="116.727" x="141.526" xlink:href="#e"/><use y="116.727" x="144.226" xlink:href="#b"/></g><g style="fill:#000;fill-opacity:1"><use y="116.727" x="154.282" xlink:href="#o"/><use y="116.727" x="157.402" xlink:href="#p"/><use y="116.727" x="163.332" xlink:href="#f"/></g><use y="116.727" x="172.424" xlink:href="#d" style="fill:#000;fill-opacity:1"/><g style="fill:#000;fill-opacity:1"><use y="116.727" x="176.166" xlink:href="#f"/><use y="116.727" x="181.166" xlink:href="#g"/><use y="116.727" x="184.286" xlink:href="#f"/><use y="116.727" x="189.286" xlink:href="#d"/></g><g style="fill:#000;fill-opacity:1"><use y="116.727" x="193.061" xlink:href="#f"/><use y="116.727" x="198.061" xlink:href="#b"/><use y="116.727" x="203.991" xlink:href="#y"/><use y="116.727" x="208.571" xlink:href="#f"/></g><g style="fill:#000;fill-opacity:1"><use y="116.727" x="217.723" xlink:href="#k"/><use y="116.727" x="222.513" xlink:href="#d"/></g><g style="fill:#000;fill-opacity:1"><use y="116.727" x="226.227" xlink:href="#f"/><use y="116.727" x="231.227" xlink:href="#k"/></g><use y="116.727" x="239.948" xlink:href="#i" style="fill:#000;fill-opacity:1"/><g style="fill:#000;fill-opacity:1"><use y="116.727" x="246.071" xlink:href="#k"/><use y="116.727" x="250.861" xlink:href="#v"/></g><g style="fill:#000;fill-opacity:1"><use y="128.746" x="7.838" xlink:href="#y"/><use y="128.746" x="12.418" xlink:href="#k"/><use y="128.746" x="17.208" xlink:href="#s"/><use y="128.746" x="19.908" xlink:href="#y"/><use y="128.746" x="24.488" xlink:href="#x"/><use y="128.746" x="30.208" xlink:href="#s"/><use y="128.746" x="32.908" xlink:href="#k"/></g><g style="fill:#000;fill-opacity:1"><use y="128.746" x="37.547" xlink:href="#o"/><use y="128.746" x="40.668" xlink:href="#f"/><use y="128.746" x="45.668" xlink:href="#n"/></g><g style="fill:#000;fill-opacity:1"><use y="128.746" x="58.865" xlink:href="#c"/><use y="128.746" x="64.385" xlink:href="#z"/></g><g style="fill:#000;fill-opacity:1"><use y="128.746" x="75.987" xlink:href="#j"/><use y="128.746" x="84.527" xlink:href="#x"/><use y="128.746" x="90.247" xlink:href="#s"/><use y="128.746" x="92.947" xlink:href="#o"/><use y="128.746" x="96.067" xlink:href="#e"/><use y="128.746" x="98.767" xlink:href="#r"/><use y="128.746" x="104.487" xlink:href="#s"/><use y="128.746" x="107.187" xlink:href="#z"/></g><g style="fill:#000;fill-opacity:1"><use y="128.746" x="111.479" xlink:href="#e"/><use y="128.746" x="114.179" xlink:href="#b"/><use y="128.746" x="120.109" xlink:href="#l"/></g><g style="fill:#000;fill-opacity:1"><use y="128.746" x="132.683" xlink:href="#o"/><use y="128.746" x="135.803" xlink:href="#p"/><use y="128.746" x="141.734" xlink:href="#f"/></g><g style="fill:#000;fill-opacity:1"><use y="128.746" x="154.228" xlink:href="#j"/><use y="128.746" x="162.768" xlink:href="#f"/><use y="128.746" x="167.768" xlink:href="#k"/><use y="128.746" x="172.558" xlink:href="#v"/><use y="128.746" x="176.098" xlink:href="#x"/><use y="128.746" x="181.818" xlink:href="#d"/></g><g style="fill:#000;fill-opacity:1"><use y="128.746" x="185.581" xlink:href="#f"/><use y="128.746" x="190.581" xlink:href="#n"/></g><g style="fill:#000;fill-opacity:1"><use y="128.746" x="203.78" xlink:href="#b"/><use y="128.746" x="209.71" xlink:href="#x"/><use y="128.746" x="215.43" xlink:href="#j"/><use y="128.746" x="223.97" xlink:href="#c"/></g><g style="fill:#000;fill-opacity:1"><use y="128.746" x="229.577" xlink:href="#f"/><use y="128.746" x="234.577" xlink:href="#d"/></g><g style="fill:#000;fill-opacity:1"><use y="128.746" x="245.792" xlink:href="#w"/><use y="128.746" x="251.312" xlink:href="#g"/></g><g style="fill:#000;fill-opacity:1"><use y="140.708" x="7.838" xlink:href="#r"/><use y="140.708" x="13.558" xlink:href="#e"/><use y="140.708" x="16.258" xlink:href="#R"/><use y="140.708" x="21.358" xlink:href="#f"/><use y="140.708" x="26.358" xlink:href="#s"/><use y="140.708" x="29.058" xlink:href="#v"/></g><use y="140.708" x="36.866" xlink:href="#k" style="fill:#000;fill-opacity:1"/><use y="140.708" x="41.459" xlink:href="#o" style="fill:#000;fill-opacity:1"/><g style="fill:#000;fill-opacity:1"><use y="140.708" x="48.829" xlink:href="#o"/><use y="140.708" x="51.949" xlink:href="#p"/><use y="140.708" x="57.879" xlink:href="#f"/></g><g style="fill:#000;fill-opacity:1"><use y="140.708" x="67.198" xlink:href="#s"/><use y="140.708" x="69.898" xlink:href="#f"/><use y="140.708" x="74.898" xlink:href="#b"/><use y="140.708" x="80.828" xlink:href="#l"/><use y="140.708" x="85.928" xlink:href="#o"/><use y="140.708" x="89.048" xlink:href="#p"/></g><g style="fill:#000;fill-opacity:1"><use y="140.708" x="99.287" xlink:href="#k"/><use y="140.708" x="104.077" xlink:href="#b"/><use y="140.708" x="110.007" xlink:href="#n"/></g><g style="fill:#000;fill-opacity:1"><use y="140.708" x="120.037" xlink:href="#p"/><use y="140.708" x="125.967" xlink:href="#f"/><use y="140.708" x="130.967" xlink:href="#e"/><use y="140.708" x="133.667" xlink:href="#l"/><use y="140.708" x="138.768" xlink:href="#p"/><use y="140.708" x="144.698" xlink:href="#o"/></g><g style="fill:#000;fill-opacity:1"><use y="140.708" x="152.128" xlink:href="#w"/><use y="140.708" x="157.648" xlink:href="#g"/></g><g style="fill:#000;fill-opacity:1"><use y="140.708" x="164.998" xlink:href="#o"/><use y="140.708" x="168.118" xlink:href="#p"/><use y="140.708" x="174.048" xlink:href="#f"/></g><g style="fill:#000;fill-opacity:1"><use y="140.708" x="183.367" xlink:href="#n"/><use y="140.708" x="189.087" xlink:href="#d"/></g><use y="140.708" x="192.835" xlink:href="#k" style="fill:#000;fill-opacity:1"/><g style="fill:#000;fill-opacity:1"><use y="140.708" x="197.427" xlink:href="#i"/><use y="140.708" x="203.777" xlink:href="#b"/></g><g style="fill:#000;fill-opacity:1"><use y="140.708" x="213.982" xlink:href="#c"/><use y="140.708" x="219.502" xlink:href="#w"/><use y="140.708" x="225.022" xlink:href="#R"/><use y="140.708" x="230.122" xlink:href="#H"/></g><g style="fill:#000;fill-opacity:1"><use y="140.708" x="236.887" xlink:href="#K"/><use y="140.708" x="243.448" xlink:href="#p"/><use y="140.708" x="249.378" xlink:href="#f"/></g><g style="fill:#000;fill-opacity:1"><use y="152.727" x="7.838" xlink:href="#l"/><use y="152.727" x="12.938" xlink:href="#d"/></g><g style="fill:#000;fill-opacity:1"><use y="152.727" x="16.682" xlink:href="#k"/><use y="152.727" x="21.472" xlink:href="#r"/><use y="152.727" x="27.192" xlink:href="#p"/></g><use y="152.727" x="36.242" xlink:href="#i" style="fill:#000;fill-opacity:1"/><g style="fill:#000;fill-opacity:1"><use y="152.727" x="42.366" xlink:href="#k"/><use y="152.727" x="47.156" xlink:href="#v"/></g><g style="fill:#000;fill-opacity:1"><use y="152.727" x="53.591" xlink:href="#o"/><use y="152.727" x="56.711" xlink:href="#p"/><use y="152.727" x="62.641" xlink:href="#f"/><use y="152.727" x="67.641" xlink:href="#b"/></g><g style="fill:#000;fill-opacity:1"><use y="152.727" x="76.723" xlink:href="#e"/><use y="152.727" x="79.423" xlink:href="#j"/><use y="152.727" x="87.963" xlink:href="#r"/><use y="152.727" x="93.683" xlink:href="#w"/><use y="152.727" x="99.203" xlink:href="#d"/><use y="152.727" x="103.153" xlink:href="#o"/><use y="152.727" x="106.273" xlink:href="#f"/><use y="152.727" x="111.273" xlink:href="#n"/></g><g style="fill:#000;fill-opacity:1"><use y="152.727" x="120.152" xlink:href="#e"/><use y="152.727" x="122.852" xlink:href="#b"/><use y="152.727" x="128.782" xlink:href="#o"/><use y="152.727" x="131.902" xlink:href="#w"/></g><g style="fill:#000;fill-opacity:1"><use y="152.727" x="140.563" xlink:href="#P"/><use y="152.727" x="147.123" xlink:href="#n"/><use y="152.727" x="152.843" xlink:href="#w"/><use y="152.727" x="158.363" xlink:href="#c"/><use y="152.727" x="163.883" xlink:href="#f"/></g><g style="fill:#000;fill-opacity:1"><use y="152.727" x="171.972" xlink:href="#D"/><use y="152.727" x="177.692" xlink:href="#p"/><use y="152.727" x="183.622" xlink:href="#w"/><use y="152.727" x="189.142" xlink:href="#o"/><use y="152.727" x="192.262" xlink:href="#w"/><use y="152.727" x="197.782" xlink:href="#v"/><use y="152.727" x="201.322" xlink:href="#p"/></g><g style="fill:#000;fill-opacity:1"><use y="152.727" x="207.35" xlink:href="#w"/><use y="152.727" x="212.87" xlink:href="#r"/></g><g style="fill:#000;fill-opacity:1"><use y="152.727" x="221.694" xlink:href="#E"/><use y="152.727" x="226.064" xlink:href="#P"/><use y="152.727" x="232.624" xlink:href="#n"/><use y="152.727" x="238.345" xlink:href="#w"/><use y="152.727" x="243.865" xlink:href="#c"/><use y="152.727" x="249.385" xlink:href="#f"/></g><g style="fill:#000;fill-opacity:1"><use y="164.746" x="7.838" xlink:href="#S"/><use y="164.746" x="12.938" xlink:href="#z"/></g><use y="164.746" x="16.909" xlink:href="#v" style="fill:#000;fill-opacity:1"/><g style="fill:#000;fill-opacity:1"><use y="164.746" x="20.197" xlink:href="#o"/><use y="164.746" x="23.317" xlink:href="#f"/><use y="164.746" x="28.317" xlink:href="#j"/></g><g style="fill:#000;fill-opacity:1"><use y="164.746" x="36.922" xlink:href="#v"/><use y="164.746" x="40.463" xlink:href="#h"/></g><g style="fill:#000;fill-opacity:1"><use y="164.746" x="46.731" xlink:href="#S"/><use y="164.746" x="51.831" xlink:href="#k"/><use y="164.746" x="56.621" xlink:href="#b"/></g><g style="fill:#000;fill-opacity:1"><use y="164.746" x="66.347" xlink:href="#T"/><use y="164.746" x="69.677" xlink:href="#w"/><use y="164.746" x="75.197" xlink:href="#v"/><use y="164.746" x="78.737" xlink:href="#f"/><use y="164.746" x="83.737" xlink:href="#h"/></g><g style="fill:#000;fill-opacity:1"><use y="164.746" x="89.989" xlink:href="#U"/><use y="164.746" x="96.759" xlink:href="#k"/></g><g style="fill:#000;fill-opacity:1"><use y="164.746" x="101.611" xlink:href="#s"/><use y="164.746" x="104.311" xlink:href="#e"/><use y="164.746" x="107.011" xlink:href="#g"/><use y="164.746" x="110.131" xlink:href="#w"/><use y="164.746" x="115.651" xlink:href="#d"/><use y="164.746" x="119.601" xlink:href="#b"/><use y="164.746" x="125.531" xlink:href="#e"/><use y="164.746" x="128.231" xlink:href="#k"/><use y="164.746" x="133.021" xlink:href="#h"/></g><g style="fill:#000;fill-opacity:1"><use y="164.746" x="139.371" xlink:href="#V"/><use y="164.746" x="147.071" xlink:href="#S"/><use y="164.746" x="152.171" xlink:href="#P"/><use y="164.746" x="158.731" xlink:href="#J"/><use y="164.746" x="163.101" xlink:href="#h"/></g><g style="fill:#000;fill-opacity:1"><use y="164.746" x="169.42" xlink:href="#k"/><use y="164.746" x="174.21" xlink:href="#b"/><use y="164.746" x="180.14" xlink:href="#n"/></g><g style="fill:#000;fill-opacity:1"><use y="164.746" x="189.66" xlink:href="#o"/><use y="164.746" x="192.78" xlink:href="#p"/><use y="164.746" x="198.71" xlink:href="#f"/></g><g style="fill:#000;fill-opacity:1"><use y="164.746" x="207.462" xlink:href="#b"/><use y="164.746" x="213.392" xlink:href="#x"/><use y="164.746" x="219.112" xlink:href="#j"/><use y="164.746" x="227.652" xlink:href="#c"/></g><g style="fill:#000;fill-opacity:1"><use y="164.746" x="233.258" xlink:href="#f"/><use y="164.746" x="238.259" xlink:href="#d"/></g><g style="fill:#000;fill-opacity:1"><use y="164.746" x="245.788" xlink:href="#w"/><use y="164.746" x="251.308" xlink:href="#g"/></g><g style="fill:#000;fill-opacity:1"><use y="176.708" x="7.838" xlink:href="#r"/><use y="176.708" x="13.558" xlink:href="#e"/><use y="176.708" x="16.258" xlink:href="#R"/><use y="176.708" x="21.358" xlink:href="#f"/><use y="176.708" x="26.358" xlink:href="#s"/><use y="176.708" x="29.058" xlink:href="#v"/></g><g style="fill:#000;fill-opacity:1"><use y="176.708" x="35.846" xlink:href="#c"/><use y="176.708" x="41.367" xlink:href="#f"/><use y="176.708" x="46.367" xlink:href="#o"/><use y="176.708" x="49.487" xlink:href="#i"/></g><g style="fill:#000;fill-opacity:1"><use y="176.708" x="55.634" xlink:href="#f"/><use y="176.708" x="60.634" xlink:href="#f"/><use y="176.708" x="65.634" xlink:href="#b"/></g><g style="fill:#000;fill-opacity:1"><use y="176.708" x="74.797" xlink:href="#o"/><use y="176.708" x="77.917" xlink:href="#p"/><use y="176.708" x="83.847" xlink:href="#f"/></g><g style="fill:#000;fill-opacity:1"><use y="176.708" x="92.089" xlink:href="#v"/><use y="176.708" x="95.629" xlink:href="#x"/><use y="176.708" x="101.349" xlink:href="#d"/></g><g style="fill:#000;fill-opacity:1"><use y="176.708" x="105.526" xlink:href="#M"/><use y="176.708" x="109.686" xlink:href="#e"/><use y="176.708" x="112.386" xlink:href="#M"/><use y="176.708" x="116.546" xlink:href="#k"/><use y="176.708" x="121.336" xlink:href="#s"/></g><g style="fill:#000;fill-opacity:1"><use y="176.708" x="127.297" xlink:href="#y"/><use y="176.708" x="131.877" xlink:href="#x"/><use y="176.708" x="137.597" xlink:href="#d"/></g><use y="176.708" x="141.812" xlink:href="#M" style="fill:#000;fill-opacity:1"/><g style="fill:#000;fill-opacity:1"><use y="176.708" x="145.78" xlink:href="#f"/><use y="176.708" x="150.78" xlink:href="#v"/></g><use y="176.708" x="157.516" xlink:href="#i" style="fill:#000;fill-opacity:1"/><g style="fill:#000;fill-opacity:1"><use y="176.708" x="163.696" xlink:href="#k"/><use y="176.708" x="168.486" xlink:href="#v"/></g><g style="fill:#000;fill-opacity:1"><use y="176.708" x="175.205" xlink:href="#y"/><use y="176.708" x="179.785" xlink:href="#w"/><use y="176.708" x="185.305" xlink:href="#x"/><use y="176.708" x="191.025" xlink:href="#b"/><use y="176.708" x="196.955" xlink:href="#o"/><use y="176.708" x="200.075" xlink:href="#f"/><use y="176.708" x="205.075" xlink:href="#n"/></g><g style="fill:#000;fill-opacity:1"><use y="176.708" x="214.098" xlink:href="#x"/><use y="176.708" x="219.818" xlink:href="#v"/><use y="176.708" x="223.358" xlink:href="#e"/><use y="176.708" x="226.058" xlink:href="#b"/><use y="176.708" x="231.988" xlink:href="#l"/></g><g style="fill:#000;fill-opacity:1"><use y="176.708" x="240.349" xlink:href="#o"/><use y="176.708" x="243.469" xlink:href="#p"/><use y="176.708" x="249.399" xlink:href="#f"/></g><g style="fill:#000;fill-opacity:1"><use y="188.727" x="7.838" xlink:href="#r"/><use y="188.727" x="13.558" xlink:href="#w"/><use y="188.727" x="19.078" xlink:href="#s"/><use y="188.727" x="21.778" xlink:href="#z"/><use y="188.727" x="25.938" xlink:href="#l"/><use y="188.727" x="31.038" xlink:href="#w"/><use y="188.727" x="36.558" xlink:href="#b"/><use y="188.727" x="42.489" xlink:href="#k"/><use y="188.727" x="47.279" xlink:href="#s"/></g><g style="fill:#000;fill-opacity:1"><use y="188.727" x="54.159" xlink:href="#s"/><use y="188.727" x="56.859" xlink:href="#k"/><use y="188.727" x="61.649" xlink:href="#v"/><use y="188.727" x="65.189" xlink:href="#v"/><use y="188.727" x="68.729" xlink:href="#w"/></g><g style="fill:#000;fill-opacity:1"><use y="188.727" x="78.368" xlink:href="#o"/><use y="188.727" x="81.488" xlink:href="#w"/><use y="188.727" x="87.008" xlink:href="#w"/><use y="188.727" x="92.528" xlink:href="#s"/><use y="188.727" x="95.228" xlink:href="#H"/></g></svg>