<svg xmlns="http://www.w3.org/2000/svg" width="500" height="339.207"><path style="stroke:none;fill-rule:nonzero;fill:#fff;fill-opacity:1" d="M0 0h500v339.207H0Zm0 0"/><path style="stroke:none;fill-rule:nonzero;fill:#f8f8f8;fill-opacity:1" d="M232.566 240.234h255.801V37.59h-255.8Zm0 0"/><path style="stroke:none;fill-rule:nonzero;fill:#231f20;fill-opacity:1" d="M127.445 279.29h.075v-.08h-.075ZM206.602 279.29h.078v-.08h-.078ZM167.023 279.29h.079v-.08h-.079ZM127.445 30.7h.075v-.079h-.075Zm0 0"/><path style="stroke:none;fill-rule:nonzero;fill:#231f20;fill-opacity:1" d="M127.445 279.29h.075v-.08h-.075Zm0 0"/><path style="fill:none;stroke-width:.511;stroke-linecap:round;stroke-linejoin:round;stroke:#231f20;stroke-opacity:1;stroke-miterlimit:10" d="M-.002.001h2.477v.032H6.1v.034h1.765v.035h1.763V.17h1.085v.035h1.39V.24h.676V.27h1.087v.035h1.29v.036h.675v.03h1.29v.067h.303v.04h.68v.03h.609v.035h.477v.032h.88V.61h1.963v.03h1.392v.071h1.15v.036h1.494v.03h1.461v.035h.878V.85h1.696V.88h.37v.033h.818v.068h.878v.035h.613v.03h.27v.036h1.286v.035h.78v.032h1.36v.034h.339v.071h.2v.032h.543v.035h1.594v.034h.476v.032h1.285v.035h.816v.036h.474v.066h1.663v.035h.676v.035h.406v.03h.477v.036h.88v.032h1.117v.035h.984v.066h1.664v.036h1.691v.035h.579v.03h2.644v.036h.202v.035h1.087v.032h.878v.07h1.665v.035h.202v.065h.88v.036h.406v.032h.273v.035h.711v.07h.782v.031h2.538v.036h1.02v.035h.782v.03h.98v.036h1.593v.035h.27v.066h1.493v.035h.848v.036h1.287v.032h.139v.033h6.882v.032h.573v.036h.95v.1h1.492v.033h.41v.035h1.49v.034h.578v.035h.777v.032h.78v.071h.406v.034h.883v.032h.61v.035h2.95v.066h.406v.07h.065v.033h.103v.034h1.765v.067h.2v.035h.41v.034h1.491v.103h1.052v.03h.1v.068h.676v.035h2.68v.034h3.423v.103h2.95v.065h.308v.107h1.862v.097h1.153v.036h3.491v.065h.884v.071h.27v.101h.61v.066h1.455v.07h2.102v.033h4.511v.136h1.458v.066h.608v.07h1.63v.102h.61v.101h.202v.067h.478v.101h7.59v.102h9.222v.172h15.558V6h.578" transform="matrix(2.20264 0 0 -2.20264 127.438 279.213)"/><path style="fill:none;stroke-width:.75;stroke-linecap:round;stroke-linejoin:round;stroke:#a7a5a6;stroke-opacity:1;stroke-miterlimit:10" d="M-.002.001H.88v.032h4.645v.034h.776v.035h.985V.17h2.848v.035h1.188V.24h2.676V.27h1.628v.035h.984v.036h3.05v.03h1.388v.067h1.09v.04h1.15v.03h1.017v.035h2.474v.032h.206V.61h1.254v.03h1.29v.071h.269v.036h.88v.03h1.766v.035h1.592V.85h1.185V.88h1.866v.033h.88v.068h.613v.035h1.456v.036h.814v.03h.338v.035h1.627v.032h.578v.034h.202v.071h1.458v.032h.374v.035h.812v.034h.98v.032h.68v.035h2.377v.036h1.69v.066h1.055v.035h1.183v.035h2.848v.03h1.085v.036h.408v.032h1.355v.035h.816v.066h.675v.036h1.864v.035h.68v.03h1.289v.036h1.082v.035h1.188v.032h.676v.07h3.937v.035h1.594v.035h.472v.03h.812v.036h1.665v.032h2.64v.035h.102v.07h.204v.031h1.085v.036h2.914v.035h1.02v.03h1.457v.036h.68v.1h1.218v.036h.68v.036h.375v.065h1.387v.032h1.456v.036h6.817v.065h.848v.068h.539v.035h1.426v.07h.136v.031h.472v.105h.204v.032h.101v.066h.204v.106h.883v.032h1.761v.065h4.239v.036h3.05v.07h.204v.102h2.95v.066h4.303v.067h7.461v.105h4.235v.097h4.918v.107h3.086v.133h5.694v.202h5.29v.172h2.778v.204h1.66v.268h6.577" transform="matrix(2.20264 0 0 -2.20264 127.438 279.213)"/><path style="stroke:none;fill-rule:nonzero;fill:#231f20;fill-opacity:1" d="M147.66 245.414c0-.965-.273-1.687-.789-2.203-.586-.586-1.273-.824-2.48-.824h-3.2v10.187h1.274v-3.855c.894.101 1.168.136 1.547.136 2.238 0 3.648-1.308 3.648-3.44Zm-1.34.07c0 .961-.449 1.754-1.172 2.063-.343.14-.757.207-1.343.207-.344 0-.653-.035-1.34-.102v-4.199h1.719c.828 0 1.273.137 1.586.445.378.38.55.93.55 1.586ZM156.938 248.375v-.895h-7.711v.895Zm0 2.133v-.895h-7.711v.895ZM165.43 247.41c0-3.168-1.375-5.367-3.407-5.367-1.996 0-3.375 2.2-3.375 5.367 0 3.235 1.38 5.403 3.375 5.403 2.032 0 3.407-2.168 3.407-5.403Zm-1.344 0c0 2.512-.824 4.235-2.027 4.235-1.243 0-2.067-1.688-2.067-4.235 0-2.476.824-4.164 2.031-4.164 1.239 0 2.063 1.652 2.063 4.164ZM168.629 251.883c0-.48-.41-.86-.895-.86-.48 0-.859.38-.859.86 0 .484.379.863.86.863.484 0 .894-.379.894-.863ZM177.008 247.41c0-3.168-1.375-5.367-3.406-5.367-1.997 0-3.372 2.2-3.372 5.367 0 3.235 1.375 5.403 3.372 5.403 2.03 0 3.406-2.168 3.406-5.403Zm-1.34 0c0 2.512-.828 4.235-2.031 4.235-1.239 0-2.067-1.688-2.067-4.235 0-2.476.828-4.164 2.032-4.164 1.238 0 2.066 1.652 2.066 4.164ZM184.238 252.574v-1.172h-4.27l2.34-2.89c.622-.793 1.208-1.723 1.41-2.34.106-.309.141-.688.141-1.067 0-1.722-1-2.753-2.617-2.753-.93 0-1.722.308-2.582.996-.172.14-.379.312-.617.484l.789.895c.828-.758.965-.86 1.344-1.036.273-.171.617-.238.965-.238.96 0 1.476.586 1.476 1.617 0 .688-.203 1.203-.754 2.032a22.744 22.744 0 0 1-1.308 1.789l-2.446 3.097v.586Zm0 0"/><path style="fill-rule:nonzero;fill:#231f20;fill-opacity:1;stroke-width:.5;stroke-linecap:round;stroke-linejoin:round;stroke:#231f20;stroke-opacity:1;stroke-miterlimit:10" d="M-.001 0v-.133l88.788-.004V0Zm0 0" transform="matrix(2.20264 0 0 -2.20264 282.097 180.925)"/><path style="stroke:none;fill-rule:nonzero;fill:#231f20;fill-opacity:1" d="M477.664 181.148h.078v-.074h-.078Zm0 0"/><path style="fill:none;stroke-width:.5;stroke-linecap:round;stroke-linejoin:round;stroke:#231f20;stroke-opacity:1;stroke-miterlimit:10" d="M-.001 0v3.25" transform="matrix(2.20264 0 0 -2.20264 282.097 188.231)"/><path style="stroke:none;fill-rule:nonzero;fill:#231f20;fill-opacity:1" d="M282.094 181.148h.078v-.074h-.078Zm0 0"/><path style="fill:none;stroke-width:.5;stroke-linecap:round;stroke-linejoin:round;stroke:#231f20;stroke-opacity:1;stroke-miterlimit:10" d="M.002 0v3.25" transform="matrix(2.20264 0 0 -2.20264 325.557 188.231)"/><path style="stroke:none;fill-rule:nonzero;fill:#231f20;fill-opacity:1" d="M325.563 181.148h.066v-.074h-.067Zm0 0"/><path style="fill:none;stroke-width:.5;stroke-linecap:round;stroke-linejoin:round;stroke:#231f20;stroke-opacity:1;stroke-miterlimit:10" d="M0 0v3.25" transform="matrix(2.20264 0 0 -2.20264 369.013 188.231)"/><path style="stroke:none;fill-rule:nonzero;fill:#231f20;fill-opacity:1" d="M369.012 181.148h.078v-.074h-.078Zm0 0"/><path style="fill:none;stroke-width:.5;stroke-linecap:round;stroke-linejoin:round;stroke:#231f20;stroke-opacity:1;stroke-miterlimit:10" d="M.002.001v3.25" transform="matrix(2.20264 0 0 -2.20264 412.476 188.233)"/><path style="stroke:none;fill-rule:nonzero;fill:#231f20;fill-opacity:1" d="M412.48 181.148h.067v-.074h-.067Zm0 0"/><path style="fill:none;stroke-width:.5;stroke-linecap:round;stroke-linejoin:round;stroke:#231f20;stroke-opacity:1;stroke-miterlimit:10" d="M-.002.001v3.25" transform="matrix(2.20264 0 0 -2.20264 455.934 188.233)"/><path style="stroke:none;fill-rule:nonzero;fill:#231f20;fill-opacity:1" d="M455.93 181.148h.078v-.074h-.078Zm0 0"/><path style="fill:none;stroke-width:.5;stroke-linecap:round;stroke-linejoin:round;stroke:#231f20;stroke-opacity:1;stroke-miterlimit:10" d="M0 0v2.25" transform="matrix(2.20264 0 0 -2.20264 303.828 186.029)"/><path style="stroke:none;fill-rule:nonzero;fill:#231f20;fill-opacity:1" d="M303.828 181.148h.078v-.074h-.078Zm0 0"/><path style="fill:none;stroke-width:.5;stroke-linecap:round;stroke-linejoin:round;stroke:#231f20;stroke-opacity:1;stroke-miterlimit:10" d="M0 0v2.25" transform="matrix(2.20264 0 0 -2.20264 347.284 186.029)"/><path style="stroke:none;fill-rule:nonzero;fill:#231f20;fill-opacity:1" d="M347.285 181.148h.07v-.074h-.07Zm0 0"/><path style="fill:none;stroke-width:.5;stroke-linecap:round;stroke-linejoin:round;stroke:#231f20;stroke-opacity:1;stroke-miterlimit:10" d="M0 .002V2.25" transform="matrix(2.20264 0 0 -2.20264 390.744 186.03)"/><path style="stroke:none;fill-rule:nonzero;fill:#231f20;fill-opacity:1" d="M390.746 181.148h.078v-.074h-.078Zm0 0"/><path style="fill:none;stroke-width:.5;stroke-linecap:round;stroke-linejoin:round;stroke:#231f20;stroke-opacity:1;stroke-miterlimit:10" d="M0 .002V2.25" transform="matrix(2.20264 0 0 -2.20264 434.205 186.03)"/><path style="stroke:none;fill-rule:nonzero;fill:#231f20;fill-opacity:1" d="M434.203 181.148h.078v-.074h-.078Zm0 0"/><path style="fill:none;stroke-width:.5;stroke-linecap:round;stroke-linejoin:round;stroke:#231f20;stroke-opacity:1;stroke-miterlimit:10" d="M0-.002V-59.26h.102V-.002Zm0 0" transform="matrix(2.20264 0 0 -2.20264 281.947 50.546)"/><path style="stroke:none;fill-rule:nonzero;fill:#231f20;fill-opacity:1" d="M282.094 50.625h.078v-.074h-.078Zm0 0"/><path style="fill:none;stroke-width:.5;stroke-linecap:round;stroke-linejoin:round;stroke:#231f20;stroke-opacity:1;stroke-miterlimit:10" d="M0 0h3.258" transform="matrix(2.20264 0 0 -2.20264 274.919 181.073)"/><path style="stroke:none;fill-rule:nonzero;fill:#231f20;fill-opacity:1" d="M282.094 181.148h.078v-.074h-.078Zm0 0"/><path style="fill:none;stroke-width:.5;stroke-linecap:round;stroke-linejoin:round;stroke:#231f20;stroke-opacity:1;stroke-miterlimit:10" d="M0 .001h3.258" transform="matrix(2.20264 0 0 -2.20264 274.919 149.714)"/><path style="stroke:none;fill-rule:nonzero;fill:#231f20;fill-opacity:1" d="M282.094 149.79h.078v-.08h-.078Zm0 0"/><path style="fill:none;stroke-width:.5;stroke-linecap:round;stroke-linejoin:round;stroke:#231f20;stroke-opacity:1;stroke-miterlimit:10" d="M-.001.001h3.258" transform="matrix(2.20264 0 0 -2.20264 274.92 118.35)"/><path style="stroke:none;fill-rule:nonzero;fill:#231f20;fill-opacity:1" d="M282.094 118.426h.078v-.078h-.078Zm0 0"/><path style="fill:none;stroke-width:.5;stroke-linecap:round;stroke-linejoin:round;stroke:#231f20;stroke-opacity:1;stroke-miterlimit:10" d="M-.001 0h3.258" transform="matrix(2.20264 0 0 -2.20264 274.92 86.989)"/><path style="stroke:none;fill-rule:nonzero;fill:#231f20;fill-opacity:1" d="M282.094 87.066h.078v-.078h-.078Zm0 0"/><path style="fill:none;stroke-width:.5;stroke-linecap:round;stroke-linejoin:round;stroke:#231f20;stroke-opacity:1;stroke-miterlimit:10" d="M-.001 0h3.258" transform="matrix(2.20264 0 0 -2.20264 274.92 55.626)"/><path style="stroke:none;fill-rule:nonzero;fill:#231f20;fill-opacity:1" d="M282.094 55.625h.078v-.07h-.078Zm0 0"/><path style="fill:none;stroke-width:.527;stroke-linecap:round;stroke-linejoin:round;stroke:#231f20;stroke-opacity:1;stroke-miterlimit:10" d="M-.001 0h.07v.067h1.288v.1h.236v.068h1.05v.07h.714v.1h.371v.068h.545v.07h.065v.102h.036V.71h.441v.103h.167V.88h.305v.07h.172v.102h.337v.066H5.9v.067h.27v.07h.44v.102h.036v.066h.133v.1h.202v.072h.036v.065h.237v.103h.137v.066h.236v.07h.475V2h.098v.168h.138v.066h.202v.07h.071v.102h.101v.067h.54v.101h.035v.071h.136v.167h.101v.067h.036v.07h.34v.102h.03v.167h.102v.137h.24v.168h.136v.137h.133v.168h.445v.101h.032V4h.065v.066h.816v.103h.204v.065h.27v.071h.273v.101h.204v.066h.507v.103h.133v.136h.069v.101h.711v.071h.068v.101h.475v.133h.103v.07h.202v.102h.103v.066h.065v.067h.305v.102h.34v.07h.171v.102h.438v.065h.204v.24h.339v.065h.106v.169h.066v.104h.305v.068h.066v.065h.035v.101h.101v.071h.172v.101h.067v.24h.137v.065h.27v.102h.065v.035h.376v.103h.066v.066h.34v.1h.032v.068h.07v.07h.578v.102h.097v.066h.137v.168h.035v.172h.101v.238h.24v.065h.03v.103h.07v.066h.137v.07h.234v.102h.474v.067h.172v.101h.065v.036h.071v.1h.27v.102h.305v.067h.101v.101h.066v.036h.207v.101h.068v.066h.1v.106h.036v.066h.167v.067h.07v.101h.371v.071h.208v.101h.335v.066h.068v.07h.308v.17h.066v.065h.103v.1h.065v.072h.105v.1h.133v.134h.07v.168h.098v.105h.34v.032h.036v.101h.167v.071h.376v.101h.37v.067h.066v.066h.103v.107h.07v.065h.34v.101h.507v.169h.915v.207h.206v.098h.133v.07h.372v.102h.339v.1h.747v.205h.1v.1h.478v.102h.065v.137h.036v.1h.168v.103h.34v.102h.269v.1h.441v.137h.204v.103h.066v.101h.035v.34h.51v.235h.136v.136h.065v.101h.036v.137h.136v.234h.305v.103h.066v.1h.305v.138h.106v.136h.44v.137h.98v.133h.373v.1h.17V16h.27v.137h.138v.138h.44v.167h.139v.103h.846v.166h.099v.137h.069v.168h.68v.137h.138v.137h.471v.172h.169v.168h.542v.169h.071v.166h3.184v.208h.574v.234h.309v.204h.573v.475h.817v.236h.202v.238h.779v.273h.339v.234h.441v.308h.442v.27h.204v.305h.475v.273h.337v.27h1.625v.34h.207v.305h.066v.339h.067v.305h.949v.34h.1v.34h.205v.336h.851v.34h.575v.34h.065v.34h.376v.37h1.456v.375h1.864v.408h1.628v.406h.172v.847h1.013v.437h.679v.441h1.867v.442h.508v.477h.168v.472h.305v.441h.812v.477h1.121v.507h2.508v.575h.812v.543h.309v.578h.915v.574h.339v.61h.102v.612h.27v.575h4.136v.747h5.086v1.05h8.542v2.61h.305" transform="matrix(2.20264 0 0 -2.20264 282.097 181.073)"/><path style="fill:none;stroke-width:.75;stroke-linecap:round;stroke-linejoin:round;stroke:#a7a5a6;stroke-opacity:1;stroke-miterlimit:10" d="M-.001 0h.374v.067h.103v.1h.172v.068h.572v.07H3.02v.1h.065v.068h.34v.07h.035v.102h.067V.71h.339v.103h.103V.88h.035v.07h.37v.102h1.153v.066h.034v.067h.34v.07h.098v.102h.238v.066h.68v.1h.238v.072h.508v.065H7.9v.103h.37v.066h.341v.07h.101V2h.169v.067h.033v.101h.24v.066h.3v.07h.954v.102h.406v.067h.27v.172h.507v.066h.239v.101h.07v.067h.269v.101h.032v.071h.546v.066h.067v.101h.036v.071h.234v.066h.273v.067h.133v.101h.78v.071h.27v.098h.172v.07h.035v.066h.066V4h.473v.066h.071v.103h.133v.065h.07v.101h.1v.071h.545v.066h.066v.172h.1v.103h.373v.065h.07v.071h.067v.101h.1v.066h.41v.103h.371v.034h.067v.102h.747v.167h.105v.068h.337v.07h.065v.102h.273v.065h.442v.103h.406v.066h.169v.172h.1v.07h.377v.063h.1v.104h.066v.068h.172v.1h.169v.066h.441v.071h.203v.169h.168v.104h.101v.068h.172v.167h.032v.067h.172v.101h.169v.036h.1v.1h.579v.068h.1v.105h.173v.067h.066v.167h.031v.067h.071v.105h.508v.067h.035v.066h.169v.1h.1v.072h.102v.168h.1v.066h.072v.101h.097v.07h.273v.102h.068v.067h.136v.07h.34v.102h.269v.066h.035v.101h.068v.067h1.253v.173h.066v.1h.309v.068h.542v.101h.036v.101h.1v.101h.237v.071h.27v.137h.542v.062h.1v.106h.274v.101h.34v.137h.95v.1h.61v.24h.1v.098h.133v.101h.238v.101h.51v.137h.104v.239h.301v.101h.07v.137h.304v.204h1.052v.136h.202v.133h.172v.137h.27v.1h.441v.17h.101v.136h.474v.1h.644v.17h.273v.136h.133v.137h1.426v.168h.71v.172h.884v.167h.101v.168h.169v.204h.41v.172h.914v.202h1.254v.204h.202v.202h.068v.24h.1v.238h.614v.202h1.625v.236h.507v.273h.812v.27h.412v.577h.644v.27h.37v.305h.204v.303h.747v.309h.847v.337h3.695v.338h.473v.407h.309v.34h.812v.376h.035v.406h.27v.406h.101v.371h.067v.374h.101v.406h.477v.373h.98v.406h2.344v.477h1.66v.44h.1v.473h1.627v.51h2.375v.51h4.102v.575h2.303v.679h2.716v.746h1.691v.848h3.122v1.082h2.913v1.29h1.527v1.49h.915v1.696h3.593" transform="matrix(2.20264 0 0 -2.20264 282.097 181.073)"/><path style="stroke:none;fill-rule:nonzero;fill:#231f20;fill-opacity:1" d="M252.977 54.844c0-3.164-1.38-5.367-3.407-5.367-1.996 0-3.375 2.203-3.375 5.367 0 3.234 1.38 5.402 3.375 5.402 2.028 0 3.407-2.168 3.407-5.402Zm-1.344 0c0 2.511-.824 4.234-2.031 4.234-1.239 0-2.063-1.687-2.063-4.234 0-2.477.824-4.164 2.031-4.164 1.239 0 2.063 1.652 2.063 4.164ZM256.176 59.316c0-.48-.414-.859-.895-.859-.48 0-.86.379-.86.86 0 .484.38.863.86.863s.895-.38.895-.864ZM264.555 54.844c0-3.164-1.375-5.367-3.407-5.367-1.996 0-3.375 2.203-3.375 5.367 0 3.234 1.38 5.402 3.375 5.402 2.032 0 3.407-2.168 3.407-5.402Zm-1.34 0c0 2.511-.828 4.234-2.031 4.234-1.239 0-2.067-1.687-2.067-4.234 0-2.477.828-4.164 2.031-4.164 1.239 0 2.067 1.652 2.067 4.164ZM271.887 57.496c0-.863-.278-1.344-1.239-2.137l-1.101-.859.894-.93c.618-.617.86-1.136.86-1.824 0-1.34-1-2.27-2.446-2.27-1.617 0-2.82 1.032-2.82 2.407 0 .691.309 1.344.824 1.824l1.036.965-.864.828c-1.031 1.031-1.375 1.648-1.375 2.34 0 1.41 1.274 2.476 2.961 2.476 1.926 0 3.27-1.171 3.27-2.82Zm-1.825-5.785c0 .414-.277 1.035-.687 1.445l-.691.723-.79-.86c-.378-.378-.515-.722-.515-1.136 0-.754.55-1.305 1.375-1.305.723 0 1.308.516 1.308 1.133Zm.446 5.957c0 .895-.758 1.512-1.79 1.512-1.03 0-1.718-.551-1.718-1.34 0-.52.172-.895.754-1.55l.898-.966 1.098.965c.586.516.758.86.758 1.379ZM252.977 86.453c0-3.168-1.38-5.371-3.407-5.371-1.996 0-3.375 2.203-3.375 5.371 0 3.234 1.38 5.402 3.375 5.402 2.028 0 3.407-2.168 3.407-5.402Zm-1.344 0c0 2.512-.824 4.23-2.031 4.23-1.239 0-2.063-1.683-2.063-4.23 0-2.48.824-4.164 2.031-4.164 1.239 0 2.063 1.648 2.063 4.164ZM256.176 90.926c0-.48-.414-.86-.895-.86-.48 0-.86.38-.86.86s.38.86.86.86.895-.38.895-.86ZM264.555 86.453c0-3.168-1.375-5.371-3.407-5.371-1.996 0-3.375 2.203-3.375 5.371 0 3.234 1.38 5.402 3.375 5.402 2.032 0 3.407-2.168 3.407-5.402Zm-1.34 0c0 2.512-.828 4.23-2.031 4.23-1.239 0-2.067-1.683-2.067-4.23 0-2.48.828-4.164 2.031-4.164 1.239 0 2.067 1.648 2.067 4.164ZM272.023 88.309c0-1.754-.93-2.856-2.445-2.856-.687 0-1.41.137-2.406.48.207-1.273.344-1.753.824-2.34.207-.273.516-.48.828-.652.688-.343 1.168-.449 2.375-.449h.137V81.36h-.313c-1.304-.07-1.855.067-2.543.41a3.47 3.47 0 0 0-1.308 1.036c-.93 1.101-1.344 2.441-1.344 4.3 0 3.028 1.172 4.75 3.235 4.75 1.722 0 2.96-1.515 2.96-3.546Zm-1.273.105c0 1.273-.688 2.27-1.652 2.27-1.239 0-1.891-1.239-1.961-3.68.824-.277 1.582-.45 2.097-.45.965 0 1.516.688 1.516 1.86ZM252.977 118.059c0-3.164-1.38-5.368-3.407-5.368-1.996 0-3.375 2.204-3.375 5.368 0 3.234 1.38 5.402 3.375 5.402 2.028 0 3.407-2.168 3.407-5.402Zm-1.344 0c0 2.511-.824 4.234-2.031 4.234-1.239 0-2.063-1.688-2.063-4.234 0-2.477.824-4.164 2.031-4.164 1.239 0 2.063 1.652 2.063 4.164ZM256.176 122.535c0-.484-.414-.863-.895-.863-.48 0-.86.379-.86.863 0 .48.38.86.86.86s.895-.38.895-.86ZM264.555 118.059c0-3.164-1.375-5.368-3.407-5.368-1.996 0-3.375 2.204-3.375 5.368 0 3.234 1.38 5.402 3.375 5.402 2.032 0 3.407-2.168 3.407-5.402Zm-1.34 0c0 2.511-.828 4.234-2.031 4.234-1.239 0-2.067-1.688-2.067-4.234 0-2.477.828-4.164 2.031-4.164 1.239 0 2.067 1.652 2.067 4.164ZM271.953 120.605v-1.066h-1.273v-6.504h-.754l-4.578 6.778v.792h4.199v2.618h1.133v-2.618Zm-2.406-1.066h-2.719l2.719-3.992ZM252.977 149.668c0-3.168-1.38-5.371-3.407-5.371-1.996 0-3.375 2.203-3.375 5.371 0 3.234 1.38 5.402 3.375 5.402 2.028 0 3.407-2.168 3.407-5.402Zm-1.344 0c0 2.512-.824 4.23-2.031 4.23-1.239 0-2.063-1.683-2.063-4.23 0-2.48.824-4.164 2.031-4.164 1.239 0 2.063 1.648 2.063 4.164ZM256.176 154.14c0-.48-.414-.859-.895-.859-.48 0-.86.38-.86.86s.38.859.86.859.895-.379.895-.86ZM264.555 149.668c0-3.168-1.375-5.371-3.407-5.371-1.996 0-3.375 2.203-3.375 5.371 0 3.234 1.38 5.402 3.375 5.402 2.032 0 3.407-2.168 3.407-5.402Zm-1.34 0c0 2.512-.828 4.23-2.031 4.23-1.239 0-2.067-1.683-2.067-4.23 0-2.48.828-4.164 2.031-4.164 1.239 0 2.067 1.648 2.067 4.164ZM271.781 154.828v-1.168h-4.265l2.34-2.89c.62-.793 1.203-1.723 1.41-2.344.105-.309.136-.688.136-1.067 0-1.718-.996-2.75-2.613-2.75-.93 0-1.723.309-2.582.996-.172.137-.379.31-.621.48l.793.895c.828-.753.965-.859 1.344-1.03.273-.173.617-.243.96-.243.965 0 1.481.586 1.481 1.621 0 .688-.207 1.203-.758 2.027-.41.622-.824 1.208-1.304 1.793l-2.446 3.094v.586ZM252.977 181.273c0-3.164-1.38-5.367-3.407-5.367-1.996 0-3.375 2.203-3.375 5.367 0 3.235 1.38 5.403 3.375 5.403 2.028 0 3.407-2.168 3.407-5.403Zm-1.344 0c0 2.512-.824 4.235-2.031 4.235-1.239 0-2.063-1.688-2.063-4.235 0-2.476.824-4.164 2.031-4.164 1.239 0 2.063 1.653 2.063 4.164ZM256.176 185.75c0-.484-.414-.863-.895-.863-.48 0-.86.379-.86.863 0 .48.38.86.86.86s.895-.38.895-.86ZM264.555 181.273c0-3.164-1.375-5.367-3.407-5.367-1.996 0-3.375 2.203-3.375 5.367 0 3.235 1.38 5.403 3.375 5.403 2.032 0 3.407-2.168 3.407-5.403Zm-1.34 0c0 2.512-.828 4.235-2.031 4.235-1.239 0-2.067-1.688-2.067-4.235 0-2.476.828-4.164 2.031-4.164 1.239 0 2.067 1.653 2.067 4.164ZM272.266 181.273c0-3.164-1.38-5.367-3.41-5.367-1.997 0-3.372 2.203-3.372 5.367 0 3.235 1.375 5.403 3.371 5.403 2.032 0 3.41-2.168 3.41-5.403Zm-1.344 0c0 2.512-.824 4.235-2.031 4.235-1.239 0-2.063-1.688-2.063-4.235 0-2.476.824-4.164 2.027-4.164 1.243 0 2.067 1.653 2.067 4.164ZM285.508 196.309c0-3.168-1.375-5.371-3.406-5.371-1.997 0-3.372 2.203-3.372 5.37 0 3.235 1.375 5.403 3.372 5.403 2.03 0 3.406-2.168 3.406-5.402Zm-1.34 0c0 2.511-.828 4.23-2.031 4.23-1.239 0-2.067-1.684-2.067-4.23 0-2.48.828-4.168 2.032-4.168 1.238 0 2.066 1.652 2.066 4.168ZM328.129 201.469v-.895h-1.86v-9.293h-3.027v1h1.89v8.293h-1.89v.895ZM371.969 201.469V200.3h-4.266l2.34-2.89c.621-.794 1.203-1.724 1.41-2.345.106-.308.14-.687.14-1.066 0-1.719-1-2.754-2.616-2.754-.93 0-1.723.313-2.582 1-.172.137-.38.309-.618.48l.79.895c.828-.754.964-.86 1.343-1.031.274-.172.617-.242.965-.242.96 0 1.477.586 1.477 1.617 0 .691-.207 1.207-.754 2.031a21.377 21.377 0 0 1-1.309 1.79l-2.445 3.097v.586ZM414.898 198.305c0-1.38-.757-2.375-1.89-2.547.515-.38.687-.551.96-.965.313-.516.45-.965.45-1.516 0-1.273-.828-2.097-2.133-2.097-.484 0-1 .066-1.379.238-.379.14-.617.312-1.308.863l.691.86c.895-.723 1.168-.86 1.719-.86.656 0 1.066.446 1.066 1.168 0 .485-.207 1.035-.617 1.48-.379.45-.656.622-1.414.895v.895h.691c1.133 0 1.825.656 1.825 1.722 0 1.204-.793 2.063-1.895 2.063-.516 0-.894-.137-1.754-.582l-.515 1.066c.96.48 1.41.617 2.132.617 1.891 0 3.371-1.445 3.371-3.3ZM459.102 198.855v-1.07h-1.274v-6.504h-.758l-4.578 6.781v.793h4.2v2.614h1.136v-2.614Zm-2.41-1.07h-2.72l2.72-3.992ZM428.922 87.973c0-.965-.274-1.688-.79-2.203-.585-.586-1.273-.829-2.48-.829h-3.199V95.13h1.274v-3.856c.894.106 1.168.141 1.546.141 2.239 0 3.649-1.309 3.649-3.441Zm-1.34.066c0 .965-.45 1.758-1.172 2.066-.344.137-.758.207-1.344.207-.343 0-.652-.035-1.34-.105v-4.2h1.72c.827 0 1.273.141 1.585.45.38.379.551.93.551 1.582ZM431.746 95.129V83.875h-1.133v11.254ZM439.563 94.371c-.344-.066-.516-.207-.551-.379v-4.3c0-1.067-.895-1.72-2.27-1.72-1.515 0-2.547.618-2.547 1.548 0 .171.032.242.137.414l1.168-.243c-.031-.101-.066-.171-.066-.242 0-.41.343-.617 1.066-.617.895 0 1.344.309 1.344.86v1.273l-2.446.586c-.996.242-1.546.894-1.546 1.926 0 1.101.753 1.824 1.855 1.824.516 0 1.066-.137 1.48-.38.243-.136.415-.237.758-.55.07.656.414.895 1.344.965Zm-1.72-.996c-1 .723-1.378.895-1.894.895-.55 0-.93-.344-.93-.895 0-.277.036-.45.208-.758l2.617-.687ZM447.004 94.578l-.582-.894c-.586.414-1.035.586-1.688.586-1.515 0-2.445-1-2.445-2.618 0-1.547.93-2.648 2.34-2.648.621 0 1.035.172 1.586.617l.652-.96c-.48-.345-.687-.45-1.168-.552-.312-.105-.656-.136-1.035-.136-2.133 0-3.648 1.547-3.648 3.75 0 2.132 1.445 3.613 3.582 3.613.687 0 1.375-.172 1.96-.48.102-.036.239-.141.446-.278ZM453.887 91.55v-.687c0-1.758-1.067-2.89-2.719-2.89-1.996 0-3.305 1.445-3.305 3.68 0 2.202 1.309 3.683 3.27 3.683.894 0 1.48-.207 2.512-.86l-.45-.894c-.754.516-1.203.688-1.824.688-1.41 0-2.27-1.032-2.27-2.72Zm-1.274-.859h-3.441c.273-1.101.96-1.687 1.926-1.687.964 0 1.48.586 1.515 1.687ZM461.906 91.309c0-1.996-1.168-3.336-2.922-3.336-.449 0-.964.03-1.308.136-.278.067-.45.137-.828.344v-4.578h-1.133v11.047c.308.172.445.207.687.242.38.102.996.172 1.41.172 2.477 0 4.094-1.582 4.094-4.027Zm-1.27.07c0 1.168-.277 1.789-1.034 2.34a3.335 3.335 0 0 1-1.137.515c-.172.036-.375.036-.582.036-.414 0-.692-.036-1.035-.207V89.62c.586-.41 1.101-.582 1.757-.582 1.274 0 2.032.895 2.032 2.34ZM470.137 91.652c0-2.03-1.582-3.68-3.442-3.68-1.894 0-3.476 1.65-3.476 3.68 0 1.996 1.582 3.684 3.476 3.684 1.86 0 3.442-1.688 3.442-3.684Zm-1.274 0c0 1.48-.965 2.653-2.168 2.653-1.238 0-2.203-1.172-2.203-2.653 0-1.48.965-2.648 2.203-2.648 1.203 0 2.168 1.168 2.168 2.648ZM401.566 156.34l-3.027-4.543c.758-.172 1.137-.344 1.547-.793.586-.516.894-1.305.894-2.098 0-.758-.308-1.515-.789-1.996-.586-.55-1.171-.758-2.41-.758h-3.097v10.188h1.273v-4.371h1.344l2.82 4.37Zm-1.925-7.399c0 1.309-.723 1.961-2.032 1.961h-1.652v-3.683h1.652c.895 0 1.172.07 1.48.312.345.274.552.754.552 1.41ZM409.574 152.863c0-2.031-1.582-3.683-3.441-3.683-1.895 0-3.477 1.652-3.477 3.683 0 1.996 1.582 3.684 3.477 3.684 1.86 0 3.441-1.688 3.441-3.684Zm-1.273 0c0 1.48-.965 2.653-2.168 2.653-1.238 0-2.203-1.172-2.203-2.653 0-1.48.965-2.648 2.203-2.648 1.203 0 2.168 1.168 2.168 2.648ZM416.176 154.55c0-1.1-.414-1.581-1.895-2.202-1.238-.516-1.445-.621-1.722-.895-.102-.137-.172-.277-.172-.45 0-.515.52-.894 1.308-.894.243 0 .516.07.793.141.344.102.551.172.996.445l.586-.93c-.586-.308-.824-.41-1.375-.515-.277-.07-.586-.07-.894-.07-1.617 0-2.653.757-2.653 1.965 0 .859.485 1.34 1.825 1.89 1.238.516 1.582.723 1.859 1.102.07.136.137.308.137.484 0 .55-.516.926-1.239.926-.48 0-1.101-.137-1.582-.375-.14-.07-.312-.176-.55-.277l-.485.964c.723.344 1 .48 1.653.582.379.07.691.106 1 .106 1.511 0 2.41-.758 2.41-1.996ZM424.203 156.34v-6.985h-1.172v4.266c-.824 1.102-1.926 1.895-2.648 1.895-.586 0-.863-.344-.863-1.207v-4.954h-1.133v5.23c0 1.31.652 1.962 1.855 1.962 1.035 0 1.965-.516 2.79-1.652v1.445ZM432.129 149.355h-1.274l-1.89 5.676-.035.278-.035-.313-1.926-5.64h-1.239l2.614 7.19h1.066ZM438.883 155.582c-.344-.066-.516-.207-.551-.379v-4.3c0-1.067-.894-1.723-2.27-1.723-1.515 0-2.546.62-2.546 1.55 0 .172.035.243.136.415l1.172-.243c-.035-.101-.07-.172-.07-.242 0-.41.344-.617 1.066-.617.895 0 1.344.309 1.344.86v1.273l-2.445.586c-.996.238-1.547.894-1.547 1.925 0 1.102.758 1.825 1.86 1.825.515 0 1.066-.137 1.476-.38.242-.136.414-.237.758-.55.07.656.414.895 1.343.965Zm-1.719-.996c-1 .723-1.379.894-1.894.894-.551 0-.93-.343-.93-.894 0-.277.035-.45.207-.758l2.617-.687ZM445.637 154.55c0-1.1-.41-1.581-1.89-2.202-1.24-.516-1.446-.621-1.724-.895-.101-.137-.171-.277-.171-.45 0-.515.515-.894 1.308-.894.242 0 .516.07.793.141.344.102.55.172.996.445l.586-.93c-.586-.308-.824-.41-1.375-.515-.277-.07-.586-.07-.898-.07-1.617 0-2.649.757-2.649 1.965 0 .859.48 1.34 1.825 1.89 1.238.516 1.582.723 1.859 1.102.066.136.137.308.137.484 0 .55-.516.926-1.239.926-.48 0-1.101-.137-1.582-.375-.14-.07-.312-.176-.55-.277l-.485.964c.723.344 1 .48 1.652.582.38.07.688.106 1 .106 1.512 0 2.407-.758 2.407-1.996ZM451.086 155.652l-.484-.757c-.48.378-.723.48-1.032.48-.242 0-.379-.102-.379-.344-.035-.066-.035-.207-.035-.41l-.031-.312v-3.993h1.855v-.96h-1.855v-2.032h-1.137v2.031l-1.172.31v.651h1.172v4.68c0 .899.516 1.55 1.34 1.55.55 0 .93-.206 1.758-.894ZM457.879 155.582c-.344-.066-.516-.207-.55-.379v-4.3c0-1.067-.895-1.723-2.27-1.723-1.516 0-2.547.62-2.547 1.55 0 .172.035.243.136.415l1.172-.243c-.035-.101-.07-.172-.07-.242 0-.41.344-.617 1.066-.617.895 0 1.344.309 1.344.86v1.273l-2.445.586c-.996.238-1.547.894-1.547 1.925 0 1.102.754 1.825 1.855 1.825.52 0 1.07-.137 1.48-.38.243-.136.415-.237.759-.55.07.656.414.895 1.343.965Zm-1.719-.996c-1 .723-1.379.894-1.894.894-.551 0-.93-.343-.93-.894 0-.277.035-.45.207-.758l2.617-.687ZM463.188 155.652l-.481-.757c-.484.378-.723.48-1.031.48-.242 0-.38-.102-.38-.344-.034-.066-.034-.207-.034-.41l-.035-.312v-3.993h1.859v-.96h-1.86v-2.032h-1.136v2.031l-1.168.31v.651h1.168v4.68c0 .899.515 1.55 1.344 1.55.55 0 .93-.206 1.753-.894ZM466.129 146.91a.764.764 0 0 0-.758-.758.744.744 0 0 0-.758.758c0 .414.313.758.758.758a.764.764 0 0 0 .758-.758Zm-.207 9.43v-6.985h-1.137v6.985ZM474.375 156.34v-5.23c0-1.31-.582-1.93-1.824-1.93-.653 0-1.34.242-1.856.691-.343.274-.484.41-.965.961v-1.477h-1.136v6.985h1.136v-4.266c1.239-1.344 1.961-1.86 2.684-1.86.309 0 .621.138.723.345.07.207.105.379.105.824v4.957Zm0 0"/><path style="fill:none;stroke-width:.5;stroke-linecap:butt;stroke-linejoin:miter;stroke:#231f20;stroke-opacity:1;stroke-miterlimit:4" d="M0-.001h-3.25" transform="matrix(2.20264 0 0 -2.20264 127.46 40.231)"/><path style="stroke:none;fill-rule:nonzero;fill:#231f20;fill-opacity:1" d="M105.71 44.902v-.894h-1.858v-9.293h-3.028v1h1.89v8.293h-1.89v.894ZM109.758 44.215c0-.48-.414-.86-.899-.86-.48 0-.859.38-.859.86s.379.86.86.86c.484 0 .898-.38.898-.86ZM118.133 39.742c0-3.168-1.375-5.37-3.406-5.37-1.997 0-3.372 2.202-3.372 5.37 0 3.235 1.375 5.403 3.372 5.403 2.03 0 3.406-2.168 3.406-5.403Zm-1.34 0c0 2.512-.828 4.23-2.031 4.23-1.239 0-2.067-1.683-2.067-4.23 0-2.48.828-4.164 2.032-4.164 1.238 0 2.066 1.649 2.066 4.164Zm0 0"/><path style="fill:none;stroke-width:.5;stroke-linecap:square;stroke-linejoin:miter;stroke:#231f20;stroke-opacity:1;stroke-miterlimit:4" d="M0 .001v108.503" transform="matrix(2.20264 0 0 -2.20264 127.46 279.23)"/><path style="stroke:none;fill-rule:nonzero;fill:#231f20;fill-opacity:1" d="M66.691 224.234c-.722.926-1.066 2.028-1.066 3.407 0 1.789.445 3.027 1.547 4.129 1.031 1.066 2.476 1.652 4.062 1.652 1.72 0 3.336-.688 4.371-1.824.93-1.032 1.34-2.27 1.34-3.957 0-.657-.066-1.239-.172-1.758-.101-.48-.207-.754-.515-1.477l-1.754.38c.379.995.516 1.616.516 2.405 0 2.375-1.551 3.926-3.891 3.926-2.063 0-3.543-1.48-3.543-3.582 0-.96.242-1.824.758-2.512ZM76.738 215.992h-7.672v1.996h4.61l.277.278c.93.859 1.34 1.445 1.34 1.859 0 .445-.344.617-1.305.617h-4.922v1.996h5.645c1.445 0 2.168-.687 2.168-2.097 0-.965-.414-1.723-1.414-2.653h1.273ZM76.738 202.207h-5.64c-1.45 0-2.203.688-2.203 2.063 0 1.035.515 1.894 1.511 2.718-.96.207-1.511.899-1.511 2.032 0 .964.41 1.722 1.445 2.652h-1.274v1.996h7.672v-1.996h-4.61l-.308-.242c-.898-.86-1.308-1.446-1.308-1.86 0-.48.343-.652 1.273-.652h4.953v-1.961h-4.61c-.55-.52-.827-.793-1.066-1.066-.378-.45-.55-.828-.55-1.07 0-.481.343-.653 1.273-.653h4.953ZM76.738 193.246h-7.672v1.996h4.61l.277.274c.93.863 1.34 1.445 1.34 1.859 0 .45-.344.621-1.305.621h-4.922v1.996h5.645c1.445 0 2.168-.687 2.168-2.101 0-.961-.414-1.72-1.414-2.649h1.273ZM76.738 189.129H64.695v1.96h12.043ZM75.363 180.809c-.07.52-.172.62-.86.62h-3.202c-1.684 0-2.442.825-2.442 2.65 0 2.066.758 3.269 2.098 3.269.242 0 .313-.032.55-.102l-.41-1.894c-.105.035-.14.07-.206.07-.38 0-.692-.48-.692-1.067 0-.652.38-.964 1.207-.964h.653l.62 2.203c.344 1.101.688 1.582 1.41 1.824.243.102.516.137.759.137 1.238 0 2.097-.93 2.097-2.235 0-.757-.273-1.414-.96-2.136.687-.344.859-.653.859-1.653v-.41Zm-.55 2.582c.242.277.277.379.343.515.172.278.242.551.242.828 0 .48-.308.79-.793.79-.207 0-.343-.032-.652-.172l-.621-1.961ZM75.984 175.148l-1.414.622c.348.55.485.824.485 1.066 0 .309-.278.379-1.137.379h-3.406v-1.653h-1.446v1.653h-2.308v1.86h2.308l.207 1.167h1.239v-1.168h4.781c1.137 0 1.652-.449 1.652-1.48 0-.551-.172-1.137-.515-1.723a5.787 5.787 0 0 0-.446-.723ZM66.313 172.008c-.758 0-1.344.515-1.344 1.101 0 .618.586 1.133 1.344 1.133.722 0 1.34-.515 1.34-1.133 0-.586-.618-1.101-1.34-1.101Zm10.425.137h-7.672v1.96h7.672ZM69.066 163.488v2.063l5.094 1.722.309.067-.309.035-5.094 1.55v2.063l7.672-2.582v-1.96ZM75.984 155.992l-1.48.723c.445.691.586 1 .723 1.445.101.313.136.621.136.93 0 .722-.379 1.379-.93 1.722-.308.172-.585.208-1.238.239v-5.059h-.824c-2.101 0-3.512 1.309-3.512 3.203 0 2.203 1.825 3.852 4.235 3.852 2.37 0 3.851-1.445 3.851-3.715 0-.894-.172-1.723-.55-2.512-.067-.207-.207-.484-.41-.828Zm-4.027 1.965v2.992c-1.035-.137-1.617-.758-1.617-1.617 0-.93.445-1.309 1.617-1.375ZM76.738 148.055H65.832v2.066h10.906ZM76.738 138.73h-5.64c-1.45 0-2.203.688-2.203 2.063 0 .965.41 1.723 1.445 2.652h-1.274v1.996h7.672v-1.996h-4.61l-.308-.242c-.898-.86-1.308-1.445-1.308-1.86 0-.48.343-.652 1.273-.652h4.953ZM76.223 130.414l-1.618.723c.485.824.657 1.308.657 1.96 0 1.208-.93 2.032-2.309 2.032-1.445 0-2.441-.93-2.441-2.238 0-.582.136-.961.586-1.547l-1.516-.93c-.379.621-.48.895-.621 1.445-.066.414-.137.825-.137 1.274 0 2.445 1.688 4.062 4.164 4.062 2.41 0 3.957-1.515 3.957-3.89 0-.758-.136-1.547-.445-2.27a6.842 6.842 0 0 1-.277-.62ZM66.313 127.105c-.758 0-1.344.516-1.344 1.102 0 .621.586 1.137 1.344 1.137.722 0 1.34-.516 1.34-1.137 0-.586-.618-1.102-1.34-1.102Zm10.425.137h-7.672v1.965h7.672ZM76.738 118.45H64.695v1.96h4.68c-.309.445-.379.617-.48 1.031-.036.243-.07.485-.07.688 0 2.031 1.925 3.648 4.3 3.648 2.203 0 3.82-1.304 3.82-3.129 0-.52-.136-1-.41-1.445-.242-.379-.379-.484-.828-.793h1.031Zm-2.547 1.96c.727.48 1.137 1.102 1.137 1.719 0 .93-.96 1.586-2.34 1.586-1.48 0-2.547-.828-2.547-1.895 0-.617.309-1.168.723-1.308.172-.032.55-.102 1-.102ZM75.984 109.984l-1.48.723c.445.691.586 1 .723 1.445.101.313.136.621.136.93 0 .723-.379 1.379-.93 1.723-.308.172-.585.207-1.238.238v-5.059h-.824c-2.101 0-3.512 1.309-3.512 3.204 0 2.203 1.825 3.855 4.235 3.855 2.37 0 3.851-1.45 3.851-3.719 0-.894-.172-1.722-.55-2.511-.067-.208-.207-.485-.41-.829Zm-4.027 1.965v2.992c-1.035-.136-1.617-.757-1.617-1.617 0-.93.445-1.308 1.617-1.375ZM76.738 101.809h-5.64c-1.45 0-2.203.687-2.203 2.062 0 .965.41 1.723 1.445 2.652h-1.274v1.997h7.672v-1.997h-4.61l-.308-.242c-.898-.86-1.308-1.445-1.308-1.86 0-.48.343-.651 1.273-.651h4.953ZM76.223 93.492l-1.618.723c.485.824.657 1.308.657 1.96 0 1.208-.93 2.032-2.309 2.032-1.445 0-2.441-.93-2.441-2.238 0-.582.136-.961.586-1.547l-1.516-.93c-.379.621-.48.895-.621 1.445-.066.415-.137.825-.137 1.274 0 2.445 1.688 4.062 4.164 4.062 2.41 0 3.957-1.515 3.957-3.89 0-.758-.136-1.547-.445-2.27a6.842 6.842 0 0 1-.277-.62ZM75.984 85.918l-1.48.723c.445.687.586.996.723 1.445.101.309.136.617.136.93 0 .722-.379 1.375-.93 1.718-.308.172-.585.207-1.238.243v-5.059h-.824c-2.101 0-3.512 1.305-3.512 3.2 0 2.202 1.825 3.855 4.235 3.855 2.37 0 3.851-1.446 3.851-3.72 0-.894-.172-1.718-.55-2.51-.067-.208-.207-.481-.41-.825Zm-4.027 1.96v2.993c-1.035-.137-1.617-.758-1.617-1.617 0-.93.445-1.309 1.617-1.375Zm0 0"/><path style="fill:none;stroke-width:.5;stroke-linecap:square;stroke-linejoin:miter;stroke:#231f20;stroke-opacity:1;stroke-miterlimit:4" d="M0 .001h-161.71" transform="matrix(2.20264 0 0 -2.20264 483.652 279.23)"/><path style="fill:none;stroke-width:.5;stroke-linecap:butt;stroke-linejoin:miter;stroke:#231f20;stroke-opacity:1;stroke-miterlimit:4" d="M0 .002h-3.25" transform="matrix(2.20264 0 0 -2.20264 127.46 88.03)"/><path style="stroke:none;fill-rule:nonzero;fill:#231f20;fill-opacity:1" d="M106.555 87.54c0-3.169-1.375-5.372-3.407-5.372-1.996 0-3.375 2.203-3.375 5.371 0 3.234 1.38 5.402 3.375 5.402 2.032 0 3.407-2.168 3.407-5.402Zm-1.344 0c0 2.51-.824 4.23-2.027 4.23-1.243 0-2.067-1.684-2.067-4.23 0-2.481.824-4.165 2.031-4.165 1.239 0 2.063 1.652 2.063 4.164ZM109.754 92.012c0-.48-.41-.86-.895-.86-.48 0-.859.38-.859.86s.379.86.86.86c.484 0 .894-.38.894-.86ZM117.754 90.188c0-.86-.274-1.34-1.238-2.133l-1.102-.86.895-.93c.62-.62.863-1.136.863-1.824 0-1.343-1-2.273-2.445-2.273-1.618 0-2.82 1.035-2.82 2.41 0 .688.308 1.344.823 1.824l1.032.965-.86.824c-1.03 1.032-1.375 1.653-1.375 2.34 0 1.41 1.274 2.48 2.957 2.48 1.93 0 3.27-1.171 3.27-2.823Zm-1.82-5.782c0 .414-.278 1.031-.692 1.446l-.687.722-.793-.86c-.375-.378-.516-.722-.516-1.136 0-.758.55-1.308 1.379-1.308.723 0 1.309.515 1.309 1.136Zm.445 5.953c0 .895-.758 1.516-1.79 1.516-1.03 0-1.722-.55-1.722-1.344 0-.515.172-.894.758-1.547l.895-.964 1.101.964c.586.516.758.86.758 1.375Zm0 0"/><path style="fill:none;stroke-width:.5;stroke-linecap:butt;stroke-linejoin:miter;stroke:#231f20;stroke-opacity:1;stroke-miterlimit:4" d="M0 0h-3.25" transform="matrix(2.20264 0 0 -2.20264 127.46 135.83)"/><path style="stroke:none;fill-rule:nonzero;fill:#231f20;fill-opacity:1" d="M106.555 135.34c0-3.168-1.375-5.367-3.407-5.367-1.996 0-3.375 2.199-3.375 5.367 0 3.234 1.38 5.402 3.375 5.402 2.032 0 3.407-2.168 3.407-5.402Zm-1.344 0c0 2.512-.824 4.234-2.027 4.234-1.243 0-2.067-1.687-2.067-4.234 0-2.477.824-4.164 2.031-4.164 1.239 0 2.063 1.652 2.063 4.164ZM109.754 139.813c0-.481-.41-.86-.895-.86-.48 0-.859.379-.859.86 0 .484.379.863.86.863.484 0 .894-.38.894-.863ZM117.895 137.2c0-1.759-.93-2.86-2.446-2.86-.687 0-1.41.14-2.41.484.207-1.273.348-1.758.828-2.34.207-.277.516-.484.824-.656.692-.344 1.172-.445 2.375-.445h.141v-1.137h-.312c-1.31-.07-1.86.07-2.547.414-.516.238-.961.586-1.309 1.031-.926 1.102-1.34 2.446-1.34 4.301 0 3.031 1.168 4.75 3.235 4.75 1.722 0 2.96-1.512 2.96-3.543Zm-1.274.1c0 1.274-.687 2.274-1.652 2.274-1.239 0-1.895-1.242-1.961-3.683.824-.278 1.582-.45 2.097-.45.965 0 1.516.692 1.516 1.86Zm0 0"/><path style="fill:none;stroke-width:.5;stroke-linecap:butt;stroke-linejoin:miter;stroke:#231f20;stroke-opacity:1;stroke-miterlimit:4" d="M0 0h-3.25" transform="matrix(2.20264 0 0 -2.20264 127.46 183.63)"/><path style="stroke:none;fill-rule:nonzero;fill:#231f20;fill-opacity:1" d="M106.555 183.14c0-3.167-1.375-5.37-3.407-5.37-1.996 0-3.375 2.203-3.375 5.37 0 3.235 1.38 5.403 3.375 5.403 2.032 0 3.407-2.168 3.407-5.402Zm-1.344 0c0 2.512-.824 4.231-2.027 4.231-1.243 0-2.067-1.684-2.067-4.23 0-2.48.824-4.164 2.031-4.164 1.239 0 2.063 1.648 2.063 4.164ZM109.754 187.613c0-.48-.41-.86-.895-.86-.48 0-.859.38-.859.86s.379.86.86.86c.484 0 .894-.38.894-.86ZM117.824 185.688v-1.067h-1.273v-6.508h-.758l-4.578 6.782v.792h4.2v2.614h1.136v-2.613Zm-2.41-1.067h-2.719l2.72-3.996Zm0 0"/><path style="fill:none;stroke-width:.5;stroke-linecap:butt;stroke-linejoin:miter;stroke:#231f20;stroke-opacity:1;stroke-miterlimit:4" d="M0-.002h-3.25" transform="matrix(2.20264 0 0 -2.20264 127.46 231.43)"/><path style="stroke:none;fill-rule:nonzero;fill:#231f20;fill-opacity:1" d="M106.555 230.938c0-3.165-1.375-5.368-3.407-5.368-1.996 0-3.375 2.203-3.375 5.368 0 3.238 1.38 5.406 3.375 5.406 2.032 0 3.407-2.168 3.407-5.406Zm-1.344 0c0 2.515-.824 4.234-2.027 4.234-1.243 0-2.067-1.688-2.067-4.234 0-2.477.824-4.165 2.031-4.165 1.239 0 2.063 1.653 2.063 4.165ZM109.754 235.414c0-.484-.41-.863-.895-.863-.48 0-.859.379-.859.863 0 .48.379.86.86.86.484 0 .894-.38.894-.86ZM117.652 236.102v-1.172h-4.265l2.34-2.89c.617-.79 1.203-1.72 1.41-2.34.101-.31.136-.688.136-1.067 0-1.719-.996-2.754-2.613-2.754-.93 0-1.722.309-2.582 1-.172.137-.379.309-.621.48l.793.895c.824-.758.96-.86 1.34-1.031.277-.172.62-.243.965-.243.965 0 1.48.586 1.48 1.618 0 .687-.207 1.207-.758 2.03a21.144 21.144 0 0 1-1.308 1.79l-2.442 3.098v.586Zm0 0"/><path style="fill:none;stroke-width:.5;stroke-linecap:butt;stroke-linejoin:miter;stroke:#231f20;stroke-opacity:1;stroke-miterlimit:4" d="M0 .001h-3.25" transform="matrix(2.20264 0 0 -2.20264 127.46 279.23)"/><path style="stroke:none;fill-rule:nonzero;fill:#231f20;fill-opacity:1" d="M106.555 278.738c0-3.168-1.375-5.367-3.407-5.367-1.996 0-3.375 2.2-3.375 5.367 0 3.235 1.38 5.403 3.375 5.403 2.032 0 3.407-2.168 3.407-5.403Zm-1.344 0c0 2.512-.824 4.235-2.027 4.235-1.243 0-2.067-1.688-2.067-4.235 0-2.476.824-4.164 2.031-4.164 1.239 0 2.063 1.653 2.063 4.164ZM109.754 283.21c0-.48-.41-.858-.895-.858-.48 0-.859.378-.859.859 0 .484.379.863.86.863.484 0 .894-.379.894-.863ZM118.133 278.738c0-3.168-1.375-5.367-3.406-5.367-1.997 0-3.372 2.2-3.372 5.367 0 3.235 1.375 5.403 3.372 5.403 2.03 0 3.406-2.168 3.406-5.403Zm-1.34 0c0 2.512-.828 4.235-2.031 4.235-1.239 0-2.067-1.688-2.067-4.235 0-2.476.828-4.164 2.032-4.164 1.238 0 2.066 1.653 2.066 4.164ZM130.938 295.816c0-3.168-1.38-5.37-3.41-5.37-1.997 0-3.372 2.202-3.372 5.37 0 3.235 1.375 5.403 3.371 5.403 2.032 0 3.41-2.168 3.41-5.403Zm-1.344 0c0 2.512-.824 4.23-2.031 4.23-1.239 0-2.063-1.683-2.063-4.23 0-2.48.824-4.164 2.027-4.164 1.243 0 2.067 1.653 2.067 4.164Zm0 0"/><path style="fill:none;stroke-width:.5;stroke-linecap:butt;stroke-linejoin:miter;stroke:#231f20;stroke-opacity:1;stroke-miterlimit:4" d="M0 .001v-3.25" transform="matrix(2.20264 0 0 -2.20264 127.46 279.23)"/><path style="stroke:none;fill-rule:nonzero;fill:#231f20;fill-opacity:1" d="M209.23 300.977v-.895h-1.855v-9.293h-3.031v1h1.894v8.293h-1.894v.895Zm0 0"/><path style="fill:none;stroke-width:.5;stroke-linecap:butt;stroke-linejoin:miter;stroke:#231f20;stroke-opacity:1;stroke-miterlimit:4" d="M-.001.001v-3.25" transform="matrix(2.20264 0 0 -2.20264 206.612 279.23)"/><path style="stroke:none;fill-rule:nonzero;fill:#231f20;fill-opacity:1" d="M288.754 300.977v-1.168h-4.266l2.34-2.891c.617-.793 1.203-1.723 1.41-2.34.102-.312.137-.691.137-1.07 0-1.719-.996-2.75-2.613-2.75-.93 0-1.723.308-2.582.996-.172.137-.38.308-.621.48l.793.899c.824-.758.96-.863 1.34-1.035.277-.172.62-.239.964-.239.965 0 1.48.582 1.48 1.618 0 .687-.206 1.203-.757 2.027a21.2 21.2 0 0 1-1.309 1.793l-2.441 3.098v.582Zm0 0"/><path style="fill:none;stroke-width:.5;stroke-linecap:butt;stroke-linejoin:miter;stroke:#231f20;stroke-opacity:1;stroke-miterlimit:4" d="M-.001.001v-3.25" transform="matrix(2.20264 0 0 -2.20264 285.76 279.23)"/><path style="stroke:none;fill-rule:nonzero;fill:#231f20;fill-opacity:1" d="M367.352 297.813c0-1.38-.754-2.375-1.891-2.547.516-.38.687-.551.96-.965.313-.516.45-.965.45-1.516 0-1.273-.824-2.098-2.133-2.098-.484 0-1 .07-1.379.243-.379.136-.617.308-1.304.86l.687.858c.895-.722 1.168-.859 1.719-.859.656 0 1.066.445 1.066 1.168 0 .484-.203 1.035-.617 1.48-.379.45-.656.622-1.41.895v.898h.688c1.136 0 1.824.653 1.824 1.72 0 1.202-.793 2.066-1.895 2.066-.515 0-.894-.141-1.754-.586l-.515 1.066c.96.48 1.41.621 2.132.621 1.895 0 3.372-1.445 3.372-3.305Zm0 0"/><path style="fill:none;stroke-width:.5;stroke-linecap:butt;stroke-linejoin:miter;stroke:#231f20;stroke-opacity:1;stroke-miterlimit:4" d="M-.002.001v-3.25" transform="matrix(2.20264 0 0 -2.20264 364.91 279.23)"/><path style="stroke:none;fill-rule:nonzero;fill:#231f20;fill-opacity:1" d="M447.227 298.363v-1.066h-1.274v-6.508h-.758l-4.574 6.781v.793h4.2v2.614h1.132v-2.614Zm-2.407-1.066h-2.718l2.718-3.992Zm0 0"/><path style="fill:none;stroke-width:.5;stroke-linecap:butt;stroke-linejoin:miter;stroke:#231f20;stroke-opacity:1;stroke-miterlimit:4" d="M.002.001v-3.25M-125.768 0v-2.25M-89.835 0v-2.25M-53.9 0v-2.25M-17.968 0v-2.25M17.962 0v-2.25" transform="matrix(2.20264 0 0 -2.20264 444.062 279.23)"/><path style="stroke:none;fill-rule:nonzero;fill:#231f20;fill-opacity:1" d="M295.824 318.379h-2.304l-2.27 4.266-2.203-4.266h-2.274l3.305 6.23v4.68h2.102v-4.68ZM303.262 328.531l-.723-1.48c-.691.449-1 .586-1.45.722a2.817 2.817 0 0 1-.925.137c-.723 0-1.379-.379-1.723-.926-.171-.312-.207-.586-.242-1.242h5.063v-.824c0-2.102-1.309-3.512-3.203-3.512-2.204 0-3.856 1.824-3.856 4.235 0 2.375 1.445 3.855 3.719 3.855.894 0 1.719-.172 2.512-.55.207-.071.48-.208.828-.415Zm-1.965-4.027h-2.992c.136-1.031.757-1.617 1.617-1.617.93 0 1.308.449 1.375 1.617ZM310.887 327.91c-.516-.066-.617-.172-.617-.86v-3.198c0-1.688-.829-2.446-2.653-2.446-2.062 0-3.27.758-3.27 2.102 0 .238.036.308.106.55l1.89-.413c-.03-.106-.066-.137-.066-.207 0-.38.48-.688 1.067-.688.652 0 .965.379.965 1.203v.656l-2.204.618c-1.101.343-1.585.687-1.824 1.41-.105.242-.14.52-.14.758 0 1.238.93 2.101 2.238 2.101.758 0 1.41-.277 2.133-.965.343.688.656.86 1.652.86h.414Zm-2.578-.55c-.278.242-.38.277-.52.347-.273.172-.55.238-.824.238-.48 0-.793-.308-.793-.789 0-.207.035-.347.172-.656l1.965-.617ZM317.098 322.027c-.309-.343-.653-.55-1.067-.55-.582 0-1.066.515-1.824 1.824l-.066-1.688h-1.723v7.676h1.96v-3.512c0-.586.173-1.03.552-1.48.277-.379.62-.582.965-.582.207 0 .378.066.585.238ZM323.77 322.129c-.692-.379-.965-.48-1.688-.652-.48-.07-.894-.137-1.273-.137-1.86 0-3.098.96-3.098 2.406 0 1.035.621 1.758 1.96 2.274l1.345.515c.515.207.757.45.757.793 0 .41-.449.688-1.207.688-.273 0-.55-.07-.859-.172-.55-.172-.86-.313-1.652-.793l-.621 1.582c.828.449 1.207.586 1.894.722.48.106.895.141 1.274.141 1.824 0 3.062-.93 3.062-2.308 0-.688-.309-1.375-.789-1.72-.348-.241-1.45-.757-2.309-1.066-.687-.242-.96-.449-.96-.793 0-.445.48-.722 1.238-.722.582 0 1.238.207 1.789.515.137.106.308.207.515.344ZM370.164 218.418h-2.305l-2.273 4.266-2.2-4.266h-2.273l3.305 6.227v4.683h2.098v-4.683ZM377.598 228.57l-.723-1.48c-.688.45-.996.586-1.445.722a2.932 2.932 0 0 1-.93.137 2.038 2.038 0 0 1-1.719-.93c-.172-.308-.207-.582-.242-1.238h5.059v-.824c0-2.102-1.305-3.512-3.2-3.512-2.203 0-3.855 1.825-3.855 4.235 0 2.375 1.445 3.855 3.719 3.855.894 0 1.718-.176 2.511-.55.207-.07.48-.208.825-.415Zm-1.961-4.027h-2.992c.136-1.031.753-1.617 1.617-1.617.93 0 1.308.445 1.375 1.617ZM385.227 227.95c-.516-.067-.618-.173-.618-.86v-3.2c0-1.687-.828-2.445-2.652-2.445-2.062 0-3.27.758-3.27 2.102 0 .238.036.308.106.547l1.89-.41c-.035-.106-.066-.137-.066-.207 0-.38.48-.688 1.067-.688.652 0 .96.379.96 1.203v.653l-2.203.62c-1.097.344-1.582.688-1.82 1.41-.105.243-.14.516-.14.759 0 1.238.93 2.101 2.238 2.101.758 0 1.41-.277 2.133-.965.343.688.656.86 1.652.86h.414Zm-2.582-.552c-.274.243-.38.278-.516.344a1.52 1.52 0 0 1-.824.242c-.485 0-.793-.308-.793-.793 0-.203.035-.343.172-.652l1.96-.621ZM391.438 222.066c-.31-.343-.653-.55-1.067-.55-.586 0-1.066.515-1.824 1.824l-.067-1.688h-1.722v7.676h1.96v-3.512c0-.586.173-1.03.552-1.48.277-.379.62-.586.964-.586.207 0 .38.07.586.242ZM398.105 222.168c-.687-.379-.96-.48-1.683-.652-.485-.07-.895-.141-1.274-.141-1.859 0-3.097.965-3.097 2.41 0 1.031.617 1.758 1.96 2.274l1.344.515c.516.207.754.446.754.79 0 .413-.445.69-1.203.69-.273 0-.55-.07-.86-.171-.55-.172-.858-.313-1.651-.793l-.622 1.582c.829.45 1.207.586 1.895.723.48.105.894.14 1.273.14 1.825 0 3.063-.93 3.063-2.308 0-.688-.309-1.375-.793-1.72-.344-.241-1.445-.757-2.305-1.066-.687-.242-.965-.449-.965-.793 0-.449.485-.722 1.243-.722.582 0 1.238.207 1.789.515.136.106.308.207.515.344ZM19.258 13.914c0-1.719-.617-3.371-1.754-4.574-1.309-1.38-2.82-1.93-5.3-1.93H7.315v13.078h4.852c2.344 0 4.098-.617 5.3-1.925 1.137-1.239 1.79-2.926 1.79-4.649Zm-2.684 0c0 2.824-1.683 4.371-4.644 4.371H9.934V9.613h1.996c1.41 0 2.441.242 3.133.758.925.688 1.511 2.066 1.511 3.543ZM41.258 15.016c0-1.446-.516-2.82-1.446-3.82-1.101-1.133-2.374-1.618-4.44-1.618h-4.06v10.91h4.024c1.996 0 3.41-.515 4.441-1.617.93-.996 1.48-2.41 1.48-3.855Zm-2.238 0c0 2.34-1.375 3.648-3.856 3.648h-1.652v-7.262h1.652c1.172 0 2.031.243 2.617.657.758.582 1.239 1.718 1.239 2.957ZM49.113 19.73l-.722-1.48c-.688.45-.996.586-1.446.723-.308.105-.62.14-.93.14a2.038 2.038 0 0 1-1.718-.93c-.172-.308-.207-.585-.242-1.238h5.058v-.828c0-2.097-1.308-3.508-3.199-3.508-2.203 0-3.855 1.82-3.855 4.23 0 2.376 1.445 3.856 3.714 3.856.895 0 1.723-.172 2.516-.55.203-.07.48-.207.824-.415Zm-1.96-4.027h-2.997c.14-1.031.758-1.617 1.617-1.617.93 0 1.309.45 1.38 1.617ZM56.742 19.113c-.515-.07-.62-.172-.62-.863v-3.2c0-1.687-.825-2.44-2.65-2.44-2.066 0-3.269.753-3.269 2.097 0 .242.035.309.102.55l1.894-.413c-.035-.102-.07-.137-.07-.207 0-.38.484-.688 1.066-.688.657 0 .965.38.965 1.203v.657l-2.203.617c-1.102.347-1.582.691-1.824 1.414a1.982 1.982 0 0 0-.137.758c0 1.238.93 2.097 2.238 2.097.754 0 1.41-.273 2.133-.965.344.692.653.864 1.653.864h.414Zm-2.582-.55c-.273.238-.379.273-.515.343-.278.172-.551.242-.829.242-.48 0-.789-.312-.789-.793 0-.207.035-.343.172-.656l1.961-.617ZM62.402 19.73l-.62-1.41c-.552.344-.825.48-1.067.48-.309 0-.38-.273-.38-1.132v-3.41h1.653v-1.445h-1.652v-2.305H58.48v2.305l-1.171.207v1.238h1.171v4.785c0 1.137.446 1.652 1.477 1.652.55 0 1.137-.172 1.723-.515.207-.106.48-.278.722-.45ZM70.262 20.488v-5.644c0-1.446-.692-2.203-2.067-2.203-.965 0-1.722.414-2.648 1.445V8.44H63.55v12.047h1.996v-4.61l.238-.312c.86-.894 1.445-1.308 1.86-1.308.48 0 .652.347.652 1.273v4.957ZM82.773 8.855c-.722-.343-1.066-.445-1.617-.55a10.194 10.194 0 0 0-.965-.067c-2.097 0-3.336 1.305-3.336 3.578v.996l-1.238.208v1.238h1.238v6.23h1.961v-6.23h1.653v-1.445h-1.653v-.446c0-1.172.102-1.55.414-1.996.239-.344.582-.516 1.102-.516.516 0 .926.137 1.582.48Zm0 0"/><path style="stroke:none;fill-rule:nonzero;fill:#231f20;fill-opacity:1" d="M85.95 13.227c-.31-.344-.657-.551-1.067-.551-.586 0-1.067.515-1.824 1.824l-.07-1.688h-1.72v7.676h1.961v-3.511c0-.582.172-1.032.551-1.477.274-.379.617-.586.961-.586.207 0 .38.066.586.238ZM93.96 16.633c0-2.305-1.651-4.024-3.855-4.024-2.203 0-3.855 1.72-3.855 4.024 0 2.308 1.652 4.062 3.855 4.062 2.204 0 3.856-1.754 3.856-4.062Zm-2.03 0c0 1.379-.828 2.515-1.825 2.515-1 0-1.824-1.136-1.824-2.515 0-1.34.824-2.477 1.824-2.477.997 0 1.825 1.137 1.825 2.477ZM106.992 20.488v-5.644c0-1.446-.687-2.203-2.066-2.203-1.031 0-1.89.515-2.719 1.515-.207-.965-.894-1.515-2.031-1.515-.961 0-1.719.414-2.649 1.445v-1.274h-1.996v7.676h1.996v-4.61l.243-.312c.859-.894 1.445-1.308 1.855-1.308.484 0 .656.347.656 1.273v4.957h1.961v-4.61c.516-.55.793-.827 1.067-1.07.449-.378.828-.55 1.066-.55.484 0 .656.347.656 1.273v4.957ZM122.043 20.488l-3.957-10.91h-1.86l-3.956 10.91h2.168l.894-2.683h3.648l.86 2.683Zm-3.613-4.472h-2.512l1.238-3.926ZM129.945 20.488v-5.644c0-1.446-.687-2.203-2.062-2.203-.965 0-1.723.414-2.653 1.445v-1.274h-1.996v7.676h1.996v-4.61l.243-.312c.859-.894 1.445-1.308 1.859-1.308.48 0 .652.347.652 1.273v4.957ZM138.125 12.813h-1.93l-1.168 3.41-.207.925-.207-.925-1.343-3.41h-2.168l2.859 6.507c-.45 1.239-.691 1.72-1.207 2.477-.414.687-.688.996-1.41 1.789l1.617 1.031c.652-.824.894-1.133 1.375-1.926.55-.93.863-1.515 1.242-2.617ZM151.953 10.438c-.93-.723-2.031-1.067-3.406-1.067-1.79 0-3.027.45-4.129 1.55-1.07 1.032-1.652 2.477-1.652 4.06 0 1.722.687 3.34 1.824 4.37 1.031.93 2.27 1.344 3.957 1.344.652 0 1.238-.07 1.754-.172.484-.101.758-.207 1.48-.515l-.379-1.758c-.996.379-1.617.52-2.41.52-2.375 0-3.922-1.551-3.922-3.891 0-2.066 1.48-3.543 3.578-3.543.965 0 1.825.238 2.512.754ZM159.676 19.113c-.516-.07-.617-.172-.617-.863v-3.2c0-1.687-.829-2.44-2.653-2.44-2.062 0-3.27.753-3.27 2.097 0 .242.036.309.106.55l1.89-.413c-.034-.102-.066-.137-.066-.207 0-.38.48-.688 1.067-.688.652 0 .96.38.96 1.203v.657l-2.198.617c-1.102.347-1.586.691-1.825 1.414-.105.238-.14.515-.14.758 0 1.238.93 2.097 2.238 2.097.758 0 1.41-.273 2.133-.965.344.692.656.864 1.652.864h.414Zm-2.582-.55c-.274.238-.38.273-.516.343a1.52 1.52 0 0 1-.824.242c-.484 0-.793-.312-.793-.793 0-.207.035-.343.172-.656l1.96-.617ZM168.055 20.488v-7.675h-1.996v4.613l-.274.273c-.86.93-1.445 1.344-1.86 1.344-.445 0-.616-.344-.616-1.309v-4.922h-1.996v5.645c0 1.445.687 2.168 2.097 2.168.965 0 1.719-.41 2.649-1.41v1.273ZM175.992 13.332c-.687-.379-.965-.484-1.687-.656-.48-.067-.895-.137-1.274-.137-1.855 0-3.097.965-3.097 2.41 0 1.031.62 1.754 1.964 2.27l1.34.515c.516.207.758.45.758.793 0 .414-.445.688-1.203.688-.277 0-.55-.067-.863-.172-.551-.172-.86-.309-1.649-.793l-.62 1.586c.823.445 1.202.586 1.894.723.48.101.894.136 1.273.136 1.82 0 3.063-.93 3.063-2.304 0-.692-.313-1.38-.793-1.723-.344-.242-1.446-.758-2.305-1.066-.688-.243-.965-.45-.965-.793 0-.446.48-.723 1.238-.723.586 0 1.239.207 1.79.52.14.101.312.203.519.343ZM184.031 19.73l-.722-1.48c-.688.45-1 .586-1.446.723-.308.105-.62.14-.93.14a2.05 2.05 0 0 1-1.722-.93c-.172-.308-.203-.585-.238-1.238h5.058v-.828c0-2.097-1.308-3.508-3.199-3.508-2.203 0-3.855 1.82-3.855 4.23 0 2.376 1.445 3.856 3.714 3.856.895 0 1.723-.172 2.512-.55.207-.07.484-.207.828-.415Zm-1.96-4.027h-2.997c.137-1.031.758-1.617 1.617-1.617.93 0 1.309.45 1.38 1.617Zm0 0"/><path style="fill:none;stroke-width:.75;stroke-linecap:butt;stroke-linejoin:miter;stroke:#5a5758;stroke-opacity:1;stroke-miterlimit:4" d="M31.375 293.215h473.25v404.581H31.376Zm0 0" transform="matrix(2.20264 0 0 -2.20264 -596.916 1107.93)"/></svg>