<svg xmlns="http://www.w3.org/2000/svg" width="500" height="309.391"><path style="stroke:none;fill-rule:nonzero;fill:#fff;fill-opacity:1" d="M.621.934h499.066V308.77H.622Zm0 0"/><path style="fill:none;stroke-width:3.4375;stroke-linecap:butt;stroke-linejoin:round;stroke:#000;stroke-opacity:1;stroke-miterlimit:10" d="M-.004-.003v736" transform="matrix(.31095 0 0 -.31095 76.337 245.491)"/><path style="fill:none;stroke-width:3.4375;stroke-linecap:butt;stroke-linejoin:round;stroke:#000;stroke-opacity:1;stroke-miterlimit:10" d="M1267.496 1581.503h1299M2206.87 1422.713c0 6.068-4.925 10.992-10.992 10.992-6.08 0-10.993-4.924-10.993-10.992 0-6.08 4.912-11.005 10.993-11.005 6.067 0 10.992 4.925 10.992 11.005ZM1927.87 1500.713c0 6.068-4.925 10.993-11.005 10.993-6.068 0-10.98-4.925-10.98-10.993 0-6.08 4.912-11.004 10.98-11.004 6.08 0 11.004 4.924 11.004 11.004ZM2168.868 1301.71c0 6.069-4.924 11.006-10.992 11.006-6.08 0-10.992-4.937-10.992-11.005 0-6.08 4.912-11.005 10.992-11.005 6.068 0 10.992 4.925 10.992 11.005ZM2020.87 1525.713c0 6.068-4.925 10.992-10.993 10.992-6.08 0-10.992-4.924-10.992-10.992 0-6.08 4.912-11.005 10.992-11.005 6.068 0 10.993 4.925 10.993 11.005ZM2354.869 933.705c0 6.08-4.925 11.005-10.993 11.005-6.08 0-10.992-4.925-10.992-11.005 0-6.068 4.912-10.992 10.992-10.992 6.068 0 10.993 4.924 10.993 10.992ZM2410.872 1130.71c0 6.068-4.924 11.005-11.004 11.005-6.068 0-10.993-4.937-10.993-11.005 0-6.08 4.925-11.005 10.993-11.005 6.08 0 11.004 4.925 11.004 11.005Zm0 0" transform="matrix(.31095 0 0 .31095 -317.786 -246.269)"/><path style="stroke:none;fill-rule:nonzero;fill:#404040;fill-opacity:1" d="m390.574 191.637-3.008 8.922h-.996l-2.613-7.61-2.625 7.61h-.984l-3.008-8.922h.969l2.574 7.672 2.668-7.672h.879l2.625 7.71 2.613-7.71Zm5.543 9c-.883 0-1.683-.2-2.402-.594a4.346 4.346 0 0 1-1.684-1.625c-.402-.688-.605-1.461-.605-2.32 0-.86.203-1.633.605-2.32a4.346 4.346 0 0 1 1.684-1.626c.719-.394 1.52-.593 2.402-.593.887 0 1.684.195 2.39.586.712.39 1.27.933 1.68 1.625.407.695.61 1.468.61 2.328 0 .859-.203 1.632-.61 2.328a4.36 4.36 0 0 1-1.68 1.625c-.706.39-1.503.586-2.39.586Zm0-.844c.707 0 1.344-.156 1.914-.477a3.491 3.491 0 0 0 1.34-1.324c.32-.566.484-1.199.484-1.894 0-.7-.164-1.328-.484-1.895a3.491 3.491 0 0 0-1.34-1.324c-.57-.32-1.207-.477-1.914-.477-.703 0-1.344.157-1.918.477a3.522 3.522 0 0 0-1.351 1.324 3.75 3.75 0 0 0-.489 1.895c0 .695.164 1.328.489 1.894a3.522 3.522 0 0 0 1.351 1.324c.574.32 1.215.477 1.918.477Zm9.258.844a5.678 5.678 0 0 1-1.906-.32c-.606-.212-1.078-.493-1.41-.84l.37-.727c.325.324.755.586 1.29.785.535.2 1.086.297 1.656.297.8 0 1.398-.144 1.797-.437.398-.293.601-.676.601-1.145 0-.355-.109-.64-.328-.852a2.167 2.167 0 0 0-.797-.492c-.312-.113-.75-.238-1.312-.375-.672-.172-1.207-.332-1.606-.492a2.625 2.625 0 0 1-1.027-.719c-.285-.324-.426-.761-.426-1.312 0-.453.121-.86.356-1.23.238-.372.605-.665 1.097-.887.493-.223 1.106-.332 1.836-.332.512 0 1.012.07 1.5.21a4.2 4.2 0 0 1 1.266.583l-.316.75a4.46 4.46 0 0 0-1.2-.555 4.547 4.547 0 0 0-1.25-.184c-.78 0-1.37.149-1.765.453-.395.301-.594.688-.594 1.164 0 .36.11.645.328.864.215.215.488.379.813.496.328.113.77.238 1.32.375.656.164 1.184.32 1.586.476.406.16.746.395 1.027.715.281.32.422.75.422 1.293 0 .453-.121.863-.363 1.23-.242.372-.613.665-1.117.883-.5.215-1.118.325-1.848.325Zm9.254 0c-.883 0-1.68-.196-2.39-.586a4.303 4.303 0 0 1-1.669-1.625 4.558 4.558 0 0 1-.605-2.328c0-.86.203-1.633.605-2.328a4.271 4.271 0 0 1 1.676-1.625c.715-.391 1.512-.586 2.399-.586.664 0 1.273.109 1.835.332a3.823 3.823 0 0 1 1.426.968l-.597.598c-.696-.703-1.579-1.055-2.641-1.055-.703 0-1.348.16-1.926.48a3.516 3.516 0 0 0-1.355 1.329 3.675 3.675 0 0 0-.492 1.887c0 .695.164 1.324.492 1.886a3.479 3.479 0 0 0 1.355 1.325 3.875 3.875 0 0 0 1.926.484c1.074 0 1.953-.356 2.64-1.07l.598.601a3.8 3.8 0 0 1-1.433.973 4.9 4.9 0 0 1-1.844.34Zm9 0c-.883 0-1.684-.2-2.402-.594a4.373 4.373 0 0 1-1.684-1.625c-.402-.688-.602-1.461-.602-2.32 0-.86.2-1.633.602-2.32a4.373 4.373 0 0 1 1.684-1.626c.718-.394 1.52-.593 2.402-.593.887 0 1.683.195 2.39.586.711.39 1.27.933 1.68 1.625.406.695.61 1.468.61 2.328 0 .859-.204 1.632-.61 2.328a4.36 4.36 0 0 1-1.68 1.625c-.707.39-1.503.586-2.39.586Zm0-.844c.707 0 1.344-.156 1.914-.477a3.491 3.491 0 0 0 1.34-1.324c.324-.566.484-1.199.484-1.894 0-.7-.16-1.328-.484-1.895a3.491 3.491 0 0 0-1.34-1.324c-.57-.32-1.207-.477-1.914-.477-.703 0-1.344.157-1.914.477a3.505 3.505 0 0 0-1.356 1.324 3.75 3.75 0 0 0-.488 1.895c0 .695.164 1.328.488 1.894a3.505 3.505 0 0 0 1.356 1.324c.57.32 1.21.477 1.914.477Zm10.137-8.156c1.14 0 2.03.27 2.68.816.644.543.964 1.29.964 2.242 0 .953-.32 1.7-.965 2.239-.648.539-1.539.808-2.68.808h-2.394v2.817h-.945v-8.922Zm-.024 5.277c.883 0 1.559-.195 2.024-.578.468-.39.703-.934.703-1.64 0-.723-.235-1.278-.703-1.665-.465-.386-1.141-.578-2.024-.578h-2.37v4.461Zm8.297 3.723a5.678 5.678 0 0 1-1.906-.32c-.606-.212-1.078-.493-1.406-.84l.367-.727c.324.324.754.586 1.289.785.535.2 1.086.297 1.656.297.8 0 1.399-.144 1.797-.437.402-.293.601-.676.601-1.145 0-.355-.109-.64-.324-.852a2.233 2.233 0 0 0-.797-.492 13.88 13.88 0 0 0-1.312-.375c-.672-.172-1.211-.332-1.61-.492a2.625 2.625 0 0 1-1.027-.719c-.281-.324-.426-.761-.426-1.312 0-.453.122-.86.36-1.23.238-.372.601-.665 1.094-.887.492-.223 1.105-.332 1.835-.332.512 0 1.012.07 1.5.21a4.2 4.2 0 0 1 1.266.583l-.316.75a4.46 4.46 0 0 0-1.2-.555 4.547 4.547 0 0 0-1.25-.184c-.78 0-1.37.149-1.765.453-.395.301-.594.688-.594 1.164 0 .36.11.645.328.864.215.215.488.379.813.496.328.113.77.238 1.32.375.656.164 1.184.32 1.59.476.402.16.742.395 1.023.715.282.32.422.75.422 1.293 0 .453-.12.863-.363 1.23-.242.372-.613.665-1.117.883-.5.215-1.117.325-1.848.325ZM200.41 218.387h-4.969l-1.074 2.383h-.98l4.078-8.922h.933l4.079 8.922h-.997Zm-.344-.766-2.14-4.793-2.14 4.793Zm6.352 3.227c-.664 0-1.3-.106-1.906-.317-.61-.215-1.078-.496-1.41-.844l.37-.726c.325.324.75.586 1.286.785.539.2 1.09.297 1.66.297.797 0 1.394-.145 1.797-.438.398-.292.597-.675.597-1.14 0-.36-.109-.645-.324-.856a2.254 2.254 0 0 0-.797-.492c-.316-.113-.75-.238-1.312-.375-.672-.172-1.207-.332-1.606-.492a2.597 2.597 0 0 1-1.027-.719c-.285-.324-.426-.761-.426-1.312 0-.45.118-.86.356-1.23.238-.372.601-.665 1.097-.887.493-.22 1.102-.332 1.836-.332.508 0 1.008.07 1.496.21.489.141.91.336 1.27.583l-.32.75a4.541 4.541 0 0 0-2.445-.738c-.786 0-1.372.148-1.766.452-.399.301-.594.688-.594 1.164 0 .36.105.645.324.864.215.215.488.379.817.496.328.113.765.242 1.32.375.652.164 1.184.32 1.586.48.402.156.746.395 1.027.711.278.32.422.75.422 1.297 0 .45-.125.86-.363 1.23-.246.368-.617.66-1.117.88-.504.214-1.118.324-1.848.324Zm9.254 0c-.883 0-1.68-.196-2.39-.586a4.313 4.313 0 0 1-1.673-1.625c-.402-.692-.601-1.469-.601-2.328 0-.86.199-1.633.601-2.325a4.317 4.317 0 0 1 1.68-1.629c.711-.39 1.512-.585 2.395-.585.664 0 1.277.113 1.836.332.562.222 1.039.546 1.43.968l-.602.602c-.696-.707-1.575-1.059-2.637-1.059-.707 0-1.348.16-1.926.485a3.516 3.516 0 0 0-1.36 1.324 3.71 3.71 0 0 0-.488 1.887 3.7 3.7 0 0 0 .489 1.886 3.516 3.516 0 0 0 1.36 1.325 3.867 3.867 0 0 0 1.925.488c1.07 0 1.95-.36 2.637-1.07l.601.597c-.39.426-.87.75-1.433.977a4.991 4.991 0 0 1-1.844.336Zm9 0c-.883 0-1.684-.2-2.402-.594a4.346 4.346 0 0 1-1.684-1.625c-.402-.688-.606-1.461-.606-2.32 0-.86.204-1.633.606-2.32a4.346 4.346 0 0 1 1.684-1.626c.718-.394 1.52-.593 2.402-.593.883 0 1.68.195 2.39.585.711.395 1.27.934 1.676 1.63.41.69.614 1.464.614 2.324 0 .859-.204 1.636-.614 2.328a4.324 4.324 0 0 1-1.675 1.625c-.711.39-1.508.586-2.391.586Zm0-.84c.707 0 1.344-.16 1.914-.48a3.428 3.428 0 0 0 1.336-1.325 3.75 3.75 0 0 0 .488-1.894c0-.696-.164-1.329-.488-1.891a3.438 3.438 0 0 0-1.336-1.328 3.876 3.876 0 0 0-1.914-.477c-.707 0-1.344.16-1.918.477a3.504 3.504 0 0 0-1.352 1.328 3.69 3.69 0 0 0-.492 1.89c0 .696.164 1.329.492 1.895a3.495 3.495 0 0 0 1.352 1.324c.574.32 1.215.48 1.918.48Zm8.402-7.344h-3.137v-.816h7.215v.816h-3.136v8.106h-.942ZM238.559 216.922h3.34v.789h-3.34ZM244.148 211.848h.942v8.105h4.996v.817h-5.938Zm7.508 0h.942v8.105h5v.817h-5.942Zm13.13 6.539h-4.97l-1.074 2.383h-.98l4.082-8.922h.93l4.078 8.922h-.993Zm-.345-.766-2.14-4.793-2.14 4.793ZM370.664 163.324c-.883 0-1.68-.195-2.39-.59a4.276 4.276 0 0 1-1.669-1.625c-.406-.691-.605-1.468-.605-2.324 0-.86.2-1.637.605-2.328a4.271 4.271 0 0 1 1.676-1.625c.715-.39 1.512-.586 2.399-.586.66 0 1.273.11 1.832.332.562.219 1.039.543 1.43.969l-.602.598c-.695-.704-1.574-1.06-2.637-1.06-.707 0-1.348.165-1.926.485a3.516 3.516 0 0 0-1.355 1.328 3.655 3.655 0 0 0-.492 1.887c0 .695.164 1.324.492 1.887.324.558.777 1 1.355 1.324a3.864 3.864 0 0 0 1.926.484c1.07 0 1.95-.355 2.637-1.07l.601.602c-.39.422-.87.746-1.433.972-.567.227-1.18.34-1.844.34Zm10.66-2.46h-4.972l-1.07 2.382h-.985l4.082-8.922h.93l4.082 8.922h-.996Zm-.344-.766-2.144-4.793-2.14 4.793Zm9.98 3.148-2.038-2.867c-.23.023-.469.039-.715.039h-2.398v2.828h-.942v-8.922h3.34c1.137 0 2.031.27 2.676.813.648.547.969 1.293.969 2.246 0 .695-.176 1.285-.528 1.765-.355.48-.855.825-1.512 1.04l2.18 3.058Zm-2.776-3.633c.882 0 1.558-.195 2.023-.586.469-.39.703-.941.703-1.644 0-.723-.234-1.278-.703-1.664-.469-.387-1.14-.582-2.023-.582h-2.375v4.476Zm5.902-5.289h3.633c.941 0 1.773.188 2.496.567a4.106 4.106 0 0 1 1.683 1.578c.403.676.602 1.449.602 2.316 0 .867-.203 1.637-.602 2.313a4.14 4.14 0 0 1-1.683 1.582c-.723.379-1.555.566-2.496.566h-3.633Zm3.582 8.106c.781 0 1.465-.153 2.05-.465a3.34 3.34 0 0 0 1.364-1.29c.324-.546.484-1.179.484-1.89 0-.715-.16-1.347-.484-1.894a3.357 3.357 0 0 0-1.363-1.286c-.586-.312-1.27-.468-2.051-.468h-2.64v7.293Zm9.406.894c-.66 0-1.297-.105-1.906-.32-.606-.211-1.074-.492-1.406-.84l.37-.726c.321.32.75.582 1.286.78.535.2 1.086.302 1.656.302.801 0 1.399-.149 1.797-.438.402-.297.602-.676.602-1.144 0-.356-.11-.641-.325-.852a2.18 2.18 0 0 0-.796-.492 11.863 11.863 0 0 0-1.313-.375 14.589 14.589 0 0 1-1.61-.492 2.652 2.652 0 0 1-1.023-.72c-.285-.323-.43-.76-.43-1.316 0-.449.122-.859.36-1.226.238-.371.601-.668 1.094-.887.496-.223 1.105-.332 1.836-.332.511 0 1.011.07 1.5.211.488.137.91.332 1.265.578l-.316.754a4.343 4.343 0 0 0-1.2-.555 4.411 4.411 0 0 0-1.25-.187c-.78 0-1.37.152-1.765.453-.395.305-.59.691-.59 1.168 0 .355.106.644.324.86.215.218.489.382.817.5.324.113.765.238 1.32.374.652.16 1.18.32 1.586.477.402.16.746.394 1.023.715.282.32.422.75.422 1.293 0 .453-.12.863-.363 1.23-.242.371-.613.664-1.113.88-.504.218-1.121.327-1.852.327ZM321.605 232.664c-.511 0-.98-.11-1.418-.332a2.73 2.73 0 0 1-1.054-.945l.558-.637c.493.73 1.133 1.098 1.926 1.098 1.106 0 1.656-.657 1.656-1.965v-5.403h-3.261v-.816h4.191v6.18c0 .937-.215 1.64-.656 2.113-.438.473-1.086.707-1.942.707Zm9.024 0c-1.156 0-2.055-.332-2.703-.996-.645-.664-.969-1.625-.969-2.89v-5.114h.945v5.074c0 1.035.235 1.809.7 2.317.468.511 1.144.765 2.027.765.894 0 1.574-.254 2.039-.765.469-.508.703-1.282.703-2.317v-5.074h.918v5.113c0 1.266-.32 2.227-.965 2.891-.64.664-1.539.996-2.695.996Zm9.844-9c1.136 0 2.03.27 2.675.816.649.543.97 1.29.97 2.243 0 .953-.325 1.699-.97 2.238-.644.539-1.539.809-2.675.809h-2.399v2.816h-.941v-8.922Zm-.028 5.277c.883 0 1.563-.195 2.028-.578.468-.39.703-.933.703-1.64 0-.723-.235-1.278-.703-1.664-.47-.387-1.145-.579-2.028-.579h-2.37v4.461Zm5.715-5.277h.942v8.922h-.942Zm5.582.816h-3.137v-.816h7.215v.816h-3.132v8.106h-.946Zm11.895 7.29v.816h-6.309v-8.922h6.117v.816h-5.175v3.172h4.617v.805h-4.617v3.313Zm8.312.816-2.039-2.867c-.23.023-.469.039-.715.039h-2.398v2.828h-.942v-8.922h3.34c1.14 0 2.032.27 2.68.816.645.543.965 1.29.965 2.243 0 .699-.176 1.285-.527 1.765-.352.48-.856.828-1.512 1.04l2.18 3.058Zm-2.777-3.633c.883 0 1.558-.195 2.023-.586.47-.39.703-.937.703-1.644 0-.723-.234-1.278-.703-1.664-.465-.387-1.14-.579-2.023-.579h-2.375v4.473ZM431.262 46.473h-1.785v2.347h-.918v-2.347h-5.036v-.664l4.73-5.914h1.02l-4.566 5.761h3.879v-2.062h.89v2.062h1.786Zm3.988 2.422c-.66 0-1.297-.106-1.902-.317-.61-.215-1.078-.496-1.41-.844l.37-.726c.32.324.75.586 1.286.785.535.2 1.09.3 1.656.3.8 0 1.398-.148 1.8-.44.4-.294.598-.676.598-1.141 0-.36-.109-.64-.324-.856a2.29 2.29 0 0 0-.797-.492 13.88 13.88 0 0 0-1.312-.375 13.067 13.067 0 0 1-1.61-.492 2.612 2.612 0 0 1-1.023-.719c-.285-.324-.426-.762-.426-1.312 0-.45.117-.86.356-1.23.238-.372.601-.665 1.093-.888.497-.218 1.106-.332 1.84-.332.508 0 1.008.07 1.496.211.489.141.91.336 1.27.582l-.32.75a4.541 4.541 0 0 0-2.445-.738c-.786 0-1.376.149-1.77.453-.395.301-.59.692-.59 1.164 0 .36.105.645.324.864.215.214.488.382.817.496.328.113.765.242 1.32.375.652.164 1.183.324 1.586.48.402.156.746.395 1.027.711.277.32.418.75.418 1.297 0 .45-.121.86-.363 1.23-.242.368-.613.66-1.113.88-.504.214-1.118.324-1.852.324ZM441.77 100.84h.94v8.11h4.997v.816h-5.937Zm7.507 0h.942v8.926h-.942Zm7.188 0c1.14 0 2.035.273 2.68.816.644.543.968 1.29.968 2.242 0 .954-.324 1.7-.968 2.239-.645.539-1.54.808-2.68.808h-2.395v2.82h-.941v-8.925Zm-.024 5.277c.883 0 1.559-.191 2.028-.578.469-.387.703-.934.703-1.64 0-.723-.235-1.278-.703-1.665-.469-.386-1.145-.578-2.028-.578h-2.37v4.461Zm5.711-5.277h.942v8.926h-.942Zm3.852 0h3.633c.945 0 1.777.187 2.5.566a4.165 4.165 0 0 1 1.683 1.582c.399.676.598 1.446.598 2.313 0 .867-.2 1.64-.598 2.312a4.113 4.113 0 0 1-1.683 1.582c-.723.38-1.555.57-2.5.57h-3.633Zm3.582 8.11c.781 0 1.465-.157 2.05-.47a3.367 3.367 0 0 0 1.368-1.285c.32-.547.484-1.18.484-1.894 0-.715-.164-1.344-.484-1.89a3.35 3.35 0 0 0-1.367-1.29c-.586-.312-1.27-.465-2.051-.465h-2.64v7.293Zm-29.274-11.528"/><path style="stroke:none;fill-rule:nonzero;fill:#000;fill-opacity:1" d="M60.148 249.453c-.687 0-1.3-.18-1.84-.547-.542-.363-.96-.89-1.265-1.574-.3-.684-.45-1.488-.45-2.418 0-.926.15-1.73.45-2.414.305-.684.723-1.207 1.266-1.574.539-.367 1.152-.547 1.84-.547.69 0 1.304.18 1.843.547.54.367.961.89 1.27 1.574.304.684.457 1.488.457 2.414 0 .93-.153 1.734-.457 2.418-.309.684-.73 1.211-1.27 1.574-.539.367-1.152.547-1.844.547Zm0-.84c.52 0 .977-.144 1.372-.433.394-.29.703-.711.925-1.262.22-.555.328-1.219.328-2.004 0-.781-.109-1.45-.328-2-.222-.55-.53-.973-.925-1.262a2.258 2.258 0 0 0-1.372-.433c-.52 0-.972.144-1.37.433-.395.29-.704.711-.923 1.262-.222.555-.332 1.219-.332 2 0 .785.11 1.45.332 2.004.22.55.528.973.922 1.262.399.289.852.433 1.371.433ZM51.676 205.867c1.293 0 2.234.23 2.824.696.59.46.883 1.109.883 1.94 0 .52-.117.985-.363 1.392-.243.41-.602.73-1.09.96-.485.235-1.078.352-1.785.352a5.186 5.186 0 0 1-1.813-.312c-.578-.208-1.035-.485-1.387-.836l.446-.723c.3.305.691.555 1.175.742a4.23 4.23 0 0 0 1.567.29c.742 0 1.312-.165 1.715-.497.406-.332.605-.773.605-1.328 0-.613-.226-1.074-.68-1.39-.457-.313-1.222-.47-2.304-.47H49.57l.461-4.476h4.883v.816h-4.082l-.305 2.844Zm8.426 5.34c-.688 0-1.301-.18-1.84-.547-.543-.363-.961-.89-1.266-1.574-.3-.684-.45-1.488-.45-2.418 0-.926.15-1.73.45-2.414.305-.684.723-1.211 1.266-1.574.539-.368 1.152-.547 1.84-.547.687 0 1.304.18 1.843.547.54.363.961.89 1.266 1.574.309.684.46 1.488.46 2.414 0 .93-.151 1.734-.46 2.418-.305.684-.727 1.21-1.266 1.574-.539.367-1.156.547-1.843.547Zm0-.84c.52 0 .976-.144 1.37-.433.395-.29.704-.711.923-1.262.222-.555.332-1.219.332-2.004 0-.781-.11-1.45-.332-2-.22-.55-.528-.973-.922-1.262a2.258 2.258 0 0 0-1.371-.433c-.52 0-.977.144-1.372.433-.394.29-.703.711-.921 1.262-.223.555-.332 1.219-.332 2 0 .785.109 1.45.332 2.004.218.55.527.973.921 1.262.395.289.852.433 1.372.433ZM45.938 163.96v8.927h-.918v-8.11h-2.106v-.816Zm5.687 9c-.691 0-1.305-.179-1.844-.546-.539-.367-.96-.89-1.261-1.574-.301-.684-.454-1.488-.454-2.418 0-.926.153-1.73.454-2.414.3-.684.722-1.211 1.261-1.574.54-.368 1.153-.547 1.844-.547.688 0 1.3.18 1.84.547.539.363.965.89 1.27 1.574.304.683.456 1.488.456 2.414 0 .93-.152 1.734-.457 2.418-.304.683-.73 1.207-1.27 1.574-.538.367-1.151.547-1.839.547Zm0-.839c.516 0 .973-.144 1.367-.434.399-.289.707-.71.926-1.261.223-.555.332-1.219.332-2.004 0-.781-.11-1.45-.332-2-.223-.55-.527-.973-.926-1.262a2.255 2.255 0 0 0-1.367-.433c-.52 0-.977.144-1.371.433-.395.29-.703.711-.926 1.262-.219.555-.332 1.219-.332 2 0 .785.113 1.45.332 2.004.223.55.527.972.926 1.262.394.289.851.433 1.371.433Zm8.438.84c-.688 0-1.301-.18-1.84-.547-.543-.367-.961-.89-1.266-1.574-.3-.684-.45-1.488-.45-2.418 0-.926.15-1.73.45-2.414.305-.684.723-1.211 1.266-1.574.539-.368 1.152-.547 1.84-.547.687 0 1.304.18 1.843.547.54.363.961.89 1.266 1.574.308.683.46 1.488.46 2.414 0 .93-.152 1.734-.46 2.418-.305.683-.727 1.207-1.266 1.574s-1.156.547-1.843.547Zm0-.84c.519 0 .976-.144 1.37-.434.395-.289.704-.71.922-1.261.223-.555.333-1.219.333-2.004 0-.781-.11-1.45-.333-2-.218-.55-.527-.973-.921-1.262a2.258 2.258 0 0 0-1.371-.433c-.52 0-.977.144-1.372.433-.394.29-.703.711-.921 1.262-.223.555-.333 1.219-.333 2 0 .785.11 1.45.333 2.004.218.55.527.972.921 1.262.395.289.852.433 1.371.433ZM47.172 126.027v8.922h-.918v-8.105h-2.106v-.817Zm4.476 3.657c1.29 0 2.23.234 2.825.695.59.465.882 1.113.882 1.945 0 .52-.12.98-.363 1.39-.242.407-.605.727-1.09.962-.484.234-1.078.351-1.785.351a5.315 5.315 0 0 1-1.816-.312c-.574-.211-1.035-.488-1.383-.836l.445-.727c.301.305.692.555 1.176.746a4.213 4.213 0 0 0 1.566.286c.743 0 1.313-.164 1.715-.496.403-.333.606-.774.606-1.325 0-.613-.227-1.078-.68-1.39-.457-.317-1.223-.473-2.305-.473h-1.898l.46-4.473h4.884v.817h-4.082l-.305 2.84Zm8.426 5.343c-.687 0-1.3-.183-1.84-.547-.543-.367-.96-.89-1.265-1.578-.301-.683-.45-1.488-.45-2.414 0-.925.149-1.73.45-2.418.304-.683.722-1.207 1.265-1.574a3.217 3.217 0 0 1 1.84-.547 3.23 3.23 0 0 1 1.844.547c.539.367.96.89 1.266 1.574.308.688.46 1.493.46 2.418 0 .926-.152 1.73-.46 2.414-.305.688-.727 1.211-1.266 1.578a3.23 3.23 0 0 1-1.844.547Zm0-.843c.52 0 .977-.145 1.371-.434.395-.29.703-.707.922-1.262.223-.55.332-1.218.332-2 0-.781-.11-1.449-.332-2-.219-.554-.527-.976-.922-1.265a2.255 2.255 0 0 0-1.37-.43c-.52 0-.977.144-1.372.43-.394.289-.703.71-.922 1.265-.222.551-.332 1.219-.332 2 0 .782.11 1.45.332 2 .219.555.528.973.922 1.262.395.29.852.434 1.371.434ZM46.91 95.887v.816h-6.262v-.648l3.711-3.633c.47-.461.786-.86.95-1.195.168-.332.25-.672.25-1.012 0-.528-.18-.938-.543-1.23-.36-.294-.875-.438-1.547-.438-1.047 0-1.86.328-2.438.992l-.648-.562a3.453 3.453 0 0 1 1.332-.942c.539-.222 1.148-.332 1.828-.332.91 0 1.629.215 2.16.645.531.43.797 1.015.797 1.765 0 .461-.102.899-.305 1.325-.203.425-.59.914-1.16 1.468L42 95.886Zm4.653.894c-.688 0-1.301-.183-1.84-.547-.543-.367-.961-.89-1.266-1.578-.3-.683-.45-1.488-.45-2.414 0-.926.15-1.73.45-2.418.305-.683.723-1.207 1.266-1.574a3.217 3.217 0 0 1 1.84-.547 3.23 3.23 0 0 1 1.843.547c.54.367.961.89 1.266 1.574.308.688.46 1.492.46 2.418 0 .926-.152 1.73-.46 2.414-.305.688-.727 1.211-1.266 1.578a3.23 3.23 0 0 1-1.843.547Zm0-.844c.519 0 .976-.144 1.37-.433.395-.29.704-.707.922-1.262.223-.55.333-1.219.333-2 0-.781-.11-1.449-.333-2-.218-.555-.527-.976-.921-1.265a2.255 2.255 0 0 0-1.371-.43c-.52 0-.977.144-1.372.43-.394.289-.703.71-.921 1.265-.223.551-.333 1.219-.333 2 0 .781.11 1.45.333 2 .218.555.527.973.921 1.262.395.289.852.433 1.371.433Zm8.437.844c-.688 0-1.3-.183-1.84-.547-.539-.367-.96-.89-1.262-1.578-.3-.683-.453-1.488-.453-2.414 0-.926.153-1.73.453-2.418.301-.683.723-1.207 1.262-1.574a3.217 3.217 0 0 1 1.84-.547 3.22 3.22 0 0 1 1.844.547c.539.367.96.89 1.27 1.574.304.688.456 1.492.456 2.418 0 .926-.152 1.73-.457 2.414-.308.688-.73 1.211-1.27 1.578a3.22 3.22 0 0 1-1.843.547Zm0-.844c.52 0 .977-.144 1.371-.433.399-.29.707-.707.926-1.262.219-.55.332-1.219.332-2 0-.781-.113-1.449-.332-2-.223-.555-.527-.976-.926-1.265a2.255 2.255 0 0 0-1.371-.43c-.516 0-.973.144-1.367.43-.395.289-.703.71-.926 1.265-.219.551-.332 1.219-.332 2 0 .781.113 1.45.332 2 .223.555.527.973.926 1.262.394.289.851.433 1.367.433ZM48.14 57.64v.817H41.88v-.648l3.71-3.637c.47-.457.786-.856.95-1.192.168-.332.25-.671.25-1.011 0-.528-.18-.938-.543-1.23-.36-.294-.875-.438-1.547-.438-1.047 0-1.86.328-2.437.992l-.649-.563a3.453 3.453 0 0 1 1.332-.94c.54-.224 1.149-.333 1.828-.333.91 0 1.633.215 2.164.645.528.43.797 1.015.797 1.765 0 .461-.105.899-.308 1.324-.203.426-.59.914-1.16 1.47l-3.036 2.98Zm3.493-4.449c1.293 0 2.234.235 2.824.696.59.465.887 1.113.887 1.945 0 .52-.121.98-.364 1.39-.242.407-.605.727-1.09.962-.484.234-1.078.351-1.785.351a5.315 5.315 0 0 1-1.816-.312c-.574-.211-1.035-.489-1.383-.836l.446-.727c.296.305.687.555 1.171.746a4.234 4.234 0 0 0 1.57.285c.739 0 1.31-.164 1.716-.496.402-.332.605-.773.605-1.324 0-.613-.227-1.078-.684-1.39-.453-.317-1.222-.473-2.3-.473H49.53l.457-4.473h4.883v.817h-4.078l-.309 2.84Zm8.426 5.344c-.688 0-1.301-.183-1.84-.547-.54-.367-.961-.89-1.262-1.578-.305-.683-.453-1.488-.453-2.414 0-.926.148-1.73.453-2.418.3-.683.723-1.207 1.262-1.574a3.217 3.217 0 0 1 1.84-.547 3.22 3.22 0 0 1 1.843.547c.54.367.961.89 1.27 1.574.305.688.457 1.492.457 2.418 0 .926-.152 1.73-.457 2.414-.309.688-.73 1.211-1.27 1.578a3.22 3.22 0 0 1-1.843.547Zm0-.844c.52 0 .976-.144 1.37-.433.395-.29.704-.707.926-1.262.22-.55.333-1.219.333-2 0-.781-.114-1.45-.333-2-.222-.555-.53-.976-.925-1.266a2.255 2.255 0 0 0-1.371-.43c-.516 0-.973.145-1.368.43-.394.29-.703.711-.925 1.266-.223.55-.332 1.219-.332 2 0 .781.109 1.45.332 2 .222.555.527.973.925 1.262.395.289.852.433 1.368.433ZM43.898 15.422c.938.05 1.649.305 2.137.758.488.457.73 1.05.73 1.78 0 .509-.12.962-.367 1.356-.246.395-.613.711-1.097.938-.485.23-1.074.344-1.774.344a5.257 5.257 0 0 1-1.828-.313c-.574-.207-1.035-.484-1.383-.836l.446-.722c.3.304.695.554 1.187.742.492.191 1.02.289 1.578.289.735 0 1.301-.16 1.7-.477.398-.32.597-.761.597-1.32 0-.555-.199-.988-.597-1.3-.403-.317-1.004-.474-1.813-.474h-.637v-.675l2.473-3.098h-4.563v-.816h5.735v.652Zm7.715 5.176c-.691 0-1.304-.18-1.843-.547-.54-.367-.961-.89-1.262-1.574-.301-.684-.453-1.489-.453-2.418 0-.926.152-1.73.453-2.414.3-.684.722-1.211 1.262-1.575.539-.367 1.152-.547 1.843-.547.688 0 1.301.18 1.84.547.543.364.965.89 1.27 1.575.304.683.46 1.488.46 2.414 0 .93-.156 1.734-.46 2.418-.305.683-.727 1.207-1.27 1.574-.539.367-1.152.547-1.84.547Zm0-.84c.52 0 .973-.145 1.371-.434.395-.289.703-.71.922-1.262.223-.554.332-1.218.332-2.003 0-.782-.11-1.45-.332-2-.218-.551-.527-.973-.922-1.262a2.266 2.266 0 0 0-1.37-.434c-.52 0-.977.145-1.372.434-.394.289-.703.71-.926 1.262-.218.554-.328 1.218-.328 2 0 .785.11 1.449.328 2.003.223.551.532.973.926 1.262.395.29.852.434 1.371.434Zm8.438.84c-.688 0-1.301-.18-1.84-.547-.543-.367-.961-.89-1.266-1.574-.3-.684-.449-1.489-.449-2.418 0-.926.149-1.73.45-2.414.304-.684.722-1.211 1.265-1.575.539-.367 1.152-.547 1.84-.547.691 0 1.304.18 1.844.547.539.364.96.89 1.27 1.575.304.683.456 1.488.456 2.414 0 .93-.152 1.734-.457 2.418-.309.683-.73 1.207-1.27 1.574-.539.367-1.152.547-1.843.547Zm0-.84c.52 0 .976-.145 1.37-.434.395-.289.704-.71.927-1.262.218-.554.328-1.218.328-2.003 0-.782-.11-1.45-.328-2-.223-.551-.532-.973-.926-1.262a2.258 2.258 0 0 0-1.371-.434c-.52 0-.973.145-1.371.434-.395.289-.703.71-.922 1.262-.223.554-.332 1.218-.332 2 0 .785.11 1.449.332 2.003.219.551.527.973.922 1.262.398.29.851.434 1.37.434ZM76.348 266.246a3.22 3.22 0 0 1-1.844-.547c-.54-.367-.961-.89-1.262-1.578-.3-.683-.453-1.488-.453-2.414 0-.926.152-1.73.453-2.418.301-.684.723-1.207 1.262-1.574a3.22 3.22 0 0 1 1.844-.547c.687 0 1.3.184 1.84.547.539.367.964.89 1.269 1.574.305.688.461 1.492.461 2.418 0 .926-.156 1.73-.461 2.414-.305.688-.73 1.211-1.27 1.578a3.217 3.217 0 0 1-1.84.547Zm0-.844c.515 0 .972-.144 1.367-.433.398-.29.707-.707.926-1.262.222-.55.332-1.219.332-2 0-.781-.11-1.45-.332-2-.223-.555-.528-.977-.926-1.266a2.252 2.252 0 0 0-1.367-.43c-.52 0-.977.145-1.371.43-.395.29-.704.711-.926 1.266-.219.55-.332 1.219-.332 2 0 .781.113 1.45.332 2 .222.555.531.973.926 1.262.394.289.851.433 1.37.433ZM194.84 265.352v.816h-6.258v-.648l3.711-3.633c.465-.461.781-.86.95-1.192.163-.336.245-.675.245-1.015 0-.528-.18-.938-.539-1.23-.363-.294-.879-.438-1.55-.438-1.047 0-1.856.328-2.434.992l-.653-.563a3.467 3.467 0 0 1 1.336-.941c.54-.223 1.149-.332 1.829-.332.91 0 1.628.215 2.16.644.531.43.797 1.02.797 1.766 0 .461-.102.902-.305 1.324-.207.426-.594.914-1.16 1.47l-3.035 2.98ZM311.086 263.824H309.3v2.344h-.914v-2.344h-5.04v-.664l4.731-5.914h1.02l-4.563 5.762h3.875v-2.067h.89v2.067h1.786ZM422.89 260.828c.587 0 1.106.11 1.56.332.456.219.812.531 1.066.938.254.402.382.87.382 1.406 0 .543-.132 1.027-.394 1.441a2.604 2.604 0 0 1-1.09.961c-.465.227-.984.34-1.562.34-1.184 0-2.086-.39-2.715-1.168-.63-.777-.946-1.875-.946-3.297 0-.992.172-1.832.512-2.523.34-.688.813-1.207 1.426-1.563.613-.351 1.328-.527 2.144-.527.883 0 1.586.164 2.114.484l-.367.739c-.426-.282-1.004-.418-1.735-.418-.988 0-1.758.312-2.32.937-.563.625-.844 1.531-.844 2.719 0 .215.016.457.04.73a2.39 2.39 0 0 1 1.058-1.129c.484-.27 1.043-.402 1.672-.402Zm-.077 4.64c.648 0 1.171-.175 1.574-.53.402-.352.605-.82.605-1.407 0-.59-.203-1.054-.605-1.402-.403-.348-.95-.524-1.637-.524-.453 0-.848.086-1.191.254a2.017 2.017 0 0 0-.813.704 1.77 1.77 0 0 0-.293.992c0 .34.094.656.277.945.18.29.45.52.81.7.355.179.78.269 1.272.269ZM31.32 225.121h.914v7.078H22.223v-6.863h.914v5.805h3.562v-5.176h.903v5.176h3.718Zm.914-6.851-3.144 2.386 3.144 2.403v1.144l-3.859-2.973-3.664 2.829v-1.141l2.95-2.262-2.95-2.258v-1.117l3.664 2.832 3.86-3.004Zm-.457-6.81c.172.192.305.427.395.708.09.281.137.574.137.879 0 .707-.192 1.25-.575 1.633-.379.379-.918.57-1.617.57H25.57v1.344h-.86v-1.344h-1.644v-1.016h1.645v-2.289h.86v2.29h4.491c.446 0 .79-.11 1.024-.337.23-.222.348-.546.348-.964 0-.211-.032-.414-.098-.61a1.571 1.571 0 0 0-.285-.508Zm-5.59-2.82a2.442 2.442 0 0 1-1.144-1.062c-.258-.473-.387-1.058-.387-1.754h.985l-.016.242c0 .793.246 1.414.73 1.86.489.449 1.168.672 2.047.672h3.832v1.015h-7.523v-.972Zm-1.53-7.265c0-.98.245-1.734.734-2.258.492-.523 1.218-.789 2.183-.789h4.66v.973h-1.172c.391.23.696.566.915 1.012.222.44.332.968.332 1.578 0 .84-.204 1.507-.602 2.004-.402.496-.93.742-1.59.742-.637 0-1.152-.23-1.543-.692-.39-.465-.586-1.199-.586-2.21v-2.391h-.457c-.648 0-1.144.183-1.48.547-.34.359-.508.89-.508 1.586 0 .476.078.933.234 1.37.157.442.375.817.653 1.133l-.758.458a4.057 4.057 0 0 1-.75-1.375 5.23 5.23 0 0 1-.266-1.688Zm6.847.36c0-.57-.129-1.063-.39-1.473-.262-.41-.641-.715-1.137-.918h-1.23v2.363c0 1.285.448 1.93 1.343 1.93.437 0 .785-.168 1.035-.5.254-.336.379-.801.379-1.403Zm-9.883-16.778h10.613v.973h-1.488c.508.304.895.707 1.16 1.207.266.5.403 1.066.403 1.695 0 .707-.164 1.344-.489 1.918a3.485 3.485 0 0 1-1.36 1.344c-.581.324-1.241.484-1.987.484-.743 0-1.407-.16-1.989-.484a3.44 3.44 0 0 1-1.351-1.344c-.32-.574-.477-1.21-.477-1.918 0-.61.125-1.16.38-1.652.25-.489.62-.895 1.105-1.207h-4.52Zm9.785 3.79c0-.524-.12-1-.363-1.423a2.624 2.624 0 0 0-1.04-1.004c-.448-.242-.956-.363-1.53-.363-.57 0-1.082.121-1.528.363-.449.246-.797.578-1.039 1.004a2.811 2.811 0 0 0-.363 1.422c0 .535.121 1.012.363 1.438.242.425.59.757 1.04 1 .445.246.956.367 1.527.367.574 0 1.082-.121 1.53-.367.45-.243.794-.575 1.04-1 .242-.422.363-.903.363-1.438Zm-6.75-9.255c0-.98.246-1.734.735-2.258.492-.527 1.218-.789 2.183-.789h4.66v.973h-1.172c.391.23.696.566.915 1.008.222.445.332.972.332 1.582 0 .84-.204 1.508-.602 2.004-.402.492-.93.742-1.59.742-.637 0-1.152-.23-1.543-.695-.39-.461-.586-1.2-.586-2.207v-2.391h-.457c-.648 0-1.144.18-1.48.543-.34.363-.508.894-.508 1.59 0 .476.078.933.234 1.37.157.438.375.817.653 1.134l-.758.457a4.057 4.057 0 0 1-.75-1.375 5.264 5.264 0 0 1-.266-1.688Zm6.848.36c0-.575-.129-1.067-.39-1.477-.262-.41-.641-.715-1.137-.914h-1.23v2.36c0 1.288.448 1.933 1.343 1.933.437 0 .785-.168 1.035-.504.254-.332.379-.8.379-1.398Zm-6.793-12.344 8.426 3.762c.707.304 1.207.656 1.5 1.058.297.399.445.879.445 1.442 0 .363-.059.703-.172 1.015a2.14 2.14 0 0 1-.515.817l-.758-.473c.383-.379.574-.84.574-1.371 0-.344-.098-.637-.285-.88-.192-.245-.516-.472-.977-.679l-.726-.332-7.512 3.363v-1.058l6.394-2.832-6.394-2.832Zm7.598-3.363c0 .609-.09 1.195-.266 1.753-.176.555-.398.993-.664 1.309l-.8-.46c.245-.313.448-.708.605-1.185a4.75 4.75 0 0 0 .238-1.488c0-.687-.11-1.195-.324-1.523a1.026 1.026 0 0 0-.907-.496c-.277 0-.496.093-.652.273-.156.18-.277.41-.355.688a9.8 9.8 0 0 0-.239 1.101c-.113.61-.23 1.102-.351 1.473-.117.37-.32.687-.606.95-.285.26-.683.394-1.187.394-.63 0-1.145-.262-1.547-.786-.399-.527-.598-1.253-.598-2.187 0-.488.063-.973.192-1.461.129-.488.297-.887.507-1.203l.817.445c-.43.621-.645 1.36-.645 2.219 0 .648.114 1.137.344 1.465.227.328.527.492.902.492.286 0 .516-.094.684-.277.172-.188.3-.418.379-.696.082-.277.164-.656.25-1.144.117-.602.23-1.082.344-1.446.117-.359.312-.671.586-.93.277-.257.66-.386 1.144-.386.66 0 1.18.277 1.567.824.386.547.582 1.309.582 2.282Zm0-11.801c0 .726-.168 1.379-.496 1.96a3.564 3.564 0 0 1-1.364 1.372c-.582.336-1.242.5-1.976.5-.735 0-1.391-.164-1.973-.5a3.528 3.528 0 0 1-1.36-1.371c-.324-.582-.484-1.235-.484-1.961 0-.723.16-1.38.485-1.961a3.508 3.508 0 0 1 1.359-1.363c.582-.333 1.238-.497 1.973-.497.734 0 1.394.168 1.976.497a3.544 3.544 0 0 1 1.363 1.363c.333.582.497 1.238.497 1.96Zm-.903 0c0-.535-.12-1.012-.363-1.438a2.606 2.606 0 0 0-1.04-.996 3.255 3.255 0 0 0-1.53-.355 3.24 3.24 0 0 0-1.528.355c-.449.242-.797.57-1.039.996a2.849 2.849 0 0 0-.363 1.438c0 .535.121 1.011.363 1.437.242.426.59.758 1.04 1 .445.246.956.367 1.527.367.574 0 1.082-.12 1.53-.367.45-.242.794-.574 1.04-1 .242-.422.363-.902.363-1.437Zm-8.996-8.383c0 .437.117.77.356.996.238.223.593.336 1.058.336h.887v-2.316h.86v2.285h6.663v1.015H25.57v1.348h-.86v-1.348h-.929c-.687 0-1.23-.195-1.629-.593-.402-.395-.601-.954-.601-1.68 0-.285.043-.563.12-.828.083-.27.2-.492.352-.672l.758.344c-.246.293-.37.664-.37 1.113Zm-.789-6.106v-1.015h10.613v1.015Zm3.09-3.847v-1.016h7.523v1.016Zm-1.645-.516c0 .211-.07.387-.214.531a.705.705 0 0 1-1.016 0 .734.734 0 0 1-.215-.53c0-.212.07-.388.207-.528a.666.666 0 0 1 .496-.215c.211 0 .387.07.528.215a.71.71 0 0 1 .214.527Zm-.656-5.82c0 .437.117.77.356.992.238.227.593.336 1.058.336h.887v-2.316h.86v2.289h6.663v1.015H25.57v1.344h-.86v-1.344h-.929c-.687 0-1.23-.199-1.629-.593-.402-.395-.601-.958-.601-1.68 0-.285.043-.563.12-.832.083-.266.2-.488.352-.672l.758.344c-.246.297-.37.668-.37 1.117Zm6.38-8.781v6.293c.78-.059 1.413-.36 1.894-.903.48-.543.722-1.23.722-2.058 0-.47-.082-.899-.25-1.29a2.825 2.825 0 0 0-.738-1.015l.66-.57c.399.332.703.75.914 1.25.211.5.317 1.05.317 1.652 0 .773-.168 1.457-.496 2.055a3.536 3.536 0 0 1-1.364 1.39c-.582.336-1.242.504-1.976.504-.735 0-1.391-.16-1.973-.48a3.47 3.47 0 0 1-1.36-1.317c-.324-.558-.484-1.183-.484-1.879 0-.699.16-1.32.485-1.875a3.411 3.411 0 0 1 1.351-1.3c.578-.317 1.238-.473 1.98-.473Zm-3.263 3.632c0 .723.23 1.332.696 1.82.46.493 1.066.774 1.808.84v-5.335c-.742.066-1.347.343-1.808.836-.465.492-.696 1.105-.696 1.84Zm-3.117-11.96c0 .44.117.773.356.996.238.222.593.336 1.058.336h.887v-2.317h.86v2.29h6.663v1.015H25.57v1.344h-.86v-1.344h-.929c-.687 0-1.23-.2-1.629-.594-.402-.398-.601-.957-.601-1.684 0-.285.043-.562.12-.828.083-.265.2-.492.352-.672l.758.344c-.246.297-.37.668-.37 1.114Zm3.777-4.477a2.442 2.442 0 0 1-1.144-1.063c-.258-.472-.387-1.058-.387-1.753h.985l-.016.242c0 .793.246 1.414.73 1.86.489.448 1.168.671 2.047.671h3.832v1.016h-7.523v-.973Zm6.122-7.652c0 .726-.168 1.379-.496 1.96a3.564 3.564 0 0 1-1.364 1.372c-.582.336-1.242.5-1.976.5-.735 0-1.391-.164-1.973-.5a3.528 3.528 0 0 1-1.36-1.371c-.324-.582-.484-1.235-.484-1.961 0-.723.16-1.38.485-1.961a3.508 3.508 0 0 1 1.359-1.364c.582-.332 1.238-.496 1.973-.496.734 0 1.394.168 1.976.496a3.544 3.544 0 0 1 1.363 1.364c.333.582.497 1.238.497 1.96Zm-.903 0c0-.536-.12-1.012-.363-1.438a2.606 2.606 0 0 0-1.04-.996 3.255 3.255 0 0 0-1.53-.355 3.24 3.24 0 0 0-1.528.355c-.449.242-.797.57-1.039.996a2.849 2.849 0 0 0-.363 1.438c0 .535.121 1.011.363 1.437.242.426.59.758 1.04 1 .445.246.956.367 1.527.367.574 0 1.082-.12 1.53-.367.45-.242.794-.574 1.04-1 .242-.422.363-.902.363-1.437Zm-6.75-15.274c0-.945.27-1.687.813-2.226.543-.54 1.347-.809 2.402-.809h4.363v1.016h-4.261c-.782 0-1.38.191-1.785.566-.415.375-.618.91-.618 1.594 0 .781.242 1.398.723 1.847.48.446 1.145.672 1.996.672h3.945v1.016h-4.261c-.782 0-1.38.187-1.785.562-.415.38-.618.915-.618 1.61 0 .773.242 1.387.723 1.84.48.453 1.145.68 1.996.68h3.945v1.015h-7.523v-.973h1.375c-.461-.27-.813-.64-1.059-1.117-.25-.476-.37-1.023-.37-1.644 0-.63.132-1.176.398-1.637.265-.465.664-.809 1.187-1.04a2.934 2.934 0 0 1-1.164-1.195c-.285-.519-.422-1.109-.422-1.777Zm7.653-11.558c0 .609-.09 1.195-.266 1.753-.176.555-.398.993-.664 1.31l-.8-.458c.245-.316.448-.71.605-1.187a4.75 4.75 0 0 0 .238-1.489c0-.687-.11-1.195-.324-1.523a1.026 1.026 0 0 0-.907-.496c-.277 0-.496.093-.652.273-.156.18-.277.41-.355.688-.082.277-.16.644-.239 1.101-.113.61-.23 1.102-.351 1.473-.117.371-.32.687-.606.95-.285.265-.683.394-1.187.394-.63 0-1.145-.262-1.547-.786-.399-.527-.598-1.253-.598-2.187 0-.488.063-.973.192-1.461.129-.484.297-.887.507-1.203l.817.445c-.43.621-.645 1.36-.645 2.219 0 .648.114 1.137.344 1.465.227.328.527.492.902.492.286 0 .516-.094.684-.277.172-.188.3-.418.379-.696.082-.277.164-.656.25-1.144.117-.602.23-1.082.344-1.442.117-.363.312-.675.586-.933.277-.258.66-.387 1.144-.387.66 0 1.18.277 1.567.824.386.551.582 1.309.582 2.282Zm-.532-8.942c.172.192.305.43.395.711.09.281.137.574.137.879 0 .703-.192 1.25-.575 1.629-.379.383-.918.574-1.617.574H25.57v1.344h-.86v-1.344h-1.644v-1.016h1.645v-2.289h.86v2.29h4.491c.446 0 .79-.114 1.024-.336.23-.223.348-.547.348-.965 0-.211-.032-.414-.098-.61a1.531 1.531 0 0 0-.285-.507Zm-7.12-4.476c0-.98.245-1.735.734-2.258.492-.524 1.218-.79 2.183-.79h4.66v.973h-1.172c.391.23.696.567.915 1.012.222.441.332.969.332 1.578 0 .84-.204 1.508-.602 2.004-.402.496-.93.742-1.59.742-.637 0-1.152-.23-1.543-.691-.39-.465-.586-1.2-.586-2.211v-2.39h-.457c-.648 0-1.144.183-1.48.546-.34.36-.508.89-.508 1.586 0 .477.078.934.234 1.371.157.442.375.817.653 1.133l-.758.457a4.057 4.057 0 0 1-.75-1.375 5.23 5.23 0 0 1-.266-1.687Zm6.847.359c0-.574-.129-1.063-.39-1.473-.262-.41-.641-.715-1.137-.918h-1.23v2.36c0 1.289.448 1.933 1.343 1.933.437 0 .785-.168 1.035-.5.254-.336.379-.8.379-1.402Zm.273-10.129c.172.191.305.43.395.711.09.281.137.574.137.879 0 .703-.192 1.25-.575 1.629-.379.383-.918.574-1.617.574H25.57v1.344h-.86v-1.344h-1.644v-1.016h1.645v-2.289h.86v2.29h4.491c.446 0 .79-.114 1.024-.337.23-.226.348-.546.348-.968 0-.207-.032-.41-.098-.606a1.531 1.531 0 0 0-.285-.508Zm-7.066-1.844v-1.015h7.523v1.015Zm-1.645-.515c0 .21-.07.386-.214.53a.705.705 0 0 1-1.016 0 .734.734 0 0 1-.215-.53c0-.211.07-.387.207-.528a.666.666 0 0 1 .496-.215c.211 0 .387.07.528.215a.71.71 0 0 1 .214.528Zm1.59-7.164c0-.946.274-1.696.82-2.254.547-.559 1.348-.836 2.395-.836h4.363v1.015h-4.261c-.782 0-1.38.196-1.785.586-.415.391-.618.95-.618 1.672 0 .813.242 1.453.723 1.926.48.473 1.145.707 1.996.707h3.945v1.016h-7.523v-.973h1.387a2.781 2.781 0 0 1-1.063-1.152c-.254-.489-.379-1.059-.379-1.707Zm7.653-7.868c0 .61-.09 1.196-.266 1.75-.176.559-.398.997-.664 1.309l-.8-.457c.245-.313.448-.71.605-1.188.156-.476.238-.972.238-1.484 0-.687-.11-1.195-.324-1.523a1.018 1.018 0 0 0-.907-.496c-.277 0-.496.09-.652.273-.156.18-.277.41-.355.684-.082.277-.16.644-.239 1.101-.113.613-.23 1.102-.351 1.477-.117.37-.32.687-.606.949-.285.262-.683.395-1.187.395-.63 0-1.145-.262-1.547-.79-.399-.523-.598-1.253-.598-2.187 0-.484.063-.973.192-1.457.129-.488.297-.887.507-1.203l.817.441c-.43.621-.645 1.36-.645 2.219 0 .648.114 1.137.344 1.469.227.328.527.492.902.492.286 0 .516-.094.684-.281.172-.184.3-.414.379-.692.082-.277.164-.656.25-1.144.117-.602.23-1.082.344-1.446.117-.363.312-.672.586-.93.277-.257.66-.386 1.144-.386.66 0 1.18.273 1.567.824.386.547.582 1.309.582 2.281ZM198.188 277.3h1.058v9.098h5.61v.914h-6.668Zm14.648 6.567h-6.293c.055.781.355 1.414.898 1.895.543.48 1.23.722 2.063.722.465 0 .894-.086 1.285-.25.39-.168.73-.414 1.016-.738l.574.66a3.28 3.28 0 0 1-1.254.914c-.5.211-1.05.317-1.652.317-.77 0-1.453-.168-2.051-.496a3.547 3.547 0 0 1-1.395-1.364c-.336-.582-.5-1.242-.5-1.976 0-.735.16-1.39.477-1.973a3.47 3.47 0 0 1 1.316-1.36c.559-.323 1.188-.484 1.883-.484.695 0 1.32.16 1.875.485.55.324.984.773 1.3 1.351.313.578.474 1.239.474 1.98Zm-3.633-3.262c-.726 0-1.332.23-1.824.692-.492.465-.77 1.066-.836 1.812h5.332c-.066-.746-.344-1.347-.836-1.812-.488-.461-1.101-.692-1.836-.692Zm9.555-.87c.941 0 1.691.273 2.25.82.558.547.836 1.347.836 2.394v4.363h-1.016v-4.261c0-.781-.195-1.38-.586-1.79-.39-.41-.949-.613-1.672-.613-.812 0-1.453.243-1.922.723-.472.48-.71 1.145-.71 1.996v3.945h-1.016v-7.523h.973v1.387c.277-.457.66-.813 1.152-1.063.492-.254 1.062-.379 1.71-.379Zm12.844.054v6.61c0 1.277-.313 2.222-.938 2.84-.625.613-1.566.921-2.824.921a6.257 6.257 0 0 1-1.98-.308c-.626-.204-1.133-.489-1.524-.852l.512-.77a3.92 3.92 0 0 0 1.324.758c.52.18 1.066.27 1.637.27.957 0 1.656-.223 2.105-.664.445-.446.672-1.133.672-2.067v-.96a3.06 3.06 0 0 1-1.238 1.09 3.853 3.853 0 0 1-1.696.37 4.007 4.007 0 0 1-1.922-.464 3.43 3.43 0 0 1-1.359-1.301c-.328-.559-.492-1.192-.492-1.895 0-.707.164-1.336.492-1.89.328-.551.777-.98 1.352-1.286.57-.308 1.214-.457 1.93-.457.64 0 1.218.13 1.73.387.515.254.93.629 1.246 1.113v-1.445Zm-3.848 6.336c.543 0 1.035-.117 1.473-.348a2.551 2.551 0 0 0 1.023-.98 2.82 2.82 0 0 0 .363-1.43c0-.535-.12-1.008-.363-1.426a2.563 2.563 0 0 0-1.016-.972c-.433-.235-.93-.348-1.48-.348-.543 0-1.031.113-1.465.34-.437.23-.773.555-1.016.973a2.788 2.788 0 0 0-.367 1.433c0 .531.121 1.008.367 1.43.243.418.579.746 1.016.98.434.23.922.348 1.465.348Zm10.656.73c-.191.172-.43.301-.71.395-.282.09-.575.137-.88.137-.703 0-1.25-.192-1.629-.575-.382-.382-.574-.921-.574-1.617v-4.547h-1.344v-.859h1.344v-1.644h1.016v1.644h2.289v.86h-2.29v4.492c0 .445.114.789.337 1.02.226.234.547.35.969.35.207 0 .41-.03.605-.097.195-.07.367-.164.508-.289Zm5.68-7.12c.941 0 1.691.273 2.254.82.554.547.832 1.347.832 2.394v4.363h-1.012v-4.261c0-.781-.2-1.38-.59-1.79-.39-.41-.949-.613-1.672-.613-.812 0-1.453.243-1.922.723-.472.48-.71 1.145-.71 1.996v3.945h-1.016V276.7h1.016v4.406c.277-.437.66-.777 1.144-1.015.488-.238 1.047-.356 1.676-.356Zm12.672 7.652a3.922 3.922 0 0 1-1.961-.496 3.59 3.59 0 0 1-1.371-1.364c-.336-.582-.504-1.242-.504-1.976 0-.735.168-1.39.504-1.973a3.528 3.528 0 0 1 1.37-1.36c.583-.323 1.235-.484 1.962-.484.722 0 1.375.16 1.957.485.582.324 1.039.777 1.367 1.36.328.581.492 1.237.492 1.972 0 .734-.164 1.394-.492 1.976a3.554 3.554 0 0 1-1.367 1.364c-.582.332-1.235.496-1.957.496Zm0-.903c.531 0 1.011-.12 1.437-.363a2.57 2.57 0 0 0 .992-1.039c.239-.45.36-.957.36-1.531 0-.57-.121-1.082-.36-1.531a2.56 2.56 0 0 0-.992-1.036 2.859 2.859 0 0 0-1.437-.363c-.535 0-1.016.121-1.438.363-.426.243-.758.59-1.004 1.036-.242.449-.363.96-.363 1.53 0 .575.121 1.083.363 1.532.246.45.578.793 1.004 1.04.422.241.903.362 1.438.362Zm8.379-8.996c-.438 0-.77.117-.993.356-.226.238-.336.594-.336 1.058v.887h2.317v.86h-2.29v6.663h-1.015v-6.664h-1.344v-.859h1.344v-.93c0-.687.2-1.23.594-1.629.394-.402.957-.601 1.68-.601.289 0 .562.039.832.121.265.082.488.2.672.352l-.344.757c-.297-.25-.668-.37-1.117-.37Zm8.125 9.899a5.79 5.79 0 0 1-1.75-.266c-.559-.176-.996-.398-1.309-.668l.457-.8c.313.25.711.452 1.188.609a4.75 4.75 0 0 0 1.488.238c.683 0 1.191-.11 1.523-.324.328-.215.492-.516.492-.906 0-.278-.09-.497-.273-.653a1.775 1.775 0 0 0-.684-.355 9.164 9.164 0 0 0-1.101-.239 11.822 11.822 0 0 1-1.473-.351 2.137 2.137 0 0 1-.953-.606c-.262-.289-.394-.683-.394-1.187 0-.629.261-1.145.789-1.547.523-.398 1.254-.598 2.187-.598.488 0 .973.063 1.457.192.488.129.89.297 1.203.508l-.441.816c-.621-.43-1.36-.645-2.219-.645-.648 0-1.137.114-1.465.344-.332.227-.496.528-.496.903 0 .285.094.511.281.683.184.172.414.297.692.38.277.081.66.163 1.144.25.602.116 1.082.23 1.446.343.363.117.672.312.93.586.257.277.386.66.386 1.144 0 .66-.273 1.18-.82 1.567-.551.386-1.313.582-2.285.582Zm8.941-.532c-.191.172-.43.301-.707.395-.285.09-.578.137-.883.137-.703 0-1.25-.192-1.629-.575-.383-.382-.574-.921-.574-1.617v-4.547h-1.344v-.859h1.344v-1.644h1.016v1.644h2.289v.86h-2.29v4.492c0 .445.114.789.337 1.02.226.234.546.35.968.35.207 0 .41-.03.606-.097.195-.07.367-.164.508-.289Zm8.625-7.066v7.524h-.973v-1.372c-.27.457-.636.813-1.101 1.067-.469.25-1 .379-1.602.379-.984 0-1.758-.278-2.324-.825-.566-.546-.852-1.351-.852-2.41v-4.363h1.016v4.262c0 .793.195 1.394.586 1.804.39.41.95.614 1.672.614.793 0 1.418-.239 1.875-.723.457-.48.687-1.148.687-2.008v-3.949Zm9.711-3.09v10.613h-.973v-1.488a3.056 3.056 0 0 1-1.21 1.16c-.5.266-1.063.403-1.692.403a3.817 3.817 0 0 1-1.918-.489 3.46 3.46 0 0 1-1.344-1.359c-.324-.582-.488-1.242-.488-1.988 0-.742.164-1.406.488-1.988a3.414 3.414 0 0 1 1.344-1.352c.57-.32 1.21-.477 1.918-.477.61 0 1.16.125 1.648.38.493.25.895.62 1.211 1.105v-4.52Zm-3.79 9.785c.524 0 .997-.12 1.423-.363.426-.246.758-.59 1-1.039.246-.45.367-.957.367-1.531 0-.57-.121-1.082-.367-1.531a2.579 2.579 0 0 0-1-1.036 2.821 2.821 0 0 0-1.422-.363c-.535 0-1.016.121-1.438.363-.425.243-.761.59-1.003 1.036-.243.449-.364.96-.364 1.53 0 .575.121 1.083.363 1.532.243.45.579.793 1.004 1.04.422.241.903.362 1.438.362Zm12.946-6.695-3.762 8.426c-.304.707-.66 1.207-1.058 1.5-.402.297-.883.445-1.445.445-.364 0-.704-.058-1.016-.172a2.17 2.17 0 0 1-.816-.515l.472-.758c.383.383.84.574 1.375.574.34 0 .637-.098.88-.289.241-.188.468-.512.679-.973l.328-.726-3.363-7.512h1.058l2.832 6.395 2.832-6.395Zm6.906 10.3c-.535-.878-.945-1.886-1.23-3.026a15.062 15.062 0 0 1-.43-3.668c0-1.305.145-2.536.43-3.684.285-1.149.695-2.152 1.23-3.012h.973c-.562.965-.976 2-1.238 3.106-.262 1.105-.39 2.304-.39 3.59 0 1.285.128 2.484.39 3.59.262 1.105.676 2.14 1.238 3.105Zm9.297-10.3-3.761 8.426c-.305.707-.657 1.207-1.059 1.5-.398.297-.883.445-1.441.445-.364 0-.704-.058-1.016-.172a2.14 2.14 0 0 1-.816-.515l.472-.758c.38.383.836.574 1.371.574.344 0 .637-.098.88-.289.245-.188.472-.512.679-.973l.328-.726-3.36-7.512h1.06l2.831 6.395 2.832-6.395Zm7.766 4.078h-6.293c.059.781.36 1.414.902 1.895.543.48 1.23.722 2.059.722.469 0 .894-.086 1.289-.25.39-.168.727-.414 1.016-.738l.57.66c-.332.399-.75.703-1.25.914-.5.211-1.055.317-1.652.317-.774 0-1.457-.168-2.055-.496a3.599 3.599 0 0 1-1.395-1.364c-.332-.582-.5-1.242-.5-1.976 0-.735.16-1.39.48-1.973a3.47 3.47 0 0 1 1.317-1.36c.559-.323 1.184-.484 1.88-.484.694 0 1.32.16 1.874.485.55.324.985.773 1.3 1.351.317.578.474 1.239.474 1.98Zm-3.633-3.262c-.723 0-1.332.23-1.824.692-.488.465-.77 1.066-.836 1.812h5.336c-.066-.746-.344-1.347-.836-1.812-.492-.461-1.105-.692-1.84-.692Zm8.14-.87c.981 0 1.735.242 2.259.734.527.492.789 1.219.789 2.183v4.66h-.973v-1.171c-.23.39-.566.695-1.008.914-.445.222-.972.332-1.582.332-.84 0-1.508-.203-2.004-.602-.496-.402-.742-.93-.742-1.59 0-.636.23-1.152.695-1.543.461-.39 1.196-.586 2.207-.586h2.391v-.457c0-.648-.184-1.144-.547-1.48-.36-.34-.89-.508-1.586-.508-.476 0-.933.078-1.37.234a3.433 3.433 0 0 0-1.134.653l-.457-.758c.383-.324.84-.574 1.375-.754a5.337 5.337 0 0 1 1.688-.262Zm-.359 6.847c.575 0 1.067-.129 1.473-.39.41-.262.715-.641.918-1.137v-1.23h-2.36c-1.288 0-1.933.448-1.933 1.343 0 .437.168.785.5 1.035.336.254.805.379 1.402.379Zm7.141-5.32c.234-.504.59-.887 1.063-1.14.472-.259 1.054-.388 1.753-.388v.985l-.246-.016c-.789 0-1.41.246-1.859.73-.445.489-.672 1.169-.672 2.047v3.832h-1.016v-7.523h.977Zm6.723 6.125c-.61 0-1.196-.09-1.754-.266-.555-.176-.992-.398-1.309-.668l.457-.8c.317.25.711.452 1.188.609a4.75 4.75 0 0 0 1.488.238c.688 0 1.195-.11 1.523-.324.329-.215.493-.516.493-.906 0-.278-.09-.497-.27-.653a1.793 1.793 0 0 0-.687-.355 9.164 9.164 0 0 0-1.102-.239c-.61-.113-1.102-.23-1.473-.351a2.18 2.18 0 0 1-.953-.606c-.261-.289-.39-.683-.39-1.187 0-.629.261-1.145.785-1.547.527-.398 1.254-.598 2.187-.598.489 0 .973.063 1.461.192.485.129.887.297 1.2.508l-.442.816c-.621-.43-1.36-.645-2.219-.645-.648 0-1.136.114-1.465.344-.328.227-.492.528-.492.903 0 .285.094.511.278.683.187.172.418.297.695.38.277.081.656.163 1.144.25.602.116 1.082.23 1.442.343.363.117.676.312.933.586.254.277.383.66.383 1.144 0 .66-.273 1.18-.82 1.567-.55.386-1.309.582-2.281.582Zm4.132 2.703c.563-.965.977-1.996 1.243-3.098.27-1.101.402-2.3.402-3.597 0-1.297-.133-2.497-.402-3.598a11.435 11.435 0 0 0-1.243-3.098h.973c.535.86.945 1.863 1.235 3.012.293 1.148.437 2.379.437 3.684 0 1.304-.14 2.53-.43 3.675-.285 1.145-.699 2.149-1.242 3.02ZM196.56 273.469"/><path style="stroke:none;fill-rule:nonzero;fill:#767171;fill-opacity:1" d="M384.672 291.668c-.078 0-.133-.02-.168-.063-.031-.039-.047-.113-.047-.226v-.461c-.227.281-.504.5-.844.656a2.57 2.57 0 0 1-1.093.235 2.35 2.35 0 0 1-1.778-.758c-.476-.504-.719-1.13-.719-1.88 0-.773.258-1.421.766-1.933.508-.515 1.145-.773 1.906-.773.383 0 .73.07 1.04.203.304.14.57.34.788.605v-2.152h-.296c-.325 0-.536-.027-.633-.086-.094-.058-.14-.164-.14-.316 0-.137.034-.239.112-.305a.5.5 0 0 1 .336-.101h1.149c.113 0 .195.019.246.058.05.035.074.094.074.172v6.332h.254c.184 0 .316.031.398.094.082.058.125.16.125.293 0 .129-.035.226-.109.297a.371.371 0 0 1-.285.109Zm-3.68-2.523c0 .515.164.94.5 1.27.332.327.754.495 1.27.495.515 0 .941-.172 1.273-.515.336-.344.5-.778.5-1.305 0-.524-.164-.95-.496-1.29-.332-.335-.758-.503-1.277-.503-.532 0-.957.168-1.282.512-.324.34-.488.785-.488 1.336Zm8.469 3.96h.242c.274 0 .461.028.559.086.097.059.144.164.144.317 0 .133-.039.23-.117.3-.074.067-.187.098-.332.098h-2.59c-.176 0-.297-.027-.367-.09-.07-.058-.105-.16-.105-.308 0-.133.035-.235.109-.301s.183-.102.328-.102h1.223l.906-1.793-2.059-4.039c-.25 0-.418-.027-.511-.09-.09-.058-.137-.163-.137-.316 0-.129.039-.226.113-.293.074-.066.188-.097.336-.097h1.567c.21 0 .351.027.421.086.075.058.11.16.11.304 0 .153-.047.258-.14.317-.095.058-.266.09-.516.09h-.211l1.523 3.097 1.55-3.098h-.218c-.258 0-.437-.027-.535-.09-.098-.058-.145-.163-.145-.316 0-.144.036-.246.106-.305.07-.058.215-.085.426-.085h1.39c.153 0 .266.03.34.097.07.067.11.164.11.293 0 .145-.043.246-.126.305-.082.058-.23.094-.437.101Zm5.238-2.23v-3.602h-.11c-.253 0-.429-.027-.523-.09-.097-.058-.144-.163-.144-.316 0-.137.039-.238.117-.297.082-.062.207-.093.383-.093h.805c.101 0 .18.02.234.062a.2.2 0 0 1 .086.168v.383c.273-.258.543-.445.812-.567.266-.12.543-.183.832-.183.567 0 1.012.176 1.336.527.325.356.485.84.485 1.461v2.547h.265c.188 0 .32.031.403.094.086.058.125.16.125.293 0 .144-.043.25-.133.312-.086.063-.242.094-.469.094h-1.242c-.238 0-.39-.027-.461-.086-.066-.055-.102-.164-.102-.32 0-.145.04-.246.122-.305.078-.055.226-.082.44-.082h.196v-2.336c0-.441-.097-.773-.297-1.004-.195-.23-.484-.344-.863-.344-.383 0-.719.125-1.012.387a1.227 1.227 0 0 0-.437.961v2.336h.195c.227 0 .375.027.457.082.078.059.117.16.117.305 0 .156-.035.265-.101.32-.067.059-.23.086-.496.086h-1.324c-.153 0-.27-.035-.344-.102-.078-.062-.117-.164-.117-.304 0-.149.043-.25.132-.305.086-.055.258-.082.512-.082Zm8.992.145c.579 0 1.051-.18 1.422-.547.367-.368.551-.832.551-1.395 0-.566-.184-1.035-.555-1.402-.37-.371-.843-.555-1.418-.555-.57 0-1.043.184-1.41.555-.37.367-.554.836-.554 1.402 0 .57.183 1.035.55 1.399.368.363.84.543 1.414.543Zm2.95-1.942c0 .8-.274 1.457-.817 1.965-.547.508-1.258.766-2.133.766-.867 0-1.574-.258-2.12-.766-.548-.508-.821-1.164-.821-1.965 0-.8.273-1.457.82-1.965.547-.508 1.254-.761 2.121-.761.872 0 1.579.253 2.13.765.546.508.82 1.16.82 1.961Zm6.039-.539c0-.531-.047-.887-.14-1.07-.099-.188-.263-.278-.493-.278a.756.756 0 0 0-.66.36c-.164.238-.246.566-.246.988v2.336h.101c.23 0 .383.027.461.082.074.055.113.156.113.305 0 .136-.03.234-.097.304-.063.067-.16.102-.29.102h-.714c-.16 0-.27-.04-.328-.113-.059-.075-.086-.239-.086-.485v-2.972c0-.278-.067-.5-.192-.664a.629.629 0 0 0-.523-.243.798.798 0 0 0-.465.145c-.14.101-.258.25-.363.445v3.094h.21c.223 0 .376.027.454.082.078.059.117.16.117.305 0 .152-.031.261-.094.316-.062.059-.183.09-.367.09h-1.492c-.145 0-.254-.035-.324-.102-.067-.062-.102-.164-.102-.304 0-.149.043-.25.13-.305.089-.055.26-.082.515-.082h.113v-3.602h-.102c-.261 0-.441-.027-.535-.09-.097-.058-.144-.163-.144-.316 0-.129.039-.226.113-.293.074-.066.184-.097.336-.097h.86c.124 0 .202.02.245.062.04.043.063.137.067.274a1.57 1.57 0 0 1 .496-.364c.176-.082.375-.12.598-.12.261 0 .476.058.648.171.168.113.297.29.379.52.156-.235.336-.407.543-.52.207-.113.441-.172.707-.172.484 0 .84.16 1.058.473.227.316.336.824.336 1.527v2.547h.09c.23 0 .387.027.465.082.082.059.117.16.117.305 0 .136-.03.234-.097.304-.067.067-.168.102-.297.102h-.684c-.148 0-.258-.047-.328-.137-.074-.09-.11-.23-.11-.426Zm4.304-3.68c0-.406.036-.66.11-.765.07-.106.23-.156.469-.156.234 0 .386.042.46.132.075.086.114.297.114.625 0 .32-.035.524-.106.598-.07.078-.226.117-.469.117-.238 0-.394-.039-.468-.11-.074-.07-.11-.218-.11-.44Zm1.04 6.016h1.8c.149 0 .254.031.324.094.07.058.106.16.106.293 0 .152-.035.261-.098.316-.066.059-.187.09-.363.09h-4.36c-.152 0-.261-.035-.335-.102-.078-.07-.114-.168-.114-.304 0-.13.04-.227.118-.293.078-.063.199-.094.355-.094h1.711v-3.602h-1.094a.546.546 0 0 1-.351-.101.39.39 0 0 1-.121-.305c0-.129.039-.226.113-.293.074-.066.187-.097.336-.097h1.648a.4.4 0 0 1 .238.062c.06.04.086.098.086.168Zm6.226-3.566c-.492 0-.895.152-1.203.453-.313.304-.465.695-.465 1.18 0 .476.152.867.465 1.171.308.305.71.457 1.203.457.484 0 .887-.152 1.2-.457.312-.304.468-.695.468-1.172 0-.476-.156-.867-.469-1.171-.312-.31-.715-.461-1.199-.461Zm2.438 4.058c0 .528-.028.899-.079 1.117a1.56 1.56 0 0 1-.27.575c-.21.277-.503.488-.882.632-.379.145-.824.215-1.336.215-.43 0-.738-.039-.937-.12-.196-.083-.293-.216-.293-.395a.4.4 0 0 1 .14-.305.485.485 0 0 1 .34-.133c.102 0 .258.016.469.043.207.027.367.04.476.04.555 0 .95-.126 1.18-.38.23-.258.348-.691.348-1.308v-.68c-.227.266-.48.46-.758.582a2.312 2.312 0 0 1-.957.188c-.7 0-1.277-.235-1.738-.7-.457-.468-.688-1.058-.688-1.773 0-.719.235-1.317.707-1.79.473-.472 1.059-.71 1.754-.71.29 0 .57.055.848.16.273.105.55.27.832.484v-.402c0-.078.027-.137.074-.176a.435.435 0 0 1 .242-.054h.848c.148 0 .262.03.336.097.074.067.113.164.113.293 0 .153-.047.258-.14.317-.094.058-.27.09-.528.09h-.101Zm2.511-.492v-5.754h-.11c-.253 0-.429-.027-.523-.09-.097-.058-.144-.164-.144-.312 0-.137.039-.239.117-.305.074-.066.188-.101.332-.101h.856c.101 0 .18.019.234.062a.196.196 0 0 1 .086.168v2.547a3.03 3.03 0 0 1 .808-.567c.27-.12.547-.183.836-.183.567 0 1.012.176 1.336.527.325.356.485.84.485 1.461v2.547h.265c.188 0 .32.031.403.094.082.058.125.16.125.293 0 .136-.04.234-.114.304-.074.067-.187.102-.336.102h-1.496c-.175 0-.293-.031-.355-.09-.063-.058-.094-.164-.094-.316 0-.149.04-.25.117-.305.075-.055.22-.082.434-.082h.2v-2.336c0-.441-.102-.773-.302-1.004-.199-.23-.484-.344-.863-.344-.387 0-.723.125-1.016.387-.289.258-.433.578-.433.961v2.336h.195c.227 0 .375.027.457.082.078.059.117.16.117.305 0 .152-.03.261-.093.316-.063.059-.18.09-.356.09h-1.496c-.144 0-.254-.035-.328-.102-.074-.07-.11-.168-.11-.304 0-.149.044-.25.133-.305.086-.055.258-.082.516-.082Zm10.547-4.082c.184 0 .32.031.402.094.086.062.125.164.125.304 0 .13-.035.227-.117.293-.078.067-.195.098-.351.098h-2.278v1.875c0 .617.082 1.02.239 1.215.16.195.433.293.82.293.34 0 .75-.102 1.223-.297.476-.2.77-.297.882-.297a.377.377 0 0 1 .375.387c0 .12-.046.23-.136.32-.094.094-.246.18-.47.27-.366.144-.698.25-.991.32-.293.066-.57.098-.828.098-.438 0-.805-.07-1.106-.207a1.423 1.423 0 0 1-.664-.63 1.416 1.416 0 0 1-.16-.464 5.33 5.33 0 0 1-.047-.832v-2.051h-.957c-.156 0-.27-.031-.34-.094-.074-.062-.11-.16-.11-.297 0-.156.052-.261.15-.316.093-.055.304-.082.62-.082h.637v-1.453c0-.16.035-.277.102-.356.07-.074.18-.113.324-.113.164 0 .277.043.344.137.062.094.093.308.093.644v1.141Zm4.27 3.953c0-.293.101-.531.308-.719.203-.187.469-.28.793-.28.332 0 .602.089.805.273.203.183.305.425.305.726 0 .297-.106.54-.309.723-.203.183-.473.277-.8.277-.329 0-.595-.094-.798-.277a.93.93 0 0 1-.304-.723Zm5.918.129v-3.602h-.11c-.254 0-.43-.027-.523-.09-.098-.058-.145-.163-.145-.316 0-.137.04-.238.117-.297.079-.062.207-.093.383-.093h.805c.101 0 .18.02.234.062a.2.2 0 0 1 .086.168v.383c.274-.258.543-.445.813-.567.265-.12.543-.183.832-.183.566 0 1.012.176 1.336.527.324.356.484.84.484 1.461v2.547h.266c.187 0 .32.031.402.094.082.058.125.16.125.293 0 .144-.043.25-.133.312-.09.063-.242.094-.469.094h-1.242c-.238 0-.39-.027-.46-.086-.067-.055-.102-.164-.102-.32 0-.145.039-.246.12-.305.079-.055.227-.082.442-.082h.196v-2.336c0-.441-.098-.773-.297-1.004-.196-.23-.485-.344-.864-.344-.382 0-.718.125-1.011.387a1.227 1.227 0 0 0-.438.961v2.336h.196c.226 0 .375.027.457.082.078.059.117.16.117.305 0 .156-.035.265-.102.32-.07.059-.234.086-.496.086h-1.324c-.152 0-.27-.035-.348-.102-.074-.062-.113-.164-.113-.304 0-.149.043-.25.133-.305.086-.055.258-.082.512-.082Zm7.093-1.555c.032.54.211.953.547 1.25.336.293.793.438 1.375.438.438 0 .914-.113 1.434-.348.515-.234.828-.351.937-.351.114 0 .207.035.282.105.074.07.113.16.113.266a.468.468 0 0 1-.117.297c-.082.09-.207.175-.38.261a5.739 5.739 0 0 1-1.16.422 4.994 4.994 0 0 1-1.187.149c-.855 0-1.539-.247-2.05-.743-.512-.492-.77-1.144-.77-1.957 0-.828.27-1.496.812-2.007.543-.516 1.254-.774 2.125-.774.79 0 1.446.242 1.965.719.524.48.781 1.062.781 1.742 0 .211-.043.352-.129.422-.09.074-.328.11-.718.11Zm.032-.738h3.652c-.055-.445-.238-.805-.559-1.074-.312-.274-.703-.406-1.164-.406-.496 0-.918.128-1.258.39-.34.262-.566.625-.671 1.09Zm10.304-1.789c.184 0 .32.031.403.094.086.062.125.164.125.304 0 .13-.036.227-.118.293-.078.067-.195.098-.351.098h-2.277v1.875c0 .617.082 1.02.238 1.215.16.195.433.293.82.293.34 0 .746-.102 1.223-.297.476-.2.77-.297.883-.297a.377.377 0 0 1 .375.387c0 .12-.047.23-.137.32-.094.094-.246.18-.469.27-.367.144-.7.25-.992.32-.293.066-.57.098-.828.098-.438 0-.805-.07-1.106-.207a1.405 1.405 0 0 1-.664-.63 1.416 1.416 0 0 1-.16-.464 5.33 5.33 0 0 1-.047-.832v-2.051h-.957c-.156 0-.27-.031-.34-.094-.074-.062-.109-.16-.109-.297 0-.156.05-.261.148-.316.094-.055.305-.082.622-.082h.636v-1.453c0-.16.035-.277.102-.356.07-.074.18-.113.324-.113.164 0 .277.043.344.137.062.094.094.308.094.644v1.141Zm-87.832-3.8"/></svg>