<svg width="1608" height="995" xmlns="http://www.w3.org/2000/svg" xmlns:xlink="http://www.w3.org/1999/xlink" overflow="hidden"><defs><clipPath id="clip0"><rect x="1022" y="792" width="1608" height="995"/></clipPath><clipPath id="clip1"><rect x="1024" y="795" width="1604" height="990"/></clipPath><clipPath id="clip2"><rect x="1024" y="795" width="1604" height="990"/></clipPath><clipPath id="clip3"><rect x="1024" y="795" width="1604" height="990"/></clipPath><clipPath id="clip4"><rect x="1024" y="795" width="1604" height="990"/></clipPath><clipPath id="clip5"><rect x="1024" y="795" width="1604" height="990"/></clipPath><clipPath id="clip6"><rect x="1024" y="795" width="1604" height="990"/></clipPath><clipPath id="clip7"><rect x="1024" y="795" width="1604" height="990"/></clipPath><clipPath id="clip8"><rect x="1024" y="795" width="1604" height="990"/></clipPath><clipPath id="clip9"><rect x="1024" y="795" width="1604" height="990"/></clipPath><clipPath id="clip10"><rect x="1024" y="795" width="1604" height="990"/></clipPath><clipPath id="clip11"><rect x="1024" y="795" width="1604" height="990"/></clipPath><clipPath id="clip12"><rect x="1024" y="795" width="1604" height="990"/></clipPath><clipPath id="clip13"><rect x="1024" y="795" width="1604" height="990"/></clipPath><clipPath id="clip14"><rect x="1024" y="795" width="1604" height="990"/></clipPath><clipPath id="clip15"><rect x="1024" y="795" width="1604" height="990"/></clipPath><clipPath id="clip16"><rect x="1024" y="795" width="1604" height="990"/></clipPath><clipPath id="clip17"><rect x="1024" y="795" width="1604" height="990"/></clipPath><clipPath id="clip18"><rect x="1024" y="795" width="1604" height="990"/></clipPath><clipPath id="clip19"><rect x="1024" y="795" width="1604" height="990"/></clipPath><clipPath id="clip20"><rect x="1024" y="795" width="1604" height="990"/></clipPath><clipPath id="clip21"><rect x="1024" y="795" width="1604" height="990"/></clipPath><clipPath id="clip22"><rect x="1024" y="795" width="1604" height="990"/></clipPath><clipPath id="clip23"><rect x="1024" y="795" width="1604" height="990"/></clipPath><clipPath id="clip24"><rect x="1024" y="795" width="1604" height="990"/></clipPath><clipPath id="clip25"><rect x="1024" y="795" width="1605" height="991"/></clipPath><clipPath id="clip26"><rect x="1384" y="1685" width="2003" height="59"/></clipPath></defs><g clip-path="url(#clip0)" transform="translate(-1022 -792)"><rect x="1024" y="795" width="1605" height="990" fill="#FFFFFF" fill-opacity="1"/><g clip-path="url(#clip1)"><path d="M0 0 0.000360892 736" stroke="#000000" stroke-width="3.4375" stroke-linecap="butt" stroke-linejoin="round" stroke-miterlimit="10" stroke-opacity="1" fill="none" fill-rule="evenodd" transform="matrix(1 0 0 -1 1267.5 1581.5)"/></g><g clip-path="url(#clip2)"><path d="M1267.5 1581.5 2566.5 1581.5" stroke="#000000" stroke-width="3.4375" stroke-linecap="butt" stroke-linejoin="round" stroke-miterlimit="10" stroke-opacity="1" fill="none" fill-rule="evenodd"/></g><g clip-path="url(#clip3)"><path d="M2206.87 1422.71C2206.87 1428.78 2201.95 1433.71 2195.88 1433.71 2189.8 1433.71 2184.88 1428.78 2184.88 1422.71 2184.88 1416.63 2189.8 1411.71 2195.88 1411.71 2201.95 1411.71 2206.87 1416.63 2206.87 1422.71Z" stroke="#000000" stroke-width="3.4375" stroke-linecap="butt" stroke-linejoin="round" stroke-miterlimit="10" stroke-opacity="1" fill="none" fill-rule="nonzero"/><path d="M1927.87 1500.71C1927.87 1506.78 1922.95 1511.71 1916.87 1511.71 1910.8 1511.71 1905.88 1506.78 1905.88 1500.71 1905.88 1494.63 1910.8 1489.71 1916.87 1489.71 1922.95 1489.71 1927.87 1494.63 1927.87 1500.71Z" stroke="#000000" stroke-width="3.4375" stroke-linecap="butt" stroke-linejoin="round" stroke-miterlimit="10" stroke-opacity="1" fill="none" fill-rule="nonzero"/><path d="M2168.87 1301.71C2168.87 1307.78 2163.95 1312.71 2157.87 1312.71 2151.8 1312.71 2146.88 1307.78 2146.88 1301.71 2146.88 1295.63 2151.8 1290.71 2157.87 1290.71 2163.95 1290.71 2168.87 1295.63 2168.87 1301.71Z" stroke="#000000" stroke-width="3.4375" stroke-linecap="butt" stroke-linejoin="round" stroke-miterlimit="10" stroke-opacity="1" fill="none" fill-rule="nonzero"/><path d="M2020.87 1525.71C2020.87 1531.78 2015.95 1536.71 2009.88 1536.71 2003.8 1536.71 1998.88 1531.78 1998.88 1525.71 1998.88 1519.63 2003.8 1514.71 2009.88 1514.71 2015.95 1514.71 2020.87 1519.63 2020.87 1525.71Z" stroke="#000000" stroke-width="3.4375" stroke-linecap="butt" stroke-linejoin="round" stroke-miterlimit="10" stroke-opacity="1" fill="none" fill-rule="nonzero"/><path d="M2354.87 933.708C2354.87 939.783 2349.95 944.708 2343.88 944.708 2337.8 944.708 2332.88 939.783 2332.88 933.708 2332.88 927.633 2337.8 922.708 2343.88 922.708 2349.95 922.708 2354.87 927.633 2354.87 933.708Z" stroke="#000000" stroke-width="3.4375" stroke-linecap="butt" stroke-linejoin="round" stroke-miterlimit="10" stroke-opacity="1" fill="none" fill-rule="nonzero"/><path d="M2410.87 1130.71C2410.87 1136.78 2405.95 1141.71 2399.87 1141.71 2393.8 1141.71 2388.88 1136.78 2388.88 1130.71 2388.88 1124.63 2393.8 1119.71 2399.87 1119.71 2405.95 1119.71 2410.87 1124.63 2410.87 1130.71Z" stroke="#000000" stroke-width="3.4375" stroke-linecap="butt" stroke-linejoin="round" stroke-miterlimit="10" stroke-opacity="1" fill="none" fill-rule="nonzero"/></g><g clip-path="url(#clip4)"><text fill="#404040" fill-opacity="1" font-family="Montserrat,Montserrat_MSFontService,sans-serif" font-style="normal" font-variant="normal" font-weight="400" font-stretch="normal" font-size="41" text-anchor="start" direction="ltr" writing-mode="lr-tb" unicode-bidi="normal" text-decoration="none" transform="matrix(1 0 0 1 2234.01 1437)">WOSCOPS</text></g><g clip-path="url(#clip5)"><text fill="#404040" fill-opacity="1" font-family="Montserrat,Montserrat_MSFontService,sans-serif" font-style="normal" font-variant="normal" font-weight="400" font-stretch="normal" font-size="41" text-anchor="start" direction="ltr" writing-mode="lr-tb" unicode-bidi="normal" text-decoration="none" transform="matrix(1 0 0 1 1643.85 1502)">ASCOT</text></g><g clip-path="url(#clip6)"><text fill="#404040" fill-opacity="1" font-family="Montserrat,Montserrat_MSFontService,sans-serif" font-style="normal" font-variant="normal" font-weight="400" font-stretch="normal" font-size="41" text-anchor="start" direction="ltr" writing-mode="lr-tb" unicode-bidi="normal" text-decoration="none" transform="matrix(1 0 0 1 1786.74 1502)">-</text></g><g clip-path="url(#clip7)"><text fill="#404040" fill-opacity="1" font-family="Montserrat,Montserrat_MSFontService,sans-serif" font-style="normal" font-variant="normal" font-weight="400" font-stretch="normal" font-size="41" text-anchor="start" direction="ltr" writing-mode="lr-tb" unicode-bidi="normal" text-decoration="none" transform="matrix(1 0 0 1 1802.5 1502)">LLA</text></g><g clip-path="url(#clip8)"><text fill="#404040" fill-opacity="1" font-family="Montserrat,Montserrat_MSFontService,sans-serif" font-style="normal" font-variant="normal" font-weight="400" font-stretch="normal" font-size="41" text-anchor="start" direction="ltr" writing-mode="lr-tb" unicode-bidi="normal" text-decoration="none" transform="matrix(1 0 0 1 2196.92 1317)">CARDS</text></g><g clip-path="url(#clip9)"><text fill="#404040" fill-opacity="1" font-family="Montserrat,Montserrat_MSFontService,sans-serif" font-style="normal" font-variant="normal" font-weight="400" font-stretch="normal" font-size="41" text-anchor="start" direction="ltr" writing-mode="lr-tb" unicode-bidi="normal" text-decoration="none" transform="matrix(1 0 0 1 2048.53 1540)">JUPITER</text></g><g clip-path="url(#clip10)"><text fill="#404040" fill-opacity="1" font-family="Montserrat,Montserrat_MSFontService,sans-serif" font-style="normal" font-variant="normal" font-weight="400" font-stretch="normal" font-size="41" text-anchor="start" direction="ltr" writing-mode="lr-tb" unicode-bidi="normal" text-decoration="none" transform="matrix(1 0 0 1 2382.41 949)">4S</text></g><g clip-path="url(#clip11)"><text fill="#404040" fill-opacity="1" font-family="Montserrat,Montserrat_MSFontService,sans-serif" font-style="normal" font-variant="normal" font-weight="400" font-stretch="normal" font-size="41" text-anchor="start" direction="ltr" writing-mode="lr-tb" unicode-bidi="normal" text-decoration="none" transform="matrix(1 0 0 1 2438.05 1145)">LIPID</text></g><g clip-path="url(#clip12)"><text fill="#000000" fill-opacity="1" font-family="Montserrat,Montserrat_MSFontService,sans-serif" font-style="normal" font-variant="normal" font-weight="400" font-stretch="normal" font-size="41" text-anchor="start" direction="ltr" writing-mode="lr-tb" unicode-bidi="normal" text-decoration="none" transform="matrix(1 0 0 1 1201.87 1594)">0</text></g><g clip-path="url(#clip13)"><text fill="#000000" fill-opacity="1" font-family="Montserrat,Montserrat_MSFontService,sans-serif" font-style="normal" font-variant="normal" font-weight="400" font-stretch="normal" font-size="41" text-anchor="start" direction="ltr" writing-mode="lr-tb" unicode-bidi="normal" text-decoration="none" transform="matrix(1 0 0 1 1178.51 1471)">50</text></g><g clip-path="url(#clip14)"><text fill="#000000" fill-opacity="1" font-family="Montserrat,Montserrat_MSFontService,sans-serif" font-style="normal" font-variant="normal" font-weight="400" font-stretch="normal" font-size="41" text-anchor="start" direction="ltr" writing-mode="lr-tb" unicode-bidi="normal" text-decoration="none" transform="matrix(1 0 0 1 1159.65 1348)">100</text></g><g clip-path="url(#clip15)"><text fill="#000000" fill-opacity="1" font-family="Montserrat,Montserrat_MSFontService,sans-serif" font-style="normal" font-variant="normal" font-weight="400" font-stretch="normal" font-size="41" text-anchor="start" direction="ltr" writing-mode="lr-tb" unicode-bidi="normal" text-decoration="none" transform="matrix(1 0 0 1 1163.62 1226)">150</text></g><g clip-path="url(#clip16)"><text fill="#000000" fill-opacity="1" font-family="Montserrat,Montserrat_MSFontService,sans-serif" font-style="normal" font-variant="normal" font-weight="400" font-stretch="normal" font-size="41" text-anchor="start" direction="ltr" writing-mode="lr-tb" unicode-bidi="normal" text-decoration="none" transform="matrix(1 0 0 1 1151.13 1103)">200</text></g><g clip-path="url(#clip17)"><text fill="#000000" fill-opacity="1" font-family="Montserrat,Montserrat_MSFontService,sans-serif" font-style="normal" font-variant="normal" font-weight="400" font-stretch="normal" font-size="41" text-anchor="start" direction="ltr" writing-mode="lr-tb" unicode-bidi="normal" text-decoration="none" transform="matrix(1 0 0 1 1155.09 980)">250</text></g><g clip-path="url(#clip18)"><text fill="#000000" fill-opacity="1" font-family="Montserrat,Montserrat_MSFontService,sans-serif" font-style="normal" font-variant="normal" font-weight="400" font-stretch="normal" font-size="41" text-anchor="start" direction="ltr" writing-mode="lr-tb" unicode-bidi="normal" text-decoration="none" transform="matrix(1 0 0 1 1151.29 858)">300</text></g><g clip-path="url(#clip19)"><text fill="#000000" fill-opacity="1" font-family="Montserrat,Montserrat_MSFontService,sans-serif" font-style="normal" font-variant="normal" font-weight="400" font-stretch="normal" font-size="41" text-anchor="start" direction="ltr" writing-mode="lr-tb" unicode-bidi="normal" text-decoration="none" transform="matrix(1 0 0 1 1253.96 1648)">0</text></g><g clip-path="url(#clip20)"><text fill="#000000" fill-opacity="1" font-family="Montserrat,Montserrat_MSFontService,sans-serif" font-style="normal" font-variant="normal" font-weight="400" font-stretch="normal" font-size="41" text-anchor="start" direction="ltr" writing-mode="lr-tb" unicode-bidi="normal" text-decoration="none" transform="matrix(1 0 0 1 1626.88 1648)">2</text></g><g clip-path="url(#clip21)"><text fill="#000000" fill-opacity="1" font-family="Montserrat,Montserrat_MSFontService,sans-serif" font-style="normal" font-variant="normal" font-weight="400" font-stretch="normal" font-size="41" text-anchor="start" direction="ltr" writing-mode="lr-tb" unicode-bidi="normal" text-decoration="none" transform="matrix(1 0 0 1 1995.93 1648)">4</text></g><g clip-path="url(#clip22)"><text fill="#000000" fill-opacity="1" font-family="Montserrat,Montserrat_MSFontService,sans-serif" font-style="normal" font-variant="normal" font-weight="400" font-stretch="normal" font-size="41" text-anchor="start" direction="ltr" writing-mode="lr-tb" unicode-bidi="normal" text-decoration="none" transform="matrix(1 0 0 1 2367.99 1648)">6</text></g><g clip-path="url(#clip23)"><text fill="#000000" fill-opacity="1" font-family="Montserrat,Montserrat_MSFontService,sans-serif" font-style="normal" font-variant="normal" font-weight="400" font-stretch="normal" font-size="46" text-anchor="start" direction="ltr" writing-mode="lr-tb" unicode-bidi="normal" text-decoration="none" transform="matrix(6.12323e-17 -1 1 6.12323e-17 1125.67 1544)">Extra days of life from statins</text></g><g clip-path="url(#clip24)"><text fill="#000000" fill-opacity="1" font-family="Montserrat,Montserrat_MSFontService,sans-serif" font-style="normal" font-variant="normal" font-weight="400" font-stretch="normal" font-size="46" text-anchor="start" direction="ltr" writing-mode="lr-tb" unicode-bidi="normal" text-decoration="none" transform="matrix(1 0 0 1 1654.13 1716)">Length of study (years)</text></g><g clip-path="url(#clip25)"><g clip-path="url(#clip26)"><text fill="#767171" fill-opacity="1" font-family="Courier,Courier_MSFontService,sans-serif" font-style="normal" font-variant="normal" font-weight="400" font-stretch="normal" font-size="37" text-anchor="start" direction="ltr" writing-mode="lr-tb" unicode-bidi="normal" text-decoration="none" transform="matrix(1 0 0 1 2242.57 1730)">dynomight.net</text></g></g></g></svg>