<svg xmlns="http://www.w3.org/2000/svg" width="400" height="247.512"><defs><clipPath id="a"><path d="M0 0h400v247.512H0Zm0 0"/></clipPath></defs><g clip-path="url(#a)"><path style="stroke:none;fill-rule:nonzero;fill:#fff;fill-opacity:1" d="M.496.746H399.75v246.27H.496Zm0 0"/></g><path style="fill:none;stroke-width:3.4375;stroke-linecap:butt;stroke-linejoin:round;stroke:#000;stroke-opacity:1;stroke-miterlimit:10" d="M.003-.006v736.005" transform="matrix(.24876 0 0 -.24876 61.07 196.393)"/><path style="fill:none;stroke-width:3.4375;stroke-linecap:butt;stroke-linejoin:round;stroke:#000;stroke-opacity:1;stroke-miterlimit:10" d="M1267.503 1581.506h1298.994M2206.864 1422.716c0 6.061-4.915 10.992-10.977 10.992-6.093 0-11.008-4.93-11.008-10.992a10.99 10.99 0 0 1 11.008-11.008c6.062 0 10.977 4.915 10.977 11.008ZM1927.866 1500.713c0 6.062-4.915 10.993-10.992 10.993-6.077 0-10.992-4.931-10.992-10.993 0-6.077 4.915-11.007 10.992-11.007 6.077 0 10.992 4.93 10.992 11.007ZM2168.878 1301.708c0 6.077-4.931 11.008-11.008 11.008-6.077 0-10.992-4.931-10.992-11.008a10.984 10.984 0 0 1 10.992-10.992c6.077 0 11.008 4.915 11.008 10.992ZM2020.876 1525.713c0 6.061-4.931 10.992-10.992 10.992-6.078 0-11.008-4.93-11.008-10.992 0-6.077 4.93-11.008 11.008-11.008 6.061 0 10.992 4.93 10.992 11.008ZM2354.866 933.705c0 6.077-4.916 11.008-10.993 11.008s-10.992-4.93-10.992-11.008a10.984 10.984 0 0 1 10.992-10.992 10.984 10.984 0 0 1 10.993 10.992ZM2410.863 1130.716c0 6.062-4.915 10.993-10.992 10.993-6.077 0-10.992-4.931-10.992-10.993 0-6.092 4.915-11.007 10.992-11.007 6.077 0 10.992 4.915 10.992 11.007Zm0 0" transform="matrix(.24876 0 0 .24876 -254.229 -197.015)"/><path style="stroke:none;fill-rule:nonzero;fill:#404040;fill-opacity:1" d="m312.457 153.309-2.406 7.14h-.793l-2.094-6.09-2.098 6.09h-.789l-2.406-7.14h.777l2.059 6.14 2.133-6.14h.703l2.102 6.171 2.09-6.171Zm4.438 7.199a3.914 3.914 0 0 1-1.922-.473 3.48 3.48 0 0 1-1.348-1.3 3.622 3.622 0 0 1-.484-1.856c0-.688.164-1.305.484-1.856a3.48 3.48 0 0 1 1.348-1.3 3.916 3.916 0 0 1 1.922-.477c.707 0 1.343.156 1.914.469.566.316 1.015.75 1.34 1.3.328.555.488 1.176.488 1.864a3.6 3.6 0 0 1-.489 1.86 3.458 3.458 0 0 1-1.34 1.3 3.913 3.913 0 0 1-1.913.469Zm0-.672c.566 0 1.074-.129 1.53-.383.454-.254.813-.61 1.071-1.058.258-.454.387-.961.387-1.516 0-.559-.13-1.063-.387-1.516a2.797 2.797 0 0 0-1.07-1.062 3.09 3.09 0 0 0-1.531-.38c-.567 0-1.075.126-1.536.38-.457.258-.82.61-1.082 1.062a2.97 2.97 0 0 0-.39 1.516c0 .555.129 1.062.39 1.516.262.449.625.804 1.082 1.058.461.254.973.383 1.536.383Zm7.406.672c-.531 0-1.04-.082-1.528-.254-.484-.168-.859-.395-1.125-.672l.297-.582c.258.258.602.469 1.028.625.43.16.87.242 1.328.242.637 0 1.117-.117 1.437-.351.32-.235.48-.54.48-.914 0-.286-.09-.512-.261-.684a1.75 1.75 0 0 0-.637-.39 8.987 8.987 0 0 0-1.05-.301c-.536-.137-.965-.27-1.286-.395a2.056 2.056 0 0 1-.82-.578c-.226-.258-.344-.606-.344-1.047 0-.363.098-.691.29-.984.187-.297.48-.532.874-.711.395-.176.883-.266 1.47-.266.41 0 .808.059 1.198.168.391.113.727.27 1.016.465l-.258.601a3.49 3.49 0 0 0-.957-.44 3.467 3.467 0 0 0-1-.15c-.625 0-1.098.122-1.414.364-.312.238-.473.55-.473.93 0 .285.086.515.262.691.172.172.39.305.652.395.262.093.614.195 1.055.304.524.13.945.254 1.27.38.324.128.597.316.82.573.227.254.336.598.336 1.036 0 .359-.094.687-.29.984-.194.293-.491.527-.894.703-.398.172-.89.258-1.476.258Zm7.402 0c-.707 0-1.344-.156-1.91-.469a3.422 3.422 0 0 1-1.336-1.3c-.324-.552-.484-1.173-.484-1.86 0-.688.16-1.309.484-1.863.324-.551.77-.985 1.34-1.301a3.928 3.928 0 0 1 1.918-.469c.531 0 1.02.09 1.469.266.449.18.828.437 1.14.777l-.476.477c-.559-.563-1.262-.844-2.114-.844-.562 0-1.078.129-1.539.387-.46.257-.824.609-1.086 1.058-.261.45-.394.953-.394 1.512 0 .555.133 1.059.394 1.508.262.449.625.8 1.086 1.062.461.258.977.387 1.54.387.859 0 1.562-.285 2.113-.856l.476.477c-.312.34-.695.602-1.144.781a3.97 3.97 0 0 1-1.477.27Zm7.203 0c-.71 0-1.347-.156-1.922-.473a3.48 3.48 0 0 1-1.347-1.3c-.325-.551-.485-1.169-.485-1.856 0-.688.16-1.305.485-1.856a3.48 3.48 0 0 1 1.347-1.3 3.916 3.916 0 0 1 1.922-.477c.707 0 1.344.156 1.91.469.567.316 1.016.75 1.344 1.3.324.555.488 1.176.488 1.864a3.6 3.6 0 0 1-.488 1.86 3.469 3.469 0 0 1-1.344 1.3c-.566.313-1.203.469-1.91.469Zm0-.672c.563 0 1.074-.129 1.528-.383.457-.254.812-.61 1.074-1.058.258-.454.387-.961.387-1.516 0-.559-.13-1.063-.387-1.516a2.807 2.807 0 0 0-1.074-1.062 3.076 3.076 0 0 0-1.528-.38c-.566 0-1.078.126-1.535.38a2.8 2.8 0 0 0-1.082 1.062 2.973 2.973 0 0 0-.394 1.516c0 .555.132 1.062.394 1.516.262.449.621.804 1.082 1.058.457.254.969.383 1.535.383Zm8.106-6.527c.914 0 1.625.218 2.144.652.516.437.774 1.035.774 1.797s-.258 1.355-.774 1.789c-.52.43-1.23.648-2.144.648h-1.918v2.254h-.754v-7.14Zm-.02 4.222c.707 0 1.25-.156 1.621-.465.375-.308.563-.746.563-1.308 0-.578-.188-1.024-.563-1.332-.375-.309-.914-.465-1.62-.465h-1.9v3.57Zm6.64 2.977c-.53 0-1.038-.082-1.527-.254-.484-.168-.859-.395-1.125-.672l.297-.582c.258.258.602.469 1.028.625.43.16.87.242 1.328.242.637 0 1.117-.117 1.437-.351.32-.235.48-.54.48-.914 0-.286-.09-.512-.26-.684a1.75 1.75 0 0 0-.638-.39 8.987 8.987 0 0 0-1.05-.301c-.54-.137-.965-.27-1.286-.395a2.056 2.056 0 0 1-.82-.578c-.226-.258-.344-.606-.344-1.047 0-.363.098-.691.29-.984.187-.297.48-.532.874-.711.395-.176.883-.266 1.47-.266.41 0 .808.059 1.198.168.391.113.727.27 1.012.465l-.254.601a3.49 3.49 0 0 0-.957-.44 3.467 3.467 0 0 0-1-.15c-.625 0-1.098.122-1.414.364-.312.238-.473.55-.473.93 0 .285.086.515.262.691.172.172.39.305.652.395.262.093.614.195 1.055.304.524.13.945.254 1.27.38.324.128.597.316.82.573.223.254.336.598.336 1.036 0 .359-.098.687-.29.984-.194.293-.491.527-.894.703-.398.172-.894.258-1.476.258ZM160.328 174.71h-3.976l-.856 1.907h-.785l3.262-7.14h.746l3.261 7.14h-.792Zm-.273-.612-1.715-3.836-1.715 3.836Zm5.078 2.582c-.531 0-1.04-.086-1.524-.258-.488-.168-.863-.395-1.129-.672l.297-.582c.258.258.602.469 1.032.629.425.16.867.238 1.324.238.64 0 1.117-.117 1.437-.351.32-.235.48-.54.48-.914 0-.286-.085-.512-.26-.684a1.718 1.718 0 0 0-.638-.39 9.832 9.832 0 0 0-1.05-.301 10.704 10.704 0 0 1-1.286-.395 2.086 2.086 0 0 1-.82-.574c-.226-.258-.34-.61-.34-1.051 0-.36.094-.688.285-.984.192-.297.48-.532.875-.707.395-.18.887-.266 1.47-.266.41 0 .808.055 1.198.168.391.11.73.266 1.016.465l-.254.601a3.607 3.607 0 0 0-1.96-.594c-.626 0-1.099.122-1.411.364-.316.242-.477.55-.477.933 0 .286.086.516.262.688.172.172.39.305.653.398.261.09.613.192 1.054.301.524.13.95.258 1.27.383.324.125.597.313.82.57.227.254.34.598.34 1.035 0 .36-.098.688-.293.985-.195.293-.492.531-.89.703-.403.172-.895.262-1.481.262Zm7.406 0c-.71 0-1.344-.157-1.914-.473a3.466 3.466 0 0 1-1.336-1.297 3.622 3.622 0 0 1-.484-1.863c0-.688.16-1.309.484-1.86.324-.554.77-.988 1.34-1.3a3.939 3.939 0 0 1 1.918-.469c.531 0 1.02.086 1.469.266.449.175.832.433 1.144.773l-.48.48c-.559-.566-1.262-.847-2.11-.847a3.12 3.12 0 0 0-1.543.387c-.46.257-.824.613-1.086 1.062-.261.45-.39.95-.39 1.508s.129 1.062.39 1.512c.262.445.625.8 1.086 1.058a3.12 3.12 0 0 0 1.543.387c.856 0 1.559-.285 2.11-.856l.48.48a3.07 3.07 0 0 1-1.148.778c-.453.18-.946.274-1.473.274Zm7.2 0c-.708 0-1.348-.16-1.923-.477a3.48 3.48 0 0 1-1.347-1.3c-.324-.551-.485-1.169-.485-1.856 0-.688.16-1.305.485-1.856a3.48 3.48 0 0 1 1.347-1.3 3.914 3.914 0 0 1 1.922-.473c.707 0 1.344.156 1.91.469.57.312 1.016.746 1.344 1.3.328.551.488 1.172.488 1.86 0 .687-.164 1.308-.488 1.863-.328.55-.773.985-1.344 1.297-.566.316-1.203.473-1.91.473Zm0-.676c.562 0 1.073-.125 1.53-.383.454-.254.813-.61 1.07-1.059.259-.453.388-.957.388-1.515 0-.559-.13-1.063-.387-1.516a2.787 2.787 0 0 0-1.07-1.058 3.104 3.104 0 0 0-1.532-.383c-.566 0-1.078.129-1.535.383-.46.254-.82.609-1.082 1.058a2.97 2.97 0 0 0-.39 1.516c0 .558.128 1.062.39 1.516.262.449.621.804 1.082 1.058.457.258.973.383 1.535.383Zm6.718-5.875h-2.508v-.652h5.774v.652h-2.508v6.488h-.758ZM190.848 173.535h2.672v.633h-2.672ZM195.316 169.477h.754v6.488h4v.652h-4.754Zm6.008 0h.754v6.488h4v.652h-4.754Zm10.504 5.234h-3.976l-.856 1.906h-.785l3.262-7.14h.746l3.261 7.14h-.792Zm-.273-.613-1.715-3.836-1.711 3.836ZM296.531 130.66a3.89 3.89 0 0 1-1.91-.472 3.45 3.45 0 0 1-1.34-1.297 3.658 3.658 0 0 1-.48-1.864c0-.687.16-1.308.48-1.859a3.442 3.442 0 0 1 1.344-1.3 3.928 3.928 0 0 1 1.918-.47c.531 0 1.02.086 1.469.262.449.18.828.438 1.14.778l-.48.48c-.555-.566-1.262-.848-2.11-.848-.566 0-1.078.13-1.539.387a2.811 2.811 0 0 0-1.086 1.063c-.261.449-.394.949-.394 1.507 0 .559.133 1.063.394 1.508.262.45.622.805 1.086 1.063.461.257.973.386 1.54.386.855 0 1.562-.285 2.109-.855l.48.48a3.07 3.07 0 0 1-1.148.778c-.45.18-.942.273-1.473.273Zm8.528-1.969h-3.977l-.86 1.907h-.784l3.265-7.141h.742l3.266 7.14h-.797Zm-.274-.613-1.715-3.836-1.715 3.836Zm7.985 2.52-1.633-2.297c-.184.02-.375.031-.57.031h-1.919v2.266h-.753v-7.141h2.671c.91 0 1.625.219 2.141.652.516.438.773 1.036.773 1.797 0 .559-.14 1.028-.421 1.414-.282.383-.684.66-1.207.828l1.742 2.45Zm-2.223-2.907c.703 0 1.246-.156 1.621-.468.371-.313.559-.754.559-1.317 0-.578-.188-1.023-.559-1.332-.375-.308-.918-.465-1.621-.465h-1.899v3.582Zm4.723-4.234h2.906c.754 0 1.418.152 1.996.453a3.345 3.345 0 0 1 1.348 1.266c.32.543.48 1.16.48 1.851 0 .696-.16 1.309-.48 1.852-.32.539-.77.96-1.348 1.266-.578.3-1.242.453-1.996.453h-2.906Zm2.863 6.488c.625 0 1.172-.125 1.644-.375.47-.246.832-.59 1.09-1.027.258-.438.387-.945.387-1.516 0-.57-.129-1.074-.387-1.515a2.686 2.686 0 0 0-1.09-1.028c-.472-.25-1.02-.375-1.644-.375h-2.11v5.836Zm7.527.715c-.531 0-1.039-.086-1.523-.258-.489-.168-.864-.394-1.13-.672l.298-.582c.257.258.601.47 1.03.63.427.156.868.238 1.325.238.64 0 1.117-.118 1.438-.352.32-.234.48-.539.48-.914 0-.285-.086-.512-.262-.684a1.718 1.718 0 0 0-.636-.39 9.832 9.832 0 0 0-1.051-.301 10.704 10.704 0 0 1-1.285-.395 2.086 2.086 0 0 1-.82-.574c-.227-.258-.34-.61-.34-1.05 0-.36.093-.688.285-.985.191-.297.48-.531.875-.71.394-.177.886-.263 1.469-.263.41 0 .808.055 1.199.168.39.11.73.266 1.015.461l-.254.602a3.568 3.568 0 0 0-.96-.442 3.607 3.607 0 0 0-1-.148c-.625 0-1.098.121-1.41.363-.317.239-.477.551-.477.934 0 .285.086.512.262.687.171.172.39.305.652.399.262.09.613.191 1.055.3.523.13.949.255 1.27.383.323.125.597.313.82.57.226.255.34.598.34 1.036 0 .36-.098.687-.294.984-.195.293-.492.532-.89.703-.403.172-.895.262-1.48.262ZM257.285 186.133c-.41 0-.785-.09-1.133-.266a2.229 2.229 0 0 1-.847-.758l.449-.507c.394.582.906.875 1.539.875.883 0 1.328-.524 1.328-1.57v-4.325h-2.613v-.652h3.355v4.945c0 .75-.175 1.313-.523 1.688-.352.378-.871.57-1.555.57Zm7.219 0c-.926 0-1.645-.266-2.164-.797-.516-.531-.774-1.305-.774-2.316v-4.09h.754v4.058c0 .832.188 1.45.563 1.856.375.41.914.613 1.62.613.716 0 1.259-.203 1.634-.613.375-.406.558-1.024.558-1.856v-4.058h.735v4.09c0 1.011-.254 1.785-.77 2.316-.512.531-1.23.797-2.156.797Zm7.875-7.203c.91 0 1.625.218 2.14.652.516.438.774 1.035.774 1.797s-.258 1.36-.773 1.789c-.516.43-1.23.648-2.141.648h-1.918v2.254h-.754v-7.14Zm-.02 4.222c.704 0 1.246-.152 1.618-.464.375-.31.562-.747.562-1.31 0-.577-.187-1.023-.562-1.331-.372-.309-.914-.465-1.618-.465h-1.898v3.57Zm4.567-4.222h.754v7.14h-.754Zm4.469.652h-2.512v-.652h5.773v.652h-2.508v6.488h-.753Zm9.515 5.836v.652h-5.047v-7.14h4.895v.652h-4.14v2.54h3.69v.644h-3.69v2.652Zm6.649.652-1.633-2.297c-.184.02-.371.032-.57.032h-1.918v2.265h-.754v-7.14h2.671c.91 0 1.625.218 2.145.652.516.438.773 1.035.773 1.797 0 .559-.14 1.027-.421 1.414-.286.383-.688.66-1.211.828l1.746 2.45Zm-2.223-2.906c.707 0 1.25-.156 1.621-.469.375-.312.563-.754.563-1.316 0-.578-.188-1.024-.563-1.332-.375-.309-.914-.465-1.621-.465h-1.899v3.582ZM345.008 37.18h-1.426v1.875h-.734V37.18h-4.028v-.532l3.782-4.734h.816l-3.652 4.61h3.101v-1.649h.715v1.648h1.426Zm3.195 1.937c-.531 0-1.039-.086-1.527-.254-.485-.172-.86-.394-1.125-.675l.297-.583c.257.262.601.47 1.027.63.43.16.871.238 1.328.238.637 0 1.117-.118 1.438-.352.32-.234.48-.539.48-.914 0-.285-.09-.512-.262-.684a1.784 1.784 0 0 0-.636-.39 10.111 10.111 0 0 0-1.051-.301c-.54-.137-.965-.266-1.285-.395a2.086 2.086 0 0 1-.82-.574c-.231-.258-.344-.61-.344-1.05 0-.36.097-.688.285-.985.191-.297.484-.531.879-.707.394-.18.883-.266 1.468-.266.407 0 .81.055 1.2.168.39.11.726.266 1.011.465l-.253.602c-.301-.2-.618-.348-.958-.445a3.65 3.65 0 0 0-1-.149c-.625 0-1.097.121-1.414.363-.316.243-.472.551-.472.934 0 .285.086.516.258.687.175.172.39.305.652.399.266.09.617.191 1.058.3.524.13.946.258 1.27.383.32.126.594.317.82.57.223.255.336.598.336 1.036 0 .36-.097.687-.289.984-.195.297-.492.532-.894.703-.403.176-.895.262-1.477.262ZM353.414 80.672h.754v6.484h4v.656h-4.754Zm6.008 0h.754v7.14h-.754Zm5.75 0c.914 0 1.625.219 2.144.652.516.438.774 1.035.774 1.797s-.258 1.356-.774 1.79c-.52.429-1.23.644-2.144.644h-1.918v2.257h-.754v-7.14Zm-.02 4.223c.707 0 1.25-.157 1.621-.465.375-.309.563-.746.563-1.309 0-.578-.188-1.023-.563-1.332-.375-.309-.914-.465-1.62-.465h-1.9v3.57Zm4.57-4.223h.755v7.14h-.754Zm3.083 0h2.906c.754 0 1.418.152 1.996.453a3.319 3.319 0 0 1 1.348 1.266c.32.539.48 1.156.48 1.851 0 .692-.16 1.309-.48 1.852-.32.539-.77.96-1.348 1.261-.578.305-1.242.457-1.996.457h-2.906Zm2.863 6.484c.625 0 1.172-.12 1.64-.37.473-.247.837-.59 1.094-1.032.258-.438.387-.942.387-1.512 0-.574-.129-1.078-.387-1.515a2.707 2.707 0 0 0-1.093-1.032c-.47-.246-1.016-.37-1.641-.37h-2.11v5.831Zm-23.418-9.219"/><path style="stroke:none;fill-rule:nonzero;fill:#000;fill-opacity:1" d="M48.121 199.563c-.55 0-1.043-.145-1.476-.438-.43-.293-.766-.71-1.008-1.262-.242-.547-.364-1.187-.364-1.93 0-.742.122-1.386.364-1.933.242-.547.578-.969 1.008-1.258a2.578 2.578 0 0 1 1.476-.441c.55 0 1.043.148 1.473.441.43.29.77.711 1.015 1.258.243.547.368 1.191.368 1.934 0 .742-.125 1.382-.368 1.93-.246.55-.586.968-1.015 1.261-.43.293-.922.438-1.473.438Zm0-.672c.414 0 .777-.118 1.094-.348.316-.23.562-.566.738-1.008.18-.445.266-.976.266-1.601s-.086-1.16-.266-1.602c-.176-.441-.422-.777-.738-1.012a1.805 1.805 0 0 0-1.094-.343c-.418 0-.781.113-1.098.343-.316.235-.562.57-.738 1.012-.18.441-.265.977-.265 1.602 0 .625.085 1.156.265 1.601.176.442.422.778.738 1.008.317.23.68.348 1.098.348ZM41.34 164.691c1.035 0 1.785.188 2.258.559.472.371.71.887.71 1.555 0 .414-.097.785-.292 1.113-.192.324-.485.582-.871.77-.387.187-.864.277-1.43.277-.508 0-.992-.082-1.45-.246-.46-.168-.828-.39-1.109-.672l.36-.578c.238.242.55.441.937.594.387.152.805.23 1.254.23.59 0 1.047-.133 1.371-.398.324-.266.484-.618.484-1.06 0-.491-.18-.858-.542-1.112-.368-.25-.98-.375-1.844-.375h-1.52l.367-3.582h3.907v.652h-3.262l-.246 2.273Zm6.742 4.274c-.55 0-1.043-.145-1.473-.438-.433-.293-.77-.71-1.011-1.257-.243-.547-.364-1.192-.364-1.934s.121-1.387.364-1.934c.242-.547.578-.964 1.011-1.257.43-.293.922-.438 1.473-.438.55 0 1.043.145 1.473.438.433.292.77.71 1.015 1.257.246.547.367 1.192.367 1.934s-.12 1.387-.367 1.934c-.246.546-.582.964-1.015 1.257-.43.293-.922.438-1.473.438Zm0-.672a1.8 1.8 0 0 0 1.094-.348c.32-.23.566-.566.742-1.007.176-.442.266-.977.266-1.602 0-.625-.09-1.16-.266-1.602-.18-.441-.422-.777-.742-1.011a1.797 1.797 0 0 0-1.094-.344c-.414 0-.781.117-1.098.344-.316.234-.562.57-.738 1.011-.176.442-.266.977-.266 1.602 0 .625.09 1.16.266 1.601.176.442.422.778.738 1.008.317.23.684.348 1.098.348ZM36.75 131.168v7.14h-.734v-6.484h-1.684v-.656Zm4.547 7.203c-.55 0-1.04-.148-1.473-.441-.43-.29-.765-.711-1.008-1.258-.242-.547-.363-1.192-.363-1.934s.121-1.383.363-1.933c.243-.547.579-.965 1.008-1.258a2.562 2.562 0 0 1 1.473-.438c.555 0 1.043.145 1.476.438.43.293.77.71 1.016 1.258.242.55.367 1.191.367 1.933s-.125 1.387-.367 1.934c-.246.547-.586.969-1.016 1.258a2.569 2.569 0 0 1-1.476.441Zm0-.676c.418 0 .781-.113 1.098-.347.316-.23.562-.567.738-1.008.18-.442.265-.977.265-1.602 0-.625-.086-1.16-.265-1.601-.176-.442-.422-.778-.738-1.008a1.786 1.786 0 0 0-1.098-.348c-.414 0-.777.117-1.094.348-.316.23-.562.566-.738 1.008-.18.445-.266.976-.266 1.601s.086 1.16.266 1.602c.176.441.422.777.738 1.008.317.234.68.347 1.094.347Zm6.754.676c-.551 0-1.043-.148-1.473-.441-.433-.29-.77-.711-1.012-1.258s-.363-1.192-.363-1.934.121-1.383.363-1.933c.243-.547.579-.965 1.012-1.258.43-.293.922-.438 1.473-.438.55 0 1.043.145 1.472.438.434.293.77.71 1.016 1.258.246.55.367 1.191.367 1.933s-.12 1.387-.367 1.934c-.246.547-.582.969-1.016 1.258-.43.293-.921.441-1.472.441Zm0-.676c.414 0 .781-.113 1.094-.347.32-.23.566-.567.742-1.008.175-.442.265-.977.265-1.602 0-.625-.09-1.16-.265-1.601-.18-.442-.422-.778-.742-1.008a1.775 1.775 0 0 0-1.094-.348 1.82 1.82 0 0 0-1.098.348c-.316.23-.562.566-.738 1.008-.176.445-.266.976-.266 1.601s.09 1.16.266 1.602c.176.441.422.777.738 1.008.317.234.684.347 1.098.347ZM37.738 100.82v7.14h-.734v-6.487H35.32v-.653Zm3.578 2.926c1.036 0 1.79.188 2.262.559.473.37.707.886.707 1.554 0 .414-.097.786-.289 1.114a1.995 1.995 0 0 1-.875.77c-.387.187-.863.277-1.426.277-.511 0-.996-.082-1.453-.247-.46-.168-.828-.39-1.105-.671l.355-.579c.238.243.551.442.938.594.386.153.804.23 1.254.23.593 0 1.05-.132 1.375-.398.32-.265.48-.617.48-1.058 0-.493-.18-.86-.543-1.114-.363-.25-.976-.375-1.84-.375h-1.523L40 100.82h3.906v.653h-3.261l-.247 2.273Zm6.743 4.274c-.551 0-1.043-.145-1.473-.438-.434-.293-.77-.71-1.012-1.258-.238-.547-.36-1.191-.36-1.933 0-.743.122-1.387.36-1.934.242-.547.578-.965 1.012-1.258.43-.293.922-.437 1.473-.437.55 0 1.043.144 1.476.437.43.293.77.711 1.012 1.258.246.547.367 1.191.367 1.934 0 .742-.121 1.386-.367 1.933-.242.547-.582.965-1.012 1.258a2.575 2.575 0 0 1-1.476.438Zm0-.672a1.82 1.82 0 0 0 1.097-.348c.317-.23.563-.566.739-1.008.175-.441.265-.976.265-1.601s-.09-1.16-.265-1.602c-.176-.441-.422-.777-.739-1.012a1.817 1.817 0 0 0-1.097-.343c-.414 0-.782.117-1.094.343-.317.235-.563.57-.742 1.012-.176.441-.266.977-.266 1.602 0 .625.09 1.16.266 1.601.18.442.422.778.742 1.008a1.8 1.8 0 0 0 1.094.348ZM37.527 76.71v.653H32.52v-.52l2.968-2.906c.375-.367.625-.687.758-.953.133-.27.2-.539.2-.812 0-.422-.145-.75-.434-.984-.29-.235-.7-.352-1.239-.352-.836 0-1.484.266-1.949.797l-.52-.45a2.716 2.716 0 0 1 1.067-.753c.434-.18.918-.266 1.465-.266.727 0 1.305.172 1.727.516.425.34.636.812.636 1.41 0 .367-.078.722-.242 1.062-.164.34-.473.73-.93 1.172l-2.425 2.387Zm3.723.716c-.55 0-1.043-.149-1.473-.442-.433-.289-.77-.71-1.011-1.257-.239-.547-.36-1.192-.36-1.934s.121-1.383.36-1.934c.242-.546.578-.964 1.011-1.257.43-.293.922-.438 1.473-.438.55 0 1.043.145 1.473.438.433.293.77.71 1.015 1.257.246.551.367 1.192.367 1.934s-.12 1.387-.367 1.934c-.246.546-.582.968-1.015 1.257-.43.293-.922.442-1.473.442Zm0-.676c.414 0 .781-.113 1.098-.348.316-.23.562-.566.738-1.007.176-.442.266-.977.266-1.602 0-.625-.09-1.16-.266-1.602-.176-.441-.422-.777-.738-1.007a1.794 1.794 0 0 0-1.098-.348 1.82 1.82 0 0 0-1.098.348c-.312.23-.562.566-.738 1.007-.176.446-.266.977-.266 1.602 0 .625.09 1.16.266 1.602.176.44.422.777.738 1.007.317.235.684.348 1.098.348Zm6.75.676c-.55 0-1.04-.149-1.473-.442-.43-.289-.77-.71-1.007-1.257-.243-.547-.364-1.192-.364-1.934s.121-1.383.364-1.934c.238-.546.578-.964 1.007-1.257A2.562 2.562 0 0 1 48 70.164c.55 0 1.043.145 1.477.438.43.293.77.71 1.011 1.257.246.551.367 1.192.367 1.934s-.12 1.387-.367 1.934c-.242.546-.582.968-1.011 1.257a2.578 2.578 0 0 1-1.477.442Zm0-.676c.418 0 .781-.113 1.098-.348.316-.23.562-.566.738-1.007.18-.442.266-.977.266-1.602 0-.625-.086-1.16-.266-1.602-.176-.441-.422-.777-.738-1.007A1.786 1.786 0 0 0 48 70.836c-.414 0-.777.117-1.094.348-.316.23-.562.566-.742 1.007-.176.446-.262.977-.262 1.602 0 .625.086 1.16.262 1.602.18.44.426.777.742 1.007.317.235.68.348 1.094.348ZM38.512 46.113v.653h-5.008v-.52l2.969-2.906c.375-.367.629-.688.761-.953.13-.27.196-.54.196-.813 0-.422-.14-.75-.434-.984-.285-.235-.7-.352-1.238-.352-.836 0-1.485.266-1.95.797l-.519-.45a2.745 2.745 0 0 1 1.066-.753c.434-.18.922-.266 1.465-.266.727 0 1.305.172 1.727.516.426.344.64.813.64 1.41 0 .367-.082.723-.246 1.063-.164.34-.472.73-.93 1.172l-2.425 2.386Zm2.797-3.558c1.03 0 1.785.183 2.257.554.473.371.707.891.707 1.555 0 .418-.093.785-.289 1.113a2.006 2.006 0 0 1-.87.77c-.387.187-.864.281-1.43.281-.508 0-.993-.086-1.454-.25-.457-.168-.828-.39-1.105-.668l.355-.582a2.6 2.6 0 0 0 .942.598 3.39 3.39 0 0 0 1.254.226c.59 0 1.047-.129 1.37-.394.321-.266.485-.621.485-1.063 0-.488-.183-.86-.547-1.113-.363-.25-.976-.375-1.84-.375h-1.519l.367-3.578h3.906v.652h-3.265l-.242 2.274Zm6.738 4.273c-.55 0-1.04-.148-1.473-.437-.433-.293-.77-.715-1.011-1.262-.239-.547-.36-1.191-.36-1.934 0-.738.121-1.383.36-1.933.242-.547.578-.965 1.011-1.258a2.562 2.562 0 0 1 1.473-.438c.55 0 1.043.145 1.476.438.43.293.77.71 1.012 1.258.246.55.367 1.195.367 1.933 0 .742-.12 1.387-.367 1.934-.242.547-.582.969-1.012 1.262-.433.289-.925.437-1.476.437Zm0-.676c.414 0 .781-.113 1.098-.343.316-.235.562-.57.738-1.012.176-.442.265-.977.265-1.602 0-.625-.09-1.16-.265-1.597-.176-.446-.422-.782-.738-1.012a1.82 1.82 0 0 0-1.098-.348c-.414 0-.777.117-1.094.348-.316.23-.562.566-.742 1.012-.176.441-.266.972-.266 1.597s.09 1.16.266 1.602c.18.441.426.777.742 1.012.317.23.68.343 1.094.343ZM35.121 12.34c.746.039 1.316.242 1.707.605.39.364.586.84.586 1.422 0 .41-.098.77-.297 1.086-.195.317-.488.567-.875.75-.39.184-.86.277-1.418.277a4.338 4.338 0 0 1-1.465-.25c-.457-.168-.828-.39-1.105-.668l.355-.582c.239.247.555.446.95.598.394.152.816.227 1.265.227.582 0 1.035-.125 1.356-.38.32-.257.48-.609.48-1.058 0-.441-.16-.789-.48-1.039-.32-.25-.801-.379-1.45-.379h-.507v-.539l1.976-2.476h-3.648v-.657h4.59v.52Zm6.168 4.14c-.55 0-1.039-.148-1.473-.44-.433-.29-.77-.712-1.011-1.259-.239-.547-.36-1.191-.36-1.933 0-.739.121-1.383.36-1.934.242-.547.578-.965 1.011-1.258a2.562 2.562 0 0 1 1.473-.437c.55 0 1.043.144 1.477.437.43.293.77.711 1.011 1.258.246.55.368 1.195.368 1.934 0 .742-.122 1.386-.368 1.933-.242.547-.582.969-1.011 1.258a2.578 2.578 0 0 1-1.477.441Zm0-.675c.414 0 .781-.114 1.098-.348.316-.23.562-.566.738-1.008.176-.441.266-.976.266-1.601s-.09-1.16-.266-1.602c-.176-.441-.422-.777-.738-1.008a1.794 1.794 0 0 0-1.098-.347 1.8 1.8 0 0 0-1.094.347c-.316.23-.562.567-.742 1.008-.176.445-.266.977-.266 1.602 0 .625.09 1.16.266 1.601.18.442.426.778.742 1.008.313.234.68.348 1.094.348Zm6.754.675c-.55 0-1.043-.148-1.477-.44-.43-.29-.765-.712-1.007-1.259-.243-.547-.364-1.191-.364-1.933 0-.739.121-1.383.364-1.934.242-.547.578-.965 1.007-1.258a2.575 2.575 0 0 1 1.477-.437c.55 0 1.039.144 1.473.437.43.293.77.711 1.015 1.258.242.55.367 1.195.367 1.934 0 .742-.125 1.386-.367 1.933-.246.547-.586.969-1.015 1.258a2.565 2.565 0 0 1-1.473.441Zm0-.675c.414 0 .777-.114 1.094-.348.316-.23.562-.566.738-1.008.18-.441.266-.976.266-1.601s-.086-1.16-.266-1.602c-.176-.441-.422-.777-.738-1.008a1.783 1.783 0 0 0-1.094-.347c-.418 0-.781.117-1.098.347-.316.23-.562.567-.738 1.008-.18.445-.266.977-.266 1.602 0 .625.086 1.16.266 1.601.176.442.422.778.738 1.008.317.234.68.348 1.098.348ZM61.078 212.996c-.55 0-1.043-.144-1.473-.437-.433-.293-.77-.711-1.011-1.262-.242-.547-.364-1.192-.364-1.93 0-.742.122-1.387.364-1.933.242-.547.578-.97 1.011-1.262.43-.293.922-.438 1.473-.438.55 0 1.043.145 1.473.438.433.293.77.715 1.015 1.262.246.546.368 1.191.368 1.933 0 .738-.121 1.383-.368 1.93-.246.55-.582.969-1.015 1.262-.43.293-.922.437-1.473.437Zm0-.672a1.8 1.8 0 0 0 1.094-.347c.316-.23.566-.567.742-1.012.176-.442.266-.973.266-1.598 0-.625-.09-1.16-.266-1.601-.18-.442-.426-.782-.742-1.012a1.797 1.797 0 0 0-1.094-.344c-.414 0-.781.113-1.098.344-.316.23-.562.57-.738 1.012-.176.441-.265.976-.265 1.601s.09 1.156.265 1.598c.176.445.422.781.738 1.012.317.23.684.347 1.098.347ZM155.875 212.281v.653h-5.012v-.52l2.969-2.906c.375-.367.629-.684.762-.953.133-.27.199-.54.199-.809 0-.422-.145-.75-.434-.984-.289-.239-.703-.352-1.238-.352-.84 0-1.488.262-1.95.793l-.519-.45a2.727 2.727 0 0 1 1.067-.753c.43-.176.918-.266 1.46-.266.731 0 1.305.172 1.731.516.422.344.637.813.637 1.414 0 .367-.082.719-.246 1.059-.164.34-.473.73-.926 1.172l-2.43 2.386ZM248.871 211.059h-1.43v1.875h-.734v-1.875h-4.027v-.532l3.785-4.73h.816l-3.652 4.61h3.098v-1.653h.714v1.652h1.43ZM338.313 208.66c.468 0 .882.09 1.246.266.367.18.648.43.855.75.203.324.305.699.305 1.129 0 .433-.106.82-.317 1.152-.21.332-.5.59-.87.77-.372.18-.79.27-1.25.27-.946 0-1.673-.31-2.173-.935-.504-.62-.754-1.5-.754-2.636 0-.793.133-1.469.407-2.02.273-.55.652-.965 1.14-1.25.493-.281 1.063-.422 1.715-.422.707 0 1.274.13 1.695.387l-.296.594c-.34-.227-.805-.336-1.387-.336-.79 0-1.41.25-1.856.75-.449.496-.675 1.223-.675 2.176 0 .168.011.363.03.582.177-.387.462-.692.849-.903a2.706 2.706 0 0 1 1.336-.324Zm-.063 3.715c.516 0 .938-.14 1.262-.426.32-.281.48-.656.48-1.125s-.16-.844-.48-1.12c-.325-.282-.762-.419-1.313-.419-.36 0-.68.067-.953.203a1.602 1.602 0 0 0-.648.563 1.41 1.41 0 0 0-.235.793c0 .273.075.523.219.754.148.234.363.418.648.562.286.145.625.215 1.02.215ZM25.055 180.094h.734v5.668h-8.012v-5.492h.735v4.644h2.847v-4.144h.723v4.144h2.973Zm.734-5.48-2.52 1.913 2.52 1.922v.914l-3.09-2.379-2.93 2.266v-.918l2.36-1.805-2.36-1.808v-.895l2.93 2.266 3.09-2.403Zm-.367-5.446c.137.152.242.344.316.566.07.227.11.461.11.703 0 .567-.157 1-.461 1.305-.305.305-.735.457-1.293.457h-3.637v1.078h-.687V172.2h-1.317v-.812h1.317v-1.828h.687v1.828h3.594c.355 0 .629-.09.816-.27.188-.176.281-.433.281-.77 0-.167-.027-.331-.082-.488a1.177 1.177 0 0 0-.226-.406Zm-4.473-2.254a1.985 1.985 0 0 1-.918-.851c-.203-.38-.308-.844-.308-1.403h.789l-.012.195c0 .633.195 1.13.586 1.489.387.355.934.535 1.637.535h3.066v.812h-6.02v-.777Zm-1.226-5.812c0-.786.199-1.387.59-1.809.394-.418.976-.629 1.746-.629h3.73v.777h-.937c.312.184.554.454.73.809.176.352.266.773.266 1.262 0 .672-.16 1.207-.485 1.601-.32.399-.742.598-1.27.598-.511 0-.921-.188-1.234-.555-.312-.37-.468-.96-.468-1.77v-1.91h-.368c-.52 0-.914.145-1.183.434-.27.29-.406.715-.406 1.27 0 .382.062.75.187 1.101.129.348.3.653.524.903l-.61.367a3.265 3.265 0 0 1-.598-1.098 4.204 4.204 0 0 1-.214-1.351Zm5.48.285c0-.457-.101-.852-.312-1.18a1.873 1.873 0 0 0-.91-.73h-.985v1.886c0 1.032.36 1.547 1.078 1.547a.982.982 0 0 0 .828-.402c.203-.266.301-.64.301-1.121Zm-7.906-13.422h8.492v.777h-1.191c.406.246.715.567.925.969.215.398.325.851.325 1.355 0 .563-.133 1.075-.391 1.532-.262.46-.621.816-1.086 1.078-.465.258-.996.387-1.594.387-.593 0-1.125-.13-1.59-.387a2.761 2.761 0 0 1-1.082-1.078 3.104 3.104 0 0 1-.382-1.532c0-.488.101-.93.304-1.32.203-.394.496-.719.887-.969h-3.617Zm7.828 3.031a2.24 2.24 0 0 0-.293-1.137 2.021 2.021 0 0 0-.828-.8 2.52 2.52 0 0 0-1.227-.293c-.457 0-.863.097-1.222.293-.36.191-.637.46-.828.8a2.24 2.24 0 0 0-.293 1.137c0 .43.097.813.293 1.152.191.34.468.606.828.801.36.192.765.29 1.222.29.461 0 .868-.098 1.227-.29.36-.195.637-.46.828-.8.195-.34.293-.723.293-1.153Zm-5.402-7.402c0-.785.199-1.387.59-1.809.394-.418.976-.629 1.746-.629h3.73v.778h-.937c.312.183.554.453.73.808.176.356.266.778.266 1.262 0 .672-.16 1.207-.485 1.605-.32.395-.742.594-1.27.594-.511 0-.921-.183-1.234-.555-.312-.37-.468-.96-.468-1.77v-1.91h-.368c-.52 0-.914.145-1.183.434-.27.293-.406.715-.406 1.274 0 .379.062.746.187 1.097.129.348.3.653.524.903l-.61.367a3.265 3.265 0 0 1-.598-1.098 4.204 4.204 0 0 1-.214-1.351Zm5.48.285c0-.457-.101-.852-.312-1.176a1.88 1.88 0 0 0-.91-.734h-.985v1.886c0 1.032.36 1.547 1.078 1.547a.982.982 0 0 0 .828-.402c.203-.266.301-.64.301-1.121Zm-5.433-9.875 6.738 3.012c.566.242.965.523 1.203.847.238.32.355.703.355 1.153 0 .289-.046.562-.136.812-.094.254-.23.469-.414.652l-.606-.375c.305-.304.457-.671.457-1.101 0-.274-.074-.508-.226-.703-.153-.196-.414-.375-.782-.543l-.582-.262-6.007 2.688v-.848l5.117-2.266-5.117-2.265Zm6.078-2.688c0 .489-.075.954-.215 1.403-.14.445-.317.793-.531 1.047l-.641-.368c.2-.25.36-.57.484-.949.13-.383.192-.777.192-1.191 0-.547-.086-.953-.258-1.219a.823.823 0 0 0-.727-.394.65.65 0 0 0-.52.218 1.427 1.427 0 0 0-.284.547 7.797 7.797 0 0 0-.192.883c-.09.488-.183.883-.281 1.18-.094.297-.258.55-.484.757-.23.211-.547.317-.95.317-.503 0-.918-.211-1.238-.629-.32-.422-.48-1.004-.48-1.75 0-.39.054-.777.156-1.168.101-.39.238-.71.406-.96l.652.355c-.343.496-.515 1.085-.515 1.773 0 .52.09.91.273 1.172.184.265.426.394.723.394.227 0 .41-.074.55-.222.137-.149.235-.332.302-.555.066-.223.132-.527.199-.914.093-.484.183-.867.277-1.156.09-.29.246-.54.469-.746.219-.207.523-.309.914-.309.527 0 .945.219 1.254.66.308.438.465 1.047.465 1.824Zm0-9.441c0 .582-.133 1.102-.395 1.566a2.904 2.904 0 0 1-1.094 1.102 3.131 3.131 0 0 1-1.582.398 3.127 3.127 0 0 1-1.578-.398 2.83 2.83 0 0 1-1.086-1.102 3.129 3.129 0 0 1-.39-1.566c0-.578.129-1.102.39-1.566a2.785 2.785 0 0 1 1.086-1.094c.465-.266.992-.395 1.578-.395.59 0 1.118.133 1.582.395.465.262.828.629 1.094 1.094.262.464.395.988.395 1.566Zm-.723 0c0-.426-.098-.809-.293-1.148a2.012 2.012 0 0 0-.828-.797 2.56 2.56 0 0 0-1.227-.285c-.457 0-.863.093-1.222.285-.36.191-.637.457-.828.797-.196.34-.293.722-.293 1.148 0 .426.097.809.293 1.152.191.336.468.606.828.801.36.192.765.29 1.222.29.461 0 .868-.098 1.227-.29a2.07 2.07 0 0 0 .828-.8c.195-.34.293-.727.293-1.153Zm-7.2-6.707c0 .352.098.617.29.797.187.18.473.27.844.27h.71v-1.856h.688v1.832h5.332v.812h-5.332v1.075h-.687v-1.075h-.743c-.55 0-.984-.16-1.304-.476-.32-.317-.48-.762-.48-1.344 0-.226.03-.45.093-.664.066-.215.16-.39.281-.535l.61.273c-.2.235-.301.535-.301.891Zm-.628-4.883v-.812h8.492v.812Zm2.473-3.078v-.812h6.02v.812Zm-1.317-.414a.574.574 0 0 1-.172.426.563.563 0 0 1-.813 0 .59.59 0 0 1-.171-.426c0-.168.055-.309.168-.422a.574.574 0 0 1 .816 0 .566.566 0 0 1 .172.422Zm-.527-4.656c0 .351.097.617.289.797.187.18.473.265.844.265h.71v-1.851h.688v1.832h5.332v.812h-5.332v1.074h-.687v-1.074h-.743c-.55 0-.984-.16-1.304-.476-.32-.317-.48-.766-.48-1.344 0-.23.03-.45.093-.664.066-.215.16-.395.281-.54l.61.278c-.2.234-.301.531-.301.89Zm5.105-7.024v5.032c.625-.043 1.13-.286 1.516-.72.387-.433.578-.984.578-1.648 0-.375-.066-.715-.2-1.03a2.278 2.278 0 0 0-.59-.813l.528-.457c.32.27.563.601.73 1.003.169.399.255.84.255 1.32 0 .618-.133 1.165-.395 1.641a2.891 2.891 0 0 1-1.094 1.118 3.131 3.131 0 0 1-1.582.398c-.586 0-1.113-.125-1.578-.383a2.756 2.756 0 0 1-1.086-1.05c-.261-.45-.39-.95-.39-1.504 0-.56.129-1.06.39-1.5a2.78 2.78 0 0 1 1.082-1.043c.461-.25.989-.375 1.582-.375Zm-2.61 2.907c0 .578.184 1.062.556 1.457.37.394.851.617 1.449.668v-4.266c-.598.05-1.078.273-1.45.668-.37.394-.554.883-.554 1.473Zm-2.495-9.567c0 .348.097.613.289.793.187.18.473.27.844.27h.71v-1.852h.688v1.828h5.332v.813h-5.332v1.078h-.687v-1.078h-.743c-.55 0-.984-.157-1.304-.473-.32-.32-.48-.766-.48-1.348 0-.226.03-.449.093-.664.066-.21.16-.39.281-.535l.61.274c-.2.238-.301.535-.301.894Zm3.023-3.582a1.974 1.974 0 0 1-.918-.855c-.203-.375-.308-.844-.308-1.399h.789l-.012.195c0 .63.195 1.13.586 1.485.387.36.934.539 1.637.539h3.066v.812h-6.02v-.777Zm4.899-6.125c0 .582-.133 1.106-.395 1.57a2.921 2.921 0 0 1-1.094 1.098 3.131 3.131 0 0 1-1.582.398 3.127 3.127 0 0 1-1.578-.398 2.846 2.846 0 0 1-1.086-1.098 3.143 3.143 0 0 1-.39-1.57c0-.578.129-1.101.39-1.566a2.81 2.81 0 0 1 1.086-1.094 3.165 3.165 0 0 1 1.578-.395c.59 0 1.118.133 1.582.395.465.266.828.629 1.094 1.094.262.465.395.988.395 1.566Zm-.723 0c0-.426-.098-.808-.293-1.148a2.012 2.012 0 0 0-.828-.797 2.56 2.56 0 0 0-1.227-.285c-.457 0-.863.093-1.222.285-.36.191-.637.457-.828.797-.196.34-.293.722-.293 1.148 0 .43.097.813.293 1.152.191.34.468.606.828.801.36.192.765.29 1.222.29.461 0 .868-.098 1.227-.29.36-.195.637-.46.828-.8.195-.34.293-.723.293-1.153Zm-5.402-12.219c0-.754.218-1.347.652-1.78.434-.43 1.078-.645 1.922-.645h3.492v.812h-3.41c-.625 0-1.102.148-1.43.453-.328.301-.492.727-.492 1.274 0 .625.191 1.117.578 1.476.383.36.918.54 1.594.54h3.16v.812h-3.41c-.625 0-1.102.148-1.43.453-.328.3-.492.726-.492 1.285 0 .617.191 1.11.578 1.469.383.363.918.547 1.594.547h3.16v.808h-6.02v-.777h1.098a2.133 2.133 0 0 1-.844-.89c-.199-.384-.3-.821-.3-1.317 0-.504.109-.942.32-1.313.215-.367.531-.644.953-.828a2.312 2.312 0 0 1-.933-.953 2.936 2.936 0 0 1-.34-1.426Zm6.125-9.246c0 .489-.075.957-.215 1.403-.14.445-.317.796-.531 1.046l-.641-.367c.2-.25.36-.566.484-.949.13-.383.192-.777.192-1.187 0-.551-.086-.957-.258-1.22a.818.818 0 0 0-.727-.398.65.65 0 0 0-.52.22 1.416 1.416 0 0 0-.284.55 7.515 7.515 0 0 0-.192.879c-.09.488-.183.883-.281 1.18-.094.296-.258.55-.484.761-.23.207-.547.313-.95.313-.503 0-.918-.207-1.238-.63-.32-.417-.48-1.003-.48-1.75 0-.39.054-.777.156-1.167a3.22 3.22 0 0 1 .406-.961l.652.355c-.343.496-.515 1.086-.515 1.774 0 .52.09.91.273 1.172.184.265.426.394.723.394.227 0 .41-.074.55-.222.137-.149.235-.332.302-.555.066-.223.132-.524.199-.914.093-.48.183-.867.277-1.156.09-.29.246-.54.469-.747.219-.203.523-.308.914-.308.527 0 .945.223 1.254.66.308.438.465 1.047.465 1.824Zm-.426-7.152c.137.152.242.344.316.566.07.227.11.461.11.703 0 .567-.157 1-.461 1.305-.305.305-.735.457-1.293.457h-3.637v1.078h-.687V53.16h-1.317v-.812h1.317V50.52h.687v1.828h3.594c.355 0 .629-.086.816-.266.188-.18.281-.437.281-.773 0-.168-.027-.332-.082-.489a1.214 1.214 0 0 0-.226-.406Zm-5.7-3.582c0-.785.2-1.387.59-1.809.395-.418.977-.629 1.747-.629h3.73v.782h-.937c.312.18.554.449.73.804.176.356.266.778.266 1.266 0 .672-.16 1.203-.485 1.602-.32.394-.742.593-1.27.593-.511 0-.921-.183-1.234-.554-.312-.372-.468-.957-.468-1.766v-1.914h-.368c-.52 0-.914.144-1.183.437-.27.29-.406.711-.406 1.27 0 .379.062.746.187 1.098.129.351.3.652.524.906l-.61.363a3.265 3.265 0 0 1-.598-1.098 4.204 4.204 0 0 1-.214-1.351Zm5.481.289c0-.461-.101-.852-.312-1.18a1.88 1.88 0 0 0-.91-.734h-.985v1.89c0 1.028.36 1.543 1.078 1.543a.989.989 0 0 0 .828-.398c.203-.27.301-.645.301-1.121Zm.219-8.106c.137.153.242.344.316.567.07.226.11.46.11.707 0 .562-.157 1-.461 1.305-.305.304-.735.457-1.293.457h-3.637v1.074h-.687v-1.074h-1.317v-.813h1.317v-1.832h.687v1.832h3.594c.355 0 .629-.09.816-.27.188-.18.281-.437.281-.773a1.45 1.45 0 0 0-.082-.484 1.177 1.177 0 0 0-.226-.406Zm-5.652-1.472v-.813h6.02v.813Zm-1.317-.414a.574.574 0 0 1-.172.426.563.563 0 0 1-.813 0 .59.59 0 0 1-.171-.426c0-.168.055-.309.168-.422a.574.574 0 0 1 .816 0 .56.56 0 0 1 .172.422Zm1.27-5.73c0-.759.218-1.356.66-1.805.437-.446 1.078-.668 1.914-.668h3.492v.812h-3.41c-.625 0-1.102.156-1.43.469-.328.312-.492.758-.492 1.34 0 .648.191 1.16.578 1.539.383.379.918.566 1.594.566h3.16v.813h-6.02v-.782h1.11a2.248 2.248 0 0 1-.852-.918c-.203-.394-.304-.847-.304-1.367Zm6.125-6.298c0 .489-.075.957-.215 1.403-.14.445-.317.797-.531 1.047l-.641-.364c.2-.254.36-.57.484-.949.13-.383.192-.781.192-1.191 0-.551-.086-.957-.258-1.219a.814.814 0 0 0-.727-.395c-.222 0-.394.07-.52.215a1.416 1.416 0 0 0-.284.551 7.797 7.797 0 0 0-.192.883c-.09.488-.183.879-.281 1.176-.094.297-.258.55-.484.761-.23.211-.547.317-.95.317-.503 0-.918-.211-1.238-.633-.32-.418-.48-1-.48-1.75 0-.387.054-.777.156-1.164.101-.39.238-.711.406-.965l.652.356c-.343.496-.515 1.09-.515 1.773 0 .52.09.91.273 1.176.184.261.426.394.723.394.227 0 .41-.074.55-.226.137-.149.235-.332.302-.555.066-.219.132-.523.199-.914.093-.48.183-.867.277-1.156.09-.29.246-.535.469-.742.219-.207.523-.31.914-.31.527 0 .945.22 1.254.657.308.442.465 1.047.465 1.824ZM158.55 221.84h.848v7.277h4.485v.735h-5.332Zm11.72 5.254h-5.036c.047.625.286 1.129.72 1.515.437.387.983.578 1.648.578a2.61 2.61 0 0 0 1.03-.199c.313-.133.583-.332.813-.59l.457.524c-.27.324-.601.566-1 .734-.402.168-.843.25-1.324.25-.617 0-1.164-.129-1.64-.394a2.855 2.855 0 0 1-1.118-1.09 3.142 3.142 0 0 1-.398-1.582c0-.586.125-1.113.383-1.578a2.74 2.74 0 0 1 1.054-1.086c.446-.262.946-.39 1.504-.39a2.88 2.88 0 0 1 1.496.39c.446.258.79.62 1.043 1.082.25.46.38.988.38 1.582Zm-2.907-2.61c-.582 0-1.066.184-1.46.555-.395.371-.614.852-.669 1.45h4.266c-.05-.598-.273-1.079-.668-1.45-.394-.371-.883-.555-1.469-.555Zm7.64-.699c.759 0 1.356.219 1.806.66.445.438.668 1.078.668 1.914v3.493h-.813v-3.41c0-.626-.156-1.102-.469-1.43-.312-.328-.757-.492-1.34-.492-.648 0-1.16.19-1.539.578-.379.382-.566.914-.566 1.593v3.16h-.813v-6.019h.778v1.11c.222-.368.531-.649.922-.852.394-.203.847-.305 1.367-.305Zm10.278.047v5.285c0 1.024-.25 1.781-.75 2.274-.5.492-1.254.738-2.258.738a5.049 5.049 0 0 1-1.585-.246c-.5-.164-.907-.39-1.22-.68l.41-.621c.29.262.645.465 1.06.61a3.97 3.97 0 0 0 1.312.214c.762 0 1.32-.176 1.68-.531.36-.355.539-.906.539-1.652v-.77a2.43 2.43 0 0 1-.992.871c-.407.2-.86.297-1.356.297a3.235 3.235 0 0 1-1.539-.371 2.71 2.71 0 0 1-1.086-1.043 2.933 2.933 0 0 1-.394-1.516c0-.562.132-1.066.394-1.507a2.722 2.722 0 0 1 1.082-1.032 3.205 3.205 0 0 1 1.543-.367c.512 0 .973.106 1.387.309.41.207.742.504.996.894v-1.156Zm-3.078 5.07a2.47 2.47 0 0 0 1.18-.28c.347-.188.62-.45.816-.786.196-.336.293-.715.293-1.145a2.2 2.2 0 0 0-.293-1.136 2.049 2.049 0 0 0-.812-.778 2.453 2.453 0 0 0-1.184-.28c-.433 0-.828.089-1.172.273a1.973 1.973 0 0 0-.812.777 2.238 2.238 0 0 0-.293 1.144c0 .43.097.809.293 1.145.191.336.465.598.812.785.344.188.739.281 1.172.281Zm8.524.582a1.56 1.56 0 0 1-.567.317 2.34 2.34 0 0 1-.703.105c-.562 0-1-.152-1.305-.457-.304-.304-.457-.734-.457-1.293v-3.636h-1.078v-.688h1.078v-1.316h.813v1.316h1.828v.688h-1.828v3.593c0 .356.09.63.27.817.175.187.433.28.769.28.168 0 .332-.026.488-.081.156-.05.293-.129.406-.227Zm4.543-5.699c.757 0 1.355.219 1.804.66.446.438.668 1.078.668 1.914v3.493h-.812v-3.41c0-.626-.157-1.102-.47-1.43-.312-.328-.757-.492-1.339-.492-.648 0-1.16.19-1.539.578-.375.382-.566.914-.566 1.593v3.16h-.813v-8.492h.813v3.524c.222-.348.527-.621.918-.813a3.039 3.039 0 0 1 1.336-.285Zm10.14 6.121c-.582 0-1.105-.129-1.57-.394a2.857 2.857 0 0 1-1.098-1.09 3.142 3.142 0 0 1-.398-1.582c0-.586.133-1.113.398-1.578a2.82 2.82 0 0 1 1.098-1.086c.465-.262.988-.39 1.57-.39a3.14 3.14 0 0 1 1.567.39 2.81 2.81 0 0 1 1.093 1.086c.262.465.395.992.395 1.578a3.18 3.18 0 0 1-.395 1.582 2.847 2.847 0 0 1-1.093 1.09 3.101 3.101 0 0 1-1.567.394Zm0-.719c.426 0 .809-.097 1.149-.292.34-.192.605-.47.796-.829.188-.359.286-.765.286-1.226 0-.457-.098-.863-.286-1.223a2.012 2.012 0 0 0-.796-.828 2.263 2.263 0 0 0-1.149-.293c-.43 0-.812.098-1.152.293-.34.191-.606.469-.801.828-.195.36-.289.766-.289 1.223 0 .46.094.867.289 1.226.195.36.461.637.8.829.34.195.723.292 1.153.292Zm6.703-7.199c-.351 0-.617.098-.797.285-.175.192-.265.477-.265.848v.711h1.851v.688h-1.832v5.332h-.812v-5.332h-1.074v-.688h1.074v-.746c0-.547.16-.98.476-1.3.317-.321.766-.485 1.344-.485.23 0 .453.035.664.097.215.067.395.16.54.282l-.278.605c-.234-.195-.531-.297-.89-.297Zm6.5 7.918c-.488 0-.957-.07-1.402-.21-.445-.141-.793-.317-1.047-.532l.367-.64c.25.199.567.359.95.484.382.129.777.191 1.19.191.548 0 .954-.086 1.22-.258a.823.823 0 0 0 .394-.726.65.65 0 0 0-.219-.52 1.432 1.432 0 0 0-.546-.289 8.923 8.923 0 0 0-.883-.187 9.318 9.318 0 0 1-1.18-.281 1.747 1.747 0 0 1-.762-.485c-.207-.23-.312-.547-.312-.95 0-.503.21-.917.629-1.237.422-.32 1.004-.48 1.75-.48.39 0 .777.05 1.168.155.39.102.71.239.96.407l-.355.652c-.496-.344-1.086-.516-1.773-.516-.52 0-.91.09-1.172.274-.266.183-.395.426-.395.722 0 .227.075.41.223.547.148.141.332.239.555.305.222.066.527.133.914.2.484.093.867.183 1.156.277.289.09.539.246.746.468.203.22.309.524.309.914 0 .528-.22.946-.66 1.254-.438.309-1.047.461-1.825.461Zm7.153-.422a1.594 1.594 0 0 1-.567.317c-.226.07-.46.105-.703.105-.566 0-1-.152-1.305-.457-.304-.304-.46-.734-.46-1.293v-3.636h-1.075v-.688h1.074v-1.316h.813v1.316h1.832v.688h-1.832v3.593c0 .356.09.63.27.817.18.187.437.28.773.28.168 0 .328-.026.484-.081.16-.05.293-.129.407-.227Zm6.898-5.652v6.02h-.777v-1.098a2.257 2.257 0 0 1-.883.851c-.371.204-.8.301-1.281.301-.786 0-1.403-.219-1.86-.656-.453-.438-.68-1.082-.68-1.926v-3.492h.813v3.41c0 .633.156 1.113.469 1.442.312.328.758.492 1.34.492.632 0 1.132-.192 1.5-.578.363-.387.547-.922.547-1.61v-3.156Zm7.77-2.473v8.493h-.778v-1.192a2.449 2.449 0 0 1-.969.926c-.398.215-.851.32-1.355.32a3.065 3.065 0 0 1-1.531-.386 2.823 2.823 0 0 1-1.078-1.086c-.258-.47-.387-.996-.387-1.594 0-.594.129-1.125.387-1.59a2.787 2.787 0 0 1 1.078-1.082 3.104 3.104 0 0 1 1.531-.383c.488 0 .93.102 1.324.305.39.203.715.496.965.887v-3.618Zm-3.032 7.828a2.24 2.24 0 0 0 1.137-.292c.34-.192.61-.47.8-.829a2.52 2.52 0 0 0 .294-1.226c0-.457-.098-.863-.293-1.223a2.021 2.021 0 0 0-.8-.828 2.24 2.24 0 0 0-1.138-.293c-.43 0-.812.098-1.152.293a2.07 2.07 0 0 0-.8.828c-.192.36-.29.766-.29 1.223 0 .46.098.867.29 1.226.195.36.464.637.8.829.34.195.723.292 1.152.292Zm10.356-5.355-3.008 6.738c-.246.567-.527.965-.848 1.203-.32.239-.707.356-1.156.356-.289 0-.559-.047-.812-.137a1.807 1.807 0 0 1-.653-.414l.38-.605c.304.304.671.457 1.097.457.273 0 .508-.075.703-.227.195-.152.375-.414.543-.781l.266-.582-2.692-6.008h.848l2.265 5.113 2.266-5.113Zm5.527 8.238c-.43-.703-.754-1.507-.984-2.418a11.97 11.97 0 0 1-.344-2.937c0-1.043.113-2.028.344-2.945.23-.918.554-1.723.984-2.41h.778a8.93 8.93 0 0 0-.989 2.484c-.21.883-.316 1.844-.316 2.87 0 1.032.105 1.99.316 2.872a8.93 8.93 0 0 0 .988 2.484Zm7.438-8.238-3.008 6.738c-.246.567-.527.965-.848 1.203-.32.239-.707.356-1.156.356-.29 0-.563-.047-.813-.137a1.807 1.807 0 0 1-.652-.414l.379-.605c.305.304.672.457 1.098.457.273 0 .507-.075.703-.227.195-.152.375-.414.543-.781l.265-.582-2.691-6.008h.848l2.265 5.113 2.266-5.113Zm6.21 3.262h-5.03c.042.625.284 1.129.718 1.515.434.387.984.578 1.649.578a2.59 2.59 0 0 0 1.027-.199c.316-.133.586-.332.812-.59l.461.524a2.56 2.56 0 0 1-1.004.734 3.37 3.37 0 0 1-1.32.25c-.617 0-1.164-.129-1.64-.394a2.854 2.854 0 0 1-1.118-1.09 3.142 3.142 0 0 1-.398-1.582c0-.586.125-1.113.383-1.578a2.756 2.756 0 0 1 1.05-1.086c.446-.262.95-.39 1.504-.39.559 0 1.059.128 1.5.39.442.258.79.62 1.043 1.082.25.46.375.988.375 1.582Zm-2.906-2.61c-.578 0-1.066.184-1.457.555-.394.371-.617.852-.668 1.45h4.266c-.055-.598-.277-1.079-.668-1.45-.395-.371-.883-.555-1.473-.555Zm6.512-.699c.785 0 1.39.2 1.809.59.418.395.629.977.629 1.746v3.73h-.778v-.94a1.85 1.85 0 0 1-.808.734c-.352.175-.774.261-1.262.261-.672 0-1.207-.16-1.602-.48-.398-.32-.597-.742-.597-1.27 0-.511.187-.922.554-1.234.371-.313.961-.469 1.77-.469h1.91v-.367c0-.52-.144-.914-.434-1.184-.289-.273-.714-.406-1.27-.406-.382 0-.75.063-1.097.188-.351.125-.656.3-.906.52l-.367-.606a3.284 3.284 0 0 1 1.101-.598 4.163 4.163 0 0 1 1.348-.215Zm-.285 5.48c.457 0 .851-.105 1.18-.312.328-.21.57-.512.73-.91v-.984h-1.887c-1.03 0-1.547.359-1.547 1.074 0 .351.133.629.403.832.265.2.64.3 1.12.3Zm5.71-4.253c.192-.407.474-.711.852-.918.38-.203.844-.309 1.403-.309v.79l-.196-.012c-.632 0-1.128.195-1.488.585-.36.387-.535.934-.535 1.637v3.067h-.813v-6.02h.778Zm5.38 4.894c-.489 0-.957-.07-1.403-.21-.445-.141-.796-.317-1.046-.532l.367-.64c.25.199.566.359.949.484.379.129.777.191 1.187.191.551 0 .957-.086 1.22-.258a.818.818 0 0 0 .398-.726.65.65 0 0 0-.22-.52 1.421 1.421 0 0 0-.55-.289 8.81 8.81 0 0 0-.879-.187 9.317 9.317 0 0 1-1.18-.281 1.747 1.747 0 0 1-.761-.485c-.211-.23-.313-.547-.313-.95 0-.503.207-.917.63-1.237.417-.32 1-.48 1.75-.48.39 0 .777.05 1.167.155.387.102.707.239.961.407l-.355.652c-.496-.344-1.086-.516-1.774-.516-.52 0-.91.09-1.172.274-.265.183-.394.426-.394.722 0 .227.074.41.222.547.149.141.332.239.555.305.219.066.524.133.914.2.48.093.867.183 1.156.277.29.09.54.246.743.468.207.22.312.524.312.914 0 .528-.223.946-.66 1.254-.438.309-1.047.461-1.824.461Zm3.304 2.164c.45-.77.782-1.597.997-2.476.214-.883.32-1.84.32-2.88a12.17 12.17 0 0 0-.32-2.878 9.245 9.245 0 0 0-.997-2.477h.778c.43.688.758 1.493.992 2.41.23.918.348 1.903.348 2.946 0 1.047-.114 2.027-.344 2.941-.227.914-.559 1.719-.996 2.414Zm-127.402-13.297"/><path style="stroke:none;fill-rule:nonzero;fill:#afabab;fill-opacity:1" d="M334.098 236.32c-.047 0-.078-.011-.098-.039-.02-.023-.027-.066-.027-.136v-.278a1.42 1.42 0 0 1-.512.395c-.207.093-.426.14-.664.14-.43 0-.785-.152-1.078-.457a1.604 1.604 0 0 1-.434-1.136c0-.47.156-.86.465-1.172a1.552 1.552 0 0 1 1.152-.469c.235 0 .446.043.63.125.187.082.347.203.48.367v-1.305h-.18c-.2 0-.324-.015-.383-.05-.058-.035-.086-.102-.086-.196 0-.078.024-.14.067-.18.047-.042.117-.062.203-.062h.699c.066 0 .117.012.148.035.028.02.043.055.043.106v3.832h.157c.11 0 .191.02.238.055.05.039.074.097.074.18 0 .073-.02.136-.062.179a.239.239 0 0 1-.176.066Zm-2.227-1.53c0 .315.102.57.305.769.199.199.457.3.765.3.313 0 .57-.105.774-.312.203-.207.3-.469.3-.79 0-.316-.097-.573-.296-.777a1.039 1.039 0 0 0-.778-.308c-.32 0-.574.105-.773.312-.2.203-.297.473-.297.805Zm5.129 2.398h.148c.164 0 .278.019.336.054.059.035.086.098.086.192 0 .078-.02.14-.066.18-.047.042-.113.062-.203.062h-1.57c-.106 0-.18-.02-.22-.055-.042-.035-.066-.098-.066-.187 0-.082.024-.141.067-.184a.304.304 0 0 1 .199-.063h.738l.551-1.082-1.246-2.445c-.152 0-.254-.02-.309-.055-.054-.035-.082-.101-.082-.19 0-.08.02-.142.067-.18.047-.04.113-.06.203-.06h.949c.129 0 .211.02.254.052.047.035.066.097.066.187s-.027.156-.086.191c-.054.036-.16.055-.312.055h-.125l.922 1.875.937-1.875h-.133c-.156 0-.261-.02-.32-.055-.062-.035-.09-.101-.09-.19 0-.09.02-.153.063-.188.043-.032.129-.051.262-.051h.84c.09 0 .16.02.202.058.047.04.067.102.067.18 0 .086-.024.149-.074.184-.051.035-.137.054-.266.062Zm3.172-1.348v-2.18h-.067c-.152 0-.261-.02-.316-.055-.059-.035-.09-.101-.09-.19 0-.083.024-.145.074-.185.047-.035.125-.054.23-.054h.485c.063 0 .11.012.145.035.035.027.05.062.05.105v.23c.165-.151.329-.269.493-.343.16-.07.328-.11.504-.11.343 0 .613.11.808.321.196.211.293.508.293.883v1.543h.16a.44.44 0 0 1 .247.055c.05.039.074.097.074.18 0 .085-.028.152-.082.187-.051.039-.145.058-.282.058h-.753c-.145 0-.235-.02-.278-.05-.039-.036-.062-.102-.062-.196 0-.09.023-.148.074-.183.047-.036.137-.051.266-.051h.12v-1.418c0-.262-.062-.465-.18-.606-.12-.14-.296-.21-.522-.21a.896.896 0 0 0-.614.238.743.743 0 0 0-.265.578v1.418h.12c.134 0 .227.015.274.05.047.036.07.094.07.184 0 .094-.02.16-.058.196-.043.03-.14.05-.3.05h-.802c-.093 0-.164-.02-.21-.062-.048-.04-.071-.102-.071-.184 0-.09.027-.152.082-.187.05-.032.156-.047.309-.047Zm5.441.09c.352 0 .637-.114.86-.336.222-.219.336-.5.336-.844s-.114-.625-.336-.848a1.175 1.175 0 0 0-.86-.336c-.343 0-.629.114-.855.336-.223.223-.332.504-.332.848s.11.629.332.848c.222.218.508.332.855.332Zm1.785-1.18c0 .484-.164.883-.496 1.191-.328.309-.757.461-1.289.461-.523 0-.953-.152-1.285-.46-.332-.31-.496-.708-.496-1.192s.164-.883.496-1.188c.332-.308.762-.46 1.285-.46.528 0 .957.152 1.29.46.331.31.495.708.495 1.188Zm3.66-.328c0-.317-.03-.535-.09-.645-.054-.113-.156-.172-.296-.172-.168 0-.3.075-.399.22-.097.148-.148.347-.148.597v1.418h.063c.136 0 .23.015.277.047.047.035.066.097.066.187 0 .082-.015.14-.054.184-.04.039-.098.062-.18.062h-.43c-.097 0-.164-.023-.199-.07-.035-.047-.055-.14-.055-.293v-1.797c0-.172-.035-.305-.113-.402a.378.378 0 0 0-.316-.153.468.468 0 0 0-.282.094.72.72 0 0 0-.218.266v1.875h.125c.136 0 .226.015.277.05.047.036.07.094.07.184 0 .094-.02.156-.058.192-.04.035-.114.054-.223.054h-.902c-.09 0-.153-.02-.196-.062-.043-.04-.062-.102-.062-.184 0-.09.023-.152.078-.187.055-.032.156-.047.312-.047h.067v-2.18h-.063c-.156 0-.265-.02-.324-.055-.055-.035-.086-.101-.086-.19 0-.08.024-.142.07-.18.043-.04.114-.06.204-.06h.52c.073 0 .124.012.148.04.023.027.039.082.043.164a.955.955 0 0 1 .296-.219.84.84 0 0 1 .364-.074c.156 0 .289.035.39.105.106.07.18.176.23.317a.91.91 0 0 1 .333-.317.84.84 0 0 1 .426-.105c.293 0 .507.098.64.289.137.188.203.496.203.922v1.543h.055c.14 0 .234.015.281.05.047.036.07.094.07.184 0 .082-.019.14-.058.184a.25.25 0 0 1-.18.062h-.414c-.09 0-.156-.027-.199-.082-.043-.054-.062-.14-.062-.261Zm2.606-2.227c0-.242.02-.398.063-.46.046-.063.14-.094.285-.094.14 0 .234.023.277.078.047.054.07.18.07.379 0 .195-.02.316-.062.363-.043.047-.137.07-.285.07-.145 0-.239-.023-.285-.066-.043-.043-.063-.133-.063-.27Zm.625 3.645h1.094c.09 0 .152.02.195.055.043.039.063.097.063.18 0 .093-.02.155-.059.19-.039.036-.113.055-.219.055h-2.64a.308.308 0 0 1-.203-.062c-.047-.043-.067-.102-.067-.184s.024-.137.07-.176c.047-.039.118-.058.215-.058h1.035v-2.18h-.66c-.093 0-.168-.023-.215-.066a.226.226 0 0 1-.074-.18c0-.078.024-.14.07-.18.043-.039.114-.058.204-.058h.996c.062 0 .11.012.144.035.035.027.051.062.051.105Zm3.77-2.16c-.297 0-.54.09-.727.277a.947.947 0 0 0-.281.711c0 .289.094.523.281.71.188.185.43.278.727.278.296 0 .535-.094.726-.277a.963.963 0 0 0 .285-.711.963.963 0 0 0-.285-.711 1.002 1.002 0 0 0-.726-.277Zm1.476 2.457c0 .32-.015.543-.047.675a.869.869 0 0 1-.164.348 1.169 1.169 0 0 1-.535.383c-.226.09-.496.133-.809.133-.257 0-.445-.024-.566-.074-.117-.051-.18-.13-.18-.239 0-.07.032-.133.09-.187a.3.3 0 0 1 .203-.078c.063 0 .157.007.286.023.125.02.222.027.289.027.332 0 .57-.078.71-.23.145-.156.211-.418.211-.793v-.41c-.136.16-.289.277-.457.351-.168.075-.359.114-.578.114-.425 0-.773-.14-1.054-.426-.278-.281-.414-.637-.414-1.07 0-.438.14-.797.425-1.086.285-.286.64-.43 1.063-.43.176 0 .347.035.512.098a2 2 0 0 1 .503.297v-.247c0-.046.016-.086.047-.105.032-.024.078-.035.145-.035h.515c.09 0 .157.02.204.058.043.04.066.102.066.18 0 .09-.027.156-.082.191-.059.036-.164.055-.32.055h-.063Zm1.52-.297v-3.485h-.067c-.152 0-.258-.015-.316-.054-.059-.035-.086-.098-.086-.192 0-.078.023-.14.07-.18.047-.042.114-.062.203-.062h.516c.063 0 .11.012.14.035a.13.13 0 0 1 .055.106v1.539c.164-.152.328-.27.489-.344.164-.07.332-.11.507-.11.34 0 .61.11.805.321.2.211.297.508.297.883v1.543h.16c.113 0 .195.02.242.055.051.039.075.097.075.18 0 .081-.02.14-.067.183-.043.039-.113.062-.203.062h-.906c-.106 0-.176-.02-.215-.054-.04-.036-.055-.098-.055-.192 0-.09.02-.152.067-.187.046-.032.136-.047.265-.047h.117v-1.418c0-.262-.058-.465-.18-.606-.116-.14-.292-.21-.523-.21a.896.896 0 0 0-.613.238.74.74 0 0 0-.262.578v1.418h.118c.136 0 .226.015.277.05.047.036.07.094.07.184 0 .094-.02.156-.058.192-.036.035-.106.054-.215.054h-.903c-.09 0-.156-.023-.199-.062-.047-.043-.066-.102-.066-.184 0-.09.023-.152.078-.187.055-.032.156-.047.312-.047Zm6.386-2.473c.114 0 .192.02.247.059.05.035.074.097.074.18 0 .082-.024.14-.07.18a.335.335 0 0 1-.215.062h-1.38v1.132c0 .372.051.618.145.735.098.12.262.18.496.18.207 0 .453-.063.742-.18.286-.121.465-.18.532-.18a.21.21 0 0 1 .164.067.252.252 0 0 1-.02.36.759.759 0 0 1-.281.163 4.816 4.816 0 0 1-.602.195c-.175.04-.343.059-.5.059-.265 0-.488-.043-.668-.125a.89.89 0 0 1-.406-.379.979.979 0 0 1-.094-.285 3.088 3.088 0 0 1-.03-.504v-1.238h-.579c-.094 0-.164-.02-.207-.059-.043-.035-.062-.098-.062-.184 0-.09.027-.152.086-.187.058-.035.187-.05.378-.05h.383v-.88c0-.097.024-.168.063-.215.043-.046.11-.07.195-.07.102 0 .172.027.207.086.04.055.059.184.059.387v.691Zm2.586 2.395c0-.18.063-.325.188-.438a.674.674 0 0 1 .48-.168.7.7 0 0 1 .485.164.561.561 0 0 1 .183.442c0 .18-.062.328-.183.437a.69.69 0 0 1-.485.168c-.199 0-.363-.054-.484-.168a.566.566 0 0 1-.184-.437Zm3.582.078v-2.18h-.066c-.152 0-.258-.02-.316-.055-.059-.035-.086-.101-.086-.19 0-.083.023-.145.07-.185.047-.035.125-.054.23-.054h.489a.25.25 0 0 1 .14.035c.035.027.051.062.051.105v.23c.168-.151.328-.269.492-.343.164-.07.332-.11.504-.11.344 0 .613.11.809.321.195.211.293.508.293.883v1.543h.16a.44.44 0 0 1 .246.055c.05.039.074.097.074.18 0 .085-.027.152-.078.187-.055.039-.148.058-.285.058h-.754c-.144 0-.234-.02-.277-.05-.04-.036-.063-.102-.063-.196 0-.09.028-.148.074-.183.047-.036.137-.051.266-.051h.121v-1.418c0-.262-.058-.465-.18-.606-.12-.14-.296-.21-.523-.21a.903.903 0 0 0-.613.238.743.743 0 0 0-.266.578v1.418h.121c.137 0 .227.015.274.05.05.036.074.094.074.184 0 .094-.024.16-.063.196-.043.03-.14.05-.3.05h-.801c-.094 0-.164-.02-.211-.062-.047-.04-.07-.102-.07-.184 0-.09.027-.152.082-.187.05-.032.156-.047.312-.047Zm4.293-.942c.02.325.13.579.332.754.204.18.48.27.832.27.266 0 .555-.07.868-.215.312-.14.503-.21.566-.21.07 0 .125.019.172.062a.207.207 0 0 1 .066.16.277.277 0 0 1-.07.183.807.807 0 0 1-.227.157c-.226.113-.46.199-.703.257-.242.059-.48.086-.718.086-.516 0-.93-.148-1.243-.445-.308-.3-.464-.695-.464-1.187 0-.5.164-.907.492-1.215.328-.313.757-.47 1.285-.47.48 0 .875.145 1.191.438.317.29.473.641.473 1.055 0 .125-.027.211-.082.254-.05.043-.195.066-.434.066Zm.02-.449h2.21a.968.968 0 0 0-.335-.648 1.053 1.053 0 0 0-.707-.246c-.3 0-.555.078-.762.238a1.098 1.098 0 0 0-.406.656Zm6.238-1.082c.113 0 .195.02.246.059.051.035.074.097.074.18 0 .082-.023.14-.07.18a.328.328 0 0 1-.215.062h-1.379v1.132c0 .372.051.618.149.735.094.12.258.18.492.18.207 0 .453-.063.742-.18.29-.121.465-.18.535-.18.063 0 .118.02.16.067a.23.23 0 0 1 .067.164c0 .078-.027.14-.082.195a.817.817 0 0 1-.285.164 4.816 4.816 0 0 1-.602.195c-.176.04-.344.059-.5.059-.265 0-.488-.043-.668-.125a.89.89 0 0 1-.406-.379.979.979 0 0 1-.094-.285 3.088 3.088 0 0 1-.031-.504v-1.238h-.578c-.094 0-.164-.02-.207-.059-.043-.035-.063-.098-.063-.184 0-.09.028-.152.086-.187.063-.035.188-.05.38-.05h.382v-.88c0-.097.023-.168.066-.215.04-.046.106-.07.196-.07.097 0 .168.027.207.086.039.055.054.184.054.387v.691Zm-53.172-2.3"/></svg>