<!DOCTYPE svg PUBLIC "-//W3C//DTD SVG 20010904//EN" "http://www.w3.org/TR/2001/REC-SVG-20010904/DTD/svg10.dtd">
<svg version="1.0" xmlns="http://www.w3.org/2000/svg" width="569px" height="379px" viewBox="0 0 5690 3790" preserveAspectRatio="xMidYMid meet">
<g id="layer101" fill="#171717" stroke="none">
 <path d="M100 3722 c0 -4 24 -31 53 -60 l53 -52 2640 0 2640 0 52 53 c29 29 52 56 52 60 0 4 -1235 7 -2745 7 -1510 0 -2745 -4 -2745 -8z"/>
 <path d="M60 1890 l0 -1805 55 55 55 55 0 1695 0 1695 -55 55 -55 55 0 -1805z"/>
 <path d="M5573 3638 l-53 -54 0 -1688 0 -1689 55 -58 c30 -31 56 -54 57 -51 2 4 1 814 -2 1800 l-5 1793 -52 -53z"/>
 <path d="M270 3544 c0 -3 10 -14 23 -25 21 -18 92 -18 2556 -19 l2534 0 23 25 23 25 -2579 0 c-1419 0 -2580 -3 -2580 -6z"/>
 <path d="M230 1901 c0 -896 4 -1622 9 -1625 4 -3 16 3 25 13 17 19 16 -111 16 3157 0 33 -5 45 -25 58 l-24 16 -1 -1619z"/>
 <path d="M5427 3492 c-16 -17 -17 -146 -19 -1598 -3 -1378 -1 -1581 12 -1596 41 -50 40 -94 40 1597 0 888 -4 1615 -8 1615 -5 0 -16 -8 -25 -18z"/>
 <path d="M945 3304 c-23 -23 -3 -44 25 -26 20 12 20 9 20 -148 0 -134 -3 -162 -15 -166 -32 -13 -13 -24 40 -24 52 0 73 14 40 26 -12 5 -15 32 -15 154 0 126 -3 151 -17 168 -26 29 -58 36 -78 16z"/>
 <path d="M2460 3262 c0 -5 11 -14 25 -20 30 -14 33 -38 5 -47 -24 -7 -27 -40 -5 -49 20 -7 55 28 55 54 0 24 -42 70 -65 70 -8 0 -15 -4 -15 -8z"/>
 <path d="M4723 3223 c-21 -8 -15 -43 6 -43 11 0 23 5 27 11 8 14 -17 38 -33 32z"/>
 <path d="M2394 3212 c-5 -4 -41 -47 -79 -97 l-70 -90 -3 75 c-2 58 0 77 13 86 25 18 18 24 -30 24 -47 0 -54 -6 -31 -24 10 -8 15 -39 18 -104 3 -87 1 -95 -19 -112 -31 -25 -29 -30 10 -30 29 0 39 8 85 68 28 37 63 79 77 92 l25 23 0 -77 c0 -69 -2 -78 -20 -83 -33 -9 -11 -23 36 -23 48 0 55 8 24 28 -18 11 -20 22 -18 127 1 63 -1 117 -3 119 -3 3 -9 2 -15 -2z"/>
 <path d="M1378 3192 c-53 -32 -74 -122 -43 -182 25 -47 62 -70 116 -70 121 0 173 148 84 237 -28 28 -40 33 -81 33 -28 0 -61 -8 -76 -18z m128 -23 c15 -16 19 -36 19 -89 0 -59 -3 -72 -24 -94 -30 -32 -80 -35 -105 -7 -36 39 -33 149 5 189 26 29 79 29 105 1z"/>
 <path d="M1810 3201 c0 -5 7 -11 15 -15 12 -4 15 -26 15 -111 0 -85 -3 -107 -15 -111 -32 -13 -13 -24 39 -24 57 0 82 14 46 25 -18 6 -20 15 -20 112 0 96 2 105 20 110 40 11 18 23 -40 23 -33 0 -60 -4 -60 -9z"/>
 <path d="M2961 3184 c-30 -38 -28 -98 4 -129 53 -53 135 -15 135 63 0 57 -31 92 -80 92 -30 0 -43 -6 -59 -26z m99 -50 c0 -58 -14 -84 -45 -84 -29 0 -41 32 -31 88 12 79 76 76 76 -4z"/>
 <path d="M3120 3201 c0 -5 7 -11 15 -15 19 -7 21 -106 3 -124 -10 -10 -10 -15 2 -22 20 -13 50 -13 50 0 0 6 7 6 19 -1 18 -12 51 -7 51 8 0 4 -5 15 -10 23 -7 11 -12 12 -21 3 -6 -6 -18 -9 -25 -6 -20 8 -19 112 1 119 31 12 13 24 -35 24 -27 0 -50 -4 -50 -9z"/>
 <path d="M3600 3204 c0 -5 9 -15 20 -22 18 -11 20 -23 20 -107 0 -84 -2 -96 -20 -107 -38 -24 -20 -30 73 -26 74 3 100 8 130 27 70 43 73 142 7 206 -29 28 -36 30 -130 33 -55 3 -100 0 -100 -4z m187 -36 c27 -22 45 -77 38 -118 -9 -53 -44 -83 -97 -84 l-43 -1 -3 92 c-3 116 6 138 55 130 19 -3 42 -12 50 -19z"/>
 <path d="M4110 3201 c0 -5 7 -11 15 -15 12 -4 15 -26 15 -110 0 -83 -3 -105 -15 -110 -33 -12 -12 -26 39 -26 57 0 82 14 46 25 -18 6 -20 15 -20 111 0 84 3 106 15 110 32 13 13 24 -40 24 -30 0 -55 -4 -55 -9z"/>
 <path d="M4460 3205 c0 -3 9 -14 20 -25 17 -17 20 -33 20 -110 0 -79 -2 -91 -20 -102 -11 -7 -20 -16 -20 -20 0 -5 47 -8 104 -8 99 0 104 1 110 22 8 33 -9 43 -33 19 -14 -14 -34 -21 -62 -21 l-40 0 3 48 c3 43 5 47 30 50 18 2 33 -4 44 -17 24 -27 34 -18 34 30 0 40 -22 55 -34 24 -3 -9 -19 -15 -41 -15 -35 0 -35 0 -35 43 0 24 5 48 12 55 20 20 67 14 94 -13 30 -30 34 -31 34 -6 0 48 -6 51 -116 51 -57 0 -104 -2 -104 -5z"/>
 <path d="M620 2720 c0 -20 7 -20 2225 -20 2218 0 2225 0 2225 20 0 20 -7 20 -2225 20 -2218 0 -2225 0 -2225 -20z"/>
 <path d="M850 2540 c0 -5 5 -10 10 -10 6 0 10 5 10 10 0 6 -4 10 -10 10 -5 0 -10 -4 -10 -10z"/>
 <path d="M770 2527 c-53 -26 -28 -127 31 -127 32 0 59 19 59 41 0 18 -3 17 -25 -8 l-25 -28 -26 29 c-16 18 -24 38 -22 55 3 23 7 26 36 24 27 -1 31 1 21 13 -14 17 -17 17 -49 1z"/>
 <path d="M660 2450 c0 -5 5 -10 10 -10 6 0 10 5 10 10 0 6 -4 10 -10 10 -5 0 -10 -4 -10 -10z"/>
 <path d="M1090 2440 c-70 -9 -176 -43 -262 -86 -38 -18 -68 -31 -68 -29 0 3 -12 -5 -26 -18 -14 -12 -29 -22 -32 -22 -4 0 -33 -27 -65 -60 -66 -68 -119 -166 -121 -222 -1 -36 2 -39 47 -62 28 -14 73 -25 110 -28 l63 -5 31 63 c52 104 156 187 264 209 35 7 70 18 77 23 41 32 83 180 63 224 -6 13 -14 22 -18 22 -5 -1 -33 -5 -63 -9z m51 -89 c-24 -112 -54 -148 -75 -88 -13 35 8 102 41 134 35 36 48 19 34 -46z m-63 52 c-42 -87 -49 -94 -82 -70 -27 20 -16 50 24 64 41 14 63 16 58 6z m-162 -64 c-14 -17 -26 -37 -26 -45 0 -20 -14 -17 -35 6 -21 23 -18 27 33 51 53 25 57 23 28 -12z m64 -35 c0 -6 -7 -17 -15 -24 -8 -7 -12 -17 -8 -24 4 -6 -4 -4 -17 5 -33 22 -34 31 -9 64 21 26 23 26 36 9 7 -10 13 -23 13 -30z m-124 -68 c-4 -36 -18 -43 -40 -21 -16 17 -21 51 -10 80 6 14 9 13 30 -6 17 -16 23 -31 20 -53z m-74 29 c-4 -37 -29 -48 -51 -22 -12 15 3 37 26 37 7 0 13 5 13 10 0 6 4 10 8 10 4 0 6 -16 4 -35z m263 -8 c14 -40 14 -40 -33 -50 -33 -8 -47 24 -27 64 21 39 43 34 60 -14z m-108 -32 c15 -13 25 -26 23 -28 -30 -22 -62 -37 -70 -32 -6 3 -10 24 -10 46 0 47 18 51 57 14z m-222 -5 c3 -5 15 -10 25 -10 19 0 36 -17 27 -26 -2 -3 -20 -7 -39 -10 -42 -7 -77 19 -57 42 13 16 35 18 44 4z m150 -59 c6 -16 -31 -61 -51 -61 -6 0 -15 7 -18 16 -8 20 -8 69 0 76 9 9 63 -15 69 -31z m-204 9 c27 -15 24 -27 -8 -33 -35 -7 -51 7 -33 28 15 18 16 18 41 5z m117 -50 c15 -38 15 -38 -26 -46 -28 -6 -33 -3 -42 20 -18 48 -13 61 22 60 27 -1 35 -7 46 -34z m-168 -49 c0 -34 -3 -39 -27 -44 -16 -3 -30 -3 -32 -1 -9 8 39 95 49 89 6 -3 10 -23 10 -44z m84 17 c5 -27 2 -36 -15 -51 -28 -23 -49 -7 -49 39 0 26 5 33 23 37 12 2 25 5 28 6 4 0 9 -14 13 -31z m72 -55 c-31 -56 -31 -57 -60 -38 l-26 17 23 18 c19 15 42 25 70 29 4 0 1 -11 -7 -26z m-115 -37 c43 -8 81 -42 60 -55 -16 -10 -104 9 -146 31 l-30 17 25 10 c14 5 32 8 40 6 8 -2 31 -6 51 -9z"/>
 <path d="M606 2390 c-4 -27 -10 -50 -15 -50 -11 0 -32 50 -26 61 8 12 -6 11 -25 -2 -12 -8 -12 -12 -2 -16 17 -7 50 -75 45 -90 -7 -21 15 -15 27 6 5 11 10 30 10 43 0 13 4 30 9 37 10 15 17 4 36 -54 5 -16 8 -17 15 -5 6 9 4 20 -3 30 -7 8 -20 32 -30 53 -9 20 -21 37 -26 37 -4 0 -11 -22 -15 -50z"/>
 <path d="M1281 2401 c-34 -36 -61 -108 -61 -163 0 -33 3 -38 23 -38 44 0 48 -12 21 -68 -82 -171 -23 -374 122 -422 89 -30 256 32 319 118 61 82 80 186 50 271 l-14 41 27 -6 c43 -11 96 -40 133 -75 41 -38 76 -51 199 -73 71 -13 102 -15 123 -7 15 6 27 13 27 17 0 23 -35 135 -55 174 -52 103 -179 187 -317 210 -81 14 -222 9 -305 -11 -50 -12 -55 -11 -122 20 -39 18 -86 35 -105 38 -31 5 -40 1 -65 -26z m93 -10 c15 -6 17 -9 7 -16 -11 -6 -91 -14 -91 -8 0 1 7 9 16 17 17 17 37 19 68 7z m85 -35 l23 -13 -37 -21 c-43 -26 -51 -27 -59 -7 -10 28 5 47 44 53 3 1 16 -5 29 -12z m281 -3 c0 -5 -14 -17 -30 -28 -16 -11 -30 -23 -30 -27 0 -13 -45 -9 -64 5 -23 17 -11 45 22 50 49 7 102 7 102 0z m110 2 c0 -2 -11 -20 -24 -39 -22 -33 -25 -34 -45 -20 -20 15 -28 44 -14 57 7 8 83 10 83 2z m-490 -31 c13 -33 14 -31 -17 -37 -18 -3 -34 0 -45 10 -33 30 -21 45 40 52 7 0 17 -11 22 -25z m534 2 c-3 -13 -1 -27 5 -30 16 -10 13 -20 -10 -34 -16 -10 -24 -10 -35 -1 -20 16 -17 39 8 66 28 30 40 29 32 -1z m-314 -9 c0 -16 9 -28 26 -36 l26 -11 -24 -25 c-28 -30 -33 -30 -58 -5 -15 15 -19 28 -14 48 12 51 44 72 44 29z m403 2 c44 -15 46 -22 11 -38 -26 -11 -36 -9 -66 16 -18 16 -13 47 6 40 6 -2 28 -10 49 -18z m-467 -21 c-3 -13 -6 -31 -6 -42 0 -15 -5 -17 -27 -11 -16 3 -34 12 -42 20 -11 11 -7 16 25 34 50 26 58 26 50 -1z m243 -12 l23 -24 -22 -12 c-48 -26 -96 16 -54 47 24 17 27 17 53 -11z m-454 -46 c2 -20 -11 -25 -39 -14 -16 6 -22 54 -9 68 10 10 46 -30 48 -54z m751 24 c-3 -9 -6 -19 -6 -24 0 -14 -30 -40 -45 -40 -8 0 -19 9 -25 20 -9 17 -6 23 22 40 40 24 62 26 54 4z m-706 -9 c-7 -9 -15 -13 -17 -11 -7 7 7 26 19 26 6 0 6 -6 -2 -15z m488 -7 c20 -20 14 -42 -15 -55 -23 -11 -29 -10 -46 4 -18 17 -18 18 8 40 30 26 36 28 53 11z m118 -22 c10 -33 10 -34 -19 -40 -21 -4 -36 -1 -49 11 -18 16 -18 17 4 40 30 33 51 29 64 -11z m158 5 l28 -29 -22 -12 c-16 -9 -25 -9 -36 1 -14 12 -19 51 -7 62 8 9 6 11 37 -22z m-638 -5 c29 -6 31 -10 25 -34 -6 -23 -13 -27 -41 -27 -28 0 -35 5 -43 28 -11 34 -2 64 16 49 6 -5 26 -13 43 -16z m208 7 c9 -22 -27 -58 -48 -50 -26 10 -32 38 -11 53 26 19 52 17 59 -3z m-272 -80 c13 -16 11 -18 -19 -27 -40 -13 -59 60 -26 97 17 18 18 18 26 -19 4 -20 12 -44 19 -51z m163 47 c33 -12 25 -25 -22 -35 -30 -6 -33 -4 -33 18 0 25 8 39 20 32 4 -2 20 -9 35 -15z m183 -9 l21 -29 -37 9 c-20 5 -41 9 -47 9 -8 1 31 40 39 40 1 0 12 -13 24 -29z m314 -46 c-3 -20 -10 -25 -32 -25 -40 0 -51 37 -20 62 21 17 24 17 40 3 11 -10 15 -25 12 -40z m-192 4 c0 -34 -1 -34 -41 -10 l-31 19 22 15 c30 21 50 11 50 -24z m-524 -40 c16 -17 15 -19 -9 -30 -21 -9 -30 -9 -42 1 -20 16 -19 35 2 71 l18 30 7 -27 c4 -14 14 -35 24 -45z m813 50 c17 -29 43 -101 33 -97 -58 26 -112 61 -112 73 0 12 42 43 60 45 3 0 11 -10 19 -21z m-188 -16 c8 -21 7 -28 -5 -35 -8 -5 -21 -15 -29 -23 -13 -12 -17 -12 -31 4 -23 26 -20 60 7 71 36 14 47 11 58 -17z m-371 0 c-1 -22 -51 -58 -64 -46 -13 13 -5 34 17 43 28 11 47 12 47 3z m66 -10 c19 -25 17 -30 -12 -37 -35 -9 -49 5 -35 33 14 26 29 27 47 4z m-196 -8 c-12 -15 -30 -12 -30 6 0 5 10 9 21 9 18 0 19 -2 9 -15z m-37 -27 c2 -7 -3 -28 -11 -45 -12 -25 -18 -30 -29 -22 -14 12 -18 61 -6 72 11 12 41 8 46 -5z m77 -17 c27 -51 -3 -131 -50 -131 -31 0 -33 36 -6 95 27 59 39 67 56 36z m630 -17 c45 -24 68 -50 56 -62 -6 -6 -177 24 -223 39 -20 6 -30 15 -27 23 16 43 116 43 194 0z m-522 1 c4 -27 -34 -51 -54 -34 -19 16 -18 36 4 48 25 15 47 9 50 -14z m102 8 c-1 -10 -10 -29 -21 -42 l-20 -24 -19 20 c-15 17 -16 24 -7 36 23 29 67 35 67 10z m-425 -61 c5 -28 3 -39 -11 -49 -43 -31 -48 -14 -27 91 5 27 7 28 18 12 7 -9 16 -33 20 -54z m69 21 c5 -17 3 -29 -6 -34 -21 -14 -28 -11 -40 17 -10 21 -9 27 3 35 24 15 37 10 43 -18z m356 -87 l-12 -40 -14 24 c-17 32 -18 29 8 70 22 34 22 34 26 10 2 -13 -1 -42 -8 -64z m-69 58 c24 -22 13 -44 -22 -44 -24 0 -29 4 -29 23 0 40 21 48 51 21z m-71 -49 c0 -24 -5 -34 -20 -38 -33 -8 -43 16 -24 57 14 28 20 33 31 25 7 -6 13 -26 13 -44z m-183 -22 c-6 -13 -15 -23 -22 -23 -12 0 -61 48 -54 53 2 1 20 10 39 19 34 15 35 15 41 -6 3 -11 1 -31 -4 -43z m-73 -15 c15 -24 -19 -61 -44 -48 -27 15 -34 43 -13 58 22 16 43 12 57 -10z m354 -20 c3 -35 -20 -88 -38 -88 -5 0 -10 21 -12 48 -3 26 -8 55 -13 65 -7 16 -3 18 26 15 31 -3 34 -6 37 -40z m-257 -32 c-7 -9 -22 -11 -42 -7 -36 7 -39 25 -4 29 14 2 31 13 37 25 13 22 13 22 16 -6 2 -16 -1 -34 -7 -41z m103 32 c10 -17 -8 -68 -25 -68 -14 0 -49 43 -49 61 0 32 55 37 74 7z m80 -4 c7 -18 8 -64 1 -64 -2 0 -16 5 -30 12 -19 9 -24 16 -19 32 11 35 38 46 48 20z m-261 -83 c-2 -48 -11 -50 -44 -11 l-30 35 23 7 c41 12 53 5 51 -31z m107 11 c0 -35 -16 -52 -51 -52 -34 0 -42 11 -30 43 7 17 19 27 38 30 15 2 31 5 36 6 4 0 7 -12 7 -27z m135 -4 c14 -6 25 -15 25 -19 0 -9 -49 -44 -53 -38 -40 71 -33 85 28 57z m-58 -61 c-6 -15 -83 -34 -94 -23 -3 3 6 19 21 36 14 17 26 37 26 43 0 6 12 0 26 -15 16 -15 24 -33 21 -41z m-121 -18 c8 -14 -10 -11 -32 6 -18 13 -18 14 4 8 12 -3 25 -9 28 -14z"/>
 <path d="M2660 2240 c0 -5 8 -10 19 -10 13 0 25 -15 40 -49 11 -27 21 -54 21 -60 0 -14 10 -14 30 -1 10 7 12 12 4 18 -6 4 -23 31 -38 60 -21 42 -31 52 -51 52 -14 0 -25 -4 -25 -10z"/>
 <path d="M2765 2240 c3 -5 8 -10 11 -10 2 0 4 5 4 10 0 6 -5 10 -11 10 -5 0 -7 -4 -4 -10z"/>
 <path d="M2630 2160 c0 -5 5 -10 10 -10 6 0 10 5 10 10 0 6 -4 10 -10 10 -5 0 -10 -4 -10 -10z"/>
 <path d="M2554 2105 c-3 -25 -10 -47 -14 -50 -10 -6 -32 44 -25 56 7 10 -18 13 -27 3 -4 -3 5 -22 18 -41 13 -20 24 -47 24 -61 0 -38 28 -9 36 37 10 63 15 69 30 33 8 -18 12 -37 9 -43 -8 -12 6 -11 25 2 11 8 12 12 3 16 -7 2 -22 24 -32 49 -11 24 -24 44 -30 44 -5 0 -13 -20 -17 -45z"/>
 <path d="M2833 2075 c-57 -16 -143 -56 -183 -87 -129 -99 -231 -250 -255 -379 -18 -94 129 -178 242 -138 27 9 32 18 47 76 39 157 140 241 305 253 l73 5 50 124 c27 68 47 125 44 128 -2 2 -28 11 -57 19 -68 17 -198 17 -266 -1z m150 -28 c3 -7 -4 -19 -15 -26 -18 -11 -24 -9 -47 13 l-26 26 42 0 c25 0 43 -5 46 -13z m49 1 c-9 -9 -15 -9 -24 0 -9 9 -7 12 12 12 19 0 21 -3 12 -12z m-176 -29 c-14 -17 -26 -35 -26 -40 0 -16 -37 -10 -61 10 l-23 18 24 13 c29 16 69 28 93 29 16 1 16 -3 -7 -30z m253 22 c11 -7 9 -17 -8 -57 -21 -45 -22 -47 -36 -28 -25 37 -29 71 -8 83 22 13 34 13 52 2z m-192 -33 c4 -7 6 -21 5 -31 -2 -10 1 -24 7 -30 7 -9 4 -20 -8 -36 l-18 -24 -32 24 c-36 27 -38 41 -10 80 22 31 43 37 56 17z m113 -29 c11 -26 11 -32 -1 -40 -23 -14 -44 -10 -69 13 l-23 21 23 19 c33 27 56 22 70 -13z m-296 -13 c-7 -18 -45 -19 -51 0 -4 13 39 35 50 25 4 -4 5 -15 1 -25z m72 -20 c16 -13 17 -18 7 -35 -7 -12 -13 -28 -13 -36 0 -18 -9 -19 -44 -5 -28 10 -34 37 -16 71 13 23 39 25 66 5z m-113 -13 c21 -6 24 -53 3 -53 -8 0 -21 -2 -29 -6 -9 -3 -18 5 -27 25 -14 34 -5 55 19 46 9 -4 24 -10 34 -12z m367 -55 c-19 -49 -29 -56 -46 -34 -21 30 -17 54 14 70 36 19 48 6 32 -36z m-86 30 c3 -7 7 -28 10 -45 5 -31 4 -33 -23 -33 -44 0 -54 20 -28 58 24 34 35 39 41 20z m-350 -23 c4 -14 17 -30 29 -34 l22 -9 -25 -6 c-54 -14 -84 -12 -88 7 -4 18 33 67 49 67 4 0 10 -11 13 -25z m268 -34 l18 -31 -28 0 c-45 0 -66 21 -57 59 6 30 8 31 28 18 12 -8 29 -28 39 -46z m-161 -1 c13 -8 19 -21 19 -45 0 -32 -2 -35 -30 -35 -29 0 -30 2 -30 45 0 46 7 53 41 35z m69 -19 c0 -5 9 -13 20 -16 27 -9 25 -18 -9 -38 -34 -20 -41 -15 -41 30 0 23 5 33 15 33 8 0 15 -4 15 -9z m-246 -17 c10 -27 7 -34 -20 -44 -38 -15 -47 -3 -24 31 24 33 35 36 44 13z m116 -29 c0 -42 -82 -50 -88 -9 -3 18 4 24 35 31 46 12 53 9 53 -22z m-81 -54 c28 -22 24 -41 -14 -61 -25 -13 -28 -13 -41 5 -8 10 -14 31 -14 47 0 22 4 28 23 28 12 0 33 -9 46 -19z m156 -1 c-10 -11 -22 -20 -27 -20 -4 0 -8 9 -8 20 0 15 7 20 27 20 25 0 26 0 8 -20z m-243 -15 c0 -14 1 -30 2 -37 1 -15 -60 -52 -67 -41 -9 14 34 103 49 103 8 0 15 -11 16 -25z m191 -2 c6 -30 -11 -93 -26 -93 -10 0 -37 63 -37 89 0 18 14 27 46 30 7 0 14 -11 17 -26z m-57 -88 c17 -31 17 -37 4 -45 -20 -13 -20 -13 -57 10 -39 23 -42 43 -10 58 35 17 43 14 63 -23z m-106 17 c0 -13 -12 -22 -22 -16 -10 6 -1 24 13 24 5 0 9 -4 9 -8z m16 -57 c28 -14 61 -37 75 -51 20 -21 21 -27 9 -35 -8 -5 -41 -8 -73 -6 -62 4 -97 23 -125 70 -15 24 -15 29 -2 37 25 16 64 11 116 -15z m101 -42 c-4 -3 -7 0 -7 7 0 7 3 10 7 7 3 -4 3 -10 0 -14z"/>
 <path d="M3190 1888 c-73 -121 -74 -124 -75 -193 -1 -63 -5 -78 -44 -150 -74 -135 -83 -157 -88 -215 -7 -70 15 -151 57 -208 24 -33 36 -42 60 -42 64 0 153 69 203 158 23 41 24 45 9 85 -15 41 -14 46 28 192 48 165 61 286 40 363 -10 40 -85 132 -107 132 -5 0 -42 -55 -83 -122z m146 16 c40 -69 22 -69 -59 -1 -26 22 -27 27 -16 45 18 28 41 14 75 -44z m-59 -26 c21 -22 21 -24 4 -56 l-17 -33 -29 31 c-25 26 -27 33 -17 55 14 31 32 32 59 3z m77 -61 c11 -16 13 -35 8 -68 l-7 -47 -39 34 -40 34 17 35 c19 40 40 45 61 12z m-104 -56 c0 -4 -8 -15 -18 -24 -17 -16 -20 -15 -49 6 l-32 23 22 33 21 34 28 -32 c15 -17 28 -35 28 -40z m-75 -39 c47 -39 49 -49 18 -76 -15 -14 -33 -26 -38 -26 -6 0 -10 26 -10 60 0 33 2 60 5 60 3 0 14 -8 25 -18z m132 -6 c33 -28 26 -40 -22 -40 -48 0 -64 17 -40 44 23 25 28 25 62 -4z m37 -73 c-21 -84 -19 -82 -38 -39 -20 48 -20 45 7 56 35 14 38 12 31 -17z m-71 -18 c21 -44 21 -45 -2 -45 -11 0 -23 -4 -26 -10 -13 -20 -33 -9 -39 23 -5 26 -2 35 15 50 29 23 33 22 52 -18z m-83 -51 c13 -34 14 -31 -19 -48 -26 -14 -30 -14 -45 3 -22 24 -20 37 6 55 32 22 47 20 58 -10z m110 -29 c15 -18 4 -75 -15 -75 -7 0 -22 14 -33 32 -19 30 -19 33 -4 45 22 16 37 16 52 -2z m-174 -50 c9 -14 15 -27 13 -28 -48 -34 -58 -37 -68 -20 -6 12 -5 26 5 45 18 35 29 35 50 3z m98 9 c22 -21 20 -37 -5 -52 -18 -11 -24 -11 -40 4 -30 27 -22 44 28 63 1 1 9 -6 17 -15z m56 -83 c0 -16 -3 -37 -6 -46 -6 -14 -9 -13 -30 6 -28 27 -30 44 -6 58 30 18 42 12 42 -18z m-220 -2 c0 -5 -7 -9 -15 -9 -9 0 -12 6 -9 15 6 15 24 11 24 -6z m125 1 c13 -14 14 -20 5 -20 -7 0 -21 -7 -31 -16 -16 -14 -19 -14 -39 6 -17 17 -19 24 -9 36 17 20 53 17 74 -6z m-74 -51 l22 -22 -24 -18 c-24 -18 -24 -18 -53 10 -16 16 -25 34 -22 40 12 18 55 12 77 -10z m124 -14 c22 -13 37 -25 33 -26 -17 -3 -24 -5 -46 -13 -15 -5 -29 -2 -46 12 -23 18 -24 20 -8 35 21 21 19 22 67 -8z m-165 -74 c0 -4 -10 -21 -22 -36 -20 -26 -22 -26 -29 -9 -4 10 -8 42 -8 69 l0 50 29 -33 c17 -18 30 -36 30 -41z m99 26 c8 -11 5 -19 -14 -37 -24 -23 -25 -23 -45 -5 -26 23 -25 29 3 43 30 15 43 14 56 -1z m121 -26 c-1 -22 -62 -104 -102 -134 -44 -34 -88 -45 -88 -23 0 50 96 171 142 178 32 5 48 -1 48 -21z m-181 -40 c11 -7 9 -18 -11 -61 l-25 -52 -17 23 c-21 31 -20 48 6 76 24 26 27 26 47 14z"/>
 <path d="M3615 1940 c3 -5 8 -10 11 -10 2 0 4 5 4 10 0 6 -5 10 -11 10 -5 0 -7 -4 -4 -10z"/>
 <path d="M1953 1908 c-6 -7 -15 -28 -22 -47 -17 -52 -52 -93 -205 -246 -144 -143 -186 -200 -233 -315 -35 -87 -41 -154 -17 -181 31 -34 70 -49 127 -49 106 0 167 35 192 112 27 84 78 159 187 275 124 132 232 292 252 375 8 35 -26 62 -95 77 -69 15 -174 14 -186 -1z m47 -28 c-19 -13 -30 -13 -30 0 0 6 10 10 23 10 18 0 19 -2 7 -10z m91 -12 c10 -18 8 -24 -12 -39 -22 -17 -25 -17 -36 -2 -14 18 -17 46 -6 56 14 14 43 6 54 -15z m59 3 c0 -5 -6 -14 -14 -20 -11 -9 -15 -7 -19 9 -4 15 0 20 14 20 10 0 19 -4 19 -9z m-130 -47 c0 -19 -48 -30 -63 -15 -18 18 30 56 49 40 8 -6 14 -18 14 -25z m185 26 c3 -5 -1 -23 -10 -40 -19 -36 -55 -42 -55 -8 0 39 48 75 65 48z m-83 -54 c3 -14 2 -29 -1 -34 -6 -9 -45 -32 -55 -32 -12 0 7 66 22 78 23 17 29 15 34 -12z m-162 -46 c0 -39 -1 -40 -34 -40 -46 0 -50 10 -20 48 35 45 54 42 54 -8z m90 22 c0 -25 -20 -49 -49 -57 -23 -7 -24 -6 -17 26 3 18 12 37 19 41 22 14 47 9 47 -10z m114 -27 c-6 -16 -24 -21 -24 -7 0 11 11 22 21 22 5 0 6 -7 3 -15z m-34 -44 c0 -24 -20 -48 -48 -56 -22 -6 -23 -4 -20 26 5 50 68 77 68 30z m-257 -23 c6 -22 -9 -41 -25 -32 -10 6 -11 38 -1 47 12 12 21 7 26 -15z m167 -7 c0 -26 -3 -29 -27 -27 -49 5 -40 55 10 56 12 0 17 -8 17 -29z m-84 -7 c10 -40 -15 -50 -44 -18 -26 29 -21 44 13 44 18 0 26 -7 31 -26z m-126 -45 c0 -17 -76 -46 -88 -34 -4 4 11 22 33 40 40 34 54 32 55 -6z m84 -11 c22 -30 20 -34 -13 -46 -27 -10 -30 -8 -42 20 -10 25 -10 31 2 39 22 14 37 11 53 -13z m121 -9 c7 -20 -11 -69 -24 -69 -3 0 -21 14 -40 32 -32 29 -32 32 -15 45 29 21 72 17 79 -8z m45 17 c0 -3 -4 -8 -10 -11 -5 -3 -10 -1 -10 4 0 6 5 11 10 11 6 0 10 -2 10 -4z m-244 -44 c21 -13 23 -62 3 -72 -31 -17 -47 -11 -58 21 -15 44 -14 47 12 52 12 2 24 5 27 5 3 1 10 -2 16 -6z m-82 -36 c22 -47 21 -53 -16 -59 -33 -5 -68 14 -68 36 0 15 41 57 56 57 6 0 19 -15 28 -34z m221 -6 c18 -20 18 -21 -2 -42 -20 -19 -24 -20 -55 -8 -52 22 -61 41 -25 58 34 17 62 14 82 -8z m-296 -66 c12 -15 21 -35 21 -46 0 -15 -3 -17 -19 -8 -11 5 -33 7 -49 4 -40 -8 -45 6 -16 44 31 39 37 39 63 6z m209 6 c45 -1 45 -17 1 -73 -24 -31 -49 -56 -55 -56 -7 -1 -14 18 -17 42 -2 23 -8 52 -12 64 -6 17 -2 22 17 26 12 2 29 3 36 1 8 -2 21 -4 30 -4z m-122 -18 c18 -12 34 -49 34 -77 0 -21 -4 -26 -16 -21 -9 3 -27 6 -40 6 -22 0 -24 4 -24 44 0 39 7 52 30 55 3 0 10 -3 16 -7z m-166 -124 c0 -36 -12 -49 -25 -28 -3 6 -15 10 -26 10 -24 0 -24 4 3 52 20 36 24 38 35 22 7 -10 13 -35 13 -56z m90 43 c5 -11 10 -29 10 -41 0 -18 -5 -21 -37 -18 -36 3 -38 5 -41 41 -3 35 -2 37 27 37 20 0 34 -7 41 -19z m123 -51 c9 -8 -12 -60 -24 -60 -4 0 -22 14 -40 31 -26 24 -30 32 -19 39 15 9 69 3 83 -10z m-234 -56 c12 -15 21 -30 21 -35 0 -7 -101 -41 -107 -35 -7 7 21 72 35 84 22 17 28 16 51 -14z m106 16 c4 -6 11 -25 15 -42 l9 -30 -42 6 c-55 9 -71 31 -41 60 18 18 50 21 59 6z m70 -24 c20 -20 23 -30 16 -48 -13 -37 -33 -27 -46 25 -13 53 -6 59 30 23z m-40 -82 c19 -9 35 -21 35 -26 0 -5 -21 -18 -46 -30 -63 -27 -164 -22 -196 10 -26 26 -19 37 38 58 46 17 119 12 169 -12z"/>
 <path d="M3566 1844 c-9 -22 -9 -22 21 -26 20 -2 36 -15 53 -41 23 -37 25 -38 34 -17 7 16 5 24 -12 36 -12 8 -22 19 -22 25 0 12 33 12 47 -2 7 -7 12 -4 16 10 6 24 6 24 -45 12 -27 -6 -42 -5 -55 5 -23 18 -30 17 -37 -2z"/>
 <path d="M550 1841 c-14 -4 -26 -15 -28 -24 -6 -30 54 -144 152 -291 106 -159 126 -208 126 -304 -1 -116 -72 -270 -177 -380 -21 -23 -45 -53 -53 -67 -7 -14 -17 -25 -22 -25 -5 0 -6 -4 -3 -10 3 -5 1 -10 -4 -10 -6 0 -10 -3 -9 -7 0 -5 -1 -15 -5 -23 -3 -8 -10 -39 -16 -68 -20 -99 -10 -121 23 -51 11 22 81 107 156 189 88 97 149 174 173 219 76 140 96 311 57 467 -29 112 -158 366 -192 375 -43 11 -152 18 -178 10z m174 -41 c16 -16 -54 -42 -93 -35 -51 9 -88 34 -70 47 16 10 150 1 163 -12z m35 -57 c11 -23 10 -29 -5 -40 -24 -17 -45 -16 -72 3 -30 21 -28 29 16 47 50 20 47 21 61 -10z m-150 6 c26 -9 30 -15 25 -33 -11 -38 -22 -39 -43 -5 -32 52 -30 55 18 38z m76 -71 c28 -13 30 -19 13 -36 -15 -15 -54 -16 -63 -2 -8 13 3 50 15 50 5 0 21 -5 35 -12z m119 -19 c30 -52 2 -75 -59 -47 -31 14 -31 23 0 53 31 32 37 31 59 -6z m-95 -70 c-11 -22 -20 -24 -37 -7 -17 17 -15 26 6 30 30 7 43 -2 31 -23z m161 -74 c21 -61 14 -73 -28 -51 -47 24 -55 39 -38 72 8 16 18 38 21 49 6 19 7 19 16 2 6 -9 19 -42 29 -72z m-77 58 c15 -9 -15 -43 -38 -43 -29 0 -39 13 -30 40 5 16 12 19 33 14 15 -4 30 -9 35 -11z m-13 -90 c27 -25 29 -30 17 -46 -12 -18 -15 -16 -40 22 -15 22 -27 43 -27 46 0 13 22 3 50 -22z m119 -59 c3 -2 0 -17 -5 -32 -12 -34 -52 -41 -78 -13 -14 16 -15 23 -6 41 10 19 17 21 48 15 21 -4 39 -9 41 -11z m-3 -119 c-14 -22 -52 -42 -62 -33 -2 3 -7 19 -10 37 -6 30 -5 32 17 26 14 -3 32 0 44 9 18 13 20 13 23 0 2 -8 -3 -26 -12 -39z m-6 -107 c-35 -28 -60 -23 -60 11 0 24 7 33 38 48 l37 18 3 -30 c3 -21 -3 -35 -18 -47z m4 -55 c-10 -41 -12 -43 -49 -43 -31 0 -33 2 -26 27 5 17 17 30 32 34 45 13 50 11 43 -18z m-24 -71 c0 -2 -17 -36 -37 -74 -26 -50 -68 -103 -145 -182 -59 -61 -110 -119 -114 -128 -3 -10 -9 -18 -14 -18 -12 0 0 37 16 51 8 6 14 16 14 21 0 5 5 14 10 21 70 82 137 176 169 238 37 69 43 76 71 76 16 0 30 -2 30 -5z"/>
 <path d="M4550 1759 c-118 -4 -240 -5 -271 -2 -110 10 -271 -54 -377 -151 -30 -28 -99 -101 -153 -162 -113 -128 -175 -178 -245 -196 -27 -6 -62 -23 -77 -37 -33 -30 -93 -148 -106 -208 -12 -57 2 -67 102 -72 201 -9 362 72 493 249 114 155 188 215 308 252 89 27 195 20 315 -22 127 -45 214 -37 281 24 14 12 50 33 80 45 99 41 250 134 237 147 -2 3 -33 -2 -68 -11 -67 -16 -149 -19 -211 -9 -56 10 -46 21 25 26 52 5 121 23 200 53 12 5 17 2 17 -9 0 -24 15 -20 55 15 42 37 44 49 10 49 -15 0 -40 7 -56 16 l-31 15 4 -27 c3 -28 3 -28 -72 -49 -8 -2 -33 -11 -55 -18 -49 -18 -159 -31 -151 -18 3 4 38 28 78 51 107 64 104 64 -332 49z m295 -35 c-11 -8 -46 -29 -77 -47 -32 -17 -58 -35 -58 -39 0 -13 72 -45 128 -57 29 -6 81 -11 115 -12 l62 -1 -97 -46 c-53 -26 -107 -56 -120 -68 -23 -21 -61 -38 -109 -48 -17 -4 -66 7 -130 28 -57 19 -134 37 -171 41 -81 8 -96 22 -67 59 l21 27 -28 31 -29 30 32 27 c30 25 31 28 16 44 -9 9 -14 20 -10 23 4 4 105 10 224 14 356 11 321 12 298 -6z m-612 -19 c-22 -30 -34 -31 -50 -6 -13 21 -4 27 45 30 23 1 23 1 5 -24z m71 -8 c16 -25 -26 -66 -48 -47 -20 16 -20 29 1 52 19 21 32 20 47 -5z m-129 -17 l29 -30 -27 -27 -26 -27 -25 23 c-24 23 -24 24 -8 57 8 19 19 34 22 34 3 0 19 -14 35 -30z m-85 -10 c-6 -11 -16 -17 -25 -14 -27 11 -13 31 23 33 10 1 10 -4 2 -19z m-32 -36 c2 -1 -9 -14 -23 -28 -26 -26 -28 -26 -51 -11 -13 8 -24 17 -24 19 0 2 14 13 32 24 25 16 36 18 48 9 8 -6 16 -12 18 -13z m201 -17 c8 -10 4 -20 -17 -41 -29 -26 -29 -26 -47 -6 -17 19 -17 21 0 40 21 23 48 26 64 7z m-146 -14 c14 -16 14 -20 -4 -42 -17 -21 -23 -22 -44 -13 -31 14 -32 36 -3 56 28 20 31 20 51 -1z m-144 -22 c28 -21 21 -41 -14 -41 -29 0 -50 31 -33 48 15 15 19 15 47 -7z m336 -11 c4 -6 -1 -22 -10 -36 -9 -14 -14 -32 -11 -41 10 -24 -18 -9 -34 20 -13 23 -13 28 4 46 21 23 41 27 51 11z m-126 -14 c14 -17 -17 -78 -38 -74 -28 6 -36 34 -18 62 19 29 39 33 56 12z m-269 -20 c6 -8 21 -16 33 -18 14 -2 22 -10 22 -23 0 -15 -8 -21 -31 -23 -28 -3 -33 1 -43 29 -6 18 -11 36 -11 40 0 14 16 11 30 -5z m143 -5 c30 -16 34 -32 13 -50 -18 -15 -76 -3 -76 16 0 19 20 55 28 51 4 -2 19 -10 35 -17z m168 -68 c-54 -25 -68 -7 -30 41 l21 27 18 -28 c17 -28 17 -28 -9 -40z m-351 37 c0 -11 0 -23 1 -27 0 -5 -8 -10 -17 -11 -25 -6 -36 20 -17 40 21 24 33 23 33 -2z m253 -34 c24 -18 21 -28 -13 -48 -31 -17 -44 -11 -35 16 3 9 7 23 10 31 5 18 15 19 38 1z m-95 -12 c17 -5 22 -14 22 -39 0 -29 -3 -32 -22 -28 -34 9 -48 23 -48 49 0 25 9 28 48 18z m-232 -44 c-1 -34 -4 -40 -23 -40 -33 0 -36 15 -7 49 14 17 27 31 29 31 1 0 2 -18 1 -40z m164 26 c0 -8 3 -21 6 -30 10 -25 -52 -22 -66 3 -17 32 -12 41 25 41 24 0 35 -5 35 -14z m-86 -12 c11 -28 7 -34 -23 -34 -33 0 -44 11 -35 34 8 21 50 21 58 0z m16 -88 c0 -26 -5 -35 -22 -40 -42 -11 -48 -7 -48 27 0 41 5 47 42 47 25 0 28 -3 28 -34z m84 7 c9 -35 -16 -63 -42 -47 -35 22 -27 74 12 74 17 0 26 -7 30 -27z m46 12 c-12 -15 -30 -12 -30 6 0 5 10 9 21 9 18 0 19 -2 9 -15z m-244 -5 c21 0 24 -5 24 -35 0 -32 -2 -35 -30 -35 -31 0 -50 22 -50 60 0 16 4 20 16 16 9 -3 27 -6 40 -6z m-64 -56 c16 -35 16 -35 -10 -45 -33 -13 -52 -5 -52 22 0 21 26 59 39 59 4 0 14 -16 23 -36z m222 -22 c7 -12 -43 -84 -53 -77 -5 2 -14 19 -21 36 -11 26 -11 32 1 40 18 11 66 12 73 1z m-296 -29 c12 -27 16 -53 8 -53 -3 0 -16 4 -30 10 -28 10 -34 38 -14 58 17 17 21 15 36 -15z m198 -5 c6 -18 15 -41 19 -51 7 -16 3 -18 -36 -15 -43 3 -44 4 -47 41 -3 31 1 39 20 46 33 14 32 14 44 -21z m-84 -33 c2 -20 2 -38 -1 -40 -2 -3 -22 -5 -43 -5 -36 0 -38 2 -38 30 0 25 5 31 33 39 17 5 35 10 38 10 4 1 9 -15 11 -34z m-179 6 c7 -27 -7 -44 -31 -37 -25 8 -37 37 -20 48 22 14 45 9 51 -11z m-79 -23 c11 -42 6 -74 -19 -124 -25 -51 -48 -71 -97 -85 -24 -6 -28 -5 -28 12 0 56 94 219 126 219 6 0 14 -10 18 -22z m153 -22 c1 -1 -3 -19 -9 -39 -12 -39 -24 -45 -51 -24 -15 10 -16 17 -6 45 10 30 15 33 38 27 14 -4 27 -8 28 -9z m-97 -46 c0 -16 6 -31 13 -34 6 -3 -1 -4 -16 -3 -15 1 -27 5 -27 10 0 4 0 20 0 37 0 22 4 28 15 24 8 -4 15 -18 15 -34z m260 -15 c-24 -24 -47 -42 -51 -39 -4 2 -11 18 -14 35 -9 39 4 49 65 49 l44 0 -44 -45z m-104 27 c6 -4 17 -24 24 -46 16 -49 0 -63 -43 -38 -35 20 -41 34 -33 67 6 25 29 32 52 17z m-138 -78 c10 -3 10 -9 2 -23 -5 -11 -10 -29 -10 -40 0 -30 -25 -26 -50 9 -13 19 -19 37 -15 50 6 20 21 20 73 4z m89 -9 c18 -11 33 -23 33 -27 0 -13 -91 -41 -101 -31 -12 12 15 87 28 81 5 -2 23 -12 40 -23z m-162 -57 c15 -22 15 -23 -22 -30 -21 -4 -46 -4 -56 -2 -15 5 -12 9 15 29 42 30 44 30 63 3z"/>
 <path d="M4598 1558 c-16 -5 -28 -16 -28 -24 0 -20 59 -54 95 -54 33 0 95 33 95 50 0 16 -64 40 -102 39 -18 0 -45 -5 -60 -11z m110 -14 c30 -8 28 -19 -8 -34 -30 -12 -62 -9 -90 10 -32 22 39 39 98 24z"/>
 <path d="M4520 1528 c0 -36 89 -88 151 -88 47 0 111 32 134 67 14 21 14 23 0 23 -9 0 -18 -7 -22 -15 -8 -22 -76 -55 -112 -55 -42 0 -73 14 -115 50 -23 21 -36 27 -36 18z"/>
 <path d="M3500 1710 c0 -5 5 -10 10 -10 6 0 10 5 10 10 0 6 -4 10 -10 10 -5 0 -10 -4 -10 -10z"/>
 <path d="M3470 1654 c0 -3 12 -25 26 -50 21 -36 23 -44 10 -44 -9 0 -26 10 -37 21 -17 17 -23 19 -30 8 -13 -21 -11 -28 9 -27 26 2 92 -29 92 -43 0 -9 3 -10 11 -2 7 7 3 25 -15 62 -15 28 -24 51 -21 51 11 0 50 -23 58 -34 5 -8 10 -6 17 4 14 21 12 33 -3 27 -8 -3 -33 3 -57 14 -43 20 -60 23 -60 13z"/>
 <path d="M1304 1570 c-25 -47 -28 -60 -17 -65 21 -7 20 -8 26 23 14 64 40 68 41 7 1 -25 6 -35 17 -35 14 0 13 8 -5 65 -11 36 -22 65 -25 65 -4 0 -20 -27 -37 -60z"/>
 <path d="M1443 1603 c4 -3 10 -3 14 0 3 4 0 7 -7 7 -7 0 -10 -3 -7 -7z"/>
 <path d="M2394 1402 c-29 -19 -32 -27 -43 -103 -25 -164 -66 -256 -151 -332 -62 -56 -133 -82 -201 -74 -60 7 -139 47 -172 87 -43 50 -107 38 -226 -43 -49 -33 -87 -103 -77 -142 10 -39 101 -130 163 -162 150 -80 342 -89 531 -24 170 59 275 148 348 295 50 103 81 213 90 325 8 95 -4 119 -80 156 -73 36 -142 42 -182 17z m124 -23 c33 -7 59 -20 78 -40 l29 -31 -24 -19 c-55 -45 -211 1 -211 62 0 37 44 46 128 28z m-55 -122 c8 -2 2 -16 -16 -40 -32 -42 -38 -44 -61 -18 -14 15 -16 29 -11 64 l7 45 34 -23 c19 -13 40 -25 47 -28z m158 -50 c-16 -43 -40 -45 -73 -9 -36 42 -35 52 5 52 18 0 42 6 53 14 17 13 19 13 22 -8 2 -12 -2 -34 -7 -49z m-81 -47 c0 -12 -59 -60 -73 -60 -7 0 -20 12 -30 25 -18 25 -18 25 19 69 l37 44 23 -34 c13 -19 24 -39 24 -44z m-150 -1 c9 -16 8 -25 -6 -40 -18 -20 -44 -26 -44 -10 0 5 3 23 6 40 7 36 28 41 44 10z m219 -41 c-5 -18 -9 -34 -9 -35 0 -12 -23 2 -36 22 -20 30 -11 45 26 45 28 0 28 -1 19 -32z m-179 -18 c0 -5 14 -13 31 -18 l32 -8 -37 -32 c-46 -40 -61 -40 -82 0 -16 30 -15 32 7 49 26 20 49 24 49 9z m129 -13 c24 -27 21 -46 -10 -66 -18 -11 -24 -10 -38 3 -13 13 -13 20 -3 36 6 11 12 27 12 35 0 21 13 19 39 -8z m-208 -39 c7 -18 14 -35 16 -38 2 -3 -10 -11 -27 -17 -43 -16 -59 6 -37 52 21 43 32 44 48 3z m139 -63 c-26 -31 -52 -39 -66 -20 -11 15 -9 21 19 40 27 19 34 20 46 9 12 -11 12 -16 1 -29z m90 21 c0 -8 -41 -96 -45 -96 -10 0 -33 57 -27 66 11 15 72 41 72 30z m-792 -44 c2 -12 -9 -45 -25 -74 -46 -84 -145 -133 -197 -95 -48 35 45 139 163 182 45 17 55 14 59 -13z m508 7 c16 -17 16 -22 4 -29 -13 -8 -47 -5 -58 5 -6 5 18 45 27 45 4 0 16 -9 27 -21z m108 -14 c15 -23 15 -25 -3 -35 -35 -18 -58 -12 -65 17 -12 46 40 60 68 18z m-548 -87 c-17 -15 -34 -27 -38 -28 -12 0 -20 41 -14 76 l7 33 38 -27 39 -27 -32 -27z m650 47 c17 -33 17 -36 2 -52 -16 -16 -19 -16 -37 1 -31 28 -36 55 -14 71 25 20 28 19 49 -20z m-268 9 c23 -7 27 -28 16 -71 -7 -25 -42 -31 -62 -11 -22 22 -9 89 18 88 3 0 15 -3 28 -6z m95 -26 c37 -35 40 -65 8 -76 -14 -5 -31 -7 -38 -5 -18 7 -28 70 -13 88 16 19 15 19 43 -7z m115 -38 l33 -39 -27 -7 c-33 -9 -56 5 -69 40 -7 21 -6 29 5 36 21 14 22 14 58 -30z m-302 3 c-8 -16 -21 -37 -29 -47 -14 -19 -14 -19 -36 3 -28 28 -24 41 19 56 57 20 63 19 46 -12z m-153 -37 c-16 -17 -29 -33 -31 -35 -6 -11 -31 37 -32 60 0 26 0 26 45 16 l45 -10 -27 -31z m-87 27 c3 -10 12 -31 20 -47 14 -27 13 -30 -11 -52 -14 -13 -28 -24 -30 -24 -6 0 -55 73 -55 83 0 10 50 57 62 57 5 0 11 -8 14 -17z m-116 -13 c0 -10 -31 -23 -38 -15 -8 7 19 35 29 29 5 -3 9 -9 9 -14z m311 -60 c14 0 -41 -59 -55 -60 -16 0 -56 42 -56 59 0 8 10 25 21 37 l22 23 27 -29 c16 -17 34 -30 41 -30z m129 3 c0 -12 3 -28 6 -37 8 -22 -11 -20 -63 5 -46 22 -51 33 -28 66 14 20 16 20 49 4 24 -11 35 -23 36 -38z m54 22 c3 -8 12 -15 21 -15 11 0 15 -10 15 -35 0 -31 -3 -35 -25 -35 -30 0 -49 37 -39 76 7 27 19 31 28 9z m-459 -29 c16 -33 16 -36 -4 -57 -17 -19 -23 -20 -36 -9 -15 13 -45 62 -45 75 0 7 39 23 57 24 7 1 19 -15 28 -33z m588 20 l39 -13 -43 -37 c-50 -42 -55 -43 -63 -13 -9 36 -7 65 7 70 18 8 19 8 60 -7z m-715 -32 c18 -4 34 -15 41 -30 15 -34 16 -32 -31 -45 -39 -10 -44 -9 -60 11 -28 35 -22 65 13 69 4 1 20 -2 37 -5z m-88 -20 c0 -8 -4 -12 -10 -9 -5 3 -10 10 -10 16 0 5 5 9 10 9 6 0 10 -7 10 -16z m386 -15 l31 -30 -28 -29 c-16 -16 -29 -39 -29 -52 0 -19 -5 -16 -30 22 -36 54 -38 82 -7 103 29 21 26 21 63 -14z m162 3 c20 -15 21 -23 16 -65 -8 -55 -21 -59 -71 -21 -38 29 -42 51 -13 82 25 26 38 27 68 4z m-274 -38 c6 -10 21 -36 34 -57 13 -22 22 -40 20 -42 -8 -8 -103 17 -120 32 -24 22 -23 36 9 67 29 29 41 29 57 0z m454 1 c1 -1 -30 -16 -69 -34 -39 -18 -74 -30 -76 -27 -3 3 -2 21 1 41 l7 36 67 -6 c37 -4 68 -9 70 -10z m-562 -31 c-4 -9 -1 -23 5 -31 10 -11 8 -12 -15 -3 -15 5 -37 15 -49 22 -21 11 -21 11 -2 19 11 4 31 8 44 8 17 1 22 -3 17 -15z m324 -52 c1 -12 -94 -20 -102 -8 -12 18 -9 25 17 52 l26 25 29 -31 c16 -17 29 -34 30 -38z"/>
 <path d="M2070 1400 c0 -5 5 -10 11 -10 5 0 7 5 4 10 -3 6 -8 10 -11 10 -2 0 -4 -4 -4 -10z"/>
 <path d="M621 1384 c0 -11 3 -14 6 -6 3 7 2 16 -1 19 -3 4 -6 -2 -5 -13z"/>
 <path d="M2007 1365 c-21 -15 -22 -25 -2 -25 8 0 15 -4 15 -9 0 -5 3 -17 7 -27 6 -15 2 -14 -26 5 -18 13 -34 21 -36 19 -3 -2 0 -19 5 -37 13 -45 -17 -31 -36 17 -1 1 -9 0 -18 -4 -14 -5 -10 -13 24 -41 22 -19 40 -41 40 -49 0 -8 4 -14 9 -14 18 0 22 20 12 55 -11 40 -4 43 33 14 16 -13 33 -18 44 -14 11 4 13 8 5 13 -7 4 -22 30 -35 59 -21 44 -26 49 -41 38z"/>
 <path d="M720 1341 c0 -6 4 -11 9 -11 18 0 21 -33 5 -51 -21 -23 -52 -24 -82 -3 -26 18 -27 27 -6 48 14 14 14 16 0 16 -24 0 -31 -46 -12 -75 24 -36 89 -36 112 1 13 19 15 32 8 51 -9 27 -34 44 -34 24z"/>
 <path d="M4225 1163 c-44 -9 -48 -13 -36 -27 7 -8 13 -36 14 -63 l2 -50 45 10 c53 11 54 12 45 27 -5 8 -10 9 -14 2 -3 -5 -15 -12 -26 -14 -15 -2 -21 3 -23 21 -3 21 -1 23 22 17 27 -7 32 0 17 23 -6 9 -11 10 -15 2 -14 -21 -36 -12 -36 15 0 25 3 26 34 21 28 -4 34 -3 29 9 -5 14 -20 16 -58 7z"/>
 <path d="M4305 1160 c3 -5 8 -10 11 -10 2 0 4 5 4 10 0 6 -5 10 -11 10 -5 0 -7 -4 -4 -10z"/>
 <path d="M630 1140 c0 -5 5 -10 10 -10 6 0 10 5 10 10 0 6 -4 10 -10 10 -5 0 -10 -4 -10 -10z"/>
 <path d="M597 1093 c-13 -12 -7 -61 8 -67 17 -6 21 9 5 19 -15 9 -12 35 4 35 8 0 24 -14 36 -31 29 -40 65 -37 65 5 0 17 -6 31 -15 34 -12 4 -13 2 -2 -9 16 -18 15 -39 -3 -39 -8 0 -21 14 -30 30 -15 29 -51 41 -68 23z"/>
 <path d="M4060 1090 c0 -5 5 -10 10 -10 6 0 10 5 10 10 0 6 -4 10 -10 10 -5 0 -10 -4 -10 -10z"/>
 <path d="M4005 1040 c-9 -27 -20 -50 -25 -50 -10 0 -22 48 -15 60 4 6 -3 10 -14 10 -12 0 -21 -4 -21 -10 0 -5 4 -10 9 -10 12 0 35 -86 26 -100 -5 -8 -1 -11 11 -8 12 2 23 20 33 51 8 26 18 47 22 47 10 0 21 -49 14 -60 -4 -6 3 -10 14 -10 21 0 28 14 12 24 -4 3 -14 26 -21 51 -7 25 -16 48 -21 50 -4 3 -15 -17 -24 -45z"/>
 <path d="M2480 620 c0 -5 5 -10 10 -10 6 0 10 5 10 10 0 6 -4 10 -10 10 -5 0 -10 -4 -10 -10z"/>
 <path d="M2429 588 c-14 -10 -11 -16 23 -50 21 -21 38 -45 38 -54 0 -13 5 -12 31 6 23 17 29 29 27 49 -3 29 -39 41 -63 21 -11 -9 -16 -7 -24 8 -6 11 -7 22 -4 26 10 10 -11 6 -28 -6z m99 -61 c2 -10 -3 -17 -11 -17 -16 0 -30 24 -19 34 10 10 27 1 30 -17z"/>
 <path d="M294 268 l-29 -23 2575 -5 c1416 -3 2577 -3 2580 -2 3 2 -8 15 -23 28 l-28 24 -2523 0 -2523 0 -29 -22z"/>
 <path d="M147 122 c-26 -26 -47 -51 -47 -55 0 -4 1238 -7 2752 -7 l2752 0 -54 55 -54 55 -2651 0 -2651 0 -47 -48z"/>
 </g>

</svg>