<svg xmlns="http://www.w3.org/2000/svg" width="1024pt" height="1024" viewBox="0 0 1024 768"><path d="M0 0h1024v768H0z" style="fill:#fff;fill-opacity:1;stroke:none"/><path d="M459.168 363.766c2.785 3.027 2.785 7.937 0 10.964-2.781 3.028-7.297 3.028-10.078 0-2.785-3.027-2.785-7.937 0-10.964 2.781-3.028 7.297-3.028 10.078 0ZM320.168 155.766c2.785 3.027 2.785 7.937 0 10.964-2.781 3.028-7.297 3.028-10.078 0-2.785-3.027-2.785-7.937 0-10.964 2.781-3.028 7.297-3.028 10.078 0ZM676.168 406.766c2.785 3.027 2.785 7.937 0 10.964-2.781 3.028-7.297 3.028-10.078 0-2.785-3.027-2.785-7.937 0-10.964 2.781-3.028 7.297-3.028 10.078 0ZM403.168 574.766c2.785 3.027 2.785 7.937 0 10.964-2.781 3.028-7.297 3.028-10.078 0-2.785-3.027-2.785-7.937 0-10.964 2.781-3.028 7.297-3.028 10.078 0ZM797.168 87.766c2.785 3.027 2.785 7.937 0 10.964-2.781 3.028-7.297 3.028-10.078 0-2.785-3.027-2.785-7.937 0-10.964 2.781-3.028 7.297-3.028 10.078 0ZM269.168 463.766c2.785 3.027 2.785 7.937 0 10.964-2.781 3.028-7.297 3.028-10.078 0-2.785-3.027-2.785-7.937 0-10.964 2.781-3.028 7.297-3.028 10.078 0ZM695.168 526.766c2.785 3.027 2.785 7.937 0 10.964-2.781 3.028-7.297 3.028-10.078 0-2.785-3.027-2.785-7.937 0-10.964 2.781-3.028 7.297-3.028 10.078 0ZM318.168 404.766c2.785 3.027 2.785 7.937 0 10.964-2.781 3.028-7.297 3.028-10.078 0-2.785-3.027-2.785-7.937 0-10.964 2.781-3.028 7.297-3.028 10.078 0ZM485.168 128.52c2.785 3.027 2.785 7.933 0 10.96-2.781 3.028-7.297 3.028-10.078 0-2.785-3.027-2.785-7.933 0-10.96 2.781-3.028 7.297-3.028 10.078 0ZM189.168 242.766c2.785 3.027 2.785 7.937 0 10.964-2.781 3.028-7.297 3.028-10.078 0-2.785-3.027-2.785-7.937 0-10.964 2.781-3.028 7.297-3.028 10.078 0ZM520.168 390.766c2.785 3.027 2.785 7.937 0 10.964-2.781 3.028-7.297 3.028-10.078 0-2.785-3.027-2.785-7.937 0-10.964 2.781-3.028 7.297-3.028 10.078 0ZM262.168 615.766c2.785 3.027 2.785 7.937 0 10.964-2.781 3.028-7.297 3.028-10.078 0-2.785-3.027-2.785-7.937 0-10.964 2.781-3.028 7.297-3.028 10.078 0ZM656.168 128.766c2.785 3.027 2.785 7.937 0 10.964-2.781 3.028-7.297 3.028-10.078 0-2.785-3.027-2.785-7.937 0-10.964 2.781-3.028 7.297-3.028 10.078 0ZM128.168 504.766c2.785 3.027 2.785 7.937 0 10.964-2.781 3.028-7.297 3.028-10.078 0-2.785-3.027-2.785-7.937 0-10.964 2.781-3.028 7.297-3.028 10.078 0ZM600.168 665.266c2.785 3.027 2.785 7.937 0 10.964-2.781 3.028-7.297 3.028-10.078 0-2.785-3.027-2.785-7.937 0-10.964 2.781-3.028 7.297-3.028 10.078 0ZM652.668 628.266c2.785 3.027 2.785 7.937 0 10.964-2.781 3.028-7.297 3.028-10.078 0-2.785-3.027-2.785-7.937 0-10.964 2.781-3.028 7.297-3.028 10.078 0ZM905.668 549.266c2.785 3.027 2.785 7.937 0 10.964-2.781 3.028-7.297 3.028-10.078 0-2.785-3.027-2.785-7.937 0-10.964 2.781-3.028 7.297-3.028 10.078 0ZM931.668 654.266c2.785 3.027 2.785 7.937 0 10.964-2.781 3.028-7.297 3.028-10.078 0-2.785-3.027-2.785-7.937 0-10.964 2.781-3.028 7.297-3.028 10.078 0ZM740.668 665.266c2.785 3.027 2.785 7.937 0 10.964-2.781 3.028-7.297 3.028-10.078 0-2.785-3.027-2.785-7.937 0-10.964 2.781-3.028 7.297-3.028 10.078 0ZM947.168 255.766c2.785 3.027 2.785 7.937 0 10.964-2.781 3.028-7.297 3.028-10.078 0-2.785-3.027-2.785-7.937 0-10.964 2.781-3.028 7.297-3.028 10.078 0ZM965.168 438.766c2.785 3.027 2.785 7.937 0 10.964-2.781 3.028-7.297 3.028-10.078 0-2.785-3.027-2.785-7.937 0-10.964 2.781-3.028 7.297-3.028 10.078 0ZM179.668 40.766c2.785 3.027 2.785 7.937 0 10.964-2.781 3.028-7.297 3.028-10.078 0-2.785-3.027-2.785-7.937 0-10.964 2.781-3.028 7.297-3.028 10.078 0ZM62.668 143.766c2.785 3.027 2.785 7.937 0 10.964-2.781 3.028-7.297 3.028-10.078 0-2.785-3.027-2.785-7.937 0-10.964 2.781-3.028 7.297-3.028 10.078 0ZM194.168 721.766c2.785 3.027 2.785 7.937 0 10.964-2.781 3.028-7.297 3.028-10.078 0-2.785-3.027-2.785-7.937 0-10.964 2.781-3.028 7.297-3.028 10.078 0ZM53.168 496.52c2.785 3.027 2.785 7.933 0 10.96-2.781 3.028-7.297 3.028-10.078 0-2.785-3.027-2.785-7.933 0-10.96 2.781-3.028 7.297-3.028 10.078 0ZM216.168 538.766c2.785 3.027 2.785 7.937 0 10.964-2.781 3.028-7.297 3.028-10.078 0-2.785-3.027-2.785-7.937 0-10.964 2.781-3.028 7.297-3.028 10.078 0ZM350.168 298.777c2.785 3.028 2.785 7.934 0 10.961-2.781 3.028-7.297 3.028-10.078 0-2.785-3.027-2.785-7.933 0-10.96 2.781-3.028 7.297-3.028 10.078 0ZM629.168 335.219c2.785 3.027 2.785 7.933 0 10.96-2.781 3.028-7.297 3.028-10.078 0-2.785-3.027-2.785-7.933 0-10.96 2.781-3.028 7.297-3.028 10.078 0ZM473.168 291.777c2.785 3.028 2.785 7.934 0 10.961-2.781 3.028-7.297 3.028-10.078 0-2.785-3.027-2.785-7.933 0-10.96 2.781-3.028 7.297-3.028 10.078 0Zm0 0" style="stroke:none;fill-rule:nonzero;fill:#000;fill-opacity:1"/></svg>