<svg xmlns="http://www.w3.org/2000/svg" width="1024pt" height="1024" viewBox="0 0 1024 768"><path d="M0 0h1024v768H0z" style="fill:#fff;fill-opacity:1;stroke:none"/><path d="M459.168 363.766c2.785 3.027 2.785 7.937 0 10.964-2.781 3.028-7.297 3.028-10.078 0-2.785-3.027-2.785-7.937 0-10.964 2.781-3.028 7.297-3.028 10.078 0ZM629.168 335.219c2.785 3.027 2.785 7.933 0 10.96-2.781 3.028-7.297 3.028-10.078 0-2.785-3.027-2.785-7.933 0-10.96 2.781-3.028 7.297-3.028 10.078 0ZM320.168 155.766c2.785 3.027 2.785 7.937 0 10.964-2.781 3.028-7.297 3.028-10.078 0-2.785-3.027-2.785-7.937 0-10.964 2.781-3.028 7.297-3.028 10.078 0ZM676.168 406.766c2.785 3.027 2.785 7.937 0 10.964-2.781 3.028-7.297 3.028-10.078 0-2.785-3.027-2.785-7.937 0-10.964 2.781-3.028 7.297-3.028 10.078 0ZM403.168 574.766c2.785 3.027 2.785 7.937 0 10.964-2.781 3.028-7.297 3.028-10.078 0-2.785-3.027-2.785-7.937 0-10.964 2.781-3.028 7.297-3.028 10.078 0ZM797.168 87.766c2.785 3.027 2.785 7.937 0 10.964-2.781 3.028-7.297 3.028-10.078 0-2.785-3.027-2.785-7.937 0-10.964 2.781-3.028 7.297-3.028 10.078 0ZM269.168 463.766c2.785 3.027 2.785 7.937 0 10.964-2.781 3.028-7.297 3.028-10.078 0-2.785-3.027-2.785-7.937 0-10.964 2.781-3.028 7.297-3.028 10.078 0ZM695.168 526.766c2.785 3.027 2.785 7.937 0 10.964-2.781 3.028-7.297 3.028-10.078 0-2.785-3.027-2.785-7.937 0-10.964 2.781-3.028 7.297-3.028 10.078 0ZM318.168 404.766c2.785 3.027 2.785 7.937 0 10.964-2.781 3.028-7.297 3.028-10.078 0-2.785-3.027-2.785-7.937 0-10.964 2.781-3.028 7.297-3.028 10.078 0ZM485.168 128.52c2.785 3.027 2.785 7.933 0 10.96-2.781 3.028-7.297 3.028-10.078 0-2.785-3.027-2.785-7.933 0-10.96 2.781-3.028 7.297-3.028 10.078 0ZM189.168 242.766c2.785 3.027 2.785 7.937 0 10.964-2.781 3.028-7.297 3.028-10.078 0-2.785-3.027-2.785-7.937 0-10.964 2.781-3.028 7.297-3.028 10.078 0ZM520.168 390.766c2.785 3.027 2.785 7.937 0 10.964-2.781 3.028-7.297 3.028-10.078 0-2.785-3.027-2.785-7.937 0-10.964 2.781-3.028 7.297-3.028 10.078 0ZM262.168 615.766c2.785 3.027 2.785 7.937 0 10.964-2.781 3.028-7.297 3.028-10.078 0-2.785-3.027-2.785-7.937 0-10.964 2.781-3.028 7.297-3.028 10.078 0ZM656.168 128.766c2.785 3.027 2.785 7.937 0 10.964-2.781 3.028-7.297 3.028-10.078 0-2.785-3.027-2.785-7.937 0-10.964 2.781-3.028 7.297-3.028 10.078 0ZM128.168 504.766c2.785 3.027 2.785 7.937 0 10.964-2.781 3.028-7.297 3.028-10.078 0-2.785-3.027-2.785-7.937 0-10.964 2.781-3.028 7.297-3.028 10.078 0ZM600.168 665.266c2.785 3.027 2.785 7.937 0 10.964-2.781 3.028-7.297 3.028-10.078 0-2.785-3.027-2.785-7.937 0-10.964 2.781-3.028 7.297-3.028 10.078 0ZM652.668 628.266c2.785 3.027 2.785 7.937 0 10.964-2.781 3.028-7.297 3.028-10.078 0-2.785-3.027-2.785-7.937 0-10.964 2.781-3.028 7.297-3.028 10.078 0ZM905.668 549.266c2.785 3.027 2.785 7.937 0 10.964-2.781 3.028-7.297 3.028-10.078 0-2.785-3.027-2.785-7.937 0-10.964 2.781-3.028 7.297-3.028 10.078 0ZM931.668 654.266c2.785 3.027 2.785 7.937 0 10.964-2.781 3.028-7.297 3.028-10.078 0-2.785-3.027-2.785-7.937 0-10.964 2.781-3.028 7.297-3.028 10.078 0ZM740.668 665.266c2.785 3.027 2.785 7.937 0 10.964-2.781 3.028-7.297 3.028-10.078 0-2.785-3.027-2.785-7.937 0-10.964 2.781-3.028 7.297-3.028 10.078 0ZM947.168 255.766c2.785 3.027 2.785 7.937 0 10.964-2.781 3.028-7.297 3.028-10.078 0-2.785-3.027-2.785-7.937 0-10.964 2.781-3.028 7.297-3.028 10.078 0ZM965.168 438.766c2.785 3.027 2.785 7.937 0 10.964-2.781 3.028-7.297 3.028-10.078 0-2.785-3.027-2.785-7.937 0-10.964 2.781-3.028 7.297-3.028 10.078 0ZM179.668 40.766c2.785 3.027 2.785 7.937 0 10.964-2.781 3.028-7.297 3.028-10.078 0-2.785-3.027-2.785-7.937 0-10.964 2.781-3.028 7.297-3.028 10.078 0ZM62.668 143.766c2.785 3.027 2.785 7.937 0 10.964-2.781 3.028-7.297 3.028-10.078 0-2.785-3.027-2.785-7.937 0-10.964 2.781-3.028 7.297-3.028 10.078 0ZM194.168 721.766c2.785 3.027 2.785 7.937 0 10.964-2.781 3.028-7.297 3.028-10.078 0-2.785-3.027-2.785-7.937 0-10.964 2.781-3.028 7.297-3.028 10.078 0ZM53.168 496.52c2.785 3.027 2.785 7.933 0 10.96-2.781 3.028-7.297 3.028-10.078 0-2.785-3.027-2.785-7.933 0-10.96 2.781-3.028 7.297-3.028 10.078 0ZM216.168 538.766c2.785 3.027 2.785 7.937 0 10.964-2.781 3.028-7.297 3.028-10.078 0-2.785-3.027-2.785-7.937 0-10.964 2.781-3.028 7.297-3.028 10.078 0Zm0 0" style="stroke:none;fill-rule:nonzero;fill:#000;fill-opacity:1"/><path d="M0 0h254.089" style="fill:none;stroke-width:2;stroke-linecap:butt;stroke-linejoin:miter;stroke:#000;stroke-opacity:1;stroke-miterlimit:4" transform="rotate(-13.796 1581.942 199.232)"/><path d="M0 33.959 265.977.002" style="fill:none;stroke-width:2;stroke-linecap:butt;stroke-linejoin:miter;stroke:#000;stroke-opacity:1;stroke-miterlimit:4" transform="translate(512.129 470.244)"/><path d="m.001 100 100-100" style="fill:none;stroke-width:2;stroke-linecap:butt;stroke-linejoin:miter;stroke:#000;stroke-opacity:1;stroke-miterlimit:4" transform="translate(246.417 224.293)"/><path d="m0 .001 685.68 154.484" style="fill:none;stroke-width:2;stroke-linecap:butt;stroke-linejoin:miter;stroke:#000;stroke-opacity:1;stroke-miterlimit:4" transform="translate(347.53 227.014)"/><path d="M.001 249.38 82.595.003" style="fill:none;stroke-width:2;stroke-linecap:butt;stroke-linejoin:miter;stroke:#000;stroke-opacity:1;stroke-miterlimit:4" transform="translate(345.417 -25.13)"/><path d="m.002 0 264.023 177.648" style="fill:none;stroke-width:2;stroke-linecap:butt;stroke-linejoin:miter;stroke:#000;stroke-opacity:1;stroke-miterlimit:4" transform="translate(247.432 325.516)"/><path d="M-.001 296.644 118.74-.001" style="fill:none;stroke-width:2;stroke-linecap:butt;stroke-linejoin:miter;stroke:#000;stroke-opacity:1;stroke-miterlimit:4" transform="translate(393.403 503.833)"/><path d="M0 130.118 70.332.001" style="fill:none;stroke-width:2;stroke-linecap:butt;stroke-linejoin:miter;stroke:#000;stroke-opacity:1;stroke-miterlimit:4" transform="translate(777.684 341.589)"/><path d="M110.168 324.188 0 .001" style="fill:none;stroke-width:2;stroke-linecap:butt;stroke-linejoin:miter;stroke:#000;stroke-opacity:1;stroke-miterlimit:4" transform="translate(777.89 473.714)"/><path d="M350.168 298.777c2.785 3.028 2.785 7.934 0 10.961-2.781 3.028-7.297 3.028-10.078 0-2.785-3.027-2.785-7.933 0-10.96 2.781-3.028 7.297-3.028 10.078 0ZM473.168 291.777c2.785 3.028 2.785 7.934 0 10.961-2.781 3.028-7.297 3.028-10.078 0-2.785-3.027-2.785-7.933 0-10.96 2.781-3.028 7.297-3.028 10.078 0Zm0 0" style="stroke:none;fill-rule:nonzero;fill:#000;fill-opacity:1"/></svg>