<svg xmlns="http://www.w3.org/2000/svg" width="477.867" height="358.4"><path style="stroke:none;fill-rule:nonzero;fill:#fff;fill-opacity:1" d="M0 0h477.867v358.398H0Zm0 0"/><path style="stroke:none;fill-rule:nonzero;fill:#000;fill-opacity:1" d="M214.277 169.758c1.301 1.414 1.301 3.703 0 5.117-1.297 1.41-3.402 1.41-4.703 0-1.297-1.414-1.297-3.703 0-5.117 1.301-1.414 3.406-1.414 4.703 0ZM293.613 156.434c1.297 1.414 1.297 3.703 0 5.117-1.3 1.414-3.406 1.414-4.703 0-1.3-1.414-1.3-3.703 0-5.117 1.297-1.41 3.402-1.41 4.703 0ZM149.41 72.691c1.3 1.41 1.3 3.704 0 5.118-1.297 1.41-3.402 1.41-4.703 0-1.297-1.414-1.297-3.707 0-5.118 1.3-1.414 3.406-1.414 4.703 0ZM315.547 189.824c1.297 1.414 1.297 3.703 0 5.117-1.3 1.414-3.406 1.414-4.703 0-1.301-1.414-1.301-3.703 0-5.117 1.297-1.414 3.402-1.414 4.703 0ZM188.145 268.223c1.3 1.414 1.3 3.707 0 5.117-1.297 1.414-3.407 1.414-4.704 0-1.3-1.41-1.3-3.703 0-5.117 1.297-1.41 3.407-1.41 4.704 0ZM372.012 40.957c1.3 1.414 1.3 3.703 0 5.117-1.297 1.414-3.407 1.414-4.703 0-1.301-1.414-1.301-3.703 0-5.117 1.296-1.414 3.406-1.414 4.703 0ZM125.613 216.426c1.297 1.41 1.297 3.703 0 5.113-1.3 1.414-3.406 1.414-4.703 0-1.3-1.41-1.3-3.703 0-5.113 1.297-1.414 3.403-1.414 4.703 0ZM324.41 245.824c1.3 1.414 1.3 3.703 0 5.117-1.297 1.414-3.402 1.414-4.703 0-1.297-1.414-1.297-3.703 0-5.117 1.3-1.414 3.406-1.414 4.703 0ZM148.477 188.89c1.3 1.415 1.3 3.704 0 5.118-1.297 1.414-3.403 1.414-4.704 0-1.296-1.414-1.296-3.703 0-5.117 1.301-1.414 3.407-1.414 4.704 0ZM226.41 59.977c1.3 1.41 1.3 3.703 0 5.113-1.297 1.414-3.402 1.414-4.703 0-1.297-1.41-1.297-3.703 0-5.113 1.3-1.414 3.406-1.414 4.703 0ZM88.277 113.29c1.301 1.413 1.301 3.706 0 5.116-1.297 1.414-3.402 1.414-4.703 0-1.297-1.41-1.297-3.703 0-5.117 1.301-1.41 3.406-1.41 4.703 0ZM242.746 182.355c1.297 1.415 1.297 3.708 0 5.118-1.3 1.414-3.406 1.414-4.703 0-1.3-1.41-1.3-3.703 0-5.118 1.297-1.41 3.402-1.41 4.703 0ZM122.344 287.355c1.3 1.415 1.3 3.707 0 5.118-1.297 1.414-3.403 1.414-4.703 0-1.297-1.41-1.297-3.703 0-5.118 1.3-1.41 3.406-1.41 4.703 0ZM306.21 60.09c1.302 1.414 1.302 3.703 0 5.117-1.296 1.414-3.405 1.414-4.702 0-1.301-1.414-1.301-3.703 0-5.117 1.297-1.41 3.406-1.41 4.703 0ZM59.813 235.559c1.3 1.41 1.3 3.703 0 5.117-1.297 1.41-3.407 1.41-4.704 0-1.3-1.414-1.3-3.707 0-5.117 1.297-1.414 3.407-1.414 4.703 0ZM280.078 310.457c1.3 1.414 1.3 3.703 0 5.117-1.297 1.414-3.406 1.414-4.703 0-1.3-1.414-1.3-3.703 0-5.117 1.297-1.414 3.406-1.414 4.703 0ZM304.578 293.191c1.3 1.41 1.3 3.704 0 5.118-1.297 1.41-3.406 1.41-4.703 0-1.3-1.414-1.3-3.707 0-5.118 1.297-1.414 3.406-1.414 4.703 0ZM422.645 256.324c1.3 1.414 1.3 3.703 0 5.117-1.297 1.414-3.407 1.414-4.704 0-1.3-1.414-1.3-3.703 0-5.117 1.297-1.414 3.407-1.414 4.704 0ZM434.777 305.324c1.301 1.414 1.301 3.703 0 5.117-1.297 1.414-3.402 1.414-4.703 0-1.297-1.414-1.297-3.703 0-5.117 1.301-1.414 3.406-1.414 4.703 0ZM345.645 310.457c1.3 1.414 1.3 3.703 0 5.117-1.297 1.414-3.407 1.414-4.704 0-1.3-1.414-1.3-3.703 0-5.117 1.297-1.414 3.407-1.414 4.704 0ZM442.012 119.355c1.3 1.415 1.3 3.707 0 5.118-1.297 1.414-3.407 1.414-4.703 0-1.301-1.41-1.301-3.703 0-5.118 1.296-1.41 3.406-1.41 4.703 0ZM450.41 204.758c1.3 1.414 1.3 3.703 0 5.117-1.297 1.41-3.402 1.41-4.703 0-1.297-1.414-1.297-3.703 0-5.117 1.3-1.414 3.406-1.414 4.703 0ZM83.844 19.023c1.3 1.415 1.3 3.704 0 5.118-1.297 1.414-3.403 1.414-4.703 0-1.297-1.414-1.297-3.703 0-5.118 1.3-1.414 3.406-1.414 4.703 0ZM29.246 67.09c1.297 1.414 1.297 3.703 0 5.117-1.3 1.414-3.406 1.414-4.703 0-1.3-1.414-1.3-3.703 0-5.117 1.297-1.41 3.402-1.41 4.703 0ZM90.613 336.824c1.297 1.414 1.297 3.703 0 5.117-1.3 1.414-3.406 1.414-4.703 0-1.3-1.414-1.3-3.703 0-5.117 1.297-1.414 3.403-1.414 4.703 0ZM24.813 231.71c1.3 1.411 1.3 3.7 0 5.114-1.297 1.414-3.407 1.414-4.704 0-1.3-1.414-1.3-3.703 0-5.113 1.297-1.414 3.407-1.414 4.703 0ZM100.879 251.426c1.3 1.41 1.3 3.703 0 5.113-1.297 1.414-3.406 1.414-4.703 0-1.301-1.41-1.301-3.703 0-5.113 1.297-1.414 3.406-1.414 4.703 0Zm0 0"/><path style="fill:none;stroke-width:2;stroke-linecap:butt;stroke-linejoin:miter;stroke:#000;stroke-opacity:1;stroke-miterlimit:4" d="M-.004.001H254.09" transform="matrix(.4532 -.11129 .11129 .4532 -.873 178.733)"/><path style="fill:none;stroke-width:2;stroke-linecap:butt;stroke-linejoin:miter;stroke:#000;stroke-opacity:1;stroke-miterlimit:4" d="M-.003 33.955 265.98.005" transform="matrix(.46667 0 0 .46667 238.993 219.447)"/><path style="fill:none;stroke-width:2;stroke-linecap:butt;stroke-linejoin:miter;stroke:#000;stroke-opacity:1;stroke-miterlimit:4" d="M.003 99.998 99.998.004" transform="matrix(.46667 0 0 .46667 114.994 104.67)"/><path style="fill:none;stroke-width:2;stroke-linecap:butt;stroke-linejoin:miter;stroke:#000;stroke-opacity:1;stroke-miterlimit:4" d="m-.003.003 685.68 154.486" transform="matrix(.46667 0 0 .46667 162.181 105.94)"/><path style="fill:none;stroke-width:2;stroke-linecap:butt;stroke-linejoin:miter;stroke:#000;stroke-opacity:1;stroke-miterlimit:4" d="M.002 249.377 82.594.002" transform="matrix(.46667 0 0 .46667 161.194 -11.728)"/><path style="fill:none;stroke-width:2;stroke-linecap:butt;stroke-linejoin:miter;stroke:#000;stroke-opacity:1;stroke-miterlimit:4" d="m.001-.002 264.023 177.648" transform="matrix(.46667 0 0 .46667 115.468 151.907)"/><path style="fill:none;stroke-width:2;stroke-linecap:butt;stroke-linejoin:miter;stroke:#000;stroke-opacity:1;stroke-miterlimit:4" d="M-.005 296.642 118.739-.002" transform="matrix(.46667 0 0 .46667 183.588 235.122)"/><path style="fill:none;stroke-width:2;stroke-linecap:butt;stroke-linejoin:miter;stroke:#000;stroke-opacity:1;stroke-miterlimit:4" d="M-.002 130.116 70.335.004" transform="matrix(.46667 0 0 .46667 362.92 159.408)"/><path style="fill:none;stroke-width:2;stroke-linecap:butt;stroke-linejoin:miter;stroke:#000;stroke-opacity:1;stroke-miterlimit:4" d="M110.165 324.19 0 0" transform="matrix(.46667 0 0 .46667 363.016 221.067)"/><path style="stroke:none;fill-rule:nonzero;fill:#000;fill-opacity:1" d="M163.41 139.43c1.3 1.414 1.3 3.703 0 5.113-1.297 1.414-3.402 1.414-4.703 0-1.297-1.41-1.297-3.7 0-5.113 1.3-1.414 3.406-1.414 4.703 0ZM220.813 136.164c1.3 1.41 1.3 3.7 0 5.113-1.297 1.414-3.407 1.414-4.704 0-1.3-1.414-1.3-3.703 0-5.113 1.297-1.414 3.407-1.414 4.703 0Zm0 0"/></svg>