<?xml version="1.0" encoding="utf-8" standalone="no"?>
<!DOCTYPE svg PUBLIC "-//W3C//DTD SVG 1.1//EN"
  "http://www.w3.org/Graphics/SVG/1.1/DTD/svg11.dtd">
<svg xmlns:xlink="http://www.w3.org/1999/xlink" width="432pt" height="252pt" viewBox="0 0 432 252" xmlns="http://www.w3.org/2000/svg" version="1.1">
 <metadata>
  <rdf:RDF xmlns:dc="http://purl.org/dc/elements/1.1/" xmlns:cc="http://creativecommons.org/ns#" xmlns:rdf="http://www.w3.org/1999/02/22-rdf-syntax-ns#">
   <cc:Work>
    <dc:type rdf:resource="http://purl.org/dc/dcmitype/StillImage"/>
    <dc:date>2024-07-22T08:00:23.339448</dc:date>
    <dc:format>image/svg+xml</dc:format>
    <dc:creator>
     <cc:Agent>
      <dc:title>Matplotlib v3.8.4, https://matplotlib.org/</dc:title>
     </cc:Agent>
    </dc:creator>
   </cc:Work>
  </rdf:RDF>
 </metadata>
 <defs>
  <style type="text/css">*{stroke-linejoin: round; stroke-linecap: butt}</style>
 </defs>
 <g id="figure_1">
  <g id="patch_1">
   <path d="M 0 252 
L 432 252 
L 432 0 
L 0 0 
z
" style="fill: #ffffff"/>
  </g>
  <g id="axes_1">
   <g id="patch_2">
    <path d="M 61.22 224.84 
L 228.495936 224.84 
L 228.495936 48.12 
L 61.22 48.12 
z
" style="fill: #ffffff"/>
   </g>
   <g id="matplotlib.axis_1">
    <g id="xtick_1">
     <g id="line2d_1">
      <defs>
       <path id="m68e8d842c7" d="M 0 0 
L 0 3.5 
" style="stroke: #000000; stroke-width: 0.8"/>
      </defs>
      <g>
       <use xlink:href="#m68e8d842c7" x="95.659163" y="224.84" style="stroke: #000000; stroke-width: 0.8"/>
      </g>
     </g>
     <g id="text_1">
      <!-- 2010 -->
      <g transform="translate(84.39432 239.260312) scale(0.1 -0.1)">
       <defs>
        <path id="Montserrat-Regular-32" d="M 250 0 
L 250 326 
L 2112 2150 
Q 2368 2400 2496 2589 
Q 2624 2778 2669 2944 
Q 2714 3110 2714 3258 
Q 2714 3648 2448 3872 
Q 2182 4096 1664 4096 
Q 1267 4096 963 3974 
Q 659 3853 442 3597 
L 115 3878 
Q 378 4186 787 4352 
Q 1197 4518 1702 4518 
Q 2157 4518 2489 4374 
Q 2822 4230 3004 3955 
Q 3187 3680 3187 3309 
Q 3187 3091 3126 2880 
Q 3066 2669 2909 2435 
Q 2752 2202 2451 1907 
L 742 230 
L 614 410 
L 3392 410 
L 3392 0 
L 250 0 
z
" transform="scale(0.015625)"/>
        <path id="Montserrat-Regular-30" d="M 2118 -38 
Q 1600 -38 1197 234 
Q 794 506 563 1014 
Q 333 1523 333 2240 
Q 333 2957 563 3465 
Q 794 3974 1197 4246 
Q 1600 4518 2118 4518 
Q 2637 4518 3040 4246 
Q 3443 3974 3676 3465 
Q 3910 2957 3910 2240 
Q 3910 1523 3676 1014 
Q 3443 506 3040 234 
Q 2637 -38 2118 -38 
z
M 2118 384 
Q 2515 384 2809 598 
Q 3104 813 3270 1225 
Q 3437 1638 3437 2240 
Q 3437 2842 3270 3254 
Q 3104 3667 2809 3881 
Q 2515 4096 2118 4096 
Q 1734 4096 1433 3881 
Q 1133 3667 966 3254 
Q 800 2842 800 2240 
Q 800 1638 966 1225 
Q 1133 813 1433 598 
Q 1734 384 2118 384 
z
" transform="scale(0.015625)"/>
        <path id="Montserrat-Regular-31" d="M 1114 0 
L 1114 4288 
L 1318 4070 
L 58 4070 
L 58 4480 
L 1574 4480 
L 1574 0 
L 1114 0 
z
" transform="scale(0.015625)"/>
       </defs>
       <use xlink:href="#Montserrat-Regular-32"/>
       <use xlink:href="#Montserrat-Regular-30" x="56.799988"/>
       <use xlink:href="#Montserrat-Regular-31" x="122.999985"/>
       <use xlink:href="#Montserrat-Regular-30" x="159.099976"/>
      </g>
     </g>
    </g>
    <g id="xtick_2">
     <g id="line2d_2">
      <g>
       <use xlink:href="#m68e8d842c7" x="144.857968" y="224.84" style="stroke: #000000; stroke-width: 0.8"/>
      </g>
     </g>
     <g id="text_2">
      <!-- 2015 -->
      <g transform="translate(134.073593 239.260312) scale(0.1 -0.1)">
       <defs>
        <path id="Montserrat-Regular-35" d="M 1747 -38 
Q 1267 -38 832 118 
Q 397 275 141 538 
L 365 902 
Q 576 678 944 531 
Q 1312 384 1741 384 
Q 2310 384 2608 637 
Q 2906 890 2906 1299 
Q 2906 1587 2768 1795 
Q 2630 2003 2304 2118 
Q 1978 2234 1408 2234 
L 454 2234 
L 685 4480 
L 3136 4480 
L 3136 4070 
L 870 4070 
L 1107 4294 
L 909 2413 
L 672 2643 
L 1510 2643 
Q 2189 2643 2598 2476 
Q 3008 2310 3190 2012 
Q 3373 1715 3373 1318 
Q 3373 941 3193 630 
Q 3014 320 2656 141 
Q 2298 -38 1747 -38 
z
" transform="scale(0.015625)"/>
       </defs>
       <use xlink:href="#Montserrat-Regular-32"/>
       <use xlink:href="#Montserrat-Regular-30" x="56.799988"/>
       <use xlink:href="#Montserrat-Regular-31" x="122.999985"/>
       <use xlink:href="#Montserrat-Regular-35" x="159.099976"/>
      </g>
     </g>
    </g>
    <g id="xtick_3">
     <g id="line2d_3">
      <g>
       <use xlink:href="#m68e8d842c7" x="194.056773" y="224.84" style="stroke: #000000; stroke-width: 0.8"/>
      </g>
     </g>
     <g id="text_3">
      <!-- 2020 -->
      <g transform="translate(181.756773 239.260312) scale(0.1 -0.1)">
       <use xlink:href="#Montserrat-Regular-32"/>
       <use xlink:href="#Montserrat-Regular-30" x="56.799988"/>
       <use xlink:href="#Montserrat-Regular-32" x="122.999985"/>
       <use xlink:href="#Montserrat-Regular-30" x="179.799973"/>
      </g>
     </g>
    </g>
    <g id="xtick_4">
     <g id="line2d_4">
      <g>
       <use xlink:href="#m68e8d842c7" x="223.576055" y="224.84" style="stroke: #000000; stroke-width: 0.8"/>
      </g>
     </g>
     <g id="text_4">
      <!-- 2023 -->
      <g transform="translate(211.765899 239.260312) scale(0.1 -0.1)">
       <defs>
        <path id="Montserrat-Regular-33" d="M 1670 -38 
Q 1184 -38 752 118 
Q 320 275 58 538 
L 282 902 
Q 499 678 867 531 
Q 1235 384 1670 384 
Q 2227 384 2524 627 
Q 2822 870 2822 1280 
Q 2822 1690 2531 1933 
Q 2240 2176 1613 2176 
L 1293 2176 
L 1293 2515 
L 2675 4250 
L 2739 4070 
L 243 4070 
L 243 4480 
L 3123 4480 
L 3123 4154 
L 1741 2419 
L 1517 2566 
L 1690 2566 
Q 2496 2566 2896 2208 
Q 3296 1850 3296 1286 
Q 3296 909 3117 608 
Q 2938 307 2576 134 
Q 2214 -38 1670 -38 
z
" transform="scale(0.015625)"/>
       </defs>
       <use xlink:href="#Montserrat-Regular-32"/>
       <use xlink:href="#Montserrat-Regular-30" x="56.799988"/>
       <use xlink:href="#Montserrat-Regular-32" x="122.999985"/>
       <use xlink:href="#Montserrat-Regular-33" x="179.799973"/>
      </g>
     </g>
    </g>
   </g>
   <g id="matplotlib.axis_2">
    <g id="ytick_1">
     <g id="text_5">
      <!-- 0 -->
      <g transform="translate(47.599688 228.550156) scale(0.1 -0.1)">
       <use xlink:href="#Montserrat-Regular-30"/>
      </g>
     </g>
    </g>
    <g id="ytick_2">
     <g id="text_6">
      <!-- 2000 -->
      <g transform="translate(28.679375 205.861458) scale(0.1 -0.1)">
       <use xlink:href="#Montserrat-Regular-32"/>
       <use xlink:href="#Montserrat-Regular-30" x="56.799988"/>
       <use xlink:href="#Montserrat-Regular-30" x="122.999985"/>
       <use xlink:href="#Montserrat-Regular-30" x="189.199982"/>
      </g>
     </g>
    </g>
    <g id="ytick_3">
     <g id="text_7">
      <!-- 4000 -->
      <g transform="translate(27.749688 183.17276) scale(0.1 -0.1)">
       <defs>
        <path id="Montserrat-Regular-34" d="M 256 1178 
L 256 1510 
L 2630 4480 
L 3142 4480 
L 787 1510 
L 538 1587 
L 4141 1587 
L 4141 1178 
L 256 1178 
z
M 2784 0 
L 2784 1178 
L 2797 1587 
L 2797 2624 
L 3245 2624 
L 3245 0 
L 2784 0 
z
" transform="scale(0.015625)"/>
       </defs>
       <use xlink:href="#Montserrat-Regular-34"/>
       <use xlink:href="#Montserrat-Regular-30" x="66.099991"/>
       <use xlink:href="#Montserrat-Regular-30" x="132.299988"/>
       <use xlink:href="#Montserrat-Regular-30" x="198.499985"/>
      </g>
     </g>
    </g>
    <g id="ytick_4">
     <g id="text_8">
      <!-- 6000 -->
      <g transform="translate(28.268438 160.484062) scale(0.1 -0.1)">
       <defs>
        <path id="Montserrat-Regular-36" d="M 2170 -38 
Q 1574 -38 1164 227 
Q 755 493 544 995 
Q 333 1498 333 2202 
Q 333 2963 592 3478 
Q 851 3994 1312 4256 
Q 1773 4518 2381 4518 
Q 2682 4518 2957 4460 
Q 3232 4403 3443 4275 
L 3258 3904 
Q 3085 4019 2861 4067 
Q 2637 4115 2387 4115 
Q 1664 4115 1232 3654 
Q 800 3194 800 2278 
Q 800 2138 816 1930 
Q 832 1722 890 1517 
L 730 1638 
Q 800 1971 1005 2204 
Q 1210 2438 1517 2560 
Q 1824 2682 2189 2682 
Q 2637 2682 2976 2515 
Q 3315 2349 3507 2048 
Q 3699 1747 3699 1338 
Q 3699 922 3500 611 
Q 3302 301 2953 131 
Q 2605 -38 2170 -38 
z
M 2150 352 
Q 2470 352 2716 470 
Q 2963 589 3104 809 
Q 3245 1030 3245 1325 
Q 3245 1766 2941 2028 
Q 2637 2291 2118 2291 
Q 1773 2291 1517 2163 
Q 1261 2035 1113 1814 
Q 966 1594 966 1312 
Q 966 1069 1100 848 
Q 1235 627 1500 489 
Q 1766 352 2150 352 
z
" transform="scale(0.015625)"/>
       </defs>
       <use xlink:href="#Montserrat-Regular-36"/>
       <use xlink:href="#Montserrat-Regular-30" x="60.899994"/>
       <use xlink:href="#Montserrat-Regular-30" x="127.099991"/>
       <use xlink:href="#Montserrat-Regular-30" x="193.299988"/>
      </g>
     </g>
    </g>
    <g id="ytick_5">
     <g id="text_9">
      <!-- 8000 -->
      <g transform="translate(27.979375 137.795364) scale(0.1 -0.1)">
       <defs>
        <path id="Montserrat-Regular-38" d="M 2035 -38 
Q 1498 -38 1110 115 
Q 723 269 515 560 
Q 307 851 307 1248 
Q 307 1632 508 1904 
Q 710 2176 1097 2323 
Q 1485 2470 2035 2470 
Q 2579 2470 2969 2323 
Q 3360 2176 3568 1904 
Q 3776 1632 3776 1248 
Q 3776 851 3565 560 
Q 3354 269 2963 115 
Q 2573 -38 2035 -38 
z
M 2035 352 
Q 2630 352 2966 595 
Q 3302 838 3302 1254 
Q 3302 1670 2966 1910 
Q 2630 2150 2035 2150 
Q 1440 2150 1107 1910 
Q 774 1670 774 1254 
Q 774 838 1107 595 
Q 1440 352 2035 352 
z
M 2035 2208 
Q 1536 2208 1187 2342 
Q 838 2477 652 2729 
Q 467 2982 467 3334 
Q 467 3706 662 3971 
Q 858 4237 1210 4377 
Q 1562 4518 2035 4518 
Q 2509 4518 2864 4377 
Q 3219 4237 3417 3971 
Q 3616 3706 3616 3334 
Q 3616 2982 3430 2729 
Q 3245 2477 2889 2342 
Q 2534 2208 2035 2208 
z
M 2035 2515 
Q 2560 2515 2854 2732 
Q 3149 2950 3149 3315 
Q 3149 3699 2845 3913 
Q 2541 4128 2035 4128 
Q 1530 4128 1229 3913 
Q 928 3699 928 3322 
Q 928 2950 1219 2732 
Q 1510 2515 2035 2515 
z
" transform="scale(0.015625)"/>
       </defs>
       <use xlink:href="#Montserrat-Regular-38"/>
       <use xlink:href="#Montserrat-Regular-30" x="63.799988"/>
       <use xlink:href="#Montserrat-Regular-30" x="129.999985"/>
       <use xlink:href="#Montserrat-Regular-30" x="196.199982"/>
      </g>
     </g>
    </g>
    <g id="ytick_6">
     <g id="text_10">
      <!-- 10000 -->
      <g transform="translate(24.129375 115.106666) scale(0.1 -0.1)">
       <use xlink:href="#Montserrat-Regular-31"/>
       <use xlink:href="#Montserrat-Regular-30" x="36.099991"/>
       <use xlink:href="#Montserrat-Regular-30" x="102.299988"/>
       <use xlink:href="#Montserrat-Regular-30" x="168.499985"/>
       <use xlink:href="#Montserrat-Regular-30" x="234.699982"/>
      </g>
     </g>
    </g>
    <g id="ytick_7">
     <g id="text_11">
      <!-- 12000 -->
      <g transform="translate(25.07 92.417968) scale(0.1 -0.1)">
       <use xlink:href="#Montserrat-Regular-31"/>
       <use xlink:href="#Montserrat-Regular-32" x="36.099991"/>
       <use xlink:href="#Montserrat-Regular-30" x="92.899979"/>
       <use xlink:href="#Montserrat-Regular-30" x="159.099976"/>
       <use xlink:href="#Montserrat-Regular-30" x="225.299973"/>
      </g>
     </g>
    </g>
    <g id="ytick_8">
     <g id="text_12">
      <!-- 14000 -->
      <g transform="translate(24.140313 69.72927) scale(0.1 -0.1)">
       <use xlink:href="#Montserrat-Regular-31"/>
       <use xlink:href="#Montserrat-Regular-34" x="36.099991"/>
       <use xlink:href="#Montserrat-Regular-30" x="102.199982"/>
       <use xlink:href="#Montserrat-Regular-30" x="168.399979"/>
       <use xlink:href="#Montserrat-Regular-30" x="234.599976"/>
      </g>
     </g>
    </g>
    <g id="text_13">
     <!-- Number of people -->
     <g transform="translate(18.18875 182.376094) rotate(-90) scale(0.1 -0.1)">
      <defs>
       <path id="Montserrat-Regular-4e" d="M 730 0 
L 730 4480 
L 1120 4480 
L 4211 589 
L 4006 589 
L 4006 4480 
L 4474 4480 
L 4474 0 
L 4083 0 
L 998 3891 
L 1203 3891 
L 1203 0 
L 730 0 
z
" transform="scale(0.015625)"/>
       <path id="Montserrat-Regular-75" d="M 2022 -32 
Q 1594 -32 1274 128 
Q 954 288 778 608 
Q 602 928 602 1408 
L 602 3360 
L 1056 3360 
L 1056 1459 
Q 1056 922 1321 650 
Q 1587 378 2067 378 
Q 2419 378 2678 522 
Q 2938 666 3075 941 
Q 3213 1216 3213 1600 
L 3213 3360 
L 3667 3360 
L 3667 0 
L 3232 0 
L 3232 922 
L 3302 755 
Q 3142 384 2806 176 
Q 2470 -32 2022 -32 
z
" transform="scale(0.015625)"/>
       <path id="Montserrat-Regular-6d" d="M 4832 3392 
Q 5242 3392 5546 3235 
Q 5850 3078 6019 2758 
Q 6189 2438 6189 1952 
L 6189 0 
L 5734 0 
L 5734 1907 
Q 5734 2438 5481 2710 
Q 5229 2982 4768 2982 
Q 4422 2982 4169 2838 
Q 3917 2694 3779 2422 
Q 3642 2150 3642 1766 
L 3642 0 
L 3187 0 
L 3187 1907 
Q 3187 2438 2931 2710 
Q 2675 2982 2214 2982 
Q 1875 2982 1619 2838 
Q 1363 2694 1225 2422 
Q 1088 2150 1088 1766 
L 1088 0 
L 634 0 
L 634 3360 
L 1069 3360 
L 1069 2451 
L 998 2611 
Q 1152 2976 1494 3184 
Q 1837 3392 2304 3392 
Q 2797 3392 3142 3145 
Q 3488 2899 3590 2406 
L 3411 2477 
Q 3558 2886 3932 3139 
Q 4307 3392 4832 3392 
z
" transform="scale(0.015625)"/>
       <path id="Montserrat-Regular-62" d="M 2368 -32 
Q 1926 -32 1574 169 
Q 1222 371 1017 755 
Q 813 1139 813 1683 
Q 813 2234 1021 2614 
Q 1229 2995 1581 3193 
Q 1933 3392 2368 3392 
Q 2848 3392 3229 3177 
Q 3610 2963 3827 2579 
Q 4045 2195 4045 1683 
Q 4045 1178 3827 790 
Q 3610 403 3229 185 
Q 2848 -32 2368 -32 
z
M 634 0 
L 634 4749 
L 1088 4749 
L 1088 2368 
L 1024 1690 
L 1069 1011 
L 1069 0 
L 634 0 
z
M 2336 371 
Q 2694 371 2976 534 
Q 3258 698 3424 995 
Q 3590 1293 3590 1683 
Q 3590 2080 3424 2374 
Q 3258 2669 2976 2832 
Q 2694 2995 2336 2995 
Q 1978 2995 1693 2832 
Q 1408 2669 1245 2374 
Q 1082 2080 1082 1683 
Q 1082 1293 1245 995 
Q 1408 698 1693 534 
Q 1978 371 2336 371 
z
" transform="scale(0.015625)"/>
       <path id="Montserrat-Regular-65" d="M 2061 -32 
Q 1536 -32 1139 189 
Q 742 410 518 797 
Q 294 1184 294 1683 
Q 294 2182 508 2566 
Q 723 2950 1097 3171 
Q 1472 3392 1939 3392 
Q 2413 3392 2781 3177 
Q 3149 2963 3360 2576 
Q 3571 2189 3571 1683 
Q 3571 1651 3568 1616 
Q 3565 1581 3565 1542 
L 640 1542 
L 640 1882 
L 3322 1882 
L 3142 1747 
Q 3142 2112 2985 2397 
Q 2829 2682 2560 2842 
Q 2291 3002 1939 3002 
Q 1594 3002 1318 2842 
Q 1043 2682 889 2394 
Q 736 2106 736 1734 
L 736 1664 
Q 736 1280 905 989 
Q 1075 698 1379 534 
Q 1683 371 2074 371 
Q 2381 371 2646 480 
Q 2912 589 3104 813 
L 3360 518 
Q 3136 250 2800 109 
Q 2464 -32 2061 -32 
z
" transform="scale(0.015625)"/>
       <path id="Montserrat-Regular-72" d="M 634 0 
L 634 3360 
L 1069 3360 
L 1069 2445 
L 1024 2605 
Q 1165 2989 1497 3190 
Q 1830 3392 2323 3392 
L 2323 2950 
Q 2298 2950 2272 2953 
Q 2246 2957 2221 2957 
Q 1690 2957 1389 2633 
Q 1088 2310 1088 1715 
L 1088 0 
L 634 0 
z
" transform="scale(0.015625)"/>
       <path id="Montserrat-Regular-20" transform="scale(0.015625)"/>
       <path id="Montserrat-Regular-6f" d="M 2003 -32 
Q 1517 -32 1129 189 
Q 742 410 518 797 
Q 294 1184 294 1683 
Q 294 2189 518 2573 
Q 742 2957 1126 3174 
Q 1510 3392 2003 3392 
Q 2502 3392 2889 3174 
Q 3277 2957 3497 2573 
Q 3718 2189 3718 1683 
Q 3718 1184 3497 797 
Q 3277 410 2886 189 
Q 2496 -32 2003 -32 
z
M 2003 371 
Q 2368 371 2649 534 
Q 2931 698 3094 995 
Q 3258 1293 3258 1683 
Q 3258 2080 3094 2374 
Q 2931 2669 2649 2832 
Q 2368 2995 2010 2995 
Q 1651 2995 1369 2832 
Q 1088 2669 921 2374 
Q 755 2080 755 1683 
Q 755 1293 921 995 
Q 1088 698 1369 534 
Q 1651 371 2003 371 
z
" transform="scale(0.015625)"/>
       <path id="Montserrat-Regular-66" d="M 710 0 
L 710 3782 
Q 710 4230 972 4505 
Q 1235 4781 1728 4781 
Q 1920 4781 2099 4729 
Q 2278 4678 2400 4570 
L 2246 4230 
Q 2150 4314 2022 4355 
Q 1894 4397 1747 4397 
Q 1459 4397 1305 4237 
Q 1152 4077 1152 3763 
L 1152 3251 
L 1165 3040 
L 1165 0 
L 710 0 
z
M 109 2982 
L 109 3360 
L 2189 3360 
L 2189 2982 
L 109 2982 
z
" transform="scale(0.015625)"/>
       <path id="Montserrat-Regular-70" d="M 2368 -32 
Q 1933 -32 1581 169 
Q 1229 371 1021 752 
Q 813 1133 813 1683 
Q 813 2234 1017 2614 
Q 1222 2995 1574 3193 
Q 1926 3392 2368 3392 
Q 2848 3392 3229 3177 
Q 3610 2963 3827 2576 
Q 4045 2189 4045 1683 
Q 4045 1171 3827 787 
Q 3610 403 3229 185 
Q 2848 -32 2368 -32 
z
M 634 -1242 
L 634 3360 
L 1069 3360 
L 1069 2349 
L 1024 1677 
L 1088 998 
L 1088 -1242 
L 634 -1242 
z
M 2336 371 
Q 2694 371 2976 534 
Q 3258 698 3424 995 
Q 3590 1293 3590 1683 
Q 3590 2074 3424 2368 
Q 3258 2662 2976 2828 
Q 2694 2995 2336 2995 
Q 1978 2995 1693 2828 
Q 1408 2662 1245 2368 
Q 1082 2074 1082 1683 
Q 1082 1293 1245 995 
Q 1408 698 1693 534 
Q 1978 371 2336 371 
z
" transform="scale(0.015625)"/>
       <path id="Montserrat-Regular-6c" d="M 634 0 
L 634 4749 
L 1088 4749 
L 1088 0 
L 634 0 
z
" transform="scale(0.015625)"/>
      </defs>
      <use xlink:href="#Montserrat-Regular-4e"/>
      <use xlink:href="#Montserrat-Regular-75" x="81.299988"/>
      <use xlink:href="#Montserrat-Regular-6d" x="148.499985"/>
      <use xlink:href="#Montserrat-Regular-62" x="254.599976"/>
      <use xlink:href="#Montserrat-Regular-65" x="322.399963"/>
      <use xlink:href="#Montserrat-Regular-72" x="382.799957"/>
      <use xlink:href="#Montserrat-Regular-20" x="422.899948"/>
      <use xlink:href="#Montserrat-Regular-6f" x="449.099945"/>
      <use xlink:href="#Montserrat-Regular-66" x="511.799942"/>
      <use xlink:href="#Montserrat-Regular-20" x="545.699936"/>
      <use xlink:href="#Montserrat-Regular-70" x="571.899933"/>
      <use xlink:href="#Montserrat-Regular-65" x="639.699921"/>
      <use xlink:href="#Montserrat-Regular-6f" x="700.099915"/>
      <use xlink:href="#Montserrat-Regular-70" x="762.799911"/>
      <use xlink:href="#Montserrat-Regular-6c" x="830.599899"/>
      <use xlink:href="#Montserrat-Regular-65" x="857.499893"/>
     </g>
    </g>
   </g>
   <g id="line2d_5">
    <path d="M 66.13988 56.535238 
L 75.979641 90.296021 
L 85.819402 90.171233 
L 95.659163 87.766231 
L 105.498924 79.292002 
L 115.338685 95.185435 
L 125.178446 104.555867 
L 144.857968 121.33416 
L 154.697729 140.199812 
L 164.53749 144.045546 
L 174.377251 136.637686 
L 184.217012 141.118704 
L 194.056773 135.435185 
L 213.736294 136.626342 
L 223.576055 124.374445 
" clip-path="url(#pfc92f42253)" style="fill: none; stroke: #8d8d8d; stroke-opacity: 0.9; stroke-width: 1.5; stroke-linecap: square"/>
    <defs>
     <path id="m312adc5a6f" d="M 0 0.75 
C 0.198902 0.75 0.389685 0.670975 0.53033 0.53033 
C 0.670975 0.389685 0.75 0.198902 0.75 0 
C 0.75 -0.198902 0.670975 -0.389685 0.53033 -0.53033 
C 0.389685 -0.670975 0.198902 -0.75 0 -0.75 
C -0.198902 -0.75 -0.389685 -0.670975 -0.53033 -0.53033 
C -0.670975 -0.389685 -0.75 -0.198902 -0.75 0 
C -0.75 0.198902 -0.670975 0.389685 -0.53033 0.53033 
C -0.389685 0.670975 -0.198902 0.75 0 0.75 
z
" style="stroke: #8d8d8d; stroke-opacity: 0.9"/>
    </defs>
    <g clip-path="url(#pfc92f42253)">
     <use xlink:href="#m312adc5a6f" x="66.13988" y="56.535238" style="fill: #8d8d8d; fill-opacity: 0.9; stroke: #8d8d8d; stroke-opacity: 0.9"/>
     <use xlink:href="#m312adc5a6f" x="75.979641" y="90.296021" style="fill: #8d8d8d; fill-opacity: 0.9; stroke: #8d8d8d; stroke-opacity: 0.9"/>
     <use xlink:href="#m312adc5a6f" x="85.819402" y="90.171233" style="fill: #8d8d8d; fill-opacity: 0.9; stroke: #8d8d8d; stroke-opacity: 0.9"/>
     <use xlink:href="#m312adc5a6f" x="95.659163" y="87.766231" style="fill: #8d8d8d; fill-opacity: 0.9; stroke: #8d8d8d; stroke-opacity: 0.9"/>
     <use xlink:href="#m312adc5a6f" x="105.498924" y="79.292002" style="fill: #8d8d8d; fill-opacity: 0.9; stroke: #8d8d8d; stroke-opacity: 0.9"/>
     <use xlink:href="#m312adc5a6f" x="115.338685" y="95.185435" style="fill: #8d8d8d; fill-opacity: 0.9; stroke: #8d8d8d; stroke-opacity: 0.9"/>
     <use xlink:href="#m312adc5a6f" x="125.178446" y="104.555867" style="fill: #8d8d8d; fill-opacity: 0.9; stroke: #8d8d8d; stroke-opacity: 0.9"/>
     <use xlink:href="#m312adc5a6f" x="144.857968" y="121.33416" style="fill: #8d8d8d; fill-opacity: 0.9; stroke: #8d8d8d; stroke-opacity: 0.9"/>
     <use xlink:href="#m312adc5a6f" x="154.697729" y="140.199812" style="fill: #8d8d8d; fill-opacity: 0.9; stroke: #8d8d8d; stroke-opacity: 0.9"/>
     <use xlink:href="#m312adc5a6f" x="164.53749" y="144.045546" style="fill: #8d8d8d; fill-opacity: 0.9; stroke: #8d8d8d; stroke-opacity: 0.9"/>
     <use xlink:href="#m312adc5a6f" x="174.377251" y="136.637686" style="fill: #8d8d8d; fill-opacity: 0.9; stroke: #8d8d8d; stroke-opacity: 0.9"/>
     <use xlink:href="#m312adc5a6f" x="184.217012" y="141.118704" style="fill: #8d8d8d; fill-opacity: 0.9; stroke: #8d8d8d; stroke-opacity: 0.9"/>
     <use xlink:href="#m312adc5a6f" x="194.056773" y="135.435185" style="fill: #8d8d8d; fill-opacity: 0.9; stroke: #8d8d8d; stroke-opacity: 0.9"/>
     <use xlink:href="#m312adc5a6f" x="213.736294" y="136.626342" style="fill: #8d8d8d; fill-opacity: 0.9; stroke: #8d8d8d; stroke-opacity: 0.9"/>
     <use xlink:href="#m312adc5a6f" x="223.576055" y="124.374445" style="fill: #8d8d8d; fill-opacity: 0.9; stroke: #8d8d8d; stroke-opacity: 0.9"/>
    </g>
   </g>
   <g id="line2d_6">
    <path d="M 66.13988 186.791053 
L 75.979641 197.295921 
L 85.819402 204.091186 
L 95.659163 204.113874 
L 105.498924 203.716822 
L 115.338685 199.247149 
L 125.178446 200.313517 
L 144.857968 203.31977 
L 154.697729 205.770149 
L 164.53749 206.087791 
L 174.377251 203.081539 
L 184.217012 202.468944 
L 194.056773 200.71057 
L 213.736294 201.958448 
L 223.576055 198.566488 
" clip-path="url(#pfc92f42253)" style="fill: none; stroke: #297fda; stroke-opacity: 0.9; stroke-width: 1.5; stroke-linecap: square"/>
    <defs>
     <path id="m81eaee19ff" d="M 0 0.75 
C 0.198902 0.75 0.389685 0.670975 0.53033 0.53033 
C 0.670975 0.389685 0.75 0.198902 0.75 0 
C 0.75 -0.198902 0.670975 -0.389685 0.53033 -0.53033 
C 0.389685 -0.670975 0.198902 -0.75 0 -0.75 
C -0.198902 -0.75 -0.389685 -0.670975 -0.53033 -0.53033 
C -0.670975 -0.389685 -0.75 -0.198902 -0.75 0 
C -0.75 0.198902 -0.670975 0.389685 -0.53033 0.53033 
C -0.389685 0.670975 -0.198902 0.75 0 0.75 
z
" style="stroke: #297fda; stroke-opacity: 0.9"/>
    </defs>
    <g clip-path="url(#pfc92f42253)">
     <use xlink:href="#m81eaee19ff" x="66.13988" y="186.791053" style="fill: #297fda; fill-opacity: 0.9; stroke: #297fda; stroke-opacity: 0.9"/>
     <use xlink:href="#m81eaee19ff" x="75.979641" y="197.295921" style="fill: #297fda; fill-opacity: 0.9; stroke: #297fda; stroke-opacity: 0.9"/>
     <use xlink:href="#m81eaee19ff" x="85.819402" y="204.091186" style="fill: #297fda; fill-opacity: 0.9; stroke: #297fda; stroke-opacity: 0.9"/>
     <use xlink:href="#m81eaee19ff" x="95.659163" y="204.113874" style="fill: #297fda; fill-opacity: 0.9; stroke: #297fda; stroke-opacity: 0.9"/>
     <use xlink:href="#m81eaee19ff" x="105.498924" y="203.716822" style="fill: #297fda; fill-opacity: 0.9; stroke: #297fda; stroke-opacity: 0.9"/>
     <use xlink:href="#m81eaee19ff" x="115.338685" y="199.247149" style="fill: #297fda; fill-opacity: 0.9; stroke: #297fda; stroke-opacity: 0.9"/>
     <use xlink:href="#m81eaee19ff" x="125.178446" y="200.313517" style="fill: #297fda; fill-opacity: 0.9; stroke: #297fda; stroke-opacity: 0.9"/>
     <use xlink:href="#m81eaee19ff" x="144.857968" y="203.31977" style="fill: #297fda; fill-opacity: 0.9; stroke: #297fda; stroke-opacity: 0.9"/>
     <use xlink:href="#m81eaee19ff" x="154.697729" y="205.770149" style="fill: #297fda; fill-opacity: 0.9; stroke: #297fda; stroke-opacity: 0.9"/>
     <use xlink:href="#m81eaee19ff" x="164.53749" y="206.087791" style="fill: #297fda; fill-opacity: 0.9; stroke: #297fda; stroke-opacity: 0.9"/>
     <use xlink:href="#m81eaee19ff" x="174.377251" y="203.081539" style="fill: #297fda; fill-opacity: 0.9; stroke: #297fda; stroke-opacity: 0.9"/>
     <use xlink:href="#m81eaee19ff" x="184.217012" y="202.468944" style="fill: #297fda; fill-opacity: 0.9; stroke: #297fda; stroke-opacity: 0.9"/>
     <use xlink:href="#m81eaee19ff" x="194.056773" y="200.71057" style="fill: #297fda; fill-opacity: 0.9; stroke: #297fda; stroke-opacity: 0.9"/>
     <use xlink:href="#m81eaee19ff" x="213.736294" y="201.958448" style="fill: #297fda; fill-opacity: 0.9; stroke: #297fda; stroke-opacity: 0.9"/>
     <use xlink:href="#m81eaee19ff" x="223.576055" y="198.566488" style="fill: #297fda; fill-opacity: 0.9; stroke: #297fda; stroke-opacity: 0.9"/>
    </g>
   </g>
   <g id="line2d_7">
    <path d="M 66.13988 196.365684 
L 75.979641 203.569346 
L 85.819402 208.765057 
L 95.659163 208.095741 
L 105.498924 210.444021 
L 115.338685 208.867157 
L 125.178446 210.103691 
L 144.857968 207.970953 
L 154.697729 209.014633 
L 164.53749 210.02428 
L 174.377251 207.471802 
L 184.217012 207.925576 
L 194.056773 207.312981 
L 213.736294 209.615884 
L 223.576055 209.434374 
" clip-path="url(#pfc92f42253)" style="fill: none; stroke: #ff8a46; stroke-opacity: 0.9; stroke-width: 1.5; stroke-linecap: square"/>
    <defs>
     <path id="m80b0e183ca" d="M 0 0.75 
C 0.198902 0.75 0.389685 0.670975 0.53033 0.53033 
C 0.670975 0.389685 0.75 0.198902 0.75 0 
C 0.75 -0.198902 0.670975 -0.389685 0.53033 -0.53033 
C 0.389685 -0.670975 0.198902 -0.75 0 -0.75 
C -0.198902 -0.75 -0.389685 -0.670975 -0.53033 -0.53033 
C -0.670975 -0.389685 -0.75 -0.198902 -0.75 0 
C -0.75 0.198902 -0.670975 0.389685 -0.53033 0.53033 
C -0.389685 0.670975 -0.198902 0.75 0 0.75 
z
" style="stroke: #ff8a46; stroke-opacity: 0.9"/>
    </defs>
    <g clip-path="url(#pfc92f42253)">
     <use xlink:href="#m80b0e183ca" x="66.13988" y="196.365684" style="fill: #ff8a46; fill-opacity: 0.9; stroke: #ff8a46; stroke-opacity: 0.9"/>
     <use xlink:href="#m80b0e183ca" x="75.979641" y="203.569346" style="fill: #ff8a46; fill-opacity: 0.9; stroke: #ff8a46; stroke-opacity: 0.9"/>
     <use xlink:href="#m80b0e183ca" x="85.819402" y="208.765057" style="fill: #ff8a46; fill-opacity: 0.9; stroke: #ff8a46; stroke-opacity: 0.9"/>
     <use xlink:href="#m80b0e183ca" x="95.659163" y="208.095741" style="fill: #ff8a46; fill-opacity: 0.9; stroke: #ff8a46; stroke-opacity: 0.9"/>
     <use xlink:href="#m80b0e183ca" x="105.498924" y="210.444021" style="fill: #ff8a46; fill-opacity: 0.9; stroke: #ff8a46; stroke-opacity: 0.9"/>
     <use xlink:href="#m80b0e183ca" x="115.338685" y="208.867157" style="fill: #ff8a46; fill-opacity: 0.9; stroke: #ff8a46; stroke-opacity: 0.9"/>
     <use xlink:href="#m80b0e183ca" x="125.178446" y="210.103691" style="fill: #ff8a46; fill-opacity: 0.9; stroke: #ff8a46; stroke-opacity: 0.9"/>
     <use xlink:href="#m80b0e183ca" x="144.857968" y="207.970953" style="fill: #ff8a46; fill-opacity: 0.9; stroke: #ff8a46; stroke-opacity: 0.9"/>
     <use xlink:href="#m80b0e183ca" x="154.697729" y="209.014633" style="fill: #ff8a46; fill-opacity: 0.9; stroke: #ff8a46; stroke-opacity: 0.9"/>
     <use xlink:href="#m80b0e183ca" x="164.53749" y="210.02428" style="fill: #ff8a46; fill-opacity: 0.9; stroke: #ff8a46; stroke-opacity: 0.9"/>
     <use xlink:href="#m80b0e183ca" x="174.377251" y="207.471802" style="fill: #ff8a46; fill-opacity: 0.9; stroke: #ff8a46; stroke-opacity: 0.9"/>
     <use xlink:href="#m80b0e183ca" x="184.217012" y="207.925576" style="fill: #ff8a46; fill-opacity: 0.9; stroke: #ff8a46; stroke-opacity: 0.9"/>
     <use xlink:href="#m80b0e183ca" x="194.056773" y="207.312981" style="fill: #ff8a46; fill-opacity: 0.9; stroke: #ff8a46; stroke-opacity: 0.9"/>
     <use xlink:href="#m80b0e183ca" x="213.736294" y="209.615884" style="fill: #ff8a46; fill-opacity: 0.9; stroke: #ff8a46; stroke-opacity: 0.9"/>
     <use xlink:href="#m80b0e183ca" x="223.576055" y="209.434374" style="fill: #ff8a46; fill-opacity: 0.9; stroke: #ff8a46; stroke-opacity: 0.9"/>
    </g>
   </g>
   <g id="patch_3">
    <path d="M 61.22 224.84 
L 228.495936 224.84 
" style="fill: none; stroke: #000000; stroke-width: 0.8; stroke-linejoin: miter; stroke-linecap: square"/>
   </g>
   <g id="text_14">
    <!-- Sheltered homeless -->
    <g transform="translate(85.241405 42.12) scale(0.12 -0.12)">
     <defs>
      <path id="Montserrat-Regular-53" d="M 1965 -38 
Q 1466 -38 1008 125 
Q 550 288 301 544 
L 486 909 
Q 723 678 1123 521 
Q 1523 365 1965 365 
Q 2387 365 2652 470 
Q 2918 576 3043 755 
Q 3168 934 3168 1152 
Q 3168 1414 3017 1574 
Q 2867 1734 2624 1827 
Q 2381 1920 2086 1990 
Q 1792 2061 1497 2141 
Q 1203 2221 956 2355 
Q 710 2490 560 2710 
Q 410 2931 410 3290 
Q 410 3622 586 3900 
Q 762 4179 1126 4348 
Q 1491 4518 2061 4518 
Q 2438 4518 2809 4412 
Q 3181 4307 3450 4122 
L 3290 3744 
Q 3002 3936 2678 4025 
Q 2355 4115 2054 4115 
Q 1651 4115 1388 4006 
Q 1126 3898 1001 3715 
Q 877 3533 877 3302 
Q 877 3040 1027 2880 
Q 1178 2720 1424 2630 
Q 1670 2541 1964 2470 
Q 2259 2400 2550 2317 
Q 2842 2234 3088 2102 
Q 3334 1971 3484 1753 
Q 3635 1536 3635 1184 
Q 3635 858 3456 579 
Q 3277 301 2909 131 
Q 2541 -38 1965 -38 
z
" transform="scale(0.015625)"/>
      <path id="Montserrat-Regular-68" d="M 2349 3392 
Q 2758 3392 3068 3235 
Q 3379 3078 3555 2758 
Q 3731 2438 3731 1952 
L 3731 0 
L 3277 0 
L 3277 1907 
Q 3277 2438 3011 2710 
Q 2746 2982 2266 2982 
Q 1907 2982 1641 2838 
Q 1376 2694 1232 2422 
Q 1088 2150 1088 1766 
L 1088 0 
L 634 0 
L 634 4749 
L 1088 4749 
L 1088 2438 
L 998 2611 
Q 1158 2976 1510 3184 
Q 1862 3392 2349 3392 
z
" transform="scale(0.015625)"/>
      <path id="Montserrat-Regular-74" d="M 1696 -32 
Q 1222 -32 966 224 
Q 710 480 710 947 
L 710 4102 
L 1165 4102 
L 1165 973 
Q 1165 678 1315 518 
Q 1466 358 1747 358 
Q 2048 358 2246 531 
L 2406 205 
Q 2272 83 2083 25 
Q 1894 -32 1696 -32 
z
M 109 2982 
L 109 3360 
L 2189 3360 
L 2189 2982 
L 109 2982 
z
" transform="scale(0.015625)"/>
      <path id="Montserrat-Regular-64" d="M 1971 -32 
Q 1491 -32 1110 185 
Q 730 403 512 790 
Q 294 1178 294 1683 
Q 294 2195 512 2579 
Q 730 2963 1110 3177 
Q 1491 3392 1971 3392 
Q 2413 3392 2761 3193 
Q 3110 2995 3318 2614 
Q 3526 2234 3526 1683 
Q 3526 1139 3321 755 
Q 3117 371 2768 169 
Q 2419 -32 1971 -32 
z
M 2003 371 
Q 2362 371 2646 534 
Q 2931 698 3094 995 
Q 3258 1293 3258 1683 
Q 3258 2080 3094 2374 
Q 2931 2669 2646 2832 
Q 2362 2995 2003 2995 
Q 1651 2995 1369 2832 
Q 1088 2669 921 2374 
Q 755 2080 755 1683 
Q 755 1293 921 995 
Q 1088 698 1369 534 
Q 1651 371 2003 371 
z
M 3270 0 
L 3270 1011 
L 3315 1690 
L 3251 2368 
L 3251 4749 
L 3706 4749 
L 3706 0 
L 3270 0 
z
" transform="scale(0.015625)"/>
      <path id="Montserrat-Regular-73" d="M 1536 -32 
Q 1120 -32 749 86 
Q 378 205 166 384 
L 371 742 
Q 576 589 896 477 
Q 1216 365 1568 365 
Q 2048 365 2259 515 
Q 2470 666 2470 915 
Q 2470 1101 2352 1206 
Q 2234 1312 2042 1366 
Q 1850 1421 1613 1459 
Q 1376 1498 1142 1549 
Q 909 1600 717 1699 
Q 525 1798 406 1971 
Q 288 2144 288 2432 
Q 288 2707 441 2924 
Q 595 3142 892 3267 
Q 1190 3392 1619 3392 
Q 1946 3392 2272 3305 
Q 2598 3219 2810 3078 
L 2611 2714 
Q 2387 2867 2131 2934 
Q 1875 3002 1619 3002 
Q 1165 3002 950 2845 
Q 736 2688 736 2445 
Q 736 2253 854 2144 
Q 973 2035 1168 1974 
Q 1363 1914 1596 1875 
Q 1830 1837 2064 1782 
Q 2298 1728 2493 1635 
Q 2688 1542 2806 1372 
Q 2925 1203 2925 928 
Q 2925 634 2761 419 
Q 2598 205 2288 86 
Q 1978 -32 1536 -32 
z
" transform="scale(0.015625)"/>
     </defs>
     <use xlink:href="#Montserrat-Regular-53"/>
     <use xlink:href="#Montserrat-Regular-68" x="61.499985"/>
     <use xlink:href="#Montserrat-Regular-65" x="129.099976"/>
     <use xlink:href="#Montserrat-Regular-6c" x="189.499969"/>
     <use xlink:href="#Montserrat-Regular-74" x="216.399963"/>
     <use xlink:href="#Montserrat-Regular-65" x="256.999954"/>
     <use xlink:href="#Montserrat-Regular-72" x="317.399948"/>
     <use xlink:href="#Montserrat-Regular-65" x="357.499939"/>
     <use xlink:href="#Montserrat-Regular-64" x="417.899933"/>
     <use xlink:href="#Montserrat-Regular-20" x="485.699921"/>
     <use xlink:href="#Montserrat-Regular-68" x="511.899918"/>
     <use xlink:href="#Montserrat-Regular-6f" x="579.499908"/>
     <use xlink:href="#Montserrat-Regular-6d" x="642.199905"/>
     <use xlink:href="#Montserrat-Regular-65" x="748.299896"/>
     <use xlink:href="#Montserrat-Regular-6c" x="808.69989"/>
     <use xlink:href="#Montserrat-Regular-65" x="835.599884"/>
     <use xlink:href="#Montserrat-Regular-73" x="895.999878"/>
     <use xlink:href="#Montserrat-Regular-73" x="944.799866"/>
    </g>
   </g>
  </g>
  <g id="axes_2">
   <g id="patch_4">
    <path d="M 246.61 224.84 
L 413.885936 224.84 
L 413.885936 48.12 
L 246.61 48.12 
z
" style="fill: #ffffff"/>
   </g>
   <g id="matplotlib.axis_3">
    <g id="xtick_5">
     <g id="line2d_8">
      <g>
       <use xlink:href="#m68e8d842c7" x="281.049163" y="224.84" style="stroke: #000000; stroke-width: 0.8"/>
      </g>
     </g>
     <g id="text_15">
      <!-- 2010 -->
      <g transform="translate(269.78432 239.260312) scale(0.1 -0.1)">
       <use xlink:href="#Montserrat-Regular-32"/>
       <use xlink:href="#Montserrat-Regular-30" x="56.799988"/>
       <use xlink:href="#Montserrat-Regular-31" x="122.999985"/>
       <use xlink:href="#Montserrat-Regular-30" x="159.099976"/>
      </g>
     </g>
    </g>
    <g id="xtick_6">
     <g id="line2d_9">
      <g>
       <use xlink:href="#m68e8d842c7" x="330.247968" y="224.84" style="stroke: #000000; stroke-width: 0.8"/>
      </g>
     </g>
     <g id="text_16">
      <!-- 2015 -->
      <g transform="translate(319.463593 239.260312) scale(0.1 -0.1)">
       <use xlink:href="#Montserrat-Regular-32"/>
       <use xlink:href="#Montserrat-Regular-30" x="56.799988"/>
       <use xlink:href="#Montserrat-Regular-31" x="122.999985"/>
       <use xlink:href="#Montserrat-Regular-35" x="159.099976"/>
      </g>
     </g>
    </g>
    <g id="xtick_7">
     <g id="line2d_10">
      <g>
       <use xlink:href="#m68e8d842c7" x="379.446773" y="224.84" style="stroke: #000000; stroke-width: 0.8"/>
      </g>
     </g>
     <g id="text_17">
      <!-- 2020 -->
      <g transform="translate(367.146773 239.260312) scale(0.1 -0.1)">
       <use xlink:href="#Montserrat-Regular-32"/>
       <use xlink:href="#Montserrat-Regular-30" x="56.799988"/>
       <use xlink:href="#Montserrat-Regular-32" x="122.999985"/>
       <use xlink:href="#Montserrat-Regular-30" x="179.799973"/>
      </g>
     </g>
    </g>
    <g id="xtick_8">
     <g id="line2d_11">
      <g>
       <use xlink:href="#m68e8d842c7" x="408.966055" y="224.84" style="stroke: #000000; stroke-width: 0.8"/>
      </g>
     </g>
     <g id="text_18">
      <!-- 2023 -->
      <g transform="translate(397.155899 239.260312) scale(0.1 -0.1)">
       <use xlink:href="#Montserrat-Regular-32"/>
       <use xlink:href="#Montserrat-Regular-30" x="56.799988"/>
       <use xlink:href="#Montserrat-Regular-32" x="122.999985"/>
       <use xlink:href="#Montserrat-Regular-33" x="179.799973"/>
      </g>
     </g>
    </g>
   </g>
   <g id="matplotlib.axis_4">
    <g id="ytick_9"/>
    <g id="ytick_10"/>
    <g id="ytick_11"/>
    <g id="ytick_12"/>
    <g id="ytick_13"/>
    <g id="ytick_14"/>
    <g id="ytick_15"/>
    <g id="ytick_16"/>
   </g>
   <g id="line2d_12">
    <path d="M 251.52988 196.728703 
L 261.369641 202.468944 
L 271.209402 210.115035 
L 281.049163 206.076447 
L 290.888924 210.012936 
L 300.728685 206.734419 
L 310.568446 208.969256 
L 330.247968 213.790604 
L 340.087729 208.572204 
L 349.92749 208.799091 
L 359.767251 206.428122 
L 369.607012 208.027675 
L 379.446773 204.635714 
L 399.126294 213.767915 
L 408.966055 208.867157 
" clip-path="url(#pebeecc16e0)" style="fill: none; stroke: #8d8d8d; stroke-opacity: 0.9; stroke-width: 1.5; stroke-linecap: square"/>
    <g clip-path="url(#pebeecc16e0)">
     <use xlink:href="#m312adc5a6f" x="251.52988" y="196.728703" style="fill: #8d8d8d; fill-opacity: 0.9; stroke: #8d8d8d; stroke-opacity: 0.9"/>
     <use xlink:href="#m312adc5a6f" x="261.369641" y="202.468944" style="fill: #8d8d8d; fill-opacity: 0.9; stroke: #8d8d8d; stroke-opacity: 0.9"/>
     <use xlink:href="#m312adc5a6f" x="271.209402" y="210.115035" style="fill: #8d8d8d; fill-opacity: 0.9; stroke: #8d8d8d; stroke-opacity: 0.9"/>
     <use xlink:href="#m312adc5a6f" x="281.049163" y="206.076447" style="fill: #8d8d8d; fill-opacity: 0.9; stroke: #8d8d8d; stroke-opacity: 0.9"/>
     <use xlink:href="#m312adc5a6f" x="290.888924" y="210.012936" style="fill: #8d8d8d; fill-opacity: 0.9; stroke: #8d8d8d; stroke-opacity: 0.9"/>
     <use xlink:href="#m312adc5a6f" x="300.728685" y="206.734419" style="fill: #8d8d8d; fill-opacity: 0.9; stroke: #8d8d8d; stroke-opacity: 0.9"/>
     <use xlink:href="#m312adc5a6f" x="310.568446" y="208.969256" style="fill: #8d8d8d; fill-opacity: 0.9; stroke: #8d8d8d; stroke-opacity: 0.9"/>
     <use xlink:href="#m312adc5a6f" x="330.247968" y="213.790604" style="fill: #8d8d8d; fill-opacity: 0.9; stroke: #8d8d8d; stroke-opacity: 0.9"/>
     <use xlink:href="#m312adc5a6f" x="340.087729" y="208.572204" style="fill: #8d8d8d; fill-opacity: 0.9; stroke: #8d8d8d; stroke-opacity: 0.9"/>
     <use xlink:href="#m312adc5a6f" x="349.92749" y="208.799091" style="fill: #8d8d8d; fill-opacity: 0.9; stroke: #8d8d8d; stroke-opacity: 0.9"/>
     <use xlink:href="#m312adc5a6f" x="359.767251" y="206.428122" style="fill: #8d8d8d; fill-opacity: 0.9; stroke: #8d8d8d; stroke-opacity: 0.9"/>
     <use xlink:href="#m312adc5a6f" x="369.607012" y="208.027675" style="fill: #8d8d8d; fill-opacity: 0.9; stroke: #8d8d8d; stroke-opacity: 0.9"/>
     <use xlink:href="#m312adc5a6f" x="379.446773" y="204.635714" style="fill: #8d8d8d; fill-opacity: 0.9; stroke: #8d8d8d; stroke-opacity: 0.9"/>
     <use xlink:href="#m312adc5a6f" x="399.126294" y="213.767915" style="fill: #8d8d8d; fill-opacity: 0.9; stroke: #8d8d8d; stroke-opacity: 0.9"/>
     <use xlink:href="#m312adc5a6f" x="408.966055" y="208.867157" style="fill: #8d8d8d; fill-opacity: 0.9; stroke: #8d8d8d; stroke-opacity: 0.9"/>
    </g>
   </g>
   <g id="line2d_13">
    <path d="M 251.52988 219.054382 
L 261.369641 219.530845 
L 271.209402 221.96988 
L 281.049163 221.799714 
L 290.888924 222.673229 
L 300.728685 219.859831 
L 310.568446 219.644288 
L 330.247968 221.096365 
L 340.087729 219.576222 
L 349.92749 219.235892 
L 359.767251 217.148531 
L 369.607012 218.112801 
L 379.446773 216.524592 
L 399.126294 219.791765 
L 408.966055 216.036785 
" clip-path="url(#pebeecc16e0)" style="fill: none; stroke: #297fda; stroke-opacity: 0.9; stroke-width: 1.5; stroke-linecap: square"/>
    <g clip-path="url(#pebeecc16e0)">
     <use xlink:href="#m81eaee19ff" x="251.52988" y="219.054382" style="fill: #297fda; fill-opacity: 0.9; stroke: #297fda; stroke-opacity: 0.9"/>
     <use xlink:href="#m81eaee19ff" x="261.369641" y="219.530845" style="fill: #297fda; fill-opacity: 0.9; stroke: #297fda; stroke-opacity: 0.9"/>
     <use xlink:href="#m81eaee19ff" x="271.209402" y="221.96988" style="fill: #297fda; fill-opacity: 0.9; stroke: #297fda; stroke-opacity: 0.9"/>
     <use xlink:href="#m81eaee19ff" x="281.049163" y="221.799714" style="fill: #297fda; fill-opacity: 0.9; stroke: #297fda; stroke-opacity: 0.9"/>
     <use xlink:href="#m81eaee19ff" x="290.888924" y="222.673229" style="fill: #297fda; fill-opacity: 0.9; stroke: #297fda; stroke-opacity: 0.9"/>
     <use xlink:href="#m81eaee19ff" x="300.728685" y="219.859831" style="fill: #297fda; fill-opacity: 0.9; stroke: #297fda; stroke-opacity: 0.9"/>
     <use xlink:href="#m81eaee19ff" x="310.568446" y="219.644288" style="fill: #297fda; fill-opacity: 0.9; stroke: #297fda; stroke-opacity: 0.9"/>
     <use xlink:href="#m81eaee19ff" x="330.247968" y="221.096365" style="fill: #297fda; fill-opacity: 0.9; stroke: #297fda; stroke-opacity: 0.9"/>
     <use xlink:href="#m81eaee19ff" x="340.087729" y="219.576222" style="fill: #297fda; fill-opacity: 0.9; stroke: #297fda; stroke-opacity: 0.9"/>
     <use xlink:href="#m81eaee19ff" x="349.92749" y="219.235892" style="fill: #297fda; fill-opacity: 0.9; stroke: #297fda; stroke-opacity: 0.9"/>
     <use xlink:href="#m81eaee19ff" x="359.767251" y="217.148531" style="fill: #297fda; fill-opacity: 0.9; stroke: #297fda; stroke-opacity: 0.9"/>
     <use xlink:href="#m81eaee19ff" x="369.607012" y="218.112801" style="fill: #297fda; fill-opacity: 0.9; stroke: #297fda; stroke-opacity: 0.9"/>
     <use xlink:href="#m81eaee19ff" x="379.446773" y="216.524592" style="fill: #297fda; fill-opacity: 0.9; stroke: #297fda; stroke-opacity: 0.9"/>
     <use xlink:href="#m81eaee19ff" x="399.126294" y="219.791765" style="fill: #297fda; fill-opacity: 0.9; stroke: #297fda; stroke-opacity: 0.9"/>
     <use xlink:href="#m81eaee19ff" x="408.966055" y="216.036785" style="fill: #297fda; fill-opacity: 0.9; stroke: #297fda; stroke-opacity: 0.9"/>
    </g>
   </g>
   <g id="line2d_14">
    <path d="M 251.52988 217.772471 
L 261.369641 219.825798 
L 271.209402 222.242144 
L 281.049163 222.083323 
L 290.888924 222.968182 
L 300.728685 221.368629 
L 310.568446 221.016954 
L 330.247968 220.438393 
L 340.087729 219.269925 
L 349.92749 219.25858 
L 359.767251 217.704404 
L 369.607012 218.124145 
L 379.446773 216.660724 
L 399.126294 219.462779 
L 408.966055 216.558625 
" clip-path="url(#pebeecc16e0)" style="fill: none; stroke: #ff8a46; stroke-opacity: 0.9; stroke-width: 1.5; stroke-linecap: square"/>
    <g clip-path="url(#pebeecc16e0)">
     <use xlink:href="#m80b0e183ca" x="251.52988" y="217.772471" style="fill: #ff8a46; fill-opacity: 0.9; stroke: #ff8a46; stroke-opacity: 0.9"/>
     <use xlink:href="#m80b0e183ca" x="261.369641" y="219.825798" style="fill: #ff8a46; fill-opacity: 0.9; stroke: #ff8a46; stroke-opacity: 0.9"/>
     <use xlink:href="#m80b0e183ca" x="271.209402" y="222.242144" style="fill: #ff8a46; fill-opacity: 0.9; stroke: #ff8a46; stroke-opacity: 0.9"/>
     <use xlink:href="#m80b0e183ca" x="281.049163" y="222.083323" style="fill: #ff8a46; fill-opacity: 0.9; stroke: #ff8a46; stroke-opacity: 0.9"/>
     <use xlink:href="#m80b0e183ca" x="290.888924" y="222.968182" style="fill: #ff8a46; fill-opacity: 0.9; stroke: #ff8a46; stroke-opacity: 0.9"/>
     <use xlink:href="#m80b0e183ca" x="300.728685" y="221.368629" style="fill: #ff8a46; fill-opacity: 0.9; stroke: #ff8a46; stroke-opacity: 0.9"/>
     <use xlink:href="#m80b0e183ca" x="310.568446" y="221.016954" style="fill: #ff8a46; fill-opacity: 0.9; stroke: #ff8a46; stroke-opacity: 0.9"/>
     <use xlink:href="#m80b0e183ca" x="330.247968" y="220.438393" style="fill: #ff8a46; fill-opacity: 0.9; stroke: #ff8a46; stroke-opacity: 0.9"/>
     <use xlink:href="#m80b0e183ca" x="340.087729" y="219.269925" style="fill: #ff8a46; fill-opacity: 0.9; stroke: #ff8a46; stroke-opacity: 0.9"/>
     <use xlink:href="#m80b0e183ca" x="349.92749" y="219.25858" style="fill: #ff8a46; fill-opacity: 0.9; stroke: #ff8a46; stroke-opacity: 0.9"/>
     <use xlink:href="#m80b0e183ca" x="359.767251" y="217.704404" style="fill: #ff8a46; fill-opacity: 0.9; stroke: #ff8a46; stroke-opacity: 0.9"/>
     <use xlink:href="#m80b0e183ca" x="369.607012" y="218.124145" style="fill: #ff8a46; fill-opacity: 0.9; stroke: #ff8a46; stroke-opacity: 0.9"/>
     <use xlink:href="#m80b0e183ca" x="379.446773" y="216.660724" style="fill: #ff8a46; fill-opacity: 0.9; stroke: #ff8a46; stroke-opacity: 0.9"/>
     <use xlink:href="#m80b0e183ca" x="399.126294" y="219.462779" style="fill: #ff8a46; fill-opacity: 0.9; stroke: #ff8a46; stroke-opacity: 0.9"/>
     <use xlink:href="#m80b0e183ca" x="408.966055" y="216.558625" style="fill: #ff8a46; fill-opacity: 0.9; stroke: #ff8a46; stroke-opacity: 0.9"/>
    </g>
   </g>
   <g id="patch_5">
    <path d="M 246.61 224.84 
L 413.885936 224.84 
" style="fill: none; stroke: #000000; stroke-width: 0.8; stroke-linejoin: miter; stroke-linecap: square"/>
   </g>
   <g id="text_19">
    <!-- Unsheltered homeless -->
    <g transform="translate(262.58578 42.12) scale(0.12 -0.12)">
     <defs>
      <path id="Montserrat-Regular-55" d="M 2534 -38 
Q 1677 -38 1184 454 
Q 691 947 691 1914 
L 691 4480 
L 1165 4480 
L 1165 1933 
Q 1165 1139 1523 761 
Q 1882 384 2534 384 
Q 3194 384 3552 761 
Q 3910 1139 3910 1933 
L 3910 4480 
L 4371 4480 
L 4371 1914 
Q 4371 947 3881 454 
Q 3392 -38 2534 -38 
z
" transform="scale(0.015625)"/>
      <path id="Montserrat-Regular-6e" d="M 2349 3392 
Q 2758 3392 3068 3235 
Q 3379 3078 3555 2758 
Q 3731 2438 3731 1952 
L 3731 0 
L 3277 0 
L 3277 1907 
Q 3277 2438 3011 2710 
Q 2746 2982 2266 2982 
Q 1907 2982 1641 2838 
Q 1376 2694 1232 2422 
Q 1088 2150 1088 1766 
L 1088 0 
L 634 0 
L 634 3360 
L 1069 3360 
L 1069 2438 
L 998 2611 
Q 1158 2976 1510 3184 
Q 1862 3392 2349 3392 
z
" transform="scale(0.015625)"/>
     </defs>
     <use xlink:href="#Montserrat-Regular-55"/>
     <use xlink:href="#Montserrat-Regular-6e" x="79.199982"/>
     <use xlink:href="#Montserrat-Regular-73" x="146.799973"/>
     <use xlink:href="#Montserrat-Regular-68" x="195.59996"/>
     <use xlink:href="#Montserrat-Regular-65" x="263.199951"/>
     <use xlink:href="#Montserrat-Regular-6c" x="323.599945"/>
     <use xlink:href="#Montserrat-Regular-74" x="350.499939"/>
     <use xlink:href="#Montserrat-Regular-65" x="391.09993"/>
     <use xlink:href="#Montserrat-Regular-72" x="451.499924"/>
     <use xlink:href="#Montserrat-Regular-65" x="491.599915"/>
     <use xlink:href="#Montserrat-Regular-64" x="551.999908"/>
     <use xlink:href="#Montserrat-Regular-20" x="619.799896"/>
     <use xlink:href="#Montserrat-Regular-68" x="645.999893"/>
     <use xlink:href="#Montserrat-Regular-6f" x="713.599884"/>
     <use xlink:href="#Montserrat-Regular-6d" x="776.299881"/>
     <use xlink:href="#Montserrat-Regular-65" x="882.399872"/>
     <use xlink:href="#Montserrat-Regular-6c" x="942.799866"/>
     <use xlink:href="#Montserrat-Regular-65" x="969.69986"/>
     <use xlink:href="#Montserrat-Regular-73" x="1030.099854"/>
     <use xlink:href="#Montserrat-Regular-73" x="1078.899841"/>
    </g>
   </g>
   <g id="legend_1">
    <g id="patch_6">
     <path d="M 263.057811 99.202812 
L 406.885936 99.202812 
Q 408.885936 99.202812 408.885936 97.202812 
L 408.885936 55.12 
Q 408.885936 53.12 406.885936 53.12 
L 263.057811 53.12 
Q 261.057811 53.12 261.057811 55.12 
L 261.057811 97.202812 
Q 261.057811 99.202812 263.057811 99.202812 
z
" style="fill: #ffffff; opacity: 0.7"/>
    </g>
    <g id="line2d_15">
     <path d="M 265.057811 61.040312 
L 275.057811 61.040312 
L 285.057811 61.040312 
" style="fill: none; stroke: #8d8d8d; stroke-opacity: 0.9; stroke-width: 1.5; stroke-linecap: square"/>
     <g>
      <use xlink:href="#m312adc5a6f" x="275.057811" y="61.040312" style="fill: #8d8d8d; fill-opacity: 0.9; stroke: #8d8d8d; stroke-opacity: 0.9"/>
     </g>
    </g>
    <g id="text_20">
     <!-- All -->
     <g transform="translate(293.057811 64.540312) scale(0.1 -0.1)">
      <defs>
       <path id="Montserrat-Regular-41" d="M 13 0 
L 2061 4480 
L 2528 4480 
L 4576 0 
L 4077 0 
L 2195 4205 
L 2387 4205 
L 506 0 
L 13 0 
z
M 819 1197 
L 960 1581 
L 3565 1581 
L 3706 1197 
L 819 1197 
z
" transform="scale(0.015625)"/>
      </defs>
      <use xlink:href="#Montserrat-Regular-41"/>
      <use xlink:href="#Montserrat-Regular-6c" x="71.699982"/>
      <use xlink:href="#Montserrat-Regular-6c" x="98.599976"/>
     </g>
    </g>
    <g id="line2d_16">
     <path d="M 265.057811 75.40125 
L 275.057811 75.40125 
L 285.057811 75.40125 
" style="fill: none; stroke: #297fda; stroke-opacity: 0.9; stroke-width: 1.5; stroke-linecap: square"/>
     <g>
      <use xlink:href="#m81eaee19ff" x="275.057811" y="75.40125" style="fill: #297fda; fill-opacity: 0.9; stroke: #297fda; stroke-opacity: 0.9"/>
     </g>
    </g>
    <g id="text_21">
     <!-- With mental illness -->
     <g transform="translate(293.057811 78.90125) scale(0.1 -0.1)">
      <defs>
       <path id="Montserrat-Regular-57" d="M 1747 0 
L 237 4480 
L 723 4480 
L 2138 262 
L 1894 262 
L 3354 4480 
L 3789 4480 
L 5229 262 
L 4998 262 
L 6426 4480 
L 6880 4480 
L 5370 0 
L 4870 0 
L 3494 4000 
L 3622 4000 
L 2240 0 
L 1747 0 
z
" transform="scale(0.015625)"/>
       <path id="Montserrat-Regular-69" d="M 634 0 
L 634 3360 
L 1088 3360 
L 1088 0 
L 634 0 
z
M 864 4102 
Q 723 4102 627 4198 
Q 531 4294 531 4429 
Q 531 4563 627 4656 
Q 723 4749 864 4749 
Q 1005 4749 1101 4659 
Q 1197 4570 1197 4435 
Q 1197 4294 1104 4198 
Q 1011 4102 864 4102 
z
" transform="scale(0.015625)"/>
       <path id="Montserrat-Regular-61" d="M 2739 0 
L 2739 742 
L 2720 864 
L 2720 2106 
Q 2720 2534 2480 2764 
Q 2240 2995 1766 2995 
Q 1440 2995 1145 2886 
Q 851 2778 646 2598 
L 442 2938 
Q 698 3155 1056 3273 
Q 1414 3392 1811 3392 
Q 2464 3392 2819 3069 
Q 3174 2746 3174 2086 
L 3174 0 
L 2739 0 
z
M 1581 -32 
Q 1203 -32 924 93 
Q 646 218 499 438 
Q 352 659 352 947 
Q 352 1210 477 1424 
Q 602 1638 886 1769 
Q 1171 1901 1651 1901 
L 2810 1901 
L 2810 1562 
L 1664 1562 
Q 1178 1562 989 1389 
Q 800 1216 800 960 
Q 800 672 1024 499 
Q 1248 326 1651 326 
Q 2035 326 2313 502 
Q 2592 678 2720 1011 
L 2822 698 
Q 2694 365 2377 166 
Q 2061 -32 1581 -32 
z
" transform="scale(0.015625)"/>
      </defs>
      <use xlink:href="#Montserrat-Regular-57"/>
      <use xlink:href="#Montserrat-Regular-69" x="111.099991"/>
      <use xlink:href="#Montserrat-Regular-74" x="137.999985"/>
      <use xlink:href="#Montserrat-Regular-68" x="178.599976"/>
      <use xlink:href="#Montserrat-Regular-20" x="246.199966"/>
      <use xlink:href="#Montserrat-Regular-6d" x="272.399963"/>
      <use xlink:href="#Montserrat-Regular-65" x="378.499954"/>
      <use xlink:href="#Montserrat-Regular-6e" x="438.899948"/>
      <use xlink:href="#Montserrat-Regular-74" x="506.499939"/>
      <use xlink:href="#Montserrat-Regular-61" x="547.09993"/>
      <use xlink:href="#Montserrat-Regular-6c" x="606.099915"/>
      <use xlink:href="#Montserrat-Regular-20" x="632.999908"/>
      <use xlink:href="#Montserrat-Regular-69" x="659.199905"/>
      <use xlink:href="#Montserrat-Regular-6c" x="686.099899"/>
      <use xlink:href="#Montserrat-Regular-6c" x="712.999893"/>
      <use xlink:href="#Montserrat-Regular-6e" x="739.899887"/>
      <use xlink:href="#Montserrat-Regular-65" x="807.499878"/>
      <use xlink:href="#Montserrat-Regular-73" x="867.899872"/>
      <use xlink:href="#Montserrat-Regular-73" x="916.69986"/>
     </g>
    </g>
    <g id="line2d_17">
     <path d="M 265.057811 89.762187 
L 275.057811 89.762187 
L 285.057811 89.762187 
" style="fill: none; stroke: #ff8a46; stroke-opacity: 0.9; stroke-width: 1.5; stroke-linecap: square"/>
     <g>
      <use xlink:href="#m80b0e183ca" x="275.057811" y="89.762187" style="fill: #ff8a46; fill-opacity: 0.9; stroke: #ff8a46; stroke-opacity: 0.9"/>
     </g>
    </g>
    <g id="text_22">
     <!-- With substance abuse -->
     <g transform="translate(293.057811 93.262187) scale(0.1 -0.1)">
      <defs>
       <path id="Montserrat-Regular-63" d="M 2029 -32 
Q 1530 -32 1136 189 
Q 742 410 518 797 
Q 294 1184 294 1683 
Q 294 2189 518 2573 
Q 742 2957 1136 3174 
Q 1530 3392 2029 3392 
Q 2458 3392 2803 3225 
Q 3149 3059 3347 2726 
L 3008 2496 
Q 2835 2752 2579 2873 
Q 2323 2995 2022 2995 
Q 1664 2995 1376 2832 
Q 1088 2669 921 2374 
Q 755 2080 755 1683 
Q 755 1286 921 992 
Q 1088 698 1376 534 
Q 1664 371 2022 371 
Q 2323 371 2579 492 
Q 2835 614 3008 864 
L 3347 634 
Q 3149 307 2803 137 
Q 2458 -32 2029 -32 
z
" transform="scale(0.015625)"/>
      </defs>
      <use xlink:href="#Montserrat-Regular-57"/>
      <use xlink:href="#Montserrat-Regular-69" x="111.099991"/>
      <use xlink:href="#Montserrat-Regular-74" x="137.999985"/>
      <use xlink:href="#Montserrat-Regular-68" x="178.599976"/>
      <use xlink:href="#Montserrat-Regular-20" x="246.199966"/>
      <use xlink:href="#Montserrat-Regular-73" x="272.399963"/>
      <use xlink:href="#Montserrat-Regular-75" x="321.199951"/>
      <use xlink:href="#Montserrat-Regular-62" x="388.399948"/>
      <use xlink:href="#Montserrat-Regular-73" x="456.199936"/>
      <use xlink:href="#Montserrat-Regular-74" x="504.999924"/>
      <use xlink:href="#Montserrat-Regular-61" x="545.599915"/>
      <use xlink:href="#Montserrat-Regular-6e" x="604.599899"/>
      <use xlink:href="#Montserrat-Regular-63" x="672.19989"/>
      <use xlink:href="#Montserrat-Regular-65" x="728.499878"/>
      <use xlink:href="#Montserrat-Regular-20" x="788.899872"/>
      <use xlink:href="#Montserrat-Regular-61" x="815.099869"/>
      <use xlink:href="#Montserrat-Regular-62" x="874.099854"/>
      <use xlink:href="#Montserrat-Regular-75" x="941.899841"/>
      <use xlink:href="#Montserrat-Regular-73" x="1009.099838"/>
      <use xlink:href="#Montserrat-Regular-65" x="1057.899826"/>
     </g>
    </g>
   </g>
  </g>
  <g id="text_23">
   <!-- New Jersey -->
   <g transform="translate(181.81125 13.884375) scale(0.12 -0.12)">
    <defs>
     <path id="Montserrat-Regular-77" d="M 1318 0 
L 51 3360 
L 486 3360 
L 1638 243 
L 1440 243 
L 2624 3360 
L 3014 3360 
L 4186 243 
L 3987 243 
L 5158 3360 
L 5574 3360 
L 4301 0 
L 3872 0 
L 2746 2931 
L 2880 2931 
L 1747 0 
L 1318 0 
z
" transform="scale(0.015625)"/>
     <path id="Montserrat-Regular-4a" d="M 1210 -38 
Q 832 -38 502 128 
Q 173 294 -26 602 
L 250 922 
Q 435 653 678 512 
Q 922 371 1216 371 
Q 2048 371 2048 1357 
L 2048 4070 
L 410 4070 
L 410 4480 
L 2515 4480 
L 2515 1376 
Q 2515 666 2185 314 
Q 1856 -38 1210 -38 
z
" transform="scale(0.015625)"/>
     <path id="Montserrat-Regular-79" d="M 659 -1274 
Q 422 -1274 208 -1197 
Q -6 -1120 -160 -966 
L 51 -627 
Q 179 -749 329 -816 
Q 480 -883 666 -883 
Q 890 -883 1053 -758 
Q 1216 -634 1363 -320 
L 1581 173 
L 1632 243 
L 3014 3360 
L 3462 3360 
L 1779 -403 
Q 1638 -730 1468 -922 
Q 1299 -1114 1100 -1194 
Q 902 -1274 659 -1274 
z
M 1555 -96 
L 6 3360 
L 480 3360 
L 1850 275 
L 1555 -96 
z
" transform="scale(0.015625)"/>
    </defs>
    <use xlink:href="#Montserrat-Regular-4e"/>
    <use xlink:href="#Montserrat-Regular-65" x="81.299988"/>
    <use xlink:href="#Montserrat-Regular-77" x="141.699982"/>
    <use xlink:href="#Montserrat-Regular-20" x="229.599976"/>
    <use xlink:href="#Montserrat-Regular-4a" x="255.799973"/>
    <use xlink:href="#Montserrat-Regular-65" x="305.899963"/>
    <use xlink:href="#Montserrat-Regular-72" x="366.299957"/>
    <use xlink:href="#Montserrat-Regular-73" x="406.399948"/>
    <use xlink:href="#Montserrat-Regular-65" x="455.199936"/>
    <use xlink:href="#Montserrat-Regular-79" x="515.59993"/>
   </g>
  </g>
  <g id="text_24">
   <g id="patch_7">
    <a xlink:href="https://dynomight.net">
     <path d="M 354.56 253.93875 
L 425.17125 253.93875 
L 425.17125 238.14125 
L 354.56 238.14125 
z
" style="fill: #1f77b4; opacity: 0.01; stroke: #000000; stroke-linejoin: miter"/>
    </a>
   </g>
   <a xlink:href="https://dynomight.net">
    <!-- dynomight.net -->
    <g style="fill: #808080; opacity: 0.5" transform="translate(358.56 248.22) scale(0.08 -0.08)">
     <defs>
      <path id="DejaVuSansMono-64" d="M 2681 3053 
L 2681 4863 
L 3256 4863 
L 3256 0 
L 2681 0 
L 2681 441 
Q 2538 181 2298 45 
Q 2059 -91 1747 -91 
Q 1113 -91 748 401 
Q 384 894 384 1759 
Q 384 2613 750 3098 
Q 1116 3584 1747 3584 
Q 2063 3584 2303 3448 
Q 2544 3313 2681 3053 
z
M 991 1747 
Q 991 1078 1203 737 
Q 1416 397 1831 397 
Q 2247 397 2464 740 
Q 2681 1084 2681 1747 
Q 2681 2413 2464 2755 
Q 2247 3097 1831 3097 
Q 1416 3097 1203 2756 
Q 991 2416 991 1747 
z
" transform="scale(0.015625)"/>
      <path id="DejaVuSansMono-79" d="M 2681 1125 
Q 2538 759 2316 163 
Q 2006 -663 1900 -844 
Q 1756 -1088 1540 -1209 
Q 1325 -1331 1038 -1331 
L 575 -1331 
L 575 -850 
L 916 -850 
Q 1169 -850 1312 -703 
Q 1456 -556 1678 56 
L 325 3500 
L 934 3500 
L 1972 763 
L 2994 3500 
L 3603 3500 
L 2681 1125 
z
" transform="scale(0.015625)"/>
      <path id="DejaVuSansMono-6e" d="M 3284 2169 
L 3284 0 
L 2706 0 
L 2706 2169 
Q 2706 2641 2540 2862 
Q 2375 3084 2022 3084 
Q 1619 3084 1401 2798 
Q 1184 2513 1184 1978 
L 1184 0 
L 609 0 
L 609 3500 
L 1184 3500 
L 1184 2975 
Q 1338 3275 1600 3429 
Q 1863 3584 2222 3584 
Q 2756 3584 3020 3232 
Q 3284 2881 3284 2169 
z
" transform="scale(0.015625)"/>
      <path id="DejaVuSansMono-6f" d="M 1925 3097 
Q 1488 3097 1263 2756 
Q 1038 2416 1038 1747 
Q 1038 1081 1263 739 
Q 1488 397 1925 397 
Q 2366 397 2591 739 
Q 2816 1081 2816 1747 
Q 2816 2416 2591 2756 
Q 2366 3097 1925 3097 
z
M 1925 3584 
Q 2653 3584 3039 3112 
Q 3425 2641 3425 1747 
Q 3425 850 3040 379 
Q 2656 -91 1925 -91 
Q 1197 -91 812 379 
Q 428 850 428 1747 
Q 428 2641 812 3112 
Q 1197 3584 1925 3584 
z
" transform="scale(0.015625)"/>
      <path id="DejaVuSansMono-6d" d="M 2113 3144 
Q 2219 3369 2383 3476 
Q 2547 3584 2778 3584 
Q 3200 3584 3373 3257 
Q 3547 2931 3547 2028 
L 3547 0 
L 3022 0 
L 3022 2003 
Q 3022 2744 2939 2923 
Q 2856 3103 2638 3103 
Q 2388 3103 2295 2911 
Q 2203 2719 2203 2003 
L 2203 0 
L 1678 0 
L 1678 2003 
Q 1678 2753 1589 2928 
Q 1500 3103 1269 3103 
Q 1041 3103 952 2911 
Q 863 2719 863 2003 
L 863 0 
L 341 0 
L 341 3500 
L 863 3500 
L 863 3200 
Q 966 3388 1120 3486 
Q 1275 3584 1472 3584 
Q 1709 3584 1867 3475 
Q 2025 3366 2113 3144 
z
" transform="scale(0.015625)"/>
      <path id="DejaVuSansMono-69" d="M 800 3500 
L 2272 3500 
L 2272 447 
L 3413 447 
L 3413 0 
L 556 0 
L 556 447 
L 1697 447 
L 1697 3053 
L 800 3053 
L 800 3500 
z
M 1697 4863 
L 2272 4863 
L 2272 4134 
L 1697 4134 
L 1697 4863 
z
" transform="scale(0.015625)"/>
      <path id="DejaVuSansMono-67" d="M 2681 1778 
Q 2681 2425 2470 2761 
Q 2259 3097 1856 3097 
Q 1434 3097 1212 2761 
Q 991 2425 991 1778 
Q 991 1131 1214 792 
Q 1438 453 1863 453 
Q 2259 453 2470 793 
Q 2681 1134 2681 1778 
z
M 3256 225 
Q 3256 -563 2884 -969 
Q 2513 -1375 1791 -1375 
Q 1553 -1375 1293 -1331 
Q 1034 -1288 775 -1203 
L 775 -634 
Q 1081 -778 1331 -847 
Q 1581 -916 1791 -916 
Q 2256 -916 2468 -662 
Q 2681 -409 2681 141 
L 2681 166 
L 2681 556 
Q 2544 263 2306 119 
Q 2069 -25 1728 -25 
Q 1116 -25 750 465 
Q 384 956 384 1778 
Q 384 2603 750 3093 
Q 1116 3584 1728 3584 
Q 2066 3584 2300 3450 
Q 2534 3316 2681 3034 
L 2681 3488 
L 3256 3488 
L 3256 225 
z
" transform="scale(0.015625)"/>
      <path id="DejaVuSansMono-68" d="M 3284 2169 
L 3284 0 
L 2706 0 
L 2706 2169 
Q 2706 2641 2540 2862 
Q 2375 3084 2022 3084 
Q 1619 3084 1401 2798 
Q 1184 2513 1184 1978 
L 1184 0 
L 609 0 
L 609 4863 
L 1184 4863 
L 1184 2975 
Q 1338 3275 1600 3429 
Q 1863 3584 2222 3584 
Q 2756 3584 3020 3232 
Q 3284 2881 3284 2169 
z
" transform="scale(0.015625)"/>
      <path id="DejaVuSansMono-74" d="M 1919 4494 
L 1919 3500 
L 3225 3500 
L 3225 3053 
L 1919 3053 
L 1919 1153 
Q 1919 766 2066 612 
Q 2213 459 2578 459 
L 3225 459 
L 3225 0 
L 2522 0 
Q 1875 0 1609 259 
Q 1344 519 1344 1153 
L 1344 3053 
L 409 3053 
L 409 3500 
L 1344 3500 
L 1344 4494 
L 1919 4494 
z
" transform="scale(0.015625)"/>
      <path id="DejaVuSansMono-2e" d="M 1528 953 
L 2316 953 
L 2316 0 
L 1528 0 
L 1528 953 
z
" transform="scale(0.015625)"/>
      <path id="DejaVuSansMono-65" d="M 3475 1894 
L 3475 1613 
L 984 1613 
L 984 1594 
Q 984 1022 1282 709 
Q 1581 397 2125 397 
Q 2400 397 2700 484 
Q 3000 572 3341 750 
L 3341 178 
Q 3013 44 2708 -23 
Q 2403 -91 2119 -91 
Q 1303 -91 843 398 
Q 384 888 384 1747 
Q 384 2584 834 3084 
Q 1284 3584 2034 3584 
Q 2703 3584 3089 3131 
Q 3475 2678 3475 1894 
z
M 2900 2063 
Q 2888 2569 2661 2833 
Q 2434 3097 2009 3097 
Q 1594 3097 1325 2822 
Q 1056 2547 1006 2059 
L 2900 2063 
z
" transform="scale(0.015625)"/>
     </defs>
     <use xlink:href="#DejaVuSansMono-64"/>
     <use xlink:href="#DejaVuSansMono-79" x="60.205078"/>
     <use xlink:href="#DejaVuSansMono-6e" x="120.410156"/>
     <use xlink:href="#DejaVuSansMono-6f" x="180.615234"/>
     <use xlink:href="#DejaVuSansMono-6d" x="240.820312"/>
     <use xlink:href="#DejaVuSansMono-69" x="301.025391"/>
     <use xlink:href="#DejaVuSansMono-67" x="361.230469"/>
     <use xlink:href="#DejaVuSansMono-68" x="421.435547"/>
     <use xlink:href="#DejaVuSansMono-74" x="481.640625"/>
     <use xlink:href="#DejaVuSansMono-2e" x="541.845703"/>
     <use xlink:href="#DejaVuSansMono-6e" x="602.050781"/>
     <use xlink:href="#DejaVuSansMono-65" x="662.255859"/>
     <use xlink:href="#DejaVuSansMono-74" x="722.460938"/>
    </g>
   </a>
  </g>
 </g>
 <defs>
  <clipPath id="pfc92f42253">
   <rect x="61.22" y="48.12" width="167.275936" height="176.72"/>
  </clipPath>
  <clipPath id="pebeecc16e0">
   <rect x="246.61" y="48.12" width="167.275936" height="176.72"/>
  </clipPath>
 </defs>
</svg>
