<?xml version="1.0" encoding="utf-8" standalone="no"?>
<!DOCTYPE svg PUBLIC "-//W3C//DTD SVG 1.1//EN"
  "http://www.w3.org/Graphics/SVG/1.1/DTD/svg11.dtd">
<svg xmlns:xlink="http://www.w3.org/1999/xlink" width="576pt" height="324pt" viewBox="0 0 576 324" xmlns="http://www.w3.org/2000/svg" version="1.1">
 <metadata>
  <rdf:RDF xmlns:dc="http://purl.org/dc/elements/1.1/" xmlns:cc="http://creativecommons.org/ns#" xmlns:rdf="http://www.w3.org/1999/02/22-rdf-syntax-ns#">
   <cc:Work>
    <dc:type rdf:resource="http://purl.org/dc/dcmitype/StillImage"/>
    <dc:date>2025-07-09T15:56:56.411369</dc:date>
    <dc:format>image/svg+xml</dc:format>
    <dc:creator>
     <cc:Agent>
      <dc:title>Matplotlib v3.10.3, https://matplotlib.org/</dc:title>
     </cc:Agent>
    </dc:creator>
   </cc:Work>
  </rdf:RDF>
 </metadata>
 <defs>
  <style type="text/css">*{stroke-linejoin: round; stroke-linecap: butt}</style>
 </defs>
 <g id="figure_1">
  <g id="patch_1">
   <path d="M 0 324 
L 576 324 
L 576 0 
L 0 0 
z
" style="fill: #ffffff"/>
  </g>
  <g id="axes_1">
   <g id="patch_2">
    <path d="M 67.15 245.648542 
L 563.04 245.648542 
L 563.04 36.72 
L 67.15 36.72 
z
" style="fill: #ffffff"/>
   </g>
   <g id="FillBetweenPolyCollection_1">
    <path d="M 76.686346 96.779903 
L 76.686346 172.860101 
L 81.877203 172.860101 
L 85.584958 171.671975 
L 90.775816 169.792788 
L 94.483571 168.109465 
L 99.674428 165.008905 
L 103.382183 164.296575 
L 108.57304 163.377725 
L 112.280795 162.573827 
L 117.471652 161.923413 
L 121.179408 163.218595 
L 126.370265 164.343013 
L 130.07802 165.35795 
L 135.268877 167.702248 
L 138.976632 167.894567 
L 144.167489 168.527255 
L 147.875244 169.247146 
L 153.066102 170.17315 
L 156.773857 170.810309 
L 161.964714 172.405898 
L 165.672469 172.518374 
L 170.863326 172.201795 
L 174.571081 172.599391 
L 179.761938 171.265509 
L 183.469693 171.546217 
L 188.660551 170.332881 
L 192.368306 168.858721 
L 197.559163 165.807035 
L 201.266918 165.490879 
L 206.457775 165.087005 
L 210.16553 165.808254 
L 215.356387 167.224052 
L 219.064143 168.618298 
L 224.255 170.347326 
L 227.962755 172.430464 
L 233.153612 175.475316 
L 236.861367 177.485074 
L 242.052224 182.242895 
L 245.759979 185.048691 
L 250.950837 189.215319 
L 254.658592 190.57319 
L 259.849449 193.448877 
L 263.557204 196.118477 
L 268.748061 195.864743 
L 272.455816 195.651504 
L 277.646673 194.474478 
L 281.354428 193.390441 
L 286.545286 190.075363 
L 290.253041 186.703274 
L 295.443898 183.195431 
L 299.151653 180.576952 
L 304.34251 175.184425 
L 308.050265 171.720171 
L 313.241122 166.661967 
L 316.948878 163.958263 
L 322.139735 161.581594 
L 325.84749 159.495095 
L 331.038347 156.694499 
L 334.746102 155.166145 
L 339.936959 153.28403 
L 343.644714 152.044462 
L 348.835572 151.868889 
L 352.543327 151.79966 
L 357.734184 153.902433 
L 361.441939 155.156056 
L 366.632796 157.702409 
L 370.340551 160.660278 
L 375.531408 164.992819 
L 379.239163 166.911382 
L 384.430021 171.124179 
L 388.137776 174.475443 
L 393.328633 175.919317 
L 397.036388 177.340246 
L 402.227245 178.375843 
L 405.935 176.21398 
L 411.125857 173.386715 
L 414.833613 170.432449 
L 420.02447 167.238905 
L 423.732225 163.850815 
L 428.923082 160.226643 
L 432.630837 156.490292 
L 437.821694 152.044875 
L 441.529449 150.077539 
L 446.720307 147.529209 
L 450.428062 146.904277 
L 455.618919 145.0342 
L 459.326674 145.115418 
L 464.517531 145.63016 
L 468.225286 145.523383 
L 473.416143 145.341435 
L 477.123898 145.689352 
L 482.314756 146.738892 
L 486.022511 146.696264 
L 491.213368 148.020627 
L 494.921123 149.295552 
L 500.11198 153.145277 
L 503.819735 154.513101 
L 509.010592 154.88559 
L 512.718348 155.260847 
L 517.909205 156.994586 
L 521.61696 157.508286 
L 526.807817 159.413477 
L 530.515572 161.056643 
L 535.706429 163.657124 
L 539.414184 165.908789 
L 544.605042 167.913076 
L 548.312797 170.23728 
L 553.503654 173.658803 
L 553.503654 138.571833 
L 553.503654 138.571833 
L 548.312797 138.399247 
L 544.605042 137.624505 
L 539.414184 136.622629 
L 535.706429 135.320779 
L 530.515572 133.262621 
L 526.807817 132.386992 
L 521.61696 130.001443 
L 517.909205 127.513832 
L 512.718348 123.62322 
L 509.010592 120.981802 
L 503.819735 116.053788 
L 500.11198 113.32424 
L 494.921123 109.722456 
L 491.213368 107.338687 
L 486.022511 104.239026 
L 482.314756 100.784682 
L 477.123898 97.952472 
L 473.416143 95.225666 
L 468.225286 90.662247 
L 464.517531 90.556107 
L 459.326674 90.324404 
L 455.618919 89.793074 
L 450.428062 94.342996 
L 446.720307 97.348502 
L 441.529449 104.189359 
L 437.821694 109.346805 
L 432.630837 113.119412 
L 428.923082 116.774409 
L 423.732225 120.397076 
L 420.02447 122.931753 
L 414.833613 125.166737 
L 411.125857 125.346224 
L 405.935 126.55116 
L 402.227245 127.032491 
L 397.036388 127.464647 
L 393.328633 127.53477 
L 388.137776 127.284784 
L 384.430021 125.465282 
L 379.239163 124.30943 
L 375.531408 122.358571 
L 370.340551 120.084548 
L 366.632796 118.219928 
L 361.441939 114.665015 
L 357.734184 113.237706 
L 352.543327 111.336923 
L 348.835572 109.892112 
L 343.644714 109.34524 
L 339.936959 109.742288 
L 334.746102 111.86039 
L 331.038347 115.374146 
L 325.84749 121.408675 
L 322.139735 124.318655 
L 316.948878 128.321091 
L 313.241122 131.160933 
L 308.050265 135.183914 
L 304.34251 139.029518 
L 299.151653 144.310644 
L 295.443898 147.280544 
L 290.253041 151.00254 
L 286.545286 153.773836 
L 281.354428 156.811292 
L 277.646673 158.039051 
L 272.455816 159.21808 
L 268.748061 159.282966 
L 263.557204 157.792493 
L 259.849449 156.961808 
L 254.658592 155.174538 
L 250.950837 153.809006 
L 245.759979 150.430502 
L 242.052224 147.618146 
L 236.861367 144.558618 
L 233.153612 142.067499 
L 227.962755 137.861566 
L 224.255 136.279844 
L 219.064143 133.428372 
L 215.356387 133.107831 
L 210.16553 132.565118 
L 206.457775 131.716447 
L 201.266918 131.526494 
L 197.559163 131.503927 
L 192.368306 131.25442 
L 188.660551 131.174558 
L 183.469693 130.892146 
L 179.761938 130.455604 
L 174.571081 129.328155 
L 170.863326 129.056207 
L 165.672469 128.585329 
L 161.964714 128.047534 
L 156.773857 127.168076 
L 153.066102 126.698974 
L 147.875244 125.928746 
L 144.167489 125.079589 
L 138.976632 124.949179 
L 135.268877 124.457249 
L 130.07802 125.121529 
L 126.370265 125.892292 
L 121.179408 123.49084 
L 117.471652 122.76237 
L 112.280795 120.476925 
L 108.57304 118.351068 
L 103.382183 115.38888 
L 99.674428 113.694416 
L 94.483571 110.553961 
L 90.775816 107.728315 
L 85.584958 103.746851 
L 81.877203 100.976648 
L 76.686346 96.779903 
z
" clip-path="url(#p4155c0cfe5)" style="fill: #55a868; fill-opacity: 0.2"/>
   </g>
   <g id="patch_3">
    <path d="M 122.66251 245.648542 
L 238.344469 245.648542 
L 238.344469 36.72 
L 122.66251 36.72 
z
" clip-path="url(#p4155c0cfe5)" style="fill: #808080; opacity: 0.2"/>
   </g>
   <g id="patch_4">
    <path d="M 371.823653 245.648542 
L 487.505613 245.648542 
L 487.505613 36.72 
L 371.823653 36.72 
z
" clip-path="url(#p4155c0cfe5)" style="fill: #808080; opacity: 0.2"/>
   </g>
   <g id="matplotlib.axis_1">
    <g id="xtick_1">
     <g id="line2d_1">
      <defs>
       <path id="m2fd7c3234f" d="M 0 0 
L 0 3.5 
" style="stroke: #333333; stroke-width: 0.8"/>
      </defs>
      <g>
       <use xlink:href="#m2fd7c3234f" x="109.314591" y="245.648542" style="fill: #333333; stroke: #333333; stroke-width: 0.8"/>
      </g>
     </g>
     <g id="text_1">
      <!-- 2025-03-01 -->
      <g style="fill: #333333" transform="translate(33.255761 305.446679) rotate(-30) scale(0.16 -0.16)">
       <defs>
        <path id="Montserrat-Regular-32" d="M 250 0 
L 250 326 
L 2112 2150 
Q 2368 2400 2496 2589 
Q 2624 2778 2669 2944 
Q 2714 3110 2714 3258 
Q 2714 3648 2448 3872 
Q 2182 4096 1664 4096 
Q 1267 4096 963 3974 
Q 659 3853 442 3597 
L 115 3878 
Q 378 4186 787 4352 
Q 1197 4518 1702 4518 
Q 2157 4518 2489 4374 
Q 2822 4230 3004 3955 
Q 3187 3680 3187 3309 
Q 3187 3091 3126 2880 
Q 3066 2669 2909 2435 
Q 2752 2202 2451 1907 
L 742 230 
L 614 410 
L 3392 410 
L 3392 0 
L 250 0 
z
" transform="scale(0.015625)"/>
        <path id="Montserrat-Regular-30" d="M 2118 -38 
Q 1600 -38 1197 234 
Q 794 506 563 1014 
Q 333 1523 333 2240 
Q 333 2957 563 3465 
Q 794 3974 1197 4246 
Q 1600 4518 2118 4518 
Q 2637 4518 3040 4246 
Q 3443 3974 3676 3465 
Q 3910 2957 3910 2240 
Q 3910 1523 3676 1014 
Q 3443 506 3040 234 
Q 2637 -38 2118 -38 
z
M 2118 384 
Q 2515 384 2809 598 
Q 3104 813 3270 1225 
Q 3437 1638 3437 2240 
Q 3437 2842 3270 3254 
Q 3104 3667 2809 3881 
Q 2515 4096 2118 4096 
Q 1734 4096 1433 3881 
Q 1133 3667 966 3254 
Q 800 2842 800 2240 
Q 800 1638 966 1225 
Q 1133 813 1433 598 
Q 1734 384 2118 384 
z
" transform="scale(0.015625)"/>
        <path id="Montserrat-Regular-35" d="M 1747 -38 
Q 1267 -38 832 118 
Q 397 275 141 538 
L 365 902 
Q 576 678 944 531 
Q 1312 384 1741 384 
Q 2310 384 2608 637 
Q 2906 890 2906 1299 
Q 2906 1587 2768 1795 
Q 2630 2003 2304 2118 
Q 1978 2234 1408 2234 
L 454 2234 
L 685 4480 
L 3136 4480 
L 3136 4070 
L 870 4070 
L 1107 4294 
L 909 2413 
L 672 2643 
L 1510 2643 
Q 2189 2643 2598 2476 
Q 3008 2310 3190 2012 
Q 3373 1715 3373 1318 
Q 3373 941 3193 630 
Q 3014 320 2656 141 
Q 2298 -38 1747 -38 
z
" transform="scale(0.015625)"/>
        <path id="Montserrat-Regular-2d" d="M 384 1536 
L 384 1933 
L 2061 1933 
L 2061 1536 
L 384 1536 
z
" transform="scale(0.015625)"/>
        <path id="Montserrat-Regular-33" d="M 1670 -38 
Q 1184 -38 752 118 
Q 320 275 58 538 
L 282 902 
Q 499 678 867 531 
Q 1235 384 1670 384 
Q 2227 384 2524 627 
Q 2822 870 2822 1280 
Q 2822 1690 2531 1933 
Q 2240 2176 1613 2176 
L 1293 2176 
L 1293 2515 
L 2675 4250 
L 2739 4070 
L 243 4070 
L 243 4480 
L 3123 4480 
L 3123 4154 
L 1741 2419 
L 1517 2566 
L 1690 2566 
Q 2496 2566 2896 2208 
Q 3296 1850 3296 1286 
Q 3296 909 3117 608 
Q 2938 307 2576 134 
Q 2214 -38 1670 -38 
z
" transform="scale(0.015625)"/>
        <path id="Montserrat-Regular-31" d="M 1114 0 
L 1114 4288 
L 1318 4070 
L 58 4070 
L 58 4480 
L 1574 4480 
L 1574 0 
L 1114 0 
z
" transform="scale(0.015625)"/>
       </defs>
       <use xlink:href="#Montserrat-Regular-32"/>
       <use xlink:href="#Montserrat-Regular-30" transform="translate(56.799988 0)"/>
       <use xlink:href="#Montserrat-Regular-32" transform="translate(122.999985 0)"/>
       <use xlink:href="#Montserrat-Regular-35" transform="translate(179.799973 0)"/>
       <use xlink:href="#Montserrat-Regular-2d" transform="translate(236.399963 0)"/>
       <use xlink:href="#Montserrat-Regular-30" transform="translate(274.59996 0)"/>
       <use xlink:href="#Montserrat-Regular-33" transform="translate(340.799957 0)"/>
       <use xlink:href="#Montserrat-Regular-2d" transform="translate(397.199951 0)"/>
       <use xlink:href="#Montserrat-Regular-30" transform="translate(435.399948 0)"/>
       <use xlink:href="#Montserrat-Regular-31" transform="translate(501.599945 0)"/>
      </g>
     </g>
    </g>
    <g id="xtick_2">
     <g id="line2d_2">
      <g>
       <use xlink:href="#m2fd7c3234f" x="171.604877" y="245.648542" style="fill: #333333; stroke: #333333; stroke-width: 0.8"/>
      </g>
     </g>
     <g id="text_2">
      <!-- 2025-03-08 -->
      <g style="fill: #333333" transform="translate(91.707389 307.662929) rotate(-30) scale(0.16 -0.16)">
       <defs>
        <path id="Montserrat-Regular-38" d="M 2035 -38 
Q 1498 -38 1110 115 
Q 723 269 515 560 
Q 307 851 307 1248 
Q 307 1632 508 1904 
Q 710 2176 1097 2323 
Q 1485 2470 2035 2470 
Q 2579 2470 2969 2323 
Q 3360 2176 3568 1904 
Q 3776 1632 3776 1248 
Q 3776 851 3565 560 
Q 3354 269 2963 115 
Q 2573 -38 2035 -38 
z
M 2035 352 
Q 2630 352 2966 595 
Q 3302 838 3302 1254 
Q 3302 1670 2966 1910 
Q 2630 2150 2035 2150 
Q 1440 2150 1107 1910 
Q 774 1670 774 1254 
Q 774 838 1107 595 
Q 1440 352 2035 352 
z
M 2035 2208 
Q 1536 2208 1187 2342 
Q 838 2477 652 2729 
Q 467 2982 467 3334 
Q 467 3706 662 3971 
Q 858 4237 1210 4377 
Q 1562 4518 2035 4518 
Q 2509 4518 2864 4377 
Q 3219 4237 3417 3971 
Q 3616 3706 3616 3334 
Q 3616 2982 3430 2729 
Q 3245 2477 2889 2342 
Q 2534 2208 2035 2208 
z
M 2035 2515 
Q 2560 2515 2854 2732 
Q 3149 2950 3149 3315 
Q 3149 3699 2845 3913 
Q 2541 4128 2035 4128 
Q 1530 4128 1229 3913 
Q 928 3699 928 3322 
Q 928 2950 1219 2732 
Q 1510 2515 2035 2515 
z
" transform="scale(0.015625)"/>
       </defs>
       <use xlink:href="#Montserrat-Regular-32"/>
       <use xlink:href="#Montserrat-Regular-30" transform="translate(56.799988 0)"/>
       <use xlink:href="#Montserrat-Regular-32" transform="translate(122.999985 0)"/>
       <use xlink:href="#Montserrat-Regular-35" transform="translate(179.799973 0)"/>
       <use xlink:href="#Montserrat-Regular-2d" transform="translate(236.399963 0)"/>
       <use xlink:href="#Montserrat-Regular-30" transform="translate(274.59996 0)"/>
       <use xlink:href="#Montserrat-Regular-33" transform="translate(340.799957 0)"/>
       <use xlink:href="#Montserrat-Regular-2d" transform="translate(397.199951 0)"/>
       <use xlink:href="#Montserrat-Regular-30" transform="translate(435.399948 0)"/>
       <use xlink:href="#Montserrat-Regular-38" transform="translate(501.599945 0)"/>
      </g>
     </g>
    </g>
    <g id="xtick_3">
     <g id="line2d_3">
      <g>
       <use xlink:href="#m2fd7c3234f" x="233.895163" y="245.648542" style="fill: #333333; stroke: #333333; stroke-width: 0.8"/>
      </g>
     </g>
     <g id="text_3">
      <!-- 2025-03-15 -->
      <g style="fill: #333333" transform="translate(159.167847 304.677929) rotate(-30) scale(0.16 -0.16)">
       <use xlink:href="#Montserrat-Regular-32"/>
       <use xlink:href="#Montserrat-Regular-30" transform="translate(56.799988 0)"/>
       <use xlink:href="#Montserrat-Regular-32" transform="translate(122.999985 0)"/>
       <use xlink:href="#Montserrat-Regular-35" transform="translate(179.799973 0)"/>
       <use xlink:href="#Montserrat-Regular-2d" transform="translate(236.399963 0)"/>
       <use xlink:href="#Montserrat-Regular-30" transform="translate(274.59996 0)"/>
       <use xlink:href="#Montserrat-Regular-33" transform="translate(340.799957 0)"/>
       <use xlink:href="#Montserrat-Regular-2d" transform="translate(397.199951 0)"/>
       <use xlink:href="#Montserrat-Regular-31" transform="translate(435.399948 0)"/>
       <use xlink:href="#Montserrat-Regular-35" transform="translate(471.499939 0)"/>
      </g>
     </g>
    </g>
    <g id="xtick_4">
     <g id="line2d_4">
      <g>
       <use xlink:href="#m2fd7c3234f" x="296.185449" y="245.648542" style="fill: #333333; stroke: #333333; stroke-width: 0.8"/>
      </g>
     </g>
     <g id="text_4">
      <!-- 2025-03-22 -->
      <g style="fill: #333333" transform="translate(218.561277 306.350429) rotate(-30) scale(0.16 -0.16)">
       <use xlink:href="#Montserrat-Regular-32"/>
       <use xlink:href="#Montserrat-Regular-30" transform="translate(56.799988 0)"/>
       <use xlink:href="#Montserrat-Regular-32" transform="translate(122.999985 0)"/>
       <use xlink:href="#Montserrat-Regular-35" transform="translate(179.799973 0)"/>
       <use xlink:href="#Montserrat-Regular-2d" transform="translate(236.399963 0)"/>
       <use xlink:href="#Montserrat-Regular-30" transform="translate(274.59996 0)"/>
       <use xlink:href="#Montserrat-Regular-33" transform="translate(340.799957 0)"/>
       <use xlink:href="#Montserrat-Regular-2d" transform="translate(397.199951 0)"/>
       <use xlink:href="#Montserrat-Regular-32" transform="translate(435.399948 0)"/>
       <use xlink:href="#Montserrat-Regular-32" transform="translate(492.199936 0)"/>
      </g>
     </g>
    </g>
    <g id="xtick_5">
     <g id="line2d_5">
      <g>
       <use xlink:href="#m2fd7c3234f" x="385.171572" y="245.648542" style="fill: #333333; stroke: #333333; stroke-width: 0.8"/>
      </g>
     </g>
     <g id="text_5">
      <!-- 2025-04-01 -->
      <g style="fill: #333333" transform="translate(307.770402 306.221679) rotate(-30) scale(0.16 -0.16)">
       <defs>
        <path id="Montserrat-Regular-34" d="M 256 1178 
L 256 1510 
L 2630 4480 
L 3142 4480 
L 787 1510 
L 538 1587 
L 4141 1587 
L 4141 1178 
L 256 1178 
z
M 2784 0 
L 2784 1178 
L 2797 1587 
L 2797 2624 
L 3245 2624 
L 3245 0 
L 2784 0 
z
" transform="scale(0.015625)"/>
       </defs>
       <use xlink:href="#Montserrat-Regular-32"/>
       <use xlink:href="#Montserrat-Regular-30" transform="translate(56.799988 0)"/>
       <use xlink:href="#Montserrat-Regular-32" transform="translate(122.999985 0)"/>
       <use xlink:href="#Montserrat-Regular-35" transform="translate(179.799973 0)"/>
       <use xlink:href="#Montserrat-Regular-2d" transform="translate(236.399963 0)"/>
       <use xlink:href="#Montserrat-Regular-30" transform="translate(274.59996 0)"/>
       <use xlink:href="#Montserrat-Regular-34" transform="translate(340.799957 0)"/>
       <use xlink:href="#Montserrat-Regular-2d" transform="translate(406.899948 0)"/>
       <use xlink:href="#Montserrat-Regular-30" transform="translate(445.099945 0)"/>
       <use xlink:href="#Montserrat-Regular-31" transform="translate(511.299942 0)"/>
      </g>
     </g>
    </g>
    <g id="xtick_6">
     <g id="line2d_6">
      <g>
       <use xlink:href="#m2fd7c3234f" x="447.461858" y="245.648542" style="fill: #333333; stroke: #333333; stroke-width: 0.8"/>
      </g>
     </g>
     <g id="text_6">
      <!-- 2025-04-08 -->
      <g style="fill: #333333" transform="translate(366.22203 308.437929) rotate(-30) scale(0.16 -0.16)">
       <use xlink:href="#Montserrat-Regular-32"/>
       <use xlink:href="#Montserrat-Regular-30" transform="translate(56.799988 0)"/>
       <use xlink:href="#Montserrat-Regular-32" transform="translate(122.999985 0)"/>
       <use xlink:href="#Montserrat-Regular-35" transform="translate(179.799973 0)"/>
       <use xlink:href="#Montserrat-Regular-2d" transform="translate(236.399963 0)"/>
       <use xlink:href="#Montserrat-Regular-30" transform="translate(274.59996 0)"/>
       <use xlink:href="#Montserrat-Regular-34" transform="translate(340.799957 0)"/>
       <use xlink:href="#Montserrat-Regular-2d" transform="translate(406.899948 0)"/>
       <use xlink:href="#Montserrat-Regular-30" transform="translate(445.099945 0)"/>
       <use xlink:href="#Montserrat-Regular-38" transform="translate(511.299942 0)"/>
      </g>
     </g>
    </g>
    <g id="xtick_7">
     <g id="line2d_7">
      <g>
       <use xlink:href="#m2fd7c3234f" x="509.752143" y="245.648542" style="fill: #333333; stroke: #333333; stroke-width: 0.8"/>
      </g>
     </g>
     <g id="text_7">
      <!-- 2025-04-15 -->
      <g style="fill: #333333" transform="translate(433.682488 305.452929) rotate(-30) scale(0.16 -0.16)">
       <use xlink:href="#Montserrat-Regular-32"/>
       <use xlink:href="#Montserrat-Regular-30" transform="translate(56.799988 0)"/>
       <use xlink:href="#Montserrat-Regular-32" transform="translate(122.999985 0)"/>
       <use xlink:href="#Montserrat-Regular-35" transform="translate(179.799973 0)"/>
       <use xlink:href="#Montserrat-Regular-2d" transform="translate(236.399963 0)"/>
       <use xlink:href="#Montserrat-Regular-30" transform="translate(274.59996 0)"/>
       <use xlink:href="#Montserrat-Regular-34" transform="translate(340.799957 0)"/>
       <use xlink:href="#Montserrat-Regular-2d" transform="translate(406.899948 0)"/>
       <use xlink:href="#Montserrat-Regular-31" transform="translate(445.099945 0)"/>
       <use xlink:href="#Montserrat-Regular-35" transform="translate(481.199936 0)"/>
      </g>
     </g>
    </g>
   </g>
   <g id="matplotlib.axis_2">
    <g id="ytick_1">
     <g id="line2d_8">
      <defs>
       <path id="mdf7ed87267" d="M 0 0 
L -3.5 0 
" style="stroke: #333333; stroke-width: 0.8"/>
      </defs>
      <g>
       <use xlink:href="#mdf7ed87267" x="67.15" y="224.4113" style="fill: #333333; stroke: #333333; stroke-width: 0.8"/>
      </g>
     </g>
     <g id="text_8">
      <!-- 90 -->
      <g style="fill: #333333" transform="translate(40.3125 230.34755) scale(0.16 -0.16)">
       <defs>
        <path id="Montserrat-Regular-39" d="M 1728 4518 
Q 2323 4518 2732 4252 
Q 3142 3987 3353 3488 
Q 3565 2989 3565 2278 
Q 3565 1523 3305 1004 
Q 3046 486 2585 224 
Q 2125 -38 1517 -38 
Q 1216 -38 944 19 
Q 672 77 454 205 
L 640 576 
Q 813 461 1040 413 
Q 1267 365 1510 365 
Q 2234 365 2666 825 
Q 3098 1286 3098 2202 
Q 3098 2349 3082 2553 
Q 3066 2758 3008 2963 
L 3168 2842 
Q 3104 2509 2896 2275 
Q 2688 2042 2384 1920 
Q 2080 1798 1709 1798 
Q 1267 1798 924 1964 
Q 582 2131 390 2432 
Q 198 2733 198 3142 
Q 198 3565 396 3872 
Q 595 4179 944 4348 
Q 1293 4518 1728 4518 
z
M 1747 4128 
Q 1427 4128 1180 4009 
Q 934 3891 793 3673 
Q 653 3456 653 3155 
Q 653 2714 957 2451 
Q 1261 2189 1779 2189 
Q 2125 2189 2384 2317 
Q 2643 2445 2787 2669 
Q 2931 2893 2931 3168 
Q 2931 3418 2796 3635 
Q 2662 3853 2400 3990 
Q 2138 4128 1747 4128 
z
" transform="scale(0.015625)"/>
       </defs>
       <use xlink:href="#Montserrat-Regular-39"/>
       <use xlink:href="#Montserrat-Regular-30" transform="translate(60.899994 0)"/>
      </g>
     </g>
    </g>
    <g id="ytick_2">
     <g id="line2d_9">
      <g>
       <use xlink:href="#mdf7ed87267" x="67.15" y="167.013349" style="fill: #333333; stroke: #333333; stroke-width: 0.8"/>
      </g>
     </g>
     <g id="text_9">
      <!-- 100 -->
      <g style="fill: #333333" transform="translate(33.69 172.949599) scale(0.16 -0.16)">
       <use xlink:href="#Montserrat-Regular-31"/>
       <use xlink:href="#Montserrat-Regular-30" transform="translate(36.099991 0)"/>
       <use xlink:href="#Montserrat-Regular-30" transform="translate(102.299988 0)"/>
      </g>
     </g>
    </g>
    <g id="ytick_3">
     <g id="line2d_10">
      <g>
       <use xlink:href="#mdf7ed87267" x="67.15" y="109.615398" style="fill: #333333; stroke: #333333; stroke-width: 0.8"/>
      </g>
     </g>
     <g id="text_10">
      <!-- 110 -->
      <g style="fill: #333333" transform="translate(38.5075 115.551648) scale(0.16 -0.16)">
       <use xlink:href="#Montserrat-Regular-31"/>
       <use xlink:href="#Montserrat-Regular-31" transform="translate(36.099991 0)"/>
       <use xlink:href="#Montserrat-Regular-30" transform="translate(72.199982 0)"/>
      </g>
     </g>
    </g>
    <g id="ytick_4">
     <g id="line2d_11">
      <g>
       <use xlink:href="#mdf7ed87267" x="67.15" y="52.217447" style="fill: #333333; stroke: #333333; stroke-width: 0.8"/>
      </g>
     </g>
     <g id="text_11">
      <!-- 120 -->
      <g style="fill: #333333" transform="translate(35.195 58.153697) scale(0.16 -0.16)">
       <use xlink:href="#Montserrat-Regular-31"/>
       <use xlink:href="#Montserrat-Regular-32" transform="translate(36.099991 0)"/>
       <use xlink:href="#Montserrat-Regular-30" transform="translate(92.899979 0)"/>
      </g>
     </g>
    </g>
    <g id="text_12">
     <!-- mm Hg -->
     <g style="fill: #333333" transform="translate(27.70875 180.003021) rotate(-90) scale(0.2 -0.2)">
      <defs>
       <path id="Montserrat-Regular-6d" d="M 4832 3392 
Q 5242 3392 5546 3235 
Q 5850 3078 6019 2758 
Q 6189 2438 6189 1952 
L 6189 0 
L 5734 0 
L 5734 1907 
Q 5734 2438 5481 2710 
Q 5229 2982 4768 2982 
Q 4422 2982 4169 2838 
Q 3917 2694 3779 2422 
Q 3642 2150 3642 1766 
L 3642 0 
L 3187 0 
L 3187 1907 
Q 3187 2438 2931 2710 
Q 2675 2982 2214 2982 
Q 1875 2982 1619 2838 
Q 1363 2694 1225 2422 
Q 1088 2150 1088 1766 
L 1088 0 
L 634 0 
L 634 3360 
L 1069 3360 
L 1069 2451 
L 998 2611 
Q 1152 2976 1494 3184 
Q 1837 3392 2304 3392 
Q 2797 3392 3142 3145 
Q 3488 2899 3590 2406 
L 3411 2477 
Q 3558 2886 3932 3139 
Q 4307 3392 4832 3392 
z
" transform="scale(0.015625)"/>
       <path id="Montserrat-Regular-20" transform="scale(0.015625)"/>
       <path id="Montserrat-Regular-48" d="M 4006 4480 
L 4474 4480 
L 4474 0 
L 4006 0 
L 4006 4480 
z
M 1203 0 
L 730 0 
L 730 4480 
L 1203 4480 
L 1203 0 
z
M 4051 2067 
L 1152 2067 
L 1152 2483 
L 4051 2483 
L 4051 2067 
z
" transform="scale(0.015625)"/>
       <path id="Montserrat-Regular-67" d="M 2067 -1274 
Q 1606 -1274 1184 -1139 
Q 762 -1005 499 -755 
L 730 -410 
Q 966 -621 1315 -745 
Q 1664 -870 2054 -870 
Q 2694 -870 2995 -572 
Q 3296 -275 3296 352 
L 3296 1190 
L 3360 1766 
L 3315 2342 
L 3315 3360 
L 3750 3360 
L 3750 410 
Q 3750 -461 3324 -867 
Q 2899 -1274 2067 -1274 
z
M 1984 128 
Q 1504 128 1120 336 
Q 736 544 515 915 
Q 294 1286 294 1766 
Q 294 2246 515 2614 
Q 736 2982 1120 3187 
Q 1504 3392 1984 3392 
Q 2432 3392 2790 3206 
Q 3149 3021 3360 2656 
Q 3571 2291 3571 1766 
Q 3571 1242 3360 877 
Q 3149 512 2790 320 
Q 2432 128 1984 128 
z
M 2029 531 
Q 2400 531 2688 688 
Q 2976 845 3142 1123 
Q 3309 1402 3309 1766 
Q 3309 2131 3142 2406 
Q 2976 2682 2688 2838 
Q 2400 2995 2029 2995 
Q 1664 2995 1373 2838 
Q 1082 2682 918 2406 
Q 755 2131 755 1766 
Q 755 1402 918 1123 
Q 1082 845 1373 688 
Q 1664 531 2029 531 
z
" transform="scale(0.015625)"/>
      </defs>
      <use xlink:href="#Montserrat-Regular-6d"/>
      <use xlink:href="#Montserrat-Regular-6d" transform="translate(106.099991 0)"/>
      <use xlink:href="#Montserrat-Regular-20" transform="translate(212.199982 0)"/>
      <use xlink:href="#Montserrat-Regular-48" transform="translate(238.399979 0)"/>
      <use xlink:href="#Montserrat-Regular-67" transform="translate(319.699966 0)"/>
     </g>
    </g>
   </g>
   <g id="line2d_12">
    <defs>
     <path id="m851d433e3a" d="M 0 1.5 
C 0.397805 1.5 0.77937 1.341951 1.06066 1.06066 
C 1.341951 0.77937 1.5 0.397805 1.5 0 
C 1.5 -0.397805 1.341951 -0.77937 1.06066 -1.06066 
C 0.77937 -1.341951 0.397805 -1.5 0 -1.5 
C -0.397805 -1.5 -0.77937 -1.341951 -1.06066 -1.06066 
C -1.341951 -0.77937 -1.5 -0.397805 -1.5 0 
C -1.5 0.397805 -1.341951 0.77937 -1.06066 1.06066 
C -0.77937 1.341951 -0.397805 1.5 0 1.5 
z
" style="stroke: #4c72b0"/>
    </defs>
    <g clip-path="url(#p4155c0cfe5)">
     <use xlink:href="#m851d433e3a" x="76.686346" y="80.916422" style="fill: #4c72b0; stroke: #4c72b0"/>
     <use xlink:href="#m851d433e3a" x="85.584958" y="155.533759" style="fill: #4c72b0; stroke: #4c72b0"/>
     <use xlink:href="#m851d433e3a" x="94.483571" y="218.671505" style="fill: #4c72b0; stroke: #4c72b0"/>
     <use xlink:href="#m851d433e3a" x="103.382183" y="144.054169" style="fill: #4c72b0; stroke: #4c72b0"/>
     <use xlink:href="#m851d433e3a" x="112.280795" y="161.273554" style="fill: #4c72b0; stroke: #4c72b0"/>
     <use xlink:href="#m851d433e3a" x="121.179408" y="184.232734" style="fill: #4c72b0; stroke: #4c72b0"/>
     <use xlink:href="#m851d433e3a" x="130.07802" y="149.793964" style="fill: #4c72b0; stroke: #4c72b0"/>
     <use xlink:href="#m851d433e3a" x="138.976632" y="121.094988" style="fill: #4c72b0; stroke: #4c72b0"/>
     <use xlink:href="#m851d433e3a" x="147.875244" y="195.712325" style="fill: #4c72b0; stroke: #4c72b0"/>
     <use xlink:href="#m851d433e3a" x="156.773857" y="103.875603" style="fill: #4c72b0; stroke: #4c72b0"/>
     <use xlink:href="#m851d433e3a" x="165.672469" y="207.191915" style="fill: #4c72b0; stroke: #4c72b0"/>
     <use xlink:href="#m851d433e3a" x="174.571081" y="178.492939" style="fill: #4c72b0; stroke: #4c72b0"/>
     <use xlink:href="#m851d433e3a" x="183.469693" y="212.93171" style="fill: #4c72b0; stroke: #4c72b0"/>
     <use xlink:href="#m851d433e3a" x="192.368306" y="161.273554" style="fill: #4c72b0; stroke: #4c72b0"/>
     <use xlink:href="#m851d433e3a" x="201.266918" y="126.834783" style="fill: #4c72b0; stroke: #4c72b0"/>
     <use xlink:href="#m851d433e3a" x="210.16553" y="184.232734" style="fill: #4c72b0; stroke: #4c72b0"/>
     <use xlink:href="#m851d433e3a" x="219.064143" y="103.875603" style="fill: #4c72b0; stroke: #4c72b0"/>
     <use xlink:href="#m851d433e3a" x="227.962755" y="126.834783" style="fill: #4c72b0; stroke: #4c72b0"/>
     <use xlink:href="#m851d433e3a" x="236.861367" y="155.533759" style="fill: #4c72b0; stroke: #4c72b0"/>
     <use xlink:href="#m851d433e3a" x="245.759979" y="241.630685" style="fill: #4c72b0; stroke: #4c72b0"/>
     <use xlink:href="#m851d433e3a" x="254.658592" y="212.93171" style="fill: #4c72b0; stroke: #4c72b0"/>
     <use xlink:href="#m851d433e3a" x="263.557204" y="207.191915" style="fill: #4c72b0; stroke: #4c72b0"/>
     <use xlink:href="#m851d433e3a" x="272.455816" y="212.93171" style="fill: #4c72b0; stroke: #4c72b0"/>
     <use xlink:href="#m851d433e3a" x="281.354428" y="224.4113" style="fill: #4c72b0; stroke: #4c72b0"/>
     <use xlink:href="#m851d433e3a" x="290.253041" y="195.712325" style="fill: #4c72b0; stroke: #4c72b0"/>
     <use xlink:href="#m851d433e3a" x="299.151653" y="207.191915" style="fill: #4c72b0; stroke: #4c72b0"/>
     <use xlink:href="#m851d433e3a" x="308.050265" y="201.45212" style="fill: #4c72b0; stroke: #4c72b0"/>
     <use xlink:href="#m851d433e3a" x="316.948878" y="155.533759" style="fill: #4c72b0; stroke: #4c72b0"/>
     <use xlink:href="#m851d433e3a" x="325.84749" y="167.013349" style="fill: #4c72b0; stroke: #4c72b0"/>
     <use xlink:href="#m851d433e3a" x="334.746102" y="115.355193" style="fill: #4c72b0; stroke: #4c72b0"/>
     <use xlink:href="#m851d433e3a" x="343.644714" y="98.135808" style="fill: #4c72b0; stroke: #4c72b0"/>
     <use xlink:href="#m851d433e3a" x="352.543327" y="184.232734" style="fill: #4c72b0; stroke: #4c72b0"/>
     <use xlink:href="#m851d433e3a" x="361.441939" y="132.574578" style="fill: #4c72b0; stroke: #4c72b0"/>
     <use xlink:href="#m851d433e3a" x="370.340551" y="98.135808" style="fill: #4c72b0; stroke: #4c72b0"/>
     <use xlink:href="#m851d433e3a" x="379.239163" y="155.533759" style="fill: #4c72b0; stroke: #4c72b0"/>
     <use xlink:href="#m851d433e3a" x="388.137776" y="218.671505" style="fill: #4c72b0; stroke: #4c72b0"/>
     <use xlink:href="#m851d433e3a" x="397.036388" y="126.834783" style="fill: #4c72b0; stroke: #4c72b0"/>
     <use xlink:href="#m851d433e3a" x="405.935" y="230.151095" style="fill: #4c72b0; stroke: #4c72b0"/>
     <use xlink:href="#m851d433e3a" x="414.833613" y="86.656217" style="fill: #4c72b0; stroke: #4c72b0"/>
     <use xlink:href="#m851d433e3a" x="423.732225" y="167.013349" style="fill: #4c72b0; stroke: #4c72b0"/>
     <use xlink:href="#m851d433e3a" x="432.630837" y="138.314373" style="fill: #4c72b0; stroke: #4c72b0"/>
     <use xlink:href="#m851d433e3a" x="441.529449" y="109.615398" style="fill: #4c72b0; stroke: #4c72b0"/>
     <use xlink:href="#m851d433e3a" x="450.428062" y="207.191915" style="fill: #4c72b0; stroke: #4c72b0"/>
     <use xlink:href="#m851d433e3a" x="459.326674" y="80.916422" style="fill: #4c72b0; stroke: #4c72b0"/>
     <use xlink:href="#m851d433e3a" x="468.225286" y="40.737857" style="fill: #4c72b0; stroke: #4c72b0"/>
     <use xlink:href="#m851d433e3a" x="477.123898" y="115.355193" style="fill: #4c72b0; stroke: #4c72b0"/>
     <use xlink:href="#m851d433e3a" x="486.022511" y="201.45212" style="fill: #4c72b0; stroke: #4c72b0"/>
     <use xlink:href="#m851d433e3a" x="494.921123" y="172.753144" style="fill: #4c72b0; stroke: #4c72b0"/>
     <use xlink:href="#m851d433e3a" x="503.819735" y="167.013349" style="fill: #4c72b0; stroke: #4c72b0"/>
     <use xlink:href="#m851d433e3a" x="512.718348" y="178.492939" style="fill: #4c72b0; stroke: #4c72b0"/>
     <use xlink:href="#m851d433e3a" x="521.61696" y="121.094988" style="fill: #4c72b0; stroke: #4c72b0"/>
     <use xlink:href="#m851d433e3a" x="530.515572" y="178.492939" style="fill: #4c72b0; stroke: #4c72b0"/>
     <use xlink:href="#m851d433e3a" x="539.414184" y="144.054169" style="fill: #4c72b0; stroke: #4c72b0"/>
     <use xlink:href="#m851d433e3a" x="548.312797" y="172.753144" style="fill: #4c72b0; stroke: #4c72b0"/>
    </g>
   </g>
   <g id="line2d_13">
    <defs>
     <path id="m8ccb8c5ede" d="M 0 1.5 
C 0.397805 1.5 0.77937 1.341951 1.06066 1.06066 
C 1.341951 0.77937 1.5 0.397805 1.5 0 
C 1.5 -0.397805 1.341951 -0.77937 1.06066 -1.06066 
C 0.77937 -1.341951 0.397805 -1.5 0 -1.5 
C -0.397805 -1.5 -0.77937 -1.341951 -1.06066 -1.06066 
C -1.341951 -0.77937 -1.5 -0.397805 -1.5 0 
C -1.5 0.397805 -1.341951 0.77937 -1.06066 1.06066 
C -0.77937 1.341951 -0.397805 1.5 0 1.5 
z
" style="stroke: #c44e52"/>
    </defs>
    <g clip-path="url(#p4155c0cfe5)">
     <use xlink:href="#m8ccb8c5ede" x="81.877203" y="98.135808" style="fill: #c44e52; stroke: #c44e52"/>
     <use xlink:href="#m8ccb8c5ede" x="90.775816" y="98.135808" style="fill: #c44e52; stroke: #c44e52"/>
     <use xlink:href="#m8ccb8c5ede" x="99.674428" y="155.533759" style="fill: #c44e52; stroke: #c44e52"/>
     <use xlink:href="#m8ccb8c5ede" x="108.57304" y="121.094988" style="fill: #c44e52; stroke: #c44e52"/>
     <use xlink:href="#m8ccb8c5ede" x="117.471652" y="201.45212" style="fill: #c44e52; stroke: #c44e52"/>
     <use xlink:href="#m8ccb8c5ede" x="126.370265" y="126.834783" style="fill: #c44e52; stroke: #c44e52"/>
     <use xlink:href="#m8ccb8c5ede" x="135.268877" y="86.656217" style="fill: #c44e52; stroke: #c44e52"/>
     <use xlink:href="#m8ccb8c5ede" x="144.167489" y="86.656217" style="fill: #c44e52; stroke: #c44e52"/>
     <use xlink:href="#m8ccb8c5ede" x="153.066102" y="126.834783" style="fill: #c44e52; stroke: #c44e52"/>
     <use xlink:href="#m8ccb8c5ede" x="161.964714" y="184.232734" style="fill: #c44e52; stroke: #c44e52"/>
     <use xlink:href="#m8ccb8c5ede" x="170.863326" y="103.875603" style="fill: #c44e52; stroke: #c44e52"/>
     <use xlink:href="#m8ccb8c5ede" x="179.761938" y="184.232734" style="fill: #c44e52; stroke: #c44e52"/>
     <use xlink:href="#m8ccb8c5ede" x="188.660551" y="115.355193" style="fill: #c44e52; stroke: #c44e52"/>
     <use xlink:href="#m8ccb8c5ede" x="197.559163" y="126.834783" style="fill: #c44e52; stroke: #c44e52"/>
     <use xlink:href="#m8ccb8c5ede" x="206.457775" y="115.355193" style="fill: #c44e52; stroke: #c44e52"/>
     <use xlink:href="#m8ccb8c5ede" x="215.356387" y="172.753144" style="fill: #c44e52; stroke: #c44e52"/>
     <use xlink:href="#m8ccb8c5ede" x="224.255" y="126.834783" style="fill: #c44e52; stroke: #c44e52"/>
     <use xlink:href="#m8ccb8c5ede" x="233.153612" y="121.094988" style="fill: #c44e52; stroke: #c44e52"/>
     <use xlink:href="#m8ccb8c5ede" x="242.052224" y="189.972529" style="fill: #c44e52; stroke: #c44e52"/>
     <use xlink:href="#m8ccb8c5ede" x="250.950837" y="138.314373" style="fill: #c44e52; stroke: #c44e52"/>
     <use xlink:href="#m8ccb8c5ede" x="259.849449" y="172.753144" style="fill: #c44e52; stroke: #c44e52"/>
     <use xlink:href="#m8ccb8c5ede" x="268.748061" y="167.013349" style="fill: #c44e52; stroke: #c44e52"/>
     <use xlink:href="#m8ccb8c5ede" x="277.646673" y="155.533759" style="fill: #c44e52; stroke: #c44e52"/>
     <use xlink:href="#m8ccb8c5ede" x="286.545286" y="184.232734" style="fill: #c44e52; stroke: #c44e52"/>
     <use xlink:href="#m8ccb8c5ede" x="295.443898" y="109.615398" style="fill: #c44e52; stroke: #c44e52"/>
     <use xlink:href="#m8ccb8c5ede" x="304.34251" y="126.834783" style="fill: #c44e52; stroke: #c44e52"/>
     <use xlink:href="#m8ccb8c5ede" x="313.241122" y="138.314373" style="fill: #c44e52; stroke: #c44e52"/>
     <use xlink:href="#m8ccb8c5ede" x="322.139735" y="138.314373" style="fill: #c44e52; stroke: #c44e52"/>
     <use xlink:href="#m8ccb8c5ede" x="331.038347" y="75.176627" style="fill: #c44e52; stroke: #c44e52"/>
     <use xlink:href="#m8ccb8c5ede" x="339.936959" y="80.916422" style="fill: #c44e52; stroke: #c44e52"/>
     <use xlink:href="#m8ccb8c5ede" x="348.835572" y="69.436832" style="fill: #c44e52; stroke: #c44e52"/>
     <use xlink:href="#m8ccb8c5ede" x="357.734184" y="121.094988" style="fill: #c44e52; stroke: #c44e52"/>
     <use xlink:href="#m8ccb8c5ede" x="366.632796" y="178.492939" style="fill: #c44e52; stroke: #c44e52"/>
     <use xlink:href="#m8ccb8c5ede" x="375.531408" y="98.135808" style="fill: #c44e52; stroke: #c44e52"/>
     <use xlink:href="#m8ccb8c5ede" x="384.430021" y="155.533759" style="fill: #c44e52; stroke: #c44e52"/>
     <use xlink:href="#m8ccb8c5ede" x="393.328633" y="172.753144" style="fill: #c44e52; stroke: #c44e52"/>
     <use xlink:href="#m8ccb8c5ede" x="402.227245" y="230.151095" style="fill: #c44e52; stroke: #c44e52"/>
     <use xlink:href="#m8ccb8c5ede" x="411.125857" y="184.232734" style="fill: #c44e52; stroke: #c44e52"/>
     <use xlink:href="#m8ccb8c5ede" x="420.02447" y="115.355193" style="fill: #c44e52; stroke: #c44e52"/>
     <use xlink:href="#m8ccb8c5ede" x="428.923082" y="132.574578" style="fill: #c44e52; stroke: #c44e52"/>
     <use xlink:href="#m8ccb8c5ede" x="437.821694" y="161.273554" style="fill: #c44e52; stroke: #c44e52"/>
     <use xlink:href="#m8ccb8c5ede" x="446.720307" y="63.697037" style="fill: #c44e52; stroke: #c44e52"/>
     <use xlink:href="#m8ccb8c5ede" x="455.618919" y="52.217447" style="fill: #c44e52; stroke: #c44e52"/>
     <use xlink:href="#m8ccb8c5ede" x="464.517531" y="144.054169" style="fill: #c44e52; stroke: #c44e52"/>
     <use xlink:href="#m8ccb8c5ede" x="473.416143" y="63.697037" style="fill: #c44e52; stroke: #c44e52"/>
     <use xlink:href="#m8ccb8c5ede" x="482.314756" y="103.875603" style="fill: #c44e52; stroke: #c44e52"/>
     <use xlink:href="#m8ccb8c5ede" x="491.213368" y="132.574578" style="fill: #c44e52; stroke: #c44e52"/>
     <use xlink:href="#m8ccb8c5ede" x="500.11198" y="103.875603" style="fill: #c44e52; stroke: #c44e52"/>
     <use xlink:href="#m8ccb8c5ede" x="509.010592" y="132.574578" style="fill: #c44e52; stroke: #c44e52"/>
     <use xlink:href="#m8ccb8c5ede" x="517.909205" y="80.916422" style="fill: #c44e52; stroke: #c44e52"/>
     <use xlink:href="#m8ccb8c5ede" x="526.807817" y="126.834783" style="fill: #c44e52; stroke: #c44e52"/>
     <use xlink:href="#m8ccb8c5ede" x="535.706429" y="155.533759" style="fill: #c44e52; stroke: #c44e52"/>
     <use xlink:href="#m8ccb8c5ede" x="544.605042" y="144.054169" style="fill: #c44e52; stroke: #c44e52"/>
     <use xlink:href="#m8ccb8c5ede" x="553.503654" y="155.533759" style="fill: #c44e52; stroke: #c44e52"/>
    </g>
   </g>
   <g id="line2d_14">
    <path d="M 76.686346 129.032168 
L 81.877203 130.829977 
L 85.584958 132.022024 
L 90.775816 133.591343 
L 94.483571 134.661559 
L 99.674428 136.129758 
L 103.382183 137.177285 
L 108.57304 138.665806 
L 112.280795 139.756547 
L 117.471652 141.338595 
L 121.179408 142.505638 
L 126.370265 144.110786 
L 130.07802 145.054088 
L 135.268877 145.75718 
L 138.976632 146.395818 
L 144.167489 147.16687 
L 147.875244 147.552851 
L 153.066102 147.833063 
L 156.773857 147.834131 
L 161.964714 147.797047 
L 165.672469 147.940682 
L 170.863326 148.520904 
L 174.571081 149.111731 
L 179.761938 149.864832 
L 183.469693 150.124443 
L 188.660551 150.009976 
L 192.368306 149.688929 
L 197.559163 149.181678 
L 201.266918 148.925555 
L 206.457775 148.904214 
L 210.16553 149.195249 
L 215.356387 150.197461 
L 219.064143 151.415269 
L 224.255 153.690265 
L 227.962755 155.591043 
L 233.153612 158.717332 
L 236.861367 161.243485 
L 242.052224 164.975404 
L 245.759979 167.562018 
L 250.950837 170.975683 
L 254.658592 173.137458 
L 259.849449 175.750379 
L 263.557204 177.253648 
L 268.748061 178.718714 
L 272.455816 179.144775 
L 277.646673 178.690361 
L 281.354428 177.531737 
L 286.545286 174.758457 
L 290.253041 172.024436 
L 295.443898 167.320466 
L 299.151653 163.510534 
L 304.34251 157.859337 
L 308.050265 153.748915 
L 313.241122 148.254051 
L 316.948878 144.701814 
L 322.139735 140.262341 
L 325.84749 137.453059 
L 331.038347 134.090516 
L 334.746102 132.180302 
L 339.936959 130.384044 
L 343.644714 129.72906 
L 348.835572 129.590421 
L 352.543327 130.116341 
L 357.734184 132.01277 
L 361.441939 134.150813 
L 366.632796 137.909681 
L 370.340551 140.805139 
L 375.531408 144.755766 
L 379.239163 147.235352 
L 384.430021 150.030721 
L 388.137776 151.463085 
L 393.328633 152.661496 
L 397.036388 152.946207 
L 402.227245 152.719117 
L 405.935 152.115848 
L 411.125857 150.589658 
L 414.833613 148.91116 
L 420.02447 145.532459 
L 423.732225 142.373793 
L 428.923082 137.058704 
L 432.630837 132.971539 
L 437.821694 127.525498 
L 441.529449 124.23145 
L 446.720307 120.732557 
L 450.428062 119.028165 
L 455.618919 117.734004 
L 459.326674 117.5326 
L 464.517531 117.941201 
L 468.225286 118.390547 
L 473.416143 118.98672 
L 477.123898 119.511243 
L 482.314756 120.782076 
L 486.022511 122.178712 
L 491.213368 124.862872 
L 494.921123 127.194913 
L 500.11198 130.417682 
L 503.819735 132.66884 
L 509.010592 135.815802 
L 512.718348 138.021432 
L 517.909205 141.017725 
L 521.61696 143.081407 
L 526.807817 145.872789 
L 530.515572 147.810358 
L 535.706429 150.465577 
L 539.414184 152.329083 
L 544.605042 154.900809 
L 548.312797 156.717797 
L 553.503654 159.244296 
" clip-path="url(#p4155c0cfe5)" style="fill: none; stroke: #55a868; stroke-width: 1.5; stroke-linecap: square"/>
   </g>
   <g id="text_13">
    <!-- Systolic blood pressue -->
    <g style="fill: #333333" transform="translate(181.68875 30.72) scale(0.24 -0.24)">
     <defs>
      <path id="Montserrat-Regular-53" d="M 1965 -38 
Q 1466 -38 1008 125 
Q 550 288 301 544 
L 486 909 
Q 723 678 1123 521 
Q 1523 365 1965 365 
Q 2387 365 2652 470 
Q 2918 576 3043 755 
Q 3168 934 3168 1152 
Q 3168 1414 3017 1574 
Q 2867 1734 2624 1827 
Q 2381 1920 2086 1990 
Q 1792 2061 1497 2141 
Q 1203 2221 956 2355 
Q 710 2490 560 2710 
Q 410 2931 410 3290 
Q 410 3622 586 3900 
Q 762 4179 1126 4348 
Q 1491 4518 2061 4518 
Q 2438 4518 2809 4412 
Q 3181 4307 3450 4122 
L 3290 3744 
Q 3002 3936 2678 4025 
Q 2355 4115 2054 4115 
Q 1651 4115 1388 4006 
Q 1126 3898 1001 3715 
Q 877 3533 877 3302 
Q 877 3040 1027 2880 
Q 1178 2720 1424 2630 
Q 1670 2541 1964 2470 
Q 2259 2400 2550 2317 
Q 2842 2234 3088 2102 
Q 3334 1971 3484 1753 
Q 3635 1536 3635 1184 
Q 3635 858 3456 579 
Q 3277 301 2909 131 
Q 2541 -38 1965 -38 
z
" transform="scale(0.015625)"/>
      <path id="Montserrat-Regular-79" d="M 659 -1274 
Q 422 -1274 208 -1197 
Q -6 -1120 -160 -966 
L 51 -627 
Q 179 -749 329 -816 
Q 480 -883 666 -883 
Q 890 -883 1053 -758 
Q 1216 -634 1363 -320 
L 1581 173 
L 1632 243 
L 3014 3360 
L 3462 3360 
L 1779 -403 
Q 1638 -730 1468 -922 
Q 1299 -1114 1100 -1194 
Q 902 -1274 659 -1274 
z
M 1555 -96 
L 6 3360 
L 480 3360 
L 1850 275 
L 1555 -96 
z
" transform="scale(0.015625)"/>
      <path id="Montserrat-Regular-73" d="M 1536 -32 
Q 1120 -32 749 86 
Q 378 205 166 384 
L 371 742 
Q 576 589 896 477 
Q 1216 365 1568 365 
Q 2048 365 2259 515 
Q 2470 666 2470 915 
Q 2470 1101 2352 1206 
Q 2234 1312 2042 1366 
Q 1850 1421 1613 1459 
Q 1376 1498 1142 1549 
Q 909 1600 717 1699 
Q 525 1798 406 1971 
Q 288 2144 288 2432 
Q 288 2707 441 2924 
Q 595 3142 892 3267 
Q 1190 3392 1619 3392 
Q 1946 3392 2272 3305 
Q 2598 3219 2810 3078 
L 2611 2714 
Q 2387 2867 2131 2934 
Q 1875 3002 1619 3002 
Q 1165 3002 950 2845 
Q 736 2688 736 2445 
Q 736 2253 854 2144 
Q 973 2035 1168 1974 
Q 1363 1914 1596 1875 
Q 1830 1837 2064 1782 
Q 2298 1728 2493 1635 
Q 2688 1542 2806 1372 
Q 2925 1203 2925 928 
Q 2925 634 2761 419 
Q 2598 205 2288 86 
Q 1978 -32 1536 -32 
z
" transform="scale(0.015625)"/>
      <path id="Montserrat-Regular-74" d="M 1696 -32 
Q 1222 -32 966 224 
Q 710 480 710 947 
L 710 4102 
L 1165 4102 
L 1165 973 
Q 1165 678 1315 518 
Q 1466 358 1747 358 
Q 2048 358 2246 531 
L 2406 205 
Q 2272 83 2083 25 
Q 1894 -32 1696 -32 
z
M 109 2982 
L 109 3360 
L 2189 3360 
L 2189 2982 
L 109 2982 
z
" transform="scale(0.015625)"/>
      <path id="Montserrat-Regular-6f" d="M 2003 -32 
Q 1517 -32 1129 189 
Q 742 410 518 797 
Q 294 1184 294 1683 
Q 294 2189 518 2573 
Q 742 2957 1126 3174 
Q 1510 3392 2003 3392 
Q 2502 3392 2889 3174 
Q 3277 2957 3497 2573 
Q 3718 2189 3718 1683 
Q 3718 1184 3497 797 
Q 3277 410 2886 189 
Q 2496 -32 2003 -32 
z
M 2003 371 
Q 2368 371 2649 534 
Q 2931 698 3094 995 
Q 3258 1293 3258 1683 
Q 3258 2080 3094 2374 
Q 2931 2669 2649 2832 
Q 2368 2995 2010 2995 
Q 1651 2995 1369 2832 
Q 1088 2669 921 2374 
Q 755 2080 755 1683 
Q 755 1293 921 995 
Q 1088 698 1369 534 
Q 1651 371 2003 371 
z
" transform="scale(0.015625)"/>
      <path id="Montserrat-Regular-6c" d="M 634 0 
L 634 4749 
L 1088 4749 
L 1088 0 
L 634 0 
z
" transform="scale(0.015625)"/>
      <path id="Montserrat-Regular-69" d="M 634 0 
L 634 3360 
L 1088 3360 
L 1088 0 
L 634 0 
z
M 864 4102 
Q 723 4102 627 4198 
Q 531 4294 531 4429 
Q 531 4563 627 4656 
Q 723 4749 864 4749 
Q 1005 4749 1101 4659 
Q 1197 4570 1197 4435 
Q 1197 4294 1104 4198 
Q 1011 4102 864 4102 
z
" transform="scale(0.015625)"/>
      <path id="Montserrat-Regular-63" d="M 2029 -32 
Q 1530 -32 1136 189 
Q 742 410 518 797 
Q 294 1184 294 1683 
Q 294 2189 518 2573 
Q 742 2957 1136 3174 
Q 1530 3392 2029 3392 
Q 2458 3392 2803 3225 
Q 3149 3059 3347 2726 
L 3008 2496 
Q 2835 2752 2579 2873 
Q 2323 2995 2022 2995 
Q 1664 2995 1376 2832 
Q 1088 2669 921 2374 
Q 755 2080 755 1683 
Q 755 1286 921 992 
Q 1088 698 1376 534 
Q 1664 371 2022 371 
Q 2323 371 2579 492 
Q 2835 614 3008 864 
L 3347 634 
Q 3149 307 2803 137 
Q 2458 -32 2029 -32 
z
" transform="scale(0.015625)"/>
      <path id="Montserrat-Regular-62" d="M 2368 -32 
Q 1926 -32 1574 169 
Q 1222 371 1017 755 
Q 813 1139 813 1683 
Q 813 2234 1021 2614 
Q 1229 2995 1581 3193 
Q 1933 3392 2368 3392 
Q 2848 3392 3229 3177 
Q 3610 2963 3827 2579 
Q 4045 2195 4045 1683 
Q 4045 1178 3827 790 
Q 3610 403 3229 185 
Q 2848 -32 2368 -32 
z
M 634 0 
L 634 4749 
L 1088 4749 
L 1088 2368 
L 1024 1690 
L 1069 1011 
L 1069 0 
L 634 0 
z
M 2336 371 
Q 2694 371 2976 534 
Q 3258 698 3424 995 
Q 3590 1293 3590 1683 
Q 3590 2080 3424 2374 
Q 3258 2669 2976 2832 
Q 2694 2995 2336 2995 
Q 1978 2995 1693 2832 
Q 1408 2669 1245 2374 
Q 1082 2080 1082 1683 
Q 1082 1293 1245 995 
Q 1408 698 1693 534 
Q 1978 371 2336 371 
z
" transform="scale(0.015625)"/>
      <path id="Montserrat-Regular-64" d="M 1971 -32 
Q 1491 -32 1110 185 
Q 730 403 512 790 
Q 294 1178 294 1683 
Q 294 2195 512 2579 
Q 730 2963 1110 3177 
Q 1491 3392 1971 3392 
Q 2413 3392 2761 3193 
Q 3110 2995 3318 2614 
Q 3526 2234 3526 1683 
Q 3526 1139 3321 755 
Q 3117 371 2768 169 
Q 2419 -32 1971 -32 
z
M 2003 371 
Q 2362 371 2646 534 
Q 2931 698 3094 995 
Q 3258 1293 3258 1683 
Q 3258 2080 3094 2374 
Q 2931 2669 2646 2832 
Q 2362 2995 2003 2995 
Q 1651 2995 1369 2832 
Q 1088 2669 921 2374 
Q 755 2080 755 1683 
Q 755 1293 921 995 
Q 1088 698 1369 534 
Q 1651 371 2003 371 
z
M 3270 0 
L 3270 1011 
L 3315 1690 
L 3251 2368 
L 3251 4749 
L 3706 4749 
L 3706 0 
L 3270 0 
z
" transform="scale(0.015625)"/>
      <path id="Montserrat-Regular-70" d="M 2368 -32 
Q 1933 -32 1581 169 
Q 1229 371 1021 752 
Q 813 1133 813 1683 
Q 813 2234 1017 2614 
Q 1222 2995 1574 3193 
Q 1926 3392 2368 3392 
Q 2848 3392 3229 3177 
Q 3610 2963 3827 2576 
Q 4045 2189 4045 1683 
Q 4045 1171 3827 787 
Q 3610 403 3229 185 
Q 2848 -32 2368 -32 
z
M 634 -1242 
L 634 3360 
L 1069 3360 
L 1069 2349 
L 1024 1677 
L 1088 998 
L 1088 -1242 
L 634 -1242 
z
M 2336 371 
Q 2694 371 2976 534 
Q 3258 698 3424 995 
Q 3590 1293 3590 1683 
Q 3590 2074 3424 2368 
Q 3258 2662 2976 2828 
Q 2694 2995 2336 2995 
Q 1978 2995 1693 2828 
Q 1408 2662 1245 2368 
Q 1082 2074 1082 1683 
Q 1082 1293 1245 995 
Q 1408 698 1693 534 
Q 1978 371 2336 371 
z
" transform="scale(0.015625)"/>
      <path id="Montserrat-Regular-72" d="M 634 0 
L 634 3360 
L 1069 3360 
L 1069 2445 
L 1024 2605 
Q 1165 2989 1497 3190 
Q 1830 3392 2323 3392 
L 2323 2950 
Q 2298 2950 2272 2953 
Q 2246 2957 2221 2957 
Q 1690 2957 1389 2633 
Q 1088 2310 1088 1715 
L 1088 0 
L 634 0 
z
" transform="scale(0.015625)"/>
      <path id="Montserrat-Regular-65" d="M 2061 -32 
Q 1536 -32 1139 189 
Q 742 410 518 797 
Q 294 1184 294 1683 
Q 294 2182 508 2566 
Q 723 2950 1097 3171 
Q 1472 3392 1939 3392 
Q 2413 3392 2781 3177 
Q 3149 2963 3360 2576 
Q 3571 2189 3571 1683 
Q 3571 1651 3568 1616 
Q 3565 1581 3565 1542 
L 640 1542 
L 640 1882 
L 3322 1882 
L 3142 1747 
Q 3142 2112 2985 2397 
Q 2829 2682 2560 2842 
Q 2291 3002 1939 3002 
Q 1594 3002 1318 2842 
Q 1043 2682 889 2394 
Q 736 2106 736 1734 
L 736 1664 
Q 736 1280 905 989 
Q 1075 698 1379 534 
Q 1683 371 2074 371 
Q 2381 371 2646 480 
Q 2912 589 3104 813 
L 3360 518 
Q 3136 250 2800 109 
Q 2464 -32 2061 -32 
z
" transform="scale(0.015625)"/>
      <path id="Montserrat-Regular-75" d="M 2022 -32 
Q 1594 -32 1274 128 
Q 954 288 778 608 
Q 602 928 602 1408 
L 602 3360 
L 1056 3360 
L 1056 1459 
Q 1056 922 1321 650 
Q 1587 378 2067 378 
Q 2419 378 2678 522 
Q 2938 666 3075 941 
Q 3213 1216 3213 1600 
L 3213 3360 
L 3667 3360 
L 3667 0 
L 3232 0 
L 3232 922 
L 3302 755 
Q 3142 384 2806 176 
Q 2470 -32 2022 -32 
z
" transform="scale(0.015625)"/>
     </defs>
     <use xlink:href="#Montserrat-Regular-53"/>
     <use xlink:href="#Montserrat-Regular-79" transform="translate(61.499985 0)"/>
     <use xlink:href="#Montserrat-Regular-73" transform="translate(115.699982 0)"/>
     <use xlink:href="#Montserrat-Regular-74" transform="translate(164.499969 0)"/>
     <use xlink:href="#Montserrat-Regular-6f" transform="translate(205.09996 0)"/>
     <use xlink:href="#Montserrat-Regular-6c" transform="translate(267.799957 0)"/>
     <use xlink:href="#Montserrat-Regular-69" transform="translate(294.699951 0)"/>
     <use xlink:href="#Montserrat-Regular-63" transform="translate(321.599945 0)"/>
     <use xlink:href="#Montserrat-Regular-20" transform="translate(377.899933 0)"/>
     <use xlink:href="#Montserrat-Regular-62" transform="translate(404.09993 0)"/>
     <use xlink:href="#Montserrat-Regular-6c" transform="translate(471.899918 0)"/>
     <use xlink:href="#Montserrat-Regular-6f" transform="translate(498.799911 0)"/>
     <use xlink:href="#Montserrat-Regular-6f" transform="translate(561.499908 0)"/>
     <use xlink:href="#Montserrat-Regular-64" transform="translate(624.199905 0)"/>
     <use xlink:href="#Montserrat-Regular-20" transform="translate(691.999893 0)"/>
     <use xlink:href="#Montserrat-Regular-70" transform="translate(718.19989 0)"/>
     <use xlink:href="#Montserrat-Regular-72" transform="translate(785.999878 0)"/>
     <use xlink:href="#Montserrat-Regular-65" transform="translate(826.099869 0)"/>
     <use xlink:href="#Montserrat-Regular-73" transform="translate(886.499863 0)"/>
     <use xlink:href="#Montserrat-Regular-73" transform="translate(935.29985 0)"/>
     <use xlink:href="#Montserrat-Regular-75" transform="translate(984.099838 0)"/>
     <use xlink:href="#Montserrat-Regular-65" transform="translate(1051.299835 0)"/>
    </g>
   </g>
   <g id="legend_1">
    <g id="line2d_15">
     <g>
      <use xlink:href="#m851d433e3a" x="83.15" y="42.9925" style="fill: #4c72b0; stroke: #4c72b0"/>
     </g>
    </g>
    <g id="text_14">
     <!-- morning -->
     <g style="fill: #4c72b0" transform="translate(100.75 48.5925) scale(0.16 -0.16)">
      <defs>
       <path id="Montserrat-Regular-6e" d="M 2349 3392 
Q 2758 3392 3068 3235 
Q 3379 3078 3555 2758 
Q 3731 2438 3731 1952 
L 3731 0 
L 3277 0 
L 3277 1907 
Q 3277 2438 3011 2710 
Q 2746 2982 2266 2982 
Q 1907 2982 1641 2838 
Q 1376 2694 1232 2422 
Q 1088 2150 1088 1766 
L 1088 0 
L 634 0 
L 634 3360 
L 1069 3360 
L 1069 2438 
L 998 2611 
Q 1158 2976 1510 3184 
Q 1862 3392 2349 3392 
z
" transform="scale(0.015625)"/>
      </defs>
      <use xlink:href="#Montserrat-Regular-6d"/>
      <use xlink:href="#Montserrat-Regular-6f" transform="translate(106.099991 0)"/>
      <use xlink:href="#Montserrat-Regular-72" transform="translate(168.799988 0)"/>
      <use xlink:href="#Montserrat-Regular-6e" transform="translate(208.899979 0)"/>
      <use xlink:href="#Montserrat-Regular-69" transform="translate(276.499969 0)"/>
      <use xlink:href="#Montserrat-Regular-6e" transform="translate(303.399963 0)"/>
      <use xlink:href="#Montserrat-Regular-67" transform="translate(370.999954 0)"/>
     </g>
    </g>
    <g id="line2d_16">
     <g>
      <use xlink:href="#m8ccb8c5ede" x="83.15" y="63.33" style="fill: #c44e52; stroke: #c44e52"/>
     </g>
    </g>
    <g id="text_15">
     <!-- evening -->
     <g style="fill: #c44e52" transform="translate(100.75 68.93) scale(0.16 -0.16)">
      <defs>
       <path id="Montserrat-Regular-76" d="M 1498 0 
L 6 3360 
L 480 3360 
L 1850 243 
L 1626 243 
L 3014 3360 
L 3462 3360 
L 1965 0 
L 1498 0 
z
" transform="scale(0.015625)"/>
      </defs>
      <use xlink:href="#Montserrat-Regular-65"/>
      <use xlink:href="#Montserrat-Regular-76" transform="translate(60.399994 0)"/>
      <use xlink:href="#Montserrat-Regular-65" transform="translate(114.599991 0)"/>
      <use xlink:href="#Montserrat-Regular-6e" transform="translate(174.999985 0)"/>
      <use xlink:href="#Montserrat-Regular-69" transform="translate(242.599976 0)"/>
      <use xlink:href="#Montserrat-Regular-6e" transform="translate(269.499969 0)"/>
      <use xlink:href="#Montserrat-Regular-67" transform="translate(337.09996 0)"/>
     </g>
    </g>
   </g>
  </g>
 </g>
 <defs>
  <clipPath id="p4155c0cfe5">
   <rect x="67.15" y="36.72" width="495.89" height="208.928542"/>
  </clipPath>
 </defs>
</svg>
