<?xml version="1.0" encoding="UTF-8"?>
<svg xmlns="http://www.w3.org/2000/svg" width="750" height="500" viewBox="0 0 750 500">
<rect width="750" height="500" fill="#fff"/>
<style>
    .grid { stroke: #e8e8e8; fill: none; stroke-width: 0.5; }
    .ref-line { stroke: #999; fill: none; stroke-width: 1; stroke-dasharray: 6,4; }
    .curve-lin { stroke: #c00; fill: none; stroke-width: 2; }
    .curve-log { stroke: #06c; fill: none; stroke-width: 2; }
    .label { font-family: Montserrat, sans-serif; font-size: 15px; fill: #333; }
    .label-sm { font-family: Montserrat, sans-serif; font-size: 13px; fill: #333; }
    .legend-bg { fill: rgba(255,255,255,0.92); stroke: #ccc; stroke-width: 0.5; }
    .legend-swatch { fill: none; stroke-width: 2.5; }
  </style>
<line class="grid" x1="80" y1="30" x2="80" y2="440"/>
<line class="grid" x1="170" y1="30" x2="170" y2="440"/>
<line class="grid" x1="260" y1="30" x2="260" y2="440"/>
<line class="grid" x1="350" y1="30" x2="350" y2="440"/>
<line class="grid" x1="440" y1="30" x2="440" y2="440"/>
<line class="grid" x1="530" y1="30" x2="530" y2="440"/>
<line class="grid" x1="620" y1="30" x2="620" y2="440"/>
<line class="grid" x1="710" y1="30" x2="710" y2="440"/>
<line class="grid" x1="80" y1="440" x2="710" y2="440"/>
<line class="grid" x1="80" y1="417.22222222222223" x2="710" y2="417.22222222222223"/>
<line class="grid" x1="80" y1="394.44444444444446" x2="710" y2="394.44444444444446"/>
<line class="grid" x1="80" y1="371.6666666666667" x2="710" y2="371.6666666666667"/>
<line class="grid" x1="80" y1="348.8888888888889" x2="710" y2="348.8888888888889"/>
<line class="grid" x1="80" y1="326.1111111111111" x2="710" y2="326.1111111111111"/>
<line class="grid" x1="80" y1="303.33333333333337" x2="710" y2="303.33333333333337"/>
<line class="grid" x1="80" y1="280.55555555555554" x2="710" y2="280.55555555555554"/>
<line class="grid" x1="80" y1="257.7777777777778" x2="710" y2="257.7777777777778"/>
<line class="grid" x1="80" y1="235" x2="710" y2="235"/>
<line class="grid" x1="80" y1="212.2222222222222" x2="710" y2="212.2222222222222"/>
<line class="grid" x1="80" y1="189.44444444444443" x2="710" y2="189.44444444444443"/>
<line class="grid" x1="80" y1="166.66666666666669" x2="710" y2="166.66666666666669"/>
<line class="grid" x1="80" y1="143.8888888888889" x2="710" y2="143.8888888888889"/>
<line class="grid" x1="80" y1="121.11111111111109" x2="710" y2="121.11111111111109"/>
<line class="grid" x1="80" y1="98.33333333333331" x2="710" y2="98.33333333333331"/>
<line class="grid" x1="80" y1="75.5555555555556" x2="710" y2="75.5555555555556"/>
<line class="grid" x1="80" y1="52.77777777777777" x2="710" y2="52.77777777777777"/>
<line class="grid" x1="80" y1="30" x2="710" y2="30"/>
<line class="ref-line" x1="350" y1="30" x2="350" y2="440"/>
<line class="ref-line" x1="80" y1="257.7777777777778" x2="710" y2="257.7777777777778"/>
<text class="label" text-anchor="end" x="72" y="445">-16</text>
<text class="label" text-anchor="end" x="72" y="422.22222222222223">-14</text>
<text class="label" text-anchor="end" x="72" y="399.44444444444446">-12</text>
<text class="label" text-anchor="end" x="72" y="376.6666666666667">-10</text>
<text class="label" text-anchor="end" x="72" y="353.8888888888889">-8</text>
<text class="label" text-anchor="end" x="72" y="331.1111111111111">-6</text>
<text class="label" text-anchor="end" x="72" y="308.33333333333337">-4</text>
<text class="label" text-anchor="end" x="72" y="285.55555555555554">-2</text>
<text class="label" text-anchor="end" x="72" y="262.7777777777778">0</text>
<text class="label" text-anchor="end" x="72" y="240">+2</text>
<text class="label" text-anchor="end" x="72" y="217.2222222222222">+4</text>
<text class="label" text-anchor="end" x="72" y="194.44444444444443">+6</text>
<text class="label" text-anchor="end" x="72" y="171.66666666666669">+8</text>
<text class="label" text-anchor="end" x="72" y="148.8888888888889">+10</text>
<text class="label" text-anchor="end" x="72" y="126.11111111111109">+12</text>
<text class="label" text-anchor="end" x="72" y="103.33333333333331">+14</text>
<text class="label" text-anchor="end" x="72" y="80.5555555555556">+16</text>
<text class="label" text-anchor="end" x="72" y="57.77777777777777">+18</text>
<text class="label" text-anchor="end" x="72" y="35">+20</text>
<text class="label" text-anchor="middle" transform="translate(14,235) rotate(-90)">Change in life expectancy (years)</text>
<text class="label" text-anchor="middle" x="375" y="492">Scalar hazard ratio in a paper (HR)</text>
<text class="label" text-anchor="middle" x="80" y="458">0.25</text>
<text class="label" text-anchor="middle" x="170" y="458">0.50</text>
<text class="label" text-anchor="middle" x="260" y="458">0.75</text>
<text class="label" text-anchor="middle" x="350" y="458">1.00</text>
<text class="label" text-anchor="middle" x="440" y="458">1.25</text>
<text class="label" text-anchor="middle" x="530" y="458">1.50</text>
<text class="label" text-anchor="middle" x="620" y="458">1.75</text>
<text class="label" text-anchor="middle" x="710" y="458">2.00</text>
<path class="curve-log" d="M 80 53.63438064986451L 81.26 55.68169929354161L 82.52 57.70094412186182L 83.78 59.69287465490788L 85.04 61.65822000115446L 86.30000000000001 63.59768045970441L 87.56 65.51192901837652L 88.82000000000001 67.4016127556676L 90.08000000000001 69.26735415389368L 91.33999999999999 71.10975233018053L 92.60000000000001 72.92938419139426L 93.85999999999999 74.7268055185819L 95.11999999999999 76.50255198602332L 96.38 78.25714011956967L 97.64 79.99106819855677L 98.9 81.70481710523501L 100.16 83.39885112533767L 101.42 85.07361870312246L 102.68 86.72955315395865L 103.94 88.36707333729112L 105.2 89.98658429259785L 106.46000000000001 91.5884778407551L 107.72 93.1731331530446L 108.98 94.74091728986951L 110.24000000000001 96.29218571109391L 111.5 97.82728275978059L 112.75999999999999 99.34654212097513L 114.02000000000001 100.85028725706297L 115.28 102.33883182112271L 116.54000000000002 103.81248004959548L 117.8 105.27152713550055L 119.06 106.71625958334243L 120.32 108.14695554677655L 121.57999999999998 109.56388515002942L 122.84 110.96731079400121L 124.1 112.35748744791994L 125.36 113.7346629273568L 126.62 115.09907815936145L 127.88 116.45096743542655L 129.14 117.79055865294612L 130.4 119.11807354578963L 131.66 120.43372790457607L 132.92000000000002 121.73773178719443L 134.17999999999998 123.0302897200848L 135.44 124.31160089076229L 136.7 125.58185933203731L 137.96 126.84125409835798L 139.22 128.08996943467497L 140.48000000000002 129.32818493820804L 141.74 130.55607571346656L 143 131.77381252086133L 144.26 132.98156191922135L 145.51999999999998 134.17948640251382L 146.78 135.36774453104812L 148.04000000000002 136.5464910574279L 149.3 137.71587704750266L 150.56 138.8760499965545L 151.82 140.02715394094332L 153.07999999999998 141.16932956542234L 154.34 142.302714306324L 155.6 143.42744245080473L 156.86 144.54364523232852L 158.12 145.65145092255898L 159.38000000000002 146.75098491982038L 160.64 147.84236983428076L 161.90000000000003 148.92572557000148L 163.15999999999997 150.0011694039908L 164.42000000000002 151.06881606239108L 165.68 152.1287777939246L 166.94000000000003 153.18116444071478L 168.2 154.2260835065943L 169.45999999999998 155.26364022300697L 170.72 156.2939376126045L 171.98000000000002 157.31707655063292L 173.24 158.33315582420232L 174.5 159.34227218952492L 175.76 160.34452042720574L 177.02000000000004 161.33999339566373L 178.28 162.32878208276037L 179.53999999999996 163.31097565570565L 180.8 164.286661509311L 182.06000000000006 165.25592531265397L 183.32 166.2188510542179L 184.57999999999998 167.17552108556373L 185.84 168.1260161635946L 187.10000000000002 169.07041549146305L 188.35999999999996 170.00879675817617L 189.62 170.94123617694606L 190.88 171.86780852233449L 192.14 172.78858716623523L 193.39999999999998 173.70364411273954L 194.66 174.61305003192433L 195.92000000000002 175.51687429260335L 197.18 176.41518499407982L 198.44 177.30804899693658L 199.7 178.19553195289734L 200.96000000000004 179.07769833379484L 202.22 179.95461145967562L 203.48 180.8263335260733L 204.74 181.6929256304789L 206.00000000000003 182.55444779803764L 207.26 183.4109590064973L 208.51999999999998 184.26251721043653L 209.78 185.10917936479552L 211.04 185.95100144773454L 212.29999999999998 186.78803848284304L 213.56 187.62034456072078L 214.82000000000002 188.44797285995236L 216.08 189.27097566749603L 217.33999999999997 190.08940439850602L 218.6 190.90330961560616L 219.86 191.71274104763498L 221.12 192.51774760787742L 222.38 193.3183774118018L 223.64000000000001 194.11467779431635L 224.90000000000003 194.90669532656247L 226.16 195.6944758322582L 227.42 196.47806440360722L 228.68 197.25750541678636L 229.94 198.03284254702632L 231.2 198.8041187832961L 232.46 199.57137644260612L 233.72000000000003 200.33465718394L 234.98 201.0940020218271L 236.23999999999998 201.8494513395673L 237.5 202.60104490211805L 238.76000000000005 203.34882186865406L 240.02 204.09282080481003L 241.27999999999997 204.83307969461563L 242.54 205.5696359521315L 243.80000000000004 206.3025264327966L 245.06 207.03178744449343L 246.31999999999996 207.75745475834177L 247.58 208.479563619227L 248.84000000000003 209.19814875607173L 250.10000000000002 209.91324439185814L 251.35999999999999 210.62488425340803L 252.62 211.33310158092786L 253.88000000000005 212.03792913732508L 255.14000000000001 212.7393992173028L 256.4 213.4375436562388L 257.65999999999997 214.13239383885497L 258.91999999999996 214.82398070768335L 260.17999999999995 215.51233477133417L 261.44 216.19748611257154L 262.7 216.87946439620202L 263.96 217.55829887678198L 265.22 218.23401840614713L 266.48 218.90665144077087L 267.74 219.5762260489551L 269 220.24276991785817L 270.26 220.90631036036484L 271.52 221.5668743218015L 272.78 222.2244883865023L 274.03999999999996 222.87917878422866L 275.3 223.53097139644677L 276.56 224.17989176246738L 277.82 224.82596508544998L 279.08000000000004 225.4692162382768L 280.34000000000003 226.109669769298L 281.6 226.74734990795363L 282.86 227.38228057027345L 284.12 228.0144853642592L 285.38 228.64398759515163L 286.64 229.27081027058554L 287.9 229.89497610563552L 289.16 230.51650752775512L 290.42 231.13542668161236L 291.68 231.75175543382397L 292.94000000000005 232.36551537759107L 294.20000000000005 232.9767278372384L 295.46000000000004 233.5854138726601L 296.71999999999997 234.1915942836735L 297.98 234.79528961428457L 299.24 235.3965201568647L 300.5 235.99530595624452L 301.76 236.59166681372318L 303.02 237.18562229099774L 304.28 237.77719171401333L 305.53999999999996 238.3663941767361L 306.79999999999995 238.95324854485133L 308.06 239.53777345938795L 309.32 240.11998734027142L 310.58 240.69990838980672L 311.84000000000003 241.27755459609298L 313.1 241.85294373637132L 314.36 242.42609338030775L 315.62 242.9970208932121L 316.88 243.56574343919536L 318.14 244.13227798426544L 319.4 244.6966412993644L 320.65999999999997 245.25884996334736L 321.92 245.81892036590466L 323.18 246.37686871042894L 324.44 246.93271101682777L 325.70000000000005 247.48646312428374L 326.96000000000004 248.03814069396267L 328.22 248.58775921167117L 329.48 249.1353339904651L 330.74 249.6808801732095L 332 250.22441273509108L 333.26 250.765946486085L 334.52 251.3054960733762L 335.78000000000003 251.84307598373636L 337.03999999999996 252.3787005458578L 338.3 252.91238393264544L 339.56 253.4441401634666L 340.82 253.97398310636086L 342.08 254.5019264802104L 343.34 255.02798385687117L 344.59999999999997 255.55216866326643L 345.86 256.07449418344305L 347.12 256.5949735605915L 348.38 257.11361979903006L 349.64 257.6304457661548L 350.9 258.14546419435476L 352.16 258.65868768289397L 353.42 259.1701286997612L 354.67999999999995 259.67979958348724L 355.94 260.1877125449309L 357.2 260.69387966903435L 358.4599999999999 261.1983129165487L 359.72 261.70102412572953L 360.98 262.20202501400416L 362.24 262.7013271796103L 363.50000000000006 263.1989421032071L 364.76 263.6948811494592L 366.02 264.18915556859395L 367.28000000000003 264.6817764979327L 368.53999999999996 265.17275496339664L 369.80000000000007 265.66210188098796L 371.06 266.14982805824496L 372.32 266.63594419567573L 373.58000000000004 267.1204608881655L 374.84 267.603388626363L 376.1 268.0847377980431L 377.36 268.5645186894473L 378.61999999999995 269.04274148660295L 379.88 269.51941627662075L 381.14000000000004 269.9945530489714L 382.4 270.4681616967414L 383.65999999999997 270.9402520178696L 384.92 271.4108337163632L 386.18 271.8799164034942L 387.44000000000005 272.3475095989778L 388.69999999999993 272.8136227321314L 389.96 273.2782651430158L 391.22 273.7414460835574L 392.47999999999996 274.2031747186545L 393.73999999999995 274.66346012726495L 395 275.12231130347743L 396.26 275.57973715756555L 397.5200000000001 276.03574651702695L 398.78000000000003 276.4903481276043L 400.04 276.9435506542929L 401.3 277.39536268233064L 402.55999999999995 277.84579271817455L 403.82 278.2948491904615L 405.08 278.74254045095444L 406.34000000000003 279.1888747754747L 407.6000000000001 279.6338603648195L 408.86 280.0775053456666L 410.12 280.5198177714643L 411.38 280.960805623309L 412.63999999999993 281.400476810809L 413.90000000000003 281.8388391729359L 415.16 282.27590047886315L 416.42 282.71166842879245L 417.68000000000006 283.1461506547674L 418.94 283.57935472147557L 420.20000000000005 284.01128812703917L 421.46000000000004 284.4419583037934L 422.71999999999997 284.87137261905366L 423.98 285.29953837587226L 425.24 285.7264628137833L 426.5 286.15215310953704L 427.7600000000001 286.5766163778244L 429.02000000000004 286.9998596719894L 430.28000000000003 287.4218899847334L 431.54 287.842714248808L 432.79999999999995 288.262339337698L 434.06000000000006 288.6807720662955L 435.32 289.0980191915637L 436.58 289.51408741319176L 437.8399999999999 289.92898337424015L 439.1 290.3427136617772L 440.35999999999996 290.7552848075064L 441.61999999999995 291.16670328838535L 442.88 291.57697552723556L 444.14 291.9861078933444L 445.4 292.39410670305824L 446.65999999999997 292.80097822036754L 447.91999999999996 293.20672865748406L 449.17999999999995 293.61136417540956L 450.44 294.0148908844977L 451.7 294.41731484500707L 452.96 294.81864206764794L 454.21999999999997 295.2188785141203L 455.47999999999996 295.6180300976457L 456.74 296.0161026834911L 458 296.4131020894864L 459.26 296.8090340865342L 460.52 297.2039043991134L 461.78 297.5977187057759L 463.03999999999996 297.9904826396361L 464.3 298.382201788855L 465.56 298.77288169711665L 466.82 299.1625278640995L 468.08 299.5511457459404L 469.34 299.9387407556933L 470.6 300.3253182637816L 471.86 300.7108835984445L 473.12 301.09544204617805L 474.38 301.4789988521695L 475.64 301.86155922072703L 476.9 302.24312831570296L 478.16 302.6237112609126L 479.42 303.00331314054654L 480.68 303.3819389995785L 481.94 303.7595938441674L 483.2 304.1362826420547L 484.46000000000004 304.5120103229565L 485.72 304.8867817789504L 486.98 305.2606018648579L 488.24 305.63347539862184L 489.5 306.00540716167853L 490.76 306.3764018993262L 492.02000000000004 306.74646432108796L 493.28000000000003 307.11559910107036L 494.54 307.4838108783181L 495.8 307.85110425716334L 497.06 308.2174838075715L 498.32000000000005 308.5829540654822L 499.58000000000004 308.9475195331464L 500.84000000000003 309.3111846794592L 502.1 309.67395394028813L 503.36 310.0358317187984L 504.62 310.3968223857731L 505.88000000000005 310.75693027993015L 507.14000000000004 311.11615970823516L 508.40000000000003 311.47451494621066L 509.66 311.832000238241L 510.92 312.1886197978745L 512.1800000000001 312.54437780812106L 513.4399999999999 312.89927842174666L 514.7 313.25332576156444L 515.96 313.60652392072166L 517.22 313.95887696298394L 518.48 314.3103889230157L 519.7399999999999 314.6610638066574L 521 315.01090559119945L 522.26 315.3599182256527L 523.52 315.7081056310161L 524.78 316.05547170054115L 526.04 316.40202029999256L 527.3 316.7477552679071L 528.56 317.0926804158481L 529.8199999999999 317.4367995286578L 531.0799999999999 317.78011636470666L 532.3399999999999 318.1226346561396L 533.5999999999999 318.46435810911913L 534.8600000000001 318.80529040406657L 536.12 319.14543519589915L 537.38 319.48479611426586L 538.64 319.82337676377927L 539.8999999999999 320.16118072424536L 541.16 320.49821155089097L 542.4200000000001 320.834472774588L 543.6800000000001 321.16996790207514L 544.94 321.504700416178L 546.2 321.8386737760253L 547.46 322.17189141726385L 548.72 322.5043567522704L 549.9799999999999 322.83607317036115L 551.24 323.16704403799963L 552.5 323.49727269900114L 553.76 323.8267624747355L 555.0200000000001 324.155516664328L 556.28 324.48353854485674L 557.54 324.8108313715497L 558.8 325.13739837797755L 560.06 325.46324277624586L 561.3199999999999 325.7883677571847L 562.5799999999999 326.112776490536L 563.84 326.43647212513895L 565.1000000000001 326.7594577891134L 566.36 327.08173659004115L 567.62 327.40331161514564L 568.88 327.72418593146915L 570.1399999999999 328.0443625860483L 571.4000000000001 328.3638446060878L 572.6600000000001 328.6826349991321L 573.9200000000001 329.0007367532354L 575.1800000000001 329.3181528371292L 576.44 329.6348862003894L 577.7 329.9509397736L 578.96 330.26631646851604L 580.22 330.5810191782248L 581.48 330.8950507773046L 582.74 331.20841412198274L 584 331.5211120502911L 585.2600000000001 331.8331473822205L 586.52 332.14452291987317L 587.78 332.455241447614L 589.04 332.76530573221964L 590.3 333.0747185230264L 591.5600000000001 333.3834825520766L 592.8199999999999 333.6916005342632L 594.0799999999999 333.9990751674732L 595.3399999999999 334.3059091327292L 596.6 334.61210509432965L 597.86 334.91766569998805L 599.12 335.22259358096966L 600.38 335.52689135222795L 601.64 335.83056161253916L 602.9 336.1336069446351L 604.16 336.4360299153353L 605.42 336.7378330756774L 606.68 337.03901896104594L 607.9399999999999 337.3395900913006L 609.1999999999999 337.6395489709025L 610.46 337.93889808903936L 611.72 338.23763991974954L 612.98 338.5357769220447L 614.24 338.8333115400311L 615.5 339.1302462030302L 616.76 339.4265833256971L 618.02 339.72232530813903L 619.28 340.0174745360313L 620.54 340.3120333807332L 621.8 340.60600419940243L 623.06 340.8993893351078L 624.32 341.1921911169418L 625.58 341.48441186013093L 626.84 341.7760538661463L 628.1 342.06711942281174L 629.36 342.3576108044118L 630.62 342.6475302717984L 631.88 342.9368800724962L 633.14 343.22566244080724L 634.4 343.51387959791464L 635.66 343.8015337519847L 636.92 344.08862709826883L 638.18 344.3751618192039L 639.44 344.6611400845117L 640.7 344.9465640512976L 641.96 345.23143586414824L 643.22 345.515757655228L 644.48 345.7995315443751L 645.74 346.08275963919607L 647 346.3654440351599L 648.26 346.64758681569094L 649.52 346.92919005226116L 650.78 347.2102558044813L 652.04 347.4907861201912L 653.3000000000001 347.7707830355496L 654.5600000000001 348.0502485751224L 655.82 348.32918475197073L 657.08 348.60759356773815L 658.34 348.8854770127365L 659.6 349.1628370660313L 660.86 349.43967569552643L 662.12 349.7159948580481L 663.38 349.9917964994274L 664.64 350.2670825545828L 665.9 350.5418549476018L 667.1600000000001 350.8161155918208L 668.4200000000001 351.0898663899062L 669.6800000000001 351.36310923393273L 670.9399999999999 351.63584600546216L 672.2 351.90807857562106L 673.4599999999999 352.17980880517814L 674.7199999999999 352.4510385446198L 675.98 352.72176963422646L 677.2399999999999 352.9920039041473L 678.5 353.26174317447413L 679.76 353.5309892553155L 681.02 353.7997439468691L 682.2800000000001 354.0680090394943L 683.54 354.33578631378356L 684.8 354.6030775406333L 686.06 354.86988448131456L 687.3199999999999 355.1362088875418L 688.5799999999999 355.4020525015428L 689.84 355.6674170561267L 691.1 355.93230427475146L 692.36 356.19671587159155L 693.62 356.46065355160414L 694.88 356.72411901059525L 696.14 356.987113935285L 697.3999999999999 357.2496400033724L 698.66 357.5116988835998L 699.92 357.77329223581626L 701.18 358.0344217110407L 702.44 358.2950889515244L 703.7 358.55529559081316L 704.96 358.8150432538086L 706.22 359.0743335568288L 707.4799999999999 359.33316810766905L 708.74 359.59154850566154L 710 359.84947634173443"/>
</svg>