<?xml version="1.0" encoding="UTF-8"?>
<svg xmlns="http://www.w3.org/2000/svg" width="1100" height="300" viewBox="0 0 1100 300">
<rect width="1100" height="300" fill="#fff"/>
<style>
    .axis { stroke: #333; fill: none; stroke-width: 1; }
    .grid { stroke: #e8e8e8; fill: none; stroke-width: 0.5; }
    .grid-res { stroke: rgba(0,0,0,0.15); fill: none; stroke-width: 1; }
    .ref-line { stroke: #999; fill: none; stroke-width: 1; stroke-dasharray: 6,4; }
    .hr-curve { stroke: #c00; fill: none; stroke-width: 2; stroke-linecap: butt; stroke-linejoin: miter; }
    .label { font-family: Montserrat, sans-serif; font-size: 15px; fill: #333; }
    .label-sm { font-family: Montserrat, sans-serif; font-size: 14px; fill: #bbb; }
  </style>
<line class="grid" x1="70" y1="260" x2="1070" y2="260"/>
<line class="grid" x1="70" y1="202.5" x2="1070" y2="202.5"/>
<line class="grid" x1="70" y1="145" x2="1070" y2="145"/>
<line class="grid" x1="70" y1="87.5" x2="1070" y2="87.5"/>
<line class="grid" x1="70" y1="30" x2="1070" y2="30"/>
<line class="grid" x1="70" y1="30" x2="70" y2="260"/>
<line class="grid" x1="270" y1="30" x2="270" y2="260"/>
<line class="grid" x1="470" y1="30" x2="470" y2="260"/>
<line class="grid" x1="670" y1="30" x2="670" y2="260"/>
<line class="grid" x1="870" y1="30" x2="870" y2="260"/>
<line class="grid" x1="1070" y1="30" x2="1070" y2="260"/>
<line class="ref-line" x1="70" y1="145" x2="1070" y2="145"/>
<line class="axis" x1="70" y1="30" x2="70" y2="260"/>
<line class="axis" x1="70" y1="260" x2="1070" y2="260"/>
<text class="label" text-anchor="end" x="62" y="265">0.50</text>
<text class="label" text-anchor="end" x="62" y="207.5">0.75</text>
<text class="label" text-anchor="end" x="62" y="150">1.00</text>
<text class="label" text-anchor="end" x="62" y="92.5">1.25</text>
<text class="label" text-anchor="end" x="62" y="35">1.50</text>
<text class="label" text-anchor="middle" transform="translate(14,145) rotate(-90)">HR</text>
<text class="label" text-anchor="middle" x="550" y="296">Age</text>
<text class="label" text-anchor="middle" x="70" y="278">0</text>
<text class="label" text-anchor="middle" x="270" y="278">20</text>
<text class="label" text-anchor="middle" x="470" y="278">40</text>
<text class="label" text-anchor="middle" x="670" y="278">60</text>
<text class="label" text-anchor="middle" x="870" y="278">80</text>
<text class="label" text-anchor="middle" x="1070" y="278">100</text>
<path class="hr-curve" d="M 70 145 L 80 145 L 80 145.58080808080808 L 90 145.58080808080808 L 90 146.16161616161617 L 100 146.16161616161617 L 100 146.74242424242425 L 110 146.74242424242425 L 110 147.32323232323233 L 120 147.32323232323233 L 120 147.90404040404042 L 130 147.90404040404042 L 130 148.4848484848485 L 140 148.4848484848485 L 140 149.06565656565655 L 150 149.06565656565655 L 150 149.64646464646466 L 160 149.64646464646466 L 160 150.22727272727272 L 170 150.22727272727272 L 170 150.80808080808083 L 180 150.80808080808083 L 180 151.38888888888889 L 190 151.38888888888889 L 190 151.96969696969697 L 200 151.96969696969697 L 200 152.55050505050508 L 210 152.55050505050508 L 210 153.13131313131314 L 220 153.13131313131314 L 220 153.7121212121212 L 230 153.7121212121212 L 230 154.2929292929293 L 240 154.2929292929293 L 240 154.87373737373736 L 250 154.87373737373736 L 250 155.45454545454544 L 260 155.45454545454544 L 260 156.03535353535352 L 270 156.03535353535352 L 270 156.6161616161616 L 280 156.6161616161616 L 280 157.1969696969697 L 290 157.1969696969697 L 290 157.77777777777777 L 300 157.77777777777777 L 300 158.35858585858585 L 310 158.35858585858585 L 310 158.93939393939394 L 320 158.93939393939394 L 320 159.52020202020202 L 330 159.52020202020202 L 330 160.1010101010101 L 340 160.1010101010101 L 340 160.6818181818182 L 350 160.6818181818182 L 350 161.26262626262627 L 360 161.26262626262627 L 360 161.84343434343435 L 370 161.84343434343435 L 370 162.42424242424244 L 380 162.42424242424244 L 380 163.00505050505052 L 390 163.00505050505052 L 390 163.58585858585857 L 400 163.58585858585857 L 400 164.16666666666669 L 410 164.16666666666669 L 410 164.74747474747474 L 420 164.74747474747474 L 420 165.32828282828282 L 430 165.32828282828282 L 430 165.90909090909093 L 440 165.90909090909093 L 440 166.489898989899 L 450 166.489898989899 L 450 167.07070707070704 L 460 167.07070707070704 L 460 167.65151515151516 L 470 167.65151515151516 L 470 168.2323232323232 L 480 168.2323232323232 L 480 168.81313131313132 L 490 168.81313131313132 L 490 169.39393939393938 L 500 169.39393939393938 L 500 169.97474747474746 L 510 169.97474747474746 L 510 170.55555555555557 L 520 170.55555555555557 L 520 171.13636363636363 L 530 171.13636363636363 L 530 171.7171717171717 L 540 171.7171717171717 L 540 172.2979797979798 L 550 172.2979797979798 L 550 172.87878787878788 L 560 172.87878787878788 L 560 173.45959595959596 L 570 173.45959595959596 L 570 174.04040404040404 L 580 174.04040404040404 L 580 174.62121212121212 L 590 174.62121212121212 L 590 175.2020202020202 L 600 175.2020202020202 L 600 175.7828282828283 L 610 175.7828282828283 L 610 176.36363636363637 L 620 176.36363636363637 L 620 176.94444444444443 L 630 176.94444444444443 L 630 177.52525252525254 L 640 177.52525252525254 L 640 178.10606060606062 L 650 178.10606060606062 L 650 178.68686868686868 L 660 178.68686868686868 L 660 179.2676767676768 L 670 179.2676767676768 L 670 179.84848484848484 L 680 179.84848484848484 L 680 180.4292929292929 L 690 180.4292929292929 L 690 181.010101010101 L 700 181.010101010101 L 700 181.59090909090907 L 710 181.59090909090907 L 710 182.17171717171718 L 720 182.17171717171718 L 720 182.75252525252526 L 730 182.75252525252526 L 730 183.33333333333331 L 740 183.33333333333331 L 740 183.91414141414143 L 750 183.91414141414143 L 750 184.49494949494948 L 760 184.49494949494948 L 760 185.0757575757576 L 770 185.0757575757576 L 770 185.65656565656565 L 780 185.65656565656565 L 780 186.23737373737373 L 790 186.23737373737373 L 790 186.8181818181818 L 800 186.8181818181818 L 800 187.3989898989899 L 810 187.3989898989899 L 810 187.97979797979798 L 820 187.97979797979798 L 820 188.56060606060606 L 830 188.56060606060606 L 830 189.14141414141415 L 840 189.14141414141415 L 840 189.72222222222223 L 850 189.72222222222223 L 850 190.3030303030303 L 860 190.3030303030303 L 860 190.8838383838384 L 870 190.8838383838384 L 870 191.46464646464648 L 880 191.46464646464648 L 880 192.04545454545456 L 890 192.04545454545456 L 890 192.62626262626264 L 900 192.62626262626264 L 900 193.2070707070707 L 910 193.2070707070707 L 910 193.7878787878788 L 920 193.7878787878788 L 920 194.36868686868686 L 930 194.36868686868686 L 930 194.94949494949492 L 940 194.94949494949492 L 940 195.53030303030303 L 950 195.53030303030303 L 950 196.11111111111111 L 960 196.11111111111111 L 960 196.69191919191917 L 970 196.69191919191917 L 970 197.27272727272728 L 980 197.27272727272728 L 980 197.85353535353534 L 990 197.85353535353534 L 990 198.43434343434342 L 1000 198.43434343434342 L 1000 199.0151515151515 L 1010 199.0151515151515 L 1010 199.59595959595958 L 1020 199.59595959595958 L 1020 200.17676767676767 L 1030 200.17676767676767 L 1030 200.75757575757575 L 1040 200.75757575757575 L 1040 201.33838383838383 L 1050 201.33838383838383 L 1050 201.91919191919192 L 1060 201.91919191919192 L 1060 202.5 L 1070 202.5"/>
</svg>