<?xml version="1.0" encoding="UTF-8"?>
<svg xmlns="http://www.w3.org/2000/svg" width="1100" height="300" viewBox="0 0 1100 300">
<rect width="1100" height="300" fill="#fff"/>
<style>
    .axis { stroke: #333; fill: none; stroke-width: 1; }
    .grid { stroke: #e8e8e8; fill: none; stroke-width: 0.5; }
    .grid-res { stroke: rgba(0,0,0,0.15); fill: none; stroke-width: 1; }
    .ref-line { stroke: #999; fill: none; stroke-width: 1; stroke-dasharray: 6,4; }
    .hr-curve { stroke: #c00; fill: none; stroke-width: 2; stroke-linecap: butt; stroke-linejoin: miter; }
    .label { font-family: Montserrat, sans-serif; font-size: 15px; fill: #333; }
    .label-sm { font-family: Montserrat, sans-serif; font-size: 14px; fill: #bbb; }
  </style>
<line class="grid" x1="70" y1="260" x2="1070" y2="260"/>
<line class="grid" x1="70" y1="202.5" x2="1070" y2="202.5"/>
<line class="grid" x1="70" y1="145" x2="1070" y2="145"/>
<line class="grid" x1="70" y1="87.5" x2="1070" y2="87.5"/>
<line class="grid" x1="70" y1="30" x2="1070" y2="30"/>
<line class="grid" x1="70" y1="30" x2="70" y2="260"/>
<line class="grid" x1="270" y1="30" x2="270" y2="260"/>
<line class="grid" x1="470" y1="30" x2="470" y2="260"/>
<line class="grid" x1="670" y1="30" x2="670" y2="260"/>
<line class="grid" x1="870" y1="30" x2="870" y2="260"/>
<line class="grid" x1="1070" y1="30" x2="1070" y2="260"/>
<line class="ref-line" x1="70" y1="145" x2="1070" y2="145"/>
<line class="axis" x1="70" y1="30" x2="70" y2="260"/>
<line class="axis" x1="70" y1="260" x2="1070" y2="260"/>
<text class="label" text-anchor="end" x="62" y="265">0.50</text>
<text class="label" text-anchor="end" x="62" y="207.5">0.75</text>
<text class="label" text-anchor="end" x="62" y="150">1.00</text>
<text class="label" text-anchor="end" x="62" y="92.5">1.25</text>
<text class="label" text-anchor="end" x="62" y="35">1.50</text>
<text class="label" text-anchor="middle" transform="translate(14,145) rotate(-90)">HR</text>
<text class="label" text-anchor="middle" x="550" y="296">Age</text>
<text class="label" text-anchor="middle" x="70" y="278">0</text>
<text class="label" text-anchor="middle" x="270" y="278">20</text>
<text class="label" text-anchor="middle" x="470" y="278">40</text>
<text class="label" text-anchor="middle" x="670" y="278">60</text>
<text class="label" text-anchor="middle" x="870" y="278">80</text>
<text class="label" text-anchor="middle" x="1070" y="278">100</text>
<path class="hr-curve" d="M 70 182.55151219779128 L 80 182.55151219779128 L 80 160.5159401006501 L 90 160.5159401006501 L 90 159.60732394491785 L 100 159.60732394491785 L 100 174.77374126102592 L 110 174.77374126102592 L 110 186.88073967874698 L 120 186.88073967874698 L 120 191.2828121904049 L 130 191.2828121904049 L 130 166.4991781749548 L 140 166.4991781749548 L 140 147.00458729995788 L 150 147.00458729995788 L 150 184.71175722417036 L 160 184.71175722417036 L 160 173.95931175177614 L 170 173.95931175177614 L 170 191.34146732151265 L 180 191.34146732151265 L 180 176.84194989977368 L 190 176.84194989977368 L 190 199.8564473456348 L 200 199.8564473456348 L 200 170.00383124897866 L 210 170.00383124897866 L 210 175.28924128495726 L 220 175.28924128495726 L 220 164.105346731373 L 230 164.105346731373 L 230 201.9298899830207 L 240 201.9298899830207 L 240 198.04206839443015 L 250 198.04206839443015 L 250 180.23331850676334 L 260 180.23331850676334 L 260 153.9402079028161 L 270 153.9402079028161 L 270 163.51089664543437 L 280 163.51089664543437 L 280 181.9528898587958 L 290 181.9528898587958 L 290 171.69490633637218 L 300 171.69490633637218 L 300 193.25499628368183 L 310 193.25499628368183 L 310 154.2973029455912 L 320 154.2973029455912 L 320 181.52944360075844 L 330 181.52944360075844 L 330 160.77931501098726 L 340 160.77931501098726 L 340 180.27821183896245 L 350 180.27821183896245 L 350 154.8501318122764 L 360 154.8501318122764 L 360 201.14590306885626 L 370 201.14590306885626 L 370 177.07845458527646 L 380 177.07845458527646 L 380 157.01062690370173 L 390 157.01062690370173 L 390 200.31698953416293 L 400 200.31698953416293 L 400 176.96963777596392 L 410 176.96963777596392 L 410 173.39564695052917 L 420 173.39564695052917 L 420 189.5058768420616 L 430 189.5058768420616 L 430 170.0979270252142 L 440 170.0979270252142 L 440 153.5251420735315 L 450 153.5251420735315 L 450 177.90460560760798 L 460 177.90460560760798 L 460 167.4151727567491 L 470 167.4151727567491 L 470 173.745194133225 L 480 173.745194133225 L 480 183.44423174030865 L 490 183.44423174030865 L 490 147.84555323191194 L 500 147.84555323191194 L 500 162.8747177691863 L 510 162.8747177691863 L 510 196.49647850320548 L 520 196.49647850320548 L 520 165.02670830881033 L 530 165.02670830881033 L 530 186.2243278716926 L 540 186.2243278716926 L 540 184.497146829006 L 550 184.497146829006 L 550 163.53579769818197 L 560 163.53579769818197 L 560 159.2553536303999 L 570 159.2553536303999 L 570 201.73683361953198 L 580 201.73683361953198 L 580 197.9909066020656 L 590 197.9909066020656 L 590 172.9328825592987 L 600 172.9328825592987 L 600 156.61488120345115 L 610 156.61488120345115 L 610 145.6345856083152 L 620 145.6345856083152 L 620 163.36647263426582 L 630 163.36647263426582 L 630 186.54972857591673 L 640 186.54972857591673 L 640 179.8758721859693 L 650 179.8758721859693 L 650 166.27829615292376 L 660 166.27829615292376 L 660 154.050882888747 L 670 154.050882888747 L 670 152.64847982476107 L 680 152.64847982476107 L 680 156.786011714814 L 690 156.786011714814 L 690 188.71506488117967 L 700 188.71506488117967 L 700 148.98643254523182 L 710 148.98643254523182 L 710 155.22153390003592 L 720 155.22153390003592 L 720 151.26658281271668 L 730 151.26658281271668 L 730 165.02570020693116 L 740 165.02570020693116 L 740 171.58102694108845 L 750 171.58102694108845 L 750 155.73948348848842 L 760 155.73948348848842 L 760 191.61668410692778 L 770 191.61668410692778 L 770 167.9026744849754 L 780 167.9026744849754 L 780 162.86293037192587 L 790 162.86293037192587 L 790 169.05252735849643 L 800 169.05252735849643 L 800 201.0397024202092 L 810 201.0397024202092 L 810 161.07961788310803 L 820 161.07961788310803 L 820 158.38778474383605 L 830 158.38778474383605 L 830 183.55070346424822 L 840 183.55070346424822 L 840 188.90353290116406 L 850 188.90353290116406 L 850 167.13865085365669 L 860 167.13865085365669 L 860 193.4407847520254 L 870 193.4407847520254 L 870 172.4101063325389 L 880 172.4101063325389 L 880 196.61618007448877 L 890 196.61618007448877 L 890 195.6538525877964 L 900 195.6538525877964 L 900 179.48880937531598 L 910 179.48880937531598 L 910 155.36870674224483 L 920 155.36870674224483 L 920 188.52306315840133 L 930 188.52306315840133 L 930 146.70013324585864 L 940 146.70013324585864 L 940 158.45003011629612 L 950 158.45003011629612 L 950 186.34400467198952 L 960 186.34400467198952 L 960 189.4570761734525 L 970 189.4570761734525 L 970 192.5104169755196 L 980 192.5104169755196 L 980 152.94531469568324 L 990 152.94531469568324 L 990 155.3039395810336 L 1000 155.3039395810336 L 1000 157.3669375549614 L 1010 157.3669375549614 L 1010 190.6691446305182 L 1020 190.6691446305182 L 1020 183.81747314128913 L 1030 183.81747314128913 L 1030 200.00189936752926 L 1040 200.00189936752926 L 1040 157.93548356626724 L 1050 157.93548356626724 L 1050 160.46764181148137 L 1060 160.46764181148137 L 1060 168.29719369698728 L 1070 168.29719369698728"/>
</svg>