<?xml version="1.0" encoding="UTF-8"?>
<svg xmlns="http://www.w3.org/2000/svg" width="1100" height="300" viewBox="0 0 1100 300">
<rect width="1100" height="300" fill="#fff"/>
<style>
    .axis { stroke: #333; fill: none; stroke-width: 1; }
    .grid { stroke: #e8e8e8; fill: none; stroke-width: 0.5; }
    .grid-res { stroke: rgba(0,0,0,0.15); fill: none; stroke-width: 1; }
    .ref-line { stroke: #999; fill: none; stroke-width: 1; stroke-dasharray: 6,4; }
    .hr-curve { stroke: #c00; fill: none; stroke-width: 2; stroke-linecap: butt; stroke-linejoin: miter; }
    .label { font-family: Montserrat, sans-serif; font-size: 15px; fill: #333; }
    .label-sm { font-family: Montserrat, sans-serif; font-size: 14px; fill: #bbb; }
  </style>
<line class="grid" x1="70" y1="260" x2="1070" y2="260"/>
<line class="grid" x1="70" y1="202.5" x2="1070" y2="202.5"/>
<line class="grid" x1="70" y1="145" x2="1070" y2="145"/>
<line class="grid" x1="70" y1="87.5" x2="1070" y2="87.5"/>
<line class="grid" x1="70" y1="30" x2="1070" y2="30"/>
<line class="grid" x1="70" y1="30" x2="70" y2="260"/>
<line class="grid" x1="270" y1="30" x2="270" y2="260"/>
<line class="grid" x1="470" y1="30" x2="470" y2="260"/>
<line class="grid" x1="670" y1="30" x2="670" y2="260"/>
<line class="grid" x1="870" y1="30" x2="870" y2="260"/>
<line class="grid" x1="1070" y1="30" x2="1070" y2="260"/>
<line class="grid-res" x1="570" y1="30" x2="570" y2="260"/>
<line class="ref-line" x1="70" y1="145" x2="1070" y2="145"/>
<line class="axis" x1="70" y1="30" x2="70" y2="260"/>
<line class="axis" x1="70" y1="260" x2="1070" y2="260"/>
<text class="label" text-anchor="end" x="62" y="265">0.50</text>
<text class="label" text-anchor="end" x="62" y="207.5">0.75</text>
<text class="label" text-anchor="end" x="62" y="150">1.00</text>
<text class="label" text-anchor="end" x="62" y="92.5">1.25</text>
<text class="label" text-anchor="end" x="62" y="35">1.50</text>
<text class="label" text-anchor="middle" transform="translate(14,145) rotate(-90)">HR</text>
<text class="label" text-anchor="middle" x="550" y="296">Age</text>
<text class="label" text-anchor="middle" x="70" y="278">0</text>
<text class="label" text-anchor="middle" x="270" y="278">20</text>
<text class="label" text-anchor="middle" x="470" y="278">40</text>
<text class="label" text-anchor="middle" x="670" y="278">60</text>
<text class="label" text-anchor="middle" x="870" y="278">80</text>
<text class="label" text-anchor="middle" x="1070" y="278">100</text>
<path class="hr-curve" d="M 70 108.93253870153717 L 80 108.93253870153717 L 80 108.93253870153717 L 90 108.93253870153717 L 90 108.93253870153717 L 100 108.93253870153717 L 100 108.93253870153717 L 110 108.93253870153717 L 110 108.93253870153717 L 120 108.93253870153717 L 120 108.93253870153717 L 130 108.93253870153717 L 130 108.93253870153717 L 140 108.93253870153717 L 140 108.93253870153717 L 150 108.93253870153717 L 150 108.93253870153717 L 160 108.93253870153717 L 160 108.93253870153717 L 170 108.93253870153717 L 170 108.93253870153717 L 180 108.93253870153717 L 180 108.93253870153717 L 190 108.93253870153717 L 190 108.93253870153717 L 200 108.93253870153717 L 200 108.93253870153717 L 210 108.93253870153717 L 210 108.93253870153717 L 220 108.93253870153717 L 220 108.93253870153717 L 230 108.93253870153717 L 230 108.93253870153717 L 240 108.93253870153717 L 240 108.93253870153717 L 250 108.93253870153717 L 250 108.93253870153717 L 260 108.93253870153717 L 260 108.93253870153717 L 270 108.93253870153717 L 270 108.93253870153717 L 280 108.93253870153717 L 280 108.93253870153717 L 290 108.93253870153717 L 290 108.93253870153717 L 300 108.93253870153717 L 300 108.93253870153717 L 310 108.93253870153717 L 310 108.93253870153717 L 320 108.93253870153717 L 320 108.93253870153717 L 330 108.93253870153717 L 330 108.93253870153717 L 340 108.93253870153717 L 340 108.93253870153717 L 350 108.93253870153717 L 350 108.93253870153717 L 360 108.93253870153717 L 360 108.93253870153717 L 370 108.93253870153717 L 370 108.93253870153717 L 380 108.93253870153717 L 380 108.93253870153717 L 390 108.93253870153717 L 390 108.93253870153717 L 400 108.93253870153717 L 400 108.93253870153717 L 410 108.93253870153717 L 410 108.93253870153717 L 420 108.93253870153717 L 420 108.93253870153717 L 430 108.93253870153717 L 430 108.93253870153717 L 440 108.93253870153717 L 440 108.93253870153717 L 450 108.93253870153717 L 450 108.93253870153717 L 460 108.93253870153717 L 460 108.93253870153717 L 470 108.93253870153717 L 470 108.93253870153717 L 480 108.93253870153717 L 480 108.93253870153717 L 490 108.93253870153717 L 490 108.93253870153717 L 500 108.93253870153717 L 500 108.93253870153717 L 510 108.93253870153717 L 510 108.93253870153717 L 520 108.93253870153717 L 520 108.93253870153717 L 530 108.93253870153717 L 530 108.93253870153717 L 540 108.93253870153717 L 540 108.93253870153717 L 550 108.93253870153717 L 550 108.93253870153717 L 560 108.93253870153717 L 560 108.93253870153717 L 570 108.93253870153717 L 570 153.73342214488403 L 580 153.73342214488403 L 580 153.73342214488403 L 590 153.73342214488403 L 590 153.73342214488403 L 600 153.73342214488403 L 600 153.73342214488403 L 610 153.73342214488403 L 610 153.73342214488403 L 620 153.73342214488403 L 620 153.73342214488403 L 630 153.73342214488403 L 630 153.73342214488403 L 640 153.73342214488403 L 640 153.73342214488403 L 650 153.73342214488403 L 650 153.73342214488403 L 660 153.73342214488403 L 660 153.73342214488403 L 670 153.73342214488403 L 670 153.73342214488403 L 680 153.73342214488403 L 680 153.73342214488403 L 690 153.73342214488403 L 690 153.73342214488403 L 700 153.73342214488403 L 700 153.73342214488403 L 710 153.73342214488403 L 710 153.73342214488403 L 720 153.73342214488403 L 720 153.73342214488403 L 730 153.73342214488403 L 730 153.73342214488403 L 740 153.73342214488403 L 740 153.73342214488403 L 750 153.73342214488403 L 750 153.73342214488403 L 760 153.73342214488403 L 760 153.73342214488403 L 770 153.73342214488403 L 770 153.73342214488403 L 780 153.73342214488403 L 780 153.73342214488403 L 790 153.73342214488403 L 790 153.73342214488403 L 800 153.73342214488403 L 800 153.73342214488403 L 810 153.73342214488403 L 810 153.73342214488403 L 820 153.73342214488403 L 820 153.73342214488403 L 830 153.73342214488403 L 830 153.73342214488403 L 840 153.73342214488403 L 840 153.73342214488403 L 850 153.73342214488403 L 850 153.73342214488403 L 860 153.73342214488403 L 860 153.73342214488403 L 870 153.73342214488403 L 870 153.73342214488403 L 880 153.73342214488403 L 880 153.73342214488403 L 890 153.73342214488403 L 890 153.73342214488403 L 900 153.73342214488403 L 900 153.73342214488403 L 910 153.73342214488403 L 910 153.73342214488403 L 920 153.73342214488403 L 920 153.73342214488403 L 930 153.73342214488403 L 930 153.73342214488403 L 940 153.73342214488403 L 940 153.73342214488403 L 950 153.73342214488403 L 950 153.73342214488403 L 960 153.73342214488403 L 960 153.73342214488403 L 970 153.73342214488403 L 970 153.73342214488403 L 980 153.73342214488403 L 980 153.73342214488403 L 990 153.73342214488403 L 990 153.73342214488403 L 1000 153.73342214488403 L 1000 153.73342214488403 L 1010 153.73342214488403 L 1010 153.73342214488403 L 1020 153.73342214488403 L 1020 153.73342214488403 L 1030 153.73342214488403 L 1030 153.73342214488403 L 1040 153.73342214488403 L 1040 153.73342214488403 L 1050 153.73342214488403 L 1050 153.73342214488403 L 1060 153.73342214488403 L 1060 153.73342214488403 L 1070 153.73342214488403"/>
</svg>