<svg xmlns="http://www.w3.org/2000/svg" xmlns:xlink="http://www.w3.org/1999/xlink" width="401pt" height="88pt" viewBox="0 0 401 88"><defs><symbol id="a" overflow="visible"><path d="m.219-6.594.469.032c.453.015.5.109.5.89v4.469c0 .797-.047.86-.5.906l-.36.031v.297C.984.016 1.266 0 1.531 0c.063 0 .328 0 .703.016C3.594.03 3.594.03 3.813.03c.296 0 .296 0 1.64-.031 0-.578.047-1.11.156-1.64h-.343a3.033 3.033 0 0 0-.047.343c-.063.422-.188.734-.328.781-.204.079-.922.125-1.797.125-.516 0-.688-.015-.985-.078v-2.797c.282-.015.579-.03 1.016-.03.719 0 .984.03 1.172.124l.078.25.047.594h.297c-.032-.938-.032-.938-.032-1.11 0-.156 0-.156.032-1.156h-.297l-.047.516a1.32 1.32 0 0 1-.078.266c-.188.078-.453.109-1.11.109-.406 0-.734-.016-1.078-.031v-2.672c.313-.063.485-.078 1.157-.078.562 0 1.109.046 1.421.14.235.063.266.11.266.344v.64h.344c0-.593.047-1.077.156-1.515-.484-.016-.797-.016-1.219-.016h-.968c-.625.016-1.047.016-1.313.016-.328 0-.766 0-1.734-.016Zm0 0" style="stroke:none"/></symbol><symbol id="b" overflow="visible"><path d="m3.172-.813-.047.844C3.765 0 3.765 0 3.891 0c.046 0 .296.016.718.031v-.297l-.375-.03c-.234 0-.28-.079-.28-.579v-1.813c0-1.453-.407-1.984-1.548-1.984-.422 0-.812.11-1.187.328l-.516.328v.641l.25.078.14-.312c.204-.47.298-.532.75-.532.923 0 1.298.36 1.329 1.266l-.969.188C.875-2.438.313-1.97.313-1.11.313-.33.78.125 1.546.125c.172 0 .344-.031.406-.078Zm0-.421c-.281.406-.906.78-1.281.78-.391 0-.735-.358-.735-.796 0-.36.203-.719.485-.906.25-.14.78-.281 1.53-.39Zm0 0" style="stroke:none"/></symbol><symbol id="c" overflow="visible"><path d="M3.906-3.094c0-.469.047-.875.14-1.234-.39-.234-.734-.344-1.14-.344-.469 0-1.015.188-1.61.563C.626-3.672.25-2.97.25-2.094.25-.75 1.188.203 2.5.203c.5 0 1.25-.187 1.344-.344l.203-.312-.094-.156c-.375.203-.687.296-1.031.296-1.094 0-1.813-.859-1.813-2.187 0-1.063.5-1.656 1.375-1.656.438 0 .907.203 1.079.453l.078.61Zm0 0" style="stroke:none"/></symbol><symbol id="d" overflow="visible"><path d="M.063-6.594h.562c.172 0 .234.11.234.407v5.171c0 .625-.03.704-.359.72l-.438.03v.297C.72.016.985 0 1.282 0c.28 0 .546.016 1.202.031v-.297l-.437-.03c-.328-.017-.36-.095-.36-.72v-2.109c0-.453.641-.938 1.235-.938.656 0 1.094.5 1.094 1.266V.031C4.609 0 4.625 0 4.796 0c.126 0 .126 0 .813.031v-.297l-.406-.03c-.328-.017-.36-.079-.36-.72v-1.921c0-1.172-.546-1.735-1.64-1.735-.36 0-.562.063-.781.25l-.735.656v-3.39l-.093-.078c-.422.171-.75.25-1.532.359Zm0 0" style="stroke:none"/></symbol><symbol id="e" overflow="visible"><path d="M2.734-4.672C1.297-4.672.313-3.656.313-2.156c0 1.406.875 2.36 2.14 2.36 1.5 0 2.578-1.079 2.578-2.563 0-1.344-.953-2.313-2.297-2.313Zm-.171.328c.89 0 1.562 1 1.562 2.344 0 1.156-.5 1.875-1.297 1.875-.953 0-1.61-.969-1.61-2.375 0-1.203.47-1.844 1.345-1.844Zm0 0" style="stroke:none"/></symbol><symbol id="f" overflow="visible"><path d="M3.344-7.14a.985.985 0 0 0-.453-.11c-.313 0-.657.156-.875.406l-.563.657c-.281.328-.422.78-.422 1.437v.422l-.672.312v.22l.672-.048v2.828c0 .625-.015.704-.36.72l-.452.03v.297C1.203 0 1.203 0 1.453 0c.234 0 .234 0 1.219.031v-.297l-.453-.03c-.328-.017-.36-.095-.36-.72v-2.828h1.22l.062-.515-1.282.03v-.843c0-1.14.125-1.422.688-1.422.265 0 .437.063.672.282l.125-.063Zm0 0" style="stroke:none"/></symbol><symbol id="g" overflow="visible"><path d="M.953-3.813v2.876c0 .734.328 1.062 1.078 1.062.235 0 .469-.063.531-.125l.47-.531-.126-.172c-.25.14-.39.187-.578.187-.39 0-.547-.187-.547-.687v-2.61h1.25l.094-.53-1.344.062v-.39c0-.407.032-.766.11-1.407l-.125-.11c-.235.141-.516.282-.829.375.032.297.047.485.047.782v.703l-.765.344v.218Zm0 0" style="stroke:none"/></symbol><symbol id="h" overflow="visible"><path d="m4.281-.703-.125-.094c-.625.375-.86.469-1.281.469-.625 0-1.156-.297-1.438-.781-.187-.329-.25-.61-.265-1.188h1.422a9.89 9.89 0 0 0 1.781-.14c0-.141.016-.22.016-.344 0-1.14-.735-1.89-1.829-1.89-.359 0-.78.124-1.187.359C.578-3.845.25-3.22.25-2.188c0 .624.156 1.171.422 1.546.39.532 1.047.844 1.781.844.36 0 .719-.078 1.125-.266.266-.109.469-.234.5-.296Zm-.765-1.953c-.516.015-.75.031-1.094.031-.453 0-.703-.016-1.235-.063 0-.468.032-.687.172-.953a1.197 1.197 0 0 1 1.094-.703c.313 0 .578.125.75.39.219.329.281.626.313 1.298Zm0 0" style="stroke:none"/></symbol><symbol id="i" overflow="visible"><path d="M.219-3.984h.375c.39 0 .422.062.422.718v2.25c0 .625-.032.704-.36.72l-.453.03v.297C.906.016 1.172 0 1.406 0c.203 0 .203 0 1.407.031v-.297l-.516-.03c-.438-.032-.453-.063-.453-.72v-1.718c0-.594.39-1.094.875-1.094.281 0 .5.14.656.453h.203l.078-1.188c-.094-.078-.281-.109-.453-.109-.297 0-.61.156-.812.406l-.547.657v-1.032l-.094-.03c-.5.202-1 .343-1.531.405Zm0 0" style="stroke:none"/></symbol><symbol id="j" overflow="visible"><path d="M3.344-7.14a.985.985 0 0 0-.453-.11c-.313 0-.657.156-.875.406l-.563.657c-.281.328-.422.78-.422 1.437v.422l-.672.312v.22l.672-.048v2.828c0 .625-.015.704-.36.72l-.452.03v.297C1.203 0 1.203 0 1.453 0c.234 0 .516.016 1.281.031v-.297l-.515-.03c-.328-.017-.36-.095-.36-.72v-2.828h1.125l.063-.515-1.188.03v-.843c0-1.14.125-1.422.688-1.422.265 0 .437.063.672.282l.125-.063Zm1.594 2.53-.094-.062c-.422.219-.938.36-1.516.422v.281h.36c.39 0 .421.078.421.735v2.218c0 .625-.03.704-.359.72l-.453.03v.297C4.28 0 4.28 0 4.53 0c.235 0 .235 0 1.219.031v-.297l-.453-.03c-.328-.017-.36-.095-.36-.72Zm-.36-2.234a.554.554 0 0 0-.547.547c0 .297.25.563.532.563.28 0 .546-.266.546-.563 0-.266-.265-.547-.53-.547Zm0 0" style="stroke:none"/></symbol><symbol id="k" overflow="visible"><path d="M.406-1.422c0 .688-.031.984-.11 1.375.5.172.891.25 1.345.25 1.28 0 2.187-.703 2.187-1.672 0-.312-.078-.547-.265-.75-.266-.25-.579-.36-1.454-.531-.796-.156-1.062-.36-1.062-.813 0-.5.344-.78.937-.78.657 0 1.157.343 1.157.812v.234h.28c0-.578.017-.812.048-1.125-.516-.187-.875-.25-1.281-.25-1.126 0-1.829.547-1.829 1.438 0 .484.22.828.672 1.03.266.126.782.282 1.453.423.438.11.625.312.625.687 0 .547-.5.922-1.187.922-.719 0-1.219-.344-1.219-.844v-.406Zm0 0" style="stroke:none"/></symbol><symbol id="l" overflow="visible"><path d="m2.766-2.14.296-.672L3-2.86H.437l-.265.671.047.047Zm0 0" style="stroke:none"/></symbol><symbol id="m" overflow="visible"><path d="M.094-3.984h.36c.405 0 .437.062.437.718V1.75c0 .625-.032.703-.36.719L.078 2.5v.297c.985-.031.985-.031 1.219-.031.25 0 .25 0 1.234.03V2.5l-.453-.031c-.328-.016-.36-.094-.36-.719V-.125c.298.172.61.25 1.048.25.28 0 .53-.063.687-.172L4.578-.78c.39-.25.844-1.281.844-1.922 0-1.11-.89-1.969-2.031-1.969-.36 0-.72.094-.875.25l-.797.75v-.969l-.094-.03c-.5.202-1 .343-1.531.405Zm1.625.937c0-.14.047-.25.172-.422.28-.375.687-.562 1.171-.562.922 0 1.516.656 1.516 1.703 0 1.11-.656 1.937-1.547 1.937-.531 0-.937-.171-1.312-.593Zm0 0" style="stroke:none"/></symbol><symbol id="n" overflow="visible"><path d="M.172-3.984h.36c.405 0 .437.062.437.718v2.25c0 .625-.031.704-.36.72l-.453.03v.297C1.094 0 1.125 0 1.406 0c.266 0 .532.016 1.157.031v-.297l-.407-.03c-.328-.017-.36-.095-.36-.72v-2.109c0-.453.641-.938 1.235-.938.531 0 .89.5.89 1.266v1.781c0 .625-.03.704-.358.72l-.454.03v.297C4.08 0 4.08 0 4.33 0s.25 0 1.234.031v-.297l-.454-.03c-.343-.017-.375-.095-.375-.72v-2.109c0-.453.657-.938 1.235-.938.531 0 .906.5.906 1.266V.031C7.469 0 7.469 0 7.641 0c.125 0 .125 0 .875.031v-.297l-.47-.03c-.327-.017-.358-.095-.358-.72v-2.062c0-.985-.563-1.594-1.47-1.594-.343 0-.624.094-.796.25l-.75.672c-.313-.656-.719-.922-1.39-.922-.36 0-.641.094-.813.25l-.672.64v-.859l-.094-.03c-.5.202-1 .343-1.531.405Zm0 0" style="stroke:none"/></symbol><symbol id="o" overflow="visible"><path d="m1.469-7.156-.094-.078c-.422.171-.75.25-1.516.359v.281h.547c.172 0 .235.11.235.407v4.656c0 .625 0 .89-.079 1.593L.72.126l.39-.36c.407.25.75.36 1.266.36.39 0 .64-.078.844-.219l.984-.719c.438-.328.781-1.156.781-1.875 0-1.156-.75-1.984-1.78-1.984-.454 0-.938.172-1.188.438l-.547.562Zm0 4.078c0-.125.093-.313.25-.485A1.456 1.456 0 0 1 2.78-4.03c.828 0 1.344.687 1.344 1.75 0 1.11-.594 1.89-1.422 1.89-.515 0-1.234-.312-1.234-.53Zm0 0" style="stroke:none"/></symbol><symbol id="p" overflow="visible"><path d="M.219-6.594H.78c.172 0 .235.11.235.407v5.171c0 .625-.032.704-.36.72l-.453.03v.297C1.187 0 1.187 0 1.437 0c.235 0 .235 0 1.22.031v-.297l-.454-.03c-.328-.017-.36-.095-.36-.72v-6.14l-.093-.078c-.422.171-.75.25-1.531.359Zm0 0" style="stroke:none"/></symbol><symbol id="q" overflow="visible"><path d="m1.844-4.64-.094-.032c-.5.203-1 .344-1.531.406v.282h.375c.39 0 .422.062.422.718v2.25c0 .625-.032.704-.36.72l-.453.03v.297C1.187 0 1.187 0 1.437 0c.235 0 .235 0 1.22.031v-.297l-.454-.03c-.328-.017-.36-.095-.36-.72ZM1.39-6.845a.554.554 0 0 0-.547.547c0 .297.25.563.531.563a.581.581 0 0 0 .563-.563c0-.266-.266-.547-.547-.547Zm0 0" style="stroke:none"/></symbol><symbol id="r" overflow="visible"><path d="M4.016.031C4.609 0 4.625 0 4.796 0c.126 0 .126 0 .813.031v-.297l-.406-.03c-.328-.017-.36-.079-.36-.72v-1.921c0-1.172-.546-1.735-1.64-1.735-.36 0-.562.063-.781.25l-.735.656v-.875l-.093-.03c-.5.202-1 .343-1.532.405v.282h.376c.39 0 .421.062.421.718v2.25c0 .625-.03.704-.359.72l-.438.03v.297C.72.016.985 0 1.282 0c.28 0 .546.016 1.202.031v-.297l-.437-.03c-.328-.017-.36-.095-.36-.72v-2.109c0-.453.641-.938 1.235-.938.656 0 1.094.5 1.094 1.266Zm0 0" style="stroke:none"/></symbol><symbol id="s" overflow="visible"><path d="m4.922-4.64-.078-.032c-.5.203-1.016.344-1.532.406v.282h.36c.39 0 .437.062.437.718v1.625c0 .22-.14.5-.359.735-.281.281-.594.422-.984.422-.344 0-.61-.11-.766-.297-.14-.172-.203-.469-.203-.906v-2.954l-.094-.03c-.5.202-1 .343-1.531.405v.282h.36c.405 0 .437.062.437.718v1.688c0 .687.062 1 .234 1.25.219.297.594.453 1.14.453.454 0 .845-.14 1.11-.39l.656-.626c0 .297-.015.454-.046.922C4.718 0 4.734 0 4.875 0c.14 0 .14 0 .813.031v-.297l-.391-.03c-.344-.017-.375-.079-.375-.72Zm0 0" style="stroke:none"/></symbol><symbol id="t" overflow="visible"><path d="M4.031-4.36c-.547-.234-.812-.312-1.156-.312-.266 0-.5.063-.75.188l-.86.453C.704-3.734.345-3 .345-2.156c0 .797.265 1.453.75 1.86.328.28.781.421 1.422.421.203 0 .421-.047.468-.078l1.094-.938-.047.922C4.5.016 4.656 0 4.781 0 4.86 0 5 0 5.203.016c.063 0 .266 0 .469.015v-.297l-.453-.03c-.328-.017-.36-.095-.36-.72v-6.14l-.093-.078c-.422.171-.75.25-1.516.359v.281h.547c.172 0 .234.11.234.407Zm0 2.157c0 .64-.015.75-.14.984-.282.469-.75.766-1.22.766-.858 0-1.483-.844-1.483-2.031 0-1.079.53-1.72 1.421-1.72.375 0 .766.126 1.11.36.203.14.312.281.312.36Zm0 0" style="stroke:none"/></symbol><symbol id="u" overflow="visible"><path d="M4.047-4.672c-.797 1.906-.953 2.234-1.563 3.64l-.812-2.75a.777.777 0 0 1-.047-.25c0-.155.125-.234.375-.25l.39-.015v-.281c-.968.031-.968.031-1.171.031-.188 0-.188 0-1.157-.031v.281l.266.016c.281.031.406.218.656 1l1 3.344h.454l.968-2.282c.047-.125.156-.36.313-.703l.187-.422L5.234.062h.454c.078-.203.156-.437.234-.656.187-.578.406-1.203.453-1.265l.656-1.547c.297-.672.422-.844.625-.875l.266-.016v-.281c-.813.031-.813.031-.969.031-.156 0-.156 0-.953-.031v.281l.328.016c.25.015.375.14.375.312 0 .11-.016.235-.062.36l-.485 1.39C6.078-2 6-1.797 5.688-.984L4.563-3.875a6.533 6.533 0 0 1-.297-.797Zm0 0" style="stroke:none"/></symbol><symbol id="v" overflow="visible"><path d="m5.078-3.766.25-.406-.031-.125-1.39.047c-.376-.313-.72-.422-1.204-.422-.437 0-.937.14-1.328.375-.547.313-.844.813-.844 1.422 0 .734.453 1.234 1.188 1.313l-.782.609c-.093.156-.14.281-.14.437 0 .282.172.438.64.579L.595.53c-.14.078-.281.453-.281.75 0 .907.875 1.547 2.109 1.547 1.484 0 2.656-.953 2.656-2.172 0-.719-.469-1.219-1.156-1.219H2.344c-.5 0-.735-.109-.735-.39 0-.125.079-.235.329-.453.062-.047.078-.063.125-.11.093.016.156.016.234.016.422 0 .937-.188 1.344-.469.437-.328.656-.734.656-1.265 0-.188-.031-.329-.11-.532Zm-2.734-.578c.672 0 1.125.563 1.125 1.407 0 .656-.406 1.109-1.016 1.109-.656 0-1.094-.531-1.094-1.297 0-.766.36-1.219.985-1.219ZM2.813.141c1.109 0 1.484.234 1.484.875 0 .859-.766 1.5-1.797 1.5-.86 0-1.438-.516-1.438-1.25 0-.454.25-.86.641-1.032.156-.078.438-.093 1.11-.093Zm0 0" style="stroke:none"/></symbol><symbol id="w" overflow="visible"><path d="m1.86-4.64-.094-.032c-.5.203-1.016.344-1.532.406v.282h.36c.39 0 .437.062.437.718v2.25c0 .625-.031.704-.375.72l-.453.03v.297C1.203 0 1.203 0 1.437 0c.25 0 .25 0 1.25.031v-.297l-.468-.03c-.328-.017-.36-.095-.36-.72Zm-.454-2.204a.567.567 0 0 0-.562.547c0 .297.265.563.547.563a.581.581 0 0 0 .562-.563c0-.266-.266-.547-.547-.547Zm0 0" style="stroke:none"/></symbol><symbol id="x" overflow="visible"><path d="M.969-3.813v2.876c0 .734.328 1.062 1.094 1.062.218 0 .453-.063.515-.125l.485-.531-.141-.172c-.235.14-.39.187-.578.187-.39 0-.547-.187-.547-.687v-2.61h1.266l.093-.53-1.36.062v-.39c0-.407.032-.766.11-1.407l-.11-.11c-.25.141-.546.282-.843.375.031.297.031.485.031.782v.703l-.765.344v.218Zm0 0" style="stroke:none"/></symbol><symbol id="y" overflow="visible"><path d="M.406-1.422c0 .688-.031.984-.11 1.375.516.172.907.25 1.36.25 1.297 0 2.219-.703 2.219-1.672 0-.312-.094-.547-.281-.75-.266-.25-.594-.36-1.453-.531-.813-.156-1.079-.36-1.079-.813 0-.5.344-.78.938-.78.672 0 1.172.343 1.172.812v.234h.281c.016-.578.016-.812.047-1.125-.516-.187-.875-.25-1.281-.25-1.156 0-1.86.547-1.86 1.438 0 .484.22.828.672 1.03.282.126.797.282 1.469.423.453.11.64.312.64.687 0 .547-.5.922-1.203.922-.718 0-1.234-.344-1.234-.844v-.406Zm0 0" style="stroke:none"/></symbol><symbol id="z" overflow="visible"><path d="M.172-3.984h.375c.39 0 .437.062.437.718v2.25c0 .625-.03.704-.375.72l-.453.03v.297C1.11 0 1.141 0 1.422 0c.266 0 .531.016 1.172.031v-.297l-.422-.03c-.328-.017-.36-.095-.36-.72v-2.109c0-.453.657-.938 1.25-.938.532 0 .891.5.891 1.266v1.781c0 .625-.031.704-.36.72l-.452.03v.297C4.125 0 4.125 0 4.375 0s.25 0 1.234.031v-.297l-.453-.03c-.343-.017-.375-.095-.375-.72v-2.109c0-.453.657-.938 1.25-.938.532 0 .907.5.907 1.266V.031C7.53 0 7.546 0 7.718 0c.126 0 .126 0 .876.031v-.297l-.469-.03c-.328-.017-.36-.095-.36-.72v-2.062c0-.985-.577-1.594-1.484-1.594-.343 0-.64.094-.812.25l-.75.672c-.313-.656-.719-.922-1.407-.922-.359 0-.64.094-.812.25l-.688.64v-.859l-.093-.03a5.95 5.95 0 0 1-1.547.405Zm0 0" style="stroke:none"/></symbol><symbol id="A" overflow="visible"><path d="M.094-3.984h.375c.39 0 .437.062.437.718V1.75c0 .625-.031.703-.375.719L.078 2.5v.297c.985-.031.985-.031 1.234-.031.25 0 .25 0 1.235.03V2.5l-.453-.031c-.328-.016-.36-.094-.36-.719V-.125c.297.172.61.25 1.063.25.281 0 .531-.063.687-.172L4.625-.78c.39-.25.86-1.281.86-1.922 0-1.11-.923-1.969-2.063-1.969-.36 0-.719.094-.875.25l-.813.75v-.969l-.093-.03a5.95 5.95 0 0 1-1.547.405Zm1.64.937c0-.14.047-.25.172-.422.297-.375.688-.562 1.188-.562.937 0 1.531.656 1.531 1.703 0 1.11-.672 1.937-1.563 1.937-.546 0-.953-.171-1.328-.593Zm0 0" style="stroke:none"/></symbol><symbol id="B" overflow="visible"><path d="m3.203-.813-.047.844C3.796 0 3.796 0 3.922 0c.047 0 .297.016.734.031v-.297l-.39-.03C4.03-.297 4-.376 4-.876v-1.813c0-1.453-.422-1.984-1.563-1.984-.437 0-.828.11-1.203.328l-.515.328v.641l.25.078.125-.312c.218-.47.312-.532.765-.532.938 0 1.313.36 1.344 1.266l-.984.188C.875-2.438.313-1.97.313-1.11.313-.33.78.125 1.563.125c.171 0 .343-.031.421-.078Zm0-.421c-.281.406-.906.78-1.297.78-.39 0-.734-.358-.734-.796 0-.36.187-.719.484-.906.25-.14.797-.281 1.547-.39Zm0 0" style="stroke:none"/></symbol><symbol id="C" overflow="visible"><path d="M3.953-3.094c0-.469.047-.875.125-1.234-.39-.234-.734-.344-1.14-.344-.47 0-1.032.188-1.626.563C.625-3.672.25-2.97.25-2.094.25-.75 1.203.203 2.516.203 3.03.203 3.78.016 3.875-.14l.203-.312-.094-.156c-.359.203-.687.296-1.03.296-1.11 0-1.829-.859-1.829-2.187 0-1.063.5-1.656 1.39-1.656.438 0 .907.203 1.079.453l.078.61Zm0 0" style="stroke:none"/></symbol><symbol id="D" overflow="visible"><path d="M2.766-4.672C1.312-4.672.312-3.656.312-2.156c0 1.406.891 2.36 2.157 2.36C4 .203 5.079-.876 5.079-2.36c0-1.344-.97-2.313-2.313-2.313Zm-.188.328c.906 0 1.578 1 1.578 2.344 0 1.156-.5 1.875-1.297 1.875-.968 0-1.625-.969-1.625-2.375 0-1.203.485-1.844 1.344-1.844Zm0 0" style="stroke:none"/></symbol><symbol id="E" overflow="visible"><path d="M4.063.031C4.655 0 4.671 0 4.843 0c.126 0 .126 0 .813.031v-.297l-.406-.03c-.328-.017-.36-.079-.36-.72v-1.921c0-1.172-.546-1.735-1.656-1.735-.359 0-.578.063-.78.25l-.75.656v-.875l-.095-.03a5.95 5.95 0 0 1-1.546.405v.282h.374c.391 0 .438.062.438.718v2.25c0 .625-.031.704-.375.72l-.438.03v.297C.735.016 1 0 1.282 0c.296 0 .562.016 1.234.031v-.297l-.454-.03c-.328-.017-.359-.095-.359-.72v-2.109c0-.453.656-.938 1.25-.938.672 0 1.11.5 1.11 1.266Zm0 0" style="stroke:none"/></symbol><symbol id="F" overflow="visible"><path d="m4.328-.703-.14-.094c-.625.375-.86.469-1.282.469-.64 0-1.172-.297-1.453-.781-.187-.329-.25-.61-.281-1.188h1.453a9.78 9.78 0 0 0 1.781-.14c.016-.141.032-.22.032-.344 0-1.14-.735-1.89-1.844-1.89-.375 0-.797.124-1.203.359C.578-3.845.25-3.22.25-2.188c0 .624.156 1.171.422 1.546.39.532 1.062.844 1.797.844.375 0 .734-.078 1.14-.266.266-.109.47-.234.516-.296Zm-.781-1.953c-.516.015-.75.031-1.11.031-.453 0-.703-.016-1.234-.063 0-.468.031-.687.156-.953.22-.437.641-.703 1.11-.703.328 0 .594.125.765.39.22.329.282.626.313 1.298Zm0 0" style="stroke:none"/></symbol><symbol id="G" overflow="visible"><path d="m4.969-4.64-.078-.032a6.117 6.117 0 0 1-1.547.406v.282h.36c.405 0 .437.062.437.718v1.625c0 .22-.141.5-.36.735-.281.281-.594.422-.984.422-.344 0-.625-.11-.781-.297-.141-.172-.204-.469-.204-.906v-2.954l-.093-.03a5.95 5.95 0 0 1-1.547.405v.282h.375c.39 0 .437.062.437.718v1.688c0 .687.047 1 .235 1.25.218.297.593.453 1.156.453.438 0 .844-.14 1.11-.39l.656-.626c0 .297 0 .454-.032.922C4.766 0 4.781 0 4.922 0c.14 0 .14 0 .828.031v-.297l-.406-.03c-.344-.017-.375-.079-.375-.72Zm0 0" style="stroke:none"/></symbol><symbol id="H" overflow="visible"><path d="M.234-3.984h.36c.39 0 .437.062.437.718v2.25c0 .625-.031.704-.375.72l-.453.03v.297C.922.016 1.172 0 1.422 0c.203 0 .203 0 1.422.031v-.297l-.516-.03c-.453-.032-.469-.063-.469-.72v-1.718c0-.594.391-1.094.875-1.094.297 0 .516.14.672.453h.203l.094-1.188c-.11-.078-.297-.109-.469-.109-.296 0-.609.156-.828.406l-.547.657v-1.032l-.093-.03c-.5.202-1.016.343-1.532.405Zm0 0" style="stroke:none"/></symbol><symbol id="I" overflow="visible"><path d="M.234-6.594h.547c.172 0 .25.11.25.407v5.171c0 .625-.031.704-.375.72l-.453.03v.297C1.203 0 1.203 0 1.437 0c.25 0 .25 0 1.25.031v-.297l-.468-.03c-.328-.017-.36-.095-.36-.72v-6.14l-.093-.078c-.438.171-.75.25-1.532.359Zm0 0" style="stroke:none"/></symbol><symbol id="J" overflow="visible"><path d="m5.14-3.766.235-.406-.031-.125-1.407.047c-.359-.313-.718-.422-1.203-.422-.437 0-.937.14-1.343.375-.563.313-.844.813-.844 1.422 0 .734.453 1.234 1.187 1.313l-.78.609c-.11.156-.157.281-.157.437 0 .282.187.438.656.579L.593.53c-.14.078-.28.453-.28.75 0 .907.89 1.547 2.14 1.547 1.5 0 2.672-.953 2.672-2.172 0-.719-.469-1.219-1.172-1.219H2.375c-.516 0-.75-.109-.75-.39 0-.125.078-.235.328-.453.063-.047.078-.063.125-.11.094.016.156.016.235.016.421 0 .953-.188 1.359-.469.437-.328.656-.734.656-1.265 0-.188-.031-.329-.11-.532Zm-2.765-.578c.672 0 1.125.563 1.125 1.407 0 .656-.422 1.109-1.016 1.109-.671 0-1.109-.531-1.109-1.297 0-.766.36-1.219 1-1.219ZM2.844.141c1.11 0 1.5.234 1.5.875 0 .859-.782 1.5-1.828 1.5-.86 0-1.454-.516-1.454-1.25 0-.454.266-.86.657-1.032.156-.078.437-.093 1.125-.093Zm0 0" style="stroke:none"/></symbol><symbol id="K" overflow="visible"><path d="M3.375-7.14a.985.985 0 0 0-.453-.11c-.328 0-.672.156-.89.406l-.563.657c-.297.328-.422.78-.422 1.437v.422l-.688.312v.22l.688-.048v2.828c0 .625-.031.704-.36.72l-.453.03v.297C1.22 0 1.22 0 1.47 0c.25 0 .25 0 1.234.031v-.297l-.453-.03c-.344-.017-.375-.095-.375-.72v-2.828h1.234l.063-.515-1.297.03v-.843c0-1.14.125-1.422.703-1.422.266 0 .438.063.672.282l.125-.063Zm0 0" style="stroke:none"/></symbol><symbol id="L" overflow="visible"><path d="M1.219-1.11c-.282 0-.563.282-.563.579s.281.578.563.578c.312 0 .593-.266.593-.578 0-.297-.28-.578-.593-.578Zm0 0" style="stroke:none"/></symbol><symbol id="M" overflow="visible"><path d="M4.031-6.984H3.72c-.172.437-.328.796-.39.953l-.517 1.203L1.048-.781C.937-.5.734-.312.516-.297L.14-.266v.297C1.062 0 1.062 0 1.219 0c.14 0 .14 0 1.203.031v-.297l-.36-.03c-.343-.032-.484-.11-.484-.267 0-.125.14-.546.344-1.046l.281-.672h2.844l.469 1.14c.156.422.203.547.203.641 0 .11-.157.188-.407.203l-.468.031v.297C6.062 0 6.062 0 6.219 0c.187 0 .187 0 1.265.031v-.297l-.343-.03c-.25-.048-.36-.22-.72-1.016ZM2.375-2.688l1.25-2.968 1.25 2.968Zm0 0" style="stroke:none"/></symbol><symbol id="N" overflow="visible"><path d="m1.484-7.156-.093-.078c-.438.171-.75.25-1.532.359v.281h.547c.172 0 .25.11.25.407v4.656c0 .625-.015.89-.078 1.593l.156.063.391-.36c.39.25.75.36 1.281.36.39 0 .64-.078.844-.219l1-.719c.422-.328.781-1.156.781-1.875 0-1.156-.75-1.984-1.797-1.984-.468 0-.953.172-1.203.438l-.547.562Zm0 4.078c0-.125.094-.313.25-.485a1.49 1.49 0 0 1 1.079-.468c.828 0 1.343.687 1.343 1.75 0 1.11-.578 1.89-1.422 1.89-.515 0-1.25-.312-1.25-.53Zm0 0" style="stroke:none"/></symbol><symbol id="O" overflow="visible"><path d="M4.5-4.313v-.296c-.688.03-.984.03-1.36.03l-2.453-.03c-.03.515-.03.625-.093 1.312H.89l.125-.672c.03-.203.203-.265.937-.265h1.422c-.203.343-.375.562-.64.906l-1.688 2.11a18.78 18.78 0 0 1-.89 1.046l.062.203C1.25 0 1.312 0 1.734 0l2.72.031c0-.234.03-.469.093-.953l.062-.469h-.296l-.172.797c-.047.172-.47.25-1.407.25H1.391Zm0 0" style="stroke:none"/></symbol><symbol id="P" overflow="visible"><path d="M4.078-4.36c-.562-.234-.828-.312-1.187-.312-.266 0-.5.063-.75.188l-.86.453C.72-3.734.344-3 .344-2.156c0 .797.265 1.453.75 1.86.343.28.812.421 1.453.421.187 0 .422-.047.469-.078l1.093-.938-.046.922C4.546.016 4.702 0 4.827 0c.078 0 .219 0 .422.016.078 0 .266 0 .484.015v-.297l-.468-.03c-.329-.017-.36-.095-.36-.72v-6.14l-.093-.078c-.438.171-.75.25-1.532.359v.281h.547c.172 0 .25.11.25.407Zm0 2.157c0 .64-.016.75-.156.984-.266.469-.75.766-1.219.766-.875 0-1.5-.844-1.5-2.031 0-1.079.531-1.72 1.422-1.72.375 0 .781.126 1.125.36.203.14.328.281.328.36Zm0 0" style="stroke:none"/></symbol><symbol id="Q" overflow="visible"><path d="M.063-6.594h.562c.172 0 .25.11.25.407v5.171c0 .625-.031.704-.375.72l-.438.03v.297C.735.016 1 0 1.282 0c.296 0 .562.016 1.234.031v-.297l-.454-.03c-.328-.017-.359-.095-.359-.72v-2.109c0-.453.656-.938 1.25-.938.672 0 1.11.5 1.11 1.266V.031C4.655 0 4.671 0 4.843 0c.126 0 .126 0 .813.031v-.297l-.406-.03c-.328-.017-.36-.079-.36-.72v-1.921c0-1.172-.546-1.735-1.656-1.735-.359 0-.578.063-.78.25l-.75.656v-3.39l-.095-.078c-.437.171-.765.25-1.546.359Zm0 0" style="stroke:none"/></symbol><symbol id="R" overflow="visible"><path d="M3.188-.813 3.14.031C3.78 0 3.78 0 3.906 0c.047 0 .297.016.735.031v-.297l-.391-.03c-.234 0-.266-.079-.266-.579v-1.813c0-1.453-.421-1.984-1.562-1.984-.422 0-.813.11-1.188.328l-.53.328v.641l.265.078.125-.312c.203-.47.297-.532.75-.532.937 0 1.312.36 1.343 1.266l-.968.188C.875-2.438.313-1.97.313-1.11.313-.33.78.125 1.563.125c.171 0 .343-.031.406-.078Zm0-.421c-.282.406-.907.78-1.282.78-.406 0-.75-.358-.75-.796 0-.36.203-.719.5-.906.25-.14.782-.281 1.532-.39Zm0 0" style="stroke:none"/></symbol><symbol id="S" overflow="visible"><path d="M3.922-3.094c0-.469.062-.875.14-1.234-.39-.234-.734-.344-1.14-.344-.469 0-1.016.188-1.61.563C.625-3.672.25-2.97.25-2.094.25-.75 1.188.203 2.516.203c.5 0 1.25-.187 1.343-.344l.204-.312-.094-.156c-.36.203-.688.296-1.031.296-1.094 0-1.813-.859-1.813-2.187 0-1.063.484-1.656 1.375-1.656.438 0 .906.203 1.078.453l.078.61Zm0 0" style="stroke:none"/></symbol><symbol id="T" overflow="visible"><path d="m1.844-4.64-.078-.032a5.95 5.95 0 0 1-1.547.406v.282h.375c.39 0 .437.062.437.718v2.25c0 .625-.031.704-.375.72l-.453.03v.297C1.187 0 1.187 0 1.437 0s.25 0 1.235.031v-.297l-.453-.03c-.344-.017-.375-.095-.375-.72ZM1.39-6.845a.564.564 0 0 0-.547.547c0 .297.265.563.547.563.28 0 .546-.266.546-.563 0-.266-.265-.547-.546-.547Zm0 0" style="stroke:none"/></symbol><symbol id="U" overflow="visible"><path d="M4.063-4.36c-.563-.234-.829-.312-1.172-.312a1.57 1.57 0 0 0-.75.188l-.875.453C.703-3.734.344-3 .344-2.156c0 .797.265 1.453.75 1.86.328.28.797.421 1.437.421.203 0 .422-.047.469-.078l1.094-.938-.047.922C4.53.016 4.687 0 4.797 0c.078 0 .219 0 .437.016.063 0 .266 0 .47.015v-.297l-.454-.03c-.344-.017-.375-.095-.375-.72v-6.14l-.078-.078c-.438.171-.766.25-1.531.359v.281h.546c.172 0 .25.11.25.407Zm0 2.157c0 .64-.032.75-.157.984-.281.469-.75.766-1.219.766-.859 0-1.484-.844-1.484-2.031 0-1.079.531-1.72 1.422-1.72.375 0 .766.126 1.11.36.203.14.328.281.328.36Zm0 0" style="stroke:none"/></symbol><symbol id="V" overflow="visible"><path d="M2.016-1.219c-.266.078-.454.14-.97.297C.97-.172.735.484.157 1.438l.14.109.407-.188C1.5.313 1.875-.312 2.141-1.094Zm0 0" style="stroke:none"/></symbol><symbol id="W" overflow="visible"><path d="M4.031.031C4.641 0 4.641 0 4.813 0c.14 0 .14 0 .812.031v-.297l-.39-.03c-.344-.017-.376-.079-.376-.72v-1.921c0-1.172-.53-1.735-1.64-1.735-.36 0-.578.063-.781.25l-.75.656v-.875l-.079-.03a5.95 5.95 0 0 1-1.546.405v.282h.374c.391 0 .422.062.422.718v2.25c0 .625-.015.704-.359.72l-.438.03v.297C.735.016 1 0 1.282 0c.28 0 .546.016 1.218.031v-.297l-.438-.03c-.343-.017-.374-.095-.374-.72v-2.109c0-.453.656-.938 1.25-.938.671 0 1.093.5 1.093 1.266Zm0 0" style="stroke:none"/></symbol><symbol id="X" overflow="visible"><path d="m4.297-.703-.125-.094c-.625.375-.86.469-1.281.469-.641 0-1.172-.297-1.438-.781-.187-.329-.266-.61-.281-1.188h1.437a9.78 9.78 0 0 0 1.782-.14c.015-.141.015-.22.015-.344 0-1.14-.718-1.89-1.828-1.89-.36 0-.781.124-1.187.359C.578-3.845.25-3.22.25-2.188c0 .624.156 1.171.422 1.546.39.532 1.047.844 1.797.844.36 0 .719-.078 1.125-.266.265-.109.469-.234.515-.296ZM3.53-2.656c-.515.015-.75.031-1.094.031-.453 0-.718-.016-1.25-.063 0-.468.047-.687.172-.953a1.203 1.203 0 0 1 1.11-.703c.312 0 .578.125.75.39.219.329.281.626.312 1.298Zm0 0" style="stroke:none"/></symbol><symbol id="Y" overflow="visible"><path d="m2.828-2.531 1.406-1.656c.063-.063.172-.11.329-.11h.14v-.281h-.812l-1.22 1.75-.75-1.156c-.14-.22-.25-.36-.577-.688l-1.14.203.046.25.203.016c.172.016.39.156.484.297l1.188 1.734L.656-.422a.378.378 0 0 1-.297.156H.203V0h.844c.062-.11.078-.156.203-.328.156-.281.313-.531.39-.61l.72-.968 1.062 1.61v.015c.094.14.172.234.25.312C4.187 0 4.187 0 4.266 0c.109 0 .109 0 .609.031v-.297l-.234-.03c-.125-.017-.235-.095-.344-.235Zm0 0" style="stroke:none"/></symbol><symbol id="Z" overflow="visible"><path d="M.969-3.813v2.876c0 .734.328 1.062 1.078 1.062.234 0 .469-.063.515-.125l.485-.531-.14-.172c-.235.14-.391.187-.579.187-.375 0-.531-.187-.531-.687v-2.61h1.25l.094-.53-1.344.062v-.39c0-.407.031-.766.11-1.407l-.126-.11c-.234.141-.531.282-.843.375.03.297.046.485.046.782v.703l-.765.344v.218Zm0 0" style="stroke:none"/></symbol><symbol id="aa" overflow="visible"><path d="M2.75-4.672C1.312-4.672.312-3.656.312-2.156c0 1.406.875 2.36 2.157 2.36 1.515 0 2.594-1.079 2.594-2.563 0-1.344-.97-2.313-2.313-2.313Zm-.188.328c.907 0 1.579 1 1.579 2.344 0 1.156-.5 1.875-1.297 1.875-.969 0-1.61-.969-1.61-2.375 0-1.203.47-1.844 1.329-1.844Zm0 0" style="stroke:none"/></symbol><symbol id="ab" overflow="visible"><path d="M.219-3.984h.375c.39 0 .437.062.437.718v2.25c0 .625-.031.704-.375.72l-.453.03v.297C.922.016 1.172 0 1.422 0c.187 0 .187 0 1.406.031v-.297l-.515-.03c-.438-.032-.47-.063-.47-.72v-1.718c0-.594.407-1.094.891-1.094.282 0 .5.14.657.453h.203l.094-1.188c-.11-.078-.297-.109-.47-.109-.296 0-.609.156-.812.406l-.562.657v-1.032l-.078-.03a5.95 5.95 0 0 1-1.547.405Zm0 0" style="stroke:none"/></symbol><symbol id="ac" overflow="visible"><path d="M2.922-.86a5.475 5.475 0 0 1-.5-1.093l-.625-1.672c-.063-.172-.11-.328-.11-.422 0-.14.11-.219.344-.234l.375-.016v-.281c-.953.031-.953.031-1.14.031-.188 0-.188 0-1.141-.031v.281l.172.016c.25.031.36.14.516.5l1.062 2.61c.281.671.375.905.563 1.405l-.235.61c-.312.844-.703 1.312-1.078 1.312-.156 0-.328-.078-.5-.234H.5l-.234.75c.187.094.343.156.53.156.657 0 1.079-.36 1.454-1.234l2-4.672c.39-.906.578-1.172.828-1.203l.281-.016v-.281c-.78.031-.78.031-.937.031-.156 0-.156 0-.938-.031v.281l.25.016c.282.031.422.11.422.25a.644.644 0 0 1-.062.265Zm0 0" style="stroke:none"/></symbol><symbol id="ad" overflow="visible"><path d="m4.953-4.64-.094-.032c-.5.203-1.015.344-1.53.406v.282h.358c.391 0 .438.062.438.718v1.625c0 .22-.14.5-.36.735-.28.281-.593.422-.984.422-.344 0-.61-.11-.765-.297-.141-.172-.22-.469-.22-.906v-2.954l-.077-.03a6.117 6.117 0 0 1-1.547.405v.282h.375c.39 0 .422.062.422.718v1.688c0 .687.062 1 .234 1.25.219.297.594.453 1.156.453.454 0 .844-.14 1.11-.39l.656-.626c0 .297-.016.454-.047.922C4.75 0 4.75 0 4.906 0c.14 0 .14 0 .813.031v-.297l-.407-.03c-.328-.017-.359-.079-.359-.72Zm0 0" style="stroke:none"/></symbol><symbol id="ae" overflow="visible"><path d="M.406-1.422c0 .688-.031.984-.11 1.375.516.172.891.25 1.345.25 1.296 0 2.203-.703 2.203-1.672 0-.312-.078-.547-.266-.75-.265-.25-.578-.36-1.453-.531-.813-.156-1.078-.36-1.078-.813 0-.5.344-.78.953-.78.656 0 1.156.343 1.156.812v.234h.281c.016-.578.016-.812.047-1.125-.515-.187-.875-.25-1.28-.25-1.142 0-1.845.547-1.845 1.438 0 .484.22.828.672 1.03.266.126.797.282 1.453.423.454.11.641.312.641.687 0 .547-.5.922-1.203.922-.719 0-1.219-.344-1.219-.844v-.406Zm0 0" style="stroke:none"/></symbol><symbol id="af" overflow="visible"><path d="M.172-3.984h.375c.39 0 .422.062.422.718v2.25c0 .625-.031.704-.36.72l-.453.03v.297C1.11 0 1.125 0 1.406 0c.282 0 .532.016 1.172.031v-.297l-.406-.03c-.344-.017-.375-.095-.375-.72v-2.109c0-.453.656-.938 1.25-.938.531 0 .89.5.89 1.266v1.781c0 .625-.03.704-.359.72l-.453.03v.297C4.109 0 4.109 0 4.344 0c.25 0 .25 0 1.234.031v-.297l-.453-.03c-.328-.017-.36-.095-.36-.72v-2.109c0-.453.657-.938 1.235-.938.531 0 .906.5.906 1.266V.031C7.5 0 7.516 0 7.672 0c.14 0 .14 0 .875.031v-.297l-.453-.03c-.344-.017-.36-.095-.36-.72v-2.062c0-.985-.578-1.594-1.484-1.594-.344 0-.625.094-.813.25l-.734.672c-.328-.656-.719-.922-1.406-.922-.36 0-.64.094-.813.25l-.687.64v-.859l-.078-.03a6.117 6.117 0 0 1-1.547.405Zm0 0" style="stroke:none"/></symbol><symbol id="ag" overflow="visible"><path d="M2.016-1.25a11.62 11.62 0 0 1-.97.297C.97-.188.735.453.157 1.422l.14.11.407-.204C1.5.297 1.875-.344 2.141-1.109Zm-.532-3.297c-.296 0-.562.281-.562.578 0 .297.265.578.547.578.312 0 .593-.265.593-.562 0-.313-.28-.594-.578-.594Zm0 0" style="stroke:none"/></symbol><symbol id="ah" overflow="visible"><path d="M.094-3.984h.375c.39 0 .422.062.422.718V1.75c0 .625-.032.703-.36.719L.078 2.5v.297c.985-.031.985-.031 1.234-.031.25 0 .25 0 1.235.03V2.5l-.453-.031c-.344-.016-.375-.094-.375-.719V-.125c.297.172.61.25 1.062.25.281 0 .531-.063.688-.172L4.594-.78c.39-.25.86-1.281.86-1.922 0-1.11-.907-1.969-2.048-1.969-.36 0-.719.094-.875.25l-.812.75v-.969l-.078-.03a6.117 6.117 0 0 1-1.547.405Zm1.625.937c0-.14.047-.25.187-.422.282-.375.688-.562 1.172-.562.922 0 1.516.656 1.516 1.703 0 1.11-.657 1.937-1.547 1.937-.531 0-.938-.171-1.328-.593Zm0 0" style="stroke:none"/></symbol><symbol id="ai" overflow="visible"><path d="M.063-6.594h.562c.172 0 .234.11.234.407v5.171c0 .625-.015.704-.359.72l-.438.03v.297C.735.016 1 0 1.282 0c.28 0 .546.016 1.218.031v-.297l-.438-.03c-.343-.017-.374-.095-.374-.72v-2.109c0-.453.656-.938 1.25-.938.671 0 1.093.5 1.093 1.266V.031C4.641 0 4.641 0 4.813 0c.14 0 .14 0 .812.031v-.297l-.39-.03c-.344-.017-.376-.079-.376-.72v-1.921c0-1.172-.53-1.735-1.64-1.735-.36 0-.578.063-.781.25l-.75.656v-3.39l-.079-.078c-.437.171-.765.25-1.546.359Zm0 0" style="stroke:none"/></symbol><symbol id="aj" overflow="visible"><path d="M.219-6.594H.78c.172 0 .25.11.25.407v5.171c0 .625-.031.704-.375.72l-.453.03v.297C1.187 0 1.187 0 1.437 0s.25 0 1.235.031v-.297l-.453-.03c-.344-.017-.375-.095-.375-.72v-6.14l-.078-.078c-.438.171-.766.25-1.547.359Zm0 0" style="stroke:none"/></symbol><symbol id="ak" overflow="visible"><path d="M4.063-4.672c-.797 1.906-.954 2.234-1.563 3.64l-.828-2.75c-.031-.093-.031-.171-.031-.25 0-.155.125-.234.375-.25l.39-.015v-.281c-.984.031-.984.031-1.172.031-.203 0-.203 0-1.171-.031v.281l.265.016c.281.031.406.218.656 1l1 3.344h.47l.968-2.282c.047-.125.156-.36.312-.703l.188-.422L5.266.062h.453c.062-.203.14-.437.234-.656.188-.578.406-1.203.453-1.265l.657-1.547c.296-.672.421-.844.64-.875l.25-.016v-.281c-.812.031-.812.031-.969.031-.156 0-.156 0-.953-.031v.281l.328.016c.25.015.391.14.391.312 0 .11-.031.235-.078.36l-.484 1.39c-.079.219-.157.422-.485 1.235L4.578-3.875a6.218 6.218 0 0 1-.281-.797Zm0 0" style="stroke:none"/></symbol><symbol id="al" overflow="visible"><path d="M5.313-4.297v-.281c-.594.016-.782.031-.938.031-.156 0-.328-.016-.922-.031v.281l.406.016c.157.015.235.11.235.265 0 .157-.063.422-.188.72L3.5-2.235c-.125.296-.234.562-.61 1.39L1.72-3.704a1.009 1.009 0 0 1-.094-.39c0-.11.094-.172.25-.187l.484-.016v-.281c-.968.031-.968.031-1.156.031-.187 0-.656-.016-1.14-.031v.281l.328.016c.156.031.203.078.312.328L2.391.062h.5c.046-.156.156-.421.156-.437.11-.297.234-.64.234-.64L4.453-3.61c.219-.47.344-.641.547-.672Zm0 0" style="stroke:none"/></symbol><symbol id="am" overflow="visible"><path d="M.234-3.984H.61c.407 0 .454.062.454.718v2.25c0 .625-.032.704-.375.72l-.47.03v.297C.939.016 1.204 0 1.469 0c.204 0 .204 0 1.454.031v-.297l-.531-.03c-.47-.032-.485-.063-.485-.72v-1.718c0-.594.407-1.094.907-1.094.312 0 .515.14.687.453h.203l.094-1.188c-.11-.078-.297-.109-.469-.109-.312 0-.64.156-.844.406l-.578.657v-1.032l-.093-.03a6.345 6.345 0 0 1-1.579.405Zm0 0" style="stroke:none"/></symbol><symbol id="an" overflow="visible"><path d="m4.438-.703-.125-.094c-.657.375-.891.469-1.329.469-.656 0-1.203-.297-1.484-.781-.203-.329-.266-.61-.297-1.188h1.484c.704 0 1.141-.031 1.844-.14.016-.141.016-.22.016-.344 0-1.14-.75-1.89-1.89-1.89-.376 0-.813.124-1.22.359C.595-3.845.266-3.22.266-2.188c0 .624.156 1.171.421 1.546.407.532 1.094.844 1.844.844.39 0 .766-.078 1.172-.266.281-.109.485-.234.531-.296ZM3.64-2.656c-.516.015-.766.031-1.125.031-.47 0-.735-.016-1.282-.063 0-.468.032-.687.172-.953.203-.437.64-.703 1.125-.703.344 0 .61.125.797.39.219.329.281.626.313 1.298Zm0 0" style="stroke:none"/></symbol><symbol id="ao" overflow="visible"><path d="m5.266-3.766.265-.406-.047-.125-1.437.047c-.375-.313-.75-.422-1.25-.422-.438 0-.953.14-1.375.375-.563.313-.86.813-.86 1.422 0 .734.47 1.234 1.22 1.313l-.813.609c-.094.156-.14.281-.14.437 0 .282.171.438.671.579L.61.53C.468.61.327.984.327 1.281c0 .907.906 1.547 2.188 1.547 1.53 0 2.75-.953 2.75-2.172 0-.719-.5-1.219-1.204-1.219H2.438c-.53 0-.765-.109-.765-.39 0-.125.078-.235.344-.453a.361.361 0 0 0 .109-.11c.11.016.172.016.25.016.438 0 .969-.188 1.39-.469.454-.328.688-.734.688-1.265 0-.188-.031-.329-.11-.532Zm-2.829-.578c.688 0 1.157.563 1.157 1.407 0 .656-.422 1.109-1.047 1.109-.672 0-1.14-.531-1.14-1.297 0-.766.374-1.219 1.03-1.219ZM2.922.141c1.14 0 1.531.234 1.531.875 0 .859-.797 1.5-1.86 1.5-.89 0-1.5-.516-1.5-1.25 0-.454.266-.86.673-1.032.156-.078.453-.093 1.156-.093Zm0 0" style="stroke:none"/></symbol><symbol id="ap" overflow="visible"><path d="m5.11-4.64-.094-.032a6.345 6.345 0 0 1-1.579.406v.282h.376c.406 0 .437.062.437.718v1.625c0 .22-.14.5-.375.735-.281.281-.61.422-1 .422-.36 0-.64-.11-.797-.297-.156-.172-.219-.469-.219-.906v-2.954l-.093-.03a6.345 6.345 0 0 1-1.579.405v.282h.376c.406 0 .437.062.437.718v1.688c0 .687.063 1 .25 1.25.219.297.61.453 1.188.453.453 0 .859-.14 1.14-.39l.672-.626c0 .297 0 .454-.031.922C4.89 0 4.906 0 5.062 0c.141 0 .141 0 .844.031v-.297l-.422-.03c-.343-.017-.375-.079-.375-.72Zm0 0" style="stroke:none"/></symbol><symbol id="aq" overflow="visible"><path d="M.234-6.594h.563c.187 0 .265.11.265.407v5.171c0 .625-.03.704-.375.72l-.468.03v.297C1.234 0 1.234 0 1.484 0s.25 0 1.266.031v-.297l-.469-.03c-.344-.017-.375-.095-.375-.72v-6.14l-.093-.078c-.438.171-.782.25-1.579.359Zm0 0" style="stroke:none"/></symbol><symbol id="ar" overflow="visible"><path d="m3.297-.813-.063.844C3.906 0 3.906 0 4.031 0c.047 0 .313.016.75.031v-.297l-.39-.03c-.25 0-.282-.079-.282-.579v-1.813c0-1.453-.437-1.984-1.609-1.984-.438 0-.844.11-1.234.328l-.532.328v.641L1-3.297l.125-.312c.219-.47.313-.532.781-.532.953 0 1.36.36 1.39 1.266l-1.015.188C.906-2.438.328-1.97.328-1.11.328-.33.797.125 1.61.125c.172 0 .344-.031.422-.078Zm0-.421c-.297.406-.938.78-1.344.78-.406 0-.75-.358-.75-.796 0-.36.203-.719.5-.906.25-.14.813-.281 1.594-.39Zm0 0" style="stroke:none"/></symbol><symbol id="as" overflow="visible"><path d="M1-3.813v2.876C1-.204 1.328.125 2.11.125c.234 0 .484-.063.546-.125l.485-.531L3-.703c-.25.14-.406.187-.594.187-.39 0-.562-.187-.562-.687v-2.61H3.14l.093-.53-1.39.062v-.39c0-.407.031-.766.11-1.407l-.11-.11c-.25.141-.547.282-.875.375.031.297.047.485.047.782v.703l-.797.344v.218Zm0 0" style="stroke:none"/></symbol><symbol id="at" overflow="visible"><path d="m1.906-4.64-.093-.032a6.345 6.345 0 0 1-1.579.406v.282H.61c.407 0 .454.062.454.718v2.25c0 .625-.032.704-.375.72l-.47.03v.297C1.235 0 1.235 0 1.485 0s.25 0 1.266.031v-.297l-.469-.03c-.344-.017-.375-.095-.375-.72Zm-.468-2.204a.567.567 0 0 0-.563.547c0 .297.266.563.563.563.28 0 .562-.266.562-.563 0-.266-.281-.547-.563-.547Zm0 0" style="stroke:none"/></symbol><symbol id="au" overflow="visible"><path d="M2.828-4.672c-1.484 0-2.5 1.016-2.5 2.516 0 1.406.906 2.36 2.203 2.36C4.11.203 5.22-.876 5.22-2.36c0-1.344-1-2.313-2.39-2.313Zm-.172.328c.922 0 1.625 1 1.625 2.344 0 1.156-.531 1.875-1.343 1.875-1 0-1.672-.969-1.672-2.375 0-1.203.484-1.844 1.39-1.844Zm0 0" style="stroke:none"/></symbol><symbol id="av" overflow="visible"><path d="M4.156.031C4.781 0 4.796 0 4.97 0c.14 0 .14 0 .843.031v-.297l-.421-.03c-.344-.017-.375-.079-.375-.72v-1.921c0-1.172-.563-1.735-1.688-1.735-.39 0-.594.063-.812.25l-.766.656v-.875l-.094-.03a6.345 6.345 0 0 1-1.578.405v.282h.375c.406 0 .438.062.438.718v2.25c0 .625-.032.704-.375.72l-.454.03v.297C.75.016 1.032 0 1.313 0c.297 0 .579.016 1.266.031v-.297l-.453-.03c-.344-.017-.375-.095-.375-.72v-2.109c0-.453.672-.938 1.281-.938.688 0 1.125.5 1.125 1.266Zm0 0" style="stroke:none"/></symbol><symbol id="aw" overflow="visible"><path d="M2.078-1.25c-.281.094-.469.156-1 .297C1-.188.75.453.156 1.422l.14.11.423-.204c.828-1.031 1.203-1.672 1.5-2.437Zm-.562-3.297a.61.61 0 0 0-.579.578.61.61 0 0 0 .579.578c.328 0 .609-.265.609-.562a.618.618 0 0 0-.61-.594Zm0 0" style="stroke:none"/></symbol><symbol id="ax" overflow="visible"><path d="M4.188-4.36c-.579-.234-.86-.312-1.22-.312-.265 0-.515.063-.765.188l-.89.453C.734-3.734.359-3 .359-2.156c0 .797.266 1.453.766 1.86.344.28.828.421 1.484.421.204 0 .438-.047.485-.078l1.125-.938-.047.922c.5-.015.656-.031.781-.031.078 0 .219 0 .438.016.078 0 .28 0 .484.015v-.297l-.469-.03c-.343-.017-.375-.095-.375-.72v-6.14l-.078-.078c-.453.171-.797.25-1.594.359v.281h.579c.171 0 .25.11.25.407Zm0 2.157c0 .64-.032.75-.157.984-.281.469-.781.766-1.265.766-.891 0-1.532-.844-1.532-2.031 0-1.079.547-1.72 1.47-1.72.39 0 .796.126 1.14.36.219.14.344.281.344.36Zm0 0" style="stroke:none"/></symbol><symbol id="ay" overflow="visible"><path d="M.188-3.984h.374c.407 0 .438.062.438.718v2.25c0 .625-.031.704-.375.72l-.469.03v.297C1.141 0 1.172 0 1.453 0 1.734 0 2 .016 2.656.031v-.297l-.422-.03c-.343-.017-.375-.095-.375-.72v-2.109c0-.453.672-.938 1.282-.938.546 0 .921.5.921 1.266v1.781c0 .625-.03.704-.375.72l-.468.03v.297C4.234 0 4.234 0 4.484 0c.266 0 .266 0 1.282.031v-.297l-.47-.03c-.343-.017-.374-.095-.374-.72v-2.109c0-.453.656-.938 1.266-.938.562 0 .937.5.937 1.266V.031C7.735 0 7.75 0 7.922 0c.125 0 .125 0 .906.031v-.297l-.484-.03c-.344-.017-.375-.095-.375-.72v-2.062c0-.985-.578-1.594-1.516-1.594-.36 0-.656.094-.844.25l-.765.672c-.328-.656-.735-.922-1.438-.922-.375 0-.672.094-.844.25l-.703.64v-.859l-.093-.03a6.345 6.345 0 0 1-1.579.405Zm0 0" style="stroke:none"/></symbol><symbol id="az" overflow="visible"><path d="M.078-6.594h.563c.187 0 .25.11.25.407v5.171c0 .625-.032.704-.375.72l-.454.03v.297C.75.016 1.032 0 1.313 0c.297 0 .579.016 1.266.031v-.297l-.453-.03c-.344-.017-.375-.095-.375-.72v-2.109c0-.453.672-.938 1.281-.938.688 0 1.125.5 1.125 1.266V.031C4.781 0 4.796 0 4.97 0c.14 0 .14 0 .843.031v-.297l-.421-.03c-.344-.017-.375-.079-.375-.72v-1.921c0-1.172-.563-1.735-1.688-1.735-.39 0-.594.063-.812.25l-.766.656v-3.39l-.094-.078c-.453.171-.781.25-1.578.359Zm0 0" style="stroke:none"/></symbol><symbol id="aA" overflow="visible"><path d="M2.078-1.219c-.281.078-.469.14-1 .297C1-.172.75.484.156 1.438l.14.109.423-.188c.828-1.046 1.203-1.671 1.5-2.453Zm0 0" style="stroke:none"/></symbol><symbol id="aB" overflow="visible"><path d="m1.516-7.156-.079-.078c-.453.171-.78.25-1.593.359v.281h.578c.172 0 .25.11.25.407v4.656c0 .625-.016.89-.078 1.593L.75.126l.406-.36c.407.25.766.36 1.313.36.39 0 .656-.078.875-.219l1.015-.719c.438-.328.797-1.156.797-1.875 0-1.156-.765-1.984-1.828-1.984-.484 0-.984.172-1.25.438l-.562.562Zm0 4.078c0-.125.109-.313.265-.485a1.561 1.561 0 0 1 1.11-.468c.843 0 1.39.687 1.39 1.75 0 1.11-.61 1.89-1.484 1.89-.516 0-1.281-.312-1.281-.53Zm0 0" style="stroke:none"/></symbol><symbol id="aC" overflow="visible"><path d="M.422-1.422c0 .688-.031.984-.125 1.375.531.172.937.25 1.406.25C3.031.203 3.97-.5 3.97-1.469c0-.312-.094-.547-.281-.75-.266-.25-.594-.36-1.5-.531-.829-.156-1.094-.36-1.094-.813 0-.5.343-.78.968-.78.672 0 1.204.343 1.204.812v.234h.28c0-.578.017-.812.048-1.125-.531-.187-.906-.25-1.313-.25-1.187 0-1.906.547-1.906 1.438 0 .484.219.828.688 1.03.28.126.812.282 1.5.423.468.11.656.312.656.687 0 .547-.5.922-1.235.922C1.25-.172.72-.516.72-1.016v-.406Zm0 0" style="stroke:none"/></symbol><symbol id="aD" overflow="visible"><path d="M3.469-7.14A1.083 1.083 0 0 0 3-7.25c-.328 0-.688.156-.906.406l-.594.657c-.297.328-.422.78-.422 1.437v.422l-.703.312v.22l.703-.048v2.828c0 .625-.031.704-.375.72l-.469.03v.297C1.25 0 1.25 0 1.5 0s.25 0 1.266.031v-.297l-.454-.03c-.359-.017-.39-.095-.39-.72v-2.828h1.266l.078-.515-1.344.03v-.843c0-1.14.14-1.422.719-1.422.28 0 .453.063.703.282l.125-.063Zm0 0" style="stroke:none"/></symbol><symbol id="aE" overflow="visible"><path d="M4.188-4.672c-.829 1.906-.985 2.234-1.61 3.64l-.86-2.75c-.015-.093-.03-.171-.03-.25 0-.155.125-.234.39-.25l.406-.015v-.281c-1.015.031-1.015.031-1.218.031-.204 0-.204 0-1.204-.031v.281l.282.016c.281.031.422.218.672 1L2.046.063h.485l1-2.282c.047-.125.156-.36.313-.703l.203-.422L5.437.062h.47c.062-.203.14-.437.234-.656.203-.578.421-1.203.453-1.265l.703-1.547c.297-.672.422-.844.64-.875l.266-.016v-.281c-.828.031-.828.031-1 .031-.156 0-.156 0-.984-.031v.281l.343.016c.25.015.391.14.391.312 0 .11-.016.235-.062.36l-.516 1.39c-.078.219-.156.422-.484 1.235L4.719-3.875c-.14-.328-.203-.531-.297-.797Zm0 0" style="stroke:none"/></symbol><symbol id="aF" overflow="visible"><path d="M4.047-3.094c0-.469.062-.875.14-1.234-.406-.234-.75-.344-1.171-.344-.485 0-1.063.188-1.672.563C.64-3.672.266-2.97.266-2.094.266-.75 1.234.203 2.594.203c.531 0 1.281-.187 1.39-.344l.204-.312-.094-.156c-.375.203-.703.296-1.063.296-1.125 0-1.875-.859-1.875-2.187 0-1.063.516-1.656 1.422-1.656.453 0 .938.203 1.125.453l.063.61Zm0 0" style="stroke:none"/></symbol><symbol id="aG" overflow="visible"><path d="M3.016-.86A6.502 6.502 0 0 1 2.5-1.952l-.656-1.672a1.387 1.387 0 0 1-.094-.422c0-.14.11-.219.344-.234l.39-.016v-.281c-.984.031-.984.031-1.187.031-.188 0-.188 0-1.172-.031v.281l.172.016c.266.031.39.14.531.5l1.11 2.61c.28.671.39.905.578 1.405l-.235.61c-.328.844-.734 1.312-1.11 1.312-.171 0-.343-.078-.515-.234h-.14l-.235.75c.188.094.344.156.547.156.672 0 1.11-.36 1.5-1.234l2.063-4.672c.406-.906.593-1.172.843-1.203l.297-.016v-.281c-.812.031-.812.031-.968.031-.172 0-.172 0-.97-.031v.281l.266.016c.282.031.422.11.422.25a.644.644 0 0 1-.062.265Zm0 0" style="stroke:none"/></symbol><symbol id="aH" overflow="visible"><path d="M2.828-4.672c-1.484 0-2.5 1.016-2.5 2.516 0 1.406.906 2.36 2.203 2.36C4.11.203 5.22-.876 5.22-2.36c0-1.344-1-2.313-2.39-2.313Zm-.172.328c.922 0 1.625 1 1.625 2.344 0 1.156-.531 1.875-1.343 1.875-1 0-1.672-.969-1.672-2.375 0-1.203.484-1.844 1.39-1.844Zm0 0" style="stroke:none"/></symbol><symbol id="aI" overflow="visible"><path d="M1-3.813v2.876C1-.204 1.328.125 2.11.125c.234 0 .484-.063.546-.125l.485-.531L3-.703c-.25.14-.406.187-.594.187-.39 0-.562-.187-.562-.687v-2.61H3.14l.093-.53-1.39.062v-.39c0-.407.031-.766.11-1.407l-.11-.11c-.25.141-.547.282-.875.375.031.297.047.485.047.782v.703l-.797.344v.218Zm0 0" style="stroke:none"/></symbol><symbol id="aJ" overflow="visible"><path d="M.078-6.594h.563c.187 0 .25.11.25.407v5.171c0 .625-.032.704-.375.72l-.454.03v.297C.75.016 1.032 0 1.313 0c.297 0 .579.016 1.266.031v-.297l-.453-.03c-.344-.017-.375-.095-.375-.72v-2.109c0-.453.672-.938 1.281-.938.688 0 1.125.5 1.125 1.266V.031C4.781 0 4.796 0 4.97 0c.14 0 .14 0 .843.031v-.297l-.421-.03c-.344-.017-.375-.079-.375-.72v-1.921c0-1.172-.563-1.735-1.688-1.735-.39 0-.594.063-.812.25l-.766.656v-3.39l-.094-.078c-.453.171-.781.25-1.578.359Zm0 0" style="stroke:none"/></symbol><symbol id="aK" overflow="visible"><path d="m4.438-.703-.125-.094c-.657.375-.891.469-1.329.469-.656 0-1.203-.297-1.484-.781-.203-.329-.266-.61-.297-1.188h1.484c.704 0 1.141-.031 1.844-.14.016-.141.016-.22.016-.344 0-1.14-.75-1.89-1.89-1.89-.376 0-.813.124-1.22.359C.595-3.845.266-3.22.266-2.188c0 .624.156 1.171.421 1.546.407.532 1.094.844 1.844.844.39 0 .766-.078 1.172-.266.281-.109.485-.234.531-.296ZM3.64-2.656c-.516.015-.766.031-1.125.031-.47 0-.735-.016-1.282-.063 0-.468.032-.687.172-.953.203-.437.64-.703 1.125-.703.344 0 .61.125.797.39.219.329.281.626.313 1.298Zm0 0" style="stroke:none"/></symbol><symbol id="aL" overflow="visible"><path d="M.234-3.984H.61c.407 0 .454.062.454.718v2.25c0 .625-.032.704-.375.72l-.47.03v.297C.939.016 1.204 0 1.469 0c.204 0 .204 0 1.454.031v-.297l-.531-.03c-.47-.032-.485-.063-.485-.72v-1.718c0-.594.407-1.094.907-1.094.312 0 .515.14.687.453h.203l.094-1.188c-.11-.078-.297-.109-.469-.109-.312 0-.64.156-.844.406l-.578.657v-1.032l-.093-.03a6.345 6.345 0 0 1-1.579.405Zm0 0" style="stroke:none"/></symbol><symbol id="aM" overflow="visible"><path d="m2.922-2.531 1.437-1.656c.063-.063.188-.11.36-.11h.14v-.281h-.843l-1.25 1.75-.782-1.156c-.14-.22-.265-.36-.609-.688l-1.172.203.047.25.219.016a.754.754 0 0 1 .5.297l1.219 1.734-1.5 1.75a.434.434 0 0 1-.313.156H.203V0h.875c.063-.11.094-.156.219-.328.156-.281.312-.531.39-.61l.75-.968 1.094 1.61v.015c.094.14.172.234.25.312C4.312 0 4.312 0 4.406 0c.11 0 .11 0 .625.031v-.297l-.25-.03c-.125-.017-.234-.095-.36-.235Zm0 0" style="stroke:none"/></symbol><symbol id="aN" overflow="visible"><path d="m1.906-4.64-.093-.032a6.345 6.345 0 0 1-1.579.406v.282H.61c.407 0 .454.062.454.718v2.25c0 .625-.032.704-.375.72l-.47.03v.297C1.235 0 1.235 0 1.485 0s.25 0 1.266.031v-.297l-.469-.03c-.344-.017-.375-.095-.375-.72Zm-.468-2.204a.567.567 0 0 0-.563.547c0 .297.266.563.563.563.28 0 .562-.266.562-.563 0-.266-.281-.547-.563-.547Zm0 0" style="stroke:none"/></symbol><symbol id="aO" overflow="visible"><path d="M4.156.031C4.781 0 4.796 0 4.97 0c.14 0 .14 0 .843.031v-.297l-.421-.03c-.344-.017-.375-.079-.375-.72v-1.921c0-1.172-.563-1.735-1.688-1.735-.39 0-.594.063-.812.25l-.766.656v-.875l-.094-.03a6.345 6.345 0 0 1-1.578.405v.282h.375c.406 0 .438.062.438.718v2.25c0 .625-.032.704-.375.72l-.454.03v.297C.75.016 1.032 0 1.313 0c.297 0 .579.016 1.266.031v-.297l-.453-.03c-.344-.017-.375-.095-.375-.72v-2.109c0-.453.672-.938 1.281-.938.688 0 1.125.5 1.125 1.266Zm0 0" style="stroke:none"/></symbol><symbol id="aP" overflow="visible"><path d="M.422-1.422c0 .688-.031.984-.125 1.375.531.172.937.25 1.406.25C3.031.203 3.97-.5 3.97-1.469c0-.312-.094-.547-.281-.75-.266-.25-.594-.36-1.5-.531-.829-.156-1.094-.36-1.094-.813 0-.5.343-.78.968-.78.672 0 1.204.343 1.204.812v.234h.28c0-.578.017-.812.048-1.125-.531-.187-.906-.25-1.313-.25-1.187 0-1.906.547-1.906 1.438 0 .484.219.828.688 1.03.28.126.812.282 1.5.423.468.11.656.312.656.687 0 .547-.5.922-1.235.922C1.25-.172.72-.516.72-1.016v-.406Zm0 0" style="stroke:none"/></symbol><symbol id="aQ" overflow="visible"><path d="M.89 1.828c.72-.016.75-.016.985-.016.25 0 .297 0 .984.016l.063-.047v-.265l-.031-.047H2.5c-.281 0-.5-.063-.625-.157-.094-.093-.125-.234-.125-.562v-6.891c0-.328.031-.484.125-.562.125-.11.344-.172.625-.172h.39l.032-.047v-.25l-.063-.062c-.703.015-.734.015-.984.015-.234 0-.281 0-.984-.015l-.094.125c.062.25.094.578.094 1.343V.438c0 .671-.032.953-.094 1.265Zm0 0" style="stroke:none"/></symbol><symbol id="aT" overflow="visible"><path d="M2.484-7.234c-.718.015-.75.015-.984.015-.234 0-.297 0-.984-.015l-.063.062v.25l.047.047h.39c.266 0 .485.063.61.172.094.078.125.219.125.562 0 .032 0 .235.016.516v5.86c-.016.28-.016.468-.016.5 0 .328-.031.484-.125.578-.125.093-.344.156-.61.156H.5l-.047.047v.265l.063.047c.718-.016.734-.016.984-.016.234 0 .281 0 .984.016l.094-.125C2.516 1.47 2.516 1.156 2.5.391c0-.141 0-.266-.016-.407V-5.39c.016-.109.016-.234.016-.375 0-.78.016-1.109.078-1.343Zm0 0" style="stroke:none"/></symbol><symbol id="aU" overflow="visible"><path d="M1.266-1.11a.598.598 0 0 0-.579.579c0 .297.266.578.563.578.328 0 .61-.266.61-.578 0-.297-.282-.578-.594-.578Zm0 0" style="stroke:none"/></symbol><symbol id="aV" overflow="visible"><path d="M2.594-6.406c.031.328.031.562.031 1v4.203c0 .797-.047.875-.516.906l-.484.031v.297C2.219.016 2.578 0 3.109 0 3.641 0 4 .016 4.594.031v-.297l-.485-.03c-.468-.032-.515-.11-.515-.907v-4.203c0-.453.015-.672.047-1h1.562c.297 0 .406.093.406.328l.047.781h.313c0-.64.015-1.031.078-1.594-.734 0-1.078 0-1.36.016H2.25c-.11 0-.656 0-1.375-.016H.187c.047.563.063.954.063 1.594h.313l.046-.781c.016-.234.125-.328.407-.328Zm0 0" style="stroke:none"/></symbol><symbol id="aW" overflow="visible"><path d="M3.469-7.14A1.083 1.083 0 0 0 3-7.25c-.328 0-.688.156-.906.406l-.594.657c-.297.328-.422.78-.422 1.437v.422l-.703.312v.22l.703-.048v2.828c0 .625-.031.704-.375.72l-.469.03v.297C1.25 0 1.25 0 1.516 0c.234 0 .53.016 1.312.031v-.297l-.515-.03c-.36-.017-.391-.095-.391-.72v-2.828h1.172l.062-.515-1.234.03v-.843c0-1.14.14-1.422.719-1.422.28 0 .453.063.703.282l.125-.063Zm1.656 2.53-.094-.062c-.453.219-.984.36-1.593.422v.281h.374c.407 0 .454.078.454.735v2.218c0 .625-.032.704-.375.72l-.47.03v.297C4.439 0 4.439 0 4.689 0c.265 0 .265 0 1.28.031v-.297L5.5-.296c-.344-.017-.375-.095-.375-.72ZM4.75-6.843c-.313 0-.578.25-.578.547 0 .297.266.563.562.563a.581.581 0 0 0 .563-.563c0-.266-.266-.547-.547-.547Zm0 0" style="stroke:none"/></symbol><symbol id="aX" overflow="visible"><path d="m2.86-2.14.312-.672-.047-.047H.453l-.281.671.047.047Zm0 0" style="stroke:none"/></symbol><symbol id="aY" overflow="visible"><path d="M.094-3.984h.39c.407 0 .438.062.438.718V1.75c0 .625-.031.703-.375.719L.078 2.5v.297c1.016-.031 1.016-.031 1.266-.031.265 0 .265 0 1.281.03V2.5l-.469-.031c-.344-.016-.375-.094-.375-.719V-.125c.297.172.625.25 1.078.25.297 0 .563-.063.72-.172L4.75-.78c.406-.25.875-1.281.875-1.922 0-1.11-.938-1.969-2.11-1.969-.374 0-.75.094-.906.25l-.828.75v-.969l-.093-.03a6.29 6.29 0 0 1-1.594.405Zm1.687.937c0-.14.047-.25.172-.422.297-.375.719-.562 1.219-.562.969 0 1.578.656 1.578 1.703 0 1.11-.688 1.937-1.61 1.937-.546 0-.968-.171-1.359-.593Zm0 0" style="stroke:none"/></symbol><symbol id="aZ" overflow="visible"><path d="m3.297-.813-.063.844C3.906 0 3.906 0 4.031 0c.047 0 .313.016.75.031v-.297l-.39-.03c-.25 0-.282-.079-.282-.579v-1.813c0-1.453-.437-1.984-1.609-1.984-.438 0-.844.11-1.234.328l-.532.328v.641L1-3.297l.125-.312c.219-.47.313-.532.781-.532.953 0 1.36.36 1.39 1.266l-1.015.188C.906-2.438.328-1.97.328-1.11.328-.33.797.125 1.61.125c.172 0 .344-.031.422-.078Zm0-.421c-.297.406-.938.78-1.344.78-.406 0-.75-.358-.75-.796 0-.36.203-.719.5-.906.25-.14.813-.281 1.594-.39Zm0 0" style="stroke:none"/></symbol><symbol id="ba" overflow="visible"><path d="M.188-3.984h.374c.407 0 .438.062.438.718v2.25c0 .625-.031.704-.375.72l-.469.03v.297C1.141 0 1.172 0 1.453 0 1.734 0 2 .016 2.656.031v-.297l-.422-.03c-.343-.017-.375-.095-.375-.72v-2.109c0-.453.672-.938 1.282-.938.546 0 .921.5.921 1.266v1.781c0 .625-.03.704-.375.72l-.468.03v.297C4.234 0 4.234 0 4.484 0c.266 0 .266 0 1.282.031v-.297l-.47-.03c-.343-.017-.374-.095-.374-.72v-2.109c0-.453.656-.938 1.266-.938.562 0 .937.5.937 1.266V.031C7.735 0 7.75 0 7.922 0c.125 0 .125 0 .906.031v-.297l-.484-.03c-.344-.017-.375-.095-.375-.72v-2.062c0-.985-.578-1.594-1.516-1.594-.36 0-.656.094-.844.25l-.765.672c-.328-.656-.735-.922-1.438-.922-.375 0-.672.094-.844.25l-.703.64v-.859l-.093-.03a6.345 6.345 0 0 1-1.579.405Zm0 0" style="stroke:none"/></symbol><symbol id="bb" overflow="visible"><path d="m1.516-7.156-.079-.078c-.453.171-.78.25-1.593.359v.281h.578c.172 0 .25.11.25.407v4.656c0 .625-.016.89-.078 1.593L.75.126l.406-.36c.407.25.766.36 1.313.36.39 0 .656-.078.875-.219l1.015-.719c.438-.328.797-1.156.797-1.875 0-1.156-.765-1.984-1.828-1.984-.484 0-.984.172-1.25.438l-.562.562Zm0 4.078c0-.125.109-.313.265-.485a1.561 1.561 0 0 1 1.11-.468c.843 0 1.39.687 1.39 1.75 0 1.11-.61 1.89-1.484 1.89-.516 0-1.281-.312-1.281-.53Zm0 0" style="stroke:none"/></symbol><symbol id="bc" overflow="visible"><path d="M.234-6.594h.563c.187 0 .265.11.265.407v5.171c0 .625-.03.704-.375.72l-.468.03v.297C1.234 0 1.234 0 1.484 0s.25 0 1.266.031v-.297l-.469-.03c-.344-.017-.375-.095-.375-.72v-6.14l-.093-.078c-.438.171-.782.25-1.579.359Zm0 0" style="stroke:none"/></symbol><symbol id="bd" overflow="visible"><path d="M3.016-.86A6.502 6.502 0 0 1 2.5-1.952l-.656-1.672a1.387 1.387 0 0 1-.094-.422c0-.14.11-.219.344-.234l.39-.016v-.281c-.984.031-.984.031-1.187.031-.188 0-.188 0-1.172-.031v.281l.172.016c.266.031.39.14.531.5l1.11 2.61c.28.671.39.905.578 1.405l-.235.61c-.328.844-.734 1.312-1.11 1.312-.171 0-.343-.078-.515-.234h-.14l-.235.75c.188.094.344.156.547.156.672 0 1.11-.36 1.5-1.234l2.063-4.672c.406-.906.593-1.172.843-1.203l.297-.016v-.281c-.812.031-.812.031-.968.031-.172 0-.172 0-.97-.031v.281l.266.016c.282.031.422.11.422.25a.644.644 0 0 1-.062.265Zm0 0" style="stroke:none"/></symbol><symbol id="be" overflow="visible"><path d="M2.844-1.797v.734c0 .61-.11.75-.61.766l-.625.031v.297C2.953 0 2.953 0 3.203 0c.235 0 .235 0 1.594.031v-.297l-.484-.03c-.5-.032-.61-.157-.61-.766v-.735c.594 0 .813 0 1.094.031v-.703c-.484.031-.672.031-.828.031h-.266v-1.39c0-1.781.016-2.625.063-3.047l-.125-.047-.75.266L.016-2.031l.109.234Zm0-.64H.656l2.188-3.516Zm0 0" style="stroke:none"/></symbol><symbol id="bf" overflow="visible"><path d="M2.672-6.875c-1.578 0-2.375 1.234-2.375 3.64 0 1.172.203 2.172.562 2.672.36.485.922.766 1.563.766 1.531 0 2.297-1.297 2.297-3.86 0-2.171-.657-3.218-2.047-3.218Zm-.188.36c.985 0 1.391.968 1.391 3.359 0 2.125-.39 3-1.328 3-.985 0-1.406-1-1.406-3.438 0-2.094.375-2.922 1.343-2.922Zm0 0" style="stroke:none"/></symbol><symbol id="bg" overflow="visible"><path d="M2.063-6.875c-.97 0-1.672.703-1.672 1.672 0 .89.671 1.531 1.562 1.531.953 0 1.656-.703 1.656-1.656 0-.875-.671-1.547-1.546-1.547Zm-.032.234c.516 0 .844.516.844 1.329 0 .859-.36 1.421-.906 1.421-.532 0-.844-.5-.844-1.359 0-.844.344-1.39.906-1.39Zm4.563 3.438c-.953 0-1.657.703-1.657 1.672C4.938-.641 5.595 0 6.5 0c.938 0 1.64-.703 1.64-1.672 0-.875-.656-1.531-1.546-1.531Zm-.016.234c.516 0 .828.5.828 1.328 0 .86-.343 1.407-.89 1.407-.547 0-.844-.485-.844-1.344 0-.86.344-1.39.906-1.39ZM2.531.203 6.25-7.063h-.406L2.125.204Zm0 0" style="stroke:none"/></symbol><symbol id="bh" overflow="visible"><path d="M2.078-1.219c-.281.078-.469.14-1 .297C1-.172.75.484.156 1.438l.14.109.423-.188c.828-1.046 1.203-1.671 1.5-2.453Zm0 0" style="stroke:none"/></symbol><symbol id="bi" overflow="visible"><path d="M1.297-6.031c1.297.047 1.875.047 3.094.047l.046-.047c-.015-.172-.015-.266-.015-.39 0-.141 0-.22.016-.391l-.047-.063a26.38 26.38 0 0 1-1.766.063c-.563 0-1.016-.016-1.766-.063l-.062.063c.015.609.031 1.046.031 1.359 0 .844-.031 1.797-.062 2.25l.203.047c.469-.469.75-.61 1.25-.61.969 0 1.578.688 1.578 1.766 0 1.11-.656 1.75-1.75 1.75C1.5-.25.984-.422.844-.688L.375-1.5l-.25.14c.234.563.36.876.5 1.313.281.156.688.25 1.125.25.688 0 1.406-.297 1.969-.766.625-.546.937-1.218.937-1.953 0-1.14-.812-1.937-1.968-1.937-.5 0-.86.14-1.485.5Zm0 0" style="stroke:none"/></symbol><symbol id="bj" overflow="visible"><path d="M4.188-4.36c-.579-.234-.86-.312-1.22-.312-.265 0-.515.063-.765.188l-.89.453C.734-3.734.359-3 .359-2.156c0 .797.266 1.453.766 1.86.344.28.828.421 1.484.421.204 0 .438-.047.485-.078l1.125-.938-.047.922c.5-.015.656-.031.781-.031.078 0 .219 0 .438.016.078 0 .28 0 .484.015v-.297l-.469-.03c-.343-.017-.375-.095-.375-.72v-6.14l-.078-.078c-.453.171-.797.25-1.594.359v.281h.579c.171 0 .25.11.25.407Zm0 2.157c0 .64-.032.75-.157.984-.281.469-.781.766-1.265.766-.891 0-1.532-.844-1.532-2.031 0-1.079.547-1.72 1.47-1.72.39 0 .796.126 1.14.36.219.14.344.281.344.36Zm0 0" style="stroke:none"/></symbol><symbol id="bk" overflow="visible"><path d="M.688-5.531H.78l1.313-.578c.015-.016.015-.016.031-.016.063 0 .078.094.078.328v4.844c0 .515-.11.625-.656.656l-.578.031v.297C2.53 0 2.53 0 2.656 0S3 0 3.344.016c.125 0 .484 0 .906.015v-.297l-.531-.03c-.563-.032-.656-.142-.656-.657v-5.922l-.141-.047c-.672.344-1.39.64-2.313.953Zm0 0" style="stroke:none"/></symbol><symbol id="bl" overflow="visible"><path d="M3.469-7.14A1.083 1.083 0 0 0 3-7.25c-.328 0-.688.156-.906.406l-.594.657c-.297.328-.422.78-.422 1.437v.422l-.703.312v.22l.703-.048v2.828c0 .625-.031.704-.375.72l-.469.03v.297C1.25 0 1.25 0 1.5 0s.25 0 1.266.031v-.297l-.454-.03c-.359-.017-.39-.095-.39-.72v-2.828h1.266l.078-.515-1.344.03v-.843c0-1.14.14-1.422.719-1.422.28 0 .453.063.703.282l.125-.063Zm0 0" style="stroke:none"/></symbol><symbol id="bm" overflow="visible"><path d="M4.188-4.672c-.829 1.906-.985 2.234-1.61 3.64l-.86-2.75c-.015-.093-.03-.171-.03-.25 0-.155.125-.234.39-.25l.406-.015v-.281c-1.015.031-1.015.031-1.218.031-.204 0-.204 0-1.204-.031v.281l.282.016c.281.031.422.218.672 1L2.046.063h.485l1-2.282c.047-.125.156-.36.313-.703l.203-.422L5.437.062h.47c.062-.203.14-.437.234-.656.203-.578.421-1.203.453-1.265l.703-1.547c.297-.672.422-.844.64-.875l.266-.016v-.281c-.828.031-.828.031-1 .031-.156 0-.156 0-.984-.031v.281l.343.016c.25.015.391.14.391.312 0 .11-.016.235-.062.36l-.516 1.39c-.078.219-.156.422-.484 1.235L4.719-3.875c-.14-.328-.203-.531-.297-.797Zm0 0" style="stroke:none"/></symbol><symbol id="bn" overflow="visible"><path d="m5.266-3.766.265-.406-.047-.125-1.437.047c-.375-.313-.75-.422-1.25-.422-.438 0-.953.14-1.375.375-.563.313-.86.813-.86 1.422 0 .734.47 1.234 1.22 1.313l-.813.609c-.094.156-.14.281-.14.437 0 .282.171.438.671.579L.61.53C.468.61.327.984.327 1.281c0 .907.906 1.547 2.188 1.547 1.53 0 2.75-.953 2.75-2.172 0-.719-.5-1.219-1.204-1.219H2.438c-.53 0-.765-.109-.765-.39 0-.125.078-.235.344-.453a.361.361 0 0 0 .109-.11c.11.016.172.016.25.016.438 0 .969-.188 1.39-.469.454-.328.688-.734.688-1.265 0-.188-.031-.329-.11-.532Zm-2.829-.578c.688 0 1.157.563 1.157 1.407 0 .656-.422 1.109-1.047 1.109-.672 0-1.14-.531-1.14-1.297 0-.766.374-1.219 1.03-1.219ZM2.922.141c1.14 0 1.531.234 1.531.875 0 .859-.797 1.5-1.86 1.5-.89 0-1.5-.516-1.5-1.25 0-.454.266-.86.673-1.032.156-.078.453-.093 1.156-.093Zm0 0" style="stroke:none"/></symbol><symbol id="bo" overflow="visible"><path d="M4.047-3.094c0-.469.062-.875.14-1.234-.406-.234-.75-.344-1.171-.344-.485 0-1.063.188-1.672.563C.64-3.672.266-2.97.266-2.094.266-.75 1.234.203 2.594.203c.531 0 1.281-.187 1.39-.344l.204-.312-.094-.156c-.375.203-.703.296-1.063.296-1.125 0-1.875-.859-1.875-2.187 0-1.063.516-1.656 1.422-1.656.453 0 .938.203 1.125.453l.063.61Zm0 0" style="stroke:none"/></symbol><symbol id="bp" overflow="visible"><path d="M5.469-4.297v-.281c-.61.016-.782.031-.953.031-.157 0-.344-.016-.954-.031v.281l.422.016c.157.015.235.11.235.265 0 .157-.063.422-.188.72L3.61-2.235c-.125.296-.25.562-.64 1.39l-1.203-2.86a1.009 1.009 0 0 1-.094-.39c0-.11.094-.172.25-.187l.5-.016v-.281c-.985.031-.985.031-1.188.031-.187 0-.671-.016-1.171-.031v.281l.343.016c.156.031.203.078.313.328L2.469.062h.5c.062-.156.172-.421.172-.437.109-.297.234-.64.25-.64L4.594-3.61c.218-.47.36-.641.562-.672Zm0 0" style="stroke:none"/></symbol><symbol id="bq" overflow="visible"><path d="m5.11-4.64-.094-.032a6.345 6.345 0 0 1-1.579.406v.282h.376c.406 0 .437.062.437.718v1.625c0 .22-.14.5-.375.735-.281.281-.61.422-1 .422-.36 0-.64-.11-.797-.297-.156-.172-.219-.469-.219-.906v-2.954l-.093-.03a6.345 6.345 0 0 1-1.579.405v.282h.376c.406 0 .437.062.437.718v1.688c0 .687.063 1 .25 1.25.219.297.61.453 1.188.453.453 0 .859-.14 1.14-.39l.672-.626c0 .297 0 .454-.031.922C4.89 0 4.906 0 5.062 0c.141 0 .141 0 .844.031v-.297l-.422-.03c-.343-.017-.375-.079-.375-.72Zm0 0" style="stroke:none"/></symbol><symbol id="br" overflow="visible"><path d="M5.266-7.234h-.61L.891 1.187H1.5Zm0 0" style="stroke:none"/></symbol><symbol id="aR" overflow="visible"><path d="M.422-4.969h.312l.188-.547c.11-.343.734-.687 1.25-.687.656 0 1.172.531 1.172 1.156 0 .75-.578 1.375-1.297 1.375-.078 0-.188 0-.313-.015l-.156-.016-.11.531.063.063c.375-.172.578-.22.844-.22.828 0 1.297.532 1.297 1.438 0 1.016-.594 1.688-1.531 1.688-.454 0-.86-.156-1.157-.438-.25-.218-.375-.453-.562-.984l-.266.094C.36-.921.437-.563.5-.063c.531.188.969.266 1.328.266.797 0 1.719-.453 2.266-1.125.343-.406.515-.844.515-1.312 0-.485-.203-.891-.562-1.141-.25-.188-.484-.266-.969-.36.797-.609 1.094-1.078 1.094-1.656 0-.89-.75-1.484-1.844-1.484-.687 0-1.125.203-1.61.672Zm0 0" style="stroke:none"/></symbol><symbol id="aS" overflow="visible"><path d="M1.672-3.438c-.406.188-.578.297-.797.5-.375.391-.578.829-.578 1.36C.297-.562 1.125.203 2.25.203c1.297 0 2.375-1.016 2.375-2.25 0-.797-.375-1.234-1.5-1.75.906-.625 1.219-1.031 1.219-1.64 0-.86-.703-1.438-1.766-1.438-1.187 0-2.047.766-2.047 1.813 0 .671.266 1.062 1.14 1.625Zm1.156.5c.625.282 1.016.766 1.016 1.297 0 .844-.64 1.5-1.438 1.5C1.562-.14 1-.734 1-1.67c0-.72.297-1.173 1.031-1.626Zm-.61-1.28c-.624-.313-.937-.704-.937-1.204 0-.656.469-1.11 1.188-1.11s1.203.485 1.203 1.204c0 .578-.25.969-.906 1.375Zm0 0" style="stroke:none"/></symbol></defs><g style="fill:#000;fill-opacity:1"><use xlink:href="#a" x="23.653" y="7.921"/><use xlink:href="#b" x="29.637" y="7.921"/><use xlink:href="#c" x="34.533" y="7.921"/><use xlink:href="#d" x="38.881" y="7.921"/></g><g style="fill:#000;fill-opacity:1"><use xlink:href="#e" x="47.069" y="7.921"/><use xlink:href="#f" x="52.416" y="7.921"/></g><g style="fill:#000;fill-opacity:1"><use xlink:href="#g" x="58.164" y="7.921"/><use xlink:href="#d" x="61.357" y="7.921"/><use xlink:href="#h" x="67.057" y="7.921"/></g><g style="fill:#000;fill-opacity:1"><use xlink:href="#g" x="74.225" y="7.921"/><use xlink:href="#d" x="77.418" y="7.921"/><use xlink:href="#i" x="83.118" y="7.921"/></g><g style="fill:#000;fill-opacity:1"><use xlink:href="#h" x="86.81" y="7.921"/><use xlink:href="#h" x="91.501" y="7.921"/></g><g style="fill:#000;fill-opacity:1"><use xlink:href="#j" x="98.679" y="7.921"/><use xlink:href="#i" x="104.604" y="7.921"/><use xlink:href="#k" x="108.472" y="7.921"/><use xlink:href="#g" x="112.625" y="7.921"/><use xlink:href="#l" x="115.817" y="7.921"/><use xlink:href="#m" x="119.078" y="7.921"/><use xlink:href="#d" x="124.964" y="7.921"/><use xlink:href="#b" x="130.664" y="7.921"/><use xlink:href="#k" x="135.56" y="7.921"/><use xlink:href="#h" x="139.713" y="7.921"/></g><g style="fill:#000;fill-opacity:1"><use xlink:href="#n" x="146.881" y="7.921"/><use xlink:href="#h" x="155.529" y="7.921"/><use xlink:href="#g" x="160.22" y="7.921"/><use xlink:href="#b" x="163.412" y="7.921"/><use xlink:href="#o" x="168.309" y="7.921"/><use xlink:href="#e" x="173.725" y="7.921"/><use xlink:href="#p" x="179.072" y="7.921"/><use xlink:href="#q" x="181.921" y="7.921"/><use xlink:href="#g" x="184.771" y="7.921"/><use xlink:href="#h" x="187.964" y="7.921"/><use xlink:href="#k" x="192.655" y="7.921"/></g><g style="fill:#000;fill-opacity:1"><use xlink:href="#e" x="199.295" y="7.921"/><use xlink:href="#f" x="204.642" y="7.921"/></g><g style="fill:#000;fill-opacity:1"><use xlink:href="#b" x="210.39" y="7.921"/><use xlink:href="#k" x="215.287" y="7.921"/><use xlink:href="#m" x="219.439" y="7.921"/><use xlink:href="#b" x="225.325" y="7.921"/><use xlink:href="#i" x="230.222" y="7.921"/><use xlink:href="#g" x="234.09" y="7.921"/><use xlink:href="#b" x="237.283" y="7.921"/><use xlink:href="#n" x="242.179" y="7.921"/><use xlink:href="#h" x="250.827" y="7.921"/></g><g style="fill:#000;fill-opacity:1"><use xlink:href="#d" x="258.005" y="7.921"/><use xlink:href="#b" x="263.705" y="7.921"/><use xlink:href="#k" x="268.601" y="7.921"/></g><g style="fill:#000;fill-opacity:1"><use xlink:href="#o" x="275.231" y="7.921"/><use xlink:href="#h" x="280.647" y="7.921"/><use xlink:href="#h" x="285.338" y="7.921"/><use xlink:href="#r" x="290.029" y="7.921"/></g><g style="fill:#000;fill-opacity:1"><use xlink:href="#k" x="298.216" y="7.921"/><use xlink:href="#g" x="302.368" y="7.921"/><use xlink:href="#s" x="305.561" y="7.921"/><use xlink:href="#t" x="311.466" y="7.921"/><use xlink:href="#q" x="317.45" y="7.921"/><use xlink:href="#h" x="320.3" y="7.921"/><use xlink:href="#t" x="324.991" y="7.921"/></g><g style="fill:#000;fill-opacity:1"><use xlink:href="#u" x="333.462" y="7.921"/><use xlink:href="#q" x="341.63" y="7.921"/><use xlink:href="#g" x="344.479" y="7.921"/><use xlink:href="#d" x="347.672" y="7.921"/></g><use xlink:href="#i" x="355.859" y="7.921" style="fill:#000;fill-opacity:1"/><g style="fill:#000;fill-opacity:1"><use xlink:href="#h" x="359.541" y="7.921"/><use xlink:href="#v" x="364.232" y="7.921"/><use xlink:href="#b" x="369.677" y="7.921"/><use xlink:href="#i" x="374.574" y="7.921"/></g><use xlink:href="#t" x="378.266" y="7.921" style="fill:#000;fill-opacity:1"/><g style="fill:#000;fill-opacity:1"><use xlink:href="#g" x="386.737" y="7.921"/><use xlink:href="#e" x="389.93" y="7.921"/></g><g style="fill:#000;fill-opacity:1"><use xlink:href="#w" x="2.394" y="20.474"/><use xlink:href="#x" x="5.273" y="20.474"/><use xlink:href="#y" x="8.498" y="20.474"/></g><g style="fill:#000;fill-opacity:1"><use xlink:href="#w" x="15.176" y="20.474"/><use xlink:href="#z" x="18.054" y="20.474"/><use xlink:href="#A" x="26.79" y="20.474"/><use xlink:href="#B" x="32.735" y="20.474"/><use xlink:href="#C" x="37.682" y="20.474"/><use xlink:href="#x" x="42.074" y="20.474"/><use xlink:href="#y" x="45.299" y="20.474"/></g><g style="fill:#000;fill-opacity:1"><use xlink:href="#D" x="51.987" y="20.474"/><use xlink:href="#E" x="57.388" y="20.474"/></g><g style="fill:#000;fill-opacity:1"><use xlink:href="#E" x="65.629" y="20.474"/><use xlink:href="#F" x="71.387" y="20.474"/><use xlink:href="#G" x="76.126" y="20.474"/><use xlink:href="#H" x="82.091" y="20.474"/></g><g style="fill:#000;fill-opacity:1"><use xlink:href="#D" x="85.821" y="20.474"/><use xlink:href="#I" x="91.222" y="20.474"/><use xlink:href="#D" x="94.101" y="20.474"/><use xlink:href="#J" x="99.502" y="20.474"/><use xlink:href="#w" x="105.003" y="20.474"/><use xlink:href="#C" x="107.882" y="20.474"/></g><g style="fill:#000;fill-opacity:1"><use xlink:href="#K" x="114.767" y="20.474"/><use xlink:href="#G" x="118.061" y="20.474"/><use xlink:href="#E" x="124.027" y="20.474"/><use xlink:href="#C" x="129.784" y="20.474"/><use xlink:href="#x" x="134.177" y="20.474"/><use xlink:href="#w" x="137.402" y="20.474"/><use xlink:href="#D" x="140.281" y="20.474"/><use xlink:href="#E" x="145.682" y="20.474"/><use xlink:href="#L" x="151.44" y="20.474"/></g><g style="fill:#000;fill-opacity:1"><use xlink:href="#M" x="157" y="20.474"/><use xlink:href="#y" x="164.696" y="20.474"/><use xlink:href="#A" x="168.891" y="20.474"/><use xlink:href="#B" x="174.836" y="20.474"/><use xlink:href="#H" x="179.783" y="20.474"/><use xlink:href="#x" x="183.691" y="20.474"/><use xlink:href="#B" x="186.916" y="20.474"/><use xlink:href="#z" x="191.862" y="20.474"/><use xlink:href="#F" x="200.597" y="20.474"/></g><g style="fill:#000;fill-opacity:1"><use xlink:href="#w" x="207.819" y="20.474"/><use xlink:href="#y" x="210.698" y="20.474"/></g><g style="fill:#000;fill-opacity:1"><use xlink:href="#z" x="217.376" y="20.474"/><use xlink:href="#F" x="226.111" y="20.474"/><use xlink:href="#x" x="230.85" y="20.474"/><use xlink:href="#B" x="234.075" y="20.474"/><use xlink:href="#N" x="239.021" y="20.474"/><use xlink:href="#D" x="244.492" y="20.474"/><use xlink:href="#I" x="249.894" y="20.474"/><use xlink:href="#w" x="252.772" y="20.474"/><use xlink:href="#O" x="255.651" y="20.474"/><use xlink:href="#F" x="260.598" y="20.474"/><use xlink:href="#P" x="265.336" y="20.474"/></g><g style="fill:#000;fill-opacity:1"><use xlink:href="#w" x="273.874" y="20.474"/><use xlink:href="#E" x="276.753" y="20.474"/></g><g style="fill:#000;fill-opacity:1"><use xlink:href="#x" x="284.993" y="20.474"/><use xlink:href="#Q" x="288.219" y="20.474"/><use xlink:href="#F" x="293.976" y="20.474"/></g><g style="fill:#000;fill-opacity:1"><use xlink:href="#w" x="301.208" y="20.474"/><use xlink:href="#E" x="304.087" y="20.474"/><use xlink:href="#x" x="309.844" y="20.474"/><use xlink:href="#F" x="313.069" y="20.474"/><use xlink:href="#y" x="317.808" y="20.474"/><use xlink:href="#x" x="322.003" y="20.474"/><use xlink:href="#w" x="325.228" y="20.474"/><use xlink:href="#E" x="328.107" y="20.474"/><use xlink:href="#F" x="333.864" y="20.474"/></g><g style="fill:#000;fill-opacity:1"><use xlink:href="#w" x="341.086" y="20.474"/><use xlink:href="#E" x="343.965" y="20.474"/><use xlink:href="#x" x="349.722" y="20.474"/><use xlink:href="#D" x="352.948" y="20.474"/></g><g style="fill:#000;fill-opacity:1"><use xlink:href="#B" x="360.842" y="20.474"/><use xlink:href="#y" x="365.788" y="20.474"/><use xlink:href="#A" x="369.983" y="20.474"/><use xlink:href="#B" x="375.929" y="20.474"/><use xlink:href="#H" x="380.875" y="20.474"/><use xlink:href="#x" x="384.783" y="20.474"/><use xlink:href="#w" x="388.008" y="20.474"/><use xlink:href="#C" x="390.887" y="20.474"/></g><g style="fill:#000;fill-opacity:1"><use xlink:href="#R" x="2.394" y="33.027"/><use xlink:href="#S" x="7.316" y="33.027"/><use xlink:href="#T" x="11.686" y="33.027"/><use xlink:href="#U" x="14.55" y="33.027"/><use xlink:href="#V" x="20.564" y="33.027"/></g><g style="fill:#000;fill-opacity:1"><use xlink:href="#R" x="25.525" y="33.027"/><use xlink:href="#W" x="30.447" y="33.027"/></g><g style="fill:#000;fill-opacity:1"><use xlink:href="#X" x="38.666" y="33.027"/><use xlink:href="#Y" x="43.38" y="33.027"/><use xlink:href="#S" x="48.459" y="33.027"/><use xlink:href="#T" x="52.83" y="33.027"/><use xlink:href="#Z" x="55.694" y="33.027"/><use xlink:href="#R" x="58.903" y="33.027"/><use xlink:href="#Z" x="63.824" y="33.027"/><use xlink:href="#aa" x="67.033" y="33.027"/><use xlink:href="#ab" x="72.408" y="33.027"/><use xlink:href="#ac" x="76.296" y="33.027"/></g><g style="fill:#000;fill-opacity:1"><use xlink:href="#W" x="84.268" y="33.027"/><use xlink:href="#X" x="89.997" y="33.027"/><use xlink:href="#ad" x="94.712" y="33.027"/><use xlink:href="#ab" x="100.647" y="33.027"/></g><g style="fill:#000;fill-opacity:1"><use xlink:href="#aa" x="104.358" y="33.027"/><use xlink:href="#Z" x="109.732" y="33.027"/><use xlink:href="#ab" x="112.941" y="33.027"/><use xlink:href="#R" x="116.829" y="33.027"/><use xlink:href="#W" x="121.751" y="33.027"/><use xlink:href="#ae" x="127.479" y="33.027"/><use xlink:href="#af" x="131.653" y="33.027"/><use xlink:href="#T" x="140.344" y="33.027"/><use xlink:href="#Z" x="143.209" y="33.027"/><use xlink:href="#Z" x="146.417" y="33.027"/><use xlink:href="#X" x="149.626" y="33.027"/><use xlink:href="#ab" x="154.341" y="33.027"/><use xlink:href="#ag" x="158.229" y="33.027"/></g><g style="fill:#000;fill-opacity:1"><use xlink:href="#ah" x="163.19" y="33.027"/><use xlink:href="#ai" x="169.106" y="33.027"/><use xlink:href="#X" x="174.834" y="33.027"/><use xlink:href="#W" x="179.549" y="33.027"/><use xlink:href="#ac" x="185.278" y="33.027"/><use xlink:href="#aj" x="190.751" y="33.027"/><use xlink:href="#R" x="193.615" y="33.027"/><use xlink:href="#aj" x="198.536" y="33.027"/><use xlink:href="#R" x="201.401" y="33.027"/><use xlink:href="#W" x="206.322" y="33.027"/><use xlink:href="#T" x="212.051" y="33.027"/><use xlink:href="#W" x="214.915" y="33.027"/><use xlink:href="#X" x="220.644" y="33.027"/><use xlink:href="#V" x="225.359" y="33.027"/></g><g style="fill:#000;fill-opacity:1"><use xlink:href="#ak" x="230.32" y="33.027"/><use xlink:href="#ai" x="238.529" y="33.027"/><use xlink:href="#T" x="244.257" y="33.027"/><use xlink:href="#S" x="247.122" y="33.027"/><use xlink:href="#ai" x="251.492" y="33.027"/></g><g style="fill:#000;fill-opacity:1"><use xlink:href="#T" x="259.711" y="33.027"/><use xlink:href="#ae" x="262.575" y="33.027"/></g><g style="fill:#000;fill-opacity:1"><use xlink:href="#T" x="269.249" y="33.027"/><use xlink:href="#W" x="272.113" y="33.027"/><use xlink:href="#al" x="277.842" y="33.027"/><use xlink:href="#aa" x="283.403" y="33.027"/><use xlink:href="#aj" x="288.778" y="33.027"/><use xlink:href="#al" x="291.642" y="33.027"/><use xlink:href="#X" x="297.203" y="33.027"/><use xlink:href="#U" x="301.918" y="33.027"/></g><g style="fill:#000;fill-opacity:1"><use xlink:href="#T" x="310.422" y="33.027"/><use xlink:href="#W" x="313.287" y="33.027"/></g><g style="fill:#000;fill-opacity:1"><use xlink:href="#W" x="321.515" y="33.027"/><use xlink:href="#X" x="327.244" y="33.027"/><use xlink:href="#ad" x="331.959" y="33.027"/><use xlink:href="#ab" x="337.894" y="33.027"/></g><g style="fill:#000;fill-opacity:1"><use xlink:href="#aa" x="341.605" y="33.027"/><use xlink:href="#Z" x="346.979" y="33.027"/><use xlink:href="#ab" x="350.188" y="33.027"/><use xlink:href="#R" x="354.076" y="33.027"/><use xlink:href="#W" x="358.998" y="33.027"/><use xlink:href="#ae" x="364.726" y="33.027"/><use xlink:href="#af" x="368.9" y="33.027"/><use xlink:href="#T" x="377.591" y="33.027"/><use xlink:href="#Z" x="380.456" y="33.027"/><use xlink:href="#Z" x="383.665" y="33.027"/><use xlink:href="#X" x="386.873" y="33.027"/><use xlink:href="#ab" x="391.588" y="33.027"/></g><use xlink:href="#am" x="2.394" y="45.58" style="fill:#000;fill-opacity:1"/><g style="fill:#000;fill-opacity:1"><use xlink:href="#an" x="6.221" y="45.58"/><use xlink:href="#ao" x="11.084" y="45.58"/><use xlink:href="#ap" x="16.728" y="45.58"/><use xlink:href="#aq" x="22.85" y="45.58"/><use xlink:href="#ar" x="25.804" y="45.58"/><use xlink:href="#as" x="30.88" y="45.58"/><use xlink:href="#at" x="34.19" y="45.58"/><use xlink:href="#au" x="37.144" y="45.58"/><use xlink:href="#av" x="42.687" y="45.58"/><use xlink:href="#aw" x="48.595" y="45.58"/></g><g style="fill:#000;fill-opacity:1"><use xlink:href="#ar" x="53.62" y="45.58"/><use xlink:href="#av" x="58.696" y="45.58"/><use xlink:href="#ax" x="64.605" y="45.58"/></g><g style="fill:#000;fill-opacity:1"><use xlink:href="#ay" x="73.295" y="45.58"/><use xlink:href="#an" x="82.259" y="45.58"/><use xlink:href="#as" x="87.122" y="45.58"/><use xlink:href="#az" x="90.431" y="45.58"/><use xlink:href="#ar" x="96.34" y="45.58"/><use xlink:href="#av" x="101.416" y="45.58"/><use xlink:href="#au" x="107.324" y="45.58"/><use xlink:href="#aq" x="112.867" y="45.58"/><use xlink:href="#aA" x="115.821" y="45.58"/></g><g style="fill:#000;fill-opacity:1"><use xlink:href="#as" x="120.846" y="45.58"/><use xlink:href="#az" x="124.156" y="45.58"/><use xlink:href="#an" x="130.064" y="45.58"/></g><g style="fill:#000;fill-opacity:1"><use xlink:href="#ay" x="137.414" y="45.58"/><use xlink:href="#an" x="146.378" y="45.58"/><use xlink:href="#as" x="151.241" y="45.58"/><use xlink:href="#ar" x="154.551" y="45.58"/><use xlink:href="#aB" x="159.626" y="45.58"/><use xlink:href="#au" x="165.24" y="45.58"/><use xlink:href="#aq" x="170.783" y="45.58"/><use xlink:href="#at" x="173.738" y="45.58"/><use xlink:href="#as" x="176.692" y="45.58"/><use xlink:href="#an" x="180.001" y="45.58"/><use xlink:href="#aC" x="184.864" y="45.58"/></g><g style="fill:#000;fill-opacity:1"><use xlink:href="#au" x="191.646" y="45.58"/><use xlink:href="#aD" x="197.188" y="45.58"/></g><g style="fill:#000;fill-opacity:1"><use xlink:href="#aE" x="203.056" y="45.58"/><use xlink:href="#az" x="211.523" y="45.58"/><use xlink:href="#at" x="217.431" y="45.58"/><use xlink:href="#aF" x="220.386" y="45.58"/><use xlink:href="#az" x="224.893" y="45.58"/></g><g style="fill:#000;fill-opacity:1"><use xlink:href="#at" x="233.289" y="45.58"/><use xlink:href="#av" x="236.243" y="45.58"/><use xlink:href="#aF" x="242.151" y="45.58"/><use xlink:href="#aq" x="246.659" y="45.58"/><use xlink:href="#ap" x="249.613" y="45.58"/><use xlink:href="#ax" x="255.734" y="45.58"/><use xlink:href="#an" x="261.937" y="45.58"/></g><g style="fill:#000;fill-opacity:1"><use xlink:href="#aD" x="269.287" y="45.58"/><use xlink:href="#au" x="272.668" y="45.58"/><use xlink:href="#am" x="278.211" y="45.58"/><use xlink:href="#ay" x="282.221" y="45.58"/><use xlink:href="#ar" x="291.185" y="45.58"/><use xlink:href="#aq" x="296.261" y="45.58"/><use xlink:href="#ax" x="299.215" y="45.58"/><use xlink:href="#an" x="305.418" y="45.58"/><use xlink:href="#az" x="310.281" y="45.58"/><use xlink:href="#aG" x="316.189" y="45.58"/><use xlink:href="#ax" x="321.833" y="45.58"/><use xlink:href="#an" x="328.036" y="45.58"/><use xlink:href="#aA" x="332.899" y="45.58"/></g><g style="fill:#000;fill-opacity:1"><use xlink:href="#aD" x="337.914" y="45.58"/><use xlink:href="#au" x="341.295" y="45.58"/><use xlink:href="#am" x="346.837" y="45.58"/><use xlink:href="#ay" x="350.847" y="45.58"/><use xlink:href="#ar" x="359.812" y="45.58"/><use xlink:href="#as" x="364.888" y="45.58"/><use xlink:href="#an" x="368.197" y="45.58"/><use xlink:href="#aA" x="373.06" y="45.58"/></g><g style="fill:#000;fill-opacity:1"><use xlink:href="#ar" x="378.085" y="45.58"/><use xlink:href="#av" x="383.161" y="45.58"/><use xlink:href="#ax" x="389.069" y="45.58"/></g><g style="fill:#000;fill-opacity:1"><use xlink:href="#aH" x="2.394" y="58.133"/><use xlink:href="#aI" x="7.942" y="58.133"/><use xlink:href="#aJ" x="11.255" y="58.133"/><use xlink:href="#aK" x="17.169" y="58.133"/><use xlink:href="#aL" x="22.037" y="58.133"/></g><g style="fill:#000;fill-opacity:1"><use xlink:href="#aI" x="28.551" y="58.133"/><use xlink:href="#aH" x="31.863" y="58.133"/><use xlink:href="#aM" x="37.412" y="58.133"/><use xlink:href="#aN" x="42.655" y="58.133"/><use xlink:href="#aO" x="45.612" y="58.133"/><use xlink:href="#aP" x="51.527" y="58.133"/></g><use xlink:href="#aQ" x="58.325" y="58.133" style="fill:#000;fill-opacity:1"/><g style="fill:#0875b7;fill-opacity:1"><use xlink:href="#aR" x="61.711" y="58.133"/><use xlink:href="#aS" x="66.692" y="58.133"/></g><g style="fill:#000;fill-opacity:1"><use xlink:href="#aT" x="71.673" y="58.133"/><use xlink:href="#aU" x="75.057" y="58.133"/></g><g style="fill:#000;fill-opacity:1"><use xlink:href="#aV" x="80.707" y="58.133"/><use xlink:href="#aJ" x="86.936" y="58.133"/><use xlink:href="#aK" x="92.85" y="58.133"/><use xlink:href="#aP" x="97.718" y="58.133"/><use xlink:href="#aK" x="102.026" y="58.133"/></g><g style="fill:#000;fill-opacity:1"><use xlink:href="#aI" x="109.384" y="58.133"/><use xlink:href="#aJ" x="112.696" y="58.133"/><use xlink:href="#aL" x="118.611" y="58.133"/></g><g style="fill:#000;fill-opacity:1"><use xlink:href="#aK" x="122.452" y="58.133"/><use xlink:href="#aK" x="127.319" y="58.133"/></g><g style="fill:#000;fill-opacity:1"><use xlink:href="#aW" x="134.676" y="58.133"/><use xlink:href="#aL" x="140.824" y="58.133"/><use xlink:href="#aP" x="144.838" y="58.133"/><use xlink:href="#aI" x="149.147" y="58.133"/><use xlink:href="#aX" x="152.46" y="58.133"/><use xlink:href="#aY" x="155.844" y="58.133"/><use xlink:href="#aJ" x="161.951" y="58.133"/><use xlink:href="#aZ" x="167.865" y="58.133"/><use xlink:href="#aP" x="172.946" y="58.133"/><use xlink:href="#aK" x="177.255" y="58.133"/></g><g style="fill:#000;fill-opacity:1"><use xlink:href="#ba" x="184.622" y="58.133"/><use xlink:href="#aK" x="193.595" y="58.133"/><use xlink:href="#aI" x="198.462" y="58.133"/><use xlink:href="#aZ" x="201.775" y="58.133"/><use xlink:href="#bb" x="206.856" y="58.133"/><use xlink:href="#aH" x="212.476" y="58.133"/><use xlink:href="#bc" x="218.024" y="58.133"/><use xlink:href="#aN" x="220.981" y="58.133"/><use xlink:href="#aI" x="223.938" y="58.133"/><use xlink:href="#aK" x="227.251" y="58.133"/><use xlink:href="#aP" x="232.118" y="58.133"/></g><use xlink:href="#aL" x="238.917" y="58.133" style="fill:#000;fill-opacity:1"/><g style="fill:#000;fill-opacity:1"><use xlink:href="#aK" x="242.758" y="58.133"/><use xlink:href="#aY" x="247.625" y="58.133"/><use xlink:href="#aL" x="253.733" y="58.133"/></g><g style="fill:#000;fill-opacity:1"><use xlink:href="#aK" x="257.564" y="58.133"/><use xlink:href="#aP" x="262.431" y="58.133"/><use xlink:href="#aK" x="266.74" y="58.133"/><use xlink:href="#aO" x="271.607" y="58.133"/><use xlink:href="#aI" x="277.522" y="58.133"/></g><g style="fill:#000;fill-opacity:1"><use xlink:href="#aZ" x="283.334" y="58.133"/><use xlink:href="#aY" x="288.415" y="58.133"/><use xlink:href="#aY" x="294.522" y="58.133"/><use xlink:href="#aL" x="300.63" y="58.133"/></g><g style="fill:#000;fill-opacity:1"><use xlink:href="#aH" x="304.461" y="58.133"/><use xlink:href="#aM" x="310.009" y="58.133"/><use xlink:href="#aN" x="315.253" y="58.133"/><use xlink:href="#ba" x="318.21" y="58.133"/><use xlink:href="#aZ" x="327.183" y="58.133"/><use xlink:href="#aI" x="332.263" y="58.133"/><use xlink:href="#aK" x="335.576" y="58.133"/><use xlink:href="#bc" x="340.444" y="58.133"/><use xlink:href="#bd" x="343.401" y="58.133"/></g><g style="fill:#000;fill-opacity:1"><use xlink:href="#be" x="351.551" y="58.133"/><use xlink:href="#bf" x="356.632" y="58.133"/><use xlink:href="#bg" x="361.713" y="58.133"/><use xlink:href="#bh" x="370.248" y="58.133"/></g><g style="fill:#000;fill-opacity:1"><use xlink:href="#bi" x="375.279" y="58.133"/><use xlink:href="#bf" x="380.36" y="58.133"/><use xlink:href="#bg" x="385.44" y="58.133"/><use xlink:href="#bh" x="393.976" y="58.133"/></g><g style="fill:#000;fill-opacity:1"><use xlink:href="#aZ" x="2.394" y="70.686"/><use xlink:href="#aO" x="7.475" y="70.686"/><use xlink:href="#bj" x="13.389" y="70.686"/></g><g style="fill:#000;fill-opacity:1"><use xlink:href="#bk" x="22.972" y="70.686"/><use xlink:href="#bf" x="28.053" y="70.686"/><use xlink:href="#bg" x="33.134" y="70.686"/></g><g style="fill:#000;fill-opacity:1"><use xlink:href="#aH" x="45.043" y="70.686"/><use xlink:href="#bl" x="50.592" y="70.686"/></g><g style="fill:#000;fill-opacity:1"><use xlink:href="#aZ" x="57.349" y="70.686"/><use xlink:href="#aP" x="62.43" y="70.686"/><use xlink:href="#aY" x="66.739" y="70.686"/><use xlink:href="#aZ" x="72.846" y="70.686"/><use xlink:href="#aL" x="77.927" y="70.686"/><use xlink:href="#aI" x="81.941" y="70.686"/><use xlink:href="#aZ" x="85.254" y="70.686"/><use xlink:href="#ba" x="90.335" y="70.686"/><use xlink:href="#aK" x="99.308" y="70.686"/></g><g style="fill:#000;fill-opacity:1"><use xlink:href="#bb" x="107.539" y="70.686"/><use xlink:href="#bd" x="113.158" y="70.686"/></g><g style="fill:#000;fill-opacity:1"><use xlink:href="#bm" x="122.182" y="70.686"/><use xlink:href="#aK" x="130.657" y="70.686"/><use xlink:href="#aN" x="135.524" y="70.686"/><use xlink:href="#bn" x="138.481" y="70.686"/><use xlink:href="#aJ" x="144.131" y="70.686"/><use xlink:href="#aI" x="150.046" y="70.686"/><use xlink:href="#bh" x="153.358" y="70.686"/></g><use xlink:href="#aL" x="159.496" y="70.686" style="fill:#000;fill-opacity:1"/><g style="fill:#000;fill-opacity:1"><use xlink:href="#aK" x="163.327" y="70.686"/><use xlink:href="#aP" x="168.195" y="70.686"/><use xlink:href="#aY" x="172.503" y="70.686"/><use xlink:href="#aK" x="178.611" y="70.686"/><use xlink:href="#bo" x="183.478" y="70.686"/><use xlink:href="#aI" x="187.99" y="70.686"/><use xlink:href="#aN" x="191.303" y="70.686"/><use xlink:href="#bp" x="194.26" y="70.686"/><use xlink:href="#aK" x="200.001" y="70.686"/><use xlink:href="#bc" x="204.869" y="70.686"/><use xlink:href="#bd" x="207.826" y="70.686"/></g><use xlink:href="#aQ" x="216.85" y="70.686" style="fill:#000;fill-opacity:1"/><g style="fill:#0875b7;fill-opacity:1"><use xlink:href="#aR" x="220.233" y="70.686"/><use xlink:href="#aS" x="225.214" y="70.686"/></g><g style="fill:#000;fill-opacity:1"><use xlink:href="#aT" x="230.196" y="70.686"/><use xlink:href="#aU" x="233.58" y="70.686"/></g><g style="fill:#000;fill-opacity:1"><use xlink:href="#aV" x="241.852" y="70.686"/><use xlink:href="#aJ" x="248.081" y="70.686"/><use xlink:href="#aK" x="253.995" y="70.686"/></g><g style="fill:#000;fill-opacity:1"><use xlink:href="#aZ" x="262.236" y="70.686"/><use xlink:href="#bj" x="267.317" y="70.686"/><use xlink:href="#bp" x="273.526" y="70.686"/><use xlink:href="#aK" x="279.268" y="70.686"/><use xlink:href="#aL" x="284.135" y="70.686"/><use xlink:href="#aP" x="288.149" y="70.686"/><use xlink:href="#aK" x="292.458" y="70.686"/></g><g style="fill:#000;fill-opacity:1"><use xlink:href="#aO" x="300.699" y="70.686"/><use xlink:href="#aK" x="306.613" y="70.686"/><use xlink:href="#bq" x="311.481" y="70.686"/><use xlink:href="#aL" x="317.608" y="70.686"/></g><g style="fill:#000;fill-opacity:1"><use xlink:href="#aH" x="321.439" y="70.686"/><use xlink:href="#bc" x="326.988" y="70.686"/><use xlink:href="#aH" x="329.945" y="70.686"/><use xlink:href="#bn" x="335.493" y="70.686"/><use xlink:href="#aN" x="341.143" y="70.686"/><use xlink:href="#bo" x="344.1" y="70.686"/><use xlink:href="#aZ" x="348.612" y="70.686"/><use xlink:href="#bc" x="353.693" y="70.686"/></g><g style="fill:#000;fill-opacity:1"><use xlink:href="#aN" x="360.024" y="70.686"/><use xlink:href="#ba" x="362.981" y="70.686"/><use xlink:href="#aY" x="371.954" y="70.686"/><use xlink:href="#aZ" x="378.061" y="70.686"/><use xlink:href="#bo" x="383.142" y="70.686"/><use xlink:href="#aI" x="387.654" y="70.686"/><use xlink:href="#aP" x="390.967" y="70.686"/></g><g style="fill:#000;fill-opacity:1"><use xlink:href="#bl" x="2.394" y="83.239"/><use xlink:href="#aH" x="5.778" y="83.239"/><use xlink:href="#bc" x="11.326" y="83.239"/><use xlink:href="#bc" x="14.283" y="83.239"/><use xlink:href="#aH" x="17.24" y="83.239"/><use xlink:href="#bm" x="22.789" y="83.239"/><use xlink:href="#aN" x="31.264" y="83.239"/><use xlink:href="#aO" x="34.221" y="83.239"/><use xlink:href="#bn" x="40.135" y="83.239"/></g><g style="fill:#000;fill-opacity:1"><use xlink:href="#aI" x="49.128" y="83.239"/><use xlink:href="#aJ" x="52.441" y="83.239"/><use xlink:href="#aK" x="58.355" y="83.239"/></g><g style="fill:#000;fill-opacity:1"><use xlink:href="#bo" x="66.576" y="83.239"/><use xlink:href="#aH" x="71.088" y="83.239"/><use xlink:href="#aO" x="76.636" y="83.239"/><use xlink:href="#aP" x="82.551" y="83.239"/><use xlink:href="#bq" x="86.859" y="83.239"/><use xlink:href="#ba" x="92.987" y="83.239"/><use xlink:href="#aY" x="101.96" y="83.239"/><use xlink:href="#aI" x="108.067" y="83.239"/><use xlink:href="#aN" x="111.38" y="83.239"/><use xlink:href="#aH" x="114.337" y="83.239"/><use xlink:href="#aO" x="119.885" y="83.239"/></g><g style="fill:#000;fill-opacity:1"><use xlink:href="#aH" x="129.143" y="83.239"/><use xlink:href="#bl" x="134.691" y="83.239"/></g><g style="fill:#000;fill-opacity:1"><use xlink:href="#aZ" x="141.418" y="83.239"/><use xlink:href="#aP" x="146.499" y="83.239"/><use xlink:href="#aY" x="150.808" y="83.239"/><use xlink:href="#aZ" x="156.915" y="83.239"/><use xlink:href="#aL" x="161.996" y="83.239"/><use xlink:href="#aI" x="166.01" y="83.239"/><use xlink:href="#aN" x="169.323" y="83.239"/><use xlink:href="#bo" x="172.28" y="83.239"/></g><g style="fill:#000;fill-opacity:1"><use xlink:href="#aZ" x="180.145" y="83.239"/><use xlink:href="#bo" x="185.226" y="83.239"/><use xlink:href="#aN" x="189.738" y="83.239"/><use xlink:href="#bj" x="192.695" y="83.239"/><use xlink:href="#bh" x="198.904" y="83.239"/></g><g style="fill:#000;fill-opacity:1"><use xlink:href="#aY" x="205.001" y="83.239"/><use xlink:href="#aJ" x="211.108" y="83.239"/><use xlink:href="#aK" x="217.022" y="83.239"/><use xlink:href="#aO" x="221.89" y="83.239"/><use xlink:href="#bd" x="227.804" y="83.239"/><use xlink:href="#bc" x="233.454" y="83.239"/><use xlink:href="#aZ" x="236.411" y="83.239"/><use xlink:href="#bc" x="241.492" y="83.239"/><use xlink:href="#aZ" x="244.449" y="83.239"/><use xlink:href="#aO" x="249.53" y="83.239"/><use xlink:href="#aN" x="255.444" y="83.239"/><use xlink:href="#aO" x="258.401" y="83.239"/><use xlink:href="#aK" x="264.316" y="83.239"/><use xlink:href="#bh" x="269.183" y="83.239"/></g><g style="fill:#000;fill-opacity:1"><use xlink:href="#aZ" x="275.29" y="83.239"/><use xlink:href="#aO" x="280.371" y="83.239"/><use xlink:href="#bj" x="286.286" y="83.239"/><use xlink:href="#br" x="292.494" y="83.239"/><use xlink:href="#aH" x="298.653" y="83.239"/><use xlink:href="#aL" x="304.201" y="83.239"/></g><g style="fill:#000;fill-opacity:1"><use xlink:href="#aZ" x="311.558" y="83.239"/><use xlink:href="#aP" x="316.639" y="83.239"/><use xlink:href="#aY" x="320.948" y="83.239"/><use xlink:href="#aZ" x="327.055" y="83.239"/><use xlink:href="#aL" x="332.136" y="83.239"/><use xlink:href="#aI" x="336.15" y="83.239"/><use xlink:href="#aZ" x="339.463" y="83.239"/><use xlink:href="#ba" x="344.543" y="83.239"/><use xlink:href="#aK" x="353.516" y="83.239"/></g><g style="fill:#000;fill-opacity:1"><use xlink:href="#aN" x="361.727" y="83.239"/><use xlink:href="#aO" x="364.684" y="83.239"/><use xlink:href="#bo" x="370.598" y="83.239"/><use xlink:href="#bc" x="375.11" y="83.239"/><use xlink:href="#bq" x="378.067" y="83.239"/><use xlink:href="#bj" x="384.195" y="83.239"/><use xlink:href="#aK" x="390.404" y="83.239"/></g></svg>