<svg width="3048" height="2662" xmlns="http://www.w3.org/2000/svg" xmlns:xlink="http://www.w3.org/1999/xlink" overflow="hidden"><defs><clipPath id="clip0"><rect x="2163" y="0" width="3048" height="2662"/></clipPath><clipPath id="clip1"><rect x="2533" y="334" width="2675" height="1568"/></clipPath><clipPath id="clip2"><rect x="2167" y="0" width="3041" height="2660"/></clipPath><clipPath id="clip3"><rect x="2167" y="0" width="3041" height="2660"/></clipPath><clipPath id="clip4"><rect x="2167" y="0" width="3041" height="2660"/></clipPath><clipPath id="clip5"><rect x="2167" y="0" width="3041" height="2660"/></clipPath><clipPath id="clip6"><rect x="2167" y="0" width="3041" height="2660"/></clipPath><clipPath id="clip7"><rect x="2167" y="0" width="3041" height="2660"/></clipPath><clipPath id="clip8"><rect x="2167" y="0" width="3041" height="2660"/></clipPath><clipPath id="clip9"><rect x="2167" y="0" width="3041" height="2660"/></clipPath><clipPath id="clip10"><rect x="2167" y="0" width="3041" height="2660"/></clipPath><clipPath id="clip11"><rect x="2167" y="0" width="3041" height="2660"/></clipPath><clipPath id="clip12"><rect x="2167" y="0" width="3041" height="2660"/></clipPath><clipPath id="clip13"><rect x="2167" y="0" width="3041" height="2660"/></clipPath><clipPath id="clip14"><rect x="2167" y="0" width="3041" height="2660"/></clipPath><clipPath id="clip15"><rect x="2167" y="0" width="3041" height="2660"/></clipPath><clipPath id="clip16"><rect x="2167" y="0" width="3041" height="2660"/></clipPath><clipPath id="clip17"><rect x="2167" y="0" width="3041" height="2660"/></clipPath><clipPath id="clip18"><rect x="2167" y="0" width="3041" height="2660"/></clipPath><clipPath id="clip19"><rect x="2167" y="0" width="3041" height="2660"/></clipPath><clipPath id="clip20"><rect x="2167" y="0" width="3041" height="2660"/></clipPath><clipPath id="clip21"><rect x="2167" y="0" width="3041" height="2660"/></clipPath><clipPath id="clip22"><rect x="2167" y="0" width="3041" height="2660"/></clipPath><clipPath id="clip23"><rect x="2167" y="0" width="3041" height="2660"/></clipPath><clipPath id="clip24"><rect x="2167" y="0" width="3041" height="2660"/></clipPath><clipPath id="clip25"><rect x="2167" y="0" width="3041" height="2660"/></clipPath><clipPath id="clip26"><rect x="2167" y="0" width="3041" height="2660"/></clipPath><clipPath id="clip27"><rect x="2167" y="0" width="3041" height="2660"/></clipPath><clipPath id="clip28"><rect x="2167" y="0" width="3041" height="2660"/></clipPath><clipPath id="clip29"><rect x="2167" y="0" width="3041" height="2660"/></clipPath><clipPath id="clip30"><rect x="2167" y="0" width="3041" height="2660"/></clipPath><clipPath id="clip31"><rect x="2167" y="0" width="3041" height="2660"/></clipPath><clipPath id="clip32"><rect x="2167" y="0" width="3041" height="2660"/></clipPath><clipPath id="clip33"><rect x="2167" y="0" width="3041" height="2660"/></clipPath><clipPath id="clip34"><rect x="2167" y="0" width="3041" height="2660"/></clipPath><clipPath id="clip35"><rect x="2167" y="0" width="3041" height="2660"/></clipPath><clipPath id="clip36"><rect x="2167" y="0" width="3041" height="2660"/></clipPath><clipPath id="clip37"><rect x="2167" y="0" width="3041" height="2660"/></clipPath><clipPath id="clip38"><rect x="2167" y="0" width="3042" height="2661"/></clipPath><clipPath id="clip39"><rect x="3578" y="1884" width="2754" height="98"/></clipPath></defs><g clip-path="url(#clip0)" transform="translate(-2163 0)"><rect x="2168" y="0" width="3041" height="2661" fill="#FFFFFF" fill-opacity="1"/><g clip-path="url(#clip1)"><path d="M2572.08 1727.06 2623.09 1727.06 2623.09 1899 2572.08 1899ZM2699.09 1831.06 2750.09 1831.06 2750.09 1899 2699.09 1899ZM2827.09 1853.06 2878.09 1853.06 2878.09 1899 2827.09 1899ZM2954.1 1823.06 3005.1 1823.06 3005.1 1899 2954.1 1899ZM3082.1 1511.05 3132.1 1511.05 3132.1 1899 3082.1 1899ZM3209.11 1884.06 3260.11 1884.06 3260.11 1899 3209.11 1899ZM3336.11 1873.06 3387.11 1873.06 3387.11 1899 3336.11 1899ZM3464.11 1860.06 3515.12 1860.06 3515.12 1899 3464.11 1899ZM3591.12 543.018 3642.12 543.018 3642.12 1899 3591.12 1899ZM3718.12 1237.04 3769.12 1237.04 3769.12 1899 3718.12 1899ZM3846.13 1893.06 3897.13 1893.06 3897.13 1899 3846.13 1899ZM3973.13 1893.06 4024.13 1893.06 4024.13 1899 3973.13 1899ZM4101.13 1856.06 4152.14 1856.06 4152.14 1899 4101.13 1899ZM4228.14 1835.06 4279.14 1835.06 4279.14 1899 4228.14 1899ZM4355.14 1890.06 4406.14 1890.06 4406.14 1899 4355.14 1899ZM4483.15 1825.06 4534.15 1825.06 4534.15 1899 4483.15 1899ZM4610.15 803.026 4661.15 803.026 4661.15 1899 4610.15 1899ZM4737.16 1788.06 4788.16 1788.06 4788.16 1899 4737.16 1899ZM4865.16 1840.06 4916.16 1840.06 4916.16 1899 4865.16 1899ZM4992.16 1869.06 5043.17 1869.06 5043.17 1899 4992.16 1899ZM5120.17 1823.06 5171.17 1823.06 5171.17 1899 5120.17 1899Z" fill="#000000" fill-rule="nonzero" fill-opacity="1"/></g><g clip-path="url(#clip2)"><text fill="#0D0D0D" fill-opacity="1" font-family="Montserrat,Montserrat_MSFontService,sans-serif" font-style="normal" font-variant="normal" font-weight="400" font-stretch="normal" font-size="92" text-anchor="start" direction="ltr" writing-mode="lr-tb" unicode-bidi="normal" text-decoration="none" transform="matrix(1 0 0 1 2387.73 1930)">0</text></g><g clip-path="url(#clip3)"><text fill="#0D0D0D" fill-opacity="1" font-family="Montserrat,Montserrat_MSFontService,sans-serif" font-style="normal" font-variant="normal" font-weight="400" font-stretch="normal" font-size="92" text-anchor="start" direction="ltr" writing-mode="lr-tb" unicode-bidi="normal" text-decoration="none" transform="matrix(1 0 0 1 2214.3 1757)">2000</text></g><g clip-path="url(#clip4)"><text fill="#0D0D0D" fill-opacity="1" font-family="Montserrat,Montserrat_MSFontService,sans-serif" font-style="normal" font-variant="normal" font-weight="400" font-stretch="normal" font-size="92" text-anchor="start" direction="ltr" writing-mode="lr-tb" unicode-bidi="normal" text-decoration="none" transform="matrix(1 0 0 1 2205.77 1583)">4000</text></g><g clip-path="url(#clip5)"><text fill="#0D0D0D" fill-opacity="1" font-family="Montserrat,Montserrat_MSFontService,sans-serif" font-style="normal" font-variant="normal" font-weight="400" font-stretch="normal" font-size="92" text-anchor="start" direction="ltr" writing-mode="lr-tb" unicode-bidi="normal" text-decoration="none" transform="matrix(1 0 0 1 2210.54 1409)">6000</text></g><g clip-path="url(#clip6)"><text fill="#0D0D0D" fill-opacity="1" font-family="Montserrat,Montserrat_MSFontService,sans-serif" font-style="normal" font-variant="normal" font-weight="400" font-stretch="normal" font-size="92" text-anchor="start" direction="ltr" writing-mode="lr-tb" unicode-bidi="normal" text-decoration="none" transform="matrix(1 0 0 1 2207.88 1235)">8000</text></g><g clip-path="url(#clip7)"><text fill="#0D0D0D" fill-opacity="1" font-family="Montserrat,Montserrat_MSFontService,sans-serif" font-style="normal" font-variant="normal" font-weight="400" font-stretch="normal" font-size="92" text-anchor="start" direction="ltr" writing-mode="lr-tb" unicode-bidi="normal" text-decoration="none" transform="matrix(1 0 0 1 2172.59 1061)">10000</text></g><g clip-path="url(#clip8)"><text fill="#0D0D0D" fill-opacity="1" font-family="Montserrat,Montserrat_MSFontService,sans-serif" font-style="normal" font-variant="normal" font-weight="400" font-stretch="normal" font-size="92" text-anchor="start" direction="ltr" writing-mode="lr-tb" unicode-bidi="normal" text-decoration="none" transform="matrix(1 0 0 1 2181.21 888)">12000</text></g><g clip-path="url(#clip9)"><text fill="#0D0D0D" fill-opacity="1" font-family="Montserrat,Montserrat_MSFontService,sans-serif" font-style="normal" font-variant="normal" font-weight="400" font-stretch="normal" font-size="92" text-anchor="start" direction="ltr" writing-mode="lr-tb" unicode-bidi="normal" text-decoration="none" transform="matrix(1 0 0 1 2172.68 714)">14000</text></g><g clip-path="url(#clip10)"><text fill="#0D0D0D" fill-opacity="1" font-family="Montserrat,Montserrat_MSFontService,sans-serif" font-style="normal" font-variant="normal" font-weight="400" font-stretch="normal" font-size="92" text-anchor="start" direction="ltr" writing-mode="lr-tb" unicode-bidi="normal" text-decoration="none" transform="matrix(1 0 0 1 2177.45 540)">16000</text></g><g clip-path="url(#clip11)"><text fill="#0D0D0D" fill-opacity="1" font-family="Montserrat,Montserrat_MSFontService,sans-serif" font-style="normal" font-variant="normal" font-weight="400" font-stretch="normal" font-size="92" text-anchor="start" direction="ltr" writing-mode="lr-tb" unicode-bidi="normal" text-decoration="none" transform="matrix(1 0 0 1 2174.79 366)">18000</text></g><g clip-path="url(#clip12)"><text fill="#0D0D0D" fill-opacity="1" font-family="Montserrat,Montserrat_MSFontService,sans-serif" font-style="normal" font-variant="normal" font-weight="400" font-stretch="normal" font-size="83" text-anchor="start" direction="ltr" writing-mode="lr-tb" unicode-bidi="normal" text-decoration="none" transform="matrix(6.12323e-17 -1 1 6.12323e-17 2627.27 2181)">china</text></g><g clip-path="url(#clip13)"><text fill="#0D0D0D" fill-opacity="1" font-family="Montserrat,Montserrat_MSFontService,sans-serif" font-style="normal" font-variant="normal" font-weight="400" font-stretch="normal" font-size="83" text-anchor="start" direction="ltr" writing-mode="lr-tb" unicode-bidi="normal" text-decoration="none" transform="matrix(6.12323e-17 -1 1 6.12323e-17 2754.65 2157)">india</text></g><g clip-path="url(#clip14)"><text fill="#0D0D0D" fill-opacity="1" font-family="Montserrat,Montserrat_MSFontService,sans-serif" font-style="normal" font-variant="normal" font-weight="400" font-stretch="normal" font-size="83" text-anchor="start" direction="ltr" writing-mode="lr-tb" unicode-bidi="normal" text-decoration="none" transform="matrix(6.12323e-17 -1 1 6.12323e-17 2882.04 2493)">united states</text></g><g clip-path="url(#clip15)"><text fill="#0D0D0D" fill-opacity="1" font-family="Montserrat,Montserrat_MSFontService,sans-serif" font-style="normal" font-variant="normal" font-weight="400" font-stretch="normal" font-size="83" text-anchor="start" direction="ltr" writing-mode="lr-tb" unicode-bidi="normal" text-decoration="none" transform="matrix(6.12323e-17 -1 1 6.12323e-17 3009.42 2355)">indonesia</text></g><g clip-path="url(#clip16)"><text fill="#0D0D0D" fill-opacity="1" font-family="Montserrat,Montserrat_MSFontService,sans-serif" font-style="normal" font-variant="normal" font-weight="400" font-stretch="normal" font-size="83" text-anchor="start" direction="ltr" writing-mode="lr-tb" unicode-bidi="normal" text-decoration="none" transform="matrix(6.12323e-17 -1 1 6.12323e-17 3136.81 2307)">pakistan</text></g><g clip-path="url(#clip17)"><text fill="#0D0D0D" fill-opacity="1" font-family="Montserrat,Montserrat_MSFontService,sans-serif" font-style="normal" font-variant="normal" font-weight="400" font-stretch="normal" font-size="83" text-anchor="start" direction="ltr" writing-mode="lr-tb" unicode-bidi="normal" text-decoration="none" transform="matrix(6.12323e-17 -1 1 6.12323e-17 3264.19 2176)">brazil</text></g><g clip-path="url(#clip18)"><text fill="#0D0D0D" fill-opacity="1" font-family="Montserrat,Montserrat_MSFontService,sans-serif" font-style="normal" font-variant="normal" font-weight="400" font-stretch="normal" font-size="83" text-anchor="start" direction="ltr" writing-mode="lr-tb" unicode-bidi="normal" text-decoration="none" transform="matrix(6.12323e-17 -1 1 6.12323e-17 3391.58 2240)">nigeria</text></g><g clip-path="url(#clip19)"><text fill="#0D0D0D" fill-opacity="1" font-family="Montserrat,Montserrat_MSFontService,sans-serif" font-style="normal" font-variant="normal" font-weight="400" font-stretch="normal" font-size="83" text-anchor="start" direction="ltr" writing-mode="lr-tb" unicode-bidi="normal" text-decoration="none" transform="matrix(6.12323e-17 -1 1 6.12323e-17 3518.96 2442)">bangladesh</text></g><g clip-path="url(#clip20)"><text fill="#0D0D0D" fill-opacity="1" font-family="Montserrat,Montserrat_MSFontService,sans-serif" font-style="normal" font-variant="normal" font-weight="400" font-stretch="normal" font-size="83" text-anchor="start" direction="ltr" writing-mode="lr-tb" unicode-bidi="normal" text-decoration="none" transform="matrix(6.12323e-17 -1 1 6.12323e-17 3646.35 2192)">russia</text></g><g clip-path="url(#clip21)"><text fill="#0D0D0D" fill-opacity="1" font-family="Montserrat,Montserrat_MSFontService,sans-serif" font-style="normal" font-variant="normal" font-weight="400" font-stretch="normal" font-size="83" text-anchor="start" direction="ltr" writing-mode="lr-tb" unicode-bidi="normal" text-decoration="none" transform="matrix(6.12323e-17 -1 1 6.12323e-17 3773.74 2254)">mexico</text></g><g clip-path="url(#clip22)"><text fill="#0D0D0D" fill-opacity="1" font-family="Montserrat,Montserrat_MSFontService,sans-serif" font-style="normal" font-variant="normal" font-weight="400" font-stretch="normal" font-size="83" text-anchor="start" direction="ltr" writing-mode="lr-tb" unicode-bidi="normal" text-decoration="none" transform="matrix(6.12323e-17 -1 1 6.12323e-17 3901.12 2184)">japan</text></g><g clip-path="url(#clip23)"><text fill="#0D0D0D" fill-opacity="1" font-family="Montserrat,Montserrat_MSFontService,sans-serif" font-style="normal" font-variant="normal" font-weight="400" font-stretch="normal" font-size="83" text-anchor="start" direction="ltr" writing-mode="lr-tb" unicode-bidi="normal" text-decoration="none" transform="matrix(6.12323e-17 -1 1 6.12323e-17 4028.51 2292)">ethiopia</text></g><g clip-path="url(#clip24)"><text fill="#0D0D0D" fill-opacity="1" font-family="Montserrat,Montserrat_MSFontService,sans-serif" font-style="normal" font-variant="normal" font-weight="400" font-stretch="normal" font-size="83" text-anchor="start" direction="ltr" writing-mode="lr-tb" unicode-bidi="normal" text-decoration="none" transform="matrix(6.12323e-17 -1 1 6.12323e-17 4155.89 2410)">philippines</text></g><g clip-path="url(#clip25)"><text fill="#0D0D0D" fill-opacity="1" font-family="Montserrat,Montserrat_MSFontService,sans-serif" font-style="normal" font-variant="normal" font-weight="400" font-stretch="normal" font-size="83" text-anchor="start" direction="ltr" writing-mode="lr-tb" unicode-bidi="normal" text-decoration="none" transform="matrix(6.12323e-17 -1 1 6.12323e-17 4283.28 2193)">egypt</text></g><g clip-path="url(#clip26)"><text fill="#0D0D0D" fill-opacity="1" font-family="Montserrat,Montserrat_MSFontService,sans-serif" font-style="normal" font-variant="normal" font-weight="400" font-stretch="normal" font-size="83" text-anchor="start" direction="ltr" writing-mode="lr-tb" unicode-bidi="normal" text-decoration="none" transform="matrix(6.12323e-17 -1 1 6.12323e-17 4410.66 2294)">vietnam</text></g><g clip-path="url(#clip27)"><text fill="#0D0D0D" fill-opacity="1" font-family="Montserrat,Montserrat_MSFontService,sans-serif" font-style="normal" font-variant="normal" font-weight="400" font-stretch="normal" font-size="83" text-anchor="start" direction="ltr" writing-mode="lr-tb" unicode-bidi="normal" text-decoration="none" transform="matrix(6.12323e-17 -1 1 6.12323e-17 4538.05 2214)">congo</text></g><g clip-path="url(#clip28)"><text fill="#0D0D0D" fill-opacity="1" font-family="Montserrat,Montserrat_MSFontService,sans-serif" font-style="normal" font-variant="normal" font-weight="400" font-stretch="normal" font-size="83" text-anchor="start" direction="ltr" writing-mode="lr-tb" unicode-bidi="normal" text-decoration="none" transform="matrix(6.12323e-17 -1 1 6.12323e-17 4665.43 2112)">iran</text></g><g clip-path="url(#clip29)"><text fill="#0D0D0D" fill-opacity="1" font-family="Montserrat,Montserrat_MSFontService,sans-serif" font-style="normal" font-variant="normal" font-weight="400" font-stretch="normal" font-size="83" text-anchor="start" direction="ltr" writing-mode="lr-tb" unicode-bidi="normal" text-decoration="none" transform="matrix(6.12323e-17 -1 1 6.12323e-17 4792.82 2218)">turkey</text></g><g clip-path="url(#clip30)"><text fill="#0D0D0D" fill-opacity="1" font-family="Montserrat,Montserrat_MSFontService,sans-serif" font-style="normal" font-variant="normal" font-weight="400" font-stretch="normal" font-size="83" text-anchor="start" direction="ltr" writing-mode="lr-tb" unicode-bidi="normal" text-decoration="none" transform="matrix(6.12323e-17 -1 1 6.12323e-17 4920.2 2328)">germany</text></g><g clip-path="url(#clip31)"><text fill="#0D0D0D" fill-opacity="1" font-family="Montserrat,Montserrat_MSFontService,sans-serif" font-style="normal" font-variant="normal" font-weight="400" font-stretch="normal" font-size="83" text-anchor="start" direction="ltr" writing-mode="lr-tb" unicode-bidi="normal" text-decoration="none" transform="matrix(6.12323e-17 -1 1 6.12323e-17 5047.59 2214)">france</text></g><g clip-path="url(#clip32)"><text fill="#0D0D0D" fill-opacity="1" font-family="Montserrat,Montserrat_MSFontService,sans-serif" font-style="normal" font-variant="normal" font-weight="400" font-stretch="normal" font-size="83" text-anchor="start" direction="ltr" writing-mode="lr-tb" unicode-bidi="normal" text-decoration="none" transform="matrix(6.12323e-17 -1 1 6.12323e-17 5174.97 2626)">united kingdom</text></g><g clip-path="url(#clip33)"><text fill="#0D0D0D" fill-opacity="1" font-family="Montserrat,Montserrat_MSFontService,sans-serif" font-style="normal" font-variant="normal" font-weight="400" font-stretch="normal" font-size="92" text-anchor="start" direction="ltr" writing-mode="lr-tb" unicode-bidi="normal" text-decoration="none" transform="matrix(1 0 0 1 2666.77 160)">Number of occurances on the Department of </text></g><g clip-path="url(#clip34)"><text fill="#0D0D0D" fill-opacity="1" font-family="Montserrat,Montserrat_MSFontService,sans-serif" font-style="normal" font-variant="normal" font-weight="400" font-stretch="normal" font-size="92" text-anchor="start" direction="ltr" writing-mode="lr-tb" unicode-bidi="normal" text-decoration="none" transform="matrix(1 0 0 1 2637.98 271)">Treasury's </text></g><g clip-path="url(#clip35)"><text fill="#0D0D0D" fill-opacity="1" font-family="Montserrat,Montserrat_MSFontService,sans-serif" font-style="italic" font-variant="normal" font-weight="400" font-stretch="normal" font-size="92" text-anchor="start" direction="ltr" writing-mode="lr-tb" unicode-bidi="normal" text-decoration="none" transform="matrix(1 0 0 1 3117.12 271)">Specially Designated Nationals and </text></g><g clip-path="url(#clip36)"><text fill="#0D0D0D" fill-opacity="1" font-family="Montserrat,Montserrat_MSFontService,sans-serif" font-style="italic" font-variant="normal" font-weight="400" font-stretch="normal" font-size="92" text-anchor="start" direction="ltr" writing-mode="lr-tb" unicode-bidi="normal" text-decoration="none" transform="matrix(1 0 0 1 3247.98 383)">Blocked Persons</text></g><g clip-path="url(#clip37)"><text fill="#0D0D0D" fill-opacity="1" font-family="Montserrat,Montserrat_MSFontService,sans-serif" font-style="normal" font-variant="normal" font-weight="400" font-stretch="normal" font-size="92" text-anchor="start" direction="ltr" writing-mode="lr-tb" unicode-bidi="normal" text-decoration="none" transform="matrix(1 0 0 1 4037.6 383)">list</text></g><g clip-path="url(#clip38)"><g clip-path="url(#clip39)"><text fill="#AFABAB" fill-opacity="1" font-family="Courier New,Courier New_MSFontService,sans-serif" font-style="normal" font-variant="normal" font-weight="400" font-stretch="normal" font-size="50" text-anchor="start" direction="ltr" writing-mode="lr-tb" unicode-bidi="normal" text-decoration="none" transform="matrix(1 0 0 1 4758.74 1943)">dynomight.net</text></g></g></g></svg>