<svg width="3007" height="2251" xmlns="http://www.w3.org/2000/svg" xmlns:xlink="http://www.w3.org/1999/xlink" overflow="hidden"><defs><clipPath id="clip0"><rect x="1709" y="297" width="3007" height="2251"/></clipPath><clipPath id="clip1"><rect x="1711" y="300" width="3000" height="2248"/></clipPath><clipPath id="clip2"><rect x="1981" y="466" width="2628" height="1883"/></clipPath><clipPath id="clip3"><rect x="1711" y="300" width="3000" height="2248"/></clipPath><clipPath id="clip4"><rect x="1711" y="300" width="3000" height="2248"/></clipPath><clipPath id="clip5"><rect x="1711" y="300" width="3000" height="2248"/></clipPath><clipPath id="clip6"><rect x="1711" y="300" width="3000" height="2248"/></clipPath><clipPath id="clip7"><rect x="1711" y="300" width="3000" height="2248"/></clipPath><clipPath id="clip8"><rect x="1711" y="300" width="3000" height="2248"/></clipPath><clipPath id="clip9"><rect x="1711" y="300" width="3000" height="2248"/></clipPath><clipPath id="clip10"><rect x="1711" y="300" width="3000" height="2248"/></clipPath><clipPath id="clip11"><rect x="1711" y="300" width="3000" height="2248"/></clipPath><clipPath id="clip12"><rect x="1711" y="300" width="3000" height="2248"/></clipPath><clipPath id="clip13"><rect x="1711" y="300" width="3000" height="2248"/></clipPath><clipPath id="clip14"><rect x="1711" y="300" width="3000" height="2248"/></clipPath><clipPath id="clip15"><rect x="1711" y="300" width="3000" height="2248"/></clipPath><clipPath id="clip16"><rect x="1711" y="300" width="3000" height="2248"/></clipPath><clipPath id="clip17"><rect x="1711" y="300" width="3000" height="2248"/></clipPath><clipPath id="clip18"><rect x="1711" y="300" width="3000" height="2248"/></clipPath><clipPath id="clip19"><rect x="1711" y="300" width="3000" height="2248"/></clipPath><clipPath id="clip20"><rect x="1711" y="300" width="3000" height="2248"/></clipPath><clipPath id="clip21"><rect x="1711" y="300" width="3000" height="2248"/></clipPath><clipPath id="clip22"><rect x="1711" y="300" width="3000" height="2248"/></clipPath><clipPath id="clip23"><rect x="1711" y="300" width="3000" height="2248"/></clipPath><clipPath id="clip24"><rect x="1711" y="300" width="3000" height="2248"/></clipPath><clipPath id="clip25"><rect x="1711" y="300" width="3000" height="2248"/></clipPath><clipPath id="clip26"><rect x="1711" y="300" width="3001" height="2249"/></clipPath><clipPath id="clip27"><rect x="3088" y="2337" width="2753" height="84"/></clipPath></defs><g clip-path="url(#clip0)" transform="translate(-1709 -297)"><rect x="1712" y="300" width="3000" height="2248" fill="#FFFFFF" fill-opacity="1"/><g clip-path="url(#clip1)"><path d="M1981.5 2346.5 4606.5 2346.5" stroke="#D9D9D9" stroke-width="3.4375" stroke-linecap="butt" stroke-linejoin="round" stroke-miterlimit="10" stroke-opacity="1" fill="none" fill-rule="evenodd"/></g><g clip-path="url(#clip2)"><path d="M1994 2346 2020.07 2346 2046.07 2346 2072.07 2346 2098.07 2346 2124.07 2346 2150.07 2346 2176.07 2346 2202.07 2346 2228.07 2346 2254.07 2346 2280.07 2340.08 2306.08 2343.08 2332.08 2346 2358.08 2343.08 2384.08 2340.08 2410.08 2343.08 2436.08 2340.08 2462.08 2346 2488.08 2343.08 2514.08 2324.08 2540.08 2340.08 2566.08 2318.08 2592.08 2333.08 2618.09 2315.08 2644.09 2283.07 2670.09 2271.07 2696.09 2277.07 2722.09 2221.07 2748.09 2280.07 2774.09 2214.07 2800.09 2177.07 2826.09 2164.07 2852.09 2139.07 2878.09 2108.07 2904.1 2067.07 2930.1 2067.07 2956.1 2058.07 2982.1 2020.07 3008.1 1964.06 3034.1 1958.06 3060.1 2001.07 3086.1 1757.06 3112.1 1638.05 3138.1 1723.06 3164.1 1641.05 3190.1 1619.05 3216.11 1234.04 3242.11 1193.04 3268.11 1331.04 3294.11 1103.04 3320.11 1087.04 3346.11 1234.04 3372.11 1196.04 3398.11 720 3424.11 962.032 3450.11 1043.03 3476.11 1203.04 3502.11 1316.04 3528.12 1096.04 3553.12 908.03 3579.12 1056.03 3605.12 1012.03 3631.12 1012.03 3657.12 1106.04 3683.12 1366.04 3709.12 1084.04 3735.12 1165.04 3761.12 1359.04 3787.12 1594.05 3813.12 1519.05 3839.13 1751.06 3865.13 1691.06 3891.13 1648.05 3917.13 1745.06 3943.13 1782.06 3969.13 1776.06 3995.13 1942.06 4021.13 2023.07 4047.13 2042.07 4073.13 2070.07 4099.13 2177.07 4125.14 2205.07 4151.14 2243.07 4177.14 2230.07 4203.14 2249.07 4229.14 2286.07 4255.14 2327.08 4281.14 2321.08 4307.14 2340.08 4333.14 2340.08 4359.14 2330.08 4385.14 2343.08 4411.14 2346 4437.15 2346 4463.15 2346 4489.15 2346 4515.15 2346 4541.15 2346 4567.15 2346 4593 2346" stroke="#000000" stroke-width="10.3125" stroke-linecap="round" stroke-linejoin="round" stroke-miterlimit="10" stroke-opacity="1" fill="none" fill-rule="nonzero"/></g><g clip-path="url(#clip3)"><text fill="#0D0D0D" fill-opacity="1" font-family="Montserrat,Montserrat_MSFontService,sans-serif" font-style="normal" font-variant="normal" font-weight="400" font-stretch="normal" font-size="92" text-anchor="start" direction="ltr" writing-mode="lr-tb" unicode-bidi="normal" text-decoration="none" transform="matrix(1 0 0 1 1835.26 2378)">0</text></g><g clip-path="url(#clip4)"><text fill="#0D0D0D" fill-opacity="1" font-family="Montserrat,Montserrat_MSFontService,sans-serif" font-style="normal" font-variant="normal" font-weight="400" font-stretch="normal" font-size="92" text-anchor="start" direction="ltr" writing-mode="lr-tb" unicode-bidi="normal" text-decoration="none" transform="matrix(1 0 0 1 1741.48 2064)">100</text></g><g clip-path="url(#clip5)"><text fill="#0D0D0D" fill-opacity="1" font-family="Montserrat,Montserrat_MSFontService,sans-serif" font-style="normal" font-variant="normal" font-weight="400" font-stretch="normal" font-size="92" text-anchor="start" direction="ltr" writing-mode="lr-tb" unicode-bidi="normal" text-decoration="none" transform="matrix(1 0 0 1 1722.51 1751)">200</text></g><g clip-path="url(#clip6)"><text fill="#0D0D0D" fill-opacity="1" font-family="Montserrat,Montserrat_MSFontService,sans-serif" font-style="normal" font-variant="normal" font-weight="400" font-stretch="normal" font-size="92" text-anchor="start" direction="ltr" writing-mode="lr-tb" unicode-bidi="normal" text-decoration="none" transform="matrix(1 0 0 1 1722.87 1438)">300</text></g><g clip-path="url(#clip7)"><text fill="#0D0D0D" fill-opacity="1" font-family="Montserrat,Montserrat_MSFontService,sans-serif" font-style="normal" font-variant="normal" font-weight="400" font-stretch="normal" font-size="92" text-anchor="start" direction="ltr" writing-mode="lr-tb" unicode-bidi="normal" text-decoration="none" transform="matrix(1 0 0 1 1713.98 1125)">400</text></g><g clip-path="url(#clip8)"><text fill="#0D0D0D" fill-opacity="1" font-family="Montserrat,Montserrat_MSFontService,sans-serif" font-style="normal" font-variant="normal" font-weight="400" font-stretch="normal" font-size="92" text-anchor="start" direction="ltr" writing-mode="lr-tb" unicode-bidi="normal" text-decoration="none" transform="matrix(1 0 0 1 1722.69 812)">500</text></g><g clip-path="url(#clip9)"><text fill="#0D0D0D" fill-opacity="1" font-family="Montserrat,Montserrat_MSFontService,sans-serif" font-style="normal" font-variant="normal" font-weight="400" font-stretch="normal" font-size="92" text-anchor="start" direction="ltr" writing-mode="lr-tb" unicode-bidi="normal" text-decoration="none" transform="matrix(1 0 0 1 1718.75 498)">600</text></g><g clip-path="url(#clip10)"><text fill="#0D0D0D" fill-opacity="1" font-family="Montserrat,Montserrat_MSFontService,sans-serif" font-style="normal" font-variant="normal" font-weight="400" font-stretch="normal" font-size="83" text-anchor="start" direction="ltr" writing-mode="lr-tb" unicode-bidi="normal" text-decoration="none" transform="matrix(1 0 0 1 1912.17 2479)">1910</text></g><g clip-path="url(#clip11)"><text fill="#0D0D0D" fill-opacity="1" font-family="Montserrat,Montserrat_MSFontService,sans-serif" font-style="normal" font-variant="normal" font-weight="400" font-stretch="normal" font-size="83" text-anchor="start" direction="ltr" writing-mode="lr-tb" unicode-bidi="normal" text-decoration="none" transform="matrix(1 0 0 1 2163.5 2479)">1920</text></g><g clip-path="url(#clip12)"><text fill="#0D0D0D" fill-opacity="1" font-family="Montserrat,Montserrat_MSFontService,sans-serif" font-style="normal" font-variant="normal" font-weight="400" font-stretch="normal" font-size="83" text-anchor="start" direction="ltr" writing-mode="lr-tb" unicode-bidi="normal" text-decoration="none" transform="matrix(1 0 0 1 2423.55 2479)">1930</text></g><g clip-path="url(#clip13)"><text fill="#0D0D0D" fill-opacity="1" font-family="Montserrat,Montserrat_MSFontService,sans-serif" font-style="normal" font-variant="normal" font-weight="400" font-stretch="normal" font-size="83" text-anchor="start" direction="ltr" writing-mode="lr-tb" unicode-bidi="normal" text-decoration="none" transform="matrix(1 0 0 1 2679.41 2479)">1940</text></g><g clip-path="url(#clip14)"><text fill="#0D0D0D" fill-opacity="1" font-family="Montserrat,Montserrat_MSFontService,sans-serif" font-style="normal" font-variant="normal" font-weight="400" font-stretch="normal" font-size="83" text-anchor="start" direction="ltr" writing-mode="lr-tb" unicode-bidi="normal" text-decoration="none" transform="matrix(1 0 0 1 2943.19 2479)">1950</text></g><g clip-path="url(#clip15)"><text fill="#0D0D0D" fill-opacity="1" font-family="Montserrat,Montserrat_MSFontService,sans-serif" font-style="normal" font-variant="normal" font-weight="400" font-stretch="normal" font-size="83" text-anchor="start" direction="ltr" writing-mode="lr-tb" unicode-bidi="normal" text-decoration="none" transform="matrix(1 0 0 1 3201.3 2479)">1960</text></g><g clip-path="url(#clip16)"><text fill="#0D0D0D" fill-opacity="1" font-family="Montserrat,Montserrat_MSFontService,sans-serif" font-style="normal" font-variant="normal" font-weight="400" font-stretch="normal" font-size="83" text-anchor="start" direction="ltr" writing-mode="lr-tb" unicode-bidi="normal" text-decoration="none" transform="matrix(1 0 0 1 3461.99 2479)">1970</text></g><g clip-path="url(#clip17)"><text fill="#0D0D0D" fill-opacity="1" font-family="Montserrat,Montserrat_MSFontService,sans-serif" font-style="normal" font-variant="normal" font-weight="400" font-stretch="normal" font-size="83" text-anchor="start" direction="ltr" writing-mode="lr-tb" unicode-bidi="normal" text-decoration="none" transform="matrix(1 0 0 1 3719.84 2479)">1980</text></g><g clip-path="url(#clip18)"><text fill="#0D0D0D" fill-opacity="1" font-family="Montserrat,Montserrat_MSFontService,sans-serif" font-style="normal" font-variant="normal" font-weight="400" font-stretch="normal" font-size="83" text-anchor="start" direction="ltr" writing-mode="lr-tb" unicode-bidi="normal" text-decoration="none" transform="matrix(1 0 0 1 3980.91 2479)">1990</text></g><g clip-path="url(#clip19)"><text fill="#0D0D0D" fill-opacity="1" font-family="Montserrat,Montserrat_MSFontService,sans-serif" font-style="normal" font-variant="normal" font-weight="400" font-stretch="normal" font-size="83" text-anchor="start" direction="ltr" writing-mode="lr-tb" unicode-bidi="normal" text-decoration="none" transform="matrix(1 0 0 1 4227.87 2479)">2000</text></g><g clip-path="url(#clip20)"><text fill="#0D0D0D" fill-opacity="1" font-family="Montserrat,Montserrat_MSFontService,sans-serif" font-style="normal" font-variant="normal" font-weight="400" font-stretch="normal" font-size="83" text-anchor="start" direction="ltr" writing-mode="lr-tb" unicode-bidi="normal" text-decoration="none" transform="matrix(1 0 0 1 4500.15 2479)">2010</text></g><g clip-path="url(#clip21)"><text fill="#0D0D0D" fill-opacity="1" font-family="Montserrat,Montserrat_MSFontService,sans-serif" font-style="normal" font-variant="normal" font-weight="400" font-stretch="normal" font-size="101" text-anchor="start" direction="ltr" writing-mode="lr-tb" unicode-bidi="normal" text-decoration="none" transform="matrix(1 0 0 1 2309.04 428)">Number of people on the Department of </text></g><g clip-path="url(#clip22)"><text fill="#0D0D0D" fill-opacity="1" font-family="Montserrat,Montserrat_MSFontService,sans-serif" font-style="normal" font-variant="normal" font-weight="400" font-stretch="normal" font-size="101" text-anchor="start" direction="ltr" writing-mode="lr-tb" unicode-bidi="normal" text-decoration="none" transform="matrix(1 0 0 1 2161.91 551)">Treasury's </text></g><g clip-path="url(#clip23)"><text fill="#0D0D0D" fill-opacity="1" font-family="Montserrat,Montserrat_MSFontService,sans-serif" font-style="italic" font-variant="normal" font-weight="400" font-stretch="normal" font-size="101" text-anchor="start" direction="ltr" writing-mode="lr-tb" unicode-bidi="normal" text-decoration="none" transform="matrix(1 0 0 1 2689 551)">Specially Designated Nationals and </text></g><g clip-path="url(#clip24)"><text fill="#0D0D0D" fill-opacity="1" font-family="Montserrat,Montserrat_MSFontService,sans-serif" font-style="italic" font-variant="normal" font-weight="400" font-stretch="normal" font-size="101" text-anchor="start" direction="ltr" writing-mode="lr-tb" unicode-bidi="normal" text-decoration="none" transform="matrix(1 0 0 1 2480.09 673)">Blocked Persons</text></g><g clip-path="url(#clip25)"><text fill="#0D0D0D" fill-opacity="1" font-family="Montserrat,Montserrat_MSFontService,sans-serif" font-style="normal" font-variant="normal" font-weight="400" font-stretch="normal" font-size="101" text-anchor="start" direction="ltr" writing-mode="lr-tb" unicode-bidi="normal" text-decoration="none" transform="matrix(1 0 0 1 3348.72 673)">list, by birth year.</text></g><g clip-path="url(#clip26)"><g clip-path="url(#clip27)"><text fill="#AFABAB" fill-opacity="1" font-family="Courier New,Courier New_MSFontService,sans-serif" font-style="normal" font-variant="normal" font-weight="400" font-stretch="normal" font-size="50" text-anchor="start" direction="ltr" writing-mode="lr-tb" unicode-bidi="normal" text-decoration="none" transform="matrix(1 0 0 1 4268 2396)">dynomight.net</text></g></g></g></svg>