<?xml version="1.0" encoding="utf-8" standalone="no"?>
<!DOCTYPE svg PUBLIC "-//W3C//DTD SVG 1.1//EN"
  "http://www.w3.org/Graphics/SVG/1.1/DTD/svg11.dtd">
<svg xmlns:xlink="http://www.w3.org/1999/xlink" width="432pt" height="252pt" viewBox="0 0 432 252" xmlns="http://www.w3.org/2000/svg" version="1.1">
 <metadata>
  <rdf:RDF xmlns:dc="http://purl.org/dc/elements/1.1/" xmlns:cc="http://creativecommons.org/ns#" xmlns:rdf="http://www.w3.org/1999/02/22-rdf-syntax-ns#">
   <cc:Work>
    <dc:type rdf:resource="http://purl.org/dc/dcmitype/StillImage"/>
    <dc:date>2023-12-02T16:45:31.242990</dc:date>
    <dc:format>image/svg+xml</dc:format>
    <dc:creator>
     <cc:Agent>
      <dc:title>Matplotlib v3.7.1, https://matplotlib.org/</dc:title>
     </cc:Agent>
    </dc:creator>
   </cc:Work>
  </rdf:RDF>
 </metadata>
 <defs>
  <style type="text/css">*{stroke-linejoin: round; stroke-linecap: butt}</style>
 </defs>
 <g id="figure_1">
  <g id="patch_1">
   <path d="M 0 252 
L 432 252 
L 432 0 
L 0 0 
z
" style="fill: #ffffff"/>
  </g>
  <g id="axes_1">
   <g id="matplotlib.axis_1">
    <g id="xtick_1">
     <g id="line2d_1">
      <path d="M 62.165854 201.6 
L 62.165854 30.24 
" clip-path="url(#pcaa8247579)" style="fill: none; stroke: #ffffff; stroke-linecap: round"/>
     </g>
     <g id="text_1">
      <!-- $0 -->
      <g style="fill: #262626" transform="translate(55.142182 219.305312) scale(0.11 -0.11)">
       <defs>
        <path id="Montserrat-Regular-24" d="M 3635 1184 
Q 3635 691 3257 348 
Q 2880 6 2150 -32 
L 2150 -768 
L 1830 -768 
L 1830 -38 
Q 1363 -13 950 144 
Q 538 301 301 544 
L 486 909 
Q 710 691 1072 544 
Q 1434 397 1830 371 
L 1830 2054 
Q 1389 2163 1094 2288 
Q 800 2413 605 2653 
Q 410 2893 410 3290 
Q 410 3782 768 4118 
Q 1126 4454 1830 4512 
L 1830 5248 
L 2150 5248 
L 2150 4518 
Q 2515 4506 2857 4400 
Q 3200 4294 3450 4122 
L 3290 3744 
Q 3027 3910 2732 4006 
Q 2438 4102 2150 4115 
L 2150 2419 
Q 2624 2304 2925 2185 
Q 3226 2067 3430 1824 
Q 3635 1581 3635 1184 
z
M 877 3302 
Q 877 2970 1123 2797 
Q 1370 2624 1830 2502 
L 1830 4102 
Q 1357 4064 1117 3843 
Q 877 3622 877 3302 
z
M 2150 371 
Q 2656 410 2912 621 
Q 3168 832 3168 1158 
Q 3168 1504 2905 1677 
Q 2643 1850 2150 1971 
L 2150 371 
z
" transform="scale(0.015625)"/>
        <path id="Montserrat-Regular-30" d="M 2118 -38 
Q 1600 -38 1193 237 
Q 787 512 560 1027 
Q 333 1542 333 2240 
Q 333 2938 560 3453 
Q 787 3968 1193 4243 
Q 1600 4518 2118 4518 
Q 2637 4518 3043 4243 
Q 3450 3968 3680 3453 
Q 3910 2938 3910 2240 
Q 3910 1542 3680 1027 
Q 3450 512 3043 237 
Q 2637 -38 2118 -38 
z
M 2118 384 
Q 2509 384 2806 601 
Q 3104 819 3270 1235 
Q 3437 1651 3437 2240 
Q 3437 2829 3270 3245 
Q 3104 3661 2806 3878 
Q 2509 4096 2118 4096 
Q 1728 4096 1430 3878 
Q 1133 3661 966 3245 
Q 800 2829 800 2240 
Q 800 1651 966 1235 
Q 1133 819 1430 601 
Q 1728 384 2118 384 
z
" transform="scale(0.015625)"/>
       </defs>
       <use xlink:href="#Montserrat-Regular-24"/>
       <use xlink:href="#Montserrat-Regular-30" x="61.499985"/>
      </g>
     </g>
    </g>
    <g id="xtick_2">
     <g id="line2d_2">
      <path d="M 143.82439 201.6 
L 143.82439 30.24 
" clip-path="url(#pcaa8247579)" style="fill: none; stroke: #ffffff; stroke-linecap: round"/>
     </g>
     <g id="text_2">
      <!-- $50k -->
      <g style="fill: #262626" transform="translate(130.382906 219.305312) scale(0.11 -0.11)">
       <defs>
        <path id="Montserrat-Regular-35" d="M 1510 2643 
Q 2483 2643 2928 2294 
Q 3373 1946 3373 1318 
Q 3373 928 3190 621 
Q 3008 314 2643 138 
Q 2278 -38 1747 -38 
Q 1267 -38 835 118 
Q 403 275 141 538 
L 365 902 
Q 589 672 953 528 
Q 1318 384 1741 384 
Q 2298 384 2602 633 
Q 2906 883 2906 1299 
Q 2906 1760 2563 1997 
Q 2221 2234 1408 2234 
L 454 2234 
L 685 4480 
L 3136 4480 
L 3136 4070 
L 1088 4070 
L 934 2643 
L 1510 2643 
z
" transform="scale(0.015625)"/>
        <path id="Montserrat-Regular-6b" d="M 1882 1690 
L 1088 960 
L 1088 0 
L 634 0 
L 634 4749 
L 1088 4749 
L 1088 1530 
L 3098 3366 
L 3661 3366 
L 2221 1990 
L 3795 0 
L 3238 0 
L 1882 1690 
z
" transform="scale(0.015625)"/>
       </defs>
       <use xlink:href="#Montserrat-Regular-24"/>
       <use xlink:href="#Montserrat-Regular-35" x="61.499985"/>
       <use xlink:href="#Montserrat-Regular-30" x="118.099976"/>
       <use xlink:href="#Montserrat-Regular-6b" x="184.299973"/>
      </g>
     </g>
    </g>
    <g id="xtick_3">
     <g id="line2d_3">
      <path d="M 225.482927 201.6 
L 225.482927 30.24 
" clip-path="url(#pcaa8247579)" style="fill: none; stroke: #ffffff; stroke-linecap: round"/>
     </g>
     <g id="text_3">
      <!-- $100k -->
      <g style="fill: #262626" transform="translate(209.527771 219.305312) scale(0.11 -0.11)">
       <defs>
        <path id="Montserrat-Regular-31" d="M 1574 4480 
L 1574 0 
L 1114 0 
L 1114 4070 
L 58 4070 
L 58 4480 
L 1574 4480 
z
" transform="scale(0.015625)"/>
       </defs>
       <use xlink:href="#Montserrat-Regular-24"/>
       <use xlink:href="#Montserrat-Regular-31" x="61.499985"/>
       <use xlink:href="#Montserrat-Regular-30" x="97.599976"/>
       <use xlink:href="#Montserrat-Regular-30" x="163.799973"/>
       <use xlink:href="#Montserrat-Regular-6b" x="229.999969"/>
      </g>
     </g>
    </g>
    <g id="xtick_4">
     <g id="line2d_4">
      <path d="M 307.141463 201.6 
L 307.141463 30.24 
" clip-path="url(#pcaa8247579)" style="fill: none; stroke: #ffffff; stroke-linecap: round"/>
     </g>
     <g id="text_4">
      <!-- $150k -->
      <g style="fill: #262626" transform="translate(291.714823 219.305312) scale(0.11 -0.11)">
       <use xlink:href="#Montserrat-Regular-24"/>
       <use xlink:href="#Montserrat-Regular-31" x="61.499985"/>
       <use xlink:href="#Montserrat-Regular-35" x="97.599976"/>
       <use xlink:href="#Montserrat-Regular-30" x="154.199966"/>
       <use xlink:href="#Montserrat-Regular-6b" x="220.399963"/>
      </g>
     </g>
    </g>
    <g id="xtick_5">
     <g id="line2d_5">
      <path d="M 388.8 201.6 
L 388.8 30.24 
" clip-path="url(#pcaa8247579)" style="fill: none; stroke: #ffffff; stroke-linecap: round"/>
     </g>
     <g id="text_5">
      <!-- $200k -->
      <g style="fill: #262626" transform="translate(371.706172 219.305312) scale(0.11 -0.11)">
       <defs>
        <path id="Montserrat-Regular-32" d="M 3392 410 
L 3392 0 
L 250 0 
L 250 326 
L 2112 2150 
Q 2464 2496 2589 2749 
Q 2714 3002 2714 3258 
Q 2714 3654 2442 3875 
Q 2170 4096 1664 4096 
Q 877 4096 442 3597 
L 115 3878 
Q 378 4186 784 4352 
Q 1190 4518 1702 4518 
Q 2387 4518 2787 4195 
Q 3187 3872 3187 3309 
Q 3187 2963 3033 2643 
Q 2880 2323 2451 1907 
L 928 410 
L 3392 410 
z
" transform="scale(0.015625)"/>
       </defs>
       <use xlink:href="#Montserrat-Regular-24"/>
       <use xlink:href="#Montserrat-Regular-32" x="61.499985"/>
       <use xlink:href="#Montserrat-Regular-30" x="118.299973"/>
       <use xlink:href="#Montserrat-Regular-30" x="184.499969"/>
       <use xlink:href="#Montserrat-Regular-6b" x="250.699966"/>
      </g>
     </g>
    </g>
   </g>
   <g id="matplotlib.axis_2">
    <g id="ytick_1">
     <g id="line2d_6">
      <path d="M 54 196.837548 
L 388.8 196.837548 
" clip-path="url(#pcaa8247579)" style="fill: none; stroke: #ffffff; stroke-linecap: round"/>
     </g>
     <g id="text_6">
      <!-- 0% -->
      <g style="fill: #262626" transform="translate(28.097969 200.91872) scale(0.11 -0.11)">
       <defs>
        <path id="Montserrat-Regular-25" d="M 1280 2080 
Q 826 2080 547 2416 
Q 269 2752 269 3296 
Q 269 3840 547 4176 
Q 826 4512 1280 4512 
Q 1728 4512 2009 4179 
Q 2291 3846 2291 3296 
Q 2291 2746 2009 2413 
Q 1728 2080 1280 2080 
z
M 3994 4480 
L 4371 4480 
L 1312 0 
L 934 0 
L 3994 4480 
z
M 1280 2368 
Q 1594 2368 1782 2614 
Q 1971 2861 1971 3296 
Q 1971 3731 1782 3977 
Q 1594 4224 1280 4224 
Q 960 4224 774 3974 
Q 589 3725 589 3296 
Q 589 2867 774 2617 
Q 960 2368 1280 2368 
z
M 4026 -32 
Q 3578 -32 3296 304 
Q 3014 640 3014 1184 
Q 3014 1728 3296 2064 
Q 3578 2400 4026 2400 
Q 4480 2400 4758 2064 
Q 5037 1728 5037 1184 
Q 5037 640 4758 304 
Q 4480 -32 4026 -32 
z
M 4026 256 
Q 4346 256 4531 505 
Q 4717 755 4717 1184 
Q 4717 1613 4531 1862 
Q 4346 2112 4026 2112 
Q 3712 2112 3523 1865 
Q 3334 1619 3334 1184 
Q 3334 749 3523 502 
Q 3712 256 4026 256 
z
" transform="scale(0.015625)"/>
       </defs>
       <use xlink:href="#Montserrat-Regular-30"/>
       <use xlink:href="#Montserrat-Regular-25" x="66.199997"/>
      </g>
     </g>
    </g>
    <g id="ytick_2">
     <g id="line2d_7">
      <path d="M 54 147.200672 
L 388.8 147.200672 
" clip-path="url(#pcaa8247579)" style="fill: none; stroke: #ffffff; stroke-linecap: round"/>
     </g>
     <g id="text_7">
      <!-- 20% -->
      <g style="fill: #262626" transform="translate(21.850313 151.281844) scale(0.11 -0.11)">
       <use xlink:href="#Montserrat-Regular-32"/>
       <use xlink:href="#Montserrat-Regular-30" x="56.799988"/>
       <use xlink:href="#Montserrat-Regular-25" x="122.999985"/>
      </g>
     </g>
    </g>
    <g id="ytick_3">
     <g id="line2d_8">
      <path d="M 54 97.563796 
L 388.8 97.563796 
" clip-path="url(#pcaa8247579)" style="fill: none; stroke: #ffffff; stroke-linecap: round"/>
     </g>
     <g id="text_8">
      <!-- 40% -->
      <g style="fill: #262626" transform="translate(20.827656 101.644968) scale(0.11 -0.11)">
       <defs>
        <path id="Montserrat-Regular-34" d="M 4141 1178 
L 3245 1178 
L 3245 0 
L 2784 0 
L 2784 1178 
L 256 1178 
L 256 1510 
L 2630 4480 
L 3142 4480 
L 851 1587 
L 2797 1587 
L 2797 2624 
L 3245 2624 
L 3245 1587 
L 4141 1587 
L 4141 1178 
z
" transform="scale(0.015625)"/>
       </defs>
       <use xlink:href="#Montserrat-Regular-34"/>
       <use xlink:href="#Montserrat-Regular-30" x="66.099991"/>
       <use xlink:href="#Montserrat-Regular-25" x="132.299988"/>
      </g>
     </g>
    </g>
    <g id="ytick_4">
     <g id="line2d_9">
      <path d="M 54 47.92692 
L 388.8 47.92692 
" clip-path="url(#pcaa8247579)" style="fill: none; stroke: #ffffff; stroke-linecap: round"/>
     </g>
     <g id="text_9">
      <!-- 60% -->
      <g style="fill: #262626" transform="translate(21.398281 52.008092) scale(0.11 -0.11)">
       <defs>
        <path id="Montserrat-Regular-36" d="M 2189 2682 
Q 2630 2682 2972 2515 
Q 3315 2349 3507 2045 
Q 3699 1741 3699 1338 
Q 3699 928 3500 614 
Q 3302 301 2953 131 
Q 2605 -38 2170 -38 
Q 1280 -38 806 547 
Q 333 1133 333 2202 
Q 333 2950 589 3468 
Q 845 3987 1305 4252 
Q 1766 4518 2381 4518 
Q 3046 4518 3443 4275 
L 3258 3904 
Q 2938 4115 2387 4115 
Q 1645 4115 1222 3644 
Q 800 3174 800 2278 
Q 800 2118 819 1914 
Q 986 2278 1350 2480 
Q 1715 2682 2189 2682 
z
M 2150 352 
Q 2637 352 2941 617 
Q 3245 883 3245 1325 
Q 3245 1766 2941 2028 
Q 2637 2291 2118 2291 
Q 1779 2291 1520 2163 
Q 1261 2035 1113 1811 
Q 966 1587 966 1312 
Q 966 1056 1104 838 
Q 1242 621 1510 486 
Q 1779 352 2150 352 
z
" transform="scale(0.015625)"/>
       </defs>
       <use xlink:href="#Montserrat-Regular-36"/>
       <use xlink:href="#Montserrat-Regular-30" x="60.899994"/>
       <use xlink:href="#Montserrat-Regular-25" x="127.099991"/>
      </g>
     </g>
    </g>
   </g>
   <g id="line2d_10">
    <defs>
     <path id="m25af9985d7" d="M 0 0.5 
C 0.132602 0.5 0.25979 0.447317 0.353553 0.353553 
C 0.447317 0.25979 0.5 0.132602 0.5 0 
C 0.5 -0.132602 0.447317 -0.25979 0.353553 -0.353553 
C 0.25979 -0.447317 0.132602 -0.5 0 -0.5 
C -0.132602 -0.5 -0.25979 -0.447317 -0.353553 -0.353553 
C -0.447317 -0.25979 -0.5 -0.132602 -0.5 0 
C -0.5 0.132602 -0.447317 0.25979 -0.353553 0.353553 
C -0.25979 0.447317 -0.132602 0.5 0 0.5 
z
" style="stroke: #4c72b0"/>
    </defs>
    <g clip-path="url(#pcaa8247579)">
     <use xlink:href="#m25af9985d7" x="62.165854" y="94.555501" style="fill: #4c72b0; stroke: #4c72b0"/>
     <use xlink:href="#m25af9985d7" x="63.799024" y="117.786227" style="fill: #4c72b0; stroke: #4c72b0"/>
     <use xlink:href="#m25af9985d7" x="67.065366" y="127.224856" style="fill: #4c72b0; stroke: #4c72b0"/>
     <use xlink:href="#m25af9985d7" x="68.698537" y="112.632133" style="fill: #4c72b0; stroke: #4c72b0"/>
     <use xlink:href="#m25af9985d7" x="70.331707" y="121.729117" style="fill: #4c72b0; stroke: #4c72b0"/>
     <use xlink:href="#m25af9985d7" x="71.964878" y="159.07036" style="fill: #4c72b0; stroke: #4c72b0"/>
     <use xlink:href="#m25af9985d7" x="73.598049" y="134.791453" style="fill: #4c72b0; stroke: #4c72b0"/>
     <use xlink:href="#m25af9985d7" x="75.23122" y="134.791453" style="fill: #4c72b0; stroke: #4c72b0"/>
     <use xlink:href="#m25af9985d7" x="78.497561" y="129.986537" style="fill: #4c72b0; stroke: #4c72b0"/>
     <use xlink:href="#m25af9985d7" x="82.580488" y="150.732149" style="fill: #4c72b0; stroke: #4c72b0"/>
     <use xlink:href="#m25af9985d7" x="86.663415" y="153.73184" style="fill: #4c72b0; stroke: #4c72b0"/>
     <use xlink:href="#m25af9985d7" x="90.746341" y="145.489056" style="fill: #4c72b0; stroke: #4c72b0"/>
     <use xlink:href="#m25af9985d7" x="94.829268" y="143.489504" style="fill: #4c72b0; stroke: #4c72b0"/>
     <use xlink:href="#m25af9985d7" x="98.912195" y="151.780265" style="fill: #4c72b0; stroke: #4c72b0"/>
     <use xlink:href="#m25af9985d7" x="102.995122" y="162.695781" style="fill: #4c72b0; stroke: #4c72b0"/>
     <use xlink:href="#m25af9985d7" x="111.160976" y="156.308356" style="fill: #4c72b0; stroke: #4c72b0"/>
     <use xlink:href="#m25af9985d7" x="119.326829" y="161.691612" style="fill: #4c72b0; stroke: #4c72b0"/>
     <use xlink:href="#m25af9985d7" x="127.492683" y="166.615834" style="fill: #4c72b0; stroke: #4c72b0"/>
     <use xlink:href="#m25af9985d7" x="143.82439" y="177.881044" style="fill: #4c72b0; stroke: #4c72b0"/>
     <use xlink:href="#m25af9985d7" x="160.156098" y="181.647145" style="fill: #4c72b0; stroke: #4c72b0"/>
     <use xlink:href="#m25af9985d7" x="184.653659" y="180.984933" style="fill: #4c72b0; stroke: #4c72b0"/>
     <use xlink:href="#m25af9985d7" x="209.15122" y="189.381365" style="fill: #4c72b0; stroke: #4c72b0"/>
     <use xlink:href="#m25af9985d7" x="241.814634" y="184.295305" style="fill: #4c72b0; stroke: #4c72b0"/>
     <use xlink:href="#m25af9985d7" x="274.478049" y="190.857201" style="fill: #4c72b0; stroke: #4c72b0"/>
     <use xlink:href="#m25af9985d7" x="307.141463" y="190.383581" style="fill: #4c72b0; stroke: #4c72b0"/>
     <use xlink:href="#m25af9985d7" x="339.804878" y="191.759042" style="fill: #4c72b0; stroke: #4c72b0"/>
    </g>
   </g>
   <g id="line2d_11">
    <path d="M 62.165854 108.133866 
L 63.799024 111.219819 
L 67.065366 117.355422 
L 68.698537 120.410162 
L 70.331707 123.446364 
L 71.964878 126.453337 
L 73.598049 129.418259 
L 75.23122 132.321931 
L 78.497561 137.821553 
L 82.580488 141.1548 
L 86.663415 144.447096 
L 90.746341 147.864089 
L 94.829268 150.544482 
L 98.912195 152.432319 
L 102.995122 154.353412 
L 111.160976 158.394883 
L 119.326829 162.955339 
L 127.492683 167.041325 
L 143.82439 172.834207 
L 160.156098 177.141655 
L 184.653659 181.543039 
L 209.15122 184.017825 
L 241.814634 186.548232 
L 274.478049 188.699755 
L 307.141463 190.796086 
L 339.804878 192.784848 
" clip-path="url(#pcaa8247579)" style="fill: none; stroke: #4c72b0; stroke-width: 1.5; stroke-linecap: round"/>
   </g>
   <g id="line2d_12">
    <defs>
     <path id="m2d8b48e7cd" d="M 0 0.5 
C 0.132602 0.5 0.25979 0.447317 0.353553 0.353553 
C 0.447317 0.25979 0.5 0.132602 0.5 0 
C 0.5 -0.132602 0.447317 -0.25979 0.353553 -0.353553 
C 0.25979 -0.447317 0.132602 -0.5 0 -0.5 
C -0.132602 -0.5 -0.25979 -0.447317 -0.353553 -0.353553 
C -0.447317 -0.25979 -0.5 -0.132602 -0.5 0 
C -0.5 0.132602 -0.447317 0.25979 -0.353553 0.353553 
C -0.25979 0.447317 -0.132602 0.5 0 0.5 
z
" style="stroke: #dd8452"/>
    </defs>
    <g clip-path="url(#pcaa8247579)">
     <use xlink:href="#m2d8b48e7cd" x="62.165854" y="88.53891" style="fill: #dd8452; stroke: #dd8452"/>
     <use xlink:href="#m2d8b48e7cd" x="63.799024" y="53.442129" style="fill: #dd8452; stroke: #dd8452"/>
     <use xlink:href="#m2d8b48e7cd" x="67.065366" y="57.612164" style="fill: #dd8452; stroke: #dd8452"/>
     <use xlink:href="#m2d8b48e7cd" x="68.698537" y="77.177222" style="fill: #dd8452; stroke: #dd8452"/>
     <use xlink:href="#m2d8b48e7cd" x="70.331707" y="76.010942" style="fill: #dd8452; stroke: #dd8452"/>
     <use xlink:href="#m2d8b48e7cd" x="71.964878" y="78.140671" style="fill: #dd8452; stroke: #dd8452"/>
     <use xlink:href="#m2d8b48e7cd" x="73.598049" y="68.867477" style="fill: #dd8452; stroke: #dd8452"/>
     <use xlink:href="#m2d8b48e7cd" x="75.23122" y="45.169316" style="fill: #dd8452; stroke: #dd8452"/>
     <use xlink:href="#m2d8b48e7cd" x="78.497561" y="62.299888" style="fill: #dd8452; stroke: #dd8452"/>
     <use xlink:href="#m2d8b48e7cd" x="82.580488" y="48.711693" style="fill: #dd8452; stroke: #dd8452"/>
     <use xlink:href="#m2d8b48e7cd" x="86.663415" y="41.395752" style="fill: #dd8452; stroke: #dd8452"/>
     <use xlink:href="#m2d8b48e7cd" x="90.746341" y="41.569488" style="fill: #dd8452; stroke: #dd8452"/>
     <use xlink:href="#m2d8b48e7cd" x="94.829268" y="51.483457" style="fill: #dd8452; stroke: #dd8452"/>
     <use xlink:href="#m2d8b48e7cd" x="98.912195" y="38.029091" style="fill: #dd8452; stroke: #dd8452"/>
     <use xlink:href="#m2d8b48e7cd" x="102.995122" y="43.199599" style="fill: #dd8452; stroke: #dd8452"/>
     <use xlink:href="#m2d8b48e7cd" x="111.160976" y="47.016152" style="fill: #dd8452; stroke: #dd8452"/>
     <use xlink:href="#m2d8b48e7cd" x="119.326829" y="55.17239" style="fill: #dd8452; stroke: #dd8452"/>
     <use xlink:href="#m2d8b48e7cd" x="127.492683" y="58.855581" style="fill: #dd8452; stroke: #dd8452"/>
     <use xlink:href="#m2d8b48e7cd" x="143.82439" y="56.851059" style="fill: #dd8452; stroke: #dd8452"/>
     <use xlink:href="#m2d8b48e7cd" x="160.156098" y="65.932016" style="fill: #dd8452; stroke: #dd8452"/>
     <use xlink:href="#m2d8b48e7cd" x="184.653659" y="72.875298" style="fill: #dd8452; stroke: #dd8452"/>
     <use xlink:href="#m2d8b48e7cd" x="209.15122" y="84.994802" style="fill: #dd8452; stroke: #dd8452"/>
     <use xlink:href="#m2d8b48e7cd" x="241.814634" y="107.901645" style="fill: #dd8452; stroke: #dd8452"/>
     <use xlink:href="#m2d8b48e7cd" x="274.478049" y="106.135626" style="fill: #dd8452; stroke: #dd8452"/>
     <use xlink:href="#m2d8b48e7cd" x="307.141463" y="114.696146" style="fill: #dd8452; stroke: #dd8452"/>
     <use xlink:href="#m2d8b48e7cd" x="339.804878" y="137.441108" style="fill: #dd8452; stroke: #dd8452"/>
    </g>
   </g>
   <g id="line2d_13">
    <path d="M 62.165854 88.428157 
L 63.799024 85.538432 
L 67.065366 79.701652 
L 68.698537 76.751627 
L 70.331707 73.787342 
L 71.964878 70.819528 
L 73.598049 67.857822 
L 75.23122 64.900591 
L 78.497561 58.883397 
L 82.580488 53.812662 
L 86.663415 49.471554 
L 90.746341 46.420557 
L 94.829268 44.954504 
L 98.912195 45.475938 
L 102.995122 46.598665 
L 111.160976 49.766305 
L 119.326829 52.131723 
L 127.492683 54.668287 
L 143.82439 60.051136 
L 160.156098 65.812235 
L 184.653659 76.130921 
L 209.15122 85.424917 
L 241.814634 96.625254 
L 274.478049 109.057239 
L 307.141463 121.316134 
L 339.804878 133.412722 
" clip-path="url(#pcaa8247579)" style="fill: none; stroke: #dd8452; stroke-width: 1.5; stroke-linecap: round"/>
   </g>
   <g id="line2d_14">
    <defs>
     <path id="m3bd309424b" d="M 0 0.5 
C 0.132602 0.5 0.25979 0.447317 0.353553 0.353553 
C 0.447317 0.25979 0.5 0.132602 0.5 0 
C 0.5 -0.132602 0.447317 -0.25979 0.353553 -0.353553 
C 0.25979 -0.447317 0.132602 -0.5 0 -0.5 
C -0.132602 -0.5 -0.25979 -0.447317 -0.353553 -0.353553 
C -0.447317 -0.25979 -0.5 -0.132602 -0.5 0 
C -0.5 0.132602 -0.447317 0.25979 -0.353553 0.353553 
C -0.25979 0.447317 -0.132602 0.5 0 0.5 
z
" style="stroke: #55a868"/>
    </defs>
    <g clip-path="url(#pcaa8247579)">
     <use xlink:href="#m3bd309424b" x="62.165854" y="186.308514" style="fill: #55a868; stroke: #55a868"/>
     <use xlink:href="#m3bd309424b" x="63.799024" y="191.322339" style="fill: #55a868; stroke: #55a868"/>
     <use xlink:href="#m3bd309424b" x="67.065366" y="166.57116" style="fill: #55a868; stroke: #55a868"/>
     <use xlink:href="#m3bd309424b" x="68.698537" y="174.678228" style="fill: #55a868; stroke: #55a868"/>
     <use xlink:href="#m3bd309424b" x="70.331707" y="170.712876" style="fill: #55a868; stroke: #55a868"/>
     <use xlink:href="#m3bd309424b" x="71.964878" y="137.489109" style="fill: #55a868; stroke: #55a868"/>
     <use xlink:href="#m3bd309424b" x="73.598049" y="192.959667" style="fill: #55a868; stroke: #55a868"/>
     <use xlink:href="#m3bd309424b" x="75.23122" y="184.773029" style="fill: #55a868; stroke: #55a868"/>
     <use xlink:href="#m3bd309424b" x="78.497561" y="172.604056" style="fill: #55a868; stroke: #55a868"/>
     <use xlink:href="#m3bd309424b" x="82.580488" y="172.3134" style="fill: #55a868; stroke: #55a868"/>
     <use xlink:href="#m3bd309424b" x="86.663415" y="174.631577" style="fill: #55a868; stroke: #55a868"/>
     <use xlink:href="#m3bd309424b" x="90.746341" y="177.276217" style="fill: #55a868; stroke: #55a868"/>
     <use xlink:href="#m3bd309424b" x="94.829268" y="171.323266" style="fill: #55a868; stroke: #55a868"/>
     <use xlink:href="#m3bd309424b" x="98.912195" y="180.58738" style="fill: #55a868; stroke: #55a868"/>
     <use xlink:href="#m3bd309424b" x="102.995122" y="173.857513" style="fill: #55a868; stroke: #55a868"/>
     <use xlink:href="#m3bd309424b" x="111.160976" y="179.532949" style="fill: #55a868; stroke: #55a868"/>
     <use xlink:href="#m3bd309424b" x="119.326829" y="174.127866" style="fill: #55a868; stroke: #55a868"/>
     <use xlink:href="#m3bd309424b" x="127.492683" y="169.668532" style="fill: #55a868; stroke: #55a868"/>
     <use xlink:href="#m3bd309424b" x="143.82439" y="171.173358" style="fill: #55a868; stroke: #55a868"/>
     <use xlink:href="#m3bd309424b" x="160.156098" y="161.318811" style="fill: #55a868; stroke: #55a868"/>
     <use xlink:href="#m3bd309424b" x="184.653659" y="169.290381" style="fill: #55a868; stroke: #55a868"/>
     <use xlink:href="#m3bd309424b" x="209.15122" y="171.007199" style="fill: #55a868; stroke: #55a868"/>
     <use xlink:href="#m3bd309424b" x="241.814634" y="182.775033" style="fill: #55a868; stroke: #55a868"/>
     <use xlink:href="#m3bd309424b" x="274.478049" y="168.430902" style="fill: #55a868; stroke: #55a868"/>
     <use xlink:href="#m3bd309424b" x="307.141463" y="166.914609" style="fill: #55a868; stroke: #55a868"/>
     <use xlink:href="#m3bd309424b" x="339.804878" y="179.173179" style="fill: #55a868; stroke: #55a868"/>
    </g>
   </g>
   <g id="line2d_15">
    <path d="M 62.165854 183.053105 
L 63.799024 182.267384 
L 67.065366 180.769439 
L 68.698537 180.021369 
L 70.331707 179.255613 
L 71.964878 178.472234 
L 73.598049 177.692303 
L 75.23122 176.964398 
L 78.497561 176.217755 
L 82.580488 175.906654 
L 86.663415 175.573144 
L 90.746341 175.361764 
L 94.829268 175.632094 
L 98.912195 175.946964 
L 102.995122 175.765643 
L 111.160976 174.696387 
L 119.326829 173.704115 
L 127.492683 171.859558 
L 143.82439 169.602594 
L 160.156098 169.405148 
L 184.653659 170.667292 
L 209.15122 171.272606 
L 241.814634 171.198564 
L 274.478049 172.491537 
L 307.141463 173.576398 
L 339.804878 174.506451 
" clip-path="url(#pcaa8247579)" style="fill: none; stroke: #55a868; stroke-width: 1.5; stroke-linecap: round"/>
   </g>
   <g id="line2d_16">
    <defs>
     <path id="m8716df9090" d="M 0 0.5 
C 0.132602 0.5 0.25979 0.447317 0.353553 0.353553 
C 0.447317 0.25979 0.5 0.132602 0.5 0 
C 0.5 -0.132602 0.447317 -0.25979 0.353553 -0.353553 
C 0.25979 -0.447317 0.132602 -0.5 0 -0.5 
C -0.132602 -0.5 -0.25979 -0.447317 -0.353553 -0.353553 
C -0.447317 -0.25979 -0.5 -0.132602 -0.5 0 
C -0.5 0.132602 -0.447317 0.25979 -0.353553 0.353553 
C -0.25979 0.447317 -0.132602 0.5 0 0.5 
z
" style="stroke: #c44e52"/>
    </defs>
    <g clip-path="url(#pcaa8247579)">
     <use xlink:href="#m8716df9090" x="62.165854" y="183.300218" style="fill: #c44e52; stroke: #c44e52"/>
     <use xlink:href="#m8716df9090" x="63.799024" y="180.291923" style="fill: #c44e52; stroke: #c44e52"/>
     <use xlink:href="#m8716df9090" x="67.065366" y="190.78427" style="fill: #c44e52; stroke: #c44e52"/>
     <use xlink:href="#m8716df9090" x="68.698537" y="192.405684" style="fill: #c44e52; stroke: #c44e52"/>
     <use xlink:href="#m8716df9090" x="70.331707" y="177.244044" style="fill: #c44e52; stroke: #c44e52"/>
     <use xlink:href="#m8716df9090" x="71.964878" y="175.256297" style="fill: #c44e52; stroke: #c44e52"/>
     <use xlink:href="#m8716df9090" x="73.598049" y="173.570262" style="fill: #c44e52; stroke: #c44e52"/>
     <use xlink:href="#m8716df9090" x="75.23122" y="181.326024" style="fill: #c44e52; stroke: #c44e52"/>
     <use xlink:href="#m8716df9090" x="78.497561" y="177.617882" style="fill: #c44e52; stroke: #c44e52"/>
     <use xlink:href="#m8716df9090" x="82.580488" y="173.294366" style="fill: #c44e52; stroke: #c44e52"/>
     <use xlink:href="#m8716df9090" x="86.663415" y="177.244044" style="fill: #c44e52; stroke: #c44e52"/>
     <use xlink:href="#m8716df9090" x="90.746341" y="183.389133" style="fill: #c44e52; stroke: #c44e52"/>
     <use xlink:href="#m8716df9090" x="94.829268" y="180.601187" style="fill: #c44e52; stroke: #c44e52"/>
     <use xlink:href="#m8716df9090" x="98.912195" y="178.371448" style="fill: #c44e52; stroke: #c44e52"/>
     <use xlink:href="#m8716df9090" x="102.995122" y="171.231223" style="fill: #c44e52; stroke: #c44e52"/>
     <use xlink:href="#m8716df9090" x="111.160976" y="169.059113" style="fill: #c44e52; stroke: #c44e52"/>
     <use xlink:href="#m8716df9090" x="119.326829" y="162.773025" style="fill: #c44e52; stroke: #c44e52"/>
     <use xlink:href="#m8716df9090" x="127.492683" y="158.678818" style="fill: #c44e52; stroke: #c44e52"/>
     <use xlink:href="#m8716df9090" x="143.82439" y="151.633577" style="fill: #c44e52; stroke: #c44e52"/>
     <use xlink:href="#m8716df9090" x="160.156098" y="149.702621" style="fill: #c44e52; stroke: #c44e52"/>
     <use xlink:href="#m8716df9090" x="184.653659" y="143.822246" style="fill: #c44e52; stroke: #c44e52"/>
     <use xlink:href="#m8716df9090" x="209.15122" y="137.720668" style="fill: #c44e52; stroke: #c44e52"/>
     <use xlink:href="#m8716df9090" x="241.814634" y="121.964159" style="fill: #c44e52; stroke: #c44e52"/>
     <use xlink:href="#m8716df9090" x="274.478049" y="130.057012" style="fill: #c44e52; stroke: #c44e52"/>
     <use xlink:href="#m8716df9090" x="307.141463" y="125.257183" style="fill: #c44e52; stroke: #c44e52"/>
     <use xlink:href="#m8716df9090" x="339.804878" y="113.152601" style="fill: #c44e52; stroke: #c44e52"/>
    </g>
   </g>
   <g id="line2d_17">
    <path d="M 62.165854 183.070619 
L 63.799024 182.413499 
L 67.065366 181.140942 
L 68.698537 180.537296 
L 70.331707 179.957813 
L 71.964878 179.39663 
L 73.598049 178.845577 
L 75.23122 178.298797 
L 78.497561 177.314226 
L 82.580488 178.056195 
L 86.663415 178.310124 
L 90.746341 177.783247 
L 94.829268 176.745012 
L 98.912195 174.946048 
L 102.995122 172.95628 
L 111.160976 168.442389 
L 119.326829 164.047333 
L 127.492683 160.709886 
L 143.82439 155.020052 
L 160.156098 150.346276 
L 184.653659 143.200038 
L 209.15122 138.983767 
L 241.814634 133.714994 
L 274.478049 127.591962 
L 307.141463 121.642821 
L 339.804878 115.800181 
" clip-path="url(#pcaa8247579)" style="fill: none; stroke: #c44e52; stroke-width: 1.5; stroke-linecap: round"/>
   </g>
   <g id="line2d_18">
    <defs>
     <path id="m3da2014aca" d="M 0 0.5 
C 0.132602 0.5 0.25979 0.447317 0.353553 0.353553 
C 0.447317 0.25979 0.5 0.132602 0.5 0 
C 0.5 -0.132602 0.447317 -0.25979 0.353553 -0.353553 
C 0.25979 -0.447317 0.132602 -0.5 0 -0.5 
C -0.132602 -0.5 -0.25979 -0.447317 -0.353553 -0.353553 
C -0.447317 -0.25979 -0.5 -0.132602 -0.5 0 
C -0.5 0.132602 -0.447317 0.25979 -0.353553 0.353553 
C -0.25979 0.447317 -0.132602 0.5 0 0.5 
z
" style="stroke: #8172b3"/>
    </defs>
    <g clip-path="url(#pcaa8247579)">
     <use xlink:href="#m3da2014aca" x="62.165854" y="183.300218" style="fill: #8172b3; stroke: #8172b3"/>
     <use xlink:href="#m3da2014aca" x="63.799024" y="193.160742" style="fill: #8172b3; stroke: #8172b3"/>
     <use xlink:href="#m3da2014aca" x="67.065366" y="193.810909" style="fill: #8172b3; stroke: #8172b3"/>
     <use xlink:href="#m3da2014aca" x="68.698537" y="179.110092" style="fill: #8172b3; stroke: #8172b3"/>
     <use xlink:href="#m3da2014aca" x="70.331707" y="190.30638" style="fill: #8172b3; stroke: #8172b3"/>
     <use xlink:href="#m3da2014aca" x="71.964878" y="186.046923" style="fill: #8172b3; stroke: #8172b3"/>
     <use xlink:href="#m3da2014aca" x="73.598049" y="165.8145" style="fill: #8172b3; stroke: #8172b3"/>
     <use xlink:href="#m3da2014aca" x="75.23122" y="189.943537" style="fill: #8172b3; stroke: #8172b3"/>
     <use xlink:href="#m3da2014aca" x="78.497561" y="193.494997" style="fill: #8172b3; stroke: #8172b3"/>
     <use xlink:href="#m3da2014aca" x="82.580488" y="190.951752" style="fill: #8172b3; stroke: #8172b3"/>
     <use xlink:href="#m3da2014aca" x="86.663415" y="189.000146" style="fill: #8172b3; stroke: #8172b3"/>
     <use xlink:href="#m3da2014aca" x="90.746341" y="188.279466" style="fill: #8172b3; stroke: #8172b3"/>
     <use xlink:href="#m3da2014aca" x="94.829268" y="189.105947" style="fill: #8172b3; stroke: #8172b3"/>
     <use xlink:href="#m3da2014aca" x="98.912195" y="187.235176" style="fill: #8172b3; stroke: #8172b3"/>
     <use xlink:href="#m3da2014aca" x="102.995122" y="185.019244" style="fill: #8172b3; stroke: #8172b3"/>
     <use xlink:href="#m3da2014aca" x="111.160976" y="184.086791" style="fill: #8172b3; stroke: #8172b3"/>
     <use xlink:href="#m3da2014aca" x="119.326829" y="182.238467" style="fill: #8172b3; stroke: #8172b3"/>
     <use xlink:href="#m3da2014aca" x="127.492683" y="182.184596" style="fill: #8172b3; stroke: #8172b3"/>
     <use xlink:href="#m3da2014aca" x="143.82439" y="178.464321" style="fill: #8172b3; stroke: #8172b3"/>
     <use xlink:href="#m3da2014aca" x="160.156098" y="177.402767" style="fill: #8172b3; stroke: #8172b3"/>
     <use xlink:href="#m3da2014aca" x="184.653659" y="169.030502" style="fill: #8172b3; stroke: #8172b3"/>
     <use xlink:href="#m3da2014aca" x="209.15122" y="152.899326" style="fill: #8172b3; stroke: #8172b3"/>
     <use xlink:href="#m3da2014aca" x="241.814634" y="139.067218" style="fill: #8172b3; stroke: #8172b3"/>
     <use xlink:href="#m3da2014aca" x="274.478049" y="140.522618" style="fill: #8172b3; stroke: #8172b3"/>
     <use xlink:href="#m3da2014aca" x="307.141463" y="138.751842" style="fill: #8172b3; stroke: #8172b3"/>
     <use xlink:href="#m3da2014aca" x="339.804878" y="114.477429" style="fill: #8172b3; stroke: #8172b3"/>
    </g>
   </g>
   <g id="line2d_19">
    <path d="M 62.165854 187.746541 
L 63.799024 188.003747 
L 67.065366 188.524941 
L 68.698537 188.786892 
L 70.331707 189.04082 
L 71.964878 189.278566 
L 73.598049 189.489185 
L 75.23122 189.662075 
L 78.497561 189.888604 
L 82.580488 189.73122 
L 86.663415 189.539389 
L 90.746341 188.78657 
L 94.829268 187.841333 
L 98.912195 186.885956 
L 102.995122 186.011547 
L 111.160976 184.45663 
L 119.326829 182.955244 
L 127.492683 181.695005 
L 143.82439 178.661871 
L 160.156098 173.570083 
L 184.653659 164.537988 
L 209.15122 157.082219 
L 241.814634 147.806165 
L 274.478049 137.434827 
L 307.141463 127.28772 
L 339.804878 117.316644 
" clip-path="url(#pcaa8247579)" style="fill: none; stroke: #8172b3; stroke-width: 1.5; stroke-linecap: round"/>
   </g>
   <g id="text_10">
    <!-- &lt;high school -->
    <g style="fill: #4c72b0" transform="translate(344.70439 196.837548) scale(0.12 -0.12)">
     <defs>
      <path id="Montserrat-Regular-3c" d="M 3232 3168 
L 877 2240 
L 3232 1312 
L 3232 915 
L 448 2029 
L 448 2451 
L 3232 3571 
L 3232 3168 
z
" transform="scale(0.015625)"/>
      <path id="Montserrat-Regular-68" d="M 2349 3392 
Q 2982 3392 3356 3024 
Q 3731 2656 3731 1952 
L 3731 0 
L 3277 0 
L 3277 1907 
Q 3277 2432 3014 2707 
Q 2752 2982 2266 2982 
Q 1722 2982 1405 2659 
Q 1088 2336 1088 1766 
L 1088 0 
L 634 0 
L 634 4749 
L 1088 4749 
L 1088 2778 
Q 1274 3072 1600 3232 
Q 1926 3392 2349 3392 
z
" transform="scale(0.015625)"/>
      <path id="Montserrat-Regular-69" d="M 634 3366 
L 1088 3366 
L 1088 0 
L 634 0 
L 634 3366 
z
M 864 4102 
Q 723 4102 627 4198 
Q 531 4294 531 4429 
Q 531 4557 627 4653 
Q 723 4749 864 4749 
Q 1005 4749 1101 4656 
Q 1197 4563 1197 4435 
Q 1197 4294 1101 4198 
Q 1005 4102 864 4102 
z
" transform="scale(0.015625)"/>
      <path id="Montserrat-Regular-67" d="M 3750 3366 
L 3750 410 
Q 3750 -448 3331 -861 
Q 2912 -1274 2067 -1274 
Q 1600 -1274 1181 -1136 
Q 762 -998 499 -755 
L 730 -410 
Q 973 -627 1321 -748 
Q 1670 -870 2054 -870 
Q 2694 -870 2995 -572 
Q 3296 -275 3296 352 
L 3296 781 
Q 3085 461 2742 294 
Q 2400 128 1984 128 
Q 1510 128 1123 336 
Q 736 544 515 918 
Q 294 1293 294 1766 
Q 294 2240 515 2611 
Q 736 2982 1120 3187 
Q 1504 3392 1984 3392 
Q 2413 3392 2758 3219 
Q 3104 3046 3315 2720 
L 3315 3366 
L 3750 3366 
z
M 2029 531 
Q 2394 531 2688 688 
Q 2982 845 3145 1126 
Q 3309 1408 3309 1766 
Q 3309 2125 3145 2403 
Q 2982 2682 2691 2838 
Q 2400 2995 2029 2995 
Q 1664 2995 1373 2841 
Q 1082 2688 918 2406 
Q 755 2125 755 1766 
Q 755 1408 918 1126 
Q 1082 845 1373 688 
Q 1664 531 2029 531 
z
" transform="scale(0.015625)"/>
      <path id="Montserrat-Regular-20" transform="scale(0.015625)"/>
      <path id="Montserrat-Regular-73" d="M 1536 -32 
Q 1126 -32 752 86 
Q 378 205 166 384 
L 371 742 
Q 582 576 902 470 
Q 1222 365 1568 365 
Q 2029 365 2249 509 
Q 2470 653 2470 915 
Q 2470 1101 2348 1206 
Q 2227 1312 2041 1366 
Q 1856 1421 1549 1472 
Q 1139 1549 889 1629 
Q 640 1709 464 1901 
Q 288 2093 288 2432 
Q 288 2854 640 3123 
Q 992 3392 1619 3392 
Q 1946 3392 2272 3305 
Q 2598 3219 2810 3078 
L 2611 2714 
Q 2195 3002 1619 3002 
Q 1184 3002 963 2848 
Q 742 2694 742 2445 
Q 742 2253 867 2137 
Q 992 2022 1177 1968 
Q 1363 1914 1690 1856 
Q 2093 1779 2336 1702 
Q 2579 1626 2752 1440 
Q 2925 1254 2925 928 
Q 2925 486 2557 227 
Q 2189 -32 1536 -32 
z
" transform="scale(0.015625)"/>
      <path id="Montserrat-Regular-63" d="M 2029 -32 
Q 1530 -32 1136 185 
Q 742 403 518 796 
Q 294 1190 294 1683 
Q 294 2176 518 2566 
Q 742 2957 1136 3174 
Q 1530 3392 2029 3392 
Q 2464 3392 2806 3222 
Q 3149 3053 3347 2726 
L 3008 2496 
Q 2842 2746 2586 2870 
Q 2330 2995 2029 2995 
Q 1664 2995 1373 2832 
Q 1082 2669 918 2368 
Q 755 2067 755 1683 
Q 755 1293 918 995 
Q 1082 698 1373 534 
Q 1664 371 2029 371 
Q 2330 371 2586 492 
Q 2842 614 3008 864 
L 3347 634 
Q 3149 307 2803 137 
Q 2458 -32 2029 -32 
z
" transform="scale(0.015625)"/>
      <path id="Montserrat-Regular-6f" d="M 2010 -32 
Q 1523 -32 1132 189 
Q 742 410 518 800 
Q 294 1190 294 1683 
Q 294 2176 518 2566 
Q 742 2957 1132 3174 
Q 1523 3392 2010 3392 
Q 2496 3392 2886 3174 
Q 3277 2957 3497 2566 
Q 3718 2176 3718 1683 
Q 3718 1190 3497 800 
Q 3277 410 2886 189 
Q 2496 -32 2010 -32 
z
M 2010 371 
Q 2368 371 2653 534 
Q 2938 698 3098 998 
Q 3258 1299 3258 1683 
Q 3258 2067 3098 2368 
Q 2938 2669 2653 2832 
Q 2368 2995 2010 2995 
Q 1651 2995 1366 2832 
Q 1082 2669 918 2368 
Q 755 2067 755 1683 
Q 755 1299 918 998 
Q 1082 698 1366 534 
Q 1651 371 2010 371 
z
" transform="scale(0.015625)"/>
      <path id="Montserrat-Regular-6c" d="M 634 4749 
L 1088 4749 
L 1088 0 
L 634 0 
L 634 4749 
z
" transform="scale(0.015625)"/>
     </defs>
     <use xlink:href="#Montserrat-Regular-3c"/>
     <use xlink:href="#Montserrat-Regular-68" x="57.499985"/>
     <use xlink:href="#Montserrat-Regular-69" x="125.199966"/>
     <use xlink:href="#Montserrat-Regular-67" x="152.09996"/>
     <use xlink:href="#Montserrat-Regular-68" x="220.699951"/>
     <use xlink:href="#Montserrat-Regular-20" x="288.399933"/>
     <use xlink:href="#Montserrat-Regular-73" x="314.59993"/>
     <use xlink:href="#Montserrat-Regular-63" x="363.499924"/>
     <use xlink:href="#Montserrat-Regular-68" x="419.799911"/>
     <use xlink:href="#Montserrat-Regular-6f" x="487.499893"/>
     <use xlink:href="#Montserrat-Regular-6f" x="550.19989"/>
     <use xlink:href="#Montserrat-Regular-6c" x="612.899887"/>
    </g>
   </g>
   <g id="text_11">
    <!-- high school -->
    <g style="fill: #dd8452" transform="translate(344.70439 143.477906) scale(0.12 -0.12)">
     <use xlink:href="#Montserrat-Regular-68"/>
     <use xlink:href="#Montserrat-Regular-69" x="67.699982"/>
     <use xlink:href="#Montserrat-Regular-67" x="94.599976"/>
     <use xlink:href="#Montserrat-Regular-68" x="163.199966"/>
     <use xlink:href="#Montserrat-Regular-20" x="230.899948"/>
     <use xlink:href="#Montserrat-Regular-73" x="257.099945"/>
     <use xlink:href="#Montserrat-Regular-63" x="305.999939"/>
     <use xlink:href="#Montserrat-Regular-68" x="362.299927"/>
     <use xlink:href="#Montserrat-Regular-6f" x="429.999908"/>
     <use xlink:href="#Montserrat-Regular-6f" x="492.699905"/>
     <use xlink:href="#Montserrat-Regular-6c" x="555.399902"/>
    </g>
   </g>
   <g id="text_12">
    <!-- associate's -->
    <g style="fill: #55a868" transform="translate(344.70439 179.464641) scale(0.12 -0.12)">
     <defs>
      <path id="Montserrat-Regular-61" d="M 1811 3392 
Q 2470 3392 2822 3062 
Q 3174 2733 3174 2086 
L 3174 0 
L 2739 0 
L 2739 525 
Q 2586 262 2288 115 
Q 1990 -32 1581 -32 
Q 1018 -32 685 237 
Q 352 506 352 947 
Q 352 1376 662 1638 
Q 973 1901 1651 1901 
L 2720 1901 
L 2720 2106 
Q 2720 2541 2477 2768 
Q 2234 2995 1766 2995 
Q 1446 2995 1152 2889 
Q 858 2784 646 2598 
L 442 2938 
Q 698 3155 1056 3273 
Q 1414 3392 1811 3392 
z
M 1651 326 
Q 2035 326 2310 502 
Q 2586 678 2720 1011 
L 2720 1562 
L 1664 1562 
Q 800 1562 800 960 
Q 800 666 1024 496 
Q 1248 326 1651 326 
z
" transform="scale(0.015625)"/>
      <path id="Montserrat-Regular-74" d="M 2406 205 
Q 2278 90 2089 29 
Q 1901 -32 1696 -32 
Q 1222 -32 966 224 
Q 710 480 710 947 
L 710 2982 
L 109 2982 
L 109 3366 
L 710 3366 
L 710 4102 
L 1165 4102 
L 1165 3366 
L 2189 3366 
L 2189 2982 
L 1165 2982 
L 1165 973 
Q 1165 672 1315 515 
Q 1466 358 1747 358 
Q 1888 358 2019 403 
Q 2150 448 2246 531 
L 2406 205 
z
" transform="scale(0.015625)"/>
      <path id="Montserrat-Regular-65" d="M 3565 1542 
L 749 1542 
Q 787 1018 1152 694 
Q 1517 371 2074 371 
Q 2387 371 2649 483 
Q 2912 595 3104 813 
L 3360 518 
Q 3136 250 2800 109 
Q 2464 -32 2061 -32 
Q 1542 -32 1142 189 
Q 742 410 518 800 
Q 294 1190 294 1683 
Q 294 2176 508 2566 
Q 723 2957 1097 3174 
Q 1472 3392 1939 3392 
Q 2406 3392 2777 3174 
Q 3149 2957 3360 2569 
Q 3571 2182 3571 1683 
L 3565 1542 
z
M 1939 3002 
Q 1453 3002 1123 2691 
Q 794 2381 749 1882 
L 3136 1882 
Q 3091 2381 2761 2691 
Q 2432 3002 1939 3002 
z
" transform="scale(0.015625)"/>
      <path id="Montserrat-Regular-27" d="M 442 4480 
L 845 4480 
L 813 2790 
L 474 2790 
L 442 4480 
z
" transform="scale(0.015625)"/>
     </defs>
     <use xlink:href="#Montserrat-Regular-61"/>
     <use xlink:href="#Montserrat-Regular-73" x="58.999985"/>
     <use xlink:href="#Montserrat-Regular-73" x="107.899979"/>
     <use xlink:href="#Montserrat-Regular-6f" x="156.799973"/>
     <use xlink:href="#Montserrat-Regular-63" x="219.499969"/>
     <use xlink:href="#Montserrat-Regular-69" x="275.799957"/>
     <use xlink:href="#Montserrat-Regular-61" x="302.699951"/>
     <use xlink:href="#Montserrat-Regular-74" x="361.699936"/>
     <use xlink:href="#Montserrat-Regular-65" x="402.299927"/>
     <use xlink:href="#Montserrat-Regular-27" x="462.699921"/>
     <use xlink:href="#Montserrat-Regular-73" x="482.899918"/>
    </g>
   </g>
   <g id="text_13">
    <!-- bachelor's -->
    <g style="fill: #c44e52" transform="translate(344.70439 112.454859) scale(0.12 -0.12)">
     <defs>
      <path id="Montserrat-Regular-62" d="M 2368 3392 
Q 2842 3392 3226 3177 
Q 3610 2963 3827 2572 
Q 4045 2182 4045 1683 
Q 4045 1184 3827 793 
Q 3610 403 3226 185 
Q 2842 -32 2368 -32 
Q 1946 -32 1610 147 
Q 1274 326 1069 666 
L 1069 0 
L 634 0 
L 634 4749 
L 1088 4749 
L 1088 2726 
Q 1299 3053 1628 3222 
Q 1958 3392 2368 3392 
z
M 2336 371 
Q 2688 371 2976 534 
Q 3264 698 3427 998 
Q 3590 1299 3590 1683 
Q 3590 2067 3427 2368 
Q 3264 2669 2976 2832 
Q 2688 2995 2336 2995 
Q 1978 2995 1693 2832 
Q 1408 2669 1245 2368 
Q 1082 2067 1082 1683 
Q 1082 1299 1245 998 
Q 1408 698 1693 534 
Q 1978 371 2336 371 
z
" transform="scale(0.015625)"/>
      <path id="Montserrat-Regular-72" d="M 1069 2707 
Q 1229 3046 1545 3219 
Q 1862 3392 2330 3392 
L 2330 2950 
L 2221 2957 
Q 1690 2957 1389 2630 
Q 1088 2304 1088 1715 
L 1088 0 
L 634 0 
L 634 3366 
L 1069 3366 
L 1069 2707 
z
" transform="scale(0.015625)"/>
     </defs>
     <use xlink:href="#Montserrat-Regular-62"/>
     <use xlink:href="#Montserrat-Regular-61" x="67.799988"/>
     <use xlink:href="#Montserrat-Regular-63" x="126.799973"/>
     <use xlink:href="#Montserrat-Regular-68" x="183.09996"/>
     <use xlink:href="#Montserrat-Regular-65" x="250.799942"/>
     <use xlink:href="#Montserrat-Regular-6c" x="311.199936"/>
     <use xlink:href="#Montserrat-Regular-6f" x="338.09993"/>
     <use xlink:href="#Montserrat-Regular-72" x="400.799927"/>
     <use xlink:href="#Montserrat-Regular-27" x="440.899918"/>
     <use xlink:href="#Montserrat-Regular-73" x="461.099915"/>
    </g>
   </g>
   <g id="text_14">
    <!-- graduate -->
    <g style="fill: #8172b3" transform="translate(344.70439 122.382234) scale(0.12 -0.12)">
     <defs>
      <path id="Montserrat-Regular-64" d="M 3706 4749 
L 3706 0 
L 3270 0 
L 3270 666 
Q 3066 326 2730 147 
Q 2394 -32 1971 -32 
Q 1498 -32 1114 185 
Q 730 403 512 793 
Q 294 1184 294 1683 
Q 294 2182 512 2572 
Q 730 2963 1114 3177 
Q 1498 3392 1971 3392 
Q 2381 3392 2710 3222 
Q 3040 3053 3251 2726 
L 3251 4749 
L 3706 4749 
z
M 2010 371 
Q 2362 371 2646 534 
Q 2931 698 3094 998 
Q 3258 1299 3258 1683 
Q 3258 2067 3094 2368 
Q 2931 2669 2646 2832 
Q 2362 2995 2010 2995 
Q 1651 2995 1366 2832 
Q 1082 2669 918 2368 
Q 755 2067 755 1683 
Q 755 1299 918 998 
Q 1082 698 1366 534 
Q 1651 371 2010 371 
z
" transform="scale(0.015625)"/>
      <path id="Montserrat-Regular-75" d="M 3667 3366 
L 3667 0 
L 3232 0 
L 3232 614 
Q 3053 307 2739 137 
Q 2426 -32 2022 -32 
Q 1363 -32 982 336 
Q 602 704 602 1414 
L 602 3366 
L 1056 3366 
L 1056 1459 
Q 1056 928 1318 653 
Q 1581 378 2067 378 
Q 2598 378 2905 701 
Q 3213 1024 3213 1600 
L 3213 3366 
L 3667 3366 
z
" transform="scale(0.015625)"/>
     </defs>
     <use xlink:href="#Montserrat-Regular-67"/>
     <use xlink:href="#Montserrat-Regular-72" x="68.599991"/>
     <use xlink:href="#Montserrat-Regular-61" x="108.699982"/>
     <use xlink:href="#Montserrat-Regular-64" x="167.699966"/>
     <use xlink:href="#Montserrat-Regular-75" x="235.499954"/>
     <use xlink:href="#Montserrat-Regular-61" x="302.799942"/>
     <use xlink:href="#Montserrat-Regular-74" x="361.799927"/>
     <use xlink:href="#Montserrat-Regular-65" x="402.399918"/>
    </g>
   </g>
   <g id="text_15">
    <!-- dynomight.net -->
    <g style="fill: #262626; opacity: 0.5" transform="translate(372.468293 205.524001) scale(0.04 -0.04)">
     <defs>
      <path id="CourierNewPSMT-64" d="M 3206 3922 
L 3206 263 
L 3556 263 
Q 3653 263 3693 227 
Q 3734 191 3734 131 
Q 3734 75 3693 37 
Q 3653 0 3556 0 
L 2941 0 
L 2941 522 
Q 2484 -103 1781 -103 
Q 1425 -103 1098 86 
Q 772 275 583 625 
Q 394 975 394 1347 
Q 394 1722 583 2070 
Q 772 2419 1098 2609 
Q 1425 2800 1784 2800 
Q 2472 2800 2941 2175 
L 2941 3656 
L 2591 3656 
Q 2494 3656 2453 3693 
Q 2413 3731 2413 3791 
Q 2413 3847 2453 3884 
Q 2494 3922 2591 3922 
L 3206 3922 
z
M 2941 1347 
Q 2941 1847 2603 2190 
Q 2266 2534 1800 2534 
Q 1331 2534 993 2190 
Q 656 1847 656 1347 
Q 656 850 993 504 
Q 1331 159 1800 159 
Q 2266 159 2603 504 
Q 2941 850 2941 1347 
z
" transform="scale(0.015625)"/>
      <path id="CourierNewPSMT-79" d="M 1938 0 
L 719 2441 
L 641 2441 
Q 547 2441 506 2478 
Q 466 2516 466 2572 
Q 466 2613 486 2645 
Q 506 2678 539 2692 
Q 572 2706 641 2706 
L 1359 2706 
Q 1453 2706 1493 2668 
Q 1534 2631 1534 2572 
Q 1534 2516 1493 2478 
Q 1453 2441 1359 2441 
L 1006 2441 
L 2078 288 
L 3134 2441 
L 2781 2441 
Q 2688 2441 2647 2478 
Q 2606 2516 2606 2575 
Q 2606 2631 2647 2668 
Q 2688 2706 2781 2706 
L 3497 2706 
Q 3594 2706 3634 2668 
Q 3675 2631 3675 2572 
Q 3675 2531 3650 2497 
Q 3625 2463 3594 2452 
Q 3563 2441 3419 2441 
L 1756 -944 
L 2166 -944 
Q 2259 -944 2300 -980 
Q 2341 -1016 2341 -1075 
Q 2341 -1131 2300 -1168 
Q 2259 -1206 2166 -1206 
L 653 -1206 
Q 559 -1206 518 -1170 
Q 478 -1134 478 -1075 
Q 478 -1016 518 -980 
Q 559 -944 653 -944 
L 1475 -944 
L 1938 0 
z
" transform="scale(0.015625)"/>
      <path id="CourierNewPSMT-6e" d="M 1072 2706 
L 1072 2309 
Q 1347 2588 1569 2694 
Q 1791 2800 2069 2800 
Q 2369 2800 2616 2672 
Q 2791 2578 2933 2361 
Q 3075 2144 3075 1916 
L 3075 263 
L 3297 263 
Q 3391 263 3431 227 
Q 3472 191 3472 131 
Q 3472 75 3431 37 
Q 3391 0 3297 0 
L 2594 0 
Q 2497 0 2456 37 
Q 2416 75 2416 131 
Q 2416 191 2456 227 
Q 2497 263 2594 263 
L 2813 263 
L 2813 1872 
Q 2813 2150 2609 2342 
Q 2406 2534 2066 2534 
Q 1806 2534 1615 2429 
Q 1425 2325 1072 1909 
L 1072 263 
L 1369 263 
Q 1463 263 1503 227 
Q 1544 191 1544 131 
Q 1544 75 1503 37 
Q 1463 0 1369 0 
L 513 0 
Q 419 0 378 37 
Q 338 75 338 131 
Q 338 191 378 227 
Q 419 263 513 263 
L 809 263 
L 809 2441 
L 588 2441 
Q 494 2441 453 2478 
Q 413 2516 413 2575 
Q 413 2631 453 2668 
Q 494 2706 588 2706 
L 1072 2706 
z
" transform="scale(0.015625)"/>
      <path id="CourierNewPSMT-6f" d="M 3388 1347 
Q 3388 747 2958 322 
Q 2528 -103 1922 -103 
Q 1309 -103 881 323 
Q 453 750 453 1347 
Q 453 1947 881 2373 
Q 1309 2800 1922 2800 
Q 2528 2800 2958 2375 
Q 3388 1950 3388 1347 
z
M 3122 1347 
Q 3122 1841 2770 2187 
Q 2419 2534 1919 2534 
Q 1419 2534 1067 2186 
Q 716 1838 716 1347 
Q 716 859 1067 509 
Q 1419 159 1919 159 
Q 2419 159 2770 507 
Q 3122 856 3122 1347 
z
" transform="scale(0.015625)"/>
      <path id="CourierNewPSMT-6d" d="M 725 2706 
L 725 2441 
Q 1059 2800 1397 2800 
Q 1600 2800 1753 2692 
Q 1906 2584 2009 2366 
Q 2184 2584 2364 2692 
Q 2544 2800 2725 2800 
Q 3009 2800 3178 2616 
Q 3400 2378 3400 2097 
L 3400 263 
L 3622 263 
Q 3716 263 3756 227 
Q 3797 191 3797 131 
Q 3797 75 3756 37 
Q 3716 0 3622 0 
L 3138 0 
L 3138 2072 
Q 3138 2272 3016 2403 
Q 2894 2534 2734 2534 
Q 2591 2534 2431 2426 
Q 2272 2319 2069 2003 
L 2069 263 
L 2288 263 
Q 2381 263 2422 227 
Q 2463 191 2463 131 
Q 2463 75 2422 37 
Q 2381 0 2288 0 
L 1803 0 
L 1803 2053 
Q 1803 2263 1679 2398 
Q 1556 2534 1403 2534 
Q 1263 2534 1125 2444 
Q 934 2316 725 2003 
L 725 263 
L 947 263 
Q 1041 263 1081 227 
Q 1122 191 1122 131 
Q 1122 75 1081 37 
Q 1041 0 947 0 
L 241 0 
Q 147 0 106 37 
Q 66 75 66 131 
Q 66 191 106 227 
Q 147 263 241 263 
L 463 263 
L 463 2441 
L 241 2441 
Q 147 2441 106 2478 
Q 66 2516 66 2575 
Q 66 2631 106 2668 
Q 147 2706 241 2706 
L 725 2706 
z
" transform="scale(0.015625)"/>
      <path id="CourierNewPSMT-69" d="M 2050 4053 
L 2050 3375 
L 1663 3375 
L 1663 4053 
L 2050 4053 
z
M 2059 2706 
L 2059 263 
L 3091 263 
Q 3188 263 3228 227 
Q 3269 191 3269 131 
Q 3269 75 3228 37 
Q 3188 0 3091 0 
L 766 0 
Q 672 0 631 37 
Q 591 75 591 131 
Q 591 191 631 227 
Q 672 263 766 263 
L 1797 263 
L 1797 2441 
L 1031 2441 
Q 938 2441 895 2478 
Q 853 2516 853 2572 
Q 853 2631 893 2668 
Q 934 2706 1031 2706 
L 2059 2706 
z
" transform="scale(0.015625)"/>
      <path id="CourierNewPSMT-67" d="M 2803 2225 
L 2803 2706 
L 3419 2706 
Q 3513 2706 3553 2668 
Q 3594 2631 3594 2572 
Q 3594 2516 3553 2478 
Q 3513 2441 3419 2441 
L 3066 2441 
L 3066 -181 
Q 3066 -444 2953 -650 
Q 2878 -788 2703 -934 
Q 2528 -1081 2384 -1143 
Q 2241 -1206 2000 -1206 
L 1256 -1206 
Q 1163 -1206 1122 -1170 
Q 1081 -1134 1081 -1075 
Q 1081 -1016 1122 -978 
Q 1163 -941 1256 -941 
L 2009 -944 
Q 2241 -944 2427 -825 
Q 2613 -706 2734 -478 
Q 2803 -347 2803 -144 
L 2803 644 
Q 2381 66 1716 66 
Q 1175 66 783 467 
Q 391 869 391 1434 
Q 391 2000 783 2400 
Q 1175 2800 1716 2800 
Q 2381 2800 2803 2225 
z
M 2803 1434 
Q 2803 1897 2486 2215 
Q 2169 2534 1728 2534 
Q 1288 2534 972 2214 
Q 656 1894 656 1434 
Q 656 972 972 651 
Q 1288 331 1728 331 
Q 2169 331 2486 651 
Q 2803 972 2803 1434 
z
" transform="scale(0.015625)"/>
      <path id="CourierNewPSMT-68" d="M 1056 3922 
L 1056 2306 
Q 1306 2578 1536 2689 
Q 1766 2800 2050 2800 
Q 2356 2800 2570 2692 
Q 2784 2584 2928 2361 
Q 3072 2138 3072 1891 
L 3072 263 
L 3366 263 
Q 3463 263 3502 227 
Q 3541 191 3541 131 
Q 3541 75 3502 37 
Q 3463 0 3366 0 
L 2513 0 
Q 2416 0 2375 37 
Q 2334 75 2334 131 
Q 2334 191 2375 227 
Q 2416 263 2513 263 
L 2806 263 
L 2806 1872 
Q 2806 2156 2601 2347 
Q 2397 2538 2031 2538 
Q 1744 2538 1541 2397 
Q 1394 2297 1056 1925 
L 1056 263 
L 1353 263 
Q 1447 263 1487 227 
Q 1528 191 1528 131 
Q 1528 75 1487 37 
Q 1447 0 1353 0 
L 497 0 
Q 403 0 362 37 
Q 322 75 322 131 
Q 322 191 362 227 
Q 403 263 497 263 
L 794 263 
L 794 3656 
L 441 3656 
Q 347 3656 306 3693 
Q 266 3731 266 3791 
Q 266 3847 306 3884 
Q 347 3922 441 3922 
L 1056 3922 
z
" transform="scale(0.015625)"/>
      <path id="CourierNewPSMT-74" d="M 1381 2706 
L 2806 2706 
Q 2900 2706 2940 2668 
Q 2981 2631 2981 2572 
Q 2981 2516 2940 2478 
Q 2900 2441 2806 2441 
L 1381 2441 
L 1381 694 
Q 1381 466 1564 312 
Q 1747 159 2100 159 
Q 2366 159 2675 239 
Q 2984 319 3156 419 
Q 3219 459 3259 459 
Q 3309 459 3346 420 
Q 3384 381 3384 328 
Q 3384 281 3344 241 
Q 3244 138 2858 17 
Q 2472 -103 2119 -103 
Q 1659 -103 1387 112 
Q 1116 328 1116 694 
L 1116 2441 
L 631 2441 
Q 538 2441 497 2478 
Q 456 2516 456 2575 
Q 456 2631 497 2668 
Q 538 2706 631 2706 
L 1116 2706 
L 1116 3481 
Q 1116 3575 1153 3615 
Q 1191 3656 1247 3656 
Q 1306 3656 1343 3615 
Q 1381 3575 1381 3481 
L 1381 2706 
z
" transform="scale(0.015625)"/>
      <path id="CourierNewPSMT-2e" d="M 1866 753 
L 1978 753 
Q 2153 753 2278 629 
Q 2403 506 2403 331 
Q 2403 150 2276 28 
Q 2150 -94 1978 -94 
L 1866 -94 
Q 1691 -94 1566 29 
Q 1441 153 1441 328 
Q 1441 509 1567 631 
Q 1694 753 1866 753 
z
" transform="scale(0.015625)"/>
      <path id="CourierNewPSMT-65" d="M 3341 1291 
L 666 1291 
Q 734 781 1092 470 
Q 1450 159 1978 159 
Q 2272 159 2594 256 
Q 2916 353 3119 513 
Q 3178 559 3222 559 
Q 3272 559 3309 520 
Q 3347 481 3347 428 
Q 3347 375 3297 325 
Q 3147 169 2764 33 
Q 2381 -103 1978 -103 
Q 1303 -103 851 339 
Q 400 781 400 1409 
Q 400 1981 823 2390 
Q 1247 2800 1872 2800 
Q 2516 2800 2931 2379 
Q 3347 1959 3341 1291 
z
M 3075 1556 
Q 2997 1991 2664 2262 
Q 2331 2534 1872 2534 
Q 1413 2534 1081 2265 
Q 750 1997 669 1556 
L 3075 1556 
z
" transform="scale(0.015625)"/>
     </defs>
     <use xlink:href="#CourierNewPSMT-64"/>
     <use xlink:href="#CourierNewPSMT-79" x="60.009766"/>
     <use xlink:href="#CourierNewPSMT-6e" x="120.019531"/>
     <use xlink:href="#CourierNewPSMT-6f" x="180.029297"/>
     <use xlink:href="#CourierNewPSMT-6d" x="240.039062"/>
     <use xlink:href="#CourierNewPSMT-69" x="300.048828"/>
     <use xlink:href="#CourierNewPSMT-67" x="360.058594"/>
     <use xlink:href="#CourierNewPSMT-68" x="420.068359"/>
     <use xlink:href="#CourierNewPSMT-74" x="480.078125"/>
     <use xlink:href="#CourierNewPSMT-2e" x="540.087891"/>
     <use xlink:href="#CourierNewPSMT-6e" x="600.097656"/>
     <use xlink:href="#CourierNewPSMT-65" x="660.107422"/>
     <use xlink:href="#CourierNewPSMT-74" x="720.117188"/>
    </g>
   </g>
   <g id="text_16">
    <!-- richer people are more educated -->
    <g style="fill: #262626" transform="translate(122.356875 24.24) scale(0.12 -0.12)">
     <defs>
      <path id="Montserrat-Regular-70" d="M 2368 3392 
Q 2842 3392 3226 3177 
Q 3610 2963 3827 2572 
Q 4045 2182 4045 1683 
Q 4045 1178 3827 787 
Q 3610 397 3229 182 
Q 2848 -32 2368 -32 
Q 1958 -32 1628 137 
Q 1299 307 1088 634 
L 1088 -1242 
L 634 -1242 
L 634 3366 
L 1069 3366 
L 1069 2701 
Q 1274 3034 1610 3213 
Q 1946 3392 2368 3392 
z
M 2336 371 
Q 2688 371 2976 534 
Q 3264 698 3427 998 
Q 3590 1299 3590 1683 
Q 3590 2067 3427 2364 
Q 3264 2662 2976 2828 
Q 2688 2995 2336 2995 
Q 1978 2995 1693 2828 
Q 1408 2662 1245 2364 
Q 1082 2067 1082 1683 
Q 1082 1299 1245 998 
Q 1408 698 1693 534 
Q 1978 371 2336 371 
z
" transform="scale(0.015625)"/>
      <path id="Montserrat-Regular-6d" d="M 4832 3392 
Q 5466 3392 5827 3027 
Q 6189 2662 6189 1952 
L 6189 0 
L 5734 0 
L 5734 1907 
Q 5734 2432 5481 2707 
Q 5229 2982 4768 2982 
Q 4243 2982 3942 2659 
Q 3642 2336 3642 1766 
L 3642 0 
L 3187 0 
L 3187 1907 
Q 3187 2432 2934 2707 
Q 2682 2982 2214 2982 
Q 1696 2982 1392 2659 
Q 1088 2336 1088 1766 
L 1088 0 
L 634 0 
L 634 3366 
L 1069 3366 
L 1069 2752 
Q 1248 3059 1568 3225 
Q 1888 3392 2304 3392 
Q 2726 3392 3036 3213 
Q 3347 3034 3501 2682 
Q 3686 3014 4035 3203 
Q 4384 3392 4832 3392 
z
" transform="scale(0.015625)"/>
     </defs>
     <use xlink:href="#Montserrat-Regular-72"/>
     <use xlink:href="#Montserrat-Regular-69" x="40.099991"/>
     <use xlink:href="#Montserrat-Regular-63" x="66.999985"/>
     <use xlink:href="#Montserrat-Regular-68" x="123.299973"/>
     <use xlink:href="#Montserrat-Regular-65" x="190.999954"/>
     <use xlink:href="#Montserrat-Regular-72" x="251.399948"/>
     <use xlink:href="#Montserrat-Regular-20" x="291.499939"/>
     <use xlink:href="#Montserrat-Regular-70" x="317.699936"/>
     <use xlink:href="#Montserrat-Regular-65" x="385.499924"/>
     <use xlink:href="#Montserrat-Regular-6f" x="445.899918"/>
     <use xlink:href="#Montserrat-Regular-70" x="508.599915"/>
     <use xlink:href="#Montserrat-Regular-6c" x="576.399902"/>
     <use xlink:href="#Montserrat-Regular-65" x="603.299896"/>
     <use xlink:href="#Montserrat-Regular-20" x="663.69989"/>
     <use xlink:href="#Montserrat-Regular-61" x="689.899887"/>
     <use xlink:href="#Montserrat-Regular-72" x="748.899872"/>
     <use xlink:href="#Montserrat-Regular-65" x="788.999863"/>
     <use xlink:href="#Montserrat-Regular-20" x="849.399857"/>
     <use xlink:href="#Montserrat-Regular-6d" x="875.599854"/>
     <use xlink:href="#Montserrat-Regular-6f" x="981.699844"/>
     <use xlink:href="#Montserrat-Regular-72" x="1044.399841"/>
     <use xlink:href="#Montserrat-Regular-65" x="1084.499832"/>
     <use xlink:href="#Montserrat-Regular-20" x="1144.899826"/>
     <use xlink:href="#Montserrat-Regular-65" x="1171.099823"/>
     <use xlink:href="#Montserrat-Regular-64" x="1231.499817"/>
     <use xlink:href="#Montserrat-Regular-75" x="1299.299805"/>
     <use xlink:href="#Montserrat-Regular-63" x="1366.599792"/>
     <use xlink:href="#Montserrat-Regular-61" x="1422.89978"/>
     <use xlink:href="#Montserrat-Regular-74" x="1481.899765"/>
     <use xlink:href="#Montserrat-Regular-65" x="1522.499756"/>
     <use xlink:href="#Montserrat-Regular-64" x="1582.89975"/>
    </g>
   </g>
  </g>
 </g>
 <defs>
  <clipPath id="pcaa8247579">
   <rect x="54" y="30.24" width="334.8" height="171.36"/>
  </clipPath>
 </defs>
</svg>
