<?xml version="1.0" encoding="utf-8" standalone="no"?>
<!DOCTYPE svg PUBLIC "-//W3C//DTD SVG 1.1//EN"
  "http://www.w3.org/Graphics/SVG/1.1/DTD/svg11.dtd">
<svg xmlns:xlink="http://www.w3.org/1999/xlink" width="432pt" height="252pt" viewBox="0 0 432 252" xmlns="http://www.w3.org/2000/svg" version="1.1">
 <metadata>
  <rdf:RDF xmlns:dc="http://purl.org/dc/elements/1.1/" xmlns:cc="http://creativecommons.org/ns#" xmlns:rdf="http://www.w3.org/1999/02/22-rdf-syntax-ns#">
   <cc:Work>
    <dc:type rdf:resource="http://purl.org/dc/dcmitype/StillImage"/>
    <dc:date>2023-12-02T16:45:31.006746</dc:date>
    <dc:format>image/svg+xml</dc:format>
    <dc:creator>
     <cc:Agent>
      <dc:title>Matplotlib v3.7.1, https://matplotlib.org/</dc:title>
     </cc:Agent>
    </dc:creator>
   </cc:Work>
  </rdf:RDF>
 </metadata>
 <defs>
  <style type="text/css">*{stroke-linejoin: round; stroke-linecap: butt}</style>
 </defs>
 <g id="figure_1">
  <g id="patch_1">
   <path d="M 0 252 
L 432 252 
L 432 0 
L 0 0 
z
" style="fill: #ffffff"/>
  </g>
  <g id="axes_1">
   <g id="matplotlib.axis_1">
    <g id="xtick_1">
     <g id="line2d_1">
      <path d="M 62.165854 201.6 
L 62.165854 30.24 
" clip-path="url(#pa8b212bd77)" style="fill: none; stroke: #ffffff; stroke-linecap: round"/>
     </g>
     <g id="text_1">
      <!-- $0 -->
      <g style="fill: #262626" transform="translate(55.142182 219.305312) scale(0.11 -0.11)">
       <defs>
        <path id="Montserrat-Regular-24" d="M 3635 1184 
Q 3635 691 3257 348 
Q 2880 6 2150 -32 
L 2150 -768 
L 1830 -768 
L 1830 -38 
Q 1363 -13 950 144 
Q 538 301 301 544 
L 486 909 
Q 710 691 1072 544 
Q 1434 397 1830 371 
L 1830 2054 
Q 1389 2163 1094 2288 
Q 800 2413 605 2653 
Q 410 2893 410 3290 
Q 410 3782 768 4118 
Q 1126 4454 1830 4512 
L 1830 5248 
L 2150 5248 
L 2150 4518 
Q 2515 4506 2857 4400 
Q 3200 4294 3450 4122 
L 3290 3744 
Q 3027 3910 2732 4006 
Q 2438 4102 2150 4115 
L 2150 2419 
Q 2624 2304 2925 2185 
Q 3226 2067 3430 1824 
Q 3635 1581 3635 1184 
z
M 877 3302 
Q 877 2970 1123 2797 
Q 1370 2624 1830 2502 
L 1830 4102 
Q 1357 4064 1117 3843 
Q 877 3622 877 3302 
z
M 2150 371 
Q 2656 410 2912 621 
Q 3168 832 3168 1158 
Q 3168 1504 2905 1677 
Q 2643 1850 2150 1971 
L 2150 371 
z
" transform="scale(0.015625)"/>
        <path id="Montserrat-Regular-30" d="M 2118 -38 
Q 1600 -38 1193 237 
Q 787 512 560 1027 
Q 333 1542 333 2240 
Q 333 2938 560 3453 
Q 787 3968 1193 4243 
Q 1600 4518 2118 4518 
Q 2637 4518 3043 4243 
Q 3450 3968 3680 3453 
Q 3910 2938 3910 2240 
Q 3910 1542 3680 1027 
Q 3450 512 3043 237 
Q 2637 -38 2118 -38 
z
M 2118 384 
Q 2509 384 2806 601 
Q 3104 819 3270 1235 
Q 3437 1651 3437 2240 
Q 3437 2829 3270 3245 
Q 3104 3661 2806 3878 
Q 2509 4096 2118 4096 
Q 1728 4096 1430 3878 
Q 1133 3661 966 3245 
Q 800 2829 800 2240 
Q 800 1651 966 1235 
Q 1133 819 1430 601 
Q 1728 384 2118 384 
z
" transform="scale(0.015625)"/>
       </defs>
       <use xlink:href="#Montserrat-Regular-24"/>
       <use xlink:href="#Montserrat-Regular-30" x="61.499985"/>
      </g>
     </g>
    </g>
    <g id="xtick_2">
     <g id="line2d_2">
      <path d="M 143.82439 201.6 
L 143.82439 30.24 
" clip-path="url(#pa8b212bd77)" style="fill: none; stroke: #ffffff; stroke-linecap: round"/>
     </g>
     <g id="text_2">
      <!-- $50k -->
      <g style="fill: #262626" transform="translate(130.382906 219.305312) scale(0.11 -0.11)">
       <defs>
        <path id="Montserrat-Regular-35" d="M 1510 2643 
Q 2483 2643 2928 2294 
Q 3373 1946 3373 1318 
Q 3373 928 3190 621 
Q 3008 314 2643 138 
Q 2278 -38 1747 -38 
Q 1267 -38 835 118 
Q 403 275 141 538 
L 365 902 
Q 589 672 953 528 
Q 1318 384 1741 384 
Q 2298 384 2602 633 
Q 2906 883 2906 1299 
Q 2906 1760 2563 1997 
Q 2221 2234 1408 2234 
L 454 2234 
L 685 4480 
L 3136 4480 
L 3136 4070 
L 1088 4070 
L 934 2643 
L 1510 2643 
z
" transform="scale(0.015625)"/>
        <path id="Montserrat-Regular-6b" d="M 1882 1690 
L 1088 960 
L 1088 0 
L 634 0 
L 634 4749 
L 1088 4749 
L 1088 1530 
L 3098 3366 
L 3661 3366 
L 2221 1990 
L 3795 0 
L 3238 0 
L 1882 1690 
z
" transform="scale(0.015625)"/>
       </defs>
       <use xlink:href="#Montserrat-Regular-24"/>
       <use xlink:href="#Montserrat-Regular-35" x="61.499985"/>
       <use xlink:href="#Montserrat-Regular-30" x="118.099976"/>
       <use xlink:href="#Montserrat-Regular-6b" x="184.299973"/>
      </g>
     </g>
    </g>
    <g id="xtick_3">
     <g id="line2d_3">
      <path d="M 225.482927 201.6 
L 225.482927 30.24 
" clip-path="url(#pa8b212bd77)" style="fill: none; stroke: #ffffff; stroke-linecap: round"/>
     </g>
     <g id="text_3">
      <!-- $100k -->
      <g style="fill: #262626" transform="translate(209.527771 219.305312) scale(0.11 -0.11)">
       <defs>
        <path id="Montserrat-Regular-31" d="M 1574 4480 
L 1574 0 
L 1114 0 
L 1114 4070 
L 58 4070 
L 58 4480 
L 1574 4480 
z
" transform="scale(0.015625)"/>
       </defs>
       <use xlink:href="#Montserrat-Regular-24"/>
       <use xlink:href="#Montserrat-Regular-31" x="61.499985"/>
       <use xlink:href="#Montserrat-Regular-30" x="97.599976"/>
       <use xlink:href="#Montserrat-Regular-30" x="163.799973"/>
       <use xlink:href="#Montserrat-Regular-6b" x="229.999969"/>
      </g>
     </g>
    </g>
    <g id="xtick_4">
     <g id="line2d_4">
      <path d="M 307.141463 201.6 
L 307.141463 30.24 
" clip-path="url(#pa8b212bd77)" style="fill: none; stroke: #ffffff; stroke-linecap: round"/>
     </g>
     <g id="text_4">
      <!-- $150k -->
      <g style="fill: #262626" transform="translate(291.714823 219.305312) scale(0.11 -0.11)">
       <use xlink:href="#Montserrat-Regular-24"/>
       <use xlink:href="#Montserrat-Regular-31" x="61.499985"/>
       <use xlink:href="#Montserrat-Regular-35" x="97.599976"/>
       <use xlink:href="#Montserrat-Regular-30" x="154.199966"/>
       <use xlink:href="#Montserrat-Regular-6b" x="220.399963"/>
      </g>
     </g>
    </g>
    <g id="xtick_5">
     <g id="line2d_5">
      <path d="M 388.8 201.6 
L 388.8 30.24 
" clip-path="url(#pa8b212bd77)" style="fill: none; stroke: #ffffff; stroke-linecap: round"/>
     </g>
     <g id="text_5">
      <!-- $200k -->
      <g style="fill: #262626" transform="translate(371.706172 219.305312) scale(0.11 -0.11)">
       <defs>
        <path id="Montserrat-Regular-32" d="M 3392 410 
L 3392 0 
L 250 0 
L 250 326 
L 2112 2150 
Q 2464 2496 2589 2749 
Q 2714 3002 2714 3258 
Q 2714 3654 2442 3875 
Q 2170 4096 1664 4096 
Q 877 4096 442 3597 
L 115 3878 
Q 378 4186 784 4352 
Q 1190 4518 1702 4518 
Q 2387 4518 2787 4195 
Q 3187 3872 3187 3309 
Q 3187 2963 3033 2643 
Q 2880 2323 2451 1907 
L 928 410 
L 3392 410 
z
" transform="scale(0.015625)"/>
       </defs>
       <use xlink:href="#Montserrat-Regular-24"/>
       <use xlink:href="#Montserrat-Regular-32" x="61.499985"/>
       <use xlink:href="#Montserrat-Regular-30" x="118.299973"/>
       <use xlink:href="#Montserrat-Regular-30" x="184.499969"/>
       <use xlink:href="#Montserrat-Regular-6b" x="250.699966"/>
      </g>
     </g>
    </g>
   </g>
   <g id="matplotlib.axis_2">
    <g id="ytick_1">
     <g id="line2d_6">
      <path d="M 54 185.688 
L 388.8 185.688 
" clip-path="url(#pa8b212bd77)" style="fill: none; stroke: #ffffff; stroke-linecap: round"/>
     </g>
     <g id="text_6">
      <!-- 10% -->
      <g style="fill: #262626" transform="translate(24.127656 189.769172) scale(0.11 -0.11)">
       <defs>
        <path id="Montserrat-Regular-25" d="M 1280 2080 
Q 826 2080 547 2416 
Q 269 2752 269 3296 
Q 269 3840 547 4176 
Q 826 4512 1280 4512 
Q 1728 4512 2009 4179 
Q 2291 3846 2291 3296 
Q 2291 2746 2009 2413 
Q 1728 2080 1280 2080 
z
M 3994 4480 
L 4371 4480 
L 1312 0 
L 934 0 
L 3994 4480 
z
M 1280 2368 
Q 1594 2368 1782 2614 
Q 1971 2861 1971 3296 
Q 1971 3731 1782 3977 
Q 1594 4224 1280 4224 
Q 960 4224 774 3974 
Q 589 3725 589 3296 
Q 589 2867 774 2617 
Q 960 2368 1280 2368 
z
M 4026 -32 
Q 3578 -32 3296 304 
Q 3014 640 3014 1184 
Q 3014 1728 3296 2064 
Q 3578 2400 4026 2400 
Q 4480 2400 4758 2064 
Q 5037 1728 5037 1184 
Q 5037 640 4758 304 
Q 4480 -32 4026 -32 
z
M 4026 256 
Q 4346 256 4531 505 
Q 4717 755 4717 1184 
Q 4717 1613 4531 1862 
Q 4346 2112 4026 2112 
Q 3712 2112 3523 1865 
Q 3334 1619 3334 1184 
Q 3334 749 3523 502 
Q 3712 256 4026 256 
z
" transform="scale(0.015625)"/>
       </defs>
       <use xlink:href="#Montserrat-Regular-31"/>
       <use xlink:href="#Montserrat-Regular-30" x="36.099991"/>
       <use xlink:href="#Montserrat-Regular-25" x="102.299988"/>
      </g>
     </g>
    </g>
    <g id="ytick_2">
     <g id="line2d_7">
      <path d="M 54 146.826 
L 388.8 146.826 
" clip-path="url(#pa8b212bd77)" style="fill: none; stroke: #ffffff; stroke-linecap: round"/>
     </g>
     <g id="text_7">
      <!-- 20% -->
      <g style="fill: #262626" transform="translate(21.850313 150.907172) scale(0.11 -0.11)">
       <use xlink:href="#Montserrat-Regular-32"/>
       <use xlink:href="#Montserrat-Regular-30" x="56.799988"/>
       <use xlink:href="#Montserrat-Regular-25" x="122.999985"/>
      </g>
     </g>
    </g>
    <g id="ytick_3">
     <g id="line2d_8">
      <path d="M 54 107.964 
L 388.8 107.964 
" clip-path="url(#pa8b212bd77)" style="fill: none; stroke: #ffffff; stroke-linecap: round"/>
     </g>
     <g id="text_8">
      <!-- 30% -->
      <g style="fill: #262626" transform="translate(21.893281 112.045172) scale(0.11 -0.11)">
       <defs>
        <path id="Montserrat-Regular-33" d="M 1856 2560 
Q 2560 2522 2928 2179 
Q 3296 1837 3296 1286 
Q 3296 902 3110 604 
Q 2925 307 2560 134 
Q 2195 -38 1670 -38 
Q 1184 -38 752 118 
Q 320 275 58 538 
L 282 902 
Q 506 672 877 528 
Q 1248 384 1670 384 
Q 2221 384 2521 624 
Q 2822 864 2822 1286 
Q 2822 1702 2521 1939 
Q 2221 2176 1613 2176 
L 1293 2176 
L 1293 2515 
L 2534 4070 
L 243 4070 
L 243 4480 
L 3123 4480 
L 3123 4154 
L 1856 2560 
z
" transform="scale(0.015625)"/>
       </defs>
       <use xlink:href="#Montserrat-Regular-33"/>
       <use xlink:href="#Montserrat-Regular-30" x="56.399994"/>
       <use xlink:href="#Montserrat-Regular-25" x="122.599991"/>
      </g>
     </g>
    </g>
    <g id="ytick_4">
     <g id="line2d_9">
      <path d="M 54 69.102 
L 388.8 69.102 
" clip-path="url(#pa8b212bd77)" style="fill: none; stroke: #ffffff; stroke-linecap: round"/>
     </g>
     <g id="text_9">
      <!-- 40% -->
      <g style="fill: #262626" transform="translate(20.827656 73.183172) scale(0.11 -0.11)">
       <defs>
        <path id="Montserrat-Regular-34" d="M 4141 1178 
L 3245 1178 
L 3245 0 
L 2784 0 
L 2784 1178 
L 256 1178 
L 256 1510 
L 2630 4480 
L 3142 4480 
L 851 1587 
L 2797 1587 
L 2797 2624 
L 3245 2624 
L 3245 1587 
L 4141 1587 
L 4141 1178 
z
" transform="scale(0.015625)"/>
       </defs>
       <use xlink:href="#Montserrat-Regular-34"/>
       <use xlink:href="#Montserrat-Regular-30" x="66.099991"/>
       <use xlink:href="#Montserrat-Regular-25" x="132.299988"/>
      </g>
     </g>
    </g>
    <g id="ytick_5">
     <g id="line2d_10">
      <path d="M 54 30.24 
L 388.8 30.24 
" clip-path="url(#pa8b212bd77)" style="fill: none; stroke: #ffffff; stroke-linecap: round"/>
     </g>
     <g id="text_10">
      <!-- 50% -->
      <g style="fill: #262626" transform="translate(21.872656 34.321172) scale(0.11 -0.11)">
       <use xlink:href="#Montserrat-Regular-35"/>
       <use xlink:href="#Montserrat-Regular-30" x="56.599991"/>
       <use xlink:href="#Montserrat-Regular-25" x="122.799988"/>
      </g>
     </g>
    </g>
   </g>
   <g id="line2d_11">
    <defs>
     <path id="m61eac46f88" d="M 0 0.5 
C 0.132602 0.5 0.25979 0.447317 0.353553 0.353553 
C 0.447317 0.25979 0.5 0.132602 0.5 0 
C 0.5 -0.132602 0.447317 -0.25979 0.353553 -0.353553 
C 0.25979 -0.447317 0.132602 -0.5 0 -0.5 
C -0.132602 -0.5 -0.25979 -0.447317 -0.353553 -0.353553 
C -0.447317 -0.25979 -0.5 -0.132602 -0.5 0 
C -0.5 0.132602 -0.447317 0.25979 -0.353553 0.353553 
C -0.25979 0.447317 -0.132602 0.5 0 0.5 
z
" style="stroke: #4c72b0"/>
    </defs>
    <g clip-path="url(#pa8b212bd77)">
     <use xlink:href="#m61eac46f88" x="62.165854" y="114.563208" style="fill: #4c72b0; stroke: #4c72b0"/>
     <use xlink:href="#m61eac46f88" x="63.799024" y="102.15" style="fill: #4c72b0; stroke: #4c72b0"/>
     <use xlink:href="#m61eac46f88" x="67.065366" y="78.8175" style="fill: #4c72b0; stroke: #4c72b0"/>
     <use xlink:href="#m61eac46f88" x="68.698537" y="135.49125" style="fill: #4c72b0; stroke: #4c72b0"/>
     <use xlink:href="#m61eac46f88" x="70.331707" y="67.001351" style="fill: #4c72b0; stroke: #4c72b0"/>
     <use xlink:href="#m61eac46f88" x="71.964878" y="92.065909" style="fill: #4c72b0; stroke: #4c72b0"/>
     <use xlink:href="#m61eac46f88" x="73.598049" y="136.797097" style="fill: #4c72b0; stroke: #4c72b0"/>
     <use xlink:href="#m61eac46f88" x="75.23122" y="99.737737" style="fill: #4c72b0; stroke: #4c72b0"/>
     <use xlink:href="#m61eac46f88" x="78.497561" y="95.01" style="fill: #4c72b0; stroke: #4c72b0"/>
     <use xlink:href="#m61eac46f88" x="82.580488" y="80.021901" style="fill: #4c72b0; stroke: #4c72b0"/>
     <use xlink:href="#m61eac46f88" x="86.663415" y="85.311818" style="fill: #4c72b0; stroke: #4c72b0"/>
     <use xlink:href="#m61eac46f88" x="90.746341" y="116.6" style="fill: #4c72b0; stroke: #4c72b0"/>
     <use xlink:href="#m61eac46f88" x="94.829268" y="93.74" style="fill: #4c72b0; stroke: #4c72b0"/>
     <use xlink:href="#m61eac46f88" x="98.912195" y="96.99681" style="fill: #4c72b0; stroke: #4c72b0"/>
     <use xlink:href="#m61eac46f88" x="102.995122" y="102.839341" style="fill: #4c72b0; stroke: #4c72b0"/>
     <use xlink:href="#m61eac46f88" x="111.160976" y="98.669322" style="fill: #4c72b0; stroke: #4c72b0"/>
     <use xlink:href="#m61eac46f88" x="119.326829" y="115.631839" style="fill: #4c72b0; stroke: #4c72b0"/>
     <use xlink:href="#m61eac46f88" x="127.492683" y="86.286213" style="fill: #4c72b0; stroke: #4c72b0"/>
     <use xlink:href="#m61eac46f88" x="143.82439" y="97.071224" style="fill: #4c72b0; stroke: #4c72b0"/>
     <use xlink:href="#m61eac46f88" x="160.156098" y="110.185726" style="fill: #4c72b0; stroke: #4c72b0"/>
     <use xlink:href="#m61eac46f88" x="184.653659" y="105.864509" style="fill: #4c72b0; stroke: #4c72b0"/>
     <use xlink:href="#m61eac46f88" x="209.15122" y="109.273955" style="fill: #4c72b0; stroke: #4c72b0"/>
     <use xlink:href="#m61eac46f88" x="241.814634" y="109.014324" style="fill: #4c72b0; stroke: #4c72b0"/>
     <use xlink:href="#m61eac46f88" x="274.478049" y="112.012125" style="fill: #4c72b0; stroke: #4c72b0"/>
     <use xlink:href="#m61eac46f88" x="307.141463" y="77.865" style="fill: #4c72b0; stroke: #4c72b0"/>
     <use xlink:href="#m61eac46f88" x="339.804878" y="88.42525" style="fill: #4c72b0; stroke: #4c72b0"/>
    </g>
   </g>
   <g id="line2d_12">
    <path d="M 62.165854 103.801209 
L 63.799024 102.355261 
L 67.065366 99.556686 
L 68.698537 98.164479 
L 70.331707 96.761375 
L 71.964878 95.344877 
L 73.598049 93.927359 
L 75.23122 92.550636 
L 78.497561 90.862093 
L 82.580488 92.499626 
L 86.663415 93.482297 
L 90.746341 94.80647 
L 94.829268 96.217048 
L 98.912195 98.04531 
L 102.995122 99.518915 
L 111.160976 99.320161 
L 119.326829 98.558539 
L 127.492683 99.994715 
L 143.82439 102.250809 
L 160.156098 103.870078 
L 184.653659 106.056415 
L 209.15122 107.336007 
L 241.814634 102.551309 
L 274.478049 98.090008 
L 307.141463 93.713562 
L 339.804878 88.741752 
" clip-path="url(#pa8b212bd77)" style="fill: none; stroke: #4c72b0; stroke-width: 1.5; stroke-linecap: round"/>
   </g>
   <g id="line2d_13">
    <defs>
     <path id="m33df39e779" d="M 0 0.5 
C 0.132602 0.5 0.25979 0.447317 0.353553 0.353553 
C 0.447317 0.25979 0.5 0.132602 0.5 0 
C 0.5 -0.132602 0.447317 -0.25979 0.353553 -0.353553 
C 0.25979 -0.447317 0.132602 -0.5 0 -0.5 
C -0.132602 -0.5 -0.25979 -0.447317 -0.353553 -0.353553 
C -0.447317 -0.25979 -0.5 -0.132602 -0.5 0 
C -0.5 0.132602 -0.447317 0.25979 -0.353553 0.353553 
C -0.25979 0.447317 -0.132602 0.5 0 0.5 
z
" style="stroke: #dd8452"/>
    </defs>
    <g clip-path="url(#pa8b212bd77)">
     <use xlink:href="#m33df39e779" x="62.165854" y="48.571132" style="fill: #dd8452; stroke: #dd8452"/>
     <use xlink:href="#m33df39e779" x="63.799024" y="40.95" style="fill: #dd8452; stroke: #dd8452"/>
     <use xlink:href="#m33df39e779" x="67.065366" y="69.102" style="fill: #dd8452; stroke: #dd8452"/>
     <use xlink:href="#m33df39e779" x="68.698537" y="54.52875" style="fill: #dd8452; stroke: #dd8452"/>
     <use xlink:href="#m33df39e779" x="70.331707" y="77.504595" style="fill: #dd8452; stroke: #dd8452"/>
     <use xlink:href="#m33df39e779" x="71.964878" y="92.065909" style="fill: #dd8452; stroke: #dd8452"/>
     <use xlink:href="#m33df39e779" x="73.598049" y="86.652581" style="fill: #dd8452; stroke: #dd8452"/>
     <use xlink:href="#m33df39e779" x="75.23122" y="71.371314" style="fill: #dd8452; stroke: #dd8452"/>
     <use xlink:href="#m33df39e779" x="78.497561" y="53.179375" style="fill: #dd8452; stroke: #dd8452"/>
     <use xlink:href="#m33df39e779" x="82.580488" y="91.262975" style="fill: #dd8452; stroke: #dd8452"/>
     <use xlink:href="#m33df39e779" x="86.663415" y="106.093636" style="fill: #dd8452; stroke: #dd8452"/>
     <use xlink:href="#m33df39e779" x="90.746341" y="106.786364" style="fill: #dd8452; stroke: #dd8452"/>
     <use xlink:href="#m33df39e779" x="94.829268" y="88.66" style="fill: #dd8452; stroke: #dd8452"/>
     <use xlink:href="#m33df39e779" x="98.912195" y="107.725583" style="fill: #dd8452; stroke: #dd8452"/>
     <use xlink:href="#m33df39e779" x="102.995122" y="80.418956" style="fill: #dd8452; stroke: #dd8452"/>
     <use xlink:href="#m33df39e779" x="111.160976" y="81.836441" style="fill: #dd8452; stroke: #dd8452"/>
     <use xlink:href="#m33df39e779" x="119.326829" y="76.4213" style="fill: #dd8452; stroke: #dd8452"/>
     <use xlink:href="#m33df39e779" x="127.492683" y="109.000978" style="fill: #dd8452; stroke: #dd8452"/>
     <use xlink:href="#m33df39e779" x="143.82439" y="99.925226" style="fill: #dd8452; stroke: #dd8452"/>
     <use xlink:href="#m33df39e779" x="160.156098" y="99.259203" style="fill: #dd8452; stroke: #dd8452"/>
     <use xlink:href="#m33df39e779" x="184.653659" y="108.006847" style="fill: #dd8452; stroke: #dd8452"/>
     <use xlink:href="#m33df39e779" x="209.15122" y="123.683461" style="fill: #dd8452; stroke: #dd8452"/>
     <use xlink:href="#m33df39e779" x="241.814634" y="124.46027" style="fill: #dd8452; stroke: #dd8452"/>
     <use xlink:href="#m33df39e779" x="274.478049" y="142.777875" style="fill: #dd8452; stroke: #dd8452"/>
     <use xlink:href="#m33df39e779" x="307.141463" y="132.1575" style="fill: #dd8452; stroke: #dd8452"/>
     <use xlink:href="#m33df39e779" x="339.804878" y="130.807098" style="fill: #dd8452; stroke: #dd8452"/>
    </g>
   </g>
   <g id="line2d_14">
    <path d="M 62.165854 50.14742 
L 63.799024 53.8253 
L 67.065366 60.951243 
L 68.698537 64.429825 
L 70.331707 67.875384 
L 71.964878 71.313451 
L 73.598049 74.761797 
L 75.23122 78.196323 
L 78.497561 84.438472 
L 82.580488 89.371909 
L 86.663415 92.709713 
L 90.746341 94.188399 
L 94.829268 93.856621 
L 98.912195 91.468097 
L 102.995122 90.219599 
L 111.160976 91.045977 
L 119.326829 93.000688 
L 127.492683 94.531943 
L 143.82439 97.940501 
L 160.156098 103.264322 
L 184.653659 110.769407 
L 209.15122 118.213969 
L 241.814634 124.062777 
L 274.478049 128.835218 
L 307.141463 133.778606 
L 339.804878 138.278082 
" clip-path="url(#pa8b212bd77)" style="fill: none; stroke: #dd8452; stroke-width: 1.5; stroke-linecap: round"/>
   </g>
   <g id="line2d_15">
    <defs>
     <path id="m813c799561" d="M 0 0.5 
C 0.132602 0.5 0.25979 0.447317 0.353553 0.353553 
C 0.447317 0.25979 0.5 0.132602 0.5 0 
C 0.5 -0.132602 0.447317 -0.25979 0.353553 -0.353553 
C 0.25979 -0.447317 0.132602 -0.5 0 -0.5 
C -0.132602 -0.5 -0.25979 -0.447317 -0.353553 -0.353553 
C -0.447317 -0.25979 -0.5 -0.132602 -0.5 0 
C -0.5 0.132602 -0.447317 0.25979 -0.353553 0.353553 
C -0.25979 0.447317 -0.132602 0.5 0 0.5 
z
" style="stroke: #55a868"/>
    </defs>
    <g clip-path="url(#pa8b212bd77)">
     <use xlink:href="#m813c799561" x="62.165854" y="168.334528" style="fill: #55a868; stroke: #55a868"/>
     <use xlink:href="#m813c799561" x="63.799024" y="193.95" style="fill: #55a868; stroke: #55a868"/>
     <use xlink:href="#m813c799561" x="67.065366" y="180.83025" style="fill: #55a868; stroke: #55a868"/>
     <use xlink:href="#m813c799561" x="68.698537" y="159.78" style="fill: #55a868; stroke: #55a868"/>
     <use xlink:href="#m813c799561" x="70.331707" y="166.782162" style="fill: #55a868; stroke: #55a868"/>
     <use xlink:href="#m813c799561" x="71.964878" y="162.724091" style="fill: #55a868; stroke: #55a868"/>
     <use xlink:href="#m813c799561" x="73.598049" y="161.869355" style="fill: #55a868; stroke: #55a868"/>
     <use xlink:href="#m813c799561" x="75.23122" y="173.490438" style="fill: #55a868; stroke: #55a868"/>
     <use xlink:href="#m813c799561" x="78.497561" y="173.27375" style="fill: #55a868; stroke: #55a868"/>
     <use xlink:href="#m813c799561" x="82.580488" y="161.921157" style="fill: #55a868; stroke: #55a868"/>
     <use xlink:href="#m813c799561" x="86.663415" y="137.266364" style="fill: #55a868; stroke: #55a868"/>
     <use xlink:href="#m813c799561" x="90.746341" y="128.376364" style="fill: #55a868; stroke: #55a868"/>
     <use xlink:href="#m813c799561" x="94.829268" y="148.35" style="fill: #55a868; stroke: #55a868"/>
     <use xlink:href="#m813c799561" x="98.912195" y="156.601104" style="fill: #55a868; stroke: #55a868"/>
     <use xlink:href="#m813c799561" x="102.995122" y="156.221209" style="fill: #55a868; stroke: #55a868"/>
     <use xlink:href="#m813c799561" x="111.160976" y="160.877797" style="fill: #55a868; stroke: #55a868"/>
     <use xlink:href="#m813c799561" x="119.326829" y="145.257578" style="fill: #55a868; stroke: #55a868"/>
     <use xlink:href="#m813c799561" x="127.492683" y="140.11033" style="fill: #55a868; stroke: #55a868"/>
     <use xlink:href="#m813c799561" x="143.82439" y="135.600257" style="fill: #55a868; stroke: #55a868"/>
     <use xlink:href="#m813c799561" x="160.156098" y="114.920553" style="fill: #55a868; stroke: #55a868"/>
     <use xlink:href="#m813c799561" x="184.653659" y="122.146273" style="fill: #55a868; stroke: #55a868"/>
     <use xlink:href="#m813c799561" x="209.15122" y="116.697034" style="fill: #55a868; stroke: #55a868"/>
     <use xlink:href="#m813c799561" x="241.814634" y="107.160811" style="fill: #55a868; stroke: #55a868"/>
     <use xlink:href="#m813c799561" x="274.478049" y="75.579" style="fill: #55a868; stroke: #55a868"/>
     <use xlink:href="#m813c799561" x="307.141463" y="115.965" style="fill: #55a868; stroke: #55a868"/>
     <use xlink:href="#m813c799561" x="339.804878" y="109.975342" style="fill: #55a868; stroke: #55a868"/>
    </g>
   </g>
   <g id="line2d_16">
    <path d="M 62.165854 176.054897 
L 63.799024 174.771489 
L 67.065366 172.236917 
L 68.698537 170.964938 
L 70.331707 169.657654 
L 71.964878 168.286022 
L 73.598049 166.820086 
L 75.23122 165.241084 
L 78.497561 161.952866 
L 82.580488 157.019937 
L 86.663415 155.477431 
L 90.746341 154.402577 
L 94.829268 153.687037 
L 98.912195 153.52263 
L 102.995122 152.34767 
L 111.160976 149.667289 
L 119.326829 146.459697 
L 127.492683 141.526025 
L 143.82439 133.724456 
L 160.156098 128.846082 
L 184.653659 121.635779 
L 209.15122 115.850052 
L 241.814634 115.683315 
L 274.478049 113.685893 
L 307.141463 111.70497 
L 339.804878 110.064052 
" clip-path="url(#pa8b212bd77)" style="fill: none; stroke: #55a868; stroke-width: 1.5; stroke-linecap: round"/>
   </g>
   <g id="text_11">
    <!-- democrat -->
    <g style="fill: #4c72b0" transform="translate(344.70439 88.533) scale(0.12 -0.12)">
     <defs>
      <path id="Montserrat-Regular-64" d="M 3706 4749 
L 3706 0 
L 3270 0 
L 3270 666 
Q 3066 326 2730 147 
Q 2394 -32 1971 -32 
Q 1498 -32 1114 185 
Q 730 403 512 793 
Q 294 1184 294 1683 
Q 294 2182 512 2572 
Q 730 2963 1114 3177 
Q 1498 3392 1971 3392 
Q 2381 3392 2710 3222 
Q 3040 3053 3251 2726 
L 3251 4749 
L 3706 4749 
z
M 2010 371 
Q 2362 371 2646 534 
Q 2931 698 3094 998 
Q 3258 1299 3258 1683 
Q 3258 2067 3094 2368 
Q 2931 2669 2646 2832 
Q 2362 2995 2010 2995 
Q 1651 2995 1366 2832 
Q 1082 2669 918 2368 
Q 755 2067 755 1683 
Q 755 1299 918 998 
Q 1082 698 1366 534 
Q 1651 371 2010 371 
z
" transform="scale(0.015625)"/>
      <path id="Montserrat-Regular-65" d="M 3565 1542 
L 749 1542 
Q 787 1018 1152 694 
Q 1517 371 2074 371 
Q 2387 371 2649 483 
Q 2912 595 3104 813 
L 3360 518 
Q 3136 250 2800 109 
Q 2464 -32 2061 -32 
Q 1542 -32 1142 189 
Q 742 410 518 800 
Q 294 1190 294 1683 
Q 294 2176 508 2566 
Q 723 2957 1097 3174 
Q 1472 3392 1939 3392 
Q 2406 3392 2777 3174 
Q 3149 2957 3360 2569 
Q 3571 2182 3571 1683 
L 3565 1542 
z
M 1939 3002 
Q 1453 3002 1123 2691 
Q 794 2381 749 1882 
L 3136 1882 
Q 3091 2381 2761 2691 
Q 2432 3002 1939 3002 
z
" transform="scale(0.015625)"/>
      <path id="Montserrat-Regular-6d" d="M 4832 3392 
Q 5466 3392 5827 3027 
Q 6189 2662 6189 1952 
L 6189 0 
L 5734 0 
L 5734 1907 
Q 5734 2432 5481 2707 
Q 5229 2982 4768 2982 
Q 4243 2982 3942 2659 
Q 3642 2336 3642 1766 
L 3642 0 
L 3187 0 
L 3187 1907 
Q 3187 2432 2934 2707 
Q 2682 2982 2214 2982 
Q 1696 2982 1392 2659 
Q 1088 2336 1088 1766 
L 1088 0 
L 634 0 
L 634 3366 
L 1069 3366 
L 1069 2752 
Q 1248 3059 1568 3225 
Q 1888 3392 2304 3392 
Q 2726 3392 3036 3213 
Q 3347 3034 3501 2682 
Q 3686 3014 4035 3203 
Q 4384 3392 4832 3392 
z
" transform="scale(0.015625)"/>
      <path id="Montserrat-Regular-6f" d="M 2010 -32 
Q 1523 -32 1132 189 
Q 742 410 518 800 
Q 294 1190 294 1683 
Q 294 2176 518 2566 
Q 742 2957 1132 3174 
Q 1523 3392 2010 3392 
Q 2496 3392 2886 3174 
Q 3277 2957 3497 2566 
Q 3718 2176 3718 1683 
Q 3718 1190 3497 800 
Q 3277 410 2886 189 
Q 2496 -32 2010 -32 
z
M 2010 371 
Q 2368 371 2653 534 
Q 2938 698 3098 998 
Q 3258 1299 3258 1683 
Q 3258 2067 3098 2368 
Q 2938 2669 2653 2832 
Q 2368 2995 2010 2995 
Q 1651 2995 1366 2832 
Q 1082 2669 918 2368 
Q 755 2067 755 1683 
Q 755 1299 918 998 
Q 1082 698 1366 534 
Q 1651 371 2010 371 
z
" transform="scale(0.015625)"/>
      <path id="Montserrat-Regular-63" d="M 2029 -32 
Q 1530 -32 1136 185 
Q 742 403 518 796 
Q 294 1190 294 1683 
Q 294 2176 518 2566 
Q 742 2957 1136 3174 
Q 1530 3392 2029 3392 
Q 2464 3392 2806 3222 
Q 3149 3053 3347 2726 
L 3008 2496 
Q 2842 2746 2586 2870 
Q 2330 2995 2029 2995 
Q 1664 2995 1373 2832 
Q 1082 2669 918 2368 
Q 755 2067 755 1683 
Q 755 1293 918 995 
Q 1082 698 1373 534 
Q 1664 371 2029 371 
Q 2330 371 2586 492 
Q 2842 614 3008 864 
L 3347 634 
Q 3149 307 2803 137 
Q 2458 -32 2029 -32 
z
" transform="scale(0.015625)"/>
      <path id="Montserrat-Regular-72" d="M 1069 2707 
Q 1229 3046 1545 3219 
Q 1862 3392 2330 3392 
L 2330 2950 
L 2221 2957 
Q 1690 2957 1389 2630 
Q 1088 2304 1088 1715 
L 1088 0 
L 634 0 
L 634 3366 
L 1069 3366 
L 1069 2707 
z
" transform="scale(0.015625)"/>
      <path id="Montserrat-Regular-61" d="M 1811 3392 
Q 2470 3392 2822 3062 
Q 3174 2733 3174 2086 
L 3174 0 
L 2739 0 
L 2739 525 
Q 2586 262 2288 115 
Q 1990 -32 1581 -32 
Q 1018 -32 685 237 
Q 352 506 352 947 
Q 352 1376 662 1638 
Q 973 1901 1651 1901 
L 2720 1901 
L 2720 2106 
Q 2720 2541 2477 2768 
Q 2234 2995 1766 2995 
Q 1446 2995 1152 2889 
Q 858 2784 646 2598 
L 442 2938 
Q 698 3155 1056 3273 
Q 1414 3392 1811 3392 
z
M 1651 326 
Q 2035 326 2310 502 
Q 2586 678 2720 1011 
L 2720 1562 
L 1664 1562 
Q 800 1562 800 960 
Q 800 666 1024 496 
Q 1248 326 1651 326 
z
" transform="scale(0.015625)"/>
      <path id="Montserrat-Regular-74" d="M 2406 205 
Q 2278 90 2089 29 
Q 1901 -32 1696 -32 
Q 1222 -32 966 224 
Q 710 480 710 947 
L 710 2982 
L 109 2982 
L 109 3366 
L 710 3366 
L 710 4102 
L 1165 4102 
L 1165 3366 
L 2189 3366 
L 2189 2982 
L 1165 2982 
L 1165 973 
Q 1165 672 1315 515 
Q 1466 358 1747 358 
Q 1888 358 2019 403 
Q 2150 448 2246 531 
L 2406 205 
z
" transform="scale(0.015625)"/>
     </defs>
     <use xlink:href="#Montserrat-Regular-64"/>
     <use xlink:href="#Montserrat-Regular-65" x="67.799988"/>
     <use xlink:href="#Montserrat-Regular-6d" x="128.199982"/>
     <use xlink:href="#Montserrat-Regular-6f" x="234.299973"/>
     <use xlink:href="#Montserrat-Regular-63" x="296.999969"/>
     <use xlink:href="#Montserrat-Regular-72" x="353.299957"/>
     <use xlink:href="#Montserrat-Regular-61" x="393.399948"/>
     <use xlink:href="#Montserrat-Regular-74" x="452.399933"/>
    </g>
   </g>
   <g id="text_12">
    <!-- independent -->
    <g style="fill: #dd8452" transform="translate(344.70439 146.826) scale(0.12 -0.12)">
     <defs>
      <path id="Montserrat-Regular-69" d="M 634 3366 
L 1088 3366 
L 1088 0 
L 634 0 
L 634 3366 
z
M 864 4102 
Q 723 4102 627 4198 
Q 531 4294 531 4429 
Q 531 4557 627 4653 
Q 723 4749 864 4749 
Q 1005 4749 1101 4656 
Q 1197 4563 1197 4435 
Q 1197 4294 1101 4198 
Q 1005 4102 864 4102 
z
" transform="scale(0.015625)"/>
      <path id="Montserrat-Regular-6e" d="M 2349 3392 
Q 2982 3392 3356 3024 
Q 3731 2656 3731 1952 
L 3731 0 
L 3277 0 
L 3277 1907 
Q 3277 2432 3014 2707 
Q 2752 2982 2266 2982 
Q 1722 2982 1405 2659 
Q 1088 2336 1088 1766 
L 1088 0 
L 634 0 
L 634 3366 
L 1069 3366 
L 1069 2746 
Q 1254 3053 1584 3222 
Q 1914 3392 2349 3392 
z
" transform="scale(0.015625)"/>
      <path id="Montserrat-Regular-70" d="M 2368 3392 
Q 2842 3392 3226 3177 
Q 3610 2963 3827 2572 
Q 4045 2182 4045 1683 
Q 4045 1178 3827 787 
Q 3610 397 3229 182 
Q 2848 -32 2368 -32 
Q 1958 -32 1628 137 
Q 1299 307 1088 634 
L 1088 -1242 
L 634 -1242 
L 634 3366 
L 1069 3366 
L 1069 2701 
Q 1274 3034 1610 3213 
Q 1946 3392 2368 3392 
z
M 2336 371 
Q 2688 371 2976 534 
Q 3264 698 3427 998 
Q 3590 1299 3590 1683 
Q 3590 2067 3427 2364 
Q 3264 2662 2976 2828 
Q 2688 2995 2336 2995 
Q 1978 2995 1693 2828 
Q 1408 2662 1245 2364 
Q 1082 2067 1082 1683 
Q 1082 1299 1245 998 
Q 1408 698 1693 534 
Q 1978 371 2336 371 
z
" transform="scale(0.015625)"/>
     </defs>
     <use xlink:href="#Montserrat-Regular-69"/>
     <use xlink:href="#Montserrat-Regular-6e" x="26.899994"/>
     <use xlink:href="#Montserrat-Regular-64" x="94.599976"/>
     <use xlink:href="#Montserrat-Regular-65" x="162.399963"/>
     <use xlink:href="#Montserrat-Regular-70" x="222.799957"/>
     <use xlink:href="#Montserrat-Regular-65" x="290.599945"/>
     <use xlink:href="#Montserrat-Regular-6e" x="350.999939"/>
     <use xlink:href="#Montserrat-Regular-64" x="418.699921"/>
     <use xlink:href="#Montserrat-Regular-65" x="486.499908"/>
     <use xlink:href="#Montserrat-Regular-6e" x="546.899902"/>
     <use xlink:href="#Montserrat-Regular-74" x="614.599884"/>
    </g>
   </g>
   <g id="text_13">
    <!-- republican -->
    <g style="fill: #55a868" transform="translate(344.70439 107.964) scale(0.12 -0.12)">
     <defs>
      <path id="Montserrat-Regular-75" d="M 3667 3366 
L 3667 0 
L 3232 0 
L 3232 614 
Q 3053 307 2739 137 
Q 2426 -32 2022 -32 
Q 1363 -32 982 336 
Q 602 704 602 1414 
L 602 3366 
L 1056 3366 
L 1056 1459 
Q 1056 928 1318 653 
Q 1581 378 2067 378 
Q 2598 378 2905 701 
Q 3213 1024 3213 1600 
L 3213 3366 
L 3667 3366 
z
" transform="scale(0.015625)"/>
      <path id="Montserrat-Regular-62" d="M 2368 3392 
Q 2842 3392 3226 3177 
Q 3610 2963 3827 2572 
Q 4045 2182 4045 1683 
Q 4045 1184 3827 793 
Q 3610 403 3226 185 
Q 2842 -32 2368 -32 
Q 1946 -32 1610 147 
Q 1274 326 1069 666 
L 1069 0 
L 634 0 
L 634 4749 
L 1088 4749 
L 1088 2726 
Q 1299 3053 1628 3222 
Q 1958 3392 2368 3392 
z
M 2336 371 
Q 2688 371 2976 534 
Q 3264 698 3427 998 
Q 3590 1299 3590 1683 
Q 3590 2067 3427 2368 
Q 3264 2669 2976 2832 
Q 2688 2995 2336 2995 
Q 1978 2995 1693 2832 
Q 1408 2669 1245 2368 
Q 1082 2067 1082 1683 
Q 1082 1299 1245 998 
Q 1408 698 1693 534 
Q 1978 371 2336 371 
z
" transform="scale(0.015625)"/>
      <path id="Montserrat-Regular-6c" d="M 634 4749 
L 1088 4749 
L 1088 0 
L 634 0 
L 634 4749 
z
" transform="scale(0.015625)"/>
     </defs>
     <use xlink:href="#Montserrat-Regular-72"/>
     <use xlink:href="#Montserrat-Regular-65" x="40.099991"/>
     <use xlink:href="#Montserrat-Regular-70" x="100.499985"/>
     <use xlink:href="#Montserrat-Regular-75" x="168.299973"/>
     <use xlink:href="#Montserrat-Regular-62" x="235.59996"/>
     <use xlink:href="#Montserrat-Regular-6c" x="303.399948"/>
     <use xlink:href="#Montserrat-Regular-69" x="330.299942"/>
     <use xlink:href="#Montserrat-Regular-63" x="357.199936"/>
     <use xlink:href="#Montserrat-Regular-61" x="413.499924"/>
     <use xlink:href="#Montserrat-Regular-6e" x="472.499908"/>
    </g>
   </g>
   <g id="text_14">
    <!-- dynomight.net -->
    <g style="fill: #262626; opacity: 0.5" transform="translate(372.468293 200.84418) scale(0.04 -0.04)">
     <defs>
      <path id="CourierNewPSMT-64" d="M 3206 3922 
L 3206 263 
L 3556 263 
Q 3653 263 3693 227 
Q 3734 191 3734 131 
Q 3734 75 3693 37 
Q 3653 0 3556 0 
L 2941 0 
L 2941 522 
Q 2484 -103 1781 -103 
Q 1425 -103 1098 86 
Q 772 275 583 625 
Q 394 975 394 1347 
Q 394 1722 583 2070 
Q 772 2419 1098 2609 
Q 1425 2800 1784 2800 
Q 2472 2800 2941 2175 
L 2941 3656 
L 2591 3656 
Q 2494 3656 2453 3693 
Q 2413 3731 2413 3791 
Q 2413 3847 2453 3884 
Q 2494 3922 2591 3922 
L 3206 3922 
z
M 2941 1347 
Q 2941 1847 2603 2190 
Q 2266 2534 1800 2534 
Q 1331 2534 993 2190 
Q 656 1847 656 1347 
Q 656 850 993 504 
Q 1331 159 1800 159 
Q 2266 159 2603 504 
Q 2941 850 2941 1347 
z
" transform="scale(0.015625)"/>
      <path id="CourierNewPSMT-79" d="M 1938 0 
L 719 2441 
L 641 2441 
Q 547 2441 506 2478 
Q 466 2516 466 2572 
Q 466 2613 486 2645 
Q 506 2678 539 2692 
Q 572 2706 641 2706 
L 1359 2706 
Q 1453 2706 1493 2668 
Q 1534 2631 1534 2572 
Q 1534 2516 1493 2478 
Q 1453 2441 1359 2441 
L 1006 2441 
L 2078 288 
L 3134 2441 
L 2781 2441 
Q 2688 2441 2647 2478 
Q 2606 2516 2606 2575 
Q 2606 2631 2647 2668 
Q 2688 2706 2781 2706 
L 3497 2706 
Q 3594 2706 3634 2668 
Q 3675 2631 3675 2572 
Q 3675 2531 3650 2497 
Q 3625 2463 3594 2452 
Q 3563 2441 3419 2441 
L 1756 -944 
L 2166 -944 
Q 2259 -944 2300 -980 
Q 2341 -1016 2341 -1075 
Q 2341 -1131 2300 -1168 
Q 2259 -1206 2166 -1206 
L 653 -1206 
Q 559 -1206 518 -1170 
Q 478 -1134 478 -1075 
Q 478 -1016 518 -980 
Q 559 -944 653 -944 
L 1475 -944 
L 1938 0 
z
" transform="scale(0.015625)"/>
      <path id="CourierNewPSMT-6e" d="M 1072 2706 
L 1072 2309 
Q 1347 2588 1569 2694 
Q 1791 2800 2069 2800 
Q 2369 2800 2616 2672 
Q 2791 2578 2933 2361 
Q 3075 2144 3075 1916 
L 3075 263 
L 3297 263 
Q 3391 263 3431 227 
Q 3472 191 3472 131 
Q 3472 75 3431 37 
Q 3391 0 3297 0 
L 2594 0 
Q 2497 0 2456 37 
Q 2416 75 2416 131 
Q 2416 191 2456 227 
Q 2497 263 2594 263 
L 2813 263 
L 2813 1872 
Q 2813 2150 2609 2342 
Q 2406 2534 2066 2534 
Q 1806 2534 1615 2429 
Q 1425 2325 1072 1909 
L 1072 263 
L 1369 263 
Q 1463 263 1503 227 
Q 1544 191 1544 131 
Q 1544 75 1503 37 
Q 1463 0 1369 0 
L 513 0 
Q 419 0 378 37 
Q 338 75 338 131 
Q 338 191 378 227 
Q 419 263 513 263 
L 809 263 
L 809 2441 
L 588 2441 
Q 494 2441 453 2478 
Q 413 2516 413 2575 
Q 413 2631 453 2668 
Q 494 2706 588 2706 
L 1072 2706 
z
" transform="scale(0.015625)"/>
      <path id="CourierNewPSMT-6f" d="M 3388 1347 
Q 3388 747 2958 322 
Q 2528 -103 1922 -103 
Q 1309 -103 881 323 
Q 453 750 453 1347 
Q 453 1947 881 2373 
Q 1309 2800 1922 2800 
Q 2528 2800 2958 2375 
Q 3388 1950 3388 1347 
z
M 3122 1347 
Q 3122 1841 2770 2187 
Q 2419 2534 1919 2534 
Q 1419 2534 1067 2186 
Q 716 1838 716 1347 
Q 716 859 1067 509 
Q 1419 159 1919 159 
Q 2419 159 2770 507 
Q 3122 856 3122 1347 
z
" transform="scale(0.015625)"/>
      <path id="CourierNewPSMT-6d" d="M 725 2706 
L 725 2441 
Q 1059 2800 1397 2800 
Q 1600 2800 1753 2692 
Q 1906 2584 2009 2366 
Q 2184 2584 2364 2692 
Q 2544 2800 2725 2800 
Q 3009 2800 3178 2616 
Q 3400 2378 3400 2097 
L 3400 263 
L 3622 263 
Q 3716 263 3756 227 
Q 3797 191 3797 131 
Q 3797 75 3756 37 
Q 3716 0 3622 0 
L 3138 0 
L 3138 2072 
Q 3138 2272 3016 2403 
Q 2894 2534 2734 2534 
Q 2591 2534 2431 2426 
Q 2272 2319 2069 2003 
L 2069 263 
L 2288 263 
Q 2381 263 2422 227 
Q 2463 191 2463 131 
Q 2463 75 2422 37 
Q 2381 0 2288 0 
L 1803 0 
L 1803 2053 
Q 1803 2263 1679 2398 
Q 1556 2534 1403 2534 
Q 1263 2534 1125 2444 
Q 934 2316 725 2003 
L 725 263 
L 947 263 
Q 1041 263 1081 227 
Q 1122 191 1122 131 
Q 1122 75 1081 37 
Q 1041 0 947 0 
L 241 0 
Q 147 0 106 37 
Q 66 75 66 131 
Q 66 191 106 227 
Q 147 263 241 263 
L 463 263 
L 463 2441 
L 241 2441 
Q 147 2441 106 2478 
Q 66 2516 66 2575 
Q 66 2631 106 2668 
Q 147 2706 241 2706 
L 725 2706 
z
" transform="scale(0.015625)"/>
      <path id="CourierNewPSMT-69" d="M 2050 4053 
L 2050 3375 
L 1663 3375 
L 1663 4053 
L 2050 4053 
z
M 2059 2706 
L 2059 263 
L 3091 263 
Q 3188 263 3228 227 
Q 3269 191 3269 131 
Q 3269 75 3228 37 
Q 3188 0 3091 0 
L 766 0 
Q 672 0 631 37 
Q 591 75 591 131 
Q 591 191 631 227 
Q 672 263 766 263 
L 1797 263 
L 1797 2441 
L 1031 2441 
Q 938 2441 895 2478 
Q 853 2516 853 2572 
Q 853 2631 893 2668 
Q 934 2706 1031 2706 
L 2059 2706 
z
" transform="scale(0.015625)"/>
      <path id="CourierNewPSMT-67" d="M 2803 2225 
L 2803 2706 
L 3419 2706 
Q 3513 2706 3553 2668 
Q 3594 2631 3594 2572 
Q 3594 2516 3553 2478 
Q 3513 2441 3419 2441 
L 3066 2441 
L 3066 -181 
Q 3066 -444 2953 -650 
Q 2878 -788 2703 -934 
Q 2528 -1081 2384 -1143 
Q 2241 -1206 2000 -1206 
L 1256 -1206 
Q 1163 -1206 1122 -1170 
Q 1081 -1134 1081 -1075 
Q 1081 -1016 1122 -978 
Q 1163 -941 1256 -941 
L 2009 -944 
Q 2241 -944 2427 -825 
Q 2613 -706 2734 -478 
Q 2803 -347 2803 -144 
L 2803 644 
Q 2381 66 1716 66 
Q 1175 66 783 467 
Q 391 869 391 1434 
Q 391 2000 783 2400 
Q 1175 2800 1716 2800 
Q 2381 2800 2803 2225 
z
M 2803 1434 
Q 2803 1897 2486 2215 
Q 2169 2534 1728 2534 
Q 1288 2534 972 2214 
Q 656 1894 656 1434 
Q 656 972 972 651 
Q 1288 331 1728 331 
Q 2169 331 2486 651 
Q 2803 972 2803 1434 
z
" transform="scale(0.015625)"/>
      <path id="CourierNewPSMT-68" d="M 1056 3922 
L 1056 2306 
Q 1306 2578 1536 2689 
Q 1766 2800 2050 2800 
Q 2356 2800 2570 2692 
Q 2784 2584 2928 2361 
Q 3072 2138 3072 1891 
L 3072 263 
L 3366 263 
Q 3463 263 3502 227 
Q 3541 191 3541 131 
Q 3541 75 3502 37 
Q 3463 0 3366 0 
L 2513 0 
Q 2416 0 2375 37 
Q 2334 75 2334 131 
Q 2334 191 2375 227 
Q 2416 263 2513 263 
L 2806 263 
L 2806 1872 
Q 2806 2156 2601 2347 
Q 2397 2538 2031 2538 
Q 1744 2538 1541 2397 
Q 1394 2297 1056 1925 
L 1056 263 
L 1353 263 
Q 1447 263 1487 227 
Q 1528 191 1528 131 
Q 1528 75 1487 37 
Q 1447 0 1353 0 
L 497 0 
Q 403 0 362 37 
Q 322 75 322 131 
Q 322 191 362 227 
Q 403 263 497 263 
L 794 263 
L 794 3656 
L 441 3656 
Q 347 3656 306 3693 
Q 266 3731 266 3791 
Q 266 3847 306 3884 
Q 347 3922 441 3922 
L 1056 3922 
z
" transform="scale(0.015625)"/>
      <path id="CourierNewPSMT-74" d="M 1381 2706 
L 2806 2706 
Q 2900 2706 2940 2668 
Q 2981 2631 2981 2572 
Q 2981 2516 2940 2478 
Q 2900 2441 2806 2441 
L 1381 2441 
L 1381 694 
Q 1381 466 1564 312 
Q 1747 159 2100 159 
Q 2366 159 2675 239 
Q 2984 319 3156 419 
Q 3219 459 3259 459 
Q 3309 459 3346 420 
Q 3384 381 3384 328 
Q 3384 281 3344 241 
Q 3244 138 2858 17 
Q 2472 -103 2119 -103 
Q 1659 -103 1387 112 
Q 1116 328 1116 694 
L 1116 2441 
L 631 2441 
Q 538 2441 497 2478 
Q 456 2516 456 2575 
Q 456 2631 497 2668 
Q 538 2706 631 2706 
L 1116 2706 
L 1116 3481 
Q 1116 3575 1153 3615 
Q 1191 3656 1247 3656 
Q 1306 3656 1343 3615 
Q 1381 3575 1381 3481 
L 1381 2706 
z
" transform="scale(0.015625)"/>
      <path id="CourierNewPSMT-2e" d="M 1866 753 
L 1978 753 
Q 2153 753 2278 629 
Q 2403 506 2403 331 
Q 2403 150 2276 28 
Q 2150 -94 1978 -94 
L 1866 -94 
Q 1691 -94 1566 29 
Q 1441 153 1441 328 
Q 1441 509 1567 631 
Q 1694 753 1866 753 
z
" transform="scale(0.015625)"/>
      <path id="CourierNewPSMT-65" d="M 3341 1291 
L 666 1291 
Q 734 781 1092 470 
Q 1450 159 1978 159 
Q 2272 159 2594 256 
Q 2916 353 3119 513 
Q 3178 559 3222 559 
Q 3272 559 3309 520 
Q 3347 481 3347 428 
Q 3347 375 3297 325 
Q 3147 169 2764 33 
Q 2381 -103 1978 -103 
Q 1303 -103 851 339 
Q 400 781 400 1409 
Q 400 1981 823 2390 
Q 1247 2800 1872 2800 
Q 2516 2800 2931 2379 
Q 3347 1959 3341 1291 
z
M 3075 1556 
Q 2997 1991 2664 2262 
Q 2331 2534 1872 2534 
Q 1413 2534 1081 2265 
Q 750 1997 669 1556 
L 3075 1556 
z
" transform="scale(0.015625)"/>
     </defs>
     <use xlink:href="#CourierNewPSMT-64"/>
     <use xlink:href="#CourierNewPSMT-79" x="60.009766"/>
     <use xlink:href="#CourierNewPSMT-6e" x="120.019531"/>
     <use xlink:href="#CourierNewPSMT-6f" x="180.029297"/>
     <use xlink:href="#CourierNewPSMT-6d" x="240.039062"/>
     <use xlink:href="#CourierNewPSMT-69" x="300.048828"/>
     <use xlink:href="#CourierNewPSMT-67" x="360.058594"/>
     <use xlink:href="#CourierNewPSMT-68" x="420.068359"/>
     <use xlink:href="#CourierNewPSMT-74" x="480.078125"/>
     <use xlink:href="#CourierNewPSMT-2e" x="540.087891"/>
     <use xlink:href="#CourierNewPSMT-6e" x="600.097656"/>
     <use xlink:href="#CourierNewPSMT-65" x="660.107422"/>
     <use xlink:href="#CourierNewPSMT-74" x="720.117188"/>
    </g>
   </g>
   <g id="text_15">
    <!-- richer people are increasingly republican -->
    <g style="fill: #262626" transform="translate(98.660625 24.24) scale(0.12 -0.12)">
     <defs>
      <path id="Montserrat-Regular-68" d="M 2349 3392 
Q 2982 3392 3356 3024 
Q 3731 2656 3731 1952 
L 3731 0 
L 3277 0 
L 3277 1907 
Q 3277 2432 3014 2707 
Q 2752 2982 2266 2982 
Q 1722 2982 1405 2659 
Q 1088 2336 1088 1766 
L 1088 0 
L 634 0 
L 634 4749 
L 1088 4749 
L 1088 2778 
Q 1274 3072 1600 3232 
Q 1926 3392 2349 3392 
z
" transform="scale(0.015625)"/>
      <path id="Montserrat-Regular-20" transform="scale(0.015625)"/>
      <path id="Montserrat-Regular-73" d="M 1536 -32 
Q 1126 -32 752 86 
Q 378 205 166 384 
L 371 742 
Q 582 576 902 470 
Q 1222 365 1568 365 
Q 2029 365 2249 509 
Q 2470 653 2470 915 
Q 2470 1101 2348 1206 
Q 2227 1312 2041 1366 
Q 1856 1421 1549 1472 
Q 1139 1549 889 1629 
Q 640 1709 464 1901 
Q 288 2093 288 2432 
Q 288 2854 640 3123 
Q 992 3392 1619 3392 
Q 1946 3392 2272 3305 
Q 2598 3219 2810 3078 
L 2611 2714 
Q 2195 3002 1619 3002 
Q 1184 3002 963 2848 
Q 742 2694 742 2445 
Q 742 2253 867 2137 
Q 992 2022 1177 1968 
Q 1363 1914 1690 1856 
Q 2093 1779 2336 1702 
Q 2579 1626 2752 1440 
Q 2925 1254 2925 928 
Q 2925 486 2557 227 
Q 2189 -32 1536 -32 
z
" transform="scale(0.015625)"/>
      <path id="Montserrat-Regular-67" d="M 3750 3366 
L 3750 410 
Q 3750 -448 3331 -861 
Q 2912 -1274 2067 -1274 
Q 1600 -1274 1181 -1136 
Q 762 -998 499 -755 
L 730 -410 
Q 973 -627 1321 -748 
Q 1670 -870 2054 -870 
Q 2694 -870 2995 -572 
Q 3296 -275 3296 352 
L 3296 781 
Q 3085 461 2742 294 
Q 2400 128 1984 128 
Q 1510 128 1123 336 
Q 736 544 515 918 
Q 294 1293 294 1766 
Q 294 2240 515 2611 
Q 736 2982 1120 3187 
Q 1504 3392 1984 3392 
Q 2413 3392 2758 3219 
Q 3104 3046 3315 2720 
L 3315 3366 
L 3750 3366 
z
M 2029 531 
Q 2394 531 2688 688 
Q 2982 845 3145 1126 
Q 3309 1408 3309 1766 
Q 3309 2125 3145 2403 
Q 2982 2682 2691 2838 
Q 2400 2995 2029 2995 
Q 1664 2995 1373 2841 
Q 1082 2688 918 2406 
Q 755 2125 755 1766 
Q 755 1408 918 1126 
Q 1082 845 1373 688 
Q 1664 531 2029 531 
z
" transform="scale(0.015625)"/>
      <path id="Montserrat-Regular-79" d="M 3462 3366 
L 1779 -403 
Q 1574 -877 1305 -1075 
Q 1037 -1274 659 -1274 
Q 416 -1274 205 -1197 
Q -6 -1120 -160 -966 
L 51 -627 
Q 307 -883 666 -883 
Q 896 -883 1059 -755 
Q 1222 -627 1363 -320 
L 1510 6 
L 6 3366 
L 480 3366 
L 1747 506 
L 3014 3366 
L 3462 3366 
z
" transform="scale(0.015625)"/>
     </defs>
     <use xlink:href="#Montserrat-Regular-72"/>
     <use xlink:href="#Montserrat-Regular-69" x="40.099991"/>
     <use xlink:href="#Montserrat-Regular-63" x="66.999985"/>
     <use xlink:href="#Montserrat-Regular-68" x="123.299973"/>
     <use xlink:href="#Montserrat-Regular-65" x="190.999954"/>
     <use xlink:href="#Montserrat-Regular-72" x="251.399948"/>
     <use xlink:href="#Montserrat-Regular-20" x="291.499939"/>
     <use xlink:href="#Montserrat-Regular-70" x="317.699936"/>
     <use xlink:href="#Montserrat-Regular-65" x="385.499924"/>
     <use xlink:href="#Montserrat-Regular-6f" x="445.899918"/>
     <use xlink:href="#Montserrat-Regular-70" x="508.599915"/>
     <use xlink:href="#Montserrat-Regular-6c" x="576.399902"/>
     <use xlink:href="#Montserrat-Regular-65" x="603.299896"/>
     <use xlink:href="#Montserrat-Regular-20" x="663.69989"/>
     <use xlink:href="#Montserrat-Regular-61" x="689.899887"/>
     <use xlink:href="#Montserrat-Regular-72" x="748.899872"/>
     <use xlink:href="#Montserrat-Regular-65" x="788.999863"/>
     <use xlink:href="#Montserrat-Regular-20" x="849.399857"/>
     <use xlink:href="#Montserrat-Regular-69" x="875.599854"/>
     <use xlink:href="#Montserrat-Regular-6e" x="902.499847"/>
     <use xlink:href="#Montserrat-Regular-63" x="970.199829"/>
     <use xlink:href="#Montserrat-Regular-72" x="1026.499817"/>
     <use xlink:href="#Montserrat-Regular-65" x="1066.599808"/>
     <use xlink:href="#Montserrat-Regular-61" x="1126.999802"/>
     <use xlink:href="#Montserrat-Regular-73" x="1185.999786"/>
     <use xlink:href="#Montserrat-Regular-69" x="1234.89978"/>
     <use xlink:href="#Montserrat-Regular-6e" x="1261.799774"/>
     <use xlink:href="#Montserrat-Regular-67" x="1329.499756"/>
     <use xlink:href="#Montserrat-Regular-6c" x="1398.099747"/>
     <use xlink:href="#Montserrat-Regular-79" x="1424.999741"/>
     <use xlink:href="#Montserrat-Regular-20" x="1479.199738"/>
     <use xlink:href="#Montserrat-Regular-72" x="1505.399734"/>
     <use xlink:href="#Montserrat-Regular-65" x="1545.499725"/>
     <use xlink:href="#Montserrat-Regular-70" x="1605.899719"/>
     <use xlink:href="#Montserrat-Regular-75" x="1673.699707"/>
     <use xlink:href="#Montserrat-Regular-62" x="1740.999695"/>
     <use xlink:href="#Montserrat-Regular-6c" x="1808.799683"/>
     <use xlink:href="#Montserrat-Regular-69" x="1835.699677"/>
     <use xlink:href="#Montserrat-Regular-63" x="1862.59967"/>
     <use xlink:href="#Montserrat-Regular-61" x="1918.899658"/>
     <use xlink:href="#Montserrat-Regular-6e" x="1977.899643"/>
    </g>
   </g>
  </g>
 </g>
 <defs>
  <clipPath id="pa8b212bd77">
   <rect x="54" y="30.24" width="334.8" height="171.36"/>
  </clipPath>
 </defs>
</svg>
