<?xml version="1.0" encoding="utf-8" standalone="no"?>
<!DOCTYPE svg PUBLIC "-//W3C//DTD SVG 1.1//EN"
  "http://www.w3.org/Graphics/SVG/1.1/DTD/svg11.dtd">
<svg height="581.509063pt" version="1.1" viewBox="0 0 392.088437 581.509063" width="392.088437pt" xmlns="http://www.w3.org/2000/svg" xmlns:xlink="http://www.w3.org/1999/xlink">
 <metadata>
  <rdf:RDF xmlns:cc="http://creativecommons.org/ns#" xmlns:dc="http://purl.org/dc/elements/1.1/" xmlns:rdf="http://www.w3.org/1999/02/22-rdf-syntax-ns#">
   <cc:Work>
    <dc:type rdf:resource="http://purl.org/dc/dcmitype/StillImage"/>
    <dc:date>2021-07-26T10:32:36.542561</dc:date>
    <dc:format>image/svg+xml</dc:format>
    <dc:creator>
     <cc:Agent>
      <dc:title>Matplotlib v3.4.1, https://matplotlib.org/</dc:title>
     </cc:Agent>
    </dc:creator>
   </cc:Work>
  </rdf:RDF>
 </metadata>
 <defs>
  <style type="text/css">*{stroke-linecap:butt;stroke-linejoin:round;}</style>
 </defs>
 <g id="figure_1">
  <g id="patch_1">
   <path d="M 0 581.509063 
L 392.088437 581.509063 
L 392.088437 0 
L 0 0 
z
" style="fill:none;"/>
  </g>
  <g id="axes_1">
   <g id="patch_2">
    <path d="M 233.305 533.88 
L 372.805 533.88 
L 372.805 7.2 
L 233.305 7.2 
z
" style="fill:none;"/>
   </g>
   <g id="matplotlib.axis_1">
    <g id="xtick_1">
     <g id="text_1">
      <!-- −0.25 -->
      <g style="fill:#262626;" transform="translate(223.672918 553.764063)scale(0.18 -0.18)">
       <defs>
        <path d="M 3381 1997 
L 356 1997 
L 356 2522 
L 3381 2522 
L 3381 1997 
z
" id="ArialMT-2212" transform="scale(0.015625)"/>
        <path d="M 266 2259 
Q 266 3072 433 3567 
Q 600 4063 929 4331 
Q 1259 4600 1759 4600 
Q 2128 4600 2406 4451 
Q 2684 4303 2865 4023 
Q 3047 3744 3150 3342 
Q 3253 2941 3253 2259 
Q 3253 1453 3087 958 
Q 2922 463 2592 192 
Q 2263 -78 1759 -78 
Q 1097 -78 719 397 
Q 266 969 266 2259 
z
M 844 2259 
Q 844 1131 1108 757 
Q 1372 384 1759 384 
Q 2147 384 2411 759 
Q 2675 1134 2675 2259 
Q 2675 3391 2411 3762 
Q 2147 4134 1753 4134 
Q 1366 4134 1134 3806 
Q 844 3388 844 2259 
z
" id="ArialMT-30" transform="scale(0.015625)"/>
        <path d="M 581 0 
L 581 641 
L 1222 641 
L 1222 0 
L 581 0 
z
" id="ArialMT-2e" transform="scale(0.015625)"/>
        <path d="M 3222 541 
L 3222 0 
L 194 0 
Q 188 203 259 391 
Q 375 700 629 1000 
Q 884 1300 1366 1694 
Q 2113 2306 2375 2664 
Q 2638 3022 2638 3341 
Q 2638 3675 2398 3904 
Q 2159 4134 1775 4134 
Q 1369 4134 1125 3890 
Q 881 3647 878 3216 
L 300 3275 
Q 359 3922 746 4261 
Q 1134 4600 1788 4600 
Q 2447 4600 2831 4234 
Q 3216 3869 3216 3328 
Q 3216 3053 3103 2787 
Q 2991 2522 2730 2228 
Q 2469 1934 1863 1422 
Q 1356 997 1212 845 
Q 1069 694 975 541 
L 3222 541 
z
" id="ArialMT-32" transform="scale(0.015625)"/>
        <path d="M 266 1200 
L 856 1250 
Q 922 819 1161 601 
Q 1400 384 1738 384 
Q 2144 384 2425 690 
Q 2706 997 2706 1503 
Q 2706 1984 2436 2262 
Q 2166 2541 1728 2541 
Q 1456 2541 1237 2417 
Q 1019 2294 894 2097 
L 366 2166 
L 809 4519 
L 3088 4519 
L 3088 3981 
L 1259 3981 
L 1013 2750 
Q 1425 3038 1878 3038 
Q 2478 3038 2890 2622 
Q 3303 2206 3303 1553 
Q 3303 931 2941 478 
Q 2500 -78 1738 -78 
Q 1113 -78 717 272 
Q 322 622 266 1200 
z
" id="ArialMT-35" transform="scale(0.015625)"/>
       </defs>
       <use xlink:href="#ArialMT-2212"/>
       <use x="58.398438" xlink:href="#ArialMT-30"/>
       <use x="114.013672" xlink:href="#ArialMT-2e"/>
       <use x="141.796875" xlink:href="#ArialMT-32"/>
       <use x="197.412109" xlink:href="#ArialMT-35"/>
      </g>
     </g>
    </g>
    <g id="xtick_2">
     <g id="text_2">
      <!-- 0.00 -->
      <g style="fill:#262626;" transform="translate(285.540156 553.764063)scale(0.18 -0.18)">
       <use xlink:href="#ArialMT-30"/>
       <use x="55.615234" xlink:href="#ArialMT-2e"/>
       <use x="83.398438" xlink:href="#ArialMT-30"/>
       <use x="139.013672" xlink:href="#ArialMT-30"/>
      </g>
     </g>
    </g>
    <g id="xtick_3">
     <g id="text_3">
      <!-- 0.25 -->
      <g style="fill:#262626;" transform="translate(342.150832 553.764063)scale(0.18 -0.18)">
       <use xlink:href="#ArialMT-30"/>
       <use x="55.615234" xlink:href="#ArialMT-2e"/>
       <use x="83.398438" xlink:href="#ArialMT-32"/>
       <use x="139.013672" xlink:href="#ArialMT-35"/>
      </g>
     </g>
    </g>
    <g id="text_4">
     <!-- g loading -->
     <g style="fill:#262626;" transform="translate(274.64375 571.3625)scale(0.14 -0.14)">
      <defs>
       <path d="M 319 -275 
L 866 -356 
Q 900 -609 1056 -725 
Q 1266 -881 1628 -881 
Q 2019 -881 2231 -725 
Q 2444 -569 2519 -288 
Q 2563 -116 2559 434 
Q 2191 0 1641 0 
Q 956 0 581 494 
Q 206 988 206 1678 
Q 206 2153 378 2554 
Q 550 2956 876 3175 
Q 1203 3394 1644 3394 
Q 2231 3394 2613 2919 
L 2613 3319 
L 3131 3319 
L 3131 450 
Q 3131 -325 2973 -648 
Q 2816 -972 2473 -1159 
Q 2131 -1347 1631 -1347 
Q 1038 -1347 672 -1080 
Q 306 -813 319 -275 
z
M 784 1719 
Q 784 1066 1043 766 
Q 1303 466 1694 466 
Q 2081 466 2343 764 
Q 2606 1063 2606 1700 
Q 2606 2309 2336 2618 
Q 2066 2928 1684 2928 
Q 1309 2928 1046 2623 
Q 784 2319 784 1719 
z
" id="ArialMT-67" transform="scale(0.015625)"/>
       <path id="ArialMT-20" transform="scale(0.015625)"/>
       <path d="M 409 0 
L 409 4581 
L 972 4581 
L 972 0 
L 409 0 
z
" id="ArialMT-6c" transform="scale(0.015625)"/>
       <path d="M 213 1659 
Q 213 2581 725 3025 
Q 1153 3394 1769 3394 
Q 2453 3394 2887 2945 
Q 3322 2497 3322 1706 
Q 3322 1066 3130 698 
Q 2938 331 2570 128 
Q 2203 -75 1769 -75 
Q 1072 -75 642 372 
Q 213 819 213 1659 
z
M 791 1659 
Q 791 1022 1069 705 
Q 1347 388 1769 388 
Q 2188 388 2466 706 
Q 2744 1025 2744 1678 
Q 2744 2294 2464 2611 
Q 2184 2928 1769 2928 
Q 1347 2928 1069 2612 
Q 791 2297 791 1659 
z
" id="ArialMT-6f" transform="scale(0.015625)"/>
       <path d="M 2588 409 
Q 2275 144 1986 34 
Q 1697 -75 1366 -75 
Q 819 -75 525 192 
Q 231 459 231 875 
Q 231 1119 342 1320 
Q 453 1522 633 1644 
Q 813 1766 1038 1828 
Q 1203 1872 1538 1913 
Q 2219 1994 2541 2106 
Q 2544 2222 2544 2253 
Q 2544 2597 2384 2738 
Q 2169 2928 1744 2928 
Q 1347 2928 1158 2789 
Q 969 2650 878 2297 
L 328 2372 
Q 403 2725 575 2942 
Q 747 3159 1072 3276 
Q 1397 3394 1825 3394 
Q 2250 3394 2515 3294 
Q 2781 3194 2906 3042 
Q 3031 2891 3081 2659 
Q 3109 2516 3109 2141 
L 3109 1391 
Q 3109 606 3145 398 
Q 3181 191 3288 0 
L 2700 0 
Q 2613 175 2588 409 
z
M 2541 1666 
Q 2234 1541 1622 1453 
Q 1275 1403 1131 1340 
Q 988 1278 909 1158 
Q 831 1038 831 891 
Q 831 666 1001 516 
Q 1172 366 1500 366 
Q 1825 366 2078 508 
Q 2331 650 2450 897 
Q 2541 1088 2541 1459 
L 2541 1666 
z
" id="ArialMT-61" transform="scale(0.015625)"/>
       <path d="M 2575 0 
L 2575 419 
Q 2259 -75 1647 -75 
Q 1250 -75 917 144 
Q 584 363 401 755 
Q 219 1147 219 1656 
Q 219 2153 384 2558 
Q 550 2963 881 3178 
Q 1213 3394 1622 3394 
Q 1922 3394 2156 3267 
Q 2391 3141 2538 2938 
L 2538 4581 
L 3097 4581 
L 3097 0 
L 2575 0 
z
M 797 1656 
Q 797 1019 1065 703 
Q 1334 388 1700 388 
Q 2069 388 2326 689 
Q 2584 991 2584 1609 
Q 2584 2291 2321 2609 
Q 2059 2928 1675 2928 
Q 1300 2928 1048 2622 
Q 797 2316 797 1656 
z
" id="ArialMT-64" transform="scale(0.015625)"/>
       <path d="M 425 3934 
L 425 4581 
L 988 4581 
L 988 3934 
L 425 3934 
z
M 425 0 
L 425 3319 
L 988 3319 
L 988 0 
L 425 0 
z
" id="ArialMT-69" transform="scale(0.015625)"/>
       <path d="M 422 0 
L 422 3319 
L 928 3319 
L 928 2847 
Q 1294 3394 1984 3394 
Q 2284 3394 2536 3286 
Q 2788 3178 2913 3003 
Q 3038 2828 3088 2588 
Q 3119 2431 3119 2041 
L 3119 0 
L 2556 0 
L 2556 2019 
Q 2556 2363 2490 2533 
Q 2425 2703 2258 2804 
Q 2091 2906 1866 2906 
Q 1506 2906 1245 2678 
Q 984 2450 984 1813 
L 984 0 
L 422 0 
z
" id="ArialMT-6e" transform="scale(0.015625)"/>
      </defs>
      <use xlink:href="#ArialMT-67"/>
      <use x="55.615234" xlink:href="#ArialMT-20"/>
      <use x="83.398438" xlink:href="#ArialMT-6c"/>
      <use x="105.615234" xlink:href="#ArialMT-6f"/>
      <use x="161.230469" xlink:href="#ArialMT-61"/>
      <use x="216.845703" xlink:href="#ArialMT-64"/>
      <use x="272.460938" xlink:href="#ArialMT-69"/>
      <use x="294.677734" xlink:href="#ArialMT-6e"/>
      <use x="350.292969" xlink:href="#ArialMT-67"/>
     </g>
    </g>
   </g>
   <g id="matplotlib.axis_2">
    <g id="ytick_1">
     <g id="text_5">
      <!-- Target identification -->
      <g style="fill:#262626;" transform="translate(71.232187 514.5975)scale(0.18 -0.18)">
       <defs>
        <path d="M 1659 0 
L 1659 4041 
L 150 4041 
L 150 4581 
L 3781 4581 
L 3781 4041 
L 2266 4041 
L 2266 0 
L 1659 0 
z
" id="ArialMT-54" transform="scale(0.015625)"/>
        <path d="M 416 0 
L 416 3319 
L 922 3319 
L 922 2816 
Q 1116 3169 1280 3281 
Q 1444 3394 1641 3394 
Q 1925 3394 2219 3213 
L 2025 2691 
Q 1819 2813 1613 2813 
Q 1428 2813 1281 2702 
Q 1134 2591 1072 2394 
Q 978 2094 978 1738 
L 978 0 
L 416 0 
z
" id="ArialMT-72" transform="scale(0.015625)"/>
        <path d="M 2694 1069 
L 3275 997 
Q 3138 488 2766 206 
Q 2394 -75 1816 -75 
Q 1088 -75 661 373 
Q 234 822 234 1631 
Q 234 2469 665 2931 
Q 1097 3394 1784 3394 
Q 2450 3394 2872 2941 
Q 3294 2488 3294 1666 
Q 3294 1616 3291 1516 
L 816 1516 
Q 847 969 1125 678 
Q 1403 388 1819 388 
Q 2128 388 2347 550 
Q 2566 713 2694 1069 
z
M 847 1978 
L 2700 1978 
Q 2663 2397 2488 2606 
Q 2219 2931 1791 2931 
Q 1403 2931 1139 2672 
Q 875 2413 847 1978 
z
" id="ArialMT-65" transform="scale(0.015625)"/>
        <path d="M 1650 503 
L 1731 6 
Q 1494 -44 1306 -44 
Q 1000 -44 831 53 
Q 663 150 594 308 
Q 525 466 525 972 
L 525 2881 
L 113 2881 
L 113 3319 
L 525 3319 
L 525 4141 
L 1084 4478 
L 1084 3319 
L 1650 3319 
L 1650 2881 
L 1084 2881 
L 1084 941 
Q 1084 700 1114 631 
Q 1144 563 1211 522 
Q 1278 481 1403 481 
Q 1497 481 1650 503 
z
" id="ArialMT-74" transform="scale(0.015625)"/>
        <path d="M 556 0 
L 556 2881 
L 59 2881 
L 59 3319 
L 556 3319 
L 556 3672 
Q 556 4006 616 4169 
Q 697 4388 901 4523 
Q 1106 4659 1475 4659 
Q 1713 4659 2000 4603 
L 1916 4113 
Q 1741 4144 1584 4144 
Q 1328 4144 1222 4034 
Q 1116 3925 1116 3625 
L 1116 3319 
L 1763 3319 
L 1763 2881 
L 1116 2881 
L 1116 0 
L 556 0 
z
" id="ArialMT-66" transform="scale(0.015625)"/>
        <path d="M 2588 1216 
L 3141 1144 
Q 3050 572 2676 248 
Q 2303 -75 1759 -75 
Q 1078 -75 664 370 
Q 250 816 250 1647 
Q 250 2184 428 2587 
Q 606 2991 970 3192 
Q 1334 3394 1763 3394 
Q 2303 3394 2647 3120 
Q 2991 2847 3088 2344 
L 2541 2259 
Q 2463 2594 2264 2762 
Q 2066 2931 1784 2931 
Q 1359 2931 1093 2626 
Q 828 2322 828 1663 
Q 828 994 1084 691 
Q 1341 388 1753 388 
Q 2084 388 2306 591 
Q 2528 794 2588 1216 
z
" id="ArialMT-63" transform="scale(0.015625)"/>
       </defs>
       <use xlink:href="#ArialMT-54"/>
       <use x="49.958984" xlink:href="#ArialMT-61"/>
       <use x="105.574219" xlink:href="#ArialMT-72"/>
       <use x="138.875" xlink:href="#ArialMT-67"/>
       <use x="194.490234" xlink:href="#ArialMT-65"/>
       <use x="250.105469" xlink:href="#ArialMT-74"/>
       <use x="277.888672" xlink:href="#ArialMT-20"/>
       <use x="305.671875" xlink:href="#ArialMT-69"/>
       <use x="327.888672" xlink:href="#ArialMT-64"/>
       <use x="383.503906" xlink:href="#ArialMT-65"/>
       <use x="439.119141" xlink:href="#ArialMT-6e"/>
       <use x="494.734375" xlink:href="#ArialMT-74"/>
       <use x="522.517578" xlink:href="#ArialMT-69"/>
       <use x="544.734375" xlink:href="#ArialMT-66"/>
       <use x="572.517578" xlink:href="#ArialMT-69"/>
       <use x="594.734375" xlink:href="#ArialMT-63"/>
       <use x="644.734375" xlink:href="#ArialMT-61"/>
       <use x="700.349609" xlink:href="#ArialMT-74"/>
       <use x="728.132812" xlink:href="#ArialMT-69"/>
       <use x="750.349609" xlink:href="#ArialMT-6f"/>
       <use x="805.964844" xlink:href="#ArialMT-6e"/>
      </g>
     </g>
    </g>
    <g id="ytick_2">
     <g id="text_6">
      <!-- Two-hand tracking -->
      <g style="fill:#262626;" transform="translate(79.236562 487.887812)scale(0.18 -0.18)">
       <defs>
        <path d="M 1034 0 
L 19 3319 
L 600 3319 
L 1128 1403 
L 1325 691 
Q 1338 744 1497 1375 
L 2025 3319 
L 2603 3319 
L 3100 1394 
L 3266 759 
L 3456 1400 
L 4025 3319 
L 4572 3319 
L 3534 0 
L 2950 0 
L 2422 1988 
L 2294 2553 
L 1622 0 
L 1034 0 
z
" id="ArialMT-77" transform="scale(0.015625)"/>
        <path d="M 203 1375 
L 203 1941 
L 1931 1941 
L 1931 1375 
L 203 1375 
z
" id="ArialMT-2d" transform="scale(0.015625)"/>
        <path d="M 422 0 
L 422 4581 
L 984 4581 
L 984 2938 
Q 1378 3394 1978 3394 
Q 2347 3394 2619 3248 
Q 2891 3103 3008 2847 
Q 3125 2591 3125 2103 
L 3125 0 
L 2563 0 
L 2563 2103 
Q 2563 2525 2380 2717 
Q 2197 2909 1863 2909 
Q 1613 2909 1392 2779 
Q 1172 2650 1078 2428 
Q 984 2206 984 1816 
L 984 0 
L 422 0 
z
" id="ArialMT-68" transform="scale(0.015625)"/>
        <path d="M 425 0 
L 425 4581 
L 988 4581 
L 988 1969 
L 2319 3319 
L 3047 3319 
L 1778 2088 
L 3175 0 
L 2481 0 
L 1384 1697 
L 988 1316 
L 988 0 
L 425 0 
z
" id="ArialMT-6b" transform="scale(0.015625)"/>
       </defs>
       <use xlink:href="#ArialMT-54"/>
       <use x="55.583984" xlink:href="#ArialMT-77"/>
       <use x="127.800781" xlink:href="#ArialMT-6f"/>
       <use x="183.416016" xlink:href="#ArialMT-2d"/>
       <use x="216.716797" xlink:href="#ArialMT-68"/>
       <use x="272.332031" xlink:href="#ArialMT-61"/>
       <use x="327.947266" xlink:href="#ArialMT-6e"/>
       <use x="383.5625" xlink:href="#ArialMT-64"/>
       <use x="439.177734" xlink:href="#ArialMT-20"/>
       <use x="466.960938" xlink:href="#ArialMT-74"/>
       <use x="494.744141" xlink:href="#ArialMT-72"/>
       <use x="528.044922" xlink:href="#ArialMT-61"/>
       <use x="583.660156" xlink:href="#ArialMT-63"/>
       <use x="633.660156" xlink:href="#ArialMT-6b"/>
       <use x="683.660156" xlink:href="#ArialMT-69"/>
       <use x="705.876953" xlink:href="#ArialMT-6e"/>
       <use x="761.492188" xlink:href="#ArialMT-67"/>
      </g>
     </g>
    </g>
    <g id="ytick_3">
     <g id="text_7">
      <!-- One-hand tracking -->
      <g style="fill:#262626;" transform="translate(78.229687 461.403125)scale(0.18 -0.18)">
       <defs>
        <path d="M 309 2231 
Q 309 3372 921 4017 
Q 1534 4663 2503 4663 
Q 3138 4663 3647 4359 
Q 4156 4056 4423 3514 
Q 4691 2972 4691 2284 
Q 4691 1588 4409 1038 
Q 4128 488 3612 205 
Q 3097 -78 2500 -78 
Q 1853 -78 1343 234 
Q 834 547 571 1087 
Q 309 1628 309 2231 
z
M 934 2222 
Q 934 1394 1379 917 
Q 1825 441 2497 441 
Q 3181 441 3623 922 
Q 4066 1403 4066 2288 
Q 4066 2847 3877 3264 
Q 3688 3681 3323 3911 
Q 2959 4141 2506 4141 
Q 1863 4141 1398 3698 
Q 934 3256 934 2222 
z
" id="ArialMT-4f" transform="scale(0.015625)"/>
       </defs>
       <use xlink:href="#ArialMT-4f"/>
       <use x="77.783203" xlink:href="#ArialMT-6e"/>
       <use x="133.398438" xlink:href="#ArialMT-65"/>
       <use x="189.013672" xlink:href="#ArialMT-2d"/>
       <use x="222.314453" xlink:href="#ArialMT-68"/>
       <use x="277.929688" xlink:href="#ArialMT-61"/>
       <use x="333.544922" xlink:href="#ArialMT-6e"/>
       <use x="389.160156" xlink:href="#ArialMT-64"/>
       <use x="444.775391" xlink:href="#ArialMT-20"/>
       <use x="472.558594" xlink:href="#ArialMT-74"/>
       <use x="500.341797" xlink:href="#ArialMT-72"/>
       <use x="533.642578" xlink:href="#ArialMT-61"/>
       <use x="589.257812" xlink:href="#ArialMT-63"/>
       <use x="639.257812" xlink:href="#ArialMT-6b"/>
       <use x="689.257812" xlink:href="#ArialMT-69"/>
       <use x="711.474609" xlink:href="#ArialMT-6e"/>
       <use x="767.089844" xlink:href="#ArialMT-67"/>
      </g>
     </g>
    </g>
    <g id="ytick_4">
     <g id="text_8">
      <!-- Spatial orientation -->
      <g style="fill:#262626;" transform="translate(82.217812 434.902969)scale(0.18 -0.18)">
       <defs>
        <path d="M 288 1472 
L 859 1522 
Q 900 1178 1048 958 
Q 1197 738 1509 602 
Q 1822 466 2213 466 
Q 2559 466 2825 569 
Q 3091 672 3220 851 
Q 3350 1031 3350 1244 
Q 3350 1459 3225 1620 
Q 3100 1781 2813 1891 
Q 2628 1963 1997 2114 
Q 1366 2266 1113 2400 
Q 784 2572 623 2826 
Q 463 3081 463 3397 
Q 463 3744 659 4045 
Q 856 4347 1234 4503 
Q 1613 4659 2075 4659 
Q 2584 4659 2973 4495 
Q 3363 4331 3572 4012 
Q 3781 3694 3797 3291 
L 3216 3247 
Q 3169 3681 2898 3903 
Q 2628 4125 2100 4125 
Q 1550 4125 1298 3923 
Q 1047 3722 1047 3438 
Q 1047 3191 1225 3031 
Q 1400 2872 2139 2705 
Q 2878 2538 3153 2413 
Q 3553 2228 3743 1945 
Q 3934 1663 3934 1294 
Q 3934 928 3725 604 
Q 3516 281 3123 101 
Q 2731 -78 2241 -78 
Q 1619 -78 1198 103 
Q 778 284 539 648 
Q 300 1013 288 1472 
z
" id="ArialMT-53" transform="scale(0.015625)"/>
        <path d="M 422 -1272 
L 422 3319 
L 934 3319 
L 934 2888 
Q 1116 3141 1344 3267 
Q 1572 3394 1897 3394 
Q 2322 3394 2647 3175 
Q 2972 2956 3137 2557 
Q 3303 2159 3303 1684 
Q 3303 1175 3120 767 
Q 2938 359 2589 142 
Q 2241 -75 1856 -75 
Q 1575 -75 1351 44 
Q 1128 163 984 344 
L 984 -1272 
L 422 -1272 
z
M 931 1641 
Q 931 1000 1190 694 
Q 1450 388 1819 388 
Q 2194 388 2461 705 
Q 2728 1022 2728 1688 
Q 2728 2322 2467 2637 
Q 2206 2953 1844 2953 
Q 1484 2953 1207 2617 
Q 931 2281 931 1641 
z
" id="ArialMT-70" transform="scale(0.015625)"/>
       </defs>
       <use xlink:href="#ArialMT-53"/>
       <use x="66.699219" xlink:href="#ArialMT-70"/>
       <use x="122.314453" xlink:href="#ArialMT-61"/>
       <use x="177.929688" xlink:href="#ArialMT-74"/>
       <use x="205.712891" xlink:href="#ArialMT-69"/>
       <use x="227.929688" xlink:href="#ArialMT-61"/>
       <use x="283.544922" xlink:href="#ArialMT-6c"/>
       <use x="305.761719" xlink:href="#ArialMT-20"/>
       <use x="333.544922" xlink:href="#ArialMT-6f"/>
       <use x="389.160156" xlink:href="#ArialMT-72"/>
       <use x="422.460938" xlink:href="#ArialMT-69"/>
       <use x="444.677734" xlink:href="#ArialMT-65"/>
       <use x="500.292969" xlink:href="#ArialMT-6e"/>
       <use x="555.908203" xlink:href="#ArialMT-74"/>
       <use x="583.691406" xlink:href="#ArialMT-61"/>
       <use x="639.306641" xlink:href="#ArialMT-74"/>
       <use x="667.089844" xlink:href="#ArialMT-69"/>
       <use x="689.306641" xlink:href="#ArialMT-6f"/>
       <use x="744.921875" xlink:href="#ArialMT-6e"/>
      </g>
     </g>
    </g>
    <g id="ytick_5">
     <g id="text_9">
      <!-- Assembling objects -->
      <g style="fill:#262626;" transform="translate(71.237812 408.087813)scale(0.18 -0.18)">
       <defs>
        <path d="M -9 0 
L 1750 4581 
L 2403 4581 
L 4278 0 
L 3588 0 
L 3053 1388 
L 1138 1388 
L 634 0 
L -9 0 
z
M 1313 1881 
L 2866 1881 
L 2388 3150 
Q 2169 3728 2063 4100 
Q 1975 3659 1816 3225 
L 1313 1881 
z
" id="ArialMT-41" transform="scale(0.015625)"/>
        <path d="M 197 991 
L 753 1078 
Q 800 744 1014 566 
Q 1228 388 1613 388 
Q 2000 388 2187 545 
Q 2375 703 2375 916 
Q 2375 1106 2209 1216 
Q 2094 1291 1634 1406 
Q 1016 1563 777 1677 
Q 538 1791 414 1992 
Q 291 2194 291 2438 
Q 291 2659 392 2848 
Q 494 3038 669 3163 
Q 800 3259 1026 3326 
Q 1253 3394 1513 3394 
Q 1903 3394 2198 3281 
Q 2494 3169 2634 2976 
Q 2775 2784 2828 2463 
L 2278 2388 
Q 2241 2644 2061 2787 
Q 1881 2931 1553 2931 
Q 1166 2931 1000 2803 
Q 834 2675 834 2503 
Q 834 2394 903 2306 
Q 972 2216 1119 2156 
Q 1203 2125 1616 2013 
Q 2213 1853 2448 1751 
Q 2684 1650 2818 1456 
Q 2953 1263 2953 975 
Q 2953 694 2789 445 
Q 2625 197 2315 61 
Q 2006 -75 1616 -75 
Q 969 -75 630 194 
Q 291 463 197 991 
z
" id="ArialMT-73" transform="scale(0.015625)"/>
        <path d="M 422 0 
L 422 3319 
L 925 3319 
L 925 2853 
Q 1081 3097 1340 3245 
Q 1600 3394 1931 3394 
Q 2300 3394 2536 3241 
Q 2772 3088 2869 2813 
Q 3263 3394 3894 3394 
Q 4388 3394 4653 3120 
Q 4919 2847 4919 2278 
L 4919 0 
L 4359 0 
L 4359 2091 
Q 4359 2428 4304 2576 
Q 4250 2725 4106 2815 
Q 3963 2906 3769 2906 
Q 3419 2906 3187 2673 
Q 2956 2441 2956 1928 
L 2956 0 
L 2394 0 
L 2394 2156 
Q 2394 2531 2256 2718 
Q 2119 2906 1806 2906 
Q 1569 2906 1367 2781 
Q 1166 2656 1075 2415 
Q 984 2175 984 1722 
L 984 0 
L 422 0 
z
" id="ArialMT-6d" transform="scale(0.015625)"/>
        <path d="M 941 0 
L 419 0 
L 419 4581 
L 981 4581 
L 981 2947 
Q 1338 3394 1891 3394 
Q 2197 3394 2470 3270 
Q 2744 3147 2920 2923 
Q 3097 2700 3197 2384 
Q 3297 2069 3297 1709 
Q 3297 856 2875 390 
Q 2453 -75 1863 -75 
Q 1275 -75 941 416 
L 941 0 
z
M 934 1684 
Q 934 1088 1097 822 
Q 1363 388 1816 388 
Q 2184 388 2453 708 
Q 2722 1028 2722 1663 
Q 2722 2313 2464 2622 
Q 2206 2931 1841 2931 
Q 1472 2931 1203 2611 
Q 934 2291 934 1684 
z
" id="ArialMT-62" transform="scale(0.015625)"/>
        <path d="M 419 3928 
L 419 4581 
L 981 4581 
L 981 3928 
L 419 3928 
z
M -294 -1288 
L -188 -809 
Q -19 -853 78 -853 
Q 250 -853 334 -739 
Q 419 -625 419 -169 
L 419 3319 
L 981 3319 
L 981 -181 
Q 981 -794 822 -1034 
Q 619 -1347 147 -1347 
Q -81 -1347 -294 -1288 
z
" id="ArialMT-6a" transform="scale(0.015625)"/>
       </defs>
       <use xlink:href="#ArialMT-41"/>
       <use x="66.699219" xlink:href="#ArialMT-73"/>
       <use x="116.699219" xlink:href="#ArialMT-73"/>
       <use x="166.699219" xlink:href="#ArialMT-65"/>
       <use x="222.314453" xlink:href="#ArialMT-6d"/>
       <use x="305.615234" xlink:href="#ArialMT-62"/>
       <use x="361.230469" xlink:href="#ArialMT-6c"/>
       <use x="383.447266" xlink:href="#ArialMT-69"/>
       <use x="405.664062" xlink:href="#ArialMT-6e"/>
       <use x="461.279297" xlink:href="#ArialMT-67"/>
       <use x="516.894531" xlink:href="#ArialMT-20"/>
       <use x="544.677734" xlink:href="#ArialMT-6f"/>
       <use x="600.292969" xlink:href="#ArialMT-62"/>
       <use x="655.908203" xlink:href="#ArialMT-6a"/>
       <use x="678.125" xlink:href="#ArialMT-65"/>
       <use x="733.740234" xlink:href="#ArialMT-63"/>
       <use x="783.740234" xlink:href="#ArialMT-74"/>
       <use x="811.523438" xlink:href="#ArialMT-73"/>
      </g>
     </g>
    </g>
    <g id="ytick_6">
     <g id="text_10">
      <!-- Integrating details -->
      <g style="fill:#262626;" transform="translate(84.223125 381.487813)scale(0.18 -0.18)">
       <defs>
        <path d="M 597 0 
L 597 4581 
L 1203 4581 
L 1203 0 
L 597 0 
z
" id="ArialMT-49" transform="scale(0.015625)"/>
       </defs>
       <use xlink:href="#ArialMT-49"/>
       <use x="27.783203" xlink:href="#ArialMT-6e"/>
       <use x="83.398438" xlink:href="#ArialMT-74"/>
       <use x="111.181641" xlink:href="#ArialMT-65"/>
       <use x="166.796875" xlink:href="#ArialMT-67"/>
       <use x="222.412109" xlink:href="#ArialMT-72"/>
       <use x="255.712891" xlink:href="#ArialMT-61"/>
       <use x="311.328125" xlink:href="#ArialMT-74"/>
       <use x="339.111328" xlink:href="#ArialMT-69"/>
       <use x="361.328125" xlink:href="#ArialMT-6e"/>
       <use x="416.943359" xlink:href="#ArialMT-67"/>
       <use x="472.558594" xlink:href="#ArialMT-20"/>
       <use x="500.341797" xlink:href="#ArialMT-64"/>
       <use x="555.957031" xlink:href="#ArialMT-65"/>
       <use x="611.572266" xlink:href="#ArialMT-74"/>
       <use x="639.355469" xlink:href="#ArialMT-61"/>
       <use x="694.970703" xlink:href="#ArialMT-69"/>
       <use x="717.1875" xlink:href="#ArialMT-6c"/>
       <use x="739.404297" xlink:href="#ArialMT-73"/>
      </g>
     </g>
    </g>
    <g id="ytick_7">
     <g id="text_11">
      <!-- Figural reasoning -->
      <g style="fill:#262626;" transform="translate(87.238125 354.887812)scale(0.18 -0.18)">
       <defs>
        <path d="M 525 0 
L 525 4581 
L 3616 4581 
L 3616 4041 
L 1131 4041 
L 1131 2622 
L 3281 2622 
L 3281 2081 
L 1131 2081 
L 1131 0 
L 525 0 
z
" id="ArialMT-46" transform="scale(0.015625)"/>
        <path d="M 2597 0 
L 2597 488 
Q 2209 -75 1544 -75 
Q 1250 -75 995 37 
Q 741 150 617 320 
Q 494 491 444 738 
Q 409 903 409 1263 
L 409 3319 
L 972 3319 
L 972 1478 
Q 972 1038 1006 884 
Q 1059 663 1231 536 
Q 1403 409 1656 409 
Q 1909 409 2131 539 
Q 2353 669 2445 892 
Q 2538 1116 2538 1541 
L 2538 3319 
L 3100 3319 
L 3100 0 
L 2597 0 
z
" id="ArialMT-75" transform="scale(0.015625)"/>
       </defs>
       <use xlink:href="#ArialMT-46"/>
       <use x="61.083984" xlink:href="#ArialMT-69"/>
       <use x="83.300781" xlink:href="#ArialMT-67"/>
       <use x="138.916016" xlink:href="#ArialMT-75"/>
       <use x="194.53125" xlink:href="#ArialMT-72"/>
       <use x="227.832031" xlink:href="#ArialMT-61"/>
       <use x="283.447266" xlink:href="#ArialMT-6c"/>
       <use x="305.664062" xlink:href="#ArialMT-20"/>
       <use x="333.447266" xlink:href="#ArialMT-72"/>
       <use x="366.748047" xlink:href="#ArialMT-65"/>
       <use x="422.363281" xlink:href="#ArialMT-61"/>
       <use x="477.978516" xlink:href="#ArialMT-73"/>
       <use x="527.978516" xlink:href="#ArialMT-6f"/>
       <use x="583.59375" xlink:href="#ArialMT-6e"/>
       <use x="639.208984" xlink:href="#ArialMT-69"/>
       <use x="661.425781" xlink:href="#ArialMT-6e"/>
       <use x="717.041016" xlink:href="#ArialMT-67"/>
      </g>
     </g>
    </g>
    <g id="ytick_8">
     <g id="text_12">
      <!-- Sequential memory -->
      <g style="fill:#262626;" transform="translate(71.240625 328.3975)scale(0.18 -0.18)">
       <defs>
        <path d="M 2538 -1272 
L 2538 353 
Q 2406 169 2170 47 
Q 1934 -75 1669 -75 
Q 1078 -75 651 397 
Q 225 869 225 1691 
Q 225 2191 398 2587 
Q 572 2984 901 3189 
Q 1231 3394 1625 3394 
Q 2241 3394 2594 2875 
L 2594 3319 
L 3100 3319 
L 3100 -1272 
L 2538 -1272 
z
M 803 1669 
Q 803 1028 1072 708 
Q 1341 388 1716 388 
Q 2075 388 2334 692 
Q 2594 997 2594 1619 
Q 2594 2281 2320 2615 
Q 2047 2950 1678 2950 
Q 1313 2950 1058 2639 
Q 803 2328 803 1669 
z
" id="ArialMT-71" transform="scale(0.015625)"/>
        <path d="M 397 -1278 
L 334 -750 
Q 519 -800 656 -800 
Q 844 -800 956 -737 
Q 1069 -675 1141 -563 
Q 1194 -478 1313 -144 
Q 1328 -97 1363 -6 
L 103 3319 
L 709 3319 
L 1400 1397 
Q 1534 1031 1641 628 
Q 1738 1016 1872 1384 
L 2581 3319 
L 3144 3319 
L 1881 -56 
Q 1678 -603 1566 -809 
Q 1416 -1088 1222 -1217 
Q 1028 -1347 759 -1347 
Q 597 -1347 397 -1278 
z
" id="ArialMT-79" transform="scale(0.015625)"/>
       </defs>
       <use xlink:href="#ArialMT-53"/>
       <use x="66.699219" xlink:href="#ArialMT-65"/>
       <use x="122.314453" xlink:href="#ArialMT-71"/>
       <use x="177.929688" xlink:href="#ArialMT-75"/>
       <use x="233.544922" xlink:href="#ArialMT-65"/>
       <use x="289.160156" xlink:href="#ArialMT-6e"/>
       <use x="344.775391" xlink:href="#ArialMT-74"/>
       <use x="372.558594" xlink:href="#ArialMT-69"/>
       <use x="394.775391" xlink:href="#ArialMT-61"/>
       <use x="450.390625" xlink:href="#ArialMT-6c"/>
       <use x="472.607422" xlink:href="#ArialMT-20"/>
       <use x="500.390625" xlink:href="#ArialMT-6d"/>
       <use x="583.691406" xlink:href="#ArialMT-65"/>
       <use x="639.306641" xlink:href="#ArialMT-6d"/>
       <use x="722.607422" xlink:href="#ArialMT-6f"/>
       <use x="778.222656" xlink:href="#ArialMT-72"/>
       <use x="811.523438" xlink:href="#ArialMT-79"/>
      </g>
     </g>
    </g>
    <g id="ytick_9">
     <g id="text_13">
      <!-- Mental counters -->
      <g style="fill:#262626;" transform="translate(98.249062 301.793281)scale(0.18 -0.18)">
       <defs>
        <path d="M 475 0 
L 475 4581 
L 1388 4581 
L 2472 1338 
Q 2622 884 2691 659 
Q 2769 909 2934 1394 
L 4031 4581 
L 4847 4581 
L 4847 0 
L 4263 0 
L 4263 3834 
L 2931 0 
L 2384 0 
L 1059 3900 
L 1059 0 
L 475 0 
z
" id="ArialMT-4d" transform="scale(0.015625)"/>
       </defs>
       <use xlink:href="#ArialMT-4d"/>
       <use x="83.300781" xlink:href="#ArialMT-65"/>
       <use x="138.916016" xlink:href="#ArialMT-6e"/>
       <use x="194.53125" xlink:href="#ArialMT-74"/>
       <use x="222.314453" xlink:href="#ArialMT-61"/>
       <use x="277.929688" xlink:href="#ArialMT-6c"/>
       <use x="300.146484" xlink:href="#ArialMT-20"/>
       <use x="327.929688" xlink:href="#ArialMT-63"/>
       <use x="377.929688" xlink:href="#ArialMT-6f"/>
       <use x="433.544922" xlink:href="#ArialMT-75"/>
       <use x="489.160156" xlink:href="#ArialMT-6e"/>
       <use x="544.775391" xlink:href="#ArialMT-74"/>
       <use x="572.558594" xlink:href="#ArialMT-65"/>
       <use x="628.173828" xlink:href="#ArialMT-72"/>
       <use x="661.474609" xlink:href="#ArialMT-73"/>
      </g>
     </g>
    </g>
    <g id="ytick_10">
     <g id="text_14">
      <!-- Coding speed -->
      <g style="fill:#262626;" transform="translate(115.228125 275.1975)scale(0.18 -0.18)">
       <defs>
        <path d="M 3763 1606 
L 4369 1453 
Q 4178 706 3683 314 
Q 3188 -78 2472 -78 
Q 1731 -78 1267 223 
Q 803 525 561 1097 
Q 319 1669 319 2325 
Q 319 3041 592 3573 
Q 866 4106 1370 4382 
Q 1875 4659 2481 4659 
Q 3169 4659 3637 4309 
Q 4106 3959 4291 3325 
L 3694 3184 
Q 3534 3684 3231 3912 
Q 2928 4141 2469 4141 
Q 1941 4141 1586 3887 
Q 1231 3634 1087 3207 
Q 944 2781 944 2328 
Q 944 1744 1114 1308 
Q 1284 872 1643 656 
Q 2003 441 2422 441 
Q 2931 441 3284 734 
Q 3638 1028 3763 1606 
z
" id="ArialMT-43" transform="scale(0.015625)"/>
       </defs>
       <use xlink:href="#ArialMT-43"/>
       <use x="72.216797" xlink:href="#ArialMT-6f"/>
       <use x="127.832031" xlink:href="#ArialMT-64"/>
       <use x="183.447266" xlink:href="#ArialMT-69"/>
       <use x="205.664062" xlink:href="#ArialMT-6e"/>
       <use x="261.279297" xlink:href="#ArialMT-67"/>
       <use x="316.894531" xlink:href="#ArialMT-20"/>
       <use x="344.677734" xlink:href="#ArialMT-73"/>
       <use x="394.677734" xlink:href="#ArialMT-70"/>
       <use x="450.292969" xlink:href="#ArialMT-65"/>
       <use x="505.908203" xlink:href="#ArialMT-65"/>
       <use x="561.523438" xlink:href="#ArialMT-64"/>
      </g>
     </g>
    </g>
    <g id="ytick_11">
     <g id="text_15">
      <!-- Numerical operations -->
      <g style="fill:#262626;" transform="translate(56.23875 248.593281)scale(0.18 -0.18)">
       <defs>
        <path d="M 488 0 
L 488 4581 
L 1109 4581 
L 3516 984 
L 3516 4581 
L 4097 4581 
L 4097 0 
L 3475 0 
L 1069 3600 
L 1069 0 
L 488 0 
z
" id="ArialMT-4e" transform="scale(0.015625)"/>
       </defs>
       <use xlink:href="#ArialMT-4e"/>
       <use x="72.216797" xlink:href="#ArialMT-75"/>
       <use x="127.832031" xlink:href="#ArialMT-6d"/>
       <use x="211.132812" xlink:href="#ArialMT-65"/>
       <use x="266.748047" xlink:href="#ArialMT-72"/>
       <use x="300.048828" xlink:href="#ArialMT-69"/>
       <use x="322.265625" xlink:href="#ArialMT-63"/>
       <use x="372.265625" xlink:href="#ArialMT-61"/>
       <use x="427.880859" xlink:href="#ArialMT-6c"/>
       <use x="450.097656" xlink:href="#ArialMT-20"/>
       <use x="477.880859" xlink:href="#ArialMT-6f"/>
       <use x="533.496094" xlink:href="#ArialMT-70"/>
       <use x="589.111328" xlink:href="#ArialMT-65"/>
       <use x="644.726562" xlink:href="#ArialMT-72"/>
       <use x="678.027344" xlink:href="#ArialMT-61"/>
       <use x="733.642578" xlink:href="#ArialMT-74"/>
       <use x="761.425781" xlink:href="#ArialMT-69"/>
       <use x="783.642578" xlink:href="#ArialMT-6f"/>
       <use x="839.257812" xlink:href="#ArialMT-6e"/>
       <use x="894.873047" xlink:href="#ArialMT-73"/>
      </g>
     </g>
    </g>
    <g id="ytick_12">
     <g id="text_16">
      <!-- Electronics information -->
      <g style="fill:#262626;" transform="translate(44.240625 221.993281)scale(0.18 -0.18)">
       <defs>
        <path d="M 506 0 
L 506 4581 
L 3819 4581 
L 3819 4041 
L 1113 4041 
L 1113 2638 
L 3647 2638 
L 3647 2100 
L 1113 2100 
L 1113 541 
L 3925 541 
L 3925 0 
L 506 0 
z
" id="ArialMT-45" transform="scale(0.015625)"/>
       </defs>
       <use xlink:href="#ArialMT-45"/>
       <use x="66.699219" xlink:href="#ArialMT-6c"/>
       <use x="88.916016" xlink:href="#ArialMT-65"/>
       <use x="144.53125" xlink:href="#ArialMT-63"/>
       <use x="194.53125" xlink:href="#ArialMT-74"/>
       <use x="222.314453" xlink:href="#ArialMT-72"/>
       <use x="255.615234" xlink:href="#ArialMT-6f"/>
       <use x="311.230469" xlink:href="#ArialMT-6e"/>
       <use x="366.845703" xlink:href="#ArialMT-69"/>
       <use x="389.0625" xlink:href="#ArialMT-63"/>
       <use x="439.0625" xlink:href="#ArialMT-73"/>
       <use x="489.0625" xlink:href="#ArialMT-20"/>
       <use x="516.845703" xlink:href="#ArialMT-69"/>
       <use x="539.0625" xlink:href="#ArialMT-6e"/>
       <use x="594.677734" xlink:href="#ArialMT-66"/>
       <use x="622.460938" xlink:href="#ArialMT-6f"/>
       <use x="678.076172" xlink:href="#ArialMT-72"/>
       <use x="711.376953" xlink:href="#ArialMT-6d"/>
       <use x="794.677734" xlink:href="#ArialMT-61"/>
       <use x="850.292969" xlink:href="#ArialMT-74"/>
       <use x="878.076172" xlink:href="#ArialMT-69"/>
       <use x="900.292969" xlink:href="#ArialMT-6f"/>
       <use x="955.908203" xlink:href="#ArialMT-6e"/>
      </g>
     </g>
    </g>
    <g id="ytick_13">
     <g id="text_17">
      <!-- Auto and shop information -->
      <g style="fill:#262626;" transform="translate(16.183125 195.502969)scale(0.18 -0.18)">
       <use xlink:href="#ArialMT-41"/>
       <use x="66.699219" xlink:href="#ArialMT-75"/>
       <use x="122.314453" xlink:href="#ArialMT-74"/>
       <use x="150.097656" xlink:href="#ArialMT-6f"/>
       <use x="205.712891" xlink:href="#ArialMT-20"/>
       <use x="233.496094" xlink:href="#ArialMT-61"/>
       <use x="289.111328" xlink:href="#ArialMT-6e"/>
       <use x="344.726562" xlink:href="#ArialMT-64"/>
       <use x="400.341797" xlink:href="#ArialMT-20"/>
       <use x="428.125" xlink:href="#ArialMT-73"/>
       <use x="478.125" xlink:href="#ArialMT-68"/>
       <use x="533.740234" xlink:href="#ArialMT-6f"/>
       <use x="589.355469" xlink:href="#ArialMT-70"/>
       <use x="644.970703" xlink:href="#ArialMT-20"/>
       <use x="672.753906" xlink:href="#ArialMT-69"/>
       <use x="694.970703" xlink:href="#ArialMT-6e"/>
       <use x="750.585938" xlink:href="#ArialMT-66"/>
       <use x="778.369141" xlink:href="#ArialMT-6f"/>
       <use x="833.984375" xlink:href="#ArialMT-72"/>
       <use x="867.285156" xlink:href="#ArialMT-6d"/>
       <use x="950.585938" xlink:href="#ArialMT-61"/>
       <use x="1006.201172" xlink:href="#ArialMT-74"/>
       <use x="1033.984375" xlink:href="#ArialMT-69"/>
       <use x="1056.201172" xlink:href="#ArialMT-6f"/>
       <use x="1111.816406" xlink:href="#ArialMT-6e"/>
      </g>
     </g>
    </g>
    <g id="ytick_14">
     <g id="text_18">
      <!-- Mechanical comprehension -->
      <g style="fill:#262626;" transform="translate(7.2 168.793281)scale(0.18 -0.18)">
       <use xlink:href="#ArialMT-4d"/>
       <use x="83.300781" xlink:href="#ArialMT-65"/>
       <use x="138.916016" xlink:href="#ArialMT-63"/>
       <use x="188.916016" xlink:href="#ArialMT-68"/>
       <use x="244.53125" xlink:href="#ArialMT-61"/>
       <use x="300.146484" xlink:href="#ArialMT-6e"/>
       <use x="355.761719" xlink:href="#ArialMT-69"/>
       <use x="377.978516" xlink:href="#ArialMT-63"/>
       <use x="427.978516" xlink:href="#ArialMT-61"/>
       <use x="483.59375" xlink:href="#ArialMT-6c"/>
       <use x="505.810547" xlink:href="#ArialMT-20"/>
       <use x="533.59375" xlink:href="#ArialMT-63"/>
       <use x="583.59375" xlink:href="#ArialMT-6f"/>
       <use x="639.208984" xlink:href="#ArialMT-6d"/>
       <use x="722.509766" xlink:href="#ArialMT-70"/>
       <use x="778.125" xlink:href="#ArialMT-72"/>
       <use x="811.425781" xlink:href="#ArialMT-65"/>
       <use x="867.041016" xlink:href="#ArialMT-68"/>
       <use x="922.65625" xlink:href="#ArialMT-65"/>
       <use x="978.271484" xlink:href="#ArialMT-6e"/>
       <use x="1033.886719" xlink:href="#ArialMT-73"/>
       <use x="1083.886719" xlink:href="#ArialMT-69"/>
       <use x="1106.103516" xlink:href="#ArialMT-6f"/>
       <use x="1161.71875" xlink:href="#ArialMT-6e"/>
      </g>
     </g>
    </g>
    <g id="ytick_15">
     <g id="text_19">
      <!-- Mathematics knowledge -->
      <g style="fill:#262626;" transform="translate(33.22125 142.087812)scale(0.18 -0.18)">
       <use xlink:href="#ArialMT-4d"/>
       <use x="83.300781" xlink:href="#ArialMT-61"/>
       <use x="138.916016" xlink:href="#ArialMT-74"/>
       <use x="166.699219" xlink:href="#ArialMT-68"/>
       <use x="222.314453" xlink:href="#ArialMT-65"/>
       <use x="277.929688" xlink:href="#ArialMT-6d"/>
       <use x="361.230469" xlink:href="#ArialMT-61"/>
       <use x="416.845703" xlink:href="#ArialMT-74"/>
       <use x="444.628906" xlink:href="#ArialMT-69"/>
       <use x="466.845703" xlink:href="#ArialMT-63"/>
       <use x="516.845703" xlink:href="#ArialMT-73"/>
       <use x="566.845703" xlink:href="#ArialMT-20"/>
       <use x="594.628906" xlink:href="#ArialMT-6b"/>
       <use x="644.628906" xlink:href="#ArialMT-6e"/>
       <use x="700.244141" xlink:href="#ArialMT-6f"/>
       <use x="755.859375" xlink:href="#ArialMT-77"/>
       <use x="828.076172" xlink:href="#ArialMT-6c"/>
       <use x="850.292969" xlink:href="#ArialMT-65"/>
       <use x="905.908203" xlink:href="#ArialMT-64"/>
       <use x="961.523438" xlink:href="#ArialMT-67"/>
       <use x="1017.138672" xlink:href="#ArialMT-65"/>
      </g>
     </g>
    </g>
    <g id="ytick_16">
     <g id="text_20">
      <!-- Arithmetic reasoning -->
      <g style="fill:#262626;" transform="translate(62.240625 115.487813)scale(0.18 -0.18)">
       <use xlink:href="#ArialMT-41"/>
       <use x="66.699219" xlink:href="#ArialMT-72"/>
       <use x="100" xlink:href="#ArialMT-69"/>
       <use x="122.216797" xlink:href="#ArialMT-74"/>
       <use x="150" xlink:href="#ArialMT-68"/>
       <use x="205.615234" xlink:href="#ArialMT-6d"/>
       <use x="288.916016" xlink:href="#ArialMT-65"/>
       <use x="344.53125" xlink:href="#ArialMT-74"/>
       <use x="372.314453" xlink:href="#ArialMT-69"/>
       <use x="394.53125" xlink:href="#ArialMT-63"/>
       <use x="444.53125" xlink:href="#ArialMT-20"/>
       <use x="472.314453" xlink:href="#ArialMT-72"/>
       <use x="505.615234" xlink:href="#ArialMT-65"/>
       <use x="561.230469" xlink:href="#ArialMT-61"/>
       <use x="616.845703" xlink:href="#ArialMT-73"/>
       <use x="666.845703" xlink:href="#ArialMT-6f"/>
       <use x="722.460938" xlink:href="#ArialMT-6e"/>
       <use x="778.076172" xlink:href="#ArialMT-69"/>
       <use x="800.292969" xlink:href="#ArialMT-6e"/>
       <use x="855.908203" xlink:href="#ArialMT-67"/>
      </g>
     </g>
    </g>
    <g id="ytick_17">
     <g id="text_21">
      <!-- General science -->
      <g style="fill:#262626;" transform="translate(96.24375 88.993281)scale(0.18 -0.18)">
       <defs>
        <path d="M 2638 1797 
L 2638 2334 
L 4578 2338 
L 4578 638 
Q 4131 281 3656 101 
Q 3181 -78 2681 -78 
Q 2006 -78 1454 211 
Q 903 500 622 1047 
Q 341 1594 341 2269 
Q 341 2938 620 3517 
Q 900 4097 1425 4378 
Q 1950 4659 2634 4659 
Q 3131 4659 3532 4498 
Q 3934 4338 4162 4050 
Q 4391 3763 4509 3300 
L 3963 3150 
Q 3859 3500 3706 3700 
Q 3553 3900 3268 4020 
Q 2984 4141 2638 4141 
Q 2222 4141 1919 4014 
Q 1616 3888 1430 3681 
Q 1244 3475 1141 3228 
Q 966 2803 966 2306 
Q 966 1694 1177 1281 
Q 1388 869 1791 669 
Q 2194 469 2647 469 
Q 3041 469 3416 620 
Q 3791 772 3984 944 
L 3984 1797 
L 2638 1797 
z
" id="ArialMT-47" transform="scale(0.015625)"/>
       </defs>
       <use xlink:href="#ArialMT-47"/>
       <use x="77.783203" xlink:href="#ArialMT-65"/>
       <use x="133.398438" xlink:href="#ArialMT-6e"/>
       <use x="189.013672" xlink:href="#ArialMT-65"/>
       <use x="244.628906" xlink:href="#ArialMT-72"/>
       <use x="277.929688" xlink:href="#ArialMT-61"/>
       <use x="333.544922" xlink:href="#ArialMT-6c"/>
       <use x="355.761719" xlink:href="#ArialMT-20"/>
       <use x="383.544922" xlink:href="#ArialMT-73"/>
       <use x="433.544922" xlink:href="#ArialMT-63"/>
       <use x="483.544922" xlink:href="#ArialMT-69"/>
       <use x="505.761719" xlink:href="#ArialMT-65"/>
       <use x="561.376953" xlink:href="#ArialMT-6e"/>
       <use x="616.992188" xlink:href="#ArialMT-63"/>
       <use x="666.992188" xlink:href="#ArialMT-65"/>
      </g>
     </g>
    </g>
    <g id="ytick_18">
     <g id="text_22">
      <!-- Work knowledge -->
      <g style="fill:#262626;" transform="translate(93.569062 62.287812)scale(0.18 -0.18)">
       <defs>
        <path d="M 1294 0 
L 78 4581 
L 700 4581 
L 1397 1578 
Q 1509 1106 1591 641 
Q 1766 1375 1797 1488 
L 2669 4581 
L 3400 4581 
L 4056 2263 
Q 4303 1400 4413 641 
Q 4500 1075 4641 1638 
L 5359 4581 
L 5969 4581 
L 4713 0 
L 4128 0 
L 3163 3491 
Q 3041 3928 3019 4028 
Q 2947 3713 2884 3491 
L 1913 0 
L 1294 0 
z
" id="ArialMT-57" transform="scale(0.015625)"/>
       </defs>
       <use xlink:href="#ArialMT-57"/>
       <use x="92.634766" xlink:href="#ArialMT-6f"/>
       <use x="148.25" xlink:href="#ArialMT-72"/>
       <use x="181.550781" xlink:href="#ArialMT-6b"/>
       <use x="231.550781" xlink:href="#ArialMT-20"/>
       <use x="259.333984" xlink:href="#ArialMT-6b"/>
       <use x="309.333984" xlink:href="#ArialMT-6e"/>
       <use x="364.949219" xlink:href="#ArialMT-6f"/>
       <use x="420.564453" xlink:href="#ArialMT-77"/>
       <use x="492.78125" xlink:href="#ArialMT-6c"/>
       <use x="514.998047" xlink:href="#ArialMT-65"/>
       <use x="570.613281" xlink:href="#ArialMT-64"/>
       <use x="626.228516" xlink:href="#ArialMT-67"/>
       <use x="681.84375" xlink:href="#ArialMT-65"/>
      </g>
     </g>
    </g>
    <g id="ytick_19">
     <g id="text_23">
      <!-- Paragraph comprehension -->
      <g style="fill:#262626;" transform="translate(14.189062 35.687812)scale(0.18 -0.18)">
       <defs>
        <path d="M 494 0 
L 494 4581 
L 2222 4581 
Q 2678 4581 2919 4538 
Q 3256 4481 3484 4323 
Q 3713 4166 3852 3881 
Q 3991 3597 3991 3256 
Q 3991 2672 3619 2267 
Q 3247 1863 2275 1863 
L 1100 1863 
L 1100 0 
L 494 0 
z
M 1100 2403 
L 2284 2403 
Q 2872 2403 3119 2622 
Q 3366 2841 3366 3238 
Q 3366 3525 3220 3729 
Q 3075 3934 2838 4000 
Q 2684 4041 2272 4041 
L 1100 4041 
L 1100 2403 
z
" id="ArialMT-50" transform="scale(0.015625)"/>
       </defs>
       <use xlink:href="#ArialMT-50"/>
       <use x="66.699219" xlink:href="#ArialMT-61"/>
       <use x="122.314453" xlink:href="#ArialMT-72"/>
       <use x="155.615234" xlink:href="#ArialMT-61"/>
       <use x="211.230469" xlink:href="#ArialMT-67"/>
       <use x="266.845703" xlink:href="#ArialMT-72"/>
       <use x="300.146484" xlink:href="#ArialMT-61"/>
       <use x="355.761719" xlink:href="#ArialMT-70"/>
       <use x="411.376953" xlink:href="#ArialMT-68"/>
       <use x="466.992188" xlink:href="#ArialMT-20"/>
       <use x="494.775391" xlink:href="#ArialMT-63"/>
       <use x="544.775391" xlink:href="#ArialMT-6f"/>
       <use x="600.390625" xlink:href="#ArialMT-6d"/>
       <use x="683.691406" xlink:href="#ArialMT-70"/>
       <use x="739.306641" xlink:href="#ArialMT-72"/>
       <use x="772.607422" xlink:href="#ArialMT-65"/>
       <use x="828.222656" xlink:href="#ArialMT-68"/>
       <use x="883.837891" xlink:href="#ArialMT-65"/>
       <use x="939.453125" xlink:href="#ArialMT-6e"/>
       <use x="995.068359" xlink:href="#ArialMT-73"/>
       <use x="1045.068359" xlink:href="#ArialMT-69"/>
       <use x="1067.285156" xlink:href="#ArialMT-6f"/>
       <use x="1122.900391" xlink:href="#ArialMT-6e"/>
      </g>
     </g>
    </g>
   </g>
   <g id="line2d_1">
    <path clip-path="url(#p96da47d4aa)" d="M 239.645909 509.94 
L 366.464091 509.94 
" style="fill:none;stroke:#f7f7f7;stroke-linecap:round;stroke-width:0.5;"/>
   </g>
   <g id="line2d_2">
    <path clip-path="url(#p96da47d4aa)" d="M 239.645909 483.34 
L 366.464091 483.34 
" style="fill:none;stroke:#f7f7f7;stroke-linecap:round;stroke-width:0.5;"/>
   </g>
   <g id="line2d_3">
    <path clip-path="url(#p96da47d4aa)" d="M 239.645909 456.74 
L 366.464091 456.74 
" style="fill:none;stroke:#f7f7f7;stroke-linecap:round;stroke-width:0.5;"/>
   </g>
   <g id="line2d_4">
    <path clip-path="url(#p96da47d4aa)" d="M 239.645909 430.14 
L 366.464091 430.14 
" style="fill:none;stroke:#f7f7f7;stroke-linecap:round;stroke-width:0.5;"/>
   </g>
   <g id="line2d_5">
    <path clip-path="url(#p96da47d4aa)" d="M 239.645909 403.54 
L 366.464091 403.54 
" style="fill:none;stroke:#f7f7f7;stroke-linecap:round;stroke-width:0.5;"/>
   </g>
   <g id="line2d_6">
    <path clip-path="url(#p96da47d4aa)" d="M 239.645909 376.94 
L 366.464091 376.94 
" style="fill:none;stroke:#f7f7f7;stroke-linecap:round;stroke-width:0.5;"/>
   </g>
   <g id="line2d_7">
    <path clip-path="url(#p96da47d4aa)" d="M 239.645909 350.34 
L 366.464091 350.34 
" style="fill:none;stroke:#f7f7f7;stroke-linecap:round;stroke-width:0.5;"/>
   </g>
   <g id="line2d_8">
    <path clip-path="url(#p96da47d4aa)" d="M 239.645909 323.74 
L 366.464091 323.74 
" style="fill:none;stroke:#f7f7f7;stroke-linecap:round;stroke-width:0.5;"/>
   </g>
   <g id="line2d_9">
    <path clip-path="url(#p96da47d4aa)" d="M 239.645909 297.14 
L 366.464091 297.14 
" style="fill:none;stroke:#f7f7f7;stroke-linecap:round;stroke-width:0.5;"/>
   </g>
   <g id="line2d_10">
    <path clip-path="url(#p96da47d4aa)" d="M 239.645909 270.54 
L 366.464091 270.54 
" style="fill:none;stroke:#f7f7f7;stroke-linecap:round;stroke-width:0.5;"/>
   </g>
   <g id="line2d_11">
    <path clip-path="url(#p96da47d4aa)" d="M 239.645909 243.94 
L 366.464091 243.94 
" style="fill:none;stroke:#f7f7f7;stroke-linecap:round;stroke-width:0.5;"/>
   </g>
   <g id="line2d_12">
    <path clip-path="url(#p96da47d4aa)" d="M 239.645909 217.34 
L 366.464091 217.34 
" style="fill:none;stroke:#f7f7f7;stroke-linecap:round;stroke-width:0.5;"/>
   </g>
   <g id="line2d_13">
    <path clip-path="url(#p96da47d4aa)" d="M 239.645909 190.74 
L 366.464091 190.74 
" style="fill:none;stroke:#f7f7f7;stroke-linecap:round;stroke-width:0.5;"/>
   </g>
   <g id="line2d_14">
    <path clip-path="url(#p96da47d4aa)" d="M 239.645909 164.14 
L 366.464091 164.14 
" style="fill:none;stroke:#f7f7f7;stroke-linecap:round;stroke-width:0.5;"/>
   </g>
   <g id="line2d_15">
    <path clip-path="url(#p96da47d4aa)" d="M 239.645909 137.54 
L 366.464091 137.54 
" style="fill:none;stroke:#f7f7f7;stroke-linecap:round;stroke-width:0.5;"/>
   </g>
   <g id="line2d_16">
    <path clip-path="url(#p96da47d4aa)" d="M 239.645909 110.94 
L 366.464091 110.94 
" style="fill:none;stroke:#f7f7f7;stroke-linecap:round;stroke-width:0.5;"/>
   </g>
   <g id="line2d_17">
    <path clip-path="url(#p96da47d4aa)" d="M 239.645909 84.34 
L 366.464091 84.34 
" style="fill:none;stroke:#f7f7f7;stroke-linecap:round;stroke-width:0.5;"/>
   </g>
   <g id="line2d_18">
    <path clip-path="url(#p96da47d4aa)" d="M 239.645909 57.74 
L 366.464091 57.74 
" style="fill:none;stroke:#f7f7f7;stroke-linecap:round;stroke-width:0.5;"/>
   </g>
   <g id="line2d_19">
    <path clip-path="url(#p96da47d4aa)" d="M 239.645909 31.14 
L 366.464091 31.14 
" style="fill:none;stroke:#f7f7f7;stroke-linecap:round;stroke-width:0.5;"/>
   </g>
   <g id="line2d_20">
    <path clip-path="url(#p96da47d4aa)" d="M 303.055 509.94 
L 303.055 31.14 
" style="fill:none;stroke:#000000;stroke-linecap:round;stroke-width:1.75;"/>
   </g>
   <g id="line2d_21">
    <defs>
     <path d="M 0 2.5 
C 0.663008 2.5 1.29895 2.236584 1.767767 1.767767 
C 2.236584 1.29895 2.5 0.663008 2.5 0 
C 2.5 -0.663008 2.236584 -1.29895 1.767767 -1.767767 
C 1.29895 -2.236584 0.663008 -2.5 0 -2.5 
C -0.663008 -2.5 -1.29895 -2.236584 -1.767767 -1.767767 
C -2.236584 -1.29895 -2.5 -0.663008 -2.5 0 
C -2.5 0.663008 -2.236584 1.29895 -1.767767 1.767767 
C -1.29895 2.236584 -0.663008 2.5 0 2.5 
z
" id="me1e2ba65c7"/>
    </defs>
    <g clip-path="url(#p96da47d4aa)">
     <use style="fill:#4c72b0;" x="356.12403" xlink:href="#me1e2ba65c7" y="31.14"/>
     <use style="fill:#4c72b0;" x="359.443425" xlink:href="#me1e2ba65c7" y="57.74"/>
     <use style="fill:#4c72b0;" x="362.703493" xlink:href="#me1e2ba65c7" y="84.34"/>
     <use style="fill:#4c72b0;" x="366.464091" xlink:href="#me1e2ba65c7" y="110.94"/>
     <use style="fill:#4c72b0;" x="359.754087" xlink:href="#me1e2ba65c7" y="137.54"/>
     <use style="fill:#4c72b0;" x="363.821144" xlink:href="#me1e2ba65c7" y="164.14"/>
     <use style="fill:#4c72b0;" x="346.400708" xlink:href="#me1e2ba65c7" y="190.74"/>
     <use style="fill:#4c72b0;" x="353.679359" xlink:href="#me1e2ba65c7" y="217.34"/>
     <use style="fill:#4c72b0;" x="340.558694" xlink:href="#me1e2ba65c7" y="243.94"/>
     <use style="fill:#4c72b0;" x="339.27112" xlink:href="#me1e2ba65c7" y="270.54"/>
     <use style="fill:#4c72b0;" x="356.813129" xlink:href="#me1e2ba65c7" y="297.14"/>
     <use style="fill:#4c72b0;" x="353.62597" xlink:href="#me1e2ba65c7" y="323.74"/>
     <use style="fill:#4c72b0;" x="361.150462" xlink:href="#me1e2ba65c7" y="350.34"/>
     <use style="fill:#4c72b0;" x="361.600822" xlink:href="#me1e2ba65c7" y="376.94"/>
     <use style="fill:#4c72b0;" x="360.277916" xlink:href="#me1e2ba65c7" y="403.54"/>
     <use style="fill:#4c72b0;" x="359.144449" xlink:href="#me1e2ba65c7" y="430.14"/>
     <use style="fill:#4c72b0;" x="344.089494" xlink:href="#me1e2ba65c7" y="456.74"/>
     <use style="fill:#4c72b0;" x="347.96596" xlink:href="#me1e2ba65c7" y="483.34"/>
     <use style="fill:#4c72b0;" x="338.596209" xlink:href="#me1e2ba65c7" y="509.94"/>
    </g>
   </g>
  </g>
  <g id="text_24">
   <g id="patch_3">
    <a xlink:href="https://dynomight.net">
     <path d="M 333.91 575.225063 
L 388.908437 575.225063 
L 388.908437 561.336938 
L 333.91 561.336938 
z
" style="fill:#4c72b0;opacity:0.01;stroke:#000000;stroke-linejoin:miter;stroke-width:0.3;"/>
    </a>
   </g>
   <a xlink:href="https://dynomight.net">
    <!-- dynomight.net -->
    <g style="fill:#808080;opacity:0.5;" transform="translate(337.93 569.916)scale(0.06 -0.06)">
     <defs>
      <path d="M 2681 3053 
L 2681 4863 
L 3256 4863 
L 3256 0 
L 2681 0 
L 2681 441 
Q 2538 181 2298 45 
Q 2059 -91 1747 -91 
Q 1113 -91 748 401 
Q 384 894 384 1759 
Q 384 2613 750 3098 
Q 1116 3584 1747 3584 
Q 2063 3584 2303 3448 
Q 2544 3313 2681 3053 
z
M 991 1747 
Q 991 1078 1203 737 
Q 1416 397 1831 397 
Q 2247 397 2464 740 
Q 2681 1084 2681 1747 
Q 2681 2413 2464 2755 
Q 2247 3097 1831 3097 
Q 1416 3097 1203 2756 
Q 991 2416 991 1747 
z
" id="DejaVuSansMono-64" transform="scale(0.015625)"/>
      <path d="M 2681 1125 
Q 2538 759 2316 163 
Q 2006 -663 1900 -844 
Q 1756 -1088 1540 -1209 
Q 1325 -1331 1038 -1331 
L 575 -1331 
L 575 -850 
L 916 -850 
Q 1169 -850 1312 -703 
Q 1456 -556 1678 56 
L 325 3500 
L 934 3500 
L 1972 763 
L 2994 3500 
L 3603 3500 
L 2681 1125 
z
" id="DejaVuSansMono-79" transform="scale(0.015625)"/>
      <path d="M 3284 2169 
L 3284 0 
L 2706 0 
L 2706 2169 
Q 2706 2641 2540 2862 
Q 2375 3084 2022 3084 
Q 1619 3084 1401 2798 
Q 1184 2513 1184 1978 
L 1184 0 
L 609 0 
L 609 3500 
L 1184 3500 
L 1184 2975 
Q 1338 3275 1600 3429 
Q 1863 3584 2222 3584 
Q 2756 3584 3020 3232 
Q 3284 2881 3284 2169 
z
" id="DejaVuSansMono-6e" transform="scale(0.015625)"/>
      <path d="M 1925 3097 
Q 1488 3097 1263 2756 
Q 1038 2416 1038 1747 
Q 1038 1081 1263 739 
Q 1488 397 1925 397 
Q 2366 397 2591 739 
Q 2816 1081 2816 1747 
Q 2816 2416 2591 2756 
Q 2366 3097 1925 3097 
z
M 1925 3584 
Q 2653 3584 3039 3112 
Q 3425 2641 3425 1747 
Q 3425 850 3040 379 
Q 2656 -91 1925 -91 
Q 1197 -91 812 379 
Q 428 850 428 1747 
Q 428 2641 812 3112 
Q 1197 3584 1925 3584 
z
" id="DejaVuSansMono-6f" transform="scale(0.015625)"/>
      <path d="M 2113 3144 
Q 2219 3369 2383 3476 
Q 2547 3584 2778 3584 
Q 3200 3584 3373 3257 
Q 3547 2931 3547 2028 
L 3547 0 
L 3022 0 
L 3022 2003 
Q 3022 2744 2939 2923 
Q 2856 3103 2638 3103 
Q 2388 3103 2295 2911 
Q 2203 2719 2203 2003 
L 2203 0 
L 1678 0 
L 1678 2003 
Q 1678 2753 1589 2928 
Q 1500 3103 1269 3103 
Q 1041 3103 952 2911 
Q 863 2719 863 2003 
L 863 0 
L 341 0 
L 341 3500 
L 863 3500 
L 863 3200 
Q 966 3388 1120 3486 
Q 1275 3584 1472 3584 
Q 1709 3584 1867 3475 
Q 2025 3366 2113 3144 
z
" id="DejaVuSansMono-6d" transform="scale(0.015625)"/>
      <path d="M 800 3500 
L 2272 3500 
L 2272 447 
L 3413 447 
L 3413 0 
L 556 0 
L 556 447 
L 1697 447 
L 1697 3053 
L 800 3053 
L 800 3500 
z
M 1697 4863 
L 2272 4863 
L 2272 4134 
L 1697 4134 
L 1697 4863 
z
" id="DejaVuSansMono-69" transform="scale(0.015625)"/>
      <path d="M 2681 1778 
Q 2681 2425 2470 2761 
Q 2259 3097 1856 3097 
Q 1434 3097 1212 2761 
Q 991 2425 991 1778 
Q 991 1131 1214 792 
Q 1438 453 1863 453 
Q 2259 453 2470 793 
Q 2681 1134 2681 1778 
z
M 3256 225 
Q 3256 -563 2884 -969 
Q 2513 -1375 1791 -1375 
Q 1553 -1375 1293 -1331 
Q 1034 -1288 775 -1203 
L 775 -634 
Q 1081 -778 1331 -847 
Q 1581 -916 1791 -916 
Q 2256 -916 2468 -662 
Q 2681 -409 2681 141 
L 2681 166 
L 2681 556 
Q 2544 263 2306 119 
Q 2069 -25 1728 -25 
Q 1116 -25 750 465 
Q 384 956 384 1778 
Q 384 2603 750 3093 
Q 1116 3584 1728 3584 
Q 2066 3584 2300 3450 
Q 2534 3316 2681 3034 
L 2681 3488 
L 3256 3488 
L 3256 225 
z
" id="DejaVuSansMono-67" transform="scale(0.015625)"/>
      <path d="M 3284 2169 
L 3284 0 
L 2706 0 
L 2706 2169 
Q 2706 2641 2540 2862 
Q 2375 3084 2022 3084 
Q 1619 3084 1401 2798 
Q 1184 2513 1184 1978 
L 1184 0 
L 609 0 
L 609 4863 
L 1184 4863 
L 1184 2975 
Q 1338 3275 1600 3429 
Q 1863 3584 2222 3584 
Q 2756 3584 3020 3232 
Q 3284 2881 3284 2169 
z
" id="DejaVuSansMono-68" transform="scale(0.015625)"/>
      <path d="M 1919 4494 
L 1919 3500 
L 3225 3500 
L 3225 3053 
L 1919 3053 
L 1919 1153 
Q 1919 766 2066 612 
Q 2213 459 2578 459 
L 3225 459 
L 3225 0 
L 2522 0 
Q 1875 0 1609 259 
Q 1344 519 1344 1153 
L 1344 3053 
L 409 3053 
L 409 3500 
L 1344 3500 
L 1344 4494 
L 1919 4494 
z
" id="DejaVuSansMono-74" transform="scale(0.015625)"/>
      <path d="M 1528 953 
L 2316 953 
L 2316 0 
L 1528 0 
L 1528 953 
z
" id="DejaVuSansMono-2e" transform="scale(0.015625)"/>
      <path d="M 3475 1894 
L 3475 1613 
L 984 1613 
L 984 1594 
Q 984 1022 1282 709 
Q 1581 397 2125 397 
Q 2400 397 2700 484 
Q 3000 572 3341 750 
L 3341 178 
Q 3013 44 2708 -23 
Q 2403 -91 2119 -91 
Q 1303 -91 843 398 
Q 384 888 384 1747 
Q 384 2584 834 3084 
Q 1284 3584 2034 3584 
Q 2703 3584 3089 3131 
Q 3475 2678 3475 1894 
z
M 2900 2063 
Q 2888 2569 2661 2833 
Q 2434 3097 2009 3097 
Q 1594 3097 1325 2822 
Q 1056 2547 1006 2059 
L 2900 2063 
z
" id="DejaVuSansMono-65" transform="scale(0.015625)"/>
     </defs>
     <use xlink:href="#DejaVuSansMono-64"/>
     <use x="60.205078" xlink:href="#DejaVuSansMono-79"/>
     <use x="120.410156" xlink:href="#DejaVuSansMono-6e"/>
     <use x="180.615234" xlink:href="#DejaVuSansMono-6f"/>
     <use x="240.820312" xlink:href="#DejaVuSansMono-6d"/>
     <use x="301.025391" xlink:href="#DejaVuSansMono-69"/>
     <use x="361.230469" xlink:href="#DejaVuSansMono-67"/>
     <use x="421.435547" xlink:href="#DejaVuSansMono-68"/>
     <use x="481.640625" xlink:href="#DejaVuSansMono-74"/>
     <use x="541.845703" xlink:href="#DejaVuSansMono-2e"/>
     <use x="602.050781" xlink:href="#DejaVuSansMono-6e"/>
     <use x="662.255859" xlink:href="#DejaVuSansMono-65"/>
     <use x="722.460938" xlink:href="#DejaVuSansMono-74"/>
    </g>
   </a>
  </g>
 </g>
 <defs>
  <clipPath id="p96da47d4aa">
   <rect height="526.68" width="139.5" x="233.305" y="7.2"/>
  </clipPath>
 </defs>
</svg>
