<?xml version="1.0" encoding="utf-8" standalone="no"?>
<!DOCTYPE svg PUBLIC "-//W3C//DTD SVG 1.1//EN"
  "http://www.w3.org/Graphics/SVG/1.1/DTD/svg11.dtd">
<svg height="248.869062pt" version="1.1" viewBox="0 0 404.114688 248.869062" width="404.114688pt" xmlns="http://www.w3.org/2000/svg" xmlns:xlink="http://www.w3.org/1999/xlink">
 <metadata>
  <rdf:RDF xmlns:cc="http://creativecommons.org/ns#" xmlns:dc="http://purl.org/dc/elements/1.1/" xmlns:rdf="http://www.w3.org/1999/02/22-rdf-syntax-ns#">
   <cc:Work>
    <dc:type rdf:resource="http://purl.org/dc/dcmitype/StillImage"/>
    <dc:date>2021-07-26T10:32:44.675898</dc:date>
    <dc:format>image/svg+xml</dc:format>
    <dc:creator>
     <cc:Agent>
      <dc:title>Matplotlib v3.4.1, https://matplotlib.org/</dc:title>
     </cc:Agent>
    </dc:creator>
   </cc:Work>
  </rdf:RDF>
 </metadata>
 <defs>
  <style type="text/css">*{stroke-linecap:butt;stroke-linejoin:round;}</style>
 </defs>
 <g id="figure_1">
  <g id="patch_1">
   <path d="M 0 248.869062 
L 404.114688 248.869062 
L 404.114688 0 
L 0 0 
z
" style="fill:none;"/>
  </g>
  <g id="axes_1">
   <g id="patch_2">
    <path d="M 245.33125 201.24 
L 384.83125 201.24 
L 384.83125 7.2 
L 245.33125 7.2 
z
" style="fill:none;"/>
   </g>
   <g id="matplotlib.axis_1">
    <g id="xtick_1">
     <g id="text_1">
      <!-- −0.5 -->
      <g style="fill:#262626;" transform="translate(233.243622 221.124062)scale(0.18 -0.18)">
       <defs>
        <path d="M 3381 1997 
L 356 1997 
L 356 2522 
L 3381 2522 
L 3381 1997 
z
" id="ArialMT-2212" transform="scale(0.015625)"/>
        <path d="M 266 2259 
Q 266 3072 433 3567 
Q 600 4063 929 4331 
Q 1259 4600 1759 4600 
Q 2128 4600 2406 4451 
Q 2684 4303 2865 4023 
Q 3047 3744 3150 3342 
Q 3253 2941 3253 2259 
Q 3253 1453 3087 958 
Q 2922 463 2592 192 
Q 2263 -78 1759 -78 
Q 1097 -78 719 397 
Q 266 969 266 2259 
z
M 844 2259 
Q 844 1131 1108 757 
Q 1372 384 1759 384 
Q 2147 384 2411 759 
Q 2675 1134 2675 2259 
Q 2675 3391 2411 3762 
Q 2147 4134 1753 4134 
Q 1366 4134 1134 3806 
Q 844 3388 844 2259 
z
" id="ArialMT-30" transform="scale(0.015625)"/>
        <path d="M 581 0 
L 581 641 
L 1222 641 
L 1222 0 
L 581 0 
z
" id="ArialMT-2e" transform="scale(0.015625)"/>
        <path d="M 266 1200 
L 856 1250 
Q 922 819 1161 601 
Q 1400 384 1738 384 
Q 2144 384 2425 690 
Q 2706 997 2706 1503 
Q 2706 1984 2436 2262 
Q 2166 2541 1728 2541 
Q 1456 2541 1237 2417 
Q 1019 2294 894 2097 
L 366 2166 
L 809 4519 
L 3088 4519 
L 3088 3981 
L 1259 3981 
L 1013 2750 
Q 1425 3038 1878 3038 
Q 2478 3038 2890 2622 
Q 3303 2206 3303 1553 
Q 3303 931 2941 478 
Q 2500 -78 1738 -78 
Q 1113 -78 717 272 
Q 322 622 266 1200 
z
" id="ArialMT-35" transform="scale(0.015625)"/>
       </defs>
       <use xlink:href="#ArialMT-2212"/>
       <use x="58.398438" xlink:href="#ArialMT-30"/>
       <use x="114.013672" xlink:href="#ArialMT-2e"/>
       <use x="141.796875" xlink:href="#ArialMT-35"/>
      </g>
     </g>
    </g>
    <g id="xtick_2">
     <g id="text_2">
      <!-- 0.0 -->
      <g style="fill:#262626;" transform="translate(302.57125 221.124062)scale(0.18 -0.18)">
       <use xlink:href="#ArialMT-30"/>
       <use x="55.615234" xlink:href="#ArialMT-2e"/>
       <use x="83.398438" xlink:href="#ArialMT-30"/>
      </g>
     </g>
    </g>
    <g id="xtick_3">
     <g id="text_3">
      <!-- 0.5 -->
      <g style="fill:#262626;" transform="translate(366.642316 221.124062)scale(0.18 -0.18)">
       <use xlink:href="#ArialMT-30"/>
       <use x="55.615234" xlink:href="#ArialMT-2e"/>
       <use x="83.398438" xlink:href="#ArialMT-35"/>
      </g>
     </g>
    </g>
    <g id="text_4">
     <!-- g loading -->
     <g style="fill:#262626;" transform="translate(286.67 238.7225)scale(0.14 -0.14)">
      <defs>
       <path d="M 319 -275 
L 866 -356 
Q 900 -609 1056 -725 
Q 1266 -881 1628 -881 
Q 2019 -881 2231 -725 
Q 2444 -569 2519 -288 
Q 2563 -116 2559 434 
Q 2191 0 1641 0 
Q 956 0 581 494 
Q 206 988 206 1678 
Q 206 2153 378 2554 
Q 550 2956 876 3175 
Q 1203 3394 1644 3394 
Q 2231 3394 2613 2919 
L 2613 3319 
L 3131 3319 
L 3131 450 
Q 3131 -325 2973 -648 
Q 2816 -972 2473 -1159 
Q 2131 -1347 1631 -1347 
Q 1038 -1347 672 -1080 
Q 306 -813 319 -275 
z
M 784 1719 
Q 784 1066 1043 766 
Q 1303 466 1694 466 
Q 2081 466 2343 764 
Q 2606 1063 2606 1700 
Q 2606 2309 2336 2618 
Q 2066 2928 1684 2928 
Q 1309 2928 1046 2623 
Q 784 2319 784 1719 
z
" id="ArialMT-67" transform="scale(0.015625)"/>
       <path id="ArialMT-20" transform="scale(0.015625)"/>
       <path d="M 409 0 
L 409 4581 
L 972 4581 
L 972 0 
L 409 0 
z
" id="ArialMT-6c" transform="scale(0.015625)"/>
       <path d="M 213 1659 
Q 213 2581 725 3025 
Q 1153 3394 1769 3394 
Q 2453 3394 2887 2945 
Q 3322 2497 3322 1706 
Q 3322 1066 3130 698 
Q 2938 331 2570 128 
Q 2203 -75 1769 -75 
Q 1072 -75 642 372 
Q 213 819 213 1659 
z
M 791 1659 
Q 791 1022 1069 705 
Q 1347 388 1769 388 
Q 2188 388 2466 706 
Q 2744 1025 2744 1678 
Q 2744 2294 2464 2611 
Q 2184 2928 1769 2928 
Q 1347 2928 1069 2612 
Q 791 2297 791 1659 
z
" id="ArialMT-6f" transform="scale(0.015625)"/>
       <path d="M 2588 409 
Q 2275 144 1986 34 
Q 1697 -75 1366 -75 
Q 819 -75 525 192 
Q 231 459 231 875 
Q 231 1119 342 1320 
Q 453 1522 633 1644 
Q 813 1766 1038 1828 
Q 1203 1872 1538 1913 
Q 2219 1994 2541 2106 
Q 2544 2222 2544 2253 
Q 2544 2597 2384 2738 
Q 2169 2928 1744 2928 
Q 1347 2928 1158 2789 
Q 969 2650 878 2297 
L 328 2372 
Q 403 2725 575 2942 
Q 747 3159 1072 3276 
Q 1397 3394 1825 3394 
Q 2250 3394 2515 3294 
Q 2781 3194 2906 3042 
Q 3031 2891 3081 2659 
Q 3109 2516 3109 2141 
L 3109 1391 
Q 3109 606 3145 398 
Q 3181 191 3288 0 
L 2700 0 
Q 2613 175 2588 409 
z
M 2541 1666 
Q 2234 1541 1622 1453 
Q 1275 1403 1131 1340 
Q 988 1278 909 1158 
Q 831 1038 831 891 
Q 831 666 1001 516 
Q 1172 366 1500 366 
Q 1825 366 2078 508 
Q 2331 650 2450 897 
Q 2541 1088 2541 1459 
L 2541 1666 
z
" id="ArialMT-61" transform="scale(0.015625)"/>
       <path d="M 2575 0 
L 2575 419 
Q 2259 -75 1647 -75 
Q 1250 -75 917 144 
Q 584 363 401 755 
Q 219 1147 219 1656 
Q 219 2153 384 2558 
Q 550 2963 881 3178 
Q 1213 3394 1622 3394 
Q 1922 3394 2156 3267 
Q 2391 3141 2538 2938 
L 2538 4581 
L 3097 4581 
L 3097 0 
L 2575 0 
z
M 797 1656 
Q 797 1019 1065 703 
Q 1334 388 1700 388 
Q 2069 388 2326 689 
Q 2584 991 2584 1609 
Q 2584 2291 2321 2609 
Q 2059 2928 1675 2928 
Q 1300 2928 1048 2622 
Q 797 2316 797 1656 
z
" id="ArialMT-64" transform="scale(0.015625)"/>
       <path d="M 425 3934 
L 425 4581 
L 988 4581 
L 988 3934 
L 425 3934 
z
M 425 0 
L 425 3319 
L 988 3319 
L 988 0 
L 425 0 
z
" id="ArialMT-69" transform="scale(0.015625)"/>
       <path d="M 422 0 
L 422 3319 
L 928 3319 
L 928 2847 
Q 1294 3394 1984 3394 
Q 2284 3394 2536 3286 
Q 2788 3178 2913 3003 
Q 3038 2828 3088 2588 
Q 3119 2431 3119 2041 
L 3119 0 
L 2556 0 
L 2556 2019 
Q 2556 2363 2490 2533 
Q 2425 2703 2258 2804 
Q 2091 2906 1866 2906 
Q 1506 2906 1245 2678 
Q 984 2450 984 1813 
L 984 0 
L 422 0 
z
" id="ArialMT-6e" transform="scale(0.015625)"/>
      </defs>
      <use xlink:href="#ArialMT-67"/>
      <use x="55.615234" xlink:href="#ArialMT-20"/>
      <use x="83.398438" xlink:href="#ArialMT-6c"/>
      <use x="105.615234" xlink:href="#ArialMT-6f"/>
      <use x="161.230469" xlink:href="#ArialMT-61"/>
      <use x="216.845703" xlink:href="#ArialMT-64"/>
      <use x="272.460938" xlink:href="#ArialMT-69"/>
      <use x="294.677734" xlink:href="#ArialMT-6e"/>
      <use x="350.292969" xlink:href="#ArialMT-67"/>
     </g>
    </g>
   </g>
   <g id="matplotlib.axis_2">
    <g id="ytick_1">
     <g id="text_5">
      <!-- Categorical Spatial Encoding -->
      <g style="fill:#262626;" transform="translate(7.2 197.0775)scale(0.18 -0.18)">
       <defs>
        <path d="M 3763 1606 
L 4369 1453 
Q 4178 706 3683 314 
Q 3188 -78 2472 -78 
Q 1731 -78 1267 223 
Q 803 525 561 1097 
Q 319 1669 319 2325 
Q 319 3041 592 3573 
Q 866 4106 1370 4382 
Q 1875 4659 2481 4659 
Q 3169 4659 3637 4309 
Q 4106 3959 4291 3325 
L 3694 3184 
Q 3534 3684 3231 3912 
Q 2928 4141 2469 4141 
Q 1941 4141 1586 3887 
Q 1231 3634 1087 3207 
Q 944 2781 944 2328 
Q 944 1744 1114 1308 
Q 1284 872 1643 656 
Q 2003 441 2422 441 
Q 2931 441 3284 734 
Q 3638 1028 3763 1606 
z
" id="ArialMT-43" transform="scale(0.015625)"/>
        <path d="M 1650 503 
L 1731 6 
Q 1494 -44 1306 -44 
Q 1000 -44 831 53 
Q 663 150 594 308 
Q 525 466 525 972 
L 525 2881 
L 113 2881 
L 113 3319 
L 525 3319 
L 525 4141 
L 1084 4478 
L 1084 3319 
L 1650 3319 
L 1650 2881 
L 1084 2881 
L 1084 941 
Q 1084 700 1114 631 
Q 1144 563 1211 522 
Q 1278 481 1403 481 
Q 1497 481 1650 503 
z
" id="ArialMT-74" transform="scale(0.015625)"/>
        <path d="M 2694 1069 
L 3275 997 
Q 3138 488 2766 206 
Q 2394 -75 1816 -75 
Q 1088 -75 661 373 
Q 234 822 234 1631 
Q 234 2469 665 2931 
Q 1097 3394 1784 3394 
Q 2450 3394 2872 2941 
Q 3294 2488 3294 1666 
Q 3294 1616 3291 1516 
L 816 1516 
Q 847 969 1125 678 
Q 1403 388 1819 388 
Q 2128 388 2347 550 
Q 2566 713 2694 1069 
z
M 847 1978 
L 2700 1978 
Q 2663 2397 2488 2606 
Q 2219 2931 1791 2931 
Q 1403 2931 1139 2672 
Q 875 2413 847 1978 
z
" id="ArialMT-65" transform="scale(0.015625)"/>
        <path d="M 416 0 
L 416 3319 
L 922 3319 
L 922 2816 
Q 1116 3169 1280 3281 
Q 1444 3394 1641 3394 
Q 1925 3394 2219 3213 
L 2025 2691 
Q 1819 2813 1613 2813 
Q 1428 2813 1281 2702 
Q 1134 2591 1072 2394 
Q 978 2094 978 1738 
L 978 0 
L 416 0 
z
" id="ArialMT-72" transform="scale(0.015625)"/>
        <path d="M 2588 1216 
L 3141 1144 
Q 3050 572 2676 248 
Q 2303 -75 1759 -75 
Q 1078 -75 664 370 
Q 250 816 250 1647 
Q 250 2184 428 2587 
Q 606 2991 970 3192 
Q 1334 3394 1763 3394 
Q 2303 3394 2647 3120 
Q 2991 2847 3088 2344 
L 2541 2259 
Q 2463 2594 2264 2762 
Q 2066 2931 1784 2931 
Q 1359 2931 1093 2626 
Q 828 2322 828 1663 
Q 828 994 1084 691 
Q 1341 388 1753 388 
Q 2084 388 2306 591 
Q 2528 794 2588 1216 
z
" id="ArialMT-63" transform="scale(0.015625)"/>
        <path d="M 288 1472 
L 859 1522 
Q 900 1178 1048 958 
Q 1197 738 1509 602 
Q 1822 466 2213 466 
Q 2559 466 2825 569 
Q 3091 672 3220 851 
Q 3350 1031 3350 1244 
Q 3350 1459 3225 1620 
Q 3100 1781 2813 1891 
Q 2628 1963 1997 2114 
Q 1366 2266 1113 2400 
Q 784 2572 623 2826 
Q 463 3081 463 3397 
Q 463 3744 659 4045 
Q 856 4347 1234 4503 
Q 1613 4659 2075 4659 
Q 2584 4659 2973 4495 
Q 3363 4331 3572 4012 
Q 3781 3694 3797 3291 
L 3216 3247 
Q 3169 3681 2898 3903 
Q 2628 4125 2100 4125 
Q 1550 4125 1298 3923 
Q 1047 3722 1047 3438 
Q 1047 3191 1225 3031 
Q 1400 2872 2139 2705 
Q 2878 2538 3153 2413 
Q 3553 2228 3743 1945 
Q 3934 1663 3934 1294 
Q 3934 928 3725 604 
Q 3516 281 3123 101 
Q 2731 -78 2241 -78 
Q 1619 -78 1198 103 
Q 778 284 539 648 
Q 300 1013 288 1472 
z
" id="ArialMT-53" transform="scale(0.015625)"/>
        <path d="M 422 -1272 
L 422 3319 
L 934 3319 
L 934 2888 
Q 1116 3141 1344 3267 
Q 1572 3394 1897 3394 
Q 2322 3394 2647 3175 
Q 2972 2956 3137 2557 
Q 3303 2159 3303 1684 
Q 3303 1175 3120 767 
Q 2938 359 2589 142 
Q 2241 -75 1856 -75 
Q 1575 -75 1351 44 
Q 1128 163 984 344 
L 984 -1272 
L 422 -1272 
z
M 931 1641 
Q 931 1000 1190 694 
Q 1450 388 1819 388 
Q 2194 388 2461 705 
Q 2728 1022 2728 1688 
Q 2728 2322 2467 2637 
Q 2206 2953 1844 2953 
Q 1484 2953 1207 2617 
Q 931 2281 931 1641 
z
" id="ArialMT-70" transform="scale(0.015625)"/>
        <path d="M 506 0 
L 506 4581 
L 3819 4581 
L 3819 4041 
L 1113 4041 
L 1113 2638 
L 3647 2638 
L 3647 2100 
L 1113 2100 
L 1113 541 
L 3925 541 
L 3925 0 
L 506 0 
z
" id="ArialMT-45" transform="scale(0.015625)"/>
       </defs>
       <use xlink:href="#ArialMT-43"/>
       <use x="72.216797" xlink:href="#ArialMT-61"/>
       <use x="127.832031" xlink:href="#ArialMT-74"/>
       <use x="155.615234" xlink:href="#ArialMT-65"/>
       <use x="211.230469" xlink:href="#ArialMT-67"/>
       <use x="266.845703" xlink:href="#ArialMT-6f"/>
       <use x="322.460938" xlink:href="#ArialMT-72"/>
       <use x="355.761719" xlink:href="#ArialMT-69"/>
       <use x="377.978516" xlink:href="#ArialMT-63"/>
       <use x="427.978516" xlink:href="#ArialMT-61"/>
       <use x="483.59375" xlink:href="#ArialMT-6c"/>
       <use x="505.810547" xlink:href="#ArialMT-20"/>
       <use x="533.59375" xlink:href="#ArialMT-53"/>
       <use x="600.292969" xlink:href="#ArialMT-70"/>
       <use x="655.908203" xlink:href="#ArialMT-61"/>
       <use x="711.523438" xlink:href="#ArialMT-74"/>
       <use x="739.306641" xlink:href="#ArialMT-69"/>
       <use x="761.523438" xlink:href="#ArialMT-61"/>
       <use x="817.138672" xlink:href="#ArialMT-6c"/>
       <use x="839.355469" xlink:href="#ArialMT-20"/>
       <use x="867.138672" xlink:href="#ArialMT-45"/>
       <use x="933.837891" xlink:href="#ArialMT-6e"/>
       <use x="989.453125" xlink:href="#ArialMT-63"/>
       <use x="1039.453125" xlink:href="#ArialMT-6f"/>
       <use x="1095.068359" xlink:href="#ArialMT-64"/>
       <use x="1150.683594" xlink:href="#ArialMT-69"/>
       <use x="1172.900391" xlink:href="#ArialMT-6e"/>
       <use x="1228.515625" xlink:href="#ArialMT-67"/>
      </g>
     </g>
    </g>
    <g id="ytick_2">
     <g id="text_6">
      <!-- Coordinate Spatial Encoding -->
      <g style="fill:#262626;" transform="translate(10.189688 167.6775)scale(0.18 -0.18)">
       <use xlink:href="#ArialMT-43"/>
       <use x="72.216797" xlink:href="#ArialMT-6f"/>
       <use x="127.832031" xlink:href="#ArialMT-6f"/>
       <use x="183.447266" xlink:href="#ArialMT-72"/>
       <use x="216.748047" xlink:href="#ArialMT-64"/>
       <use x="272.363281" xlink:href="#ArialMT-69"/>
       <use x="294.580078" xlink:href="#ArialMT-6e"/>
       <use x="350.195312" xlink:href="#ArialMT-61"/>
       <use x="405.810547" xlink:href="#ArialMT-74"/>
       <use x="433.59375" xlink:href="#ArialMT-65"/>
       <use x="489.208984" xlink:href="#ArialMT-20"/>
       <use x="516.992188" xlink:href="#ArialMT-53"/>
       <use x="583.691406" xlink:href="#ArialMT-70"/>
       <use x="639.306641" xlink:href="#ArialMT-61"/>
       <use x="694.921875" xlink:href="#ArialMT-74"/>
       <use x="722.705078" xlink:href="#ArialMT-69"/>
       <use x="744.921875" xlink:href="#ArialMT-61"/>
       <use x="800.537109" xlink:href="#ArialMT-6c"/>
       <use x="822.753906" xlink:href="#ArialMT-20"/>
       <use x="850.537109" xlink:href="#ArialMT-45"/>
       <use x="917.236328" xlink:href="#ArialMT-6e"/>
       <use x="972.851562" xlink:href="#ArialMT-63"/>
       <use x="1022.851562" xlink:href="#ArialMT-6f"/>
       <use x="1078.466797" xlink:href="#ArialMT-64"/>
       <use x="1134.082031" xlink:href="#ArialMT-69"/>
       <use x="1156.298828" xlink:href="#ArialMT-6e"/>
       <use x="1211.914062" xlink:href="#ArialMT-67"/>
      </g>
     </g>
    </g>
    <g id="ytick_3">
     <g id="text_7">
      <!-- Mental Rotation -->
      <g style="fill:#262626;" transform="translate(112.269375 138.273281)scale(0.18 -0.18)">
       <defs>
        <path d="M 475 0 
L 475 4581 
L 1388 4581 
L 2472 1338 
Q 2622 884 2691 659 
Q 2769 909 2934 1394 
L 4031 4581 
L 4847 4581 
L 4847 0 
L 4263 0 
L 4263 3834 
L 2931 0 
L 2384 0 
L 1059 3900 
L 1059 0 
L 475 0 
z
" id="ArialMT-4d" transform="scale(0.015625)"/>
        <path d="M 503 0 
L 503 4581 
L 2534 4581 
Q 3147 4581 3465 4457 
Q 3784 4334 3975 4021 
Q 4166 3709 4166 3331 
Q 4166 2844 3850 2509 
Q 3534 2175 2875 2084 
Q 3116 1969 3241 1856 
Q 3506 1613 3744 1247 
L 4541 0 
L 3778 0 
L 3172 953 
Q 2906 1366 2734 1584 
Q 2563 1803 2427 1890 
Q 2291 1978 2150 2013 
Q 2047 2034 1813 2034 
L 1109 2034 
L 1109 0 
L 503 0 
z
M 1109 2559 
L 2413 2559 
Q 2828 2559 3062 2645 
Q 3297 2731 3419 2920 
Q 3541 3109 3541 3331 
Q 3541 3656 3305 3865 
Q 3069 4075 2559 4075 
L 1109 4075 
L 1109 2559 
z
" id="ArialMT-52" transform="scale(0.015625)"/>
       </defs>
       <use xlink:href="#ArialMT-4d"/>
       <use x="83.300781" xlink:href="#ArialMT-65"/>
       <use x="138.916016" xlink:href="#ArialMT-6e"/>
       <use x="194.53125" xlink:href="#ArialMT-74"/>
       <use x="222.314453" xlink:href="#ArialMT-61"/>
       <use x="277.929688" xlink:href="#ArialMT-6c"/>
       <use x="300.146484" xlink:href="#ArialMT-20"/>
       <use x="327.929688" xlink:href="#ArialMT-52"/>
       <use x="400.146484" xlink:href="#ArialMT-6f"/>
       <use x="455.761719" xlink:href="#ArialMT-74"/>
       <use x="483.544922" xlink:href="#ArialMT-61"/>
       <use x="539.160156" xlink:href="#ArialMT-74"/>
       <use x="566.943359" xlink:href="#ArialMT-69"/>
       <use x="589.160156" xlink:href="#ArialMT-6f"/>
       <use x="644.775391" xlink:href="#ArialMT-6e"/>
      </g>
     </g>
    </g>
    <g id="ytick_4">
     <g id="text_8">
      <!-- Response Time -->
      <g style="fill:#262626;" transform="translate(113.27625 108.873281)scale(0.18 -0.18)">
       <defs>
        <path d="M 197 991 
L 753 1078 
Q 800 744 1014 566 
Q 1228 388 1613 388 
Q 2000 388 2187 545 
Q 2375 703 2375 916 
Q 2375 1106 2209 1216 
Q 2094 1291 1634 1406 
Q 1016 1563 777 1677 
Q 538 1791 414 1992 
Q 291 2194 291 2438 
Q 291 2659 392 2848 
Q 494 3038 669 3163 
Q 800 3259 1026 3326 
Q 1253 3394 1513 3394 
Q 1903 3394 2198 3281 
Q 2494 3169 2634 2976 
Q 2775 2784 2828 2463 
L 2278 2388 
Q 2241 2644 2061 2787 
Q 1881 2931 1553 2931 
Q 1166 2931 1000 2803 
Q 834 2675 834 2503 
Q 834 2394 903 2306 
Q 972 2216 1119 2156 
Q 1203 2125 1616 2013 
Q 2213 1853 2448 1751 
Q 2684 1650 2818 1456 
Q 2953 1263 2953 975 
Q 2953 694 2789 445 
Q 2625 197 2315 61 
Q 2006 -75 1616 -75 
Q 969 -75 630 194 
Q 291 463 197 991 
z
" id="ArialMT-73" transform="scale(0.015625)"/>
        <path d="M 1659 0 
L 1659 4041 
L 150 4041 
L 150 4581 
L 3781 4581 
L 3781 4041 
L 2266 4041 
L 2266 0 
L 1659 0 
z
" id="ArialMT-54" transform="scale(0.015625)"/>
        <path d="M 422 0 
L 422 3319 
L 925 3319 
L 925 2853 
Q 1081 3097 1340 3245 
Q 1600 3394 1931 3394 
Q 2300 3394 2536 3241 
Q 2772 3088 2869 2813 
Q 3263 3394 3894 3394 
Q 4388 3394 4653 3120 
Q 4919 2847 4919 2278 
L 4919 0 
L 4359 0 
L 4359 2091 
Q 4359 2428 4304 2576 
Q 4250 2725 4106 2815 
Q 3963 2906 3769 2906 
Q 3419 2906 3187 2673 
Q 2956 2441 2956 1928 
L 2956 0 
L 2394 0 
L 2394 2156 
Q 2394 2531 2256 2718 
Q 2119 2906 1806 2906 
Q 1569 2906 1367 2781 
Q 1166 2656 1075 2415 
Q 984 2175 984 1722 
L 984 0 
L 422 0 
z
" id="ArialMT-6d" transform="scale(0.015625)"/>
       </defs>
       <use xlink:href="#ArialMT-52"/>
       <use x="72.216797" xlink:href="#ArialMT-65"/>
       <use x="127.832031" xlink:href="#ArialMT-73"/>
       <use x="177.832031" xlink:href="#ArialMT-70"/>
       <use x="233.447266" xlink:href="#ArialMT-6f"/>
       <use x="289.0625" xlink:href="#ArialMT-6e"/>
       <use x="344.677734" xlink:href="#ArialMT-73"/>
       <use x="394.677734" xlink:href="#ArialMT-65"/>
       <use x="450.292969" xlink:href="#ArialMT-20"/>
       <use x="476.326172" xlink:href="#ArialMT-54"/>
       <use x="533.660156" xlink:href="#ArialMT-69"/>
       <use x="555.876953" xlink:href="#ArialMT-6d"/>
       <use x="639.177734" xlink:href="#ArialMT-65"/>
      </g>
     </g>
    </g>
    <g id="ytick_5">
     <g id="text_9">
      <!-- Verbal Fluency -->
      <g style="fill:#262626;" transform="translate(119.269688 79.367812)scale(0.18 -0.18)">
       <defs>
        <path d="M 1803 0 
L 28 4581 
L 684 4581 
L 1875 1253 
Q 2019 853 2116 503 
Q 2222 878 2363 1253 
L 3600 4581 
L 4219 4581 
L 2425 0 
L 1803 0 
z
" id="ArialMT-56" transform="scale(0.015625)"/>
        <path d="M 941 0 
L 419 0 
L 419 4581 
L 981 4581 
L 981 2947 
Q 1338 3394 1891 3394 
Q 2197 3394 2470 3270 
Q 2744 3147 2920 2923 
Q 3097 2700 3197 2384 
Q 3297 2069 3297 1709 
Q 3297 856 2875 390 
Q 2453 -75 1863 -75 
Q 1275 -75 941 416 
L 941 0 
z
M 934 1684 
Q 934 1088 1097 822 
Q 1363 388 1816 388 
Q 2184 388 2453 708 
Q 2722 1028 2722 1663 
Q 2722 2313 2464 2622 
Q 2206 2931 1841 2931 
Q 1472 2931 1203 2611 
Q 934 2291 934 1684 
z
" id="ArialMT-62" transform="scale(0.015625)"/>
        <path d="M 525 0 
L 525 4581 
L 3616 4581 
L 3616 4041 
L 1131 4041 
L 1131 2622 
L 3281 2622 
L 3281 2081 
L 1131 2081 
L 1131 0 
L 525 0 
z
" id="ArialMT-46" transform="scale(0.015625)"/>
        <path d="M 2597 0 
L 2597 488 
Q 2209 -75 1544 -75 
Q 1250 -75 995 37 
Q 741 150 617 320 
Q 494 491 444 738 
Q 409 903 409 1263 
L 409 3319 
L 972 3319 
L 972 1478 
Q 972 1038 1006 884 
Q 1059 663 1231 536 
Q 1403 409 1656 409 
Q 1909 409 2131 539 
Q 2353 669 2445 892 
Q 2538 1116 2538 1541 
L 2538 3319 
L 3100 3319 
L 3100 0 
L 2597 0 
z
" id="ArialMT-75" transform="scale(0.015625)"/>
        <path d="M 397 -1278 
L 334 -750 
Q 519 -800 656 -800 
Q 844 -800 956 -737 
Q 1069 -675 1141 -563 
Q 1194 -478 1313 -144 
Q 1328 -97 1363 -6 
L 103 3319 
L 709 3319 
L 1400 1397 
Q 1534 1031 1641 628 
Q 1738 1016 1872 1384 
L 2581 3319 
L 3144 3319 
L 1881 -56 
Q 1678 -603 1566 -809 
Q 1416 -1088 1222 -1217 
Q 1028 -1347 759 -1347 
Q 597 -1347 397 -1278 
z
" id="ArialMT-79" transform="scale(0.015625)"/>
       </defs>
       <use xlink:href="#ArialMT-56"/>
       <use x="61.199219" xlink:href="#ArialMT-65"/>
       <use x="116.814453" xlink:href="#ArialMT-72"/>
       <use x="150.115234" xlink:href="#ArialMT-62"/>
       <use x="205.730469" xlink:href="#ArialMT-61"/>
       <use x="261.345703" xlink:href="#ArialMT-6c"/>
       <use x="283.5625" xlink:href="#ArialMT-20"/>
       <use x="311.345703" xlink:href="#ArialMT-46"/>
       <use x="372.429688" xlink:href="#ArialMT-6c"/>
       <use x="394.646484" xlink:href="#ArialMT-75"/>
       <use x="450.261719" xlink:href="#ArialMT-65"/>
       <use x="505.876953" xlink:href="#ArialMT-6e"/>
       <use x="561.492188" xlink:href="#ArialMT-63"/>
       <use x="611.492188" xlink:href="#ArialMT-79"/>
      </g>
     </g>
    </g>
    <g id="ytick_6">
     <g id="text_10">
      <!-- Working Memory -->
      <g style="fill:#262626;" transform="translate(102.63375 49.967812)scale(0.18 -0.18)">
       <defs>
        <path d="M 1294 0 
L 78 4581 
L 700 4581 
L 1397 1578 
Q 1509 1106 1591 641 
Q 1766 1375 1797 1488 
L 2669 4581 
L 3400 4581 
L 4056 2263 
Q 4303 1400 4413 641 
Q 4500 1075 4641 1638 
L 5359 4581 
L 5969 4581 
L 4713 0 
L 4128 0 
L 3163 3491 
Q 3041 3928 3019 4028 
Q 2947 3713 2884 3491 
L 1913 0 
L 1294 0 
z
" id="ArialMT-57" transform="scale(0.015625)"/>
        <path d="M 425 0 
L 425 4581 
L 988 4581 
L 988 1969 
L 2319 3319 
L 3047 3319 
L 1778 2088 
L 3175 0 
L 2481 0 
L 1384 1697 
L 988 1316 
L 988 0 
L 425 0 
z
" id="ArialMT-6b" transform="scale(0.015625)"/>
       </defs>
       <use xlink:href="#ArialMT-57"/>
       <use x="92.634766" xlink:href="#ArialMT-6f"/>
       <use x="148.25" xlink:href="#ArialMT-72"/>
       <use x="181.550781" xlink:href="#ArialMT-6b"/>
       <use x="231.550781" xlink:href="#ArialMT-69"/>
       <use x="253.767578" xlink:href="#ArialMT-6e"/>
       <use x="309.382812" xlink:href="#ArialMT-67"/>
       <use x="364.998047" xlink:href="#ArialMT-20"/>
       <use x="392.78125" xlink:href="#ArialMT-4d"/>
       <use x="476.082031" xlink:href="#ArialMT-65"/>
       <use x="531.697266" xlink:href="#ArialMT-6d"/>
       <use x="614.998047" xlink:href="#ArialMT-6f"/>
       <use x="670.613281" xlink:href="#ArialMT-72"/>
       <use x="703.914062" xlink:href="#ArialMT-79"/>
      </g>
     </g>
    </g>
    <g id="ytick_7">
     <g id="text_11">
      <!-- Raven’s Matrices -->
      <g style="fill:#262626;" transform="translate(100.611563 20.673281)scale(0.18 -0.18)">
       <defs>
        <path d="M 1344 0 
L 81 3319 
L 675 3319 
L 1388 1331 
Q 1503 1009 1600 663 
Q 1675 925 1809 1294 
L 2547 3319 
L 3125 3319 
L 1869 0 
L 1344 0 
z
" id="ArialMT-76" transform="scale(0.015625)"/>
        <path d="M 388 3975 
L 388 4628 
L 991 4628 
L 991 4113 
Q 991 3694 894 3509 
Q 759 3256 475 3128 
L 338 3350 
Q 506 3419 589 3567 
Q 672 3716 681 3975 
L 388 3975 
z
" id="ArialMT-2019" transform="scale(0.015625)"/>
       </defs>
       <use xlink:href="#ArialMT-52"/>
       <use x="72.216797" xlink:href="#ArialMT-61"/>
       <use x="127.832031" xlink:href="#ArialMT-76"/>
       <use x="177.832031" xlink:href="#ArialMT-65"/>
       <use x="233.447266" xlink:href="#ArialMT-6e"/>
       <use x="289.0625" xlink:href="#ArialMT-2019"/>
       <use x="309.529297" xlink:href="#ArialMT-73"/>
       <use x="359.529297" xlink:href="#ArialMT-20"/>
       <use x="387.3125" xlink:href="#ArialMT-4d"/>
       <use x="470.613281" xlink:href="#ArialMT-61"/>
       <use x="526.228516" xlink:href="#ArialMT-74"/>
       <use x="554.011719" xlink:href="#ArialMT-72"/>
       <use x="587.3125" xlink:href="#ArialMT-69"/>
       <use x="609.529297" xlink:href="#ArialMT-63"/>
       <use x="659.529297" xlink:href="#ArialMT-65"/>
       <use x="715.144531" xlink:href="#ArialMT-73"/>
      </g>
     </g>
    </g>
   </g>
   <g id="line2d_1">
    <path clip-path="url(#pa907d99d65)" d="M 251.672159 192.42 
L 378.490341 192.42 
" style="fill:none;stroke:#f7f7f7;stroke-linecap:round;stroke-width:0.5;"/>
   </g>
   <g id="line2d_2">
    <path clip-path="url(#pa907d99d65)" d="M 251.672159 163.02 
L 378.490341 163.02 
" style="fill:none;stroke:#f7f7f7;stroke-linecap:round;stroke-width:0.5;"/>
   </g>
   <g id="line2d_3">
    <path clip-path="url(#pa907d99d65)" d="M 251.672159 133.62 
L 378.490341 133.62 
" style="fill:none;stroke:#f7f7f7;stroke-linecap:round;stroke-width:0.5;"/>
   </g>
   <g id="line2d_4">
    <path clip-path="url(#pa907d99d65)" d="M 251.672159 104.22 
L 378.490341 104.22 
" style="fill:none;stroke:#f7f7f7;stroke-linecap:round;stroke-width:0.5;"/>
   </g>
   <g id="line2d_5">
    <path clip-path="url(#pa907d99d65)" d="M 251.672159 74.82 
L 378.490341 74.82 
" style="fill:none;stroke:#f7f7f7;stroke-linecap:round;stroke-width:0.5;"/>
   </g>
   <g id="line2d_6">
    <path clip-path="url(#pa907d99d65)" d="M 251.672159 45.42 
L 378.490341 45.42 
" style="fill:none;stroke:#f7f7f7;stroke-linecap:round;stroke-width:0.5;"/>
   </g>
   <g id="line2d_7">
    <path clip-path="url(#pa907d99d65)" d="M 251.672159 16.02 
L 378.490341 16.02 
" style="fill:none;stroke:#f7f7f7;stroke-linecap:round;stroke-width:0.5;"/>
   </g>
   <g id="line2d_8">
    <path clip-path="url(#pa907d99d65)" d="M 315.08125 192.42 
L 315.08125 16.02 
" style="fill:none;stroke:#000000;stroke-linecap:round;stroke-width:1.75;"/>
   </g>
   <g id="line2d_9">
    <defs>
     <path d="M 0 2.5 
C 0.663008 2.5 1.29895 2.236584 1.767767 1.767767 
C 2.236584 1.29895 2.5 0.663008 2.5 0 
C 2.5 -0.663008 2.236584 -1.29895 1.767767 -1.767767 
C 1.29895 -2.236584 0.663008 -2.5 0 -2.5 
C -0.663008 -2.5 -1.29895 -2.236584 -1.767767 -1.767767 
C -2.236584 -1.29895 -2.5 -0.663008 -2.5 0 
C -2.5 0.663008 -2.236584 1.29895 -1.767767 1.767767 
C -1.29895 2.236584 -0.663008 2.5 0 2.5 
z
" id="md131a34cd4"/>
    </defs>
    <g clip-path="url(#pa907d99d65)">
     <use style="fill:#4c72b0;" x="378.490341" xlink:href="#md131a34cd4" y="16.02"/>
     <use style="fill:#4c72b0;" x="374.050148" xlink:href="#md131a34cd4" y="45.42"/>
     <use style="fill:#4c72b0;" x="367.80866" xlink:href="#md131a34cd4" y="74.82"/>
     <use style="fill:#4c72b0;" x="365.263022" xlink:href="#md131a34cd4" y="104.22"/>
     <use style="fill:#4c72b0;" x="359.217795" xlink:href="#md131a34cd4" y="133.62"/>
     <use style="fill:#4c72b0;" x="346.650573" xlink:href="#md131a34cd4" y="163.02"/>
     <use style="fill:#4c72b0;" x="341.144929" xlink:href="#md131a34cd4" y="192.42"/>
    </g>
   </g>
  </g>
  <g id="text_12">
   <g id="patch_3">
    <a xlink:href="https://dynomight.net">
     <path d="M 345.93625 242.585062 
L 400.934687 242.585062 
L 400.934687 228.696937 
L 345.93625 228.696937 
z
" style="fill:#4c72b0;opacity:0.01;stroke:#000000;stroke-linejoin:miter;stroke-width:0.3;"/>
    </a>
   </g>
   <a xlink:href="https://dynomight.net">
    <!-- dynomight.net -->
    <g style="fill:#808080;opacity:0.5;" transform="translate(349.95625 237.276)scale(0.06 -0.06)">
     <defs>
      <path d="M 2681 3053 
L 2681 4863 
L 3256 4863 
L 3256 0 
L 2681 0 
L 2681 441 
Q 2538 181 2298 45 
Q 2059 -91 1747 -91 
Q 1113 -91 748 401 
Q 384 894 384 1759 
Q 384 2613 750 3098 
Q 1116 3584 1747 3584 
Q 2063 3584 2303 3448 
Q 2544 3313 2681 3053 
z
M 991 1747 
Q 991 1078 1203 737 
Q 1416 397 1831 397 
Q 2247 397 2464 740 
Q 2681 1084 2681 1747 
Q 2681 2413 2464 2755 
Q 2247 3097 1831 3097 
Q 1416 3097 1203 2756 
Q 991 2416 991 1747 
z
" id="DejaVuSansMono-64" transform="scale(0.015625)"/>
      <path d="M 2681 1125 
Q 2538 759 2316 163 
Q 2006 -663 1900 -844 
Q 1756 -1088 1540 -1209 
Q 1325 -1331 1038 -1331 
L 575 -1331 
L 575 -850 
L 916 -850 
Q 1169 -850 1312 -703 
Q 1456 -556 1678 56 
L 325 3500 
L 934 3500 
L 1972 763 
L 2994 3500 
L 3603 3500 
L 2681 1125 
z
" id="DejaVuSansMono-79" transform="scale(0.015625)"/>
      <path d="M 3284 2169 
L 3284 0 
L 2706 0 
L 2706 2169 
Q 2706 2641 2540 2862 
Q 2375 3084 2022 3084 
Q 1619 3084 1401 2798 
Q 1184 2513 1184 1978 
L 1184 0 
L 609 0 
L 609 3500 
L 1184 3500 
L 1184 2975 
Q 1338 3275 1600 3429 
Q 1863 3584 2222 3584 
Q 2756 3584 3020 3232 
Q 3284 2881 3284 2169 
z
" id="DejaVuSansMono-6e" transform="scale(0.015625)"/>
      <path d="M 1925 3097 
Q 1488 3097 1263 2756 
Q 1038 2416 1038 1747 
Q 1038 1081 1263 739 
Q 1488 397 1925 397 
Q 2366 397 2591 739 
Q 2816 1081 2816 1747 
Q 2816 2416 2591 2756 
Q 2366 3097 1925 3097 
z
M 1925 3584 
Q 2653 3584 3039 3112 
Q 3425 2641 3425 1747 
Q 3425 850 3040 379 
Q 2656 -91 1925 -91 
Q 1197 -91 812 379 
Q 428 850 428 1747 
Q 428 2641 812 3112 
Q 1197 3584 1925 3584 
z
" id="DejaVuSansMono-6f" transform="scale(0.015625)"/>
      <path d="M 2113 3144 
Q 2219 3369 2383 3476 
Q 2547 3584 2778 3584 
Q 3200 3584 3373 3257 
Q 3547 2931 3547 2028 
L 3547 0 
L 3022 0 
L 3022 2003 
Q 3022 2744 2939 2923 
Q 2856 3103 2638 3103 
Q 2388 3103 2295 2911 
Q 2203 2719 2203 2003 
L 2203 0 
L 1678 0 
L 1678 2003 
Q 1678 2753 1589 2928 
Q 1500 3103 1269 3103 
Q 1041 3103 952 2911 
Q 863 2719 863 2003 
L 863 0 
L 341 0 
L 341 3500 
L 863 3500 
L 863 3200 
Q 966 3388 1120 3486 
Q 1275 3584 1472 3584 
Q 1709 3584 1867 3475 
Q 2025 3366 2113 3144 
z
" id="DejaVuSansMono-6d" transform="scale(0.015625)"/>
      <path d="M 800 3500 
L 2272 3500 
L 2272 447 
L 3413 447 
L 3413 0 
L 556 0 
L 556 447 
L 1697 447 
L 1697 3053 
L 800 3053 
L 800 3500 
z
M 1697 4863 
L 2272 4863 
L 2272 4134 
L 1697 4134 
L 1697 4863 
z
" id="DejaVuSansMono-69" transform="scale(0.015625)"/>
      <path d="M 2681 1778 
Q 2681 2425 2470 2761 
Q 2259 3097 1856 3097 
Q 1434 3097 1212 2761 
Q 991 2425 991 1778 
Q 991 1131 1214 792 
Q 1438 453 1863 453 
Q 2259 453 2470 793 
Q 2681 1134 2681 1778 
z
M 3256 225 
Q 3256 -563 2884 -969 
Q 2513 -1375 1791 -1375 
Q 1553 -1375 1293 -1331 
Q 1034 -1288 775 -1203 
L 775 -634 
Q 1081 -778 1331 -847 
Q 1581 -916 1791 -916 
Q 2256 -916 2468 -662 
Q 2681 -409 2681 141 
L 2681 166 
L 2681 556 
Q 2544 263 2306 119 
Q 2069 -25 1728 -25 
Q 1116 -25 750 465 
Q 384 956 384 1778 
Q 384 2603 750 3093 
Q 1116 3584 1728 3584 
Q 2066 3584 2300 3450 
Q 2534 3316 2681 3034 
L 2681 3488 
L 3256 3488 
L 3256 225 
z
" id="DejaVuSansMono-67" transform="scale(0.015625)"/>
      <path d="M 3284 2169 
L 3284 0 
L 2706 0 
L 2706 2169 
Q 2706 2641 2540 2862 
Q 2375 3084 2022 3084 
Q 1619 3084 1401 2798 
Q 1184 2513 1184 1978 
L 1184 0 
L 609 0 
L 609 4863 
L 1184 4863 
L 1184 2975 
Q 1338 3275 1600 3429 
Q 1863 3584 2222 3584 
Q 2756 3584 3020 3232 
Q 3284 2881 3284 2169 
z
" id="DejaVuSansMono-68" transform="scale(0.015625)"/>
      <path d="M 1919 4494 
L 1919 3500 
L 3225 3500 
L 3225 3053 
L 1919 3053 
L 1919 1153 
Q 1919 766 2066 612 
Q 2213 459 2578 459 
L 3225 459 
L 3225 0 
L 2522 0 
Q 1875 0 1609 259 
Q 1344 519 1344 1153 
L 1344 3053 
L 409 3053 
L 409 3500 
L 1344 3500 
L 1344 4494 
L 1919 4494 
z
" id="DejaVuSansMono-74" transform="scale(0.015625)"/>
      <path d="M 1528 953 
L 2316 953 
L 2316 0 
L 1528 0 
L 1528 953 
z
" id="DejaVuSansMono-2e" transform="scale(0.015625)"/>
      <path d="M 3475 1894 
L 3475 1613 
L 984 1613 
L 984 1594 
Q 984 1022 1282 709 
Q 1581 397 2125 397 
Q 2400 397 2700 484 
Q 3000 572 3341 750 
L 3341 178 
Q 3013 44 2708 -23 
Q 2403 -91 2119 -91 
Q 1303 -91 843 398 
Q 384 888 384 1747 
Q 384 2584 834 3084 
Q 1284 3584 2034 3584 
Q 2703 3584 3089 3131 
Q 3475 2678 3475 1894 
z
M 2900 2063 
Q 2888 2569 2661 2833 
Q 2434 3097 2009 3097 
Q 1594 3097 1325 2822 
Q 1056 2547 1006 2059 
L 2900 2063 
z
" id="DejaVuSansMono-65" transform="scale(0.015625)"/>
     </defs>
     <use xlink:href="#DejaVuSansMono-64"/>
     <use x="60.205078" xlink:href="#DejaVuSansMono-79"/>
     <use x="120.410156" xlink:href="#DejaVuSansMono-6e"/>
     <use x="180.615234" xlink:href="#DejaVuSansMono-6f"/>
     <use x="240.820312" xlink:href="#DejaVuSansMono-6d"/>
     <use x="301.025391" xlink:href="#DejaVuSansMono-69"/>
     <use x="361.230469" xlink:href="#DejaVuSansMono-67"/>
     <use x="421.435547" xlink:href="#DejaVuSansMono-68"/>
     <use x="481.640625" xlink:href="#DejaVuSansMono-74"/>
     <use x="541.845703" xlink:href="#DejaVuSansMono-2e"/>
     <use x="602.050781" xlink:href="#DejaVuSansMono-6e"/>
     <use x="662.255859" xlink:href="#DejaVuSansMono-65"/>
     <use x="722.460938" xlink:href="#DejaVuSansMono-74"/>
    </g>
   </a>
  </g>
 </g>
 <defs>
  <clipPath id="pa907d99d65">
   <rect height="194.04" width="139.5" x="245.33125" y="7.2"/>
  </clipPath>
 </defs>
</svg>
