<?xml version="1.0" encoding="utf-8" standalone="no"?>
<!DOCTYPE svg PUBLIC "-//W3C//DTD SVG 1.1//EN"
  "http://www.w3.org/Graphics/SVG/1.1/DTD/svg11.dtd">
<svg xmlns:xlink="http://www.w3.org/1999/xlink" width="509.04pt" height="152.64pt" viewBox="0 0 509.04 152.64" xmlns="http://www.w3.org/2000/svg" version="1.1">
 <metadata>
  <rdf:RDF xmlns:dc="http://purl.org/dc/elements/1.1/" xmlns:cc="http://creativecommons.org/ns#" xmlns:rdf="http://www.w3.org/1999/02/22-rdf-syntax-ns#">
   <cc:Work>
    <dc:type rdf:resource="http://purl.org/dc/dcmitype/StillImage"/>
    <dc:date>2024-02-28T17:27:18.426172</dc:date>
    <dc:format>image/svg+xml</dc:format>
    <dc:creator>
     <cc:Agent>
      <dc:title>Matplotlib v3.7.1, https://matplotlib.org/</dc:title>
     </cc:Agent>
    </dc:creator>
   </cc:Work>
  </rdf:RDF>
 </metadata>
 <defs>
  <style type="text/css">*{stroke-linejoin: round; stroke-linecap: butt}</style>
 </defs>
 <g id="figure_1">
  <g id="patch_1">
   <path d="M 0 152.64 
L 509.04 152.64 
L 509.04 0 
L 0 0 
z
" style="fill: #ffffff"/>
  </g>
  <g id="axes_1">
   <g id="patch_2">
    <path d="M 63.63 135.8496 
L 242.950909 135.8496 
L 242.950909 18.3168 
L 63.63 18.3168 
z
" style="fill: #ffffff"/>
   </g>
   <g id="matplotlib.axis_1"/>
   <g id="matplotlib.axis_2"/>
   <g id="line2d_1">
    <path d="M 63.63 25.838899 
L 65.423209 26.952717 
L 67.216418 28.04535 
L 69.009627 29.128405 
L 70.802836 30.213254 
L 72.596045 31.310926 
L 74.389255 32.43199 
L 76.182464 33.586453 
L 77.975673 34.783661 
L 79.768882 36.032203 
L 81.562091 37.339825 
L 83.3553 38.713356 
L 85.148509 40.158636 
L 86.941718 41.680461 
L 88.734927 43.282533 
L 90.528136 44.967421 
L 92.321345 46.736541 
L 94.114555 48.590137 
L 95.907764 50.527279 
L 97.700973 52.545876 
L 99.494182 54.642693 
L 101.287391 56.813383 
L 103.0806 59.052535 
L 104.873809 61.353724 
L 106.667018 63.709575 
L 108.460227 66.111841 
L 110.253436 68.551478 
L 112.046645 71.018744 
L 113.839855 73.50329 
L 115.633064 75.994266 
L 117.426273 78.48043 
L 119.219482 80.950256 
L 121.012691 83.392057 
L 122.8059 85.794093 
L 124.599109 88.144695 
L 126.392318 90.432378 
L 128.185527 92.645958 
L 129.978736 94.774662 
L 131.771945 96.808235 
L 133.565155 98.737045 
L 135.358364 100.552179 
L 137.151573 102.245528 
L 138.944782 103.809874 
L 140.737991 105.238957 
L 142.5312 106.527541 
L 144.324409 107.671465 
L 146.117618 108.667684 
L 147.910827 109.514299 
L 149.704036 110.210579 
L 151.497245 110.756966 
L 153.290455 111.155069 
L 155.083664 111.407651 
L 156.876873 111.518602 
L 158.670082 111.492895 
L 160.463291 111.336542 
L 162.2565 111.05653 
L 164.049709 110.660754 
L 165.842918 110.157935 
L 167.636127 109.557538 
L 169.429336 108.869671 
L 171.222545 108.104989 
L 173.015755 107.274585 
L 174.808964 106.389879 
L 176.602173 105.462507 
L 178.395382 104.504199 
L 180.188591 103.52667 
L 181.9818 102.541494 
L 183.775009 101.559994 
L 185.568218 100.593129 
L 187.361427 99.651381 
L 189.154636 98.744653 
L 190.947845 97.882168 
L 192.741055 97.072381 
L 194.534264 96.322889 
L 196.327473 95.640359 
L 198.120682 95.030459 
L 199.913891 94.497804 
L 201.7071 94.045907 
L 203.500309 93.677147 
L 205.293518 93.392741 
L 207.086727 93.192736 
L 208.879936 93.076008 
L 210.673145 93.040269 
L 212.466355 93.082096 
L 214.259564 93.19696 
L 216.052773 93.379274 
L 217.845982 93.62245 
L 219.639191 93.91896 
L 221.4324 94.260417 
L 223.225609 94.637654 
L 225.018818 95.040819 
L 226.812027 95.459473 
L 228.605236 95.88269 
L 230.398445 96.299173 
L 232.191655 96.697362 
L 233.984864 97.065552 
L 235.778073 97.392007 
L 237.571282 97.665081 
L 239.364491 97.873332 
L 241.1577 98.005636 
L 242.950909 98.0513 
" clip-path="url(#p62a488df98)" style="fill: none; stroke: #1f77b4; stroke-width: 1.5; stroke-linecap: square"/>
   </g>
  </g>
  <g id="axes_2">
   <g id="patch_3">
    <path d="M 278.815091 135.8496 
L 458.136 135.8496 
L 458.136 18.3168 
L 278.815091 18.3168 
z
" style="fill: #ffffff"/>
   </g>
   <g id="matplotlib.axis_3"/>
   <g id="matplotlib.axis_4"/>
   <g id="line2d_2">
    <path d="M 278.815091 25.838899 
L 280.6083 26.952717 
L 282.401509 28.04535 
L 284.194718 29.128405 
L 285.987927 30.213254 
L 287.781136 31.310926 
L 289.574345 32.43199 
L 291.367555 33.586453 
L 293.160764 34.783661 
L 294.953973 36.032203 
L 296.747182 37.339825 
L 298.540391 38.713356 
L 300.3336 40.158636 
L 302.126809 41.680461 
L 303.920018 43.282533 
L 305.713227 44.967421 
L 307.506436 46.736541 
L 309.299645 48.590137 
L 311.092855 50.527279 
L 312.886064 52.545876 
L 314.679273 54.642693 
L 316.472482 56.813383 
L 318.265691 59.052535 
L 320.0589 61.353724 
L 321.852109 63.709575 
L 323.645318 66.111841 
L 325.438527 68.551478 
L 327.231736 71.018744 
L 329.024945 73.50329 
L 330.818155 75.994266 
L 332.611364 78.48043 
L 334.404573 80.950256 
L 336.197782 83.392057 
L 337.990991 85.794093 
L 339.7842 88.144695 
L 341.577409 90.432378 
L 343.370618 92.645958 
L 345.163827 94.774662 
L 346.957036 96.808235 
L 348.750245 98.737045 
L 350.543455 100.552179 
L 352.336664 102.245528 
L 354.129873 103.809874 
L 355.923082 105.238957 
L 357.716291 106.527541 
L 359.5095 107.671465 
L 361.302709 108.667684 
L 363.095918 109.514299 
L 364.889127 110.210579 
L 366.682336 110.756966 
L 368.475545 111.155069 
L 370.268755 111.407651 
L 372.061964 111.518602 
L 373.855173 111.492895 
L 375.648382 111.336542 
L 377.441591 111.05653 
L 379.2348 110.660754 
L 381.028009 110.157935 
L 382.821218 109.557538 
L 384.614427 108.869671 
L 386.407636 108.104989 
L 388.200845 107.274585 
L 389.994055 106.389879 
L 391.787264 105.462507 
L 393.580473 104.504199 
L 395.373682 103.52667 
L 397.166891 102.541494 
L 398.9601 101.559994 
L 400.753309 100.593129 
L 402.546518 99.651381 
L 404.339727 98.744653 
L 406.132936 97.882168 
L 407.926145 97.072381 
L 409.719355 96.322889 
L 411.512564 95.640359 
L 413.305773 95.030459 
L 415.098982 94.497804 
L 416.892191 94.045907 
L 418.6854 93.677147 
L 420.478609 93.392741 
L 422.271818 93.192736 
L 424.065027 93.076008 
L 425.858236 93.040269 
L 427.651445 93.082096 
L 429.444655 93.19696 
L 431.237864 93.379274 
L 433.031073 93.62245 
L 434.824282 93.91896 
L 436.617491 94.260417 
L 438.4107 94.637654 
L 440.203909 95.040819 
L 441.997118 95.459473 
L 443.790327 95.88269 
L 445.583536 96.299173 
L 447.376745 96.697362 
L 449.169955 97.065552 
L 450.963164 97.392007 
L 452.756373 97.665081 
L 454.549582 97.873332 
L 456.342791 98.005636 
L 458.136 98.0513 
" clip-path="url(#p1b027ef727)" style="fill: none; stroke: #1f77b4; stroke-width: 1.5; stroke-linecap: square"/>
   </g>
   <g id="patch_4">
    <path d="M 278.815091 135.8496 
L 458.136 135.8496 
" style="fill: none; stroke: #777777; stroke-width: 0.8; stroke-linejoin: miter; stroke-linecap: square"/>
   </g>
  </g>
 </g>
 <defs>
  <clipPath id="p62a488df98">
   <rect x="63.63" y="18.3168" width="179.320909" height="117.5328"/>
  </clipPath>
  <clipPath id="p1b027ef727">
   <rect x="278.815091" y="18.3168" width="179.320909" height="117.5328"/>
  </clipPath>
 </defs>
</svg>
