<?xml version="1.0" encoding="utf-8" standalone="no"?>
<!DOCTYPE svg PUBLIC "-//W3C//DTD SVG 1.1//EN"
  "http://www.w3.org/Graphics/SVG/1.1/DTD/svg11.dtd">
<svg xmlns:xlink="http://www.w3.org/1999/xlink" width="360pt" height="216pt" viewBox="0 0 360 216" xmlns="http://www.w3.org/2000/svg" version="1.1">
 <metadata>
  <rdf:RDF xmlns:dc="http://purl.org/dc/elements/1.1/" xmlns:cc="http://creativecommons.org/ns#" xmlns:rdf="http://www.w3.org/1999/02/22-rdf-syntax-ns#">
   <cc:Work>
    <dc:type rdf:resource="http://purl.org/dc/dcmitype/StillImage"/>
    <dc:date>2024-02-28T17:27:18.628352</dc:date>
    <dc:format>image/svg+xml</dc:format>
    <dc:creator>
     <cc:Agent>
      <dc:title>Matplotlib v3.7.1, https://matplotlib.org/</dc:title>
     </cc:Agent>
    </dc:creator>
   </cc:Work>
  </rdf:RDF>
 </metadata>
 <defs>
  <style type="text/css">*{stroke-linejoin: round; stroke-linecap: butt}</style>
 </defs>
 <g id="figure_1">
  <g id="patch_1">
   <path d="M 0 216 
L 360 216 
L 360 0 
L 0 0 
z
" style="fill: #ffffff"/>
  </g>
  <g id="axes_1">
   <g id="patch_2">
    <path d="M 45 192.24 
L 324 192.24 
L 324 25.92 
L 45 25.92 
z
" style="fill: #ffffff"/>
   </g>
   <g id="patch_3">
    <path d="M 99.405 77.324565 
L 93.825 79.819365 
L 93.825 77.407725 
L 47.79 77.407725 
L 47.79 77.241405 
L 93.825 77.241405 
L 93.825 74.829765 
z
" clip-path="url(#pc7a9960e2f)" style="stroke: #000000; stroke-linejoin: miter"/>
   </g>
   <g id="patch_4">
    <path d="M 46.395 77.324565 
L 51.975 74.829765 
L 51.975 77.241405 
L 98.01 77.241405 
L 98.01 77.407725 
L 51.975 77.407725 
L 51.975 79.819365 
z
" clip-path="url(#pc7a9960e2f)" style="stroke: #000000; stroke-linejoin: miter"/>
   </g>
   <g id="patch_5">
    <path d="M 121.725 104.01409 
L 116.145 106.50889 
L 116.145 104.09725 
L 47.79 104.09725 
L 47.79 103.93093 
L 116.145 103.93093 
L 116.145 101.51929 
z
" clip-path="url(#pc7a9960e2f)" style="stroke: #000000; stroke-linejoin: miter"/>
   </g>
   <g id="patch_6">
    <path d="M 46.395 104.01409 
L 51.975 101.51929 
L 51.975 103.93093 
L 120.33 103.93093 
L 120.33 104.09725 
L 51.975 104.09725 
L 51.975 106.50889 
z
" clip-path="url(#pc7a9960e2f)" style="stroke: #000000; stroke-linejoin: miter"/>
   </g>
   <g id="patch_7">
    <path d="M 138.465 124.733059 
L 132.885 127.227859 
L 132.885 124.816219 
L 47.79 124.816219 
L 47.79 124.649899 
L 132.885 124.649899 
L 132.885 122.238259 
z
" clip-path="url(#pc7a9960e2f)" style="stroke: #000000; stroke-linejoin: miter"/>
   </g>
   <g id="patch_8">
    <path d="M 46.395 124.733059 
L 51.975 122.238259 
L 51.975 124.649899 
L 137.07 124.649899 
L 137.07 124.816219 
L 51.975 124.816219 
L 51.975 127.227859 
z
" clip-path="url(#pc7a9960e2f)" style="stroke: #000000; stroke-linejoin: miter"/>
   </g>
   <g id="patch_9">
    <path d="M 227.745 145.105887 
L 222.165 147.600687 
L 222.165 145.189047 
L 47.79 145.189047 
L 47.79 145.022727 
L 222.165 145.022727 
L 222.165 142.611087 
z
" clip-path="url(#pc7a9960e2f)" style="stroke: #000000; stroke-linejoin: miter"/>
   </g>
   <g id="patch_10">
    <path d="M 46.395 145.105887 
L 51.975 142.611087 
L 51.975 145.022727 
L 226.35 145.022727 
L 226.35 145.189047 
L 51.975 145.189047 
L 51.975 147.600687 
z
" clip-path="url(#pc7a9960e2f)" style="stroke: #000000; stroke-linejoin: miter"/>
   </g>
   <g id="matplotlib.axis_1"/>
   <g id="matplotlib.axis_2"/>
   <g id="line2d_1">
    <path d="M 45 36.56448 
L 47.79 38.140638 
L 50.58 39.686816 
L 53.37 41.219441 
L 56.16 42.754605 
L 58.95 44.307914 
L 61.74 45.894326 
L 64.53 47.528 
L 67.32 49.222162 
L 70.11 50.988966 
L 72.9 52.839375 
L 75.69 54.78305 
L 78.48 56.828259 
L 81.27 58.981785 
L 84.06 61.248867 
L 86.85 63.633143 
L 89.64 66.136615 
L 92.43 68.759628 
L 95.22 71.500867 
L 98.01 74.357372 
L 100.8 77.324565 
L 103.59 80.396297 
L 106.38 83.564909 
L 109.17 86.821308 
L 111.96 90.15506 
L 114.75 93.554491 
L 117.54 97.006808 
L 120.33 100.498223 
L 123.12 104.01409 
L 125.91 107.539056 
L 128.7 111.057212 
L 131.49 114.55225 
L 134.28 118.007628 
L 137.07 121.406735 
L 139.86 124.733059 
L 142.65 127.970347 
L 145.44 131.102771 
L 148.23 134.115087 
L 151.02 136.992785 
L 153.81 139.722234 
L 156.6 142.290819 
L 159.39 144.687068 
L 162.18 146.900765 
L 164.97 148.923053 
L 167.76 150.746521 
L 170.55 152.365281 
L 173.34 153.775024 
L 176.13 154.973064 
L 178.92 155.958367 
L 181.71 156.731555 
L 184.5 157.294909 
L 187.29 157.652337 
L 190.08 157.809343 
L 192.87 157.772965 
L 195.66 157.55171 
L 198.45 157.155467 
L 201.24 156.595406 
L 204.03 155.883871 
L 206.82 155.034252 
L 209.61 154.060856 
L 212.4 152.978759 
L 215.19 151.803658 
L 217.98 150.551716 
L 220.77 149.239396 
L 223.56 147.883301 
L 226.35 146.500004 
L 229.14 145.105887 
L 231.93 143.716973 
L 234.72 142.348768 
L 237.51 141.016105 
L 240.3 139.732999 
L 243.09 138.512502 
L 245.88 137.366577 
L 248.67 136.305975 
L 251.46 135.34013 
L 254.25 134.477064 
L 257.04 133.723307 
L 259.83 133.083831 
L 262.62 132.562 
L 265.41 132.159539 
L 268.2 131.876514 
L 270.99 131.711332 
L 273.78 131.660758 
L 276.57 131.719947 
L 279.36 131.88249 
L 282.15 132.140482 
L 284.94 132.484599 
L 287.73 132.904189 
L 290.52 133.387382 
L 293.31 133.921208 
L 296.1 134.491725 
L 298.89 135.084159 
L 301.68 135.683052 
L 304.47 136.272415 
L 307.26 136.83589 
L 310.05 137.356913 
L 312.84 137.818878 
L 315.63 138.205304 
L 318.42 138.499998 
L 321.21 138.68722 
L 324 138.751839 
" clip-path="url(#pc7a9960e2f)" style="fill: none; stroke: #1f77b4; stroke-width: 1.5; stroke-linecap: square"/>
   </g>
   <g id="patch_11">
    <path d="M 45 192.24 
L 45 25.92 
" style="fill: none; stroke: #777777; stroke-width: 0.8; stroke-linejoin: miter; stroke-linecap: square"/>
   </g>
  </g>
 </g>
 <defs>
  <clipPath id="pc7a9960e2f">
   <rect x="45" y="25.92" width="279" height="166.32"/>
  </clipPath>
 </defs>
</svg>
