<?xml version="1.0" encoding="utf-8" standalone="no"?>
<!DOCTYPE svg PUBLIC "-//W3C//DTD SVG 1.1//EN"
  "http://www.w3.org/Graphics/SVG/1.1/DTD/svg11.dtd">
<svg xmlns:xlink="http://www.w3.org/1999/xlink" width="360pt" height="216pt" viewBox="0 0 360 216" xmlns="http://www.w3.org/2000/svg" version="1.1">
 <metadata>
  <rdf:RDF xmlns:dc="http://purl.org/dc/elements/1.1/" xmlns:cc="http://creativecommons.org/ns#" xmlns:rdf="http://www.w3.org/1999/02/22-rdf-syntax-ns#">
   <cc:Work>
    <dc:type rdf:resource="http://purl.org/dc/dcmitype/StillImage"/>
    <dc:date>2024-02-28T17:27:19.721718</dc:date>
    <dc:format>image/svg+xml</dc:format>
    <dc:creator>
     <cc:Agent>
      <dc:title>Matplotlib v3.7.1, https://matplotlib.org/</dc:title>
     </cc:Agent>
    </dc:creator>
   </cc:Work>
  </rdf:RDF>
 </metadata>
 <defs>
  <style type="text/css">*{stroke-linejoin: round; stroke-linecap: butt}</style>
 </defs>
 <g id="figure_1">
  <g id="patch_1">
   <path d="M 0 216 
L 360 216 
L 360 0 
L 0 0 
z
" style="fill: #ffffff"/>
  </g>
  <g id="axes_1">
   <g id="patch_2">
    <path d="M 45 192.24 
L 324 192.24 
L 324 25.92 
L 45 25.92 
z
" style="fill: #ffffff"/>
   </g>
   <g id="matplotlib.axis_1">
    <g id="xtick_1">
     <g id="text_1">
      <!-- 1980 -->
      <g style="fill: #777777" transform="translate(33.65 206.660313) scale(0.1 -0.1)">
       <defs>
        <path id="Montserrat-Regular-31" d="M 1574 4480 
L 1574 0 
L 1114 0 
L 1114 4070 
L 58 4070 
L 58 4480 
L 1574 4480 
z
" transform="scale(0.015625)"/>
        <path id="Montserrat-Regular-39" d="M 1728 4518 
Q 2618 4518 3091 3932 
Q 3565 3347 3565 2278 
Q 3565 1530 3309 1011 
Q 3053 493 2592 227 
Q 2131 -38 1517 -38 
Q 851 -38 454 205 
L 640 576 
Q 960 365 1510 365 
Q 2253 365 2675 835 
Q 3098 1306 3098 2202 
Q 3098 2368 3078 2566 
Q 2912 2202 2547 2000 
Q 2182 1798 1709 1798 
Q 1267 1798 924 1964 
Q 582 2131 390 2435 
Q 198 2739 198 3142 
Q 198 3552 396 3865 
Q 595 4179 944 4348 
Q 1293 4518 1728 4518 
z
M 1779 2189 
Q 2118 2189 2377 2317 
Q 2637 2445 2784 2669 
Q 2931 2893 2931 3168 
Q 2931 3424 2793 3641 
Q 2656 3859 2387 3993 
Q 2118 4128 1747 4128 
Q 1261 4128 957 3862 
Q 653 3597 653 3155 
Q 653 2714 957 2451 
Q 1261 2189 1779 2189 
z
" transform="scale(0.015625)"/>
        <path id="Montserrat-Regular-38" d="M 2899 2349 
Q 3322 2208 3549 1926 
Q 3776 1645 3776 1248 
Q 3776 858 3565 566 
Q 3354 275 2960 118 
Q 2566 -38 2035 -38 
Q 1229 -38 768 307 
Q 307 653 307 1248 
Q 307 1651 528 1929 
Q 749 2208 1171 2349 
Q 826 2483 646 2736 
Q 467 2989 467 3334 
Q 467 3878 892 4198 
Q 1318 4518 2035 4518 
Q 2509 4518 2864 4374 
Q 3219 4230 3417 3961 
Q 3616 3693 3616 3334 
Q 3616 2989 3430 2736 
Q 3245 2483 2899 2349 
z
M 928 3322 
Q 928 2950 1222 2732 
Q 1517 2515 2035 2515 
Q 2554 2515 2851 2732 
Q 3149 2950 3149 3315 
Q 3149 3693 2845 3910 
Q 2541 4128 2035 4128 
Q 1523 4128 1225 3910 
Q 928 3693 928 3322 
z
M 2035 352 
Q 2630 352 2966 595 
Q 3302 838 3302 1254 
Q 3302 1670 2966 1910 
Q 2630 2150 2035 2150 
Q 1446 2150 1110 1910 
Q 774 1670 774 1254 
Q 774 832 1107 592 
Q 1440 352 2035 352 
z
" transform="scale(0.015625)"/>
        <path id="Montserrat-Regular-30" d="M 2118 -38 
Q 1600 -38 1193 237 
Q 787 512 560 1027 
Q 333 1542 333 2240 
Q 333 2938 560 3453 
Q 787 3968 1193 4243 
Q 1600 4518 2118 4518 
Q 2637 4518 3043 4243 
Q 3450 3968 3680 3453 
Q 3910 2938 3910 2240 
Q 3910 1542 3680 1027 
Q 3450 512 3043 237 
Q 2637 -38 2118 -38 
z
M 2118 384 
Q 2509 384 2806 601 
Q 3104 819 3270 1235 
Q 3437 1651 3437 2240 
Q 3437 2829 3270 3245 
Q 3104 3661 2806 3878 
Q 2509 4096 2118 4096 
Q 1728 4096 1430 3878 
Q 1133 3661 966 3245 
Q 800 2829 800 2240 
Q 800 1651 966 1235 
Q 1133 819 1430 601 
Q 1728 384 2118 384 
z
" transform="scale(0.015625)"/>
       </defs>
       <use xlink:href="#Montserrat-Regular-31"/>
       <use xlink:href="#Montserrat-Regular-39" x="36.099991"/>
       <use xlink:href="#Montserrat-Regular-38" x="96.999985"/>
       <use xlink:href="#Montserrat-Regular-30" x="160.799973"/>
      </g>
     </g>
    </g>
    <g id="xtick_2">
     <g id="text_2">
      <!-- 1990 -->
      <g style="fill: #777777" transform="translate(97.203622 206.660313) scale(0.1 -0.1)">
       <use xlink:href="#Montserrat-Regular-31"/>
       <use xlink:href="#Montserrat-Regular-39" x="36.099991"/>
       <use xlink:href="#Montserrat-Regular-39" x="96.999985"/>
       <use xlink:href="#Montserrat-Regular-30" x="157.899979"/>
      </g>
     </g>
    </g>
    <g id="xtick_3">
     <g id="text_3">
      <!-- 2000 -->
      <g style="fill: #777777" transform="translate(159.047869 206.660313) scale(0.1 -0.1)">
       <defs>
        <path id="Montserrat-Regular-32" d="M 3392 410 
L 3392 0 
L 250 0 
L 250 326 
L 2112 2150 
Q 2464 2496 2589 2749 
Q 2714 3002 2714 3258 
Q 2714 3654 2442 3875 
Q 2170 4096 1664 4096 
Q 877 4096 442 3597 
L 115 3878 
Q 378 4186 784 4352 
Q 1190 4518 1702 4518 
Q 2387 4518 2787 4195 
Q 3187 3872 3187 3309 
Q 3187 2963 3033 2643 
Q 2880 2323 2451 1907 
L 928 410 
L 3392 410 
z
" transform="scale(0.015625)"/>
       </defs>
       <use xlink:href="#Montserrat-Regular-32"/>
       <use xlink:href="#Montserrat-Regular-30" x="56.799988"/>
       <use xlink:href="#Montserrat-Regular-30" x="122.999985"/>
       <use xlink:href="#Montserrat-Regular-30" x="189.199982"/>
      </g>
     </g>
    </g>
    <g id="xtick_4">
     <g id="text_4">
      <!-- 2010 -->
      <g style="fill: #777777" transform="translate(223.962429 206.660313) scale(0.1 -0.1)">
       <use xlink:href="#Montserrat-Regular-32"/>
       <use xlink:href="#Montserrat-Regular-30" x="56.799988"/>
       <use xlink:href="#Montserrat-Regular-31" x="122.999985"/>
       <use xlink:href="#Montserrat-Regular-30" x="159.099976"/>
      </g>
     </g>
    </g>
    <g id="xtick_5">
     <g id="text_5">
      <!-- 2020 -->
      <g style="fill: #777777" transform="translate(286.336364 206.660313) scale(0.1 -0.1)">
       <use xlink:href="#Montserrat-Regular-32"/>
       <use xlink:href="#Montserrat-Regular-30" x="56.799988"/>
       <use xlink:href="#Montserrat-Regular-32" x="122.999985"/>
       <use xlink:href="#Montserrat-Regular-30" x="179.799973"/>
      </g>
     </g>
    </g>
   </g>
   <g id="matplotlib.axis_2">
    <g id="ytick_1">
     <g id="text_6">
      <!-- $50T -->
      <g style="fill: #777777" transform="translate(13.829687 195.969687) scale(0.1 -0.1)">
       <defs>
        <path id="Montserrat-Regular-24" d="M 3635 1184 
Q 3635 691 3257 348 
Q 2880 6 2150 -32 
L 2150 -768 
L 1830 -768 
L 1830 -38 
Q 1363 -13 950 144 
Q 538 301 301 544 
L 486 909 
Q 710 691 1072 544 
Q 1434 397 1830 371 
L 1830 2054 
Q 1389 2163 1094 2288 
Q 800 2413 605 2653 
Q 410 2893 410 3290 
Q 410 3782 768 4118 
Q 1126 4454 1830 4512 
L 1830 5248 
L 2150 5248 
L 2150 4518 
Q 2515 4506 2857 4400 
Q 3200 4294 3450 4122 
L 3290 3744 
Q 3027 3910 2732 4006 
Q 2438 4102 2150 4115 
L 2150 2419 
Q 2624 2304 2925 2185 
Q 3226 2067 3430 1824 
Q 3635 1581 3635 1184 
z
M 877 3302 
Q 877 2970 1123 2797 
Q 1370 2624 1830 2502 
L 1830 4102 
Q 1357 4064 1117 3843 
Q 877 3622 877 3302 
z
M 2150 371 
Q 2656 410 2912 621 
Q 3168 832 3168 1158 
Q 3168 1504 2905 1677 
Q 2643 1850 2150 1971 
L 2150 371 
z
" transform="scale(0.015625)"/>
        <path id="Montserrat-Regular-35" d="M 1510 2643 
Q 2483 2643 2928 2294 
Q 3373 1946 3373 1318 
Q 3373 928 3190 621 
Q 3008 314 2643 138 
Q 2278 -38 1747 -38 
Q 1267 -38 835 118 
Q 403 275 141 538 
L 365 902 
Q 589 672 953 528 
Q 1318 384 1741 384 
Q 2298 384 2602 633 
Q 2906 883 2906 1299 
Q 2906 1760 2563 1997 
Q 2221 2234 1408 2234 
L 454 2234 
L 685 4480 
L 3136 4480 
L 3136 4070 
L 1088 4070 
L 934 2643 
L 1510 2643 
z
" transform="scale(0.015625)"/>
        <path id="Montserrat-Regular-54" d="M 1600 4070 
L 26 4070 
L 26 4480 
L 3648 4480 
L 3648 4070 
L 2074 4070 
L 2074 0 
L 1600 0 
L 1600 4070 
z
" transform="scale(0.015625)"/>
       </defs>
       <use xlink:href="#Montserrat-Regular-24"/>
       <use xlink:href="#Montserrat-Regular-35" x="61.499985"/>
       <use xlink:href="#Montserrat-Regular-30" x="118.099976"/>
       <use xlink:href="#Montserrat-Regular-54" x="184.299973"/>
      </g>
     </g>
    </g>
    <g id="ytick_2">
     <g id="text_7">
      <!-- $51T -->
      <g style="fill: #777777" transform="translate(16.840625 141.084088) scale(0.1 -0.1)">
       <use xlink:href="#Montserrat-Regular-24"/>
       <use xlink:href="#Montserrat-Regular-35" x="61.499985"/>
       <use xlink:href="#Montserrat-Regular-31" x="118.099976"/>
       <use xlink:href="#Montserrat-Regular-54" x="154.199966"/>
      </g>
     </g>
    </g>
    <g id="ytick_3">
     <g id="text_8">
      <!-- $52T -->
      <g style="fill: #777777" transform="translate(14.770312 86.198487) scale(0.1 -0.1)">
       <use xlink:href="#Montserrat-Regular-24"/>
       <use xlink:href="#Montserrat-Regular-35" x="61.499985"/>
       <use xlink:href="#Montserrat-Regular-32" x="118.099976"/>
       <use xlink:href="#Montserrat-Regular-54" x="174.899963"/>
      </g>
     </g>
    </g>
    <g id="ytick_4">
     <g id="text_9">
      <!-- $53T -->
      <g style="fill: #777777" transform="translate(14.809375 29.649687) scale(0.1 -0.1)">
       <defs>
        <path id="Montserrat-Regular-33" d="M 1856 2560 
Q 2560 2522 2928 2179 
Q 3296 1837 3296 1286 
Q 3296 902 3110 604 
Q 2925 307 2560 134 
Q 2195 -38 1670 -38 
Q 1184 -38 752 118 
Q 320 275 58 538 
L 282 902 
Q 506 672 877 528 
Q 1248 384 1670 384 
Q 2221 384 2521 624 
Q 2822 864 2822 1286 
Q 2822 1702 2521 1939 
Q 2221 2176 1613 2176 
L 1293 2176 
L 1293 2515 
L 2534 4070 
L 243 4070 
L 243 4480 
L 3123 4480 
L 3123 4154 
L 1856 2560 
z
" transform="scale(0.015625)"/>
       </defs>
       <use xlink:href="#Montserrat-Regular-24"/>
       <use xlink:href="#Montserrat-Regular-35" x="61.499985"/>
       <use xlink:href="#Montserrat-Regular-33" x="118.099976"/>
       <use xlink:href="#Montserrat-Regular-54" x="174.499969"/>
      </g>
     </g>
    </g>
   </g>
   <g id="line2d_1">
    <path d="M 45 36.56448 
L 47.79 38.140638 
L 50.58 39.686816 
L 53.37 41.219441 
L 56.16 42.754605 
L 58.95 44.307914 
L 61.74 45.894326 
L 64.53 47.528 
L 67.32 49.222162 
L 70.11 50.988966 
L 72.9 52.839375 
L 75.69 54.78305 
L 78.48 56.828259 
L 81.27 58.981785 
L 84.06 61.248867 
L 86.85 63.633143 
L 89.64 66.136615 
L 92.43 68.759628 
L 95.22 71.500867 
L 98.01 74.357372 
L 100.8 77.324565 
L 103.59 80.396297 
L 106.38 83.564909 
L 109.17 86.821308 
L 111.96 90.15506 
L 114.75 93.554491 
L 117.54 97.006808 
L 120.33 100.498223 
L 123.12 104.01409 
L 125.91 107.539056 
L 128.7 111.057212 
L 131.49 114.55225 
L 134.28 118.007628 
L 137.07 121.406735 
L 139.86 124.733059 
L 142.65 127.970347 
L 145.44 131.102771 
L 148.23 134.115087 
L 151.02 136.992785 
L 153.81 139.722234 
L 156.6 142.290819 
L 159.39 144.687068 
L 162.18 146.900765 
L 164.97 148.923053 
L 167.76 150.746521 
L 170.55 152.365281 
L 173.34 153.775024 
L 176.13 154.973064 
L 178.92 155.958367 
L 181.71 156.731555 
L 184.5 157.294909 
L 187.29 157.652337 
L 190.08 157.809343 
L 192.87 157.772965 
L 195.66 157.55171 
L 198.45 157.155467 
L 201.24 156.595406 
L 204.03 155.883871 
L 206.82 155.034252 
L 209.61 154.060856 
L 212.4 152.978759 
L 215.19 151.803658 
L 217.98 150.551716 
L 220.77 149.239396 
L 223.56 147.883301 
L 226.35 146.500004 
L 229.14 145.105887 
L 231.93 143.716973 
L 234.72 142.348768 
L 237.51 141.016105 
L 240.3 139.732999 
L 243.09 138.512502 
L 245.88 137.366577 
L 248.67 136.305975 
L 251.46 135.34013 
L 254.25 134.477064 
L 257.04 133.723307 
L 259.83 133.083831 
L 262.62 132.562 
L 265.41 132.159539 
L 268.2 131.876514 
L 270.99 131.711332 
L 273.78 131.660758 
L 276.57 131.719947 
L 279.36 131.88249 
L 282.15 132.140482 
L 284.94 132.484599 
L 287.73 132.904189 
L 290.52 133.387382 
L 293.31 133.921208 
L 296.1 134.491725 
L 298.89 135.084159 
L 301.68 135.683052 
L 304.47 136.272415 
L 307.26 136.83589 
L 310.05 137.356913 
L 312.84 137.818878 
L 315.63 138.205304 
L 318.42 138.499998 
L 321.21 138.68722 
L 324 138.751839 
" clip-path="url(#pc3f1b01612)" style="fill: none; stroke: #1f77b4; stroke-width: 1.5; stroke-linecap: square"/>
   </g>
  </g>
 </g>
 <defs>
  <clipPath id="pc3f1b01612">
   <rect x="45" y="25.92" width="279" height="166.32"/>
  </clipPath>
 </defs>
</svg>
