<?xml version="1.0" encoding="utf-8" standalone="no"?>
<!DOCTYPE svg PUBLIC "-//W3C//DTD SVG 1.1//EN"
  "http://www.w3.org/Graphics/SVG/1.1/DTD/svg11.dtd">
<svg xmlns:xlink="http://www.w3.org/1999/xlink" width="720pt" height="432pt" viewBox="0 0 720 432" xmlns="http://www.w3.org/2000/svg" version="1.1">
 <metadata>
  <rdf:RDF xmlns:dc="http://purl.org/dc/elements/1.1/" xmlns:cc="http://creativecommons.org/ns#" xmlns:rdf="http://www.w3.org/1999/02/22-rdf-syntax-ns#">
   <cc:Work>
    <dc:type rdf:resource="http://purl.org/dc/dcmitype/StillImage"/>
    <dc:date>2022-06-05T19:17:41.681761</dc:date>
    <dc:format>image/svg+xml</dc:format>
    <dc:creator>
     <cc:Agent>
      <dc:title>Matplotlib v3.5.1, https://matplotlib.org/</dc:title>
     </cc:Agent>
    </dc:creator>
   </cc:Work>
  </rdf:RDF>
 </metadata>
 <defs>
  <style type="text/css">*{stroke-linejoin: round; stroke-linecap: butt}</style>
 </defs>
 <g id="figure_1">
  <g id="patch_1">
   <path d="M 0 432 
L 720 432 
L 720 0 
L 0 0 
z
" style="fill: #ffffff"/>
  </g>
  <g id="axes_1">
   <g id="patch_2">
    <path d="M 69.045 344.58 
L 687.536818 344.58 
L 687.536818 34.42 
L 69.045 34.42 
z
" style="fill: #ffffff"/>
   </g>
   <g id="matplotlib.axis_1">
    <g id="xtick_1">
     <g id="text_1">
      <!-- 0.0 -->
      <g style="fill: #262626" transform="translate(80.261233 370.404688)scale(0.22 -0.22)">
       <defs>
        <path id="Montserrat-Regular-30" d="M 2118 -38 
Q 1600 -38 1193 237 
Q 787 512 560 1027 
Q 333 1542 333 2240 
Q 333 2938 560 3453 
Q 787 3968 1193 4243 
Q 1600 4518 2118 4518 
Q 2637 4518 3043 4243 
Q 3450 3968 3680 3453 
Q 3910 2938 3910 2240 
Q 3910 1542 3680 1027 
Q 3450 512 3043 237 
Q 2637 -38 2118 -38 
z
M 2118 384 
Q 2509 384 2806 601 
Q 3104 819 3270 1235 
Q 3437 1651 3437 2240 
Q 3437 2829 3270 3245 
Q 3104 3661 2806 3878 
Q 2509 4096 2118 4096 
Q 1728 4096 1430 3878 
Q 1133 3661 966 3245 
Q 800 2829 800 2240 
Q 800 1651 966 1235 
Q 1133 819 1430 601 
Q 1728 384 2118 384 
z
" transform="scale(0.015625)"/>
        <path id="Montserrat-Regular-2e" d="M 678 -32 
Q 538 -32 438 70 
Q 339 173 339 320 
Q 339 467 438 566 
Q 538 666 678 666 
Q 819 666 921 566 
Q 1024 467 1024 320 
Q 1024 173 921 70 
Q 819 -32 678 -32 
z
" transform="scale(0.015625)"/>
       </defs>
       <use xlink:href="#Montserrat-Regular-30"/>
       <use xlink:href="#Montserrat-Regular-2e" x="66.199997"/>
       <use xlink:href="#Montserrat-Regular-30" x="87.399994"/>
      </g>
     </g>
    </g>
    <g id="xtick_2">
     <g id="text_2">
      <!-- 0.2 -->
      <g style="fill: #262626" transform="translate(193.748979 370.404688)scale(0.22 -0.22)">
       <defs>
        <path id="Montserrat-Regular-32" d="M 3392 410 
L 3392 0 
L 250 0 
L 250 326 
L 2112 2150 
Q 2464 2496 2589 2749 
Q 2714 3002 2714 3258 
Q 2714 3654 2442 3875 
Q 2170 4096 1664 4096 
Q 877 4096 442 3597 
L 115 3878 
Q 378 4186 784 4352 
Q 1190 4518 1702 4518 
Q 2387 4518 2787 4195 
Q 3187 3872 3187 3309 
Q 3187 2963 3033 2643 
Q 2880 2323 2451 1907 
L 928 410 
L 3392 410 
z
" transform="scale(0.015625)"/>
       </defs>
       <use xlink:href="#Montserrat-Regular-30"/>
       <use xlink:href="#Montserrat-Regular-2e" x="66.199997"/>
       <use xlink:href="#Montserrat-Regular-32" x="87.399994"/>
      </g>
     </g>
    </g>
    <g id="xtick_3">
     <g id="text_3">
      <!-- 0.4 -->
      <g style="fill: #262626" transform="translate(305.17938 370.404688)scale(0.22 -0.22)">
       <defs>
        <path id="Montserrat-Regular-34" d="M 4141 1178 
L 3245 1178 
L 3245 0 
L 2784 0 
L 2784 1178 
L 256 1178 
L 256 1510 
L 2630 4480 
L 3142 4480 
L 851 1587 
L 2797 1587 
L 2797 2624 
L 3245 2624 
L 3245 1587 
L 4141 1587 
L 4141 1178 
z
" transform="scale(0.015625)"/>
       </defs>
       <use xlink:href="#Montserrat-Regular-30"/>
       <use xlink:href="#Montserrat-Regular-2e" x="66.199997"/>
       <use xlink:href="#Montserrat-Regular-34" x="87.399994"/>
      </g>
     </g>
    </g>
    <g id="xtick_4">
     <g id="text_4">
      <!-- 0.6 -->
      <g style="fill: #262626" transform="translate(418.203063 370.404688)scale(0.22 -0.22)">
       <defs>
        <path id="Montserrat-Regular-36" d="M 2189 2682 
Q 2630 2682 2972 2515 
Q 3315 2349 3507 2045 
Q 3699 1741 3699 1338 
Q 3699 928 3500 614 
Q 3302 301 2953 131 
Q 2605 -38 2170 -38 
Q 1280 -38 806 547 
Q 333 1133 333 2202 
Q 333 2950 589 3468 
Q 845 3987 1305 4252 
Q 1766 4518 2381 4518 
Q 3046 4518 3443 4275 
L 3258 3904 
Q 2938 4115 2387 4115 
Q 1645 4115 1222 3644 
Q 800 3174 800 2278 
Q 800 2118 819 1914 
Q 986 2278 1350 2480 
Q 1715 2682 2189 2682 
z
M 2150 352 
Q 2637 352 2941 617 
Q 3245 883 3245 1325 
Q 3245 1766 2941 2028 
Q 2637 2291 2118 2291 
Q 1779 2291 1520 2163 
Q 1261 2035 1113 1811 
Q 966 1587 966 1312 
Q 966 1056 1104 838 
Q 1242 621 1510 486 
Q 1779 352 2150 352 
z
" transform="scale(0.015625)"/>
       </defs>
       <use xlink:href="#Montserrat-Regular-30"/>
       <use xlink:href="#Montserrat-Regular-2e" x="66.199997"/>
       <use xlink:href="#Montserrat-Regular-36" x="87.399994"/>
      </g>
     </g>
    </g>
    <g id="xtick_5">
     <g id="text_5">
      <!-- 0.8 -->
      <g style="fill: #262626" transform="translate(530.338152 370.404688)scale(0.22 -0.22)">
       <defs>
        <path id="Montserrat-Regular-38" d="M 2899 2349 
Q 3322 2208 3549 1926 
Q 3776 1645 3776 1248 
Q 3776 858 3565 566 
Q 3354 275 2960 118 
Q 2566 -38 2035 -38 
Q 1229 -38 768 307 
Q 307 653 307 1248 
Q 307 1651 528 1929 
Q 749 2208 1171 2349 
Q 826 2483 646 2736 
Q 467 2989 467 3334 
Q 467 3878 892 4198 
Q 1318 4518 2035 4518 
Q 2509 4518 2864 4374 
Q 3219 4230 3417 3961 
Q 3616 3693 3616 3334 
Q 3616 2989 3430 2736 
Q 3245 2483 2899 2349 
z
M 928 3322 
Q 928 2950 1222 2732 
Q 1517 2515 2035 2515 
Q 2554 2515 2851 2732 
Q 3149 2950 3149 3315 
Q 3149 3693 2845 3910 
Q 2541 4128 2035 4128 
Q 1523 4128 1225 3910 
Q 928 3693 928 3322 
z
M 2035 352 
Q 2630 352 2966 595 
Q 3302 838 3302 1254 
Q 3302 1670 2966 1910 
Q 2630 2150 2035 2150 
Q 1446 2150 1110 1910 
Q 774 1670 774 1254 
Q 774 832 1107 592 
Q 1440 352 2035 352 
z
" transform="scale(0.015625)"/>
       </defs>
       <use xlink:href="#Montserrat-Regular-30"/>
       <use xlink:href="#Montserrat-Regular-2e" x="66.199997"/>
       <use xlink:href="#Montserrat-Regular-38" x="87.399994"/>
      </g>
     </g>
    </g>
    <g id="xtick_6">
     <g id="text_6">
      <!-- 1.0 -->
      <g style="fill: #262626" transform="translate(645.838554 370.404688)scale(0.22 -0.22)">
       <defs>
        <path id="Montserrat-Regular-31" d="M 1574 4480 
L 1574 0 
L 1114 0 
L 1114 4070 
L 58 4070 
L 58 4480 
L 1574 4480 
z
" transform="scale(0.015625)"/>
       </defs>
       <use xlink:href="#Montserrat-Regular-31"/>
       <use xlink:href="#Montserrat-Regular-2e" x="36.099991"/>
       <use xlink:href="#Montserrat-Regular-30" x="57.299988"/>
      </g>
     </g>
    </g>
    <g id="text_7">
     <!-- fraction of people using speakers ($t$) -->
     <g style="fill: #262626" transform="translate(163.370909 396.674062)scale(0.24 -0.24)">
      <defs>
       <path id="Montserrat-Regular-66" d="M 1747 4397 
Q 1453 4397 1302 4237 
Q 1152 4077 1152 3763 
L 1152 3366 
L 2189 3366 
L 2189 2982 
L 1165 2982 
L 1165 0 
L 710 0 
L 710 2982 
L 109 2982 
L 109 3366 
L 710 3366 
L 710 3782 
Q 710 4243 976 4512 
Q 1242 4781 1728 4781 
Q 1920 4781 2099 4726 
Q 2278 4672 2400 4570 
L 2246 4230 
Q 2048 4397 1747 4397 
z
" transform="scale(0.015625)"/>
       <path id="Montserrat-Regular-72" d="M 1069 2707 
Q 1229 3046 1545 3219 
Q 1862 3392 2330 3392 
L 2330 2950 
L 2221 2957 
Q 1690 2957 1389 2630 
Q 1088 2304 1088 1715 
L 1088 0 
L 634 0 
L 634 3366 
L 1069 3366 
L 1069 2707 
z
" transform="scale(0.015625)"/>
       <path id="Montserrat-Regular-61" d="M 1811 3392 
Q 2470 3392 2822 3062 
Q 3174 2733 3174 2086 
L 3174 0 
L 2739 0 
L 2739 525 
Q 2586 262 2288 115 
Q 1990 -32 1581 -32 
Q 1018 -32 685 237 
Q 352 506 352 947 
Q 352 1376 662 1638 
Q 973 1901 1651 1901 
L 2720 1901 
L 2720 2106 
Q 2720 2541 2477 2768 
Q 2234 2995 1766 2995 
Q 1446 2995 1152 2889 
Q 858 2784 646 2598 
L 442 2938 
Q 698 3155 1056 3273 
Q 1414 3392 1811 3392 
z
M 1651 326 
Q 2035 326 2310 502 
Q 2586 678 2720 1011 
L 2720 1562 
L 1664 1562 
Q 800 1562 800 960 
Q 800 666 1024 496 
Q 1248 326 1651 326 
z
" transform="scale(0.015625)"/>
       <path id="Montserrat-Regular-63" d="M 2029 -32 
Q 1530 -32 1136 185 
Q 742 403 518 796 
Q 294 1190 294 1683 
Q 294 2176 518 2566 
Q 742 2957 1136 3174 
Q 1530 3392 2029 3392 
Q 2464 3392 2806 3222 
Q 3149 3053 3347 2726 
L 3008 2496 
Q 2842 2746 2586 2870 
Q 2330 2995 2029 2995 
Q 1664 2995 1373 2832 
Q 1082 2669 918 2368 
Q 755 2067 755 1683 
Q 755 1293 918 995 
Q 1082 698 1373 534 
Q 1664 371 2029 371 
Q 2330 371 2586 492 
Q 2842 614 3008 864 
L 3347 634 
Q 3149 307 2803 137 
Q 2458 -32 2029 -32 
z
" transform="scale(0.015625)"/>
       <path id="Montserrat-Regular-74" d="M 2406 205 
Q 2278 90 2089 29 
Q 1901 -32 1696 -32 
Q 1222 -32 966 224 
Q 710 480 710 947 
L 710 2982 
L 109 2982 
L 109 3366 
L 710 3366 
L 710 4102 
L 1165 4102 
L 1165 3366 
L 2189 3366 
L 2189 2982 
L 1165 2982 
L 1165 973 
Q 1165 672 1315 515 
Q 1466 358 1747 358 
Q 1888 358 2019 403 
Q 2150 448 2246 531 
L 2406 205 
z
" transform="scale(0.015625)"/>
       <path id="Montserrat-Regular-69" d="M 634 3366 
L 1088 3366 
L 1088 0 
L 634 0 
L 634 3366 
z
M 864 4102 
Q 723 4102 627 4198 
Q 531 4294 531 4429 
Q 531 4557 627 4653 
Q 723 4749 864 4749 
Q 1005 4749 1101 4656 
Q 1197 4563 1197 4435 
Q 1197 4294 1101 4198 
Q 1005 4102 864 4102 
z
" transform="scale(0.015625)"/>
       <path id="Montserrat-Regular-6f" d="M 2010 -32 
Q 1523 -32 1132 189 
Q 742 410 518 800 
Q 294 1190 294 1683 
Q 294 2176 518 2566 
Q 742 2957 1132 3174 
Q 1523 3392 2010 3392 
Q 2496 3392 2886 3174 
Q 3277 2957 3497 2566 
Q 3718 2176 3718 1683 
Q 3718 1190 3497 800 
Q 3277 410 2886 189 
Q 2496 -32 2010 -32 
z
M 2010 371 
Q 2368 371 2653 534 
Q 2938 698 3098 998 
Q 3258 1299 3258 1683 
Q 3258 2067 3098 2368 
Q 2938 2669 2653 2832 
Q 2368 2995 2010 2995 
Q 1651 2995 1366 2832 
Q 1082 2669 918 2368 
Q 755 2067 755 1683 
Q 755 1299 918 998 
Q 1082 698 1366 534 
Q 1651 371 2010 371 
z
" transform="scale(0.015625)"/>
       <path id="Montserrat-Regular-6e" d="M 2349 3392 
Q 2982 3392 3356 3024 
Q 3731 2656 3731 1952 
L 3731 0 
L 3277 0 
L 3277 1907 
Q 3277 2432 3014 2707 
Q 2752 2982 2266 2982 
Q 1722 2982 1405 2659 
Q 1088 2336 1088 1766 
L 1088 0 
L 634 0 
L 634 3366 
L 1069 3366 
L 1069 2746 
Q 1254 3053 1584 3222 
Q 1914 3392 2349 3392 
z
" transform="scale(0.015625)"/>
       <path id="Montserrat-Regular-20" transform="scale(0.015625)"/>
       <path id="Montserrat-Regular-70" d="M 2368 3392 
Q 2842 3392 3226 3177 
Q 3610 2963 3827 2572 
Q 4045 2182 4045 1683 
Q 4045 1178 3827 787 
Q 3610 397 3229 182 
Q 2848 -32 2368 -32 
Q 1958 -32 1628 137 
Q 1299 307 1088 634 
L 1088 -1242 
L 634 -1242 
L 634 3366 
L 1069 3366 
L 1069 2701 
Q 1274 3034 1610 3213 
Q 1946 3392 2368 3392 
z
M 2336 371 
Q 2688 371 2976 534 
Q 3264 698 3427 998 
Q 3590 1299 3590 1683 
Q 3590 2067 3427 2364 
Q 3264 2662 2976 2828 
Q 2688 2995 2336 2995 
Q 1978 2995 1693 2828 
Q 1408 2662 1245 2364 
Q 1082 2067 1082 1683 
Q 1082 1299 1245 998 
Q 1408 698 1693 534 
Q 1978 371 2336 371 
z
" transform="scale(0.015625)"/>
       <path id="Montserrat-Regular-65" d="M 3565 1542 
L 749 1542 
Q 787 1018 1152 694 
Q 1517 371 2074 371 
Q 2387 371 2649 483 
Q 2912 595 3104 813 
L 3360 518 
Q 3136 250 2800 109 
Q 2464 -32 2061 -32 
Q 1542 -32 1142 189 
Q 742 410 518 800 
Q 294 1190 294 1683 
Q 294 2176 508 2566 
Q 723 2957 1097 3174 
Q 1472 3392 1939 3392 
Q 2406 3392 2777 3174 
Q 3149 2957 3360 2569 
Q 3571 2182 3571 1683 
L 3565 1542 
z
M 1939 3002 
Q 1453 3002 1123 2691 
Q 794 2381 749 1882 
L 3136 1882 
Q 3091 2381 2761 2691 
Q 2432 3002 1939 3002 
z
" transform="scale(0.015625)"/>
       <path id="Montserrat-Regular-6c" d="M 634 4749 
L 1088 4749 
L 1088 0 
L 634 0 
L 634 4749 
z
" transform="scale(0.015625)"/>
       <path id="Montserrat-Regular-75" d="M 3667 3366 
L 3667 0 
L 3232 0 
L 3232 614 
Q 3053 307 2739 137 
Q 2426 -32 2022 -32 
Q 1363 -32 982 336 
Q 602 704 602 1414 
L 602 3366 
L 1056 3366 
L 1056 1459 
Q 1056 928 1318 653 
Q 1581 378 2067 378 
Q 2598 378 2905 701 
Q 3213 1024 3213 1600 
L 3213 3366 
L 3667 3366 
z
" transform="scale(0.015625)"/>
       <path id="Montserrat-Regular-73" d="M 1536 -32 
Q 1126 -32 752 86 
Q 378 205 166 384 
L 371 742 
Q 582 576 902 470 
Q 1222 365 1568 365 
Q 2029 365 2249 509 
Q 2470 653 2470 915 
Q 2470 1101 2348 1206 
Q 2227 1312 2041 1366 
Q 1856 1421 1549 1472 
Q 1139 1549 889 1629 
Q 640 1709 464 1901 
Q 288 2093 288 2432 
Q 288 2854 640 3123 
Q 992 3392 1619 3392 
Q 1946 3392 2272 3305 
Q 2598 3219 2810 3078 
L 2611 2714 
Q 2195 3002 1619 3002 
Q 1184 3002 963 2848 
Q 742 2694 742 2445 
Q 742 2253 867 2137 
Q 992 2022 1177 1968 
Q 1363 1914 1690 1856 
Q 2093 1779 2336 1702 
Q 2579 1626 2752 1440 
Q 2925 1254 2925 928 
Q 2925 486 2557 227 
Q 2189 -32 1536 -32 
z
" transform="scale(0.015625)"/>
       <path id="Montserrat-Regular-67" d="M 3750 3366 
L 3750 410 
Q 3750 -448 3331 -861 
Q 2912 -1274 2067 -1274 
Q 1600 -1274 1181 -1136 
Q 762 -998 499 -755 
L 730 -410 
Q 973 -627 1321 -748 
Q 1670 -870 2054 -870 
Q 2694 -870 2995 -572 
Q 3296 -275 3296 352 
L 3296 781 
Q 3085 461 2742 294 
Q 2400 128 1984 128 
Q 1510 128 1123 336 
Q 736 544 515 918 
Q 294 1293 294 1766 
Q 294 2240 515 2611 
Q 736 2982 1120 3187 
Q 1504 3392 1984 3392 
Q 2413 3392 2758 3219 
Q 3104 3046 3315 2720 
L 3315 3366 
L 3750 3366 
z
M 2029 531 
Q 2394 531 2688 688 
Q 2982 845 3145 1126 
Q 3309 1408 3309 1766 
Q 3309 2125 3145 2403 
Q 2982 2682 2691 2838 
Q 2400 2995 2029 2995 
Q 1664 2995 1373 2841 
Q 1082 2688 918 2406 
Q 755 2125 755 1766 
Q 755 1408 918 1126 
Q 1082 845 1373 688 
Q 1664 531 2029 531 
z
" transform="scale(0.015625)"/>
       <path id="Montserrat-Regular-6b" d="M 1882 1690 
L 1088 960 
L 1088 0 
L 634 0 
L 634 4749 
L 1088 4749 
L 1088 1530 
L 3098 3366 
L 3661 3366 
L 2221 1990 
L 3795 0 
L 3238 0 
L 1882 1690 
z
" transform="scale(0.015625)"/>
       <path id="Montserrat-Regular-28" d="M 1408 -1242 
Q 1050 -653 858 112 
Q 666 877 666 1754 
Q 666 2630 858 3401 
Q 1050 4173 1408 4749 
L 1843 4749 
Q 1466 4102 1290 3360 
Q 1114 2618 1114 1754 
Q 1114 890 1290 147 
Q 1466 -595 1843 -1242 
L 1408 -1242 
z
" transform="scale(0.015625)"/>
       <path id="DejaVuSans-Oblique-74" d="M 2706 3500 
L 2619 3053 
L 1472 3053 
L 1100 1153 
Q 1081 1047 1072 975 
Q 1063 903 1063 863 
Q 1063 663 1183 572 
Q 1303 481 1569 481 
L 2150 481 
L 2053 0 
L 1503 0 
Q 991 0 739 200 
Q 488 400 488 806 
Q 488 878 497 964 
Q 506 1050 525 1153 
L 897 3053 
L 409 3053 
L 500 3500 
L 978 3500 
L 1172 4494 
L 1747 4494 
L 1556 3500 
L 2706 3500 
z
" transform="scale(0.015625)"/>
       <path id="Montserrat-Regular-29" d="M 256 -1242 
Q 634 -595 813 144 
Q 992 883 992 1754 
Q 992 2624 813 3363 
Q 634 4102 256 4749 
L 691 4749 
Q 1050 4173 1245 3401 
Q 1440 2630 1440 1754 
Q 1440 877 1248 109 
Q 1056 -659 691 -1242 
L 256 -1242 
z
" transform="scale(0.015625)"/>
      </defs>
      <use xlink:href="#Montserrat-Regular-66" transform="translate(0 0.296875)"/>
      <use xlink:href="#Montserrat-Regular-72" transform="translate(33.899994 0.296875)"/>
      <use xlink:href="#Montserrat-Regular-61" transform="translate(73.999985 0.296875)"/>
      <use xlink:href="#Montserrat-Regular-63" transform="translate(132.999969 0.296875)"/>
      <use xlink:href="#Montserrat-Regular-74" transform="translate(189.299957 0.296875)"/>
      <use xlink:href="#Montserrat-Regular-69" transform="translate(229.899948 0.296875)"/>
      <use xlink:href="#Montserrat-Regular-6f" transform="translate(256.799942 0.296875)"/>
      <use xlink:href="#Montserrat-Regular-6e" transform="translate(319.499939 0.296875)"/>
      <use xlink:href="#Montserrat-Regular-20" transform="translate(387.199921 0.296875)"/>
      <use xlink:href="#Montserrat-Regular-6f" transform="translate(413.399918 0.296875)"/>
      <use xlink:href="#Montserrat-Regular-66" transform="translate(476.099915 0.296875)"/>
      <use xlink:href="#Montserrat-Regular-20" transform="translate(509.999908 0.296875)"/>
      <use xlink:href="#Montserrat-Regular-70" transform="translate(536.199905 0.296875)"/>
      <use xlink:href="#Montserrat-Regular-65" transform="translate(603.999893 0.296875)"/>
      <use xlink:href="#Montserrat-Regular-6f" transform="translate(664.399887 0.296875)"/>
      <use xlink:href="#Montserrat-Regular-70" transform="translate(727.099884 0.296875)"/>
      <use xlink:href="#Montserrat-Regular-6c" transform="translate(794.899872 0.296875)"/>
      <use xlink:href="#Montserrat-Regular-65" transform="translate(821.799866 0.296875)"/>
      <use xlink:href="#Montserrat-Regular-20" transform="translate(882.19986 0.296875)"/>
      <use xlink:href="#Montserrat-Regular-75" transform="translate(908.399857 0.296875)"/>
      <use xlink:href="#Montserrat-Regular-73" transform="translate(975.699844 0.296875)"/>
      <use xlink:href="#Montserrat-Regular-69" transform="translate(1024.599838 0.296875)"/>
      <use xlink:href="#Montserrat-Regular-6e" transform="translate(1051.499832 0.296875)"/>
      <use xlink:href="#Montserrat-Regular-67" transform="translate(1119.199814 0.296875)"/>
      <use xlink:href="#Montserrat-Regular-20" transform="translate(1187.799805 0.296875)"/>
      <use xlink:href="#Montserrat-Regular-73" transform="translate(1213.999802 0.296875)"/>
      <use xlink:href="#Montserrat-Regular-70" transform="translate(1262.899796 0.296875)"/>
      <use xlink:href="#Montserrat-Regular-65" transform="translate(1330.699783 0.296875)"/>
      <use xlink:href="#Montserrat-Regular-61" transform="translate(1391.099777 0.296875)"/>
      <use xlink:href="#Montserrat-Regular-6b" transform="translate(1450.099762 0.296875)"/>
      <use xlink:href="#Montserrat-Regular-65" transform="translate(1510.199753 0.296875)"/>
      <use xlink:href="#Montserrat-Regular-72" transform="translate(1570.599747 0.296875)"/>
      <use xlink:href="#Montserrat-Regular-73" transform="translate(1610.699738 0.296875)"/>
      <use xlink:href="#Montserrat-Regular-20" transform="translate(1659.599731 0.296875)"/>
      <use xlink:href="#Montserrat-Regular-28" transform="translate(1685.799728 0.296875)"/>
      <use xlink:href="#DejaVuSans-Oblique-74" transform="translate(1718.699722 0.296875)"/>
      <use xlink:href="#Montserrat-Regular-29" transform="translate(1757.908707 0.296875)"/>
     </g>
    </g>
   </g>
   <g id="matplotlib.axis_2">
    <g id="ytick_1">
     <g id="text_8">
      <!-- 0.0 -->
      <g style="fill: #262626" transform="translate(25.750937 352.742344)scale(0.22 -0.22)">
       <use xlink:href="#Montserrat-Regular-30"/>
       <use xlink:href="#Montserrat-Regular-2e" x="66.199997"/>
       <use xlink:href="#Montserrat-Regular-30" x="87.399994"/>
      </g>
     </g>
    </g>
    <g id="ytick_2">
     <g id="text_9">
      <!-- 0.2 -->
      <g style="fill: #262626" transform="translate(27.820312 290.710344)scale(0.22 -0.22)">
       <use xlink:href="#Montserrat-Regular-30"/>
       <use xlink:href="#Montserrat-Regular-2e" x="66.199997"/>
       <use xlink:href="#Montserrat-Regular-32" x="87.399994"/>
      </g>
     </g>
    </g>
    <g id="ytick_3">
     <g id="text_10">
      <!-- 0.4 -->
      <g style="fill: #262626" transform="translate(25.775 228.678344)scale(0.22 -0.22)">
       <use xlink:href="#Montserrat-Regular-30"/>
       <use xlink:href="#Montserrat-Regular-2e" x="66.199997"/>
       <use xlink:href="#Montserrat-Regular-34" x="87.399994"/>
      </g>
     </g>
    </g>
    <g id="ytick_4">
     <g id="text_11">
      <!-- 0.6 -->
      <g style="fill: #262626" transform="translate(26.91625 166.646344)scale(0.22 -0.22)">
       <use xlink:href="#Montserrat-Regular-30"/>
       <use xlink:href="#Montserrat-Regular-2e" x="66.199997"/>
       <use xlink:href="#Montserrat-Regular-36" x="87.399994"/>
      </g>
     </g>
    </g>
    <g id="ytick_5">
     <g id="text_12">
      <!-- 0.8 -->
      <g style="fill: #262626" transform="translate(26.280312 104.614344)scale(0.22 -0.22)">
       <use xlink:href="#Montserrat-Regular-30"/>
       <use xlink:href="#Montserrat-Regular-2e" x="66.199997"/>
       <use xlink:href="#Montserrat-Regular-38" x="87.399994"/>
      </g>
     </g>
    </g>
    <g id="ytick_6">
     <g id="text_13">
      <!-- 1.0 -->
      <g style="fill: #262626" transform="translate(32.375 42.582344)scale(0.22 -0.22)">
       <use xlink:href="#Montserrat-Regular-31"/>
       <use xlink:href="#Montserrat-Regular-2e" x="36.099991"/>
       <use xlink:href="#Montserrat-Regular-30" x="57.299988"/>
      </g>
     </g>
    </g>
   </g>
   <g id="line2d_1">
    <path d="M 97.158264 267.04 
L 99.969591 267.17504 
L 103.905448 267.120736 
L 118.524345 266.640918 
L 123.584733 266.809562 
L 128.082855 266.953899 
L 131.456447 266.787187 
L 134.830039 266.409928 
L 138.765896 265.757608 
L 146.075345 264.250556 
L 153.947059 262.562978 
L 157.32065 261.884733 
L 162.381038 260.573846 
L 168.565956 258.652629 
L 174.188609 256.990069 
L 179.811262 255.460929 
L 184.87165 253.785186 
L 189.932037 252.243206 
L 193.867894 251.295781 
L 197.241486 250.738465 
L 201.177343 250.383978 
L 203.988669 250.311548 
L 206.799996 250.492569 
L 209.049057 250.647362 
L 212.984914 250.658542 
L 220.294363 250.52048 
L 252.343484 249.562791 
L 278.207688 249.496457 
L 282.143545 249.616912 
L 286.641667 249.512408 
L 291.702055 249.148139 
L 299.011503 248.334418 
L 309.694544 246.931517 
L 316.441727 245.997409 
L 319.815319 245.791763 
L 323.751176 245.306681 
L 330.49836 244.368959 
L 333.309686 244.178889 
L 334.434217 244.149374 
L 336.683278 243.777827 
L 338.932339 243.147502 
L 341.1814 242.295623 
L 343.992726 240.976754 
L 347.366318 239.118959 
L 352.426706 236.035101 
L 362.547481 229.840977 
L 365.358807 228.408446 
L 367.607869 227.458291 
L 369.85693 226.709416 
L 374.917317 225.42283 
L 377.728644 224.890678 
L 380.53997 224.602778 
L 382.789031 224.5834 
L 385.038093 224.780497 
L 386.162623 224.887064 
L 388.97395 225.117025 
L 390.09848 225.16043 
L 403.030582 224.545592 
L 406.404174 224.47643 
L 410.340031 224.167319 
L 414.838153 223.593313 
L 423.272132 222.238099 
L 443.513683 218.707982 
L 453.634458 218.091671 
L 459.819376 217.822094 
L 485.121314 214.911524 
L 487.370375 214.973921 
L 490.181702 214.839936 
L 493.555293 214.464451 
L 497.49115 213.839329 
L 500.864742 213.144926 
L 505.362864 211.76313 
L 512.110048 209.411122 
L 516.60817 207.933675 
L 525.604415 205.94113 
L 527.853476 205.472692 
L 532.351598 204.563736 
L 537.974251 203.547719 
L 540.223312 203.292987 
L 541.910108 203.124637 
L 545.2837 202.232275 
L 549.781822 200.79114 
L 562.713924 196.282008 
L 566.649781 195.206353 
L 569.461107 194.635888 
L 582.393209 192.890456 
L 591.951719 191.53822 
L 595.887576 191.175781 
L 597.574372 190.99727 
L 606.008351 190.047174 
L 611.631004 189.681386 
L 618.378188 189.543824 
L 623.438575 189.589175 
L 628.498963 189.665191 
L 659.423554 189.5 
L 659.423554 189.5 
" clip-path="url(#p34e38feedd)" style="fill: none; stroke: #4c72b0; stroke-width: 1.5; stroke-linecap: round"/>
   </g>
   <g id="line2d_2">
    <path d="M 97.158264 344.58 
L 659.423554 34.42 
L 659.423554 34.42 
" clip-path="url(#p34e38feedd)" style="fill: none; stroke: #dd8452; stroke-width: 1.5; stroke-linecap: round"/>
   </g>
   <g id="line2d_3">
    <path d="M 97.158264 267.04 
L 98.84506 265.908 
L 100.531856 265.000433 
L 102.780917 264.091083 
L 105.029979 263.468534 
L 107.27904 263.075297 
L 110.090366 262.826549 
L 113.463958 262.764299 
L 128.645121 262.84865 
L 133.705508 262.206089 
L 141.577222 260.921835 
L 151.697998 259.285406 
L 157.32065 258.569198 
L 161.818773 258.207773 
L 165.75463 258.102271 
L 170.252752 258.237591 
L 174.188609 258.413339 
L 193.305629 258.463477 
L 200.052812 258.400235 
L 207.924526 258.094134 
L 221.418893 257.326047 
L 230.977403 256.375322 
L 239.411383 255.60509 
L 244.47177 255.345414 
L 247.845362 255.266596 
L 260.215198 254.589757 
L 270.335974 253.671873 
L 287.766198 251.551977 
L 292.826585 251.213197 
L 295.075646 251.215882 
L 302.385095 251.423765 
L 308.007748 251.251897 
L 313.630401 250.791584 
L 323.188911 249.71413 
L 328.811564 249.162273 
L 337.807808 248.490931 
L 350.73991 247.685189 
L 352.988971 247.778051 
L 355.238032 247.647897 
L 357.487093 247.320085 
L 360.29842 246.686673 
L 365.921073 245.100783 
L 368.732399 243.959619 
L 372.105991 242.337827 
L 383.913562 236.155178 
L 388.97395 233.364929 
L 395.158868 230.321495 
L 400.219255 229.001957 
L 403.592847 228.358741 
L 408.653235 227.537964 
L 414.275888 226.06732 
L 433.955173 221.730589 
L 439.577826 220.935364 
L 443.513683 220.575658 
L 446.325009 220.465876 
L 451.947662 221.292912 
L 454.758988 221.121318 
L 458.13258 220.653409 
L 461.506172 219.960668 
L 466.004294 218.77981 
L 472.751478 216.712742 
L 480.623192 214.349053 
L 484.559049 213.375983 
L 487.93264 212.762694 
L 492.430763 212.22916 
L 494.679824 212.097323 
L 498.053416 212.112999 
L 501.427007 212.356125 
L 503.676069 212.563285 
L 510.985517 212.219756 
L 524.479884 211.310691 
L 544.721435 209.052707 
L 561.027128 207.006688 
L 565.52525 206.673511 
L 576.770556 206.342769 
L 580.706413 206.628704 
L 582.955474 206.654491 
L 586.891331 206.42508 
L 591.389454 205.92565 
L 593.638515 205.724961 
L 598.136637 205.377525 
L 600.385698 204.968681 
L 603.197025 204.210053 
L 606.008351 203.225468 
L 609.381943 201.822069 
L 614.442331 199.455047 
L 620.064983 196.841953 
L 626.249902 194.395699 
L 629.623493 193.30639 
L 632.997085 192.480216 
L 638.057473 191.451422 
L 643.680126 190.544159 
L 648.740513 189.945013 
L 653.238636 189.610061 
L 657.736758 189.500271 
L 659.423554 189.527585 
L 659.423554 189.527585 
" clip-path="url(#p34e38feedd)" style="fill: none; stroke: #55a868; stroke-width: 1.5; stroke-linecap: round"/>
   </g>
   <g id="line2d_4">
    <path d="M 97.158264 267.04 
L 100.531856 265.597693 
L 104.467713 263.619655 
L 109.528101 260.77426 
L 125.271529 251.675707 
L 128.645121 250.01875 
L 133.705508 247.903243 
L 140.452692 245.78066 
L 145.513079 244.593899 
L 150.573467 243.239569 
L 154.509324 242.408057 
L 158.445181 241.845109 
L 161.256507 241.626084 
L 164.067834 241.625133 
L 168.565956 241.781605 
L 175.31314 241.473043 
L 191.618833 240.460227 
L 200.615078 239.525098 
L 211.860383 237.971321 
L 216.358506 237.383119 
L 226.479281 235.723475 
L 228.728342 235.429814 
L 232.664199 234.935109 
L 239.411383 233.770721 
L 244.47177 232.508067 
L 255.717076 229.674225 
L 259.090668 229.053527 
L 263.026525 228.53768 
L 268.086912 227.982803 
L 273.1473 227.378081 
L 277.083157 227.091051 
L 278.207688 227.17439 
L 282.143545 227.541226 
L 284.954871 227.606853 
L 288.328463 227.253067 
L 292.26432 226.583049 
L 299.011503 225.116583 
L 303.509626 223.913853 
L 314.754931 220.779931 
L 320.93985 219.253645 
L 324.875707 218.492958 
L 328.249298 218.059808 
L 330.49836 217.967564 
L 333.309686 218.032569 
L 334.434217 218.074744 
L 352.426706 216.381814 
L 359.173889 215.875245 
L 367.045603 215.595559 
L 370.419195 215.452672 
L 374.917317 215.324777 
L 379.41544 215.372986 
L 385.038093 215.170986 
L 387.849419 214.912749 
L 395.721133 213.919463 
L 412.589092 211.111024 
L 424.396663 209.055603 
L 428.894785 208.600002 
L 432.830642 208.264648 
L 439.01556 207.652172 
L 444.075948 207.373369 
L 449.698601 207.332856 
L 459.257111 207.417017 
L 466.56656 207.027465 
L 478.936396 206.054256 
L 489.619436 205.318647 
L 495.804355 205.095268 
L 500.864742 205.097877 
L 505.362864 205.306555 
L 511.547783 205.222868 
L 519.419497 204.865897 
L 526.728945 204.580013 
L 529.540272 204.654003 
L 532.351598 204.53404 
L 536.849721 204.079649 
L 539.661047 203.654602 
L 543.034639 202.915792 
L 546.970496 201.82443 
L 554.279945 199.496814 
L 567.212046 195.44463 
L 570.585638 194.663074 
L 573.95923 194.118499 
L 576.770556 193.88632 
L 579.581883 193.876364 
L 585.766801 194.087556 
L 590.827188 194.210686 
L 593.638515 194.276986 
L 605.446086 194.360432 
L 611.631004 194.305246 
L 624.563106 193.897321 
L 629.623493 193.35523 
L 635.246146 192.53789 
L 642.555595 191.197448 
L 648.740513 190.117055 
L 652.67637 189.648061 
L 655.487697 189.504073 
L 658.299023 189.581827 
L 659.423554 189.688592 
L 659.423554 189.688592 
" clip-path="url(#p34e38feedd)" style="fill: none; stroke: #c44e52; stroke-width: 1.5; stroke-linecap: round"/>
   </g>
   <g id="patch_3">
    <path d="M 69.045 344.58 
L 69.045 34.42 
" style="fill: none; stroke: #262626; stroke-width: 1.25; stroke-linejoin: miter; stroke-linecap: square"/>
   </g>
   <g id="patch_4">
    <path d="M 687.536818 344.58 
L 687.536818 34.42 
" style="fill: none; stroke: #262626; stroke-width: 1.25; stroke-linejoin: miter; stroke-linecap: square"/>
   </g>
   <g id="patch_5">
    <path d="M 69.045 344.58 
L 687.536818 344.58 
" style="fill: none; stroke: #262626; stroke-width: 1.25; stroke-linejoin: miter; stroke-linecap: square"/>
   </g>
   <g id="patch_6">
    <path d="M 69.045 34.42 
L 687.536818 34.42 
" style="fill: none; stroke: #262626; stroke-width: 1.25; stroke-linejoin: miter; stroke-linecap: square"/>
   </g>
   <g id="text_14">
    <!-- dynomight.net -->
    <g style="fill: #262626; opacity: 0.25" transform="translate(642.555595 348.14684)scale(0.06 -0.06)">
     <defs>
      <path id="DejaVuSansMono-64" d="M 2681 3053 
L 2681 4863 
L 3256 4863 
L 3256 0 
L 2681 0 
L 2681 441 
Q 2538 181 2298 45 
Q 2059 -91 1747 -91 
Q 1113 -91 748 401 
Q 384 894 384 1759 
Q 384 2613 750 3098 
Q 1116 3584 1747 3584 
Q 2063 3584 2303 3448 
Q 2544 3313 2681 3053 
z
M 991 1747 
Q 991 1078 1203 737 
Q 1416 397 1831 397 
Q 2247 397 2464 740 
Q 2681 1084 2681 1747 
Q 2681 2413 2464 2755 
Q 2247 3097 1831 3097 
Q 1416 3097 1203 2756 
Q 991 2416 991 1747 
z
" transform="scale(0.015625)"/>
      <path id="DejaVuSansMono-79" d="M 2681 1125 
Q 2538 759 2316 163 
Q 2006 -663 1900 -844 
Q 1756 -1088 1540 -1209 
Q 1325 -1331 1038 -1331 
L 575 -1331 
L 575 -850 
L 916 -850 
Q 1169 -850 1312 -703 
Q 1456 -556 1678 56 
L 325 3500 
L 934 3500 
L 1972 763 
L 2994 3500 
L 3603 3500 
L 2681 1125 
z
" transform="scale(0.015625)"/>
      <path id="DejaVuSansMono-6e" d="M 3284 2169 
L 3284 0 
L 2706 0 
L 2706 2169 
Q 2706 2641 2540 2862 
Q 2375 3084 2022 3084 
Q 1619 3084 1401 2798 
Q 1184 2513 1184 1978 
L 1184 0 
L 609 0 
L 609 3500 
L 1184 3500 
L 1184 2975 
Q 1338 3275 1600 3429 
Q 1863 3584 2222 3584 
Q 2756 3584 3020 3232 
Q 3284 2881 3284 2169 
z
" transform="scale(0.015625)"/>
      <path id="DejaVuSansMono-6f" d="M 1925 3097 
Q 1488 3097 1263 2756 
Q 1038 2416 1038 1747 
Q 1038 1081 1263 739 
Q 1488 397 1925 397 
Q 2366 397 2591 739 
Q 2816 1081 2816 1747 
Q 2816 2416 2591 2756 
Q 2366 3097 1925 3097 
z
M 1925 3584 
Q 2653 3584 3039 3112 
Q 3425 2641 3425 1747 
Q 3425 850 3040 379 
Q 2656 -91 1925 -91 
Q 1197 -91 812 379 
Q 428 850 428 1747 
Q 428 2641 812 3112 
Q 1197 3584 1925 3584 
z
" transform="scale(0.015625)"/>
      <path id="DejaVuSansMono-6d" d="M 2113 3144 
Q 2219 3369 2383 3476 
Q 2547 3584 2778 3584 
Q 3200 3584 3373 3257 
Q 3547 2931 3547 2028 
L 3547 0 
L 3022 0 
L 3022 2003 
Q 3022 2744 2939 2923 
Q 2856 3103 2638 3103 
Q 2388 3103 2295 2911 
Q 2203 2719 2203 2003 
L 2203 0 
L 1678 0 
L 1678 2003 
Q 1678 2753 1589 2928 
Q 1500 3103 1269 3103 
Q 1041 3103 952 2911 
Q 863 2719 863 2003 
L 863 0 
L 341 0 
L 341 3500 
L 863 3500 
L 863 3200 
Q 966 3388 1120 3486 
Q 1275 3584 1472 3584 
Q 1709 3584 1867 3475 
Q 2025 3366 2113 3144 
z
" transform="scale(0.015625)"/>
      <path id="DejaVuSansMono-69" d="M 800 3500 
L 2272 3500 
L 2272 447 
L 3413 447 
L 3413 0 
L 556 0 
L 556 447 
L 1697 447 
L 1697 3053 
L 800 3053 
L 800 3500 
z
M 1697 4863 
L 2272 4863 
L 2272 4134 
L 1697 4134 
L 1697 4863 
z
" transform="scale(0.015625)"/>
      <path id="DejaVuSansMono-67" d="M 2681 1778 
Q 2681 2425 2470 2761 
Q 2259 3097 1856 3097 
Q 1434 3097 1212 2761 
Q 991 2425 991 1778 
Q 991 1131 1214 792 
Q 1438 453 1863 453 
Q 2259 453 2470 793 
Q 2681 1134 2681 1778 
z
M 3256 225 
Q 3256 -563 2884 -969 
Q 2513 -1375 1791 -1375 
Q 1553 -1375 1293 -1331 
Q 1034 -1288 775 -1203 
L 775 -634 
Q 1081 -778 1331 -847 
Q 1581 -916 1791 -916 
Q 2256 -916 2468 -662 
Q 2681 -409 2681 141 
L 2681 166 
L 2681 556 
Q 2544 263 2306 119 
Q 2069 -25 1728 -25 
Q 1116 -25 750 465 
Q 384 956 384 1778 
Q 384 2603 750 3093 
Q 1116 3584 1728 3584 
Q 2066 3584 2300 3450 
Q 2534 3316 2681 3034 
L 2681 3488 
L 3256 3488 
L 3256 225 
z
" transform="scale(0.015625)"/>
      <path id="DejaVuSansMono-68" d="M 3284 2169 
L 3284 0 
L 2706 0 
L 2706 2169 
Q 2706 2641 2540 2862 
Q 2375 3084 2022 3084 
Q 1619 3084 1401 2798 
Q 1184 2513 1184 1978 
L 1184 0 
L 609 0 
L 609 4863 
L 1184 4863 
L 1184 2975 
Q 1338 3275 1600 3429 
Q 1863 3584 2222 3584 
Q 2756 3584 3020 3232 
Q 3284 2881 3284 2169 
z
" transform="scale(0.015625)"/>
      <path id="DejaVuSansMono-74" d="M 1919 4494 
L 1919 3500 
L 3225 3500 
L 3225 3053 
L 1919 3053 
L 1919 1153 
Q 1919 766 2066 612 
Q 2213 459 2578 459 
L 3225 459 
L 3225 0 
L 2522 0 
Q 1875 0 1609 259 
Q 1344 519 1344 1153 
L 1344 3053 
L 409 3053 
L 409 3500 
L 1344 3500 
L 1344 4494 
L 1919 4494 
z
" transform="scale(0.015625)"/>
      <path id="DejaVuSansMono-2e" d="M 1528 953 
L 2316 953 
L 2316 0 
L 1528 0 
L 1528 953 
z
" transform="scale(0.015625)"/>
      <path id="DejaVuSansMono-65" d="M 3475 1894 
L 3475 1613 
L 984 1613 
L 984 1594 
Q 984 1022 1282 709 
Q 1581 397 2125 397 
Q 2400 397 2700 484 
Q 3000 572 3341 750 
L 3341 178 
Q 3013 44 2708 -23 
Q 2403 -91 2119 -91 
Q 1303 -91 843 398 
Q 384 888 384 1747 
Q 384 2584 834 3084 
Q 1284 3584 2034 3584 
Q 2703 3584 3089 3131 
Q 3475 2678 3475 1894 
z
M 2900 2063 
Q 2888 2569 2661 2833 
Q 2434 3097 2009 3097 
Q 1594 3097 1325 2822 
Q 1056 2547 1006 2059 
L 2900 2063 
z
" transform="scale(0.015625)"/>
     </defs>
     <use xlink:href="#DejaVuSansMono-64"/>
     <use xlink:href="#DejaVuSansMono-79" x="60.205078"/>
     <use xlink:href="#DejaVuSansMono-6e" x="120.410156"/>
     <use xlink:href="#DejaVuSansMono-6f" x="180.615234"/>
     <use xlink:href="#DejaVuSansMono-6d" x="240.820312"/>
     <use xlink:href="#DejaVuSansMono-69" x="301.025391"/>
     <use xlink:href="#DejaVuSansMono-67" x="361.230469"/>
     <use xlink:href="#DejaVuSansMono-68" x="421.435547"/>
     <use xlink:href="#DejaVuSansMono-74" x="481.640625"/>
     <use xlink:href="#DejaVuSansMono-2e" x="541.845703"/>
     <use xlink:href="#DejaVuSansMono-6e" x="602.050781"/>
     <use xlink:href="#DejaVuSansMono-65" x="662.255859"/>
     <use xlink:href="#DejaVuSansMono-74" x="722.460938"/>
    </g>
   </g>
   <g id="legend_1">
    <g id="line2d_5">
     <path d="M 88.845 62.844687 
L 110.845 62.844687 
L 132.845 62.844687 
" style="fill: none; stroke: #4c72b0; stroke-width: 1.5; stroke-linecap: round"/>
    </g>
    <g id="text_15">
     <!-- $F_1(t)$ -->
     <g style="fill: #262626" transform="translate(150.445 70.544687)scale(0.22 -0.22)">
      <defs>
       <path id="DejaVuSans-Oblique-46" d="M 1081 4666 
L 3756 4666 
L 3653 4134 
L 1606 4134 
L 1338 2759 
L 3188 2759 
L 3084 2228 
L 1234 2228 
L 800 0 
L 172 0 
L 1081 4666 
z
" transform="scale(0.015625)"/>
       <path id="DejaVuSans-31" d="M 794 531 
L 1825 531 
L 1825 4091 
L 703 3866 
L 703 4441 
L 1819 4666 
L 2450 4666 
L 2450 531 
L 3481 531 
L 3481 0 
L 794 0 
L 794 531 
z
" transform="scale(0.015625)"/>
       <path id="DejaVuSans-28" d="M 1984 4856 
Q 1566 4138 1362 3434 
Q 1159 2731 1159 2009 
Q 1159 1288 1364 580 
Q 1569 -128 1984 -844 
L 1484 -844 
Q 1016 -109 783 600 
Q 550 1309 550 2009 
Q 550 2706 781 3412 
Q 1013 4119 1484 4856 
L 1984 4856 
z
" transform="scale(0.015625)"/>
       <path id="DejaVuSans-29" d="M 513 4856 
L 1013 4856 
Q 1481 4119 1714 3412 
Q 1947 2706 1947 2009 
Q 1947 1309 1714 600 
Q 1481 -109 1013 -844 
L 513 -844 
Q 928 -128 1133 580 
Q 1338 1288 1338 2009 
Q 1338 2731 1133 3434 
Q 928 4138 513 4856 
z
" transform="scale(0.015625)"/>
      </defs>
      <use xlink:href="#DejaVuSans-Oblique-46" transform="translate(0 0.125)"/>
      <use xlink:href="#DejaVuSans-31" transform="translate(57.519531 -16.28125)scale(0.7)"/>
      <use xlink:href="#DejaVuSans-28" transform="translate(104.790039 0.125)"/>
      <use xlink:href="#DejaVuSans-Oblique-74" transform="translate(143.803711 0.125)"/>
      <use xlink:href="#DejaVuSans-29" transform="translate(183.012695 0.125)"/>
     </g>
    </g>
    <g id="line2d_6">
     <path d="M 88.845 94.43875 
L 110.845 94.43875 
L 132.845 94.43875 
" style="fill: none; stroke: #55a868; stroke-width: 1.5; stroke-linecap: round"/>
    </g>
    <g id="text_16">
     <!-- $F_2(t)$ -->
     <g style="fill: #262626" transform="translate(150.445 102.13875)scale(0.22 -0.22)">
      <defs>
       <path id="DejaVuSans-32" d="M 1228 531 
L 3431 531 
L 3431 0 
L 469 0 
L 469 531 
Q 828 903 1448 1529 
Q 2069 2156 2228 2338 
Q 2531 2678 2651 2914 
Q 2772 3150 2772 3378 
Q 2772 3750 2511 3984 
Q 2250 4219 1831 4219 
Q 1534 4219 1204 4116 
Q 875 4013 500 3803 
L 500 4441 
Q 881 4594 1212 4672 
Q 1544 4750 1819 4750 
Q 2544 4750 2975 4387 
Q 3406 4025 3406 3419 
Q 3406 3131 3298 2873 
Q 3191 2616 2906 2266 
Q 2828 2175 2409 1742 
Q 1991 1309 1228 531 
z
" transform="scale(0.015625)"/>
      </defs>
      <use xlink:href="#DejaVuSans-Oblique-46" transform="translate(0 0.125)"/>
      <use xlink:href="#DejaVuSans-32" transform="translate(57.519531 -16.28125)scale(0.7)"/>
      <use xlink:href="#DejaVuSans-28" transform="translate(104.790039 0.125)"/>
      <use xlink:href="#DejaVuSans-Oblique-74" transform="translate(143.803711 0.125)"/>
      <use xlink:href="#DejaVuSans-29" transform="translate(183.012695 0.125)"/>
     </g>
    </g>
    <g id="line2d_7">
     <path d="M 88.845 126.11875 
L 110.845 126.11875 
L 132.845 126.11875 
" style="fill: none; stroke: #c44e52; stroke-width: 1.5; stroke-linecap: round"/>
    </g>
    <g id="text_17">
     <!-- $F_3(t)$ -->
     <g style="fill: #262626" transform="translate(150.445 133.81875)scale(0.22 -0.22)">
      <defs>
       <path id="DejaVuSans-33" d="M 2597 2516 
Q 3050 2419 3304 2112 
Q 3559 1806 3559 1356 
Q 3559 666 3084 287 
Q 2609 -91 1734 -91 
Q 1441 -91 1130 -33 
Q 819 25 488 141 
L 488 750 
Q 750 597 1062 519 
Q 1375 441 1716 441 
Q 2309 441 2620 675 
Q 2931 909 2931 1356 
Q 2931 1769 2642 2001 
Q 2353 2234 1838 2234 
L 1294 2234 
L 1294 2753 
L 1863 2753 
Q 2328 2753 2575 2939 
Q 2822 3125 2822 3475 
Q 2822 3834 2567 4026 
Q 2313 4219 1838 4219 
Q 1578 4219 1281 4162 
Q 984 4106 628 3988 
L 628 4550 
Q 988 4650 1302 4700 
Q 1616 4750 1894 4750 
Q 2613 4750 3031 4423 
Q 3450 4097 3450 3541 
Q 3450 3153 3228 2886 
Q 3006 2619 2597 2516 
z
" transform="scale(0.015625)"/>
      </defs>
      <use xlink:href="#DejaVuSans-Oblique-46" transform="translate(0 0.125)"/>
      <use xlink:href="#DejaVuSans-33" transform="translate(57.519531 -16.28125)scale(0.7)"/>
      <use xlink:href="#DejaVuSans-28" transform="translate(104.790039 0.125)"/>
      <use xlink:href="#DejaVuSans-Oblique-74" transform="translate(143.803711 0.125)"/>
      <use xlink:href="#DejaVuSans-29" transform="translate(183.012695 0.125)"/>
     </g>
    </g>
   </g>
  </g>
 </g>
 <defs>
  <clipPath id="p34e38feedd">
   <rect x="69.045" y="34.42" width="618.491818" height="310.16"/>
  </clipPath>
 </defs>
</svg>
