<?xml version="1.0" encoding="utf-8" standalone="no"?>
<!DOCTYPE svg PUBLIC "-//W3C//DTD SVG 1.1//EN"
  "http://www.w3.org/Graphics/SVG/1.1/DTD/svg11.dtd">
<svg xmlns:xlink="http://www.w3.org/1999/xlink" width="460.8pt" height="345.6pt" viewBox="0 0 460.8 345.6" xmlns="http://www.w3.org/2000/svg" version="1.1">
 <metadata>
  <rdf:RDF xmlns:dc="http://purl.org/dc/elements/1.1/" xmlns:cc="http://creativecommons.org/ns#" xmlns:rdf="http://www.w3.org/1999/02/22-rdf-syntax-ns#">
   <cc:Work>
    <dc:type rdf:resource="http://purl.org/dc/dcmitype/StillImage"/>
    <dc:date>2024-06-26T15:10:20.389422</dc:date>
    <dc:format>image/svg+xml</dc:format>
    <dc:creator>
     <cc:Agent>
      <dc:title>Matplotlib v3.8.4, https://matplotlib.org/</dc:title>
     </cc:Agent>
    </dc:creator>
   </cc:Work>
  </rdf:RDF>
 </metadata>
 <defs>
  <style type="text/css">*{stroke-linejoin: round; stroke-linecap: butt}</style>
 </defs>
 <g id="figure_1">
  <g id="patch_1">
   <path d="M 0 345.6 
L 460.8 345.6 
L 460.8 0 
L 0 0 
z
" style="fill: #ffffff"/>
  </g>
  <g id="axes_1">
   <g id="patch_2">
    <path d="M 57.6 307.584 
L 414.72 307.584 
L 414.72 41.472 
L 57.6 41.472 
z
" style="fill: #ffffff"/>
   </g>
   <g id="matplotlib.axis_1">
    <g id="xtick_1">
     <g id="line2d_1">
      <defs>
       <path id="m4520b3965f" d="M 0 0 
L 0 3.5 
" style="stroke: #000000; stroke-width: 0.8"/>
      </defs>
      <g>
       <use xlink:href="#m4520b3965f" x="58.312814" y="307.584" style="stroke: #000000; stroke-width: 0.8"/>
      </g>
     </g>
     <g id="text_1">
      <!-- 0.00 -->
      <g transform="translate(42.925939 324.972437) scale(0.14 -0.14)">
       <defs>
        <path id="Montserrat-Regular-30" d="M 2118 -38 
Q 1600 -38 1197 234 
Q 794 506 563 1014 
Q 333 1523 333 2240 
Q 333 2957 563 3465 
Q 794 3974 1197 4246 
Q 1600 4518 2118 4518 
Q 2637 4518 3040 4246 
Q 3443 3974 3676 3465 
Q 3910 2957 3910 2240 
Q 3910 1523 3676 1014 
Q 3443 506 3040 234 
Q 2637 -38 2118 -38 
z
M 2118 384 
Q 2515 384 2809 598 
Q 3104 813 3270 1225 
Q 3437 1638 3437 2240 
Q 3437 2842 3270 3254 
Q 3104 3667 2809 3881 
Q 2515 4096 2118 4096 
Q 1734 4096 1433 3881 
Q 1133 3667 966 3254 
Q 800 2842 800 2240 
Q 800 1638 966 1225 
Q 1133 813 1433 598 
Q 1734 384 2118 384 
z
" transform="scale(0.015625)"/>
        <path id="Montserrat-Regular-2e" d="M 678 -32 
Q 538 -32 438 70 
Q 339 173 339 320 
Q 339 474 438 570 
Q 538 666 678 666 
Q 819 666 918 570 
Q 1018 474 1018 320 
Q 1018 173 918 70 
Q 819 -32 678 -32 
z
" transform="scale(0.015625)"/>
       </defs>
       <use xlink:href="#Montserrat-Regular-30"/>
       <use xlink:href="#Montserrat-Regular-2e" x="66.199997"/>
       <use xlink:href="#Montserrat-Regular-30" x="87.399994"/>
       <use xlink:href="#Montserrat-Regular-30" x="153.599991"/>
      </g>
     </g>
    </g>
    <g id="xtick_2">
     <g id="line2d_2">
      <g>
       <use xlink:href="#m4520b3965f" x="129.594251" y="307.584" style="stroke: #000000; stroke-width: 0.8"/>
      </g>
     </g>
     <g id="text_2">
      <!-- 0.01 -->
      <g transform="translate(116.315033 324.972437) scale(0.14 -0.14)">
       <defs>
        <path id="Montserrat-Regular-31" d="M 1114 0 
L 1114 4288 
L 1318 4070 
L 58 4070 
L 58 4480 
L 1574 4480 
L 1574 0 
L 1114 0 
z
" transform="scale(0.015625)"/>
       </defs>
       <use xlink:href="#Montserrat-Regular-30"/>
       <use xlink:href="#Montserrat-Regular-2e" x="66.199997"/>
       <use xlink:href="#Montserrat-Regular-30" x="87.399994"/>
       <use xlink:href="#Montserrat-Regular-31" x="153.599991"/>
      </g>
     </g>
    </g>
    <g id="xtick_3">
     <g id="line2d_3">
      <g>
       <use xlink:href="#m4520b3965f" x="200.875689" y="307.584" style="stroke: #000000; stroke-width: 0.8"/>
      </g>
     </g>
     <g id="text_3">
      <!-- 0.02 -->
      <g transform="translate(186.147251 324.972437) scale(0.14 -0.14)">
       <defs>
        <path id="Montserrat-Regular-32" d="M 250 0 
L 250 326 
L 2112 2150 
Q 2368 2400 2496 2589 
Q 2624 2778 2669 2944 
Q 2714 3110 2714 3258 
Q 2714 3648 2448 3872 
Q 2182 4096 1664 4096 
Q 1267 4096 963 3974 
Q 659 3853 442 3597 
L 115 3878 
Q 378 4186 787 4352 
Q 1197 4518 1702 4518 
Q 2157 4518 2489 4374 
Q 2822 4230 3004 3955 
Q 3187 3680 3187 3309 
Q 3187 3091 3126 2880 
Q 3066 2669 2909 2435 
Q 2752 2202 2451 1907 
L 742 230 
L 614 410 
L 3392 410 
L 3392 0 
L 250 0 
z
" transform="scale(0.015625)"/>
       </defs>
       <use xlink:href="#Montserrat-Regular-30"/>
       <use xlink:href="#Montserrat-Regular-2e" x="66.199997"/>
       <use xlink:href="#Montserrat-Regular-30" x="87.399994"/>
       <use xlink:href="#Montserrat-Regular-32" x="153.599991"/>
      </g>
     </g>
    </g>
    <g id="xtick_4">
     <g id="line2d_4">
      <g>
       <use xlink:href="#m4520b3965f" x="272.157126" y="307.584" style="stroke: #000000; stroke-width: 0.8"/>
      </g>
     </g>
     <g id="text_4">
      <!-- 0.03 -->
      <g transform="translate(257.456032 324.972437) scale(0.14 -0.14)">
       <defs>
        <path id="Montserrat-Regular-33" d="M 1670 -38 
Q 1184 -38 752 118 
Q 320 275 58 538 
L 282 902 
Q 499 678 867 531 
Q 1235 384 1670 384 
Q 2227 384 2524 627 
Q 2822 870 2822 1280 
Q 2822 1690 2531 1933 
Q 2240 2176 1613 2176 
L 1293 2176 
L 1293 2515 
L 2675 4250 
L 2739 4070 
L 243 4070 
L 243 4480 
L 3123 4480 
L 3123 4154 
L 1741 2419 
L 1517 2566 
L 1690 2566 
Q 2496 2566 2896 2208 
Q 3296 1850 3296 1286 
Q 3296 909 3117 608 
Q 2938 307 2576 134 
Q 2214 -38 1670 -38 
z
" transform="scale(0.015625)"/>
       </defs>
       <use xlink:href="#Montserrat-Regular-30"/>
       <use xlink:href="#Montserrat-Regular-2e" x="66.199997"/>
       <use xlink:href="#Montserrat-Regular-30" x="87.399994"/>
       <use xlink:href="#Montserrat-Regular-33" x="153.599991"/>
      </g>
     </g>
    </g>
    <g id="xtick_5">
     <g id="line2d_5">
      <g>
       <use xlink:href="#m4520b3965f" x="343.438563" y="307.584" style="stroke: #000000; stroke-width: 0.8"/>
      </g>
     </g>
     <g id="text_5">
      <!-- 0.04 -->
      <g transform="translate(328.059344 324.972437) scale(0.14 -0.14)">
       <defs>
        <path id="Montserrat-Regular-34" d="M 256 1178 
L 256 1510 
L 2630 4480 
L 3142 4480 
L 787 1510 
L 538 1587 
L 4141 1587 
L 4141 1178 
L 256 1178 
z
M 2784 0 
L 2784 1178 
L 2797 1587 
L 2797 2624 
L 3245 2624 
L 3245 0 
L 2784 0 
z
" transform="scale(0.015625)"/>
       </defs>
       <use xlink:href="#Montserrat-Regular-30"/>
       <use xlink:href="#Montserrat-Regular-2e" x="66.199997"/>
       <use xlink:href="#Montserrat-Regular-30" x="87.399994"/>
       <use xlink:href="#Montserrat-Regular-34" x="153.599991"/>
      </g>
     </g>
    </g>
    <g id="xtick_6">
     <g id="line2d_6">
      <g>
       <use xlink:href="#m4520b3965f" x="414.72" y="307.584" style="stroke: #000000; stroke-width: 0.8"/>
      </g>
     </g>
     <g id="text_6">
      <!-- 0.05 -->
      <g transform="translate(400.005781 324.972437) scale(0.14 -0.14)">
       <defs>
        <path id="Montserrat-Regular-35" d="M 1747 -38 
Q 1267 -38 832 118 
Q 397 275 141 538 
L 365 902 
Q 576 678 944 531 
Q 1312 384 1741 384 
Q 2310 384 2608 637 
Q 2906 890 2906 1299 
Q 2906 1587 2768 1795 
Q 2630 2003 2304 2118 
Q 1978 2234 1408 2234 
L 454 2234 
L 685 4480 
L 3136 4480 
L 3136 4070 
L 870 4070 
L 1107 4294 
L 909 2413 
L 672 2643 
L 1510 2643 
Q 2189 2643 2598 2476 
Q 3008 2310 3190 2012 
Q 3373 1715 3373 1318 
Q 3373 941 3193 630 
Q 3014 320 2656 141 
Q 2298 -38 1747 -38 
z
" transform="scale(0.015625)"/>
       </defs>
       <use xlink:href="#Montserrat-Regular-30"/>
       <use xlink:href="#Montserrat-Regular-2e" x="66.199997"/>
       <use xlink:href="#Montserrat-Regular-30" x="87.399994"/>
       <use xlink:href="#Montserrat-Regular-35" x="153.599991"/>
      </g>
     </g>
    </g>
    <g id="text_7">
     <!-- Yearly probability of nuclear war -->
     <g transform="translate(123.408594 342.14775) scale(0.14 -0.14)">
      <defs>
       <path id="Montserrat-Regular-59" d="M 1798 0 
L 1798 1664 
L 1907 1370 
L 6 4480 
L 512 4480 
L 2182 1747 
L 1914 1747 
L 3584 4480 
L 4058 4480 
L 2157 1370 
L 2266 1664 
L 2266 0 
L 1798 0 
z
" transform="scale(0.015625)"/>
       <path id="Montserrat-Regular-65" d="M 2061 -32 
Q 1536 -32 1139 189 
Q 742 410 518 797 
Q 294 1184 294 1683 
Q 294 2182 508 2566 
Q 723 2950 1097 3171 
Q 1472 3392 1939 3392 
Q 2413 3392 2781 3177 
Q 3149 2963 3360 2576 
Q 3571 2189 3571 1683 
Q 3571 1651 3568 1616 
Q 3565 1581 3565 1542 
L 640 1542 
L 640 1882 
L 3322 1882 
L 3142 1747 
Q 3142 2112 2985 2397 
Q 2829 2682 2560 2842 
Q 2291 3002 1939 3002 
Q 1594 3002 1318 2842 
Q 1043 2682 889 2394 
Q 736 2106 736 1734 
L 736 1664 
Q 736 1280 905 989 
Q 1075 698 1379 534 
Q 1683 371 2074 371 
Q 2381 371 2646 480 
Q 2912 589 3104 813 
L 3360 518 
Q 3136 250 2800 109 
Q 2464 -32 2061 -32 
z
" transform="scale(0.015625)"/>
       <path id="Montserrat-Regular-61" d="M 2739 0 
L 2739 742 
L 2720 864 
L 2720 2106 
Q 2720 2534 2480 2764 
Q 2240 2995 1766 2995 
Q 1440 2995 1145 2886 
Q 851 2778 646 2598 
L 442 2938 
Q 698 3155 1056 3273 
Q 1414 3392 1811 3392 
Q 2464 3392 2819 3069 
Q 3174 2746 3174 2086 
L 3174 0 
L 2739 0 
z
M 1581 -32 
Q 1203 -32 924 93 
Q 646 218 499 438 
Q 352 659 352 947 
Q 352 1210 477 1424 
Q 602 1638 886 1769 
Q 1171 1901 1651 1901 
L 2810 1901 
L 2810 1562 
L 1664 1562 
Q 1178 1562 989 1389 
Q 800 1216 800 960 
Q 800 672 1024 499 
Q 1248 326 1651 326 
Q 2035 326 2313 502 
Q 2592 678 2720 1011 
L 2822 698 
Q 2694 365 2377 166 
Q 2061 -32 1581 -32 
z
" transform="scale(0.015625)"/>
       <path id="Montserrat-Regular-72" d="M 634 0 
L 634 3360 
L 1069 3360 
L 1069 2445 
L 1024 2605 
Q 1165 2989 1497 3190 
Q 1830 3392 2323 3392 
L 2323 2950 
Q 2298 2950 2272 2953 
Q 2246 2957 2221 2957 
Q 1690 2957 1389 2633 
Q 1088 2310 1088 1715 
L 1088 0 
L 634 0 
z
" transform="scale(0.015625)"/>
       <path id="Montserrat-Regular-6c" d="M 634 0 
L 634 4749 
L 1088 4749 
L 1088 0 
L 634 0 
z
" transform="scale(0.015625)"/>
       <path id="Montserrat-Regular-79" d="M 659 -1274 
Q 422 -1274 208 -1197 
Q -6 -1120 -160 -966 
L 51 -627 
Q 179 -749 329 -816 
Q 480 -883 666 -883 
Q 890 -883 1053 -758 
Q 1216 -634 1363 -320 
L 1581 173 
L 1632 243 
L 3014 3360 
L 3462 3360 
L 1779 -403 
Q 1638 -730 1468 -922 
Q 1299 -1114 1100 -1194 
Q 902 -1274 659 -1274 
z
M 1555 -96 
L 6 3360 
L 480 3360 
L 1850 275 
L 1555 -96 
z
" transform="scale(0.015625)"/>
       <path id="Montserrat-Regular-20" transform="scale(0.015625)"/>
       <path id="Montserrat-Regular-70" d="M 2368 -32 
Q 1933 -32 1581 169 
Q 1229 371 1021 752 
Q 813 1133 813 1683 
Q 813 2234 1017 2614 
Q 1222 2995 1574 3193 
Q 1926 3392 2368 3392 
Q 2848 3392 3229 3177 
Q 3610 2963 3827 2576 
Q 4045 2189 4045 1683 
Q 4045 1171 3827 787 
Q 3610 403 3229 185 
Q 2848 -32 2368 -32 
z
M 634 -1242 
L 634 3360 
L 1069 3360 
L 1069 2349 
L 1024 1677 
L 1088 998 
L 1088 -1242 
L 634 -1242 
z
M 2336 371 
Q 2694 371 2976 534 
Q 3258 698 3424 995 
Q 3590 1293 3590 1683 
Q 3590 2074 3424 2368 
Q 3258 2662 2976 2828 
Q 2694 2995 2336 2995 
Q 1978 2995 1693 2828 
Q 1408 2662 1245 2368 
Q 1082 2074 1082 1683 
Q 1082 1293 1245 995 
Q 1408 698 1693 534 
Q 1978 371 2336 371 
z
" transform="scale(0.015625)"/>
       <path id="Montserrat-Regular-6f" d="M 2003 -32 
Q 1517 -32 1129 189 
Q 742 410 518 797 
Q 294 1184 294 1683 
Q 294 2189 518 2573 
Q 742 2957 1126 3174 
Q 1510 3392 2003 3392 
Q 2502 3392 2889 3174 
Q 3277 2957 3497 2573 
Q 3718 2189 3718 1683 
Q 3718 1184 3497 797 
Q 3277 410 2886 189 
Q 2496 -32 2003 -32 
z
M 2003 371 
Q 2368 371 2649 534 
Q 2931 698 3094 995 
Q 3258 1293 3258 1683 
Q 3258 2080 3094 2374 
Q 2931 2669 2649 2832 
Q 2368 2995 2010 2995 
Q 1651 2995 1369 2832 
Q 1088 2669 921 2374 
Q 755 2080 755 1683 
Q 755 1293 921 995 
Q 1088 698 1369 534 
Q 1651 371 2003 371 
z
" transform="scale(0.015625)"/>
       <path id="Montserrat-Regular-62" d="M 2368 -32 
Q 1926 -32 1574 169 
Q 1222 371 1017 755 
Q 813 1139 813 1683 
Q 813 2234 1021 2614 
Q 1229 2995 1581 3193 
Q 1933 3392 2368 3392 
Q 2848 3392 3229 3177 
Q 3610 2963 3827 2579 
Q 4045 2195 4045 1683 
Q 4045 1178 3827 790 
Q 3610 403 3229 185 
Q 2848 -32 2368 -32 
z
M 634 0 
L 634 4749 
L 1088 4749 
L 1088 2368 
L 1024 1690 
L 1069 1011 
L 1069 0 
L 634 0 
z
M 2336 371 
Q 2694 371 2976 534 
Q 3258 698 3424 995 
Q 3590 1293 3590 1683 
Q 3590 2080 3424 2374 
Q 3258 2669 2976 2832 
Q 2694 2995 2336 2995 
Q 1978 2995 1693 2832 
Q 1408 2669 1245 2374 
Q 1082 2080 1082 1683 
Q 1082 1293 1245 995 
Q 1408 698 1693 534 
Q 1978 371 2336 371 
z
" transform="scale(0.015625)"/>
       <path id="Montserrat-Regular-69" d="M 634 0 
L 634 3360 
L 1088 3360 
L 1088 0 
L 634 0 
z
M 864 4102 
Q 723 4102 627 4198 
Q 531 4294 531 4429 
Q 531 4563 627 4656 
Q 723 4749 864 4749 
Q 1005 4749 1101 4659 
Q 1197 4570 1197 4435 
Q 1197 4294 1104 4198 
Q 1011 4102 864 4102 
z
" transform="scale(0.015625)"/>
       <path id="Montserrat-Regular-74" d="M 1696 -32 
Q 1222 -32 966 224 
Q 710 480 710 947 
L 710 4102 
L 1165 4102 
L 1165 973 
Q 1165 678 1315 518 
Q 1466 358 1747 358 
Q 2048 358 2246 531 
L 2406 205 
Q 2272 83 2083 25 
Q 1894 -32 1696 -32 
z
M 109 2982 
L 109 3360 
L 2189 3360 
L 2189 2982 
L 109 2982 
z
" transform="scale(0.015625)"/>
       <path id="Montserrat-Regular-66" d="M 710 0 
L 710 3782 
Q 710 4230 972 4505 
Q 1235 4781 1728 4781 
Q 1920 4781 2099 4729 
Q 2278 4678 2400 4570 
L 2246 4230 
Q 2150 4314 2022 4355 
Q 1894 4397 1747 4397 
Q 1459 4397 1305 4237 
Q 1152 4077 1152 3763 
L 1152 3251 
L 1165 3040 
L 1165 0 
L 710 0 
z
M 109 2982 
L 109 3360 
L 2189 3360 
L 2189 2982 
L 109 2982 
z
" transform="scale(0.015625)"/>
       <path id="Montserrat-Regular-6e" d="M 2349 3392 
Q 2758 3392 3068 3235 
Q 3379 3078 3555 2758 
Q 3731 2438 3731 1952 
L 3731 0 
L 3277 0 
L 3277 1907 
Q 3277 2438 3011 2710 
Q 2746 2982 2266 2982 
Q 1907 2982 1641 2838 
Q 1376 2694 1232 2422 
Q 1088 2150 1088 1766 
L 1088 0 
L 634 0 
L 634 3360 
L 1069 3360 
L 1069 2438 
L 998 2611 
Q 1158 2976 1510 3184 
Q 1862 3392 2349 3392 
z
" transform="scale(0.015625)"/>
       <path id="Montserrat-Regular-75" d="M 2022 -32 
Q 1594 -32 1274 128 
Q 954 288 778 608 
Q 602 928 602 1408 
L 602 3360 
L 1056 3360 
L 1056 1459 
Q 1056 922 1321 650 
Q 1587 378 2067 378 
Q 2419 378 2678 522 
Q 2938 666 3075 941 
Q 3213 1216 3213 1600 
L 3213 3360 
L 3667 3360 
L 3667 0 
L 3232 0 
L 3232 922 
L 3302 755 
Q 3142 384 2806 176 
Q 2470 -32 2022 -32 
z
" transform="scale(0.015625)"/>
       <path id="Montserrat-Regular-63" d="M 2029 -32 
Q 1530 -32 1136 189 
Q 742 410 518 797 
Q 294 1184 294 1683 
Q 294 2189 518 2573 
Q 742 2957 1136 3174 
Q 1530 3392 2029 3392 
Q 2458 3392 2803 3225 
Q 3149 3059 3347 2726 
L 3008 2496 
Q 2835 2752 2579 2873 
Q 2323 2995 2022 2995 
Q 1664 2995 1376 2832 
Q 1088 2669 921 2374 
Q 755 2080 755 1683 
Q 755 1286 921 992 
Q 1088 698 1376 534 
Q 1664 371 2022 371 
Q 2323 371 2579 492 
Q 2835 614 3008 864 
L 3347 634 
Q 3149 307 2803 137 
Q 2458 -32 2029 -32 
z
" transform="scale(0.015625)"/>
       <path id="Montserrat-Regular-77" d="M 1318 0 
L 51 3360 
L 486 3360 
L 1638 243 
L 1440 243 
L 2624 3360 
L 3014 3360 
L 4186 243 
L 3987 243 
L 5158 3360 
L 5574 3360 
L 4301 0 
L 3872 0 
L 2746 2931 
L 2880 2931 
L 1747 0 
L 1318 0 
z
" transform="scale(0.015625)"/>
      </defs>
      <use xlink:href="#Montserrat-Regular-59"/>
      <use xlink:href="#Montserrat-Regular-65" x="63.499985"/>
      <use xlink:href="#Montserrat-Regular-61" x="123.899979"/>
      <use xlink:href="#Montserrat-Regular-72" x="182.899963"/>
      <use xlink:href="#Montserrat-Regular-6c" x="222.999954"/>
      <use xlink:href="#Montserrat-Regular-79" x="249.899948"/>
      <use xlink:href="#Montserrat-Regular-20" x="304.099945"/>
      <use xlink:href="#Montserrat-Regular-70" x="330.299942"/>
      <use xlink:href="#Montserrat-Regular-72" x="398.09993"/>
      <use xlink:href="#Montserrat-Regular-6f" x="438.199921"/>
      <use xlink:href="#Montserrat-Regular-62" x="500.899918"/>
      <use xlink:href="#Montserrat-Regular-61" x="568.699905"/>
      <use xlink:href="#Montserrat-Regular-62" x="627.69989"/>
      <use xlink:href="#Montserrat-Regular-69" x="695.499878"/>
      <use xlink:href="#Montserrat-Regular-6c" x="722.399872"/>
      <use xlink:href="#Montserrat-Regular-69" x="749.299866"/>
      <use xlink:href="#Montserrat-Regular-74" x="776.19986"/>
      <use xlink:href="#Montserrat-Regular-79" x="816.79985"/>
      <use xlink:href="#Montserrat-Regular-20" x="870.999847"/>
      <use xlink:href="#Montserrat-Regular-6f" x="897.199844"/>
      <use xlink:href="#Montserrat-Regular-66" x="959.899841"/>
      <use xlink:href="#Montserrat-Regular-20" x="993.799835"/>
      <use xlink:href="#Montserrat-Regular-6e" x="1019.999832"/>
      <use xlink:href="#Montserrat-Regular-75" x="1087.599823"/>
      <use xlink:href="#Montserrat-Regular-63" x="1154.79982"/>
      <use xlink:href="#Montserrat-Regular-6c" x="1211.099808"/>
      <use xlink:href="#Montserrat-Regular-65" x="1237.999802"/>
      <use xlink:href="#Montserrat-Regular-61" x="1298.399796"/>
      <use xlink:href="#Montserrat-Regular-72" x="1357.39978"/>
      <use xlink:href="#Montserrat-Regular-20" x="1397.499771"/>
      <use xlink:href="#Montserrat-Regular-77" x="1423.699768"/>
      <use xlink:href="#Montserrat-Regular-61" x="1511.599762"/>
      <use xlink:href="#Montserrat-Regular-72" x="1570.599747"/>
     </g>
    </g>
   </g>
   <g id="matplotlib.axis_2"/>
   <g id="line2d_7">
    <path d="M 58.312814 307.584 
L 58.426865 247.111719 
L 58.67635 240.712395 
L 59.039885 236.794913 
L 59.503214 234.095667 
L 60.044953 232.187872 
L 60.650846 230.825689 
L 61.313763 229.858682 
L 62.033705 229.191272 
L 62.817801 228.763411 
L 63.694563 228.538808 
L 64.706759 228.513774 
L 65.904287 228.713398 
L 67.358429 229.190083 
L 69.161849 230.026317 
L 71.449983 231.345297 
L 74.465188 233.355427 
L 78.799099 236.534816 
L 89.092139 244.461642 
L 97.203966 250.53748 
L 103.897293 255.274802 
L 110.219957 259.479289 
L 116.407186 263.327788 
L 122.565902 266.897579 
L 128.767387 270.235681 
L 135.061538 273.371105 
L 141.483995 276.321582 
L 148.063272 279.09896 
L 154.835008 281.715746 
L 161.834846 284.181619 
L 169.098424 286.503742 
L 176.668513 288.68909 
L 184.580752 290.740333 
L 192.88504 292.662013 
L 201.645528 294.459152 
L 210.919243 296.132609 
L 220.791722 297.685967 
L 231.355631 299.120644 
L 242.739277 300.439425 
L 255.085222 301.64269 
L 268.585926 302.73165 
L 283.498002 303.707523 
L 300.170731 304.571341 
L 319.088824 305.323712 
L 340.972225 305.965461 
L 366.940053 306.497341 
L 398.895521 306.920463 
L 414.727128 307.064939 
L 414.727128 307.064939 
" clip-path="url(#pf55952f3de)" style="fill: none; stroke: #1f77b4; stroke-opacity: 0.9; stroke-width: 1.5; stroke-linecap: square"/>
   </g>
   <g id="line2d_8">
    <path d="M 58.312814 307.584 
L 94.181634 307.473096 
L 96.327205 307.223012 
L 97.802731 306.834264 
L 98.978874 306.298455 
L 100.005327 305.585883 
L 100.946242 304.658495 
L 101.851516 303.445083 
L 102.742534 301.865474 
L 103.64068 299.800509 
L 104.553083 297.121072 
L 105.493998 293.636308 
L 106.470553 289.125558 
L 107.489878 283.318291 
L 108.559099 275.892126 
L 109.699602 266.348275 
L 110.932771 254.06665 
L 112.287119 238.245461 
L 113.833926 217.426245 
L 115.758525 188.293862 
L 121.553705 98.37615 
L 122.929437 81.576086 
L 124.06994 70.202932 
L 125.039368 62.6172 
L 125.866232 57.772528 
L 126.56479 54.890056 
L 127.14217 53.357468 
L 127.605499 52.685189 
L 127.969035 52.503645 
L 128.282673 52.58944 
L 128.624824 52.936422 
L 129.038256 53.703361 
L 129.544354 55.149095 
L 130.157375 57.62358 
L 130.891574 61.580293 
L 131.761207 67.568934 
L 132.794788 76.334419 
L 134.042213 88.935292 
L 135.617533 107.26907 
L 137.941308 137.223093 
L 142.382141 194.636781 
L 144.413662 217.788957 
L 146.174314 235.413828 
L 147.792402 249.450964 
L 149.310697 260.742195 
L 150.75771 269.885409 
L 152.147698 277.290594 
L 153.494917 283.300475 
L 154.806496 288.168221 
L 156.09669 292.126064 
L 157.365499 295.322141 
L 158.627181 297.913986 
L 159.888862 300.010733 
L 161.1648 301.709801 
L 162.476378 303.09166 
L 163.844982 304.213401 
L 165.306251 305.123915 
L 166.910084 305.859151 
L 168.72776 306.443866 
L 170.887588 306.897586 
L 173.596283 307.22896 
L 177.338558 307.446788 
L 183.58994 307.558541 
L 202.850184 307.583926 
L 414.727128 307.584 
L 414.727128 307.584 
" clip-path="url(#pf55952f3de)" style="fill: none; stroke: #ff7f0e; stroke-opacity: 0.9; stroke-width: 1.5; stroke-linecap: square"/>
   </g>
   <g id="patch_3">
    <path d="M 57.6 307.584 
L 414.72 307.584 
" style="fill: none; stroke: #000000; stroke-width: 0.8; stroke-linejoin: miter; stroke-linecap: square"/>
   </g>
   <g id="text_8">
    <!-- dynomight.net -->
    <g style="fill: #d3d3d3" transform="translate(375.51521 302.832) scale(0.05 -0.05)">
     <defs>
      <path id="DejaVuSansMono-64" d="M 2681 3053 
L 2681 4863 
L 3256 4863 
L 3256 0 
L 2681 0 
L 2681 441 
Q 2538 181 2298 45 
Q 2059 -91 1747 -91 
Q 1113 -91 748 401 
Q 384 894 384 1759 
Q 384 2613 750 3098 
Q 1116 3584 1747 3584 
Q 2063 3584 2303 3448 
Q 2544 3313 2681 3053 
z
M 991 1747 
Q 991 1078 1203 737 
Q 1416 397 1831 397 
Q 2247 397 2464 740 
Q 2681 1084 2681 1747 
Q 2681 2413 2464 2755 
Q 2247 3097 1831 3097 
Q 1416 3097 1203 2756 
Q 991 2416 991 1747 
z
" transform="scale(0.015625)"/>
      <path id="DejaVuSansMono-79" d="M 2681 1125 
Q 2538 759 2316 163 
Q 2006 -663 1900 -844 
Q 1756 -1088 1540 -1209 
Q 1325 -1331 1038 -1331 
L 575 -1331 
L 575 -850 
L 916 -850 
Q 1169 -850 1312 -703 
Q 1456 -556 1678 56 
L 325 3500 
L 934 3500 
L 1972 763 
L 2994 3500 
L 3603 3500 
L 2681 1125 
z
" transform="scale(0.015625)"/>
      <path id="DejaVuSansMono-6e" d="M 3284 2169 
L 3284 0 
L 2706 0 
L 2706 2169 
Q 2706 2641 2540 2862 
Q 2375 3084 2022 3084 
Q 1619 3084 1401 2798 
Q 1184 2513 1184 1978 
L 1184 0 
L 609 0 
L 609 3500 
L 1184 3500 
L 1184 2975 
Q 1338 3275 1600 3429 
Q 1863 3584 2222 3584 
Q 2756 3584 3020 3232 
Q 3284 2881 3284 2169 
z
" transform="scale(0.015625)"/>
      <path id="DejaVuSansMono-6f" d="M 1925 3097 
Q 1488 3097 1263 2756 
Q 1038 2416 1038 1747 
Q 1038 1081 1263 739 
Q 1488 397 1925 397 
Q 2366 397 2591 739 
Q 2816 1081 2816 1747 
Q 2816 2416 2591 2756 
Q 2366 3097 1925 3097 
z
M 1925 3584 
Q 2653 3584 3039 3112 
Q 3425 2641 3425 1747 
Q 3425 850 3040 379 
Q 2656 -91 1925 -91 
Q 1197 -91 812 379 
Q 428 850 428 1747 
Q 428 2641 812 3112 
Q 1197 3584 1925 3584 
z
" transform="scale(0.015625)"/>
      <path id="DejaVuSansMono-6d" d="M 2113 3144 
Q 2219 3369 2383 3476 
Q 2547 3584 2778 3584 
Q 3200 3584 3373 3257 
Q 3547 2931 3547 2028 
L 3547 0 
L 3022 0 
L 3022 2003 
Q 3022 2744 2939 2923 
Q 2856 3103 2638 3103 
Q 2388 3103 2295 2911 
Q 2203 2719 2203 2003 
L 2203 0 
L 1678 0 
L 1678 2003 
Q 1678 2753 1589 2928 
Q 1500 3103 1269 3103 
Q 1041 3103 952 2911 
Q 863 2719 863 2003 
L 863 0 
L 341 0 
L 341 3500 
L 863 3500 
L 863 3200 
Q 966 3388 1120 3486 
Q 1275 3584 1472 3584 
Q 1709 3584 1867 3475 
Q 2025 3366 2113 3144 
z
" transform="scale(0.015625)"/>
      <path id="DejaVuSansMono-69" d="M 800 3500 
L 2272 3500 
L 2272 447 
L 3413 447 
L 3413 0 
L 556 0 
L 556 447 
L 1697 447 
L 1697 3053 
L 800 3053 
L 800 3500 
z
M 1697 4863 
L 2272 4863 
L 2272 4134 
L 1697 4134 
L 1697 4863 
z
" transform="scale(0.015625)"/>
      <path id="DejaVuSansMono-67" d="M 2681 1778 
Q 2681 2425 2470 2761 
Q 2259 3097 1856 3097 
Q 1434 3097 1212 2761 
Q 991 2425 991 1778 
Q 991 1131 1214 792 
Q 1438 453 1863 453 
Q 2259 453 2470 793 
Q 2681 1134 2681 1778 
z
M 3256 225 
Q 3256 -563 2884 -969 
Q 2513 -1375 1791 -1375 
Q 1553 -1375 1293 -1331 
Q 1034 -1288 775 -1203 
L 775 -634 
Q 1081 -778 1331 -847 
Q 1581 -916 1791 -916 
Q 2256 -916 2468 -662 
Q 2681 -409 2681 141 
L 2681 166 
L 2681 556 
Q 2544 263 2306 119 
Q 2069 -25 1728 -25 
Q 1116 -25 750 465 
Q 384 956 384 1778 
Q 384 2603 750 3093 
Q 1116 3584 1728 3584 
Q 2066 3584 2300 3450 
Q 2534 3316 2681 3034 
L 2681 3488 
L 3256 3488 
L 3256 225 
z
" transform="scale(0.015625)"/>
      <path id="DejaVuSansMono-68" d="M 3284 2169 
L 3284 0 
L 2706 0 
L 2706 2169 
Q 2706 2641 2540 2862 
Q 2375 3084 2022 3084 
Q 1619 3084 1401 2798 
Q 1184 2513 1184 1978 
L 1184 0 
L 609 0 
L 609 4863 
L 1184 4863 
L 1184 2975 
Q 1338 3275 1600 3429 
Q 1863 3584 2222 3584 
Q 2756 3584 3020 3232 
Q 3284 2881 3284 2169 
z
" transform="scale(0.015625)"/>
      <path id="DejaVuSansMono-74" d="M 1919 4494 
L 1919 3500 
L 3225 3500 
L 3225 3053 
L 1919 3053 
L 1919 1153 
Q 1919 766 2066 612 
Q 2213 459 2578 459 
L 3225 459 
L 3225 0 
L 2522 0 
Q 1875 0 1609 259 
Q 1344 519 1344 1153 
L 1344 3053 
L 409 3053 
L 409 3500 
L 1344 3500 
L 1344 4494 
L 1919 4494 
z
" transform="scale(0.015625)"/>
      <path id="DejaVuSansMono-2e" d="M 1528 953 
L 2316 953 
L 2316 0 
L 1528 0 
L 1528 953 
z
" transform="scale(0.015625)"/>
      <path id="DejaVuSansMono-65" d="M 3475 1894 
L 3475 1613 
L 984 1613 
L 984 1594 
Q 984 1022 1282 709 
Q 1581 397 2125 397 
Q 2400 397 2700 484 
Q 3000 572 3341 750 
L 3341 178 
Q 3013 44 2708 -23 
Q 2403 -91 2119 -91 
Q 1303 -91 843 398 
Q 384 888 384 1747 
Q 384 2584 834 3084 
Q 1284 3584 2034 3584 
Q 2703 3584 3089 3131 
Q 3475 2678 3475 1894 
z
M 2900 2063 
Q 2888 2569 2661 2833 
Q 2434 3097 2009 3097 
Q 1594 3097 1325 2822 
Q 1056 2547 1006 2059 
L 2900 2063 
z
" transform="scale(0.015625)"/>
     </defs>
     <use xlink:href="#DejaVuSansMono-64"/>
     <use xlink:href="#DejaVuSansMono-79" x="60.205078"/>
     <use xlink:href="#DejaVuSansMono-6e" x="120.410156"/>
     <use xlink:href="#DejaVuSansMono-6f" x="180.615234"/>
     <use xlink:href="#DejaVuSansMono-6d" x="240.820312"/>
     <use xlink:href="#DejaVuSansMono-69" x="301.025391"/>
     <use xlink:href="#DejaVuSansMono-67" x="361.230469"/>
     <use xlink:href="#DejaVuSansMono-68" x="421.435547"/>
     <use xlink:href="#DejaVuSansMono-74" x="481.640625"/>
     <use xlink:href="#DejaVuSansMono-2e" x="541.845703"/>
     <use xlink:href="#DejaVuSansMono-6e" x="602.050781"/>
     <use xlink:href="#DejaVuSansMono-65" x="662.255859"/>
     <use xlink:href="#DejaVuSansMono-74" x="722.460938"/>
    </g>
   </g>
   <g id="legend_1">
    <g id="line2d_9">
     <path d="M 259.473125 68.510375 
L 273.473125 68.510375 
L 287.473125 68.510375 
" style="fill: none; stroke: #1f77b4; stroke-opacity: 0.9; stroke-width: 1.5; stroke-linecap: square"/>
    </g>
    <g id="text_9">
     <!-- broad prior -->
     <g transform="translate(298.673125 64.460438) scale(0.14 -0.14)">
      <defs>
       <path id="Montserrat-Regular-64" d="M 1971 -32 
Q 1491 -32 1110 185 
Q 730 403 512 790 
Q 294 1178 294 1683 
Q 294 2195 512 2579 
Q 730 2963 1110 3177 
Q 1491 3392 1971 3392 
Q 2413 3392 2761 3193 
Q 3110 2995 3318 2614 
Q 3526 2234 3526 1683 
Q 3526 1139 3321 755 
Q 3117 371 2768 169 
Q 2419 -32 1971 -32 
z
M 2003 371 
Q 2362 371 2646 534 
Q 2931 698 3094 995 
Q 3258 1293 3258 1683 
Q 3258 2080 3094 2374 
Q 2931 2669 2646 2832 
Q 2362 2995 2003 2995 
Q 1651 2995 1369 2832 
Q 1088 2669 921 2374 
Q 755 2080 755 1683 
Q 755 1293 921 995 
Q 1088 698 1369 534 
Q 1651 371 2003 371 
z
M 3270 0 
L 3270 1011 
L 3315 1690 
L 3251 2368 
L 3251 4749 
L 3706 4749 
L 3706 0 
L 3270 0 
z
" transform="scale(0.015625)"/>
      </defs>
      <use xlink:href="#Montserrat-Regular-62"/>
      <use xlink:href="#Montserrat-Regular-72" x="67.799988"/>
      <use xlink:href="#Montserrat-Regular-6f" x="107.899979"/>
      <use xlink:href="#Montserrat-Regular-61" x="170.599976"/>
      <use xlink:href="#Montserrat-Regular-64" x="229.59996"/>
      <use xlink:href="#Montserrat-Regular-20" x="297.399948"/>
      <use xlink:href="#Montserrat-Regular-70" x="323.599945"/>
      <use xlink:href="#Montserrat-Regular-72" x="391.399933"/>
      <use xlink:href="#Montserrat-Regular-69" x="431.499924"/>
      <use xlink:href="#Montserrat-Regular-6f" x="458.399918"/>
      <use xlink:href="#Montserrat-Regular-72" x="521.099915"/>
     </g>
     <!-- mean=0.01000 -->
     <g transform="translate(298.673125 79.643438) scale(0.14 -0.14)">
      <defs>
       <path id="Montserrat-Regular-6d" d="M 4832 3392 
Q 5242 3392 5546 3235 
Q 5850 3078 6019 2758 
Q 6189 2438 6189 1952 
L 6189 0 
L 5734 0 
L 5734 1907 
Q 5734 2438 5481 2710 
Q 5229 2982 4768 2982 
Q 4422 2982 4169 2838 
Q 3917 2694 3779 2422 
Q 3642 2150 3642 1766 
L 3642 0 
L 3187 0 
L 3187 1907 
Q 3187 2438 2931 2710 
Q 2675 2982 2214 2982 
Q 1875 2982 1619 2838 
Q 1363 2694 1225 2422 
Q 1088 2150 1088 1766 
L 1088 0 
L 634 0 
L 634 3360 
L 1069 3360 
L 1069 2451 
L 998 2611 
Q 1152 2976 1494 3184 
Q 1837 3392 2304 3392 
Q 2797 3392 3142 3145 
Q 3488 2899 3590 2406 
L 3411 2477 
Q 3558 2886 3932 3139 
Q 4307 3392 4832 3392 
z
" transform="scale(0.015625)"/>
       <path id="Montserrat-Regular-3d" d="M 448 2790 
L 448 3168 
L 3232 3168 
L 3232 2790 
L 448 2790 
z
M 448 1312 
L 448 1690 
L 3232 1690 
L 3232 1312 
L 448 1312 
z
" transform="scale(0.015625)"/>
      </defs>
      <use xlink:href="#Montserrat-Regular-6d"/>
      <use xlink:href="#Montserrat-Regular-65" x="106.099991"/>
      <use xlink:href="#Montserrat-Regular-61" x="166.499985"/>
      <use xlink:href="#Montserrat-Regular-6e" x="225.499969"/>
      <use xlink:href="#Montserrat-Regular-3d" x="293.09996"/>
      <use xlink:href="#Montserrat-Regular-30" x="350.599945"/>
      <use xlink:href="#Montserrat-Regular-2e" x="416.799942"/>
      <use xlink:href="#Montserrat-Regular-30" x="437.999939"/>
      <use xlink:href="#Montserrat-Regular-31" x="504.199936"/>
      <use xlink:href="#Montserrat-Regular-30" x="540.299927"/>
      <use xlink:href="#Montserrat-Regular-30" x="606.499924"/>
      <use xlink:href="#Montserrat-Regular-30" x="672.699921"/>
     </g>
    </g>
    <g id="line2d_10">
     <path d="M 259.473125 103.798687 
L 273.473125 103.798687 
L 287.473125 103.798687 
" style="fill: none; stroke: #ff7f0e; stroke-opacity: 0.9; stroke-width: 1.5; stroke-linecap: square"/>
    </g>
    <g id="text_10">
     <!-- narrow prior -->
     <g transform="translate(298.673125 99.74875) scale(0.14 -0.14)">
      <use xlink:href="#Montserrat-Regular-6e"/>
      <use xlink:href="#Montserrat-Regular-61" x="67.599991"/>
      <use xlink:href="#Montserrat-Regular-72" x="126.599976"/>
      <use xlink:href="#Montserrat-Regular-72" x="166.699966"/>
      <use xlink:href="#Montserrat-Regular-6f" x="206.799957"/>
      <use xlink:href="#Montserrat-Regular-77" x="269.499954"/>
      <use xlink:href="#Montserrat-Regular-20" x="357.399948"/>
      <use xlink:href="#Montserrat-Regular-70" x="383.599945"/>
      <use xlink:href="#Montserrat-Regular-72" x="451.399933"/>
      <use xlink:href="#Montserrat-Regular-69" x="491.499924"/>
      <use xlink:href="#Montserrat-Regular-6f" x="518.399918"/>
      <use xlink:href="#Montserrat-Regular-72" x="581.099915"/>
     </g>
     <!-- mean=0.01000 -->
     <g transform="translate(298.673125 114.93175) scale(0.14 -0.14)">
      <use xlink:href="#Montserrat-Regular-6d"/>
      <use xlink:href="#Montserrat-Regular-65" x="106.099991"/>
      <use xlink:href="#Montserrat-Regular-61" x="166.499985"/>
      <use xlink:href="#Montserrat-Regular-6e" x="225.499969"/>
      <use xlink:href="#Montserrat-Regular-3d" x="293.09996"/>
      <use xlink:href="#Montserrat-Regular-30" x="350.599945"/>
      <use xlink:href="#Montserrat-Regular-2e" x="416.799942"/>
      <use xlink:href="#Montserrat-Regular-30" x="437.999939"/>
      <use xlink:href="#Montserrat-Regular-31" x="504.199936"/>
      <use xlink:href="#Montserrat-Regular-30" x="540.299927"/>
      <use xlink:href="#Montserrat-Regular-30" x="606.499924"/>
      <use xlink:href="#Montserrat-Regular-30" x="672.699921"/>
     </g>
    </g>
   </g>
  </g>
 </g>
 <defs>
  <clipPath id="pf55952f3de">
   <rect x="57.6" y="41.472" width="357.12" height="266.112"/>
  </clipPath>
 </defs>
</svg>
