<svg width="1655" height="995" xmlns="http://www.w3.org/2000/svg" xmlns:xlink="http://www.w3.org/1999/xlink" overflow="hidden"><defs><clipPath id="clip0"><rect x="1081" y="1599" width="1655" height="995"/></clipPath><clipPath id="clip1"><rect x="1086" y="1601" width="1650" height="990"/></clipPath><clipPath id="clip2"><rect x="1314" y="1771" width="1375" height="648"/></clipPath><clipPath id="clip3"><rect x="1314" y="1771" width="1375" height="648"/></clipPath><clipPath id="clip4"><rect x="1314" y="1771" width="1375" height="648"/></clipPath><clipPath id="clip5"><rect x="1314" y="1771" width="1375" height="648"/></clipPath><clipPath id="clip6"><rect x="1314" y="1771" width="1375" height="648"/></clipPath><clipPath id="clip7"><rect x="1314" y="1771" width="1375" height="648"/></clipPath><clipPath id="clip8"><rect x="1314" y="1771" width="1375" height="648"/></clipPath><clipPath id="clip9"><rect x="1314" y="1771" width="1375" height="648"/></clipPath><clipPath id="clip10"><rect x="1314" y="1771" width="1375" height="648"/></clipPath><clipPath id="clip11"><rect x="1314" y="1771" width="1375" height="648"/></clipPath><clipPath id="clip12"><rect x="1314" y="1771" width="1375" height="648"/></clipPath><clipPath id="clip13"><rect x="1314" y="1771" width="1375" height="648"/></clipPath><clipPath id="clip14"><rect x="1314" y="1771" width="1375" height="648"/></clipPath><clipPath id="clip15"><rect x="1314" y="1771" width="1375" height="648"/></clipPath><clipPath id="clip16"><rect x="1314" y="1771" width="1375" height="648"/></clipPath><clipPath id="clip17"><rect x="1314" y="1771" width="1375" height="648"/></clipPath><clipPath id="clip18"><rect x="1086" y="1601" width="1650" height="990"/></clipPath><clipPath id="clip19"><rect x="1086" y="1601" width="1650" height="990"/></clipPath><clipPath id="clip20"><rect x="1086" y="1601" width="1650" height="990"/></clipPath><clipPath id="clip21"><rect x="1086" y="1601" width="1650" height="990"/></clipPath><clipPath id="clip22"><rect x="1086" y="1601" width="1650" height="990"/></clipPath><clipPath id="clip23"><rect x="1086" y="1601" width="1650" height="990"/></clipPath><clipPath id="clip24"><rect x="1086" y="1601" width="1650" height="990"/></clipPath><clipPath id="clip25"><rect x="1086" y="1601" width="1650" height="990"/></clipPath><clipPath id="clip26"><rect x="1086" y="1601" width="1650" height="990"/></clipPath><clipPath id="clip27"><rect x="1086" y="1601" width="1650" height="990"/></clipPath><clipPath id="clip28"><rect x="1086" y="1601" width="1650" height="990"/></clipPath><clipPath id="clip29"><rect x="1086" y="1601" width="1650" height="990"/></clipPath><clipPath id="clip30"><rect x="1086" y="1601" width="1650" height="990"/></clipPath><clipPath id="clip31"><rect x="1086" y="1601" width="1650" height="990"/></clipPath><clipPath id="clip32"><rect x="1086" y="1601" width="1650" height="990"/></clipPath><clipPath id="clip33"><rect x="1086" y="1601" width="1650" height="990"/></clipPath><clipPath id="clip34"><rect x="1086" y="1601" width="1650" height="990"/></clipPath><clipPath id="clip35"><rect x="1086" y="1601" width="1650" height="990"/></clipPath><clipPath id="clip36"><rect x="1086" y="1601" width="1650" height="990"/></clipPath><clipPath id="clip37"><rect x="1086" y="1601" width="1650" height="990"/></clipPath><clipPath id="clip38"><rect x="1086" y="1601" width="1650" height="990"/></clipPath><clipPath id="clip39"><rect x="1086" y="1601" width="1650" height="990"/></clipPath><clipPath id="clip40"><rect x="1086" y="1601" width="1650" height="990"/></clipPath><clipPath id="clip41"><rect x="1086" y="1601" width="1650" height="990"/></clipPath><clipPath id="clip42"><rect x="1086" y="1601" width="1650" height="990"/></clipPath><clipPath id="clip43"><rect x="1086" y="1601" width="1650" height="990"/></clipPath><clipPath id="clip44"><rect x="1086" y="1601" width="1650" height="990"/></clipPath><clipPath id="clip45"><rect x="1086" y="1601" width="1650" height="990"/></clipPath><clipPath id="clip46"><rect x="1086" y="1601" width="1650" height="990"/></clipPath><clipPath id="clip47"><rect x="1086" y="1601" width="1650" height="990"/></clipPath><clipPath id="clip48"><rect x="1086" y="1601" width="1650" height="990"/></clipPath><clipPath id="clip49"><rect x="1086" y="1601" width="1650" height="990"/></clipPath><clipPath id="clip50"><rect x="1086" y="1601" width="1651" height="991"/></clipPath></defs><g clip-path="url(#clip0)" transform="translate(-1081 -1599)"><rect x="1086" y="1602" width="1650" height="990" fill="#FFFFFF" fill-opacity="1"/><g clip-path="url(#clip1)"><rect x="1314" y="1772" width="1372" height="645" fill="#FFFFFF" fill-opacity="1"/></g><g clip-path="url(#clip2)"><path d="M1314.5 2043.57 1338.54 2038.57 1363.54 2119.57 1387.55 2349.5 1412.55 2345.58 1436.55 2243.57 1461.55 2166.57 1485.55 2168.57 1510.55 2302.58 1534.55 2335.58 1559.55 2319.58 1583.55 2272.57 1608.55 2213.57 1632.55 2205.57 1657.55 2122.57 1681.56 2105.57 1706.56 2061.57 1730.56 2048.57 1755.56 2021.57 1779.56 1973.56 1803.56 1924.56 1828.56 1920.56 1852.56 1905.56 1877.56 1908.56 1901.56 1888.56 1926.56 1906.56 1950.56 1899.56 1975.56 1884.56 1999.57 1873.56 2024.57 1860.56 2048.57 1881.56 2073.57 1823.56 2097.57 1804.56 2122.57 1804.56 2146.57 1795.56 2171.57 1789.5 2195.57 1802.56 2220.57 1804.56 2244.57 1815.56 2269.57 1804.56 2293.58 1808.56 2318.58 1822.56 2342.58 1813.56 2367.58 1795.56 2391.58 1795.56 2416.58 1797.56 2440.58 1795.56 2465.58 1802.56 2489.58 1827.56 2514.58 1840.56 2538.58 1836.56 2563.58 1794.56 2587.58 1794.56 2612.59 1794.56 2636.59 1794.56 2661.59 1797.56 2685.5 1797.56" stroke="#A5A5A5" stroke-width="6.875" stroke-linecap="round" stroke-linejoin="round" stroke-miterlimit="10" stroke-opacity="1" fill="none" fill-rule="nonzero"/></g><g clip-path="url(#clip3)"><path d="M1314 2043.07 1339.04 2038.07 1363.04 2119.07 1388.05 2350 1412.05 2345.08 1437.05 2243.07 1461.05 2166.07 1486.05 2169.07 1510.05 2302.08 1535.05 2336.08 1559.05 2319.08 1584.05 2273.07 1608.05 2214.07 1633.05 2206.07 1657.05 2123.07 1682.06 2105.07 1706.06 2062.07 1731.06 2049.07 1755.06 2021.07 1780.06 1973.06 1804.06 1925.06 1828.06 1921.06 1853.06 1905.06 1877.06 1908.06 1902.06 1889.06 1926.06 1906.06 1951.06 1900.06 1975.06 1884.06 2000.07 1873.06 2024.07 1860.06 2049.07 1881.06 2073.07 1823.06 2098.07 1804.06 2122.07 1805.06 2147.07 1796.06 2171.07 1789 2196.07 1802.06 2220.07 1804.06 2245.07 1815.06 2269.07 1804.06 2294.08 1809.06 2318.08 1822.06 2343.08 1813.06 2367.08 1796.06 2392.08 1796.06 2416.08 1798.06 2441.08 1796.06 2465.08 1802.06 2490.08 1827.06 2514.08 1841.06 2539.08 1836.06 2563.08 1795.06 2588.08 1795.06 2612.09 1795.06 2637.09 1795.06 2661.09 1798.06 2686 1798.06" stroke="#4472C4" stroke-width="10.3125" stroke-linecap="round" stroke-linejoin="round" stroke-miterlimit="10" stroke-opacity="1" fill="none" fill-rule="nonzero"/></g><g clip-path="url(#clip4)"><path d="M1314.5 2043.57 1338.54 2038.57 1363.54 2119.57 1387.55 2349.5 1412.55 2345.58 1436.55 2243.57 1461.55 2166.57 1485.55 2168.57 1510.55 2302.58 1534.55 2335.58 1559.55 2319.58 1583.55 2272.57 1608.55 2213.57 1632.55 2205.57 1657.55 2122.57 1681.56 2105.57 1706.56 2061.57 1730.56 2048.57 1755.56 2021.57 1779.56 1973.56 1803.56 1924.56 1828.56 1920.56 1852.56 1905.56 1877.56 1908.56 1901.56 1888.56 1926.56 1906.56 1950.56 1899.56 1975.56 1884.56 1999.57 1873.56 2024.57 1860.56 2048.57 1881.56 2073.57 1823.56 2097.57 1804.56 2122.57 1804.56 2146.57 1795.56 2171.57 1789.5 2195.57 1802.56 2220.57 1804.56 2244.57 1815.56 2269.57 1804.56 2293.58 1808.56 2318.58 1822.56 2342.58 1813.56 2367.58 1795.56 2391.58 1795.56 2416.58 1797.56 2440.58 1795.56 2465.58 1802.56 2489.58 1827.56 2514.58 1840.56 2538.58 1836.56 2563.58 1794.56 2587.58 1794.56 2612.59 1794.56 2636.59 1794.56 2661.59 1797.56 2685.5 1797.56" stroke="#5B9BD5" stroke-width="6.875" stroke-linecap="round" stroke-linejoin="round" stroke-miterlimit="10" stroke-opacity="1" fill="none" fill-rule="nonzero"/></g><g clip-path="url(#clip5)"><path d="M1314 2043.07 1339.04 2038.07 1363.04 2119.07 1388.05 2350 1412.05 2345.08 1437.05 2243.07 1461.05 2166.07 1486.05 2169.07 1510.05 2302.08 1535.05 2336.08 1559.05 2319.08 1584.05 2273.07 1608.05 2214.07 1633.05 2206.07 1657.05 2123.07 1682.06 2105.07 1706.06 2062.07 1731.06 2049.07 1755.06 2021.07 1780.06 1973.06 1804.06 1925.06 1828.06 1921.06 1853.06 1905.06 1877.06 1908.06 1902.06 1889.06 1926.06 1906.06 1951.06 1900.06 1975.06 1884.06 2000.07 1873.06 2024.07 1860.06 2049.07 1881.06 2073.07 1823.06 2098.07 1804.06 2122.07 1805.06 2147.07 1796.06 2171.07 1789 2196.07 1802.06 2220.07 1804.06 2245.07 1815.06 2269.07 1804.06 2294.08 1809.06 2318.08 1822.06 2343.08 1813.06 2367.08 1796.06 2392.08 1796.06 2416.08 1798.06 2441.08 1796.06 2465.08 1802.06 2490.08 1827.06 2514.08 1841.06 2539.08 1836.06 2563.08 1795.06 2588.08 1795.06 2612.09 1795.06 2637.09 1795.06 2661.09 1798.06 2686 1798.06" stroke="#4472C4" stroke-width="10.3125" stroke-linecap="round" stroke-linejoin="round" stroke-miterlimit="10" stroke-opacity="1" fill="none" fill-rule="nonzero"/></g><g clip-path="url(#clip6)"><path d="M1314.5 2043.57 1338.54 2038.57 1363.54 2119.57 1387.55 2349.5 1412.55 2345.58 1436.55 2243.57 1461.55 2166.57 1485.55 2168.57 1510.55 2302.58 1534.55 2335.58 1559.55 2319.58 1583.55 2272.57 1608.55 2213.57 1632.55 2205.57 1657.55 2122.57 1681.56 2105.57 1706.56 2061.57 1730.56 2048.57 1755.56 2021.57 1779.56 1973.56 1803.56 1924.56 1828.56 1920.56 1852.56 1905.56 1877.56 1908.56 1901.56 1888.56 1926.56 1906.56 1950.56 1899.56 1975.56 1884.56 1999.57 1873.56 2024.57 1860.56 2048.57 1881.56 2073.57 1823.56 2097.57 1804.56 2122.57 1804.56 2146.57 1795.56 2171.57 1789.5 2195.57 1802.56 2220.57 1804.56 2244.57 1815.56 2269.57 1804.56 2293.58 1808.56 2318.58 1822.56 2342.58 1813.56 2367.58 1795.56 2391.58 1795.56 2416.58 1797.56 2440.58 1795.56 2465.58 1802.56 2489.58 1827.56 2514.58 1840.56 2538.58 1836.56 2563.58 1794.56 2587.58 1794.56 2612.59 1794.56 2636.59 1794.56 2661.59 1797.56 2685.5 1797.56" stroke="#A7B5DB" stroke-width="6.875" stroke-linecap="round" stroke-linejoin="round" stroke-miterlimit="10" stroke-opacity="1" fill="none" fill-rule="nonzero"/></g><g clip-path="url(#clip7)"><path d="M1314 2043.07 1339.04 2038.07 1363.04 2119.07 1388.05 2350 1412.05 2345.08 1437.05 2243.07 1461.05 2166.07 1486.05 2169.07 1510.05 2302.08 1535.05 2336.08 1559.05 2319.08 1584.05 2273.07 1608.05 2214.07 1633.05 2206.07 1657.05 2123.07 1682.06 2105.07 1706.06 2062.07 1731.06 2049.07 1755.06 2021.07 1780.06 1973.06 1804.06 1925.06 1828.06 1921.06 1853.06 1905.06 1877.06 1908.06 1902.06 1889.06 1926.06 1906.06 1951.06 1900.06 1975.06 1884.06 2000.07 1873.06 2024.07 1860.06 2049.07 1881.06 2073.07 1823.06 2098.07 1804.06 2122.07 1805.06 2147.07 1796.06 2171.07 1789 2196.07 1802.06 2220.07 1804.06 2245.07 1815.06 2269.07 1804.06 2294.08 1809.06 2318.08 1822.06 2343.08 1813.06 2367.08 1796.06 2392.08 1796.06 2416.08 1798.06 2441.08 1796.06 2465.08 1802.06 2490.08 1827.06 2514.08 1841.06 2539.08 1836.06 2563.08 1795.06 2588.08 1795.06 2612.09 1795.06 2637.09 1795.06 2661.09 1798.06 2686 1798.06" stroke="#4472C4" stroke-width="10.3125" stroke-linecap="round" stroke-linejoin="round" stroke-miterlimit="10" stroke-opacity="1" fill="none" fill-rule="nonzero"/></g><g clip-path="url(#clip8)"><path d="M1314.5 2043.57 1338.54 2038.57 1363.54 2119.57 1387.55 2349.5 1412.55 2345.58 1436.55 2243.57 1461.55 2166.57 1485.55 2168.57 1510.55 2302.58 1534.55 2335.58 1559.55 2319.58 1583.55 2272.57 1608.55 2213.57 1632.55 2205.57 1657.55 2122.57 1681.56 2105.57 1706.56 2061.57 1730.56 2048.57 1755.56 2021.57 1779.56 1973.56 1803.56 1924.56 1828.56 1920.56 1852.56 1905.56 1877.56 1908.56 1901.56 1888.56 1926.56 1906.56 1950.56 1899.56 1975.56 1884.56 1999.57 1873.56 2024.57 1860.56 2048.57 1881.56 2073.57 1823.56 2097.57 1804.56 2122.57 1804.56 2146.57 1795.56 2171.57 1789.5 2195.57 1802.56 2220.57 1804.56 2244.57 1815.56 2269.57 1804.56 2293.58 1808.56 2318.58 1822.56 2342.58 1813.56 2367.58 1795.56 2391.58 1795.56 2416.58 1797.56 2440.58 1795.56 2465.58 1802.56 2489.58 1827.56 2514.58 1840.56 2538.58 1836.56 2563.58 1794.56 2587.58 1794.56 2612.59 1794.56 2636.59 1794.56 2661.59 1797.56 2685.5 1797.56" stroke="#CBCBCB" stroke-width="6.875" stroke-linecap="round" stroke-linejoin="round" stroke-miterlimit="10" stroke-opacity="1" fill="none" fill-rule="nonzero"/></g><g clip-path="url(#clip9)"><path d="M1314 2043.07 1339.04 2038.07 1363.04 2119.07 1388.05 2350 1412.05 2345.08 1437.05 2243.07 1461.05 2166.07 1486.05 2169.07 1510.05 2302.08 1535.05 2336.08 1559.05 2319.08 1584.05 2273.07 1608.05 2214.07 1633.05 2206.07 1657.05 2123.07 1682.06 2105.07 1706.06 2062.07 1731.06 2049.07 1755.06 2021.07 1780.06 1973.06 1804.06 1925.06 1828.06 1921.06 1853.06 1905.06 1877.06 1908.06 1902.06 1889.06 1926.06 1906.06 1951.06 1900.06 1975.06 1884.06 2000.07 1873.06 2024.07 1860.06 2049.07 1881.06 2073.07 1823.06 2098.07 1804.06 2122.07 1805.06 2147.07 1796.06 2171.07 1789 2196.07 1802.06 2220.07 1804.06 2245.07 1815.06 2269.07 1804.06 2294.08 1809.06 2318.08 1822.06 2343.08 1813.06 2367.08 1796.06 2392.08 1796.06 2416.08 1798.06 2441.08 1796.06 2465.08 1802.06 2490.08 1827.06 2514.08 1841.06 2539.08 1836.06 2563.08 1795.06 2588.08 1795.06 2612.09 1795.06 2637.09 1795.06 2661.09 1798.06 2686 1798.06" stroke="#4472C4" stroke-width="10.3125" stroke-linecap="round" stroke-linejoin="round" stroke-miterlimit="10" stroke-opacity="1" fill="none" fill-rule="nonzero"/></g><g clip-path="url(#clip10)"><path d="M1314.5 2043.57 1338.54 2038.57 1363.54 2119.57 1387.55 2349.5 1412.55 2345.58 1436.55 2243.57 1461.55 2166.57 1485.55 2168.57 1510.55 2302.58 1534.55 2335.58 1559.55 2319.58 1583.55 2272.57 1608.55 2213.57 1632.55 2205.57 1657.55 2122.57 1681.56 2105.57 1706.56 2061.57 1730.56 2048.57 1755.56 2021.57 1779.56 1973.56 1803.56 1924.56 1828.56 1920.56 1852.56 1905.56 1877.56 1908.56 1901.56 1888.56 1926.56 1906.56 1950.56 1899.56 1975.56 1884.56 1999.57 1873.56 2024.57 1860.56 2048.57 1881.56 2073.57 1823.56 2097.57 1804.56 2122.57 1804.56 2146.57 1795.56 2171.57 1789.5 2195.57 1802.56 2220.57 1804.56 2244.57 1815.56 2269.57 1804.56 2293.58 1808.56 2318.58 1822.56 2342.58 1813.56 2367.58 1795.56 2391.58 1795.56 2416.58 1797.56 2440.58 1795.56 2465.58 1802.56 2489.58 1827.56 2514.58 1840.56 2538.58 1836.56 2563.58 1794.56 2587.58 1794.56 2612.59 1794.56 2636.59 1794.56 2661.59 1797.56 2685.5 1797.56" stroke="#4A7FB0" stroke-width="6.875" stroke-linecap="round" stroke-linejoin="round" stroke-miterlimit="10" stroke-opacity="1" fill="none" fill-rule="nonzero"/></g><g clip-path="url(#clip11)"><path d="M1314 2043.07 1339.04 2038.07 1363.04 2119.07 1388.05 2350 1412.05 2345.08 1437.05 2243.07 1461.05 2166.07 1486.05 2169.07 1510.05 2302.08 1535.05 2336.08 1559.05 2319.08 1584.05 2273.07 1608.05 2214.07 1633.05 2206.07 1657.05 2123.07 1682.06 2105.07 1706.06 2062.07 1731.06 2049.07 1755.06 2021.07 1780.06 1973.06 1804.06 1925.06 1828.06 1921.06 1853.06 1905.06 1877.06 1908.06 1902.06 1889.06 1926.06 1906.06 1951.06 1900.06 1975.06 1884.06 2000.07 1873.06 2024.07 1860.06 2049.07 1881.06 2073.07 1823.06 2098.07 1804.06 2122.07 1805.06 2147.07 1796.06 2171.07 1789 2196.07 1802.06 2220.07 1804.06 2245.07 1815.06 2269.07 1804.06 2294.08 1809.06 2318.08 1822.06 2343.08 1813.06 2367.08 1796.06 2392.08 1796.06 2416.08 1798.06 2441.08 1796.06 2465.08 1802.06 2490.08 1827.06 2514.08 1841.06 2539.08 1836.06 2563.08 1795.06 2588.08 1795.06 2612.09 1795.06 2637.09 1795.06 2661.09 1798.06 2686 1798.06" stroke="#4472C4" stroke-width="10.3125" stroke-linecap="round" stroke-linejoin="round" stroke-miterlimit="10" stroke-opacity="1" fill="none" fill-rule="nonzero"/></g><g clip-path="url(#clip12)"><path d="M1314.5 2043.57 1338.54 2038.57 1363.54 2119.57 1387.55 2349.5 1412.55 2345.58 1436.55 2243.57 1461.55 2166.57 1485.55 2168.57 1510.55 2302.58 1534.55 2335.58 1559.55 2319.58 1583.55 2272.57 1608.55 2213.57 1632.55 2205.57 1657.55 2122.57 1681.56 2105.57 1706.56 2061.57 1730.56 2048.57 1755.56 2021.57 1779.56 1973.56 1803.56 1924.56 1828.56 1920.56 1852.56 1905.56 1877.56 1908.56 1901.56 1888.56 1926.56 1906.56 1950.56 1899.56 1975.56 1884.56 1999.57 1873.56 2024.57 1860.56 2048.57 1881.56 2073.57 1823.56 2097.57 1804.56 2122.57 1804.56 2146.57 1795.56 2171.57 1789.5 2195.57 1802.56 2220.57 1804.56 2244.57 1815.56 2269.57 1804.56 2293.58 1808.56 2318.58 1822.56 2342.58 1813.56 2367.58 1795.56 2391.58 1795.56 2416.58 1797.56 2440.58 1795.56 2465.58 1802.56 2489.58 1827.56 2514.58 1840.56 2538.58 1836.56 2563.58 1794.56 2587.58 1794.56 2612.59 1794.56 2636.59 1794.56 2661.59 1797.56 2685.5 1797.56" stroke="#4472C4" stroke-width="6.875" stroke-linecap="round" stroke-linejoin="round" stroke-miterlimit="10" stroke-opacity="1" fill="none" fill-rule="nonzero"/></g><g clip-path="url(#clip13)"><path d="M1314 2043.07 1339.04 2038.07 1363.04 2119.07 1388.05 2350 1412.05 2345.08 1437.05 2243.07 1461.05 2166.07 1486.05 2169.07 1510.05 2302.08 1535.05 2336.08 1559.05 2319.08 1584.05 2273.07 1608.05 2214.07 1633.05 2206.07 1657.05 2123.07 1682.06 2105.07 1706.06 2062.07 1731.06 2049.07 1755.06 2021.07 1780.06 1973.06 1804.06 1925.06 1828.06 1921.06 1853.06 1905.06 1877.06 1908.06 1902.06 1889.06 1926.06 1906.06 1951.06 1900.06 1975.06 1884.06 2000.07 1873.06 2024.07 1860.06 2049.07 1881.06 2073.07 1823.06 2098.07 1804.06 2122.07 1805.06 2147.07 1796.06 2171.07 1789 2196.07 1802.06 2220.07 1804.06 2245.07 1815.06 2269.07 1804.06 2294.08 1809.06 2318.08 1822.06 2343.08 1813.06 2367.08 1796.06 2392.08 1796.06 2416.08 1798.06 2441.08 1796.06 2465.08 1802.06 2490.08 1827.06 2514.08 1841.06 2539.08 1836.06 2563.08 1795.06 2588.08 1795.06 2612.09 1795.06 2637.09 1795.06 2661.09 1798.06 2686 1798.06" stroke="#4472C4" stroke-width="10.3125" stroke-linecap="round" stroke-linejoin="round" stroke-miterlimit="10" stroke-opacity="1" fill="none" fill-rule="nonzero"/></g><g clip-path="url(#clip14)"><path d="M1314.5 2043.57 1338.54 2038.57 1363.54 2119.57 1387.55 2349.5 1412.55 2345.58 1436.55 2243.57 1461.55 2166.57 1485.55 2168.57 1510.55 2302.58 1534.55 2335.58 1559.55 2319.58 1583.55 2272.57 1608.55 2213.57 1632.55 2205.57 1657.55 2122.57 1681.56 2105.57 1706.56 2061.57 1730.56 2048.57 1755.56 2021.57 1779.56 1973.56 1803.56 1924.56 1828.56 1920.56 1852.56 1905.56 1877.56 1908.56 1901.56 1888.56 1926.56 1906.56 1950.56 1899.56 1975.56 1884.56 1999.57 1873.56 2024.57 1860.56 2048.57 1881.56 2073.57 1823.56 2097.57 1804.56 2122.57 1804.56 2146.57 1795.56 2171.57 1789.5 2195.57 1802.56 2220.57 1804.56 2244.57 1815.56 2269.57 1804.56 2293.58 1808.56 2318.58 1822.56 2342.58 1813.56 2367.58 1795.56 2391.58 1795.56 2416.58 1797.56 2440.58 1795.56 2465.58 1802.56 2489.58 1827.56 2514.58 1840.56 2538.58 1836.56 2563.58 1794.56 2587.58 1794.56 2612.59 1794.56 2636.59 1794.56 2661.59 1797.56 2685.5 1797.56" stroke="#888888" stroke-width="6.875" stroke-linecap="round" stroke-linejoin="round" stroke-miterlimit="10" stroke-opacity="1" fill="none" fill-rule="nonzero"/></g><g clip-path="url(#clip15)"><path d="M1314 2043.07 1339.04 2038.07 1363.04 2119.07 1388.05 2350 1412.05 2345.08 1437.05 2243.07 1461.05 2166.07 1486.05 2169.07 1510.05 2302.08 1535.05 2336.08 1559.05 2319.08 1584.05 2273.07 1608.05 2214.07 1633.05 2206.07 1657.05 2123.07 1682.06 2105.07 1706.06 2062.07 1731.06 2049.07 1755.06 2021.07 1780.06 1973.06 1804.06 1925.06 1828.06 1921.06 1853.06 1905.06 1877.06 1908.06 1902.06 1889.06 1926.06 1906.06 1951.06 1900.06 1975.06 1884.06 2000.07 1873.06 2024.07 1860.06 2049.07 1881.06 2073.07 1823.06 2098.07 1804.06 2122.07 1805.06 2147.07 1796.06 2171.07 1789 2196.07 1802.06 2220.07 1804.06 2245.07 1815.06 2269.07 1804.06 2294.08 1809.06 2318.08 1822.06 2343.08 1813.06 2367.08 1796.06 2392.08 1796.06 2416.08 1798.06 2441.08 1796.06 2465.08 1802.06 2490.08 1827.06 2514.08 1841.06 2539.08 1836.06 2563.08 1795.06 2588.08 1795.06 2612.09 1795.06 2637.09 1795.06 2661.09 1798.06 2686 1798.06" stroke="#4472C4" stroke-width="10.3125" stroke-linecap="round" stroke-linejoin="round" stroke-miterlimit="10" stroke-opacity="1" fill="none" fill-rule="nonzero"/></g><g clip-path="url(#clip16)"><path d="M1314.5 2043.57 1338.54 2038.57 1363.54 2119.57 1387.55 2349.5 1412.55 2345.58 1436.55 2243.57 1461.55 2166.57 1485.55 2168.57 1510.55 2302.58 1534.55 2335.58 1559.55 2319.58 1583.55 2272.57 1608.55 2213.57 1632.55 2205.57 1657.55 2122.57 1681.56 2105.57 1706.56 2061.57 1730.56 2048.57 1755.56 2021.57 1779.56 1973.56 1803.56 1924.56 1828.56 1920.56 1852.56 1905.56 1877.56 1908.56 1901.56 1888.56 1926.56 1906.56 1950.56 1899.56 1975.56 1884.56 1999.57 1873.56 2024.57 1860.56 2048.57 1881.56 2073.57 1823.56 2097.57 1804.56 2122.57 1804.56 2146.57 1795.56 2171.57 1789.5 2195.57 1802.56 2220.57 1804.56 2244.57 1815.56 2269.57 1804.56 2293.58 1808.56 2318.58 1822.56 2342.58 1813.56 2367.58 1795.56 2391.58 1795.56 2416.58 1797.56 2440.58 1795.56 2465.58 1802.56 2489.58 1827.56 2514.58 1840.56 2538.58 1836.56 2563.58 1794.56 2587.58 1794.56 2612.59 1794.56 2636.59 1794.56 2661.59 1797.56 2685.5 1797.56" stroke="#C46627" stroke-width="6.875" stroke-linecap="round" stroke-linejoin="round" stroke-miterlimit="10" stroke-opacity="1" fill="none" fill-rule="nonzero"/></g><g clip-path="url(#clip17)"><path d="M1314 2043.07 1339.04 2038.07 1363.04 2119.07 1388.05 2350 1412.05 2345.08 1437.05 2243.07 1461.05 2166.07 1486.05 2169.07 1510.05 2302.08 1535.05 2336.08 1559.05 2319.08 1584.05 2273.07 1608.05 2214.07 1633.05 2206.07 1657.05 2123.07 1682.06 2105.07 1706.06 2062.07 1731.06 2049.07 1755.06 2021.07 1780.06 1973.06 1804.06 1925.06 1828.06 1921.06 1853.06 1905.06 1877.06 1908.06 1902.06 1889.06 1926.06 1906.06 1951.06 1900.06 1975.06 1884.06 2000.07 1873.06 2024.07 1860.06 2049.07 1881.06 2073.07 1823.06 2098.07 1804.06 2122.07 1805.06 2147.07 1796.06 2171.07 1789 2196.07 1802.06 2220.07 1804.06 2245.07 1815.06 2269.07 1804.06 2294.08 1809.06 2318.08 1822.06 2343.08 1813.06 2367.08 1796.06 2392.08 1796.06 2416.08 1798.06 2441.08 1796.06 2465.08 1802.06 2490.08 1827.06 2514.08 1841.06 2539.08 1836.06 2563.08 1795.06 2588.08 1795.06 2612.09 1795.06 2637.09 1795.06 2661.09 1798.06 2686 1798.06" stroke="#4472C4" stroke-width="10.3125" stroke-linecap="round" stroke-linejoin="round" stroke-miterlimit="10" stroke-opacity="1" fill="none" fill-rule="nonzero"/></g><g clip-path="url(#clip18)"><text fill="#000000" fill-opacity="1" font-family="Calibri,Calibri_MSFontService,sans-serif" font-style="normal" font-variant="normal" font-weight="400" font-stretch="normal" font-size="41" text-anchor="start" direction="ltr" writing-mode="lr-tb" unicode-bidi="normal" text-decoration="none" transform="matrix(1 0 0 1 1234.13 2427)">30</text></g><g clip-path="url(#clip19)"><text fill="#000000" fill-opacity="1" font-family="Calibri,Calibri_MSFontService,sans-serif" font-style="normal" font-variant="normal" font-weight="400" font-stretch="normal" font-size="41" text-anchor="start" direction="ltr" writing-mode="lr-tb" unicode-bidi="normal" text-decoration="none" transform="matrix(1 0 0 1 1234.13 2335)">40</text></g><g clip-path="url(#clip20)"><text fill="#000000" fill-opacity="1" font-family="Calibri,Calibri_MSFontService,sans-serif" font-style="normal" font-variant="normal" font-weight="400" font-stretch="normal" font-size="41" text-anchor="start" direction="ltr" writing-mode="lr-tb" unicode-bidi="normal" text-decoration="none" transform="matrix(1 0 0 1 1234.13 2243)">50</text></g><g clip-path="url(#clip21)"><text fill="#000000" fill-opacity="1" font-family="Calibri,Calibri_MSFontService,sans-serif" font-style="normal" font-variant="normal" font-weight="400" font-stretch="normal" font-size="41" text-anchor="start" direction="ltr" writing-mode="lr-tb" unicode-bidi="normal" text-decoration="none" transform="matrix(1 0 0 1 1234.13 2151)">60</text></g><g clip-path="url(#clip22)"><text fill="#000000" fill-opacity="1" font-family="Calibri,Calibri_MSFontService,sans-serif" font-style="normal" font-variant="normal" font-weight="400" font-stretch="normal" font-size="41" text-anchor="start" direction="ltr" writing-mode="lr-tb" unicode-bidi="normal" text-decoration="none" transform="matrix(1 0 0 1 1234.13 2059)">70</text></g><g clip-path="url(#clip23)"><text fill="#000000" fill-opacity="1" font-family="Calibri,Calibri_MSFontService,sans-serif" font-style="normal" font-variant="normal" font-weight="400" font-stretch="normal" font-size="41" text-anchor="start" direction="ltr" writing-mode="lr-tb" unicode-bidi="normal" text-decoration="none" transform="matrix(1 0 0 1 1234.13 1967)">80</text></g><g clip-path="url(#clip24)"><text fill="#000000" fill-opacity="1" font-family="Calibri,Calibri_MSFontService,sans-serif" font-style="normal" font-variant="normal" font-weight="400" font-stretch="normal" font-size="41" text-anchor="start" direction="ltr" writing-mode="lr-tb" unicode-bidi="normal" text-decoration="none" transform="matrix(1 0 0 1 1234.13 1874)">90</text></g><g clip-path="url(#clip25)"><text fill="#000000" fill-opacity="1" font-family="Calibri,Calibri_MSFontService,sans-serif" font-style="normal" font-variant="normal" font-weight="400" font-stretch="normal" font-size="41" text-anchor="start" direction="ltr" writing-mode="lr-tb" unicode-bidi="normal" text-decoration="none" transform="matrix(1 0 0 1 1213.23 1782)">100</text></g><g clip-path="url(#clip26)"><text fill="#000000" fill-opacity="1" font-family="Calibri,Calibri_MSFontService,sans-serif" font-style="normal" font-variant="normal" font-weight="400" font-stretch="normal" font-size="41" text-anchor="start" direction="ltr" writing-mode="lr-tb" unicode-bidi="normal" text-decoration="none" transform="matrix(6.12323e-17 -1 1 6.12323e-17 1328.02 2557)">Apr-05</text></g><g clip-path="url(#clip27)"><text fill="#000000" fill-opacity="1" font-family="Calibri,Calibri_MSFontService,sans-serif" font-style="normal" font-variant="normal" font-weight="400" font-stretch="normal" font-size="41" text-anchor="start" direction="ltr" writing-mode="lr-tb" unicode-bidi="normal" text-decoration="none" transform="matrix(6.12323e-17 -1 1 6.12323e-17 1393.33 2560)">Dec-05</text></g><g clip-path="url(#clip28)"><text fill="#000000" fill-opacity="1" font-family="Calibri,Calibri_MSFontService,sans-serif" font-style="normal" font-variant="normal" font-weight="400" font-stretch="normal" font-size="41" text-anchor="start" direction="ltr" writing-mode="lr-tb" unicode-bidi="normal" text-decoration="none" transform="matrix(6.12323e-17 -1 1 6.12323e-17 1458.65 2562)">Aug-06</text></g><g clip-path="url(#clip29)"><text fill="#000000" fill-opacity="1" font-family="Calibri,Calibri_MSFontService,sans-serif" font-style="normal" font-variant="normal" font-weight="400" font-stretch="normal" font-size="41" text-anchor="start" direction="ltr" writing-mode="lr-tb" unicode-bidi="normal" text-decoration="none" transform="matrix(6.12323e-17 -1 1 6.12323e-17 1523.97 2557)">Apr-07</text></g><g clip-path="url(#clip30)"><text fill="#000000" fill-opacity="1" font-family="Calibri,Calibri_MSFontService,sans-serif" font-style="normal" font-variant="normal" font-weight="400" font-stretch="normal" font-size="41" text-anchor="start" direction="ltr" writing-mode="lr-tb" unicode-bidi="normal" text-decoration="none" transform="matrix(6.12323e-17 -1 1 6.12323e-17 1589.28 2560)">Dec-07</text></g><g clip-path="url(#clip31)"><text fill="#000000" fill-opacity="1" font-family="Calibri,Calibri_MSFontService,sans-serif" font-style="normal" font-variant="normal" font-weight="400" font-stretch="normal" font-size="41" text-anchor="start" direction="ltr" writing-mode="lr-tb" unicode-bidi="normal" text-decoration="none" transform="matrix(6.12323e-17 -1 1 6.12323e-17 1654.6 2562)">Aug-08</text></g><g clip-path="url(#clip32)"><text fill="#000000" fill-opacity="1" font-family="Calibri,Calibri_MSFontService,sans-serif" font-style="normal" font-variant="normal" font-weight="400" font-stretch="normal" font-size="41" text-anchor="start" direction="ltr" writing-mode="lr-tb" unicode-bidi="normal" text-decoration="none" transform="matrix(6.12323e-17 -1 1 6.12323e-17 1719.92 2557)">Apr-09</text></g><g clip-path="url(#clip33)"><text fill="#000000" fill-opacity="1" font-family="Calibri,Calibri_MSFontService,sans-serif" font-style="normal" font-variant="normal" font-weight="400" font-stretch="normal" font-size="41" text-anchor="start" direction="ltr" writing-mode="lr-tb" unicode-bidi="normal" text-decoration="none" transform="matrix(6.12323e-17 -1 1 6.12323e-17 1785.23 2560)">Dec-09</text></g><g clip-path="url(#clip34)"><text fill="#000000" fill-opacity="1" font-family="Calibri,Calibri_MSFontService,sans-serif" font-style="normal" font-variant="normal" font-weight="400" font-stretch="normal" font-size="41" text-anchor="start" direction="ltr" writing-mode="lr-tb" unicode-bidi="normal" text-decoration="none" transform="matrix(6.12323e-17 -1 1 6.12323e-17 1850.55 2562)">Aug-10</text></g><g clip-path="url(#clip35)"><text fill="#000000" fill-opacity="1" font-family="Calibri,Calibri_MSFontService,sans-serif" font-style="normal" font-variant="normal" font-weight="400" font-stretch="normal" font-size="41" text-anchor="start" direction="ltr" writing-mode="lr-tb" unicode-bidi="normal" text-decoration="none" transform="matrix(6.12323e-17 -1 1 6.12323e-17 1915.87 2557)">Apr-11</text></g><g clip-path="url(#clip36)"><text fill="#000000" fill-opacity="1" font-family="Calibri,Calibri_MSFontService,sans-serif" font-style="normal" font-variant="normal" font-weight="400" font-stretch="normal" font-size="41" text-anchor="start" direction="ltr" writing-mode="lr-tb" unicode-bidi="normal" text-decoration="none" transform="matrix(6.12323e-17 -1 1 6.12323e-17 1981.19 2560)">Dec-11</text></g><g clip-path="url(#clip37)"><text fill="#000000" fill-opacity="1" font-family="Calibri,Calibri_MSFontService,sans-serif" font-style="normal" font-variant="normal" font-weight="400" font-stretch="normal" font-size="41" text-anchor="start" direction="ltr" writing-mode="lr-tb" unicode-bidi="normal" text-decoration="none" transform="matrix(6.12323e-17 -1 1 6.12323e-17 2046.5 2562)">Aug-12</text></g><g clip-path="url(#clip38)"><text fill="#000000" fill-opacity="1" font-family="Calibri,Calibri_MSFontService,sans-serif" font-style="normal" font-variant="normal" font-weight="400" font-stretch="normal" font-size="41" text-anchor="start" direction="ltr" writing-mode="lr-tb" unicode-bidi="normal" text-decoration="none" transform="matrix(6.12323e-17 -1 1 6.12323e-17 2111.82 2557)">Apr-13</text></g><g clip-path="url(#clip39)"><text fill="#000000" fill-opacity="1" font-family="Calibri,Calibri_MSFontService,sans-serif" font-style="normal" font-variant="normal" font-weight="400" font-stretch="normal" font-size="41" text-anchor="start" direction="ltr" writing-mode="lr-tb" unicode-bidi="normal" text-decoration="none" transform="matrix(6.12323e-17 -1 1 6.12323e-17 2177.14 2560)">Dec-13</text></g><g clip-path="url(#clip40)"><text fill="#000000" fill-opacity="1" font-family="Calibri,Calibri_MSFontService,sans-serif" font-style="normal" font-variant="normal" font-weight="400" font-stretch="normal" font-size="41" text-anchor="start" direction="ltr" writing-mode="lr-tb" unicode-bidi="normal" text-decoration="none" transform="matrix(6.12323e-17 -1 1 6.12323e-17 2242.45 2562)">Aug-14</text></g><g clip-path="url(#clip41)"><text fill="#000000" fill-opacity="1" font-family="Calibri,Calibri_MSFontService,sans-serif" font-style="normal" font-variant="normal" font-weight="400" font-stretch="normal" font-size="41" text-anchor="start" direction="ltr" writing-mode="lr-tb" unicode-bidi="normal" text-decoration="none" transform="matrix(6.12323e-17 -1 1 6.12323e-17 2307.77 2557)">Apr-15</text></g><g clip-path="url(#clip42)"><text fill="#000000" fill-opacity="1" font-family="Calibri,Calibri_MSFontService,sans-serif" font-style="normal" font-variant="normal" font-weight="400" font-stretch="normal" font-size="41" text-anchor="start" direction="ltr" writing-mode="lr-tb" unicode-bidi="normal" text-decoration="none" transform="matrix(6.12323e-17 -1 1 6.12323e-17 2373.09 2560)">Dec-15</text></g><g clip-path="url(#clip43)"><text fill="#000000" fill-opacity="1" font-family="Calibri,Calibri_MSFontService,sans-serif" font-style="normal" font-variant="normal" font-weight="400" font-stretch="normal" font-size="41" text-anchor="start" direction="ltr" writing-mode="lr-tb" unicode-bidi="normal" text-decoration="none" transform="matrix(6.12323e-17 -1 1 6.12323e-17 2438.4 2562)">Aug-16</text></g><g clip-path="url(#clip44)"><text fill="#000000" fill-opacity="1" font-family="Calibri,Calibri_MSFontService,sans-serif" font-style="normal" font-variant="normal" font-weight="400" font-stretch="normal" font-size="41" text-anchor="start" direction="ltr" writing-mode="lr-tb" unicode-bidi="normal" text-decoration="none" transform="matrix(6.12323e-17 -1 1 6.12323e-17 2503.72 2557)">Apr-17</text></g><g clip-path="url(#clip45)"><text fill="#000000" fill-opacity="1" font-family="Calibri,Calibri_MSFontService,sans-serif" font-style="normal" font-variant="normal" font-weight="400" font-stretch="normal" font-size="41" text-anchor="start" direction="ltr" writing-mode="lr-tb" unicode-bidi="normal" text-decoration="none" transform="matrix(6.12323e-17 -1 1 6.12323e-17 2569.04 2560)">Dec-17</text></g><g clip-path="url(#clip46)"><text fill="#000000" fill-opacity="1" font-family="Calibri,Calibri_MSFontService,sans-serif" font-style="normal" font-variant="normal" font-weight="400" font-stretch="normal" font-size="41" text-anchor="start" direction="ltr" writing-mode="lr-tb" unicode-bidi="normal" text-decoration="none" transform="matrix(6.12323e-17 -1 1 6.12323e-17 2634.35 2562)">Aug-18</text></g><g clip-path="url(#clip47)"><text fill="#000000" fill-opacity="1" font-family="Calibri,Calibri_MSFontService,sans-serif" font-style="normal" font-variant="normal" font-weight="400" font-stretch="normal" font-size="41" text-anchor="start" direction="ltr" writing-mode="lr-tb" unicode-bidi="normal" text-decoration="none" transform="matrix(6.12323e-17 -1 1 6.12323e-17 2699.67 2557)">Apr-19</text></g><g clip-path="url(#clip48)"><text fill="#000000" fill-opacity="1" font-family="Calibri,Calibri_MSFontService,sans-serif" font-style="normal" font-variant="normal" font-weight="400" font-stretch="normal" font-size="46" text-anchor="start" direction="ltr" writing-mode="lr-tb" unicode-bidi="normal" text-decoration="none" transform="matrix(6.12323e-17 -1 1 6.12323e-17 1187.54 2199)">Percentage</text></g><g clip-path="url(#clip49)"><text fill="#000000" fill-opacity="1" font-family="Calibri,Calibri_MSFontService,sans-serif" font-style="normal" font-variant="normal" font-weight="400" font-stretch="normal" font-size="64" text-anchor="start" direction="ltr" writing-mode="lr-tb" unicode-bidi="normal" text-decoration="none" transform="matrix(1 0 0 1 1755.93 1697)">Meth Purity</text></g><g clip-path="url(#clip50)"><text fill="#D0CECE" fill-opacity="1" font-family="Courier,Courier_MSFontService,sans-serif" font-style="normal" font-variant="normal" font-weight="400" font-stretch="normal" font-size="37" text-anchor="start" direction="ltr" writing-mode="lr-tb" unicode-bidi="normal" text-decoration="none" transform="matrix(1 0 0 1 2393.41 2410)">dynomight.net</text></g></g></svg>