<svg width="1650" height="990" xmlns="http://www.w3.org/2000/svg" xmlns:xlink="http://www.w3.org/1999/xlink" overflow="hidden"><defs><clipPath id="clip0"><rect x="1081" y="1585" width="1650" height="990"/></clipPath><clipPath id="clip1"><rect x="1084" y="1590" width="1646" height="982"/></clipPath><clipPath id="clip2"><rect x="1312" y="1760" width="1371" height="640"/></clipPath><clipPath id="clip3"><rect x="1312" y="1760" width="1371" height="640"/></clipPath><clipPath id="clip4"><rect x="1312" y="1760" width="1371" height="640"/></clipPath><clipPath id="clip5"><rect x="1312" y="1760" width="1371" height="640"/></clipPath><clipPath id="clip6"><rect x="1312" y="1760" width="1371" height="640"/></clipPath><clipPath id="clip7"><rect x="1312" y="1760" width="1371" height="640"/></clipPath><clipPath id="clip8"><rect x="1312" y="1760" width="1371" height="640"/></clipPath><clipPath id="clip9"><rect x="1312" y="1760" width="1371" height="640"/></clipPath><clipPath id="clip10"><rect x="1312" y="1760" width="1371" height="640"/></clipPath><clipPath id="clip11"><rect x="1312" y="1760" width="1371" height="640"/></clipPath><clipPath id="clip12"><rect x="1312" y="1760" width="1371" height="640"/></clipPath><clipPath id="clip13"><rect x="1312" y="1760" width="1371" height="640"/></clipPath><clipPath id="clip14"><rect x="1312" y="1760" width="1371" height="640"/></clipPath><clipPath id="clip15"><rect x="1312" y="1760" width="1371" height="640"/></clipPath><clipPath id="clip16"><rect x="1312" y="1760" width="1371" height="640"/></clipPath><clipPath id="clip17"><rect x="1312" y="1760" width="1371" height="640"/></clipPath><clipPath id="clip18"><rect x="1084" y="1590" width="1646" height="982"/></clipPath><clipPath id="clip19"><rect x="1084" y="1590" width="1646" height="982"/></clipPath><clipPath id="clip20"><rect x="1084" y="1590" width="1646" height="982"/></clipPath><clipPath id="clip21"><rect x="1084" y="1590" width="1646" height="982"/></clipPath><clipPath id="clip22"><rect x="1084" y="1590" width="1646" height="982"/></clipPath><clipPath id="clip23"><rect x="1084" y="1590" width="1646" height="982"/></clipPath><clipPath id="clip24"><rect x="1084" y="1590" width="1646" height="982"/></clipPath><clipPath id="clip25"><rect x="1084" y="1590" width="1646" height="982"/></clipPath><clipPath id="clip26"><rect x="1084" y="1590" width="1646" height="982"/></clipPath><clipPath id="clip27"><rect x="1084" y="1590" width="1646" height="982"/></clipPath><clipPath id="clip28"><rect x="1084" y="1590" width="1646" height="982"/></clipPath><clipPath id="clip29"><rect x="1084" y="1590" width="1646" height="982"/></clipPath><clipPath id="clip30"><rect x="1084" y="1590" width="1646" height="982"/></clipPath><clipPath id="clip31"><rect x="1084" y="1590" width="1646" height="982"/></clipPath><clipPath id="clip32"><rect x="1084" y="1590" width="1646" height="982"/></clipPath><clipPath id="clip33"><rect x="1084" y="1590" width="1646" height="982"/></clipPath><clipPath id="clip34"><rect x="1084" y="1590" width="1646" height="982"/></clipPath><clipPath id="clip35"><rect x="1084" y="1590" width="1646" height="982"/></clipPath><clipPath id="clip36"><rect x="1084" y="1590" width="1646" height="982"/></clipPath><clipPath id="clip37"><rect x="1084" y="1590" width="1646" height="982"/></clipPath><clipPath id="clip38"><rect x="1084" y="1590" width="1646" height="982"/></clipPath><clipPath id="clip39"><rect x="1084" y="1590" width="1646" height="982"/></clipPath><clipPath id="clip40"><rect x="1084" y="1590" width="1646" height="982"/></clipPath><clipPath id="clip41"><rect x="1084" y="1590" width="1646" height="982"/></clipPath><clipPath id="clip42"><rect x="1084" y="1590" width="1646" height="982"/></clipPath><clipPath id="clip43"><rect x="1084" y="1590" width="1646" height="982"/></clipPath><clipPath id="clip44"><rect x="1084" y="1590" width="1646" height="982"/></clipPath><clipPath id="clip45"><rect x="1084" y="1590" width="1646" height="982"/></clipPath><clipPath id="clip46"><rect x="1084" y="1590" width="1646" height="982"/></clipPath><clipPath id="clip47"><rect x="1084" y="1590" width="1646" height="982"/></clipPath><clipPath id="clip48"><rect x="1084" y="1590" width="1646" height="982"/></clipPath><clipPath id="clip49"><rect x="1084" y="1590" width="1646" height="982"/></clipPath><clipPath id="clip50"><rect x="1084" y="1590" width="1647" height="983"/></clipPath><clipPath id="clip51"><rect x="1084" y="1590" width="1647" height="983"/></clipPath></defs><g clip-path="url(#clip0)" transform="translate(-1081 -1585)"><rect x="1084" y="1590" width="1647" height="982" fill="#FFFFFF" fill-opacity="1"/><g clip-path="url(#clip1)"><rect x="1312" y="1760" width="1368" height="637" fill="#FFFFFF" fill-opacity="1"/></g><g clip-path="url(#clip2)"><path d="M1312.5 2028.57 1336.54 2023.57 1361.54 2103.57 1385.55 2331.5 1409.55 2326.58 1434.55 2225.57 1458.55 2149.57 1483.55 2152.57 1507.55 2284.58 1532.55 2317.58 1556.55 2300.58 1580.55 2255.57 1605.55 2196.57 1629.55 2188.57 1654.55 2106.57 1678.56 2089.57 1703.56 2046.57 1727.56 2033.57 1751.56 2006.57 1776.56 1959.56 1800.56 1911.56 1825.56 1907.56 1849.56 1892.56 1874.56 1894.56 1898.56 1875.56 1922.56 1892.56 1947.56 1886.56 1971.56 1871.56 1996.57 1860.56 2020.57 1847.56 2045.57 1868.56 2069.57 1811.56 2093.57 1791.56 2118.57 1792.56 2142.57 1783.56 2167.57 1777.5 2191.57 1790.56 2216.57 1791.56 2240.57 1802.56 2264.57 1791.56 2289.58 1796.56 2313.58 1810.56 2338.58 1801.56 2362.58 1783.56 2387.58 1783.56 2411.58 1785.56 2435.58 1783.56 2460.58 1790.56 2484.58 1814.56 2509.58 1828.56 2533.58 1823.56 2558.58 1782.56 2582.58 1782.56 2606.59 1782.56 2631.59 1782.56 2655.59 1785.56 2680.5 1785.56" stroke="#A5A5A5" stroke-width="6.875" stroke-linecap="round" stroke-linejoin="round" stroke-miterlimit="10" stroke-opacity="1" fill="none" fill-rule="nonzero"/></g><g clip-path="url(#clip3)"><path d="M1312 2028.07 1337.04 2023.07 1361.04 2104.07 1386.05 2331 1410.05 2327.08 1434.05 2226.07 1459.05 2150.07 1483.05 2152.07 1508.05 2284.07 1532.05 2317.08 1557.05 2301.08 1581.05 2255.07 1605.05 2197.07 1630.05 2189.07 1654.05 2107.07 1679.06 2089.07 1703.06 2047.07 1728.06 2034.07 1752.06 2007.07 1776.06 1959.06 1801.06 1911.06 1825.06 1907.06 1850.06 1892.06 1874.06 1895.06 1899.06 1876.06 1923.06 1893.06 1947.06 1887.06 1972.06 1871.06 1996.07 1860.06 2021.07 1847.06 2045.07 1868.06 2070.07 1811.06 2094.07 1792.06 2118.07 1793.06 2143.07 1784.06 2167.07 1777 2192.07 1790.06 2216.07 1792.06 2240.07 1803.06 2265.07 1792.06 2289.08 1796.06 2314.08 1810.06 2338.08 1801.06 2363.08 1784.06 2387.08 1784.06 2411.08 1786.06 2436.08 1784.06 2460.08 1790.06 2485.08 1815.06 2509.08 1828.06 2534.08 1824.06 2558.08 1783.06 2582.08 1783.06 2607.09 1783.06 2631.09 1783.06 2656.09 1786.06 2680 1786.06" stroke="#4472C4" stroke-width="10.3125" stroke-linecap="round" stroke-linejoin="round" stroke-miterlimit="10" stroke-opacity="1" fill="none" fill-rule="nonzero"/></g><g clip-path="url(#clip4)"><path d="M1312.5 2028.57 1336.54 2023.57 1361.54 2103.57 1385.55 2331.5 1409.55 2326.58 1434.55 2225.57 1458.55 2149.57 1483.55 2152.57 1507.55 2284.58 1532.55 2317.58 1556.55 2300.58 1580.55 2255.57 1605.55 2196.57 1629.55 2188.57 1654.55 2106.57 1678.56 2089.57 1703.56 2046.57 1727.56 2033.57 1751.56 2006.57 1776.56 1959.56 1800.56 1911.56 1825.56 1907.56 1849.56 1892.56 1874.56 1894.56 1898.56 1875.56 1922.56 1892.56 1947.56 1886.56 1971.56 1871.56 1996.57 1860.56 2020.57 1847.56 2045.57 1868.56 2069.57 1811.56 2093.57 1791.56 2118.57 1792.56 2142.57 1783.56 2167.57 1777.5 2191.57 1790.56 2216.57 1791.56 2240.57 1802.56 2264.57 1791.56 2289.58 1796.56 2313.58 1810.56 2338.58 1801.56 2362.58 1783.56 2387.58 1783.56 2411.58 1785.56 2435.58 1783.56 2460.58 1790.56 2484.58 1814.56 2509.58 1828.56 2533.58 1823.56 2558.58 1782.56 2582.58 1782.56 2606.59 1782.56 2631.59 1782.56 2655.59 1785.56 2680.5 1785.56" stroke="#5B9BD5" stroke-width="6.875" stroke-linecap="round" stroke-linejoin="round" stroke-miterlimit="10" stroke-opacity="1" fill="none" fill-rule="nonzero"/></g><g clip-path="url(#clip5)"><path d="M1312 2028.07 1337.04 2023.07 1361.04 2104.07 1386.05 2331 1410.05 2327.08 1434.05 2226.07 1459.05 2150.07 1483.05 2152.07 1508.05 2284.07 1532.05 2317.08 1557.05 2301.08 1581.05 2255.07 1605.05 2197.07 1630.05 2189.07 1654.05 2107.07 1679.06 2089.07 1703.06 2047.07 1728.06 2034.07 1752.06 2007.07 1776.06 1959.06 1801.06 1911.06 1825.06 1907.06 1850.06 1892.06 1874.06 1895.06 1899.06 1876.06 1923.06 1893.06 1947.06 1887.06 1972.06 1871.06 1996.07 1860.06 2021.07 1847.06 2045.07 1868.06 2070.07 1811.06 2094.07 1792.06 2118.07 1793.06 2143.07 1784.06 2167.07 1777 2192.07 1790.06 2216.07 1792.06 2240.07 1803.06 2265.07 1792.06 2289.08 1796.06 2314.08 1810.06 2338.08 1801.06 2363.08 1784.06 2387.08 1784.06 2411.08 1786.06 2436.08 1784.06 2460.08 1790.06 2485.08 1815.06 2509.08 1828.06 2534.08 1824.06 2558.08 1783.06 2582.08 1783.06 2607.09 1783.06 2631.09 1783.06 2656.09 1786.06 2680 1786.06" stroke="#4472C4" stroke-width="10.3125" stroke-linecap="round" stroke-linejoin="round" stroke-miterlimit="10" stroke-opacity="1" fill="none" fill-rule="nonzero"/></g><g clip-path="url(#clip6)"><path d="M1312.5 2028.57 1336.54 2023.57 1361.54 2103.57 1385.55 2331.5 1409.55 2326.58 1434.55 2225.57 1458.55 2149.57 1483.55 2152.57 1507.55 2284.58 1532.55 2317.58 1556.55 2300.58 1580.55 2255.57 1605.55 2196.57 1629.55 2188.57 1654.55 2106.57 1678.56 2089.57 1703.56 2046.57 1727.56 2033.57 1751.56 2006.57 1776.56 1959.56 1800.56 1911.56 1825.56 1907.56 1849.56 1892.56 1874.56 1894.56 1898.56 1875.56 1922.56 1892.56 1947.56 1886.56 1971.56 1871.56 1996.57 1860.56 2020.57 1847.56 2045.57 1868.56 2069.57 1811.56 2093.57 1791.56 2118.57 1792.56 2142.57 1783.56 2167.57 1777.5 2191.57 1790.56 2216.57 1791.56 2240.57 1802.56 2264.57 1791.56 2289.58 1796.56 2313.58 1810.56 2338.58 1801.56 2362.58 1783.56 2387.58 1783.56 2411.58 1785.56 2435.58 1783.56 2460.58 1790.56 2484.58 1814.56 2509.58 1828.56 2533.58 1823.56 2558.58 1782.56 2582.58 1782.56 2606.59 1782.56 2631.59 1782.56 2655.59 1785.56 2680.5 1785.56" stroke="#A7B5DB" stroke-width="6.875" stroke-linecap="round" stroke-linejoin="round" stroke-miterlimit="10" stroke-opacity="1" fill="none" fill-rule="nonzero"/></g><g clip-path="url(#clip7)"><path d="M1312 2028.07 1337.04 2023.07 1361.04 2104.07 1386.05 2331 1410.05 2327.08 1434.05 2226.07 1459.05 2150.07 1483.05 2152.07 1508.05 2284.07 1532.05 2317.08 1557.05 2301.08 1581.05 2255.07 1605.05 2197.07 1630.05 2189.07 1654.05 2107.07 1679.06 2089.07 1703.06 2047.07 1728.06 2034.07 1752.06 2007.07 1776.06 1959.06 1801.06 1911.06 1825.06 1907.06 1850.06 1892.06 1874.06 1895.06 1899.06 1876.06 1923.06 1893.06 1947.06 1887.06 1972.06 1871.06 1996.07 1860.06 2021.07 1847.06 2045.07 1868.06 2070.07 1811.06 2094.07 1792.06 2118.07 1793.06 2143.07 1784.06 2167.07 1777 2192.07 1790.06 2216.07 1792.06 2240.07 1803.06 2265.07 1792.06 2289.08 1796.06 2314.08 1810.06 2338.08 1801.06 2363.08 1784.06 2387.08 1784.06 2411.08 1786.06 2436.08 1784.06 2460.08 1790.06 2485.08 1815.06 2509.08 1828.06 2534.08 1824.06 2558.08 1783.06 2582.08 1783.06 2607.09 1783.06 2631.09 1783.06 2656.09 1786.06 2680 1786.06" stroke="#4472C4" stroke-width="10.3125" stroke-linecap="round" stroke-linejoin="round" stroke-miterlimit="10" stroke-opacity="1" fill="none" fill-rule="nonzero"/></g><g clip-path="url(#clip8)"><path d="M1312.5 2028.57 1336.54 2023.57 1361.54 2103.57 1385.55 2331.5 1409.55 2326.58 1434.55 2225.57 1458.55 2149.57 1483.55 2152.57 1507.55 2284.58 1532.55 2317.58 1556.55 2300.58 1580.55 2255.57 1605.55 2196.57 1629.55 2188.57 1654.55 2106.57 1678.56 2089.57 1703.56 2046.57 1727.56 2033.57 1751.56 2006.57 1776.56 1959.56 1800.56 1911.56 1825.56 1907.56 1849.56 1892.56 1874.56 1894.56 1898.56 1875.56 1922.56 1892.56 1947.56 1886.56 1971.56 1871.56 1996.57 1860.56 2020.57 1847.56 2045.57 1868.56 2069.57 1811.56 2093.57 1791.56 2118.57 1792.56 2142.57 1783.56 2167.57 1777.5 2191.57 1790.56 2216.57 1791.56 2240.57 1802.56 2264.57 1791.56 2289.58 1796.56 2313.58 1810.56 2338.58 1801.56 2362.58 1783.56 2387.58 1783.56 2411.58 1785.56 2435.58 1783.56 2460.58 1790.56 2484.58 1814.56 2509.58 1828.56 2533.58 1823.56 2558.58 1782.56 2582.58 1782.56 2606.59 1782.56 2631.59 1782.56 2655.59 1785.56 2680.5 1785.56" stroke="#CBCBCB" stroke-width="6.875" stroke-linecap="round" stroke-linejoin="round" stroke-miterlimit="10" stroke-opacity="1" fill="none" fill-rule="nonzero"/></g><g clip-path="url(#clip9)"><path d="M1312 2028.07 1337.04 2023.07 1361.04 2104.07 1386.05 2331 1410.05 2327.08 1434.05 2226.07 1459.05 2150.07 1483.05 2152.07 1508.05 2284.07 1532.05 2317.08 1557.05 2301.08 1581.05 2255.07 1605.05 2197.07 1630.05 2189.07 1654.05 2107.07 1679.06 2089.07 1703.06 2047.07 1728.06 2034.07 1752.06 2007.07 1776.06 1959.06 1801.06 1911.06 1825.06 1907.06 1850.06 1892.06 1874.06 1895.06 1899.06 1876.06 1923.06 1893.06 1947.06 1887.06 1972.06 1871.06 1996.07 1860.06 2021.07 1847.06 2045.07 1868.06 2070.07 1811.06 2094.07 1792.06 2118.07 1793.06 2143.07 1784.06 2167.07 1777 2192.07 1790.06 2216.07 1792.06 2240.07 1803.06 2265.07 1792.06 2289.08 1796.06 2314.08 1810.06 2338.08 1801.06 2363.08 1784.06 2387.08 1784.06 2411.08 1786.06 2436.08 1784.06 2460.08 1790.06 2485.08 1815.06 2509.08 1828.06 2534.08 1824.06 2558.08 1783.06 2582.08 1783.06 2607.09 1783.06 2631.09 1783.06 2656.09 1786.06 2680 1786.06" stroke="#4472C4" stroke-width="10.3125" stroke-linecap="round" stroke-linejoin="round" stroke-miterlimit="10" stroke-opacity="1" fill="none" fill-rule="nonzero"/></g><g clip-path="url(#clip10)"><path d="M1312.5 2028.57 1336.54 2023.57 1361.54 2103.57 1385.55 2331.5 1409.55 2326.58 1434.55 2225.57 1458.55 2149.57 1483.55 2152.57 1507.55 2284.58 1532.55 2317.58 1556.55 2300.58 1580.55 2255.57 1605.55 2196.57 1629.55 2188.57 1654.55 2106.57 1678.56 2089.57 1703.56 2046.57 1727.56 2033.57 1751.56 2006.57 1776.56 1959.56 1800.56 1911.56 1825.56 1907.56 1849.56 1892.56 1874.56 1894.56 1898.56 1875.56 1922.56 1892.56 1947.56 1886.56 1971.56 1871.56 1996.57 1860.56 2020.57 1847.56 2045.57 1868.56 2069.57 1811.56 2093.57 1791.56 2118.57 1792.56 2142.57 1783.56 2167.57 1777.5 2191.57 1790.56 2216.57 1791.56 2240.57 1802.56 2264.57 1791.56 2289.58 1796.56 2313.58 1810.56 2338.58 1801.56 2362.58 1783.56 2387.58 1783.56 2411.58 1785.56 2435.58 1783.56 2460.58 1790.56 2484.58 1814.56 2509.58 1828.56 2533.58 1823.56 2558.58 1782.56 2582.58 1782.56 2606.59 1782.56 2631.59 1782.56 2655.59 1785.56 2680.5 1785.56" stroke="#4A7FB0" stroke-width="6.875" stroke-linecap="round" stroke-linejoin="round" stroke-miterlimit="10" stroke-opacity="1" fill="none" fill-rule="nonzero"/></g><g clip-path="url(#clip11)"><path d="M1312 2028.07 1337.04 2023.07 1361.04 2104.07 1386.05 2331 1410.05 2327.08 1434.05 2226.07 1459.05 2150.07 1483.05 2152.07 1508.05 2284.07 1532.05 2317.08 1557.05 2301.08 1581.05 2255.07 1605.05 2197.07 1630.05 2189.07 1654.05 2107.07 1679.06 2089.07 1703.06 2047.07 1728.06 2034.07 1752.06 2007.07 1776.06 1959.06 1801.06 1911.06 1825.06 1907.06 1850.06 1892.06 1874.06 1895.06 1899.06 1876.06 1923.06 1893.06 1947.06 1887.06 1972.06 1871.06 1996.07 1860.06 2021.07 1847.06 2045.07 1868.06 2070.07 1811.06 2094.07 1792.06 2118.07 1793.06 2143.07 1784.06 2167.07 1777 2192.07 1790.06 2216.07 1792.06 2240.07 1803.06 2265.07 1792.06 2289.08 1796.06 2314.08 1810.06 2338.08 1801.06 2363.08 1784.06 2387.08 1784.06 2411.08 1786.06 2436.08 1784.06 2460.08 1790.06 2485.08 1815.06 2509.08 1828.06 2534.08 1824.06 2558.08 1783.06 2582.08 1783.06 2607.09 1783.06 2631.09 1783.06 2656.09 1786.06 2680 1786.06" stroke="#4472C4" stroke-width="10.3125" stroke-linecap="round" stroke-linejoin="round" stroke-miterlimit="10" stroke-opacity="1" fill="none" fill-rule="nonzero"/></g><g clip-path="url(#clip12)"><path d="M1312.5 2028.57 1336.54 2023.57 1361.54 2103.57 1385.55 2331.5 1409.55 2326.58 1434.55 2225.57 1458.55 2149.57 1483.55 2152.57 1507.55 2284.58 1532.55 2317.58 1556.55 2300.58 1580.55 2255.57 1605.55 2196.57 1629.55 2188.57 1654.55 2106.57 1678.56 2089.57 1703.56 2046.57 1727.56 2033.57 1751.56 2006.57 1776.56 1959.56 1800.56 1911.56 1825.56 1907.56 1849.56 1892.56 1874.56 1894.56 1898.56 1875.56 1922.56 1892.56 1947.56 1886.56 1971.56 1871.56 1996.57 1860.56 2020.57 1847.56 2045.57 1868.56 2069.57 1811.56 2093.57 1791.56 2118.57 1792.56 2142.57 1783.56 2167.57 1777.5 2191.57 1790.56 2216.57 1791.56 2240.57 1802.56 2264.57 1791.56 2289.58 1796.56 2313.58 1810.56 2338.58 1801.56 2362.58 1783.56 2387.58 1783.56 2411.58 1785.56 2435.58 1783.56 2460.58 1790.56 2484.58 1814.56 2509.58 1828.56 2533.58 1823.56 2558.58 1782.56 2582.58 1782.56 2606.59 1782.56 2631.59 1782.56 2655.59 1785.56 2680.5 1785.56" stroke="#4472C4" stroke-width="6.875" stroke-linecap="round" stroke-linejoin="round" stroke-miterlimit="10" stroke-opacity="1" fill="none" fill-rule="nonzero"/></g><g clip-path="url(#clip13)"><path d="M1312 2028.07 1337.04 2023.07 1361.04 2104.07 1386.05 2331 1410.05 2327.08 1434.05 2226.07 1459.05 2150.07 1483.05 2152.07 1508.05 2284.07 1532.05 2317.08 1557.05 2301.08 1581.05 2255.07 1605.05 2197.07 1630.05 2189.07 1654.05 2107.07 1679.06 2089.07 1703.06 2047.07 1728.06 2034.07 1752.06 2007.07 1776.06 1959.06 1801.06 1911.06 1825.06 1907.06 1850.06 1892.06 1874.06 1895.06 1899.06 1876.06 1923.06 1893.06 1947.06 1887.06 1972.06 1871.06 1996.07 1860.06 2021.07 1847.06 2045.07 1868.06 2070.07 1811.06 2094.07 1792.06 2118.07 1793.06 2143.07 1784.06 2167.07 1777 2192.07 1790.06 2216.07 1792.06 2240.07 1803.06 2265.07 1792.06 2289.08 1796.06 2314.08 1810.06 2338.08 1801.06 2363.08 1784.06 2387.08 1784.06 2411.08 1786.06 2436.08 1784.06 2460.08 1790.06 2485.08 1815.06 2509.08 1828.06 2534.08 1824.06 2558.08 1783.06 2582.08 1783.06 2607.09 1783.06 2631.09 1783.06 2656.09 1786.06 2680 1786.06" stroke="#4472C4" stroke-width="10.3125" stroke-linecap="round" stroke-linejoin="round" stroke-miterlimit="10" stroke-opacity="1" fill="none" fill-rule="nonzero"/></g><g clip-path="url(#clip14)"><path d="M1312.5 2028.57 1336.54 2023.57 1361.54 2103.57 1385.55 2331.5 1409.55 2326.58 1434.55 2225.57 1458.55 2149.57 1483.55 2152.57 1507.55 2284.58 1532.55 2317.58 1556.55 2300.58 1580.55 2255.57 1605.55 2196.57 1629.55 2188.57 1654.55 2106.57 1678.56 2089.57 1703.56 2046.57 1727.56 2033.57 1751.56 2006.57 1776.56 1959.56 1800.56 1911.56 1825.56 1907.56 1849.56 1892.56 1874.56 1894.56 1898.56 1875.56 1922.56 1892.56 1947.56 1886.56 1971.56 1871.56 1996.57 1860.56 2020.57 1847.56 2045.57 1868.56 2069.57 1811.56 2093.57 1791.56 2118.57 1792.56 2142.57 1783.56 2167.57 1777.5 2191.57 1790.56 2216.57 1791.56 2240.57 1802.56 2264.57 1791.56 2289.58 1796.56 2313.58 1810.56 2338.58 1801.56 2362.58 1783.56 2387.58 1783.56 2411.58 1785.56 2435.58 1783.56 2460.58 1790.56 2484.58 1814.56 2509.58 1828.56 2533.58 1823.56 2558.58 1782.56 2582.58 1782.56 2606.59 1782.56 2631.59 1782.56 2655.59 1785.56 2680.5 1785.56" stroke="#888888" stroke-width="6.875" stroke-linecap="round" stroke-linejoin="round" stroke-miterlimit="10" stroke-opacity="1" fill="none" fill-rule="nonzero"/></g><g clip-path="url(#clip15)"><path d="M1312 2028.07 1337.04 2023.07 1361.04 2104.07 1386.05 2331 1410.05 2327.08 1434.05 2226.07 1459.05 2150.07 1483.05 2152.07 1508.05 2284.07 1532.05 2317.08 1557.05 2301.08 1581.05 2255.07 1605.05 2197.07 1630.05 2189.07 1654.05 2107.07 1679.06 2089.07 1703.06 2047.07 1728.06 2034.07 1752.06 2007.07 1776.06 1959.06 1801.06 1911.06 1825.06 1907.06 1850.06 1892.06 1874.06 1895.06 1899.06 1876.06 1923.06 1893.06 1947.06 1887.06 1972.06 1871.06 1996.07 1860.06 2021.07 1847.06 2045.07 1868.06 2070.07 1811.06 2094.07 1792.06 2118.07 1793.06 2143.07 1784.06 2167.07 1777 2192.07 1790.06 2216.07 1792.06 2240.07 1803.06 2265.07 1792.06 2289.08 1796.06 2314.08 1810.06 2338.08 1801.06 2363.08 1784.06 2387.08 1784.06 2411.08 1786.06 2436.08 1784.06 2460.08 1790.06 2485.08 1815.06 2509.08 1828.06 2534.08 1824.06 2558.08 1783.06 2582.08 1783.06 2607.09 1783.06 2631.09 1783.06 2656.09 1786.06 2680 1786.06" stroke="#4472C4" stroke-width="10.3125" stroke-linecap="round" stroke-linejoin="round" stroke-miterlimit="10" stroke-opacity="1" fill="none" fill-rule="nonzero"/></g><g clip-path="url(#clip16)"><path d="M1312.5 2028.57 1336.54 2023.57 1361.54 2103.57 1385.55 2331.5 1409.55 2326.58 1434.55 2225.57 1458.55 2149.57 1483.55 2152.57 1507.55 2284.58 1532.55 2317.58 1556.55 2300.58 1580.55 2255.57 1605.55 2196.57 1629.55 2188.57 1654.55 2106.57 1678.56 2089.57 1703.56 2046.57 1727.56 2033.57 1751.56 2006.57 1776.56 1959.56 1800.56 1911.56 1825.56 1907.56 1849.56 1892.56 1874.56 1894.56 1898.56 1875.56 1922.56 1892.56 1947.56 1886.56 1971.56 1871.56 1996.57 1860.56 2020.57 1847.56 2045.57 1868.56 2069.57 1811.56 2093.57 1791.56 2118.57 1792.56 2142.57 1783.56 2167.57 1777.5 2191.57 1790.56 2216.57 1791.56 2240.57 1802.56 2264.57 1791.56 2289.58 1796.56 2313.58 1810.56 2338.58 1801.56 2362.58 1783.56 2387.58 1783.56 2411.58 1785.56 2435.58 1783.56 2460.58 1790.56 2484.58 1814.56 2509.58 1828.56 2533.58 1823.56 2558.58 1782.56 2582.58 1782.56 2606.59 1782.56 2631.59 1782.56 2655.59 1785.56 2680.5 1785.56" stroke="#C46627" stroke-width="6.875" stroke-linecap="round" stroke-linejoin="round" stroke-miterlimit="10" stroke-opacity="1" fill="none" fill-rule="nonzero"/></g><g clip-path="url(#clip17)"><path d="M1312 2028.07 1337.04 2023.07 1361.04 2104.07 1386.05 2331 1410.05 2327.08 1434.05 2226.07 1459.05 2150.07 1483.05 2152.07 1508.05 2284.07 1532.05 2317.08 1557.05 2301.08 1581.05 2255.07 1605.05 2197.07 1630.05 2189.07 1654.05 2107.07 1679.06 2089.07 1703.06 2047.07 1728.06 2034.07 1752.06 2007.07 1776.06 1959.06 1801.06 1911.06 1825.06 1907.06 1850.06 1892.06 1874.06 1895.06 1899.06 1876.06 1923.06 1893.06 1947.06 1887.06 1972.06 1871.06 1996.07 1860.06 2021.07 1847.06 2045.07 1868.06 2070.07 1811.06 2094.07 1792.06 2118.07 1793.06 2143.07 1784.06 2167.07 1777 2192.07 1790.06 2216.07 1792.06 2240.07 1803.06 2265.07 1792.06 2289.08 1796.06 2314.08 1810.06 2338.08 1801.06 2363.08 1784.06 2387.08 1784.06 2411.08 1786.06 2436.08 1784.06 2460.08 1790.06 2485.08 1815.06 2509.08 1828.06 2534.08 1824.06 2558.08 1783.06 2582.08 1783.06 2607.09 1783.06 2631.09 1783.06 2656.09 1786.06 2680 1786.06" stroke="#4472C4" stroke-width="10.3125" stroke-linecap="round" stroke-linejoin="round" stroke-miterlimit="10" stroke-opacity="1" fill="none" fill-rule="nonzero"/></g><g clip-path="url(#clip18)"><text fill="#000000" fill-opacity="1" font-family="Calibri,Calibri_MSFontService,sans-serif" font-style="normal" font-variant="normal" font-weight="400" font-stretch="normal" font-size="41" text-anchor="start" direction="ltr" writing-mode="lr-tb" unicode-bidi="normal" text-decoration="none" transform="matrix(1 0 0 1 1232.27 2408)">30</text></g><g clip-path="url(#clip19)"><text fill="#000000" fill-opacity="1" font-family="Calibri,Calibri_MSFontService,sans-serif" font-style="normal" font-variant="normal" font-weight="400" font-stretch="normal" font-size="41" text-anchor="start" direction="ltr" writing-mode="lr-tb" unicode-bidi="normal" text-decoration="none" transform="matrix(1 0 0 1 1232.27 2317)">40</text></g><g clip-path="url(#clip20)"><text fill="#000000" fill-opacity="1" font-family="Calibri,Calibri_MSFontService,sans-serif" font-style="normal" font-variant="normal" font-weight="400" font-stretch="normal" font-size="41" text-anchor="start" direction="ltr" writing-mode="lr-tb" unicode-bidi="normal" text-decoration="none" transform="matrix(1 0 0 1 1232.27 2226)">50</text></g><g clip-path="url(#clip21)"><text fill="#000000" fill-opacity="1" font-family="Calibri,Calibri_MSFontService,sans-serif" font-style="normal" font-variant="normal" font-weight="400" font-stretch="normal" font-size="41" text-anchor="start" direction="ltr" writing-mode="lr-tb" unicode-bidi="normal" text-decoration="none" transform="matrix(1 0 0 1 1232.27 2135)">60</text></g><g clip-path="url(#clip22)"><text fill="#000000" fill-opacity="1" font-family="Calibri,Calibri_MSFontService,sans-serif" font-style="normal" font-variant="normal" font-weight="400" font-stretch="normal" font-size="41" text-anchor="start" direction="ltr" writing-mode="lr-tb" unicode-bidi="normal" text-decoration="none" transform="matrix(1 0 0 1 1232.27 2044)">70</text></g><g clip-path="url(#clip23)"><text fill="#000000" fill-opacity="1" font-family="Calibri,Calibri_MSFontService,sans-serif" font-style="normal" font-variant="normal" font-weight="400" font-stretch="normal" font-size="41" text-anchor="start" direction="ltr" writing-mode="lr-tb" unicode-bidi="normal" text-decoration="none" transform="matrix(1 0 0 1 1232.27 1953)">80</text></g><g clip-path="url(#clip24)"><text fill="#000000" fill-opacity="1" font-family="Calibri,Calibri_MSFontService,sans-serif" font-style="normal" font-variant="normal" font-weight="400" font-stretch="normal" font-size="41" text-anchor="start" direction="ltr" writing-mode="lr-tb" unicode-bidi="normal" text-decoration="none" transform="matrix(1 0 0 1 1232.27 1862)">90</text></g><g clip-path="url(#clip25)"><text fill="#000000" fill-opacity="1" font-family="Calibri,Calibri_MSFontService,sans-serif" font-style="normal" font-variant="normal" font-weight="400" font-stretch="normal" font-size="41" text-anchor="start" direction="ltr" writing-mode="lr-tb" unicode-bidi="normal" text-decoration="none" transform="matrix(1 0 0 1 1211.37 1771)">100</text></g><g clip-path="url(#clip26)"><text fill="#000000" fill-opacity="1" font-family="Calibri,Calibri_MSFontService,sans-serif" font-style="normal" font-variant="normal" font-weight="400" font-stretch="normal" font-size="41" text-anchor="start" direction="ltr" writing-mode="lr-tb" unicode-bidi="normal" text-decoration="none" transform="matrix(6.12323e-17 -1 1 6.12323e-17 1326.16 2538)">Apr-05</text></g><g clip-path="url(#clip27)"><text fill="#000000" fill-opacity="1" font-family="Calibri,Calibri_MSFontService,sans-serif" font-style="normal" font-variant="normal" font-weight="400" font-stretch="normal" font-size="41" text-anchor="start" direction="ltr" writing-mode="lr-tb" unicode-bidi="normal" text-decoration="none" transform="matrix(6.12323e-17 -1 1 6.12323e-17 1391.3 2541)">Dec-05</text></g><g clip-path="url(#clip28)"><text fill="#000000" fill-opacity="1" font-family="Calibri,Calibri_MSFontService,sans-serif" font-style="normal" font-variant="normal" font-weight="400" font-stretch="normal" font-size="41" text-anchor="start" direction="ltr" writing-mode="lr-tb" unicode-bidi="normal" text-decoration="none" transform="matrix(6.12323e-17 -1 1 6.12323e-17 1456.44 2543)">Aug-06</text></g><g clip-path="url(#clip29)"><text fill="#000000" fill-opacity="1" font-family="Calibri,Calibri_MSFontService,sans-serif" font-style="normal" font-variant="normal" font-weight="400" font-stretch="normal" font-size="41" text-anchor="start" direction="ltr" writing-mode="lr-tb" unicode-bidi="normal" text-decoration="none" transform="matrix(6.12323e-17 -1 1 6.12323e-17 1521.58 2538)">Apr-07</text></g><g clip-path="url(#clip30)"><text fill="#000000" fill-opacity="1" font-family="Calibri,Calibri_MSFontService,sans-serif" font-style="normal" font-variant="normal" font-weight="400" font-stretch="normal" font-size="41" text-anchor="start" direction="ltr" writing-mode="lr-tb" unicode-bidi="normal" text-decoration="none" transform="matrix(6.12323e-17 -1 1 6.12323e-17 1586.72 2541)">Dec-07</text></g><g clip-path="url(#clip31)"><text fill="#000000" fill-opacity="1" font-family="Calibri,Calibri_MSFontService,sans-serif" font-style="normal" font-variant="normal" font-weight="400" font-stretch="normal" font-size="41" text-anchor="start" direction="ltr" writing-mode="lr-tb" unicode-bidi="normal" text-decoration="none" transform="matrix(6.12323e-17 -1 1 6.12323e-17 1651.86 2543)">Aug-08</text></g><g clip-path="url(#clip32)"><text fill="#000000" fill-opacity="1" font-family="Calibri,Calibri_MSFontService,sans-serif" font-style="normal" font-variant="normal" font-weight="400" font-stretch="normal" font-size="41" text-anchor="start" direction="ltr" writing-mode="lr-tb" unicode-bidi="normal" text-decoration="none" transform="matrix(6.12323e-17 -1 1 6.12323e-17 1717 2538)">Apr-09</text></g><g clip-path="url(#clip33)"><text fill="#000000" fill-opacity="1" font-family="Calibri,Calibri_MSFontService,sans-serif" font-style="normal" font-variant="normal" font-weight="400" font-stretch="normal" font-size="41" text-anchor="start" direction="ltr" writing-mode="lr-tb" unicode-bidi="normal" text-decoration="none" transform="matrix(6.12323e-17 -1 1 6.12323e-17 1782.14 2541)">Dec-09</text></g><g clip-path="url(#clip34)"><text fill="#000000" fill-opacity="1" font-family="Calibri,Calibri_MSFontService,sans-serif" font-style="normal" font-variant="normal" font-weight="400" font-stretch="normal" font-size="41" text-anchor="start" direction="ltr" writing-mode="lr-tb" unicode-bidi="normal" text-decoration="none" transform="matrix(6.12323e-17 -1 1 6.12323e-17 1847.28 2543)">Aug-10</text></g><g clip-path="url(#clip35)"><text fill="#000000" fill-opacity="1" font-family="Calibri,Calibri_MSFontService,sans-serif" font-style="normal" font-variant="normal" font-weight="400" font-stretch="normal" font-size="41" text-anchor="start" direction="ltr" writing-mode="lr-tb" unicode-bidi="normal" text-decoration="none" transform="matrix(6.12323e-17 -1 1 6.12323e-17 1912.42 2538)">Apr-11</text></g><g clip-path="url(#clip36)"><text fill="#000000" fill-opacity="1" font-family="Calibri,Calibri_MSFontService,sans-serif" font-style="normal" font-variant="normal" font-weight="400" font-stretch="normal" font-size="41" text-anchor="start" direction="ltr" writing-mode="lr-tb" unicode-bidi="normal" text-decoration="none" transform="matrix(6.12323e-17 -1 1 6.12323e-17 1977.56 2541)">Dec-11</text></g><g clip-path="url(#clip37)"><text fill="#000000" fill-opacity="1" font-family="Calibri,Calibri_MSFontService,sans-serif" font-style="normal" font-variant="normal" font-weight="400" font-stretch="normal" font-size="41" text-anchor="start" direction="ltr" writing-mode="lr-tb" unicode-bidi="normal" text-decoration="none" transform="matrix(6.12323e-17 -1 1 6.12323e-17 2042.7 2543)">Aug-12</text></g><g clip-path="url(#clip38)"><text fill="#000000" fill-opacity="1" font-family="Calibri,Calibri_MSFontService,sans-serif" font-style="normal" font-variant="normal" font-weight="400" font-stretch="normal" font-size="41" text-anchor="start" direction="ltr" writing-mode="lr-tb" unicode-bidi="normal" text-decoration="none" transform="matrix(6.12323e-17 -1 1 6.12323e-17 2107.84 2538)">Apr-13</text></g><g clip-path="url(#clip39)"><text fill="#000000" fill-opacity="1" font-family="Calibri,Calibri_MSFontService,sans-serif" font-style="normal" font-variant="normal" font-weight="400" font-stretch="normal" font-size="41" text-anchor="start" direction="ltr" writing-mode="lr-tb" unicode-bidi="normal" text-decoration="none" transform="matrix(6.12323e-17 -1 1 6.12323e-17 2172.98 2541)">Dec-13</text></g><g clip-path="url(#clip40)"><text fill="#000000" fill-opacity="1" font-family="Calibri,Calibri_MSFontService,sans-serif" font-style="normal" font-variant="normal" font-weight="400" font-stretch="normal" font-size="41" text-anchor="start" direction="ltr" writing-mode="lr-tb" unicode-bidi="normal" text-decoration="none" transform="matrix(6.12323e-17 -1 1 6.12323e-17 2238.12 2543)">Aug-14</text></g><g clip-path="url(#clip41)"><text fill="#000000" fill-opacity="1" font-family="Calibri,Calibri_MSFontService,sans-serif" font-style="normal" font-variant="normal" font-weight="400" font-stretch="normal" font-size="41" text-anchor="start" direction="ltr" writing-mode="lr-tb" unicode-bidi="normal" text-decoration="none" transform="matrix(6.12323e-17 -1 1 6.12323e-17 2303.26 2538)">Apr-15</text></g><g clip-path="url(#clip42)"><text fill="#000000" fill-opacity="1" font-family="Calibri,Calibri_MSFontService,sans-serif" font-style="normal" font-variant="normal" font-weight="400" font-stretch="normal" font-size="41" text-anchor="start" direction="ltr" writing-mode="lr-tb" unicode-bidi="normal" text-decoration="none" transform="matrix(6.12323e-17 -1 1 6.12323e-17 2368.4 2541)">Dec-15</text></g><g clip-path="url(#clip43)"><text fill="#000000" fill-opacity="1" font-family="Calibri,Calibri_MSFontService,sans-serif" font-style="normal" font-variant="normal" font-weight="400" font-stretch="normal" font-size="41" text-anchor="start" direction="ltr" writing-mode="lr-tb" unicode-bidi="normal" text-decoration="none" transform="matrix(6.12323e-17 -1 1 6.12323e-17 2433.54 2543)">Aug-16</text></g><g clip-path="url(#clip44)"><text fill="#000000" fill-opacity="1" font-family="Calibri,Calibri_MSFontService,sans-serif" font-style="normal" font-variant="normal" font-weight="400" font-stretch="normal" font-size="41" text-anchor="start" direction="ltr" writing-mode="lr-tb" unicode-bidi="normal" text-decoration="none" transform="matrix(6.12323e-17 -1 1 6.12323e-17 2498.68 2538)">Apr-17</text></g><g clip-path="url(#clip45)"><text fill="#000000" fill-opacity="1" font-family="Calibri,Calibri_MSFontService,sans-serif" font-style="normal" font-variant="normal" font-weight="400" font-stretch="normal" font-size="41" text-anchor="start" direction="ltr" writing-mode="lr-tb" unicode-bidi="normal" text-decoration="none" transform="matrix(6.12323e-17 -1 1 6.12323e-17 2563.82 2541)">Dec-17</text></g><g clip-path="url(#clip46)"><text fill="#000000" fill-opacity="1" font-family="Calibri,Calibri_MSFontService,sans-serif" font-style="normal" font-variant="normal" font-weight="400" font-stretch="normal" font-size="41" text-anchor="start" direction="ltr" writing-mode="lr-tb" unicode-bidi="normal" text-decoration="none" transform="matrix(6.12323e-17 -1 1 6.12323e-17 2628.96 2543)">Aug-18</text></g><g clip-path="url(#clip47)"><text fill="#000000" fill-opacity="1" font-family="Calibri,Calibri_MSFontService,sans-serif" font-style="normal" font-variant="normal" font-weight="400" font-stretch="normal" font-size="41" text-anchor="start" direction="ltr" writing-mode="lr-tb" unicode-bidi="normal" text-decoration="none" transform="matrix(6.12323e-17 -1 1 6.12323e-17 2694.1 2538)">Apr-19</text></g><g clip-path="url(#clip48)"><text fill="#000000" fill-opacity="1" font-family="Calibri,Calibri_MSFontService,sans-serif" font-style="normal" font-variant="normal" font-weight="400" font-stretch="normal" font-size="46" text-anchor="start" direction="ltr" writing-mode="lr-tb" unicode-bidi="normal" text-decoration="none" transform="matrix(6.12323e-17 -1 1 6.12323e-17 1185.68 2184)">Percentage</text></g><g clip-path="url(#clip49)"><text fill="#000000" fill-opacity="1" font-family="Calibri,Calibri_MSFontService,sans-serif" font-style="normal" font-variant="normal" font-weight="400" font-stretch="normal" font-size="64" text-anchor="start" direction="ltr" writing-mode="lr-tb" unicode-bidi="normal" text-decoration="none" transform="matrix(1 0 0 1 1752.22 1686)">Meth Purity</text></g><g clip-path="url(#clip50)"><text fill="#D0CECE" fill-opacity="1" font-family="Courier,Courier_MSFontService,sans-serif" font-style="normal" font-variant="normal" font-weight="400" font-stretch="normal" font-size="28" text-anchor="start" direction="ltr" writing-mode="lr-tb" unicode-bidi="normal" text-decoration="none" transform="matrix(1 0 0 1 2475.58 2394)">dynomight.net</text></g><g clip-path="url(#clip51)"><path d="M1317.5 1762.5 2684.84 1762.5" stroke="#000000" stroke-width="4.58333" stroke-linecap="butt" stroke-linejoin="miter" stroke-miterlimit="8" stroke-opacity="1" fill="none" fill-rule="evenodd"/></g></g></svg>