<svg width="1650" height="985" xmlns="http://www.w3.org/2000/svg" xmlns:xlink="http://www.w3.org/1999/xlink" overflow="hidden"><defs><clipPath id="clip0"><rect x="1122" y="2658" width="1650" height="985"/></clipPath><clipPath id="clip1"><rect x="1351" y="2828" width="1371" height="632"/></clipPath><clipPath id="clip2"><rect x="1123" y="2658" width="1646" height="983"/></clipPath><clipPath id="clip3"><rect x="1123" y="2658" width="1646" height="983"/></clipPath><clipPath id="clip4"><rect x="1123" y="2658" width="1646" height="983"/></clipPath><clipPath id="clip5"><rect x="1123" y="2658" width="1646" height="983"/></clipPath><clipPath id="clip6"><rect x="1123" y="2658" width="1646" height="983"/></clipPath><clipPath id="clip7"><rect x="1123" y="2658" width="1646" height="983"/></clipPath><clipPath id="clip8"><rect x="1123" y="2658" width="1646" height="983"/></clipPath><clipPath id="clip9"><rect x="1123" y="2658" width="1646" height="983"/></clipPath><clipPath id="clip10"><rect x="1123" y="2658" width="1646" height="983"/></clipPath><clipPath id="clip11"><rect x="1123" y="2658" width="1646" height="983"/></clipPath><clipPath id="clip12"><rect x="1123" y="2658" width="1646" height="983"/></clipPath><clipPath id="clip13"><rect x="1123" y="2658" width="1646" height="983"/></clipPath><clipPath id="clip14"><rect x="1123" y="2658" width="1646" height="983"/></clipPath><clipPath id="clip15"><rect x="1123" y="2658" width="1646" height="983"/></clipPath><clipPath id="clip16"><rect x="1123" y="2658" width="1646" height="983"/></clipPath><clipPath id="clip17"><rect x="1123" y="2658" width="1646" height="983"/></clipPath><clipPath id="clip18"><rect x="1123" y="2658" width="1646" height="983"/></clipPath><clipPath id="clip19"><rect x="1123" y="2658" width="1646" height="983"/></clipPath><clipPath id="clip20"><rect x="1123" y="2658" width="1646" height="983"/></clipPath><clipPath id="clip21"><rect x="1123" y="2658" width="1646" height="983"/></clipPath><clipPath id="clip22"><rect x="1123" y="2658" width="1646" height="983"/></clipPath><clipPath id="clip23"><rect x="1123" y="2658" width="1646" height="983"/></clipPath><clipPath id="clip24"><rect x="1123" y="2658" width="1646" height="983"/></clipPath><clipPath id="clip25"><rect x="1123" y="2658" width="1646" height="983"/></clipPath><clipPath id="clip26"><rect x="1123" y="2658" width="1646" height="983"/></clipPath><clipPath id="clip27"><rect x="1123" y="2658" width="1646" height="983"/></clipPath><clipPath id="clip28"><rect x="1123" y="2658" width="1646" height="983"/></clipPath><clipPath id="clip29"><rect x="1123" y="2658" width="1646" height="983"/></clipPath><clipPath id="clip30"><rect x="1123" y="2658" width="1646" height="983"/></clipPath><clipPath id="clip31"><rect x="1123" y="2658" width="1646" height="983"/></clipPath><clipPath id="clip32"><rect x="1123" y="2658" width="1646" height="983"/></clipPath><clipPath id="clip33"><rect x="1123" y="2658" width="1647" height="984"/></clipPath><clipPath id="clip34"><rect x="1123" y="2658" width="1647" height="984"/></clipPath></defs><g clip-path="url(#clip0)" transform="translate(-1122 -2658)"><rect x="1123" y="2659" width="1647" height="982" fill="#FFFFFF" fill-opacity="1"/><g clip-path="url(#clip1)"><path d="M1358 3212.11 1399.05 3213.11 1440.05 3225 1481.05 3141.1 1522.05 3097.1 1563.05 3019.1 1604.05 2992.1 1645.05 2980.1 1686.06 2939.1 1727.06 2939.1 1768.06 2918.1 1809.06 2931.1 1851.06 2929.1 1892.06 2918.1 1933.06 2991.1 1974.06 3012.1 2015.07 3038.1 2056.07 3038.1 2097.07 3003.1 2138.07 3003.1 2179.07 2983.1 2220.07 2983.1 2261.07 2953.1 2302.08 2953.1 2343.08 2953.1 2384.08 2953.1 2425.08 2914.1 2466.08 2914.1 2507.08 2877.09 2548.08 2877.09 2589.08 2898.1 2630.09 2898.1 2671.09 2868 2712 2868" stroke="#4472C4" stroke-width="10.3125" stroke-linecap="round" stroke-linejoin="round" stroke-miterlimit="10" stroke-opacity="1" fill="none" fill-rule="nonzero"/></g><g clip-path="url(#clip2)"><text fill="#000000" fill-opacity="1" font-family="Calibri,Calibri_MSFontService,sans-serif" font-style="normal" font-variant="normal" font-weight="400" font-stretch="normal" font-size="41" text-anchor="start" direction="ltr" writing-mode="lr-tb" unicode-bidi="normal" text-decoration="none" transform="matrix(1 0 0 1 1271.23 3468)">60</text></g><g clip-path="url(#clip3)"><text fill="#000000" fill-opacity="1" font-family="Calibri,Calibri_MSFontService,sans-serif" font-style="normal" font-variant="normal" font-weight="400" font-stretch="normal" font-size="41" text-anchor="start" direction="ltr" writing-mode="lr-tb" unicode-bidi="normal" text-decoration="none" transform="matrix(1 0 0 1 1271.23 3389)">65</text></g><g clip-path="url(#clip4)"><text fill="#000000" fill-opacity="1" font-family="Calibri,Calibri_MSFontService,sans-serif" font-style="normal" font-variant="normal" font-weight="400" font-stretch="normal" font-size="41" text-anchor="start" direction="ltr" writing-mode="lr-tb" unicode-bidi="normal" text-decoration="none" transform="matrix(1 0 0 1 1271.23 3311)">70</text></g><g clip-path="url(#clip5)"><text fill="#000000" fill-opacity="1" font-family="Calibri,Calibri_MSFontService,sans-serif" font-style="normal" font-variant="normal" font-weight="400" font-stretch="normal" font-size="41" text-anchor="start" direction="ltr" writing-mode="lr-tb" unicode-bidi="normal" text-decoration="none" transform="matrix(1 0 0 1 1271.23 3232)">75</text></g><g clip-path="url(#clip6)"><text fill="#000000" fill-opacity="1" font-family="Calibri,Calibri_MSFontService,sans-serif" font-style="normal" font-variant="normal" font-weight="400" font-stretch="normal" font-size="41" text-anchor="start" direction="ltr" writing-mode="lr-tb" unicode-bidi="normal" text-decoration="none" transform="matrix(1 0 0 1 1271.23 3153)">80</text></g><g clip-path="url(#clip7)"><text fill="#000000" fill-opacity="1" font-family="Calibri,Calibri_MSFontService,sans-serif" font-style="normal" font-variant="normal" font-weight="400" font-stretch="normal" font-size="41" text-anchor="start" direction="ltr" writing-mode="lr-tb" unicode-bidi="normal" text-decoration="none" transform="matrix(1 0 0 1 1271.23 3075)">85</text></g><g clip-path="url(#clip8)"><text fill="#000000" fill-opacity="1" font-family="Calibri,Calibri_MSFontService,sans-serif" font-style="normal" font-variant="normal" font-weight="400" font-stretch="normal" font-size="41" text-anchor="start" direction="ltr" writing-mode="lr-tb" unicode-bidi="normal" text-decoration="none" transform="matrix(1 0 0 1 1271.23 2996)">90</text></g><g clip-path="url(#clip9)"><text fill="#000000" fill-opacity="1" font-family="Calibri,Calibri_MSFontService,sans-serif" font-style="normal" font-variant="normal" font-weight="400" font-stretch="normal" font-size="41" text-anchor="start" direction="ltr" writing-mode="lr-tb" unicode-bidi="normal" text-decoration="none" transform="matrix(1 0 0 1 1271.23 2918)">95</text></g><g clip-path="url(#clip10)"><text fill="#000000" fill-opacity="1" font-family="Calibri,Calibri_MSFontService,sans-serif" font-style="normal" font-variant="normal" font-weight="400" font-stretch="normal" font-size="41" text-anchor="start" direction="ltr" writing-mode="lr-tb" unicode-bidi="normal" text-decoration="none" transform="matrix(1 0 0 1 1250.33 2839)">100</text></g><g clip-path="url(#clip11)"><text fill="#000000" fill-opacity="1" font-family="Calibri,Calibri_MSFontService,sans-serif" font-style="normal" font-variant="normal" font-weight="400" font-stretch="normal" font-size="41" text-anchor="start" direction="ltr" writing-mode="lr-tb" unicode-bidi="normal" text-decoration="none" transform="matrix(6.12323e-17 -1 1 6.12323e-17 1371.96 3592)">Jan-11</text></g><g clip-path="url(#clip12)"><text fill="#000000" fill-opacity="1" font-family="Calibri,Calibri_MSFontService,sans-serif" font-style="normal" font-variant="normal" font-weight="400" font-stretch="normal" font-size="41" text-anchor="start" direction="ltr" writing-mode="lr-tb" unicode-bidi="normal" text-decoration="none" transform="matrix(6.12323e-17 -1 1 6.12323e-17 1440.35 3594)">Jun-11</text></g><g clip-path="url(#clip13)"><text fill="#000000" fill-opacity="1" font-family="Calibri,Calibri_MSFontService,sans-serif" font-style="normal" font-variant="normal" font-weight="400" font-stretch="normal" font-size="41" text-anchor="start" direction="ltr" writing-mode="lr-tb" unicode-bidi="normal" text-decoration="none" transform="matrix(6.12323e-17 -1 1 6.12323e-17 1508.75 3605)">Nov-11</text></g><g clip-path="url(#clip14)"><text fill="#000000" fill-opacity="1" font-family="Calibri,Calibri_MSFontService,sans-serif" font-style="normal" font-variant="normal" font-weight="400" font-stretch="normal" font-size="41" text-anchor="start" direction="ltr" writing-mode="lr-tb" unicode-bidi="normal" text-decoration="none" transform="matrix(6.12323e-17 -1 1 6.12323e-17 1577.15 3598)">Apr-12</text></g><g clip-path="url(#clip15)"><text fill="#000000" fill-opacity="1" font-family="Calibri,Calibri_MSFontService,sans-serif" font-style="normal" font-variant="normal" font-weight="400" font-stretch="normal" font-size="41" text-anchor="start" direction="ltr" writing-mode="lr-tb" unicode-bidi="normal" text-decoration="none" transform="matrix(6.12323e-17 -1 1 6.12323e-17 1645.54 3599)">Sep-12</text></g><g clip-path="url(#clip16)"><text fill="#000000" fill-opacity="1" font-family="Calibri,Calibri_MSFontService,sans-serif" font-style="normal" font-variant="normal" font-weight="400" font-stretch="normal" font-size="41" text-anchor="start" direction="ltr" writing-mode="lr-tb" unicode-bidi="normal" text-decoration="none" transform="matrix(6.12323e-17 -1 1 6.12323e-17 1713.94 3599)">Feb-13</text></g><g clip-path="url(#clip17)"><text fill="#000000" fill-opacity="1" font-family="Calibri,Calibri_MSFontService,sans-serif" font-style="normal" font-variant="normal" font-weight="400" font-stretch="normal" font-size="41" text-anchor="start" direction="ltr" writing-mode="lr-tb" unicode-bidi="normal" text-decoration="none" transform="matrix(6.12323e-17 -1 1 6.12323e-17 1782.34 3582)">Jul-13</text></g><g clip-path="url(#clip18)"><text fill="#000000" fill-opacity="1" font-family="Calibri,Calibri_MSFontService,sans-serif" font-style="normal" font-variant="normal" font-weight="400" font-stretch="normal" font-size="41" text-anchor="start" direction="ltr" writing-mode="lr-tb" unicode-bidi="normal" text-decoration="none" transform="matrix(6.12323e-17 -1 1 6.12323e-17 1850.73 3601)">Dec-13</text></g><g clip-path="url(#clip19)"><text fill="#000000" fill-opacity="1" font-family="Calibri,Calibri_MSFontService,sans-serif" font-style="normal" font-variant="normal" font-weight="400" font-stretch="normal" font-size="41" text-anchor="start" direction="ltr" writing-mode="lr-tb" unicode-bidi="normal" text-decoration="none" transform="matrix(6.12323e-17 -1 1 6.12323e-17 1919.13 3611)">May-14</text></g><g clip-path="url(#clip20)"><text fill="#000000" fill-opacity="1" font-family="Calibri,Calibri_MSFontService,sans-serif" font-style="normal" font-variant="normal" font-weight="400" font-stretch="normal" font-size="41" text-anchor="start" direction="ltr" writing-mode="lr-tb" unicode-bidi="normal" text-decoration="none" transform="matrix(6.12323e-17 -1 1 6.12323e-17 1987.53 3596)">Oct-14</text></g><g clip-path="url(#clip21)"><text fill="#000000" fill-opacity="1" font-family="Calibri,Calibri_MSFontService,sans-serif" font-style="normal" font-variant="normal" font-weight="400" font-stretch="normal" font-size="41" text-anchor="start" direction="ltr" writing-mode="lr-tb" unicode-bidi="normal" text-decoration="none" transform="matrix(6.12323e-17 -1 1 6.12323e-17 2055.93 3607)">Mar-15</text></g><g clip-path="url(#clip22)"><text fill="#000000" fill-opacity="1" font-family="Calibri,Calibri_MSFontService,sans-serif" font-style="normal" font-variant="normal" font-weight="400" font-stretch="normal" font-size="41" text-anchor="start" direction="ltr" writing-mode="lr-tb" unicode-bidi="normal" text-decoration="none" transform="matrix(6.12323e-17 -1 1 6.12323e-17 2124.32 3603)">Aug-15</text></g><g clip-path="url(#clip23)"><text fill="#000000" fill-opacity="1" font-family="Calibri,Calibri_MSFontService,sans-serif" font-style="normal" font-variant="normal" font-weight="400" font-stretch="normal" font-size="41" text-anchor="start" direction="ltr" writing-mode="lr-tb" unicode-bidi="normal" text-decoration="none" transform="matrix(6.12323e-17 -1 1 6.12323e-17 2192.72 3592)">Jan-16</text></g><g clip-path="url(#clip24)"><text fill="#000000" fill-opacity="1" font-family="Calibri,Calibri_MSFontService,sans-serif" font-style="normal" font-variant="normal" font-weight="400" font-stretch="normal" font-size="41" text-anchor="start" direction="ltr" writing-mode="lr-tb" unicode-bidi="normal" text-decoration="none" transform="matrix(6.12323e-17 -1 1 6.12323e-17 2261.12 3594)">Jun-16</text></g><g clip-path="url(#clip25)"><text fill="#000000" fill-opacity="1" font-family="Calibri,Calibri_MSFontService,sans-serif" font-style="normal" font-variant="normal" font-weight="400" font-stretch="normal" font-size="41" text-anchor="start" direction="ltr" writing-mode="lr-tb" unicode-bidi="normal" text-decoration="none" transform="matrix(6.12323e-17 -1 1 6.12323e-17 2329.51 3605)">Nov-16</text></g><g clip-path="url(#clip26)"><text fill="#000000" fill-opacity="1" font-family="Calibri,Calibri_MSFontService,sans-serif" font-style="normal" font-variant="normal" font-weight="400" font-stretch="normal" font-size="41" text-anchor="start" direction="ltr" writing-mode="lr-tb" unicode-bidi="normal" text-decoration="none" transform="matrix(6.12323e-17 -1 1 6.12323e-17 2397.91 3598)">Apr-17</text></g><g clip-path="url(#clip27)"><text fill="#000000" fill-opacity="1" font-family="Calibri,Calibri_MSFontService,sans-serif" font-style="normal" font-variant="normal" font-weight="400" font-stretch="normal" font-size="41" text-anchor="start" direction="ltr" writing-mode="lr-tb" unicode-bidi="normal" text-decoration="none" transform="matrix(6.12323e-17 -1 1 6.12323e-17 2466.31 3599)">Sep-17</text></g><g clip-path="url(#clip28)"><text fill="#000000" fill-opacity="1" font-family="Calibri,Calibri_MSFontService,sans-serif" font-style="normal" font-variant="normal" font-weight="400" font-stretch="normal" font-size="41" text-anchor="start" direction="ltr" writing-mode="lr-tb" unicode-bidi="normal" text-decoration="none" transform="matrix(6.12323e-17 -1 1 6.12323e-17 2534.7 3599)">Feb-18</text></g><g clip-path="url(#clip29)"><text fill="#000000" fill-opacity="1" font-family="Calibri,Calibri_MSFontService,sans-serif" font-style="normal" font-variant="normal" font-weight="400" font-stretch="normal" font-size="41" text-anchor="start" direction="ltr" writing-mode="lr-tb" unicode-bidi="normal" text-decoration="none" transform="matrix(6.12323e-17 -1 1 6.12323e-17 2603.1 3582)">Jul-18</text></g><g clip-path="url(#clip30)"><text fill="#000000" fill-opacity="1" font-family="Calibri,Calibri_MSFontService,sans-serif" font-style="normal" font-variant="normal" font-weight="400" font-stretch="normal" font-size="41" text-anchor="start" direction="ltr" writing-mode="lr-tb" unicode-bidi="normal" text-decoration="none" transform="matrix(6.12323e-17 -1 1 6.12323e-17 2671.5 3601)">Dec-18</text></g><g clip-path="url(#clip31)"><text fill="#000000" fill-opacity="1" font-family="Calibri,Calibri_MSFontService,sans-serif" font-style="normal" font-variant="normal" font-weight="400" font-stretch="normal" font-size="46" text-anchor="start" direction="ltr" writing-mode="lr-tb" unicode-bidi="normal" text-decoration="none" transform="matrix(6.12323e-17 -1 1 6.12323e-17 1224.64 3248)">Percentage</text></g><g clip-path="url(#clip32)"><text fill="#000000" fill-opacity="1" font-family="Calibri,Calibri_MSFontService,sans-serif" font-style="normal" font-variant="normal" font-weight="400" font-stretch="normal" font-size="64" text-anchor="start" direction="ltr" writing-mode="lr-tb" unicode-bidi="normal" text-decoration="none" transform="matrix(1 0 0 1 1764.26 2754)">Meth Potency</text></g><g clip-path="url(#clip33)"><text fill="#D0CECE" fill-opacity="1" font-family="Courier,Courier_MSFontService,sans-serif" font-style="normal" font-variant="normal" font-weight="400" font-stretch="normal" font-size="28" text-anchor="start" direction="ltr" writing-mode="lr-tb" unicode-bidi="normal" text-decoration="none" transform="matrix(1 0 0 1 2473.38 3456)">dynomight.net</text></g><g clip-path="url(#clip34)"><path d="M1353.5 2828.5 2720.84 2828.5" stroke="#000000" stroke-width="4.58333" stroke-linecap="butt" stroke-linejoin="miter" stroke-miterlimit="8" stroke-opacity="1" fill="none" fill-rule="evenodd"/></g></g></svg>