<svg width="1655" height="995" xmlns="http://www.w3.org/2000/svg" xmlns:xlink="http://www.w3.org/1999/xlink" overflow="hidden"><defs><clipPath id="clip0"><rect x="1434" y="6347" width="1655" height="995"/></clipPath><clipPath id="clip1"><rect x="1436" y="6350" width="1650" height="990"/></clipPath><clipPath id="clip2"><rect x="1664" y="6520" width="1375" height="639"/></clipPath><clipPath id="clip3"><rect x="1436" y="6350" width="1650" height="990"/></clipPath><clipPath id="clip4"><rect x="1436" y="6350" width="1650" height="990"/></clipPath><clipPath id="clip5"><rect x="1436" y="6350" width="1650" height="990"/></clipPath><clipPath id="clip6"><rect x="1436" y="6350" width="1650" height="990"/></clipPath><clipPath id="clip7"><rect x="1436" y="6350" width="1650" height="990"/></clipPath><clipPath id="clip8"><rect x="1436" y="6350" width="1650" height="990"/></clipPath><clipPath id="clip9"><rect x="1436" y="6350" width="1650" height="990"/></clipPath><clipPath id="clip10"><rect x="1436" y="6350" width="1650" height="990"/></clipPath><clipPath id="clip11"><rect x="1436" y="6350" width="1650" height="990"/></clipPath><clipPath id="clip12"><rect x="1436" y="6350" width="1650" height="990"/></clipPath><clipPath id="clip13"><rect x="1436" y="6350" width="1650" height="990"/></clipPath><clipPath id="clip14"><rect x="1436" y="6350" width="1650" height="990"/></clipPath><clipPath id="clip15"><rect x="1436" y="6350" width="1650" height="990"/></clipPath><clipPath id="clip16"><rect x="1436" y="6350" width="1650" height="990"/></clipPath><clipPath id="clip17"><rect x="1436" y="6350" width="1650" height="990"/></clipPath><clipPath id="clip18"><rect x="1436" y="6350" width="1650" height="990"/></clipPath><clipPath id="clip19"><rect x="1436" y="6350" width="1650" height="990"/></clipPath><clipPath id="clip20"><rect x="1436" y="6350" width="1650" height="990"/></clipPath><clipPath id="clip21"><rect x="1436" y="6350" width="1650" height="990"/></clipPath><clipPath id="clip22"><rect x="1436" y="6350" width="1650" height="990"/></clipPath><clipPath id="clip23"><rect x="1436" y="6350" width="1650" height="990"/></clipPath><clipPath id="clip24"><rect x="1436" y="6350" width="1650" height="990"/></clipPath><clipPath id="clip25"><rect x="1436" y="6350" width="1650" height="990"/></clipPath><clipPath id="clip26"><rect x="1436" y="6350" width="1650" height="990"/></clipPath><clipPath id="clip27"><rect x="1436" y="6350" width="1650" height="990"/></clipPath><clipPath id="clip28"><rect x="1436" y="6350" width="1650" height="990"/></clipPath><clipPath id="clip29"><rect x="1436" y="6350" width="1650" height="990"/></clipPath><clipPath id="clip30"><rect x="1436" y="6350" width="1650" height="990"/></clipPath><clipPath id="clip31"><rect x="1436" y="6350" width="1650" height="990"/></clipPath><clipPath id="clip32"><rect x="1436" y="6350" width="1650" height="990"/></clipPath><clipPath id="clip33"><rect x="1436" y="6350" width="1650" height="990"/></clipPath><clipPath id="clip34"><rect x="1436" y="6350" width="1650" height="990"/></clipPath><clipPath id="clip35"><rect x="1436" y="6350" width="1651" height="991"/></clipPath></defs><g clip-path="url(#clip0)" transform="translate(-1434 -6347)"><rect x="1437" y="6350" width="1650" height="990" fill="#FFFFFF" fill-opacity="1"/><g clip-path="url(#clip1)"><path d="M1664.5 7156.5 3036.5 7156.5" stroke="#000000" stroke-width="3.4375" stroke-linecap="butt" stroke-linejoin="round" stroke-miterlimit="10" stroke-opacity="1" fill="none" fill-rule="evenodd"/></g><g clip-path="url(#clip2)"><path d="M1669 6953.23 1697.06 6971.23 1724.06 6958.23 1751.06 6747.22 1778.06 6704.22 1806.06 6831.22 1833.06 6916.23 1860.06 6880.23 1887.06 6762.22 1915.06 6654.22 1942.06 6624 1969.06 6731.22 1996.07 6731.22 2024.07 6811.22 2051.07 6843.22 2078.07 6827.22 2105.07 6916.23 2133.07 6912.23 2160.07 6934.23 2187.07 6936.23 2214.07 6961.23 2242.07 6974.23 2269.07 6985.23 2296.08 6974.23 2323.08 6994.23 2351.08 6980.23 2378.08 7007.23 2405.08 7003.23 2432.08 7016.23 2460.08 7005.23 2487.08 7027.23 2514.08 7032.23 2541.08 7036.23 2569.08 7041.23 2596.09 7031.23 2623.09 7052.23 2650.09 7032.23 2678.09 7049.23 2705.09 7014.23 2732.09 7041.23 2759.09 7043.23 2787.09 7034.23 2814.09 7047.23 2841.09 7043.23 2868.09 7041.23 2896.09 7052.23 2923.1 7058 2950.1 7043.23 2977.1 7038.23 3005.1 7018.23 3032 7054.23" stroke="#4472C4" stroke-width="10.3125" stroke-linecap="round" stroke-linejoin="round" stroke-miterlimit="10" stroke-opacity="1" fill="none" fill-rule="nonzero"/></g><g clip-path="url(#clip3)"><text fill="#000000" fill-opacity="1" font-family="Calibri,Calibri_MSFontService,sans-serif" font-style="normal" font-variant="normal" font-weight="400" font-stretch="normal" font-size="41" text-anchor="start" direction="ltr" writing-mode="lr-tb" unicode-bidi="normal" text-decoration="none" transform="matrix(1 0 0 1 1605.66 7167)">0</text></g><g clip-path="url(#clip4)"><text fill="#000000" fill-opacity="1" font-family="Calibri,Calibri_MSFontService,sans-serif" font-style="normal" font-variant="normal" font-weight="400" font-stretch="normal" font-size="41" text-anchor="start" direction="ltr" writing-mode="lr-tb" unicode-bidi="normal" text-decoration="none" transform="matrix(1 0 0 1 1584.76 7076)">50</text></g><g clip-path="url(#clip5)"><text fill="#000000" fill-opacity="1" font-family="Calibri,Calibri_MSFontService,sans-serif" font-style="normal" font-variant="normal" font-weight="400" font-stretch="normal" font-size="41" text-anchor="start" direction="ltr" writing-mode="lr-tb" unicode-bidi="normal" text-decoration="none" transform="matrix(1 0 0 1 1563.86 6985)">100</text></g><g clip-path="url(#clip6)"><text fill="#000000" fill-opacity="1" font-family="Calibri,Calibri_MSFontService,sans-serif" font-style="normal" font-variant="normal" font-weight="400" font-stretch="normal" font-size="41" text-anchor="start" direction="ltr" writing-mode="lr-tb" unicode-bidi="normal" text-decoration="none" transform="matrix(1 0 0 1 1563.86 6894)">150</text></g><g clip-path="url(#clip7)"><text fill="#000000" fill-opacity="1" font-family="Calibri,Calibri_MSFontService,sans-serif" font-style="normal" font-variant="normal" font-weight="400" font-stretch="normal" font-size="41" text-anchor="start" direction="ltr" writing-mode="lr-tb" unicode-bidi="normal" text-decoration="none" transform="matrix(1 0 0 1 1563.86 6803)">200</text></g><g clip-path="url(#clip8)"><text fill="#000000" fill-opacity="1" font-family="Calibri,Calibri_MSFontService,sans-serif" font-style="normal" font-variant="normal" font-weight="400" font-stretch="normal" font-size="41" text-anchor="start" direction="ltr" writing-mode="lr-tb" unicode-bidi="normal" text-decoration="none" transform="matrix(1 0 0 1 1563.86 6712)">250</text></g><g clip-path="url(#clip9)"><text fill="#000000" fill-opacity="1" font-family="Calibri,Calibri_MSFontService,sans-serif" font-style="normal" font-variant="normal" font-weight="400" font-stretch="normal" font-size="41" text-anchor="start" direction="ltr" writing-mode="lr-tb" unicode-bidi="normal" text-decoration="none" transform="matrix(1 0 0 1 1563.86 6622)">300</text></g><g clip-path="url(#clip10)"><text fill="#000000" fill-opacity="1" font-family="Calibri,Calibri_MSFontService,sans-serif" font-style="normal" font-variant="normal" font-weight="400" font-stretch="normal" font-size="41" text-anchor="start" direction="ltr" writing-mode="lr-tb" unicode-bidi="normal" text-decoration="none" transform="matrix(1 0 0 1 1563.86 6531)">350</text></g><g clip-path="url(#clip11)"><text fill="#000000" fill-opacity="1" font-family="Calibri,Calibri_MSFontService,sans-serif" font-style="normal" font-variant="normal" font-weight="400" font-stretch="normal" font-size="41" text-anchor="start" direction="ltr" writing-mode="lr-tb" unicode-bidi="normal" text-decoration="none" transform="matrix(6.12323e-17 -1 1 6.12323e-17 1683.18 7297)">Apr-05</text></g><g clip-path="url(#clip12)"><text fill="#000000" fill-opacity="1" font-family="Calibri,Calibri_MSFontService,sans-serif" font-style="normal" font-variant="normal" font-weight="400" font-stretch="normal" font-size="41" text-anchor="start" direction="ltr" writing-mode="lr-tb" unicode-bidi="normal" text-decoration="none" transform="matrix(6.12323e-17 -1 1 6.12323e-17 1746.77 7304)">Nov-05</text></g><g clip-path="url(#clip13)"><text fill="#000000" fill-opacity="1" font-family="Calibri,Calibri_MSFontService,sans-serif" font-style="normal" font-variant="normal" font-weight="400" font-stretch="normal" font-size="41" text-anchor="start" direction="ltr" writing-mode="lr-tb" unicode-bidi="normal" text-decoration="none" transform="matrix(6.12323e-17 -1 1 6.12323e-17 1810.36 7293)">Jun-06</text></g><g clip-path="url(#clip14)"><text fill="#000000" fill-opacity="1" font-family="Calibri,Calibri_MSFontService,sans-serif" font-style="normal" font-variant="normal" font-weight="400" font-stretch="normal" font-size="41" text-anchor="start" direction="ltr" writing-mode="lr-tb" unicode-bidi="normal" text-decoration="none" transform="matrix(6.12323e-17 -1 1 6.12323e-17 1873.94 7291)">Jan-07</text></g><g clip-path="url(#clip15)"><text fill="#000000" fill-opacity="1" font-family="Calibri,Calibri_MSFontService,sans-serif" font-style="normal" font-variant="normal" font-weight="400" font-stretch="normal" font-size="41" text-anchor="start" direction="ltr" writing-mode="lr-tb" unicode-bidi="normal" text-decoration="none" transform="matrix(6.12323e-17 -1 1 6.12323e-17 1937.53 7302)">Aug-07</text></g><g clip-path="url(#clip16)"><text fill="#000000" fill-opacity="1" font-family="Calibri,Calibri_MSFontService,sans-serif" font-style="normal" font-variant="normal" font-weight="400" font-stretch="normal" font-size="41" text-anchor="start" direction="ltr" writing-mode="lr-tb" unicode-bidi="normal" text-decoration="none" transform="matrix(6.12323e-17 -1 1 6.12323e-17 2001.12 7306)">Mar-08</text></g><g clip-path="url(#clip17)"><text fill="#000000" fill-opacity="1" font-family="Calibri,Calibri_MSFontService,sans-serif" font-style="normal" font-variant="normal" font-weight="400" font-stretch="normal" font-size="41" text-anchor="start" direction="ltr" writing-mode="lr-tb" unicode-bidi="normal" text-decoration="none" transform="matrix(6.12323e-17 -1 1 6.12323e-17 2064.7 7295)">Oct-08</text></g><g clip-path="url(#clip18)"><text fill="#000000" fill-opacity="1" font-family="Calibri,Calibri_MSFontService,sans-serif" font-style="normal" font-variant="normal" font-weight="400" font-stretch="normal" font-size="41" text-anchor="start" direction="ltr" writing-mode="lr-tb" unicode-bidi="normal" text-decoration="none" transform="matrix(6.12323e-17 -1 1 6.12323e-17 2128.29 7310)">May-09</text></g><g clip-path="url(#clip19)"><text fill="#000000" fill-opacity="1" font-family="Calibri,Calibri_MSFontService,sans-serif" font-style="normal" font-variant="normal" font-weight="400" font-stretch="normal" font-size="41" text-anchor="start" direction="ltr" writing-mode="lr-tb" unicode-bidi="normal" text-decoration="none" transform="matrix(6.12323e-17 -1 1 6.12323e-17 2191.88 7300)">Dec-09</text></g><g clip-path="url(#clip20)"><text fill="#000000" fill-opacity="1" font-family="Calibri,Calibri_MSFontService,sans-serif" font-style="normal" font-variant="normal" font-weight="400" font-stretch="normal" font-size="41" text-anchor="start" direction="ltr" writing-mode="lr-tb" unicode-bidi="normal" text-decoration="none" transform="matrix(6.12323e-17 -1 1 6.12323e-17 2255.46 7281)">Jul-10</text></g><g clip-path="url(#clip21)"><text fill="#000000" fill-opacity="1" font-family="Calibri,Calibri_MSFontService,sans-serif" font-style="normal" font-variant="normal" font-weight="400" font-stretch="normal" font-size="41" text-anchor="start" direction="ltr" writing-mode="lr-tb" unicode-bidi="normal" text-decoration="none" transform="matrix(6.12323e-17 -1 1 6.12323e-17 2319.05 7298)">Feb-11</text></g><g clip-path="url(#clip22)"><text fill="#000000" fill-opacity="1" font-family="Calibri,Calibri_MSFontService,sans-serif" font-style="normal" font-variant="normal" font-weight="400" font-stretch="normal" font-size="41" text-anchor="start" direction="ltr" writing-mode="lr-tb" unicode-bidi="normal" text-decoration="none" transform="matrix(6.12323e-17 -1 1 6.12323e-17 2382.64 7298)">Sep-11</text></g><g clip-path="url(#clip23)"><text fill="#000000" fill-opacity="1" font-family="Calibri,Calibri_MSFontService,sans-serif" font-style="normal" font-variant="normal" font-weight="400" font-stretch="normal" font-size="41" text-anchor="start" direction="ltr" writing-mode="lr-tb" unicode-bidi="normal" text-decoration="none" transform="matrix(6.12323e-17 -1 1 6.12323e-17 2446.22 7297)">Apr-12</text></g><g clip-path="url(#clip24)"><text fill="#000000" fill-opacity="1" font-family="Calibri,Calibri_MSFontService,sans-serif" font-style="normal" font-variant="normal" font-weight="400" font-stretch="normal" font-size="41" text-anchor="start" direction="ltr" writing-mode="lr-tb" unicode-bidi="normal" text-decoration="none" transform="matrix(6.12323e-17 -1 1 6.12323e-17 2509.81 7304)">Nov-12</text></g><g clip-path="url(#clip25)"><text fill="#000000" fill-opacity="1" font-family="Calibri,Calibri_MSFontService,sans-serif" font-style="normal" font-variant="normal" font-weight="400" font-stretch="normal" font-size="41" text-anchor="start" direction="ltr" writing-mode="lr-tb" unicode-bidi="normal" text-decoration="none" transform="matrix(6.12323e-17 -1 1 6.12323e-17 2573.4 7293)">Jun-13</text></g><g clip-path="url(#clip26)"><text fill="#000000" fill-opacity="1" font-family="Calibri,Calibri_MSFontService,sans-serif" font-style="normal" font-variant="normal" font-weight="400" font-stretch="normal" font-size="41" text-anchor="start" direction="ltr" writing-mode="lr-tb" unicode-bidi="normal" text-decoration="none" transform="matrix(6.12323e-17 -1 1 6.12323e-17 2636.98 7291)">Jan-14</text></g><g clip-path="url(#clip27)"><text fill="#000000" fill-opacity="1" font-family="Calibri,Calibri_MSFontService,sans-serif" font-style="normal" font-variant="normal" font-weight="400" font-stretch="normal" font-size="41" text-anchor="start" direction="ltr" writing-mode="lr-tb" unicode-bidi="normal" text-decoration="none" transform="matrix(6.12323e-17 -1 1 6.12323e-17 2700.57 7302)">Aug-14</text></g><g clip-path="url(#clip28)"><text fill="#000000" fill-opacity="1" font-family="Calibri,Calibri_MSFontService,sans-serif" font-style="normal" font-variant="normal" font-weight="400" font-stretch="normal" font-size="41" text-anchor="start" direction="ltr" writing-mode="lr-tb" unicode-bidi="normal" text-decoration="none" transform="matrix(6.12323e-17 -1 1 6.12323e-17 2764.16 7306)">Mar-15</text></g><g clip-path="url(#clip29)"><text fill="#000000" fill-opacity="1" font-family="Calibri,Calibri_MSFontService,sans-serif" font-style="normal" font-variant="normal" font-weight="400" font-stretch="normal" font-size="41" text-anchor="start" direction="ltr" writing-mode="lr-tb" unicode-bidi="normal" text-decoration="none" transform="matrix(6.12323e-17 -1 1 6.12323e-17 2827.74 7295)">Oct-15</text></g><g clip-path="url(#clip30)"><text fill="#000000" fill-opacity="1" font-family="Calibri,Calibri_MSFontService,sans-serif" font-style="normal" font-variant="normal" font-weight="400" font-stretch="normal" font-size="41" text-anchor="start" direction="ltr" writing-mode="lr-tb" unicode-bidi="normal" text-decoration="none" transform="matrix(6.12323e-17 -1 1 6.12323e-17 2891.33 7310)">May-16</text></g><g clip-path="url(#clip31)"><text fill="#000000" fill-opacity="1" font-family="Calibri,Calibri_MSFontService,sans-serif" font-style="normal" font-variant="normal" font-weight="400" font-stretch="normal" font-size="41" text-anchor="start" direction="ltr" writing-mode="lr-tb" unicode-bidi="normal" text-decoration="none" transform="matrix(6.12323e-17 -1 1 6.12323e-17 2954.92 7300)">Dec-16</text></g><g clip-path="url(#clip32)"><text fill="#000000" fill-opacity="1" font-family="Calibri,Calibri_MSFontService,sans-serif" font-style="normal" font-variant="normal" font-weight="400" font-stretch="normal" font-size="41" text-anchor="start" direction="ltr" writing-mode="lr-tb" unicode-bidi="normal" text-decoration="none" transform="matrix(6.12323e-17 -1 1 6.12323e-17 3018.5 7281)">Jul-17</text></g><g clip-path="url(#clip33)"><text fill="#000000" fill-opacity="1" font-family="Calibri,Calibri_MSFontService,sans-serif" font-style="normal" font-variant="normal" font-weight="400" font-stretch="normal" font-size="46" text-anchor="start" direction="ltr" writing-mode="lr-tb" unicode-bidi="normal" text-decoration="none" transform="matrix(6.12323e-17 -1 1 6.12323e-17 1538.17 6903)">Dollars</text></g><g clip-path="url(#clip34)"><text fill="#000000" fill-opacity="1" font-family="Calibri,Calibri_MSFontService,sans-serif" font-style="normal" font-variant="normal" font-weight="400" font-stretch="normal" font-size="64" text-anchor="start" direction="ltr" writing-mode="lr-tb" unicode-bidi="normal" text-decoration="none" transform="matrix(1 0 0 1 1894.17 6446)">Price per pure gram of meth</text></g><g clip-path="url(#clip35)"><text fill="#D0CECE" fill-opacity="1" font-family="Courier,Courier_MSFontService,sans-serif" font-style="normal" font-variant="normal" font-weight="400" font-stretch="normal" font-size="28" text-anchor="start" direction="ltr" writing-mode="lr-tb" unicode-bidi="normal" text-decoration="none" transform="matrix(1 0 0 1 2817.38 7121)">dynomight.net</text></g></g></svg>