<svg width="1655" height="995" xmlns="http://www.w3.org/2000/svg" xmlns:xlink="http://www.w3.org/1999/xlink" overflow="hidden"><defs><clipPath id="clip0"><rect x="1379" y="3501" width="1655" height="995"/></clipPath><clipPath id="clip1"><rect x="1607" y="3671" width="1375" height="639"/></clipPath><clipPath id="clip2"><rect x="1379" y="3501" width="1650" height="990"/></clipPath><clipPath id="clip3"><rect x="1379" y="3501" width="1650" height="990"/></clipPath><clipPath id="clip4"><rect x="1379" y="3501" width="1650" height="990"/></clipPath><clipPath id="clip5"><rect x="1379" y="3501" width="1650" height="990"/></clipPath><clipPath id="clip6"><rect x="1379" y="3501" width="1650" height="990"/></clipPath><clipPath id="clip7"><rect x="1379" y="3501" width="1650" height="990"/></clipPath><clipPath id="clip8"><rect x="1379" y="3501" width="1650" height="990"/></clipPath><clipPath id="clip9"><rect x="1379" y="3501" width="1650" height="990"/></clipPath><clipPath id="clip10"><rect x="1379" y="3501" width="1650" height="990"/></clipPath><clipPath id="clip11"><rect x="1379" y="3501" width="1650" height="990"/></clipPath><clipPath id="clip12"><rect x="1379" y="3501" width="1650" height="990"/></clipPath><clipPath id="clip13"><rect x="1379" y="3501" width="1650" height="990"/></clipPath><clipPath id="clip14"><rect x="1379" y="3501" width="1650" height="990"/></clipPath><clipPath id="clip15"><rect x="1379" y="3501" width="1650" height="990"/></clipPath><clipPath id="clip16"><rect x="1379" y="3501" width="1650" height="990"/></clipPath><clipPath id="clip17"><rect x="1379" y="3501" width="1650" height="990"/></clipPath><clipPath id="clip18"><rect x="1379" y="3501" width="1650" height="990"/></clipPath><clipPath id="clip19"><rect x="1379" y="3501" width="1650" height="990"/></clipPath><clipPath id="clip20"><rect x="1379" y="3501" width="1650" height="990"/></clipPath><clipPath id="clip21"><rect x="1379" y="3501" width="1650" height="990"/></clipPath><clipPath id="clip22"><rect x="1379" y="3501" width="1650" height="990"/></clipPath><clipPath id="clip23"><rect x="1379" y="3501" width="1650" height="990"/></clipPath><clipPath id="clip24"><rect x="1379" y="3501" width="1650" height="990"/></clipPath><clipPath id="clip25"><rect x="1379" y="3501" width="1650" height="990"/></clipPath><clipPath id="clip26"><rect x="1379" y="3501" width="1650" height="990"/></clipPath><clipPath id="clip27"><rect x="1379" y="3501" width="1650" height="990"/></clipPath><clipPath id="clip28"><rect x="1379" y="3501" width="1650" height="990"/></clipPath><clipPath id="clip29"><rect x="1379" y="3501" width="1650" height="990"/></clipPath><clipPath id="clip30"><rect x="1379" y="3501" width="1650" height="990"/></clipPath><clipPath id="clip31"><rect x="1379" y="3501" width="1650" height="990"/></clipPath><clipPath id="clip32"><rect x="1379" y="3501" width="1650" height="990"/></clipPath><clipPath id="clip33"><rect x="1379" y="3501" width="1651" height="991"/></clipPath><clipPath id="clip34"><rect x="1379" y="3501" width="1651" height="991"/></clipPath></defs><g clip-path="url(#clip0)" transform="translate(-1379 -3501)"><rect x="1380" y="3502" width="1650" height="990" fill="#FFFFFF" fill-opacity="1"/><g clip-path="url(#clip1)"><path d="M1614 4237.14 1655.05 4213.14 1697.06 4246 1738.06 4165.14 1779.06 4104.13 1820.06 4018.13 1861.06 3974.13 1902.06 3995.13 1944.06 3866.13 1985.07 3835.13 2026.07 3816.13 2067.07 3814.13 2108.07 3802.12 2149.07 3812.13 2190.07 3885.13 2232.07 3924.13 2273.07 3931.13 2314.08 3938.13 2355.08 3926.13 2396.08 3912.13 2437.08 3865.13 2478.08 3865.13 2520.08 3838.13 2561.08 3835.13 2602.09 3845.13 2643.09 3885.13 2684.09 3870.13 2725.09 3863.13 2766.09 3759.12 2808.09 3759.12 2849.09 3779.12 2890.09 3779.12 2931.1 3755 2972 3755" stroke="#4472C4" stroke-width="10.3125" stroke-linecap="round" stroke-linejoin="round" stroke-miterlimit="10" stroke-opacity="1" fill="none" fill-rule="nonzero"/></g><g clip-path="url(#clip2)"><text fill="#000000" fill-opacity="1" font-family="Calibri,Calibri_MSFontService,sans-serif" font-style="normal" font-variant="normal" font-weight="400" font-stretch="normal" font-size="41" text-anchor="start" direction="ltr" writing-mode="lr-tb" unicode-bidi="normal" text-decoration="none" transform="matrix(1 0 0 1 1527.46 4318)">60</text></g><g clip-path="url(#clip3)"><text fill="#000000" fill-opacity="1" font-family="Calibri,Calibri_MSFontService,sans-serif" font-style="normal" font-variant="normal" font-weight="400" font-stretch="normal" font-size="41" text-anchor="start" direction="ltr" writing-mode="lr-tb" unicode-bidi="normal" text-decoration="none" transform="matrix(1 0 0 1 1527.46 4238)">65</text></g><g clip-path="url(#clip4)"><text fill="#000000" fill-opacity="1" font-family="Calibri,Calibri_MSFontService,sans-serif" font-style="normal" font-variant="normal" font-weight="400" font-stretch="normal" font-size="41" text-anchor="start" direction="ltr" writing-mode="lr-tb" unicode-bidi="normal" text-decoration="none" transform="matrix(1 0 0 1 1527.46 4159)">70</text></g><g clip-path="url(#clip5)"><text fill="#000000" fill-opacity="1" font-family="Calibri,Calibri_MSFontService,sans-serif" font-style="normal" font-variant="normal" font-weight="400" font-stretch="normal" font-size="41" text-anchor="start" direction="ltr" writing-mode="lr-tb" unicode-bidi="normal" text-decoration="none" transform="matrix(1 0 0 1 1527.46 4079)">75</text></g><g clip-path="url(#clip6)"><text fill="#000000" fill-opacity="1" font-family="Calibri,Calibri_MSFontService,sans-serif" font-style="normal" font-variant="normal" font-weight="400" font-stretch="normal" font-size="41" text-anchor="start" direction="ltr" writing-mode="lr-tb" unicode-bidi="normal" text-decoration="none" transform="matrix(1 0 0 1 1527.46 4000)">80</text></g><g clip-path="url(#clip7)"><text fill="#000000" fill-opacity="1" font-family="Calibri,Calibri_MSFontService,sans-serif" font-style="normal" font-variant="normal" font-weight="400" font-stretch="normal" font-size="41" text-anchor="start" direction="ltr" writing-mode="lr-tb" unicode-bidi="normal" text-decoration="none" transform="matrix(1 0 0 1 1527.46 3920)">85</text></g><g clip-path="url(#clip8)"><text fill="#000000" fill-opacity="1" font-family="Calibri,Calibri_MSFontService,sans-serif" font-style="normal" font-variant="normal" font-weight="400" font-stretch="normal" font-size="41" text-anchor="start" direction="ltr" writing-mode="lr-tb" unicode-bidi="normal" text-decoration="none" transform="matrix(1 0 0 1 1527.46 3841)">90</text></g><g clip-path="url(#clip9)"><text fill="#000000" fill-opacity="1" font-family="Calibri,Calibri_MSFontService,sans-serif" font-style="normal" font-variant="normal" font-weight="400" font-stretch="normal" font-size="41" text-anchor="start" direction="ltr" writing-mode="lr-tb" unicode-bidi="normal" text-decoration="none" transform="matrix(1 0 0 1 1527.46 3761)">95</text></g><g clip-path="url(#clip10)"><text fill="#000000" fill-opacity="1" font-family="Calibri,Calibri_MSFontService,sans-serif" font-style="normal" font-variant="normal" font-weight="400" font-stretch="normal" font-size="41" text-anchor="start" direction="ltr" writing-mode="lr-tb" unicode-bidi="normal" text-decoration="none" transform="matrix(1 0 0 1 1506.56 3682)">100</text></g><g clip-path="url(#clip11)"><text fill="#000000" fill-opacity="1" font-family="Calibri,Calibri_MSFontService,sans-serif" font-style="normal" font-variant="normal" font-weight="400" font-stretch="normal" font-size="41" text-anchor="start" direction="ltr" writing-mode="lr-tb" unicode-bidi="normal" text-decoration="none" transform="matrix(6.12323e-17 -1 1 6.12323e-17 1628.22 4443)">Jan-11</text></g><g clip-path="url(#clip12)"><text fill="#000000" fill-opacity="1" font-family="Calibri,Calibri_MSFontService,sans-serif" font-style="normal" font-variant="normal" font-weight="400" font-stretch="normal" font-size="41" text-anchor="start" direction="ltr" writing-mode="lr-tb" unicode-bidi="normal" text-decoration="none" transform="matrix(6.12323e-17 -1 1 6.12323e-17 1696.8 4445)">Jun-11</text></g><g clip-path="url(#clip13)"><text fill="#000000" fill-opacity="1" font-family="Calibri,Calibri_MSFontService,sans-serif" font-style="normal" font-variant="normal" font-weight="400" font-stretch="normal" font-size="41" text-anchor="start" direction="ltr" writing-mode="lr-tb" unicode-bidi="normal" text-decoration="none" transform="matrix(6.12323e-17 -1 1 6.12323e-17 1765.38 4455)">Nov-11</text></g><g clip-path="url(#clip14)"><text fill="#000000" fill-opacity="1" font-family="Calibri,Calibri_MSFontService,sans-serif" font-style="normal" font-variant="normal" font-weight="400" font-stretch="normal" font-size="41" text-anchor="start" direction="ltr" writing-mode="lr-tb" unicode-bidi="normal" text-decoration="none" transform="matrix(6.12323e-17 -1 1 6.12323e-17 1833.96 4448)">Apr-12</text></g><g clip-path="url(#clip15)"><text fill="#000000" fill-opacity="1" font-family="Calibri,Calibri_MSFontService,sans-serif" font-style="normal" font-variant="normal" font-weight="400" font-stretch="normal" font-size="41" text-anchor="start" direction="ltr" writing-mode="lr-tb" unicode-bidi="normal" text-decoration="none" transform="matrix(6.12323e-17 -1 1 6.12323e-17 1902.54 4449)">Sep-12</text></g><g clip-path="url(#clip16)"><text fill="#000000" fill-opacity="1" font-family="Calibri,Calibri_MSFontService,sans-serif" font-style="normal" font-variant="normal" font-weight="400" font-stretch="normal" font-size="41" text-anchor="start" direction="ltr" writing-mode="lr-tb" unicode-bidi="normal" text-decoration="none" transform="matrix(6.12323e-17 -1 1 6.12323e-17 1971.12 4449)">Feb-13</text></g><g clip-path="url(#clip17)"><text fill="#000000" fill-opacity="1" font-family="Calibri,Calibri_MSFontService,sans-serif" font-style="normal" font-variant="normal" font-weight="400" font-stretch="normal" font-size="41" text-anchor="start" direction="ltr" writing-mode="lr-tb" unicode-bidi="normal" text-decoration="none" transform="matrix(6.12323e-17 -1 1 6.12323e-17 2039.71 4432)">Jul-13</text></g><g clip-path="url(#clip18)"><text fill="#000000" fill-opacity="1" font-family="Calibri,Calibri_MSFontService,sans-serif" font-style="normal" font-variant="normal" font-weight="400" font-stretch="normal" font-size="41" text-anchor="start" direction="ltr" writing-mode="lr-tb" unicode-bidi="normal" text-decoration="none" transform="matrix(6.12323e-17 -1 1 6.12323e-17 2108.29 4452)">Dec-13</text></g><g clip-path="url(#clip19)"><text fill="#000000" fill-opacity="1" font-family="Calibri,Calibri_MSFontService,sans-serif" font-style="normal" font-variant="normal" font-weight="400" font-stretch="normal" font-size="41" text-anchor="start" direction="ltr" writing-mode="lr-tb" unicode-bidi="normal" text-decoration="none" transform="matrix(6.12323e-17 -1 1 6.12323e-17 2176.87 4462)">May-14</text></g><g clip-path="url(#clip20)"><text fill="#000000" fill-opacity="1" font-family="Calibri,Calibri_MSFontService,sans-serif" font-style="normal" font-variant="normal" font-weight="400" font-stretch="normal" font-size="41" text-anchor="start" direction="ltr" writing-mode="lr-tb" unicode-bidi="normal" text-decoration="none" transform="matrix(6.12323e-17 -1 1 6.12323e-17 2245.45 4447)">Oct-14</text></g><g clip-path="url(#clip21)"><text fill="#000000" fill-opacity="1" font-family="Calibri,Calibri_MSFontService,sans-serif" font-style="normal" font-variant="normal" font-weight="400" font-stretch="normal" font-size="41" text-anchor="start" direction="ltr" writing-mode="lr-tb" unicode-bidi="normal" text-decoration="none" transform="matrix(6.12323e-17 -1 1 6.12323e-17 2314.03 4458)">Mar-15</text></g><g clip-path="url(#clip22)"><text fill="#000000" fill-opacity="1" font-family="Calibri,Calibri_MSFontService,sans-serif" font-style="normal" font-variant="normal" font-weight="400" font-stretch="normal" font-size="41" text-anchor="start" direction="ltr" writing-mode="lr-tb" unicode-bidi="normal" text-decoration="none" transform="matrix(6.12323e-17 -1 1 6.12323e-17 2382.61 4453)">Aug-15</text></g><g clip-path="url(#clip23)"><text fill="#000000" fill-opacity="1" font-family="Calibri,Calibri_MSFontService,sans-serif" font-style="normal" font-variant="normal" font-weight="400" font-stretch="normal" font-size="41" text-anchor="start" direction="ltr" writing-mode="lr-tb" unicode-bidi="normal" text-decoration="none" transform="matrix(6.12323e-17 -1 1 6.12323e-17 2451.2 4443)">Jan-16</text></g><g clip-path="url(#clip24)"><text fill="#000000" fill-opacity="1" font-family="Calibri,Calibri_MSFontService,sans-serif" font-style="normal" font-variant="normal" font-weight="400" font-stretch="normal" font-size="41" text-anchor="start" direction="ltr" writing-mode="lr-tb" unicode-bidi="normal" text-decoration="none" transform="matrix(6.12323e-17 -1 1 6.12323e-17 2519.78 4445)">Jun-16</text></g><g clip-path="url(#clip25)"><text fill="#000000" fill-opacity="1" font-family="Calibri,Calibri_MSFontService,sans-serif" font-style="normal" font-variant="normal" font-weight="400" font-stretch="normal" font-size="41" text-anchor="start" direction="ltr" writing-mode="lr-tb" unicode-bidi="normal" text-decoration="none" transform="matrix(6.12323e-17 -1 1 6.12323e-17 2588.36 4455)">Nov-16</text></g><g clip-path="url(#clip26)"><text fill="#000000" fill-opacity="1" font-family="Calibri,Calibri_MSFontService,sans-serif" font-style="normal" font-variant="normal" font-weight="400" font-stretch="normal" font-size="41" text-anchor="start" direction="ltr" writing-mode="lr-tb" unicode-bidi="normal" text-decoration="none" transform="matrix(6.12323e-17 -1 1 6.12323e-17 2656.94 4448)">Apr-17</text></g><g clip-path="url(#clip27)"><text fill="#000000" fill-opacity="1" font-family="Calibri,Calibri_MSFontService,sans-serif" font-style="normal" font-variant="normal" font-weight="400" font-stretch="normal" font-size="41" text-anchor="start" direction="ltr" writing-mode="lr-tb" unicode-bidi="normal" text-decoration="none" transform="matrix(6.12323e-17 -1 1 6.12323e-17 2725.52 4449)">Sep-17</text></g><g clip-path="url(#clip28)"><text fill="#000000" fill-opacity="1" font-family="Calibri,Calibri_MSFontService,sans-serif" font-style="normal" font-variant="normal" font-weight="400" font-stretch="normal" font-size="41" text-anchor="start" direction="ltr" writing-mode="lr-tb" unicode-bidi="normal" text-decoration="none" transform="matrix(6.12323e-17 -1 1 6.12323e-17 2794.11 4449)">Feb-18</text></g><g clip-path="url(#clip29)"><text fill="#000000" fill-opacity="1" font-family="Calibri,Calibri_MSFontService,sans-serif" font-style="normal" font-variant="normal" font-weight="400" font-stretch="normal" font-size="41" text-anchor="start" direction="ltr" writing-mode="lr-tb" unicode-bidi="normal" text-decoration="none" transform="matrix(6.12323e-17 -1 1 6.12323e-17 2862.69 4432)">Jul-18</text></g><g clip-path="url(#clip30)"><text fill="#000000" fill-opacity="1" font-family="Calibri,Calibri_MSFontService,sans-serif" font-style="normal" font-variant="normal" font-weight="400" font-stretch="normal" font-size="41" text-anchor="start" direction="ltr" writing-mode="lr-tb" unicode-bidi="normal" text-decoration="none" transform="matrix(6.12323e-17 -1 1 6.12323e-17 2931.27 4452)">Dec-18</text></g><g clip-path="url(#clip31)"><text fill="#000000" fill-opacity="1" font-family="Calibri,Calibri_MSFontService,sans-serif" font-style="normal" font-variant="normal" font-weight="400" font-stretch="normal" font-size="46" text-anchor="start" direction="ltr" writing-mode="lr-tb" unicode-bidi="normal" text-decoration="none" transform="matrix(6.12323e-17 -1 1 6.12323e-17 1480.87 4095)">Percentage</text></g><g clip-path="url(#clip32)"><text fill="#000000" fill-opacity="1" font-family="Calibri,Calibri_MSFontService,sans-serif" font-style="normal" font-variant="normal" font-weight="400" font-stretch="normal" font-size="64" text-anchor="start" direction="ltr" writing-mode="lr-tb" unicode-bidi="normal" text-decoration="none" transform="matrix(1 0 0 1 1916.7 3597)">Meth Purity x Potency</text></g><g clip-path="url(#clip33)"><text fill="#D0CECE" fill-opacity="1" font-family="Courier,Courier_MSFontService,sans-serif" font-style="normal" font-variant="normal" font-weight="400" font-stretch="normal" font-size="28" text-anchor="start" direction="ltr" writing-mode="lr-tb" unicode-bidi="normal" text-decoration="none" transform="matrix(1 0 0 1 2732.58 4305)">dynomight.net</text></g><g clip-path="url(#clip34)"><path d="M1610.5 3672.5 2980.92 3672.5" stroke="#000000" stroke-width="4.58333" stroke-linecap="butt" stroke-linejoin="miter" stroke-miterlimit="8" stroke-opacity="1" fill="none" fill-rule="evenodd"/></g></g></svg>