<svg xmlns="http://www.w3.org/2000/svg" xmlns:xlink="http://www.w3.org/1999/xlink" width="2560" height="1440" viewBox="0 0 1920 1080"><defs><symbol overflow="visible" id="a"><path style="stroke:none" d="M30.5-30.8V0h-2.3v-14.7H7.6V0H5.4v-30.8h2.2v14.2h20.6v-14.2Zm0 0"/></symbol><symbol overflow="visible" id="b"><path style="stroke:none" d="M5.4-30.8h2.2V0H5.4Zm0 0"/></symbol><symbol overflow="visible" id="c"><path style="stroke:none" d="M27.4-15.3h2.1v11.6c-1.3 1.3-3 2.2-4.9 3a18.4 18.4 0 0 1-14.3-1.1 15 15 0 0 1-7.9-13.6c0-3 .7-5.6 2.1-8 1.4-2.4 3.3-4.2 5.8-5.6a17 17 0 0 1 8.3-2c2.2 0 4.3.3 6.2 1 1.9.8 3.5 1.8 4.9 3.2l-1.4 1.5a11.7 11.7 0 0 0-4.4-2.8 15.6 15.6 0 0 0-12.4 1 12.8 12.8 0 0 0-5 4.8c-1.2 2-1.8 4.3-1.8 6.9a13.4 13.4 0 0 0 14 13.6c3.4 0 6.4-1 8.7-2.9Zm0 0"/></symbol><symbol overflow="visible" id="d"><path style="stroke:none" d="M26.6-2v2H5.4v-30.8H26v2H7.6v12.2H24v2H7.6V-2Zm0 0"/></symbol><symbol overflow="visible" id="e"><path style="stroke:none" d="m26.8 0-7.4-10.3c-1 .2-2 .2-3 .2H7.6V0H5.4v-30.8h11c3.9 0 7 1 9.1 2.8a9.4 9.4 0 0 1 3.3 7.6c0 2.4-.6 4.5-1.9 6.1a9.9 9.9 0 0 1-5.3 3.5L29.3 0ZM16.4-12c3.3 0 5.8-.8 7.5-2.2a7.6 7.6 0 0 0 2.6-6.2c0-2.7-.8-4.7-2.6-6.2-1.7-1.5-4.2-2.2-7.5-2.2H7.6V-12Zm0 0"/></symbol><symbol overflow="visible" id="g"><path style="stroke:none" d="M35.8 2.4a9 9 0 0 1-7.2 3.5c-1.7 0-3.4-.5-5-1.4-1.6-.8-3.4-2.3-5.3-4.3-3 0-5.7-.7-8.1-2a15 15 0 0 1-7.8-13.6A15.1 15.1 0 0 1 10.2-29c2.5-1.3 5.2-2 8.2-2 3 0 5.8.7 8.2 2a14.9 14.9 0 0 1 7.9 13.6A15.5 15.5 0 0 1 28-2.7C26-1.4 23.8-.5 21.2 0c2.6 2.6 5 4 7.4 4 2.3 0 4.4-1 6-3ZM4.7-15.4a13.2 13.2 0 0 0 6.8 11.8 14 14 0 0 0 7 1.8c2.5 0 4.9-.6 7-1.8a13.1 13.1 0 0 0 6.7-11.8 13.5 13.5 0 0 0-6.8-11.8c-2-1.2-4.4-1.8-7-1.8-2.5 0-4.9.6-7 1.8a13.1 13.1 0 0 0-6.7 11.8Zm0 0"/></symbol><symbol overflow="visible" id="h"><path style="stroke:none" d="M17.4.2a12 12 0 0 1-9-3.4C6.1-5.4 5-8.7 5-13v-17.7h2.2v17.6c0 3.8 1 6.7 2.6 8.5 1.8 2 4.3 2.9 7.6 2.9 3.2 0 5.7-1 7.5-2.9 1.7-1.8 2.5-4.7 2.5-8.5v-17.6h2.3v17.7c0 4.4-1.1 7.7-3.3 10a12 12 0 0 1-9 3.3Zm0 0"/></symbol><symbol overflow="visible" id="i"><path style="stroke:none" d="M24.4-8.7H6.6L2.6 0H.2l14.2-30.8h2.2L30.8 0h-2.4Zm-.8-1.9-8.1-17.7-8 17.7Zm0 0"/></symbol><symbol overflow="visible" id="j"><path style="stroke:none" d="M5.4-30.8h2.2V-2h17.7v2h-20Zm0 0"/></symbol><symbol overflow="visible" id="k"><path style="stroke:none" d="M11.3-28.8H.2v-2h24.4v2h-11V0h-2.3Zm0 0"/></symbol><symbol overflow="visible" id="l"><path style="stroke:none" d="M14.9-10.6V0h-2.3v-10.6L.2-30.8h2.5l11.1 18.1L25-30.8h2.3Zm0 0"/></symbol><symbol overflow="visible" id="m"><path style="stroke:none" d="M16.4-30.8c3.9 0 7 1 9.1 2.8a9.4 9.4 0 0 1 3.3 7.6c0 3.2-1 5.7-3.3 7.6a13.8 13.8 0 0 1-9 2.7H7.5V0H5.4v-30.8Zm0 18.7c3.3 0 5.8-.7 7.5-2.2a7.6 7.6 0 0 0 2.6-6.1c0-2.7-.8-4.7-2.6-6.2-1.7-1.5-4.2-2.2-7.5-2.2H7.6V-12Zm0 0"/></symbol><symbol overflow="visible" id="n"><path style="stroke:none" d="M26.9-2v2H2v-1.6l21.2-27.2h-21v-2h24.1v1.6L5.2-2Zm0 0"/></symbol><symbol overflow="visible" id="o"><path style="stroke:none" d="M8.1.2A9.8 9.8 0 0 1 0-4.2l1.3-1.5a9.2 9.2 0 0 0 3 3c1.2.6 2.5.9 3.8.9 2 0 3.6-.6 4.6-1.8 1-1.2 1.6-3 1.6-5.5v-19.7H2.8v-2h13.6v21.7c0 3.1-.7 5.4-2.1 7C13-.6 10.9.2 8 .2Zm0 0"/></symbol><symbol overflow="visible" id="p"><path style="stroke:none" d="M34.5 0v-26.4L21.5-4h-1l-13-22.2V0H5.5v-30.8h1.9L21-7l13.8-23.8h1.9V0Zm0 0"/></symbol><symbol overflow="visible" id="q"><path style="stroke:none" d="M4.4-32.8c.5 0 1 .2 1.3.5.4.4.5.8.5 1.3v1l-.3 1L4-23H2.5L4-29.2a2 2 0 0 1-1-.6c-.3-.3-.5-.7-.5-1.2s.2-1 .6-1.3c.3-.3.8-.5 1.3-.5Zm0 0"/></symbol><symbol overflow="visible" id="r"><path style="stroke:none" d="M13.5.2A18 18 0 0 1 7-.9c-2-.8-3.6-1.8-4.8-3l1-1.7c1.1 1.1 2.6 2 4.4 2.8 1.9.7 3.8 1 5.8 1 3 0 5.2-.5 6.7-1.6a5.2 5.2 0 0 0 2.2-4.4c0-1.4-.4-2.5-1.2-3.3a7.8 7.8 0 0 0-3-1.9c-1.1-.4-2.7-.9-4.7-1.3-2.2-.6-4-1.1-5.4-1.7a8.8 8.8 0 0 1-3.5-2.4 6.6 6.6 0 0 1-1.4-4.4A7.5 7.5 0 0 1 7.9-30a17 17 0 0 1 15.4 1.7l-.9 1.8A15.1 15.1 0 0 0 14-29c-2.8 0-5 .5-6.4 1.7A5.4 5.4 0 0 0 5.3-23c0 1.4.4 2.5 1.2 3.3.8.8 1.8 1.5 3 2l4.8 1.3c2.2.6 4 1.1 5.4 1.7 1.3.5 2.5 1.3 3.4 2.3 1 1.1 1.4 2.6 1.4 4.4 0 1.5-.4 2.8-1.2 4-.8 1.3-2 2.3-3.7 3C18 0 16 .2 13.5.2Zm0 0"/></symbol><symbol overflow="visible" id="s"><path style="stroke:none" d="M23.7-15.9c2.2.4 3.8 1.3 5 2.6 1.2 1.3 1.8 3 1.8 5.2a7 7 0 0 1-3 6C25.8-.7 23 0 19.2 0H5.4v-30.8h12.8c3.4 0 6 .7 7.8 2a6.8 6.8 0 0 1 2.8 5.9c0 1.7-.5 3.2-1.4 4.4-.9 1.2-2.1 2-3.7 2.6Zm-16-13v12.3H18c2.7 0 4.8-.5 6.2-1.6 1.5-1 2.2-2.5 2.2-4.6 0-2-.7-3.5-2.2-4.5-1.4-1-3.5-1.6-6.2-1.6ZM19-1.9c3 0 5.2-.6 6.8-1.6 1.5-1 2.3-2.6 2.3-4.8 0-2.2-.8-3.8-2.3-4.8-1.6-1-3.8-1.6-6.8-1.6H7.6v12.8Zm0 0"/></symbol><symbol overflow="visible" id="t"><path style="stroke:none" d="M46.5-30.8 36.1 0h-2.4l-9.5-27.6L14.6 0h-2.4L1.8-30.8H4l9.4 27.7 9.6-27.7h2.2L34.9-3l9.5-27.8Zm0 0"/></symbol><symbol overflow="visible" id="u"><path style="stroke:none" d="M10-12.3V-.8h1.1l.4.1.2.3c0 .1 0 .2-.2.3l-.4.1h-2v-1.6A4.3 4.3 0 0 1 3.5-.3a4.7 4.7 0 0 1-1.6-6.2 4.3 4.3 0 0 1 3.8-2.3c1.4 0 2.6.7 3.6 2v-4.6H8l-.4-.1-.2-.3c0-.2 0-.3.2-.3l.4-.2Zm-.8 8.1c0-1-.4-2-1-2.6C7.3-7.6 6.5-8 5.5-8s-1.8.3-2.5 1c-.7.8-1 1.7-1 2.7 0 1 .3 1.9 1 2.6.7.7 1.5 1.1 2.5 1.1s1.8-.4 2.5-1c.7-.8 1-1.7 1-2.7Zm0 0"/></symbol><symbol overflow="visible" id="v"><path style="stroke:none" d="M6 0 2.3-7.6H2l-.4-.1-.1-.3v-.3l.2-.1H4.7l.1.4-.1.3H3.2L6.4-.8l3.3-6.7H8.7l-.4-.1L8-8c0-.2 0-.3.2-.3l.4-.2h2.2c.2 0 .4 0 .5.2v.5l-.2.1h-.5L5.5 3H7.2l.1.4-.1.2-.4.2H2l-.4-.1-.1-.3.1-.3L2 3h2.6Zm0 0"/></symbol><symbol overflow="visible" id="w"><path style="stroke:none" d="M3.3-8.5v1.3c.6-.6 1.1-1 1.6-1.2.5-.2 1-.3 1.6-.3.6 0 1.2 0 1.7.4.3.1.7.5 1 1 .3.4.4.8.4 1.3v5.2h.7l.4.1.1.3v.3l-.5.1H8.1l-.4-.1-.2-.3c0-.1 0-.2.2-.3L8-.8h.7v-5c0-.6-.2-1.1-.6-1.5-.5-.4-1-.6-1.7-.6-.6 0-1 0-1.5.3-.4.2-1 .8-1.7 1.6v5.2h1l.4.1.1.3-.1.3-.4.1H1.6l-.4-.1L1-.4v-.3l.5-.1h1v-6.8h-.8l-.4-.1-.1-.3.1-.3.4-.2Zm0 0"/></symbol><symbol overflow="visible" id="x"><path style="stroke:none" d="M10.6-4.2C10.6-3 10-1.9 9.3-1 8.3-.1 7.3.3 6 .3 4.7.3 3.6 0 2.7-1 2-1.9 1.4-3 1.4-4.2c0-1.3.5-2.3 1.4-3.2.8-.9 2-1.3 3.2-1.3 1.3 0 2.4.4 3.3 1.3.8.9 1.3 2 1.3 3.2Zm-.8 0c0-1-.4-2-1.1-2.6C7.9-7.6 7-8 6-8c-1 0-2 .3-2.7 1-.7.8-1 1.7-1 2.7 0 1 .3 1.9 1 2.6C4.1-.9 5-.5 6-.5c1 0 2-.4 2.7-1 .7-.8 1-1.7 1-2.7Zm0 0"/></symbol><symbol overflow="visible" id="y"><path style="stroke:none" d="M2.3-8.5v.9c.7-.8 1.4-1.2 2-1.2.5 0 .9.2 1.2.4.3.2.6.6.8 1l1-1 1.2-.3c.6 0 1 .1 1.4.5.5.5.7 1 .7 1.7v5.7h.7l.4.1.2.3c0 .1 0 .2-.2.3l-.4.1H9.8v-6.5c0-.4-.1-.7-.4-1-.2-.3-.5-.4-.9-.4l-1 .3-1 1.3v5.5h.7l.4.1.1.3-.1.3-.4.1H5.6v-6.4c0-.5 0-.8-.3-1.1-.3-.3-.6-.4-1-.4-.2 0-.5 0-.8.3-.4.2-.8.7-1.2 1.3v5.5H3l.4.1.1.3-.1.3L3 0H.7L.3-.1.2-.4l.1-.3.5-.1h.7v-6.8H.7l-.4-.1L.2-8l.1-.3.5-.2Zm0 0"/></symbol><symbol overflow="visible" id="z"><path style="stroke:none" d="M6.4-12.7v2.2H5.2v-2.2Zm0 4.2v7.7h3.3l.4.1.1.3-.1.3-.4.1H2.4L2-.1l-.2-.3c0-.1 0-.2.2-.3l.4-.1h3.2v-6.8H3.2l-.4-.1-.1-.3.1-.3.4-.2Zm0 0"/></symbol><symbol overflow="visible" id="A"><path style="stroke:none" d="M8.8-7v-1.5h1.9c.2 0 .3 0 .4.2l.1.3v.3H9.5V.7c0 .5-.1 1-.4 1.4l-.7 1-1 .6a3 3 0 0 1-1.3.2H4l-.4-.1-.1-.3.1-.4h2.8c.5 0 .9-.2 1.3-.4.4-.3.7-.6 1-1.1l.2-1V-2a4 4 0 0 1-6.4.5 4.2 4.2 0 0 1-1.2-3c0-1.2.4-2.2 1.2-3a4 4 0 0 1 6.3.5Zm0 2.5c0-1-.4-1.8-1-2.4-.7-.7-1.5-1-2.4-1-1 0-1.7.3-2.4 1-.6.6-1 1.5-1 2.4 0 1 .4 1.8 1 2.5.7.6 1.5 1 2.4 1 1 0 1.7-.4 2.4-1 .6-.7 1-1.5 1-2.5Zm0 0"/></symbol><symbol overflow="visible" id="B"><path style="stroke:none" d="M3.3-12.3v5.1c.5-.6 1-1 1.5-1.2.5-.2 1-.3 1.6-.3.6 0 1.2 0 1.6.3.5.2.8.6 1.1 1 .3.5.5 1 .5 1.5v5h1l.3.2.2.3c0 .1 0 .2-.2.3l-.4.1H8l-.5-.1-.1-.3.1-.3.5-.1h.9v-5c0-.6-.2-1.1-.7-1.5-.4-.4-1-.6-1.8-.6-.5 0-1 .1-1.5.4L3.3-6v5.2h1l.3.1.2.3c0 .1 0 .2-.2.3l-.4.1H1.5l-.4-.1L1-.4l.1-.3.4-.1h1v-10.6H1.4l-.4-.1-.2-.3c0-.2 0-.3.2-.3l.4-.2Zm0 0"/></symbol><symbol overflow="visible" id="C"><path style="stroke:none" d="M4.3-8.5h4.5c.2 0 .3 0 .4.2l.1.3-.1.3H4.3v5.5c0 .5.2 1 .6 1.2.4.3 1 .5 1.7.5a7.2 7.2 0 0 0 3.3-.8l.3-.1h.3v.7L8.9 0c-.8.2-1.5.3-2.3.3-1 0-1.7-.2-2.3-.6-.5-.5-.8-1.1-.8-1.9v-5.4H2l-.5-.1v-.6l.5-.2h1.5v-2.8l.4-.1.3.1.1.4Zm0 0"/></symbol><symbol overflow="visible" id="D"><path style="stroke:none" d="M5.8-2.4h.4c.4 0 .7.2 1 .4.2.3.3.6.3 1 0 .3-.1.7-.4 1-.3.2-.6.3-1 .3h-.3c-.3 0-.7-.1-1-.4-.2-.3-.3-.6-.3-1 0-.3.1-.6.4-.9.3-.2.6-.4 1-.4Zm0 0"/></symbol><symbol overflow="visible" id="E"><path style="stroke:none" d="M10.4-4H2.1c.1 1 .6 1.9 1.3 2.5.8.7 1.7 1 2.8 1a6.7 6.7 0 0 0 3.5-1.1l.4-.1h.2l.2.4-.2.3c-.3.3-.9.6-1.7 1L6.2.2C4.8.3 3.6 0 2.7-1c-1-1-1.5-2-1.5-3.4 0-1.2.5-2.2 1.4-3 .8-1 2-1.3 3.2-1.3 1.4 0 2.5.4 3.4 1.3.8.8 1.2 2 1.2 3.4ZM9.6-5a3.7 3.7 0 0 0-3.8-3c-1 0-1.7.3-2.4.8-.7.6-1.1 1.3-1.3 2.2Zm0 0"/></symbol></defs><path style="fill:#fff;fill-opacity:1;stroke:none" d="M0 0h1920v1080H0z"/><path style="stroke:none;fill-rule:nonzero;fill:#b51700;fill-opacity:1" d="M1548.3 511.1c.4.2 1 .5.7 1.2-.2.6-.9.9-1.5.6-.6-.3-.3-.6-1.7-1.3-.5-.2 0-1.3.5-1 1.3.5 1.2.1 2 .5Zm-803.2-383c-.7-.4-.9-.8-.6-1.4.3-.6.8-.7 1.5-.4.6.3.4.6 1.6 1.1.6.3 0 1.4-.6 1.1-1.1-.5-1.1-.1-1.9-.5Zm801.2 382.4c.5.3 0 1.4-.7 1l-2.4-1.3-1.9-.6c-.3-.2-1.8-1.3-2.5-1.5l-1.4-.6-1.6-1c-.5-.2-1 0-1.6-.4-.5-.4-.9-.4-1.3-.6-.7-.4 0-1.4.5-1.1l1.5.6c.5.3.9.6 1.4.7.6.1 1.4.7 2 1 .5.4 1.2.7 1.6.8l3.4 1.7c.4 0 1.3.6 1.7.8l1.3.5Zm-26.3-11.2c-.6-.3-.1-1.4.6-1.1l2.3 1.2 2.4 1c.3.2 1.4 1 2.1 1.2.8.2 1.4.7 1.9.9.6.2.9.4 1.3.7.5.2 1.3.3 1.6.6.3.3.6.3 1.1.5.6.3 0 1.4-.5 1.1a26.9 26.9 0 0 1-3-1.5l-1.8-.8-1.7-1-1.7-.8c-.4-.3-1.3-.6-1.7-.7-.4 0-.5-.3-1.2-.6l-1.7-.7Zm-.1-.1-2-1.1c-.3-.2-1.3-.5-1.7-.8l-1.3-.7a8 8 0 0 0-1.6-.7 4 4 0 0 1-1.2-.5l-1.5-.6c-.5-.5-.7-.4-1.1-.6l-1.2-.6c-.4-.3-.8-.3-1.1-.5-.7-.3 0-1.4.5-1 .4 0 .6.4 1 .5l1 .5c.5 0 1.2.5 1.8.8l2.3 1c.7.4 1 .8 2.5 1.3l1.7.9 2.5 1c.6.3 0 1.4-.6 1.1Zm-25.6-12.3c-.6-.2-.2-1.4.5-1l2.4 1.2 2.3 1c.3.1 1.4.9 2.2 1.1.7.2 1.3.7 1.8 1 .6.1 1 .4 1.4.6.4.2 1.2.3 1.5.6l1.2.6c.5.2 0 1.3-.5 1a30.3 30.3 0 0 1-3-1.5l-1.9-.8-1.7-1c-.4-.2-1.3-.5-1.7-.8-.4-.3-1.3-.6-1.7-.6l-1.2-.6-1.6-.8Zm-.2 0-2-1.2-1.7-.7-1.2-.8a8 8 0 0 0-1.6-.6l-1.3-.5-1.4-.7-1.2-.6-1.2-.6-1.1-.4c-.6-.3 0-1.4.5-1.1.4.1.7.4 1 .6l1.1.4 1.7.8 2.3 1c.7.4 1 .9 2.5 1.4.5.1 1.4.6 1.7.8l2.5 1c.6.4 0 1.5-.6 1.1Zm-25.6-12.3c-.6-.3-.2-1.5.5-1.1l2.4 1.2 2.3 1c.4.2 1.5 1 2.2 1.1.8.3 1.3.8 1.8 1l1.4.6c.4.3 1.2.4 1.6.7l1.1.5c.5.3 0 1.4-.5 1.1a30.3 30.3 0 0 1-3-1.6c-.5-.2-1.3-.4-1.9-.8l-1.7-.9-1.6-.8c-.5-.4-1.4-.7-1.7-.7-.4 0-.5-.3-1.2-.6l-1.7-.7Zm.5-1.2c.5.3 0 1.4-.6 1.1l-2.5-1.4-1.8-.6c-.4-.2-1.8-1.3-2.6-1.5l-1.4-.6-1.6-.9c-.4-.2-1-.1-1.6-.5-.5-.4-.9-.4-1.3-.6-.6-.3 0-1.4.5-1.1l1.6.7 1.3.7c.6 0 1.4.6 2 1l1.6.8c1 .3 3 1.6 3.4 1.6.4 0 1.3.6 1.7.8l1.3.5Zm-13.5-5-2-1.2c-.3-.2-1.3-.5-1.7-.8l-1.3-.7-1.6-.7-1.2-.4c-.8-.5-1.1-.5-1.5-.7-.6-.5-.7-.4-1.1-.6l-1.2-.6c-.4-.3-.8-.3-1.1-.5-.7-.3 0-1.4.5-1 .4 0 .6.4 1 .5l1 .5c.5.1 1.2.5 1.8.8l2.3 1c.7.4 1 .8 2.5 1.3l1.7.9 2.4 1c.7.4.1 1.4-.5 1.1Zm-25.6-12.4c-.6-.2-.2-1.4.5-1l2.3 1.2 2.4 1c.3.1 1.4.9 2.2 1.1l1.8 1 1.3.6 1.6.6 1.2.6c.5.2 0 1.3-.5 1a26.9 26.9 0 0 1-3-1.5c-.6-.2-1.4-.4-2-.8l-1.6-1c-.4-.1-1.3-.5-1.7-.8-.4-.3-1.3-.6-1.7-.6l-1.2-.6-1.6-.8Zm-.2 0-2-1.2-1.7-.7-1.2-.8a8 8 0 0 0-1.7-.6 4 4 0 0 1-1.2-.5c-.8-.4-1.1-.4-1.5-.7-.5-.4-.6-.3-1.1-.6l-1.2-.6-1.1-.4c-.6-.3 0-1.4.5-1.1.4.1.6.4 1 .6l1.1.4 1.7.8 2.3 1c.7.4 1 .9 2.5 1.4l1.7.8 2.5 1c.6.4 0 1.5-.6 1.2Zm-25.6-12.3c-.6-.3-.2-1.4.5-1.1l2.4 1.2 2.3 1c.4.2 1.5 1 2.2 1.2.8.2 1.3.7 1.8.9.7.2 1 .4 1.4.7.4.2 1.2.3 1.6.6.3.3.6.3 1.1.5.5.3 0 1.4-.5 1.1a28.4 28.4 0 0 1-3-1.5l-1.9-.8-1.7-1-1.6-.8-1.7-.7c-.4 0-.5-.3-1.2-.6l-1.7-.7Zm-.2-.1c-.7-.3-1.7-1-2-1.2-.3 0-1.2-.4-1.7-.7l-1.2-.7a8 8 0 0 0-1.6-.7 4 4 0 0 1-1.3-.5l-1.4-.6c-.6-.5-.7-.4-1.2-.6l-1.1-.6c-.4-.3-.8-.3-1.2-.5-.6-.3 0-1.4.6-1 .3 0 .6.4 1 .5l1 .5c.4 0 1.1.5 1.8.8l2.3 1c.6.4 1 .8 2.4 1.3l1.8.9 2.4 1c.7.3.1 1.4-.6 1.1Zm-25.5-12.3c-.6-.2-.2-1.4.5-1l2.3 1.2 2.4 1c.3.1 1.4.9 2.2 1.1.7.2 1.3.7 1.8 1 .6.1.9.4 1.3.6l1.6.6c.3.3.6.3 1.1.6.6.2 0 1.3-.5 1a30.3 30.3 0 0 1-3-1.5l-1.8-.8-1.7-1c-.4-.2-1.3-.5-1.7-.8-.4-.3-1.3-.6-1.7-.7-.3 0-.5-.2-1.2-.5l-1.6-.8Zm.4-1.1c.5.2 0 1.4-.6 1-.7-.3-2-1.2-2.4-1.3l-2-.6c-.2-.2-1.7-1.3-2.4-1.5l-1.4-.6-1.7-1c-.4-.2-1 0-1.5-.5l-1.4-.6c-.6-.3 0-1.4.6-1l1.5.6c.5.3.8.6 1.4.7.5.1 1.4.7 2 1 .4.4 1.1.6 1.6.8 1 .4 3 1.6 3.3 1.7.4 0 1.3.6 1.7.8.3.1.6.1 1.3.5Zm-13.5-5.1-2-1.2-1.7-.7-1.3-.8a8 8 0 0 0-1.6-.6l-1.2-.5c-.8-.4-1.1-.4-1.5-.7-.5-.4-.6-.3-1.1-.6l-1.2-.6-1.1-.4c-.6-.3 0-1.4.5-1.1.4.1.6.4 1 .6l1.1.4 1.7.9 2.3 1c.7.3 1 .8 2.5 1.3l1.7.8 2.5 1.1c.6.3 0 1.4-.6 1Zm-25.6-12.3c-.6-.3-.2-1.4.5-1.1l2.4 1.2 2.3 1c.4.2 1.5 1 2.2 1.2.7.2 1.3.7 1.8.9.7.2 1 .4 1.4.7.4.2 1.2.3 1.6.6.3.3.6.3 1.1.5.5.3 0 1.4-.5 1.1a26.9 26.9 0 0 1-3-1.5l-1.9-.8-1.7-1-1.6-.8-1.7-.7c-.4 0-.5-.3-1.2-.6l-1.7-.7Zm-.2 0-2-1.2-1.7-.8-1.2-.7-1.6-.7c-.2 0-.7-.1-1.3-.4l-1.4-.7c-.6-.5-.7-.4-1.2-.6l-1.1-.6c-.4-.3-.8-.3-1.2-.5-.6-.3 0-1.4.6-1 .3 0 .6.4 1 .5l1 .5 1.7.8 2.4 1c.6.4 1 .8 2.4 1.3l1.8.9 2.4 1c.7.4.1 1.4-.6 1.1Zm-12.2-7.3c.5.2 0 1.3-.6 1-.7-.3-2-1.2-2.5-1.3l-1.8-.6c-.4-.2-1.8-1.3-2.6-1.5l-1.4-.7-1.6-.9c-.4-.2-1-.1-1.5-.5l-1.4-.6c-.6-.3 0-1.4.5-1l1.6.6c.4.3.8.6 1.4.7.5.1 1.3.7 1.9 1 .5.4 1.2.6 1.6.8 1 .3 3 1.6 3.4 1.6l1.7.8 1.3.6Zm-13.5-5.1-2-1.2-1.7-.7-1.3-.8c-.9-.5-1.5-.6-1.6-.6l-1.2-.5-1.5-.7c-.5-.4-.7-.3-1.1-.6l-1.2-.6-1.1-.4c-.7-.3 0-1.4.5-1.1.4.1.6.4 1 .6l1 .4c.5.1 1.2.6 1.8.8l2.3 1c.7.4 1 .9 2.5 1.4l1.7.8 2.5 1c.6.4 0 1.5-.6 1.2Zm-12.3-7.3c.6.3 0 1.4-.6 1-.7-.2-2-1.1-2.4-1.3-.4-.1-1.6-.4-1.9-.6-.3-.2-1.8-1.3-2.5-1.5-.8-.2-1-.4-1.4-.6l-1.7-1c-.4-.2-1 0-1.5-.4-.6-.4-1-.4-1.3-.6-.7-.3-.1-1.4.5-1.1l1.5.6c.5.3.9.6 1.4.7l2 1c.5.4 1.1.7 1.6.8l3.4 1.7c.3 0 1.3.6 1.6.8l1.3.5ZM1288 388l-2-1.1c-.3-.2-1.3-.5-1.7-.8l-1.2-.7-1.6-.7a4 4 0 0 1-1.3-.5l-1.4-.6c-.6-.5-.7-.4-1.2-.6l-1.2-.6c-.3-.3-.7-.3-1.1-.5-.6-.3 0-1.4.6-1 .3 0 .6.4 1 .5l1 .5c.4 0 1.1.5 1.7.8l2.3 1c.7.4 1 .8 2.5 1.3l1.7.9 2.5 1c.6.3 0 1.4-.6 1.1Zm-12.3-7.2c.6.2 0 1.3-.6 1-.6-.3-2-1.2-2.4-1.3l-1.9-.7c-.3-.1-1.8-1.2-2.5-1.5l-1.4-.6-1.6-.9c-.5-.2-1-.1-1.6-.5l-1.3-.6c-.7-.3-.1-1.4.5-1l1.5.6c.5.2.9.6 1.4.7.6.1 1.4.7 2 1 .5.4 1.1.6 1.6.8 1 .3 3 1.6 3.4 1.6l1.6.8 1.3.6Zm-26.2-11.2c-.6-.3-.1-1.5.6-1.1l2.3 1.2 2.4 1c.3.1 1.4.9 2.1 1.1.8.3 1.4.8 1.9 1l1.3.6c.5.3 1.3.4 1.6.6.3.3.6.3 1.1.6.6.2 0 1.3-.5 1a28.5 28.5 0 0 1-3-1.5c-.5-.2-1.3-.4-1.8-.8-.6-.3-1.4-.7-1.7-1-.4-.1-1.3-.5-1.7-.8-.4-.3-1.3-.6-1.7-.6-.4 0-.5-.3-1.2-.6l-1.7-.7Zm-.1-.1-2-1.2-1.7-.7-1.3-.8a8 8 0 0 0-1.6-.6 4 4 0 0 1-1.2-.5c-.8-.4-1.1-.4-1.5-.7l-1.1-.6-1.2-.6-1.1-.4c-.7-.3 0-1.4.5-1.1.4.1.6.4 1 .6l1 .4 1.8.9 2.3 1c.7.3 1 .8 2.5 1.3l1.7.8c.6.3 2 .8 2.4 1.1.7.3.1 1.4-.5 1Zm-12.3-7.3c.5.3 0 1.4-.6 1.1l-2.4-1.4-2-.6c-.2-.2-1.7-1.3-2.4-1.5-.8-.2-1-.4-1.4-.6l-1.7-.9c-.4-.2-1-.1-1.5-.5-.6-.4-1-.4-1.3-.6-.7-.3-.1-1.4.5-1.1l1.5.7c.5.2.9.5 1.4.6l2 1c.5.4 1.1.7 1.6.9 1 .3 3 1.5 3.3 1.6.4 0 1.4.6 1.7.8l1.3.5ZM1211 351c-.6-.3-.2-1.4.5-1l2.4 1.1 2.3 1c.3.2 1.5 1 2.2 1.2.7.2 1.3.7 1.8 1 .6.1 1 .3 1.4.6.4.2 1.2.3 1.6.6.3.3.6.3 1 .5.6.3.1 1.4-.4 1.2a32.2 32.2 0 0 1-3-1.6l-1.9-.8-1.7-1-1.6-.8-1.7-.7c-.4 0-.6-.2-1.2-.6l-1.7-.7Zm.4-1.1c.6.2 0 1.3-.6 1-.6-.3-2-1.2-2.4-1.3l-1.9-.7c-.3-.1-1.8-1.2-2.5-1.4l-1.4-.7-1.6-.9c-.5-.2-1-.1-1.6-.5l-1.3-.6c-.7-.3-.1-1.4.5-1l1.5.6c.5.3.9.6 1.4.7.6.1 1.4.7 2 1 .5.4 1.1.6 1.6.8 1 .4 3 1.6 3.4 1.6l1.6.8 1.3.6Zm-13.5-5.1-2-1.2-1.7-.7-1.2-.8a8 8 0 0 0-1.6-.6l-1.3-.5-1.4-.7-1.2-.6c-.4-.2-.8-.3-1.1-.6l-1.2-.4c-.6-.3 0-1.4.6-1.1l1 .6 1 .4c.4.1 1.1.6 1.8.8l2.3 1c.6.4 1 .9 2.4 1.4.5.1 1.4.6 1.8.8l2.4 1c.7.4.1 1.5-.6 1.2Zm-25.5-12.3c-.6-.3-.2-1.4.5-1.1l2.3 1.2 2.4 1c.3.2 1.4 1 2.2 1.2.7.2 1.3.7 1.8.9.6.2.9.4 1.3.7.5.2 1.3.3 1.6.6.3.3.6.3 1.1.5.6.3 0 1.4-.5 1.1a28.4 28.4 0 0 1-3-1.5l-1.8-.8-1.7-1-1.7-.8c-.4-.3-1.3-.6-1.7-.7-.3 0-.5-.3-1.2-.6l-1.6-.7Zm-.2-.1-2-1.1c-.3-.2-1.3-.5-1.7-.8-.4-.2-.5-.4-1.3-.7a8 8 0 0 0-1.6-.7c-.1 0-.6-.1-1.2-.5l-1.5-.6c-.5-.5-.7-.4-1.1-.6l-1.2-.6c-.4-.3-.7-.3-1.1-.5-.6-.3 0-1.4.5-1 .4 0 .6.3 1 .5l1 .5c.5 0 1.2.5 1.8.8l2.3 1c.7.4 1 .8 2.5 1.3l1.7.9 2.5 1c.6.3 0 1.4-.6 1.1Zm-25.6-12.3c-.6-.3-.2-1.4.5-1l2.4 1.2 2.3 1c.3.1 1.5.9 2.2 1.1.7.2 1.3.7 1.8 1 .6.1 1 .4 1.4.6.4.2 1.2.3 1.5.6l1.2.6c.5.2 0 1.3-.5 1a30.3 30.3 0 0 1-3-1.5l-1.9-.8-1.7-1c-.4-.2-1.3-.5-1.6-.8l-1.7-.7c-.4 0-.6-.2-1.2-.5l-1.7-.8Zm.4-1.1c.6.2 0 1.4-.6 1-.6-.3-2-1.2-2.4-1.3l-1.9-.6c-.3-.2-1.8-1.3-2.5-1.5l-1.4-.6-1.6-1c-.5-.2-1 0-1.6-.5l-1.3-.6c-.7-.3-.1-1.4.5-1l1.5.6c.5.3.9.6 1.4.7.6.1 1.4.7 2 1 .5.4 1.1.6 1.6.8l3.4 1.7c.3 0 1.3.6 1.6.7l1.3.6Zm-13.5-5.1-2-1.2-1.7-.7-1.2-.8a8 8 0 0 0-1.6-.6 4 4 0 0 1-1.3-.5l-1.4-.7-1.2-.6c-.4-.2-.8-.3-1.1-.6l-1.2-.4c-.6-.3 0-1.4.6-1.1l1 .6 1 .4 1.8.9 2.3 1c.6.3 1 .8 2.4 1.3l1.8.8 2.4 1.1c.7.3.1 1.4-.6 1Zm-25.6-12.3c-.5-.3-.1-1.4.6-1.1l2.3 1.2 2.4 1c.3.2 1.4 1 2.2 1.2.7.2 1.3.7 1.8.9.6.2.9.4 1.3.7.5.2 1.3.3 1.6.6.3.3.6.3 1.1.5.6.3 0 1.4-.5 1.1a28.5 28.5 0 0 1-3-1.5l-1.8-.8-1.7-1-1.7-.8c-.4-.3-1.3-.6-1.7-.7-.3 0-.5-.3-1.2-.6l-1.7-.7Zm-.1 0-2-1.2c-.3-.2-1.3-.5-1.7-.8l-1.3-.7a8 8 0 0 0-1.6-.7 4 4 0 0 1-1.2-.4c-.8-.5-1.1-.5-1.5-.7-.5-.5-.7-.4-1.1-.6l-1.2-.6c-.4-.3-.8-.3-1.1-.5-.7-.3 0-1.4.5-1 .4 0 .6.4 1 .5l1 .5c.5.1 1.2.5 1.8.8l2.3 1c.7.4 1 .8 2.5 1.3l1.7.9 2.5 1c.6.4 0 1.4-.6 1.1Zm-25.6-12.4c-.6-.2-.2-1.4.5-1l2.4 1.2 2.3 1c.3.1 1.5.9 2.2 1.1l1.8 1 1.4.6 1.5.6 1.2.6c.5.2 0 1.3-.5 1a26.9 26.9 0 0 1-3-1.5c-.6-.2-1.4-.4-1.9-.8l-1.7-1c-.4-.1-1.3-.5-1.6-.8-.5-.3-1.4-.6-1.8-.6l-1.2-.6-1.6-.8Zm.4-1.1c.6.3 0 1.4-.6 1-.6-.3-2-1.2-2.4-1.3l-1.9-.6c-.3-.2-1.8-1.3-2.5-1.5l-1.4-.6-1.6-1c-.5-.2-1 0-1.6-.4-.5-.4-1-.4-1.3-.6-.7-.4-.1-1.4.5-1.1l1.5.6c.5.3.9.6 1.4.7.5.1 1.4.7 2 1 .5.4 1.1.7 1.6.8l3.4 1.7c.3 0 1.3.6 1.6.8.4.1.6.1 1.3.5ZM1069 283l-2-1.2-1.7-.7-1.2-.8-1.6-.6c-.2 0-.7-.1-1.3-.5l-1.4-.7c-.6-.4-.7-.3-1.2-.5l-1.1-.6c-.4-.3-.8-.3-1.2-.5-.6-.3 0-1.4.6-1.1l1 .6 1 .4 1.7.9c.7.2 1.7.6 2.3 1 .7.3 1 .8 2.5 1.3l1.8.8 2.4 1.1c.7.3.1 1.4-.6 1Zm-12.2-7.3c.5.3 0 1.4-.6 1.1l-2.5-1.4-1.8-.6c-.4-.1-1.8-1.2-2.6-1.5l-1.4-.6-1.6-.9c-.4-.2-1-.1-1.5-.5-.6-.4-1-.4-1.4-.6-.6-.3 0-1.4.5-1.1l1.6.7 1.4.7c.5 0 1.3.6 1.9 1l1.6.8c1 .3 3 1.6 3.4 1.6.4 0 1.3.6 1.7.8l1.3.5Zm-26.2-11.2c-.6-.3-.2-1.4.5-1l2.3 1.2 2.4 1c.3.1 1.4.9 2.2 1.1.7.2 1.3.7 1.8 1 .6.1.9.4 1.3.6.5.2 1.3.3 1.6.6l1.2.6c.5.2 0 1.3-.5 1a30.3 30.3 0 0 1-3.1-1.5l-1.8-.8-1.7-1-1.7-.8c-.4-.3-1.3-.6-1.7-.7-.3 0-.5-.2-1.2-.5l-1.6-.8Zm-.2 0-2-1.2-1.7-.7-1.3-.8a8 8 0 0 0-1.6-.7 4 4 0 0 1-1.2-.4l-1.5-.7c-.5-.4-.7-.3-1.1-.6l-1.2-.6-1.1-.4c-.6-.3 0-1.4.5-1.1.4.1.6.4 1 .6l1 .4c.5.1 1.2.6 1.8.8l2.3 1c.7.4 1 .9 2.5 1.4.5.1 1.3.6 1.7.8l2.5 1c.6.4 0 1.5-.6 1.1Zm-12.3-7.3c.6.3 0 1.4-.6 1-.7-.2-2-1.1-2.4-1.3l-1.9-.6c-.3-.2-1.8-1.3-2.5-1.5l-1.4-.6-1.6-1c-.5-.2-1 0-1.6-.4-.5-.4-1-.4-1.3-.6-.7-.3-.1-1.4.5-1.1l1.5.6c.5.3.9.6 1.4.7.5.1 1.4.7 2 1 .5.4 1.1.7 1.6.8l3.4 1.7c.3 0 1.3.6 1.6.8l1.3.5Zm-13.5-5.1c-.7-.3-1.7-1-2-1.2l-1.7-.7-1.2-.8a8 8 0 0 0-1.6-.6 4 4 0 0 1-1.3-.5l-1.4-.6c-.6-.5-.7-.4-1.2-.6l-1.1-.6c-.4-.3-.8-.3-1.2-.5-.6-.3 0-1.4.6-1.1l1 .6 1 .5c.4 0 1.1.5 1.7.8.6.2 1.7.6 2.3 1 .7.4 1 .8 2.5 1.3l1.7.8 2.5 1.1c.7.3.1 1.4-.6 1ZM979 239.8c-.6-.3-.1-1.4.6-1l2.3 1.1 2.4 1c.3.2 1.4 1 2.1 1.2.8.2 1.4.7 1.9 1 .6.1.9.3 1.3.6.4.2 1.3.3 1.6.6.3.3.6.3 1.1.5.6.3 0 1.4-.5 1.2a28.5 28.5 0 0 1-3-1.6l-1.9-.8-1.6-1-1.7-.8c-.4-.3-1.4-.6-1.7-.7-.4 0-.5-.3-1.2-.6l-1.7-.7Zm-.1 0-2-1.2-1.7-.7-1.3-.8a8 8 0 0 0-1.6-.7c-.1 0-.6 0-1.2-.4-.8-.5-1.1-.5-1.5-.7l-1.1-.6-1.2-.6c-.4-.3-.8-.3-1.1-.5-.7-.3 0-1.3.5-1 .4.1.6.4 1 .6l1 .4c.5.1 1.2.6 1.8.8l2.3 1c.7.4 1 .9 2.5 1.4l1.7.8 2.4 1c.7.4.1 1.5-.5 1.1Zm-12.3-7.3c.5.3 0 1.4-.6 1-.7-.3-2-1.2-2.4-1.3l-2-.6c-.2-.2-1.7-1.3-2.4-1.5l-1.4-.6-1.7-1c-.4-.2-1 0-1.5-.4-.6-.4-1-.5-1.4-.6-.6-.4 0-1.4.6-1.1l1.5.6c.5.3.9.6 1.4.7.5.1 1.4.7 2 1 .5.4 1.1.7 1.6.8 1 .4 3 1.6 3.3 1.7.4 0 1.3.6 1.7.8.4.1.6.1 1.3.5Zm-13.5-5.1-2-1.2-1.7-.7-1.2-.8a8 8 0 0 0-1.7-.6c-.1 0-.6-.1-1.2-.5-.8-.4-1.1-.4-1.4-.7-.6-.4-.7-.3-1.2-.5l-1.2-.6c-.3-.3-.7-.3-1.1-.5-.6-.3 0-1.4.5-1.1l1 .6 1.1.4 1.7.9 2.3 1c.7.3 1 .8 2.5 1.3l1.7.8 2.5 1.1c.6.3 0 1.4-.6 1Zm-12.3-7.3c.6.3 0 1.4-.6 1.1l-2.4-1.4-1.9-.6c-.3-.1-1.8-1.2-2.5-1.5l-1.4-.6-1.6-.9c-.5-.2-1-.1-1.6-.5-.5-.4-1-.4-1.3-.6-.7-.3-.1-1.4.5-1.1l1.5.7 1.4.7c.6 0 1.4.6 2 1l1.6.8c1 .3 3 1.6 3.4 1.6.3 0 1.3.6 1.6.8l1.3.5ZM914.6 209c-.6-.3-.1-1.4.6-1l2.3 1.2 2.3 1c.4.1 1.5.9 2.2 1.1.8.2 1.4.7 1.9 1 .6.1.9.4 1.3.6.4.2 1.2.3 1.6.6.3.3.6.3 1.1.6.6.2 0 1.3-.5 1a30.3 30.3 0 0 1-3-1.5l-1.9-.8-1.6-1c-.4-.2-1.3-.5-1.7-.8l-1.7-.7c-.4 0-.5-.2-1.2-.5l-1.7-.8Zm-.2 0-2-1.2-1.6-.7-1.3-.8a8 8 0 0 0-1.6-.7 4 4 0 0 1-1.2-.4c-.8-.5-1.1-.5-1.5-.7l-1.1-.6-1.2-.6-1.1-.4c-.7-.3 0-1.4.5-1.1l1 .6 1 .4c.5.1 1.2.6 1.8.8l2.3 1c.7.4 1 .9 2.5 1.4l1.7.8 2.4 1c.7.4.1 1.5-.6 1.1Zm-12.2-7.3c.5.3 0 1.4-.6 1-.7-.2-2-1.1-2.4-1.3l-2-.6c-.3-.2-1.7-1.3-2.4-1.5l-1.4-.6-1.7-1c-.4-.2-1 0-1.5-.4-.6-.4-1-.4-1.4-.6-.6-.3 0-1.4.6-1.1l1.5.6c.5.3.9.6 1.4.7.5.1 1.4.7 2 1 .5.4 1.1.7 1.6.8 1 .4 3 1.6 3.3 1.7.4 0 1.3.6 1.7.8l1.3.5ZM876 190.4c-.6-.3-.2-1.4.5-1.1l2.4 1.2 2.3 1c.3.2 1.5 1 2.2 1.2.7.2 1.3.7 1.8.9l1.4.7c.4.2 1.2.3 1.5.6.4.3.6.3 1.2.5.5.3 0 1.4-.5 1.1a26.9 26.9 0 0 1-3-1.5l-1.9-.8-1.7-1-1.6-.8-1.8-.7c-.3 0-.5-.3-1.1-.6l-1.7-.7Zm-.2 0-2-1.2c-.3-.2-1.3-.5-1.7-.8l-1.2-.7a8 8 0 0 0-1.6-.7c-.2 0-.7-.1-1.3-.4l-1.4-.7c-.6-.5-.7-.4-1.2-.6l-1.1-.6c-.4-.3-.8-.3-1.2-.5-.6-.3 0-1.4.6-1 .3 0 .6.4 1 .5l1 .5 1.7.8 2.3 1c.7.4 1 .8 2.5 1.3l1.7.9 2.5 1c.6.4 0 1.4-.6 1.1ZM850.2 178c-.6-.2-.1-1.4.6-1l2.3 1.2 2.3 1c.4.1 1.5.9 2.2 1.1.8.2 1.3.8 1.8 1l1.4.6 1.6.6c.3.3.6.3 1.1.6.6.2 0 1.3-.5 1a28.4 28.4 0 0 1-3-1.5c-.5-.2-1.3-.4-1.9-.8l-1.6-1c-.5-.1-1.4-.5-1.7-.8-.5-.3-1.4-.6-1.7-.6l-1.2-.6-1.7-.8Zm.5-1.1c.5.3 0 1.4-.6 1-.7-.3-2-1.2-2.5-1.3l-1.8-.6c-.4-.2-1.8-1.3-2.6-1.5l-1.4-.6-1.6-1c-.4-.2-1 0-1.5-.4-.6-.4-1-.4-1.4-.6-.6-.4 0-1.4.5-1.2l1.6.7c.4.3.8.6 1.4.7.5.1 1.3.7 1.9 1 .5.4 1.2.7 1.6.8l3.4 1.7c.4 0 1.3.6 1.7.8l1.3.5Zm-26.2-11.2c-.6-.3-.2-1.4.5-1.1l2.3 1.2 2.4 1c.3.2 1.4 1 2.2 1.2.7.2 1.3.7 1.8.9.6.2.9.4 1.3.7.5.2 1.3.3 1.6.6.4.3.6.2 1.2.5.5.3 0 1.4-.5 1.1a32 32 0 0 1-3-1.5l-2-.8-1.6-1-1.7-.8c-.4-.3-1.3-.6-1.7-.7-.3 0-.5-.3-1.2-.6l-1.6-.7Zm-.2-.1c-.7-.3-1.8-1-2-1.2-.3 0-1.3-.4-1.7-.7-.4-.2-.5-.4-1.3-.7l-1.6-.7c-.1 0-.6-.1-1.2-.5l-1.5-.6c-.5-.5-.6-.4-1.1-.6l-1.2-.6c-.4-.3-.7-.3-1.1-.5-.6-.3 0-1.4.5-1 .4 0 .6.3 1 .5l1 .5c.5 0 1.2.5 1.8.8l2.3 1c.7.4 1 .8 2.5 1.3l1.7.9 2.5 1c.6.3 0 1.4-.6 1.1Zm-12.3-7.2c.6.2 0 1.3-.6 1-.6-.3-2-1.2-2.4-1.3l-1.9-.7c-.3-.1-1.8-1.2-2.5-1.5-.7-.2-1-.3-1.4-.6l-1.6-.9c-.5-.2-1-.1-1.6-.5l-1.3-.6c-.7-.3-.1-1.4.5-1l1.5.6c.5.2.9.6 1.4.7.5.1 1.4.7 2 1l1.6.8c1 .3 3 1.6 3.4 1.6.3 0 1.3.7 1.6.8l1.3.6Zm-13.5-5.2-2-1.1-1.7-.7-1.2-.8-1.6-.7a4 4 0 0 1-1.3-.4l-1.4-.7-1.2-.6c-.5-.2-.8-.3-1.1-.6l-1.2-.4c-.6-.3 0-1.4.6-1.1l1 .6 1 .4 1.7.8 2.3 1c.7.4 1 .9 2.5 1.4.5.1 1.4.6 1.7.8l2.5 1c.7.4.1 1.5-.6 1.1Zm-12.2-7.2c.5.3 0 1.4-.6 1-.7-.2-2-1.1-2.5-1.3l-1.8-.6c-.4-.2-1.8-1.3-2.6-1.5l-1.4-.6-1.6-1c-.4-.2-1 0-1.5-.4-.6-.4-1-.4-1.4-.6-.6-.4 0-1.4.5-1.1l1.6.6c.4.3.8.6 1.4.7.5.1 1.3.7 1.9 1 .5.4 1.2.7 1.6.8l3.4 1.7c.4 0 1.3.6 1.7.8l1.3.5ZM760 134.8c-.6-.3-.2-1.4.5-1.1l2.3 1.2 2.4 1c.3.2 1.4 1 2.2 1.2.7.2 1.3.7 1.8.9.6.2.9.4 1.3.7.5.2 1.3.3 1.6.6.3.3.6.3 1.2.5.5.3 0 1.4-.5 1.1a26.9 26.9 0 0 1-3.1-1.5l-1.8-.8-1.7-1-1.7-.8c-.4-.3-1.3-.6-1.7-.7-.3 0-.5-.3-1.2-.6l-1.6-.7Zm-.2 0-2-1.2c-.3-.2-1.3-.5-1.7-.8-.4-.2-.5-.4-1.3-.7a8 8 0 0 0-1.6-.7 4 4 0 0 1-1.2-.4c-.8-.5-1.1-.5-1.5-.7-.5-.5-.7-.4-1.1-.6l-1.2-.6c-.4-.3-.7-.3-1.1-.5-.6-.3 0-1.4.5-1 .4 0 .6.4 1 .5l1 .5c.5.1 1.2.5 1.8.8l2.3 1c.7.4 1 .8 2.5 1.3l1.7.9 2.5 1c.6.3 0 1.4-.6 1.1Zm0 0"/><path style="stroke:none;fill-rule:nonzero;fill:#b51700;fill-opacity:1" d="M1659.4 313.4c.4 0 1 .2 1 1-.1.6-.7 1-1.4.9-.6-.2-.4-.5-2-.8-.5-.1-.3-1.3.3-1.2 1.4.3 1.3-.1 2 0ZM745 128.4c-.8-.3-1-.6-1-1.3.2-.6.7-.8 1.4-.7.7.1.6.5 1.8.7.7.2.3 1.3-.2 1.2-1.3-.2-1.2.2-2 0Zm912.1 184.9c.6 0 .4 1.3-.3 1.2l-2.7-.8-2-.1c-.3-.1-2-.8-2.8-.9l-1.5-.2-1.8-.5c-.5-.1-1 .1-1.6-.1l-1.4-.3c-.7-.1-.5-1.3.2-1.2l1.6.3c.6.1 1 .4 1.6.3.5 0 1.5.4 2 .6l1.9.3c1 .1 3.3.8 3.7.8l1.8.4 1.3.2Zm-28.1-4.5c-.7-.2-.5-1.4.2-1.2l2.6.6 2.5.4 2.4.6c.8 0 1.5.4 2 .4.7 0 1 .2 1.5.3.5.2 1.3 0 1.7.3.4.2.6 0 1.2.2.6.1.3 1.3-.2 1.2a32 32 0 0 1-3.3-.8c-.6 0-1.4 0-2-.3l-1.9-.5-1.8-.4c-.5-.2-1.5-.3-1.8-.2l-1.3-.3-1.8-.3Zm-.2 0-2.2-.7-1.8-.3-1.4-.4c-1-.3-1.7-.3-1.8-.3a4 4 0 0 1-1.3-.1c-.9-.3-1.2-.2-1.5-.3-.7-.3-.8-.2-1.3-.3l-1.3-.3c-.4-.2-.8-.1-1.2-.2-.7-.1-.4-1.3.3-1.2.3 0 .7.3 1 .4l1.2.1 1.9.4 2.5.4c.7.2 1.1.6 2.7.7.5 0 1.5.3 1.9.4l2.6.4c.7.2.4 1.4-.3 1.2ZM1601 303c-.6 0-.5-1.3.2-1.2l2.6.7 2.5.4c.4 0 1.7.5 2.4.5l2 .5c.7 0 1 .2 1.5.3.5.1 1.3 0 1.7.2l1.2.3c.6.1.4 1.3-.2 1.2a28 28 0 0 1-3.3-.8c-.6-.1-1.4-.1-2-.3l-1.9-.5-1.8-.5-1.8-.2-1.3-.3-1.8-.3Zm-.2 0-2.2-.6-1.8-.3-1.4-.5-1.8-.2-1.3-.1c-.9-.3-1.2-.2-1.5-.4l-1.3-.2-1.3-.3c-.4-.2-.8-.1-1.2-.2-.7-.2-.4-1.3.3-1.2l1 .3 1.2.2 1.9.4 2.5.4c.7.2 1.1.6 2.7.7.5 0 1.5.3 1.9.4l2.6.4c.7.2.4 1.4-.3 1.2Zm-27.8-5.7c-.6-.1-.5-1.3.3-1.2l2.5.6 2.5.4c.4.1 1.7.6 2.4.6.8 0 1.5.4 2 .5.7 0 1 .2 1.5.3.5.1 1.3 0 1.7.2l1.2.3c.6 0 .4 1.3-.2 1.2a29 29 0 0 1-3.3-.8c-.6-.1-1.4-.1-2-.4l-1.9-.5c-.4 0-1.4-.2-1.8-.4-.5-.2-1.4-.2-1.8-.2l-1.3-.3-1.8-.3Zm.2-1.2c.5.1.3 1.3-.4 1.2l-2.7-.8-2-.1c-.3 0-2-.8-2.8-.8l-1.4-.3-1.9-.5c-.4-.1-1 .1-1.6 0-.6-.3-1-.3-1.4-.4-.7-.1-.4-1.3.2-1.1.7 0 1.1 0 1.7.2.5.2 1 .4 1.5.4s1.5.3 2.1.5l1.8.3c1 .2 3.3.9 3.7.8l1.8.4 1.4.2Zm-14.4-1.7-2.2-.6-1.8-.3c-.5-.1-.6-.3-1.4-.4-1-.3-1.7-.3-1.7-.3l-1.4-.1c-.9-.3-1.1-.2-1.5-.3-.7-.3-.8-.2-1.3-.3l-1.3-.3c-.4-.2-.8-.1-1.2-.2-.7-.1-.4-1.3.3-1.2.4 0 .7.3 1 .3l1.2.2 1.9.4 2.5.4c.7.2 1.1.6 2.7.7.5 0 1.5.3 1.9.4l2.6.4c.7.2.5 1.4-.3 1.2Zm-27.8-5.7c-.6-.1-.5-1.3.3-1.2l2.5.6 2.5.5c.4 0 1.7.5 2.4.5.8 0 1.5.4 2 .5.7 0 1 .2 1.5.3.5.1 1.3 0 1.7.2l1.2.3c.6 0 .4 1.3-.2 1.2l-1.5-.4-1.8-.4c-.6-.1-1.4-.1-2-.3-.6-.2-1.5-.5-1.9-.5l-1.8-.5c-.5-.2-1.4-.2-1.8-.2l-1.3-.3-1.8-.3Zm-.2 0-2.2-.6-1.8-.3-1.4-.5-1.7-.2-1.4-.2c-.8-.2-1.1-.1-1.5-.3-.7-.3-.8-.1-1.3-.3-.5-.1-.9-.1-1.3-.3l-1.2-.1c-.7-.2-.3-1.4.3-1.2.4 0 .7.2 1 .3l1.2.2 1.9.4 2.5.4c.7.2 1.1.6 2.7.7.5 0 1.5.3 1.9.4l2.6.4c.7.1.5 1.3-.3 1.2Zm-27.8-5.7c-.6-.1-.5-1.4.3-1.2l2.5.6 2.6.4 2.3.6c.8 0 1.5.4 2 .5.7 0 1 .2 1.5.3.5.1 1.3 0 1.7.2.4.2.6.1 1.2.2.6.2.4 1.3-.2 1.2l-1.5-.3a42 42 0 0 0-1.8-.4l-2-.4-1.9-.5c-.4 0-1.4-.2-1.8-.4-.5-.2-1.4-.3-1.8-.2l-1.3-.3-1.8-.3Zm-.2 0-2.2-.7c-.3 0-1.3-.1-1.8-.3-.5 0-.6-.2-1.4-.4l-1.7-.2-1.4-.2-1.5-.3c-.7-.3-.8-.2-1.3-.3l-1.3-.3c-.4-.2-.8 0-1.2-.2-.7-.1-.3-1.3.3-1.2l1 .4 1.2.2 1.9.3 2.5.5c.7.1 1.1.5 2.7.7l1.9.3 2.6.5c.7.1.5 1.3-.3 1.2Zm-27.8-5.7c-.6-.2-.5-1.4.3-1.2l2.5.6 2.6.4 2.4.6c.7 0 1.4.4 2 .4.6 0 1 .2 1.4.3.5.2 1.3 0 1.7.3.4.2.7 0 1.2.2.6.1.4 1.3-.2 1.2l-1.5-.4a38 38 0 0 0-1.8-.4c-.6 0-1.4 0-2-.3l-1.8-.5-1.9-.4c-.5-.2-1.4-.3-1.8-.2l-1.3-.3-1.8-.3Zm.2-1.3c.6.2.3 1.4-.4 1.2-.7-.1-2.2-.7-2.6-.7-.5 0-1.7 0-2-.2-.4 0-2-.7-2.8-.8-.8 0-1-.1-1.5-.3-.5 0-1.4-.3-1.8-.4l-1.7-.1c-.6-.3-1-.2-1.4-.3-.7-.1-.4-1.3.2-1.2l1.7.3 1.5.3c.5 0 1.5.3 2.1.5.6.3 1.3.4 1.8.4 1 .1 3.3.8 3.7.8l1.8.3 1.4.2Zm-14.4-1.6-2.2-.7c-.3 0-1.3-.1-1.8-.3-.5 0-.6-.2-1.4-.4l-1.7-.2c-.2 0-.7 0-1.3-.2l-1.6-.3c-.7-.3-.8-.2-1.3-.3l-1.2-.3c-.5-.1-.9 0-1.3-.2-.6 0-.3-1.3.3-1.2l1 .4 1.2.2 1.9.3 2.5.5c.7.2 1.1.5 2.7.7l1.9.3 2.6.5c.7.1.5 1.3-.3 1.2Zm-27.8-5.7c-.6-.1-.5-1.4.3-1.2l2.5.6 2.6.4 2.4.6c.7 0 1.4.4 2 .4l1.4.4c.5 0 1.3 0 1.7.2.4.2.7.1 1.2.2.6.1.4 1.3-.2 1.2a32 32 0 0 1-3.3-.8c-.5 0-1.4 0-2-.3l-1.8-.5-1.9-.4c-.5-.2-1.4-.3-1.8-.2l-1.3-.3-1.8-.3Zm-.2 0-2.2-.7-1.8-.3-1.4-.4c-1-.3-1.7-.3-1.7-.3l-1.3-.1-1.6-.3c-.7-.3-.8-.2-1.3-.3l-1.2-.3c-.5-.2-.9 0-1.3-.2-.6-.1-.3-1.3.3-1.2l1 .4 1.2.1 2 .4 2.4.5c.7.1 1.1.5 2.7.6.5 0 1.5.3 1.9.4l2.6.5c.7.1.5 1.3-.3 1.1Zm-13.6-4.1c.6.1.3 1.3-.3 1.2l-2.7-.8-2-.1c-.4 0-2-.8-2.8-.8l-1.5-.3-1.8-.5c-.5-.1-1 .1-1.6 0-.7-.3-1-.3-1.5-.4-.7-.1-.4-1.3.2-1.1.7 0 1.1 0 1.7.2.5.2 1 .4 1.5.4s1.5.3 2.1.5l1.8.4c1 0 3.3.8 3.7.7l1.8.4 1.4.2Zm-14.4-1.7-2.2-.6-1.8-.3c-.5-.1-.6-.3-1.4-.4-1-.3-1.7-.3-1.7-.3a4 4 0 0 1-1.3-.1c-1-.3-1.2-.2-1.6-.3-.7-.3-.8-.2-1.3-.3l-1.2-.3c-.5-.2-.8-.1-1.3-.2-.6-.1-.3-1.3.3-1.2.4 0 .7.3 1 .4l1.3.1 1.8.4c.7 0 1.8.2 2.5.4s1.2.6 2.7.7c.5 0 1.5.3 1.9.4l2.7.4c.6.2.4 1.4-.4 1.2Zm-13.6-4c.6 0 .3 1.3-.3 1.2l-2.7-.8-2-.1c-.4-.1-2-.8-2.8-.9-.8 0-1-.1-1.5-.2l-1.8-.5c-.5-.1-1 .1-1.6-.1l-1.5-.3c-.7-.1-.4-1.3.2-1.2l1.7.3c.5.1 1 .4 1.5.3.6 0 1.5.4 2.1.6l1.8.3c1 .1 3.3.8 3.7.8l1.8.4 1.4.2Zm-14.4-1.7-2.2-.6-1.8-.3-1.4-.5-1.7-.2a4 4 0 0 1-1.3-.2c-1-.2-1.2-.1-1.6-.3-.7-.3-.8-.1-1.3-.3l-1.2-.3-1.3-.1c-.6-.2-.3-1.4.3-1.2.4 0 .7.2 1.1.3l1.2.2 1.8.4c.7 0 1.8.2 2.5.4.8.2 1.2.6 2.7.7.5 0 1.5.3 1.9.4l2.7.4c.7.1.4 1.3-.4 1.2Zm-13.6-4c.6 0 .3 1.3-.3 1.1-.8-.1-2.3-.7-2.7-.7-.4 0-1.6 0-2-.2-.4 0-2-.7-2.8-.8-.8 0-1-.2-1.5-.3-.5 0-1.3-.3-1.8-.4-.5-.2-1 0-1.6-.1-.7-.3-1-.2-1.5-.3-.7-.2-.4-1.3.3-1.2l1.6.3 1.5.3c.6 0 1.5.3 2.1.5l1.8.4c1 .1 3.3.8 3.7.8l1.8.3 1.4.2Zm-28.2-4.6c-.6-.1-.5-1.3.3-1.2l2.6.7 2.5.4c.3 0 1.6.5 2.4.5.7 0 1.4.4 2 .5.6 0 1 .2 1.4.3.5.1 1.3 0 1.7.2.4.2.7.2 1.3.3.5 0 .3 1.3-.2 1.2a31.2 31.2 0 0 1-3.4-.8c-.5-.1-1.4-.1-2-.3l-1.8-.5-1.8-.5c-.6-.2-1.5-.2-1.9-.2l-1.3-.3-1.8-.3Zm-.2 0-2.2-.6-1.8-.3-1.4-.5-1.7-.2a4 4 0 0 1-1.3-.2c-1-.2-1.2-.1-1.6-.3l-1.3-.3c-.5 0-.8-.1-1.2-.3l-1.3-.1c-.6-.2-.3-1.4.3-1.2.4 0 .7.3 1.1.3l1.2.2 1.8.4c.7 0 1.8.2 2.5.4.8.2 1.2.6 2.7.7l2 .4 2.6.4c.7.2.4 1.3-.4 1.2Zm-13.6-4c.6 0 .4 1.3-.3 1.1-.8-.1-2.3-.6-2.7-.7-.4 0-1.6 0-2-.2-.4 0-2-.7-2.8-.8-.8 0-1-.1-1.5-.2l-1.8-.5-1.6-.1c-.7-.3-1-.2-1.5-.3-.7-.1-.4-1.3.3-1.2l1.6.3 1.5.3c.6 0 1.5.3 2.1.5.6.3 1.3.4 1.8.4 1 .1 3.4.8 3.7.8l1.8.3c.4.1.6 0 1.4.3Zm-28.1-4.6c-.7 0-.6-1.3.2-1.2l2.6.7 2.5.4c.4 0 1.6.5 2.4.5l2 .5c.6 0 1 .2 1.4.3.5.2 1.3 0 1.7.2.4.2.7.2 1.3.3.6.1.3 1.3-.2 1.2a33.2 33.2 0 0 1-3.4-.8l-2-.3-1.8-.5-1.8-.4c-.5-.2-1.5-.3-1.9-.3l-1.3-.3-1.7-.3Zm.1-1.2c.6.1.4 1.4-.3 1.2-.8-.1-2.3-.7-2.7-.7l-2-.2c-.3 0-2-.8-2.8-.8-.8 0-1-.2-1.5-.3-.5 0-1.3-.3-1.8-.4-.5-.2-1 0-1.6-.2-.7-.2-1-.1-1.5-.2-.7-.2-.4-1.4.3-1.2l1.6.3 1.5.3c.6 0 1.5.3 2.1.5l1.8.4c1 0 3.4.8 3.7.8l1.8.3 1.4.2Zm-14.3-1.7c-.8-.1-2-.5-2.3-.6l-1.8-.3-1.4-.4c-1-.3-1.6-.3-1.7-.3a4 4 0 0 1-1.3-.1l-1.6-.3c-.6-.3-.7-.2-1.3-.3l-1.2-.3c-.5-.2-.8 0-1.2-.2-.7-.1-.4-1.3.2-1.2l1.1.4 1.2.1 1.8.4 2.5.5c.8.1 1.2.5 2.7.6l2 .4 2.6.5c.7.1.4 1.3-.3 1.1Zm-27.8-5.6c-.7-.2-.6-1.4.2-1.2l2.6.6 2.5.4 2.4.6c.8 0 1.5.4 2 .4.6 0 1 .2 1.5.3.4.2 1.2 0 1.6.3.4.1.7 0 1.3.2.6.1.3 1.3-.2 1.2a32 32 0 0 1-3.4-.8l-2-.3-1.8-.5-1.8-.4c-.5-.2-1.5-.3-1.8-.3l-1.3-.2-1.8-.3Zm-.2 0-2.3-.7-1.8-.3c-.4-.1-.6-.3-1.4-.4-1-.3-1.6-.3-1.7-.3l-1.3-.1c-.9-.3-1.2-.2-1.6-.3-.6-.3-.7-.2-1.2-.3l-1.3-.3c-.5-.2-.8-.1-1.2-.2-.7-.1-.4-1.3.2-1.2.4 0 .7.3 1.1.4l1.2.1 1.8.4 2.5.4c.8.2 1.2.6 2.8.7.5 0 1.4.3 1.8.4l2.7.4c.7.2.4 1.4-.3 1.2Zm-27.8-5.8c-.7-.1-.6-1.3.2-1.2l2.6.6 2.5.5c.4 0 1.6.5 2.4.5.8 0 1.5.4 2 .5.6 0 1 .2 1.5.3.4.1 1.3 0 1.6.2.4.2.7.2 1.3.3.6 0 .3 1.3-.2 1.2a29.8 29.8 0 0 1-3.4-.8l-2-.3c-.5-.2-1.4-.5-1.8-.5l-1.8-.5c-.5-.2-1.5-.2-1.8-.2l-1.3-.3-1.8-.3Zm.1-1.2c.6.1.4 1.3-.3 1.2l-2.7-.8-2-.1c-.3 0-2-.8-2.8-.8-.8 0-1-.2-1.5-.3l-1.8-.5c-.5 0-1 .1-1.6 0-.6-.3-1-.2-1.5-.3-.7-.2-.4-1.4.3-1.2l1.6.2c.6.2 1 .4 1.5.4.6 0 1.6.3 2.2.5l1.8.4c1 0 3.3.8 3.6.7l1.8.4 1.4.2Zm-14.3-1.7c-.8-.1-2-.5-2.3-.6l-1.8-.3-1.4-.4c-1-.3-1.6-.3-1.7-.3l-1.3-.1c-.9-.3-1.2-.2-1.6-.3-.6-.3-.7-.2-1.2-.3l-1.3-.3c-.4-.2-.8-.1-1.2-.2-.7-.1-.4-1.3.2-1.2.4 0 .7.3 1.1.4l1.2.1 1.9.4 2.4.4c.8.2 1.2.6 2.8.7.5 0 1.4.3 1.8.4l2.7.4c.7.2.4 1.4-.3 1.2Zm-27.8-5.7c-.7 0-.5-1.3.2-1.2l2.6.7 2.5.4c.4 0 1.6.5 2.4.5.8 0 1.5.4 2 .5.7 0 1 .2 1.5.3.5.1 1.3 0 1.7.2.3.2.6.2 1.2.3.6.1.3 1.3-.2 1.2a29.8 29.8 0 0 1-3.4-.8l-2-.3-1.8-.5-1.8-.5-1.8-.2-1.3-.3-1.8-.3Zm-.2 0-2.3-.6-1.8-.3-1.4-.5-1.7-.2-1.3-.1-1.6-.4-1.2-.3-1.3-.2c-.4-.2-.8-.1-1.2-.2-.7-.2-.4-1.4.2-1.2.4 0 .7.3 1.1.3l1.2.2 1.9.4 2.4.4c.8.2 1.2.6 2.8.7.5 0 1.4.3 1.8.4l2.7.4c.7.2.4 1.4-.3 1.2Zm-27.8-5.7c-.7-.1-.5-1.3.2-1.2l2.6.6 2.5.4c.4.1 1.6.6 2.4.6.8 0 1.5.4 2 .5.7 0 1 .2 1.5.3.5.1 1.3 0 1.7.2l1.2.3c.6 0 .3 1.3-.2 1.2l-1.6-.4-1.8-.4-2-.4-1.8-.5c-.4 0-1.4-.2-1.8-.4-.5-.2-1.5-.2-1.8-.2l-1.3-.3-1.8-.3Zm.1-1.2c.6.1.4 1.3-.3 1.2l-2.7-.8-2-.1c-.3 0-2-.8-2.8-.9l-1.5-.2-1.8-.5c-.5-.1-1 .1-1.6-.1l-1.4-.3c-.8-.1-.5-1.3.2-1.2l1.6.3c.6.2 1 .4 1.6.4.5 0 1.5.3 2 .5l1.9.3c1 .1 3.3.9 3.6.8l1.8.4 1.4.2Zm-14.3-1.7c-.8-.1-2-.6-2.3-.6l-1.8-.3-1.3-.5-1.8-.2-1.3-.1c-.9-.3-1.2-.2-1.6-.3-.6-.3-.7-.2-1.2-.3l-1.3-.3c-.4-.2-.8-.1-1.2-.2-.7-.2-.4-1.3.2-1.2.4 0 .7.3 1.1.3l1.2.2 1.9.4 2.5.4c.7.2 1.1.6 2.7.7.5 0 1.4.3 1.8.4l2.7.4c.7.2.4 1.4-.3 1.2Zm-13.7-4c.6 0 .4 1.3-.3 1.1l-2.7-.7-2-.1c-.3-.1-2-.8-2.8-.9l-1.5-.2-1.8-.5-1.6-.1-1.4-.3c-.8-.1-.5-1.3.2-1.2l1.6.3c.6.1 1 .4 1.6.3.5 0 1.5.4 2 .6l1.9.3c1 .1 3.3.8 3.6.8l1.8.4 1.4.2Zm-28.1-4.5c-.7-.2-.5-1.4.2-1.2l2.6.6 2.5.4 2.4.6c.8 0 1.5.4 2 .4.7 0 1 .2 1.5.3.5.2 1.3 0 1.7.3l1.2.2c.6.1.3 1.3-.2 1.2a32 32 0 0 1-3.3-.8c-.6 0-1.4-.1-2-.3l-1.9-.5-1.8-.4c-.5-.2-1.5-.3-1.8-.3l-1.3-.2-1.8-.3Zm-.2 0-2.3-.7-1.7-.3c-.5-.1-.6-.3-1.4-.4-1-.3-1.7-.3-1.8-.3l-1.3-.1c-.9-.3-1.2-.2-1.6-.3-.6-.3-.7-.2-1.2-.3l-1.3-.3c-.4-.2-.8-.1-1.2-.2-.7-.1-.4-1.3.3-1.2.3 0 .7.3 1 .4l1.2.1 1.9.4 2.5.4c.7.2 1.1.6 2.7.7.5 0 1.5.3 1.9.4l2.6.4c.7.2.4 1.4-.3 1.2Zm-13.7-4.1c.6 0 .4 1.3-.3 1.2l-2.7-.8-2-.1c-.3-.1-2-.8-2.8-.9l-1.5-.2-1.8-.5c-.5-.1-1 .1-1.6-.1l-1.4-.3c-.7-.1-.5-1.3.2-1.2l1.6.3c.6.1 1 .4 1.6.3.5 0 1.5.4 2 .6l1.9.3c1 .1 3.3.8 3.7.8l1.8.4 1.3.2Zm-14.3-1.7-2.2-.6-1.8-.3-1.4-.5-1.8-.2-1.3-.2c-.9-.2-1.2-.1-1.5-.3l-1.3-.3c-.5 0-.9-.1-1.3-.3l-1.2-.1c-.7-.2-.4-1.4.3-1.2l1 .3 1.2.2 1.9.4 2.5.4c.7.2 1.1.6 2.7.7.5 0 1.5.3 1.9.4l2.6.4c.7.2.4 1.3-.3 1.2Zm-27.8-5.7c-.6-.1-.5-1.3.2-1.2l2.6.6 2.5.4c.4.1 1.7.6 2.4.6.8 0 1.5.4 2 .5.7 0 1 .2 1.5.3.5.1 1.3 0 1.7.2.4.2.6.1 1.2.2.6.2.3 1.4-.2 1.2a33.3 33.3 0 0 1-3.3-.7l-2-.4-1.9-.5c-.4 0-1.4-.2-1.8-.4-.5-.2-1.5-.2-1.8-.2l-1.3-.3-1.8-.3Zm-.2 0-2.2-.7c-.3 0-1.4-.1-1.8-.3-.5 0-.6-.2-1.4-.4l-1.8-.2a4 4 0 0 1-1.3-.2l-1.5-.3c-.7-.3-.8-.2-1.3-.3-.5-.1-.9-.1-1.3-.3-.4-.2-.8 0-1.2-.2-.7-.1-.4-1.3.3-1.2l1 .4 1.2.2 1.9.3 2.5.5c.7.2 1.1.5 2.7.7l1.9.3 2.6.5c.7.1.4 1.3-.3 1.2Zm-13.6-4c.5 0 .3 1.2-.4 1.1-.7-.1-2.2-.7-2.7-.7l-2-.2c-.3 0-2-.8-2.8-.8-.7 0-1-.2-1.4-.3-.6 0-1.4-.3-1.9-.5-.4 0-1 .2-1.6 0-.6-.3-1-.2-1.4-.3-.7-.2-.5-1.4.2-1.2l1.7.3 1.5.3c.5 0 1.5.3 2.1.5l1.8.4c1 0 3.3.8 3.7.8l1.8.3 1.4.2Zm-14.4-1.8-2.2-.6-1.8-.3-1.4-.4c-1-.3-1.7-.3-1.7-.3a4 4 0 0 1-1.4-.1l-1.5-.3c-.7-.3-.8-.2-1.3-.3l-1.3-.3c-.4-.2-.8 0-1.2-.2-.7-.1-.4-1.3.3-1.2.4 0 .7.3 1 .4l1.2.1 1.9.4 2.5.5c.7.1 1.1.5 2.7.6.5 0 1.5.3 1.9.4l2.6.5c.7.1.5 1.3-.3 1.1Zm-13.6-4c.5.1.3 1.3-.4 1.2l-2.7-.8-2-.1c-.3 0-2-.8-2.7-.9-.8 0-1-.1-1.5-.2l-1.9-.5c-.4-.1-1 .1-1.6-.1l-1.4-.3c-.7-.1-.4-1.3.2-1.2l1.7.3c.5.2 1 .4 1.5.4s1.5.3 2.1.5l1.8.3c1 .2 3.3.9 3.7.8l1.8.4 1.4.2Zm-28.2-4.5c-.6-.1-.5-1.4.3-1.2l2.5.6 2.5.4 2.4.6c.8 0 1.5.4 2 .4l1.5.4c.5 0 1.3 0 1.7.2.4.2.6.1 1.2.2s.4 1.3-.2 1.2a32 32 0 0 1-3.3-.8c-.6 0-1.4 0-2-.3l-1.9-.5-1.8-.4c-.5-.2-1.4-.3-1.8-.2l-1.3-.3-1.8-.3Zm-.2 0-2.2-.7-1.8-.3-1.4-.4-1.7-.3a4 4 0 0 1-1.4-.1l-1.5-.3c-.7-.3-.8-.2-1.3-.3-.5-.1-.9-.1-1.3-.3-.4-.2-.8 0-1.2-.2-.7-.1-.3-1.3.3-1.2l1 .4 1.2.1 1.9.4 2.5.5c.7.1 1.1.5 2.7.6.5 0 1.5.3 1.9.4l2.6.5c.7.1.5 1.3-.3 1.1Zm-13.6-4.1c.6.1.3 1.3-.4 1.2l-2.6-.8-2-.1c-.4 0-2-.8-2.8-.8-.8 0-1-.2-1.5-.3l-1.8-.5h-1.7c-.6-.3-1-.3-1.4-.3-.7-.2-.4-1.4.2-1.2l1.7.2c.5.2 1 .4 1.5.4s1.5.3 2.1.5l1.8.4c1 0 3.3.8 3.7.7l1.8.4 1.4.2Zm-28.2-4.5c-.6-.1-.5-1.4.3-1.2l2.5.6 2.6.4 2.3.6c.8 0 1.5.4 2 .4l1.5.4c.5.1 1.3 0 1.7.2.4.2.6.1 1.2.2.6.2.4 1.4-.2 1.2a33.3 33.3 0 0 1-3.3-.7l-2-.4-1.9-.5c-.4 0-1.4-.2-1.8-.4-.5-.2-1.4-.3-1.8-.2l-1.3-.3-1.8-.3Zm-.2 0-2.2-.7c-.3 0-1.3-.1-1.8-.3-.5 0-.6-.2-1.4-.4l-1.7-.3a4 4 0 0 1-1.4 0l-1.5-.4c-.7-.3-.8-.2-1.3-.3l-1.3-.3c-.4-.2-.8 0-1.2-.2-.6-.1-.3-1.3.3-1.2l1 .4 1.2.2 1.9.3 2.5.5c.7.1 1.1.5 2.7.7l1.9.3 2.6.5c.7.1.5 1.3-.3 1.2Zm-27.8-5.7c-.6-.2-.5-1.4.3-1.2l2.5.6 2.6.4 2.4.6c.7 0 1.4.4 2 .4.6 0 1 .2 1.4.4.5 0 1.3 0 1.7.2.4.2.7 0 1.2.2.6.1.4 1.3-.2 1.2a32 32 0 0 1-3.3-.8c-.5 0-1.4 0-2-.3l-1.8-.5-1.9-.4c-.5-.2-1.4-.3-1.8-.2l-1.3-.3-1.8-.3Zm.2-1.3c.6.2.3 1.4-.4 1.2-.7-.1-2.2-.7-2.6-.7-.5 0-1.6 0-2-.2-.4 0-2-.7-2.8-.8-.8 0-1-.1-1.5-.2l-1.8-.5c-.5-.2-1 0-1.7-.1-.6-.3-1-.2-1.4-.3-.7-.1-.4-1.3.2-1.2l1.7.3 1.5.3c.5 0 1.5.3 2.1.5.6.2 1.3.4 1.8.4 1 .1 3.3.8 3.7.8l1.8.3 1.4.2Zm-28.2-4.5c-.6 0-.5-1.3.3-1.2l2.5.7 2.6.4c.3 0 1.6.5 2.4.5l2 .5c.6 0 1 .2 1.4.3.5.1 1.3 0 1.7.2l1.2.3c.6.1.4 1.3-.2 1.2a28.9 28.9 0 0 1-3.3-.8c-.5-.1-1.4-.1-2-.3l-1.8-.5-1.9-.5-1.8-.2-1.3-.3-1.8-.3Zm-.2 0-2.2-.6-1.8-.3-1.4-.5-1.7-.2-1.3-.1c-1-.3-1.2-.2-1.6-.3-.7-.3-.8-.2-1.3-.3l-1.2-.3c-.5-.2-.9-.1-1.3-.2-.6-.2-.3-1.3.3-1.2.4 0 .7.3 1 .3l1.3.2 1.8.4c.7 0 1.8.2 2.5.4s1.1.6 2.7.7c.5 0 1.5.3 1.9.4l2.6.4c.7.2.5 1.4-.3 1.2Zm-13.6-4c.6 0 .3 1.3-.3 1.1-.8-.1-2.3-.6-2.7-.7l-2-.1c-.4-.1-2-.8-2.8-.9-.8 0-1-.1-1.5-.2l-1.8-.5-1.7-.1-1.4-.3c-.7-.1-.4-1.3.2-1.2l1.7.3c.5.1 1 .4 1.5.3.5 0 1.5.4 2.1.6l1.8.3c1 .1 3.3.8 3.7.8l1.8.4 1.4.2Zm-14.4-1.7-2.2-.7-1.8-.2-1.4-.5-1.7-.2c-.2 0-.7 0-1.3-.2-1-.2-1.2-.1-1.6-.3-.7-.3-.8-.1-1.3-.3l-1.2-.3-1.3-.1c-.6-.2-.3-1.4.3-1.2.4 0 .7.2 1 .3l1.3.2 1.8.4c.7 0 1.8.2 2.5.4s1.1.5 2.7.7l1.9.3 2.7.5c.6.1.4 1.3-.4 1.2Zm-13.6-4c.6 0 .3 1.3-.3 1.1-.8-.1-2.3-.7-2.7-.7l-2-.2c-.4 0-2-.8-2.8-.8-.8 0-1-.2-1.5-.3-.5 0-1.3-.3-1.8-.4-.5-.2-1 0-1.6-.2-.7-.2-1-.1-1.5-.2-.7-.2-.4-1.3.2-1.2l1.7.3 1.5.3c.5 0 1.5.3 2.1.5l1.8.4c1 0 3.3.8 3.7.8l1.8.3 1.4.2Zm-28.2-4.6c-.6-.1-.5-1.3.3-1.2.8.2 2.1.6 2.6.6l2.5.5c.3 0 1.6.5 2.4.5.7 0 1.4.4 2 .5.6 0 1 .2 1.4.3.5.1 1.3 0 1.7.2.4.2.7.1 1.3.3.5 0 .3 1.3-.3 1.2l-1.5-.4-1.8-.4c-.5-.1-1.4-.1-2-.3l-1.8-.5-1.9-.5c-.5-.2-1.4-.2-1.8-.2l-1.3-.3-1.8-.3Zm-.2 0-2.2-.6-1.8-.3-1.4-.5-1.7-.2c-.2 0-.7 0-1.3-.2-1-.2-1.2-.1-1.6-.3-.7-.3-.8-.1-1.3-.3l-1.2-.3-1.3-.1c-.6-.2-.3-1.4.3-1.2.4 0 .7.2 1.1.3l1.2.2 1.8.4c.7 0 1.8.2 2.5.4.8.2 1.2.6 2.7.7l2 .4 2.6.4c.7.1.4 1.3-.4 1.2Zm-27.8-5.7c-.6-.1-.5-1.4.3-1.2.8.2 2.1.6 2.6.6l2.5.4 2.4.6c.7 0 1.4.4 2 .5.6 0 1 .2 1.4.3.5.1 1.3 0 1.7.2.4.2.7.1 1.3.2.5.2.3 1.4-.3 1.2l-1.5-.3a42 42 0 0 0-1.8-.4l-2-.4-1.8-.5c-.5 0-1.4-.2-1.8-.4-.6-.2-1.5-.3-1.9-.2l-1.3-.3-1.8-.3Zm.2-1.2c.6.1.4 1.3-.3 1.2l-2.7-.8-2-.1c-.4-.1-2-.8-2.8-.9-.8 0-1-.1-1.5-.2l-1.8-.5c-.5-.1-1 .1-1.6-.1l-1.5-.3c-.7-.1-.4-1.3.3-1.2l1.6.3c.5.1 1 .4 1.5.3.6 0 1.5.4 2.1.6l1.8.3c1 .1 3.4.8 3.7.8l1.8.4 1.4.2Zm-28.1-4.5c-.7-.2-.6-1.4.2-1.2l2.6.6 2.5.4 2.4.6c.8 0 1.4.4 2 .4.6 0 1 .2 1.4.4.5 0 1.3 0 1.7.2.4.2.7 0 1.3.2.5.1.3 1.3-.2 1.2l-1.6-.4a37 37 0 0 0-1.8-.4c-.5 0-1.4 0-2-.3l-1.8-.5-1.8-.4c-.6-.2-1.5-.3-1.9-.2l-1.3-.3-1.8-.3Zm0 0"/><g style="fill:#000;fill-opacity:1"><use xlink:href="#a" x="34" y="463"/><use xlink:href="#b" x="69.8" y="463"/><use xlink:href="#c" x="82.8" y="463"/><use xlink:href="#a" x="116.8" y="463"/><use xlink:href="#d" x="152.6" y="463"/><use xlink:href="#e" x="182.1" y="463"/><use xlink:href="#f" x="213.7" y="463"/></g><g style="fill:#000;fill-opacity:1"><use xlink:href="#g" x="34" y="517"/><use xlink:href="#h" x="70.9" y="517"/></g><g style="fill:#000;fill-opacity:1"><use xlink:href="#i" x="105.1" y="517"/><use xlink:href="#j" x="136.1" y="517"/><use xlink:href="#b" x="161.9" y="517"/><use xlink:href="#k" x="174.8" y="517"/></g><use xlink:href="#l" x="199.5" y="517" style="fill:#000;fill-opacity:1"/><path style="stroke:none;fill-rule:nonzero;fill:#000;fill-opacity:1" d="M110.2 549.4c0-1.4.3-3.2 2.3-3.4 2-.3 3.5 1.2 3.5 3.3 0 2-1 1.4-1 6.2 0 1.8-3.7 1.9-3.7 0 0-4.2-1-3.6-1-6.1Zm5.8 182.2c0 2.5-.9 3.5-2.8 3.5-2 0-3-1.3-3-3.5s1-2.1 1-5.8c0-2 3.7-1.6 3.7 0 0 3.9 1.1 3.3 1.1 5.8Zm-4.7-175.9c0-1.8 3.7-1.8 3.7.3 0 2.2-.7 7-.6 8.2 0 1.3.7 4.8.7 5.9 0 1-1 6.4-.7 8.7.3 2.2.1 2.9.1 4.5l-.3 5.5c0 1.5 1 2.9.6 4.8-.2 2 .2 3 .2 4.4 0 2.1-3.7 2-3.7 0l-.2-5c.1-1.6.5-3 .1-4.6-.4-1.5 0-4.6.3-6.5.2-1.8.1-4 0-5.4-.4-3 .3-10.1 0-11.2-.3-1 0-4.3 0-5.4 0-1.2-.2-1.8-.2-4.2Zm3.7 84.7c0 2-3.7 2.3-3.7 0l.3-7.9-.3-7.6c0-1 .5-5 .2-7.3s.3-4.5.1-6c-.2-2 0-3 0-4.5.2-1.5-.6-3.8-.3-5 .3-1.3 0-2 0-3.8 0-1.8 3.6-1.8 3.6-.1l-.1 4.7-.1 5.5c0 1.6.4 4 .2 6a79 79 0 0 0-.4 5.6l-.1 5.6a16 16 0 0 0 .4 5.4c.3 1-.1 1.7 0 4l.2 5.4Zm0 .6c0 2.3-.5 6-.5 6.9l.2 5.4c-.1 1.4-.4 1.9-.5 4.3 0 3 .3 5 .3 5.2.2.4.5 1.9.4 3.9-.1 2.7.2 3.5 0 4.7-.4 2.1 0 2.3 0 4-.1 1.5 0 2.5-.2 3.8-.2 1.4.3 2.4.3 3.6 0 2-3.7 1.9-3.7 0 0-1.2.4-2.2.4-3.4 0-1.2-.1-2.3-.3-3.5v-5.6c0-2-.3-5.3-.2-7.5 0-2.3 1-3.7.4-8.4-.2-1.5 0-4.4 0-5.6l-.3-8c0-2.2 3.7-2.1 3.7.2Zm0 84.3c0 2-3.7 2.3-3.7 0l.3-7.8-.3-7.6c0-1.1.5-5 .2-7.3s.3-4.5.1-6.1c-.2-2 0-3 0-4.5.2-1.5-.6-3.8-.3-5 .3-1.3 0-2 0-3.8 0-1.7 3.6-1.7 3.6 0l-.1 4.7-.1 5.4c0 1.6.4 4 .2 6a79 79 0 0 0-.4 5.7l-.1 5.5a16 16 0 0 0 .4 5.5c.3 1-.1 1.7 0 4l.2 5.3Zm0 0"/><path style="stroke:none;fill-rule:nonzero;fill:#000;fill-opacity:1" d="M113.8 744c-2 .4-2 0-2.2-.6-.4-.7-.3-.8-.4-1.7 0-.9-.7-.7-1-1.2-.3-.5-1.4-1.6-1.4-2.3 0-.7-1.2-1.2-1.3-2 0-.8-.6-1.1-1.1-1.7-.5-.5-.6-1.3-1.1-1.7-.6-.3-1.8-1.3-2-2 0-.7.9-2 1.8-1.6 1 .4 1.2.5 2 .3.7-.3 1 0 2-.1l2.4-.2c.4 0 .7-.8 2.2-.4 1.4.4 1 .3 2.4.4 1.4.2 1.5.5 2.2.4.8-.2 1.6.2 2.7-.2 1-.3 2.2-.2 2.4.6.3.7-.3 1.4-1.3 2.2-.9.9-1.7 1.5-2.2 2.5-.5 1-.8 2-1.6 2.6-.7.7-2.6 3.5-3 4-.4.6-.4 2.5-1.5 2.7Zm0 0"/><g style="fill:#000;fill-opacity:1"><use xlink:href="#d" x="370" y="490"/><use xlink:href="#i" x="399.4" y="490"/></g><g style="fill:#000;fill-opacity:1"><use xlink:href="#k" x="428.9" y="490"/><use xlink:href="#f" x="453.7" y="490"/><use xlink:href="#m" x="465" y="490"/></g><g style="fill:#000;fill-opacity:1"><use xlink:href="#b" x="496" y="490"/><use xlink:href="#n" x="509" y="490"/><use xlink:href="#n" x="537.4" y="490"/><use xlink:href="#i" x="565.8" y="490"/></g><g style="fill:#000;fill-opacity:1"><use xlink:href="#o" x="830" y="1046"/><use xlink:href="#b" x="851.6" y="1046"/><use xlink:href="#p" x="864.6" y="1046"/><use xlink:href="#p" x="906.6" y="1046"/><use xlink:href="#l" x="948.7" y="1046"/></g><use xlink:href="#q" x="977.5" y="1046" style="fill:#000;fill-opacity:1"/><use xlink:href="#r" x="986.7" y="1046" style="fill:#000;fill-opacity:1"/><g style="fill:#000;fill-opacity:1"><use xlink:href="#r" x="1303" y="595"/><use xlink:href="#h" x="1329.8" y="595"/><use xlink:href="#s" x="1364.7" y="595"/></g><use xlink:href="#t" x="1397.6" y="595" style="fill:#000;fill-opacity:1"/><use xlink:href="#i" x="1444.3" y="595" style="fill:#000;fill-opacity:1"/><use xlink:href="#l" x="1473.5" y="595" style="fill:#000;fill-opacity:1"/><path style="stroke:none;fill-rule:nonzero;fill:#b51700;fill-opacity:1" d="M474.6 342c-.3.3-.8.6-1.3.2-.5-.5-.5-1.2 0-1.6.6-.5.6 0 1.8-1.1.5-.4 1.3.5.9.9-1.1.9-.7 1-1.4 1.6ZM706 136.2c.6-.5 1-.5 1.5 0s.3 1-.2 1.5c-.6.5-.8.2-1.7 1-.5.4-1.2-.6-.8-1 1-.8.6-1 1.2-1.5ZM476 340.3c-.4.4-1.3-.5-.7-1l2.1-1.6 1.3-1.4c.2-.3 1.8-1.2 2.3-1.7l1-1 1.5-1.2c.4-.3.5-.8 1-1.1.6-.4.7-.7 1-1 .6-.5 1.4.5.9.9l-1.2 1.1-1.1 1-1.7 1.3a8 8 0 0 0-1.3 1.2c-.7.7-2.6 2-2.8 2.4l-1.3 1.2-1 1Zm20-19.2c.5-.4 1.4.5.8 1l-2 1.6a78 78 0 0 1-1.8 1.7c-.3.2-1.4 1-1.8 1.5-.5.6-1.2 1-1.6 1.3l-1 1c-.5.2-.9 1-1.2 1.1l-1 .8c-.4.4-1.2-.5-.8-.9a28 28 0 0 1 2.6-2l1.4-1.4 1.5-1.2 1.4-1.1 1.2-1.3c.2-.3.5-.3 1-.8l1.3-1.3Zm.1 0 1.8-1.5 1.3-1.2 1.2-.8 1.2-1.2c0-.1.3-.5.9-1 .7-.5.8-.7 1.1-1 .6-.3.6-.4 1-.8l1-.8.8-.8c.5-.5 1.3.5.8 1l-1 .5-.7.9c-.3.3-1 .7-1.4 1.2l-1.8 1.6c-.6.5-1.1.6-2.1 1.7l-1.4 1.3-2 1.8c-.4.4-1.2-.5-.7-1Zm20.7-18.3c.5-.4 1.4.4.8 1l-2 1.6-1.7 1.7-1.9 1.5c-.5.6-1.2.9-1.5 1.3l-1.1 1c-.4.2-.8.9-1.2 1.1-.4.2-.5.4-.9.8s-1.2-.5-.8-.9a31.4 31.4 0 0 1 2.5-2.1c.4-.4 1-1 1.5-1.3l1.4-1.2c.4-.3 1-1 1.4-1.2.5-.2 1-1 1.3-1.2l1-.9 1.2-1.2Zm.2-.1 1.8-1.4 1.3-1.2 1.1-.8c.8-.6 1.2-1.2 1.2-1.2l1-1 1-1c.7-.3.6-.5 1-.8l1-.8c.4-.2.5-.6.9-.9.5-.4 1.2.6.8 1l-1 .6-.8.8-1.4 1.2-1.7 1.7c-.6.5-1.2.6-2.2 1.7l-1.4 1.3c-.5.4-1.4 1.4-1.9 1.7-.5.5-1.3-.4-.7-1Zm20.7-18.2c.5-.4 1.4.4.8 1l-2 1.5-1.8 1.7c-.3.3-1.3 1-1.8 1.6l-1.5 1.2-1.2 1-1.1 1.2-1 .8c-.4.4-1.2-.6-.8-1a25.3 25.3 0 0 1 2.6-2l1.4-1.4 1.5-1.1c.3-.3 1-1 1.4-1.2l1.2-1.3c.2-.3.5-.3 1-.8l1.3-1.2Zm.9.9c-.5.3-1.3-.6-.8-1l2.2-1.7 1.2-1.4c.3-.3 1.9-1.1 2.4-1.7.4-.6.6-.7 1-1l1.5-1.1c.3-.3.5-.9 1-1.2l1-1c.6-.5 1.3.5.9 1l-1.2 1c-.4.4-.9.6-1.2 1-.3.4-1.1 1-1.6 1.3l-1.4 1.2c-.6.7-2.5 2.1-2.7 2.4-.2.3-1 1-1.4 1.2l-1 1Zm9.7-10.2 1.8-1.4 1.3-1.2 1.1-.8c.8-.6 1.2-1.2 1.2-1.2l.9-1c.7-.5.8-.8 1.2-1 .6-.3.5-.5 1-.8.3-.3.5-.6.9-.8.4-.2.5-.6.9-.8.5-.5 1.2.5.7.9l-.9.6-.8.8-1.4 1.3-1.8 1.6c-.5.5-1 .6-2 1.7l-1.5 1.3-1.9 1.8c-.5.4-1.3-.5-.7-1ZM569 257c.5-.4 1.4.4.8 1l-2 1.5-1.8 1.8c-.3.2-1.4 1-1.8 1.5l-1.6 1.3-1 .9c-.5.3-.9 1-1.2 1.2l-1 .8c-.4.4-1.2-.5-.8-.9a31.4 31.4 0 0 1 2.6-2.1l1.4-1.4 1.5-1.1c.3-.3 1-1 1.4-1.2.4-.2 1-1 1.2-1.2l1-.9 1.3-1.2Zm.1-.1 1.8-1.4 1.3-1.2 1.2-.8 1.2-1.2c0-.2.3-.6.9-1 .7-.5.8-.8 1.1-1 .6-.3.6-.5 1-.8l1-.8.8-.9c.5-.4 1.3.6.8 1l-1 .6-.7.8-1.4 1.2-1.8 1.7c-.6.5-1.1.6-2.1 1.7l-1.4 1.2-2 1.8c-.4.5-1.2-.4-.7-1Zm20.7-18.2c.5-.4 1.4.4.8.9l-2 1.6a78 78 0 0 1-1.7 1.7c-.3.3-1.4 1-1.9 1.6-.5.5-1.2.8-1.5 1.2-.4.5-.7.7-1.1 1-.4.3-.8 1-1.2 1.2-.4.1-.5.4-.9.8s-1.2-.6-.8-1a28 28 0 0 1 2.5-2l1.5-1.4 1.4-1.1c.4-.3 1-1 1.4-1.2.5-.3 1-1 1.3-1.3.2-.3.4-.3 1-.8l1.2-1.2Zm.2-.2 1.8-1.3c.2-.2.9-1 1.3-1.2l1.1-.9c.8-.6 1.2-1.1 1.2-1.2.1 0 .4-.5 1-.9l1-1c.7-.4.6-.5 1-.8l1-.8.9-.9c.5-.4 1.2.5.8 1-.3.2-.7.3-1 .6l-.8.8-1.3 1.2-1.8 1.7c-.6.4-1.2.5-2.2 1.7-.3.3-1 1-1.4 1.2l-1.9 1.8c-.5.5-1.3-.5-.7-1Zm20.7-18.2c.5-.4 1.4.5.8 1l-2 1.6-1.8 1.7-1.8 1.5c-.5.6-1.2 1-1.5 1.3l-1.2 1c-.3.3-.7 1-1.1 1.1l-1 .8c-.4.4-1.2-.5-.8-.9a31.4 31.4 0 0 1 2.6-2l1.4-1.4 1.5-1.2 1.4-1.1 1.2-1.3c.2-.3.5-.3 1-.8l1.3-1.3Zm.9 1c-.5.3-1.3-.6-.8-1l2.2-1.7 1.3-1.5c.2-.2 1.8-1 2.3-1.6.4-.6.6-.7 1-1l1.5-1.2c.3-.3.5-.8 1-1.2.5-.3.7-.6 1-1 .6-.4 1.3.5.9 1l-1.2 1c-.4.4-.9.6-1.2 1-.3.5-1.1 1-1.6 1.4a8 8 0 0 0-1.4 1.2c-.6.7-2.5 2-2.7 2.4l-1.4 1.2-1 1Zm9.7-10.2 1.8-1.4c.2-.2.9-1 1.3-1.2l1.1-.9 1.2-1.1c0-.2.4-.6.9-1 .7-.5.8-.8 1.2-1l1-.8c.3-.4.5-.6.9-.8l.9-.9c.5-.4 1.2.5.7 1l-.9.6-.8.8-1.4 1.2-1.8 1.7c-.5.5-1 .5-2 1.7l-1.5 1.2-1.9 1.8c-.5.5-1.3-.5-.7-1Zm20.7-18.2c.5-.5 1.4.4.8.9l-2 1.6-1.8 1.7-1.8 1.5c-.5.6-1.2 1-1.6 1.3l-1 1c-.5.3-.9 1-1.2 1.1-.4.2-.5.5-1 .9-.4.3-1.2-.6-.8-1a31.4 31.4 0 0 1 2.6-2l1.4-1.4 1.5-1.1c.3-.3 1-1 1.4-1.2l1.2-1.3c.2-.3.5-.3 1-.8l1.3-1.2Zm.1-.2 1.8-1.3 1.3-1.3 1.2-.8 1.2-1.2s.3-.5.9-1c.7-.5.8-.7 1.1-1 .6-.3.6-.4 1-.8l1-.8.8-.8c.5-.4 1.3.5.8 1l-1 .6-.7.8c-.3.3-1 .7-1.4 1.2l-1.8 1.7c-.6.4-1.1.5-2.1 1.7l-1.4 1.2-2 1.8c-.4.4-1.2-.5-.7-1Zm11.2-8.1c-.4.3-1.3-.6-.8-1 .6-.5 2-1.4 2.2-1.7l1.3-1.4c.2-.3 1.8-1.1 2.3-1.7l1-1 1.5-1.1c.4-.3.5-.9 1-1.2.6-.4.7-.7 1-1 .6-.5 1.4.5.9 1l-1.2 1c-.4.4-.9.6-1.2 1-.3.4-1.1 1-1.6 1.3l-1.3 1.2c-.7.8-2.6 2.1-2.8 2.4l-1.3 1.2-1 1Zm9.7-10.2 1.8-1.4 1.3-1.2 1.1-.8c.8-.6 1.2-1.2 1.2-1.2l1-1 1-1c.7-.3.6-.5 1-.8l1-.8c.4-.2.5-.6.9-.8.5-.5 1.2.5.8.9-.3.3-.7.4-1 .6l-.8.8-1.3 1.3-1.8 1.6c-.6.5-1.2.6-2.2 1.7l-1.4 1.3-1.9 1.8c-.5.4-1.3-.5-.7-1Zm11.1-8.2c-.4.4-1.2-.5-.7-1l2.2-1.6 1.2-1.4c.3-.3 1.8-1.2 2.3-1.7.5-.6.7-.7 1.1-1l1.4-1.2c.4-.3.5-.8 1-1.1.6-.4.8-.7 1.1-1 .5-.5 1.3.5.8.9l-1.1 1.1c-.5.3-.9.6-1.2 1-.3.4-1.1 1-1.7 1.3l-1.3 1.2c-.7.7-2.6 2-2.7 2.4-.2.3-1 1-1.4 1.2l-1 1Zm9.7-10.1 1.8-1.4 1.3-1.2 1.2-.8 1.2-1.2c0-.1.3-.6.9-1 .7-.5.8-.8 1.1-1 .6-.3.6-.5 1-.8l1-.8.8-.9c.5-.4 1.3.6.8 1l-.9.6-.8.8-1.4 1.2-1.8 1.7c-.6.5-1 .6-2.1 1.7-.3.4-1.1 1-1.4 1.2-.5.5-1.5 1.5-2 1.8-.4.5-1.2-.4-.7-1Zm11.2-8.2c-.4.4-1.3-.5-.7-1l2.1-1.6 1.3-1.5c.2-.2 1.8-1 2.3-1.7l1-1 1.5-1c.4-.4.5-1 1-1.3.6-.3.7-.7 1-1 .6-.4 1.4.5.9 1l-1.2 1-1.1 1c-.3.5-1.2 1-1.7 1.4a8 8 0 0 0-1.3 1.2c-.7.7-2.6 2-2.8 2.4l-1.3 1.1-1 1Zm0 0"/><path style="stroke:none;fill-rule:nonzero;fill:#b51700;fill-opacity:1" d="M475.8 320.7c-.3.3-.9.6-1.3.1-.5-.5-.4-1.2 0-1.6.6-.4.7 0 2-1 .4-.4 1.2.6.7 1-1 .8-.7 1-1.4 1.5Zm229.7-184.2c.7-.5 1.1-.4 1.5 0 .5.6.3 1.1-.3 1.6-.6.4-.8.1-1.7.9-.5.4-1.2-.6-.8-1 1-.8.7-1 1.3-1.5ZM477.3 319.1c-.5.4-1.3-.6-.7-1l2.2-1.5 1.3-1.4c.3-.2 1.9-1 2.4-1.5.5-.6.7-.7 1.1-1l1.5-1 1.1-1.2c.6-.3.8-.6 1-.9.6-.4 1.4.6.9 1l-1.3 1c-.4.3-.8.5-1.2 1-.3.3-1.1.9-1.7 1.2a8 8 0 0 0-1.4 1c-.7.8-2.6 2-2.8 2.3-.2.3-1.1.9-1.4 1.1l-1 1Zm20.8-18c.5-.4 1.4.5.8 1l-2 1.4-2 1.7c-.2.2-1.4.8-1.9 1.4-.5.5-1.2.8-1.6 1.2l-1.1.8c-.4.3-.8 1-1.2 1.2-.4.1-.5.4-1 .7-.4.4-1.2-.6-.7-1a30.8 30.8 0 0 1 2.6-1.9c.4-.3 1-1 1.5-1.3l1.5-1 1.5-1.1a5 5 0 0 0 1.3-1.2c.2-.3.4-.3 1-.8l1.3-1.1Zm.2-.2 1.8-1.2 1.4-1.2 1.2-.7 1.2-1.1c.1-.2.4-.6 1-1 .7-.4.8-.7 1.1-1 .7-.2.6-.4 1-.7l1-.7c.5-.2.6-.6 1-.8.5-.4 1.2.6.7 1l-1 .5-.8.8-1.4 1.1-1.9 1.6c-.6.5-1.1.5-2.2 1.6-.3.4-1.1 1-1.4 1.2l-2 1.6c-.6.5-1.3-.5-.7-1Zm21.5-17c.5-.4 1.3.5.8 1l-2.1 1.5a78 78 0 0 1-1.9 1.6c-.3.2-1.4.9-1.9 1.4-.5.6-1.2.8-1.6 1.2-.4.5-.7.6-1.1.9-.4.3-.9 1-1.2 1.1l-1 .8c-.4.3-1.2-.6-.8-1a29.8 29.8 0 0 1 2.7-2l1.5-1.2a23 23 0 0 0 1.5-1c.4-.3 1-1 1.4-1.1.5-.3 1.1-1 1.3-1.3l1-.7 1.4-1.2Zm.2-.1c.5-.5 1.6-1 1.8-1.3l1.3-1.1 1.2-.8 1.3-1.1c0-.1.4-.5 1-.9l1.1-1c.7-.3.6-.4 1-.7l1-.8 1-.8c.5-.4 1.2.6.7 1l-1 .6-.8.8-1.4 1.1-2 1.6c-.5.4-1 .5-2.1 1.6l-1.5 1.1-2 1.7c-.5.4-1.2-.6-.6-1Zm21.5-17c.5-.4 1.3.5.7 1l-2 1.4-1.9 1.6-2 1.5c-.4.5-1.1.8-1.5 1.2l-1.1.8c-.4.3-.9 1-1.3 1.2-.3.1-.5.4-.9.7-.5.4-1.2-.6-.8-1l1.3-.8 1.4-1.1 1.4-1.3 1.6-1 1.4-1.1c.5-.3 1.1-1 1.3-1.2.2-.3.5-.3 1-.8l1.4-1.1Zm.8.9c-.4.3-1.2-.6-.7-1 .6-.5 2-1.3 2.2-1.6.4-.2 1-1.1 1.4-1.3.3-.3 1.8-1 2.4-1.6l1-1 1.6-1c.4-.3.5-.8 1-1.1.6-.3.8-.7 1.1-1 .6-.4 1.3.6.8 1l-1.2 1c-.5.4-.9.6-1.2 1-.3.4-1.2.9-1.7 1.2a8 8 0 0 0-1.4 1.1c-.7.7-2.7 2-2.9 2.3l-1.4 1-1 1Zm10.2-9.6 1.8-1.3 1.4-1.1 1.2-.8 1.2-1.1 1-1c.7-.4.8-.7 1.1-.9.7-.3.6-.4 1-.7l1-.8c.5-.2.6-.5 1-.8.5-.4 1.2.6.7 1l-1 .6-.8.7-1.4 1.2-1.9 1.5c-.6.5-1.1.5-2.2 1.6-.3.4-1.1 1-1.4 1.2l-2 1.7c-.6.4-1.3-.6-.7-1Zm21.5-17c.5-.5 1.4.4.8.9l-2.1 1.5a78 78 0 0 1-1.9 1.6c-.3.2-1.4.9-1.9 1.4-.5.6-1.2.9-1.6 1.2-.4.5-.7.6-1.1 1-.4.2-.9.9-1.2 1l-1 .8c-.4.3-1.2-.6-.8-1a27.4 27.4 0 0 1 2.7-2l1.5-1.2 1.5-1c.4-.3 1-1 1.5-1.1l1.2-1.2c.2-.3.5-.4 1-.8l1.4-1.2Zm.2-.2c.5-.4 1.6-1 1.8-1.3l1.4-1c.3-.4.5-.4 1.2-.9l1.2-1c0-.2.4-.6 1-1 .7-.5.8-.7 1.1-1 .7-.2.6-.4 1-.7l1-.7 1-.8c.5-.5 1.2.6.7 1l-1 .5-.8.8-1.4 1.1c-.5.4-1.3 1.2-2 1.6-.5.4-1 .5-2.1 1.6l-1.5 1.1-2 1.7c-.5.4-1.2-.5-.6-1Zm21.5-17c.5-.4 1.3.5.7 1l-2 1.5-1.9 1.6c-.3.2-1.4.8-1.9 1.4-.5.5-1.2.8-1.6 1.2l-1.1.9c-.4.2-.9.9-1.3 1-.3.2-.4.5-.9.8-.5.4-1.2-.6-.8-.9a24.7 24.7 0 0 1 2.7-2c.4-.3 1-1 1.4-1.2a23 23 0 0 0 1.6-1c.3-.4 1-1 1.4-1.2.5-.2 1.1-.9 1.3-1.2.2-.3.5-.3 1-.8l1.4-1.1Zm.1-.1 1.9-1.3 1.3-1.1 1.2-.8a7 7 0 0 0 1.3-1.1l1-1 1.1-.9 1-.7 1-.8 1-.8c.4-.4 1.2.6.7 1-.3.2-.7.3-1 .6l-.8.7-1.5 1.2-1.8 1.5c-.6.5-1.2.5-2.2 1.6l-1.5 1.2-2 1.7c-.5.4-1.2-.6-.7-1Zm21.6-17c.5-.5 1.3.4.7.9l-2 1.5a78 78 0 0 1-2 1.6l-1.8 1.4c-.5.6-1.2.9-1.6 1.2l-1.2 1c-.4.2-.8.8-1.2 1l-1 .8c-.4.3-1.1-.6-.7-1a30.8 30.8 0 0 1 2.7-2l1.4-1.2 1.6-1c.3-.3 1-1 1.4-1.1a5 5 0 0 0 1.3-1.2c.2-.3.5-.4 1-.8l1.4-1.2Zm.8.8c-.5.4-1.2-.6-.7-1 .6-.4 2-1.2 2.2-1.5.3-.3 1-1.2 1.4-1.4.2-.2 1.8-1 2.3-1.5l1.2-1 1.4-1 1.1-1.2c.6-.3.8-.6 1.1-.9.6-.4 1.3.6.8 1l-1.2 1c-.5.3-1 .5-1.2 1l-1.7 1.2a8 8 0 0 0-1.4 1.1c-.7.7-2.7 2-2.9 2.2-.2.3-1 .9-1.4 1.1l-1 1Zm10.2-9.6 1.8-1.2 1.4-1.2 1.2-.7c.8-.6 1.2-1.1 1.2-1.2 0 0 .4-.5 1-.8l1.1-1c.7-.3.6-.5 1-.8l1-.7c.5-.2.6-.6 1-.8.5-.4 1.2.6.7 1l-1 .5-.8.8-1.4 1.1-1.9 1.6c-.6.5-1.1.5-2.2 1.6l-1.5 1.2-2 1.6c-.5.5-1.2-.5-.6-1Zm21.5-17c.5-.4 1.3.5.7 1l-2 1.5-1.9 1.6c-.3.2-1.4.9-1.9 1.4-.5.5-1.2.8-1.6 1.2l-1.1.9c-.4.3-.9 1-1.3 1.1l-.9.8c-.4.3-1.2-.6-.8-1l1.3-.9 1.4-1c.4-.4 1-1 1.5-1.3l1.5-1c.3-.3 1-1 1.4-1.2a5 5 0 0 0 1.3-1.2c.2-.3.5-.3 1-.8l1.4-1Zm.1-.1 2-1.3 1.2-1.1 1.2-.8 1.3-1.1c0-.1.4-.5 1-.9l1.1-1 1-.7 1-.8 1-.8c.5-.4 1.2.6.7 1-.3.2-.7.3-1 .6l-.8.8-1.5 1-1.8 1.7c-.6.4-1.2.5-2.2 1.5l-1.5 1.2-2 1.7c-.5.4-1.2-.6-.7-1Zm11.6-7.6c-.5.4-1.3-.6-.7-1l2.2-1.5 1.3-1.4c.3-.2 1.9-1 2.4-1.5.5-.6.7-.7 1.1-1l1.5-1c.4-.3.5-.8 1.1-1.2.6-.3.8-.6 1-.9.6-.4 1.4.6.9 1l-1.3 1c-.4.3-.9.5-1.2 1-.3.4-1.1.9-1.7 1.2l-1.4 1.1c-.7.7-2.6 2-2.8 2.2-.2.3-1.1.9-1.4 1.1l-1 1Zm10.1-9.6 1.9-1.2 1.3-1.2 1.2-.7c.8-.6 1.2-1.1 1.3-1.2 0 0 .4-.5.9-.8l1.2-1c.6-.3.6-.5 1-.8l1-.7 1-.8c.4-.4 1.1.6.7 1l-1 .5-.8.8-1.5 1.1-1.8 1.6c-.6.4-1.2.5-2.2 1.6l-1.5 1.1-2 1.7c-.5.5-1.3-.5-.7-1Zm11.5-7.5c-.4.3-1.2-.6-.6-1 .5-.5 1.9-1.3 2.2-1.5l1.3-1.4c.3-.2 1.9-1 2.4-1.6l1.1-1 1.5-1c.4-.3.5-.8 1-1.1.6-.3.8-.6 1.2-1 .5-.3 1.3.6.7 1-.5.4-.8.8-1.2 1-.4.4-.9.6-1.2 1-.3.4-1.2 1-1.7 1.2a8 8 0 0 0-1.4 1.1c-.7.7-2.7 2-2.8 2.3-.2.3-1.1.8-1.4 1l-1 1Zm10.2-9.6 1.9-1.3 1.3-1.1 1.2-.8 1.3-1.1c0-.1.3-.5.9-.9.7-.5.8-.8 1.2-1l1-.7 1-.8c.4-.2.6-.5.9-.8.5-.4 1.2.6.7 1l-1 .6-.7.7-1.5 1.2-1.9 1.6c-.6.4-1 .5-2.2 1.5-.3.4-1.1 1-1.4 1.2l-2 1.7c-.5.4-1.3-.6-.7-1ZM962.2 366.6c.3.3.7.8.2 1.3-.4.5-1.1.5-1.6 0s0-.6-1.1-1.8c-.4-.4.5-1.3.9-.8 1 1 1 .6 1.6 1.3Zm-217-236.1c-.5-.6-.5-1 0-1.5s1-.4 1.5.2c.5.5.2.7 1 1.7.5.4-.5 1.2-.8.8-1-1-1-.6-1.6-1.2Zm215.3 234.7c.4.5-.5 1.3-1 .8-.4-.6-1.4-2-1.7-2.2l-1.5-1.3c-.2-.3-1.2-1.9-1.8-2.4l-1-1-1.2-1.5c-.4-.4-.9-.5-1.3-1-.4-.6-.7-.8-1-1.1-.5-.6.4-1.4.9-.9l1.2 1.2c.3.5.5.9 1 1.2.4.3 1 1.2 1.4 1.7l1.3 1.4c.7.6 2.2 2.6 2.5 2.8l1.2 1.3 1 1Zm-20.2-20.4c-.4-.5.4-1.4 1-.8l1.7 2 1.8 1.9c.2.2 1 1.3 1.6 1.8l1.3 1.6c.5.4.7.8 1 1.1l1.3 1.2.8 1c.4.4-.5 1.2-.8.8a33.2 33.2 0 0 1-2.3-2.6l-1.4-1.5-1.2-1.5c-.3-.3-1-1-1.2-1.4-.3-.5-1-1-1.4-1.3l-.9-1-1.3-1.3Zm0-.1-1.5-1.9-1.3-1.3-.9-1.2a7.9 7.9 0 0 0-1.2-1.2c-.2 0-.6-.4-1-.9-.6-.7-.9-.8-1.1-1.2-.4-.6-.5-.6-.9-1l-.8-1c-.3-.4-.6-.5-1-.8-.4-.5.6-1.3 1-.8.3.2.4.6.7.9l.8.8 1.3 1.4 1.8 1.9c.5.6.6 1.1 1.8 2.1l1.3 1.5 1.9 2c.4.4-.5 1.2-1 .7ZM921 323.5c-.4-.5.4-1.4 1-.8l1.6 2 1.8 1.9c.3.2 1 1.3 1.6 1.8.6.5 1 1.2 1.4 1.6.5.4.7.7 1 1.1.3.4 1 .8 1.2 1.2.2.4.5.5.9 1 .4.4-.5 1.2-.9.8a30.7 30.7 0 0 1-2.2-2.6L927 330l-1.3-1.5c-.3-.3-1-1-1.2-1.4-.3-.5-1-1-1.3-1.3l-1-1-1.2-1.3Zm-.1-.1-1.5-1.9-1.3-1.3-.8-1.2a8 8 0 0 0-1.3-1.2 4 4 0 0 1-1-.9c-.6-.7-.8-.8-1-1.2-.4-.6-.6-.6-1-1l-.8-1c-.2-.4-.6-.5-.9-.8-.4-.5.5-1.3 1-.8l.6.9.9.8 1.3 1.4 1.7 1.9c.5.6.6 1.1 1.8 2.1l1.3 1.5 2 1.9c.4.5-.5 1.3-1 .8Zm-19.2-21.2c-.5-.5.3-1.4.9-.8l1.7 2 1.8 1.9c.2.2 1 1.3 1.6 1.8.6.5 1 1.2 1.4 1.6l1 1.1c.3.4 1 .8 1.2 1.2.2.4.5.5.9 1 .4.4-.5 1.2-1 .8a30.3 30.3 0 0 1-2.2-2.6l-1.4-1.5-1.2-1.5c-.3-.3-1-1-1.2-1.4-.3-.5-1-1-1.4-1.3l-.9-1-1.2-1.3Zm.8-.9c.4.5-.5 1.3-1 .8-.5-.6-1.4-2-1.7-2.2l-1.5-1.3c-.3-.3-1.2-1.9-1.8-2.4l-1-1-1.3-1.5c-.3-.4-.8-.5-1.2-1l-1-1.2c-.5-.5.4-1.3.9-.8l1.1 1.2c.4.4.6.9 1 1.2.5.3 1.1 1.2 1.5 1.7l1.2 1.3c.8.7 2.3 2.7 2.6 2.9l1.2 1.3 1 1Zm-10.6-9.9-1.5-1.8-1.3-1.3-.8-1.2a8 8 0 0 0-1.3-1.2 4 4 0 0 1-1-1l-1-1.1c-.4-.6-.6-.6-1-1l-.8-1c-.2-.4-.6-.6-.9-.9-.4-.5.5-1.3 1-.8l.6 1 .9.8 1.3 1.4 1.7 1.8c.5.6.6 1.1 1.8 2.2l1.3 1.4 2 2c.4.5-.5 1.3-1 .7Zm-19.2-21.1c-.5-.5.3-1.4.9-.9l1.7 2 1.8 1.9c.2.3 1 1.4 1.6 1.9.6.5 1 1.2 1.3 1.5l1 1.2 1.3 1.2c.2.4.4.5.8.9.5.4-.5 1.3-.8.8a30.3 30.3 0 0 1-2.3-2.6l-1.4-1.4-1.2-1.5-1.2-1.5c-.3-.4-1-1-1.4-1.2-.3-.2-.3-.5-.9-1l-1.2-1.3Zm-.2-.2-1.4-1.8-1.3-1.3c-.3-.4-.3-.6-.9-1.2a8 8 0 0 0-1.2-1.2c-.2-.1-.6-.4-1-1l-1.1-1.1c-.4-.6-.5-.6-.9-1l-.8-1-1-.9c-.4-.5.6-1.3 1-.8l.7 1 .8.8c.4.2.9.9 1.3 1.4l1.8 1.8c.5.6.6 1.1 1.8 2.2l1.3 1.4 1.9 2c.5.5-.5 1.3-1 .7ZM853.3 249c-.4-.5.4-1.4 1-.9.5.6 1.3 1.8 1.6 2l1.9 1.9c.2.3 1 1.4 1.6 1.9.6.5 1 1.2 1.3 1.5l1 1.2c.3.4 1 .8 1.2 1.2l1 .9c.3.4-.6 1.3-1 .8a37.6 37.6 0 0 1-2.2-2.6l-1.4-1.4-1.2-1.5-1.3-1.5-1.3-1.2-.9-1-1.3-1.3Zm-.1-.2-1.5-1.8-1.2-1.3-1-1.2a8 8 0 0 0-1.2-1.2l-1-1c-.5-.7-.8-.8-1-1.1-.4-.6-.6-.6-1-1l-.8-1c-.2-.4-.6-.6-.8-.9-.5-.5.4-1.3.9-.8l.6 1 .9.8 1.3 1.4 1.7 1.8c.5.6.6 1.1 1.8 2.2l1.4 1.4 1.8 2c.5.5-.4 1.3-1 .7ZM834 227.7c-.5-.5.4-1.4.9-.9l1.7 2 1.8 1.9c.3.3 1 1.4 1.6 1.9l1.4 1.5 1 1.2c.3.4 1 .8 1.2 1.2.2.4.5.4.9.9.4.4-.5 1.3-1 .8a27.7 27.7 0 0 1-2.2-2.6l-1.4-1.4-1.2-1.5-1.2-1.5-1.3-1.2c-.4-.2-.4-.5-1-1l-1.2-1.3Zm.8-1c.4.5-.5 1.3-1 .8l-1.7-2.2-1.5-1.3c-.2-.2-1.2-1.8-1.8-2.3-.6-.5-.7-.7-1-1.1-.4-.4-1-1-1.2-1.5-.4-.4-.9-.5-1.3-1-.4-.6-.7-.8-1-1.1-.5-.6.4-1.3.9-.8l1.2 1.2c.3.4.5.8 1 1.1l1.4 1.7c.4.6.9 1 1.3 1.4l2.5 2.8c.3.2 1 1 1.2 1.4l1 1Zm-10.6-9.8-1.5-1.9-1.3-1.3-.8-1.2a7.7 7.7 0 0 0-1.3-1.2l-1-.9c-.5-.7-.8-.8-1-1.2-.4-.6-.6-.6-1-1l-.8-1c-.2-.4-.6-.5-.9-.8-.4-.6.5-1.3 1-.9l.6 1 .9.8 1.3 1.4 1.7 1.9c.5.5.6 1 1.8 2.1l1.3 1.4 2 2c.4.5-.5 1.3-1 .8ZM805 195.7c-.5-.5.4-1.4.9-.8l1.7 2 1.8 1.8 1.6 2c.6.4 1 1.1 1.4 1.5.5.4.6.7 1 1.1.3.4 1 .8 1.2 1.2.2.4.5.5.9 1 .4.4-.5 1.2-1 .8a27.7 27.7 0 0 1-2.2-2.6l-1.4-1.5-1.2-1.5c-.3-.3-1-1-1.2-1.4-.3-.5-1-1-1.4-1.3-.3-.2-.3-.4-.8-1l-1.3-1.3Zm-.2-.1-1.4-1.9-1.3-1.3c-.3-.4-.3-.6-.9-1.2a8 8 0 0 0-1.2-1.2 4 4 0 0 1-1-.9c-.6-.7-.9-.8-1.1-1.2-.4-.6-.5-.6-.9-1l-.8-1-.9-.8c-.5-.6.5-1.3 1-.9.2.3.3.7.6 1l.9.8 1.2 1.4 1.8 1.9c.5.5.6 1 1.8 2.1l1.3 1.4 1.9 2c.5.5-.4 1.3-1 .8Zm-8.6-11.4c.4.4-.5 1.2-1 .7s-1.4-1.9-1.8-2.2l-1.5-1.3c-.2-.2-1.2-1.8-1.8-2.3-.6-.5-.7-.7-1-1.1l-1.2-1.5c-.3-.4-.9-.5-1.3-1-.3-.6-.7-.8-1-1.1-.5-.6.5-1.3 1-.8l1 1.2 1.1 1.1c.5.3 1 1.2 1.4 1.7.4.6.9 1 1.3 1.4l2.5 2.8c.3.2 1 1 1.2 1.4l1 1Zm-10.7-10-1.4-1.8-1.3-1.3-1-1.2a8 8 0 0 0-1.2-1.2 4 4 0 0 1-1-1l-1-1c-.4-.7-.5-.7-.9-1l-.8-1c-.3-.5-.6-.6-1-1-.4-.5.6-1.2 1-.8l.7 1 .8.8 1.3 1.4 1.8 1.9c.5.5.6 1 1.8 2.1l1.3 1.4 1.9 2c.4.5-.5 1.3-1 .8Zm-8.7-11.3c.4.4-.5 1.2-1 .7l-1.7-2.2-1.5-1.3c-.3-.3-1.2-1.8-1.8-2.3-.6-.5-.7-.7-1-1.1-.4-.4-1-1-1.3-1.5-.3-.4-.8-.5-1.2-1-.4-.6-.7-.8-1-1.1-.5-.6.4-1.3.9-.8.4.4.8.7 1.1 1.2l1 1.1c.5.3 1.1 1.2 1.5 1.7l1.2 1.4c.8.7 2.3 2.6 2.6 2.8.3.2 1 1 1.2 1.4l1 1Zm-10.6-10c-.6-.5-1.3-1.6-1.5-1.8l-1.3-1.3-.8-1.2a7.9 7.9 0 0 0-1.3-1.2l-1-1-1-1c-.4-.7-.6-.7-1-1l-.8-1c-.2-.5-.6-.6-.9-1-.4-.5.5-1.2 1-.8l.6 1 .9.8 1.3 1.4 1.7 1.9c.5.5.6 1 1.8 2.1l1.3 1.4 2 2c.4.5-.5 1.3-1 .7Zm-8.7-11.3c.4.4-.5 1.2-1 .7l-1.7-2.2-1.6-1.3c-.2-.3-1.1-1.8-1.7-2.3l-1.1-1.1-1.2-1.5c-.3-.4-.9-.5-1.2-1-.4-.6-.8-.8-1-1.1-.6-.6.4-1.4.8-.8l1.2 1.2 1 1.1c.5.3 1 1.2 1.5 1.7l1.2 1.4c.8.7 2.2 2.6 2.5 2.8l1.3 1.4 1 1Zm0 0"/><path style="stroke:none;fill-rule:nonzero;fill:#b51700;fill-opacity:1" d="M964.2 318.6c.4.3.8.8.4 1.3-.4.6-1.1.6-1.6.2-.5-.5-.1-.6-1.4-1.6-.4-.4.4-1.4.8-1 1.1 1 1.2.6 1.8 1.1ZM745.2 131c-.5-.6-.6-1-.2-1.5.5-.5 1-.5 1.6 0 .5.5.3.7 1.2 1.5.5.5-.4 1.3-.8 1-1-.9-1-.5-1.7-1Zm217.2 186.6c.5.4-.3 1.3-.9.9l-2-2-1.6-1c-.3-.3-1.4-1.8-2-2.2l-1.2-1-1.3-1.2c-.4-.4-1-.4-1.4-1l-1-.9c-.6-.4.2-1.3.7-.9l1.3 1c.4.4.7.8 1.1 1 .5.3 1.2 1.1 1.6 1.6l1.4 1.2c.8.5 2.5 2.3 2.8 2.4l1.4 1.2 1.1.9Zm-22.2-17.7c-.5-.4.2-1.4.8-.9l2 1.8 2 1.6c.2.2 1 1.2 1.7 1.6.7.5 1 1.1 1.5 1.4.6.4.8.7 1.1 1l1.4 1c.2.4.5.5 1 .8.4.4-.4 1.3-.8 1a30.7 30.7 0 0 1-2.5-2.3c-.5-.4-1.2-.8-1.6-1.3l-1.4-1.3-1.3-1.3c-.4-.4-1.2-1-1.5-1l-1-1-1.4-1Zm-.1-.1-1.7-1.6-1.4-1.2-1-1a8 8 0 0 0-1.4-1.1 4 4 0 0 1-1-.8c-.7-.6-1-.7-1.2-1-.5-.6-.6-.5-1-.9l-1-.9c-.2-.3-.6-.4-1-.7-.4-.4.4-1.3.9-1l.8 1 .9.6 1.4 1.3 2 1.6c.5.5.7 1 2 1.9l1.4 1.2 2.1 1.7c.5.5-.3 1.4-.8.9Zm-21.3-18.5c-.5-.5.2-1.5.8-1 .5.6 1.5 1.6 1.9 1.8l2 1.6c.2.3 1.1 1.3 1.8 1.7.6.4 1 1 1.5 1.4.5.3.7.6 1 1 .4.3 1.2.6 1.4 1l1 .8c.4.4-.4 1.3-.8 1a30.7 30.7 0 0 1-2.5-2.4c-.4-.3-1.1-.7-1.5-1.2l-1.4-1.4-1.4-1.2c-.3-.4-1.1-1-1.5-1.1l-1-.9-1.3-1.1Zm-.2-.2-1.6-1.6-1.4-1.1-1-1c-.8-.8-1.4-1.1-1.4-1.1-.1-.1-.6-.3-1-.8l-1.3-1c-.4-.6-.6-.6-1-1l-.9-.8c-.3-.4-.7-.5-1-.8-.5-.4.4-1.3.8-.9l.8.9 1 .7 1.4 1.2 2 1.6c.5.5.6 1 2 2 .4.2 1 1 1.4 1.2l2 1.7c.6.4-.2 1.3-.8.8Zm-21.3-18.5c-.5-.4.2-1.4.8-.9l2 1.8 2 1.6c.2.2 1 1.2 1.7 1.6.6.5 1 1.1 1.5 1.4l1.1 1 1.4 1c.2.4.5.5 1 .8.4.4-.4 1.3-.8 1a30.7 30.7 0 0 1-2.6-2.3l-1.5-1.3a25 25 0 0 0-1.4-1.3l-1.3-1.3c-.4-.4-1.2-1-1.5-1l-1-1-1.4-1Zm.7-1c.5.4-.3 1.4-.8 1l-2-2-1.6-1.1c-.3-.3-1.4-1.7-2-2.1l-1.2-1-1.4-1.3c-.3-.3-.9-.4-1.3-.9l-1.1-1c-.6-.4.2-1.3.7-.8.5.4 1 .6 1.3 1 .4.4.7.8 1.2 1 .5.3 1.1 1 1.6 1.5l1.3 1.2c.9.6 2.5 2.3 2.8 2.5.4.1 1.1 1 1.4 1.2l1.1.8Zm-11.6-8.4-1.6-1.7-1.4-1.1-1-1c-.8-.8-1.3-1.1-1.4-1.1a4 4 0 0 1-1-.8l-1.3-1c-.4-.6-.5-.5-1-.9l-.9-.9-1-.7c-.5-.5.4-1.4.9-1l.7.9 1 .7 1.4 1.3 2 1.5c.5.6.7 1 2 2 .4.2 1 1 1.4 1.2l2 1.7c.6.5-.2 1.4-.8.9Zm-21.3-18.5c-.5-.5.2-1.5.8-1 .6.5 1.6 1.6 2 1.8l2 1.6c.2.2 1 1.2 1.7 1.7.7.4 1 1 1.5 1.3.6.4.8.7 1.1 1l1.4 1c.2.4.5.5 1 .9.4.4-.4 1.3-.8 1a30.8 30.8 0 0 1-2.5-2.4c-.5-.4-1.2-.8-1.6-1.3l-1.4-1.3-1.3-1.3c-.4-.4-1.2-.9-1.5-1l-1-1-1.4-1Zm-.1-.2-1.7-1.6-1.4-1.2-1-1c-.7-.7-1.3-1-1.3-1a4 4 0 0 1-1.1-.8l-1.2-1-1-1-1-.8c-.2-.4-.6-.5-1-.8-.4-.4.4-1.3 1-.9l.7.9 1 .7 1.3 1.2 2 1.6c.5.5.7 1 2 2 .4.2 1.1.9 1.4 1.2l2.1 1.6c.6.5-.3 1.4-.8 1ZM843.7 216c-.5-.4.2-1.4.8-1l1.9 1.9 2 1.6c.2.2 1.1 1.2 1.8 1.6.6.4 1 1 1.5 1.4l1 1c.4.3 1.2.7 1.4 1 .3.4.5.4 1 .8.4.4-.4 1.3-.8 1a30.7 30.7 0 0 1-2.5-2.3c-.4-.4-1.1-.8-1.5-1.3l-1.4-1.3-1.4-1.3c-.3-.4-1.1-1-1.4-1-.4-.2-.5-.5-1-1l-1.4-1.1Zm-.2-.1-1.6-1.7-1.4-1.1-1-1c-.8-.8-1.4-1.1-1.4-1.1-.1 0-.6-.3-1-.8l-1.3-1c-.4-.6-.6-.5-1-.9l-.9-.9-1-.7c-.5-.5.4-1.4.9-1l.7.9 1 .7 1.4 1.2 2 1.6c.5.6.6 1 2 2 .4.2 1 1 1.4 1.2l2 1.7c.6.5-.2 1.4-.8.9Zm-21.3-18.6c-.5-.4.2-1.4.8-.9.6.5 1.6 1.6 2 1.8l2 1.6c.2.2 1 1.2 1.7 1.7.7.4 1 1 1.5 1.3l1.1 1 1.4 1c.2.4.5.5 1 .9.4.4-.4 1.3-.8 1a30.6 30.6 0 0 1-2.6-2.4l-1.5-1.2a25 25 0 0 0-1.4-1.4l-1.3-1.3c-.4-.4-1.2-.9-1.5-1l-1-1-1.4-1Zm.7-1c.5.5-.3 1.4-.8 1l-2-2-1.6-1.1c-.3-.3-1.4-1.7-2-2.1-.7-.4-.8-.6-1.2-1l-1.4-1.3c-.3-.3-.9-.4-1.3-.9l-1.1-.9c-.6-.5.2-1.4.8-1l1.2 1.1c.4.4.7.8 1.2 1 .5.3 1.1 1 1.6 1.6l1.4 1.1c.8.6 2.4 2.4 2.8 2.5l1.3 1.2 1.1.9Zm-11.6-8.4-1.6-1.6-1.4-1.2-1-1-1.4-1.1c-.1 0-.6-.3-1-.8l-1.3-1c-.4-.6-.5-.5-1-.9l-.9-.8c-.3-.4-.6-.5-1-.8-.5-.4.4-1.3.9-1l.7 1 1 .6 1.4 1.3 2 1.6c.5.5.7 1 2 1.9.4.3 1 1 1.4 1.2l2 1.7c.6.5-.2 1.4-.8.9ZM790 169.3c-.5-.5.2-1.5.8-1a88.2 88.2 0 0 1 4 3.4c.2.3 1 1.3 1.7 1.7.7.4 1.1 1 1.5 1.4.6.3.8.6 1.1 1 .4.3 1.1.6 1.4 1l1 .8c.4.4-.4 1.3-.8 1a30.7 30.7 0 0 1-2.5-2.4l-1.6-1.2a25 25 0 0 0-1.3-1.4l-1.4-1.2-1.5-1.1-1-.9-1.4-1.1Zm-.1-.2-1.7-1.6-1.4-1.1-1-1.1c-.7-.7-1.3-1-1.3-1a4 4 0 0 1-1.1-.8c-.7-.7-1-.7-1.2-1l-1-1-1-.8c-.2-.4-.6-.5-1-.8-.4-.4.4-1.3 1-.9l.7.9 1 .7 1.3 1.2 2 1.6c.5.5.7 1 2 2 .4.2 1.1 1 1.4 1.2l2.1 1.7c.6.4-.3 1.3-.8.8ZM780 159c.5.4-.3 1.3-.8.8l-2-2-1.6-1c-.3-.3-1.4-1.7-2-2.1-.7-.4-.8-.6-1.2-1l-1.4-1.3c-.3-.3-.9-.4-1.3-.9l-1.2-.9c-.5-.5.3-1.4.8-1 .5.5 1 .7 1.3 1.1.4.4.7.8 1.2 1 .5.3 1.1 1 1.6 1.6l1.3 1.1c.9.6 2.5 2.4 2.8 2.5.4.2 1.1 1 1.4 1.2l1.1.9Zm-11.6-8.5-1.6-1.6-1.4-1.2-1-1-1.4-1.1c-.1 0-.6-.3-1-.8l-1.3-1c-.4-.6-.6-.5-1-.9l-.9-.8c-.3-.4-.6-.5-1-.8-.5-.4.4-1.3.9-1l.7 1 1 .6 1.4 1.3 2 1.6c.5.5.6 1 2 1.9.4.3 1 1 1.4 1.2l2 1.7c.6.5-.2 1.4-.8.9Zm-9.8-10.2c.4.4-.4 1.3-.9.9l-2-2-1.6-1c-.3-.3-1.4-1.7-2-2.2-.7-.4-.8-.6-1.2-1l-1.3-1.2c-.4-.4-1-.4-1.4-1l-1.1-.8c-.6-.5.3-1.4.8-1l1.3 1c.4.4.6.9 1.1 1.1.5.3 1.2 1 1.6 1.5.4.5 1 .9 1.4 1.2l2.8 2.5c.3.1 1 .9 1.4 1.2l1 .8Zm0 0"/><path style="stroke:none;fill-rule:nonzero;fill:#000;fill-opacity:1" d="M253.1 320c-1.4-.1-3.2-.3-3.4-2.4-.2-2 1.3-3.5 3.3-3.5 2 0 1.5 1.1 6.3 1.2 1.7 0 1.8 3.6 0 3.6-4.3 0-3.7 1-6.2 1Zm218.2-4 1.3.2 2.7 2.8c-.2 1.6-1.1 2.3-2.7 2.3s-2.6-.8-2.9-2.3l2.8 2.8-1.2.1c-2.2 0-2.1-1-5.8-1-2 0-1.6-3.8 0-3.8 4 0 3.4-1 5.8-1Zm-211.9 3c-1.7 0-1.7-3.8.3-3.8 2.1 0 6.8.8 8 .7 1.2 0 4.6-.7 5.7-.7 1 0 6.2 1.1 8.4.8 2.2-.3 2.9 0 4.4 0l5.4.3c1.4 0 2.7-.9 4.6-.6 2 .3 3 0 4.2 0 2.1 0 2 3.6 0 3.6-1.9 0-3.1.2-4.7.1-1.6 0-3-.5-4.5-.1-1.6.3-4.5 0-6.3-.3-1.9-.3-3.9-.2-5.3 0-3 .2-9.8-.5-10.8-.2s-4.2 0-5.3 0c-1.1 0-1.8.2-4 .1Zm82.1-3c2 0 2.3 3.7 0 3.7-2.2 0-6.4-.4-7.6-.4l-7.4.3c-1 0-4.8-.6-7-.3-2.3.3-4.4-.4-6-.2-1.8.2-2.8 0-4.3-.1-1.4-.1-3.7.6-4.9.3-1.2-.3-1.9 0-3.6 0-1.7 0-1.7-3.7 0-3.7l4.5.2 5.3.2c1.6 0 4-.4 5.8-.2 1.8.3 4.5.4 5.5.4 1.3.1 4.2 0 5.4.2 1.6.3 4.3 0 5.3-.3s1.6.1 3.8 0l5.2-.1Zm.6 0c2.2 0 5.8.5 6.7.6.9 0 3.8-.3 5.2-.2 1.4 0 1.9.4 4.2.5 3 .1 4.9-.2 5-.3.5-.1 1.9-.5 3.9-.3 2.6.1 3.4-.2 4.6 0 2 .4 2.2 0 3.7.1 1.6.1 2.5 0 3.7.2 1.4.2 2.4-.3 3.6-.2 2 0 1.8 3.7 0 3.6-1.2 0-2.2-.4-3.4-.4-1.1 0-2.2 0-3.3.2-1.2.2-3.6 0-5.5 0-2 0-5 .2-7.3.1-2.2 0-3.5-1-8-.4h-5.6l-7.7.2c-2 0-2-3.7.2-3.7Zm81.8.7c1.9 0 2.2 3.7 0 3.7-2.3 0-6.4-.4-7.7-.3l-7.3.2c-1 0-4.9-.6-7.1-.3-2.2.3-4.4-.3-5.9-.2-1.9.2-2.9 0-4.3 0-1.5-.2-3.7.5-5 .2-1.1-.3-1.8 0-3.5 0-1.8 0-1.7-3.6-.1-3.6a118.5 118.5 0 0 0 9.9.4c1.5 0 3.9-.5 5.7-.2l5.6.4c1.3 0 4.1 0 5.4.2 1.5.3 4.2 0 5.2-.4 1-.3 1.7.1 3.8 0h5.3Zm.6 0c2.2 0 5.8.6 6.6.6l5.3-.2c1.4.1 1.8.4 4.2.5 3 .2 4.8-.2 5-.2.4-.2 1.8-.5 3.8-.4 2.6.2 3.4-.1 4.6 0 2 .5 2.2 0 3.8.2 1.5 0 2.5-.1 3.7.1 1.3.2 2.3-.2 3.6-.2 2 0 1.7 3.7-.1 3.7-1.2 0-2.2-.4-3.3-.4a25 25 0 0 0-3.4.2h-5.5c-1.9 0-5 .2-7.2 0-2.2 0-3.6-.9-8.1-.4-1.5.2-4.4 0-5.5 0l-7.8.2c-2 0-2-3.7.3-3.7Zm45.1 3.3c0-1.3.2-3.2 2.2-3.4 2-.2 3.6 1.2 3.6 3.3 0 2-1 1.4-1 6.2 0 1.8-3.6 2-3.7.1 0-4.2-1-3.7-1-6.2Zm6.6 88.7v1.2l-2.8-2.8c1.5.4 2.2 1.3 2.2 2.9 0 1.6-1 2.5-2.4 2.8l-2.7-2.8a6 6 0 0 1-.2-1.2c0-2.2 1.1-2.1 1-5.8 0-2 3.7-1.7 3.7 0 0 3.8 1.2 3.2 1.2 5.7Zm-1.5-44.4c0 1.7-3.6 2-3.6 0 0-2.1.3-6 .2-7l-.4-6.9c0-1 .5-4.5.2-6.6-.3-2 .3-4 0-5.4-.1-1.8 0-2.7.1-4 0-1.4-.7-3.5-.4-4.6.3-1.1 0-1.8 0-3.4 0-1.6 3.6-1.6 3.6 0l-.1 4.2v4.9c0 1.4.4 3.6.2 5.3-.3 1.7-.3 4.2-.4 5.2v5c-.3 1.4.1 4 .4 4.8.3 1 0 1.6 0 3.6l.2 4.9Zm-3.7.2c0-1.6 3.7-1.6 3.7.2 0 2-.6 6.4-.5 7.5.1 1.1.8 4.2.8 5.2s-1 5.8-.7 7.9c.4 2 .2 2.6.2 4l-.3 5c0 1.4 1 2.6.7 4.3-.2 1.8.1 2.7.2 4 0 1.9-3.7 1.8-3.7 0s-.3-3-.2-4.4c0-1.5.4-2.8 0-4.2-.4-1.4 0-4.2.2-5.9.3-1.7.2-3.5 0-4.9-.3-2.6.3-9 0-10s0-3.9 0-5c0-1-.3-1.5-.4-3.7Zm3.2 48.4c-1.4 0-3.2-.3-3.4-2.4-.1-2 1.4-3.5 3.4-3.4 2 0 1.5 1.1 6.2 1.2 1.8.1 1.8 3.8 0 3.7-4.2-.1-3.7 1-6.2.9Zm24.4-5.1 1.2.1-2.9 2.7c.4-1.6 1.3-2.2 3-2.2 1.5 0 2.4 1 2.6 2.5l-2.9 2.6-1.2.1c-2.2 0-2-1.1-5.7-1.2-2 0-1.6-3.7 0-3.7 4 .1 3.4-1 5.9-1Zm-17.9.5c.7 0 1.7.6 2 .6.2 0 1-.3 1.5-.2.4.1.5.4 1.2.5a2 2 0 0 0 1.4-.3c.1 0 .6-.4 1.1-.3.8.2 1-.2 1.4 0 .5.4.6 0 1 .1.5.1.8 0 1.1.2.4.2.7-.3 1-.2.6 0 .5 3.7 0 3.7-.4 0-.7-.5-1-.5l-1 .2c-.3.2-1 0-1.6 0-.5 0-1.4.2-2 .1-.7 0-1-1-2.4-.4-.4.2-1.3 0-1.6 0l-2.2.2c-.6 0-.5-3.7.1-3.7Zm22 1.6c-.1 1.3-.4 3.1-2.4 3.3-2 .1-3.6-1.4-3.4-3.5 0-2 1.1-1.4 1.4-6.2 0-1.7 3.7-1.6 3.6.1-.2 4.3.9 3.8.8 6.3Zm-1.3-90.5c0-.4 0-.8.2-1.2l2.8-2.7c1.6.3 2.2 1.2 2.3 2.8 0 1.7-.8 2.6-2.3 2.9l2.8-2.7v1.2c0 2.2-1.2 2-1.3 5.7 0 2-3.8 1.5-3.7-.1.2-4-1-3.4-.8-5.9Zm-1.2 45.3c.1-1.8 3.8-2 3.7.1-.1 2.2-.7 6-.6 7.2l-.1 7c0 1-.8 4.6-.6 6.7.2 2-.5 4.1-.4 5.5.1 1.8-.1 2.8-.3 4.1-.1 1.4.5 3.6.2 4.7-.4 1.1 0 1.8-.2 3.4 0 1.6-3.7 1.4-3.6 0 0-1.6.2-3 .3-4.4l.4-5c.1-1.5-.2-3.7 0-5.5.4-1.7.6-4.2.7-5.2.1-1.2.2-4 .4-5 .3-1.5.1-4.1-.2-5-.2-1 .2-1.6.3-3.7v-5Zm0-.6c.1-2 .8-5.5.9-6.3v-5c.1-1.3.5-1.7.6-3.9.3-2.8 0-4.6 0-4.7-.1-.4-.4-1.8-.2-3.7.3-2.4 0-3.2.2-4.3.5-1.9.1-2.1.2-3.6.2-1.4 0-2.3.3-3.5.3-1.3-.1-2.2 0-3.4 0-1.8 3.7-1.5 3.7.3l-.6 3v3.3c.2 1-.2 3.3-.2 5.1l-.1 7c-.2 2-1.1 3.2-.8 7.5.1 1.4-.2 4.1-.2 5.3l-.1 7.3c-.1 2-3.8 1.7-3.7-.4Zm5.2-42.8c-1.4 0-3.2-.3-3.4-2.3-.3-2 1.2-3.6 3.3-3.6 2 0 1.4 1.1 6.2 1.2 1.8 0 1.9 3.6 0 3.6-4.2 0-3.6 1-6.1 1Zm407.7-5.4h1.3l2.8 2.8c-.3 1.6-1.2 2.3-2.8 2.4-1.6 0-2.5-.8-2.9-2.3l2.8 2.8-1.2.1c-2.2 0-2-1-5.8-1-2 0-1.6-3.7 0-3.7 4 0 3.4-1.1 5.8-1.1Zm-362.1.7c1.8 0 2.1 3.7 0 3.7-2.2 0-6.2-.4-7.3-.3l-7.1.3c-1 0-4.7-.6-6.8-.3-2.1.3-4.2-.3-5.7-.1-1.8.2-2.7 0-4.1 0-1.4-.2-3.6.6-4.7.3-1.2-.3-1.9 0-3.5 0-1.7 0-1.6-3.6 0-3.6l4.3.1 5 .1c1.6 0 3.9-.4 5.6-.2 1.8.3 4.3.4 5.3.4 1.3 0 4 0 5.2.2a14 14 0 0 0 5-.5c1-.3 1.7.2 3.8 0l5-.1Zm.5 0c2.2 0 5.6.5 6.5.5.8 0 3.6-.3 5-.2 1.3 0 1.8.4 4 .5 2.8 0 4.7-.3 4.8-.3.4-.2 1.8-.5 3.7-.4 2.5.1 3.3-.2 4.4 0 2 .4 2.1 0 3.6 0 1.5.1 2.4 0 3.6.2 1.3.2 2.2-.3 3.4-.2 2 0 1.7 3.6 0 3.6-1.1 0-2-.4-3.2-.4-1.1 0-2.1.1-3.2.3h-5.3l-7 .2c-2-.1-3.4-1-7.7-.4-1.4.2-4.2 0-5.3 0l-7.5.3c-2 0-1.9-3.7.2-3.7Zm78.6.1c1.8 0 2.1 3.7 0 3.7-2.2 0-6.2-.4-7.3-.3l-7.1.3c-1 0-4.7-.5-6.8-.2-2.1.3-4.2-.3-5.7-.2-1.8.2-2.8 0-4.1 0-1.4-.1-3.6.6-4.7.3-1.2-.3-1.9 0-3.5 0-1.7 0-1.7-3.6-.1-3.6l4.4.1 5 .2c1.6 0 3.9-.5 5.6-.2l5.3.3c1.3 0 4 0 5.2.2 1.5.2 4.1-.1 5-.4 1-.4 1.7 0 3.7 0l5-.2Zm.2 3.7c-1.6 0-1.7-3.7.3-3.7s6.5.7 7.7.6c1.1 0 4.4-.8 5.4-.8s6 1.1 8.1.8c2.1-.3 2.7-.1 4.2-.1l5.2.3c1.4 0 2.6-.9 4.4-.6 1.8.2 2.8-.1 4-.1 2.1 0 2 3.6.1 3.6-1.8 0-3 .3-4.6.2-1.5 0-2.8-.5-4.3 0-1.5.3-4.3-.1-6-.4-1.8-.2-3.7 0-5.1 0-2.8.4-9.5-.3-10.4 0-1 .3-4 0-5.1 0-1 0-1.6.2-3.9.2Zm39.9-3.6c2.1 0 5.5.5 6.4.5.8 0 3.7-.3 5-.2 1.3 0 1.8.4 4 .4a20 20 0 0 0 4.9-.3c.4-.1 1.7-.5 3.6-.3 2.6.1 3.3-.2 4.4 0 2 .4 2.2 0 3.6 0l3.6.1c1.3.3 2.3-.2 3.5-.2 1.9 0 1.7 3.7-.1 3.7-1 0-2-.4-3.2-.4-1 0-2 0-3.2.2-1.1.2-3.4 0-5.3 0-1.8.1-4.8.3-7 .2-2 0-3.4-1-7.7-.3h-5.3l-7.4.2c-2 0-2-3.6.2-3.6Zm78.5 0c1.8 0 2.2 3.7 0 3.7s-6.1-.3-7.3-.2l-7 .3c-1.1 0-4.8-.6-6.9-.3-2.1.3-4.2-.3-5.6-.1-1.8.2-2.8 0-4.2 0-1.4-.2-3.5.6-4.7.3-1.2-.4-1.8 0-3.5 0-1.6 0-1.6-3.7 0-3.7l4.3.2 5.1.1c1.5 0 3.8-.4 5.5-.2l5.4.4 5.1.1c1.5.3 4.1 0 5-.4 1-.3 1.7.1 3.8 0l5-.1Zm.6 0c2 0 5.5.6 6.4.6.8 0 3.7-.3 5-.2 1.3 0 1.8.3 4 .4a20 20 0 0 0 4.8-.3c.4-.1 1.8-.5 3.7-.4 2.5.2 3.3-.2 4.4 0 2 .4 2.1 0 3.6 0 1.5.2 2.4 0 3.6.2 1.3.2 2.3-.3 3.4-.2 2 0 1.8 3.7 0 3.7-1 0-2-.4-3.2-.4-1.1 0-2 0-3.2.2-1.1.2-3.4 0-5.3 0-1.8 0-4.8.3-7 .2-2 0-3.4-1-7.7-.4-1.4.2-4.2 0-5.3 0l-7.4.3c-2 0-2-3.6.2-3.6Zm39.2 3.8c-1.7 0-1.7-3.7.2-3.7 2 0 6.6.6 7.7.6 1.2-.1 4.4-.8 5.5-.8 1 0 6 1 8 .8 2.2-.3 2.8-.2 4.3-.2l5.1.3c1.4.1 2.7-.9 4.5-.6 1.8.3 2.8-.1 4-.1 2 0 2 3.7 0 3.7-1.7 0-3 .2-4.5.1-1.5 0-2.9-.4-4.3 0-1.5.3-4.3 0-6-.3-1.8-.3-3.8-.2-5.2 0-2.7.3-9.4-.4-10.3 0-1 .2-4 0-5.1 0-1 0-1.7.2-3.9.2Zm39.9-3.7c2 0 5.5.5 6.4.5.8 0 3.6-.3 5-.2 1.3 0 1.8.4 4 .4 2.8.1 4.7-.2 4.8-.3.4 0 1.8-.5 3.7-.3 2.5.1 3.3-.2 4.4 0 2 .4 2.1 0 3.6 0l3.6.1c1.3.3 2.2-.2 3.4-.2 2 0 1.7 3.7 0 3.7-1.1 0-2-.4-3.2-.4-1.1 0-2.1 0-3.2.2-1.2.2-3.5 0-5.3 0-1.8.1-4.9.3-7 .2-2 0-3.4-.9-7.7-.3-1.4.2-4.2 0-5.3 0l-7.5.3c-2 0-1.9-3.7.3-3.7Zm39.2 3.7c-1.7 0-1.7-3.7.2-3.7 2 0 6.5.7 7.7.6 1.2 0 4.4-.8 5.5-.8 1 0 6 1.1 8 .8 2.2-.3 2.8-.1 4.3-.1l5.1.3c1.4 0 2.7-1 4.5-.7 1.8.3 2.8 0 4 0 2 0 2 3.6 0 3.6l-4.5.2c-1.6-.1-2.9-.5-4.3-.1-1.5.4-4.3 0-6-.3-1.8-.2-3.8-.1-5.2 0-2.7.3-9.4-.3-10.4 0s-4 0-5 0c-1.1 0-1.7.2-4 .2Zm43.9-.8c0-1.4.2-3.2 2.2-3.4 2-.3 3.6 1.2 3.6 3.2s-1.1 1.5-1 6.3c0 1.7-3.7 1.9-3.7 0 0-4.2-1.1-3.6-1.1-6.1ZM925.2 977l-.1 1.2-2.7-2.7c1.5.3 2.2 1.2 2.2 2.8 0 1.7-1 2.5-2.5 2.8l-2.7-2.8v-1.2c-.1-2.2 1-2.1 1-5.8-.1-2 3.6-1.7 3.6 0 0 3.8 1.1 3.2 1.2 5.7Zm-9-650.6c.1 2.3-.3 6-.3 7 0 .9.3 4 .2 5.4 0 1.5-.3 2-.4 4.4 0 3.1.4 5.1.4 5.3.1.4.5 1.9.4 4 0 2.7.3 3.5.1 4.7-.4 2.2 0 2.4 0 4v3.9c-.3 1.4.2 2.4.2 3.7 0 2-3.7 1.9-3.7 0 0-1.2.4-2.3.3-3.5 0-1.2 0-2.3-.2-3.5-.2-1.2 0-3.7 0-5.7-.2-2-.5-5.3-.4-7.6 0-2.3.9-3.7.3-8.4-.2-1.5-.1-4.6-.1-5.8 0-2.1-.4-6.3-.4-8 0-2.2 3.6-2.2 3.7.1Zm-3.1 42.7c0-1.8 3.7-1.9 3.7.2 0 2.3-.6 7.1-.5 8.4 0 1.3.8 4.8.8 5.9 0 1.1-1 6.5-.6 8.8.3 2.3.2 3 .2 4.6l-.3 5.6c0 1.5 1 2.9.7 4.8-.2 2 .2 3.1.2 4.5 0 2.2-3.6 2-3.7 0l-.2-5c0-1.6.4-3 0-4.7-.4-1.5 0-4.6.2-6.5.2-2 .1-4 0-5.6-.4-3 .2-10.2-.1-11.3-.4-1-.1-4.3-.1-5.5 0-1.1-.3-1.8-.3-4.2Zm4.7 85.7c0 2-3.6 2.4-3.7 0 0-2.3.3-6.7.2-8l-.4-7.6c0-1.1.5-5.1.2-7.4-.4-2.3.2-4.6 0-6.2-.2-2 0-3 0-4.5.1-1.5-.7-3.8-.4-5.1.3-1.3 0-2 0-3.8 0-1.8 3.6-1.8 3.6-.1l-.1 4.8v5.5c0 1.6.4 4 .2 6a80 80 0 0 0-.3 5.8v5.6c-.3 1.7.1 4.5.4 5.5.4 1 0 1.8 0 4 .1 1.3.3 3.5.3 5.5Zm0 .6c0 2.3-.4 6-.4 7l.3 5.4c0 1.5-.4 2-.4 4.4 0 3.1.3 5.1.4 5.2 0 .5.5 2 .4 4-.1 2.8.2 3.6 0 4.8-.3 2.1 0 2.3 0 4v3.9c-.2 1.4.2 2.4.2 3.7 0 2-3.6 1.9-3.7 0 0-1.2.4-2.3.4-3.5 0-1.2-.1-2.3-.3-3.5v-5.7c-.1-2-.4-5.3-.3-7.6 0-2.3.8-3.7.2-8.4-.2-1.6 0-4.6 0-5.8l-.4-8c0-2.2 3.6-2.2 3.6 0Zm-3.2 42.7c0-1.8 3.7-1.9 3.7.2 0 2.2-.5 7.1-.5 8.4.1 1.3.9 4.8.9 5.9 0 1.1-1 6.5-.7 8.8.4 2.3.2 3 .2 4.6l-.2 5.6c0 1.5 1 2.9.7 4.8-.3 2 .1 3 .1 4.5 0 2.1-3.6 2-3.6 0s-.3-3.3-.2-5c0-1.6.4-3 0-4.7-.4-1.5 0-4.6.2-6.5.2-2 0-4-.1-5.6-.4-3 .2-10.2 0-11.3-.4-1-.2-4.3-.2-5.5l-.3-4.2Zm4.8 85.7c0 2-3.7 2.4-3.7 0l.2-8-.4-7.6c0-1.1.4-5.1.1-7.4-.3-2.3.3-4.6 0-6.2-.2-2 0-3 0-4.5.1-1.5-.6-3.8-.3-5.1.3-1.3-.1-2-.1-3.8 0-1.8 3.6-1.8 3.6-.1v4.8l-.1 5.5c0 1.6.5 4 .3 6-.2 1.9-.3 4.7-.3 5.8l-.1 5.6c-.2 1.6.2 4.5.5 5.5s-.1 1.8 0 4l.3 5.5Zm-3.7.3c0-1.8 3.6-1.9 3.7.2 0 2.2-.6 7.1-.5 8.4 0 1.3.8 4.8.8 5.9 0 1.1-1 6.5-.6 8.8.3 2.3.1 3 .2 4.6l-.3 5.6c0 1.5 1 2.9.7 4.8-.2 2 .2 3 .2 4.4 0 2.2-3.7 2.2-3.7.1 0-2-.3-3.3-.2-5 0-1.6.4-3 0-4.7-.4-1.6 0-4.6.2-6.5.2-2 0-4-.1-5.6-.3-3 .3-10.2 0-11.3-.4-1-.1-4.3-.1-5.5 0-1.2-.3-1.8-.3-4.2Zm4.2 43.3c0 2.3-.4 6-.4 7 0 .9.3 4 .2 5.4 0 1.5-.3 2-.4 4.4 0 3 .4 5 .4 5.2.2.5.5 2 .4 4 0 2.8.3 3.6.1 4.8-.4 2.1 0 2.3 0 4v3.8c-.3 1.5.2 2.5.2 3.8 0 2-3.7 1.9-3.7 0 0-1.2.4-2.3.4-3.5a28 28 0 0 0-.3-3.5c-.2-1.2 0-3.7 0-5.7-.2-2-.4-5.3-.4-7.6s.9-3.8.3-8.5c-.2-1.5-.1-4.5-.1-5.7 0-2.2-.4-6.3-.4-8.1 0-2.1 3.7-2.1 3.7.2Zm1 85.4c0 2-3.6 2.3-3.7 0 0-2.3.3-6.7.2-8a254 254 0 0 1-.4-7.6c0-1.1.5-5.1.1-7.4-.3-2.3.3-4.6.1-6.2-.2-2 0-3 0-4.5s-.7-3.8-.4-5.1c.3-1.3 0-2 0-3.8-.1-1.8 3.6-1.8 3.6-.1l-.1 4.8v5.5c0 1.6.4 4 .2 6-.2 1.9-.3 4.7-.3 5.8v5.6c-.3 1.6.1 4.5.4 5.5.4 1 0 1.7 0 4 .1 1.3.3 3.5.3 5.5Zm0 .6c0 2.3-.4 6-.4 7l.3 5.4c0 1.5-.4 2-.4 4.4 0 3 .3 5 .4 5.2 0 .5.5 2 .4 4-.1 2.8.2 3.6 0 4.8-.3 2.1 0 2.3 0 4v3.8c-.3 1.5.2 2.5.2 3.8 0 2-3.6 1.9-3.7 0 0-1.2.4-2.3.4-3.5a28 28 0 0 0-.3-3.5c-.2-1.2 0-3.7 0-5.7-.2-2-.4-5.3-.4-7.6s1-3.8.3-8.5c-.2-1.5 0-4.5 0-5.7l-.5-8.1c0-2.1 3.7-2.1 3.7.2Zm1 85.4c0 2-3.6 2.3-3.6 0 0-2.4.2-6.7.1-8l-.4-7.6c0-1.1.5-5.1.2-7.4-.4-2.3.2-4.6 0-6.2-.2-2 0-3 0-4.5.1-1.5-.6-3.8-.4-5.1.3-1.3 0-2 0-3.8 0-1.8 3.6-1.8 3.6-.1v4.8c-.1 1.6-.2 3.7-.1 5.5 0 1.6.5 4 .2 6-.2 1.9-.2 4.7-.3 5.8 0 1.4.2 4.3 0 5.6-.3 1.6.1 4.5.5 5.5.3 1-.1 1.7 0 4l.2 5.5Zm-3.7.3c0-1.8 3.7-1.9 3.7.2 0 2.2-.5 7.1-.4 8.4 0 1.2.8 4.8.8 5.9 0 1-1 6.5-.7 8.8.4 2.3.2 3 .2 4.6l-.2 5.6c0 1.5 1 2.8.7 4.8-.2 2 .1 3 .1 4.4 0 2.2-3.6 2.1-3.6.1s-.3-3.3-.2-5c0-1.7.4-3.1 0-4.7s0-4.6.2-6.6c.2-1.9 0-4-.1-5.5-.4-3 .2-10.2 0-11.3-.4-1-.1-4.3-.2-5.5l-.3-4.2Zm4.3 43.3c0 2.3-.5 6-.5 7 0 .9.4 4 .3 5.4 0 1.5-.3 2-.4 4.4 0 3 .4 5 .4 5.2.1.5.5 2 .4 4 0 2.8.3 3.6.1 4.8-.4 2.1 0 2.3 0 4l-.1 3.8c-.2 1.4.3 2.5.3 3.8 0 2-3.7 1.9-3.7 0 0-1.2.3-2.3.3-3.5 0-1.2 0-2.3-.2-3.5-.2-1.2 0-3.7-.1-5.7s-.4-5.3-.3-7.6c0-2.3.9-3.8.3-8.5-.2-1.5-.1-4.5-.1-5.7 0-2.2-.4-6.3-.4-8.1 0-2.1 3.6-2.1 3.7.2Zm1 85.3c0 2-3.7 2.4-3.7 0 0-2.3.3-6.6.2-7.9l-.4-7.6c0-1.1.5-5.1.1-7.4-.3-2.3.3-4.6 0-6.2-.1-2 0-3 .1-4.5 0-1.5-.7-3.9-.4-5.1.3-1.3 0-2-.1-3.8 0-1.8 3.6-1.8 3.7-.2l-.1 4.8-.1 5.6c0 1.6.5 4 .3 6a78 78 0 0 0-.3 5.8v5.6c-.3 1.6 0 4.5.4 5.5.3 1 0 1.7 0 4 0 1.3.3 3.5.3 5.4Zm0 .7c0 2.3-.4 6-.4 7 0 .9.3 4 .2 5.4 0 1.5-.3 2-.3 4.4-.1 3 .3 5 .3 5.2.2.5.5 2 .5 4-.2 2.8.2 3.6 0 4.8-.4 2.1 0 2.3 0 4v3.8c-.3 1.4.2 2.5.2 3.8 0 2-3.7 1.9-3.7 0 0-1.2.4-2.3.4-3.5 0-1.2-.1-2.3-.3-3.5-.2-1.3 0-3.8 0-5.7-.2-2-.4-5.3-.4-7.6s1-3.8.3-8.5c-.2-1.5 0-4.5-.1-5.7 0-2.2-.4-6.3-.4-8.1 0-2.2 3.7-2.1 3.7.2Zm-.4 52.8c-1.3 0-3.1-.4-3.3-2.4-.1-2 1.4-3.5 3.4-3.4 2 0 1.5 1.2 6.2 1.4 1.8 0 1.7 3.7 0 3.6-4.3-.2-3.8 1-6.3.8Zm35.6-4.3 1.2.1-2.9 2.8c.3-1.6 1.2-2.2 2.8-2.3 1.6 0 2.5.9 2.8 2.4l-2.9 2.8h-1.2c-2.2 0-2-1.2-5.8-1.3-2 0-1.4-3.7.2-3.7 3.9.2 3.4-1 5.8-.8Zm-6.2.8c1 0 1.1 3.7-.1 3.7-1.3 0-3.6-.5-4.3-.5l-4.1.2c-.6 0-2.7-.7-4-.4-1.2.2-2.4-.4-3.3-.3-1 .1-1.6 0-2.4-.2-.8-.1-2 .6-2.7.3-.7-.4-1.1 0-2 0-1-.1-.9-3.8 0-3.7 1 0 1.7 0 2.6.2l3 .3c.8 0 2.2-.4 3.2-.1 1 .3 2.5.4 3 .5.8 0 2.4 0 3 .2a5 5 0 0 0 3-.3c.6-.2 1 .2 2.2.2l3-.1Zm10.2 1.2c0 1.3-.2 3.1-2.2 3.4-2 .2-3.6-1.3-3.6-3.4 0-2 1.1-1.4 1.2-6.2 0-1.8 3.6-1.8 3.6 0 0 4.2 1 3.7 1 6.2Zm-.5-660.2v-1.3l3-2.8c1.5.3 2.2 1.3 2.2 2.8 0 1.7-.8 2.6-2.3 2.9l2.8-2.8.1 1.2c0 2.2-1 2-1 5.8 0 2-3.8 1.6-3.8 0 0-4-1-3.4-1-5.8Zm-.5 653.8c0 1.9-3.7 1.9-3.7-.3 0-2.2.8-7 .7-8.3 0-1.3-.7-4.9-.7-6 0-1.1 1.1-6.5.8-8.8-.3-2.4-.1-3 0-4.6l.3-5.7c0-1.5-1-2.9-.6-4.8.2-2-.1-3.1-.1-4.5 0-2.2 3.7-2 3.7 0s.2 3.4 0 5c0 1.7-.4 3.2 0 4.8.3 1.6-.1 4.6-.4 6.6-.2 1.9-.1 4 0 5.5.3 3-.4 10.3-.1 11.4.3 1 0 4.3 0 5.5 0 1.2.2 1.8.1 4.2Zm-3.3-43.5c0-2.3.5-6.1.5-7 0-1-.2-4-.1-5.5 0-1.5.4-2 .5-4.4 0-3-.3-5.1-.3-5.3-.1-.4-.5-1.9-.4-4 .2-2.7-.1-3.6 0-4.8.5-2.1.1-2.3.2-4l.1-3.8c.3-1.5-.2-2.5-.2-3.8 0-2 3.7-1.8 3.7.1 0 1.2-.4 2.2-.4 3.5 0 1.2 0 2.3.2 3.5v5.7c0 2 .2 5.4.1 7.7 0 2.3-1 3.7-.4 8.4v5.8l.2 8.1c0 2.2-3.7 2.1-3.7-.2Zm4-42.8c0 1.8-3.7 1.8-3.7-.3 0-2.3.8-7.1.7-8.4 0-1.3-.7-4.9-.7-6 0-1 1-6.5.8-8.8-.3-2.3-.1-3-.1-4.6 0-1.6.3-4.1.4-5.6 0-1.6-1-3-.7-5 .3-2 0-3 0-4.4 0-2.2 3.7-2 3.6 0 0 2 .3 3.4.2 5-.1 1.7-.5 3.2-.1 4.8.3 1.6-.1 4.7-.4 6.6-.2 1.9-.1 4 0 5.5.3 3-.5 10.3-.1 11.4.3 1 0 4.3 0 5.5l.1 4.3Zm-3-86.2c0-2 3.7-2.3 3.7 0 0 2.4-.4 6.8-.3 8l.2 7.8c0 1-.6 5-.3 7.4.3 2.3-.3 4.6-.2 6.2.2 2 0 3 0 4.5-.2 1.5.5 3.9.2 5.2-.3 1.2 0 2 0 3.8 0 1.8-3.6 1.7-3.6 0s0-3.1.2-4.8l.2-5.5c0-1.7-.5-4.2-.2-6l.4-5.9c0-1.4 0-4.4.2-5.6.3-1.7-.1-4.5-.4-5.5-.3-1.1.1-1.8 0-4V800Zm0-.6c0-2.3.6-6 .6-7s-.3-4-.2-5.5c.1-1.4.4-2 .5-4.4.1-3-.2-5-.3-5.2-.1-.5-.4-2-.3-4 .2-2.8-.2-3.6 0-4.9.4-2 0-2.3.1-3.9s0-2.6.2-4c.2-1.3-.3-2.4-.2-3.7 0-2 3.7-1.8 3.6.1 0 1.2-.4 2.3-.4 3.5 0 1.2 0 2.3.2 3.5.2 1.3 0 3.8 0 5.8s.2 5.3.1 7.6c0 2.3-1 3.7-.4 8.5.2 1.5 0 4.5 0 5.7l.2 8.2c0 2.1-3.7 2-3.7-.3Zm4-42.8c0 1.8-3.6 1.8-3.6-.3 0-2.2.7-7.1.6-8.4 0-1.3-.7-4.8-.7-6 0-1 1.1-6.5.8-8.8-.3-2.3 0-3 0-4.6l.3-5.6c0-1.5-.9-3-.6-4.9.3-2-.1-3 0-4.4 0-2.2 3.6-2 3.6 0s.2 3.3.1 5c0 1.7-.5 3.1-.1 4.7s0 4.7-.3 6.6c-.3 2-.2 4 0 5.6.2 3-.5 10.3-.2 11.3s0 4.4 0 5.5c0 1.2.2 1.9.2 4.3Zm-3.3-43.6c0-2.3.6-6 .6-7 0-.9-.3-4-.2-5.5.1-1.4.4-1.9.5-4.4.1-3-.2-5-.3-5.2-.1-.4-.5-2-.3-4 .1-2.8-.2-3.6 0-4.8.4-2.2 0-2.4.1-4l.1-3.9c.3-1.4-.2-2.4-.1-3.7 0-2.1 3.7-1.9 3.6 0 0 1.2-.4 2.3-.4 3.5 0 1.2 0 2.3.2 3.5.2 1.3 0 3.8 0 5.8s.2 5.3.1 7.6c0 2.3-1 3.7-.4 8.5.2 1.5 0 4.5 0 5.8l.2 8c0 2.2-3.7 2.2-3.7-.2Zm.7-85.7c0-2 3.7-2.4 3.7 0s-.4 6.7-.4 8l.3 7.7c0 1.1-.6 5.1-.3 7.4.3 2.4-.3 4.6-.2 6.2.2 2 0 3-.1 4.6 0 1.5.6 3.8.3 5.1-.3 1.3 0 2 0 3.8 0 1.8-3.6 1.8-3.6 0l.1-4.7.2-5.6c0-1.6-.4-4.1-.1-6l.4-5.8c0-1.4 0-4.4.2-5.7.2-1.6-.1-4.5-.4-5.5-.3-1 .1-1.8 0-4l-.1-5.5Zm0-.6c0-2.4.5-6.1.6-7 0-1-.3-4-.2-5.5 0-1.5.4-2 .5-4.4.1-3.1-.2-5.1-.3-5.3-.1-.4-.5-2-.3-4 .1-2.8-.2-3.6 0-4.8.4-2.1 0-2.3 0-4 .2-1.6 0-2.6.2-3.9.3-1.4-.2-2.4-.2-3.7 0-2 3.7-1.9 3.7 0 0 1.2-.4 2.3-.4 3.5 0 1.3 0 2.3.2 3.6.2 1.2-.1 3.7 0 5.7 0 2 .2 5.3.1 7.6 0 2.3-1 3.8-.4 8.5v5.8l.2 8.1c0 2.2-3.7 2-3.7-.2Zm4-42.9c0 1.8-3.7 1.9-3.6-.3 0-2.2.7-7 .6-8.4 0-1.2-.7-4.8-.7-6 0-1 1.1-6.4.8-8.8-.3-2.3-.1-3 0-4.5l.3-5.7c0-1.5-1-2.9-.6-4.9.2-2-.1-3-.1-4.4 0-2.2 3.7-2 3.7 0s.2 3.4 0 5c0 1.7-.4 3.1 0 4.7.3 1.6-.1 4.7-.4 6.6-.2 2-.1 4 0 5.6.3 3-.4 10.3-.1 11.3.3 1 0 4.4 0 5.6 0 1.2.2 1.8.1 4.2Zm-3.3-43.5c0-2.3.5-6.1.5-7 0-1-.2-4-.1-5.5 0-1.5.4-2 .5-4.4 0-3.1-.3-5.1-.3-5.3-.1-.4-.5-1.9-.4-4 .2-2.7-.1-3.6 0-4.8.5-2.1.1-2.3.2-4l.1-3.9c.3-1.4-.2-2.4-.2-3.7 0-2 3.7-1.8 3.7.1 0 1.2-.4 2.2-.4 3.4 0 1.3 0 2.3.2 3.6v5.7c0 2 .2 5.3.1 7.7 0 2.3-1 3.7-.4 8.4v5.8l.2 8.1c0 2.2-3.7 2-3.7-.2Zm4-42.8c0 1.8-3.7 1.8-3.7-.3 0-2.3.8-7.2.7-8.4 0-1.3-.7-4.9-.7-6 0-1.1 1-6.5.8-8.8-.3-2.3-.1-3-.1-4.6 0-1.6.3-4.1.4-5.7 0-1.5-1-2.8-.6-4.8.2-2-.1-3.1-.1-4.5 0-2.2 3.7-2 3.6 0 0 2 .3 3.4.2 5-.1 1.7-.5 3.2-.1 4.8.3 1.6-.1 4.7-.4 6.6-.2 1.9-.1 4 0 5.5.3 3-.4 10.3-.1 11.4.3 1 0 4.3 0 5.5l.1 4.3Zm-3-86.2c0-2 3.7-2.3 3.7 0 0 2.4-.4 6.8-.3 8l.2 7.8c0 1-.6 5-.3 7.4.3 2.3-.3 4.6-.2 6.2.2 2 0 3 0 4.5-.2 1.5.6 3.9.2 5.2-.3 1.2 0 2 0 3.7 0 1.8-3.6 1.8-3.6.1s0-3.1.2-4.8l.2-5.5c0-1.7-.5-4.2-.2-6l.4-5.9c0-1.4 0-4.4.2-5.6.3-1.7 0-4.5-.4-5.6-.3-1 .1-1.7 0-4v-5.5Zm0-.6c0-2.3.6-6 .6-7s-.3-4-.2-5.5c.1-1.4.4-2 .5-4.4.1-3-.2-5-.3-5.2 0-.5-.4-2-.3-4 .2-2.8-.2-3.6 0-4.9.4-2 0-2.3.1-3.9s0-2.6.2-4c.2-1.3-.3-2.4-.2-3.7 0-2 3.7-1.8 3.7.1 0 1.2-.5 2.2-.5 3.5 0 1.2 0 2.3.2 3.5.2 1.2 0 3.8 0 5.7 0 2 .2 5.4.1 7.7 0 2.3-1 3.7-.4 8.4.2 1.6 0 4.6 0 5.8l.2 8.2c0 2.1-3.7 2-3.7-.3Zm4-42.8c0 1.8-3.6 1.8-3.6-.3 0-2.3.7-7.1.6-8.4 0-1.3-.7-4.8-.7-6 0-1 1.1-6.5.8-8.8-.2-2.3 0-3 0-4.6l.3-5.6c0-1.6-.9-3-.6-4.9.3-2-.1-3 0-4.4 0-2.2 3.6-2 3.6 0s.2 3.3.1 5c0 1.7-.5 3.1-.1 4.7s0 4.7-.3 6.6c-.3 2-.2 4 0 5.5.2 3-.5 10.3-.2 11.4.3 1 0 4.3 0 5.5 0 1.2.2 1.8.2 4.3Zm-.4-47.5c-1.4 0-3.2-.3-3.4-2.3-.2-2 1.2-3.6 3.3-3.6 2 0 1.4 1.2 6.2 1.2 1.8 0 1.9 3.7 0 3.7-4.2 0-3.6 1-6.1 1Zm171.2-4.8 1.2.1 2.8 2.6c-.1 1.6-1 2.3-2.5 2.5-1.6.2-2.6-.6-3-2l2.7 2.5-1.2.2c-2.2 0-2.1-1.2-5.8-1.2-2 0-1.6-3.6 0-3.6 4 0 3.3-1.1 5.8-1Zm-125.4.3c1.8 0 2.1 3.7 0 3.7-2.2 0-6.2-.4-7.4-.3l-7 .2c-1.1 0-4.8-.5-7-.2-2 .3-4.1-.4-5.6-.2-1.8.2-2.8 0-4.2-.1-1.4 0-3.5.6-4.7.3-1.2-.3-1.8 0-3.5 0-1.6 0-1.6-3.6 0-3.6a110.7 110.7 0 0 0 9.5.3c1.5 0 3.8-.4 5.5-.2 1.8.3 4.3.4 5.4.4 1.2 0 4 0 5.2.2 1.5.3 4 0 5-.4 1-.3 1.7.1 3.7 0h5Zm.6 0c2 0 5.6.5 6.4.6.8 0 3.7-.3 5-.2 1.4 0 1.8.4 4.1.5 2.8 0 4.7-.3 4.8-.3.4-.2 1.8-.5 3.7-.4 2.5.2 3.3-.2 4.4 0 2 .5 2.2 0 3.7.1s2.4 0 3.6.2c1.3.2 2.2-.3 3.4-.2 2 0 1.7 3.7 0 3.6-1.2 0-2.1-.4-3.2-.4-1.2 0-2.2 0-3.3.2-1.1.2-3.4 0-5.3 0-1.8 0-4.9.3-7 .2-2.1-.1-3.4-1-7.8-.4h-5.3l-7.5.2c-2 0-1.9-3.7.3-3.7Zm78.8.5c1.9 0 2.2 3.7 0 3.7s-6.2-.4-7.3-.3l-7.1.2c-1 0-4.7-.5-6.9-.2-2.1.2-4.2-.4-5.6-.2-1.9.2-2.8 0-4.2-.1-1.4-.1-3.6.6-4.8.3-1.1-.3-1.8 0-3.5 0-1.6 0-1.6-3.6 0-3.6l4.4.1 5.1.2c1.5 0 3.8-.4 5.6-.2 1.7.3 4.3.4 5.3.4 1.3 0 4 0 5.2.2 1.5.3 4.1 0 5-.4 1-.3 1.7.1 3.8 0h5Zm.3 3.7c-1.7 0-1.7-3.7.2-3.7 2 0 6.6.7 7.8.6 1.1 0 4.4-.7 5.4-.7s6 1.1 8.2.8c2-.3 2.7-.1 4.2 0l5.2.2c1.4.1 2.6-.8 4.4-.6 1.9.3 2.9 0 4.1 0 2 0 2 3.6 0 3.6l-4.6.2c-1.5-.1-2.9-.5-4.3-.1-1.5.3-4.3-.1-6-.4-1.9-.2-3.8-.1-5.2 0-2.8.3-9.5-.4-10.4 0-1 .2-4-.1-5.1-.1-1.1 0-1.7.2-4 .2Zm44.1-.3c-.1-1.4 0-3.2 2-3.6 2-.4 3.6.9 3.8 3 .2 2-1 1.5-.5 6.2.2 1.8-3.5 2.2-3.6.5-.4-4.3-1.4-3.6-1.7-6.1Zm24.5 191.7v1.2l-2.8-2.5c1.6.2 2.2 1.2 2.3 2.7 0 1.7-.8 2.6-2.3 2.9l-2.8-2.5a6 6 0 0 1-.2-1.2c-.3-2.2.9-2.2.5-5.9-.2-2 3.5-2 3.6-.4.4 4 1.4 3.2 1.7 5.7Zm-15.7-150.1c.2 1.7-3.4 2.3-3.6.3-.2-2-.2-5.6-.4-6.6l-1-6.4c0-1 .2-4.4-.3-6.3-.5-1.9 0-3.8-.4-5.1-.3-1.6-.2-2.6-.3-3.8 0-1.3-1-3.2-.7-4.3.2-1-.2-1.6-.4-3.1-.1-1.5 3.5-1.9 3.6-.5l.3 4 .3 4.7c.1 1.4.8 3.4.7 5l.1 4.9c0 1.2.4 3.6.3 4.7-.1 1.4.5 3.7.9 4.6.4.8 0 1.5.3 3.3.1 1.1.5 3 .6 4.6Zm0 .5c.3 2 0 5.1.1 5.9.1.8.7 3.3.7 4.5 0 1.3-.2 1.7-.1 3.8.2 2.5.7 4.2.7 4.3.2.4.7 1.6.7 3.3.1 2.3.5 3 .5 4-.3 1.8.1 2 .2 3.3 0 1.4.3 2.2.2 3.3-.1 1.2.4 2 .5 3 .2 1.8-3.5 2-3.7.4 0-1 .3-1.9.2-3-.1-1-.3-1.8-.6-2.8-.2-1-.2-3.2-.4-4.8l-.9-6.4c0-1.9.7-3.2-.3-7-.3-1.3-.4-3.9-.5-4.9-.1-1.8-.7-5.2-.9-6.7-.2-1.8 3.5-2.1 3.7-.2Zm-.1 36c-.2-1.4 3.5-1.8 3.7 0v7c.2 1 1.2 4 1.3 4.9.1 1-.5 5.5 0 7.4.4 2 .3 2.5.5 3.8l.1 4.8c0 1.3 1.1 2.3 1 4 0 1.7.4 2.5.5 3.7.2 1.8-3.5 2-3.6.3-.2-1.6-.5-2.7-.6-4.1 0-1.4.2-2.7-.3-4-.5-1.3-.4-3.9-.3-5.5.1-1.6-.2-3.4-.5-4.6-.5-2.5-.4-8.6-.8-9.5-.4-.8-.4-3.6-.5-4.6 0-1-.3-1.5-.5-3.5Zm7.2 36v5.9l.7 4.5c0 1.3-.2 1.7-.1 3.8.1 2.5.7 4.2.7 4.3.2.4.7 1.6.7 3.3.1 2.3.5 3 .5 4-.3 1.8.1 2 .2 3.3 0 1.4.3 2.2.2 3.3-.1 1.2.4 2 .5 3 .2 1.8-3.5 2-3.7.4 0-1 .2-1.9.1-3 0-1-.2-1.8-.5-2.8-.2-1-.2-3.2-.4-4.8-.3-1.7-.8-4.4-.9-6.4 0-2 .7-3.2-.3-7-.3-1.3-.4-3.9-.5-4.9-.1-1.8-.8-5.2-1-6.7 0-1.8 3.6-2.1 3.8-.2Zm-.2 36c-.2-1.4 3.5-1.8 3.6 0 .2 1.8 0 6 .1 7 .2 1 1.2 4 1.3 4.9 0 1-.5 5.5 0 7.4.4 2 .3 2.5.5 3.8l.1 4.8c0 1.2 1.1 2.3 1 4 0 1.7.4 2.5.5 3.7.2 1.8-3.5 2-3.6.3-.2-1.6-.5-2.7-.6-4.1 0-1.4.2-2.7-.3-4-.5-1.3-.4-3.9-.3-5.5 0-1.6-.2-3.4-.5-4.6-.5-2.5-.4-8.7-.8-9.5-.4-.8-.4-3.6-.5-4.6 0-1-.4-1.5-.5-3.5Zm7 46c-1.4 0-3.2-.2-3.4-2.2-.3-2 1.2-3.6 3.3-3.6 2 0 1.4 1 6.2 1 1.8 0 1.9 3.7 0 3.7-4.2 0-3.6 1-6.1 1Zm478.5-7.3 1.2.1-2.8 2.5c.5-1.5 1.5-2 3-2 1.7.2 2.5 1.2 2.6 2.7l-2.8 2.5a6 6 0 0 1-1.2 0c-2.2 0-2-1-5.8-1-2 0-1.6-3.6 0-3.7 3.9 0 3.3-1 5.8-1Zm-430.1 2.4c2 0 2.3 3.7 0 3.7l-7.8-.3-7.6.4c-1 0-5-.6-7.3-.2-2.3.3-4.5-.3-6-.2-2 .2-3 0-4.5 0-1.5-.1-3.8.6-5 .3-1.3-.3-2 .1-3.8.1-1.7 0-1.7-3.6 0-3.7l4.6.2h5.5c1.6 0 4-.4 5.9-.1l5.7.3 5.6.1a16 16 0 0 0 5.4-.4c1-.3 1.7.1 4 0l5.3-.2Zm.6 0c2.3 0 6 .5 6.9.5.9 0 4-.3 5.4-.2 1.4 0 1.9.3 4.3.4 3 0 5-.3 5.1-.3a12 12 0 0 1 4-.4c2.7.1 3.5-.2 4.7 0 2 .3 2.3 0 3.9 0l3.8.1c1.4.2 2.4-.2 3.7-.2 2 0 1.8 3.7 0 3.7-1.2 0-2.2-.4-3.4-.4-1.3 0-2.3 0-3.5.2-1.2.2-3.7 0-5.7 0l-7.4.3c-2.3 0-3.7-1-8.3-.4-1.5.2-4.5 0-5.7 0-2.1 0-6.2.4-8 .4-2.1 0-2-3.7.2-3.7Zm84.2-.3c2 0 2.3 3.7 0 3.7s-6.6-.3-7.9-.2l-7.5.3c-1.1 0-5-.5-7.3-.2s-4.5-.3-6-.1c-2 .2-3 0-4.6 0-1.4-.2-3.7.6-5 .3-1.2-.3-2 0-3.7 0-1.8 0-1.8-3.6-.1-3.6l4.7.1 5.4.1c1.7 0 4-.4 6-.2l5.7.4h5.5c1.6.3 4.4 0 5.4-.4 1-.3 1.8.1 4 0l5.4-.1Zm.3 3.7c-1.8 0-1.9-3.6.2-3.6 2.2 0 7 .6 8.3.5 1.2 0 4.7-.8 5.8-.8 1 0 6.4 1 8.7.8 2.2-.4 2.9-.2 4.5-.2l5.5.3c1.5 0 2.8-1 4.8-.7 2 .3 3 0 4.3 0 2.2 0 2 3.6 0 3.6l-4.9.2c-1.6-.1-3-.5-4.6-.1-1.5.4-4.6 0-6.5-.2-1.8-.3-4-.2-5.4 0-3 .3-10.1-.4-11.1 0-1 .3-4.3 0-5.5 0-1.1 0-1.8.2-4.1.2Zm84.4-3.9c2 0 2.4 3.7 0 3.7-2.3 0-6.5-.4-7.8-.3l-7.6.4c-1 0-5-.6-7.3-.3-2.2.4-4.5-.2-6 0-2 .1-3 0-4.5-.1s-3.8.6-5 .3c-1.3-.3-2 0-3.7 0-1.8.1-1.8-3.6-.2-3.6 1.7 0 3.1 0 4.8.2h5.4c1.6 0 4-.4 6-.2 1.8.3 4.5.4 5.6.4l5.6.1a16 16 0 0 0 5.4-.4c1-.3 1.7 0 4 0l5.3-.2Zm.3 3.7c-1.8 0-1.8-3.7.3-3.7 2.2 0 7 .6 8.2.6 1.3-.1 4.7-.8 5.8-.8 1.1 0 6.4 1 8.7.7 2.3-.3 3-.1 4.5-.1l5.6.2c1.5.1 2.8-.9 4.7-.6 2 .2 3-.1 4.4-.1 2.2 0 2 3.6 0 3.6s-3.2.3-4.9.2c-1.6 0-3-.4-4.6 0-1.6.3-4.6 0-6.5-.3-1.9-.2-4-.1-5.4 0-3 .4-10.2-.3-11.2 0s-4.3 0-5.4 0c-1.2 0-1.8.3-4.2.3Zm84.5-4c2 0 2.3 3.7 0 3.7s-6.6-.3-7.8-.2l-7.6.3c-1 0-5-.5-7.3-.2s-4.5-.3-6-.1c-2 .2-3 0-4.5 0-1.5-.2-3.8.6-5 .3-1.3-.3-2 0-3.8 0-1.8 0-1.8-3.6-.1-3.6l4.7.1 5.5.1c1.6 0 4-.4 5.9-.2l5.7.3c1.4 0 4.3 0 5.6.2 1.6.2 4.3-.2 5.4-.5 1-.3 1.7.1 4 0l5.3-.2Zm.3 3.7c-1.8 0-1.8-3.7.2-3.7 2.2 0 7 .7 8.3.6 1.2 0 4.7-.8 5.8-.8 1.1 0 6.4 1 8.7.8 2.3-.4 3-.2 4.5-.2l5.5.3c1.5 0 2.9-1 4.8-.7 2 .3 3 0 4.4 0 2.1 0 2 3.6 0 3.6l-5 .2c-1.6-.1-3-.5-4.6-.1-1.5.4-4.6 0-6.4-.3-2-.2-4 0-5.5 0-3 .4-10-.3-11.1 0-1 .4-4.3 0-5.5 0-1.1 0-1.7.3-4.1.3Zm84.5-4c2 0 2.3 3.7 0 3.8-2.3 0-6.6-.4-7.9-.3l-7.5.3c-1.1 0-5-.5-7.3-.2s-4.5-.3-6 0c-2 .1-3 0-4.6-.2-1.5 0-3.7.7-5 .4-1.3-.3-2 0-3.7 0-1.8 0-1.8-3.6-.1-3.6l4.7.1 5.4.2c1.7 0 4-.5 6-.3 1.8.3 4.6.3 5.7.4l5.5.1a16 16 0 0 0 5.4-.4c1-.4 1.8 0 4 0l5.4-.2Zm.2 3.8c-1.7 0-1.8-3.7.3-3.7 2.2 0 7 .6 8.2.5 1.3 0 4.8-.8 5.9-.8 1 0 6.4 1.1 8.7.8 2.2-.3 2.9-.2 4.4-.2l5.6.3c1.5.1 2.8-.9 4.8-.6 2 .2 3-.1 4.3-.1 2.2 0 2 3.6 0 3.6-1.9 0-3.2.3-4.9.2-1.6 0-3-.5-4.6 0-1.6.3-4.6 0-6.5-.3-1.9-.2-4-.1-5.4 0-3 .3-10.1-.3-11.1 0s-4.3 0-5.5 0c-1.1 0-1.8.3-4.2.3Zm84.5-4c2 0 2.3 3.7 0 3.7s-6.5-.3-7.8-.2l-7.6.3c-1 0-5-.5-7.3-.2-2.2.3-4.5-.3-6-.1-2 .2-3 0-4.5-.1-1.5 0-3.8.7-5 .4-1.3-.3-2 0-3.8 0-1.7 0-1.7-3.6 0-3.6h4.7c1.6.2 3.6.2 5.4.2 1.6 0 4-.4 6-.2 1.8.2 4.5.3 5.6.3 1.4 0 4.3 0 5.6.2a16 16 0 0 0 5.4-.5c1-.3 1.7.1 4 0l5.3-.2Zm10.5 1.2c-.1 1.3-.6 3.1-2.6 3.1s-3.4-1.6-3.2-3.7c.3-2 1.3-1.3 1.8-6 .2-1.8 3.9-1.5 3.7.3-.5 4.2.6 3.8.3 6.3Zm17-197.1c0-.5 0-.9.2-1.2l2.7-2.5c1.6.2 2.3 1.1 2.4 2.7 0 1.6-.8 2.6-2.3 2.9l2.8-2.5v1.2c-.3 2.2-1.4 2-1.8 5.7-.2 2-3.8 1.1-3.6-.4.4-4-.8-3.5-.5-6Zm-17.3 190.7c-.2 1.5-3.8 1.1-3.6-.7.2-1.9 1.3-6 1.4-7 0-1.2-.3-4.3-.2-5.2.1-1 1.7-5.5 1.6-7.5 0-2 .2-2.5.3-3.9l.9-4.8c.2-1.3-.6-2.5-.2-4.2.5-1.7.2-2.6.4-3.8.2-1.9 3.8-1.4 3.6.4-.2 1.7 0 2.9-.3 4.3s-.8 2.6-.6 4c.3 1.4-.4 4-.9 5.6a19 19 0 0 0-.5 4.7c0 2.7-1.4 8.8-1.2 9.7.2 1-.4 3.7-.5 4.7l-.2 3.7Zm4.8-73.9c.2-1.7 3.9-1.6 3.7.4-.3 2-1 5.7-1 6.8l-.5 6.6c-.2 1-1 4.3-1 6.4 0 2-.8 3.8-.7 5.2 0 1.7-.3 2.6-.6 3.9-.2 1.3.3 3.3-.1 4.4-.5 1-.2 1.7-.3 3.2-.2 1.6-3.9 1.2-3.7-.3l.6-4 .7-4.8c.2-1.4 0-3.6.4-5.2l1-4.9c.1-1.2.3-3.7.6-4.8.4-1.4.3-3.8.1-4.8-.2-.9.3-1.4.5-3.4l.3-4.7Zm0-.5c.3-2 1.2-5.1 1.3-6 0-.7 0-3.4.3-4.6.2-1.3.6-1.7.9-3.7.4-2.7.2-4.4.2-4.6-.1-.3-.3-1.7 0-3.4.4-2.4.2-3.1.4-4.1.7-1.8.3-2 .5-3.4.3-1.4.2-2.2.5-3.3.4-1.2 0-2.1.2-3.2.2-1.8 3.8-1.2 3.6.4 0 1-.6 1.9-.7 3-.1 1-.2 2-.1 3 0 1-.5 3.2-.6 4.9-.1 1.7-.2 4.6-.5 6.5-.3 2-1.3 3.1-1.2 7.2 0 1.3-.5 3.9-.6 5l-.5 6.9c-.2 1.8-3.8 1.4-3.6-.6Zm8-36.1c-.2 1.5-3.9 1.1-3.7-.7.2-1.9 1.4-6 1.4-7 0-1.2-.3-4.3-.1-5.2 0-1 1.7-5.5 1.6-7.5 0-2 .1-2.6.3-4l.9-4.7c.2-1.3-.6-2.6-.2-4.2.5-1.7.2-2.7.3-3.8.3-2 3.9-1.4 3.7.4-.2 1.6-.1 2.8-.4 4.3-.2 1.4-.7 2.6-.5 4 .2 1.4-.5 4-1 5.6-.3 1.6-.4 3.4-.4 4.7 0 2.6-1.4 8.8-1.2 9.7.2.9-.4 3.7-.6 4.7 0 1 .1 1.6-.1 3.7Zm4.8-74c.2-1.6 3.9-1.5 3.6.5-.2 2-1 5.7-1 6.8l-.5 6.6c0 1-1 4.3-1 6.3.1 2-.7 3.9-.7 5.3 0 1.7-.3 2.6-.5 3.8-.2 1.3.3 3.4-.2 4.5-.4 1-.1 1.7-.3 3.2-.2 1.5-3.8 1.1-3.6-.3a95.3 95.3 0 0 0 1.3-8.8c.1-1.4 0-3.6.3-5.2.5-1.6.8-4 1-5 .2-1.1.4-3.7.7-4.7.4-1.4.3-3.9 0-4.8-.1-1 .4-1.5.5-3.4l.4-4.7Zm3.7-4.2c-1.4 0-3.2-.2-3.5-2.2-.2-2 1.2-3.6 3.3-3.6 2 0 1.5 1 6.2 1 1.8 0 2 3.6.2 3.6-4.3 0-3.7 1.1-6.2 1.2Zm216.6-8.8c2.5 0 3.5 1 3.6 2.9 0 2-1.3 3-3.5 3s-2.1-1.1-5.8-1c-2 0-1.7-3.7 0-3.7 3.8 0 3.2-1.1 5.7-1.2Zm-210 4c2.1 0 5.7.4 6.6.4.9 0 3.8-.4 5.2-.3 1.4 0 1.8.3 4.2.4 2.9 0 4.8-.4 5-.4.3-.1 1.7-.5 3.7-.4 2.6 0 3.4-.3 4.6-.1 2 .4 2.2 0 3.7 0h3.7c1.4.3 2.3-.2 3.6-.2 2 0 1.8 3.7 0 3.7-1.2 0-2.2-.4-3.3-.4-1.2 0-2.2.1-3.4.3-1.1.2-3.5 0-5.4 0-1.9.2-5 .4-7.2.4s-3.6-.9-8-.3c-1.5.2-4.4.1-5.5.1-2 0-6 .4-7.7.4-2 0-2-3.6.2-3.7Zm40.6 3c-1.7.1-1.8-3.6.2-3.6s6.7.6 8 .5c1.1-.1 4.5-.9 5.5-.9s6.2 1 8.4.7c2.2-.4 2.8-.2 4.3-.2l5.4.2c1.4 0 2.7-1 4.6-.7 1.9.3 3-.1 4.2-.2 2 0 2 3.7 0 3.7-1.8 0-3 .3-4.7.2-1.6 0-3-.4-4.4 0-1.5.4-4.5 0-6.3-.2a23 23 0 0 0-5.2.1c-3 .4-9.8-.2-10.8.1-1 .3-4.1 0-5.2 0-1.1.1-1.7.4-4 .4Zm81.4-4.7c1.9 0 2.3 3.6 0 3.7-2.2 0-6.3-.3-7.5-.2l-7.3.4c-1 0-4.9-.5-7-.1-2.2.3-4.4-.3-5.9 0-1.9.1-2.9 0-4.3-.1-1.4 0-3.6.7-4.9.4-1.2-.3-1.9 0-3.6.1-1.7 0-1.7-3.6-.1-3.6h4.6l5.2.1c1.6 0 3.9-.5 5.7-.3 1.8.2 4.5.3 5.5.3h5.4c1.5.3 4.2-.1 5.2-.4 1-.4 1.7 0 3.8 0 1.3-.1 3.3-.3 5.2-.3Zm.6 0c2.2 0 5.8.4 6.6.4l5.2-.3c1.4 0 1.9.4 4.2.4 3 0 4.8-.3 5-.4a11 11 0 0 1 3.7-.4c2.6.1 3.4-.2 4.6-.1 2 .4 2.2 0 3.7 0l3.7.1c1.4.2 2.3-.3 3.6-.3 2 0 1.8 3.7 0 3.7-1.1 0-2.1-.3-3.3-.3-1.2 0-2.2 0-3.4.2-1.1.2-3.5 0-5.4.1-1.9.1-5 .4-7.2.3-2.2 0-3.6-.9-8-.2-1.5.2-4.3 0-5.5 0l-7.7.4c-2 0-2-3.6.2-3.6Zm81.1-1.1c2 0 2.3 3.6 0 3.7-2.1 0-6.3-.3-7.5-.2l-7.3.4c-1 0-4.8-.5-7-.1-2.2.3-4.3-.3-5.8 0-2 .1-3 0-4.4-.1-1.4 0-3.6.7-4.8.4-1.2-.3-1.9 0-3.6.1-1.7 0-1.7-3.6-.1-3.6h9.8c1.5 0 3.9-.4 5.7-.2 1.8.2 4.4.3 5.5.3h5.3c1.6.3 4.3-.1 5.2-.4 1-.4 1.7 0 3.9 0 1.2-.1 3.2-.3 5.1-.3Zm0 0"/><g style="fill:#d6d5d5;fill-opacity:1"><use xlink:href="#u" x="1750" y="1054"/><use xlink:href="#v" x="1762" y="1054"/><use xlink:href="#w" x="1774" y="1054"/><use xlink:href="#x" x="1786" y="1054"/><use xlink:href="#y" x="1798" y="1054"/><use xlink:href="#z" x="1810" y="1054"/><use xlink:href="#A" x="1822" y="1054"/><use xlink:href="#B" x="1834" y="1054"/><use xlink:href="#C" x="1846" y="1054"/><use xlink:href="#D" x="1858" y="1054"/><use xlink:href="#w" x="1870" y="1054"/><use xlink:href="#E" x="1882" y="1054"/><use xlink:href="#C" x="1894" y="1054"/></g><path style="stroke:none;fill-rule:nonzero;fill:#fff;fill-opacity:1" d="M726.2 112.5c-4.8 0-7.6 2.5-8.6 6-.4 1.6-.4 3.5-.3 5.6h-.9c-1.6.1-.4 3.8.7 6 .2.4.6.3.8.2.5 3.7 1 4.8 2.5 6.4v1.7c-.1 2.3-1.8 5-3.8 6.1-.7.4-1.8.7-1.8.7-8.7 1.3-11.5 4.4-12.2 12-.3 3.3-.4 11-1.2 17.7l-.7 3.3a81 81 0 0 0-2.2 11.2c-.8 8.4-1.6 11.7-2.2 18 0 .6-.3 1.7-.3 1.7-.7 2.8-2.2 3.6-3.6 4.8-2.1 1.8-3 5.1-5.1 7l-.3.5c-.2.4 0 .8 1 .7 1.6 0 3.6-3 4-2.8.3.1.2.2.2 1.1-.3 2.3-1.3 6.4-1.5 7.1l-.1.4-.4 1.3c0 .4 0 .9.4 1.1l.5.1a1 1 0 0 0 .9-.7l.4-1.4a60.8 60.8 0 0 0 1.7-5.3h.1l-1.3 6.8-.2.9v.6c.1.3.3.5.5.5.4.1.7 0 1-.2l.3-.5.4-1.4 1.5-6 .1.1c0 .6 0 1.3-.2 2l-.5 4.2c0 .5.2 1 .7 1h.2a1 1 0 0 0 .9-.8l.3-2.1 1-5h.2l-.1 3v.5l-.2 1.1c0 .4.3.8.7.9.5 0 .8-.3.8-.7l.1-1 .1-.3c.4-5 .6-4.1.9-6.4.2-2.5.6-4.6.2-7.1v-.5c.2-1.4 1-3.3 2-6.9 3-10.3 3.8-13 5.5-25l.9-5.5c0-.3.5-.3.6 0v1.6c1.1 9.4-.2 16.2-.2 16.2a131.2 131.2 0 0 0-1.5 33.2c.3 4.2 1 9.4 1.4 13.2.3 2.4.5 4.8.5 7.2.2 21.6 1.5 26 4.6 48a13 13 0 0 1-.4 6.6c-.4 1.2-4.3 6-5.4 7.4-.7.8-2.6 2.1-1.2 2.9 3.2 1.7 8.4 1.6 11.8-1.6.8-.9.8-2.3 1.4-3.2.6-1 1.2-1.3 1.8-2.6.7-1.4-.3-4.8-.5-9.7-.1-2.1.1-9.3.4-16 .6-13 2-13.5 1.3-30.7l.7-10.8.7-13.8c0-.2.3-.2.3 0l.8 13.8c.3 6.2.7 10.8.7 10.8-.7 17.2.6 17.7 1.2 30.8.3 6.6.5 13.8.4 16-.2 4.9-1.2 8.2-.5 9.6.6 1.3 1.3 1.6 1.9 2.6.6.9.5 2.3 1.3 3.2 3.4 3.2 8.6 3.3 11.8 1.6 1.4-.8-.5-2.1-1.2-3-1-1.3-5-6.1-5.4-7.3-.4-1.1-1-3-.4-6.5 3.1-22 4.5-26.5 4.6-48 0-2.5.2-4.9.5-7.3a137.4 137.4 0 0 0 0-46.4c-.1 0-1.4-6.8-.4-16.1l.2-1.6c0-.3.5-.4.5 0l.9 5.5c1.7 12 2.6 14.6 5.5 25 1 3.7 1.8 5.5 2 6.9v.4c-.4 2.6 0 4.7.2 7.2.3 2.2.5 1.4 1 6.4v1.3c.1.3.4.6.8.6.5 0 .8-.4.8-.8l-.1-1.2v-.5l-.2-2.9h.2l1 5 .3 2c0 .5.5.9 1 .9.6-.1.9-.6.8-1l-.5-4.3-.2-2 1.6 6 .4 1.3c0 .3.2.4.4.6.2.2.5.3.9.2.2 0 .4-.3.4-.5a1 1 0 0 0 .1-.7l-.2-.8-1.3-6.9 1 3 .8 2.3.4 1.5c.1.4.5.7 1 .7l.4-.1c.3-.2.5-.7.4-1.1l-.4-1.4v-.3c-.3-.8-1.3-4.9-1.6-7.1 0-1-.1-1 .2-1.2.4-.2 2.4 2.8 4 2.9 1.1 0 1.3-.4 1.1-.8l-.3-.4c-2-2-3-5.3-5-7.1-1.5-1.2-3-2-3.7-4.8l-.3-1.7c-.6-6.3-1.4-9.7-2.2-18a81 81 0 0 0-2.2-11.2c-.3-1.2-.6-2.4-.7-3.5-.8-6.7-.9-14.2-1.2-17.6-.7-7.5-3.5-10.5-12.1-12 0 0-1.2-.2-2-.6-2-1-3.6-3.8-3.6-6v-1.8c1.4-1.6 1.9-2.7 2.4-6.4.2 0 .7.2.9-.2 1-2.2 2.2-5.9.6-6h-.9c.2-2 .2-4-.3-5.7-1-3.4-3.7-5.9-8.5-5.9h-.1Zm0 0"/><path style="fill:none;stroke-width:2;stroke-linecap:butt;stroke-linejoin:miter;stroke:#000;stroke-opacity:1;stroke-miterlimit:4" d="M39.2 0c-4.8 0-7.5 2.4-8.5 5.9-.4 1.6-.5 3.6-.3 5.7h-1c-1.5.1-.3 3.8.7 6 .2.4.7.3 1 .2.4 3.7.9 4.8 2.3 6.4v1.7c0 2.3-1.7 5-3.7 6-.7.5-1.9.7-1.9.7-8.6 1.4-11.4 4.5-12.1 12-.3 3.4-.4 11-1.3 17.8l-.6 3.2A81 81 0 0 0 11.6 77c-.8 8.4-1.6 11.7-2.2 18L9 96.4c-.7 2.8-2.3 3.7-3.7 4.9-2 1.8-3 5-5 7-.2.1-.3.3-.3.5-.2.3 0 .7 1 .7 1.6-.1 3.6-3 4-2.9.3.2.2.3.1 1.2-.3 2.2-1.3 6.3-1.5 7v.4l-.4 1.4c-.1.4 0 .8.4 1 .1.2.3.2.4.2a1 1 0 0 0 1-.7l.3-1.5a60.8 60.8 0 0 0 1.8-5.3h.1l-1.4 6.9-.2.8c0 .3 0 .5.2.7 0 .3.2.4.4.5.4 0 .6 0 .9-.2.2-.1.3-.3.4-.6l.3-1.4 1.6-5.9h.1l-.2 2-.5 4.2c-.1.5.2 1 .7 1h.1a1 1 0 0 0 1-.7l.2-2.2 1.1-5 .2.1-.1 3-.1.4-.1 1.2c0 .4.3.8.7.8.5 0 .8-.3.8-.7l.1-1v-.2c.5-5 .7-4.2 1-6.4.2-2.6.6-4.6.2-7.2v-.4c.2-1.4 1-3.3 2-6.9 2.9-10.4 3.8-13 5.5-25l.9-5.5c0-.3.5-.3.5 0l.2 1.6c1 9.4-.3 16.1-.3 16.1a131.2 131.2 0 0 0-1.5 33.3c.3 4.2 1 9.3 1.4 13.1.3 2.4.5 4.8.5 7.3.2 21.6 1.5 26 4.6 48a13 13 0 0 1-.4 6.6c-.4 1.1-4.3 6-5.4 7.3-.7.8-2.6 2.2-1.2 3 3.2 1.6 8.4 1.6 11.8-1.7.8-.8.7-2.2 1.3-3.2.6-.9 1.3-1.2 2-2.6.6-1.3-.4-4.7-.6-9.6-.1-2.2 0-9.3.4-16 .6-13 2-13.5 1.2-30.7 0 0 .4-4.6.7-10.9l.8-13.7c0-.2.3-.2.3 0l.7 13.7.7 10.9c-.7 17.2.7 17.7 1.3 30.8.3 6.6.5 13.7.4 15.9-.2 5-1.3 8.3-.6 9.6.7 1.3 1.3 1.7 2 2.6.5 1 .4 2.4 1.3 3.2 3.3 3.3 8.5 3.3 11.7 1.6 1.5-.8-.4-2-1.1-2.9-1.1-1.4-5-6.2-5.4-7.3-.4-1.2-1-3-.5-6.6 3.2-22 4.5-26.4 4.6-48 0-2.4.2-4.8.5-7.2.5-3.8 1.2-9 1.4-13.2.9-14 .3-21-1.5-33.2 0 0-1.2-6.8-.2-16.2l.1-1.6c0-.3.5-.3.6 0l.8 5.6c1.8 12 2.6 14.6 5.5 25 1 3.6 1.9 5.5 2 6.8v.5c-.3 2.5 0 4.6.3 7.1.2 2.3.5 1.5.9 6.4v.3l.1 1c0 .4.4.7.8.7s.8-.4.7-.9v-1.1l-.1-.5-.1-3h.1l1 5 .4 2.1c0 .5.4.8.9.8h.1c.5 0 .8-.5.8-1l-.6-4.3c0-.6 0-1.3-.2-1.9h.1c.5 1.7 1 4.2 1.6 5.9l.3 1.4.4.5c.2.3.5.3 1 .2.2 0 .3-.2.4-.5a1 1 0 0 0 0-.6l-.1-.9-1.4-6.8h.1l1 3 .8 2.3.4 1.4c.1.4.5.7.9.7h.4c.4-.3.6-.7.4-1.2l-.3-1.3-.1-.4c-.2-.7-1.2-4.8-1.5-7 0-1-.1-1 .1-1.2.5-.3 2.5 2.7 4 2.8 1.2 0 1.3-.4 1.2-.7 0-.2-.2-.4-.3-.5-2.1-2-3-5.2-5.1-7-1.4-1.2-3-2-3.6-4.9 0 0-.3-1-.3-1.7-.7-6.2-1.5-9.6-2.2-17.9a81 81 0 0 0-2.3-11.3c-.3-1.1-.5-2.3-.6-3.5-.8-6.7-1-14.2-1.3-17.5-.7-7.5-3.5-10.6-12-12 0 0-1.2-.2-2-.6-2-1-3.6-3.8-3.7-6v-1.8c1.4-1.6 2-2.7 2.4-6.4.2 0 .7.2 1-.3 1-2.1 2.2-5.8.6-5.9h-1c.2-2.1.2-4-.3-5.7-1-3.5-3.7-5.9-8.5-5.9Zm0 0" transform="translate(687 112.5)"/></svg>