<svg xmlns="http://www.w3.org/2000/svg" xmlns:xlink="http://www.w3.org/1999/xlink" width="1255.065" height="619.755" viewBox="0 0 941.299 464.816"><defs><clipPath id="aO"><path d="M57 419h31v20H57Zm0 0"/></clipPath><clipPath id="aP"><path d="m53.234 426.68 40.786-19.02 7.605 16.313-40.785 19.02Zm0 0"/></clipPath><clipPath id="aU"><path d="M84 414h15v12H84Zm0 0"/></clipPath><clipPath id="aV"><path d="m53.234 426.68 40.786-19.02 7.605 16.313-40.785 19.02Zm0 0"/></clipPath><clipPath id="aY"><path d="M105 431h10v12h-10Zm0 0"/></clipPath><clipPath id="aZ"><path d="m100.543 430.883 49.8-23.223 7.606 16.313-49.8 23.222Zm0 0"/></clipPath><clipPath id="bb"><path d="M111 421h30v18h-30Zm0 0"/></clipPath><clipPath id="bc"><path d="m100.543 430.883 49.8-23.223 7.606 16.313-49.8 23.222Zm0 0"/></clipPath><clipPath id="bg"><path d="M138 417h10v10h-10Zm0 0"/></clipPath><clipPath id="bh"><path d="m100.543 430.883 49.8-23.223 7.606 16.313-49.8 23.222Zm0 0"/></clipPath><clipPath id="bj"><path d="M145 414h10v10h-10Zm0 0"/></clipPath><clipPath id="bk"><path d="m100.543 430.883 49.8-23.223 7.606 16.313-49.8 23.222Zm0 0"/></clipPath><clipPath id="bm"><path d="M149 414h65v36h-65Zm0 0"/></clipPath><clipPath id="bn"><path d="m145.035 437.71 64.445-30.05 7.61 16.313-64.445 30.05Zm0 0"/></clipPath><clipPath id="br"><path d="M206 432h12v13h-12Zm0 0"/></clipPath><clipPath id="bs"><path d="m202.043 432.871 54.066-25.21 7.606 16.312-54.063 25.21Zm0 0"/></clipPath><clipPath id="bu"><path d="M215 429h14v12h-14Zm0 0"/></clipPath><clipPath id="bv"><path d="m202.043 432.871 54.066-25.21 7.606 16.312-54.063 25.21Zm0 0"/></clipPath><clipPath id="bw"><path d="M226 412h34v24h-34Zm0 0"/></clipPath><clipPath id="bx"><path d="m202.043 432.871 54.066-25.21 7.606 16.312-54.063 25.21Zm0 0"/></clipPath><clipPath id="by"><path d="M245 426h54v30h-54Zm0 0"/></clipPath><clipPath id="bz"><path d="m241.836 444.086 78.113-36.426 7.606 16.313-78.11 36.425Zm0 0"/></clipPath><clipPath id="bB"><path d="M296 415h28v18h-28Zm0 0"/></clipPath><clipPath id="bC"><path d="m241.836 444.086 78.113-36.426 7.606 16.313-78.11 36.425Zm0 0"/></clipPath><clipPath id="bE"><path d="M292 444h23v18h-23Zm0 0"/></clipPath><clipPath id="bF"><path d="m287.492 449.832 90.438-42.172 7.605 16.313-90.437 42.172Zm0 0"/></clipPath><clipPath id="bH"><path d="M312 440h15v12h-15Zm0 0"/></clipPath><clipPath id="bI"><path d="m287.492 449.832 90.438-42.172 7.605 16.313-90.437 42.172Zm0 0"/></clipPath><clipPath id="bJ"><path d="M323 424h39v23h-39Zm0 0"/></clipPath><clipPath id="bK"><path d="m287.492 449.832 90.438-42.172 7.605 16.313-90.437 42.172Zm0 0"/></clipPath><clipPath id="bL"><path d="M360 413h23v17h-23Zm0 0"/></clipPath><clipPath id="bM"><path d="m287.492 449.832 90.438-42.172 7.605 16.313-90.437 42.172Zm0 0"/></clipPath><clipPath id="bN"><path d="M352 441h11v12h-11Zm0 0"/></clipPath><clipPath id="bO"><path d="m349.086 440.71 70.879-33.05 7.61 16.313-70.88 33.05Zm0 0"/></clipPath><clipPath id="bQ"><path d="M359 437h17v13h-17Zm0 0"/></clipPath><clipPath id="bR"><path d="m349.086 440.71 70.879-33.05 7.61 16.313-70.88 33.05Zm0 0"/></clipPath><clipPath id="bS"><path d="M373 430h18v13h-18Zm0 0"/></clipPath><clipPath id="bT"><path d="m349.086 440.71 70.879-33.05 7.61 16.313-70.88 33.05Zm0 0"/></clipPath><clipPath id="bV"><path d="M389 414h37v22h-37Zm0 0"/></clipPath><clipPath id="bW"><path d="m349.086 440.71 70.879-33.05 7.61 16.313-70.88 33.05Zm0 0"/></clipPath><clipPath id="bZ"><path d="M415 421h36v21h-36Zm0 0"/></clipPath><clipPath id="ca"><path d="m412.078 430.29 48.527-22.63 7.61 16.313-48.527 22.629Zm0 0"/></clipPath><clipPath id="cb"><path d="M449 417h9v10h-9Zm0 0"/></clipPath><clipPath id="cc"><path d="m412.078 430.29 48.527-22.63 7.61 16.313-48.527 22.629Zm0 0"/></clipPath><clipPath id="cd"><path d="M455 414h10v10h-10Zm0 0"/></clipPath><clipPath id="ce"><path d="m412.078 430.29 48.527-22.63 7.61 16.313-48.527 22.629Zm0 0"/></clipPath><clipPath id="cf"><path d="M458 439h11v12h-11Zm0 0"/></clipPath><clipPath id="cg"><path d="m454.223 439.309 67.875-31.649 7.605 16.313-67.871 31.652Zm0 0"/></clipPath><clipPath id="ch"><path d="M466 438h10v10h-10Zm0 0"/></clipPath><clipPath id="ci"><path d="m454.223 439.309 67.875-31.649 7.605 16.313-67.871 31.652Zm0 0"/></clipPath><clipPath id="cj"><path d="M473 431h17v14h-17Zm0 0"/></clipPath><clipPath id="ck"><path d="m454.223 439.309 67.875-31.649 7.605 16.313-67.871 31.652Zm0 0"/></clipPath><clipPath id="cl"><path d="M488 414h39v24h-39Zm0 0"/></clipPath><clipPath id="cm"><path d="m454.223 439.309 67.875-31.649 7.605 16.313-67.871 31.652Zm0 0"/></clipPath><clipPath id="cn"><path d="M517 423h36v22h-36Zm0 0"/></clipPath><clipPath id="co"><path d="m512.426 433.355 55.101-25.695 7.61 16.313-55.102 25.695Zm0 0"/></clipPath><clipPath id="cr"><path d="M550 414h22v16h-22Zm0 0"/></clipPath><clipPath id="cs"><path d="m512.426 433.355 55.101-25.695 7.61 16.313-55.102 25.695Zm0 0"/></clipPath><clipPath id="ct"><path d="M573 428h12v12h-12Zm0 0"/></clipPath><clipPath id="cu"><path d="m569.246 428.691 45.098-21.03 7.605 16.312-45.097 21.03Zm0 0"/></clipPath><clipPath id="cv"><path d="M582 414h37v23h-37Zm0 0"/></clipPath><clipPath id="cw"><path d="m569.246 428.691 45.098-21.03 7.605 16.312-45.097 21.03Zm0 0"/></clipPath><clipPath id="cx"><path d="M622 418h43v25h-43Zm0 0"/></clipPath><clipPath id="cy"><path d="m618.344 431.223 50.531-23.563 7.61 16.313-50.532 23.562Zm0 0"/></clipPath><clipPath id="cA"><path d="M662 415h12v12h-12Zm0 0"/></clipPath><clipPath id="cB"><path d="m618.344 431.223 50.531-23.563 7.61 16.313-50.532 23.562Zm0 0"/></clipPath><clipPath id="cC"><path d="M666 435h20v15h-20Zm0 0"/></clipPath><clipPath id="cD"><path d="m662.027 438.809 66.801-31.149 7.606 16.313-66.801 31.152Zm0 0"/></clipPath><clipPath id="cF"><path d="M685 414h48v29h-48Zm0 0"/></clipPath><clipPath id="cG"><path d="m662.027 438.809 66.801-31.149 7.606 16.313-66.801 31.152Zm0 0"/></clipPath><clipPath id="cI"><path d="M720 437h10v12h-10Zm0 0"/></clipPath><clipPath id="cJ"><path d="m715.582 437.191 63.324-29.53 7.61 16.312-63.328 29.53Zm0 0"/></clipPath><clipPath id="cK"><path d="M727 415h56v31h-56Zm0 0"/></clipPath><clipPath id="cL"><path d="m715.582 437.191 63.324-29.53 7.61 16.312-63.328 29.53Zm0 0"/></clipPath><clipPath id="cM"><path d="M773 427h28v21h-28Zm0 0"/></clipPath><clipPath id="cN"><path d="m768.781 435.898 60.559-28.238 7.605 16.313-60.554 28.238Zm0 0"/></clipPath><clipPath id="cP"><path d="M798 426h10v10h-10Zm0 0"/></clipPath><clipPath id="cQ"><path d="m768.781 435.898 60.559-28.238 7.605 16.313-60.554 28.238Zm0 0"/></clipPath><clipPath id="cR"><path d="M805 423h11v10h-11Zm0 0"/></clipPath><clipPath id="cS"><path d="m768.781 435.898 60.559-28.238 7.605 16.313-60.554 28.238Zm0 0"/></clipPath><clipPath id="cT"><path d="M812 415h21v15h-21Zm0 0"/></clipPath><clipPath id="cU"><path d="m768.781 435.898 60.559-28.238 7.605 16.313-60.554 28.238Zm0 0"/></clipPath><clipPath id="cW"><path d="M812 441h30v18h-30Zm0 0"/></clipPath><clipPath id="cX"><path d="m807.863 447.777 86.028-40.117 7.609 16.313-86.031 40.117Zm0 0"/></clipPath><clipPath id="cZ"><path d="M839 428h31v19h-31Zm0 0"/></clipPath><clipPath id="da"><path d="m807.863 447.777 86.028-40.117 7.609 16.313-86.031 40.117Zm0 0"/></clipPath><clipPath id="db"><path d="M867 414h31v20h-31Zm0 0"/></clipPath><clipPath id="dc"><path d="m807.863 447.777 86.028-40.117 7.609 16.313-86.031 40.117Zm0 0"/></clipPath><clipPath id="dd"><path d="M897 412h18v16h-18Zm0 0"/></clipPath><clipPath id="de"><path d="m893.941 415.824 17.504-8.164 7.61 16.313-17.504 8.164Zm0 0"/></clipPath><clipPath id="dg"><path d="M78 126.816h21v275H78Zm0 0"/></clipPath><clipPath id="b"><path d="M0 .816h21v275H0Zm0 0"/></clipPath><clipPath id="a"><path d="M0 0h21v276H0z"/></clipPath><clipPath id="di"><path d="M130 119.816h21v282h-21Zm0 0"/></clipPath><clipPath id="d"><path d="M0 .816h21v282H0Zm0 0"/></clipPath><clipPath id="c"><path d="M0 0h21v283H0z"/></clipPath><clipPath id="dk"><path d="M182 113.816h21v288h-21Zm0 0"/></clipPath><clipPath id="f"><path d="M0 .816h21v288H0Zm0 0"/></clipPath><clipPath id="e"><path d="M0 0h21v289H0z"/></clipPath><clipPath id="dm"><path d="M234 124.816h21v277h-21Zm0 0"/></clipPath><clipPath id="h"><path d="M0 .816h21v277H0Zm0 0"/></clipPath><clipPath id="g"><path d="M0 0h21v278H0z"/></clipPath><clipPath id="do"><path d="M286 121.816h20v280h-20Zm0 0"/></clipPath><clipPath id="j"><path d="M0 .816h20v280H0Zm0 0"/></clipPath><clipPath id="i"><path d="M0 0h20v281H0z"/></clipPath><clipPath id="dq"><path d="M338 126.816h20v275h-20Zm0 0"/></clipPath><clipPath id="l"><path d="M0 .816h20v275H0Zm0 0"/></clipPath><clipPath id="k"><path d="M0 0h20v276H0z"/></clipPath><clipPath id="ds"><path d="M389 131.816h21v270h-21Zm0 0"/></clipPath><clipPath id="n"><path d="M0 .816h21v270H0Zm0 0"/></clipPath><clipPath id="m"><path d="M0 0h21v271H0z"/></clipPath><clipPath id="du"><path d="M441 162.816h21v239h-21Zm0 0"/></clipPath><clipPath id="p"><path d="M0 .816h21v239H0Zm0 0"/></clipPath><clipPath id="o"><path d="M0 0h21v240H0z"/></clipPath><clipPath id="dw"><path d="M493 131.816h21v270h-21Zm0 0"/></clipPath><clipPath id="r"><path d="M0 .816h21v270H0Zm0 0"/></clipPath><clipPath id="q"><path d="M0 0h21v271H0z"/></clipPath><clipPath id="dy"><path d="M545 136.816h21v265h-21Zm0 0"/></clipPath><clipPath id="t"><path d="M0 .816h21v265H0Zm0 0"/></clipPath><clipPath id="s"><path d="M0 0h21v266H0z"/></clipPath><clipPath id="dA"><path d="M597 178.816h20v223h-20Zm0 0"/></clipPath><clipPath id="v"><path d="M0 .816h20v223H0Zm0 0"/></clipPath><clipPath id="u"><path d="M0 0h20v224H0z"/></clipPath><clipPath id="dC"><path d="M648 143.816h21v258h-21Zm0 0"/></clipPath><clipPath id="x"><path d="M0 .816h21v258H0Zm0 0"/></clipPath><clipPath id="w"><path d="M0 0h21v259H0z"/></clipPath><clipPath id="dE"><path d="M700 182.816h21v219h-21Zm0 0"/></clipPath><clipPath id="z"><path d="M0 .816h21v219H0Zm0 0"/></clipPath><clipPath id="y"><path d="M0 0h21v220H0z"/></clipPath><clipPath id="dG"><path d="M752 163.816h21v238h-21Zm0 0"/></clipPath><clipPath id="B"><path d="M0 .816h21v238H0Zm0 0"/></clipPath><clipPath id="A"><path d="M0 0h21v239H0z"/></clipPath><clipPath id="dI"><path d="M804 129.816h21v272h-21Zm0 0"/></clipPath><clipPath id="D"><path d="M0 .816h21v272H0Zm0 0"/></clipPath><clipPath id="C"><path d="M0 0h21v273H0z"/></clipPath><clipPath id="dK"><path d="M856 194.816h20v207h-20Zm0 0"/></clipPath><clipPath id="F"><path d="M0 .816h20v207H0Zm0 0"/></clipPath><clipPath id="E"><path d="M0 0h20v208H0z"/></clipPath><clipPath id="dM"><path d="M908 105.816h20v296h-20Zm0 0"/></clipPath><clipPath id="H"><path d="M0 .816h20v296H0Zm0 0"/></clipPath><clipPath id="G"><path d="M0 0h20v297H0z"/></clipPath><clipPath id="dO"><path d="M56 393.816h20v8H56Zm0 0"/></clipPath><clipPath id="J"><path d="M0 .816h20v8H0Zm0 0"/></clipPath><clipPath id="I"><path d="M0 0h20v9H0z"/></clipPath><clipPath id="dQ"><path d="M107 369.816h21v32h-21Zm0 0"/></clipPath><clipPath id="L"><path d="M0 .816h21v32H0Zm0 0"/></clipPath><clipPath id="K"><path d="M0 0h21v33H0z"/></clipPath><clipPath id="dS"><path d="M159 380.816h21v21h-21Zm0 0"/></clipPath><clipPath id="N"><path d="M0 .816h21v21H0Zm0 0"/></clipPath><clipPath id="M"><path d="M0 0h21v22H0z"/></clipPath><clipPath id="dU"><path d="M211 340.816h21v61h-21Zm0 0"/></clipPath><clipPath id="P"><path d="M0 .816h21v61H0Zm0 0"/></clipPath><clipPath id="O"><path d="M0 0h21v62H0z"/></clipPath><clipPath id="dW"><path d="M263 374.816h21v27h-21Zm0 0"/></clipPath><clipPath id="R"><path d="M0 .816h21v27H0Zm0 0"/></clipPath><clipPath id="Q"><path d="M0 0h21v28H0z"/></clipPath><clipPath id="dY"><path d="M315 364.816h20v37h-20Zm0 0"/></clipPath><clipPath id="T"><path d="M0 .816h20v37H0Zm0 0"/></clipPath><clipPath id="S"><path d="M0 0h20v38H0z"/></clipPath><clipPath id="ea"><path d="M367 327.816h20v74h-20Zm0 0"/></clipPath><clipPath id="V"><path d="M0 .816h20v74H0Zm0 0"/></clipPath><clipPath id="U"><path d="M0 0h20v75H0z"/></clipPath><clipPath id="ec"><path d="M418 278.816h21v123h-21Zm0 0"/></clipPath><clipPath id="X"><path d="M0 .816h21v123H0Zm0 0"/></clipPath><clipPath id="W"><path d="M0 0h21v124H0z"/></clipPath><clipPath id="ee"><path d="M470 339.816h21v62h-21Zm0 0"/></clipPath><clipPath id="Z"><path d="M0 .816h21v62H0Zm0 0"/></clipPath><clipPath id="Y"><path d="M0 0h21v63H0z"/></clipPath><clipPath id="eg"><path d="M522 367.816h21v34h-21Zm0 0"/></clipPath><clipPath id="ab"><path d="M0 .816h21v34H0Zm0 0"/></clipPath><clipPath id="aa"><path d="M0 0h21v35H0z"/></clipPath><clipPath id="ei"><path d="M574 375.816h21v26h-21Zm0 0"/></clipPath><clipPath id="ad"><path d="M0 .816h21v26H0Zm0 0"/></clipPath><clipPath id="ac"><path d="M0 0h21v27H0z"/></clipPath><clipPath id="ek"><path d="M626 330.816h20v71h-20Zm0 0"/></clipPath><clipPath id="af"><path d="M0 .816h20v71H0Zm0 0"/></clipPath><clipPath id="ae"><path d="M0 0h20v72H0z"/></clipPath><clipPath id="em"><path d="M677 359.816h21v42h-21Zm0 0"/></clipPath><clipPath id="ah"><path d="M0 .816h21v42H0Zm0 0"/></clipPath><clipPath id="ag"><path d="M0 0h21v43H0z"/></clipPath><clipPath id="eo"><path d="M729 357.816h21v44h-21Zm0 0"/></clipPath><clipPath id="aj"><path d="M0 .816h21v44H0Zm0 0"/></clipPath><clipPath id="ai"><path d="M0 0h21v45H0z"/></clipPath><clipPath id="eq"><path d="M781 371.816h21v30h-21Zm0 0"/></clipPath><clipPath id="al"><path d="M0 .816h21v30H0Zm0 0"/></clipPath><clipPath id="ak"><path d="M0 0h21v31H0z"/></clipPath><clipPath id="es"><path d="M833 312.816h21v89h-21Zm0 0"/></clipPath><clipPath id="an"><path d="M0 .816h21v89H0Zm0 0"/></clipPath><clipPath id="am"><path d="M0 0h21v90H0z"/></clipPath><clipPath id="eu"><path d="M885 388.816h20v13h-20Zm0 0"/></clipPath><clipPath id="ap"><path d="M0 .816h20v13H0Zm0 0"/></clipPath><clipPath id="ao"><path d="M0 0h20v14H0z"/></clipPath><symbol id="aq" overflow="visible"><path d="M11.094-7.219c.926.2 1.64.594 2.14 1.188.5.593.75 1.36.75 2.297 0 1.199-.449 2.12-1.343 2.765C11.754-.32 10.445 0 8.719 0H2.28v-14h6.031c1.563 0 2.77.313 3.626.938.863.624 1.296 1.511 1.296 2.656 0 .781-.195 1.445-.578 1.984-.375.531-.898.934-1.562 1.203ZM3.766-12.78v5.078h4.453c1.133 0 2.008-.211 2.625-.64.613-.438.922-1.067.922-1.891 0-.832-.309-1.461-.922-1.891-.617-.438-1.492-.656-2.625-.656ZM8.703-1.22c1.25 0 2.192-.21 2.828-.64.645-.426.969-1.094.969-2 0-1.75-1.266-2.625-3.797-2.625H3.766v5.265Zm0 0" style="stroke:none"/></symbol><symbol id="ar" overflow="visible"><path d="M3.344-8.453a3.405 3.405 0 0 1 1.484-1.594c.656-.363 1.473-.547 2.453-.547v1.375l-.343-.015c-1.106 0-1.97.34-2.594 1.015-.625.68-.938 1.633-.938 2.86V0H1.984v-10.516h1.36Zm0 0" style="stroke:none"/></symbol><symbol id="as" overflow="visible"><path d="M1.984-10.516h1.422V0H1.984Zm.72-2.296a1.04 1.04 0 0 1-.75-.297 1.024 1.024 0 0 1-.298-.735c0-.258.098-.488.297-.687.207-.207.457-.313.75-.313.29 0 .535.102.735.297a.896.896 0 0 1 .312.688c0 .293-.105.543-.313.75-.199.199-.445.296-.734.296Zm0 0" style="stroke:none"/></symbol><symbol id="at" overflow="visible"><path d="M11.14-4.813H2.345c.07 1.086.488 1.965 1.25 2.641.758.68 1.722 1.016 2.89 1.016.645 0 1.239-.114 1.782-.344a4.026 4.026 0 0 0 1.437-1.047l.797.922A4.49 4.49 0 0 1 8.75-.344c-.7.293-1.469.438-2.313.438-1.085 0-2.042-.227-2.875-.688A4.956 4.956 0 0 1 1.61-2.5C1.15-3.313.922-4.234.922-5.266c0-1.02.223-1.937.672-2.75a4.812 4.812 0 0 1 1.828-1.89c.781-.457 1.66-.688 2.64-.688.97 0 1.836.23 2.61.688a4.708 4.708 0 0 1 1.828 1.89c.438.805.656 1.72.656 2.75ZM6.063-9.375c-1.011 0-1.859.324-2.546.969-.688.648-1.079 1.492-1.172 2.531h7.453c-.094-1.04-.485-1.883-1.172-2.531-.688-.645-1.543-.969-2.563-.969Zm0 0" style="stroke:none"/></symbol><symbol id="av" overflow="visible"><path d="M1.406-9.906h8.688v1.187H1.406Zm0 4.625h8.688v1.187H1.406Zm0 0" style="stroke:none"/></symbol><symbol id="aw" overflow="visible"><path d="M8.36.125c-1.387 0-2.637-.305-3.75-.922a6.718 6.718 0 0 1-2.626-2.547C1.36-4.438 1.047-5.656 1.047-7c0-1.344.312-2.555.937-3.64a6.73 6.73 0 0 1 2.625-2.563c1.125-.613 2.38-.922 3.766-.922 1.04 0 2 .18 2.875.531a6.002 6.002 0 0 1 2.25 1.516l-.938.937c-1.093-1.101-2.476-1.656-4.14-1.656-1.106 0-2.11.258-3.016.766a5.556 5.556 0 0 0-2.14 2.078C2.754-9.078 2.5-8.093 2.5-7c0 1.094.254 2.086.766 2.969a5.668 5.668 0 0 0 2.14 2.078c.907.5 1.91.75 3.016.75 1.676 0 3.055-.555 4.14-1.672l.938.938a6.083 6.083 0 0 1-2.25 1.53c-.887.356-1.852.532-2.89.532Zm0 0" style="stroke:none"/></symbol><symbol id="ax" overflow="visible"><path d="M5.656-10.594c1.375 0 2.426.344 3.157 1.031.738.68 1.109 1.696 1.109 3.047V0h-1.36v-1.64c-.324.554-.796.98-1.421 1.28-.618.305-1.352.454-2.204.454-1.167 0-2.101-.274-2.796-.828-.7-.563-1.047-1.301-1.047-2.22 0-.894.32-1.612.968-2.155.657-.551 1.688-.829 3.094-.829H8.5v-.64c0-.906-.258-1.594-.766-2.063-.5-.476-1.242-.718-2.218-.718-.668 0-1.309.109-1.922.328a5.01 5.01 0 0 0-1.578.906l-.641-1.063c.54-.445 1.18-.789 1.922-1.03a7.406 7.406 0 0 1 2.36-.376Zm-.5 9.578c.801 0 1.489-.18 2.063-.546.57-.375 1-.907 1.281-1.594v-1.719H5.203C3.398-4.875 2.5-4.25 2.5-3c0 .617.234 1.102.703 1.453.469.356 1.117.531 1.953.531Zm0 0" style="stroke:none"/></symbol><symbol id="ay" overflow="visible"><path d="M1.984-14.844h1.422V0H1.984Zm0 0" style="stroke:none"/></symbol><symbol id="az" overflow="visible"><path d="M7.406-10.594c.977 0 1.867.227 2.672.672a4.65 4.65 0 0 1 1.875 1.89c.457.813.688 1.735.688 2.766 0 1.043-.23 1.97-.688 2.782a4.86 4.86 0 0 1-1.875 1.906c-.805.45-1.695.672-2.672.672-.886 0-1.68-.18-2.375-.547a4.319 4.319 0 0 1-1.687-1.625V0h-1.36v-14.844h1.422v6.328c.438-.687 1-1.203 1.688-1.546.687-.352 1.457-.532 2.312-.532Zm-.11 9.438c.74 0 1.407-.172 2-.516a3.6 3.6 0 0 0 1.407-1.453c.344-.625.516-1.336.516-2.14 0-.79-.172-1.5-.516-2.126a3.505 3.505 0 0 0-1.406-1.453 3.922 3.922 0 0 0-2-.515c-.742 0-1.406.171-2 .515A3.602 3.602 0 0 0 3.89-7.39c-.344.625-.516 1.336-.516 2.125 0 .805.172 1.516.516 2.141.343.625.812 1.11 1.406 1.453.594.344 1.258.516 2 .516Zm0 0" style="stroke:none"/></symbol><symbol id="aA" overflow="visible"><path d="M7.516-.64a2.56 2.56 0 0 1-.985.546 4.093 4.093 0 0 1-1.234.188c-.992 0-1.75-.266-2.281-.797-.532-.531-.797-1.281-.797-2.25v-6.36H.344v-1.203h1.875v-2.296H3.64v2.296h3.203v1.204H3.64v6.265c0 .637.156 1.117.468 1.438.313.324.758.484 1.344.484.3 0 .586-.047.86-.14.269-.094.503-.223.703-.391Zm0 0" style="stroke:none"/></symbol><symbol id="aB" overflow="visible"><path d="M6.281.094c-1.011 0-1.93-.227-2.75-.688A5.032 5.032 0 0 1 1.61-2.5C1.15-3.313.922-4.234.922-5.266c0-1.02.226-1.937.687-2.75a4.939 4.939 0 0 1 1.922-1.89c.82-.457 1.739-.688 2.75-.688 1.008 0 1.922.23 2.735.688a4.848 4.848 0 0 1 1.906 1.89c.469.813.703 1.73.703 2.75 0 1.032-.234 1.954-.703 2.766A4.94 4.94 0 0 1 9.016-.594c-.813.461-1.727.688-2.735.688Zm0-1.25c.75 0 1.422-.172 2.016-.516a3.613 3.613 0 0 0 1.39-1.453c.333-.625.5-1.336.5-2.14 0-.79-.167-1.5-.5-2.126a3.517 3.517 0 0 0-1.39-1.453c-.594-.344-1.266-.515-2.016-.515s-1.422.171-2.015.515A3.602 3.602 0 0 0 2.859-7.39c-.336.625-.5 1.336-.5 2.125 0 .805.164 1.516.5 2.141.344.625.813 1.11 1.407 1.453.593.344 1.265.516 2.015.516Zm0 0" style="stroke:none"/></symbol><symbol id="aC" overflow="visible"><path d="M7.344-10.594c1.312 0 2.36.387 3.14 1.156.782.762 1.172 1.876 1.172 3.344V0h-1.422v-5.953c0-1.094-.277-1.926-.828-2.5-.543-.57-1.32-.86-2.328-.86-1.137 0-2.031.34-2.687 1.016-.657.668-.985 1.594-.985 2.781V0H1.984v-10.516h1.36v1.938a3.816 3.816 0 0 1 1.61-1.485c.687-.351 1.484-.53 2.39-.53Zm0 0" style="stroke:none"/></symbol><symbol id="aD" overflow="visible"><path d="M10.094-6.406H6.375v3.64h-1.25v-3.64H1.406v-1.172h3.719v-3.656h1.25v3.656h3.719Zm0 0" style="stroke:none"/></symbol><symbol id="aE" overflow="visible"><path d="M11.844 0 8.64-4.5a9.676 9.676 0 0 1-1.125.063h-3.75V0H2.28v-14h5.235c1.789 0 3.191.43 4.203 1.281 1.008.856 1.515 2.028 1.515 3.516 0 1.094-.277 2.023-.828 2.781-.554.75-1.34 1.293-2.36 1.625L13.454 0Zm-4.36-5.703c1.383 0 2.442-.305 3.172-.922.739-.613 1.11-1.473 1.11-2.578 0-1.133-.371-2.004-1.11-2.61-.73-.601-1.789-.906-3.172-.906H3.766v7.016Zm0 0" style="stroke:none"/></symbol><symbol id="aF" overflow="visible"><path d="M5.453-13.734c-.605 0-1.07.168-1.39.5-.313.336-.47.824-.47 1.468v1.25h3.25v1.204H3.642V0H2.219v-9.313H.344v-1.203h1.875v-1.296c0-.97.273-1.727.828-2.282.55-.562 1.336-.844 2.36-.844.394 0 .78.06 1.155.172.375.118.688.278.938.485l-.484 1.062c-.407-.344-.93-.515-1.563-.515Zm4.906 3.218h1.422V0H10.36Zm.72-2.296a1.04 1.04 0 0 1-.75-.297 1.024 1.024 0 0 1-.298-.735c0-.258.098-.488.297-.687.207-.207.457-.313.75-.313.29 0 .535.102.735.297a.896.896 0 0 1 .312.688c0 .293-.105.543-.313.75-.199.199-.445.296-.734.296Zm0 0" style="stroke:none"/></symbol><symbol id="aG" overflow="visible"><path d="M15.094-10.594c1.32 0 2.36.383 3.11 1.14.757.763 1.14 1.884 1.14 3.36V0h-1.422v-5.953c0-1.094-.266-1.926-.797-2.5-.523-.57-1.262-.86-2.219-.86-1.094 0-1.96.34-2.594 1.016-.624.668-.937 1.594-.937 2.781V0H9.953v-5.953c0-1.094-.265-1.926-.797-2.5-.523-.57-1.265-.86-2.234-.86-1.086 0-1.945.34-2.578 1.016-.625.668-.938 1.594-.938 2.781V0H1.984v-10.516h1.36v1.922a3.766 3.766 0 0 1 1.562-1.484c.664-.344 1.43-.516 2.297-.516.875 0 1.633.188 2.281.563.645.367 1.13.918 1.454 1.656A3.995 3.995 0 0 1 12.608-10c.727-.395 1.555-.594 2.485-.594Zm0 0" style="stroke:none"/></symbol><symbol id="aH" overflow="visible"><path d="M4.64.078c-.761 0-1.437-.195-2.03-.594C2.015-.922 1.55-1.5 1.218-2.25.895-3 .734-3.883.734-4.906c0-1.008.16-1.89.485-2.64.332-.759.797-1.337 1.39-1.735.594-.406 1.27-.61 2.032-.61.75 0 1.421.204 2.015.61.594.398 1.055.976 1.39 1.734.333.75.5 1.633.5 2.64 0 1.024-.167 1.907-.5 2.657-.335.75-.796 1.328-1.39 1.734-.593.399-1.265.594-2.015.594Zm0-.922c.563 0 1.063-.156 1.5-.469.438-.32.774-.785 1.016-1.39.239-.602.36-1.336.36-2.203 0-.852-.121-1.582-.36-2.188-.242-.613-.578-1.078-1.015-1.39a2.516 2.516 0 0 0-1.5-.47c-.575 0-1.079.157-1.516.47-.43.312-.766.777-1.016 1.39-.242.606-.359 1.336-.359 2.188 0 .867.117 1.601.36 2.203.25.605.585 1.07 1.015 1.39.438.313.941.47 1.516.47Zm0 0" style="stroke:none"/></symbol><symbol id="aI" overflow="visible"><path d="M1.484.063a.707.707 0 0 1-.53-.22.73.73 0 0 1-.22-.546.72.72 0 0 1 .22-.531.722.722 0 0 1 .53-.22c.207 0 .383.075.532.22a.735.735 0 0 1 .218.53.745.745 0 0 1-.218.548.72.72 0 0 1-.532.218Zm0 0" style="stroke:none"/></symbol><symbol id="aJ" overflow="visible"><path d="M7.64-9.797v.703L3.548 0H2.453l4.031-8.906H1.438v1.844H.453v-2.735Zm0 0" style="stroke:none"/></symbol><symbol id="aK" overflow="visible"><path d="M3.297-5.781c1.426 0 2.46.258 3.11.765.644.512.968 1.22.968 2.125 0 .575-.137 1.086-.406 1.532-.262.449-.657.804-1.188 1.062-.531.25-1.183.375-1.953.375-.71 0-1.383-.113-2.015-.344-.625-.226-1.125-.53-1.5-.906l.484-.797c.32.336.75.606 1.281.813.54.21 1.117.312 1.735.312.812 0 1.437-.18 1.874-.547.446-.363.672-.847.672-1.453 0-.664-.25-1.172-.75-1.515-.5-.352-1.343-.532-2.53-.532H1l.5-4.906h5.36v.89H2.374L2.047-5.78Zm0 0" style="stroke:none"/></symbol><symbol id="aL" overflow="visible"><path d="M3.438-9.797V0h-1v-8.906H.124v-.89Zm0 0" style="stroke:none"/></symbol><symbol id="aM" overflow="visible"><path d="M7.422-.89V0H.547v-.719l4.078-3.984c.508-.5.852-.93 1.031-1.297.188-.375.282-.75.282-1.125 0-.582-.2-1.031-.594-1.344-.399-.32-.965-.484-1.703-.484-1.149 0-2.04.36-2.672 1.078l-.719-.61c.383-.445.875-.788 1.469-1.03.593-.25 1.258-.376 2-.376 1 0 1.789.243 2.375.72.582.468.875 1.116.875 1.937 0 .5-.117.984-.344 1.453-.219.468-.64 1.008-1.266 1.61L2.031-.892Zm0 0" style="stroke:none"/></symbol><symbol id="aN" overflow="visible"><path d="M4.063-5.594c1.019.055 1.796.328 2.328.828.539.5.812 1.153.812 1.954 0 .562-.137 1.062-.406 1.5-.274.43-.672.765-1.203 1.015-.532.25-1.18.375-1.938.375-.71 0-1.383-.113-2.015-.344C1.016-.492.508-.796.125-1.172l.484-.797c.332.336.77.606 1.313.813.539.21 1.117.312 1.734.312.801 0 1.422-.172 1.86-.515.437-.352.656-.836.656-1.454 0-.601-.219-1.078-.656-1.421-.438-.352-1.102-.532-1.985-.532h-.703V-5.5l2.719-3.406H.53v-.89h6.297v.702Zm0 0" style="stroke:none"/></symbol><symbol id="aQ" overflow="visible"><path d="M3.64-1.61a5.747 5.747 0 0 1-1.89.516C1.094-1.03.535-1.082.078-1.25l.031-.844c.438.156.946.215 1.532.172a4.928 4.928 0 0 0 1.656-.437c.75-.344 1.242-.735 1.484-1.172.239-.446.254-.89.047-1.328-.156-.332-.383-.547-.672-.641a2.252 2.252 0 0 0-.953-.11c-.336.024-.789.094-1.36.22-.698.124-1.265.202-1.702.234a2.582 2.582 0 0 1-1.25-.219c-.407-.176-.727-.52-.97-1.031a2.276 2.276 0 0 1-.187-1.282c.063-.445.278-.878.641-1.296.355-.414.871-.782 1.547-1.094a5.668 5.668 0 0 1 1.469-.453 3.795 3.795 0 0 1 1.406-.016l.047.828a4.657 4.657 0 0 0-1.36.016 4.282 4.282 0 0 0-1.218.36c-.727.335-1.207.73-1.438 1.187-.238.449-.254.89-.047 1.328.149.336.367.555.657.656.292.106.613.14.968.11a12.94 12.94 0 0 0 1.39-.22 14.44 14.44 0 0 1 1.673-.25c.445-.038.867.028 1.265.204.407.18.723.516.954 1.016.195.417.257.851.187 1.296-.074.45-.297.887-.672 1.313-.367.418-.887.781-1.562 1.094Zm0 0" style="stroke:none"/></symbol><symbol id="aR" overflow="visible"><path d="M1.453-8.281a3.37 3.37 0 0 1 1.75-.328 3.134 3.134 0 0 1 1.625.593c.5.356.89.84 1.172 1.454.29.617.41 1.226.36 1.828a3.187 3.187 0 0 1-.579 1.64c-.343.48-.808.856-1.39 1.125-.5.23-1.008.34-1.516.328a2.84 2.84 0 0 1-1.422-.453l1.61 3.438-.844.39-3.953-8.484.812-.375.578 1.234a2.79 2.79 0 0 1 .547-1.406 3.225 3.225 0 0 1 1.25-.984ZM4-2.687a2.575 2.575 0 0 0 1.016-.844c.257-.364.406-.774.437-1.235.031-.468-.07-.937-.297-1.406-.218-.476-.515-.851-.89-1.125a2.296 2.296 0 0 0-1.22-.453c-.448-.04-.882.04-1.296.234-.45.2-.805.485-1.063.86-.25.367-.39.777-.421 1.234-.032.45.062.914.28 1.39.227.47.524.845.891 1.126a2.27 2.27 0 0 0 1.22.469c.445.03.894-.051 1.343-.25Zm0 0" style="stroke:none"/></symbol><symbol id="aS" overflow="visible"><path d="M3.734-1.656a3.714 3.714 0 0 1-1.812.343 3.443 3.443 0 0 1-1.656-.593A3.507 3.507 0 0 1-.922-3.344c-.281-.601-.39-1.207-.328-1.812a3.394 3.394 0 0 1 .625-1.657c.344-.5.816-.882 1.422-1.156a3.458 3.458 0 0 1 1.797-.343 3.16 3.16 0 0 1 1.64.593c.489.356.875.836 1.157 1.438.28.605.398 1.21.359 1.812a3.226 3.226 0 0 1-.594 1.657 3.623 3.623 0 0 1-1.422 1.156Zm-.343-.75a2.575 2.575 0 0 0 1.03-.844c.259-.363.4-.773.423-1.234a2.922 2.922 0 0 0-.313-1.407c-.218-.476-.511-.851-.875-1.125a2.393 2.393 0 0 0-1.203-.468 2.505 2.505 0 0 0-1.312.25c-.438.199-.79.48-1.047.843a2.41 2.41 0 0 0-.438 1.25c-.031.461.063.93.281 1.407.227.468.532.84.907 1.109.375.273.781.43 1.219.469.445.031.89-.051 1.328-.25Zm0 0" style="stroke:none"/></symbol><symbol id="aT" overflow="visible"><path d="M-.36-5.906A2.32 2.32 0 0 1 .079-7.25c.29-.395.727-.727 1.313-1l.375.813-.204.093C.906-7.039.484-6.602.298-6.03c-.188.562-.11 1.21.234 1.937L2-.937l-.844.39-2.89-6.203.812-.375Zm0 0" style="stroke:none"/></symbol><symbol id="aW" overflow="visible"><path d="M4.266-2.438c-.106.211-.258.407-.454.594a2.19 2.19 0 0 1-.671.453c-.575.274-1.094.325-1.563.157-.46-.164-.824-.536-1.094-1.11l-1.75-3.765-1.093.515-.329-.703 1.094-.516-.625-1.343.844-.39.625 1.343 1.89-.875.329.703-1.89.875 1.734 3.719c.164.367.382.601.656.703.281.094.593.062.937-.094.164-.082.317-.187.453-.312.145-.125.254-.266.329-.422Zm0 0" style="stroke:none"/></symbol><symbol id="aX" overflow="visible"><path d="M2.86-1.266a5.242 5.242 0 0 1-1.563.47C.773-.735.336-.75-.016-.845l.063-.844c.351.086.754.102 1.203.047.457-.05.898-.175 1.328-.375.563-.27.938-.554 1.125-.859a.946.946 0 0 0 .063-.938c-.106-.226-.262-.374-.47-.437-.21-.063-.448-.07-.718-.031a7.854 7.854 0 0 0-1 .25c-.543.136-.992.23-1.344.281A1.962 1.962 0 0 1-.78-3.89c-.32-.145-.582-.422-.781-.829-.239-.52-.22-1.047.062-1.578.281-.539.805-.988 1.563-1.344a4.97 4.97 0 0 1 1.28-.39 3.666 3.666 0 0 1 1.188-.047l-.062.844c-.68-.102-1.371.007-2.078.328-.52.25-.868.531-1.047.843-.188.313-.207.622-.063.922a.79.79 0 0 0 .485.454c.218.074.453.09.703.046.258-.039.61-.113 1.047-.218.539-.133.984-.223 1.328-.266.344-.05.672-.016.984.11.313.124.563.386.75.78.25.555.223 1.094-.078 1.626-.293.53-.84.98-1.64 1.343Zm0 0" style="stroke:none"/></symbol><symbol id="ba" overflow="visible"><path d="M-1.297-8.516.22-5.28l4.281-2 .36.75-4.282 2 1.625 3.5-.86.406L-2.5-8.859 3.156-11.5l.344.75Zm0 0" style="stroke:none"/></symbol><symbol id="bd" overflow="visible"><path d="m-1.734-6.75.843-.39L2-.939l-.844.391Zm-.188-1.531a.676.676 0 0 1-.516.015.617.617 0 0 1-.374-.343.613.613 0 0 1-.016-.485.576.576 0 0 1 .344-.375.647.647 0 0 1 .515-.031c.168.055.29.152.36.297.086.18.101.355.046.531a.645.645 0 0 1-.359.39Zm0 0" style="stroke:none"/></symbol><symbol id="be" overflow="visible"><path d="M1.406-8.266c.79-.363 1.52-.425 2.188-.187.664.242 1.203.793 1.61 1.656l1.671 3.594-.844.39-1.64-3.515c-.305-.633-.696-1.047-1.172-1.234-.48-.196-1.016-.16-1.61.109C.941-7.141.504-6.691.297-6.11c-.2.574-.137 1.214.187 1.921L2-.938l-.844.391-2.89-6.203.812-.375.531 1.14c.055-.476.235-.913.547-1.312a3.465 3.465 0 0 1 1.25-.969Zm0 0" style="stroke:none"/></symbol><symbol id="bf" overflow="visible"><path d="M.422-7.797c.812-.383 1.523-.473 2.14-.266.626.2 1.118.696 1.485 1.485l1.797 3.844-.797.39-.453-.969c-.032.407-.188.79-.469 1.141-.281.356-.672.649-1.172.875-.7.324-1.328.418-1.89.281A1.78 1.78 0 0 1-.157-2.03c-.25-.531-.257-1.047-.03-1.547.226-.5.765-.945 1.609-1.344l1.969-.922-.188-.375c-.242-.531-.578-.863-1.015-1-.43-.144-.93-.082-1.5.188a3.746 3.746 0 0 0-1.047.734c-.301.293-.532.617-.688.969l-.656-.453c.187-.414.469-.801.844-1.157.375-.351.804-.64 1.28-.859Zm2.344 5.781c.468-.218.82-.515 1.062-.89.238-.375.348-.805.328-1.297L3.672-5.22l-1.953.922C.656-3.805.297-3.19.64-2.453c.164.355.437.578.812.672.375.086.813.008 1.313-.235Zm0 0" style="stroke:none"/></symbol><symbol id="bi" overflow="visible"><path d="M3.766-1.688c-.618.293-1.227.418-1.829.375a3.233 3.233 0 0 1-1.671-.593A3.507 3.507 0 0 1-.922-3.344c-.281-.601-.39-1.207-.328-1.812a3.394 3.394 0 0 1 .625-1.657C-.27-7.313.211-7.707.828-8a3.653 3.653 0 0 1 1.563-.344c.52.012.992.164 1.421.453l-.421.72A2.06 2.06 0 0 0 2.297-7.5c-.375-.008-.75.07-1.125.234a2.89 2.89 0 0 0-1.078.875 2.41 2.41 0 0 0-.438 1.25c-.031.461.063.93.281 1.407.227.48.532.855.907 1.125a2.5 2.5 0 0 0 1.234.453 2.62 2.62 0 0 0 1.344-.281 2.304 2.304 0 0 0 1.375-1.735l.812.14a2.556 2.556 0 0 1-.578 1.376c-.324.406-.746.73-1.265.969Zm0 0" style="stroke:none"/></symbol><symbol id="bl" overflow="visible"><path d="M5.234-5.906.047-3.484c.344.625.832 1.03 1.469 1.218.644.188 1.312.121 2-.203.375-.176.687-.406.937-.687a2.67 2.67 0 0 0 .563-1.016l.734.328a2.965 2.965 0 0 1-.688 1.25 3.838 3.838 0 0 1-1.234.89c-.637.294-1.262.419-1.875.376a3.337 3.337 0 0 1-1.687-.578A3.507 3.507 0 0 1-.922-3.344a3.53 3.53 0 0 1-.344-1.812 3.21 3.21 0 0 1 .563-1.625 3.24 3.24 0 0 1 1.36-1.125c.581-.27 1.16-.375 1.734-.313a3.154 3.154 0 0 1 1.593.61c.477.355.86.84 1.141 1.453ZM.984-7.172c-.593.274-1.004.688-1.234 1.25-.227.563-.227 1.168 0 1.813l4.406-2.047c-.343-.594-.808-.985-1.39-1.172-.586-.188-1.18-.133-1.782.156Zm0 0" style="stroke:none"/></symbol><symbol id="bo" overflow="visible"><path d="M4.688-2.094c-1.063.5-2.04.586-2.922.25C.89-2.187.18-2.945-.36-4.125l-2.204-4.703.86-.406L.484-4.547c.446.95.993 1.559 1.641 1.828.656.274 1.39.219 2.203-.156.832-.383 1.352-.914 1.563-1.594.207-.676.086-1.488-.36-2.437l-2.187-4.688.86-.39 2.202 4.703c.54 1.18.657 2.215.344 3.11-.305.886-.992 1.577-2.063 2.077Zm0 0" style="stroke:none"/></symbol><symbol id="bq" overflow="visible"><path d="m-2.922-9.281.844-.39L2-.939l-.844.391Zm0 0" style="stroke:none"/></symbol><symbol id="bt" overflow="visible"><path d="M.594-10.297c1.039-.488 1.976-.625 2.812-.406.832.219 1.453.765 1.86 1.64.406.876.425 1.704.062 2.485-.367.781-1.07 1.418-2.11 1.906L.985-3.64l1.22 2.61-.86.406L-2.5-8.859Zm2.234 4.875c.82-.383 1.363-.86 1.625-1.422.258-.562.238-1.164-.062-1.812-.305-.664-.758-1.07-1.36-1.219-.594-.156-1.304-.04-2.125.344l-2.203 1.015 1.922 4.11Zm0 0" style="stroke:none"/></symbol><symbol id="bA" overflow="visible"><path d="M5.984-10.39c.782-.364 1.5-.426 2.157-.188.656.242 1.187.797 1.593 1.672l1.672 3.594-.86.39-1.64-3.516c-.304-.632-.687-1.05-1.156-1.25-.46-.195-.969-.164-1.531.094-.649.305-1.063.742-1.25 1.313-.18.562-.106 1.199.218 1.906l1.516 3.25-.844.39L4.22-6.25C3.914-6.883 3.53-7.3 3.062-7.5c-.46-.195-.976-.164-1.546.094-.649.304-1.063.742-1.25 1.312-.18.563-.106 1.2.218 1.907L2-.938l-.844.39-2.89-6.203.812-.375.531 1.14c.043-.476.211-.91.5-1.296.301-.395.711-.711 1.235-.953.508-.239 1.004-.332 1.484-.282.477.043.914.235 1.313.579.03-.508.207-.985.53-1.422.333-.438.77-.782 1.313-1.032Zm0 0" style="stroke:none"/></symbol><symbol id="bD" overflow="visible"><path d="m2.75-11.922 4.078 8.735-.812.374-.579-1.234a2.687 2.687 0 0 1-.53 1.438c-.313.418-.731.746-1.25.984a3.474 3.474 0 0 1-1.766.344 3.267 3.267 0 0 1-1.641-.61c-.488-.363-.879-.847-1.172-1.453-.281-.613-.394-1.222-.344-1.828a3.073 3.073 0 0 1 .594-1.625 3.594 3.594 0 0 1 1.39-1.14c.509-.239 1.009-.348 1.5-.329.5.024.973.172 1.423.454l-1.735-3.72Zm.64 9.516a2.607 2.607 0 0 0 1.016-.844c.258-.363.399-.773.422-1.234.031-.47-.07-.938-.297-1.407-.218-.476-.515-.851-.89-1.125a2.393 2.393 0 0 0-1.204-.468 2.43 2.43 0 0 0-1.296.25c-.438.199-.79.48-1.047.843a2.41 2.41 0 0 0-.438 1.25c-.031.461.063.93.281 1.407.227.468.532.84.907 1.109.375.273.781.43 1.219.469.445.031.89-.051 1.328-.25Zm0 0" style="stroke:none"/></symbol><symbol id="bG" overflow="visible"><path d="m6.828-4.094.344.75L1.344-.625-2.5-8.859 3.156-11.5l.344.75-4.797 2.234L.078-5.594l4.281-2 .344.735-4.281 2 1.437 3.078Zm0 0" style="stroke:none"/></symbol><symbol id="bP" overflow="visible"><path d="M-.547-8.86-3.453-7.5l-.344-.75 6.672-3.11.344.75-2.89 1.344 3.5 7.485-.876.406Zm0 0" style="stroke:none"/></symbol><symbol id="bU" overflow="visible"><path d="M1.406-8.266c.79-.363 1.52-.425 2.188-.187.664.242 1.203.793 1.61 1.656l1.671 3.594-.844.39-1.64-3.515c-.305-.633-.696-1.047-1.172-1.234-.48-.196-1.016-.16-1.61.109C.941-7.141.504-6.691.297-6.11c-.2.574-.137 1.214.187 1.921L2-.938l-.844.391-4.078-8.734.844-.39 1.687 3.624a2.54 2.54 0 0 1 .563-1.281 3.484 3.484 0 0 1 1.234-.938Zm0 0" style="stroke:none"/></symbol><symbol id="bX" overflow="visible"><path d="m4.016-9.422 2.546 5.453c.489 1.055.594 1.953.313 2.703C6.594-.523 5.937.082 4.906.563a5.787 5.787 0 0 1-1.75.515c-.594.07-1.125.035-1.594-.11l.125-.843c.426.133.891.172 1.391.11.5-.055.985-.188 1.453-.407C5.313-.535 5.801-.984 6-1.516c.195-.53.117-1.187-.234-1.968l-.375-.782a2.75 2.75 0 0 1-.594 1.375 3.494 3.494 0 0 1-1.25.954 3.66 3.66 0 0 1-1.766.359 3.281 3.281 0 0 1-1.625-.547c-.488-.332-.867-.79-1.14-1.375-.27-.582-.375-1.164-.313-1.75a3.08 3.08 0 0 1 .64-1.594C-.3-7.312.165-7.68.75-7.954a3.369 3.369 0 0 1 1.578-.343c.52.012 1 .156 1.438.438l-.547-1.188ZM3.28-2.734a2.634 2.634 0 0 0 1.078-.844c.282-.363.438-.766.47-1.203a2.505 2.505 0 0 0-.25-1.313 2.64 2.64 0 0 0-.845-1.031 2.254 2.254 0 0 0-1.203-.406 2.793 2.793 0 0 0-1.36.265c-.448.22-.808.508-1.077.86-.258.355-.41.758-.453 1.203-.051.437.027.875.234 1.312.207.438.492.782.86 1.032.363.242.765.375 1.203.406a2.62 2.62 0 0 0 1.343-.281Zm0 0" style="stroke:none"/></symbol><symbol id="bY" overflow="visible"><path d="M3.484-9.172 3.61-.797c.032.7-.062 1.242-.28 1.64-.22.407-.56.72-1.017.938-.304.133-.605.211-.906.235a2.06 2.06 0 0 1-.875-.094l.11-.813c.457.164.91.145 1.359-.062.27-.125.469-.313.594-.563.133-.25.195-.601.187-1.062v-.735l-5.656-4.89.86-.406L2.78-2.438l-.125-6.359Zm0 0" style="stroke:none"/></symbol><symbol id="cp" overflow="visible"><path d="M4.563-7.297c.582-.133 1.101-.098 1.562.11.469.21.828.59 1.078 1.14.332.711.328 1.375-.016 2-.343.625-1.027 1.18-2.046 1.656L1.344-.625-2.5-8.859l3.563-1.657c.906-.425 1.695-.578 2.375-.453.687.125 1.187.528 1.5 1.203.218.461.285.903.203 1.329a2.26 2.26 0 0 1-.579 1.14Zm-5.875-1.266 1.406 3 2.64-1.234c.664-.312 1.118-.676 1.36-1.094.238-.425.242-.882.015-1.375-.23-.488-.586-.773-1.062-.859-.48-.094-1.055.016-1.719.328ZM4.78-3.109c.739-.344 1.239-.727 1.5-1.157.258-.425.266-.91.016-1.453-.48-1.031-1.465-1.195-2.953-.5L.422-4.859 1.859-1.75Zm0 0" style="stroke:none"/></symbol><symbol id="cq" overflow="visible"><path d="m3.86-9.36 2.89 6.204-.797.39-.531-1.14c-.043.48-.211.918-.5 1.312a3.049 3.049 0 0 1-1.172.922c-.813.375-1.559.45-2.234.219C.836-1.691.296-2.25-.11-3.125l-1.672-3.594.828-.39 1.64 3.515c.301.649.692 1.07 1.172 1.266.489.187 1.032.14 1.625-.14.645-.302 1.067-.739 1.266-1.313.195-.582.129-1.227-.203-1.938L3.03-8.969Zm0 0" style="stroke:none"/></symbol><symbol id="cz" overflow="visible"><path d="m5.234-7.453.829-.39 1.468 3.14c-.23.523-.57.996-1.015 1.422-.438.43-.95.777-1.532 1.047-.824.386-1.652.554-2.484.5a4.528 4.528 0 0 1-2.25-.782c-.664-.468-1.188-1.097-1.563-1.89a4.708 4.708 0 0 1-.437-2.407 4.31 4.31 0 0 1 .86-2.234c.492-.664 1.148-1.191 1.984-1.578a5.197 5.197 0 0 1 1.875-.516c.613-.05 1.191.04 1.734.266l-.281.797c-.95-.32-1.922-.254-2.922.203-.68.313-1.215.746-1.61 1.297a3.527 3.527 0 0 0-.703 1.812c-.062.668.06 1.32.36 1.954.305.648.723 1.164 1.266 1.546.55.375 1.164.59 1.843.641.676.043 1.348-.094 2.016-.406.844-.395 1.46-.942 1.86-1.64Zm0 0" style="stroke:none"/></symbol><symbol id="cE" overflow="visible"><path d="m-2.5-8.86.86-.406L2.202-1.03l-.86.406Zm0 0" style="stroke:none"/></symbol><symbol id="cH" overflow="visible"><path d="M1.281-.516A.715.715 0 0 1 .75-.5a.762.762 0 0 1-.406-.39.664.664 0 0 1-.031-.532.607.607 0 0 1 .359-.39.644.644 0 0 1 .531-.016c.188.062.32.183.406.36a.676.676 0 0 1 .032.562.735.735 0 0 1-.36.39Zm0 0" style="stroke:none"/></symbol><symbol id="cO" overflow="visible"><path d="m2.016-4.734-.844 2.03L2-.936l-.844.39-4.078-8.734.844-.39L.687-3.75l2.125-5.11 1.032-.484L2.39-5.578 6.984-3.25l-1.015.469Zm0 0" style="stroke:none"/></symbol><symbol id="cV" overflow="visible"><path d="m7.375-10.984.547 7.296-.797.36-4.328-4.156.422 5.984-.797.375-5.219-5.125.797-.375 4.406 4.36-.469-6.188.72-.344 4.437 4.344-.485-6.188Zm0 0" style="stroke:none"/></symbol><symbol id="cY" overflow="visible"><path d="m6.063-12.86 3.843 8.235-.828.39L6-10.827l-.656 7.062-.407.188-5.812-4 3.063 6.562-.844.391L-2.5-8.859l.719-.344 6.437 4.422.688-7.735Zm0 0" style="stroke:none"/></symbol><symbol id="df" overflow="visible"><path d="M5.484-5.234.891-3.094.937-.438l-.906.422L-.047-10l.86-.406 7.609 6.484L7.5-3.5Zm-.64-.579L.797-9.296l.078 5.328Zm0 0" style="stroke:none"/></symbol><symbol id="ew" overflow="visible"><path d="M6.266.094c-1.043 0-1.98-.227-2.813-.688a5.17 5.17 0 0 1-1.969-1.922C1.016-3.328.781-4.238.781-5.25c0-1.008.235-1.922.703-2.734a5.075 5.075 0 0 1 1.97-1.907c.843-.468 1.784-.703 2.827-.703.782 0 1.5.133 2.157.39.664.263 1.226.642 1.687 1.142l-.703.703c-.824-.82-1.86-1.235-3.11-1.235-.835 0-1.59.196-2.265.578a4.1 4.1 0 0 0-1.594 1.547c-.387.657-.578 1.399-.578 2.219 0 .824.191 1.563.578 2.219.383.656.914 1.18 1.594 1.562.676.375 1.43.563 2.266.563 1.257 0 2.296-.414 3.109-1.25l.703.703A4.63 4.63 0 0 1 8.437-.297c-.667.262-1.39.39-2.171.39Zm0 0" style="stroke:none"/></symbol><symbol id="ex" overflow="visible"><path d="M4.25-7.953c1.031 0 1.816.262 2.36.781.55.512.827 1.274.827 2.281V0H6.423v-1.234a2.398 2.398 0 0 1-1.063.968c-.46.23-1.011.344-1.656.344-.875 0-1.574-.207-2.094-.625C1.086-.973.83-1.53.83-2.219c0-.664.237-1.203.718-1.61.488-.413 1.266-.624 2.328-.624h2.5v-.484c0-.676-.195-1.192-.578-1.547-.375-.352-.93-.532-1.656-.532-.5 0-.98.086-1.438.25-.46.157-.855.383-1.187.672L1.03-6.89a4.543 4.543 0 0 1 1.438-.78 5.596 5.596 0 0 1 1.781-.282ZM3.875-.766c.594 0 1.102-.132 1.531-.406.438-.281.758-.68.969-1.203v-1.281H3.906c-1.355 0-2.031.469-2.031 1.406 0 .46.172.824.516 1.094.351.261.847.39 1.484.39Zm0 0" style="stroke:none"/></symbol><symbol id="ey" overflow="visible"><path d="M1.484-11.125h1.063V0H1.484Zm0 0" style="stroke:none"/></symbol><symbol id="ez" overflow="visible"><path d="M1.484-7.89h1.063V0H1.484Zm.547-1.72a.784.784 0 0 1-.562-.218.76.76 0 0 1-.219-.547.72.72 0 0 1 .219-.531.801.801 0 0 1 .562-.219c.219 0 .399.074.547.219.156.148.235.32.235.515a.767.767 0 0 1-.235.563.736.736 0 0 1-.547.219Zm0 0" style="stroke:none"/></symbol><symbol id="eA" overflow="visible"><path d="M5.547-7.953c.738 0 1.406.172 2 .516a3.633 3.633 0 0 1 1.422 1.421c.344.606.515 1.297.515 2.079 0 .773-.171 1.464-.515 2.078A3.699 3.699 0 0 1 7.547-.422c-.594.336-1.262.5-2 .5-.656 0-1.25-.14-1.781-.422A3.266 3.266 0 0 1 2.5-1.563V0H1.484v-11.125h1.063v4.734a3.29 3.29 0 0 1 1.265-1.156 3.71 3.71 0 0 1 1.735-.406ZM5.469-.875c.55 0 1.05-.125 1.5-.375A2.678 2.678 0 0 0 8.03-2.344c.258-.469.39-1 .39-1.594 0-.601-.132-1.14-.39-1.609A2.594 2.594 0 0 0 6.97-6.625c-.45-.258-.95-.39-1.5-.39-.555 0-1.055.132-1.5.39-.45.25-.805.61-1.063 1.078-.25.469-.375 1.008-.375 1.61 0 .593.125 1.124.375 1.593A2.78 2.78 0 0 0 3.97-1.25c.445.25.945.375 1.5.375Zm0 0" style="stroke:none"/></symbol><symbol id="eB" overflow="visible"><path d="M2.5-6.344c.25-.531.617-.93 1.11-1.203.5-.27 1.113-.406 1.843-.406v1.031l-.25-.016c-.836 0-1.484.258-1.953.766-.469.512-.703 1.23-.703 2.156V0H1.484v-7.89H2.5Zm0 0" style="stroke:none"/></symbol><symbol id="eC" overflow="visible"><path d="M5.64-.484a1.9 1.9 0 0 1-.75.421c-.292.094-.6.141-.921.141-.742 0-1.309-.195-1.703-.594-.399-.406-.594-.972-.594-1.703v-4.765H.25v-.907h1.422v-1.718h1.062v1.718h2.391v.907h-2.39v4.703c0 .469.113.828.343 1.078.238.242.578.36 1.016.36.218 0 .43-.032.64-.095.207-.07.383-.175.532-.312Zm0 0" style="stroke:none"/></symbol><symbol id="eD" overflow="visible"><path d="M4.703.078c-.762 0-1.45-.172-2.062-.515a3.764 3.764 0 0 1-1.438-1.438C.86-2.488.687-3.175.687-3.938c0-.769.172-1.46.516-2.078a3.697 3.697 0 0 1 1.438-1.421c.613-.344 1.3-.516 2.062-.516.758 0 1.445.172 2.063.516a3.596 3.596 0 0 1 1.437 1.421c.344.618.516 1.309.516 2.079 0 .761-.172 1.449-.516 2.062A3.66 3.66 0 0 1 6.766-.437a4.166 4.166 0 0 1-2.063.515Zm0-.953A3.06 3.06 0 0 0 6.22-1.25a2.716 2.716 0 0 0 1.047-1.094c.25-.469.375-1 .375-1.594 0-.601-.125-1.14-.375-1.609a2.628 2.628 0 0 0-1.047-1.078 2.989 2.989 0 0 0-1.516-.39c-.555 0-1.055.132-1.5.39-.45.25-.805.61-1.062 1.078-.25.469-.375 1.008-.375 1.61 0 .593.125 1.124.375 1.593A2.78 2.78 0 0 0 3.203-1.25c.445.25.945.375 1.5.375Zm0 0" style="stroke:none"/></symbol><symbol id="eE" overflow="visible"><path d="M5.5-7.953c.988 0 1.773.293 2.36.875.593.574.89 1.406.89 2.5V0H7.687v-4.469c0-.82-.21-1.445-.625-1.875-.406-.426-.992-.64-1.75-.64-.855 0-1.53.257-2.03.765-.493.5-.735 1.196-.735 2.078V0H1.484v-7.89H2.5v1.452c.29-.476.691-.847 1.203-1.109.52-.27 1.117-.406 1.797-.406Zm0 0" style="stroke:none"/></symbol><symbol id="eF" overflow="visible"><path d="m8.875 0-2.39-3.375a7.428 7.428 0 0 1-.844.047H2.812V0H1.704v-10.5h3.938c1.343 0 2.394.324 3.156.969.758.636 1.14 1.511 1.14 2.625 0 .824-.21 1.523-.624 2.093-.418.563-1.012.97-1.782 1.22L10.094 0ZM5.609-4.281c1.04 0 1.832-.227 2.375-.688.551-.457.829-1.101.829-1.937 0-.844-.278-1.492-.829-1.953-.543-.457-1.336-.688-2.375-.688H2.813v5.266Zm0 0" style="stroke:none"/></symbol><symbol id="eG" overflow="visible"><path d="M8.36-3.61H1.75c.063.813.379 1.477.953 1.985.57.5 1.29.75 2.156.75.489 0 .938-.082 1.344-.25a2.99 2.99 0 0 0 1.078-.781l.594.687a3.37 3.37 0 0 1-1.313.969 4.455 4.455 0 0 1-1.734.328c-.812 0-1.531-.172-2.156-.515a3.713 3.713 0 0 1-1.469-1.438C.86-2.488.687-3.175.687-3.938c0-.769.165-1.46.5-2.078a3.545 3.545 0 0 1 1.375-1.421 3.885 3.885 0 0 1 1.985-.516c.726 0 1.379.172 1.953.516.582.335 1.04.808 1.375 1.421.332.606.5 1.297.5 2.079ZM4.546-7.03c-.762 0-1.402.246-1.922.734-.512.48-.805 1.11-.875 1.89h5.594c-.063-.78-.356-1.41-.875-1.89-.512-.488-1.153-.734-1.922-.734Zm0 0" style="stroke:none"/></symbol><symbol id="eH" overflow="visible"><path d="M4.094-10.313c-.461 0-.809.126-1.047.376-.23.25-.344.624-.344 1.124v.922h2.422v.907h-2.39V0H1.671v-6.984H.25v-.907h1.422v-.968c0-.72.203-1.286.61-1.704.413-.425 1.003-.64 1.765-.64.3 0 .594.043.875.125.281.086.516.21.703.375l-.36.781c-.312-.258-.702-.39-1.171-.39ZM7.766-7.89h1.062V0H7.766Zm.546-1.718a.784.784 0 0 1-.562-.22.76.76 0 0 1-.219-.546.72.72 0 0 1 .219-.531.801.801 0 0 1 .563-.219c.218 0 .398.074.546.219.157.148.235.32.235.515a.767.767 0 0 1-.235.563.736.736 0 0 1-.546.219Zm0 0" style="stroke:none"/></symbol><symbol id="eI" overflow="visible"><path d="M11.328-7.953c.988 0 1.766.289 2.328.86.563.573.844 1.413.844 2.515V0h-1.063v-4.469c0-.82-.199-1.445-.593-1.875-.399-.426-.953-.64-1.672-.64-.824 0-1.469.257-1.938.765-.468.5-.703 1.196-.703 2.078V0H7.47v-4.469c0-.82-.2-1.445-.594-1.875-.398-.426-.96-.64-1.688-.64-.812 0-1.46.257-1.937.765-.469.5-.703 1.196-.703 2.078V0H1.484v-7.89H2.5v1.437a2.89 2.89 0 0 1 1.172-1.11c.5-.257 1.078-.39 1.734-.39.657 0 1.223.14 1.703.422.489.281.852.699 1.094 1.25.29-.52.707-.926 1.25-1.219.55-.3 1.176-.453 1.875-.453Zm0 0" style="stroke:none"/></symbol><g clip-path="url(#a)"><g id="dh" clip-path="url(#b)"><path d="M0 .816h21v275H0Zm0 0" style="stroke:none;fill-rule:nonzero;fill:#5d9648;fill-opacity:1"/></g></g><g clip-path="url(#c)"><g id="dj" clip-path="url(#d)"><path d="M0 .816h21v282H0Zm0 0" style="stroke:none;fill-rule:nonzero;fill:#5d9648;fill-opacity:1"/></g></g><g clip-path="url(#e)"><g id="dl" clip-path="url(#f)"><path d="M0 .816h21v288H0Zm0 0" style="stroke:none;fill-rule:nonzero;fill:#5d9648;fill-opacity:1"/></g></g><g clip-path="url(#g)"><g id="dn" clip-path="url(#h)"><path d="M0 .816h21v277H0Zm0 0" style="stroke:none;fill-rule:nonzero;fill:#5d9648;fill-opacity:1"/></g></g><g clip-path="url(#i)"><g id="dp" clip-path="url(#j)"><path d="M0 .816h20v280H0Zm0 0" style="stroke:none;fill-rule:nonzero;fill:#5d9648;fill-opacity:1"/></g></g><g clip-path="url(#k)"><g id="dr" clip-path="url(#l)"><path d="M0 .816h20v275H0Zm0 0" style="stroke:none;fill-rule:nonzero;fill:#5d9648;fill-opacity:1"/></g></g><g clip-path="url(#m)"><g id="dt" clip-path="url(#n)"><path d="M0 .816h21v270H0Zm0 0" style="stroke:none;fill-rule:nonzero;fill:#5d9648;fill-opacity:1"/></g></g><g clip-path="url(#o)"><g id="dv" clip-path="url(#p)"><path d="M0 .816h21v239H0Zm0 0" style="stroke:none;fill-rule:nonzero;fill:#5d9648;fill-opacity:1"/></g></g><g clip-path="url(#q)"><g id="dx" clip-path="url(#r)"><path d="M0 .816h21v270H0Zm0 0" style="stroke:none;fill-rule:nonzero;fill:#5d9648;fill-opacity:1"/></g></g><g clip-path="url(#s)"><g id="dz" clip-path="url(#t)"><path d="M0 .816h21v265H0Zm0 0" style="stroke:none;fill-rule:nonzero;fill:#5d9648;fill-opacity:1"/></g></g><g clip-path="url(#u)"><g id="dB" clip-path="url(#v)"><path d="M0 .816h20v223H0Zm0 0" style="stroke:none;fill-rule:nonzero;fill:#5d9648;fill-opacity:1"/></g></g><g clip-path="url(#w)"><g id="dD" clip-path="url(#x)"><path d="M0 .816h21v258H0Zm0 0" style="stroke:none;fill-rule:nonzero;fill:#5d9648;fill-opacity:1"/></g></g><g clip-path="url(#y)"><g id="dF" clip-path="url(#z)"><path d="M0 .816h21v219H0Zm0 0" style="stroke:none;fill-rule:nonzero;fill:#5d9648;fill-opacity:1"/></g></g><g clip-path="url(#A)"><g id="dH" clip-path="url(#B)"><path d="M0 .816h21v238H0Zm0 0" style="stroke:none;fill-rule:nonzero;fill:#5d9648;fill-opacity:1"/></g></g><g clip-path="url(#C)"><g id="dJ" clip-path="url(#D)"><path d="M0 .816h21v272H0Zm0 0" style="stroke:none;fill-rule:nonzero;fill:#5d9648;fill-opacity:1"/></g></g><g clip-path="url(#E)"><g id="dL" clip-path="url(#F)"><path d="M0 .816h20v207H0Zm0 0" style="stroke:none;fill-rule:nonzero;fill:#5d9648;fill-opacity:1"/></g></g><g clip-path="url(#G)"><g id="dN" clip-path="url(#H)"><path d="M0 .816h20v296H0Zm0 0" style="stroke:none;fill-rule:nonzero;fill:#5d9648;fill-opacity:1"/></g></g><g clip-path="url(#I)"><g id="dP" clip-path="url(#J)"><path d="M0 .816h20v8H0Zm0 0" style="stroke:none;fill-rule:nonzero;fill:#2e578c;fill-opacity:1"/></g></g><g clip-path="url(#K)"><g id="dR" clip-path="url(#L)"><path d="M0 .816h21v32H0Zm0 0" style="stroke:none;fill-rule:nonzero;fill:#2e578c;fill-opacity:1"/></g></g><g clip-path="url(#M)"><g id="dT" clip-path="url(#N)"><path d="M0 .816h21v21H0Zm0 0" style="stroke:none;fill-rule:nonzero;fill:#2e578c;fill-opacity:1"/></g></g><g clip-path="url(#O)"><g id="dV" clip-path="url(#P)"><path d="M0 .816h21v61H0Zm0 0" style="stroke:none;fill-rule:nonzero;fill:#2e578c;fill-opacity:1"/></g></g><g clip-path="url(#Q)"><g id="dX" clip-path="url(#R)"><path d="M0 .816h21v27H0Zm0 0" style="stroke:none;fill-rule:nonzero;fill:#2e578c;fill-opacity:1"/></g></g><g clip-path="url(#S)"><g id="dZ" clip-path="url(#T)"><path d="M0 .816h20v37H0Zm0 0" style="stroke:none;fill-rule:nonzero;fill:#2e578c;fill-opacity:1"/></g></g><g clip-path="url(#U)"><g id="eb" clip-path="url(#V)"><path d="M0 .816h20v74H0Zm0 0" style="stroke:none;fill-rule:nonzero;fill:#2e578c;fill-opacity:1"/></g></g><g clip-path="url(#W)"><g id="ed" clip-path="url(#X)"><path d="M0 .816h21v123H0Zm0 0" style="stroke:none;fill-rule:nonzero;fill:#2e578c;fill-opacity:1"/></g></g><g clip-path="url(#Y)"><g id="ef" clip-path="url(#Z)"><path d="M0 .816h21v62H0Zm0 0" style="stroke:none;fill-rule:nonzero;fill:#2e578c;fill-opacity:1"/></g></g><g clip-path="url(#aa)"><g id="eh" clip-path="url(#ab)"><path d="M0 .816h21v34H0Zm0 0" style="stroke:none;fill-rule:nonzero;fill:#2e578c;fill-opacity:1"/></g></g><g clip-path="url(#ac)"><g id="ej" clip-path="url(#ad)"><path d="M0 .816h21v26H0Zm0 0" style="stroke:none;fill-rule:nonzero;fill:#2e578c;fill-opacity:1"/></g></g><g clip-path="url(#ae)"><g id="el" clip-path="url(#af)"><path d="M0 .816h20v71H0Zm0 0" style="stroke:none;fill-rule:nonzero;fill:#2e578c;fill-opacity:1"/></g></g><g clip-path="url(#ag)"><g id="en" clip-path="url(#ah)"><path d="M0 .816h21v42H0Zm0 0" style="stroke:none;fill-rule:nonzero;fill:#2e578c;fill-opacity:1"/></g></g><g clip-path="url(#ai)"><g id="ep" clip-path="url(#aj)"><path d="M0 .816h21v44H0Zm0 0" style="stroke:none;fill-rule:nonzero;fill:#2e578c;fill-opacity:1"/></g></g><g clip-path="url(#ak)"><g id="er" clip-path="url(#al)"><path d="M0 .816h21v30H0Zm0 0" style="stroke:none;fill-rule:nonzero;fill:#2e578c;fill-opacity:1"/></g></g><g clip-path="url(#am)"><g id="et" clip-path="url(#an)"><path d="M0 .816h21v89H0Zm0 0" style="stroke:none;fill-rule:nonzero;fill:#2e578c;fill-opacity:1"/></g></g><g clip-path="url(#ao)"><g id="ev" clip-path="url(#ap)"><path d="M0 .816h20v13H0Zm0 0" style="stroke:none;fill-rule:nonzero;fill:#2e578c;fill-opacity:1"/></g></g></defs><g style="fill:#000;fill-opacity:1"><use xlink:href="#aq" x="331" y="18.816"/><use xlink:href="#ar" x="346.08" y="18.816"/></g><g style="fill:#000;fill-opacity:1"><use xlink:href="#as" x="353.94" y="18.816"/><use xlink:href="#at" x="359.32" y="18.816"/><use xlink:href="#ar" x="371.4" y="18.816"/><use xlink:href="#au" x="379.42" y="18.816"/><use xlink:href="#av" x="384.66" y="18.816"/><use xlink:href="#au" x="396.16" y="18.816"/><use xlink:href="#aw" x="401.4" y="18.816"/></g><g style="fill:#000;fill-opacity:1"><use xlink:href="#ax" x="415.62" y="18.816"/><use xlink:href="#ay" x="427.42" y="18.816"/><use xlink:href="#as" x="432.8" y="18.816"/><use xlink:href="#az" x="438.18" y="18.816"/><use xlink:href="#ar" x="451.74" y="18.816"/></g><g style="fill:#000;fill-opacity:1"><use xlink:href="#ax" x="459.58" y="18.816"/><use xlink:href="#aA" x="471.38" y="18.816"/><use xlink:href="#as" x="479.5" y="18.816"/><use xlink:href="#aB" x="484.88" y="18.816"/><use xlink:href="#aC" x="497.42" y="18.816"/><use xlink:href="#au" x="510.96" y="18.816"/><use xlink:href="#aD" x="516.2" y="18.816"/><use xlink:href="#au" x="527.7" y="18.816"/><use xlink:href="#aE" x="532.94" y="18.816"/><use xlink:href="#at" x="547.4" y="18.816"/></g><use xlink:href="#aF" x="559.48" y="18.816" style="fill:#000;fill-opacity:1"/><use xlink:href="#aC" x="573.24" y="18.816" style="fill:#000;fill-opacity:1"/><g style="fill:#000;fill-opacity:1"><use xlink:href="#at" x="586.82" y="18.816"/><use xlink:href="#aG" x="598.9" y="18.816"/></g><g style="fill:#000;fill-opacity:1"><use xlink:href="#at" x="620.16" y="18.816"/><use xlink:href="#aC" x="632.24" y="18.816"/><use xlink:href="#aA" x="645.78" y="18.816"/></g><path d="M52 312.316h880M52 221.316h880M52 130.316h880M52 40.316h880" style="fill:none;stroke-width:1;stroke-linecap:butt;stroke-linejoin:miter;stroke:#d5d5d5;stroke-opacity:1;stroke-dasharray:2,2;stroke-miterlimit:4"/><use xlink:href="#aH" x="28" y="407.816" style="fill:#000;fill-opacity:1"/><g style="fill:#000;fill-opacity:1"><use xlink:href="#aH" y="317.816"/><use xlink:href="#aI" x="9.114" y="317.816"/><use xlink:href="#aH" x="11.928" y="317.816"/></g><use xlink:href="#aJ" x="21.084" y="317.816" style="fill:#000;fill-opacity:1"/><use xlink:href="#aK" x="29.064" y="317.816" style="fill:#000;fill-opacity:1"/><use xlink:href="#aH" x="13" y="226.816" style="fill:#000;fill-opacity:1"/><use xlink:href="#aI" x="22.114" y="226.816" style="fill:#000;fill-opacity:1"/><g style="fill:#000;fill-opacity:1"><use xlink:href="#aL" x="24.914" y="226.816"/><use xlink:href="#aK" x="29.968" y="226.816"/></g><use xlink:href="#aH" x="1" y="135.816" style="fill:#000;fill-opacity:1"/><use xlink:href="#aI" x="10.114" y="135.816" style="fill:#000;fill-opacity:1"/><g style="fill:#000;fill-opacity:1"><use xlink:href="#aM" x="13.222" y="135.816"/><use xlink:href="#aM" x="21.174" y="135.816"/><use xlink:href="#aK" x="29.126" y="135.816"/></g><g style="fill:#000;fill-opacity:1"><use xlink:href="#aH" x="17" y="45.816"/><use xlink:href="#aI" x="26.114" y="45.816"/></g><use xlink:href="#aN" x="29.222" y="45.816" style="fill:#000;fill-opacity:1"/><path d="M51.5 402.316h881" style="fill:none;stroke-width:1;stroke-linecap:square;stroke-linejoin:miter;stroke:#000;stroke-opacity:1;stroke-miterlimit:4"/><g clip-path="url(#aO)"><g clip-path="url(#aP)" style="fill:#000;fill-opacity:1"><use xlink:href="#aQ" x="60.398" y="438.495"/><use xlink:href="#aR" x="67.643" y="435.117"/><use xlink:href="#aS" x="75.632" y="431.392"/><use xlink:href="#aT" x="83.019" y="427.947"/></g></g><g clip-path="url(#aU)"><g clip-path="url(#aV)" style="fill:#000;fill-opacity:1"><use xlink:href="#aW" x="87.92" y="425.661"/><use xlink:href="#aX" x="92.704" y="423.431"/></g></g><g clip-path="url(#aY)"><g clip-path="url(#aZ)"><use xlink:href="#ba" x="107.708" y="442.698" style="fill:#000;fill-opacity:1"/></g></g><g clip-path="url(#bb)"><g clip-path="url(#bc)" style="fill:#000;fill-opacity:1"><use xlink:href="#bd" x="115.048" y="439.276"/><use xlink:href="#be" x="118.217" y="437.798"/><use xlink:href="#bf" x="126.194" y="434.078"/><use xlink:href="#be" x="133.145" y="430.837"/></g></g><g clip-path="url(#bg)"><g clip-path="url(#bh)"><use xlink:href="#bi" x="141.145" y="427.106" style="fill:#000;fill-opacity:1"/></g></g><g clip-path="url(#bj)"><g clip-path="url(#bk)"><use xlink:href="#bl" x="147.672" y="424.063" style="fill:#000;fill-opacity:1"/></g></g><g clip-path="url(#bm)"><g clip-path="url(#bn)" style="fill:#000;fill-opacity:1"><use xlink:href="#bo" x="152.202" y="449.527"/><use xlink:href="#aQ" x="161.533" y="445.176"/><use xlink:href="#bp" x="168.779" y="441.797"/><use xlink:href="#aR" x="171.866" y="440.358"/><use xlink:href="#aS" x="179.854" y="436.633"/><use xlink:href="#bq" x="187.242" y="433.188"/><use xlink:href="#bd" x="190.411" y="431.71"/><use xlink:href="#aW" x="193.58" y="430.232"/><use xlink:href="#bd" x="198.364" y="428.002"/><use xlink:href="#bi" x="201.533" y="426.524"/><use xlink:href="#aX" x="208.167" y="423.431"/></g></g><g clip-path="url(#br)"><g clip-path="url(#bs)"><use xlink:href="#bt" x="209.209" y="444.687" style="fill:#000;fill-opacity:1"/></g></g><g clip-path="url(#bu)"><g clip-path="url(#bv)" style="fill:#000;fill-opacity:1"><use xlink:href="#bl" x="217.515" y="440.814"/><use xlink:href="#aT" x="224.631" y="437.495"/></g></g><g clip-path="url(#bw)"><g clip-path="url(#bx)" style="fill:#000;fill-opacity:1"><use xlink:href="#aX" x="229.309" y="435.314"/><use xlink:href="#aS" x="235.07" y="432.628"/><use xlink:href="#be" x="242.458" y="429.183"/><use xlink:href="#bf" x="250.434" y="425.464"/><use xlink:href="#bq" x="257.385" y="422.222"/></g></g><g clip-path="url(#by)"><g clip-path="url(#bz)" style="fill:#000;fill-opacity:1"><use xlink:href="#aQ" x="249.002" y="455.9"/><use xlink:href="#aS" x="256.248" y="452.522"/><use xlink:href="#bi" x="263.635" y="449.077"/><use xlink:href="#bd" x="270.269" y="445.984"/><use xlink:href="#bf" x="273.438" y="444.506"/><use xlink:href="#bq" x="280.389" y="441.264"/><use xlink:href="#bp" x="283.559" y="439.786"/><use xlink:href="#bA" x="286.645" y="438.347"/></g></g><g clip-path="url(#bB)"><g clip-path="url(#bC)" style="fill:#000;fill-opacity:1"><use xlink:href="#bl" x="299.17" y="432.507"/><use xlink:href="#bD" x="306.286" y="429.188"/><use xlink:href="#bd" x="314.274" y="425.464"/><use xlink:href="#bf" x="317.444" y="423.986"/></g></g><g clip-path="url(#bE)"><g clip-path="url(#bF)" style="fill:#000;fill-opacity:1"><use xlink:href="#bG" x="294.657" y="461.647"/><use xlink:href="#be" x="302.539" y="457.972"/><use xlink:href="#aW" x="310.515" y="454.252"/></g></g><g clip-path="url(#bH)"><g clip-path="url(#bI)" style="fill:#000;fill-opacity:1"><use xlink:href="#bl" x="315.075" y="452.126"/><use xlink:href="#aT" x="322.191" y="448.808"/></g></g><g clip-path="url(#bJ)"><g clip-path="url(#bK)" style="fill:#000;fill-opacity:1"><use xlink:href="#aW" x="327.093" y="446.522"/><use xlink:href="#bf" x="331.876" y="444.292"/><use xlink:href="#bd" x="338.828" y="441.05"/><use xlink:href="#be" x="341.997" y="439.572"/><use xlink:href="#bA" x="349.973" y="435.853"/></g></g><g clip-path="url(#bL)"><g clip-path="url(#bM)" style="fill:#000;fill-opacity:1"><use xlink:href="#bl" x="362.498" y="430.013"/><use xlink:href="#be" x="369.614" y="426.694"/><use xlink:href="#aW" x="377.59" y="422.975"/></g></g><g clip-path="url(#bN)"><g clip-path="url(#bO)"><use xlink:href="#bP" x="356.253" y="452.527" style="fill:#000;fill-opacity:1"/></g></g><g clip-path="url(#bQ)"><g clip-path="url(#bR)" style="fill:#000;fill-opacity:1"><use xlink:href="#bl" x="362.367" y="449.676"/><use xlink:href="#bi" x="369.484" y="446.357"/></g></g><g clip-path="url(#bS)"><g clip-path="url(#bT)" style="fill:#000;fill-opacity:1"><use xlink:href="#bU" x="376.023" y="443.308"/><use xlink:href="#be" x="383.999" y="439.589"/></g></g><g clip-path="url(#bV)"><g clip-path="url(#bW)" style="fill:#000;fill-opacity:1"><use xlink:href="#aS" x="391.999" y="435.858"/><use xlink:href="#bq" x="399.387" y="432.413"/><use xlink:href="#aS" x="402.556" y="430.936"/><use xlink:href="#bX" x="409.943" y="427.491"/><use xlink:href="#bY" x="418.026" y="423.722"/></g></g><g clip-path="url(#bZ)"><g clip-path="url(#ca)" style="fill:#000;fill-opacity:1"><use xlink:href="#aQ" x="419.245" y="442.105"/><use xlink:href="#bi" x="426.491" y="438.726"/><use xlink:href="#bd" x="433.124" y="435.633"/><use xlink:href="#bl" x="436.293" y="434.155"/><use xlink:href="#be" x="443.41" y="430.837"/></g></g><g clip-path="url(#cb)"><g clip-path="url(#cc)"><use xlink:href="#bi" x="451.41" y="427.106" style="fill:#000;fill-opacity:1"/></g></g><g clip-path="url(#cd)"><g clip-path="url(#ce)"><use xlink:href="#bl" x="457.937" y="424.063" style="fill:#000;fill-opacity:1"/></g></g><g clip-path="url(#cf)"><g clip-path="url(#cg)"><use xlink:href="#bG" x="461.388" y="451.126" style="fill:#000;fill-opacity:1"/></g></g><g clip-path="url(#ch)"><g clip-path="url(#ci)"><use xlink:href="#bi" x="469.176" y="447.495" style="fill:#000;fill-opacity:1"/></g></g><g clip-path="url(#cj)"><g clip-path="url(#ck)" style="fill:#000;fill-opacity:1"><use xlink:href="#aS" x="475.704" y="444.451"/><use xlink:href="#be" x="483.091" y="441.006"/></g></g><g clip-path="url(#cl)"><g clip-path="url(#cm)" style="fill:#000;fill-opacity:1"><use xlink:href="#aS" x="491.091" y="437.276"/><use xlink:href="#bA" x="498.478" y="433.831"/><use xlink:href="#bd" x="510.979" y="428.002"/><use xlink:href="#bi" x="514.148" y="426.524"/><use xlink:href="#aX" x="520.781" y="423.431"/></g></g><g clip-path="url(#cn)"><g clip-path="url(#co)" style="fill:#000;fill-opacity:1"><use xlink:href="#cp" x="519.591" y="445.171"/><use xlink:href="#cq" x="528.475" y="441.028"/><use xlink:href="#aX" x="536.404" y="437.331"/><use xlink:href="#bd" x="542.165" y="434.644"/><use xlink:href="#be" x="545.335" y="433.166"/></g></g><g clip-path="url(#cr)"><g clip-path="url(#cs)" style="fill:#000;fill-opacity:1"><use xlink:href="#bl" x="553.335" y="429.436"/><use xlink:href="#aX" x="560.451" y="426.117"/><use xlink:href="#aX" x="566.212" y="423.431"/></g></g><g clip-path="url(#ct)"><g clip-path="url(#cu)"><use xlink:href="#bt" x="576.409" y="440.506" style="fill:#000;fill-opacity:1"/></g></g><g clip-path="url(#cv)"><g clip-path="url(#cw)" style="fill:#000;fill-opacity:1"><use xlink:href="#aS" x="584.716" y="436.633"/><use xlink:href="#bq" x="592.103" y="433.188"/><use xlink:href="#bd" x="595.272" y="431.71"/><use xlink:href="#aW" x="598.442" y="430.232"/><use xlink:href="#bd" x="603.225" y="428.002"/><use xlink:href="#bi" x="606.394" y="426.524"/><use xlink:href="#aX" x="613.028" y="423.431"/></g></g><g clip-path="url(#cx)"><g clip-path="url(#cy)" style="fill:#000;fill-opacity:1"><use xlink:href="#cz" x="625.51" y="443.039"/><use xlink:href="#bf" x="634.618" y="438.792"/><use xlink:href="#bA" x="641.569" y="435.551"/><use xlink:href="#bd" x="654.07" y="429.721"/><use xlink:href="#be" x="657.239" y="428.243"/></g></g><g clip-path="url(#cA)"><g clip-path="url(#cB)"><use xlink:href="#bX" x="665.239" y="424.513" style="fill:#000;fill-opacity:1"/></g></g><g clip-path="url(#cC)"><g clip-path="url(#cD)" style="fill:#000;fill-opacity:1"><use xlink:href="#cE" x="669.192" y="450.626"/><use xlink:href="#be" x="672.75" y="448.967"/><use xlink:href="#aW" x="680.726" y="445.248"/></g></g><g clip-path="url(#cF)"><g clip-path="url(#cG)" style="fill:#000;fill-opacity:1"><use xlink:href="#cH" x="685.628" y="442.962"/><use xlink:href="#bp" x="688.125" y="441.797"/><use xlink:href="#aR" x="691.212" y="440.358"/><use xlink:href="#aS" x="699.2" y="436.633"/><use xlink:href="#bq" x="706.588" y="433.188"/><use xlink:href="#bd" x="709.757" y="431.71"/><use xlink:href="#aW" x="712.926" y="430.232"/><use xlink:href="#bd" x="717.71" y="428.002"/><use xlink:href="#bi" x="720.879" y="426.524"/><use xlink:href="#aX" x="727.513" y="423.431"/></g></g><g clip-path="url(#cI)"><g clip-path="url(#cJ)"><use xlink:href="#bG" x="722.746" y="449.005" style="fill:#000;fill-opacity:1"/></g></g><g clip-path="url(#cK)"><g clip-path="url(#cL)" style="fill:#000;fill-opacity:1"><use xlink:href="#bD" x="730.534" y="445.374"/><use xlink:href="#cq" x="738.522" y="441.649"/><use xlink:href="#bi" x="746.452" y="437.951"/><use xlink:href="#bf" x="753.085" y="434.858"/><use xlink:href="#aW" x="760.036" y="431.617"/><use xlink:href="#bd" x="764.82" y="429.386"/><use xlink:href="#aS" x="767.989" y="427.908"/><use xlink:href="#be" x="775.376" y="424.464"/></g></g><g clip-path="url(#cM)"><g clip-path="url(#cN)" style="fill:#000;fill-opacity:1"><use xlink:href="#bo" x="775.947" y="447.714"/><use xlink:href="#be" x="785.279" y="443.363"/><use xlink:href="#cO" x="793.255" y="439.644"/></g></g><g clip-path="url(#cP)"><g clip-path="url(#cQ)"><use xlink:href="#be" x="800.242" y="436.386" style="fill:#000;fill-opacity:1"/></g></g><g clip-path="url(#cR)"><g clip-path="url(#cS)"><use xlink:href="#aS" x="808.242" y="432.655" style="fill:#000;fill-opacity:1"/></g></g><g clip-path="url(#cT)"><g clip-path="url(#cU)" style="fill:#000;fill-opacity:1"><use xlink:href="#cV" x="815.453" y="429.293"/><use xlink:href="#be" x="825.809" y="424.464"/></g></g><g clip-path="url(#cW)"><g clip-path="url(#cX)" style="fill:#000;fill-opacity:1"><use xlink:href="#cY" x="815.028" y="459.592"/><use xlink:href="#bd" x="826.28" y="454.346"/><use xlink:href="#aX" x="829.449" y="452.868"/><use xlink:href="#bi" x="835.21" y="450.181"/></g></g><g clip-path="url(#cZ)"><g clip-path="url(#da)" style="fill:#000;fill-opacity:1"><use xlink:href="#bl" x="841.738" y="447.137"/><use xlink:href="#bq" x="848.854" y="443.819"/><use xlink:href="#bq" x="852.023" y="442.341"/><use xlink:href="#bf" x="855.193" y="440.863"/><use xlink:href="#be" x="862.144" y="437.622"/></g></g><g clip-path="url(#db)"><g clip-path="url(#dc)" style="fill:#000;fill-opacity:1"><use xlink:href="#bl" x="870.144" y="433.891"/><use xlink:href="#aS" x="877.26" y="430.573"/><use xlink:href="#cq" x="884.648" y="427.128"/><use xlink:href="#aX" x="892.577" y="423.431"/></g></g><g clip-path="url(#dd)"><g clip-path="url(#de)" style="fill:#000;fill-opacity:1"><use xlink:href="#df" x="901.107" y="427.639"/><use xlink:href="#bq" x="909.554" y="423.7"/><use xlink:href="#bq" x="912.724" y="422.222"/></g></g><g clip-path="url(#dg)"><use xlink:href="#dh" transform="translate(78 126)"/></g><g clip-path="url(#di)"><use xlink:href="#dj" transform="translate(130 119)"/></g><g clip-path="url(#dk)"><use xlink:href="#dl" transform="translate(182 113)"/></g><g clip-path="url(#dm)"><use xlink:href="#dn" transform="translate(234 124)"/></g><g clip-path="url(#do)"><use xlink:href="#dp" transform="translate(286 121)"/></g><g clip-path="url(#dq)"><use xlink:href="#dr" transform="translate(338 126)"/></g><g clip-path="url(#ds)"><use xlink:href="#dt" transform="translate(389 131)"/></g><g clip-path="url(#du)"><use xlink:href="#dv" transform="translate(441 162)"/></g><g clip-path="url(#dw)"><use xlink:href="#dx" transform="translate(493 131)"/></g><g clip-path="url(#dy)"><use xlink:href="#dz" transform="translate(545 136)"/></g><g clip-path="url(#dA)"><use xlink:href="#dB" transform="translate(597 178)"/></g><g clip-path="url(#dC)"><use xlink:href="#dD" transform="translate(648 143)"/></g><g clip-path="url(#dE)"><use xlink:href="#dF" transform="translate(700 182)"/></g><g clip-path="url(#dG)"><use xlink:href="#dH" transform="translate(752 163)"/></g><g clip-path="url(#dI)"><use xlink:href="#dJ" transform="translate(804 129)"/></g><g clip-path="url(#dK)"><use xlink:href="#dL" transform="translate(856 194)"/></g><g clip-path="url(#dM)"><use xlink:href="#dN" transform="translate(908 105)"/></g><g clip-path="url(#dO)"><use xlink:href="#dP" transform="translate(56 393)"/></g><g clip-path="url(#dQ)"><use xlink:href="#dR" transform="translate(107 369)"/></g><g clip-path="url(#dS)"><use xlink:href="#dT" transform="translate(159 380)"/></g><g clip-path="url(#dU)"><use xlink:href="#dV" transform="translate(211 340)"/></g><g clip-path="url(#dW)"><use xlink:href="#dX" transform="translate(263 374)"/></g><g clip-path="url(#dY)"><use xlink:href="#dZ" transform="translate(315 364)"/></g><g clip-path="url(#ea)"><use xlink:href="#eb" transform="translate(367 327)"/></g><g clip-path="url(#ec)"><use xlink:href="#ed" transform="translate(418 278)"/></g><g clip-path="url(#ee)"><use xlink:href="#ef" transform="translate(470 339)"/></g><g clip-path="url(#eg)"><use xlink:href="#eh" transform="translate(522 367)"/></g><g clip-path="url(#ei)"><use xlink:href="#ej" transform="translate(574 375)"/></g><g clip-path="url(#ek)"><use xlink:href="#el" transform="translate(626 330)"/></g><g clip-path="url(#em)"><use xlink:href="#en" transform="translate(677 359)"/></g><g clip-path="url(#eo)"><use xlink:href="#ep" transform="translate(729 357)"/></g><g clip-path="url(#eq)"><use xlink:href="#er" transform="translate(781 371)"/></g><g clip-path="url(#es)"><use xlink:href="#et" transform="translate(833 312)"/></g><g clip-path="url(#eu)"><use xlink:href="#ev" transform="translate(885 388)"/></g><path d="M817 53.816h15v15h-15Zm0 0" style="stroke:none;fill-rule:nonzero;fill:#2e578c;fill-opacity:1"/><use xlink:href="#ew" x="841" y="66.816" style="fill:#000;fill-opacity:1"/><g style="fill:#000;fill-opacity:1"><use xlink:href="#ex" x="851.665" y="66.816"/><use xlink:href="#ey" x="860.515" y="66.816"/><use xlink:href="#ez" x="864.55" y="66.816"/><use xlink:href="#eA" x="868.585" y="66.816"/><use xlink:href="#eB" x="878.755" y="66.816"/></g><g style="fill:#000;fill-opacity:1"><use xlink:href="#ex" x="884.635" y="66.816"/><use xlink:href="#eC" x="893.485" y="66.816"/><use xlink:href="#ez" x="899.575" y="66.816"/><use xlink:href="#eD" x="903.61" y="66.816"/><use xlink:href="#eE" x="913.015" y="66.816"/></g><path d="M817 72.816h15v15h-15Zm0 0" style="stroke:none;fill-rule:nonzero;fill:#5d9648;fill-opacity:1"/><g style="fill:#000;fill-opacity:1"><use xlink:href="#eF" x="841" y="85.816"/><use xlink:href="#eG" x="851.845" y="85.816"/></g><use xlink:href="#eH" x="860.905" y="85.816" style="fill:#000;fill-opacity:1"/><use xlink:href="#eE" x="871.225" y="85.816" style="fill:#000;fill-opacity:1"/><g style="fill:#000;fill-opacity:1"><use xlink:href="#eG" x="881.41" y="85.816"/><use xlink:href="#eI" x="890.47" y="85.816"/></g><g style="fill:#000;fill-opacity:1"><use xlink:href="#eG" x="906.415" y="85.816"/><use xlink:href="#eE" x="915.475" y="85.816"/><use xlink:href="#eC" x="925.63" y="85.816"/></g></svg>