<svg xmlns="http://www.w3.org/2000/svg" xmlns:xlink="http://www.w3.org/1999/xlink" width="1246.034" height="619.755" viewBox="0 0 934.525 464.816"><defs><clipPath id="Y"><path d="M57 419h31v20H57Zm0 0"/></clipPath><clipPath id="Z"><path d="m53.3 426.68 40.79-19.02 7.605 16.313-40.785 19.02Zm0 0"/></clipPath><clipPath id="ae"><path d="M84 414h15v12H84Zm0 0"/></clipPath><clipPath id="af"><path d="m53.3 426.68 40.79-19.02 7.605 16.313-40.785 19.02Zm0 0"/></clipPath><clipPath id="ai"><path d="M105 431h10v12h-10Zm0 0"/></clipPath><clipPath id="aj"><path d="m100.613 430.883 49.801-23.223 7.606 16.313-49.801 23.222Zm0 0"/></clipPath><clipPath id="al"><path d="M112 421h29v18h-29Zm0 0"/></clipPath><clipPath id="am"><path d="m100.613 430.883 49.801-23.223 7.606 16.313-49.801 23.222Zm0 0"/></clipPath><clipPath id="aq"><path d="M138 417h10v10h-10Zm0 0"/></clipPath><clipPath id="ar"><path d="m100.613 430.883 49.801-23.223 7.606 16.313-49.801 23.222Zm0 0"/></clipPath><clipPath id="at"><path d="M145 414h10v10h-10Zm0 0"/></clipPath><clipPath id="au"><path d="m100.613 430.883 49.801-23.223 7.606 16.313-49.801 23.222Zm0 0"/></clipPath><clipPath id="aw"><path d="M149 414h65v36h-65Zm0 0"/></clipPath><clipPath id="ax"><path d="m145.105 437.71 64.446-30.05 7.61 16.313-64.446 30.05Zm0 0"/></clipPath><clipPath id="aB"><path d="M206 432h12v13h-12Zm0 0"/></clipPath><clipPath id="aC"><path d="m202.113 432.871 54.067-25.21 7.605 16.312-54.062 25.21Zm0 0"/></clipPath><clipPath id="aE"><path d="M215 429h14v12h-14Zm0 0"/></clipPath><clipPath id="aF"><path d="m202.113 432.871 54.067-25.21 7.605 16.312-54.062 25.21Zm0 0"/></clipPath><clipPath id="aG"><path d="M226 412h34v24h-34Zm0 0"/></clipPath><clipPath id="aH"><path d="m202.113 432.871 54.067-25.21 7.605 16.312-54.062 25.21Zm0 0"/></clipPath><clipPath id="aI"><path d="M245 426h54v30h-54Zm0 0"/></clipPath><clipPath id="aJ"><path d="m241.906 444.086 78.114-36.426 7.605 16.313-78.11 36.425Zm0 0"/></clipPath><clipPath id="aL"><path d="M296 415h28v18h-28Zm0 0"/></clipPath><clipPath id="aM"><path d="m241.906 444.086 78.114-36.426 7.605 16.313-78.11 36.425Zm0 0"/></clipPath><clipPath id="aO"><path d="M292 444h24v18h-24Zm0 0"/></clipPath><clipPath id="aP"><path d="m287.563 449.832 90.433-42.172 7.61 16.313-90.438 42.172Zm0 0"/></clipPath><clipPath id="aR"><path d="M312 440h15v12h-15Zm0 0"/></clipPath><clipPath id="aS"><path d="m287.563 449.832 90.433-42.172 7.61 16.313-90.438 42.172Zm0 0"/></clipPath><clipPath id="aT"><path d="M323 424h39v23h-39Zm0 0"/></clipPath><clipPath id="aU"><path d="m287.563 449.832 90.433-42.172 7.61 16.313-90.438 42.172Zm0 0"/></clipPath><clipPath id="aV"><path d="M360 413h23v17h-23Zm0 0"/></clipPath><clipPath id="aW"><path d="m287.563 449.832 90.433-42.172 7.61 16.313-90.438 42.172Zm0 0"/></clipPath><clipPath id="aX"><path d="M352 441h12v12h-12Zm0 0"/></clipPath><clipPath id="aY"><path d="m349.156 440.71 70.88-33.05 7.609 16.313-70.88 33.05Zm0 0"/></clipPath><clipPath id="ba"><path d="M360 437h16v13h-16Zm0 0"/></clipPath><clipPath id="bb"><path d="m349.156 440.71 70.88-33.05 7.609 16.313-70.88 33.05Zm0 0"/></clipPath><clipPath id="bc"><path d="M373 430h18v13h-18Zm0 0"/></clipPath><clipPath id="bd"><path d="m349.156 440.71 70.88-33.05 7.609 16.313-70.88 33.05Zm0 0"/></clipPath><clipPath id="bf"><path d="M389 414h37v22h-37Zm0 0"/></clipPath><clipPath id="bg"><path d="m349.156 440.71 70.88-33.05 7.609 16.313-70.88 33.05Zm0 0"/></clipPath><clipPath id="bj"><path d="M415 421h36v21h-36Zm0 0"/></clipPath><clipPath id="bk"><path d="m412.148 430.29 48.528-22.63 7.61 16.313-48.528 22.629Zm0 0"/></clipPath><clipPath id="bl"><path d="M449 417h9v10h-9Zm0 0"/></clipPath><clipPath id="bm"><path d="m412.148 430.29 48.528-22.63 7.61 16.313-48.528 22.629Zm0 0"/></clipPath><clipPath id="bn"><path d="M455 414h10v10h-10Zm0 0"/></clipPath><clipPath id="bo"><path d="m412.148 430.29 48.528-22.63 7.61 16.313-48.528 22.629Zm0 0"/></clipPath><clipPath id="bp"><path d="M458 439h11v12h-11Zm0 0"/></clipPath><clipPath id="bq"><path d="m454.293 439.309 67.875-31.649 7.605 16.313-67.87 31.652Zm0 0"/></clipPath><clipPath id="br"><path d="M466 438h10v10h-10Zm0 0"/></clipPath><clipPath id="bs"><path d="m454.293 439.309 67.875-31.649 7.605 16.313-67.87 31.652Zm0 0"/></clipPath><clipPath id="bt"><path d="M473 431h18v14h-18Zm0 0"/></clipPath><clipPath id="bu"><path d="m454.293 439.309 67.875-31.649 7.605 16.313-67.87 31.652Zm0 0"/></clipPath><clipPath id="bv"><path d="M488 414h39v24h-39Zm0 0"/></clipPath><clipPath id="bw"><path d="m454.293 439.309 67.875-31.649 7.605 16.313-67.87 31.652Zm0 0"/></clipPath><clipPath id="bx"><path d="M517 423h36v22h-36Zm0 0"/></clipPath><clipPath id="by"><path d="m512.496 433.355 55.102-25.695 7.605 16.313-55.101 25.695Zm0 0"/></clipPath><clipPath id="bB"><path d="M551 414h21v16h-21Zm0 0"/></clipPath><clipPath id="bC"><path d="m512.496 433.355 55.102-25.695 7.605 16.313-55.101 25.695Zm0 0"/></clipPath><clipPath id="bD"><path d="M573 428h12v12h-12Zm0 0"/></clipPath><clipPath id="bE"><path d="m569.313 428.691 45.101-21.03 7.606 16.312-45.098 21.03Zm0 0"/></clipPath><clipPath id="bF"><path d="M582 414h37v23h-37Zm0 0"/></clipPath><clipPath id="bG"><path d="m569.313 428.691 45.101-21.03 7.606 16.312-45.098 21.03Zm0 0"/></clipPath><clipPath id="bH"><path d="M622 418h43v25h-43Zm0 0"/></clipPath><clipPath id="bI"><path d="m618.414 431.223 50.531-23.563 7.61 16.313-50.532 23.562Zm0 0"/></clipPath><clipPath id="bK"><path d="M662 415h12v12h-12Zm0 0"/></clipPath><clipPath id="bL"><path d="m618.414 431.223 50.531-23.563 7.61 16.313-50.532 23.562Zm0 0"/></clipPath><clipPath id="bM"><path d="M666 435h20v15h-20Zm0 0"/></clipPath><clipPath id="bN"><path d="m662.098 438.809 66.8-31.149 7.606 16.313-66.8 31.152Zm0 0"/></clipPath><clipPath id="bP"><path d="M685 414h48v29h-48Zm0 0"/></clipPath><clipPath id="bQ"><path d="m662.098 438.809 66.8-31.149 7.606 16.313-66.8 31.152Zm0 0"/></clipPath><clipPath id="bS"><path d="M720 437h10v12h-10Zm0 0"/></clipPath><clipPath id="bT"><path d="m715.652 437.191 63.325-29.53 7.609 16.312-63.328 29.53Zm0 0"/></clipPath><clipPath id="bU"><path d="M727 415h56v31h-56Zm0 0"/></clipPath><clipPath id="bV"><path d="m715.652 437.191 63.325-29.53 7.609 16.312-63.328 29.53Zm0 0"/></clipPath><clipPath id="bW"><path d="M773 427h28v21h-28Zm0 0"/></clipPath><clipPath id="bX"><path d="m768.852 435.898 60.558-28.238 7.606 16.313-60.555 28.238Zm0 0"/></clipPath><clipPath id="bZ"><path d="M798 426h10v10h-10Zm0 0"/></clipPath><clipPath id="ca"><path d="m768.852 435.898 60.558-28.238 7.606 16.313-60.555 28.238Zm0 0"/></clipPath><clipPath id="cb"><path d="M805 423h11v10h-11Zm0 0"/></clipPath><clipPath id="cc"><path d="m768.852 435.898 60.558-28.238 7.606 16.313-60.555 28.238Zm0 0"/></clipPath><clipPath id="cd"><path d="M812 415h21v15h-21Zm0 0"/></clipPath><clipPath id="ce"><path d="m768.852 435.898 60.558-28.238 7.606 16.313-60.555 28.238Zm0 0"/></clipPath><clipPath id="cg"><path d="M812 441h30v18h-30Zm0 0"/></clipPath><clipPath id="ch"><path d="m807.934 447.777 86.027-40.117 7.61 16.313-86.032 40.117Zm0 0"/></clipPath><clipPath id="cj"><path d="M839 428h31v19h-31Zm0 0"/></clipPath><clipPath id="ck"><path d="m807.934 447.777 86.027-40.117 7.61 16.313-86.032 40.117Zm0 0"/></clipPath><clipPath id="cl"><path d="M867 414h32v20h-32Zm0 0"/></clipPath><clipPath id="cm"><path d="m807.934 447.777 86.027-40.117 7.61 16.313-86.032 40.117Zm0 0"/></clipPath><clipPath id="cn"><path d="M897 412h18v16h-18Zm0 0"/></clipPath><clipPath id="co"><path d="m894.012 415.824 17.504-8.164 7.609 16.313-17.508 8.164Zm0 0"/></clipPath><clipPath id="cq"><path d="M59 48.816h37v353H59Zm0 0"/></clipPath><clipPath id="b"><path d="M0 .816h37v353H0Zm0 0"/></clipPath><clipPath id="a"><path d="M0 0h37v354H0z"/></clipPath><clipPath id="cs"><path d="M111 78.816h37v323h-37Zm0 0"/></clipPath><clipPath id="d"><path d="M0 .816h37v323H0Zm0 0"/></clipPath><clipPath id="c"><path d="M0 0h37v324H0z"/></clipPath><clipPath id="cu"><path d="M163 48.816h37v353h-37Zm0 0"/></clipPath><clipPath id="f"><path d="M0 .816h37v353H0Zm0 0"/></clipPath><clipPath id="e"><path d="M0 0h37v354H0z"/></clipPath><clipPath id="cw"><path d="M214 42.816h37v359h-37Zm0 0"/></clipPath><clipPath id="h"><path d="M0 .816h37v359H0Zm0 0"/></clipPath><clipPath id="g"><path d="M0 0h37v360H0z"/></clipPath><clipPath id="cy"><path d="M266 57.816h37v344h-37Zm0 0"/></clipPath><clipPath id="j"><path d="M0 .816h37v344H0Zm0 0"/></clipPath><clipPath id="i"><path d="M0 0h37v345H0z"/></clipPath><clipPath id="cA"><path d="M318 40.816h37v361h-37Zm0 0"/></clipPath><clipPath id="l"><path d="M0 .816h37v361H0Zm0 0"/></clipPath><clipPath id="k"><path d="M0 0h37v362H0z"/></clipPath><clipPath id="cC"><path d="M370 59.816h37v342h-37Zm0 0"/></clipPath><clipPath id="n"><path d="M0 .816h37v342H0Zm0 0"/></clipPath><clipPath id="m"><path d="M0 0h37v343H0z"/></clipPath><clipPath id="cE"><path d="M422 45.816h37v356h-37Zm0 0"/></clipPath><clipPath id="p"><path d="M0 .816h37v356H0Zm0 0"/></clipPath><clipPath id="o"><path d="M0 0h37v357H0z"/></clipPath><clipPath id="cG"><path d="M474 44.816h37v357h-37Zm0 0"/></clipPath><clipPath id="r"><path d="M0 .816h37v357H0Zm0 0"/></clipPath><clipPath id="q"><path d="M0 0h37v358H0z"/></clipPath><clipPath id="cI"><path d="M525 40.816h37v361h-37Zm0 0"/></clipPath><clipPath id="t"><path d="M0 .816h37v361H0Zm0 0"/></clipPath><clipPath id="s"><path d="M0 0h37v362H0z"/></clipPath><clipPath id="cK"><path d="M577 40.816h37v361h-37Zm0 0"/></clipPath><clipPath id="v"><path d="M0 .816h37v361H0Zm0 0"/></clipPath><clipPath id="u"><path d="M0 0h37v362H0z"/></clipPath><clipPath id="cM"><path d="M629 46.816h37v355h-37Zm0 0"/></clipPath><clipPath id="x"><path d="M0 .816h37v355H0Zm0 0"/></clipPath><clipPath id="w"><path d="M0 0h37v356H0z"/></clipPath><clipPath id="cO"><path d="M681 216.816h37v185h-37Zm0 0"/></clipPath><clipPath id="z"><path d="M0 .816h37v185H0Zm0 0"/></clipPath><clipPath id="y"><path d="M0 0h37v186H0z"/></clipPath><clipPath id="cQ"><path d="M733 248.816h37v153h-37Zm0 0"/></clipPath><clipPath id="B"><path d="M0 .816h37v153H0Zm0 0"/></clipPath><clipPath id="A"><path d="M0 0h37v154H0z"/></clipPath><clipPath id="cS"><path d="M784 77.816h37v324h-37Zm0 0"/></clipPath><clipPath id="D"><path d="M0 .816h37v324H0Zm0 0"/></clipPath><clipPath id="C"><path d="M0 0h37v325H0z"/></clipPath><clipPath id="cU"><path d="M836 49.816h37v352h-37Zm0 0"/></clipPath><clipPath id="F"><path d="M0 .816h37v352H0Zm0 0"/></clipPath><clipPath id="E"><path d="M0 0h37v353H0z"/></clipPath><clipPath id="cW"><path d="M888 43.816h37v358h-37Zm0 0"/></clipPath><clipPath id="H"><path d="M0 .816h37v358H0Zm0 0"/></clipPath><clipPath id="G"><path d="M0 0h37v359H0z"/></clipPath><symbol id="I" overflow="visible"><path d="M7.922.125c-1.813 0-3.23-.52-4.25-1.563C2.66-2.476 2.156-3.991 2.156-5.984V-14h1.485v7.953c0 1.637.363 2.856 1.093 3.656.739.793 1.801 1.188 3.188 1.188 1.394 0 2.457-.395 3.187-1.188.739-.8 1.11-2.02 1.11-3.656V-14h1.437v8.016c0 1.992-.508 3.507-1.515 4.546C11.14-.395 9.734.125 7.92.125Zm0 0" style="stroke:none"/></symbol><symbol id="J" overflow="visible"><path d="M7.344-10.594c1.312 0 2.36.387 3.14 1.156.782.762 1.172 1.876 1.172 3.344V0h-1.422v-5.953c0-1.094-.277-1.926-.828-2.5-.543-.57-1.32-.86-2.328-.86-1.137 0-2.031.34-2.687 1.016-.657.668-.985 1.594-.985 2.781V0H1.984v-10.516h1.36v1.938a3.816 3.816 0 0 1 1.61-1.485c.687-.351 1.484-.53 2.39-.53Zm0 0" style="stroke:none"/></symbol><symbol id="K" overflow="visible"><path d="M6.344.094C5.3.094 4.367-.13 3.547-.578a4.993 4.993 0 0 1-1.938-1.906c-.46-.82-.687-1.75-.687-2.782 0-1.02.226-1.937.687-2.75a4.901 4.901 0 0 1 1.938-1.89c.82-.457 1.754-.688 2.797-.688.906 0 1.71.18 2.422.531.718.344 1.28.86 1.687 1.547l-1.047.72A3.435 3.435 0 0 0 8.078-8.97a3.922 3.922 0 0 0-1.734-.39c-.762 0-1.45.171-2.063.515A3.564 3.564 0 0 0 2.86-7.39c-.336.625-.5 1.336-.5 2.125 0 .813.164 1.532.5 2.157a3.673 3.673 0 0 0 1.422 1.437c.614.344 1.301.516 2.063.516.625 0 1.203-.125 1.734-.375a3.373 3.373 0 0 0 1.328-1.172l1.047.719A3.929 3.929 0 0 1 8.766-.422c-.72.344-1.528.516-2.422.516Zm0 0" style="stroke:none"/></symbol><symbol id="L" overflow="visible"><path d="M11.14-4.813H2.345c.07 1.086.488 1.965 1.25 2.641.758.68 1.722 1.016 2.89 1.016.645 0 1.239-.114 1.782-.344a4.026 4.026 0 0 0 1.437-1.047l.797.922A4.49 4.49 0 0 1 8.75-.344c-.7.293-1.469.438-2.313.438-1.085 0-2.042-.227-2.875-.688A4.956 4.956 0 0 1 1.61-2.5C1.15-3.313.922-4.234.922-5.266c0-1.02.223-1.937.672-2.75a4.812 4.812 0 0 1 1.828-1.89c.781-.457 1.66-.688 2.64-.688.97 0 1.836.23 2.61.688a4.708 4.708 0 0 1 1.828 1.89c.438.805.656 1.72.656 2.75ZM6.063-9.375c-1.011 0-1.859.324-2.546.969-.688.648-1.079 1.492-1.172 2.531h7.453c-.094-1.04-.485-1.883-1.172-2.531-.688-.645-1.543-.969-2.563-.969Zm0 0" style="stroke:none"/></symbol><symbol id="M" overflow="visible"><path d="M3.344-8.453a3.405 3.405 0 0 1 1.484-1.594c.656-.363 1.473-.547 2.453-.547v1.375l-.343-.015c-1.106 0-1.97.34-2.594 1.015-.625.68-.938 1.633-.938 2.86V0H1.984v-10.516h1.36Zm0 0" style="stroke:none"/></symbol><symbol id="N" overflow="visible"><path d="M7.516-.64a2.56 2.56 0 0 1-.985.546 4.093 4.093 0 0 1-1.234.188c-.992 0-1.75-.266-2.281-.797-.532-.531-.797-1.281-.797-2.25v-6.36H.344v-1.203h1.875v-2.296H3.64v2.296h3.203v1.204H3.64v6.265c0 .637.156 1.117.468 1.438.313.324.758.484 1.344.484.3 0 .586-.047.86-.14.269-.094.503-.223.703-.391Zm0 0" style="stroke:none"/></symbol><symbol id="O" overflow="visible"><path d="M5.656-10.594c1.375 0 2.426.344 3.157 1.031.738.68 1.109 1.696 1.109 3.047V0h-1.36v-1.64c-.324.554-.796.98-1.421 1.28-.618.305-1.352.454-2.204.454-1.167 0-2.101-.274-2.796-.828-.7-.563-1.047-1.301-1.047-2.22 0-.894.32-1.612.968-2.155.657-.551 1.688-.829 3.094-.829H8.5v-.64c0-.906-.258-1.594-.766-2.063-.5-.476-1.242-.718-2.218-.718-.668 0-1.309.109-1.922.328a5.01 5.01 0 0 0-1.578.906l-.641-1.063c.54-.445 1.18-.789 1.922-1.03a7.406 7.406 0 0 1 2.36-.376Zm-.5 9.578c.801 0 1.489-.18 2.063-.546.57-.375 1-.907 1.281-1.594v-1.719H5.203C3.398-4.875 2.5-4.25 2.5-3c0 .617.234 1.102.703 1.453.469.356 1.117.531 1.953.531Zm0 0" style="stroke:none"/></symbol><symbol id="P" overflow="visible"><path d="M1.984-10.516h1.422V0H1.984Zm.72-2.296a1.04 1.04 0 0 1-.75-.297 1.024 1.024 0 0 1-.298-.735c0-.258.098-.488.297-.687.207-.207.457-.313.75-.313.29 0 .535.102.735.297a.896.896 0 0 1 .312.688c0 .293-.105.543-.313.75-.199.199-.445.296-.734.296Zm0 0" style="stroke:none"/></symbol><symbol id="Q" overflow="visible"><path d="M10.813-10.516 5.563 1.266c-.43.976-.922 1.675-1.485 2.093-.562.414-1.234.625-2.016.625-.511 0-.984-.086-1.421-.25A3.079 3.079 0 0 1-.5 3.016l.656-1.063c.531.54 1.172.813 1.922.813.477 0 .883-.137 1.219-.407.344-.273.664-.726.969-1.359l.453-1.016-4.703-10.5H1.5l3.953 8.938 3.969-8.938Zm0 0" style="stroke:none"/></symbol><symbol id="R" overflow="visible"><path d="M4.64.078c-.761 0-1.437-.195-2.03-.594C2.015-.922 1.55-1.5 1.218-2.25.895-3 .734-3.883.734-4.906c0-1.008.16-1.89.485-2.64.332-.759.797-1.337 1.39-1.735.594-.406 1.27-.61 2.032-.61.75 0 1.421.204 2.015.61.594.398 1.055.976 1.39 1.734.333.75.5 1.633.5 2.64 0 1.024-.167 1.907-.5 2.657-.335.75-.796 1.328-1.39 1.734-.593.399-1.265.594-2.015.594Zm0-.922c.563 0 1.063-.156 1.5-.469.438-.32.774-.785 1.016-1.39.239-.602.36-1.336.36-2.203 0-.852-.121-1.582-.36-2.188-.242-.613-.578-1.078-1.015-1.39a2.516 2.516 0 0 0-1.5-.47c-.575 0-1.079.157-1.516.47-.43.312-.766.777-1.016 1.39-.242.606-.359 1.336-.359 2.188 0 .867.117 1.601.36 2.203.25.605.585 1.07 1.015 1.39.438.313.941.47 1.516.47Zm0 0" style="stroke:none"/></symbol><symbol id="S" overflow="visible"><path d="M1.484.063a.707.707 0 0 1-.53-.22.73.73 0 0 1-.22-.546.72.72 0 0 1 .22-.531.722.722 0 0 1 .53-.22c.207 0 .383.075.532.22a.735.735 0 0 1 .218.53.745.745 0 0 1-.218.548.72.72 0 0 1-.532.218Zm0 0" style="stroke:none"/></symbol><symbol id="T" overflow="visible"><path d="M7.422-.89V0H.547v-.719l4.078-3.984c.508-.5.852-.93 1.031-1.297.188-.375.282-.75.282-1.125 0-.582-.2-1.031-.594-1.344-.399-.32-.965-.484-1.703-.484-1.149 0-2.04.36-2.672 1.078l-.719-.61c.383-.445.875-.788 1.469-1.03.593-.25 1.258-.376 2-.376 1 0 1.789.243 2.375.72.582.468.875 1.116.875 1.937 0 .5-.117.984-.344 1.453-.219.468-.64 1.008-1.266 1.61L2.031-.892Zm0 0" style="stroke:none"/></symbol><symbol id="U" overflow="visible"><path d="M6.344-5.14c.613.21 1.086.523 1.422.937.332.406.5.898.5 1.469 0 .574-.157 1.074-.47 1.5-.304.418-.745.742-1.327.968-.574.23-1.246.344-2.016.344-1.18 0-2.105-.25-2.781-.75-.668-.5-1-1.187-1-2.062 0-.582.16-1.079.484-1.485.32-.406.79-.71 1.407-.922-.5-.195-.887-.476-1.157-.843-.261-.364-.39-.801-.39-1.313 0-.789.312-1.422.937-1.89.625-.47 1.457-.704 2.5-.704.688 0 1.29.11 1.813.329.52.21.921.511 1.203.906.289.386.437.84.437 1.36 0 .51-.136.948-.406 1.312-.273.367-.656.648-1.156.843ZM2.03-7.267c0 .543.211.977.64 1.297.427.313 1.02.469 1.782.469.758 0 1.352-.156 1.781-.469.438-.32.657-.75.657-1.281 0-.55-.227-.984-.672-1.297-.438-.32-1.028-.484-1.766-.484-.75 0-1.344.164-1.781.484-.43.313-.64.742-.64 1.281Zm2.422 6.5c.863 0 1.54-.175 2.031-.53.489-.352.735-.837.735-1.454 0-.602-.246-1.078-.735-1.422-.492-.351-1.168-.531-2.03-.531-.868 0-1.544.18-2.032.531-.492.344-.735.82-.735 1.422 0 .625.243 1.117.735 1.469.488.343 1.164.515 2.031.515Zm0 0" style="stroke:none"/></symbol><symbol id="V" overflow="visible"><path d="M4.063-5.594c1.019.055 1.796.328 2.328.828.539.5.812 1.153.812 1.954 0 .562-.137 1.062-.406 1.5-.274.43-.672.765-1.203 1.015-.532.25-1.18.375-1.938.375-.71 0-1.383-.113-2.015-.344C1.016-.492.508-.796.125-1.172l.484-.797c.332.336.77.606 1.313.813.539.21 1.117.312 1.734.312.801 0 1.422-.172 1.86-.515.437-.352.656-.836.656-1.454 0-.601-.219-1.078-.656-1.421-.438-.352-1.102-.532-1.985-.532h-.703V-5.5l2.719-3.406H.53v-.89h6.297v.702Zm0 0" style="stroke:none"/></symbol><symbol id="W" overflow="visible"><path d="M3.297-5.781c1.426 0 2.46.258 3.11.765.644.512.968 1.22.968 2.125 0 .575-.137 1.086-.406 1.532-.262.449-.657.804-1.188 1.062-.531.25-1.183.375-1.953.375-.71 0-1.383-.113-2.015-.344-.625-.226-1.125-.53-1.5-.906l.484-.797c.32.336.75.606 1.281.813.54.21 1.117.312 1.735.312.812 0 1.437-.18 1.874-.547.446-.363.672-.847.672-1.453 0-.664-.25-1.172-.75-1.515-.5-.352-1.343-.532-2.53-.532H1l.5-4.906h5.36v.89H2.374L2.047-5.78Zm0 0" style="stroke:none"/></symbol><symbol id="X" overflow="visible"><path d="M9.063-2.578h-1.97V0h-1v-2.578H.564v-.719l5.187-6.5h1.125L1.859-3.469h4.266v-2.265h.969v2.265h1.968Zm0 0" style="stroke:none"/></symbol><symbol id="aa" overflow="visible"><path d="M3.64-1.61a5.747 5.747 0 0 1-1.89.516C1.094-1.03.535-1.082.078-1.25l.031-.844c.438.156.946.215 1.532.172a4.928 4.928 0 0 0 1.656-.437c.75-.344 1.242-.735 1.484-1.172.239-.446.254-.89.047-1.328-.156-.332-.383-.547-.672-.641a2.252 2.252 0 0 0-.953-.11c-.336.024-.789.094-1.36.22-.698.124-1.265.202-1.702.234a2.582 2.582 0 0 1-1.25-.219c-.407-.176-.727-.52-.97-1.031a2.276 2.276 0 0 1-.187-1.282c.063-.445.278-.878.641-1.296.355-.414.871-.782 1.547-1.094a5.668 5.668 0 0 1 1.469-.453 3.795 3.795 0 0 1 1.406-.016l.047.828a4.657 4.657 0 0 0-1.36.016 4.282 4.282 0 0 0-1.218.36c-.727.335-1.207.73-1.438 1.187-.238.449-.254.89-.047 1.328.149.336.367.555.657.656.292.106.613.14.968.11a12.94 12.94 0 0 0 1.39-.22 14.44 14.44 0 0 1 1.673-.25c.445-.038.867.028 1.265.204.407.18.723.516.954 1.016.195.417.257.851.187 1.296-.074.45-.297.887-.672 1.313-.367.418-.887.781-1.562 1.094Zm0 0" style="stroke:none"/></symbol><symbol id="ab" overflow="visible"><path d="M1.453-8.281a3.37 3.37 0 0 1 1.75-.328 3.134 3.134 0 0 1 1.625.593c.5.356.89.84 1.172 1.454.29.617.41 1.226.36 1.828a3.187 3.187 0 0 1-.579 1.64c-.343.48-.808.856-1.39 1.125-.5.23-1.008.34-1.516.328a2.84 2.84 0 0 1-1.422-.453l1.61 3.438-.844.39-3.953-8.484.812-.375.578 1.234a2.79 2.79 0 0 1 .547-1.406 3.225 3.225 0 0 1 1.25-.984ZM4-2.687a2.575 2.575 0 0 0 1.016-.844c.257-.364.406-.774.437-1.235.031-.468-.07-.937-.297-1.406-.218-.476-.515-.851-.89-1.125a2.296 2.296 0 0 0-1.22-.453c-.448-.04-.882.04-1.296.234-.45.2-.805.485-1.063.86-.25.367-.39.777-.421 1.234-.032.45.062.914.28 1.39.227.47.524.845.891 1.126a2.27 2.27 0 0 0 1.22.469c.445.03.894-.051 1.343-.25Zm0 0" style="stroke:none"/></symbol><symbol id="ac" overflow="visible"><path d="M3.734-1.656a3.714 3.714 0 0 1-1.812.343 3.443 3.443 0 0 1-1.656-.593A3.507 3.507 0 0 1-.922-3.344c-.281-.601-.39-1.207-.328-1.812a3.394 3.394 0 0 1 .625-1.657c.344-.5.816-.882 1.422-1.156a3.458 3.458 0 0 1 1.797-.343 3.16 3.16 0 0 1 1.64.593c.489.356.875.836 1.157 1.438.28.605.398 1.21.359 1.812a3.226 3.226 0 0 1-.594 1.657 3.623 3.623 0 0 1-1.422 1.156Zm-.343-.75a2.575 2.575 0 0 0 1.03-.844c.259-.363.4-.773.423-1.234a2.922 2.922 0 0 0-.313-1.407c-.218-.476-.511-.851-.875-1.125a2.393 2.393 0 0 0-1.203-.468 2.505 2.505 0 0 0-1.312.25c-.438.199-.79.48-1.047.843a2.41 2.41 0 0 0-.438 1.25c-.031.461.063.93.281 1.407.227.468.532.84.907 1.109.375.273.781.43 1.219.469.445.031.89-.051 1.328-.25Zm0 0" style="stroke:none"/></symbol><symbol id="ad" overflow="visible"><path d="M-.36-5.906A2.32 2.32 0 0 1 .079-7.25c.29-.395.727-.727 1.313-1l.375.813-.204.093C.906-7.039.484-6.602.298-6.03c-.188.562-.11 1.21.234 1.937L2-.937l-.844.39-2.89-6.203.812-.375Zm0 0" style="stroke:none"/></symbol><symbol id="ag" overflow="visible"><path d="M4.266-2.438c-.106.211-.258.407-.454.594a2.19 2.19 0 0 1-.671.453c-.575.274-1.094.325-1.563.157-.46-.164-.824-.536-1.094-1.11l-1.75-3.765-1.093.515-.329-.703 1.094-.516-.625-1.343.844-.39.625 1.343 1.89-.875.329.703-1.89.875 1.734 3.719c.164.367.382.601.656.703.281.094.593.062.937-.094.164-.082.317-.187.453-.312.145-.125.254-.266.329-.422Zm0 0" style="stroke:none"/></symbol><symbol id="ah" overflow="visible"><path d="M2.86-1.266a5.242 5.242 0 0 1-1.563.47C.773-.735.336-.75-.016-.845l.063-.844c.351.086.754.102 1.203.047.457-.05.898-.175 1.328-.375.563-.27.938-.554 1.125-.859a.946.946 0 0 0 .063-.938c-.106-.226-.262-.374-.47-.437-.21-.063-.448-.07-.718-.031a7.854 7.854 0 0 0-1 .25c-.543.136-.992.23-1.344.281A1.962 1.962 0 0 1-.78-3.89c-.32-.145-.582-.422-.781-.829-.239-.52-.22-1.047.062-1.578.281-.539.805-.988 1.563-1.344a4.97 4.97 0 0 1 1.28-.39 3.666 3.666 0 0 1 1.188-.047l-.062.844c-.68-.102-1.371.007-2.078.328-.52.25-.868.531-1.047.843-.188.313-.207.622-.063.922a.79.79 0 0 0 .485.454c.218.074.453.09.703.046.258-.039.61-.113 1.047-.218.539-.133.984-.223 1.328-.266.344-.05.672-.016.984.11.313.124.563.386.75.78.25.555.223 1.094-.078 1.626-.293.53-.84.98-1.64 1.343Zm0 0" style="stroke:none"/></symbol><symbol id="ak" overflow="visible"><path d="M-1.297-8.516.22-5.28l4.281-2 .36.75-4.282 2 1.625 3.5-.86.406L-2.5-8.859 3.156-11.5l.344.75Zm0 0" style="stroke:none"/></symbol><symbol id="an" overflow="visible"><path d="m-1.734-6.75.843-.39L2-.939l-.844.391Zm-.188-1.531a.676.676 0 0 1-.516.015.617.617 0 0 1-.374-.343.613.613 0 0 1-.016-.485.576.576 0 0 1 .344-.375.647.647 0 0 1 .515-.031c.168.055.29.152.36.297.086.18.101.355.046.531a.645.645 0 0 1-.359.39Zm0 0" style="stroke:none"/></symbol><symbol id="ao" overflow="visible"><path d="M1.406-8.266c.79-.363 1.52-.425 2.188-.187.664.242 1.203.793 1.61 1.656l1.671 3.594-.844.39-1.64-3.515c-.305-.633-.696-1.047-1.172-1.234-.48-.196-1.016-.16-1.61.109C.941-7.141.504-6.691.297-6.11c-.2.574-.137 1.214.187 1.921L2-.938l-.844.391-2.89-6.203.812-.375.531 1.14c.055-.476.235-.913.547-1.312a3.465 3.465 0 0 1 1.25-.969Zm0 0" style="stroke:none"/></symbol><symbol id="ap" overflow="visible"><path d="M.422-7.797c.812-.383 1.523-.473 2.14-.266.626.2 1.118.696 1.485 1.485l1.797 3.844-.797.39-.453-.969c-.032.407-.188.79-.469 1.141-.281.356-.672.649-1.172.875-.7.324-1.328.418-1.89.281A1.78 1.78 0 0 1-.157-2.03c-.25-.531-.257-1.047-.03-1.547.226-.5.765-.945 1.609-1.344l1.969-.922-.188-.375c-.242-.531-.578-.863-1.015-1-.43-.144-.93-.082-1.5.188a3.746 3.746 0 0 0-1.047.734c-.301.293-.532.617-.688.969l-.656-.453c.187-.414.469-.801.844-1.157.375-.351.804-.64 1.28-.859Zm2.344 5.781c.468-.218.82-.515 1.062-.89.238-.375.348-.805.328-1.297L3.672-5.22l-1.953.922C.656-3.805.297-3.19.64-2.453c.164.355.437.578.812.672.375.086.813.008 1.313-.235Zm0 0" style="stroke:none"/></symbol><symbol id="as" overflow="visible"><path d="M3.766-1.688c-.618.293-1.227.418-1.829.375a3.233 3.233 0 0 1-1.671-.593A3.507 3.507 0 0 1-.922-3.344c-.281-.601-.39-1.207-.328-1.812a3.394 3.394 0 0 1 .625-1.657C-.27-7.313.211-7.707.828-8a3.653 3.653 0 0 1 1.563-.344c.52.012.992.164 1.421.453l-.421.72A2.06 2.06 0 0 0 2.297-7.5c-.375-.008-.75.07-1.125.234a2.89 2.89 0 0 0-1.078.875 2.41 2.41 0 0 0-.438 1.25c-.031.461.063.93.281 1.407.227.48.532.855.907 1.125a2.5 2.5 0 0 0 1.234.453 2.62 2.62 0 0 0 1.344-.281 2.304 2.304 0 0 0 1.375-1.735l.812.14a2.556 2.556 0 0 1-.578 1.376c-.324.406-.746.73-1.265.969Zm0 0" style="stroke:none"/></symbol><symbol id="av" overflow="visible"><path d="M5.234-5.906.047-3.484c.344.625.832 1.03 1.469 1.218.644.188 1.312.121 2-.203.375-.176.687-.406.937-.687a2.67 2.67 0 0 0 .563-1.016l.734.328a2.965 2.965 0 0 1-.688 1.25 3.838 3.838 0 0 1-1.234.89c-.637.294-1.262.419-1.875.376a3.337 3.337 0 0 1-1.687-.578A3.507 3.507 0 0 1-.922-3.344a3.53 3.53 0 0 1-.344-1.812 3.21 3.21 0 0 1 .563-1.625 3.24 3.24 0 0 1 1.36-1.125c.581-.27 1.16-.375 1.734-.313a3.154 3.154 0 0 1 1.593.61c.477.355.86.84 1.141 1.453ZM.984-7.172c-.593.274-1.004.688-1.234 1.25-.227.563-.227 1.168 0 1.813l4.406-2.047c-.343-.594-.808-.985-1.39-1.172-.586-.188-1.18-.133-1.782.156Zm0 0" style="stroke:none"/></symbol><symbol id="ay" overflow="visible"><path d="M4.688-2.094c-1.063.5-2.04.586-2.922.25C.89-2.187.18-2.945-.36-4.125l-2.204-4.703.86-.406L.484-4.547c.446.95.993 1.559 1.641 1.828.656.274 1.39.219 2.203-.156.832-.383 1.352-.914 1.563-1.594.207-.676.086-1.488-.36-2.437l-2.187-4.688.86-.39 2.202 4.703c.54 1.18.657 2.215.344 3.11-.305.886-.992 1.577-2.063 2.077Zm0 0" style="stroke:none"/></symbol><symbol id="aA" overflow="visible"><path d="m-2.922-9.281.844-.39L2-.939l-.844.391Zm0 0" style="stroke:none"/></symbol><symbol id="aD" overflow="visible"><path d="M.594-10.297c1.039-.488 1.976-.625 2.812-.406.832.219 1.453.765 1.86 1.64.406.876.425 1.704.062 2.485-.367.781-1.07 1.418-2.11 1.906L.985-3.64l1.22 2.61-.86.406L-2.5-8.859Zm2.234 4.875c.82-.383 1.363-.86 1.625-1.422.258-.562.238-1.164-.062-1.812-.305-.664-.758-1.07-1.36-1.219-.594-.156-1.304-.04-2.125.344l-2.203 1.015 1.922 4.11Zm0 0" style="stroke:none"/></symbol><symbol id="aK" overflow="visible"><path d="M5.984-10.39c.782-.364 1.5-.426 2.157-.188.656.242 1.187.797 1.593 1.672l1.672 3.594-.86.39-1.64-3.516c-.304-.632-.687-1.05-1.156-1.25-.46-.195-.969-.164-1.531.094-.649.305-1.063.742-1.25 1.313-.18.562-.106 1.199.218 1.906l1.516 3.25-.844.39L4.22-6.25C3.914-6.883 3.53-7.3 3.062-7.5c-.46-.195-.976-.164-1.546.094-.649.304-1.063.742-1.25 1.312-.18.563-.106 1.2.218 1.907L2-.938l-.844.39-2.89-6.203.812-.375.531 1.14c.043-.476.211-.91.5-1.296.301-.395.711-.711 1.235-.953.508-.239 1.004-.332 1.484-.282.477.043.914.235 1.313.579.03-.508.207-.985.53-1.422.333-.438.77-.782 1.313-1.032Zm0 0" style="stroke:none"/></symbol><symbol id="aN" overflow="visible"><path d="m2.75-11.922 4.078 8.735-.812.374-.579-1.234a2.687 2.687 0 0 1-.53 1.438c-.313.418-.731.746-1.25.984a3.474 3.474 0 0 1-1.766.344 3.267 3.267 0 0 1-1.641-.61c-.488-.363-.879-.847-1.172-1.453-.281-.613-.394-1.222-.344-1.828a3.073 3.073 0 0 1 .594-1.625 3.594 3.594 0 0 1 1.39-1.14c.509-.239 1.009-.348 1.5-.329.5.024.973.172 1.423.454l-1.735-3.72Zm.64 9.516a2.607 2.607 0 0 0 1.016-.844c.258-.363.399-.773.422-1.234.031-.47-.07-.938-.297-1.407-.218-.476-.515-.851-.89-1.125a2.393 2.393 0 0 0-1.204-.468 2.43 2.43 0 0 0-1.296.25c-.438.199-.79.48-1.047.843a2.41 2.41 0 0 0-.438 1.25c-.031.461.063.93.281 1.407.227.468.532.84.907 1.109.375.273.781.43 1.219.469.445.031.89-.051 1.328-.25Zm0 0" style="stroke:none"/></symbol><symbol id="aQ" overflow="visible"><path d="m6.828-4.094.344.75L1.344-.625-2.5-8.859 3.156-11.5l.344.75-4.797 2.234L.078-5.594l4.281-2 .344.735-4.281 2 1.437 3.078Zm0 0" style="stroke:none"/></symbol><symbol id="aZ" overflow="visible"><path d="M-.547-8.86-3.453-7.5l-.344-.75 6.672-3.11.344.75-2.89 1.344 3.5 7.485-.876.406Zm0 0" style="stroke:none"/></symbol><symbol id="be" overflow="visible"><path d="M1.406-8.266c.79-.363 1.52-.425 2.188-.187.664.242 1.203.793 1.61 1.656l1.671 3.594-.844.39-1.64-3.515c-.305-.633-.696-1.047-1.172-1.234-.48-.196-1.016-.16-1.61.109C.941-7.141.504-6.691.297-6.11c-.2.574-.137 1.214.187 1.921L2-.938l-.844.391-4.078-8.734.844-.39 1.687 3.624a2.54 2.54 0 0 1 .563-1.281 3.484 3.484 0 0 1 1.234-.938Zm0 0" style="stroke:none"/></symbol><symbol id="bh" overflow="visible"><path d="m4.016-9.422 2.546 5.453c.489 1.055.594 1.953.313 2.703C6.594-.523 5.937.082 4.906.563a5.787 5.787 0 0 1-1.75.515c-.594.07-1.125.035-1.594-.11l.125-.843c.426.133.891.172 1.391.11.5-.055.985-.188 1.453-.407C5.313-.535 5.801-.984 6-1.516c.195-.53.117-1.187-.234-1.968l-.375-.782a2.75 2.75 0 0 1-.594 1.375 3.494 3.494 0 0 1-1.25.954 3.66 3.66 0 0 1-1.766.359 3.281 3.281 0 0 1-1.625-.547c-.488-.332-.867-.79-1.14-1.375-.27-.582-.375-1.164-.313-1.75a3.08 3.08 0 0 1 .64-1.594C-.3-7.312.165-7.68.75-7.954a3.369 3.369 0 0 1 1.578-.343c.52.012 1 .156 1.438.438l-.547-1.188ZM3.28-2.734a2.634 2.634 0 0 0 1.078-.844c.282-.363.438-.766.47-1.203a2.505 2.505 0 0 0-.25-1.313 2.64 2.64 0 0 0-.845-1.031 2.254 2.254 0 0 0-1.203-.406 2.793 2.793 0 0 0-1.36.265c-.448.22-.808.508-1.077.86-.258.355-.41.758-.453 1.203-.051.437.027.875.234 1.312.207.438.492.782.86 1.032.363.242.765.375 1.203.406a2.62 2.62 0 0 0 1.343-.281Zm0 0" style="stroke:none"/></symbol><symbol id="bi" overflow="visible"><path d="M3.484-9.172 3.61-.797c.032.7-.062 1.242-.28 1.64-.22.407-.56.72-1.017.938-.304.133-.605.211-.906.235a2.06 2.06 0 0 1-.875-.094l.11-.813c.457.164.91.145 1.359-.062.27-.125.469-.313.594-.563.133-.25.195-.601.187-1.062v-.735l-5.656-4.89.86-.406L2.78-2.438l-.125-6.359Zm0 0" style="stroke:none"/></symbol><symbol id="bz" overflow="visible"><path d="M4.563-7.297c.582-.133 1.101-.098 1.562.11.469.21.828.59 1.078 1.14.332.711.328 1.375-.016 2-.343.625-1.027 1.18-2.046 1.656L1.344-.625-2.5-8.859l3.563-1.657c.906-.425 1.695-.578 2.375-.453.687.125 1.187.528 1.5 1.203.218.461.285.903.203 1.329a2.26 2.26 0 0 1-.579 1.14Zm-5.875-1.266 1.406 3 2.64-1.234c.664-.312 1.118-.676 1.36-1.094.238-.425.242-.882.015-1.375-.23-.488-.586-.773-1.062-.859-.48-.094-1.055.016-1.719.328ZM4.78-3.109c.739-.344 1.239-.727 1.5-1.157.258-.425.266-.91.016-1.453-.48-1.031-1.465-1.195-2.953-.5L.422-4.859 1.859-1.75Zm0 0" style="stroke:none"/></symbol><symbol id="bA" overflow="visible"><path d="m3.86-9.36 2.89 6.204-.797.39-.531-1.14c-.043.48-.211.918-.5 1.312a3.049 3.049 0 0 1-1.172.922c-.813.375-1.559.45-2.234.219C.836-1.691.296-2.25-.11-3.125l-1.672-3.594.828-.39 1.64 3.515c.301.649.692 1.07 1.172 1.266.489.187 1.032.14 1.625-.14.645-.302 1.067-.739 1.266-1.313.195-.582.129-1.227-.203-1.938L3.03-8.969Zm0 0" style="stroke:none"/></symbol><symbol id="bJ" overflow="visible"><path d="m5.234-7.453.829-.39 1.468 3.14c-.23.523-.57.996-1.015 1.422-.438.43-.95.777-1.532 1.047-.824.386-1.652.554-2.484.5a4.528 4.528 0 0 1-2.25-.782c-.664-.468-1.188-1.097-1.563-1.89a4.708 4.708 0 0 1-.437-2.407 4.31 4.31 0 0 1 .86-2.234c.492-.664 1.148-1.191 1.984-1.578a5.197 5.197 0 0 1 1.875-.516c.613-.05 1.191.04 1.734.266l-.281.797c-.95-.32-1.922-.254-2.922.203-.68.313-1.215.746-1.61 1.297a3.527 3.527 0 0 0-.703 1.812c-.062.668.06 1.32.36 1.954.305.648.723 1.164 1.266 1.546.55.375 1.164.59 1.843.641.676.043 1.348-.094 2.016-.406.844-.395 1.46-.942 1.86-1.64Zm0 0" style="stroke:none"/></symbol><symbol id="bO" overflow="visible"><path d="m-2.5-8.86.86-.406L2.202-1.03l-.86.406Zm0 0" style="stroke:none"/></symbol><symbol id="bR" overflow="visible"><path d="M1.281-.516A.715.715 0 0 1 .75-.5a.762.762 0 0 1-.406-.39.664.664 0 0 1-.031-.532.607.607 0 0 1 .359-.39.644.644 0 0 1 .531-.016c.188.062.32.183.406.36a.676.676 0 0 1 .032.562.735.735 0 0 1-.36.39Zm0 0" style="stroke:none"/></symbol><symbol id="bY" overflow="visible"><path d="m2.016-4.734-.844 2.03L2-.936l-.844.39-4.078-8.734.844-.39L.687-3.75l2.125-5.11 1.032-.484L2.39-5.578 6.984-3.25l-1.015.469Zm0 0" style="stroke:none"/></symbol><symbol id="cf" overflow="visible"><path d="m7.375-10.984.547 7.296-.797.36-4.328-4.156.422 5.984-.797.375-5.219-5.125.797-.375 4.406 4.36-.469-6.188.72-.344 4.437 4.344-.485-6.188Zm0 0" style="stroke:none"/></symbol><symbol id="ci" overflow="visible"><path d="m6.063-12.86 3.843 8.235-.828.39L6-10.827l-.656 7.062-.407.188-5.812-4 3.063 6.562-.844.391L-2.5-8.859l.719-.344 6.437 4.422.688-7.735Zm0 0" style="stroke:none"/></symbol><symbol id="cp" overflow="visible"><path d="M5.484-5.234.891-3.094.937-.438l-.906.422L-.047-10l.86-.406 7.609 6.484L7.5-3.5Zm-.64-.579L.797-9.296l.078 5.328Zm0 0" style="stroke:none"/></symbol><g clip-path="url(#a)"><g id="cr" clip-path="url(#b)"><path d="M0 .816h37v353H0Zm0 0" style="stroke:none;fill-rule:nonzero;fill:#5e5e5e;fill-opacity:1"/></g></g><g clip-path="url(#c)"><g id="ct" clip-path="url(#d)"><path d="M0 .816h37v323H0Zm0 0" style="stroke:none;fill-rule:nonzero;fill:#5e5e5e;fill-opacity:1"/></g></g><g clip-path="url(#e)"><g id="cv" clip-path="url(#f)"><path d="M0 .816h37v353H0Zm0 0" style="stroke:none;fill-rule:nonzero;fill:#5e5e5e;fill-opacity:1"/></g></g><g clip-path="url(#g)"><g id="cx" clip-path="url(#h)"><path d="M0 .816h37v359H0Zm0 0" style="stroke:none;fill-rule:nonzero;fill:#5e5e5e;fill-opacity:1"/></g></g><g clip-path="url(#i)"><g id="cz" clip-path="url(#j)"><path d="M0 .816h37v344H0Zm0 0" style="stroke:none;fill-rule:nonzero;fill:#5e5e5e;fill-opacity:1"/></g></g><g clip-path="url(#k)"><g id="cB" clip-path="url(#l)"><path d="M0 .816h37v361H0Zm0 0" style="stroke:none;fill-rule:nonzero;fill:#5e5e5e;fill-opacity:1"/></g></g><g clip-path="url(#m)"><g id="cD" clip-path="url(#n)"><path d="M0 .816h37v342H0Zm0 0" style="stroke:none;fill-rule:nonzero;fill:#5e5e5e;fill-opacity:1"/></g></g><g clip-path="url(#o)"><g id="cF" clip-path="url(#p)"><path d="M0 .816h37v356H0Zm0 0" style="stroke:none;fill-rule:nonzero;fill:#5e5e5e;fill-opacity:1"/></g></g><g clip-path="url(#q)"><g id="cH" clip-path="url(#r)"><path d="M0 .816h37v357H0Zm0 0" style="stroke:none;fill-rule:nonzero;fill:#5e5e5e;fill-opacity:1"/></g></g><g clip-path="url(#s)"><g id="cJ" clip-path="url(#t)"><path d="M0 .816h37v361H0Zm0 0" style="stroke:none;fill-rule:nonzero;fill:#5e5e5e;fill-opacity:1"/></g></g><g clip-path="url(#u)"><g id="cL" clip-path="url(#v)"><path d="M0 .816h37v361H0Zm0 0" style="stroke:none;fill-rule:nonzero;fill:#5e5e5e;fill-opacity:1"/></g></g><g clip-path="url(#w)"><g id="cN" clip-path="url(#x)"><path d="M0 .816h37v355H0Zm0 0" style="stroke:none;fill-rule:nonzero;fill:#5e5e5e;fill-opacity:1"/></g></g><g clip-path="url(#y)"><g id="cP" clip-path="url(#z)"><path d="M0 .816h37v185H0Zm0 0" style="stroke:none;fill-rule:nonzero;fill:#5e5e5e;fill-opacity:1"/></g></g><g clip-path="url(#A)"><g id="cR" clip-path="url(#B)"><path d="M0 .816h37v153H0Zm0 0" style="stroke:none;fill-rule:nonzero;fill:#5e5e5e;fill-opacity:1"/></g></g><g clip-path="url(#C)"><g id="cT" clip-path="url(#D)"><path d="M0 .816h37v324H0Zm0 0" style="stroke:none;fill-rule:nonzero;fill:#5e5e5e;fill-opacity:1"/></g></g><g clip-path="url(#E)"><g id="cV" clip-path="url(#F)"><path d="M0 .816h37v352H0Zm0 0" style="stroke:none;fill-rule:nonzero;fill:#5e5e5e;fill-opacity:1"/></g></g><g clip-path="url(#G)"><g id="cX" clip-path="url(#H)"><path d="M0 .816h37v358H0Zm0 0" style="stroke:none;fill-rule:nonzero;fill:#5e5e5e;fill-opacity:1"/></g></g></defs><g style="fill:#000;fill-opacity:1"><use xlink:href="#I" x="433" y="18.816"/><use xlink:href="#J" x="448.84" y="18.816"/></g><use xlink:href="#K" x="462.42" y="18.816" style="fill:#000;fill-opacity:1"/><g style="fill:#000;fill-opacity:1"><use xlink:href="#L" x="473.5" y="18.816"/><use xlink:href="#M" x="485.58" y="18.816"/></g><g style="fill:#000;fill-opacity:1"><use xlink:href="#N" x="493.9" y="18.816"/><use xlink:href="#O" x="502.02" y="18.816"/><use xlink:href="#P" x="513.82" y="18.816"/><use xlink:href="#J" x="519.2" y="18.816"/><use xlink:href="#N" x="532.74" y="18.816"/></g><use xlink:href="#Q" x="540.66" y="18.816" style="fill:#000;fill-opacity:1"/><path d="M52 312.316h880M52 221.316h880M52 130.316h880M52 40.316h880" style="fill:none;stroke-width:1;stroke-linecap:butt;stroke-linejoin:miter;stroke:#d5d5d5;stroke-opacity:1;stroke-dasharray:2,2;stroke-miterlimit:4"/><use xlink:href="#R" x="9" y="407.816" style="fill:#000;fill-opacity:1"/><use xlink:href="#S" x="18.114" y="407.816" style="fill:#000;fill-opacity:1"/><g style="fill:#000;fill-opacity:1"><use xlink:href="#T" x="21.222" y="407.816"/><use xlink:href="#T" x="29.174" y="407.816"/></g><use xlink:href="#R" y="317.816" style="fill:#000;fill-opacity:1"/><use xlink:href="#S" x="9.114" y="317.816" style="fill:#000;fill-opacity:1"/><g style="fill:#000;fill-opacity:1"><use xlink:href="#T" x="12.222" y="317.816"/><use xlink:href="#T" x="20.174" y="317.816"/><use xlink:href="#U" x="28.126" y="317.816"/></g><use xlink:href="#R" x="2" y="226.816" style="fill:#000;fill-opacity:1"/><use xlink:href="#S" x="11.114" y="226.816" style="fill:#000;fill-opacity:1"/><g style="fill:#000;fill-opacity:1"><use xlink:href="#T" x="14.222" y="226.816"/><use xlink:href="#V" x="22.174" y="226.816"/></g><use xlink:href="#W" x="29.93" y="226.816" style="fill:#000;fill-opacity:1"/><g style="fill:#000;fill-opacity:1"><use xlink:href="#R" x="1" y="135.816"/><use xlink:href="#S" x="10.114" y="135.816"/></g><use xlink:href="#T" x="13.222" y="135.816" style="fill:#000;fill-opacity:1"/><use xlink:href="#X" x="20.852" y="135.816" style="fill:#000;fill-opacity:1"/><use xlink:href="#V" x="29.896" y="135.816" style="fill:#000;fill-opacity:1"/><use xlink:href="#R" x="9" y="45.816" style="fill:#000;fill-opacity:1"/><use xlink:href="#S" x="18.114" y="45.816" style="fill:#000;fill-opacity:1"/><g style="fill:#000;fill-opacity:1"><use xlink:href="#T" x="21.222" y="45.816"/><use xlink:href="#W" x="29.174" y="45.816"/></g><path d="M51.5 402.316h881" style="fill:none;stroke-width:1;stroke-linecap:square;stroke-linejoin:miter;stroke:#000;stroke-opacity:1;stroke-miterlimit:4"/><g clip-path="url(#Y)"><g clip-path="url(#Z)" style="fill:#000;fill-opacity:1"><use xlink:href="#aa" x="60.468" y="438.495"/><use xlink:href="#ab" x="67.713" y="435.117"/><use xlink:href="#ac" x="75.702" y="431.392"/><use xlink:href="#ad" x="83.089" y="427.947"/></g></g><g clip-path="url(#ae)"><g clip-path="url(#af)" style="fill:#000;fill-opacity:1"><use xlink:href="#ag" x="87.99" y="425.661"/><use xlink:href="#ah" x="92.774" y="423.431"/></g></g><g clip-path="url(#ai)"><g clip-path="url(#aj)"><use xlink:href="#ak" x="107.778" y="442.698" style="fill:#000;fill-opacity:1"/></g></g><g clip-path="url(#al)"><g clip-path="url(#am)" style="fill:#000;fill-opacity:1"><use xlink:href="#an" x="115.118" y="439.276"/><use xlink:href="#ao" x="118.287" y="437.798"/><use xlink:href="#ap" x="126.264" y="434.078"/><use xlink:href="#ao" x="133.215" y="430.837"/></g></g><g clip-path="url(#aq)"><g clip-path="url(#ar)"><use xlink:href="#as" x="141.215" y="427.106" style="fill:#000;fill-opacity:1"/></g></g><g clip-path="url(#at)"><g clip-path="url(#au)"><use xlink:href="#av" x="147.742" y="424.063" style="fill:#000;fill-opacity:1"/></g></g><g clip-path="url(#aw)"><g clip-path="url(#ax)" style="fill:#000;fill-opacity:1"><use xlink:href="#ay" x="152.272" y="449.527"/><use xlink:href="#aa" x="161.603" y="445.176"/><use xlink:href="#az" x="168.849" y="441.797"/><use xlink:href="#ab" x="171.936" y="440.358"/><use xlink:href="#ac" x="179.924" y="436.633"/><use xlink:href="#aA" x="187.312" y="433.188"/><use xlink:href="#an" x="190.481" y="431.71"/><use xlink:href="#ag" x="193.65" y="430.232"/><use xlink:href="#an" x="198.434" y="428.002"/><use xlink:href="#as" x="201.603" y="426.524"/><use xlink:href="#ah" x="208.237" y="423.431"/></g></g><g clip-path="url(#aB)"><g clip-path="url(#aC)"><use xlink:href="#aD" x="209.279" y="444.687" style="fill:#000;fill-opacity:1"/></g></g><g clip-path="url(#aE)"><g clip-path="url(#aF)" style="fill:#000;fill-opacity:1"><use xlink:href="#av" x="217.585" y="440.814"/><use xlink:href="#ad" x="224.701" y="437.495"/></g></g><g clip-path="url(#aG)"><g clip-path="url(#aH)" style="fill:#000;fill-opacity:1"><use xlink:href="#ah" x="229.379" y="435.314"/><use xlink:href="#ac" x="235.14" y="432.628"/><use xlink:href="#ao" x="242.528" y="429.183"/><use xlink:href="#ap" x="250.504" y="425.464"/><use xlink:href="#aA" x="257.455" y="422.222"/></g></g><g clip-path="url(#aI)"><g clip-path="url(#aJ)" style="fill:#000;fill-opacity:1"><use xlink:href="#aa" x="249.072" y="455.9"/><use xlink:href="#ac" x="256.318" y="452.522"/><use xlink:href="#as" x="263.705" y="449.077"/><use xlink:href="#an" x="270.339" y="445.984"/><use xlink:href="#ap" x="273.508" y="444.506"/><use xlink:href="#aA" x="280.459" y="441.264"/><use xlink:href="#az" x="283.629" y="439.786"/><use xlink:href="#aK" x="286.715" y="438.347"/></g></g><g clip-path="url(#aL)"><g clip-path="url(#aM)" style="fill:#000;fill-opacity:1"><use xlink:href="#av" x="299.24" y="432.507"/><use xlink:href="#aN" x="306.356" y="429.188"/><use xlink:href="#an" x="314.344" y="425.464"/><use xlink:href="#ap" x="317.514" y="423.986"/></g></g><g clip-path="url(#aO)"><g clip-path="url(#aP)" style="fill:#000;fill-opacity:1"><use xlink:href="#aQ" x="294.727" y="461.647"/><use xlink:href="#ao" x="302.609" y="457.972"/><use xlink:href="#ag" x="310.585" y="454.252"/></g></g><g clip-path="url(#aR)"><g clip-path="url(#aS)" style="fill:#000;fill-opacity:1"><use xlink:href="#av" x="315.145" y="452.126"/><use xlink:href="#ad" x="322.261" y="448.808"/></g></g><g clip-path="url(#aT)"><g clip-path="url(#aU)" style="fill:#000;fill-opacity:1"><use xlink:href="#ag" x="327.163" y="446.522"/><use xlink:href="#ap" x="331.946" y="444.292"/><use xlink:href="#an" x="338.898" y="441.05"/><use xlink:href="#ao" x="342.067" y="439.572"/><use xlink:href="#aK" x="350.043" y="435.853"/></g></g><g clip-path="url(#aV)"><g clip-path="url(#aW)" style="fill:#000;fill-opacity:1"><use xlink:href="#av" x="362.568" y="430.013"/><use xlink:href="#ao" x="369.684" y="426.694"/><use xlink:href="#ag" x="377.66" y="422.975"/></g></g><g clip-path="url(#aX)"><g clip-path="url(#aY)"><use xlink:href="#aZ" x="356.323" y="452.527" style="fill:#000;fill-opacity:1"/></g></g><g clip-path="url(#ba)"><g clip-path="url(#bb)" style="fill:#000;fill-opacity:1"><use xlink:href="#av" x="362.437" y="449.676"/><use xlink:href="#as" x="369.554" y="446.357"/></g></g><g clip-path="url(#bc)"><g clip-path="url(#bd)" style="fill:#000;fill-opacity:1"><use xlink:href="#be" x="376.093" y="443.308"/><use xlink:href="#ao" x="384.069" y="439.589"/></g></g><g clip-path="url(#bf)"><g clip-path="url(#bg)" style="fill:#000;fill-opacity:1"><use xlink:href="#ac" x="392.069" y="435.858"/><use xlink:href="#aA" x="399.457" y="432.413"/><use xlink:href="#ac" x="402.626" y="430.936"/><use xlink:href="#bh" x="410.013" y="427.491"/><use xlink:href="#bi" x="418.096" y="423.722"/></g></g><g clip-path="url(#bj)"><g clip-path="url(#bk)" style="fill:#000;fill-opacity:1"><use xlink:href="#aa" x="419.315" y="442.105"/><use xlink:href="#as" x="426.561" y="438.726"/><use xlink:href="#an" x="433.194" y="435.633"/><use xlink:href="#av" x="436.363" y="434.155"/><use xlink:href="#ao" x="443.48" y="430.837"/></g></g><g clip-path="url(#bl)"><g clip-path="url(#bm)"><use xlink:href="#as" x="451.48" y="427.106" style="fill:#000;fill-opacity:1"/></g></g><g clip-path="url(#bn)"><g clip-path="url(#bo)"><use xlink:href="#av" x="458.007" y="424.063" style="fill:#000;fill-opacity:1"/></g></g><g clip-path="url(#bp)"><g clip-path="url(#bq)"><use xlink:href="#aQ" x="461.458" y="451.126" style="fill:#000;fill-opacity:1"/></g></g><g clip-path="url(#br)"><g clip-path="url(#bs)"><use xlink:href="#as" x="469.246" y="447.495" style="fill:#000;fill-opacity:1"/></g></g><g clip-path="url(#bt)"><g clip-path="url(#bu)" style="fill:#000;fill-opacity:1"><use xlink:href="#ac" x="475.774" y="444.451"/><use xlink:href="#ao" x="483.161" y="441.006"/></g></g><g clip-path="url(#bv)"><g clip-path="url(#bw)" style="fill:#000;fill-opacity:1"><use xlink:href="#ac" x="491.161" y="437.276"/><use xlink:href="#aK" x="498.548" y="433.831"/><use xlink:href="#an" x="511.049" y="428.002"/><use xlink:href="#as" x="514.218" y="426.524"/><use xlink:href="#ah" x="520.851" y="423.431"/></g></g><g clip-path="url(#bx)"><g clip-path="url(#by)" style="fill:#000;fill-opacity:1"><use xlink:href="#bz" x="519.661" y="445.171"/><use xlink:href="#bA" x="528.545" y="441.028"/><use xlink:href="#ah" x="536.474" y="437.331"/><use xlink:href="#an" x="542.235" y="434.644"/><use xlink:href="#ao" x="545.405" y="433.166"/></g></g><g clip-path="url(#bB)"><g clip-path="url(#bC)" style="fill:#000;fill-opacity:1"><use xlink:href="#av" x="553.405" y="429.436"/><use xlink:href="#ah" x="560.521" y="426.117"/><use xlink:href="#ah" x="566.282" y="423.431"/></g></g><g clip-path="url(#bD)"><g clip-path="url(#bE)"><use xlink:href="#aD" x="576.479" y="440.506" style="fill:#000;fill-opacity:1"/></g></g><g clip-path="url(#bF)"><g clip-path="url(#bG)" style="fill:#000;fill-opacity:1"><use xlink:href="#ac" x="584.786" y="436.633"/><use xlink:href="#aA" x="592.173" y="433.188"/><use xlink:href="#an" x="595.342" y="431.71"/><use xlink:href="#ag" x="598.512" y="430.232"/><use xlink:href="#an" x="603.295" y="428.002"/><use xlink:href="#as" x="606.464" y="426.524"/><use xlink:href="#ah" x="613.098" y="423.431"/></g></g><g clip-path="url(#bH)"><g clip-path="url(#bI)" style="fill:#000;fill-opacity:1"><use xlink:href="#bJ" x="625.58" y="443.039"/><use xlink:href="#ap" x="634.688" y="438.792"/><use xlink:href="#aK" x="641.639" y="435.551"/><use xlink:href="#an" x="654.14" y="429.721"/><use xlink:href="#ao" x="657.309" y="428.243"/></g></g><g clip-path="url(#bK)"><g clip-path="url(#bL)"><use xlink:href="#bh" x="665.309" y="424.513" style="fill:#000;fill-opacity:1"/></g></g><g clip-path="url(#bM)"><g clip-path="url(#bN)" style="fill:#000;fill-opacity:1"><use xlink:href="#bO" x="669.262" y="450.626"/><use xlink:href="#ao" x="672.82" y="448.967"/><use xlink:href="#ag" x="680.796" y="445.248"/></g></g><g clip-path="url(#bP)"><g clip-path="url(#bQ)" style="fill:#000;fill-opacity:1"><use xlink:href="#bR" x="685.698" y="442.962"/><use xlink:href="#az" x="688.195" y="441.797"/><use xlink:href="#ab" x="691.282" y="440.358"/><use xlink:href="#ac" x="699.27" y="436.633"/><use xlink:href="#aA" x="706.658" y="433.188"/><use xlink:href="#an" x="709.827" y="431.71"/><use xlink:href="#ag" x="712.996" y="430.232"/><use xlink:href="#an" x="717.78" y="428.002"/><use xlink:href="#as" x="720.949" y="426.524"/><use xlink:href="#ah" x="727.583" y="423.431"/></g></g><g clip-path="url(#bS)"><g clip-path="url(#bT)"><use xlink:href="#aQ" x="722.816" y="449.005" style="fill:#000;fill-opacity:1"/></g></g><g clip-path="url(#bU)"><g clip-path="url(#bV)" style="fill:#000;fill-opacity:1"><use xlink:href="#aN" x="730.604" y="445.374"/><use xlink:href="#bA" x="738.592" y="441.649"/><use xlink:href="#as" x="746.522" y="437.951"/><use xlink:href="#ap" x="753.155" y="434.858"/><use xlink:href="#ag" x="760.106" y="431.617"/><use xlink:href="#an" x="764.89" y="429.386"/><use xlink:href="#ac" x="768.059" y="427.908"/><use xlink:href="#ao" x="775.447" y="424.464"/></g></g><g clip-path="url(#bW)"><g clip-path="url(#bX)" style="fill:#000;fill-opacity:1"><use xlink:href="#ay" x="776.018" y="447.714"/><use xlink:href="#ao" x="785.349" y="443.363"/><use xlink:href="#bY" x="793.325" y="439.644"/></g></g><g clip-path="url(#bZ)"><g clip-path="url(#ca)"><use xlink:href="#ao" x="800.312" y="436.386" style="fill:#000;fill-opacity:1"/></g></g><g clip-path="url(#cb)"><g clip-path="url(#cc)"><use xlink:href="#ac" x="808.312" y="432.655" style="fill:#000;fill-opacity:1"/></g></g><g clip-path="url(#cd)"><g clip-path="url(#ce)" style="fill:#000;fill-opacity:1"><use xlink:href="#cf" x="815.523" y="429.293"/><use xlink:href="#ao" x="825.879" y="424.464"/></g></g><g clip-path="url(#cg)"><g clip-path="url(#ch)" style="fill:#000;fill-opacity:1"><use xlink:href="#ci" x="815.098" y="459.592"/><use xlink:href="#an" x="826.35" y="454.346"/><use xlink:href="#ah" x="829.519" y="452.868"/><use xlink:href="#as" x="835.28" y="450.181"/></g></g><g clip-path="url(#cj)"><g clip-path="url(#ck)" style="fill:#000;fill-opacity:1"><use xlink:href="#av" x="841.808" y="447.137"/><use xlink:href="#aA" x="848.924" y="443.819"/><use xlink:href="#aA" x="852.093" y="442.341"/><use xlink:href="#ap" x="855.263" y="440.863"/><use xlink:href="#ao" x="862.214" y="437.622"/></g></g><g clip-path="url(#cl)"><g clip-path="url(#cm)" style="fill:#000;fill-opacity:1"><use xlink:href="#av" x="870.214" y="433.891"/><use xlink:href="#ac" x="877.33" y="430.573"/><use xlink:href="#bA" x="884.718" y="427.128"/><use xlink:href="#ah" x="892.647" y="423.431"/></g></g><g clip-path="url(#cn)"><g clip-path="url(#co)" style="fill:#000;fill-opacity:1"><use xlink:href="#cp" x="901.177" y="427.639"/><use xlink:href="#aA" x="909.624" y="423.7"/><use xlink:href="#aA" x="912.794" y="422.222"/></g></g><g clip-path="url(#cq)"><use xlink:href="#cr" transform="translate(59 48)"/></g><g clip-path="url(#cs)"><use xlink:href="#ct" transform="translate(111 78)"/></g><g clip-path="url(#cu)"><use xlink:href="#cv" transform="translate(163 48)"/></g><g clip-path="url(#cw)"><use xlink:href="#cx" transform="translate(214 42)"/></g><g clip-path="url(#cy)"><use xlink:href="#cz" transform="translate(266 57)"/></g><g clip-path="url(#cA)"><use xlink:href="#cB" transform="translate(318 40)"/></g><g clip-path="url(#cC)"><use xlink:href="#cD" transform="translate(370 59)"/></g><g clip-path="url(#cE)"><use xlink:href="#cF" transform="translate(422 45)"/></g><g clip-path="url(#cG)"><use xlink:href="#cH" transform="translate(474 44)"/></g><g clip-path="url(#cI)"><use xlink:href="#cJ" transform="translate(525 40)"/></g><g clip-path="url(#cK)"><use xlink:href="#cL" transform="translate(577 40)"/></g><g clip-path="url(#cM)"><use xlink:href="#cN" transform="translate(629 46)"/></g><g clip-path="url(#cO)"><use xlink:href="#cP" transform="translate(681 216)"/></g><g clip-path="url(#cQ)"><use xlink:href="#cR" transform="translate(733 248)"/></g><g clip-path="url(#cS)"><use xlink:href="#cT" transform="translate(784 77)"/></g><g clip-path="url(#cU)"><use xlink:href="#cV" transform="translate(836 49)"/></g><g clip-path="url(#cW)"><use xlink:href="#cX" transform="translate(888 43)"/></g></svg>