<svg width="1655" height="995" xmlns="http://www.w3.org/2000/svg" xmlns:xlink="http://www.w3.org/1999/xlink" overflow="hidden"><defs><clipPath id="clip0"><rect x="3950" y="1159" width="1655" height="995"/></clipPath><clipPath id="clip1"><rect x="3955" y="1164" width="1650" height="990"/></clipPath><clipPath id="clip2"><rect x="3955" y="1164" width="1650" height="990"/></clipPath><clipPath id="clip3"><rect x="3955" y="1164" width="1650" height="990"/></clipPath><clipPath id="clip4"><rect x="3955" y="1164" width="1650" height="990"/></clipPath><clipPath id="clip5"><rect x="3955" y="1164" width="1650" height="990"/></clipPath><clipPath id="clip6"><rect x="4200" y="1637" width="232" height="117"/></clipPath><clipPath id="clip7"><rect x="3955" y="1164" width="1650" height="990"/></clipPath><clipPath id="clip8"><rect x="4200" y="1637" width="232" height="117"/></clipPath><clipPath id="clip9"><rect x="3955" y="1164" width="1650" height="990"/></clipPath><clipPath id="clip10"><rect x="4200" y="1637" width="232" height="117"/></clipPath><clipPath id="clip11"><rect x="3955" y="1164" width="1650" height="990"/></clipPath><clipPath id="clip12"><rect x="4200" y="1637" width="232" height="117"/></clipPath><clipPath id="clip13"><rect x="3955" y="1164" width="1650" height="990"/></clipPath><clipPath id="clip14"><rect x="5152" y="1640" width="323" height="66"/></clipPath><clipPath id="clip15"><rect x="3955" y="1164" width="1650" height="990"/></clipPath><clipPath id="clip16"><rect x="3955" y="1164" width="1650" height="990"/></clipPath><clipPath id="clip17"><rect x="3955" y="1164" width="1650" height="990"/></clipPath><clipPath id="clip18"><rect x="3955" y="1164" width="1650" height="990"/></clipPath><clipPath id="clip19"><rect x="3955" y="1164" width="1650" height="990"/></clipPath><clipPath id="clip20"><rect x="5115" y="1865" width="384" height="116"/></clipPath><clipPath id="clip21"><rect x="3955" y="1164" width="1650" height="990"/></clipPath><clipPath id="clip22"><rect x="3955" y="1164" width="1651" height="991"/></clipPath></defs><g clip-path="url(#clip0)" transform="translate(-3950 -1159)"><rect x="3955" y="1164" width="1650" height="990" fill="#FFFFFF" fill-opacity="1"/><g clip-path="url(#clip1)"><path d="M5082.25 1853.33C5008.03 2020.03 4812.73 2095 4646.03 2020.78 4479.33 1946.56 4404.36 1751.26 4478.58 1584.56 4552.8 1417.86 4748.1 1342.89 4914.8 1417.11 5001.59 1455.75 5067.54 1529.87 5095.83 1620.56L4780.42 1718.94Z" stroke="#FFFFFF" stroke-width="4.58333" stroke-linecap="butt" stroke-linejoin="round" stroke-miterlimit="10" stroke-opacity="1" fill="#4472C4" fill-rule="evenodd" fill-opacity="1"/></g><g clip-path="url(#clip2)"><path d="M5095.83 1620.56C5109.24 1663.55 5113.72 1708.84 5108.99 1753.63L4780.42 1718.94Z" stroke="#FFFFFF" stroke-width="4.58333" stroke-linecap="butt" stroke-linejoin="round" stroke-miterlimit="10" stroke-opacity="1" fill="#FFC000" fill-rule="evenodd" fill-opacity="1"/></g><g clip-path="url(#clip3)"><path d="M5108.99 1753.63C5106.63 1775.98 5102 1798.03 5095.16 1819.45L4780.42 1718.94Z" stroke="#FFFFFF" stroke-width="4.58333" stroke-linecap="butt" stroke-linejoin="round" stroke-miterlimit="10" stroke-opacity="1" fill="#ED7D31" fill-rule="evenodd" fill-opacity="1"/></g><g clip-path="url(#clip4)"><path d="M5095.16 1819.45C5091.48 1830.97 5087.17 1842.28 5082.25 1853.33L4780.42 1718.94Z" stroke="#FFFFFF" stroke-width="4.58333" stroke-linecap="butt" stroke-linejoin="round" stroke-miterlimit="10" stroke-opacity="1" fill="#70AD47" fill-rule="evenodd" fill-opacity="1"/></g><g clip-path="url(#clip5)"><g clip-path="url(#clip6)"><text fill="#4472C4" fill-opacity="1" font-family="Calibri,Calibri_MSFontService,sans-serif" font-style="normal" font-variant="normal" font-weight="400" font-stretch="normal" font-size="41" text-anchor="start" direction="ltr" writing-mode="lr-tb" unicode-bidi="normal" text-decoration="none" transform="matrix(1 0 0 1 4236.47 1684)">sheltered</text></g></g><g clip-path="url(#clip7)"><g clip-path="url(#clip8)"><text fill="#4472C4" fill-opacity="1" font-family="Calibri,Calibri_MSFontService,sans-serif" font-style="normal" font-variant="normal" font-weight="400" font-stretch="normal" font-size="41" text-anchor="start" direction="ltr" writing-mode="lr-tb" unicode-bidi="normal" text-decoration="none" transform="matrix(1 0 0 1 4215.06 1735)">non</text></g></g><g clip-path="url(#clip9)"><g clip-path="url(#clip10)"><text fill="#4472C4" fill-opacity="1" font-family="Calibri,Calibri_MSFontService,sans-serif" font-style="normal" font-variant="normal" font-weight="400" font-stretch="normal" font-size="41" text-anchor="start" direction="ltr" writing-mode="lr-tb" unicode-bidi="normal" text-decoration="none" transform="matrix(1 0 0 1 4280.17 1735)">-</text></g></g><g clip-path="url(#clip11)"><g clip-path="url(#clip12)"><text fill="#4472C4" fill-opacity="1" font-family="Calibri,Calibri_MSFontService,sans-serif" font-style="normal" font-variant="normal" font-weight="400" font-stretch="normal" font-size="41" text-anchor="start" direction="ltr" writing-mode="lr-tb" unicode-bidi="normal" text-decoration="none" transform="matrix(1 0 0 1 4292.8 1735)">chronic</text></g></g><g clip-path="url(#clip13)"><g clip-path="url(#clip14)"><text fill="#FFC000" fill-opacity="1" font-family="Calibri,Calibri_MSFontService,sans-serif" font-style="normal" font-variant="normal" font-weight="400" font-stretch="normal" font-size="41" text-anchor="start" direction="ltr" writing-mode="lr-tb" unicode-bidi="normal" text-decoration="none" transform="matrix(1 0 0 1 5167.37 1687)">sheltered chronic</text></g></g><g clip-path="url(#clip15)"><text fill="#ED7D31" fill-opacity="1" font-family="Calibri,Calibri_MSFontService,sans-serif" font-style="normal" font-variant="normal" font-weight="400" font-stretch="normal" font-size="41" text-anchor="start" direction="ltr" writing-mode="lr-tb" unicode-bidi="normal" text-decoration="none" transform="matrix(1 0 0 1 5215.72 1795)">unsheltered</text></g><g clip-path="url(#clip16)"><text fill="#ED7D31" fill-opacity="1" font-family="Calibri,Calibri_MSFontService,sans-serif" font-style="normal" font-variant="normal" font-weight="400" font-stretch="normal" font-size="41" text-anchor="start" direction="ltr" writing-mode="lr-tb" unicode-bidi="normal" text-decoration="none" transform="matrix(1 0 0 1 5220.65 1846)">non</text></g><g clip-path="url(#clip17)"><text fill="#ED7D31" fill-opacity="1" font-family="Calibri,Calibri_MSFontService,sans-serif" font-style="normal" font-variant="normal" font-weight="400" font-stretch="normal" font-size="41" text-anchor="start" direction="ltr" writing-mode="lr-tb" unicode-bidi="normal" text-decoration="none" transform="matrix(1 0 0 1 5285.76 1846)">-</text></g><g clip-path="url(#clip18)"><text fill="#ED7D31" fill-opacity="1" font-family="Calibri,Calibri_MSFontService,sans-serif" font-style="normal" font-variant="normal" font-weight="400" font-stretch="normal" font-size="41" text-anchor="start" direction="ltr" writing-mode="lr-tb" unicode-bidi="normal" text-decoration="none" transform="matrix(1 0 0 1 5298.38 1846)">chronic</text></g><g clip-path="url(#clip19)"><g clip-path="url(#clip20)"><text fill="#70AD47" fill-opacity="1" font-family="Calibri,Calibri_MSFontService,sans-serif" font-style="normal" font-variant="normal" font-weight="400" font-stretch="normal" font-size="41" text-anchor="start" direction="ltr" writing-mode="lr-tb" unicode-bidi="normal" text-decoration="none" transform="matrix(1 0 0 1 5139.48 1937)">unsheltered chronic</text></g></g><g clip-path="url(#clip21)"><text fill="#000000" fill-opacity="1" font-family="Calibri,Calibri_MSFontService,sans-serif" font-style="normal" font-variant="normal" font-weight="400" font-stretch="normal" font-size="64" text-anchor="start" direction="ltr" writing-mode="lr-tb" unicode-bidi="normal" text-decoration="none" transform="matrix(1 0 0 1 4330.45 1260)">Homelessness in New York in 2020</text></g><g clip-path="url(#clip22)"><text fill="#D0CECE" fill-opacity="1" font-family="Courier,Courier_MSFontService,sans-serif" font-style="normal" font-variant="normal" font-weight="400" font-stretch="normal" font-size="28" text-anchor="start" direction="ltr" writing-mode="lr-tb" unicode-bidi="normal" text-decoration="none" transform="matrix(1 0 0 1 4979.06 2059)">dynomight.net</text></g></g></svg>