<?xml version="1.0" encoding="utf-8" standalone="no"?>
<!DOCTYPE svg PUBLIC "-//W3C//DTD SVG 1.1//EN"
  "http://www.w3.org/Graphics/SVG/1.1/DTD/svg11.dtd">
<svg height="576pt" version="1.1" viewBox="0 0 576 576" width="576pt" xmlns="http://www.w3.org/2000/svg" xmlns:xlink="http://www.w3.org/1999/xlink">
 <metadata>
  <rdf:RDF xmlns:cc="http://creativecommons.org/ns#" xmlns:dc="http://purl.org/dc/elements/1.1/" xmlns:rdf="http://www.w3.org/1999/02/22-rdf-syntax-ns#">
   <cc:Work>
    <dc:type rdf:resource="http://purl.org/dc/dcmitype/StillImage"/>
    <dc:date>2022-02-18T16:38:03.421406</dc:date>
    <dc:format>image/svg+xml</dc:format>
    <dc:creator>
     <cc:Agent>
      <dc:title>Matplotlib v3.4.1, https://matplotlib.org/</dc:title>
     </cc:Agent>
    </dc:creator>
   </cc:Work>
  </rdf:RDF>
 </metadata>
 <defs>
  <style type="text/css">*{stroke-linecap:butt;stroke-linejoin:round;}</style>
 </defs>
 <g id="figure_1">
  <g id="patch_1">
   <path d="M 0 576 
L 576 576 
L 576 0 
L 0 0 
z
" style="fill:none;"/>
  </g>
  <g id="axes_1">
   <g id="patch_2">
    <path d="M 74.725 507.4 
L 545.025 507.4 
L 545.025 21.6 
L 74.725 21.6 
z
" style="fill:#ffffff;"/>
   </g>
   <g id="matplotlib.axis_1">
    <g id="xtick_1">
     <g id="line2d_1">
      <defs>
       <path d="M 0 0 
L 0 3.5 
" id="mbbe7ab038b" style="stroke:#000000;stroke-width:0.8;"/>
      </defs>
      <g>
       <use style="stroke:#000000;stroke-width:0.8;" x="74.725" xlink:href="#mbbe7ab038b" y="507.4"/>
      </g>
     </g>
     <g id="text_1">
      <!-- 0 -->
      <g transform="translate(68.514063 528.715625)scale(0.2 -0.2)">
       <defs>
        <path d="M 3622 1572 
Q 3622 1200 3495 883 
Q 3369 566 3141 350 
Q 2916 134 2620 18 
Q 2325 -97 1981 -97 
Q 1641 -97 1345 18 
Q 1050 134 834 350 
Q 600 584 476 895 
Q 353 1206 353 1578 
Q 353 1941 467 2236 
Q 581 2531 794 2759 
Q 1000 2981 1312 3112 
Q 1625 3244 1988 3244 
Q 2353 3244 2656 3119 
Q 2959 2994 3166 2778 
Q 3388 2547 3505 2248 
Q 3622 1950 3622 1572 
z
M 3116 1544 
Q 3116 1844 3023 2101 
Q 2931 2359 2759 2534 
Q 2616 2684 2422 2765 
Q 2228 2847 1991 2847 
Q 1725 2847 1537 2758 
Q 1350 2669 1219 2538 
Q 1053 2375 956 2115 
Q 859 1856 859 1581 
Q 859 1281 951 1029 
Q 1044 778 1241 591 
Q 1378 456 1565 378 
Q 1753 300 1978 300 
Q 2209 300 2401 376 
Q 2594 453 2734 591 
Q 2919 766 3017 1011 
Q 3116 1256 3116 1544 
z
" id="Skia-Regular-30" transform="scale(0.015625)"/>
       </defs>
       <use xlink:href="#Skia-Regular-30"/>
      </g>
     </g>
    </g>
    <g id="xtick_2">
     <g id="line2d_2">
      <g>
       <use style="stroke:#000000;stroke-width:0.8;" x="141.910714" xlink:href="#mbbe7ab038b" y="507.4"/>
      </g>
     </g>
     <g id="text_2">
      <!-- 5 -->
      <g transform="translate(137.124777 528.715625)scale(0.2 -0.2)">
       <defs>
        <path d="M 2803 2678 
Q 2778 2678 2259 2684 
Q 1741 2691 1056 2691 
L 1056 1516 
Q 1391 1494 1655 1428 
Q 1919 1363 2113 1269 
Q 2419 1119 2566 878 
Q 2713 638 2713 331 
Q 2713 25 2528 -253 
Q 2344 -531 2022 -691 
Q 1781 -809 1456 -878 
Q 1131 -947 713 -947 
Q 656 -947 587 -947 
Q 519 -947 494 -947 
L 438 -531 
Q 463 -531 519 -531 
Q 575 -531 603 -531 
Q 941 -531 1247 -484 
Q 1553 -438 1750 -344 
Q 1981 -231 2087 -67 
Q 2194 97 2194 313 
Q 2194 528 2064 695 
Q 1934 863 1653 969 
Q 1509 1022 1287 1053 
Q 1066 1084 772 1094 
Q 731 1094 678 1095 
Q 625 1097 600 1097 
Q 603 1131 603 1501 
Q 603 1872 603 2125 
Q 603 2350 601 2719 
Q 600 3088 600 3116 
Q 625 3116 981 3114 
Q 1338 3113 1678 3113 
Q 1966 3113 2378 3114 
Q 2791 3116 2803 3116 
L 2803 2678 
z
" id="Skia-Regular-35" transform="scale(0.015625)"/>
       </defs>
       <use xlink:href="#Skia-Regular-35"/>
      </g>
     </g>
    </g>
    <g id="xtick_3">
     <g id="line2d_3">
      <g>
       <use style="stroke:#000000;stroke-width:0.8;" x="209.096429" xlink:href="#mbbe7ab038b" y="507.4"/>
      </g>
     </g>
     <g id="text_3">
      <!-- 10 -->
      <g transform="translate(199.076116 528.715625)scale(0.2 -0.2)">
       <defs>
        <path d="M 1759 0 
L 1272 0 
Q 1275 100 1284 562 
Q 1294 1025 1294 1847 
Q 1294 1991 1292 2262 
Q 1291 2534 1288 2688 
L 1278 2691 
Q 1141 2613 875 2447 
Q 609 2281 306 2094 
L 128 2369 
Q 503 2631 923 2923 
Q 1344 3216 1403 3256 
L 1759 3009 
Q 1753 2556 1750 2081 
Q 1747 1606 1747 1522 
Q 1747 1153 1751 626 
Q 1756 100 1759 0 
z
" id="Skia-Regular-31" transform="scale(0.015625)"/>
       </defs>
       <use xlink:href="#Skia-Regular-31"/>
       <use x="38.085938" xlink:href="#Skia-Regular-30"/>
      </g>
     </g>
    </g>
    <g id="xtick_4">
     <g id="line2d_4">
      <g>
       <use style="stroke:#000000;stroke-width:0.8;" x="276.282143" xlink:href="#mbbe7ab038b" y="507.4"/>
      </g>
     </g>
     <g id="text_4">
      <!-- 15 -->
      <g transform="translate(267.68683 528.715625)scale(0.2 -0.2)">
       <use xlink:href="#Skia-Regular-31"/>
       <use x="38.085938" xlink:href="#Skia-Regular-35"/>
      </g>
     </g>
    </g>
    <g id="xtick_5">
     <g id="line2d_5">
      <g>
       <use style="stroke:#000000;stroke-width:0.8;" x="343.467857" xlink:href="#mbbe7ab038b" y="507.4"/>
      </g>
     </g>
     <g id="text_5">
      <!-- 20 -->
      <g transform="translate(332.135045 528.715625)scale(0.2 -0.2)">
       <defs>
        <path d="M 3200 6 
Q 3156 6 2612 7 
Q 2069 9 1809 9 
Q 1441 9 923 7 
Q 406 6 378 6 
L 259 359 
Q 522 488 870 683 
Q 1219 878 1416 1031 
Q 1725 1269 1886 1483 
Q 2047 1697 2047 1991 
Q 2047 2219 1945 2376 
Q 1844 2534 1659 2628 
Q 1491 2713 1273 2748 
Q 1056 2784 813 2784 
Q 728 2784 620 2779 
Q 513 2775 434 2772 
L 478 3188 
Q 531 3191 636 3195 
Q 741 3200 859 3200 
Q 1200 3200 1465 3151 
Q 1731 3103 1959 2994 
Q 2247 2856 2406 2617 
Q 2566 2378 2566 2044 
Q 2566 1763 2437 1522 
Q 2309 1281 2119 1097 
Q 1922 903 1639 718 
Q 1356 534 1081 400 
L 1088 381 
Q 1222 394 1422 405 
Q 1622 416 1819 419 
Q 2213 425 2684 429 
Q 3156 434 3200 434 
L 3200 6 
z
" id="Skia-Regular-32" transform="scale(0.015625)"/>
       </defs>
       <use xlink:href="#Skia-Regular-32"/>
       <use x="51.220703" xlink:href="#Skia-Regular-30"/>
      </g>
     </g>
    </g>
    <g id="xtick_6">
     <g id="line2d_6">
      <g>
       <use style="stroke:#000000;stroke-width:0.8;" x="410.653571" xlink:href="#mbbe7ab038b" y="507.4"/>
      </g>
     </g>
     <g id="text_6">
      <!-- 25 -->
      <g transform="translate(400.745759 528.715625)scale(0.2 -0.2)">
       <use xlink:href="#Skia-Regular-32"/>
       <use x="51.220703" xlink:href="#Skia-Regular-35"/>
      </g>
     </g>
    </g>
    <g id="xtick_7">
     <g id="line2d_7">
      <g>
       <use style="stroke:#000000;stroke-width:0.8;" x="477.839286" xlink:href="#mbbe7ab038b" y="507.4"/>
      </g>
     </g>
     <g id="text_7">
      <!-- 30 -->
      <g transform="translate(467.018973 528.715625)scale(0.2 -0.2)">
       <defs>
        <path d="M 2613 294 
Q 2613 -6 2439 -261 
Q 2266 -516 1925 -684 
Q 1641 -822 1317 -889 
Q 994 -956 497 -956 
Q 422 -956 344 -954 
Q 266 -953 231 -950 
L 172 -538 
Q 206 -538 307 -538 
Q 409 -538 484 -538 
Q 756 -538 1025 -506 
Q 1294 -475 1491 -409 
Q 1778 -313 1936 -148 
Q 2094 16 2094 272 
Q 2094 497 1931 653 
Q 1769 809 1509 881 
Q 1400 913 1265 928 
Q 1131 944 947 944 
Q 878 944 818 941 
Q 759 938 716 934 
L 659 1319 
Q 1247 1378 1555 1572 
Q 1863 1766 1863 2094 
Q 1863 2322 1752 2464 
Q 1641 2606 1438 2688 
Q 1294 2744 1100 2769 
Q 906 2794 719 2794 
Q 638 2794 552 2792 
Q 466 2791 441 2791 
L 525 3209 
Q 550 3209 595 3209 
Q 641 3209 681 3209 
Q 1009 3209 1282 3176 
Q 1556 3144 1822 3022 
Q 2075 2906 2228 2703 
Q 2381 2500 2381 2194 
Q 2381 1875 2167 1620 
Q 1953 1366 1641 1241 
L 1641 1228 
Q 2088 1144 2350 922 
Q 2613 700 2613 294 
z
" id="Skia-Regular-33" transform="scale(0.015625)"/>
       </defs>
       <use xlink:href="#Skia-Regular-33"/>
       <use x="46.09375" xlink:href="#Skia-Regular-30"/>
      </g>
     </g>
    </g>
    <g id="xtick_8">
     <g id="line2d_8">
      <g>
       <use style="stroke:#000000;stroke-width:0.8;" x="545.025" xlink:href="#mbbe7ab038b" y="507.4"/>
      </g>
     </g>
     <g id="text_8">
      <!-- 35 -->
      <g transform="translate(535.629688 528.715625)scale(0.2 -0.2)">
       <use xlink:href="#Skia-Regular-33"/>
       <use x="46.09375" xlink:href="#Skia-Regular-35"/>
      </g>
     </g>
    </g>
    <g id="text_9">
     <!-- Celsius -->
     <g transform="translate(279.732813 551.475)scale(0.2 -0.2)">
      <defs>
       <path d="M 3500 384 
Q 3497 356 3483 226 
Q 3469 97 3456 -56 
Q 3431 -56 3401 -56 
Q 3372 -56 3347 -56 
Q 2584 -56 1990 136 
Q 1397 328 1016 694 
Q 750 947 595 1300 
Q 441 1653 441 2106 
Q 441 2513 594 2848 
Q 747 3184 994 3434 
Q 1353 3797 1959 4009 
Q 2566 4222 3256 4222 
Q 3291 4222 3334 4222 
Q 3378 4222 3397 4222 
Q 3400 4166 3409 4042 
Q 3419 3919 3431 3775 
Q 3400 3775 3378 3775 
Q 3356 3775 3325 3775 
Q 2934 3775 2515 3689 
Q 2097 3603 1794 3431 
Q 1400 3206 1187 2854 
Q 975 2503 975 2097 
Q 975 1675 1165 1329 
Q 1356 984 1769 750 
Q 2106 556 2523 468 
Q 2941 381 3353 381 
Q 3372 381 3412 381 
Q 3453 381 3500 384 
z
" id="Skia-Regular-43" transform="scale(0.015625)"/>
       <path d="M 3009 1697 
L 750 1697 
Q 753 1366 890 1089 
Q 1028 813 1313 631 
Q 1494 516 1725 458 
Q 1956 400 2281 400 
Q 2459 400 2607 409 
Q 2756 419 2791 422 
L 2734 6 
Q 2709 3 2568 -5 
Q 2428 -13 2238 -13 
Q 1738 -13 1367 117 
Q 997 247 759 475 
Q 556 666 414 962 
Q 272 1259 272 1622 
Q 272 1978 378 2265 
Q 484 2553 697 2800 
Q 881 3013 1154 3128 
Q 1428 3244 1722 3244 
Q 2013 3244 2238 3156 
Q 2463 3069 2628 2891 
Q 2813 2691 2909 2398 
Q 3006 2106 3009 1697 
z
M 2525 2047 
Q 2475 2434 2261 2654 
Q 2047 2875 1697 2875 
Q 1347 2875 1112 2651 
Q 878 2428 788 2047 
L 2525 2047 
z
" id="Skia-Regular-65" transform="scale(0.015625)"/>
       <path d="M 1100 0 
L 606 0 
Q 609 38 614 914 
Q 619 1791 619 2369 
Q 619 2741 617 3308 
Q 616 3875 606 4581 
L 1100 4581 
Q 1094 4100 1091 3467 
Q 1088 2834 1088 2400 
Q 1088 1453 1094 743 
Q 1100 34 1100 0 
z
" id="Skia-Regular-6c" transform="scale(0.015625)"/>
       <path d="M 2291 916 
Q 2291 684 2178 503 
Q 2066 322 1884 209 
Q 1694 91 1433 30 
Q 1172 -31 856 -31 
Q 703 -31 539 -17 
Q 375 -3 353 0 
L 334 409 
Q 363 406 552 392 
Q 741 378 928 378 
Q 1038 378 1209 397 
Q 1381 416 1494 466 
Q 1650 534 1725 634 
Q 1800 734 1800 875 
Q 1800 1003 1734 1083 
Q 1669 1163 1553 1238 
Q 1428 1322 1211 1417 
Q 994 1513 847 1600 
Q 638 1728 527 1903 
Q 416 2078 416 2309 
Q 416 2541 542 2725 
Q 669 2909 881 3022 
Q 1066 3122 1289 3155 
Q 1513 3188 1722 3188 
Q 1913 3188 2034 3181 
Q 2156 3175 2175 3175 
L 2209 2759 
Q 2188 2759 2017 2771 
Q 1847 2784 1644 2784 
Q 1500 2784 1370 2759 
Q 1241 2734 1150 2688 
Q 1016 2619 958 2522 
Q 900 2425 900 2334 
Q 900 2209 981 2118 
Q 1063 2028 1172 1966 
Q 1300 1891 1522 1787 
Q 1744 1684 1844 1622 
Q 2063 1484 2177 1315 
Q 2291 1147 2291 916 
z
" id="Skia-Regular-73" transform="scale(0.015625)"/>
       <path d="M 1128 3769 
L 578 3769 
L 578 4306 
L 1128 4306 
L 1128 3769 
z
M 1100 0 
L 606 0 
Q 609 50 614 615 
Q 619 1181 619 1550 
Q 619 1872 617 2258 
Q 616 2644 606 3163 
L 1100 3163 
Q 1094 2713 1089 2320 
Q 1084 1928 1084 1622 
Q 1084 894 1092 453 
Q 1100 13 1100 0 
z
" id="Skia-Regular-69" transform="scale(0.015625)"/>
       <path d="M 3147 0 
L 2669 0 
L 2669 363 
L 2666 366 
Q 2447 222 2120 70 
Q 1794 -81 1478 -81 
Q 1047 -81 803 175 
Q 559 431 559 894 
Q 559 1144 564 1489 
Q 569 1834 569 1991 
Q 569 2275 561 2692 
Q 553 3109 553 3163 
L 1047 3163 
Q 1047 3122 1040 2712 
Q 1034 2303 1034 2059 
Q 1034 1844 1037 1522 
Q 1041 1200 1041 1066 
Q 1047 697 1169 525 
Q 1291 353 1563 353 
Q 1841 353 2173 503 
Q 2506 653 2663 766 
Q 2663 803 2666 1111 
Q 2669 1419 2669 1878 
Q 2669 2206 2661 2664 
Q 2653 3122 2653 3163 
L 3147 3163 
Q 3147 3109 3140 2811 
Q 3134 2513 3134 1794 
Q 3134 1391 3137 1086 
Q 3141 781 3147 0 
z
" id="Skia-Regular-75" transform="scale(0.015625)"/>
      </defs>
      <use xlink:href="#Skia-Regular-43"/>
      <use x="57.714844" xlink:href="#Skia-Regular-65"/>
      <use x="108.691406" xlink:href="#Skia-Regular-6c"/>
      <use x="135.351562" xlink:href="#Skia-Regular-73"/>
      <use x="176.025391" xlink:href="#Skia-Regular-69"/>
      <use x="202.636719" xlink:href="#Skia-Regular-75"/>
      <use x="260.742188" xlink:href="#Skia-Regular-73"/>
     </g>
    </g>
   </g>
   <g id="matplotlib.axis_2">
    <g id="ytick_1">
     <g id="line2d_9">
      <defs>
       <path d="M 0 0 
L -3.5 0 
" id="m2928cfef80" style="stroke:#000000;stroke-width:0.8;"/>
      </defs>
      <g>
       <use style="stroke:#000000;stroke-width:0.8;" x="74.725" xlink:href="#m2928cfef80" y="445.711111"/>
      </g>
     </g>
     <g id="text_10">
      <!-- 40 -->
      <g transform="translate(43.55625 452.868924)scale(0.2 -0.2)">
       <defs>
        <path d="M 3713 506 
Q 3338 513 3067 516 
Q 2797 519 2575 519 
Q 2569 -91 2573 -484 
Q 2578 -878 2581 -978 
L 2100 -978 
Q 2100 -878 2104 -456 
Q 2109 -34 2116 519 
L 328 506 
L 128 878 
Q 925 1750 1540 2462 
Q 2156 3175 2225 3253 
L 2591 3038 
Q 2578 2503 2576 1728 
Q 2575 953 2575 903 
Q 2728 903 2972 906 
Q 3216 909 3713 916 
L 3713 506 
z
M 2122 2594 
L 2116 2597 
L 659 909 
L 663 903 
Q 697 903 858 901 
Q 1019 900 1338 900 
Q 1459 900 1665 900 
Q 1872 900 2116 903 
Q 2116 1344 2116 1701 
Q 2116 2059 2122 2594 
z
" id="Skia-Regular-34" transform="scale(0.015625)"/>
       </defs>
       <use xlink:href="#Skia-Regular-34"/>
       <use x="58.740234" xlink:href="#Skia-Regular-30"/>
      </g>
     </g>
    </g>
    <g id="ytick_2">
     <g id="line2d_10">
      <g>
       <use style="stroke:#000000;stroke-width:0.8;" x="74.725" xlink:href="#m2928cfef80" y="368.6"/>
      </g>
     </g>
     <g id="text_11">
      <!-- 50 -->
      <g transform="translate(45.73125 375.757812)scale(0.2 -0.2)">
       <use xlink:href="#Skia-Regular-35"/>
       <use x="47.851562" xlink:href="#Skia-Regular-30"/>
      </g>
     </g>
    </g>
    <g id="ytick_3">
     <g id="line2d_11">
      <g>
       <use style="stroke:#000000;stroke-width:0.8;" x="74.725" xlink:href="#m2928cfef80" y="291.488889"/>
      </g>
     </g>
     <g id="text_12">
      <!-- 60 -->
      <g transform="translate(43.809375 298.646701)scale(0.2 -0.2)">
       <defs>
        <path d="M 3341 1328 
Q 3341 1041 3220 767 
Q 3100 494 2913 316 
Q 2703 116 2448 9 
Q 2194 -97 1875 -97 
Q 1569 -97 1294 0 
Q 1019 97 791 313 
Q 613 481 505 726 
Q 397 972 397 1294 
Q 397 1631 528 1962 
Q 659 2294 1069 2781 
Q 1463 3250 1830 3639 
Q 2197 4028 2472 4325 
L 2831 4034 
Q 2603 3803 2236 3425 
Q 1869 3047 1638 2809 
L 1638 2803 
Q 1838 2775 2100 2701 
Q 2363 2628 2591 2503 
Q 2959 2300 3150 2001 
Q 3341 1703 3341 1328 
z
M 2834 1297 
Q 2834 1588 2654 1830 
Q 2475 2072 2163 2225 
Q 1975 2316 1742 2370 
Q 1509 2425 1375 2434 
Q 1163 2213 1033 1911 
Q 903 1609 903 1306 
Q 903 1072 987 875 
Q 1072 678 1200 556 
Q 1338 425 1505 362 
Q 1672 300 1875 300 
Q 2084 300 2264 375 
Q 2444 450 2556 566 
Q 2694 706 2764 897 
Q 2834 1088 2834 1297 
z
" id="Skia-Regular-36" transform="scale(0.015625)"/>
       </defs>
       <use xlink:href="#Skia-Regular-36"/>
       <use x="57.470703" xlink:href="#Skia-Regular-30"/>
      </g>
     </g>
    </g>
    <g id="ytick_4">
     <g id="line2d_12">
      <g>
       <use style="stroke:#000000;stroke-width:0.8;" x="74.725" xlink:href="#m2928cfef80" y="214.377778"/>
      </g>
     </g>
     <g id="text_13">
      <!-- 70 -->
      <g transform="translate(45.615625 221.53559)scale(0.2 -0.2)">
       <defs>
        <path d="M 2981 2784 
Q 2206 1347 1628 258 
Q 1050 -831 978 -972 
L 578 -781 
Q 1269 459 1808 1500 
Q 2347 2541 2419 2691 
L 2416 2697 
Q 2278 2697 2133 2697 
Q 1988 2697 1828 2697 
Q 1253 2697 715 2687 
Q 178 2678 144 2678 
L 144 3116 
Q 172 3116 570 3114 
Q 969 3113 1422 3113 
Q 1769 3113 2242 3114 
Q 2716 3116 2766 3116 
L 2981 2784 
z
" id="Skia-Regular-37" transform="scale(0.015625)"/>
       </defs>
       <use xlink:href="#Skia-Regular-37"/>
       <use x="48.4375" xlink:href="#Skia-Regular-30"/>
      </g>
     </g>
    </g>
    <g id="ytick_5">
     <g id="line2d_13">
      <g>
       <use style="stroke:#000000;stroke-width:0.8;" x="74.725" xlink:href="#m2928cfef80" y="137.266667"/>
      </g>
     </g>
     <g id="text_14">
      <!-- 80 -->
      <g transform="translate(43.740625 144.424479)scale(0.2 -0.2)">
       <defs>
        <path d="M 3288 1094 
Q 3288 575 2869 239 
Q 2450 -97 1853 -97 
Q 1231 -97 822 220 
Q 413 538 413 1063 
Q 413 1366 600 1625 
Q 788 1884 1153 2150 
L 1153 2156 
Q 866 2309 706 2525 
Q 547 2741 547 3084 
Q 547 3550 936 3851 
Q 1325 4153 1853 4153 
Q 2441 4153 2809 3864 
Q 3178 3575 3178 3109 
Q 3178 2803 2993 2537 
Q 2809 2272 2553 2091 
L 2553 2084 
Q 2884 1931 3086 1697 
Q 3288 1463 3288 1094 
z
M 2672 3016 
Q 2672 3363 2445 3559 
Q 2219 3756 1856 3756 
Q 1506 3756 1279 3573 
Q 1053 3391 1053 3078 
Q 1053 2875 1170 2739 
Q 1288 2603 1466 2509 
Q 1594 2441 1789 2366 
Q 1984 2291 2166 2234 
Q 2397 2394 2534 2589 
Q 2672 2784 2672 3016 
z
M 2781 1047 
Q 2781 1247 2667 1409 
Q 2553 1572 2313 1697 
Q 2178 1766 1953 1852 
Q 1728 1938 1531 2000 
Q 1272 1834 1095 1596 
Q 919 1359 919 1069 
Q 919 744 1189 522 
Q 1459 300 1841 300 
Q 2275 300 2528 494 
Q 2781 688 2781 1047 
z
" id="Skia-Regular-38" transform="scale(0.015625)"/>
       </defs>
       <use xlink:href="#Skia-Regular-38"/>
       <use x="57.8125" xlink:href="#Skia-Regular-30"/>
      </g>
     </g>
    </g>
    <g id="ytick_6">
     <g id="line2d_14">
      <g>
       <use style="stroke:#000000;stroke-width:0.8;" x="74.725" xlink:href="#m2928cfef80" y="60.155556"/>
      </g>
     </g>
     <g id="text_15">
      <!-- 90 -->
      <g transform="translate(43.809375 67.313368)scale(0.2 -0.2)">
       <defs>
        <path d="M 3284 1863 
Q 3284 1488 3151 1181 
Q 3019 875 2738 519 
Q 2419 116 1895 -436 
Q 1372 -988 1231 -1131 
L 863 -831 
Q 1206 -494 1498 -201 
Q 1791 91 2041 338 
L 2038 344 
Q 1759 381 1462 479 
Q 1166 578 925 744 
Q 669 919 503 1186 
Q 338 1453 338 1831 
Q 338 2138 450 2378 
Q 563 2619 747 2809 
Q 944 3013 1225 3128 
Q 1506 3244 1822 3244 
Q 2147 3244 2420 3147 
Q 2694 3050 2900 2847 
Q 3072 2675 3178 2439 
Q 3284 2203 3284 1863 
z
M 2775 1841 
Q 2775 2066 2695 2259 
Q 2616 2453 2481 2588 
Q 2359 2709 2182 2778 
Q 2006 2847 1809 2847 
Q 1600 2847 1423 2772 
Q 1247 2697 1119 2572 
Q 991 2444 917 2251 
Q 844 2059 844 1863 
Q 844 1569 1005 1334 
Q 1166 1100 1472 944 
Q 1663 847 1866 792 
Q 2069 738 2303 713 
Q 2525 959 2650 1232 
Q 2775 1506 2775 1841 
z
" id="Skia-Regular-39" transform="scale(0.015625)"/>
       </defs>
       <use xlink:href="#Skia-Regular-39"/>
       <use x="57.470703" xlink:href="#Skia-Regular-30"/>
      </g>
     </g>
    </g>
    <g id="text_16">
     <!-- Fahrenheit -->
     <g transform="translate(35.1125 313.395312)rotate(-90)scale(0.2 -0.2)">
      <defs>
       <path d="M 3291 3741 
Q 3238 3741 2881 3745 
Q 2525 3750 2006 3750 
Q 1772 3750 1576 3748 
Q 1381 3747 1244 3747 
Q 1244 3394 1237 2981 
Q 1231 2569 1231 2256 
Q 1269 2256 1447 2254 
Q 1625 2253 1788 2253 
Q 2300 2253 2754 2258 
Q 3209 2263 3259 2263 
L 3259 1831 
Q 3200 1831 2683 1836 
Q 2166 1841 1756 1841 
Q 1628 1841 1450 1839 
Q 1272 1838 1231 1838 
Q 1231 1284 1236 792 
Q 1241 300 1244 0 
L 728 0 
Q 734 188 739 667 
Q 744 1147 744 2047 
Q 744 2400 741 2978 
Q 738 3556 728 4175 
Q 956 4175 1286 4172 
Q 1616 4169 1981 4169 
Q 2528 4169 2884 4172 
Q 3241 4175 3291 4175 
L 3291 3741 
z
" id="Skia-Regular-46" transform="scale(0.015625)"/>
       <path d="M 2744 1781 
Q 2744 1006 2741 518 
Q 2738 31 2738 -6 
Q 2706 -9 2447 -29 
Q 2188 -50 1778 -50 
Q 1522 -50 1262 -3 
Q 1003 44 816 131 
Q 566 247 411 447 
Q 256 647 256 928 
Q 256 1225 439 1442 
Q 622 1659 947 1794 
Q 1150 1878 1489 1945 
Q 1828 2013 2263 2047 
Q 2244 2291 2141 2447 
Q 2038 2603 1838 2684 
Q 1700 2741 1531 2764 
Q 1363 2788 1138 2788 
Q 997 2788 898 2781 
Q 800 2775 631 2766 
L 681 3181 
Q 728 3184 867 3192 
Q 1006 3200 1247 3200 
Q 1616 3200 1905 3123 
Q 2194 3047 2384 2875 
Q 2563 2713 2653 2473 
Q 2744 2234 2744 1781 
z
M 2266 1028 
Q 2266 1134 2266 1296 
Q 2266 1459 2263 1672 
Q 2125 1666 1781 1617 
Q 1438 1569 1203 1478 
Q 1028 1413 892 1281 
Q 756 1150 756 956 
Q 756 744 872 614 
Q 988 484 1188 416 
Q 1341 363 1527 339 
Q 1713 316 1919 316 
Q 1981 316 2072 319 
Q 2163 322 2263 325 
Q 2263 347 2264 531 
Q 2266 716 2266 1028 
z
" id="Skia-Regular-61" transform="scale(0.015625)"/>
       <path d="M 3166 0 
L 2672 0 
Q 2675 94 2679 564 
Q 2684 1034 2684 1184 
Q 2684 1347 2682 1664 
Q 2681 1981 2678 2128 
Q 2669 2488 2541 2644 
Q 2413 2800 2097 2800 
Q 1919 2800 1641 2692 
Q 1363 2584 1053 2400 
L 1066 0 
L 572 0 
Q 575 122 579 983 
Q 584 1844 584 2400 
Q 584 2763 582 3314 
Q 581 3866 572 4581 
L 1066 4581 
L 1053 2803 
L 1056 2800 
Q 1503 3050 1787 3147 
Q 2072 3244 2275 3244 
Q 2675 3244 2917 2992 
Q 3159 2741 3159 2303 
Q 3159 1909 3154 1623 
Q 3150 1338 3150 1159 
Q 3150 875 3156 506 
Q 3163 138 3166 0 
z
" id="Skia-Regular-68" transform="scale(0.015625)"/>
       <path d="M 2400 2794 
Q 2228 2753 1873 2622 
Q 1519 2491 1056 2272 
Q 1056 2238 1053 1958 
Q 1050 1678 1050 1438 
Q 1050 1069 1058 562 
Q 1066 56 1066 0 
L 572 0 
Q 572 53 578 350 
Q 584 647 584 1366 
Q 584 1656 581 2178 
Q 578 2700 572 3163 
L 1056 3163 
L 1056 2688 
L 1059 2684 
Q 1413 2884 1756 3031 
Q 2100 3178 2306 3231 
L 2400 2794 
z
" id="Skia-Regular-72" transform="scale(0.015625)"/>
       <path d="M 3166 0 
L 2672 0 
Q 2675 88 2679 578 
Q 2684 1069 2684 1184 
Q 2684 1347 2682 1664 
Q 2681 1981 2678 2128 
Q 2669 2488 2541 2644 
Q 2413 2800 2097 2800 
Q 1906 2800 1625 2687 
Q 1344 2575 1056 2400 
Q 1056 2366 1053 2028 
Q 1050 1691 1050 1413 
Q 1050 1050 1058 537 
Q 1066 25 1066 0 
L 572 0 
Q 572 22 578 383 
Q 584 744 584 1456 
Q 584 1784 582 2225 
Q 581 2666 572 3163 
L 1059 3163 
L 1056 2803 
L 1059 2797 
Q 1497 3047 1789 3145 
Q 2081 3244 2275 3244 
Q 2675 3244 2917 2992 
Q 3159 2741 3159 2303 
Q 3159 1909 3154 1623 
Q 3150 1338 3150 1159 
Q 3150 875 3158 448 
Q 3166 22 3166 0 
z
" id="Skia-Regular-6e" transform="scale(0.015625)"/>
       <path d="M 2291 388 
L 2234 -9 
Q 2213 -13 2127 -16 
Q 2041 -19 1978 -19 
Q 1338 -19 1009 248 
Q 681 516 681 1069 
Q 681 1416 686 1812 
Q 691 2209 691 2797 
L 166 2797 
L 166 3163 
L 719 3163 
L 719 3903 
L 1172 3903 
L 1172 3163 
L 2291 3163 
L 2291 2797 
L 1172 2797 
Q 1172 2731 1167 2406 
Q 1163 2081 1163 1925 
Q 1163 1794 1163 1603 
Q 1163 1413 1163 1150 
Q 1163 744 1381 564 
Q 1600 384 2056 384 
Q 2113 384 2191 386 
Q 2269 388 2291 388 
z
" id="Skia-Regular-74" transform="scale(0.015625)"/>
      </defs>
      <use xlink:href="#Skia-Regular-46"/>
      <use x="56.982422" xlink:href="#Skia-Regular-61"/>
      <use x="108.349609" xlink:href="#Skia-Regular-68"/>
      <use x="166.455078" xlink:href="#Skia-Regular-72"/>
      <use x="204.931641" xlink:href="#Skia-Regular-65"/>
      <use x="255.908203" xlink:href="#Skia-Regular-6e"/>
      <use x="314.013672" xlink:href="#Skia-Regular-68"/>
      <use x="372.119141" xlink:href="#Skia-Regular-65"/>
      <use x="423.095703" xlink:href="#Skia-Regular-69"/>
      <use x="449.707031" xlink:href="#Skia-Regular-74"/>
     </g>
    </g>
   </g>
   <g id="line2d_15">
    <path clip-path="url(#p642031b84e)" d="M 128.473571 577 
L 128.473571 451.88 
" style="fill:none;stroke:#ff0000;stroke-linecap:square;stroke-width:1.5;"/>
   </g>
   <g id="line2d_16">
    <path clip-path="url(#p642031b84e)" d="M 74.725 451.88 
L 128.473571 451.88 
" style="fill:none;stroke:#ff0000;stroke-linecap:square;stroke-width:1.5;"/>
   </g>
   <g id="line2d_17">
    <path clip-path="url(#p642031b84e)" d="M 289.719286 577 
L 289.719286 285.32 
" style="fill:none;stroke:#0000ff;stroke-linecap:square;stroke-width:1.5;"/>
   </g>
   <g id="line2d_18">
    <path clip-path="url(#p642031b84e)" d="M 74.725 285.32 
L 289.719286 285.32 
" style="fill:none;stroke:#0000ff;stroke-linecap:square;stroke-width:1.5;"/>
   </g>
   <g id="line2d_19">
    <path clip-path="url(#p642031b84e)" d="M 450.965 577 
L 450.965 118.76 
" style="fill:none;stroke:#008000;stroke-linecap:square;stroke-width:1.5;"/>
   </g>
   <g id="line2d_20">
    <path clip-path="url(#p642031b84e)" d="M 74.725 118.76 
L 450.965 118.76 
" style="fill:none;stroke:#008000;stroke-linecap:square;stroke-width:1.5;"/>
   </g>
   <g id="patch_3">
    <path d="M 74.725 507.4 
L 74.725 21.6 
" style="fill:none;stroke:#000000;stroke-linecap:square;stroke-linejoin:miter;stroke-width:0.8;"/>
   </g>
   <g id="patch_4">
    <path d="M 545.025 507.4 
L 545.025 21.6 
" style="fill:none;stroke:#000000;stroke-linecap:square;stroke-linejoin:miter;stroke-width:0.8;"/>
   </g>
   <g id="patch_5">
    <path d="M 74.725 507.4 
L 545.025 507.4 
" style="fill:none;stroke:#000000;stroke-linecap:square;stroke-linejoin:miter;stroke-width:0.8;"/>
   </g>
   <g id="patch_6">
    <path d="M 74.725 21.6 
L 545.025 21.6 
" style="fill:none;stroke:#000000;stroke-linecap:square;stroke-linejoin:miter;stroke-width:0.8;"/>
   </g>
   <g id="text_17">
    <!-- 04°C -->
    <g transform="translate(141.910714 479.64)scale(0.2 -0.2)">
     <defs>
      <path d="M 2272 3181 
Q 2272 2778 1987 2497 
Q 1703 2216 1300 2216 
Q 897 2216 619 2497 
Q 341 2778 341 3181 
Q 341 3584 627 3865 
Q 913 4147 1306 4147 
Q 1703 4147 1987 3862 
Q 2272 3578 2272 3181 
z
M 1938 3184 
Q 1938 3447 1755 3633 
Q 1572 3819 1309 3819 
Q 1047 3819 861 3633 
Q 675 3447 675 3184 
Q 675 2916 862 2730 
Q 1050 2544 1309 2544 
Q 1578 2544 1758 2734 
Q 1938 2925 1938 3184 
z
" id="Skia-Regular-b0" transform="scale(0.015625)"/>
     </defs>
     <use xlink:href="#Skia-Regular-30"/>
     <use x="62.109375" xlink:href="#Skia-Regular-34"/>
     <use x="120.849609" xlink:href="#Skia-Regular-b0"/>
     <use x="161.669922" xlink:href="#Skia-Regular-43"/>
    </g>
   </g>
   <g id="text_18">
    <!-- 40°F -->
    <g transform="translate(85.474714 436.457778)scale(0.2 -0.2)">
     <use xlink:href="#Skia-Regular-34"/>
     <use x="58.740234" xlink:href="#Skia-Regular-30"/>
     <use x="120.849609" xlink:href="#Skia-Regular-b0"/>
     <use x="161.669922" xlink:href="#Skia-Regular-46"/>
    </g>
   </g>
   <g id="text_19">
    <!-- 16°C -->
    <g transform="translate(303.156429 396.36)scale(0.2 -0.2)">
     <use xlink:href="#Skia-Regular-31"/>
     <use x="38.085938" xlink:href="#Skia-Regular-36"/>
     <use x="95.556641" xlink:href="#Skia-Regular-b0"/>
     <use x="136.376953" xlink:href="#Skia-Regular-43"/>
    </g>
   </g>
   <g id="text_20">
    <!-- 61°F -->
    <g transform="translate(166.097571 269.897778)scale(0.2 -0.2)">
     <use xlink:href="#Skia-Regular-36"/>
     <use x="57.470703" xlink:href="#Skia-Regular-31"/>
     <use x="95.556641" xlink:href="#Skia-Regular-b0"/>
     <use x="136.376953" xlink:href="#Skia-Regular-46"/>
    </g>
   </g>
   <g id="text_21">
    <!-- 28°C -->
    <g transform="translate(464.402143 313.08)scale(0.2 -0.2)">
     <use xlink:href="#Skia-Regular-32"/>
     <use x="51.220703" xlink:href="#Skia-Regular-38"/>
     <use x="109.033203" xlink:href="#Skia-Regular-b0"/>
     <use x="149.853516" xlink:href="#Skia-Regular-43"/>
    </g>
   </g>
   <g id="text_22">
    <!-- 82°F -->
    <g transform="translate(246.720429 103.337778)scale(0.2 -0.2)">
     <use xlink:href="#Skia-Regular-38"/>
     <use x="57.8125" xlink:href="#Skia-Regular-32"/>
     <use x="109.033203" xlink:href="#Skia-Regular-b0"/>
     <use x="149.853516" xlink:href="#Skia-Regular-46"/>
    </g>
   </g>
   <g id="text_23">
    <!-- dynomight.net -->
    <g style="fill:#b2b2b2;" transform="translate(473.808143 495.833333)scale(0.08 -0.08)">
     <defs>
      <path d="M 2681 3053 
L 2681 4863 
L 3256 4863 
L 3256 0 
L 2681 0 
L 2681 441 
Q 2538 181 2298 45 
Q 2059 -91 1747 -91 
Q 1113 -91 748 401 
Q 384 894 384 1759 
Q 384 2613 750 3098 
Q 1116 3584 1747 3584 
Q 2063 3584 2303 3448 
Q 2544 3313 2681 3053 
z
M 991 1747 
Q 991 1078 1203 737 
Q 1416 397 1831 397 
Q 2247 397 2464 740 
Q 2681 1084 2681 1747 
Q 2681 2413 2464 2755 
Q 2247 3097 1831 3097 
Q 1416 3097 1203 2756 
Q 991 2416 991 1747 
z
" id="DejaVuSansMono-64" transform="scale(0.015625)"/>
      <path d="M 2681 1125 
Q 2538 759 2316 163 
Q 2006 -663 1900 -844 
Q 1756 -1088 1540 -1209 
Q 1325 -1331 1038 -1331 
L 575 -1331 
L 575 -850 
L 916 -850 
Q 1169 -850 1312 -703 
Q 1456 -556 1678 56 
L 325 3500 
L 934 3500 
L 1972 763 
L 2994 3500 
L 3603 3500 
L 2681 1125 
z
" id="DejaVuSansMono-79" transform="scale(0.015625)"/>
      <path d="M 3284 2169 
L 3284 0 
L 2706 0 
L 2706 2169 
Q 2706 2641 2540 2862 
Q 2375 3084 2022 3084 
Q 1619 3084 1401 2798 
Q 1184 2513 1184 1978 
L 1184 0 
L 609 0 
L 609 3500 
L 1184 3500 
L 1184 2975 
Q 1338 3275 1600 3429 
Q 1863 3584 2222 3584 
Q 2756 3584 3020 3232 
Q 3284 2881 3284 2169 
z
" id="DejaVuSansMono-6e" transform="scale(0.015625)"/>
      <path d="M 1925 3097 
Q 1488 3097 1263 2756 
Q 1038 2416 1038 1747 
Q 1038 1081 1263 739 
Q 1488 397 1925 397 
Q 2366 397 2591 739 
Q 2816 1081 2816 1747 
Q 2816 2416 2591 2756 
Q 2366 3097 1925 3097 
z
M 1925 3584 
Q 2653 3584 3039 3112 
Q 3425 2641 3425 1747 
Q 3425 850 3040 379 
Q 2656 -91 1925 -91 
Q 1197 -91 812 379 
Q 428 850 428 1747 
Q 428 2641 812 3112 
Q 1197 3584 1925 3584 
z
" id="DejaVuSansMono-6f" transform="scale(0.015625)"/>
      <path d="M 2113 3144 
Q 2219 3369 2383 3476 
Q 2547 3584 2778 3584 
Q 3200 3584 3373 3257 
Q 3547 2931 3547 2028 
L 3547 0 
L 3022 0 
L 3022 2003 
Q 3022 2744 2939 2923 
Q 2856 3103 2638 3103 
Q 2388 3103 2295 2911 
Q 2203 2719 2203 2003 
L 2203 0 
L 1678 0 
L 1678 2003 
Q 1678 2753 1589 2928 
Q 1500 3103 1269 3103 
Q 1041 3103 952 2911 
Q 863 2719 863 2003 
L 863 0 
L 341 0 
L 341 3500 
L 863 3500 
L 863 3200 
Q 966 3388 1120 3486 
Q 1275 3584 1472 3584 
Q 1709 3584 1867 3475 
Q 2025 3366 2113 3144 
z
" id="DejaVuSansMono-6d" transform="scale(0.015625)"/>
      <path d="M 800 3500 
L 2272 3500 
L 2272 447 
L 3413 447 
L 3413 0 
L 556 0 
L 556 447 
L 1697 447 
L 1697 3053 
L 800 3053 
L 800 3500 
z
M 1697 4863 
L 2272 4863 
L 2272 4134 
L 1697 4134 
L 1697 4863 
z
" id="DejaVuSansMono-69" transform="scale(0.015625)"/>
      <path d="M 2681 1778 
Q 2681 2425 2470 2761 
Q 2259 3097 1856 3097 
Q 1434 3097 1212 2761 
Q 991 2425 991 1778 
Q 991 1131 1214 792 
Q 1438 453 1863 453 
Q 2259 453 2470 793 
Q 2681 1134 2681 1778 
z
M 3256 225 
Q 3256 -563 2884 -969 
Q 2513 -1375 1791 -1375 
Q 1553 -1375 1293 -1331 
Q 1034 -1288 775 -1203 
L 775 -634 
Q 1081 -778 1331 -847 
Q 1581 -916 1791 -916 
Q 2256 -916 2468 -662 
Q 2681 -409 2681 141 
L 2681 166 
L 2681 556 
Q 2544 263 2306 119 
Q 2069 -25 1728 -25 
Q 1116 -25 750 465 
Q 384 956 384 1778 
Q 384 2603 750 3093 
Q 1116 3584 1728 3584 
Q 2066 3584 2300 3450 
Q 2534 3316 2681 3034 
L 2681 3488 
L 3256 3488 
L 3256 225 
z
" id="DejaVuSansMono-67" transform="scale(0.015625)"/>
      <path d="M 3284 2169 
L 3284 0 
L 2706 0 
L 2706 2169 
Q 2706 2641 2540 2862 
Q 2375 3084 2022 3084 
Q 1619 3084 1401 2798 
Q 1184 2513 1184 1978 
L 1184 0 
L 609 0 
L 609 4863 
L 1184 4863 
L 1184 2975 
Q 1338 3275 1600 3429 
Q 1863 3584 2222 3584 
Q 2756 3584 3020 3232 
Q 3284 2881 3284 2169 
z
" id="DejaVuSansMono-68" transform="scale(0.015625)"/>
      <path d="M 1919 4494 
L 1919 3500 
L 3225 3500 
L 3225 3053 
L 1919 3053 
L 1919 1153 
Q 1919 766 2066 612 
Q 2213 459 2578 459 
L 3225 459 
L 3225 0 
L 2522 0 
Q 1875 0 1609 259 
Q 1344 519 1344 1153 
L 1344 3053 
L 409 3053 
L 409 3500 
L 1344 3500 
L 1344 4494 
L 1919 4494 
z
" id="DejaVuSansMono-74" transform="scale(0.015625)"/>
      <path d="M 1528 953 
L 2316 953 
L 2316 0 
L 1528 0 
L 1528 953 
z
" id="DejaVuSansMono-2e" transform="scale(0.015625)"/>
      <path d="M 3475 1894 
L 3475 1613 
L 984 1613 
L 984 1594 
Q 984 1022 1282 709 
Q 1581 397 2125 397 
Q 2400 397 2700 484 
Q 3000 572 3341 750 
L 3341 178 
Q 3013 44 2708 -23 
Q 2403 -91 2119 -91 
Q 1303 -91 843 398 
Q 384 888 384 1747 
Q 384 2584 834 3084 
Q 1284 3584 2034 3584 
Q 2703 3584 3089 3131 
Q 3475 2678 3475 1894 
z
M 2900 2063 
Q 2888 2569 2661 2833 
Q 2434 3097 2009 3097 
Q 1594 3097 1325 2822 
Q 1056 2547 1006 2059 
L 2900 2063 
z
" id="DejaVuSansMono-65" transform="scale(0.015625)"/>
     </defs>
     <use xlink:href="#DejaVuSansMono-64"/>
     <use x="60.205078" xlink:href="#DejaVuSansMono-79"/>
     <use x="120.410156" xlink:href="#DejaVuSansMono-6e"/>
     <use x="180.615234" xlink:href="#DejaVuSansMono-6f"/>
     <use x="240.820312" xlink:href="#DejaVuSansMono-6d"/>
     <use x="301.025391" xlink:href="#DejaVuSansMono-69"/>
     <use x="361.230469" xlink:href="#DejaVuSansMono-67"/>
     <use x="421.435547" xlink:href="#DejaVuSansMono-68"/>
     <use x="481.640625" xlink:href="#DejaVuSansMono-74"/>
     <use x="541.845703" xlink:href="#DejaVuSansMono-2e"/>
     <use x="602.050781" xlink:href="#DejaVuSansMono-6e"/>
     <use x="662.255859" xlink:href="#DejaVuSansMono-65"/>
     <use x="722.460938" xlink:href="#DejaVuSansMono-74"/>
    </g>
   </g>
  </g>
 </g>
 <defs>
  <clipPath id="p642031b84e">
   <rect height="485.8" width="470.3" x="74.725" y="21.6"/>
  </clipPath>
 </defs>
</svg>
