<?xml version="1.0" encoding="utf-8" standalone="no"?>
<!DOCTYPE svg PUBLIC "-//W3C//DTD SVG 1.1//EN"
  "http://www.w3.org/Graphics/SVG/1.1/DTD/svg11.dtd">
<svg height="216pt" version="1.1" viewBox="0 0 576 216" width="576pt" xmlns="http://www.w3.org/2000/svg" xmlns:xlink="http://www.w3.org/1999/xlink">
 <metadata>
  <rdf:RDF xmlns:cc="http://creativecommons.org/ns#" xmlns:dc="http://purl.org/dc/elements/1.1/" xmlns:rdf="http://www.w3.org/1999/02/22-rdf-syntax-ns#">
   <cc:Work>
    <dc:type rdf:resource="http://purl.org/dc/dcmitype/StillImage"/>
    <dc:date>2021-05-03T20:40:15.340700</dc:date>
    <dc:format>image/svg+xml</dc:format>
    <dc:creator>
     <cc:Agent>
      <dc:title>Matplotlib v3.4.1, https://matplotlib.org/</dc:title>
     </cc:Agent>
    </dc:creator>
   </cc:Work>
  </rdf:RDF>
 </metadata>
 <defs>
  <style type="text/css">*{stroke-linecap:butt;stroke-linejoin:round;}</style>
 </defs>
 <g id="figure_1">
  <g id="patch_1">
   <path d="M 0 216 
L 576 216 
L 576 0 
L 0 0 
z
" style="fill:none;"/>
  </g>
  <g id="axes_1">
   <g id="patch_2">
    <path d="M 51.84 172.8 
L 570.24 172.8 
L 570.24 21.6 
L 51.84 21.6 
z
" style="fill:none;"/>
   </g>
   <g id="matplotlib.axis_1">
    <g id="xtick_1">
     <g id="text_1">
      <!-- Extraversion -->
      <g style="fill:#262626;" transform="translate(47.616918 194.481156)scale(0.1 -0.1)">
       <defs>
        <path d="M 506 0 
L 506 4581 
L 3819 4581 
L 3819 4041 
L 1113 4041 
L 1113 2638 
L 3647 2638 
L 3647 2100 
L 1113 2100 
L 1113 541 
L 3925 541 
L 3925 0 
L 506 0 
z
" id="ArialMT-45" transform="scale(0.015625)"/>
        <path d="M 47 0 
L 1259 1725 
L 138 3319 
L 841 3319 
L 1350 2541 
Q 1494 2319 1581 2169 
Q 1719 2375 1834 2534 
L 2394 3319 
L 3066 3319 
L 1919 1756 
L 3153 0 
L 2463 0 
L 1781 1031 
L 1600 1309 
L 728 0 
L 47 0 
z
" id="ArialMT-78" transform="scale(0.015625)"/>
        <path d="M 1650 503 
L 1731 6 
Q 1494 -44 1306 -44 
Q 1000 -44 831 53 
Q 663 150 594 308 
Q 525 466 525 972 
L 525 2881 
L 113 2881 
L 113 3319 
L 525 3319 
L 525 4141 
L 1084 4478 
L 1084 3319 
L 1650 3319 
L 1650 2881 
L 1084 2881 
L 1084 941 
Q 1084 700 1114 631 
Q 1144 563 1211 522 
Q 1278 481 1403 481 
Q 1497 481 1650 503 
z
" id="ArialMT-74" transform="scale(0.015625)"/>
        <path d="M 416 0 
L 416 3319 
L 922 3319 
L 922 2816 
Q 1116 3169 1280 3281 
Q 1444 3394 1641 3394 
Q 1925 3394 2219 3213 
L 2025 2691 
Q 1819 2813 1613 2813 
Q 1428 2813 1281 2702 
Q 1134 2591 1072 2394 
Q 978 2094 978 1738 
L 978 0 
L 416 0 
z
" id="ArialMT-72" transform="scale(0.015625)"/>
        <path d="M 2588 409 
Q 2275 144 1986 34 
Q 1697 -75 1366 -75 
Q 819 -75 525 192 
Q 231 459 231 875 
Q 231 1119 342 1320 
Q 453 1522 633 1644 
Q 813 1766 1038 1828 
Q 1203 1872 1538 1913 
Q 2219 1994 2541 2106 
Q 2544 2222 2544 2253 
Q 2544 2597 2384 2738 
Q 2169 2928 1744 2928 
Q 1347 2928 1158 2789 
Q 969 2650 878 2297 
L 328 2372 
Q 403 2725 575 2942 
Q 747 3159 1072 3276 
Q 1397 3394 1825 3394 
Q 2250 3394 2515 3294 
Q 2781 3194 2906 3042 
Q 3031 2891 3081 2659 
Q 3109 2516 3109 2141 
L 3109 1391 
Q 3109 606 3145 398 
Q 3181 191 3288 0 
L 2700 0 
Q 2613 175 2588 409 
z
M 2541 1666 
Q 2234 1541 1622 1453 
Q 1275 1403 1131 1340 
Q 988 1278 909 1158 
Q 831 1038 831 891 
Q 831 666 1001 516 
Q 1172 366 1500 366 
Q 1825 366 2078 508 
Q 2331 650 2450 897 
Q 2541 1088 2541 1459 
L 2541 1666 
z
" id="ArialMT-61" transform="scale(0.015625)"/>
        <path d="M 1344 0 
L 81 3319 
L 675 3319 
L 1388 1331 
Q 1503 1009 1600 663 
Q 1675 925 1809 1294 
L 2547 3319 
L 3125 3319 
L 1869 0 
L 1344 0 
z
" id="ArialMT-76" transform="scale(0.015625)"/>
        <path d="M 2694 1069 
L 3275 997 
Q 3138 488 2766 206 
Q 2394 -75 1816 -75 
Q 1088 -75 661 373 
Q 234 822 234 1631 
Q 234 2469 665 2931 
Q 1097 3394 1784 3394 
Q 2450 3394 2872 2941 
Q 3294 2488 3294 1666 
Q 3294 1616 3291 1516 
L 816 1516 
Q 847 969 1125 678 
Q 1403 388 1819 388 
Q 2128 388 2347 550 
Q 2566 713 2694 1069 
z
M 847 1978 
L 2700 1978 
Q 2663 2397 2488 2606 
Q 2219 2931 1791 2931 
Q 1403 2931 1139 2672 
Q 875 2413 847 1978 
z
" id="ArialMT-65" transform="scale(0.015625)"/>
        <path d="M 197 991 
L 753 1078 
Q 800 744 1014 566 
Q 1228 388 1613 388 
Q 2000 388 2187 545 
Q 2375 703 2375 916 
Q 2375 1106 2209 1216 
Q 2094 1291 1634 1406 
Q 1016 1563 777 1677 
Q 538 1791 414 1992 
Q 291 2194 291 2438 
Q 291 2659 392 2848 
Q 494 3038 669 3163 
Q 800 3259 1026 3326 
Q 1253 3394 1513 3394 
Q 1903 3394 2198 3281 
Q 2494 3169 2634 2976 
Q 2775 2784 2828 2463 
L 2278 2388 
Q 2241 2644 2061 2787 
Q 1881 2931 1553 2931 
Q 1166 2931 1000 2803 
Q 834 2675 834 2503 
Q 834 2394 903 2306 
Q 972 2216 1119 2156 
Q 1203 2125 1616 2013 
Q 2213 1853 2448 1751 
Q 2684 1650 2818 1456 
Q 2953 1263 2953 975 
Q 2953 694 2789 445 
Q 2625 197 2315 61 
Q 2006 -75 1616 -75 
Q 969 -75 630 194 
Q 291 463 197 991 
z
" id="ArialMT-73" transform="scale(0.015625)"/>
        <path d="M 425 3934 
L 425 4581 
L 988 4581 
L 988 3934 
L 425 3934 
z
M 425 0 
L 425 3319 
L 988 3319 
L 988 0 
L 425 0 
z
" id="ArialMT-69" transform="scale(0.015625)"/>
        <path d="M 213 1659 
Q 213 2581 725 3025 
Q 1153 3394 1769 3394 
Q 2453 3394 2887 2945 
Q 3322 2497 3322 1706 
Q 3322 1066 3130 698 
Q 2938 331 2570 128 
Q 2203 -75 1769 -75 
Q 1072 -75 642 372 
Q 213 819 213 1659 
z
M 791 1659 
Q 791 1022 1069 705 
Q 1347 388 1769 388 
Q 2188 388 2466 706 
Q 2744 1025 2744 1678 
Q 2744 2294 2464 2611 
Q 2184 2928 1769 2928 
Q 1347 2928 1069 2612 
Q 791 2297 791 1659 
z
" id="ArialMT-6f" transform="scale(0.015625)"/>
        <path d="M 422 0 
L 422 3319 
L 928 3319 
L 928 2847 
Q 1294 3394 1984 3394 
Q 2284 3394 2536 3286 
Q 2788 3178 2913 3003 
Q 3038 2828 3088 2588 
Q 3119 2431 3119 2041 
L 3119 0 
L 2556 0 
L 2556 2019 
Q 2556 2363 2490 2533 
Q 2425 2703 2258 2804 
Q 2091 2906 1866 2906 
Q 1506 2906 1245 2678 
Q 984 2450 984 1813 
L 984 0 
L 422 0 
z
" id="ArialMT-6e" transform="scale(0.015625)"/>
       </defs>
       <use xlink:href="#ArialMT-45"/>
       <use x="66.699219" xlink:href="#ArialMT-78"/>
       <use x="116.699219" xlink:href="#ArialMT-74"/>
       <use x="144.482422" xlink:href="#ArialMT-72"/>
       <use x="177.783203" xlink:href="#ArialMT-61"/>
       <use x="233.398438" xlink:href="#ArialMT-76"/>
       <use x="283.398438" xlink:href="#ArialMT-65"/>
       <use x="339.013672" xlink:href="#ArialMT-72"/>
       <use x="372.314453" xlink:href="#ArialMT-73"/>
       <use x="422.314453" xlink:href="#ArialMT-69"/>
       <use x="444.53125" xlink:href="#ArialMT-6f"/>
       <use x="500.146484" xlink:href="#ArialMT-6e"/>
      </g>
     </g>
    </g>
    <g id="xtick_2">
     <g id="text_2">
      <!-- Agreeableness -->
      <g style="fill:#262626;" transform="translate(159.867131 194.422562)scale(0.1 -0.1)">
       <defs>
        <path d="M -9 0 
L 1750 4581 
L 2403 4581 
L 4278 0 
L 3588 0 
L 3053 1388 
L 1138 1388 
L 634 0 
L -9 0 
z
M 1313 1881 
L 2866 1881 
L 2388 3150 
Q 2169 3728 2063 4100 
Q 1975 3659 1816 3225 
L 1313 1881 
z
" id="ArialMT-41" transform="scale(0.015625)"/>
        <path d="M 319 -275 
L 866 -356 
Q 900 -609 1056 -725 
Q 1266 -881 1628 -881 
Q 2019 -881 2231 -725 
Q 2444 -569 2519 -288 
Q 2563 -116 2559 434 
Q 2191 0 1641 0 
Q 956 0 581 494 
Q 206 988 206 1678 
Q 206 2153 378 2554 
Q 550 2956 876 3175 
Q 1203 3394 1644 3394 
Q 2231 3394 2613 2919 
L 2613 3319 
L 3131 3319 
L 3131 450 
Q 3131 -325 2973 -648 
Q 2816 -972 2473 -1159 
Q 2131 -1347 1631 -1347 
Q 1038 -1347 672 -1080 
Q 306 -813 319 -275 
z
M 784 1719 
Q 784 1066 1043 766 
Q 1303 466 1694 466 
Q 2081 466 2343 764 
Q 2606 1063 2606 1700 
Q 2606 2309 2336 2618 
Q 2066 2928 1684 2928 
Q 1309 2928 1046 2623 
Q 784 2319 784 1719 
z
" id="ArialMT-67" transform="scale(0.015625)"/>
        <path d="M 941 0 
L 419 0 
L 419 4581 
L 981 4581 
L 981 2947 
Q 1338 3394 1891 3394 
Q 2197 3394 2470 3270 
Q 2744 3147 2920 2923 
Q 3097 2700 3197 2384 
Q 3297 2069 3297 1709 
Q 3297 856 2875 390 
Q 2453 -75 1863 -75 
Q 1275 -75 941 416 
L 941 0 
z
M 934 1684 
Q 934 1088 1097 822 
Q 1363 388 1816 388 
Q 2184 388 2453 708 
Q 2722 1028 2722 1663 
Q 2722 2313 2464 2622 
Q 2206 2931 1841 2931 
Q 1472 2931 1203 2611 
Q 934 2291 934 1684 
z
" id="ArialMT-62" transform="scale(0.015625)"/>
        <path d="M 409 0 
L 409 4581 
L 972 4581 
L 972 0 
L 409 0 
z
" id="ArialMT-6c" transform="scale(0.015625)"/>
       </defs>
       <use xlink:href="#ArialMT-41"/>
       <use x="66.699219" xlink:href="#ArialMT-67"/>
       <use x="122.314453" xlink:href="#ArialMT-72"/>
       <use x="155.615234" xlink:href="#ArialMT-65"/>
       <use x="211.230469" xlink:href="#ArialMT-65"/>
       <use x="266.845703" xlink:href="#ArialMT-61"/>
       <use x="322.460938" xlink:href="#ArialMT-62"/>
       <use x="378.076172" xlink:href="#ArialMT-6c"/>
       <use x="400.292969" xlink:href="#ArialMT-65"/>
       <use x="455.908203" xlink:href="#ArialMT-6e"/>
       <use x="511.523438" xlink:href="#ArialMT-65"/>
       <use x="567.138672" xlink:href="#ArialMT-73"/>
       <use x="617.138672" xlink:href="#ArialMT-73"/>
      </g>
     </g>
    </g>
    <g id="xtick_3">
     <g id="text_3">
      <!-- Conscientiousness -->
      <g style="fill:#262626;" transform="translate(269.074375 194.481156)scale(0.1 -0.1)">
       <defs>
        <path d="M 3763 1606 
L 4369 1453 
Q 4178 706 3683 314 
Q 3188 -78 2472 -78 
Q 1731 -78 1267 223 
Q 803 525 561 1097 
Q 319 1669 319 2325 
Q 319 3041 592 3573 
Q 866 4106 1370 4382 
Q 1875 4659 2481 4659 
Q 3169 4659 3637 4309 
Q 4106 3959 4291 3325 
L 3694 3184 
Q 3534 3684 3231 3912 
Q 2928 4141 2469 4141 
Q 1941 4141 1586 3887 
Q 1231 3634 1087 3207 
Q 944 2781 944 2328 
Q 944 1744 1114 1308 
Q 1284 872 1643 656 
Q 2003 441 2422 441 
Q 2931 441 3284 734 
Q 3638 1028 3763 1606 
z
" id="ArialMT-43" transform="scale(0.015625)"/>
        <path d="M 2588 1216 
L 3141 1144 
Q 3050 572 2676 248 
Q 2303 -75 1759 -75 
Q 1078 -75 664 370 
Q 250 816 250 1647 
Q 250 2184 428 2587 
Q 606 2991 970 3192 
Q 1334 3394 1763 3394 
Q 2303 3394 2647 3120 
Q 2991 2847 3088 2344 
L 2541 2259 
Q 2463 2594 2264 2762 
Q 2066 2931 1784 2931 
Q 1359 2931 1093 2626 
Q 828 2322 828 1663 
Q 828 994 1084 691 
Q 1341 388 1753 388 
Q 2084 388 2306 591 
Q 2528 794 2588 1216 
z
" id="ArialMT-63" transform="scale(0.015625)"/>
        <path d="M 2597 0 
L 2597 488 
Q 2209 -75 1544 -75 
Q 1250 -75 995 37 
Q 741 150 617 320 
Q 494 491 444 738 
Q 409 903 409 1263 
L 409 3319 
L 972 3319 
L 972 1478 
Q 972 1038 1006 884 
Q 1059 663 1231 536 
Q 1403 409 1656 409 
Q 1909 409 2131 539 
Q 2353 669 2445 892 
Q 2538 1116 2538 1541 
L 2538 3319 
L 3100 3319 
L 3100 0 
L 2597 0 
z
" id="ArialMT-75" transform="scale(0.015625)"/>
       </defs>
       <use xlink:href="#ArialMT-43"/>
       <use x="72.216797" xlink:href="#ArialMT-6f"/>
       <use x="127.832031" xlink:href="#ArialMT-6e"/>
       <use x="183.447266" xlink:href="#ArialMT-73"/>
       <use x="233.447266" xlink:href="#ArialMT-63"/>
       <use x="283.447266" xlink:href="#ArialMT-69"/>
       <use x="305.664062" xlink:href="#ArialMT-65"/>
       <use x="361.279297" xlink:href="#ArialMT-6e"/>
       <use x="416.894531" xlink:href="#ArialMT-74"/>
       <use x="444.677734" xlink:href="#ArialMT-69"/>
       <use x="466.894531" xlink:href="#ArialMT-6f"/>
       <use x="522.509766" xlink:href="#ArialMT-75"/>
       <use x="578.125" xlink:href="#ArialMT-73"/>
       <use x="628.125" xlink:href="#ArialMT-6e"/>
       <use x="683.740234" xlink:href="#ArialMT-65"/>
       <use x="739.355469" xlink:href="#ArialMT-73"/>
       <use x="789.355469" xlink:href="#ArialMT-73"/>
      </g>
     </g>
    </g>
    <g id="xtick_4">
     <g id="text_4">
      <!-- Emotional Stability -->
      <g style="fill:#262626;" transform="translate(387.729276 194.4835)scale(0.1 -0.1)">
       <defs>
        <path d="M 422 0 
L 422 3319 
L 925 3319 
L 925 2853 
Q 1081 3097 1340 3245 
Q 1600 3394 1931 3394 
Q 2300 3394 2536 3241 
Q 2772 3088 2869 2813 
Q 3263 3394 3894 3394 
Q 4388 3394 4653 3120 
Q 4919 2847 4919 2278 
L 4919 0 
L 4359 0 
L 4359 2091 
Q 4359 2428 4304 2576 
Q 4250 2725 4106 2815 
Q 3963 2906 3769 2906 
Q 3419 2906 3187 2673 
Q 2956 2441 2956 1928 
L 2956 0 
L 2394 0 
L 2394 2156 
Q 2394 2531 2256 2718 
Q 2119 2906 1806 2906 
Q 1569 2906 1367 2781 
Q 1166 2656 1075 2415 
Q 984 2175 984 1722 
L 984 0 
L 422 0 
z
" id="ArialMT-6d" transform="scale(0.015625)"/>
        <path id="ArialMT-20" transform="scale(0.015625)"/>
        <path d="M 288 1472 
L 859 1522 
Q 900 1178 1048 958 
Q 1197 738 1509 602 
Q 1822 466 2213 466 
Q 2559 466 2825 569 
Q 3091 672 3220 851 
Q 3350 1031 3350 1244 
Q 3350 1459 3225 1620 
Q 3100 1781 2813 1891 
Q 2628 1963 1997 2114 
Q 1366 2266 1113 2400 
Q 784 2572 623 2826 
Q 463 3081 463 3397 
Q 463 3744 659 4045 
Q 856 4347 1234 4503 
Q 1613 4659 2075 4659 
Q 2584 4659 2973 4495 
Q 3363 4331 3572 4012 
Q 3781 3694 3797 3291 
L 3216 3247 
Q 3169 3681 2898 3903 
Q 2628 4125 2100 4125 
Q 1550 4125 1298 3923 
Q 1047 3722 1047 3438 
Q 1047 3191 1225 3031 
Q 1400 2872 2139 2705 
Q 2878 2538 3153 2413 
Q 3553 2228 3743 1945 
Q 3934 1663 3934 1294 
Q 3934 928 3725 604 
Q 3516 281 3123 101 
Q 2731 -78 2241 -78 
Q 1619 -78 1198 103 
Q 778 284 539 648 
Q 300 1013 288 1472 
z
" id="ArialMT-53" transform="scale(0.015625)"/>
        <path d="M 397 -1278 
L 334 -750 
Q 519 -800 656 -800 
Q 844 -800 956 -737 
Q 1069 -675 1141 -563 
Q 1194 -478 1313 -144 
Q 1328 -97 1363 -6 
L 103 3319 
L 709 3319 
L 1400 1397 
Q 1534 1031 1641 628 
Q 1738 1016 1872 1384 
L 2581 3319 
L 3144 3319 
L 1881 -56 
Q 1678 -603 1566 -809 
Q 1416 -1088 1222 -1217 
Q 1028 -1347 759 -1347 
Q 597 -1347 397 -1278 
z
" id="ArialMT-79" transform="scale(0.015625)"/>
       </defs>
       <use xlink:href="#ArialMT-45"/>
       <use x="66.699219" xlink:href="#ArialMT-6d"/>
       <use x="150" xlink:href="#ArialMT-6f"/>
       <use x="205.615234" xlink:href="#ArialMT-74"/>
       <use x="233.398438" xlink:href="#ArialMT-69"/>
       <use x="255.615234" xlink:href="#ArialMT-6f"/>
       <use x="311.230469" xlink:href="#ArialMT-6e"/>
       <use x="366.845703" xlink:href="#ArialMT-61"/>
       <use x="422.460938" xlink:href="#ArialMT-6c"/>
       <use x="444.677734" xlink:href="#ArialMT-20"/>
       <use x="472.460938" xlink:href="#ArialMT-53"/>
       <use x="539.160156" xlink:href="#ArialMT-74"/>
       <use x="566.943359" xlink:href="#ArialMT-61"/>
       <use x="622.558594" xlink:href="#ArialMT-62"/>
       <use x="678.173828" xlink:href="#ArialMT-69"/>
       <use x="700.390625" xlink:href="#ArialMT-6c"/>
       <use x="722.607422" xlink:href="#ArialMT-69"/>
       <use x="744.824219" xlink:href="#ArialMT-74"/>
       <use x="772.607422" xlink:href="#ArialMT-79"/>
      </g>
     </g>
    </g>
    <g id="xtick_5">
     <g id="text_5">
      <!-- Openness -->
      <g style="fill:#262626;" transform="translate(523.884957 194.545219)scale(0.1 -0.1)">
       <defs>
        <path d="M 309 2231 
Q 309 3372 921 4017 
Q 1534 4663 2503 4663 
Q 3138 4663 3647 4359 
Q 4156 4056 4423 3514 
Q 4691 2972 4691 2284 
Q 4691 1588 4409 1038 
Q 4128 488 3612 205 
Q 3097 -78 2500 -78 
Q 1853 -78 1343 234 
Q 834 547 571 1087 
Q 309 1628 309 2231 
z
M 934 2222 
Q 934 1394 1379 917 
Q 1825 441 2497 441 
Q 3181 441 3623 922 
Q 4066 1403 4066 2288 
Q 4066 2847 3877 3264 
Q 3688 3681 3323 3911 
Q 2959 4141 2506 4141 
Q 1863 4141 1398 3698 
Q 934 3256 934 2222 
z
" id="ArialMT-4f" transform="scale(0.015625)"/>
        <path d="M 422 -1272 
L 422 3319 
L 934 3319 
L 934 2888 
Q 1116 3141 1344 3267 
Q 1572 3394 1897 3394 
Q 2322 3394 2647 3175 
Q 2972 2956 3137 2557 
Q 3303 2159 3303 1684 
Q 3303 1175 3120 767 
Q 2938 359 2589 142 
Q 2241 -75 1856 -75 
Q 1575 -75 1351 44 
Q 1128 163 984 344 
L 984 -1272 
L 422 -1272 
z
M 931 1641 
Q 931 1000 1190 694 
Q 1450 388 1819 388 
Q 2194 388 2461 705 
Q 2728 1022 2728 1688 
Q 2728 2322 2467 2637 
Q 2206 2953 1844 2953 
Q 1484 2953 1207 2617 
Q 931 2281 931 1641 
z
" id="ArialMT-70" transform="scale(0.015625)"/>
       </defs>
       <use xlink:href="#ArialMT-4f"/>
       <use x="77.783203" xlink:href="#ArialMT-70"/>
       <use x="133.398438" xlink:href="#ArialMT-65"/>
       <use x="189.013672" xlink:href="#ArialMT-6e"/>
       <use x="244.628906" xlink:href="#ArialMT-6e"/>
       <use x="300.244141" xlink:href="#ArialMT-65"/>
       <use x="355.859375" xlink:href="#ArialMT-73"/>
       <use x="405.859375" xlink:href="#ArialMT-73"/>
      </g>
     </g>
    </g>
   </g>
   <g id="matplotlib.axis_2">
    <g id="ytick_1">
     <g id="text_6">
      <!-- −0.4 -->
      <g style="fill:#262626;" transform="translate(25.099375 162.633452)scale(0.1 -0.1)">
       <defs>
        <path d="M 3381 1997 
L 356 1997 
L 356 2522 
L 3381 2522 
L 3381 1997 
z
" id="ArialMT-2212" transform="scale(0.015625)"/>
        <path d="M 266 2259 
Q 266 3072 433 3567 
Q 600 4063 929 4331 
Q 1259 4600 1759 4600 
Q 2128 4600 2406 4451 
Q 2684 4303 2865 4023 
Q 3047 3744 3150 3342 
Q 3253 2941 3253 2259 
Q 3253 1453 3087 958 
Q 2922 463 2592 192 
Q 2263 -78 1759 -78 
Q 1097 -78 719 397 
Q 266 969 266 2259 
z
M 844 2259 
Q 844 1131 1108 757 
Q 1372 384 1759 384 
Q 2147 384 2411 759 
Q 2675 1134 2675 2259 
Q 2675 3391 2411 3762 
Q 2147 4134 1753 4134 
Q 1366 4134 1134 3806 
Q 844 3388 844 2259 
z
" id="ArialMT-30" transform="scale(0.015625)"/>
        <path d="M 581 0 
L 581 641 
L 1222 641 
L 1222 0 
L 581 0 
z
" id="ArialMT-2e" transform="scale(0.015625)"/>
        <path d="M 2069 0 
L 2069 1097 
L 81 1097 
L 81 1613 
L 2172 4581 
L 2631 4581 
L 2631 1613 
L 3250 1613 
L 3250 1097 
L 2631 1097 
L 2631 0 
L 2069 0 
z
M 2069 1613 
L 2069 3678 
L 634 1613 
L 2069 1613 
z
" id="ArialMT-34" transform="scale(0.015625)"/>
       </defs>
       <use xlink:href="#ArialMT-2212"/>
       <use x="58.398438" xlink:href="#ArialMT-30"/>
       <use x="114.013672" xlink:href="#ArialMT-2e"/>
       <use x="141.796875" xlink:href="#ArialMT-34"/>
      </g>
     </g>
    </g>
    <g id="ytick_2">
     <g id="text_7">
      <!-- −0.2 -->
      <g style="fill:#262626;" transform="translate(25.099375 135.142543)scale(0.1 -0.1)">
       <defs>
        <path d="M 3222 541 
L 3222 0 
L 194 0 
Q 188 203 259 391 
Q 375 700 629 1000 
Q 884 1300 1366 1694 
Q 2113 2306 2375 2664 
Q 2638 3022 2638 3341 
Q 2638 3675 2398 3904 
Q 2159 4134 1775 4134 
Q 1369 4134 1125 3890 
Q 881 3647 878 3216 
L 300 3275 
Q 359 3922 746 4261 
Q 1134 4600 1788 4600 
Q 2447 4600 2831 4234 
Q 3216 3869 3216 3328 
Q 3216 3053 3103 2787 
Q 2991 2522 2730 2228 
Q 2469 1934 1863 1422 
Q 1356 997 1212 845 
Q 1069 694 975 541 
L 3222 541 
z
" id="ArialMT-32" transform="scale(0.015625)"/>
       </defs>
       <use xlink:href="#ArialMT-2212"/>
       <use x="58.398438" xlink:href="#ArialMT-30"/>
       <use x="114.013672" xlink:href="#ArialMT-2e"/>
       <use x="141.796875" xlink:href="#ArialMT-32"/>
      </g>
     </g>
    </g>
    <g id="ytick_3">
     <g id="text_8">
      <!-- 0.0 -->
      <g style="fill:#262626;" transform="translate(30.94 107.651634)scale(0.1 -0.1)">
       <use xlink:href="#ArialMT-30"/>
       <use x="55.615234" xlink:href="#ArialMT-2e"/>
       <use x="83.398438" xlink:href="#ArialMT-30"/>
      </g>
     </g>
    </g>
    <g id="ytick_4">
     <g id="text_9">
      <!-- 0.2 -->
      <g style="fill:#262626;" transform="translate(30.94 80.160724)scale(0.1 -0.1)">
       <use xlink:href="#ArialMT-30"/>
       <use x="55.615234" xlink:href="#ArialMT-2e"/>
       <use x="83.398438" xlink:href="#ArialMT-32"/>
      </g>
     </g>
    </g>
    <g id="ytick_5">
     <g id="text_10">
      <!-- 0.4 -->
      <g style="fill:#262626;" transform="translate(30.94 52.669815)scale(0.1 -0.1)">
       <use xlink:href="#ArialMT-30"/>
       <use x="55.615234" xlink:href="#ArialMT-2e"/>
       <use x="83.398438" xlink:href="#ArialMT-34"/>
      </g>
     </g>
    </g>
    <g id="ytick_6">
     <g id="text_11">
      <!-- 0.6 -->
      <g style="fill:#262626;" transform="translate(30.94 25.178906)scale(0.1 -0.1)">
       <defs>
        <path d="M 3184 3459 
L 2625 3416 
Q 2550 3747 2413 3897 
Q 2184 4138 1850 4138 
Q 1581 4138 1378 3988 
Q 1113 3794 959 3422 
Q 806 3050 800 2363 
Q 1003 2672 1297 2822 
Q 1591 2972 1913 2972 
Q 2475 2972 2870 2558 
Q 3266 2144 3266 1488 
Q 3266 1056 3080 686 
Q 2894 316 2569 119 
Q 2244 -78 1831 -78 
Q 1128 -78 684 439 
Q 241 956 241 2144 
Q 241 3472 731 4075 
Q 1159 4600 1884 4600 
Q 2425 4600 2770 4297 
Q 3116 3994 3184 3459 
z
M 888 1484 
Q 888 1194 1011 928 
Q 1134 663 1356 523 
Q 1578 384 1822 384 
Q 2178 384 2434 671 
Q 2691 959 2691 1453 
Q 2691 1928 2437 2201 
Q 2184 2475 1800 2475 
Q 1419 2475 1153 2201 
Q 888 1928 888 1484 
z
" id="ArialMT-36" transform="scale(0.015625)"/>
       </defs>
       <use xlink:href="#ArialMT-30"/>
       <use x="55.615234" xlink:href="#ArialMT-2e"/>
       <use x="83.398438" xlink:href="#ArialMT-36"/>
      </g>
     </g>
    </g>
    <g id="text_12">
     <!-- correlation -->
     <g style="fill:#262626;" transform="translate(18.913125 122.877266)rotate(-90)scale(0.11 -0.11)">
      <use xlink:href="#ArialMT-63"/>
      <use x="50" xlink:href="#ArialMT-6f"/>
      <use x="105.615234" xlink:href="#ArialMT-72"/>
      <use x="138.916016" xlink:href="#ArialMT-72"/>
      <use x="172.216797" xlink:href="#ArialMT-65"/>
      <use x="227.832031" xlink:href="#ArialMT-6c"/>
      <use x="250.048828" xlink:href="#ArialMT-61"/>
      <use x="305.664062" xlink:href="#ArialMT-74"/>
      <use x="333.447266" xlink:href="#ArialMT-69"/>
      <use x="355.664062" xlink:href="#ArialMT-6f"/>
      <use x="411.279297" xlink:href="#ArialMT-6e"/>
     </g>
    </g>
   </g>
   <g id="line2d_1">
    <path clip-path="url(#p0ccbe6a6d2)" d="M 75.403636 217 
L 75.403636 -1 
" style="fill:none;stroke:#f7f7f7;stroke-linecap:round;stroke-width:0.5;"/>
   </g>
   <g id="line2d_2">
    <path clip-path="url(#p0ccbe6a6d2)" d="M 193.221818 217 
L 193.221818 -1 
" style="fill:none;stroke:#f7f7f7;stroke-linecap:round;stroke-width:0.5;"/>
   </g>
   <g id="line2d_3">
    <path clip-path="url(#p0ccbe6a6d2)" d="M 311.04 217 
L 311.04 -1 
" style="fill:none;stroke:#f7f7f7;stroke-linecap:round;stroke-width:0.5;"/>
   </g>
   <g id="line2d_4">
    <path clip-path="url(#p0ccbe6a6d2)" d="M 428.858182 217 
L 428.858182 -1 
" style="fill:none;stroke:#f7f7f7;stroke-linecap:round;stroke-width:0.5;"/>
   </g>
   <g id="line2d_5">
    <path clip-path="url(#p0ccbe6a6d2)" d="M 546.676364 217 
L 546.676364 -1 
" style="fill:none;stroke:#f7f7f7;stroke-linecap:round;stroke-width:0.5;"/>
   </g>
   <g id="line2d_6">
    <path clip-path="url(#p0ccbe6a6d2)" d="M 75.403636 104.072727 
L 546.676364 104.072727 
" style="fill:none;stroke:#000000;stroke-linecap:round;stroke-width:1.75;"/>
   </g>
   <g id="line2d_7">
    <defs>
     <path d="M 5 -3.409091 
L 1.815954 -0.211676 
L 5 2.970143 
L 4.171123 3.812389 
L 0.973708 0.617201 
L -2.22148 3.812389 
L -3.043672 2.970143 
L 0.131462 -0.211676 
L -3.043672 -3.409091 
L -2.22148 -4.251337 
L 0.973708 -1.053922 
L 4.171123 -4.251337 
L 5 -3.409091 
z
" id="m6f5363cea6"/>
    </defs>
    <g clip-path="url(#p0ccbe6a6d2)">
     <use style="fill:#4c72b0;" x="75.403636" xlink:href="#m6f5363cea6" y="88.952727"/>
     <use style="fill:#4c72b0;" x="193.221818" xlink:href="#m6f5363cea6" y="121.941818"/>
     <use style="fill:#4c72b0;" x="311.04" xlink:href="#m6f5363cea6" y="80.705455"/>
     <use style="fill:#4c72b0;" x="428.858182" xlink:href="#m6f5363cea6" y="106.821818"/>
     <use style="fill:#4c72b0;" x="546.676364" xlink:href="#m6f5363cea6" y="64.210909"/>
    </g>
   </g>
   <g id="line2d_8">
    <defs>
     <path d="M 1.285226 -4.283732 
L 1.285226 -0.566823 
L 5 -0.566823 
L 5 0.566823 
L 1.285226 0.566823 
L 1.285226 4.283732 
L 0.164389 4.283732 
L 0.164389 0.566823 
L -3.552519 0.566823 
L -3.552519 -0.566823 
L 0.164389 -0.566823 
L 0.164389 -4.283732 
L 1.285226 -4.283732 
z
" id="m8593045aa4"/>
    </defs>
    <g clip-path="url(#p0ccbe6a6d2)">
     <use style="fill:#55a868;" x="75.403636" xlink:href="#m8593045aa4" y="76.581818"/>
     <use style="fill:#55a868;" x="193.221818" xlink:href="#m8593045aa4" y="120.567273"/>
     <use style="fill:#55a868;" x="311.04" xlink:href="#m8593045aa4" y="95.825455"/>
     <use style="fill:#55a868;" x="428.858182" xlink:href="#m8593045aa4" y="101.323636"/>
     <use style="fill:#55a868;" x="546.676364" xlink:href="#m8593045aa4" y="60.087273"/>
    </g>
   </g>
   <g id="text_13">
    <!-- Big Five → Presidential Greatness -->
    <g style="fill:#262626;" transform="translate(219.339375 15.6)scale(0.12 -0.12)">
     <defs>
      <path d="M 469 0 
L 469 4581 
L 2188 4581 
Q 2713 4581 3030 4442 
Q 3347 4303 3526 4014 
Q 3706 3725 3706 3409 
Q 3706 3116 3547 2856 
Q 3388 2597 3066 2438 
Q 3481 2316 3704 2022 
Q 3928 1728 3928 1328 
Q 3928 1006 3792 729 
Q 3656 453 3456 303 
Q 3256 153 2954 76 
Q 2653 0 2216 0 
L 469 0 
z
M 1075 2656 
L 2066 2656 
Q 2469 2656 2644 2709 
Q 2875 2778 2992 2937 
Q 3109 3097 3109 3338 
Q 3109 3566 3000 3739 
Q 2891 3913 2687 3977 
Q 2484 4041 1991 4041 
L 1075 4041 
L 1075 2656 
z
M 1075 541 
L 2216 541 
Q 2509 541 2628 563 
Q 2838 600 2978 687 
Q 3119 775 3209 942 
Q 3300 1109 3300 1328 
Q 3300 1584 3169 1773 
Q 3038 1963 2805 2039 
Q 2572 2116 2134 2116 
L 1075 2116 
L 1075 541 
z
" id="ArialMT-42" transform="scale(0.015625)"/>
      <path d="M 525 0 
L 525 4581 
L 3616 4581 
L 3616 4041 
L 1131 4041 
L 1131 2622 
L 3281 2622 
L 3281 2081 
L 1131 2081 
L 1131 0 
L 525 0 
z
" id="ArialMT-46" transform="scale(0.015625)"/>
      <path d="M 4859 2738 
Q 5275 2284 5578 2048 
Q 5881 1813 6150 1697 
L 6150 1556 
Q 5841 1406 5550 1173 
Q 5259 941 4856 491 
L 4616 491 
Q 4909 1119 5231 1456 
L 247 1456 
L 247 1772 
L 5231 1772 
Q 4994 2075 4900 2222 
Q 4806 2369 4622 2738 
L 4859 2738 
z
" id="ArialMT-2192" transform="scale(0.015625)"/>
      <path d="M 494 0 
L 494 4581 
L 2222 4581 
Q 2678 4581 2919 4538 
Q 3256 4481 3484 4323 
Q 3713 4166 3852 3881 
Q 3991 3597 3991 3256 
Q 3991 2672 3619 2267 
Q 3247 1863 2275 1863 
L 1100 1863 
L 1100 0 
L 494 0 
z
M 1100 2403 
L 2284 2403 
Q 2872 2403 3119 2622 
Q 3366 2841 3366 3238 
Q 3366 3525 3220 3729 
Q 3075 3934 2838 4000 
Q 2684 4041 2272 4041 
L 1100 4041 
L 1100 2403 
z
" id="ArialMT-50" transform="scale(0.015625)"/>
      <path d="M 2575 0 
L 2575 419 
Q 2259 -75 1647 -75 
Q 1250 -75 917 144 
Q 584 363 401 755 
Q 219 1147 219 1656 
Q 219 2153 384 2558 
Q 550 2963 881 3178 
Q 1213 3394 1622 3394 
Q 1922 3394 2156 3267 
Q 2391 3141 2538 2938 
L 2538 4581 
L 3097 4581 
L 3097 0 
L 2575 0 
z
M 797 1656 
Q 797 1019 1065 703 
Q 1334 388 1700 388 
Q 2069 388 2326 689 
Q 2584 991 2584 1609 
Q 2584 2291 2321 2609 
Q 2059 2928 1675 2928 
Q 1300 2928 1048 2622 
Q 797 2316 797 1656 
z
" id="ArialMT-64" transform="scale(0.015625)"/>
      <path d="M 2638 1797 
L 2638 2334 
L 4578 2338 
L 4578 638 
Q 4131 281 3656 101 
Q 3181 -78 2681 -78 
Q 2006 -78 1454 211 
Q 903 500 622 1047 
Q 341 1594 341 2269 
Q 341 2938 620 3517 
Q 900 4097 1425 4378 
Q 1950 4659 2634 4659 
Q 3131 4659 3532 4498 
Q 3934 4338 4162 4050 
Q 4391 3763 4509 3300 
L 3963 3150 
Q 3859 3500 3706 3700 
Q 3553 3900 3268 4020 
Q 2984 4141 2638 4141 
Q 2222 4141 1919 4014 
Q 1616 3888 1430 3681 
Q 1244 3475 1141 3228 
Q 966 2803 966 2306 
Q 966 1694 1177 1281 
Q 1388 869 1791 669 
Q 2194 469 2647 469 
Q 3041 469 3416 620 
Q 3791 772 3984 944 
L 3984 1797 
L 2638 1797 
z
" id="ArialMT-47" transform="scale(0.015625)"/>
     </defs>
     <use xlink:href="#ArialMT-42"/>
     <use x="66.699219" xlink:href="#ArialMT-69"/>
     <use x="88.916016" xlink:href="#ArialMT-67"/>
     <use x="144.53125" xlink:href="#ArialMT-20"/>
     <use x="172.314453" xlink:href="#ArialMT-46"/>
     <use x="233.398438" xlink:href="#ArialMT-69"/>
     <use x="255.615234" xlink:href="#ArialMT-76"/>
     <use x="305.615234" xlink:href="#ArialMT-65"/>
     <use x="361.230469" xlink:href="#ArialMT-20"/>
     <use x="389.013672" xlink:href="#ArialMT-2192"/>
     <use x="489.013672" xlink:href="#ArialMT-20"/>
     <use x="516.796875" xlink:href="#ArialMT-50"/>
     <use x="583.496094" xlink:href="#ArialMT-72"/>
     <use x="616.796875" xlink:href="#ArialMT-65"/>
     <use x="672.412109" xlink:href="#ArialMT-73"/>
     <use x="722.412109" xlink:href="#ArialMT-69"/>
     <use x="744.628906" xlink:href="#ArialMT-64"/>
     <use x="800.244141" xlink:href="#ArialMT-65"/>
     <use x="855.859375" xlink:href="#ArialMT-6e"/>
     <use x="911.474609" xlink:href="#ArialMT-74"/>
     <use x="939.257812" xlink:href="#ArialMT-69"/>
     <use x="961.474609" xlink:href="#ArialMT-61"/>
     <use x="1017.089844" xlink:href="#ArialMT-6c"/>
     <use x="1039.306641" xlink:href="#ArialMT-20"/>
     <use x="1067.089844" xlink:href="#ArialMT-47"/>
     <use x="1144.873047" xlink:href="#ArialMT-72"/>
     <use x="1178.173828" xlink:href="#ArialMT-65"/>
     <use x="1233.789062" xlink:href="#ArialMT-61"/>
     <use x="1289.404297" xlink:href="#ArialMT-74"/>
     <use x="1317.1875" xlink:href="#ArialMT-6e"/>
     <use x="1372.802734" xlink:href="#ArialMT-65"/>
     <use x="1428.417969" xlink:href="#ArialMT-73"/>
     <use x="1478.417969" xlink:href="#ArialMT-73"/>
    </g>
   </g>
   <g id="legend_1">
    <g id="line2d_9"/>
    <g id="line2d_10">
     <g>
      <use style="fill:#4c72b0;" x="429.315" xlink:href="#m6f5363cea6" y="34.379687"/>
     </g>
    </g>
    <g id="text_14">
     <!-- Ridings &amp; McIver ratings -->
     <g style="fill:#262626;" transform="translate(447.315 37.879687)scale(0.1 -0.1)">
      <defs>
       <path d="M 503 0 
L 503 4581 
L 2534 4581 
Q 3147 4581 3465 4457 
Q 3784 4334 3975 4021 
Q 4166 3709 4166 3331 
Q 4166 2844 3850 2509 
Q 3534 2175 2875 2084 
Q 3116 1969 3241 1856 
Q 3506 1613 3744 1247 
L 4541 0 
L 3778 0 
L 3172 953 
Q 2906 1366 2734 1584 
Q 2563 1803 2427 1890 
Q 2291 1978 2150 2013 
Q 2047 2034 1813 2034 
L 1109 2034 
L 1109 0 
L 503 0 
z
M 1109 2559 
L 2413 2559 
Q 2828 2559 3062 2645 
Q 3297 2731 3419 2920 
Q 3541 3109 3541 3331 
Q 3541 3656 3305 3865 
Q 3069 4075 2559 4075 
L 1109 4075 
L 1109 2559 
z
" id="ArialMT-52" transform="scale(0.015625)"/>
       <path d="M 3041 541 
Q 2763 231 2434 76 
Q 2106 -78 1725 -78 
Q 1022 -78 609 397 
Q 275 784 275 1263 
Q 275 1688 548 2030 
Q 822 2372 1366 2631 
Q 1056 2988 953 3209 
Q 850 3431 850 3638 
Q 850 4050 1173 4354 
Q 1497 4659 1988 4659 
Q 2456 4659 2754 4371 
Q 3053 4084 3053 3681 
Q 3053 3028 2188 2566 
L 3009 1519 
Q 3150 1794 3228 2156 
L 3813 2031 
Q 3663 1431 3406 1044 
Q 3722 625 4122 341 
L 3744 -106 
Q 3403 113 3041 541 
z
M 1897 2928 
Q 2263 3144 2370 3306 
Q 2478 3469 2478 3666 
Q 2478 3900 2329 4048 
Q 2181 4197 1959 4197 
Q 1731 4197 1579 4050 
Q 1428 3903 1428 3691 
Q 1428 3584 1483 3467 
Q 1538 3350 1647 3219 
L 1897 2928 
z
M 2688 984 
L 1656 2263 
Q 1200 1991 1040 1758 
Q 881 1525 881 1297 
Q 881 1019 1103 719 
Q 1325 419 1731 419 
Q 1984 419 2254 576 
Q 2525 734 2688 984 
z
" id="ArialMT-26" transform="scale(0.015625)"/>
       <path d="M 475 0 
L 475 4581 
L 1388 4581 
L 2472 1338 
Q 2622 884 2691 659 
Q 2769 909 2934 1394 
L 4031 4581 
L 4847 4581 
L 4847 0 
L 4263 0 
L 4263 3834 
L 2931 0 
L 2384 0 
L 1059 3900 
L 1059 0 
L 475 0 
z
" id="ArialMT-4d" transform="scale(0.015625)"/>
       <path d="M 597 0 
L 597 4581 
L 1203 4581 
L 1203 0 
L 597 0 
z
" id="ArialMT-49" transform="scale(0.015625)"/>
      </defs>
      <use xlink:href="#ArialMT-52"/>
      <use x="72.216797" xlink:href="#ArialMT-69"/>
      <use x="94.433594" xlink:href="#ArialMT-64"/>
      <use x="150.048828" xlink:href="#ArialMT-69"/>
      <use x="172.265625" xlink:href="#ArialMT-6e"/>
      <use x="227.880859" xlink:href="#ArialMT-67"/>
      <use x="283.496094" xlink:href="#ArialMT-73"/>
      <use x="333.496094" xlink:href="#ArialMT-20"/>
      <use x="361.279297" xlink:href="#ArialMT-26"/>
      <use x="427.978516" xlink:href="#ArialMT-20"/>
      <use x="455.761719" xlink:href="#ArialMT-4d"/>
      <use x="539.0625" xlink:href="#ArialMT-63"/>
      <use x="589.0625" xlink:href="#ArialMT-49"/>
      <use x="616.845703" xlink:href="#ArialMT-76"/>
      <use x="666.845703" xlink:href="#ArialMT-65"/>
      <use x="722.460938" xlink:href="#ArialMT-72"/>
      <use x="755.761719" xlink:href="#ArialMT-20"/>
      <use x="783.544922" xlink:href="#ArialMT-72"/>
      <use x="816.845703" xlink:href="#ArialMT-61"/>
      <use x="872.460938" xlink:href="#ArialMT-74"/>
      <use x="900.244141" xlink:href="#ArialMT-69"/>
      <use x="922.460938" xlink:href="#ArialMT-6e"/>
      <use x="978.076172" xlink:href="#ArialMT-67"/>
      <use x="1033.691406" xlink:href="#ArialMT-73"/>
     </g>
    </g>
    <g id="line2d_11"/>
    <g id="line2d_12">
     <g>
      <use style="fill:#55a868;" x="429.315" xlink:href="#m8593045aa4" y="48.764062"/>
     </g>
    </g>
    <g id="text_15">
     <!-- Murray &amp; Blessing ratings -->
     <g style="fill:#262626;" transform="translate(447.315 52.264062)scale(0.1 -0.1)">
      <use xlink:href="#ArialMT-4d"/>
      <use x="83.300781" xlink:href="#ArialMT-75"/>
      <use x="138.916016" xlink:href="#ArialMT-72"/>
      <use x="172.216797" xlink:href="#ArialMT-72"/>
      <use x="205.517578" xlink:href="#ArialMT-61"/>
      <use x="261.132812" xlink:href="#ArialMT-79"/>
      <use x="311.132812" xlink:href="#ArialMT-20"/>
      <use x="338.916016" xlink:href="#ArialMT-26"/>
      <use x="405.615234" xlink:href="#ArialMT-20"/>
      <use x="433.398438" xlink:href="#ArialMT-42"/>
      <use x="500.097656" xlink:href="#ArialMT-6c"/>
      <use x="522.314453" xlink:href="#ArialMT-65"/>
      <use x="577.929688" xlink:href="#ArialMT-73"/>
      <use x="627.929688" xlink:href="#ArialMT-73"/>
      <use x="677.929688" xlink:href="#ArialMT-69"/>
      <use x="700.146484" xlink:href="#ArialMT-6e"/>
      <use x="755.761719" xlink:href="#ArialMT-67"/>
      <use x="811.376953" xlink:href="#ArialMT-20"/>
      <use x="839.160156" xlink:href="#ArialMT-72"/>
      <use x="872.460938" xlink:href="#ArialMT-61"/>
      <use x="928.076172" xlink:href="#ArialMT-74"/>
      <use x="955.859375" xlink:href="#ArialMT-69"/>
      <use x="978.076172" xlink:href="#ArialMT-6e"/>
      <use x="1033.691406" xlink:href="#ArialMT-67"/>
      <use x="1089.306641" xlink:href="#ArialMT-73"/>
     </g>
    </g>
   </g>
  </g>
  <g id="text_16">
   <!-- dynomight.net -->
   <g style="fill:#808080;opacity:0.5;" transform="translate(489.6 211.68)scale(0.06 -0.06)">
    <defs>
     <path d="M 2681 3053 
L 2681 4863 
L 3256 4863 
L 3256 0 
L 2681 0 
L 2681 441 
Q 2538 181 2298 45 
Q 2059 -91 1747 -91 
Q 1113 -91 748 401 
Q 384 894 384 1759 
Q 384 2613 750 3098 
Q 1116 3584 1747 3584 
Q 2063 3584 2303 3448 
Q 2544 3313 2681 3053 
z
M 991 1747 
Q 991 1078 1203 737 
Q 1416 397 1831 397 
Q 2247 397 2464 740 
Q 2681 1084 2681 1747 
Q 2681 2413 2464 2755 
Q 2247 3097 1831 3097 
Q 1416 3097 1203 2756 
Q 991 2416 991 1747 
z
" id="DejaVuSansMono-64" transform="scale(0.015625)"/>
     <path d="M 2681 1125 
Q 2538 759 2316 163 
Q 2006 -663 1900 -844 
Q 1756 -1088 1540 -1209 
Q 1325 -1331 1038 -1331 
L 575 -1331 
L 575 -850 
L 916 -850 
Q 1169 -850 1312 -703 
Q 1456 -556 1678 56 
L 325 3500 
L 934 3500 
L 1972 763 
L 2994 3500 
L 3603 3500 
L 2681 1125 
z
" id="DejaVuSansMono-79" transform="scale(0.015625)"/>
     <path d="M 3284 2169 
L 3284 0 
L 2706 0 
L 2706 2169 
Q 2706 2641 2540 2862 
Q 2375 3084 2022 3084 
Q 1619 3084 1401 2798 
Q 1184 2513 1184 1978 
L 1184 0 
L 609 0 
L 609 3500 
L 1184 3500 
L 1184 2975 
Q 1338 3275 1600 3429 
Q 1863 3584 2222 3584 
Q 2756 3584 3020 3232 
Q 3284 2881 3284 2169 
z
" id="DejaVuSansMono-6e" transform="scale(0.015625)"/>
     <path d="M 1925 3097 
Q 1488 3097 1263 2756 
Q 1038 2416 1038 1747 
Q 1038 1081 1263 739 
Q 1488 397 1925 397 
Q 2366 397 2591 739 
Q 2816 1081 2816 1747 
Q 2816 2416 2591 2756 
Q 2366 3097 1925 3097 
z
M 1925 3584 
Q 2653 3584 3039 3112 
Q 3425 2641 3425 1747 
Q 3425 850 3040 379 
Q 2656 -91 1925 -91 
Q 1197 -91 812 379 
Q 428 850 428 1747 
Q 428 2641 812 3112 
Q 1197 3584 1925 3584 
z
" id="DejaVuSansMono-6f" transform="scale(0.015625)"/>
     <path d="M 2113 3144 
Q 2219 3369 2383 3476 
Q 2547 3584 2778 3584 
Q 3200 3584 3373 3257 
Q 3547 2931 3547 2028 
L 3547 0 
L 3022 0 
L 3022 2003 
Q 3022 2744 2939 2923 
Q 2856 3103 2638 3103 
Q 2388 3103 2295 2911 
Q 2203 2719 2203 2003 
L 2203 0 
L 1678 0 
L 1678 2003 
Q 1678 2753 1589 2928 
Q 1500 3103 1269 3103 
Q 1041 3103 952 2911 
Q 863 2719 863 2003 
L 863 0 
L 341 0 
L 341 3500 
L 863 3500 
L 863 3200 
Q 966 3388 1120 3486 
Q 1275 3584 1472 3584 
Q 1709 3584 1867 3475 
Q 2025 3366 2113 3144 
z
" id="DejaVuSansMono-6d" transform="scale(0.015625)"/>
     <path d="M 800 3500 
L 2272 3500 
L 2272 447 
L 3413 447 
L 3413 0 
L 556 0 
L 556 447 
L 1697 447 
L 1697 3053 
L 800 3053 
L 800 3500 
z
M 1697 4863 
L 2272 4863 
L 2272 4134 
L 1697 4134 
L 1697 4863 
z
" id="DejaVuSansMono-69" transform="scale(0.015625)"/>
     <path d="M 2681 1778 
Q 2681 2425 2470 2761 
Q 2259 3097 1856 3097 
Q 1434 3097 1212 2761 
Q 991 2425 991 1778 
Q 991 1131 1214 792 
Q 1438 453 1863 453 
Q 2259 453 2470 793 
Q 2681 1134 2681 1778 
z
M 3256 225 
Q 3256 -563 2884 -969 
Q 2513 -1375 1791 -1375 
Q 1553 -1375 1293 -1331 
Q 1034 -1288 775 -1203 
L 775 -634 
Q 1081 -778 1331 -847 
Q 1581 -916 1791 -916 
Q 2256 -916 2468 -662 
Q 2681 -409 2681 141 
L 2681 166 
L 2681 556 
Q 2544 263 2306 119 
Q 2069 -25 1728 -25 
Q 1116 -25 750 465 
Q 384 956 384 1778 
Q 384 2603 750 3093 
Q 1116 3584 1728 3584 
Q 2066 3584 2300 3450 
Q 2534 3316 2681 3034 
L 2681 3488 
L 3256 3488 
L 3256 225 
z
" id="DejaVuSansMono-67" transform="scale(0.015625)"/>
     <path d="M 3284 2169 
L 3284 0 
L 2706 0 
L 2706 2169 
Q 2706 2641 2540 2862 
Q 2375 3084 2022 3084 
Q 1619 3084 1401 2798 
Q 1184 2513 1184 1978 
L 1184 0 
L 609 0 
L 609 4863 
L 1184 4863 
L 1184 2975 
Q 1338 3275 1600 3429 
Q 1863 3584 2222 3584 
Q 2756 3584 3020 3232 
Q 3284 2881 3284 2169 
z
" id="DejaVuSansMono-68" transform="scale(0.015625)"/>
     <path d="M 1919 4494 
L 1919 3500 
L 3225 3500 
L 3225 3053 
L 1919 3053 
L 1919 1153 
Q 1919 766 2066 612 
Q 2213 459 2578 459 
L 3225 459 
L 3225 0 
L 2522 0 
Q 1875 0 1609 259 
Q 1344 519 1344 1153 
L 1344 3053 
L 409 3053 
L 409 3500 
L 1344 3500 
L 1344 4494 
L 1919 4494 
z
" id="DejaVuSansMono-74" transform="scale(0.015625)"/>
     <path d="M 1528 953 
L 2316 953 
L 2316 0 
L 1528 0 
L 1528 953 
z
" id="DejaVuSansMono-2e" transform="scale(0.015625)"/>
     <path d="M 3475 1894 
L 3475 1613 
L 984 1613 
L 984 1594 
Q 984 1022 1282 709 
Q 1581 397 2125 397 
Q 2400 397 2700 484 
Q 3000 572 3341 750 
L 3341 178 
Q 3013 44 2708 -23 
Q 2403 -91 2119 -91 
Q 1303 -91 843 398 
Q 384 888 384 1747 
Q 384 2584 834 3084 
Q 1284 3584 2034 3584 
Q 2703 3584 3089 3131 
Q 3475 2678 3475 1894 
z
M 2900 2063 
Q 2888 2569 2661 2833 
Q 2434 3097 2009 3097 
Q 1594 3097 1325 2822 
Q 1056 2547 1006 2059 
L 2900 2063 
z
" id="DejaVuSansMono-65" transform="scale(0.015625)"/>
    </defs>
    <use xlink:href="#DejaVuSansMono-64"/>
    <use x="60.205078" xlink:href="#DejaVuSansMono-79"/>
    <use x="120.410156" xlink:href="#DejaVuSansMono-6e"/>
    <use x="180.615234" xlink:href="#DejaVuSansMono-6f"/>
    <use x="240.820312" xlink:href="#DejaVuSansMono-6d"/>
    <use x="301.025391" xlink:href="#DejaVuSansMono-69"/>
    <use x="361.230469" xlink:href="#DejaVuSansMono-67"/>
    <use x="421.435547" xlink:href="#DejaVuSansMono-68"/>
    <use x="481.640625" xlink:href="#DejaVuSansMono-74"/>
    <use x="541.845703" xlink:href="#DejaVuSansMono-2e"/>
    <use x="602.050781" xlink:href="#DejaVuSansMono-6e"/>
    <use x="662.255859" xlink:href="#DejaVuSansMono-65"/>
    <use x="722.460938" xlink:href="#DejaVuSansMono-74"/>
   </g>
  </g>
  <g id="text_17">
   <!-- Data from "Assessing the U.S. Presidents using the Revised NEO Personality Inventory", Rubenzer et al., 2000 -->
   <g style="fill:#808080;opacity:0.7;" transform="translate(11.52 211.68)scale(0.05 -0.05)">
    <defs>
     <path d="M 1363 519 
Q 2159 519 2475 911 
Q 2791 1303 2791 2328 
Q 2791 3363 2477 3755 
Q 2163 4147 1363 4147 
L 1063 4147 
L 1063 519 
L 1363 519 
z
M 1375 4666 
Q 2444 4666 2950 4097 
Q 3456 3528 3456 2328 
Q 3456 1134 2950 567 
Q 2444 0 1375 0 
L 428 0 
L 428 4666 
L 1375 4666 
z
" id="DejaVuSansMono-44" transform="scale(0.015625)"/>
     <path d="M 2194 1759 
L 2003 1759 
Q 1500 1759 1245 1582 
Q 991 1406 991 1056 
Q 991 741 1181 566 
Q 1372 391 1709 391 
Q 2184 391 2456 720 
Q 2728 1050 2731 1631 
L 2731 1759 
L 2194 1759 
z
M 3309 1997 
L 3309 0 
L 2731 0 
L 2731 519 
Q 2547 206 2267 57 
Q 1988 -91 1588 -91 
Q 1053 -91 734 211 
Q 416 513 416 1019 
Q 416 1603 808 1906 
Q 1200 2209 1959 2209 
L 2731 2209 
L 2731 2300 
Q 2728 2719 2518 2908 
Q 2309 3097 1850 3097 
Q 1556 3097 1256 3012 
Q 956 2928 672 2766 
L 672 3341 
Q 991 3463 1283 3523 
Q 1575 3584 1850 3584 
Q 2284 3584 2592 3456 
Q 2900 3328 3091 3072 
Q 3209 2916 3259 2686 
Q 3309 2456 3309 1997 
z
" id="DejaVuSansMono-61" transform="scale(0.015625)"/>
     <path id="DejaVuSansMono-20" transform="scale(0.015625)"/>
     <path d="M 3322 4863 
L 3322 4384 
L 2669 4384 
Q 2359 4384 2239 4257 
Q 2119 4131 2119 3809 
L 2119 3500 
L 3322 3500 
L 3322 3053 
L 2119 3053 
L 2119 0 
L 1544 0 
L 1544 3053 
L 609 3053 
L 609 3500 
L 1544 3500 
L 1544 3744 
Q 1544 4319 1808 4591 
Q 2072 4863 2631 4863 
L 3322 4863 
z
" id="DejaVuSansMono-66" transform="scale(0.015625)"/>
     <path d="M 3609 2778 
Q 3425 2922 3234 2987 
Q 3044 3053 2816 3053 
Q 2278 3053 1993 2715 
Q 1709 2378 1709 1741 
L 1709 0 
L 1131 0 
L 1131 3500 
L 1709 3500 
L 1709 2816 
Q 1853 3188 2151 3386 
Q 2450 3584 2859 3584 
Q 3072 3584 3256 3531 
Q 3441 3478 3609 3366 
L 3609 2778 
z
" id="DejaVuSansMono-72" transform="scale(0.015625)"/>
     <path d="M 2797 4666 
L 2797 2931 
L 2253 2931 
L 2253 4666 
L 2797 4666 
z
M 1600 4666 
L 1600 2931 
L 1056 2931 
L 1056 4666 
L 1600 4666 
z
" id="DejaVuSansMono-22" transform="scale(0.015625)"/>
     <path d="M 1925 4109 
L 1259 1722 
L 2591 1722 
L 1925 4109 
z
M 1544 4666 
L 2309 4666 
L 3738 0 
L 3084 0 
L 2741 1216 
L 1106 1216 
L 769 0 
L 116 0 
L 1544 4666 
z
" id="DejaVuSansMono-41" transform="scale(0.015625)"/>
     <path d="M 3041 3378 
L 3041 2816 
Q 2794 2959 2544 3031 
Q 2294 3103 2034 3103 
Q 1644 3103 1451 2976 
Q 1259 2850 1259 2591 
Q 1259 2356 1403 2240 
Q 1547 2125 2119 2016 
L 2350 1972 
Q 2778 1891 2998 1647 
Q 3219 1403 3219 1013 
Q 3219 494 2850 201 
Q 2481 -91 1825 -91 
Q 1566 -91 1281 -36 
Q 997 19 666 128 
L 666 722 
Q 988 556 1281 473 
Q 1575 391 1838 391 
Q 2219 391 2428 545 
Q 2638 700 2638 978 
Q 2638 1378 1872 1531 
L 1847 1538 
L 1631 1581 
Q 1134 1678 906 1908 
Q 678 2138 678 2534 
Q 678 3038 1018 3311 
Q 1359 3584 1991 3584 
Q 2272 3584 2531 3532 
Q 2791 3481 3041 3378 
z
" id="DejaVuSansMono-73" transform="scale(0.015625)"/>
     <path d="M 459 1791 
L 459 4666 
L 1094 4666 
L 1094 1503 
Q 1094 1163 1112 1017 
Q 1131 872 1178 794 
Q 1278 609 1467 515 
Q 1656 422 1925 422 
Q 2197 422 2384 515 
Q 2572 609 2675 794 
Q 2722 872 2740 1015 
Q 2759 1159 2759 1497 
L 2759 4666 
L 3391 4666 
L 3391 1791 
Q 3391 1075 3302 773 
Q 3213 472 2994 275 
Q 2788 91 2522 0 
Q 2256 -91 1925 -91 
Q 1597 -91 1331 0 
Q 1066 91 856 275 
Q 641 469 550 776 
Q 459 1084 459 1791 
z
" id="DejaVuSansMono-55" transform="scale(0.015625)"/>
     <path d="M 3163 4506 
L 3163 3866 
Q 2875 4050 2586 4144 
Q 2297 4238 2003 4238 
Q 1556 4238 1297 4030 
Q 1038 3822 1038 3469 
Q 1038 3159 1208 2996 
Q 1378 2834 1844 2725 
L 2175 2650 
Q 2831 2497 3131 2169 
Q 3431 1841 3431 1275 
Q 3431 609 3018 259 
Q 2606 -91 1819 -91 
Q 1491 -91 1159 -20 
Q 828 50 494 191 
L 494 863 
Q 853 634 1173 528 
Q 1494 422 1819 422 
Q 2297 422 2562 636 
Q 2828 850 2828 1234 
Q 2828 1584 2645 1768 
Q 2463 1953 2009 2053 
L 1672 2131 
Q 1022 2278 728 2575 
Q 434 2872 434 3372 
Q 434 3997 854 4373 
Q 1275 4750 1972 4750 
Q 2241 4750 2537 4689 
Q 2834 4628 3163 4506 
z
" id="DejaVuSansMono-53" transform="scale(0.015625)"/>
     <path d="M 1247 4147 
L 1247 2394 
L 1978 2394 
Q 2416 2394 2661 2625 
Q 2906 2856 2906 3272 
Q 2906 3688 2662 3917 
Q 2419 4147 1978 4147 
L 1247 4147 
z
M 616 4666 
L 1978 4666 
Q 2759 4666 3162 4311 
Q 3566 3956 3566 3272 
Q 3566 2581 3164 2228 
Q 2763 1875 1978 1875 
L 1247 1875 
L 1247 0 
L 616 0 
L 616 4666 
z
" id="DejaVuSansMono-50" transform="scale(0.015625)"/>
     <path d="M 609 1325 
L 609 3494 
L 1184 3494 
L 1184 1325 
Q 1184 853 1351 631 
Q 1519 409 1869 409 
Q 2275 409 2490 695 
Q 2706 981 2706 1516 
L 2706 3494 
L 3284 3494 
L 3284 0 
L 2706 0 
L 2706 525 
Q 2553 222 2289 65 
Q 2025 -91 1672 -91 
Q 1134 -91 871 261 
Q 609 613 609 1325 
z
" id="DejaVuSansMono-75" transform="scale(0.015625)"/>
     <path d="M 2375 2203 
Q 2619 2141 2791 1967 
Q 2963 1794 3219 1275 
L 3853 0 
L 3175 0 
L 2619 1178 
Q 2378 1681 2186 1826 
Q 1994 1972 1684 1972 
L 1081 1972 
L 1081 0 
L 447 0 
L 447 4666 
L 1747 4666 
Q 2516 4666 2925 4319 
Q 3334 3972 3334 3316 
Q 3334 2853 3082 2561 
Q 2831 2269 2375 2203 
z
M 1081 4147 
L 1081 2491 
L 1772 2491 
Q 2225 2491 2447 2694 
Q 2669 2897 2669 3316 
Q 2669 3719 2433 3933 
Q 2197 4147 1747 4147 
L 1081 4147 
z
" id="DejaVuSansMono-52" transform="scale(0.015625)"/>
     <path d="M 313 3500 
L 909 3500 
L 1925 563 
L 2944 3500 
L 3541 3500 
L 2297 0 
L 1556 0 
L 313 3500 
z
" id="DejaVuSansMono-76" transform="scale(0.015625)"/>
     <path d="M 434 4666 
L 1234 4666 
L 2809 825 
L 2809 4666 
L 3419 4666 
L 3419 0 
L 2619 0 
L 1044 3841 
L 1044 0 
L 434 0 
L 434 4666 
z
" id="DejaVuSansMono-4e" transform="scale(0.015625)"/>
     <path d="M 616 4666 
L 3384 4666 
L 3384 4134 
L 1247 4134 
L 1247 2753 
L 3291 2753 
L 3291 2222 
L 1247 2222 
L 1247 531 
L 3444 531 
L 3444 0 
L 616 0 
L 616 4666 
z
" id="DejaVuSansMono-45" transform="scale(0.015625)"/>
     <path d="M 2828 2328 
Q 2828 3356 2617 3797 
Q 2406 4238 1925 4238 
Q 1447 4238 1236 3797 
Q 1025 3356 1025 2328 
Q 1025 1303 1236 862 
Q 1447 422 1925 422 
Q 2406 422 2617 861 
Q 2828 1300 2828 2328 
z
M 3488 2328 
Q 3488 1109 3102 509 
Q 2716 -91 1925 -91 
Q 1134 -91 750 506 
Q 366 1103 366 2328 
Q 366 3550 752 4150 
Q 1138 4750 1925 4750 
Q 2716 4750 3102 4150 
Q 3488 3550 3488 2328 
z
" id="DejaVuSansMono-4f" transform="scale(0.015625)"/>
     <path d="M 1997 1269 
Q 1997 881 2139 684 
Q 2281 488 2559 488 
L 3231 488 
L 3231 0 
L 2503 0 
Q 1988 0 1705 331 
Q 1422 663 1422 1269 
L 1422 4447 
L 500 4447 
L 500 4897 
L 1997 4897 
L 1997 1269 
z
" id="DejaVuSansMono-6c" transform="scale(0.015625)"/>
     <path d="M 628 4666 
L 3219 4666 
L 3219 4134 
L 2241 4134 
L 2241 531 
L 3219 531 
L 3219 0 
L 628 0 
L 628 531 
L 1606 531 
L 1606 4134 
L 628 4134 
L 628 4666 
z
" id="DejaVuSansMono-49" transform="scale(0.015625)"/>
     <path d="M 1569 947 
L 2356 947 
L 2356 300 
L 1741 -897 
L 1259 -897 
L 1569 300 
L 1569 947 
z
" id="DejaVuSansMono-2c" transform="scale(0.015625)"/>
     <path d="M 2869 1747 
Q 2869 2416 2656 2756 
Q 2444 3097 2028 3097 
Q 1609 3097 1393 2755 
Q 1178 2413 1178 1747 
Q 1178 1084 1393 740 
Q 1609 397 2028 397 
Q 2444 397 2656 737 
Q 2869 1078 2869 1747 
z
M 1178 3053 
Q 1316 3309 1558 3446 
Q 1800 3584 2119 3584 
Q 2750 3584 3112 3098 
Q 3475 2613 3475 1759 
Q 3475 894 3111 401 
Q 2747 -91 2113 -91 
Q 1800 -91 1561 45 
Q 1322 181 1178 441 
L 1178 0 
L 603 0 
L 603 4863 
L 1178 4863 
L 1178 3053 
z
" id="DejaVuSansMono-62" transform="scale(0.015625)"/>
     <path d="M 709 3506 
L 3250 3506 
L 3250 2981 
L 1241 469 
L 3250 469 
L 3250 0 
L 634 0 
L 634 531 
L 2644 3047 
L 709 3047 
L 709 3506 
z
" id="DejaVuSansMono-7a" transform="scale(0.015625)"/>
     <path d="M 1166 531 
L 3309 531 
L 3309 0 
L 475 0 
L 475 531 
Q 1059 1147 1496 1619 
Q 1934 2091 2100 2284 
Q 2413 2666 2522 2902 
Q 2631 3138 2631 3384 
Q 2631 3775 2401 3997 
Q 2172 4219 1772 4219 
Q 1488 4219 1175 4116 
Q 863 4013 513 3803 
L 513 4441 
Q 834 4594 1145 4672 
Q 1456 4750 1759 4750 
Q 2444 4750 2861 4386 
Q 3278 4022 3278 3431 
Q 3278 3131 3139 2831 
Q 3000 2531 2688 2169 
Q 2513 1966 2180 1606 
Q 1847 1247 1166 531 
z
" id="DejaVuSansMono-32" transform="scale(0.015625)"/>
     <path d="M 1509 2344 
Q 1509 2516 1629 2641 
Q 1750 2766 1919 2766 
Q 2094 2766 2219 2641 
Q 2344 2516 2344 2344 
Q 2344 2169 2220 2047 
Q 2097 1925 1919 1925 
Q 1744 1925 1626 2044 
Q 1509 2163 1509 2344 
z
M 1925 4250 
Q 1484 4250 1267 3775 
Q 1050 3300 1050 2328 
Q 1050 1359 1267 884 
Q 1484 409 1925 409 
Q 2369 409 2586 884 
Q 2803 1359 2803 2328 
Q 2803 3300 2586 3775 
Q 2369 4250 1925 4250 
z
M 1925 4750 
Q 2672 4750 3055 4137 
Q 3438 3525 3438 2328 
Q 3438 1134 3055 521 
Q 2672 -91 1925 -91 
Q 1178 -91 797 521 
Q 416 1134 416 2328 
Q 416 3525 797 4137 
Q 1178 4750 1925 4750 
z
" id="DejaVuSansMono-30" transform="scale(0.015625)"/>
    </defs>
    <use xlink:href="#DejaVuSansMono-44"/>
    <use x="60.205078" xlink:href="#DejaVuSansMono-61"/>
    <use x="120.410156" xlink:href="#DejaVuSansMono-74"/>
    <use x="180.615234" xlink:href="#DejaVuSansMono-61"/>
    <use x="240.820312" xlink:href="#DejaVuSansMono-20"/>
    <use x="301.025391" xlink:href="#DejaVuSansMono-66"/>
    <use x="361.230469" xlink:href="#DejaVuSansMono-72"/>
    <use x="421.435547" xlink:href="#DejaVuSansMono-6f"/>
    <use x="481.640625" xlink:href="#DejaVuSansMono-6d"/>
    <use x="541.845703" xlink:href="#DejaVuSansMono-20"/>
    <use x="602.050781" xlink:href="#DejaVuSansMono-22"/>
    <use x="662.255859" xlink:href="#DejaVuSansMono-41"/>
    <use x="722.460938" xlink:href="#DejaVuSansMono-73"/>
    <use x="782.666016" xlink:href="#DejaVuSansMono-73"/>
    <use x="842.871094" xlink:href="#DejaVuSansMono-65"/>
    <use x="903.076172" xlink:href="#DejaVuSansMono-73"/>
    <use x="963.28125" xlink:href="#DejaVuSansMono-73"/>
    <use x="1023.486328" xlink:href="#DejaVuSansMono-69"/>
    <use x="1083.691406" xlink:href="#DejaVuSansMono-6e"/>
    <use x="1143.896484" xlink:href="#DejaVuSansMono-67"/>
    <use x="1204.101562" xlink:href="#DejaVuSansMono-20"/>
    <use x="1264.306641" xlink:href="#DejaVuSansMono-74"/>
    <use x="1324.511719" xlink:href="#DejaVuSansMono-68"/>
    <use x="1384.716797" xlink:href="#DejaVuSansMono-65"/>
    <use x="1444.921875" xlink:href="#DejaVuSansMono-20"/>
    <use x="1505.126953" xlink:href="#DejaVuSansMono-55"/>
    <use x="1565.332031" xlink:href="#DejaVuSansMono-2e"/>
    <use x="1625.537109" xlink:href="#DejaVuSansMono-53"/>
    <use x="1685.742188" xlink:href="#DejaVuSansMono-2e"/>
    <use x="1745.947266" xlink:href="#DejaVuSansMono-20"/>
    <use x="1806.152344" xlink:href="#DejaVuSansMono-50"/>
    <use x="1866.357422" xlink:href="#DejaVuSansMono-72"/>
    <use x="1926.5625" xlink:href="#DejaVuSansMono-65"/>
    <use x="1986.767578" xlink:href="#DejaVuSansMono-73"/>
    <use x="2046.972656" xlink:href="#DejaVuSansMono-69"/>
    <use x="2107.177734" xlink:href="#DejaVuSansMono-64"/>
    <use x="2167.382812" xlink:href="#DejaVuSansMono-65"/>
    <use x="2227.587891" xlink:href="#DejaVuSansMono-6e"/>
    <use x="2287.792969" xlink:href="#DejaVuSansMono-74"/>
    <use x="2347.998047" xlink:href="#DejaVuSansMono-73"/>
    <use x="2408.203125" xlink:href="#DejaVuSansMono-20"/>
    <use x="2468.408203" xlink:href="#DejaVuSansMono-75"/>
    <use x="2528.613281" xlink:href="#DejaVuSansMono-73"/>
    <use x="2588.818359" xlink:href="#DejaVuSansMono-69"/>
    <use x="2649.023438" xlink:href="#DejaVuSansMono-6e"/>
    <use x="2709.228516" xlink:href="#DejaVuSansMono-67"/>
    <use x="2769.433594" xlink:href="#DejaVuSansMono-20"/>
    <use x="2829.638672" xlink:href="#DejaVuSansMono-74"/>
    <use x="2889.84375" xlink:href="#DejaVuSansMono-68"/>
    <use x="2950.048828" xlink:href="#DejaVuSansMono-65"/>
    <use x="3010.253906" xlink:href="#DejaVuSansMono-20"/>
    <use x="3070.458984" xlink:href="#DejaVuSansMono-52"/>
    <use x="3130.664062" xlink:href="#DejaVuSansMono-65"/>
    <use x="3190.869141" xlink:href="#DejaVuSansMono-76"/>
    <use x="3251.074219" xlink:href="#DejaVuSansMono-69"/>
    <use x="3311.279297" xlink:href="#DejaVuSansMono-73"/>
    <use x="3371.484375" xlink:href="#DejaVuSansMono-65"/>
    <use x="3431.689453" xlink:href="#DejaVuSansMono-64"/>
    <use x="3491.894531" xlink:href="#DejaVuSansMono-20"/>
    <use x="3552.099609" xlink:href="#DejaVuSansMono-4e"/>
    <use x="3612.304688" xlink:href="#DejaVuSansMono-45"/>
    <use x="3672.509766" xlink:href="#DejaVuSansMono-4f"/>
    <use x="3732.714844" xlink:href="#DejaVuSansMono-20"/>
    <use x="3792.919922" xlink:href="#DejaVuSansMono-50"/>
    <use x="3853.125" xlink:href="#DejaVuSansMono-65"/>
    <use x="3913.330078" xlink:href="#DejaVuSansMono-72"/>
    <use x="3973.535156" xlink:href="#DejaVuSansMono-73"/>
    <use x="4033.740234" xlink:href="#DejaVuSansMono-6f"/>
    <use x="4093.945312" xlink:href="#DejaVuSansMono-6e"/>
    <use x="4154.150391" xlink:href="#DejaVuSansMono-61"/>
    <use x="4214.355469" xlink:href="#DejaVuSansMono-6c"/>
    <use x="4274.560547" xlink:href="#DejaVuSansMono-69"/>
    <use x="4334.765625" xlink:href="#DejaVuSansMono-74"/>
    <use x="4394.970703" xlink:href="#DejaVuSansMono-79"/>
    <use x="4455.175781" xlink:href="#DejaVuSansMono-20"/>
    <use x="4515.380859" xlink:href="#DejaVuSansMono-49"/>
    <use x="4575.585938" xlink:href="#DejaVuSansMono-6e"/>
    <use x="4635.791016" xlink:href="#DejaVuSansMono-76"/>
    <use x="4695.996094" xlink:href="#DejaVuSansMono-65"/>
    <use x="4756.201172" xlink:href="#DejaVuSansMono-6e"/>
    <use x="4816.40625" xlink:href="#DejaVuSansMono-74"/>
    <use x="4876.611328" xlink:href="#DejaVuSansMono-6f"/>
    <use x="4936.816406" xlink:href="#DejaVuSansMono-72"/>
    <use x="4997.021484" xlink:href="#DejaVuSansMono-79"/>
    <use x="5057.226562" xlink:href="#DejaVuSansMono-22"/>
    <use x="5117.431641" xlink:href="#DejaVuSansMono-2c"/>
    <use x="5177.636719" xlink:href="#DejaVuSansMono-20"/>
    <use x="5237.841797" xlink:href="#DejaVuSansMono-52"/>
    <use x="5298.046875" xlink:href="#DejaVuSansMono-75"/>
    <use x="5358.251953" xlink:href="#DejaVuSansMono-62"/>
    <use x="5418.457031" xlink:href="#DejaVuSansMono-65"/>
    <use x="5478.662109" xlink:href="#DejaVuSansMono-6e"/>
    <use x="5538.867188" xlink:href="#DejaVuSansMono-7a"/>
    <use x="5599.072266" xlink:href="#DejaVuSansMono-65"/>
    <use x="5659.277344" xlink:href="#DejaVuSansMono-72"/>
    <use x="5719.482422" xlink:href="#DejaVuSansMono-20"/>
    <use x="5779.6875" xlink:href="#DejaVuSansMono-65"/>
    <use x="5839.892578" xlink:href="#DejaVuSansMono-74"/>
    <use x="5900.097656" xlink:href="#DejaVuSansMono-20"/>
    <use x="5960.302734" xlink:href="#DejaVuSansMono-61"/>
    <use x="6020.507812" xlink:href="#DejaVuSansMono-6c"/>
    <use x="6080.712891" xlink:href="#DejaVuSansMono-2e"/>
    <use x="6140.917969" xlink:href="#DejaVuSansMono-2c"/>
    <use x="6201.123047" xlink:href="#DejaVuSansMono-20"/>
    <use x="6261.328125" xlink:href="#DejaVuSansMono-32"/>
    <use x="6321.533203" xlink:href="#DejaVuSansMono-30"/>
    <use x="6381.738281" xlink:href="#DejaVuSansMono-30"/>
    <use x="6441.943359" xlink:href="#DejaVuSansMono-30"/>
   </g>
  </g>
 </g>
 <defs>
  <clipPath id="p0ccbe6a6d2">
   <rect height="151.2" width="518.4" x="51.84" y="21.6"/>
  </clipPath>
 </defs>
</svg>
