<?xml version="1.0" encoding="UTF-8"?>
<svg xmlns="http://www.w3.org/2000/svg" xmlns:xlink="http://www.w3.org/1999/xlink" width="1920" height="1080" viewBox="0 0 1920 1080">
<defs>
<clipPath id="clip-0">
<path clip-rule="nonzero" d="M 570.925781 468.589844 L 687.519531 468.589844 L 687.519531 865.65625 L 570.925781 865.65625 Z M 570.925781 468.589844 "/>
</clipPath>
<clipPath id="clip-1">
<path clip-rule="nonzero" d="M 552.242188 678.84375 L 582.875 678.84375 L 582.875 869.355469 L 552.242188 869.355469 Z M 552.242188 678.84375 "/>
</clipPath>
<clipPath id="clip-2">
<path clip-rule="nonzero" d="M 537.707031 515.773438 L 605.710938 515.773438 L 605.710938 648.914062 L 537.707031 648.914062 Z M 537.707031 515.773438 "/>
</clipPath>
<clipPath id="clip-3">
<path clip-rule="nonzero" d="M 598.445312 517.152344 L 734.867188 517.152344 L 734.867188 644.226562 L 598.445312 644.226562 Z M 598.445312 517.152344 "/>
</clipPath>
<clipPath id="clip-4">
<path clip-rule="nonzero" d="M 512.800781 282.226562 L 700.570312 282.226562 L 700.570312 477.191406 L 512.800781 477.191406 Z M 512.800781 282.226562 "/>
</clipPath>
<clipPath id="clip-5">
<path clip-rule="nonzero" d="M 580.5 405.253906 L 668.097656 405.253906 L 668.097656 416.746094 L 580.5 416.746094 Z M 580.5 405.253906 "/>
</clipPath>
<clipPath id="clip-6">
<path clip-rule="nonzero" d="M 630.457031 324.027344 L 675.4375 324.027344 L 675.4375 362.710938 L 630.457031 362.710938 Z M 630.457031 324.027344 "/>
</clipPath>
<clipPath id="clip-7">
<path clip-rule="nonzero" d="M 570.988281 325.027344 L 618.191406 325.027344 L 618.191406 363.824219 L 570.988281 363.824219 Z M 570.988281 325.027344 "/>
</clipPath>
<clipPath id="clip-8">
<path clip-rule="nonzero" d="M 637.015625 314.039062 L 661.160156 314.039062 L 661.160156 324.492188 L 637.015625 324.492188 Z M 637.015625 314.039062 "/>
</clipPath>
<clipPath id="clip-9">
<path clip-rule="nonzero" d="M 584.703125 310.925781 L 610.046875 310.925781 L 610.046875 320.378906 L 584.703125 320.378906 Z M 584.703125 310.925781 "/>
</clipPath>
<clipPath id="clip-10">
<path clip-rule="nonzero" d="M 504 518 L 851 518 L 851 692 L 504 692 Z M 504 518 "/>
</clipPath>
<clipPath id="clip-11">
<path clip-rule="nonzero" d="M 499.15625 550.773438 L 566.242188 462.714844 L 850.046875 678.921875 L 782.960938 766.980469 Z M 499.15625 550.773438 "/>
</clipPath>
<clipPath id="clip-12">
<path clip-rule="nonzero" d="M 641 660 L 788 660 L 788 783 L 641 783 Z M 641 660 "/>
</clipPath>
<clipPath id="clip-13">
<path clip-rule="nonzero" d="M 639.398438 679.351562 L 653.421875 660.941406 L 789.308594 764.464844 L 775.285156 782.875 Z M 639.398438 679.351562 "/>
</clipPath>
<clipPath id="clip-14">
<path clip-rule="nonzero" d="M 540 555 L 620 555 L 620 677 L 540 677 Z M 540 555 "/>
</clipPath>
<clipPath id="clip-15">
<path clip-rule="nonzero" d="M 513.871094 604.972656 L 551.738281 555.265625 L 645.171875 626.445312 L 607.304688 676.152344 Z M 513.871094 604.972656 "/>
</clipPath>
<clipPath id="clip-16">
<path clip-rule="nonzero" d="M 551 482 L 721 482 L 721 571 L 551 571 Z M 551 482 "/>
</clipPath>
<clipPath id="clip-17">
<path clip-rule="nonzero" d="M 551.382812 559.199219 L 632.789062 452.339844 L 720.390625 519.074219 L 638.980469 625.933594 Z M 551.382812 559.199219 "/>
</clipPath>
<clipPath id="clip-18">
<path clip-rule="nonzero" d="M 365 385 L 544 385 L 544 568 L 365 568 Z M 365 385 "/>
</clipPath>
<clipPath id="clip-19">
<path clip-rule="nonzero" d="M 443.0625 346.96875 L 326.785156 499.597656 L 466.609375 606.121094 L 582.886719 453.488281 Z M 443.0625 346.96875 "/>
</clipPath>
<clipPath id="clip-20">
<path clip-rule="nonzero" d="M 354 374 L 556 374 L 556 579 L 354 579 Z M 354 374 "/>
</clipPath>
<clipPath id="clip-21">
<path clip-rule="nonzero" d="M 443.0625 346.96875 L 326.785156 499.597656 L 466.609375 606.121094 L 582.886719 453.488281 Z M 443.0625 346.96875 "/>
</clipPath>
<clipPath id="clip-22">
<path clip-rule="nonzero" d="M 456 440 L 520 440 L 520 519 L 456 519 Z M 456 440 "/>
</clipPath>
<clipPath id="clip-23">
<path clip-rule="nonzero" d="M 510.941406 440.464844 L 456.734375 511.617188 L 465.289062 518.132812 L 519.492188 446.980469 Z M 510.941406 440.464844 "/>
</clipPath>
<clipPath id="clip-24">
<path clip-rule="nonzero" d="M 429 390 L 486 390 L 486 449 L 429 449 Z M 429 390 "/>
</clipPath>
<clipPath id="clip-25">
<path clip-rule="nonzero" d="M 457.398438 390.195312 L 429.589844 426.703125 L 457.585938 448.035156 L 485.398438 411.523438 Z M 457.398438 390.195312 "/>
</clipPath>
<clipPath id="clip-26">
<path clip-rule="nonzero" d="M 393 437 L 451 437 L 451 497 L 393 497 Z M 393 437 "/>
</clipPath>
<clipPath id="clip-27">
<path clip-rule="nonzero" d="M 422.652344 437.292969 L 393.460938 475.609375 L 421.539062 497 L 450.730469 458.683594 Z M 422.652344 437.292969 "/>
</clipPath>
<clipPath id="clip-28">
<path clip-rule="nonzero" d="M 426 396 L 450 396 L 450 422 L 426 422 Z M 426 396 "/>
</clipPath>
<clipPath id="clip-29">
<path clip-rule="nonzero" d="M 441.421875 396.34375 L 426.527344 415.894531 L 434.335938 421.839844 L 449.230469 402.292969 Z M 441.421875 396.34375 "/>
</clipPath>
<clipPath id="clip-30">
<path clip-rule="nonzero" d="M 391 436 L 415 436 L 415 463 L 391 463 Z M 391 436 "/>
</clipPath>
<clipPath id="clip-31">
<path clip-rule="nonzero" d="M 407.503906 436.246094 L 391.867188 456.769531 L 398.953125 462.171875 L 414.589844 441.644531 Z M 407.503906 436.246094 "/>
</clipPath>
<clipPath id="clip-32">
<path clip-rule="nonzero" d="M 1172 190 L 1191 190 L 1191 210 L 1172 210 Z M 1172 190 "/>
</clipPath>
<clipPath id="clip-33">
<path clip-rule="nonzero" d="M 1172.371094 203.898438 L 1180.90625 190.113281 L 1190.039062 195.769531 L 1181.507812 209.554688 Z M 1172.371094 203.898438 "/>
</clipPath>
<clipPath id="clip-34">
<path clip-rule="nonzero" d="M 1166 196 L 1193 196 L 1193 209 L 1166 209 Z M 1166 196 "/>
</clipPath>
<clipPath id="clip-35">
<path clip-rule="nonzero" d="M 1166.417969 192.152344 L 1196.148438 202.015625 L 1192.515625 212.96875 L 1162.785156 203.105469 Z M 1166.417969 192.152344 "/>
</clipPath>
<clipPath id="clip-36">
<path clip-rule="nonzero" d="M 1162 192 L 1197 192 L 1197 213 L 1162 213 Z M 1162 192 "/>
</clipPath>
<clipPath id="clip-37">
<path clip-rule="nonzero" d="M 1166.417969 192.152344 L 1196.148438 202.015625 L 1192.515625 212.96875 L 1162.785156 203.105469 Z M 1166.417969 192.152344 "/>
</clipPath>
<clipPath id="clip-38">
<path clip-rule="nonzero" d="M 1162 204 L 1176 204 L 1176 221 L 1162 221 Z M 1162 204 "/>
</clipPath>
<clipPath id="clip-39">
<path clip-rule="nonzero" d="M 1162.246094 218.5625 L 1171.851562 204.421875 L 1175.015625 206.574219 L 1165.410156 220.710938 Z M 1162.246094 218.5625 "/>
</clipPath>
<clipPath id="clip-40">
<path clip-rule="nonzero" d="M 1169 206 L 1179 206 L 1179 224 L 1169 224 Z M 1169 206 "/>
</clipPath>
<clipPath id="clip-41">
<path clip-rule="nonzero" d="M 1169.046875 222.222656 L 1175.382812 206.890625 L 1178.648438 208.238281 L 1172.316406 223.570312 Z M 1169.046875 222.222656 "/>
</clipPath>
<clipPath id="clip-42">
<path clip-rule="nonzero" d="M 1176 209 L 1183 209 L 1183 226 L 1176 226 Z M 1176 209 "/>
</clipPath>
<clipPath id="clip-43">
<path clip-rule="nonzero" d="M 1176.179688 225.25 L 1179.578125 209.21875 L 1182.738281 209.890625 L 1179.339844 225.921875 Z M 1176.179688 225.25 "/>
</clipPath>
</defs>
<rect x="-192" y="-108" width="2304" height="1296" fill="rgb(100%, 100%, 100%)" fill-opacity="1"/>
<path fill="none" stroke-width="5" stroke-linecap="butt" stroke-linejoin="miter" stroke="rgb(0%, 0%, 0%)" stroke-opacity="1" stroke-miterlimit="4" d="M 0.001343 0.000625 L 1916.032593 0.000625 L 1916.032593 1075.719375 L 0.001343 1075.719375 Z M 0.001343 0.000625 " transform="matrix(1, 0, 0, 1, 1.983032, 2.14)"/>
<g clip-path="url(#clip-0)">
<path fill="none" stroke-width="10" stroke-linecap="butt" stroke-linejoin="miter" stroke="rgb(0%, 0%, 0%)" stroke-opacity="1" stroke-miterlimit="4" d="M 24.009081 -0.00083125 L 0.00126875 206.307762 L 97.2083 277.436669 L 104.298144 394.182762 " transform="matrix(1, 0, 0, 1, 577.2292, 470.1688)"/>
</g>
<g clip-path="url(#clip-1)">
<path fill="none" stroke-width="10" stroke-linecap="butt" stroke-linejoin="miter" stroke="rgb(0%, 0%, 0%)" stroke-opacity="1" stroke-miterlimit="4" d="M 18.754694 -0.00160625 L 0.266413 82.670269 L 0.0007875 187.40855 " transform="matrix(1, 0, 0, 1, 558.2414, 680.9352)"/>
</g>
<g clip-path="url(#clip-2)">
<path fill="none" stroke-width="10" stroke-linecap="butt" stroke-linejoin="miter" stroke="rgb(0%, 0%, 0%)" stroke-opacity="1" stroke-miterlimit="4" d="M 57.557325 0.0003375 L 0.279981 54.449556 L -0.00126875 127.496431 " transform="matrix(1, 0, 0, 1, 543.7083, 520.3981)"/>
</g>
<g clip-path="url(#clip-3)">
<path fill="none" stroke-width="10" stroke-linecap="butt" stroke-linejoin="miter" stroke="rgb(0%, 0%, 0%)" stroke-opacity="1" stroke-miterlimit="4" d="M 0.0019125 0.0012375 L 99.376913 28.411394 L 128.283163 118.743425 " transform="matrix(1, 0, 0, 1, 600.8184, 522.9597)"/>
</g>
<path fill-rule="nonzero" fill="rgb(100%, 100%, 100%)" fill-opacity="1" d="M 541.710938 312.191406 C 505.828125 349.480469 505.828125 409.9375 541.710938 447.226562 C 577.597656 484.515625 635.773438 484.515625 671.65625 447.226562 C 707.542969 409.9375 707.542969 349.480469 671.65625 312.191406 C 635.773438 274.902344 577.597656 274.902344 541.710938 312.191406 Z M 541.710938 312.191406 "/>
<g clip-path="url(#clip-4)">
<path fill="none" stroke-width="2" stroke-linecap="butt" stroke-linejoin="miter" stroke="rgb(0%, 0%, 0%)" stroke-opacity="1" stroke-miterlimit="4" d="M 156.859763 27.965606 C 192.742575 65.254669 192.742575 125.7117 156.859763 163.000763 C 120.973044 200.289825 62.797263 200.289825 26.91445 163.000763 C -8.972269 125.7117 -8.972269 65.254669 26.91445 27.965606 C 62.797263 -9.323456 120.973044 -9.323456 156.859763 27.965606 Z M 156.859763 27.965606 " transform="matrix(-1, 0, 0, 1, 698.5707, 284.2258)"/>
</g>
<g clip-path="url(#clip-5)">
<path fill="none" stroke-width="2" stroke-linecap="butt" stroke-linejoin="miter" stroke="rgb(0%, 0%, 0%)" stroke-opacity="1" stroke-miterlimit="4" d="M 0.00193125 0.00144375 C 1.728494 1.142069 3.685525 1.888162 5.736306 2.188944 C 7.443337 2.438944 9.177712 2.368631 10.900369 2.435037 C 14.927712 2.587381 18.884744 3.462381 22.865212 4.095194 C 26.9824 4.747537 31.13865 5.134256 35.279275 5.5991 C 41.755837 6.325662 48.212869 7.239725 54.720681 7.532694 C 59.880837 7.767069 65.048806 7.610819 70.212869 7.532694 C 75.150369 7.458475 80.091775 7.458475 85.029275 7.532694 " transform="matrix(-1, 0, 0, 1, 666.5449, 407.0884)"/>
</g>
<g clip-path="url(#clip-6)">
<path fill="none" stroke-width="2" stroke-linecap="butt" stroke-linejoin="miter" stroke="rgb(0%, 0%, 0%)" stroke-opacity="1" stroke-miterlimit="4" d="M 14.346756 0.143775 C 11.362381 -0.360131 8.327225 0.475806 5.854569 2.479713 C 3.112381 4.702369 1.307694 8.124244 0.491287 11.901588 C -0.368088 15.87815 -0.106369 20.077369 1.338944 23.811744 C 3.354569 29.010963 7.389725 32.729713 12.147537 34.06565 C 15.807694 35.092994 19.604569 34.620338 23.346756 34.194556 C 28.335037 33.624244 33.616287 32.948463 37.081131 28.7219 C 39.295975 26.018775 40.276444 22.342994 40.7491 18.647681 C 41.088944 16.014869 41.170975 13.268775 40.174881 10.874244 C 38.327225 6.44065 33.889725 4.975806 29.721756 3.9094 C 24.608475 2.600806 19.483475 1.342994 14.346756 0.143775 Z M 14.346756 0.143775 " transform="matrix(-1, 0, 0, 1, 673.4366, 326.0281)"/>
</g>
<g clip-path="url(#clip-7)">
<path fill="none" stroke-width="2" stroke-linecap="butt" stroke-linejoin="miter" stroke="rgb(0%, 0%, 0%)" stroke-opacity="1" stroke-miterlimit="4" d="M 32.716638 3.559638 C 28.3807 0.727606 23.165856 -0.334894 18.001794 0.0908875 C 14.138513 0.4112 10.365075 1.563544 7.208825 3.81745 C 2.595544 7.118231 -0.220862 12.426825 0.0135125 18.083075 C 0.208825 22.81745 2.552575 27.184638 6.2557 30.145575 C 10.0682 33.19245 14.915856 34.465888 19.78695 34.739325 C 25.103356 35.040106 30.439294 34.180731 35.275231 31.950263 C 38.5057 30.454169 41.521325 28.25495 42.689294 24.903388 C 43.654138 22.145575 43.1307 19.165106 42.197106 16.395575 C 40.447106 11.211981 37.294763 6.551825 32.716638 3.559638 Z M 32.716638 3.559638 " transform="matrix(-1, 0, 0, 1, 616.1932, 327.0263)"/>
</g>
<g clip-path="url(#clip-8)">
<path fill="none" stroke-width="2" stroke-linecap="butt" stroke-linejoin="miter" stroke="rgb(0%, 0%, 0%)" stroke-opacity="1" stroke-miterlimit="4" d="M 0.000275 0.0060625 C 3.804962 0.076375 7.582306 0.674031 11.222931 1.787312 C 14.883087 2.908406 18.371369 4.533406 21.5784 6.619344 " transform="matrix(-1, 0, 0, 1, 660.1409, 316.033)"/>
</g>
<g clip-path="url(#clip-9)">
<path fill="none" stroke-width="2" stroke-linecap="butt" stroke-linejoin="miter" stroke="rgb(0%, 0%, 0%)" stroke-opacity="1" stroke-miterlimit="4" d="M 0.00175625 5.515794 C 4.271287 4.015794 8.658006 2.757981 13.126756 1.757981 C 16.3416 1.039231 19.595506 0.453294 22.876756 0.00016875 " transform="matrix(-1, 0, 0, 1, 608.7166, 312.9178)"/>
</g>
<g clip-path="url(#clip-10)">
<g clip-path="url(#clip-11)">
<path fill="none" stroke-width="2" stroke-linecap="butt" stroke-linejoin="miter" stroke="rgb(0%, 0%, 0%)" stroke-opacity="1" stroke-miterlimit="4" d="M 24.544504 -0.000540809 L 0.00172347 185.579867 L 99.377809 249.56179 L 106.630944 354.57975 " transform="matrix(0.605998, -0.795466, 0.795466, 0.605998, 501.314, 549.8098)"/>
</g>
</g>
<g clip-path="url(#clip-12)">
<g clip-path="url(#clip-13)">
<path fill="none" stroke-width="2" stroke-linecap="butt" stroke-linejoin="miter" stroke="rgb(0%, 0%, 0%)" stroke-opacity="1" stroke-miterlimit="4" d="M 19.171346 -0.000697822 L 0.273728 74.364591 L -0.00146024 168.578695 " transform="matrix(0.605998, -0.795466, 0.795466, 0.605998, 641.6015, 678.5162)"/>
</g>
</g>
<g clip-path="url(#clip-14)">
<g clip-path="url(#clip-15)">
<path fill="none" stroke-width="2" stroke-linecap="butt" stroke-linejoin="miter" stroke="rgb(0%, 0%, 0%)" stroke-opacity="1" stroke-miterlimit="4" d="M 58.846604 -0.00001321 L 0.284328 48.97921 L -0.000499338 114.689458 " transform="matrix(0.605998, -0.795466, 0.795466, 0.605998, 516.4875, 604.4511)"/>
</g>
</g>
<g clip-path="url(#clip-16)">
<g clip-path="url(#clip-17)">
<path fill="none" stroke-width="2" stroke-linecap="butt" stroke-linejoin="miter" stroke="rgb(0%, 0%, 0%)" stroke-opacity="1" stroke-miterlimit="4" d="M 0.000900773 0.0000994797 L 101.595145 25.555666 L 131.150707 106.811508 " transform="matrix(0.605998, -0.795466, 0.795466, 0.605998, 553.7025, 559.403)"/>
</g>
</g>
<g clip-path="url(#clip-18)">
<g clip-path="url(#clip-19)">
<path fill-rule="nonzero" fill="rgb(100%, 100%, 100%)" fill-opacity="1" d="M 366.269531 492.578125 C 370.722656 542.085938 413.980469 575.042969 462.894531 566.1875 C 511.804688 557.332031 547.851562 510.019531 543.398438 460.507812 C 538.949219 411 495.691406 378.046875 446.777344 386.902344 C 397.863281 395.757812 361.820312 443.070312 366.269531 492.578125 Z M 366.269531 492.578125 "/>
</g>
</g>
<g clip-path="url(#clip-20)">
<g clip-path="url(#clip-21)">
<path fill="none" stroke-width="2" stroke-linecap="butt" stroke-linejoin="miter" stroke="rgb(0%, 0%, 0%)" stroke-opacity="1" stroke-miterlimit="4" d="M 160.364225 25.154938 C 197.047413 58.6989 197.049443 113.08092 160.363378 146.623987 C 123.67968 180.163946 64.199855 180.166707 27.513559 146.620377 C -9.171996 113.079522 -9.170918 58.69987 27.515147 25.156803 C 64.201212 -8.386264 123.67867 -8.385917 160.364225 25.154938 Z M 160.364225 25.154938 " transform="matrix(-0.605998, 0.795466, 0.795466, 0.605998, 443.4401, 349.77)"/>
</g>
</g>
<g clip-path="url(#clip-22)">
<g clip-path="url(#clip-23)">
<path fill="none" stroke-width="2" stroke-linecap="butt" stroke-linejoin="miter" stroke="rgb(0%, 0%, 0%)" stroke-opacity="1" stroke-miterlimit="4" d="M 0.00059894 -0.0000229971 C 1.767148 1.02657 3.767602 1.701006 5.866427 1.969139 C 7.610885 2.1932 9.380924 2.132288 11.144608 2.189301 C 15.263224 2.326524 19.305825 3.117881 23.373567 3.682858 C 27.586458 4.270021 31.833959 4.618374 36.068443 5.035382 C 42.687164 5.687512 49.292874 6.511423 55.945752 6.77708 C 61.222453 6.986294 66.501797 6.843955 71.782921 6.776631 C 76.832784 6.709913 81.88058 6.710368 86.931782 6.777257 " transform="matrix(-0.605998, 0.795466, 0.795466, 0.605998, 511.5121, 442.7886)"/>
</g>
</g>
<g clip-path="url(#clip-24)">
<g clip-path="url(#clip-25)">
<path fill="none" stroke-width="2" stroke-linecap="butt" stroke-linejoin="miter" stroke="rgb(0%, 0%, 0%)" stroke-opacity="1" stroke-miterlimit="4" d="M 14.667076 0.12711 C 11.615676 -0.321627 8.51463 0.429295 5.982252 2.23218 C 3.180451 4.227575 1.333791 7.309089 0.499637 10.705257 C -0.377267 14.280014 -0.108803 18.059483 1.368321 21.419122 C 3.42774 26.096458 7.553491 29.440856 12.415665 30.645419 C 16.16117 31.56892 20.041835 31.141838 23.866721 30.755743 C 28.965238 30.244846 34.368398 29.637019 37.907234 25.836177 C 40.173248 23.403147 41.173122 20.098853 41.65987 16.77195 C 42.005815 14.403391 42.09312 11.936009 41.068673 9.780589 C 39.180629 5.793624 34.645884 4.475114 30.38814 3.514947 C 25.156216 2.338074 19.916897 1.209584 14.667076 0.12711 Z M 14.667076 0.12711 " transform="matrix(-0.605998, 0.795466, 0.795466, 0.605998, 457.7793, 392.998)"/>
</g>
</g>
<g clip-path="url(#clip-26)">
<g clip-path="url(#clip-27)">
<path fill="none" stroke-width="2" stroke-linecap="butt" stroke-linejoin="miter" stroke="rgb(0%, 0%, 0%)" stroke-opacity="1" stroke-miterlimit="4" d="M 33.449752 3.205279 C 29.015698 0.652335 23.682878 -0.301853 18.402512 0.0803291 C 14.455701 0.368629 10.596229 1.406045 7.3723 3.433423 C 2.656102 6.40117 -0.224405 11.174958 0.0123213 16.265944 C 0.214674 20.525399 2.610216 24.452116 6.395769 27.11503 C 10.294811 29.854582 15.249605 31.002026 20.230684 31.251206 C 25.66319 31.520186 31.119163 30.746345 36.062533 28.737365 C 39.368027 27.395775 42.447846 25.415752 43.643191 22.40278 C 44.631422 19.919515 44.0961 17.238071 43.140584 14.747222 C 41.348232 10.086738 38.130463 5.892112 33.449752 3.205279 Z M 33.449752 3.205279 " transform="matrix(-0.605998, 0.795466, 0.795466, 0.605998, 423.0294, 440.094)"/>
</g>
</g>
<g clip-path="url(#clip-28)">
<g clip-path="url(#clip-29)">
<path fill="none" stroke-width="2" stroke-linecap="butt" stroke-linejoin="miter" stroke="rgb(0%, 0%, 0%)" stroke-opacity="1" stroke-miterlimit="4" d="M -0.000685412 -0.00111144 C 3.890364 0.0609603 7.751257 0.600944 11.471169 1.603162 C 15.216828 2.610261 18.778598 4.071458 22.062226 5.949327 " transform="matrix(-0.605998, 0.795466, 0.795466, 0.605998, 442.395, 398.3645)"/>
</g>
</g>
<g clip-path="url(#clip-30)">
<g clip-path="url(#clip-31)">
<path fill="none" stroke-width="2" stroke-linecap="butt" stroke-linejoin="miter" stroke="rgb(0%, 0%, 0%)" stroke-opacity="1" stroke-miterlimit="4" d="M 0.000667534 4.963638 C 4.36644 3.609708 8.849261 2.482446 13.418652 1.583184 C 16.70643 0.935231 20.032387 0.404756 23.386316 -0.00128661 " transform="matrix(-0.605998, 0.795466, 0.795466, 0.605998, 408.302, 438.4837)"/>
</g>
</g>
<path fill-rule="nonzero" fill="rgb(100%, 100%, 100%)" fill-opacity="1" stroke-width="2" stroke-linecap="butt" stroke-linejoin="miter" stroke="rgb(0%, 0%, 0%)" stroke-opacity="1" stroke-miterlimit="4" d="M 9.1467 -0.00148125 L -0.0017375 123.088363 L 96.627169 124.721175 L 108.064669 4.760238 Z M 9.1467 -0.00148125 " transform="matrix(1, 0, 0, 1, 554.7283, 535.3257)"/>
<path fill="none" stroke-width="2" stroke-linecap="butt" stroke-linejoin="miter" stroke="rgb(0%, 0%, 0%)" stroke-opacity="1" stroke-miterlimit="4" d="M 0.001025 -0.00024375 L 407.098681 -0.00024375 L 407.098681 411.327881 L 0.001025 411.327881 Z M 0.001025 -0.00024375 " transform="matrix(1, 0, 0, 1, 811.9521, 127.2229)"/>
<path fill="none" stroke-width="2" stroke-linecap="butt" stroke-linejoin="miter" stroke="rgb(0%, 37.646484%, 0%)" stroke-opacity="1" stroke-miterlimit="4" d="M -0.00096875 -0.00031875 L 5.983406 276.519213 " transform="matrix(1, 0, 0, 1, 1051.583, 239.9261)"/>
<path fill="none" stroke-width="2" stroke-linecap="butt" stroke-linejoin="miter" stroke="rgb(0%, 37.646484%, 0%)" stroke-opacity="1" stroke-miterlimit="4" d="M 0.0003375 0.00116875 L 113.703463 0.00116875 " transform="matrix(1, 0, 0, 1, 996.6481, 356.2293)"/>
<path fill="none" stroke-width="2" stroke-linecap="butt" stroke-linejoin="miter" stroke="rgb(0%, 37.646484%, 0%)" stroke-opacity="1" stroke-miterlimit="4" d="M -0.0019375 -0.00096875 L 69.17775 -0.00096875 " transform="matrix(1, 0, 0, 1, 1016.791, 290.958)"/>
<path fill="none" stroke-width="2" stroke-linecap="butt" stroke-linejoin="miter" stroke="rgb(0%, 37.646484%, 0%)" stroke-opacity="1" stroke-miterlimit="4" d="M -0.0003125 -0.00108125 L 90.652031 -0.00108125 " transform="matrix(1, 0, 0, 1, 1006.055, 323.2628)"/>
<path fill="none" stroke-width="2" stroke-linecap="butt" stroke-linejoin="miter" stroke="rgb(0%, 37.646484%, 0%)" stroke-opacity="1" stroke-miterlimit="4" d="M 0.000270199 0.519246 L 41.658002 -0.00180866 " transform="matrix(0.999766, -0.0216273, 0.0216273, 0.999766, 1030.551, 265.1801)"/>
<path fill="none" stroke-width="2" stroke-linecap="butt" stroke-linejoin="miter" stroke="rgb(0%, 37.646484%, 0%)" stroke-opacity="1" stroke-miterlimit="4" d="M 0.0009625 -0.00160625 L 137.547838 -0.00160625 " transform="matrix(1, 0, 0, 1, 984.7256, 388.8727)"/>
<path fill="none" stroke-width="2" stroke-linecap="butt" stroke-linejoin="miter" stroke="rgb(0%, 37.646484%, 0%)" stroke-opacity="1" stroke-miterlimit="4" d="M 0.00076875 0.00064375 L 164.789831 0.00064375 " transform="matrix(1, 0, 0, 1, 971.1047, 423.8392)"/>
<path fill="none" stroke-width="2" stroke-linecap="butt" stroke-linejoin="miter" stroke="rgb(0%, 37.646484%, 0%)" stroke-opacity="1" stroke-miterlimit="4" d="M 0.00045 0.001775 L 188.199669 0.001775 " transform="matrix(1, 0, 0, 1, 957.2808, 455.4826)"/>
<path fill="none" stroke-width="2" stroke-linecap="butt" stroke-linejoin="miter" stroke="rgb(0%, 37.646484%, 0%)" stroke-opacity="1" stroke-miterlimit="4" d="M 0.00171875 0.0016625 L 210.865 0.0016625 " transform="matrix(1, 0, 0, 1, 945.9475, 484.7874)"/>
<g clip-path="url(#clip-32)">
<g clip-path="url(#clip-33)">
<path fill="none" stroke-width="1" stroke-linecap="butt" stroke-linejoin="miter" stroke="rgb(0%, 0%, 0%)" stroke-opacity="1" stroke-miterlimit="4" d="M 11.427541 0.90128 C 13.922113 2.274401 13.784378 4.716375 11.123096 6.354442 C 8.458492 7.994565 4.278801 8.211168 1.784229 6.838047 C -0.708288 5.468247 -0.570553 3.026273 2.090729 1.388206 C 4.755333 -0.251917 8.935024 -0.46852 11.427541 0.90128 Z M 11.427541 0.90128 " transform="matrix(0.526307, -0.850295, 0.850295, 0.526307, 1174.438, 203.4143)"/>
</g>
</g>
<g clip-path="url(#clip-34)">
<g clip-path="url(#clip-35)">
<path fill-rule="nonzero" fill="rgb(100%, 100%, 100%)" fill-opacity="1" d="M 1189.730469 203.148438 C 1194.445312 206.648438 1193.671875 209.226562 1188.003906 208.902344 C 1182.335938 208.578125 1173.917969 205.476562 1169.203125 201.972656 C 1164.488281 198.472656 1165.261719 195.898438 1170.929688 196.222656 C 1176.597656 196.546875 1185.015625 199.644531 1189.730469 203.148438 Z M 1189.730469 203.148438 "/>
</g>
</g>
<g clip-path="url(#clip-36)">
<g clip-path="url(#clip-37)">
<path fill="none" stroke-width="1" stroke-linecap="butt" stroke-linejoin="miter" stroke="rgb(0%, 0%, 0%)" stroke-opacity="1" stroke-miterlimit="4" d="M 24.087334 1.596169 C 29.664416 3.433533 29.742115 6.124053 24.260374 7.601043 C 18.778633 9.078033 9.812254 8.78487 4.233942 6.943798 C -1.34314 5.106433 -1.419609 2.419621 4.062132 0.942631 C 9.543874 -0.534359 18.509022 -0.244903 24.087334 1.596169 Z M 24.087334 1.596169 " transform="matrix(0.949132, 0.314878, -0.314878, 0.949132, 1167.371, 194.0489)"/>
</g>
</g>
<g clip-path="url(#clip-38)">
<g clip-path="url(#clip-39)">
<path fill="none" stroke-width="1" stroke-linecap="butt" stroke-linejoin="miter" stroke="rgb(48.234558%, 48.234558%, 48.234558%)" stroke-opacity="1" stroke-miterlimit="4" d="M -0.000997023 0.827749 L 15.035278 -0.000386542 " transform="matrix(0.562014, -0.827128, 0.827128, 0.562014, 1164.062, 218.5535)"/>
</g>
</g>
<g clip-path="url(#clip-40)">
<g clip-path="url(#clip-41)">
<path fill="none" stroke-width="1" stroke-linecap="butt" stroke-linejoin="miter" stroke="rgb(48.234558%, 48.234558%, 48.234558%)" stroke-opacity="1" stroke-miterlimit="4" d="M -0.000830947 0.53418 L 14.553779 -0.000069663 " transform="matrix(0.381755, -0.924264, 0.924264, 0.381755, 1170.823, 221.8539)"/>
</g>
</g>
<g clip-path="url(#clip-42)">
<g clip-path="url(#clip-43)">
<path fill="none" stroke-width="1" stroke-linecap="butt" stroke-linejoin="miter" stroke="rgb(48.234558%, 48.234558%, 48.234558%)" stroke-opacity="1" stroke-miterlimit="4" d="M -0.00099445 0.230238 L 14.372775 -0.000468381 " transform="matrix(0.207294, -0.978279, 0.978279, 0.207294, 1177.857, 224.5763)"/>
</g>
</g>
</svg>
