<?xml version="1.0" encoding="UTF-8"?>
<svg xmlns="http://www.w3.org/2000/svg" xmlns:xlink="http://www.w3.org/1999/xlink" width="1920" height="1080" viewBox="0 0 1920 1080">
<defs>
<clipPath id="clip-0">
<path clip-rule="nonzero" d="M 573.046875 468.820312 L 685.523438 468.820312 L 685.523438 865.535156 L 573.046875 865.535156 Z M 573.046875 468.820312 "/>
</clipPath>
<clipPath id="clip-1">
<path clip-rule="nonzero" d="M 554.242188 677.28125 L 580.921875 677.28125 L 580.921875 867.351562 L 554.242188 867.351562 Z M 554.242188 677.28125 "/>
</clipPath>
<clipPath id="clip-2">
<path clip-rule="nonzero" d="M 539.707031 517.222656 L 604.332031 517.222656 L 604.332031 648.90625 L 539.707031 648.90625 Z M 539.707031 517.222656 "/>
</clipPath>
<clipPath id="clip-3">
<path clip-rule="nonzero" d="M 598.992188 519.074219 L 732.960938 519.074219 L 732.960938 643.617188 L 598.992188 643.617188 Z M 598.992188 519.074219 "/>
</clipPath>
<clipPath id="clip-4">
<path clip-rule="nonzero" d="M 512.800781 282.226562 L 700.570312 282.226562 L 700.570312 477.191406 L 512.800781 477.191406 Z M 512.800781 282.226562 "/>
</clipPath>
<clipPath id="clip-5">
<path clip-rule="nonzero" d="M 580.5 405.253906 L 668.097656 405.253906 L 668.097656 416.746094 L 580.5 416.746094 Z M 580.5 405.253906 "/>
</clipPath>
<clipPath id="clip-6">
<path clip-rule="nonzero" d="M 630.457031 324.027344 L 675.4375 324.027344 L 675.4375 362.710938 L 630.457031 362.710938 Z M 630.457031 324.027344 "/>
</clipPath>
<clipPath id="clip-7">
<path clip-rule="nonzero" d="M 570.988281 325.027344 L 618.191406 325.027344 L 618.191406 363.824219 L 570.988281 363.824219 Z M 570.988281 325.027344 "/>
</clipPath>
<clipPath id="clip-8">
<path clip-rule="nonzero" d="M 637.015625 314.039062 L 661.160156 314.039062 L 661.160156 324.492188 L 637.015625 324.492188 Z M 637.015625 314.039062 "/>
</clipPath>
<clipPath id="clip-9">
<path clip-rule="nonzero" d="M 584.703125 310.925781 L 610.046875 310.925781 L 610.046875 320.378906 L 584.703125 320.378906 Z M 584.703125 310.925781 "/>
</clipPath>
<clipPath id="clip-10">
<path clip-rule="nonzero" d="M 545 516 L 778 516 L 778 721 L 545 721 Z M 545 516 "/>
</clipPath>
<clipPath id="clip-11">
<path clip-rule="nonzero" d="M 538.949219 540.15625 L 608.230469 487.230469 L 777.347656 708.597656 L 708.066406 761.527344 Z M 538.949219 540.15625 "/>
</clipPath>
<clipPath id="clip-12">
<path clip-rule="nonzero" d="M 620 654 L 712 654 L 712 772 L 620 772 Z M 620 654 "/>
</clipPath>
<clipPath id="clip-13">
<path clip-rule="nonzero" d="M 617.890625 665.667969 L 632.921875 654.1875 L 714.054688 760.390625 L 699.027344 771.871094 Z M 617.890625 665.667969 "/>
</clipPath>
<clipPath id="clip-14">
<path clip-rule="nonzero" d="M 553 553 L 608 553 L 608 658 L 553 658 Z M 553 553 "/>
</clipPath>
<clipPath id="clip-15">
<path clip-rule="nonzero" d="M 538.773438 583.808594 L 578.117188 553.753906 L 634.066406 626.992188 L 594.726562 657.046875 Z M 538.773438 583.808594 "/>
</clipPath>
<clipPath id="clip-16">
<path clip-rule="nonzero" d="M 576 514 L 713 514 L 713 574 L 576 574 Z M 576 514 "/>
</clipPath>
<clipPath id="clip-17">
<path clip-rule="nonzero" d="M 576.507812 556.988281 L 660.269531 492.996094 L 712.824219 561.785156 L 629.058594 625.777344 Z M 576.507812 556.988281 "/>
</clipPath>
<clipPath id="clip-18">
<path clip-rule="nonzero" d="M 450 405 L 593 405 L 593 545 L 450 545 Z M 450 405 "/>
</clipPath>
<clipPath id="clip-19">
<path clip-rule="nonzero" d="M 539.351562 374.691406 L 419.800781 466.023438 L 503.515625 575.601562 L 623.0625 484.269531 Z M 539.351562 374.691406 "/>
</clipPath>
<clipPath id="clip-20">
<path clip-rule="nonzero" d="M 439 394 L 604 394 L 604 556 L 439 556 Z M 439 394 "/>
</clipPath>
<clipPath id="clip-21">
<path clip-rule="nonzero" d="M 539.351562 374.691406 L 419.800781 466.023438 L 503.515625 575.601562 L 623.0625 484.269531 Z M 539.351562 374.691406 "/>
</clipPath>
<clipPath id="clip-22">
<path clip-rule="nonzero" d="M 515 459 L 577 459 L 577 510 L 515 510 Z M 515 459 "/>
</clipPath>
<clipPath id="clip-23">
<path clip-rule="nonzero" d="M 571.054688 459.050781 L 515.210938 501.710938 L 520.816406 509.046875 L 576.660156 466.386719 Z M 571.054688 459.050781 "/>
</clipPath>
<clipPath id="clip-24">
<path clip-rule="nonzero" d="M 512 410 L 559 410 L 559 455 L 512 455 Z M 512 410 "/>
</clipPath>
<clipPath id="clip-25">
<path clip-rule="nonzero" d="M 541.226562 410.144531 L 512.097656 432.394531 L 529.289062 454.898438 L 558.417969 432.644531 Z M 541.226562 410.144531 "/>
</clipPath>
<clipPath id="clip-26">
<path clip-rule="nonzero" d="M 474 438 L 523 438 L 523 485 L 474 485 Z M 474 438 "/>
</clipPath>
<clipPath id="clip-27">
<path clip-rule="nonzero" d="M 505.402344 438.390625 L 474.867188 461.71875 L 492.105469 484.285156 L 522.644531 460.957031 Z M 505.402344 438.390625 "/>
</clipPath>
<clipPath id="clip-28">
<path clip-rule="nonzero" d="M 512 411 L 533 411 L 533 431 L 512 431 Z M 512 411 "/>
</clipPath>
<clipPath id="clip-29">
<path clip-rule="nonzero" d="M 527.773438 411.605469 L 512.113281 423.570312 L 517.277344 430.328125 L 532.9375 418.363281 Z M 527.773438 411.605469 "/>
</clipPath>
<clipPath id="clip-30">
<path clip-rule="nonzero" d="M 477 434 L 499 434 L 499 454 L 477 454 Z M 477 434 "/>
</clipPath>
<clipPath id="clip-31">
<path clip-rule="nonzero" d="M 494.109375 434.582031 L 477.703125 447.113281 L 482.449219 453.324219 L 498.855469 440.792969 Z M 494.109375 434.582031 "/>
</clipPath>
</defs>
<rect x="-192" y="-108" width="2304" height="1296" fill="rgb(100%, 100%, 100%)" fill-opacity="1"/>
<path fill="none" stroke-width="5" stroke-linecap="butt" stroke-linejoin="miter" stroke="rgb(0%, 0%, 0%)" stroke-opacity="1" stroke-miterlimit="4" d="M 0.001343 0.000625 L 1916.032593 0.000625 L 1916.032593 1075.719375 L 0.001343 1075.719375 Z M 0.001343 0.000625 " transform="matrix(1, 0, 0, 1, 1.983032, 2.14)"/>
<g clip-path="url(#clip-0)">
<path fill="none" stroke-width="6" stroke-linecap="butt" stroke-linejoin="miter" stroke="rgb(0%, 0%, 0%)" stroke-opacity="1" stroke-miterlimit="4" d="M 24.009081 -0.00083125 L 0.00126875 206.307762 L 97.2083 277.436669 L 104.298144 394.182762 " transform="matrix(1, 0, 0, 1, 577.2292, 470.1688)"/>
</g>
<g clip-path="url(#clip-1)">
<path fill="none" stroke-width="6" stroke-linecap="butt" stroke-linejoin="miter" stroke="rgb(0%, 0%, 0%)" stroke-opacity="1" stroke-miterlimit="4" d="M 18.754694 -0.00160625 L 0.266413 82.670269 L 0.0007875 187.40855 " transform="matrix(1, 0, 0, 1, 558.2414, 678.9352)"/>
</g>
<g clip-path="url(#clip-2)">
<path fill="none" stroke-width="6" stroke-linecap="butt" stroke-linejoin="miter" stroke="rgb(0%, 0%, 0%)" stroke-opacity="1" stroke-miterlimit="4" d="M 57.557325 0.0003375 L 0.279981 54.449556 L -0.00126875 127.496431 " transform="matrix(1, 0, 0, 1, 543.7083, 520.3981)"/>
</g>
<g clip-path="url(#clip-3)">
<path fill="none" stroke-width="6" stroke-linecap="butt" stroke-linejoin="miter" stroke="rgb(0%, 0%, 0%)" stroke-opacity="1" stroke-miterlimit="4" d="M 0.0019125 0.0012375 L 99.376913 28.411394 L 128.283163 118.743425 " transform="matrix(1, 0, 0, 1, 600.8184, 522.9597)"/>
</g>
<path fill-rule="nonzero" fill="rgb(100%, 100%, 100%)" fill-opacity="1" d="M 541.710938 312.191406 C 505.828125 349.480469 505.828125 409.9375 541.710938 447.226562 C 577.597656 484.515625 635.773438 484.515625 671.65625 447.226562 C 707.542969 409.9375 707.542969 349.480469 671.65625 312.191406 C 635.773438 274.902344 577.597656 274.902344 541.710938 312.191406 Z M 541.710938 312.191406 "/>
<g clip-path="url(#clip-4)">
<path fill="none" stroke-width="2" stroke-linecap="butt" stroke-linejoin="miter" stroke="rgb(0%, 0%, 0%)" stroke-opacity="1" stroke-miterlimit="4" d="M 156.859763 27.965606 C 192.742575 65.254669 192.742575 125.7117 156.859763 163.000763 C 120.973044 200.289825 62.797263 200.289825 26.91445 163.000763 C -8.972269 125.7117 -8.972269 65.254669 26.91445 27.965606 C 62.797263 -9.323456 120.973044 -9.323456 156.859763 27.965606 Z M 156.859763 27.965606 " transform="matrix(-1, 0, 0, 1, 698.5707, 284.2258)"/>
</g>
<g clip-path="url(#clip-5)">
<path fill="none" stroke-width="2" stroke-linecap="butt" stroke-linejoin="miter" stroke="rgb(0%, 0%, 0%)" stroke-opacity="1" stroke-miterlimit="4" d="M 0.00193125 0.00144375 C 1.728494 1.142069 3.685525 1.888162 5.736306 2.188944 C 7.443337 2.438944 9.177712 2.368631 10.900369 2.435037 C 14.927712 2.587381 18.884744 3.462381 22.865212 4.095194 C 26.9824 4.747537 31.13865 5.134256 35.279275 5.5991 C 41.755837 6.325662 48.212869 7.239725 54.720681 7.532694 C 59.880837 7.767069 65.048806 7.610819 70.212869 7.532694 C 75.150369 7.458475 80.091775 7.458475 85.029275 7.532694 " transform="matrix(-1, 0, 0, 1, 666.5449, 407.0884)"/>
</g>
<g clip-path="url(#clip-6)">
<path fill="none" stroke-width="2" stroke-linecap="butt" stroke-linejoin="miter" stroke="rgb(0%, 0%, 0%)" stroke-opacity="1" stroke-miterlimit="4" d="M 14.346756 0.143775 C 11.362381 -0.360131 8.327225 0.475806 5.854569 2.479713 C 3.112381 4.702369 1.307694 8.124244 0.491287 11.901588 C -0.368088 15.87815 -0.106369 20.077369 1.338944 23.811744 C 3.354569 29.010963 7.389725 32.729713 12.147537 34.06565 C 15.807694 35.092994 19.604569 34.620338 23.346756 34.194556 C 28.335037 33.624244 33.616287 32.948463 37.081131 28.7219 C 39.295975 26.018775 40.276444 22.342994 40.7491 18.647681 C 41.088944 16.014869 41.170975 13.268775 40.174881 10.874244 C 38.327225 6.44065 33.889725 4.975806 29.721756 3.9094 C 24.608475 2.600806 19.483475 1.342994 14.346756 0.143775 Z M 14.346756 0.143775 " transform="matrix(-1, 0, 0, 1, 673.4366, 326.0281)"/>
</g>
<g clip-path="url(#clip-7)">
<path fill="none" stroke-width="2" stroke-linecap="butt" stroke-linejoin="miter" stroke="rgb(0%, 0%, 0%)" stroke-opacity="1" stroke-miterlimit="4" d="M 32.716638 3.559638 C 28.3807 0.727606 23.165856 -0.334894 18.001794 0.0908875 C 14.138513 0.4112 10.365075 1.563544 7.208825 3.81745 C 2.595544 7.118231 -0.220862 12.426825 0.0135125 18.083075 C 0.208825 22.81745 2.552575 27.184638 6.2557 30.145575 C 10.0682 33.19245 14.915856 34.465888 19.78695 34.739325 C 25.103356 35.040106 30.439294 34.180731 35.275231 31.950263 C 38.5057 30.454169 41.521325 28.25495 42.689294 24.903388 C 43.654138 22.145575 43.1307 19.165106 42.197106 16.395575 C 40.447106 11.211981 37.294763 6.551825 32.716638 3.559638 Z M 32.716638 3.559638 " transform="matrix(-1, 0, 0, 1, 616.1932, 327.0263)"/>
</g>
<g clip-path="url(#clip-8)">
<path fill="none" stroke-width="2" stroke-linecap="butt" stroke-linejoin="miter" stroke="rgb(0%, 0%, 0%)" stroke-opacity="1" stroke-miterlimit="4" d="M 0.000275 0.0060625 C 3.804962 0.076375 7.582306 0.674031 11.222931 1.787312 C 14.883087 2.908406 18.371369 4.533406 21.5784 6.619344 " transform="matrix(-1, 0, 0, 1, 660.1409, 316.033)"/>
</g>
<g clip-path="url(#clip-9)">
<path fill="none" stroke-width="2" stroke-linecap="butt" stroke-linejoin="miter" stroke="rgb(0%, 0%, 0%)" stroke-opacity="1" stroke-miterlimit="4" d="M 0.00175625 5.515794 C 4.271287 4.015794 8.658006 2.757981 13.126756 1.757981 C 16.3416 1.039231 19.595506 0.453294 22.876756 0.00016875 " transform="matrix(-1, 0, 0, 1, 608.7166, 312.9178)"/>
</g>
<g clip-path="url(#clip-10)">
<g clip-path="url(#clip-11)">
<path fill="none" stroke-width="2" stroke-linecap="butt" stroke-linejoin="miter" stroke="rgb(0%, 0%, 0%)" stroke-opacity="1" stroke-miterlimit="4" d="M 19.129057 -0.0000352502 L 0.000190829 144.650762 L 77.46303 194.523698 L 83.112708 276.375493 " transform="matrix(0.794644, -0.607075, 0.607075, 0.794644, 541.2836, 539.7964)"/>
</g>
</g>
<g clip-path="url(#clip-12)">
<g clip-path="url(#clip-13)">
<path fill="none" stroke-width="2" stroke-linecap="butt" stroke-linejoin="miter" stroke="rgb(0%, 0%, 0%)" stroke-opacity="1" stroke-miterlimit="4" d="M 14.944884 -0.000800459 L 0.211992 57.962154 L 0.000954007 131.39911 " transform="matrix(0.794644, -0.607075, 0.607075, 0.794644, 620.2379, 665.4444)"/>
</g>
</g>
<g clip-path="url(#clip-14)">
<g clip-path="url(#clip-15)">
<path fill="none" stroke-width="2" stroke-linecap="butt" stroke-linejoin="miter" stroke="rgb(0%, 0%, 0%)" stroke-opacity="1" stroke-miterlimit="4" d="M 45.869173 0.000233705 L 0.219999 38.178693 L 0.000668932 89.39517 " transform="matrix(0.794644, -0.607075, 0.607075, 0.794644, 541.4369, 583.9982)"/>
</g>
</g>
<g clip-path="url(#clip-16)">
<g clip-path="url(#clip-17)">
<path fill="none" stroke-width="2" stroke-linecap="butt" stroke-linejoin="miter" stroke="rgb(0%, 0%, 0%)" stroke-opacity="1" stroke-miterlimit="4" d="M 0.000744197 -0.000469665 L 79.190395 19.917861 L 102.226904 83.257585 " transform="matrix(0.794644, -0.607075, 0.607075, 0.794644, 578.6911, 557.7977)"/>
</g>
</g>
<g clip-path="url(#clip-18)">
<g clip-path="url(#clip-19)">
<path fill-rule="nonzero" fill="rgb(100%, 100%, 100%)" fill-opacity="1" d="M 451.550781 468.960938 C 444.699219 507.09375 470.433594 540.777344 509.027344 544.195312 C 547.621094 547.613281 584.460938 519.46875 591.3125 481.332031 C 598.164062 443.199219 572.429688 409.515625 533.835938 406.097656 C 495.242188 402.679688 458.402344 430.824219 451.550781 468.960938 Z M 451.550781 468.960938 "/>
</g>
</g>
<g clip-path="url(#clip-20)">
<g clip-path="url(#clip-21)">
<path fill="none" stroke-width="2" stroke-linecap="butt" stroke-linejoin="miter" stroke="rgb(0%, 0%, 0%)" stroke-opacity="1" stroke-miterlimit="4" d="M 124.997138 19.608349 C 153.591182 45.750957 153.589985 88.140137 124.996646 114.285519 C 96.403306 140.430901 50.042884 140.430569 21.446468 114.284857 C -7.147576 88.142249 -7.146379 45.753069 21.44696 19.607687 C 50.0403 -6.537696 96.400722 -6.537363 124.997138 19.608349 Z M 124.997138 19.608349 " transform="matrix(-0.794644, 0.607075, 0.607075, 0.794644, 538.9753, 377.4966)"/>
</g>
</g>
<g clip-path="url(#clip-22)">
<g clip-path="url(#clip-23)">
<path fill="none" stroke-width="2" stroke-linecap="butt" stroke-linejoin="miter" stroke="rgb(0%, 0%, 0%)" stroke-opacity="1" stroke-miterlimit="4" d="M -0.00187365 -0.000825906 C 1.376376 0.799475 2.938924 1.326256 4.572079 1.533647 C 5.930728 1.709879 7.313941 1.660884 8.684699 1.704972 C 11.897491 1.811623 15.047617 2.428226 18.22119 2.869613 C 21.501168 3.328026 24.811534 3.601005 28.112201 3.925635 C 33.274739 4.435313 38.419693 5.076403 43.606103 5.282732 C 47.717084 5.445478 51.83659 5.336262 55.948768 5.281801 C 59.887544 5.232004 63.82283 5.229115 67.756264 5.281713 " transform="matrix(-0.794644, 0.607075, 0.607075, 0.794644, 570.9912, 461.4432)"/>
</g>
</g>
<g clip-path="url(#clip-24)">
<g clip-path="url(#clip-25)">
<path fill="none" stroke-width="2" stroke-linecap="butt" stroke-linejoin="miter" stroke="rgb(0%, 0%, 0%)" stroke-opacity="1" stroke-miterlimit="4" d="M 11.431355 0.0989759 C 9.053923 -0.252598 6.637169 0.335277 4.662841 1.740352 C 2.4789 3.29573 1.040001 5.697656 0.39005 8.347278 C -0.294645 11.131588 -0.0841207 14.077492 1.06493 16.694743 C 2.669997 20.340018 5.887814 22.949849 9.678278 23.883438 C 12.594173 24.605248 15.620264 24.274476 18.600525 23.973799 C 22.577614 23.575211 26.787642 23.101897 29.54739 20.138228 C 31.314233 18.242788 32.093744 15.666238 32.471522 13.072159 C 32.74034 11.229857 32.808419 9.304958 32.010656 7.62369 C 30.540041 4.514742 27.007349 3.487456 23.684977 2.741908 C 19.607937 1.825706 15.523396 0.944729 11.431355 0.0989759 Z M 11.431355 0.0989759 " transform="matrix(-0.794644, 0.607075, 0.607075, 0.794644, 540.8519, 412.9465)"/>
</g>
</g>
<g clip-path="url(#clip-26)">
<g clip-path="url(#clip-27)">
<path fill="none" stroke-width="2" stroke-linecap="butt" stroke-linejoin="miter" stroke="rgb(0%, 0%, 0%)" stroke-opacity="1" stroke-miterlimit="4" d="M 26.07201 2.499029 C 22.615155 0.509313 18.459181 -0.233525 14.345245 0.0631489 C 11.266638 0.28657 8.257297 1.096118 5.746987 2.674706 C 2.068157 4.988692 -0.174668 8.712647 0.0105508 12.680691 C 0.165777 15.998194 2.032862 19.059872 4.984989 21.13532 C 8.023604 23.272503 11.886369 24.165605 15.767901 24.356169 C 20.003525 24.566248 24.255411 23.967557 28.107289 22.401284 C 30.683242 21.352603 33.088399 19.810106 34.018386 17.462699 C 34.78719 15.528457 34.370189 13.438325 33.627126 11.494061 C 32.229221 7.862572 29.721199 4.592511 26.07201 2.499029 Z M 26.07201 2.499029 " transform="matrix(-0.794644, 0.607075, 0.607075, 0.794644, 505.029, 441.1943)"/>
</g>
</g>
<g clip-path="url(#clip-28)">
<g clip-path="url(#clip-29)">
<path fill="none" stroke-width="2" stroke-linecap="butt" stroke-linejoin="miter" stroke="rgb(0%, 0%, 0%)" stroke-opacity="1" stroke-miterlimit="4" d="M 0.001501 -0.00102086 C 3.032523 0.0478661 6.044203 0.470377 8.944192 1.24858 C 11.859874 2.034457 14.638858 3.175467 17.196468 4.637986 " transform="matrix(-0.794644, 0.607075, 0.607075, 0.794644, 528.1815, 413.8124)"/>
</g>
</g>
<g clip-path="url(#clip-30)">
<g clip-path="url(#clip-31)">
<path fill="none" stroke-width="2" stroke-linecap="butt" stroke-linejoin="miter" stroke="rgb(0%, 0%, 0%)" stroke-opacity="1" stroke-miterlimit="4" d="M 0.0000808178 3.866873 C 3.40416 2.81475 6.899604 1.933698 10.459943 1.234108 C 13.02195 0.726979 15.612934 0.31569 18.227418 -0.000491433 " transform="matrix(-0.794644, 0.607075, 0.607075, 0.794644, 494.2893, 436.9506)"/>
</g>
</g>
<path fill-rule="nonzero" fill="rgb(100%, 100%, 100%)" fill-opacity="1" stroke-width="2" stroke-linecap="butt" stroke-linejoin="miter" stroke="rgb(0%, 0%, 0%)" stroke-opacity="1" stroke-miterlimit="4" d="M 9.1467 -0.00148125 L -0.0017375 123.088363 L 96.627169 124.721175 L 108.064669 4.760238 Z M 9.1467 -0.00148125 " transform="matrix(1, 0, 0, 1, 554.7283, 535.3257)"/>
<path fill="none" stroke-width="2" stroke-linecap="butt" stroke-linejoin="miter" stroke="rgb(0%, 0%, 0%)" stroke-opacity="1" stroke-miterlimit="4" d="M 0.001025 -0.00024375 L 407.098681 -0.00024375 L 407.098681 411.327881 L 0.001025 411.327881 Z M 0.001025 -0.00024375 " transform="matrix(1, 0, 0, 1, 811.9521, 127.2229)"/>
<path fill="none" stroke-width="2" stroke-linecap="butt" stroke-linejoin="miter" stroke="rgb(0%, 37.646484%, 0%)" stroke-opacity="1" stroke-miterlimit="4" d="M 0.000625 0.00056875 L 5.656875 238.340412 " transform="matrix(1, 0, 0, 1, 1051.265, 278.1049)"/>
<path fill="none" stroke-width="2" stroke-linecap="butt" stroke-linejoin="miter" stroke="rgb(0%, 37.646484%, 0%)" stroke-opacity="1" stroke-miterlimit="4" d="M 0.00139375 0.00063125 L 107.540456 0.00063125 " transform="matrix(1, 0, 0, 1, 999.3072, 387.8314)"/>
<path fill="none" stroke-width="2" stroke-linecap="butt" stroke-linejoin="miter" stroke="rgb(0%, 37.646484%, 0%)" stroke-opacity="1" stroke-miterlimit="4" d="M 0.001375 0.00184375 L 65.427156 0.00184375 " transform="matrix(1, 0, 0, 1, 1018.358, 326.4005)"/>
<path fill="none" stroke-width="2" stroke-linecap="butt" stroke-linejoin="miter" stroke="rgb(0%, 37.646484%, 0%)" stroke-opacity="1" stroke-miterlimit="4" d="M -0.000875 -0.00129375 L 85.737406 -0.00129375 " transform="matrix(1, 0, 0, 1, 1008.204, 357.6927)"/>
<path fill="none" stroke-width="2" stroke-linecap="butt" stroke-linejoin="miter" stroke="rgb(0%, 37.646484%, 0%)" stroke-opacity="1" stroke-miterlimit="4" d="M -0.000253048 0.372932 L 39.39597 -0.0016864 " transform="matrix(0.999766, -0.0216273, 0.0216273, 0.999766, 1031.375, 302.5334)"/>
<path fill="none" stroke-width="2" stroke-linecap="butt" stroke-linejoin="miter" stroke="rgb(0%, 37.646484%, 0%)" stroke-opacity="1" stroke-miterlimit="4" d="M 0.00035 0.00004375 L 130.090194 0.00004375 " transform="matrix(1, 0, 0, 1, 988.0309, 420.2773)"/>
<path fill="none" stroke-width="2" stroke-linecap="butt" stroke-linejoin="miter" stroke="rgb(0%, 37.646484%, 0%)" stroke-opacity="1" stroke-miterlimit="4" d="M 0.0001375 -0.0019375 L 155.855606 -0.0019375 " transform="matrix(1, 0, 0, 1, 975.1483, 450.416)"/>
<path fill="none" stroke-width="2" stroke-linecap="butt" stroke-linejoin="miter" stroke="rgb(0%, 37.646484%, 0%)" stroke-opacity="1" stroke-miterlimit="4" d="M 0.00051875 0.00128125 L 177.996612 0.00128125 " transform="matrix(1, 0, 0, 1, 962.0737, 482.862)"/>
</svg>
