<?xml version="1.0" encoding="UTF-8"?>
<svg xmlns="http://www.w3.org/2000/svg" xmlns:xlink="http://www.w3.org/1999/xlink" width="1920" height="1080" viewBox="0 0 1920 1080">
<defs>
<clipPath id="clip-0">
<path clip-rule="nonzero" d="M 527 936 L 569 936 L 569 1080 L 527 1080 Z M 527 936 "/>
</clipPath>
<clipPath id="clip-1">
<path clip-rule="nonzero" d="M 398.226562 967.453125 L 559.164062 936.171875 L 697.847656 1649.632812 L 536.910156 1680.914062 Z M 398.226562 967.453125 "/>
</clipPath>
<clipPath id="clip-2">
<path clip-rule="nonzero" d="M 466 784 L 563 784 L 563 954 L 466 954 Z M 466 784 "/>
</clipPath>
<clipPath id="clip-3">
<path clip-rule="nonzero" d="M 466.234375 797.53125 L 531.988281 784.75 L 562.84375 943.492188 L 497.089844 956.273438 Z M 466.234375 797.53125 "/>
</clipPath>
<clipPath id="clip-4">
<path clip-rule="nonzero" d="M 548 777 L 574 777 L 574 943 L 548 943 Z M 548 777 "/>
</clipPath>
<clipPath id="clip-5">
<path clip-rule="nonzero" d="M 527.847656 784.390625 L 564.101562 777.34375 L 594.753906 935.019531 L 558.496094 942.066406 Z M 527.847656 784.390625 "/>
</clipPath>
<clipPath id="clip-6">
<path clip-rule="nonzero" d="M 553 780 L 612 780 L 612 937 L 553 937 Z M 553 780 "/>
</clipPath>
<clipPath id="clip-7">
<path clip-rule="nonzero" d="M 535.667969 793.222656 L 602.285156 780.277344 L 630.066406 923.195312 L 563.449219 936.144531 Z M 535.667969 793.222656 "/>
</clipPath>
<clipPath id="clip-8">
<path clip-rule="nonzero" d="M 554 902 L 624 902 L 624 937 L 554 937 Z M 554 902 "/>
</clipPath>
<clipPath id="clip-9">
<path clip-rule="nonzero" d="M 554.664062 914.9375 L 619.730469 902.289062 L 623.855469 923.503906 L 558.789062 936.148438 Z M 554.664062 914.9375 "/>
</clipPath>
<clipPath id="clip-10">
<path clip-rule="nonzero" d="M 1144 819 L 1319 819 L 1319 1080 L 1144 1080 Z M 1144 819 "/>
</clipPath>
<clipPath id="clip-11">
<path clip-rule="nonzero" d="M 1247.105469 816.980469 L 1318.78125 829.621094 L 1215.699219 1414.222656 L 1144.023438 1401.582031 Z M 1247.105469 816.980469 "/>
</clipPath>
<clipPath id="clip-12">
<path clip-rule="nonzero" d="M 1255 654 L 1328 654 L 1328 835 L 1255 835 Z M 1255 654 "/>
</clipPath>
<clipPath id="clip-13">
<path clip-rule="nonzero" d="M 1284.800781 654.695312 L 1348.28125 665.886719 L 1318.554688 834.492188 L 1255.070312 823.300781 Z M 1284.800781 654.695312 "/>
</clipPath>
<clipPath id="clip-14">
<path clip-rule="nonzero" d="M 1314 674 L 1377 674 L 1377 834 L 1314 834 Z M 1314 674 "/>
</clipPath>
<clipPath id="clip-15">
<path clip-rule="nonzero" d="M 1341.242188 674.382812 L 1376.578125 680.613281 L 1349.535156 833.980469 L 1314.199219 827.75 Z M 1341.242188 674.382812 "/>
</clipPath>
<clipPath id="clip-16">
<path clip-rule="nonzero" d="M 1315 691 L 1404 691 L 1404 842 L 1315 842 Z M 1315 691 "/>
</clipPath>
<clipPath id="clip-17">
<path clip-rule="nonzero" d="M 1340.5625 690.242188 L 1403.3125 701.308594 L 1378.496094 842.0625 L 1315.742188 830.996094 Z M 1340.5625 690.242188 "/>
</clipPath>
<clipPath id="clip-18">
<path clip-rule="nonzero" d="M 1316 712 L 1444 712 L 1444 842 L 1316 842 Z M 1316 712 "/>
</clipPath>
<clipPath id="clip-19">
<path clip-rule="nonzero" d="M 1338.671875 704.414062 L 1443.832031 722.957031 L 1421.507812 849.570312 L 1316.347656 831.027344 Z M 1338.671875 704.414062 "/>
</clipPath>
</defs>
<rect x="-192" y="-108" width="2304" height="1296" fill="rgb(100%, 100%, 100%)" fill-opacity="1"/>
<path fill="none" stroke-width="5" stroke-linecap="butt" stroke-linejoin="miter" stroke="rgb(0%, 0%, 0%)" stroke-opacity="1" stroke-miterlimit="4" d="M 0.001343 0.000625 L 1916.032593 0.000625 L 1916.032593 1075.719375 L 0.001343 1075.719375 Z M 0.001343 0.000625 " transform="matrix(1, 0, 0, 1, 1.983032, 2.14)"/>
<path fill="none" stroke-width="2" stroke-linecap="butt" stroke-linejoin="miter" stroke="rgb(0%, 0%, 0%)" stroke-opacity="1" stroke-miterlimit="4" d="M -0.00175 678.480319 C 12.857625 640.386569 24.400594 601.847506 34.607625 562.93735 C 47.080281 515.398287 57.556844 467.300631 64.638875 418.699069 C 72.209188 366.753756 75.881063 314.417819 82.420125 262.253756 C 89.177938 208.31235 99.025594 154.730319 108.927938 101.308444 C 115.217 67.382662 121.513875 33.581881 127.931844 -0.00015 C 176.384969 1.269381 224.818563 3.003756 273.252156 5.206881 C 371.732625 9.679537 470.217 16.081881 568.752156 18.011569 C 650.388875 19.609225 732.068562 18.136569 813.744344 18.56235 C 914.006062 19.085787 1014.224812 22.464694 1114.459188 23.234225 C 1211.201375 23.980319 1307.93575 22.296725 1404.677938 21.702975 C 1464.002156 21.339694 1523.326375 21.382662 1582.650594 21.835787 C 1574.213094 78.027194 1567.232625 134.386569 1561.666219 190.785006 C 1555.849813 249.738131 1551.564656 308.675631 1546.724813 367.730319 C 1540.693563 441.359225 1533.756063 515.105319 1524.142781 588.56235 C 1517.299031 640.847506 1509.103719 692.945162 1499.56075 744.804537 C 1291.638875 732.671725 1083.693563 725.265475 875.677937 722.617037 C 773.107625 721.31235 670.494344 721.160006 568.041219 715.972506 C 493.384969 712.191256 418.861531 705.738131 344.314656 700.003756 C 268.033406 694.132662 191.740438 689.023287 115.314656 684.601412 C 76.931844 682.378756 38.502156 680.331881 -0.00175 678.480319 Z M -0.00175 678.480319 " transform="matrix(1, 0, 0, 1, 140.5955, 535.8439)"/>
<path fill="none" stroke-width="2" stroke-linecap="butt" stroke-linejoin="miter" stroke="rgb(0%, 0%, 0%)" stroke-opacity="1" stroke-miterlimit="4" d="M 0.001725 89.477025 L 15.603288 0.0004625 L 103.224381 4.309056 L 91.708756 74.7114 Z M 0.001725 89.477025 " transform="matrix(1, 0, 0, 1, 283.0764, 575.1636)"/>
<path fill="none" stroke-width="2" stroke-linecap="butt" stroke-linejoin="miter" stroke="rgb(0%, 0%, 0%)" stroke-opacity="1" stroke-miterlimit="4" d="M -0.00145625 83.675781 L 14.107919 0 L 125.885263 5.589844 L 113.107919 93.941406 Z M -0.00145625 83.675781 " transform="matrix(1, 0, 0, 1, 420.8413, 588.25)"/>
<path fill="none" stroke-width="2" stroke-linecap="butt" stroke-linejoin="miter" stroke="rgb(0%, 0%, 0%)" stroke-opacity="1" stroke-miterlimit="4" d="M 0.00026875 85.127656 L 12.754175 -0.00125 L 107.609644 3.713594 L 98.347925 93.619844 Z M 0.00026875 85.127656 " transform="matrix(1, 0, 0, 1, 573.6677, 600.7825)"/>
<path fill="none" stroke-width="2" stroke-linecap="butt" stroke-linejoin="miter" stroke="rgb(0%, 0%, 0%)" stroke-opacity="1" stroke-miterlimit="4" d="M 0.0018625 86.244781 L 12.204987 -0.0013125 L 118.353425 1.135406 L 102.165925 93.72525 Z M 0.0018625 86.244781 " transform="matrix(1, 0, 0, 1, 704.7247, 609.431)"/>
<path fill="none" stroke-width="2" stroke-linecap="butt" stroke-linejoin="miter" stroke="rgb(0%, 0%, 0%)" stroke-opacity="1" stroke-miterlimit="4" d="M -0.0014875 84.795094 L 13.471169 0.525562 L 132.549294 -0.00178125 L 121.096169 88.412281 Z M -0.0014875 84.795094 " transform="matrix(1, 0, 0, 1, 847.0718, 616.576)"/>
<path fill="none" stroke-width="2" stroke-linecap="butt" stroke-linejoin="miter" stroke="rgb(0%, 0%, 0%)" stroke-opacity="1" stroke-miterlimit="4" d="M 0.000875 96.715481 L 13.399312 0.957669 L 134.371969 0.0006375 L 119.0165 99.024075 Z M 0.000875 96.715481 " transform="matrix(1, 0, 0, 1, 1014.796, 612.2103)"/>
<path fill="none" stroke-width="2" stroke-linecap="butt" stroke-linejoin="miter" stroke="rgb(0%, 0%, 0%)" stroke-opacity="1" stroke-miterlimit="4" d="M 0.00009375 97.066194 L 8.925875 -0.0002125 L 126.796969 0.597444 L 112.894625 96.659944 Z M 0.00009375 97.066194 " transform="matrix(1, 0, 0, 1, 1187.871, 616.5549)"/>
<path fill="none" stroke-width="2" stroke-linecap="butt" stroke-linejoin="miter" stroke="rgb(0%, 0%, 0%)" stroke-opacity="1" stroke-miterlimit="4" d="M 0.0009375 103.018462 L 9.293906 -0.00106875 L 122.489219 1.545806 L 114.926719 100.32315 Z M 0.0009375 103.018462 " transform="matrix(1, 0, 0, 1, 1352.335, 613.4581)"/>
<path fill="none" stroke-width="2" stroke-linecap="butt" stroke-linejoin="miter" stroke="rgb(0%, 0%, 0%)" stroke-opacity="1" stroke-miterlimit="4" d="M -0.00009375 101.317 L 14.503813 2.09825 L 145.187406 0.00059375 L 129.6835 101.027938 Z M -0.00009375 101.317 " transform="matrix(1, 0, 0, 1, 1525.379, 618.808)"/>
<path fill="none" stroke-width="2" stroke-linecap="butt" stroke-linejoin="miter" stroke="rgb(0%, 0%, 0%)" stroke-opacity="1" stroke-miterlimit="4" d="M -0.001525 92.419062 L 15.049256 0.00109375 L 113.506288 5.610469 L 94.697694 100.419062 Z M -0.001525 92.419062 " transform="matrix(1, 0, 0, 1, 265.7984, 719.0575)"/>
<path fill="none" stroke-width="2" stroke-linecap="butt" stroke-linejoin="miter" stroke="rgb(0%, 0%, 0%)" stroke-opacity="1" stroke-miterlimit="4" d="M -0.0016625 86.19775 L 26.181931 -0.00146875 L 142.627244 5.818844 L 119.580369 88.545406 Z M -0.0016625 86.19775 " transform="matrix(1, 0, 0, 1, 401.9001, 734.8335)"/>
<path fill="none" stroke-width="2" stroke-linecap="butt" stroke-linejoin="miter" stroke="rgb(0%, 0%, 0%)" stroke-opacity="1" stroke-miterlimit="4" d="M 0.00193125 74.6911 L 16.744119 -0.00030625 L 136.244119 3.710631 L 126.677713 89.675475 Z M 0.00193125 74.6911 " transform="matrix(1, 0, 0, 1, 575.9551, 749.4964)"/>
<path fill="none" stroke-width="2" stroke-linecap="butt" stroke-linejoin="miter" stroke="rgb(0%, 0%, 0%)" stroke-opacity="1" stroke-miterlimit="4" d="M 0.000525 84.815169 L 17.367713 -0.0012375 L 151.254431 2.737044 L 145.82865 89.858137 Z M 0.000525 84.815169 " transform="matrix(1, 0, 0, 1, 757.1401, 761.9778)"/>
<path fill="none" stroke-width="2" stroke-linecap="butt" stroke-linejoin="miter" stroke="rgb(0%, 0%, 0%)" stroke-opacity="1" stroke-miterlimit="4" d="M 0.00019375 94.002131 L 10.7541 -0.001775 L 139.582225 3.463069 L 123.863475 98.506038 Z M 0.00019375 94.002131 " transform="matrix(1, 0, 0, 1, 958.6209, 764.9549)"/>
<path fill="none" stroke-width="2" stroke-linecap="butt" stroke-linejoin="miter" stroke="rgb(0%, 0%, 0%)" stroke-opacity="1" stroke-miterlimit="4" d="M 0.0006875 88.99355 L 19.344438 0.0013625 L 171.91475 4.821675 L 160.676469 84.282613 Z M 0.0006875 88.99355 " transform="matrix(1, 0, 0, 1, 1138.054, 771.4752)"/>
<path fill="none" stroke-width="2" stroke-linecap="butt" stroke-linejoin="miter" stroke="rgb(0%, 0%, 0%)" stroke-opacity="1" stroke-miterlimit="4" d="M -0.00040625 89.306869 L 15.581625 -0.001725 L 143.671469 0.541244 L 124.214438 87.814681 Z M -0.00040625 89.306869 " transform="matrix(1, 0, 0, 1, 1365.309, 773.6111)"/>
<path fill="none" stroke-width="2" stroke-linecap="butt" stroke-linejoin="miter" stroke="rgb(0%, 0%, 0%)" stroke-opacity="1" stroke-miterlimit="4" d="M -0.0016875 100.429456 L 20.70925 0.0388312 L 121.373313 -0.00023125 L 107.228781 86.296644 Z M -0.0016875 100.429456 " transform="matrix(1, 0, 0, 1, 1549.697, 770.4807)"/>
<path fill="none" stroke-width="2" stroke-linecap="butt" stroke-linejoin="miter" stroke="rgb(0%, 0%, 0%)" stroke-opacity="1" stroke-miterlimit="4" d="M 18.086044 0.0002 L 0.00010625 98.117387 L 117.449325 102.058794 L 150.6212 12.582231 Z M 18.086044 0.0002 " transform="matrix(1, 0, 0, 1, 250.0663, 884.8748)"/>
<path fill="none" stroke-width="2" stroke-linecap="butt" stroke-linejoin="miter" stroke="rgb(0%, 0%, 0%)" stroke-opacity="1" stroke-miterlimit="4" d="M -0.00075 98.7452 L 15.671125 1.362388 L 146.921125 -0.00089375 L 127.444562 92.854575 Z M -0.00075 98.7452 " transform="matrix(1, 0, 0, 1, 445.657, 901.4423)"/>
<path fill="none" stroke-width="2" stroke-linecap="butt" stroke-linejoin="miter" stroke="rgb(0%, 0%, 0%)" stroke-opacity="1" stroke-miterlimit="4" d="M 0.00005 94.558275 L 15.011769 -0.00031875 L 136.242238 6.913744 L 120.804738 90.687181 Z M 0.00005 94.558275 " transform="matrix(1, 0, 0, 1, 633.6562, 911.0511)"/>
<path fill="none" stroke-width="2" stroke-linecap="butt" stroke-linejoin="miter" stroke="rgb(0%, 0%, 0%)" stroke-opacity="1" stroke-miterlimit="4" d="M 0.0016 89.572894 L 18.169569 0.283831 L 160.278944 -0.001325 L 140.958631 89.318988 Z M 0.0016 89.572894 " transform="matrix(1, 0, 0, 1, 803.9359, 911.2982)"/>
<path fill="none" stroke-width="2" stroke-linecap="butt" stroke-linejoin="miter" stroke="rgb(0%, 0%, 0%)" stroke-opacity="1" stroke-miterlimit="4" d="M 0.001625 90.611269 L 17.075844 0.529238 L 205.126625 0.00189375 L 193.255531 102.59955 Z M 0.001625 90.611269 " transform="matrix(1, 0, 0, 1, 1009.264, 917.7442)"/>
<path fill="none" stroke-width="2" stroke-linecap="butt" stroke-linejoin="miter" stroke="rgb(0%, 0%, 0%)" stroke-opacity="1" stroke-miterlimit="4" d="M -0.00140625 100.111256 L 16.7525 0.00188125 L 164.815 5.697194 L 148.561094 93.845631 Z M -0.00140625 100.111256 " transform="matrix(1, 0, 0, 1, 1268.685, 916.5489)"/>
<path fill="none" stroke-width="2" stroke-linecap="butt" stroke-linejoin="miter" stroke="rgb(0%, 0%, 0%)" stroke-opacity="1" stroke-miterlimit="4" d="M 0.00028125 98.022481 L 9.35575 -0.00095625 L 149.969031 5.573263 L 141.316687 97.975606 Z M 0.00028125 98.022481 " transform="matrix(1, 0, 0, 1, 1488.488, 921.5908)"/>
<path fill="none" stroke-width="2" stroke-linecap="butt" stroke-linejoin="miter" stroke="rgb(0%, 0%, 0%)" stroke-opacity="1" stroke-miterlimit="4" d="M 22.470012 0.00134625 L 0.0012625 89.427128 L 151.012981 101.30994 L 176.380169 5.911503 Z M 22.470012 0.00134625 " transform="matrix(1, 0, 0, 1, 206.1628, 1059.50256)"/>
<path fill="none" stroke-width="2" stroke-linecap="butt" stroke-linejoin="miter" stroke="rgb(0%, 0%, 0%)" stroke-opacity="1" stroke-miterlimit="4" d="M 0.000925 103.671265 L 22.450144 0.768921 L 183.520456 -0.00061025 L 148.805612 115.577515 Z M 0.000925 103.671265 " transform="matrix(1, 0, 0, 1, 399.6397, 1078.449829)"/>
<g clip-path="url(#clip-0)">
<g clip-path="url(#clip-1)">
<path fill="none" stroke-width="2" stroke-linecap="butt" stroke-linejoin="miter" stroke="rgb(0%, 0%, 0%)" stroke-opacity="1" stroke-miterlimit="4" d="M 159.99733 0.00052764 L -0.000620619 724.381956 " transform="matrix(0.981627, -0.190809, 0.190809, 0.981627, 400.3992, 968.2706)"/>
</g>
</g>
<g clip-path="url(#clip-2)">
<g clip-path="url(#clip-3)">
<path fill="none" stroke-width="2" stroke-linecap="butt" stroke-linejoin="miter" stroke="rgb(0%, 0%, 0%)" stroke-opacity="1" stroke-miterlimit="4" d="M 51.607377 -0.000157139 L 63.066948 159.256963 L -0.0000589923 8.818611 " transform="matrix(0.981627, -0.190809, 0.190809, 0.981627, 468.3252, 798.2184)"/>
</g>
</g>
<g clip-path="url(#clip-4)">
<g clip-path="url(#clip-5)">
<path fill="none" stroke-width="2" stroke-linecap="butt" stroke-linejoin="miter" stroke="rgb(0%, 0%, 0%)" stroke-opacity="1" stroke-miterlimit="4" d="M 0.00033954 158.220022 L 32.975757 -0.000392271 " transform="matrix(0.981627, -0.190809, 0.190809, 0.981627, 530.0208, 785.1948)"/>
</g>
</g>
<g clip-path="url(#clip-6)">
<g clip-path="url(#clip-7)">
<path fill="none" stroke-width="2" stroke-linecap="butt" stroke-linejoin="miter" stroke="rgb(0%, 0%, 0%)" stroke-opacity="1" stroke-miterlimit="4" d="M -0.001502 142.774512 L 64.038906 -0.000267736 " transform="matrix(0.981627, -0.190809, 0.190809, 0.981627, 537.8135, 794.2429)"/>
</g>
</g>
<g clip-path="url(#clip-8)">
<g clip-path="url(#clip-9)">
<path fill="none" stroke-width="2" stroke-linecap="butt" stroke-linejoin="miter" stroke="rgb(0%, 0%, 0%)" stroke-opacity="1" stroke-miterlimit="4" d="M 0.00175934 17.683805 L 63.746658 -0.00145948 " transform="matrix(0.981627, -0.190809, 0.190809, 0.981627, 556.2842, 916.6219)"/>
</g>
</g>
<g clip-path="url(#clip-10)">
<g clip-path="url(#clip-11)">
<path fill="none" stroke-width="2" stroke-linecap="butt" stroke-linejoin="miter" stroke="rgb(0%, 0%, 0%)" stroke-opacity="1" stroke-miterlimit="4" d="M 68.794775 -0.00212734 L -0.00157679 591.389716 " transform="matrix(0.984808, 0.173648, -0.173648, 0.984808, 1248.875, 818.4271)"/>
</g>
</g>
<g clip-path="url(#clip-12)">
<g clip-path="url(#clip-13)">
<path fill="none" stroke-width="2" stroke-linecap="butt" stroke-linejoin="miter" stroke="rgb(0%, 0%, 0%)" stroke-opacity="1" stroke-miterlimit="4" d="M 17.608563 0.000290351 L 60.45326 166.995853 L -0.00162665 134.460388 " transform="matrix(0.984808, 0.173648, -0.173648, 0.984808, 1286.034, 656.1803)"/>
</g>
</g>
<g clip-path="url(#clip-14)">
<g clip-path="url(#clip-15)">
<path fill="none" stroke-width="2" stroke-linecap="butt" stroke-linejoin="miter" stroke="rgb(0%, 0%, 0%)" stroke-opacity="1" stroke-miterlimit="4" d="M 31.925735 -0.000935575 L -0.000838564 153.325548 " transform="matrix(0.984808, 0.173648, -0.173648, 0.984808, 1342.981, 675.9102)"/>
</g>
</g>
<g clip-path="url(#clip-16)">
<g clip-path="url(#clip-17)">
<path fill="none" stroke-width="2" stroke-linecap="butt" stroke-linejoin="miter" stroke="rgb(0%, 0%, 0%)" stroke-opacity="1" stroke-miterlimit="4" d="M 59.882563 0.00127632 L -0.0012454 140.138357 " transform="matrix(0.984808, 0.173648, -0.173648, 0.984808, 1342.211, 691.9479)"/>
</g>
</g>
<g clip-path="url(#clip-18)">
<g clip-path="url(#clip-19)">
<path fill="none" stroke-width="2" stroke-linecap="butt" stroke-linejoin="miter" stroke="rgb(0%, 0%, 0%)" stroke-opacity="1" stroke-miterlimit="4" d="M 103.239828 -0.00172403 L -0.000900122 125.294207 " transform="matrix(0.984808, 0.173648, -0.173648, 0.984808, 1340.133, 706.3321)"/>
</g>
</g>
<path fill="none" stroke-width="2" stroke-linecap="butt" stroke-linejoin="miter" stroke="rgb(0%, 0%, 0%)" stroke-opacity="1" stroke-miterlimit="4" d="M -0.00134875 1502.644113 L 258.557245 -0.00041875 L 1861.330682 4.144113 L 1668.897089 1378.882394 " transform="matrix(1, 0, 0, 1, 26.92713, 86.2387)"/>
<path fill="none" stroke-width="2" stroke-linecap="butt" stroke-linejoin="miter" stroke="rgb(0%, 0%, 0%)" stroke-opacity="1" stroke-miterlimit="4" d="M 0.08225 301.043413 L 37.601781 13.199663 C 38.156469 8.230913 41.164281 3.875444 45.6135 1.5981 C 48.570531 0.0863813 51.953344 -0.37065 55.20725 0.305131 L 245.433812 2.203569 C 249.281469 2.875444 252.640844 5.203569 254.617406 8.570756 C 256.953344 12.547319 257.086156 17.44185 254.972875 21.539506 C 245.539281 113.883256 234.929906 206.102006 223.14475 298.172319 C 222.574437 302.637163 221.808812 307.367631 218.320531 310.19185 C 214.8635 312.988725 210.129125 312.773881 205.687719 312.50435 C 175.500219 310.672319 145.195531 312.148881 115.047094 313.445756 C 84.441625 314.762163 53.902562 315.898881 23.20725 316.672319 C 16.422094 316.840288 9.195531 316.766069 4.226781 312.172319 C 1.156469 309.332475 -0.382594 305.199663 0.08225 301.043413 Z M 0.08225 301.043413 " transform="matrix(1, 0, 0, 1, 808.574, 100.5269)"/>
<path fill="none" stroke-width="2" stroke-linecap="butt" stroke-linejoin="miter" stroke="rgb(0%, 0%, 0%)" stroke-opacity="1" stroke-miterlimit="4" d="M 11.632606 19.903087 C 12.843544 19.824962 14.038856 19.574962 15.120887 19.031994 C 16.675575 18.246837 17.855262 16.922619 19.113075 15.719494 C 21.109169 13.809337 23.437294 11.965587 23.788856 9.2234 C 24.156044 6.387462 22.304481 3.864025 19.874794 2.25465 C 17.351356 0.582775 14.335731 -0.171131 11.312294 0.0280875 C 4.773231 0.461681 -0.679894 5.395275 0.0779187 11.508556 C 0.745887 16.875744 6.027137 20.25465 11.632606 19.903087 Z M 11.632606 19.903087 " transform="matrix(1, 0, 0, 1, 904.9963, 380.3391)"/>
<path fill="none" stroke-width="2" stroke-linecap="butt" stroke-linejoin="miter" stroke="rgb(0%, 0%, 0%)" stroke-opacity="1" stroke-miterlimit="4" d="M 7.617656 138.53825 C 10.000469 132.385906 11.535625 125.940594 12.184063 119.374187 C 12.711406 114.049969 12.652813 108.678875 12.004375 103.366375 C 10.539531 98.467937 9.199688 93.530437 7.977031 88.565594 C 6.273906 81.628094 4.805156 74.635906 3.625469 67.592937 C -0.112812 45.260906 -0.964375 22.546062 1.094219 -0.0008125 " transform="matrix(1, 0, 0, 1, 919.1675, 412.868)"/>
</svg>
