<svg xmlns="http://www.w3.org/2000/svg" width="400" height="237"><defs><clipPath id="a"><path d="M51.5625 49.1875h329.2422V154H51.5625Zm0 0"/></clipPath><clipPath id="b"><path d="M51.5625 49.1875h329.2422v115.1484H51.5625Zm0 0"/></clipPath></defs><path style="stroke:none;fill-rule:nonzero;fill:#fff;fill-opacity:1" d="M.2227 0h399.5546v237H.2227Zm0 0"/><path style="fill:none;stroke-width:9525;stroke-linecap:butt;stroke-linejoin:round;stroke:#4472c4;stroke-opacity:1;stroke-miterlimit:10" d="M31757.4784-16.1133v63502.4757M20.1964 31757.3127h63474.5639" transform="translate(49.0021 45.9663) scale(.00009)"/><path style="fill:none;stroke-width:9525;stroke-linecap:butt;stroke-linejoin:round;stroke:#4472c4;stroke-opacity:1;stroke-miterlimit:10" d="M31763.8284-21.9743v63502.4757M26.5464 31751.4517h63474.5639" transform="translate(69.0914 52.6738) scale(.00009)"/><path style="fill:none;stroke-width:9525;stroke-linecap:butt;stroke-linejoin:round;stroke:#4472c4;stroke-opacity:1;stroke-miterlimit:10" d="M31782.9752-11.0896v63502.4757M1.2433 31762.3364h63519.0139" transform="translate(82.4843 57.1455) scale(.00009)"/><path style="fill:none;stroke-width:9525;stroke-linecap:butt;stroke-linejoin:round;stroke:#4472c4;stroke-opacity:1;stroke-miterlimit:10" d="M31751.2253-6.0658v63502.4757M13.9433 31767.3602h63519.0139" transform="translate(114.8503 68.3248) scale(.00009)"/><path style="fill:none;stroke-width:9525;stroke-linecap:butt;stroke-linejoin:round;stroke:#4472c4;stroke-opacity:1;stroke-miterlimit:10" d="M31776.6252 7.3308v63502.4757M-5.1067 31736.3805h63519.0139" transform="translate(148.3325 78.386) scale(.00009)"/><path style="fill:none;stroke-width:9525;stroke-linecap:butt;stroke-linejoin:round;stroke:#4472c4;stroke-opacity:1;stroke-miterlimit:10" d="M31744.8753 12.3545v63502.4757M7.5933 31741.4042h63519.0139" transform="translate(180.6986 89.5653) scale(.00009)"/><path style="fill:none;stroke-width:9525;stroke-linecap:butt;stroke-linejoin:round;stroke:#4472c4;stroke-opacity:1;stroke-miterlimit:10" d="M31782.9752 3.1443v63502.4758M1.2433 31732.194h63519.0139" transform="translate(246.5468 108.57) scale(.00009)"/><path style="fill:none;stroke-width:9525;stroke-linecap:butt;stroke-linejoin:round;stroke:#4472c4;stroke-opacity:1;stroke-miterlimit:10" d="M31776.6252 10.9706v63502.4757M-5.1067 31740.0203h63519.0139" transform="translate(312.395 125.3389) scale(.00009)"/><path style="fill:none;stroke-width:9525;stroke-linecap:butt;stroke-linejoin:round;stroke:#4472c4;stroke-opacity:1;stroke-miterlimit:10" d="M31770.2753-25.87v63502.4756M32.9933 31747.556h63474.5639" transform="translate(378.2432 142.1077) scale(.00009)"/><path style="fill:none;stroke-width:9525;stroke-linecap:butt;stroke-linejoin:round;stroke:#ed7d31;stroke-opacity:1;stroke-miterlimit:10" d="M63494.7603 63486.3624 20.1964-16.1133m0 63502.4757L63494.7603-16.1133" transform="translate(49.0021 45.9663) scale(.00009)"/><path style="fill:none;stroke-width:9525;stroke-linecap:butt;stroke-linejoin:round;stroke:#ed7d31;stroke-opacity:1;stroke-miterlimit:10" d="M63526.5103 63513.993 7.4964 11.5171m0 63502.4757L63526.5103 11.5172" transform="translate(55.6986 48.2021) scale(.00009)"/><path style="fill:none;stroke-width:9525;stroke-linecap:butt;stroke-linejoin:round;stroke:#ed7d31;stroke-opacity:1;stroke-miterlimit:10" d="M63501.1103 63480.5014 26.5464-21.9743m0 63502.4757L63501.1103-21.9743" transform="translate(69.0914 52.6738) scale(.00009)"/><path style="fill:none;stroke-width:9525;stroke-linecap:butt;stroke-linejoin:round;stroke:#ed7d31;stroke-opacity:1;stroke-miterlimit:10" d="M63520.2572 63483.0133 1.2433-19.4625m0 63502.4758L63520.2572-19.4625" transform="translate(82.4843 58.2634) scale(.00009)"/><path style="fill:none;stroke-width:9525;stroke-linecap:butt;stroke-linejoin:round;stroke:#ed7d31;stroke-opacity:1;stroke-miterlimit:10" d="M63532.9572 63479.6641 13.9433-22.8116m0 63502.4757L63532.9572-22.8116" transform="translate(114.8503 70.5606) scale(.00009)"/><path style="fill:none;stroke-width:9525;stroke-linecap:butt;stroke-linejoin:round;stroke:#ed7d31;stroke-opacity:1;stroke-miterlimit:10" d="M63513.9072 63484.6878-5.1067-17.7879m0 63502.4757L63513.9072-17.7879" transform="translate(148.3325 81.7398) scale(.00009)"/><path style="fill:none;stroke-width:9525;stroke-linecap:butt;stroke-linejoin:round;stroke:#ed7d31;stroke-opacity:1;stroke-miterlimit:10" d="M63526.6072 63489.7116 7.5933-12.7642m0 63502.4758L63526.6072-12.7642" transform="translate(180.6986 92.919) scale(.00009)"/><path style="fill:none;stroke-width:9525;stroke-linecap:butt;stroke-linejoin:round;stroke:#ed7d31;stroke-opacity:1;stroke-miterlimit:10" d="M63520.2572 63508.132 1.2433 5.6561m0 63502.4757L63520.2572 5.6562" transform="translate(246.5468 114.1597) scale(.00009)"/><path style="fill:none;stroke-width:9525;stroke-linecap:butt;stroke-linejoin:round;stroke:#ed7d31;stroke-opacity:1;stroke-miterlimit:10" d="M63513.9072 63499.2124-5.1067-3.2633m0 63502.4757L63513.9072-3.2633" transform="translate(312.395 133.1644) scale(.00009)"/><path style="fill:none;stroke-width:9525;stroke-linecap:butt;stroke-linejoin:round;stroke:#ed7d31;stroke-opacity:1;stroke-miterlimit:10" d="M63507.5572 63498.3751 32.9933-4.1006m0 63502.4757L63507.5572-4.1006" transform="translate(378.2432 151.0511) scale(.00009)"/><g clip-path="url(#a)"><path style="fill:none;stroke-width:19050;stroke-linecap:round;stroke-linejoin:round;stroke:#4472c4;stroke-opacity:.502;stroke-miterlimit:10" d="m12.7-21.7695 3975072.3374 1168427.8028" transform="translate(52.6786 50.3066) scale(.00009)"/></g><g clip-path="url(#b)"><path style="fill:none;stroke-width:19050;stroke-linecap:round;stroke-linejoin:round;stroke:#ed7d31;stroke-opacity:.502;stroke-miterlimit:10" d="m12.7-21.7695 3975072.3374 1282741.1343" transform="translate(52.6786 50.3066) scale(.00009)"/></g><path style="stroke:none;fill-rule:nonzero;fill:#4472c4;fill-opacity:1" d="m252.582 94.2031-2.6523 5.9219c-.207.496-.461.8555-.75 1.0664-.2774.207-.6172.3125-1.0117.3125-.2578 0-.4961-.043-.7149-.121-.2226-.086-.4062-.2071-.5586-.3673l.332-.543c.2657.2657.586.4024.961.4024.2422 0 .4453-.0703.6094-.211.1758-.1288.336-.3476.4883-.664l.2265-.5234-2.3554-5.2735h.7343l1.9883 4.4883 1.9883-4.4883Zm3.336.3125h4.375v.5938h-4.375Zm0 2.3242h4.375v.5938h-4.375Zm8.3242-.3828h2.6133v.629h-2.6133Zm5.9492-4.0703c.9258 0 1.6367.3086 2.125.9258.4961.621.75 1.4844.75 2.6016 0 .7812-.1328 1.4453-.3984 1.9921-.2735.5508-.6485.961-1.1368 1.2383-.4765.2735-1.0351.4024-1.6718.4024-.6992 0-1.2578-.1211-1.6758-.3672l.2969-.5938c.3242.2227.7773.332 1.3593.332.7774 0 1.3868-.2421 1.832-.7343.4415-.4961.6641-1.211.6641-2.1484 0-.172-.0156-.3672-.0351-.5743-.1758.3829-.4531.6797-.8399.8907-.3828.2109-.8164.3125-1.3046.3125-.4688 0-.8829-.086-1.2383-.2618-.3633-.1718-.6407-.418-.8399-.7343-.1992-.3203-.293-.6953-.293-1.1172 0-.4258.1016-.8086.3126-1.1328.207-.3243.4921-.5782.8554-.754.3555-.1835.7696-.2773 1.2383-.2773Zm.0664 3.668c.3594 0 .6719-.0625.9453-.1914.2656-.1406.4727-.3242.625-.5586.164-.2344.2461-.4961.2461-.789 0-.2657-.0781-.5079-.2265-.7305-.1407-.2344-.3516-.422-.629-.5625-.2773-.1485-.6171-.2266-1.0117-.2266-.5156 0-.9257.1406-1.2382.4219-.3125.2773-.4688.6523-.4688 1.1172 0 .4648.1563.8359.4688 1.1171.3125.2696.7421.4024 1.289.4024Zm4.3906 3.4922c-.1523 0-.2773-.0508-.3828-.1563-.0976-.1133-.1406-.25-.1406-.4023 0-.1485.043-.2774.1406-.3828.1055-.1055.2305-.1602.3828-.1602.1485 0 .2813.0547.3829.1602.1054.1054.1601.2343.1601.3828 0 .1523-.0547.289-.1601.4023-.1016.1055-.2344.1563-.3829.1563Zm3.9806-4.0703c.7343.0351 1.289.2382 1.6757.5937.3906.3633.5898.832.5898 1.3984 0 .4102-.0976.7696-.293 1.082-.203.3087-.4882.5509-.875.7345-.375.1757-.8359.2617-1.3945.2617-.5 0-.9765-.0781-1.4297-.2422-.453-.164-.8203-.379-1.0976-.6484l.3476-.5743c.2461.2422.5586.4453.9414.5938.3829.1367.793.207 1.2383.207.582 0 1.0313-.121 1.3438-.3672.3125-.25.4687-.6015.4687-1.0469 0-.4257-.1562-.7695-.4687-1.0117-.3125-.2539-.793-.3867-1.4297-.3867h-.5078v-.5234l1.9531-2.4453h-3.5898v-.6446h4.5156v.504Zm5.664 0c.7343.0351 1.289.2382 1.6757.5937.3907.3633.5899.832.5899 1.3984 0 .4102-.0977.7696-.293 1.082-.2031.3087-.4883.5509-.875.7345-.375.1757-.836.2617-1.3945.2617-.5 0-.9766-.0781-1.4297-.2422-.4531-.164-.8203-.379-1.0976-.6484l.3476-.5743c.2461.2422.5586.4453.9414.5938.3828.1367.793.207 1.2383.207.582 0 1.0312-.121 1.3437-.3672.3125-.25.4727-.6015.4727-1.0469 0-.4257-.1602-.7695-.4727-1.0117-.3125-.2539-.793-.3867-1.4296-.3867h-.5079v-.5234l1.9532-2.4453h-3.5899v-.6446h4.5156v.504Zm6.082 4.0703c-.5469 0-1.0352-.1406-1.4648-.418-.418-.289-.75-.7031-.9922-1.2422-.2344-.543-.3477-1.1875-.3477-1.918 0-.7226.1133-1.3515.3477-1.8867.2422-.5468.5742-.9648.9922-1.2578.4296-.289.918-.4375 1.4648-.4375.5313 0 1.0117.1485 1.4297.4375.4297.293.7695.711 1.0117 1.2578.2461.5352.3672 1.164.3672 1.8868 0 .7304-.1211 1.375-.3672 1.918-.2422.539-.582.953-1.0117 1.2421-.418.2773-.8985.418-1.4297.418Zm0-.664c.4063 0 .7617-.1095 1.0664-.3321.3125-.2305.5547-.5625.7305-.9961.1758-.4375.2617-.9688.2617-1.586 0-.6171-.086-1.1406-.2617-1.5742-.1758-.4257-.418-.7578-.7305-.996-.3047-.2305-.6601-.3477-1.0664-.3477-.4102 0-.7656.1172-1.0781.3476-.3164.2383-.5586.5704-.7344.9961-.1758.4336-.2617.957-.2617 1.5743 0 .6171.086 1.1484.2617 1.5859.1758.4336.418.7656.7344.996.3125.2227.668.3321 1.0781.3321Zm5.7969-6.4259v7.039h-.7305v-6.3944h-1.6562v-.6446Zm5.5117 7.039-1.6758-2.2187-1.6914 2.2188h-.8008l2.0938-2.7266-1.9883-2.5664h.8008l1.586 2.0781 1.5898-2.078h.7851l-1.9883 2.5663 2.1094 2.7266Zm8.7109-3.2147h-1.8632v1.8359h-.6485v-1.836h-1.8633v-.5937h1.8633v-1.8516h.6485v1.8516h1.8632Zm7.8868-.4727c.4414.1406.7773.3633 1.0117.664.2422.293.3672.6485.3672 1.0665 0 .4101-.1133.7656-.332 1.0664-.2227.3047-.5391.5351-.961.6992-.4102.164-.8867.2422-1.4453.2422-.836 0-1.5-.1797-1.9883-.539-.4805-.3595-.7149-.8477-.7149-1.4688 0-.4297.1094-.7891.332-1.082.2305-.2891.5665-.5079 1.0118-.6485-.3633-.1406-.6367-.3398-.8203-.6094-.1875-.2656-.2813-.582-.2813-.9453 0-.5664.2188-1.0195.6641-1.3633.4531-.336 1.0508-.5039 1.7969-.5039.496 0 .9336.0781 1.3086.2266.371.1523.6523.375.8515.664.211.2774.3164.6055.3164.9766 0 .3633-.1015.6797-.2968.9453-.1875.2695-.461.4688-.8204.6094Zm-3.086-1.5352c0 .3829.1485.6954.4531.9258.3125.2344.7383.3477 1.2735.3477.543 0 .9687-.1133 1.2734-.3477.3125-.2305.4688-.5351.4688-.9101 0-.3907-.1563-.707-.4688-.9414-.3164-.2305-.7422-.3516-1.2734-.3516-.5352 0-.961.121-1.2735.3516-.3046.2343-.453.539-.453.9257Zm1.7266 4.6641c.6289 0 1.1172-.125 1.4648-.3672.3477-.2539.5235-.6016.5235-1.0508 0-.4257-.1758-.7695-.5235-1.0273-.3476-.254-.836-.3867-1.4648-.3867-.6211 0-1.0977.1328-1.4492.3867-.3477.2578-.5235.6016-.5235 1.0273 0 .4493.1758.797.5235 1.0508.3515.2422.828.3672 1.4492.3672Zm8.6914-6.4805v.504l-2.9297 6.535h-.7852l2.8946-6.3944h-3.629v1.3125h-.7148v-1.957Zm1.5039 7.0899c-.1524 0-.2813-.0508-.3867-.1563-.0938-.1133-.1368-.25-.1368-.4023 0-.1485.043-.2774.1368-.3828.1054-.1055.2343-.1602.3867-.1602.1484 0 .2773.0547.3828.1602.1055.1054.1563.2343.1563.3828 0 .1523-.0508.289-.1563.4023-.1055.1055-.2344.1563-.3828.1563Zm5.6172-3.7383c.4414.1406.7773.3633 1.0117.664.246.293.3672.6485.3672 1.0665 0 .4101-.1133.7656-.332 1.0664-.2227.3047-.5391.5351-.961.6992-.4062.164-.8867.2422-1.4453.2422-.836 0-1.5-.1797-1.9883-.539-.4805-.3595-.7148-.8477-.7148-1.4688 0-.4297.1094-.7891.332-1.082.2305-.2891.5664-.5079 1.0117-.6485-.3633-.1406-.6367-.3398-.8203-.6094-.1875-.2656-.2812-.582-.2812-.9453 0-.5664.2187-1.0195.664-1.3633.4531-.336 1.0508-.5039 1.7969-.5039.496 0 .9336.0781 1.3086.2266.371.1523.6523.375.8516.664.2109.2774.3164.6055.3164.9766 0 .3633-.1016.6797-.297.9453-.1874.2695-.4608.4688-.8202.6094Zm-3.086-1.5352c0 .3829.1485.6954.4532.9258.3125.2344.7382.3477 1.2734.3477.543 0 .9688-.1133 1.2734-.3477.3125-.2305.4688-.5351.4688-.9101 0-.3907-.1563-.707-.4688-.9414-.3164-.2305-.7421-.3516-1.2734-.3516-.5352 0-.961.121-1.2734.3516-.3047.2343-.4532.539-.4532.9257Zm1.7266 4.6641c.629 0 1.1172-.125 1.4648-.3672.3477-.2539.5235-.6016.5235-1.0508 0-.4257-.1758-.7695-.5235-1.0273-.3476-.254-.8359-.3867-1.4648-.3867-.621 0-1.0977.1328-1.4492.3867-.3477.2578-.5235.6016-.5235 1.0273 0 .4493.1758.797.5235 1.0508.3515.2422.8281.3672 1.4492.3672Zm5.9336-6.5508c.9297 0 1.6406.3086 2.1289.9258.496.621.75 1.4844.75 2.6016 0 .7812-.1367 1.4453-.4023 1.9921-.2696.5508-.6446.961-1.1329 1.2383-.4804.2735-1.0351.4024-1.6718.4024-.6993 0-1.2578-.1211-1.6758-.3672l.2969-.5938c.3203.2227.7773.332 1.3593.332.7774 0 1.3868-.2421 1.832-.7343.4415-.4961.6641-1.211.6641-2.1484 0-.172-.0156-.3672-.0351-.5743-.1758.3829-.4531.6797-.8399.8907-.3828.2109-.8203.3125-1.3086.3125-.4648 0-.8789-.086-1.2343-.2618-.3633-.1718-.6446-.418-.8399-.7343-.1992-.3203-.2969-.6953-.2969-1.1172 0-.4258.1055-.8086.3164-1.1328.207-.3243.4922-.5782.8516-.754.3594-.1835.7735-.2773 1.2383-.2773Zm.0703 3.668c.3594 0 .6719-.0625.9414-.1914.2656-.1406.4766-.3242.629-.5586.16-.2344.246-.4961.246-.789 0-.2657-.082-.5079-.2265-.7305-.1407-.2344-.3516-.422-.629-.5625-.2812-.1485-.621-.2266-1.0117-.2266-.5156 0-.9258.1406-1.2383.4219-.3125.2773-.4726.6523-.4726 1.1172 0 .4648.1601.8359.4726 1.1171.3125.2696.7422.4024 1.2891.4024Zm5.8047-3.5977v7.039h-.7344v-6.3944h-1.6562v-.6446Zm0 0"/><path style="stroke:none;fill-rule:nonzero;fill:#ed7d31;fill-opacity:1" d="m181.25 133.3281-2.6523 5.9219c-.207.5-.461.8555-.75 1.0664-.2774.211-.6172.3164-1.0118.3164-.2539 0-.496-.0469-.7148-.125-.2188-.082-.4024-.2031-.5547-.3672l.3281-.539c.2657.2656.586.4023.961.4023.2422 0 .4453-.0703.6093-.211.1758-.1327.336-.3476.4883-.664l.2266-.5234-2.3516-5.2774h.7305l1.9883 4.4922 1.9883-4.4922Zm3.336.3164h4.3788v.5938h-4.3789Zm0 2.3243h4.3788v.5937h-4.3789Zm8.3242-.3868h2.6132v.629h-2.6132Zm5.7031-4v7.039h-.7305v-6.3905h-1.6562v-.6485Zm4.4844 7.0938c-.5508 0-1.0391-.1406-1.4649-.4219-.4219-.2851-.75-.6992-.996-1.2383-.2345-.5469-.3477-1.1875-.3477-1.9219 0-.7187.1132-1.3476.3476-1.8867.2461-.5468.5742-.9648.9961-1.2578.4258-.289.914-.4375 1.4649-.4375.5312 0 1.0117.1485 1.4296.4375.4258.293.7657.711 1.0118 1.2578.2422.539.3632 1.168.3632 1.8868 0 .7343-.121 1.375-.3632 1.9218-.2461.539-.586.9531-1.0118 1.2383-.418.2813-.8984.4219-1.4296.4219Zm0-.664c.4023 0 .7578-.1095 1.0625-.3321.3125-.2305.5585-.5625.7304-.9961.1758-.4414.2617-.9688.2617-1.5899 0-.6171-.0859-1.1406-.2617-1.5703-.1719-.4297-.418-.7617-.7304-.996-.3047-.2305-.6602-.3516-1.0625-.3516-.4102 0-.7696.121-1.082.3515-.3165.2344-.5587.5665-.7345.9961-.1718.4297-.2617.9532-.2617 1.5703 0 .6211.0899 1.1485.2618 1.5899.1757.4336.418.7656.7343.996.3125.2227.6719.3321 1.082.3321Zm4.3828.664c-.1524 0-.2774-.0547-.3828-.1563-.0977-.1132-.1407-.25-.1407-.4023 0-.1484.043-.2813.1407-.3867.1054-.1016.2304-.1563.3828-.1563.1484 0 .2773.0547.3828.1563.1054.1054.1562.2382.1562.3867 0 .1523-.0507.289-.1562.4023-.1055.1016-.2344.1563-.3828.1563Zm6.3867-.6992v.6445h-4.9336v-.504l2.9297-2.8827c.3672-.3594.6172-.668.75-.9258.125-.2656.1914-.5352.1914-.8047 0-.418-.1484-.7422-.4375-.9766-.2774-.2304-.6797-.3515-1.2031-.3515-.8282 0-1.4649.2617-1.918.789l-.5234-.4375c.2773-.3242.6289-.578 1.0468-.7539.4258-.1718.9102-.2617 1.4453-.2617.7227 0 1.293.1758 1.711.5274.418.3398.6289.7968.6289 1.3789 0 .3632-.086.711-.2461 1.0468-.164.3399-.4649.7266-.9063 1.1524l-2.3906 2.3594Zm4.9375-3.0391c.4375.1406.7734.3633 1.0117.664.2422.293.3633.6446.3633 1.0665 0 .4101-.1133.7617-.332 1.0625-.2188.3086-.5391.539-.957.6992-.4102.168-.8907.246-1.4493.246-.836 0-1.5-.1796-1.9883-.5429-.4765-.3555-.7148-.8476-.7148-1.4648 0-.4297.1094-.793.332-1.086.2305-.2851.5664-.5039 1.0117-.6445-.3593-.1406-.6367-.3398-.8203-.6133-.1875-.2656-.2773-.5781-.2773-.9414 0-.5664.2187-1.0234.664-1.3633.4532-.336 1.0508-.5078 1.793-.5078.5 0 .9336.082 1.3086.2305.371.1523.6563.375.8555.6601.211.2813.3125.6094.3125.9805 0 .3633-.0977.6758-.297.9414-.1874.2735-.4608.4727-.8163.6133Zm-3.0899-1.539c0 .3867.1485.6952.457.9257.3126.2383.7345.3516 1.2696.3516.5469 0 .9688-.1133 1.2734-.3516.3165-.2304.4727-.5312.4727-.9062 0-.3946-.1563-.707-.4727-.9453-.3125-.2305-.7382-.3477-1.2734-.3477-.5351 0-.957.1172-1.2695.3477-.3086.2382-.457.543-.457.9257Zm1.7266 4.664c.629 0 1.1172-.121 1.4649-.3672.3515-.25.5234-.6016.5234-1.0469 0-.4257-.1719-.7734-.5234-1.0312-.3477-.254-.836-.3828-1.4649-.3828-.6172 0-1.0976.1289-1.4453.3828-.3477.2578-.5234.6055-.5234 1.0312 0 .4453.1757.797.5234 1.047.3476.246.8281.3671 1.4453.3671Zm5.6914-6.4805v7.039h-.7305v-6.3905h-1.6562v-.6485Zm5.5117 7.039-1.6718-2.2187-1.6954 2.2188h-.8007l2.0937-2.7227-1.9883-2.5703h.8008l1.5899 2.082 1.5859-2.082h.7851l-1.9882 2.5703 2.1093 2.7227Zm8.711-3.2108h-1.8633v1.832h-.6484v-1.832h-1.8633v-.5938h1.8632v-1.8516h.6485v1.8516h1.8633Zm7.8867-.4727c.4414.1406.7773.3633 1.0117.664.2461.293.3672.6446.3672 1.0665 0 .4101-.1133.7617-.332 1.0625-.2227.3086-.5391.539-.961.6992-.4062.168-.8867.246-1.4453.246-.836 0-1.5-.1796-1.9883-.5429-.4804-.3555-.7148-.8476-.7148-1.4648 0-.4297.1094-.793.332-1.086.2305-.2851.5664-.5039 1.0117-.6445-.3632-.1406-.6367-.3398-.8203-.6133-.1875-.2656-.2812-.5781-.2812-.9414 0-.5664.2187-1.0234.664-1.3633.4532-.336 1.0508-.5078 1.797-.5078.496 0 .9335.082 1.3085.2305.3711.1523.6524.375.8516.6601.211.2813.3164.6094.3164.9805 0 .3633-.1016.6758-.2969.9414-.1875.2735-.461.4727-.8203.6133Zm-3.086-1.539c0 .3867.1485.6952.4532.9257.3125.2383.7383.3516 1.2734.3516.543 0 .9688-.1133 1.2734-.3516.3125-.2304.4688-.5312.4688-.9062 0-.3946-.1563-.707-.4688-.9453-.3164-.2305-.7421-.3477-1.2734-.3477-.5351 0-.961.1172-1.2734.3477-.3047.2382-.4531.543-.4531.9257Zm1.7266 4.664c.629 0 1.1172-.121 1.4649-.3672.3476-.25.5234-.6016.5234-1.0469 0-.4257-.1758-.7734-.5234-1.0312-.3477-.254-.836-.3828-1.4649-.3828-.621 0-1.0976.1289-1.4492.3828-.3477.2578-.5234.6055-.5234 1.0312 0 .4453.1757.797.5234 1.047.3516.246.8281.3671 1.4492.3671Zm7.7656-3.125c.4414.1406.7774.3633 1.0118.664.246.293.3671.6446.3671 1.0665 0 .4101-.1132.7617-.332 1.0625-.2226.3086-.539.539-.961.6992-.4062.168-.8866.246-1.4452.246-.836 0-1.5-.1796-1.9883-.5429-.4805-.3555-.7149-.8476-.7149-1.4648 0-.4297.1094-.793.332-1.086.2305-.2851.5665-.5039 1.0118-.6445-.3633-.1406-.6367-.3398-.8203-.6133-.1875-.2656-.2813-.5781-.2813-.9414 0-.5664.2188-1.0234.664-1.3633.4532-.336 1.0509-.5078 1.797-.5078.496 0 .9336.082 1.3086.2305.371.1523.6523.375.8554.6601.207.2813.3125.6094.3125.9805 0 .3633-.1015.6758-.2969.9414-.1875.2735-.4609.4727-.8203.6133Zm-3.0859-1.539c0 .3867.1484.6952.4531.9257.3125.2383.7383.3516 1.2735.3516.543 0 .9687-.1133 1.2734-.3516.3125-.2304.4688-.5312.4688-.9062 0-.3946-.1563-.707-.4688-.9453-.3164-.2305-.7422-.3477-1.2734-.3477-.5352 0-.961.1172-1.2735.3477-.3047.2382-.4531.543-.4531.9257Zm1.7266 4.664c.6289 0 1.1172-.121 1.4648-.3672.3477-.25.5234-.6016.5234-1.0469 0-.4257-.1757-.7734-.5234-1.0312-.3476-.254-.836-.3828-1.4648-.3828-.6211 0-1.0977.1289-1.4493.3828-.3476.2578-.5234.6055-.5234 1.0312 0 .4453.1758.797.5234 1.047.3516.246.8282.3671 1.4493.3671Zm4.2773.6133c-.1523 0-.2773-.0547-.3828-.1563-.0938-.1132-.1406-.25-.1406-.4023 0-.1484.0468-.2813.1406-.3867.1055-.1016.2305-.1563.3828-.1563a.5466.5466 0 0 1 .3867.1563.5466.5466 0 0 1 .1563.3867c0 .1523-.0547.289-.1563.4023a.5466.5466 0 0 1-.3867.1563Zm5.6211-3.7383c.4414.1406.7773.3633 1.0117.664.2422.293.3672.6446.3672 1.0665 0 .4101-.1133.7617-.332 1.0625-.2227.3086-.543.539-.961.6992-.4101.168-.8867.246-1.4453.246-.8398 0-1.5-.1796-1.9883-.5429-.4804-.3555-.7148-.8476-.7148-1.4648 0-.4297.1094-.793.332-1.086.2305-.2851.5664-.5039 1.0078-.6445-.3593-.1406-.6328-.3398-.8164-.6133-.1875-.2656-.2812-.5781-.2812-.9414 0-.5664.2187-1.0234.664-1.3633.4532-.336 1.0508-.5078 1.797-.5078.496 0 .9335.082 1.3085.2305.3672.1523.6524.375.8516.6601.211.2813.3164.6094.3164.9805 0 .3633-.1016.6758-.2969.9414-.1875.2735-.4648.4727-.8203.6133Zm-3.086-1.539c0 .3867.1485.6952.4532.9257.3125.2383.7344.3516 1.2734.3516.543 0 .9649-.1133 1.2735-.3516.3125-.2304.4687-.5312.4687-.9062 0-.3946-.1562-.707-.4687-.9453-.3164-.2305-.7422-.3477-1.2735-.3477-.539 0-.961.1172-1.2734.3477-.3047.2382-.4531.543-.4531.9257Zm1.7266 4.664c.625 0 1.1133-.121 1.4649-.3672.3476-.25.5234-.6016.5234-1.0469 0-.4257-.1758-.7734-.5234-1.0312-.3516-.254-.8399-.3828-1.4649-.3828-.621 0-1.1015.1289-1.4492.3828-.3476.2578-.5234.6055-.5234 1.0312 0 .4453.1757.797.5234 1.047.3477.246.8281.3671 1.4492.3671Zm5.5859-3.5977c1.0118 0 1.7462.1875 2.215.5586.4765.3633.7147.8711.7147 1.5196 0 .4101-.1015.7773-.2968 1.1015-.1875.3282-.4727.586-.8555.7696-.3828.1718-.8516.2617-1.4101.2617-.504 0-.9766-.0781-1.4297-.2461-.4532-.1602-.8164-.375-1.082-.6445l.3476-.5782c.2305.2461.539.4453.9258.5938.3828.1406.793.211 1.2382.211.5782 0 1.0274-.129 1.3399-.3829.3242-.2539.4883-.6055.4883-1.0508 0-.4765-.1797-.836-.539-1.082-.3634-.254-.9688-.3828-1.8126-.3828h-1.5l.3672-3.5313h3.836v.6485h-3.211l-.2422 2.2343Zm7.8673.4727c.4375.1406.7734.3633 1.0117.664.2422.293.3632.6446.3632 1.0665 0 .4101-.1132.7617-.332 1.0625-.2187.3086-.539.539-.957.6992-.4102.168-.8906.246-1.4492.246-.836 0-1.5-.1796-1.9883-.5429-.4766-.3555-.7149-.8476-.7149-1.4648 0-.4297.1094-.793.332-1.086.2305-.2851.5665-.5039 1.0118-.6445-.3594-.1406-.6367-.3398-.8203-.6133-.1875-.2656-.2774-.5781-.2774-.9414 0-.5664.2188-1.0234.6641-1.3633.4531-.336 1.0508-.5078 1.793-.5078.5 0 .9336.082 1.3086.2305.371.1523.6562.375.8554.6601.211.2813.3125.6094.3125.9805 0 .3633-.0976.6758-.2968.9414-.1875.2735-.461.4727-.8164.6133Zm-3.0899-1.539c0 .3867.1484.6952.457.9257.3125.2383.7344.3516 1.2696.3516.5468 0 .9687-.1133 1.2734-.3516.3164-.2304.4727-.5312.4727-.9062 0-.3946-.1563-.707-.4727-.9453-.3125-.2305-.7383-.3477-1.2734-.3477-.5352 0-.957.1172-1.2696.3477-.3086.2382-.457.543-.457.9257Zm1.7266 4.664c.6289 0 1.1172-.121 1.4648-.3672.3516-.25.5235-.6016.5235-1.0469 0-.4257-.172-.7734-.5235-1.0312-.3476-.254-.836-.3828-1.4648-.3828-.6172 0-1.0977.1289-1.4453.3828-.3477.2578-.5235.6055-.5235 1.0312 0 .4453.1758.797.5235 1.047.3476.246.828.3671 1.4453.3671Zm0 0"/><path style="stroke:none;fill-rule:nonzero;fill:#000;fill-opacity:1" d="M36.9766 183.0078v.5078l-2.9297 6.5313h-.7852l2.8985-6.3946h-3.629v1.3125h-.7148v-1.957Zm5.4257 6.3945v.6446h-4.9375v-.5078l2.9297-2.879c.3711-.3593.6211-.668.75-.9257.129-.2696.1953-.5352.1953-.8047 0-.418-.1484-.7422-.4375-.9805-.2812-.2304-.6796-.3476-1.203-.3476-.8282 0-1.465.2617-1.918.7851l-.5235-.4375c.2774-.3203.629-.5742 1.0469-.75.4258-.1758.9101-.2617 1.4453-.2617.7188 0 1.293.1758 1.711.5234.418.3399.625.8008.625 1.3828 0 .3594-.082.711-.2422 1.047-.1641.3398-.4649.7226-.9063 1.1523l-2.3906 2.3593Zm-5.3867-26.5156v.504l-2.9297 6.535h-.7851l2.8945-6.3945h-3.625v1.3086h-.7148v-1.953Zm3.0196 3.0196c.7304.0351 1.289.2382 1.6718.5937.3946.3633.5938.832.5938 1.3984 0 .4102-.1016.7696-.2969 1.082-.1992.3048-.4883.5508-.871.7344-.375.1758-.836.2618-1.3946.2618-.5 0-.9766-.0782-1.4297-.2461-.4531-.1602-.8203-.375-1.0977-.6446l.3477-.578c.2422.246.5586.4452.9414.5976.3828.1367.793.207 1.2383.207.5781 0 1.0273-.121 1.3437-.3672.3125-.2539.4688-.6016.4688-1.0469 0-.4297-.1563-.7695-.4688-1.0117-.3164-.2539-.7968-.3867-1.4297-.3867h-.5078v-.5234l1.9532-2.4453h-3.5938v-.6446h4.5195v.504Zm-3.9962-24.2618v.5078l-2.9296 6.5313h-.7852l2.8985-6.3945h-3.629v1.3125h-.7148v-1.957Zm6.6094 5.1875h-1.4101v1.8516h-.7149v-1.8516H36.547v-.5234l3.7304-4.664h.8047l-3.5937 4.5429h3.0508v-1.625h.6992v1.625h1.4101Zm-5.6524-26.4297v.5079l-2.9296 6.5351h-.7852l2.8946-6.3945h-3.629v1.3086h-.7148v-1.957Zm2.4767 2.8829c1.0117 0 1.746.1875 2.2148.5585.4727.3633.7148.8711.7148 1.5196 0 .4101-.1015.7773-.2968 1.1015-.1875.3282-.4727.586-.8555.7696-.3828.1758-.8555.2617-1.414.2617-.5 0-.9766-.0781-1.4297-.2461-.4532-.1602-.8126-.375-1.0782-.6445l.3477-.5782c.2304.2461.539.4454.9219.5938.3867.1406.7968.211 1.2382.211.582 0 1.0313-.125 1.3438-.3829.3242-.2539.4883-.6055.4883-1.0508 0-.4765-.1836-.8359-.539-1.082-.3634-.2539-.9688-.3828-1.8165-.3828h-1.496l.3632-3.5313h3.836v.6485h-3.2071l-.2422 2.2344Zm-2.9063-23.0039v.5078l-2.9297 6.5312h-.7851l2.8945-6.3945h-3.629v1.3125h-.7148v-1.957Zm3.5391 2.8281c.461 0 .871.0898 1.2187.2656.3594.1719.6367.418.8399.7305.207.3164.3125.6914.3125 1.121 0 .418-.1055.797-.3125 1.1329-.211.3281-.504.5781-.8711.75-.3633.1758-.7696.2656-1.2227.2656-.9336 0-1.6484-.3047-2.1445-.9102-.4883-.6171-.7344-1.4843-.7344-2.6015 0-.793.1328-1.457.4023-1.9922.2657-.5469.6368-.961 1.1172-1.2422.4883-.2773 1.0508-.418 1.6914-.418.6954 0 1.254.1329 1.672.3868l-.293.5937c-.3438-.2187-.797-.332-1.3633-.332-.7774 0-1.3907.2422-1.8282.7304-.4453.4922-.664 1.207-.664 2.1485 0 .168.0078.3594.0351.5781.1758-.3828.4453-.6797.8203-.8906.3829-.211.8243-.3164 1.3243-.3164Zm-.0508 3.6523c.496 0 .9062-.1328 1.2187-.4023.3243-.2774.4883-.6485.4883-1.1172 0-.4649-.164-.8281-.4883-1.1016-.3125-.2773-.7422-.418-1.2734-.418-.3594 0-.6797.0704-.957.211-.2735.1289-.4805.3086-.629.539-.1523.2383-.2265.5-.2265.7852 0 .2734.0703.5195.207.754.1485.2226.3672.4023.6485.539.2773.1406.6133.211 1.0117.211ZM36.7656 79.039v.5079L33.836 86.082h-.7851l2.8945-6.3945h-3.625v1.3086h-.7148v-1.957Zm5.5821 0v.5079L39.418 86.082h-.7852l2.8945-6.3945h-3.6289v1.3086h-.7148v-1.957Zm-6.0743-20.121v.5078l-2.9297 6.5312h-.7851l2.8984-6.3945h-3.6289v1.3125h-.7148v-1.957Zm4.6563 3.3554c.4414.1368.7773.3594 1.0117.6641.2461.289.3672.6445.3672 1.0625 0 .4102-.1133.7656-.332 1.0664-.2227.3047-.5391.539-.957.6992-.4102.164-.8907.2461-1.4493.2461-.836 0-1.5-.1797-1.9883-.543-.4804-.3593-.7148-.8476-.7148-1.4687 0-.4258.1094-.789.332-1.082.2305-.289.5664-.5078 1.0117-.6446-.3632-.1406-.6367-.3437-.8203-.6132-.1875-.2657-.2773-.582-.2773-.9415 0-.5703.2187-1.0234.6601-1.3632.4532-.336 1.0508-.5078 1.797-.5078.496 0 .9335.078 1.3085.2265.3711.1524.6523.375.8555.664.207.2813.3125.6095.3125.9806 0 .3593-.1016.6757-.2969.9414-.1875.2695-.461.4726-.8203.6132Zm-3.086-1.539c0 .3828.1485.6953.4532.9258.3164.2343.7383.3515 1.2734.3515.5469 0 .9688-.1172 1.2734-.3515.3126-.2305.4727-.5313.4727-.9063 0-.3945-.1602-.711-.4727-.9453-.3124-.2305-.7421-.3477-1.2734-.3477-.5351 0-.957.1172-1.2734.3477-.3047.2344-.4532.543-.4532.9258Zm1.7266 4.664c.629 0 1.1172-.121 1.4649-.3671.3476-.254.5234-.6016.5234-1.047 0-.4296-.1758-.7734-.5234-1.0312-.3477-.2539-.836-.3828-1.4649-.3828-.6172 0-1.0976.129-1.4453.3828-.3516.2578-.5234.6016-.5234 1.0313 0 .4453.1718.793.5234 1.0468.3477.2461.8281.3672 1.4453.3672Zm-3.0039-27.7226v.5078l-2.9297 6.5352h-.7851l2.8945-6.3946h-3.629v1.3086h-.7148v-1.957Zm2.8242-.0664c.9297 0 1.6407.3086 2.129.9258.496.6171.75 1.4843.75 2.6015 0 .7813-.1368 1.4453-.4024 1.9922-.2695.5469-.6445.961-1.1328 1.2383-.4805.2695-1.039.4023-1.6758.4023-.6953 0-1.254-.121-1.6719-.3672l.293-.5937c.3242.2227.7773.332 1.3633.332.7734 0 1.3867-.246 1.828-.7343.4415-.4961.6642-1.2149.6642-2.1485 0-.1758-.0118-.3672-.0352-.5742-.1758.3828-.4531.6797-.836.8906-.3828.207-.8203.3125-1.3085.3125-.4649 0-.879-.086-1.2383-.2617-.3633-.1758-.6406-.418-.836-.7344-.203-.3203-.2968-.6992-.2968-1.1172 0-.4297.1054-.8086.3125-1.1367.211-.3203.4922-.5742.8554-.75.3555-.1836.7735-.2773 1.2383-.2773Zm.0703 3.668c.3555 0 .672-.0626.9414-.1954.2657-.1367.4766-.3203.629-.5586.1601-.2304.2421-.4922.2421-.7851 0-.2656-.078-.5117-.2265-.7344-.1407-.2305-.3477-.418-.629-.5586-.2773-.1484-.6171-.2266-1.0117-.2266-.5117 0-.9218.1407-1.2382.418-.3125.2813-.4688.6563-.4688 1.1211 0 .4649.1563.836.4688 1.1172.3164.2695.7422.4023 1.293.4023Zm13.6797 155.1445v7.039h-.7304v-6.3906h-1.6563v-.6484Zm62.9688 0v7.039h-.7344v-6.3906h-1.6563v-.6484Zm1.9336 7.0937c-.1524 0-.2774-.0547-.3828-.1562-.0938-.1172-.1368-.25-.1368-.4024 0-.1484.043-.2812.1368-.3867.1054-.1055.2304-.1562.3828-.1562.1484 0 .2812.0507.3867.1562a.5466.5466 0 0 1 .1562.3867c0 .1524-.0546.2852-.1562.4024a.5466.5466 0 0 1-.3867.1562Zm3.6484-7.0937v7.039h-.7344v-6.3906h-1.6562v-.6484Zm59.2266 0v7.039h-.7344v-6.3906h-1.6563v-.6484Zm1.9336 7.0937c-.1524 0-.2774-.0547-.3828-.1562-.0938-.1172-.1407-.25-.1407-.4024 0-.1484.0469-.2812.1406-.3867.1055-.1055.2305-.1562.3829-.1562.1484 0 .2812.0507.3867.1562a.5466.5466 0 0 1 .1562.3867c0 .1524-.0547.2852-.1562.4024a.5466.5466 0 0 1-.3867.1562Zm6.4882-.6992v.6445h-4.9335v-.5039l2.9296-2.8828c.3711-.3594.6172-.668.75-.9258.125-.2656.1914-.5351.1914-.8047 0-.418-.1484-.7421-.4375-.9765-.2773-.2344-.6796-.3516-1.203-.3516-.8282 0-1.465.2617-1.918.789l-.5235-.4374c.2813-.3242.629-.5781 1.0469-.754.4297-.1718.9101-.2616 1.4492-.2616.7188 0 1.289.1757 1.707.5273.418.3399.629.7969.629 1.379 0 .3632-.082.7108-.2462 1.0468-.164.3398-.4648.7266-.9062 1.1523l-2.3867 2.3594Zm57.4454-6.3945v7.039h-.7344v-6.3906h-1.6563v-.6484Zm1.9336 7.0937c-.1524 0-.2774-.0547-.3829-.1562-.0976-.1172-.1406-.25-.1406-.4024 0-.1484.043-.2812.1406-.3867.1055-.1055.2305-.1562.3828-.1562.1485 0 .2774.0507.3829.1562.1054.1055.1562.2383.1562.3867 0 .1524-.0508.2852-.1562.4024-.1055.1015-.2344.1562-.3828.1562Zm4.082-4.0703c.7304.0352 1.289.2344 1.6719.5938.3945.3632.5937.828.5937 1.3984 0 .4102-.0976.7656-.2969 1.082-.1992.3047-.4882.5508-.871.7344-.375.1719-.836.2617-1.3946.2617-.5 0-.9766-.0781-1.4297-.246-.4531-.1602-.8203-.375-1.0976-.6446l.3476-.5781c.2422.246.5586.4453.9414.5937.3828.1406.793.211 1.2383.211.5781 0 1.0274-.1211 1.3438-.3672.3125-.254.4687-.6016.4687-1.0469 0-.4297-.1562-.7695-.4687-1.0156-.3165-.254-.793-.3828-1.4297-.3828h-.5078v-.5235l1.953-2.4453h-3.5898v-.6484h4.5157v.5078Zm59.3398-3.0234v7.039h-.7304v-6.3906h-1.6563v-.6484Zm1.9375 7.0937c-.1523 0-.2812-.0547-.3828-.1562-.0976-.1172-.1406-.25-.1406-.4024 0-.1484.043-.2812.1406-.3867.1016-.1055.2305-.1562.3828-.1562.1485 0 .2774.0507.3828.1562.1055.1055.1563.2383.1563.3867 0 .1524-.0508.2852-.1563.4024-.1054.1015-.2343.1562-.3828.1562Zm7.6719-1.9062h-1.4102v1.8515h-.7148v-1.8515h-3.9766v-.5235l3.7305-4.664h.8008l-3.5899 4.543h3.0508v-1.625h.6992v1.625h1.4102Zm56.7148-5.1875v7.039h-.7304v-6.3906h-1.6563v-.6484Zm1.9375 7.0937c-.1523 0-.2812-.0547-.3867-.1562-.0937-.1172-.1367-.25-.1367-.4024 0-.1484.043-.2812.1367-.3867.1055-.1055.2344-.1562.3867-.1562.1485 0 .2774.0507.3829.1562.1054.1055.1562.2383.1562.3867 0 .1524-.0508.2852-.1562.4024-.1055.1015-.2344.1562-.3829.1562Zm3.5391-4.2109c1.0117 0 1.75.1875 2.2149.5586.4765.3633.7148.871.7148 1.5195 0 .4102-.1016.7774-.2969 1.1016-.1875.3281-.4687.586-.8555.7695-.3828.1719-.8515.2617-1.4101.2617-.504 0-.9766-.0781-1.4297-.246-.4531-.1602-.8164-.375-1.082-.6446l.3476-.5781c.2305.246.543.4453.9258.5937.3828.1406.793.211 1.2383.211.5781 0 1.0273-.129 1.3437-.3868.3204-.25.4883-.6015.4883-1.0468 0-.4766-.1836-.836-.543-1.082-.3593-.254-.9687-.3829-1.8124-.3829h-1.5l.3671-3.5312h3.836v.6484h-3.211l-.2421 2.2344ZM17.1953 156.3516v-.8203h7.0977v-4.3829h.7148v5.2032Zm1.9337-6.4102v-.8008h5.8788v.8008Zm-1.2735-.4023c0 .168-.0508.3086-.1563.4218-.1133.1055-.2539.1563-.418.1563-.1484 0-.2773-.0508-.3828-.1563-.1132-.1132-.1757-.2539-.1757-.4218 0-.1602.0625-.297.1757-.3985.1055-.1172.2266-.1758.3672-.1758.1719 0 .3203.0586.4336.1758.1055.1016.1563.2383.1563.3985Zm-.5235-4.5586c0 .3476.0977.6093.2813.7851.1875.1758.4648.2617.836.2617h.6796v-1.8164h.6797v1.797h5.1992v.789h-5.1992v1.0469h-.6797v-1.047h-.7148c-.5313 0-.957-.1484-1.2735-.457-.3125-.3125-.4687-.7539-.4687-1.3242 0-.2187.0351-.4375.1054-.6484.0586-.211.1446-.3828.2618-.5234l.5898.2617c-.1953.2343-.2969.5234-.2969.875Zm4.9883-6.9532v4.9102c.6055-.0469 1.0977-.2813 1.4844-.6992.375-.4297.5586-.9649.5586-1.6094 0-.371-.0625-.707-.1953-1.0117a2.3719 2.3719 0 0 0-.5742-.7852l.5078-.457c.3125.2578.5507.586.7148.9805.164.3984.2422.828.2422 1.293 0 .6054-.125 1.1445-.3828 1.6054-.254.4688-.6094.836-1.0625 1.1016-.457.2578-.9649.3828-1.5352.3828-.582 0-1.1015-.1211-1.5547-.3672-.453-.25-.8007-.5977-1.043-1.0274-.2538-.4414-.3866-.9375-.3866-1.4882 0-.543.1328-1.0352.3867-1.4649.2422-.4297.5898-.7695 1.043-1.0156.453-.2422.9726-.3633 1.5546-.3633Zm-2.5469 2.8282c0 .5742.1836 1.0507.543 1.4336.3594.3828.832.6015 1.4102.6484v-4.1758c-.5782.0586-1.0508.2774-1.4102.664-.3594.3829-.543.8634-.543 1.4298Zm2.5469-12.5078v4.9062c.6055-.043 1.0977-.2773 1.4844-.6992.375-.4258.5586-.9649.5586-1.6055 0-.371-.0625-.707-.1953-1.0117a2.3478 2.3478 0 0 0-.5742-.789l.5078-.4532c.3125.2578.5507.586.7148.9766.164.3984.2422.832.2422 1.293 0 .6093-.125 1.1445-.3828 1.6093-.254.4649-.6094.832-1.0625 1.0977-.457.2578-.9649.3867-1.5352.3867-.582 0-1.1015-.1211-1.5547-.3672-.453-.2539-.8007-.5976-1.043-1.0312-.2538-.4415-.3866-.9336-.3866-1.4844 0-.5469.1328-1.0352.3867-1.4688.2422-.4257.5898-.7656 1.043-1.0117.453-.246.9726-.3672 1.5546-.3672Zm-2.5469 2.828c0 .5704.1836 1.047.543 1.4337.3594.3828.832.6015 1.4102.6445v-4.1758c-.5782.0625-1.0508.2813-1.4102.664-.3594.3868-.543.8673-.543 1.4337Zm5.2344-8.2187-2.461 1.8672 2.461 1.8867v.8907l-3.0195-2.3204-2.8594 2.1993v-.8907l2.3047-1.7656-2.3047-1.7617v-.875l2.8594 2.2188 3.0195-2.3594Zm-5.914-5.2539c0-.5469.1328-1.039.3867-1.4844.2422-.453.5898-.8046 1.043-1.0468.453-.254.9726-.3867 1.5546-.3867s1.0977.1328 1.5508.3867c.4531.2422.8125.586 1.0625 1.0273.2461.4453.3672.9453.3672 1.504 0 .4804-.0938.9062-.2969 1.2929-.1953.3828-.4805.6992-.8555.9414h3.2618v.8047h-8.039v-.7695h1.1679c-.3828-.2305-.6797-.547-.8867-.9415-.211-.3945-.3164-.8398-.3164-1.328Zm5.2695.0508c0-.4062-.0938-.7734-.2813-1.0977-.1953-.3359-.4687-.6015-.8203-.789-.3476-.1953-.7383-.2969-1.1836-.2969-.4531 0-.8476.1016-1.1875.2969-.3476.1875-.6172.4531-.8203.789-.1953.3243-.2969.6915-.2969 1.0977 0 .4219.1016.8008.297 1.1367.203.3281.4726.5899.8202.7852.3399.1875.7344.2812 1.1875.2812.4453 0 .836-.0937 1.1836-.2812.3516-.1953.625-.457.8203-.7852.1875-.336.2813-.7148.2813-1.1367Zm-2.043-9.7109v4.9101c.6055-.043 1.0977-.2812 1.4844-.6992.375-.4258.5586-.9648.5586-1.6055 0-.371-.0625-.707-.1953-1.0156a2.3719 2.3719 0 0 0-.5742-.7851l.5078-.4532c.3125.2578.5507.586.7148.9766.164.3984.2422.832.2422 1.293 0 .6093-.125 1.1445-.3828 1.6093-.254.4649-.6094.832-1.0625 1.0977-.457.2578-.9649.3867-1.5352.3867-.582 0-1.1015-.125-1.5547-.3672-.453-.2539-.8007-.5976-1.043-1.0312-.2538-.4414-.3866-.9336-.3866-1.4844 0-.5469.1328-1.0352.3867-1.4688.2422-.4257.5898-.7695 1.043-1.0117.453-.246.9726-.3672 1.5546-.3672Zm-2.5469 2.832c0 .5703.1836 1.0469.543 1.4336.3594.3828.832.6016 1.4102.6445v-4.1758c-.5782.0625-1.0508.2813-1.4102.6641-.3594.3867-.543.8672-.543 1.4336Zm5.2852-6.9102c0 .586-.1211 1.1094-.3672 1.5704-.25.457-.6094.8203-1.0625 1.0859-.461.2578-.9805.3828-1.5508.3828-.582 0-1.1015-.125-1.5547-.3828-.453-.2656-.8007-.629-1.043-1.086-.2538-.4609-.3866-.9843-.3866-1.5703 0-.496.1015-.9492.2968-1.3437.2032-.4063.4844-.7266.8555-.961l.4023.5938c-.289.1992-.5078.4492-.6484.75-.1484.293-.2266.6133-.2266.961 0 .4335.1016.8163.297 1.1523.1874.3398.453.6016.8046.7851.3477.1875.75.2813 1.2031.2813.4532 0 .8516-.0938 1.2032-.2813.3398-.1835.6054-.4453.8007-.7851.1875-.336.2813-.7188.2813-1.1524 0-.3476-.0703-.668-.211-.9609-.1406-.3008-.3515-.5508-.6445-.75l.3985-.5937c.375.2343.6601.5546.8554.9609.2031.3945.2969.8477.2969 1.3437Zm-.4023-6.957c.1328.1524.2265.3399.2968.5586a2.245 2.245 0 0 1 .1055.6797c0 .5586-.1445.9922-.4375 1.293-.3008.293-.7227.4375-1.2695.4375h-3.543v1.0468h-.6797v-1.0468h-1.2734v-.7852h1.2734v-1.8008h.6797v1.8008h3.5078c.3477 0 .6172-.0898.8008-.2617.1758-.1836.2617-.4414.2617-.7695 0-.1602-.0234-.3204-.0703-.4727a1.407 1.407 0 0 0-.2266-.4023Zm-5.5625-3.4922c0-.7695.1914-1.3515.578-1.7617.3829-.4062.9493-.6133 1.6915-.6133h3.6445v.75h-.9062c.3046.1758.539.4375.7148.789.164.3477.2422.7618.2422 1.2384 0 .6562-.1563 1.1797-.4688 1.5742-.3164.3828-.7265.5742-1.2382.5742-.5 0-.8985-.1797-1.2032-.543-.3007-.3554-.457-.9336-.457-1.7265v-1.8711h-.3633c-.5 0-.8828.1484-1.1523.4375-.2656.2812-.4024.6914-.4024 1.2226 0 .375.0664.7344.1954 1.082.1289.3438.293.629.5039.875l-.5938.3673c-.2539-.3008-.4453-.6563-.5742-1.0665-.1406-.418-.211-.8593-.211-1.328Zm5.3359.2813c0-.4531-.0938-.8399-.2969-1.1524-.207-.3242-.5039-.5664-.8867-.7187h-.961v1.8515c0 1.004.3516 1.504 1.047 1.504.3398 0 .6054-.129.8007-.3868.2031-.2656.2969-.6328.2969-1.0976Zm-5.3359-7.8203c0-.7344.2187-1.3125.6445-1.7461.4219-.4414 1.043-.664 1.8672-.664h3.4023v.785h-3.332c-.6016 0-1.0625.1602-1.379.4727-.3202.3047-.4882.7344-.4882 1.293 0 .6406.1875 1.1484.5586 1.5195.375.3633.8906.543 1.5547.543h3.086v.8008h-5.879v-.7657h1.082c-.3476-.2109-.6171-.5078-.8203-.8906-.1953-.3867-.2968-.832-.2968-1.3476Zm5.9648-7.0078c0 .5859-.1211 1.1093-.3672 1.5703-.25.457-.6094.8164-1.0625 1.0859-.461.254-.9805.3828-1.5508.3828-.582 0-1.1015-.1289-1.5547-.3828-.453-.2695-.8007-.629-1.043-1.086-.2538-.4609-.3866-.9843-.3866-1.5703 0-.5.1015-.9492.2968-1.3437.2032-.4063.4844-.7266.8555-.961l.4023.5938c-.289.1992-.5078.4492-.6484.75-.1484.293-.2266.6094-.2266.961 0 .4335.1016.8164.297 1.1523.1874.3398.453.6016.8046.7852.3477.1874.75.2812 1.2031.2812.4532 0 .8516-.0938 1.2032-.2813.3398-.1835.6054-.4453.8007-.7851.1875-.336.2813-.7188.2813-1.1523 0-.3516-.0703-.668-.211-.961-.1406-.3008-.3515-.5508-.6445-.75l.3985-.5937c.375.2343.6601.5546.8554.9609.2031.3945.2969.8438.2969 1.3438Zm-5.9296-8.793 6.5741 2.9336c.5586.246.9453.5273 1.168.8398.2344.3047.3516.6758.3516 1.1172 0 .2813-.0508.5508-.1407.8047a1.617 1.617 0 0 1-.3828.6289l-.5937-.3672c.289-.3008.4375-.664.4375-1.082 0-.2656-.082-.4961-.2266-.6836-.1406-.1836-.3945-.3555-.75-.5234l-.5781-.2618-5.8594 2.6211v-.8203l4.9883-2.2187-4.9883-2.2032ZM145.8438 213.121h-2.7344v-.7148h6.3125v.7149h-2.7578v7.1094h-.8203Zm7.125 7.1642c-.5743 0-1.082-.129-1.5352-.3868-.4531-.2539-.8164-.6093-1.082-1.0664-.2578-.453-.3828-.9648-.3828-1.5351 0-.582.125-1.1016.3828-1.5547.2656-.4531.6289-.8047 1.082-1.0469.4531-.2539.961-.3867 1.5351-.3867.5665 0 1.0782.1328 1.5313.3867.4531.2422.8086.5938 1.0664 1.0469.25.4531.3828.9726.3828 1.5547 0 .5703-.1328 1.082-.3828 1.5351-.2578.457-.6133.8125-1.0664 1.0664-.4531.2578-.9648.3868-1.5313.3868Zm0-.6993c.418 0 .789-.0937 1.1132-.2812.336-.1953.5977-.4727.7852-.8203.1836-.3477.2812-.7422.2812-1.1875 0-.4531-.0976-.8555-.2812-1.207-.1875-.3477-.4492-.6133-.7852-.8008-.3242-.1993-.6953-.297-1.1132-.297-.422 0-.8008.0977-1.1368.297-.3242.1875-.582.453-.7656.8007-.1875.3516-.2812.754-.2812 1.207 0 .4454.0937.84.2812 1.1876.1836.3476.4414.625.7656.8203.336.1875.7149.2812 1.1368.2812Zm7.6952.2969c-.1562.129-.3437.2266-.5585.2969a2.2445 2.2445 0 0 1-.6797.1055c-.5586 0-.9922-.1446-1.293-.4375-.293-.3008-.4336-.7266-.4336-1.2774v-3.543h-1.0469v-.6835h1.047v-1.2735h.7812v1.2734h1.7968v.6836h-1.7968v3.5079c0 .3515.0898.621.2617.8046.1836.1758.4414.2618.7695.2618.1602 0 .3164-.0196.4688-.0703.1484-.0547.2851-.129.4023-.2266Zm3.4844-5.5742c.7657 0 1.3516.1914 1.7618.5781.4023.3828.6093.9531.6093 1.6953v3.6485h-.75v-.9063c-.1757.3047-.4375.539-.7851.7149-.3477.164-.7617.246-1.2383.246-.6524 0-1.1758-.1601-1.5703-.4726-.3828-.3164-.5742-.7266-.5742-1.2422 0-.496.1797-.8984.539-1.2031.3594-.3008.9336-.4531 1.7266-.4531h1.8672v-.3672c0-.5-.1485-.8828-.4375-1.1524-.2774-.2695-.6875-.4023-1.2188-.4023-.375 0-.7344.0625-1.082.1914-.3399.1289-.629.2969-.8711.5078l-.3672-.5976c.3008-.25.6524-.4454 1.0625-.5743.4219-.1406.8594-.211 1.3281-.211Zm-.2812 5.3476c.4531 0 .8398-.0976 1.1523-.2968.3203-.211.5625-.5078.7149-.8906v-.961h-1.8477c-1.0039 0-1.5.3477-1.5 1.0469 0 .3398.125.6055.3828.8047.2657.1992.6328.2969 1.0977.2969Zm4.8086-7.7226h.8008v8.2969h-.8008Zm13.25 2.375c.7383 0 1.3242.2187 1.7422.6484.418.418.6289 1.043.6289 1.8672v3.4063h-.8008v-3.336c0-.6015-.1484-1.0664-.4375-1.3789-.293-.3242-.707-.4883-1.2383-.4883-.621 0-1.0976.1875-1.4492.5586-.3477.375-.5234.8907-.5234 1.5547v3.0899h-.7813v-3.336c0-.6015-.1523-1.0664-.4531-1.3789-.293-.3242-.711-.4883-1.2578-.4883-.5938 0-1.0703.1875-1.4297.5586-.3477.375-.5235.8907-.5235 1.5547v3.0899h-.8007v-5.8868h.7656v1.082c.211-.3554.496-.6327.871-.8202.3712-.1953.797-.297 1.2735-.297.5 0 .9297.1056 1.293.3165.3555.207.625.5195.8008.9258.2187-.3867.5273-.6875.9257-.9102.4024-.2187.8711-.332 1.3946-.332Zm6.9219 5.9766c-.5704 0-1.082-.129-1.5352-.3868-.4531-.2539-.8125-.6093-1.0781-1.0664-.2578-.453-.3867-.9648-.3867-1.5351 0-.582.1289-1.1016.3867-1.5547.2656-.4531.625-.8047 1.0781-1.0469.4531-.2539.9648-.3867 1.5352-.3867.5664 0 1.082.1328 1.5351.3867.4531.2422.8086.5938 1.0625 1.0469.254.4531.3867.9726.3867 1.5547 0 .5703-.1328 1.082-.3867 1.5351-.2539.457-.6094.8125-1.0625 1.0664-.4531.2578-.9687.3868-1.5351.3868Zm0-.6993c.418 0 .789-.0937 1.1171-.2812.336-.1953.5977-.4727.7852-.8203.1836-.3477.2773-.7422.2773-1.1875 0-.4531-.0937-.8555-.2773-1.207-.1875-.3477-.4492-.6133-.7852-.8008-.328-.1993-.6992-.297-1.1171-.297-.418 0-.797.0977-1.1329.297-.328.1875-.582.453-.7656.8007-.1875.3516-.2812.754-.2812 1.207 0 .4454.0937.84.2812 1.1876.1836.3476.4375.625.7656.8203.336.1875.7149.2812 1.1329.2812Zm5.3593-4.0899c.1836-.3905.457-.6874.8203-.8905.3711-.1953.8282-.297 1.379-.297v.7696l-.1954-.0156c-.6172 0-1.0976.1914-1.4453.5742-.3476.3828-.5234.918-.5234 1.5899v3.0039h-.8008v-5.8868h.7656Zm6.8125 4.3868c-.1523.129-.3398.2266-.5586.2969a2.2445 2.2445 0 0 1-.6797.1055c-.5585 0-.9882-.1446-1.289-.4375-.293-.3008-.4375-.7266-.4375-1.2774v-3.543h-1.0469v-.6835h1.0469v-1.2735h.7851v1.2734h1.797v.6836h-1.797v3.5079c0 .3515.086.621.2618.8046.1836.1758.4414.2618.7656.2618.164 0 .3203-.0196.4726-.0703a1.407 1.407 0 0 0 .4024-.2266Zm3.4845-5.5742c.7694 0 1.3515.1914 1.7616.5781.4063.3828.6094.9531.6094 1.6953v3.6485h-.75v-.9063c-.1719.3047-.4336.539-.7852.7149-.3476.164-.7617.246-1.2382.246-.6524 0-1.1758-.1601-1.5664-.4726-.3868-.3164-.5782-.7266-.5782-1.2422 0-.496.1797-.8984.543-1.2031.3555-.3008.9336-.4531 1.7266-.4531h1.8632v-.3672c0-.5-.1484-.8828-.4335-1.1524-.2813-.2695-.6915-.4023-1.2227-.4023-.375 0-.7305.0625-1.082.1914-.3399.1289-.625.2969-.8711.5078l-.3672-.5976c.3008-.25.6562-.4454 1.0664-.5743.418-.1406.8594-.211 1.3242-.211Zm-.2774 5.3476c.453 0 .8359-.0976 1.1484-.2968.3242-.211.5625-.5078.7148-.8906v-.961h-1.8476c-1.004 0-1.5.3477-1.5 1.0469 0 .3398.1289.6055.3828.8047.2656.1992.6328.2969 1.1016.2969Zm4.8047-7.7226h.8007v8.2969h-.8007Zm3.0039 2.4102h.8007v5.8867h-.8007Zm.3984-1.2735c-.164 0-.3047-.0547-.418-.1562-.1054-.1172-.1562-.254-.1562-.422 0-.1483.0508-.2773.1562-.3827.1133-.1133.254-.1758.418-.1758.164 0 .2969.0625.4023.1758.1133.1054.1758.2265.1758.3672 0 .1718-.0625.3203-.1758.4375-.1054.1015-.2382.1562-.4023.1562Zm5.707 6.8125c-.1523.129-.3398.2266-.5586.2969a2.2445 2.2445 0 0 1-.6797.1055c-.5585 0-.9921-.1446-1.293-.4375-.289-.3008-.4335-.7266-.4335-1.2774v-3.543h-1.0469v-.6835h1.0469v-1.2735h.7851v1.2734h1.797v.6836h-1.797v3.5079c0 .3515.086.621.2618.8046.1835.1758.4375.2618.7656.2618.1601 0 .3203-.0196.4726-.0703.1485-.0547.2813-.129.3985-.2266Zm6.3634-5.539-2.9298 6.5859c-.246.5586-.5234.9492-.8398 1.1719-.3047.2304-.6758.3476-1.1133.3476-.2813 0-.5508-.0469-.8047-.1406-.2422-.082-.4531-.207-.6289-.3828l.3672-.5938c.3008.289.664.4375 1.082.4375.2656 0 .4922-.078.6797-.2265.1836-.1407.3594-.3946.5234-.754l.2618-.5742-2.6172-5.871h.8203l2.2148 4.996 2.1993-4.996Zm4.8046 1.1522c.1836-.3905.457-.6874.8203-.8905.3672-.1953.8281-.297 1.375-.297v.7696l-.1914-.0156c-.6172 0-1.0977.1914-1.4453.5742-.3516.3828-.5234.918-.5234 1.5899v3.0039h-.8047v-5.8868h.7695Zm8.8164 2.047h-4.8984c.043.6054.2773 1.0976.6953 1.4843.4297.375.9648.5586 1.6054.5586.3711 0 .707-.0625 1.0118-.1914.3007-.1406.5625-.332.7851-.578l.4531.5077c-.2578.3125-.5859.5547-.9765.7149-.3985.164-.8281.246-1.293.246-.6055 0-1.1406-.1288-1.6016-.3867-.4687-.2539-.832-.6093-1.1015-1.0664-.254-.453-.3828-.9648-.3828-1.5351 0-.582.121-1.1016.3672-1.5547.2539-.4531.5976-.8047 1.0273-1.0469.4414-.2539.9336-.3867 1.4844-.3867.543 0 1.0312.1328 1.4648.3867.4258.2422.7656.5938 1.0117 1.0469.2422.4531.3672.9726.3672 1.5547Zm-2.8242-2.5508c-.5703 0-1.0469.1836-1.4297.539-.3828.3633-.6016.836-.6445 1.4141h4.168c-.0626-.5781-.2813-1.0508-.6641-1.414-.3828-.3555-.8633-.5391-1.4297-.5391Zm4.457-3.0586h.8008v8.2969h-.8008Zm5.0586 2.375c.7695 0 1.3516.1914 1.7617.5781.4063.3828.6094.9531.6094 1.6953v3.6485h-.75v-.9063c-.1719.3047-.4336.539-.7852.7149-.3476.164-.7617.246-1.2382.246-.6524 0-1.1758-.1601-1.5664-.4726-.3868-.3164-.5782-.7266-.5782-1.2422 0-.496.1797-.8984.543-1.2031.3555-.3008.9336-.4531 1.7266-.4531h1.8632v-.3672c0-.5-.1484-.8828-.4335-1.1524-.2813-.2695-.6915-.4023-1.2227-.4023-.375 0-.7305.0625-1.082.1914-.3399.1289-.625.2969-.8711.5078l-.3672-.5976c.3008-.25.6562-.4454 1.0664-.5743.418-.1406.8594-.211 1.3242-.211Zm-.2773 5.3476c.453 0 .8359-.0976 1.1484-.2968.3242-.211.5625-.5078.7148-.8906v-.961h-1.8476c-1.004 0-1.5.3477-1.5 1.0469 0 .3398.1289.6055.3828.8047.2656.1992.6328.2969 1.1016.2969Zm7.9101.2266c-.1523.129-.3398.2266-.5586.2969a2.2445 2.2445 0 0 1-.6797.1055c-.5586 0-.9922-.1446-1.293-.4375-.289-.3008-.4335-.7266-.4335-1.2774v-3.543h-1.0469v-.6835h1.0469v-1.2735h.7851v1.2734h1.793v.6836h-1.793v3.5079c0 .3515.086.621.2618.8046.1796.1758.4375.2618.7656.2618.1601 0 .3164-.0196.4726-.0703.1485-.0547.2813-.129.3985-.2266Zm1.4258-5.539h.8008v5.8867h-.8008Zm.4023-1.2735c-.168 0-.3046-.0547-.418-.1562-.1054-.1172-.16-.254-.16-.422 0-.1483.0546-.2773.16-.3827.1134-.1133.25-.1758.418-.1758.1602 0 .297.0625.3985.1758.1133.1054.1758.2265.1758.3672 0 .1718-.0625.3203-.1758.4375-.1016.1015-.2383.1562-.3985.1562Zm7.5352 1.2735-2.6172 5.8867h-.8008l-2.5976-5.8868h.8203l2.1953 5.0157 2.2148-5.0156Zm6.2227 3.1992h-4.8985c.043.6054.2774 1.0976.6953 1.4843.4297.375.9649.5586 1.6055.5586.371 0 .707-.0625 1.0117-.1914.3008-.1406.5625-.332.7852-.578l.4531.5077c-.2578.3125-.586.5547-.9766.7149-.3984.164-.828.246-1.289.246-.6094 0-1.1446-.1288-1.6055-.3867-.4687-.2539-.832-.6093-1.0976-1.0664-.2579-.453-.3868-.9648-.3868-1.5351 0-.582.125-1.1016.3672-1.5547.254-.4531.5977-.8047 1.0313-1.0469.4375-.2539.9297-.3867 1.4804-.3867.543 0 1.0313.1328 1.4649.3867.4258.2422.7656.5938 1.0117 1.0469.2422.4531.3672.9726.3672 1.5547Zm-2.8243-2.5508c-.5703 0-1.0468.1836-1.4296.539-.3829.3633-.6016.836-.6446 1.4141h4.168c-.0625-.5781-.2813-1.0508-.664-1.414-.3829-.3555-.8634-.5391-1.4298-.5391Zm8.1485.5038c.1836-.3905.457-.6874.8203-.8905.371-.1953.8281-.297 1.375-.297v.7696l-.1914-.0156c-.6172 0-1.0977.1914-1.4453.5742-.3516.3828-.5235.918-.5235 1.5899v3.0039h-.8047v-5.8868h.7696Zm3.707-1.1522h.8047v5.8867h-.8047Zm.4024-1.2735c-.168 0-.3047-.0547-.418-.1562-.1055-.1172-.1563-.254-.1563-.422 0-.1483.0508-.2773.1563-.3827.1133-.1133.25-.1758.418-.1758.1601 0 .2968.0625.4023.1758.1133.1054.1719.2265.1719.3672 0 .1718-.0586.3203-.172.4375-.1054.1015-.242.1562-.4022.1562Zm4.1875 7.2149c-.4805 0-.9375-.0625-1.379-.1954-.4296-.1367-.7656-.3125-1.0117-.5234l.3516-.6289c.2422.1875.5469.3477.9219.4727.371.1328.7578.1914 1.168.1914.535 0 .9296-.0782 1.1874-.2422.254-.1758.3828-.4219.3828-.7344 0-.211-.0703-.371-.207-.4883-.1406-.1289-.3242-.2187-.543-.2812-.207-.0703-.496-.1328-.8554-.1914-.4766-.0938-.8633-.1836-1.1485-.2813-.293-.0898-.543-.246-.75-.4687-.1992-.2188-.2968-.5313-.2968-.9258 0-.4922.1992-.8946.6093-1.207.4063-.3125.9766-.4727 1.711-.4727.3828 0 .7578.0547 1.1328.1601.3828.0938.6953.2227.9414.3829l-.3477.6445c-.4804-.336-1.0546-.504-1.7265-.504-.5156 0-.8985.0938-1.1524.2774-.2578.1758-.3828.4102-.3828.6993 0 .2226.0703.4023.207.543.1485.1288.332.2265.543.2968.2188.0586.5235.1172.9063.1719.461.0976.836.1914 1.1172.2812.2851.082.5312.2344.7304.4531.1953.2227.2969.5196.2969.8907 0 .5156-.2188.9218-.6445 1.2226-.418.3086-1.0078.457-1.7618.457Zm6.0507-3.0079-1.3789 1.2774v1.6758h-.8008v-8.297h.8008v5.625l3.5078-3.2148h.9766l-2.5117 2.4102 2.7539 3.4766h-.9766ZM74.6914 24.5938l-2.496-3.5274c-.2774.0352-.5704.0508-.8712.0508H68.379v3.4765h-1.1523v-10.953h4.0976c1.3945 0 2.4844.332 3.2774.996.789.664 1.1875 1.586 1.1875 2.7617 0 .8516-.2188 1.5704-.6446 2.1641-.4336.5938-1.0468 1.0234-1.8476 1.2773l2.668 3.754Zm-3.4023-4.4532c1.082 0 1.9062-.2343 2.4765-.7148.5781-.4922.8711-1.164.8711-2.0274 0-.8828-.293-1.5625-.871-2.043-.5704-.4765-1.3946-.7187-2.4766-.7187h-2.9102v5.504Zm14.1562.6797h-6.871c.0546.8672.3827 1.5547.9765 2.0781.5937.5274 1.3437.7891 2.25.7891.5078 0 .9805-.0898 1.4101-.2617.4297-.1836.8047-.461 1.1172-.8242l.6094.7187c-.3594.4453-.8125.7813-1.3594 1.0117-.5469.2227-1.1445.332-1.7969.332-.8476 0-1.5976-.1757-2.25-.5234-.6523-.3593-1.164-.8593-1.5312-1.5039-.3633-.6367-.543-1.3594-.543-2.164 0-.8047.1758-1.5196.5235-2.1485.3476-.6367.8242-1.1367 1.4297-1.4844.6171-.3593 1.3007-.543 2.0585-.543.7657 0 1.4532.1837 2.0586.543.6016.3477 1.0704.836 1.4102 1.4649.3516.6289.5234 1.3555.5234 2.168Zm-3.9766-3.5625c-.793 0-1.457.2578-1.9882.7695-.5352.5-.836 1.1602-.9063 1.9727h5.8242c-.0703-.8125-.3789-1.4727-.9257-1.9727-.5352-.5117-1.2032-.7695-2.004-.7695Zm6.2618-4.2812h1.0976v11.6172h-1.0976Zm7.0781 3.3203c1.0703 0 1.8906.2695 2.461.8047.5663.5351.8554 1.3359.8554 2.3906v5.1015h-1.0664v-1.2734c-.2422.418-.6094.75-1.0977.9961-.4804.2344-1.0546.3477-1.7265.3477-.9219 0-1.6524-.2149-2.1992-.6446-.5352-.4414-.8008-1.0234-.8008-1.75 0-.6953.25-1.2578.75-1.6758.5117-.4257 1.3164-.6445 2.4258-.6445h2.6132v-.5078c0-.707-.1992-1.246-.5937-1.6055-.3945-.371-.9766-.5586-1.7422-.5586-.5234 0-1.0234.086-1.5.2618-.4805.164-.8906.3945-1.2383.6953l-.4883-.8203c.418-.3555.918-.6329 1.5-.8204.582-.1953 1.1954-.2968 1.8477-.2968Zm-.3984 7.4922c.625 0 1.1601-.1368 1.6015-.418.4531-.289.789-.707 1.0117-1.2578v-1.3438h-2.578c-1.4102 0-2.1134.4961-2.1134 1.4844 0 .4805.1797.8555.543 1.1367.371.2696.879.3985 1.5352.3985Zm11.0664.2969c-.211.1913-.4727.332-.7852.4374-.3047.0938-.625.1407-.961.1407-.7656 0-1.3593-.1993-1.7773-.6094-.418-.4219-.6289-1.0156-.6289-1.7852V17.293h-1.4648v-.9258h1.4648v-1.8008h1.1172v1.8008h2.4922v.9258h-2.4922v4.9258c0 .4882.1211.8632.3672 1.1171.2422.2579.5977.3868 1.0625.3868a2.008 2.008 0 0 0 .6445-.1055c.2188-.0781.4063-.1836.5586-.3164Zm2.0194-7.7188h1.0978v8.2265h-1.0977Zm.5587-1.8008c-.2344 0-.4258-.0742-.5742-.2266-.1524-.1601-.2266-.3515-.2266-.5742 0-.211.0742-.3906.2266-.543.1484-.1601.3398-.246.5742-.246.2305 0 .4219.082.5742.2304.164.1524.2461.332.2461.539 0 .2384-.082.4337-.246.5938-.1524.1524-.3438.2266-.5743.2266Zm10.5508 1.8008-3.664 8.2265h-1.133l-3.6444-8.2265h1.1484l3.0898 7.0039 3.1016-7.004Zm8.7109 4.4531h-6.8672c.0547.8672.3828 1.5547.9766 2.0781.5898.5274 1.3398.7891 2.246.7891.5118 0 .9844-.0898 1.4141-.2617.4258-.1836.8008-.461 1.1172-.8242l.6094.7187c-.3633.4453-.8164.7813-1.3594 1.0117-.5508.2227-1.1484.332-1.7969.332-.8515 0-1.6015-.1757-2.25-.5234-.6523-.3593-1.164-.8593-1.5351-1.5039-.3594-.6367-.539-1.3594-.539-2.164 0-.8047.1718-1.5196.5234-2.1485.3476-.6367.8242-1.1367 1.4297-1.4844.6132-.3593 1.2968-.543 2.0585-.543.7657 0 1.4493.1837 2.0547.543.6016.3477 1.0743.836 1.4141 1.4649.3477.6289.5234 1.3555.5234 2.168Zm-3.9727-3.5625c-.7968 0-1.457.2578-1.9882.7695-.539.5-.8399 1.1602-.9063 1.9727h5.8242c-.0703-.8125-.3789-1.4727-.9257-1.9727-.5352-.5117-1.2032-.7695-2.004-.7695Zm18.0469 7.336-2.496-3.5274c-.2774.0352-.5704.0508-.8712.0508h-2.9453v3.4765h-1.1523v-10.953h4.0976c1.3946 0 2.4844.332 3.2813.996.789.664 1.1836 1.586 1.1836 2.7617 0 .8516-.2188 1.5704-.6446 2.1641-.4335.5938-1.0468 1.0234-1.8476 1.2773l2.668 3.754Zm-3.4023-4.4532c1.082 0 1.9062-.2343 2.4765-.7148.582-.4922.8711-1.164.8711-2.0274 0-.8828-.289-1.5625-.871-2.043-.5704-.4765-1.3946-.7187-2.4766-.7187h-2.9102v5.504Zm7.0077-3.7734h1.0977v8.2265h-1.0976Zm.5587-1.8008c-.2383 0-.4297-.0742-.5781-.2266-.1524-.1601-.2266-.3515-.2266-.5742 0-.211.0742-.3906.2266-.543.1484-.1601.3398-.246.578-.246.2306 0 .422.082.5743.2304.1602.1524.2422.332.2422.539 0 .2384-.082.4337-.2422.5938-.1523.1524-.3437.2266-.5742.2266Zm5.8398 10.0976c-.664 0-1.3047-.0898-1.918-.2812-.6054-.1953-1.082-.4375-1.4296-.7305l.5039-.875c.3476.2696.7773.4883 1.289.6641.5235.1758 1.0704.2617 1.6407.2617.7422 0 1.2968-.1133 1.6562-.3476.3594-.2344.543-.5664.543-.9961 0-.3008-.1016-.543-.2969-.7188-.2031-.1718-.4492-.3008-.75-.3828-.3047-.0898-.707-.1797-1.2031-.2617-.6758-.125-1.2188-.254-1.6211-.3828-.3984-.129-.7422-.3516-1.0313-.664-.293-.3165-.4335-.7423-.4335-1.293 0-.6993.2812-1.2618.8515-1.6954.582-.4414 1.3828-.664 2.4063-.664.5234 0 1.0507.0703 1.5898.211.5313.1405.9649.328 1.3047.5585l-.4688.8906c-.6875-.4648-1.496-.6992-2.4257-.6992-.711 0-1.2461.1328-1.6016.3828-.3633.2461-.543.5742-.543.9805 0 .3125.0977.5664.297.75.2108.1875.4608.3281.7694.418.3008.0859.7188.1718 1.254.2656.6484.1289 1.1718.2539 1.5703.3828.3906.1172.7304.3281 1.0117.629.2773.3046.418.7226.418 1.2577 0 .7227-.3047 1.293-.9063 1.711-.5938.418-1.4219.6289-2.4766.6289Zm8.4765-4.2109-1.9374 1.8008v2.3398h-1.0977V12.9766h1.0977v7.8789l4.918-4.4883h1.3789l-3.5235 3.3555 3.836 4.871h-1.3594Zm8.5548 4.2109c-.664 0-1.3047-.0898-1.918-.2812-.6055-.1953-1.082-.4375-1.4297-.7305l.504-.875c.3476.2696.7773.4883 1.289.6641.5234.1758 1.0703.2617 1.6406.2617.7422 0 1.2969-.1133 1.6563-.3476.3593-.2344.543-.5664.543-.9961 0-.3008-.1016-.543-.297-.7188-.203-.1718-.4492-.3008-.75-.3828-.3046-.0898-.707-.1797-1.203-.2617-.6758-.125-1.2188-.254-1.6212-.3828-.3984-.129-.7421-.3516-1.0312-.664-.293-.3165-.4336-.7423-.4336-1.293 0-.6993.2813-1.2618.8516-1.6954.582-.4414 1.3828-.664 2.4062-.664.5234 0 1.0508.0703 1.5899.211.5312.1405.9648.328 1.3046.5585l-.4687.8906c-.6875-.4648-1.4961-.6992-2.4258-.6992-.711 0-1.246.1328-1.6016.3828-.3632.2461-.543.5742-.543.9805 0 .3125.0977.5664.297.75.2109.1875.4609.3281.7695.418.3008.0859.7187.1718 1.2539.2656.6484.1289 1.1719.2539 1.5703.3828.3906.1172.7305.3281 1.0117.629.2774.3046.418.7226.418 1.2577 0 .7227-.3047 1.293-.9063 1.711-.5937.418-1.4218.6289-2.4765.6289Zm12.414-8.3671c1.0665 0 1.8868.2695 2.457.8047.5665.5351.8555 1.3359.8555 2.3906v5.1015h-1.0625v-1.2734c-.246.418-.6093.75-1.0976.9961-.4805.2344-1.0586.3477-1.7266.3477-.9219 0-1.6523-.2149-2.1992-.6446-.5351-.4414-.8008-1.0234-.8008-1.75 0-.6953.2461-1.2578.75-1.6758.5078-.4257 1.3164-.6445 2.4219-.6445h2.6172v-.5078c0-.707-.1992-1.246-.5938-1.6055-.3945-.371-.9765-.5586-1.7422-.5586-.5234 0-1.0273.086-1.5.2618-.4804.164-.8906.3945-1.2382.6953l-.4883-.8203c.418-.3555.914-.6329 1.5-.8204.5781-.1953 1.1914-.2968 1.8476-.2968Zm-.4023 7.4922c.629 0 1.1602-.1368 1.6055-.418.453-.289.789-.707 1.0117-1.2578v-1.3438h-2.582c-1.4063 0-2.1094.4961-2.1094 1.4844 0 .4805.1797.8555.539 1.1367.3711.2696.8829.3985 1.5352.3985Zm10.9297-7.4922c1.0312 0 1.8516.3047 2.457.9101.6016.5938.9063 1.4649.9063 2.6172v4.7695h-1.0977v-4.664c0-.8477-.2187-1.5-.6445-1.957-.4336-.4532-1.043-.6797-1.832-.6797-.8829 0-1.586.2695-2.1094.8047-.5156.5234-.7656 1.2539-.7656 2.1836v4.3124h-1.1016v-8.2265h1.0664v1.5195c.3008-.496.7187-.8906 1.2539-1.1719.5313-.2773 1.1563-.418 1.8672-.418Zm13.8906-3.3203v11.6172h-1.0625v-1.625c-.3398.5507-.7812.9687-1.3242 1.2578-.5508.293-1.164.4375-1.8477.4375-.7695 0-1.4648-.1758-2.0937-.5235-.629-.3515-1.125-.8437-1.4844-1.4843-.3476-.6368-.5234-1.3672-.5234-2.1836 0-.8125.1758-1.5391.5234-2.168.3594-.6367.8555-1.1328 1.4844-1.4844.6289-.3476 1.3242-.5234 2.0937-.5234.6602 0 1.2578.1406 1.793.418.5469.2812.9883.6835 1.3281 1.207v-4.9453Zm-4.1484 10.7109c.5781 0 1.0976-.1328 1.5508-.4023.4609-.2657.828-.6485 1.0976-1.1368.2656-.4882.4024-1.0468.4024-1.6757 0-.6172-.1368-1.172-.4024-1.6602-.2695-.496-.6367-.879-1.0976-1.1367-.4532-.2656-.9727-.3985-1.5508-.3985-.586 0-1.1094.1329-1.5703.3985-.4649.2578-.832.6406-1.0977 1.1367-.2578.4883-.3828 1.043-.3828 1.6602 0 .6289.125 1.1875.3828 1.6757.2656.4883.6328.8711 1.0977 1.1368.4609.2695.9843.4023 1.5703.4023Zm11.5664-10.0469h1.1484v9.957h6.1406v.9962h-7.289Zm8.9726 2.7266h1.1016v8.2265h-1.1016Zm.5586-1.8008c-.2343 0-.4257-.0742-.5742-.2266-.1523-.1601-.2266-.3515-.2266-.5742 0-.211.0743-.3906.2266-.543.1484-.1601.3399-.246.5742-.246.2305 0 .422.082.5743.2304.164.1524.246.332.246.539 0 .2384-.082.4337-.246.5938-.1524.1524-.3438.2266-.5743.2266Zm6.3633-.7304c-.4883 0-.8516.1327-1.0976.3984-.2422.2578-.3672.6445-.3672 1.1562v.9766h2.5312v.9258h-2.496v7.3008h-1.1134V17.293h-1.4648v-.9258h1.4648v-1.0313c0-.7422.211-1.332.6446-1.7617.4375-.4414 1.0547-.664 1.8476-.664.3125 0 .6133.0468.9063.1367.289.086.5312.207.7344.3672l-.3868.8398c-.3125-.2812-.7148-.418-1.203-.418Zm9.7266 6.9843h-6.8711c.0547.8672.3828 1.5547.9765 2.0781.5938.5274 1.3438.7891 2.25.7891.5079 0 .9805-.0898 1.4102-.2617.4297-.1836.8047-.461 1.1172-.8242l.6094.7187c-.3594.4453-.8125.7813-1.3594 1.0117-.5469.2227-1.1445.332-1.7969.332-.8476 0-1.5976-.1757-2.25-.5234-.6523-.3593-1.164-.8593-1.5312-1.5039-.3633-.6367-.543-1.3594-.543-2.164 0-.8047.1758-1.5196.5234-2.1485.3477-.6367.8243-1.1367 1.4297-1.4844.6172-.3593 1.3008-.543 2.0586-.543.7656 0 1.4531.1837 2.0586.543.6016.3477 1.0703.836 1.4102 1.4649.3515.6289.5234 1.3555.5234 2.168Zm-3.9766-3.5625c-.793 0-1.457.2578-1.9883.7695-.5351.5-.836 1.1602-.9062 1.9727h5.8242c-.0703-.8125-.379-1.4727-.9258-1.9727-.5351-.5117-1.2031-.7695-2.0039-.7695Zm18.3281 6.3399v.996h-7.7422v-10.953h7.4961v.996h-6.3476v3.8946h5.668v.996h-5.668v4.0704Zm7.711.9961-2.6133-3.4415-2.6172 3.4414h-1.2539l3.2422-4.2265-3.086-4h1.254l2.4609 3.2148 2.4766-3.2148h1.2187l-3.1016 4 3.2774 4.2265Zm7.3516-8.2969c.7656 0 1.453.1758 2.0742.5234.625.3516 1.1132.8477 1.4648 1.4844.3555.6289.539 1.3555.539 2.168 0 .828-.1835 1.5625-.539 2.1992-.3516.6289-.832 1.1172-1.4492 1.4687-.6172.3477-1.3164.5235-2.0899.5235-.6757 0-1.2851-.1329-1.8164-.4024-.5351-.2773-.9765-.6836-1.3242-1.2226v4.5937h-1.0976V16.3672h1.0625v1.625c.3242-.5469.7578-.9649 1.3086-1.2578.543-.289 1.168-.4375 1.8671-.4375Zm-.09 7.3906c.5665 0 1.086-.1328 1.5548-.4023.4726-.2657.8437-.6485 1.1133-1.1368.2656-.4882.4023-1.0468.4023-1.6757 0-.6172-.1367-1.172-.4023-1.6602-.2696-.4883-.6407-.8633-1.1133-1.1367-.4688-.2656-.9883-.3985-1.5547-.3985-.582 0-1.1055.1329-1.5703.3985-.4649.2734-.832.6484-1.0977 1.1367-.2695.4883-.4023 1.043-.4023 1.6602 0 .6289.1328 1.1875.4023 1.6757.2656.4883.6328.8711 1.0977 1.1368.4648.2695.9883.4023 1.5703.4023Zm13.5938-2.8672h-6.871c.0546.8672.3828 1.5547.9765 2.0781.5938.5274 1.3399.7891 2.25.7891.5078 0 .9805-.0898 1.4102-.2617.4297-.1836.8047-.461 1.1172-.8242l.6093.7187c-.3593.4453-.8164.7813-1.3593 1.0117-.5508.2227-1.1485.332-1.797.332-.8476 0-1.5976-.1757-2.25-.5234-.6523-.3593-1.164-.8593-1.535-1.5039-.3594-.6367-.5391-1.3594-.5391-2.164 0-.8047.1757-1.5196.5234-2.1485.3477-.6367.8242-1.1367 1.4297-1.4844.6133-.3593 1.3008-.543 2.0586-.543.7656 0 1.4492.1837 2.0586.543.6015.3477 1.0703.836 1.4101 1.4649.3477.6289.5235 1.3555.5235 2.168Zm-3.9765-3.5625c-.793 0-1.457.2578-1.9883.7695-.5352.5-.836 1.1602-.9063 1.9727h5.8243c-.0703-.8125-.379-1.4727-.9258-1.9727-.5352-.5117-1.2031-.7695-2.004-.7695Zm9.6601 7.4062c-.8125 0-1.543-.1757-2.1796-.5234-.6407-.3515-1.1446-.8437-1.5157-1.4843-.3633-.6524-.539-1.379-.539-2.1836 0-.8047.1757-1.5196.539-2.1485.3711-.6367.875-1.1367 1.5156-1.4844.6368-.3593 1.3672-.543 2.1797-.543.707 0 1.3438.1407 1.9024.418.5586.2813 1 .6836 1.3242 1.207l-.836.5782c-.2695-.4063-.6093-.711-1.0273-.9102-.418-.2109-.875-.3125-1.3633-.3125-.5898 0-1.1289.1329-1.6015.3985-.4805.2578-.8516.6406-1.1172 1.1367-.2578.4883-.3828 1.043-.3828 1.6602 0 .6406.125 1.203.3828 1.6953.2656.4804.6367.8515 1.1172 1.1172.4726.2695 1.0117.4023 1.6015.4023.4883 0 .9454-.0977 1.3633-.2969.418-.1992.7578-.5 1.0274-.9101l.8359.5586c-.3242.539-.7734.9453-1.3398 1.2226-.5586.2695-1.1875.4024-1.8868.4024Zm9.7226-.578c-.2108.1913-.4726.332-.785.4374-.3048.0938-.625.1407-.961.1407-.7656 0-1.3594-.1993-1.7773-.6094-.418-.4219-.629-1.0156-.629-1.7852V17.293h-1.4648v-.9258h1.4649v-1.8008h1.1171v1.8008h2.4922v.9258h-2.4922v4.9258c0 .4882.1211.8632.3672 1.1171.2422.2579.5977.3868 1.0625.3868a2.008 2.008 0 0 0 .6446-.1055c.2187-.0781.4062-.1836.5586-.3164Zm4.8985-7.7891c1.0664 0 1.8868.2695 2.457.8047.5665.5351.8555 1.3359.8555 2.3906v5.1015h-1.0664v-1.2734c-.2422.418-.6094.75-1.0976.9961-.4805.2344-1.0547.3477-1.7266.3477-.918 0-1.6523-.2149-2.1953-.6446-.539-.4414-.8047-1.0234-.8047-1.75 0-.6953.25-1.2578.75-1.6758.5117-.4257 1.3164-.6445 2.4258-.6445h2.6133v-.5078c0-.707-.1993-1.246-.5899-1.6055-.3984-.371-.9765-.5586-1.746-.5586-.5235 0-1.0235.086-1.5.2618-.4766.164-.8868.3945-1.2384.6953l-.4882-.8203c.4218-.3555.918-.6329 1.5-.8204.582-.1953 1.1953-.2968 1.8515-.2968Zm-.4023 7.4922c.6289 0 1.1601-.1368 1.6055-.418.453-.289.789-.707 1.0078-1.2578v-1.3438h-2.5782c-1.4101 0-2.1093.4961-2.1093 1.4844 0 .4805.1757.8555.539 1.1367.3711.2696.879.3985 1.5352.3985Zm10.9258-7.4922c1.0351 0 1.8554.3047 2.461.9101.6015.5938.9062 1.4649.9062 2.6172v4.7695h-1.0977v-4.664c0-.8477-.2188-1.5-.6445-1.957-.4336-.4532-1.043-.6797-1.832-.6797-.8868 0-1.586.2695-2.1094.8047-.5157.5234-.7696 1.2539-.7696 2.1836v4.3124h-1.0976v-8.2265h1.0625v1.5195c.3008-.496.7187-.8906 1.2578-1.1719.5312-.2773 1.1523-.418 1.8633-.418Zm9.7968 8.3671c-.8164 0-1.543-.1757-2.1796-.5234-.6407-.3515-1.1485-.8437-1.5196-1.4843-.3594-.6524-.539-1.379-.539-2.1836 0-.8047.1796-1.5196.539-2.1485.3711-.6367.879-1.1367 1.5196-1.4844.6367-.3593 1.3632-.543 2.1796-.543.707 0 1.3438.1407 1.8985.418.5586.2813 1 .6836 1.3281 1.207l-.8398.5782c-.2696-.4063-.6094-.711-1.0274-.9102-.418-.2109-.871-.3125-1.3594-.3125-.5937 0-1.1289.1329-1.6054.3985-.4805.2578-.8516.6406-1.1172 1.1367-.254.4883-.3828 1.043-.3828 1.6602 0 .6406.1289 1.203.3828 1.6953.2656.4804.6367.8515 1.1172 1.1172.4765.2695 1.0117.4023 1.6054.4023.4883 0 .9414-.0977 1.3594-.2969.418-.1992.7578-.5 1.0274-.9101l.8398.5586c-.3281.539-.7773.9453-1.3437 1.2226-.5586.2695-1.1875.4024-1.8829.4024Zm12.3008-8.2968-4.1172 9.207c-.3398.7774-.7265 1.3242-1.168 1.6406-.4296.3243-.953.4883-1.5702.4883-.3946 0-.7657-.0664-1.1133-.1914-.3399-.1172-.629-.3047-.875-.5586l.5078-.8203c.418.418.914.629 1.5.629.371 0 .6875-.1056.957-.3165.2656-.211.5156-.5664.75-1.0664l.3516-.8008-3.664-8.211h1.1523l3.1015 6.9884 3.0899-6.9883Zm0 0"/><path style="fill:none;stroke-width:9525;stroke-linecap:butt;stroke-linejoin:round;stroke:#4472c4;stroke-opacity:1;stroke-miterlimit:10" d="M25419.0355-11.722v63502.4757M-6.35 25415.894h63519.0139" transform="translate(293.192 43.04) scale(.00009)"/><path style="stroke:none;fill-rule:nonzero;fill:#000;fill-opacity:1" d="M303.496 48.125c-.5233 0-1.0233-.082-1.5-.246-.4804-.1602-.8515-.383-1.117-.6642l.2968-.578c.2539.2577.5937.4687 1.0117.6288.418.1563.8555.2305 1.3086.2305.6289 0 1.0976-.1172 1.4101-.3516.3165-.2304.4727-.5273.4727-.8906 0-.2773-.086-.496-.2617-.664-.164-.1758-.375-.3047-.629-.4024-.2421-.0898-.5859-.1914-1.0273-.2969-.5234-.1406-.9492-.2656-1.2734-.3828-.3125-.1289-.582-.3203-.8008-.5781-.2226-.254-.332-.5977-.332-1.0313 0-.3554.0898-.6836.2773-.9765.1836-.289.4727-.5235.8555-.6992.3945-.1758.875-.2618 1.4492-.2618.4024 0 .8008.0625 1.1836.1758.3828.1055.7149.2578.9961.4531l-.246.5938a3.3875 3.3875 0 0 0-.9415-.4375c-.3398-.0898-.6719-.1367-.9922-.1367-.621 0-1.082.121-1.3984.3633-.3047.2382-.4531.539-.4531.9101 0 .2813.078.5078.246.6797.1758.168.3868.293.6446.3867.2656.0938.6133.1914 1.0469.2969.5117.1289.9257.2578 1.2382.3828.3204.1172.5977.3047.8204.5586.2187.2578.332.5938.332 1.0156 0 .3594-.1016.6875-.2969.9766-.1875.293-.4805.5234-.875.6992-.3945.164-.8789.2461-1.4453.2461Zm7.3946-.3672c-.1406.1172-.3086.207-.5078.2774-.1992.0585-.3984.0898-.6094.0898-.5 0-.8828-.1328-1.1523-.4023-.2695-.2696-.3984-.6485-.3984-1.1368v-3.1953h-.9414v-.6133h.9414V41.625h.7148v1.1523h1.6055v.6133h-1.6055v3.1446c0 .3242.0742.5703.2266.7304.1601.168.3867.2461.6796.2461.1485 0 .297-.0234.4375-.0703a.835.835 0 0 0 .3477-.211Zm2.4102-5.0156c.6836 0 1.211.1758 1.586.5234.371.3438.5585.8477.5585 1.5196v3.2851h-.6797V47.25c-.168.2695-.4023.4844-.7148.6445-.3164.1563-.6914.2305-1.1172.2305-.582 0-1.0469-.1406-1.3945-.4219-.3477-.289-.5235-.664-.5235-1.1172 0-.453.1602-.8125.4883-1.082.3242-.2812.8399-.4219 1.5508-.4219h1.6758v-.332c0-.4531-.1328-.793-.3828-1.0273-.2579-.2461-.629-.3672-1.1172-.3672-.3399 0-.664.0586-.9766.1718-.3047.1055-.5664.2579-.7851.457l-.3125-.5234c.2656-.2343.582-.4062.957-.5273.371-.125.7695-.1914 1.1875-.1914Zm-.2461 4.8203c.3945 0 .7383-.0898 1.0312-.2773.2852-.1836.504-.4532.6446-.8047v-.8711h-1.6563c-.9062 0-1.3594.3203-1.3594.961 0 .3046.1133.5468.3477.7304.2305.1758.5625.2617.9922.2617Zm5.7734-3.7539c.1758-.3477.4219-.6094.75-.7852.336-.1836.75-.2812 1.2383-.2812v.6836h-.1758c-.5547 0-.9922.1719-1.3047.5234-.3164.3399-.4726.8164-.4726 1.4297v2.6914h-.7149v-5.293h.6797Zm0 0"/><path style="stroke:none;fill-rule:nonzero;fill:#000;fill-opacity:1" d="M324.289 47.7578c-.1367.1172-.3085.207-.5038.2774a2.1508 2.1508 0 0 1-.6094.0898c-.504 0-.8867-.1328-1.1524-.4023-.2695-.2696-.4023-.6485-.4023-1.1368v-3.1953h-.9414v-.6133h.9414V41.625h.7148v1.1523h1.6055v.6133h-1.6055v3.1446c0 .3242.0743.5703.2266.7304.164.168.3906.2461.6836.2461.1445 0 .293-.0234.4336-.0703.1406-.043.2539-.1133.3476-.211Zm1.6798-4.9805h.7148v5.293h-.7149Zm.3632-1.1523c-.1367 0-.2617-.043-.3632-.1406-.1055-.1055-.1602-.2305-.1602-.3828 0-.129.0547-.2344.1601-.332.1016-.1055.2266-.1563.3633-.1563.1485 0 .2735.0469.3672.1367.1055.0977.1563.211.1563.3516 0 .1523-.0508.2773-.1563.3828-.0937.0976-.2187.1406-.3672.1406Zm4.547 1.1172c.664 0 1.1913.1914 1.5858.5781.3946.3828.5938.9414.5938 1.6758v3.0742h-.7149v-3.0039c0-.5469-.1406-.961-.418-1.2422-.2695-.2851-.6562-.4336-1.1679-.4336-.5703 0-1.0234.168-1.3594.504-.328.3437-.4882.8046-.4882 1.3984v2.7773h-.7149v-5.293h.6797v.9805c.1953-.3242.461-.5781.8008-.7539.3476-.1719.75-.2617 1.2031-.2617Zm8.914.0351v4.6485c0 .8945-.2227 1.5586-.664 1.9883-.4454.4414-1.1095.664-1.9884.664a4.3478 4.3478 0 0 1-1.3945-.2265c-.4336-.1407-.7852-.3399-1.0664-.5938l.3672-.539c.2539.2148.5625.3906.9258.5234.3554.125.7421.1914 1.1484.1914.664 0 1.1523-.1563 1.4648-.4727.3243-.3047.4883-.7851.4883-1.4492v-.664c-.2187.3398-.5117.5937-.871.7695-.3594.164-.7579.2422-1.1837.2422-.5039 0-.957-.1016-1.3632-.3125-.4063-.2188-.7266-.5235-.957-.9102-.2345-.3906-.3477-.8398-.3477-1.3437 0-.4961.1132-.9414.3476-1.3282.2305-.3828.543-.6796.9414-.8906.4063-.2187.8633-.332 1.379-.332.4374 0 .8398.0976 1.203.2812.3555.1758.6485.4297.8712.7696v-1.0157Zm-2.7032 4.4532c.3672 0 .7032-.0782 1.0079-.2422.3164-.1602.5586-.3906.7343-.6836.1758-.3008.2618-.6367.2618-1.0117 0-.3711-.086-.7032-.2618-.9961-.1757-.289-.414-.5157-.7148-.6797-.3047-.1758-.6445-.2617-1.0274-.2617-.3867 0-.7343.082-1.0468.2422-.3047.168-.543.3984-.7149.6992-.168.293-.246.625-.246.996 0 .375.078.711.246 1.0118.1719.293.4102.5234.7149.6836.3125.164.6601.2422 1.0468.2422Zm9.6992-4.4883c.6837 0 1.211.1758 1.586.5234.371.3438.5586.8477.5586 1.5196v3.2851h-.6797V47.25c-.168.2695-.4023.4844-.7148.6445-.3164.1563-.6914.2305-1.1172.2305-.586 0-1.0469-.1406-1.3946-.4219-.3476-.289-.5234-.664-.5234-1.1172 0-.453.1602-.8125.4883-1.082.3242-.2812.8398-.4219 1.5508-.4219h1.6757v-.332c0-.4531-.1328-.793-.3828-1.0273-.2578-.2461-.6289-.3672-1.1171-.3672-.3399 0-.6641.0586-.9766.1718-.3047.1055-.5664.2579-.7852.457l-.3125-.5234c.2657-.2343.582-.4062.957-.5273.3712-.125.7696-.1914 1.1876-.1914Zm-.246 4.8203c.3945 0 .7382-.0898 1.0312-.2773.2852-.1836.504-.4532.6445-.8047v-.8711h-1.6562c-.9063 0-1.3633.3203-1.3633.961 0 .3046.1172.5468.3516.7304.2305.1758.5625.2617.9922.2617Zm6.7695.1953c-.1406.1172-.3086.207-.5078.2774-.1992.0585-.3985.0898-.6094.0898-.5 0-.8867-.1328-1.1523-.4023-.2696-.2696-.3985-.6485-.3985-1.1368v-3.1953h-.9414v-.6133h.9414V41.625h.7149v1.1523h1.6015v.6133h-1.6015v3.1446c0 .3242.0742.5703.2265.7304.1602.168.3868.2461.6797.2461a1.385 1.385 0 0 0 .4375-.0703.835.835 0 0 0 .3477-.211Zm5.75-5.0156c.6836 0 1.2148.1758 1.5898.5234.3672.3438.5547.8477.5547 1.5196v3.2851h-.6797V47.25c-.164.2695-.3984.4844-.7148.6445-.3125.1563-.6875.2305-1.1133.2305-.586 0-1.0469-.1406-1.3984-.4219-.3477-.289-.5235-.664-.5235-1.1172 0-.453.1641-.8125.4883-1.082.3242-.2812.8438-.4219 1.5547-.4219h1.6719v-.332c0-.4531-.129-.793-.3828-1.0273-.2578-.2461-.629-.3672-1.1172-.3672-.3399 0-.6602.0586-.9766.1718-.3047.1055-.5664.2579-.7812.457l-.3164-.5234c.2656-.2343.586-.4062.961-.5273.371-.125.7655-.1914 1.1835-.1914Zm-.2422 4.8203c.3906 0 .7344-.0898 1.0274-.2773.289-.1836.5078-.4532.6445-.8047v-.8711h-1.6563c-.9062 0-1.3593.3203-1.3593.961 0 .3046.1132.5468.3476.7304.2305.1758.5625.2617.9961.2617Zm8.875-4.7852v4.6485c0 .8945-.2187 1.5586-.6601 1.9883-.4454.4414-1.1094.664-1.9883.664-.4883 0-.957-.0781-1.3946-.2265-.4336-.1407-.7851-.3399-1.0664-.5938l.3672-.539c.254.2148.5625.3906.9258.5234.3555.125.7422.1914 1.1484.1914.6641 0 1.1524-.1563 1.4649-.4727.3242-.3047.4883-.7851.4883-1.4492v-.664c-.2188.3398-.5118.5937-.8711.7695-.3594.164-.7578.2422-1.1836.2422-.504 0-.957-.1016-1.3633-.3125-.4063-.2188-.7266-.5235-.957-.9102-.2344-.3906-.3477-.8398-.3477-1.3437 0-.4961.1133-.9414.3477-1.3282.2304-.3828.543-.6796.9414-.8906.4062-.2187.8633-.332 1.3789-.332.4375 0 .8398.0976 1.2031.2812.3555.1758.6484.4297.8711.7696v-1.0157Zm-2.6992 4.4532c.3672 0 .7031-.0782 1.0078-.2422.3164-.1602.5586-.3906.7344-.6836.1758-.3008.2617-.6367.2617-1.0117 0-.3711-.086-.7032-.2617-.9961-.1758-.289-.414-.5157-.7149-.6797-.3046-.1758-.6445-.2617-1.0273-.2617-.3867 0-.7344.082-1.0469.2422-.3047.168-.543.3984-.7148.6992-.168.293-.2461.625-.2461.996 0 .375.0781.711.246 1.0118.172.293.4102.5234.715.6836.3124.164.66.2422 1.0468.2422Zm10.2149-1.586h-4.4298c.047.547.2618.9922.6485 1.3438.3828.3398.8633.5078 1.4453.5078.3242 0 .621-.0586.8906-.1758.2774-.1289.5156-.3008.7149-.5234l.4023.4531c-.2383.293-.5234.5156-.875.664-.3476.1407-.7383.211-1.168.211-.5351 0-1.0117-.1172-1.4296-.3516-.418-.2304-.75-.5507-.9922-.9609-.2383-.4063-.3516-.8633-.3516-1.379 0-.5233.1094-.9882.332-1.3983.2305-.4063.543-.7188.9258-.9415.3906-.2343.8399-.3515 1.3438-.3515.4882 0 .9218.1172 1.3047.3516.3867.2226.6875.5351.9101.9414.2149.4101.3281.875.3281 1.3984Zm-2.543-2.289c-.5157 0-.9414.164-1.293.4883-.3477.328-.5469.75-.5938 1.2734h3.75c-.0468-.5234-.2421-.9453-.5937-1.2734-.3398-.3243-.7617-.4883-1.2695-.4883Zm7.668.6992c.7304.0351 1.289.2344 1.6718.5937.3945.3594.5938.8282.5938 1.3946 0 .4101-.0977.7695-.297 1.086-.1991.3046-.4882.5507-.871.7304-.375.1758-.836.2656-1.3945.2656-.5 0-.9766-.082-1.4297-.246-.4531-.1602-.8203-.375-1.0977-.6485l.3477-.5742c.2422.246.5586.4453.9414.5937.3828.1406.793.211 1.2383.211.578 0 1.0273-.125 1.3437-.3672.3125-.254.4688-.6055.4688-1.0508 0-.4258-.1563-.7657-.4688-1.0117-.3164-.254-.793-.3829-1.4297-.3829h-.5078v-.5234l1.9531-2.4492h-3.5898v-.6446h4.5156v.5079Zm6 4.0703c-.5508 0-1.0391-.1406-1.465-.4219-.4179-.289-.75-.7031-.992-1.2383-.2384-.5468-.3517-1.1875-.3517-1.9218 0-.7227.1133-1.3516.3516-1.8867.2422-.547.5742-.9649.9922-1.2579.4258-.289.914-.4375 1.4648-.4375.5313 0 1.0118.1485 1.4297.4375.4258.293.7656.711 1.0117 1.2578.2422.5352.3672 1.1641.3672 1.8868 0 .7343-.125 1.375-.3672 1.9218-.246.5352-.5859.9493-1.0117 1.2383-.418.2813-.8984.4219-1.4297.4219Zm0-.664c.4062 0 .7577-.1094 1.0624-.332.3164-.2345.5586-.5665.7344-.9962.1719-.4414.2617-.9687.2617-1.5898 0-.6172-.0898-1.1407-.2617-1.5742-.1758-.4258-.418-.7579-.7344-.9961-.3046-.2305-.6562-.3477-1.0625-.3477-.4101 0-.7656.1172-1.082.3477-.3125.2382-.5586.5703-.7305.996-.1757.4336-.2617.957-.2617 1.5743 0 .621.086 1.1484.2617 1.5898.172.4297.418.7617.7305.9961.3164.2227.6719.332 1.082.332Zm0 0"/><path style="fill:none;stroke-width:9525;stroke-linecap:butt;stroke-linejoin:round;stroke:#ed7d31;stroke-opacity:1;stroke-miterlimit:10" d="M63512.6638 63506.6622-6.35 4.1864m0 63502.4758L63512.6638 4.1864" transform="translate(293.192 58.691) scale(.00009)"/><path style="stroke:none;fill-rule:nonzero;fill:#000;fill-opacity:1" d="M303.496 63.7734c-.5233 0-1.0233-.078-1.5-.2422-.4804-.164-.8515-.3867-1.117-.664l.2968-.5781c.2539.2578.5937.4687 1.0117.6289.418.1523.8555.2265 1.3086.2265.6289 0 1.0976-.1133 1.4101-.3476.3165-.2305.4727-.5313.4727-.8907 0-.2812-.086-.5-.2617-.664-.164-.1758-.375-.3047-.629-.4024-.2421-.0937-.5859-.1914-1.0273-.2968-.5234-.1407-.9492-.2657-1.2734-.3828-.3125-.129-.582-.3204-.8008-.5782-.2226-.2539-.332-.5976-.332-1.0312 0-.3594.0898-.6836.2773-.9766.1836-.289.4727-.5234.8555-.6992.3945-.1758.875-.2617 1.4492-.2617a4.17 4.17 0 0 1 1.1836.1719c.3828.1054.7149.2578.9961.457l-.246.5937c-.293-.1992-.6056-.3398-.9415-.4375-.3398-.0898-.6719-.1406-.9922-.1406-.621 0-1.082.125-1.3984.3672-.3047.2344-.4531.539-.4531.9102 0 .2773.078.5039.246.6796.1758.168.3868.293.6446.3829.2656.0976.6133.1953 1.0469.2968.5117.1328.9257.2578 1.2382.3867.3204.1172.5977.3047.8204.5586.2187.2579.332.5938.332 1.0118 0 .3632-.1016.6914-.2969.9804-.1875.293-.4805.5235-.875.6992-.3945.1641-.8789.2422-1.4453.2422Zm7.3946-.3671c-.1406.1171-.3086.2109-.5078.2812-.1992.0547-.3984.086-.6094.086-.5 0-.8828-.129-1.1523-.4024-.2695-.2656-.3984-.6445-.3984-1.1328V59.039h-.9414v-.6094h.9414v-1.1524h.7148v1.1524h1.6055v.6094h-1.6055v3.1445c0 .3281.0742.5742.2266.7344.1601.168.3867.246.6796.246.1485 0 .297-.0234.4375-.0703a.835.835 0 0 0 .3477-.2109Zm2.4102-5.0118c.6836 0 1.211.1758 1.586.5235.371.3398.5585.8476.5585 1.5195v3.2852h-.6797v-.8204c-.168.2696-.4023.4844-.7148.6446-.3164.1523-.6914.2265-1.1172.2265-.582 0-1.0469-.1406-1.3945-.418-.3477-.289-.5235-.664-.5235-1.1171 0-.457.1602-.8125.4883-1.086.3242-.2773.8399-.418 1.5508-.418h1.6758v-.332c0-.453-.1328-.793-.3828-1.0312-.2579-.2422-.629-.3672-1.1172-.3672-.3399 0-.664.0625-.9766.1758-.3047.1055-.5664.2578-.7851.4531l-.3125-.5234c.2656-.2305.582-.4063.957-.5235.371-.125.7695-.1914 1.1875-.1914Zm-.2461 4.8203c.3945 0 .7383-.0898 1.0312-.2773.2852-.1836.504-.457.6446-.8047v-.875h-1.6563c-.9062 0-1.3594.3242-1.3594.961 0 .3046.1133.5507.3477.7343.2305.1758.5625.2617.9922.2617Zm5.7734-3.7538c.1758-.3516.4219-.6133.75-.7891.336-.1836.75-.2774 1.2383-.2774v.6797h-.1758c-.5547 0-.9922.1758-1.3047.5235-.3164.3437-.4726.8164-.4726 1.4335v2.6915h-.7149v-5.293h.6797Zm0 0"/><path style="stroke:none;fill-rule:nonzero;fill:#000;fill-opacity:1" d="M324.289 63.4063c-.1367.1171-.3085.2109-.5038.2812-.1993.0547-.4024.086-.6094.086-.504 0-.8867-.129-1.1524-.4024-.2695-.2656-.4023-.6445-.4023-1.1328V59.039h-.9414v-.6094h.9414v-1.1524h.7148v1.1524h1.6055v.6094h-1.6055v3.1445c0 .3281.0743.5742.2266.7344.164.168.3906.246.6836.246.1445 0 .293-.0234.4336-.0703.1406-.043.2539-.1132.3476-.2109Zm1.6798-4.9766h.7148v5.293h-.7149Zm.3632-1.1524c-.1367 0-.2617-.043-.3632-.1406-.1055-.1054-.1602-.2304-.1602-.3828 0-.1289.0547-.2383.1601-.332.1016-.1055.2266-.1602.3633-.1602.1485 0 .2735.0508.3672.1406.1055.0977.1563.211.1563.3516 0 .1523-.0508.2773-.1563.3828-.0937.0977-.2187.1406-.3672.1406Zm4.547 1.1172c.664 0 1.1913.1914 1.5858.5742.3946.3868.5938.9454.5938 1.6797v3.0743h-.7149v-3.004c0-.5468-.1406-.9609-.418-1.2421-.2695-.2891-.6562-.4375-1.1679-.4375-.5703 0-1.0234.1718-1.3594.5078-.328.3398-.4882.8047-.4882 1.3984v2.7774h-.7149v-5.293h.6797v.9766c.1953-.3204.461-.5743.8008-.75.3476-.1758.75-.2618 1.2031-.2618Zm8.914.0352v4.6445c0 .8946-.2227 1.5586-.664 1.9922-.4454.4414-1.1095.664-1.9884.664a4.3478 4.3478 0 0 1-1.3945-.2265c-.4336-.1406-.7852-.3398-1.0664-.5937l.3672-.543c.2539.2187.5625.3945.9258.5234.3554.129.7421.1953 1.1484.1953.664 0 1.1523-.1601 1.4648-.4726.3243-.3047.4883-.7852.4883-1.4492V62.5c-.2187.3398-.5117.5938-.871.7656-.3594.168-.7579.2461-1.1837.2461-.5039 0-.957-.1054-1.3632-.3125-.4063-.2187-.7266-.5273-.957-.9101-.2345-.3946-.3477-.8438-.3477-1.3438 0-.5.1132-.9453.3476-1.3281.2305-.3828.543-.6797.9414-.8906.4063-.2188.8633-.332 1.379-.332.4374 0 .8398.0937 1.203.2773.3555.1758.6485.4336.8712.7695v-1.0117Zm-2.7032 4.4531c.3672 0 .7032-.0781 1.0079-.2422.3164-.164.5586-.3906.7343-.6836.1758-.3008.2618-.6367.2618-1.0117 0-.371-.086-.7031-.2618-.996-.1757-.2891-.414-.5157-.7148-.6837-.3047-.1718-.6445-.2617-1.0274-.2617-.3867 0-.7343.086-1.0468.2461-.3047.164-.543.3984-.7149.6992-.168.293-.246.625-.246.9961 0 .375.078.711.246 1.0117.1719.293.4102.5196.7149.6836.3125.164.6601.2422 1.0468.2422Zm9.6992-4.4883c.6837 0 1.211.1758 1.586.5235.371.3398.5586.8476.5586 1.5195v3.2852h-.6797v-.8204c-.168.2696-.4023.4844-.7148.6446-.3164.1523-.6914.2265-1.1172.2265-.586 0-1.0469-.1406-1.3946-.418-.3476-.289-.5234-.664-.5234-1.1171 0-.457.1602-.8125.4883-1.086.3242-.2773.8398-.418 1.5508-.418h1.6757v-.332c0-.453-.1328-.793-.3828-1.0312-.2578-.2422-.6289-.3672-1.1171-.3672-.3399 0-.6641.0625-.9766.1758-.3047.1055-.5664.2578-.7852.4531l-.3125-.5234c.2657-.2305.582-.4063.957-.5235.3712-.125.7696-.1914 1.1876-.1914Zm-.246 4.8203c.3945 0 .7382-.0898 1.0312-.2773.2852-.1836.504-.457.6445-.8047v-.875h-1.6562c-.9063 0-1.3633.3242-1.3633.961 0 .3046.1172.5507.3516.7343.2305.1758.5625.2617.9922.2617Zm6.7695.1915c-.1406.1171-.3086.2109-.5078.2812-.1992.0547-.3985.086-.6094.086-.5 0-.8867-.129-1.1523-.4024-.2696-.2656-.3985-.6445-.3985-1.1328V59.039h-.9414v-.6094h.9414v-1.1524h.7149v1.1524h1.6015v.6094h-1.6015v3.1445c0 .3281.0742.5742.2265.7344.1602.168.3868.246.6797.246a1.385 1.385 0 0 0 .4375-.0703.835.835 0 0 0 .3477-.2109Zm5.75-5.0118c.6836 0 1.2148.1758 1.5898.5235.3672.3398.5547.8476.5547 1.5195v3.2852h-.6797v-.8204c-.164.2696-.3984.4844-.7148.6446-.3125.1523-.6875.2265-1.1133.2265-.586 0-1.0469-.1406-1.3984-.418-.3477-.289-.5235-.664-.5235-1.1171 0-.457.1641-.8125.4883-1.086.3242-.2773.8438-.418 1.5547-.418h1.6719v-.332c0-.453-.129-.793-.3828-1.0312-.2578-.2422-.629-.3672-1.1172-.3672-.3399 0-.6602.0625-.9766.1758-.3047.1055-.5664.2578-.7812.4531l-.3164-.5234c.2656-.2305.586-.4063.961-.5235.371-.125.7655-.1914 1.1835-.1914Zm-.2422 4.8203c.3906 0 .7344-.0898 1.0274-.2773.289-.1836.5078-.457.6445-.8047v-.875h-1.6563c-.9062 0-1.3593.3242-1.3593.961 0 .3046.1132.5507.3476.7343.2305.1758.5625.2617.9961.2617Zm8.875-4.7851v4.6445c0 .8946-.2187 1.5586-.6601 1.9922-.4454.4414-1.1094.664-1.9883.664-.4883 0-.957-.078-1.3946-.2265-.4336-.1406-.7851-.3398-1.0664-.5937l.3672-.543c.254.2187.5625.3945.9258.5234.3555.129.7422.1953 1.1484.1953.6641 0 1.1524-.1601 1.4649-.4726.3242-.3047.4883-.7852.4883-1.4492V62.5c-.2188.3398-.5118.5938-.8711.7656-.3594.168-.7578.2461-1.1836.2461-.504 0-.957-.1054-1.3633-.3125-.4063-.2187-.7266-.5273-.957-.9101-.2344-.3946-.3477-.8438-.3477-1.3438 0-.5.1133-.9453.3477-1.3281.2304-.3828.543-.6797.9414-.8906.4062-.2188.8633-.332 1.3789-.332.4375 0 .8398.0937 1.2031.2773.3555.1758.6484.4336.8711.7695v-1.0117Zm-2.6992 4.4531c.3672 0 .7031-.0781 1.0078-.2422.3164-.164.5586-.3906.7344-.6836.1758-.3008.2617-.6367.2617-1.0117 0-.371-.086-.7031-.2617-.996-.1758-.2891-.414-.5157-.7149-.6837-.3046-.1718-.6445-.2617-1.0273-.2617-.3867 0-.7344.086-1.0469.2461-.3047.164-.543.3984-.7148.6992-.168.293-.2461.625-.2461.9961 0 .375.0781.711.246 1.0117.172.293.4102.5196.715.6836.3124.164.66.2422 1.0468.2422Zm10.2149-1.5898h-4.4298c.047.5508.2618.996.6485 1.3476.3828.3399.8633.504 1.4453.504.3242 0 .621-.0548.8906-.1758a2.1176 2.1176 0 0 0 .7149-.5235l.4023.457c-.2383.2891-.5234.5118-.875.6641-.3476.1367-.7383.207-1.168.207-.5351 0-1.0117-.1132-1.4296-.3476-.418-.2344-.75-.5508-.9922-.961-.2383-.4062-.3516-.8671-.3516-1.3789 0-.5273.1094-.9882.332-1.3984.2305-.4063.543-.7227.9258-.9453.3906-.2305.8399-.3477 1.3438-.3477.4882 0 .9218.1172 1.3047.3477.3867.2226.6875.539.9101.9453.2149.4102.3281.871.3281 1.3984Zm-2.543-2.289c-.5157 0-.9414.1679-1.293.492-.3477.3243-.5469.75-.5938 1.2735h3.75c-.0468-.5234-.2421-.9492-.5937-1.2734-.3398-.3242-.7617-.4922-1.2695-.4922Zm8.086 4.7694c-.5509 0-1.0392-.1406-1.465-.418-.418-.289-.75-.703-.9921-1.2421-.2383-.543-.3516-1.1875-.3516-1.9219 0-.7187.1133-1.3477.3516-1.8828.2422-.5469.5742-.9688.9922-1.2578.4257-.289.914-.4375 1.4648-.4375.5313 0 1.0117.1484 1.4297.4375.4297.289.7695.711 1.0117 1.2578.2461.5352.3672 1.164.3672 1.8828 0 .7344-.121 1.379-.3672 1.9219-.2422.539-.582.9531-1.0117 1.2422-.418.2773-.8984.418-1.4297.418Zm0-.664c.4062 0 .7577-.1094 1.0624-.332.3164-.2305.5586-.5626.7344-.9962.1758-.4414.2617-.9687.2617-1.5898 0-.6133-.086-1.1367-.2617-1.5703-.1758-.4297-.418-.7617-.7344-.9961-.3047-.2305-.6562-.3477-1.0625-.3477-.4101 0-.7656.1172-1.082.3477-.3125.2344-.5586.5664-.7305.996-.1758.4337-.2617.9571-.2617 1.5704 0 .6211.086 1.1484.2617 1.5898.1719.4336.418.7657.7305.9961.3164.2227.6719.332 1.082.332Zm0 0"/><path style="stroke:none;fill-rule:nonzero;fill:#d0cece;fill-opacity:1" d="M336.4063 219.1133c-.0508 0-.086-.0078-.1055-.0352-.0274-.0234-.0352-.0703-.0352-.1406v-.2617c-.1328.168-.293.293-.4883.3867-.203.0898-.4101.1367-.6289.1367-.418 0-.7656-.1445-1.0468-.4336-.2696-.3047-.3985-.668-.3985-1.1015 0-.4532.1406-.832.4336-1.1368.3008-.3007.6719-.453 1.1172-.453.2188 0 .418.0429.5938.121.1836.082.3398.2031.4687.3516v-1.2422h-.1719c-.203 0-.328-.0156-.3867-.0508-.0469-.0351-.0664-.0976-.0664-.1914 0-.082.0195-.1406.0664-.1758.0469-.0351.1094-.0547.1914-.0547h.664c.0704 0 .1134.0157.1407.0352.0352.0156.0508.0469.0508.0898v3.7032h.1406c.1133 0 .1953.0156.2422.0507.0469.0352.0703.086.0703.1563 0 .086-.0234.1484-.0703.1953-.0313.0352-.086.0508-.1563.0508Zm-2.1485-1.4688c0 .3086.0938.5547.2813.754.1953.1874.4453.2773.75.2773.3007 0 .543-.0938.7304-.2969.1993-.207.297-.461.297-.7695 0-.3008-.0978-.5469-.297-.75-.1875-.1953-.4297-.2969-.7304-.2969-.3164 0-.5664.1016-.75.2969-.1875.2031-.2813.4648-.2813.7851Zm4.9258 2.3086h.1406c.1602 0 .2695.0156.332.0508.0547.0352.086.0977.086.1914 0 .0703-.0274.125-.0703.1563-.0469.0468-.1133.0703-.1914.0703h-1.5157c-.1054 0-.1836-.0156-.2265-.0508-.0352-.0352-.0547-.0977-.0547-.1758 0-.082.0234-.1484.0703-.1914.043-.0351.1094-.0508.1914-.0508h.7149l.5234-1.0508-1.2031-2.3554c-.1407 0-.2383-.0196-.297-.0547-.0468-.0352-.0702-.0899-.0702-.1719s.0195-.1406.0547-.1758c.043-.0351.1132-.0547.207-.0547h.9063c.1289 0 .2109.0196.246.0547.043.0352.0704.0938.0704.1758 0 .082-.0313.1367-.086.1719-.0625.0351-.1601.0547-.2969.0547h-.125l.8907 1.8164.8906-1.8164h-.125c-.1524 0-.254-.0196-.3125-.0547-.0625-.0352-.086-.0899-.086-.1719s.0157-.1406.0508-.1758c.043-.0351.1329-.0547.2618-.0547h.8046c.0899 0 .1563.0196.1914.0547.043.0352.0665.0938.0665.1758 0 .082-.0235.1367-.0664.1719-.0508.0351-.1329.0547-.2461.0547Zm3.043-1.2929v-2.1133h-.0547c-.1524 0-.2578-.0196-.3125-.0547-.0469-.0352-.0703-.0899-.0703-.1719s.0195-.1406.0546-.1758c.043-.0351.1211-.0547.2266-.0547h.4688a.2866.2866 0 0 1 .1406.0352c.0351.0273.0508.0547.0508.0898v.2266c.1484-.1484.3007-.2617.453-.332a1.2734 1.2734 0 0 1 .508-.1055c.3202 0 .578.1055.7655.3164.1836.1992.2813.4844.2813.8555v1.4844h.1562c.1133 0 .1953.0156.2422.0507.043.0352.0703.086.0703.1563 0 .0976-.0312.1601-.086.1953-.0468.0352-.1366.0508-.2616.0508h-.7344c-.1367 0-.2266-.0156-.2617-.0508-.0352-.0352-.0508-.0977-.0508-.1953 0-.0781.0156-.129.0508-.1563.0469-.0351.1328-.0507.2617-.0507h.125v-1.3633c0-.254-.0625-.4453-.1758-.5781-.1172-.1368-.289-.207-.5078-.207-.2187 0-.418.078-.5898.2265-.168.1406-.2461.3281-.2461.5586v1.3633h.1054c.1407 0 .2266.0156.2618.0507.043.0274.0703.0782.0703.1563 0 .0976-.0196.1601-.0547.1953-.0352.0352-.129.0508-.2774.0508h-.7851c-.082 0-.1485-.0156-.1914-.0508-.0469-.0469-.0703-.1094-.0703-.1953 0-.0781.0234-.129.0703-.1563.0547-.0351.1562-.0507.2969-.0507Zm5.2382.0703c.336 0 .6094-.1055.8204-.3164.2148-.211.328-.4766.328-.8047 0-.336-.1132-.6094-.328-.8203-.211-.2188-.4844-.332-.8204-.332-.3398 0-.6093.1132-.8203.332-.211.2109-.3125.4843-.3125.8203 0 .3281.1016.5937.3125.8047.211.2109.4805.3164.8203.3164Zm1.7266-1.1211c0 .4687-.168.8515-.4883 1.1562-.3164.289-.7304.4336-1.2383.4336-.5039 0-.918-.1445-1.2382-.4336-.3164-.3047-.4727-.6875-.4727-1.1562 0-.4727.1563-.8594.4727-1.1524.3203-.2851.7343-.4375 1.2382-.4375.5079 0 .922.1563 1.2383.457.3203.293.4883.672.4883 1.1329Zm3.5117-.3125c0-.3164-.0312-.5235-.086-.629-.0624-.1054-.1562-.1562-.2812-.1562-.164 0-.2968.0703-.4023.207-.0938.1407-.1367.332-.1367.5782v1.3633h.0703c.125 0 .211.0156.2617.0507.043.0274.0664.0782.0664.1563 0 .086-.0234.1484-.0664.1953-.0351.0352-.0898.0508-.1601.0508h-.418c-.0938 0-.1563-.0235-.1914-.0703-.0352-.043-.0508-.1407-.0508-.2774v-1.7304c0-.1641-.043-.2891-.125-.3868-.0664-.0898-.168-.1367-.293-.1367-.0976 0-.1836.0313-.2617.086-.086.0468-.1523.1328-.211.246v1.8165h.1212c.1289 0 .2148.0156.2617.0507.043.0274.0703.0782.0703.1563 0 .0976-.0156.1601-.0508.1953-.0351.0352-.1055.0508-.211.0508h-.871c-.0977 0-.164-.0156-.211-.0508-.0351-.0469-.0507-.1094-.0507-.1953 0-.0781.0234-.129.0703-.1563.0547-.0351.1601-.0507.3125-.0507h.0703v-2.1133h-.0703c-.1524 0-.2578-.0196-.3125-.0547-.0469-.0352-.0703-.0899-.0703-.1719s.0156-.1406.0507-.1758c.047-.0351.1133-.0547.211-.0547h.4883c.078 0 .125.0157.1406.0352.0195.0273.039.0781.0508.1602.0898-.0938.1836-.1641.2773-.211a.9097.9097 0 0 1 .3516-.0703c.1484 0 .2695.0352.3672.1055.1015.0625.1796.1562.2421.2969.0782-.1407.1797-.2344.297-.297.125-.0702.2656-.1054.4179-.1054.289 0 .496.0977.6289.2813.125.1718.1914.4687.1914.8906v1.4844h.0508c.1289 0 .2148.0156.2617.0507.043.0274.0703.0782.0703.1563 0 .086-.0156.1484-.0508.1953-.0351.0352-.0976.0508-.1757.0508h-.4024c-.082 0-.1484-.0235-.1914-.0703-.0351-.0547-.0508-.1446-.0508-.2618Zm2.5-2.1485c0-.246.0196-.3945.0508-.453.0469-.0587.1406-.09.2813-.09.1406 0 .2265.0313.2617.09.043.0468.0703.164.0703.3476 0 .1875-.0274.3047-.0703.3515-.0352.047-.1211.0664-.2617.0664-.1407 0-.2344-.0156-.2813-.0507-.0312-.043-.0508-.1329-.0508-.2618Zm.6094 3.5118h1.0469c.0781 0 .1406.0156.1758.0507.043.0352.0703.086.0703.1563 0 .0976-.0274.1601-.0703.1953-.0352.0352-.1016.0508-.1914.0508h-2.547c-.082 0-.1484-.0156-.1913-.0508-.047-.0469-.0703-.1094-.0703-.1953 0-.0703.0234-.1211.0703-.1563.043-.0351.1132-.0507.207-.0507h.996v-2.1133h-.6288c-.0938 0-.164-.0196-.207-.0547-.0508-.043-.0704-.1055-.0704-.1719 0-.082.0157-.1406.0508-.1758.043-.0351.1133-.0547.211-.0547h.957a.2866.2866 0 0 1 .1406.0352c.0352.0273.0508.0547.0508.0898Zm3.6172-2.0977c-.293 0-.5313.0977-.7149.2813-.1718.1718-.2617.4023-.2617.6796 0 .2813.0899.5078.2617.6797.1836.1758.422.2656.7149.2656.2812 0 .5117-.0898.6992-.2656.1836-.1719.2774-.3984.2774-.6797 0-.2773-.0938-.5078-.2774-.6797-.1875-.1835-.418-.2812-.6992-.2812Zm1.414 2.375c0 .3008-.0195.5156-.0546.6484-.0235.125-.0664.2422-.1368.3477-.1328.1484-.3046.2656-.5234.3516-.2226.0898-.4805.1367-.7695.1367-.2578 0-.4453-.0235-.5586-.0703-.1016-.047-.1563-.1211-.1563-.2266 0-.0703.0235-.1328.0703-.1914.0586-.0469.129-.0703.211-.0703.0547 0 .1445.0039.2617.0195.125.0195.2148.0352.2773.0352.3243 0 .5508-.0782.6797-.2266.1407-.1562.211-.414.211-.7695v-.3867c-.1328.1562-.2774.2617-.4375.332-.164.0703-.3477.1055-.5586.1055-.4102 0-.7461-.129-1.0117-.4024-.2696-.2656-.3985-.6094-.3985-1.0273 0-.422.129-.7696.3985-1.0508.2812-.2774.621-.418 1.0312-.418.1719 0 .336.0352.4883.1055.1601.0586.3203.1523.4883.2773v-.2422c0-.043.0078-.0742.0351-.0898.0352-.0195.086-.0352.1563-.0352h.4883c.078 0 .1445.0196.1914.0547.043.0352.0703.0938.0703.1758 0 .082-.0313.1367-.086.1719-.0507.0351-.1484.0547-.2968.0547h-.0704Zm1.4727-.2773v-3.3555h-.0703c-.1524 0-.2578-.0156-.3164-.0508-.0469-.0351-.0664-.0976-.0664-.1914 0-.082.0156-.1406.0508-.1758.043-.0351.1132-.0547.207-.0547h.4883a.2866.2866 0 0 1 .1406.0352c.0352.0273.0547.0547.0547.0898v1.4844c.1601-.1484.3164-.2617.4687-.332.1485-.0703.3125-.1055.4883-.1055.3242 0 .582.1055.7695.3164.1954.1992.293.4844.293.8555v1.4844h.1406c.1133 0 .1954.0156.2461.0507.043.0352.0704.086.0704.1563 0 .086-.0274.1484-.0704.1953-.0351.0352-.1015.0508-.1914.0508h-.875c-.1015 0-.1718-.0156-.207-.0508-.0352-.0352-.0547-.0977-.0547-.1953 0-.0781.0235-.129.0703-.1563.043-.0351.1328-.0507.2617-.0507h.1055v-1.3633c0-.254-.0625-.4453-.1758-.5781-.1172-.1368-.2851-.207-.5039-.207-.2226 0-.418.078-.5937.2265-.164.1406-.2422.3281-.2422.5586v1.3633h.121c.125 0 .215.0156.2618.0507.043.0274.0703.0782.0703.1563 0 .0976-.0273.1601-.0703.1953-.0352.0352-.1016.0508-.1914.0508h-.875c-.0938 0-.164-.0156-.207-.0508-.0352-.0469-.0508-.1094-.0508-.1953 0-.0781.0195-.129.0664-.1563.0586-.0351.164-.0507.3164-.0507Zm6.125-2.3946c.1133 0 .1992.0274.2461.0703.043.0352.0703.0977.0703.1758a.2385.2385 0 0 1-.0703.1719c-.0469.0351-.1172.0547-.211.0547h-1.3242v1.082c0 .3633.043.6016.1407.7149.0898.121.25.1757.4882.1757.1954 0 .4258-.0547.6954-.1757.2812-.1133.453-.172.5234-.172a.167.167 0 0 1 .1406.0704c.043.0351.0703.086.0703.1562 0 .0704-.0312.1329-.0898.1915-.0469.0468-.1328.0976-.2617.1406-.207.0937-.3985.1562-.5742.1914a2.4704 2.4704 0 0 1-.4883.0508c-.2578 0-.4688-.043-.6446-.1211-.164-.0782-.293-.1993-.3828-.3672-.0351-.0703-.0664-.1563-.0898-.2617-.0235-.1055-.0313-.2657-.0313-.4883v-1.1875h-.543c-.0937 0-.164-.0196-.207-.0547-.0351-.043-.0546-.1016-.0546-.1719 0-.0937.0234-.1601.0703-.1914.0586-.0351.1796-.0547.3671-.0547h.3672v-.8398c0-.0899.0157-.1602.0508-.207.043-.043.1133-.0704.207-.0704.0938 0 .1602.0313.1954.086.0351.0508.0507.1719.0507.3672v.664Zm2.4844 2.3047c0-.1601.0586-.2969.1758-.3984.125-.1172.2812-.1758.4687-.1758.1953 0 .3555.0508.4727.1562.1132.1055.1718.2461.1718.418 0 .1758-.0586.3242-.1718.4375-.1172.1055-.2774.1563-.4727.1563-.1875 0-.3437-.0508-.4687-.1563-.1172-.1133-.1758-.2617-.1758-.4375Zm3.4414.0899v-2.1133h-.0508c-.1523 0-.2578-.0196-.3125-.0547-.0508-.0352-.0703-.0899-.0703-.1719s.0156-.1406.0508-.1758c.043-.0351.121-.0547.2265-.0547h.4727a.2823.2823 0 0 1 .1367.0352c.0352.0273.0547.0547.0547.0898v.2266c.1484-.1484.3008-.2617.4531-.332a1.2538 1.2538 0 0 1 .504-.1055c.3241 0 .582.1055.7695.3164.1836.1992.2773.4844.2773.8555v1.4844h.1563c.1132 0 .1992.0156.246.0507.043.0352.0704.086.0704.1563 0 .0976-.0313.1601-.0899.1953-.0469.0352-.1328.0508-.2617.0508h-.7305c-.1406 0-.2265-.0156-.2617-.0508-.0351-.0352-.0508-.0977-.0508-.1953 0-.0781.0157-.129.0508-.1563.043-.0351.129-.0507.2617-.0507h.1211v-1.3633c0-.254-.0586-.4453-.1719-.5781-.121-.1368-.289-.207-.5078-.207-.2226 0-.418.078-.5937.2265-.164.1406-.2422.3281-.2422.5586v1.3633h.1055c.1367 0 .2265.0156.2617.0507.043.0274.0664.0782.0664.1563 0 .0976-.0156.1601-.0508.1953-.0351.0352-.1328.0508-.2773.0508h-.7852c-.086 0-.1484-.0156-.1914-.0508-.0508-.0469-.0703-.1094-.0703-.1953 0-.0781.0195-.129.0703-.1563.0547-.0351.1563-.0507.293-.0507Zm4.1406-.9102c.0078.3164.1133.5586.3125.7344.1992.164.4649.246.8047.246.254 0 .5313-.0624.836-.1952.3007-.1368.4804-.207.543-.207.0663 0 .121.0234.1562.0702.043.0352.0703.082.0703.1368 0 .0625-.0274.121-.0703.1757a1.179 1.179 0 0 1-.211.1563 3.7355 3.7355 0 0 1-.6797.246 2.8553 2.8553 0 0 1-.6992.086c-.4883 0-.8828-.1445-1.1836-.4336-.3047-.289-.4531-.668-.4531-1.1367 0-.4883.1562-.8789.4687-1.1719.3243-.3007.7383-.453 1.2383-.453.4649 0 .8477.1405 1.1524.4179.3007.2812.453.621.453 1.0156 0 .1172-.0312.1992-.0858.2422-.0508.0508-.1836.0703-.4024.0703Zm.0195-.4375h2.125c-.0351-.25-.1484-.457-.332-.6094-.1875-.1601-.414-.246-.6797-.246-.289 0-.5351.078-.7304.2265-.2032.1562-.3282.3633-.3829.6289Zm5.9883-1.0469c.1133 0 .1953.0274.2422.0703.043.0352.0703.0977.0703.1758a.2385.2385 0 0 1-.0703.1719c-.0469.0351-.1172.0547-.207.0547h-1.3281v1.082c0 .3633.043.6016.1406.7149.0898.121.2539.1757.4883.1757.1953 0 .4257-.0547.6992-.1757.2773-.1133.4531-.172.5195-.172a.167.167 0 0 1 .1406.0704c.043.0351.0704.086.0704.1562 0 .0704-.0313.1329-.086.1915-.0508.0468-.1367.0976-.2617.1406-.211.0937-.4024.1562-.5781.1914a2.4704 2.4704 0 0 1-.4883.0508c-.254 0-.4688-.043-.6445-.1211-.1641-.0782-.293-.1993-.3829-.3672a.979.979 0 0 1-.0859-.2617c-.0273-.1055-.0351-.2657-.0351-.4883v-1.1875h-.543c-.0938 0-.164-.0196-.207-.0547-.0352-.043-.0547-.1016-.0547-.1719 0-.0937.0234-.1601.0703-.1914.0586-.0351.1797-.0547.3672-.0547h.3671v-.8398c0-.0899.0157-.1602.0508-.207.043-.043.1133-.0704.211-.0704.0898 0 .1562.0313.1914.086.0351.0508.0508.1719.0508.3672v.664Zm0 0"/></svg>