<svg xmlns="http://www.w3.org/2000/svg" width="1947" height="1329" overflow="hidden"><defs><clipPath id="a"><path d="M440 1228h1947v1329H440z"/></clipPath><clipPath id="b"><path d="M442 1230h1944v1323H442z"/></clipPath><clipPath id="c"><path d="M442 1230h1944v1323H442z"/></clipPath><clipPath id="d"><path d="M442 1230h1944v1323H442z"/></clipPath><clipPath id="e"><path d="M442 1230h1944v1323H442z"/></clipPath><clipPath id="f"><path d="M442 1230h1944v1323H442z"/></clipPath><clipPath id="g"><path d="M442 1230h1944v1323H442z"/></clipPath><clipPath id="h"><path d="M442 1230h1944v1323H442z"/></clipPath><clipPath id="i"><path d="M442 1230h1944v1323H442z"/></clipPath><clipPath id="j"><path d="M442 1230h1944v1323H442z"/></clipPath><clipPath id="k"><path d="M442 1230h1944v1323H442z"/></clipPath><clipPath id="l"><path d="M442 1230h1944v1323H442z"/></clipPath><clipPath id="m"><path d="M442 1230h1944v1323H442z"/></clipPath><clipPath id="n"><path d="M634 1281h1645v1068H634z"/></clipPath><clipPath id="o"><path d="M442 1230h1944v1323H442z"/></clipPath><clipPath id="p"><path d="M442 1230h1944v1323H442z"/></clipPath><clipPath id="q"><path d="M442 1230h1944v1323H442z"/></clipPath><clipPath id="r"><path d="M442 1230h1944v1323H442z"/></clipPath><clipPath id="s"><path d="M442 1230h1944v1323H442z"/></clipPath><clipPath id="t"><path d="M442 1230h1944v1323H442z"/></clipPath><clipPath id="u"><path d="M442 1230h1944v1323H442z"/></clipPath><clipPath id="v"><path d="M442 1230h1944v1323H442z"/></clipPath><clipPath id="w"><path d="M442 1230h1944v1323H442z"/></clipPath><clipPath id="x"><path d="M442 1230h1944v1323H442z"/></clipPath><clipPath id="y"><path d="M442 1230h1944v1323H442z"/></clipPath><clipPath id="z"><path d="M442 1230h1944v1323H442z"/></clipPath><clipPath id="A"><path d="M442 1230h1944v1323H442z"/></clipPath><clipPath id="B"><path d="M442 1230h1944v1323H442z"/></clipPath><clipPath id="C"><path d="M442 1230h1944v1323H442z"/></clipPath><clipPath id="D"><path d="M442 1230h1944v1323H442z"/></clipPath><clipPath id="E"><path d="M442 1230h1944v1323H442z"/></clipPath><clipPath id="F"><path d="M442 1230h1944v1323H442z"/></clipPath><clipPath id="G"><path d="M442 1230h1944v1323H442z"/></clipPath><clipPath id="H"><path d="M442 1230h1944v1323H442z"/></clipPath><clipPath id="I"><path d="M442 1230h1944v1323H442z"/></clipPath><clipPath id="J"><path d="M442 1230h1944v1323H442z"/></clipPath><clipPath id="K"><path d="M442 1230h1944v1323H442z"/></clipPath><clipPath id="L"><path d="M442 1230h1944v1323H442z"/></clipPath><clipPath id="M"><path d="M442 1230h1944v1323H442z"/></clipPath><clipPath id="N"><path d="M442 1230h1944v1323H442z"/></clipPath><clipPath id="O"><path d="M442 1230h1944v1323H442z"/></clipPath><clipPath id="P"><path d="M442 1230h1944v1323H442z"/></clipPath><clipPath id="Q"><path d="M442 1230h1944v1323H442z"/></clipPath><clipPath id="R"><path d="M442 1230h1944v1323H442z"/></clipPath><clipPath id="S"><path d="M442 1230h1944v1323H442z"/></clipPath><clipPath id="T"><path d="M442 1230h1944v1323H442z"/></clipPath><clipPath id="U"><path d="M442 1230h1944v1323H442z"/></clipPath><clipPath id="V"><path d="M442 1230h1944v1323H442z"/></clipPath><clipPath id="W"><path d="M442 1230h1945v1324H442z"/></clipPath></defs><g clip-path="url(#a)" transform="translate(-440 -1228)"><path fill="#FFF" d="M442 1231h1944v1323H442z"/><g fill="#4472C4" stroke="#4472C4" stroke-linejoin="round" stroke-miterlimit="10" stroke-width="3.438" clip-path="url(#b)"><path d="M677.625 2075.32c0 6.07-4.925 11-11 11s-10.999-4.93-10.999-11c0-6.08 4.924-11 10.999-11s11 4.92 11 11ZM705.625 2055.32c0 6.07-4.925 11-11 11s-11-4.93-11-11c0-6.08 4.925-11 11-11s11 4.92 11 11ZM830.625 1964.32c0 6.07-4.925 11-11 11s-10.999-4.93-10.999-11c0-6.08 4.924-11 10.999-11s11 4.92 11 11ZM707.625 2009.32c0 6.07-4.925 11-11 11s-11-4.93-11-11c0-6.08 4.925-11 11-11s11 4.92 11 11ZM1237.62 1841.32c0 6.07-4.92 11-10.99 11-6.08 0-11-4.93-11-11 0-6.08 4.92-11 11-11 6.07 0 10.99 4.92 10.99 11Z"/></g><g fill="#ED7D31" stroke="#ED7D31" stroke-linejoin="round" stroke-miterlimit="10" stroke-width="3.438" clip-path="url(#c)"><path d="M951.625 1943.32c0 6.07-4.925 11-11 11s-10.999-4.93-10.999-11c0-6.08 4.924-11 10.999-11s11 4.92 11 11ZM910.625 1959.32c0 6.07-4.925 11-11 11s-10.999-4.93-10.999-11c0-6.08 4.924-11 10.999-11s11 4.92 11 11ZM1216.62 1842.32c0 6.07-4.92 11-10.99 11-6.08 0-11-4.93-11-11 0-6.08 4.92-11 11-11 6.07 0 10.99 4.92 10.99 11ZM1241.62 1832.32c0 6.07-4.92 11-10.99 11-6.08 0-11-4.93-11-11 0-6.08 4.92-11 11-11 6.07 0 10.99 4.92 10.99 11ZM1598.62 1696.32c0 6.07-4.92 11-10.99 11-6.08 0-11-4.93-11-11 0-6.08 4.92-11 11-11 6.07 0 10.99 4.92 10.99 11ZM2276.62 1438.32c0 6.07-4.92 11-10.99 11-6.08 0-11-4.93-11-11 0-6.08 4.92-11 11-11 6.07 0 10.99 4.92 10.99 11Z"/></g><g clip-path="url(#d)"><path fill="none" stroke="#A6A6A6" stroke-linejoin="round" stroke-miterlimit="10" stroke-width="3.438" d="m666.5 2075.5 63 89"/></g><g clip-path="url(#e)"><path fill="none" stroke="#A6A6A6" stroke-linejoin="round" stroke-miterlimit="10" stroke-width="3.438" d="m694.5 2055.5 38.024 63H753.5"/></g><g clip-path="url(#f)"><path fill="none" stroke="#A6A6A6" stroke-linejoin="round" stroke-miterlimit="10" stroke-width="3.438" d="m819.5 1964.5 57.029 40H897.5"/></g><g clip-path="url(#g)"><path fill="none" stroke="#A6A6A6" stroke-linejoin="round" stroke-miterlimit="10" stroke-width="3.438" d="m696.5 2009.5 38-54"/></g><g clip-path="url(#h)"><path fill="none" stroke="#A6A6A6" stroke-linejoin="round" stroke-miterlimit="10" stroke-width="3.438" d="m1226.5 1841.5 112-195"/></g><g clip-path="url(#i)"><text fill="#4472C4" font-family="Montserrat,Montserrat_MSFontService,sans-serif" font-size="41" font-weight="400" transform="translate(648.508 2212)">top 25%</text></g><g clip-path="url(#j)"><text fill="#4472C4" font-family="Montserrat,Montserrat_MSFontService,sans-serif" font-size="41" font-weight="400" transform="translate(767.099 2134)">top 10%</text></g><g clip-path="url(#k)"><text fill="#4472C4" font-family="Montserrat,Montserrat_MSFontService,sans-serif" font-size="41" font-weight="400" transform="translate(910.766 2019)">top 1%</text></g><g clip-path="url(#l)"><text fill="#4472C4" font-family="Montserrat,Montserrat_MSFontService,sans-serif" font-size="41" font-weight="400" transform="translate(613.484 1938)">grad school</text></g><g clip-path="url(#m)"><text fill="#4472C4" font-family="Montserrat,Montserrat_MSFontService,sans-serif" font-size="41" font-weight="400" transform="translate(1167.49 1629)">elite grad school</text></g><g clip-path="url(#n)"><path fill="none" stroke="#A5A5A5" stroke-linecap="round" stroke-linejoin="round" stroke-miterlimit="10" stroke-opacity=".502" stroke-width="6.875" d="m666.5 2047.5 1702-649"/></g><g clip-path="url(#o)"><path fill="none" stroke="#A6A6A6" stroke-linejoin="round" stroke-miterlimit="10" stroke-width="3.438" d="m899.5 1959.5 57-66"/></g><g clip-path="url(#p)"><path fill="none" stroke="#A6A6A6" stroke-linejoin="round" stroke-miterlimit="10" stroke-width="3.438" d="m1205.5 1842.5-76-57"/></g><g clip-path="url(#q)"><path fill="none" stroke="#A6A6A6" stroke-linejoin="round" stroke-miterlimit="10" stroke-width="3.438" d="m1230.5 1832.5 54.04 85h19.96"/></g><g clip-path="url(#r)"><text fill="#ED7D31" font-family="Montserrat,Montserrat_MSFontService,sans-serif" font-size="41" font-weight="400" transform="translate(968.46 1986)">top 0.1%</text></g><g clip-path="url(#s)"><text fill="#ED7D31" font-family="Montserrat,Montserrat_MSFontService,sans-serif" font-size="41" font-weight="400" transform="translate(859.025 1876)">f500 CEO</text></g><g clip-path="url(#t)"><text fill="#ED7D31" font-family="Montserrat,Montserrat_MSFontService,sans-serif" font-size="41" font-weight="400" transform="translate(1041.52 1769)">senators</text></g><g clip-path="url(#u)"><text fill="#ED7D31" font-family="Montserrat,Montserrat_MSFontService,sans-serif" font-size="41" font-weight="400" transform="translate(1318.7 1933)">NYT/WSJ</text></g><g clip-path="url(#v)"><text fill="#ED7D31" font-family="Montserrat,Montserrat_MSFontService,sans-serif" font-size="41" font-weight="400" transform="translate(1626.14 1712)">President</text></g><g clip-path="url(#w)"><text fill="#ED7D31" font-family="Montserrat,Montserrat_MSFontService,sans-serif" font-size="41" font-weight="400" transform="translate(1947.82 1403)">Supreme Court</text></g><g clip-path="url(#x)"><text font-family="Montserrat,Montserrat_MSFontService,sans-serif" font-size="41" font-weight="400" transform="translate(532.991 2363)">0.0</text></g><g clip-path="url(#y)"><text font-family="Montserrat,Montserrat_MSFontService,sans-serif" font-size="41" font-weight="400" transform="translate(536.955 2230)">0.5</text></g><g clip-path="url(#z)"><text font-family="Montserrat,Montserrat_MSFontService,sans-serif" font-size="41" font-weight="400" transform="translate(545.412 2096)">1.0</text></g><g clip-path="url(#A)"><text font-family="Montserrat,Montserrat_MSFontService,sans-serif" font-size="41" font-weight="400" transform="translate(549.376 1962)">1.5</text></g><g clip-path="url(#B)"><text font-family="Montserrat,Montserrat_MSFontService,sans-serif" font-size="41" font-weight="400" transform="translate(536.887 1829)">2.0</text></g><g clip-path="url(#C)"><text font-family="Montserrat,Montserrat_MSFontService,sans-serif" font-size="41" font-weight="400" transform="translate(540.851 1695)">2.5</text></g><g clip-path="url(#D)"><text font-family="Montserrat,Montserrat_MSFontService,sans-serif" font-size="41" font-weight="400" transform="translate(537.047 1562)">3.0</text></g><g clip-path="url(#E)"><text font-family="Montserrat,Montserrat_MSFontService,sans-serif" font-size="41" font-weight="400" transform="translate(541.011 1428)">3.5</text></g><g clip-path="url(#F)"><text font-family="Montserrat,Montserrat_MSFontService,sans-serif" font-size="41" font-weight="400" transform="translate(533.037 1295)">4.0</text></g><g clip-path="url(#G)"><text font-family="Montserrat,Montserrat_MSFontService,sans-serif" font-size="41" font-weight="400" transform="translate(604.07 2416)">0%</text></g><g clip-path="url(#H)"><text font-family="Montserrat,Montserrat_MSFontService,sans-serif" font-size="41" font-weight="400" transform="translate(825.007 2416)">10%</text></g><g clip-path="url(#I)"><text font-family="Montserrat,Montserrat_MSFontService,sans-serif" font-size="41" font-weight="400" transform="translate(1049.13 2416)">20%</text></g><g clip-path="url(#J)"><text font-family="Montserrat,Montserrat_MSFontService,sans-serif" font-size="41" font-weight="400" transform="translate(1277.59 2416)">30%</text></g><g clip-path="url(#K)"><text font-family="Montserrat,Montserrat_MSFontService,sans-serif" font-size="41" font-weight="400" transform="translate(1503.97 2416)">40%</text></g><g clip-path="url(#L)"><text font-family="Montserrat,Montserrat_MSFontService,sans-serif" font-size="41" font-weight="400" transform="translate(1734.31 2416)">50%</text></g><g clip-path="url(#M)"><text font-family="Montserrat,Montserrat_MSFontService,sans-serif" font-size="41" font-weight="400" transform="translate(1961.82 2416)">60%</text></g><g clip-path="url(#N)"><text font-family="Montserrat,Montserrat_MSFontService,sans-serif" font-size="41" font-weight="400" transform="translate(2190.61 2416)">70%</text></g><g clip-path="url(#O)"><text font-family="Montserrat,Montserrat_MSFontService,sans-serif" font-size="46" font-weight="400" transform="rotate(-90 1267.185 759.815)">Ivy+ causal impact</text></g><g clip-path="url(#P)"><text font-family="Montserrat,Montserrat_MSFontService,sans-serif" font-size="46" font-weight="400" transform="translate(1315.89 2485)">% Ivy+ grads</text></g><g clip-path="url(#Q)"><path fill="#4472C4" stroke="#4472C4" stroke-linejoin="round" stroke-miterlimit="10" stroke-width="3.438" d="M1769 2095c0 6.07-4.92 11-11 11-6.07 0-11-4.93-11-11 0-6.08 4.93-11 11-11 6.08 0 11 4.92 11 11Z"/></g><g clip-path="url(#R)"><text font-family="Montserrat,Montserrat_MSFontService,sans-serif" font-size="41" font-weight="400" transform="translate(1811.36 2109)">Chetty et al.</text></g><g clip-path="url(#S)"><path fill="#ED7D31" stroke="#ED7D31" stroke-linejoin="round" stroke-miterlimit="10" stroke-width="3.438" d="M1769 2174c0 6.07-4.92 11-11 11-6.07 0-11-4.93-11-11 0-6.08 4.93-11 11-11 6.08 0 11 4.92 11 11Z"/></g><g clip-path="url(#T)"><text font-family="Montserrat,Montserrat_MSFontService,sans-serif" font-size="41" font-weight="400" transform="translate(1811.36 2187)">Dangerous extrapolation</text></g><g clip-path="url(#U)"><path fill="none" stroke="#A5A5A5" stroke-linecap="round" stroke-linejoin="round" stroke-miterlimit="10" stroke-opacity=".502" stroke-width="6.875" d="M1714.5 2252.5h88"/></g><g clip-path="url(#V)"><text font-family="Montserrat,Montserrat_MSFontService,sans-serif" font-size="41" font-weight="400" transform="translate(1811.36 2266)">Linear (Chetty et al.)</text></g><g clip-path="url(#W)"><text fill="#AFABAB" font-family="Courier New,Courier New_MSFontService,sans-serif" font-size="28" font-weight="400" transform="translate(2042.95 2342)">dynomight.net</text></g></g></svg>