<?xml version="1.0" encoding="utf-8" standalone="no"?>
<!DOCTYPE svg PUBLIC "-//W3C//DTD SVG 1.1//EN"
  "http://www.w3.org/Graphics/SVG/1.1/DTD/svg11.dtd">
<svg height="871.214187pt" version="1.1" viewBox="0 0 427.028985 871.214187" width="427.028985pt" xmlns="http://www.w3.org/2000/svg" xmlns:xlink="http://www.w3.org/1999/xlink">
 <metadata>
  <rdf:RDF xmlns:cc="http://creativecommons.org/ns#" xmlns:dc="http://purl.org/dc/elements/1.1/" xmlns:rdf="http://www.w3.org/1999/02/22-rdf-syntax-ns#">
   <cc:Work>
    <dc:type rdf:resource="http://purl.org/dc/dcmitype/StillImage"/>
    <dc:date>2021-08-19T12:02:00.526519</dc:date>
    <dc:format>image/svg+xml</dc:format>
    <dc:creator>
     <cc:Agent>
      <dc:title>Matplotlib v3.4.1, https://matplotlib.org/</dc:title>
     </cc:Agent>
    </dc:creator>
   </cc:Work>
  </rdf:RDF>
 </metadata>
 <defs>
  <style type="text/css">*{stroke-linecap:butt;stroke-linejoin:round;}</style>
 </defs>
 <g id="figure_1">
  <g id="patch_1">
   <path d="M 0 871.214187 
L 427.028985 871.214187 
L 427.028985 0 
L 0 0 
z
" style="fill:#ffffff;"/>
  </g>
  <g id="axes_1">
   <g id="patch_2">
    <path d="M 63.66625 183.946237 
L 396.620649 183.946237 
L 396.620649 44.733437 
L 63.66625 44.733437 
z
" style="fill:#ffffff;"/>
   </g>
   <g id="matplotlib.axis_1">
    <g id="xtick_1">
     <g id="text_1">
      <!-- immigration -->
      <g style="fill:#262626;" transform="translate(52.96226 14.357812)scale(0.1 -0.1)">
       <defs>
        <path d="M 425 3934 
L 425 4581 
L 988 4581 
L 988 3934 
L 425 3934 
z
M 425 0 
L 425 3319 
L 988 3319 
L 988 0 
L 425 0 
z
" id="ArialMT-69" transform="scale(0.015625)"/>
        <path d="M 422 0 
L 422 3319 
L 925 3319 
L 925 2853 
Q 1081 3097 1340 3245 
Q 1600 3394 1931 3394 
Q 2300 3394 2536 3241 
Q 2772 3088 2869 2813 
Q 3263 3394 3894 3394 
Q 4388 3394 4653 3120 
Q 4919 2847 4919 2278 
L 4919 0 
L 4359 0 
L 4359 2091 
Q 4359 2428 4304 2576 
Q 4250 2725 4106 2815 
Q 3963 2906 3769 2906 
Q 3419 2906 3187 2673 
Q 2956 2441 2956 1928 
L 2956 0 
L 2394 0 
L 2394 2156 
Q 2394 2531 2256 2718 
Q 2119 2906 1806 2906 
Q 1569 2906 1367 2781 
Q 1166 2656 1075 2415 
Q 984 2175 984 1722 
L 984 0 
L 422 0 
z
" id="ArialMT-6d" transform="scale(0.015625)"/>
        <path d="M 319 -275 
L 866 -356 
Q 900 -609 1056 -725 
Q 1266 -881 1628 -881 
Q 2019 -881 2231 -725 
Q 2444 -569 2519 -288 
Q 2563 -116 2559 434 
Q 2191 0 1641 0 
Q 956 0 581 494 
Q 206 988 206 1678 
Q 206 2153 378 2554 
Q 550 2956 876 3175 
Q 1203 3394 1644 3394 
Q 2231 3394 2613 2919 
L 2613 3319 
L 3131 3319 
L 3131 450 
Q 3131 -325 2973 -648 
Q 2816 -972 2473 -1159 
Q 2131 -1347 1631 -1347 
Q 1038 -1347 672 -1080 
Q 306 -813 319 -275 
z
M 784 1719 
Q 784 1066 1043 766 
Q 1303 466 1694 466 
Q 2081 466 2343 764 
Q 2606 1063 2606 1700 
Q 2606 2309 2336 2618 
Q 2066 2928 1684 2928 
Q 1309 2928 1046 2623 
Q 784 2319 784 1719 
z
" id="ArialMT-67" transform="scale(0.015625)"/>
        <path d="M 416 0 
L 416 3319 
L 922 3319 
L 922 2816 
Q 1116 3169 1280 3281 
Q 1444 3394 1641 3394 
Q 1925 3394 2219 3213 
L 2025 2691 
Q 1819 2813 1613 2813 
Q 1428 2813 1281 2702 
Q 1134 2591 1072 2394 
Q 978 2094 978 1738 
L 978 0 
L 416 0 
z
" id="ArialMT-72" transform="scale(0.015625)"/>
        <path d="M 2588 409 
Q 2275 144 1986 34 
Q 1697 -75 1366 -75 
Q 819 -75 525 192 
Q 231 459 231 875 
Q 231 1119 342 1320 
Q 453 1522 633 1644 
Q 813 1766 1038 1828 
Q 1203 1872 1538 1913 
Q 2219 1994 2541 2106 
Q 2544 2222 2544 2253 
Q 2544 2597 2384 2738 
Q 2169 2928 1744 2928 
Q 1347 2928 1158 2789 
Q 969 2650 878 2297 
L 328 2372 
Q 403 2725 575 2942 
Q 747 3159 1072 3276 
Q 1397 3394 1825 3394 
Q 2250 3394 2515 3294 
Q 2781 3194 2906 3042 
Q 3031 2891 3081 2659 
Q 3109 2516 3109 2141 
L 3109 1391 
Q 3109 606 3145 398 
Q 3181 191 3288 0 
L 2700 0 
Q 2613 175 2588 409 
z
M 2541 1666 
Q 2234 1541 1622 1453 
Q 1275 1403 1131 1340 
Q 988 1278 909 1158 
Q 831 1038 831 891 
Q 831 666 1001 516 
Q 1172 366 1500 366 
Q 1825 366 2078 508 
Q 2331 650 2450 897 
Q 2541 1088 2541 1459 
L 2541 1666 
z
" id="ArialMT-61" transform="scale(0.015625)"/>
        <path d="M 1650 503 
L 1731 6 
Q 1494 -44 1306 -44 
Q 1000 -44 831 53 
Q 663 150 594 308 
Q 525 466 525 972 
L 525 2881 
L 113 2881 
L 113 3319 
L 525 3319 
L 525 4141 
L 1084 4478 
L 1084 3319 
L 1650 3319 
L 1650 2881 
L 1084 2881 
L 1084 941 
Q 1084 700 1114 631 
Q 1144 563 1211 522 
Q 1278 481 1403 481 
Q 1497 481 1650 503 
z
" id="ArialMT-74" transform="scale(0.015625)"/>
        <path d="M 213 1659 
Q 213 2581 725 3025 
Q 1153 3394 1769 3394 
Q 2453 3394 2887 2945 
Q 3322 2497 3322 1706 
Q 3322 1066 3130 698 
Q 2938 331 2570 128 
Q 2203 -75 1769 -75 
Q 1072 -75 642 372 
Q 213 819 213 1659 
z
M 791 1659 
Q 791 1022 1069 705 
Q 1347 388 1769 388 
Q 2188 388 2466 706 
Q 2744 1025 2744 1678 
Q 2744 2294 2464 2611 
Q 2184 2928 1769 2928 
Q 1347 2928 1069 2612 
Q 791 2297 791 1659 
z
" id="ArialMT-6f" transform="scale(0.015625)"/>
        <path d="M 422 0 
L 422 3319 
L 928 3319 
L 928 2847 
Q 1294 3394 1984 3394 
Q 2284 3394 2536 3286 
Q 2788 3178 2913 3003 
Q 3038 2828 3088 2588 
Q 3119 2431 3119 2041 
L 3119 0 
L 2556 0 
L 2556 2019 
Q 2556 2363 2490 2533 
Q 2425 2703 2258 2804 
Q 2091 2906 1866 2906 
Q 1506 2906 1245 2678 
Q 984 2450 984 1813 
L 984 0 
L 422 0 
z
" id="ArialMT-6e" transform="scale(0.015625)"/>
       </defs>
       <use xlink:href="#ArialMT-69"/>
       <use x="22.216797" xlink:href="#ArialMT-6d"/>
       <use x="105.517578" xlink:href="#ArialMT-6d"/>
       <use x="188.818359" xlink:href="#ArialMT-69"/>
       <use x="211.035156" xlink:href="#ArialMT-67"/>
       <use x="266.650391" xlink:href="#ArialMT-72"/>
       <use x="299.951172" xlink:href="#ArialMT-61"/>
       <use x="355.566406" xlink:href="#ArialMT-74"/>
       <use x="383.349609" xlink:href="#ArialMT-69"/>
       <use x="405.566406" xlink:href="#ArialMT-6f"/>
       <use x="461.181641" xlink:href="#ArialMT-6e"/>
      </g>
      <!--  amnesty -->
      <g style="fill:#262626;" transform="translate(58.516166 25.051875)scale(0.1 -0.1)">
       <defs>
        <path id="ArialMT-20" transform="scale(0.015625)"/>
        <path d="M 2694 1069 
L 3275 997 
Q 3138 488 2766 206 
Q 2394 -75 1816 -75 
Q 1088 -75 661 373 
Q 234 822 234 1631 
Q 234 2469 665 2931 
Q 1097 3394 1784 3394 
Q 2450 3394 2872 2941 
Q 3294 2488 3294 1666 
Q 3294 1616 3291 1516 
L 816 1516 
Q 847 969 1125 678 
Q 1403 388 1819 388 
Q 2128 388 2347 550 
Q 2566 713 2694 1069 
z
M 847 1978 
L 2700 1978 
Q 2663 2397 2488 2606 
Q 2219 2931 1791 2931 
Q 1403 2931 1139 2672 
Q 875 2413 847 1978 
z
" id="ArialMT-65" transform="scale(0.015625)"/>
        <path d="M 197 991 
L 753 1078 
Q 800 744 1014 566 
Q 1228 388 1613 388 
Q 2000 388 2187 545 
Q 2375 703 2375 916 
Q 2375 1106 2209 1216 
Q 2094 1291 1634 1406 
Q 1016 1563 777 1677 
Q 538 1791 414 1992 
Q 291 2194 291 2438 
Q 291 2659 392 2848 
Q 494 3038 669 3163 
Q 800 3259 1026 3326 
Q 1253 3394 1513 3394 
Q 1903 3394 2198 3281 
Q 2494 3169 2634 2976 
Q 2775 2784 2828 2463 
L 2278 2388 
Q 2241 2644 2061 2787 
Q 1881 2931 1553 2931 
Q 1166 2931 1000 2803 
Q 834 2675 834 2503 
Q 834 2394 903 2306 
Q 972 2216 1119 2156 
Q 1203 2125 1616 2013 
Q 2213 1853 2448 1751 
Q 2684 1650 2818 1456 
Q 2953 1263 2953 975 
Q 2953 694 2789 445 
Q 2625 197 2315 61 
Q 2006 -75 1616 -75 
Q 969 -75 630 194 
Q 291 463 197 991 
z
" id="ArialMT-73" transform="scale(0.015625)"/>
        <path d="M 397 -1278 
L 334 -750 
Q 519 -800 656 -800 
Q 844 -800 956 -737 
Q 1069 -675 1141 -563 
Q 1194 -478 1313 -144 
Q 1328 -97 1363 -6 
L 103 3319 
L 709 3319 
L 1400 1397 
Q 1534 1031 1641 628 
Q 1738 1016 1872 1384 
L 2581 3319 
L 3144 3319 
L 1881 -56 
Q 1678 -603 1566 -809 
Q 1416 -1088 1222 -1217 
Q 1028 -1347 759 -1347 
Q 597 -1347 397 -1278 
z
" id="ArialMT-79" transform="scale(0.015625)"/>
       </defs>
       <use xlink:href="#ArialMT-20"/>
       <use x="27.783203" xlink:href="#ArialMT-61"/>
       <use x="83.398438" xlink:href="#ArialMT-6d"/>
       <use x="166.699219" xlink:href="#ArialMT-6e"/>
       <use x="222.314453" xlink:href="#ArialMT-65"/>
       <use x="277.929688" xlink:href="#ArialMT-73"/>
       <use x="327.929688" xlink:href="#ArialMT-74"/>
       <use x="355.712891" xlink:href="#ArialMT-79"/>
      </g>
      <!--  -->
      <g style="fill:#262626;" transform="translate(78.800541 35.745937)scale(0.1 -0.1)"/>
     </g>
    </g>
    <g id="xtick_2">
     <g id="text_2">
      <!-- EPA -->
      <g style="fill:#262626;" transform="translate(112.404653 14.475)scale(0.1 -0.1)">
       <defs>
        <path d="M 506 0 
L 506 4581 
L 3819 4581 
L 3819 4041 
L 1113 4041 
L 1113 2638 
L 3647 2638 
L 3647 2100 
L 1113 2100 
L 1113 541 
L 3925 541 
L 3925 0 
L 506 0 
z
" id="ArialMT-45" transform="scale(0.015625)"/>
        <path d="M 494 0 
L 494 4581 
L 2222 4581 
Q 2678 4581 2919 4538 
Q 3256 4481 3484 4323 
Q 3713 4166 3852 3881 
Q 3991 3597 3991 3256 
Q 3991 2672 3619 2267 
Q 3247 1863 2275 1863 
L 1100 1863 
L 1100 0 
L 494 0 
z
M 1100 2403 
L 2284 2403 
Q 2872 2403 3119 2622 
Q 3366 2841 3366 3238 
Q 3366 3525 3220 3729 
Q 3075 3934 2838 4000 
Q 2684 4041 2272 4041 
L 1100 4041 
L 1100 2403 
z
" id="ArialMT-50" transform="scale(0.015625)"/>
        <path d="M -9 0 
L 1750 4581 
L 2403 4581 
L 4278 0 
L 3588 0 
L 3053 1388 
L 1138 1388 
L 634 0 
L -9 0 
z
M 1313 1881 
L 2866 1881 
L 2388 3150 
Q 2169 3728 2063 4100 
Q 1975 3659 1816 3225 
L 1313 1881 
z
" id="ArialMT-41" transform="scale(0.015625)"/>
       </defs>
       <use xlink:href="#ArialMT-45"/>
       <use x="66.699219" xlink:href="#ArialMT-50"/>
       <use x="126.023438" xlink:href="#ArialMT-41"/>
      </g>
      <!--  CO2 -->
      <g style="fill:#262626;" transform="translate(110.371841 25.051875)scale(0.1 -0.1)">
       <defs>
        <path d="M 3763 1606 
L 4369 1453 
Q 4178 706 3683 314 
Q 3188 -78 2472 -78 
Q 1731 -78 1267 223 
Q 803 525 561 1097 
Q 319 1669 319 2325 
Q 319 3041 592 3573 
Q 866 4106 1370 4382 
Q 1875 4659 2481 4659 
Q 3169 4659 3637 4309 
Q 4106 3959 4291 3325 
L 3694 3184 
Q 3534 3684 3231 3912 
Q 2928 4141 2469 4141 
Q 1941 4141 1586 3887 
Q 1231 3634 1087 3207 
Q 944 2781 944 2328 
Q 944 1744 1114 1308 
Q 1284 872 1643 656 
Q 2003 441 2422 441 
Q 2931 441 3284 734 
Q 3638 1028 3763 1606 
z
" id="ArialMT-43" transform="scale(0.015625)"/>
        <path d="M 309 2231 
Q 309 3372 921 4017 
Q 1534 4663 2503 4663 
Q 3138 4663 3647 4359 
Q 4156 4056 4423 3514 
Q 4691 2972 4691 2284 
Q 4691 1588 4409 1038 
Q 4128 488 3612 205 
Q 3097 -78 2500 -78 
Q 1853 -78 1343 234 
Q 834 547 571 1087 
Q 309 1628 309 2231 
z
M 934 2222 
Q 934 1394 1379 917 
Q 1825 441 2497 441 
Q 3181 441 3623 922 
Q 4066 1403 4066 2288 
Q 4066 2847 3877 3264 
Q 3688 3681 3323 3911 
Q 2959 4141 2506 4141 
Q 1863 4141 1398 3698 
Q 934 3256 934 2222 
z
" id="ArialMT-4f" transform="scale(0.015625)"/>
        <path d="M 3222 541 
L 3222 0 
L 194 0 
Q 188 203 259 391 
Q 375 700 629 1000 
Q 884 1300 1366 1694 
Q 2113 2306 2375 2664 
Q 2638 3022 2638 3341 
Q 2638 3675 2398 3904 
Q 2159 4134 1775 4134 
Q 1369 4134 1125 3890 
Q 881 3647 878 3216 
L 300 3275 
Q 359 3922 746 4261 
Q 1134 4600 1788 4600 
Q 2447 4600 2831 4234 
Q 3216 3869 3216 3328 
Q 3216 3053 3103 2787 
Q 2991 2522 2730 2228 
Q 2469 1934 1863 1422 
Q 1356 997 1212 845 
Q 1069 694 975 541 
L 3222 541 
z
" id="ArialMT-32" transform="scale(0.015625)"/>
       </defs>
       <use xlink:href="#ArialMT-20"/>
       <use x="27.783203" xlink:href="#ArialMT-43"/>
       <use x="100" xlink:href="#ArialMT-4f"/>
       <use x="177.783203" xlink:href="#ArialMT-32"/>
      </g>
      <!-- regulation -->
      <g style="fill:#262626;" transform="translate(100.082778 35.62875)scale(0.1 -0.1)">
       <defs>
        <path d="M 2597 0 
L 2597 488 
Q 2209 -75 1544 -75 
Q 1250 -75 995 37 
Q 741 150 617 320 
Q 494 491 444 738 
Q 409 903 409 1263 
L 409 3319 
L 972 3319 
L 972 1478 
Q 972 1038 1006 884 
Q 1059 663 1231 536 
Q 1403 409 1656 409 
Q 1909 409 2131 539 
Q 2353 669 2445 892 
Q 2538 1116 2538 1541 
L 2538 3319 
L 3100 3319 
L 3100 0 
L 2597 0 
z
" id="ArialMT-75" transform="scale(0.015625)"/>
        <path d="M 409 0 
L 409 4581 
L 972 4581 
L 972 0 
L 409 0 
z
" id="ArialMT-6c" transform="scale(0.015625)"/>
       </defs>
       <use xlink:href="#ArialMT-72"/>
       <use x="33.300781" xlink:href="#ArialMT-65"/>
       <use x="88.916016" xlink:href="#ArialMT-67"/>
       <use x="144.53125" xlink:href="#ArialMT-75"/>
       <use x="200.146484" xlink:href="#ArialMT-6c"/>
       <use x="222.363281" xlink:href="#ArialMT-61"/>
       <use x="277.978516" xlink:href="#ArialMT-74"/>
       <use x="305.761719" xlink:href="#ArialMT-69"/>
       <use x="327.978516" xlink:href="#ArialMT-6f"/>
       <use x="383.59375" xlink:href="#ArialMT-6e"/>
      </g>
     </g>
    </g>
    <g id="xtick_3">
     <g id="text_3">
      <!-- medicare  -->
      <g style="fill:#262626;" transform="translate(143.330641 14.592187)scale(0.1 -0.1)">
       <defs>
        <path d="M 2575 0 
L 2575 419 
Q 2259 -75 1647 -75 
Q 1250 -75 917 144 
Q 584 363 401 755 
Q 219 1147 219 1656 
Q 219 2153 384 2558 
Q 550 2963 881 3178 
Q 1213 3394 1622 3394 
Q 1922 3394 2156 3267 
Q 2391 3141 2538 2938 
L 2538 4581 
L 3097 4581 
L 3097 0 
L 2575 0 
z
M 797 1656 
Q 797 1019 1065 703 
Q 1334 388 1700 388 
Q 2069 388 2326 689 
Q 2584 991 2584 1609 
Q 2584 2291 2321 2609 
Q 2059 2928 1675 2928 
Q 1300 2928 1048 2622 
Q 797 2316 797 1656 
z
" id="ArialMT-64" transform="scale(0.015625)"/>
        <path d="M 2588 1216 
L 3141 1144 
Q 3050 572 2676 248 
Q 2303 -75 1759 -75 
Q 1078 -75 664 370 
Q 250 816 250 1647 
Q 250 2184 428 2587 
Q 606 2991 970 3192 
Q 1334 3394 1763 3394 
Q 2303 3394 2647 3120 
Q 2991 2847 3088 2344 
L 2541 2259 
Q 2463 2594 2264 2762 
Q 2066 2931 1784 2931 
Q 1359 2931 1093 2626 
Q 828 2322 828 1663 
Q 828 994 1084 691 
Q 1341 388 1753 388 
Q 2084 388 2306 591 
Q 2528 794 2588 1216 
z
" id="ArialMT-63" transform="scale(0.015625)"/>
       </defs>
       <use xlink:href="#ArialMT-6d"/>
       <use x="83.300781" xlink:href="#ArialMT-65"/>
       <use x="138.916016" xlink:href="#ArialMT-64"/>
       <use x="194.53125" xlink:href="#ArialMT-69"/>
       <use x="216.748047" xlink:href="#ArialMT-63"/>
       <use x="266.748047" xlink:href="#ArialMT-61"/>
       <use x="322.363281" xlink:href="#ArialMT-72"/>
       <use x="355.664062" xlink:href="#ArialMT-65"/>
       <use x="411.279297" xlink:href="#ArialMT-20"/>
      </g>
      <!-- for -->
      <g style="fill:#262626;" transform="translate(159.447828 25.169062)scale(0.1 -0.1)">
       <defs>
        <path d="M 556 0 
L 556 2881 
L 59 2881 
L 59 3319 
L 556 3319 
L 556 3672 
Q 556 4006 616 4169 
Q 697 4388 901 4523 
Q 1106 4659 1475 4659 
Q 1713 4659 2000 4603 
L 1916 4113 
Q 1741 4144 1584 4144 
Q 1328 4144 1222 4034 
Q 1116 3925 1116 3625 
L 1116 3319 
L 1763 3319 
L 1763 2881 
L 1116 2881 
L 1116 0 
L 556 0 
z
" id="ArialMT-66" transform="scale(0.015625)"/>
       </defs>
       <use xlink:href="#ArialMT-66"/>
       <use x="27.783203" xlink:href="#ArialMT-6f"/>
       <use x="83.398438" xlink:href="#ArialMT-72"/>
      </g>
      <!--  all -->
      <g style="fill:#262626;" transform="translate(158.890797 35.745937)scale(0.1 -0.1)">
       <use xlink:href="#ArialMT-20"/>
       <use x="27.783203" xlink:href="#ArialMT-61"/>
       <use x="83.398438" xlink:href="#ArialMT-6c"/>
       <use x="105.615234" xlink:href="#ArialMT-6c"/>
      </g>
     </g>
    </g>
    <g id="xtick_4">
     <g id="text_4">
      <!-- ban -->
      <g style="fill:#262626;" transform="translate(200.181628 14.592187)scale(0.1 -0.1)">
       <defs>
        <path d="M 941 0 
L 419 0 
L 419 4581 
L 981 4581 
L 981 2947 
Q 1338 3394 1891 3394 
Q 2197 3394 2470 3270 
Q 2744 3147 2920 2923 
Q 3097 2700 3197 2384 
Q 3297 2069 3297 1709 
Q 3297 856 2875 390 
Q 2453 -75 1863 -75 
Q 1275 -75 941 416 
L 941 0 
z
M 934 1684 
Q 934 1088 1097 822 
Q 1363 388 1816 388 
Q 2184 388 2453 708 
Q 2722 1028 2722 1663 
Q 2722 2313 2464 2622 
Q 2206 2931 1841 2931 
Q 1472 2931 1203 2611 
Q 934 2291 934 1684 
z
" id="ArialMT-62" transform="scale(0.015625)"/>
       </defs>
       <use xlink:href="#ArialMT-62"/>
       <use x="55.615234" xlink:href="#ArialMT-61"/>
       <use x="111.230469" xlink:href="#ArialMT-6e"/>
      </g>
      <!--  assault -->
      <g style="fill:#262626;" transform="translate(191.292565 25.169062)scale(0.1 -0.1)">
       <use xlink:href="#ArialMT-20"/>
       <use x="27.783203" xlink:href="#ArialMT-61"/>
       <use x="83.398438" xlink:href="#ArialMT-73"/>
       <use x="133.398438" xlink:href="#ArialMT-73"/>
       <use x="183.398438" xlink:href="#ArialMT-61"/>
       <use x="239.013672" xlink:href="#ArialMT-75"/>
       <use x="294.628906" xlink:href="#ArialMT-6c"/>
       <use x="316.845703" xlink:href="#ArialMT-74"/>
      </g>
      <!--  rifles -->
      <g style="fill:#262626;" transform="translate(196.577722 35.745937)scale(0.1 -0.1)">
       <use xlink:href="#ArialMT-20"/>
       <use x="27.783203" xlink:href="#ArialMT-72"/>
       <use x="61.083984" xlink:href="#ArialMT-69"/>
       <use x="83.300781" xlink:href="#ArialMT-66"/>
       <use x="111.083984" xlink:href="#ArialMT-6c"/>
       <use x="133.300781" xlink:href="#ArialMT-65"/>
       <use x="188.916016" xlink:href="#ArialMT-73"/>
      </g>
     </g>
    </g>
    <g id="xtick_5">
     <g id="text_5">
      <!-- abortion -->
      <g style="fill:#262626;" transform="translate(233.696678 14.592187)scale(0.1 -0.1)">
       <use xlink:href="#ArialMT-61"/>
       <use x="55.615234" xlink:href="#ArialMT-62"/>
       <use x="111.230469" xlink:href="#ArialMT-6f"/>
       <use x="166.845703" xlink:href="#ArialMT-72"/>
       <use x="200.146484" xlink:href="#ArialMT-74"/>
       <use x="227.929688" xlink:href="#ArialMT-69"/>
       <use x="250.146484" xlink:href="#ArialMT-6f"/>
       <use x="305.761719" xlink:href="#ArialMT-6e"/>
      </g>
      <!--  on -->
      <g style="fill:#262626;" transform="translate(244.813865 25.169062)scale(0.1 -0.1)">
       <use xlink:href="#ArialMT-20"/>
       <use x="27.783203" xlink:href="#ArialMT-6f"/>
       <use x="83.398438" xlink:href="#ArialMT-6e"/>
      </g>
      <!--  demand -->
      <g style="fill:#262626;" transform="translate(232.307615 35.745937)scale(0.1 -0.1)">
       <use xlink:href="#ArialMT-20"/>
       <use x="27.783203" xlink:href="#ArialMT-64"/>
       <use x="83.398438" xlink:href="#ArialMT-65"/>
       <use x="139.013672" xlink:href="#ArialMT-6d"/>
       <use x="222.314453" xlink:href="#ArialMT-61"/>
       <use x="277.929688" xlink:href="#ArialMT-6e"/>
       <use x="333.544922" xlink:href="#ArialMT-64"/>
      </g>
     </g>
    </g>
    <g id="xtick_6">
     <g id="text_6">
      <!-- 10% -->
      <g style="fill:#262626;" transform="translate(284.997665 14.592187)scale(0.1 -0.1)">
       <defs>
        <path d="M 2384 0 
L 1822 0 
L 1822 3584 
Q 1619 3391 1289 3197 
Q 959 3003 697 2906 
L 697 3450 
Q 1169 3672 1522 3987 
Q 1875 4303 2022 4600 
L 2384 4600 
L 2384 0 
z
" id="ArialMT-31" transform="scale(0.015625)"/>
        <path d="M 266 2259 
Q 266 3072 433 3567 
Q 600 4063 929 4331 
Q 1259 4600 1759 4600 
Q 2128 4600 2406 4451 
Q 2684 4303 2865 4023 
Q 3047 3744 3150 3342 
Q 3253 2941 3253 2259 
Q 3253 1453 3087 958 
Q 2922 463 2592 192 
Q 2263 -78 1759 -78 
Q 1097 -78 719 397 
Q 266 969 266 2259 
z
M 844 2259 
Q 844 1131 1108 757 
Q 1372 384 1759 384 
Q 2147 384 2411 759 
Q 2675 1134 2675 2259 
Q 2675 3391 2411 3762 
Q 2147 4134 1753 4134 
Q 1366 4134 1134 3806 
Q 844 3388 844 2259 
z
" id="ArialMT-30" transform="scale(0.015625)"/>
        <path d="M 372 3481 
Q 372 3972 619 4315 
Q 866 4659 1334 4659 
Q 1766 4659 2048 4351 
Q 2331 4044 2331 3447 
Q 2331 2866 2045 2552 
Q 1759 2238 1341 2238 
Q 925 2238 648 2547 
Q 372 2856 372 3481 
z
M 1350 4272 
Q 1141 4272 1002 4090 
Q 863 3909 863 3425 
Q 863 2984 1003 2804 
Q 1144 2625 1350 2625 
Q 1563 2625 1702 2806 
Q 1841 2988 1841 3469 
Q 1841 3913 1700 4092 
Q 1559 4272 1350 4272 
z
M 1353 -169 
L 3859 4659 
L 4316 4659 
L 1819 -169 
L 1353 -169 
z
M 3334 1075 
Q 3334 1569 3581 1911 
Q 3828 2253 4300 2253 
Q 4731 2253 5014 1945 
Q 5297 1638 5297 1041 
Q 5297 459 5011 145 
Q 4725 -169 4303 -169 
Q 3888 -169 3611 142 
Q 3334 453 3334 1075 
z
M 4316 1866 
Q 4103 1866 3964 1684 
Q 3825 1503 3825 1019 
Q 3825 581 3965 400 
Q 4106 219 4313 219 
Q 4528 219 4667 400 
Q 4806 581 4806 1063 
Q 4806 1506 4665 1686 
Q 4525 1866 4316 1866 
z
" id="ArialMT-25" transform="scale(0.015625)"/>
       </defs>
       <use xlink:href="#ArialMT-31"/>
       <use x="55.615234" xlink:href="#ArialMT-30"/>
       <use x="111.230469" xlink:href="#ArialMT-25"/>
      </g>
      <!--  more  -->
      <g style="fill:#262626;" transform="translate(280.835946 25.169062)scale(0.1 -0.1)">
       <use xlink:href="#ArialMT-20"/>
       <use x="27.783203" xlink:href="#ArialMT-6d"/>
       <use x="111.083984" xlink:href="#ArialMT-6f"/>
       <use x="166.699219" xlink:href="#ArialMT-72"/>
       <use x="200" xlink:href="#ArialMT-65"/>
       <use x="255.615234" xlink:href="#ArialMT-20"/>
      </g>
      <!-- police -->
      <g style="fill:#262626;" transform="translate(281.941415 35.745937)scale(0.1 -0.1)">
       <defs>
        <path d="M 422 -1272 
L 422 3319 
L 934 3319 
L 934 2888 
Q 1116 3141 1344 3267 
Q 1572 3394 1897 3394 
Q 2322 3394 2647 3175 
Q 2972 2956 3137 2557 
Q 3303 2159 3303 1684 
Q 3303 1175 3120 767 
Q 2938 359 2589 142 
Q 2241 -75 1856 -75 
Q 1575 -75 1351 44 
Q 1128 163 984 344 
L 984 -1272 
L 422 -1272 
z
M 931 1641 
Q 931 1000 1190 694 
Q 1450 388 1819 388 
Q 2194 388 2461 705 
Q 2728 1022 2728 1688 
Q 2728 2322 2467 2637 
Q 2206 2953 1844 2953 
Q 1484 2953 1207 2617 
Q 931 2281 931 1641 
z
" id="ArialMT-70" transform="scale(0.015625)"/>
       </defs>
       <use xlink:href="#ArialMT-70"/>
       <use x="55.615234" xlink:href="#ArialMT-6f"/>
       <use x="111.230469" xlink:href="#ArialMT-6c"/>
       <use x="133.447266" xlink:href="#ArialMT-69"/>
       <use x="155.664062" xlink:href="#ArialMT-63"/>
       <use x="205.664062" xlink:href="#ArialMT-65"/>
      </g>
     </g>
    </g>
    <g id="xtick_7">
     <g id="text_7">
      <!-- border  -->
      <g style="fill:#262626;" transform="translate(322.404902 14.475)scale(0.1 -0.1)">
       <use xlink:href="#ArialMT-62"/>
       <use x="55.615234" xlink:href="#ArialMT-6f"/>
       <use x="111.230469" xlink:href="#ArialMT-72"/>
       <use x="144.53125" xlink:href="#ArialMT-64"/>
       <use x="200.146484" xlink:href="#ArialMT-65"/>
       <use x="255.761719" xlink:href="#ArialMT-72"/>
       <use x="289.0625" xlink:href="#ArialMT-20"/>
      </g>
      <!-- security -->
      <g style="fill:#262626;" transform="translate(321.019746 25.051875)scale(0.1 -0.1)">
       <use xlink:href="#ArialMT-73"/>
       <use x="50" xlink:href="#ArialMT-65"/>
       <use x="105.615234" xlink:href="#ArialMT-63"/>
       <use x="155.615234" xlink:href="#ArialMT-75"/>
       <use x="211.230469" xlink:href="#ArialMT-72"/>
       <use x="244.53125" xlink:href="#ArialMT-69"/>
       <use x="266.748047" xlink:href="#ArialMT-74"/>
       <use x="294.53125" xlink:href="#ArialMT-79"/>
      </g>
      <!-- &amp; wall -->
      <g style="fill:#262626;" transform="translate(324.908027 35.745937)scale(0.1 -0.1)">
       <defs>
        <path d="M 3041 541 
Q 2763 231 2434 76 
Q 2106 -78 1725 -78 
Q 1022 -78 609 397 
Q 275 784 275 1263 
Q 275 1688 548 2030 
Q 822 2372 1366 2631 
Q 1056 2988 953 3209 
Q 850 3431 850 3638 
Q 850 4050 1173 4354 
Q 1497 4659 1988 4659 
Q 2456 4659 2754 4371 
Q 3053 4084 3053 3681 
Q 3053 3028 2188 2566 
L 3009 1519 
Q 3150 1794 3228 2156 
L 3813 2031 
Q 3663 1431 3406 1044 
Q 3722 625 4122 341 
L 3744 -106 
Q 3403 113 3041 541 
z
M 1897 2928 
Q 2263 3144 2370 3306 
Q 2478 3469 2478 3666 
Q 2478 3900 2329 4048 
Q 2181 4197 1959 4197 
Q 1731 4197 1579 4050 
Q 1428 3903 1428 3691 
Q 1428 3584 1483 3467 
Q 1538 3350 1647 3219 
L 1897 2928 
z
M 2688 984 
L 1656 2263 
Q 1200 1991 1040 1758 
Q 881 1525 881 1297 
Q 881 1019 1103 719 
Q 1325 419 1731 419 
Q 1984 419 2254 576 
Q 2525 734 2688 984 
z
" id="ArialMT-26" transform="scale(0.015625)"/>
        <path d="M 1034 0 
L 19 3319 
L 600 3319 
L 1128 1403 
L 1325 691 
Q 1338 744 1497 1375 
L 2025 3319 
L 2603 3319 
L 3100 1394 
L 3266 759 
L 3456 1400 
L 4025 3319 
L 4572 3319 
L 3534 0 
L 2950 0 
L 2422 1988 
L 2294 2553 
L 1622 0 
L 1034 0 
z
" id="ArialMT-77" transform="scale(0.015625)"/>
       </defs>
       <use xlink:href="#ArialMT-26"/>
       <use x="66.699219" xlink:href="#ArialMT-20"/>
       <use x="94.482422" xlink:href="#ArialMT-77"/>
       <use x="166.699219" xlink:href="#ArialMT-61"/>
       <use x="222.314453" xlink:href="#ArialMT-6c"/>
       <use x="244.53125" xlink:href="#ArialMT-6c"/>
      </g>
     </g>
    </g>
   </g>
   <g id="matplotlib.axis_2">
    <g id="ytick_1">
     <g id="text_8">
      <!-- 0% -->
      <g style="fill:#262626;" transform="translate(42.213125 187.525144)scale(0.1 -0.1)">
       <use xlink:href="#ArialMT-30"/>
       <use x="55.615234" xlink:href="#ArialMT-25"/>
      </g>
     </g>
    </g>
    <g id="ytick_2">
     <g id="text_9">
      <!-- 20% -->
      <g style="fill:#262626;" transform="translate(36.652188 159.682584)scale(0.1 -0.1)">
       <use xlink:href="#ArialMT-32"/>
       <use x="55.615234" xlink:href="#ArialMT-30"/>
       <use x="111.230469" xlink:href="#ArialMT-25"/>
      </g>
     </g>
    </g>
    <g id="ytick_3">
     <g id="text_10">
      <!-- 40% -->
      <g style="fill:#262626;" transform="translate(36.652188 131.840024)scale(0.1 -0.1)">
       <defs>
        <path d="M 2069 0 
L 2069 1097 
L 81 1097 
L 81 1613 
L 2172 4581 
L 2631 4581 
L 2631 1613 
L 3250 1613 
L 3250 1097 
L 2631 1097 
L 2631 0 
L 2069 0 
z
M 2069 1613 
L 2069 3678 
L 634 1613 
L 2069 1613 
z
" id="ArialMT-34" transform="scale(0.015625)"/>
       </defs>
       <use xlink:href="#ArialMT-34"/>
       <use x="55.615234" xlink:href="#ArialMT-30"/>
       <use x="111.230469" xlink:href="#ArialMT-25"/>
      </g>
     </g>
    </g>
    <g id="ytick_4">
     <g id="text_11">
      <!-- 60% -->
      <g style="fill:#262626;" transform="translate(36.652188 103.997464)scale(0.1 -0.1)">
       <defs>
        <path d="M 3184 3459 
L 2625 3416 
Q 2550 3747 2413 3897 
Q 2184 4138 1850 4138 
Q 1581 4138 1378 3988 
Q 1113 3794 959 3422 
Q 806 3050 800 2363 
Q 1003 2672 1297 2822 
Q 1591 2972 1913 2972 
Q 2475 2972 2870 2558 
Q 3266 2144 3266 1488 
Q 3266 1056 3080 686 
Q 2894 316 2569 119 
Q 2244 -78 1831 -78 
Q 1128 -78 684 439 
Q 241 956 241 2144 
Q 241 3472 731 4075 
Q 1159 4600 1884 4600 
Q 2425 4600 2770 4297 
Q 3116 3994 3184 3459 
z
M 888 1484 
Q 888 1194 1011 928 
Q 1134 663 1356 523 
Q 1578 384 1822 384 
Q 2178 384 2434 671 
Q 2691 959 2691 1453 
Q 2691 1928 2437 2201 
Q 2184 2475 1800 2475 
Q 1419 2475 1153 2201 
Q 888 1928 888 1484 
z
" id="ArialMT-36" transform="scale(0.015625)"/>
       </defs>
       <use xlink:href="#ArialMT-36"/>
       <use x="55.615234" xlink:href="#ArialMT-30"/>
       <use x="111.230469" xlink:href="#ArialMT-25"/>
      </g>
     </g>
    </g>
    <g id="ytick_5">
     <g id="text_12">
      <!-- 80% -->
      <g style="fill:#262626;" transform="translate(36.652188 76.154904)scale(0.1 -0.1)">
       <defs>
        <path d="M 1131 2484 
Q 781 2613 612 2850 
Q 444 3088 444 3419 
Q 444 3919 803 4259 
Q 1163 4600 1759 4600 
Q 2359 4600 2725 4251 
Q 3091 3903 3091 3403 
Q 3091 3084 2923 2848 
Q 2756 2613 2416 2484 
Q 2838 2347 3058 2040 
Q 3278 1734 3278 1309 
Q 3278 722 2862 322 
Q 2447 -78 1769 -78 
Q 1091 -78 675 323 
Q 259 725 259 1325 
Q 259 1772 486 2073 
Q 713 2375 1131 2484 
z
M 1019 3438 
Q 1019 3113 1228 2906 
Q 1438 2700 1772 2700 
Q 2097 2700 2305 2904 
Q 2513 3109 2513 3406 
Q 2513 3716 2298 3927 
Q 2084 4138 1766 4138 
Q 1444 4138 1231 3931 
Q 1019 3725 1019 3438 
z
M 838 1322 
Q 838 1081 952 856 
Q 1066 631 1291 507 
Q 1516 384 1775 384 
Q 2178 384 2440 643 
Q 2703 903 2703 1303 
Q 2703 1709 2433 1975 
Q 2163 2241 1756 2241 
Q 1359 2241 1098 1978 
Q 838 1716 838 1322 
z
" id="ArialMT-38" transform="scale(0.015625)"/>
       </defs>
       <use xlink:href="#ArialMT-38"/>
       <use x="55.615234" xlink:href="#ArialMT-30"/>
       <use x="111.230469" xlink:href="#ArialMT-25"/>
      </g>
     </g>
    </g>
    <g id="ytick_6">
     <g id="text_13">
      <!-- 100% -->
      <g style="fill:#262626;" transform="translate(31.09125 48.312344)scale(0.1 -0.1)">
       <use xlink:href="#ArialMT-31"/>
       <use x="55.615234" xlink:href="#ArialMT-30"/>
       <use x="111.230469" xlink:href="#ArialMT-30"/>
       <use x="166.845703" xlink:href="#ArialMT-25"/>
      </g>
     </g>
    </g>
   </g>
   <g id="line2d_1">
    <path clip-path="url(#pfa434c1ca9)" d="M 78.800541 89.102088 
L 122.041372 92.000198 
L 165.282203 98.099184 
L 208.523034 101.624898 
L 251.763865 106.008472 
L 295.004696 115.890109 
L 338.245527 121.888823 
" style="fill:none;stroke:#88ccee;stroke-linecap:round;stroke-width:1.5;"/>
    <defs>
     <path d="M 0 1.25 
C 0.331504 1.25 0.649475 1.118292 0.883883 0.883883 
C 1.118292 0.649475 1.25 0.331504 1.25 0 
C 1.25 -0.331504 1.118292 -0.649475 0.883883 -0.883883 
C 0.649475 -1.118292 0.331504 -1.25 0 -1.25 
C -0.331504 -1.25 -0.649475 -1.118292 -0.883883 -0.883883 
C -1.118292 -0.649475 -1.25 -0.331504 -1.25 0 
C -1.25 0.331504 -1.118292 0.649475 -0.883883 0.883883 
C -0.649475 1.118292 -0.331504 1.25 0 1.25 
z
" id="mcf44ff0bc5" style="stroke:#88ccee;"/>
    </defs>
    <g clip-path="url(#pfa434c1ca9)">
     <use style="fill:#88ccee;stroke:#88ccee;" x="78.800541" xlink:href="#mcf44ff0bc5" y="89.102088"/>
     <use style="fill:#88ccee;stroke:#88ccee;" x="122.041372" xlink:href="#mcf44ff0bc5" y="92.000198"/>
     <use style="fill:#88ccee;stroke:#88ccee;" x="165.282203" xlink:href="#mcf44ff0bc5" y="98.099184"/>
     <use style="fill:#88ccee;stroke:#88ccee;" x="208.523034" xlink:href="#mcf44ff0bc5" y="101.624898"/>
     <use style="fill:#88ccee;stroke:#88ccee;" x="251.763865" xlink:href="#mcf44ff0bc5" y="106.008472"/>
     <use style="fill:#88ccee;stroke:#88ccee;" x="295.004696" xlink:href="#mcf44ff0bc5" y="115.890109"/>
     <use style="fill:#88ccee;stroke:#88ccee;" x="338.245527" xlink:href="#mcf44ff0bc5" y="121.888823"/>
    </g>
   </g>
   <g id="line2d_2">
    <path clip-path="url(#pfa434c1ca9)" d="M 78.800541 114.339837 
L 381.486358 114.339837 
" style="fill:none;stroke:#000000;stroke-linecap:round;stroke-opacity:0.35;stroke-width:0.1;"/>
   </g>
   <g id="text_14">
    <!-- all -->
    <g style="fill:#88ccee;" transform="translate(342.56961 125.07385)scale(0.1 -0.1)">
     <use xlink:href="#ArialMT-61"/>
     <use x="55.615234" xlink:href="#ArialMT-6c"/>
     <use x="77.832031" xlink:href="#ArialMT-6c"/>
    </g>
   </g>
  </g>
  <g id="axes_2">
   <g id="patch_3">
    <path d="M 63.66625 344.039037 
L 396.620649 344.039037 
L 396.620649 204.826237 
L 63.66625 204.826237 
z
" style="fill:#ffffff;"/>
   </g>
   <g id="matplotlib.axis_3">
    <g id="xtick_8"/>
    <g id="xtick_9"/>
    <g id="xtick_10"/>
    <g id="xtick_11"/>
    <g id="xtick_12"/>
    <g id="xtick_13"/>
    <g id="xtick_14"/>
   </g>
   <g id="matplotlib.axis_4">
    <g id="ytick_7">
     <g id="text_15">
      <!-- 0% -->
      <g style="fill:#262626;" transform="translate(42.213125 347.617944)scale(0.1 -0.1)">
       <use xlink:href="#ArialMT-30"/>
       <use x="55.615234" xlink:href="#ArialMT-25"/>
      </g>
     </g>
    </g>
    <g id="ytick_8">
     <g id="text_16">
      <!-- 20% -->
      <g style="fill:#262626;" transform="translate(36.652188 319.775384)scale(0.1 -0.1)">
       <use xlink:href="#ArialMT-32"/>
       <use x="55.615234" xlink:href="#ArialMT-30"/>
       <use x="111.230469" xlink:href="#ArialMT-25"/>
      </g>
     </g>
    </g>
    <g id="ytick_9">
     <g id="text_17">
      <!-- 40% -->
      <g style="fill:#262626;" transform="translate(36.652188 291.932824)scale(0.1 -0.1)">
       <use xlink:href="#ArialMT-34"/>
       <use x="55.615234" xlink:href="#ArialMT-30"/>
       <use x="111.230469" xlink:href="#ArialMT-25"/>
      </g>
     </g>
    </g>
    <g id="ytick_10">
     <g id="text_18">
      <!-- 60% -->
      <g style="fill:#262626;" transform="translate(36.652188 264.090264)scale(0.1 -0.1)">
       <use xlink:href="#ArialMT-36"/>
       <use x="55.615234" xlink:href="#ArialMT-30"/>
       <use x="111.230469" xlink:href="#ArialMT-25"/>
      </g>
     </g>
    </g>
    <g id="ytick_11">
     <g id="text_19">
      <!-- 80% -->
      <g style="fill:#262626;" transform="translate(36.652188 236.247704)scale(0.1 -0.1)">
       <use xlink:href="#ArialMT-38"/>
       <use x="55.615234" xlink:href="#ArialMT-30"/>
       <use x="111.230469" xlink:href="#ArialMT-25"/>
      </g>
     </g>
    </g>
    <g id="ytick_12">
     <g id="text_20">
      <!-- 100% -->
      <g style="fill:#262626;" transform="translate(31.09125 208.405144)scale(0.1 -0.1)">
       <use xlink:href="#ArialMT-31"/>
       <use x="55.615234" xlink:href="#ArialMT-30"/>
       <use x="111.230469" xlink:href="#ArialMT-30"/>
       <use x="166.845703" xlink:href="#ArialMT-25"/>
      </g>
     </g>
    </g>
   </g>
   <g id="line2d_3">
    <path clip-path="url(#p5520551c38)" d="M 78.800541 251.132411 
L 122.041372 251.758937 
L 165.282203 264.676934 
L 208.523034 259.181444 
L 251.763865 262.315277 
L 295.004696 280.984289 
L 338.245527 282.053245 
" style="fill:none;stroke:#88ccee;stroke-linecap:round;stroke-width:1.5;"/>
    <g clip-path="url(#p5520551c38)">
     <use style="fill:#88ccee;stroke:#88ccee;" x="78.800541" xlink:href="#mcf44ff0bc5" y="251.132411"/>
     <use style="fill:#88ccee;stroke:#88ccee;" x="122.041372" xlink:href="#mcf44ff0bc5" y="251.758937"/>
     <use style="fill:#88ccee;stroke:#88ccee;" x="165.282203" xlink:href="#mcf44ff0bc5" y="264.676934"/>
     <use style="fill:#88ccee;stroke:#88ccee;" x="208.523034" xlink:href="#mcf44ff0bc5" y="259.181444"/>
     <use style="fill:#88ccee;stroke:#88ccee;" x="251.763865" xlink:href="#mcf44ff0bc5" y="262.315277"/>
     <use style="fill:#88ccee;stroke:#88ccee;" x="295.004696" xlink:href="#mcf44ff0bc5" y="280.984289"/>
     <use style="fill:#88ccee;stroke:#88ccee;" x="338.245527" xlink:href="#mcf44ff0bc5" y="282.053245"/>
    </g>
   </g>
   <g id="line2d_4">
    <path clip-path="url(#p5520551c38)" d="M 78.800541 222.031799 
L 122.041372 219.234524 
L 165.282203 226.220726 
L 208.523034 223.025017 
L 251.763865 230.395842 
L 295.004696 301.761314 
L 338.245527 323.211777 
" style="fill:none;stroke:#cc6677;stroke-linecap:round;stroke-width:1.5;"/>
    <defs>
     <path d="M 0 1.25 
C 0.331504 1.25 0.649475 1.118292 0.883883 0.883883 
C 1.118292 0.649475 1.25 0.331504 1.25 0 
C 1.25 -0.331504 1.118292 -0.649475 0.883883 -0.883883 
C 0.649475 -1.118292 0.331504 -1.25 0 -1.25 
C -0.331504 -1.25 -0.649475 -1.118292 -0.883883 -0.883883 
C -1.118292 -0.649475 -1.25 -0.331504 -1.25 0 
C -1.25 0.331504 -1.118292 0.649475 -0.883883 0.883883 
C -0.649475 1.118292 -0.331504 1.25 0 1.25 
z
" id="m892764707c" style="stroke:#cc6677;"/>
    </defs>
    <g clip-path="url(#p5520551c38)">
     <use style="fill:#cc6677;stroke:#cc6677;" x="78.800541" xlink:href="#m892764707c" y="222.031799"/>
     <use style="fill:#cc6677;stroke:#cc6677;" x="122.041372" xlink:href="#m892764707c" y="219.234524"/>
     <use style="fill:#cc6677;stroke:#cc6677;" x="165.282203" xlink:href="#m892764707c" y="226.220726"/>
     <use style="fill:#cc6677;stroke:#cc6677;" x="208.523034" xlink:href="#m892764707c" y="223.025017"/>
     <use style="fill:#cc6677;stroke:#cc6677;" x="251.763865" xlink:href="#m892764707c" y="230.395842"/>
     <use style="fill:#cc6677;stroke:#cc6677;" x="295.004696" xlink:href="#m892764707c" y="301.761314"/>
     <use style="fill:#cc6677;stroke:#cc6677;" x="338.245527" xlink:href="#m892764707c" y="323.211777"/>
    </g>
   </g>
   <g id="line2d_5">
    <path clip-path="url(#p5520551c38)" d="M 78.800541 282.856841 
L 122.041372 290.221432 
L 165.282203 309.564091 
L 208.523034 295.450772 
L 251.763865 307.727513 
L 295.004696 236.670734 
L 338.245527 227.238575 
" style="fill:none;stroke:#ddcc77;stroke-linecap:round;stroke-width:1.5;"/>
    <defs>
     <path d="M 0 1.25 
C 0.331504 1.25 0.649475 1.118292 0.883883 0.883883 
C 1.118292 0.649475 1.25 0.331504 1.25 0 
C 1.25 -0.331504 1.118292 -0.649475 0.883883 -0.883883 
C 0.649475 -1.118292 0.331504 -1.25 0 -1.25 
C -0.331504 -1.25 -0.649475 -1.118292 -0.883883 -0.883883 
C -1.118292 -0.649475 -1.25 -0.331504 -1.25 0 
C -1.25 0.331504 -1.118292 0.649475 -0.883883 0.883883 
C -0.649475 1.118292 -0.331504 1.25 0 1.25 
z
" id="m3246880a92" style="stroke:#ddcc77;"/>
    </defs>
    <g clip-path="url(#p5520551c38)">
     <use style="fill:#ddcc77;stroke:#ddcc77;" x="78.800541" xlink:href="#m3246880a92" y="282.856841"/>
     <use style="fill:#ddcc77;stroke:#ddcc77;" x="122.041372" xlink:href="#m3246880a92" y="290.221432"/>
     <use style="fill:#ddcc77;stroke:#ddcc77;" x="165.282203" xlink:href="#m3246880a92" y="309.564091"/>
     <use style="fill:#ddcc77;stroke:#ddcc77;" x="208.523034" xlink:href="#m3246880a92" y="295.450772"/>
     <use style="fill:#ddcc77;stroke:#ddcc77;" x="251.763865" xlink:href="#m3246880a92" y="307.727513"/>
     <use style="fill:#ddcc77;stroke:#ddcc77;" x="295.004696" xlink:href="#m3246880a92" y="236.670734"/>
     <use style="fill:#ddcc77;stroke:#ddcc77;" x="338.245527" xlink:href="#m3246880a92" y="227.238575"/>
    </g>
   </g>
   <g id="line2d_6">
    <path clip-path="url(#p5520551c38)" d="M 78.800541 274.432637 
L 381.486358 274.432637 
" style="fill:none;stroke:#000000;stroke-linecap:round;stroke-opacity:0.35;stroke-width:0.1;"/>
   </g>
   <g id="text_21">
    <!-- independent -->
    <g style="fill:#88ccee;" transform="translate(342.56961 284.745297)scale(0.1 -0.1)">
     <use xlink:href="#ArialMT-69"/>
     <use x="22.216797" xlink:href="#ArialMT-6e"/>
     <use x="77.832031" xlink:href="#ArialMT-64"/>
     <use x="133.447266" xlink:href="#ArialMT-65"/>
     <use x="189.0625" xlink:href="#ArialMT-70"/>
     <use x="244.677734" xlink:href="#ArialMT-65"/>
     <use x="300.292969" xlink:href="#ArialMT-6e"/>
     <use x="355.908203" xlink:href="#ArialMT-64"/>
     <use x="411.523438" xlink:href="#ArialMT-65"/>
     <use x="467.138672" xlink:href="#ArialMT-6e"/>
     <use x="522.753906" xlink:href="#ArialMT-74"/>
    </g>
   </g>
   <g id="text_22">
    <!-- democratic -->
    <g style="fill:#cc6677;" transform="translate(342.56961 327.94198)scale(0.1 -0.1)">
     <use xlink:href="#ArialMT-64"/>
     <use x="55.615234" xlink:href="#ArialMT-65"/>
     <use x="111.230469" xlink:href="#ArialMT-6d"/>
     <use x="194.53125" xlink:href="#ArialMT-6f"/>
     <use x="250.146484" xlink:href="#ArialMT-63"/>
     <use x="300.146484" xlink:href="#ArialMT-72"/>
     <use x="333.447266" xlink:href="#ArialMT-61"/>
     <use x="389.0625" xlink:href="#ArialMT-74"/>
     <use x="416.845703" xlink:href="#ArialMT-69"/>
     <use x="439.0625" xlink:href="#ArialMT-63"/>
    </g>
   </g>
   <g id="text_23">
    <!-- republican -->
    <g style="fill:#ddcc77;" transform="translate(342.56961 228.880515)scale(0.1 -0.1)">
     <use xlink:href="#ArialMT-72"/>
     <use x="33.300781" xlink:href="#ArialMT-65"/>
     <use x="88.916016" xlink:href="#ArialMT-70"/>
     <use x="144.53125" xlink:href="#ArialMT-75"/>
     <use x="200.146484" xlink:href="#ArialMT-62"/>
     <use x="255.761719" xlink:href="#ArialMT-6c"/>
     <use x="277.978516" xlink:href="#ArialMT-69"/>
     <use x="300.195312" xlink:href="#ArialMT-63"/>
     <use x="350.195312" xlink:href="#ArialMT-61"/>
     <use x="405.810547" xlink:href="#ArialMT-6e"/>
    </g>
   </g>
  </g>
  <g id="axes_3">
   <g id="patch_4">
    <path d="M 63.66625 504.131837 
L 396.620649 504.131837 
L 396.620649 364.919037 
L 63.66625 364.919037 
z
" style="fill:#ffffff;"/>
   </g>
   <g id="matplotlib.axis_5">
    <g id="xtick_15"/>
    <g id="xtick_16"/>
    <g id="xtick_17"/>
    <g id="xtick_18"/>
    <g id="xtick_19"/>
    <g id="xtick_20"/>
    <g id="xtick_21"/>
   </g>
   <g id="matplotlib.axis_6">
    <g id="ytick_13">
     <g id="text_24">
      <!-- 0% -->
      <g style="fill:#262626;" transform="translate(42.213125 507.710744)scale(0.1 -0.1)">
       <use xlink:href="#ArialMT-30"/>
       <use x="55.615234" xlink:href="#ArialMT-25"/>
      </g>
     </g>
    </g>
    <g id="ytick_14">
     <g id="text_25">
      <!-- 20% -->
      <g style="fill:#262626;" transform="translate(36.652188 479.868184)scale(0.1 -0.1)">
       <use xlink:href="#ArialMT-32"/>
       <use x="55.615234" xlink:href="#ArialMT-30"/>
       <use x="111.230469" xlink:href="#ArialMT-25"/>
      </g>
     </g>
    </g>
    <g id="ytick_15">
     <g id="text_26">
      <!-- 40% -->
      <g style="fill:#262626;" transform="translate(36.652188 452.025624)scale(0.1 -0.1)">
       <use xlink:href="#ArialMT-34"/>
       <use x="55.615234" xlink:href="#ArialMT-30"/>
       <use x="111.230469" xlink:href="#ArialMT-25"/>
      </g>
     </g>
    </g>
    <g id="ytick_16">
     <g id="text_27">
      <!-- 60% -->
      <g style="fill:#262626;" transform="translate(36.652188 424.183064)scale(0.1 -0.1)">
       <use xlink:href="#ArialMT-36"/>
       <use x="55.615234" xlink:href="#ArialMT-30"/>
       <use x="111.230469" xlink:href="#ArialMT-25"/>
      </g>
     </g>
    </g>
    <g id="ytick_17">
     <g id="text_28">
      <!-- 80% -->
      <g style="fill:#262626;" transform="translate(36.652188 396.340504)scale(0.1 -0.1)">
       <use xlink:href="#ArialMT-38"/>
       <use x="55.615234" xlink:href="#ArialMT-30"/>
       <use x="111.230469" xlink:href="#ArialMT-25"/>
      </g>
     </g>
    </g>
    <g id="ytick_18">
     <g id="text_29">
      <!-- 100% -->
      <g style="fill:#262626;" transform="translate(31.09125 368.497944)scale(0.1 -0.1)">
       <use xlink:href="#ArialMT-31"/>
       <use x="55.615234" xlink:href="#ArialMT-30"/>
       <use x="111.230469" xlink:href="#ArialMT-30"/>
       <use x="166.845703" xlink:href="#ArialMT-25"/>
      </g>
     </g>
    </g>
   </g>
   <g id="line2d_7">
    <path clip-path="url(#pedf2a96762)" d="M 78.800541 411.035729 
L 122.041372 413.326917 
L 165.282203 424.957096 
L 208.523034 419.079239 
L 251.763865 427.083797 
L 295.004696 433.723669 
L 338.245527 439.605825 
" style="fill:none;stroke:#88ccee;stroke-linecap:round;stroke-width:1.5;"/>
    <g clip-path="url(#pedf2a96762)">
     <use style="fill:#88ccee;stroke:#88ccee;" x="78.800541" xlink:href="#mcf44ff0bc5" y="411.035729"/>
     <use style="fill:#88ccee;stroke:#88ccee;" x="122.041372" xlink:href="#mcf44ff0bc5" y="413.326917"/>
     <use style="fill:#88ccee;stroke:#88ccee;" x="165.282203" xlink:href="#mcf44ff0bc5" y="424.957096"/>
     <use style="fill:#88ccee;stroke:#88ccee;" x="208.523034" xlink:href="#mcf44ff0bc5" y="419.079239"/>
     <use style="fill:#88ccee;stroke:#88ccee;" x="251.763865" xlink:href="#mcf44ff0bc5" y="427.083797"/>
     <use style="fill:#88ccee;stroke:#88ccee;" x="295.004696" xlink:href="#mcf44ff0bc5" y="433.723669"/>
     <use style="fill:#88ccee;stroke:#88ccee;" x="338.245527" xlink:href="#mcf44ff0bc5" y="439.605825"/>
    </g>
   </g>
   <g id="line2d_8">
    <path clip-path="url(#pedf2a96762)" d="M 78.800541 404.472123 
L 122.041372 407.834115 
L 165.282203 393.730516 
L 208.523034 428.673817 
L 251.763865 424.991151 
L 295.004696 440.052818 
L 338.245527 449.326032 
" style="fill:none;stroke:#cc6677;stroke-linecap:round;stroke-width:1.5;"/>
    <g clip-path="url(#pedf2a96762)">
     <use style="fill:#cc6677;stroke:#cc6677;" x="78.800541" xlink:href="#m892764707c" y="404.472123"/>
     <use style="fill:#cc6677;stroke:#cc6677;" x="122.041372" xlink:href="#m892764707c" y="407.834115"/>
     <use style="fill:#cc6677;stroke:#cc6677;" x="165.282203" xlink:href="#m892764707c" y="393.730516"/>
     <use style="fill:#cc6677;stroke:#cc6677;" x="208.523034" xlink:href="#m892764707c" y="428.673817"/>
     <use style="fill:#cc6677;stroke:#cc6677;" x="251.763865" xlink:href="#m892764707c" y="424.991151"/>
     <use style="fill:#cc6677;stroke:#cc6677;" x="295.004696" xlink:href="#m892764707c" y="440.052818"/>
     <use style="fill:#cc6677;stroke:#cc6677;" x="338.245527" xlink:href="#m892764707c" y="449.326032"/>
    </g>
   </g>
   <g id="line2d_9">
    <path clip-path="url(#pedf2a96762)" d="M 78.800541 434.525437 
L 381.486358 434.525437 
" style="fill:none;stroke:#000000;stroke-linecap:round;stroke-opacity:0.35;stroke-width:0.1;"/>
   </g>
   <g id="text_30">
    <!-- registered to vote -->
    <g style="fill:#88ccee;" transform="translate(342.56961 442.720603)scale(0.1 -0.1)">
     <defs>
      <path d="M 1344 0 
L 81 3319 
L 675 3319 
L 1388 1331 
Q 1503 1009 1600 663 
Q 1675 925 1809 1294 
L 2547 3319 
L 3125 3319 
L 1869 0 
L 1344 0 
z
" id="ArialMT-76" transform="scale(0.015625)"/>
     </defs>
     <use xlink:href="#ArialMT-72"/>
     <use x="33.300781" xlink:href="#ArialMT-65"/>
     <use x="88.916016" xlink:href="#ArialMT-67"/>
     <use x="144.53125" xlink:href="#ArialMT-69"/>
     <use x="166.748047" xlink:href="#ArialMT-73"/>
     <use x="216.748047" xlink:href="#ArialMT-74"/>
     <use x="244.53125" xlink:href="#ArialMT-65"/>
     <use x="300.146484" xlink:href="#ArialMT-72"/>
     <use x="333.447266" xlink:href="#ArialMT-65"/>
     <use x="389.0625" xlink:href="#ArialMT-64"/>
     <use x="444.677734" xlink:href="#ArialMT-20"/>
     <use x="472.460938" xlink:href="#ArialMT-74"/>
     <use x="500.244141" xlink:href="#ArialMT-6f"/>
     <use x="555.859375" xlink:href="#ArialMT-20"/>
     <use x="583.642578" xlink:href="#ArialMT-76"/>
     <use x="633.642578" xlink:href="#ArialMT-6f"/>
     <use x="689.257812" xlink:href="#ArialMT-74"/>
     <use x="717.041016" xlink:href="#ArialMT-65"/>
    </g>
   </g>
   <g id="text_31">
    <!-- not registered -->
    <g style="fill:#cc6677;" transform="translate(342.56961 452.779916)scale(0.1 -0.1)">
     <use xlink:href="#ArialMT-6e"/>
     <use x="55.615234" xlink:href="#ArialMT-6f"/>
     <use x="111.230469" xlink:href="#ArialMT-74"/>
     <use x="139.013672" xlink:href="#ArialMT-20"/>
     <use x="166.796875" xlink:href="#ArialMT-72"/>
     <use x="200.097656" xlink:href="#ArialMT-65"/>
     <use x="255.712891" xlink:href="#ArialMT-67"/>
     <use x="311.328125" xlink:href="#ArialMT-69"/>
     <use x="333.544922" xlink:href="#ArialMT-73"/>
     <use x="383.544922" xlink:href="#ArialMT-74"/>
     <use x="411.328125" xlink:href="#ArialMT-65"/>
     <use x="466.943359" xlink:href="#ArialMT-72"/>
     <use x="500.244141" xlink:href="#ArialMT-65"/>
     <use x="555.859375" xlink:href="#ArialMT-64"/>
    </g>
   </g>
  </g>
  <g id="axes_4">
   <g id="patch_5">
    <path d="M 63.66625 664.224637 
L 396.620649 664.224637 
L 396.620649 525.011837 
L 63.66625 525.011837 
z
" style="fill:#ffffff;"/>
   </g>
   <g id="matplotlib.axis_7">
    <g id="xtick_22"/>
    <g id="xtick_23"/>
    <g id="xtick_24"/>
    <g id="xtick_25"/>
    <g id="xtick_26"/>
    <g id="xtick_27"/>
    <g id="xtick_28"/>
   </g>
   <g id="matplotlib.axis_8">
    <g id="ytick_19">
     <g id="text_32">
      <!-- 0% -->
      <g style="fill:#262626;" transform="translate(42.213125 667.803544)scale(0.1 -0.1)">
       <use xlink:href="#ArialMT-30"/>
       <use x="55.615234" xlink:href="#ArialMT-25"/>
      </g>
     </g>
    </g>
    <g id="ytick_20">
     <g id="text_33">
      <!-- 20% -->
      <g style="fill:#262626;" transform="translate(36.652188 639.960984)scale(0.1 -0.1)">
       <use xlink:href="#ArialMT-32"/>
       <use x="55.615234" xlink:href="#ArialMT-30"/>
       <use x="111.230469" xlink:href="#ArialMT-25"/>
      </g>
     </g>
    </g>
    <g id="ytick_21">
     <g id="text_34">
      <!-- 40% -->
      <g style="fill:#262626;" transform="translate(36.652188 612.118424)scale(0.1 -0.1)">
       <use xlink:href="#ArialMT-34"/>
       <use x="55.615234" xlink:href="#ArialMT-30"/>
       <use x="111.230469" xlink:href="#ArialMT-25"/>
      </g>
     </g>
    </g>
    <g id="ytick_22">
     <g id="text_35">
      <!-- 60% -->
      <g style="fill:#262626;" transform="translate(36.652188 584.275864)scale(0.1 -0.1)">
       <use xlink:href="#ArialMT-36"/>
       <use x="55.615234" xlink:href="#ArialMT-30"/>
       <use x="111.230469" xlink:href="#ArialMT-25"/>
      </g>
     </g>
    </g>
    <g id="ytick_23">
     <g id="text_36">
      <!-- 80% -->
      <g style="fill:#262626;" transform="translate(36.652188 556.433304)scale(0.1 -0.1)">
       <use xlink:href="#ArialMT-38"/>
       <use x="55.615234" xlink:href="#ArialMT-30"/>
       <use x="111.230469" xlink:href="#ArialMT-25"/>
      </g>
     </g>
    </g>
    <g id="ytick_24">
     <g id="text_37">
      <!-- 100% -->
      <g style="fill:#262626;" transform="translate(31.09125 528.590744)scale(0.1 -0.1)">
       <use xlink:href="#ArialMT-31"/>
       <use x="55.615234" xlink:href="#ArialMT-30"/>
       <use x="111.230469" xlink:href="#ArialMT-30"/>
       <use x="166.845703" xlink:href="#ArialMT-25"/>
      </g>
     </g>
    </g>
   </g>
   <g id="line2d_10">
    <path clip-path="url(#pf1016caa94)" d="M 78.800541 571.555462 
L 122.041372 574.928865 
L 165.282203 577.743165 
L 208.523034 585.39426 
L 251.763865 591.285187 
L 295.004696 584.17864 
L 338.245527 592.951445 
" style="fill:none;stroke:#88ccee;stroke-linecap:round;stroke-width:1.5;"/>
    <g clip-path="url(#pf1016caa94)">
     <use style="fill:#88ccee;stroke:#88ccee;" x="78.800541" xlink:href="#mcf44ff0bc5" y="571.555462"/>
     <use style="fill:#88ccee;stroke:#88ccee;" x="122.041372" xlink:href="#mcf44ff0bc5" y="574.928865"/>
     <use style="fill:#88ccee;stroke:#88ccee;" x="165.282203" xlink:href="#mcf44ff0bc5" y="577.743165"/>
     <use style="fill:#88ccee;stroke:#88ccee;" x="208.523034" xlink:href="#mcf44ff0bc5" y="585.39426"/>
     <use style="fill:#88ccee;stroke:#88ccee;" x="251.763865" xlink:href="#mcf44ff0bc5" y="591.285187"/>
     <use style="fill:#88ccee;stroke:#88ccee;" x="295.004696" xlink:href="#mcf44ff0bc5" y="584.17864"/>
     <use style="fill:#88ccee;stroke:#88ccee;" x="338.245527" xlink:href="#mcf44ff0bc5" y="592.951445"/>
    </g>
   </g>
   <g id="line2d_11">
    <path clip-path="url(#pf1016caa94)" d="M 78.800541 568.571992 
L 122.041372 573.31703 
L 165.282203 578.722059 
L 208.523034 588.51534 
L 251.763865 586.396226 
L 295.004696 599.734137 
L 338.245527 602.614506 
" style="fill:none;stroke:#cc6677;stroke-linecap:round;stroke-width:1.5;"/>
    <g clip-path="url(#pf1016caa94)">
     <use style="fill:#cc6677;stroke:#cc6677;" x="78.800541" xlink:href="#m892764707c" y="568.571992"/>
     <use style="fill:#cc6677;stroke:#cc6677;" x="122.041372" xlink:href="#m892764707c" y="573.31703"/>
     <use style="fill:#cc6677;stroke:#cc6677;" x="165.282203" xlink:href="#m892764707c" y="578.722059"/>
     <use style="fill:#cc6677;stroke:#cc6677;" x="208.523034" xlink:href="#m892764707c" y="588.51534"/>
     <use style="fill:#cc6677;stroke:#cc6677;" x="251.763865" xlink:href="#m892764707c" y="586.396226"/>
     <use style="fill:#cc6677;stroke:#cc6677;" x="295.004696" xlink:href="#m892764707c" y="599.734137"/>
     <use style="fill:#cc6677;stroke:#cc6677;" x="338.245527" xlink:href="#m892764707c" y="602.614506"/>
    </g>
   </g>
   <g id="line2d_12">
    <path clip-path="url(#pf1016caa94)" d="M 78.800541 568.03467 
L 122.041372 569.38856 
L 165.282203 582.007714 
L 208.523034 574.684056 
L 251.763865 580.131583 
L 295.004696 604.905665 
L 338.245527 609.275292 
" style="fill:none;stroke:#ddcc77;stroke-linecap:round;stroke-width:1.5;"/>
    <g clip-path="url(#pf1016caa94)">
     <use style="fill:#ddcc77;stroke:#ddcc77;" x="78.800541" xlink:href="#m3246880a92" y="568.03467"/>
     <use style="fill:#ddcc77;stroke:#ddcc77;" x="122.041372" xlink:href="#m3246880a92" y="569.38856"/>
     <use style="fill:#ddcc77;stroke:#ddcc77;" x="165.282203" xlink:href="#m3246880a92" y="582.007714"/>
     <use style="fill:#ddcc77;stroke:#ddcc77;" x="208.523034" xlink:href="#m3246880a92" y="574.684056"/>
     <use style="fill:#ddcc77;stroke:#ddcc77;" x="251.763865" xlink:href="#m3246880a92" y="580.131583"/>
     <use style="fill:#ddcc77;stroke:#ddcc77;" x="295.004696" xlink:href="#m3246880a92" y="604.905665"/>
     <use style="fill:#ddcc77;stroke:#ddcc77;" x="338.245527" xlink:href="#m3246880a92" y="609.275292"/>
    </g>
   </g>
   <g id="line2d_13">
    <path clip-path="url(#pf1016caa94)" d="M 78.800541 563.737007 
L 122.041372 561.281457 
L 165.282203 577.890366 
L 208.523034 562.70388 
L 251.763865 573.297122 
L 295.004696 614.254804 
L 338.245527 620.455717 
" style="fill:none;stroke:#117733;stroke-linecap:round;stroke-width:1.5;"/>
    <defs>
     <path d="M 0 1.25 
C 0.331504 1.25 0.649475 1.118292 0.883883 0.883883 
C 1.118292 0.649475 1.25 0.331504 1.25 0 
C 1.25 -0.331504 1.118292 -0.649475 0.883883 -0.883883 
C 0.649475 -1.118292 0.331504 -1.25 0 -1.25 
C -0.331504 -1.25 -0.649475 -1.118292 -0.883883 -0.883883 
C -1.118292 -0.649475 -1.25 -0.331504 -1.25 0 
C -1.25 0.331504 -1.118292 0.649475 -0.883883 0.883883 
C -0.649475 1.118292 -0.331504 1.25 0 1.25 
z
" id="m8e61cb60ff" style="stroke:#117733;"/>
    </defs>
    <g clip-path="url(#pf1016caa94)">
     <use style="fill:#117733;stroke:#117733;" x="78.800541" xlink:href="#m8e61cb60ff" y="563.737007"/>
     <use style="fill:#117733;stroke:#117733;" x="122.041372" xlink:href="#m8e61cb60ff" y="561.281457"/>
     <use style="fill:#117733;stroke:#117733;" x="165.282203" xlink:href="#m8e61cb60ff" y="577.890366"/>
     <use style="fill:#117733;stroke:#117733;" x="208.523034" xlink:href="#m8e61cb60ff" y="562.70388"/>
     <use style="fill:#117733;stroke:#117733;" x="251.763865" xlink:href="#m8e61cb60ff" y="573.297122"/>
     <use style="fill:#117733;stroke:#117733;" x="295.004696" xlink:href="#m8e61cb60ff" y="614.254804"/>
     <use style="fill:#117733;stroke:#117733;" x="338.245527" xlink:href="#m8e61cb60ff" y="620.455717"/>
    </g>
   </g>
   <g id="line2d_14">
    <path clip-path="url(#pf1016caa94)" d="M 78.800541 594.618237 
L 381.486358 594.618237 
" style="fill:none;stroke:#000000;stroke-linecap:round;stroke-opacity:0.35;stroke-width:0.1;"/>
   </g>
   <g id="text_38">
    <!-- high school -->
    <g style="fill:#88ccee;" transform="translate(342.56961 596.355288)scale(0.1 -0.1)">
     <defs>
      <path d="M 422 0 
L 422 4581 
L 984 4581 
L 984 2938 
Q 1378 3394 1978 3394 
Q 2347 3394 2619 3248 
Q 2891 3103 3008 2847 
Q 3125 2591 3125 2103 
L 3125 0 
L 2563 0 
L 2563 2103 
Q 2563 2525 2380 2717 
Q 2197 2909 1863 2909 
Q 1613 2909 1392 2779 
Q 1172 2650 1078 2428 
Q 984 2206 984 1816 
L 984 0 
L 422 0 
z
" id="ArialMT-68" transform="scale(0.015625)"/>
     </defs>
     <use xlink:href="#ArialMT-68"/>
     <use x="55.615234" xlink:href="#ArialMT-69"/>
     <use x="77.832031" xlink:href="#ArialMT-67"/>
     <use x="133.447266" xlink:href="#ArialMT-68"/>
     <use x="189.0625" xlink:href="#ArialMT-20"/>
     <use x="216.845703" xlink:href="#ArialMT-73"/>
     <use x="266.845703" xlink:href="#ArialMT-63"/>
     <use x="316.845703" xlink:href="#ArialMT-68"/>
     <use x="372.460938" xlink:href="#ArialMT-6f"/>
     <use x="428.076172" xlink:href="#ArialMT-6f"/>
     <use x="483.691406" xlink:href="#ArialMT-6c"/>
    </g>
   </g>
   <g id="text_39">
    <!-- some college -->
    <g style="fill:#cc6677;" transform="translate(342.56961 605.429106)scale(0.1 -0.1)">
     <use xlink:href="#ArialMT-73"/>
     <use x="50" xlink:href="#ArialMT-6f"/>
     <use x="105.615234" xlink:href="#ArialMT-6d"/>
     <use x="188.916016" xlink:href="#ArialMT-65"/>
     <use x="244.53125" xlink:href="#ArialMT-20"/>
     <use x="272.314453" xlink:href="#ArialMT-63"/>
     <use x="322.314453" xlink:href="#ArialMT-6f"/>
     <use x="377.929688" xlink:href="#ArialMT-6c"/>
     <use x="400.146484" xlink:href="#ArialMT-6c"/>
     <use x="422.363281" xlink:href="#ArialMT-65"/>
     <use x="477.978516" xlink:href="#ArialMT-67"/>
     <use x="533.59375" xlink:href="#ArialMT-65"/>
    </g>
   </g>
   <g id="text_40">
    <!-- 4 year degree -->
    <g style="fill:#ddcc77;" transform="translate(342.56961 612.238817)scale(0.1 -0.1)">
     <use xlink:href="#ArialMT-34"/>
     <use x="55.615234" xlink:href="#ArialMT-20"/>
     <use x="83.398438" xlink:href="#ArialMT-79"/>
     <use x="133.398438" xlink:href="#ArialMT-65"/>
     <use x="189.013672" xlink:href="#ArialMT-61"/>
     <use x="244.628906" xlink:href="#ArialMT-72"/>
     <use x="277.929688" xlink:href="#ArialMT-20"/>
     <use x="305.712891" xlink:href="#ArialMT-64"/>
     <use x="361.328125" xlink:href="#ArialMT-65"/>
     <use x="416.943359" xlink:href="#ArialMT-67"/>
     <use x="472.558594" xlink:href="#ArialMT-72"/>
     <use x="505.859375" xlink:href="#ArialMT-65"/>
     <use x="561.474609" xlink:href="#ArialMT-65"/>
    </g>
   </g>
   <g id="text_41">
    <!-- postgrad -->
    <g style="fill:#117733;" transform="translate(342.56961 623.602371)scale(0.1 -0.1)">
     <use xlink:href="#ArialMT-70"/>
     <use x="55.615234" xlink:href="#ArialMT-6f"/>
     <use x="111.230469" xlink:href="#ArialMT-73"/>
     <use x="161.230469" xlink:href="#ArialMT-74"/>
     <use x="189.013672" xlink:href="#ArialMT-67"/>
     <use x="244.628906" xlink:href="#ArialMT-72"/>
     <use x="277.929688" xlink:href="#ArialMT-61"/>
     <use x="333.544922" xlink:href="#ArialMT-64"/>
    </g>
   </g>
  </g>
  <g id="axes_5">
   <g id="patch_6">
    <path d="M 63.66625 824.317437 
L 396.620649 824.317437 
L 396.620649 685.104637 
L 63.66625 685.104637 
z
" style="fill:#ffffff;"/>
   </g>
   <g id="matplotlib.axis_9">
    <g id="xtick_29">
     <g id="text_42">
      <!-- immigration -->
      <g style="fill:#262626;" transform="translate(52.96226 838.47525)scale(0.1 -0.1)">
       <use xlink:href="#ArialMT-69"/>
       <use x="22.216797" xlink:href="#ArialMT-6d"/>
       <use x="105.517578" xlink:href="#ArialMT-6d"/>
       <use x="188.818359" xlink:href="#ArialMT-69"/>
       <use x="211.035156" xlink:href="#ArialMT-67"/>
       <use x="266.650391" xlink:href="#ArialMT-72"/>
       <use x="299.951172" xlink:href="#ArialMT-61"/>
       <use x="355.566406" xlink:href="#ArialMT-74"/>
       <use x="383.349609" xlink:href="#ArialMT-69"/>
       <use x="405.566406" xlink:href="#ArialMT-6f"/>
       <use x="461.181641" xlink:href="#ArialMT-6e"/>
      </g>
      <!--  amnesty -->
      <g style="fill:#262626;" transform="translate(58.516166 849.169312)scale(0.1 -0.1)">
       <use xlink:href="#ArialMT-20"/>
       <use x="27.783203" xlink:href="#ArialMT-61"/>
       <use x="83.398438" xlink:href="#ArialMT-6d"/>
       <use x="166.699219" xlink:href="#ArialMT-6e"/>
       <use x="222.314453" xlink:href="#ArialMT-65"/>
       <use x="277.929688" xlink:href="#ArialMT-73"/>
       <use x="327.929688" xlink:href="#ArialMT-74"/>
       <use x="355.712891" xlink:href="#ArialMT-79"/>
      </g>
      <!--  -->
      <g style="fill:#262626;" transform="translate(78.800541 859.863375)scale(0.1 -0.1)"/>
     </g>
    </g>
    <g id="xtick_30">
     <g id="text_43">
      <!-- EPA -->
      <g style="fill:#262626;" transform="translate(112.404653 838.47525)scale(0.1 -0.1)">
       <use xlink:href="#ArialMT-45"/>
       <use x="66.699219" xlink:href="#ArialMT-50"/>
       <use x="126.023438" xlink:href="#ArialMT-41"/>
      </g>
      <!--  CO2 -->
      <g style="fill:#262626;" transform="translate(110.371841 849.052125)scale(0.1 -0.1)">
       <use xlink:href="#ArialMT-20"/>
       <use x="27.783203" xlink:href="#ArialMT-43"/>
       <use x="100" xlink:href="#ArialMT-4f"/>
       <use x="177.783203" xlink:href="#ArialMT-32"/>
      </g>
      <!-- regulation -->
      <g style="fill:#262626;" transform="translate(100.082778 859.629)scale(0.1 -0.1)">
       <use xlink:href="#ArialMT-72"/>
       <use x="33.300781" xlink:href="#ArialMT-65"/>
       <use x="88.916016" xlink:href="#ArialMT-67"/>
       <use x="144.53125" xlink:href="#ArialMT-75"/>
       <use x="200.146484" xlink:href="#ArialMT-6c"/>
       <use x="222.363281" xlink:href="#ArialMT-61"/>
       <use x="277.978516" xlink:href="#ArialMT-74"/>
       <use x="305.761719" xlink:href="#ArialMT-69"/>
       <use x="327.978516" xlink:href="#ArialMT-6f"/>
       <use x="383.59375" xlink:href="#ArialMT-6e"/>
      </g>
     </g>
    </g>
    <g id="xtick_31">
     <g id="text_44">
      <!-- medicare  -->
      <g style="fill:#262626;" transform="translate(143.330641 838.47525)scale(0.1 -0.1)">
       <use xlink:href="#ArialMT-6d"/>
       <use x="83.300781" xlink:href="#ArialMT-65"/>
       <use x="138.916016" xlink:href="#ArialMT-64"/>
       <use x="194.53125" xlink:href="#ArialMT-69"/>
       <use x="216.748047" xlink:href="#ArialMT-63"/>
       <use x="266.748047" xlink:href="#ArialMT-61"/>
       <use x="322.363281" xlink:href="#ArialMT-72"/>
       <use x="355.664062" xlink:href="#ArialMT-65"/>
       <use x="411.279297" xlink:href="#ArialMT-20"/>
      </g>
      <!-- for -->
      <g style="fill:#262626;" transform="translate(159.447828 849.052125)scale(0.1 -0.1)">
       <use xlink:href="#ArialMT-66"/>
       <use x="27.783203" xlink:href="#ArialMT-6f"/>
       <use x="83.398438" xlink:href="#ArialMT-72"/>
      </g>
      <!--  all -->
      <g style="fill:#262626;" transform="translate(158.890797 859.629)scale(0.1 -0.1)">
       <use xlink:href="#ArialMT-20"/>
       <use x="27.783203" xlink:href="#ArialMT-61"/>
       <use x="83.398438" xlink:href="#ArialMT-6c"/>
       <use x="105.615234" xlink:href="#ArialMT-6c"/>
      </g>
     </g>
    </g>
    <g id="xtick_32">
     <g id="text_45">
      <!-- ban -->
      <g style="fill:#262626;" transform="translate(200.181628 838.47525)scale(0.1 -0.1)">
       <use xlink:href="#ArialMT-62"/>
       <use x="55.615234" xlink:href="#ArialMT-61"/>
       <use x="111.230469" xlink:href="#ArialMT-6e"/>
      </g>
      <!--  assault -->
      <g style="fill:#262626;" transform="translate(191.292565 849.052125)scale(0.1 -0.1)">
       <use xlink:href="#ArialMT-20"/>
       <use x="27.783203" xlink:href="#ArialMT-61"/>
       <use x="83.398438" xlink:href="#ArialMT-73"/>
       <use x="133.398438" xlink:href="#ArialMT-73"/>
       <use x="183.398438" xlink:href="#ArialMT-61"/>
       <use x="239.013672" xlink:href="#ArialMT-75"/>
       <use x="294.628906" xlink:href="#ArialMT-6c"/>
       <use x="316.845703" xlink:href="#ArialMT-74"/>
      </g>
      <!--  rifles -->
      <g style="fill:#262626;" transform="translate(196.577722 859.629)scale(0.1 -0.1)">
       <use xlink:href="#ArialMT-20"/>
       <use x="27.783203" xlink:href="#ArialMT-72"/>
       <use x="61.083984" xlink:href="#ArialMT-69"/>
       <use x="83.300781" xlink:href="#ArialMT-66"/>
       <use x="111.083984" xlink:href="#ArialMT-6c"/>
       <use x="133.300781" xlink:href="#ArialMT-65"/>
       <use x="188.916016" xlink:href="#ArialMT-73"/>
      </g>
     </g>
    </g>
    <g id="xtick_33">
     <g id="text_46">
      <!-- abortion -->
      <g style="fill:#262626;" transform="translate(233.696678 838.47525)scale(0.1 -0.1)">
       <use xlink:href="#ArialMT-61"/>
       <use x="55.615234" xlink:href="#ArialMT-62"/>
       <use x="111.230469" xlink:href="#ArialMT-6f"/>
       <use x="166.845703" xlink:href="#ArialMT-72"/>
       <use x="200.146484" xlink:href="#ArialMT-74"/>
       <use x="227.929688" xlink:href="#ArialMT-69"/>
       <use x="250.146484" xlink:href="#ArialMT-6f"/>
       <use x="305.761719" xlink:href="#ArialMT-6e"/>
      </g>
      <!--  on -->
      <g style="fill:#262626;" transform="translate(244.813865 849.052125)scale(0.1 -0.1)">
       <use xlink:href="#ArialMT-20"/>
       <use x="27.783203" xlink:href="#ArialMT-6f"/>
       <use x="83.398438" xlink:href="#ArialMT-6e"/>
      </g>
      <!--  demand -->
      <g style="fill:#262626;" transform="translate(232.307615 859.629)scale(0.1 -0.1)">
       <use xlink:href="#ArialMT-20"/>
       <use x="27.783203" xlink:href="#ArialMT-64"/>
       <use x="83.398438" xlink:href="#ArialMT-65"/>
       <use x="139.013672" xlink:href="#ArialMT-6d"/>
       <use x="222.314453" xlink:href="#ArialMT-61"/>
       <use x="277.929688" xlink:href="#ArialMT-6e"/>
       <use x="333.544922" xlink:href="#ArialMT-64"/>
      </g>
     </g>
    </g>
    <g id="xtick_34">
     <g id="text_47">
      <!-- 10% -->
      <g style="fill:#262626;" transform="translate(284.997665 838.47525)scale(0.1 -0.1)">
       <use xlink:href="#ArialMT-31"/>
       <use x="55.615234" xlink:href="#ArialMT-30"/>
       <use x="111.230469" xlink:href="#ArialMT-25"/>
      </g>
      <!--  more  -->
      <g style="fill:#262626;" transform="translate(280.835946 849.052125)scale(0.1 -0.1)">
       <use xlink:href="#ArialMT-20"/>
       <use x="27.783203" xlink:href="#ArialMT-6d"/>
       <use x="111.083984" xlink:href="#ArialMT-6f"/>
       <use x="166.699219" xlink:href="#ArialMT-72"/>
       <use x="200" xlink:href="#ArialMT-65"/>
       <use x="255.615234" xlink:href="#ArialMT-20"/>
      </g>
      <!-- police -->
      <g style="fill:#262626;" transform="translate(281.941415 859.629)scale(0.1 -0.1)">
       <use xlink:href="#ArialMT-70"/>
       <use x="55.615234" xlink:href="#ArialMT-6f"/>
       <use x="111.230469" xlink:href="#ArialMT-6c"/>
       <use x="133.447266" xlink:href="#ArialMT-69"/>
       <use x="155.664062" xlink:href="#ArialMT-63"/>
       <use x="205.664062" xlink:href="#ArialMT-65"/>
      </g>
     </g>
    </g>
    <g id="xtick_35">
     <g id="text_48">
      <!-- border  -->
      <g style="fill:#262626;" transform="translate(322.404902 838.47525)scale(0.1 -0.1)">
       <use xlink:href="#ArialMT-62"/>
       <use x="55.615234" xlink:href="#ArialMT-6f"/>
       <use x="111.230469" xlink:href="#ArialMT-72"/>
       <use x="144.53125" xlink:href="#ArialMT-64"/>
       <use x="200.146484" xlink:href="#ArialMT-65"/>
       <use x="255.761719" xlink:href="#ArialMT-72"/>
       <use x="289.0625" xlink:href="#ArialMT-20"/>
      </g>
      <!-- security -->
      <g style="fill:#262626;" transform="translate(321.019746 849.052125)scale(0.1 -0.1)">
       <use xlink:href="#ArialMT-73"/>
       <use x="50" xlink:href="#ArialMT-65"/>
       <use x="105.615234" xlink:href="#ArialMT-63"/>
       <use x="155.615234" xlink:href="#ArialMT-75"/>
       <use x="211.230469" xlink:href="#ArialMT-72"/>
       <use x="244.53125" xlink:href="#ArialMT-69"/>
       <use x="266.748047" xlink:href="#ArialMT-74"/>
       <use x="294.53125" xlink:href="#ArialMT-79"/>
      </g>
      <!-- &amp; wall -->
      <g style="fill:#262626;" transform="translate(324.908027 859.746188)scale(0.1 -0.1)">
       <use xlink:href="#ArialMT-26"/>
       <use x="66.699219" xlink:href="#ArialMT-20"/>
       <use x="94.482422" xlink:href="#ArialMT-77"/>
       <use x="166.699219" xlink:href="#ArialMT-61"/>
       <use x="222.314453" xlink:href="#ArialMT-6c"/>
       <use x="244.53125" xlink:href="#ArialMT-6c"/>
      </g>
     </g>
    </g>
   </g>
   <g id="matplotlib.axis_10">
    <g id="ytick_25">
     <g id="text_49">
      <!-- 0% -->
      <g style="fill:#262626;" transform="translate(42.213125 827.896344)scale(0.1 -0.1)">
       <use xlink:href="#ArialMT-30"/>
       <use x="55.615234" xlink:href="#ArialMT-25"/>
      </g>
     </g>
    </g>
    <g id="ytick_26">
     <g id="text_50">
      <!-- 20% -->
      <g style="fill:#262626;" transform="translate(36.652188 800.053784)scale(0.1 -0.1)">
       <use xlink:href="#ArialMT-32"/>
       <use x="55.615234" xlink:href="#ArialMT-30"/>
       <use x="111.230469" xlink:href="#ArialMT-25"/>
      </g>
     </g>
    </g>
    <g id="ytick_27">
     <g id="text_51">
      <!-- 40% -->
      <g style="fill:#262626;" transform="translate(36.652188 772.211224)scale(0.1 -0.1)">
       <use xlink:href="#ArialMT-34"/>
       <use x="55.615234" xlink:href="#ArialMT-30"/>
       <use x="111.230469" xlink:href="#ArialMT-25"/>
      </g>
     </g>
    </g>
    <g id="ytick_28">
     <g id="text_52">
      <!-- 60% -->
      <g style="fill:#262626;" transform="translate(36.652188 744.368664)scale(0.1 -0.1)">
       <use xlink:href="#ArialMT-36"/>
       <use x="55.615234" xlink:href="#ArialMT-30"/>
       <use x="111.230469" xlink:href="#ArialMT-25"/>
      </g>
     </g>
    </g>
    <g id="ytick_29">
     <g id="text_53">
      <!-- 80% -->
      <g style="fill:#262626;" transform="translate(36.652188 716.526104)scale(0.1 -0.1)">
       <use xlink:href="#ArialMT-38"/>
       <use x="55.615234" xlink:href="#ArialMT-30"/>
       <use x="111.230469" xlink:href="#ArialMT-25"/>
      </g>
     </g>
    </g>
    <g id="ytick_30">
     <g id="text_54">
      <!-- 100% -->
      <g style="fill:#262626;" transform="translate(31.09125 688.683544)scale(0.1 -0.1)">
       <use xlink:href="#ArialMT-31"/>
       <use x="55.615234" xlink:href="#ArialMT-30"/>
       <use x="111.230469" xlink:href="#ArialMT-30"/>
       <use x="166.845703" xlink:href="#ArialMT-25"/>
      </g>
     </g>
    </g>
   </g>
   <g id="line2d_15">
    <path clip-path="url(#pf656680a64)" d="M 78.800541 735.216313 
L 122.041372 737.153498 
L 165.282203 748.423379 
L 208.523034 746.819335 
L 251.763865 751.757434 
L 295.004696 752.368486 
L 338.245527 753.67227 
" style="fill:none;stroke:#88ccee;stroke-linecap:round;stroke-width:1.5;"/>
    <g clip-path="url(#pf656680a64)">
     <use style="fill:#88ccee;stroke:#88ccee;" x="78.800541" xlink:href="#mcf44ff0bc5" y="735.216313"/>
     <use style="fill:#88ccee;stroke:#88ccee;" x="122.041372" xlink:href="#mcf44ff0bc5" y="737.153498"/>
     <use style="fill:#88ccee;stroke:#88ccee;" x="165.282203" xlink:href="#mcf44ff0bc5" y="748.423379"/>
     <use style="fill:#88ccee;stroke:#88ccee;" x="208.523034" xlink:href="#mcf44ff0bc5" y="746.819335"/>
     <use style="fill:#88ccee;stroke:#88ccee;" x="251.763865" xlink:href="#mcf44ff0bc5" y="751.757434"/>
     <use style="fill:#88ccee;stroke:#88ccee;" x="295.004696" xlink:href="#mcf44ff0bc5" y="752.368486"/>
     <use style="fill:#88ccee;stroke:#88ccee;" x="338.245527" xlink:href="#mcf44ff0bc5" y="753.67227"/>
    </g>
   </g>
   <g id="line2d_16">
    <path clip-path="url(#pf656680a64)" d="M 78.800541 715.252031 
L 122.041372 719.677544 
L 165.282203 708.598945 
L 208.523034 722.464014 
L 251.763865 727.131234 
L 295.004696 769.724278 
L 338.245527 788.077741 
" style="fill:none;stroke:#cc6677;stroke-linecap:round;stroke-width:1.5;"/>
    <g clip-path="url(#pf656680a64)">
     <use style="fill:#cc6677;stroke:#cc6677;" x="78.800541" xlink:href="#m892764707c" y="715.252031"/>
     <use style="fill:#cc6677;stroke:#cc6677;" x="122.041372" xlink:href="#m892764707c" y="719.677544"/>
     <use style="fill:#cc6677;stroke:#cc6677;" x="165.282203" xlink:href="#m892764707c" y="708.598945"/>
     <use style="fill:#cc6677;stroke:#cc6677;" x="208.523034" xlink:href="#m892764707c" y="722.464014"/>
     <use style="fill:#cc6677;stroke:#cc6677;" x="251.763865" xlink:href="#m892764707c" y="727.131234"/>
     <use style="fill:#cc6677;stroke:#cc6677;" x="295.004696" xlink:href="#m892764707c" y="769.724278"/>
     <use style="fill:#cc6677;stroke:#cc6677;" x="338.245527" xlink:href="#m892764707c" y="788.077741"/>
    </g>
   </g>
   <g id="line2d_17">
    <path clip-path="url(#pf656680a64)" d="M 78.800541 710.383243 
L 122.041372 720.540965 
L 165.282203 718.713313 
L 208.523034 736.594853 
L 251.763865 740.157744 
L 295.004696 757.660845 
L 338.245527 780.72294 
" style="fill:none;stroke:#ddcc77;stroke-linecap:round;stroke-width:1.5;"/>
    <g clip-path="url(#pf656680a64)">
     <use style="fill:#ddcc77;stroke:#ddcc77;" x="78.800541" xlink:href="#m3246880a92" y="710.383243"/>
     <use style="fill:#ddcc77;stroke:#ddcc77;" x="122.041372" xlink:href="#m3246880a92" y="720.540965"/>
     <use style="fill:#ddcc77;stroke:#ddcc77;" x="165.282203" xlink:href="#m3246880a92" y="718.713313"/>
     <use style="fill:#ddcc77;stroke:#ddcc77;" x="208.523034" xlink:href="#m3246880a92" y="736.594853"/>
     <use style="fill:#ddcc77;stroke:#ddcc77;" x="251.763865" xlink:href="#m3246880a92" y="740.157744"/>
     <use style="fill:#ddcc77;stroke:#ddcc77;" x="295.004696" xlink:href="#m3246880a92" y="757.660845"/>
     <use style="fill:#ddcc77;stroke:#ddcc77;" x="338.245527" xlink:href="#m3246880a92" y="780.72294"/>
    </g>
   </g>
   <g id="line2d_18">
    <path clip-path="url(#pf656680a64)" d="M 78.800541 721.825279 
L 122.041372 715.777978 
L 165.282203 719.814231 
L 208.523034 722.399656 
L 251.763865 733.818356 
L 295.004696 760.947669 
L 338.245527 774.091098 
" style="fill:none;stroke:#117733;stroke-linecap:round;stroke-width:1.5;"/>
    <g clip-path="url(#pf656680a64)">
     <use style="fill:#117733;stroke:#117733;" x="78.800541" xlink:href="#m8e61cb60ff" y="721.825279"/>
     <use style="fill:#117733;stroke:#117733;" x="122.041372" xlink:href="#m8e61cb60ff" y="715.777978"/>
     <use style="fill:#117733;stroke:#117733;" x="165.282203" xlink:href="#m8e61cb60ff" y="719.814231"/>
     <use style="fill:#117733;stroke:#117733;" x="208.523034" xlink:href="#m8e61cb60ff" y="722.399656"/>
     <use style="fill:#117733;stroke:#117733;" x="251.763865" xlink:href="#m8e61cb60ff" y="733.818356"/>
     <use style="fill:#117733;stroke:#117733;" x="295.004696" xlink:href="#m8e61cb60ff" y="760.947669"/>
     <use style="fill:#117733;stroke:#117733;" x="338.245527" xlink:href="#m8e61cb60ff" y="774.091098"/>
    </g>
   </g>
   <g id="line2d_19">
    <path clip-path="url(#pf656680a64)" d="M 78.800541 738.525931 
L 122.041372 743.54838 
L 165.282203 736.400064 
L 208.523034 759.585272 
L 251.763865 751.082071 
L 295.004696 756.021961 
L 338.245527 756.689512 
" style="fill:none;stroke:#332288;stroke-linecap:round;stroke-width:1.5;"/>
    <defs>
     <path d="M 0 1.25 
C 0.331504 1.25 0.649475 1.118292 0.883883 0.883883 
C 1.118292 0.649475 1.25 0.331504 1.25 0 
C 1.25 -0.331504 1.118292 -0.649475 0.883883 -0.883883 
C 0.649475 -1.118292 0.331504 -1.25 0 -1.25 
C -0.331504 -1.25 -0.649475 -1.118292 -0.883883 -0.883883 
C -1.118292 -0.649475 -1.25 -0.331504 -1.25 0 
C -1.25 0.331504 -1.118292 0.649475 -0.883883 0.883883 
C -0.649475 1.118292 -0.331504 1.25 0 1.25 
z
" id="m294a4c1e18" style="stroke:#332288;"/>
    </defs>
    <g clip-path="url(#pf656680a64)">
     <use style="fill:#332288;stroke:#332288;" x="78.800541" xlink:href="#m294a4c1e18" y="738.525931"/>
     <use style="fill:#332288;stroke:#332288;" x="122.041372" xlink:href="#m294a4c1e18" y="743.54838"/>
     <use style="fill:#332288;stroke:#332288;" x="165.282203" xlink:href="#m294a4c1e18" y="736.400064"/>
     <use style="fill:#332288;stroke:#332288;" x="208.523034" xlink:href="#m294a4c1e18" y="759.585272"/>
     <use style="fill:#332288;stroke:#332288;" x="251.763865" xlink:href="#m294a4c1e18" y="751.082071"/>
     <use style="fill:#332288;stroke:#332288;" x="295.004696" xlink:href="#m294a4c1e18" y="756.021961"/>
     <use style="fill:#332288;stroke:#332288;" x="338.245527" xlink:href="#m294a4c1e18" y="756.689512"/>
    </g>
   </g>
   <g id="line2d_20">
    <path clip-path="url(#pf656680a64)" d="M 78.800541 754.711037 
L 381.486358 754.711037 
" style="fill:none;stroke:#000000;stroke-linecap:round;stroke-opacity:0.35;stroke-width:0.1;"/>
   </g>
   <g id="text_55">
    <!-- white -->
    <g style="fill:#88ccee;" transform="translate(342.56961 756.387805)scale(0.1 -0.1)">
     <use xlink:href="#ArialMT-77"/>
     <use x="72.216797" xlink:href="#ArialMT-68"/>
     <use x="127.832031" xlink:href="#ArialMT-69"/>
     <use x="150.048828" xlink:href="#ArialMT-74"/>
     <use x="177.832031" xlink:href="#ArialMT-65"/>
    </g>
   </g>
   <g id="text_56">
    <!-- black -->
    <g style="fill:#cc6677;" transform="translate(342.56961 792.498243)scale(0.1 -0.1)">
     <defs>
      <path d="M 425 0 
L 425 4581 
L 988 4581 
L 988 1969 
L 2319 3319 
L 3047 3319 
L 1778 2088 
L 3175 0 
L 2481 0 
L 1384 1697 
L 988 1316 
L 988 0 
L 425 0 
z
" id="ArialMT-6b" transform="scale(0.015625)"/>
     </defs>
     <use xlink:href="#ArialMT-62"/>
     <use x="55.615234" xlink:href="#ArialMT-6c"/>
     <use x="77.832031" xlink:href="#ArialMT-61"/>
     <use x="133.447266" xlink:href="#ArialMT-63"/>
     <use x="183.447266" xlink:href="#ArialMT-6b"/>
    </g>
   </g>
   <g id="text_57">
    <!-- hispanic/latino -->
    <g style="fill:#ddcc77;" transform="translate(342.56961 785.675244)scale(0.1 -0.1)">
     <defs>
      <path d="M 0 -78 
L 1328 4659 
L 1778 4659 
L 453 -78 
L 0 -78 
z
" id="ArialMT-2f" transform="scale(0.015625)"/>
     </defs>
     <use xlink:href="#ArialMT-68"/>
     <use x="55.615234" xlink:href="#ArialMT-69"/>
     <use x="77.832031" xlink:href="#ArialMT-73"/>
     <use x="127.832031" xlink:href="#ArialMT-70"/>
     <use x="183.447266" xlink:href="#ArialMT-61"/>
     <use x="239.0625" xlink:href="#ArialMT-6e"/>
     <use x="294.677734" xlink:href="#ArialMT-69"/>
     <use x="316.894531" xlink:href="#ArialMT-63"/>
     <use x="366.894531" xlink:href="#ArialMT-2f"/>
     <use x="394.677734" xlink:href="#ArialMT-6c"/>
     <use x="416.894531" xlink:href="#ArialMT-61"/>
     <use x="472.509766" xlink:href="#ArialMT-74"/>
     <use x="500.292969" xlink:href="#ArialMT-69"/>
     <use x="522.509766" xlink:href="#ArialMT-6e"/>
     <use x="578.125" xlink:href="#ArialMT-6f"/>
    </g>
   </g>
   <g id="text_58">
    <!-- asian -->
    <g style="fill:#117733;" transform="translate(342.56961 777.990597)scale(0.1 -0.1)">
     <use xlink:href="#ArialMT-61"/>
     <use x="55.615234" xlink:href="#ArialMT-73"/>
     <use x="105.615234" xlink:href="#ArialMT-69"/>
     <use x="127.832031" xlink:href="#ArialMT-61"/>
     <use x="183.447266" xlink:href="#ArialMT-6e"/>
    </g>
   </g>
   <g id="text_59">
    <!-- native american -->
    <g style="fill:#332288;" transform="translate(342.56961 762.125679)scale(0.1 -0.1)">
     <use xlink:href="#ArialMT-6e"/>
     <use x="55.615234" xlink:href="#ArialMT-61"/>
     <use x="111.230469" xlink:href="#ArialMT-74"/>
     <use x="139.013672" xlink:href="#ArialMT-69"/>
     <use x="161.230469" xlink:href="#ArialMT-76"/>
     <use x="211.230469" xlink:href="#ArialMT-65"/>
     <use x="266.845703" xlink:href="#ArialMT-20"/>
     <use x="294.628906" xlink:href="#ArialMT-61"/>
     <use x="350.244141" xlink:href="#ArialMT-6d"/>
     <use x="433.544922" xlink:href="#ArialMT-65"/>
     <use x="489.160156" xlink:href="#ArialMT-72"/>
     <use x="522.460938" xlink:href="#ArialMT-69"/>
     <use x="544.677734" xlink:href="#ArialMT-63"/>
     <use x="594.677734" xlink:href="#ArialMT-61"/>
     <use x="650.292969" xlink:href="#ArialMT-6e"/>
    </g>
   </g>
  </g>
  <g id="text_60">
   <!-- Support policy -->
   <g style="fill:#262626;" transform="translate(15.935625 472.544812)rotate(-90)scale(0.12 -0.12)">
    <defs>
     <path d="M 288 1472 
L 859 1522 
Q 900 1178 1048 958 
Q 1197 738 1509 602 
Q 1822 466 2213 466 
Q 2559 466 2825 569 
Q 3091 672 3220 851 
Q 3350 1031 3350 1244 
Q 3350 1459 3225 1620 
Q 3100 1781 2813 1891 
Q 2628 1963 1997 2114 
Q 1366 2266 1113 2400 
Q 784 2572 623 2826 
Q 463 3081 463 3397 
Q 463 3744 659 4045 
Q 856 4347 1234 4503 
Q 1613 4659 2075 4659 
Q 2584 4659 2973 4495 
Q 3363 4331 3572 4012 
Q 3781 3694 3797 3291 
L 3216 3247 
Q 3169 3681 2898 3903 
Q 2628 4125 2100 4125 
Q 1550 4125 1298 3923 
Q 1047 3722 1047 3438 
Q 1047 3191 1225 3031 
Q 1400 2872 2139 2705 
Q 2878 2538 3153 2413 
Q 3553 2228 3743 1945 
Q 3934 1663 3934 1294 
Q 3934 928 3725 604 
Q 3516 281 3123 101 
Q 2731 -78 2241 -78 
Q 1619 -78 1198 103 
Q 778 284 539 648 
Q 300 1013 288 1472 
z
" id="ArialMT-53" transform="scale(0.015625)"/>
    </defs>
    <use xlink:href="#ArialMT-53"/>
    <use x="66.699219" xlink:href="#ArialMT-75"/>
    <use x="122.314453" xlink:href="#ArialMT-70"/>
    <use x="177.929688" xlink:href="#ArialMT-70"/>
    <use x="233.544922" xlink:href="#ArialMT-6f"/>
    <use x="289.160156" xlink:href="#ArialMT-72"/>
    <use x="322.460938" xlink:href="#ArialMT-74"/>
    <use x="350.244141" xlink:href="#ArialMT-20"/>
    <use x="378.027344" xlink:href="#ArialMT-70"/>
    <use x="433.642578" xlink:href="#ArialMT-6f"/>
    <use x="489.257812" xlink:href="#ArialMT-6c"/>
    <use x="511.474609" xlink:href="#ArialMT-69"/>
    <use x="533.691406" xlink:href="#ArialMT-63"/>
    <use x="583.691406" xlink:href="#ArialMT-79"/>
   </g>
  </g>
  <g id="text_61">
   <g id="patch_7">
    <a xlink:href="https://dynomight.net">
     <path d="M 6.656 868.014187 
L 77.26725 868.014187 
L 77.26725 852.216687 
L 6.656 852.216687 
z
" style="fill:#1f77b4;opacity:0.01;stroke:#ffffff;stroke-linejoin:miter;"/>
    </a>
   </g>
   <a xlink:href="https://dynomight.net">
    <!-- dynomight.net -->
    <g style="fill:#808080;opacity:0.5;" transform="translate(10.656 862.295437)scale(0.08 -0.08)">
     <defs>
      <path d="M 2681 3053 
L 2681 4863 
L 3256 4863 
L 3256 0 
L 2681 0 
L 2681 441 
Q 2538 181 2298 45 
Q 2059 -91 1747 -91 
Q 1113 -91 748 401 
Q 384 894 384 1759 
Q 384 2613 750 3098 
Q 1116 3584 1747 3584 
Q 2063 3584 2303 3448 
Q 2544 3313 2681 3053 
z
M 991 1747 
Q 991 1078 1203 737 
Q 1416 397 1831 397 
Q 2247 397 2464 740 
Q 2681 1084 2681 1747 
Q 2681 2413 2464 2755 
Q 2247 3097 1831 3097 
Q 1416 3097 1203 2756 
Q 991 2416 991 1747 
z
" id="DejaVuSansMono-64" transform="scale(0.015625)"/>
      <path d="M 2681 1125 
Q 2538 759 2316 163 
Q 2006 -663 1900 -844 
Q 1756 -1088 1540 -1209 
Q 1325 -1331 1038 -1331 
L 575 -1331 
L 575 -850 
L 916 -850 
Q 1169 -850 1312 -703 
Q 1456 -556 1678 56 
L 325 3500 
L 934 3500 
L 1972 763 
L 2994 3500 
L 3603 3500 
L 2681 1125 
z
" id="DejaVuSansMono-79" transform="scale(0.015625)"/>
      <path d="M 3284 2169 
L 3284 0 
L 2706 0 
L 2706 2169 
Q 2706 2641 2540 2862 
Q 2375 3084 2022 3084 
Q 1619 3084 1401 2798 
Q 1184 2513 1184 1978 
L 1184 0 
L 609 0 
L 609 3500 
L 1184 3500 
L 1184 2975 
Q 1338 3275 1600 3429 
Q 1863 3584 2222 3584 
Q 2756 3584 3020 3232 
Q 3284 2881 3284 2169 
z
" id="DejaVuSansMono-6e" transform="scale(0.015625)"/>
      <path d="M 1925 3097 
Q 1488 3097 1263 2756 
Q 1038 2416 1038 1747 
Q 1038 1081 1263 739 
Q 1488 397 1925 397 
Q 2366 397 2591 739 
Q 2816 1081 2816 1747 
Q 2816 2416 2591 2756 
Q 2366 3097 1925 3097 
z
M 1925 3584 
Q 2653 3584 3039 3112 
Q 3425 2641 3425 1747 
Q 3425 850 3040 379 
Q 2656 -91 1925 -91 
Q 1197 -91 812 379 
Q 428 850 428 1747 
Q 428 2641 812 3112 
Q 1197 3584 1925 3584 
z
" id="DejaVuSansMono-6f" transform="scale(0.015625)"/>
      <path d="M 2113 3144 
Q 2219 3369 2383 3476 
Q 2547 3584 2778 3584 
Q 3200 3584 3373 3257 
Q 3547 2931 3547 2028 
L 3547 0 
L 3022 0 
L 3022 2003 
Q 3022 2744 2939 2923 
Q 2856 3103 2638 3103 
Q 2388 3103 2295 2911 
Q 2203 2719 2203 2003 
L 2203 0 
L 1678 0 
L 1678 2003 
Q 1678 2753 1589 2928 
Q 1500 3103 1269 3103 
Q 1041 3103 952 2911 
Q 863 2719 863 2003 
L 863 0 
L 341 0 
L 341 3500 
L 863 3500 
L 863 3200 
Q 966 3388 1120 3486 
Q 1275 3584 1472 3584 
Q 1709 3584 1867 3475 
Q 2025 3366 2113 3144 
z
" id="DejaVuSansMono-6d" transform="scale(0.015625)"/>
      <path d="M 800 3500 
L 2272 3500 
L 2272 447 
L 3413 447 
L 3413 0 
L 556 0 
L 556 447 
L 1697 447 
L 1697 3053 
L 800 3053 
L 800 3500 
z
M 1697 4863 
L 2272 4863 
L 2272 4134 
L 1697 4134 
L 1697 4863 
z
" id="DejaVuSansMono-69" transform="scale(0.015625)"/>
      <path d="M 2681 1778 
Q 2681 2425 2470 2761 
Q 2259 3097 1856 3097 
Q 1434 3097 1212 2761 
Q 991 2425 991 1778 
Q 991 1131 1214 792 
Q 1438 453 1863 453 
Q 2259 453 2470 793 
Q 2681 1134 2681 1778 
z
M 3256 225 
Q 3256 -563 2884 -969 
Q 2513 -1375 1791 -1375 
Q 1553 -1375 1293 -1331 
Q 1034 -1288 775 -1203 
L 775 -634 
Q 1081 -778 1331 -847 
Q 1581 -916 1791 -916 
Q 2256 -916 2468 -662 
Q 2681 -409 2681 141 
L 2681 166 
L 2681 556 
Q 2544 263 2306 119 
Q 2069 -25 1728 -25 
Q 1116 -25 750 465 
Q 384 956 384 1778 
Q 384 2603 750 3093 
Q 1116 3584 1728 3584 
Q 2066 3584 2300 3450 
Q 2534 3316 2681 3034 
L 2681 3488 
L 3256 3488 
L 3256 225 
z
" id="DejaVuSansMono-67" transform="scale(0.015625)"/>
      <path d="M 3284 2169 
L 3284 0 
L 2706 0 
L 2706 2169 
Q 2706 2641 2540 2862 
Q 2375 3084 2022 3084 
Q 1619 3084 1401 2798 
Q 1184 2513 1184 1978 
L 1184 0 
L 609 0 
L 609 4863 
L 1184 4863 
L 1184 2975 
Q 1338 3275 1600 3429 
Q 1863 3584 2222 3584 
Q 2756 3584 3020 3232 
Q 3284 2881 3284 2169 
z
" id="DejaVuSansMono-68" transform="scale(0.015625)"/>
      <path d="M 1919 4494 
L 1919 3500 
L 3225 3500 
L 3225 3053 
L 1919 3053 
L 1919 1153 
Q 1919 766 2066 612 
Q 2213 459 2578 459 
L 3225 459 
L 3225 0 
L 2522 0 
Q 1875 0 1609 259 
Q 1344 519 1344 1153 
L 1344 3053 
L 409 3053 
L 409 3500 
L 1344 3500 
L 1344 4494 
L 1919 4494 
z
" id="DejaVuSansMono-74" transform="scale(0.015625)"/>
      <path d="M 1528 953 
L 2316 953 
L 2316 0 
L 1528 0 
L 1528 953 
z
" id="DejaVuSansMono-2e" transform="scale(0.015625)"/>
      <path d="M 3475 1894 
L 3475 1613 
L 984 1613 
L 984 1594 
Q 984 1022 1282 709 
Q 1581 397 2125 397 
Q 2400 397 2700 484 
Q 3000 572 3341 750 
L 3341 178 
Q 3013 44 2708 -23 
Q 2403 -91 2119 -91 
Q 1303 -91 843 398 
Q 384 888 384 1747 
Q 384 2584 834 3084 
Q 1284 3584 2034 3584 
Q 2703 3584 3089 3131 
Q 3475 2678 3475 1894 
z
M 2900 2063 
Q 2888 2569 2661 2833 
Q 2434 3097 2009 3097 
Q 1594 3097 1325 2822 
Q 1056 2547 1006 2059 
L 2900 2063 
z
" id="DejaVuSansMono-65" transform="scale(0.015625)"/>
     </defs>
     <use xlink:href="#DejaVuSansMono-64"/>
     <use x="60.205078" xlink:href="#DejaVuSansMono-79"/>
     <use x="120.410156" xlink:href="#DejaVuSansMono-6e"/>
     <use x="180.615234" xlink:href="#DejaVuSansMono-6f"/>
     <use x="240.820312" xlink:href="#DejaVuSansMono-6d"/>
     <use x="301.025391" xlink:href="#DejaVuSansMono-69"/>
     <use x="361.230469" xlink:href="#DejaVuSansMono-67"/>
     <use x="421.435547" xlink:href="#DejaVuSansMono-68"/>
     <use x="481.640625" xlink:href="#DejaVuSansMono-74"/>
     <use x="541.845703" xlink:href="#DejaVuSansMono-2e"/>
     <use x="602.050781" xlink:href="#DejaVuSansMono-6e"/>
     <use x="662.255859" xlink:href="#DejaVuSansMono-65"/>
     <use x="722.460938" xlink:href="#DejaVuSansMono-74"/>
    </g>
   </a>
  </g>
 </g>
 <defs>
  <clipPath id="pfa434c1ca9">
   <rect height="139.2128" width="332.954399" x="63.66625" y="44.733437"/>
  </clipPath>
  <clipPath id="p5520551c38">
   <rect height="139.2128" width="332.954399" x="63.66625" y="204.826237"/>
  </clipPath>
  <clipPath id="pedf2a96762">
   <rect height="139.2128" width="332.954399" x="63.66625" y="364.919037"/>
  </clipPath>
  <clipPath id="pf1016caa94">
   <rect height="139.2128" width="332.954399" x="63.66625" y="525.011837"/>
  </clipPath>
  <clipPath id="pf656680a64">
   <rect height="139.2128" width="332.954399" x="63.66625" y="685.104637"/>
  </clipPath>
 </defs>
</svg>
