<?xml version="1.0" encoding="utf-8" standalone="no"?>
<!DOCTYPE svg PUBLIC "-//W3C//DTD SVG 1.1//EN"
  "http://www.w3.org/Graphics/SVG/1.1/DTD/svg11.dtd">
<svg height="552.074187pt" version="1.1" viewBox="0 0 429.651433 552.074187" width="429.651433pt" xmlns="http://www.w3.org/2000/svg" xmlns:xlink="http://www.w3.org/1999/xlink">
 <metadata>
  <rdf:RDF xmlns:cc="http://creativecommons.org/ns#" xmlns:dc="http://purl.org/dc/elements/1.1/" xmlns:rdf="http://www.w3.org/1999/02/22-rdf-syntax-ns#">
   <cc:Work>
    <dc:type rdf:resource="http://purl.org/dc/dcmitype/StillImage"/>
    <dc:date>2021-08-19T12:05:13.068142</dc:date>
    <dc:format>image/svg+xml</dc:format>
    <dc:creator>
     <cc:Agent>
      <dc:title>Matplotlib v3.4.1, https://matplotlib.org/</dc:title>
     </cc:Agent>
    </dc:creator>
   </cc:Work>
  </rdf:RDF>
 </metadata>
 <defs>
  <style type="text/css">*{stroke-linecap:butt;stroke-linejoin:round;}</style>
 </defs>
 <g id="figure_1">
  <g id="patch_1">
   <path d="M 0 552.074187 
L 429.651433 552.074187 
L 429.651433 0 
L 0 0 
z
" style="fill:#ffffff;"/>
  </g>
  <g id="axes_1">
   <g id="patch_2">
    <path d="M 63.66625 182.674771 
L 380.510649 182.674771 
L 380.510649 44.733437 
L 63.66625 44.733437 
z
" style="fill:#ffffff;"/>
   </g>
   <g id="matplotlib.axis_1">
    <g id="xtick_1">
     <g id="text_1">
      <!-- immigration -->
      <g style="fill:#262626;" transform="translate(52.229987 14.357812)scale(0.1 -0.1)">
       <defs>
        <path d="M 425 3934 
L 425 4581 
L 988 4581 
L 988 3934 
L 425 3934 
z
M 425 0 
L 425 3319 
L 988 3319 
L 988 0 
L 425 0 
z
" id="ArialMT-69" transform="scale(0.015625)"/>
        <path d="M 422 0 
L 422 3319 
L 925 3319 
L 925 2853 
Q 1081 3097 1340 3245 
Q 1600 3394 1931 3394 
Q 2300 3394 2536 3241 
Q 2772 3088 2869 2813 
Q 3263 3394 3894 3394 
Q 4388 3394 4653 3120 
Q 4919 2847 4919 2278 
L 4919 0 
L 4359 0 
L 4359 2091 
Q 4359 2428 4304 2576 
Q 4250 2725 4106 2815 
Q 3963 2906 3769 2906 
Q 3419 2906 3187 2673 
Q 2956 2441 2956 1928 
L 2956 0 
L 2394 0 
L 2394 2156 
Q 2394 2531 2256 2718 
Q 2119 2906 1806 2906 
Q 1569 2906 1367 2781 
Q 1166 2656 1075 2415 
Q 984 2175 984 1722 
L 984 0 
L 422 0 
z
" id="ArialMT-6d" transform="scale(0.015625)"/>
        <path d="M 319 -275 
L 866 -356 
Q 900 -609 1056 -725 
Q 1266 -881 1628 -881 
Q 2019 -881 2231 -725 
Q 2444 -569 2519 -288 
Q 2563 -116 2559 434 
Q 2191 0 1641 0 
Q 956 0 581 494 
Q 206 988 206 1678 
Q 206 2153 378 2554 
Q 550 2956 876 3175 
Q 1203 3394 1644 3394 
Q 2231 3394 2613 2919 
L 2613 3319 
L 3131 3319 
L 3131 450 
Q 3131 -325 2973 -648 
Q 2816 -972 2473 -1159 
Q 2131 -1347 1631 -1347 
Q 1038 -1347 672 -1080 
Q 306 -813 319 -275 
z
M 784 1719 
Q 784 1066 1043 766 
Q 1303 466 1694 466 
Q 2081 466 2343 764 
Q 2606 1063 2606 1700 
Q 2606 2309 2336 2618 
Q 2066 2928 1684 2928 
Q 1309 2928 1046 2623 
Q 784 2319 784 1719 
z
" id="ArialMT-67" transform="scale(0.015625)"/>
        <path d="M 416 0 
L 416 3319 
L 922 3319 
L 922 2816 
Q 1116 3169 1280 3281 
Q 1444 3394 1641 3394 
Q 1925 3394 2219 3213 
L 2025 2691 
Q 1819 2813 1613 2813 
Q 1428 2813 1281 2702 
Q 1134 2591 1072 2394 
Q 978 2094 978 1738 
L 978 0 
L 416 0 
z
" id="ArialMT-72" transform="scale(0.015625)"/>
        <path d="M 2588 409 
Q 2275 144 1986 34 
Q 1697 -75 1366 -75 
Q 819 -75 525 192 
Q 231 459 231 875 
Q 231 1119 342 1320 
Q 453 1522 633 1644 
Q 813 1766 1038 1828 
Q 1203 1872 1538 1913 
Q 2219 1994 2541 2106 
Q 2544 2222 2544 2253 
Q 2544 2597 2384 2738 
Q 2169 2928 1744 2928 
Q 1347 2928 1158 2789 
Q 969 2650 878 2297 
L 328 2372 
Q 403 2725 575 2942 
Q 747 3159 1072 3276 
Q 1397 3394 1825 3394 
Q 2250 3394 2515 3294 
Q 2781 3194 2906 3042 
Q 3031 2891 3081 2659 
Q 3109 2516 3109 2141 
L 3109 1391 
Q 3109 606 3145 398 
Q 3181 191 3288 0 
L 2700 0 
Q 2613 175 2588 409 
z
M 2541 1666 
Q 2234 1541 1622 1453 
Q 1275 1403 1131 1340 
Q 988 1278 909 1158 
Q 831 1038 831 891 
Q 831 666 1001 516 
Q 1172 366 1500 366 
Q 1825 366 2078 508 
Q 2331 650 2450 897 
Q 2541 1088 2541 1459 
L 2541 1666 
z
" id="ArialMT-61" transform="scale(0.015625)"/>
        <path d="M 1650 503 
L 1731 6 
Q 1494 -44 1306 -44 
Q 1000 -44 831 53 
Q 663 150 594 308 
Q 525 466 525 972 
L 525 2881 
L 113 2881 
L 113 3319 
L 525 3319 
L 525 4141 
L 1084 4478 
L 1084 3319 
L 1650 3319 
L 1650 2881 
L 1084 2881 
L 1084 941 
Q 1084 700 1114 631 
Q 1144 563 1211 522 
Q 1278 481 1403 481 
Q 1497 481 1650 503 
z
" id="ArialMT-74" transform="scale(0.015625)"/>
        <path d="M 213 1659 
Q 213 2581 725 3025 
Q 1153 3394 1769 3394 
Q 2453 3394 2887 2945 
Q 3322 2497 3322 1706 
Q 3322 1066 3130 698 
Q 2938 331 2570 128 
Q 2203 -75 1769 -75 
Q 1072 -75 642 372 
Q 213 819 213 1659 
z
M 791 1659 
Q 791 1022 1069 705 
Q 1347 388 1769 388 
Q 2188 388 2466 706 
Q 2744 1025 2744 1678 
Q 2744 2294 2464 2611 
Q 2184 2928 1769 2928 
Q 1347 2928 1069 2612 
Q 791 2297 791 1659 
z
" id="ArialMT-6f" transform="scale(0.015625)"/>
        <path d="M 422 0 
L 422 3319 
L 928 3319 
L 928 2847 
Q 1294 3394 1984 3394 
Q 2284 3394 2536 3286 
Q 2788 3178 2913 3003 
Q 3038 2828 3088 2588 
Q 3119 2431 3119 2041 
L 3119 0 
L 2556 0 
L 2556 2019 
Q 2556 2363 2490 2533 
Q 2425 2703 2258 2804 
Q 2091 2906 1866 2906 
Q 1506 2906 1245 2678 
Q 984 2450 984 1813 
L 984 0 
L 422 0 
z
" id="ArialMT-6e" transform="scale(0.015625)"/>
       </defs>
       <use xlink:href="#ArialMT-69"/>
       <use x="22.216797" xlink:href="#ArialMT-6d"/>
       <use x="105.517578" xlink:href="#ArialMT-6d"/>
       <use x="188.818359" xlink:href="#ArialMT-69"/>
       <use x="211.035156" xlink:href="#ArialMT-67"/>
       <use x="266.650391" xlink:href="#ArialMT-72"/>
       <use x="299.951172" xlink:href="#ArialMT-61"/>
       <use x="355.566406" xlink:href="#ArialMT-74"/>
       <use x="383.349609" xlink:href="#ArialMT-69"/>
       <use x="405.566406" xlink:href="#ArialMT-6f"/>
       <use x="461.181641" xlink:href="#ArialMT-6e"/>
      </g>
      <!--  amnesty -->
      <g style="fill:#262626;" transform="translate(57.783893 25.051875)scale(0.1 -0.1)">
       <defs>
        <path id="ArialMT-20" transform="scale(0.015625)"/>
        <path d="M 2694 1069 
L 3275 997 
Q 3138 488 2766 206 
Q 2394 -75 1816 -75 
Q 1088 -75 661 373 
Q 234 822 234 1631 
Q 234 2469 665 2931 
Q 1097 3394 1784 3394 
Q 2450 3394 2872 2941 
Q 3294 2488 3294 1666 
Q 3294 1616 3291 1516 
L 816 1516 
Q 847 969 1125 678 
Q 1403 388 1819 388 
Q 2128 388 2347 550 
Q 2566 713 2694 1069 
z
M 847 1978 
L 2700 1978 
Q 2663 2397 2488 2606 
Q 2219 2931 1791 2931 
Q 1403 2931 1139 2672 
Q 875 2413 847 1978 
z
" id="ArialMT-65" transform="scale(0.015625)"/>
        <path d="M 197 991 
L 753 1078 
Q 800 744 1014 566 
Q 1228 388 1613 388 
Q 2000 388 2187 545 
Q 2375 703 2375 916 
Q 2375 1106 2209 1216 
Q 2094 1291 1634 1406 
Q 1016 1563 777 1677 
Q 538 1791 414 1992 
Q 291 2194 291 2438 
Q 291 2659 392 2848 
Q 494 3038 669 3163 
Q 800 3259 1026 3326 
Q 1253 3394 1513 3394 
Q 1903 3394 2198 3281 
Q 2494 3169 2634 2976 
Q 2775 2784 2828 2463 
L 2278 2388 
Q 2241 2644 2061 2787 
Q 1881 2931 1553 2931 
Q 1166 2931 1000 2803 
Q 834 2675 834 2503 
Q 834 2394 903 2306 
Q 972 2216 1119 2156 
Q 1203 2125 1616 2013 
Q 2213 1853 2448 1751 
Q 2684 1650 2818 1456 
Q 2953 1263 2953 975 
Q 2953 694 2789 445 
Q 2625 197 2315 61 
Q 2006 -75 1616 -75 
Q 969 -75 630 194 
Q 291 463 197 991 
z
" id="ArialMT-73" transform="scale(0.015625)"/>
        <path d="M 397 -1278 
L 334 -750 
Q 519 -800 656 -800 
Q 844 -800 956 -737 
Q 1069 -675 1141 -563 
Q 1194 -478 1313 -144 
Q 1328 -97 1363 -6 
L 103 3319 
L 709 3319 
L 1400 1397 
Q 1534 1031 1641 628 
Q 1738 1016 1872 1384 
L 2581 3319 
L 3144 3319 
L 1881 -56 
Q 1678 -603 1566 -809 
Q 1416 -1088 1222 -1217 
Q 1028 -1347 759 -1347 
Q 597 -1347 397 -1278 
z
" id="ArialMT-79" transform="scale(0.015625)"/>
       </defs>
       <use xlink:href="#ArialMT-20"/>
       <use x="27.783203" xlink:href="#ArialMT-61"/>
       <use x="83.398438" xlink:href="#ArialMT-6d"/>
       <use x="166.699219" xlink:href="#ArialMT-6e"/>
       <use x="222.314453" xlink:href="#ArialMT-65"/>
       <use x="277.929688" xlink:href="#ArialMT-73"/>
       <use x="327.929688" xlink:href="#ArialMT-74"/>
       <use x="355.712891" xlink:href="#ArialMT-79"/>
      </g>
      <!--  -->
      <g style="fill:#262626;" transform="translate(78.068268 35.745937)scale(0.1 -0.1)"/>
     </g>
    </g>
    <g id="xtick_2">
     <g id="text_2">
      <!-- EPA -->
      <g style="fill:#262626;" transform="translate(109.580173 14.475)scale(0.1 -0.1)">
       <defs>
        <path d="M 506 0 
L 506 4581 
L 3819 4581 
L 3819 4041 
L 1113 4041 
L 1113 2638 
L 3647 2638 
L 3647 2100 
L 1113 2100 
L 1113 541 
L 3925 541 
L 3925 0 
L 506 0 
z
" id="ArialMT-45" transform="scale(0.015625)"/>
        <path d="M 494 0 
L 494 4581 
L 2222 4581 
Q 2678 4581 2919 4538 
Q 3256 4481 3484 4323 
Q 3713 4166 3852 3881 
Q 3991 3597 3991 3256 
Q 3991 2672 3619 2267 
Q 3247 1863 2275 1863 
L 1100 1863 
L 1100 0 
L 494 0 
z
M 1100 2403 
L 2284 2403 
Q 2872 2403 3119 2622 
Q 3366 2841 3366 3238 
Q 3366 3525 3220 3729 
Q 3075 3934 2838 4000 
Q 2684 4041 2272 4041 
L 1100 4041 
L 1100 2403 
z
" id="ArialMT-50" transform="scale(0.015625)"/>
        <path d="M -9 0 
L 1750 4581 
L 2403 4581 
L 4278 0 
L 3588 0 
L 3053 1388 
L 1138 1388 
L 634 0 
L -9 0 
z
M 1313 1881 
L 2866 1881 
L 2388 3150 
Q 2169 3728 2063 4100 
Q 1975 3659 1816 3225 
L 1313 1881 
z
" id="ArialMT-41" transform="scale(0.015625)"/>
       </defs>
       <use xlink:href="#ArialMT-45"/>
       <use x="66.699219" xlink:href="#ArialMT-50"/>
       <use x="126.023438" xlink:href="#ArialMT-41"/>
      </g>
      <!--  CO2 -->
      <g style="fill:#262626;" transform="translate(107.54736 25.051875)scale(0.1 -0.1)">
       <defs>
        <path d="M 3763 1606 
L 4369 1453 
Q 4178 706 3683 314 
Q 3188 -78 2472 -78 
Q 1731 -78 1267 223 
Q 803 525 561 1097 
Q 319 1669 319 2325 
Q 319 3041 592 3573 
Q 866 4106 1370 4382 
Q 1875 4659 2481 4659 
Q 3169 4659 3637 4309 
Q 4106 3959 4291 3325 
L 3694 3184 
Q 3534 3684 3231 3912 
Q 2928 4141 2469 4141 
Q 1941 4141 1586 3887 
Q 1231 3634 1087 3207 
Q 944 2781 944 2328 
Q 944 1744 1114 1308 
Q 1284 872 1643 656 
Q 2003 441 2422 441 
Q 2931 441 3284 734 
Q 3638 1028 3763 1606 
z
" id="ArialMT-43" transform="scale(0.015625)"/>
        <path d="M 309 2231 
Q 309 3372 921 4017 
Q 1534 4663 2503 4663 
Q 3138 4663 3647 4359 
Q 4156 4056 4423 3514 
Q 4691 2972 4691 2284 
Q 4691 1588 4409 1038 
Q 4128 488 3612 205 
Q 3097 -78 2500 -78 
Q 1853 -78 1343 234 
Q 834 547 571 1087 
Q 309 1628 309 2231 
z
M 934 2222 
Q 934 1394 1379 917 
Q 1825 441 2497 441 
Q 3181 441 3623 922 
Q 4066 1403 4066 2288 
Q 4066 2847 3877 3264 
Q 3688 3681 3323 3911 
Q 2959 4141 2506 4141 
Q 1863 4141 1398 3698 
Q 934 3256 934 2222 
z
" id="ArialMT-4f" transform="scale(0.015625)"/>
        <path d="M 3222 541 
L 3222 0 
L 194 0 
Q 188 203 259 391 
Q 375 700 629 1000 
Q 884 1300 1366 1694 
Q 2113 2306 2375 2664 
Q 2638 3022 2638 3341 
Q 2638 3675 2398 3904 
Q 2159 4134 1775 4134 
Q 1369 4134 1125 3890 
Q 881 3647 878 3216 
L 300 3275 
Q 359 3922 746 4261 
Q 1134 4600 1788 4600 
Q 2447 4600 2831 4234 
Q 3216 3869 3216 3328 
Q 3216 3053 3103 2787 
Q 2991 2522 2730 2228 
Q 2469 1934 1863 1422 
Q 1356 997 1212 845 
Q 1069 694 975 541 
L 3222 541 
z
" id="ArialMT-32" transform="scale(0.015625)"/>
       </defs>
       <use xlink:href="#ArialMT-20"/>
       <use x="27.783203" xlink:href="#ArialMT-43"/>
       <use x="100" xlink:href="#ArialMT-4f"/>
       <use x="177.783203" xlink:href="#ArialMT-32"/>
      </g>
      <!-- regulation -->
      <g style="fill:#262626;" transform="translate(97.258298 35.62875)scale(0.1 -0.1)">
       <defs>
        <path d="M 2597 0 
L 2597 488 
Q 2209 -75 1544 -75 
Q 1250 -75 995 37 
Q 741 150 617 320 
Q 494 491 444 738 
Q 409 903 409 1263 
L 409 3319 
L 972 3319 
L 972 1478 
Q 972 1038 1006 884 
Q 1059 663 1231 536 
Q 1403 409 1656 409 
Q 1909 409 2131 539 
Q 2353 669 2445 892 
Q 2538 1116 2538 1541 
L 2538 3319 
L 3100 3319 
L 3100 0 
L 2597 0 
z
" id="ArialMT-75" transform="scale(0.015625)"/>
        <path d="M 409 0 
L 409 4581 
L 972 4581 
L 972 0 
L 409 0 
z
" id="ArialMT-6c" transform="scale(0.015625)"/>
       </defs>
       <use xlink:href="#ArialMT-72"/>
       <use x="33.300781" xlink:href="#ArialMT-65"/>
       <use x="88.916016" xlink:href="#ArialMT-67"/>
       <use x="144.53125" xlink:href="#ArialMT-75"/>
       <use x="200.146484" xlink:href="#ArialMT-6c"/>
       <use x="222.363281" xlink:href="#ArialMT-61"/>
       <use x="277.978516" xlink:href="#ArialMT-74"/>
       <use x="305.761719" xlink:href="#ArialMT-69"/>
       <use x="327.978516" xlink:href="#ArialMT-6f"/>
       <use x="383.59375" xlink:href="#ArialMT-6e"/>
      </g>
     </g>
    </g>
    <g id="xtick_3">
     <g id="text_3">
      <!-- medicare  -->
      <g style="fill:#262626;" transform="translate(138.413952 14.592187)scale(0.1 -0.1)">
       <defs>
        <path d="M 2575 0 
L 2575 419 
Q 2259 -75 1647 -75 
Q 1250 -75 917 144 
Q 584 363 401 755 
Q 219 1147 219 1656 
Q 219 2153 384 2558 
Q 550 2963 881 3178 
Q 1213 3394 1622 3394 
Q 1922 3394 2156 3267 
Q 2391 3141 2538 2938 
L 2538 4581 
L 3097 4581 
L 3097 0 
L 2575 0 
z
M 797 1656 
Q 797 1019 1065 703 
Q 1334 388 1700 388 
Q 2069 388 2326 689 
Q 2584 991 2584 1609 
Q 2584 2291 2321 2609 
Q 2059 2928 1675 2928 
Q 1300 2928 1048 2622 
Q 797 2316 797 1656 
z
" id="ArialMT-64" transform="scale(0.015625)"/>
        <path d="M 2588 1216 
L 3141 1144 
Q 3050 572 2676 248 
Q 2303 -75 1759 -75 
Q 1078 -75 664 370 
Q 250 816 250 1647 
Q 250 2184 428 2587 
Q 606 2991 970 3192 
Q 1334 3394 1763 3394 
Q 2303 3394 2647 3120 
Q 2991 2847 3088 2344 
L 2541 2259 
Q 2463 2594 2264 2762 
Q 2066 2931 1784 2931 
Q 1359 2931 1093 2626 
Q 828 2322 828 1663 
Q 828 994 1084 691 
Q 1341 388 1753 388 
Q 2084 388 2306 591 
Q 2528 794 2588 1216 
z
" id="ArialMT-63" transform="scale(0.015625)"/>
       </defs>
       <use xlink:href="#ArialMT-6d"/>
       <use x="83.300781" xlink:href="#ArialMT-65"/>
       <use x="138.916016" xlink:href="#ArialMT-64"/>
       <use x="194.53125" xlink:href="#ArialMT-69"/>
       <use x="216.748047" xlink:href="#ArialMT-63"/>
       <use x="266.748047" xlink:href="#ArialMT-61"/>
       <use x="322.363281" xlink:href="#ArialMT-72"/>
       <use x="355.664062" xlink:href="#ArialMT-65"/>
       <use x="411.279297" xlink:href="#ArialMT-20"/>
      </g>
      <!-- for -->
      <g style="fill:#262626;" transform="translate(154.53114 25.169062)scale(0.1 -0.1)">
       <defs>
        <path d="M 556 0 
L 556 2881 
L 59 2881 
L 59 3319 
L 556 3319 
L 556 3672 
Q 556 4006 616 4169 
Q 697 4388 901 4523 
Q 1106 4659 1475 4659 
Q 1713 4659 2000 4603 
L 1916 4113 
Q 1741 4144 1584 4144 
Q 1328 4144 1222 4034 
Q 1116 3925 1116 3625 
L 1116 3319 
L 1763 3319 
L 1763 2881 
L 1116 2881 
L 1116 0 
L 556 0 
z
" id="ArialMT-66" transform="scale(0.015625)"/>
       </defs>
       <use xlink:href="#ArialMT-66"/>
       <use x="27.783203" xlink:href="#ArialMT-6f"/>
       <use x="83.398438" xlink:href="#ArialMT-72"/>
      </g>
      <!--  all -->
      <g style="fill:#262626;" transform="translate(153.974108 35.745937)scale(0.1 -0.1)">
       <use xlink:href="#ArialMT-20"/>
       <use x="27.783203" xlink:href="#ArialMT-61"/>
       <use x="83.398438" xlink:href="#ArialMT-6c"/>
       <use x="105.615234" xlink:href="#ArialMT-6c"/>
      </g>
     </g>
    </g>
    <g id="xtick_4">
     <g id="text_4">
      <!-- ban -->
      <g style="fill:#262626;" transform="translate(193.172732 14.592187)scale(0.1 -0.1)">
       <defs>
        <path d="M 941 0 
L 419 0 
L 419 4581 
L 981 4581 
L 981 2947 
Q 1338 3394 1891 3394 
Q 2197 3394 2470 3270 
Q 2744 3147 2920 2923 
Q 3097 2700 3197 2384 
Q 3297 2069 3297 1709 
Q 3297 856 2875 390 
Q 2453 -75 1863 -75 
Q 1275 -75 941 416 
L 941 0 
z
M 934 1684 
Q 934 1088 1097 822 
Q 1363 388 1816 388 
Q 2184 388 2453 708 
Q 2722 1028 2722 1663 
Q 2722 2313 2464 2622 
Q 2206 2931 1841 2931 
Q 1472 2931 1203 2611 
Q 934 2291 934 1684 
z
" id="ArialMT-62" transform="scale(0.015625)"/>
       </defs>
       <use xlink:href="#ArialMT-62"/>
       <use x="55.615234" xlink:href="#ArialMT-61"/>
       <use x="111.230469" xlink:href="#ArialMT-6e"/>
      </g>
      <!--  assault -->
      <g style="fill:#262626;" transform="translate(184.283669 25.169062)scale(0.1 -0.1)">
       <use xlink:href="#ArialMT-20"/>
       <use x="27.783203" xlink:href="#ArialMT-61"/>
       <use x="83.398438" xlink:href="#ArialMT-73"/>
       <use x="133.398438" xlink:href="#ArialMT-73"/>
       <use x="183.398438" xlink:href="#ArialMT-61"/>
       <use x="239.013672" xlink:href="#ArialMT-75"/>
       <use x="294.628906" xlink:href="#ArialMT-6c"/>
       <use x="316.845703" xlink:href="#ArialMT-74"/>
      </g>
      <!--  rifles -->
      <g style="fill:#262626;" transform="translate(189.568826 35.745937)scale(0.1 -0.1)">
       <use xlink:href="#ArialMT-20"/>
       <use x="27.783203" xlink:href="#ArialMT-72"/>
       <use x="61.083984" xlink:href="#ArialMT-69"/>
       <use x="83.300781" xlink:href="#ArialMT-66"/>
       <use x="111.083984" xlink:href="#ArialMT-6c"/>
       <use x="133.300781" xlink:href="#ArialMT-65"/>
       <use x="188.916016" xlink:href="#ArialMT-73"/>
      </g>
     </g>
    </g>
    <g id="xtick_5">
     <g id="text_5">
      <!-- abortion -->
      <g style="fill:#262626;" transform="translate(224.595574 14.592187)scale(0.1 -0.1)">
       <use xlink:href="#ArialMT-61"/>
       <use x="55.615234" xlink:href="#ArialMT-62"/>
       <use x="111.230469" xlink:href="#ArialMT-6f"/>
       <use x="166.845703" xlink:href="#ArialMT-72"/>
       <use x="200.146484" xlink:href="#ArialMT-74"/>
       <use x="227.929688" xlink:href="#ArialMT-69"/>
       <use x="250.146484" xlink:href="#ArialMT-6f"/>
       <use x="305.761719" xlink:href="#ArialMT-6e"/>
      </g>
      <!--  on -->
      <g style="fill:#262626;" transform="translate(235.712761 25.169062)scale(0.1 -0.1)">
       <use xlink:href="#ArialMT-20"/>
       <use x="27.783203" xlink:href="#ArialMT-6f"/>
       <use x="83.398438" xlink:href="#ArialMT-6e"/>
      </g>
      <!--  demand -->
      <g style="fill:#262626;" transform="translate(223.206511 35.745937)scale(0.1 -0.1)">
       <use xlink:href="#ArialMT-20"/>
       <use x="27.783203" xlink:href="#ArialMT-64"/>
       <use x="83.398438" xlink:href="#ArialMT-65"/>
       <use x="139.013672" xlink:href="#ArialMT-6d"/>
       <use x="222.314453" xlink:href="#ArialMT-61"/>
       <use x="277.929688" xlink:href="#ArialMT-6e"/>
       <use x="333.544922" xlink:href="#ArialMT-64"/>
      </g>
     </g>
    </g>
    <g id="xtick_6">
     <g id="text_6">
      <!-- 10% -->
      <g style="fill:#262626;" transform="translate(273.804353 14.592187)scale(0.1 -0.1)">
       <defs>
        <path d="M 2384 0 
L 1822 0 
L 1822 3584 
Q 1619 3391 1289 3197 
Q 959 3003 697 2906 
L 697 3450 
Q 1169 3672 1522 3987 
Q 1875 4303 2022 4600 
L 2384 4600 
L 2384 0 
z
" id="ArialMT-31" transform="scale(0.015625)"/>
        <path d="M 266 2259 
Q 266 3072 433 3567 
Q 600 4063 929 4331 
Q 1259 4600 1759 4600 
Q 2128 4600 2406 4451 
Q 2684 4303 2865 4023 
Q 3047 3744 3150 3342 
Q 3253 2941 3253 2259 
Q 3253 1453 3087 958 
Q 2922 463 2592 192 
Q 2263 -78 1759 -78 
Q 1097 -78 719 397 
Q 266 969 266 2259 
z
M 844 2259 
Q 844 1131 1108 757 
Q 1372 384 1759 384 
Q 2147 384 2411 759 
Q 2675 1134 2675 2259 
Q 2675 3391 2411 3762 
Q 2147 4134 1753 4134 
Q 1366 4134 1134 3806 
Q 844 3388 844 2259 
z
" id="ArialMT-30" transform="scale(0.015625)"/>
        <path d="M 372 3481 
Q 372 3972 619 4315 
Q 866 4659 1334 4659 
Q 1766 4659 2048 4351 
Q 2331 4044 2331 3447 
Q 2331 2866 2045 2552 
Q 1759 2238 1341 2238 
Q 925 2238 648 2547 
Q 372 2856 372 3481 
z
M 1350 4272 
Q 1141 4272 1002 4090 
Q 863 3909 863 3425 
Q 863 2984 1003 2804 
Q 1144 2625 1350 2625 
Q 1563 2625 1702 2806 
Q 1841 2988 1841 3469 
Q 1841 3913 1700 4092 
Q 1559 4272 1350 4272 
z
M 1353 -169 
L 3859 4659 
L 4316 4659 
L 1819 -169 
L 1353 -169 
z
M 3334 1075 
Q 3334 1569 3581 1911 
Q 3828 2253 4300 2253 
Q 4731 2253 5014 1945 
Q 5297 1638 5297 1041 
Q 5297 459 5011 145 
Q 4725 -169 4303 -169 
Q 3888 -169 3611 142 
Q 3334 453 3334 1075 
z
M 4316 1866 
Q 4103 1866 3964 1684 
Q 3825 1503 3825 1019 
Q 3825 581 3965 400 
Q 4106 219 4313 219 
Q 4528 219 4667 400 
Q 4806 581 4806 1063 
Q 4806 1506 4665 1686 
Q 4525 1866 4316 1866 
z
" id="ArialMT-25" transform="scale(0.015625)"/>
       </defs>
       <use xlink:href="#ArialMT-31"/>
       <use x="55.615234" xlink:href="#ArialMT-30"/>
       <use x="111.230469" xlink:href="#ArialMT-25"/>
      </g>
      <!--  more  -->
      <g style="fill:#262626;" transform="translate(269.642635 25.169062)scale(0.1 -0.1)">
       <use xlink:href="#ArialMT-20"/>
       <use x="27.783203" xlink:href="#ArialMT-6d"/>
       <use x="111.083984" xlink:href="#ArialMT-6f"/>
       <use x="166.699219" xlink:href="#ArialMT-72"/>
       <use x="200" xlink:href="#ArialMT-65"/>
       <use x="255.615234" xlink:href="#ArialMT-20"/>
      </g>
      <!-- police -->
      <g style="fill:#262626;" transform="translate(270.748103 35.745937)scale(0.1 -0.1)">
       <defs>
        <path d="M 422 -1272 
L 422 3319 
L 934 3319 
L 934 2888 
Q 1116 3141 1344 3267 
Q 1572 3394 1897 3394 
Q 2322 3394 2647 3175 
Q 2972 2956 3137 2557 
Q 3303 2159 3303 1684 
Q 3303 1175 3120 767 
Q 2938 359 2589 142 
Q 2241 -75 1856 -75 
Q 1575 -75 1351 44 
Q 1128 163 984 344 
L 984 -1272 
L 422 -1272 
z
M 931 1641 
Q 931 1000 1190 694 
Q 1450 388 1819 388 
Q 2194 388 2461 705 
Q 2728 1022 2728 1688 
Q 2728 2322 2467 2637 
Q 2206 2953 1844 2953 
Q 1484 2953 1207 2617 
Q 931 2281 931 1641 
z
" id="ArialMT-70" transform="scale(0.015625)"/>
       </defs>
       <use xlink:href="#ArialMT-70"/>
       <use x="55.615234" xlink:href="#ArialMT-6f"/>
       <use x="111.230469" xlink:href="#ArialMT-6c"/>
       <use x="133.447266" xlink:href="#ArialMT-69"/>
       <use x="155.664062" xlink:href="#ArialMT-63"/>
       <use x="205.664062" xlink:href="#ArialMT-65"/>
      </g>
     </g>
    </g>
    <g id="xtick_7">
     <g id="text_7">
      <!-- border  -->
      <g style="fill:#262626;" transform="translate(309.119383 14.475)scale(0.1 -0.1)">
       <use xlink:href="#ArialMT-62"/>
       <use x="55.615234" xlink:href="#ArialMT-6f"/>
       <use x="111.230469" xlink:href="#ArialMT-72"/>
       <use x="144.53125" xlink:href="#ArialMT-64"/>
       <use x="200.146484" xlink:href="#ArialMT-65"/>
       <use x="255.761719" xlink:href="#ArialMT-72"/>
       <use x="289.0625" xlink:href="#ArialMT-20"/>
      </g>
      <!-- security -->
      <g style="fill:#262626;" transform="translate(307.734227 25.051875)scale(0.1 -0.1)">
       <use xlink:href="#ArialMT-73"/>
       <use x="50" xlink:href="#ArialMT-65"/>
       <use x="105.615234" xlink:href="#ArialMT-63"/>
       <use x="155.615234" xlink:href="#ArialMT-75"/>
       <use x="211.230469" xlink:href="#ArialMT-72"/>
       <use x="244.53125" xlink:href="#ArialMT-69"/>
       <use x="266.748047" xlink:href="#ArialMT-74"/>
       <use x="294.53125" xlink:href="#ArialMT-79"/>
      </g>
      <!-- &amp; wall -->
      <g style="fill:#262626;" transform="translate(311.622508 35.745937)scale(0.1 -0.1)">
       <defs>
        <path d="M 3041 541 
Q 2763 231 2434 76 
Q 2106 -78 1725 -78 
Q 1022 -78 609 397 
Q 275 784 275 1263 
Q 275 1688 548 2030 
Q 822 2372 1366 2631 
Q 1056 2988 953 3209 
Q 850 3431 850 3638 
Q 850 4050 1173 4354 
Q 1497 4659 1988 4659 
Q 2456 4659 2754 4371 
Q 3053 4084 3053 3681 
Q 3053 3028 2188 2566 
L 3009 1519 
Q 3150 1794 3228 2156 
L 3813 2031 
Q 3663 1431 3406 1044 
Q 3722 625 4122 341 
L 3744 -106 
Q 3403 113 3041 541 
z
M 1897 2928 
Q 2263 3144 2370 3306 
Q 2478 3469 2478 3666 
Q 2478 3900 2329 4048 
Q 2181 4197 1959 4197 
Q 1731 4197 1579 4050 
Q 1428 3903 1428 3691 
Q 1428 3584 1483 3467 
Q 1538 3350 1647 3219 
L 1897 2928 
z
M 2688 984 
L 1656 2263 
Q 1200 1991 1040 1758 
Q 881 1525 881 1297 
Q 881 1019 1103 719 
Q 1325 419 1731 419 
Q 1984 419 2254 576 
Q 2525 734 2688 984 
z
" id="ArialMT-26" transform="scale(0.015625)"/>
        <path d="M 1034 0 
L 19 3319 
L 600 3319 
L 1128 1403 
L 1325 691 
Q 1338 744 1497 1375 
L 2025 3319 
L 2603 3319 
L 3100 1394 
L 3266 759 
L 3456 1400 
L 4025 3319 
L 4572 3319 
L 3534 0 
L 2950 0 
L 2422 1988 
L 2294 2553 
L 1622 0 
L 1034 0 
z
" id="ArialMT-77" transform="scale(0.015625)"/>
       </defs>
       <use xlink:href="#ArialMT-26"/>
       <use x="66.699219" xlink:href="#ArialMT-20"/>
       <use x="94.482422" xlink:href="#ArialMT-77"/>
       <use x="166.699219" xlink:href="#ArialMT-61"/>
       <use x="222.314453" xlink:href="#ArialMT-6c"/>
       <use x="244.53125" xlink:href="#ArialMT-6c"/>
      </g>
     </g>
    </g>
   </g>
   <g id="matplotlib.axis_2">
    <g id="ytick_1">
     <g id="text_8">
      <!-- 0% -->
      <g style="fill:#262626;" transform="translate(42.213125 186.253677)scale(0.1 -0.1)">
       <use xlink:href="#ArialMT-30"/>
       <use x="55.615234" xlink:href="#ArialMT-25"/>
      </g>
     </g>
    </g>
    <g id="ytick_2">
     <g id="text_9">
      <!-- 20% -->
      <g style="fill:#262626;" transform="translate(36.652188 158.66541)scale(0.1 -0.1)">
       <use xlink:href="#ArialMT-32"/>
       <use x="55.615234" xlink:href="#ArialMT-30"/>
       <use x="111.230469" xlink:href="#ArialMT-25"/>
      </g>
     </g>
    </g>
    <g id="ytick_3">
     <g id="text_10">
      <!-- 40% -->
      <g style="fill:#262626;" transform="translate(36.652188 131.077144)scale(0.1 -0.1)">
       <defs>
        <path d="M 2069 0 
L 2069 1097 
L 81 1097 
L 81 1613 
L 2172 4581 
L 2631 4581 
L 2631 1613 
L 3250 1613 
L 3250 1097 
L 2631 1097 
L 2631 0 
L 2069 0 
z
M 2069 1613 
L 2069 3678 
L 634 1613 
L 2069 1613 
z
" id="ArialMT-34" transform="scale(0.015625)"/>
       </defs>
       <use xlink:href="#ArialMT-34"/>
       <use x="55.615234" xlink:href="#ArialMT-30"/>
       <use x="111.230469" xlink:href="#ArialMT-25"/>
      </g>
     </g>
    </g>
    <g id="ytick_4">
     <g id="text_11">
      <!-- 60% -->
      <g style="fill:#262626;" transform="translate(36.652188 103.488877)scale(0.1 -0.1)">
       <defs>
        <path d="M 3184 3459 
L 2625 3416 
Q 2550 3747 2413 3897 
Q 2184 4138 1850 4138 
Q 1581 4138 1378 3988 
Q 1113 3794 959 3422 
Q 806 3050 800 2363 
Q 1003 2672 1297 2822 
Q 1591 2972 1913 2972 
Q 2475 2972 2870 2558 
Q 3266 2144 3266 1488 
Q 3266 1056 3080 686 
Q 2894 316 2569 119 
Q 2244 -78 1831 -78 
Q 1128 -78 684 439 
Q 241 956 241 2144 
Q 241 3472 731 4075 
Q 1159 4600 1884 4600 
Q 2425 4600 2770 4297 
Q 3116 3994 3184 3459 
z
M 888 1484 
Q 888 1194 1011 928 
Q 1134 663 1356 523 
Q 1578 384 1822 384 
Q 2178 384 2434 671 
Q 2691 959 2691 1453 
Q 2691 1928 2437 2201 
Q 2184 2475 1800 2475 
Q 1419 2475 1153 2201 
Q 888 1928 888 1484 
z
" id="ArialMT-36" transform="scale(0.015625)"/>
       </defs>
       <use xlink:href="#ArialMT-36"/>
       <use x="55.615234" xlink:href="#ArialMT-30"/>
       <use x="111.230469" xlink:href="#ArialMT-25"/>
      </g>
     </g>
    </g>
    <g id="ytick_5">
     <g id="text_12">
      <!-- 80% -->
      <g style="fill:#262626;" transform="translate(36.652188 75.90061)scale(0.1 -0.1)">
       <defs>
        <path d="M 1131 2484 
Q 781 2613 612 2850 
Q 444 3088 444 3419 
Q 444 3919 803 4259 
Q 1163 4600 1759 4600 
Q 2359 4600 2725 4251 
Q 3091 3903 3091 3403 
Q 3091 3084 2923 2848 
Q 2756 2613 2416 2484 
Q 2838 2347 3058 2040 
Q 3278 1734 3278 1309 
Q 3278 722 2862 322 
Q 2447 -78 1769 -78 
Q 1091 -78 675 323 
Q 259 725 259 1325 
Q 259 1772 486 2073 
Q 713 2375 1131 2484 
z
M 1019 3438 
Q 1019 3113 1228 2906 
Q 1438 2700 1772 2700 
Q 2097 2700 2305 2904 
Q 2513 3109 2513 3406 
Q 2513 3716 2298 3927 
Q 2084 4138 1766 4138 
Q 1444 4138 1231 3931 
Q 1019 3725 1019 3438 
z
M 838 1322 
Q 838 1081 952 856 
Q 1066 631 1291 507 
Q 1516 384 1775 384 
Q 2178 384 2440 643 
Q 2703 903 2703 1303 
Q 2703 1709 2433 1975 
Q 2163 2241 1756 2241 
Q 1359 2241 1098 1978 
Q 838 1716 838 1322 
z
" id="ArialMT-38" transform="scale(0.015625)"/>
       </defs>
       <use xlink:href="#ArialMT-38"/>
       <use x="55.615234" xlink:href="#ArialMT-30"/>
       <use x="111.230469" xlink:href="#ArialMT-25"/>
      </g>
     </g>
    </g>
    <g id="ytick_6">
     <g id="text_13">
      <!-- 100% -->
      <g style="fill:#262626;" transform="translate(31.09125 48.312344)scale(0.1 -0.1)">
       <use xlink:href="#ArialMT-31"/>
       <use x="55.615234" xlink:href="#ArialMT-30"/>
       <use x="111.230469" xlink:href="#ArialMT-30"/>
       <use x="166.845703" xlink:href="#ArialMT-25"/>
      </g>
     </g>
    </g>
   </g>
   <g id="line2d_1">
    <path clip-path="url(#p194c00baea)" d="M 78.068268 84.386057 
L 119.216891 89.668488 
L 160.365515 95.65414 
L 201.514138 102.710268 
L 242.662761 102.415689 
L 283.811385 124.149524 
L 324.960008 125.860289 
" style="fill:none;stroke:#88ccee;stroke-linecap:round;stroke-width:1.5;"/>
    <defs>
     <path d="M 0 1.25 
C 0.331504 1.25 0.649475 1.118292 0.883883 0.883883 
C 1.118292 0.649475 1.25 0.331504 1.25 0 
C 1.25 -0.331504 1.118292 -0.649475 0.883883 -0.883883 
C 0.649475 -1.118292 0.331504 -1.25 0 -1.25 
C -0.331504 -1.25 -0.649475 -1.118292 -0.883883 -0.883883 
C -1.118292 -0.649475 -1.25 -0.331504 -1.25 0 
C -1.25 0.331504 -1.118292 0.649475 -0.883883 0.883883 
C -0.649475 1.118292 -0.331504 1.25 0 1.25 
z
" id="m3020aeb151" style="stroke:#88ccee;"/>
    </defs>
    <g clip-path="url(#p194c00baea)">
     <use style="fill:#88ccee;stroke:#88ccee;" x="78.068268" xlink:href="#m3020aeb151" y="84.386057"/>
     <use style="fill:#88ccee;stroke:#88ccee;" x="119.216891" xlink:href="#m3020aeb151" y="89.668488"/>
     <use style="fill:#88ccee;stroke:#88ccee;" x="160.365515" xlink:href="#m3020aeb151" y="95.65414"/>
     <use style="fill:#88ccee;stroke:#88ccee;" x="201.514138" xlink:href="#m3020aeb151" y="102.710268"/>
     <use style="fill:#88ccee;stroke:#88ccee;" x="242.662761" xlink:href="#m3020aeb151" y="102.415689"/>
     <use style="fill:#88ccee;stroke:#88ccee;" x="283.811385" xlink:href="#m3020aeb151" y="124.149524"/>
     <use style="fill:#88ccee;stroke:#88ccee;" x="324.960008" xlink:href="#m3020aeb151" y="125.860289"/>
    </g>
   </g>
   <g id="line2d_2">
    <path clip-path="url(#p194c00baea)" d="M 78.068268 87.732548 
L 119.216891 89.497736 
L 160.365515 92.041734 
L 201.514138 100.286863 
L 242.662761 107.519356 
L 283.811385 113.022958 
L 324.960008 121.291881 
" style="fill:none;stroke:#cc6677;stroke-linecap:round;stroke-width:1.5;"/>
    <defs>
     <path d="M 0 1.25 
C 0.331504 1.25 0.649475 1.118292 0.883883 0.883883 
C 1.118292 0.649475 1.25 0.331504 1.25 0 
C 1.25 -0.331504 1.118292 -0.649475 0.883883 -0.883883 
C 0.649475 -1.118292 0.331504 -1.25 0 -1.25 
C -0.331504 -1.25 -0.649475 -1.118292 -0.883883 -0.883883 
C -1.118292 -0.649475 -1.25 -0.331504 -1.25 0 
C -1.25 0.331504 -1.118292 0.649475 -0.883883 0.883883 
C -0.649475 1.118292 -0.331504 1.25 0 1.25 
z
" id="m83925d83f7" style="stroke:#cc6677;"/>
    </defs>
    <g clip-path="url(#p194c00baea)">
     <use style="fill:#cc6677;stroke:#cc6677;" x="78.068268" xlink:href="#m83925d83f7" y="87.732548"/>
     <use style="fill:#cc6677;stroke:#cc6677;" x="119.216891" xlink:href="#m83925d83f7" y="89.497736"/>
     <use style="fill:#cc6677;stroke:#cc6677;" x="160.365515" xlink:href="#m83925d83f7" y="92.041734"/>
     <use style="fill:#cc6677;stroke:#cc6677;" x="201.514138" xlink:href="#m83925d83f7" y="100.286863"/>
     <use style="fill:#cc6677;stroke:#cc6677;" x="242.662761" xlink:href="#m83925d83f7" y="107.519356"/>
     <use style="fill:#cc6677;stroke:#cc6677;" x="283.811385" xlink:href="#m83925d83f7" y="113.022958"/>
     <use style="fill:#cc6677;stroke:#cc6677;" x="324.960008" xlink:href="#m83925d83f7" y="121.291881"/>
    </g>
   </g>
   <g id="line2d_3">
    <path clip-path="url(#p194c00baea)" d="M 78.068268 113.704104 
L 366.108631 113.704104 
" style="fill:none;stroke:#000000;stroke-linecap:round;stroke-opacity:0.35;stroke-width:0.1;"/>
   </g>
   <g id="text_14">
    <!-- read story -->
    <g style="fill:#88ccee;" transform="translate(329.07487 128.557928)scale(0.1 -0.1)">
     <use xlink:href="#ArialMT-72"/>
     <use x="33.300781" xlink:href="#ArialMT-65"/>
     <use x="88.916016" xlink:href="#ArialMT-61"/>
     <use x="144.53125" xlink:href="#ArialMT-64"/>
     <use x="200.146484" xlink:href="#ArialMT-20"/>
     <use x="227.929688" xlink:href="#ArialMT-73"/>
     <use x="277.929688" xlink:href="#ArialMT-74"/>
     <use x="305.712891" xlink:href="#ArialMT-6f"/>
     <use x="361.328125" xlink:href="#ArialMT-72"/>
     <use x="394.628906" xlink:href="#ArialMT-79"/>
    </g>
   </g>
   <g id="text_15">
    <!-- didn't read -->
    <g style="fill:#cc6677;" transform="translate(329.07487 121.945103)scale(0.1 -0.1)">
     <defs>
      <path d="M 425 2959 
L 281 3816 
L 281 4581 
L 922 4581 
L 922 3816 
L 772 2959 
L 425 2959 
z
" id="ArialMT-27" transform="scale(0.015625)"/>
     </defs>
     <use xlink:href="#ArialMT-64"/>
     <use x="55.615234" xlink:href="#ArialMT-69"/>
     <use x="77.832031" xlink:href="#ArialMT-64"/>
     <use x="133.447266" xlink:href="#ArialMT-6e"/>
     <use x="189.0625" xlink:href="#ArialMT-27"/>
     <use x="208.154297" xlink:href="#ArialMT-74"/>
     <use x="235.9375" xlink:href="#ArialMT-20"/>
     <use x="263.720703" xlink:href="#ArialMT-72"/>
     <use x="297.021484" xlink:href="#ArialMT-65"/>
     <use x="352.636719" xlink:href="#ArialMT-61"/>
     <use x="408.251953" xlink:href="#ArialMT-64"/>
    </g>
   </g>
  </g>
  <g id="axes_2">
   <g id="patch_3">
    <path d="M 63.66625 341.496104 
L 380.510649 341.496104 
L 380.510649 203.554771 
L 63.66625 203.554771 
z
" style="fill:#ffffff;"/>
   </g>
   <g id="matplotlib.axis_3">
    <g id="xtick_8"/>
    <g id="xtick_9"/>
    <g id="xtick_10"/>
    <g id="xtick_11"/>
    <g id="xtick_12"/>
    <g id="xtick_13"/>
    <g id="xtick_14"/>
   </g>
   <g id="matplotlib.axis_4">
    <g id="ytick_7">
     <g id="text_16">
      <!-- 0% -->
      <g style="fill:#262626;" transform="translate(42.213125 345.07501)scale(0.1 -0.1)">
       <use xlink:href="#ArialMT-30"/>
       <use x="55.615234" xlink:href="#ArialMT-25"/>
      </g>
     </g>
    </g>
    <g id="ytick_8">
     <g id="text_17">
      <!-- 20% -->
      <g style="fill:#262626;" transform="translate(36.652188 317.486744)scale(0.1 -0.1)">
       <use xlink:href="#ArialMT-32"/>
       <use x="55.615234" xlink:href="#ArialMT-30"/>
       <use x="111.230469" xlink:href="#ArialMT-25"/>
      </g>
     </g>
    </g>
    <g id="ytick_9">
     <g id="text_18">
      <!-- 40% -->
      <g style="fill:#262626;" transform="translate(36.652188 289.898477)scale(0.1 -0.1)">
       <use xlink:href="#ArialMT-34"/>
       <use x="55.615234" xlink:href="#ArialMT-30"/>
       <use x="111.230469" xlink:href="#ArialMT-25"/>
      </g>
     </g>
    </g>
    <g id="ytick_10">
     <g id="text_19">
      <!-- 60% -->
      <g style="fill:#262626;" transform="translate(36.652188 262.31021)scale(0.1 -0.1)">
       <use xlink:href="#ArialMT-36"/>
       <use x="55.615234" xlink:href="#ArialMT-30"/>
       <use x="111.230469" xlink:href="#ArialMT-25"/>
      </g>
     </g>
    </g>
    <g id="ytick_11">
     <g id="text_20">
      <!-- 80% -->
      <g style="fill:#262626;" transform="translate(36.652188 234.721944)scale(0.1 -0.1)">
       <use xlink:href="#ArialMT-38"/>
       <use x="55.615234" xlink:href="#ArialMT-30"/>
       <use x="111.230469" xlink:href="#ArialMT-25"/>
      </g>
     </g>
    </g>
    <g id="ytick_12">
     <g id="text_21">
      <!-- 100% -->
      <g style="fill:#262626;" transform="translate(31.09125 207.133677)scale(0.1 -0.1)">
       <use xlink:href="#ArialMT-31"/>
       <use x="55.615234" xlink:href="#ArialMT-30"/>
       <use x="111.230469" xlink:href="#ArialMT-30"/>
       <use x="166.845703" xlink:href="#ArialMT-25"/>
      </g>
     </g>
    </g>
   </g>
   <g id="line2d_4">
    <path clip-path="url(#pad6d62a2c1)" d="M 78.068268 246.127702 
L 119.216891 252.108858 
L 160.365515 256.999448 
L 201.514138 264.820051 
L 242.662761 261.66068 
L 283.811385 278.221026 
L 324.960008 279.635176 
" style="fill:none;stroke:#88ccee;stroke-linecap:round;stroke-width:1.5;"/>
    <g clip-path="url(#pad6d62a2c1)">
     <use style="fill:#88ccee;stroke:#88ccee;" x="78.068268" xlink:href="#m3020aeb151" y="246.127702"/>
     <use style="fill:#88ccee;stroke:#88ccee;" x="119.216891" xlink:href="#m3020aeb151" y="252.108858"/>
     <use style="fill:#88ccee;stroke:#88ccee;" x="160.365515" xlink:href="#m3020aeb151" y="256.999448"/>
     <use style="fill:#88ccee;stroke:#88ccee;" x="201.514138" xlink:href="#m3020aeb151" y="264.820051"/>
     <use style="fill:#88ccee;stroke:#88ccee;" x="242.662761" xlink:href="#m3020aeb151" y="261.66068"/>
     <use style="fill:#88ccee;stroke:#88ccee;" x="283.811385" xlink:href="#m3020aeb151" y="278.221026"/>
     <use style="fill:#88ccee;stroke:#88ccee;" x="324.960008" xlink:href="#m3020aeb151" y="279.635176"/>
    </g>
   </g>
   <g id="line2d_5">
    <path clip-path="url(#pad6d62a2c1)" d="M 78.068268 244.165359 
L 119.216891 247.189548 
L 160.365515 251.556232 
L 201.514138 259.043424 
L 242.662761 264.03641 
L 283.811385 278.13859 
L 324.960008 283.725844 
" style="fill:none;stroke:#cc6677;stroke-linecap:round;stroke-width:1.5;"/>
    <g clip-path="url(#pad6d62a2c1)">
     <use style="fill:#cc6677;stroke:#cc6677;" x="78.068268" xlink:href="#m83925d83f7" y="244.165359"/>
     <use style="fill:#cc6677;stroke:#cc6677;" x="119.216891" xlink:href="#m83925d83f7" y="247.189548"/>
     <use style="fill:#cc6677;stroke:#cc6677;" x="160.365515" xlink:href="#m83925d83f7" y="251.556232"/>
     <use style="fill:#cc6677;stroke:#cc6677;" x="201.514138" xlink:href="#m83925d83f7" y="259.043424"/>
     <use style="fill:#cc6677;stroke:#cc6677;" x="242.662761" xlink:href="#m83925d83f7" y="264.03641"/>
     <use style="fill:#cc6677;stroke:#cc6677;" x="283.811385" xlink:href="#m83925d83f7" y="278.13859"/>
     <use style="fill:#cc6677;stroke:#cc6677;" x="324.960008" xlink:href="#m83925d83f7" y="283.725844"/>
    </g>
   </g>
   <g id="line2d_6">
    <path clip-path="url(#pad6d62a2c1)" d="M 78.068268 272.525437 
L 366.108631 272.525437 
" style="fill:none;stroke:#000000;stroke-linecap:round;stroke-opacity:0.35;stroke-width:0.1;"/>
   </g>
   <g id="text_22">
    <!-- forwarded something -->
    <g style="fill:#88ccee;" transform="translate(329.07487 282.364091)scale(0.1 -0.1)">
     <defs>
      <path d="M 422 0 
L 422 4581 
L 984 4581 
L 984 2938 
Q 1378 3394 1978 3394 
Q 2347 3394 2619 3248 
Q 2891 3103 3008 2847 
Q 3125 2591 3125 2103 
L 3125 0 
L 2563 0 
L 2563 2103 
Q 2563 2525 2380 2717 
Q 2197 2909 1863 2909 
Q 1613 2909 1392 2779 
Q 1172 2650 1078 2428 
Q 984 2206 984 1816 
L 984 0 
L 422 0 
z
" id="ArialMT-68" transform="scale(0.015625)"/>
     </defs>
     <use xlink:href="#ArialMT-66"/>
     <use x="27.783203" xlink:href="#ArialMT-6f"/>
     <use x="83.398438" xlink:href="#ArialMT-72"/>
     <use x="116.699219" xlink:href="#ArialMT-77"/>
     <use x="188.916016" xlink:href="#ArialMT-61"/>
     <use x="244.53125" xlink:href="#ArialMT-72"/>
     <use x="277.832031" xlink:href="#ArialMT-64"/>
     <use x="333.447266" xlink:href="#ArialMT-65"/>
     <use x="389.0625" xlink:href="#ArialMT-64"/>
     <use x="444.677734" xlink:href="#ArialMT-20"/>
     <use x="472.460938" xlink:href="#ArialMT-73"/>
     <use x="522.460938" xlink:href="#ArialMT-6f"/>
     <use x="578.076172" xlink:href="#ArialMT-6d"/>
     <use x="661.376953" xlink:href="#ArialMT-65"/>
     <use x="716.992188" xlink:href="#ArialMT-74"/>
     <use x="744.775391" xlink:href="#ArialMT-68"/>
     <use x="800.390625" xlink:href="#ArialMT-69"/>
     <use x="822.607422" xlink:href="#ArialMT-6e"/>
     <use x="878.222656" xlink:href="#ArialMT-67"/>
    </g>
   </g>
   <g id="text_23">
    <!-- didn't forward -->
    <g style="fill:#cc6677;" transform="translate(329.07487 289.628552)scale(0.1 -0.1)">
     <use xlink:href="#ArialMT-64"/>
     <use x="55.615234" xlink:href="#ArialMT-69"/>
     <use x="77.832031" xlink:href="#ArialMT-64"/>
     <use x="133.447266" xlink:href="#ArialMT-6e"/>
     <use x="189.0625" xlink:href="#ArialMT-27"/>
     <use x="208.154297" xlink:href="#ArialMT-74"/>
     <use x="235.9375" xlink:href="#ArialMT-20"/>
     <use x="263.720703" xlink:href="#ArialMT-66"/>
     <use x="291.503906" xlink:href="#ArialMT-6f"/>
     <use x="347.119141" xlink:href="#ArialMT-72"/>
     <use x="380.419922" xlink:href="#ArialMT-77"/>
     <use x="452.636719" xlink:href="#ArialMT-61"/>
     <use x="508.251953" xlink:href="#ArialMT-72"/>
     <use x="541.552734" xlink:href="#ArialMT-64"/>
    </g>
   </g>
  </g>
  <g id="axes_3">
   <g id="patch_4">
    <path d="M 63.66625 500.317437 
L 380.510649 500.317437 
L 380.510649 362.376104 
L 63.66625 362.376104 
z
" style="fill:#ffffff;"/>
   </g>
   <g id="matplotlib.axis_5">
    <g id="xtick_15">
     <g id="text_24">
      <!-- immigration -->
      <g style="fill:#262626;" transform="translate(52.229987 514.47525)scale(0.1 -0.1)">
       <use xlink:href="#ArialMT-69"/>
       <use x="22.216797" xlink:href="#ArialMT-6d"/>
       <use x="105.517578" xlink:href="#ArialMT-6d"/>
       <use x="188.818359" xlink:href="#ArialMT-69"/>
       <use x="211.035156" xlink:href="#ArialMT-67"/>
       <use x="266.650391" xlink:href="#ArialMT-72"/>
       <use x="299.951172" xlink:href="#ArialMT-61"/>
       <use x="355.566406" xlink:href="#ArialMT-74"/>
       <use x="383.349609" xlink:href="#ArialMT-69"/>
       <use x="405.566406" xlink:href="#ArialMT-6f"/>
       <use x="461.181641" xlink:href="#ArialMT-6e"/>
      </g>
      <!--  amnesty -->
      <g style="fill:#262626;" transform="translate(57.783893 525.169312)scale(0.1 -0.1)">
       <use xlink:href="#ArialMT-20"/>
       <use x="27.783203" xlink:href="#ArialMT-61"/>
       <use x="83.398438" xlink:href="#ArialMT-6d"/>
       <use x="166.699219" xlink:href="#ArialMT-6e"/>
       <use x="222.314453" xlink:href="#ArialMT-65"/>
       <use x="277.929688" xlink:href="#ArialMT-73"/>
       <use x="327.929688" xlink:href="#ArialMT-74"/>
       <use x="355.712891" xlink:href="#ArialMT-79"/>
      </g>
      <!--  -->
      <g style="fill:#262626;" transform="translate(78.068268 535.863375)scale(0.1 -0.1)"/>
     </g>
    </g>
    <g id="xtick_16">
     <g id="text_25">
      <!-- EPA -->
      <g style="fill:#262626;" transform="translate(109.580173 514.47525)scale(0.1 -0.1)">
       <use xlink:href="#ArialMT-45"/>
       <use x="66.699219" xlink:href="#ArialMT-50"/>
       <use x="126.023438" xlink:href="#ArialMT-41"/>
      </g>
      <!--  CO2 -->
      <g style="fill:#262626;" transform="translate(107.54736 525.052125)scale(0.1 -0.1)">
       <use xlink:href="#ArialMT-20"/>
       <use x="27.783203" xlink:href="#ArialMT-43"/>
       <use x="100" xlink:href="#ArialMT-4f"/>
       <use x="177.783203" xlink:href="#ArialMT-32"/>
      </g>
      <!-- regulation -->
      <g style="fill:#262626;" transform="translate(97.258298 535.629)scale(0.1 -0.1)">
       <use xlink:href="#ArialMT-72"/>
       <use x="33.300781" xlink:href="#ArialMT-65"/>
       <use x="88.916016" xlink:href="#ArialMT-67"/>
       <use x="144.53125" xlink:href="#ArialMT-75"/>
       <use x="200.146484" xlink:href="#ArialMT-6c"/>
       <use x="222.363281" xlink:href="#ArialMT-61"/>
       <use x="277.978516" xlink:href="#ArialMT-74"/>
       <use x="305.761719" xlink:href="#ArialMT-69"/>
       <use x="327.978516" xlink:href="#ArialMT-6f"/>
       <use x="383.59375" xlink:href="#ArialMT-6e"/>
      </g>
     </g>
    </g>
    <g id="xtick_17">
     <g id="text_26">
      <!-- medicare  -->
      <g style="fill:#262626;" transform="translate(138.413952 514.47525)scale(0.1 -0.1)">
       <use xlink:href="#ArialMT-6d"/>
       <use x="83.300781" xlink:href="#ArialMT-65"/>
       <use x="138.916016" xlink:href="#ArialMT-64"/>
       <use x="194.53125" xlink:href="#ArialMT-69"/>
       <use x="216.748047" xlink:href="#ArialMT-63"/>
       <use x="266.748047" xlink:href="#ArialMT-61"/>
       <use x="322.363281" xlink:href="#ArialMT-72"/>
       <use x="355.664062" xlink:href="#ArialMT-65"/>
       <use x="411.279297" xlink:href="#ArialMT-20"/>
      </g>
      <!-- for -->
      <g style="fill:#262626;" transform="translate(154.53114 525.052125)scale(0.1 -0.1)">
       <use xlink:href="#ArialMT-66"/>
       <use x="27.783203" xlink:href="#ArialMT-6f"/>
       <use x="83.398438" xlink:href="#ArialMT-72"/>
      </g>
      <!--  all -->
      <g style="fill:#262626;" transform="translate(153.974108 535.629)scale(0.1 -0.1)">
       <use xlink:href="#ArialMT-20"/>
       <use x="27.783203" xlink:href="#ArialMT-61"/>
       <use x="83.398438" xlink:href="#ArialMT-6c"/>
       <use x="105.615234" xlink:href="#ArialMT-6c"/>
      </g>
     </g>
    </g>
    <g id="xtick_18">
     <g id="text_27">
      <!-- ban -->
      <g style="fill:#262626;" transform="translate(193.172732 514.47525)scale(0.1 -0.1)">
       <use xlink:href="#ArialMT-62"/>
       <use x="55.615234" xlink:href="#ArialMT-61"/>
       <use x="111.230469" xlink:href="#ArialMT-6e"/>
      </g>
      <!--  assault -->
      <g style="fill:#262626;" transform="translate(184.283669 525.052125)scale(0.1 -0.1)">
       <use xlink:href="#ArialMT-20"/>
       <use x="27.783203" xlink:href="#ArialMT-61"/>
       <use x="83.398438" xlink:href="#ArialMT-73"/>
       <use x="133.398438" xlink:href="#ArialMT-73"/>
       <use x="183.398438" xlink:href="#ArialMT-61"/>
       <use x="239.013672" xlink:href="#ArialMT-75"/>
       <use x="294.628906" xlink:href="#ArialMT-6c"/>
       <use x="316.845703" xlink:href="#ArialMT-74"/>
      </g>
      <!--  rifles -->
      <g style="fill:#262626;" transform="translate(189.568826 535.629)scale(0.1 -0.1)">
       <use xlink:href="#ArialMT-20"/>
       <use x="27.783203" xlink:href="#ArialMT-72"/>
       <use x="61.083984" xlink:href="#ArialMT-69"/>
       <use x="83.300781" xlink:href="#ArialMT-66"/>
       <use x="111.083984" xlink:href="#ArialMT-6c"/>
       <use x="133.300781" xlink:href="#ArialMT-65"/>
       <use x="188.916016" xlink:href="#ArialMT-73"/>
      </g>
     </g>
    </g>
    <g id="xtick_19">
     <g id="text_28">
      <!-- abortion -->
      <g style="fill:#262626;" transform="translate(224.595574 514.47525)scale(0.1 -0.1)">
       <use xlink:href="#ArialMT-61"/>
       <use x="55.615234" xlink:href="#ArialMT-62"/>
       <use x="111.230469" xlink:href="#ArialMT-6f"/>
       <use x="166.845703" xlink:href="#ArialMT-72"/>
       <use x="200.146484" xlink:href="#ArialMT-74"/>
       <use x="227.929688" xlink:href="#ArialMT-69"/>
       <use x="250.146484" xlink:href="#ArialMT-6f"/>
       <use x="305.761719" xlink:href="#ArialMT-6e"/>
      </g>
      <!--  on -->
      <g style="fill:#262626;" transform="translate(235.712761 525.052125)scale(0.1 -0.1)">
       <use xlink:href="#ArialMT-20"/>
       <use x="27.783203" xlink:href="#ArialMT-6f"/>
       <use x="83.398438" xlink:href="#ArialMT-6e"/>
      </g>
      <!--  demand -->
      <g style="fill:#262626;" transform="translate(223.206511 535.629)scale(0.1 -0.1)">
       <use xlink:href="#ArialMT-20"/>
       <use x="27.783203" xlink:href="#ArialMT-64"/>
       <use x="83.398438" xlink:href="#ArialMT-65"/>
       <use x="139.013672" xlink:href="#ArialMT-6d"/>
       <use x="222.314453" xlink:href="#ArialMT-61"/>
       <use x="277.929688" xlink:href="#ArialMT-6e"/>
       <use x="333.544922" xlink:href="#ArialMT-64"/>
      </g>
     </g>
    </g>
    <g id="xtick_20">
     <g id="text_29">
      <!-- 10% -->
      <g style="fill:#262626;" transform="translate(273.804353 514.47525)scale(0.1 -0.1)">
       <use xlink:href="#ArialMT-31"/>
       <use x="55.615234" xlink:href="#ArialMT-30"/>
       <use x="111.230469" xlink:href="#ArialMT-25"/>
      </g>
      <!--  more  -->
      <g style="fill:#262626;" transform="translate(269.642635 525.052125)scale(0.1 -0.1)">
       <use xlink:href="#ArialMT-20"/>
       <use x="27.783203" xlink:href="#ArialMT-6d"/>
       <use x="111.083984" xlink:href="#ArialMT-6f"/>
       <use x="166.699219" xlink:href="#ArialMT-72"/>
       <use x="200" xlink:href="#ArialMT-65"/>
       <use x="255.615234" xlink:href="#ArialMT-20"/>
      </g>
      <!-- police -->
      <g style="fill:#262626;" transform="translate(270.748103 535.629)scale(0.1 -0.1)">
       <use xlink:href="#ArialMT-70"/>
       <use x="55.615234" xlink:href="#ArialMT-6f"/>
       <use x="111.230469" xlink:href="#ArialMT-6c"/>
       <use x="133.447266" xlink:href="#ArialMT-69"/>
       <use x="155.664062" xlink:href="#ArialMT-63"/>
       <use x="205.664062" xlink:href="#ArialMT-65"/>
      </g>
     </g>
    </g>
    <g id="xtick_21">
     <g id="text_30">
      <!-- border  -->
      <g style="fill:#262626;" transform="translate(309.119383 514.47525)scale(0.1 -0.1)">
       <use xlink:href="#ArialMT-62"/>
       <use x="55.615234" xlink:href="#ArialMT-6f"/>
       <use x="111.230469" xlink:href="#ArialMT-72"/>
       <use x="144.53125" xlink:href="#ArialMT-64"/>
       <use x="200.146484" xlink:href="#ArialMT-65"/>
       <use x="255.761719" xlink:href="#ArialMT-72"/>
       <use x="289.0625" xlink:href="#ArialMT-20"/>
      </g>
      <!-- security -->
      <g style="fill:#262626;" transform="translate(307.734227 525.052125)scale(0.1 -0.1)">
       <use xlink:href="#ArialMT-73"/>
       <use x="50" xlink:href="#ArialMT-65"/>
       <use x="105.615234" xlink:href="#ArialMT-63"/>
       <use x="155.615234" xlink:href="#ArialMT-75"/>
       <use x="211.230469" xlink:href="#ArialMT-72"/>
       <use x="244.53125" xlink:href="#ArialMT-69"/>
       <use x="266.748047" xlink:href="#ArialMT-74"/>
       <use x="294.53125" xlink:href="#ArialMT-79"/>
      </g>
      <!-- &amp; wall -->
      <g style="fill:#262626;" transform="translate(311.622508 535.746187)scale(0.1 -0.1)">
       <use xlink:href="#ArialMT-26"/>
       <use x="66.699219" xlink:href="#ArialMT-20"/>
       <use x="94.482422" xlink:href="#ArialMT-77"/>
       <use x="166.699219" xlink:href="#ArialMT-61"/>
       <use x="222.314453" xlink:href="#ArialMT-6c"/>
       <use x="244.53125" xlink:href="#ArialMT-6c"/>
      </g>
     </g>
    </g>
   </g>
   <g id="matplotlib.axis_6">
    <g id="ytick_13">
     <g id="text_31">
      <!-- 0% -->
      <g style="fill:#262626;" transform="translate(42.213125 503.896344)scale(0.1 -0.1)">
       <use xlink:href="#ArialMT-30"/>
       <use x="55.615234" xlink:href="#ArialMT-25"/>
      </g>
     </g>
    </g>
    <g id="ytick_14">
     <g id="text_32">
      <!-- 20% -->
      <g style="fill:#262626;" transform="translate(36.652188 476.308077)scale(0.1 -0.1)">
       <use xlink:href="#ArialMT-32"/>
       <use x="55.615234" xlink:href="#ArialMT-30"/>
       <use x="111.230469" xlink:href="#ArialMT-25"/>
      </g>
     </g>
    </g>
    <g id="ytick_15">
     <g id="text_33">
      <!-- 40% -->
      <g style="fill:#262626;" transform="translate(36.652188 448.71981)scale(0.1 -0.1)">
       <use xlink:href="#ArialMT-34"/>
       <use x="55.615234" xlink:href="#ArialMT-30"/>
       <use x="111.230469" xlink:href="#ArialMT-25"/>
      </g>
     </g>
    </g>
    <g id="ytick_16">
     <g id="text_34">
      <!-- 60% -->
      <g style="fill:#262626;" transform="translate(36.652188 421.131544)scale(0.1 -0.1)">
       <use xlink:href="#ArialMT-36"/>
       <use x="55.615234" xlink:href="#ArialMT-30"/>
       <use x="111.230469" xlink:href="#ArialMT-25"/>
      </g>
     </g>
    </g>
    <g id="ytick_17">
     <g id="text_35">
      <!-- 80% -->
      <g style="fill:#262626;" transform="translate(36.652188 393.543277)scale(0.1 -0.1)">
       <use xlink:href="#ArialMT-38"/>
       <use x="55.615234" xlink:href="#ArialMT-30"/>
       <use x="111.230469" xlink:href="#ArialMT-25"/>
      </g>
     </g>
    </g>
    <g id="ytick_18">
     <g id="text_36">
      <!-- 100% -->
      <g style="fill:#262626;" transform="translate(31.09125 365.95501)scale(0.1 -0.1)">
       <use xlink:href="#ArialMT-31"/>
       <use x="55.615234" xlink:href="#ArialMT-30"/>
       <use x="111.230469" xlink:href="#ArialMT-30"/>
       <use x="166.845703" xlink:href="#ArialMT-25"/>
      </g>
     </g>
    </g>
   </g>
   <g id="line2d_7">
    <path clip-path="url(#p0a8a39da3c)" d="M 78.068268 406.682746 
L 119.216891 412.240704 
L 160.365515 418.118528 
L 201.514138 422.618366 
L 242.662761 421.261117 
L 283.811385 436.766396 
L 324.960008 436.900303 
" style="fill:none;stroke:#88ccee;stroke-linecap:round;stroke-width:1.5;"/>
    <g clip-path="url(#p0a8a39da3c)">
     <use style="fill:#88ccee;stroke:#88ccee;" x="78.068268" xlink:href="#m3020aeb151" y="406.682746"/>
     <use style="fill:#88ccee;stroke:#88ccee;" x="119.216891" xlink:href="#m3020aeb151" y="412.240704"/>
     <use style="fill:#88ccee;stroke:#88ccee;" x="160.365515" xlink:href="#m3020aeb151" y="418.118528"/>
     <use style="fill:#88ccee;stroke:#88ccee;" x="201.514138" xlink:href="#m3020aeb151" y="422.618366"/>
     <use style="fill:#88ccee;stroke:#88ccee;" x="242.662761" xlink:href="#m3020aeb151" y="421.261117"/>
     <use style="fill:#88ccee;stroke:#88ccee;" x="283.811385" xlink:href="#m3020aeb151" y="436.766396"/>
     <use style="fill:#88ccee;stroke:#88ccee;" x="324.960008" xlink:href="#m3020aeb151" y="436.900303"/>
    </g>
   </g>
   <g id="line2d_8">
    <path clip-path="url(#p0a8a39da3c)" d="M 78.068268 402.275503 
L 119.216891 405.364377 
L 160.365515 409.3449 
L 201.514138 418.064596 
L 242.662761 422.641406 
L 283.811385 437.060612 
L 324.960008 443.259386 
" style="fill:none;stroke:#cc6677;stroke-linecap:round;stroke-width:1.5;"/>
    <g clip-path="url(#p0a8a39da3c)">
     <use style="fill:#cc6677;stroke:#cc6677;" x="78.068268" xlink:href="#m83925d83f7" y="402.275503"/>
     <use style="fill:#cc6677;stroke:#cc6677;" x="119.216891" xlink:href="#m83925d83f7" y="405.364377"/>
     <use style="fill:#cc6677;stroke:#cc6677;" x="160.365515" xlink:href="#m83925d83f7" y="409.3449"/>
     <use style="fill:#cc6677;stroke:#cc6677;" x="201.514138" xlink:href="#m83925d83f7" y="418.064596"/>
     <use style="fill:#cc6677;stroke:#cc6677;" x="242.662761" xlink:href="#m83925d83f7" y="422.641406"/>
     <use style="fill:#cc6677;stroke:#cc6677;" x="283.811385" xlink:href="#m83925d83f7" y="437.060612"/>
     <use style="fill:#cc6677;stroke:#cc6677;" x="324.960008" xlink:href="#m83925d83f7" y="443.259386"/>
    </g>
   </g>
   <g id="line2d_9">
    <path clip-path="url(#p0a8a39da3c)" d="M 78.068268 431.346771 
L 366.108631 431.346771 
" style="fill:none;stroke:#000000;stroke-linecap:round;stroke-opacity:0.35;stroke-width:0.1;"/>
   </g>
   <g id="text_37">
    <!-- posted comment -->
    <g style="fill:#88ccee;" transform="translate(329.07487 439.49885)scale(0.1 -0.1)">
     <use xlink:href="#ArialMT-70"/>
     <use x="55.615234" xlink:href="#ArialMT-6f"/>
     <use x="111.230469" xlink:href="#ArialMT-73"/>
     <use x="161.230469" xlink:href="#ArialMT-74"/>
     <use x="189.013672" xlink:href="#ArialMT-65"/>
     <use x="244.628906" xlink:href="#ArialMT-64"/>
     <use x="300.244141" xlink:href="#ArialMT-20"/>
     <use x="328.027344" xlink:href="#ArialMT-63"/>
     <use x="378.027344" xlink:href="#ArialMT-6f"/>
     <use x="433.642578" xlink:href="#ArialMT-6d"/>
     <use x="516.943359" xlink:href="#ArialMT-6d"/>
     <use x="600.244141" xlink:href="#ArialMT-65"/>
     <use x="655.859375" xlink:href="#ArialMT-6e"/>
     <use x="711.474609" xlink:href="#ArialMT-74"/>
    </g>
   </g>
   <g id="text_38">
    <!-- didn't post -->
    <g style="fill:#cc6677;" transform="translate(329.07487 446.46442)scale(0.1 -0.1)">
     <use xlink:href="#ArialMT-64"/>
     <use x="55.615234" xlink:href="#ArialMT-69"/>
     <use x="77.832031" xlink:href="#ArialMT-64"/>
     <use x="133.447266" xlink:href="#ArialMT-6e"/>
     <use x="189.0625" xlink:href="#ArialMT-27"/>
     <use x="208.154297" xlink:href="#ArialMT-74"/>
     <use x="235.9375" xlink:href="#ArialMT-20"/>
     <use x="263.720703" xlink:href="#ArialMT-70"/>
     <use x="319.335938" xlink:href="#ArialMT-6f"/>
     <use x="374.951172" xlink:href="#ArialMT-73"/>
     <use x="424.951172" xlink:href="#ArialMT-74"/>
    </g>
   </g>
  </g>
  <g id="text_39">
   <!-- Support policy -->
   <g style="fill:#262626;" transform="translate(15.935625 310.544812)rotate(-90)scale(0.12 -0.12)">
    <defs>
     <path d="M 288 1472 
L 859 1522 
Q 900 1178 1048 958 
Q 1197 738 1509 602 
Q 1822 466 2213 466 
Q 2559 466 2825 569 
Q 3091 672 3220 851 
Q 3350 1031 3350 1244 
Q 3350 1459 3225 1620 
Q 3100 1781 2813 1891 
Q 2628 1963 1997 2114 
Q 1366 2266 1113 2400 
Q 784 2572 623 2826 
Q 463 3081 463 3397 
Q 463 3744 659 4045 
Q 856 4347 1234 4503 
Q 1613 4659 2075 4659 
Q 2584 4659 2973 4495 
Q 3363 4331 3572 4012 
Q 3781 3694 3797 3291 
L 3216 3247 
Q 3169 3681 2898 3903 
Q 2628 4125 2100 4125 
Q 1550 4125 1298 3923 
Q 1047 3722 1047 3438 
Q 1047 3191 1225 3031 
Q 1400 2872 2139 2705 
Q 2878 2538 3153 2413 
Q 3553 2228 3743 1945 
Q 3934 1663 3934 1294 
Q 3934 928 3725 604 
Q 3516 281 3123 101 
Q 2731 -78 2241 -78 
Q 1619 -78 1198 103 
Q 778 284 539 648 
Q 300 1013 288 1472 
z
" id="ArialMT-53" transform="scale(0.015625)"/>
    </defs>
    <use xlink:href="#ArialMT-53"/>
    <use x="66.699219" xlink:href="#ArialMT-75"/>
    <use x="122.314453" xlink:href="#ArialMT-70"/>
    <use x="177.929688" xlink:href="#ArialMT-70"/>
    <use x="233.544922" xlink:href="#ArialMT-6f"/>
    <use x="289.160156" xlink:href="#ArialMT-72"/>
    <use x="322.460938" xlink:href="#ArialMT-74"/>
    <use x="350.244141" xlink:href="#ArialMT-20"/>
    <use x="378.027344" xlink:href="#ArialMT-70"/>
    <use x="433.642578" xlink:href="#ArialMT-6f"/>
    <use x="489.257812" xlink:href="#ArialMT-6c"/>
    <use x="511.474609" xlink:href="#ArialMT-69"/>
    <use x="533.691406" xlink:href="#ArialMT-63"/>
    <use x="583.691406" xlink:href="#ArialMT-79"/>
   </g>
  </g>
  <g id="text_40">
   <g id="patch_5">
    <a xlink:href="https://dynomight.net">
     <path d="M 6.656 548.874187 
L 77.26725 548.874187 
L 77.26725 533.076687 
L 6.656 533.076687 
z
" style="fill:#1f77b4;opacity:0.01;stroke:#ffffff;stroke-linejoin:miter;"/>
    </a>
   </g>
   <a xlink:href="https://dynomight.net">
    <!-- dynomight.net -->
    <g style="fill:#808080;opacity:0.5;" transform="translate(10.656 543.155437)scale(0.08 -0.08)">
     <defs>
      <path d="M 2681 3053 
L 2681 4863 
L 3256 4863 
L 3256 0 
L 2681 0 
L 2681 441 
Q 2538 181 2298 45 
Q 2059 -91 1747 -91 
Q 1113 -91 748 401 
Q 384 894 384 1759 
Q 384 2613 750 3098 
Q 1116 3584 1747 3584 
Q 2063 3584 2303 3448 
Q 2544 3313 2681 3053 
z
M 991 1747 
Q 991 1078 1203 737 
Q 1416 397 1831 397 
Q 2247 397 2464 740 
Q 2681 1084 2681 1747 
Q 2681 2413 2464 2755 
Q 2247 3097 1831 3097 
Q 1416 3097 1203 2756 
Q 991 2416 991 1747 
z
" id="DejaVuSansMono-64" transform="scale(0.015625)"/>
      <path d="M 2681 1125 
Q 2538 759 2316 163 
Q 2006 -663 1900 -844 
Q 1756 -1088 1540 -1209 
Q 1325 -1331 1038 -1331 
L 575 -1331 
L 575 -850 
L 916 -850 
Q 1169 -850 1312 -703 
Q 1456 -556 1678 56 
L 325 3500 
L 934 3500 
L 1972 763 
L 2994 3500 
L 3603 3500 
L 2681 1125 
z
" id="DejaVuSansMono-79" transform="scale(0.015625)"/>
      <path d="M 3284 2169 
L 3284 0 
L 2706 0 
L 2706 2169 
Q 2706 2641 2540 2862 
Q 2375 3084 2022 3084 
Q 1619 3084 1401 2798 
Q 1184 2513 1184 1978 
L 1184 0 
L 609 0 
L 609 3500 
L 1184 3500 
L 1184 2975 
Q 1338 3275 1600 3429 
Q 1863 3584 2222 3584 
Q 2756 3584 3020 3232 
Q 3284 2881 3284 2169 
z
" id="DejaVuSansMono-6e" transform="scale(0.015625)"/>
      <path d="M 1925 3097 
Q 1488 3097 1263 2756 
Q 1038 2416 1038 1747 
Q 1038 1081 1263 739 
Q 1488 397 1925 397 
Q 2366 397 2591 739 
Q 2816 1081 2816 1747 
Q 2816 2416 2591 2756 
Q 2366 3097 1925 3097 
z
M 1925 3584 
Q 2653 3584 3039 3112 
Q 3425 2641 3425 1747 
Q 3425 850 3040 379 
Q 2656 -91 1925 -91 
Q 1197 -91 812 379 
Q 428 850 428 1747 
Q 428 2641 812 3112 
Q 1197 3584 1925 3584 
z
" id="DejaVuSansMono-6f" transform="scale(0.015625)"/>
      <path d="M 2113 3144 
Q 2219 3369 2383 3476 
Q 2547 3584 2778 3584 
Q 3200 3584 3373 3257 
Q 3547 2931 3547 2028 
L 3547 0 
L 3022 0 
L 3022 2003 
Q 3022 2744 2939 2923 
Q 2856 3103 2638 3103 
Q 2388 3103 2295 2911 
Q 2203 2719 2203 2003 
L 2203 0 
L 1678 0 
L 1678 2003 
Q 1678 2753 1589 2928 
Q 1500 3103 1269 3103 
Q 1041 3103 952 2911 
Q 863 2719 863 2003 
L 863 0 
L 341 0 
L 341 3500 
L 863 3500 
L 863 3200 
Q 966 3388 1120 3486 
Q 1275 3584 1472 3584 
Q 1709 3584 1867 3475 
Q 2025 3366 2113 3144 
z
" id="DejaVuSansMono-6d" transform="scale(0.015625)"/>
      <path d="M 800 3500 
L 2272 3500 
L 2272 447 
L 3413 447 
L 3413 0 
L 556 0 
L 556 447 
L 1697 447 
L 1697 3053 
L 800 3053 
L 800 3500 
z
M 1697 4863 
L 2272 4863 
L 2272 4134 
L 1697 4134 
L 1697 4863 
z
" id="DejaVuSansMono-69" transform="scale(0.015625)"/>
      <path d="M 2681 1778 
Q 2681 2425 2470 2761 
Q 2259 3097 1856 3097 
Q 1434 3097 1212 2761 
Q 991 2425 991 1778 
Q 991 1131 1214 792 
Q 1438 453 1863 453 
Q 2259 453 2470 793 
Q 2681 1134 2681 1778 
z
M 3256 225 
Q 3256 -563 2884 -969 
Q 2513 -1375 1791 -1375 
Q 1553 -1375 1293 -1331 
Q 1034 -1288 775 -1203 
L 775 -634 
Q 1081 -778 1331 -847 
Q 1581 -916 1791 -916 
Q 2256 -916 2468 -662 
Q 2681 -409 2681 141 
L 2681 166 
L 2681 556 
Q 2544 263 2306 119 
Q 2069 -25 1728 -25 
Q 1116 -25 750 465 
Q 384 956 384 1778 
Q 384 2603 750 3093 
Q 1116 3584 1728 3584 
Q 2066 3584 2300 3450 
Q 2534 3316 2681 3034 
L 2681 3488 
L 3256 3488 
L 3256 225 
z
" id="DejaVuSansMono-67" transform="scale(0.015625)"/>
      <path d="M 3284 2169 
L 3284 0 
L 2706 0 
L 2706 2169 
Q 2706 2641 2540 2862 
Q 2375 3084 2022 3084 
Q 1619 3084 1401 2798 
Q 1184 2513 1184 1978 
L 1184 0 
L 609 0 
L 609 4863 
L 1184 4863 
L 1184 2975 
Q 1338 3275 1600 3429 
Q 1863 3584 2222 3584 
Q 2756 3584 3020 3232 
Q 3284 2881 3284 2169 
z
" id="DejaVuSansMono-68" transform="scale(0.015625)"/>
      <path d="M 1919 4494 
L 1919 3500 
L 3225 3500 
L 3225 3053 
L 1919 3053 
L 1919 1153 
Q 1919 766 2066 612 
Q 2213 459 2578 459 
L 3225 459 
L 3225 0 
L 2522 0 
Q 1875 0 1609 259 
Q 1344 519 1344 1153 
L 1344 3053 
L 409 3053 
L 409 3500 
L 1344 3500 
L 1344 4494 
L 1919 4494 
z
" id="DejaVuSansMono-74" transform="scale(0.015625)"/>
      <path d="M 1528 953 
L 2316 953 
L 2316 0 
L 1528 0 
L 1528 953 
z
" id="DejaVuSansMono-2e" transform="scale(0.015625)"/>
      <path d="M 3475 1894 
L 3475 1613 
L 984 1613 
L 984 1594 
Q 984 1022 1282 709 
Q 1581 397 2125 397 
Q 2400 397 2700 484 
Q 3000 572 3341 750 
L 3341 178 
Q 3013 44 2708 -23 
Q 2403 -91 2119 -91 
Q 1303 -91 843 398 
Q 384 888 384 1747 
Q 384 2584 834 3084 
Q 1284 3584 2034 3584 
Q 2703 3584 3089 3131 
Q 3475 2678 3475 1894 
z
M 2900 2063 
Q 2888 2569 2661 2833 
Q 2434 3097 2009 3097 
Q 1594 3097 1325 2822 
Q 1056 2547 1006 2059 
L 2900 2063 
z
" id="DejaVuSansMono-65" transform="scale(0.015625)"/>
     </defs>
     <use xlink:href="#DejaVuSansMono-64"/>
     <use x="60.205078" xlink:href="#DejaVuSansMono-79"/>
     <use x="120.410156" xlink:href="#DejaVuSansMono-6e"/>
     <use x="180.615234" xlink:href="#DejaVuSansMono-6f"/>
     <use x="240.820312" xlink:href="#DejaVuSansMono-6d"/>
     <use x="301.025391" xlink:href="#DejaVuSansMono-69"/>
     <use x="361.230469" xlink:href="#DejaVuSansMono-67"/>
     <use x="421.435547" xlink:href="#DejaVuSansMono-68"/>
     <use x="481.640625" xlink:href="#DejaVuSansMono-74"/>
     <use x="541.845703" xlink:href="#DejaVuSansMono-2e"/>
     <use x="602.050781" xlink:href="#DejaVuSansMono-6e"/>
     <use x="662.255859" xlink:href="#DejaVuSansMono-65"/>
     <use x="722.460938" xlink:href="#DejaVuSansMono-74"/>
    </g>
   </a>
  </g>
 </g>
 <defs>
  <clipPath id="p194c00baea">
   <rect height="137.941333" width="316.844399" x="63.66625" y="44.733437"/>
  </clipPath>
  <clipPath id="pad6d62a2c1">
   <rect height="137.941333" width="316.844399" x="63.66625" y="203.554771"/>
  </clipPath>
  <clipPath id="p0a8a39da3c">
   <rect height="137.941333" width="316.844399" x="63.66625" y="362.376104"/>
  </clipPath>
 </defs>
</svg>
