<?xml version="1.0" encoding="utf-8" standalone="no"?>
<!DOCTYPE svg PUBLIC "-//W3C//DTD SVG 1.1//EN"
  "http://www.w3.org/Graphics/SVG/1.1/DTD/svg11.dtd">
<svg xmlns:xlink="http://www.w3.org/1999/xlink" width="460.8pt" height="345.6pt" viewBox="0 0 460.8 345.6" xmlns="http://www.w3.org/2000/svg" version="1.1">
 <metadata>
  <rdf:RDF xmlns:dc="http://purl.org/dc/elements/1.1/" xmlns:cc="http://creativecommons.org/ns#" xmlns:rdf="http://www.w3.org/1999/02/22-rdf-syntax-ns#">
   <cc:Work>
    <dc:type rdf:resource="http://purl.org/dc/dcmitype/StillImage"/>
    <dc:date>2022-09-01T08:42:18.850313</dc:date>
    <dc:format>image/svg+xml</dc:format>
    <dc:creator>
     <cc:Agent>
      <dc:title>Matplotlib v3.5.1, https://matplotlib.org/</dc:title>
     </cc:Agent>
    </dc:creator>
   </cc:Work>
  </rdf:RDF>
 </metadata>
 <defs>
  <style type="text/css">*{stroke-linejoin: round; stroke-linecap: butt}</style>
 </defs>
 <g id="figure_1">
  <g id="patch_1">
   <path d="M 0 345.6 
L 460.8 345.6 
L 460.8 0 
L 0 0 
z
" style="fill: #ffffff"/>
  </g>
  <g id="axes_1">
   <g id="patch_2">
    <path d="M 60.905 237.057409 
L 445.68 237.057409 
L 445.68 33.72 
L 60.905 33.72 
z
" style="fill: #ffffff"/>
   </g>
   <g id="patch_3">
    <path d="M 78.394773 206.53685 
L 89.678497 206.53685 
L 89.678497 42.96261 
L 78.394773 42.96261 
z
" clip-path="url(#p87142bdf88)" style="fill: #1f77b4"/>
   </g>
   <g id="patch_4">
    <path d="M 123.52967 206.53685 
L 134.813394 206.53685 
L 134.813394 93.497741 
L 123.52967 93.497741 
z
" clip-path="url(#p87142bdf88)" style="fill: #1f77b4"/>
   </g>
   <g id="patch_5">
    <path d="M 168.664567 206.53685 
L 179.948292 206.53685 
L 179.948292 134.723769 
L 168.664567 134.723769 
z
" clip-path="url(#p87142bdf88)" style="fill: #1f77b4"/>
   </g>
   <g id="patch_6">
    <path d="M 213.799465 206.53685 
L 225.083189 206.53685 
L 225.083189 134.723769 
L 213.799465 134.723769 
z
" clip-path="url(#p87142bdf88)" style="fill: #1f77b4"/>
   </g>
   <g id="patch_7">
    <path d="M 258.934362 206.53685 
L 270.218087 206.53685 
L 270.218087 144.032872 
L 258.934362 144.032872 
z
" clip-path="url(#p87142bdf88)" style="fill: #1f77b4"/>
   </g>
   <g id="patch_8">
    <path d="M 304.06926 206.53685 
L 315.352984 206.53685 
L 315.352984 150.682231 
L 304.06926 150.682231 
z
" clip-path="url(#p87142bdf88)" style="fill: #1f77b4"/>
   </g>
   <g id="patch_9">
    <path d="M 349.204157 206.53685 
L 360.487881 206.53685 
L 360.487881 175.949797 
L 349.204157 175.949797 
z
" clip-path="url(#p87142bdf88)" style="fill: #1f77b4"/>
   </g>
   <g id="patch_10">
    <path d="M 394.339054 206.53685 
L 405.622779 206.53685 
L 405.622779 202.547234 
L 394.339054 202.547234 
z
" clip-path="url(#p87142bdf88)" style="fill: #1f77b4"/>
   </g>
   <g id="patch_11">
    <path d="M 89.678497 206.53685 
L 100.962221 206.53685 
L 100.962221 201.217362 
L 89.678497 201.217362 
z
" clip-path="url(#p87142bdf88)" style="fill: #ff7f0e"/>
   </g>
   <g id="patch_12">
    <path d="M 134.813394 206.53685 
L 146.097119 206.53685 
L 146.097119 189.248515 
L 134.813394 189.248515 
z
" clip-path="url(#p87142bdf88)" style="fill: #ff7f0e"/>
   </g>
   <g id="patch_13">
    <path d="M 179.948292 206.53685 
L 191.232016 206.53685 
L 191.232016 165.310822 
L 179.948292 165.310822 
z
" clip-path="url(#p87142bdf88)" style="fill: #ff7f0e"/>
   </g>
   <g id="patch_14">
    <path d="M 225.083189 206.53685 
L 236.366913 206.53685 
L 236.366913 183.929028 
L 225.083189 183.929028 
z
" clip-path="url(#p87142bdf88)" style="fill: #ff7f0e"/>
   </g>
   <g id="patch_15">
    <path d="M 270.218087 206.53685 
L 281.501811 206.53685 
L 281.501811 182.599156 
L 270.218087 182.599156 
z
" clip-path="url(#p87142bdf88)" style="fill: #ff7f0e"/>
   </g>
   <g id="patch_16">
    <path d="M 315.352984 206.53685 
L 326.636708 206.53685 
L 326.636708 199.88749 
L 315.352984 199.88749 
z
" clip-path="url(#p87142bdf88)" style="fill: #ff7f0e"/>
   </g>
   <g id="patch_17">
    <path d="M 360.487881 206.53685 
L 371.771606 206.53685 
L 371.771606 177.279669 
L 360.487881 177.279669 
z
" clip-path="url(#p87142bdf88)" style="fill: #ff7f0e"/>
   </g>
   <g id="patch_18">
    <path d="M 405.622779 206.53685 
L 416.906503 206.53685 
L 416.906503 198.557619 
L 405.622779 198.557619 
z
" clip-path="url(#p87142bdf88)" style="fill: #ff7f0e"/>
   </g>
   <g id="patch_19">
    <path d="M 100.962221 206.53685 
L 112.245946 206.53685 
L 112.245946 210.526465 
L 100.962221 210.526465 
z
" clip-path="url(#p87142bdf88)" style="fill: #2ca02c"/>
   </g>
   <g id="patch_20">
    <path d="M 146.097119 206.53685 
L 157.380843 206.53685 
L 157.380843 203.877106 
L 146.097119 203.877106 
z
" clip-path="url(#p87142bdf88)" style="fill: #2ca02c"/>
   </g>
   <g id="patch_21">
    <path d="M 191.232016 206.53685 
L 202.51574 206.53685 
L 202.51574 175.949797 
L 191.232016 175.949797 
z
" clip-path="url(#p87142bdf88)" style="fill: #2ca02c"/>
   </g>
   <g id="patch_22">
    <path d="M 236.366913 206.53685 
L 247.650638 206.53685 
L 247.650638 202.547234 
L 236.366913 202.547234 
z
" clip-path="url(#p87142bdf88)" style="fill: #2ca02c"/>
   </g>
   <g id="patch_23">
    <path d="M 281.501811 206.53685 
L 292.785535 206.53685 
L 292.785535 193.238131 
L 281.501811 193.238131 
z
" clip-path="url(#p87142bdf88)" style="fill: #2ca02c"/>
   </g>
   <g id="patch_24">
    <path d="M 326.636708 206.53685 
L 337.920433 206.53685 
L 337.920433 201.217362 
L 326.636708 201.217362 
z
" clip-path="url(#p87142bdf88)" style="fill: #2ca02c"/>
   </g>
   <g id="patch_25">
    <path d="M 371.771606 206.53685 
L 383.05533 206.53685 
L 383.05533 206.53685 
L 371.771606 206.53685 
z
" clip-path="url(#p87142bdf88)" style="fill: #2ca02c"/>
   </g>
   <g id="patch_26">
    <path d="M 416.906503 206.53685 
L 428.190227 206.53685 
L 428.190227 227.8148 
L 416.906503 227.8148 
z
" clip-path="url(#p87142bdf88)" style="fill: #2ca02c"/>
   </g>
   <g id="matplotlib.axis_1">
    <g id="xtick_1">
     <g id="text_1">
      <!-- Stress -->
      <g transform="translate(63.660537 281.141845)rotate(-45)scale(0.14 -0.14)">
       <defs>
        <path id="Montserrat-Regular-53" d="M 1965 -38 
Q 1466 -38 1008 122 
Q 550 282 301 544 
L 486 909 
Q 730 666 1133 515 
Q 1536 365 1965 365 
Q 2566 365 2867 585 
Q 3168 806 3168 1158 
Q 3168 1427 3005 1587 
Q 2842 1747 2605 1833 
Q 2368 1920 1946 2022 
Q 1440 2150 1139 2268 
Q 838 2387 624 2630 
Q 410 2874 410 3290 
Q 410 3629 589 3907 
Q 768 4186 1139 4352 
Q 1510 4518 2061 4518 
Q 2445 4518 2813 4412 
Q 3181 4307 3450 4122 
L 3290 3744 
Q 3008 3930 2688 4022 
Q 2368 4115 2061 4115 
Q 1472 4115 1174 3888 
Q 877 3661 877 3302 
Q 877 3034 1040 2870 
Q 1203 2707 1449 2620 
Q 1696 2534 2112 2432 
Q 2605 2310 2909 2192 
Q 3213 2074 3424 1834 
Q 3635 1594 3635 1184 
Q 3635 845 3452 566 
Q 3270 288 2892 125 
Q 2515 -38 1965 -38 
z
" transform="scale(0.015625)"/>
        <path id="Montserrat-Regular-74" d="M 2406 205 
Q 2278 90 2089 29 
Q 1901 -32 1696 -32 
Q 1222 -32 966 224 
Q 710 480 710 947 
L 710 2982 
L 109 2982 
L 109 3366 
L 710 3366 
L 710 4102 
L 1165 4102 
L 1165 3366 
L 2189 3366 
L 2189 2982 
L 1165 2982 
L 1165 973 
Q 1165 672 1315 515 
Q 1466 358 1747 358 
Q 1888 358 2019 403 
Q 2150 448 2246 531 
L 2406 205 
z
" transform="scale(0.015625)"/>
        <path id="Montserrat-Regular-72" d="M 1069 2707 
Q 1229 3046 1545 3219 
Q 1862 3392 2330 3392 
L 2330 2950 
L 2221 2957 
Q 1690 2957 1389 2630 
Q 1088 2304 1088 1715 
L 1088 0 
L 634 0 
L 634 3366 
L 1069 3366 
L 1069 2707 
z
" transform="scale(0.015625)"/>
        <path id="Montserrat-Regular-65" d="M 3565 1542 
L 749 1542 
Q 787 1018 1152 694 
Q 1517 371 2074 371 
Q 2387 371 2649 483 
Q 2912 595 3104 813 
L 3360 518 
Q 3136 250 2800 109 
Q 2464 -32 2061 -32 
Q 1542 -32 1142 189 
Q 742 410 518 800 
Q 294 1190 294 1683 
Q 294 2176 508 2566 
Q 723 2957 1097 3174 
Q 1472 3392 1939 3392 
Q 2406 3392 2777 3174 
Q 3149 2957 3360 2569 
Q 3571 2182 3571 1683 
L 3565 1542 
z
M 1939 3002 
Q 1453 3002 1123 2691 
Q 794 2381 749 1882 
L 3136 1882 
Q 3091 2381 2761 2691 
Q 2432 3002 1939 3002 
z
" transform="scale(0.015625)"/>
        <path id="Montserrat-Regular-73" d="M 1536 -32 
Q 1126 -32 752 86 
Q 378 205 166 384 
L 371 742 
Q 582 576 902 470 
Q 1222 365 1568 365 
Q 2029 365 2249 509 
Q 2470 653 2470 915 
Q 2470 1101 2348 1206 
Q 2227 1312 2041 1366 
Q 1856 1421 1549 1472 
Q 1139 1549 889 1629 
Q 640 1709 464 1901 
Q 288 2093 288 2432 
Q 288 2854 640 3123 
Q 992 3392 1619 3392 
Q 1946 3392 2272 3305 
Q 2598 3219 2810 3078 
L 2611 2714 
Q 2195 3002 1619 3002 
Q 1184 3002 963 2848 
Q 742 2694 742 2445 
Q 742 2253 867 2137 
Q 992 2022 1177 1968 
Q 1363 1914 1690 1856 
Q 2093 1779 2336 1702 
Q 2579 1626 2752 1440 
Q 2925 1254 2925 928 
Q 2925 486 2557 227 
Q 2189 -32 1536 -32 
z
" transform="scale(0.015625)"/>
       </defs>
       <use xlink:href="#Montserrat-Regular-53"/>
       <use xlink:href="#Montserrat-Regular-74" x="61.499985"/>
       <use xlink:href="#Montserrat-Regular-72" x="102.099976"/>
       <use xlink:href="#Montserrat-Regular-65" x="142.199966"/>
       <use xlink:href="#Montserrat-Regular-73" x="202.59996"/>
       <use xlink:href="#Montserrat-Regular-73" x="251.499954"/>
      </g>
     </g>
    </g>
    <g id="xtick_2">
     <g id="text_2">
      <!-- Depression -->
      <g transform="translate(82.461231 307.476049)rotate(-45)scale(0.14 -0.14)">
       <defs>
        <path id="Montserrat-Regular-44" d="M 730 4480 
L 2554 4480 
Q 3264 4480 3808 4195 
Q 4352 3910 4653 3401 
Q 4954 2893 4954 2240 
Q 4954 1587 4653 1078 
Q 4352 570 3808 285 
Q 3264 0 2554 0 
L 730 0 
L 730 4480 
z
M 2528 410 
Q 3117 410 3558 643 
Q 4000 877 4243 1289 
Q 4486 1702 4486 2240 
Q 4486 2778 4243 3190 
Q 4000 3603 3558 3836 
Q 3117 4070 2528 4070 
L 1203 4070 
L 1203 410 
L 2528 410 
z
" transform="scale(0.015625)"/>
        <path id="Montserrat-Regular-70" d="M 2368 3392 
Q 2842 3392 3226 3177 
Q 3610 2963 3827 2572 
Q 4045 2182 4045 1683 
Q 4045 1178 3827 787 
Q 3610 397 3229 182 
Q 2848 -32 2368 -32 
Q 1958 -32 1628 137 
Q 1299 307 1088 634 
L 1088 -1242 
L 634 -1242 
L 634 3366 
L 1069 3366 
L 1069 2701 
Q 1274 3034 1610 3213 
Q 1946 3392 2368 3392 
z
M 2336 371 
Q 2688 371 2976 534 
Q 3264 698 3427 998 
Q 3590 1299 3590 1683 
Q 3590 2067 3427 2364 
Q 3264 2662 2976 2828 
Q 2688 2995 2336 2995 
Q 1978 2995 1693 2828 
Q 1408 2662 1245 2364 
Q 1082 2067 1082 1683 
Q 1082 1299 1245 998 
Q 1408 698 1693 534 
Q 1978 371 2336 371 
z
" transform="scale(0.015625)"/>
        <path id="Montserrat-Regular-69" d="M 634 3366 
L 1088 3366 
L 1088 0 
L 634 0 
L 634 3366 
z
M 864 4102 
Q 723 4102 627 4198 
Q 531 4294 531 4429 
Q 531 4557 627 4653 
Q 723 4749 864 4749 
Q 1005 4749 1101 4656 
Q 1197 4563 1197 4435 
Q 1197 4294 1101 4198 
Q 1005 4102 864 4102 
z
" transform="scale(0.015625)"/>
        <path id="Montserrat-Regular-6f" d="M 2010 -32 
Q 1523 -32 1132 189 
Q 742 410 518 800 
Q 294 1190 294 1683 
Q 294 2176 518 2566 
Q 742 2957 1132 3174 
Q 1523 3392 2010 3392 
Q 2496 3392 2886 3174 
Q 3277 2957 3497 2566 
Q 3718 2176 3718 1683 
Q 3718 1190 3497 800 
Q 3277 410 2886 189 
Q 2496 -32 2010 -32 
z
M 2010 371 
Q 2368 371 2653 534 
Q 2938 698 3098 998 
Q 3258 1299 3258 1683 
Q 3258 2067 3098 2368 
Q 2938 2669 2653 2832 
Q 2368 2995 2010 2995 
Q 1651 2995 1366 2832 
Q 1082 2669 918 2368 
Q 755 2067 755 1683 
Q 755 1299 918 998 
Q 1082 698 1366 534 
Q 1651 371 2010 371 
z
" transform="scale(0.015625)"/>
        <path id="Montserrat-Regular-6e" d="M 2349 3392 
Q 2982 3392 3356 3024 
Q 3731 2656 3731 1952 
L 3731 0 
L 3277 0 
L 3277 1907 
Q 3277 2432 3014 2707 
Q 2752 2982 2266 2982 
Q 1722 2982 1405 2659 
Q 1088 2336 1088 1766 
L 1088 0 
L 634 0 
L 634 3366 
L 1069 3366 
L 1069 2746 
Q 1254 3053 1584 3222 
Q 1914 3392 2349 3392 
z
" transform="scale(0.015625)"/>
       </defs>
       <use xlink:href="#Montserrat-Regular-44"/>
       <use xlink:href="#Montserrat-Regular-65" x="82.599991"/>
       <use xlink:href="#Montserrat-Regular-70" x="142.999985"/>
       <use xlink:href="#Montserrat-Regular-72" x="210.799973"/>
       <use xlink:href="#Montserrat-Regular-65" x="250.899963"/>
       <use xlink:href="#Montserrat-Regular-73" x="311.299957"/>
       <use xlink:href="#Montserrat-Regular-73" x="360.199951"/>
       <use xlink:href="#Montserrat-Regular-69" x="409.099945"/>
       <use xlink:href="#Montserrat-Regular-6f" x="435.999939"/>
       <use xlink:href="#Montserrat-Regular-6e" x="498.699936"/>
      </g>
     </g>
    </g>
    <g id="xtick_3">
     <g id="text_3">
      <!-- Grateful mood -->
      <g transform="translate(111.303725 323.768452)rotate(-45)scale(0.14 -0.14)">
       <defs>
        <path id="Montserrat-Regular-47" d="M 3885 2240 
L 4339 2240 
L 4339 531 
Q 4026 256 3597 109 
Q 3168 -38 2694 -38 
Q 2022 -38 1484 256 
Q 947 550 640 1072 
Q 333 1594 333 2240 
Q 333 2886 640 3408 
Q 947 3930 1484 4224 
Q 2022 4518 2701 4518 
Q 3213 4518 3641 4355 
Q 4070 4192 4365 3872 
L 4070 3571 
Q 3539 4096 2720 4096 
Q 2176 4096 1737 3856 
Q 1299 3616 1049 3190 
Q 800 2765 800 2240 
Q 800 1715 1049 1292 
Q 1299 870 1734 627 
Q 2170 384 2714 384 
Q 3405 384 3885 730 
L 3885 2240 
z
" transform="scale(0.015625)"/>
        <path id="Montserrat-Regular-61" d="M 1811 3392 
Q 2470 3392 2822 3062 
Q 3174 2733 3174 2086 
L 3174 0 
L 2739 0 
L 2739 525 
Q 2586 262 2288 115 
Q 1990 -32 1581 -32 
Q 1018 -32 685 237 
Q 352 506 352 947 
Q 352 1376 662 1638 
Q 973 1901 1651 1901 
L 2720 1901 
L 2720 2106 
Q 2720 2541 2477 2768 
Q 2234 2995 1766 2995 
Q 1446 2995 1152 2889 
Q 858 2784 646 2598 
L 442 2938 
Q 698 3155 1056 3273 
Q 1414 3392 1811 3392 
z
M 1651 326 
Q 2035 326 2310 502 
Q 2586 678 2720 1011 
L 2720 1562 
L 1664 1562 
Q 800 1562 800 960 
Q 800 666 1024 496 
Q 1248 326 1651 326 
z
" transform="scale(0.015625)"/>
        <path id="Montserrat-Regular-66" d="M 1747 4397 
Q 1453 4397 1302 4237 
Q 1152 4077 1152 3763 
L 1152 3366 
L 2189 3366 
L 2189 2982 
L 1165 2982 
L 1165 0 
L 710 0 
L 710 2982 
L 109 2982 
L 109 3366 
L 710 3366 
L 710 3782 
Q 710 4243 976 4512 
Q 1242 4781 1728 4781 
Q 1920 4781 2099 4726 
Q 2278 4672 2400 4570 
L 2246 4230 
Q 2048 4397 1747 4397 
z
" transform="scale(0.015625)"/>
        <path id="Montserrat-Regular-75" d="M 3667 3366 
L 3667 0 
L 3232 0 
L 3232 614 
Q 3053 307 2739 137 
Q 2426 -32 2022 -32 
Q 1363 -32 982 336 
Q 602 704 602 1414 
L 602 3366 
L 1056 3366 
L 1056 1459 
Q 1056 928 1318 653 
Q 1581 378 2067 378 
Q 2598 378 2905 701 
Q 3213 1024 3213 1600 
L 3213 3366 
L 3667 3366 
z
" transform="scale(0.015625)"/>
        <path id="Montserrat-Regular-6c" d="M 634 4749 
L 1088 4749 
L 1088 0 
L 634 0 
L 634 4749 
z
" transform="scale(0.015625)"/>
        <path id="Montserrat-Regular-20" transform="scale(0.015625)"/>
        <path id="Montserrat-Regular-6d" d="M 4832 3392 
Q 5466 3392 5827 3027 
Q 6189 2662 6189 1952 
L 6189 0 
L 5734 0 
L 5734 1907 
Q 5734 2432 5481 2707 
Q 5229 2982 4768 2982 
Q 4243 2982 3942 2659 
Q 3642 2336 3642 1766 
L 3642 0 
L 3187 0 
L 3187 1907 
Q 3187 2432 2934 2707 
Q 2682 2982 2214 2982 
Q 1696 2982 1392 2659 
Q 1088 2336 1088 1766 
L 1088 0 
L 634 0 
L 634 3366 
L 1069 3366 
L 1069 2752 
Q 1248 3059 1568 3225 
Q 1888 3392 2304 3392 
Q 2726 3392 3036 3213 
Q 3347 3034 3501 2682 
Q 3686 3014 4035 3203 
Q 4384 3392 4832 3392 
z
" transform="scale(0.015625)"/>
        <path id="Montserrat-Regular-64" d="M 3706 4749 
L 3706 0 
L 3270 0 
L 3270 666 
Q 3066 326 2730 147 
Q 2394 -32 1971 -32 
Q 1498 -32 1114 185 
Q 730 403 512 793 
Q 294 1184 294 1683 
Q 294 2182 512 2572 
Q 730 2963 1114 3177 
Q 1498 3392 1971 3392 
Q 2381 3392 2710 3222 
Q 3040 3053 3251 2726 
L 3251 4749 
L 3706 4749 
z
M 2010 371 
Q 2362 371 2646 534 
Q 2931 698 3094 998 
Q 3258 1299 3258 1683 
Q 3258 2067 3094 2368 
Q 2931 2669 2646 2832 
Q 2362 2995 2010 2995 
Q 1651 2995 1366 2832 
Q 1082 2669 918 2368 
Q 755 2067 755 1683 
Q 755 1299 918 998 
Q 1082 698 1366 534 
Q 1651 371 2010 371 
z
" transform="scale(0.015625)"/>
       </defs>
       <use xlink:href="#Montserrat-Regular-47"/>
       <use xlink:href="#Montserrat-Regular-72" x="77.299988"/>
       <use xlink:href="#Montserrat-Regular-61" x="117.399979"/>
       <use xlink:href="#Montserrat-Regular-74" x="176.399963"/>
       <use xlink:href="#Montserrat-Regular-65" x="216.999954"/>
       <use xlink:href="#Montserrat-Regular-66" x="277.399948"/>
       <use xlink:href="#Montserrat-Regular-75" x="311.299942"/>
       <use xlink:href="#Montserrat-Regular-6c" x="378.59993"/>
       <use xlink:href="#Montserrat-Regular-20" x="405.499924"/>
       <use xlink:href="#Montserrat-Regular-6d" x="431.699921"/>
       <use xlink:href="#Montserrat-Regular-6f" x="537.799911"/>
       <use xlink:href="#Montserrat-Regular-6f" x="600.499908"/>
       <use xlink:href="#Montserrat-Regular-64" x="663.199905"/>
      </g>
     </g>
    </g>
    <g id="xtick_4">
     <g id="text_4">
      <!-- Life satisfaction -->
      <g transform="translate(151.810609 328.396466)rotate(-45)scale(0.14 -0.14)">
       <defs>
        <path id="Montserrat-Regular-4c" d="M 730 4480 
L 1203 4480 
L 1203 410 
L 3712 410 
L 3712 0 
L 730 0 
L 730 4480 
z
" transform="scale(0.015625)"/>
        <path id="Montserrat-Regular-63" d="M 2029 -32 
Q 1530 -32 1136 185 
Q 742 403 518 796 
Q 294 1190 294 1683 
Q 294 2176 518 2566 
Q 742 2957 1136 3174 
Q 1530 3392 2029 3392 
Q 2464 3392 2806 3222 
Q 3149 3053 3347 2726 
L 3008 2496 
Q 2842 2746 2586 2870 
Q 2330 2995 2029 2995 
Q 1664 2995 1373 2832 
Q 1082 2669 918 2368 
Q 755 2067 755 1683 
Q 755 1293 918 995 
Q 1082 698 1373 534 
Q 1664 371 2029 371 
Q 2330 371 2586 492 
Q 2842 614 3008 864 
L 3347 634 
Q 3149 307 2803 137 
Q 2458 -32 2029 -32 
z
" transform="scale(0.015625)"/>
       </defs>
       <use xlink:href="#Montserrat-Regular-4c"/>
       <use xlink:href="#Montserrat-Regular-69" x="58.899994"/>
       <use xlink:href="#Montserrat-Regular-66" x="85.799988"/>
       <use xlink:href="#Montserrat-Regular-65" x="119.699982"/>
       <use xlink:href="#Montserrat-Regular-20" x="180.099976"/>
       <use xlink:href="#Montserrat-Regular-73" x="206.299973"/>
       <use xlink:href="#Montserrat-Regular-61" x="255.199966"/>
       <use xlink:href="#Montserrat-Regular-74" x="314.199951"/>
       <use xlink:href="#Montserrat-Regular-69" x="354.799942"/>
       <use xlink:href="#Montserrat-Regular-73" x="381.699936"/>
       <use xlink:href="#Montserrat-Regular-66" x="430.59993"/>
       <use xlink:href="#Montserrat-Regular-61" x="464.499924"/>
       <use xlink:href="#Montserrat-Regular-63" x="523.499908"/>
       <use xlink:href="#Montserrat-Regular-74" x="579.799896"/>
       <use xlink:href="#Montserrat-Regular-69" x="620.399887"/>
       <use xlink:href="#Montserrat-Regular-6f" x="647.299881"/>
       <use xlink:href="#Montserrat-Regular-6e" x="709.999878"/>
      </g>
     </g>
    </g>
    <g id="xtick_5">
     <g id="text_5">
      <!-- Positive affect -->
      <g transform="translate(204.371674 320.970298)rotate(-45)scale(0.14 -0.14)">
       <defs>
        <path id="Montserrat-Regular-50" d="M 2406 4480 
Q 3264 4480 3750 4070 
Q 4237 3661 4237 2944 
Q 4237 2227 3750 1820 
Q 3264 1414 2406 1414 
L 1203 1414 
L 1203 0 
L 730 0 
L 730 4480 
L 2406 4480 
z
M 2394 1830 
Q 3059 1830 3411 2121 
Q 3763 2413 3763 2944 
Q 3763 3488 3411 3779 
Q 3059 4070 2394 4070 
L 1203 4070 
L 1203 1830 
L 2394 1830 
z
" transform="scale(0.015625)"/>
        <path id="Montserrat-Regular-76" d="M 3462 3366 
L 1965 0 
L 1498 0 
L 6 3366 
L 480 3366 
L 1741 499 
L 3014 3366 
L 3462 3366 
z
" transform="scale(0.015625)"/>
       </defs>
       <use xlink:href="#Montserrat-Regular-50"/>
       <use xlink:href="#Montserrat-Regular-6f" x="71.799988"/>
       <use xlink:href="#Montserrat-Regular-73" x="134.499985"/>
       <use xlink:href="#Montserrat-Regular-69" x="183.399979"/>
       <use xlink:href="#Montserrat-Regular-74" x="210.299973"/>
       <use xlink:href="#Montserrat-Regular-69" x="250.899963"/>
       <use xlink:href="#Montserrat-Regular-76" x="277.799957"/>
       <use xlink:href="#Montserrat-Regular-65" x="331.999954"/>
       <use xlink:href="#Montserrat-Regular-20" x="392.399948"/>
       <use xlink:href="#Montserrat-Regular-61" x="418.599945"/>
       <use xlink:href="#Montserrat-Regular-66" x="477.59993"/>
       <use xlink:href="#Montserrat-Regular-66" x="511.499924"/>
       <use xlink:href="#Montserrat-Regular-65" x="545.399918"/>
       <use xlink:href="#Montserrat-Regular-63" x="605.799911"/>
       <use xlink:href="#Montserrat-Regular-74" x="662.099899"/>
      </g>
     </g>
    </g>
    <g id="xtick_6">
     <g id="text_6">
      <!-- Negative affect -->
      <g transform="translate(243.617919 326.85895)rotate(-45)scale(0.14 -0.14)">
       <defs>
        <path id="Montserrat-Regular-4e" d="M 4474 4480 
L 4474 0 
L 4083 0 
L 1203 3635 
L 1203 0 
L 730 0 
L 730 4480 
L 1120 4480 
L 4006 845 
L 4006 4480 
L 4474 4480 
z
" transform="scale(0.015625)"/>
        <path id="Montserrat-Regular-67" d="M 3750 3366 
L 3750 410 
Q 3750 -448 3331 -861 
Q 2912 -1274 2067 -1274 
Q 1600 -1274 1181 -1136 
Q 762 -998 499 -755 
L 730 -410 
Q 973 -627 1321 -748 
Q 1670 -870 2054 -870 
Q 2694 -870 2995 -572 
Q 3296 -275 3296 352 
L 3296 781 
Q 3085 461 2742 294 
Q 2400 128 1984 128 
Q 1510 128 1123 336 
Q 736 544 515 918 
Q 294 1293 294 1766 
Q 294 2240 515 2611 
Q 736 2982 1120 3187 
Q 1504 3392 1984 3392 
Q 2413 3392 2758 3219 
Q 3104 3046 3315 2720 
L 3315 3366 
L 3750 3366 
z
M 2029 531 
Q 2394 531 2688 688 
Q 2982 845 3145 1126 
Q 3309 1408 3309 1766 
Q 3309 2125 3145 2403 
Q 2982 2682 2691 2838 
Q 2400 2995 2029 2995 
Q 1664 2995 1373 2841 
Q 1082 2688 918 2406 
Q 755 2125 755 1766 
Q 755 1408 918 1126 
Q 1082 845 1373 688 
Q 1664 531 2029 531 
z
" transform="scale(0.015625)"/>
       </defs>
       <use xlink:href="#Montserrat-Regular-4e"/>
       <use xlink:href="#Montserrat-Regular-65" x="81.299988"/>
       <use xlink:href="#Montserrat-Regular-67" x="141.699982"/>
       <use xlink:href="#Montserrat-Regular-61" x="210.299973"/>
       <use xlink:href="#Montserrat-Regular-74" x="269.299957"/>
       <use xlink:href="#Montserrat-Regular-69" x="309.899948"/>
       <use xlink:href="#Montserrat-Regular-76" x="336.799942"/>
       <use xlink:href="#Montserrat-Regular-65" x="390.999939"/>
       <use xlink:href="#Montserrat-Regular-20" x="451.399933"/>
       <use xlink:href="#Montserrat-Regular-61" x="477.59993"/>
       <use xlink:href="#Montserrat-Regular-66" x="536.599915"/>
       <use xlink:href="#Montserrat-Regular-66" x="570.499908"/>
       <use xlink:href="#Montserrat-Regular-65" x="604.399902"/>
       <use xlink:href="#Montserrat-Regular-63" x="664.799896"/>
       <use xlink:href="#Montserrat-Regular-74" x="721.099884"/>
      </g>
     </g>
    </g>
    <g id="xtick_7">
     <g id="text_7">
      <!-- Optimism -->
      <g transform="translate(313.998075 301.613691)rotate(-45)scale(0.14 -0.14)">
       <defs>
        <path id="Montserrat-Regular-4f" d="M 2688 -38 
Q 2022 -38 1481 259 
Q 941 557 637 1075 
Q 333 1594 333 2240 
Q 333 2886 637 3404 
Q 941 3923 1481 4220 
Q 2022 4518 2688 4518 
Q 3354 4518 3888 4224 
Q 4422 3930 4729 3408 
Q 5037 2886 5037 2240 
Q 5037 1594 4729 1072 
Q 4422 550 3888 256 
Q 3354 -38 2688 -38 
z
M 2688 384 
Q 3219 384 3648 624 
Q 4077 864 4320 1289 
Q 4563 1715 4563 2240 
Q 4563 2765 4320 3190 
Q 4077 3616 3648 3856 
Q 3219 4096 2688 4096 
Q 2157 4096 1725 3856 
Q 1293 3616 1046 3190 
Q 800 2765 800 2240 
Q 800 1715 1046 1289 
Q 1293 864 1725 624 
Q 2157 384 2688 384 
z
" transform="scale(0.015625)"/>
       </defs>
       <use xlink:href="#Montserrat-Regular-4f"/>
       <use xlink:href="#Montserrat-Regular-70" x="83.899994"/>
       <use xlink:href="#Montserrat-Regular-74" x="151.699982"/>
       <use xlink:href="#Montserrat-Regular-69" x="192.299973"/>
       <use xlink:href="#Montserrat-Regular-6d" x="219.199966"/>
       <use xlink:href="#Montserrat-Regular-69" x="325.299957"/>
       <use xlink:href="#Montserrat-Regular-73" x="352.199951"/>
       <use xlink:href="#Montserrat-Regular-6d" x="401.099945"/>
      </g>
     </g>
    </g>
    <g id="xtick_8">
     <g id="text_8">
      <!-- Physical health -->
      <g transform="translate(334.034659 326.662507)rotate(-45)scale(0.14 -0.14)">
       <defs>
        <path id="Montserrat-Regular-68" d="M 2349 3392 
Q 2982 3392 3356 3024 
Q 3731 2656 3731 1952 
L 3731 0 
L 3277 0 
L 3277 1907 
Q 3277 2432 3014 2707 
Q 2752 2982 2266 2982 
Q 1722 2982 1405 2659 
Q 1088 2336 1088 1766 
L 1088 0 
L 634 0 
L 634 4749 
L 1088 4749 
L 1088 2778 
Q 1274 3072 1600 3232 
Q 1926 3392 2349 3392 
z
" transform="scale(0.015625)"/>
        <path id="Montserrat-Regular-79" d="M 3462 3366 
L 1779 -403 
Q 1574 -877 1305 -1075 
Q 1037 -1274 659 -1274 
Q 416 -1274 205 -1197 
Q -6 -1120 -160 -966 
L 51 -627 
Q 307 -883 666 -883 
Q 896 -883 1059 -755 
Q 1222 -627 1363 -320 
L 1510 6 
L 6 3366 
L 480 3366 
L 1747 506 
L 3014 3366 
L 3462 3366 
z
" transform="scale(0.015625)"/>
       </defs>
       <use xlink:href="#Montserrat-Regular-50"/>
       <use xlink:href="#Montserrat-Regular-68" x="71.799988"/>
       <use xlink:href="#Montserrat-Regular-79" x="139.499969"/>
       <use xlink:href="#Montserrat-Regular-73" x="193.699966"/>
       <use xlink:href="#Montserrat-Regular-69" x="242.59996"/>
       <use xlink:href="#Montserrat-Regular-63" x="269.499954"/>
       <use xlink:href="#Montserrat-Regular-61" x="325.799942"/>
       <use xlink:href="#Montserrat-Regular-6c" x="384.799927"/>
       <use xlink:href="#Montserrat-Regular-20" x="411.699921"/>
       <use xlink:href="#Montserrat-Regular-68" x="437.899918"/>
       <use xlink:href="#Montserrat-Regular-65" x="505.599899"/>
       <use xlink:href="#Montserrat-Regular-61" x="565.999893"/>
       <use xlink:href="#Montserrat-Regular-6c" x="624.999878"/>
       <use xlink:href="#Montserrat-Regular-74" x="651.899872"/>
       <use xlink:href="#Montserrat-Regular-68" x="692.499863"/>
      </g>
     </g>
    </g>
   </g>
   <g id="matplotlib.axis_2">
    <g id="ytick_1">
     <g id="text_9">
      <!-- 0.0 -->
      <g transform="translate(32.399687 211.731068)scale(0.14 -0.14)">
       <defs>
        <path id="Montserrat-Regular-30" d="M 2118 -38 
Q 1600 -38 1193 237 
Q 787 512 560 1027 
Q 333 1542 333 2240 
Q 333 2938 560 3453 
Q 787 3968 1193 4243 
Q 1600 4518 2118 4518 
Q 2637 4518 3043 4243 
Q 3450 3968 3680 3453 
Q 3910 2938 3910 2240 
Q 3910 1542 3680 1027 
Q 3450 512 3043 237 
Q 2637 -38 2118 -38 
z
M 2118 384 
Q 2509 384 2806 601 
Q 3104 819 3270 1235 
Q 3437 1651 3437 2240 
Q 3437 2829 3270 3245 
Q 3104 3661 2806 3878 
Q 2509 4096 2118 4096 
Q 1728 4096 1430 3878 
Q 1133 3661 966 3245 
Q 800 2829 800 2240 
Q 800 1651 966 1235 
Q 1133 819 1430 601 
Q 1728 384 2118 384 
z
" transform="scale(0.015625)"/>
        <path id="Montserrat-Regular-2e" d="M 678 -32 
Q 538 -32 438 70 
Q 339 173 339 320 
Q 339 467 438 566 
Q 538 666 678 666 
Q 819 666 921 566 
Q 1024 467 1024 320 
Q 1024 173 921 70 
Q 819 -32 678 -32 
z
" transform="scale(0.015625)"/>
       </defs>
       <use xlink:href="#Montserrat-Regular-30"/>
       <use xlink:href="#Montserrat-Regular-2e" x="66.199997"/>
       <use xlink:href="#Montserrat-Regular-30" x="87.399994"/>
      </g>
     </g>
    </g>
    <g id="ytick_2">
     <g id="text_10">
      <!-- 0.5 -->
      <g transform="translate(33.745 145.237475)scale(0.14 -0.14)">
       <defs>
        <path id="Montserrat-Regular-35" d="M 1510 2643 
Q 2483 2643 2928 2294 
Q 3373 1946 3373 1318 
Q 3373 928 3190 621 
Q 3008 314 2643 138 
Q 2278 -38 1747 -38 
Q 1267 -38 835 118 
Q 403 275 141 538 
L 365 902 
Q 589 672 953 528 
Q 1318 384 1741 384 
Q 2298 384 2602 633 
Q 2906 883 2906 1299 
Q 2906 1760 2563 1997 
Q 2221 2234 1408 2234 
L 454 2234 
L 685 4480 
L 3136 4480 
L 3136 4070 
L 1088 4070 
L 934 2643 
L 1510 2643 
z
" transform="scale(0.015625)"/>
       </defs>
       <use xlink:href="#Montserrat-Regular-30"/>
       <use xlink:href="#Montserrat-Regular-2e" x="66.199997"/>
       <use xlink:href="#Montserrat-Regular-35" x="87.399994"/>
      </g>
     </g>
    </g>
    <g id="ytick_3">
     <g id="text_11">
      <!-- 1.0 -->
      <g transform="translate(36.615 78.743881)scale(0.14 -0.14)">
       <defs>
        <path id="Montserrat-Regular-31" d="M 1574 4480 
L 1574 0 
L 1114 0 
L 1114 4070 
L 58 4070 
L 58 4480 
L 1574 4480 
z
" transform="scale(0.015625)"/>
       </defs>
       <use xlink:href="#Montserrat-Regular-31"/>
       <use xlink:href="#Montserrat-Regular-2e" x="36.099991"/>
       <use xlink:href="#Montserrat-Regular-30" x="57.299988"/>
      </g>
     </g>
    </g>
    <g id="text_12">
     <!-- Effect size -->
     <g transform="translate(25.682812 170.775892)rotate(-90)scale(0.14 -0.14)">
      <defs>
       <path id="Montserrat-Regular-45" d="M 3898 410 
L 3898 0 
L 730 0 
L 730 4480 
L 3802 4480 
L 3802 4070 
L 1203 4070 
L 1203 2477 
L 3520 2477 
L 3520 2074 
L 1203 2074 
L 1203 410 
L 3898 410 
z
" transform="scale(0.015625)"/>
       <path id="Montserrat-Regular-7a" d="M 3008 378 
L 3008 0 
L 269 0 
L 269 301 
L 2387 2982 
L 307 2982 
L 307 3366 
L 2970 3366 
L 2970 3066 
L 851 378 
L 3008 378 
z
" transform="scale(0.015625)"/>
      </defs>
      <use xlink:href="#Montserrat-Regular-45"/>
      <use xlink:href="#Montserrat-Regular-66" x="66.899994"/>
      <use xlink:href="#Montserrat-Regular-66" x="100.799988"/>
      <use xlink:href="#Montserrat-Regular-65" x="134.699982"/>
      <use xlink:href="#Montserrat-Regular-63" x="195.099976"/>
      <use xlink:href="#Montserrat-Regular-74" x="251.399963"/>
      <use xlink:href="#Montserrat-Regular-20" x="291.999954"/>
      <use xlink:href="#Montserrat-Regular-73" x="318.199951"/>
      <use xlink:href="#Montserrat-Regular-69" x="367.099945"/>
      <use xlink:href="#Montserrat-Regular-7a" x="393.999939"/>
      <use xlink:href="#Montserrat-Regular-65" x="445.09993"/>
     </g>
    </g>
   </g>
   <g id="patch_27">
    <path d="M 60.905 237.057409 
L 60.905 33.72 
" style="fill: none"/>
   </g>
   <g id="patch_28">
    <path d="M 445.68 237.057409 
L 445.68 33.72 
" style="fill: none"/>
   </g>
   <g id="patch_29">
    <path d="M 60.905 237.057409 
L 445.68 237.057409 
" style="fill: none"/>
   </g>
   <g id="patch_30">
    <path d="M 60.905 33.72 
L 445.68 33.72 
" style="fill: none"/>
   </g>
   <g id="text_13">
    <!-- 2 -->
    <g style="fill: #1f77b4; opacity: 0.65" transform="translate(82.048744 39.561013)scale(0.07 -0.07)">
     <defs>
      <path id="Montserrat-Regular-32" d="M 3392 410 
L 3392 0 
L 250 0 
L 250 326 
L 2112 2150 
Q 2464 2496 2589 2749 
Q 2714 3002 2714 3258 
Q 2714 3654 2442 3875 
Q 2170 4096 1664 4096 
Q 877 4096 442 3597 
L 115 3878 
Q 378 4186 784 4352 
Q 1190 4518 1702 4518 
Q 2387 4518 2787 4195 
Q 3187 3872 3187 3309 
Q 3187 2963 3033 2643 
Q 2880 2323 2451 1907 
L 928 410 
L 3392 410 
z
" transform="scale(0.015625)"/>
     </defs>
     <use xlink:href="#Montserrat-Regular-32"/>
    </g>
   </g>
   <g id="text_14">
    <!-- 2 -->
    <g style="fill: #1f77b4; opacity: 0.65" transform="translate(127.183642 90.096144)scale(0.07 -0.07)">
     <use xlink:href="#Montserrat-Regular-32"/>
    </g>
   </g>
   <g id="text_15">
    <!-- 5 -->
    <g style="fill: #1f77b4; opacity: 0.65" transform="translate(172.325648 131.322172)scale(0.07 -0.07)">
     <use xlink:href="#Montserrat-Regular-35"/>
    </g>
   </g>
   <g id="text_16">
    <!-- 3 -->
    <g style="fill: #1f77b4; opacity: 0.65" transform="translate(217.467108 131.322172)scale(0.07 -0.07)">
     <defs>
      <path id="Montserrat-Regular-33" d="M 1856 2560 
Q 2560 2522 2928 2179 
Q 3296 1837 3296 1286 
Q 3296 902 3110 604 
Q 2925 307 2560 134 
Q 2195 -38 1670 -38 
Q 1184 -38 752 118 
Q 320 275 58 538 
L 282 902 
Q 506 672 877 528 
Q 1248 384 1670 384 
Q 2221 384 2521 624 
Q 2822 864 2822 1286 
Q 2822 1702 2521 1939 
Q 2221 2176 1613 2176 
L 1293 2176 
L 1293 2515 
L 2534 4070 
L 243 4070 
L 243 4480 
L 3123 4480 
L 3123 4154 
L 1856 2560 
z
" transform="scale(0.015625)"/>
     </defs>
     <use xlink:href="#Montserrat-Regular-33"/>
    </g>
   </g>
   <g id="text_17">
    <!-- 6 -->
    <g style="fill: #1f77b4; opacity: 0.65" transform="translate(262.444506 140.631275)scale(0.07 -0.07)">
     <defs>
      <path id="Montserrat-Regular-36" d="M 2189 2682 
Q 2630 2682 2972 2515 
Q 3315 2349 3507 2045 
Q 3699 1741 3699 1338 
Q 3699 928 3500 614 
Q 3302 301 2953 131 
Q 2605 -38 2170 -38 
Q 1280 -38 806 547 
Q 333 1133 333 2202 
Q 333 2950 589 3468 
Q 845 3987 1305 4252 
Q 1766 4518 2381 4518 
Q 3046 4518 3443 4275 
L 3258 3904 
Q 2938 4115 2387 4115 
Q 1645 4115 1222 3644 
Q 800 3174 800 2278 
Q 800 2118 819 1914 
Q 986 2278 1350 2480 
Q 1715 2682 2189 2682 
z
M 2150 352 
Q 2637 352 2941 617 
Q 3245 883 3245 1325 
Q 3245 1766 2941 2028 
Q 2637 2291 2118 2291 
Q 1779 2291 1520 2163 
Q 1261 2035 1113 1811 
Q 966 1587 966 1312 
Q 966 1056 1104 838 
Q 1242 621 1510 486 
Q 1779 352 2150 352 
z
" transform="scale(0.015625)"/>
     </defs>
     <use xlink:href="#Montserrat-Regular-36"/>
    </g>
   </g>
   <g id="text_18">
    <!-- 5 -->
    <g style="fill: #1f77b4; opacity: 0.65" transform="translate(307.73034 147.280634)scale(0.07 -0.07)">
     <use xlink:href="#Montserrat-Regular-35"/>
    </g>
   </g>
   <g id="text_19">
    <!-- 2 -->
    <g style="fill: #1f77b4; opacity: 0.65" transform="translate(352.858128 172.5482)scale(0.07 -0.07)">
     <use xlink:href="#Montserrat-Regular-32"/>
    </g>
   </g>
   <g id="text_20">
    <!-- 3 -->
    <g style="fill: #1f77b4; opacity: 0.65" transform="translate(398.006698 199.145637)scale(0.07 -0.07)">
     <use xlink:href="#Montserrat-Regular-33"/>
    </g>
   </g>
   <g id="text_21">
    <!-- 4 -->
    <g style="fill: #ff7f0e; opacity: 0.65" transform="translate(93.007078 197.815765)scale(0.07 -0.07)">
     <defs>
      <path id="Montserrat-Regular-34" d="M 4141 1178 
L 3245 1178 
L 3245 0 
L 2784 0 
L 2784 1178 
L 256 1178 
L 256 1510 
L 2630 4480 
L 3142 4480 
L 851 1587 
L 2797 1587 
L 2797 2624 
L 3245 2624 
L 3245 1587 
L 4141 1587 
L 4141 1178 
z
" transform="scale(0.015625)"/>
     </defs>
     <use xlink:href="#Montserrat-Regular-34"/>
    </g>
   </g>
   <g id="text_22">
    <!-- 9 -->
    <g style="fill: #ff7f0e; opacity: 0.65" transform="translate(138.323538 185.846919)scale(0.07 -0.07)">
     <defs>
      <path id="Montserrat-Regular-39" d="M 1728 4518 
Q 2618 4518 3091 3932 
Q 3565 3347 3565 2278 
Q 3565 1530 3309 1011 
Q 3053 493 2592 227 
Q 2131 -38 1517 -38 
Q 851 -38 454 205 
L 640 576 
Q 960 365 1510 365 
Q 2253 365 2675 835 
Q 3098 1306 3098 2202 
Q 3098 2368 3078 2566 
Q 2912 2202 2547 2000 
Q 2182 1798 1709 1798 
Q 1267 1798 924 1964 
Q 582 2131 390 2435 
Q 198 2739 198 3142 
Q 198 3552 396 3865 
Q 595 4179 944 4348 
Q 1293 4518 1728 4518 
z
M 1779 2189 
Q 2118 2189 2377 2317 
Q 2637 2445 2784 2669 
Q 2931 2893 2931 3168 
Q 2931 3424 2793 3641 
Q 2656 3859 2387 3993 
Q 2118 4128 1747 4128 
Q 1261 4128 957 3862 
Q 653 3597 653 3155 
Q 653 2714 957 2451 
Q 1261 2189 1779 2189 
z
" transform="scale(0.015625)"/>
     </defs>
     <use xlink:href="#Montserrat-Regular-39"/>
    </g>
   </g>
   <g id="text_23">
    <!-- 9 -->
    <g style="fill: #ff7f0e; opacity: 0.65" transform="translate(183.458435 161.909225)scale(0.07 -0.07)">
     <use xlink:href="#Montserrat-Regular-39"/>
    </g>
   </g>
   <g id="text_24">
    <!-- 19 -->
    <g style="fill: #ff7f0e; opacity: 0.65" transform="translate(227.330051 180.527431)scale(0.07 -0.07)">
     <use xlink:href="#Montserrat-Regular-31"/>
     <use xlink:href="#Montserrat-Regular-39" x="36.099991"/>
    </g>
   </g>
   <g id="text_25">
    <!-- 19 -->
    <g style="fill: #ff7f0e; opacity: 0.65" transform="translate(272.464949 179.197559)scale(0.07 -0.07)">
     <use xlink:href="#Montserrat-Regular-31"/>
     <use xlink:href="#Montserrat-Regular-39" x="36.099991"/>
    </g>
   </g>
   <g id="text_26">
    <!-- 15 -->
    <g style="fill: #ff7f0e; opacity: 0.65" transform="translate(317.750784 196.485894)scale(0.07 -0.07)">
     <use xlink:href="#Montserrat-Regular-31"/>
     <use xlink:href="#Montserrat-Regular-35" x="36.099991"/>
    </g>
   </g>
   <g id="text_27">
    <!-- 5 -->
    <g style="fill: #ff7f0e; opacity: 0.65" transform="translate(364.148962 173.878072)scale(0.07 -0.07)">
     <use xlink:href="#Montserrat-Regular-35"/>
    </g>
   </g>
   <g id="text_28">
    <!-- 5 -->
    <g style="fill: #ff7f0e; opacity: 0.65" transform="translate(409.28386 195.156022)scale(0.07 -0.07)">
     <use xlink:href="#Montserrat-Regular-35"/>
    </g>
   </g>
   <g id="text_29">
    <!-- 4 -->
    <g style="fill: #2ca02c; opacity: 0.65" transform="translate(104.290802 217.763843)scale(0.07 -0.07)">
     <use xlink:href="#Montserrat-Regular-34"/>
    </g>
   </g>
   <g id="text_30">
    <!-- 5 -->
    <g style="fill: #2ca02c; opacity: 0.65" transform="translate(149.7582 200.475509)scale(0.07 -0.07)">
     <use xlink:href="#Montserrat-Regular-35"/>
    </g>
   </g>
   <g id="text_31">
    <!-- 3 -->
    <g style="fill: #2ca02c; opacity: 0.65" transform="translate(194.89966 172.5482)scale(0.07 -0.07)">
     <use xlink:href="#Montserrat-Regular-33"/>
    </g>
   </g>
   <g id="text_32">
    <!-- 9 -->
    <g style="fill: #2ca02c; opacity: 0.65" transform="translate(239.877057 199.145637)scale(0.07 -0.07)">
     <use xlink:href="#Montserrat-Regular-39"/>
    </g>
   </g>
   <g id="text_33">
    <!-- 9 -->
    <g style="fill: #2ca02c; opacity: 0.65" transform="translate(285.011954 189.836534)scale(0.07 -0.07)">
     <use xlink:href="#Montserrat-Regular-39"/>
    </g>
   </g>
   <g id="text_34">
    <!-- 8 -->
    <g style="fill: #2ca02c; opacity: 0.65" transform="translate(330.04568 197.815765)scale(0.07 -0.07)">
     <defs>
      <path id="Montserrat-Regular-38" d="M 2899 2349 
Q 3322 2208 3549 1926 
Q 3776 1645 3776 1248 
Q 3776 858 3565 566 
Q 3354 275 2960 118 
Q 2566 -38 2035 -38 
Q 1229 -38 768 307 
Q 307 653 307 1248 
Q 307 1651 528 1929 
Q 749 2208 1171 2349 
Q 826 2483 646 2736 
Q 467 2989 467 3334 
Q 467 3878 892 4198 
Q 1318 4518 2035 4518 
Q 2509 4518 2864 4374 
Q 3219 4230 3417 3961 
Q 3616 3693 3616 3334 
Q 3616 2989 3430 2736 
Q 3245 2483 2899 2349 
z
M 928 3322 
Q 928 2950 1222 2732 
Q 1517 2515 2035 2515 
Q 2554 2515 2851 2732 
Q 3149 2950 3149 3315 
Q 3149 3693 2845 3910 
Q 2541 4128 2035 4128 
Q 1523 4128 1225 3910 
Q 928 3693 928 3322 
z
M 2035 352 
Q 2630 352 2966 595 
Q 3302 838 3302 1254 
Q 3302 1670 2966 1910 
Q 2630 2150 2035 2150 
Q 1446 2150 1110 1910 
Q 774 1670 774 1254 
Q 774 832 1107 592 
Q 1440 352 2035 352 
z
" transform="scale(0.015625)"/>
     </defs>
     <use xlink:href="#Montserrat-Regular-38"/>
    </g>
   </g>
   <g id="text_35">
    <!-- 2 -->
    <g style="fill: #2ca02c; opacity: 0.65" transform="translate(375.425577 213.774228)scale(0.07 -0.07)">
     <use xlink:href="#Montserrat-Regular-32"/>
    </g>
   </g>
   <g id="text_36">
    <!-- 3 -->
    <g style="fill: #2ca02c; opacity: 0.65" transform="translate(420.574146 235.052178)scale(0.07 -0.07)">
     <use xlink:href="#Montserrat-Regular-33"/>
    </g>
   </g>
   <g id="text_37">
    <!-- Impact of gratitute interventions -->
    <g transform="translate(115.187313 27.72)scale(0.168 -0.168)">
     <defs>
      <path id="Montserrat-Regular-49" d="M 730 4480 
L 1203 4480 
L 1203 0 
L 730 0 
L 730 4480 
z
" transform="scale(0.015625)"/>
     </defs>
     <use xlink:href="#Montserrat-Regular-49"/>
     <use xlink:href="#Montserrat-Regular-6d" x="30.199997"/>
     <use xlink:href="#Montserrat-Regular-70" x="136.299988"/>
     <use xlink:href="#Montserrat-Regular-61" x="204.099976"/>
     <use xlink:href="#Montserrat-Regular-63" x="263.09996"/>
     <use xlink:href="#Montserrat-Regular-74" x="319.399948"/>
     <use xlink:href="#Montserrat-Regular-20" x="359.999939"/>
     <use xlink:href="#Montserrat-Regular-6f" x="386.199936"/>
     <use xlink:href="#Montserrat-Regular-66" x="448.899933"/>
     <use xlink:href="#Montserrat-Regular-20" x="482.799927"/>
     <use xlink:href="#Montserrat-Regular-67" x="508.999924"/>
     <use xlink:href="#Montserrat-Regular-72" x="577.599915"/>
     <use xlink:href="#Montserrat-Regular-61" x="617.699905"/>
     <use xlink:href="#Montserrat-Regular-74" x="676.69989"/>
     <use xlink:href="#Montserrat-Regular-69" x="717.299881"/>
     <use xlink:href="#Montserrat-Regular-74" x="744.199875"/>
     <use xlink:href="#Montserrat-Regular-75" x="784.799866"/>
     <use xlink:href="#Montserrat-Regular-74" x="852.099854"/>
     <use xlink:href="#Montserrat-Regular-65" x="892.699844"/>
     <use xlink:href="#Montserrat-Regular-20" x="953.099838"/>
     <use xlink:href="#Montserrat-Regular-69" x="979.299835"/>
     <use xlink:href="#Montserrat-Regular-6e" x="1006.199829"/>
     <use xlink:href="#Montserrat-Regular-74" x="1073.899811"/>
     <use xlink:href="#Montserrat-Regular-65" x="1114.499802"/>
     <use xlink:href="#Montserrat-Regular-72" x="1174.899796"/>
     <use xlink:href="#Montserrat-Regular-76" x="1214.999786"/>
     <use xlink:href="#Montserrat-Regular-65" x="1269.199783"/>
     <use xlink:href="#Montserrat-Regular-6e" x="1329.599777"/>
     <use xlink:href="#Montserrat-Regular-74" x="1397.299759"/>
     <use xlink:href="#Montserrat-Regular-69" x="1437.89975"/>
     <use xlink:href="#Montserrat-Regular-6f" x="1464.799744"/>
     <use xlink:href="#Montserrat-Regular-6e" x="1527.499741"/>
     <use xlink:href="#Montserrat-Regular-73" x="1595.199722"/>
    </g>
   </g>
   <g id="legend_1">
    <g id="patch_31">
     <path d="M 188.217812 56.708438 
L 216.217812 56.708438 
L 216.217812 46.908438 
L 188.217812 46.908438 
z
" style="fill: #1f77b4"/>
    </g>
    <g id="text_38">
     <!-- gratitude vs. negative control -->
     <g transform="translate(227.417812 56.708438)scale(0.14 -0.14)">
      <use xlink:href="#Montserrat-Regular-67"/>
      <use xlink:href="#Montserrat-Regular-72" x="68.599991"/>
      <use xlink:href="#Montserrat-Regular-61" x="108.699982"/>
      <use xlink:href="#Montserrat-Regular-74" x="167.699966"/>
      <use xlink:href="#Montserrat-Regular-69" x="208.299957"/>
      <use xlink:href="#Montserrat-Regular-74" x="235.199951"/>
      <use xlink:href="#Montserrat-Regular-75" x="275.799942"/>
      <use xlink:href="#Montserrat-Regular-64" x="343.09993"/>
      <use xlink:href="#Montserrat-Regular-65" x="410.899918"/>
      <use xlink:href="#Montserrat-Regular-20" x="471.299911"/>
      <use xlink:href="#Montserrat-Regular-76" x="497.499908"/>
      <use xlink:href="#Montserrat-Regular-73" x="551.699905"/>
      <use xlink:href="#Montserrat-Regular-2e" x="600.599899"/>
      <use xlink:href="#Montserrat-Regular-20" x="621.799896"/>
      <use xlink:href="#Montserrat-Regular-6e" x="647.999893"/>
      <use xlink:href="#Montserrat-Regular-65" x="715.699875"/>
      <use xlink:href="#Montserrat-Regular-67" x="776.099869"/>
      <use xlink:href="#Montserrat-Regular-61" x="844.69986"/>
      <use xlink:href="#Montserrat-Regular-74" x="903.699844"/>
      <use xlink:href="#Montserrat-Regular-69" x="944.299835"/>
      <use xlink:href="#Montserrat-Regular-76" x="971.199829"/>
      <use xlink:href="#Montserrat-Regular-65" x="1025.399826"/>
      <use xlink:href="#Montserrat-Regular-20" x="1085.79982"/>
      <use xlink:href="#Montserrat-Regular-63" x="1111.999817"/>
      <use xlink:href="#Montserrat-Regular-6f" x="1168.299805"/>
      <use xlink:href="#Montserrat-Regular-6e" x="1230.999802"/>
      <use xlink:href="#Montserrat-Regular-74" x="1298.699783"/>
      <use xlink:href="#Montserrat-Regular-72" x="1339.299774"/>
      <use xlink:href="#Montserrat-Regular-6f" x="1379.399765"/>
      <use xlink:href="#Montserrat-Regular-6c" x="1442.099762"/>
     </g>
    </g>
    <g id="patch_32">
     <path d="M 188.217812 76.88375 
L 216.217812 76.88375 
L 216.217812 67.08375 
L 188.217812 67.08375 
z
" style="fill: #ff7f0e"/>
    </g>
    <g id="text_39">
     <!-- gratitude vs. neutral control -->
     <g transform="translate(227.417812 76.88375)scale(0.14 -0.14)">
      <use xlink:href="#Montserrat-Regular-67"/>
      <use xlink:href="#Montserrat-Regular-72" x="68.599991"/>
      <use xlink:href="#Montserrat-Regular-61" x="108.699982"/>
      <use xlink:href="#Montserrat-Regular-74" x="167.699966"/>
      <use xlink:href="#Montserrat-Regular-69" x="208.299957"/>
      <use xlink:href="#Montserrat-Regular-74" x="235.199951"/>
      <use xlink:href="#Montserrat-Regular-75" x="275.799942"/>
      <use xlink:href="#Montserrat-Regular-64" x="343.09993"/>
      <use xlink:href="#Montserrat-Regular-65" x="410.899918"/>
      <use xlink:href="#Montserrat-Regular-20" x="471.299911"/>
      <use xlink:href="#Montserrat-Regular-76" x="497.499908"/>
      <use xlink:href="#Montserrat-Regular-73" x="551.699905"/>
      <use xlink:href="#Montserrat-Regular-2e" x="600.599899"/>
      <use xlink:href="#Montserrat-Regular-20" x="621.799896"/>
      <use xlink:href="#Montserrat-Regular-6e" x="647.999893"/>
      <use xlink:href="#Montserrat-Regular-65" x="715.699875"/>
      <use xlink:href="#Montserrat-Regular-75" x="776.099869"/>
      <use xlink:href="#Montserrat-Regular-74" x="843.399857"/>
      <use xlink:href="#Montserrat-Regular-72" x="883.999847"/>
      <use xlink:href="#Montserrat-Regular-61" x="924.099838"/>
      <use xlink:href="#Montserrat-Regular-6c" x="983.099823"/>
      <use xlink:href="#Montserrat-Regular-20" x="1009.999817"/>
      <use xlink:href="#Montserrat-Regular-63" x="1036.199814"/>
      <use xlink:href="#Montserrat-Regular-6f" x="1092.499802"/>
      <use xlink:href="#Montserrat-Regular-6e" x="1155.199799"/>
      <use xlink:href="#Montserrat-Regular-74" x="1222.89978"/>
      <use xlink:href="#Montserrat-Regular-72" x="1263.499771"/>
      <use xlink:href="#Montserrat-Regular-6f" x="1303.599762"/>
      <use xlink:href="#Montserrat-Regular-6c" x="1366.299759"/>
     </g>
    </g>
    <g id="patch_33">
     <path d="M 188.217812 97.059063 
L 216.217812 97.059063 
L 216.217812 87.259063 
L 188.217812 87.259063 
z
" style="fill: #2ca02c"/>
    </g>
    <g id="text_40">
     <!-- gratitude vs. positive control -->
     <g transform="translate(227.417812 97.059063)scale(0.14 -0.14)">
      <use xlink:href="#Montserrat-Regular-67"/>
      <use xlink:href="#Montserrat-Regular-72" x="68.599991"/>
      <use xlink:href="#Montserrat-Regular-61" x="108.699982"/>
      <use xlink:href="#Montserrat-Regular-74" x="167.699966"/>
      <use xlink:href="#Montserrat-Regular-69" x="208.299957"/>
      <use xlink:href="#Montserrat-Regular-74" x="235.199951"/>
      <use xlink:href="#Montserrat-Regular-75" x="275.799942"/>
      <use xlink:href="#Montserrat-Regular-64" x="343.09993"/>
      <use xlink:href="#Montserrat-Regular-65" x="410.899918"/>
      <use xlink:href="#Montserrat-Regular-20" x="471.299911"/>
      <use xlink:href="#Montserrat-Regular-76" x="497.499908"/>
      <use xlink:href="#Montserrat-Regular-73" x="551.699905"/>
      <use xlink:href="#Montserrat-Regular-2e" x="600.599899"/>
      <use xlink:href="#Montserrat-Regular-20" x="621.799896"/>
      <use xlink:href="#Montserrat-Regular-70" x="647.999893"/>
      <use xlink:href="#Montserrat-Regular-6f" x="715.799881"/>
      <use xlink:href="#Montserrat-Regular-73" x="778.499878"/>
      <use xlink:href="#Montserrat-Regular-69" x="827.399872"/>
      <use xlink:href="#Montserrat-Regular-74" x="854.299866"/>
      <use xlink:href="#Montserrat-Regular-69" x="894.899857"/>
      <use xlink:href="#Montserrat-Regular-76" x="921.79985"/>
      <use xlink:href="#Montserrat-Regular-65" x="975.999847"/>
      <use xlink:href="#Montserrat-Regular-20" x="1036.399841"/>
      <use xlink:href="#Montserrat-Regular-63" x="1062.599838"/>
      <use xlink:href="#Montserrat-Regular-6f" x="1118.899826"/>
      <use xlink:href="#Montserrat-Regular-6e" x="1181.599823"/>
      <use xlink:href="#Montserrat-Regular-74" x="1249.299805"/>
      <use xlink:href="#Montserrat-Regular-72" x="1289.899796"/>
      <use xlink:href="#Montserrat-Regular-6f" x="1329.999786"/>
      <use xlink:href="#Montserrat-Regular-6c" x="1392.699783"/>
     </g>
    </g>
   </g>
  </g>
  <g id="text_41">
   <!-- Data from "Using Gratitude to -->
   <g style="fill: #808080; opacity: 0.7" transform="translate(4.608 333.617812)scale(0.06 -0.06)">
    <defs>
     <path id="DejaVuSansMono-44" d="M 1363 519 
Q 2159 519 2475 911 
Q 2791 1303 2791 2328 
Q 2791 3363 2477 3755 
Q 2163 4147 1363 4147 
L 1063 4147 
L 1063 519 
L 1363 519 
z
M 1375 4666 
Q 2444 4666 2950 4097 
Q 3456 3528 3456 2328 
Q 3456 1134 2950 567 
Q 2444 0 1375 0 
L 428 0 
L 428 4666 
L 1375 4666 
z
" transform="scale(0.015625)"/>
     <path id="DejaVuSansMono-61" d="M 2194 1759 
L 2003 1759 
Q 1500 1759 1245 1582 
Q 991 1406 991 1056 
Q 991 741 1181 566 
Q 1372 391 1709 391 
Q 2184 391 2456 720 
Q 2728 1050 2731 1631 
L 2731 1759 
L 2194 1759 
z
M 3309 1997 
L 3309 0 
L 2731 0 
L 2731 519 
Q 2547 206 2267 57 
Q 1988 -91 1588 -91 
Q 1053 -91 734 211 
Q 416 513 416 1019 
Q 416 1603 808 1906 
Q 1200 2209 1959 2209 
L 2731 2209 
L 2731 2300 
Q 2728 2719 2518 2908 
Q 2309 3097 1850 3097 
Q 1556 3097 1256 3012 
Q 956 2928 672 2766 
L 672 3341 
Q 991 3463 1283 3523 
Q 1575 3584 1850 3584 
Q 2284 3584 2592 3456 
Q 2900 3328 3091 3072 
Q 3209 2916 3259 2686 
Q 3309 2456 3309 1997 
z
" transform="scale(0.015625)"/>
     <path id="DejaVuSansMono-74" d="M 1919 4494 
L 1919 3500 
L 3225 3500 
L 3225 3053 
L 1919 3053 
L 1919 1153 
Q 1919 766 2066 612 
Q 2213 459 2578 459 
L 3225 459 
L 3225 0 
L 2522 0 
Q 1875 0 1609 259 
Q 1344 519 1344 1153 
L 1344 3053 
L 409 3053 
L 409 3500 
L 1344 3500 
L 1344 4494 
L 1919 4494 
z
" transform="scale(0.015625)"/>
     <path id="DejaVuSansMono-20" transform="scale(0.015625)"/>
     <path id="DejaVuSansMono-66" d="M 3322 4863 
L 3322 4384 
L 2669 4384 
Q 2359 4384 2239 4257 
Q 2119 4131 2119 3809 
L 2119 3500 
L 3322 3500 
L 3322 3053 
L 2119 3053 
L 2119 0 
L 1544 0 
L 1544 3053 
L 609 3053 
L 609 3500 
L 1544 3500 
L 1544 3744 
Q 1544 4319 1808 4591 
Q 2072 4863 2631 4863 
L 3322 4863 
z
" transform="scale(0.015625)"/>
     <path id="DejaVuSansMono-72" d="M 3609 2778 
Q 3425 2922 3234 2987 
Q 3044 3053 2816 3053 
Q 2278 3053 1993 2715 
Q 1709 2378 1709 1741 
L 1709 0 
L 1131 0 
L 1131 3500 
L 1709 3500 
L 1709 2816 
Q 1853 3188 2151 3386 
Q 2450 3584 2859 3584 
Q 3072 3584 3256 3531 
Q 3441 3478 3609 3366 
L 3609 2778 
z
" transform="scale(0.015625)"/>
     <path id="DejaVuSansMono-6f" d="M 1925 3097 
Q 1488 3097 1263 2756 
Q 1038 2416 1038 1747 
Q 1038 1081 1263 739 
Q 1488 397 1925 397 
Q 2366 397 2591 739 
Q 2816 1081 2816 1747 
Q 2816 2416 2591 2756 
Q 2366 3097 1925 3097 
z
M 1925 3584 
Q 2653 3584 3039 3112 
Q 3425 2641 3425 1747 
Q 3425 850 3040 379 
Q 2656 -91 1925 -91 
Q 1197 -91 812 379 
Q 428 850 428 1747 
Q 428 2641 812 3112 
Q 1197 3584 1925 3584 
z
" transform="scale(0.015625)"/>
     <path id="DejaVuSansMono-6d" d="M 2113 3144 
Q 2219 3369 2383 3476 
Q 2547 3584 2778 3584 
Q 3200 3584 3373 3257 
Q 3547 2931 3547 2028 
L 3547 0 
L 3022 0 
L 3022 2003 
Q 3022 2744 2939 2923 
Q 2856 3103 2638 3103 
Q 2388 3103 2295 2911 
Q 2203 2719 2203 2003 
L 2203 0 
L 1678 0 
L 1678 2003 
Q 1678 2753 1589 2928 
Q 1500 3103 1269 3103 
Q 1041 3103 952 2911 
Q 863 2719 863 2003 
L 863 0 
L 341 0 
L 341 3500 
L 863 3500 
L 863 3200 
Q 966 3388 1120 3486 
Q 1275 3584 1472 3584 
Q 1709 3584 1867 3475 
Q 2025 3366 2113 3144 
z
" transform="scale(0.015625)"/>
     <path id="DejaVuSansMono-22" d="M 2797 4666 
L 2797 2931 
L 2253 2931 
L 2253 4666 
L 2797 4666 
z
M 1600 4666 
L 1600 2931 
L 1056 2931 
L 1056 4666 
L 1600 4666 
z
" transform="scale(0.015625)"/>
     <path id="DejaVuSansMono-55" d="M 459 1791 
L 459 4666 
L 1094 4666 
L 1094 1503 
Q 1094 1163 1112 1017 
Q 1131 872 1178 794 
Q 1278 609 1467 515 
Q 1656 422 1925 422 
Q 2197 422 2384 515 
Q 2572 609 2675 794 
Q 2722 872 2740 1015 
Q 2759 1159 2759 1497 
L 2759 4666 
L 3391 4666 
L 3391 1791 
Q 3391 1075 3302 773 
Q 3213 472 2994 275 
Q 2788 91 2522 0 
Q 2256 -91 1925 -91 
Q 1597 -91 1331 0 
Q 1066 91 856 275 
Q 641 469 550 776 
Q 459 1084 459 1791 
z
" transform="scale(0.015625)"/>
     <path id="DejaVuSansMono-73" d="M 3041 3378 
L 3041 2816 
Q 2794 2959 2544 3031 
Q 2294 3103 2034 3103 
Q 1644 3103 1451 2976 
Q 1259 2850 1259 2591 
Q 1259 2356 1403 2240 
Q 1547 2125 2119 2016 
L 2350 1972 
Q 2778 1891 2998 1647 
Q 3219 1403 3219 1013 
Q 3219 494 2850 201 
Q 2481 -91 1825 -91 
Q 1566 -91 1281 -36 
Q 997 19 666 128 
L 666 722 
Q 988 556 1281 473 
Q 1575 391 1838 391 
Q 2219 391 2428 545 
Q 2638 700 2638 978 
Q 2638 1378 1872 1531 
L 1847 1538 
L 1631 1581 
Q 1134 1678 906 1908 
Q 678 2138 678 2534 
Q 678 3038 1018 3311 
Q 1359 3584 1991 3584 
Q 2272 3584 2531 3532 
Q 2791 3481 3041 3378 
z
" transform="scale(0.015625)"/>
     <path id="DejaVuSansMono-69" d="M 800 3500 
L 2272 3500 
L 2272 447 
L 3413 447 
L 3413 0 
L 556 0 
L 556 447 
L 1697 447 
L 1697 3053 
L 800 3053 
L 800 3500 
z
M 1697 4863 
L 2272 4863 
L 2272 4134 
L 1697 4134 
L 1697 4863 
z
" transform="scale(0.015625)"/>
     <path id="DejaVuSansMono-6e" d="M 3284 2169 
L 3284 0 
L 2706 0 
L 2706 2169 
Q 2706 2641 2540 2862 
Q 2375 3084 2022 3084 
Q 1619 3084 1401 2798 
Q 1184 2513 1184 1978 
L 1184 0 
L 609 0 
L 609 3500 
L 1184 3500 
L 1184 2975 
Q 1338 3275 1600 3429 
Q 1863 3584 2222 3584 
Q 2756 3584 3020 3232 
Q 3284 2881 3284 2169 
z
" transform="scale(0.015625)"/>
     <path id="DejaVuSansMono-67" d="M 2681 1778 
Q 2681 2425 2470 2761 
Q 2259 3097 1856 3097 
Q 1434 3097 1212 2761 
Q 991 2425 991 1778 
Q 991 1131 1214 792 
Q 1438 453 1863 453 
Q 2259 453 2470 793 
Q 2681 1134 2681 1778 
z
M 3256 225 
Q 3256 -563 2884 -969 
Q 2513 -1375 1791 -1375 
Q 1553 -1375 1293 -1331 
Q 1034 -1288 775 -1203 
L 775 -634 
Q 1081 -778 1331 -847 
Q 1581 -916 1791 -916 
Q 2256 -916 2468 -662 
Q 2681 -409 2681 141 
L 2681 166 
L 2681 556 
Q 2544 263 2306 119 
Q 2069 -25 1728 -25 
Q 1116 -25 750 465 
Q 384 956 384 1778 
Q 384 2603 750 3093 
Q 1116 3584 1728 3584 
Q 2066 3584 2300 3450 
Q 2534 3316 2681 3034 
L 2681 3488 
L 3256 3488 
L 3256 225 
z
" transform="scale(0.015625)"/>
     <path id="DejaVuSansMono-47" d="M 3450 384 
Q 3197 150 2880 29 
Q 2563 -91 2194 -91 
Q 1306 -91 812 545 
Q 319 1181 319 2328 
Q 319 3472 819 4111 
Q 1319 4750 2209 4750 
Q 2503 4750 2772 4667 
Q 3041 4584 3291 4416 
L 3291 3769 
Q 3038 4009 2772 4123 
Q 2506 4238 2209 4238 
Q 1594 4238 1286 3761 
Q 978 3284 978 2328 
Q 978 1356 1276 889 
Q 1575 422 2194 422 
Q 2403 422 2561 470 
Q 2719 519 2847 622 
L 2847 1875 
L 2169 1875 
L 2169 2394 
L 3450 2394 
L 3450 384 
z
" transform="scale(0.015625)"/>
     <path id="DejaVuSansMono-75" d="M 609 1325 
L 609 3494 
L 1184 3494 
L 1184 1325 
Q 1184 853 1351 631 
Q 1519 409 1869 409 
Q 2275 409 2490 695 
Q 2706 981 2706 1516 
L 2706 3494 
L 3284 3494 
L 3284 0 
L 2706 0 
L 2706 525 
Q 2553 222 2289 65 
Q 2025 -91 1672 -91 
Q 1134 -91 871 261 
Q 609 613 609 1325 
z
" transform="scale(0.015625)"/>
     <path id="DejaVuSansMono-64" d="M 2681 3053 
L 2681 4863 
L 3256 4863 
L 3256 0 
L 2681 0 
L 2681 441 
Q 2538 181 2298 45 
Q 2059 -91 1747 -91 
Q 1113 -91 748 401 
Q 384 894 384 1759 
Q 384 2613 750 3098 
Q 1116 3584 1747 3584 
Q 2063 3584 2303 3448 
Q 2544 3313 2681 3053 
z
M 991 1747 
Q 991 1078 1203 737 
Q 1416 397 1831 397 
Q 2247 397 2464 740 
Q 2681 1084 2681 1747 
Q 2681 2413 2464 2755 
Q 2247 3097 1831 3097 
Q 1416 3097 1203 2756 
Q 991 2416 991 1747 
z
" transform="scale(0.015625)"/>
     <path id="DejaVuSansMono-65" d="M 3475 1894 
L 3475 1613 
L 984 1613 
L 984 1594 
Q 984 1022 1282 709 
Q 1581 397 2125 397 
Q 2400 397 2700 484 
Q 3000 572 3341 750 
L 3341 178 
Q 3013 44 2708 -23 
Q 2403 -91 2119 -91 
Q 1303 -91 843 398 
Q 384 888 384 1747 
Q 384 2584 834 3084 
Q 1284 3584 2034 3584 
Q 2703 3584 3089 3131 
Q 3475 2678 3475 1894 
z
M 2900 2063 
Q 2888 2569 2661 2833 
Q 2434 3097 2009 3097 
Q 1594 3097 1325 2822 
Q 1056 2547 1006 2059 
L 2900 2063 
z
" transform="scale(0.015625)"/>
    </defs>
    <use xlink:href="#DejaVuSansMono-44"/>
    <use xlink:href="#DejaVuSansMono-61" x="60.205078"/>
    <use xlink:href="#DejaVuSansMono-74" x="120.410156"/>
    <use xlink:href="#DejaVuSansMono-61" x="180.615234"/>
    <use xlink:href="#DejaVuSansMono-20" x="240.820312"/>
    <use xlink:href="#DejaVuSansMono-66" x="301.025391"/>
    <use xlink:href="#DejaVuSansMono-72" x="361.230469"/>
    <use xlink:href="#DejaVuSansMono-6f" x="421.435547"/>
    <use xlink:href="#DejaVuSansMono-6d" x="481.640625"/>
    <use xlink:href="#DejaVuSansMono-20" x="541.845703"/>
    <use xlink:href="#DejaVuSansMono-22" x="602.050781"/>
    <use xlink:href="#DejaVuSansMono-55" x="662.255859"/>
    <use xlink:href="#DejaVuSansMono-73" x="722.460938"/>
    <use xlink:href="#DejaVuSansMono-69" x="782.666016"/>
    <use xlink:href="#DejaVuSansMono-6e" x="842.871094"/>
    <use xlink:href="#DejaVuSansMono-67" x="903.076172"/>
    <use xlink:href="#DejaVuSansMono-20" x="963.28125"/>
    <use xlink:href="#DejaVuSansMono-47" x="1023.486328"/>
    <use xlink:href="#DejaVuSansMono-72" x="1083.691406"/>
    <use xlink:href="#DejaVuSansMono-61" x="1143.896484"/>
    <use xlink:href="#DejaVuSansMono-74" x="1204.101562"/>
    <use xlink:href="#DejaVuSansMono-69" x="1264.306641"/>
    <use xlink:href="#DejaVuSansMono-74" x="1324.511719"/>
    <use xlink:href="#DejaVuSansMono-75" x="1384.716797"/>
    <use xlink:href="#DejaVuSansMono-64" x="1444.921875"/>
    <use xlink:href="#DejaVuSansMono-65" x="1505.126953"/>
    <use xlink:href="#DejaVuSansMono-20" x="1565.332031"/>
    <use xlink:href="#DejaVuSansMono-74" x="1625.537109"/>
    <use xlink:href="#DejaVuSansMono-6f" x="1685.742188"/>
   </g>
   <!-- Promote Positive Change", Dickens, 2017 -->
   <g style="fill: #808080; opacity: 0.7" transform="translate(4.608 340.416)scale(0.06 -0.06)">
    <defs>
     <path id="DejaVuSansMono-50" d="M 1247 4147 
L 1247 2394 
L 1978 2394 
Q 2416 2394 2661 2625 
Q 2906 2856 2906 3272 
Q 2906 3688 2662 3917 
Q 2419 4147 1978 4147 
L 1247 4147 
z
M 616 4666 
L 1978 4666 
Q 2759 4666 3162 4311 
Q 3566 3956 3566 3272 
Q 3566 2581 3164 2228 
Q 2763 1875 1978 1875 
L 1247 1875 
L 1247 0 
L 616 0 
L 616 4666 
z
" transform="scale(0.015625)"/>
     <path id="DejaVuSansMono-76" d="M 313 3500 
L 909 3500 
L 1925 563 
L 2944 3500 
L 3541 3500 
L 2297 0 
L 1556 0 
L 313 3500 
z
" transform="scale(0.015625)"/>
     <path id="DejaVuSansMono-43" d="M 3353 166 
Q 3113 38 2859 -26 
Q 2606 -91 2322 -91 
Q 1425 -91 929 543 
Q 434 1178 434 2328 
Q 434 3472 932 4111 
Q 1431 4750 2322 4750 
Q 2606 4750 2859 4686 
Q 3113 4622 3353 4494 
L 3353 3847 
Q 3122 4038 2856 4138 
Q 2591 4238 2322 4238 
Q 1706 4238 1400 3763 
Q 1094 3288 1094 2328 
Q 1094 1372 1400 897 
Q 1706 422 2322 422 
Q 2597 422 2861 522 
Q 3125 622 3353 813 
L 3353 166 
z
" transform="scale(0.015625)"/>
     <path id="DejaVuSansMono-68" d="M 3284 2169 
L 3284 0 
L 2706 0 
L 2706 2169 
Q 2706 2641 2540 2862 
Q 2375 3084 2022 3084 
Q 1619 3084 1401 2798 
Q 1184 2513 1184 1978 
L 1184 0 
L 609 0 
L 609 4863 
L 1184 4863 
L 1184 2975 
Q 1338 3275 1600 3429 
Q 1863 3584 2222 3584 
Q 2756 3584 3020 3232 
Q 3284 2881 3284 2169 
z
" transform="scale(0.015625)"/>
     <path id="DejaVuSansMono-2c" d="M 1569 947 
L 2356 947 
L 2356 300 
L 1741 -897 
L 1259 -897 
L 1569 300 
L 1569 947 
z
" transform="scale(0.015625)"/>
     <path id="DejaVuSansMono-63" d="M 3316 178 
Q 3084 44 2839 -23 
Q 2594 -91 2338 -91 
Q 1525 -91 1067 396 
Q 609 884 609 1747 
Q 609 2609 1067 3096 
Q 1525 3584 2338 3584 
Q 2591 3584 2831 3518 
Q 3072 3453 3316 3316 
L 3316 2713 
Q 3088 2916 2858 3006 
Q 2628 3097 2338 3097 
Q 1797 3097 1506 2747 
Q 1216 2397 1216 1747 
Q 1216 1100 1508 748 
Q 1800 397 2338 397 
Q 2638 397 2875 489 
Q 3113 581 3316 775 
L 3316 178 
z
" transform="scale(0.015625)"/>
     <path id="DejaVuSansMono-6b" d="M 738 4863 
L 1331 4863 
L 1331 2047 
L 2841 3500 
L 3541 3500 
L 2163 2181 
L 3756 0 
L 3053 0 
L 1759 1806 
L 1331 1403 
L 1331 0 
L 738 0 
L 738 4863 
z
" transform="scale(0.015625)"/>
     <path id="DejaVuSansMono-32" d="M 1166 531 
L 3309 531 
L 3309 0 
L 475 0 
L 475 531 
Q 1059 1147 1496 1619 
Q 1934 2091 2100 2284 
Q 2413 2666 2522 2902 
Q 2631 3138 2631 3384 
Q 2631 3775 2401 3997 
Q 2172 4219 1772 4219 
Q 1488 4219 1175 4116 
Q 863 4013 513 3803 
L 513 4441 
Q 834 4594 1145 4672 
Q 1456 4750 1759 4750 
Q 2444 4750 2861 4386 
Q 3278 4022 3278 3431 
Q 3278 3131 3139 2831 
Q 3000 2531 2688 2169 
Q 2513 1966 2180 1606 
Q 1847 1247 1166 531 
z
" transform="scale(0.015625)"/>
     <path id="DejaVuSansMono-30" d="M 1509 2344 
Q 1509 2516 1629 2641 
Q 1750 2766 1919 2766 
Q 2094 2766 2219 2641 
Q 2344 2516 2344 2344 
Q 2344 2169 2220 2047 
Q 2097 1925 1919 1925 
Q 1744 1925 1626 2044 
Q 1509 2163 1509 2344 
z
M 1925 4250 
Q 1484 4250 1267 3775 
Q 1050 3300 1050 2328 
Q 1050 1359 1267 884 
Q 1484 409 1925 409 
Q 2369 409 2586 884 
Q 2803 1359 2803 2328 
Q 2803 3300 2586 3775 
Q 2369 4250 1925 4250 
z
M 1925 4750 
Q 2672 4750 3055 4137 
Q 3438 3525 3438 2328 
Q 3438 1134 3055 521 
Q 2672 -91 1925 -91 
Q 1178 -91 797 521 
Q 416 1134 416 2328 
Q 416 3525 797 4137 
Q 1178 4750 1925 4750 
z
" transform="scale(0.015625)"/>
     <path id="DejaVuSansMono-31" d="M 844 531 
L 1825 531 
L 1825 4097 
L 769 3859 
L 769 4434 
L 1819 4666 
L 2450 4666 
L 2450 531 
L 3419 531 
L 3419 0 
L 844 0 
L 844 531 
z
" transform="scale(0.015625)"/>
     <path id="DejaVuSansMono-37" d="M 434 4666 
L 3372 4666 
L 3372 4397 
L 1703 0 
L 1044 0 
L 2669 4134 
L 434 4134 
L 434 4666 
z
" transform="scale(0.015625)"/>
    </defs>
    <use xlink:href="#DejaVuSansMono-50"/>
    <use xlink:href="#DejaVuSansMono-72" x="60.205078"/>
    <use xlink:href="#DejaVuSansMono-6f" x="120.410156"/>
    <use xlink:href="#DejaVuSansMono-6d" x="180.615234"/>
    <use xlink:href="#DejaVuSansMono-6f" x="240.820312"/>
    <use xlink:href="#DejaVuSansMono-74" x="301.025391"/>
    <use xlink:href="#DejaVuSansMono-65" x="361.230469"/>
    <use xlink:href="#DejaVuSansMono-20" x="421.435547"/>
    <use xlink:href="#DejaVuSansMono-50" x="481.640625"/>
    <use xlink:href="#DejaVuSansMono-6f" x="541.845703"/>
    <use xlink:href="#DejaVuSansMono-73" x="602.050781"/>
    <use xlink:href="#DejaVuSansMono-69" x="662.255859"/>
    <use xlink:href="#DejaVuSansMono-74" x="722.460938"/>
    <use xlink:href="#DejaVuSansMono-69" x="782.666016"/>
    <use xlink:href="#DejaVuSansMono-76" x="842.871094"/>
    <use xlink:href="#DejaVuSansMono-65" x="903.076172"/>
    <use xlink:href="#DejaVuSansMono-20" x="963.28125"/>
    <use xlink:href="#DejaVuSansMono-43" x="1023.486328"/>
    <use xlink:href="#DejaVuSansMono-68" x="1083.691406"/>
    <use xlink:href="#DejaVuSansMono-61" x="1143.896484"/>
    <use xlink:href="#DejaVuSansMono-6e" x="1204.101562"/>
    <use xlink:href="#DejaVuSansMono-67" x="1264.306641"/>
    <use xlink:href="#DejaVuSansMono-65" x="1324.511719"/>
    <use xlink:href="#DejaVuSansMono-22" x="1384.716797"/>
    <use xlink:href="#DejaVuSansMono-2c" x="1444.921875"/>
    <use xlink:href="#DejaVuSansMono-20" x="1505.126953"/>
    <use xlink:href="#DejaVuSansMono-44" x="1565.332031"/>
    <use xlink:href="#DejaVuSansMono-69" x="1625.537109"/>
    <use xlink:href="#DejaVuSansMono-63" x="1685.742188"/>
    <use xlink:href="#DejaVuSansMono-6b" x="1745.947266"/>
    <use xlink:href="#DejaVuSansMono-65" x="1806.152344"/>
    <use xlink:href="#DejaVuSansMono-6e" x="1866.357422"/>
    <use xlink:href="#DejaVuSansMono-73" x="1926.5625"/>
    <use xlink:href="#DejaVuSansMono-2c" x="1986.767578"/>
    <use xlink:href="#DejaVuSansMono-20" x="2046.972656"/>
    <use xlink:href="#DejaVuSansMono-32" x="2107.177734"/>
    <use xlink:href="#DejaVuSansMono-30" x="2167.382812"/>
    <use xlink:href="#DejaVuSansMono-31" x="2227.587891"/>
    <use xlink:href="#DejaVuSansMono-37" x="2287.792969"/>
   </g>
  </g>
  <g id="text_42">
   <g id="patch_34">
    <a xlink:href="https://dynomight.net">
     <path d="M 383.052 247.229062 
L 438.050437 247.229062 
L 438.050437 233.340937 
L 383.052 233.340937 
L 383.052 247.229062 
z
" style="fill: none; opacity: 0"/>
    </a>
   </g>
   <a xlink:href="https://dynomight.net">
    <!-- dynomight.net -->
    <g style="opacity: 0.25" transform="translate(387.072 241.92)scale(0.06 -0.06)">
     <defs>
      <path id="DejaVuSansMono-79" d="M 2681 1125 
Q 2538 759 2316 163 
Q 2006 -663 1900 -844 
Q 1756 -1088 1540 -1209 
Q 1325 -1331 1038 -1331 
L 575 -1331 
L 575 -850 
L 916 -850 
Q 1169 -850 1312 -703 
Q 1456 -556 1678 56 
L 325 3500 
L 934 3500 
L 1972 763 
L 2994 3500 
L 3603 3500 
L 2681 1125 
z
" transform="scale(0.015625)"/>
      <path id="DejaVuSansMono-2e" d="M 1528 953 
L 2316 953 
L 2316 0 
L 1528 0 
L 1528 953 
z
" transform="scale(0.015625)"/>
     </defs>
     <use xlink:href="#DejaVuSansMono-64"/>
     <use xlink:href="#DejaVuSansMono-79" x="60.205078"/>
     <use xlink:href="#DejaVuSansMono-6e" x="120.410156"/>
     <use xlink:href="#DejaVuSansMono-6f" x="180.615234"/>
     <use xlink:href="#DejaVuSansMono-6d" x="240.820312"/>
     <use xlink:href="#DejaVuSansMono-69" x="301.025391"/>
     <use xlink:href="#DejaVuSansMono-67" x="361.230469"/>
     <use xlink:href="#DejaVuSansMono-68" x="421.435547"/>
     <use xlink:href="#DejaVuSansMono-74" x="481.640625"/>
     <use xlink:href="#DejaVuSansMono-2e" x="541.845703"/>
     <use xlink:href="#DejaVuSansMono-6e" x="602.050781"/>
     <use xlink:href="#DejaVuSansMono-65" x="662.255859"/>
     <use xlink:href="#DejaVuSansMono-74" x="722.460938"/>
    </g>
   </a>
  </g>
 </g>
 <defs>
  <clipPath id="p87142bdf88">
   <rect x="60.905" y="33.72" width="384.775" height="203.337409"/>
  </clipPath>
 </defs>
</svg>
