<svg xmlns="http://www.w3.org/2000/svg" xmlns:xlink="http://www.w3.org/1999/xlink" width="732" height="148pt" viewBox="0 0 549 148"><defs><symbol overflow="visible" id="a"><path style="stroke:none" d="M1.5-2.5h1.9c.9 0 1 .6 1 1L4.5 0h1v-.1c-.3-.2-.3-.3-.3-.6v-1c0-.8-.4-1-.7-1.1.3-.2.8-.6.8-1.4 0-1.2-1-1.5-2-1.5H.8V0h.8Zm0-2.6h2c.3 0 1 0 1 1 0 .8-.7 1-1.2 1H1.5Zm0 0"/></symbol><symbol overflow="visible" id="b"><path style="stroke:none" d="M5-.7H1.4v-2h3.1v-.6H1.5v-1.8h3.4v-.7H.7V0h4.2Zm0 0"/></symbol><symbol overflow="visible" id="c"><path style="stroke:none" d="M4.8-4c0-.7-.2-1.9-2.2-1.9-1.4 0-2 .9-2 1.8 0 1 .8 1.2 1.2 1.3l1.2.3c1 .2 1.2.4 1.2 1 0 .8-1 1-1.5 1C2-.5 1.1-.8 1.1-2H.4c0 .6 0 1 .6 1.5.2.2.6.5 1.7.5C3.7.1 5-.2 5-1.6c0-.9-.6-1.3-1.3-1.5L2-3.5c-.3 0-.7-.2-.7-.7 0-.9.9-1 1.3-1 .7 0 1.4.2 1.5 1.1Zm0 0"/></symbol><symbol overflow="visible" id="d"><path style="stroke:none" d="M3.8-1.7 4.4 0h.8l-2-5.8h-1L.3 0h.7l.6-1.7Zm-2-.7.9-2.5.8 2.5Zm0 0"/></symbol><symbol overflow="visible" id="e"><path style="stroke:none" d="M5.4-4C5.3-5 4.5-6 3-6 1.4-5.9.4-4.7.4-2.9c0 2.2 1.2 3 2.5 3C3.4.1 5.1.1 5.5-2h-.8C4.4-.8 3.6-.5 3.1-.5c-1.5 0-2-1-2-2.4 0-1.5.9-2.3 2-2.3.5 0 1.3.2 1.5 1.2Zm0 0"/></symbol><symbol overflow="visible" id="f"><path style="stroke:none" d="M4.4-3.4h-3v-2.4H.6V0h.8v-2.7h3V0h.8v-5.8h-.8Zm0 0"/></symbol><symbol overflow="visible" id="g"><path style="stroke:none" d="M.1-5h2v5h.7v-5h2v-.8H0Zm0 0"/></symbol><symbol overflow="visible" id="h"><path style="stroke:none" d="M1.5-5.8H.7V0h.8Zm0 0"/></symbol><symbol overflow="visible" id="i"><path style="stroke:none" d="M1.4-5.8H.6V0h3.7v-.7h-3Zm0 0"/></symbol><symbol overflow="visible" id="j"><path style="stroke:none" d="M7.5 0h1.2L13-11.4h.1L13-8.3V0h1.5v-12.9h-2.2L8.2-2.2H8L4-13H1.7V0h1.4v-8.2L3-11.4Zm0 0"/></symbol><symbol overflow="visible" id="k"><path style="stroke:none" d="M5.6.2a8.2 8.2 0 0 0 3.2-.7v-1.3c-1 .5-2 .7-3.1.7A3 3 0 0 1 3.4-2a4 4 0 0 1-.9-2.5h6.7v-1c0-1.3-.4-2.3-1.1-3.1a3.7 3.7 0 0 0-2.9-1.2c-1.3 0-2.3.4-3 1.4C1.4-7.5 1-6.3 1-4.7c0 1.5.4 2.7 1.3 3.6C3-.2 4.2.2 5.5.2Zm-.4-8.8c.8 0 1.4.3 1.8.7.4.5.6 1.2.6 2.2h-5c0-1 .3-1.6.8-2.1.4-.5 1-.8 1.8-.8Zm0 0"/></symbol><symbol overflow="visible" id="l"><path style="stroke:none" d="M4.7-1c-.5 0-.9-.2-1.2-.5a2 2 0 0 1-.4-1.3v-5.7H6v-1.1H3.1V-12h-.8l-.6 2-1.4.7v.7h1.4v5.7c0 2 .9 3 2.8 3l.8-.1.7-.2v-1.1l-.6.1a4 4 0 0 1-.7 0Zm0 0"/></symbol><symbol overflow="visible" id="m"><path style="stroke:none" d="M7.5 0h1v-6.6c0-1.1-.2-2-.8-2.4-.5-.5-1.4-.8-2.5-.8a7.2 7.2 0 0 0-3.3.8l.5 1.2c1-.5 1.9-.8 2.7-.8.7 0 1.2.2 1.5.6.4.3.5.9.5 1.6v.6H5.5C2.4-5.5.8-4.5.8-2.6c0 1 .3 1.6.8 2.1.6.5 1.3.8 2.3.8.7 0 1.3-.2 1.8-.3.5-.3 1-.7 1.4-1.3ZM4.2-1a2 2 0 0 1-1.4-.4c-.3-.3-.4-.7-.4-1.2 0-.7.2-1.2.7-1.5.5-.4 1.4-.5 2.5-.6h1.5v.8c0 1-.3 1.6-.8 2.1a3 3 0 0 1-2.1.8Zm0 0"/></symbol><symbol overflow="visible" id="n"><path style="stroke:none" d="M.7-4.2h4.4v-1.3H.7Zm0 0"/></symbol><symbol overflow="visible" id="o"><path style="stroke:none" d="M8.1 0h1.5v-6.3c0-1.2-.3-2.1-.9-2.7-.6-.5-1.4-.8-2.6-.8-.7 0-1.3.1-1.8.4a3 3 0 0 0-1.3 1l-.3-1.2H1.5V0H3v-5c0-1.3.2-2.2.7-2.8.5-.5 1.2-.8 2.2-.8.8 0 1.3.2 1.7.6.4.4.5 1 .5 1.8Zm0 0"/></symbol><symbol overflow="visible" id="p"><path style="stroke:none" d="M3 0v-13.7H1.5V0Zm0 0"/></symbol><symbol overflow="visible" id="q"><path style="stroke:none" d="M0-9.6 4 0l-.6 1.4c-.5 1.1-1.2 1.7-2.2 1.7L.2 3v1.2l1.3.1a3 3 0 0 0 2-.7c.5-.4 1-1.2 1.4-2.3L9-9.7H7.5a646.3 646.3 0 0 0-2.9 8.3c-.1-.6-.4-1.5-1-2.7l-2-5.5Zm0 0"/></symbol><symbol overflow="visible" id="r"><path style="stroke:none" d="M7.8-2.6c0-.7-.2-1.2-.7-1.6-.3-.4-1.1-.9-2.3-1.3-.8-.3-1.4-.5-1.6-.7-.3-.2-.6-.3-.7-.5a1 1 0 0 1-.2-.7c0-.3.2-.6.5-.9a3 3 0 0 1 1.6-.3c.8 0 1.7.2 2.6.6l.6-1.2a8 8 0 0 0-3-.6c-1.2 0-2 .2-2.7.7-.7.4-1 1-1 1.8 0 .5.1.9.3 1.2l.8.8c.4.3 1 .5 2 .9l1.9 1c.3.2.5.5.5.9 0 .5-.2.9-.7 1.1-.4.2-1 .4-1.7.4a6.6 6.6 0 0 1-3-.8v1.4a6 6 0 0 0 3 .6C5 .2 6-.1 6.7-.6c.6-.4 1-1.1 1-2Zm0 0"/></symbol><symbol overflow="visible" id="s"><path style="stroke:none" d="M9.9-4.8c0-1.6-.4-2.8-1.2-3.7a4 4 0 0 0-3.2-1.3C4-9.8 3-9.4 2.2-8.5 1.4-7.6 1-6.4 1-4.8c0 1 .2 1.9.5 2.6a4 4 0 0 0 4 2.4c1.3 0 2.4-.5 3.2-1.3.8-1 1.2-2.2 1.2-3.7Zm-7.4 0c0-1.3.3-2.2.8-2.8.5-.7 1.2-1 2.1-1 1 0 1.7.3 2.2 1 .5.6.8 1.6.8 2.8 0 1.2-.3 2.2-.8 2.8-.5.6-1.2 1-2.2 1-1 0-1.7-.4-2.1-1-.5-.6-.8-1.6-.8-2.8Zm0 0"/></symbol><symbol overflow="visible" id="t"><path style="stroke:none" d="M5.9-8.5v-1.1H3.4v-.7c0-.8.2-1.3.4-1.7.3-.4.7-.6 1.3-.6l1.4.3.4-1.2a7 7 0 0 0-1.8-.3C3-13.8 2-12.6 2-10.2v.5l-1.8.5v.7H2V0h1.4v-8.5Zm0 0"/></symbol><symbol overflow="visible" id="u"><path style="stroke:none" d="M6 .2c1.3 0 2.3-.5 3-1.3.7-1 1-2.1 1-3.7s-.3-2.8-1-3.7a3.5 3.5 0 0 0-3-1.3c-.6 0-1.2.1-1.7.3-.5.3-1 .7-1.3 1.2l-.3-1.3H1.5V4.3H3v-4l-.1-1.5H3c.4.4.8.8 1.3 1 .5.2 1.1.4 1.7.4Zm-.2-8.8c.9 0 1.5.3 2 1 .5.6.7 1.6.7 2.8 0 1.1-.2 2-.7 2.8-.5.6-1.1 1-2 1-1 0-1.7-.3-2.1-1-.5-.5-.7-1.5-.7-2.8v-.3c0-1.2.2-2.1.7-2.7.4-.5 1.1-.8 2.1-.8Zm0 0"/></symbol><symbol overflow="visible" id="v"><path style="stroke:none" d="M3 0v-9.6H1.5V0ZM1.4-12.2c0 .3.1.5.3.7.1.2.3.2.6.2.2 0 .4 0 .6-.2.2-.2.3-.4.3-.7 0-.4-.1-.6-.3-.8a1 1 0 0 0-.6-.2 1 1 0 0 0-.6.2c-.2.2-.3.4-.3.8Zm0 0"/></symbol><symbol overflow="visible" id="w"><path style="stroke:none" d="M3.7 0h1.7L9-9.6H7.5L5-3.3l-.6 2L3.6-4l-2-5.7H0Zm0 0"/></symbol><symbol overflow="visible" id="x"><path style="stroke:none" d="M5.4.2c1 0 1.8-.2 2.4-.5v-1.3c-.8.3-1.6.5-2.4.5-1 0-1.7-.3-2.2-1-.5-.6-.7-1.5-.7-2.7 0-2.5 1-3.7 3-3.7l1 .1 1 .3.5-1.2a5.6 5.6 0 0 0-2.5-.5C4-9.8 3-9.4 2.2-8.5 1.4-7.6 1-6.4 1-4.7c0 1.5.4 2.7 1.2 3.6C2.9-.2 4 .2 5.4.2Zm0 0"/></symbol><symbol overflow="visible" id="y"><path style="stroke:none" d="M8.1 0h1.5v-6.3c0-1.2-.3-2-.9-2.7-.6-.5-1.5-.8-2.6-.8-.7 0-1.3.1-1.8.4-.6.3-1 .6-1.3 1.1v-5.4H1.5V0H3v-5c0-1.3.2-2.2.7-2.7.5-.6 1.2-.9 2.2-.9.8 0 1.3.2 1.7.6.4.4.5 1 .5 1.8Zm0 0"/></symbol><symbol overflow="visible" id="z"><path style="stroke:none" d="M9.4-9.6H6.1c-.4-.2-.9-.2-1.4-.2A4 4 0 0 0 2-9c-.6.6-1 1.4-1 2.5 0 .6.3 1.2.6 1.7s.7.8 1.2 1l-1 .8-.2 1c0 .2.1.5.3.7.1.3.4.4.6.6-.7 0-1.2.4-1.6.8C.5.5.3 1 .3 1.6c0 .9.4 1.5 1 2a5 5 0 0 0 3 .7c1.6 0 2.9-.3 3.7-.8C9 2.9 9.3 2 9.3 1 9.3.2 9-.4 8.5-.9 7.9-1.3 7-1.5 6-1.5H4.4c-.6 0-1 0-1.2-.2a.6.6 0 0 1-.3-.6c0-.5.3-1 1-1.2h.8c1 0 2-.3 2.6-.8.7-.6 1-1.3 1-2.3 0-.4 0-.8-.2-1.1l-.4-.8 1.7-.2ZM1.7 1.6c0-.6.2-1 .6-1.4.4-.2.9-.4 1.6-.4h1.7c.9 0 1.5 0 1.8.3.3.2.5.5.5 1 0 .7-.3 1.2-.9 1.5-.6.4-1.5.6-2.7.6-.8 0-1.5-.1-1.9-.4-.4-.3-.6-.7-.6-1.2Zm.8-8.1c0-.8.2-1.3.6-1.7.4-.4.9-.6 1.6-.6 1.4 0 2.1.8 2.1 2.2 0 1.4-.7 2.1-2.1 2.1-.7 0-1.2-.2-1.6-.5-.4-.4-.6-.9-.6-1.5Zm0 0"/></symbol><symbol overflow="visible" id="A"><path style="stroke:none" d="M6-9.8a3 3 0 0 0-1.7.5c-.5.3-1 .8-1.3 1.5l-.3-1.8H1.6V0H3v-5.2c0-1 .3-1.7.8-2.3.6-.7 1.3-1 2-1l1 .1.3-1.3-1.2-.1Zm0 0"/></symbol><symbol overflow="visible" id="B"><path style="stroke:none" d="M1.3-1c0 .5.1.8.3 1l.8.2c.3 0 .6 0 .8-.2.2-.3.3-.6.3-1 0-.3-.1-.6-.3-.8-.2-.2-.5-.3-.8-.3a1 1 0 0 0-.8.3c-.2.2-.3.5-.3.9Zm0-7.7c0 .4.1.7.3.9.2.2.5.3.8.3.3 0 .6-.1.8-.3.2-.2.3-.5.3-.9 0-.8-.4-1.2-1.1-1.2-.7 0-1 .4-1 1.2Zm0 0"/></symbol><symbol overflow="visible" id="C"><path style="stroke:none" d="M5.7 0v-11.5h4.1V-13H.2v1.4h4V0Zm0 0"/></symbol><symbol overflow="visible" id="D"><path style="stroke:none" d="M13.8 0h1.5v-6.3c0-1.2-.3-2.1-.8-2.7-.6-.5-1.4-.8-2.5-.8-.7 0-1.3.1-1.8.4-.6.3-1 .7-1.3 1.2-.5-1-1.5-1.6-3-1.6-.7 0-1.2.1-1.7.4-.5.3-.9.6-1.2 1l-.3-1.2H1.5V0H3v-5c0-1.3.2-2.2.6-2.8.5-.5 1.1-.8 2-.8.8 0 1.3.2 1.6.6.3.4.5 1 .5 1.7V0H9v-5.4c0-1 .3-1.9.7-2.4.4-.5 1-.8 2-.8.7 0 1.2.2 1.5.6.4.4.5 1 .5 1.7Zm0 0"/></symbol><symbol overflow="visible" id="E"><path style="stroke:none" d="M3-9.6H1.3v6.3c0 1.2.3 2.1 1 2.6.5.6 1.4.9 2.6.9.6 0 1.2-.2 1.8-.4A3 3 0 0 0 8-1.3L8.4 0h1.2v-9.6H8v5c0 1.3-.2 2.2-.7 2.7-.4.6-1.2.9-2.2.9-.7 0-1.3-.2-1.6-.6-.4-.4-.6-1-.6-1.8Zm0 0"/></symbol><symbol overflow="visible" id="F"><path style="stroke:none" d="M8-1.3 8.4 0h1.2v-13.7H8V-9l.1.7c-.8-1-1.8-1.4-3.1-1.4s-2.2.4-3 1.3a6 6 0 0 0-1 3.7C1-3.2 1.4-2 2-1 2.8-.2 3.8.2 5 .2c1.4 0 2.3-.5 3-1.5ZM5.3-1c-.9 0-1.5-.4-2-1s-.7-1.5-.7-2.8a5 5 0 0 1 .7-2.8c.5-.7 1.1-1 2-1 1 0 1.7.3 2.1.9.5.6.7 1.5.7 3v.2c0 1.2-.2 2.1-.7 2.6-.4.6-1.1.9-2.1.9Zm0 0"/></symbol><clipPath id="G"><path d="M11 3.1h2V5h-2Zm0 0"/></clipPath><clipPath id="H"><path d="M7 16h2v2.6H7Zm0 0"/></clipPath><clipPath id="I"><path d="M88 5h8.4v12H88Zm0 0"/></clipPath></defs><g style="fill:#000;fill-opacity:1"><use xlink:href="#a" x="166" y="71.4"/><use xlink:href="#b" x="171.7" y="71.4"/><use xlink:href="#c" x="177" y="71.4"/><use xlink:href="#b" x="182.3" y="71.4"/><use xlink:href="#d" x="187.6" y="71.4"/></g><g style="fill:#000;fill-opacity:1"><use xlink:href="#a" x="192.8" y="71.4"/><use xlink:href="#e" x="198.5" y="71.4"/><use xlink:href="#f" x="204.2" y="71.4"/></g><g style="fill:#000;fill-opacity:1"><use xlink:href="#d" x="211.6" y="71.4"/><use xlink:href="#a" x="216.9" y="71.4"/><use xlink:href="#g" x="222.6" y="71.4"/><use xlink:href="#h" x="227.5" y="71.4"/><use xlink:href="#e" x="229.7" y="71.4"/><use xlink:href="#i" x="235.4" y="71.4"/></g><use xlink:href="#b" x="239.7" y="71.4" style="fill:#000;fill-opacity:1"/><g style="fill:#000;fill-opacity:1"><use xlink:href="#j" x="166" y="93.9"/><use xlink:href="#k" x="182.1" y="93.9"/><use xlink:href="#l" x="192" y="93.9"/><use xlink:href="#m" x="198.2" y="93.9"/><use xlink:href="#n" x="207.9" y="93.9"/><use xlink:href="#m" x="213.5" y="93.9"/><use xlink:href="#o" x="223.2" y="93.9"/><use xlink:href="#m" x="234.1" y="93.9"/><use xlink:href="#p" x="243.8" y="93.9"/><use xlink:href="#q" x="248.1" y="93.9"/><use xlink:href="#r" x="256.9" y="93.9"/><use xlink:href="#k" x="265.3" y="93.9"/><use xlink:href="#r" x="275.2" y="93.9"/></g><g style="fill:#000;fill-opacity:1"><use xlink:href="#s" x="287.7" y="93.9"/><use xlink:href="#t" x="298.3" y="93.9"/></g><g style="fill:#000;fill-opacity:1"><use xlink:href="#u" x="308.3" y="93.9"/><use xlink:href="#s" x="319.2" y="93.9"/><use xlink:href="#r" x="329.8" y="93.9"/><use xlink:href="#v" x="338.2" y="93.9"/><use xlink:href="#l" x="342.5" y="93.9"/><use xlink:href="#v" x="348.7" y="93.9"/><use xlink:href="#w" x="353" y="93.9"/><use xlink:href="#k" x="361.8" y="93.9"/></g><g style="fill:#000;fill-opacity:1"><use xlink:href="#u" x="375.7" y="93.9"/><use xlink:href="#r" x="386.5" y="93.9"/><use xlink:href="#q" x="394.9" y="93.9"/><use xlink:href="#x" x="403.7" y="93.9"/><use xlink:href="#y" x="412.1" y="93.9"/><use xlink:href="#s" x="423" y="93.9"/><use xlink:href="#p" x="433.6" y="93.9"/><use xlink:href="#s" x="437.9" y="93.9"/><use xlink:href="#z" x="448.6" y="93.9"/><use xlink:href="#q" x="458.3" y="93.9"/></g><g style="fill:#000;fill-opacity:1"><use xlink:href="#v" x="166" y="116.4"/><use xlink:href="#o" x="170.3" y="116.4"/><use xlink:href="#l" x="181.1" y="116.4"/><use xlink:href="#k" x="187.3" y="116.4"/><use xlink:href="#A" x="197.2" y="116.4"/><use xlink:href="#w" x="204.3" y="116.4"/><use xlink:href="#k" x="213.1" y="116.4"/><use xlink:href="#o" x="223" y="116.4"/><use xlink:href="#l" x="233.8" y="116.4"/><use xlink:href="#v" x="240" y="116.4"/><use xlink:href="#s" x="244.3" y="116.4"/><use xlink:href="#o" x="255" y="116.4"/><use xlink:href="#r" x="265.8" y="116.4"/><use xlink:href="#B" x="274.2" y="116.4"/></g><g style="fill:#000;fill-opacity:1"><use xlink:href="#C" x="283" y="116.4"/><use xlink:href="#y" x="292.7" y="116.4"/><use xlink:href="#k" x="303.5" y="116.4"/></g><g style="fill:#000;fill-opacity:1"><use xlink:href="#k" x="317.4" y="116.4"/><use xlink:href="#t" x="327.3" y="116.4"/><use xlink:href="#t" x="333.3" y="116.4"/><use xlink:href="#k" x="339.3" y="116.4"/><use xlink:href="#x" x="349.2" y="116.4"/><use xlink:href="#l" x="357.6" y="116.4"/><use xlink:href="#r" x="363.7" y="116.4"/></g><g style="fill:#000;fill-opacity:1"><use xlink:href="#m" x="376.2" y="116.4"/><use xlink:href="#A" x="386" y="116.4"/><use xlink:href="#k" x="393.1" y="116.4"/></g><g style="fill:#000;fill-opacity:1"><use xlink:href="#D" x="407" y="116.4"/><use xlink:href="#E" x="423.4" y="116.4"/><use xlink:href="#x" x="434.3" y="116.4"/><use xlink:href="#y" x="442.7" y="116.4"/></g><g style="fill:#000;fill-opacity:1"><use xlink:href="#r" x="457.5" y="116.4"/><use xlink:href="#D" x="465.9" y="116.4"/><use xlink:href="#m" x="482.4" y="116.4"/><use xlink:href="#p" x="492.1" y="116.4"/><use xlink:href="#p" x="496.4" y="116.4"/><use xlink:href="#k" x="500.7" y="116.4"/><use xlink:href="#A" x="510.6" y="116.4"/></g><g style="fill:#000;fill-opacity:1"><use xlink:href="#l" x="166" y="138.9"/><use xlink:href="#y" x="172.2" y="138.9"/><use xlink:href="#m" x="183" y="138.9"/><use xlink:href="#o" x="192.7" y="138.9"/></g><g style="fill:#000;fill-opacity:1"><use xlink:href="#u" x="207.6" y="138.9"/><use xlink:href="#A" x="218.4" y="138.9"/><use xlink:href="#k" x="225.5" y="138.9"/><use xlink:href="#w" x="235.4" y="138.9"/><use xlink:href="#v" x="244.2" y="138.9"/><use xlink:href="#s" x="248.5" y="138.9"/><use xlink:href="#E" x="259.2" y="138.9"/><use xlink:href="#r" x="270" y="138.9"/><use xlink:href="#p" x="278.4" y="138.9"/><use xlink:href="#q" x="282.7" y="138.9"/></g><g style="fill:#000;fill-opacity:1"><use xlink:href="#A" x="295.6" y="138.9"/><use xlink:href="#k" x="302.7" y="138.9"/><use xlink:href="#u" x="312.6" y="138.9"/><use xlink:href="#s" x="323.4" y="138.9"/><use xlink:href="#A" x="334.1" y="138.9"/><use xlink:href="#l" x="341.2" y="138.9"/><use xlink:href="#k" x="347.3" y="138.9"/><use xlink:href="#F" x="357.2" y="138.9"/></g><path style="stroke:none;fill-rule:evenodd;fill:#000;fill-opacity:1" d="M542 24.9H2v-.5h540"/><path style="stroke:none;fill-rule:nonzero;fill:#100f0d;fill-opacity:1" d="M59.4 17.1h.4V4.2h-.4ZM15 6.4a1.1 1.1 0 1 0 .6-2.1 1.1 1.1 0 0 0-.7 2.1M17.5 12c.1-.3 0-.7-.3-.7-.3-.1-.6 0-.7.3-.1.3 0 .6.3.7.3.1.7 0 .7-.3"/><g clip-path="url(#G)"><path style="stroke:none;fill-rule:nonzero;fill:#100f0d;fill-opacity:1" d="M11.6 4.2c.3 0 .6-.1.7-.4 0-.3-.1-.6-.4-.7-.3 0-.6 0-.7.4-.1.3 0 .6.4.7"/></g><path style="stroke:none;fill-rule:nonzero;fill:#100f0d;fill-opacity:1" d="M3.9 13.8c-.3 0-.6 0-.7.4-.1.3 0 .6.4.7a.6.6 0 0 0 .3-1M13.6 16.4a.7.7 0 0 0-.4 1.4.7.7 0 0 0 .4-1.4M6.3 5.5A.9.9 0 1 0 4.6 5a.9.9 0 0 0 1.7.5"/><g clip-path="url(#H)"><path style="stroke:none;fill-rule:nonzero;fill:#100f0d;fill-opacity:1" d="M8.2 17a.9.9 0 1 0-.5 1.6c.4.1 1-.1 1-.6.2-.5 0-1-.5-1"/></g><path style="stroke:none;fill-rule:nonzero;fill:#100f0d;fill-opacity:1" d="M2.9 8.3a.7.7 0 1 0-.4 1.3.7.7 0 0 0 .4-1.3M14 12.8a4.7 4.7 0 0 0-.2-.8c0-.2.1-.3.2-.3l.2-.3.2-.2c0 .6-.2 1.1-.5 1.7v-.1M9.6 6.3 9 7h-.1a4.3 4.3 0 0 0-1-.3c.5-.3 1.2-.4 1.9-.5m1.2.2c.3 0 .5.3.6.6.3.5.4 1.2.4 2l-.4-.3A14 14 0 0 0 10 7.5l-.4-.2-.2-.1.5-.5c.4-.3.7-.4 1-.3m1.6 4c0 .2.1.2.2.3l.2.4.2.4v.3a4 4 0 0 1-.7.5 9 9 0 0 1-.4.2l.5-2m-5 1.3A9.2 9.2 0 0 1 9 7.5l.3.2a4.7 4.7 0 0 1 .8.4 15 15 0 0 1 1 .9l.4.3.3.4c-.1 1-.4 2-.7 3l-.1.2-.4.1-.4.1-.5.1-.4.1h-.5a5.4 5.4 0 0 1-1.2 0h-.2v-1.5m2 3.2c-.2.3-.6.4-.9.3-.2 0-.5-.3-.7-.6l-.3-.9H9.4l.5-.1a10.1 10.1 0 0 0 .9-.2L9.6 15m4.1-6.6a5 5 0 0 1 .5 1.1l.1.4v.5l-.1.2a2.5 2.5 0 0 1-.3.5l-.2.2-.1.1-.1-.1a12.4 12.4 0 0 0-.4-.8l-.3-.4-.2-.3c0-1.1 0-2-.3-2.8.5.3 1 .8 1.4 1.4m-6-1.2H8a3.6 3.6 0 0 1 .6.2c-.3.4-.6.8-.8 1.4a9.6 9.6 0 0 0-.8 4.5l-.4-.1a2.7 2.7 0 0 1-1-.6l-.3-.6c-.4-1.6 0-3.3 1.3-4.4.2-.3.6-.4 1-.4M6 13.4h.2l.3.2.4.1h.3c0 .4.2.8.3 1.1-.6-.3-1.1-.8-1.5-1.4m6.3 1.4c-.6.4-1.3.6-2 .7.6-.6 1.1-1.3 1.6-2.4l.4-.2a6.1 6.1 0 0 0 1.1-.7 2.6 2.6 0 0 1 .2.6v.6l-.1.2c-.1.4-.7.9-1.2 1.2M14.3 8c-.7-1.2-1.9-2-3.2-2.3l-1.3-.2c-1 0-2 .3-2.9.8A5.3 5.3 0 1 0 14.3 8"/><path style="stroke:none;fill-rule:nonzero;fill:#100f0d;fill-opacity:1" d="M8.8 11.4a.6.6 0 1 0 0-1.1.6.6 0 0 0 0 1.1M41.1 14a3.2 3.2 0 1 1 0-6.3 3.2 3.2 0 0 1 0 6.3Zm0-8.6a5.4 5.4 0 1 0 0 10.8 5.4 5.4 0 0 0 0-10.8ZM25.1 9.3c0 .9-.6 1.6-1.8 1.6H22V7.7h1.4c1.1 0 1.8.5 1.8 1.5Zm-1.6-3.7h-3.7l-.2.2v10c0 .1 0 .2.2.2h1.9s.2 0 .2-.2V13h1.3c2.4 0 4.3-1.3 4.3-3.7 0-2.1-1.5-3.6-4-3.6ZM47.8 14.8c-.1 0-.1-.1 0-.2M47.7 14.6l.2-.3ZM47.8 14.9Zm0 0"/><path style="stroke:none;fill-rule:nonzero;fill:#100f0d;fill-opacity:1" d="M52.3 9.8C50.5 9.3 50 9 50 8.4c0-.5.5-1 1.4-1 .7 0 1.6.3 2.4.8h.3l1-1.4-.1-.2a6 6 0 0 0-3.6-1.2c-2.1 0-3.7 1.3-3.7 3.2 0 2 1.4 2.7 3.5 3.2 1.7.5 2 .8 2 1.3 0 .7-.5 1-1.4 1-1 0-1.8-.3-2.5-.8H49L49 13h-.3l-1 1.5v.2c1.2 1 2.7 1.4 4 1.4 2.3 0 3.9-1.2 3.9-3.3 0-1.8-1.2-2.6-3.3-3.1ZM35.3 14h-4.1V5.7l-.2-.2H29l-.2.2v10c0 .1 0 .2.2.2h6.2c.1 0 .2 0 .2-.2v-1.7s0-.2-.2-.2Zm0 0"/><path style="stroke:none;fill-rule:nonzero;fill:#bc1c95;fill-opacity:1" d="M71.7 10.9C71.7 8.6 70 7 68 7s-3.6 1.7-3.6 3.8c0 2.1 1.5 3.8 3.6 3.8 2.2 0 3.7-1.6 3.7-3.7Zm-9.3 0c0-3.1 2.3-5.6 5.6-5.6s5.6 2.5 5.6 5.5-2.3 5.6-5.6 5.6a5.5 5.5 0 0 1-5.6-5.5ZM76 5.4h1.8l5.8 7.5V5.4h1.9v10.8h-1.6l-6-7.6v7.6h-1.8Zm0 0"/><g clip-path="url(#I)"><path style="stroke:none;fill-rule:nonzero;fill:#bc1c95;fill-opacity:1" d="M88.4 5.4h8v1.7h-6.1V10h5.4v1.8h-5.4v2.8h6.2v1.7h-8Zm0 0"/></g></svg>