<?xml version="1.0" encoding="utf-8" standalone="no"?>
<!DOCTYPE svg PUBLIC "-//W3C//DTD SVG 1.1//EN"
  "http://www.w3.org/Graphics/SVG/1.1/DTD/svg11.dtd">
<!-- Created with matplotlib (https://matplotlib.org/) -->
<svg height="345.6pt" version="1.1" viewBox="0 0 460.8 345.6" width="460.8pt" xmlns="http://www.w3.org/2000/svg" xmlns:xlink="http://www.w3.org/1999/xlink">
 <defs>
  <style type="text/css">
*{stroke-linecap:butt;stroke-linejoin:round;}
  </style>
 </defs>
 <g id="figure_1">
  <g id="patch_1">
   <path d="M 0 345.6 
L 460.8 345.6 
L 460.8 0 
L 0 0 
z
" style="fill:#ffffff;"/>
  </g>
  <g id="axes_1">
   <g id="patch_2">
    <path d="M 66.26 292.12 
L 445.68 292.12 
L 445.68 20.52 
L 66.26 20.52 
z
" style="fill:#ffffff;"/>
   </g>
   <g id="PolyCollection_1">
    <defs>
     <path d="M 83.506364 -53.48 
L 83.506364 -53.48 
L 84.197601 -52.881754 
L 84.888838 -52.819901 
L 85.580075 -52.823801 
L 86.271312 -52.890578 
L 86.962549 -52.984318 
L 87.653786 -53.134123 
L 88.345023 -53.332585 
L 89.03626 -53.560207 
L 89.727497 -53.842828 
L 90.418734 -54.116611 
L 91.109971 -54.470933 
L 91.801208 -54.881429 
L 92.492445 -55.350615 
L 93.183682 -55.844424 
L 93.874919 -56.366037 
L 94.566156 -56.878506 
L 95.257393 -57.535381 
L 95.94863 -58.124818 
L 96.639867 -58.963688 
L 97.331104 -59.794543 
L 98.022341 -60.617505 
L 98.713578 -61.601962 
L 99.404815 -62.6596 
L 100.096052 -63.761481 
L 100.787289 -64.892529 
L 101.478526 -66.12749 
L 102.169763 -67.408189 
L 102.861 -68.617771 
L 103.552237 -70.14845 
L 104.243474 -71.914461 
L 104.934711 -73.771712 
L 105.625948 -75.613012 
L 106.317185 -77.404899 
L 107.008422 -79.502151 
L 107.699659 -81.774718 
L 108.390896 -84.117936 
L 109.082133 -86.411005 
L 109.77337 -89.063724 
L 110.464607 -91.810157 
L 111.155844 -94.402383 
L 111.847081 -97.236675 
L 112.538318 -100.639181 
L 113.229555 -103.753272 
L 113.920792 -106.982719 
L 114.61203 -110.090045 
L 115.303267 -113.598728 
L 115.994504 -117.167243 
L 116.685741 -120.773754 
L 117.376978 -124.480212 
L 118.068215 -128.369026 
L 118.759452 -132.0519 
L 119.450689 -135.918962 
L 120.141926 -139.809119 
L 120.833163 -143.898268 
L 121.5244 -148.010173 
L 122.215637 -151.606338 
L 122.906874 -155.560139 
L 123.598111 -159.528132 
L 124.289348 -163.431382 
L 124.980585 -167.779246 
L 125.671822 -171.721461 
L 126.363059 -175.932492 
L 127.054296 -179.871967 
L 127.745533 -184.15447 
L 128.43677 -187.872766 
L 129.128007 -191.077542 
L 129.819244 -194.890064 
L 130.510481 -197.749107 
L 131.201718 -200.820544 
L 131.892955 -203.762893 
L 132.584192 -206.779355 
L 133.275429 -208.834049 
L 133.966666 -211.449233 
L 134.657903 -213.889076 
L 135.34914 -216.460597 
L 136.040377 -218.561761 
L 136.731614 -220.572592 
L 137.422851 -222.572824 
L 138.114088 -224.557464 
L 138.805325 -226.30486 
L 139.496562 -227.91656 
L 140.187799 -229.363302 
L 140.879036 -231.004284 
L 141.570273 -232.698964 
L 142.26151 -234.333693 
L 142.952747 -235.758299 
L 143.643984 -236.87524 
L 144.335221 -238.008354 
L 145.026458 -238.92656 
L 145.717695 -239.891802 
L 146.408932 -241.154495 
L 147.100169 -242.343389 
L 147.791406 -243.201539 
L 148.482643 -244.068024 
L 149.17388 -244.712562 
L 149.865118 -245.40737 
L 150.556355 -246.052357 
L 151.247592 -246.445765 
L 151.938829 -246.942054 
L 152.630066 -247.148114 
L 153.321303 -247.477653 
L 154.01254 -247.992207 
L 154.703777 -248.477454 
L 155.395014 -248.678478 
L 156.086251 -249.154103 
L 156.777488 -249.718598 
L 157.468725 -250.108912 
L 158.159962 -250.65261 
L 158.851199 -251.065637 
L 159.542436 -251.366823 
L 160.233673 -251.934953 
L 160.92491 -251.87854 
L 161.616147 -251.955489 
L 162.307384 -252.095051 
L 162.998621 -252.117895 
L 163.689858 -252.40259 
L 164.381095 -253.045814 
L 165.072332 -253.212408 
L 165.763569 -253.276975 
L 166.454806 -253.299641 
L 167.146043 -253.589132 
L 167.83728 -253.679991 
L 168.528517 -253.705019 
L 169.219754 -253.733364 
L 169.910991 -253.910658 
L 170.602228 -254.353259 
L 171.293465 -254.117769 
L 171.984702 -254.220783 
L 172.675939 -254.180053 
L 173.367176 -254.249004 
L 174.058413 -254.27723 
L 174.74965 -254.503262 
L 175.440887 -254.546906 
L 176.132124 -254.571775 
L 176.823361 -254.358184 
L 177.514598 -254.164254 
L 178.205835 -254.153314 
L 178.897072 -254.140961 
L 179.588309 -254.119601 
L 180.279546 -253.947066 
L 180.970783 -254.121028 
L 181.66202 -254.069258 
L 182.353257 -254.095265 
L 183.044494 -254.161176 
L 183.735731 -254.464997 
L 184.426968 -254.389639 
L 185.118206 -254.363256 
L 185.809443 -254.456219 
L 186.50068 -254.591707 
L 187.191917 -254.876242 
L 187.883154 -254.779283 
L 188.574391 -254.55402 
L 189.265628 -254.538704 
L 189.956865 -254.920631 
L 190.648102 -254.609707 
L 191.339339 -254.586853 
L 192.030576 -254.603591 
L 192.721813 -254.825486 
L 193.41305 -254.862184 
L 194.104287 -254.857051 
L 194.795524 -254.869257 
L 195.486761 -254.903899 
L 196.177998 -254.958559 
L 196.869235 -254.974411 
L 197.560472 -255.273717 
L 198.251709 -255.204564 
L 198.942946 -255.066453 
L 199.634183 -255.082641 
L 200.32542 -254.860489 
L 201.016657 -254.424577 
L 201.707894 -254.450694 
L 202.399131 -254.823587 
L 203.090368 -254.751831 
L 203.781605 -254.8003 
L 204.472842 -254.848152 
L 205.164079 -254.619057 
L 205.855316 -254.598537 
L 206.546553 -254.629344 
L 207.23779 -254.323251 
L 207.929027 -254.484946 
L 208.620264 -254.457075 
L 209.311501 -254.531916 
L 210.002738 -254.355549 
L 210.693975 -254.202246 
L 211.385212 -254.221023 
L 212.076449 -254.177369 
L 212.767686 -254.329447 
L 213.458923 -254.64114 
L 214.15016 -254.684016 
L 214.841397 -254.785507 
L 215.532634 -254.926107 
L 216.223871 -254.588924 
L 216.915108 -254.838193 
L 217.606345 -254.741653 
L 218.297582 -254.588722 
L 218.988819 -254.605423 
L 219.680056 -254.806276 
L 220.371293 -254.684343 
L 221.062531 -254.961902 
L 221.753768 -255.068834 
L 222.445005 -254.833156 
L 223.136242 -254.983935 
L 223.827479 -255.045669 
L 224.518716 -255.245297 
L 225.209953 -255.611387 
L 225.90119 -255.601543 
L 226.592427 -255.510811 
L 227.283664 -255.458365 
L 227.974901 -255.514295 
L 228.666138 -255.092079 
L 229.357375 -254.982325 
L 230.048612 -255.031514 
L 230.739849 -255.075433 
L 231.431086 -255.118116 
L 232.122323 -255.357257 
L 232.81356 -255.298666 
L 233.504797 -255.299499 
L 234.196034 -255.482166 
L 234.887271 -255.59482 
L 235.578508 -255.611249 
L 236.269745 -255.447762 
L 236.960982 -255.534882 
L 237.652219 -255.463049 
L 238.343456 -255.378867 
L 239.034693 -255.1489 
L 239.72593 -254.882476 
L 240.417167 -255.095643 
L 241.108404 -254.922912 
L 241.799641 -254.797971 
L 242.490878 -254.76545 
L 243.182115 -254.950198 
L 243.873352 -254.953536 
L 244.564589 -254.534934 
L 245.255826 -254.611959 
L 245.947063 -254.668839 
L 246.6383 -254.807871 
L 247.329537 -254.82399 
L 248.020774 -254.569592 
L 248.712011 -254.622989 
L 249.403248 -254.804874 
L 250.094485 -254.679038 
L 250.785722 -254.301093 
L 251.476959 -254.222689 
L 252.168196 -254.553925 
L 252.859433 -254.282808 
L 253.55067 -254.07844 
L 254.241907 -253.97014 
L 254.933144 -253.937724 
L 255.624381 -254.003291 
L 256.315619 -254.293267 
L 257.006856 -254.670506 
L 257.698093 -254.88255 
L 258.38933 -254.663289 
L 259.080567 -254.302898 
L 259.771804 -254.363727 
L 260.463041 -255.020445 
L 261.154278 -255.162862 
L 261.845515 -255.260799 
L 262.536752 -255.178758 
L 263.227989 -255.002567 
L 263.919226 -255.304676 
L 264.610463 -255.223201 
L 265.3017 -255.335082 
L 265.992937 -255.237621 
L 266.684174 -255.158298 
L 267.375411 -255.264227 
L 268.066648 -255.279712 
L 268.757885 -255.330714 
L 269.449122 -255.042535 
L 270.140359 -254.989814 
L 270.831596 -255.065282 
L 271.522833 -255.087677 
L 272.21407 -255.327698 
L 272.905307 -255.457905 
L 273.596544 -255.479522 
L 274.287781 -255.607942 
L 274.979018 -255.408819 
L 275.670255 -255.301405 
L 276.361492 -255.088292 
L 277.052729 -255.43553 
L 277.743966 -255.501444 
L 278.435203 -255.804028 
L 279.12644 -255.745926 
L 279.817677 -255.858178 
L 280.508914 -255.302314 
L 281.200151 -255.52818 
L 281.891388 -255.611193 
L 282.582625 -255.566349 
L 283.273862 -255.180047 
L 283.965099 -255.407554 
L 284.656336 -255.470117 
L 285.347573 -255.29409 
L 286.03881 -255.465165 
L 286.730047 -255.552416 
L 287.421284 -255.669127 
L 288.112521 -255.639643 
L 288.803758 -255.563659 
L 289.494995 -255.713725 
L 290.186232 -255.64786 
L 290.877469 -255.466989 
L 291.568707 -255.565105 
L 292.259944 -255.626614 
L 292.951181 -255.527691 
L 293.642418 -255.623676 
L 294.333655 -255.428448 
L 295.024892 -255.600586 
L 295.716129 -255.468425 
L 296.407366 -255.729661 
L 297.098603 -255.965918 
L 297.78984 -256.079775 
L 298.481077 -255.685789 
L 299.172314 -255.540393 
L 299.863551 -255.375488 
L 300.554788 -255.393731 
L 301.246025 -255.373517 
L 301.937262 -255.408581 
L 302.628499 -255.393204 
L 303.319736 -255.408106 
L 304.010973 -255.474621 
L 304.70221 -255.558721 
L 305.393447 -255.265912 
L 306.084684 -255.363983 
L 306.775921 -255.453626 
L 307.467158 -255.311753 
L 308.158395 -255.417208 
L 308.849632 -255.458168 
L 309.540869 -255.173718 
L 310.232106 -255.223175 
L 310.923343 -255.371236 
L 311.61458 -255.536206 
L 312.305817 -255.560516 
L 312.997054 -255.519008 
L 313.688291 -255.673064 
L 314.379528 -255.515425 
L 315.070765 -255.380617 
L 315.762002 -255.408839 
L 316.453239 -255.404451 
L 317.144476 -255.511737 
L 317.835713 -255.568962 
L 318.52695 -255.777543 
L 319.218187 -255.641324 
L 319.909424 -255.556771 
L 320.600661 -255.616763 
L 321.291898 -255.58165 
L 321.983135 -255.540408 
L 322.674372 -255.604513 
L 323.365609 -255.186928 
L 324.056846 -255.29846 
L 324.748083 -255.242431 
L 325.43932 -255.109507 
L 326.130557 -254.73707 
L 326.821794 -255.199488 
L 327.513032 -255.40349 
L 328.204269 -255.164626 
L 328.895506 -255.136254 
L 329.586743 -254.803144 
L 330.27798 -254.724156 
L 330.969217 -254.606084 
L 331.660454 -254.598978 
L 332.351691 -254.657423 
L 333.042928 -254.766981 
L 333.734165 -254.951369 
L 334.425402 -254.715177 
L 335.116639 -254.80617 
L 335.807876 -254.910179 
L 336.499113 -254.863862 
L 337.19035 -254.844424 
L 337.881587 -254.923488 
L 338.572824 -255.156435 
L 339.264061 -255.301933 
L 339.955298 -255.34277 
L 340.646535 -255.117303 
L 341.337772 -255.116498 
L 342.029009 -255.112782 
L 342.720246 -255.136079 
L 343.411483 -255.26038 
L 344.10272 -255.123505 
L 344.793957 -255.000741 
L 345.485194 -254.945874 
L 346.176431 -254.995608 
L 346.867668 -254.963328 
L 347.558905 -255.081281 
L 348.250142 -254.945476 
L 348.941379 -254.986491 
L 349.632616 -254.722403 
L 350.323853 -254.539457 
L 351.01509 -254.530638 
L 351.706327 -254.756491 
L 352.397564 -254.642861 
L 353.088801 -254.876499 
L 353.780038 -254.810661 
L 354.471275 -254.707083 
L 355.162512 -254.961434 
L 355.853749 -255.042486 
L 356.544986 -255.180792 
L 357.236223 -255.39037 
L 357.92746 -255.392186 
L 358.618697 -255.448449 
L 359.309934 -255.184319 
L 360.001171 -255.226562 
L 360.692408 -255.338995 
L 361.383645 -255.116174 
L 362.074882 -255.066816 
L 362.76612 -255.043667 
L 363.457357 -254.946627 
L 364.148594 -255.130654 
L 364.839831 -255.021572 
L 365.531068 -254.667664 
L 366.222305 -254.998474 
L 366.913542 -254.997575 
L 367.604779 -255.416882 
L 368.296016 -255.207606 
L 368.987253 -254.768412 
L 369.67849 -254.717539 
L 370.369727 -254.917299 
L 371.060964 -254.711867 
L 371.752201 -254.528708 
L 372.443438 -254.552246 
L 373.134675 -254.58098 
L 373.825912 -254.255568 
L 374.517149 -254.159026 
L 375.208386 -254.246173 
L 375.899623 -254.284425 
L 376.59086 -254.535415 
L 377.282097 -254.556936 
L 377.973334 -254.841248 
L 378.664571 -254.894793 
L 379.355808 -255.234504 
L 380.047045 -255.384586 
L 380.738282 -255.382322 
L 381.429519 -255.342414 
L 382.120756 -255.150524 
L 382.811993 -255.207244 
L 383.50323 -255.26882 
L 384.194467 -255.142578 
L 384.885704 -255.14451 
L 385.576941 -254.82653 
L 386.268178 -255.075953 
L 386.959415 -255.454226 
L 387.650652 -255.415003 
L 388.341889 -255.082042 
L 389.033126 -255.057019 
L 389.724363 -254.976715 
L 390.4156 -255.024879 
L 391.106837 -255.150032 
L 391.798074 -255.373297 
L 392.489311 -255.368639 
L 393.180548 -255.247459 
L 393.871785 -255.224081 
L 394.563022 -255.49016 
L 395.254259 -255.097435 
L 395.945496 -255.282453 
L 396.636733 -255.36595 
L 397.32797 -255.376597 
L 398.019208 -255.490614 
L 398.710445 -255.75914 
L 399.401682 -255.386805 
L 400.092919 -255.541868 
L 400.784156 -255.550311 
L 401.475393 -255.563712 
L 402.16663 -255.538197 
L 402.857867 -255.507958 
L 403.549104 -255.272273 
L 404.240341 -255.403276 
L 404.931578 -255.345151 
L 405.622815 -255.638445 
L 406.314052 -255.65172 
L 407.005289 -255.45084 
L 407.696526 -255.749045 
L 408.387763 -255.604867 
L 409.079 -255.479434 
L 409.770237 -255.492161 
L 410.461474 -255.296943 
L 411.152711 -255.278342 
L 411.843948 -255.314735 
L 412.535185 -255.201594 
L 413.226422 -255.370778 
L 413.917659 -255.083959 
L 414.608896 -255.089579 
L 415.300133 -255.055932 
L 415.99137 -255.314089 
L 416.682607 -254.954826 
L 417.373844 -254.82531 
L 418.065081 -254.966475 
L 418.756318 -255.271615 
L 419.447555 -255.142026 
L 420.138792 -255.385097 
L 420.830029 -255.377601 
L 421.521266 -255.767425 
L 422.212503 -256.141974 
L 422.90374 -255.807055 
L 423.594977 -255.950112 
L 424.286214 -256.065254 
L 424.977451 -255.664899 
L 425.668688 -255.530068 
L 426.359925 -255.150941 
L 427.051162 -254.965082 
L 427.742399 -255.044907 
L 428.433636 -255.155752 
L 428.433636 -277.582877 
L 428.433636 -277.582877 
L 427.742399 -277.461232 
L 427.051162 -277.500318 
L 426.359925 -277.518702 
L 425.668688 -277.690379 
L 424.977451 -277.826605 
L 424.286214 -278.066683 
L 423.594977 -278.299156 
L 422.90374 -278.471546 
L 422.212503 -278.353364 
L 421.521266 -278.363425 
L 420.830029 -278.208963 
L 420.138792 -277.970064 
L 419.447555 -277.671021 
L 418.756318 -277.616937 
L 418.065081 -277.528257 
L 417.373844 -277.391304 
L 416.682607 -277.314478 
L 415.99137 -277.367504 
L 415.300133 -277.333962 
L 414.608896 -277.292711 
L 413.917659 -277.00446 
L 413.226422 -277.20815 
L 412.535185 -277.343112 
L 411.843948 -277.540682 
L 411.152711 -277.566211 
L 410.461474 -277.502525 
L 409.770237 -277.634313 
L 409.079 -277.6063 
L 408.387763 -277.867625 
L 407.696526 -277.860876 
L 407.005289 -277.96027 
L 406.314052 -277.927782 
L 405.622815 -278.036661 
L 404.931578 -278.071391 
L 404.240341 -277.814999 
L 403.549104 -277.882447 
L 402.857867 -277.824388 
L 402.16663 -277.65835 
L 401.475393 -277.972334 
L 400.784156 -278.019413 
L 400.092919 -277.751368 
L 399.401682 -277.664707 
L 398.710445 -277.815474 
L 398.019208 -277.632057 
L 397.32797 -277.659705 
L 396.636733 -277.542157 
L 395.945496 -277.529508 
L 395.254259 -277.671613 
L 394.563022 -277.688461 
L 393.871785 -277.760075 
L 393.180548 -277.850225 
L 392.489311 -277.770328 
L 391.798074 -277.677128 
L 391.106837 -277.617386 
L 390.4156 -277.541012 
L 389.724363 -277.624484 
L 389.033126 -277.26063 
L 388.341889 -277.280149 
L 387.650652 -277.444216 
L 386.959415 -277.640199 
L 386.268178 -277.64312 
L 385.576941 -277.632894 
L 384.885704 -277.479504 
L 384.194467 -277.436894 
L 383.50323 -277.580079 
L 382.811993 -277.535731 
L 382.120756 -277.550081 
L 381.429519 -277.42935 
L 380.738282 -277.532304 
L 380.047045 -277.660407 
L 379.355808 -277.593753 
L 378.664571 -277.528236 
L 377.973334 -277.378625 
L 377.282097 -277.149613 
L 376.59086 -277.035334 
L 375.899623 -276.942478 
L 375.208386 -276.934558 
L 374.517149 -276.820721 
L 373.825912 -276.679637 
L 373.134675 -276.793674 
L 372.443438 -276.718657 
L 371.752201 -276.820959 
L 371.060964 -277.106038 
L 370.369727 -276.968505 
L 369.67849 -277.113402 
L 368.987253 -277.27818 
L 368.296016 -277.410976 
L 367.604779 -277.643864 
L 366.913542 -277.624809 
L 366.222305 -277.480506 
L 365.531068 -277.37078 
L 364.839831 -277.221658 
L 364.148594 -277.227734 
L 363.457357 -277.404157 
L 362.76612 -277.502669 
L 362.074882 -277.503964 
L 361.383645 -277.534456 
L 360.692408 -277.484373 
L 360.001171 -277.635917 
L 359.309934 -277.654801 
L 358.618697 -277.57536 
L 357.92746 -277.579475 
L 357.236223 -277.738276 
L 356.544986 -277.610527 
L 355.853749 -277.503307 
L 355.162512 -277.548507 
L 354.471275 -277.44489 
L 353.780038 -277.32067 
L 353.088801 -277.135871 
L 352.397564 -277.206549 
L 351.706327 -277.387877 
L 351.01509 -277.227515 
L 350.323853 -277.202943 
L 349.632616 -277.105823 
L 348.941379 -277.13126 
L 348.250142 -277.400419 
L 347.558905 -277.471573 
L 346.867668 -277.339654 
L 346.176431 -277.430681 
L 345.485194 -277.264221 
L 344.793957 -277.344611 
L 344.10272 -277.286488 
L 343.411483 -277.408176 
L 342.720246 -277.592772 
L 342.029009 -277.511775 
L 341.337772 -277.455912 
L 340.646535 -277.468687 
L 339.955298 -277.61151 
L 339.264061 -277.70395 
L 338.572824 -277.639773 
L 337.881587 -277.309964 
L 337.19035 -277.279302 
L 336.499113 -277.158829 
L 335.807876 -277.184215 
L 335.116639 -277.137758 
L 334.425402 -277.165739 
L 333.734165 -277.238628 
L 333.042928 -277.162279 
L 332.351691 -277.197963 
L 331.660454 -277.118978 
L 330.969217 -276.98422 
L 330.27798 -277.079626 
L 329.586743 -277.098957 
L 328.895506 -277.37586 
L 328.204269 -277.377908 
L 327.513032 -277.542098 
L 326.821794 -277.508179 
L 326.130557 -277.478457 
L 325.43932 -277.291251 
L 324.748083 -277.510321 
L 324.056846 -277.667226 
L 323.365609 -277.577775 
L 322.674372 -277.792474 
L 321.983135 -277.847345 
L 321.291898 -277.750697 
L 320.600661 -277.822051 
L 319.909424 -278.073793 
L 319.218187 -278.047905 
L 318.52695 -278.086597 
L 317.835713 -278.075725 
L 317.144476 -277.884707 
L 316.453239 -277.741578 
L 315.762002 -277.580205 
L 315.070765 -277.512281 
L 314.379528 -277.427991 
L 313.688291 -277.55879 
L 312.997054 -277.678082 
L 312.305817 -277.836471 
L 311.61458 -277.992235 
L 310.923343 -277.698744 
L 310.232106 -277.576836 
L 309.540869 -277.712661 
L 308.849632 -277.779118 
L 308.158395 -277.933608 
L 307.467158 -277.871756 
L 306.775921 -277.765734 
L 306.084684 -277.733701 
L 305.393447 -277.687281 
L 304.70221 -277.694318 
L 304.010973 -277.816443 
L 303.319736 -277.724343 
L 302.628499 -277.71806 
L 301.937262 -277.733645 
L 301.246025 -277.622588 
L 300.554788 -277.708298 
L 299.863551 -277.707529 
L 299.172314 -278.032047 
L 298.481077 -278.131635 
L 297.78984 -278.223813 
L 297.098603 -278.238264 
L 296.407366 -278.264846 
L 295.716129 -278.06056 
L 295.024892 -277.936004 
L 294.333655 -277.8398 
L 293.642418 -277.86131 
L 292.951181 -277.911123 
L 292.259944 -278.034368 
L 291.568707 -277.881313 
L 290.877469 -278.035379 
L 290.186232 -277.90231 
L 289.494995 -277.849482 
L 288.803758 -278.040831 
L 288.112521 -278.053931 
L 287.421284 -278.25748 
L 286.730047 -278.093357 
L 286.03881 -277.916612 
L 285.347573 -277.951887 
L 284.656336 -277.917092 
L 283.965099 -277.926422 
L 283.273862 -277.643321 
L 282.582625 -277.727974 
L 281.891388 -277.99221 
L 281.200151 -278.075224 
L 280.508914 -277.85132 
L 279.817677 -277.890803 
L 279.12644 -277.986759 
L 278.435203 -278.169838 
L 277.743966 -277.960727 
L 277.052729 -278.000024 
L 276.361492 -277.836654 
L 275.670255 -277.7387 
L 274.979018 -277.745901 
L 274.287781 -277.786329 
L 273.596544 -277.868577 
L 272.905307 -277.846739 
L 272.21407 -277.868305 
L 271.522833 -277.783493 
L 270.831596 -277.67552 
L 270.140359 -277.305563 
L 269.449122 -277.329434 
L 268.757885 -277.321002 
L 268.066648 -277.398622 
L 267.375411 -277.497216 
L 266.684174 -277.441272 
L 265.992937 -277.501551 
L 265.3017 -277.589865 
L 264.610463 -277.796805 
L 263.919226 -277.725108 
L 263.227989 -277.630681 
L 262.536752 -277.436021 
L 261.845515 -277.331709 
L 261.154278 -277.38456 
L 260.463041 -277.467225 
L 259.771804 -277.19996 
L 259.080567 -276.92998 
L 258.38933 -276.703217 
L 257.698093 -277.003798 
L 257.006856 -277.037672 
L 256.315619 -276.758183 
L 255.624381 -276.655968 
L 254.933144 -276.599859 
L 254.241907 -276.359397 
L 253.55067 -276.374403 
L 252.859433 -276.421537 
L 252.168196 -276.536092 
L 251.476959 -276.526198 
L 250.785722 -276.569471 
L 250.094485 -276.658678 
L 249.403248 -276.844639 
L 248.712011 -277.078671 
L 248.020774 -277.12392 
L 247.329537 -277.223145 
L 246.6383 -277.055663 
L 245.947063 -277.073018 
L 245.255826 -277.273846 
L 244.564589 -277.078728 
L 243.873352 -277.031674 
L 243.182115 -277.284341 
L 242.490878 -277.138823 
L 241.799641 -277.118253 
L 241.108404 -277.27469 
L 240.417167 -277.334448 
L 239.72593 -277.417247 
L 239.034693 -277.45067 
L 238.343456 -277.630276 
L 237.652219 -277.792163 
L 236.960982 -277.895783 
L 236.269745 -277.831894 
L 235.578508 -277.867218 
L 234.887271 -277.966213 
L 234.196034 -278.068004 
L 233.504797 -277.868257 
L 232.81356 -277.814771 
L 232.122323 -277.71544 
L 231.431086 -277.618883 
L 230.739849 -277.552927 
L 230.048612 -277.580549 
L 229.357375 -277.679713 
L 228.666138 -277.48359 
L 227.974901 -277.526896 
L 227.283664 -277.655071 
L 226.592427 -277.77482 
L 225.90119 -277.874751 
L 225.209953 -278.068608 
L 224.518716 -277.820881 
L 223.827479 -277.675034 
L 223.136242 -277.633017 
L 222.445005 -277.613774 
L 221.753768 -277.343331 
L 221.062531 -277.394857 
L 220.371293 -277.374199 
L 219.680056 -277.317993 
L 218.988819 -277.125027 
L 218.297582 -276.936941 
L 217.606345 -277.156103 
L 216.915108 -277.206769 
L 216.223871 -277.235499 
L 215.532634 -277.297025 
L 214.841397 -277.49792 
L 214.15016 -277.281639 
L 213.458923 -277.352218 
L 212.767686 -277.069108 
L 212.076449 -276.615517 
L 211.385212 -276.572406 
L 210.693975 -276.569456 
L 210.002738 -276.687753 
L 209.311501 -276.59178 
L 208.620264 -276.883357 
L 207.929027 -276.908177 
L 207.23779 -276.837925 
L 206.546553 -276.744223 
L 205.855316 -276.907027 
L 205.164079 -277.085319 
L 204.472842 -277.028419 
L 203.781605 -276.962198 
L 203.090368 -276.975359 
L 202.399131 -277.115452 
L 201.707894 -276.980996 
L 201.016657 -276.917484 
L 200.32542 -277.061167 
L 199.634183 -277.243699 
L 198.942946 -277.385366 
L 198.251709 -277.26518 
L 197.560472 -277.451875 
L 196.869235 -277.59311 
L 196.177998 -277.49652 
L 195.486761 -277.406688 
L 194.795524 -277.379949 
L 194.104287 -277.173245 
L 193.41305 -277.257197 
L 192.721813 -277.277056 
L 192.030576 -277.220832 
L 191.339339 -277.164781 
L 190.648102 -277.279357 
L 189.956865 -277.174849 
L 189.265628 -277.169475 
L 188.574391 -277.046605 
L 187.883154 -277.144003 
L 187.191917 -277.376766 
L 186.50068 -277.032275 
L 185.809443 -276.884213 
L 185.118206 -276.942412 
L 184.426968 -276.769364 
L 183.735731 -276.778746 
L 183.044494 -276.834868 
L 182.353257 -276.642758 
L 181.66202 -276.602495 
L 180.970783 -276.537688 
L 180.279546 -276.534567 
L 179.588309 -276.332155 
L 178.897072 -276.429213 
L 178.205835 -276.49997 
L 177.514598 -276.605818 
L 176.823361 -276.608526 
L 176.132124 -276.826236 
L 175.440887 -276.7517 
L 174.74965 -276.772529 
L 174.058413 -276.688394 
L 173.367176 -276.823087 
L 172.675939 -277.013715 
L 171.984702 -276.710076 
L 171.293465 -276.534429 
L 170.602228 -276.573798 
L 169.910991 -276.460162 
L 169.219754 -276.261018 
L 168.528517 -276.10033 
L 167.83728 -275.991187 
L 167.146043 -276.116268 
L 166.454806 -275.844633 
L 165.763569 -275.909669 
L 165.072332 -275.748265 
L 164.381095 -275.593284 
L 163.689858 -275.303834 
L 162.998621 -274.905727 
L 162.307384 -274.727587 
L 161.616147 -274.73678 
L 160.92491 -274.591561 
L 160.233673 -274.37436 
L 159.542436 -274.146703 
L 158.851199 -273.99323 
L 158.159962 -273.643061 
L 157.468725 -273.234529 
L 156.777488 -272.680219 
L 156.086251 -272.310953 
L 155.395014 -272.071727 
L 154.703777 -271.665996 
L 154.01254 -271.290815 
L 153.321303 -270.705932 
L 152.630066 -270.48195 
L 151.938829 -269.922098 
L 151.247592 -269.49386 
L 150.556355 -269.191973 
L 149.865118 -268.842904 
L 149.17388 -268.215562 
L 148.482643 -267.728615 
L 147.791406 -267.077943 
L 147.100169 -266.320072 
L 146.408932 -265.420363 
L 145.717695 -264.264729 
L 145.026458 -263.073468 
L 144.335221 -261.930772 
L 143.643984 -261.086638 
L 142.952747 -259.877597 
L 142.26151 -259.023479 
L 141.570273 -257.695052 
L 140.879036 -256.081101 
L 140.187799 -254.496018 
L 139.496562 -252.876396 
L 138.805325 -251.385881 
L 138.114088 -249.734475 
L 137.422851 -247.935727 
L 136.731614 -245.957562 
L 136.040377 -244.213795 
L 135.34914 -242.226291 
L 134.657903 -240.02906 
L 133.966666 -237.59477 
L 133.275429 -235.076714 
L 132.584192 -232.488133 
L 131.892955 -229.982967 
L 131.201718 -227.199989 
L 130.510481 -224.146845 
L 129.819244 -221.129551 
L 129.128007 -218.048322 
L 128.43677 -214.718402 
L 127.745533 -211.208336 
L 127.054296 -207.655179 
L 126.363059 -203.628626 
L 125.671822 -199.583017 
L 124.980585 -195.144742 
L 124.289348 -190.693852 
L 123.598111 -186.478435 
L 122.906874 -182.15611 
L 122.215637 -177.817419 
L 121.5244 -173.85387 
L 120.833163 -169.984537 
L 120.141926 -165.907218 
L 119.450689 -161.645572 
L 118.759452 -157.468929 
L 118.068215 -153.152097 
L 117.376978 -149.445345 
L 116.685741 -145.224342 
L 115.994504 -141.470493 
L 115.303267 -137.560231 
L 114.61203 -133.623814 
L 113.920792 -129.808057 
L 113.229555 -126.052495 
L 112.538318 -122.641667 
L 111.847081 -119.088497 
L 111.155844 -115.641767 
L 110.464607 -112.342446 
L 109.77337 -109.180493 
L 109.082133 -106.200771 
L 108.390896 -103.26717 
L 107.699659 -100.23651 
L 107.008422 -97.520871 
L 106.317185 -94.923789 
L 105.625948 -92.486321 
L 104.934711 -90.169424 
L 104.243474 -88.028181 
L 103.552237 -85.848386 
L 102.861 -83.733107 
L 102.169763 -81.806796 
L 101.478526 -80.176486 
L 100.787289 -78.435254 
L 100.096052 -76.702009 
L 99.404815 -75.050409 
L 98.713578 -73.477329 
L 98.022341 -72.051064 
L 97.331104 -70.749029 
L 96.639867 -69.505945 
L 95.94863 -68.285544 
L 95.257393 -67.135112 
L 94.566156 -65.988019 
L 93.874919 -65.07133 
L 93.183682 -64.092624 
L 92.492445 -63.139892 
L 91.801208 -62.179918 
L 91.109971 -61.269895 
L 90.418734 -60.454707 
L 89.727497 -59.739867 
L 89.03626 -59.040925 
L 88.345023 -58.357057 
L 87.653786 -57.720077 
L 86.962549 -57.080613 
L 86.271312 -56.454613 
L 85.580075 -55.874439 
L 84.888838 -55.310695 
L 84.197601 -54.634483 
L 83.506364 -53.48 
z
" id="mae0c8fe23c"/>
    </defs>
    <g clip-path="url(#paecfd22959)">
     <use style="fill:#b22222;fill-opacity:0.15;" x="0" xlink:href="#mae0c8fe23c" y="345.6"/>
    </g>
   </g>
   <g id="PolyCollection_2">
    <defs>
     <path d="M 83.506364 -53.48 
L 83.506364 -53.48 
L 84.197601 -52.887413 
L 84.888838 -52.801497 
L 85.580075 -52.81781 
L 86.271312 -52.881604 
L 86.962549 -52.972813 
L 87.653786 -53.109489 
L 88.345023 -53.30037 
L 89.03626 -53.558123 
L 89.727497 -53.787475 
L 90.418734 -54.138938 
L 91.109971 -54.520659 
L 91.801208 -54.863484 
L 92.492445 -55.199906 
L 93.183682 -55.649702 
L 93.874919 -56.156652 
L 94.566156 -56.70896 
L 95.257393 -57.373898 
L 95.94863 -58.12979 
L 96.639867 -58.921364 
L 97.331104 -59.715317 
L 98.022341 -60.681123 
L 98.713578 -61.707801 
L 99.404815 -62.616287 
L 100.096052 -63.589641 
L 100.787289 -64.632082 
L 101.478526 -65.599554 
L 102.169763 -66.670498 
L 102.861 -67.716039 
L 103.552237 -68.795402 
L 104.243474 -69.779383 
L 104.934711 -70.878368 
L 105.625948 -71.8509 
L 106.317185 -72.871878 
L 107.008422 -73.682412 
L 107.699659 -74.568905 
L 108.390896 -75.532905 
L 109.082133 -76.33531 
L 109.77337 -77.200267 
L 110.464607 -78.013365 
L 111.155844 -78.879032 
L 111.847081 -79.800478 
L 112.538318 -80.832926 
L 113.229555 -81.932075 
L 113.920792 -83.296952 
L 114.61203 -84.706388 
L 115.303267 -86.418769 
L 115.994504 -88.230461 
L 116.685741 -89.813283 
L 117.376978 -91.131566 
L 118.068215 -92.485869 
L 118.759452 -93.645928 
L 119.450689 -94.55443 
L 120.141926 -95.207374 
L 120.833163 -95.899885 
L 121.5244 -96.688636 
L 122.215637 -97.49011 
L 122.906874 -98.350325 
L 123.598111 -99.212407 
L 124.289348 -100.154096 
L 124.980585 -100.89479 
L 125.671822 -101.724187 
L 126.363059 -102.530605 
L 127.054296 -103.593984 
L 127.745533 -104.501692 
L 128.43677 -105.524239 
L 129.128007 -106.594465 
L 129.819244 -107.343007 
L 130.510481 -108.060874 
L 131.201718 -108.585118 
L 131.892955 -109.151675 
L 132.584192 -109.751523 
L 133.275429 -110.300827 
L 133.966666 -110.858694 
L 134.657903 -111.362028 
L 135.34914 -112.028564 
L 136.040377 -112.819621 
L 136.731614 -113.286895 
L 137.422851 -113.911854 
L 138.114088 -114.657018 
L 138.805325 -115.317712 
L 139.496562 -115.722533 
L 140.187799 -116.204064 
L 140.879036 -116.549247 
L 141.570273 -116.888094 
L 142.26151 -117.170428 
L 142.952747 -117.63101 
L 143.643984 -118.049938 
L 144.335221 -118.413971 
L 145.026458 -118.949291 
L 145.717695 -119.600702 
L 146.408932 -120.125511 
L 147.100169 -120.631312 
L 147.791406 -121.185639 
L 148.482643 -121.808886 
L 149.17388 -122.452606 
L 149.865118 -123.111399 
L 150.556355 -123.737701 
L 151.247592 -124.383532 
L 151.938829 -124.753393 
L 152.630066 -125.294339 
L 153.321303 -125.928424 
L 154.01254 -126.468596 
L 154.703777 -126.877055 
L 155.395014 -127.314991 
L 156.086251 -127.887347 
L 156.777488 -128.389286 
L 157.468725 -129.121042 
L 158.159962 -129.636471 
L 158.851199 -130.290991 
L 159.542436 -131.185226 
L 160.233673 -132.507672 
L 160.92491 -134.112155 
L 161.616147 -136.165604 
L 162.307384 -138.109154 
L 162.998621 -139.778465 
L 163.689858 -141.444549 
L 164.381095 -142.670486 
L 165.072332 -143.532238 
L 165.763569 -144.190122 
L 166.454806 -144.786973 
L 167.146043 -145.203332 
L 167.83728 -145.548637 
L 168.528517 -145.694594 
L 169.219754 -145.85157 
L 169.910991 -145.969598 
L 170.602228 -146.129488 
L 171.293465 -146.162272 
L 171.984702 -146.271604 
L 172.675939 -146.23512 
L 173.367176 -146.282696 
L 174.058413 -146.430124 
L 174.74965 -146.624852 
L 175.440887 -146.818448 
L 176.132124 -147.201544 
L 176.823361 -147.240003 
L 177.514598 -147.314477 
L 178.205835 -147.557551 
L 178.897072 -147.884587 
L 179.588309 -148.233649 
L 180.279546 -148.859774 
L 180.970783 -149.457397 
L 181.66202 -150.183697 
L 182.353257 -151.363843 
L 183.044494 -152.193953 
L 183.735731 -152.960163 
L 184.426968 -153.393413 
L 185.118206 -153.789415 
L 185.809443 -153.885377 
L 186.50068 -153.816546 
L 187.191917 -153.728636 
L 187.883154 -153.755703 
L 188.574391 -153.990978 
L 189.265628 -154.229849 
L 189.956865 -154.105987 
L 190.648102 -153.809891 
L 191.339339 -153.717279 
L 192.030576 -153.717097 
L 192.721813 -153.650083 
L 193.41305 -153.450481 
L 194.104287 -153.469889 
L 194.795524 -153.332829 
L 195.486761 -153.62477 
L 196.177998 -153.715734 
L 196.869235 -153.877626 
L 197.560472 -154.06079 
L 198.251709 -154.282467 
L 198.942946 -154.829841 
L 199.634183 -155.312961 
L 200.32542 -155.753079 
L 201.016657 -156.223044 
L 201.707894 -156.745703 
L 202.399131 -157.213307 
L 203.090368 -157.327453 
L 203.781605 -157.716577 
L 204.472842 -158.229318 
L 205.164079 -158.625852 
L 205.855316 -158.725313 
L 206.546553 -158.649366 
L 207.23779 -158.486671 
L 207.929027 -158.57612 
L 208.620264 -158.836389 
L 209.311501 -159.07351 
L 210.002738 -159.234952 
L 210.693975 -159.436791 
L 211.385212 -159.539266 
L 212.076449 -159.562644 
L 212.767686 -159.591792 
L 213.458923 -159.543154 
L 214.15016 -159.301137 
L 214.841397 -159.043347 
L 215.532634 -158.629243 
L 216.223871 -158.743889 
L 216.915108 -158.592334 
L 217.606345 -158.471339 
L 218.297582 -158.351792 
L 218.988819 -158.406576 
L 219.680056 -158.277694 
L 220.371293 -158.075602 
L 221.062531 -158.016641 
L 221.753768 -157.700393 
L 222.445005 -157.455962 
L 223.136242 -157.423893 
L 223.827479 -157.376502 
L 224.518716 -157.683514 
L 225.209953 -157.769115 
L 225.90119 -157.716775 
L 226.592427 -157.665407 
L 227.283664 -157.792471 
L 227.974901 -158.12462 
L 228.666138 -158.43961 
L 229.357375 -158.929329 
L 230.048612 -159.165741 
L 230.739849 -159.309353 
L 231.431086 -159.358505 
L 232.122323 -159.035949 
L 232.81356 -158.712405 
L 233.504797 -158.509554 
L 234.196034 -158.226203 
L 234.887271 -158.25204 
L 235.578508 -158.324442 
L 236.269745 -158.702286 
L 236.960982 -158.953217 
L 237.652219 -159.566718 
L 238.343456 -160.132666 
L 239.034693 -160.764998 
L 239.72593 -161.338538 
L 240.417167 -161.875968 
L 241.108404 -162.318921 
L 241.799641 -162.561254 
L 242.490878 -162.568102 
L 243.182115 -162.419847 
L 243.873352 -162.330795 
L 244.564589 -162.280016 
L 245.255826 -162.41756 
L 245.947063 -162.71774 
L 246.6383 -162.798697 
L 247.329537 -162.901801 
L 248.020774 -163.185793 
L 248.712011 -163.418135 
L 249.403248 -163.480356 
L 250.094485 -163.846651 
L 250.785722 -164.000743 
L 251.476959 -163.797645 
L 252.168196 -163.546498 
L 252.859433 -163.718447 
L 253.55067 -163.645134 
L 254.241907 -163.506 
L 254.933144 -163.426825 
L 255.624381 -163.608272 
L 256.315619 -163.476946 
L 257.006856 -163.324276 
L 257.698093 -163.46768 
L 258.38933 -163.569435 
L 259.080567 -163.493824 
L 259.771804 -163.532285 
L 260.463041 -163.775326 
L 261.154278 -163.922429 
L 261.845515 -164.173877 
L 262.536752 -164.172351 
L 263.227989 -164.274463 
L 263.919226 -164.471823 
L 264.610463 -164.643814 
L 265.3017 -164.601605 
L 265.992937 -164.438433 
L 266.684174 -164.280466 
L 267.375411 -164.161796 
L 268.066648 -164.033966 
L 268.757885 -163.955901 
L 269.449122 -163.890922 
L 270.140359 -163.98049 
L 270.831596 -164.060088 
L 271.522833 -163.955171 
L 272.21407 -163.876516 
L 272.905307 -164.109729 
L 273.596544 -164.103759 
L 274.287781 -164.151517 
L 274.979018 -164.094643 
L 275.670255 -164.121984 
L 276.361492 -163.969343 
L 277.052729 -163.929945 
L 277.743966 -164.002167 
L 278.435203 -163.908734 
L 279.12644 -163.943201 
L 279.817677 -164.127654 
L 280.508914 -164.477182 
L 281.200151 -164.582686 
L 281.891388 -164.934874 
L 282.582625 -165.206811 
L 283.273862 -165.045869 
L 283.965099 -165.212226 
L 284.656336 -165.41057 
L 285.347573 -165.442292 
L 286.03881 -165.753835 
L 286.730047 -165.800664 
L 287.421284 -165.670332 
L 288.112521 -165.443022 
L 288.803758 -165.205438 
L 289.494995 -165.292607 
L 290.186232 -165.314203 
L 290.877469 -165.481177 
L 291.568707 -165.316656 
L 292.259944 -165.431773 
L 292.951181 -165.631112 
L 293.642418 -165.45378 
L 294.333655 -165.458424 
L 295.024892 -165.388632 
L 295.716129 -165.436027 
L 296.407366 -165.241371 
L 297.098603 -165.030975 
L 297.78984 -165.208381 
L 298.481077 -165.182771 
L 299.172314 -165.22657 
L 299.863551 -165.303089 
L 300.554788 -165.381541 
L 301.246025 -165.311741 
L 301.937262 -165.261429 
L 302.628499 -165.032121 
L 303.319736 -164.910845 
L 304.010973 -164.978537 
L 304.70221 -164.775977 
L 305.393447 -164.417864 
L 306.084684 -164.511944 
L 306.775921 -164.296058 
L 307.467158 -164.434807 
L 308.158395 -164.324327 
L 308.849632 -164.337222 
L 309.540869 -164.453825 
L 310.232106 -164.435958 
L 310.923343 -164.389723 
L 311.61458 -164.200444 
L 312.305817 -164.155718 
L 312.997054 -163.932893 
L 313.688291 -163.593924 
L 314.379528 -163.306035 
L 315.070765 -163.196685 
L 315.762002 -163.015376 
L 316.453239 -163.030213 
L 317.144476 -162.927 
L 317.835713 -162.934515 
L 318.52695 -163.002876 
L 319.218187 -163.215225 
L 319.909424 -163.32258 
L 320.600661 -163.490191 
L 321.291898 -163.466947 
L 321.983135 -163.47581 
L 322.674372 -163.262732 
L 323.365609 -163.19549 
L 324.056846 -163.177646 
L 324.748083 -163.022913 
L 325.43932 -163.126482 
L 326.130557 -163.19811 
L 326.821794 -163.409697 
L 327.513032 -163.321493 
L 328.204269 -163.402426 
L 328.895506 -163.334435 
L 329.586743 -163.742236 
L 330.27798 -163.863436 
L 330.969217 -164.156526 
L 331.660454 -164.171098 
L 332.351691 -164.46812 
L 333.042928 -164.548546 
L 333.734165 -164.63003 
L 334.425402 -164.704826 
L 335.116639 -164.529036 
L 335.807876 -164.362695 
L 336.499113 -164.294049 
L 337.19035 -164.30783 
L 337.881587 -164.581418 
L 338.572824 -164.647751 
L 339.264061 -164.815419 
L 339.955298 -165.138524 
L 340.646535 -165.430312 
L 341.337772 -165.578185 
L 342.029009 -165.948395 
L 342.720246 -166.264834 
L 343.411483 -166.570665 
L 344.10272 -166.824882 
L 344.793957 -166.964808 
L 345.485194 -167.187374 
L 346.176431 -167.395084 
L 346.867668 -167.632136 
L 347.558905 -167.647046 
L 348.250142 -167.493995 
L 348.941379 -166.980619 
L 349.632616 -166.708997 
L 350.323853 -166.370878 
L 351.01509 -166.475855 
L 351.706327 -166.673042 
L 352.397564 -167.159252 
L 353.088801 -167.455905 
L 353.780038 -167.942926 
L 354.471275 -168.647126 
L 355.162512 -169.426209 
L 355.853749 -170.120149 
L 356.544986 -170.676658 
L 357.236223 -170.948506 
L 357.92746 -171.103944 
L 358.618697 -171.218985 
L 359.309934 -171.248647 
L 360.001171 -171.142187 
L 360.692408 -171.037674 
L 361.383645 -171.009704 
L 362.074882 -171.092582 
L 362.76612 -170.872004 
L 363.457357 -170.810193 
L 364.148594 -170.593807 
L 364.839831 -170.483728 
L 365.531068 -170.057981 
L 366.222305 -169.908745 
L 366.913542 -169.543277 
L 367.604779 -169.140451 
L 368.296016 -168.768374 
L 368.987253 -168.502281 
L 369.67849 -168.157911 
L 370.369727 -167.954251 
L 371.060964 -167.585977 
L 371.752201 -167.553163 
L 372.443438 -167.417036 
L 373.134675 -167.330849 
L 373.825912 -167.344742 
L 374.517149 -167.273206 
L 375.208386 -167.622557 
L 375.899623 -167.809024 
L 376.59086 -167.940487 
L 377.282097 -168.138684 
L 377.973334 -168.403431 
L 378.664571 -168.399903 
L 379.355808 -168.681447 
L 380.047045 -168.863074 
L 380.738282 -168.88561 
L 381.429519 -168.908505 
L 382.120756 -169.053789 
L 382.811993 -169.178168 
L 383.50323 -169.272256 
L 384.194467 -169.760829 
L 384.885704 -170.116684 
L 385.576941 -170.422376 
L 386.268178 -170.75463 
L 386.959415 -171.057943 
L 387.650652 -171.390618 
L 388.341889 -171.134524 
L 389.033126 -171.0717 
L 389.724363 -171.143486 
L 390.4156 -171.137712 
L 391.106837 -171.034597 
L 391.798074 -170.970101 
L 392.489311 -170.828175 
L 393.180548 -170.786859 
L 393.871785 -170.914054 
L 394.563022 -170.70827 
L 395.254259 -170.630779 
L 395.945496 -170.776753 
L 396.636733 -171.010381 
L 397.32797 -171.048099 
L 398.019208 -171.162691 
L 398.710445 -171.289029 
L 399.401682 -171.2435 
L 400.092919 -171.426419 
L 400.784156 -171.444566 
L 401.475393 -171.704292 
L 402.16663 -172.001903 
L 402.857867 -171.873711 
L 403.549104 -171.796366 
L 404.240341 -171.917788 
L 404.931578 -171.81122 
L 405.622815 -171.46145 
L 406.314052 -171.165553 
L 407.005289 -171.035138 
L 407.696526 -170.949533 
L 408.387763 -170.705415 
L 409.079 -170.436687 
L 409.770237 -170.325653 
L 410.461474 -170.394759 
L 411.152711 -170.365894 
L 411.843948 -170.255186 
L 412.535185 -170.151273 
L 413.226422 -170.208905 
L 413.917659 -170.24969 
L 414.608896 -170.463665 
L 415.300133 -170.616262 
L 415.99137 -170.585152 
L 416.682607 -170.315666 
L 417.373844 -170.061868 
L 418.065081 -169.802824 
L 418.756318 -169.480793 
L 419.447555 -169.411991 
L 420.138792 -169.15605 
L 420.830029 -168.946477 
L 421.521266 -168.510738 
L 422.212503 -168.351975 
L 422.90374 -168.086669 
L 423.594977 -167.78338 
L 424.286214 -167.695844 
L 424.977451 -167.292733 
L 425.668688 -167.355231 
L 426.359925 -167.064753 
L 427.051162 -166.712586 
L 427.742399 -166.471052 
L 428.433636 -166.660911 
L 428.433636 -182.404959 
L 428.433636 -182.404959 
L 427.742399 -182.514424 
L 427.051162 -182.669969 
L 426.359925 -182.934877 
L 425.668688 -183.215846 
L 424.977451 -183.35928 
L 424.286214 -183.609096 
L 423.594977 -183.905059 
L 422.90374 -184.149859 
L 422.212503 -184.361483 
L 421.521266 -184.463456 
L 420.830029 -184.82785 
L 420.138792 -185.177773 
L 419.447555 -185.389528 
L 418.756318 -185.579832 
L 418.065081 -185.797742 
L 417.373844 -186.094391 
L 416.682607 -186.439743 
L 415.99137 -186.774838 
L 415.300133 -186.95449 
L 414.608896 -187.164666 
L 413.917659 -187.189607 
L 413.226422 -187.126098 
L 412.535185 -187.129954 
L 411.843948 -186.964659 
L 411.152711 -187.108711 
L 410.461474 -187.170561 
L 409.770237 -187.113102 
L 409.079 -186.995549 
L 408.387763 -187.086963 
L 407.696526 -187.205703 
L 407.005289 -187.432437 
L 406.314052 -187.497031 
L 405.622815 -187.677521 
L 404.931578 -188.119736 
L 404.240341 -188.392864 
L 403.549104 -188.521892 
L 402.857867 -188.669432 
L 402.16663 -188.718866 
L 401.475393 -188.716087 
L 400.784156 -188.610783 
L 400.092919 -188.517031 
L 399.401682 -188.429979 
L 398.710445 -188.33013 
L 398.019208 -188.169116 
L 397.32797 -188.135957 
L 396.636733 -188.099256 
L 395.945496 -188.044446 
L 395.254259 -187.821044 
L 394.563022 -187.78212 
L 393.871785 -187.775147 
L 393.180548 -187.701357 
L 392.489311 -187.546513 
L 391.798074 -187.55614 
L 391.106837 -187.65569 
L 390.4156 -187.770942 
L 389.724363 -187.746699 
L 389.033126 -187.775572 
L 388.341889 -187.783907 
L 387.650652 -188.112297 
L 386.959415 -188.102756 
L 386.268178 -188.144789 
L 385.576941 -187.946337 
L 384.885704 -187.881024 
L 384.194467 -187.624692 
L 383.50323 -186.989384 
L 382.811993 -186.577752 
L 382.120756 -186.273547 
L 381.429519 -186.007085 
L 380.738282 -185.755664 
L 380.047045 -185.688573 
L 379.355808 -185.723536 
L 378.664571 -185.645481 
L 377.973334 -185.58872 
L 377.282097 -185.548188 
L 376.59086 -185.245555 
L 375.899623 -185.050555 
L 375.208386 -184.942064 
L 374.517149 -184.740067 
L 373.825912 -184.526756 
L 373.134675 -184.219074 
L 372.443438 -184.174171 
L 371.752201 -183.897898 
L 371.060964 -183.912343 
L 370.369727 -184.009047 
L 369.67849 -184.144344 
L 368.987253 -184.37305 
L 368.296016 -184.536628 
L 367.604779 -184.860391 
L 366.913542 -185.216959 
L 366.222305 -185.47617 
L 365.531068 -185.705544 
L 364.839831 -186.048425 
L 364.148594 -186.351722 
L 363.457357 -186.53676 
L 362.76612 -186.794351 
L 362.074882 -187.003988 
L 361.383645 -187.203654 
L 360.692408 -187.429358 
L 360.001171 -187.721381 
L 359.309934 -187.991359 
L 358.618697 -187.939541 
L 357.92746 -188.067618 
L 357.236223 -188.132886 
L 356.544986 -188.048937 
L 355.853749 -188.022049 
L 355.162512 -187.705638 
L 354.471275 -187.064796 
L 353.780038 -186.52887 
L 353.088801 -185.818135 
L 352.397564 -185.217965 
L 351.706327 -184.500987 
L 351.01509 -183.877398 
L 350.323853 -183.413645 
L 349.632616 -183.136365 
L 348.941379 -183.139602 
L 348.250142 -183.237869 
L 347.558905 -183.42975 
L 346.867668 -183.709742 
L 346.176431 -183.900078 
L 345.485194 -184.074653 
L 344.793957 -184.209221 
L 344.10272 -184.29537 
L 343.411483 -184.220951 
L 342.720246 -183.948274 
L 342.029009 -183.703044 
L 341.337772 -183.262799 
L 340.646535 -182.706685 
L 339.955298 -182.498186 
L 339.264061 -182.060268 
L 338.572824 -181.654861 
L 337.881587 -181.27577 
L 337.19035 -181.055588 
L 336.499113 -180.958013 
L 335.807876 -180.622113 
L 335.116639 -180.694237 
L 334.425402 -180.867181 
L 333.734165 -180.846918 
L 333.042928 -180.858328 
L 332.351691 -180.812188 
L 331.660454 -180.877807 
L 330.969217 -180.739198 
L 330.27798 -180.570567 
L 329.586743 -180.378884 
L 328.895506 -180.105512 
L 328.204269 -179.956585 
L 327.513032 -179.720288 
L 326.821794 -179.680429 
L 326.130557 -179.621503 
L 325.43932 -179.582861 
L 324.748083 -179.619617 
L 324.056846 -179.508883 
L 323.365609 -179.441608 
L 322.674372 -179.4075 
L 321.983135 -179.551305 
L 321.291898 -179.564514 
L 320.600661 -179.488579 
L 319.909424 -179.496489 
L 319.218187 -179.563105 
L 318.52695 -179.500052 
L 317.835713 -179.503771 
L 317.144476 -179.45751 
L 316.453239 -179.457504 
L 315.762002 -179.311555 
L 315.070765 -179.242145 
L 314.379528 -179.221336 
L 313.688291 -179.239268 
L 312.997054 -179.459796 
L 312.305817 -179.714987 
L 311.61458 -179.945663 
L 310.923343 -180.075786 
L 310.232106 -180.26367 
L 309.540869 -180.46091 
L 308.849632 -180.593266 
L 308.158395 -180.554557 
L 307.467158 -180.653752 
L 306.775921 -180.708848 
L 306.084684 -180.78629 
L 305.393447 -180.739681 
L 304.70221 -180.937806 
L 304.010973 -181.240965 
L 303.319736 -181.297792 
L 302.628499 -181.222145 
L 301.937262 -181.465965 
L 301.246025 -181.625871 
L 300.554788 -181.642983 
L 299.863551 -181.685584 
L 299.172314 -181.590995 
L 298.481077 -181.570153 
L 297.78984 -181.558666 
L 297.098603 -181.5302 
L 296.407366 -181.597378 
L 295.716129 -181.723754 
L 295.024892 -181.804284 
L 294.333655 -181.966982 
L 293.642418 -181.85864 
L 292.951181 -181.887181 
L 292.259944 -181.843167 
L 291.568707 -181.889297 
L 290.877469 -181.919785 
L 290.186232 -181.880885 
L 289.494995 -181.738979 
L 288.803758 -181.696323 
L 288.112521 -181.536959 
L 287.421284 -181.7969 
L 286.730047 -181.986513 
L 286.03881 -182.140352 
L 285.347573 -182.232986 
L 284.656336 -182.226683 
L 283.965099 -182.182761 
L 283.273862 -182.140529 
L 282.582625 -182.063783 
L 281.891388 -181.955479 
L 281.200151 -181.74111 
L 280.508914 -181.586421 
L 279.817677 -181.354725 
L 279.12644 -181.20511 
L 278.435203 -180.984816 
L 277.743966 -180.870742 
L 277.052729 -180.423122 
L 276.361492 -180.242492 
L 275.670255 -180.175676 
L 274.979018 -180.08297 
L 274.287781 -180.207525 
L 273.596544 -180.177605 
L 272.905307 -180.186301 
L 272.21407 -180.169642 
L 271.522833 -180.20343 
L 270.831596 -180.3272 
L 270.140359 -180.41386 
L 269.449122 -180.281259 
L 268.757885 -180.192379 
L 268.066648 -180.109968 
L 267.375411 -180.136407 
L 266.684174 -180.167661 
L 265.992937 -180.322577 
L 265.3017 -180.542361 
L 264.610463 -180.693531 
L 263.919226 -180.829671 
L 263.227989 -180.741851 
L 262.536752 -180.823321 
L 261.845515 -180.764215 
L 261.154278 -180.739718 
L 260.463041 -180.661936 
L 259.771804 -180.390024 
L 259.080567 -180.204143 
L 258.38933 -180.023694 
L 257.698093 -179.895133 
L 257.006856 -179.778887 
L 256.315619 -179.741375 
L 255.624381 -179.797454 
L 254.933144 -179.824089 
L 254.241907 -179.86822 
L 253.55067 -179.924095 
L 252.859433 -179.899126 
L 252.168196 -179.766883 
L 251.476959 -179.954642 
L 250.785722 -180.07855 
L 250.094485 -180.150076 
L 249.403248 -180.086157 
L 248.712011 -180.128279 
L 248.020774 -179.987443 
L 247.329537 -179.936824 
L 246.6383 -179.649367 
L 245.947063 -179.411466 
L 245.255826 -179.215704 
L 244.564589 -178.87306 
L 243.873352 -178.514829 
L 243.182115 -178.483356 
L 242.490878 -178.455691 
L 241.799641 -178.573896 
L 241.108404 -178.775489 
L 240.417167 -178.781709 
L 239.72593 -178.775396 
L 239.034693 -178.603122 
L 238.343456 -178.243571 
L 237.652219 -177.650874 
L 236.960982 -177.061729 
L 236.269745 -176.440282 
L 235.578508 -175.631233 
L 234.887271 -174.813873 
L 234.196034 -174.378534 
L 233.504797 -174.184268 
L 232.81356 -174.150895 
L 232.122323 -174.303194 
L 231.431086 -174.510801 
L 230.739849 -174.743555 
L 230.048612 -174.945289 
L 229.357375 -174.948125 
L 228.666138 -175.035877 
L 227.974901 -174.819617 
L 227.283664 -174.558048 
L 226.592427 -174.336378 
L 225.90119 -173.986793 
L 225.209953 -173.879047 
L 224.518716 -173.628407 
L 223.827479 -173.436218 
L 223.136242 -173.388283 
L 222.445005 -173.234538 
L 221.753768 -173.355138 
L 221.062531 -173.487573 
L 220.371293 -173.518783 
L 219.680056 -173.599155 
L 218.988819 -173.757626 
L 218.297582 -173.871618 
L 217.606345 -173.97424 
L 216.915108 -174.121586 
L 216.223871 -174.273679 
L 215.532634 -174.450794 
L 214.841397 -174.560878 
L 214.15016 -174.504072 
L 213.458923 -174.723775 
L 212.767686 -174.962489 
L 212.076449 -175.220868 
L 211.385212 -175.344194 
L 210.693975 -175.386374 
L 210.002738 -175.404612 
L 209.311501 -175.341712 
L 208.620264 -175.229012 
L 207.929027 -175.014525 
L 207.23779 -174.792177 
L 206.546553 -174.70716 
L 205.855316 -174.851752 
L 205.164079 -174.982175 
L 204.472842 -174.794769 
L 203.781605 -174.57582 
L 203.090368 -174.366337 
L 202.399131 -174.129033 
L 201.707894 -173.941538 
L 201.016657 -173.581497 
L 200.32542 -173.325203 
L 199.634183 -173.070026 
L 198.942946 -172.509658 
L 198.251709 -171.883177 
L 197.560472 -171.227586 
L 196.869235 -170.709479 
L 196.177998 -170.198889 
L 195.486761 -169.849861 
L 194.795524 -169.468778 
L 194.104287 -169.137795 
L 193.41305 -168.993157 
L 192.721813 -168.944565 
L 192.030576 -169.054091 
L 191.339339 -169.081068 
L 190.648102 -169.195958 
L 189.956865 -169.280646 
L 189.265628 -169.420236 
L 188.574391 -169.445086 
L 187.883154 -169.4256 
L 187.191917 -169.42768 
L 186.50068 -169.583667 
L 185.809443 -169.67508 
L 185.118206 -169.768869 
L 184.426968 -169.690114 
L 183.735731 -169.683915 
L 183.044494 -169.465304 
L 182.353257 -169.2101 
L 181.66202 -168.638427 
L 180.970783 -167.743274 
L 180.279546 -166.812875 
L 179.588309 -165.789845 
L 178.897072 -164.770587 
L 178.205835 -163.810238 
L 177.514598 -163.239056 
L 176.823361 -162.958277 
L 176.132124 -162.795752 
L 175.440887 -162.644339 
L 174.74965 -162.357204 
L 174.058413 -162.128236 
L 173.367176 -161.875325 
L 172.675939 -161.703448 
L 171.984702 -161.49314 
L 171.293465 -161.466672 
L 170.602228 -161.246324 
L 169.910991 -161.064542 
L 169.219754 -161.171706 
L 168.528517 -161.069576 
L 167.83728 -160.859193 
L 167.146043 -160.775371 
L 166.454806 -160.827242 
L 165.763569 -160.599516 
L 165.072332 -160.256825 
L 164.381095 -159.940376 
L 163.689858 -159.486739 
L 162.998621 -158.747533 
L 162.307384 -157.73398 
L 161.616147 -156.32164 
L 160.92491 -154.385828 
L 160.233673 -152.169442 
L 159.542436 -150.33481 
L 158.851199 -148.553785 
L 158.159962 -147.049085 
L 157.468725 -145.763263 
L 156.777488 -144.800235 
L 156.086251 -143.764375 
L 155.395014 -143.050433 
L 154.703777 -142.335699 
L 154.01254 -141.746843 
L 153.321303 -141.332612 
L 152.630066 -140.685832 
L 151.938829 -140.27835 
L 151.247592 -139.679686 
L 150.556355 -138.964257 
L 149.865118 -138.370532 
L 149.17388 -137.702287 
L 148.482643 -136.880454 
L 147.791406 -136.144072 
L 147.100169 -135.533777 
L 146.408932 -134.8277 
L 145.717695 -134.213961 
L 145.026458 -133.657296 
L 144.335221 -132.88296 
L 143.643984 -132.344738 
L 142.952747 -131.735932 
L 142.26151 -131.095447 
L 141.570273 -130.6613 
L 140.879036 -130.261396 
L 140.187799 -129.861851 
L 139.496562 -129.463398 
L 138.805325 -129.023543 
L 138.114088 -128.703218 
L 137.422851 -128.165343 
L 136.731614 -127.59309 
L 136.040377 -127.091838 
L 135.34914 -126.452106 
L 134.657903 -125.712298 
L 133.966666 -125.002666 
L 133.275429 -124.29705 
L 132.584192 -123.709436 
L 131.892955 -123.07622 
L 131.201718 -122.485761 
L 130.510481 -121.910025 
L 129.819244 -121.282386 
L 129.128007 -120.577325 
L 128.43677 -119.915829 
L 127.745533 -119.203395 
L 127.054296 -118.361999 
L 126.363059 -117.463883 
L 125.671822 -116.463074 
L 124.980585 -115.585737 
L 124.289348 -114.623499 
L 123.598111 -113.628137 
L 122.906874 -112.540131 
L 122.215637 -111.55075 
L 121.5244 -110.48416 
L 120.833163 -109.464054 
L 120.141926 -108.663309 
L 119.450689 -107.957709 
L 118.759452 -107.333844 
L 118.068215 -106.65843 
L 117.376978 -105.815489 
L 116.685741 -104.773568 
L 115.994504 -103.763153 
L 115.303267 -102.379199 
L 114.61203 -100.822603 
L 113.920792 -99.16133 
L 113.229555 -97.286019 
L 112.538318 -95.529565 
L 111.847081 -93.97964 
L 111.155844 -92.38607 
L 110.464607 -91.126196 
L 109.77337 -89.853949 
L 109.082133 -88.737313 
L 108.390896 -87.81723 
L 107.699659 -86.589962 
L 107.008422 -85.615451 
L 106.317185 -84.730658 
L 105.625948 -83.758092 
L 104.934711 -82.87125 
L 104.243474 -81.920742 
L 103.552237 -80.977993 
L 102.861 -79.797101 
L 102.169763 -78.653545 
L 101.478526 -77.540825 
L 100.787289 -76.256733 
L 100.096052 -75.110622 
L 99.404815 -73.947027 
L 98.713578 -72.860339 
L 98.022341 -71.756043 
L 97.331104 -70.590332 
L 96.639867 -69.504814 
L 95.94863 -68.330004 
L 95.257393 -67.019563 
L 94.566156 -65.938656 
L 93.874919 -64.920572 
L 93.183682 -63.940241 
L 92.492445 -63.018457 
L 91.801208 -62.134852 
L 91.109971 -61.333698 
L 90.418734 -60.549711 
L 89.727497 -59.821836 
L 89.03626 -59.096786 
L 88.345023 -58.343101 
L 87.653786 -57.679528 
L 86.962549 -57.015527 
L 86.271312 -56.416872 
L 85.580075 -55.846751 
L 84.888838 -55.280754 
L 84.197601 -54.623935 
L 83.506364 -53.48 
z
" id="me208041362"/>
    </defs>
    <g clip-path="url(#paecfd22959)">
     <use style="fill:#00008b;fill-opacity:0.15;" x="0" xlink:href="#me208041362" y="345.6"/>
    </g>
   </g>
   <g id="matplotlib.axis_1">
    <g id="xtick_1">
     <g id="line2d_1">
      <defs>
       <path d="M 0 0 
L 0 3.5 
" id="m4528a65c97" style="stroke:#000000;stroke-width:0.8;"/>
      </defs>
      <g>
       <use style="stroke:#000000;stroke-width:0.8;" x="82.815127" xlink:href="#m4528a65c97" y="292.12"/>
      </g>
     </g>
     <g id="text_1">
      <!-- 0 -->
      <defs>
       <path d="M 31.78125 66.40625 
Q 24.171875 66.40625 20.328125 58.90625 
Q 16.5 51.421875 16.5 36.375 
Q 16.5 21.390625 20.328125 13.890625 
Q 24.171875 6.390625 31.78125 6.390625 
Q 39.453125 6.390625 43.28125 13.890625 
Q 47.125 21.390625 47.125 36.375 
Q 47.125 51.421875 43.28125 58.90625 
Q 39.453125 66.40625 31.78125 66.40625 
z
M 31.78125 74.21875 
Q 44.046875 74.21875 50.515625 64.515625 
Q 56.984375 54.828125 56.984375 36.375 
Q 56.984375 17.96875 50.515625 8.265625 
Q 44.046875 -1.421875 31.78125 -1.421875 
Q 19.53125 -1.421875 13.0625 8.265625 
Q 6.59375 17.96875 6.59375 36.375 
Q 6.59375 54.828125 13.0625 64.515625 
Q 19.53125 74.21875 31.78125 74.21875 
z
" id="DejaVuSans-48"/>
      </defs>
      <g transform="translate(78.361377 309.757812)scale(0.14 -0.14)">
       <use xlink:href="#DejaVuSans-48"/>
      </g>
     </g>
    </g>
    <g id="xtick_2">
     <g id="line2d_2">
      <g>
       <use style="stroke:#000000;stroke-width:0.8;" x="151.938829" xlink:href="#m4528a65c97" y="292.12"/>
      </g>
     </g>
     <g id="text_2">
      <!-- 100 -->
      <defs>
       <path d="M 12.40625 8.296875 
L 28.515625 8.296875 
L 28.515625 63.921875 
L 10.984375 60.40625 
L 10.984375 69.390625 
L 28.421875 72.90625 
L 38.28125 72.90625 
L 38.28125 8.296875 
L 54.390625 8.296875 
L 54.390625 0 
L 12.40625 0 
z
" id="DejaVuSans-49"/>
      </defs>
      <g transform="translate(138.577579 309.757812)scale(0.14 -0.14)">
       <use xlink:href="#DejaVuSans-49"/>
       <use x="63.623047" xlink:href="#DejaVuSans-48"/>
       <use x="127.246094" xlink:href="#DejaVuSans-48"/>
      </g>
     </g>
    </g>
    <g id="xtick_3">
     <g id="line2d_3">
      <g>
       <use style="stroke:#000000;stroke-width:0.8;" x="221.062531" xlink:href="#m4528a65c97" y="292.12"/>
      </g>
     </g>
     <g id="text_3">
      <!-- 200 -->
      <defs>
       <path d="M 19.1875 8.296875 
L 53.609375 8.296875 
L 53.609375 0 
L 7.328125 0 
L 7.328125 8.296875 
Q 12.9375 14.109375 22.625 23.890625 
Q 32.328125 33.6875 34.8125 36.53125 
Q 39.546875 41.84375 41.421875 45.53125 
Q 43.3125 49.21875 43.3125 52.78125 
Q 43.3125 58.59375 39.234375 62.25 
Q 35.15625 65.921875 28.609375 65.921875 
Q 23.96875 65.921875 18.8125 64.3125 
Q 13.671875 62.703125 7.8125 59.421875 
L 7.8125 69.390625 
Q 13.765625 71.78125 18.9375 73 
Q 24.125 74.21875 28.421875 74.21875 
Q 39.75 74.21875 46.484375 68.546875 
Q 53.21875 62.890625 53.21875 53.421875 
Q 53.21875 48.921875 51.53125 44.890625 
Q 49.859375 40.875 45.40625 35.40625 
Q 44.1875 33.984375 37.640625 27.21875 
Q 31.109375 20.453125 19.1875 8.296875 
z
" id="DejaVuSans-50"/>
      </defs>
      <g transform="translate(207.701281 309.757812)scale(0.14 -0.14)">
       <use xlink:href="#DejaVuSans-50"/>
       <use x="63.623047" xlink:href="#DejaVuSans-48"/>
       <use x="127.246094" xlink:href="#DejaVuSans-48"/>
      </g>
     </g>
    </g>
    <g id="xtick_4">
     <g id="line2d_4">
      <g>
       <use style="stroke:#000000;stroke-width:0.8;" x="290.186232" xlink:href="#m4528a65c97" y="292.12"/>
      </g>
     </g>
     <g id="text_4">
      <!-- 300 -->
      <defs>
       <path d="M 40.578125 39.3125 
Q 47.65625 37.796875 51.625 33 
Q 55.609375 28.21875 55.609375 21.1875 
Q 55.609375 10.40625 48.1875 4.484375 
Q 40.765625 -1.421875 27.09375 -1.421875 
Q 22.515625 -1.421875 17.65625 -0.515625 
Q 12.796875 0.390625 7.625 2.203125 
L 7.625 11.71875 
Q 11.71875 9.328125 16.59375 8.109375 
Q 21.484375 6.890625 26.8125 6.890625 
Q 36.078125 6.890625 40.9375 10.546875 
Q 45.796875 14.203125 45.796875 21.1875 
Q 45.796875 27.640625 41.28125 31.265625 
Q 36.765625 34.90625 28.71875 34.90625 
L 20.21875 34.90625 
L 20.21875 43.015625 
L 29.109375 43.015625 
Q 36.375 43.015625 40.234375 45.921875 
Q 44.09375 48.828125 44.09375 54.296875 
Q 44.09375 59.90625 40.109375 62.90625 
Q 36.140625 65.921875 28.71875 65.921875 
Q 24.65625 65.921875 20.015625 65.03125 
Q 15.375 64.15625 9.8125 62.3125 
L 9.8125 71.09375 
Q 15.4375 72.65625 20.34375 73.4375 
Q 25.25 74.21875 29.59375 74.21875 
Q 40.828125 74.21875 47.359375 69.109375 
Q 53.90625 64.015625 53.90625 55.328125 
Q 53.90625 49.265625 50.4375 45.09375 
Q 46.96875 40.921875 40.578125 39.3125 
z
" id="DejaVuSans-51"/>
      </defs>
      <g transform="translate(276.824982 309.757812)scale(0.14 -0.14)">
       <use xlink:href="#DejaVuSans-51"/>
       <use x="63.623047" xlink:href="#DejaVuSans-48"/>
       <use x="127.246094" xlink:href="#DejaVuSans-48"/>
      </g>
     </g>
    </g>
    <g id="xtick_5">
     <g id="line2d_5">
      <g>
       <use style="stroke:#000000;stroke-width:0.8;" x="359.309934" xlink:href="#m4528a65c97" y="292.12"/>
      </g>
     </g>
     <g id="text_5">
      <!-- 400 -->
      <defs>
       <path d="M 37.796875 64.3125 
L 12.890625 25.390625 
L 37.796875 25.390625 
z
M 35.203125 72.90625 
L 47.609375 72.90625 
L 47.609375 25.390625 
L 58.015625 25.390625 
L 58.015625 17.1875 
L 47.609375 17.1875 
L 47.609375 0 
L 37.796875 0 
L 37.796875 17.1875 
L 4.890625 17.1875 
L 4.890625 26.703125 
z
" id="DejaVuSans-52"/>
      </defs>
      <g transform="translate(345.948684 309.757812)scale(0.14 -0.14)">
       <use xlink:href="#DejaVuSans-52"/>
       <use x="63.623047" xlink:href="#DejaVuSans-48"/>
       <use x="127.246094" xlink:href="#DejaVuSans-48"/>
      </g>
     </g>
    </g>
    <g id="xtick_6">
     <g id="line2d_6">
      <g>
       <use style="stroke:#000000;stroke-width:0.8;" x="428.433636" xlink:href="#m4528a65c97" y="292.12"/>
      </g>
     </g>
     <g id="text_6">
      <!-- 500 -->
      <defs>
       <path d="M 10.796875 72.90625 
L 49.515625 72.90625 
L 49.515625 64.59375 
L 19.828125 64.59375 
L 19.828125 46.734375 
Q 21.96875 47.46875 24.109375 47.828125 
Q 26.265625 48.1875 28.421875 48.1875 
Q 40.625 48.1875 47.75 41.5 
Q 54.890625 34.8125 54.890625 23.390625 
Q 54.890625 11.625 47.5625 5.09375 
Q 40.234375 -1.421875 26.90625 -1.421875 
Q 22.3125 -1.421875 17.546875 -0.640625 
Q 12.796875 0.140625 7.71875 1.703125 
L 7.71875 11.625 
Q 12.109375 9.234375 16.796875 8.0625 
Q 21.484375 6.890625 26.703125 6.890625 
Q 35.15625 6.890625 40.078125 11.328125 
Q 45.015625 15.765625 45.015625 23.390625 
Q 45.015625 31 40.078125 35.4375 
Q 35.15625 39.890625 26.703125 39.890625 
Q 22.75 39.890625 18.8125 39.015625 
Q 14.890625 38.140625 10.796875 36.28125 
z
" id="DejaVuSans-53"/>
      </defs>
      <g transform="translate(415.072386 309.757812)scale(0.14 -0.14)">
       <use xlink:href="#DejaVuSans-53"/>
       <use x="63.623047" xlink:href="#DejaVuSans-48"/>
       <use x="127.246094" xlink:href="#DejaVuSans-48"/>
      </g>
     </g>
    </g>
    <g id="text_7">
     <!-- generations -->
     <defs>
      <path d="M 45.40625 27.984375 
Q 45.40625 37.75 41.375 43.109375 
Q 37.359375 48.484375 30.078125 48.484375 
Q 22.859375 48.484375 18.828125 43.109375 
Q 14.796875 37.75 14.796875 27.984375 
Q 14.796875 18.265625 18.828125 12.890625 
Q 22.859375 7.515625 30.078125 7.515625 
Q 37.359375 7.515625 41.375 12.890625 
Q 45.40625 18.265625 45.40625 27.984375 
z
M 54.390625 6.78125 
Q 54.390625 -7.171875 48.1875 -13.984375 
Q 42 -20.796875 29.203125 -20.796875 
Q 24.46875 -20.796875 20.265625 -20.09375 
Q 16.0625 -19.390625 12.109375 -17.921875 
L 12.109375 -9.1875 
Q 16.0625 -11.328125 19.921875 -12.34375 
Q 23.78125 -13.375 27.78125 -13.375 
Q 36.625 -13.375 41.015625 -8.765625 
Q 45.40625 -4.15625 45.40625 5.171875 
L 45.40625 9.625 
Q 42.625 4.78125 38.28125 2.390625 
Q 33.9375 0 27.875 0 
Q 17.828125 0 11.671875 7.65625 
Q 5.515625 15.328125 5.515625 27.984375 
Q 5.515625 40.671875 11.671875 48.328125 
Q 17.828125 56 27.875 56 
Q 33.9375 56 38.28125 53.609375 
Q 42.625 51.21875 45.40625 46.390625 
L 45.40625 54.6875 
L 54.390625 54.6875 
z
" id="DejaVuSans-103"/>
      <path d="M 56.203125 29.59375 
L 56.203125 25.203125 
L 14.890625 25.203125 
Q 15.484375 15.921875 20.484375 11.0625 
Q 25.484375 6.203125 34.421875 6.203125 
Q 39.59375 6.203125 44.453125 7.46875 
Q 49.3125 8.734375 54.109375 11.28125 
L 54.109375 2.78125 
Q 49.265625 0.734375 44.1875 -0.34375 
Q 39.109375 -1.421875 33.890625 -1.421875 
Q 20.796875 -1.421875 13.15625 6.1875 
Q 5.515625 13.8125 5.515625 26.8125 
Q 5.515625 40.234375 12.765625 48.109375 
Q 20.015625 56 32.328125 56 
Q 43.359375 56 49.78125 48.890625 
Q 56.203125 41.796875 56.203125 29.59375 
z
M 47.21875 32.234375 
Q 47.125 39.59375 43.09375 43.984375 
Q 39.0625 48.390625 32.421875 48.390625 
Q 24.90625 48.390625 20.390625 44.140625 
Q 15.875 39.890625 15.1875 32.171875 
z
" id="DejaVuSans-101"/>
      <path d="M 54.890625 33.015625 
L 54.890625 0 
L 45.90625 0 
L 45.90625 32.71875 
Q 45.90625 40.484375 42.875 44.328125 
Q 39.84375 48.1875 33.796875 48.1875 
Q 26.515625 48.1875 22.3125 43.546875 
Q 18.109375 38.921875 18.109375 30.90625 
L 18.109375 0 
L 9.078125 0 
L 9.078125 54.6875 
L 18.109375 54.6875 
L 18.109375 46.1875 
Q 21.34375 51.125 25.703125 53.5625 
Q 30.078125 56 35.796875 56 
Q 45.21875 56 50.046875 50.171875 
Q 54.890625 44.34375 54.890625 33.015625 
z
" id="DejaVuSans-110"/>
      <path d="M 41.109375 46.296875 
Q 39.59375 47.171875 37.8125 47.578125 
Q 36.03125 48 33.890625 48 
Q 26.265625 48 22.1875 43.046875 
Q 18.109375 38.09375 18.109375 28.8125 
L 18.109375 0 
L 9.078125 0 
L 9.078125 54.6875 
L 18.109375 54.6875 
L 18.109375 46.1875 
Q 20.953125 51.171875 25.484375 53.578125 
Q 30.03125 56 36.53125 56 
Q 37.453125 56 38.578125 55.875 
Q 39.703125 55.765625 41.0625 55.515625 
z
" id="DejaVuSans-114"/>
      <path d="M 34.28125 27.484375 
Q 23.390625 27.484375 19.1875 25 
Q 14.984375 22.515625 14.984375 16.5 
Q 14.984375 11.71875 18.140625 8.90625 
Q 21.296875 6.109375 26.703125 6.109375 
Q 34.1875 6.109375 38.703125 11.40625 
Q 43.21875 16.703125 43.21875 25.484375 
L 43.21875 27.484375 
z
M 52.203125 31.203125 
L 52.203125 0 
L 43.21875 0 
L 43.21875 8.296875 
Q 40.140625 3.328125 35.546875 0.953125 
Q 30.953125 -1.421875 24.3125 -1.421875 
Q 15.921875 -1.421875 10.953125 3.296875 
Q 6 8.015625 6 15.921875 
Q 6 25.140625 12.171875 29.828125 
Q 18.359375 34.515625 30.609375 34.515625 
L 43.21875 34.515625 
L 43.21875 35.40625 
Q 43.21875 41.609375 39.140625 45 
Q 35.0625 48.390625 27.6875 48.390625 
Q 23 48.390625 18.546875 47.265625 
Q 14.109375 46.140625 10.015625 43.890625 
L 10.015625 52.203125 
Q 14.9375 54.109375 19.578125 55.046875 
Q 24.21875 56 28.609375 56 
Q 40.484375 56 46.34375 49.84375 
Q 52.203125 43.703125 52.203125 31.203125 
z
" id="DejaVuSans-97"/>
      <path d="M 18.3125 70.21875 
L 18.3125 54.6875 
L 36.8125 54.6875 
L 36.8125 47.703125 
L 18.3125 47.703125 
L 18.3125 18.015625 
Q 18.3125 11.328125 20.140625 9.421875 
Q 21.96875 7.515625 27.59375 7.515625 
L 36.8125 7.515625 
L 36.8125 0 
L 27.59375 0 
Q 17.1875 0 13.234375 3.875 
Q 9.28125 7.765625 9.28125 18.015625 
L 9.28125 47.703125 
L 2.6875 47.703125 
L 2.6875 54.6875 
L 9.28125 54.6875 
L 9.28125 70.21875 
z
" id="DejaVuSans-116"/>
      <path d="M 9.421875 54.6875 
L 18.40625 54.6875 
L 18.40625 0 
L 9.421875 0 
z
M 9.421875 75.984375 
L 18.40625 75.984375 
L 18.40625 64.59375 
L 9.421875 64.59375 
z
" id="DejaVuSans-105"/>
      <path d="M 30.609375 48.390625 
Q 23.390625 48.390625 19.1875 42.75 
Q 14.984375 37.109375 14.984375 27.296875 
Q 14.984375 17.484375 19.15625 11.84375 
Q 23.34375 6.203125 30.609375 6.203125 
Q 37.796875 6.203125 41.984375 11.859375 
Q 46.1875 17.53125 46.1875 27.296875 
Q 46.1875 37.015625 41.984375 42.703125 
Q 37.796875 48.390625 30.609375 48.390625 
z
M 30.609375 56 
Q 42.328125 56 49.015625 48.375 
Q 55.71875 40.765625 55.71875 27.296875 
Q 55.71875 13.875 49.015625 6.21875 
Q 42.328125 -1.421875 30.609375 -1.421875 
Q 18.84375 -1.421875 12.171875 6.21875 
Q 5.515625 13.875 5.515625 27.296875 
Q 5.515625 40.765625 12.171875 48.375 
Q 18.84375 56 30.609375 56 
z
" id="DejaVuSans-111"/>
      <path d="M 44.28125 53.078125 
L 44.28125 44.578125 
Q 40.484375 46.53125 36.375 47.5 
Q 32.28125 48.484375 27.875 48.484375 
Q 21.1875 48.484375 17.84375 46.4375 
Q 14.5 44.390625 14.5 40.28125 
Q 14.5 37.15625 16.890625 35.375 
Q 19.28125 33.59375 26.515625 31.984375 
L 29.59375 31.296875 
Q 39.15625 29.25 43.1875 25.515625 
Q 47.21875 21.78125 47.21875 15.09375 
Q 47.21875 7.46875 41.1875 3.015625 
Q 35.15625 -1.421875 24.609375 -1.421875 
Q 20.21875 -1.421875 15.453125 -0.5625 
Q 10.6875 0.296875 5.421875 2 
L 5.421875 11.28125 
Q 10.40625 8.6875 15.234375 7.390625 
Q 20.0625 6.109375 24.8125 6.109375 
Q 31.15625 6.109375 34.5625 8.28125 
Q 37.984375 10.453125 37.984375 14.40625 
Q 37.984375 18.0625 35.515625 20.015625 
Q 33.0625 21.96875 24.703125 23.78125 
L 21.578125 24.515625 
Q 13.234375 26.265625 9.515625 29.90625 
Q 5.8125 33.546875 5.8125 39.890625 
Q 5.8125 47.609375 11.28125 51.796875 
Q 16.75 56 26.8125 56 
Q 31.78125 56 36.171875 55.265625 
Q 40.578125 54.546875 44.28125 53.078125 
z
" id="DejaVuSans-115"/>
     </defs>
     <g transform="translate(214.253281 327.307187)scale(0.14 -0.14)">
      <use xlink:href="#DejaVuSans-103"/>
      <use x="63.476562" xlink:href="#DejaVuSans-101"/>
      <use x="125" xlink:href="#DejaVuSans-110"/>
      <use x="188.378906" xlink:href="#DejaVuSans-101"/>
      <use x="249.902344" xlink:href="#DejaVuSans-114"/>
      <use x="291.015625" xlink:href="#DejaVuSans-97"/>
      <use x="352.294922" xlink:href="#DejaVuSans-116"/>
      <use x="391.503906" xlink:href="#DejaVuSans-105"/>
      <use x="419.287109" xlink:href="#DejaVuSans-111"/>
      <use x="480.46875" xlink:href="#DejaVuSans-110"/>
      <use x="543.847656" xlink:href="#DejaVuSans-115"/>
     </g>
    </g>
   </g>
   <g id="matplotlib.axis_2">
    <g id="ytick_1">
     <g id="line2d_7">
      <defs>
       <path d="M 0 0 
L -3.5 0 
" id="m9938d3890c" style="stroke:#000000;stroke-width:0.8;"/>
      </defs>
      <g>
       <use style="stroke:#000000;stroke-width:0.8;" x="66.26" xlink:href="#m9938d3890c" y="292.12"/>
      </g>
     </g>
     <g id="text_8">
      <!-- 0 -->
      <g transform="translate(50.3525 297.438906)scale(0.14 -0.14)">
       <use xlink:href="#DejaVuSans-48"/>
      </g>
     </g>
    </g>
    <g id="ytick_2">
     <g id="line2d_8">
      <g>
       <use style="stroke:#000000;stroke-width:0.8;" x="66.26" xlink:href="#m9938d3890c" y="237.8"/>
      </g>
     </g>
     <g id="text_9">
      <!-- 20 -->
      <g transform="translate(41.445 243.118906)scale(0.14 -0.14)">
       <use xlink:href="#DejaVuSans-50"/>
       <use x="63.623047" xlink:href="#DejaVuSans-48"/>
      </g>
     </g>
    </g>
    <g id="ytick_3">
     <g id="line2d_9">
      <g>
       <use style="stroke:#000000;stroke-width:0.8;" x="66.26" xlink:href="#m9938d3890c" y="183.48"/>
      </g>
     </g>
     <g id="text_10">
      <!-- 40 -->
      <g transform="translate(41.445 188.798906)scale(0.14 -0.14)">
       <use xlink:href="#DejaVuSans-52"/>
       <use x="63.623047" xlink:href="#DejaVuSans-48"/>
      </g>
     </g>
    </g>
    <g id="ytick_4">
     <g id="line2d_10">
      <g>
       <use style="stroke:#000000;stroke-width:0.8;" x="66.26" xlink:href="#m9938d3890c" y="129.16"/>
      </g>
     </g>
     <g id="text_11">
      <!-- 60 -->
      <defs>
       <path d="M 33.015625 40.375 
Q 26.375 40.375 22.484375 35.828125 
Q 18.609375 31.296875 18.609375 23.390625 
Q 18.609375 15.53125 22.484375 10.953125 
Q 26.375 6.390625 33.015625 6.390625 
Q 39.65625 6.390625 43.53125 10.953125 
Q 47.40625 15.53125 47.40625 23.390625 
Q 47.40625 31.296875 43.53125 35.828125 
Q 39.65625 40.375 33.015625 40.375 
z
M 52.59375 71.296875 
L 52.59375 62.3125 
Q 48.875 64.0625 45.09375 64.984375 
Q 41.3125 65.921875 37.59375 65.921875 
Q 27.828125 65.921875 22.671875 59.328125 
Q 17.53125 52.734375 16.796875 39.40625 
Q 19.671875 43.65625 24.015625 45.921875 
Q 28.375 48.1875 33.59375 48.1875 
Q 44.578125 48.1875 50.953125 41.515625 
Q 57.328125 34.859375 57.328125 23.390625 
Q 57.328125 12.15625 50.6875 5.359375 
Q 44.046875 -1.421875 33.015625 -1.421875 
Q 20.359375 -1.421875 13.671875 8.265625 
Q 6.984375 17.96875 6.984375 36.375 
Q 6.984375 53.65625 15.1875 63.9375 
Q 23.390625 74.21875 37.203125 74.21875 
Q 40.921875 74.21875 44.703125 73.484375 
Q 48.484375 72.75 52.59375 71.296875 
z
" id="DejaVuSans-54"/>
      </defs>
      <g transform="translate(41.445 134.478906)scale(0.14 -0.14)">
       <use xlink:href="#DejaVuSans-54"/>
       <use x="63.623047" xlink:href="#DejaVuSans-48"/>
      </g>
     </g>
    </g>
    <g id="ytick_5">
     <g id="line2d_11">
      <g>
       <use style="stroke:#000000;stroke-width:0.8;" x="66.26" xlink:href="#m9938d3890c" y="74.84"/>
      </g>
     </g>
     <g id="text_12">
      <!-- 80 -->
      <defs>
       <path d="M 31.78125 34.625 
Q 24.75 34.625 20.71875 30.859375 
Q 16.703125 27.09375 16.703125 20.515625 
Q 16.703125 13.921875 20.71875 10.15625 
Q 24.75 6.390625 31.78125 6.390625 
Q 38.8125 6.390625 42.859375 10.171875 
Q 46.921875 13.96875 46.921875 20.515625 
Q 46.921875 27.09375 42.890625 30.859375 
Q 38.875 34.625 31.78125 34.625 
z
M 21.921875 38.8125 
Q 15.578125 40.375 12.03125 44.71875 
Q 8.5 49.078125 8.5 55.328125 
Q 8.5 64.0625 14.71875 69.140625 
Q 20.953125 74.21875 31.78125 74.21875 
Q 42.671875 74.21875 48.875 69.140625 
Q 55.078125 64.0625 55.078125 55.328125 
Q 55.078125 49.078125 51.53125 44.71875 
Q 48 40.375 41.703125 38.8125 
Q 48.828125 37.15625 52.796875 32.3125 
Q 56.78125 27.484375 56.78125 20.515625 
Q 56.78125 9.90625 50.3125 4.234375 
Q 43.84375 -1.421875 31.78125 -1.421875 
Q 19.734375 -1.421875 13.25 4.234375 
Q 6.78125 9.90625 6.78125 20.515625 
Q 6.78125 27.484375 10.78125 32.3125 
Q 14.796875 37.15625 21.921875 38.8125 
z
M 18.3125 54.390625 
Q 18.3125 48.734375 21.84375 45.5625 
Q 25.390625 42.390625 31.78125 42.390625 
Q 38.140625 42.390625 41.71875 45.5625 
Q 45.3125 48.734375 45.3125 54.390625 
Q 45.3125 60.0625 41.71875 63.234375 
Q 38.140625 66.40625 31.78125 66.40625 
Q 25.390625 66.40625 21.84375 63.234375 
Q 18.3125 60.0625 18.3125 54.390625 
z
" id="DejaVuSans-56"/>
      </defs>
      <g transform="translate(41.445 80.158906)scale(0.14 -0.14)">
       <use xlink:href="#DejaVuSans-56"/>
       <use x="63.623047" xlink:href="#DejaVuSans-48"/>
      </g>
     </g>
    </g>
    <g id="ytick_6">
     <g id="line2d_12">
      <g>
       <use style="stroke:#000000;stroke-width:0.8;" x="66.26" xlink:href="#m9938d3890c" y="20.52"/>
      </g>
     </g>
     <g id="text_13">
      <!-- 100 -->
      <g transform="translate(32.5375 25.838906)scale(0.14 -0.14)">
       <use xlink:href="#DejaVuSans-49"/>
       <use x="63.623047" xlink:href="#DejaVuSans-48"/>
       <use x="127.246094" xlink:href="#DejaVuSans-48"/>
      </g>
     </g>
    </g>
    <g id="text_14">
     <!-- # good genes -->
     <defs>
      <path d="M 51.125 44 
L 36.921875 44 
L 32.8125 27.6875 
L 47.125 27.6875 
z
M 43.796875 71.78125 
L 38.71875 51.515625 
L 52.984375 51.515625 
L 58.109375 71.78125 
L 65.921875 71.78125 
L 60.890625 51.515625 
L 76.125 51.515625 
L 76.125 44 
L 58.984375 44 
L 54.984375 27.6875 
L 70.515625 27.6875 
L 70.515625 20.21875 
L 53.078125 20.21875 
L 48 0 
L 40.1875 0 
L 45.21875 20.21875 
L 30.90625 20.21875 
L 25.875 0 
L 18.015625 0 
L 23.09375 20.21875 
L 7.71875 20.21875 
L 7.71875 27.6875 
L 24.90625 27.6875 
L 29 44 
L 13.28125 44 
L 13.28125 51.515625 
L 30.90625 51.515625 
L 35.890625 71.78125 
z
" id="DejaVuSans-35"/>
      <path id="DejaVuSans-32"/>
      <path d="M 45.40625 46.390625 
L 45.40625 75.984375 
L 54.390625 75.984375 
L 54.390625 0 
L 45.40625 0 
L 45.40625 8.203125 
Q 42.578125 3.328125 38.25 0.953125 
Q 33.9375 -1.421875 27.875 -1.421875 
Q 17.96875 -1.421875 11.734375 6.484375 
Q 5.515625 14.40625 5.515625 27.296875 
Q 5.515625 40.1875 11.734375 48.09375 
Q 17.96875 56 27.875 56 
Q 33.9375 56 38.25 53.625 
Q 42.578125 51.265625 45.40625 46.390625 
z
M 14.796875 27.296875 
Q 14.796875 17.390625 18.875 11.75 
Q 22.953125 6.109375 30.078125 6.109375 
Q 37.203125 6.109375 41.296875 11.75 
Q 45.40625 17.390625 45.40625 27.296875 
Q 45.40625 37.203125 41.296875 42.84375 
Q 37.203125 48.484375 30.078125 48.484375 
Q 22.953125 48.484375 18.875 42.84375 
Q 14.796875 37.203125 14.796875 27.296875 
z
" id="DejaVuSans-100"/>
     </defs>
     <g transform="translate(25.625938 205.230312)rotate(-90)scale(0.14 -0.14)">
      <use xlink:href="#DejaVuSans-35"/>
      <use x="83.789062" xlink:href="#DejaVuSans-32"/>
      <use x="115.576172" xlink:href="#DejaVuSans-103"/>
      <use x="179.052734" xlink:href="#DejaVuSans-111"/>
      <use x="240.234375" xlink:href="#DejaVuSans-111"/>
      <use x="301.416016" xlink:href="#DejaVuSans-100"/>
      <use x="364.892578" xlink:href="#DejaVuSans-32"/>
      <use x="396.679688" xlink:href="#DejaVuSans-103"/>
      <use x="460.15625" xlink:href="#DejaVuSans-101"/>
      <use x="521.679688" xlink:href="#DejaVuSans-110"/>
      <use x="585.058594" xlink:href="#DejaVuSans-101"/>
      <use x="646.582031" xlink:href="#DejaVuSans-115"/>
     </g>
    </g>
   </g>
   <g id="line2d_13">
    <path clip-path="url(#paecfd22959)" d="M 83.506364 292.12 
L 86.271312 290.927404 
L 88.345023 289.755179 
L 90.418734 288.314341 
L 91.801208 287.069326 
L 94.566156 284.166737 
L 96.639867 281.365183 
L 98.713578 278.060354 
L 100.787289 273.936108 
L 102.861 269.424561 
L 104.243474 265.628679 
L 106.317185 259.435656 
L 107.699659 254.594386 
L 110.464607 243.523698 
L 111.847081 237.437414 
L 116.685741 212.600952 
L 124.289348 168.537383 
L 126.363059 155.819441 
L 128.43677 144.304416 
L 131.201718 131.589734 
L 132.584192 125.966256 
L 134.657903 118.640932 
L 136.040377 114.212222 
L 138.805325 106.75463 
L 142.26151 98.921414 
L 144.335221 95.630437 
L 145.717695 93.521734 
L 147.100169 91.268269 
L 148.482643 89.70168 
L 150.556355 87.977835 
L 151.938829 87.167924 
L 156.777488 84.400592 
L 158.851199 83.070566 
L 159.542436 82.843237 
L 160.233673 82.445343 
L 162.998621 82.088189 
L 163.689858 81.746788 
L 164.381095 81.280451 
L 165.763569 81.006678 
L 166.454806 81.027863 
L 167.146043 80.7473 
L 168.528517 80.697326 
L 169.910991 80.41459 
L 170.602228 80.136472 
L 171.293465 80.273901 
L 172.675939 80.003116 
L 174.058413 80.117188 
L 174.74965 79.962104 
L 176.132124 79.900994 
L 176.823361 80.116645 
L 178.897072 80.314913 
L 180.279546 80.359184 
L 181.66202 80.264124 
L 183.044494 80.101978 
L 183.735731 79.978129 
L 184.426968 80.020498 
L 186.50068 79.788009 
L 187.191917 79.473496 
L 188.574391 79.799688 
L 189.265628 79.745911 
L 189.956865 79.55226 
L 191.339339 79.724183 
L 196.177998 79.372461 
L 197.560472 79.237204 
L 198.251709 79.365128 
L 199.634183 79.43683 
L 201.016657 79.928969 
L 201.707894 79.884155 
L 202.399131 79.630481 
L 203.090368 79.736405 
L 205.164079 79.747812 
L 207.23779 80.019412 
L 207.929027 79.903439 
L 210.002738 80.078349 
L 210.693975 80.214149 
L 212.076449 80.203557 
L 213.458923 79.603321 
L 214.15016 79.617172 
L 214.841397 79.458286 
L 215.532634 79.488434 
L 216.223871 79.687788 
L 216.915108 79.577519 
L 217.606345 79.651122 
L 218.297582 79.837168 
L 221.753768 79.393917 
L 223.827479 79.239648 
L 224.518716 79.066911 
L 225.209953 78.760003 
L 229.357375 79.268981 
L 230.739849 79.28582 
L 231.431086 79.2315 
L 232.122323 79.063652 
L 233.504797 79.016122 
L 234.196034 78.824915 
L 235.578508 78.860766 
L 236.269745 78.960172 
L 236.960982 78.884667 
L 238.343456 79.095429 
L 239.72593 79.450138 
L 240.417167 79.384954 
L 242.490878 79.647863 
L 243.182115 79.48273 
L 244.564589 79.793169 
L 245.255826 79.657098 
L 245.947063 79.729072 
L 247.329537 79.576432 
L 248.020774 79.753244 
L 249.403248 79.775244 
L 251.476959 80.225556 
L 252.168196 80.054992 
L 253.55067 80.373578 
L 254.241907 80.435232 
L 256.315619 80.074275 
L 257.006856 79.745911 
L 257.698093 79.656826 
L 258.38933 79.916747 
L 259.080567 79.983561 
L 259.771804 79.818156 
L 260.463041 79.356165 
L 263.227989 79.283376 
L 263.919226 79.085108 
L 265.3017 79.137527 
L 266.684174 79.300215 
L 267.375411 79.219278 
L 270.140359 79.452311 
L 270.831596 79.229599 
L 274.287781 78.902864 
L 275.670255 79.079948 
L 276.361492 79.137527 
L 277.052729 78.882223 
L 277.743966 78.868914 
L 278.435203 78.613067 
L 279.12644 78.733658 
L 279.817677 78.72551 
L 280.508914 79.023183 
L 281.200151 78.798298 
L 281.891388 78.798298 
L 283.273862 79.188316 
L 283.965099 78.933012 
L 286.730047 78.777114 
L 287.421284 78.636696 
L 288.803758 78.797755 
L 291.568707 78.876791 
L 292.259944 78.769509 
L 292.951181 78.880593 
L 293.642418 78.857507 
L 294.333655 78.965876 
L 295.024892 78.831705 
L 295.716129 78.835508 
L 296.407366 78.602746 
L 297.78984 78.448206 
L 298.481077 78.691288 
L 299.172314 78.81378 
L 299.863551 79.058491 
L 304.70221 78.97348 
L 305.393447 79.123404 
L 308.158395 78.924592 
L 308.849632 78.981357 
L 309.540869 79.15681 
L 310.232106 79.199995 
L 312.305817 78.901506 
L 312.997054 79.001455 
L 313.688291 78.984073 
L 314.379528 79.128292 
L 315.762002 79.105478 
L 317.835713 78.777657 
L 318.52695 78.66793 
L 321.291898 78.933827 
L 322.674372 78.901506 
L 323.365609 79.217649 
L 324.056846 79.117157 
L 326.130557 79.492236 
L 326.821794 79.246167 
L 327.513032 79.127206 
L 328.204269 79.328733 
L 328.895506 79.343943 
L 329.586743 79.64895 
L 331.660454 79.741022 
L 333.734165 79.505002 
L 334.425402 79.659542 
L 337.881587 79.483274 
L 338.572824 79.201896 
L 339.264061 79.097058 
L 339.955298 79.12286 
L 340.646535 79.307005 
L 344.793957 79.427324 
L 345.485194 79.494952 
L 346.176431 79.386856 
L 346.867668 79.448509 
L 347.558905 79.323573 
L 350.323853 79.7288 
L 351.01509 79.720924 
L 351.706327 79.527816 
L 352.397564 79.675295 
L 357.92746 79.114169 
L 358.618697 79.088096 
L 360.001171 79.168761 
L 362.76612 79.326832 
L 364.148594 79.420806 
L 365.531068 79.580778 
L 366.222305 79.36051 
L 366.913542 79.288808 
L 367.604779 79.069627 
L 369.67849 79.684529 
L 371.060964 79.691048 
L 371.752201 79.925167 
L 374.517149 80.110126 
L 377.282097 79.746726 
L 377.973334 79.490064 
L 380.738282 79.142687 
L 382.120756 79.249698 
L 383.50323 79.175551 
L 384.194467 79.310264 
L 386.268178 79.240463 
L 386.959415 79.052788 
L 387.650652 79.17039 
L 388.341889 79.418904 
L 389.033126 79.441176 
L 389.724363 79.2994 
L 390.4156 79.317054 
L 392.489311 79.030516 
L 397.32797 79.081849 
L 398.019208 79.038664 
L 398.710445 78.812693 
L 399.401682 79.074244 
L 400.784156 78.815138 
L 401.475393 78.831977 
L 402.16663 79.001727 
L 402.857867 78.933827 
L 403.549104 79.02264 
L 404.931578 78.891729 
L 405.622815 78.762447 
L 413.226422 79.310536 
L 413.917659 79.555791 
L 414.608896 79.408855 
L 415.300133 79.405053 
L 415.99137 79.259204 
L 416.682607 79.465348 
L 417.373844 79.491693 
L 418.756318 79.155724 
L 419.447555 79.193476 
L 420.138792 78.92242 
L 420.830029 78.806718 
L 422.212503 78.352331 
L 423.594977 78.475366 
L 424.286214 78.534032 
L 424.977451 78.854248 
L 425.668688 78.989776 
L 426.359925 79.265179 
L 427.051162 79.3673 
L 428.433636 79.230686 
L 428.433636 79.230686 
" style="fill:none;stroke:#b22222;stroke-linecap:square;stroke-width:1.5;"/>
   </g>
   <g id="line2d_14">
    <path clip-path="url(#paecfd22959)" d="M 83.506364 292.12 
L 86.271312 290.950762 
L 87.653786 290.205492 
L 89.727497 288.795344 
L 91.801208 287.100832 
L 93.183682 285.805028 
L 94.566156 284.276192 
L 95.94863 282.370103 
L 99.404815 277.318343 
L 106.317185 266.798732 
L 107.699659 265.020567 
L 108.390896 263.924932 
L 109.77337 262.072892 
L 111.155844 259.967449 
L 113.229555 255.990953 
L 115.994504 249.603193 
L 117.376978 247.126472 
L 118.759452 245.110114 
L 121.5244 242.013602 
L 127.745533 233.747456 
L 129.819244 231.287304 
L 131.201718 230.06456 
L 134.657903 227.062837 
L 136.040377 225.64427 
L 137.422851 224.561401 
L 138.805325 223.429372 
L 141.570273 221.825303 
L 142.26151 221.467062 
L 147.791406 216.935145 
L 151.247592 213.568391 
L 152.630066 212.609915 
L 153.321303 211.969482 
L 155.395014 210.417288 
L 156.777488 209.00524 
L 158.159962 207.257222 
L 158.851199 206.177612 
L 160.233673 203.261443 
L 162.307384 197.678433 
L 163.689858 195.134356 
L 164.381095 194.294569 
L 165.763569 193.205181 
L 166.454806 192.792892 
L 169.219754 192.088362 
L 169.910991 192.08293 
L 171.293465 191.785528 
L 173.367176 191.52099 
L 175.440887 190.868606 
L 176.132124 190.601352 
L 177.514598 190.323234 
L 178.205835 189.916105 
L 179.588309 188.588253 
L 182.353257 185.313028 
L 183.735731 184.277961 
L 185.118206 183.820858 
L 186.50068 183.899894 
L 187.191917 184.021842 
L 187.883154 184.009348 
L 189.265628 183.774958 
L 192.030576 184.214406 
L 193.41305 184.378181 
L 194.795524 184.199197 
L 198.251709 182.517178 
L 199.634183 181.408507 
L 203.090368 179.753105 
L 205.164079 178.795986 
L 206.546553 178.921737 
L 207.23779 178.960576 
L 210.693975 178.188417 
L 212.076449 178.208244 
L 213.458923 178.466536 
L 214.15016 178.697396 
L 214.841397 178.797888 
L 215.532634 179.059982 
L 216.223871 179.091216 
L 218.297582 179.488295 
L 218.988819 179.517899 
L 222.445005 180.25475 
L 223.827479 180.19364 
L 225.209953 179.775919 
L 225.90119 179.748216 
L 227.283664 179.42474 
L 228.666138 178.862257 
L 230.048612 178.544485 
L 231.431086 178.665347 
L 232.81356 179.16835 
L 234.196034 179.297632 
L 234.887271 179.067043 
L 235.578508 178.622162 
L 236.269745 178.028716 
L 236.960982 177.592527 
L 239.034693 175.91594 
L 240.417167 175.271162 
L 241.108404 175.052795 
L 242.490878 175.088103 
L 243.873352 175.177188 
L 245.255826 174.783368 
L 246.6383 174.375968 
L 248.712011 173.826793 
L 249.403248 173.816744 
L 250.094485 173.601636 
L 250.785722 173.560353 
L 252.168196 173.943309 
L 252.859433 173.791213 
L 256.315619 173.990839 
L 257.006856 174.048418 
L 262.536752 173.102164 
L 263.227989 173.091843 
L 263.919226 172.949253 
L 264.610463 172.931328 
L 265.992937 173.219495 
L 267.375411 173.450898 
L 268.757885 173.52586 
L 277.052729 173.423467 
L 277.743966 173.163546 
L 278.435203 173.153225 
L 279.817677 172.85881 
L 280.508914 172.568198 
L 281.200151 172.438102 
L 282.582625 171.964703 
L 283.273862 172.006801 
L 286.03881 171.652906 
L 287.421284 171.866384 
L 288.112521 172.110009 
L 289.494995 172.084207 
L 290.877469 171.899519 
L 291.568707 171.997024 
L 294.333655 171.887297 
L 297.098603 172.319413 
L 298.481077 172.223538 
L 301.246025 172.131194 
L 301.937262 172.236303 
L 302.628499 172.472867 
L 304.010973 172.490249 
L 305.393447 173.021227 
L 306.084684 172.950883 
L 306.775921 173.097547 
L 307.467158 173.05572 
L 308.158395 173.160558 
L 309.540869 173.142632 
L 312.305817 173.664648 
L 314.379528 174.336314 
L 315.762002 174.436535 
L 316.453239 174.356141 
L 317.835713 174.380857 
L 319.909424 174.190465 
L 321.291898 174.08427 
L 321.983135 174.086442 
L 322.674372 174.264884 
L 325.43932 174.245328 
L 328.895506 173.880026 
L 329.586743 173.53944 
L 332.351691 172.959846 
L 334.425402 172.813996 
L 335.807876 173.107596 
L 337.881587 172.671406 
L 339.264061 172.162156 
L 339.955298 171.781645 
L 341.337772 171.179508 
L 342.720246 170.493446 
L 343.411483 170.204192 
L 344.10272 170.039874 
L 346.867668 169.929061 
L 348.250142 170.234068 
L 348.941379 170.53989 
L 350.323853 170.707738 
L 351.01509 170.423373 
L 351.706327 170.012986 
L 352.397564 169.411392 
L 353.088801 168.96298 
L 355.853749 166.528901 
L 357.236223 166.059304 
L 359.309934 165.979997 
L 361.383645 166.493321 
L 362.074882 166.551715 
L 366.222305 167.907542 
L 369.67849 169.448872 
L 371.752201 169.87447 
L 374.517149 169.593364 
L 375.208386 169.31769 
L 376.59086 169.006979 
L 377.973334 168.603925 
L 378.664571 168.577308 
L 380.047045 168.324177 
L 381.429519 168.142205 
L 383.50323 167.46918 
L 384.194467 166.90724 
L 385.576941 166.415644 
L 386.268178 166.15029 
L 387.650652 165.848543 
L 388.341889 166.140784 
L 393.180548 166.355892 
L 393.871785 166.2554 
L 395.254259 166.374089 
L 396.636733 166.045181 
L 398.019208 165.934097 
L 398.710445 165.79042 
L 400.092919 165.628275 
L 400.784156 165.572326 
L 402.16663 165.239616 
L 404.931578 165.634522 
L 405.622815 166.030515 
L 406.314052 166.268708 
L 407.696526 166.522382 
L 409.079 166.883882 
L 411.152711 166.862697 
L 411.843948 166.990078 
L 415.300133 166.814624 
L 415.99137 166.920005 
L 418.756318 168.069688 
L 420.138792 168.433088 
L 420.830029 168.712836 
L 421.521266 169.112903 
L 422.90374 169.481736 
L 424.977451 170.273993 
L 425.668688 170.314462 
L 427.742399 171.107262 
L 428.433636 171.067065 
L 428.433636 171.067065 
" style="fill:none;stroke:#00008b;stroke-linecap:square;stroke-width:1.5;"/>
   </g>
   <g id="patch_3">
    <path d="M 66.26 292.12 
L 66.26 20.52 
" style="fill:none;stroke:#000000;stroke-linecap:square;stroke-linejoin:miter;stroke-width:0.8;"/>
   </g>
   <g id="patch_4">
    <path d="M 66.26 292.12 
L 445.68 292.12 
" style="fill:none;stroke:#000000;stroke-linecap:square;stroke-linejoin:miter;stroke-width:0.8;"/>
   </g>
   <g id="text_15">
    <!-- sexual -->
    <defs>
     <path d="M 54.890625 54.6875 
L 35.109375 28.078125 
L 55.90625 0 
L 45.3125 0 
L 29.390625 21.484375 
L 13.484375 0 
L 2.875 0 
L 24.125 28.609375 
L 4.6875 54.6875 
L 15.28125 54.6875 
L 29.78125 35.203125 
L 44.28125 54.6875 
z
" id="DejaVuSans-120"/>
     <path d="M 8.5 21.578125 
L 8.5 54.6875 
L 17.484375 54.6875 
L 17.484375 21.921875 
Q 17.484375 14.15625 20.5 10.265625 
Q 23.53125 6.390625 29.59375 6.390625 
Q 36.859375 6.390625 41.078125 11.03125 
Q 45.3125 15.671875 45.3125 23.6875 
L 45.3125 54.6875 
L 54.296875 54.6875 
L 54.296875 0 
L 45.3125 0 
L 45.3125 8.40625 
Q 42.046875 3.421875 37.71875 1 
Q 33.40625 -1.421875 27.6875 -1.421875 
Q 18.265625 -1.421875 13.375 4.4375 
Q 8.5 10.296875 8.5 21.578125 
z
M 31.109375 56 
z
" id="DejaVuSans-117"/>
     <path d="M 9.421875 75.984375 
L 18.40625 75.984375 
L 18.40625 0 
L 9.421875 0 
z
" id="DejaVuSans-108"/>
    </defs>
    <g transform="translate(376.59086 57.502686)scale(0.14 -0.14)">
     <use xlink:href="#DejaVuSans-115"/>
     <use x="52.099609" xlink:href="#DejaVuSans-101"/>
     <use x="113.607422" xlink:href="#DejaVuSans-120"/>
     <use x="172.787109" xlink:href="#DejaVuSans-117"/>
     <use x="236.166016" xlink:href="#DejaVuSans-97"/>
     <use x="297.445312" xlink:href="#DejaVuSans-108"/>
    </g>
   </g>
   <g id="text_16">
    <!-- asexual -->
    <g transform="translate(376.59086 149.339065)scale(0.14 -0.14)">
     <use xlink:href="#DejaVuSans-97"/>
     <use x="61.279297" xlink:href="#DejaVuSans-115"/>
     <use x="113.378906" xlink:href="#DejaVuSans-101"/>
     <use x="174.886719" xlink:href="#DejaVuSans-120"/>
     <use x="234.066406" xlink:href="#DejaVuSans-117"/>
     <use x="297.445312" xlink:href="#DejaVuSans-97"/>
     <use x="358.724609" xlink:href="#DejaVuSans-108"/>
    </g>
   </g>
  </g>
  <g id="text_17">
   <!-- dynomight.net/sex -->
   <defs>
    <path d="M 41.890625 47.703125 
L 41.890625 75.984375 
L 50.875 75.984375 
L 50.875 0 
L 41.890625 0 
L 41.890625 6.890625 
Q 39.65625 2.828125 35.90625 0.703125 
Q 32.171875 -1.421875 27.296875 -1.421875 
Q 17.390625 -1.421875 11.6875 6.265625 
Q 6 13.96875 6 27.484375 
Q 6 40.828125 11.71875 48.40625 
Q 17.4375 56 27.296875 56 
Q 32.234375 56 35.984375 53.875 
Q 39.75 51.765625 41.890625 47.703125 
z
M 15.484375 27.296875 
Q 15.484375 16.84375 18.796875 11.515625 
Q 22.125 6.203125 28.609375 6.203125 
Q 35.109375 6.203125 38.5 11.5625 
Q 41.890625 16.9375 41.890625 27.296875 
Q 41.890625 37.703125 38.5 43.046875 
Q 35.109375 48.390625 28.609375 48.390625 
Q 22.125 48.390625 18.796875 43.0625 
Q 15.484375 37.75 15.484375 27.296875 
z
" id="DejaVuSansMono-100"/>
    <path d="M 41.890625 17.578125 
Q 39.65625 11.859375 36.1875 2.546875 
Q 31.34375 -10.359375 29.6875 -13.1875 
Q 27.4375 -17 24.0625 -18.890625 
Q 20.703125 -20.796875 16.21875 -20.796875 
L 8.984375 -20.796875 
L 8.984375 -13.28125 
L 14.3125 -13.28125 
Q 18.265625 -13.28125 20.5 -10.984375 
Q 22.75 -8.6875 26.21875 0.875 
L 5.078125 54.6875 
L 14.59375 54.6875 
L 30.8125 11.921875 
L 46.78125 54.6875 
L 56.296875 54.6875 
z
" id="DejaVuSansMono-121"/>
    <path d="M 51.3125 33.890625 
L 51.3125 0 
L 42.28125 0 
L 42.28125 33.890625 
Q 42.28125 41.265625 39.6875 44.71875 
Q 37.109375 48.1875 31.59375 48.1875 
Q 25.296875 48.1875 21.890625 43.71875 
Q 18.5 39.265625 18.5 30.90625 
L 18.5 0 
L 9.515625 0 
L 9.515625 54.6875 
L 18.5 54.6875 
L 18.5 46.484375 
Q 20.90625 51.171875 25 53.578125 
Q 29.109375 56 34.71875 56 
Q 43.0625 56 47.1875 50.5 
Q 51.3125 45.015625 51.3125 33.890625 
z
" id="DejaVuSansMono-110"/>
    <path d="M 30.078125 48.390625 
Q 23.25 48.390625 19.734375 43.0625 
Q 16.21875 37.75 16.21875 27.296875 
Q 16.21875 16.890625 19.734375 11.546875 
Q 23.25 6.203125 30.078125 6.203125 
Q 36.96875 6.203125 40.484375 11.546875 
Q 44 16.890625 44 27.296875 
Q 44 37.75 40.484375 43.0625 
Q 36.96875 48.390625 30.078125 48.390625 
z
M 30.078125 56 
Q 41.453125 56 47.484375 48.625 
Q 53.515625 41.265625 53.515625 27.296875 
Q 53.515625 13.28125 47.5 5.921875 
Q 41.5 -1.421875 30.078125 -1.421875 
Q 18.703125 -1.421875 12.6875 5.921875 
Q 6.6875 13.28125 6.6875 27.296875 
Q 6.6875 41.265625 12.6875 48.625 
Q 18.703125 56 30.078125 56 
z
" id="DejaVuSansMono-111"/>
    <path d="M 33.015625 49.125 
Q 34.671875 52.640625 37.234375 54.3125 
Q 39.796875 56 43.40625 56 
Q 50 56 52.703125 50.890625 
Q 55.421875 45.796875 55.421875 31.6875 
L 55.421875 0 
L 47.21875 0 
L 47.21875 31.296875 
Q 47.21875 42.875 45.921875 45.671875 
Q 44.625 48.484375 41.21875 48.484375 
Q 37.3125 48.484375 35.859375 45.484375 
Q 34.421875 42.484375 34.421875 31.296875 
L 34.421875 0 
L 26.21875 0 
L 26.21875 31.296875 
Q 26.21875 43.015625 24.828125 45.75 
Q 23.4375 48.484375 19.828125 48.484375 
Q 16.265625 48.484375 14.875 45.484375 
Q 13.484375 42.484375 13.484375 31.296875 
L 13.484375 0 
L 5.328125 0 
L 5.328125 54.6875 
L 13.484375 54.6875 
L 13.484375 50 
Q 15.09375 52.9375 17.5 54.46875 
Q 19.921875 56 23 56 
Q 26.703125 56 29.171875 54.296875 
Q 31.640625 52.59375 33.015625 49.125 
z
" id="DejaVuSansMono-109"/>
    <path d="M 12.5 54.6875 
L 35.5 54.6875 
L 35.5 6.984375 
L 53.328125 6.984375 
L 53.328125 0 
L 8.6875 0 
L 8.6875 6.984375 
L 26.515625 6.984375 
L 26.515625 47.703125 
L 12.5 47.703125 
z
M 26.515625 75.984375 
L 35.5 75.984375 
L 35.5 64.59375 
L 26.515625 64.59375 
z
" id="DejaVuSansMono-105"/>
    <path d="M 41.890625 27.78125 
Q 41.890625 37.890625 38.59375 43.140625 
Q 35.296875 48.390625 29 48.390625 
Q 22.40625 48.390625 18.9375 43.140625 
Q 15.484375 37.890625 15.484375 27.78125 
Q 15.484375 17.671875 18.96875 12.375 
Q 22.46875 7.078125 29.109375 7.078125 
Q 35.296875 7.078125 38.59375 12.390625 
Q 41.890625 17.71875 41.890625 27.78125 
z
M 50.875 3.515625 
Q 50.875 -8.796875 45.0625 -15.140625 
Q 39.265625 -21.484375 27.984375 -21.484375 
Q 24.265625 -21.484375 20.203125 -20.796875 
Q 16.15625 -20.125 12.109375 -18.796875 
L 12.109375 -9.90625 
Q 16.890625 -12.15625 20.796875 -13.234375 
Q 24.703125 -14.3125 27.984375 -14.3125 
Q 35.25 -14.3125 38.5625 -10.34375 
Q 41.890625 -6.390625 41.890625 2.203125 
L 41.890625 2.59375 
L 41.890625 8.6875 
Q 39.75 4.109375 36.03125 1.859375 
Q 32.328125 -0.390625 27 -0.390625 
Q 17.4375 -0.390625 11.71875 7.265625 
Q 6 14.9375 6 27.78125 
Q 6 40.671875 11.71875 48.328125 
Q 17.4375 56 27 56 
Q 32.28125 56 35.9375 53.90625 
Q 39.59375 51.8125 41.890625 47.40625 
L 41.890625 54.5 
L 50.875 54.5 
z
" id="DejaVuSansMono-103"/>
    <path d="M 51.3125 33.890625 
L 51.3125 0 
L 42.28125 0 
L 42.28125 33.890625 
Q 42.28125 41.265625 39.6875 44.71875 
Q 37.109375 48.1875 31.59375 48.1875 
Q 25.296875 48.1875 21.890625 43.71875 
Q 18.5 39.265625 18.5 30.90625 
L 18.5 0 
L 9.515625 0 
L 9.515625 75.984375 
L 18.5 75.984375 
L 18.5 46.484375 
Q 20.90625 51.171875 25 53.578125 
Q 29.109375 56 34.71875 56 
Q 43.0625 56 47.1875 50.5 
Q 51.3125 45.015625 51.3125 33.890625 
z
" id="DejaVuSansMono-104"/>
    <path d="M 29.984375 70.21875 
L 29.984375 54.6875 
L 50.390625 54.6875 
L 50.390625 47.703125 
L 29.984375 47.703125 
L 29.984375 18.015625 
Q 29.984375 11.96875 32.28125 9.5625 
Q 34.578125 7.171875 40.28125 7.171875 
L 50.390625 7.171875 
L 50.390625 0 
L 39.40625 0 
Q 29.296875 0 25.140625 4.046875 
Q 21 8.109375 21 18.015625 
L 21 47.703125 
L 6.390625 47.703125 
L 6.390625 54.6875 
L 21 54.6875 
L 21 70.21875 
z
" id="DejaVuSansMono-116"/>
    <path d="M 23.875 14.890625 
L 36.1875 14.890625 
L 36.1875 0 
L 23.875 0 
z
" id="DejaVuSansMono-46"/>
    <path d="M 54.296875 29.59375 
L 54.296875 25.203125 
L 15.375 25.203125 
L 15.375 24.90625 
Q 15.375 15.96875 20.03125 11.078125 
Q 24.703125 6.203125 33.203125 6.203125 
Q 37.5 6.203125 42.1875 7.5625 
Q 46.875 8.9375 52.203125 11.71875 
L 52.203125 2.78125 
Q 47.078125 0.6875 42.3125 -0.359375 
Q 37.546875 -1.421875 33.109375 -1.421875 
Q 20.359375 -1.421875 13.171875 6.21875 
Q 6 13.875 6 27.296875 
Q 6 40.375 13.03125 48.1875 
Q 20.0625 56 31.78125 56 
Q 42.234375 56 48.265625 48.921875 
Q 54.296875 41.84375 54.296875 29.59375 
z
M 45.3125 32.234375 
Q 45.125 40.140625 41.578125 44.265625 
Q 38.03125 48.390625 31.390625 48.390625 
Q 24.90625 48.390625 20.703125 44.09375 
Q 16.5 39.796875 15.71875 32.171875 
z
" id="DejaVuSansMono-101"/>
    <path d="M 43.40625 72.90625 
L 52.6875 72.90625 
L 14.3125 -9.28125 
L 4.984375 -9.28125 
z
" id="DejaVuSansMono-47"/>
    <path d="M 47.515625 52.78125 
L 47.515625 44 
Q 43.65625 46.234375 39.75 47.359375 
Q 35.84375 48.484375 31.78125 48.484375 
Q 25.6875 48.484375 22.671875 46.5 
Q 19.671875 44.53125 19.671875 40.484375 
Q 19.671875 36.8125 21.921875 35 
Q 24.171875 33.203125 33.109375 31.5 
L 36.71875 30.8125 
Q 43.40625 29.546875 46.84375 25.734375 
Q 50.296875 21.921875 50.296875 15.828125 
Q 50.296875 7.71875 44.53125 3.140625 
Q 38.765625 -1.421875 28.515625 -1.421875 
Q 24.46875 -1.421875 20.015625 -0.5625 
Q 15.578125 0.296875 10.40625 2 
L 10.40625 11.28125 
Q 15.4375 8.6875 20.015625 7.390625 
Q 24.609375 6.109375 28.71875 6.109375 
Q 34.671875 6.109375 37.9375 8.515625 
Q 41.21875 10.9375 41.21875 15.28125 
Q 41.21875 21.53125 29.25 23.921875 
L 28.859375 24.03125 
L 25.484375 24.703125 
Q 17.71875 26.21875 14.15625 29.8125 
Q 10.59375 33.40625 10.59375 39.59375 
Q 10.59375 47.46875 15.90625 51.734375 
Q 21.234375 56 31.109375 56 
Q 35.5 56 39.546875 55.1875 
Q 43.609375 54.390625 47.515625 52.78125 
z
" id="DejaVuSansMono-115"/>
    <path d="M 54.59375 54.6875 
L 35.015625 28.515625 
L 56.5 0 
L 46.09375 0 
L 30.078125 21.921875 
L 14.109375 0 
L 3.71875 0 
L 25.203125 28.515625 
L 5.609375 54.6875 
L 15.578125 54.6875 
L 30.078125 34.90625 
L 44.484375 54.6875 
z
" id="DejaVuSansMono-120"/>
   </defs>
   <g style="fill:#808080;opacity:0.7;" transform="translate(382.464 328.32)scale(0.06 -0.06)">
    <use xlink:href="#DejaVuSansMono-100"/>
    <use x="60.205078" xlink:href="#DejaVuSansMono-121"/>
    <use x="120.410156" xlink:href="#DejaVuSansMono-110"/>
    <use x="180.615234" xlink:href="#DejaVuSansMono-111"/>
    <use x="240.820312" xlink:href="#DejaVuSansMono-109"/>
    <use x="301.025391" xlink:href="#DejaVuSansMono-105"/>
    <use x="361.230469" xlink:href="#DejaVuSansMono-103"/>
    <use x="421.435547" xlink:href="#DejaVuSansMono-104"/>
    <use x="481.640625" xlink:href="#DejaVuSansMono-116"/>
    <use x="541.845703" xlink:href="#DejaVuSansMono-46"/>
    <use x="602.050781" xlink:href="#DejaVuSansMono-110"/>
    <use x="662.255859" xlink:href="#DejaVuSansMono-101"/>
    <use x="722.460938" xlink:href="#DejaVuSansMono-116"/>
    <use x="782.666016" xlink:href="#DejaVuSansMono-47"/>
    <use x="842.871094" xlink:href="#DejaVuSansMono-115"/>
    <use x="903.076172" xlink:href="#DejaVuSansMono-101"/>
    <use x="963.28125" xlink:href="#DejaVuSansMono-120"/>
   </g>
  </g>
 </g>
 <defs>
  <clipPath id="paecfd22959">
   <rect height="271.6" width="379.42" x="66.26" y="20.52"/>
  </clipPath>
 </defs>
</svg>
