<?xml version="1.0" encoding="utf-8" standalone="no"?>
<!DOCTYPE svg PUBLIC "-//W3C//DTD SVG 1.1//EN"
  "http://www.w3.org/Graphics/SVG/1.1/DTD/svg11.dtd">
<!-- Created with matplotlib (https://matplotlib.org/) -->
<svg height="345.6pt" version="1.1" viewBox="0 0 460.8 345.6" width="460.8pt" xmlns="http://www.w3.org/2000/svg" xmlns:xlink="http://www.w3.org/1999/xlink">
 <defs>
  <style type="text/css">
*{stroke-linecap:butt;stroke-linejoin:round;}
  </style>
 </defs>
 <g id="figure_1">
  <g id="patch_1">
   <path d="M 0 345.6 
L 460.8 345.6 
L 460.8 0 
L 0 0 
z
" style="fill:#ffffff;"/>
  </g>
  <g id="axes_1">
   <g id="patch_2">
    <path d="M 66.26 292.12 
L 445.68 292.12 
L 445.68 20.52 
L 66.26 20.52 
z
" style="fill:#ffffff;"/>
   </g>
   <g id="PolyCollection_1">
    <defs>
     <path d="M 83.506364 -325.08 
L 83.506364 -325.08 
L 84.197601 -315.915863 
L 84.888838 -309.617147 
L 85.580075 -304.439949 
L 86.271312 -299.850491 
L 86.962549 -295.751915 
L 87.653786 -292.15913 
L 88.345023 -288.750954 
L 89.03626 -285.858593 
L 89.727497 -283.151257 
L 90.418734 -280.865093 
L 91.109971 -278.617716 
L 91.801208 -276.611621 
L 92.492445 -274.955923 
L 93.183682 -273.434052 
L 93.874919 -271.769559 
L 94.566156 -270.505767 
L 95.257393 -269.069899 
L 95.94863 -267.952076 
L 96.639867 -267.195947 
L 97.331104 -266.412202 
L 98.022341 -265.579617 
L 98.713578 -264.747747 
L 99.404815 -263.87221 
L 100.096052 -263.087474 
L 100.787289 -262.339778 
L 101.478526 -261.713164 
L 102.169763 -261.30165 
L 102.861 -260.856625 
L 103.552237 -260.303477 
L 104.243474 -259.761808 
L 104.934711 -259.62995 
L 105.625948 -259.078507 
L 106.317185 -258.860056 
L 107.008422 -258.342039 
L 107.699659 -258.0861 
L 108.390896 -257.852241 
L 109.082133 -257.975818 
L 109.77337 -258.007524 
L 110.464607 -257.869027 
L 111.155844 -257.759389 
L 111.847081 -257.311287 
L 112.538318 -257.134452 
L 113.229555 -257.110871 
L 113.920792 -256.834822 
L 114.61203 -256.67826 
L 115.303267 -256.31308 
L 115.994504 -256.062967 
L 116.685741 -256.013107 
L 117.376978 -255.560795 
L 118.068215 -255.476301 
L 118.759452 -255.520099 
L 119.450689 -255.738886 
L 120.141926 -255.600145 
L 120.833163 -255.873739 
L 121.5244 -255.710913 
L 122.215637 -255.939842 
L 122.906874 -255.650132 
L 123.598111 -255.886261 
L 124.289348 -255.55721 
L 124.980585 -255.613981 
L 125.671822 -255.693586 
L 126.363059 -255.663046 
L 127.054296 -255.657363 
L 127.745533 -255.416747 
L 128.43677 -255.495372 
L 129.128007 -255.269886 
L 129.819244 -255.248889 
L 130.510481 -255.362243 
L 131.201718 -255.401129 
L 131.892955 -255.40551 
L 132.584192 -255.531164 
L 133.275429 -255.8213 
L 133.966666 -255.525053 
L 134.657903 -255.528751 
L 135.34914 -255.49187 
L 136.040377 -255.755796 
L 136.731614 -255.975774 
L 137.422851 -255.608163 
L 138.114088 -255.492588 
L 138.805325 -255.481464 
L 139.496562 -255.095182 
L 140.187799 -255.1223 
L 140.879036 -255.2562 
L 141.570273 -254.956713 
L 142.26151 -254.868941 
L 142.952747 -254.909079 
L 143.643984 -254.779654 
L 144.335221 -254.735001 
L 145.026458 -254.930035 
L 145.717695 -254.950897 
L 146.408932 -254.967791 
L 147.100169 -254.895742 
L 147.791406 -254.947589 
L 148.482643 -254.864394 
L 149.17388 -254.659323 
L 149.865118 -254.387516 
L 150.556355 -254.63967 
L 151.247592 -254.743076 
L 151.938829 -254.644783 
L 152.630066 -254.957217 
L 153.321303 -254.749185 
L 154.01254 -254.877058 
L 154.703777 -255.033358 
L 155.395014 -255.123664 
L 156.086251 -254.999 
L 156.777488 -254.962298 
L 157.468725 -254.944062 
L 158.159962 -254.719365 
L 158.851199 -254.772062 
L 159.542436 -254.6261 
L 160.233673 -254.443636 
L 160.92491 -254.443997 
L 161.616147 -254.330771 
L 162.307384 -254.558907 
L 162.998621 -254.578977 
L 163.689858 -254.470888 
L 164.381095 -254.96025 
L 165.072332 -255.085815 
L 165.763569 -255.08113 
L 166.454806 -255.112558 
L 167.146043 -254.888993 
L 167.83728 -254.791244 
L 168.528517 -254.888748 
L 169.219754 -254.839471 
L 169.910991 -254.774047 
L 170.602228 -254.640683 
L 171.293465 -254.576513 
L 171.984702 -254.313322 
L 172.675939 -254.380336 
L 173.367176 -254.666727 
L 174.058413 -254.723366 
L 174.74965 -254.677326 
L 175.440887 -254.734428 
L 176.132124 -254.899737 
L 176.823361 -254.778862 
L 177.514598 -254.715017 
L 178.205835 -254.745834 
L 178.897072 -254.503602 
L 179.588309 -253.921844 
L 180.279546 -253.696043 
L 180.970783 -253.796073 
L 181.66202 -253.909804 
L 182.353257 -253.868166 
L 183.044494 -254.09485 
L 183.735731 -254.029993 
L 184.426968 -253.82377 
L 185.118206 -254.205171 
L 185.809443 -254.623901 
L 186.50068 -254.918421 
L 187.191917 -254.747391 
L 187.883154 -254.789685 
L 188.574391 -255.203048 
L 189.265628 -254.780658 
L 189.956865 -254.869542 
L 190.648102 -254.829891 
L 191.339339 -254.748243 
L 192.030576 -254.651636 
L 192.721813 -254.590014 
L 193.41305 -254.821544 
L 194.104287 -254.713846 
L 194.795524 -254.713817 
L 195.486761 -254.796934 
L 196.177998 -254.762912 
L 196.869235 -254.664597 
L 197.560472 -254.812711 
L 198.251709 -254.818921 
L 198.942946 -254.752411 
L 199.634183 -254.83006 
L 200.32542 -254.488508 
L 201.016657 -254.335577 
L 201.707894 -254.408568 
L 202.399131 -254.660482 
L 203.090368 -254.618985 
L 203.781605 -254.645538 
L 204.472842 -254.735959 
L 205.164079 -254.924184 
L 205.855316 -254.916973 
L 206.546553 -255.142792 
L 207.23779 -255.279367 
L 207.929027 -255.643136 
L 208.620264 -255.672564 
L 209.311501 -255.597079 
L 210.002738 -255.244996 
L 210.693975 -255.373768 
L 211.385212 -255.686794 
L 212.076449 -255.522272 
L 212.767686 -255.512633 
L 213.458923 -255.392298 
L 214.15016 -255.161453 
L 214.841397 -255.51452 
L 215.532634 -255.420027 
L 216.223871 -255.300748 
L 216.915108 -255.070941 
L 217.606345 -255.051975 
L 218.297582 -255.336616 
L 218.988819 -255.456777 
L 219.680056 -255.244145 
L 220.371293 -255.133349 
L 221.062531 -255.064771 
L 221.753768 -255.359351 
L 222.445005 -255.470851 
L 223.136242 -255.597924 
L 223.827479 -255.881673 
L 224.518716 -255.752427 
L 225.209953 -255.554155 
L 225.90119 -255.421108 
L 226.592427 -255.351173 
L 227.283664 -255.333386 
L 227.974901 -255.023973 
L 228.666138 -255.14529 
L 229.357375 -255.002677 
L 230.048612 -255.20204 
L 230.739849 -255.106255 
L 231.431086 -254.767546 
L 232.122323 -254.76269 
L 232.81356 -254.427234 
L 233.504797 -254.447724 
L 234.196034 -254.654597 
L 234.887271 -254.510553 
L 235.578508 -254.768259 
L 236.269745 -254.654457 
L 236.960982 -254.401629 
L 237.652219 -254.078675 
L 238.343456 -254.486165 
L 239.034693 -254.195941 
L 239.72593 -254.283442 
L 240.417167 -254.738651 
L 241.108404 -254.564771 
L 241.799641 -254.475926 
L 242.490878 -254.697213 
L 243.182115 -254.698818 
L 243.873352 -254.578741 
L 244.564589 -254.486831 
L 245.255826 -254.350595 
L 245.947063 -254.333297 
L 246.6383 -254.56291 
L 247.329537 -254.269892 
L 248.020774 -254.536757 
L 248.712011 -254.305946 
L 249.403248 -254.516724 
L 250.094485 -254.657224 
L 250.785722 -254.477005 
L 251.476959 -254.404031 
L 252.168196 -254.866109 
L 252.859433 -255.106205 
L 253.55067 -255.153874 
L 254.241907 -255.066478 
L 254.933144 -255.022939 
L 255.624381 -255.359435 
L 256.315619 -255.291269 
L 257.006856 -255.085613 
L 257.698093 -255.2196 
L 258.38933 -254.819431 
L 259.080567 -254.986859 
L 259.771804 -254.830996 
L 260.463041 -254.82596 
L 261.154278 -254.613441 
L 261.845515 -254.395291 
L 262.536752 -254.569996 
L 263.227989 -254.874662 
L 263.919226 -254.694055 
L 264.610463 -254.734726 
L 265.3017 -255.052557 
L 265.992937 -255.043429 
L 266.684174 -255.187507 
L 267.375411 -255.155743 
L 268.066648 -255.199019 
L 268.757885 -254.965347 
L 269.449122 -254.815919 
L 270.140359 -254.724037 
L 270.831596 -254.474778 
L 271.522833 -254.668807 
L 272.21407 -254.902653 
L 272.905307 -254.878905 
L 273.596544 -254.911551 
L 274.287781 -254.763036 
L 274.979018 -254.637279 
L 275.670255 -254.637985 
L 276.361492 -254.363943 
L 277.052729 -254.672354 
L 277.743966 -254.778285 
L 278.435203 -254.426338 
L 279.12644 -254.940454 
L 279.817677 -254.914743 
L 280.508914 -254.967397 
L 281.200151 -255.12363 
L 281.891388 -255.059682 
L 282.582625 -254.975223 
L 283.273862 -255.30046 
L 283.965099 -255.331491 
L 284.656336 -255.627744 
L 285.347573 -255.519394 
L 286.03881 -255.621999 
L 286.730047 -255.72747 
L 287.421284 -255.74381 
L 288.112521 -255.457624 
L 288.803758 -255.418086 
L 289.494995 -255.345525 
L 290.186232 -254.802645 
L 290.877469 -254.641901 
L 291.568707 -255.106644 
L 292.259944 -255.167014 
L 292.951181 -255.378282 
L 293.642418 -255.388468 
L 294.333655 -255.161064 
L 295.024892 -255.346849 
L 295.716129 -255.391372 
L 296.407366 -255.061586 
L 297.098603 -254.850486 
L 297.78984 -255.170724 
L 298.481077 -254.916371 
L 299.172314 -255.06463 
L 299.863551 -255.147633 
L 300.554788 -255.229042 
L 301.246025 -255.232387 
L 301.937262 -255.100536 
L 302.628499 -255.09343 
L 303.319736 -255.184542 
L 304.010973 -255.444332 
L 304.70221 -255.321757 
L 305.393447 -255.400929 
L 306.084684 -255.014945 
L 306.775921 -254.989242 
L 307.467158 -255.045576 
L 308.158395 -255.116766 
L 308.849632 -254.770985 
L 309.540869 -254.776389 
L 310.232106 -254.724931 
L 310.923343 -254.640206 
L 311.61458 -254.785736 
L 312.305817 -254.724812 
L 312.997054 -254.686123 
L 313.688291 -254.455785 
L 314.379528 -254.450632 
L 315.070765 -254.624797 
L 315.762002 -254.329603 
L 316.453239 -254.594669 
L 317.144476 -254.675772 
L 317.835713 -254.980141 
L 318.52695 -254.841025 
L 319.218187 -254.899494 
L 319.909424 -255.061816 
L 320.600661 -254.764222 
L 321.291898 -254.902847 
L 321.983135 -254.812273 
L 322.674372 -254.916573 
L 323.365609 -254.687535 
L 324.056846 -254.479177 
L 324.748083 -254.735251 
L 325.43932 -255.095726 
L 326.130557 -255.089595 
L 326.821794 -254.958218 
L 327.513032 -255.008625 
L 328.204269 -254.968058 
L 328.895506 -255.079589 
L 329.586743 -254.816554 
L 330.27798 -254.652022 
L 330.969217 -254.640561 
L 331.660454 -254.577094 
L 332.351691 -254.633475 
L 333.042928 -254.727931 
L 333.734165 -254.916537 
L 334.425402 -254.961077 
L 335.116639 -254.75253 
L 335.807876 -254.588143 
L 336.499113 -254.347177 
L 337.19035 -254.59963 
L 337.881587 -254.541946 
L 338.572824 -254.847669 
L 339.264061 -254.82926 
L 339.955298 -254.855528 
L 340.646535 -254.868078 
L 341.337772 -255.079104 
L 342.029009 -254.99604 
L 342.720246 -255.128124 
L 343.411483 -254.931738 
L 344.10272 -254.937475 
L 344.793957 -254.947749 
L 345.485194 -254.994476 
L 346.176431 -254.891883 
L 346.867668 -254.9201 
L 347.558905 -254.974842 
L 348.250142 -255.003274 
L 348.941379 -255.177228 
L 349.632616 -255.273092 
L 350.323853 -255.214743 
L 351.01509 -255.16801 
L 351.706327 -255.335125 
L 352.397564 -255.231878 
L 353.088801 -255.545135 
L 353.780038 -255.533589 
L 354.471275 -255.581685 
L 355.162512 -255.678736 
L 355.853749 -255.124616 
L 356.544986 -255.231149 
L 357.236223 -255.164795 
L 357.92746 -254.955411 
L 358.618697 -255.092799 
L 359.309934 -254.957602 
L 360.001171 -254.662383 
L 360.692408 -254.644249 
L 361.383645 -254.781597 
L 362.074882 -254.686202 
L 362.76612 -254.609087 
L 363.457357 -254.907377 
L 364.148594 -254.891434 
L 364.839831 -254.776181 
L 365.531068 -254.625257 
L 366.222305 -254.770403 
L 366.913542 -254.840882 
L 367.604779 -254.896043 
L 368.296016 -254.79094 
L 368.987253 -254.77363 
L 369.67849 -254.687813 
L 370.369727 -254.737443 
L 371.060964 -254.943679 
L 371.752201 -255.083641 
L 372.443438 -255.099503 
L 373.134675 -255.339618 
L 373.825912 -255.400259 
L 374.517149 -255.410519 
L 375.208386 -255.32944 
L 375.899623 -255.172941 
L 376.59086 -255.103369 
L 377.282097 -255.228849 
L 377.973334 -255.121115 
L 378.664571 -255.463082 
L 379.355808 -255.895195 
L 380.047045 -255.455154 
L 380.738282 -255.839962 
L 381.429519 -256.005011 
L 382.120756 -255.738934 
L 382.811993 -255.566947 
L 383.50323 -255.759725 
L 384.194467 -255.751937 
L 384.885704 -255.307459 
L 385.576941 -255.34397 
L 386.268178 -255.582498 
L 386.959415 -255.710514 
L 387.650652 -255.449039 
L 388.341889 -255.548771 
L 389.033126 -255.291712 
L 389.724363 -255.055548 
L 390.4156 -255.106528 
L 391.106837 -255.292447 
L 391.798074 -255.600439 
L 392.489311 -255.147924 
L 393.180548 -255.131351 
L 393.871785 -254.967593 
L 394.563022 -255.093455 
L 395.254259 -255.102277 
L 395.945496 -255.000875 
L 396.636733 -254.885556 
L 397.32797 -254.903248 
L 398.019208 -254.885666 
L 398.710445 -254.682133 
L 399.401682 -254.55499 
L 400.092919 -254.581852 
L 400.784156 -254.770341 
L 401.475393 -254.799059 
L 402.16663 -254.879754 
L 402.857867 -255.032484 
L 403.549104 -255.063593 
L 404.240341 -254.965204 
L 404.931578 -254.795114 
L 405.622815 -254.674417 
L 406.314052 -254.909428 
L 407.005289 -254.934987 
L 407.696526 -254.763732 
L 408.387763 -254.70001 
L 409.079 -254.570964 
L 409.770237 -254.380408 
L 410.461474 -254.581667 
L 411.152711 -254.735025 
L 411.843948 -254.701725 
L 412.535185 -254.270247 
L 413.226422 -254.140482 
L 413.917659 -254.272911 
L 414.608896 -254.176802 
L 415.300133 -254.591651 
L 415.99137 -254.566237 
L 416.682607 -254.685641 
L 417.373844 -254.951867 
L 418.065081 -254.823503 
L 418.756318 -254.649728 
L 419.447555 -254.39187 
L 420.138792 -254.452516 
L 420.830029 -254.62567 
L 421.521266 -254.886956 
L 422.212503 -254.741557 
L 422.90374 -254.652911 
L 423.594977 -254.863527 
L 424.286214 -254.968845 
L 424.977451 -255.225372 
L 425.668688 -255.261665 
L 426.359925 -255.573649 
L 427.051162 -255.384765 
L 427.742399 -255.439893 
L 428.433636 -255.2779 
L 428.433636 -277.763291 
L 428.433636 -277.763291 
L 427.742399 -277.558385 
L 427.051162 -277.711289 
L 426.359925 -277.854844 
L 425.668688 -277.863179 
L 424.977451 -277.807671 
L 424.286214 -277.650823 
L 423.594977 -277.315063 
L 422.90374 -277.067217 
L 422.212503 -277.360984 
L 421.521266 -277.043934 
L 420.830029 -277.015152 
L 420.138792 -277.05142 
L 419.447555 -276.931722 
L 418.756318 -277.0025 
L 418.065081 -277.038401 
L 417.373844 -277.322869 
L 416.682607 -277.254484 
L 415.99137 -276.951821 
L 415.300133 -276.895988 
L 414.608896 -276.891487 
L 413.917659 -276.892611 
L 413.226422 -276.87566 
L 412.535185 -276.661699 
L 411.843948 -276.639793 
L 411.152711 -276.954685 
L 410.461474 -276.963552 
L 409.770237 -277.074639 
L 409.079 -277.147535 
L 408.387763 -277.153746 
L 407.696526 -277.144344 
L 407.005289 -277.133333 
L 406.314052 -277.080128 
L 405.622815 -277.163586 
L 404.931578 -277.001063 
L 404.240341 -277.130276 
L 403.549104 -277.259487 
L 402.857867 -277.30635 
L 402.16663 -277.189109 
L 401.475393 -277.162251 
L 400.784156 -277.340892 
L 400.092919 -277.171956 
L 399.401682 -277.064103 
L 398.710445 -277.0456 
L 398.019208 -277.085964 
L 397.32797 -277.185713 
L 396.636733 -277.168641 
L 395.945496 -277.436821 
L 395.254259 -277.460899 
L 394.563022 -277.48493 
L 393.871785 -277.631977 
L 393.180548 -277.41933 
L 392.489311 -277.270217 
L 391.798074 -277.580355 
L 391.106837 -277.729732 
L 390.4156 -277.877627 
L 389.724363 -277.956311 
L 389.033126 -277.841823 
L 388.341889 -277.595628 
L 387.650652 -277.659509 
L 386.959415 -277.80978 
L 386.268178 -277.863377 
L 385.576941 -277.899292 
L 384.885704 -277.812496 
L 384.194467 -277.677099 
L 383.50323 -277.895825 
L 382.811993 -277.845793 
L 382.120756 -277.950295 
L 381.429519 -278.355613 
L 380.738282 -278.29958 
L 380.047045 -278.116201 
L 379.355808 -278.316592 
L 378.664571 -278.18432 
L 377.973334 -277.927138 
L 377.282097 -277.73901 
L 376.59086 -277.890564 
L 375.899623 -277.838374 
L 375.208386 -277.860045 
L 374.517149 -277.869137 
L 373.825912 -277.969025 
L 373.134675 -277.841719 
L 372.443438 -277.77058 
L 371.752201 -277.542546 
L 371.060964 -277.561917 
L 370.369727 -277.422678 
L 369.67849 -277.305545 
L 368.987253 -277.221358 
L 368.296016 -277.086716 
L 367.604779 -277.063094 
L 366.913542 -277.176378 
L 366.222305 -277.194709 
L 365.531068 -277.160056 
L 364.839831 -277.185672 
L 364.148594 -277.087258 
L 363.457357 -277.209288 
L 362.76612 -277.150153 
L 362.074882 -276.992644 
L 361.383645 -277.050431 
L 360.692408 -277.160076 
L 360.001171 -277.064264 
L 359.309934 -277.04825 
L 358.618697 -277.19606 
L 357.92746 -277.248709 
L 357.236223 -277.335369 
L 356.544986 -277.387976 
L 355.853749 -277.634654 
L 355.162512 -277.531934 
L 354.471275 -277.630071 
L 353.780038 -277.731944 
L 353.088801 -277.72583 
L 352.397564 -277.792474 
L 351.706327 -277.768535 
L 351.01509 -277.776492 
L 350.323853 -277.830251 
L 349.632616 -277.720297 
L 348.941379 -277.68525 
L 348.250142 -277.548494 
L 347.558905 -277.575297 
L 346.867668 -277.590385 
L 346.176431 -277.615886 
L 345.485194 -277.329148 
L 344.793957 -277.374788 
L 344.10272 -277.332915 
L 343.411483 -277.272926 
L 342.720246 -277.363892 
L 342.029009 -277.392225 
L 341.337772 -277.362394 
L 340.646535 -277.479446 
L 339.955298 -277.372493 
L 339.264061 -277.392786 
L 338.572824 -277.355908 
L 337.881587 -277.155912 
L 337.19035 -276.907021 
L 336.499113 -276.802592 
L 335.807876 -276.824535 
L 335.116639 -276.940982 
L 334.425402 -276.810113 
L 333.734165 -276.977959 
L 333.042928 -277.003062 
L 332.351691 -276.947052 
L 331.660454 -276.944223 
L 330.969217 -277.088259 
L 330.27798 -277.114822 
L 329.586743 -277.11325 
L 328.895506 -277.057174 
L 328.204269 -277.316999 
L 327.513032 -277.29653 
L 326.821794 -277.431677 
L 326.130557 -277.285633 
L 325.43932 -277.272984 
L 324.748083 -277.315686 
L 324.056846 -276.997598 
L 323.365609 -276.884843 
L 322.674372 -276.981726 
L 321.983135 -277.080593 
L 321.291898 -277.19046 
L 320.600661 -277.222618 
L 319.909424 -277.171636 
L 319.218187 -277.367094 
L 318.52695 -277.401119 
L 317.835713 -277.344569 
L 317.144476 -277.349636 
L 316.453239 -277.049412 
L 315.762002 -276.988558 
L 315.070765 -277.094245 
L 314.379528 -277.16303 
L 313.688291 -277.050866 
L 312.997054 -276.886799 
L 312.305817 -276.9448 
L 311.61458 -277.065848 
L 310.923343 -276.978344 
L 310.232106 -277.089172 
L 309.540869 -277.039887 
L 308.849632 -277.026822 
L 308.158395 -277.272585 
L 307.467158 -277.347577 
L 306.775921 -277.464207 
L 306.084684 -277.612328 
L 305.393447 -277.652755 
L 304.70221 -277.623831 
L 304.010973 -277.652265 
L 303.319736 -277.832748 
L 302.628499 -277.683766 
L 301.937262 -277.525107 
L 301.246025 -277.653449 
L 300.554788 -277.627461 
L 299.863551 -277.531787 
L 299.172314 -277.436077 
L 298.481077 -277.293181 
L 297.78984 -277.636891 
L 297.098603 -277.568198 
L 296.407366 -277.554823 
L 295.716129 -277.628091 
L 295.024892 -277.845895 
L 294.333655 -277.852424 
L 293.642418 -277.725512 
L 292.951181 -277.687354 
L 292.259944 -277.648206 
L 291.568707 -277.57006 
L 290.877469 -277.493776 
L 290.186232 -277.27165 
L 289.494995 -277.389302 
L 288.803758 -277.704042 
L 288.112521 -277.808452 
L 287.421284 -277.741175 
L 286.730047 -277.905266 
L 286.03881 -278.122093 
L 285.347573 -278.12312 
L 284.656336 -277.868106 
L 283.965099 -277.854734 
L 283.273862 -277.77278 
L 282.582625 -277.704197 
L 281.891388 -277.693613 
L 281.200151 -277.392287 
L 280.508914 -277.375782 
L 279.817677 -277.351302 
L 279.12644 -277.148507 
L 278.435203 -277.104757 
L 277.743966 -276.901647 
L 277.052729 -276.968468 
L 276.361492 -277.143794 
L 275.670255 -277.011527 
L 274.979018 -277.172477 
L 274.287781 -277.108645 
L 273.596544 -277.317013 
L 272.905307 -277.111738 
L 272.21407 -277.038015 
L 271.522833 -277.007866 
L 270.831596 -276.946047 
L 270.140359 -277.009129 
L 269.449122 -277.17418 
L 268.757885 -277.07364 
L 268.066648 -277.062681 
L 267.375411 -277.236868 
L 266.684174 -277.539715 
L 265.992937 -277.530067 
L 265.3017 -277.863698 
L 264.610463 -277.587812 
L 263.919226 -277.284094 
L 263.227989 -277.326742 
L 262.536752 -277.248452 
L 261.845515 -277.149927 
L 261.154278 -277.034985 
L 260.463041 -277.145127 
L 259.771804 -277.173226 
L 259.080567 -277.312864 
L 258.38933 -277.289629 
L 257.698093 -277.491869 
L 257.006856 -277.538401 
L 256.315619 -277.52721 
L 255.624381 -277.539981 
L 254.933144 -277.664085 
L 254.241907 -277.652596 
L 253.55067 -277.692308 
L 252.859433 -277.513463 
L 252.168196 -277.412429 
L 251.476959 -277.17215 
L 250.785722 -277.019326 
L 250.094485 -276.664196 
L 249.403248 -276.772104 
L 248.712011 -276.881847 
L 248.020774 -276.896562 
L 247.329537 -276.835877 
L 246.6383 -276.929618 
L 245.947063 -276.940321 
L 245.255826 -276.729644 
L 244.564589 -276.621655 
L 243.873352 -276.78179 
L 243.182115 -276.955584 
L 242.490878 -277.133186 
L 241.799641 -277.217043 
L 241.108404 -277.14558 
L 240.417167 -276.862517 
L 239.72593 -276.718033 
L 239.034693 -276.613785 
L 238.343456 -276.667949 
L 237.652219 -276.642509 
L 236.960982 -276.836138 
L 236.269745 -277.043401 
L 235.578508 -276.774787 
L 234.887271 -276.883113 
L 234.196034 -277.040002 
L 233.504797 -276.972016 
L 232.81356 -277.028357 
L 232.122323 -277.126918 
L 231.431086 -277.191047 
L 230.739849 -277.236924 
L 230.048612 -277.631649 
L 229.357375 -277.457834 
L 228.666138 -277.589536 
L 227.974901 -277.452833 
L 227.283664 -277.55408 
L 226.592427 -277.597131 
L 225.90119 -277.676033 
L 225.209953 -277.760266 
L 224.518716 -277.896605 
L 223.827479 -278.092193 
L 223.136242 -278.127156 
L 222.445005 -278.034776 
L 221.753768 -277.719864 
L 221.062531 -277.689067 
L 220.371293 -277.67318 
L 219.680056 -277.586285 
L 218.988819 -277.852212 
L 218.297582 -277.887634 
L 217.606345 -277.725765 
L 216.915108 -277.764377 
L 216.223871 -277.822466 
L 215.532634 -277.660818 
L 214.841397 -277.76405 
L 214.15016 -277.745025 
L 213.458923 -277.737978 
L 212.767686 -277.872947 
L 212.076449 -277.923603 
L 211.385212 -278.034484 
L 210.693975 -277.96564 
L 210.002738 -277.946661 
L 209.311501 -277.748304 
L 208.620264 -277.824915 
L 207.929027 -277.821208 
L 207.23779 -277.771058 
L 206.546553 -277.666452 
L 205.855316 -277.618499 
L 205.164079 -277.685163 
L 204.472842 -277.421989 
L 203.781605 -277.286439 
L 203.090368 -277.247265 
L 202.399131 -277.078116 
L 201.707894 -277.100256 
L 201.016657 -276.907622 
L 200.32542 -276.862244 
L 199.634183 -276.975894 
L 198.942946 -276.928608 
L 198.251709 -277.146734 
L 197.560472 -277.152944 
L 196.869235 -277.15711 
L 196.177998 -277.214693 
L 195.486761 -277.14645 
L 194.795524 -277.115495 
L 194.104287 -277.34361 
L 193.41305 -277.342922 
L 192.721813 -277.187694 
L 192.030576 -276.949532 
L 191.339339 -277.090847 
L 190.648102 -277.115123 
L 189.956865 -277.180853 
L 189.265628 -277.369142 
L 188.574391 -277.365559 
L 187.883154 -277.27103 
L 187.191917 -277.271498 
L 186.50068 -277.371525 
L 185.809443 -277.298298 
L 185.118206 -276.918524 
L 184.426968 -276.723046 
L 183.735731 -276.512478 
L 183.044494 -276.302587 
L 182.353257 -276.372286 
L 181.66202 -276.531089 
L 180.970783 -276.284135 
L 180.279546 -276.319524 
L 179.588309 -276.352829 
L 178.897072 -276.488095 
L 178.205835 -276.875433 
L 177.514598 -277.053457 
L 176.823361 -277.107486 
L 176.132124 -277.228335 
L 175.440887 -277.102489 
L 174.74965 -277.130258 
L 174.058413 -276.950591 
L 173.367176 -277.204954 
L 172.675939 -277.06276 
L 171.984702 -276.913038 
L 171.293465 -276.899719 
L 170.602228 -276.82903 
L 169.910991 -276.977587 
L 169.219754 -277.096852 
L 168.528517 -277.287669 
L 167.83728 -277.323248 
L 167.146043 -277.185303 
L 166.454806 -277.277879 
L 165.763569 -277.398392 
L 165.072332 -277.306252 
L 164.381095 -277.296017 
L 163.689858 -277.032504 
L 162.998621 -276.898885 
L 162.307384 -277.037372 
L 161.616147 -276.969464 
L 160.92491 -276.885028 
L 160.233673 -276.886475 
L 159.542436 -277.090226 
L 158.851199 -276.984461 
L 158.159962 -277.162637 
L 157.468725 -277.268206 
L 156.777488 -277.236934 
L 156.086251 -277.249119 
L 155.395014 -277.333044 
L 154.703777 -277.401622 
L 154.01254 -277.504145 
L 153.321303 -277.39627 
L 152.630066 -277.270804 
L 151.938829 -277.158999 
L 151.247592 -276.997152 
L 150.556355 -277.053842 
L 149.865118 -277.028421 
L 149.17388 -277.065694 
L 148.482643 -276.998596 
L 147.791406 -277.105521 
L 147.100169 -277.35618 
L 146.408932 -277.424819 
L 145.717695 -277.244532 
L 145.026458 -277.333294 
L 144.335221 -277.186655 
L 143.643984 -277.203927 
L 142.952747 -277.160328 
L 142.26151 -277.406882 
L 141.570273 -277.279999 
L 140.879036 -277.269494 
L 140.187799 -277.318112 
L 139.496562 -277.445179 
L 138.805325 -277.664564 
L 138.114088 -277.948399 
L 137.422851 -277.902896 
L 136.731614 -277.944315 
L 136.040377 -278.075208 
L 135.34914 -277.898056 
L 134.657903 -277.730264 
L 133.966666 -277.76601 
L 133.275429 -277.80872 
L 132.584192 -278.017376 
L 131.892955 -278.002341 
L 131.201718 -278.100152 
L 130.510481 -277.812032 
L 129.819244 -277.906917 
L 129.128007 -277.877772 
L 128.43677 -277.741372 
L 127.745533 -277.729825 
L 127.054296 -277.867276 
L 126.363059 -278.075071 
L 125.671822 -278.063 
L 124.980585 -278.073075 
L 124.289348 -277.97612 
L 123.598111 -278.213084 
L 122.906874 -278.131984 
L 122.215637 -278.089973 
L 121.5244 -278.064685 
L 120.833163 -278.164767 
L 120.141926 -278.129824 
L 119.450689 -278.165993 
L 118.759452 -278.003997 
L 118.068215 -278.017919 
L 117.376978 -278.044781 
L 116.685741 -278.112311 
L 115.994504 -278.434544 
L 115.303267 -278.288181 
L 114.61203 -278.580817 
L 113.920792 -278.909875 
L 113.229555 -279.006461 
L 112.538318 -279.262085 
L 111.847081 -279.425294 
L 111.155844 -279.544292 
L 110.464607 -279.801857 
L 109.77337 -280.15713 
L 109.082133 -280.297475 
L 108.390896 -280.251031 
L 107.699659 -280.201317 
L 107.008422 -280.212632 
L 106.317185 -280.428478 
L 105.625948 -280.876534 
L 104.934711 -281.244728 
L 104.243474 -281.389903 
L 103.552237 -281.933004 
L 102.861 -282.389121 
L 102.169763 -282.927832 
L 101.478526 -283.325142 
L 100.787289 -283.809915 
L 100.096052 -284.274642 
L 99.404815 -284.794673 
L 98.713578 -285.599253 
L 98.022341 -286.256294 
L 97.331104 -287.221158 
L 96.639867 -287.943164 
L 95.94863 -288.534713 
L 95.257393 -289.34851 
L 94.566156 -290.471657 
L 93.874919 -291.816311 
L 93.183682 -293.195911 
L 92.492445 -294.522581 
L 91.801208 -295.789842 
L 91.109971 -297.444372 
L 90.418734 -299.056431 
L 89.727497 -300.931723 
L 89.03626 -302.989879 
L 88.345023 -305.414904 
L 87.653786 -307.81951 
L 86.962549 -310.645721 
L 86.271312 -313.565288 
L 85.580075 -316.551297 
L 84.888838 -320.007721 
L 84.197601 -323.398605 
L 83.506364 -325.08 
z
" id="mb640985a05"/>
    </defs>
    <g clip-path="url(#p073dfce24b)">
     <use style="fill:#b22222;fill-opacity:0.15;" x="0" xlink:href="#mb640985a05" y="345.6"/>
    </g>
   </g>
   <g id="PolyCollection_2">
    <defs>
     <path d="M 83.506364 -325.08 
L 83.506364 -325.08 
L 84.197601 -315.799584 
L 84.888838 -309.690958 
L 85.580075 -304.49173 
L 86.271312 -299.821018 
L 86.962549 -295.856048 
L 87.653786 -292.367695 
L 88.345023 -289.234682 
L 89.03626 -286.345807 
L 89.727497 -283.483125 
L 90.418734 -281.03849 
L 91.109971 -278.699117 
L 91.801208 -276.591106 
L 92.492445 -274.838891 
L 93.183682 -273.14884 
L 93.874919 -271.142651 
L 94.566156 -269.866662 
L 95.257393 -268.635278 
L 95.94863 -267.388322 
L 96.639867 -266.470963 
L 97.331104 -265.254332 
L 98.022341 -263.999121 
L 98.713578 -262.937885 
L 99.404815 -262.009301 
L 100.096052 -260.859788 
L 100.787289 -259.761139 
L 101.478526 -258.41322 
L 102.169763 -256.920181 
L 102.861 -255.675344 
L 103.552237 -254.693141 
L 104.243474 -253.636555 
L 104.934711 -252.67373 
L 105.625948 -251.803515 
L 106.317185 -250.685223 
L 107.008422 -249.617953 
L 107.699659 -248.555361 
L 108.390896 -247.535075 
L 109.082133 -246.455479 
L 109.77337 -245.788835 
L 110.464607 -245.131926 
L 111.155844 -244.819523 
L 111.847081 -244.595352 
L 112.538318 -244.604862 
L 113.229555 -243.948203 
L 113.920792 -243.259417 
L 114.61203 -242.895872 
L 115.303267 -242.108019 
L 115.994504 -241.484161 
L 116.685741 -241.215726 
L 117.376978 -241.16106 
L 118.068215 -241.772529 
L 118.759452 -242.237938 
L 119.450689 -242.381283 
L 120.141926 -242.834297 
L 120.833163 -242.951295 
L 121.5244 -242.606326 
L 122.215637 -242.485494 
L 122.906874 -242.185114 
L 123.598111 -241.649305 
L 124.289348 -241.077259 
L 124.980585 -240.387627 
L 125.671822 -239.891299 
L 126.363059 -239.293766 
L 127.054296 -238.665805 
L 127.745533 -237.912485 
L 128.43677 -237.069771 
L 129.128007 -236.253103 
L 129.819244 -235.500021 
L 130.510481 -234.855671 
L 131.201718 -234.217948 
L 131.892955 -233.393063 
L 132.584192 -232.516885 
L 133.275429 -231.849844 
L 133.966666 -231.264095 
L 134.657903 -230.324362 
L 135.34914 -229.442046 
L 136.040377 -228.423576 
L 136.731614 -227.595331 
L 137.422851 -226.648967 
L 138.114088 -226.068974 
L 138.805325 -225.156461 
L 139.496562 -224.307288 
L 140.187799 -223.502493 
L 140.879036 -223.003115 
L 141.570273 -222.439002 
L 142.26151 -222.057487 
L 142.952747 -222.182588 
L 143.643984 -222.496685 
L 144.335221 -222.921678 
L 145.026458 -223.946248 
L 145.717695 -224.782881 
L 146.408932 -225.294603 
L 147.100169 -225.253425 
L 147.791406 -225.416271 
L 148.482643 -225.018257 
L 149.17388 -224.611991 
L 149.865118 -224.611371 
L 150.556355 -224.055785 
L 151.247592 -223.475223 
L 151.938829 -222.886256 
L 152.630066 -222.764134 
L 153.321303 -221.996478 
L 154.01254 -221.292901 
L 154.703777 -220.909096 
L 155.395014 -219.895968 
L 156.086251 -219.191378 
L 156.777488 -218.537808 
L 157.468725 -217.964464 
L 158.159962 -217.320819 
L 158.851199 -216.800803 
L 159.542436 -216.415061 
L 160.233673 -215.868827 
L 160.92491 -215.603412 
L 161.616147 -215.437698 
L 162.307384 -215.031977 
L 162.998621 -214.58288 
L 163.689858 -214.397831 
L 164.381095 -213.594262 
L 165.072332 -212.894869 
L 165.763569 -212.365025 
L 166.454806 -211.940992 
L 167.146043 -211.361834 
L 167.83728 -210.764265 
L 168.528517 -210.490726 
L 169.219754 -209.87172 
L 169.910991 -209.338425 
L 170.602228 -208.620877 
L 171.293465 -207.754303 
L 171.984702 -206.981318 
L 172.675939 -206.309649 
L 173.367176 -205.856062 
L 174.058413 -205.279287 
L 174.74965 -204.805019 
L 175.440887 -204.295509 
L 176.132124 -203.80492 
L 176.823361 -203.419677 
L 177.514598 -203.088782 
L 178.205835 -202.638872 
L 178.897072 -202.41023 
L 179.588309 -202.285382 
L 180.279546 -202.072641 
L 180.970783 -201.679454 
L 181.66202 -201.27726 
L 182.353257 -200.794189 
L 183.044494 -200.296448 
L 183.735731 -199.635913 
L 184.426968 -199.113878 
L 185.118206 -198.502689 
L 185.809443 -197.993896 
L 186.50068 -197.421274 
L 187.191917 -197.033861 
L 187.883154 -196.795677 
L 188.574391 -196.146609 
L 189.265628 -195.751446 
L 189.956865 -195.249934 
L 190.648102 -195.036105 
L 191.339339 -194.907531 
L 192.030576 -194.790512 
L 192.721813 -194.589844 
L 193.41305 -194.350685 
L 194.104287 -194.286977 
L 194.795524 -194.025803 
L 195.486761 -193.787466 
L 196.177998 -193.526851 
L 196.869235 -192.808071 
L 197.560472 -192.462569 
L 198.251709 -191.945732 
L 198.942946 -191.495166 
L 199.634183 -191.113184 
L 200.32542 -190.725813 
L 201.016657 -190.358506 
L 201.707894 -190.094343 
L 202.399131 -189.608903 
L 203.090368 -189.156702 
L 203.781605 -188.87476 
L 204.472842 -188.555427 
L 205.164079 -188.146919 
L 205.855316 -187.74117 
L 206.546553 -187.471858 
L 207.23779 -186.896947 
L 207.929027 -186.616115 
L 208.620264 -186.508994 
L 209.311501 -186.132686 
L 210.002738 -186.089524 
L 210.693975 -185.633652 
L 211.385212 -185.255211 
L 212.076449 -184.989601 
L 212.767686 -184.884447 
L 213.458923 -185.10725 
L 214.15016 -184.917303 
L 214.841397 -184.767976 
L 215.532634 -184.828864 
L 216.223871 -185.017287 
L 216.915108 -184.964039 
L 217.606345 -184.789184 
L 218.297582 -184.54123 
L 218.988819 -184.240897 
L 219.680056 -184.075923 
L 220.371293 -183.91721 
L 221.062531 -183.674307 
L 221.753768 -183.330977 
L 222.445005 -183.017045 
L 223.136242 -182.725671 
L 223.827479 -182.549781 
L 224.518716 -182.388308 
L 225.209953 -182.196198 
L 225.90119 -182.140721 
L 226.592427 -182.202296 
L 227.283664 -182.325342 
L 227.974901 -182.204297 
L 228.666138 -182.224218 
L 229.357375 -182.186245 
L 230.048612 -182.480487 
L 230.739849 -182.48503 
L 231.431086 -182.358992 
L 232.122323 -182.28672 
L 232.81356 -182.306723 
L 233.504797 -182.572524 
L 234.196034 -182.509026 
L 234.887271 -182.631766 
L 235.578508 -182.757993 
L 236.269745 -182.628973 
L 236.960982 -182.642172 
L 237.652219 -182.551321 
L 238.343456 -182.476697 
L 239.034693 -182.431144 
L 239.72593 -182.605731 
L 240.417167 -182.461508 
L 241.108404 -182.496191 
L 241.799641 -182.626125 
L 242.490878 -182.782054 
L 243.182115 -182.854305 
L 243.873352 -182.780965 
L 244.564589 -182.41311 
L 245.255826 -182.284856 
L 245.947063 -182.083916 
L 246.6383 -181.851761 
L 247.329537 -181.624707 
L 248.020774 -181.37331 
L 248.712011 -181.110938 
L 249.403248 -180.893571 
L 250.094485 -180.611326 
L 250.785722 -180.340071 
L 251.476959 -179.838096 
L 252.168196 -179.515432 
L 252.859433 -179.19411 
L 253.55067 -178.796911 
L 254.241907 -178.928983 
L 254.933144 -178.696804 
L 255.624381 -178.879282 
L 256.315619 -179.253533 
L 257.006856 -179.107488 
L 257.698093 -179.29351 
L 258.38933 -179.290448 
L 259.080567 -179.365634 
L 259.771804 -179.510712 
L 260.463041 -179.498142 
L 261.154278 -179.298615 
L 261.845515 -179.057324 
L 262.536752 -179.046153 
L 263.227989 -178.935859 
L 263.919226 -178.887139 
L 264.610463 -179.174336 
L 265.3017 -179.24373 
L 265.992937 -179.18164 
L 266.684174 -179.199115 
L 267.375411 -178.936919 
L 268.066648 -178.707989 
L 268.757885 -178.325122 
L 269.449122 -178.280851 
L 270.140359 -177.961527 
L 270.831596 -177.984892 
L 271.522833 -177.899569 
L 272.21407 -177.627712 
L 272.905307 -177.313915 
L 273.596544 -177.076395 
L 274.287781 -176.623279 
L 274.979018 -176.31726 
L 275.670255 -176.080966 
L 276.361492 -176.076391 
L 277.052729 -176.098109 
L 277.743966 -176.040882 
L 278.435203 -176.110299 
L 279.12644 -176.167895 
L 279.817677 -176.148124 
L 280.508914 -176.366354 
L 281.200151 -176.654367 
L 281.891388 -176.515839 
L 282.582625 -176.313136 
L 283.273862 -176.385975 
L 283.965099 -176.260841 
L 284.656336 -176.181256 
L 285.347573 -176.066797 
L 286.03881 -175.814873 
L 286.730047 -175.489873 
L 287.421284 -175.2907 
L 288.112521 -175.021475 
L 288.803758 -174.881784 
L 289.494995 -174.513818 
L 290.186232 -173.977595 
L 290.877469 -173.467669 
L 291.568707 -173.087635 
L 292.259944 -172.789679 
L 292.951181 -172.482301 
L 293.642418 -172.239196 
L 294.333655 -172.19379 
L 295.024892 -172.208232 
L 295.716129 -172.13749 
L 296.407366 -171.96769 
L 297.098603 -171.835264 
L 297.78984 -171.70811 
L 298.481077 -171.638758 
L 299.172314 -171.672748 
L 299.863551 -171.644201 
L 300.554788 -171.64295 
L 301.246025 -171.621025 
L 301.937262 -171.723741 
L 302.628499 -171.633135 
L 303.319736 -171.557804 
L 304.010973 -171.422535 
L 304.70221 -171.42889 
L 305.393447 -171.517086 
L 306.084684 -171.411379 
L 306.775921 -171.581263 
L 307.467158 -171.638135 
L 308.158395 -172.075616 
L 308.849632 -172.420012 
L 309.540869 -172.817677 
L 310.232106 -173.368997 
L 310.923343 -174.194458 
L 311.61458 -174.309551 
L 312.305817 -174.800394 
L 312.997054 -175.310958 
L 313.688291 -175.564506 
L 314.379528 -175.838135 
L 315.070765 -176.119543 
L 315.762002 -176.353135 
L 316.453239 -176.537318 
L 317.144476 -176.677909 
L 317.835713 -176.761315 
L 318.52695 -176.842648 
L 319.218187 -176.679098 
L 319.909424 -176.670207 
L 320.600661 -176.689443 
L 321.291898 -176.752209 
L 321.983135 -176.756021 
L 322.674372 -176.602197 
L 323.365609 -176.559854 
L 324.056846 -176.735399 
L 324.748083 -176.680863 
L 325.43932 -176.278016 
L 326.130557 -176.547424 
L 326.821794 -176.593057 
L 327.513032 -176.413645 
L 328.204269 -176.04905 
L 328.895506 -176.106641 
L 329.586743 -176.009736 
L 330.27798 -175.696804 
L 330.969217 -175.772347 
L 331.660454 -175.58439 
L 332.351691 -175.488672 
L 333.042928 -175.261225 
L 333.734165 -175.253204 
L 334.425402 -175.165889 
L 335.116639 -175.247288 
L 335.807876 -175.609753 
L 336.499113 -176.132391 
L 337.19035 -177.016311 
L 337.881587 -177.92236 
L 338.572824 -178.656737 
L 339.264061 -179.083558 
L 339.955298 -179.331749 
L 340.646535 -179.566853 
L 341.337772 -179.390196 
L 342.029009 -179.164628 
L 342.720246 -179.230451 
L 343.411483 -179.257709 
L 344.10272 -179.042332 
L 344.793957 -179.039371 
L 345.485194 -178.847922 
L 346.176431 -178.637661 
L 346.867668 -178.489607 
L 347.558905 -178.230216 
L 348.250142 -177.828377 
L 348.941379 -177.540425 
L 349.632616 -177.207374 
L 350.323853 -176.877746 
L 351.01509 -176.678345 
L 351.706327 -176.305571 
L 352.397564 -176.176106 
L 353.088801 -175.621886 
L 353.780038 -175.442902 
L 354.471275 -175.203789 
L 355.162512 -174.991618 
L 355.853749 -174.803915 
L 356.544986 -174.560525 
L 357.236223 -174.342014 
L 357.92746 -174.459455 
L 358.618697 -174.411888 
L 359.309934 -174.266127 
L 360.001171 -174.459241 
L 360.692408 -174.355866 
L 361.383645 -174.666201 
L 362.074882 -174.727719 
L 362.76612 -174.709758 
L 363.457357 -174.440581 
L 364.148594 -174.455835 
L 364.839831 -174.440878 
L 365.531068 -174.637581 
L 366.222305 -174.685843 
L 366.913542 -174.763211 
L 367.604779 -174.886019 
L 368.296016 -174.837471 
L 368.987253 -174.672838 
L 369.67849 -174.52161 
L 370.369727 -174.454089 
L 371.060964 -174.15821 
L 371.752201 -174.094557 
L 372.443438 -173.90497 
L 373.134675 -173.729039 
L 373.825912 -173.639294 
L 374.517149 -173.50385 
L 375.208386 -173.488098 
L 375.899623 -173.503675 
L 376.59086 -173.348591 
L 377.282097 -173.271479 
L 377.973334 -173.275425 
L 378.664571 -172.918792 
L 379.355808 -172.613009 
L 380.047045 -172.347857 
L 380.738282 -172.334888 
L 381.429519 -172.254371 
L 382.120756 -172.111884 
L 382.811993 -172.020709 
L 383.50323 -171.730089 
L 384.194467 -171.594159 
L 384.885704 -171.595676 
L 385.576941 -171.493365 
L 386.268178 -171.327709 
L 386.959415 -171.320509 
L 387.650652 -171.126939 
L 388.341889 -171.001027 
L 389.033126 -170.942074 
L 389.724363 -170.683361 
L 390.4156 -170.351259 
L 391.106837 -170.116425 
L 391.798074 -170.195269 
L 392.489311 -170.034112 
L 393.180548 -169.778238 
L 393.871785 -169.256422 
L 394.563022 -169.077593 
L 395.254259 -168.740464 
L 395.945496 -168.60382 
L 396.636733 -168.173698 
L 397.32797 -168.04678 
L 398.019208 -168.242527 
L 398.710445 -168.22553 
L 399.401682 -167.908719 
L 400.092919 -167.770834 
L 400.784156 -167.631267 
L 401.475393 -167.451836 
L 402.16663 -167.501627 
L 402.857867 -167.206539 
L 403.549104 -167.264975 
L 404.240341 -167.468836 
L 404.931578 -167.354517 
L 405.622815 -167.32464 
L 406.314052 -167.076135 
L 407.005289 -166.923689 
L 407.696526 -166.737515 
L 408.387763 -166.446077 
L 409.079 -166.175493 
L 409.770237 -165.841844 
L 410.461474 -165.511067 
L 411.152711 -165.443244 
L 411.843948 -165.18359 
L 412.535185 -165.127169 
L 413.226422 -164.961953 
L 413.917659 -165.076699 
L 414.608896 -164.902719 
L 415.300133 -164.941104 
L 415.99137 -165.131904 
L 416.682607 -165.137091 
L 417.373844 -165.317628 
L 418.065081 -165.162692 
L 418.756318 -165.047052 
L 419.447555 -164.811633 
L 420.138792 -164.634192 
L 420.830029 -164.382503 
L 421.521266 -164.154051 
L 422.212503 -164.075929 
L 422.90374 -163.976813 
L 423.594977 -163.72915 
L 424.286214 -163.483178 
L 424.977451 -163.324496 
L 425.668688 -163.253636 
L 426.359925 -162.995771 
L 427.051162 -162.944543 
L 427.742399 -162.865564 
L 428.433636 -162.679069 
L 428.433636 -178.083988 
L 428.433636 -178.083988 
L 427.742399 -178.221241 
L 427.051162 -178.356282 
L 426.359925 -178.588062 
L 425.668688 -178.847867 
L 424.977451 -178.999175 
L 424.286214 -179.296782 
L 423.594977 -179.467987 
L 422.90374 -179.647822 
L 422.212503 -179.899614 
L 421.521266 -180.007809 
L 420.830029 -180.293768 
L 420.138792 -180.392986 
L 419.447555 -180.638154 
L 418.756318 -180.873689 
L 418.065081 -181.081797 
L 417.373844 -181.31036 
L 416.682607 -181.473514 
L 415.99137 -181.590601 
L 415.300133 -181.558688 
L 414.608896 -181.668233 
L 413.917659 -181.580079 
L 413.226422 -181.481347 
L 412.535185 -181.394895 
L 411.843948 -181.24613 
L 411.152711 -181.096203 
L 410.461474 -181.210895 
L 409.770237 -181.273937 
L 409.079 -181.448724 
L 408.387763 -181.840844 
L 407.696526 -182.176259 
L 407.005289 -182.424644 
L 406.314052 -182.792585 
L 405.622815 -183.140513 
L 404.931578 -183.417 
L 404.240341 -183.725834 
L 403.549104 -183.666244 
L 402.857867 -183.750753 
L 402.16663 -183.821782 
L 401.475393 -183.966089 
L 400.784156 -184.064777 
L 400.092919 -184.084368 
L 399.401682 -184.224601 
L 398.710445 -184.129415 
L 398.019208 -184.13143 
L 397.32797 -184.281549 
L 396.636733 -184.376256 
L 395.945496 -184.722367 
L 395.254259 -184.851348 
L 394.563022 -184.959099 
L 393.871785 -185.157795 
L 393.180548 -185.573542 
L 392.489311 -185.943434 
L 391.798074 -186.232047 
L 391.106837 -186.306546 
L 390.4156 -186.612738 
L 389.724363 -186.946056 
L 389.033126 -187.090941 
L 388.341889 -187.271539 
L 387.650652 -187.423746 
L 386.959415 -187.711451 
L 386.268178 -187.661338 
L 385.576941 -187.789011 
L 384.885704 -188.040322 
L 384.194467 -188.247712 
L 383.50323 -188.41706 
L 382.811993 -188.578383 
L 382.120756 -188.747401 
L 381.429519 -188.910192 
L 380.738282 -189.017623 
L 380.047045 -189.133935 
L 379.355808 -189.202851 
L 378.664571 -189.328369 
L 377.973334 -189.563281 
L 377.282097 -189.661743 
L 376.59086 -189.86275 
L 375.899623 -189.970575 
L 375.208386 -189.921511 
L 374.517149 -189.957363 
L 373.825912 -190.126111 
L 373.134675 -190.316113 
L 372.443438 -190.51662 
L 371.752201 -190.652954 
L 371.060964 -190.786482 
L 370.369727 -191.085407 
L 369.67849 -191.282967 
L 368.987253 -191.535881 
L 368.296016 -191.737364 
L 367.604779 -191.803975 
L 366.913542 -191.90777 
L 366.222305 -192.133432 
L 365.531068 -192.208854 
L 364.839831 -192.059539 
L 364.148594 -191.914214 
L 363.457357 -191.640486 
L 362.76612 -191.590218 
L 362.074882 -191.603763 
L 361.383645 -191.579455 
L 360.692408 -191.555179 
L 360.001171 -191.614764 
L 359.309934 -191.667189 
L 358.618697 -191.573032 
L 357.92746 -191.503194 
L 357.236223 -191.396836 
L 356.544986 -191.420593 
L 355.853749 -191.62154 
L 355.162512 -191.722276 
L 354.471275 -191.743681 
L 353.780038 -191.947819 
L 353.088801 -192.124632 
L 352.397564 -192.524271 
L 351.706327 -192.877167 
L 351.01509 -193.025322 
L 350.323853 -193.200729 
L 349.632616 -193.417561 
L 348.941379 -193.741239 
L 348.250142 -194.070905 
L 347.558905 -194.464853 
L 346.867668 -194.862735 
L 346.176431 -195.214968 
L 345.485194 -195.580499 
L 344.793957 -195.940941 
L 344.10272 -196.161235 
L 343.411483 -196.36195 
L 342.720246 -196.561945 
L 342.029009 -196.650583 
L 341.337772 -196.734638 
L 340.646535 -196.797532 
L 339.955298 -196.953872 
L 339.264061 -197.130361 
L 338.572824 -197.015612 
L 337.881587 -196.83524 
L 337.19035 -196.518545 
L 336.499113 -195.89237 
L 335.807876 -195.065155 
L 335.116639 -194.165768 
L 334.425402 -193.338936 
L 333.734165 -192.94417 
L 333.042928 -192.67487 
L 332.351691 -192.53542 
L 331.660454 -192.533677 
L 330.969217 -192.69554 
L 330.27798 -192.721109 
L 329.586743 -192.769405 
L 328.895506 -192.926718 
L 328.204269 -193.090776 
L 327.513032 -193.232986 
L 326.821794 -193.274657 
L 326.130557 -193.357227 
L 325.43932 -193.387627 
L 324.748083 -193.526351 
L 324.056846 -193.677144 
L 323.365609 -193.850516 
L 322.674372 -193.936369 
L 321.983135 -193.984071 
L 321.291898 -193.988971 
L 320.600661 -194.012626 
L 319.909424 -193.847717 
L 319.218187 -193.889343 
L 318.52695 -193.868112 
L 317.835713 -194.062431 
L 317.144476 -194.029592 
L 316.453239 -193.928459 
L 315.762002 -193.899707 
L 315.070765 -193.762837 
L 314.379528 -193.786768 
L 313.688291 -193.776304 
L 312.997054 -193.417666 
L 312.305817 -193.093874 
L 311.61458 -192.801423 
L 310.923343 -192.372773 
L 310.232106 -191.954848 
L 309.540869 -191.507767 
L 308.849632 -191.09715 
L 308.158395 -190.723979 
L 307.467158 -190.172836 
L 306.775921 -189.744087 
L 306.084684 -189.234428 
L 305.393447 -188.88754 
L 304.70221 -188.566163 
L 304.010973 -188.421509 
L 303.319736 -188.492113 
L 302.628499 -188.439596 
L 301.937262 -188.432643 
L 301.246025 -188.422917 
L 300.554788 -188.356992 
L 299.863551 -188.491541 
L 299.172314 -188.549907 
L 298.481077 -188.761523 
L 297.78984 -188.788861 
L 297.098603 -188.848024 
L 296.407366 -188.862262 
L 295.716129 -188.861397 
L 295.024892 -188.921023 
L 294.333655 -188.934379 
L 293.642418 -188.957959 
L 292.951181 -188.994602 
L 292.259944 -189.041391 
L 291.568707 -189.072614 
L 290.877469 -189.301507 
L 290.186232 -189.481988 
L 289.494995 -189.953401 
L 288.803758 -190.536035 
L 288.112521 -190.824386 
L 287.421284 -191.242852 
L 286.730047 -191.631421 
L 286.03881 -191.962607 
L 285.347573 -192.341338 
L 284.656336 -192.664155 
L 283.965099 -192.987625 
L 283.273862 -193.260113 
L 282.582625 -193.196066 
L 281.891388 -193.445848 
L 281.200151 -193.58055 
L 280.508914 -193.518742 
L 279.817677 -193.551741 
L 279.12644 -193.483625 
L 278.435203 -193.639541 
L 277.743966 -193.531331 
L 277.052729 -193.591435 
L 276.361492 -193.590339 
L 275.670255 -193.605862 
L 274.979018 -193.542849 
L 274.287781 -193.464974 
L 273.596544 -193.449134 
L 272.905307 -193.69126 
L 272.21407 -194.088511 
L 271.522833 -194.387014 
L 270.831596 -194.691165 
L 270.140359 -194.806874 
L 269.449122 -195.07638 
L 268.757885 -195.34988 
L 268.066648 -195.659593 
L 267.375411 -195.903247 
L 266.684174 -196.1245 
L 265.992937 -196.258762 
L 265.3017 -196.344423 
L 264.610463 -196.309523 
L 263.919226 -196.245813 
L 263.227989 -196.336695 
L 262.536752 -196.367089 
L 261.845515 -196.399375 
L 261.154278 -196.261835 
L 260.463041 -196.501756 
L 259.771804 -196.571752 
L 259.080567 -196.657079 
L 258.38933 -196.681204 
L 257.698093 -196.738437 
L 257.006856 -196.856016 
L 256.315619 -196.966361 
L 255.624381 -196.982101 
L 254.933144 -196.833226 
L 254.241907 -196.675465 
L 253.55067 -196.596233 
L 252.859433 -196.503769 
L 252.168196 -196.488269 
L 251.476959 -196.764755 
L 250.785722 -197.034124 
L 250.094485 -197.284883 
L 249.403248 -197.52411 
L 248.712011 -197.719032 
L 248.020774 -197.982478 
L 247.329537 -198.11295 
L 246.6383 -198.386184 
L 245.947063 -198.716241 
L 245.255826 -198.98028 
L 244.564589 -199.226291 
L 243.873352 -199.667261 
L 243.182115 -200.094208 
L 242.490878 -200.440775 
L 241.799641 -200.429399 
L 241.108404 -200.532172 
L 240.417167 -200.305033 
L 239.72593 -200.480212 
L 239.034693 -200.434259 
L 238.343456 -200.215969 
L 237.652219 -200.142974 
L 236.960982 -200.211824 
L 236.269745 -200.286948 
L 235.578508 -200.265481 
L 234.887271 -200.246674 
L 234.196034 -200.277613 
L 233.504797 -200.28962 
L 232.81356 -200.142046 
L 232.122323 -200.151185 
L 231.431086 -200.135406 
L 230.739849 -200.01643 
L 230.048612 -200.100823 
L 229.357375 -200.022972 
L 228.666138 -200.240847 
L 227.974901 -200.102697 
L 227.283664 -200.035428 
L 226.592427 -199.868406 
L 225.90119 -199.845784 
L 225.209953 -199.80443 
L 224.518716 -199.767133 
L 223.827479 -199.939727 
L 223.136242 -199.928427 
L 222.445005 -200.034675 
L 221.753768 -200.347597 
L 221.062531 -200.459468 
L 220.371293 -200.786382 
L 219.680056 -201.013884 
L 218.988819 -201.224261 
L 218.297582 -201.417697 
L 217.606345 -201.846027 
L 216.915108 -202.110621 
L 216.223871 -202.517464 
L 215.532634 -202.668406 
L 214.841397 -202.751022 
L 214.15016 -202.771173 
L 213.458923 -202.744186 
L 212.767686 -202.834992 
L 212.076449 -202.674431 
L 211.385212 -202.642397 
L 210.693975 -202.809872 
L 210.002738 -203.229638 
L 209.311501 -203.568889 
L 208.620264 -203.780867 
L 207.929027 -203.809003 
L 207.23779 -204.05942 
L 206.546553 -204.516589 
L 205.855316 -204.729096 
L 205.164079 -205.260367 
L 204.472842 -205.635153 
L 203.781605 -206.15778 
L 203.090368 -206.378841 
L 202.399131 -206.770773 
L 201.707894 -207.23539 
L 201.016657 -207.48618 
L 200.32542 -207.841873 
L 199.634183 -208.095477 
L 198.942946 -208.406619 
L 198.251709 -208.880579 
L 197.560472 -209.452315 
L 196.869235 -209.909662 
L 196.177998 -210.364737 
L 195.486761 -210.746185 
L 194.795524 -211.279192 
L 194.104287 -211.714401 
L 193.41305 -212.140659 
L 192.721813 -212.425688 
L 192.030576 -212.739973 
L 191.339339 -213.139538 
L 190.648102 -213.4314 
L 189.956865 -213.416383 
L 189.265628 -213.511847 
L 188.574391 -213.619144 
L 187.883154 -214.090698 
L 187.191917 -214.367468 
L 186.50068 -214.597673 
L 185.809443 -215.094612 
L 185.118206 -215.553802 
L 184.426968 -216.132764 
L 183.735731 -216.760683 
L 183.044494 -217.348965 
L 182.353257 -217.919155 
L 181.66202 -218.697938 
L 180.970783 -219.321306 
L 180.279546 -219.854817 
L 179.588309 -220.252633 
L 178.897072 -220.59874 
L 178.205835 -220.936112 
L 177.514598 -221.341198 
L 176.823361 -221.813153 
L 176.132124 -222.090615 
L 175.440887 -222.5327 
L 174.74965 -222.993888 
L 174.058413 -223.333877 
L 173.367176 -223.670221 
L 172.675939 -223.96788 
L 171.984702 -224.551546 
L 171.293465 -225.068661 
L 170.602228 -225.815934 
L 169.910991 -226.603593 
L 169.219754 -227.42504 
L 168.528517 -228.120034 
L 167.83728 -228.860106 
L 167.146043 -229.452145 
L 166.454806 -230.003929 
L 165.763569 -230.62447 
L 165.072332 -231.120188 
L 164.381095 -231.729363 
L 163.689858 -232.403298 
L 162.998621 -233.028704 
L 162.307384 -233.57149 
L 161.616147 -234.04358 
L 160.92491 -234.437906 
L 160.233673 -234.641815 
L 159.542436 -235.178179 
L 158.851199 -235.594743 
L 158.159962 -235.98513 
L 157.468725 -236.304036 
L 156.777488 -236.791562 
L 156.086251 -237.237428 
L 155.395014 -238.008713 
L 154.703777 -238.776195 
L 154.01254 -239.573849 
L 153.321303 -240.414047 
L 152.630066 -241.331397 
L 151.938829 -241.958348 
L 151.247592 -242.39277 
L 150.556355 -243.02626 
L 149.865118 -243.69396 
L 149.17388 -244.281626 
L 148.482643 -244.805862 
L 147.791406 -245.125414 
L 147.100169 -245.641884 
L 146.408932 -245.932601 
L 145.717695 -246.077663 
L 145.026458 -245.895253 
L 144.335221 -245.212545 
L 143.643984 -244.457708 
L 142.952747 -243.59632 
L 142.26151 -242.866967 
L 141.570273 -242.435478 
L 140.879036 -242.538415 
L 140.187799 -242.509991 
L 139.496562 -242.983345 
L 138.805325 -243.605158 
L 138.114088 -244.339627 
L 137.422851 -244.991612 
L 136.731614 -245.904078 
L 136.040377 -246.714125 
L 135.34914 -247.581102 
L 134.657903 -248.555987 
L 133.966666 -249.43706 
L 133.275429 -250.384222 
L 132.584192 -251.311473 
L 131.892955 -252.309877 
L 131.201718 -253.049952 
L 130.510481 -253.984793 
L 129.819244 -254.613161 
L 129.128007 -255.359854 
L 128.43677 -256.268932 
L 127.745533 -256.94229 
L 127.054296 -257.730028 
L 126.363059 -258.530139 
L 125.671822 -259.482356 
L 124.980585 -260.214747 
L 124.289348 -260.800548 
L 123.598111 -261.571293 
L 122.906874 -262.319608 
L 122.215637 -262.868793 
L 121.5244 -263.14504 
L 120.833163 -263.583366 
L 120.141926 -264.181639 
L 119.450689 -264.178365 
L 118.759452 -264.550398 
L 118.068215 -264.542679 
L 117.376978 -263.934664 
L 116.685741 -263.49161 
L 115.994504 -263.049351 
L 115.303267 -263.009433 
L 114.61203 -263.306894 
L 113.920792 -263.511536 
L 113.229555 -264.011271 
L 112.538318 -264.73434 
L 111.847081 -265.297372 
L 111.155844 -265.731015 
L 110.464607 -266.20245 
L 109.77337 -266.521128 
L 109.082133 -266.94197 
L 108.390896 -267.486542 
L 107.699659 -267.996994 
L 107.008422 -268.723703 
L 106.317185 -269.618471 
L 105.625948 -270.696881 
L 104.934711 -271.899517 
L 104.243474 -272.919372 
L 103.552237 -274.149114 
L 102.861 -275.351661 
L 102.169763 -276.31276 
L 101.478526 -277.503672 
L 100.787289 -278.603412 
L 100.096052 -279.967089 
L 99.404815 -281.295111 
L 98.713578 -282.48555 
L 98.022341 -283.718791 
L 97.331104 -284.715687 
L 96.639867 -285.942369 
L 95.94863 -287.087541 
L 95.257393 -288.476735 
L 94.566156 -289.651184 
L 93.874919 -290.84947 
L 93.183682 -292.346922 
L 92.492445 -293.923133 
L 91.801208 -295.481721 
L 91.109971 -297.128309 
L 90.418734 -299.031871 
L 89.727497 -300.963798 
L 89.03626 -303.141469 
L 88.345023 -305.598769 
L 87.653786 -307.985211 
L 86.962549 -310.714325 
L 86.271312 -313.567058 
L 85.580075 -316.772203 
L 84.888838 -320.127289 
L 84.197601 -323.514342 
L 83.506364 -325.08 
z
" id="m34ba55fe2c"/>
    </defs>
    <g clip-path="url(#p073dfce24b)">
     <use style="fill:#00008b;fill-opacity:0.15;" x="0" xlink:href="#m34ba55fe2c" y="345.6"/>
    </g>
   </g>
   <g id="matplotlib.axis_1">
    <g id="xtick_1">
     <g id="line2d_1">
      <defs>
       <path d="M 0 0 
L 0 3.5 
" id="m209204dc86" style="stroke:#000000;stroke-width:0.8;"/>
      </defs>
      <g>
       <use style="stroke:#000000;stroke-width:0.8;" x="82.815127" xlink:href="#m209204dc86" y="292.12"/>
      </g>
     </g>
     <g id="text_1">
      <!-- 0 -->
      <defs>
       <path d="M 31.78125 66.40625 
Q 24.171875 66.40625 20.328125 58.90625 
Q 16.5 51.421875 16.5 36.375 
Q 16.5 21.390625 20.328125 13.890625 
Q 24.171875 6.390625 31.78125 6.390625 
Q 39.453125 6.390625 43.28125 13.890625 
Q 47.125 21.390625 47.125 36.375 
Q 47.125 51.421875 43.28125 58.90625 
Q 39.453125 66.40625 31.78125 66.40625 
z
M 31.78125 74.21875 
Q 44.046875 74.21875 50.515625 64.515625 
Q 56.984375 54.828125 56.984375 36.375 
Q 56.984375 17.96875 50.515625 8.265625 
Q 44.046875 -1.421875 31.78125 -1.421875 
Q 19.53125 -1.421875 13.0625 8.265625 
Q 6.59375 17.96875 6.59375 36.375 
Q 6.59375 54.828125 13.0625 64.515625 
Q 19.53125 74.21875 31.78125 74.21875 
z
" id="DejaVuSans-48"/>
      </defs>
      <g transform="translate(78.361377 309.757812)scale(0.14 -0.14)">
       <use xlink:href="#DejaVuSans-48"/>
      </g>
     </g>
    </g>
    <g id="xtick_2">
     <g id="line2d_2">
      <g>
       <use style="stroke:#000000;stroke-width:0.8;" x="151.938829" xlink:href="#m209204dc86" y="292.12"/>
      </g>
     </g>
     <g id="text_2">
      <!-- 100 -->
      <defs>
       <path d="M 12.40625 8.296875 
L 28.515625 8.296875 
L 28.515625 63.921875 
L 10.984375 60.40625 
L 10.984375 69.390625 
L 28.421875 72.90625 
L 38.28125 72.90625 
L 38.28125 8.296875 
L 54.390625 8.296875 
L 54.390625 0 
L 12.40625 0 
z
" id="DejaVuSans-49"/>
      </defs>
      <g transform="translate(138.577579 309.757812)scale(0.14 -0.14)">
       <use xlink:href="#DejaVuSans-49"/>
       <use x="63.623047" xlink:href="#DejaVuSans-48"/>
       <use x="127.246094" xlink:href="#DejaVuSans-48"/>
      </g>
     </g>
    </g>
    <g id="xtick_3">
     <g id="line2d_3">
      <g>
       <use style="stroke:#000000;stroke-width:0.8;" x="221.062531" xlink:href="#m209204dc86" y="292.12"/>
      </g>
     </g>
     <g id="text_3">
      <!-- 200 -->
      <defs>
       <path d="M 19.1875 8.296875 
L 53.609375 8.296875 
L 53.609375 0 
L 7.328125 0 
L 7.328125 8.296875 
Q 12.9375 14.109375 22.625 23.890625 
Q 32.328125 33.6875 34.8125 36.53125 
Q 39.546875 41.84375 41.421875 45.53125 
Q 43.3125 49.21875 43.3125 52.78125 
Q 43.3125 58.59375 39.234375 62.25 
Q 35.15625 65.921875 28.609375 65.921875 
Q 23.96875 65.921875 18.8125 64.3125 
Q 13.671875 62.703125 7.8125 59.421875 
L 7.8125 69.390625 
Q 13.765625 71.78125 18.9375 73 
Q 24.125 74.21875 28.421875 74.21875 
Q 39.75 74.21875 46.484375 68.546875 
Q 53.21875 62.890625 53.21875 53.421875 
Q 53.21875 48.921875 51.53125 44.890625 
Q 49.859375 40.875 45.40625 35.40625 
Q 44.1875 33.984375 37.640625 27.21875 
Q 31.109375 20.453125 19.1875 8.296875 
z
" id="DejaVuSans-50"/>
      </defs>
      <g transform="translate(207.701281 309.757812)scale(0.14 -0.14)">
       <use xlink:href="#DejaVuSans-50"/>
       <use x="63.623047" xlink:href="#DejaVuSans-48"/>
       <use x="127.246094" xlink:href="#DejaVuSans-48"/>
      </g>
     </g>
    </g>
    <g id="xtick_4">
     <g id="line2d_4">
      <g>
       <use style="stroke:#000000;stroke-width:0.8;" x="290.186232" xlink:href="#m209204dc86" y="292.12"/>
      </g>
     </g>
     <g id="text_4">
      <!-- 300 -->
      <defs>
       <path d="M 40.578125 39.3125 
Q 47.65625 37.796875 51.625 33 
Q 55.609375 28.21875 55.609375 21.1875 
Q 55.609375 10.40625 48.1875 4.484375 
Q 40.765625 -1.421875 27.09375 -1.421875 
Q 22.515625 -1.421875 17.65625 -0.515625 
Q 12.796875 0.390625 7.625 2.203125 
L 7.625 11.71875 
Q 11.71875 9.328125 16.59375 8.109375 
Q 21.484375 6.890625 26.8125 6.890625 
Q 36.078125 6.890625 40.9375 10.546875 
Q 45.796875 14.203125 45.796875 21.1875 
Q 45.796875 27.640625 41.28125 31.265625 
Q 36.765625 34.90625 28.71875 34.90625 
L 20.21875 34.90625 
L 20.21875 43.015625 
L 29.109375 43.015625 
Q 36.375 43.015625 40.234375 45.921875 
Q 44.09375 48.828125 44.09375 54.296875 
Q 44.09375 59.90625 40.109375 62.90625 
Q 36.140625 65.921875 28.71875 65.921875 
Q 24.65625 65.921875 20.015625 65.03125 
Q 15.375 64.15625 9.8125 62.3125 
L 9.8125 71.09375 
Q 15.4375 72.65625 20.34375 73.4375 
Q 25.25 74.21875 29.59375 74.21875 
Q 40.828125 74.21875 47.359375 69.109375 
Q 53.90625 64.015625 53.90625 55.328125 
Q 53.90625 49.265625 50.4375 45.09375 
Q 46.96875 40.921875 40.578125 39.3125 
z
" id="DejaVuSans-51"/>
      </defs>
      <g transform="translate(276.824982 309.757812)scale(0.14 -0.14)">
       <use xlink:href="#DejaVuSans-51"/>
       <use x="63.623047" xlink:href="#DejaVuSans-48"/>
       <use x="127.246094" xlink:href="#DejaVuSans-48"/>
      </g>
     </g>
    </g>
    <g id="xtick_5">
     <g id="line2d_5">
      <g>
       <use style="stroke:#000000;stroke-width:0.8;" x="359.309934" xlink:href="#m209204dc86" y="292.12"/>
      </g>
     </g>
     <g id="text_5">
      <!-- 400 -->
      <defs>
       <path d="M 37.796875 64.3125 
L 12.890625 25.390625 
L 37.796875 25.390625 
z
M 35.203125 72.90625 
L 47.609375 72.90625 
L 47.609375 25.390625 
L 58.015625 25.390625 
L 58.015625 17.1875 
L 47.609375 17.1875 
L 47.609375 0 
L 37.796875 0 
L 37.796875 17.1875 
L 4.890625 17.1875 
L 4.890625 26.703125 
z
" id="DejaVuSans-52"/>
      </defs>
      <g transform="translate(345.948684 309.757812)scale(0.14 -0.14)">
       <use xlink:href="#DejaVuSans-52"/>
       <use x="63.623047" xlink:href="#DejaVuSans-48"/>
       <use x="127.246094" xlink:href="#DejaVuSans-48"/>
      </g>
     </g>
    </g>
    <g id="xtick_6">
     <g id="line2d_6">
      <g>
       <use style="stroke:#000000;stroke-width:0.8;" x="428.433636" xlink:href="#m209204dc86" y="292.12"/>
      </g>
     </g>
     <g id="text_6">
      <!-- 500 -->
      <defs>
       <path d="M 10.796875 72.90625 
L 49.515625 72.90625 
L 49.515625 64.59375 
L 19.828125 64.59375 
L 19.828125 46.734375 
Q 21.96875 47.46875 24.109375 47.828125 
Q 26.265625 48.1875 28.421875 48.1875 
Q 40.625 48.1875 47.75 41.5 
Q 54.890625 34.8125 54.890625 23.390625 
Q 54.890625 11.625 47.5625 5.09375 
Q 40.234375 -1.421875 26.90625 -1.421875 
Q 22.3125 -1.421875 17.546875 -0.640625 
Q 12.796875 0.140625 7.71875 1.703125 
L 7.71875 11.625 
Q 12.109375 9.234375 16.796875 8.0625 
Q 21.484375 6.890625 26.703125 6.890625 
Q 35.15625 6.890625 40.078125 11.328125 
Q 45.015625 15.765625 45.015625 23.390625 
Q 45.015625 31 40.078125 35.4375 
Q 35.15625 39.890625 26.703125 39.890625 
Q 22.75 39.890625 18.8125 39.015625 
Q 14.890625 38.140625 10.796875 36.28125 
z
" id="DejaVuSans-53"/>
      </defs>
      <g transform="translate(415.072386 309.757812)scale(0.14 -0.14)">
       <use xlink:href="#DejaVuSans-53"/>
       <use x="63.623047" xlink:href="#DejaVuSans-48"/>
       <use x="127.246094" xlink:href="#DejaVuSans-48"/>
      </g>
     </g>
    </g>
    <g id="text_7">
     <!-- generations -->
     <defs>
      <path d="M 45.40625 27.984375 
Q 45.40625 37.75 41.375 43.109375 
Q 37.359375 48.484375 30.078125 48.484375 
Q 22.859375 48.484375 18.828125 43.109375 
Q 14.796875 37.75 14.796875 27.984375 
Q 14.796875 18.265625 18.828125 12.890625 
Q 22.859375 7.515625 30.078125 7.515625 
Q 37.359375 7.515625 41.375 12.890625 
Q 45.40625 18.265625 45.40625 27.984375 
z
M 54.390625 6.78125 
Q 54.390625 -7.171875 48.1875 -13.984375 
Q 42 -20.796875 29.203125 -20.796875 
Q 24.46875 -20.796875 20.265625 -20.09375 
Q 16.0625 -19.390625 12.109375 -17.921875 
L 12.109375 -9.1875 
Q 16.0625 -11.328125 19.921875 -12.34375 
Q 23.78125 -13.375 27.78125 -13.375 
Q 36.625 -13.375 41.015625 -8.765625 
Q 45.40625 -4.15625 45.40625 5.171875 
L 45.40625 9.625 
Q 42.625 4.78125 38.28125 2.390625 
Q 33.9375 0 27.875 0 
Q 17.828125 0 11.671875 7.65625 
Q 5.515625 15.328125 5.515625 27.984375 
Q 5.515625 40.671875 11.671875 48.328125 
Q 17.828125 56 27.875 56 
Q 33.9375 56 38.28125 53.609375 
Q 42.625 51.21875 45.40625 46.390625 
L 45.40625 54.6875 
L 54.390625 54.6875 
z
" id="DejaVuSans-103"/>
      <path d="M 56.203125 29.59375 
L 56.203125 25.203125 
L 14.890625 25.203125 
Q 15.484375 15.921875 20.484375 11.0625 
Q 25.484375 6.203125 34.421875 6.203125 
Q 39.59375 6.203125 44.453125 7.46875 
Q 49.3125 8.734375 54.109375 11.28125 
L 54.109375 2.78125 
Q 49.265625 0.734375 44.1875 -0.34375 
Q 39.109375 -1.421875 33.890625 -1.421875 
Q 20.796875 -1.421875 13.15625 6.1875 
Q 5.515625 13.8125 5.515625 26.8125 
Q 5.515625 40.234375 12.765625 48.109375 
Q 20.015625 56 32.328125 56 
Q 43.359375 56 49.78125 48.890625 
Q 56.203125 41.796875 56.203125 29.59375 
z
M 47.21875 32.234375 
Q 47.125 39.59375 43.09375 43.984375 
Q 39.0625 48.390625 32.421875 48.390625 
Q 24.90625 48.390625 20.390625 44.140625 
Q 15.875 39.890625 15.1875 32.171875 
z
" id="DejaVuSans-101"/>
      <path d="M 54.890625 33.015625 
L 54.890625 0 
L 45.90625 0 
L 45.90625 32.71875 
Q 45.90625 40.484375 42.875 44.328125 
Q 39.84375 48.1875 33.796875 48.1875 
Q 26.515625 48.1875 22.3125 43.546875 
Q 18.109375 38.921875 18.109375 30.90625 
L 18.109375 0 
L 9.078125 0 
L 9.078125 54.6875 
L 18.109375 54.6875 
L 18.109375 46.1875 
Q 21.34375 51.125 25.703125 53.5625 
Q 30.078125 56 35.796875 56 
Q 45.21875 56 50.046875 50.171875 
Q 54.890625 44.34375 54.890625 33.015625 
z
" id="DejaVuSans-110"/>
      <path d="M 41.109375 46.296875 
Q 39.59375 47.171875 37.8125 47.578125 
Q 36.03125 48 33.890625 48 
Q 26.265625 48 22.1875 43.046875 
Q 18.109375 38.09375 18.109375 28.8125 
L 18.109375 0 
L 9.078125 0 
L 9.078125 54.6875 
L 18.109375 54.6875 
L 18.109375 46.1875 
Q 20.953125 51.171875 25.484375 53.578125 
Q 30.03125 56 36.53125 56 
Q 37.453125 56 38.578125 55.875 
Q 39.703125 55.765625 41.0625 55.515625 
z
" id="DejaVuSans-114"/>
      <path d="M 34.28125 27.484375 
Q 23.390625 27.484375 19.1875 25 
Q 14.984375 22.515625 14.984375 16.5 
Q 14.984375 11.71875 18.140625 8.90625 
Q 21.296875 6.109375 26.703125 6.109375 
Q 34.1875 6.109375 38.703125 11.40625 
Q 43.21875 16.703125 43.21875 25.484375 
L 43.21875 27.484375 
z
M 52.203125 31.203125 
L 52.203125 0 
L 43.21875 0 
L 43.21875 8.296875 
Q 40.140625 3.328125 35.546875 0.953125 
Q 30.953125 -1.421875 24.3125 -1.421875 
Q 15.921875 -1.421875 10.953125 3.296875 
Q 6 8.015625 6 15.921875 
Q 6 25.140625 12.171875 29.828125 
Q 18.359375 34.515625 30.609375 34.515625 
L 43.21875 34.515625 
L 43.21875 35.40625 
Q 43.21875 41.609375 39.140625 45 
Q 35.0625 48.390625 27.6875 48.390625 
Q 23 48.390625 18.546875 47.265625 
Q 14.109375 46.140625 10.015625 43.890625 
L 10.015625 52.203125 
Q 14.9375 54.109375 19.578125 55.046875 
Q 24.21875 56 28.609375 56 
Q 40.484375 56 46.34375 49.84375 
Q 52.203125 43.703125 52.203125 31.203125 
z
" id="DejaVuSans-97"/>
      <path d="M 18.3125 70.21875 
L 18.3125 54.6875 
L 36.8125 54.6875 
L 36.8125 47.703125 
L 18.3125 47.703125 
L 18.3125 18.015625 
Q 18.3125 11.328125 20.140625 9.421875 
Q 21.96875 7.515625 27.59375 7.515625 
L 36.8125 7.515625 
L 36.8125 0 
L 27.59375 0 
Q 17.1875 0 13.234375 3.875 
Q 9.28125 7.765625 9.28125 18.015625 
L 9.28125 47.703125 
L 2.6875 47.703125 
L 2.6875 54.6875 
L 9.28125 54.6875 
L 9.28125 70.21875 
z
" id="DejaVuSans-116"/>
      <path d="M 9.421875 54.6875 
L 18.40625 54.6875 
L 18.40625 0 
L 9.421875 0 
z
M 9.421875 75.984375 
L 18.40625 75.984375 
L 18.40625 64.59375 
L 9.421875 64.59375 
z
" id="DejaVuSans-105"/>
      <path d="M 30.609375 48.390625 
Q 23.390625 48.390625 19.1875 42.75 
Q 14.984375 37.109375 14.984375 27.296875 
Q 14.984375 17.484375 19.15625 11.84375 
Q 23.34375 6.203125 30.609375 6.203125 
Q 37.796875 6.203125 41.984375 11.859375 
Q 46.1875 17.53125 46.1875 27.296875 
Q 46.1875 37.015625 41.984375 42.703125 
Q 37.796875 48.390625 30.609375 48.390625 
z
M 30.609375 56 
Q 42.328125 56 49.015625 48.375 
Q 55.71875 40.765625 55.71875 27.296875 
Q 55.71875 13.875 49.015625 6.21875 
Q 42.328125 -1.421875 30.609375 -1.421875 
Q 18.84375 -1.421875 12.171875 6.21875 
Q 5.515625 13.875 5.515625 27.296875 
Q 5.515625 40.765625 12.171875 48.375 
Q 18.84375 56 30.609375 56 
z
" id="DejaVuSans-111"/>
      <path d="M 44.28125 53.078125 
L 44.28125 44.578125 
Q 40.484375 46.53125 36.375 47.5 
Q 32.28125 48.484375 27.875 48.484375 
Q 21.1875 48.484375 17.84375 46.4375 
Q 14.5 44.390625 14.5 40.28125 
Q 14.5 37.15625 16.890625 35.375 
Q 19.28125 33.59375 26.515625 31.984375 
L 29.59375 31.296875 
Q 39.15625 29.25 43.1875 25.515625 
Q 47.21875 21.78125 47.21875 15.09375 
Q 47.21875 7.46875 41.1875 3.015625 
Q 35.15625 -1.421875 24.609375 -1.421875 
Q 20.21875 -1.421875 15.453125 -0.5625 
Q 10.6875 0.296875 5.421875 2 
L 5.421875 11.28125 
Q 10.40625 8.6875 15.234375 7.390625 
Q 20.0625 6.109375 24.8125 6.109375 
Q 31.15625 6.109375 34.5625 8.28125 
Q 37.984375 10.453125 37.984375 14.40625 
Q 37.984375 18.0625 35.515625 20.015625 
Q 33.0625 21.96875 24.703125 23.78125 
L 21.578125 24.515625 
Q 13.234375 26.265625 9.515625 29.90625 
Q 5.8125 33.546875 5.8125 39.890625 
Q 5.8125 47.609375 11.28125 51.796875 
Q 16.75 56 26.8125 56 
Q 31.78125 56 36.171875 55.265625 
Q 40.578125 54.546875 44.28125 53.078125 
z
" id="DejaVuSans-115"/>
     </defs>
     <g transform="translate(214.253281 327.307187)scale(0.14 -0.14)">
      <use xlink:href="#DejaVuSans-103"/>
      <use x="63.476562" xlink:href="#DejaVuSans-101"/>
      <use x="125" xlink:href="#DejaVuSans-110"/>
      <use x="188.378906" xlink:href="#DejaVuSans-101"/>
      <use x="249.902344" xlink:href="#DejaVuSans-114"/>
      <use x="291.015625" xlink:href="#DejaVuSans-97"/>
      <use x="352.294922" xlink:href="#DejaVuSans-116"/>
      <use x="391.503906" xlink:href="#DejaVuSans-105"/>
      <use x="419.287109" xlink:href="#DejaVuSans-111"/>
      <use x="480.46875" xlink:href="#DejaVuSans-110"/>
      <use x="543.847656" xlink:href="#DejaVuSans-115"/>
     </g>
    </g>
   </g>
   <g id="matplotlib.axis_2">
    <g id="ytick_1">
     <g id="line2d_7">
      <defs>
       <path d="M 0 0 
L -3.5 0 
" id="m146191bffc" style="stroke:#000000;stroke-width:0.8;"/>
      </defs>
      <g>
       <use style="stroke:#000000;stroke-width:0.8;" x="66.26" xlink:href="#m146191bffc" y="292.12"/>
      </g>
     </g>
     <g id="text_8">
      <!-- 0 -->
      <g transform="translate(50.3525 297.438906)scale(0.14 -0.14)">
       <use xlink:href="#DejaVuSans-48"/>
      </g>
     </g>
    </g>
    <g id="ytick_2">
     <g id="line2d_8">
      <g>
       <use style="stroke:#000000;stroke-width:0.8;" x="66.26" xlink:href="#m146191bffc" y="237.8"/>
      </g>
     </g>
     <g id="text_9">
      <!-- 20 -->
      <g transform="translate(41.445 243.118906)scale(0.14 -0.14)">
       <use xlink:href="#DejaVuSans-50"/>
       <use x="63.623047" xlink:href="#DejaVuSans-48"/>
      </g>
     </g>
    </g>
    <g id="ytick_3">
     <g id="line2d_9">
      <g>
       <use style="stroke:#000000;stroke-width:0.8;" x="66.26" xlink:href="#m146191bffc" y="183.48"/>
      </g>
     </g>
     <g id="text_10">
      <!-- 40 -->
      <g transform="translate(41.445 188.798906)scale(0.14 -0.14)">
       <use xlink:href="#DejaVuSans-52"/>
       <use x="63.623047" xlink:href="#DejaVuSans-48"/>
      </g>
     </g>
    </g>
    <g id="ytick_4">
     <g id="line2d_10">
      <g>
       <use style="stroke:#000000;stroke-width:0.8;" x="66.26" xlink:href="#m146191bffc" y="129.16"/>
      </g>
     </g>
     <g id="text_11">
      <!-- 60 -->
      <defs>
       <path d="M 33.015625 40.375 
Q 26.375 40.375 22.484375 35.828125 
Q 18.609375 31.296875 18.609375 23.390625 
Q 18.609375 15.53125 22.484375 10.953125 
Q 26.375 6.390625 33.015625 6.390625 
Q 39.65625 6.390625 43.53125 10.953125 
Q 47.40625 15.53125 47.40625 23.390625 
Q 47.40625 31.296875 43.53125 35.828125 
Q 39.65625 40.375 33.015625 40.375 
z
M 52.59375 71.296875 
L 52.59375 62.3125 
Q 48.875 64.0625 45.09375 64.984375 
Q 41.3125 65.921875 37.59375 65.921875 
Q 27.828125 65.921875 22.671875 59.328125 
Q 17.53125 52.734375 16.796875 39.40625 
Q 19.671875 43.65625 24.015625 45.921875 
Q 28.375 48.1875 33.59375 48.1875 
Q 44.578125 48.1875 50.953125 41.515625 
Q 57.328125 34.859375 57.328125 23.390625 
Q 57.328125 12.15625 50.6875 5.359375 
Q 44.046875 -1.421875 33.015625 -1.421875 
Q 20.359375 -1.421875 13.671875 8.265625 
Q 6.984375 17.96875 6.984375 36.375 
Q 6.984375 53.65625 15.1875 63.9375 
Q 23.390625 74.21875 37.203125 74.21875 
Q 40.921875 74.21875 44.703125 73.484375 
Q 48.484375 72.75 52.59375 71.296875 
z
" id="DejaVuSans-54"/>
      </defs>
      <g transform="translate(41.445 134.478906)scale(0.14 -0.14)">
       <use xlink:href="#DejaVuSans-54"/>
       <use x="63.623047" xlink:href="#DejaVuSans-48"/>
      </g>
     </g>
    </g>
    <g id="ytick_5">
     <g id="line2d_11">
      <g>
       <use style="stroke:#000000;stroke-width:0.8;" x="66.26" xlink:href="#m146191bffc" y="74.84"/>
      </g>
     </g>
     <g id="text_12">
      <!-- 80 -->
      <defs>
       <path d="M 31.78125 34.625 
Q 24.75 34.625 20.71875 30.859375 
Q 16.703125 27.09375 16.703125 20.515625 
Q 16.703125 13.921875 20.71875 10.15625 
Q 24.75 6.390625 31.78125 6.390625 
Q 38.8125 6.390625 42.859375 10.171875 
Q 46.921875 13.96875 46.921875 20.515625 
Q 46.921875 27.09375 42.890625 30.859375 
Q 38.875 34.625 31.78125 34.625 
z
M 21.921875 38.8125 
Q 15.578125 40.375 12.03125 44.71875 
Q 8.5 49.078125 8.5 55.328125 
Q 8.5 64.0625 14.71875 69.140625 
Q 20.953125 74.21875 31.78125 74.21875 
Q 42.671875 74.21875 48.875 69.140625 
Q 55.078125 64.0625 55.078125 55.328125 
Q 55.078125 49.078125 51.53125 44.71875 
Q 48 40.375 41.703125 38.8125 
Q 48.828125 37.15625 52.796875 32.3125 
Q 56.78125 27.484375 56.78125 20.515625 
Q 56.78125 9.90625 50.3125 4.234375 
Q 43.84375 -1.421875 31.78125 -1.421875 
Q 19.734375 -1.421875 13.25 4.234375 
Q 6.78125 9.90625 6.78125 20.515625 
Q 6.78125 27.484375 10.78125 32.3125 
Q 14.796875 37.15625 21.921875 38.8125 
z
M 18.3125 54.390625 
Q 18.3125 48.734375 21.84375 45.5625 
Q 25.390625 42.390625 31.78125 42.390625 
Q 38.140625 42.390625 41.71875 45.5625 
Q 45.3125 48.734375 45.3125 54.390625 
Q 45.3125 60.0625 41.71875 63.234375 
Q 38.140625 66.40625 31.78125 66.40625 
Q 25.390625 66.40625 21.84375 63.234375 
Q 18.3125 60.0625 18.3125 54.390625 
z
" id="DejaVuSans-56"/>
      </defs>
      <g transform="translate(41.445 80.158906)scale(0.14 -0.14)">
       <use xlink:href="#DejaVuSans-56"/>
       <use x="63.623047" xlink:href="#DejaVuSans-48"/>
      </g>
     </g>
    </g>
    <g id="ytick_6">
     <g id="line2d_12">
      <g>
       <use style="stroke:#000000;stroke-width:0.8;" x="66.26" xlink:href="#m146191bffc" y="20.52"/>
      </g>
     </g>
     <g id="text_13">
      <!-- 100 -->
      <g transform="translate(32.5375 25.838906)scale(0.14 -0.14)">
       <use xlink:href="#DejaVuSans-49"/>
       <use x="63.623047" xlink:href="#DejaVuSans-48"/>
       <use x="127.246094" xlink:href="#DejaVuSans-48"/>
      </g>
     </g>
    </g>
    <g id="text_14">
     <!-- # good genes -->
     <defs>
      <path d="M 51.125 44 
L 36.921875 44 
L 32.8125 27.6875 
L 47.125 27.6875 
z
M 43.796875 71.78125 
L 38.71875 51.515625 
L 52.984375 51.515625 
L 58.109375 71.78125 
L 65.921875 71.78125 
L 60.890625 51.515625 
L 76.125 51.515625 
L 76.125 44 
L 58.984375 44 
L 54.984375 27.6875 
L 70.515625 27.6875 
L 70.515625 20.21875 
L 53.078125 20.21875 
L 48 0 
L 40.1875 0 
L 45.21875 20.21875 
L 30.90625 20.21875 
L 25.875 0 
L 18.015625 0 
L 23.09375 20.21875 
L 7.71875 20.21875 
L 7.71875 27.6875 
L 24.90625 27.6875 
L 29 44 
L 13.28125 44 
L 13.28125 51.515625 
L 30.90625 51.515625 
L 35.890625 71.78125 
z
" id="DejaVuSans-35"/>
      <path id="DejaVuSans-32"/>
      <path d="M 45.40625 46.390625 
L 45.40625 75.984375 
L 54.390625 75.984375 
L 54.390625 0 
L 45.40625 0 
L 45.40625 8.203125 
Q 42.578125 3.328125 38.25 0.953125 
Q 33.9375 -1.421875 27.875 -1.421875 
Q 17.96875 -1.421875 11.734375 6.484375 
Q 5.515625 14.40625 5.515625 27.296875 
Q 5.515625 40.1875 11.734375 48.09375 
Q 17.96875 56 27.875 56 
Q 33.9375 56 38.25 53.625 
Q 42.578125 51.265625 45.40625 46.390625 
z
M 14.796875 27.296875 
Q 14.796875 17.390625 18.875 11.75 
Q 22.953125 6.109375 30.078125 6.109375 
Q 37.203125 6.109375 41.296875 11.75 
Q 45.40625 17.390625 45.40625 27.296875 
Q 45.40625 37.203125 41.296875 42.84375 
Q 37.203125 48.484375 30.078125 48.484375 
Q 22.953125 48.484375 18.875 42.84375 
Q 14.796875 37.203125 14.796875 27.296875 
z
" id="DejaVuSans-100"/>
     </defs>
     <g transform="translate(25.625938 205.230312)rotate(-90)scale(0.14 -0.14)">
      <use xlink:href="#DejaVuSans-35"/>
      <use x="83.789062" xlink:href="#DejaVuSans-32"/>
      <use x="115.576172" xlink:href="#DejaVuSans-103"/>
      <use x="179.052734" xlink:href="#DejaVuSans-111"/>
      <use x="240.234375" xlink:href="#DejaVuSans-111"/>
      <use x="301.416016" xlink:href="#DejaVuSans-100"/>
      <use x="364.892578" xlink:href="#DejaVuSans-32"/>
      <use x="396.679688" xlink:href="#DejaVuSans-103"/>
      <use x="460.15625" xlink:href="#DejaVuSans-101"/>
      <use x="521.679688" xlink:href="#DejaVuSans-110"/>
      <use x="585.058594" xlink:href="#DejaVuSans-101"/>
      <use x="646.582031" xlink:href="#DejaVuSans-115"/>
     </g>
    </g>
   </g>
   <g id="line2d_13">
    <path clip-path="url(#p073dfce24b)" d="M 83.506364 20.52 
L 84.888838 30.787566 
L 86.271312 38.89211 
L 87.653786 45.61068 
L 89.03626 51.175764 
L 90.418734 55.639238 
L 91.801208 59.399268 
L 94.566156 65.111288 
L 95.257393 66.390796 
L 95.94863 67.356605 
L 97.331104 68.78332 
L 98.713578 70.4265 
L 99.404815 71.266559 
L 101.478526 73.080847 
L 102.861 73.977127 
L 104.243474 75.024145 
L 104.934711 75.162661 
L 106.317185 75.955733 
L 107.008422 76.322664 
L 108.390896 76.548364 
L 109.082133 76.463353 
L 109.77337 76.517673 
L 112.538318 77.401731 
L 113.920792 77.727651 
L 115.994504 78.351245 
L 118.068215 78.85289 
L 118.759452 78.837952 
L 119.450689 78.64756 
L 120.141926 78.735016 
L 120.833163 78.580747 
L 121.5244 78.712201 
L 122.215637 78.585092 
L 122.906874 78.708942 
L 123.598111 78.550328 
L 124.289348 78.833335 
L 125.671822 78.721707 
L 127.054296 78.83768 
L 127.745533 79.026714 
L 129.128007 79.026171 
L 130.510481 79.012862 
L 131.201718 78.849359 
L 131.892955 78.896074 
L 133.275429 78.78499 
L 133.966666 78.954468 
L 135.34914 78.905037 
L 136.040377 78.684498 
L 136.731614 78.639956 
L 137.422851 78.84447 
L 138.114088 78.879507 
L 138.805325 79.026986 
L 139.496562 79.32982 
L 144.335221 79.639172 
L 145.026458 79.468336 
L 145.717695 79.502286 
L 146.408932 79.403695 
L 149.17388 79.737491 
L 149.865118 79.892032 
L 150.556355 79.753244 
L 151.938829 79.698109 
L 152.630066 79.48599 
L 153.321303 79.527273 
L 154.703777 79.38251 
L 155.395014 79.371646 
L 156.777488 79.500384 
L 157.468725 79.493866 
L 158.851199 79.721738 
L 159.542436 79.741837 
L 160.233673 79.934944 
L 161.616147 79.949882 
L 162.307384 79.80186 
L 163.689858 79.848304 
L 164.381095 79.471866 
L 165.763569 79.360239 
L 166.454806 79.404781 
L 167.146043 79.562852 
L 168.528517 79.511792 
L 170.602228 79.865143 
L 171.293465 79.861884 
L 171.984702 79.98682 
L 174.058413 79.763022 
L 176.132124 79.535964 
L 178.897072 80.104151 
L 179.588309 80.462663 
L 180.279546 80.592216 
L 180.970783 80.559896 
L 181.66202 80.379554 
L 182.353257 80.479774 
L 184.426968 80.326592 
L 186.50068 79.455027 
L 187.191917 79.590556 
L 187.883154 79.569642 
L 188.574391 79.315696 
L 189.265628 79.5251 
L 192.721813 79.711146 
L 193.41305 79.517767 
L 195.486761 79.628308 
L 198.251709 79.617172 
L 198.942946 79.759491 
L 199.634183 79.697023 
L 200.32542 79.924624 
L 201.016657 79.9784 
L 203.090368 79.666875 
L 204.472842 79.521026 
L 205.164079 79.295326 
L 205.855316 79.332264 
L 208.620264 78.85126 
L 210.002738 79.004171 
L 210.693975 78.930296 
L 211.385212 78.739361 
L 212.767686 78.90721 
L 214.15016 79.146761 
L 214.841397 78.960715 
L 215.532634 79.059578 
L 216.223871 79.038393 
L 216.915108 79.182341 
L 217.606345 79.21113 
L 218.297582 78.987875 
L 218.988819 78.945506 
L 219.680056 79.184785 
L 221.062531 79.223081 
L 223.827479 78.613067 
L 225.90119 79.05143 
L 227.974901 79.361597 
L 228.666138 79.232587 
L 229.357375 79.369745 
L 230.048612 79.183156 
L 231.431086 79.620703 
L 232.122323 79.655196 
L 232.81356 79.872205 
L 233.504797 79.89013 
L 234.196034 79.752701 
L 234.887271 79.903167 
L 236.269745 79.751071 
L 237.652219 80.239408 
L 238.343456 80.022943 
L 239.034693 80.195137 
L 239.72593 80.099262 
L 240.417167 79.799416 
L 242.490878 79.684801 
L 245.255826 80.05988 
L 246.6383 79.853736 
L 247.329537 80.047115 
L 248.020774 79.88334 
L 248.712011 80.006104 
L 251.476959 79.81191 
L 252.168196 79.460731 
L 253.55067 79.176909 
L 254.933144 79.256488 
L 255.624381 79.150292 
L 257.698093 79.244266 
L 258.38933 79.54547 
L 259.080567 79.450138 
L 259.771804 79.597889 
L 260.463041 79.614456 
L 261.845515 79.827391 
L 263.227989 79.499298 
L 263.919226 79.610926 
L 264.610463 79.438731 
L 265.3017 79.141872 
L 265.992937 79.313252 
L 266.684174 79.236389 
L 268.066648 79.46915 
L 270.831596 79.889587 
L 273.596544 79.485718 
L 274.287781 79.664159 
L 278.435203 79.834452 
L 279.12644 79.555519 
L 281.891388 79.223352 
L 282.582625 79.26029 
L 283.273862 79.06338 
L 284.656336 78.852075 
L 286.03881 78.727954 
L 288.803758 79.038936 
L 289.494995 79.232587 
L 290.186232 79.562852 
L 290.877469 79.532162 
L 291.568707 79.261648 
L 295.024892 79.003628 
L 295.716129 79.090268 
L 297.098603 79.390658 
L 297.78984 79.196192 
L 298.481077 79.495224 
L 300.554788 79.171748 
L 301.246025 79.157082 
L 301.937262 79.287178 
L 304.010973 79.051701 
L 304.70221 79.127206 
L 305.393447 79.073158 
L 306.084684 79.286364 
L 307.467158 79.403423 
L 308.158395 79.405324 
L 308.849632 79.701097 
L 310.232106 79.692949 
L 310.923343 79.790725 
L 311.61458 79.674208 
L 313.688291 79.846674 
L 315.070765 79.740479 
L 315.762002 79.94092 
L 317.835713 79.437645 
L 324.056846 79.861612 
L 324.748083 79.574531 
L 325.43932 79.415645 
L 328.204269 79.457472 
L 332.351691 79.809737 
L 333.734165 79.652752 
L 335.807876 79.893661 
L 336.499113 80.025116 
L 338.572824 79.498212 
L 348.250142 79.324116 
L 349.632616 79.103305 
L 355.162512 78.994665 
L 355.853749 79.220365 
L 362.074882 79.760577 
L 362.76612 79.72038 
L 363.457357 79.541668 
L 365.531068 79.707344 
L 366.913542 79.59137 
L 369.67849 79.603321 
L 372.443438 79.164958 
L 373.825912 78.915358 
L 377.973334 79.075874 
L 379.355808 78.494106 
L 380.047045 78.814323 
L 380.738282 78.530229 
L 381.429519 78.419688 
L 382.120756 78.755386 
L 382.811993 78.89363 
L 383.50323 78.772225 
L 384.885704 79.040022 
L 386.959415 78.839853 
L 387.650652 79.045726 
L 389.724363 79.094071 
L 391.106837 79.08891 
L 391.798074 79.009603 
L 392.489311 79.39093 
L 393.871785 79.300215 
L 395.945496 79.381152 
L 396.636733 79.572902 
L 398.019208 79.614185 
L 399.401682 79.790453 
L 403.549104 79.43846 
L 405.622815 79.680998 
L 407.005289 79.56584 
L 409.770237 79.872476 
L 411.152711 79.755145 
L 412.535185 80.134027 
L 415.99137 79.840971 
L 417.373844 79.462632 
L 418.756318 79.773886 
L 419.447555 79.938204 
L 422.212503 79.548729 
L 422.90374 79.739936 
L 424.977451 79.083478 
L 427.051162 79.051973 
L 428.433636 79.079404 
L 428.433636 79.079404 
" style="fill:none;stroke:#b22222;stroke-linecap:square;stroke-width:1.5;"/>
   </g>
   <g id="line2d_14">
    <path clip-path="url(#p073dfce24b)" d="M 83.506364 20.52 
L 84.888838 30.690877 
L 86.271312 38.905962 
L 87.653786 45.423547 
L 89.727497 53.376538 
L 91.109971 57.686287 
L 92.492445 61.218988 
L 94.566156 65.841077 
L 98.713578 72.888282 
L 100.096052 75.186562 
L 103.552237 81.178872 
L 104.934711 83.313377 
L 107.699659 87.323822 
L 109.082133 88.901275 
L 110.464607 89.932812 
L 111.847081 90.653638 
L 112.538318 90.930399 
L 113.920792 92.214524 
L 114.61203 92.498617 
L 115.303267 93.041274 
L 115.994504 93.333244 
L 117.376978 93.052138 
L 118.068215 92.442396 
L 118.759452 92.205832 
L 119.450689 92.320176 
L 120.141926 92.092032 
L 120.833163 92.33267 
L 121.5244 92.724317 
L 122.215637 92.922856 
L 122.906874 93.347639 
L 126.363059 96.688047 
L 128.43677 98.930648 
L 129.819244 100.543409 
L 131.201718 101.96605 
L 132.584192 103.685821 
L 134.657903 106.159826 
L 137.422851 109.77971 
L 138.114088 110.395699 
L 139.496562 111.954683 
L 140.187799 112.593758 
L 141.570273 113.16276 
L 142.26151 113.137773 
L 142.952747 112.710546 
L 144.335221 111.532888 
L 145.026458 110.67925 
L 145.717695 110.169728 
L 146.408932 109.986398 
L 147.791406 110.329157 
L 149.865118 111.447334 
L 151.938829 113.177698 
L 152.630066 113.552234 
L 154.01254 115.166625 
L 154.703777 115.757355 
L 156.086251 117.385597 
L 158.159962 118.947025 
L 160.233673 120.344679 
L 161.616147 120.859361 
L 163.689858 122.199435 
L 165.072332 123.592472 
L 167.146043 125.19301 
L 169.910991 127.628991 
L 171.984702 129.833568 
L 172.675939 130.461236 
L 174.74965 131.700546 
L 176.132124 132.652233 
L 177.514598 133.38501 
L 178.205835 133.812508 
L 180.279546 134.636271 
L 181.66202 135.612401 
L 183.735731 137.401702 
L 186.50068 139.590526 
L 187.883154 140.156812 
L 188.574391 140.717123 
L 190.648102 141.366247 
L 192.721813 142.092234 
L 194.795524 142.947502 
L 196.177998 143.654206 
L 196.869235 144.241133 
L 197.560472 144.642558 
L 198.942946 145.649108 
L 204.472842 148.50471 
L 207.929027 150.387441 
L 208.620264 150.45507 
L 211.385212 151.651196 
L 212.076449 151.767984 
L 214.15016 151.755762 
L 215.532634 151.851365 
L 216.223871 151.832625 
L 221.753768 153.760713 
L 223.136242 154.272951 
L 225.90119 154.606747 
L 231.431086 154.352801 
L 232.81356 154.375616 
L 233.504797 154.168928 
L 234.887271 154.16078 
L 235.578508 154.088263 
L 238.343456 154.253667 
L 239.72593 154.057029 
L 240.417167 154.21673 
L 241.108404 154.085818 
L 243.182115 154.125744 
L 243.873352 154.375887 
L 244.564589 154.7803 
L 245.947063 155.199922 
L 247.329537 155.731171 
L 249.403248 156.391159 
L 250.785722 156.912903 
L 252.168196 157.59815 
L 253.55067 157.903428 
L 254.241907 157.797776 
L 254.933144 157.834985 
L 256.315619 157.490053 
L 257.006856 157.618248 
L 259.771804 157.558768 
L 260.463041 157.600051 
L 261.154278 157.819775 
L 263.919226 158.033524 
L 264.610463 157.858071 
L 265.3017 157.805924 
L 266.684174 157.938193 
L 270.140359 159.215799 
L 270.831596 159.261971 
L 272.21407 159.741888 
L 273.596544 160.337236 
L 274.979018 160.669946 
L 276.361492 160.766635 
L 280.508914 160.657452 
L 281.200151 160.482542 
L 282.582625 160.845399 
L 283.273862 160.776956 
L 285.347573 161.395932 
L 289.494995 163.36639 
L 290.186232 163.870208 
L 291.568707 164.519876 
L 293.642418 165.001422 
L 297.098603 165.258356 
L 299.863551 165.532129 
L 301.246025 165.578029 
L 302.628499 165.563634 
L 304.70221 165.602473 
L 307.467158 164.694514 
L 308.849632 163.841419 
L 310.232106 162.938077 
L 310.923343 162.316385 
L 311.61458 162.044513 
L 313.688291 160.929595 
L 317.835713 160.188127 
L 319.909424 160.341038 
L 321.291898 160.22941 
L 322.674372 160.330717 
L 324.748083 160.496393 
L 325.43932 160.767178 
L 326.130557 160.647674 
L 327.513032 160.776684 
L 328.204269 161.030087 
L 329.586743 161.21043 
L 330.27798 161.391044 
L 330.969217 161.366056 
L 331.660454 161.540967 
L 333.042928 161.631953 
L 334.425402 161.347588 
L 335.116639 160.893472 
L 336.499113 159.58762 
L 337.881587 158.2212 
L 338.572824 157.763826 
L 339.264061 157.49304 
L 340.646535 157.417807 
L 344.793957 158.109844 
L 347.558905 159.252465 
L 348.941379 159.959168 
L 350.323853 160.560762 
L 351.706327 161.008631 
L 352.397564 161.249812 
L 353.088801 161.726741 
L 357.236223 162.730575 
L 358.618697 162.60754 
L 360.692408 162.644478 
L 361.383645 162.477172 
L 362.76612 162.450012 
L 363.457357 162.559467 
L 365.531068 162.176782 
L 368.296016 162.312582 
L 374.517149 163.869394 
L 376.59086 163.99433 
L 378.664571 164.47642 
L 380.047045 164.859104 
L 381.429519 165.017718 
L 386.268178 166.105476 
L 386.959415 166.08402 
L 388.341889 166.463717 
L 389.724363 166.785291 
L 391.106837 167.388515 
L 391.798074 167.386342 
L 393.180548 167.92411 
L 393.871785 168.392892 
L 395.945496 168.936906 
L 396.636733 169.325023 
L 397.32797 169.435836 
L 398.710445 169.422527 
L 403.549104 170.134391 
L 404.240341 170.002665 
L 407.696526 171.143113 
L 409.770237 172.042109 
L 411.152711 172.330277 
L 412.535185 172.338968 
L 413.226422 172.37835 
L 413.917659 172.271611 
L 415.300133 172.350104 
L 415.99137 172.238748 
L 418.065081 172.477756 
L 419.447555 172.875106 
L 422.212503 173.612229 
L 424.286214 174.21002 
L 424.977451 174.438164 
L 425.668688 174.549249 
L 427.051162 174.949587 
L 428.433636 175.218471 
L 428.433636 175.218471 
" style="fill:none;stroke:#00008b;stroke-linecap:square;stroke-width:1.5;"/>
   </g>
   <g id="patch_3">
    <path d="M 66.26 292.12 
L 66.26 20.52 
" style="fill:none;stroke:#000000;stroke-linecap:square;stroke-linejoin:miter;stroke-width:0.8;"/>
   </g>
   <g id="patch_4">
    <path d="M 66.26 292.12 
L 445.68 292.12 
" style="fill:none;stroke:#000000;stroke-linecap:square;stroke-linejoin:miter;stroke-width:0.8;"/>
   </g>
   <g id="text_15">
    <!-- sexual -->
    <defs>
     <path d="M 54.890625 54.6875 
L 35.109375 28.078125 
L 55.90625 0 
L 45.3125 0 
L 29.390625 21.484375 
L 13.484375 0 
L 2.875 0 
L 24.125 28.609375 
L 4.6875 54.6875 
L 15.28125 54.6875 
L 29.78125 35.203125 
L 44.28125 54.6875 
z
" id="DejaVuSans-120"/>
     <path d="M 8.5 21.578125 
L 8.5 54.6875 
L 17.484375 54.6875 
L 17.484375 21.921875 
Q 17.484375 14.15625 20.5 10.265625 
Q 23.53125 6.390625 29.59375 6.390625 
Q 36.859375 6.390625 41.078125 11.03125 
Q 45.3125 15.671875 45.3125 23.6875 
L 45.3125 54.6875 
L 54.296875 54.6875 
L 54.296875 0 
L 45.3125 0 
L 45.3125 8.40625 
Q 42.046875 3.421875 37.71875 1 
Q 33.40625 -1.421875 27.6875 -1.421875 
Q 18.265625 -1.421875 13.375 4.4375 
Q 8.5 10.296875 8.5 21.578125 
z
M 31.109375 56 
z
" id="DejaVuSans-117"/>
     <path d="M 9.421875 75.984375 
L 18.40625 75.984375 
L 18.40625 0 
L 9.421875 0 
z
" id="DejaVuSans-108"/>
    </defs>
    <g transform="translate(376.59086 57.351404)scale(0.14 -0.14)">
     <use xlink:href="#DejaVuSans-115"/>
     <use x="52.099609" xlink:href="#DejaVuSans-101"/>
     <use x="113.607422" xlink:href="#DejaVuSans-120"/>
     <use x="172.787109" xlink:href="#DejaVuSans-117"/>
     <use x="236.166016" xlink:href="#DejaVuSans-97"/>
     <use x="297.445312" xlink:href="#DejaVuSans-108"/>
    </g>
   </g>
   <g id="text_16">
    <!-- asexual -->
    <g transform="translate(376.59086 153.490471)scale(0.14 -0.14)">
     <use xlink:href="#DejaVuSans-97"/>
     <use x="61.279297" xlink:href="#DejaVuSans-115"/>
     <use x="113.378906" xlink:href="#DejaVuSans-101"/>
     <use x="174.886719" xlink:href="#DejaVuSans-120"/>
     <use x="234.066406" xlink:href="#DejaVuSans-117"/>
     <use x="297.445312" xlink:href="#DejaVuSans-97"/>
     <use x="358.724609" xlink:href="#DejaVuSans-108"/>
    </g>
   </g>
  </g>
  <g id="text_17">
   <!-- dynomight.net/sex -->
   <defs>
    <path d="M 41.890625 47.703125 
L 41.890625 75.984375 
L 50.875 75.984375 
L 50.875 0 
L 41.890625 0 
L 41.890625 6.890625 
Q 39.65625 2.828125 35.90625 0.703125 
Q 32.171875 -1.421875 27.296875 -1.421875 
Q 17.390625 -1.421875 11.6875 6.265625 
Q 6 13.96875 6 27.484375 
Q 6 40.828125 11.71875 48.40625 
Q 17.4375 56 27.296875 56 
Q 32.234375 56 35.984375 53.875 
Q 39.75 51.765625 41.890625 47.703125 
z
M 15.484375 27.296875 
Q 15.484375 16.84375 18.796875 11.515625 
Q 22.125 6.203125 28.609375 6.203125 
Q 35.109375 6.203125 38.5 11.5625 
Q 41.890625 16.9375 41.890625 27.296875 
Q 41.890625 37.703125 38.5 43.046875 
Q 35.109375 48.390625 28.609375 48.390625 
Q 22.125 48.390625 18.796875 43.0625 
Q 15.484375 37.75 15.484375 27.296875 
z
" id="DejaVuSansMono-100"/>
    <path d="M 41.890625 17.578125 
Q 39.65625 11.859375 36.1875 2.546875 
Q 31.34375 -10.359375 29.6875 -13.1875 
Q 27.4375 -17 24.0625 -18.890625 
Q 20.703125 -20.796875 16.21875 -20.796875 
L 8.984375 -20.796875 
L 8.984375 -13.28125 
L 14.3125 -13.28125 
Q 18.265625 -13.28125 20.5 -10.984375 
Q 22.75 -8.6875 26.21875 0.875 
L 5.078125 54.6875 
L 14.59375 54.6875 
L 30.8125 11.921875 
L 46.78125 54.6875 
L 56.296875 54.6875 
z
" id="DejaVuSansMono-121"/>
    <path d="M 51.3125 33.890625 
L 51.3125 0 
L 42.28125 0 
L 42.28125 33.890625 
Q 42.28125 41.265625 39.6875 44.71875 
Q 37.109375 48.1875 31.59375 48.1875 
Q 25.296875 48.1875 21.890625 43.71875 
Q 18.5 39.265625 18.5 30.90625 
L 18.5 0 
L 9.515625 0 
L 9.515625 54.6875 
L 18.5 54.6875 
L 18.5 46.484375 
Q 20.90625 51.171875 25 53.578125 
Q 29.109375 56 34.71875 56 
Q 43.0625 56 47.1875 50.5 
Q 51.3125 45.015625 51.3125 33.890625 
z
" id="DejaVuSansMono-110"/>
    <path d="M 30.078125 48.390625 
Q 23.25 48.390625 19.734375 43.0625 
Q 16.21875 37.75 16.21875 27.296875 
Q 16.21875 16.890625 19.734375 11.546875 
Q 23.25 6.203125 30.078125 6.203125 
Q 36.96875 6.203125 40.484375 11.546875 
Q 44 16.890625 44 27.296875 
Q 44 37.75 40.484375 43.0625 
Q 36.96875 48.390625 30.078125 48.390625 
z
M 30.078125 56 
Q 41.453125 56 47.484375 48.625 
Q 53.515625 41.265625 53.515625 27.296875 
Q 53.515625 13.28125 47.5 5.921875 
Q 41.5 -1.421875 30.078125 -1.421875 
Q 18.703125 -1.421875 12.6875 5.921875 
Q 6.6875 13.28125 6.6875 27.296875 
Q 6.6875 41.265625 12.6875 48.625 
Q 18.703125 56 30.078125 56 
z
" id="DejaVuSansMono-111"/>
    <path d="M 33.015625 49.125 
Q 34.671875 52.640625 37.234375 54.3125 
Q 39.796875 56 43.40625 56 
Q 50 56 52.703125 50.890625 
Q 55.421875 45.796875 55.421875 31.6875 
L 55.421875 0 
L 47.21875 0 
L 47.21875 31.296875 
Q 47.21875 42.875 45.921875 45.671875 
Q 44.625 48.484375 41.21875 48.484375 
Q 37.3125 48.484375 35.859375 45.484375 
Q 34.421875 42.484375 34.421875 31.296875 
L 34.421875 0 
L 26.21875 0 
L 26.21875 31.296875 
Q 26.21875 43.015625 24.828125 45.75 
Q 23.4375 48.484375 19.828125 48.484375 
Q 16.265625 48.484375 14.875 45.484375 
Q 13.484375 42.484375 13.484375 31.296875 
L 13.484375 0 
L 5.328125 0 
L 5.328125 54.6875 
L 13.484375 54.6875 
L 13.484375 50 
Q 15.09375 52.9375 17.5 54.46875 
Q 19.921875 56 23 56 
Q 26.703125 56 29.171875 54.296875 
Q 31.640625 52.59375 33.015625 49.125 
z
" id="DejaVuSansMono-109"/>
    <path d="M 12.5 54.6875 
L 35.5 54.6875 
L 35.5 6.984375 
L 53.328125 6.984375 
L 53.328125 0 
L 8.6875 0 
L 8.6875 6.984375 
L 26.515625 6.984375 
L 26.515625 47.703125 
L 12.5 47.703125 
z
M 26.515625 75.984375 
L 35.5 75.984375 
L 35.5 64.59375 
L 26.515625 64.59375 
z
" id="DejaVuSansMono-105"/>
    <path d="M 41.890625 27.78125 
Q 41.890625 37.890625 38.59375 43.140625 
Q 35.296875 48.390625 29 48.390625 
Q 22.40625 48.390625 18.9375 43.140625 
Q 15.484375 37.890625 15.484375 27.78125 
Q 15.484375 17.671875 18.96875 12.375 
Q 22.46875 7.078125 29.109375 7.078125 
Q 35.296875 7.078125 38.59375 12.390625 
Q 41.890625 17.71875 41.890625 27.78125 
z
M 50.875 3.515625 
Q 50.875 -8.796875 45.0625 -15.140625 
Q 39.265625 -21.484375 27.984375 -21.484375 
Q 24.265625 -21.484375 20.203125 -20.796875 
Q 16.15625 -20.125 12.109375 -18.796875 
L 12.109375 -9.90625 
Q 16.890625 -12.15625 20.796875 -13.234375 
Q 24.703125 -14.3125 27.984375 -14.3125 
Q 35.25 -14.3125 38.5625 -10.34375 
Q 41.890625 -6.390625 41.890625 2.203125 
L 41.890625 2.59375 
L 41.890625 8.6875 
Q 39.75 4.109375 36.03125 1.859375 
Q 32.328125 -0.390625 27 -0.390625 
Q 17.4375 -0.390625 11.71875 7.265625 
Q 6 14.9375 6 27.78125 
Q 6 40.671875 11.71875 48.328125 
Q 17.4375 56 27 56 
Q 32.28125 56 35.9375 53.90625 
Q 39.59375 51.8125 41.890625 47.40625 
L 41.890625 54.5 
L 50.875 54.5 
z
" id="DejaVuSansMono-103"/>
    <path d="M 51.3125 33.890625 
L 51.3125 0 
L 42.28125 0 
L 42.28125 33.890625 
Q 42.28125 41.265625 39.6875 44.71875 
Q 37.109375 48.1875 31.59375 48.1875 
Q 25.296875 48.1875 21.890625 43.71875 
Q 18.5 39.265625 18.5 30.90625 
L 18.5 0 
L 9.515625 0 
L 9.515625 75.984375 
L 18.5 75.984375 
L 18.5 46.484375 
Q 20.90625 51.171875 25 53.578125 
Q 29.109375 56 34.71875 56 
Q 43.0625 56 47.1875 50.5 
Q 51.3125 45.015625 51.3125 33.890625 
z
" id="DejaVuSansMono-104"/>
    <path d="M 29.984375 70.21875 
L 29.984375 54.6875 
L 50.390625 54.6875 
L 50.390625 47.703125 
L 29.984375 47.703125 
L 29.984375 18.015625 
Q 29.984375 11.96875 32.28125 9.5625 
Q 34.578125 7.171875 40.28125 7.171875 
L 50.390625 7.171875 
L 50.390625 0 
L 39.40625 0 
Q 29.296875 0 25.140625 4.046875 
Q 21 8.109375 21 18.015625 
L 21 47.703125 
L 6.390625 47.703125 
L 6.390625 54.6875 
L 21 54.6875 
L 21 70.21875 
z
" id="DejaVuSansMono-116"/>
    <path d="M 23.875 14.890625 
L 36.1875 14.890625 
L 36.1875 0 
L 23.875 0 
z
" id="DejaVuSansMono-46"/>
    <path d="M 54.296875 29.59375 
L 54.296875 25.203125 
L 15.375 25.203125 
L 15.375 24.90625 
Q 15.375 15.96875 20.03125 11.078125 
Q 24.703125 6.203125 33.203125 6.203125 
Q 37.5 6.203125 42.1875 7.5625 
Q 46.875 8.9375 52.203125 11.71875 
L 52.203125 2.78125 
Q 47.078125 0.6875 42.3125 -0.359375 
Q 37.546875 -1.421875 33.109375 -1.421875 
Q 20.359375 -1.421875 13.171875 6.21875 
Q 6 13.875 6 27.296875 
Q 6 40.375 13.03125 48.1875 
Q 20.0625 56 31.78125 56 
Q 42.234375 56 48.265625 48.921875 
Q 54.296875 41.84375 54.296875 29.59375 
z
M 45.3125 32.234375 
Q 45.125 40.140625 41.578125 44.265625 
Q 38.03125 48.390625 31.390625 48.390625 
Q 24.90625 48.390625 20.703125 44.09375 
Q 16.5 39.796875 15.71875 32.171875 
z
" id="DejaVuSansMono-101"/>
    <path d="M 43.40625 72.90625 
L 52.6875 72.90625 
L 14.3125 -9.28125 
L 4.984375 -9.28125 
z
" id="DejaVuSansMono-47"/>
    <path d="M 47.515625 52.78125 
L 47.515625 44 
Q 43.65625 46.234375 39.75 47.359375 
Q 35.84375 48.484375 31.78125 48.484375 
Q 25.6875 48.484375 22.671875 46.5 
Q 19.671875 44.53125 19.671875 40.484375 
Q 19.671875 36.8125 21.921875 35 
Q 24.171875 33.203125 33.109375 31.5 
L 36.71875 30.8125 
Q 43.40625 29.546875 46.84375 25.734375 
Q 50.296875 21.921875 50.296875 15.828125 
Q 50.296875 7.71875 44.53125 3.140625 
Q 38.765625 -1.421875 28.515625 -1.421875 
Q 24.46875 -1.421875 20.015625 -0.5625 
Q 15.578125 0.296875 10.40625 2 
L 10.40625 11.28125 
Q 15.4375 8.6875 20.015625 7.390625 
Q 24.609375 6.109375 28.71875 6.109375 
Q 34.671875 6.109375 37.9375 8.515625 
Q 41.21875 10.9375 41.21875 15.28125 
Q 41.21875 21.53125 29.25 23.921875 
L 28.859375 24.03125 
L 25.484375 24.703125 
Q 17.71875 26.21875 14.15625 29.8125 
Q 10.59375 33.40625 10.59375 39.59375 
Q 10.59375 47.46875 15.90625 51.734375 
Q 21.234375 56 31.109375 56 
Q 35.5 56 39.546875 55.1875 
Q 43.609375 54.390625 47.515625 52.78125 
z
" id="DejaVuSansMono-115"/>
    <path d="M 54.59375 54.6875 
L 35.015625 28.515625 
L 56.5 0 
L 46.09375 0 
L 30.078125 21.921875 
L 14.109375 0 
L 3.71875 0 
L 25.203125 28.515625 
L 5.609375 54.6875 
L 15.578125 54.6875 
L 30.078125 34.90625 
L 44.484375 54.6875 
z
" id="DejaVuSansMono-120"/>
   </defs>
   <g style="fill:#808080;opacity:0.7;" transform="translate(382.464 328.32)scale(0.06 -0.06)">
    <use xlink:href="#DejaVuSansMono-100"/>
    <use x="60.205078" xlink:href="#DejaVuSansMono-121"/>
    <use x="120.410156" xlink:href="#DejaVuSansMono-110"/>
    <use x="180.615234" xlink:href="#DejaVuSansMono-111"/>
    <use x="240.820312" xlink:href="#DejaVuSansMono-109"/>
    <use x="301.025391" xlink:href="#DejaVuSansMono-105"/>
    <use x="361.230469" xlink:href="#DejaVuSansMono-103"/>
    <use x="421.435547" xlink:href="#DejaVuSansMono-104"/>
    <use x="481.640625" xlink:href="#DejaVuSansMono-116"/>
    <use x="541.845703" xlink:href="#DejaVuSansMono-46"/>
    <use x="602.050781" xlink:href="#DejaVuSansMono-110"/>
    <use x="662.255859" xlink:href="#DejaVuSansMono-101"/>
    <use x="722.460938" xlink:href="#DejaVuSansMono-116"/>
    <use x="782.666016" xlink:href="#DejaVuSansMono-47"/>
    <use x="842.871094" xlink:href="#DejaVuSansMono-115"/>
    <use x="903.076172" xlink:href="#DejaVuSansMono-101"/>
    <use x="963.28125" xlink:href="#DejaVuSansMono-120"/>
   </g>
  </g>
 </g>
 <defs>
  <clipPath id="p073dfce24b">
   <rect height="271.6" width="379.42" x="66.26" y="20.52"/>
  </clipPath>
 </defs>
</svg>
