<?xml version="1.0" encoding="UTF-8"?>
<svg xmlns="http://www.w3.org/2000/svg" xmlns:xlink="http://www.w3.org/1999/xlink" width="1152" height="518.399984" viewBox="0 0 1152 518.399984" version="1.1">
<defs>
<clipPath id="clip1">
  <path d="M 138.238281 376 L 1094.398438 376 L 1094.398438 409.535156 L 138.238281 409.535156 Z M 138.238281 376 "/>
</clipPath>
<clipPath id="clip2">
  <path d="M 138.238281 382 L 1094.398438 382 L 1094.398438 409.535156 L 138.238281 409.535156 Z M 138.238281 382 "/>
</clipPath>
<filter id="alpha" filterUnits="objectBoundingBox" x="0%" y="0%" width="100%" height="100%">
  <feColorMatrix type="matrix" in="SourceGraphic" values="0 0 0 0 1 0 0 0 0 1 0 0 0 0 1 0 0 0 1 0"/>
</filter>
<mask id="mask0">
  <g filter="url(#alpha)">
<rect x="0" y="0" width="1152" height="518.399984" style="fill:rgb(0%,0%,0%);fill-opacity:0.7;stroke:none;"/>
  </g>
</mask>
<clipPath id="clip3">
  <rect x="0" y="0" width="1152" height="519"/>
</clipPath>
<g id="surface5" clip-path="url(#clip3)">
<path style=" stroke:none;fill-rule:nonzero;fill:rgb(50.196081%,50.196081%,50.196081%);fill-opacity:1;" d="M 991.664062 471.886719 L 991.664062 467.363281 L 993.101562 467.363281 L 993.101562 479.519531 L 991.664062 479.519531 L 991.664062 478.417969 C 991.425781 478.851562 991.105469 479.179688 990.703125 479.40625 C 990.304688 479.632812 989.847656 479.746094 989.328125 479.746094 C 988.269531 479.746094 987.4375 479.335938 986.828125 478.515625 C 986.222656 477.695312 985.921875 476.5625 985.921875 475.121094 C 985.921875 473.699219 986.226562 472.582031 986.835938 471.773438 C 987.445312 470.964844 988.277344 470.558594 989.328125 470.558594 C 989.855469 470.558594 990.316406 470.671875 990.71875 470.898438 C 991.117188 471.125 991.433594 471.453125 991.664062 471.886719 Z M 987.4375 475.152344 C 987.4375 476.265625 987.613281 477.109375 987.96875 477.675781 C 988.324219 478.246094 988.847656 478.527344 989.539062 478.527344 C 990.230469 478.527344 990.757812 478.242188 991.121094 477.671875 C 991.480469 477.097656 991.664062 476.257812 991.664062 475.152344 C 991.664062 474.042969 991.480469 473.203125 991.121094 472.632812 C 990.757812 472.0625 990.230469 471.777344 989.539062 471.777344 C 988.847656 471.777344 988.324219 472.0625 987.96875 472.628906 C 987.613281 473.195312 987.4375 474.039062 987.4375 475.152344 Z M 987.4375 475.152344 "/>
<path style=" stroke:none;fill-rule:nonzero;fill:rgb(50.196081%,50.196081%,50.196081%);fill-opacity:1;" d="M 1001.296875 476.707031 C 1001.058594 477.316406 1000.753906 478.121094 1000.382812 479.113281 C 999.867188 480.488281 999.519531 481.328125 999.34375 481.628906 C 999.101562 482.035156 998.804688 482.339844 998.441406 482.542969 C 998.085938 482.746094 997.667969 482.847656 997.1875 482.847656 L 996.03125 482.847656 L 996.03125 481.644531 L 996.882812 481.644531 C 997.304688 481.644531 997.632812 481.523438 997.871094 481.277344 C 998.113281 481.03125 998.417969 480.398438 998.789062 479.378906 L 995.40625 470.769531 L 996.929688 470.769531 L 999.523438 477.613281 L 1002.078125 470.769531 L 1003.601562 470.769531 Z M 1001.296875 476.707031 "/>
<path style=" stroke:none;fill-rule:nonzero;fill:rgb(50.196081%,50.196081%,50.196081%);fill-opacity:1;" d="M 1012.4375 474.097656 L 1012.4375 479.519531 L 1010.992188 479.519531 L 1010.992188 474.097656 C 1010.992188 473.3125 1010.851562 472.734375 1010.574219 472.363281 C 1010.300781 471.996094 1009.867188 471.808594 1009.28125 471.808594 C 1008.609375 471.808594 1008.089844 472.046875 1007.726562 472.523438 C 1007.367188 473 1007.1875 473.683594 1007.1875 474.574219 L 1007.1875 479.519531 L 1005.75 479.519531 L 1005.75 470.769531 L 1007.1875 470.769531 L 1007.1875 472.082031 C 1007.441406 471.582031 1007.789062 471.203125 1008.226562 470.949219 C 1008.664062 470.6875 1009.183594 470.558594 1009.78125 470.558594 C 1010.671875 470.558594 1011.335938 470.851562 1011.777344 471.441406 C 1012.214844 472.023438 1012.4375 472.910156 1012.4375 474.097656 Z M 1012.4375 474.097656 "/>
<path style=" stroke:none;fill-rule:nonzero;fill:rgb(50.196081%,50.196081%,50.196081%);fill-opacity:1;" d="M 1018.671875 471.777344 C 1017.941406 471.777344 1017.390625 472.0625 1017.015625 472.628906 C 1016.640625 473.195312 1016.453125 474.039062 1016.453125 475.152344 C 1016.453125 476.261719 1016.640625 477.101562 1017.015625 477.671875 C 1017.390625 478.242188 1017.941406 478.527344 1018.671875 478.527344 C 1019.40625 478.527344 1019.960938 478.242188 1020.335938 477.671875 C 1020.710938 477.101562 1020.898438 476.261719 1020.898438 475.152344 C 1020.898438 474.039062 1020.710938 473.195312 1020.335938 472.628906 C 1019.960938 472.0625 1019.40625 471.777344 1018.671875 471.777344 Z M 1018.671875 470.558594 C 1019.882812 470.558594 1020.8125 470.953125 1021.457031 471.738281 C 1022.097656 472.523438 1022.421875 473.664062 1022.421875 475.152344 C 1022.421875 476.648438 1022.101562 477.789062 1021.457031 478.574219 C 1020.820312 479.355469 1019.890625 479.746094 1018.671875 479.746094 C 1017.457031 479.746094 1016.53125 479.355469 1015.886719 478.574219 C 1015.25 477.789062 1014.929688 476.648438 1014.929688 475.152344 C 1014.929688 473.664062 1015.25 472.523438 1015.886719 471.738281 C 1016.53125 470.953125 1017.457031 470.558594 1018.671875 470.558594 Z M 1018.671875 470.558594 "/>
<path style=" stroke:none;fill-rule:nonzero;fill:rgb(50.196081%,50.196081%,50.196081%);fill-opacity:1;" d="M 1028.773438 471.660156 C 1028.949219 471.285156 1029.175781 471.007812 1029.449219 470.828125 C 1029.722656 470.648438 1030.050781 470.558594 1030.4375 470.558594 C 1031.140625 470.558594 1031.636719 470.832031 1031.921875 471.378906 C 1032.214844 471.921875 1032.359375 472.945312 1032.359375 474.449219 L 1032.359375 479.519531 L 1031.046875 479.519531 L 1031.046875 474.511719 C 1031.046875 473.277344 1030.976562 472.511719 1030.839844 472.210938 C 1030.699219 471.914062 1030.449219 471.761719 1030.085938 471.761719 C 1029.667969 471.761719 1029.382812 471.921875 1029.230469 472.242188 C 1029.074219 472.5625 1029 473.320312 1029 474.511719 L 1029 479.519531 L 1027.6875 479.519531 L 1027.6875 474.511719 C 1027.6875 473.261719 1027.613281 472.492188 1027.464844 472.199219 C 1027.316406 471.910156 1027.046875 471.761719 1026.664062 471.761719 C 1026.285156 471.761719 1026.019531 471.921875 1025.871094 472.242188 C 1025.722656 472.5625 1025.648438 473.320312 1025.648438 474.511719 L 1025.648438 479.519531 L 1024.34375 479.519531 L 1024.34375 470.769531 L 1025.648438 470.769531 L 1025.648438 471.519531 C 1025.820312 471.207031 1026.035156 470.96875 1026.292969 470.804688 C 1026.550781 470.640625 1026.84375 470.558594 1027.171875 470.558594 C 1027.566406 470.558594 1027.894531 470.652344 1028.160156 470.832031 C 1028.421875 471.015625 1028.628906 471.289062 1028.773438 471.660156 Z M 1028.773438 471.660156 "/>
<path style=" stroke:none;fill-rule:nonzero;fill:rgb(50.196081%,50.196081%,50.196081%);fill-opacity:1;" d="M 1035.125 470.769531 L 1038.804688 470.769531 L 1038.804688 478.402344 L 1041.65625 478.402344 L 1041.65625 479.519531 L 1034.515625 479.519531 L 1034.515625 478.402344 L 1037.367188 478.402344 L 1037.367188 471.886719 L 1035.125 471.886719 Z M 1037.367188 467.363281 L 1038.804688 467.363281 L 1038.804688 469.183594 L 1037.367188 469.183594 Z M 1037.367188 467.363281 "/>
<path style=" stroke:none;fill-rule:nonzero;fill:rgb(50.196081%,50.196081%,50.196081%);fill-opacity:1;" d="M 1049.460938 475.074219 C 1049.460938 473.996094 1049.285156 473.175781 1048.933594 472.617188 C 1048.582031 472.058594 1048.070312 471.777344 1047.398438 471.777344 C 1046.695312 471.777344 1046.15625 472.058594 1045.785156 472.617188 C 1045.417969 473.175781 1045.234375 473.996094 1045.234375 475.074219 C 1045.234375 476.152344 1045.421875 476.976562 1045.792969 477.539062 C 1046.164062 478.105469 1046.707031 478.386719 1047.414062 478.386719 C 1048.074219 478.386719 1048.582031 478.105469 1048.933594 477.539062 C 1049.285156 476.96875 1049.460938 476.148438 1049.460938 475.074219 Z M 1050.898438 478.957031 C 1050.898438 480.269531 1050.585938 481.265625 1049.96875 481.941406 C 1049.347656 482.621094 1048.4375 482.957031 1047.234375 482.957031 C 1046.835938 482.957031 1046.421875 482.921875 1045.988281 482.847656 C 1045.558594 482.777344 1045.125 482.667969 1044.695312 482.527344 L 1044.695312 481.105469 C 1045.203125 481.34375 1045.667969 481.523438 1046.085938 481.636719 C 1046.5 481.753906 1046.882812 481.808594 1047.234375 481.808594 C 1048.007812 481.808594 1048.574219 481.597656 1048.925781 481.175781 C 1049.28125 480.753906 1049.460938 480.085938 1049.460938 479.167969 L 1049.460938 478.128906 C 1049.230469 478.617188 1048.917969 478.984375 1048.523438 479.222656 C 1048.125 479.460938 1047.644531 479.582031 1047.078125 479.582031 C 1046.058594 479.582031 1045.242188 479.175781 1044.632812 478.359375 C 1044.023438 477.539062 1043.71875 476.445312 1043.71875 475.074219 C 1043.71875 473.699219 1044.023438 472.605469 1044.632812 471.789062 C 1045.242188 470.96875 1046.058594 470.558594 1047.078125 470.558594 C 1047.640625 470.558594 1048.117188 470.671875 1048.507812 470.894531 C 1048.898438 471.117188 1049.214844 471.464844 1049.460938 471.933594 L 1049.460938 470.800781 L 1050.898438 470.800781 Z M 1050.898438 478.957031 "/>
<path style=" stroke:none;fill-rule:nonzero;fill:rgb(50.196081%,50.196081%,50.196081%);fill-opacity:1;" d="M 1060.601562 474.097656 L 1060.601562 479.519531 L 1059.15625 479.519531 L 1059.15625 474.097656 C 1059.15625 473.3125 1059.015625 472.734375 1058.738281 472.363281 C 1058.464844 471.996094 1058.03125 471.808594 1057.445312 471.808594 C 1056.773438 471.808594 1056.253906 472.046875 1055.890625 472.523438 C 1055.53125 473 1055.351562 473.683594 1055.351562 474.574219 L 1055.351562 479.519531 L 1053.914062 479.519531 L 1053.914062 467.363281 L 1055.351562 467.363281 L 1055.351562 472.082031 C 1055.605469 471.582031 1055.953125 471.203125 1056.390625 470.949219 C 1056.828125 470.6875 1057.347656 470.558594 1057.945312 470.558594 C 1058.835938 470.558594 1059.5 470.851562 1059.941406 471.441406 C 1060.378906 472.023438 1060.601562 472.910156 1060.601562 474.097656 Z M 1060.601562 474.097656 "/>
<path style=" stroke:none;fill-rule:nonzero;fill:rgb(50.196081%,50.196081%,50.196081%);fill-opacity:1;" d="M 1066.820312 468.285156 L 1066.820312 470.769531 L 1070.085938 470.769531 L 1070.085938 471.886719 L 1066.820312 471.886719 L 1066.820312 476.636719 C 1066.820312 477.28125 1066.941406 477.734375 1067.1875 477.988281 C 1067.433594 478.246094 1067.859375 478.371094 1068.46875 478.371094 L 1070.085938 478.371094 L 1070.085938 479.519531 L 1068.328125 479.519531 C 1067.25 479.519531 1066.488281 479.304688 1066.046875 478.871094 C 1065.601562 478.4375 1065.382812 477.695312 1065.382812 476.636719 L 1065.382812 471.886719 L 1063.046875 471.886719 L 1063.046875 470.769531 L 1065.382812 470.769531 L 1065.382812 468.285156 Z M 1066.820312 468.285156 "/>
<path style=" stroke:none;fill-rule:nonzero;fill:rgb(50.196081%,50.196081%,50.196081%);fill-opacity:1;" d="M 1075.476562 477.136719 L 1077.445312 477.136719 L 1077.445312 479.519531 L 1075.476562 479.519531 Z M 1075.476562 477.136719 "/>
<path style=" stroke:none;fill-rule:nonzero;fill:rgb(50.196081%,50.196081%,50.196081%);fill-opacity:1;" d="M 1089.5 474.097656 L 1089.5 479.519531 L 1088.054688 479.519531 L 1088.054688 474.097656 C 1088.054688 473.3125 1087.914062 472.734375 1087.636719 472.363281 C 1087.363281 471.996094 1086.929688 471.808594 1086.34375 471.808594 C 1085.671875 471.808594 1085.152344 472.046875 1084.789062 472.523438 C 1084.429688 473 1084.25 473.683594 1084.25 474.574219 L 1084.25 479.519531 L 1082.8125 479.519531 L 1082.8125 470.769531 L 1084.25 470.769531 L 1084.25 472.082031 C 1084.503906 471.582031 1084.851562 471.203125 1085.289062 470.949219 C 1085.726562 470.6875 1086.246094 470.558594 1086.84375 470.558594 C 1087.734375 470.558594 1088.398438 470.851562 1088.839844 471.441406 C 1089.277344 472.023438 1089.5 472.910156 1089.5 474.097656 Z M 1089.5 474.097656 "/>
<path style=" stroke:none;fill-rule:nonzero;fill:rgb(50.196081%,50.196081%,50.196081%);fill-opacity:1;" d="M 1099.609375 474.785156 L 1099.609375 475.488281 L 1093.382812 475.488281 L 1093.382812 475.535156 C 1093.382812 476.488281 1093.628906 477.226562 1094.125 477.746094 C 1094.625 478.265625 1095.328125 478.527344 1096.234375 478.527344 C 1096.691406 478.527344 1097.171875 478.453125 1097.671875 478.308594 C 1098.171875 478.164062 1098.703125 477.941406 1099.273438 477.644531 L 1099.273438 479.074219 C 1098.726562 479.296875 1098.199219 479.464844 1097.691406 479.578125 C 1097.183594 479.691406 1096.691406 479.746094 1096.21875 479.746094 C 1094.859375 479.746094 1093.796875 479.339844 1093.027344 478.523438 C 1092.261719 477.707031 1091.882812 476.585938 1091.882812 475.152344 C 1091.882812 473.757812 1092.257812 472.644531 1093.007812 471.808594 C 1093.757812 470.976562 1094.757812 470.558594 1096.007812 470.558594 C 1097.121094 470.558594 1098 470.9375 1098.644531 471.691406 C 1099.285156 472.449219 1099.609375 473.476562 1099.609375 474.785156 Z M 1098.171875 474.363281 C 1098.152344 473.519531 1097.953125 472.878906 1097.574219 472.4375 C 1097.195312 471.996094 1096.652344 471.777344 1095.945312 471.777344 C 1095.25 471.777344 1094.683594 472.007812 1094.234375 472.464844 C 1093.785156 472.921875 1093.519531 473.558594 1093.4375 474.371094 Z M 1098.171875 474.363281 "/>
<path style=" stroke:none;fill-rule:nonzero;fill:rgb(50.196081%,50.196081%,50.196081%);fill-opacity:1;" d="M 1105.351562 468.285156 L 1105.351562 470.769531 L 1108.617188 470.769531 L 1108.617188 471.886719 L 1105.351562 471.886719 L 1105.351562 476.636719 C 1105.351562 477.28125 1105.472656 477.734375 1105.71875 477.988281 C 1105.964844 478.246094 1106.390625 478.371094 1107 478.371094 L 1108.617188 478.371094 L 1108.617188 479.519531 L 1106.859375 479.519531 C 1105.78125 479.519531 1105.019531 479.304688 1104.578125 478.871094 C 1104.132812 478.4375 1103.914062 477.695312 1103.914062 476.636719 L 1103.914062 471.886719 L 1101.578125 471.886719 L 1101.578125 470.769531 L 1103.914062 470.769531 L 1103.914062 468.285156 Z M 1105.351562 468.285156 "/>
<path style=" stroke:none;fill-rule:nonzero;fill:rgb(50.196081%,50.196081%,50.196081%);fill-opacity:1;" d="M 1113.070312 473.949219 L 1113.070312 478.222656 L 1114.9375 478.222656 C 1115.851562 478.222656 1116.507812 478.0625 1116.898438 477.742188 C 1117.289062 477.421875 1117.484375 476.894531 1117.484375 476.160156 C 1117.484375 475.398438 1117.277344 474.839844 1116.867188 474.484375 C 1116.453125 474.128906 1115.8125 473.949219 1114.9375 473.949219 Z M 1113.070312 469.152344 L 1113.070312 472.667969 L 1114.90625 472.667969 C 1115.667969 472.667969 1116.214844 472.523438 1116.554688 472.230469 C 1116.898438 471.9375 1117.070312 471.46875 1117.070312 470.816406 C 1117.070312 470.230469 1116.902344 469.804688 1116.5625 469.546875 C 1116.230469 469.285156 1115.675781 469.152344 1114.90625 469.152344 Z M 1111.484375 467.855469 L 1114.9375 467.855469 C 1116.128906 467.855469 1117.050781 468.113281 1117.695312 468.628906 C 1118.339844 469.144531 1118.664062 469.875 1118.664062 470.816406 C 1118.664062 471.53125 1118.492188 472.09375 1118.152344 472.503906 C 1117.808594 472.917969 1117.296875 473.175781 1116.617188 473.277344 C 1117.382812 473.390625 1117.980469 473.71875 1118.417969 474.261719 C 1118.851562 474.796875 1119.070312 475.484375 1119.070312 476.316406 C 1119.070312 477.375 1118.722656 478.171875 1118.027344 478.710938 C 1117.335938 479.25 1116.304688 479.519531 1114.9375 479.519531 L 1111.484375 479.519531 Z M 1111.484375 467.855469 "/>
<path style=" stroke:none;fill-rule:nonzero;fill:rgb(50.196081%,50.196081%,50.196081%);fill-opacity:1;" d="M 1122.703125 473.949219 L 1122.703125 478.222656 L 1124.570312 478.222656 C 1125.484375 478.222656 1126.140625 478.0625 1126.53125 477.742188 C 1126.921875 477.421875 1127.117188 476.894531 1127.117188 476.160156 C 1127.117188 475.398438 1126.910156 474.839844 1126.5 474.484375 C 1126.085938 474.128906 1125.445312 473.949219 1124.570312 473.949219 Z M 1122.703125 469.152344 L 1122.703125 472.667969 L 1124.539062 472.667969 C 1125.300781 472.667969 1125.847656 472.523438 1126.1875 472.230469 C 1126.53125 471.9375 1126.703125 471.46875 1126.703125 470.816406 C 1126.703125 470.230469 1126.535156 469.804688 1126.195312 469.546875 C 1125.863281 469.285156 1125.308594 469.152344 1124.539062 469.152344 Z M 1121.117188 467.855469 L 1124.570312 467.855469 C 1125.761719 467.855469 1126.683594 468.113281 1127.328125 468.628906 C 1127.972656 469.144531 1128.296875 469.875 1128.296875 470.816406 C 1128.296875 471.53125 1128.125 472.09375 1127.785156 472.503906 C 1127.441406 472.917969 1126.929688 473.175781 1126.25 473.277344 C 1127.015625 473.390625 1127.613281 473.71875 1128.050781 474.261719 C 1128.484375 474.796875 1128.703125 475.484375 1128.703125 476.316406 C 1128.703125 477.375 1128.355469 478.171875 1127.660156 478.710938 C 1126.96875 479.25 1125.9375 479.519531 1124.570312 479.519531 L 1121.117188 479.519531 Z M 1121.117188 467.855469 "/>
</g>
</defs>
<g id="surface1">
<path style=" stroke:none;fill-rule:nonzero;fill:rgb(100%,100%,100%);fill-opacity:1;" d="M 0 518.398438 L 1152 518.398438 L 1152 0 L 0 0 Z M 0 518.398438 "/>
<path style=" stroke:none;fill-rule:nonzero;fill:rgb(100%,100%,100%);fill-opacity:1;" d="M 138.238281 409.535156 L 1094.398438 409.535156 L 1094.398438 25.921875 L 138.238281 25.921875 Z M 138.238281 409.535156 "/>
<g clip-path="url(#clip1)" clip-rule="nonzero">
<path style=" stroke:none;fill-rule:nonzero;fill:rgb(69.803923%,13.333334%,13.333334%);fill-opacity:0.14902;" d="M 138.238281 409.535156 L 176.488281 410.4375 L 214.734375 410.398438 L 252.980469 410.515625 L 291.226562 410.425781 L 329.472656 410.4375 L 367.71875 410.019531 L 405.964844 409.660156 L 444.210938 409.410156 L 482.457031 409.25 L 520.703125 408.929688 L 558.949219 408.460938 L 597.195312 407.894531 L 635.441406 407.890625 L 673.691406 407.089844 L 711.9375 406.210938 L 750.183594 405.183594 L 788.429688 404.222656 L 826.675781 403.042969 L 864.921875 401.820312 L 903.167969 400.78125 L 941.414062 399.359375 L 979.660156 397.972656 L 1017.90625 396.523438 L 1056.152344 394.957031 L 1094.398438 393.589844 L 1094.398438 376.332031 L 1056.152344 378.25 L 1017.90625 380.074219 L 979.660156 381.785156 L 941.414062 383.097656 L 903.167969 385.222656 L 864.921875 387.332031 L 826.675781 389.332031 L 788.429688 391.144531 L 750.183594 392.835938 L 711.9375 394.234375 L 673.691406 396.039062 L 635.441406 397.511719 L 597.195312 398.765625 L 558.949219 399.746094 L 520.703125 400.765625 L 482.457031 401.628906 L 444.210938 402.679688 L 405.964844 403.289062 L 367.71875 403.914062 L 329.472656 404.476562 L 291.226562 405.488281 L 252.980469 406.195312 L 214.734375 407.046875 L 176.488281 407.652344 Z M 138.238281 409.535156 "/>
</g>
<path style=" stroke:none;fill-rule:nonzero;fill:rgb(0%,0%,0%);fill-opacity:1;" d="M 138.238281 456.125 C 136.222656 456.125 134.425781 455.59375 132.839844 454.523438 C 131.261719 453.453125 130.03125 451.917969 129.148438 449.914062 C 128.265625 447.910156 127.824219 445.554688 127.824219 442.839844 C 127.824219 440.125 128.265625 437.765625 129.148438 435.761719 C 130.03125 433.761719 131.261719 432.222656 132.839844 431.15625 C 134.425781 430.085938 136.222656 429.550781 138.238281 429.550781 C 140.253906 429.550781 142.054688 430.085938 143.632812 431.15625 C 145.214844 432.222656 146.453125 433.761719 147.347656 435.761719 C 148.242188 437.765625 148.691406 440.125 148.691406 442.839844 C 148.691406 445.554688 148.242188 447.910156 147.347656 449.914062 C 146.453125 451.917969 145.214844 453.453125 143.632812 454.523438 C 142.054688 455.59375 140.253906 456.125 138.238281 456.125 Z M 138.238281 453.664062 C 139.757812 453.664062 141.09375 453.242188 142.25 452.398438 C 143.410156 451.550781 144.3125 450.320312 144.957031 448.699219 C 145.605469 447.082031 145.929688 445.128906 145.929688 442.839844 C 145.929688 440.546875 145.605469 438.59375 144.957031 436.976562 C 144.3125 435.359375 143.410156 434.128906 142.25 433.285156 C 141.09375 432.4375 139.757812 432.011719 138.238281 432.011719 C 136.71875 432.011719 135.382812 432.4375 134.222656 433.285156 C 133.070312 434.128906 132.167969 435.359375 131.515625 436.976562 C 130.871094 438.59375 130.546875 440.546875 130.546875 442.839844 C 130.546875 445.128906 130.871094 447.082031 131.515625 448.699219 C 132.167969 450.320312 133.070312 451.550781 134.222656 452.398438 C 135.382812 453.242188 136.71875 453.664062 138.238281 453.664062 Z M 138.238281 453.664062 "/>
<path style=" stroke:none;fill-rule:nonzero;fill:rgb(0%,0%,0%);fill-opacity:1;" d="M 327.714844 440.488281 C 331.5 440.488281 334.257812 441.167969 335.988281 442.523438 C 337.71875 443.875 338.582031 445.773438 338.582031 448.21875 C 338.582031 449.734375 338.226562 451.089844 337.515625 452.28125 C 336.808594 453.476562 335.746094 454.414062 334.324219 455.101562 C 332.90625 455.785156 331.164062 456.125 329.097656 456.125 C 327.230469 456.125 325.457031 455.824219 323.777344 455.21875 C 322.097656 454.605469 320.75 453.789062 319.730469 452.765625 L 321.035156 450.644531 C 321.90625 451.539062 323.050781 452.265625 324.46875 452.824219 C 325.886719 453.386719 327.417969 453.664062 329.0625 453.664062 C 331.230469 453.664062 332.902344 453.179688 334.085938 452.210938 C 335.269531 451.242188 335.859375 449.945312 335.859375 448.328125 C 335.859375 446.535156 335.191406 445.175781 333.859375 444.257812 C 332.527344 443.335938 330.28125 442.875 327.121094 442.875 L 321.554688 442.875 L 322.902344 429.773438 L 337.199219 429.773438 L 337.199219 432.164062 L 325.253906 432.164062 L 324.355469 440.488281 Z M 327.714844 440.488281 "/>
<path style=" stroke:none;fill-rule:nonzero;fill:rgb(0%,0%,0%);fill-opacity:1;" d="M 510.789062 429.773438 L 510.789062 455.90625 L 508.105469 455.90625 L 508.105469 432.164062 L 501.945312 432.164062 L 501.945312 429.773438 Z M 510.789062 429.773438 "/>
<path style=" stroke:none;fill-rule:nonzero;fill:rgb(0%,0%,0%);fill-opacity:1;" d="M 527.441406 456.125 C 525.425781 456.125 523.628906 455.59375 522.046875 454.523438 C 520.464844 453.453125 519.234375 451.917969 518.351562 449.914062 C 517.46875 447.910156 517.027344 445.554688 517.027344 442.839844 C 517.027344 440.125 517.46875 437.765625 518.351562 435.761719 C 519.234375 433.761719 520.464844 432.222656 522.046875 431.15625 C 523.628906 430.085938 525.425781 429.550781 527.441406 429.550781 C 529.460938 429.550781 531.257812 430.085938 532.835938 431.15625 C 534.417969 432.222656 535.65625 433.761719 536.550781 435.761719 C 537.445312 437.765625 537.894531 440.125 537.894531 442.839844 C 537.894531 445.554688 537.445312 447.910156 536.550781 449.914062 C 535.65625 451.917969 534.417969 453.453125 532.835938 454.523438 C 531.257812 455.59375 529.460938 456.125 527.441406 456.125 Z M 527.441406 453.664062 C 528.960938 453.664062 530.300781 453.242188 531.453125 452.398438 C 532.613281 451.550781 533.515625 450.320312 534.160156 448.699219 C 534.808594 447.082031 535.136719 445.128906 535.136719 442.839844 C 535.136719 440.546875 534.808594 438.59375 534.160156 436.976562 C 533.515625 435.359375 532.613281 434.128906 531.453125 433.285156 C 530.300781 432.4375 528.960938 432.011719 527.441406 432.011719 C 525.925781 432.011719 524.585938 432.4375 523.425781 433.285156 C 522.273438 434.128906 521.371094 435.359375 520.722656 436.976562 C 520.074219 438.59375 519.753906 440.546875 519.753906 442.839844 C 519.753906 445.128906 520.074219 447.082031 520.722656 448.699219 C 521.371094 450.320312 522.273438 451.550781 523.425781 452.398438 C 524.585938 453.242188 525.925781 453.664062 527.441406 453.664062 Z M 527.441406 453.664062 "/>
<path style=" stroke:none;fill-rule:nonzero;fill:rgb(0%,0%,0%);fill-opacity:1;" d="M 703.816406 429.773438 L 703.816406 455.90625 L 701.132812 455.90625 L 701.132812 432.164062 L 694.972656 432.164062 L 694.972656 429.773438 Z M 703.816406 429.773438 "/>
<path style=" stroke:none;fill-rule:nonzero;fill:rgb(0%,0%,0%);fill-opacity:1;" d="M 716.921875 440.488281 C 720.703125 440.488281 723.460938 441.167969 725.191406 442.523438 C 726.921875 443.875 727.789062 445.773438 727.789062 448.21875 C 727.789062 449.734375 727.433594 451.089844 726.71875 452.28125 C 726.011719 453.476562 724.949219 454.414062 723.527344 455.101562 C 722.109375 455.785156 720.367188 456.125 718.300781 456.125 C 716.4375 456.125 714.664062 455.824219 712.984375 455.21875 C 711.300781 454.605469 709.953125 453.789062 708.933594 452.765625 L 710.242188 450.644531 C 711.113281 451.539062 712.253906 452.265625 713.671875 452.824219 C 715.089844 453.386719 716.621094 453.664062 718.265625 453.664062 C 720.433594 453.664062 722.109375 453.179688 723.289062 452.210938 C 724.472656 451.242188 725.0625 449.945312 725.0625 448.328125 C 725.0625 446.535156 724.394531 445.175781 723.0625 444.257812 C 721.734375 443.335938 719.488281 442.875 716.324219 442.875 L 710.761719 442.875 L 712.109375 429.773438 L 726.40625 429.773438 L 726.40625 432.164062 L 714.457031 432.164062 L 713.558594 440.488281 Z M 716.921875 440.488281 "/>
<path style=" stroke:none;fill-rule:nonzero;fill:rgb(0%,0%,0%);fill-opacity:1;" d="M 899.996094 453.511719 L 899.996094 455.90625 L 881.667969 455.90625 L 881.667969 454.003906 L 892.527344 443.363281 C 893.898438 442.019531 894.824219 440.851562 895.308594 439.871094 C 895.796875 438.886719 896.039062 437.894531 896.039062 436.898438 C 896.039062 435.359375 895.511719 434.160156 894.453125 433.300781 C 893.394531 432.441406 891.882812 432.011719 889.914062 432.011719 C 886.855469 432.011719 884.476562 432.980469 882.785156 434.921875 L 880.878906 433.285156 C 881.902344 432.085938 883.203125 431.164062 884.78125 430.519531 C 886.359375 429.871094 888.144531 429.550781 890.136719 429.550781 C 892.800781 429.550781 894.910156 430.179688 896.464844 431.433594 C 898.019531 432.691406 898.800781 434.414062 898.800781 436.601562 C 898.800781 437.949219 898.5 439.242188 897.902344 440.488281 C 897.304688 441.730469 896.175781 443.164062 894.503906 444.78125 L 885.621094 453.511719 Z M 899.996094 453.511719 "/>
<path style=" stroke:none;fill-rule:nonzero;fill:rgb(0%,0%,0%);fill-opacity:1;" d="M 913.769531 456.125 C 911.753906 456.125 909.957031 455.59375 908.371094 454.523438 C 906.792969 453.453125 905.5625 451.917969 904.679688 449.914062 C 903.796875 447.910156 903.355469 445.554688 903.355469 442.839844 C 903.355469 440.125 903.796875 437.765625 904.679688 435.761719 C 905.5625 433.761719 906.792969 432.222656 908.371094 431.15625 C 909.957031 430.085938 911.753906 429.550781 913.769531 429.550781 C 915.785156 429.550781 917.585938 430.085938 919.164062 431.15625 C 920.746094 432.222656 921.984375 433.761719 922.878906 435.761719 C 923.773438 437.765625 924.222656 440.125 924.222656 442.839844 C 924.222656 445.554688 923.773438 447.910156 922.878906 449.914062 C 921.984375 451.917969 920.746094 453.453125 919.164062 454.523438 C 917.585938 455.59375 915.785156 456.125 913.769531 456.125 Z M 913.769531 453.664062 C 915.289062 453.664062 916.625 453.242188 917.78125 452.398438 C 918.941406 451.550781 919.84375 450.320312 920.488281 448.699219 C 921.136719 447.082031 921.460938 445.128906 921.460938 442.839844 C 921.460938 440.546875 921.136719 438.59375 920.488281 436.976562 C 919.84375 435.359375 918.941406 434.128906 917.78125 433.285156 C 916.625 432.4375 915.289062 432.011719 913.769531 432.011719 C 912.25 432.011719 910.914062 432.4375 909.753906 433.285156 C 908.601562 434.128906 907.699219 435.359375 907.046875 436.976562 C 906.402344 438.59375 906.078125 440.546875 906.078125 442.839844 C 906.078125 445.128906 906.402344 447.082031 907.046875 448.699219 C 907.699219 450.320312 908.601562 451.550781 909.753906 452.398438 C 910.914062 453.242188 912.25 453.664062 913.769531 453.664062 Z M 913.769531 453.664062 "/>
<path style=" stroke:none;fill-rule:nonzero;fill:rgb(0%,0%,0%);fill-opacity:1;" d="M 1093.019531 453.511719 L 1093.019531 455.90625 L 1074.691406 455.90625 L 1074.691406 454.003906 L 1085.554688 443.363281 C 1086.921875 442.019531 1087.851562 440.851562 1088.335938 439.871094 C 1088.824219 438.886719 1089.066406 437.894531 1089.066406 436.898438 C 1089.066406 435.359375 1088.535156 434.160156 1087.480469 433.300781 C 1086.421875 432.441406 1084.90625 432.011719 1082.941406 432.011719 C 1079.878906 432.011719 1077.503906 432.980469 1075.8125 434.921875 L 1073.90625 433.285156 C 1074.925781 432.085938 1076.226562 431.164062 1077.808594 430.519531 C 1079.386719 429.871094 1081.171875 429.550781 1083.160156 429.550781 C 1085.824219 429.550781 1087.9375 430.179688 1089.492188 431.433594 C 1091.046875 432.691406 1091.824219 434.414062 1091.824219 436.601562 C 1091.824219 437.949219 1091.523438 439.242188 1090.925781 440.488281 C 1090.332031 441.730469 1089.199219 443.164062 1087.53125 444.78125 L 1078.648438 453.511719 Z M 1093.019531 453.511719 "/>
<path style=" stroke:none;fill-rule:nonzero;fill:rgb(0%,0%,0%);fill-opacity:1;" d="M 1103.246094 440.488281 C 1107.03125 440.488281 1109.789062 441.167969 1111.519531 442.523438 C 1113.25 443.875 1114.113281 445.773438 1114.113281 448.21875 C 1114.113281 449.734375 1113.757812 451.089844 1113.046875 452.28125 C 1112.339844 453.476562 1111.277344 454.414062 1109.855469 455.101562 C 1108.4375 455.785156 1106.695312 456.125 1104.628906 456.125 C 1102.761719 456.125 1100.988281 455.824219 1099.308594 455.21875 C 1097.628906 454.605469 1096.28125 453.789062 1095.261719 452.765625 L 1096.566406 450.644531 C 1097.4375 451.539062 1098.582031 452.265625 1100 452.824219 C 1101.417969 453.386719 1102.949219 453.664062 1104.59375 453.664062 C 1106.761719 453.664062 1108.433594 453.179688 1109.617188 452.210938 C 1110.800781 451.242188 1111.390625 449.945312 1111.390625 448.328125 C 1111.390625 446.535156 1110.722656 445.175781 1109.390625 444.257812 C 1108.058594 443.335938 1105.8125 442.875 1102.652344 442.875 L 1097.085938 442.875 L 1098.433594 429.773438 L 1112.730469 429.773438 L 1112.730469 432.164062 L 1100.785156 432.164062 L 1099.886719 440.488281 Z M 1103.246094 440.488281 "/>
<path style=" stroke:none;fill-rule:nonzero;fill:rgb(0%,0%,0%);fill-opacity:1;" d="M 525.632812 481.882812 L 525.632812 499.128906 C 525.632812 502.464844 524.816406 504.9375 523.1875 506.542969 C 521.558594 508.148438 519.101562 508.949219 515.816406 508.949219 C 514 508.949219 512.277344 508.683594 510.644531 508.144531 C 509.015625 507.609375 507.691406 506.867188 506.667969 505.921875 L 508.015625 503.910156 C 508.960938 504.753906 510.109375 505.410156 511.464844 505.882812 C 512.820312 506.355469 514.246094 506.59375 515.738281 506.59375 C 518.226562 506.59375 520.058594 506.015625 521.226562 504.855469 C 522.398438 503.699219 522.984375 501.90625 522.984375 499.464844 L 522.984375 496.964844 C 522.164062 498.207031 521.085938 499.15625 519.753906 499.804688 C 518.421875 500.449219 516.949219 500.773438 515.332031 500.773438 C 513.488281 500.773438 511.8125 500.367188 510.308594 499.558594 C 508.804688 498.75 507.621094 497.617188 506.761719 496.164062 C 505.902344 494.707031 505.472656 493.058594 505.472656 491.21875 C 505.472656 489.375 505.902344 487.730469 506.761719 486.289062 C 507.621094 484.847656 508.796875 483.726562 510.289062 482.929688 C 511.785156 482.132812 513.464844 481.734375 515.332031 481.734375 C 517 481.734375 518.503906 482.070312 519.84375 482.742188 C 521.191406 483.414062 522.273438 484.386719 523.09375 485.652344 L 523.09375 481.882812 Z M 515.59375 498.421875 C 517.011719 498.421875 518.292969 498.117188 519.4375 497.507812 C 520.582031 496.894531 521.46875 496.042969 522.101562 494.949219 C 522.742188 493.855469 523.058594 492.609375 523.058594 491.21875 C 523.058594 489.820312 522.742188 488.582031 522.101562 487.5 C 521.46875 486.417969 520.585938 485.570312 519.453125 484.964844 C 518.324219 484.355469 517.035156 484.046875 515.59375 484.046875 C 514.171875 484.046875 512.898438 484.347656 511.765625 484.945312 C 510.632812 485.542969 509.75 486.386719 509.113281 487.484375 C 508.476562 488.578125 508.160156 489.820312 508.160156 491.21875 C 508.160156 492.609375 508.476562 493.855469 509.113281 494.949219 C 509.75 496.042969 510.632812 496.894531 511.765625 497.507812 C 512.898438 498.117188 514.171875 498.421875 515.59375 498.421875 Z M 515.59375 498.421875 "/>
<path style=" stroke:none;fill-rule:nonzero;fill:rgb(0%,0%,0%);fill-opacity:1;" d="M 550.164062 492.523438 L 533.738281 492.523438 C 533.882812 494.5625 534.667969 496.210938 536.085938 497.472656 C 537.507812 498.726562 539.300781 499.355469 541.464844 499.355469 C 542.683594 499.355469 543.800781 499.136719 544.820312 498.703125 C 545.84375 498.265625 546.726562 497.625 547.472656 496.777344 L 548.96875 498.496094 C 548.097656 499.539062 547.007812 500.335938 545.699219 500.882812 C 544.394531 501.433594 542.957031 501.707031 541.390625 501.707031 C 539.371094 501.707031 537.585938 501.277344 536.03125 500.417969 C 534.472656 499.558594 533.261719 498.371094 532.390625 496.851562 C 531.519531 495.335938 531.082031 493.617188 531.082031 491.703125 C 531.082031 489.785156 531.5 488.066406 532.332031 486.550781 C 533.167969 485.03125 534.3125 483.847656 535.765625 483.003906 C 537.226562 482.15625 538.863281 481.734375 540.679688 481.734375 C 542.496094 481.734375 544.125 482.15625 545.566406 483.003906 C 547.011719 483.847656 548.148438 485.023438 548.96875 486.535156 C 549.789062 488.039062 550.199219 489.761719 550.199219 491.703125 Z M 540.679688 484.007812 C 538.789062 484.007812 537.203125 484.613281 535.917969 485.820312 C 534.640625 487.027344 533.910156 488.601562 533.738281 490.539062 L 547.660156 490.539062 C 547.484375 488.601562 546.757812 487.027344 545.472656 485.820312 C 544.195312 484.613281 542.597656 484.007812 540.679688 484.007812 Z M 540.679688 484.007812 "/>
<path style=" stroke:none;fill-rule:nonzero;fill:rgb(0%,0%,0%);fill-opacity:1;" d="M 565.621094 481.734375 C 568.082031 481.734375 570.039062 482.449219 571.492188 483.878906 C 572.953125 485.308594 573.679688 487.394531 573.679688 490.132812 L 573.679688 501.519531 L 571.03125 501.519531 L 571.03125 490.394531 C 571.03125 488.351562 570.523438 486.796875 569.5 485.726562 C 568.480469 484.660156 567.027344 484.125 565.136719 484.125 C 563.019531 484.125 561.34375 484.753906 560.113281 486.007812 C 558.878906 487.265625 558.265625 489 558.265625 491.21875 L 558.265625 501.519531 L 555.617188 501.519531 L 555.617188 481.882812 L 558.152344 481.882812 L 558.152344 485.5 C 558.871094 484.308594 559.875 483.382812 561.15625 482.722656 C 562.441406 482.0625 563.929688 481.734375 565.621094 481.734375 Z M 565.621094 481.734375 "/>
<path style=" stroke:none;fill-rule:nonzero;fill:rgb(0%,0%,0%);fill-opacity:1;" d="M 597.988281 492.523438 L 581.5625 492.523438 C 581.707031 494.5625 582.492188 496.210938 583.910156 497.472656 C 585.332031 498.726562 587.125 499.355469 589.289062 499.355469 C 590.507812 499.355469 591.625 499.136719 592.644531 498.703125 C 593.667969 498.265625 594.550781 497.625 595.296875 496.777344 L 596.792969 498.496094 C 595.921875 499.539062 594.832031 500.335938 593.523438 500.882812 C 592.21875 501.433594 590.78125 501.707031 589.214844 501.707031 C 587.195312 501.707031 585.410156 501.277344 583.851562 500.417969 C 582.296875 499.558594 581.085938 498.371094 580.214844 496.851562 C 579.34375 495.335938 578.90625 493.617188 578.90625 491.703125 C 578.90625 489.785156 579.324219 488.066406 580.15625 486.550781 C 580.992188 485.03125 582.136719 483.847656 583.589844 483.003906 C 585.050781 482.15625 586.6875 481.734375 588.503906 481.734375 C 590.320312 481.734375 591.949219 482.15625 593.390625 483.003906 C 594.835938 483.847656 595.972656 485.023438 596.792969 486.535156 C 597.613281 488.039062 598.023438 489.761719 598.023438 491.703125 Z M 588.503906 484.007812 C 586.613281 484.007812 585.027344 484.613281 583.742188 485.820312 C 582.464844 487.027344 581.734375 488.601562 581.5625 490.539062 L 595.484375 490.539062 C 595.308594 488.601562 594.582031 487.027344 593.296875 485.820312 C 592.019531 484.613281 590.417969 484.007812 588.503906 484.007812 Z M 588.503906 484.007812 "/>
<path style=" stroke:none;fill-rule:nonzero;fill:rgb(0%,0%,0%);fill-opacity:1;" d="M 605.976562 485.726562 C 606.597656 484.410156 607.523438 483.414062 608.753906 482.742188 C 609.988281 482.070312 611.511719 481.734375 613.332031 481.734375 L 613.332031 484.3125 L 612.695312 484.269531 C 610.632812 484.269531 609.015625 484.90625 607.84375 486.175781 C 606.671875 487.445312 606.085938 489.222656 606.085938 491.515625 L 606.085938 501.519531 L 603.4375 501.519531 L 603.4375 481.882812 L 605.976562 481.882812 Z M 605.976562 485.726562 "/>
<path style=" stroke:none;fill-rule:nonzero;fill:rgb(0%,0%,0%);fill-opacity:1;" d="M 625.277344 481.734375 C 627.839844 481.734375 629.804688 482.375 631.171875 483.65625 C 632.542969 484.9375 633.226562 486.835938 633.226562 489.351562 L 633.226562 501.519531 L 630.6875 501.519531 L 630.6875 498.457031 C 630.09375 499.480469 629.21875 500.277344 628.058594 500.847656 C 626.898438 501.421875 625.523438 501.707031 623.933594 501.707031 C 621.746094 501.707031 620.003906 501.183594 618.707031 500.136719 C 617.414062 499.089844 616.765625 497.710938 616.765625 495.996094 C 616.765625 494.328125 617.367188 492.984375 618.574219 491.964844 C 619.78125 490.941406 621.707031 490.429688 624.34375 490.429688 L 630.578125 490.429688 L 630.578125 489.234375 C 630.578125 487.542969 630.105469 486.253906 629.160156 485.371094 C 628.214844 484.488281 626.832031 484.046875 625.011719 484.046875 C 623.769531 484.046875 622.574219 484.253906 621.433594 484.667969 C 620.289062 485.074219 619.304688 485.640625 618.480469 486.363281 L 617.289062 484.382812 C 618.285156 483.535156 619.480469 482.886719 620.871094 482.425781 C 622.265625 481.964844 623.730469 481.734375 625.277344 481.734375 Z M 624.34375 499.617188 C 625.835938 499.617188 627.117188 499.277344 628.1875 498.589844 C 629.261719 497.90625 630.058594 496.917969 630.578125 495.621094 L 630.578125 492.40625 L 624.417969 492.40625 C 621.058594 492.40625 619.378906 493.578125 619.378906 495.917969 C 619.378906 497.0625 619.8125 497.964844 620.683594 498.625 C 621.554688 499.285156 622.773438 499.617188 624.34375 499.617188 Z M 624.34375 499.617188 "/>
<path style=" stroke:none;fill-rule:nonzero;fill:rgb(0%,0%,0%);fill-opacity:1;" d="M 650.773438 500.324219 C 650.277344 500.769531 649.660156 501.113281 648.925781 501.351562 C 648.191406 501.585938 647.429688 501.707031 646.632812 501.707031 C 644.789062 501.707031 643.367188 501.207031 642.375 500.210938 C 641.378906 499.21875 640.878906 497.8125 640.878906 495.996094 L 640.878906 484.125 L 637.375 484.125 L 637.375 481.882812 L 640.878906 481.882812 L 640.878906 477.589844 L 643.535156 477.589844 L 643.535156 481.882812 L 649.507812 481.882812 L 649.507812 484.125 L 643.535156 484.125 L 643.535156 495.84375 C 643.535156 497.015625 643.824219 497.90625 644.410156 498.515625 C 644.996094 499.125 645.835938 499.429688 646.929688 499.429688 C 647.476562 499.429688 648.007812 499.34375 648.515625 499.167969 C 649.023438 498.992188 649.464844 498.746094 649.839844 498.421875 Z M 650.773438 500.324219 "/>
<path style=" stroke:none;fill-rule:nonzero;fill:rgb(0%,0%,0%);fill-opacity:1;" d="M 655.59375 481.882812 L 658.242188 481.882812 L 658.242188 501.519531 L 655.59375 501.519531 Z M 656.9375 477.589844 C 656.386719 477.589844 655.925781 477.40625 655.554688 477.03125 C 655.179688 476.65625 654.992188 476.207031 654.992188 475.683594 C 654.992188 475.1875 655.179688 474.75 655.554688 474.375 C 655.925781 474.003906 656.386719 473.816406 656.9375 473.816406 C 657.484375 473.816406 657.945312 473.996094 658.316406 474.359375 C 658.691406 474.722656 658.878906 475.152344 658.878906 475.648438 C 658.878906 476.195312 658.691406 476.65625 658.316406 477.03125 C 657.945312 477.40625 657.484375 477.589844 656.9375 477.589844 Z M 656.9375 477.589844 "/>
<path style=" stroke:none;fill-rule:nonzero;fill:rgb(0%,0%,0%);fill-opacity:1;" d="M 673.664062 501.707031 C 671.769531 501.707031 670.0625 501.277344 668.542969 500.417969 C 667.023438 499.558594 665.832031 498.371094 664.960938 496.851562 C 664.089844 495.335938 663.652344 493.617188 663.652344 491.703125 C 663.652344 489.785156 664.089844 488.066406 664.960938 486.550781 C 665.832031 485.03125 667.023438 483.847656 668.542969 483.003906 C 670.0625 482.15625 671.769531 481.734375 673.664062 481.734375 C 675.554688 481.734375 677.257812 482.15625 678.773438 483.003906 C 680.292969 483.847656 681.480469 485.03125 682.335938 486.550781 C 683.195312 488.066406 683.625 489.785156 683.625 491.703125 C 683.625 493.617188 683.195312 495.335938 682.335938 496.851562 C 681.480469 498.371094 680.292969 499.558594 678.773438 500.417969 C 677.257812 501.277344 675.554688 501.707031 673.664062 501.707031 Z M 673.664062 499.355469 C 675.054688 499.355469 676.304688 499.039062 677.414062 498.40625 C 678.523438 497.765625 679.386719 496.863281 680.011719 495.699219 C 680.632812 494.527344 680.945312 493.195312 680.945312 491.703125 C 680.945312 490.207031 680.632812 488.875 680.011719 487.707031 C 679.386719 486.535156 678.523438 485.632812 677.414062 485 C 676.304688 484.367188 675.054688 484.046875 673.664062 484.046875 C 672.265625 484.046875 671.015625 484.367188 669.90625 485 C 668.800781 485.632812 667.929688 486.535156 667.292969 487.707031 C 666.660156 488.875 666.34375 490.207031 666.34375 491.703125 C 666.34375 493.195312 666.660156 494.527344 667.292969 495.699219 C 667.929688 496.863281 668.800781 497.765625 669.90625 498.40625 C 671.015625 499.039062 672.265625 499.355469 673.664062 499.355469 Z M 673.664062 499.355469 "/>
<path style=" stroke:none;fill-rule:nonzero;fill:rgb(0%,0%,0%);fill-opacity:1;" d="M 699.050781 481.734375 C 701.511719 481.734375 703.46875 482.449219 704.921875 483.878906 C 706.382812 485.308594 707.109375 487.394531 707.109375 490.132812 L 707.109375 501.519531 L 704.460938 501.519531 L 704.460938 490.394531 C 704.460938 488.351562 703.949219 486.796875 702.929688 485.726562 C 701.910156 484.660156 700.453125 484.125 698.566406 484.125 C 696.449219 484.125 694.773438 484.753906 693.542969 486.007812 C 692.308594 487.265625 691.691406 489 691.691406 491.21875 L 691.691406 501.519531 L 689.042969 501.519531 L 689.042969 481.882812 L 691.582031 481.882812 L 691.582031 485.5 C 692.300781 484.308594 693.304688 483.382812 694.585938 482.722656 C 695.871094 482.0625 697.355469 481.734375 699.050781 481.734375 Z M 699.050781 481.734375 "/>
<path style=" stroke:none;fill-rule:nonzero;fill:rgb(0%,0%,0%);fill-opacity:1;" d="M 719.582031 501.707031 C 717.988281 501.707031 716.460938 501.476562 715.007812 501.019531 C 713.554688 500.554688 712.414062 499.976562 711.589844 499.28125 L 712.785156 497.191406 C 713.605469 497.835938 714.636719 498.367188 715.882812 498.777344 C 717.128906 499.1875 718.421875 499.390625 719.769531 499.390625 C 721.558594 499.390625 722.882812 499.109375 723.738281 498.550781 C 724.601562 497.988281 725.03125 497.199219 725.03125 496.183594 C 725.03125 495.457031 724.792969 494.894531 724.316406 494.484375 C 723.847656 494.070312 723.25 493.761719 722.527344 493.550781 C 721.808594 493.335938 720.851562 493.132812 719.65625 492.933594 C 718.0625 492.632812 716.777344 492.328125 715.808594 492.015625 C 714.839844 491.707031 714.011719 491.175781 713.328125 490.429688 C 712.644531 489.683594 712.300781 488.652344 712.300781 487.332031 C 712.300781 485.691406 712.984375 484.347656 714.355469 483.300781 C 715.722656 482.253906 717.625 481.734375 720.066406 481.734375 C 721.335938 481.734375 722.605469 481.902344 723.875 482.238281 C 725.140625 482.574219 726.1875 483.015625 727.011719 483.5625 L 725.851562 485.6875 C 724.234375 484.566406 722.304688 484.007812 720.066406 484.007812 C 718.375 484.007812 717.097656 484.308594 716.238281 484.90625 C 715.378906 485.503906 714.949219 486.289062 714.949219 487.257812 C 714.949219 488.003906 715.191406 488.601562 715.679688 489.054688 C 716.164062 489.5 716.765625 489.828125 717.488281 490.039062 C 718.210938 490.25 719.207031 490.46875 720.480469 490.691406 C 722.046875 490.992188 723.300781 491.292969 724.246094 491.589844 C 725.191406 491.886719 726 492.394531 726.675781 493.121094 C 727.347656 493.84375 727.683594 494.839844 727.683594 496.105469 C 727.683594 497.824219 726.96875 499.1875 725.535156 500.195312 C 724.105469 501.203125 722.121094 501.707031 719.582031 501.707031 Z M 719.582031 501.707031 "/>
<path style=" stroke:none;fill-rule:nonzero;fill:rgb(0%,0%,0%);fill-opacity:1;" d="M 107.210938 423.609375 C 105.199219 423.609375 103.398438 423.074219 101.816406 422.003906 C 100.238281 420.933594 99.007812 419.398438 98.125 417.394531 C 97.242188 415.394531 96.800781 413.035156 96.800781 410.320312 C 96.800781 407.605469 97.242188 405.246094 98.125 403.246094 C 99.007812 401.242188 100.238281 399.707031 101.816406 398.636719 C 103.398438 397.566406 105.199219 397.03125 107.210938 397.03125 C 109.230469 397.03125 111.03125 397.566406 112.609375 398.636719 C 114.191406 399.707031 115.429688 401.242188 116.324219 403.246094 C 117.21875 405.246094 117.664062 407.605469 117.664062 410.320312 C 117.664062 413.035156 117.21875 415.394531 116.324219 417.394531 C 115.429688 419.398438 114.191406 420.933594 112.609375 422.003906 C 111.03125 423.074219 109.230469 423.609375 107.210938 423.609375 Z M 107.210938 421.148438 C 108.734375 421.148438 110.070312 420.726562 111.226562 419.882812 C 112.382812 419.035156 113.285156 417.800781 113.933594 416.183594 C 114.582031 414.566406 114.90625 412.609375 114.90625 410.320312 C 114.90625 408.03125 114.582031 406.074219 113.933594 404.457031 C 113.285156 402.839844 112.382812 401.609375 111.226562 400.765625 C 110.070312 399.917969 108.734375 399.492188 107.210938 399.492188 C 105.695312 399.492188 104.359375 399.917969 103.199219 400.765625 C 102.042969 401.609375 101.140625 402.839844 100.492188 404.457031 C 99.847656 406.074219 99.523438 408.03125 99.523438 410.320312 C 99.523438 412.609375 99.847656 414.566406 100.492188 416.183594 C 101.140625 417.800781 102.042969 419.035156 103.199219 419.882812 C 104.359375 420.726562 105.695312 421.148438 107.210938 421.148438 Z M 107.210938 421.148438 "/>
<path style=" stroke:none;fill-rule:nonzero;fill:rgb(0%,0%,0%);fill-opacity:1;" d="M 93.441406 344.273438 L 93.441406 346.664062 L 75.113281 346.664062 L 75.113281 344.761719 L 85.972656 334.121094 C 87.34375 332.777344 88.269531 331.613281 88.753906 330.628906 C 89.242188 329.644531 89.484375 328.65625 89.484375 327.660156 C 89.484375 326.117188 88.957031 324.917969 87.898438 324.058594 C 86.839844 323.199219 85.328125 322.769531 83.359375 322.769531 C 80.300781 322.769531 77.921875 323.742188 76.230469 325.679688 L 74.324219 324.042969 C 75.347656 322.84375 76.648438 321.921875 78.226562 321.277344 C 79.804688 320.632812 81.589844 320.308594 83.582031 320.308594 C 86.246094 320.308594 88.355469 320.9375 89.910156 322.191406 C 91.464844 323.449219 92.246094 325.171875 92.246094 327.363281 C 92.246094 328.707031 91.945312 330.003906 91.347656 331.246094 C 90.75 332.492188 89.621094 333.921875 87.949219 335.539062 L 79.066406 344.273438 Z M 93.441406 344.273438 "/>
<path style=" stroke:none;fill-rule:nonzero;fill:rgb(0%,0%,0%);fill-opacity:1;" d="M 107.214844 346.886719 C 105.199219 346.886719 103.402344 346.351562 101.816406 345.28125 C 100.238281 344.210938 99.007812 342.675781 98.125 340.671875 C 97.242188 338.671875 96.800781 336.3125 96.800781 333.597656 C 96.800781 330.882812 97.242188 328.523438 98.125 326.523438 C 99.007812 324.519531 100.238281 322.984375 101.816406 321.914062 C 103.402344 320.84375 105.199219 320.308594 107.214844 320.308594 C 109.230469 320.308594 111.03125 320.84375 112.609375 321.914062 C 114.191406 322.984375 115.429688 324.519531 116.324219 326.523438 C 117.21875 328.523438 117.667969 330.882812 117.667969 333.597656 C 117.667969 336.3125 117.21875 338.671875 116.324219 340.671875 C 115.429688 342.675781 114.191406 344.210938 112.609375 345.28125 C 111.03125 346.351562 109.230469 346.886719 107.214844 346.886719 Z M 107.214844 344.425781 C 108.734375 344.425781 110.070312 344.003906 111.226562 343.160156 C 112.386719 342.308594 113.289062 341.078125 113.933594 339.460938 C 114.582031 337.84375 114.90625 335.886719 114.90625 333.597656 C 114.90625 331.308594 114.582031 329.351562 113.933594 327.734375 C 113.289062 326.117188 112.386719 324.886719 111.226562 324.042969 C 110.070312 323.195312 108.734375 322.769531 107.214844 322.769531 C 105.695312 322.769531 104.359375 323.195312 103.199219 324.042969 C 102.046875 324.886719 101.144531 326.117188 100.492188 327.734375 C 99.847656 329.351562 99.523438 331.308594 99.523438 333.597656 C 99.523438 335.886719 99.847656 337.84375 100.492188 339.460938 C 101.144531 341.078125 102.046875 342.308594 103.199219 343.160156 C 104.359375 344.003906 105.695312 344.425781 107.214844 344.425781 Z M 107.214844 344.425781 "/>
<path style=" stroke:none;fill-rule:nonzero;fill:rgb(0%,0%,0%);fill-opacity:1;" d="M 94.339844 263.070312 L 89.113281 263.070312 L 89.113281 269.941406 L 86.421875 269.941406 L 86.421875 263.070312 L 71.675781 263.070312 L 71.675781 261.132812 L 85.523438 243.808594 L 88.511719 243.808594 L 75.148438 260.683594 L 86.5 260.683594 L 86.5 254.632812 L 89.113281 254.632812 L 89.113281 260.683594 L 94.339844 260.683594 Z M 94.339844 263.070312 "/>
<path style=" stroke:none;fill-rule:nonzero;fill:rgb(0%,0%,0%);fill-opacity:1;" d="M 107.214844 270.164062 C 105.199219 270.164062 103.402344 269.628906 101.820312 268.558594 C 100.238281 267.488281 99.007812 265.953125 98.125 263.949219 C 97.242188 261.945312 96.800781 259.589844 96.800781 256.875 C 96.800781 254.160156 97.242188 251.800781 98.125 249.796875 C 99.007812 247.796875 100.238281 246.257812 101.820312 245.191406 C 103.402344 244.121094 105.199219 243.585938 107.214844 243.585938 C 109.234375 243.585938 111.03125 244.121094 112.609375 245.191406 C 114.195312 246.257812 115.433594 247.796875 116.328125 249.796875 C 117.222656 251.800781 117.667969 254.160156 117.667969 256.875 C 117.667969 259.589844 117.222656 261.945312 116.328125 263.949219 C 115.433594 265.953125 114.195312 267.488281 112.609375 268.558594 C 111.03125 269.628906 109.234375 270.164062 107.214844 270.164062 Z M 107.214844 267.699219 C 108.734375 267.699219 110.074219 267.277344 111.226562 266.433594 C 112.386719 265.585938 113.289062 264.355469 113.933594 262.738281 C 114.585938 261.117188 114.910156 259.164062 114.910156 256.875 C 114.910156 254.582031 114.585938 252.628906 113.933594 251.011719 C 113.289062 249.394531 112.386719 248.164062 111.226562 247.320312 C 110.074219 246.472656 108.734375 246.046875 107.214844 246.046875 C 105.699219 246.046875 104.359375 246.472656 103.203125 247.320312 C 102.046875 248.164062 101.144531 249.394531 100.496094 251.011719 C 99.847656 252.628906 99.527344 254.582031 99.527344 256.875 C 99.527344 259.164062 99.847656 261.117188 100.496094 262.738281 C 101.144531 264.355469 102.046875 265.585938 103.203125 266.433594 C 104.359375 267.277344 105.699219 267.699219 107.214844 267.699219 Z M 107.214844 267.699219 "/>
<path style=" stroke:none;fill-rule:nonzero;fill:rgb(0%,0%,0%);fill-opacity:1;" d="M 84.886719 177.574219 C 86.601562 177.574219 88.125 177.898438 89.457031 178.546875 C 90.789062 179.191406 91.828125 180.105469 92.578125 181.289062 C 93.324219 182.472656 93.695312 183.84375 93.695312 185.414062 C 93.695312 187.007812 93.308594 188.414062 92.535156 189.636719 C 91.765625 190.851562 90.703125 191.792969 89.34375 192.453125 C 87.992188 193.109375 86.46875 193.4375 84.777344 193.4375 C 81.316406 193.4375 78.664062 192.300781 76.820312 190.027344 C 74.980469 187.746094 74.0625 184.53125 74.0625 180.371094 C 74.0625 177.464844 74.558594 175.003906 75.554688 172.988281 C 76.550781 170.96875 77.941406 169.445312 79.730469 168.414062 C 81.523438 167.378906 83.617188 166.863281 86.007812 166.863281 C 88.59375 166.863281 90.660156 167.335938 92.203125 168.28125 L 91.125 170.445312 C 89.878906 169.625 88.1875 169.214844 86.042969 169.214844 C 83.15625 169.214844 80.890625 170.128906 79.246094 171.960938 C 77.605469 173.789062 76.785156 176.445312 76.785156 179.929688 C 76.785156 180.550781 76.824219 181.257812 76.898438 182.050781 C 77.546875 180.636719 78.578125 179.535156 79.996094 178.75 C 81.414062 177.964844 83.046875 177.574219 84.886719 177.574219 Z M 84.660156 191.164062 C 86.554688 191.164062 88.09375 190.648438 89.273438 189.617188 C 90.457031 188.585938 91.046875 187.207031 91.046875 185.488281 C 91.046875 183.773438 90.457031 182.40625 89.273438 181.386719 C 88.09375 180.363281 86.492188 179.851562 84.472656 179.851562 C 83.15625 179.851562 81.992188 180.101562 80.984375 180.601562 C 79.980469 181.097656 79.1875 181.78125 78.613281 182.652344 C 78.039062 183.523438 77.753906 184.496094 77.753906 185.5625 C 77.753906 186.558594 78.023438 187.480469 78.558594 188.328125 C 79.097656 189.171875 79.886719 189.859375 80.925781 190.382812 C 81.972656 190.902344 83.21875 191.164062 84.660156 191.164062 Z M 84.660156 191.164062 "/>
<path style=" stroke:none;fill-rule:nonzero;fill:rgb(0%,0%,0%);fill-opacity:1;" d="M 107.210938 193.4375 C 105.195312 193.4375 103.398438 192.90625 101.8125 191.835938 C 100.234375 190.765625 99.003906 189.230469 98.121094 187.226562 C 97.238281 185.222656 96.796875 182.867188 96.796875 180.152344 C 96.796875 177.4375 97.238281 175.078125 98.121094 173.074219 C 99.003906 171.074219 100.234375 169.535156 101.8125 168.46875 C 103.398438 167.398438 105.195312 166.863281 107.210938 166.863281 C 109.226562 166.863281 111.027344 167.398438 112.605469 168.46875 C 114.1875 169.535156 115.425781 171.074219 116.320312 173.074219 C 117.214844 175.078125 117.664062 177.4375 117.664062 180.152344 C 117.664062 182.867188 117.214844 185.222656 116.320312 187.226562 C 115.425781 189.230469 114.1875 190.765625 112.605469 191.835938 C 111.027344 192.90625 109.226562 193.4375 107.210938 193.4375 Z M 107.210938 190.976562 C 108.730469 190.976562 110.070312 190.554688 111.222656 189.710938 C 112.382812 188.863281 113.285156 187.632812 113.929688 186.011719 C 114.578125 184.394531 114.90625 182.441406 114.90625 180.152344 C 114.90625 177.859375 114.578125 175.90625 113.929688 174.289062 C 113.285156 172.671875 112.382812 171.441406 111.222656 170.597656 C 110.070312 169.75 108.730469 169.324219 107.210938 169.324219 C 105.695312 169.324219 104.355469 169.75 103.195312 170.597656 C 102.042969 171.441406 101.140625 172.671875 100.488281 174.289062 C 99.84375 175.90625 99.523438 177.859375 99.523438 180.152344 C 99.523438 182.441406 99.84375 184.394531 100.488281 186.011719 C 101.140625 187.632812 102.042969 188.863281 103.195312 189.710938 C 104.355469 190.554688 105.695312 190.976562 107.210938 190.976562 Z M 107.210938 190.976562 "/>
<path style=" stroke:none;fill-rule:nonzero;fill:rgb(0%,0%,0%);fill-opacity:1;" d="M 87.949219 102.792969 C 89.597656 103.339844 90.859375 104.164062 91.742188 105.257812 C 92.625 106.351562 93.066406 107.671875 93.066406 109.214844 C 93.066406 110.730469 92.65625 112.058594 91.835938 113.191406 C 91.015625 114.324219 89.839844 115.195312 88.308594 115.804688 C 86.773438 116.414062 84.976562 116.714844 82.910156 116.714844 C 79.777344 116.714844 77.3125 116.046875 75.519531 114.703125 C 73.726562 113.359375 72.832031 111.527344 72.832031 109.214844 C 72.832031 107.648438 73.261719 106.324219 74.121094 105.242188 C 74.980469 104.15625 76.230469 103.339844 77.871094 102.792969 C 76.527344 102.269531 75.507812 101.519531 74.808594 100.535156 C 74.113281 99.550781 73.765625 98.386719 73.765625 97.046875 C 73.765625 94.929688 74.589844 93.25 76.242188 92.007812 C 77.898438 90.761719 80.121094 90.140625 82.910156 90.140625 C 84.753906 90.140625 86.367188 90.417969 87.746094 90.980469 C 89.128906 91.539062 90.203125 92.34375 90.972656 93.386719 C 91.746094 94.429688 92.132812 95.648438 92.132812 97.046875 C 92.132812 98.386719 91.773438 99.550781 91.046875 100.535156 C 90.328125 101.519531 89.296875 102.269531 87.949219 102.792969 Z M 76.453125 97.117188 C 76.453125 98.5625 77.023438 99.710938 78.167969 100.558594 C 79.316406 101.402344 80.894531 101.824219 82.910156 101.824219 C 84.929688 101.824219 86.515625 101.402344 87.671875 100.558594 C 88.828125 99.710938 89.410156 98.578125 89.410156 97.15625 C 89.410156 95.6875 88.816406 94.53125 87.636719 93.6875 C 86.453125 92.839844 84.878906 92.414062 82.910156 92.414062 C 80.917969 92.414062 79.34375 92.839844 78.1875 93.6875 C 77.03125 94.53125 76.453125 95.671875 76.453125 97.117188 Z M 82.910156 114.441406 C 85.226562 114.441406 87.035156 113.96875 88.339844 113.023438 C 89.648438 112.078125 90.300781 110.796875 90.300781 109.179688 C 90.300781 107.5625 89.648438 106.285156 88.339844 105.351562 C 87.035156 104.417969 85.226562 103.953125 82.910156 103.953125 C 80.621094 103.953125 78.820312 104.417969 77.515625 105.351562 C 76.207031 106.285156 75.554688 107.5625 75.554688 109.179688 C 75.554688 110.820312 76.203125 112.109375 77.496094 113.042969 C 78.792969 113.972656 80.597656 114.441406 82.910156 114.441406 Z M 82.910156 114.441406 "/>
<path style=" stroke:none;fill-rule:nonzero;fill:rgb(0%,0%,0%);fill-opacity:1;" d="M 107.214844 116.714844 C 105.199219 116.714844 103.402344 116.179688 101.816406 115.113281 C 100.238281 114.042969 99.007812 112.507812 98.125 110.503906 C 97.242188 108.5 96.800781 106.140625 96.800781 103.429688 C 96.800781 100.714844 97.242188 98.355469 98.125 96.351562 C 99.007812 94.347656 100.238281 92.8125 101.816406 91.742188 C 103.402344 90.675781 105.199219 90.140625 107.214844 90.140625 C 109.230469 90.140625 111.03125 90.675781 112.609375 91.742188 C 114.191406 92.8125 115.429688 94.347656 116.324219 96.351562 C 117.21875 98.355469 117.667969 100.714844 117.667969 103.429688 C 117.667969 106.140625 117.21875 108.5 116.324219 110.503906 C 115.429688 112.507812 114.191406 114.042969 112.609375 115.113281 C 111.03125 116.179688 109.230469 116.714844 107.214844 116.714844 Z M 107.214844 114.253906 C 108.734375 114.253906 110.070312 113.832031 111.226562 112.988281 C 112.386719 112.140625 113.289062 110.90625 113.933594 109.289062 C 114.582031 107.671875 114.90625 105.71875 114.90625 103.429688 C 114.90625 101.136719 114.582031 99.183594 113.933594 97.566406 C 113.289062 95.949219 112.386719 94.714844 111.226562 93.871094 C 110.070312 93.023438 108.734375 92.601562 107.214844 92.601562 C 105.695312 92.601562 104.359375 93.023438 103.199219 93.871094 C 102.046875 94.714844 101.144531 95.949219 100.492188 97.566406 C 99.847656 99.183594 99.523438 101.136719 99.523438 103.429688 C 99.523438 105.71875 99.847656 107.671875 100.492188 109.289062 C 101.144531 110.90625 102.046875 112.140625 103.199219 112.988281 C 104.359375 113.832031 105.695312 114.253906 107.214844 114.253906 Z M 107.214844 114.253906 "/>
<path style=" stroke:none;fill-rule:nonzero;fill:rgb(0%,0%,0%);fill-opacity:1;" d="M 65.847656 13.636719 L 65.847656 39.769531 L 63.164062 39.769531 L 63.164062 16.03125 L 57.003906 16.03125 L 57.003906 13.636719 Z M 65.847656 13.636719 "/>
<path style=" stroke:none;fill-rule:nonzero;fill:rgb(0%,0%,0%);fill-opacity:1;" d="M 82.5 39.992188 C 80.484375 39.992188 78.6875 39.457031 77.101562 38.390625 C 75.523438 37.320312 74.292969 35.78125 73.410156 33.78125 C 72.527344 31.777344 72.085938 29.417969 72.085938 26.703125 C 72.085938 23.988281 72.527344 21.632812 73.410156 19.628906 C 74.292969 17.625 75.523438 16.089844 77.101562 15.019531 C 78.6875 13.949219 80.484375 13.417969 82.5 13.417969 C 84.515625 13.417969 86.316406 13.949219 87.894531 15.019531 C 89.476562 16.089844 90.714844 17.625 91.609375 19.628906 C 92.503906 21.632812 92.953125 23.988281 92.953125 26.703125 C 92.953125 29.417969 92.503906 31.777344 91.609375 33.78125 C 90.714844 35.78125 89.476562 37.320312 87.894531 38.390625 C 86.316406 39.457031 84.515625 39.992188 82.5 39.992188 Z M 82.5 37.53125 C 84.019531 37.53125 85.355469 37.109375 86.511719 36.265625 C 87.671875 35.417969 88.574219 34.183594 89.21875 32.566406 C 89.867188 30.949219 90.191406 28.996094 90.191406 26.703125 C 90.191406 24.414062 89.867188 22.460938 89.21875 20.84375 C 88.574219 19.222656 87.671875 17.992188 86.511719 17.148438 C 85.355469 16.300781 84.019531 15.878906 82.5 15.878906 C 80.980469 15.878906 79.644531 16.300781 78.484375 17.148438 C 77.332031 17.992188 76.429688 19.222656 75.777344 20.84375 C 75.132812 22.460938 74.8125 24.414062 74.8125 26.703125 C 74.8125 28.996094 75.132812 30.949219 75.777344 32.566406 C 76.429688 34.183594 77.332031 35.417969 78.484375 36.265625 C 79.644531 37.109375 80.980469 37.53125 82.5 37.53125 Z M 82.5 37.53125 "/>
<path style=" stroke:none;fill-rule:nonzero;fill:rgb(0%,0%,0%);fill-opacity:1;" d="M 107.214844 39.992188 C 105.199219 39.992188 103.402344 39.457031 101.816406 38.390625 C 100.238281 37.320312 99.007812 35.78125 98.125 33.78125 C 97.242188 31.777344 96.800781 29.417969 96.800781 26.703125 C 96.800781 23.988281 97.242188 21.632812 98.125 19.628906 C 99.007812 17.625 100.238281 16.089844 101.816406 15.019531 C 103.402344 13.949219 105.199219 13.417969 107.214844 13.417969 C 109.230469 13.417969 111.03125 13.949219 112.609375 15.019531 C 114.191406 16.089844 115.429688 17.625 116.324219 19.628906 C 117.21875 21.632812 117.667969 23.988281 117.667969 26.703125 C 117.667969 29.417969 117.21875 31.777344 116.324219 33.78125 C 115.429688 35.78125 114.191406 37.320312 112.609375 38.390625 C 111.03125 39.457031 109.230469 39.992188 107.214844 39.992188 Z M 107.214844 37.53125 C 108.734375 37.53125 110.070312 37.109375 111.226562 36.265625 C 112.386719 35.417969 113.289062 34.183594 113.933594 32.566406 C 114.582031 30.949219 114.90625 28.996094 114.90625 26.703125 C 114.90625 24.414062 114.582031 22.460938 113.933594 20.84375 C 113.289062 19.222656 112.386719 17.992188 111.226562 17.148438 C 110.070312 16.300781 108.734375 15.878906 107.214844 15.878906 C 105.695312 15.878906 104.359375 16.300781 103.199219 17.148438 C 102.046875 17.992188 101.144531 19.222656 100.492188 20.84375 C 99.847656 22.460938 99.523438 24.414062 99.523438 26.703125 C 99.523438 28.996094 99.847656 30.949219 100.492188 32.566406 C 101.144531 34.183594 102.046875 35.417969 103.199219 36.265625 C 104.359375 37.109375 105.695312 37.53125 107.214844 37.53125 Z M 107.214844 37.53125 "/>
<path style=" stroke:none;fill-rule:nonzero;fill:rgb(0%,0%,0%);fill-opacity:1;" d="M 21.582031 327.15625 L 29.421875 328.125 L 29.421875 322.820312 L 31.476562 322.820312 L 31.476562 328.386719 L 38.566406 329.242188 L 38.566406 331.261719 L 31.476562 330.40625 L 31.476562 338.058594 L 38.566406 338.949219 L 38.566406 340.96875 L 31.476562 340.113281 L 31.476562 345.40625 L 29.421875 345.40625 L 29.421875 339.847656 L 21.582031 338.875 L 21.582031 344.21875 L 19.527344 344.21875 L 19.527344 338.617188 L 12.433594 337.753906 L 12.433594 335.703125 L 19.527344 336.601562 L 19.527344 328.910156 L 12.433594 328.046875 L 12.433594 326.035156 L 19.527344 326.894531 L 19.527344 321.632812 L 21.582031 321.632812 Z M 21.582031 329.167969 L 21.582031 336.820312 L 29.421875 337.832031 L 29.421875 330.140625 Z M 21.582031 329.167969 "/>
<path style=" stroke:none;fill-rule:nonzero;fill:rgb(0%,0%,0%);fill-opacity:1;" d="M 18.933594 288.851562 L 36.175781 288.851562 C 39.511719 288.851562 41.984375 289.667969 43.589844 291.296875 C 45.195312 292.925781 46 295.382812 46 298.671875 C 46 300.484375 45.730469 302.210938 45.195312 303.839844 C 44.660156 305.46875 43.917969 306.792969 42.972656 307.816406 L 40.960938 306.46875 C 41.804688 305.523438 42.460938 304.375 42.933594 303.023438 C 43.40625 301.664062 43.644531 300.238281 43.644531 298.746094 C 43.644531 296.257812 43.0625 294.425781 41.90625 293.257812 C 40.75 292.085938 38.953125 291.5 36.515625 291.5 L 34.011719 291.5 C 35.257812 292.320312 36.203125 293.398438 36.851562 294.734375 C 37.5 296.0625 37.820312 297.535156 37.820312 299.15625 C 37.820312 300.996094 37.417969 302.671875 36.609375 304.175781 C 35.800781 305.683594 34.667969 306.863281 33.214844 307.722656 C 31.753906 308.582031 30.105469 309.011719 28.265625 309.011719 C 26.421875 309.011719 24.78125 308.582031 23.335938 307.722656 C 21.894531 306.863281 20.773438 305.6875 19.976562 304.195312 C 19.179688 302.699219 18.78125 301.019531 18.78125 299.15625 C 18.78125 297.484375 19.117188 295.980469 19.789062 294.640625 C 20.464844 293.292969 21.433594 292.210938 22.703125 291.390625 L 18.933594 291.390625 Z M 35.472656 298.890625 C 35.472656 297.472656 35.164062 296.191406 34.554688 295.046875 C 33.945312 293.90625 33.09375 293.015625 32 292.382812 C 30.902344 291.742188 29.660156 291.425781 28.265625 291.425781 C 26.871094 291.425781 25.632812 291.742188 24.550781 292.382812 C 23.464844 293.015625 22.621094 293.898438 22.011719 295.03125 C 21.402344 296.160156 21.097656 297.449219 21.097656 298.890625 C 21.097656 300.3125 21.398438 301.585938 21.996094 302.71875 C 22.589844 303.851562 23.4375 304.734375 24.535156 305.371094 C 25.625 306.007812 26.871094 306.324219 28.265625 306.324219 C 29.660156 306.324219 30.902344 306.007812 32 305.371094 C 33.09375 304.734375 33.945312 303.851562 34.554688 302.71875 C 35.164062 301.585938 35.472656 300.3125 35.472656 298.890625 Z M 35.472656 298.890625 "/>
<path style=" stroke:none;fill-rule:nonzero;fill:rgb(0%,0%,0%);fill-opacity:1;" d="M 38.753906 273.390625 C 38.753906 275.285156 38.324219 276.992188 37.464844 278.515625 C 36.605469 280.03125 35.417969 281.222656 33.902344 282.09375 C 32.386719 282.964844 30.667969 283.402344 28.75 283.402344 C 26.832031 283.402344 25.117188 282.964844 23.601562 282.09375 C 22.078125 281.222656 20.898438 280.03125 20.054688 278.515625 C 19.207031 276.992188 18.78125 275.285156 18.78125 273.390625 C 18.78125 271.503906 19.207031 269.796875 20.054688 268.28125 C 20.898438 266.761719 22.078125 265.574219 23.601562 264.71875 C 25.117188 263.859375 26.832031 263.429688 28.75 263.429688 C 30.667969 263.429688 32.386719 263.859375 33.902344 264.71875 C 35.417969 265.574219 36.605469 266.761719 37.464844 268.28125 C 38.324219 269.796875 38.753906 271.503906 38.753906 273.390625 Z M 36.402344 273.390625 C 36.402344 272 36.085938 270.75 35.453125 269.640625 C 34.816406 268.53125 33.914062 267.667969 32.746094 267.046875 C 31.574219 266.421875 30.246094 266.113281 28.75 266.113281 C 27.257812 266.113281 25.925781 266.421875 24.753906 267.046875 C 23.585938 267.667969 22.683594 268.53125 22.046875 269.640625 C 21.414062 270.75 21.097656 272 21.097656 273.390625 C 21.097656 274.789062 21.414062 276.039062 22.046875 277.148438 C 22.683594 278.253906 23.585938 279.125 24.753906 279.761719 C 25.925781 280.394531 27.257812 280.710938 28.75 280.710938 C 30.246094 280.710938 31.574219 280.394531 32.746094 279.761719 C 33.914062 279.125 34.816406 278.253906 35.453125 277.148438 C 36.085938 276.039062 36.402344 274.789062 36.402344 273.390625 Z M 36.402344 273.390625 "/>
<path style=" stroke:none;fill-rule:nonzero;fill:rgb(0%,0%,0%);fill-opacity:1;" d="M 38.753906 249.984375 C 38.753906 251.878906 38.324219 253.585938 37.464844 255.105469 C 36.605469 256.621094 35.417969 257.816406 33.902344 258.6875 C 32.386719 259.558594 30.667969 259.992188 28.75 259.992188 C 26.832031 259.992188 25.117188 259.558594 23.601562 258.6875 C 22.078125 257.816406 20.898438 256.621094 20.054688 255.105469 C 19.207031 253.585938 18.78125 251.878906 18.78125 249.984375 C 18.78125 248.09375 19.207031 246.390625 20.054688 244.875 C 20.898438 243.351562 22.078125 242.164062 23.601562 241.308594 C 25.117188 240.449219 26.832031 240.019531 28.75 240.019531 C 30.667969 240.019531 32.386719 240.449219 33.902344 241.308594 C 35.417969 242.164062 36.605469 243.351562 37.464844 244.875 C 38.324219 246.390625 38.753906 248.09375 38.753906 249.984375 Z M 36.402344 249.984375 C 36.402344 248.589844 36.085938 247.339844 35.453125 246.234375 C 34.816406 245.125 33.914062 244.257812 32.746094 243.636719 C 31.574219 243.015625 30.246094 242.703125 28.75 242.703125 C 27.257812 242.703125 25.925781 243.015625 24.753906 243.636719 C 23.585938 244.257812 22.683594 245.125 22.046875 246.234375 C 21.414062 247.339844 21.097656 248.589844 21.097656 249.984375 C 21.097656 251.378906 21.414062 252.632812 22.046875 253.742188 C 22.683594 254.84375 23.585938 255.714844 24.753906 256.355469 C 25.925781 256.988281 27.257812 257.304688 28.75 257.304688 C 30.246094 257.304688 31.574219 256.988281 32.746094 256.355469 C 33.914062 255.714844 34.816406 254.84375 35.453125 253.742188 C 36.085938 252.632812 36.402344 251.378906 36.402344 249.984375 Z M 36.402344 249.984375 "/>
<path style=" stroke:none;fill-rule:nonzero;fill:rgb(0%,0%,0%);fill-opacity:1;" d="M 10.867188 216.683594 L 38.566406 216.683594 L 38.566406 219.226562 L 34.683594 219.226562 C 36.003906 220.019531 37.015625 221.070312 37.710938 222.375 C 38.40625 223.683594 38.753906 225.160156 38.753906 226.804688 C 38.753906 228.644531 38.332031 230.308594 37.488281 231.800781 C 36.640625 233.296875 35.460938 234.464844 33.941406 235.3125 C 32.421875 236.164062 30.691406 236.585938 28.75 236.585938 C 26.808594 236.585938 25.082031 236.164062 23.566406 235.3125 C 22.042969 234.464844 20.867188 233.296875 20.035156 231.800781 C 19.199219 230.308594 18.78125 228.644531 18.78125 226.804688 C 18.78125 225.210938 19.113281 223.773438 19.773438 222.492188 C 20.429688 221.210938 21.394531 220.15625 22.667969 219.335938 L 10.867188 219.335938 Z M 36.402344 226.574219 C 36.402344 225.207031 36.085938 223.96875 35.453125 222.867188 C 34.816406 221.757812 33.914062 220.886719 32.746094 220.253906 C 31.574219 219.613281 30.246094 219.296875 28.75 219.296875 C 27.257812 219.296875 25.925781 219.613281 24.753906 220.253906 C 23.585938 220.886719 22.683594 221.757812 22.046875 222.867188 C 21.414062 223.96875 21.097656 225.207031 21.097656 226.574219 C 21.097656 227.972656 21.414062 229.222656 22.046875 230.332031 C 22.683594 231.4375 23.585938 232.308594 24.753906 232.945312 C 25.925781 233.578125 27.257812 233.898438 28.75 233.898438 C 30.246094 233.898438 31.574219 233.578125 32.746094 232.945312 C 33.914062 232.308594 34.816406 231.4375 35.453125 230.332031 C 36.085938 229.222656 36.402344 227.972656 36.402344 226.574219 Z M 36.402344 226.574219 "/>
<path style=" stroke:none;fill-rule:nonzero;fill:rgb(0%,0%,0%);fill-opacity:1;" d="M 18.933594 181.332031 L 36.175781 181.332031 C 39.511719 181.332031 41.984375 182.148438 43.589844 183.777344 C 45.195312 185.40625 46 187.863281 46 191.148438 C 46 192.964844 45.730469 194.6875 45.195312 196.320312 C 44.660156 197.949219 43.917969 199.273438 42.972656 200.296875 L 40.960938 198.949219 C 41.804688 198.003906 42.460938 196.855469 42.933594 195.5 C 43.40625 194.144531 43.644531 192.71875 43.644531 191.226562 C 43.644531 188.738281 43.0625 186.90625 41.90625 185.738281 C 40.75 184.566406 38.953125 183.980469 36.515625 183.980469 L 34.011719 183.980469 C 35.257812 184.800781 36.203125 185.878906 36.851562 187.210938 C 37.5 188.542969 37.820312 190.015625 37.820312 191.632812 C 37.820312 193.476562 37.417969 195.152344 36.609375 196.65625 C 35.800781 198.160156 34.667969 199.34375 33.214844 200.203125 C 31.753906 201.0625 30.105469 201.492188 28.265625 201.492188 C 26.421875 201.492188 24.78125 201.0625 23.335938 200.203125 C 21.894531 199.34375 20.773438 198.167969 19.976562 196.675781 C 19.179688 195.179688 18.78125 193.5 18.78125 191.632812 C 18.78125 189.964844 19.117188 188.460938 19.789062 187.121094 C 20.464844 185.773438 21.433594 184.691406 22.703125 183.871094 L 18.933594 183.871094 Z M 35.472656 191.371094 C 35.472656 189.953125 35.164062 188.671875 34.554688 187.527344 C 33.945312 186.382812 33.09375 185.496094 32 184.863281 C 30.902344 184.222656 29.660156 183.90625 28.265625 183.90625 C 26.871094 183.90625 25.632812 184.222656 24.550781 184.863281 C 23.464844 185.496094 22.621094 186.378906 22.011719 187.511719 C 21.402344 188.640625 21.097656 189.929688 21.097656 191.371094 C 21.097656 192.792969 21.398438 194.066406 21.996094 195.199219 C 22.589844 196.332031 23.4375 197.214844 24.535156 197.851562 C 25.625 198.488281 26.871094 198.804688 28.265625 198.804688 C 29.660156 198.804688 30.902344 198.488281 32 197.851562 C 33.09375 197.214844 33.945312 196.332031 34.554688 195.199219 C 35.164062 194.066406 35.472656 192.792969 35.472656 191.371094 Z M 35.472656 191.371094 "/>
<path style=" stroke:none;fill-rule:nonzero;fill:rgb(0%,0%,0%);fill-opacity:1;" d="M 29.574219 156.800781 L 29.574219 173.226562 C 31.609375 173.082031 33.261719 172.296875 34.519531 170.878906 C 35.777344 169.457031 36.402344 167.664062 36.402344 165.5 C 36.402344 164.28125 36.1875 163.164062 35.75 162.144531 C 35.316406 161.121094 34.671875 160.238281 33.824219 159.492188 L 35.546875 157.996094 C 36.589844 158.867188 37.382812 159.957031 37.933594 161.265625 C 38.480469 162.570312 38.753906 164.007812 38.753906 165.574219 C 38.753906 167.59375 38.324219 169.378906 37.464844 170.933594 C 36.605469 172.492188 35.417969 173.703125 33.902344 174.574219 C 32.386719 175.445312 30.667969 175.882812 28.75 175.882812 C 26.832031 175.882812 25.117188 175.464844 23.601562 174.632812 C 22.078125 173.796875 20.898438 172.652344 20.054688 171.199219 C 19.207031 169.738281 18.78125 168.101562 18.78125 166.285156 C 18.78125 164.46875 19.207031 162.839844 20.054688 161.398438 C 20.898438 159.953125 22.074219 158.816406 23.582031 157.996094 C 25.085938 157.175781 26.808594 156.765625 28.75 156.765625 Z M 21.058594 166.285156 C 21.058594 168.175781 21.660156 169.761719 22.871094 171.046875 C 24.078125 172.324219 25.648438 173.054688 27.589844 173.226562 L 27.589844 159.304688 C 25.648438 159.480469 24.078125 160.207031 22.871094 161.492188 C 21.660156 162.769531 21.058594 164.367188 21.058594 166.285156 Z M 21.058594 166.285156 "/>
<path style=" stroke:none;fill-rule:nonzero;fill:rgb(0%,0%,0%);fill-opacity:1;" d="M 18.78125 141.34375 C 18.78125 138.882812 19.496094 136.925781 20.929688 135.472656 C 22.359375 134.011719 24.445312 133.285156 27.183594 133.285156 L 38.566406 133.285156 L 38.566406 135.933594 L 27.445312 135.933594 C 25.402344 135.933594 23.847656 136.441406 22.777344 137.464844 C 21.707031 138.484375 21.171875 139.9375 21.171875 141.828125 C 21.171875 143.945312 21.800781 145.617188 23.058594 146.851562 C 24.3125 148.085938 26.050781 148.699219 28.265625 148.699219 L 38.566406 148.699219 L 38.566406 151.347656 L 18.933594 151.347656 L 18.933594 148.8125 L 22.550781 148.8125 C 21.355469 148.09375 20.429688 147.089844 19.773438 145.808594 C 19.113281 144.523438 18.78125 143.035156 18.78125 141.34375 Z M 18.78125 141.34375 "/>
<path style=" stroke:none;fill-rule:nonzero;fill:rgb(0%,0%,0%);fill-opacity:1;" d="M 29.574219 108.976562 L 29.574219 125.402344 C 31.609375 125.257812 33.261719 124.472656 34.519531 123.054688 C 35.777344 121.632812 36.402344 119.839844 36.402344 117.675781 C 36.402344 116.457031 36.1875 115.339844 35.75 114.320312 C 35.316406 113.296875 34.671875 112.414062 33.824219 111.667969 L 35.546875 110.171875 C 36.589844 111.042969 37.382812 112.132812 37.933594 113.441406 C 38.480469 114.746094 38.753906 116.183594 38.753906 117.75 C 38.753906 119.769531 38.324219 121.554688 37.464844 123.113281 C 36.605469 124.667969 35.417969 125.878906 33.902344 126.75 C 32.386719 127.621094 30.667969 128.058594 28.75 128.058594 C 26.832031 128.058594 25.117188 127.640625 23.601562 126.808594 C 22.078125 125.972656 20.898438 124.828125 20.054688 123.375 C 19.207031 121.914062 18.78125 120.277344 18.78125 118.460938 C 18.78125 116.644531 19.207031 115.015625 20.054688 113.574219 C 20.898438 112.128906 22.074219 110.992188 23.582031 110.171875 C 25.085938 109.351562 26.808594 108.941406 28.75 108.941406 Z M 21.058594 118.460938 C 21.058594 120.351562 21.660156 121.9375 22.871094 123.222656 C 24.078125 124.5 25.648438 125.230469 27.589844 125.402344 L 27.589844 111.480469 C 25.648438 111.65625 24.078125 112.382812 22.871094 113.667969 C 21.660156 114.945312 21.058594 116.546875 21.058594 118.460938 Z M 21.058594 118.460938 "/>
<path style=" stroke:none;fill-rule:nonzero;fill:rgb(0%,0%,0%);fill-opacity:1;" d="M 38.753906 98.265625 C 38.753906 99.859375 38.527344 101.382812 38.066406 102.835938 C 37.605469 104.292969 37.023438 105.429688 36.328125 106.253906 L 34.238281 105.058594 C 34.886719 104.238281 35.414062 103.207031 35.828125 101.960938 C 36.234375 100.71875 36.4375 99.421875 36.4375 98.078125 C 36.4375 96.285156 36.160156 94.960938 35.597656 94.105469 C 35.039062 93.246094 34.25 92.816406 33.230469 92.816406 C 32.507812 92.816406 31.941406 93.050781 31.535156 93.527344 C 31.121094 93.996094 30.808594 94.59375 30.601562 95.316406 C 30.386719 96.039062 30.179688 96.992188 29.980469 98.1875 C 29.683594 99.78125 29.375 101.066406 29.066406 102.039062 C 28.753906 103.007812 28.226562 103.832031 27.480469 104.515625 C 26.734375 105.203125 25.699219 105.542969 24.382812 105.542969 C 22.742188 105.542969 21.398438 104.859375 20.351562 103.492188 C 19.304688 102.121094 18.78125 100.21875 18.78125 97.78125 C 18.78125 96.507812 18.949219 95.238281 19.289062 93.96875 C 19.625 92.703125 20.066406 91.65625 20.613281 90.832031 L 22.738281 91.992188 C 21.617188 93.609375 21.058594 95.539062 21.058594 97.78125 C 21.058594 99.472656 21.355469 100.746094 21.953125 101.605469 C 22.554688 102.464844 23.335938 102.894531 24.304688 102.894531 C 25.050781 102.894531 25.652344 102.652344 26.101562 102.167969 C 26.550781 101.679688 26.878906 101.078125 27.089844 100.359375 C 27.296875 99.632812 27.515625 98.636719 27.742188 97.367188 C 28.042969 95.796875 28.339844 94.542969 28.640625 93.597656 C 28.9375 92.652344 29.445312 91.84375 30.167969 91.171875 C 30.890625 90.496094 31.886719 90.160156 33.15625 90.160156 C 34.875 90.160156 36.238281 90.875 37.246094 92.308594 C 38.25 93.738281 38.753906 95.722656 38.753906 98.265625 Z M 38.753906 98.265625 "/>
<g clip-path="url(#clip2)" clip-rule="nonzero">
<path style="fill:none;stroke-width:1.5;stroke-linecap:square;stroke-linejoin:round;stroke:rgb(69.803923%,13.333334%,13.333334%);stroke-opacity:1;stroke-miterlimit:4;" d="M 51.839355 153.575684 L 66.183105 153.392578 L 80.525391 153.270996 L 94.867676 153.133301 L 109.209961 152.983887 L 123.552246 152.796387 L 137.894531 152.611816 L 152.236816 152.428711 L 166.579102 152.267578 L 180.921387 152.039063 L 195.263672 151.817871 L 209.605957 151.539551 L 223.948242 151.248047 L 238.290527 151.012207 L 252.634277 150.587402 L 266.976562 150.083496 L 281.318848 149.62793 L 295.661133 149.131348 L 310.003418 148.570313 L 324.345703 147.965332 L 338.687988 147.376465 L 353.030273 146.711426 L 367.372559 146.20459 L 381.714844 145.612793 L 396.057129 144.975586 L 410.399414 144.360352 " transform="matrix(2.666667,0,0,2.666667,0,0.000000000000056843)"/>
</g>
<path style="fill:none;stroke-width:0.8;stroke-linecap:square;stroke-linejoin:miter;stroke:rgb(0%,0%,0%);stroke-opacity:1;stroke-miterlimit:4;" d="M 51.839355 153.575684 L 410.399414 153.575684 " transform="matrix(2.666667,0,0,2.666667,0,0.000000000000056843)"/>
<path style=" stroke:none;fill-rule:nonzero;fill:rgb(69.803923%,13.333334%,13.333334%);fill-opacity:1;" d="M 959.9375 354.457031 C 958.339844 354.457031 956.816406 354.230469 955.363281 353.769531 C 953.910156 353.308594 952.769531 352.726562 951.945312 352.03125 L 953.140625 349.945312 C 953.960938 350.589844 954.992188 351.117188 956.238281 351.53125 C 957.480469 351.9375 958.777344 352.144531 960.121094 352.144531 C 961.914062 352.144531 963.238281 351.863281 964.09375 351.304688 C 964.953125 350.742188 965.382812 349.953125 965.382812 348.933594 C 965.382812 348.210938 965.148438 347.644531 964.671875 347.238281 C 964.203125 346.824219 963.605469 346.515625 962.882812 346.304688 C 962.164062 346.089844 961.207031 345.882812 960.011719 345.6875 C 958.417969 345.386719 957.132812 345.082031 956.160156 344.769531 C 955.195312 344.457031 954.367188 343.929688 953.683594 343.183594 C 953 342.4375 952.65625 341.402344 952.65625 340.085938 C 952.65625 338.445312 953.339844 337.101562 954.710938 336.054688 C 956.078125 335.007812 957.980469 334.484375 960.421875 334.484375 C 961.691406 334.484375 962.960938 334.65625 964.230469 334.992188 C 965.496094 335.328125 966.542969 335.769531 967.367188 336.316406 L 966.207031 338.441406 C 964.589844 337.320312 962.660156 336.761719 960.421875 336.761719 C 958.726562 336.761719 957.453125 337.058594 956.59375 337.660156 C 955.734375 338.257812 955.304688 339.042969 955.304688 340.011719 C 955.304688 340.757812 955.546875 341.355469 956.035156 341.804688 C 956.519531 342.253906 957.121094 342.582031 957.84375 342.792969 C 958.566406 343.003906 959.5625 343.21875 960.835938 343.445312 C 962.402344 343.746094 963.65625 344.042969 964.601562 344.34375 C 965.546875 344.640625 966.355469 345.148438 967.03125 345.871094 C 967.703125 346.59375 968.039062 347.589844 968.039062 348.859375 C 968.039062 350.578125 967.324219 351.941406 965.890625 352.949219 C 964.460938 353.957031 962.476562 354.457031 959.9375 354.457031 Z M 959.9375 354.457031 "/>
<path style=" stroke:none;fill-rule:nonzero;fill:rgb(69.803923%,13.333334%,13.333334%);fill-opacity:1;" d="M 990.027344 345.277344 L 973.601562 345.277344 C 973.75 347.316406 974.53125 348.964844 975.953125 350.222656 C 977.371094 351.480469 979.164062 352.109375 981.332031 352.109375 C 982.546875 352.109375 983.664062 351.890625 984.683594 351.453125 C 985.707031 351.019531 986.59375 350.378906 987.339844 349.53125 L 988.832031 351.25 C 987.960938 352.292969 986.871094 353.089844 985.566406 353.636719 C 984.257812 354.183594 982.820312 354.457031 981.253906 354.457031 C 979.234375 354.457031 977.449219 354.027344 975.894531 353.167969 C 974.339844 352.308594 973.125 351.121094 972.253906 349.605469 C 971.382812 348.089844 970.945312 346.371094 970.945312 344.453125 C 970.945312 342.539062 971.363281 340.820312 972.195312 339.304688 C 973.03125 337.785156 974.175781 336.601562 975.632812 335.757812 C 977.089844 334.910156 978.726562 334.484375 980.542969 334.484375 C 982.359375 334.484375 983.988281 334.910156 985.429688 335.757812 C 986.878906 336.601562 988.011719 337.777344 988.832031 339.285156 C 989.652344 340.792969 990.0625 342.515625 990.0625 344.453125 Z M 980.542969 336.761719 C 978.652344 336.761719 977.066406 337.367188 975.78125 338.574219 C 974.503906 339.78125 973.777344 341.351562 973.601562 343.292969 L 987.523438 343.292969 C 987.351562 341.351562 986.621094 339.78125 985.335938 338.574219 C 984.058594 337.367188 982.460938 336.761719 980.542969 336.761719 Z M 980.542969 336.761719 "/>
<path style=" stroke:none;fill-rule:nonzero;fill:rgb(69.803923%,13.333334%,13.333334%);fill-opacity:1;" d="M 1007.984375 354.273438 L 1001.75 346.058594 L 995.480469 354.273438 L 992.492188 354.273438 L 1000.257812 344.191406 L 992.867188 334.636719 L 995.851562 334.636719 L 1001.75 342.324219 L 1007.648438 334.636719 L 1010.558594 334.636719 L 1003.167969 344.191406 L 1011.007812 354.273438 Z M 1007.984375 354.273438 "/>
<path style=" stroke:none;fill-rule:nonzero;fill:rgb(69.803923%,13.333334%,13.333334%);fill-opacity:1;" d="M 1033.109375 334.636719 L 1033.109375 354.273438 L 1030.570312 354.273438 L 1030.570312 350.691406 C 1029.875 351.882812 1028.914062 352.8125 1027.695312 353.472656 C 1026.476562 354.128906 1025.082031 354.457031 1023.511719 354.457031 C 1020.949219 354.457031 1018.925781 353.742188 1017.445312 352.3125 C 1015.96875 350.882812 1015.230469 348.785156 1015.230469 346.023438 L 1015.230469 334.636719 L 1017.878906 334.636719 L 1017.878906 345.761719 C 1017.878906 347.828125 1018.386719 349.394531 1019.40625 350.464844 C 1020.429688 351.53125 1021.886719 352.066406 1023.773438 352.066406 C 1025.839844 352.066406 1027.46875 351.4375 1028.664062 350.183594 C 1029.859375 348.925781 1030.460938 347.179688 1030.460938 344.9375 L 1030.460938 334.636719 Z M 1033.109375 334.636719 "/>
<path style=" stroke:none;fill-rule:nonzero;fill:rgb(69.803923%,13.333334%,13.333334%);fill-opacity:1;" d="M 1047.40625 334.484375 C 1049.96875 334.484375 1051.933594 335.128906 1053.304688 336.410156 C 1054.671875 337.691406 1055.359375 339.585938 1055.359375 342.105469 L 1055.359375 354.273438 L 1052.820312 354.273438 L 1052.820312 351.210938 C 1052.226562 352.234375 1051.347656 353.03125 1050.1875 353.601562 C 1049.03125 354.171875 1047.65625 354.457031 1046.066406 354.457031 C 1043.875 354.457031 1042.132812 353.9375 1040.839844 352.890625 C 1039.542969 351.84375 1038.894531 350.464844 1038.894531 348.75 C 1038.894531 347.078125 1039.5 345.734375 1040.703125 344.71875 C 1041.914062 343.695312 1043.835938 343.183594 1046.472656 343.183594 L 1052.710938 343.183594 L 1052.710938 341.988281 C 1052.710938 340.296875 1052.238281 339.007812 1051.292969 338.125 C 1050.347656 337.242188 1048.964844 336.800781 1047.144531 336.800781 C 1045.898438 336.800781 1044.707031 337.007812 1043.5625 337.417969 C 1042.417969 337.828125 1041.433594 338.394531 1040.609375 339.117188 L 1039.421875 337.132812 C 1040.417969 336.289062 1041.609375 335.640625 1043.003906 335.179688 C 1044.394531 334.71875 1045.863281 334.484375 1047.40625 334.484375 Z M 1046.472656 352.371094 C 1047.96875 352.371094 1049.25 352.027344 1050.316406 351.34375 C 1051.390625 350.660156 1052.1875 349.667969 1052.710938 348.375 L 1052.710938 345.160156 L 1046.550781 345.160156 C 1043.1875 345.160156 1041.507812 346.332031 1041.507812 348.671875 C 1041.507812 349.816406 1041.945312 350.71875 1042.816406 351.378906 C 1043.6875 352.039062 1044.90625 352.371094 1046.472656 352.371094 Z M 1046.472656 352.371094 "/>
<path style=" stroke:none;fill-rule:nonzero;fill:rgb(69.803923%,13.333334%,13.333334%);fill-opacity:1;" d="M 1062.566406 326.570312 L 1065.214844 326.570312 L 1065.214844 354.273438 L 1062.566406 354.273438 Z M 1062.566406 326.570312 "/>
<use xlink:href="#surface5" mask="url(#mask0)"/>
</g>
</svg>
