<svg xmlns="http://www.w3.org/2000/svg" xmlns:xlink="http://www.w3.org/1999/xlink" width="900" height="600"><defs><path id="a" d="M12.875-18.406c1.707 0 3.25.39 4.625 1.172 1.375.78 2.453 1.882 3.234 3.297.782 1.406 1.172 3.007 1.172 4.796 0 1.805-.39 3.407-1.172 4.813A8.478 8.478 0 0 1 17.5-1.047C16.125-.254 14.582.141 12.875.141 11.25.14 9.773-.25 8.453-1.031 7.13-1.813 6.11-2.906 5.391-4.313V0H3.703v-25.969h1.75v11.86c.727-1.352 1.742-2.407 3.047-3.157 1.313-.757 2.77-1.14 4.375-1.14Zm-.094 16.968c1.395 0 2.649-.32 3.766-.968a6.948 6.948 0 0 0 2.64-2.735c.645-1.164.97-2.5.97-4 0-1.488-.325-2.816-.97-3.984a6.881 6.881 0 0 0-2.64-2.719c-1.117-.656-2.371-.984-3.766-.984-1.406 0-2.668.328-3.781.984-1.105.649-1.98 1.555-2.625 2.719-.637 1.168-.953 2.496-.953 3.984 0 1.5.316 2.836.953 4C7.02-3.973 7.895-3.062 9-2.406c1.113.648 2.375.969 3.781.969Zm0 0"/><path id="b" d="M19.703-18.266V0h-1.672v-3.922c-.617 1.281-1.515 2.281-2.703 3-1.187.711-2.59 1.063-4.203 1.063-2.375 0-4.242-.66-5.594-1.985C4.176-3.176 3.5-5.094 3.5-7.594v-10.672h1.75v10.532c0 2.054.523 3.617 1.578 4.687 1.05 1.074 2.531 1.61 4.438 1.61 2.05 0 3.675-.641 4.875-1.922 1.207-1.282 1.812-3.008 1.812-5.188v-9.719Zm0 0"/><path id="c" d="M12.781-1.156c-.449.418-1.008.742-1.672.968a6.629 6.629 0 0 1-2.078.329C7.445.14 6.223-.297 5.36-1.172c-.867-.875-1.296-2.094-1.296-3.656v-11.938H.703v-1.5h3.36v-4h1.75v4h5.812v1.5H5.812V-5c0 1.188.286 2.094.86 2.719.57.617 1.414.922 2.531.922 1.145 0 2.094-.336 2.844-1.016Zm0 0"/><path id="d" d="M8.328.14a13.39 13.39 0 0 1-4.203-.656c-1.324-.445-2.36-1.007-3.11-1.687l.798-1.406c.75.636 1.71 1.164 2.89 1.578 1.176.418 2.41.625 3.703.625 1.844 0 3.203-.301 4.078-.907.875-.601 1.313-1.44 1.313-2.515 0-.77-.242-1.375-.719-1.813-.48-.445-1.074-.773-1.781-.984-.7-.207-1.664-.43-2.89-.672-1.45-.258-2.622-.539-3.516-.844-.887-.3-1.641-.789-2.266-1.468-.625-.676-.938-1.61-.938-2.797 0-1.446.598-2.64 1.797-3.578 1.196-.946 2.907-1.422 5.125-1.422 1.164 0 2.32.164 3.47.484 1.144.324 2.077.758 2.796 1.297l-.813 1.406a8.255 8.255 0 0 0-2.546-1.234 10.392 10.392 0 0 0-2.938-.422c-1.71 0-2.996.32-3.86.953-.855.625-1.28 1.453-1.28 2.485 0 .812.242 1.449.734 1.906.488.46 1.086.797 1.797 1.015.707.22 1.703.461 2.984.72 1.426.25 2.578.523 3.453.812a5.214 5.214 0 0 1 2.219 1.421c.613.657.922 1.56.922 2.704 0 1.511-.633 2.726-1.89 3.64-1.262.907-3.04 1.36-5.329 1.36Zm0 0"/><path id="p" d="M26.453-18.406c2.27 0 4.05.668 5.344 2 1.289 1.324 1.937 3.234 1.937 5.734V0h-1.75v-10.531c0-2.051-.5-3.614-1.5-4.688-1-1.07-2.402-1.61-4.203-1.61-2.054 0-3.683.642-4.89 1.923-1.2 1.281-1.797 3.008-1.797 5.172V0h-1.75v-10.531c0-2.051-.5-3.614-1.5-4.688-1-1.07-2.403-1.61-4.203-1.61-2.055 0-3.684.642-4.891 1.923-1.2 1.281-1.797 3.008-1.797 5.172V0h-1.75v-18.266h1.688v3.922a6.697 6.697 0 0 1 2.703-3c1.207-.707 2.64-1.062 4.297-1.062 1.656 0 3.062.375 4.218 1.125 1.157.742 1.977 1.836 2.47 3.281.6-1.352 1.55-2.426 2.843-3.219 1.3-.789 2.812-1.187 4.531-1.187Zm0 0"/><path id="q" d="M9.875-18.406c2.258 0 3.992.578 5.203 1.734 1.219 1.156 1.828 2.856 1.828 5.094V0H15.22v-3.25c-.586 1.074-1.438 1.906-2.563 2.5-1.117.594-2.453.89-4.015.89-2.032 0-3.637-.476-4.813-1.437-1.18-.957-1.765-2.219-1.765-3.781 0-1.508.539-2.738 1.624-3.688 1.083-.945 2.817-1.421 5.204-1.421h6.265v-1.47c0-1.695-.465-2.988-1.39-3.874-.918-.895-2.262-1.344-4.032-1.344a9.72 9.72 0 0 0-3.5.64c-1.105.419-2.039.977-2.796 1.672l-.876-1.25c.907-.82 2-1.457 3.282-1.906a11.91 11.91 0 0 1 4.031-.687Zm-.984 17.11c1.52 0 2.804-.349 3.859-1.048 1.063-.695 1.863-1.71 2.406-3.047v-3.421H8.922c-1.793 0-3.094.328-3.906.984-.805.648-1.204 1.543-1.204 2.687 0 1.188.442 2.125 1.329 2.813.882.687 2.132 1.031 3.75 1.031Zm0 0"/><path id="r" d="M12.64-18.406c2.282 0 4.087.668 5.422 2 1.333 1.324 2 3.234 2 5.734V0h-1.75v-10.531c0-2.051-.523-3.614-1.562-4.688-1.043-1.07-2.496-1.61-4.36-1.61-2.148 0-3.84.642-5.078 1.923-1.242 1.281-1.859 3.008-1.859 5.172V0h-1.75v-25.969h1.75v11.516a6.756 6.756 0 0 1 2.797-2.922c1.238-.688 2.703-1.031 4.39-1.031Zm0 0"/><path id="s" d="M3.703-18.266h1.75V0h-1.75Zm.875-4.453c-.398 0-.734-.129-1.016-.39a1.328 1.328 0 0 1-.421-1c0-.395.14-.735.421-1.016a1.38 1.38 0 0 1 1.016-.422c.395 0 .734.137 1.016.406.281.262.422.59.422.985 0 .398-.141.734-.422 1.015a1.387 1.387 0 0 1-1.016.422Zm0 0"/><path id="u" d="M12.875-18.406c1.707 0 3.25.398 4.625 1.187a8.492 8.492 0 0 1 3.234 3.297c.782 1.399 1.172 2.992 1.172 4.781 0 1.805-.39 3.414-1.172 4.829a8.374 8.374 0 0 1-3.234 3.28C16.125-.25 14.582.142 12.875.142 11.27.14 9.812-.24 8.5-1a7.915 7.915 0 0 1-3.047-3.172V6.797h-1.75v-25.063h1.688v4.297c.718-1.394 1.738-2.484 3.062-3.265 1.32-.782 2.797-1.172 4.422-1.172Zm-.094 16.968c1.395 0 2.649-.32 3.766-.968a6.948 6.948 0 0 0 2.64-2.735c.645-1.164.97-2.5.97-4 0-1.488-.325-2.816-.97-3.984a6.881 6.881 0 0 0-2.64-2.719c-1.117-.656-2.371-.984-3.766-.984-1.406 0-2.668.328-3.781.984-1.105.649-1.98 1.555-2.625 2.719-.637 1.168-.953 2.496-.953 3.984 0 1.5.316 2.836.953 4C7.02-3.973 7.895-3.062 9-2.406c1.113.648 2.375.969 3.781.969Zm0 0"/><path id="v" d="M10.844.14c-1.719 0-3.278-.394-4.672-1.187a8.518 8.518 0 0 1-3.266-3.297C2.113-5.758 1.72-7.359 1.72-9.14c0-1.77.394-3.359 1.187-4.765a8.532 8.532 0 0 1 3.266-3.313c1.394-.789 2.953-1.187 4.672-1.187 1.726 0 3.285.398 4.672 1.187a8.544 8.544 0 0 1 3.28 3.313c.79 1.406 1.188 2.996 1.188 4.765 0 1.782-.398 3.383-1.187 4.797a8.53 8.53 0 0 1-3.281 3.297C14.129-.254 12.57.141 10.844.141Zm0-1.578c1.406 0 2.66-.32 3.765-.968a6.99 6.99 0 0 0 2.625-2.735c.645-1.164.97-2.5.97-4 0-1.488-.325-2.816-.97-3.984a6.922 6.922 0 0 0-2.625-2.719c-1.105-.656-2.359-.984-3.765-.984-1.399 0-2.653.328-3.766.984-1.105.649-1.98 1.555-2.625 2.719-.637 1.168-.953 2.496-.953 3.984 0 1.5.316 2.836.953 4 .645 1.168 1.52 2.079 2.625 2.735 1.113.648 2.367.969 3.766.969Zm0 0"/><path id="w" d="M9.203-24.61c-2.281 0-3.422 1.227-3.422 3.672v2.672h5.844v1.5H5.812V0h-1.75v-16.766H.704v-1.5h3.36v-2.797c0-1.539.44-2.765 1.328-3.671.882-.914 2.132-1.375 3.75-1.375a6.79 6.79 0 0 1 2 .297c.644.199 1.175.496 1.593.89l-.687 1.328c-.75-.676-1.7-1.015-2.844-1.015Zm0 0"/><path id="x" d="M5.39-14.281c.563-1.332 1.438-2.352 2.626-3.063 1.187-.707 2.632-1.062 4.343-1.062v1.718l-.421-.046c-2.032 0-3.622.636-4.766 1.906-1.149 1.273-1.719 3.043-1.719 5.312V0h-1.75v-18.266h1.688Zm0 0"/><path id="y" d="M18.375-18.266 9 2.484c-.71 1.614-1.523 2.758-2.438 3.438-.917.676-2.007 1.016-3.265 1.016a6.62 6.62 0 0 1-2.375-.422A5.007 5.007 0 0 1-.938 5.28l.875-1.328c.926.957 2.055 1.438 3.391 1.438.883 0 1.64-.246 2.266-.735.633-.492 1.218-1.328 1.75-2.515l.984-2.204L.11-18.265h1.844L9.281-1.922l7.313-16.344Zm0 0"/><path id="z" d="M19.14-8.719H3.438c.04 1.43.399 2.7 1.079 3.813a6.895 6.895 0 0 0 2.75 2.562c1.156.606 2.457.906 3.906.906 1.187 0 2.285-.21 3.297-.64a6.552 6.552 0 0 0 2.547-1.906l1.015 1.156c-.804.95-1.804 1.683-3 2.203-1.199.512-2.5.766-3.906.766-1.813 0-3.434-.395-4.86-1.188a8.52 8.52 0 0 1-3.343-3.281c-.805-1.406-1.203-3.008-1.203-4.813 0-1.77.375-3.359 1.125-4.765.758-1.414 1.804-2.52 3.14-3.313 1.332-.789 2.829-1.187 4.485-1.187 1.656 0 3.14.39 4.453 1.172 1.32.78 2.363 1.875 3.125 3.28.758 1.4 1.14 2.981 1.14 4.75Zm-8.671-8.156c-1.281 0-2.438.29-3.469.86a6.5 6.5 0 0 0-2.469 2.421c-.617 1.031-.968 2.203-1.062 3.516h14c-.074-1.313-.43-2.477-1.063-3.5A6.773 6.773 0 0 0 13.922-16c-1.024-.582-2.172-.875-3.453-.875Zm0 0"/><path id="A" d="M12.64-18.406c2.282 0 4.087.668 5.422 2 1.333 1.324 2 3.234 2 5.734V0h-1.75v-10.531c0-2.051-.523-3.614-1.562-4.688-1.043-1.07-2.496-1.61-4.36-1.61-2.148 0-3.84.642-5.078 1.923-1.242 1.281-1.859 3.008-1.859 5.172V0h-1.75v-18.266h1.688v3.953a6.863 6.863 0 0 1 2.812-3c1.25-.726 2.727-1.093 4.438-1.093Zm0 0"/><path id="B" d="M19.953-25.969V0h-1.719v-4.313c-.718 1.43-1.734 2.528-3.047 3.297-1.304.774-2.78 1.157-4.437 1.157-1.71 0-3.25-.395-4.625-1.188a8.478 8.478 0 0 1-3.234-3.281c-.782-1.406-1.172-3.008-1.172-4.813 0-1.789.39-3.39 1.172-4.796.78-1.415 1.859-2.516 3.234-3.297 1.375-.782 2.914-1.172 4.625-1.172 1.625 0 3.082.386 4.375 1.156 1.3.773 2.328 1.844 3.078 3.219V-25.97Zm-9.11 24.532c1.407 0 2.66-.32 3.766-.97a6.99 6.99 0 0 0 2.625-2.734c.645-1.164.97-2.5.97-4 0-1.488-.325-2.816-.97-3.984a6.922 6.922 0 0 0-2.625-2.719c-1.105-.656-2.359-.984-3.765-.984-1.399 0-2.653.328-3.766.984-1.105.649-1.98 1.555-2.625 2.719-.637 1.168-.953 2.496-.953 3.984 0 1.5.316 2.836.953 4 .645 1.168 1.52 2.079 2.625 2.735 1.113.648 2.367.969 3.766.969Zm0 0"/><path id="C" d="M20.156-18.266v16.313c0 3.031-.734 5.27-2.203 6.719-1.469 1.445-3.683 2.171-6.64 2.171-1.688 0-3.278-.261-4.766-.78-1.492-.512-2.695-1.22-3.61-2.126l.954-1.343c.906.843 2 1.5 3.28 1.968 1.282.469 2.645.703 4.095.703 2.425 0 4.222-.578 5.39-1.734 1.164-1.156 1.75-2.95 1.75-5.375v-3.078a7.636 7.636 0 0 1-3.11 3.078c-1.335.719-2.827 1.078-4.483 1.078-1.7 0-3.247-.375-4.641-1.125a8.333 8.333 0 0 1-3.266-3.172C2.113-6.32 1.72-7.852 1.72-9.562c0-1.696.394-3.223 1.187-4.579a8.177 8.177 0 0 1 3.266-3.14c1.394-.75 2.941-1.125 4.64-1.125 1.676 0 3.192.375 4.547 1.125a7.683 7.683 0 0 1 3.125 3.14v-4.125ZM10.953-2.234c1.426 0 2.707-.305 3.844-.922a6.748 6.748 0 0 0 2.672-2.594c.644-1.113.968-2.383.968-3.813 0-1.414-.324-2.671-.968-3.765a6.685 6.685 0 0 0-2.672-2.578c-1.137-.614-2.418-.922-3.844-.922-1.43 0-2.71.308-3.844.922a6.823 6.823 0 0 0-2.656 2.578c-.637 1.094-.953 2.351-.953 3.765 0 1.43.316 2.7.953 3.813A6.89 6.89 0 0 0 7.11-3.156c1.133.617 2.414.922 3.844.922Zm0 0"/><path id="e" d="M5.516-6.734v6.28h.593c.114 0 .192.024.235.063.05.043.078.102.078.172a.192.192 0 0 1-.078.157C6.3-.02 6.223 0 6.109 0H5.047v-.89C4.523-.18 3.863.171 3.063.171c-.407 0-.797-.106-1.172-.313A2.353 2.353 0 0 1 1-1.062a2.6 2.6 0 0 1-.328-1.25c0-.426.11-.836.328-1.235.219-.406.516-.719.89-.937a2.294 2.294 0 0 1 1.173-.329c.789 0 1.453.36 1.984 1.079v-2.547h-.594c-.117 0-.2-.02-.25-.063-.043-.039-.062-.097-.062-.172 0-.062.02-.113.062-.156.05-.039.133-.062.25-.062Zm-.47 4.421c0-.57-.194-1.054-.577-1.453-.387-.394-.844-.593-1.375-.593-.543 0-1.008.199-1.39.593a2.007 2.007 0 0 0-.579 1.454c0 .562.191 1.042.578 1.437.383.398.848.594 1.39.594.532 0 .989-.196 1.376-.594.383-.395.578-.875.578-1.438Zm0 0"/><path id="f" d="M3.328 0 1.234-4.188h-.14c-.106 0-.184-.019-.235-.062a.26.26 0 0 1-.062-.172c0-.039.008-.082.031-.125a.238.238 0 0 1 .094-.078.397.397 0 0 1 .172-.031h1.25c.101 0 .176.027.219.078.05.043.078.094.078.156a.242.242 0 0 1-.079.172c-.042.043-.117.063-.218.063h-.61L3.578-.5l1.813-3.688h-.61c-.105 0-.183-.019-.234-.062a.26.26 0 0 1-.063-.172c0-.062.02-.113.063-.156.05-.05.129-.078.234-.078h1.235c.101 0 .175.027.218.078.051.043.079.094.079.156a.218.218 0 0 1-.047.14.265.265 0 0 1-.094.079 1.406 1.406 0 0 1-.297.016l-2.86 5.812h.704c.113 0 .191.02.234.063.04.039.063.093.063.156A.225.225 0 0 1 3.953 2c-.043.05-.121.078-.234.078H1.125a.382.382 0 0 1-.234-.062.233.233 0 0 1-.063-.172c0-.063.02-.117.063-.157.05-.042.129-.062.234-.062h1.406Zm0 0"/><path id="g" d="M1.844-4.656v.687c.312-.32.593-.539.843-.656.258-.125.551-.188.876-.188.343 0 .656.075.937.22.195.105.375.28.531.53.164.25.25.508.25.766v2.844h.39c.102 0 .177.023.22.062.05.043.078.102.078.172a.192.192 0 0 1-.078.157C5.848-.02 5.773 0 5.67 0H4.454c-.105 0-.183-.02-.234-.063a.203.203 0 0 1-.063-.156c0-.07.02-.129.063-.172a.382.382 0 0 1 .234-.062h.375V-3.22c0-.32-.117-.594-.344-.812-.23-.219-.543-.328-.937-.328-.293 0-.547.062-.766.187-.219.117-.531.414-.937.89v2.829h.515c.102 0 .176.023.22.062.05.043.077.102.077.172a.192.192 0 0 1-.078.157C2.535-.02 2.461 0 2.36 0H.875C.77 0 .691-.02.641-.063a.203.203 0 0 1-.063-.156c0-.07.02-.129.063-.172a.382.382 0 0 1 .234-.062h.516v-3.735h-.375c-.118 0-.2-.019-.25-.062a.26.26 0 0 1-.063-.172c0-.062.02-.113.063-.156.05-.05.132-.078.25-.078Zm0 0"/><path id="h" d="M5.828-2.313a2.38 2.38 0 0 1-.75 1.766 2.456 2.456 0 0 1-1.781.719c-.7 0-1.293-.242-1.781-.734a2.373 2.373 0 0 1-.735-1.75c0-.688.242-1.274.735-1.766a2.426 2.426 0 0 1 1.78-.734c.696 0 1.29.246 1.782.734.5.48.75 1.07.75 1.766Zm-.469 0c0-.562-.203-1.039-.609-1.437a1.959 1.959 0 0 0-1.453-.61 2 2 0 0 0-1.469.61 1.952 1.952 0 0 0-.594 1.438c0 .554.196 1.03.594 1.437.406.398.895.594 1.469.594.57 0 1.055-.196 1.453-.594a1.93 1.93 0 0 0 .61-1.438Zm0 0"/><path id="i" d="M1.25-4.656v.468c.383-.414.77-.625 1.156-.625.227 0 .43.063.61.188.175.125.32.313.437.563.195-.25.399-.438.61-.563.207-.125.414-.188.625-.188.32 0 .582.106.78.313.25.273.376.57.376.89v3.157h.375c.113 0 .191.023.234.062.05.043.078.102.078.172a.192.192 0 0 1-.078.157C6.41-.02 6.332 0 6.22 0H5.39v-3.563a.775.775 0 0 0-.22-.562c-.136-.156-.292-.234-.468-.234-.168 0-.344.062-.531.187-.18.125-.383.371-.61.734v2.985h.376c.101 0 .175.023.218.062.051.043.078.102.078.172a.192.192 0 0 1-.078.157C4.113-.02 4.04 0 3.938 0h-.844v-3.531a.844.844 0 0 0-.219-.594c-.137-.156-.293-.234-.469-.234a.86.86 0 0 0-.469.156c-.218.148-.449.402-.687.766v2.984h.375c.102 0 .176.023.219.062.05.043.078.102.078.172a.192.192 0 0 1-.078.157C1.8-.02 1.727 0 1.625 0H.406C.301 0 .223-.02.172-.063a.203.203 0 0 1-.063-.156c0-.07.02-.129.063-.172a.382.382 0 0 1 .234-.062h.39v-3.735h-.39c-.105 0-.183-.019-.234-.062a.26.26 0 0 1-.063-.172c0-.062.02-.113.063-.156.05-.05.129-.078.234-.078Zm0 0"/><path id="j" d="M3.531-6.969v1.172H2.86v-1.172Zm.016 2.313v4.203h1.765c.114 0 .192.023.235.062.05.043.078.102.078.172a.192.192 0 0 1-.078.157C5.504-.02 5.426 0 5.313 0h-4c-.106 0-.184-.02-.235-.063a.203.203 0 0 1-.062-.156c0-.07.02-.129.062-.172a.382.382 0 0 1 .234-.062h1.782v-3.735H1.766c-.106 0-.184-.019-.235-.062a.26.26 0 0 1-.062-.172c0-.062.02-.113.062-.156.051-.05.13-.078.235-.078Zm0 0"/><path id="k" d="M4.813-3.828v-.828h1.062c.102 0 .176.027.219.078.05.043.078.094.078.156a.242.242 0 0 1-.078.172c-.043.043-.117.063-.219.063h-.61v4.5c0 .3-.062.57-.187.812-.086.156-.23.316-.437.484-.2.164-.383.286-.547.36-.168.07-.387.11-.657.11h-1.28a.382.382 0 0 1-.235-.063.233.233 0 0 1-.063-.172.26.26 0 0 1 .063-.172c.05-.043.129-.063.234-.063l1.297.016c.258 0 .492-.07.703-.203.219-.137.399-.336.547-.594.07-.156.11-.351.11-.578v-1.36c-.481.669-1.102 1-1.86 1a2.157 2.157 0 0 1-1.61-.687 2.327 2.327 0 0 1-.671-1.672c0-.644.223-1.195.672-1.656a2.172 2.172 0 0 1 1.61-.688c.757 0 1.378.329 1.858.985Zm0 1.36c0-.532-.184-.977-.547-1.345a1.75 1.75 0 0 0-1.297-.546c-.5 0-.934.187-1.297.562a1.804 1.804 0 0 0-.547 1.328c0 .531.18.985.547 1.36a1.76 1.76 0 0 0 1.297.546c.508 0 .941-.18 1.297-.546.363-.375.546-.829.546-1.36Zm0 0"/><path id="l" d="M1.813-6.734v2.765c.289-.312.566-.531.828-.656.257-.125.554-.188.89-.188.344 0 .633.063.875.188.25.125.457.32.625.578.164.25.25.516.25.797v2.797h.5c.114 0 .192.023.235.062a.25.25 0 0 1 .062.172.218.218 0 0 1-.062.157C5.973-.02 5.895 0 5.78 0H4.313c-.106 0-.184-.02-.235-.063a.203.203 0 0 1-.062-.156c0-.07.02-.129.062-.172a.382.382 0 0 1 .234-.062h.516V-3.22c0-.32-.121-.594-.36-.812-.23-.219-.558-.328-.984-.328-.324 0-.605.078-.843.234-.168.117-.446.387-.829.813v2.859h.516c.102 0 .176.023.219.062.05.043.078.102.078.172a.192.192 0 0 1-.078.157C2.504-.02 2.43 0 2.328 0H.86C.742 0 .66-.02.61-.063a.203.203 0 0 1-.062-.156c0-.07.02-.129.062-.172C.66-.43.742-.453.86-.453h.5v-5.828H.75c-.105 0-.184-.02-.234-.063-.043-.039-.063-.097-.063-.172 0-.062.02-.113.063-.156a.382.382 0 0 1 .234-.062Zm0 0"/><path id="m" d="M2.375-4.656h2.453c.102 0 .176.027.219.078.05.043.078.094.078.156a.242.242 0 0 1-.078.172c-.043.043-.117.063-.219.063H2.375v3c0 .261.102.48.313.656.207.168.515.25.921.25.301 0 .63-.04.985-.125.351-.094.629-.196.828-.313.07-.05.133-.078.187-.078.051 0 .098.027.141.078.04.043.063.094.063.156a.257.257 0 0 1-.063.157c-.117.117-.398.242-.844.375a4.36 4.36 0 0 1-1.265.203c-.524 0-.938-.121-1.25-.36-.313-.25-.47-.582-.47-1v-3h-.843c-.105 0-.183-.019-.234-.062a.26.26 0 0 1-.063-.172c0-.062.02-.113.063-.156.05-.05.129-.078.234-.078h.844v-1.328c0-.102.02-.176.062-.22a.192.192 0 0 1 .157-.077c.07 0 .129.027.171.078.04.043.063.117.063.219Zm0 0"/><path id="n" d="M3.203-1.297h.203c.196 0 .364.074.5.219a.682.682 0 0 1 .219.516c0 .199-.074.37-.219.515a.696.696 0 0 1-.5.203h-.203a.74.74 0 0 1-.515-.203.691.691 0 0 1-.22-.515c0-.208.071-.38.22-.516a.706.706 0 0 1 .515-.219Zm0 0"/><path id="o" d="M5.734-2.219H1.141c.082.586.328 1.055.734 1.406.414.356.926.532 1.531.532.332 0 .68-.051 1.047-.156.375-.114.676-.258.906-.438.07-.063.13-.094.172-.094.063 0 .114.028.157.078.039.043.062.094.062.157a.242.242 0 0 1-.078.171c-.18.18-.484.344-.922.5a3.973 3.973 0 0 1-1.344.235c-.781 0-1.433-.25-1.953-.75a2.504 2.504 0 0 1-.766-1.844c0-.656.239-1.219.72-1.687.488-.47 1.093-.704 1.812-.704.738 0 1.344.243 1.812.72.477.48.711 1.105.703 1.874Zm-.453-.453c-.086-.5-.32-.906-.703-1.219a2.098 2.098 0 0 0-1.36-.468c-.53 0-.984.156-1.359.468-.375.305-.609.711-.703 1.22Zm0 0"/></defs><path fill="#FFF" d="M-90-60H990v720H-90z"/><use xlink:href="#a" x="133" y="300"/><use xlink:href="#b" x="156.625" y="300"/><use xlink:href="#c" x="180.04" y="300"/><use xlink:href="#c" x="193.48" y="300"/><use xlink:href="#d" x="207.41" y="300"/><g fill="#D6D5D5"><use xlink:href="#e" x="791" y="578"/><use xlink:href="#f" x="797.601" y="578"/><use xlink:href="#g" x="804.202" y="578"/><use xlink:href="#h" x="810.803" y="578"/><use xlink:href="#i" x="817.404" y="578"/><use xlink:href="#j" x="824.005" y="578"/><use xlink:href="#k" x="830.607" y="578"/><use xlink:href="#l" x="837.208" y="578"/><use xlink:href="#m" x="843.809" y="578"/><use xlink:href="#n" x="850.41" y="578"/><use xlink:href="#g" x="857.011" y="578"/><use xlink:href="#o" x="863.612" y="578"/><use xlink:href="#m" x="870.213" y="578"/></g><path d="M798.77 104.559c-.832-.84-1.832-2.106-.797-3.43 1.047-1.328 2.879-1.344 4.156-.063 1.281 1.29.281 1.547 3.187 4.582 1.079 1.125-1.086 3.29-2.16 2.165-2.562-2.676-2.84-1.7-4.386-3.254Zm2.05-4.797c1.551 1.539 1.61 2.703.496 3.894-1.156 1.23-2.57.914-3.93-.437-1.355-1.344-.644-1.95-2.976-4.149-1.254-1.172 1.078-3.199 2.102-2.222 2.476 2.375 2.758 1.375 4.308 2.914Zm2.403 8.129c-1.075-1.121 1.117-3.286 2.386-1.957 1.344 1.41 3.813 4.886 4.602 5.664.789.777 3.254 2.672 3.89 3.398.637.727 2.973 4.836 4.438 6.211 1.461 1.356 1.707 1.887 2.566 2.953.856 1.059 2.051 2.871 2.79 3.934.746 1.062 2.093 1.488 2.94 2.965.84 1.484 1.63 2.035 2.317 2.968 1.102 1.508-1.433 3.207-2.449 1.82-.984-1.34-1.824-2.128-2.629-3.296-.797-1.16-1.285-2.324-2.367-3.188-1.074-.867-2.426-3.117-3.297-4.504-.87-1.382-2.094-2.714-3.02-3.613-1.843-1.812-5.511-6.851-6.296-7.336-.79-.496-2.524-2.758-3.219-3.504-.684-.734-1.203-1-2.652-2.515Zm45.386 56.644c.801 1.453-1.742 3.172-2.68 1.473-.933-1.703-2.464-4.961-3.046-5.84-.594-.879-3.012-4.566-3.492-5.352-.485-.789-1.864-3.847-3.125-5.328-1.258-1.484-1.875-3.336-2.727-4.355-1.062-1.278-1.422-2.106-2.09-3.184-.672-1.082-2.297-2.324-2.715-3.344-.41-1.023-1.007-1.343-1.894-2.558-.89-1.219 1.562-3.024 2.406-1.867a60.504 60.504 0 0 1 2.293 3.379c.774 1.195 1.719 2.64 2.586 3.902.785 1.148 2.258 2.668 2.98 4.121.73 1.453 1.922 3.461 2.395 4.27.598 1.011 1.988 3.082 2.402 4.085.528 1.278 2.012 3.149 2.676 3.766.664.621.66 1.317 1.652 2.922.586.957 1.575 2.445 2.38 3.91Zm.25.453c.926 1.688 2.028 4.653 2.38 5.328.355.68 1.73 2.856 2.218 3.97.48 1.112.45 1.581 1.277 3.444 1.036 2.325 2.008 3.708 2.09 3.797.25.282 1.047 1.274 1.664 2.871.824 2.133 1.356 2.649 1.645 3.63.36 1.75.73 1.769 1.191 3.015.461 1.258.899 1.973 1.145 3.02.261 1.148.945 1.785 1.312 2.789.621 1.578-2.297 2.539-2.875 1.074-.347-.887-.36-1.805-.734-2.73-.379-.93-.77-1.716-1.274-2.594-.511-.875-1.132-2.836-1.843-4.301-.72-1.473-1.992-3.867-2.723-5.606-.746-1.742-.582-3.12-2.73-6.382-.688-1.051-1.696-3.329-2.164-4.231-.817-1.578-2.633-4.492-3.344-5.793-.852-1.55 1.84-2.992 2.765-1.3Zm25.762 65.477c.399 1.578-2.496 2.597-2.965.754-.468-1.844-1.105-5.305-1.445-6.281-.344-.977-1.723-5.055-1.984-5.918-.262-.864-.797-4.09-1.63-5.797-.824-1.703-.937-3.606-1.492-4.774-.687-1.465-.816-2.332-1.175-3.512-.36-1.18-1.598-2.742-1.73-3.804-.126-1.067-.614-1.508-1.145-2.863-.535-1.364 2.297-2.485 2.804-1.192a58.932 58.932 0 0 1 1.313 3.734c.426 1.313.957 2.907 1.457 4.305.457 1.274 1.476 3.063 1.793 4.613.324 1.547.95 3.735 1.2 4.614.308 1.101 1.116 3.398 1.253 4.449.18 1.34 1.125 3.469 1.61 4.215.48.75.296 1.406.84 3.172.323 1.047.894 2.703 1.296 4.285Zm.121.492c.465 1.828.774 4.914.942 5.645.168.73.945 3.136 1.136 4.316.18 1.176.032 1.613.36 3.586.414 2.469 1.004 4.023 1.062 4.129.172.332.692 1.469.883 3.144.262 2.239.648 2.856.684 3.868-.094 1.753.261 1.867.394 3.167.129 1.317.375 2.106.352 3.168-.032 1.16.468 1.938.574 2.989.207 1.66-2.86 1.867-3.05.324-.118-.934.1-1.813-.032-2.79a19.671 19.671 0 0 0-.586-2.788c-.274-.961-.379-2.988-.7-4.563-.327-1.578-.956-4.175-1.226-6.011-.281-1.84.227-3.118-1.023-6.746-.403-1.168-.797-3.583-1.016-4.551-.39-1.7-1.398-4.91-1.754-6.317-.426-1.68 2.54-2.398 3-.57Zm8.567 68.934c0 1.617-3.059 1.89-3.059 0 0-1.891.234-5.38.148-6.399-.093-1.027-.425-5.285-.468-6.18-.04-.894.238-4.125-.145-5.964-.375-1.84-.012-3.688-.258-4.95-.304-1.57-.215-2.433-.27-3.652-.054-1.219-.862-3.016-.726-4.066.14-1.051-.218-1.594-.394-3.024-.18-1.433 2.84-1.816 3.008-.453.171 1.367.261 2.535.343 3.895.086 1.363.203 3.015.34 4.48.125 1.332.672 3.293.594 4.86-.07 1.566-.008 3.82.015 4.722.032 1.133.243 3.54.118 4.582-.157 1.328.234 3.61.52 4.445.28.84-.063 1.426.03 3.258.055 1.09.204 2.82.204 4.446Zm-3.079.226c0-1.449 3.079-1.496 3.079.219-.004 1.816-.618 5.758-.579 6.797.036 1.039.52 3.922.485 4.832-.04.906-1.164 5.23-1.04 7.125.134 1.883-.05 2.406-.155 3.703-.106 1.285-.47 3.32-.657 4.535-.183 1.223.508 2.402.117 3.98-.398 1.579-.195 2.481-.332 3.583-.222 1.773-3.234 1.277-3.03-.356.194-1.578.12-2.68.331-4.015.207-1.329.649-2.45.45-3.754-.192-1.305.363-3.743.675-5.262.317-1.52.34-3.227.281-4.442-.097-2.445.707-8.25.473-9.09-.23-.843.07-3.495.082-4.449.012-.941-.18-1.453-.18-3.406Zm.864 35.207c-.235 1.863-1.067 4.836-1.176 5.578-.11.739-.258 3.258-.508 4.422-.262 1.156-.558 1.512-.969 3.469-.511 2.445-.527 4.11-.511 4.23.039.372.11 1.618-.317 3.25-.574 2.184-.437 2.903-.773 3.856-.727 1.605-.438 1.84-.79 3.105-.355 1.278-.417 2.106-.823 3.09-.454 1.074-.27 1.98-.555 3.004-.414 1.633-3.344.707-2.961-.808.23-.915.754-1.66.988-2.622.235-.964.371-1.824.473-2.82.094-.996.73-2.926 1.008-4.512.27-1.593.629-4.246 1.047-6.054.402-1.817 1.34-2.825 1.496-6.653.05-1.23.558-3.617.707-4.597.254-1.719.48-5.067.66-6.5.215-1.711 3.238-1.301 3.004.562Zm-17.235 67.625c-.597 1.528-3.543.664-2.843-1.12.699-1.782 2.21-4.99 2.507-5.981.29-1 1.555-5.133 1.844-5.989.293-.855 1.742-3.793 2.059-5.66.328-1.867 1.344-3.472 1.574-4.742.293-1.586.691-2.36 1.086-3.523.394-1.164.3-3.145.809-4.079.52-.933.378-1.574.738-2.972.355-1.406 3.308-.664 2.969.668a56.772 56.772 0 0 1-1.106 3.773c-.418 1.309-.91 2.903-1.32 4.324-.371 1.297-.582 3.336-1.227 4.778-.64 1.445-1.406 3.586-1.719 4.445-.39 1.074-1.078 3.414-1.578 4.348-.636 1.195-1.113 3.488-1.156 4.379-.047.894-.582 1.32-1.176 3.082-.351 1.047-.855 2.734-1.46 4.27Zm-.187.473c-.695 1.77-2.258 4.484-2.55 5.183-.294.704-1.079 3.137-1.622 4.22-.547 1.07-.926 1.347-1.82 3.167-1.125 2.278-1.567 3.91-1.582 4.035-.059.371-.309 1.618-1.145 3.118-1.117 2.003-1.172 2.75-1.746 3.605-1.121 1.402-.898 1.703-1.566 2.863-.68 1.168-.953 1.969-1.606 2.836-.722.95-.777 1.89-1.32 2.828-.828 1.504-3.434-.132-2.664-1.527.465-.848 1.164-1.45 1.64-2.34.48-.894.836-1.707 1.196-2.664.351-.957 1.468-2.703 2.144-4.195.672-1.5 1.703-4.02 2.574-5.696.86-1.687 2.028-2.445 3.157-6.168.363-1.195 1.46-3.414 1.851-4.34.688-1.624 1.754-4.855 2.29-6.214.64-1.625 3.468-.48 2.769 1.289Zm-34.43 62.422c-1 1.367-3.633-.207-2.465-1.805 1.168-1.598 3.504-4.398 4.063-5.309.555-.921 2.894-4.699 3.406-5.472.512-.774 2.707-3.324 3.512-5.09.812-1.766 2.226-3.098 2.785-4.297.703-1.492 1.297-2.16 1.988-3.21.688-1.052 1.117-3.028 1.856-3.825.746-.79.781-1.457 1.492-2.75.715-1.297 3.387.16 2.707 1.394a59.508 59.508 0 0 1-2.059 3.45 159.643 159.643 0 0 0-2.418 3.941c-.703 1.188-1.449 3.149-2.46 4.414-1.004 1.27-2.317 3.195-2.848 3.969-.668.965-1.961 3.11-2.7 3.914-.94 1.023-2.019 3.176-2.3 4.043-.29.875-.926 1.168-1.977 2.766-.625.953-1.578 2.496-2.582 3.867Zm-.312.426c-1.16 1.582-3.426 3.89-3.903 4.511-.48.625-1.914 2.848-2.742 3.785-.828.934-1.273 1.114-2.656 2.704-1.727 1.984-2.613 3.496-2.664 3.617-.16.355-.754 1.531-1.992 2.816-1.657 1.719-1.918 2.445-2.72 3.156-1.491 1.121-1.362 1.473-2.343 2.465-.996.996-1.488 1.727-2.375 2.434-.976.765-1.3 1.687-2.101 2.488-1.239 1.297-3.329-.957-2.176-2.164.695-.727 1.554-1.16 2.277-1.926.723-.773 1.3-1.496 1.922-2.36.617-.866 2.203-2.331 3.285-3.648 1.082-1.328 2.797-3.582 4.113-5.03 1.313-1.47 2.665-1.938 4.793-5.356.688-1.098 2.372-3.028 3.008-3.852 1.114-1.441 3.035-4.383 3.93-5.598 1.066-1.453 3.508.375 2.344 1.958Zm-51.016 53.226c-1.332 1.07-3.469-1.137-1.914-2.383 1.555-1.25 4.574-3.383 5.363-4.129.79-.754 4.094-3.855 4.809-4.488.715-.633 3.562-2.586 4.848-4.129 1.285-1.535 3.046-2.508 3.937-3.558 1.113-1.305 1.883-1.825 2.863-2.7.977-.879 1.965-2.742 2.922-3.355.961-.61 1.184-1.262 2.25-2.375 1.074-1.121 3.278.98 2.258 2.039a62.588 62.588 0 0 1-3.008 2.934 201.1 201.1 0 0 0-3.504 3.332c-1.027 1.007-2.316 2.77-3.664 3.77-1.34 1.007-3.164 2.581-3.898 3.206-.918.79-2.778 2.57-3.715 3.168-1.2.77-2.836 2.602-3.348 3.375-.515.781-1.215.906-2.668 2.195-.86.766-2.195 2.024-3.53 3.098Zm-2.113-2.25c1.191-.953 3.156 1.414 1.746 2.543-1.496 1.195-5.117 3.309-5.945 4.016-.829.71-2.887 2.968-3.66 3.535-.762.558-5.005 2.488-6.473 3.808-1.453 1.32-1.996 1.516-3.117 2.27-1.114.746-2.997 1.766-4.106 2.398-1.105.641-1.633 1.942-3.16 2.645-1.531.695-2.137 1.43-3.117 2.023-1.574.957-3.051-1.714-1.598-2.597 1.399-.852 2.246-1.614 3.461-2.301 1.207-.688 2.398-1.063 3.336-2.055.937-.988 3.27-2.117 4.703-2.851 1.438-.735 2.848-1.817 3.805-2.653 1.937-1.66 7.191-4.812 7.734-5.547.547-.73 2.914-2.234 3.703-2.851.782-.606 1.082-1.094 2.688-2.383Zm-28.215 23.473c-1.656 1.004-4.582 2.238-5.25 2.625-.664.383-2.79 1.86-3.887 2.398-1.097.528-1.57.52-3.402 1.434-2.285 1.136-3.633 2.172-3.723 2.258-.273.265-1.23 1.105-2.808 1.793-2.106.918-2.598 1.476-3.57 1.808-1.739.434-1.747.805-2.973 1.324-1.246.516-1.942.985-2.98 1.278-1.141.312-1.75 1.023-2.743 1.433-1.559.692-2.64-2.183-1.195-2.828.875-.387 1.793-.437 2.703-.855a20.368 20.368 0 0 0 2.547-1.387c.86-.547 2.797-1.254 4.238-2.031 1.445-.785 3.797-2.164 5.512-2.977 1.71-.82 3.101-.719 6.285-3.015 1.023-.735 3.27-1.848 4.152-2.356 1.551-.887 4.403-2.836 5.676-3.61 1.52-.921 3.074 1.704 1.418 2.708Zm-64.559 28.64c-1.562.47-2.703-2.382-.879-2.93 1.829-.546 5.266-1.331 6.23-1.71.966-.387 4.99-1.942 5.845-2.239.855-.3 4.066-.976 5.738-1.878 1.676-.899 3.574-1.094 4.723-1.7 1.437-.75 2.3-.918 3.468-1.328 1.168-.414 2.684-1.715 3.743-1.894 1.062-.176 1.484-.68 2.824-1.274 1.343-.593 2.582 2.188 1.308 2.75a56.765 56.765 0 0 1-3.691 1.477 181.66 181.66 0 0 0-4.25 1.648c-1.258.512-3.008 1.61-4.547 1.992-1.539.391-3.703 1.114-4.574 1.399-1.09.36-3.36 1.262-4.406 1.445-1.332.235-3.426 1.274-4.153 1.79-.73.511-1.398.355-3.144.976-1.035.367-2.668 1.008-4.235 1.476Zm-.488.145c-1.812.539-4.887.98-5.613 1.18-.723.199-3.098 1.078-4.27 1.316-1.172.23-1.617.102-3.578.516-2.453.515-3.984 1.172-4.09 1.234-.32.184-1.437.754-3.105 1.016-2.23.351-2.832.77-3.84.843-1.762-.02-1.86.34-3.156.528-1.309.183-2.09.46-3.153.484-1.164.016-1.918.55-2.964.7-1.657.277-1.989-2.778-.454-3.036.93-.156 1.817.024 2.79-.148a20.05 20.05 0 0 0 2.765-.7c.95-.316 2.973-.507 4.531-.894 1.567-.39 4.141-1.129 5.97-1.477 1.827-.359 3.128.094 6.706-1.308 1.152-.45 3.55-.946 4.512-1.207 1.687-.461 4.86-1.606 6.254-2.024 1.664-.496 2.508 2.438.695 2.977Zm-34.496 4.82c1.434-.238 1.988 2.79.293 3.07-1.797.297-5.797.344-6.816.551-1.02.207-3.786 1.16-4.692 1.274-.902.11-5.355-.29-7.207.148-1.836.438-2.383.344-3.676.453-1.289.11-3.351.082-4.582.098-1.234.023-2.285.898-3.906.773-1.621-.132-2.477.215-3.582.262-1.785.074-1.79-2.98-.148-3.05 1.586-.063 2.66-.321 4.007-.333 1.344-.011 2.524.239 3.778-.175 1.258-.403 3.75-.254 5.3-.196 1.551.059 3.239-.195 4.43-.453 2.399-.5 8.262-.664 9.051-1.031.8-.367 3.473-.508 4.414-.653.93-.144 1.406-.417 3.336-.738Zm-34.606 6.645c-1.87.074-4.937-.254-5.683-.242-.746.015-3.25.285-4.438.226-1.18-.066-1.578-.3-3.57-.383-2.488-.101-4.129.16-4.246.196-.355.097-1.57.375-3.246.218-2.238-.203-2.922.051-3.914-.125-1.695-.449-1.88-.125-3.18-.261-1.308-.141-2.133-.063-3.164-.301-1.133-.274-1.992.062-3.039-.05-1.672-.138-1.242-3.18.305-3.056.937.079 1.75.47 2.734.54a19.74 19.74 0 0 0 2.844.003c.996-.074 2.996.235 4.597.246 1.61 0 4.278-.082 6.122.032 1.855.101 2.996.86 6.789.379 1.218-.153 3.652-.043 4.64-.059 1.735-.031 5.07-.36 6.512-.418 1.719-.07 1.813 2.98-.063 3.055Zm-34.449-3.805c1.446.117 1.239 3.191-.468 3.047-1.813-.152-5.696-1.086-6.735-1.137-1.035-.047-3.953.2-4.86.086-.898-.113-5.12-1.594-7.027-1.625-1.89-.023-2.398-.25-3.683-.46-1.278-.212-3.274-.743-4.473-1.032-1.207-.281-2.441.312-3.988-.211-1.543-.531-2.461-.402-3.55-.629-1.755-.367-1.013-3.328.605-2.992 1.562.328 2.668.344 3.984.664 1.309.316 2.394.848 3.715.758 1.316-.082 3.703.676 5.195 1.113 1.488.438 3.192.606 4.41.649 2.45.101 8.176 1.382 9.032 1.218.863-.16 3.484.36 4.433.45.938.09 1.461-.063 3.41.101Zm-35.21-2.05c-1.844-.391-4.75-1.47-5.481-1.637-.73-.172-3.235-.528-4.379-.88-1.137-.355-1.465-.683-3.39-1.253-2.4-.715-4.063-.871-4.188-.864-.371.004-1.625-.027-3.223-.593-2.137-.754-2.867-.68-3.793-1.098-1.547-.855-1.804-.59-3.043-1.043-1.246-.465-2.07-.598-3.023-1.086-1.04-.547-1.961-.437-2.961-.808-1.602-.551-.434-3.395 1.05-2.883.9.308 1.602.89 2.544 1.207.949.316 1.793.527 2.785.71.988.18 2.867.977 4.43 1.387 1.574.403 4.195.985 5.968 1.551 1.785.559 2.715 1.578 6.531 2.051 1.227.152 3.57.86 4.536 1.09 1.699.398 5.027.902 6.445 1.2 1.691.355 1.031 3.335-.809 2.948ZM511.09 562.87c1.383.477.426 3.402-1.211 2.836-1.734-.602-5.309-2.484-6.317-2.793-1.003-.309-3.921-.809-4.785-1.144-.851-.34-4.629-2.84-6.492-3.356-1.851-.504-2.293-.851-3.504-1.387-1.203-.527-3.035-1.558-4.14-2.144-1.118-.582-2.477-.324-3.871-1.227-1.387-.91-2.32-1.023-3.336-1.527-1.637-.809-.172-3.488 1.332-2.742 1.457.718 2.543 1.02 3.757 1.668 1.207.644 2.145 1.437 3.461 1.691 1.32.254 3.477 1.598 4.832 2.402 1.356.805 2.985 1.403 4.172 1.75 2.38.723 7.676 3.41 8.555 3.465.883.067 3.324 1.227 4.23 1.555.895.32 1.45.309 3.317.953Zm-64.805-28.734c-1.398-.934.063-3.633 1.7-2.543 1.632 1.09 4.515 3.289 5.44 3.8.938.512 4.79 2.672 5.583 3.145.793.477 3.414 2.547 5.207 3.274 1.789.726 3.172 2.074 4.387 2.582 1.515.632 2.203 1.195 3.277 1.835 1.074.637 3.058.977 3.879 1.68.82.707 1.484.711 2.8 1.363 1.32.657-.023 3.387-1.277 2.766a59.332 59.332 0 0 1-3.515-1.898 163.08 163.08 0 0 0-4.024-2.239c-1.207-.644-3.191-1.3-4.492-2.25-1.3-.945-3.273-2.168-4.063-2.664-.988-.617-3.175-1.808-4.003-2.508-1.059-.89-3.243-1.867-4.118-2.109-.878-.246-1.195-.867-2.832-1.844-.968-.578-2.543-1.453-3.949-2.39Zm-.433-.293c-1.622-1.082-4.008-3.23-4.645-3.68-.637-.445-2.906-1.77-3.871-2.55-.961-.782-1.156-1.22-2.793-2.52-2.043-1.625-3.582-2.438-3.703-2.48-.36-.145-1.55-.68-2.88-1.852-1.772-1.563-2.507-1.79-3.245-2.555-1.172-1.43-1.52-1.285-2.543-2.21-1.027-.946-1.774-1.403-2.512-2.25-.797-.934-1.726-1.212-2.555-1.97-1.34-1.172.825-3.359 2.067-2.27.75.657 1.21 1.493 2.004 2.173a21.988 21.988 0 0 0 2.422 1.8c.886.57 2.402 2.079 3.754 3.094 1.363 1.012 3.671 2.614 5.168 3.852 1.507 1.238 2.027 2.562 5.511 4.523 1.117.63 3.106 2.219 3.95 2.813 1.48 1.043 4.476 2.82 5.726 3.656 1.484.992-.238 3.512-1.855 2.426Zm-26.895-24.535c1.16 1.02-.832 3.367-2.203 2.164-1.45-1.278-4.207-4.516-5.063-5.223-.859-.707-3.492-2.387-4.199-3.066-.703-.672-3.441-4.61-5.047-5.875-1.601-1.25-1.898-1.762-2.863-2.766-.965-1-2.344-2.727-3.184-3.738-.851-1.008-2.246-1.328-3.238-2.75-.984-1.426-1.832-1.914-2.61-2.801-1.25-1.426 1.13-3.34 2.282-2.027 1.113 1.27 2.035 1.996 2.953 3.105.914 1.106 1.516 2.238 2.684 3.02 1.164.785 2.742 2.945 3.75 4.27 1.011 1.323 2.367 2.57 3.383 3.398 2.035 1.68 6.168 6.41 6.996 6.828.832.425 2.757 2.527 3.515 3.207.742.668 1.282.886 2.844 2.254Zm-50.758-53.149c-.933-1.398 1.45-3.332 2.54-1.7 1.093 1.634 2.925 4.786 3.59 5.618.675.836 3.437 4.344 3.995 5.098.555.754 2.223 3.715 3.625 5.101 1.399 1.391 2.192 3.203 3.145 4.164 1.183 1.196 1.625 2 2.398 3.032.774 1.03 2.52 2.152 3.035 3.144.512.996 1.141 1.27 2.145 2.422 1.012 1.152-1.27 3.164-2.23 2.07a62.845 62.845 0 0 1-2.626-3.21 165.902 165.902 0 0 0-2.96-3.72c-.895-1.093-2.516-2.5-3.38-3.906-.867-1.398-2.25-3.324-2.8-4.097-.692-.969-2.278-2.938-2.785-3.914-.649-1.242-2.309-3-3.028-3.563-.722-.57-.781-1.273-1.922-2.804-.68-.915-1.804-2.329-2.742-3.735Zm2.426-1.906c.836 1.254-1.695 3.004-2.684 1.523-1.046-1.57-2.804-5.312-3.43-6.187-.628-.875-2.679-3.09-3.167-3.895-.485-.8-2.012-5.14-3.192-6.699-1.18-1.543-1.324-2.094-1.968-3.262-.645-1.16-1.485-3.101-2.016-4.246-.535-1.148-1.777-1.773-2.34-3.34-.555-1.566-1.23-2.226-1.734-3.242-.809-1.633 1.98-2.879 2.726-1.37.723 1.452 1.403 2.35 1.977 3.609.574 1.25.84 2.453 1.742 3.46.895 1.008 1.805 3.403 2.406 4.88.598 1.476 1.547 2.956 2.285 3.968 1.473 2.043 4.118 7.485 4.797 8.078.672.602 1.946 3.055 2.485 3.883.531.816.984 1.152 2.113 2.84Zm-20.727-29.746c-.847-1.719-1.82-4.711-2.14-5.403-.324-.687-1.602-2.91-2.04-4.039-.429-1.125-.378-1.593-1.128-3.48-.93-2.356-1.84-3.77-1.918-3.867-.238-.29-.988-1.309-1.535-2.926-.73-2.16-1.242-2.691-1.489-3.68-.28-1.758-.652-1.793-1.058-3.054-.406-1.27-.813-2-1.016-3.055-.21-1.156-.867-1.817-1.191-2.832-.551-1.598 2.406-2.434 2.918-.953.312.898.285 1.812.62 2.75.337.941.696 1.742 1.161 2.636.469.891 1.004 2.872 1.652 4.36.657 1.496 1.825 3.933 2.477 5.695.668 1.762.445 3.13 2.445 6.465.645 1.074 1.551 3.383 1.977 4.297.746 1.605 2.43 4.582 3.082 5.902.781 1.578-1.969 2.906-2.817 1.184Zm-22.921-66.285c-.336-1.59 2.597-2.489 2.992-.63.39 1.856.883 5.337 1.18 6.321.304.992 1.511 5.113 1.738 5.984.222.872.62 4.11 1.379 5.844.754 1.735.785 3.633 1.289 4.82.625 1.485.718 2.356 1.027 3.547.309 1.192 1.477 2.797 1.566 3.864.079 1.066.547 1.527 1.02 2.902.477 1.379-2.398 2.379-2.848 1.07a56.6 56.6 0 0 1-1.156-3.777c-.367-1.324-.832-2.93-1.273-4.348-.403-1.289-1.344-3.11-1.594-4.668-.258-1.558-.793-3.765-1-4.648-.266-1.113-.973-3.434-1.067-4.488-.125-1.344-.98-3.504-1.43-4.266-.452-.77-.238-1.418-.71-3.2-.277-1.058-.777-2.73-1.113-4.327Zm-.106-.496c-.383-1.844-.566-4.934-.703-5.668-.137-.735-.816-3.168-.953-4.352-.133-1.18.035-1.613-.215-3.594-.309-2.476-.836-4.054-.89-4.164-.157-.336-.63-1.492-.755-3.172-.168-2.242-.53-2.879-.52-3.886.165-1.75-.187-1.875-.265-3.18-.078-1.316-.289-2.117-.222-3.176.082-1.16-.391-1.953-.453-3.008-.137-1.668 2.933-1.746 3.066-.199.078.938-.176 1.805-.086 2.785.094.985.242 1.84.469 2.809.234.973.258 2.996.515 4.582.262 1.59.782 4.207.973 6.05.207 1.848-.352 3.102.746 6.774.352 1.18.649 3.606.828 4.578.317 1.711 1.192 4.957 1.489 6.375.355 1.692-2.637 2.29-3.024.446Zm-5.723-69.168c.063-1.618 3.13-1.766 3.055.12-.078 1.891-.453 5.368-.41 6.391.055 1.032.21 5.297.215 6.192.004.894-.406 4.113-.102 5.965.301 1.851-.136 3.683.059 4.953.238 1.578.113 2.437.12 3.656.005 1.219.74 3.05.56 4.094-.184 1.043.152 1.597.273 3.03.117 1.442-2.918 1.7-3.027.333a57.054 57.054 0 0 1-.184-3.902c-.031-1.364-.082-3.02-.156-4.489-.07-1.336-.535-3.316-.395-4.879.137-1.558.16-3.812.176-4.714.016-1.133-.098-3.543.07-4.582.215-1.325-.086-3.618-.336-4.461-.246-.852.118-1.426.102-3.258-.012-1.09-.086-2.828-.02-4.45Zm3.082-.102c-.062 1.445-3.136 1.367-3.066-.344.078-1.816.852-5.73.856-6.77.003-1.038-.36-3.94-.286-4.85.075-.903 1.38-5.18 1.329-7.079-.055-1.89.152-2.406.308-3.7.156-1.28.606-3.296.844-4.507.23-1.215-.414-2.422.043-3.984.465-1.563.3-2.477.48-3.57.293-1.766 3.285-1.145 3.016.48-.262 1.57-.23 2.676-.496 4-.266 1.32-.75 2.426-.606 3.738.141 1.313-.515 3.727-.89 5.23-.38 1.508-.473 3.215-.465 4.434-.004 2.45-1.043 8.215-.84 9.067.191.851-.219 3.492-.27 4.445-.05.937.122 1.457.043 3.41Zm.582-35.234c.31-1.856 1.266-4.797 1.403-5.536.14-.734.39-3.246.691-4.402.309-1.148.621-1.488 1.11-3.433.613-2.422.699-4.09.687-4.211-.023-.371-.043-1.625.457-3.243.66-2.156.555-2.886.93-3.824.793-1.578.515-1.824.918-3.078.41-1.262.504-2.086.953-3.055.5-1.058.351-1.976.68-2.988.484-1.617 3.375-.57 2.925.93-.27.91-.824 1.633-1.097 2.582a20.1 20.1 0 0 0-.59 2.805c-.137.996-.856 2.902-1.195 4.476-.336 1.586-.805 4.223-1.297 6.016-.48 1.804-1.461 2.773-1.774 6.597-.101 1.23-.707 3.598-.894 4.57-.328 1.712-.692 5.051-.93 6.477-.285 1.703-3.289 1.168-2.976-.683Zm20.07-67.004c.665-1.508 3.575-.528 2.798 1.234-.782 1.762-2.426 4.91-2.766 5.895-.336.992-1.773 5.078-2.101 5.922-.329.847-1.903 3.73-2.301 5.59-.407 1.855-1.489 3.417-1.774 4.683-.36 1.574-.793 2.336-1.234 3.484-.445 1.149-.434 3.137-.98 4.051-.56.91-.446 1.559-.864 2.945-.414 1.395-3.332.532-2.937-.793a56.53 56.53 0 0 1 1.261-3.73 160.982 160.982 0 0 0 1.504-4.277c.422-1.282.723-3.317 1.43-4.735.7-1.418 1.559-3.535 1.906-4.379.434-1.062 1.223-3.379 1.762-4.297.691-1.171 1.262-3.449 1.348-4.335.082-.895.636-1.301 1.304-3.043.395-1.036.977-2.704 1.645-4.215Zm.208-.473c.777-1.742 2.453-4.402 2.777-5.09.324-.691 1.215-3.097 1.805-4.16.594-1.055.984-1.312 1.96-3.105 1.223-2.235 1.74-3.856 1.763-3.977.074-.375.378-1.613 1.28-3.082 1.208-1.965 1.298-2.71 1.907-3.543 1.184-1.363.977-1.672 1.695-2.809.73-1.144 1.043-1.937 1.735-2.785.761-.918.863-1.86 1.449-2.777.894-1.48 3.426.266 2.594 1.637-.5.832-1.23 1.41-1.746 2.28-.52.88-.914 1.677-1.317 2.622-.39.95-1.59 2.652-2.332 4.121-.738 1.48-1.883 3.965-2.828 5.61-.934 1.656-2.133 2.37-3.426 6.054-.414 1.188-1.613 3.367-2.043 4.278-.758 1.601-1.965 4.792-2.558 6.136-.711 1.602-3.489.336-2.715-1.41Zm37.27-61.226c1.066-1.332 3.632.351 2.386 1.91-1.246 1.554-3.719 4.277-4.32 5.168-.598.902-3.113 4.597-3.664 5.355-.551.758-2.864 3.227-3.754 4.969-.895 1.738-2.367 3.02-2.985 4.2-.77 1.468-1.394 2.116-2.132 3.144-.739 1.023-1.254 2.992-2.032 3.757-.78.766-.847 1.434-1.617 2.7-.773 1.273-3.379-.297-2.644-1.508a58.379 58.379 0 0 1 2.214-3.375c.805-1.16 1.77-2.578 2.602-3.856.754-1.164 1.59-3.105 2.66-4.332 1.063-1.234 2.469-3.113 3.035-3.867.711-.945 2.106-3.047 2.883-3.82.988-.992 2.168-3.11 2.492-3.969.329-.867.98-1.137 2.11-2.7.672-.925 1.695-2.44 2.765-3.776Zm2.55 1.734c-.957 1.191-3.39-.692-2.258-2.102 1.2-1.492 4.293-4.363 4.953-5.242.66-.879 2.207-3.562 2.848-4.293.633-.722 4.418-3.597 5.598-5.246 1.172-1.644 1.668-1.965 2.629-2.973.957-1.003 2.625-2.46 3.601-3.351.98-.902 1.246-2.32 2.633-3.383 1.39-1.059 1.852-1.934 2.711-2.758 1.383-1.324 3.398.969 2.125 2.192-1.23 1.18-1.926 2.136-3.004 3.113-1.07.973-2.187 1.633-2.922 2.84-.738 1.203-2.832 2.879-4.105 3.941-1.278 1.067-2.45 2.465-3.227 3.508-1.57 2.086-6.078 6.379-6.453 7.219-.383.844-2.379 2.84-3.02 3.617-.632.77-.82 1.312-2.109 2.918Zm23.05-29.668c1.454-1.39 4.134-3.313 4.72-3.852.59-.539 2.414-2.504 3.406-3.293.988-.78 1.46-.886 3.105-2.218 2.055-1.66 3.192-2.996 3.262-3.106.219-.32 1.008-1.375 2.442-2.422 1.918-1.394 2.293-2.058 3.199-2.61 1.644-.831 1.574-1.202 2.695-1.991 1.137-.797 1.738-1.418 2.715-1.95 1.074-.566 1.535-1.406 2.441-2.039 1.41-1.039 3.078 1.547 1.77 2.508-.793.582-1.7.844-2.524 1.461a22.29 22.29 0 0 0-2.257 1.953c-.743.739-2.536 1.883-3.817 2.985-1.281 1.11-3.347 3.015-4.894 4.218-1.547 1.211-2.957 1.434-5.676 4.454-.871.972-2.89 2.601-3.672 3.312-1.371 1.25-3.828 3.86-4.95 4.93-1.335 1.277-3.421-.95-1.964-2.34Zm29.99-21.137c-1.223.895-3.083-1.558-1.637-2.617 1.535-1.121 5.218-3.059 6.07-3.727.851-.664 2.992-2.824 3.781-3.351.781-.52 5.074-2.25 6.59-3.5 1.5-1.254 2.047-1.422 3.191-2.121 1.137-.696 3.051-1.625 4.176-2.207 1.129-.59 1.707-1.864 3.254-2.492 1.55-.63 2.184-1.332 3.18-1.883 1.605-.883 2.968 1.847 1.488 2.664-1.43.785-2.3 1.508-3.535 2.14-1.23.63-2.43.954-3.403 1.899-.972.941-3.335 1.965-4.793 2.633-1.457.664-2.906 1.68-3.89 2.468-1.992 1.567-7.344 4.47-7.91 5.172-.575.707-2.989 2.094-3.797 2.672-.8.57-1.117 1.04-2.766 2.25Zm60.847-37.054c1.527-.602 2.906 2.14 1.121 2.843-1.785.703-5.164 1.79-6.098 2.25-.937.469-4.843 2.371-5.672 2.746-.832.371-3.996 1.328-5.597 2.375-1.606 1.047-3.492 1.407-4.598 2.114-1.379.875-2.23 1.12-3.367 1.636-1.14.512-2.55 1.95-3.602 2.223-1.05.27-1.433.813-2.726 1.523-1.301.715-2.774-1.949-1.54-2.628a61.347 61.347 0 0 1 3.579-1.805c1.262-.598 2.789-1.34 4.133-2.024 1.218-.62 2.882-1.87 4.394-2.39 1.512-.528 3.621-1.438 4.469-1.797 1.062-.453 3.262-1.555 4.297-1.828 1.316-.352 3.332-1.574 4.015-2.149.692-.578 1.372-.476 3.07-1.246 1.009-.457 2.59-1.238 4.122-1.843Zm.476-.188c1.77-.695 4.813-1.398 5.524-1.66.707-.262 3.012-1.344 4.168-1.68 1.148-.332 1.61-.238 3.539-.82 2.41-.723 3.887-1.508 3.988-1.578.309-.215 1.375-.875 3.024-1.282 2.199-.539 2.77-1.003 3.773-1.164 1.762-.132 1.828-.496 3.11-.793 1.296-.296 2.054-.64 3.113-.75 1.164-.113 1.875-.71 2.91-.949 1.629-.414 2.215 2.602.703 2.989-.918.234-1.82.128-2.777.382-.961.258-1.782.543-2.707.934-.926.39-2.93.754-4.461 1.273-1.535.524-4.047 1.477-5.848 1.98-1.8.513-3.137.173-6.605 1.876-1.114.55-3.477 1.25-4.418 1.594-1.649.605-4.73 2.02-6.094 2.554-1.625.64-2.711-2.21-.942-2.906Zm34.122-7.75c-1.415.36-2.22-2.61-.547-3.035 1.77-.445 5.761-.828 6.765-1.121 1-.293 3.688-1.477 4.586-1.664.887-.184 5.371-.16 7.184-.75 1.797-.594 2.351-.543 3.633-.762 1.277-.215 3.34-.36 4.566-.477 1.23-.125 2.207-1.085 3.836-1.093 1.629-.004 2.453-.422 3.555-.559 1.773-.223 2.03 2.82.398 3.024-1.578.199-2.629.543-3.973.668-1.34.12-2.539-.028-3.757.484-1.22.508-3.72.57-5.274.64-1.55.07-3.219.465-4.387.82-2.351.7-8.199 1.352-8.957 1.79-.765.43-3.425.793-4.355 1.02-.918.218-1.371.535-3.273 1.015Zm34.007-9.516c1.868-.23 4.953-.156 5.696-.23.742-.078 3.215-.555 4.406-.594 1.183-.031 1.598.168 3.594.086 2.488-.105 4.101-.5 4.215-.543.347-.129 1.535-.508 3.218-.492 2.246.02 2.907-.293 3.91-.2 1.727.31 1.883-.027 3.188 0 1.316.032 2.133-.113 3.18.04 1.148.176 1.976-.227 3.03-.203 1.673-.004 1.5 3.066-.05 3.07-.941 0-1.785-.324-2.77-.313-.988.012-1.847.086-2.835.235-.985.152-3.004.012-4.602.137-1.602.128-4.25.433-6.102.472-1.855.055-3.058-.605-6.796.184-1.207.254-3.641.348-4.625.445-1.727.176-5.028.777-6.461.957-1.711.211-2.059-2.82-.196-3.05Zm69.364-.007c1.609.199 1.504 3.265-.375 3.035-1.88-.23-5.317-.895-6.34-.934-1.031-.031-5.301-.226-6.196-.297-.89-.07-4.066-.742-5.937-.59-1.871.149-3.66-.437-4.941-.347-1.594.11-2.438-.086-3.653-.184-1.219-.094-3.097.488-4.125.223-1.023-.27-1.605.02-3.043.02-1.441 0-1.453-3.044-.082-3.044 1.375 0 2.547.051 3.903.141 1.363.082 3.015.168 4.484.211 1.336.039 3.351-.258 4.894.008 1.543.265 3.79.476 4.688.566 1.129.11 3.543.192 4.562.445 1.301.32 3.618.211 4.477.032.871-.176 1.41.234 3.242.367 1.09.082 2.828.148 4.442.348Zm.5.062c1.863.234 4.84 1.067 5.582 1.172.738.11 3.254.254 4.422.508 1.156.258 1.511.558 3.468.965 2.446.511 4.11.523 4.23.507.372-.039 1.618-.109 3.25.317 2.184.574 2.903.433 3.856.773 1.61.723 1.84.434 3.106.782 1.277.359 2.105.418 3.09.824 1.074.457 1.984.27 3.003.554 1.633.41.707 3.344-.804 2.961-.918-.23-1.66-.754-2.621-.984a19.496 19.496 0 0 0-2.82-.473c-1-.093-2.93-.73-4.516-1.004-1.59-.27-4.242-.628-6.051-1.043-1.82-.406-2.828-1.34-6.656-1.492-1.23-.05-3.617-.558-4.598-.703-1.719-.258-5.066-.48-6.5-.66-1.71-.21-1.305-3.238.559-3.004Zm33.468 9.438c-1.414-.36-.703-3.352.97-2.926 1.769.449 5.464 2.015 6.487 2.238 1.024.223 3.957.469 4.84.73.875.262 4.824 2.43 6.711 2.782 1.875.34 2.344.648 3.582 1.074 1.235.422 3.137 1.285 4.281 1.773 1.153.48 2.477.106 3.93.883 1.45.785 2.383.817 3.43 1.227 1.683.66.457 3.453-1.098 2.844-1.496-.586-2.594-.79-3.851-1.329-1.25-.535-2.243-1.246-3.57-1.378-1.325-.141-3.571-1.29-4.981-1.973-1.41-.684-3.074-1.137-4.278-1.383-2.414-.512-7.886-2.73-8.765-2.71-.879.01-3.395-.938-4.324-1.184-.91-.247-1.461-.184-3.364-.668Zm34.641 7.941c1.77.7 4.484 2.258 5.184 2.55.703.294 3.136 1.075 4.218 1.618 1.075.543 1.348.926 3.172 1.82 2.278 1.121 3.91 1.563 4.031 1.578.375.059 1.622.309 3.122 1.145 2.003 1.113 2.75 1.168 3.605 1.742 1.402 1.117 1.703.899 2.863 1.563 1.168.68 1.97.953 2.84 1.605.945.719 1.887.774 2.824 1.316 1.508.829-.129 3.434-1.523 2.668-.848-.464-1.453-1.167-2.34-1.644a20.87 20.87 0 0 0-2.664-1.188c-.96-.351-2.703-1.468-4.195-2.144-1.504-.672-4.024-1.703-5.7-2.57-1.687-.86-2.445-2.028-6.167-3.153-1.2-.36-3.418-1.46-4.344-1.851-1.625-.684-4.856-1.75-6.215-2.285-1.625-.637-.48-3.47 1.289-2.77Zm30.578 17.746c-1.305-.719.133-3.437 1.676-2.59 1.633.899 4.894 3.395 5.851 3.875.954.485 3.793 1.5 4.598 1.989.797.484 4.168 3.64 5.945 4.484 1.77.832 2.157 1.258 3.282 2.004 1.117.742 2.785 2.094 3.797 2.875 1.02.781 2.43.773 3.675 1.926 1.243 1.152 2.16 1.437 3.098 2.125 1.504 1.101-.398 3.488-1.785 2.472-1.344-.98-2.38-1.476-3.492-2.344-1.106-.859-1.914-1.816-3.196-2.304-1.277-.496-3.215-2.215-4.441-3.258-1.227-1.043-2.762-1.926-3.89-2.484-2.262-1.145-7.118-4.746-7.989-4.957-.875-.223-3.121-1.805-3.973-2.286-.843-.476-1.398-.562-3.156-1.527Zm60.266 40.426c1.258 1.2-.64 3.61-2.11 2.21-1.468-1.402-4.011-4.144-4.859-4.831-.86-.688-4.379-3.567-5.098-4.192-.718-.62-3.015-3.175-4.699-4.23-1.676-1.063-2.844-2.66-3.98-3.387-1.418-.914-2.016-1.597-2.993-2.433-.972-.832-2.906-1.536-3.617-2.383-.703-.856-1.37-.98-2.582-1.871-1.218-.895.574-3.352 1.73-2.508a61.965 61.965 0 0 1 3.216 2.535c1.101.91 2.449 2.008 3.668 2.961 1.109.867 2.992 1.887 4.14 3.074 1.156 1.18 2.938 2.766 3.649 3.406.894.801 2.894 2.403 3.613 3.254.918 1.086 2.953 2.473 3.793 2.88.844.41 1.062 1.09 2.547 2.374.883.762 2.324 1.934 3.582 3.14Zm0 0"/><use xlink:href="#p" x="684" y="300"/><use xlink:href="#q" x="721.24" y="300"/><use xlink:href="#c" x="741.645" y="300"/><use xlink:href="#r" x="755.575" y="300"/><use xlink:href="#c" x="376" y="236"/><use xlink:href="#r" x="389.93" y="236"/><use xlink:href="#s" x="413.485" y="236"/><use xlink:href="#d" x="422.62" y="236"/><use xlink:href="#t" x="439.35" y="236"/><use xlink:href="#u" x="448.345" y="236"/><use xlink:href="#v" x="471.97" y="236"/><use xlink:href="#d" x="493.67" y="236"/><use xlink:href="#c" x="510.4" y="236"/><use xlink:href="#w" x="364" y="279"/><use xlink:href="#x" x="378.28" y="279"/><use xlink:href="#v" x="391.58" y="279"/><use xlink:href="#p" x="413.28" y="279"/><use xlink:href="#t" x="450.52" y="279"/><use xlink:href="#y" x="459.515" y="279"/><use xlink:href="#v" x="477.47" y="279"/><use xlink:href="#b" x="499.17" y="279"/><use xlink:href="#x" x="522.585" y="279"/><use xlink:href="#w" x="398" y="322"/><use xlink:href="#x" x="412.28" y="322"/><use xlink:href="#s" x="425.755" y="322"/><use xlink:href="#z" x="434.89" y="322"/><use xlink:href="#A" x="455.785" y="322"/><use xlink:href="#B" x="479.375" y="322"/><use xlink:href="#B" x="352" y="365"/><use xlink:href="#y" x="375.625" y="365"/><use xlink:href="#A" x="394.105" y="365"/><use xlink:href="#v" x="417.695" y="365"/><use xlink:href="#p" x="439.395" y="365"/><use xlink:href="#s" x="476.635" y="365"/><use xlink:href="#C" x="485.77" y="365"/><use xlink:href="#r" x="509.64" y="365"/><use xlink:href="#c" x="533.195" y="365"/><path d="M498.434 104.559c-.832-.84-1.832-2.106-.797-3.43 1.047-1.328 2.879-1.344 4.156-.063 1.281 1.29.281 1.547 3.187 4.582 1.079 1.125-1.082 3.29-2.16 2.165-2.562-2.676-2.84-1.7-4.386-3.254Zm2.05-4.797c1.551 1.539 1.61 2.703.496 3.894-1.156 1.23-2.57.914-3.93-.437-1.355-1.344-.644-1.95-2.976-4.149-1.254-1.172 1.078-3.199 2.102-2.222 2.476 2.375 2.758 1.375 4.308 2.914Zm2.403 8.129c-1.075-1.121 1.117-3.286 2.386-1.957 1.344 1.41 3.813 4.886 4.602 5.664.79.777 3.254 2.672 3.89 3.398.637.727 2.973 4.836 4.438 6.211 1.461 1.356 1.707 1.887 2.567 2.953.855 1.059 2.05 2.871 2.789 3.934.746 1.062 2.093 1.488 2.941 2.965.84 1.484 1.629 2.035 2.316 2.968 1.102 1.508-1.433 3.207-2.449 1.82-.984-1.34-1.824-2.128-2.629-3.296-.797-1.16-1.285-2.324-2.367-3.188-1.074-.867-2.426-3.117-3.297-4.504-.87-1.382-2.094-2.714-3.02-3.613-1.843-1.812-5.511-6.851-6.296-7.336-.79-.496-2.524-2.758-3.219-3.504-.684-.734-1.203-1-2.652-2.515Zm45.386 56.644c.801 1.453-1.742 3.172-2.68 1.473-.933-1.703-2.464-4.961-3.046-5.84-.594-.879-3.012-4.566-3.492-5.352-.485-.789-1.864-3.847-3.125-5.328-1.258-1.484-1.875-3.336-2.727-4.355-1.062-1.278-1.422-2.106-2.09-3.184-.672-1.082-2.297-2.324-2.715-3.344-.41-1.023-1.007-1.343-1.894-2.558-.89-1.219 1.558-3.024 2.406-1.867a60.504 60.504 0 0 1 2.293 3.379c.774 1.195 1.719 2.64 2.586 3.902.785 1.148 2.258 2.668 2.98 4.121.731 1.453 1.922 3.461 2.395 4.27.598 1.011 1.988 3.082 2.402 4.085.528 1.278 2.012 3.149 2.676 3.766.664.621.66 1.317 1.653 2.922.585.957 1.574 2.445 2.378 3.91Zm.25.453c.926 1.688 2.028 4.653 2.38 5.328.355.68 1.73 2.856 2.218 3.97.48 1.112.45 1.581 1.277 3.444 1.036 2.325 2.008 3.708 2.09 3.797.25.282 1.047 1.274 1.664 2.871.82 2.133 1.36 2.649 1.645 3.63.36 1.75.73 1.769 1.191 3.015.461 1.258.899 1.973 1.145 3.02.262 1.148.945 1.785 1.312 2.789.621 1.578-2.297 2.539-2.875 1.074-.347-.887-.36-1.805-.734-2.73-.379-.93-.77-1.716-1.274-2.594-.511-.875-1.132-2.836-1.843-4.301-.719-1.473-1.992-3.867-2.723-5.606-.746-1.742-.582-3.12-2.73-6.382-.688-1.051-1.696-3.329-2.164-4.231-.817-1.578-2.633-4.492-3.344-5.793-.852-1.55 1.84-2.992 2.765-1.3Zm25.762 65.477c.399 1.578-2.496 2.597-2.965.754-.468-1.844-1.105-5.305-1.445-6.281-.344-.977-1.723-5.055-1.984-5.918-.262-.864-.797-4.09-1.63-5.797-.823-1.703-.937-3.606-1.491-4.774-.688-1.465-.817-2.332-1.176-3.512-.36-1.18-1.598-2.742-1.73-3.804-.126-1.067-.614-1.508-1.145-2.863-.535-1.364 2.297-2.485 2.804-1.192a58.933 58.933 0 0 1 1.313 3.734c.426 1.313.957 2.907 1.457 4.305.457 1.274 1.477 3.063 1.793 4.613.324 1.547.95 3.735 1.2 4.614.308 1.101 1.116 3.398 1.253 4.449.18 1.34 1.125 3.469 1.61 4.215.48.75.296 1.406.84 3.172.323 1.047.894 2.703 1.296 4.285Zm.121.492c.465 1.828.774 4.914.942 5.645.168.73.945 3.136 1.136 4.316.18 1.176.032 1.613.36 3.586.414 2.469 1.004 4.023 1.062 4.129.172.332.692 1.469.883 3.144.262 2.239.649 2.856.684 3.868-.094 1.753.261 1.867.394 3.167.13 1.317.375 2.106.352 3.168-.035 1.16.468 1.938.574 2.989.207 1.66-2.86 1.867-3.05.324-.118-.934.1-1.813-.032-2.79a19.671 19.671 0 0 0-.586-2.788c-.273-.961-.379-2.988-.7-4.563-.327-1.578-.956-4.175-1.226-6.011-.281-1.84.227-3.118-1.023-6.746-.403-1.168-.797-3.583-1.016-4.551-.39-1.7-1.398-4.91-1.754-6.317-.426-1.68 2.54-2.398 3-.57Zm8.567 68.934c0 1.617-3.059 1.89-3.059 0 0-1.891.234-5.38.145-6.399-.09-1.027-.422-5.285-.465-6.18-.04-.894.238-4.125-.145-5.964-.375-1.84-.011-3.688-.258-4.95-.304-1.57-.214-2.433-.27-3.652-.054-1.219-.862-3.016-.726-4.066.14-1.051-.218-1.594-.394-3.024-.18-1.433 2.84-1.816 3.008-.453.171 1.367.261 2.535.343 3.895.086 1.363.203 3.015.34 4.48.125 1.332.672 3.293.594 4.86-.07 1.566-.008 3.82.016 4.722.03 1.133.242 3.54.117 4.582-.16 1.328.234 3.61.52 4.445.28.84-.063 1.426.03 3.258.055 1.09.204 2.82.204 4.446Zm-3.078.226c0-1.449 3.078-1.496 3.078.219-.004 1.816-.618 5.758-.578 6.797.035 1.039.52 3.922.48 4.832-.035.906-1.16 5.23-1.035 7.125.133 1.883-.05 2.406-.156 3.703-.106 1.285-.47 3.32-.657 4.535-.183 1.223.508 2.402.118 3.98-.399 1.579-.196 2.481-.332 3.583-.223 1.773-3.235 1.277-3.032-.356.196-1.578.121-2.68.332-4.015.207-1.329.649-2.45.45-3.754-.192-1.305.363-3.743.675-5.262.317-1.52.34-3.227.282-4.442-.098-2.445.707-8.25.472-9.09-.23-.843.07-3.495.082-4.449.016-.941-.18-1.453-.18-3.406Zm.863 35.207c-.235 1.863-1.067 4.836-1.176 5.578-.11.739-.258 3.258-.508 4.422-.261 1.156-.558 1.512-.969 3.469-.511 2.445-.527 4.11-.511 4.23.039.372.11 1.618-.317 3.25-.574 2.184-.437 2.903-.773 3.856-.727 1.605-.438 1.84-.79 3.105-.355 1.278-.417 2.106-.823 3.09-.453 1.074-.27 1.98-.555 3.004-.414 1.633-3.344.707-2.961-.808.23-.915.754-1.66.988-2.622.235-.964.371-1.824.473-2.82.094-.996.73-2.926 1.008-4.512.27-1.593.629-4.246 1.047-6.054.402-1.817 1.34-2.825 1.496-6.653.05-1.23.558-3.617.707-4.597.254-1.719.48-5.067.66-6.5.215-1.711 3.238-1.301 3.004.562Zm-17.235 67.625c-.597 1.528-3.543.664-2.843-1.12.699-1.782 2.21-4.99 2.508-5.981.289-1 1.554-5.133 1.843-5.989.293-.855 1.742-3.793 2.059-5.66.328-1.867 1.344-3.472 1.574-4.742.293-1.586.691-2.36 1.086-3.523.395-1.164.3-3.145.809-4.079.52-.933.379-1.574.738-2.972.355-1.406 3.308-.664 2.969.668a56.773 56.773 0 0 1-1.106 3.773c-.418 1.309-.91 2.903-1.32 4.324-.371 1.297-.582 3.336-1.227 4.778-.64 1.445-1.406 3.586-1.718 4.445-.391 1.074-1.079 3.414-1.579 4.348-.636 1.195-1.113 3.488-1.156 4.379-.047.894-.582 1.32-1.176 3.082-.351 1.047-.855 2.734-1.46 4.27Zm-.183.473c-.7 1.77-2.262 4.484-2.555 5.183-.293.704-1.078 3.137-1.62 4.22-.548 1.07-.927 1.347-1.821 3.167-1.125 2.278-1.567 3.91-1.582 4.035-.059.371-.309 1.618-1.145 3.118-1.117 2.003-1.172 2.75-1.746 3.605-1.121 1.402-.898 1.703-1.566 2.863-.68 1.168-.953 1.969-1.606 2.836-.722.95-.777 1.89-1.32 2.828-.828 1.504-3.434-.132-2.664-1.527.465-.848 1.164-1.45 1.64-2.34.48-.894.836-1.707 1.196-2.664.351-.957 1.469-2.703 2.144-4.195.672-1.5 1.707-4.02 2.575-5.696.859-1.687 2.027-2.445 3.156-6.168.36-1.195 1.46-3.414 1.851-4.34.688-1.624 1.754-4.855 2.29-6.214.64-1.625 3.468-.48 2.773 1.289Zm-34.434 62.422c-1 1.367-3.633-.207-2.465-1.805 1.168-1.598 3.504-4.398 4.063-5.309.555-.921 2.894-4.699 3.406-5.472.512-.774 2.707-3.324 3.512-5.09.812-1.766 2.226-3.098 2.785-4.297.703-1.492 1.297-2.16 1.988-3.21.688-1.052 1.117-3.028 1.856-3.825.746-.79.781-1.457 1.492-2.75.715-1.297 3.387.16 2.707 1.394a59.508 59.508 0 0 1-2.059 3.45 159.643 159.643 0 0 0-2.418 3.941c-.703 1.188-1.449 3.149-2.46 4.414-1.004 1.27-2.317 3.195-2.848 3.969-.668.965-1.961 3.11-2.7 3.914-.94 1.023-2.019 3.176-2.3 4.043-.29.875-.926 1.168-1.977 2.766-.625.953-1.578 2.496-2.582 3.867Zm-.312.426c-1.16 1.582-3.426 3.89-3.903 4.511-.48.625-1.914 2.848-2.742 3.785-.828.934-1.273 1.114-2.656 2.704-1.727 1.984-2.613 3.496-2.664 3.617-.16.355-.754 1.531-1.992 2.816-1.657 1.719-1.918 2.445-2.719 3.156-1.492 1.121-1.363 1.473-2.344 2.465-.996.996-1.488 1.727-2.375 2.434-.976.765-1.3 1.687-2.101 2.488-1.239 1.297-3.328-.957-2.176-2.164.695-.727 1.555-1.16 2.277-1.926.723-.773 1.301-1.496 1.922-2.36.617-.866 2.203-2.331 3.285-3.648 1.082-1.328 2.797-3.582 4.114-5.03 1.312-1.47 2.664-1.938 4.793-5.356.687-1.098 2.37-3.028 3.007-3.852 1.114-1.441 3.035-4.383 3.93-5.598 1.066-1.453 3.508.375 2.344 1.958Zm-51.016 53.226c-1.332 1.07-3.469-1.137-1.914-2.383 1.555-1.25 4.574-3.383 5.363-4.129.786-.754 4.094-3.855 4.809-4.488.715-.633 3.562-2.586 4.848-4.129 1.285-1.535 3.046-2.508 3.937-3.558 1.113-1.305 1.883-1.825 2.863-2.7.977-.879 1.965-2.742 2.922-3.355.957-.61 1.184-1.262 2.25-2.375 1.074-1.121 3.278.98 2.258 2.039a62.587 62.587 0 0 1-3.008 2.934c-1.074 1-2.375 2.226-3.504 3.332-1.027 1.007-2.316 2.77-3.664 3.77-1.34 1.007-3.164 2.581-3.898 3.206-.922.79-2.777 2.57-3.715 3.168-1.2.77-2.836 2.602-3.348 3.375-.515.781-1.214.906-2.668 2.195-.859.766-2.195 2.024-3.53 3.098Zm-2.113-2.25c1.191-.953 3.156 1.414 1.746 2.543-1.496 1.195-5.117 3.309-5.945 4.016-.829.71-2.887 2.968-3.66 3.535-.762.558-5.004 2.488-6.473 3.808-1.453 1.32-1.996 1.516-3.117 2.27-1.114.746-2.996 1.766-4.106 2.398-1.105.641-1.633 1.942-3.16 2.645-1.531.695-2.137 1.43-3.117 2.023-1.574.957-3.051-1.714-1.602-2.597 1.403-.852 2.25-1.614 3.465-2.301 1.207-.688 2.399-1.063 3.336-2.055.938-.988 3.27-2.117 4.703-2.851 1.438-.735 2.848-1.817 3.805-2.653 1.937-1.66 7.191-4.812 7.734-5.547.547-.73 2.914-2.234 3.703-2.851.782-.606 1.082-1.094 2.688-2.383ZM447.25 540.72c-1.656 1.004-4.582 2.238-5.25 2.625-.664.383-2.79 1.86-3.887 2.398-1.097.528-1.57.52-3.402 1.434-2.285 1.136-3.633 2.172-3.723 2.258-.273.265-1.23 1.105-2.808 1.793-2.106.918-2.598 1.476-3.57 1.808-1.739.434-1.747.805-2.973 1.324-1.246.516-1.942.985-2.98 1.278-1.141.312-1.75 1.023-2.743 1.433-1.559.692-2.64-2.183-1.195-2.828.875-.387 1.793-.437 2.703-.855a20.368 20.368 0 0 0 2.547-1.387c.86-.547 2.797-1.254 4.238-2.031 1.445-.785 3.797-2.164 5.512-2.977 1.71-.82 3.101-.719 6.285-3.015 1.023-.735 3.27-1.848 4.152-2.356 1.551-.887 4.403-2.836 5.676-3.61 1.52-.921 3.074 1.704 1.418 2.708Zm-64.559 28.64c-1.562.47-2.703-2.382-.878-2.93 1.828-.546 5.265-1.331 6.23-1.71.965-.387 4.988-1.942 5.844-2.239.855-.3 4.066-.976 5.738-1.878 1.676-.899 3.574-1.094 4.723-1.7 1.437-.75 2.3-.918 3.468-1.328 1.168-.414 2.684-1.715 3.743-1.894 1.062-.176 1.484-.68 2.824-1.274 1.344-.593 2.582 2.188 1.308 2.75a56.764 56.764 0 0 1-3.691 1.477 181.662 181.662 0 0 0-4.25 1.648c-1.258.512-3.008 1.61-4.547 1.992-1.539.391-3.703 1.114-4.574 1.399-1.09.36-3.36 1.262-4.406 1.445-1.332.235-3.426 1.274-4.153 1.79-.73.511-1.398.355-3.144.976-1.035.367-2.668 1.008-4.235 1.476Zm-.488.145c-1.812.539-4.887.98-5.613 1.18-.723.199-3.098 1.078-4.27 1.316-1.172.23-1.617.102-3.578.516-2.453.515-3.984 1.172-4.09 1.234-.32.184-1.437.754-3.105 1.016-2.23.355-2.832.77-3.84.843-1.762-.02-1.86.34-3.156.528-1.309.183-2.09.46-3.153.484-1.164.016-1.918.55-2.964.7-1.657.277-1.989-2.778-.454-3.036.93-.156 1.817.024 2.79-.148a20.05 20.05 0 0 0 2.765-.7c.95-.316 2.973-.507 4.531-.894 1.567-.39 4.141-1.129 5.97-1.477 1.827-.359 3.128.094 6.706-1.308 1.153-.45 3.551-.946 4.512-1.207 1.687-.461 4.86-1.606 6.254-2.024 1.664-.496 2.508 2.438.695 2.977Zm-34.496 4.82c1.434-.238 1.988 2.79.293 3.07-1.797.297-5.797.344-6.816.551-1.02.207-3.786 1.16-4.692 1.274-.902.11-5.355-.29-7.207.148-1.836.438-2.383.344-3.676.453-1.289.11-3.351.082-4.582.098-1.234.023-2.285.898-3.906.773-1.621-.132-2.476.215-3.582.262-1.785.074-1.793-2.98-.148-3.05 1.586-.063 2.66-.321 4.007-.333 1.344-.011 2.524.239 3.778-.175 1.258-.403 3.75-.254 5.3-.196 1.551.059 3.239-.195 4.43-.453 2.399-.5 8.262-.664 9.051-1.031.8-.367 3.473-.508 4.414-.653.93-.144 1.406-.417 3.336-.738Zm-34.605 6.645c-1.872.074-4.938-.254-5.684-.242-.746.015-3.25.285-4.438.226-1.18-.066-1.578-.3-3.57-.383-2.488-.101-4.129.16-4.246.196-.355.097-1.57.375-3.246.218-2.238-.203-2.922.051-3.914-.125-1.695-.449-1.879-.125-3.18-.261-1.308-.141-2.133-.063-3.164-.301-1.133-.274-1.992.062-3.039-.05-1.672-.138-1.242-3.18.305-3.056.937.079 1.75.47 2.734.54a19.74 19.74 0 0 0 2.844.003c.996-.074 2.996.235 4.598.246 1.609 0 4.277-.082 6.12.032 1.856.101 2.997.86 6.79.379 1.218-.153 3.652-.043 4.64-.059 1.735-.031 5.07-.36 6.512-.418 1.719-.07 1.813 2.98-.062 3.055Zm-34.45-3.805c1.446.117 1.239 3.191-.468 3.047-1.813-.152-5.696-1.086-6.735-1.137-1.039-.047-3.953.2-4.86.086-.898-.113-5.12-1.594-7.026-1.625-1.891-.023-2.399-.25-3.684-.46-1.277-.212-3.274-.743-4.473-1.032-1.207-.281-2.441.312-3.988-.211-1.543-.531-2.461-.402-3.55-.629-1.755-.367-1.013-3.328.605-2.992 1.562.328 2.668.344 3.984.664 1.309.316 2.395.848 3.715.758 1.316-.082 3.703.676 5.195 1.113 1.488.438 3.192.606 4.41.649 2.45.101 8.176 1.382 9.032 1.218.863-.16 3.484.36 4.433.45.938.09 1.461-.063 3.41.101Zm-35.21-2.05c-1.844-.391-4.75-1.47-5.481-1.637-.73-.172-3.234-.528-4.379-.88-1.137-.355-1.465-.683-3.39-1.253-2.399-.715-4.063-.871-4.188-.864-.371.004-1.625-.027-3.223-.593-2.136-.754-2.867-.68-3.793-1.098-1.547-.855-1.804-.59-3.043-1.043-1.246-.465-2.07-.598-3.023-1.086-1.04-.547-1.961-.437-2.961-.808-1.602-.551-.434-3.395 1.05-2.883.9.308 1.602.894 2.544 1.207.949.316 1.793.527 2.785.71.988.18 2.867.977 4.43 1.387 1.574.403 4.195.985 5.968 1.551 1.785.559 2.715 1.578 6.532 2.051 1.226.152 3.57.86 4.535 1.09 1.699.398 5.027.902 6.445 1.2 1.691.355 1.031 3.335-.809 2.948Zm-32.688-12.243c1.383.477.426 3.402-1.211 2.836-1.734-.602-5.309-2.484-6.316-2.793-1.004-.309-3.922-.809-4.786-1.144-.851-.34-4.632-2.84-6.492-3.356-1.851-.504-2.293-.851-3.504-1.387-1.203-.527-3.035-1.558-4.14-2.144-1.118-.582-2.477-.324-3.871-1.227-1.387-.91-2.32-1.023-3.336-1.527-1.637-.809-.172-3.488 1.332-2.742 1.457.718 2.543 1.02 3.754 1.668 1.21.644 2.148 1.437 3.468 1.691 1.317.254 3.473 1.598 4.828 2.402 1.356.805 2.985 1.403 4.172 1.75 2.38.723 7.676 3.41 8.555 3.465.883.067 3.324 1.227 4.23 1.555.895.32 1.45.309 3.317.953Zm-64.805-28.734c-1.398-.934.063-3.633 1.7-2.543 1.632 1.09 4.515 3.289 5.44 3.8.938.512 4.79 2.672 5.583 3.145.793.477 3.414 2.547 5.207 3.274 1.789.726 3.172 2.074 4.387 2.582 1.515.632 2.203 1.195 3.277 1.835 1.074.637 3.059.977 3.879 1.68.82.707 1.484.711 2.797 1.363 1.324.657-.02 3.387-1.274 2.766a59.332 59.332 0 0 1-3.515-1.898 163.08 163.08 0 0 0-4.024-2.239c-1.207-.644-3.191-1.3-4.492-2.25-1.3-.945-3.273-2.168-4.062-2.664-.993-.617-3.176-1.808-4.004-2.508-1.059-.89-3.243-1.867-4.118-2.109-.878-.246-1.195-.867-2.828-1.844-.972-.578-2.547-1.453-3.953-2.39Zm-.433-.293c-1.621-1.082-4.008-3.23-4.645-3.68-.637-.445-2.906-1.77-3.871-2.55-.96-.782-1.156-1.22-2.793-2.52-2.043-1.625-3.582-2.438-3.703-2.48-.36-.145-1.55-.68-2.879-1.852-1.773-1.563-2.508-1.79-3.246-2.555-1.172-1.43-1.52-1.285-2.543-2.21-1.027-.946-1.773-1.403-2.512-2.25-.797-.934-1.726-1.212-2.554-1.97-1.34-1.172.824-3.359 2.066-2.27.75.657 1.21 1.493 2.004 2.173a21.988 21.988 0 0 0 2.422 1.8c.886.57 2.402 2.079 3.754 3.094 1.363 1.012 3.671 2.614 5.164 3.852 1.511 1.238 2.03 2.562 5.515 4.523 1.118.63 3.106 2.219 3.95 2.813 1.48 1.043 4.476 2.82 5.726 3.656 1.484.992-.238 3.512-1.855 2.426Zm-26.895-24.535c1.16 1.02-.832 3.367-2.203 2.164-1.45-1.278-4.207-4.516-5.063-5.223-.859-.707-3.492-2.387-4.199-3.066-.703-.672-3.441-4.61-5.047-5.875-1.601-1.25-1.898-1.762-2.863-2.766-.965-1-2.344-2.727-3.183-3.738-.852-1.008-2.247-1.328-3.239-2.75-.984-1.426-1.832-1.914-2.61-2.801-1.25-1.426 1.13-3.34 2.282-2.027 1.113 1.27 2.035 1.996 2.953 3.105.914 1.106 1.516 2.238 2.684 3.02 1.164.785 2.742 2.945 3.75 4.27 1.012 1.323 2.367 2.57 3.383 3.398 2.035 1.68 6.168 6.41 6.996 6.828.832.425 2.758 2.527 3.515 3.207.743.668 1.282.886 2.844 2.254ZM67.863 456.16c-.933-1.398 1.45-3.332 2.54-1.7 1.093 1.634 2.925 4.786 3.59 5.618.675.836 3.437 4.344 3.995 5.098.555.754 2.223 3.715 3.625 5.101 1.399 1.391 2.192 3.203 3.145 4.164 1.183 1.196 1.625 2 2.398 3.032.774 1.03 2.52 2.152 3.035 3.144.512.996 1.141 1.27 2.145 2.422 1.012 1.152-1.27 3.164-2.23 2.07a62.845 62.845 0 0 1-2.626-3.21 165.905 165.905 0 0 0-2.96-3.72c-.895-1.093-2.516-2.5-3.38-3.906-.867-1.398-2.25-3.324-2.8-4.097-.692-.969-2.278-2.938-2.785-3.914-.649-1.242-2.309-3-3.028-3.563-.722-.57-.78-1.273-1.922-2.804-.68-.915-1.804-2.329-2.742-3.735Zm2.426-1.906c.836 1.254-1.695 3.004-2.684 1.523-1.046-1.57-2.804-5.312-3.43-6.187-.628-.875-2.679-3.09-3.167-3.895-.485-.8-2.012-5.14-3.192-6.699-1.18-1.543-1.324-2.094-1.968-3.262-.645-1.16-1.485-3.101-2.016-4.246-.535-1.148-1.777-1.773-2.34-3.34-.554-1.566-1.23-2.226-1.734-3.242-.809-1.633 1.98-2.879 2.726-1.37.723 1.452 1.403 2.35 1.977 3.609.574 1.25.84 2.453 1.742 3.46.895 1.008 1.805 3.403 2.406 4.88.598 1.476 1.547 2.956 2.286 3.968 1.472 2.043 4.117 7.485 4.796 8.078.672.602 1.946 3.055 2.485 3.883.531.816.984 1.152 2.113 2.84Zm-20.727-29.746c-.847-1.719-1.82-4.711-2.14-5.403-.324-.687-1.602-2.91-2.04-4.039-.429-1.125-.378-1.593-1.128-3.48-.93-2.356-1.84-3.77-1.918-3.867-.238-.29-.988-1.309-1.535-2.926-.73-2.16-1.242-2.691-1.489-3.68-.28-1.758-.652-1.793-1.058-3.054-.406-1.27-.813-2-1.016-3.055-.21-1.156-.867-1.817-1.191-2.832-.55-1.598 2.406-2.434 2.918-.953.312.898.285 1.812.62 2.75.337.941.696 1.742 1.161 2.636.469.891 1.004 2.872 1.652 4.36.657 1.496 1.825 3.933 2.477 5.695.668 1.762.445 3.13 2.445 6.465.645 1.074 1.551 3.383 1.977 4.297.746 1.605 2.43 4.582 3.082 5.902.781 1.578-1.969 2.906-2.816 1.184Zm-22.921-66.285c-.336-1.59 2.597-2.489 2.992-.63.39 1.856.883 5.337 1.18 6.321.304.992 1.511 5.113 1.738 5.984.222.872.62 4.11 1.379 5.844.754 1.735.785 3.633 1.289 4.82.625 1.485.718 2.356 1.027 3.547.309 1.192 1.477 2.797 1.566 3.864.079 1.066.547 1.527 1.02 2.902.477 1.379-2.398 2.379-2.852 1.07a58.95 58.95 0 0 1-1.152-3.777c-.367-1.324-.832-2.93-1.273-4.348-.403-1.289-1.344-3.11-1.594-4.668-.258-1.558-.793-3.765-1-4.648-.266-1.113-.973-3.434-1.066-4.488-.125-1.344-.98-3.504-1.43-4.266-.453-.77-.238-1.418-.711-3.2-.277-1.058-.777-2.73-1.113-4.327Zm-.106-.496c-.383-1.844-.566-4.934-.703-5.668-.137-.735-.816-3.168-.953-4.352-.133-1.18.035-1.613-.215-3.594-.309-2.476-.836-4.054-.89-4.164-.157-.336-.63-1.492-.754-3.172-.168-2.242-.532-2.879-.52-3.886.164-1.75-.188-1.875-.266-3.18-.078-1.316-.289-2.117-.222-3.176.082-1.16-.39-1.953-.453-3.008-.137-1.668 2.933-1.746 3.066-.199.078.938-.176 1.805-.086 2.785.094.985.242 1.84.469 2.809.234.973.258 2.996.515 4.582.262 1.59.782 4.207.973 6.05.207 1.848-.351 3.102.746 6.774.352 1.18.649 3.606.828 4.578.317 1.711 1.192 4.957 1.489 6.375.355 1.692-2.637 2.29-3.024.446Zm-5.723-69.168c.063-1.618 3.13-1.766 3.055.12-.078 1.891-.453 5.368-.41 6.391.055 1.032.211 5.297.215 6.192.004.894-.406 4.113-.102 5.965.301 1.851-.136 3.683.059 4.953.238 1.578.113 2.437.121 3.656.004 1.219.738 3.05.559 4.094-.184 1.043.152 1.597.273 3.03.117 1.442-2.918 1.7-3.027.333a57.052 57.052 0 0 1-.184-3.902c-.031-1.364-.082-3.02-.156-4.489-.07-1.336-.535-3.316-.395-4.879.137-1.558.16-3.812.176-4.714.016-1.133-.098-3.543.07-4.582.215-1.325-.086-3.618-.336-4.461-.246-.852.118-1.426.102-3.258-.012-1.09-.086-2.828-.02-4.45Zm3.083-.102c-.063 1.445-3.137 1.367-3.067-.344.078-1.816.852-5.73.856-6.77.003-1.038-.36-3.94-.286-4.85.075-.903 1.38-5.18 1.329-7.079-.055-1.89.148-2.406.308-3.7.156-1.28.606-3.296.844-4.507.23-1.215-.414-2.422.043-3.984.465-1.563.3-2.477.48-3.57.293-1.766 3.285-1.145 3.016.48-.262 1.57-.23 2.676-.496 4-.266 1.32-.75 2.426-.606 3.738.141 1.313-.515 3.727-.89 5.23-.38 1.508-.473 3.215-.465 4.434-.004 2.45-1.043 8.215-.84 9.067.192.851-.219 3.492-.27 4.445-.05.937.122 1.457.044 3.41Zm.582-35.234c.308-1.856 1.265-4.797 1.402-5.536.14-.734.39-3.246.691-4.402.309-1.148.621-1.488 1.11-3.433.613-2.422.699-4.09.687-4.211-.023-.371-.043-1.625.457-3.243.66-2.156.555-2.886.93-3.824.793-1.578.516-1.824.918-3.078.41-1.262.504-2.086.953-3.055.5-1.058.352-1.976.68-2.988.484-1.617 3.375-.57 2.925.93-.27.91-.824 1.633-1.097 2.582a20.1 20.1 0 0 0-.59 2.805c-.137.996-.855 2.902-1.195 4.476-.336 1.586-.805 4.223-1.297 6.016-.48 1.804-1.461 2.773-1.774 6.597-.101 1.23-.707 3.598-.894 4.57-.328 1.712-.692 5.051-.93 6.477-.285 1.703-3.289 1.168-2.976-.683Zm20.07-67.004c.664-1.508 3.574-.528 2.797 1.234-.782 1.762-2.426 4.91-2.766 5.895-.336.992-1.773 5.078-2.101 5.922-.329.847-1.903 3.73-2.301 5.59-.406 1.855-1.489 3.417-1.774 4.683-.359 1.574-.793 2.336-1.234 3.484-.445 1.149-.434 3.137-.98 4.051-.56.91-.446 1.559-.864 2.945-.414 1.395-3.336.532-2.937-.793a56.53 56.53 0 0 1 1.261-3.73 160.982 160.982 0 0 0 1.504-4.277c.422-1.282.723-3.317 1.43-4.735.7-1.418 1.559-3.535 1.906-4.379.434-1.062 1.223-3.379 1.762-4.297.688-1.171 1.262-3.449 1.344-4.335.086-.895.64-1.301 1.308-3.043.395-1.036.977-2.704 1.645-4.215Zm.207-.473c.777-1.742 2.453-4.402 2.777-5.09.324-.691 1.215-3.097 1.805-4.16.594-1.055.984-1.312 1.96-3.105 1.224-2.235 1.74-3.856 1.763-3.977.074-.375.379-1.613 1.28-3.082 1.208-1.965 1.298-2.71 1.907-3.543 1.184-1.363.977-1.672 1.695-2.809.73-1.144 1.043-1.937 1.735-2.785.761-.918.863-1.86 1.449-2.777.895-1.48 3.426.266 2.594 1.637-.5.832-1.23 1.41-1.746 2.28-.52.88-.914 1.677-1.317 2.622-.39.95-1.59 2.652-2.332 4.121-.738 1.48-1.883 3.965-2.828 5.61-.934 1.656-2.133 2.37-3.426 6.054-.414 1.188-1.613 3.367-2.043 4.278-.757 1.601-1.965 4.792-2.558 6.136-.711 1.602-3.489.336-2.715-1.41Zm37.27-61.226c1.066-1.332 3.632.351 2.386 1.91-1.246 1.554-3.719 4.277-4.32 5.168-.598.902-3.113 4.597-3.664 5.355-.551.758-2.864 3.227-3.754 4.969-.895 1.738-2.367 3.02-2.984 4.2-.77 1.468-1.395 2.116-2.133 3.144-.739 1.023-1.254 2.992-2.032 3.757-.78.766-.847 1.434-1.617 2.7-.773 1.273-3.379-.297-2.644-1.508a58.379 58.379 0 0 1 2.215-3.375c.804-1.16 1.77-2.578 2.601-3.856.754-1.164 1.59-3.105 2.66-4.332 1.063-1.234 2.469-3.113 3.035-3.867.711-.945 2.106-3.047 2.883-3.82.989-.992 2.168-3.11 2.492-3.969.329-.867.98-1.137 2.11-2.7.672-.925 1.695-2.44 2.765-3.776Zm2.55 1.734c-.957 1.191-3.39-.692-2.258-2.102 1.2-1.492 4.293-4.363 4.954-5.242.66-.879 2.207-3.562 2.847-4.293.633-.722 4.418-3.597 5.598-5.246 1.172-1.644 1.668-1.965 2.629-2.973.957-1.003 2.625-2.46 3.601-3.351.98-.902 1.246-2.32 2.633-3.383 1.39-1.059 1.852-1.934 2.711-2.758 1.383-1.324 3.398.969 2.125 2.192-1.23 1.18-1.926 2.136-3.004 3.113-1.07.973-2.187 1.633-2.922 2.84-.738 1.203-2.832 2.879-4.105 3.941-1.278 1.067-2.45 2.465-3.227 3.508-1.57 2.086-6.078 6.379-6.453 7.219-.383.844-2.379 2.84-3.02 3.617-.632.77-.82 1.312-2.109 2.918Zm23.051-29.668c1.453-1.39 4.133-3.313 4.719-3.852.59-.539 2.414-2.504 3.406-3.293.988-.78 1.46-.886 3.105-2.218 2.055-1.66 3.192-2.996 3.262-3.106.219-.32 1.008-1.375 2.442-2.422 1.918-1.394 2.293-2.058 3.199-2.61 1.644-.831 1.574-1.202 2.695-1.991 1.137-.797 1.738-1.418 2.715-1.95 1.074-.566 1.535-1.406 2.441-2.039 1.41-1.039 3.078 1.547 1.77 2.508-.793.582-1.7.844-2.524 1.461a22.29 22.29 0 0 0-2.257 1.953c-.743.739-2.536 1.883-3.817 2.985-1.281 1.11-3.347 3.015-4.894 4.218-1.547 1.211-2.957 1.434-5.676 4.454-.871.972-2.89 2.601-3.672 3.312-1.371 1.25-3.828 3.86-4.95 4.93-1.335 1.277-3.421-.95-1.964-2.34Zm29.988-21.137c-1.222.895-3.082-1.558-1.636-2.617 1.535-1.121 5.218-3.059 6.07-3.727.851-.664 2.992-2.824 3.781-3.351.781-.52 5.074-2.25 6.59-3.5 1.5-1.254 2.047-1.422 3.191-2.121 1.137-.696 3.051-1.625 4.176-2.207 1.13-.59 1.707-1.864 3.254-2.492 1.55-.63 2.184-1.332 3.18-1.883 1.605-.883 2.969 1.847 1.488 2.664-1.426.785-2.3 1.508-3.535 2.14-1.23.63-2.43.954-3.402 1.899-.973.941-3.336 1.965-4.793 2.633-1.457.664-2.907 1.68-3.891 2.468-1.992 1.567-7.344 4.47-7.91 5.172-.574.707-2.988 2.094-3.797 2.672-.8.57-1.117 1.04-2.766 2.25Zm60.848-37.054c1.527-.602 2.906 2.14 1.121 2.843-1.785.703-5.168 1.79-6.098 2.25-.937.469-4.843 2.371-5.672 2.746-.832.371-3.996 1.328-5.597 2.375-1.606 1.047-3.492 1.407-4.598 2.114-1.379.875-2.23 1.12-3.367 1.636-1.14.512-2.55 1.95-3.602 2.223-1.05.27-1.433.813-2.726 1.523-1.3.715-2.774-1.949-1.543-2.628a62.71 62.71 0 0 1 3.582-1.805c1.262-.598 2.789-1.34 4.133-2.024 1.219-.62 2.879-1.87 4.394-2.39 1.512-.528 3.621-1.438 4.469-1.797 1.063-.453 3.262-1.555 4.297-1.828 1.316-.352 3.332-1.574 4.016-2.149.69-.578 1.37-.476 3.07-1.246 1.008-.457 2.59-1.238 4.12-1.843Zm.476-.188c1.77-.695 4.813-1.398 5.524-1.66.707-.262 3.012-1.344 4.168-1.68 1.148-.332 1.61-.238 3.539-.82 2.41-.723 3.887-1.508 3.988-1.578.309-.215 1.375-.875 3.024-1.282 2.199-.539 2.77-1.003 3.773-1.164 1.762-.132 1.828-.496 3.11-.793 1.296-.296 2.054-.64 3.113-.75 1.164-.113 1.875-.71 2.91-.949 1.629-.414 2.215 2.602.703 2.989-.918.234-1.82.128-2.777.382-.961.258-1.782.543-2.707.934-.926.39-2.93.754-4.461 1.273-1.535.524-4.047 1.477-5.848 1.98-1.8.513-3.137.173-6.605 1.876-1.114.55-3.477 1.25-4.418 1.594-1.649.605-4.73 2.02-6.094 2.554-1.625.64-2.711-2.21-.941-2.906Zm34.122-7.75c-1.414.36-2.22-2.61-.547-3.035 1.77-.445 5.761-.828 6.765-1.121 1-.293 3.688-1.477 4.586-1.664.887-.184 5.371-.16 7.184-.75 1.797-.594 2.351-.543 3.633-.762 1.277-.215 3.34-.36 4.566-.477 1.23-.125 2.207-1.085 3.836-1.093 1.629-.004 2.453-.422 3.555-.559 1.773-.223 2.031 2.82.398 3.024-1.578.199-2.629.543-3.973.668-1.34.12-2.539-.028-3.757.484-1.22.508-3.72.57-5.274.64-1.55.07-3.219.465-4.386.82-2.352.7-8.2 1.352-8.958 1.79-.765.43-3.425.793-4.355 1.02-.918.218-1.371.535-3.273 1.015Zm34.007-9.516c1.868-.23 4.954-.156 5.696-.23.742-.078 3.215-.555 4.406-.594 1.184-.031 1.598.168 3.594.086 2.488-.105 4.101-.5 4.215-.543.347-.129 1.535-.508 3.218-.492 2.246.02 2.907-.293 3.91-.2 1.727.31 1.883-.027 3.188 0 1.316.032 2.133-.113 3.18.04 1.148.176 1.976-.227 3.03-.203 1.673-.004 1.5 3.066-.05 3.07-.941 0-1.785-.324-2.77-.313-.988.012-1.847.086-2.835.235-.985.152-3.004.012-4.602.137-1.601.128-4.25.433-6.101.472-1.856.055-3.06-.605-6.797.184-1.207.254-3.641.348-4.625.445-1.73.176-5.028.777-6.461.957-1.711.211-2.059-2.82-.196-3.05Zm69.364-.007c1.61.199 1.504 3.265-.375 3.035-1.88-.23-5.317-.895-6.34-.934-1.031-.031-5.3-.226-6.195-.297-.891-.07-4.067-.742-5.938-.59-1.871.149-3.66-.437-4.941-.347-1.594.11-2.438-.086-3.653-.184-1.218-.094-3.097.488-4.125.223-1.023-.27-1.605.02-3.043.02-1.441 0-1.453-3.044-.082-3.044 1.375 0 2.547.051 3.903.141 1.363.082 3.015.168 4.484.211 1.336.039 3.352-.258 4.895.008 1.543.265 3.789.476 4.687.566 1.129.11 3.543.192 4.563.445 1.3.32 3.617.211 4.476.032.871-.176 1.41.234 3.242.367 1.09.082 2.828.148 4.442.348Zm.5.062c1.863.234 4.84 1.067 5.582 1.172.738.11 3.254.254 4.422.508 1.156.258 1.511.558 3.468.965 2.446.511 4.11.523 4.23.507.372-.039 1.618-.109 3.25.317 2.184.574 2.903.433 3.856.773 1.61.723 1.84.434 3.106.782 1.277.359 2.105.418 3.09.824 1.074.457 1.984.27 3.003.554 1.633.41.708 3.344-.804 2.961-.918-.23-1.66-.754-2.621-.984a19.496 19.496 0 0 0-2.82-.473c-1-.093-2.93-.73-4.516-1.004-1.59-.27-4.242-.628-6.051-1.043-1.82-.406-2.828-1.34-6.656-1.492-1.23-.05-3.617-.558-4.598-.703-1.719-.258-5.066-.48-6.5-.66-1.71-.21-1.305-3.238.559-3.004Zm33.468 9.438c-1.414-.36-.703-3.352.965-2.926 1.774.449 5.469 2.015 6.492 2.238 1.024.223 3.957.469 4.84.73.875.262 4.825 2.43 6.711 2.782 1.875.34 2.344.648 3.582 1.074 1.235.422 3.137 1.285 4.282 1.773 1.152.48 2.476.106 3.93.883 1.448.785 2.382.817 3.429 1.227 1.683.66.457 3.453-1.098 2.844-1.496-.586-2.594-.79-3.851-1.329-1.25-.535-2.243-1.246-3.57-1.378-1.325-.141-3.57-1.29-4.981-1.973-1.41-.684-3.074-1.137-4.277-1.383-2.414-.512-7.887-2.73-8.766-2.71-.879.01-3.395-.938-4.324-1.184-.91-.247-1.461-.184-3.364-.668Zm34.641 7.941c1.77.7 4.484 2.258 5.184 2.55.703.294 3.136 1.075 4.218 1.618 1.075.543 1.348.926 3.172 1.82 2.278 1.121 3.91 1.563 4.032 1.578.375.059 1.62.309 3.12 1.145 2.005 1.113 2.75 1.168 3.606 1.742 1.402 1.117 1.703.899 2.863 1.563 1.168.68 1.97.953 2.84 1.605.946.719 1.887.774 2.824 1.316 1.508.829-.128 3.434-1.523 2.668-.848-.464-1.453-1.167-2.34-1.644a20.87 20.87 0 0 0-2.664-1.188c-.96-.351-2.703-1.468-4.195-2.144-1.504-.672-4.024-1.703-5.7-2.57-1.687-.86-2.445-2.028-6.167-3.153-1.2-.36-3.418-1.46-4.344-1.851-1.625-.684-4.856-1.75-6.215-2.285-1.625-.637-.48-3.47 1.29-2.77Zm30.578 17.746c-1.305-.719.133-3.437 1.676-2.59 1.633.899 4.894 3.395 5.852 3.875.953.485 3.793 1.5 4.597 1.989.797.484 4.168 3.64 5.945 4.484 1.77.832 2.157 1.258 3.282 2.004 1.117.742 2.785 2.094 3.797 2.875 1.02.781 2.43.773 3.675 1.926 1.243 1.152 2.16 1.437 3.098 2.125 1.504 1.101-.398 3.488-1.785 2.472-1.344-.98-2.379-1.476-3.492-2.344-1.106-.859-1.914-1.816-3.196-2.304-1.277-.496-3.214-2.215-4.441-3.258-1.227-1.043-2.762-1.926-3.89-2.484-2.262-1.145-7.118-4.746-7.989-4.957-.875-.223-3.121-1.805-3.973-2.286-.843-.476-1.398-.562-3.156-1.527Zm60.27 40.426c1.254 1.2-.645 3.61-2.114 2.21-1.468-1.402-4.011-4.144-4.859-4.831-.86-.688-4.379-3.567-5.098-4.192-.718-.62-3.015-3.175-4.699-4.23-1.676-1.063-2.844-2.66-3.98-3.387-1.418-.914-2.016-1.597-2.992-2.433-.973-.832-2.907-1.536-3.618-2.383-.703-.856-1.37-.98-2.582-1.871-1.218-.895.575-3.352 1.73-2.508a61.964 61.964 0 0 1 3.216 2.535c1.101.91 2.449 2.008 3.668 2.961 1.109.867 2.992 1.887 4.14 3.074 1.156 1.18 2.938 2.766 3.649 3.406.894.801 2.894 2.403 3.613 3.254.918 1.086 2.953 2.473 3.793 2.88.844.41 1.062 1.09 2.547 2.374.883.762 2.324 1.934 3.586 3.14Zm0 0"/></svg>