<?xml version="1.0" encoding="utf-8" standalone="no"?>
<!DOCTYPE svg PUBLIC "-//W3C//DTD SVG 1.1//EN"
  "http://www.w3.org/Graphics/SVG/1.1/DTD/svg11.dtd">
<svg height="252pt" version="1.1" viewBox="0 0 432 252" width="432pt" xmlns="http://www.w3.org/2000/svg" xmlns:xlink="http://www.w3.org/1999/xlink">
 <metadata>
  <rdf:RDF xmlns:cc="http://creativecommons.org/ns#" xmlns:dc="http://purl.org/dc/elements/1.1/" xmlns:rdf="http://www.w3.org/1999/02/22-rdf-syntax-ns#">
   <cc:Work>
    <dc:type rdf:resource="http://purl.org/dc/dcmitype/StillImage"/>
    <dc:date>2021-11-08T16:38:13.663716</dc:date>
    <dc:format>image/svg+xml</dc:format>
    <dc:creator>
     <cc:Agent>
      <dc:title>Matplotlib v3.4.1, https://matplotlib.org/</dc:title>
     </cc:Agent>
    </dc:creator>
   </cc:Work>
  </rdf:RDF>
 </metadata>
 <defs>
  <style type="text/css">*{stroke-linecap:butt;stroke-linejoin:round;}</style>
 </defs>
 <g id="figure_1">
  <g id="patch_1">
   <path d="M 0 252 
L 432 252 
L 432 0 
L 0 0 
z
" style="fill:#ffffff;"/>
  </g>
  <g id="axes_1">
   <g id="patch_2">
    <path d="M 57.17 224.12 
L 226.620065 224.12 
L 226.620065 50.64 
L 57.17 50.64 
z
" style="fill:#ffffff;"/>
   </g>
   <g id="matplotlib.axis_1">
    <g id="xtick_1">
     <g id="text_1">
      <!-- 2010 -->
      <g transform="translate(86.807516 238.718437)scale(0.1 -0.1)">
       <defs>
        <path d="M 1228 531 
L 3431 531 
L 3431 0 
L 469 0 
L 469 531 
Q 828 903 1448 1529 
Q 2069 2156 2228 2338 
Q 2531 2678 2651 2914 
Q 2772 3150 2772 3378 
Q 2772 3750 2511 3984 
Q 2250 4219 1831 4219 
Q 1534 4219 1204 4116 
Q 875 4013 500 3803 
L 500 4441 
Q 881 4594 1212 4672 
Q 1544 4750 1819 4750 
Q 2544 4750 2975 4387 
Q 3406 4025 3406 3419 
Q 3406 3131 3298 2873 
Q 3191 2616 2906 2266 
Q 2828 2175 2409 1742 
Q 1991 1309 1228 531 
z
" id="DejaVuSans-32" transform="scale(0.015625)"/>
        <path d="M 2034 4250 
Q 1547 4250 1301 3770 
Q 1056 3291 1056 2328 
Q 1056 1369 1301 889 
Q 1547 409 2034 409 
Q 2525 409 2770 889 
Q 3016 1369 3016 2328 
Q 3016 3291 2770 3770 
Q 2525 4250 2034 4250 
z
M 2034 4750 
Q 2819 4750 3233 4129 
Q 3647 3509 3647 2328 
Q 3647 1150 3233 529 
Q 2819 -91 2034 -91 
Q 1250 -91 836 529 
Q 422 1150 422 2328 
Q 422 3509 836 4129 
Q 1250 4750 2034 4750 
z
" id="DejaVuSans-30" transform="scale(0.015625)"/>
        <path d="M 794 531 
L 1825 531 
L 1825 4091 
L 703 3866 
L 703 4441 
L 1819 4666 
L 2450 4666 
L 2450 531 
L 3481 531 
L 3481 0 
L 794 0 
L 794 531 
z
" id="DejaVuSans-31" transform="scale(0.015625)"/>
       </defs>
       <use xlink:href="#DejaVuSans-32"/>
       <use x="63.623047" xlink:href="#DejaVuSans-30"/>
       <use x="127.246094" xlink:href="#DejaVuSans-31"/>
       <use x="190.869141" xlink:href="#DejaVuSans-30"/>
      </g>
     </g>
    </g>
    <g id="xtick_2">
     <g id="text_2">
      <!-- 2015 -->
      <g transform="translate(147.325397 238.718437)scale(0.1 -0.1)">
       <defs>
        <path d="M 691 4666 
L 3169 4666 
L 3169 4134 
L 1269 4134 
L 1269 2991 
Q 1406 3038 1543 3061 
Q 1681 3084 1819 3084 
Q 2600 3084 3056 2656 
Q 3513 2228 3513 1497 
Q 3513 744 3044 326 
Q 2575 -91 1722 -91 
Q 1428 -91 1123 -41 
Q 819 9 494 109 
L 494 744 
Q 775 591 1075 516 
Q 1375 441 1709 441 
Q 2250 441 2565 725 
Q 2881 1009 2881 1497 
Q 2881 1984 2565 2268 
Q 2250 2553 1709 2553 
Q 1456 2553 1204 2497 
Q 953 2441 691 2322 
L 691 4666 
z
" id="DejaVuSans-35" transform="scale(0.015625)"/>
       </defs>
       <use xlink:href="#DejaVuSans-32"/>
       <use x="63.623047" xlink:href="#DejaVuSans-30"/>
       <use x="127.246094" xlink:href="#DejaVuSans-31"/>
       <use x="190.869141" xlink:href="#DejaVuSans-35"/>
      </g>
     </g>
    </g>
    <g id="xtick_3">
     <g id="text_3">
      <!-- 2020 -->
      <g transform="translate(207.843277 238.718437)scale(0.1 -0.1)">
       <use xlink:href="#DejaVuSans-32"/>
       <use x="63.623047" xlink:href="#DejaVuSans-30"/>
       <use x="127.246094" xlink:href="#DejaVuSans-32"/>
       <use x="190.869141" xlink:href="#DejaVuSans-30"/>
      </g>
     </g>
    </g>
   </g>
   <g id="matplotlib.axis_2">
    <g id="ytick_1">
     <g id="text_4">
      <!-- 0 -->
      <g transform="translate(43.8075 227.919219)scale(0.1 -0.1)">
       <use xlink:href="#DejaVuSans-30"/>
      </g>
     </g>
    </g>
    <g id="ytick_2">
     <g id="text_5">
      <!-- 200 -->
      <g transform="translate(31.0825 202.500904)scale(0.1 -0.1)">
       <use xlink:href="#DejaVuSans-32"/>
       <use x="63.623047" xlink:href="#DejaVuSans-30"/>
       <use x="127.246094" xlink:href="#DejaVuSans-30"/>
      </g>
     </g>
    </g>
    <g id="ytick_3">
     <g id="text_6">
      <!-- 400 -->
      <g transform="translate(31.0825 177.082589)scale(0.1 -0.1)">
       <defs>
        <path d="M 2419 4116 
L 825 1625 
L 2419 1625 
L 2419 4116 
z
M 2253 4666 
L 3047 4666 
L 3047 1625 
L 3713 1625 
L 3713 1100 
L 3047 1100 
L 3047 0 
L 2419 0 
L 2419 1100 
L 313 1100 
L 313 1709 
L 2253 4666 
z
" id="DejaVuSans-34" transform="scale(0.015625)"/>
       </defs>
       <use xlink:href="#DejaVuSans-34"/>
       <use x="63.623047" xlink:href="#DejaVuSans-30"/>
       <use x="127.246094" xlink:href="#DejaVuSans-30"/>
      </g>
     </g>
    </g>
    <g id="ytick_4">
     <g id="text_7">
      <!-- 600 -->
      <g transform="translate(31.0825 151.664274)scale(0.1 -0.1)">
       <defs>
        <path d="M 2113 2584 
Q 1688 2584 1439 2293 
Q 1191 2003 1191 1497 
Q 1191 994 1439 701 
Q 1688 409 2113 409 
Q 2538 409 2786 701 
Q 3034 994 3034 1497 
Q 3034 2003 2786 2293 
Q 2538 2584 2113 2584 
z
M 3366 4563 
L 3366 3988 
Q 3128 4100 2886 4159 
Q 2644 4219 2406 4219 
Q 1781 4219 1451 3797 
Q 1122 3375 1075 2522 
Q 1259 2794 1537 2939 
Q 1816 3084 2150 3084 
Q 2853 3084 3261 2657 
Q 3669 2231 3669 1497 
Q 3669 778 3244 343 
Q 2819 -91 2113 -91 
Q 1303 -91 875 529 
Q 447 1150 447 2328 
Q 447 3434 972 4092 
Q 1497 4750 2381 4750 
Q 2619 4750 2861 4703 
Q 3103 4656 3366 4563 
z
" id="DejaVuSans-36" transform="scale(0.015625)"/>
       </defs>
       <use xlink:href="#DejaVuSans-36"/>
       <use x="63.623047" xlink:href="#DejaVuSans-30"/>
       <use x="127.246094" xlink:href="#DejaVuSans-30"/>
      </g>
     </g>
    </g>
    <g id="ytick_5">
     <g id="text_8">
      <!-- 800 -->
      <g transform="translate(31.0825 126.245959)scale(0.1 -0.1)">
       <defs>
        <path d="M 2034 2216 
Q 1584 2216 1326 1975 
Q 1069 1734 1069 1313 
Q 1069 891 1326 650 
Q 1584 409 2034 409 
Q 2484 409 2743 651 
Q 3003 894 3003 1313 
Q 3003 1734 2745 1975 
Q 2488 2216 2034 2216 
z
M 1403 2484 
Q 997 2584 770 2862 
Q 544 3141 544 3541 
Q 544 4100 942 4425 
Q 1341 4750 2034 4750 
Q 2731 4750 3128 4425 
Q 3525 4100 3525 3541 
Q 3525 3141 3298 2862 
Q 3072 2584 2669 2484 
Q 3125 2378 3379 2068 
Q 3634 1759 3634 1313 
Q 3634 634 3220 271 
Q 2806 -91 2034 -91 
Q 1263 -91 848 271 
Q 434 634 434 1313 
Q 434 1759 690 2068 
Q 947 2378 1403 2484 
z
M 1172 3481 
Q 1172 3119 1398 2916 
Q 1625 2713 2034 2713 
Q 2441 2713 2670 2916 
Q 2900 3119 2900 3481 
Q 2900 3844 2670 4047 
Q 2441 4250 2034 4250 
Q 1625 4250 1398 4047 
Q 1172 3844 1172 3481 
z
" id="DejaVuSans-38" transform="scale(0.015625)"/>
       </defs>
       <use xlink:href="#DejaVuSans-38"/>
       <use x="63.623047" xlink:href="#DejaVuSans-30"/>
       <use x="127.246094" xlink:href="#DejaVuSans-30"/>
      </g>
     </g>
    </g>
    <g id="ytick_6">
     <g id="text_9">
      <!-- 1000 -->
      <g transform="translate(24.72 100.827644)scale(0.1 -0.1)">
       <use xlink:href="#DejaVuSans-31"/>
       <use x="63.623047" xlink:href="#DejaVuSans-30"/>
       <use x="127.246094" xlink:href="#DejaVuSans-30"/>
       <use x="190.869141" xlink:href="#DejaVuSans-30"/>
      </g>
     </g>
    </g>
    <g id="ytick_7">
     <g id="text_10">
      <!-- 1200 -->
      <g transform="translate(24.72 75.409329)scale(0.1 -0.1)">
       <use xlink:href="#DejaVuSans-31"/>
       <use x="63.623047" xlink:href="#DejaVuSans-32"/>
       <use x="127.246094" xlink:href="#DejaVuSans-30"/>
       <use x="190.869141" xlink:href="#DejaVuSans-30"/>
      </g>
     </g>
    </g>
    <g id="text_11">
     <!-- Number of people -->
     <g transform="translate(18.640313 182.413594)rotate(-90)scale(0.1 -0.1)">
      <defs>
       <path d="M 628 4666 
L 1478 4666 
L 3547 763 
L 3547 4666 
L 4159 4666 
L 4159 0 
L 3309 0 
L 1241 3903 
L 1241 0 
L 628 0 
L 628 4666 
z
" id="DejaVuSans-4e" transform="scale(0.015625)"/>
       <path d="M 544 1381 
L 544 3500 
L 1119 3500 
L 1119 1403 
Q 1119 906 1312 657 
Q 1506 409 1894 409 
Q 2359 409 2629 706 
Q 2900 1003 2900 1516 
L 2900 3500 
L 3475 3500 
L 3475 0 
L 2900 0 
L 2900 538 
Q 2691 219 2414 64 
Q 2138 -91 1772 -91 
Q 1169 -91 856 284 
Q 544 659 544 1381 
z
M 1991 3584 
L 1991 3584 
z
" id="DejaVuSans-75" transform="scale(0.015625)"/>
       <path d="M 3328 2828 
Q 3544 3216 3844 3400 
Q 4144 3584 4550 3584 
Q 5097 3584 5394 3201 
Q 5691 2819 5691 2113 
L 5691 0 
L 5113 0 
L 5113 2094 
Q 5113 2597 4934 2840 
Q 4756 3084 4391 3084 
Q 3944 3084 3684 2787 
Q 3425 2491 3425 1978 
L 3425 0 
L 2847 0 
L 2847 2094 
Q 2847 2600 2669 2842 
Q 2491 3084 2119 3084 
Q 1678 3084 1418 2786 
Q 1159 2488 1159 1978 
L 1159 0 
L 581 0 
L 581 3500 
L 1159 3500 
L 1159 2956 
Q 1356 3278 1631 3431 
Q 1906 3584 2284 3584 
Q 2666 3584 2933 3390 
Q 3200 3197 3328 2828 
z
" id="DejaVuSans-6d" transform="scale(0.015625)"/>
       <path d="M 3116 1747 
Q 3116 2381 2855 2742 
Q 2594 3103 2138 3103 
Q 1681 3103 1420 2742 
Q 1159 2381 1159 1747 
Q 1159 1113 1420 752 
Q 1681 391 2138 391 
Q 2594 391 2855 752 
Q 3116 1113 3116 1747 
z
M 1159 2969 
Q 1341 3281 1617 3432 
Q 1894 3584 2278 3584 
Q 2916 3584 3314 3078 
Q 3713 2572 3713 1747 
Q 3713 922 3314 415 
Q 2916 -91 2278 -91 
Q 1894 -91 1617 61 
Q 1341 213 1159 525 
L 1159 0 
L 581 0 
L 581 4863 
L 1159 4863 
L 1159 2969 
z
" id="DejaVuSans-62" transform="scale(0.015625)"/>
       <path d="M 3597 1894 
L 3597 1613 
L 953 1613 
Q 991 1019 1311 708 
Q 1631 397 2203 397 
Q 2534 397 2845 478 
Q 3156 559 3463 722 
L 3463 178 
Q 3153 47 2828 -22 
Q 2503 -91 2169 -91 
Q 1331 -91 842 396 
Q 353 884 353 1716 
Q 353 2575 817 3079 
Q 1281 3584 2069 3584 
Q 2775 3584 3186 3129 
Q 3597 2675 3597 1894 
z
M 3022 2063 
Q 3016 2534 2758 2815 
Q 2500 3097 2075 3097 
Q 1594 3097 1305 2825 
Q 1016 2553 972 2059 
L 3022 2063 
z
" id="DejaVuSans-65" transform="scale(0.015625)"/>
       <path d="M 2631 2963 
Q 2534 3019 2420 3045 
Q 2306 3072 2169 3072 
Q 1681 3072 1420 2755 
Q 1159 2438 1159 1844 
L 1159 0 
L 581 0 
L 581 3500 
L 1159 3500 
L 1159 2956 
Q 1341 3275 1631 3429 
Q 1922 3584 2338 3584 
Q 2397 3584 2469 3576 
Q 2541 3569 2628 3553 
L 2631 2963 
z
" id="DejaVuSans-72" transform="scale(0.015625)"/>
       <path id="DejaVuSans-20" transform="scale(0.015625)"/>
       <path d="M 1959 3097 
Q 1497 3097 1228 2736 
Q 959 2375 959 1747 
Q 959 1119 1226 758 
Q 1494 397 1959 397 
Q 2419 397 2687 759 
Q 2956 1122 2956 1747 
Q 2956 2369 2687 2733 
Q 2419 3097 1959 3097 
z
M 1959 3584 
Q 2709 3584 3137 3096 
Q 3566 2609 3566 1747 
Q 3566 888 3137 398 
Q 2709 -91 1959 -91 
Q 1206 -91 779 398 
Q 353 888 353 1747 
Q 353 2609 779 3096 
Q 1206 3584 1959 3584 
z
" id="DejaVuSans-6f" transform="scale(0.015625)"/>
       <path d="M 2375 4863 
L 2375 4384 
L 1825 4384 
Q 1516 4384 1395 4259 
Q 1275 4134 1275 3809 
L 1275 3500 
L 2222 3500 
L 2222 3053 
L 1275 3053 
L 1275 0 
L 697 0 
L 697 3053 
L 147 3053 
L 147 3500 
L 697 3500 
L 697 3744 
Q 697 4328 969 4595 
Q 1241 4863 1831 4863 
L 2375 4863 
z
" id="DejaVuSans-66" transform="scale(0.015625)"/>
       <path d="M 1159 525 
L 1159 -1331 
L 581 -1331 
L 581 3500 
L 1159 3500 
L 1159 2969 
Q 1341 3281 1617 3432 
Q 1894 3584 2278 3584 
Q 2916 3584 3314 3078 
Q 3713 2572 3713 1747 
Q 3713 922 3314 415 
Q 2916 -91 2278 -91 
Q 1894 -91 1617 61 
Q 1341 213 1159 525 
z
M 3116 1747 
Q 3116 2381 2855 2742 
Q 2594 3103 2138 3103 
Q 1681 3103 1420 2742 
Q 1159 2381 1159 1747 
Q 1159 1113 1420 752 
Q 1681 391 2138 391 
Q 2594 391 2855 752 
Q 3116 1113 3116 1747 
z
" id="DejaVuSans-70" transform="scale(0.015625)"/>
       <path d="M 603 4863 
L 1178 4863 
L 1178 0 
L 603 0 
L 603 4863 
z
" id="DejaVuSans-6c" transform="scale(0.015625)"/>
      </defs>
      <use xlink:href="#DejaVuSans-4e"/>
      <use x="74.804688" xlink:href="#DejaVuSans-75"/>
      <use x="138.183594" xlink:href="#DejaVuSans-6d"/>
      <use x="235.595703" xlink:href="#DejaVuSans-62"/>
      <use x="299.072266" xlink:href="#DejaVuSans-65"/>
      <use x="360.595703" xlink:href="#DejaVuSans-72"/>
      <use x="401.708984" xlink:href="#DejaVuSans-20"/>
      <use x="433.496094" xlink:href="#DejaVuSans-6f"/>
      <use x="494.677734" xlink:href="#DejaVuSans-66"/>
      <use x="529.882812" xlink:href="#DejaVuSans-20"/>
      <use x="561.669922" xlink:href="#DejaVuSans-70"/>
      <use x="625.146484" xlink:href="#DejaVuSans-65"/>
      <use x="686.669922" xlink:href="#DejaVuSans-6f"/>
      <use x="747.851562" xlink:href="#DejaVuSans-70"/>
      <use x="811.328125" xlink:href="#DejaVuSans-6c"/>
      <use x="839.111328" xlink:href="#DejaVuSans-65"/>
     </g>
    </g>
   </g>
   <g id="line2d_1">
    <path clip-path="url(#pcf419b2217)" d="M 63.221788 184.340337 
L 75.325364 190.313641 
L 87.42894 190.694916 
L 99.532516 186.755077 
L 111.636092 187.898901 
L 123.739668 185.229978 
L 135.843244 187.644718 
L 147.946821 190.059458 
L 160.050397 195.270212 
L 172.153973 195.651487 
L 184.257549 200.099692 
L 196.361125 205.437538 
L 208.464701 211.029568 
L 220.568277 207.343912 
" style="fill:none;stroke:#8d8d8d;stroke-linecap:square;stroke-opacity:0.9;stroke-width:1.5;"/>
    <defs>
     <path d="M 0 0.75 
C 0.198902 0.75 0.389685 0.670975 0.53033 0.53033 
C 0.670975 0.389685 0.75 0.198902 0.75 0 
C 0.75 -0.198902 0.670975 -0.389685 0.53033 -0.53033 
C 0.389685 -0.670975 0.198902 -0.75 0 -0.75 
C -0.198902 -0.75 -0.389685 -0.670975 -0.53033 -0.53033 
C -0.670975 -0.389685 -0.75 -0.198902 -0.75 0 
C -0.75 0.198902 -0.670975 0.389685 -0.53033 0.53033 
C -0.389685 0.670975 -0.198902 0.75 0 0.75 
z
" id="mfbd19c5e6d" style="stroke:#8d8d8d;stroke-opacity:0.9;"/>
    </defs>
    <g clip-path="url(#pcf419b2217)">
     <use style="fill:#8d8d8d;fill-opacity:0.9;stroke:#8d8d8d;stroke-opacity:0.9;" x="63.221788" xlink:href="#mfbd19c5e6d" y="184.340337"/>
     <use style="fill:#8d8d8d;fill-opacity:0.9;stroke:#8d8d8d;stroke-opacity:0.9;" x="75.325364" xlink:href="#mfbd19c5e6d" y="190.313641"/>
     <use style="fill:#8d8d8d;fill-opacity:0.9;stroke:#8d8d8d;stroke-opacity:0.9;" x="87.42894" xlink:href="#mfbd19c5e6d" y="190.694916"/>
     <use style="fill:#8d8d8d;fill-opacity:0.9;stroke:#8d8d8d;stroke-opacity:0.9;" x="99.532516" xlink:href="#mfbd19c5e6d" y="186.755077"/>
     <use style="fill:#8d8d8d;fill-opacity:0.9;stroke:#8d8d8d;stroke-opacity:0.9;" x="111.636092" xlink:href="#mfbd19c5e6d" y="187.898901"/>
     <use style="fill:#8d8d8d;fill-opacity:0.9;stroke:#8d8d8d;stroke-opacity:0.9;" x="123.739668" xlink:href="#mfbd19c5e6d" y="185.229978"/>
     <use style="fill:#8d8d8d;fill-opacity:0.9;stroke:#8d8d8d;stroke-opacity:0.9;" x="135.843244" xlink:href="#mfbd19c5e6d" y="187.644718"/>
     <use style="fill:#8d8d8d;fill-opacity:0.9;stroke:#8d8d8d;stroke-opacity:0.9;" x="147.946821" xlink:href="#mfbd19c5e6d" y="190.059458"/>
     <use style="fill:#8d8d8d;fill-opacity:0.9;stroke:#8d8d8d;stroke-opacity:0.9;" x="160.050397" xlink:href="#mfbd19c5e6d" y="195.270212"/>
     <use style="fill:#8d8d8d;fill-opacity:0.9;stroke:#8d8d8d;stroke-opacity:0.9;" x="172.153973" xlink:href="#mfbd19c5e6d" y="195.651487"/>
     <use style="fill:#8d8d8d;fill-opacity:0.9;stroke:#8d8d8d;stroke-opacity:0.9;" x="184.257549" xlink:href="#mfbd19c5e6d" y="200.099692"/>
     <use style="fill:#8d8d8d;fill-opacity:0.9;stroke:#8d8d8d;stroke-opacity:0.9;" x="196.361125" xlink:href="#mfbd19c5e6d" y="205.437538"/>
     <use style="fill:#8d8d8d;fill-opacity:0.9;stroke:#8d8d8d;stroke-opacity:0.9;" x="208.464701" xlink:href="#mfbd19c5e6d" y="211.029568"/>
     <use style="fill:#8d8d8d;fill-opacity:0.9;stroke:#8d8d8d;stroke-opacity:0.9;" x="220.568277" xlink:href="#mfbd19c5e6d" y="207.343912"/>
    </g>
   </g>
   <g id="line2d_2">
    <path clip-path="url(#pcf419b2217)" d="M 63.221788 223.103267 
L 75.325364 222.086535 
L 87.42894 222.340718 
L 99.532516 223.357451 
L 111.636092 223.103267 
L 123.739668 222.721993 
L 135.843244 222.849084 
L 147.946821 223.103267 
L 160.050397 222.721993 
L 172.153973 222.213626 
L 184.257549 223.357451 
L 196.361125 223.230359 
L 208.464701 223.865817 
L 220.568277 222.976176 
" style="fill:none;stroke:#297fda;stroke-linecap:square;stroke-opacity:0.9;stroke-width:1.5;"/>
    <defs>
     <path d="M 0 0.75 
C 0.198902 0.75 0.389685 0.670975 0.53033 0.53033 
C 0.670975 0.389685 0.75 0.198902 0.75 0 
C 0.75 -0.198902 0.670975 -0.389685 0.53033 -0.53033 
C 0.389685 -0.670975 0.198902 -0.75 0 -0.75 
C -0.198902 -0.75 -0.389685 -0.670975 -0.53033 -0.53033 
C -0.670975 -0.389685 -0.75 -0.198902 -0.75 0 
C -0.75 0.198902 -0.670975 0.389685 -0.53033 0.53033 
C -0.389685 0.670975 -0.198902 0.75 0 0.75 
z
" id="mf3391d3f6d" style="stroke:#297fda;stroke-opacity:0.9;"/>
    </defs>
    <g clip-path="url(#pcf419b2217)">
     <use style="fill:#297fda;fill-opacity:0.9;stroke:#297fda;stroke-opacity:0.9;" x="63.221788" xlink:href="#mf3391d3f6d" y="223.103267"/>
     <use style="fill:#297fda;fill-opacity:0.9;stroke:#297fda;stroke-opacity:0.9;" x="75.325364" xlink:href="#mf3391d3f6d" y="222.086535"/>
     <use style="fill:#297fda;fill-opacity:0.9;stroke:#297fda;stroke-opacity:0.9;" x="87.42894" xlink:href="#mf3391d3f6d" y="222.340718"/>
     <use style="fill:#297fda;fill-opacity:0.9;stroke:#297fda;stroke-opacity:0.9;" x="99.532516" xlink:href="#mf3391d3f6d" y="223.357451"/>
     <use style="fill:#297fda;fill-opacity:0.9;stroke:#297fda;stroke-opacity:0.9;" x="111.636092" xlink:href="#mf3391d3f6d" y="223.103267"/>
     <use style="fill:#297fda;fill-opacity:0.9;stroke:#297fda;stroke-opacity:0.9;" x="123.739668" xlink:href="#mf3391d3f6d" y="222.721993"/>
     <use style="fill:#297fda;fill-opacity:0.9;stroke:#297fda;stroke-opacity:0.9;" x="135.843244" xlink:href="#mf3391d3f6d" y="222.849084"/>
     <use style="fill:#297fda;fill-opacity:0.9;stroke:#297fda;stroke-opacity:0.9;" x="147.946821" xlink:href="#mf3391d3f6d" y="223.103267"/>
     <use style="fill:#297fda;fill-opacity:0.9;stroke:#297fda;stroke-opacity:0.9;" x="160.050397" xlink:href="#mf3391d3f6d" y="222.721993"/>
     <use style="fill:#297fda;fill-opacity:0.9;stroke:#297fda;stroke-opacity:0.9;" x="172.153973" xlink:href="#mf3391d3f6d" y="222.213626"/>
     <use style="fill:#297fda;fill-opacity:0.9;stroke:#297fda;stroke-opacity:0.9;" x="184.257549" xlink:href="#mf3391d3f6d" y="223.357451"/>
     <use style="fill:#297fda;fill-opacity:0.9;stroke:#297fda;stroke-opacity:0.9;" x="196.361125" xlink:href="#mf3391d3f6d" y="223.230359"/>
     <use style="fill:#297fda;fill-opacity:0.9;stroke:#297fda;stroke-opacity:0.9;" x="208.464701" xlink:href="#mf3391d3f6d" y="223.865817"/>
     <use style="fill:#297fda;fill-opacity:0.9;stroke:#297fda;stroke-opacity:0.9;" x="220.568277" xlink:href="#mf3391d3f6d" y="222.976176"/>
    </g>
   </g>
   <g id="line2d_3">
    <path clip-path="url(#pcf419b2217)" d="M 63.221788 214.333949 
L 75.325364 220.688527 
L 87.42894 216.367414 
L 99.532516 223.103267 
L 111.636092 219.417612 
L 123.739668 219.544703 
L 135.843244 217.129963 
L 147.946821 221.069802 
L 160.050397 218.909245 
L 172.153973 222.721993 
L 184.257549 220.688527 
L 196.361125 223.230359 
L 208.464701 223.992908 
L 220.568277 223.357451 
" style="fill:none;stroke:#ff8a46;stroke-linecap:square;stroke-opacity:0.9;stroke-width:1.5;"/>
    <defs>
     <path d="M 0 0.75 
C 0.198902 0.75 0.389685 0.670975 0.53033 0.53033 
C 0.670975 0.389685 0.75 0.198902 0.75 0 
C 0.75 -0.198902 0.670975 -0.389685 0.53033 -0.53033 
C 0.389685 -0.670975 0.198902 -0.75 0 -0.75 
C -0.198902 -0.75 -0.389685 -0.670975 -0.53033 -0.53033 
C -0.670975 -0.389685 -0.75 -0.198902 -0.75 0 
C -0.75 0.198902 -0.670975 0.389685 -0.53033 0.53033 
C -0.389685 0.670975 -0.198902 0.75 0 0.75 
z
" id="m6bde4b1e52" style="stroke:#ff8a46;stroke-opacity:0.9;"/>
    </defs>
    <g clip-path="url(#pcf419b2217)">
     <use style="fill:#ff8a46;fill-opacity:0.9;stroke:#ff8a46;stroke-opacity:0.9;" x="63.221788" xlink:href="#m6bde4b1e52" y="214.333949"/>
     <use style="fill:#ff8a46;fill-opacity:0.9;stroke:#ff8a46;stroke-opacity:0.9;" x="75.325364" xlink:href="#m6bde4b1e52" y="220.688527"/>
     <use style="fill:#ff8a46;fill-opacity:0.9;stroke:#ff8a46;stroke-opacity:0.9;" x="87.42894" xlink:href="#m6bde4b1e52" y="216.367414"/>
     <use style="fill:#ff8a46;fill-opacity:0.9;stroke:#ff8a46;stroke-opacity:0.9;" x="99.532516" xlink:href="#m6bde4b1e52" y="223.103267"/>
     <use style="fill:#ff8a46;fill-opacity:0.9;stroke:#ff8a46;stroke-opacity:0.9;" x="111.636092" xlink:href="#m6bde4b1e52" y="219.417612"/>
     <use style="fill:#ff8a46;fill-opacity:0.9;stroke:#ff8a46;stroke-opacity:0.9;" x="123.739668" xlink:href="#m6bde4b1e52" y="219.544703"/>
     <use style="fill:#ff8a46;fill-opacity:0.9;stroke:#ff8a46;stroke-opacity:0.9;" x="135.843244" xlink:href="#m6bde4b1e52" y="217.129963"/>
     <use style="fill:#ff8a46;fill-opacity:0.9;stroke:#ff8a46;stroke-opacity:0.9;" x="147.946821" xlink:href="#m6bde4b1e52" y="221.069802"/>
     <use style="fill:#ff8a46;fill-opacity:0.9;stroke:#ff8a46;stroke-opacity:0.9;" x="160.050397" xlink:href="#m6bde4b1e52" y="218.909245"/>
     <use style="fill:#ff8a46;fill-opacity:0.9;stroke:#ff8a46;stroke-opacity:0.9;" x="172.153973" xlink:href="#m6bde4b1e52" y="222.721993"/>
     <use style="fill:#ff8a46;fill-opacity:0.9;stroke:#ff8a46;stroke-opacity:0.9;" x="184.257549" xlink:href="#m6bde4b1e52" y="220.688527"/>
     <use style="fill:#ff8a46;fill-opacity:0.9;stroke:#ff8a46;stroke-opacity:0.9;" x="196.361125" xlink:href="#m6bde4b1e52" y="223.230359"/>
     <use style="fill:#ff8a46;fill-opacity:0.9;stroke:#ff8a46;stroke-opacity:0.9;" x="208.464701" xlink:href="#m6bde4b1e52" y="223.992908"/>
     <use style="fill:#ff8a46;fill-opacity:0.9;stroke:#ff8a46;stroke-opacity:0.9;" x="220.568277" xlink:href="#m6bde4b1e52" y="223.357451"/>
    </g>
   </g>
   <g id="patch_3">
    <path d="M 57.17 224.12 
L 226.620065 224.12 
" style="fill:none;stroke:#000000;stroke-linecap:square;stroke-linejoin:miter;stroke-width:0.8;"/>
   </g>
   <g id="text_12">
    <!-- Sheltered homeless -->
    <g transform="translate(82.521282 44.64)scale(0.12 -0.12)">
     <defs>
      <path d="M 3425 4513 
L 3425 3897 
Q 3066 4069 2747 4153 
Q 2428 4238 2131 4238 
Q 1616 4238 1336 4038 
Q 1056 3838 1056 3469 
Q 1056 3159 1242 3001 
Q 1428 2844 1947 2747 
L 2328 2669 
Q 3034 2534 3370 2195 
Q 3706 1856 3706 1288 
Q 3706 609 3251 259 
Q 2797 -91 1919 -91 
Q 1588 -91 1214 -16 
Q 841 59 441 206 
L 441 856 
Q 825 641 1194 531 
Q 1563 422 1919 422 
Q 2459 422 2753 634 
Q 3047 847 3047 1241 
Q 3047 1584 2836 1778 
Q 2625 1972 2144 2069 
L 1759 2144 
Q 1053 2284 737 2584 
Q 422 2884 422 3419 
Q 422 4038 858 4394 
Q 1294 4750 2059 4750 
Q 2388 4750 2728 4690 
Q 3069 4631 3425 4513 
z
" id="DejaVuSans-53" transform="scale(0.015625)"/>
      <path d="M 3513 2113 
L 3513 0 
L 2938 0 
L 2938 2094 
Q 2938 2591 2744 2837 
Q 2550 3084 2163 3084 
Q 1697 3084 1428 2787 
Q 1159 2491 1159 1978 
L 1159 0 
L 581 0 
L 581 4863 
L 1159 4863 
L 1159 2956 
Q 1366 3272 1645 3428 
Q 1925 3584 2291 3584 
Q 2894 3584 3203 3211 
Q 3513 2838 3513 2113 
z
" id="DejaVuSans-68" transform="scale(0.015625)"/>
      <path d="M 1172 4494 
L 1172 3500 
L 2356 3500 
L 2356 3053 
L 1172 3053 
L 1172 1153 
Q 1172 725 1289 603 
Q 1406 481 1766 481 
L 2356 481 
L 2356 0 
L 1766 0 
Q 1100 0 847 248 
Q 594 497 594 1153 
L 594 3053 
L 172 3053 
L 172 3500 
L 594 3500 
L 594 4494 
L 1172 4494 
z
" id="DejaVuSans-74" transform="scale(0.015625)"/>
      <path d="M 2906 2969 
L 2906 4863 
L 3481 4863 
L 3481 0 
L 2906 0 
L 2906 525 
Q 2725 213 2448 61 
Q 2172 -91 1784 -91 
Q 1150 -91 751 415 
Q 353 922 353 1747 
Q 353 2572 751 3078 
Q 1150 3584 1784 3584 
Q 2172 3584 2448 3432 
Q 2725 3281 2906 2969 
z
M 947 1747 
Q 947 1113 1208 752 
Q 1469 391 1925 391 
Q 2381 391 2643 752 
Q 2906 1113 2906 1747 
Q 2906 2381 2643 2742 
Q 2381 3103 1925 3103 
Q 1469 3103 1208 2742 
Q 947 2381 947 1747 
z
" id="DejaVuSans-64" transform="scale(0.015625)"/>
      <path d="M 2834 3397 
L 2834 2853 
Q 2591 2978 2328 3040 
Q 2066 3103 1784 3103 
Q 1356 3103 1142 2972 
Q 928 2841 928 2578 
Q 928 2378 1081 2264 
Q 1234 2150 1697 2047 
L 1894 2003 
Q 2506 1872 2764 1633 
Q 3022 1394 3022 966 
Q 3022 478 2636 193 
Q 2250 -91 1575 -91 
Q 1294 -91 989 -36 
Q 684 19 347 128 
L 347 722 
Q 666 556 975 473 
Q 1284 391 1588 391 
Q 1994 391 2212 530 
Q 2431 669 2431 922 
Q 2431 1156 2273 1281 
Q 2116 1406 1581 1522 
L 1381 1569 
Q 847 1681 609 1914 
Q 372 2147 372 2553 
Q 372 3047 722 3315 
Q 1072 3584 1716 3584 
Q 2034 3584 2315 3537 
Q 2597 3491 2834 3397 
z
" id="DejaVuSans-73" transform="scale(0.015625)"/>
     </defs>
     <use xlink:href="#DejaVuSans-53"/>
     <use x="63.476562" xlink:href="#DejaVuSans-68"/>
     <use x="126.855469" xlink:href="#DejaVuSans-65"/>
     <use x="188.378906" xlink:href="#DejaVuSans-6c"/>
     <use x="216.162109" xlink:href="#DejaVuSans-74"/>
     <use x="255.371094" xlink:href="#DejaVuSans-65"/>
     <use x="316.894531" xlink:href="#DejaVuSans-72"/>
     <use x="355.757812" xlink:href="#DejaVuSans-65"/>
     <use x="417.28125" xlink:href="#DejaVuSans-64"/>
     <use x="480.757812" xlink:href="#DejaVuSans-20"/>
     <use x="512.544922" xlink:href="#DejaVuSans-68"/>
     <use x="575.923828" xlink:href="#DejaVuSans-6f"/>
     <use x="637.105469" xlink:href="#DejaVuSans-6d"/>
     <use x="734.517578" xlink:href="#DejaVuSans-65"/>
     <use x="796.041016" xlink:href="#DejaVuSans-6c"/>
     <use x="823.824219" xlink:href="#DejaVuSans-65"/>
     <use x="885.347656" xlink:href="#DejaVuSans-73"/>
     <use x="937.447266" xlink:href="#DejaVuSans-73"/>
    </g>
   </g>
  </g>
  <g id="axes_2">
   <g id="patch_4">
    <path d="M 244.585 224.12 
L 414.035065 224.12 
L 414.035065 50.64 
L 244.585 50.64 
z
" style="fill:#ffffff;"/>
   </g>
   <g id="matplotlib.axis_3">
    <g id="xtick_4">
     <g id="text_13">
      <!-- 2010 -->
      <g transform="translate(274.222516 238.718437)scale(0.1 -0.1)">
       <use xlink:href="#DejaVuSans-32"/>
       <use x="63.623047" xlink:href="#DejaVuSans-30"/>
       <use x="127.246094" xlink:href="#DejaVuSans-31"/>
       <use x="190.869141" xlink:href="#DejaVuSans-30"/>
      </g>
     </g>
    </g>
    <g id="xtick_5">
     <g id="text_14">
      <!-- 2015 -->
      <g transform="translate(334.740397 238.718437)scale(0.1 -0.1)">
       <use xlink:href="#DejaVuSans-32"/>
       <use x="63.623047" xlink:href="#DejaVuSans-30"/>
       <use x="127.246094" xlink:href="#DejaVuSans-31"/>
       <use x="190.869141" xlink:href="#DejaVuSans-35"/>
      </g>
     </g>
    </g>
    <g id="xtick_6">
     <g id="text_15">
      <!-- 2020 -->
      <g transform="translate(395.258277 238.718437)scale(0.1 -0.1)">
       <use xlink:href="#DejaVuSans-32"/>
       <use x="63.623047" xlink:href="#DejaVuSans-30"/>
       <use x="127.246094" xlink:href="#DejaVuSans-32"/>
       <use x="190.869141" xlink:href="#DejaVuSans-30"/>
      </g>
     </g>
    </g>
   </g>
   <g id="matplotlib.axis_4">
    <g id="ytick_8"/>
    <g id="ytick_9"/>
    <g id="ytick_10"/>
    <g id="ytick_11"/>
    <g id="ytick_12"/>
    <g id="ytick_13"/>
    <g id="ytick_14"/>
   </g>
   <g id="line2d_4">
    <path clip-path="url(#p06059be82a)" d="M 250.636788 167.691341 
L 262.740364 121.430007 
L 274.84394 134.901714 
L 286.947516 130.199326 
L 299.051092 125.496938 
L 311.154668 58.900952 
L 323.258244 180.400498 
L 335.361821 175.189744 
L 347.465397 177.604484 
L 359.568973 187.136352 
L 371.672549 191.965832 
L 383.776125 195.524396 
L 395.879701 195.397304 
L 407.983277 203.14989 
" style="fill:none;stroke:#8d8d8d;stroke-linecap:square;stroke-opacity:0.9;stroke-width:1.5;"/>
    <g clip-path="url(#p06059be82a)">
     <use style="fill:#8d8d8d;fill-opacity:0.9;stroke:#8d8d8d;stroke-opacity:0.9;" x="250.636788" xlink:href="#mfbd19c5e6d" y="167.691341"/>
     <use style="fill:#8d8d8d;fill-opacity:0.9;stroke:#8d8d8d;stroke-opacity:0.9;" x="262.740364" xlink:href="#mfbd19c5e6d" y="121.430007"/>
     <use style="fill:#8d8d8d;fill-opacity:0.9;stroke:#8d8d8d;stroke-opacity:0.9;" x="274.84394" xlink:href="#mfbd19c5e6d" y="134.901714"/>
     <use style="fill:#8d8d8d;fill-opacity:0.9;stroke:#8d8d8d;stroke-opacity:0.9;" x="286.947516" xlink:href="#mfbd19c5e6d" y="130.199326"/>
     <use style="fill:#8d8d8d;fill-opacity:0.9;stroke:#8d8d8d;stroke-opacity:0.9;" x="299.051092" xlink:href="#mfbd19c5e6d" y="125.496938"/>
     <use style="fill:#8d8d8d;fill-opacity:0.9;stroke:#8d8d8d;stroke-opacity:0.9;" x="311.154668" xlink:href="#mfbd19c5e6d" y="58.900952"/>
     <use style="fill:#8d8d8d;fill-opacity:0.9;stroke:#8d8d8d;stroke-opacity:0.9;" x="323.258244" xlink:href="#mfbd19c5e6d" y="180.400498"/>
     <use style="fill:#8d8d8d;fill-opacity:0.9;stroke:#8d8d8d;stroke-opacity:0.9;" x="335.361821" xlink:href="#mfbd19c5e6d" y="175.189744"/>
     <use style="fill:#8d8d8d;fill-opacity:0.9;stroke:#8d8d8d;stroke-opacity:0.9;" x="347.465397" xlink:href="#mfbd19c5e6d" y="177.604484"/>
     <use style="fill:#8d8d8d;fill-opacity:0.9;stroke:#8d8d8d;stroke-opacity:0.9;" x="359.568973" xlink:href="#mfbd19c5e6d" y="187.136352"/>
     <use style="fill:#8d8d8d;fill-opacity:0.9;stroke:#8d8d8d;stroke-opacity:0.9;" x="371.672549" xlink:href="#mfbd19c5e6d" y="191.965832"/>
     <use style="fill:#8d8d8d;fill-opacity:0.9;stroke:#8d8d8d;stroke-opacity:0.9;" x="383.776125" xlink:href="#mfbd19c5e6d" y="195.524396"/>
     <use style="fill:#8d8d8d;fill-opacity:0.9;stroke:#8d8d8d;stroke-opacity:0.9;" x="395.879701" xlink:href="#mfbd19c5e6d" y="195.397304"/>
     <use style="fill:#8d8d8d;fill-opacity:0.9;stroke:#8d8d8d;stroke-opacity:0.9;" x="407.983277" xlink:href="#mfbd19c5e6d" y="203.14989"/>
    </g>
   </g>
   <g id="line2d_5">
    <path clip-path="url(#p06059be82a)" d="M 250.636788 223.611634 
L 262.740364 219.925978 
L 274.84394 205.691722 
L 286.947516 222.594901 
L 299.051092 194.380571 
L 311.154668 204.674989 
L 323.258244 213.698491 
L 335.361821 216.113231 
L 347.465397 210.39411 
L 359.568973 216.113231 
L 371.672549 216.87578 
L 383.776125 219.163429 
L 395.879701 213.952674 
L 407.983277 220.942711 
" style="fill:none;stroke:#297fda;stroke-linecap:square;stroke-opacity:0.9;stroke-width:1.5;"/>
    <g clip-path="url(#p06059be82a)">
     <use style="fill:#297fda;fill-opacity:0.9;stroke:#297fda;stroke-opacity:0.9;" x="250.636788" xlink:href="#mf3391d3f6d" y="223.611634"/>
     <use style="fill:#297fda;fill-opacity:0.9;stroke:#297fda;stroke-opacity:0.9;" x="262.740364" xlink:href="#mf3391d3f6d" y="219.925978"/>
     <use style="fill:#297fda;fill-opacity:0.9;stroke:#297fda;stroke-opacity:0.9;" x="274.84394" xlink:href="#mf3391d3f6d" y="205.691722"/>
     <use style="fill:#297fda;fill-opacity:0.9;stroke:#297fda;stroke-opacity:0.9;" x="286.947516" xlink:href="#mf3391d3f6d" y="222.594901"/>
     <use style="fill:#297fda;fill-opacity:0.9;stroke:#297fda;stroke-opacity:0.9;" x="299.051092" xlink:href="#mf3391d3f6d" y="194.380571"/>
     <use style="fill:#297fda;fill-opacity:0.9;stroke:#297fda;stroke-opacity:0.9;" x="311.154668" xlink:href="#mf3391d3f6d" y="204.674989"/>
     <use style="fill:#297fda;fill-opacity:0.9;stroke:#297fda;stroke-opacity:0.9;" x="323.258244" xlink:href="#mf3391d3f6d" y="213.698491"/>
     <use style="fill:#297fda;fill-opacity:0.9;stroke:#297fda;stroke-opacity:0.9;" x="335.361821" xlink:href="#mf3391d3f6d" y="216.113231"/>
     <use style="fill:#297fda;fill-opacity:0.9;stroke:#297fda;stroke-opacity:0.9;" x="347.465397" xlink:href="#mf3391d3f6d" y="210.39411"/>
     <use style="fill:#297fda;fill-opacity:0.9;stroke:#297fda;stroke-opacity:0.9;" x="359.568973" xlink:href="#mf3391d3f6d" y="216.113231"/>
     <use style="fill:#297fda;fill-opacity:0.9;stroke:#297fda;stroke-opacity:0.9;" x="371.672549" xlink:href="#mf3391d3f6d" y="216.87578"/>
     <use style="fill:#297fda;fill-opacity:0.9;stroke:#297fda;stroke-opacity:0.9;" x="383.776125" xlink:href="#mf3391d3f6d" y="219.163429"/>
     <use style="fill:#297fda;fill-opacity:0.9;stroke:#297fda;stroke-opacity:0.9;" x="395.879701" xlink:href="#mf3391d3f6d" y="213.952674"/>
     <use style="fill:#297fda;fill-opacity:0.9;stroke:#297fda;stroke-opacity:0.9;" x="407.983277" xlink:href="#mf3391d3f6d" y="220.942711"/>
    </g>
   </g>
   <g id="line2d_6">
    <path clip-path="url(#p06059be82a)" d="M 250.636788 200.989333 
L 262.740364 188.025993 
L 274.84394 197.176586 
L 286.947516 209.123194 
L 299.051092 188.915634 
L 311.154668 191.83874 
L 323.258244 215.604864 
L 335.361821 217.892513 
L 347.465397 213.571399 
L 359.568973 219.29052 
L 371.672549 217.002872 
L 383.776125 220.180161 
L 395.879701 217.002872 
L 407.983277 222.976176 
" style="fill:none;stroke:#ff8a46;stroke-linecap:square;stroke-opacity:0.9;stroke-width:1.5;"/>
    <g clip-path="url(#p06059be82a)">
     <use style="fill:#ff8a46;fill-opacity:0.9;stroke:#ff8a46;stroke-opacity:0.9;" x="250.636788" xlink:href="#m6bde4b1e52" y="200.989333"/>
     <use style="fill:#ff8a46;fill-opacity:0.9;stroke:#ff8a46;stroke-opacity:0.9;" x="262.740364" xlink:href="#m6bde4b1e52" y="188.025993"/>
     <use style="fill:#ff8a46;fill-opacity:0.9;stroke:#ff8a46;stroke-opacity:0.9;" x="274.84394" xlink:href="#m6bde4b1e52" y="197.176586"/>
     <use style="fill:#ff8a46;fill-opacity:0.9;stroke:#ff8a46;stroke-opacity:0.9;" x="286.947516" xlink:href="#m6bde4b1e52" y="209.123194"/>
     <use style="fill:#ff8a46;fill-opacity:0.9;stroke:#ff8a46;stroke-opacity:0.9;" x="299.051092" xlink:href="#m6bde4b1e52" y="188.915634"/>
     <use style="fill:#ff8a46;fill-opacity:0.9;stroke:#ff8a46;stroke-opacity:0.9;" x="311.154668" xlink:href="#m6bde4b1e52" y="191.83874"/>
     <use style="fill:#ff8a46;fill-opacity:0.9;stroke:#ff8a46;stroke-opacity:0.9;" x="323.258244" xlink:href="#m6bde4b1e52" y="215.604864"/>
     <use style="fill:#ff8a46;fill-opacity:0.9;stroke:#ff8a46;stroke-opacity:0.9;" x="335.361821" xlink:href="#m6bde4b1e52" y="217.892513"/>
     <use style="fill:#ff8a46;fill-opacity:0.9;stroke:#ff8a46;stroke-opacity:0.9;" x="347.465397" xlink:href="#m6bde4b1e52" y="213.571399"/>
     <use style="fill:#ff8a46;fill-opacity:0.9;stroke:#ff8a46;stroke-opacity:0.9;" x="359.568973" xlink:href="#m6bde4b1e52" y="219.29052"/>
     <use style="fill:#ff8a46;fill-opacity:0.9;stroke:#ff8a46;stroke-opacity:0.9;" x="371.672549" xlink:href="#m6bde4b1e52" y="217.002872"/>
     <use style="fill:#ff8a46;fill-opacity:0.9;stroke:#ff8a46;stroke-opacity:0.9;" x="383.776125" xlink:href="#m6bde4b1e52" y="220.180161"/>
     <use style="fill:#ff8a46;fill-opacity:0.9;stroke:#ff8a46;stroke-opacity:0.9;" x="395.879701" xlink:href="#m6bde4b1e52" y="217.002872"/>
     <use style="fill:#ff8a46;fill-opacity:0.9;stroke:#ff8a46;stroke-opacity:0.9;" x="407.983277" xlink:href="#m6bde4b1e52" y="222.976176"/>
    </g>
   </g>
   <g id="patch_5">
    <path d="M 244.585 224.12 
L 414.035065 224.12 
" style="fill:none;stroke:#000000;stroke-linecap:square;stroke-linejoin:miter;stroke-width:0.8;"/>
   </g>
   <g id="text_16">
    <!-- Unsheltered homeless -->
    <g transform="translate(262.42597 44.64)scale(0.12 -0.12)">
     <defs>
      <path d="M 556 4666 
L 1191 4666 
L 1191 1831 
Q 1191 1081 1462 751 
Q 1734 422 2344 422 
Q 2950 422 3222 751 
Q 3494 1081 3494 1831 
L 3494 4666 
L 4128 4666 
L 4128 1753 
Q 4128 841 3676 375 
Q 3225 -91 2344 -91 
Q 1459 -91 1007 375 
Q 556 841 556 1753 
L 556 4666 
z
" id="DejaVuSans-55" transform="scale(0.015625)"/>
      <path d="M 3513 2113 
L 3513 0 
L 2938 0 
L 2938 2094 
Q 2938 2591 2744 2837 
Q 2550 3084 2163 3084 
Q 1697 3084 1428 2787 
Q 1159 2491 1159 1978 
L 1159 0 
L 581 0 
L 581 3500 
L 1159 3500 
L 1159 2956 
Q 1366 3272 1645 3428 
Q 1925 3584 2291 3584 
Q 2894 3584 3203 3211 
Q 3513 2838 3513 2113 
z
" id="DejaVuSans-6e" transform="scale(0.015625)"/>
     </defs>
     <use xlink:href="#DejaVuSans-55"/>
     <use x="73.193359" xlink:href="#DejaVuSans-6e"/>
     <use x="136.572266" xlink:href="#DejaVuSans-73"/>
     <use x="188.671875" xlink:href="#DejaVuSans-68"/>
     <use x="252.050781" xlink:href="#DejaVuSans-65"/>
     <use x="313.574219" xlink:href="#DejaVuSans-6c"/>
     <use x="341.357422" xlink:href="#DejaVuSans-74"/>
     <use x="380.566406" xlink:href="#DejaVuSans-65"/>
     <use x="442.089844" xlink:href="#DejaVuSans-72"/>
     <use x="480.953125" xlink:href="#DejaVuSans-65"/>
     <use x="542.476562" xlink:href="#DejaVuSans-64"/>
     <use x="605.953125" xlink:href="#DejaVuSans-20"/>
     <use x="637.740234" xlink:href="#DejaVuSans-68"/>
     <use x="701.119141" xlink:href="#DejaVuSans-6f"/>
     <use x="762.300781" xlink:href="#DejaVuSans-6d"/>
     <use x="859.712891" xlink:href="#DejaVuSans-65"/>
     <use x="921.236328" xlink:href="#DejaVuSans-6c"/>
     <use x="949.019531" xlink:href="#DejaVuSans-65"/>
     <use x="1010.542969" xlink:href="#DejaVuSans-73"/>
     <use x="1062.642578" xlink:href="#DejaVuSans-73"/>
    </g>
   </g>
   <g id="legend_1">
    <g id="patch_6">
     <path d="M 264.661627 102.674375 
L 407.035065 102.674375 
Q 409.035065 102.674375 409.035065 100.674375 
L 409.035065 57.64 
Q 409.035065 55.64 407.035065 55.64 
L 264.661627 55.64 
Q 262.661627 55.64 262.661627 57.64 
L 262.661627 100.674375 
Q 262.661627 102.674375 264.661627 102.674375 
z
" style="fill:#ffffff;opacity:0.7;"/>
    </g>
    <g id="line2d_7">
     <path d="M 266.661627 63.738438 
L 286.661627 63.738438 
" style="fill:none;stroke:#8d8d8d;stroke-linecap:square;stroke-opacity:0.9;stroke-width:1.5;"/>
    </g>
    <g id="line2d_8">
     <g>
      <use style="fill:#8d8d8d;fill-opacity:0.9;stroke:#8d8d8d;stroke-opacity:0.9;" x="276.661627" xlink:href="#mfbd19c5e6d" y="63.738438"/>
     </g>
    </g>
    <g id="text_17">
     <!-- All -->
     <g transform="translate(294.661627 67.238438)scale(0.1 -0.1)">
      <defs>
       <path d="M 2188 4044 
L 1331 1722 
L 3047 1722 
L 2188 4044 
z
M 1831 4666 
L 2547 4666 
L 4325 0 
L 3669 0 
L 3244 1197 
L 1141 1197 
L 716 0 
L 50 0 
L 1831 4666 
z
" id="DejaVuSans-41" transform="scale(0.015625)"/>
      </defs>
      <use xlink:href="#DejaVuSans-41"/>
      <use x="68.408203" xlink:href="#DejaVuSans-6c"/>
      <use x="96.191406" xlink:href="#DejaVuSans-6c"/>
     </g>
    </g>
    <g id="line2d_9">
     <path d="M 266.661627 78.416562 
L 286.661627 78.416562 
" style="fill:none;stroke:#297fda;stroke-linecap:square;stroke-opacity:0.9;stroke-width:1.5;"/>
    </g>
    <g id="line2d_10">
     <g>
      <use style="fill:#297fda;fill-opacity:0.9;stroke:#297fda;stroke-opacity:0.9;" x="276.661627" xlink:href="#mf3391d3f6d" y="78.416562"/>
     </g>
    </g>
    <g id="text_18">
     <!-- With mental illness -->
     <g transform="translate(294.661627 81.916562)scale(0.1 -0.1)">
      <defs>
       <path d="M 213 4666 
L 850 4666 
L 1831 722 
L 2809 4666 
L 3519 4666 
L 4500 722 
L 5478 4666 
L 6119 4666 
L 4947 0 
L 4153 0 
L 3169 4050 
L 2175 0 
L 1381 0 
L 213 4666 
z
" id="DejaVuSans-57" transform="scale(0.015625)"/>
       <path d="M 603 3500 
L 1178 3500 
L 1178 0 
L 603 0 
L 603 3500 
z
M 603 4863 
L 1178 4863 
L 1178 4134 
L 603 4134 
L 603 4863 
z
" id="DejaVuSans-69" transform="scale(0.015625)"/>
       <path d="M 2194 1759 
Q 1497 1759 1228 1600 
Q 959 1441 959 1056 
Q 959 750 1161 570 
Q 1363 391 1709 391 
Q 2188 391 2477 730 
Q 2766 1069 2766 1631 
L 2766 1759 
L 2194 1759 
z
M 3341 1997 
L 3341 0 
L 2766 0 
L 2766 531 
Q 2569 213 2275 61 
Q 1981 -91 1556 -91 
Q 1019 -91 701 211 
Q 384 513 384 1019 
Q 384 1609 779 1909 
Q 1175 2209 1959 2209 
L 2766 2209 
L 2766 2266 
Q 2766 2663 2505 2880 
Q 2244 3097 1772 3097 
Q 1472 3097 1187 3025 
Q 903 2953 641 2809 
L 641 3341 
Q 956 3463 1253 3523 
Q 1550 3584 1831 3584 
Q 2591 3584 2966 3190 
Q 3341 2797 3341 1997 
z
" id="DejaVuSans-61" transform="scale(0.015625)"/>
      </defs>
      <use xlink:href="#DejaVuSans-57"/>
      <use x="96.626953" xlink:href="#DejaVuSans-69"/>
      <use x="124.410156" xlink:href="#DejaVuSans-74"/>
      <use x="163.619141" xlink:href="#DejaVuSans-68"/>
      <use x="226.998047" xlink:href="#DejaVuSans-20"/>
      <use x="258.785156" xlink:href="#DejaVuSans-6d"/>
      <use x="356.197266" xlink:href="#DejaVuSans-65"/>
      <use x="417.720703" xlink:href="#DejaVuSans-6e"/>
      <use x="481.099609" xlink:href="#DejaVuSans-74"/>
      <use x="520.308594" xlink:href="#DejaVuSans-61"/>
      <use x="581.587891" xlink:href="#DejaVuSans-6c"/>
      <use x="609.371094" xlink:href="#DejaVuSans-20"/>
      <use x="641.158203" xlink:href="#DejaVuSans-69"/>
      <use x="668.941406" xlink:href="#DejaVuSans-6c"/>
      <use x="696.724609" xlink:href="#DejaVuSans-6c"/>
      <use x="724.507812" xlink:href="#DejaVuSans-6e"/>
      <use x="787.886719" xlink:href="#DejaVuSans-65"/>
      <use x="849.410156" xlink:href="#DejaVuSans-73"/>
      <use x="901.509766" xlink:href="#DejaVuSans-73"/>
     </g>
    </g>
    <g id="line2d_11">
     <path d="M 266.661627 93.094688 
L 286.661627 93.094688 
" style="fill:none;stroke:#ff8a46;stroke-linecap:square;stroke-opacity:0.9;stroke-width:1.5;"/>
    </g>
    <g id="line2d_12">
     <g>
      <use style="fill:#ff8a46;fill-opacity:0.9;stroke:#ff8a46;stroke-opacity:0.9;" x="276.661627" xlink:href="#m6bde4b1e52" y="93.094688"/>
     </g>
    </g>
    <g id="text_19">
     <!-- With substance abuse -->
     <g transform="translate(294.661627 96.594688)scale(0.1 -0.1)">
      <defs>
       <path d="M 3122 3366 
L 3122 2828 
Q 2878 2963 2633 3030 
Q 2388 3097 2138 3097 
Q 1578 3097 1268 2742 
Q 959 2388 959 1747 
Q 959 1106 1268 751 
Q 1578 397 2138 397 
Q 2388 397 2633 464 
Q 2878 531 3122 666 
L 3122 134 
Q 2881 22 2623 -34 
Q 2366 -91 2075 -91 
Q 1284 -91 818 406 
Q 353 903 353 1747 
Q 353 2603 823 3093 
Q 1294 3584 2113 3584 
Q 2378 3584 2631 3529 
Q 2884 3475 3122 3366 
z
" id="DejaVuSans-63" transform="scale(0.015625)"/>
      </defs>
      <use xlink:href="#DejaVuSans-57"/>
      <use x="96.626953" xlink:href="#DejaVuSans-69"/>
      <use x="124.410156" xlink:href="#DejaVuSans-74"/>
      <use x="163.619141" xlink:href="#DejaVuSans-68"/>
      <use x="226.998047" xlink:href="#DejaVuSans-20"/>
      <use x="258.785156" xlink:href="#DejaVuSans-73"/>
      <use x="310.884766" xlink:href="#DejaVuSans-75"/>
      <use x="374.263672" xlink:href="#DejaVuSans-62"/>
      <use x="437.740234" xlink:href="#DejaVuSans-73"/>
      <use x="489.839844" xlink:href="#DejaVuSans-74"/>
      <use x="529.048828" xlink:href="#DejaVuSans-61"/>
      <use x="590.328125" xlink:href="#DejaVuSans-6e"/>
      <use x="653.707031" xlink:href="#DejaVuSans-63"/>
      <use x="708.6875" xlink:href="#DejaVuSans-65"/>
      <use x="770.210938" xlink:href="#DejaVuSans-20"/>
      <use x="801.998047" xlink:href="#DejaVuSans-61"/>
      <use x="863.277344" xlink:href="#DejaVuSans-62"/>
      <use x="926.753906" xlink:href="#DejaVuSans-75"/>
      <use x="990.132812" xlink:href="#DejaVuSans-73"/>
      <use x="1042.232422" xlink:href="#DejaVuSans-65"/>
     </g>
    </g>
   </g>
  </g>
  <g id="text_20">
   <!-- NC-Fayetteville Cumberland County -->
   <g transform="translate(108.750938 14.158125)scale(0.12 -0.12)">
    <defs>
     <path d="M 4122 4306 
L 4122 3641 
Q 3803 3938 3442 4084 
Q 3081 4231 2675 4231 
Q 1875 4231 1450 3742 
Q 1025 3253 1025 2328 
Q 1025 1406 1450 917 
Q 1875 428 2675 428 
Q 3081 428 3442 575 
Q 3803 722 4122 1019 
L 4122 359 
Q 3791 134 3420 21 
Q 3050 -91 2638 -91 
Q 1578 -91 968 557 
Q 359 1206 359 2328 
Q 359 3453 968 4101 
Q 1578 4750 2638 4750 
Q 3056 4750 3426 4639 
Q 3797 4528 4122 4306 
z
" id="DejaVuSans-43" transform="scale(0.015625)"/>
     <path d="M 313 2009 
L 1997 2009 
L 1997 1497 
L 313 1497 
L 313 2009 
z
" id="DejaVuSans-2d" transform="scale(0.015625)"/>
     <path d="M 628 4666 
L 3309 4666 
L 3309 4134 
L 1259 4134 
L 1259 2759 
L 3109 2759 
L 3109 2228 
L 1259 2228 
L 1259 0 
L 628 0 
L 628 4666 
z
" id="DejaVuSans-46" transform="scale(0.015625)"/>
     <path d="M 2059 -325 
Q 1816 -950 1584 -1140 
Q 1353 -1331 966 -1331 
L 506 -1331 
L 506 -850 
L 844 -850 
Q 1081 -850 1212 -737 
Q 1344 -625 1503 -206 
L 1606 56 
L 191 3500 
L 800 3500 
L 1894 763 
L 2988 3500 
L 3597 3500 
L 2059 -325 
z
" id="DejaVuSans-79" transform="scale(0.015625)"/>
     <path d="M 191 3500 
L 800 3500 
L 1894 563 
L 2988 3500 
L 3597 3500 
L 2284 0 
L 1503 0 
L 191 3500 
z
" id="DejaVuSans-76" transform="scale(0.015625)"/>
    </defs>
    <use xlink:href="#DejaVuSans-4e"/>
    <use x="74.804688" xlink:href="#DejaVuSans-43"/>
    <use x="144.628906" xlink:href="#DejaVuSans-2d"/>
    <use x="180.712891" xlink:href="#DejaVuSans-46"/>
    <use x="229.107422" xlink:href="#DejaVuSans-61"/>
    <use x="290.386719" xlink:href="#DejaVuSans-79"/>
    <use x="349.566406" xlink:href="#DejaVuSans-65"/>
    <use x="411.089844" xlink:href="#DejaVuSans-74"/>
    <use x="450.298828" xlink:href="#DejaVuSans-74"/>
    <use x="489.507812" xlink:href="#DejaVuSans-65"/>
    <use x="551.03125" xlink:href="#DejaVuSans-76"/>
    <use x="610.210938" xlink:href="#DejaVuSans-69"/>
    <use x="637.994141" xlink:href="#DejaVuSans-6c"/>
    <use x="665.777344" xlink:href="#DejaVuSans-6c"/>
    <use x="693.560547" xlink:href="#DejaVuSans-65"/>
    <use x="755.083984" xlink:href="#DejaVuSans-20"/>
    <use x="786.871094" xlink:href="#DejaVuSans-43"/>
    <use x="856.695312" xlink:href="#DejaVuSans-75"/>
    <use x="920.074219" xlink:href="#DejaVuSans-6d"/>
    <use x="1017.486328" xlink:href="#DejaVuSans-62"/>
    <use x="1080.962891" xlink:href="#DejaVuSans-65"/>
    <use x="1142.486328" xlink:href="#DejaVuSans-72"/>
    <use x="1183.599609" xlink:href="#DejaVuSans-6c"/>
    <use x="1211.382812" xlink:href="#DejaVuSans-61"/>
    <use x="1272.662109" xlink:href="#DejaVuSans-6e"/>
    <use x="1336.041016" xlink:href="#DejaVuSans-64"/>
    <use x="1399.517578" xlink:href="#DejaVuSans-20"/>
    <use x="1431.304688" xlink:href="#DejaVuSans-43"/>
    <use x="1501.128906" xlink:href="#DejaVuSans-6f"/>
    <use x="1562.310547" xlink:href="#DejaVuSans-75"/>
    <use x="1625.689453" xlink:href="#DejaVuSans-6e"/>
    <use x="1689.068359" xlink:href="#DejaVuSans-74"/>
    <use x="1728.277344" xlink:href="#DejaVuSans-79"/>
   </g>
  </g>
  <g id="text_21">
   <g id="patch_7">
    <a xlink:href="https://dynomight.net">
     <path d="M 354.56 253.93875 
L 425.17125 253.93875 
L 425.17125 238.14125 
L 354.56 238.14125 
z
" style="fill:#1f77b4;opacity:0.01;stroke:#000000;stroke-linejoin:miter;"/>
    </a>
   </g>
   <a xlink:href="https://dynomight.net">
    <!-- dynomight.net -->
    <g style="fill:#808080;opacity:0.5;" transform="translate(358.56 248.22)scale(0.08 -0.08)">
     <defs>
      <path d="M 2681 3053 
L 2681 4863 
L 3256 4863 
L 3256 0 
L 2681 0 
L 2681 441 
Q 2538 181 2298 45 
Q 2059 -91 1747 -91 
Q 1113 -91 748 401 
Q 384 894 384 1759 
Q 384 2613 750 3098 
Q 1116 3584 1747 3584 
Q 2063 3584 2303 3448 
Q 2544 3313 2681 3053 
z
M 991 1747 
Q 991 1078 1203 737 
Q 1416 397 1831 397 
Q 2247 397 2464 740 
Q 2681 1084 2681 1747 
Q 2681 2413 2464 2755 
Q 2247 3097 1831 3097 
Q 1416 3097 1203 2756 
Q 991 2416 991 1747 
z
" id="DejaVuSansMono-64" transform="scale(0.015625)"/>
      <path d="M 2681 1125 
Q 2538 759 2316 163 
Q 2006 -663 1900 -844 
Q 1756 -1088 1540 -1209 
Q 1325 -1331 1038 -1331 
L 575 -1331 
L 575 -850 
L 916 -850 
Q 1169 -850 1312 -703 
Q 1456 -556 1678 56 
L 325 3500 
L 934 3500 
L 1972 763 
L 2994 3500 
L 3603 3500 
L 2681 1125 
z
" id="DejaVuSansMono-79" transform="scale(0.015625)"/>
      <path d="M 3284 2169 
L 3284 0 
L 2706 0 
L 2706 2169 
Q 2706 2641 2540 2862 
Q 2375 3084 2022 3084 
Q 1619 3084 1401 2798 
Q 1184 2513 1184 1978 
L 1184 0 
L 609 0 
L 609 3500 
L 1184 3500 
L 1184 2975 
Q 1338 3275 1600 3429 
Q 1863 3584 2222 3584 
Q 2756 3584 3020 3232 
Q 3284 2881 3284 2169 
z
" id="DejaVuSansMono-6e" transform="scale(0.015625)"/>
      <path d="M 1925 3097 
Q 1488 3097 1263 2756 
Q 1038 2416 1038 1747 
Q 1038 1081 1263 739 
Q 1488 397 1925 397 
Q 2366 397 2591 739 
Q 2816 1081 2816 1747 
Q 2816 2416 2591 2756 
Q 2366 3097 1925 3097 
z
M 1925 3584 
Q 2653 3584 3039 3112 
Q 3425 2641 3425 1747 
Q 3425 850 3040 379 
Q 2656 -91 1925 -91 
Q 1197 -91 812 379 
Q 428 850 428 1747 
Q 428 2641 812 3112 
Q 1197 3584 1925 3584 
z
" id="DejaVuSansMono-6f" transform="scale(0.015625)"/>
      <path d="M 2113 3144 
Q 2219 3369 2383 3476 
Q 2547 3584 2778 3584 
Q 3200 3584 3373 3257 
Q 3547 2931 3547 2028 
L 3547 0 
L 3022 0 
L 3022 2003 
Q 3022 2744 2939 2923 
Q 2856 3103 2638 3103 
Q 2388 3103 2295 2911 
Q 2203 2719 2203 2003 
L 2203 0 
L 1678 0 
L 1678 2003 
Q 1678 2753 1589 2928 
Q 1500 3103 1269 3103 
Q 1041 3103 952 2911 
Q 863 2719 863 2003 
L 863 0 
L 341 0 
L 341 3500 
L 863 3500 
L 863 3200 
Q 966 3388 1120 3486 
Q 1275 3584 1472 3584 
Q 1709 3584 1867 3475 
Q 2025 3366 2113 3144 
z
" id="DejaVuSansMono-6d" transform="scale(0.015625)"/>
      <path d="M 800 3500 
L 2272 3500 
L 2272 447 
L 3413 447 
L 3413 0 
L 556 0 
L 556 447 
L 1697 447 
L 1697 3053 
L 800 3053 
L 800 3500 
z
M 1697 4863 
L 2272 4863 
L 2272 4134 
L 1697 4134 
L 1697 4863 
z
" id="DejaVuSansMono-69" transform="scale(0.015625)"/>
      <path d="M 2681 1778 
Q 2681 2425 2470 2761 
Q 2259 3097 1856 3097 
Q 1434 3097 1212 2761 
Q 991 2425 991 1778 
Q 991 1131 1214 792 
Q 1438 453 1863 453 
Q 2259 453 2470 793 
Q 2681 1134 2681 1778 
z
M 3256 225 
Q 3256 -563 2884 -969 
Q 2513 -1375 1791 -1375 
Q 1553 -1375 1293 -1331 
Q 1034 -1288 775 -1203 
L 775 -634 
Q 1081 -778 1331 -847 
Q 1581 -916 1791 -916 
Q 2256 -916 2468 -662 
Q 2681 -409 2681 141 
L 2681 166 
L 2681 556 
Q 2544 263 2306 119 
Q 2069 -25 1728 -25 
Q 1116 -25 750 465 
Q 384 956 384 1778 
Q 384 2603 750 3093 
Q 1116 3584 1728 3584 
Q 2066 3584 2300 3450 
Q 2534 3316 2681 3034 
L 2681 3488 
L 3256 3488 
L 3256 225 
z
" id="DejaVuSansMono-67" transform="scale(0.015625)"/>
      <path d="M 3284 2169 
L 3284 0 
L 2706 0 
L 2706 2169 
Q 2706 2641 2540 2862 
Q 2375 3084 2022 3084 
Q 1619 3084 1401 2798 
Q 1184 2513 1184 1978 
L 1184 0 
L 609 0 
L 609 4863 
L 1184 4863 
L 1184 2975 
Q 1338 3275 1600 3429 
Q 1863 3584 2222 3584 
Q 2756 3584 3020 3232 
Q 3284 2881 3284 2169 
z
" id="DejaVuSansMono-68" transform="scale(0.015625)"/>
      <path d="M 1919 4494 
L 1919 3500 
L 3225 3500 
L 3225 3053 
L 1919 3053 
L 1919 1153 
Q 1919 766 2066 612 
Q 2213 459 2578 459 
L 3225 459 
L 3225 0 
L 2522 0 
Q 1875 0 1609 259 
Q 1344 519 1344 1153 
L 1344 3053 
L 409 3053 
L 409 3500 
L 1344 3500 
L 1344 4494 
L 1919 4494 
z
" id="DejaVuSansMono-74" transform="scale(0.015625)"/>
      <path d="M 1528 953 
L 2316 953 
L 2316 0 
L 1528 0 
L 1528 953 
z
" id="DejaVuSansMono-2e" transform="scale(0.015625)"/>
      <path d="M 3475 1894 
L 3475 1613 
L 984 1613 
L 984 1594 
Q 984 1022 1282 709 
Q 1581 397 2125 397 
Q 2400 397 2700 484 
Q 3000 572 3341 750 
L 3341 178 
Q 3013 44 2708 -23 
Q 2403 -91 2119 -91 
Q 1303 -91 843 398 
Q 384 888 384 1747 
Q 384 2584 834 3084 
Q 1284 3584 2034 3584 
Q 2703 3584 3089 3131 
Q 3475 2678 3475 1894 
z
M 2900 2063 
Q 2888 2569 2661 2833 
Q 2434 3097 2009 3097 
Q 1594 3097 1325 2822 
Q 1056 2547 1006 2059 
L 2900 2063 
z
" id="DejaVuSansMono-65" transform="scale(0.015625)"/>
     </defs>
     <use xlink:href="#DejaVuSansMono-64"/>
     <use x="60.205078" xlink:href="#DejaVuSansMono-79"/>
     <use x="120.410156" xlink:href="#DejaVuSansMono-6e"/>
     <use x="180.615234" xlink:href="#DejaVuSansMono-6f"/>
     <use x="240.820312" xlink:href="#DejaVuSansMono-6d"/>
     <use x="301.025391" xlink:href="#DejaVuSansMono-69"/>
     <use x="361.230469" xlink:href="#DejaVuSansMono-67"/>
     <use x="421.435547" xlink:href="#DejaVuSansMono-68"/>
     <use x="481.640625" xlink:href="#DejaVuSansMono-74"/>
     <use x="541.845703" xlink:href="#DejaVuSansMono-2e"/>
     <use x="602.050781" xlink:href="#DejaVuSansMono-6e"/>
     <use x="662.255859" xlink:href="#DejaVuSansMono-65"/>
     <use x="722.460938" xlink:href="#DejaVuSansMono-74"/>
    </g>
   </a>
  </g>
 </g>
 <defs>
  <clipPath id="pcf419b2217">
   <rect height="173.48" width="169.450065" x="57.17" y="50.64"/>
  </clipPath>
  <clipPath id="p06059be82a">
   <rect height="173.48" width="169.450065" x="244.585" y="50.64"/>
  </clipPath>
 </defs>
</svg>
