<?xml version="1.0" encoding="UTF-8" standalone="no"?>
<svg
   xmlns:dc="http://purl.org/dc/elements/1.1/"
   xmlns:cc="http://creativecommons.org/ns#"
   xmlns:rdf="http://www.w3.org/1999/02/22-rdf-syntax-ns#"
   xmlns:svg="http://www.w3.org/2000/svg"
   xmlns="http://www.w3.org/2000/svg"
   xmlns:sodipodi="http://sodipodi.sourceforge.net/DTD/sodipodi-0.dtd"
   xmlns:inkscape="http://www.inkscape.org/namespaces/inkscape"
   width="100.83842mm"
   height="117.31874mm"
   viewBox="0 0 357.30148 415.69633"
   id="svg2"
   version="1.1"
   inkscape:version="1.0 (4035a4f, 2020-05-01)"
   sodipodi:docname="Fat_composition_in_foods.svg">
  <defs
     id="defs4" />
  <sodipodi:namedview
     id="base"
     pagecolor="#ffffff"
     bordercolor="#666666"
     borderopacity="1.0"
     inkscape:pageopacity="0.0"
     inkscape:pageshadow="2"
     inkscape:zoom="1.4444701"
     inkscape:cx="362.66359"
     inkscape:cy="313.94574"
     inkscape:document-units="px"
     inkscape:current-layer="layer1"
     showgrid="true"
     fit-margin-top="0"
     fit-margin-left="0"
     fit-margin-right="0"
     fit-margin-bottom="0"
     inkscape:window-width="2048"
     inkscape:window-height="1193"
     inkscape:window-x="0"
     inkscape:window-y="25"
     inkscape:window-maximized="1"
     borderlayer="true"
     inkscape:document-rotation="0">
    <inkscape:grid
       type="xygrid"
       id="grid4199"
       originx="-389.14688"
       originy="844.76592" />
  </sodipodi:namedview>
  <metadata
     id="metadata7">
    <rdf:RDF>
      <cc:Work
         rdf:about="">
        <dc:format>image/svg+xml</dc:format>
        <dc:type
           rdf:resource="http://purl.org/dc/dcmitype/StillImage" />
        <dc:title />
      </cc:Work>
    </rdf:RDF>
  </metadata>
  <g
     inkscape:label="Layer 1"
     inkscape:groupmode="layer"
     id="layer1"
     transform="translate(-389.14688,495.07523)">
    <rect
       style="opacity:1;fill:#ff0000;fill-opacity:1;stroke:#000000;stroke-width:1;stroke-miterlimit:4;stroke-dasharray:none;stroke-dashoffset:0;stroke-opacity:1"
       id="rect3347-7-6"
       width="81.110313"
       height="21.554996"
       x="389.64688"
       y="-494.57523" />
    <rect
       style="opacity:1;fill:#9999ff;fill-opacity:1;stroke:#000000;stroke-width:1;stroke-miterlimit:4;stroke-dasharray:none;stroke-dashoffset:0;stroke-opacity:1"
       id="rect3347-4"
       width="136.44038"
       height="21.186802"
       x="472.22934"
       y="-494.39111" />
    <rect
       style="opacity:1;fill:#00ff00;fill-opacity:1;stroke:#000000;stroke-width:1;stroke-miterlimit:4;stroke-dasharray:none;stroke-dashoffset:0;stroke-opacity:1"
       id="rect3347-0-7"
       width="134.49602"
       height="21.198202"
       x="610.32031"
       y="-494.39682" />
    <text
       xml:space="preserve"
       style="font-style:normal;font-variant:normal;font-weight:normal;font-stretch:normal;line-height:0%;font-family:Arial;-inkscape-font-specification:Arial;text-align:start;letter-spacing:0px;word-spacing:0px;writing-mode:lr-tb;text-anchor:start;fill:#000000;fill-opacity:1;stroke:none;stroke-width:1px;stroke-linecap:butt;stroke-linejoin:miter;stroke-opacity:1"
       x="395.16693"
       y="-477.98169"
       id="text4783"><tspan
         sodipodi:role="line"
         id="tspan4785"
         x="395.16693"
         y="-477.98169"
         style="font-size:16.25px;line-height:1.25">Saturated</tspan></text>
    <text
       xml:space="preserve"
       style="font-style:normal;font-variant:normal;font-weight:normal;font-stretch:normal;line-height:0%;font-family:Arial;-inkscape-font-specification:Arial;text-align:start;letter-spacing:0px;word-spacing:0px;writing-mode:lr-tb;text-anchor:start;fill:#000000;fill-opacity:1;stroke:none;stroke-width:1px;stroke-linecap:butt;stroke-linejoin:miter;stroke-opacity:1"
       x="477.15149"
       y="-477.98169"
       id="text4783-5"><tspan
         sodipodi:role="line"
         id="tspan4785-0"
         x="477.15149"
         y="-477.98169"
         style="font-size:16.25px;line-height:1.25">Monounsaturated</tspan></text>
    <text
       xml:space="preserve"
       style="font-style:normal;font-variant:normal;font-weight:normal;font-stretch:normal;line-height:0%;font-family:Arial;-inkscape-font-specification:Arial;text-align:start;letter-spacing:0px;word-spacing:0px;writing-mode:lr-tb;text-anchor:start;fill:#000000;fill-opacity:1;stroke:none;stroke-width:1px;stroke-linecap:butt;stroke-linejoin:miter;stroke-opacity:1"
       x="618.76917"
       y="-478.07687"
       id="text4783-5-3"><tspan
         sodipodi:role="line"
         id="tspan4785-0-5"
         x="618.76917"
         y="-478.07687"
         style="font-size:16.25px;line-height:1.25">Polyunsaturated</tspan></text>
    <text
       xml:space="preserve"
       style="font-style:normal;font-variant:normal;font-weight:normal;font-stretch:condensed;line-height:0%;font-family:Arial;-inkscape-font-specification:'Arial Condensed';text-align:start;letter-spacing:0px;word-spacing:0px;writing-mode:lr-tb;text-anchor:start;fill:#000000;fill-opacity:1;stroke:none;stroke-width:1px;stroke-linecap:butt;stroke-linejoin:miter;stroke-opacity:1"
       x="506.07825"
       y="-455.15659"
       id="text4844"><tspan
         sodipodi:role="line"
         id="tspan4846"
         x="506.07825"
         y="-455.15659"
         style="font-size:12.5px;line-height:1.25">0%</tspan></text>
    <text
       xml:space="preserve"
       style="font-style:normal;font-variant:normal;font-weight:normal;font-stretch:condensed;line-height:0%;font-family:Arial;-inkscape-font-specification:'Arial Condensed';text-align:start;letter-spacing:0px;word-spacing:0px;writing-mode:lr-tb;text-anchor:start;fill:#000000;fill-opacity:1;stroke:none;stroke-width:1px;stroke-linecap:butt;stroke-linejoin:miter;stroke-opacity:1"
       x="543.06732"
       y="-454.82507"
       id="text4844-4"><tspan
         sodipodi:role="line"
         id="tspan4846-2"
         x="543.06732"
         y="-454.82507"
         style="font-size:12.5px;line-height:1.25">20%</tspan></text>
    <text
       xml:space="preserve"
       style="font-style:normal;font-variant:normal;font-weight:normal;font-stretch:condensed;line-height:0%;font-family:Arial;-inkscape-font-specification:'Arial Condensed';text-align:start;letter-spacing:0px;word-spacing:0px;writing-mode:lr-tb;text-anchor:start;fill:#000000;fill-opacity:1;stroke:none;stroke-width:1px;stroke-linecap:butt;stroke-linejoin:miter;stroke-opacity:1"
       x="581.79529"
       y="-454.49353"
       id="text4844-4-2"><tspan
         sodipodi:role="line"
         id="tspan4846-2-1"
         x="581.79529"
         y="-454.49353"
         style="font-size:12.5px;line-height:1.25">40%</tspan></text>
    <text
       xml:space="preserve"
       style="font-style:normal;font-variant:normal;font-weight:normal;font-stretch:condensed;line-height:0%;font-family:Arial;-inkscape-font-specification:'Arial Condensed';text-align:start;letter-spacing:0px;word-spacing:0px;writing-mode:lr-tb;text-anchor:start;fill:#000000;fill-opacity:1;stroke:none;stroke-width:1px;stroke-linecap:butt;stroke-linejoin:miter;stroke-opacity:1"
       x="622.90369"
       y="-454.8172"
       id="text4844-4-1"><tspan
         sodipodi:role="line"
         id="tspan4846-2-4"
         x="622.90369"
         y="-454.8172"
         style="font-size:12.5px;line-height:1.25">60%</tspan></text>
    <text
       xml:space="preserve"
       style="font-style:normal;font-variant:normal;font-weight:normal;font-stretch:condensed;line-height:0%;font-family:Arial;-inkscape-font-specification:'Arial Condensed';text-align:start;letter-spacing:0px;word-spacing:0px;writing-mode:lr-tb;text-anchor:start;fill:#000000;fill-opacity:1;stroke:none;stroke-width:1px;stroke-linecap:butt;stroke-linejoin:miter;stroke-opacity:1"
       x="660.06567"
       y="-454.90875"
       id="text4844-4-7"><tspan
         sodipodi:role="line"
         id="tspan4846-2-9"
         x="660.06567"
         y="-454.90875"
         style="font-size:12.5px;line-height:1.25">80%</tspan></text>
    <text
       xml:space="preserve"
       style="font-style:normal;font-variant:normal;font-weight:normal;font-stretch:condensed;line-height:0%;font-family:Arial;-inkscape-font-specification:'Arial Condensed';text-align:start;letter-spacing:0px;word-spacing:0px;writing-mode:lr-tb;text-anchor:start;fill:#000000;fill-opacity:1;stroke:none;stroke-width:1px;stroke-linecap:butt;stroke-linejoin:miter;stroke-opacity:1"
       x="688.97888"
       y="-454.90875"
       id="text4844-4-4"><tspan
         sodipodi:role="line"
         id="tspan4846-2-41"
         x="688.97888"
         y="-454.90875"
         style="font-size:12.5px;line-height:1.25">100%</tspan></text>
    <path
       style="fill:none;fill-rule:evenodd;stroke:#000000;stroke-width:1px;stroke-linecap:butt;stroke-linejoin:miter;stroke-opacity:1"
       d="m 514.24954,-436.38794 199.37607,0.62515"
       id="path5017"
       inkscape:connector-curvature="0"
       sodipodi:nodetypes="cc" />
    <path
       style="fill:none;fill-rule:evenodd;stroke:#000000;stroke-width:1px;stroke-linecap:butt;stroke-linejoin:miter;stroke-opacity:1"
       d="m 514.3048,-415.01862 199.37607,0.62515"
       id="path5017-8"
       inkscape:connector-curvature="0"
       sodipodi:nodetypes="cc" />
    <path
       style="fill:none;fill-rule:evenodd;stroke:#000000;stroke-width:1px;stroke-linecap:butt;stroke-linejoin:miter;stroke-opacity:1"
       d="m 514.24954,-399.95055 199.37607,-0.62515"
       id="path5017-87"
       inkscape:connector-curvature="0"
       sodipodi:nodetypes="cc" />
    <path
       style="fill:none;fill-rule:evenodd;stroke:#000000;stroke-width:1px;stroke-linecap:butt;stroke-linejoin:miter;stroke-opacity:1"
       d="m 514.24954,-380.26292 199.37607,0.62515"
       id="path5017-0"
       inkscape:connector-curvature="0"
       sodipodi:nodetypes="cc" />
    <path
       style="fill:none;fill-rule:evenodd;stroke:#000000;stroke-width:1px;stroke-linecap:butt;stroke-linejoin:miter;stroke-opacity:1"
       d="m 514.24954,-362.48763 199.37607,0.62515"
       id="path5017-2"
       inkscape:connector-curvature="0"
       sodipodi:nodetypes="cc" />
    <path
       style="fill:none;fill-rule:evenodd;stroke:#000000;stroke-width:1px;stroke-linecap:butt;stroke-linejoin:miter;stroke-opacity:1"
       d="m 514.24954,-340.77854 199.37607,0.62515"
       id="path5017-27"
       inkscape:connector-curvature="0"
       sodipodi:nodetypes="cc" />
    <path
       style="fill:none;fill-rule:evenodd;stroke:#000000;stroke-width:1px;stroke-linecap:butt;stroke-linejoin:miter;stroke-opacity:1"
       d="m 514.24954,-324.69899 199.37607,0.62515"
       id="path5017-21"
       inkscape:connector-curvature="0"
       sodipodi:nodetypes="cc" />
    <path
       style="fill:none;fill-rule:evenodd;stroke:#000000;stroke-width:1px;stroke-linecap:butt;stroke-linejoin:miter;stroke-opacity:1"
       d="m 514.24954,-304.25419 199.37607,0.62515"
       id="path5017-5"
       inkscape:connector-curvature="0"
       sodipodi:nodetypes="cc" />
    <path
       style="fill:none;fill-rule:evenodd;stroke:#000000;stroke-width:1px;stroke-linecap:butt;stroke-linejoin:miter;stroke-opacity:1"
       d="m 529.18026,-436.14958 -0.0553,21.38679"
       id="path5782"
       inkscape:connector-curvature="0"
       sodipodi:nodetypes="cc" />
    <path
       style="fill:none;fill-rule:evenodd;stroke:#000000;stroke-width:1px;stroke-linecap:butt;stroke-linejoin:miter;stroke-opacity:1"
       d="m 652.87469,-435.89072 v 21"
       id="path5782-9"
       inkscape:connector-curvature="0" />
    <path
       style="fill:none;fill-rule:evenodd;stroke:#000000;stroke-width:0.99253px;stroke-linecap:butt;stroke-linejoin:miter;stroke-opacity:1"
       d="m 541.73428,-400.49741 v 20.68743"
       id="path5782-8"
       inkscape:connector-curvature="0" />
    <path
       style="fill:none;fill-rule:evenodd;stroke:#000000;stroke-width:1px;stroke-linecap:butt;stroke-linejoin:miter;stroke-opacity:1"
       d="m 590.81242,-400.57555 v 21"
       id="path5782-3"
       inkscape:connector-curvature="0" />
    <path
       style="fill:none;fill-rule:evenodd;stroke:#000000;stroke-width:1px;stroke-linecap:butt;stroke-linejoin:miter;stroke-opacity:1"
       d="m 541.63376,-362.11039 v 21"
       id="path5782-94"
       inkscape:connector-curvature="0" />
    <path
       style="fill:none;fill-rule:evenodd;stroke:#000000;stroke-width:1px;stroke-linecap:butt;stroke-linejoin:miter;stroke-opacity:1"
       d="m 696.74582,-361.60866 v 21"
       id="path5782-2"
       inkscape:connector-curvature="0" />
    <path
       style="fill:none;fill-rule:evenodd;stroke:#000000;stroke-width:1px;stroke-linecap:butt;stroke-linejoin:miter;stroke-opacity:1"
       d="m 594.67972,-324.71926 v 21"
       id="path5782-5"
       inkscape:connector-curvature="0" />
    <path
       style="fill:none;fill-rule:evenodd;stroke:#000000;stroke-width:1px;stroke-linecap:butt;stroke-linejoin:miter;stroke-opacity:1"
       d="m 545.05475,-324.66392 v 21"
       id="path5782-94-8"
       inkscape:connector-curvature="0" />
    <text
       xml:space="preserve"
       style="font-style:normal;font-variant:normal;font-weight:normal;font-stretch:normal;line-height:0%;font-family:Arial;-inkscape-font-specification:Arial;text-align:start;letter-spacing:0px;word-spacing:0px;writing-mode:lr-tb;text-anchor:start;fill:#000000;fill-opacity:1;stroke:none;stroke-width:1px;stroke-linecap:butt;stroke-linejoin:miter;stroke-opacity:1"
       x="431.71899"
       y="-420.78891"
       id="text6492"><tspan
         sodipodi:role="line"
         id="tspan6494"
         x="431.71899"
         y="-420.78891"
         style="font-size:12.5px;line-height:1.25">Canola oil</tspan></text>
    <text
       xml:space="preserve"
       style="font-style:normal;font-variant:normal;font-weight:normal;font-stretch:normal;line-height:0%;font-family:Arial;-inkscape-font-specification:Arial;text-align:start;letter-spacing:0px;word-spacing:0px;writing-mode:lr-tb;text-anchor:start;fill:#000000;fill-opacity:1;stroke:none;stroke-width:1px;stroke-linecap:butt;stroke-linejoin:miter;stroke-opacity:1"
       x="444.24341"
       y="-385.67981"
       id="text6492-9"><tspan
         sodipodi:role="line"
         id="tspan6494-9"
         x="444.24341"
         y="-385.67981"
         style="font-size:12.5px;line-height:1.25">Corn oil</tspan></text>
    <text
       xml:space="preserve"
       style="font-style:normal;font-variant:normal;font-weight:normal;font-stretch:normal;line-height:0%;font-family:Arial;-inkscape-font-specification:Arial;text-align:start;letter-spacing:0px;word-spacing:0px;writing-mode:lr-tb;text-anchor:start;fill:#000000;fill-opacity:1;stroke:none;stroke-width:1px;stroke-linecap:butt;stroke-linejoin:miter;stroke-opacity:1"
       x="442.85181"
       y="-347.13345"
       id="text6492-2"><tspan
         sodipodi:role="line"
         id="tspan6494-3"
         x="442.85181"
         y="-347.13345"
         style="font-size:12.5px;line-height:1.25">Olive oil</tspan></text>
    <text
       xml:space="preserve"
       style="font-style:normal;font-variant:normal;font-weight:normal;font-stretch:normal;line-height:0%;font-family:Arial;-inkscape-font-specification:Arial;text-align:start;letter-spacing:0px;word-spacing:0px;writing-mode:lr-tb;text-anchor:start;fill:#000000;fill-opacity:1;stroke:none;stroke-width:1px;stroke-linecap:butt;stroke-linejoin:miter;stroke-opacity:1"
       x="421.97778"
       y="-310.92905"
       id="text6492-6"><tspan
         sodipodi:role="line"
         id="tspan6494-5"
         x="421.97778"
         y="-310.92905"
         style="font-size:12.5px;line-height:1.25">Soybean oil</tspan></text>
    <path
       style="opacity:1;fill:#ff0000;fill-opacity:1;stroke:none;stroke-width:1;stroke-miterlimit:4;stroke-dasharray:none;stroke-dashoffset:0;stroke-opacity:1"
       d="m 514.96371,-425.69245 v -10.17194 l 6.81955,0.0186 c 3.75075,0.0102 6.83445,0.0335 6.85265,0.0517 0.0182,0.0182 0.0162,4.5872 -0.005,10.15332 l -0.0376,10.12022 h -6.815 -6.81501 v -10.17194 z"
       id="path7067"
       inkscape:connector-curvature="0" />
    <path
       style="opacity:1;fill:#ff0000;fill-opacity:1;stroke:none;stroke-width:1;stroke-miterlimit:4;stroke-dasharray:none;stroke-dashoffset:0;stroke-opacity:1"
       d="m 525.44065,-380.74365 c -3.99707,-0.014 -7.99268,-0.0281 -8.87912,-0.0312 l -1.61173,-0.006 v -9.31604 c 0,-8.83908 0.004,-9.31703 0.0684,-9.33523 0.0376,-0.0105 5.59805,-0.0295 12.35653,-0.0421 6.75849,-0.0126 12.63541,-0.0338 13.05983,-0.0471 l 0.77167,-0.0241 v 9.42135 9.42134 l -4.24908,-0.008 c -2.337,-0.004 -7.51941,-0.0193 -11.51648,-0.0334 z"
       id="path7071"
       inkscape:connector-curvature="0" />
    <path
       style="opacity:1;fill:#ff0000;fill-opacity:1;stroke:none;stroke-width:1;stroke-miterlimit:4;stroke-dasharray:none;stroke-dashoffset:0;stroke-opacity:1"
       d="m 516.41785,-341.31776 -1.4652,-0.0231 v -10.32617 -10.32617 l 6.81146,0.052 c 3.7463,0.0286 9.63641,0.0519 13.08913,0.0519 h 6.27768 v 10.31502 10.31502 l -11.62394,-0.0177 c -6.39316,-0.01 -12.28327,-0.0281 -13.08913,-0.0408 z"
       id="path7073"
       inkscape:connector-curvature="0" />
    <path
       style="opacity:1;fill:#ff0000;fill-opacity:1;stroke:none;stroke-width:1;stroke-miterlimit:4;stroke-dasharray:none;stroke-dashoffset:0;stroke-opacity:1"
       d="m 518.22409,-304.78267 -3.22344,-0.0213 v -9.70186 -9.70185 l 6.03663,0.0519 c 3.32015,0.0285 9.9663,0.0519 14.76923,0.0519 l 8.7326,5e-5 v 9.68987 9.68986 l -11.54578,-0.0186 c -6.35019,-0.0103 -12.99634,-0.0282 -14.76924,-0.0399 z"
       id="path7075"
       inkscape:connector-curvature="0" />
    <path
       style="opacity:1;fill:#9999ff;fill-opacity:1;stroke:none;stroke-width:1;stroke-miterlimit:4;stroke-dasharray:none;stroke-dashoffset:0;stroke-opacity:1"
       d="m 560.14485,-415.48303 -30.24176,-0.0813 -3e-5,-10.07904 -3e-5,-10.07903 36.02445,0.0617 c 19.81345,0.0339 47.31236,0.15646 61.1087,0.2723 l 25.08425,0.21061 v 9.96457 9.96458 l -30.86691,-0.0766 c -16.9768,-0.0421 -44.4757,-0.11314 -61.10867,-0.15784 z"
       id="path7195"
       inkscape:connector-curvature="0" />
    <path
       style="opacity:1;fill:#9999ff;fill-opacity:1;stroke:none;stroke-width:1;stroke-miterlimit:4;stroke-dasharray:none;stroke-dashoffset:0;stroke-opacity:1"
       d="m 556.8628,-380.78655 -14.45666,-0.0845 v -9.16714 -9.16715 l 11.77277,-0.20702 c 6.47502,-0.11386 17.23546,-0.20703 23.91209,-0.20703 h 12.13932 v 9.53358 9.53358 l -9.45543,-0.075 c -5.20049,-0.0412 -15.96093,-0.11295 -23.91209,-0.15941 z"
       id="path7197"
       inkscape:connector-curvature="0" />
    <path
       style="opacity:1;fill:#9999ff;fill-opacity:1;stroke:none;stroke-width:1;stroke-miterlimit:4;stroke-dasharray:none;stroke-dashoffset:0;stroke-opacity:1"
       d="m 592.34021,-341.08988 -49.93407,-0.0801 v -10.3197 -10.3197 l 65.25031,0.16938 c 35.88767,0.0932 70.48986,0.25278 76.89377,0.3547 l 11.64347,0.18532 v 10.12224 10.12224 l -26.95971,-0.0772 c -14.82784,-0.0425 -49.43003,-0.11321 -76.89377,-0.15724 z"
       id="path7199"
       inkscape:connector-curvature="0" />
    <path
       style="opacity:1;fill:#9999ff;fill-opacity:1;stroke:none;stroke-width:1;stroke-miterlimit:4;stroke-dasharray:none;stroke-dashoffset:0;stroke-opacity:1"
       d="m 550.14241,-304.83037 -4.6105,-0.0955 v -9.52522 -9.52523 h 24.22466 24.22466 v 9.68987 9.68987 l -19.61416,-0.0691 c -10.78779,-0.038 -21.68889,-0.11211 -24.22466,-0.16465 z"
       id="path7201"
       inkscape:connector-curvature="0" />
    <path
       style="opacity:1;fill:#00ff00;fill-opacity:1;stroke:none;stroke-width:1;stroke-miterlimit:4;stroke-dasharray:none;stroke-dashoffset:0;stroke-opacity:1"
       d="m 657.5417,-415.26955 -3.98535,-0.0977 v -9.9931 -9.9931 l 16.01953,3.8e-4 c 8.81075,2.1e-4 22.24372,0.0935 29.85104,0.20723 l 13.8315,0.20684 v 9.9515 9.95151 l -25.86569,-0.0679 c -14.22613,-0.0374 -27.65909,-0.1119 -29.85103,-0.16563 z"
       id="path7321"
       inkscape:connector-curvature="0" />
    <path
       style="opacity:1;fill:#00ff00;fill-opacity:1;stroke:none;stroke-width:1;stroke-miterlimit:4;stroke-dasharray:none;stroke-dashoffset:0;stroke-opacity:1"
       d="m 616.90677,-380.57397 -25.55311,-0.0818 v -9.53175 -9.53175 l 45.71429,-3.5e-4 c 25.14285,-2e-4 52.57143,-0.0935 60.95238,-0.20733 l 15.23809,-0.20699 v 9.8972 9.8972 l -35.39926,-0.0763 c -19.4696,-0.042 -46.89817,-0.11312 -60.95239,-0.15812 z"
       id="path7323"
       inkscape:connector-curvature="0" />
    <path
       style="opacity:1;fill:#00ff00;fill-opacity:1;stroke:none;stroke-width:1;stroke-miterlimit:4;stroke-dasharray:none;stroke-dashoffset:0;stroke-opacity:1"
       d="m 703.6467,-340.87689 -6.32967,-0.0915 v -10.15226 -10.15226 h 7.9707 7.97069 v 10.31502 10.31502 l -1.64102,-0.0713 c -0.90257,-0.0392 -4.48938,-0.11245 -7.9707,-0.16276 z"
       id="path7325"
       inkscape:connector-curvature="0" />
    <path
       style="opacity:1;fill:#00ff00;fill-opacity:1;stroke:none;stroke-width:1;stroke-miterlimit:4;stroke-dasharray:none;stroke-dashoffset:0;stroke-opacity:1"
       d="m 610.49896,-304.61834 -15.08181,-0.0842 v -9.53057 -9.53058 h 21.35968 c 11.74782,0 38.2621,0.0936 58.92063,0.20796 l 37.56096,0.20795 v 9.48191 9.48191 l -43.83882,-0.0751 c -24.11136,-0.0413 -50.62565,-0.11297 -58.92064,-0.15929 z"
       id="path7327"
       inkscape:connector-curvature="0" />
    <path
       sodipodi:nodetypes="cc"
       inkscape:connector-curvature="0"
       id="path5017-33"
       d="m 514.40806,-286.59698 199.37607,0.6252"
       style="fill:none;fill-rule:evenodd;stroke:#000000;stroke-width:1px;stroke-linecap:butt;stroke-linejoin:miter;stroke-opacity:1" />
    <path
       sodipodi:nodetypes="cc"
       inkscape:connector-curvature="0"
       id="path5017-878"
       d="m 514.40806,-266.27948 199.37607,0.6251"
       style="fill:none;fill-rule:evenodd;stroke:#000000;stroke-width:1px;stroke-linecap:butt;stroke-linejoin:miter;stroke-opacity:1" />
    <path
       sodipodi:nodetypes="cc"
       inkscape:connector-curvature="0"
       id="path5017-65"
       d="m 514.40806,-250.32899 199.37607,0.6252"
       style="fill:none;fill-rule:evenodd;stroke:#000000;stroke-width:1px;stroke-linecap:butt;stroke-linejoin:miter;stroke-opacity:1" />
    <path
       sodipodi:nodetypes="cc"
       inkscape:connector-curvature="0"
       id="path5017-107"
       d="m 514.40806,-229.54259 199.37607,0.6251"
       style="fill:none;fill-rule:evenodd;stroke:#000000;stroke-width:1px;stroke-linecap:butt;stroke-linejoin:miter;stroke-opacity:1" />
    <path
       sodipodi:nodetypes="cc"
       inkscape:connector-curvature="0"
       id="path5017-044"
       d="m 514.40806,-212.95819 199.37607,0.6251"
       style="fill:none;fill-rule:evenodd;stroke:#000000;stroke-width:1px;stroke-linecap:butt;stroke-linejoin:miter;stroke-opacity:1" />
    <path
       sodipodi:nodetypes="cc"
       inkscape:connector-curvature="0"
       id="path5017-968"
       d="m 514.40806,-191.07789 199.37607,0.6252"
       style="fill:none;fill-rule:evenodd;stroke:#000000;stroke-width:1px;stroke-linecap:butt;stroke-linejoin:miter;stroke-opacity:1" />
    <path
       sodipodi:nodetypes="cc"
       inkscape:connector-curvature="0"
       id="path5017-782"
       d="m 514.40806,-175.1365 199.37607,0.62511"
       style="fill:none;fill-rule:evenodd;stroke:#000000;stroke-width:1px;stroke-linecap:butt;stroke-linejoin:miter;stroke-opacity:1" />
    <path
       sodipodi:nodetypes="cc"
       inkscape:connector-curvature="0"
       id="path5017-104"
       d="m 514.40806,-154.42829 199.37607,0.62509"
       style="fill:none;fill-rule:evenodd;stroke:#000000;stroke-width:1px;stroke-linecap:butt;stroke-linejoin:miter;stroke-opacity:1" />
    <path
       sodipodi:nodetypes="cc"
       inkscape:connector-curvature="0"
       id="path5017-46"
       d="m 514.40806,-138.48689 199.37607,0.62509"
       style="fill:none;fill-rule:evenodd;stroke:#000000;stroke-width:1px;stroke-linecap:butt;stroke-linejoin:miter;stroke-opacity:1" />
    <path
       sodipodi:nodetypes="cc"
       inkscape:connector-curvature="0"
       id="path5017-02"
       d="m 514.40806,-117.15359 199.37607,0.6252"
       style="fill:none;fill-rule:evenodd;stroke:#000000;stroke-width:1px;stroke-linecap:butt;stroke-linejoin:miter;stroke-opacity:1" />
    <path
       sodipodi:nodetypes="cc"
       inkscape:connector-curvature="0"
       id="path5017-780"
       d="m 514.40806,-101.2904 199.37607,0.6252"
       style="fill:none;fill-rule:evenodd;stroke:#000000;stroke-width:1px;stroke-linecap:butt;stroke-linejoin:miter;stroke-opacity:1" />
    <path
       sodipodi:nodetypes="cc"
       inkscape:connector-curvature="0"
       id="path5017-851"
       d="m 514.40806,-80.503997 199.37607,0.62511"
       style="fill:none;fill-rule:evenodd;stroke:#000000;stroke-width:1px;stroke-linecap:butt;stroke-linejoin:miter;stroke-opacity:1" />
    <path
       inkscape:connector-curvature="0"
       id="path5782-36-63"
       d="m 647.0001,-286.62568 v 21"
       style="fill:none;fill-rule:evenodd;stroke:#000000;stroke-width:1px;stroke-linecap:butt;stroke-linejoin:miter;stroke-opacity:1" />
    <path
       sodipodi:nodetypes="cc"
       inkscape:connector-curvature="0"
       id="path5782-36-64"
       d="m 707.33987,-286.35218 v 21"
       style="fill:none;fill-rule:evenodd;stroke:#000000;stroke-width:1px;stroke-linecap:butt;stroke-linejoin:miter;stroke-opacity:1" />
    <path
       inkscape:connector-curvature="0"
       id="path5782-36-31"
       d="m 632.41245,-250.12319 v 21"
       style="fill:none;fill-rule:evenodd;stroke:#000000;stroke-width:1px;stroke-linecap:butt;stroke-linejoin:miter;stroke-opacity:1" />
    <path
       inkscape:connector-curvature="0"
       id="path5782-36-62"
       d="m 552.18045,-250.12319 v 21"
       style="fill:none;fill-rule:evenodd;stroke:#000000;stroke-width:1px;stroke-linecap:butt;stroke-linejoin:miter;stroke-opacity:1" />
    <path
       inkscape:connector-curvature="0"
       id="path5782-36-57"
       d="m 596.00693,-212.20549 v 21"
       style="fill:none;fill-rule:evenodd;stroke:#000000;stroke-width:1px;stroke-linecap:butt;stroke-linejoin:miter;stroke-opacity:1" />
    <path
       sodipodi:nodetypes="cc"
       inkscape:connector-curvature="0"
       id="path5782-36-40"
       d="m 690.24868,-212.20549 v 21.2344"
       style="fill:none;fill-rule:evenodd;stroke:#000000;stroke-width:1px;stroke-linecap:butt;stroke-linejoin:miter;stroke-opacity:1" />
    <path
       inkscape:connector-curvature="0"
       id="path5782-36-37"
       d="m 566.32603,-174.96989 v 21"
       style="fill:none;fill-rule:evenodd;stroke:#000000;stroke-width:1px;stroke-linecap:butt;stroke-linejoin:miter;stroke-opacity:1" />
    <path
       inkscape:connector-curvature="0"
       id="path5782-36-69"
       d="m 659.15645,-174.96979 v 21"
       style="fill:none;fill-rule:evenodd;stroke:#000000;stroke-width:1px;stroke-linecap:butt;stroke-linejoin:miter;stroke-opacity:1" />
    <path
       inkscape:connector-curvature="0"
       id="path5782-36-76"
       d="m 577.15625,-138.00769 v 20.99999"
       style="fill:none;fill-rule:evenodd;stroke:#000000;stroke-width:1px;stroke-linecap:butt;stroke-linejoin:miter;stroke-opacity:1" />
    <path
       inkscape:connector-curvature="0"
       id="path5782-36-697"
       d="m 669.76564,-138.00769 v 20.99999"
       style="fill:none;fill-rule:evenodd;stroke:#000000;stroke-width:1px;stroke-linecap:butt;stroke-linejoin:miter;stroke-opacity:1" />
    <path
       inkscape:connector-curvature="0"
       id="path5782-36-2"
       d="m 608.32075,-101.0846 v 21.000003"
       style="fill:none;fill-rule:evenodd;stroke:#000000;stroke-width:1px;stroke-linecap:butt;stroke-linejoin:miter;stroke-opacity:1" />
    <path
       inkscape:connector-curvature="0"
       id="path5782-36-340"
       d="m 707.33987,-101.0846 v 21.000003"
       style="fill:none;fill-rule:evenodd;stroke:#000000;stroke-width:1px;stroke-linecap:butt;stroke-linejoin:miter;stroke-opacity:1" />
    <text
       id="text6492-23-47"
       y="-272.53677"
       x="422.05695"
       style="font-style:normal;font-variant:normal;font-weight:normal;font-stretch:normal;font-size:12px;line-height:0%;font-family:Arial;-inkscape-font-specification:Arial;text-align:start;letter-spacing:0px;word-spacing:0px;writing-mode:lr-tb;text-anchor:start;fill:#000000;fill-opacity:1;stroke:none;stroke-width:1px;stroke-linecap:butt;stroke-linejoin:miter;stroke-opacity:1"
       xml:space="preserve"><tspan
         style="font-size:12.5px;line-height:1.25;stroke-width:1px"
         y="-272.53677"
         x="422.05695"
         id="tspan6494-333-52"
         sodipodi:role="line">Butter, stick</tspan></text>
    <text
       id="text6492-23-64"
       y="-236.46449"
       x="398.39972"
       style="font-style:normal;font-variant:normal;font-weight:normal;font-stretch:normal;font-size:12px;line-height:0%;font-family:Arial;-inkscape-font-specification:Arial;text-align:start;letter-spacing:0px;word-spacing:0px;writing-mode:lr-tb;text-anchor:start;fill:#000000;fill-opacity:1;stroke:none;stroke-width:1px;stroke-linecap:butt;stroke-linejoin:miter;stroke-opacity:1"
       xml:space="preserve"><tspan
         style="font-size:12.5px;line-height:1.25;stroke-width:1px"
         y="-236.46449"
         x="398.39972"
         id="tspan6494-333-23"
         sodipodi:role="line">Margarine, stick</tspan></text>
    <text
       id="text6492-23-999"
       y="-197.3047"
       x="462.49274"
       style="font-style:normal;font-variant:normal;font-weight:normal;font-stretch:normal;font-size:12px;line-height:0%;font-family:Arial;-inkscape-font-specification:Arial;text-align:start;letter-spacing:0px;word-spacing:0px;writing-mode:lr-tb;text-anchor:start;fill:#000000;fill-opacity:1;stroke:none;stroke-width:1px;stroke-linecap:butt;stroke-linejoin:miter;stroke-opacity:1"
       xml:space="preserve"><tspan
         style="font-size:12.5px;line-height:1.25;stroke-width:1px"
         y="-197.3047"
         x="462.49274"
         id="tspan6494-333-647"
         sodipodi:role="line">Lard</tspan></text>
    <text
       id="text6492-23-20"
       y="-161.23491"
       x="426.95197"
       style="font-style:normal;font-variant:normal;font-weight:normal;font-stretch:normal;font-size:12px;line-height:0%;font-family:Arial;-inkscape-font-specification:Arial;text-align:start;letter-spacing:0px;word-spacing:0px;writing-mode:lr-tb;text-anchor:start;fill:#000000;fill-opacity:1;stroke:none;stroke-width:1px;stroke-linecap:butt;stroke-linejoin:miter;stroke-opacity:1"
       xml:space="preserve"><tspan
         style="font-size:12.5px;line-height:1.25;stroke-width:1px"
         y="-161.23491"
         x="426.95197"
         id="tspan6494-333-09"
         sodipodi:role="line">Shortening</tspan></text>
    <text
       id="text6492-23-89"
       y="-123.03371"
       x="424.16876"
       style="font-style:normal;font-variant:normal;font-weight:normal;font-stretch:normal;font-size:12px;line-height:0%;font-family:Arial;-inkscape-font-specification:Arial;text-align:start;letter-spacing:0px;word-spacing:0px;writing-mode:lr-tb;text-anchor:start;fill:#000000;fill-opacity:1;stroke:none;stroke-width:1px;stroke-linecap:butt;stroke-linejoin:miter;stroke-opacity:1"
       xml:space="preserve"><tspan
         style="font-size:12.5px;line-height:1.25;stroke-width:1px"
         y="-123.03371"
         x="424.16876"
         id="tspan6494-333-88"
         sodipodi:role="line">Chicken fat</tspan></text>
    <text
       id="text6492-23-59"
       y="-86.107582"
       x="443.62677"
       style="font-style:normal;font-variant:normal;font-weight:normal;font-stretch:normal;font-size:12px;line-height:0%;font-family:Arial;-inkscape-font-specification:Arial;text-align:start;letter-spacing:0px;word-spacing:0px;writing-mode:lr-tb;text-anchor:start;fill:#000000;fill-opacity:1;stroke:none;stroke-width:1px;stroke-linecap:butt;stroke-linejoin:miter;stroke-opacity:1"
       xml:space="preserve"><tspan
         style="font-size:12.5px;line-height:1.25;stroke-width:1px"
         y="-86.107582"
         x="443.62677"
         id="tspan6494-333-57"
         sodipodi:role="line">Beef fat</tspan></text>
    <path
       inkscape:connector-curvature="0"
       id="path7173"
       d="m 575.31549,-266.65198 c -15.9453,-0.056 -36.00684,-0.1122 -44.58119,-0.1248 l -15.58975,-0.023 v -9.6368 -9.6368 l 24.26373,0.103 c 13.34506,0.057 41.95165,0.1402 63.57021,0.1856 21.61856,0.045 40.23833,0.1231 41.37728,0.1725 l 2.07083,0.09 v 9.5176 9.5175 l -21.05983,-0.031 c -11.58291,-0.017 -34.10598,-0.077 -50.05128,-0.1335 z"
       style="opacity:1;fill:#ff0000;fill-opacity:1;stroke:none;stroke-width:1;stroke-miterlimit:4;stroke-dasharray:none;stroke-dashoffset:0;stroke-opacity:1" />
    <path
       inkscape:connector-curvature="0"
       id="path7177"
       d="m 515.19165,-239.91819 v -9.83559 l 15.4165,9e-4 c 8.47906,4.9e-4 16.6846,0.066 18.23454,0.1446 l 2.81806,0.1437 v 9.69099 9.691 h -18.23454 -18.23456 z"
       style="opacity:1;fill:#ff0000;fill-opacity:1;stroke:none;stroke-width:1;stroke-miterlimit:4;stroke-dasharray:none;stroke-dashoffset:0;stroke-opacity:1" />
    <path
       inkscape:connector-curvature="0"
       id="path7183"
       d="m 544.64322,-191.53479 -29.45157,-0.057 v -10.4239 -10.4239 l 28.54886,0.1471 c 15.70187,0.081 33.75406,0.147 40.116,0.147 h 11.56716 v 10.3882 10.3882 l -10.66445,-0.055 c -5.86545,-0.03 -23.91764,-0.08 -40.116,-0.1113 z"
       style="opacity:1;fill:#ff0000;fill-opacity:1;stroke:none;stroke-width:1;stroke-miterlimit:4;stroke-dasharray:none;stroke-dashoffset:0;stroke-opacity:1" />
    <path
       inkscape:connector-curvature="0"
       id="path7185"
       d="m 515.90999,-155.05979 -0.71834,-0.089 v -9.71111 -9.711 l 9.55933,1.1e-4 c 5.25764,9e-5 16.64594,0.066 25.30734,0.14689 l 15.74802,0.1466 v 9.6888 9.6888 l -24.58901,-0.035 c -13.52396,-0.02 -24.91226,-0.075 -25.30734,-0.1245 z"
       style="opacity:1;fill:#ff0000;fill-opacity:1;stroke:none;stroke-width:1;stroke-miterlimit:4;stroke-dasharray:none;stroke-dashoffset:0;stroke-opacity:1" />
    <path
       inkscape:connector-curvature="0"
       id="path7187"
       d="m 528.3979,-117.71249 -13.20625,-0.059 v -10.05493 -10.05491 l 16.63212,2.1e-4 c 9.14767,9e-5 22.97277,0.066 30.72245,0.1467 l 14.09034,0.1466 v 10.0204 10.02039 l -17.51622,-0.053 c -9.63391,-0.029 -23.45902,-0.08 -30.72244,-0.11231 z"
       style="opacity:1;fill:#ff0000;fill-opacity:1;stroke:none;stroke-width:1;stroke-miterlimit:4;stroke-dasharray:none;stroke-dashoffset:0;stroke-opacity:1" />
    <path
       inkscape:connector-curvature="0"
       id="path7189"
       d="m 524.98555,-81.083087 -9.89086,-0.06 -10e-6,-9.77811 -3e-5,-9.778103 26.79928,0.043 c 14.7396,0.024 35.57672,0.1104 46.30471,0.1926 l 19.50544,0.14959 v 9.698213 9.69829 l -36.41384,-0.053 c -20.02761,-0.029 -40.86472,-0.08 -46.30469,-0.1127 z"
       style="opacity:1;fill:#ff0000;fill-opacity:1;stroke:none;stroke-width:1;stroke-miterlimit:4;stroke-dasharray:none;stroke-dashoffset:0;stroke-opacity:1" />
    <path
       inkscape:connector-curvature="0"
       id="path7299"
       d="m 682.47341,-266.29918 c -10.94072,-0.04 -23.28634,-0.08 -27.4347,-0.088 l -7.54247,-0.016 v -9.62199 -9.622 l 24.00881,0.065 c 13.20486,0.036 26.55751,0.095 29.67258,0.1311 l 5.66377,0.066 v 9.60149 9.6014 l -2.23787,-0.022 c -1.23085,-0.012 -11.18939,-0.055 -22.13012,-0.094 z"
       style="opacity:1;fill:#9999ff;fill-opacity:1;stroke:none;stroke-width:1;stroke-miterlimit:4;stroke-dasharray:none;stroke-dashoffset:0;stroke-opacity:1" />
    <path
       inkscape:connector-curvature="0"
       id="path7303"
       d="m 590.49768,-229.83759 c -20.75897,-0.072 -37.75238,-0.13689 -37.76312,-0.1436 -0.0108,-0.01 -0.0195,-4.4428 -0.0195,-9.85819 v -9.84611 h 1.23077 c 0.67692,9.4e-4 16.19341,0.053 34.48107,0.1154 18.28767,0.062 35.54482,0.1144 38.34921,0.11541 h 5.09889 v 9.88519 9.8852 l -1.81684,-0.013 c -0.99926,-0.01 -18.80146,-0.072 -39.56044,-0.14421 z"
       style="opacity:1;fill:#9999ff;fill-opacity:1;stroke:none;stroke-width:1;stroke-miterlimit:4;stroke-dasharray:none;stroke-dashoffset:0;stroke-opacity:1" />
    <path
       inkscape:connector-curvature="0"
       id="path7309"
       d="m 635.8316,-191.24389 c -10.91034,-0.04 -24.20084,-0.079 -29.53445,-0.088 l -9.69746,-0.016 v -10.40621 -10.4061 l 23.34575,0.073 c 12.84016,0.04 33.77624,0.1063 46.52461,0.1465 l 23.17886,0.073 0.0287,10.3702 0.0287,10.3702 -17.01891,-0.022 c -9.3604,-0.012 -25.94555,-0.055 -36.85589,-0.094 z"
       style="opacity:1;fill:#9999ff;fill-opacity:1;stroke:none;stroke-width:1;stroke-miterlimit:4;stroke-dasharray:none;stroke-dashoffset:0;stroke-opacity:1" />
    <path
       inkscape:connector-curvature="0"
       id="path7311"
       d="m 613.45284,-154.66429 c -10.94073,-0.04 -25.89721,-0.079 -33.23661,-0.088 l -13.34438,-0.016 v -9.8518 -9.8518 l 13.51014,0.071 c 7.43058,0.039 25.27143,0.097 39.64632,0.1282 14.37492,0.031 28.93355,0.087 32.35252,0.1239 l 6.21633,0.067 v 9.7672 9.7671 l -12.62606,-0.022 c -6.94431,-0.012 -21.57754,-0.055 -32.51826,-0.094 z"
       style="opacity:1;fill:#9999ff;fill-opacity:1;stroke:none;stroke-width:1;stroke-miterlimit:4;stroke-dasharray:none;stroke-dashoffset:0;stroke-opacity:1" />
    <path
       inkscape:connector-curvature="0"
       id="path7313"
       d="m 620.19409,-117.36659 c -21.03051,-0.075 -39.19461,-0.1413 -40.36466,-0.14781 l -2.12736,-0.012 v -10.1288 -10.1289 l 14.72578,0.072 c 8.09918,0.04 26.88491,0.098 41.74605,0.12951 14.86117,0.032 28.82303,0.087 31.02637,0.1235 l 4.00608,0.066 v 10.099 10.09899 l -5.38749,-0.018 c -2.96311,-0.01 -22.59425,-0.079 -43.62477,-0.15409 z"
       style="opacity:1;fill:#9999ff;fill-opacity:1;stroke:none;stroke-width:1;stroke-miterlimit:4;stroke-dasharray:none;stroke-dashoffset:0;stroke-opacity:1" />
    <path
       inkscape:connector-curvature="0"
       id="path7315"
       d="m 668.37751,-80.565997 c -21.03052,-0.075 -43.02387,-0.1413 -48.87412,-0.1477 l -10.63682,-0.012 -4e-5,-9.86319 -4e-5,-9.863313 7.37675,0.024 c 45.5318,0.15111 79.8514,0.2536 84.65253,0.25281 h 5.88479 v 9.890893 c 0,5.44001 -0.0373,9.88271 -0.0829,9.87281 -0.0456,-0.01 -17.28968,-0.079 -38.32018,-0.15411 z"
       style="opacity:1;fill:#9999ff;fill-opacity:1;stroke:none;stroke-width:1;stroke-miterlimit:4;stroke-dasharray:none;stroke-dashoffset:0;stroke-opacity:1" />
    <path
       inkscape:connector-curvature="0"
       id="path7417"
       d="m 707.83822,-275.82628 v -9.6422 h 2.84571 2.84569 v 9.6422 9.6422 h -2.84569 -2.84571 z"
       style="opacity:1;fill:#00ff00;fill-opacity:1;stroke:none;stroke-width:1;stroke-miterlimit:4;stroke-dasharray:none;stroke-dashoffset:0;stroke-opacity:1" />
    <path
       inkscape:connector-curvature="0"
       id="path7421"
       d="m 665.89795,-229.59918 c -14.87082,-0.053 -28.36532,-0.10001 -29.9878,-0.10451 l -2.94993,-0.01 v -9.84619 -9.84611 l 5.41148,-9e-5 c 6.47086,0 47.82247,0.13149 63.80463,0.203 l 11.35044,0.051 v 9.83659 9.83651 l -10.2955,-0.013 c -5.66251,-0.01 -22.46251,-0.056 -37.33332,-0.10899 z"
       style="opacity:1;fill:#00ff00;fill-opacity:1;stroke:none;stroke-width:1;stroke-miterlimit:4;stroke-dasharray:none;stroke-dashoffset:0;stroke-opacity:1" />
    <path
       inkscape:connector-curvature="0"
       id="path7427"
       d="m 694.50308,-191.03919 -3.7436,-0.015 v -10.4245 -10.4246 l 6.30837,0.037 c 3.46959,0.02 8.59185,0.037 11.38277,0.037 h 5.07441 v 10.41581 10.41579 l -7.63916,-0.013 c -4.20155,-0.01 -9.3238,-0.02 -11.38279,-0.028 z"
       style="opacity:1;fill:#00ff00;fill-opacity:1;stroke:none;stroke-width:1;stroke-miterlimit:4;stroke-dasharray:none;stroke-dashoffset:0;stroke-opacity:1" />
    <path
       inkscape:connector-curvature="0"
       id="path7429"
       d="m 689.97063,-154.41109 c -7.75775,-0.028 -17.75335,-0.056 -22.21246,-0.062 l -8.10744,-0.011 v -9.8568 -9.8568 l 4.31746,0.05 c 2.3746,0.027 14.3746,0.069 26.66666,0.092 12.29206,0.023 22.4635,0.06 22.60317,0.082 l 0.25397,0.04 v 9.80351 9.80359 l -4.70818,-0.016 c -2.58949,-0.01 -11.05543,-0.039 -18.81318,-0.067 z"
       style="opacity:1;fill:#00ff00;fill-opacity:1;stroke:none;stroke-width:1;stroke-miterlimit:4;stroke-dasharray:none;stroke-dashoffset:0;stroke-opacity:1" />
    <path
       inkscape:connector-curvature="0"
       id="path7431"
       d="m 689.89248,-117.1364 c -7.71477,-0.028 -15.28399,-0.056 -16.8205,-0.062 l -2.79366,-0.011 v -10.1268 -10.1268 l 21.35288,0.05 c 11.74407,0.027 21.46715,0.067 21.60682,0.089 l 0.25397,0.039 v 10.11609 10.11611 l -4.78632,-0.016 c -2.63248,-0.01 -11.0984,-0.039 -18.81319,-0.067 z"
       style="opacity:1;fill:#00ff00;fill-opacity:1;stroke:none;stroke-width:1;stroke-miterlimit:4;stroke-dasharray:none;stroke-dashoffset:0;stroke-opacity:1" />
    <path
       inkscape:connector-curvature="0"
       id="path7433"
       d="m 707.86562,-90.289597 v -9.885193 h 2.63736 c 1.45056,6e-4 2.71649,0.022 2.81319,0.048 l 0.17582,0.047 v 9.837003 9.8371 h -2.81317 -2.8132 v -9.8853 z"
       style="opacity:1;fill:#00ff00;fill-opacity:1;stroke:none;stroke-width:1;stroke-miterlimit:4;stroke-dasharray:none;stroke-dashoffset:0;stroke-opacity:1" />
  </g>
</svg>
