<?xml version="1.0" encoding="utf-8" standalone="no"?>
<!DOCTYPE svg PUBLIC "-//W3C//DTD SVG 1.1//EN"
  "http://www.w3.org/Graphics/SVG/1.1/DTD/svg11.dtd">
<svg xmlns:xlink="http://www.w3.org/1999/xlink" width="460.8pt" height="345.6pt" viewBox="0 0 460.8 345.6" xmlns="http://www.w3.org/2000/svg" version="1.1">
 <metadata>
  <rdf:RDF xmlns:dc="http://purl.org/dc/elements/1.1/" xmlns:cc="http://creativecommons.org/ns#" xmlns:rdf="http://www.w3.org/1999/02/22-rdf-syntax-ns#">
   <cc:Work>
    <dc:type rdf:resource="http://purl.org/dc/dcmitype/StillImage"/>
    <dc:date>2024-05-09T12:57:10.192425</dc:date>
    <dc:format>image/svg+xml</dc:format>
    <dc:creator>
     <cc:Agent>
      <dc:title>Matplotlib v3.8.4, https://matplotlib.org/</dc:title>
     </cc:Agent>
    </dc:creator>
   </cc:Work>
  </rdf:RDF>
 </metadata>
 <defs>
  <style type="text/css">*{stroke-linejoin: round; stroke-linecap: butt}</style>
 </defs>
 <g id="figure_1">
  <g id="patch_1">
   <path d="M 0 345.6 
L 460.8 345.6 
L 460.8 0 
L 0 0 
z
" style="fill: #ffffff; stroke: #ffffff; stroke-linejoin: miter"/>
  </g>
  <g id="axes_1">
   <g id="matplotlib.axis_1">
    <g id="xtick_1">
     <g id="text_1">
      <!-- No -->
      <g style="fill: #4d4d4d" transform="translate(62.491872 311.937169) rotate(-20) scale(0.088 -0.088)">
       <defs>
        <path id="Montserrat-Regular-4e" d="M 4474 4480 
L 4474 0 
L 4083 0 
L 1203 3635 
L 1203 0 
L 730 0 
L 730 4480 
L 1120 4480 
L 4006 845 
L 4006 4480 
L 4474 4480 
z
" transform="scale(0.015625)"/>
        <path id="Montserrat-Regular-6f" d="M 2010 -32 
Q 1523 -32 1132 189 
Q 742 410 518 800 
Q 294 1190 294 1683 
Q 294 2176 518 2566 
Q 742 2957 1132 3174 
Q 1523 3392 2010 3392 
Q 2496 3392 2886 3174 
Q 3277 2957 3497 2566 
Q 3718 2176 3718 1683 
Q 3718 1190 3497 800 
Q 3277 410 2886 189 
Q 2496 -32 2010 -32 
z
M 2010 371 
Q 2368 371 2653 534 
Q 2938 698 3098 998 
Q 3258 1299 3258 1683 
Q 3258 2067 3098 2368 
Q 2938 2669 2653 2832 
Q 2368 2995 2010 2995 
Q 1651 2995 1366 2832 
Q 1082 2669 918 2368 
Q 755 2067 755 1683 
Q 755 1299 918 998 
Q 1082 698 1366 534 
Q 1651 371 2010 371 
z
" transform="scale(0.015625)"/>
       </defs>
       <use xlink:href="#Montserrat-Regular-4e"/>
       <use xlink:href="#Montserrat-Regular-6f" x="81.299988"/>
      </g>
     </g>
    </g>
    <g id="xtick_2">
     <g id="text_2">
      <!-- Whatever -->
      <g style="fill: #4d4d4d" transform="translate(117.074531 322.45634) rotate(-20) scale(0.088 -0.088)">
       <defs>
        <path id="Montserrat-Regular-57" d="M 6880 4480 
L 5370 0 
L 4870 0 
L 3558 3821 
L 2240 0 
L 1747 0 
L 237 4480 
L 723 4480 
L 2016 627 
L 3354 4480 
L 3795 4480 
L 5114 608 
L 6426 4480 
L 6880 4480 
z
" transform="scale(0.015625)"/>
        <path id="Montserrat-Regular-68" d="M 2349 3392 
Q 2982 3392 3356 3024 
Q 3731 2656 3731 1952 
L 3731 0 
L 3277 0 
L 3277 1907 
Q 3277 2432 3014 2707 
Q 2752 2982 2266 2982 
Q 1722 2982 1405 2659 
Q 1088 2336 1088 1766 
L 1088 0 
L 634 0 
L 634 4749 
L 1088 4749 
L 1088 2778 
Q 1274 3072 1600 3232 
Q 1926 3392 2349 3392 
z
" transform="scale(0.015625)"/>
        <path id="Montserrat-Regular-61" d="M 1811 3392 
Q 2470 3392 2822 3062 
Q 3174 2733 3174 2086 
L 3174 0 
L 2739 0 
L 2739 525 
Q 2586 262 2288 115 
Q 1990 -32 1581 -32 
Q 1018 -32 685 237 
Q 352 506 352 947 
Q 352 1376 662 1638 
Q 973 1901 1651 1901 
L 2720 1901 
L 2720 2106 
Q 2720 2541 2477 2768 
Q 2234 2995 1766 2995 
Q 1446 2995 1152 2889 
Q 858 2784 646 2598 
L 442 2938 
Q 698 3155 1056 3273 
Q 1414 3392 1811 3392 
z
M 1651 326 
Q 2035 326 2310 502 
Q 2586 678 2720 1011 
L 2720 1562 
L 1664 1562 
Q 800 1562 800 960 
Q 800 666 1024 496 
Q 1248 326 1651 326 
z
" transform="scale(0.015625)"/>
        <path id="Montserrat-Regular-74" d="M 2406 205 
Q 2278 90 2089 29 
Q 1901 -32 1696 -32 
Q 1222 -32 966 224 
Q 710 480 710 947 
L 710 2982 
L 109 2982 
L 109 3366 
L 710 3366 
L 710 4102 
L 1165 4102 
L 1165 3366 
L 2189 3366 
L 2189 2982 
L 1165 2982 
L 1165 973 
Q 1165 672 1315 515 
Q 1466 358 1747 358 
Q 1888 358 2019 403 
Q 2150 448 2246 531 
L 2406 205 
z
" transform="scale(0.015625)"/>
        <path id="Montserrat-Regular-65" d="M 3565 1542 
L 749 1542 
Q 787 1018 1152 694 
Q 1517 371 2074 371 
Q 2387 371 2649 483 
Q 2912 595 3104 813 
L 3360 518 
Q 3136 250 2800 109 
Q 2464 -32 2061 -32 
Q 1542 -32 1142 189 
Q 742 410 518 800 
Q 294 1190 294 1683 
Q 294 2176 508 2566 
Q 723 2957 1097 3174 
Q 1472 3392 1939 3392 
Q 2406 3392 2777 3174 
Q 3149 2957 3360 2569 
Q 3571 2182 3571 1683 
L 3565 1542 
z
M 1939 3002 
Q 1453 3002 1123 2691 
Q 794 2381 749 1882 
L 3136 1882 
Q 3091 2381 2761 2691 
Q 2432 3002 1939 3002 
z
" transform="scale(0.015625)"/>
        <path id="Montserrat-Regular-76" d="M 3462 3366 
L 1965 0 
L 1498 0 
L 6 3366 
L 480 3366 
L 1741 499 
L 3014 3366 
L 3462 3366 
z
" transform="scale(0.015625)"/>
        <path id="Montserrat-Regular-72" d="M 1069 2707 
Q 1229 3046 1545 3219 
Q 1862 3392 2330 3392 
L 2330 2950 
L 2221 2957 
Q 1690 2957 1389 2630 
Q 1088 2304 1088 1715 
L 1088 0 
L 634 0 
L 634 3366 
L 1069 3366 
L 1069 2707 
z
" transform="scale(0.015625)"/>
       </defs>
       <use xlink:href="#Montserrat-Regular-57"/>
       <use xlink:href="#Montserrat-Regular-68" x="111.099991"/>
       <use xlink:href="#Montserrat-Regular-61" x="178.799973"/>
       <use xlink:href="#Montserrat-Regular-74" x="237.799957"/>
       <use xlink:href="#Montserrat-Regular-65" x="278.399948"/>
       <use xlink:href="#Montserrat-Regular-76" x="338.799942"/>
       <use xlink:href="#Montserrat-Regular-65" x="392.999939"/>
       <use xlink:href="#Montserrat-Regular-72" x="453.399933"/>
      </g>
     </g>
    </g>
    <g id="xtick_3">
     <g id="text_3">
      <!-- Yes -->
      <g style="fill: #4d4d4d" transform="translate(227.076973 312.804361) rotate(-20) scale(0.088 -0.088)">
       <defs>
        <path id="Montserrat-Regular-59" d="M 2266 1549 
L 2266 0 
L 1798 0 
L 1798 1549 
L 6 4480 
L 512 4480 
L 2048 1965 
L 3584 4480 
L 4058 4480 
L 2266 1549 
z
" transform="scale(0.015625)"/>
        <path id="Montserrat-Regular-73" d="M 1536 -32 
Q 1126 -32 752 86 
Q 378 205 166 384 
L 371 742 
Q 582 576 902 470 
Q 1222 365 1568 365 
Q 2029 365 2249 509 
Q 2470 653 2470 915 
Q 2470 1101 2348 1206 
Q 2227 1312 2041 1366 
Q 1856 1421 1549 1472 
Q 1139 1549 889 1629 
Q 640 1709 464 1901 
Q 288 2093 288 2432 
Q 288 2854 640 3123 
Q 992 3392 1619 3392 
Q 1946 3392 2272 3305 
Q 2598 3219 2810 3078 
L 2611 2714 
Q 2195 3002 1619 3002 
Q 1184 3002 963 2848 
Q 742 2694 742 2445 
Q 742 2253 867 2137 
Q 992 2022 1177 1968 
Q 1363 1914 1690 1856 
Q 2093 1779 2336 1702 
Q 2579 1626 2752 1440 
Q 2925 1254 2925 928 
Q 2925 486 2557 227 
Q 2189 -32 1536 -32 
z
" transform="scale(0.015625)"/>
       </defs>
       <use xlink:href="#Montserrat-Regular-59"/>
       <use xlink:href="#Montserrat-Regular-65" x="63.499985"/>
       <use xlink:href="#Montserrat-Regular-73" x="123.899979"/>
      </g>
     </g>
    </g>
    <g id="xtick_4">
     <g id="text_4">
      <!-- Yes, please, I beg you -->
      <g style="fill: #4d4d4d" transform="translate(237.638558 339.345893) rotate(-20) scale(0.088 -0.088)">
       <defs>
        <path id="Montserrat-Regular-2c" d="M 685 666 
Q 832 666 928 566 
Q 1024 467 1024 320 
Q 1024 243 1001 153 
Q 979 64 934 -51 
L 666 -934 
L 358 -934 
L 576 -6 
Q 474 26 410 112 
Q 346 198 346 320 
Q 346 467 442 566 
Q 538 666 685 666 
z
" transform="scale(0.015625)"/>
        <path id="Montserrat-Regular-20" transform="scale(0.015625)"/>
        <path id="Montserrat-Regular-70" d="M 2368 3392 
Q 2842 3392 3226 3177 
Q 3610 2963 3827 2572 
Q 4045 2182 4045 1683 
Q 4045 1178 3827 787 
Q 3610 397 3229 182 
Q 2848 -32 2368 -32 
Q 1958 -32 1628 137 
Q 1299 307 1088 634 
L 1088 -1242 
L 634 -1242 
L 634 3366 
L 1069 3366 
L 1069 2701 
Q 1274 3034 1610 3213 
Q 1946 3392 2368 3392 
z
M 2336 371 
Q 2688 371 2976 534 
Q 3264 698 3427 998 
Q 3590 1299 3590 1683 
Q 3590 2067 3427 2364 
Q 3264 2662 2976 2828 
Q 2688 2995 2336 2995 
Q 1978 2995 1693 2828 
Q 1408 2662 1245 2364 
Q 1082 2067 1082 1683 
Q 1082 1299 1245 998 
Q 1408 698 1693 534 
Q 1978 371 2336 371 
z
" transform="scale(0.015625)"/>
        <path id="Montserrat-Regular-6c" d="M 634 4749 
L 1088 4749 
L 1088 0 
L 634 0 
L 634 4749 
z
" transform="scale(0.015625)"/>
        <path id="Montserrat-Regular-49" d="M 730 4480 
L 1203 4480 
L 1203 0 
L 730 0 
L 730 4480 
z
" transform="scale(0.015625)"/>
        <path id="Montserrat-Regular-62" d="M 2368 3392 
Q 2842 3392 3226 3177 
Q 3610 2963 3827 2572 
Q 4045 2182 4045 1683 
Q 4045 1184 3827 793 
Q 3610 403 3226 185 
Q 2842 -32 2368 -32 
Q 1946 -32 1610 147 
Q 1274 326 1069 666 
L 1069 0 
L 634 0 
L 634 4749 
L 1088 4749 
L 1088 2726 
Q 1299 3053 1628 3222 
Q 1958 3392 2368 3392 
z
M 2336 371 
Q 2688 371 2976 534 
Q 3264 698 3427 998 
Q 3590 1299 3590 1683 
Q 3590 2067 3427 2368 
Q 3264 2669 2976 2832 
Q 2688 2995 2336 2995 
Q 1978 2995 1693 2832 
Q 1408 2669 1245 2368 
Q 1082 2067 1082 1683 
Q 1082 1299 1245 998 
Q 1408 698 1693 534 
Q 1978 371 2336 371 
z
" transform="scale(0.015625)"/>
        <path id="Montserrat-Regular-67" d="M 3750 3366 
L 3750 410 
Q 3750 -448 3331 -861 
Q 2912 -1274 2067 -1274 
Q 1600 -1274 1181 -1136 
Q 762 -998 499 -755 
L 730 -410 
Q 973 -627 1321 -748 
Q 1670 -870 2054 -870 
Q 2694 -870 2995 -572 
Q 3296 -275 3296 352 
L 3296 781 
Q 3085 461 2742 294 
Q 2400 128 1984 128 
Q 1510 128 1123 336 
Q 736 544 515 918 
Q 294 1293 294 1766 
Q 294 2240 515 2611 
Q 736 2982 1120 3187 
Q 1504 3392 1984 3392 
Q 2413 3392 2758 3219 
Q 3104 3046 3315 2720 
L 3315 3366 
L 3750 3366 
z
M 2029 531 
Q 2394 531 2688 688 
Q 2982 845 3145 1126 
Q 3309 1408 3309 1766 
Q 3309 2125 3145 2403 
Q 2982 2682 2691 2838 
Q 2400 2995 2029 2995 
Q 1664 2995 1373 2841 
Q 1082 2688 918 2406 
Q 755 2125 755 1766 
Q 755 1408 918 1126 
Q 1082 845 1373 688 
Q 1664 531 2029 531 
z
" transform="scale(0.015625)"/>
        <path id="Montserrat-Regular-79" d="M 3462 3366 
L 1779 -403 
Q 1574 -877 1305 -1075 
Q 1037 -1274 659 -1274 
Q 416 -1274 205 -1197 
Q -6 -1120 -160 -966 
L 51 -627 
Q 307 -883 666 -883 
Q 896 -883 1059 -755 
Q 1222 -627 1363 -320 
L 1510 6 
L 6 3366 
L 480 3366 
L 1747 506 
L 3014 3366 
L 3462 3366 
z
" transform="scale(0.015625)"/>
        <path id="Montserrat-Regular-75" d="M 3667 3366 
L 3667 0 
L 3232 0 
L 3232 614 
Q 3053 307 2739 137 
Q 2426 -32 2022 -32 
Q 1363 -32 982 336 
Q 602 704 602 1414 
L 602 3366 
L 1056 3366 
L 1056 1459 
Q 1056 928 1318 653 
Q 1581 378 2067 378 
Q 2598 378 2905 701 
Q 3213 1024 3213 1600 
L 3213 3366 
L 3667 3366 
z
" transform="scale(0.015625)"/>
       </defs>
       <use xlink:href="#Montserrat-Regular-59"/>
       <use xlink:href="#Montserrat-Regular-65" x="63.499985"/>
       <use xlink:href="#Montserrat-Regular-73" x="123.899979"/>
       <use xlink:href="#Montserrat-Regular-2c" x="172.799973"/>
       <use xlink:href="#Montserrat-Regular-20" x="193.999969"/>
       <use xlink:href="#Montserrat-Regular-70" x="220.199966"/>
       <use xlink:href="#Montserrat-Regular-6c" x="287.999954"/>
       <use xlink:href="#Montserrat-Regular-65" x="314.899948"/>
       <use xlink:href="#Montserrat-Regular-61" x="375.299942"/>
       <use xlink:href="#Montserrat-Regular-73" x="434.299927"/>
       <use xlink:href="#Montserrat-Regular-65" x="483.199921"/>
       <use xlink:href="#Montserrat-Regular-2c" x="543.599915"/>
       <use xlink:href="#Montserrat-Regular-20" x="564.799911"/>
       <use xlink:href="#Montserrat-Regular-49" x="590.999908"/>
       <use xlink:href="#Montserrat-Regular-20" x="621.199905"/>
       <use xlink:href="#Montserrat-Regular-62" x="647.399902"/>
       <use xlink:href="#Montserrat-Regular-65" x="715.19989"/>
       <use xlink:href="#Montserrat-Regular-67" x="775.599884"/>
       <use xlink:href="#Montserrat-Regular-20" x="844.199875"/>
       <use xlink:href="#Montserrat-Regular-79" x="870.399872"/>
       <use xlink:href="#Montserrat-Regular-6f" x="924.599869"/>
       <use xlink:href="#Montserrat-Regular-75" x="987.299866"/>
      </g>
     </g>
    </g>
    <g id="xtick_5">
     <g id="text_5">
      <!-- nan -->
      <g style="fill: #4d4d4d" transform="translate(392.259015 313.454285) rotate(-20) scale(0.088 -0.088)">
       <defs>
        <path id="Montserrat-Regular-6e" d="M 2349 3392 
Q 2982 3392 3356 3024 
Q 3731 2656 3731 1952 
L 3731 0 
L 3277 0 
L 3277 1907 
Q 3277 2432 3014 2707 
Q 2752 2982 2266 2982 
Q 1722 2982 1405 2659 
Q 1088 2336 1088 1766 
L 1088 0 
L 634 0 
L 634 3366 
L 1069 3366 
L 1069 2746 
Q 1254 3053 1584 3222 
Q 1914 3392 2349 3392 
z
" transform="scale(0.015625)"/>
       </defs>
       <use xlink:href="#Montserrat-Regular-6e"/>
       <use xlink:href="#Montserrat-Regular-61" x="67.699982"/>
       <use xlink:href="#Montserrat-Regular-6e" x="126.699966"/>
      </g>
     </g>
    </g>
   </g>
   <g id="matplotlib.axis_2">
    <g id="ytick_1">
     <g id="text_6">
      <!-- 0 -->
      <g style="fill: #4d4d4d" transform="translate(16.250125 294.155408) scale(0.088 -0.088)">
       <defs>
        <path id="Montserrat-Regular-30" d="M 2118 -38 
Q 1600 -38 1193 237 
Q 787 512 560 1027 
Q 333 1542 333 2240 
Q 333 2938 560 3453 
Q 787 3968 1193 4243 
Q 1600 4518 2118 4518 
Q 2637 4518 3043 4243 
Q 3450 3968 3680 3453 
Q 3910 2938 3910 2240 
Q 3910 1542 3680 1027 
Q 3450 512 3043 237 
Q 2637 -38 2118 -38 
z
M 2118 384 
Q 2509 384 2806 601 
Q 3104 819 3270 1235 
Q 3437 1651 3437 2240 
Q 3437 2829 3270 3245 
Q 3104 3661 2806 3878 
Q 2509 4096 2118 4096 
Q 1728 4096 1430 3878 
Q 1133 3661 966 3245 
Q 800 2829 800 2240 
Q 800 1651 966 1235 
Q 1133 819 1430 601 
Q 1728 384 2118 384 
z
" transform="scale(0.015625)"/>
       </defs>
       <use xlink:href="#Montserrat-Regular-30"/>
      </g>
     </g>
    </g>
    <g id="ytick_2">
     <g id="text_7">
      <!-- 100 -->
      <g style="fill: #4d4d4d" transform="translate(7.248 248.468396) scale(0.088 -0.088)">
       <defs>
        <path id="Montserrat-Regular-31" d="M 1574 4480 
L 1574 0 
L 1114 0 
L 1114 4070 
L 58 4070 
L 58 4480 
L 1574 4480 
z
" transform="scale(0.015625)"/>
       </defs>
       <use xlink:href="#Montserrat-Regular-31"/>
       <use xlink:href="#Montserrat-Regular-30" x="36.099991"/>
       <use xlink:href="#Montserrat-Regular-30" x="102.299988"/>
      </g>
     </g>
    </g>
    <g id="ytick_3">
     <g id="text_8">
      <!-- 200 -->
      <g style="fill: #4d4d4d" transform="translate(5.426125 202.781385) scale(0.088 -0.088)">
       <defs>
        <path id="Montserrat-Regular-32" d="M 3392 410 
L 3392 0 
L 250 0 
L 250 326 
L 2112 2150 
Q 2464 2496 2589 2749 
Q 2714 3002 2714 3258 
Q 2714 3654 2442 3875 
Q 2170 4096 1664 4096 
Q 877 4096 442 3597 
L 115 3878 
Q 378 4186 784 4352 
Q 1190 4518 1702 4518 
Q 2387 4518 2787 4195 
Q 3187 3872 3187 3309 
Q 3187 2963 3033 2643 
Q 2880 2323 2451 1907 
L 928 410 
L 3392 410 
z
" transform="scale(0.015625)"/>
       </defs>
       <use xlink:href="#Montserrat-Regular-32"/>
       <use xlink:href="#Montserrat-Regular-30" x="56.799988"/>
       <use xlink:href="#Montserrat-Regular-30" x="122.999985"/>
      </g>
     </g>
    </g>
    <g id="ytick_4">
     <g id="text_9">
      <!-- 300 -->
      <g style="fill: #4d4d4d" transform="translate(5.4605 157.094373) scale(0.088 -0.088)">
       <defs>
        <path id="Montserrat-Regular-33" d="M 1856 2560 
Q 2560 2522 2928 2179 
Q 3296 1837 3296 1286 
Q 3296 902 3110 604 
Q 2925 307 2560 134 
Q 2195 -38 1670 -38 
Q 1184 -38 752 118 
Q 320 275 58 538 
L 282 902 
Q 506 672 877 528 
Q 1248 384 1670 384 
Q 2221 384 2521 624 
Q 2822 864 2822 1286 
Q 2822 1702 2521 1939 
Q 2221 2176 1613 2176 
L 1293 2176 
L 1293 2515 
L 2534 4070 
L 243 4070 
L 243 4480 
L 3123 4480 
L 3123 4154 
L 1856 2560 
z
" transform="scale(0.015625)"/>
       </defs>
       <use xlink:href="#Montserrat-Regular-33"/>
       <use xlink:href="#Montserrat-Regular-30" x="56.399994"/>
       <use xlink:href="#Montserrat-Regular-30" x="122.599991"/>
      </g>
     </g>
    </g>
    <g id="ytick_5">
     <g id="text_10">
      <!-- 400 -->
      <g style="fill: #4d4d4d" transform="translate(4.608 111.407361) scale(0.088 -0.088)">
       <defs>
        <path id="Montserrat-Regular-34" d="M 4141 1178 
L 3245 1178 
L 3245 0 
L 2784 0 
L 2784 1178 
L 256 1178 
L 256 1510 
L 2630 4480 
L 3142 4480 
L 851 1587 
L 2797 1587 
L 2797 2624 
L 3245 2624 
L 3245 1587 
L 4141 1587 
L 4141 1178 
z
" transform="scale(0.015625)"/>
       </defs>
       <use xlink:href="#Montserrat-Regular-34"/>
       <use xlink:href="#Montserrat-Regular-30" x="66.099991"/>
       <use xlink:href="#Montserrat-Regular-30" x="132.299988"/>
      </g>
     </g>
    </g>
    <g id="ytick_6"/>
    <g id="ytick_7"/>
    <g id="ytick_8"/>
    <g id="ytick_9"/>
    <g id="ytick_10"/>
   </g>
   <g id="PolyCollection_1">
    <path d="M 30.424385 290.890471 
L 30.424385 290.890471 
L 113.908231 290.890471 
L 113.908231 290.890471 
z
" clip-path="url(#p6f674bb0ac)" style="fill: #595959"/>
    <path d="M 30.424385 290.890471 
L 30.424385 290.890471 
L 113.908231 290.890471 
L 113.908231 290.890471 
z
" clip-path="url(#p6f674bb0ac)" style="fill: #595959"/>
    <path d="M 30.424385 290.890471 
L 30.424385 290.890471 
L 113.908231 290.890471 
L 113.908231 290.890471 
z
" clip-path="url(#p6f674bb0ac)" style="fill: #595959"/>
    <path d="M 30.424385 290.890471 
L 30.424385 79.359606 
L 113.908231 79.359606 
L 113.908231 290.890471 
z
" clip-path="url(#p6f674bb0ac)" style="fill: #595959"/>
    <path d="M 30.424385 79.359606 
L 30.424385 79.359606 
L 113.908231 79.359606 
L 113.908231 79.359606 
z
" clip-path="url(#p6f674bb0ac)" style="fill: #595959"/>
    <path d="M 113.908231 290.890471 
L 113.908231 290.890471 
L 197.392077 290.890471 
L 197.392077 290.890471 
z
" clip-path="url(#p6f674bb0ac)" style="fill: #595959"/>
    <path d="M 113.908231 290.890471 
L 113.908231 290.890471 
L 197.392077 290.890471 
L 197.392077 290.890471 
z
" clip-path="url(#p6f674bb0ac)" style="fill: #595959"/>
    <path d="M 113.908231 290.890471 
L 113.908231 152.001955 
L 197.392077 152.001955 
L 197.392077 290.890471 
z
" clip-path="url(#p6f674bb0ac)" style="fill: #595959"/>
    <path d="M 113.908231 152.001955 
L 113.908231 152.001955 
L 197.392077 152.001955 
L 197.392077 152.001955 
z
" clip-path="url(#p6f674bb0ac)" style="fill: #595959"/>
    <path d="M 113.908231 152.001955 
L 113.908231 152.001955 
L 197.392077 152.001955 
L 197.392077 152.001955 
z
" clip-path="url(#p6f674bb0ac)" style="fill: #595959"/>
    <path d="M 197.392077 290.890471 
L 197.392077 290.890471 
L 280.875923 290.890471 
L 280.875923 290.890471 
z
" clip-path="url(#p6f674bb0ac)" style="fill: #595959"/>
    <path d="M 197.392077 290.890471 
L 197.392077 244.746589 
L 280.875923 244.746589 
L 280.875923 290.890471 
z
" clip-path="url(#p6f674bb0ac)" style="fill: #595959"/>
    <path d="M 197.392077 244.746589 
L 197.392077 244.746589 
L 280.875923 244.746589 
L 280.875923 244.746589 
z
" clip-path="url(#p6f674bb0ac)" style="fill: #595959"/>
    <path d="M 197.392077 244.746589 
L 197.392077 244.746589 
L 280.875923 244.746589 
L 280.875923 244.746589 
z
" clip-path="url(#p6f674bb0ac)" style="fill: #595959"/>
    <path d="M 197.392077 244.746589 
L 197.392077 244.746589 
L 280.875923 244.746589 
L 280.875923 244.746589 
z
" clip-path="url(#p6f674bb0ac)" style="fill: #595959"/>
    <path d="M 280.875923 290.890471 
L 280.875923 284.951159 
L 364.359769 284.951159 
L 364.359769 290.890471 
z
" clip-path="url(#p6f674bb0ac)" style="fill: #595959"/>
    <path d="M 280.875923 284.951159 
L 280.875923 284.951159 
L 364.359769 284.951159 
L 364.359769 284.951159 
z
" clip-path="url(#p6f674bb0ac)" style="fill: #595959"/>
    <path d="M 280.875923 284.951159 
L 280.875923 284.951159 
L 364.359769 284.951159 
L 364.359769 284.951159 
z
" clip-path="url(#p6f674bb0ac)" style="fill: #595959"/>
    <path d="M 280.875923 284.951159 
L 280.875923 284.951159 
L 364.359769 284.951159 
L 364.359769 284.951159 
z
" clip-path="url(#p6f674bb0ac)" style="fill: #595959"/>
    <path d="M 280.875923 284.951159 
L 280.875923 284.951159 
L 364.359769 284.951159 
L 364.359769 284.951159 
z
" clip-path="url(#p6f674bb0ac)" style="fill: #595959"/>
    <path d="M 364.359769 290.890471 
L 364.359769 290.890471 
L 447.843615 290.890471 
L 447.843615 290.890471 
z
" clip-path="url(#p6f674bb0ac)" style="fill: #595959"/>
    <path d="M 364.359769 290.890471 
L 364.359769 290.890471 
L 447.843615 290.890471 
L 447.843615 290.890471 
z
" clip-path="url(#p6f674bb0ac)" style="fill: #595959"/>
    <path d="M 364.359769 290.890471 
L 364.359769 290.890471 
L 447.843615 290.890471 
L 447.843615 290.890471 
z
" clip-path="url(#p6f674bb0ac)" style="fill: #595959"/>
    <path d="M 364.359769 290.890471 
L 364.359769 290.890471 
L 447.843615 290.890471 
L 447.843615 290.890471 
z
" clip-path="url(#p6f674bb0ac)" style="fill: #595959"/>
    <path d="M 364.359769 290.890471 
L 364.359769 263.478264 
L 447.843615 263.478264 
L 447.843615 290.890471 
z
" clip-path="url(#p6f674bb0ac)" style="fill: #595959"/>
   </g>
   <g id="text_11">
    <g clip-path="url(#p6f674bb0ac)">
     <!-- dynomight.net -->
     <g style="fill: #808080" transform="translate(390.44888 282.843068) scale(0.04 -0.04)">
      <defs>
       <path id="DejaVuSansMono-64" d="M 2681 3053 
L 2681 4863 
L 3256 4863 
L 3256 0 
L 2681 0 
L 2681 441 
Q 2538 181 2298 45 
Q 2059 -91 1747 -91 
Q 1113 -91 748 401 
Q 384 894 384 1759 
Q 384 2613 750 3098 
Q 1116 3584 1747 3584 
Q 2063 3584 2303 3448 
Q 2544 3313 2681 3053 
z
M 991 1747 
Q 991 1078 1203 737 
Q 1416 397 1831 397 
Q 2247 397 2464 740 
Q 2681 1084 2681 1747 
Q 2681 2413 2464 2755 
Q 2247 3097 1831 3097 
Q 1416 3097 1203 2756 
Q 991 2416 991 1747 
z
" transform="scale(0.015625)"/>
       <path id="DejaVuSansMono-79" d="M 2681 1125 
Q 2538 759 2316 163 
Q 2006 -663 1900 -844 
Q 1756 -1088 1540 -1209 
Q 1325 -1331 1038 -1331 
L 575 -1331 
L 575 -850 
L 916 -850 
Q 1169 -850 1312 -703 
Q 1456 -556 1678 56 
L 325 3500 
L 934 3500 
L 1972 763 
L 2994 3500 
L 3603 3500 
L 2681 1125 
z
" transform="scale(0.015625)"/>
       <path id="DejaVuSansMono-6e" d="M 3284 2169 
L 3284 0 
L 2706 0 
L 2706 2169 
Q 2706 2641 2540 2862 
Q 2375 3084 2022 3084 
Q 1619 3084 1401 2798 
Q 1184 2513 1184 1978 
L 1184 0 
L 609 0 
L 609 3500 
L 1184 3500 
L 1184 2975 
Q 1338 3275 1600 3429 
Q 1863 3584 2222 3584 
Q 2756 3584 3020 3232 
Q 3284 2881 3284 2169 
z
" transform="scale(0.015625)"/>
       <path id="DejaVuSansMono-6f" d="M 1925 3097 
Q 1488 3097 1263 2756 
Q 1038 2416 1038 1747 
Q 1038 1081 1263 739 
Q 1488 397 1925 397 
Q 2366 397 2591 739 
Q 2816 1081 2816 1747 
Q 2816 2416 2591 2756 
Q 2366 3097 1925 3097 
z
M 1925 3584 
Q 2653 3584 3039 3112 
Q 3425 2641 3425 1747 
Q 3425 850 3040 379 
Q 2656 -91 1925 -91 
Q 1197 -91 812 379 
Q 428 850 428 1747 
Q 428 2641 812 3112 
Q 1197 3584 1925 3584 
z
" transform="scale(0.015625)"/>
       <path id="DejaVuSansMono-6d" d="M 2113 3144 
Q 2219 3369 2383 3476 
Q 2547 3584 2778 3584 
Q 3200 3584 3373 3257 
Q 3547 2931 3547 2028 
L 3547 0 
L 3022 0 
L 3022 2003 
Q 3022 2744 2939 2923 
Q 2856 3103 2638 3103 
Q 2388 3103 2295 2911 
Q 2203 2719 2203 2003 
L 2203 0 
L 1678 0 
L 1678 2003 
Q 1678 2753 1589 2928 
Q 1500 3103 1269 3103 
Q 1041 3103 952 2911 
Q 863 2719 863 2003 
L 863 0 
L 341 0 
L 341 3500 
L 863 3500 
L 863 3200 
Q 966 3388 1120 3486 
Q 1275 3584 1472 3584 
Q 1709 3584 1867 3475 
Q 2025 3366 2113 3144 
z
" transform="scale(0.015625)"/>
       <path id="DejaVuSansMono-69" d="M 800 3500 
L 2272 3500 
L 2272 447 
L 3413 447 
L 3413 0 
L 556 0 
L 556 447 
L 1697 447 
L 1697 3053 
L 800 3053 
L 800 3500 
z
M 1697 4863 
L 2272 4863 
L 2272 4134 
L 1697 4134 
L 1697 4863 
z
" transform="scale(0.015625)"/>
       <path id="DejaVuSansMono-67" d="M 2681 1778 
Q 2681 2425 2470 2761 
Q 2259 3097 1856 3097 
Q 1434 3097 1212 2761 
Q 991 2425 991 1778 
Q 991 1131 1214 792 
Q 1438 453 1863 453 
Q 2259 453 2470 793 
Q 2681 1134 2681 1778 
z
M 3256 225 
Q 3256 -563 2884 -969 
Q 2513 -1375 1791 -1375 
Q 1553 -1375 1293 -1331 
Q 1034 -1288 775 -1203 
L 775 -634 
Q 1081 -778 1331 -847 
Q 1581 -916 1791 -916 
Q 2256 -916 2468 -662 
Q 2681 -409 2681 141 
L 2681 166 
L 2681 556 
Q 2544 263 2306 119 
Q 2069 -25 1728 -25 
Q 1116 -25 750 465 
Q 384 956 384 1778 
Q 384 2603 750 3093 
Q 1116 3584 1728 3584 
Q 2066 3584 2300 3450 
Q 2534 3316 2681 3034 
L 2681 3488 
L 3256 3488 
L 3256 225 
z
" transform="scale(0.015625)"/>
       <path id="DejaVuSansMono-68" d="M 3284 2169 
L 3284 0 
L 2706 0 
L 2706 2169 
Q 2706 2641 2540 2862 
Q 2375 3084 2022 3084 
Q 1619 3084 1401 2798 
Q 1184 2513 1184 1978 
L 1184 0 
L 609 0 
L 609 4863 
L 1184 4863 
L 1184 2975 
Q 1338 3275 1600 3429 
Q 1863 3584 2222 3584 
Q 2756 3584 3020 3232 
Q 3284 2881 3284 2169 
z
" transform="scale(0.015625)"/>
       <path id="DejaVuSansMono-74" d="M 1919 4494 
L 1919 3500 
L 3225 3500 
L 3225 3053 
L 1919 3053 
L 1919 1153 
Q 1919 766 2066 612 
Q 2213 459 2578 459 
L 3225 459 
L 3225 0 
L 2522 0 
Q 1875 0 1609 259 
Q 1344 519 1344 1153 
L 1344 3053 
L 409 3053 
L 409 3500 
L 1344 3500 
L 1344 4494 
L 1919 4494 
z
" transform="scale(0.015625)"/>
       <path id="DejaVuSansMono-2e" d="M 1528 953 
L 2316 953 
L 2316 0 
L 1528 0 
L 1528 953 
z
" transform="scale(0.015625)"/>
       <path id="DejaVuSansMono-65" d="M 3475 1894 
L 3475 1613 
L 984 1613 
L 984 1594 
Q 984 1022 1282 709 
Q 1581 397 2125 397 
Q 2400 397 2700 484 
Q 3000 572 3341 750 
L 3341 178 
Q 3013 44 2708 -23 
Q 2403 -91 2119 -91 
Q 1303 -91 843 398 
Q 384 888 384 1747 
Q 384 2584 834 3084 
Q 1284 3584 2034 3584 
Q 2703 3584 3089 3131 
Q 3475 2678 3475 1894 
z
M 2900 2063 
Q 2888 2569 2661 2833 
Q 2434 3097 2009 3097 
Q 1594 3097 1325 2822 
Q 1056 2547 1006 2059 
L 2900 2063 
z
" transform="scale(0.015625)"/>
      </defs>
      <use xlink:href="#DejaVuSansMono-64"/>
      <use xlink:href="#DejaVuSansMono-79" x="60.205078"/>
      <use xlink:href="#DejaVuSansMono-6e" x="120.410156"/>
      <use xlink:href="#DejaVuSansMono-6f" x="180.615234"/>
      <use xlink:href="#DejaVuSansMono-6d" x="240.820312"/>
      <use xlink:href="#DejaVuSansMono-69" x="301.025391"/>
      <use xlink:href="#DejaVuSansMono-67" x="361.230469"/>
      <use xlink:href="#DejaVuSansMono-68" x="421.435547"/>
      <use xlink:href="#DejaVuSansMono-74" x="481.640625"/>
      <use xlink:href="#DejaVuSansMono-2e" x="541.845703"/>
      <use xlink:href="#DejaVuSansMono-6e" x="602.050781"/>
      <use xlink:href="#DejaVuSansMono-65" x="662.255859"/>
      <use xlink:href="#DejaVuSansMono-74" x="722.460938"/>
     </g>
    </g>
   </g>
  </g>
  <g id="text_12">
   <!-- Do you wish that dynomight.net had some kind of -->
   <g transform="translate(12.015625 14.468813) scale(0.132 -0.132)">
    <defs>
     <path id="Montserrat-Regular-44" d="M 730 4480 
L 2554 4480 
Q 3264 4480 3808 4195 
Q 4352 3910 4653 3401 
Q 4954 2893 4954 2240 
Q 4954 1587 4653 1078 
Q 4352 570 3808 285 
Q 3264 0 2554 0 
L 730 0 
L 730 4480 
z
M 2528 410 
Q 3117 410 3558 643 
Q 4000 877 4243 1289 
Q 4486 1702 4486 2240 
Q 4486 2778 4243 3190 
Q 4000 3603 3558 3836 
Q 3117 4070 2528 4070 
L 1203 4070 
L 1203 410 
L 2528 410 
z
" transform="scale(0.015625)"/>
     <path id="Montserrat-Regular-77" d="M 5574 3366 
L 4301 0 
L 3872 0 
L 2810 2758 
L 1747 0 
L 1318 0 
L 51 3366 
L 486 3366 
L 1542 506 
L 2624 3366 
L 3014 3366 
L 4090 506 
L 5158 3366 
L 5574 3366 
z
" transform="scale(0.015625)"/>
     <path id="Montserrat-Regular-69" d="M 634 3366 
L 1088 3366 
L 1088 0 
L 634 0 
L 634 3366 
z
M 864 4102 
Q 723 4102 627 4198 
Q 531 4294 531 4429 
Q 531 4557 627 4653 
Q 723 4749 864 4749 
Q 1005 4749 1101 4656 
Q 1197 4563 1197 4435 
Q 1197 4294 1101 4198 
Q 1005 4102 864 4102 
z
" transform="scale(0.015625)"/>
     <path id="Montserrat-Regular-64" d="M 3706 4749 
L 3706 0 
L 3270 0 
L 3270 666 
Q 3066 326 2730 147 
Q 2394 -32 1971 -32 
Q 1498 -32 1114 185 
Q 730 403 512 793 
Q 294 1184 294 1683 
Q 294 2182 512 2572 
Q 730 2963 1114 3177 
Q 1498 3392 1971 3392 
Q 2381 3392 2710 3222 
Q 3040 3053 3251 2726 
L 3251 4749 
L 3706 4749 
z
M 2010 371 
Q 2362 371 2646 534 
Q 2931 698 3094 998 
Q 3258 1299 3258 1683 
Q 3258 2067 3094 2368 
Q 2931 2669 2646 2832 
Q 2362 2995 2010 2995 
Q 1651 2995 1366 2832 
Q 1082 2669 918 2368 
Q 755 2067 755 1683 
Q 755 1299 918 998 
Q 1082 698 1366 534 
Q 1651 371 2010 371 
z
" transform="scale(0.015625)"/>
     <path id="Montserrat-Regular-6d" d="M 4832 3392 
Q 5466 3392 5827 3027 
Q 6189 2662 6189 1952 
L 6189 0 
L 5734 0 
L 5734 1907 
Q 5734 2432 5481 2707 
Q 5229 2982 4768 2982 
Q 4243 2982 3942 2659 
Q 3642 2336 3642 1766 
L 3642 0 
L 3187 0 
L 3187 1907 
Q 3187 2432 2934 2707 
Q 2682 2982 2214 2982 
Q 1696 2982 1392 2659 
Q 1088 2336 1088 1766 
L 1088 0 
L 634 0 
L 634 3366 
L 1069 3366 
L 1069 2752 
Q 1248 3059 1568 3225 
Q 1888 3392 2304 3392 
Q 2726 3392 3036 3213 
Q 3347 3034 3501 2682 
Q 3686 3014 4035 3203 
Q 4384 3392 4832 3392 
z
" transform="scale(0.015625)"/>
     <path id="Montserrat-Regular-2e" d="M 678 -32 
Q 538 -32 438 70 
Q 339 173 339 320 
Q 339 467 438 566 
Q 538 666 678 666 
Q 819 666 921 566 
Q 1024 467 1024 320 
Q 1024 173 921 70 
Q 819 -32 678 -32 
z
" transform="scale(0.015625)"/>
     <path id="Montserrat-Regular-6b" d="M 1882 1690 
L 1088 960 
L 1088 0 
L 634 0 
L 634 4749 
L 1088 4749 
L 1088 1530 
L 3098 3366 
L 3661 3366 
L 2221 1990 
L 3795 0 
L 3238 0 
L 1882 1690 
z
" transform="scale(0.015625)"/>
     <path id="Montserrat-Regular-66" d="M 1747 4397 
Q 1453 4397 1302 4237 
Q 1152 4077 1152 3763 
L 1152 3366 
L 2189 3366 
L 2189 2982 
L 1165 2982 
L 1165 0 
L 710 0 
L 710 2982 
L 109 2982 
L 109 3366 
L 710 3366 
L 710 3782 
Q 710 4243 976 4512 
Q 1242 4781 1728 4781 
Q 1920 4781 2099 4726 
Q 2278 4672 2400 4570 
L 2246 4230 
Q 2048 4397 1747 4397 
z
" transform="scale(0.015625)"/>
    </defs>
    <use xlink:href="#Montserrat-Regular-44"/>
    <use xlink:href="#Montserrat-Regular-6f" x="82.599991"/>
    <use xlink:href="#Montserrat-Regular-20" x="145.299988"/>
    <use xlink:href="#Montserrat-Regular-79" x="171.499985"/>
    <use xlink:href="#Montserrat-Regular-6f" x="225.699982"/>
    <use xlink:href="#Montserrat-Regular-75" x="288.399979"/>
    <use xlink:href="#Montserrat-Regular-20" x="355.699966"/>
    <use xlink:href="#Montserrat-Regular-77" x="381.899963"/>
    <use xlink:href="#Montserrat-Regular-69" x="469.799957"/>
    <use xlink:href="#Montserrat-Regular-73" x="496.699951"/>
    <use xlink:href="#Montserrat-Regular-68" x="545.599945"/>
    <use xlink:href="#Montserrat-Regular-20" x="613.299927"/>
    <use xlink:href="#Montserrat-Regular-74" x="639.499924"/>
    <use xlink:href="#Montserrat-Regular-68" x="680.099915"/>
    <use xlink:href="#Montserrat-Regular-61" x="747.799896"/>
    <use xlink:href="#Montserrat-Regular-74" x="806.799881"/>
    <use xlink:href="#Montserrat-Regular-20" x="847.399872"/>
    <use xlink:href="#Montserrat-Regular-64" x="873.599869"/>
    <use xlink:href="#Montserrat-Regular-79" x="941.399857"/>
    <use xlink:href="#Montserrat-Regular-6e" x="995.599854"/>
    <use xlink:href="#Montserrat-Regular-6f" x="1063.299835"/>
    <use xlink:href="#Montserrat-Regular-6d" x="1125.999832"/>
    <use xlink:href="#Montserrat-Regular-69" x="1232.099823"/>
    <use xlink:href="#Montserrat-Regular-67" x="1258.999817"/>
    <use xlink:href="#Montserrat-Regular-68" x="1327.599808"/>
    <use xlink:href="#Montserrat-Regular-74" x="1395.299789"/>
    <use xlink:href="#Montserrat-Regular-2e" x="1435.89978"/>
    <use xlink:href="#Montserrat-Regular-6e" x="1457.099777"/>
    <use xlink:href="#Montserrat-Regular-65" x="1524.799759"/>
    <use xlink:href="#Montserrat-Regular-74" x="1585.199753"/>
    <use xlink:href="#Montserrat-Regular-20" x="1625.799744"/>
    <use xlink:href="#Montserrat-Regular-68" x="1651.999741"/>
    <use xlink:href="#Montserrat-Regular-61" x="1719.699722"/>
    <use xlink:href="#Montserrat-Regular-64" x="1778.699707"/>
    <use xlink:href="#Montserrat-Regular-20" x="1846.499695"/>
    <use xlink:href="#Montserrat-Regular-73" x="1872.699692"/>
    <use xlink:href="#Montserrat-Regular-6f" x="1921.599686"/>
    <use xlink:href="#Montserrat-Regular-6d" x="1984.299683"/>
    <use xlink:href="#Montserrat-Regular-65" x="2090.399673"/>
    <use xlink:href="#Montserrat-Regular-20" x="2150.799667"/>
    <use xlink:href="#Montserrat-Regular-6b" x="2176.999664"/>
    <use xlink:href="#Montserrat-Regular-69" x="2237.099655"/>
    <use xlink:href="#Montserrat-Regular-6e" x="2263.999649"/>
    <use xlink:href="#Montserrat-Regular-64" x="2331.699631"/>
    <use xlink:href="#Montserrat-Regular-20" x="2399.499619"/>
    <use xlink:href="#Montserrat-Regular-6f" x="2425.699615"/>
    <use xlink:href="#Montserrat-Regular-66" x="2488.399612"/>
   </g>
   <!-- forum/comments? Some people have asked for this, but these days -->
   <g transform="translate(12.015625 27.099769) scale(0.132 -0.132)">
    <defs>
     <path id="Montserrat-Regular-2f" d="M 1952 5389 
L 2368 5389 
L 256 -640 
L -160 -640 
L 1952 5389 
z
" transform="scale(0.015625)"/>
     <path id="Montserrat-Regular-63" d="M 2029 -32 
Q 1530 -32 1136 185 
Q 742 403 518 796 
Q 294 1190 294 1683 
Q 294 2176 518 2566 
Q 742 2957 1136 3174 
Q 1530 3392 2029 3392 
Q 2464 3392 2806 3222 
Q 3149 3053 3347 2726 
L 3008 2496 
Q 2842 2746 2586 2870 
Q 2330 2995 2029 2995 
Q 1664 2995 1373 2832 
Q 1082 2669 918 2368 
Q 755 2067 755 1683 
Q 755 1293 918 995 
Q 1082 698 1373 534 
Q 1664 371 2029 371 
Q 2330 371 2586 492 
Q 2842 614 3008 864 
L 3347 634 
Q 3149 307 2803 137 
Q 2458 -32 2029 -32 
z
" transform="scale(0.015625)"/>
     <path id="Montserrat-Regular-3f" d="M 1504 1344 
Q 1504 1606 1590 1804 
Q 1677 2003 1805 2144 
Q 1933 2285 2138 2464 
Q 2413 2707 2544 2889 
Q 2675 3072 2675 3334 
Q 2675 3686 2400 3900 
Q 2125 4115 1645 4115 
Q 851 4115 422 3597 
L 83 3853 
Q 627 4518 1677 4518 
Q 2349 4518 2749 4217 
Q 3149 3917 3149 3405 
Q 3149 3142 3062 2940 
Q 2976 2739 2851 2598 
Q 2726 2458 2522 2272 
Q 2246 2022 2112 1827 
Q 1978 1632 1978 1344 
L 1504 1344 
z
M 1741 -32 
Q 1600 -32 1504 67 
Q 1408 166 1408 301 
Q 1408 442 1504 534 
Q 1600 627 1741 627 
Q 1888 627 1984 534 
Q 2080 442 2080 301 
Q 2080 166 1981 67 
Q 1882 -32 1741 -32 
z
" transform="scale(0.015625)"/>
     <path id="Montserrat-Regular-53" d="M 1965 -38 
Q 1466 -38 1008 122 
Q 550 282 301 544 
L 486 909 
Q 730 666 1133 515 
Q 1536 365 1965 365 
Q 2566 365 2867 585 
Q 3168 806 3168 1158 
Q 3168 1427 3005 1587 
Q 2842 1747 2605 1833 
Q 2368 1920 1946 2022 
Q 1440 2150 1139 2268 
Q 838 2387 624 2630 
Q 410 2874 410 3290 
Q 410 3629 589 3907 
Q 768 4186 1139 4352 
Q 1510 4518 2061 4518 
Q 2445 4518 2813 4412 
Q 3181 4307 3450 4122 
L 3290 3744 
Q 3008 3930 2688 4022 
Q 2368 4115 2061 4115 
Q 1472 4115 1174 3888 
Q 877 3661 877 3302 
Q 877 3034 1040 2870 
Q 1203 2707 1449 2620 
Q 1696 2534 2112 2432 
Q 2605 2310 2909 2192 
Q 3213 2074 3424 1834 
Q 3635 1594 3635 1184 
Q 3635 845 3452 566 
Q 3270 288 2892 125 
Q 2515 -38 1965 -38 
z
" transform="scale(0.015625)"/>
    </defs>
    <use xlink:href="#Montserrat-Regular-66"/>
    <use xlink:href="#Montserrat-Regular-6f" x="33.899994"/>
    <use xlink:href="#Montserrat-Regular-72" x="96.599991"/>
    <use xlink:href="#Montserrat-Regular-75" x="136.699982"/>
    <use xlink:href="#Montserrat-Regular-6d" x="203.999969"/>
    <use xlink:href="#Montserrat-Regular-2f" x="310.09996"/>
    <use xlink:href="#Montserrat-Regular-63" x="343.599945"/>
    <use xlink:href="#Montserrat-Regular-6f" x="399.899933"/>
    <use xlink:href="#Montserrat-Regular-6d" x="462.59993"/>
    <use xlink:href="#Montserrat-Regular-6d" x="568.699921"/>
    <use xlink:href="#Montserrat-Regular-65" x="674.799911"/>
    <use xlink:href="#Montserrat-Regular-6e" x="735.199905"/>
    <use xlink:href="#Montserrat-Regular-74" x="802.899887"/>
    <use xlink:href="#Montserrat-Regular-73" x="843.499878"/>
    <use xlink:href="#Montserrat-Regular-3f" x="892.399872"/>
    <use xlink:href="#Montserrat-Regular-20" x="949.099869"/>
    <use xlink:href="#Montserrat-Regular-53" x="975.299866"/>
    <use xlink:href="#Montserrat-Regular-6f" x="1036.79985"/>
    <use xlink:href="#Montserrat-Regular-6d" x="1099.499847"/>
    <use xlink:href="#Montserrat-Regular-65" x="1205.599838"/>
    <use xlink:href="#Montserrat-Regular-20" x="1265.999832"/>
    <use xlink:href="#Montserrat-Regular-70" x="1292.199829"/>
    <use xlink:href="#Montserrat-Regular-65" x="1359.999817"/>
    <use xlink:href="#Montserrat-Regular-6f" x="1420.399811"/>
    <use xlink:href="#Montserrat-Regular-70" x="1483.099808"/>
    <use xlink:href="#Montserrat-Regular-6c" x="1550.899796"/>
    <use xlink:href="#Montserrat-Regular-65" x="1577.799789"/>
    <use xlink:href="#Montserrat-Regular-20" x="1638.199783"/>
    <use xlink:href="#Montserrat-Regular-68" x="1664.39978"/>
    <use xlink:href="#Montserrat-Regular-61" x="1732.099762"/>
    <use xlink:href="#Montserrat-Regular-76" x="1791.099747"/>
    <use xlink:href="#Montserrat-Regular-65" x="1845.299744"/>
    <use xlink:href="#Montserrat-Regular-20" x="1905.699738"/>
    <use xlink:href="#Montserrat-Regular-61" x="1931.899734"/>
    <use xlink:href="#Montserrat-Regular-73" x="1990.899719"/>
    <use xlink:href="#Montserrat-Regular-6b" x="2039.799713"/>
    <use xlink:href="#Montserrat-Regular-65" x="2099.899704"/>
    <use xlink:href="#Montserrat-Regular-64" x="2160.299698"/>
    <use xlink:href="#Montserrat-Regular-20" x="2228.099686"/>
    <use xlink:href="#Montserrat-Regular-66" x="2254.299683"/>
    <use xlink:href="#Montserrat-Regular-6f" x="2288.199677"/>
    <use xlink:href="#Montserrat-Regular-72" x="2350.899673"/>
    <use xlink:href="#Montserrat-Regular-20" x="2390.999664"/>
    <use xlink:href="#Montserrat-Regular-74" x="2417.199661"/>
    <use xlink:href="#Montserrat-Regular-68" x="2457.799652"/>
    <use xlink:href="#Montserrat-Regular-69" x="2525.499634"/>
    <use xlink:href="#Montserrat-Regular-73" x="2552.399628"/>
    <use xlink:href="#Montserrat-Regular-2c" x="2601.299622"/>
    <use xlink:href="#Montserrat-Regular-20" x="2622.499619"/>
    <use xlink:href="#Montserrat-Regular-62" x="2648.699615"/>
    <use xlink:href="#Montserrat-Regular-75" x="2716.499603"/>
    <use xlink:href="#Montserrat-Regular-74" x="2783.799591"/>
    <use xlink:href="#Montserrat-Regular-20" x="2824.399582"/>
    <use xlink:href="#Montserrat-Regular-74" x="2850.599579"/>
    <use xlink:href="#Montserrat-Regular-68" x="2891.19957"/>
    <use xlink:href="#Montserrat-Regular-65" x="2958.899551"/>
    <use xlink:href="#Montserrat-Regular-73" x="3019.299545"/>
    <use xlink:href="#Montserrat-Regular-65" x="3068.199539"/>
    <use xlink:href="#Montserrat-Regular-20" x="3128.599533"/>
    <use xlink:href="#Montserrat-Regular-64" x="3154.79953"/>
    <use xlink:href="#Montserrat-Regular-61" x="3222.599518"/>
    <use xlink:href="#Montserrat-Regular-79" x="3281.599503"/>
    <use xlink:href="#Montserrat-Regular-73" x="3335.7995"/>
   </g>
   <!-- I figure most people prefer to comment elsewhere anyway? (Please -->
   <g transform="translate(12.015625 38.602125) scale(0.132 -0.132)">
    <defs>
     <path id="Montserrat-Regular-28" d="M 1408 -1242 
Q 1050 -653 858 112 
Q 666 877 666 1754 
Q 666 2630 858 3401 
Q 1050 4173 1408 4749 
L 1843 4749 
Q 1466 4102 1290 3360 
Q 1114 2618 1114 1754 
Q 1114 890 1290 147 
Q 1466 -595 1843 -1242 
L 1408 -1242 
z
" transform="scale(0.015625)"/>
     <path id="Montserrat-Regular-50" d="M 2406 4480 
Q 3264 4480 3750 4070 
Q 4237 3661 4237 2944 
Q 4237 2227 3750 1820 
Q 3264 1414 2406 1414 
L 1203 1414 
L 1203 0 
L 730 0 
L 730 4480 
L 2406 4480 
z
M 2394 1830 
Q 3059 1830 3411 2121 
Q 3763 2413 3763 2944 
Q 3763 3488 3411 3779 
Q 3059 4070 2394 4070 
L 1203 4070 
L 1203 1830 
L 2394 1830 
z
" transform="scale(0.015625)"/>
    </defs>
    <use xlink:href="#Montserrat-Regular-49"/>
    <use xlink:href="#Montserrat-Regular-20" x="30.199997"/>
    <use xlink:href="#Montserrat-Regular-66" x="56.399994"/>
    <use xlink:href="#Montserrat-Regular-69" x="90.299988"/>
    <use xlink:href="#Montserrat-Regular-67" x="117.199982"/>
    <use xlink:href="#Montserrat-Regular-75" x="185.799973"/>
    <use xlink:href="#Montserrat-Regular-72" x="253.09996"/>
    <use xlink:href="#Montserrat-Regular-65" x="293.199951"/>
    <use xlink:href="#Montserrat-Regular-20" x="353.599945"/>
    <use xlink:href="#Montserrat-Regular-6d" x="379.799942"/>
    <use xlink:href="#Montserrat-Regular-6f" x="485.899933"/>
    <use xlink:href="#Montserrat-Regular-73" x="548.59993"/>
    <use xlink:href="#Montserrat-Regular-74" x="597.499924"/>
    <use xlink:href="#Montserrat-Regular-20" x="638.099915"/>
    <use xlink:href="#Montserrat-Regular-70" x="664.299911"/>
    <use xlink:href="#Montserrat-Regular-65" x="732.099899"/>
    <use xlink:href="#Montserrat-Regular-6f" x="792.499893"/>
    <use xlink:href="#Montserrat-Regular-70" x="855.19989"/>
    <use xlink:href="#Montserrat-Regular-6c" x="922.999878"/>
    <use xlink:href="#Montserrat-Regular-65" x="949.899872"/>
    <use xlink:href="#Montserrat-Regular-20" x="1010.299866"/>
    <use xlink:href="#Montserrat-Regular-70" x="1036.499863"/>
    <use xlink:href="#Montserrat-Regular-72" x="1104.29985"/>
    <use xlink:href="#Montserrat-Regular-65" x="1144.399841"/>
    <use xlink:href="#Montserrat-Regular-66" x="1204.799835"/>
    <use xlink:href="#Montserrat-Regular-65" x="1238.699829"/>
    <use xlink:href="#Montserrat-Regular-72" x="1299.099823"/>
    <use xlink:href="#Montserrat-Regular-20" x="1339.199814"/>
    <use xlink:href="#Montserrat-Regular-74" x="1365.399811"/>
    <use xlink:href="#Montserrat-Regular-6f" x="1405.999802"/>
    <use xlink:href="#Montserrat-Regular-20" x="1468.699799"/>
    <use xlink:href="#Montserrat-Regular-63" x="1494.899796"/>
    <use xlink:href="#Montserrat-Regular-6f" x="1551.199783"/>
    <use xlink:href="#Montserrat-Regular-6d" x="1613.89978"/>
    <use xlink:href="#Montserrat-Regular-6d" x="1719.999771"/>
    <use xlink:href="#Montserrat-Regular-65" x="1826.099762"/>
    <use xlink:href="#Montserrat-Regular-6e" x="1886.499756"/>
    <use xlink:href="#Montserrat-Regular-74" x="1954.199738"/>
    <use xlink:href="#Montserrat-Regular-20" x="1994.799728"/>
    <use xlink:href="#Montserrat-Regular-65" x="2020.999725"/>
    <use xlink:href="#Montserrat-Regular-6c" x="2081.399719"/>
    <use xlink:href="#Montserrat-Regular-73" x="2108.299713"/>
    <use xlink:href="#Montserrat-Regular-65" x="2157.199707"/>
    <use xlink:href="#Montserrat-Regular-77" x="2217.599701"/>
    <use xlink:href="#Montserrat-Regular-68" x="2305.499695"/>
    <use xlink:href="#Montserrat-Regular-65" x="2373.199677"/>
    <use xlink:href="#Montserrat-Regular-72" x="2433.59967"/>
    <use xlink:href="#Montserrat-Regular-65" x="2473.699661"/>
    <use xlink:href="#Montserrat-Regular-20" x="2534.099655"/>
    <use xlink:href="#Montserrat-Regular-61" x="2560.299652"/>
    <use xlink:href="#Montserrat-Regular-6e" x="2619.299637"/>
    <use xlink:href="#Montserrat-Regular-79" x="2686.999619"/>
    <use xlink:href="#Montserrat-Regular-77" x="2741.199615"/>
    <use xlink:href="#Montserrat-Regular-61" x="2829.099609"/>
    <use xlink:href="#Montserrat-Regular-79" x="2888.099594"/>
    <use xlink:href="#Montserrat-Regular-3f" x="2942.299591"/>
    <use xlink:href="#Montserrat-Regular-20" x="2998.999588"/>
    <use xlink:href="#Montserrat-Regular-28" x="3025.199585"/>
    <use xlink:href="#Montserrat-Regular-50" x="3058.099579"/>
    <use xlink:href="#Montserrat-Regular-6c" x="3129.899567"/>
    <use xlink:href="#Montserrat-Regular-65" x="3156.799561"/>
    <use xlink:href="#Montserrat-Regular-61" x="3217.199554"/>
    <use xlink:href="#Montserrat-Regular-73" x="3276.199539"/>
    <use xlink:href="#Montserrat-Regular-65" x="3325.099533"/>
   </g>
   <!-- err on the side of saying "no" because creating this would be kind -->
   <g transform="translate(12.015625 50.104481) scale(0.132 -0.132)">
    <defs>
     <path id="Montserrat-Regular-22" d="M 442 4480 
L 845 4480 
L 813 2790 
L 474 2790 
L 442 4480 
z
M 1536 4480 
L 1939 4480 
L 1907 2790 
L 1568 2790 
L 1536 4480 
z
" transform="scale(0.015625)"/>
    </defs>
    <use xlink:href="#Montserrat-Regular-65"/>
    <use xlink:href="#Montserrat-Regular-72" x="60.399994"/>
    <use xlink:href="#Montserrat-Regular-72" x="100.499985"/>
    <use xlink:href="#Montserrat-Regular-20" x="140.599976"/>
    <use xlink:href="#Montserrat-Regular-6f" x="166.799973"/>
    <use xlink:href="#Montserrat-Regular-6e" x="229.499969"/>
    <use xlink:href="#Montserrat-Regular-20" x="297.199951"/>
    <use xlink:href="#Montserrat-Regular-74" x="323.399948"/>
    <use xlink:href="#Montserrat-Regular-68" x="363.999939"/>
    <use xlink:href="#Montserrat-Regular-65" x="431.699921"/>
    <use xlink:href="#Montserrat-Regular-20" x="492.099915"/>
    <use xlink:href="#Montserrat-Regular-73" x="518.299911"/>
    <use xlink:href="#Montserrat-Regular-69" x="567.199905"/>
    <use xlink:href="#Montserrat-Regular-64" x="594.099899"/>
    <use xlink:href="#Montserrat-Regular-65" x="661.899887"/>
    <use xlink:href="#Montserrat-Regular-20" x="722.299881"/>
    <use xlink:href="#Montserrat-Regular-6f" x="748.499878"/>
    <use xlink:href="#Montserrat-Regular-66" x="811.199875"/>
    <use xlink:href="#Montserrat-Regular-20" x="845.099869"/>
    <use xlink:href="#Montserrat-Regular-73" x="871.299866"/>
    <use xlink:href="#Montserrat-Regular-61" x="920.19986"/>
    <use xlink:href="#Montserrat-Regular-79" x="979.199844"/>
    <use xlink:href="#Montserrat-Regular-69" x="1033.399841"/>
    <use xlink:href="#Montserrat-Regular-6e" x="1060.299835"/>
    <use xlink:href="#Montserrat-Regular-67" x="1127.999817"/>
    <use xlink:href="#Montserrat-Regular-20" x="1196.599808"/>
    <use xlink:href="#Montserrat-Regular-22" x="1222.799805"/>
    <use xlink:href="#Montserrat-Regular-6e" x="1260.099792"/>
    <use xlink:href="#Montserrat-Regular-6f" x="1327.799774"/>
    <use xlink:href="#Montserrat-Regular-22" x="1390.499771"/>
    <use xlink:href="#Montserrat-Regular-20" x="1427.799759"/>
    <use xlink:href="#Montserrat-Regular-62" x="1453.999756"/>
    <use xlink:href="#Montserrat-Regular-65" x="1521.799744"/>
    <use xlink:href="#Montserrat-Regular-63" x="1582.199738"/>
    <use xlink:href="#Montserrat-Regular-61" x="1638.499725"/>
    <use xlink:href="#Montserrat-Regular-75" x="1697.49971"/>
    <use xlink:href="#Montserrat-Regular-73" x="1764.799698"/>
    <use xlink:href="#Montserrat-Regular-65" x="1813.699692"/>
    <use xlink:href="#Montserrat-Regular-20" x="1874.099686"/>
    <use xlink:href="#Montserrat-Regular-63" x="1900.299683"/>
    <use xlink:href="#Montserrat-Regular-72" x="1956.59967"/>
    <use xlink:href="#Montserrat-Regular-65" x="1996.699661"/>
    <use xlink:href="#Montserrat-Regular-61" x="2057.099655"/>
    <use xlink:href="#Montserrat-Regular-74" x="2116.09964"/>
    <use xlink:href="#Montserrat-Regular-69" x="2156.699631"/>
    <use xlink:href="#Montserrat-Regular-6e" x="2183.599625"/>
    <use xlink:href="#Montserrat-Regular-67" x="2251.299606"/>
    <use xlink:href="#Montserrat-Regular-20" x="2319.899597"/>
    <use xlink:href="#Montserrat-Regular-74" x="2346.099594"/>
    <use xlink:href="#Montserrat-Regular-68" x="2386.699585"/>
    <use xlink:href="#Montserrat-Regular-69" x="2454.399567"/>
    <use xlink:href="#Montserrat-Regular-73" x="2481.299561"/>
    <use xlink:href="#Montserrat-Regular-20" x="2530.199554"/>
    <use xlink:href="#Montserrat-Regular-77" x="2556.399551"/>
    <use xlink:href="#Montserrat-Regular-6f" x="2644.299545"/>
    <use xlink:href="#Montserrat-Regular-75" x="2706.999542"/>
    <use xlink:href="#Montserrat-Regular-6c" x="2774.29953"/>
    <use xlink:href="#Montserrat-Regular-64" x="2801.199524"/>
    <use xlink:href="#Montserrat-Regular-20" x="2868.999512"/>
    <use xlink:href="#Montserrat-Regular-62" x="2895.199509"/>
    <use xlink:href="#Montserrat-Regular-65" x="2962.999496"/>
    <use xlink:href="#Montserrat-Regular-20" x="3023.39949"/>
    <use xlink:href="#Montserrat-Regular-6b" x="3049.599487"/>
    <use xlink:href="#Montserrat-Regular-69" x="3109.699478"/>
    <use xlink:href="#Montserrat-Regular-6e" x="3136.599472"/>
    <use xlink:href="#Montserrat-Regular-64" x="3204.299454"/>
   </g>
   <!-- of annoying.) -->
   <g transform="translate(12.015625 61.606838) scale(0.132 -0.132)">
    <defs>
     <path id="Montserrat-Regular-29" d="M 256 -1242 
Q 634 -595 813 144 
Q 992 883 992 1754 
Q 992 2624 813 3363 
Q 634 4102 256 4749 
L 691 4749 
Q 1050 4173 1245 3401 
Q 1440 2630 1440 1754 
Q 1440 877 1248 109 
Q 1056 -659 691 -1242 
L 256 -1242 
z
" transform="scale(0.015625)"/>
    </defs>
    <use xlink:href="#Montserrat-Regular-6f"/>
    <use xlink:href="#Montserrat-Regular-66" x="62.699997"/>
    <use xlink:href="#Montserrat-Regular-20" x="96.599991"/>
    <use xlink:href="#Montserrat-Regular-61" x="122.799988"/>
    <use xlink:href="#Montserrat-Regular-6e" x="181.799973"/>
    <use xlink:href="#Montserrat-Regular-6e" x="249.499954"/>
    <use xlink:href="#Montserrat-Regular-6f" x="317.199936"/>
    <use xlink:href="#Montserrat-Regular-79" x="379.899933"/>
    <use xlink:href="#Montserrat-Regular-69" x="434.09993"/>
    <use xlink:href="#Montserrat-Regular-6e" x="460.999924"/>
    <use xlink:href="#Montserrat-Regular-67" x="528.699905"/>
    <use xlink:href="#Montserrat-Regular-2e" x="597.299896"/>
    <use xlink:href="#Montserrat-Regular-29" x="618.499893"/>
   </g>
  </g>
 </g>
 <defs>
  <clipPath id="p6f674bb0ac">
   <rect x="22.076" y="68.783063" width="434.116" height="232.683952"/>
  </clipPath>
 </defs>
</svg>
