<?xml version="1.0" encoding="utf-8" standalone="no"?>
<!DOCTYPE svg PUBLIC "-//W3C//DTD SVG 1.1//EN"
  "http://www.w3.org/Graphics/SVG/1.1/DTD/svg11.dtd">
<svg xmlns:xlink="http://www.w3.org/1999/xlink" width="460.8pt" height="345.6pt" viewBox="0 0 460.8 345.6" xmlns="http://www.w3.org/2000/svg" version="1.1">
 <metadata>
  <rdf:RDF xmlns:dc="http://purl.org/dc/elements/1.1/" xmlns:cc="http://creativecommons.org/ns#" xmlns:rdf="http://www.w3.org/1999/02/22-rdf-syntax-ns#">
   <cc:Work>
    <dc:type rdf:resource="http://purl.org/dc/dcmitype/StillImage"/>
    <dc:date>2024-05-08T07:25:25.923821</dc:date>
    <dc:format>image/svg+xml</dc:format>
    <dc:creator>
     <cc:Agent>
      <dc:title>Matplotlib v3.8.4, https://matplotlib.org/</dc:title>
     </cc:Agent>
    </dc:creator>
   </cc:Work>
  </rdf:RDF>
 </metadata>
 <defs>
  <style type="text/css">*{stroke-linejoin: round; stroke-linecap: butt}</style>
 </defs>
 <g id="figure_1">
  <g id="axes_1">
   <g id="matplotlib.axis_1">
    <g id="xtick_1">
     <g id="text_1">
      <!-- Almost surely -->
      <g style="fill: #4d4d4d" transform="translate(46.433998 339.24025) scale(0.088 -0.088)">
       <defs>
        <path id="Montserrat-Regular-41" d="M 3539 1197 
L 1043 1197 
L 506 0 
L 13 0 
L 2061 4480 
L 2528 4480 
L 4576 0 
L 4077 0 
L 3539 1197 
z
M 3366 1581 
L 2291 3987 
L 1216 1581 
L 3366 1581 
z
" transform="scale(0.015625)"/>
        <path id="Montserrat-Regular-6c" d="M 634 4749 
L 1088 4749 
L 1088 0 
L 634 0 
L 634 4749 
z
" transform="scale(0.015625)"/>
        <path id="Montserrat-Regular-6d" d="M 4832 3392 
Q 5466 3392 5827 3027 
Q 6189 2662 6189 1952 
L 6189 0 
L 5734 0 
L 5734 1907 
Q 5734 2432 5481 2707 
Q 5229 2982 4768 2982 
Q 4243 2982 3942 2659 
Q 3642 2336 3642 1766 
L 3642 0 
L 3187 0 
L 3187 1907 
Q 3187 2432 2934 2707 
Q 2682 2982 2214 2982 
Q 1696 2982 1392 2659 
Q 1088 2336 1088 1766 
L 1088 0 
L 634 0 
L 634 3366 
L 1069 3366 
L 1069 2752 
Q 1248 3059 1568 3225 
Q 1888 3392 2304 3392 
Q 2726 3392 3036 3213 
Q 3347 3034 3501 2682 
Q 3686 3014 4035 3203 
Q 4384 3392 4832 3392 
z
" transform="scale(0.015625)"/>
        <path id="Montserrat-Regular-6f" d="M 2010 -32 
Q 1523 -32 1132 189 
Q 742 410 518 800 
Q 294 1190 294 1683 
Q 294 2176 518 2566 
Q 742 2957 1132 3174 
Q 1523 3392 2010 3392 
Q 2496 3392 2886 3174 
Q 3277 2957 3497 2566 
Q 3718 2176 3718 1683 
Q 3718 1190 3497 800 
Q 3277 410 2886 189 
Q 2496 -32 2010 -32 
z
M 2010 371 
Q 2368 371 2653 534 
Q 2938 698 3098 998 
Q 3258 1299 3258 1683 
Q 3258 2067 3098 2368 
Q 2938 2669 2653 2832 
Q 2368 2995 2010 2995 
Q 1651 2995 1366 2832 
Q 1082 2669 918 2368 
Q 755 2067 755 1683 
Q 755 1299 918 998 
Q 1082 698 1366 534 
Q 1651 371 2010 371 
z
" transform="scale(0.015625)"/>
        <path id="Montserrat-Regular-73" d="M 1536 -32 
Q 1126 -32 752 86 
Q 378 205 166 384 
L 371 742 
Q 582 576 902 470 
Q 1222 365 1568 365 
Q 2029 365 2249 509 
Q 2470 653 2470 915 
Q 2470 1101 2348 1206 
Q 2227 1312 2041 1366 
Q 1856 1421 1549 1472 
Q 1139 1549 889 1629 
Q 640 1709 464 1901 
Q 288 2093 288 2432 
Q 288 2854 640 3123 
Q 992 3392 1619 3392 
Q 1946 3392 2272 3305 
Q 2598 3219 2810 3078 
L 2611 2714 
Q 2195 3002 1619 3002 
Q 1184 3002 963 2848 
Q 742 2694 742 2445 
Q 742 2253 867 2137 
Q 992 2022 1177 1968 
Q 1363 1914 1690 1856 
Q 2093 1779 2336 1702 
Q 2579 1626 2752 1440 
Q 2925 1254 2925 928 
Q 2925 486 2557 227 
Q 2189 -32 1536 -32 
z
" transform="scale(0.015625)"/>
        <path id="Montserrat-Regular-74" d="M 2406 205 
Q 2278 90 2089 29 
Q 1901 -32 1696 -32 
Q 1222 -32 966 224 
Q 710 480 710 947 
L 710 2982 
L 109 2982 
L 109 3366 
L 710 3366 
L 710 4102 
L 1165 4102 
L 1165 3366 
L 2189 3366 
L 2189 2982 
L 1165 2982 
L 1165 973 
Q 1165 672 1315 515 
Q 1466 358 1747 358 
Q 1888 358 2019 403 
Q 2150 448 2246 531 
L 2406 205 
z
" transform="scale(0.015625)"/>
        <path id="Montserrat-Regular-20" transform="scale(0.015625)"/>
        <path id="Montserrat-Regular-75" d="M 3667 3366 
L 3667 0 
L 3232 0 
L 3232 614 
Q 3053 307 2739 137 
Q 2426 -32 2022 -32 
Q 1363 -32 982 336 
Q 602 704 602 1414 
L 602 3366 
L 1056 3366 
L 1056 1459 
Q 1056 928 1318 653 
Q 1581 378 2067 378 
Q 2598 378 2905 701 
Q 3213 1024 3213 1600 
L 3213 3366 
L 3667 3366 
z
" transform="scale(0.015625)"/>
        <path id="Montserrat-Regular-72" d="M 1069 2707 
Q 1229 3046 1545 3219 
Q 1862 3392 2330 3392 
L 2330 2950 
L 2221 2957 
Q 1690 2957 1389 2630 
Q 1088 2304 1088 1715 
L 1088 0 
L 634 0 
L 634 3366 
L 1069 3366 
L 1069 2707 
z
" transform="scale(0.015625)"/>
        <path id="Montserrat-Regular-65" d="M 3565 1542 
L 749 1542 
Q 787 1018 1152 694 
Q 1517 371 2074 371 
Q 2387 371 2649 483 
Q 2912 595 3104 813 
L 3360 518 
Q 3136 250 2800 109 
Q 2464 -32 2061 -32 
Q 1542 -32 1142 189 
Q 742 410 518 800 
Q 294 1190 294 1683 
Q 294 2176 508 2566 
Q 723 2957 1097 3174 
Q 1472 3392 1939 3392 
Q 2406 3392 2777 3174 
Q 3149 2957 3360 2569 
Q 3571 2182 3571 1683 
L 3565 1542 
z
M 1939 3002 
Q 1453 3002 1123 2691 
Q 794 2381 749 1882 
L 3136 1882 
Q 3091 2381 2761 2691 
Q 2432 3002 1939 3002 
z
" transform="scale(0.015625)"/>
        <path id="Montserrat-Regular-79" d="M 3462 3366 
L 1779 -403 
Q 1574 -877 1305 -1075 
Q 1037 -1274 659 -1274 
Q 416 -1274 205 -1197 
Q -6 -1120 -160 -966 
L 51 -627 
Q 307 -883 666 -883 
Q 896 -883 1059 -755 
Q 1222 -627 1363 -320 
L 1510 6 
L 6 3366 
L 480 3366 
L 1747 506 
L 3014 3366 
L 3462 3366 
z
" transform="scale(0.015625)"/>
       </defs>
       <use xlink:href="#Montserrat-Regular-41"/>
       <use xlink:href="#Montserrat-Regular-6c" x="71.699982"/>
       <use xlink:href="#Montserrat-Regular-6d" x="98.599976"/>
       <use xlink:href="#Montserrat-Regular-6f" x="204.699966"/>
       <use xlink:href="#Montserrat-Regular-73" x="267.399963"/>
       <use xlink:href="#Montserrat-Regular-74" x="316.299957"/>
       <use xlink:href="#Montserrat-Regular-20" x="356.899948"/>
       <use xlink:href="#Montserrat-Regular-73" x="383.099945"/>
       <use xlink:href="#Montserrat-Regular-75" x="431.999939"/>
       <use xlink:href="#Montserrat-Regular-72" x="499.299927"/>
       <use xlink:href="#Montserrat-Regular-65" x="539.399918"/>
       <use xlink:href="#Montserrat-Regular-6c" x="599.799911"/>
       <use xlink:href="#Montserrat-Regular-79" x="626.699905"/>
      </g>
     </g>
    </g>
    <g id="xtick_2">
     <g id="text_2">
      <!-- Probably -->
      <g style="fill: #4d4d4d" transform="translate(122.270713 339.24025) scale(0.088 -0.088)">
       <defs>
        <path id="Montserrat-Regular-50" d="M 2406 4480 
Q 3264 4480 3750 4070 
Q 4237 3661 4237 2944 
Q 4237 2227 3750 1820 
Q 3264 1414 2406 1414 
L 1203 1414 
L 1203 0 
L 730 0 
L 730 4480 
L 2406 4480 
z
M 2394 1830 
Q 3059 1830 3411 2121 
Q 3763 2413 3763 2944 
Q 3763 3488 3411 3779 
Q 3059 4070 2394 4070 
L 1203 4070 
L 1203 1830 
L 2394 1830 
z
" transform="scale(0.015625)"/>
        <path id="Montserrat-Regular-62" d="M 2368 3392 
Q 2842 3392 3226 3177 
Q 3610 2963 3827 2572 
Q 4045 2182 4045 1683 
Q 4045 1184 3827 793 
Q 3610 403 3226 185 
Q 2842 -32 2368 -32 
Q 1946 -32 1610 147 
Q 1274 326 1069 666 
L 1069 0 
L 634 0 
L 634 4749 
L 1088 4749 
L 1088 2726 
Q 1299 3053 1628 3222 
Q 1958 3392 2368 3392 
z
M 2336 371 
Q 2688 371 2976 534 
Q 3264 698 3427 998 
Q 3590 1299 3590 1683 
Q 3590 2067 3427 2368 
Q 3264 2669 2976 2832 
Q 2688 2995 2336 2995 
Q 1978 2995 1693 2832 
Q 1408 2669 1245 2368 
Q 1082 2067 1082 1683 
Q 1082 1299 1245 998 
Q 1408 698 1693 534 
Q 1978 371 2336 371 
z
" transform="scale(0.015625)"/>
        <path id="Montserrat-Regular-61" d="M 1811 3392 
Q 2470 3392 2822 3062 
Q 3174 2733 3174 2086 
L 3174 0 
L 2739 0 
L 2739 525 
Q 2586 262 2288 115 
Q 1990 -32 1581 -32 
Q 1018 -32 685 237 
Q 352 506 352 947 
Q 352 1376 662 1638 
Q 973 1901 1651 1901 
L 2720 1901 
L 2720 2106 
Q 2720 2541 2477 2768 
Q 2234 2995 1766 2995 
Q 1446 2995 1152 2889 
Q 858 2784 646 2598 
L 442 2938 
Q 698 3155 1056 3273 
Q 1414 3392 1811 3392 
z
M 1651 326 
Q 2035 326 2310 502 
Q 2586 678 2720 1011 
L 2720 1562 
L 1664 1562 
Q 800 1562 800 960 
Q 800 666 1024 496 
Q 1248 326 1651 326 
z
" transform="scale(0.015625)"/>
       </defs>
       <use xlink:href="#Montserrat-Regular-50"/>
       <use xlink:href="#Montserrat-Regular-72" x="71.799988"/>
       <use xlink:href="#Montserrat-Regular-6f" x="111.899979"/>
       <use xlink:href="#Montserrat-Regular-62" x="174.599976"/>
       <use xlink:href="#Montserrat-Regular-61" x="242.399963"/>
       <use xlink:href="#Montserrat-Regular-62" x="301.399948"/>
       <use xlink:href="#Montserrat-Regular-6c" x="369.199936"/>
       <use xlink:href="#Montserrat-Regular-79" x="396.09993"/>
      </g>
     </g>
    </g>
    <g id="xtick_3">
     <g id="text_3">
      <!-- Unsure -->
      <g style="fill: #4d4d4d" transform="translate(191.774179 339.24025) scale(0.088 -0.088)">
       <defs>
        <path id="Montserrat-Regular-55" d="M 2534 -38 
Q 1664 -38 1177 461 
Q 691 960 691 1914 
L 691 4480 
L 1165 4480 
L 1165 1933 
Q 1165 1152 1517 768 
Q 1869 384 2534 384 
Q 3206 384 3558 768 
Q 3910 1152 3910 1933 
L 3910 4480 
L 4371 4480 
L 4371 1914 
Q 4371 960 3888 461 
Q 3405 -38 2534 -38 
z
" transform="scale(0.015625)"/>
        <path id="Montserrat-Regular-6e" d="M 2349 3392 
Q 2982 3392 3356 3024 
Q 3731 2656 3731 1952 
L 3731 0 
L 3277 0 
L 3277 1907 
Q 3277 2432 3014 2707 
Q 2752 2982 2266 2982 
Q 1722 2982 1405 2659 
Q 1088 2336 1088 1766 
L 1088 0 
L 634 0 
L 634 3366 
L 1069 3366 
L 1069 2746 
Q 1254 3053 1584 3222 
Q 1914 3392 2349 3392 
z
" transform="scale(0.015625)"/>
       </defs>
       <use xlink:href="#Montserrat-Regular-55"/>
       <use xlink:href="#Montserrat-Regular-6e" x="79.199982"/>
       <use xlink:href="#Montserrat-Regular-73" x="146.899963"/>
       <use xlink:href="#Montserrat-Regular-75" x="195.799957"/>
       <use xlink:href="#Montserrat-Regular-72" x="263.099945"/>
       <use xlink:href="#Montserrat-Regular-65" x="303.199936"/>
      </g>
     </g>
    </g>
    <g id="xtick_4">
     <g id="text_4">
      <!-- Probably not -->
      <g style="fill: #4d4d4d" transform="translate(244.972207 339.24025) scale(0.088 -0.088)">
       <use xlink:href="#Montserrat-Regular-50"/>
       <use xlink:href="#Montserrat-Regular-72" x="71.799988"/>
       <use xlink:href="#Montserrat-Regular-6f" x="111.899979"/>
       <use xlink:href="#Montserrat-Regular-62" x="174.599976"/>
       <use xlink:href="#Montserrat-Regular-61" x="242.399963"/>
       <use xlink:href="#Montserrat-Regular-62" x="301.399948"/>
       <use xlink:href="#Montserrat-Regular-6c" x="369.199936"/>
       <use xlink:href="#Montserrat-Regular-79" x="396.09993"/>
       <use xlink:href="#Montserrat-Regular-20" x="450.299927"/>
       <use xlink:href="#Montserrat-Regular-6e" x="476.499924"/>
       <use xlink:href="#Montserrat-Regular-6f" x="544.199905"/>
       <use xlink:href="#Montserrat-Regular-74" x="606.899902"/>
      </g>
     </g>
    </g>
    <g id="xtick_5">
     <g id="text_5">
      <!-- Very unlikely -->
      <g style="fill: #4d4d4d" transform="translate(310.941922 339.24025) scale(0.088 -0.088)">
       <defs>
        <path id="Montserrat-Regular-56" d="M 4454 4480 
L 2470 0 
L 2003 0 
L 19 4480 
L 531 4480 
L 2246 589 
L 3974 4480 
L 4454 4480 
z
" transform="scale(0.015625)"/>
        <path id="Montserrat-Regular-69" d="M 634 3366 
L 1088 3366 
L 1088 0 
L 634 0 
L 634 3366 
z
M 864 4102 
Q 723 4102 627 4198 
Q 531 4294 531 4429 
Q 531 4557 627 4653 
Q 723 4749 864 4749 
Q 1005 4749 1101 4656 
Q 1197 4563 1197 4435 
Q 1197 4294 1101 4198 
Q 1005 4102 864 4102 
z
" transform="scale(0.015625)"/>
        <path id="Montserrat-Regular-6b" d="M 1882 1690 
L 1088 960 
L 1088 0 
L 634 0 
L 634 4749 
L 1088 4749 
L 1088 1530 
L 3098 3366 
L 3661 3366 
L 2221 1990 
L 3795 0 
L 3238 0 
L 1882 1690 
z
" transform="scale(0.015625)"/>
       </defs>
       <use xlink:href="#Montserrat-Regular-56"/>
       <use xlink:href="#Montserrat-Regular-65" x="69.799988"/>
       <use xlink:href="#Montserrat-Regular-72" x="130.199982"/>
       <use xlink:href="#Montserrat-Regular-79" x="170.299973"/>
       <use xlink:href="#Montserrat-Regular-20" x="224.499969"/>
       <use xlink:href="#Montserrat-Regular-75" x="250.699966"/>
       <use xlink:href="#Montserrat-Regular-6e" x="317.999954"/>
       <use xlink:href="#Montserrat-Regular-6c" x="385.699936"/>
       <use xlink:href="#Montserrat-Regular-69" x="412.59993"/>
       <use xlink:href="#Montserrat-Regular-6b" x="439.499924"/>
       <use xlink:href="#Montserrat-Regular-65" x="499.599915"/>
       <use xlink:href="#Montserrat-Regular-6c" x="559.999908"/>
       <use xlink:href="#Montserrat-Regular-79" x="586.899902"/>
      </g>
     </g>
    </g>
   </g>
   <g id="matplotlib.axis_2">
    <g id="ytick_1">
     <g id="text_6">
      <!-- 0 -->
      <g style="fill: #4d4d4d" transform="translate(31.155156 335.975312) scale(0.088 -0.088)">
       <defs>
        <path id="Montserrat-Regular-30" d="M 2118 -38 
Q 1600 -38 1193 237 
Q 787 512 560 1027 
Q 333 1542 333 2240 
Q 333 2938 560 3453 
Q 787 3968 1193 4243 
Q 1600 4518 2118 4518 
Q 2637 4518 3043 4243 
Q 3450 3968 3680 3453 
Q 3910 2938 3910 2240 
Q 3910 1542 3680 1027 
Q 3450 512 3043 237 
Q 2637 -38 2118 -38 
z
M 2118 384 
Q 2509 384 2806 601 
Q 3104 819 3270 1235 
Q 3437 1651 3437 2240 
Q 3437 2829 3270 3245 
Q 3104 3661 2806 3878 
Q 2509 4096 2118 4096 
Q 1728 4096 1430 3878 
Q 1133 3661 966 3245 
Q 800 2829 800 2240 
Q 800 1651 966 1235 
Q 1133 819 1430 601 
Q 1728 384 2118 384 
z
" transform="scale(0.015625)"/>
       </defs>
       <use xlink:href="#Montserrat-Regular-30"/>
      </g>
     </g>
    </g>
    <g id="ytick_2">
     <g id="text_7">
      <!-- 100 -->
      <g style="fill: #4d4d4d" transform="translate(22.153031 258.223828) scale(0.088 -0.088)">
       <defs>
        <path id="Montserrat-Regular-31" d="M 1574 4480 
L 1574 0 
L 1114 0 
L 1114 4070 
L 58 4070 
L 58 4480 
L 1574 4480 
z
" transform="scale(0.015625)"/>
       </defs>
       <use xlink:href="#Montserrat-Regular-31"/>
       <use xlink:href="#Montserrat-Regular-30" x="36.099991"/>
       <use xlink:href="#Montserrat-Regular-30" x="102.299988"/>
      </g>
     </g>
    </g>
    <g id="ytick_3">
     <g id="text_8">
      <!-- 200 -->
      <g style="fill: #4d4d4d" transform="translate(20.331156 180.472344) scale(0.088 -0.088)">
       <defs>
        <path id="Montserrat-Regular-32" d="M 3392 410 
L 3392 0 
L 250 0 
L 250 326 
L 2112 2150 
Q 2464 2496 2589 2749 
Q 2714 3002 2714 3258 
Q 2714 3654 2442 3875 
Q 2170 4096 1664 4096 
Q 877 4096 442 3597 
L 115 3878 
Q 378 4186 784 4352 
Q 1190 4518 1702 4518 
Q 2387 4518 2787 4195 
Q 3187 3872 3187 3309 
Q 3187 2963 3033 2643 
Q 2880 2323 2451 1907 
L 928 410 
L 3392 410 
z
" transform="scale(0.015625)"/>
       </defs>
       <use xlink:href="#Montserrat-Regular-32"/>
       <use xlink:href="#Montserrat-Regular-30" x="56.799988"/>
       <use xlink:href="#Montserrat-Regular-30" x="122.999985"/>
      </g>
     </g>
    </g>
    <g id="ytick_4">
     <g id="text_9">
      <!-- 300 -->
      <g style="fill: #4d4d4d" transform="translate(20.365531 102.720859) scale(0.088 -0.088)">
       <defs>
        <path id="Montserrat-Regular-33" d="M 1856 2560 
Q 2560 2522 2928 2179 
Q 3296 1837 3296 1286 
Q 3296 902 3110 604 
Q 2925 307 2560 134 
Q 2195 -38 1670 -38 
Q 1184 -38 752 118 
Q 320 275 58 538 
L 282 902 
Q 506 672 877 528 
Q 1248 384 1670 384 
Q 2221 384 2521 624 
Q 2822 864 2822 1286 
Q 2822 1702 2521 1939 
Q 2221 2176 1613 2176 
L 1293 2176 
L 1293 2515 
L 2534 4070 
L 243 4070 
L 243 4480 
L 3123 4480 
L 3123 4154 
L 1856 2560 
z
" transform="scale(0.015625)"/>
       </defs>
       <use xlink:href="#Montserrat-Regular-33"/>
       <use xlink:href="#Montserrat-Regular-30" x="56.399994"/>
       <use xlink:href="#Montserrat-Regular-30" x="122.599991"/>
      </g>
     </g>
    </g>
    <g id="ytick_5">
     <g id="text_10">
      <!-- 400 -->
      <g style="fill: #4d4d4d" transform="translate(19.513031 24.969375) scale(0.088 -0.088)">
       <defs>
        <path id="Montserrat-Regular-34" d="M 4141 1178 
L 3245 1178 
L 3245 0 
L 2784 0 
L 2784 1178 
L 256 1178 
L 256 1510 
L 2630 4480 
L 3142 4480 
L 851 1587 
L 2797 1587 
L 2797 2624 
L 3245 2624 
L 3245 1587 
L 4141 1587 
L 4141 1178 
z
" transform="scale(0.015625)"/>
       </defs>
       <use xlink:href="#Montserrat-Regular-34"/>
       <use xlink:href="#Montserrat-Regular-30" x="66.099991"/>
       <use xlink:href="#Montserrat-Regular-30" x="132.299988"/>
      </g>
     </g>
    </g>
    <g id="ytick_6"/>
    <g id="ytick_7"/>
    <g id="ytick_8"/>
    <g id="ytick_9"/>
   </g>
   <g id="PolyCollection_1">
    <path d="M 41.907722 332.710375 
L 41.907722 332.710375 
L 104.312477 332.710375 
L 104.312477 332.710375 
z
" clip-path="url(#p31b63a1720)" style="fill: #c957db"/>
    <path d="M 41.907722 332.710375 
L 41.907722 332.710375 
L 104.312477 332.710375 
L 104.312477 332.710375 
z
" clip-path="url(#p31b63a1720)" style="fill: #c957db"/>
    <path d="M 41.907722 332.710375 
L 41.907722 332.710375 
L 104.312477 332.710375 
L 104.312477 332.710375 
z
" clip-path="url(#p31b63a1720)" style="fill: #c957db"/>
    <path d="M 41.907722 332.710375 
L 41.907722 332.710375 
L 104.312477 332.710375 
L 104.312477 332.710375 
z
" clip-path="url(#p31b63a1720)" style="fill: #c957db"/>
    <path d="M 41.907722 332.710375 
L 41.907722 330.37783 
L 104.312477 330.37783 
L 104.312477 332.710375 
z
" clip-path="url(#p31b63a1720)" style="fill: #c957db"/>
    <path d="M 41.907722 330.37783 
L 41.907722 330.37783 
L 104.312477 330.37783 
L 104.312477 330.37783 
z
" clip-path="url(#p31b63a1720)" style="fill: #5784db"/>
    <path d="M 41.907722 330.37783 
L 41.907722 330.37783 
L 104.312477 330.37783 
L 104.312477 330.37783 
z
" clip-path="url(#p31b63a1720)" style="fill: #5784db"/>
    <path d="M 41.907722 330.37783 
L 41.907722 330.37783 
L 104.312477 330.37783 
L 104.312477 330.37783 
z
" clip-path="url(#p31b63a1720)" style="fill: #5784db"/>
    <path d="M 41.907722 330.37783 
L 41.907722 330.37783 
L 104.312477 330.37783 
L 104.312477 330.37783 
z
" clip-path="url(#p31b63a1720)" style="fill: #5784db"/>
    <path d="M 41.907722 330.37783 
L 41.907722 328.822801 
L 104.312477 328.822801 
L 104.312477 330.37783 
z
" clip-path="url(#p31b63a1720)" style="fill: #5784db"/>
    <path d="M 41.907722 328.822801 
L 41.907722 328.822801 
L 104.312477 328.822801 
L 104.312477 328.822801 
z
" clip-path="url(#p31b63a1720)" style="fill: #57db94"/>
    <path d="M 41.907722 328.822801 
L 41.907722 328.822801 
L 104.312477 328.822801 
L 104.312477 328.822801 
z
" clip-path="url(#p31b63a1720)" style="fill: #57db94"/>
    <path d="M 41.907722 328.822801 
L 41.907722 328.822801 
L 104.312477 328.822801 
L 104.312477 328.822801 
z
" clip-path="url(#p31b63a1720)" style="fill: #57db94"/>
    <path d="M 41.907722 328.822801 
L 41.907722 328.822801 
L 104.312477 328.822801 
L 104.312477 328.822801 
z
" clip-path="url(#p31b63a1720)" style="fill: #57db94"/>
    <path d="M 41.907722 328.822801 
L 41.907722 324.935227 
L 104.312477 324.935227 
L 104.312477 328.822801 
z
" clip-path="url(#p31b63a1720)" style="fill: #57db94"/>
    <path d="M 41.907722 324.935227 
L 41.907722 324.935227 
L 104.312477 324.935227 
L 104.312477 324.935227 
z
" clip-path="url(#p31b63a1720)" style="fill: #b9db57"/>
    <path d="M 41.907722 324.935227 
L 41.907722 324.935227 
L 104.312477 324.935227 
L 104.312477 324.935227 
z
" clip-path="url(#p31b63a1720)" style="fill: #b9db57"/>
    <path d="M 41.907722 324.935227 
L 41.907722 324.935227 
L 104.312477 324.935227 
L 104.312477 324.935227 
z
" clip-path="url(#p31b63a1720)" style="fill: #b9db57"/>
    <path d="M 41.907722 324.935227 
L 41.907722 324.935227 
L 104.312477 324.935227 
L 104.312477 324.935227 
z
" clip-path="url(#p31b63a1720)" style="fill: #b9db57"/>
    <path d="M 41.907722 324.935227 
L 41.907722 318.715108 
L 104.312477 318.715108 
L 104.312477 324.935227 
z
" clip-path="url(#p31b63a1720)" style="fill: #b9db57"/>
    <path d="M 41.907722 318.715108 
L 41.907722 318.715108 
L 104.312477 318.715108 
L 104.312477 318.715108 
z
" clip-path="url(#p31b63a1720)" style="fill: #db5f57"/>
    <path d="M 41.907722 318.715108 
L 41.907722 318.715108 
L 104.312477 318.715108 
L 104.312477 318.715108 
z
" clip-path="url(#p31b63a1720)" style="fill: #db5f57"/>
    <path d="M 41.907722 318.715108 
L 41.907722 318.715108 
L 104.312477 318.715108 
L 104.312477 318.715108 
z
" clip-path="url(#p31b63a1720)" style="fill: #db5f57"/>
    <path d="M 41.907722 318.715108 
L 41.907722 318.715108 
L 104.312477 318.715108 
L 104.312477 318.715108 
z
" clip-path="url(#p31b63a1720)" style="fill: #db5f57"/>
    <path d="M 41.907722 318.715108 
L 41.907722 314.827534 
L 104.312477 314.827534 
L 104.312477 318.715108 
z
" clip-path="url(#p31b63a1720)" style="fill: #db5f57"/>
    <path d="M 104.312477 332.710375 
L 104.312477 332.710375 
L 166.717232 332.710375 
L 166.717232 332.710375 
z
" clip-path="url(#p31b63a1720)" style="fill: #c957db"/>
    <path d="M 104.312477 332.710375 
L 104.312477 332.710375 
L 166.717232 332.710375 
L 166.717232 332.710375 
z
" clip-path="url(#p31b63a1720)" style="fill: #c957db"/>
    <path d="M 104.312477 332.710375 
L 104.312477 332.710375 
L 166.717232 332.710375 
L 166.717232 332.710375 
z
" clip-path="url(#p31b63a1720)" style="fill: #c957db"/>
    <path d="M 104.312477 332.710375 
L 104.312477 323.380197 
L 166.717232 323.380197 
L 166.717232 332.710375 
z
" clip-path="url(#p31b63a1720)" style="fill: #c957db"/>
    <path d="M 104.312477 323.380197 
L 104.312477 323.380197 
L 166.717232 323.380197 
L 166.717232 323.380197 
z
" clip-path="url(#p31b63a1720)" style="fill: #c957db"/>
    <path d="M 104.312477 323.380197 
L 104.312477 323.380197 
L 166.717232 323.380197 
L 166.717232 323.380197 
z
" clip-path="url(#p31b63a1720)" style="fill: #5784db"/>
    <path d="M 104.312477 323.380197 
L 104.312477 323.380197 
L 166.717232 323.380197 
L 166.717232 323.380197 
z
" clip-path="url(#p31b63a1720)" style="fill: #5784db"/>
    <path d="M 104.312477 323.380197 
L 104.312477 323.380197 
L 166.717232 323.380197 
L 166.717232 323.380197 
z
" clip-path="url(#p31b63a1720)" style="fill: #5784db"/>
    <path d="M 104.312477 323.380197 
L 104.312477 297.722207 
L 166.717232 297.722207 
L 166.717232 323.380197 
z
" clip-path="url(#p31b63a1720)" style="fill: #5784db"/>
    <path d="M 104.312477 297.722207 
L 104.312477 297.722207 
L 166.717232 297.722207 
L 166.717232 297.722207 
z
" clip-path="url(#p31b63a1720)" style="fill: #5784db"/>
    <path d="M 104.312477 297.722207 
L 104.312477 297.722207 
L 166.717232 297.722207 
L 166.717232 297.722207 
z
" clip-path="url(#p31b63a1720)" style="fill: #57db94"/>
    <path d="M 104.312477 297.722207 
L 104.312477 297.722207 
L 166.717232 297.722207 
L 166.717232 297.722207 
z
" clip-path="url(#p31b63a1720)" style="fill: #57db94"/>
    <path d="M 104.312477 297.722207 
L 104.312477 297.722207 
L 166.717232 297.722207 
L 166.717232 297.722207 
z
" clip-path="url(#p31b63a1720)" style="fill: #57db94"/>
    <path d="M 104.312477 297.722207 
L 104.312477 279.839366 
L 166.717232 279.839366 
L 166.717232 297.722207 
z
" clip-path="url(#p31b63a1720)" style="fill: #57db94"/>
    <path d="M 104.312477 279.839366 
L 104.312477 279.839366 
L 166.717232 279.839366 
L 166.717232 279.839366 
z
" clip-path="url(#p31b63a1720)" style="fill: #57db94"/>
    <path d="M 104.312477 279.839366 
L 104.312477 279.839366 
L 166.717232 279.839366 
L 166.717232 279.839366 
z
" clip-path="url(#p31b63a1720)" style="fill: #b9db57"/>
    <path d="M 104.312477 279.839366 
L 104.312477 279.839366 
L 166.717232 279.839366 
L 166.717232 279.839366 
z
" clip-path="url(#p31b63a1720)" style="fill: #b9db57"/>
    <path d="M 104.312477 279.839366 
L 104.312477 279.839366 
L 166.717232 279.839366 
L 166.717232 279.839366 
z
" clip-path="url(#p31b63a1720)" style="fill: #b9db57"/>
    <path d="M 104.312477 279.839366 
L 104.312477 250.293802 
L 166.717232 250.293802 
L 166.717232 279.839366 
z
" clip-path="url(#p31b63a1720)" style="fill: #b9db57"/>
    <path d="M 104.312477 250.293802 
L 104.312477 250.293802 
L 166.717232 250.293802 
L 166.717232 250.293802 
z
" clip-path="url(#p31b63a1720)" style="fill: #b9db57"/>
    <path d="M 104.312477 250.293802 
L 104.312477 250.293802 
L 166.717232 250.293802 
L 166.717232 250.293802 
z
" clip-path="url(#p31b63a1720)" style="fill: #db5f57"/>
    <path d="M 104.312477 250.293802 
L 104.312477 250.293802 
L 166.717232 250.293802 
L 166.717232 250.293802 
z
" clip-path="url(#p31b63a1720)" style="fill: #db5f57"/>
    <path d="M 104.312477 250.293802 
L 104.312477 250.293802 
L 166.717232 250.293802 
L 166.717232 250.293802 
z
" clip-path="url(#p31b63a1720)" style="fill: #db5f57"/>
    <path d="M 104.312477 250.293802 
L 104.312477 216.083148 
L 166.717232 216.083148 
L 166.717232 250.293802 
z
" clip-path="url(#p31b63a1720)" style="fill: #db5f57"/>
    <path d="M 104.312477 216.083148 
L 104.312477 216.083148 
L 166.717232 216.083148 
L 166.717232 216.083148 
z
" clip-path="url(#p31b63a1720)" style="fill: #db5f57"/>
    <path d="M 166.717232 332.710375 
L 166.717232 332.710375 
L 229.121986 332.710375 
L 229.121986 332.710375 
z
" clip-path="url(#p31b63a1720)" style="fill: #c957db"/>
    <path d="M 166.717232 332.710375 
L 166.717232 321.825167 
L 229.121986 321.825167 
L 229.121986 332.710375 
z
" clip-path="url(#p31b63a1720)" style="fill: #c957db"/>
    <path d="M 166.717232 321.825167 
L 166.717232 321.825167 
L 229.121986 321.825167 
L 229.121986 321.825167 
z
" clip-path="url(#p31b63a1720)" style="fill: #c957db"/>
    <path d="M 166.717232 321.825167 
L 166.717232 321.825167 
L 229.121986 321.825167 
L 229.121986 321.825167 
z
" clip-path="url(#p31b63a1720)" style="fill: #c957db"/>
    <path d="M 166.717232 321.825167 
L 166.717232 321.825167 
L 229.121986 321.825167 
L 229.121986 321.825167 
z
" clip-path="url(#p31b63a1720)" style="fill: #c957db"/>
    <path d="M 166.717232 321.825167 
L 166.717232 321.825167 
L 229.121986 321.825167 
L 229.121986 321.825167 
z
" clip-path="url(#p31b63a1720)" style="fill: #5784db"/>
    <path d="M 166.717232 321.825167 
L 166.717232 286.059484 
L 229.121986 286.059484 
L 229.121986 321.825167 
z
" clip-path="url(#p31b63a1720)" style="fill: #5784db"/>
    <path d="M 166.717232 286.059484 
L 166.717232 286.059484 
L 229.121986 286.059484 
L 229.121986 286.059484 
z
" clip-path="url(#p31b63a1720)" style="fill: #5784db"/>
    <path d="M 166.717232 286.059484 
L 166.717232 286.059484 
L 229.121986 286.059484 
L 229.121986 286.059484 
z
" clip-path="url(#p31b63a1720)" style="fill: #5784db"/>
    <path d="M 166.717232 286.059484 
L 166.717232 286.059484 
L 229.121986 286.059484 
L 229.121986 286.059484 
z
" clip-path="url(#p31b63a1720)" style="fill: #5784db"/>
    <path d="M 166.717232 286.059484 
L 166.717232 286.059484 
L 229.121986 286.059484 
L 229.121986 286.059484 
z
" clip-path="url(#p31b63a1720)" style="fill: #57db94"/>
    <path d="M 166.717232 286.059484 
L 166.717232 248.738772 
L 229.121986 248.738772 
L 229.121986 286.059484 
z
" clip-path="url(#p31b63a1720)" style="fill: #57db94"/>
    <path d="M 166.717232 248.738772 
L 166.717232 248.738772 
L 229.121986 248.738772 
L 229.121986 248.738772 
z
" clip-path="url(#p31b63a1720)" style="fill: #57db94"/>
    <path d="M 166.717232 248.738772 
L 166.717232 248.738772 
L 229.121986 248.738772 
L 229.121986 248.738772 
z
" clip-path="url(#p31b63a1720)" style="fill: #57db94"/>
    <path d="M 166.717232 248.738772 
L 166.717232 248.738772 
L 229.121986 248.738772 
L 229.121986 248.738772 
z
" clip-path="url(#p31b63a1720)" style="fill: #57db94"/>
    <path d="M 166.717232 248.738772 
L 166.717232 248.738772 
L 229.121986 248.738772 
L 229.121986 248.738772 
z
" clip-path="url(#p31b63a1720)" style="fill: #b9db57"/>
    <path d="M 166.717232 248.738772 
L 166.717232 174.097347 
L 229.121986 174.097347 
L 229.121986 248.738772 
z
" clip-path="url(#p31b63a1720)" style="fill: #b9db57"/>
    <path d="M 166.717232 174.097347 
L 166.717232 174.097347 
L 229.121986 174.097347 
L 229.121986 174.097347 
z
" clip-path="url(#p31b63a1720)" style="fill: #b9db57"/>
    <path d="M 166.717232 174.097347 
L 166.717232 174.097347 
L 229.121986 174.097347 
L 229.121986 174.097347 
z
" clip-path="url(#p31b63a1720)" style="fill: #b9db57"/>
    <path d="M 166.717232 174.097347 
L 166.717232 174.097347 
L 229.121986 174.097347 
L 229.121986 174.097347 
z
" clip-path="url(#p31b63a1720)" style="fill: #b9db57"/>
    <path d="M 166.717232 174.097347 
L 166.717232 174.097347 
L 229.121986 174.097347 
L 229.121986 174.097347 
z
" clip-path="url(#p31b63a1720)" style="fill: #db5f57"/>
    <path d="M 166.717232 174.097347 
L 166.717232 69.132843 
L 229.121986 69.132843 
L 229.121986 174.097347 
z
" clip-path="url(#p31b63a1720)" style="fill: #db5f57"/>
    <path d="M 166.717232 69.132843 
L 166.717232 69.132843 
L 229.121986 69.132843 
L 229.121986 69.132843 
z
" clip-path="url(#p31b63a1720)" style="fill: #db5f57"/>
    <path d="M 166.717232 69.132843 
L 166.717232 69.132843 
L 229.121986 69.132843 
L 229.121986 69.132843 
z
" clip-path="url(#p31b63a1720)" style="fill: #db5f57"/>
    <path d="M 166.717232 69.132843 
L 166.717232 69.132843 
L 229.121986 69.132843 
L 229.121986 69.132843 
z
" clip-path="url(#p31b63a1720)" style="fill: #db5f57"/>
    <path d="M 229.121986 332.710375 
L 229.121986 332.710375 
L 291.526741 332.710375 
L 291.526741 332.710375 
z
" clip-path="url(#p31b63a1720)" style="fill: #c957db"/>
    <path d="M 229.121986 332.710375 
L 229.121986 332.710375 
L 291.526741 332.710375 
L 291.526741 332.710375 
z
" clip-path="url(#p31b63a1720)" style="fill: #c957db"/>
    <path d="M 229.121986 332.710375 
L 229.121986 327.267771 
L 291.526741 327.267771 
L 291.526741 332.710375 
z
" clip-path="url(#p31b63a1720)" style="fill: #c957db"/>
    <path d="M 229.121986 327.267771 
L 229.121986 327.267771 
L 291.526741 327.267771 
L 291.526741 327.267771 
z
" clip-path="url(#p31b63a1720)" style="fill: #c957db"/>
    <path d="M 229.121986 327.267771 
L 229.121986 327.267771 
L 291.526741 327.267771 
L 291.526741 327.267771 
z
" clip-path="url(#p31b63a1720)" style="fill: #c957db"/>
    <path d="M 229.121986 327.267771 
L 229.121986 327.267771 
L 291.526741 327.267771 
L 291.526741 327.267771 
z
" clip-path="url(#p31b63a1720)" style="fill: #5784db"/>
    <path d="M 229.121986 327.267771 
L 229.121986 327.267771 
L 291.526741 327.267771 
L 291.526741 327.267771 
z
" clip-path="url(#p31b63a1720)" style="fill: #5784db"/>
    <path d="M 229.121986 327.267771 
L 229.121986 314.827534 
L 291.526741 314.827534 
L 291.526741 327.267771 
z
" clip-path="url(#p31b63a1720)" style="fill: #5784db"/>
    <path d="M 229.121986 314.827534 
L 229.121986 314.827534 
L 291.526741 314.827534 
L 291.526741 314.827534 
z
" clip-path="url(#p31b63a1720)" style="fill: #5784db"/>
    <path d="M 229.121986 314.827534 
L 229.121986 314.827534 
L 291.526741 314.827534 
L 291.526741 314.827534 
z
" clip-path="url(#p31b63a1720)" style="fill: #5784db"/>
    <path d="M 229.121986 314.827534 
L 229.121986 314.827534 
L 291.526741 314.827534 
L 291.526741 314.827534 
z
" clip-path="url(#p31b63a1720)" style="fill: #57db94"/>
    <path d="M 229.121986 314.827534 
L 229.121986 314.827534 
L 291.526741 314.827534 
L 291.526741 314.827534 
z
" clip-path="url(#p31b63a1720)" style="fill: #57db94"/>
    <path d="M 229.121986 314.827534 
L 229.121986 300.054752 
L 291.526741 300.054752 
L 291.526741 314.827534 
z
" clip-path="url(#p31b63a1720)" style="fill: #57db94"/>
    <path d="M 229.121986 300.054752 
L 229.121986 300.054752 
L 291.526741 300.054752 
L 291.526741 300.054752 
z
" clip-path="url(#p31b63a1720)" style="fill: #57db94"/>
    <path d="M 229.121986 300.054752 
L 229.121986 300.054752 
L 291.526741 300.054752 
L 291.526741 300.054752 
z
" clip-path="url(#p31b63a1720)" style="fill: #57db94"/>
    <path d="M 229.121986 300.054752 
L 229.121986 300.054752 
L 291.526741 300.054752 
L 291.526741 300.054752 
z
" clip-path="url(#p31b63a1720)" style="fill: #b9db57"/>
    <path d="M 229.121986 300.054752 
L 229.121986 300.054752 
L 291.526741 300.054752 
L 291.526741 300.054752 
z
" clip-path="url(#p31b63a1720)" style="fill: #b9db57"/>
    <path d="M 229.121986 300.054752 
L 229.121986 247.183742 
L 291.526741 247.183742 
L 291.526741 300.054752 
z
" clip-path="url(#p31b63a1720)" style="fill: #b9db57"/>
    <path d="M 229.121986 247.183742 
L 229.121986 247.183742 
L 291.526741 247.183742 
L 291.526741 247.183742 
z
" clip-path="url(#p31b63a1720)" style="fill: #b9db57"/>
    <path d="M 229.121986 247.183742 
L 229.121986 247.183742 
L 291.526741 247.183742 
L 291.526741 247.183742 
z
" clip-path="url(#p31b63a1720)" style="fill: #b9db57"/>
    <path d="M 229.121986 247.183742 
L 229.121986 247.183742 
L 291.526741 247.183742 
L 291.526741 247.183742 
z
" clip-path="url(#p31b63a1720)" style="fill: #db5f57"/>
    <path d="M 229.121986 247.183742 
L 229.121986 247.183742 
L 291.526741 247.183742 
L 291.526741 247.183742 
z
" clip-path="url(#p31b63a1720)" style="fill: #db5f57"/>
    <path d="M 229.121986 247.183742 
L 229.121986 179.539951 
L 291.526741 179.539951 
L 291.526741 247.183742 
z
" clip-path="url(#p31b63a1720)" style="fill: #db5f57"/>
    <path d="M 229.121986 179.539951 
L 229.121986 179.539951 
L 291.526741 179.539951 
L 291.526741 179.539951 
z
" clip-path="url(#p31b63a1720)" style="fill: #db5f57"/>
    <path d="M 229.121986 179.539951 
L 229.121986 179.539951 
L 291.526741 179.539951 
L 291.526741 179.539951 
z
" clip-path="url(#p31b63a1720)" style="fill: #db5f57"/>
    <path d="M 291.526741 332.710375 
L 291.526741 331.155345 
L 353.931495 331.155345 
L 353.931495 332.710375 
z
" clip-path="url(#p31b63a1720)" style="fill: #c957db"/>
    <path d="M 291.526741 331.155345 
L 291.526741 331.155345 
L 353.931495 331.155345 
L 353.931495 331.155345 
z
" clip-path="url(#p31b63a1720)" style="fill: #c957db"/>
    <path d="M 291.526741 331.155345 
L 291.526741 331.155345 
L 353.931495 331.155345 
L 353.931495 331.155345 
z
" clip-path="url(#p31b63a1720)" style="fill: #c957db"/>
    <path d="M 291.526741 331.155345 
L 291.526741 331.155345 
L 353.931495 331.155345 
L 353.931495 331.155345 
z
" clip-path="url(#p31b63a1720)" style="fill: #c957db"/>
    <path d="M 291.526741 331.155345 
L 291.526741 331.155345 
L 353.931495 331.155345 
L 353.931495 331.155345 
z
" clip-path="url(#p31b63a1720)" style="fill: #c957db"/>
    <path d="M 291.526741 331.155345 
L 291.526741 328.822801 
L 353.931495 328.822801 
L 353.931495 331.155345 
z
" clip-path="url(#p31b63a1720)" style="fill: #5784db"/>
    <path d="M 291.526741 328.822801 
L 291.526741 328.822801 
L 353.931495 328.822801 
L 353.931495 328.822801 
z
" clip-path="url(#p31b63a1720)" style="fill: #5784db"/>
    <path d="M 291.526741 328.822801 
L 291.526741 328.822801 
L 353.931495 328.822801 
L 353.931495 328.822801 
z
" clip-path="url(#p31b63a1720)" style="fill: #5784db"/>
    <path d="M 291.526741 328.822801 
L 291.526741 328.822801 
L 353.931495 328.822801 
L 353.931495 328.822801 
z
" clip-path="url(#p31b63a1720)" style="fill: #5784db"/>
    <path d="M 291.526741 328.822801 
L 291.526741 328.822801 
L 353.931495 328.822801 
L 353.931495 328.822801 
z
" clip-path="url(#p31b63a1720)" style="fill: #5784db"/>
    <path d="M 291.526741 328.822801 
L 291.526741 324.157712 
L 353.931495 324.157712 
L 353.931495 328.822801 
z
" clip-path="url(#p31b63a1720)" style="fill: #57db94"/>
    <path d="M 291.526741 324.157712 
L 291.526741 324.157712 
L 353.931495 324.157712 
L 353.931495 324.157712 
z
" clip-path="url(#p31b63a1720)" style="fill: #57db94"/>
    <path d="M 291.526741 324.157712 
L 291.526741 324.157712 
L 353.931495 324.157712 
L 353.931495 324.157712 
z
" clip-path="url(#p31b63a1720)" style="fill: #57db94"/>
    <path d="M 291.526741 324.157712 
L 291.526741 324.157712 
L 353.931495 324.157712 
L 353.931495 324.157712 
z
" clip-path="url(#p31b63a1720)" style="fill: #57db94"/>
    <path d="M 291.526741 324.157712 
L 291.526741 324.157712 
L 353.931495 324.157712 
L 353.931495 324.157712 
z
" clip-path="url(#p31b63a1720)" style="fill: #57db94"/>
    <path d="M 291.526741 324.157712 
L 291.526741 302.387296 
L 353.931495 302.387296 
L 353.931495 324.157712 
z
" clip-path="url(#p31b63a1720)" style="fill: #b9db57"/>
    <path d="M 291.526741 302.387296 
L 291.526741 302.387296 
L 353.931495 302.387296 
L 353.931495 302.387296 
z
" clip-path="url(#p31b63a1720)" style="fill: #b9db57"/>
    <path d="M 291.526741 302.387296 
L 291.526741 302.387296 
L 353.931495 302.387296 
L 353.931495 302.387296 
z
" clip-path="url(#p31b63a1720)" style="fill: #b9db57"/>
    <path d="M 291.526741 302.387296 
L 291.526741 302.387296 
L 353.931495 302.387296 
L 353.931495 302.387296 
z
" clip-path="url(#p31b63a1720)" style="fill: #b9db57"/>
    <path d="M 291.526741 302.387296 
L 291.526741 302.387296 
L 353.931495 302.387296 
L 353.931495 302.387296 
z
" clip-path="url(#p31b63a1720)" style="fill: #b9db57"/>
    <path d="M 291.526741 302.387296 
L 291.526741 268.176643 
L 353.931495 268.176643 
L 353.931495 302.387296 
z
" clip-path="url(#p31b63a1720)" style="fill: #db5f57"/>
    <path d="M 291.526741 268.176643 
L 291.526741 268.176643 
L 353.931495 268.176643 
L 353.931495 268.176643 
z
" clip-path="url(#p31b63a1720)" style="fill: #db5f57"/>
    <path d="M 291.526741 268.176643 
L 291.526741 268.176643 
L 353.931495 268.176643 
L 353.931495 268.176643 
z
" clip-path="url(#p31b63a1720)" style="fill: #db5f57"/>
    <path d="M 291.526741 268.176643 
L 291.526741 268.176643 
L 353.931495 268.176643 
L 353.931495 268.176643 
z
" clip-path="url(#p31b63a1720)" style="fill: #db5f57"/>
    <path d="M 291.526741 268.176643 
L 291.526741 268.176643 
L 353.931495 268.176643 
L 353.931495 268.176643 
z
" clip-path="url(#p31b63a1720)" style="fill: #db5f57"/>
    <path d="M 353.931495 332.710375 
L 353.931495 332.710375 
L 416.33625 332.710375 
L 416.33625 332.710375 
z
" clip-path="url(#p31b63a1720)" style="fill: #c957db"/>
    <path d="M 353.931495 332.710375 
L 353.931495 332.710375 
L 416.33625 332.710375 
L 416.33625 332.710375 
z
" clip-path="url(#p31b63a1720)" style="fill: #c957db"/>
    <path d="M 353.931495 332.710375 
L 353.931495 332.710375 
L 416.33625 332.710375 
L 416.33625 332.710375 
z
" clip-path="url(#p31b63a1720)" style="fill: #c957db"/>
    <path d="M 353.931495 332.710375 
L 353.931495 332.710375 
L 416.33625 332.710375 
L 416.33625 332.710375 
z
" clip-path="url(#p31b63a1720)" style="fill: #c957db"/>
    <path d="M 353.931495 332.710375 
L 353.931495 332.710375 
L 416.33625 332.710375 
L 416.33625 332.710375 
z
" clip-path="url(#p31b63a1720)" style="fill: #c957db"/>
    <path d="M 353.931495 332.710375 
L 353.931495 332.710375 
L 416.33625 332.710375 
L 416.33625 332.710375 
z
" clip-path="url(#p31b63a1720)" style="fill: #5784db"/>
    <path d="M 353.931495 332.710375 
L 353.931495 332.710375 
L 416.33625 332.710375 
L 416.33625 332.710375 
z
" clip-path="url(#p31b63a1720)" style="fill: #5784db"/>
    <path d="M 353.931495 332.710375 
L 353.931495 332.710375 
L 416.33625 332.710375 
L 416.33625 332.710375 
z
" clip-path="url(#p31b63a1720)" style="fill: #5784db"/>
    <path d="M 353.931495 332.710375 
L 353.931495 332.710375 
L 416.33625 332.710375 
L 416.33625 332.710375 
z
" clip-path="url(#p31b63a1720)" style="fill: #5784db"/>
    <path d="M 353.931495 332.710375 
L 353.931495 332.710375 
L 416.33625 332.710375 
L 416.33625 332.710375 
z
" clip-path="url(#p31b63a1720)" style="fill: #5784db"/>
    <path d="M 353.931495 332.710375 
L 353.931495 332.710375 
L 416.33625 332.710375 
L 416.33625 332.710375 
z
" clip-path="url(#p31b63a1720)" style="fill: #57db94"/>
    <path d="M 353.931495 332.710375 
L 353.931495 332.710375 
L 416.33625 332.710375 
L 416.33625 332.710375 
z
" clip-path="url(#p31b63a1720)" style="fill: #57db94"/>
    <path d="M 353.931495 332.710375 
L 353.931495 332.710375 
L 416.33625 332.710375 
L 416.33625 332.710375 
z
" clip-path="url(#p31b63a1720)" style="fill: #57db94"/>
    <path d="M 353.931495 332.710375 
L 353.931495 332.710375 
L 416.33625 332.710375 
L 416.33625 332.710375 
z
" clip-path="url(#p31b63a1720)" style="fill: #57db94"/>
    <path d="M 353.931495 332.710375 
L 353.931495 332.710375 
L 416.33625 332.710375 
L 416.33625 332.710375 
z
" clip-path="url(#p31b63a1720)" style="fill: #57db94"/>
    <path d="M 353.931495 332.710375 
L 353.931495 332.710375 
L 416.33625 332.710375 
L 416.33625 332.710375 
z
" clip-path="url(#p31b63a1720)" style="fill: #b9db57"/>
    <path d="M 353.931495 332.710375 
L 353.931495 332.710375 
L 416.33625 332.710375 
L 416.33625 332.710375 
z
" clip-path="url(#p31b63a1720)" style="fill: #b9db57"/>
    <path d="M 353.931495 332.710375 
L 353.931495 332.710375 
L 416.33625 332.710375 
L 416.33625 332.710375 
z
" clip-path="url(#p31b63a1720)" style="fill: #b9db57"/>
    <path d="M 353.931495 332.710375 
L 353.931495 332.710375 
L 416.33625 332.710375 
L 416.33625 332.710375 
z
" clip-path="url(#p31b63a1720)" style="fill: #b9db57"/>
    <path d="M 353.931495 332.710375 
L 353.931495 332.710375 
L 416.33625 332.710375 
L 416.33625 332.710375 
z
" clip-path="url(#p31b63a1720)" style="fill: #b9db57"/>
    <path d="M 353.931495 332.710375 
L 353.931495 332.710375 
L 416.33625 332.710375 
L 416.33625 332.710375 
z
" clip-path="url(#p31b63a1720)" style="fill: #db5f57"/>
    <path d="M 353.931495 332.710375 
L 353.931495 332.710375 
L 416.33625 332.710375 
L 416.33625 332.710375 
z
" clip-path="url(#p31b63a1720)" style="fill: #db5f57"/>
    <path d="M 353.931495 332.710375 
L 353.931495 332.710375 
L 416.33625 332.710375 
L 416.33625 332.710375 
z
" clip-path="url(#p31b63a1720)" style="fill: #db5f57"/>
    <path d="M 353.931495 332.710375 
L 353.931495 332.710375 
L 416.33625 332.710375 
L 416.33625 332.710375 
z
" clip-path="url(#p31b63a1720)" style="fill: #db5f57"/>
    <path d="M 353.931495 332.710375 
L 353.931495 332.710375 
L 416.33625 332.710375 
L 416.33625 332.710375 
z
" clip-path="url(#p31b63a1720)" style="fill: #db5f57"/>
   </g>
   <g id="text_11">
    <g clip-path="url(#p31b63a1720)">
     <!-- dynomight.net -->
     <g style="fill: #d3d3d3" transform="translate(343.205374 310.47493) scale(0.04 -0.04)">
      <defs>
       <path id="DejaVuSansMono-64" d="M 2681 3053 
L 2681 4863 
L 3256 4863 
L 3256 0 
L 2681 0 
L 2681 441 
Q 2538 181 2298 45 
Q 2059 -91 1747 -91 
Q 1113 -91 748 401 
Q 384 894 384 1759 
Q 384 2613 750 3098 
Q 1116 3584 1747 3584 
Q 2063 3584 2303 3448 
Q 2544 3313 2681 3053 
z
M 991 1747 
Q 991 1078 1203 737 
Q 1416 397 1831 397 
Q 2247 397 2464 740 
Q 2681 1084 2681 1747 
Q 2681 2413 2464 2755 
Q 2247 3097 1831 3097 
Q 1416 3097 1203 2756 
Q 991 2416 991 1747 
z
" transform="scale(0.015625)"/>
       <path id="DejaVuSansMono-79" d="M 2681 1125 
Q 2538 759 2316 163 
Q 2006 -663 1900 -844 
Q 1756 -1088 1540 -1209 
Q 1325 -1331 1038 -1331 
L 575 -1331 
L 575 -850 
L 916 -850 
Q 1169 -850 1312 -703 
Q 1456 -556 1678 56 
L 325 3500 
L 934 3500 
L 1972 763 
L 2994 3500 
L 3603 3500 
L 2681 1125 
z
" transform="scale(0.015625)"/>
       <path id="DejaVuSansMono-6e" d="M 3284 2169 
L 3284 0 
L 2706 0 
L 2706 2169 
Q 2706 2641 2540 2862 
Q 2375 3084 2022 3084 
Q 1619 3084 1401 2798 
Q 1184 2513 1184 1978 
L 1184 0 
L 609 0 
L 609 3500 
L 1184 3500 
L 1184 2975 
Q 1338 3275 1600 3429 
Q 1863 3584 2222 3584 
Q 2756 3584 3020 3232 
Q 3284 2881 3284 2169 
z
" transform="scale(0.015625)"/>
       <path id="DejaVuSansMono-6f" d="M 1925 3097 
Q 1488 3097 1263 2756 
Q 1038 2416 1038 1747 
Q 1038 1081 1263 739 
Q 1488 397 1925 397 
Q 2366 397 2591 739 
Q 2816 1081 2816 1747 
Q 2816 2416 2591 2756 
Q 2366 3097 1925 3097 
z
M 1925 3584 
Q 2653 3584 3039 3112 
Q 3425 2641 3425 1747 
Q 3425 850 3040 379 
Q 2656 -91 1925 -91 
Q 1197 -91 812 379 
Q 428 850 428 1747 
Q 428 2641 812 3112 
Q 1197 3584 1925 3584 
z
" transform="scale(0.015625)"/>
       <path id="DejaVuSansMono-6d" d="M 2113 3144 
Q 2219 3369 2383 3476 
Q 2547 3584 2778 3584 
Q 3200 3584 3373 3257 
Q 3547 2931 3547 2028 
L 3547 0 
L 3022 0 
L 3022 2003 
Q 3022 2744 2939 2923 
Q 2856 3103 2638 3103 
Q 2388 3103 2295 2911 
Q 2203 2719 2203 2003 
L 2203 0 
L 1678 0 
L 1678 2003 
Q 1678 2753 1589 2928 
Q 1500 3103 1269 3103 
Q 1041 3103 952 2911 
Q 863 2719 863 2003 
L 863 0 
L 341 0 
L 341 3500 
L 863 3500 
L 863 3200 
Q 966 3388 1120 3486 
Q 1275 3584 1472 3584 
Q 1709 3584 1867 3475 
Q 2025 3366 2113 3144 
z
" transform="scale(0.015625)"/>
       <path id="DejaVuSansMono-69" d="M 800 3500 
L 2272 3500 
L 2272 447 
L 3413 447 
L 3413 0 
L 556 0 
L 556 447 
L 1697 447 
L 1697 3053 
L 800 3053 
L 800 3500 
z
M 1697 4863 
L 2272 4863 
L 2272 4134 
L 1697 4134 
L 1697 4863 
z
" transform="scale(0.015625)"/>
       <path id="DejaVuSansMono-67" d="M 2681 1778 
Q 2681 2425 2470 2761 
Q 2259 3097 1856 3097 
Q 1434 3097 1212 2761 
Q 991 2425 991 1778 
Q 991 1131 1214 792 
Q 1438 453 1863 453 
Q 2259 453 2470 793 
Q 2681 1134 2681 1778 
z
M 3256 225 
Q 3256 -563 2884 -969 
Q 2513 -1375 1791 -1375 
Q 1553 -1375 1293 -1331 
Q 1034 -1288 775 -1203 
L 775 -634 
Q 1081 -778 1331 -847 
Q 1581 -916 1791 -916 
Q 2256 -916 2468 -662 
Q 2681 -409 2681 141 
L 2681 166 
L 2681 556 
Q 2544 263 2306 119 
Q 2069 -25 1728 -25 
Q 1116 -25 750 465 
Q 384 956 384 1778 
Q 384 2603 750 3093 
Q 1116 3584 1728 3584 
Q 2066 3584 2300 3450 
Q 2534 3316 2681 3034 
L 2681 3488 
L 3256 3488 
L 3256 225 
z
" transform="scale(0.015625)"/>
       <path id="DejaVuSansMono-68" d="M 3284 2169 
L 3284 0 
L 2706 0 
L 2706 2169 
Q 2706 2641 2540 2862 
Q 2375 3084 2022 3084 
Q 1619 3084 1401 2798 
Q 1184 2513 1184 1978 
L 1184 0 
L 609 0 
L 609 4863 
L 1184 4863 
L 1184 2975 
Q 1338 3275 1600 3429 
Q 1863 3584 2222 3584 
Q 2756 3584 3020 3232 
Q 3284 2881 3284 2169 
z
" transform="scale(0.015625)"/>
       <path id="DejaVuSansMono-74" d="M 1919 4494 
L 1919 3500 
L 3225 3500 
L 3225 3053 
L 1919 3053 
L 1919 1153 
Q 1919 766 2066 612 
Q 2213 459 2578 459 
L 3225 459 
L 3225 0 
L 2522 0 
Q 1875 0 1609 259 
Q 1344 519 1344 1153 
L 1344 3053 
L 409 3053 
L 409 3500 
L 1344 3500 
L 1344 4494 
L 1919 4494 
z
" transform="scale(0.015625)"/>
       <path id="DejaVuSansMono-2e" d="M 1528 953 
L 2316 953 
L 2316 0 
L 1528 0 
L 1528 953 
z
" transform="scale(0.015625)"/>
       <path id="DejaVuSansMono-65" d="M 3475 1894 
L 3475 1613 
L 984 1613 
L 984 1594 
Q 984 1022 1282 709 
Q 1581 397 2125 397 
Q 2400 397 2700 484 
Q 3000 572 3341 750 
L 3341 178 
Q 3013 44 2708 -23 
Q 2403 -91 2119 -91 
Q 1303 -91 843 398 
Q 384 888 384 1747 
Q 384 2584 834 3084 
Q 1284 3584 2034 3584 
Q 2703 3584 3089 3131 
Q 3475 2678 3475 1894 
z
M 2900 2063 
Q 2888 2569 2661 2833 
Q 2434 3097 2009 3097 
Q 1594 3097 1325 2822 
Q 1056 2547 1006 2059 
L 2900 2063 
z
" transform="scale(0.015625)"/>
      </defs>
      <use xlink:href="#DejaVuSansMono-64"/>
      <use xlink:href="#DejaVuSansMono-79" x="60.205078"/>
      <use xlink:href="#DejaVuSansMono-6e" x="120.410156"/>
      <use xlink:href="#DejaVuSansMono-6f" x="180.615234"/>
      <use xlink:href="#DejaVuSansMono-6d" x="240.820312"/>
      <use xlink:href="#DejaVuSansMono-69" x="301.025391"/>
      <use xlink:href="#DejaVuSansMono-67" x="361.230469"/>
      <use xlink:href="#DejaVuSansMono-68" x="421.435547"/>
      <use xlink:href="#DejaVuSansMono-74" x="481.640625"/>
      <use xlink:href="#DejaVuSansMono-2e" x="541.845703"/>
      <use xlink:href="#DejaVuSansMono-6e" x="602.050781"/>
      <use xlink:href="#DejaVuSansMono-65" x="662.255859"/>
      <use xlink:href="#DejaVuSansMono-74" x="722.460938"/>
     </g>
    </g>
   </g>
  </g>
  <g id="text_12">
   <!-- Do you think you could beat me in a fight? -->
   <g transform="translate(85.692953 14.468813) scale(0.132 -0.132)">
    <defs>
     <path id="Montserrat-Regular-44" d="M 730 4480 
L 2554 4480 
Q 3264 4480 3808 4195 
Q 4352 3910 4653 3401 
Q 4954 2893 4954 2240 
Q 4954 1587 4653 1078 
Q 4352 570 3808 285 
Q 3264 0 2554 0 
L 730 0 
L 730 4480 
z
M 2528 410 
Q 3117 410 3558 643 
Q 4000 877 4243 1289 
Q 4486 1702 4486 2240 
Q 4486 2778 4243 3190 
Q 4000 3603 3558 3836 
Q 3117 4070 2528 4070 
L 1203 4070 
L 1203 410 
L 2528 410 
z
" transform="scale(0.015625)"/>
     <path id="Montserrat-Regular-68" d="M 2349 3392 
Q 2982 3392 3356 3024 
Q 3731 2656 3731 1952 
L 3731 0 
L 3277 0 
L 3277 1907 
Q 3277 2432 3014 2707 
Q 2752 2982 2266 2982 
Q 1722 2982 1405 2659 
Q 1088 2336 1088 1766 
L 1088 0 
L 634 0 
L 634 4749 
L 1088 4749 
L 1088 2778 
Q 1274 3072 1600 3232 
Q 1926 3392 2349 3392 
z
" transform="scale(0.015625)"/>
     <path id="Montserrat-Regular-63" d="M 2029 -32 
Q 1530 -32 1136 185 
Q 742 403 518 796 
Q 294 1190 294 1683 
Q 294 2176 518 2566 
Q 742 2957 1136 3174 
Q 1530 3392 2029 3392 
Q 2464 3392 2806 3222 
Q 3149 3053 3347 2726 
L 3008 2496 
Q 2842 2746 2586 2870 
Q 2330 2995 2029 2995 
Q 1664 2995 1373 2832 
Q 1082 2669 918 2368 
Q 755 2067 755 1683 
Q 755 1293 918 995 
Q 1082 698 1373 534 
Q 1664 371 2029 371 
Q 2330 371 2586 492 
Q 2842 614 3008 864 
L 3347 634 
Q 3149 307 2803 137 
Q 2458 -32 2029 -32 
z
" transform="scale(0.015625)"/>
     <path id="Montserrat-Regular-64" d="M 3706 4749 
L 3706 0 
L 3270 0 
L 3270 666 
Q 3066 326 2730 147 
Q 2394 -32 1971 -32 
Q 1498 -32 1114 185 
Q 730 403 512 793 
Q 294 1184 294 1683 
Q 294 2182 512 2572 
Q 730 2963 1114 3177 
Q 1498 3392 1971 3392 
Q 2381 3392 2710 3222 
Q 3040 3053 3251 2726 
L 3251 4749 
L 3706 4749 
z
M 2010 371 
Q 2362 371 2646 534 
Q 2931 698 3094 998 
Q 3258 1299 3258 1683 
Q 3258 2067 3094 2368 
Q 2931 2669 2646 2832 
Q 2362 2995 2010 2995 
Q 1651 2995 1366 2832 
Q 1082 2669 918 2368 
Q 755 2067 755 1683 
Q 755 1299 918 998 
Q 1082 698 1366 534 
Q 1651 371 2010 371 
z
" transform="scale(0.015625)"/>
     <path id="Montserrat-Regular-66" d="M 1747 4397 
Q 1453 4397 1302 4237 
Q 1152 4077 1152 3763 
L 1152 3366 
L 2189 3366 
L 2189 2982 
L 1165 2982 
L 1165 0 
L 710 0 
L 710 2982 
L 109 2982 
L 109 3366 
L 710 3366 
L 710 3782 
Q 710 4243 976 4512 
Q 1242 4781 1728 4781 
Q 1920 4781 2099 4726 
Q 2278 4672 2400 4570 
L 2246 4230 
Q 2048 4397 1747 4397 
z
" transform="scale(0.015625)"/>
     <path id="Montserrat-Regular-67" d="M 3750 3366 
L 3750 410 
Q 3750 -448 3331 -861 
Q 2912 -1274 2067 -1274 
Q 1600 -1274 1181 -1136 
Q 762 -998 499 -755 
L 730 -410 
Q 973 -627 1321 -748 
Q 1670 -870 2054 -870 
Q 2694 -870 2995 -572 
Q 3296 -275 3296 352 
L 3296 781 
Q 3085 461 2742 294 
Q 2400 128 1984 128 
Q 1510 128 1123 336 
Q 736 544 515 918 
Q 294 1293 294 1766 
Q 294 2240 515 2611 
Q 736 2982 1120 3187 
Q 1504 3392 1984 3392 
Q 2413 3392 2758 3219 
Q 3104 3046 3315 2720 
L 3315 3366 
L 3750 3366 
z
M 2029 531 
Q 2394 531 2688 688 
Q 2982 845 3145 1126 
Q 3309 1408 3309 1766 
Q 3309 2125 3145 2403 
Q 2982 2682 2691 2838 
Q 2400 2995 2029 2995 
Q 1664 2995 1373 2841 
Q 1082 2688 918 2406 
Q 755 2125 755 1766 
Q 755 1408 918 1126 
Q 1082 845 1373 688 
Q 1664 531 2029 531 
z
" transform="scale(0.015625)"/>
     <path id="Montserrat-Regular-3f" d="M 1504 1344 
Q 1504 1606 1590 1804 
Q 1677 2003 1805 2144 
Q 1933 2285 2138 2464 
Q 2413 2707 2544 2889 
Q 2675 3072 2675 3334 
Q 2675 3686 2400 3900 
Q 2125 4115 1645 4115 
Q 851 4115 422 3597 
L 83 3853 
Q 627 4518 1677 4518 
Q 2349 4518 2749 4217 
Q 3149 3917 3149 3405 
Q 3149 3142 3062 2940 
Q 2976 2739 2851 2598 
Q 2726 2458 2522 2272 
Q 2246 2022 2112 1827 
Q 1978 1632 1978 1344 
L 1504 1344 
z
M 1741 -32 
Q 1600 -32 1504 67 
Q 1408 166 1408 301 
Q 1408 442 1504 534 
Q 1600 627 1741 627 
Q 1888 627 1984 534 
Q 2080 442 2080 301 
Q 2080 166 1981 67 
Q 1882 -32 1741 -32 
z
" transform="scale(0.015625)"/>
    </defs>
    <use xlink:href="#Montserrat-Regular-44"/>
    <use xlink:href="#Montserrat-Regular-6f" x="82.599991"/>
    <use xlink:href="#Montserrat-Regular-20" x="145.299988"/>
    <use xlink:href="#Montserrat-Regular-79" x="171.499985"/>
    <use xlink:href="#Montserrat-Regular-6f" x="225.699982"/>
    <use xlink:href="#Montserrat-Regular-75" x="288.399979"/>
    <use xlink:href="#Montserrat-Regular-20" x="355.699966"/>
    <use xlink:href="#Montserrat-Regular-74" x="381.899963"/>
    <use xlink:href="#Montserrat-Regular-68" x="422.499954"/>
    <use xlink:href="#Montserrat-Regular-69" x="490.199936"/>
    <use xlink:href="#Montserrat-Regular-6e" x="517.09993"/>
    <use xlink:href="#Montserrat-Regular-6b" x="584.799911"/>
    <use xlink:href="#Montserrat-Regular-20" x="644.899902"/>
    <use xlink:href="#Montserrat-Regular-79" x="671.099899"/>
    <use xlink:href="#Montserrat-Regular-6f" x="725.299896"/>
    <use xlink:href="#Montserrat-Regular-75" x="787.999893"/>
    <use xlink:href="#Montserrat-Regular-20" x="855.299881"/>
    <use xlink:href="#Montserrat-Regular-63" x="881.499878"/>
    <use xlink:href="#Montserrat-Regular-6f" x="937.799866"/>
    <use xlink:href="#Montserrat-Regular-75" x="1000.499863"/>
    <use xlink:href="#Montserrat-Regular-6c" x="1067.79985"/>
    <use xlink:href="#Montserrat-Regular-64" x="1094.699844"/>
    <use xlink:href="#Montserrat-Regular-20" x="1162.499832"/>
    <use xlink:href="#Montserrat-Regular-62" x="1188.699829"/>
    <use xlink:href="#Montserrat-Regular-65" x="1256.499817"/>
    <use xlink:href="#Montserrat-Regular-61" x="1316.899811"/>
    <use xlink:href="#Montserrat-Regular-74" x="1375.899796"/>
    <use xlink:href="#Montserrat-Regular-20" x="1416.499786"/>
    <use xlink:href="#Montserrat-Regular-6d" x="1442.699783"/>
    <use xlink:href="#Montserrat-Regular-65" x="1548.799774"/>
    <use xlink:href="#Montserrat-Regular-20" x="1609.199768"/>
    <use xlink:href="#Montserrat-Regular-69" x="1635.399765"/>
    <use xlink:href="#Montserrat-Regular-6e" x="1662.299759"/>
    <use xlink:href="#Montserrat-Regular-20" x="1729.999741"/>
    <use xlink:href="#Montserrat-Regular-61" x="1756.199738"/>
    <use xlink:href="#Montserrat-Regular-20" x="1815.199722"/>
    <use xlink:href="#Montserrat-Regular-66" x="1841.399719"/>
    <use xlink:href="#Montserrat-Regular-69" x="1875.299713"/>
    <use xlink:href="#Montserrat-Regular-67" x="1902.199707"/>
    <use xlink:href="#Montserrat-Regular-68" x="1970.799698"/>
    <use xlink:href="#Montserrat-Regular-74" x="2038.49968"/>
    <use xlink:href="#Montserrat-Regular-3f" x="2079.09967"/>
   </g>
  </g>
  <g id="text_13">
   <!-- count -->
   <g transform="translate(12.770344 193.410062) rotate(-90) scale(0.11 -0.11)">
    <use xlink:href="#Montserrat-Regular-63"/>
    <use xlink:href="#Montserrat-Regular-6f" x="56.299988"/>
    <use xlink:href="#Montserrat-Regular-75" x="118.999985"/>
    <use xlink:href="#Montserrat-Regular-6e" x="186.299973"/>
    <use xlink:href="#Montserrat-Regular-74" x="253.999954"/>
   </g>
  </g>
  <g id="text_14">
   <!-- I/E -->
   <g transform="translate(431.16025 135.501891) scale(0.11 -0.11)">
    <defs>
     <path id="Montserrat-Regular-49" d="M 730 4480 
L 1203 4480 
L 1203 0 
L 730 0 
L 730 4480 
z
" transform="scale(0.015625)"/>
     <path id="Montserrat-Regular-2f" d="M 1952 5389 
L 2368 5389 
L 256 -640 
L -160 -640 
L 1952 5389 
z
" transform="scale(0.015625)"/>
     <path id="Montserrat-Regular-45" d="M 3898 410 
L 3898 0 
L 730 0 
L 730 4480 
L 3802 4480 
L 3802 4070 
L 1203 4070 
L 1203 2477 
L 3520 2477 
L 3520 2074 
L 1203 2074 
L 1203 410 
L 3898 410 
z
" transform="scale(0.015625)"/>
    </defs>
    <use xlink:href="#Montserrat-Regular-49"/>
    <use xlink:href="#Montserrat-Regular-2f" x="30.199997"/>
    <use xlink:href="#Montserrat-Regular-45" x="63.699982"/>
   </g>
  </g>
  <g id="patch_1">
   <path d="M 431.16025 155.780578 
L 447.00025 155.780578 
L 447.00025 139.940578 
L 431.16025 139.940578 
z
" clip-path="url(#p00da2c5b50)" style="fill: #db5f57"/>
  </g>
  <g id="text_15">
   <!-- I -->
   <g transform="translate(449.30425 150.271641) scale(0.088 -0.088)">
    <use xlink:href="#Montserrat-Regular-49"/>
   </g>
  </g>
  <g id="patch_2">
   <path d="M 431.16025 173.620578 
L 447.00025 173.620578 
L 447.00025 157.780578 
L 431.16025 157.780578 
z
" clip-path="url(#p172ed87818)" style="fill: #b9db57"/>
  </g>
  <g id="text_16">
   <!-- i -->
   <g transform="translate(449.30425 168.111641) scale(0.088 -0.088)">
    <use xlink:href="#Montserrat-Regular-69"/>
   </g>
  </g>
  <g id="patch_3">
   <path d="M 431.16025 191.460578 
L 447.00025 191.460578 
L 447.00025 175.620578 
L 431.16025 175.620578 
z
" clip-path="url(#p7af2d35fd3)" style="fill: #57db94"/>
  </g>
  <g id="text_17">
   <!-- x -->
   <g transform="translate(449.30425 185.951641) scale(0.088 -0.088)">
    <defs>
     <path id="Montserrat-Regular-78" d="M 2778 0 
L 1709 1408 
L 634 0 
L 122 0 
L 1453 1728 
L 186 3366 
L 698 3366 
L 1709 2048 
L 2720 3366 
L 3219 3366 
L 1952 1728 
L 3296 0 
L 2778 0 
z
" transform="scale(0.015625)"/>
    </defs>
    <use xlink:href="#Montserrat-Regular-78"/>
   </g>
  </g>
  <g id="patch_4">
   <path d="M 431.16025 209.300578 
L 447.00025 209.300578 
L 447.00025 193.460578 
L 431.16025 193.460578 
z
" clip-path="url(#p26266627ff)" style="fill: #5784db"/>
  </g>
  <g id="text_18">
   <!-- e -->
   <g transform="translate(449.30425 203.791641) scale(0.088 -0.088)">
    <use xlink:href="#Montserrat-Regular-65"/>
   </g>
  </g>
  <g id="patch_5">
   <path d="M 431.16025 227.140578 
L 447.00025 227.140578 
L 447.00025 211.300578 
L 431.16025 211.300578 
z
" clip-path="url(#p12801518c1)" style="fill: #c957db"/>
  </g>
  <g id="text_19">
   <!-- E -->
   <g transform="translate(449.30425 221.631641) scale(0.088 -0.088)">
    <use xlink:href="#Montserrat-Regular-45"/>
   </g>
  </g>
 </g>
 <defs>
  <clipPath id="p31b63a1720">
   <rect x="36.981031" y="21.704437" width="379.355219" height="311.005938"/>
  </clipPath>
  <clipPath id="p00da2c5b50">
   <path d="M 431.16025 155.780578 
L 431.16025 139.940578 
L 447.00025 139.940578 
L 447.00025 155.780578 
"/>
  </clipPath>
  <clipPath id="p172ed87818">
   <path d="M 431.16025 173.620578 
L 431.16025 157.780578 
L 447.00025 157.780578 
L 447.00025 173.620578 
"/>
  </clipPath>
  <clipPath id="p7af2d35fd3">
   <path d="M 431.16025 191.460578 
L 431.16025 175.620578 
L 447.00025 175.620578 
L 447.00025 191.460578 
"/>
  </clipPath>
  <clipPath id="p26266627ff">
   <path d="M 431.16025 209.300578 
L 431.16025 193.460578 
L 447.00025 193.460578 
L 447.00025 209.300578 
"/>
  </clipPath>
  <clipPath id="p12801518c1">
   <path d="M 431.16025 227.140578 
L 431.16025 211.300578 
L 447.00025 211.300578 
L 447.00025 227.140578 
"/>
  </clipPath>
 </defs>
</svg>
