<svg version="1.1" xmlns="http://www.w3.org/2000/svg" viewBox="0 0 563.724609375 591.1911282009548" width="563.724609375" height="591.1911282009548" class="excalidraw-svg">
  <!-- svg-source:excalidraw -->
  
  <defs>
    <style class="style-fonts">
      @font-face {
        font-family: "Virgil";
        src: url("https://excalidraw.com/Virgil.woff2");
      }
      @font-face {
        font-family: "Cascadia";
        src: url("https://excalidraw.com/Cascadia.woff2");
      }
      @font-face {
        font-family: "Assistant";
        src: url("https://excalidraw.com/Assistant-Regular.woff2");
      }
    </style>
    
  </defs>
  <rect x="0" y="0" width="563.724609375" height="591.1911282009548" fill="#ffffff"></rect><g stroke-linecap="round" transform="translate(12.58233642578125 10) rotate(0 268.0584411621094 52.50816345214844)"><path d="M26.25 0 C157.34 -0.68, 286.09 -0.67, 509.86 0 M26.25 0 C176.2 -0.64, 326.51 -0.96, 509.86 0 M509.86 0 C527.76 1.74, 535.49 9, 536.12 26.25 M509.86 0 C528.88 -2.13, 537.96 7.59, 536.12 26.25 M536.12 26.25 C534.99 42.57, 534.53 58.26, 536.12 78.76 M536.12 26.25 C536.5 47.34, 536.03 68.81, 536.12 78.76 M536.12 78.76 C534.28 95.39, 526.97 103.52, 509.86 105.02 M536.12 78.76 C534.95 98.26, 526.84 105.91, 509.86 105.02 M509.86 105.02 C344.41 104.81, 179.16 106.17, 26.25 105.02 M509.86 105.02 C400.89 105.63, 291.33 106.11, 26.25 105.02 M26.25 105.02 C9.78 106.1, 0.43 94.29, 0 78.76 M26.25 105.02 C10.99 102.91, 2.29 98.07, 0 78.76 M0 78.76 C-1.77 65.28, 1.51 52.24, 0 26.25 M0 78.76 C0.34 62.84, 0.13 45.81, 0 26.25 M0 26.25 C-1.56 7.12, 7.53 -1.89, 26.25 0 M0 26.25 C-1.1 10.89, 8.94 -0.65, 26.25 0" stroke="#1e1e1e" stroke-width="2" fill="none"></path></g><g transform="translate(254.51773071289062 51.00816345214844) rotate(0 26.123046875 11.5)"><text x="26.123046875" y="0" font-family="Helvetica, Segoe UI Emoji" font-size="20px" fill="#1e1e1e" text-anchor="middle" style="white-space: pre;" direction="ltr" dominant-baseline="text-before-edge">closet</text></g><g stroke-linecap="round" transform="translate(10 159.97592163085938) rotate(0 79.3570556640625 59.60581970214844)"><path d="M29.8 0 C61.89 -0.23, 92.47 -1.3, 128.91 0 M29.8 0 C65.11 -1.3, 99.74 -1.15, 128.91 0 M128.91 0 C147.27 1.26, 157.3 9.42, 158.71 29.8 M128.91 0 C149.76 -1.68, 156.68 9.83, 158.71 29.8 M158.71 29.8 C158.69 45.92, 159.38 64.59, 158.71 89.41 M158.71 29.8 C159.51 52.7, 159.91 75.99, 158.71 89.41 M158.71 89.41 C158.83 108.86, 147.29 118.94, 128.91 119.21 M158.71 89.41 C159.88 109.79, 146.72 121.28, 128.91 119.21 M128.91 119.21 C97.72 116.57, 68.63 119.73, 29.8 119.21 M128.91 119.21 C100.68 118.13, 70.51 119.84, 29.8 119.21 M29.8 119.21 C10.68 119.08, -1.03 109.22, 0 89.41 M29.8 119.21 C9.76 120.49, -0.77 110.78, 0 89.41 M0 89.41 C-0.34 65.39, -1.27 44.27, 0 29.8 M0 89.41 C-0.3 70.5, 0.55 53.63, 0 29.8 M0 29.8 C0.4 11.1, 9.68 -0.17, 29.8 0 M0 29.8 C-0.55 9.17, 8.42 0.91, 29.8 0" stroke="#1e1e1e" stroke-width="2" fill="none"></path></g><g transform="translate(64.8941650390625 208.0817413330078) rotate(0 24.462890625 11.5)"><text x="24.462890625" y="0" font-family="Helvetica, Segoe UI Emoji" font-size="20px" fill="#1e1e1e" text-anchor="middle" style="white-space: pre;" direction="ltr" dominant-baseline="text-before-edge">box 1</text></g><g stroke-linecap="round" transform="translate(210.61571587456598 162.1151580810547) rotate(0 79.3570556640625 59.60581970214844)"><path d="M29.8 0 C69.96 -0.01, 108.23 -1.93, 128.91 0 M29.8 0 C52.81 0.82, 76.53 0.54, 128.91 0 M128.91 0 C146.97 -1.26, 160.35 9.46, 158.71 29.8 M128.91 0 C148.48 -2.17, 158.74 8.46, 158.71 29.8 M158.71 29.8 C158.37 50.99, 157.16 74.35, 158.71 89.41 M158.71 29.8 C159.59 49.55, 158.32 70.41, 158.71 89.41 M158.71 89.41 C160.41 107.37, 149.81 119.32, 128.91 119.21 M158.71 89.41 C160.11 109.4, 147.33 118.75, 128.91 119.21 M128.91 119.21 C91.14 120.04, 50.78 121.07, 29.8 119.21 M128.91 119.21 C105.38 117.74, 82.57 117.8, 29.8 119.21 M29.8 119.21 C10.34 118.33, 0.36 109.4, 0 89.41 M29.8 119.21 C10.99 119, 1.04 110.04, 0 89.41 M0 89.41 C0.83 68.19, 0 47.71, 0 29.8 M0 89.41 C0.68 69.92, 0.82 51.92, 0 29.8 M0 29.8 C2 11.66, 8.85 1.92, 29.8 0 M0 29.8 C-2.05 10.59, 10.34 -1.38, 29.8 0" stroke="#1e1e1e" stroke-width="2" fill="none"></path></g><g transform="translate(265.5098809136285 210.22097778320312) rotate(0 24.462890625 11.5)"><text x="24.462890625" y="0" font-family="Helvetica, Segoe UI Emoji" font-size="20px" fill="#1e1e1e" text-anchor="middle" style="white-space: pre;" direction="ltr" dominant-baseline="text-before-edge">box 2</text></g><g stroke-linecap="round" transform="translate(395.010498046875 160.84751892089844) rotate(0 79.3570556640625 59.60581970214844)"><path d="M29.8 0 C53.91 2.17, 79.13 -0.9, 128.91 0 M29.8 0 C55.43 -0.23, 79.92 -0.16, 128.91 0 M128.91 0 C148.92 1.91, 158.58 9.65, 158.71 29.8 M128.91 0 C147.21 -0.53, 157.7 11.27, 158.71 29.8 M158.71 29.8 C158.26 50.01, 159.06 68.65, 158.71 89.41 M158.71 29.8 C158.52 48.53, 158.29 68.05, 158.71 89.41 M158.71 89.41 C159.19 110.62, 148.55 118.4, 128.91 119.21 M158.71 89.41 C160.1 108.12, 148.68 120.67, 128.91 119.21 M128.91 119.21 C95.42 120.8, 63.41 120.04, 29.8 119.21 M128.91 119.21 C94.87 119.16, 61.3 118.2, 29.8 119.21 M29.8 119.21 C11.72 120.24, -0.35 110.51, 0 89.41 M29.8 119.21 C10.28 117.09, 1.21 107.43, 0 89.41 M0 89.41 C-1.02 73.16, -1.41 52.75, 0 29.8 M0 89.41 C-0.49 66.83, -0.33 46.46, 0 29.8 M0 29.8 C1.83 8.79, 11.28 1.1, 29.8 0 M0 29.8 C-1.77 7.74, 10.28 2.08, 29.8 0" stroke="#1e1e1e" stroke-width="2" fill="none"></path></g><g transform="translate(449.9046630859375 208.95333862304688) rotate(0 24.462890625 11.5)"><text x="24.462890625" y="0" font-family="Helvetica, Segoe UI Emoji" font-size="20px" fill="#1e1e1e" text-anchor="middle" style="white-space: pre;" direction="ltr" dominant-baseline="text-before-edge">box 3</text></g><g stroke-linecap="round"><g transform="translate(278.646728515625 116.42352294921875) rotate(0 -81.12054443359375 17.135986328125)"><path d="M-0.42 -0.12 C-27.4 5.58, -134.06 29.26, -161.22 34.81 M1.56 -1.23 C-25.55 4.05, -134.53 27.11, -161.63 32.97" stroke="#1e1e1e" stroke-width="2" fill="none"></path></g><g transform="translate(278.646728515625 116.42352294921875) rotate(0 -81.12054443359375 17.135986328125)"><path d="M-140.44 19.71 C-148.09 26.03, -154.49 27.12, -161.63 32.97 M-140.44 19.71 C-145.78 22.93, -149.89 26.06, -161.63 32.97" stroke="#1e1e1e" stroke-width="2" fill="none"></path></g><g transform="translate(278.646728515625 116.42352294921875) rotate(0 -81.12054443359375 17.135986328125)"><path d="M-136.87 36.43 C-145.87 36.82, -153.54 31.98, -161.63 32.97 M-136.87 36.43 C-143.02 36.19, -147.86 35.84, -161.63 32.97" stroke="#1e1e1e" stroke-width="2" fill="none"></path></g></g><mask></mask><g stroke-linecap="round"><g transform="translate(282.59942255966996 116.01632690429688) rotate(0 0.6723137728507211 21.503463745117188)"><path d="M-0.45 0 C-0.28 7.11, 0.72 35.79, 0.98 42.95 M0.32 -0.48 C0.67 6.7, 1.97 36.28, 2.02 43.62" stroke="#1e1e1e" stroke-width="2" fill="none"></path></g><g transform="translate(282.59942255966996 116.01632690429688) rotate(0 0.6723137728507211 21.503463745117188)"><path d="M-5.91 23.62 C-3.57 28.75, -1.39 34.74, 2.02 43.62 M-5.91 23.62 C-3.43 29.3, -1.43 34.98, 2.02 43.62" stroke="#1e1e1e" stroke-width="2" fill="none"></path></g><g transform="translate(282.59942255966996 116.01632690429688) rotate(0 0.6723137728507211 21.503463745117188)"><path d="M8.8 23.2 C6.9 28.39, 4.84 34.5, 2.02 43.62 M8.8 23.2 C7.01 29.07, 4.74 34.87, 2.02 43.62" stroke="#1e1e1e" stroke-width="2" fill="none"></path></g></g><mask></mask><g stroke-linecap="round"><g transform="translate(287.0899658203125 117.996826171875) rotate(0 93.31811523437503 19.667724609375)"><path d="M0.18 -0.94 C31.37 5.62, 155.29 33.33, 186.52 39.94 M-1.18 1.18 C29.9 7.34, 154.1 31.72, 185.51 38.13" stroke="#1e1e1e" stroke-width="2" fill="none"></path></g><g transform="translate(287.0899658203125 117.996826171875) rotate(0 93.31811523437503 19.667724609375)"><path d="M160.8 41.92 C165.35 40.75, 174.07 41.58, 185.51 38.13 M160.8 41.92 C166.26 40.19, 172 39.61, 185.51 38.13" stroke="#1e1e1e" stroke-width="2" fill="none"></path></g><g transform="translate(287.0899658203125 117.996826171875) rotate(0 93.31811523437503 19.667724609375)"><path d="M164.15 25.15 C167.95 28.15, 175.83 33.15, 185.51 38.13 M164.15 25.15 C168.64 27.55, 173.56 31.09, 185.51 38.13" stroke="#1e1e1e" stroke-width="2" fill="none"></path></g></g><mask></mask><g stroke-linecap="round" transform="translate(20.137919108072907 324.51876491970484) rotate(0 115.9354248046875 62.311004638671875)"><path d="M31.16 0 C86.39 2.4, 138.89 1.84, 200.72 0 M31.16 0 C82.04 0.79, 131.4 0.01, 200.72 0 M200.72 0 C220.17 0.52, 230.97 10.6, 231.87 31.16 M200.72 0 C221.69 -0.31, 231.8 8.57, 231.87 31.16 M231.87 31.16 C231.81 48.47, 231.05 65.99, 231.87 93.47 M231.87 31.16 C232.22 44.56, 231.72 58.03, 231.87 93.47 M231.87 93.47 C230.7 116.11, 223.33 122.93, 200.72 124.62 M231.87 93.47 C232.76 115.26, 221.17 122.51, 200.72 124.62 M200.72 124.62 C152.79 122.85, 105.13 121.6, 31.16 124.62 M200.72 124.62 C154.86 125.06, 109.84 126.36, 31.16 124.62 M31.16 124.62 C9.59 122.85, 1.98 113.38, 0 93.47 M31.16 124.62 C9.48 122.69, 0.44 113.38, 0 93.47 M0 93.47 C-1.57 74.81, 1.63 55.98, 0 31.16 M0 93.47 C0.08 71.91, -0.43 52.02, 0 31.16 M0 31.16 C-0.79 11.65, 9.49 1.23, 31.16 0 M0 31.16 C1.96 12.68, 9.43 1.86, 31.16 0" stroke="#1e1e1e" stroke-width="2" fill="none"></path></g><g transform="translate(99.93564860026041 375.3297695583767) rotate(0 36.1376953125 11.5)"><text x="36.1376953125" y="0" font-family="Helvetica, Segoe UI Emoji" font-size="20px" fill="#1e1e1e" text-anchor="middle" style="white-space: pre;" direction="ltr" dominant-baseline="text-before-edge">binder 1</text></g><g stroke-linecap="round" transform="translate(287.64518229166663 325.1353115505642) rotate(0 131.24606323242193 62.311004638671875)"><path d="M31.16 0 C71.17 0.32, 113.25 -1.69, 231.34 0 M31.16 0 C73.43 -2.41, 113.73 -1.8, 231.34 0 M231.34 0 C252.18 0.13, 263.72 10.05, 262.49 31.16 M231.34 0 C252.79 -2.02, 261.2 9.58, 262.49 31.16 M262.49 31.16 C263.82 52.22, 263.93 76.12, 262.49 93.47 M262.49 31.16 C262.39 50.36, 261.64 68.49, 262.49 93.47 M262.49 93.47 C261.61 115.07, 251.69 126.27, 231.34 124.62 M262.49 93.47 C261.19 114.81, 254.4 124.28, 231.34 124.62 M231.34 124.62 C178.84 126.08, 124.18 123.66, 31.16 124.62 M231.34 124.62 C162.62 124.76, 93.77 125.69, 31.16 124.62 M31.16 124.62 C8.78 122.9, -1.16 115.45, 0 93.47 M31.16 124.62 C9.1 123.9, 1.83 113.42, 0 93.47 M0 93.47 C-1.07 79.06, 0.83 65.01, 0 31.16 M0 93.47 C0.28 78, -0.66 63.21, 0 31.16 M0 31.16 C-1.61 10.08, 10.82 0.07, 31.16 0 M0 31.16 C-0.41 9.83, 11.28 0.07, 31.16 0" stroke="#1e1e1e" stroke-width="2" fill="none"></path></g><g transform="translate(382.75355021158856 375.9463161892361) rotate(0 36.1376953125 11.5)"><text x="36.1376953125" y="0" font-family="Helvetica, Segoe UI Emoji" font-size="20px" fill="#1e1e1e" text-anchor="middle" style="white-space: pre;" direction="ltr" dominant-baseline="text-before-edge">binder 2</text></g><g stroke-linecap="round"><g transform="translate(246.9851268417226 284.5190069254022) rotate(0 -20.44000866669932 19.3427210992021)"><path d="M0.82 -0.78 C-5.96 5.41, -33.24 31.5, -40.23 38.25 M-0.2 1.42 C-7.12 8.29, -33.86 33.47, -40.84 39.57" stroke="#1e1e1e" stroke-width="2" fill="none"></path></g><g transform="translate(246.9851268417226 284.5190069254022) rotate(0 -20.44000866669932 19.3427210992021)"><path d="M-29.26 17.41 C-34.27 26.07, -37.6 32.03, -40.84 39.57 M-29.26 17.41 C-34.38 27.06, -37.67 35.5, -40.84 39.57" stroke="#1e1e1e" stroke-width="2" fill="none"></path></g><g transform="translate(246.9851268417226 284.5190069254022) rotate(0 -20.44000866669932 19.3427210992021)"><path d="M-17.72 30.04 C-26.75 34.5, -33.99 36.2, -40.84 39.57 M-17.72 30.04 C-27.43 34.84, -35.23 38.34, -40.84 39.57" stroke="#1e1e1e" stroke-width="2" fill="none"></path></g></g><mask></mask><g stroke-linecap="round"><g transform="translate(312.4658917832242 326.2896567230097) rotate(0 -0.0015137114682488573 0.004809496568043414)"><path d="M-0.14 -0.32 C-0.08 -0.22, -0.02 0.24, 0.04 0.33 M0.44 0.28 C0.49 0.32, -0.17 -0.02, -0.22 -0.13" stroke="#1e1e1e" stroke-width="2" fill="none"></path></g><g transform="translate(312.4658917832242 326.2896567230097) rotate(0 -0.0015137114682488573 0.004809496568043414)"><path d="M-0.22 -0.13 C-0.22 -0.13, -0.22 -0.13, -0.22 -0.13 M-0.22 -0.13 C-0.22 -0.13, -0.22 -0.13, -0.22 -0.13" stroke="#1e1e1e" stroke-width="2" fill="none"></path></g><g transform="translate(312.4658917832242 326.2896567230097) rotate(0 -0.0015137114682488573 0.004809496568043414)"><path d="M-0.22 -0.13 C-0.22 -0.13, -0.22 -0.13, -0.22 -0.13 M-0.22 -0.13 C-0.22 -0.13, -0.22 -0.13, -0.22 -0.13" stroke="#1e1e1e" stroke-width="2" fill="none"></path></g></g><mask></mask><g stroke-linecap="round" transform="translate(18.537272135416657 475.51449245876734) rotate(0 42.3905029296875 50.384033203125)"><path d="M21.2 0 C30.53 -0.57, 40.37 1.54, 63.59 0 M21.2 0 C33.81 0.63, 45.49 0, 63.59 0 M63.59 0 C77.84 -1.88, 83.21 7.21, 84.78 21.2 M63.59 0 C79.93 0.44, 84.24 6.24, 84.78 21.2 M84.78 21.2 C83.69 42.06, 85.57 63.38, 84.78 79.57 M84.78 21.2 C85.23 41.58, 84.96 60.35, 84.78 79.57 M84.78 79.57 C86.63 95.25, 77.14 101.35, 63.59 100.77 M84.78 79.57 C86.63 91.87, 76.95 100.38, 63.59 100.77 M63.59 100.77 C50.16 98.6, 38.63 99.6, 21.2 100.77 M63.59 100.77 C51.14 102.05, 38.51 100.65, 21.2 100.77 M21.2 100.77 C7.95 99.18, 0.24 92.61, 0 79.57 M21.2 100.77 C7.49 102.38, 2.24 91.47, 0 79.57 M0 79.57 C0.15 65.6, -0.85 51.66, 0 21.2 M0 79.57 C0.16 58.2, 1.27 37.95, 0 21.2 M0 21.2 C-0.91 8.79, 6.96 1.41, 21.2 0 M0 21.2 C1.14 6.4, 5.25 0.81, 21.2 0" stroke="#1e1e1e" stroke-width="2" fill="none"></path></g><g transform="translate(27.011759440104157 514.3985256618923) rotate(0 33.916015625 11.5)"><text x="33.916015625" y="0" font-family="Helvetica, Segoe UI Emoji" font-size="20px" fill="#1e1e1e" text-anchor="middle" style="white-space: pre;" direction="ltr" dominant-baseline="text-before-edge">paper 1</text></g><g stroke-linecap="round" transform="translate(134.39335123697916 478.15462917751734) rotate(0 45.232421875 50.384033203125)"><path d="M22.62 0 C39.1 -1.19, 54.46 -0.74, 67.85 0 M22.62 0 C38.23 1, 54.75 -0.32, 67.85 0 M67.85 0 C82.37 -1.88, 89.52 9.13, 90.46 22.62 M67.85 0 C83.46 -0.09, 88.89 6.84, 90.46 22.62 M90.46 22.62 C90.81 37.72, 89.08 54.97, 90.46 78.15 M90.46 22.62 C90.34 42.77, 90.95 64.35, 90.46 78.15 M90.46 78.15 C88.88 92.12, 83.16 100.12, 67.85 100.77 M90.46 78.15 C92.32 92.68, 83.28 102.04, 67.85 100.77 M67.85 100.77 C52.98 99.43, 37.11 101.5, 22.62 100.77 M67.85 100.77 C51.7 100.22, 35.6 100.44, 22.62 100.77 M22.62 100.77 C7.69 100.89, 1.8 93, 0 78.15 M22.62 100.77 C9.61 98.9, 0.4 93.69, 0 78.15 M0 78.15 C-0.69 55.83, -1.11 38.21, 0 22.62 M0 78.15 C0.73 59.27, 0.5 38.85, 0 22.62 M0 22.62 C-1.47 7.95, 9.1 0, 22.62 0 M0 22.62 C1.49 5.96, 5.34 0.94, 22.62 0" stroke="#1e1e1e" stroke-width="2" fill="none"></path></g><g transform="translate(145.70975748697916 517.0386623806423) rotate(0 33.916015625 11.5)"><text x="33.916015625" y="0" font-family="Helvetica, Segoe UI Emoji" font-size="20px" fill="#1e1e1e" text-anchor="middle" style="white-space: pre;" direction="ltr" dominant-baseline="text-before-edge">paper 2</text></g><g stroke-linecap="round" transform="translate(235.13773600260416 480.42306179470484) rotate(0 45.566650390625 50.384033203125)"><path d="M22.78 0 C38.5 -1.64, 50.48 -2.02, 68.35 0 M22.78 0 C31.98 0.24, 42.47 -0.15, 68.35 0 M68.35 0 C84.15 -0.09, 89.44 7.59, 91.13 22.78 M68.35 0 C84.59 -1.64, 93.33 9.79, 91.13 22.78 M91.13 22.78 C91.03 38.54, 92.67 48.86, 91.13 77.98 M91.13 22.78 C89.81 35.3, 89.87 48.85, 91.13 77.98 M91.13 77.98 C91.32 94.13, 83.38 102, 68.35 100.77 M91.13 77.98 C89.4 95.03, 85.19 100.6, 68.35 100.77 M68.35 100.77 C53.96 102.7, 41.25 99.69, 22.78 100.77 M68.35 100.77 C54.83 100.94, 42.13 101.52, 22.78 100.77 M22.78 100.77 C8.46 100.67, -1.08 93.36, 0 77.98 M22.78 100.77 C8.27 101.67, -1.98 93.83, 0 77.98 M0 77.98 C1.29 65.33, -0.32 51.58, 0 22.78 M0 77.98 C-1.01 60.75, -0.94 41.7, 0 22.78 M0 22.78 C0.83 6.37, 9.26 -1.99, 22.78 0 M0 22.78 C-0.38 8.61, 7.27 -1, 22.78 0" stroke="#1e1e1e" stroke-width="2" fill="none"></path></g><g transform="translate(246.78837076822916 519.3070949978298) rotate(0 33.916015625 11.5)"><text x="33.916015625" y="0" font-family="Helvetica, Segoe UI Emoji" font-size="20px" fill="#1e1e1e" text-anchor="middle" style="white-space: pre;" direction="ltr" dominant-baseline="text-before-edge">paper 3</text></g><g stroke-linecap="round" transform="translate(341.38614908854163 479.70577663845484) rotate(0 46.0682373046875 50.384033203125)"><path d="M23.03 0 C32.21 1.62, 40.92 1.89, 69.1 0 M23.03 0 C41.08 -0.34, 59.85 0.19, 69.1 0 M69.1 0 C84.3 -0.54, 91.19 5.74, 92.14 23.03 M69.1 0 C84.8 1.17, 94.12 5.8, 92.14 23.03 M92.14 23.03 C92.55 34.76, 91.48 49.98, 92.14 77.73 M92.14 23.03 C92.32 34.67, 90.98 47.74, 92.14 77.73 M92.14 77.73 C90.79 94.02, 84.87 100.15, 69.1 100.77 M92.14 77.73 C93.43 92.55, 85.5 99.26, 69.1 100.77 M69.1 100.77 C60.91 98.61, 50.93 101.96, 23.03 100.77 M69.1 100.77 C53.02 101.83, 37.36 100.85, 23.03 100.77 M23.03 100.77 C6.88 99.93, 1.11 93.99, 0 77.73 M23.03 100.77 C8.78 100.82, -1.71 91.3, 0 77.73 M0 77.73 C-1.38 64, -1.18 50.25, 0 23.03 M0 77.73 C0.86 58.94, 0.89 38.09, 0 23.03 M0 23.03 C-0.55 8.75, 8.39 1.43, 23.03 0 M0 23.03 C1.76 9.57, 8.87 -0.63, 23.03 0" stroke="#1e1e1e" stroke-width="2" fill="none"></path></g><g transform="translate(353.53837076822913 518.5898098415798) rotate(0 33.916015625 11.5)"><text x="33.916015625" y="0" font-family="Helvetica, Segoe UI Emoji" font-size="20px" fill="#1e1e1e" text-anchor="middle" style="white-space: pre;" direction="ltr" dominant-baseline="text-before-edge">paper 4</text></g><g stroke-linecap="round" transform="translate(458.84916178385413 478.8382839626736) rotate(0 45.232421875000014 50.384033203125)"><path d="M22.62 0 C41.6 1.87, 58.5 0.05, 67.85 0 M22.62 0 C37.49 0.01, 53.29 -1.03, 67.85 0 M67.85 0 C82.97 1.42, 89.21 7.6, 90.46 22.62 M67.85 0 C84.25 0.92, 91.67 8.25, 90.46 22.62 M90.46 22.62 C91.12 42.72, 89.39 62.83, 90.46 78.15 M90.46 22.62 C89.56 33.86, 89.57 46.82, 90.46 78.15 M90.46 78.15 C89.38 93.79, 84.49 98.97, 67.85 100.77 M90.46 78.15 C92.62 93.75, 80.9 99.5, 67.85 100.77 M67.85 100.77 C55.77 100.58, 45.66 100.44, 22.62 100.77 M67.85 100.77 C56.71 100.9, 46.16 101.34, 22.62 100.77 M22.62 100.77 C8.92 99.81, 1.42 94.59, 0 78.15 M22.62 100.77 C7.58 98.73, 2.16 94.61, 0 78.15 M0 78.15 C-0.13 59.11, 0.52 40.47, 0 22.62 M0 78.15 C-0.39 65.88, 0.15 52.66, 0 22.62 M0 22.62 C-0.14 5.57, 9.5 -1.08, 22.62 0 M0 22.62 C-1.08 7.79, 9.59 0.84, 22.62 0" stroke="#1e1e1e" stroke-width="2" fill="none"></path></g><g transform="translate(470.16556803385413 517.7223171657986) rotate(0 33.916015624999986 11.5)"><text x="33.916015625" y="0" font-family="Helvetica, Segoe UI Emoji" font-size="20px" fill="#1e1e1e" text-anchor="middle" style="white-space: pre;" direction="ltr" dominant-baseline="text-before-edge">paper 5</text></g><g stroke-linecap="round"><g transform="translate(103.78660074869791 448.54476589626734) rotate(0 -11.20037841796875 12.8720703125)"><path d="M0.41 0.5 C-3.35 4.92, -19.5 22.74, -23.16 26.85 M-0.84 -0.28 C-4.16 3.81, -17.35 20.9, -20.85 25.3" stroke="#1e1e1e" stroke-width="2" fill="none"></path></g><g transform="translate(103.78660074869791 448.54476589626734) rotate(0 -11.20037841796875 12.8720703125)"><path d="M-15.57 9.08 C-16.14 12.09, -16.61 18.47, -20.85 25.3 M-15.57 9.08 C-16.67 13.26, -17.66 17.87, -20.85 25.3" stroke="#1e1e1e" stroke-width="2" fill="none"></path></g><g transform="translate(103.78660074869791 448.54476589626734) rotate(0 -11.20037841796875 12.8720703125)"><path d="M-6.37 16.27 C-9.28 17.51, -12.06 22.08, -20.85 25.3 M-6.37 16.27 C-9.81 18.6, -13.1 21.41, -20.85 25.3" stroke="#1e1e1e" stroke-width="2" fill="none"></path></g></g><mask></mask><g stroke-linecap="round"><g transform="translate(146.2897745768229 451.12362331814234) rotate(0 11.3665771484375 11.532867431640625)"><path d="M-0.68 -0.94 C3.13 2.74, 18.43 19.1, 22.52 23.07 M1.16 1.18 C4.83 4.98, 17.7 20.8, 21.47 24.61" stroke="#1e1e1e" stroke-width="2" fill="none"></path></g><g transform="translate(146.2897745768229 451.12362331814234) rotate(0 11.3665771484375 11.532867431640625)"><path d="M7.22 16.91 C9.83 18.78, 14.92 22.71, 21.47 24.61 M7.22 16.91 C11.74 18.84, 15.05 20.64, 21.47 24.61" stroke="#1e1e1e" stroke-width="2" fill="none"></path></g><g transform="translate(146.2897745768229 451.12362331814234) rotate(0 11.3665771484375 11.532867431640625)"><path d="M15.5 9.56 C15.95 13.34, 18.83 19.24, 21.47 24.61 M15.5 9.56 C17.62 13.57, 18.58 17.46, 21.47 24.61" stroke="#1e1e1e" stroke-width="2" fill="none"></path></g></g><mask></mask><g stroke-linecap="round"><g transform="translate(189.46259326406937 450.1407741970486) rotate(0 24.714977288192884 14.641143798828118)"><path d="M0.94 1.15 C9.17 6.02, 40.96 24.79, 48.91 29.63 M-0.02 0.72 C8.04 5.16, 39.17 23.09, 47.68 27.7" stroke="#1e1e1e" stroke-width="2" fill="none"></path></g><g transform="translate(189.46259326406937 450.1407741970486) rotate(0 24.714977288192884 14.641143798828118)"><path d="M23.01 23.68 C31.4 23.67, 36.52 24.21, 47.68 27.7 M23.01 23.68 C31.77 25.47, 41.25 26.48, 47.68 27.7" stroke="#1e1e1e" stroke-width="2" fill="none"></path></g><g transform="translate(189.46259326406937 450.1407741970486) rotate(0 24.714977288192884 14.641143798828118)"><path d="M31.36 8.76 C37.63 12.71, 40.56 17.16, 47.68 27.7 M31.36 8.76 C37.12 16.19, 43.47 22.8, 47.68 27.7" stroke="#1e1e1e" stroke-width="2" fill="none"></path></g></g><mask></mask><g stroke-linecap="round"><g transform="translate(244.26554361979166 443.6451687282986) rotate(0 52.54290771484375 21.065399169921875)"><path d="M-1.13 -0.45 C16.29 6.48, 87.52 34.96, 105.31 42.12 M0.47 -1.74 C17.69 5.35, 87.04 36.64, 104.49 43.66" stroke="#1e1e1e" stroke-width="2" fill="none"></path></g><g transform="translate(244.26554361979166 443.6451687282986) rotate(0 52.54290771484375 21.065399169921875)"><path d="M79.53 42.24 C87.86 43.37, 97.7 44.45, 104.49 43.66 M79.53 42.24 C87.24 42.53, 96.01 43.29, 104.49 43.66" stroke="#1e1e1e" stroke-width="2" fill="none"></path></g><g transform="translate(244.26554361979166 443.6451687282986) rotate(0 52.54290771484375 21.065399169921875)"><path d="M86.28 26.53 C92.22 33.32, 99.6 40.11, 104.49 43.66 M86.28 26.53 C91.86 32.04, 98.4 38.02, 104.49 43.66" stroke="#1e1e1e" stroke-width="2" fill="none"></path></g></g><mask></mask><g stroke-linecap="round"><g transform="translate(255.75126139322916 420.30416531032984) rotate(0 100.88665771484374 33.291534423828125)"><path d="M-0.81 0.82 C32.95 12.04, 167.69 55.42, 201.61 66.2 M0.96 0.21 C34.64 11.7, 167 56.53, 200.57 67.53" stroke="#1e1e1e" stroke-width="2" fill="none"></path></g><g transform="translate(255.75126139322916 420.30416531032984) rotate(0 100.88665771484374 33.291534423828125)"><path d="M175.58 68.2 C182.44 67.94, 185.91 69.58, 200.57 67.53 M175.58 68.2 C179.87 67.98, 185.91 67.21, 200.57 67.53" stroke="#1e1e1e" stroke-width="2" fill="none"></path></g><g transform="translate(255.75126139322916 420.30416531032984) rotate(0 100.88665771484374 33.291534423828125)"><path d="M181 51.98 C186.52 55.25, 188.8 60.44, 200.57 67.53 M181 51.98 C184.28 55.19, 189.2 57.79, 200.57 67.53" stroke="#1e1e1e" stroke-width="2" fill="none"></path></g></g><mask></mask><g stroke-linecap="round"><g transform="translate(304.29427503169734 285.9436351369368) rotate(0 12.387709289995534 18.691705527730505)"><path d="M0 -0.07 C3.82 6.07, 20.06 30.77, 24.12 36.91 M-1.46 -1.15 C2.66 5.14, 22.36 31.71, 26.48 38.2" stroke="#1e1e1e" stroke-width="2" fill="none"></path></g><g transform="translate(304.29427503169734 285.9436351369368) rotate(0 12.387709289995534 18.691705527730505)"><path d="M8.15 25.28 C15.37 29.34, 22.01 34.83, 26.48 38.2 M8.15 25.28 C12.65 29.12, 17.83 32.09, 26.48 38.2" stroke="#1e1e1e" stroke-width="2" fill="none"></path></g><g transform="translate(304.29427503169734 285.9436351369368) rotate(0 12.387709289995534 18.691705527730505)"><path d="M20.74 16.52 C22.94 24.08, 24.56 33.06, 26.48 38.2 M20.74 16.52 C22.16 22.54, 24.21 27.69, 26.48 38.2" stroke="#1e1e1e" stroke-width="2" fill="none"></path></g></g><mask></mask><g stroke-linecap="round"><g transform="translate(491.72826268093354 280.92478127594734) rotate(0 4.795796214911434 12.772155475150448)"><path d="M0.07 0.16 C1.56 4.42, 7.55 21.41, 9.13 25.58 M-0.56 -0.24 C1.08 4.12, 8.51 21.99, 10.12 26.3" stroke="#1e1e1e" stroke-width="2" fill="none"></path></g><g transform="translate(491.72826268093354 280.92478127594734) rotate(0 4.795796214911434 12.772155475150448)"><path d="M1.05 16.11 C4.31 18.97, 7.23 22.89, 10.12 26.3 M1.05 16.11 C3.56 18.32, 5.6 20.73, 10.12 26.3" stroke="#1e1e1e" stroke-width="2" fill="none"></path></g><g transform="translate(491.72826268093354 280.92478127594734) rotate(0 4.795796214911434 12.772155475150448)"><path d="M9.72 12.66 C10.05 16.7, 10.03 21.78, 10.12 26.3 M9.72 12.66 C10.19 15.68, 10.17 18.91, 10.12 26.3" stroke="#1e1e1e" stroke-width="2" fill="none"></path></g></g><mask></mask><g stroke-linecap="round"><g transform="translate(432.4288054392041 282.03463572190645) rotate(0 -1.6435697563276364 9.963870572393809)"><path d="M-0.51 -0.21 C-0.99 3.26, -2.87 17.03, -3.4 20.44 M0.23 -0.79 C-0.29 2.56, -3.41 16.39, -3.89 19.73" stroke="#1e1e1e" stroke-width="2" fill="none"></path></g><g transform="translate(432.4288054392041 282.03463572190645) rotate(0 -1.6435697563276364 9.963870572393809)"><path d="M-5.51 9.77 C-5.39 11.79, -4.39 13.61, -3.89 19.73 M-5.51 9.77 C-5.07 13.18, -4.56 16.86, -3.89 19.73" stroke="#1e1e1e" stroke-width="2" fill="none"></path></g><g transform="translate(432.4288054392041 282.03463572190645) rotate(0 -1.6435697563276364 9.963870572393809)"><path d="M1.27 11.05 C-0.05 12.77, -0.48 14.32, -3.89 19.73 M1.27 11.05 C-0.67 14.03, -2.55 17.27, -3.89 19.73" stroke="#1e1e1e" stroke-width="2" fill="none"></path></g></g><mask></mask><g stroke-linecap="round"><g transform="translate(71.71547057374252 279.66188859064636) rotate(0 -1.6435697563276364 9.963870572393809)"><path d="M-0.26 0.39 C-0.83 3.72, -2.95 16.23, -3.46 19.45 M0.61 0.11 C-0.05 3.54, -3.27 16.55, -3.97 19.9" stroke="#1e1e1e" stroke-width="2" fill="none"></path></g><g transform="translate(71.71547057374252 279.66188859064636) rotate(0 -1.6435697563276364 9.963870572393809)"><path d="M-5.21 9.88 C-4.53 12.71, -4.96 15.86, -3.97 19.9 M-5.21 9.88 C-4.91 12.67, -4.61 15.12, -3.97 19.9" stroke="#1e1e1e" stroke-width="2" fill="none"></path></g><g transform="translate(71.71547057374252 279.66188859064636) rotate(0 -1.6435697563276364 9.963870572393809)"><path d="M1.52 11.43 C0.2 13.78, -2.23 16.47, -3.97 19.9 M1.52 11.43 C0.06 13.85, -1.4 15.89, -3.97 19.9" stroke="#1e1e1e" stroke-width="2" fill="none"></path></g></g><mask></mask><g stroke-linecap="round"><g transform="translate(102.2754074984997 280.37078966870484) rotate(0 3.9599875669079694 11.007595199542813)"><path d="M-0.48 0.25 C0.82 3.96, 6.36 18.85, 7.85 22.52 M0.27 -0.09 C1.49 3.45, 6.03 18.23, 7.38 21.82" stroke="#1e1e1e" stroke-width="2" fill="none"></path></g><g transform="translate(102.2754074984997 280.37078966870484) rotate(0 3.9599875669079694 11.007595199542813)"><path d="M0.08 12.68 C2.61 15.43, 5.12 18.86, 7.38 21.82 M0.08 12.68 C2.93 15.74, 5.5 19.1, 7.38 21.82" stroke="#1e1e1e" stroke-width="2" fill="none"></path></g><g transform="translate(102.2754074984997 280.37078966870484) rotate(0 3.9599875669079694 11.007595199542813)"><path d="M7.67 10.12 C7.87 13.63, 8.06 17.84, 7.38 21.82 M7.67 10.12 C7.82 14.06, 7.71 18.33, 7.38 21.82" stroke="#1e1e1e" stroke-width="2" fill="none"></path></g></g><mask></mask></svg>