<svg version="1.1" xmlns="http://www.w3.org/2000/svg" viewBox="0 0 484.3342590332031 545.8350982666016" width="484.3342590332031" height="545.8350982666016" class="excalidraw-svg">
  <!-- svg-source:excalidraw -->
  
  <defs>
    <style class="style-fonts">
      @font-face {
        font-family: "Virgil";
        src: url("https://excalidraw.com/Virgil.woff2");
      }
      @font-face {
        font-family: "Cascadia";
        src: url("https://excalidraw.com/Cascadia.woff2");
      }
      @font-face {
        font-family: "Assistant";
        src: url("https://excalidraw.com/Assistant-Regular.woff2");
      }
    </style>
    
  </defs>
  <rect x="0" y="0" width="484.3342590332031" height="545.8350982666016" fill="#ffffff"></rect><g stroke-linecap="round" transform="translate(10 10) rotate(0 101.641845703125 46.40223693847656)"><path d="M23.2 0 C67.5 -0.27, 108.85 -0.95, 180.08 0 M23.2 0 C68.35 -0.15, 112.08 -1.15, 180.08 0 M180.08 0 C194.54 1.54, 204.63 6.55, 203.28 23.2 M180.08 0 C196.1 -2.04, 205.01 6.88, 203.28 23.2 M203.28 23.2 C202.07 34.83, 203.41 45.88, 203.28 69.6 M203.28 23.2 C202.67 37.7, 204.21 51.68, 203.28 69.6 M203.28 69.6 C203.13 83.5, 194.18 93.88, 180.08 92.8 M203.28 69.6 C205.17 83.29, 195.66 91.16, 180.08 92.8 M180.08 92.8 C140.53 94.26, 98.44 93.69, 23.2 92.8 M180.08 92.8 C137.76 91.48, 96.69 92.13, 23.2 92.8 M23.2 92.8 C9.17 94.7, 1.94 86.55, 0 69.6 M23.2 92.8 C5.99 93.83, 0.74 85.55, 0 69.6 M0 69.6 C-0.24 54.05, 0.85 36.57, 0 23.2 M0 69.6 C0.26 56.15, -1.27 42.27, 0 23.2 M0 23.2 C-0.64 9.54, 8.39 1.73, 23.2 0 M0 23.2 C1.06 8.11, 8.13 2.22, 23.2 0" stroke="#1e1e1e" stroke-width="2" fill="none"></path></g><g transform="translate(76.627197265625 44.90223693847656) rotate(0 35.0146484375 11.5)"><text x="35.0146484375" y="0" font-family="Helvetica, Segoe UI Emoji" font-size="20px" fill="#1e1e1e" text-anchor="middle" style="white-space: pre;" direction="ltr" dominant-baseline="text-before-edge">projects</text></g><g stroke-linecap="round" transform="translate(223.06320190429688 10.485458374023438) rotate(0 112.68814086914062 46.40223693847656)"><path d="M23.2 0 C75.9 0.79, 125.69 -0.71, 202.18 0 M23.2 0 C70.1 -0.41, 118.19 -0.14, 202.18 0 M202.18 0 C216.91 1.49, 224.29 6.55, 225.38 23.2 M202.18 0 C217.05 -1.62, 224.11 7.77, 225.38 23.2 M225.38 23.2 C226.19 35.06, 224.38 49.27, 225.38 69.6 M225.38 23.2 C225.62 37.28, 224.6 54.08, 225.38 69.6 M225.38 69.6 C223.48 85.22, 219.58 92.72, 202.18 92.8 M225.38 69.6 C225.08 83.5, 218.26 91.69, 202.18 92.8 M202.18 92.8 C162.56 91.94, 122.1 89.68, 23.2 92.8 M202.18 92.8 C151.26 93.36, 98.81 94.53, 23.2 92.8 M23.2 92.8 C7.45 91.77, 1.56 85.77, 0 69.6 M23.2 92.8 C9.8 92.1, 0.89 86.27, 0 69.6 M0 69.6 C1.01 52.56, 1.1 40.56, 0 23.2 M0 69.6 C0.34 58.12, 0.12 47.54, 0 23.2 M0 23.2 C-1.44 6.17, 6.75 0.51, 23.2 0 M0 23.2 C0.45 8.08, 6.17 -1.33, 23.2 0" stroke="#1e1e1e" stroke-width="2" fill="none"></path></g><g transform="translate(306.8548583984375 45.3876953125) rotate(0 28.896484375 11.5)"><text x="28.896484375" y="0" font-family="Helvetica, Segoe UI Emoji" font-size="20px" fill="#1e1e1e" text-anchor="middle" style="white-space: pre;" direction="ltr" dominant-baseline="text-before-edge">writing</text></g><g stroke-linecap="round" transform="translate(227.75784301757812 133.5821075439453) rotate(0 53.073272705078125 46.40223693847656)"><path d="M23.2 0 C36.26 1.37, 52.59 -0.3, 82.95 0 M23.2 0 C41.65 0.29, 60.14 0.17, 82.95 0 M82.95 0 C99.85 0.59, 104.95 6.84, 106.15 23.2 M82.95 0 C100.1 -1.56, 106.39 8.46, 106.15 23.2 M106.15 23.2 C105.95 34.8, 107.59 50.68, 106.15 69.6 M106.15 23.2 C104.92 34.76, 106.42 44.9, 106.15 69.6 M106.15 69.6 C106.07 85.57, 97.15 92.72, 82.95 92.8 M106.15 69.6 C106.01 83.05, 99.7 94.23, 82.95 92.8 M82.95 92.8 C58.92 94.31, 39.23 94.51, 23.2 92.8 M82.95 92.8 C69.36 93.19, 54.6 93.4, 23.2 92.8 M23.2 92.8 C9.31 92.02, -0.45 84.37, 0 69.6 M23.2 92.8 C8.73 94.28, -2.2 84.55, 0 69.6 M0 69.6 C0.86 56.71, 0.98 42.09, 0 23.2 M0 69.6 C-0.5 54.21, -0.18 39.61, 0 23.2 M0 23.2 C0.32 8.56, 9.22 -0.63, 23.2 0 M0 23.2 C0.32 6.22, 7.48 2.28, 23.2 0" stroke="#1e1e1e" stroke-width="2" fill="none"></path></g><g transform="translate(236.36822509765625 168.48434448242188) rotate(0 44.462890625 11.5)"><text x="44.462890625" y="0" font-family="Helvetica, Segoe UI Emoji" font-size="20px" fill="#1e1e1e" text-anchor="middle" style="white-space: pre;" direction="ltr" dominant-baseline="text-before-edge">for money</text></g><g stroke-linecap="round" transform="translate(343.4826965332031 134.59901428222656) rotate(0 53.537261962890625 46.40223693847656)"><path d="M23.2 0 C35.21 -1.85, 50.94 -2.46, 83.87 0 M23.2 0 C35.72 0.49, 49.37 0.15, 83.87 0 M83.87 0 C100.01 1.37, 108.31 7.52, 107.07 23.2 M83.87 0 C100.97 0.47, 107.57 8.12, 107.07 23.2 M107.07 23.2 C107.12 38.5, 105.87 56.52, 107.07 69.6 M107.07 23.2 C106.73 35.27, 107.77 46.41, 107.07 69.6 M107.07 69.6 C107.71 83.89, 100.7 93.58, 83.87 92.8 M107.07 69.6 C106.91 83.96, 101.21 92.59, 83.87 92.8 M83.87 92.8 C67.31 95.3, 50.83 92.61, 23.2 92.8 M83.87 92.8 C70.52 92.76, 57.86 92.82, 23.2 92.8 M23.2 92.8 C8.61 93.07, -1.16 86.33, 0 69.6 M23.2 92.8 C8.3 90.54, 1.57 82.94, 0 69.6 M0 69.6 C-0.34 56.97, 0.41 46.16, 0 23.2 M0 69.6 C-0.64 56.31, -0.19 44.63, 0 23.2 M0 23.2 C-1.24 8.42, 6.36 1.01, 23.2 0 M0 23.2 C1.29 8.55, 7.2 1.08, 23.2 0" stroke="#1e1e1e" stroke-width="2" fill="none"></path></g><g transform="translate(365.34027099609375 169.50125122070312) rotate(0 31.6796875 11.5)"><text x="31.6796875" y="0" font-family="Helvetica, Segoe UI Emoji" font-size="20px" fill="#1e1e1e" text-anchor="middle" style="white-space: pre;" direction="ltr" dominant-baseline="text-before-edge">for free</text></g><g stroke-linecap="round" transform="translate(14.037628173828125 134.28053283691406) rotate(0 46.31808471679686 46.40223693847656)"><path d="M23.16 0 C43.08 0.34, 59.45 -0.1, 69.48 0 M23.16 0 C32.76 1.26, 43.7 0.01, 69.48 0 M69.48 0 C85.9 -1.01, 93.67 9.69, 92.64 23.16 M69.48 0 C85.16 1.68, 93.85 7.51, 92.64 23.16 M92.64 23.16 C91.92 34.73, 92.46 44.55, 92.64 69.65 M92.64 23.16 C92.21 40.64, 93.27 56.82, 92.64 69.65 M92.64 69.65 C91.52 83.37, 84.25 93.38, 69.48 92.8 M92.64 69.65 C90.54 83.85, 83.2 94.77, 69.48 92.8 M69.48 92.8 C52.64 92.97, 38.68 91.39, 23.16 92.8 M69.48 92.8 C57.69 93.59, 46.93 93.53, 23.16 92.8 M23.16 92.8 C6.3 92.21, -0.01 84.65, 0 69.65 M23.16 92.8 C6.45 93.18, -0.84 84.9, 0 69.65 M0 69.65 C0.95 58.12, -1.87 43.42, 0 23.16 M0 69.65 C0.03 55.92, -0.46 41.01, 0 23.16 M0 23.16 C0.08 8.28, 7.01 -1.55, 23.16 0 M0 23.16 C1.99 7.45, 8.25 0.2, 23.16 0" stroke="#1e1e1e" stroke-width="2" fill="none"></path></g><g transform="translate(29.232666015625 169.18276977539062) rotate(0 31.123046875 11.5)"><text x="31.123046875" y="0" font-family="Helvetica, Segoe UI Emoji" font-size="20px" fill="#1e1e1e" text-anchor="middle" style="white-space: pre;" direction="ltr" dominant-baseline="text-before-edge">current</text></g><g stroke-linecap="round" transform="translate(116.36776733398438 133.02687072753906) rotate(0 48.187835693359375 46.40223693847656)"><path d="M23.2 0 C38.62 1.23, 55.46 1.32, 73.17 0 M23.2 0 C34.4 0.33, 45 -0.64, 73.17 0 M73.17 0 C87.89 -1.23, 98 7.47, 96.38 23.2 M73.17 0 C88.77 2.23, 94.66 7.81, 96.38 23.2 M96.38 23.2 C94.86 35.71, 96.86 51.1, 96.38 69.6 M96.38 23.2 C96.7 40.35, 96 58.25, 96.38 69.6 M96.38 69.6 C96.93 84.76, 87.36 93.47, 73.17 92.8 M96.38 69.6 C98.29 83.76, 88.7 93.66, 73.17 92.8 M73.17 92.8 C57.1 93.78, 40.19 92.41, 23.2 92.8 M73.17 92.8 C58.54 93.73, 42.12 92.31, 23.2 92.8 M23.2 92.8 C6.43 92.07, 0.67 85.01, 0 69.6 M23.2 92.8 C8.56 90.59, 0.69 84.7, 0 69.6 M0 69.6 C0.72 55.92, 1.59 47.71, 0 23.2 M0 69.6 C0.05 56.42, 0.18 42.08, 0 23.2 M0 23.2 C1.16 6.81, 7.25 0.22, 23.2 0 M0 23.2 C0.69 8.42, 9.5 1.68, 23.2 0" stroke="#1e1e1e" stroke-width="2" fill="none"></path></g><g transform="translate(145.65423583984375 167.92910766601562) rotate(0 18.9013671875 11.5)"><text x="18.9013671875" y="0" font-family="Helvetica, Segoe UI Emoji" font-size="20px" fill="#1e1e1e" text-anchor="middle" style="white-space: pre;" direction="ltr" dominant-baseline="text-before-edge">past</text></g><g stroke-linecap="round" transform="translate(13.789520263671875 308.7158660888672) rotate(0 53.07327270507812 46.40223693847656)"><path d="M23.2 0 C35.7 -0.85, 51.37 0.03, 82.95 0 M23.2 0 C35.97 -0.59, 50.01 -1.06, 82.95 0 M82.95 0 C99.72 0.93, 107.34 7.75, 106.15 23.2 M82.95 0 C97.7 -2, 107.79 8.44, 106.15 23.2 M106.15 23.2 C106.96 39.37, 107.23 52.31, 106.15 69.6 M106.15 23.2 C106.75 40.68, 106.19 59.34, 106.15 69.6 M106.15 69.6 C106.86 83.54, 99.19 91.33, 82.95 92.8 M106.15 69.6 C105.08 83.34, 98.43 91.74, 82.95 92.8 M82.95 92.8 C64.66 93.43, 45.01 92.9, 23.2 92.8 M82.95 92.8 C65.2 91.89, 48.45 92.57, 23.2 92.8 M23.2 92.8 C7.81 91.45, 0.11 84.7, 0 69.6 M23.2 92.8 C6.48 94.55, -0.01 85.69, 0 69.6 M0 69.6 C-1.12 57.26, -0.28 43.72, 0 23.2 M0 69.6 C0.18 54.94, -0.04 39.86, 0 23.2 M0 23.2 C0.16 9.53, 8.2 0.74, 23.2 0 M0 23.2 C-0.63 6.68, 7.71 0.4, 23.2 0" stroke="#1e1e1e" stroke-width="2" fill="none"></path></g><g transform="translate(35.73974609375 343.61810302734375) rotate(0 31.123046875 11.5)"><text x="31.123046875" y="0" font-family="Helvetica, Segoe UI Emoji" font-size="20px" fill="#1e1e1e" text-anchor="middle" style="white-space: pre;" direction="ltr" dominant-baseline="text-before-edge">current</text></g><g stroke-linecap="round" transform="translate(131.90591430664062 310.26014709472656) rotate(0 53.537261962890625 46.40223693847656)"><path d="M23.2 0 C42.1 0.74, 62.21 0.89, 83.87 0 M23.2 0 C36.3 0.1, 50.08 0.27, 83.87 0 M83.87 0 C100.33 0.61, 106.38 6.56, 107.07 23.2 M83.87 0 C101.52 -0.13, 107.51 9.91, 107.07 23.2 M107.07 23.2 C108.59 36.9, 107.12 46.95, 107.07 69.6 M107.07 23.2 C107.52 40.25, 107.43 57.78, 107.07 69.6 M107.07 69.6 C108.24 86.5, 98.43 90.88, 83.87 92.8 M107.07 69.6 C105.42 85.88, 97.71 91.29, 83.87 92.8 M83.87 92.8 C64.23 93.04, 48.04 90.99, 23.2 92.8 M83.87 92.8 C62.22 92.52, 39.64 91.92, 23.2 92.8 M23.2 92.8 C7.98 94.71, 0.01 84.8, 0 69.6 M23.2 92.8 C8.57 94.43, 1.15 84.36, 0 69.6 M0 69.6 C-1.72 51.97, 1.49 30.72, 0 23.2 M0 69.6 C0.04 52.37, -0.07 37.13, 0 23.2 M0 23.2 C0.49 6.36, 9.09 0.95, 23.2 0 M0 23.2 C-0.63 8.93, 9.14 -2.22, 23.2 0" stroke="#1e1e1e" stroke-width="2" fill="none"></path></g><g transform="translate(166.54180908203125 345.1623840332031) rotate(0 18.9013671875 11.5)"><text x="18.9013671875" y="0" font-family="Helvetica, Segoe UI Emoji" font-size="20px" fill="#1e1e1e" text-anchor="middle" style="white-space: pre;" direction="ltr" dominant-baseline="text-before-edge">past</text></g><g stroke-linecap="round"><g transform="translate(101.1739501953125 103.9593505859375) rotate(0 -11.755272559278914 14.660591125488281)"><path d="M0.57 0.76 C-3.21 5.83, -19.73 25.07, -23.76 29.83 M-0.59 0.11 C-4.46 4.87, -20.87 22.89, -24.84 27.98" stroke="#1e1e1e" stroke-width="2" fill="none"></path></g><g transform="translate(101.1739501953125 103.9593505859375) rotate(0 -11.755272559278914 14.660591125488281)"><path d="M-18.3 10.36 C-18.58 13.73, -20.35 17.69, -24.84 27.98 M-18.3 10.36 C-20.3 16.06, -22.9 20.55, -24.84 27.98" stroke="#1e1e1e" stroke-width="2" fill="none"></path></g><g transform="translate(101.1739501953125 103.9593505859375) rotate(0 -11.755272559278914 14.660591125488281)"><path d="M-8.51 18.69 C-10.82 20.34, -14.66 22.53, -24.84 27.98 M-8.51 18.69 C-13.37 21.99, -18.91 23.97, -24.84 27.98" stroke="#1e1e1e" stroke-width="2" fill="none"></path></g></g><mask></mask><g stroke-linecap="round"><g transform="translate(127.50994873046878 104.4776611328125) rotate(0 12.38633202866183 13.774604797363253)"><path d="M-0.61 -1.01 C3.61 3.35, 21.04 22.19, 25.28 27.02 M1.27 1.07 C5.39 5.51, 20.8 24.15, 24.6 28.28" stroke="#1e1e1e" stroke-width="2" fill="none"></path></g><g transform="translate(127.50994873046878 104.4776611328125) rotate(0 12.38633202866183 13.774604797363253)"><path d="M8.42 19.27 C11.67 22.79, 17.18 24.75, 24.6 28.28 M8.42 19.27 C13.58 22.04, 19.93 25.63, 24.6 28.28" stroke="#1e1e1e" stroke-width="2" fill="none"></path></g><g transform="translate(127.50994873046878 104.4776611328125) rotate(0 12.38633202866183 13.774604797363253)"><path d="M18 10.97 C18.5 16.88, 21.18 21.28, 24.6 28.28 M18 10.97 C19.99 16.45, 23.12 22.82, 24.6 28.28" stroke="#1e1e1e" stroke-width="2" fill="none"></path></g></g><mask></mask><g stroke-linecap="round"><g transform="translate(309.718017578125 101.17251586914062) rotate(0 -9.62957763671875 16.506103515625)"><path d="M-0.47 -1.06 C-3.51 4.39, -16.09 27.5, -19.02 33.21 M1.48 1 C-1.63 6.01, -16.56 25.59, -19.84 31.19" stroke="#1e1e1e" stroke-width="2" fill="none"></path></g><g transform="translate(309.718017578125 101.17251586914062) rotate(0 -9.62957763671875 16.506103515625)"><path d="M-15.15 12.66 C-17.85 17.37, -16.95 23.23, -19.84 31.19 M-15.15 12.66 C-16.17 18.72, -18.49 24.58, -19.84 31.19" stroke="#1e1e1e" stroke-width="2" fill="none"></path></g><g transform="translate(309.718017578125 101.17251586914062) rotate(0 -9.62957763671875 16.506103515625)"><path d="M-4.34 20.01 C-9.6 22.95, -11.24 27.09, -19.84 31.19 M-4.34 20.01 C-8.68 23.69, -14.38 27.25, -19.84 31.19" stroke="#1e1e1e" stroke-width="2" fill="none"></path></g></g><mask></mask><g stroke-linecap="round"><g transform="translate(354.7153464867501 104.28993225097656) rotate(0 11.470329686312454 13.392723083496094)"><path d="M0.71 -1.2 C4.63 3.19, 19.69 22.02, 23.31 26.58 M-0.37 0.79 C3.43 5.33, 18.92 23.61, 22.56 28" stroke="#1e1e1e" stroke-width="2" fill="none"></path></g><g transform="translate(354.7153464867501 104.28993225097656) rotate(0 11.470329686312454 13.392723083496094)"><path d="M7.29 19.19 C9.92 22.17, 15.74 23.46, 22.56 28 M7.29 19.19 C11.25 20.9, 15.53 24.21, 22.56 28" stroke="#1e1e1e" stroke-width="2" fill="none"></path></g><g transform="translate(354.7153464867501 104.28993225097656) rotate(0 11.470329686312454 13.392723083496094)"><path d="M16.53 11.44 C16.53 16.69, 19.71 20.2, 22.56 28 M16.53 11.44 C18.24 14.99, 20.23 20.23, 22.56 28" stroke="#1e1e1e" stroke-width="2" fill="none"></path></g></g><mask></mask><g stroke-linecap="round"><g transform="translate(57.5091552734375 230.233642578125) rotate(0 -14.96923828125 11.4349365234375)"><path d="M0.39 -1.15 C-4.66 2.92, -25.61 20.02, -30.73 24.07 M-0.86 0.86 C-5.5 4.66, -23.36 18.62, -28.43 22.57" stroke="#1e1e1e" stroke-width="2" fill="none"></path></g><g transform="translate(57.5091552734375 230.233642578125) rotate(0 -14.96923828125 11.4349365234375)"><path d="M-18.45 6.6 C-22.96 9.65, -21.93 14.55, -28.43 22.57 M-18.45 6.6 C-22.24 10.94, -24.59 16.61, -28.43 22.57" stroke="#1e1e1e" stroke-width="2" fill="none"></path></g><g transform="translate(57.5091552734375 230.233642578125) rotate(0 -14.96923828125 11.4349365234375)"><path d="M-10.52 16.75 C-17.11 17.12, -18.2 19.32, -28.43 22.57 M-10.52 16.75 C-16.9 17.86, -21.79 20.27, -28.43 22.57" stroke="#1e1e1e" stroke-width="2" fill="none"></path></g></g><mask></mask><g stroke-linecap="round"><g transform="translate(67.63385009765625 229.77789306640622) rotate(0 -0.4683837890625 14.993850708007827)"><path d="M0.22 -0.11 C0.09 4.96, -0.79 25.44, -0.89 30.46 M-0.33 -0.64 C-0.53 4.28, -1.28 24.53, -1.3 29.73" stroke="#1e1e1e" stroke-width="2" fill="none"></path></g><g transform="translate(67.63385009765625 229.77789306640622) rotate(0 -0.4683837890625 14.993850708007827)"><path d="M-6.1 15.52 C-4.88 19.62, -2.72 24.33, -1.3 29.73 M-6.1 15.52 C-4.56 19.77, -3.2 24.37, -1.3 29.73" stroke="#1e1e1e" stroke-width="2" fill="none"></path></g><g transform="translate(67.63385009765625 229.77789306640622) rotate(0 -0.4683837890625 14.993850708007827)"><path d="M4.16 15.76 C2.45 19.82, 1.69 24.46, -1.3 29.73 M4.16 15.76 C2.6 19.91, 0.86 24.44, -1.3 29.73" stroke="#1e1e1e" stroke-width="2" fill="none"></path></g></g><mask></mask><g stroke-linecap="round"><g transform="translate(74.2869873046875 229.21734619140625) rotate(0 11.082550048828125 9.1077880859375)"><path d="M-1.08 0.51 C2.36 3.54, 17.14 15.55, 21.19 18.38 M0.55 -0.27 C4.31 2.97, 19.64 16.89, 23.39 20" stroke="#1e1e1e" stroke-width="2" fill="none"></path></g><g transform="translate(74.2869873046875 229.21734619140625) rotate(0 11.082550048828125 9.1077880859375)"><path d="M10.01 14.82 C15.23 15.55, 19.42 19.77, 23.39 20 M10.01 14.82 C13.87 16.77, 15.99 16.61, 23.39 20" stroke="#1e1e1e" stroke-width="2" fill="none"></path></g><g transform="translate(74.2869873046875 229.21734619140625) rotate(0 11.082550048828125 9.1077880859375)"><path d="M16.47 7.43 C19.47 10.65, 21.44 17.41, 23.39 20 M16.47 7.43 C18.81 11.11, 19.4 12.69, 23.39 20" stroke="#1e1e1e" stroke-width="2" fill="none"></path></g></g><mask></mask><g stroke-linecap="round"><g transform="translate(150.31695556640625 228.6112060546875) rotate(0 -3.012298583984375 11.477737426757812)"><path d="M-0.24 -0.05 C-1.27 3.66, -5.38 18.68, -6.37 22.49 M0.63 -0.54 C-0.21 3.19, -4.11 18.97, -5.31 22.95" stroke="#1e1e1e" stroke-width="2" fill="none"></path></g><g transform="translate(150.31695556640625 228.6112060546875) rotate(0 -3.012298583984375 11.477737426757812)"><path d="M-6.32 11.13 C-6.07 13.92, -6.25 17.29, -5.31 22.95 M-6.32 11.13 C-5.96 14.13, -5.57 17.57, -5.31 22.95" stroke="#1e1e1e" stroke-width="2" fill="none"></path></g><g transform="translate(150.31695556640625 228.6112060546875) rotate(0 -3.012298583984375 11.477737426757812)"><path d="M1.52 13.25 C-0.33 15.45, -2.61 18.26, -5.31 22.95 M1.52 13.25 C-0.27 15.68, -2.02 18.55, -5.31 22.95" stroke="#1e1e1e" stroke-width="2" fill="none"></path></g></g><mask></mask><g stroke-linecap="round"><g transform="translate(173.7683242024817 226.8313446044922) rotate(0 1.0640495686810247 11.647438049316406)"><path d="M0.54 0.53 C1.04 4.38, 2.31 19.53, 2.51 23.33 M0.16 0.32 C0.66 4.26, 1.82 20.12, 2.27 24.05" stroke="#1e1e1e" stroke-width="2" fill="none"></path></g><g transform="translate(173.7683242024817 226.8313446044922) rotate(0 1.0640495686810247 11.647438049316406)"><path d="M-2.72 13.47 C-1.06 16.12, -0.52 17.58, 2.27 24.05 M-2.72 13.47 C-1.4 16.45, 0.16 19.89, 2.27 24.05" stroke="#1e1e1e" stroke-width="2" fill="none"></path></g><g transform="translate(173.7683242024817 226.8313446044922) rotate(0 1.0640495686810247 11.647438049316406)"><path d="M5.25 12.74 C5.2 15.59, 4.03 17.21, 2.27 24.05 M5.25 12.74 C4.15 15.98, 3.3 19.64, 2.27 24.05" stroke="#1e1e1e" stroke-width="2" fill="none"></path></g></g><mask></mask><g stroke-linecap="round" transform="translate(367.2597351074219 307.19700622558594) rotate(0 53.537261962890625 46.40223693847656)"><path d="M23.2 0 C42.92 -2.39, 61.6 0.95, 83.87 0 M23.2 0 C40.01 -0.82, 55.83 -0.73, 83.87 0 M83.87 0 C97.45 -0.96, 107.77 8.82, 107.07 23.2 M83.87 0 C99.43 -0.63, 107.6 7.23, 107.07 23.2 M107.07 23.2 C106.32 40.72, 106.75 55.82, 107.07 69.6 M107.07 23.2 C106.5 35.52, 107.41 45.46, 107.07 69.6 M107.07 69.6 C107.48 85.51, 97.53 93.31, 83.87 92.8 M107.07 69.6 C106.96 85.98, 101.46 94.24, 83.87 92.8 M83.87 92.8 C63.98 90.55, 44.39 91.21, 23.2 92.8 M83.87 92.8 C70.69 91.96, 56.84 92.95, 23.2 92.8 M23.2 92.8 C6.35 92.52, -0.56 84.87, 0 69.6 M23.2 92.8 C9.68 91.09, -2.26 82.88, 0 69.6 M0 69.6 C1.93 50.86, 0.96 33.49, 0 23.2 M0 69.6 C0.5 50.23, 0.57 33.05, 0 23.2 M0 23.2 C-1.48 7.28, 5.75 -0.52, 23.2 0 M0 23.2 C1.8 7.99, 5.93 -2.27, 23.2 0" stroke="#1e1e1e" stroke-width="2" fill="none"></path></g><g transform="translate(401.8956298828125 342.0992431640625) rotate(0 18.9013671875 11.5)"><text x="18.9013671875" y="0" font-family="Helvetica, Segoe UI Emoji" font-size="20px" fill="#1e1e1e" text-anchor="middle" style="white-space: pre;" direction="ltr" dominant-baseline="text-before-edge">past</text></g><g stroke-linecap="round" transform="translate(249.92971801757812 308.2499237060547) rotate(0 53.073272705078125 46.40223693847656)"><path d="M23.2 0 C34.89 1.27, 48.63 -0.27, 82.95 0 M23.2 0 C45.54 -0.38, 68.4 0.45, 82.95 0 M82.95 0 C99.31 0.93, 106.78 7.09, 106.15 23.2 M82.95 0 C98.84 1.35, 105.13 8.02, 106.15 23.2 M106.15 23.2 C105.19 39.97, 106.63 54.38, 106.15 69.6 M106.15 23.2 C106.19 33.72, 105.95 43.17, 106.15 69.6 M106.15 69.6 C107.32 83.63, 96.69 93.4, 82.95 92.8 M106.15 69.6 C106.28 85.15, 96.47 93.8, 82.95 92.8 M82.95 92.8 C70.15 93.03, 58.05 93.75, 23.2 92.8 M82.95 92.8 C63.1 92.91, 42.69 93.97, 23.2 92.8 M23.2 92.8 C7.96 91.59, -0.26 83.54, 0 69.6 M23.2 92.8 C8.43 91.26, -0.81 86.22, 0 69.6 M0 69.6 C0.17 58.09, -0.66 50.02, 0 23.2 M0 69.6 C-0.89 53.78, 0.04 38.43, 0 23.2 M0 23.2 C-0.42 6.04, 6.57 -0.97, 23.2 0 M0 23.2 C-1.51 9.53, 8.53 1.25, 23.2 0" stroke="#1e1e1e" stroke-width="2" fill="none"></path></g><g transform="translate(271.87994384765625 343.15216064453125) rotate(0 31.123046875 11.5)"><text x="31.123046875" y="0" font-family="Helvetica, Segoe UI Emoji" font-size="20px" fill="#1e1e1e" text-anchor="middle" style="white-space: pre;" direction="ltr" dominant-baseline="text-before-edge">current</text></g><g stroke-linecap="round"><g transform="translate(258.9960235798723 227.38658142089844) rotate(0 -88.46016999306117 39.107322692871094)"><path d="M-0.25 -0.65 C-29.74 12.53, -147.02 65.77, -176.52 79.09 M1.82 1.62 C-27.84 14.47, -147.25 64.78, -177.26 77.43" stroke="#1e1e1e" stroke-width="2" fill="none"></path></g><g transform="translate(258.9960235798723 227.38658142089844) rotate(0 -88.46016999306117 39.107322692871094)"><path d="M-158.93 60.42 C-166.23 66.82, -169.89 71.34, -177.26 77.43 M-158.93 60.42 C-166.02 66.29, -174.04 73.86, -177.26 77.43" stroke="#1e1e1e" stroke-width="2" fill="none"></path></g><g transform="translate(258.9960235798723 227.38658142089844) rotate(0 -88.46016999306117 39.107322692871094)"><path d="M-152.29 76.18 C-161.84 77.22, -167.75 76.41, -177.26 77.43 M-152.29 76.18 C-162.01 75.87, -172.63 77.3, -177.26 77.43" stroke="#1e1e1e" stroke-width="2" fill="none"></path></g></g><mask></mask><g stroke-linecap="round"><g transform="translate(288.33984375 229.51531982421875) rotate(0 -48.702331542968764 39.849609375)"><path d="M1.15 0.95 C-15.27 14.46, -81 66.88, -97.38 79.94 M0.3 0.4 C-16.38 13.63, -81.98 64.61, -98.31 77.95" stroke="#1e1e1e" stroke-width="2" fill="none"></path></g><g transform="translate(288.33984375 229.51531982421875) rotate(0 -48.702331542968764 39.849609375)"><path d="M-85.23 56.64 C-89.05 65.29, -95.43 74.27, -98.31 77.95 M-85.23 56.64 C-88.66 63.01, -93.32 67.76, -98.31 77.95" stroke="#1e1e1e" stroke-width="2" fill="none"></path></g><g transform="translate(288.33984375 229.51531982421875) rotate(0 -48.702331542968764 39.849609375)"><path d="M-74.59 70.03 C-82.52 73.46, -93.13 77.11, -98.31 77.95 M-74.59 70.03 C-80.76 72.83, -88.27 73.99, -98.31 77.95" stroke="#1e1e1e" stroke-width="2" fill="none"></path></g></g><mask></mask><g stroke-linecap="round"><g transform="translate(374.1480315502083 228.4034881591797) rotate(0 -32.53220669307291 39.07691192626953)"><path d="M-0.57 0.45 C-11.48 13.49, -54.46 66.01, -65.34 79.09 M1.34 -0.35 C-9.77 12.28, -55.65 64.57, -66.43 77.45" stroke="#1e1e1e" stroke-width="2" fill="none"></path></g><g transform="translate(374.1480315502083 228.4034881591797) rotate(0 -32.53220669307291 39.07691192626953)"><path d="M-57.59 54.07 C-59.4 60.83, -61.35 67.25, -66.43 77.45 M-57.59 54.07 C-61.52 62.62, -63.82 71.91, -66.43 77.45" stroke="#1e1e1e" stroke-width="2" fill="none"></path></g><g transform="translate(374.1480315502083 228.4034881591797) rotate(0 -32.53220669307291 39.07691192626953)"><path d="M-44.63 65.22 C-50.55 68.46, -56.51 71.42, -66.43 77.45 M-44.63 65.22 C-53.21 69.85, -60.21 75.09, -66.43 77.45" stroke="#1e1e1e" stroke-width="2" fill="none"></path></g></g><mask></mask><g stroke-linecap="round"><g transform="translate(410.1658935546875 227.224365234375) rotate(0 6.6392822265625 39.204681396484375)"><path d="M0.02 -0.36 C2.13 12.93, 11.08 66.29, 13.13 79.26 M-1.43 -1.6 C0.47 11.41, 9.41 64.27, 12.1 77.58" stroke="#1e1e1e" stroke-width="2" fill="none"></path></g><g transform="translate(410.1658935546875 227.224365234375) rotate(0 6.6392822265625 39.204681396484375)"><path d="M-0.54 56 C3.02 63.02, 9.3 68.95, 12.1 77.58 M-0.54 56 C1.26 59.95, 4.23 65.87, 12.1 77.58" stroke="#1e1e1e" stroke-width="2" fill="none"></path></g><g transform="translate(410.1658935546875 227.224365234375) rotate(0 6.6392822265625 39.204681396484375)"><path d="M16.29 52.93 C14.16 60.99, 14.76 67.95, 12.1 77.58 M16.29 52.93 C14.37 57.42, 13.63 64.02, 12.1 77.58" stroke="#1e1e1e" stroke-width="2" fill="none"></path></g></g><mask></mask><g stroke-linecap="round" transform="translate(16.412506103515625 442.2986297607422) rotate(0 35.95935058593749 46.40223693847656)"><path d="M17.98 0 C30.6 -1.15, 41.21 1.36, 53.94 0 M17.98 0 C32.6 -0.85, 44.92 0.16, 53.94 0 M53.94 0 C67.35 1.34, 72.05 5.99, 71.92 17.98 M53.94 0 C67.21 0.12, 69.96 4.91, 71.92 17.98 M71.92 17.98 C70.5 32.91, 72.81 47.69, 71.92 74.82 M71.92 17.98 C72.15 40.66, 70.63 62.23, 71.92 74.82 M71.92 74.82 C70.92 86.01, 66.92 93.02, 53.94 92.8 M71.92 74.82 C70.77 84.78, 65 94.81, 53.94 92.8 M53.94 92.8 C40.58 94.25, 29.25 92.51, 17.98 92.8 M53.94 92.8 C40.33 92.55, 28.53 92.81, 17.98 92.8 M17.98 92.8 C7.3 94.04, 0.86 88.75, 0 74.82 M17.98 92.8 C5.9 91.13, 0.76 85.56, 0 74.82 M0 74.82 C1.48 51.46, 1.64 31.92, 0 17.98 M0 74.82 C0.44 52.5, 1.13 31.41, 0 17.98 M0 17.98 C0.78 6.37, 7.75 0.87, 17.98 0 M0 17.98 C0.84 4.03, 5.59 0.12, 17.98 0" stroke="#1e1e1e" stroke-width="2" fill="none"></path></g><g transform="translate(45.701934814453125 477.20086669921875) rotate(0 6.669921875 11.5)"><text x="6.669921875" y="0" font-family="Helvetica, Segoe UI Emoji" font-size="20px" fill="#1e1e1e" text-anchor="middle" style="white-space: pre;" direction="ltr" dominant-baseline="text-before-edge">A</text></g><g stroke-linecap="round" transform="translate(105.87017822265625 442.89341735839844) rotate(0 35.95935058593749 46.40223693847656)"><path d="M17.98 0 C30.33 -1.05, 43.46 0.1, 53.94 0 M17.98 0 C25.63 -0.06, 32.57 -0.25, 53.94 0 M53.94 0 C64.28 0.66, 72.08 6.88, 71.92 17.98 M53.94 0 C65.33 -1.67, 73.13 7.95, 71.92 17.98 M71.92 17.98 C71.95 35.72, 72.29 54.61, 71.92 74.82 M71.92 17.98 C71.41 39.3, 71.13 61.07, 71.92 74.82 M71.92 74.82 C70.51 85.82, 66.48 91.28, 53.94 92.8 M71.92 74.82 C71.97 88.11, 67.14 91.82, 53.94 92.8 M53.94 92.8 C40.58 91.74, 27.67 94.66, 17.98 92.8 M53.94 92.8 C41.41 93.53, 27.45 92.72, 17.98 92.8 M17.98 92.8 C7.56 90.93, 0.05 88.36, 0 74.82 M17.98 92.8 C4.64 93.14, 1.05 85.51, 0 74.82 M0 74.82 C0.3 61.29, 0.83 46.38, 0 17.98 M0 74.82 C-0.49 54.23, 0.38 32.67, 0 17.98 M0 17.98 C1.73 7.39, 7.69 1.29, 17.98 0 M0 17.98 C0.82 8, 6.68 -0.13, 17.98 0" stroke="#1e1e1e" stroke-width="2" fill="none"></path></g><g transform="translate(135.15960693359375 477.795654296875) rotate(0 6.669921875 11.5)"><text x="6.669921875" y="0" font-family="Helvetica, Segoe UI Emoji" font-size="20px" fill="#1e1e1e" text-anchor="middle" style="white-space: pre;" direction="ltr" dominant-baseline="text-before-edge">B</text></g><g stroke-linecap="round" transform="translate(200.10986328125 443.03062438964844) rotate(0 35.95935058593749 46.40223693847656)"><path d="M17.98 0 C30.15 0.85, 40.63 0.95, 53.94 0 M17.98 0 C28.54 0.1, 37.26 0.11, 53.94 0 M53.94 0 C65.29 0.45, 69.93 6.16, 71.92 17.98 M53.94 0 C66.4 -0.92, 69.83 4.25, 71.92 17.98 M71.92 17.98 C74.4 30, 71.54 41.93, 71.92 74.82 M71.92 17.98 C72.39 31.07, 73.14 46.51, 71.92 74.82 M71.92 74.82 C73.48 85.28, 66.85 93.38, 53.94 92.8 M71.92 74.82 C70.78 84.56, 66.15 91, 53.94 92.8 M53.94 92.8 C42.45 91.91, 34.04 90.86, 17.98 92.8 M53.94 92.8 C43.71 93.25, 31.56 92.58, 17.98 92.8 M17.98 92.8 C4.6 91.5, -1.96 85.48, 0 74.82 M17.98 92.8 C4.17 92.73, 0.73 87.84, 0 74.82 M0 74.82 C-0.72 60.55, 0.12 42.38, 0 17.98 M0 74.82 C0.27 58.64, -0.94 41.49, 0 17.98 M0 17.98 C1.29 5.44, 4.23 -0.93, 17.98 0 M0 17.98 C-1.32 4.29, 6.34 -0.78, 17.98 0" stroke="#1e1e1e" stroke-width="2" fill="none"></path></g><g transform="translate(228.8475341796875 477.932861328125) rotate(0 7.2216796875 11.5)"><text x="7.2216796875" y="0" font-family="Helvetica, Segoe UI Emoji" font-size="20px" fill="#1e1e1e" text-anchor="middle" style="white-space: pre;" direction="ltr" dominant-baseline="text-before-edge">C</text></g><g stroke-linecap="round" transform="translate(296.0594482421875 441.98435974121094) rotate(0 35.9593505859375 46.40223693847656)"><path d="M17.98 0 C28.65 -0.56, 41.98 1.45, 53.94 0 M17.98 0 C25.7 0.58, 32.76 -0.67, 53.94 0 M53.94 0 C66.69 -0.38, 71.92 5.36, 71.92 17.98 M53.94 0 C65.16 -1.19, 73.19 4.94, 71.92 17.98 M71.92 17.98 C72.28 30.12, 71.88 41.8, 71.92 74.82 M71.92 17.98 C71.9 37, 73.13 57.56, 71.92 74.82 M71.92 74.82 C70.26 85.11, 65.33 93.02, 53.94 92.8 M71.92 74.82 C69.7 85.24, 66.55 93.94, 53.94 92.8 M53.94 92.8 C42.43 92.69, 32.29 92.15, 17.98 92.8 M53.94 92.8 C45.56 91.73, 35.99 92.99, 17.98 92.8 M17.98 92.8 C4.54 91.37, 1.74 85.38, 0 74.82 M17.98 92.8 C5.62 93.92, -1.55 86.51, 0 74.82 M0 74.82 C-1.11 53.97, 1.47 34.95, 0 17.98 M0 74.82 C0.86 57.19, 0.17 40.54, 0 17.98 M0 17.98 C0.98 5.4, 6.14 1.48, 17.98 0 M0 17.98 C1.8 4.13, 5.86 -1.92, 17.98 0" stroke="#1e1e1e" stroke-width="2" fill="none"></path></g><g transform="translate(324.797119140625 476.8865966796875) rotate(0 7.2216796875 11.5)"><text x="7.2216796875" y="0" font-family="Helvetica, Segoe UI Emoji" font-size="20px" fill="#1e1e1e" text-anchor="middle" style="white-space: pre;" direction="ltr" dominant-baseline="text-before-edge">D</text></g><g stroke-linecap="round" transform="translate(401.721923828125 442.81028747558594) rotate(0 35.9593505859375 46.40223693847656)"><path d="M17.98 0 C32.2 -0.52, 44.58 -0.73, 53.94 0 M17.98 0 C26.12 -0.34, 34.59 -0.03, 53.94 0 M53.94 0 C67.47 -0.22, 71.42 4.34, 71.92 17.98 M53.94 0 C66.83 -0.43, 73.77 5.18, 71.92 17.98 M71.92 17.98 C70.94 36.79, 71.23 59.55, 71.92 74.82 M71.92 17.98 C72.76 39.17, 72.02 61.01, 71.92 74.82 M71.92 74.82 C73.6 87.36, 66.95 93.71, 53.94 92.8 M71.92 74.82 C71.35 86.78, 65.85 94.45, 53.94 92.8 M53.94 92.8 C43.57 92.99, 30.3 94.17, 17.98 92.8 M53.94 92.8 C41.48 92.53, 28.33 93.03, 17.98 92.8 M17.98 92.8 C5.35 93.36, 0.82 86.89, 0 74.82 M17.98 92.8 C4.97 94.29, -0.15 86.42, 0 74.82 M0 74.82 C1.84 54.42, 0.93 33.44, 0 17.98 M0 74.82 C0.19 57.82, 1.05 41.46, 0 17.98 M0 17.98 C-1.36 4.93, 7.26 -1.68, 17.98 0 M0 17.98 C-1.15 4.42, 6.68 -1.29, 17.98 0" stroke="#1e1e1e" stroke-width="2" fill="none"></path></g><g transform="translate(431.0113525390625 477.7125244140625) rotate(0 6.669921875 11.5)"><text x="6.669921875" y="0" font-family="Helvetica, Segoe UI Emoji" font-size="20px" fill="#1e1e1e" text-anchor="middle" style="white-space: pre;" direction="ltr" dominant-baseline="text-before-edge">E</text></g><g stroke-linecap="round"><g transform="translate(261.2608642578125 398.2564697265625) rotate(0 -87.03244018554688 22.813720703125)"><path d="M1.16 0.47 C-27.72 8.41, -144.37 39.17, -173.68 46.59 M0.31 -0.33 C-28.65 7.39, -145.08 37.26, -174.43 44.97" stroke="#1e1e1e" stroke-width="2" fill="none"></path></g><g transform="translate(261.2608642578125 398.2564697265625) rotate(0 -87.03244018554688 22.813720703125)"><path d="M-153.83 30.79 C-158.6 35.36, -163.2 37.4, -174.43 44.97 M-153.83 30.79 C-159.58 34.69, -162.95 38.47, -174.43 44.97" stroke="#1e1e1e" stroke-width="2" fill="none"></path></g><g transform="translate(261.2608642578125 398.2564697265625) rotate(0 -87.03244018554688 22.813720703125)"><path d="M-149.54 47.35 C-155.29 47.6, -161.02 45.28, -174.43 44.97 M-149.54 47.35 C-156.45 47.19, -160.86 46.91, -174.43 44.97" stroke="#1e1e1e" stroke-width="2" fill="none"></path></g></g><mask></mask><g stroke-linecap="round"><g transform="translate(277.37457275390625 401.00982666015625) rotate(0 -50.49017333984375 22.0966796875)"><path d="M1.2 -0.92 C-15.51 6.35, -82.77 35.63, -99.94 43.23 M0.37 1.22 C-16.43 8.64, -83.72 37.36, -100.35 44.27" stroke="#1e1e1e" stroke-width="2" fill="none"></path></g><g transform="translate(277.37457275390625 401.00982666015625) rotate(0 -50.49017333984375 22.0966796875)"><path d="M-82.03 27.25 C-89.55 34.67, -95.56 37.01, -100.35 44.27 M-82.03 27.25 C-88.39 32.49, -93.84 37.88, -100.35 44.27" stroke="#1e1e1e" stroke-width="2" fill="none"></path></g><g transform="translate(277.37457275390625 401.00982666015625) rotate(0 -50.49017333984375 22.0966796875)"><path d="M-75.38 43.01 C-85 45.39, -93.17 42.62, -100.35 44.27 M-75.38 43.01 C-84.07 42.76, -91.82 42.74, -100.35 44.27" stroke="#1e1e1e" stroke-width="2" fill="none"></path></g></g><mask></mask><g stroke-linecap="round"><g transform="translate(300.49737548828125 400.6683349609375) rotate(0 -18.671783447265625 21.417724609375)"><path d="M1.13 0.64 C-4.99 7.95, -31.04 36.13, -37.57 43.03 M0.26 -0.08 C-5.96 6.92, -32.06 33.84, -38.63 41.02" stroke="#1e1e1e" stroke-width="2" fill="none"></path></g><g transform="translate(300.49737548828125 400.6683349609375) rotate(0 -18.671783447265625 21.417724609375)"><path d="M-28.72 18.07 C-30.09 23.03, -33.08 27.49, -38.63 41.02 M-28.72 18.07 C-31.65 23.67, -34.37 28.75, -38.63 41.02" stroke="#1e1e1e" stroke-width="2" fill="none"></path></g><g transform="translate(300.49737548828125 400.6683349609375) rotate(0 -18.671783447265625 21.417724609375)"><path d="M-16.29 29.81 C-20.41 32.2, -26.24 33.99, -38.63 41.02 M-16.29 29.81 C-22.08 32.54, -27.75 34.83, -38.63 41.02" stroke="#1e1e1e" stroke-width="2" fill="none"></path></g></g><mask></mask><g stroke-linecap="round"><g transform="translate(317.95599365234375 404.40521240234375) rotate(0 -9.504669189453125 23.28790283203125)"><path d="M0.23 0.56 C-3.02 8.5, -16.38 39.52, -19.77 47.11 M-1.1 -0.2 C-3.95 7.43, -14.67 37.37, -17.46 45.27" stroke="#1e1e1e" stroke-width="2" fill="none"></path></g><g transform="translate(317.95599365234375 404.40521240234375) rotate(0 -9.504669189453125 23.28790283203125)"><path d="M-17.63 20.27 C-16.77 25.96, -16.75 32.3, -17.46 45.27 M-17.63 20.27 C-16.94 26.83, -18.21 33.37, -17.46 45.27" stroke="#1e1e1e" stroke-width="2" fill="none"></path></g><g transform="translate(317.95599365234375 404.40521240234375) rotate(0 -9.504669189453125 23.28790283203125)"><path d="M-1.53 26.01 C-5.13 30.13, -9.59 34.87, -17.46 45.27 M-1.53 26.01 C-5.04 30.99, -10.55 36.01, -17.46 45.27" stroke="#1e1e1e" stroke-width="2" fill="none"></path></g></g><mask></mask><g stroke-linecap="round"><g transform="translate(338.9306640625 402.54486083984375) rotate(0 33.7587890625 23.14654541015625)"><path d="M-1.03 -1.05 C10.48 6.54, 57.29 38.61, 68.67 46.53 M0.63 1.01 C12.11 8.13, 57.38 36.72, 68.33 44.53" stroke="#1e1e1e" stroke-width="2" fill="none"></path></g><g transform="translate(338.9306640625 402.54486083984375) rotate(0 33.7587890625 23.14654541015625)"><path d="M44.04 38.63 C48.89 42.36, 57.6 41.57, 68.33 44.53 M44.04 38.63 C52.25 41, 59.53 42.46, 68.33 44.53" stroke="#1e1e1e" stroke-width="2" fill="none"></path></g><g transform="translate(338.9306640625 402.54486083984375) rotate(0 33.7587890625 23.14654541015625)"><path d="M53.51 24.39 C55.92 31.89, 62.07 34.95, 68.33 44.53 M53.51 24.39 C58.74 31.26, 63.05 37.2, 68.33 44.53" stroke="#1e1e1e" stroke-width="2" fill="none"></path></g></g><mask></mask><g stroke-linecap="round"><g transform="translate(48.25669883366788 401.50822262983536) rotate(0 -3.012298583984375 11.477737426757812)"><path d="M0.49 -0.07 C-0.49 3.82, -4.55 19.02, -5.63 22.83 M0.08 -0.57 C-0.96 3.44, -4.79 19.48, -5.86 23.47" stroke="#1e1e1e" stroke-width="2" fill="none"></path></g><g transform="translate(48.25669883366788 401.50822262983536) rotate(0 -3.012298583984375 11.477737426757812)"><path d="M-7.07 11.67 C-6.78 16.13, -6.43 19.77, -5.86 23.47 M-7.07 11.67 C-6.61 15.06, -6.41 18.34, -5.86 23.47" stroke="#1e1e1e" stroke-width="2" fill="none"></path></g><g transform="translate(48.25669883366788 401.50822262983536) rotate(0 -3.012298583984375 11.477737426757812)"><path d="M0.8 13.65 C-1.6 17.47, -3.94 20.42, -5.86 23.47 M0.8 13.65 C-0.9 16.48, -2.86 19.22, -5.86 23.47" stroke="#1e1e1e" stroke-width="2" fill="none"></path></g></g><mask></mask><g stroke-linecap="round"><g transform="translate(67.12403823246714 403.1837191360164) rotate(0 11.082550048828125 9.1077880859375)"><path d="M0.98 1 C4.63 4.16, 18.15 15.08, 21.65 17.95 M0.03 0.48 C3.5 3.91, 16.92 16.17, 20.43 19.34" stroke="#1e1e1e" stroke-width="2" fill="none"></path></g><g transform="translate(67.12403823246714 403.1837191360164) rotate(0 11.082550048828125 9.1077880859375)"><path d="M7.16 13.9 C11.99 14.69, 14.16 16.58, 20.43 19.34 M7.16 13.9 C10.65 16.03, 14.36 17.26, 20.43 19.34" stroke="#1e1e1e" stroke-width="2" fill="none"></path></g><g transform="translate(67.12403823246714 403.1837191360164) rotate(0 11.082550048828125 9.1077880859375)"><path d="M13.77 6.64 C16.7 9.5, 17.04 13.4, 20.43 19.34 M13.77 6.64 C15.21 10.94, 16.95 14.34, 20.43 19.34" stroke="#1e1e1e" stroke-width="2" fill="none"></path></g></g><mask></mask><g stroke-linecap="round"><g transform="translate(165.8967841938138 402.77099756449456) rotate(0 -12.62890625 6.5870361328125)"><path d="M0.22 0.31 C-4.05 2.53, -21.25 11.54, -25.55 13.63 M-0.34 -0.01 C-4.43 2.04, -20.18 10.69, -24.46 12.9" stroke="#1e1e1e" stroke-width="2" fill="none"></path></g><g transform="translate(165.8967841938138 402.77099756449456) rotate(0 -12.62890625 6.5870361328125)"><path d="M-14.94 2.3 C-17.45 5.22, -20.21 8.5, -24.46 12.9 M-14.94 2.3 C-17.11 4.67, -19.52 7.43, -24.46 12.9" stroke="#1e1e1e" stroke-width="2" fill="none"></path></g><g transform="translate(165.8967841938138 402.77099756449456) rotate(0 -12.62890625 6.5870361328125)"><path d="M-10.36 10.89 C-14.31 11.17, -18.49 11.79, -24.46 12.9 M-10.36 10.89 C-13.64 11.24, -17.12 11.97, -24.46 12.9" stroke="#1e1e1e" stroke-width="2" fill="none"></path></g></g><mask></mask><g stroke-linecap="round"><g transform="translate(440.2287745605921 401.0543246047664) rotate(0 6.401824951171861 10.44512939453125)"><path d="M-0.5 -0.51 C1.63 2.95, 10.02 16.87, 12.27 20.51 M0.24 0.41 C2.58 3.96, 11.14 17.66, 13.23 21.02" stroke="#1e1e1e" stroke-width="2" fill="none"></path></g><g transform="translate(440.2287745605921 401.0543246047664) rotate(0 6.401824951171861 10.44512939453125)"><path d="M3.58 13.47 C4.96 14.47, 7.09 16.84, 13.23 21.02 M3.58 13.47 C7.08 16.17, 11.2 19.32, 13.23 21.02" stroke="#1e1e1e" stroke-width="2" fill="none"></path></g><g transform="translate(440.2287745605921 401.0543246047664) rotate(0 6.401824951171861 10.44512939453125)"><path d="M10.69 9.03 C10.61 10.9, 11.28 14.18, 13.23 21.02 M10.69 9.03 C11.45 13.45, 12.83 18.31, 13.23 21.02" stroke="#1e1e1e" stroke-width="2" fill="none"></path></g></g><mask></mask><g stroke-linecap="round"><g transform="translate(413.2808173969388 401.34631494730706) rotate(0 -5.21832275390625 11.99200439453125)"><path d="M0.54 0.15 C-1.28 4.07, -8.6 19.55, -10.46 23.55 M0.15 -0.25 C-1.78 3.73, -9.03 20.13, -10.91 24.03" stroke="#1e1e1e" stroke-width="2" fill="none"></path></g><g transform="translate(413.2808173969388 401.34631494730706) rotate(0 -5.21832275390625 11.99200439453125)"><path d="M-9.85 11 C-10.08 15.99, -11.17 20.82, -10.91 24.03 M-9.85 11 C-10.46 15.28, -10.39 19.36, -10.91 24.03" stroke="#1e1e1e" stroke-width="2" fill="none"></path></g><g transform="translate(413.2808173969388 401.34631494730706) rotate(0 -5.21832275390625 11.99200439453125)"><path d="M-1.72 14.73 C-5.08 18.33, -9.31 21.71, -10.91 24.03 M-1.72 14.73 C-5.02 17.78, -7.64 20.64, -10.91 24.03" stroke="#1e1e1e" stroke-width="2" fill="none"></path></g></g><mask></mask></svg>