<?xml version="1.0" encoding="UTF-8"?>
<svg xmlns="http://www.w3.org/2000/svg" xmlns:xlink="http://www.w3.org/1999/xlink" width="537pt" height="304pt" viewBox="0 0 537 304" version="1.1">
<g id="surface1">
<path style="fill:none;stroke-width:2.25;stroke-linecap:butt;stroke-linejoin:round;stroke:rgb(0%,0%,0%);stroke-opacity:1;stroke-miterlimit:10;" d="M 264.847656 332.4375 C 265.601562 331.078125 263.941406 322.464844 269.378906 324.28125 C 274.820312 326.09375 288.566406 336.0625 297.476562 343.316406 C 306.390625 350.566406 319.382812 360.082031 322.859375 367.789062 C 326.332031 375.492188 321.648438 385.914062 318.328125 389.542969 C 315.003906 393.167969 303.523438 388.9375 302.917969 389.542969 C 302.3125 390.144531 314.699219 389.390625 314.699219 393.167969 C 314.699219 396.945312 306.390625 410.992188 302.917969 412.203125 C 299.441406 413.410156 294.757812 400.269531 293.851562 400.417969 C 292.945312 400.570312 301.707031 409.9375 297.476562 413.109375 C 293.25 416.28125 273.609375 419.605469 268.472656 419.453125 C 263.335938 419.304688 267.71875 411.902344 266.660156 412.203125 C 265.601562 412.503906 265.601562 419 262.128906 421.269531 C 258.652344 423.535156 249.136719 426.855469 245.8125 425.800781 C 242.488281 424.742188 243.246094 414.921875 242.1875 414.921875 C 241.128906 414.921875 243.09375 424.4375 239.464844 425.800781 C 235.839844 427.160156 223.605469 424.742188 220.433594 423.082031 C 217.261719 421.417969 220.734375 415.375 220.433594 415.828125 C 220.128906 416.28125 222.246094 424.441406 218.621094 425.800781 C 214.996094 427.160156 202.757812 425.042969 198.679688 423.984375 C 194.601562 422.929688 195.503906 419 194.144531 419.453125 C 192.785156 419.90625 194.601562 426.703125 190.523438 426.703125 C 186.441406 426.703125 173.148438 422.023438 169.671875 419.453125 C 166.199219 416.886719 171.183594 411.902344 169.671875 411.296875 C 168.164062 410.691406 166.5 417.640625 160.609375 415.828125 C 154.714844 414.015625 137.949219 404.046875 134.324219 400.417969 C 130.695312 396.792969 140.0625 394.679688 138.855469 394.074219 C 137.644531 393.46875 131.90625 400.570312 127.070312 396.792969 C 122.238281 393.015625 111.511719 376.246094 109.847656 371.414062 C 108.1875 366.578125 117.703125 368.089844 117.101562 367.789062 C 116.496094 367.484375 108.640625 372.773438 106.222656 369.601562 C 103.808594 366.429688 101.691406 352.226562 102.597656 348.753906 C 103.503906 345.28125 112.113281 349.8125 111.660156 348.753906 C 111.207031 347.695312 101.238281 348.300781 99.878906 342.40625 C 98.519531 336.515625 100.9375 320.203125 103.503906 313.402344 C 106.070312 306.605469 115.136719 305.09375 115.289062 301.621094 C 115.4375 298.144531 106.980469 297.691406 104.410156 292.554688 C 101.84375 287.417969 98.972656 274.878906 99.878906 270.800781 C 100.785156 266.722656 109.847656 268.988281 109.847656 268.082031 C 109.847656 267.175781 100.632812 269.59375 99.878906 265.363281 C 99.121094 261.132812 102.75 246.328125 105.316406 242.703125 C 107.886719 239.078125 115.589844 244.210938 115.289062 243.609375 C 114.984375 243.003906 103.957031 243.003906 103.503906 239.078125 C 103.050781 235.148438 108.941406 222.609375 112.570312 220.042969 C 116.195312 217.472656 124.199219 224.421875 125.257812 223.667969 C 126.316406 222.910156 117.101562 219.4375 118.914062 215.511719 C 120.726562 211.582031 133.265625 202.667969 136.136719 200.101562 " transform="matrix(1,0,0,1,-85,-158.5)"/>
<path style="fill:none;stroke-width:2.25;stroke-linecap:butt;stroke-linejoin:round;stroke:rgb(0%,0%,0%);stroke-opacity:1;stroke-miterlimit:10;" d="M 143.386719 210.070312 C 143.234375 208.109375 139.15625 202.820312 142.480469 198.289062 C 145.804688 193.753906 158.492188 183.785156 163.328125 182.878906 C 168.164062 181.972656 170.277344 193.453125 171.484375 192.847656 C 172.695312 192.246094 166.347656 181.972656 170.578125 179.253906 C 174.808594 176.535156 191.425781 175.777344 196.867188 176.535156 C 202.304688 177.289062 202.304688 184.390625 203.210938 183.785156 C 204.117188 183.179688 199.585938 174.722656 202.304688 172.90625 C 205.023438 171.09375 216.65625 171.246094 219.523438 172.90625 C 222.394531 174.570312 218.164062 182.578125 219.523438 182.878906 C 220.882812 183.179688 222.394531 175.324219 227.683594 174.722656 C 232.96875 174.117188 247.925781 176.835938 251.25 179.253906 C 254.574219 181.667969 246.417969 189.828125 247.625 189.222656 C 248.832031 188.617188 253.363281 176.535156 258.5 175.628906 C 263.636719 174.722656 275.875 181.21875 278.441406 183.785156 C 281.011719 186.355469 272.25 191.339844 273.910156 191.035156 C 275.574219 190.734375 283.277344 181.671875 288.414062 181.972656 C 293.550781 182.273438 303.066406 189.828125 304.730469 192.847656 C 306.390625 195.871094 297.476562 198.890625 298.382812 200.101562 C 299.289062 201.308594 306.085938 195.71875 310.167969 200.101562 C 314.246094 204.480469 322.707031 218.984375 322.859375 226.386719 C 323.007812 233.789062 314.246094 241.796875 311.074219 244.515625 C 307.902344 247.234375 305.03125 241.496094 303.820312 242.703125 C 302.613281 243.910156 307.75 247.082031 303.820312 251.765625 C 299.894531 256.449219 286.296875 267.175781 280.253906 270.800781 C 274.210938 274.425781 270.285156 274.425781 267.566406 273.519531 C 264.847656 272.613281 265.300781 264.457031 263.941406 265.363281 C 262.582031 266.269531 261.371094 273.066406 259.410156 278.960938 C 257.445312 284.851562 252.15625 295.273438 252.15625 300.714844 C 252.15625 306.152344 257.445312 306.757812 259.410156 311.589844 C 261.371094 316.425781 262.277344 327.453125 263.941406 329.71875 C 265.601562 331.984375 264.242188 323.222656 269.378906 325.1875 C 274.515625 327.152344 290.984375 336.515625 294.757812 341.503906 C 298.535156 346.488281 290.527344 354.191406 292.039062 355.097656 C 293.550781 356.003906 301.859375 348.300781 303.820312 346.941406 " transform="matrix(1,0,0,1,-85,-158.5)"/>
<path style="fill:none;stroke-width:0.75;stroke-linecap:butt;stroke-linejoin:round;stroke:rgb(0%,0%,0%);stroke-opacity:1;stroke-miterlimit:10;" d="M 197.773438 298.898438 C 197.015625 298.898438 194.148438 296.632812 193.238281 298.898438 C 192.332031 301.167969 192.636719 306.90625 192.332031 312.496094 C 192.03125 318.085938 192.785156 325.941406 191.425781 332.4375 C 190.066406 338.933594 187.347656 347.847656 184.175781 351.472656 C 181.003906 355.097656 172.542969 355.097656 172.390625 354.191406 C 172.242188 353.285156 181.910156 348.90625 183.269531 346.035156 C 184.628906 343.164062 179.945312 338.785156 180.550781 336.972656 C 181.152344 335.160156 185.835938 338.480469 186.894531 335.160156 C 187.953125 331.835938 189.011719 320.65625 186.894531 317.03125 C 184.78125 313.40625 177.378906 314.007812 174.203125 313.40625 C 171.03125 312.800781 168.617188 312.648438 167.859375 313.40625 C 167.105469 314.160156 169.371094 317.179688 169.671875 317.9375 " transform="matrix(1,0,0,1,-85,-158.5)"/>
<path style="fill:none;stroke-width:0.75;stroke-linecap:butt;stroke-linejoin:round;stroke:rgb(0%,0%,0%);stroke-opacity:1;stroke-miterlimit:10;" d="M 166.046875 312.496094 C 164.082031 312.195312 157.433594 309.324219 154.261719 310.683594 C 151.089844 312.042969 147.917969 320.957031 147.011719 320.652344 C 146.105469 320.351562 150.9375 310.984375 148.824219 308.871094 C 146.710938 306.753906 137.496094 306.90625 134.320312 307.964844 C 131.148438 309.023438 130.09375 315.667969 129.789062 315.214844 C 129.488281 314.761719 133.867188 306.90625 132.507812 305.246094 C 131.148438 303.585938 123.898438 302.828125 121.632812 305.246094 C 119.363281 307.664062 119.820312 319.898438 118.914062 319.746094 C 118.007812 319.597656 117.554688 308.871094 116.195312 304.339844 C 114.835938 299.804688 110.605469 294.214844 110.753906 292.554688 C 110.90625 290.894531 115.285156 295.578125 117.097656 294.367188 C 118.914062 293.160156 120.875 285.304688 121.632812 285.304688 C 122.386719 285.304688 119.96875 292.855469 121.632812 294.367188 C 123.292969 295.878906 129.1875 295.878906 131.601562 294.367188 C 134.019531 292.855469 134.472656 285.453125 136.136719 285.304688 C 137.796875 285.152344 139.761719 292.554688 141.574219 293.460938 C 143.386719 294.367188 145.953125 292.554688 147.011719 290.742188 C 148.070312 288.929688 147.011719 282.28125 147.917969 282.585938 C 148.824219 282.886719 150.789062 291.347656 152.449219 292.554688 C 154.113281 293.761719 156.226562 291.347656 157.890625 289.835938 C 159.550781 288.324219 161.664062 283.640625 162.421875 283.488281 C 163.175781 283.339844 159.550781 288.023438 162.421875 288.929688 C 165.289062 289.835938 176.773438 290.4375 179.644531 288.929688 C 182.511719 287.417969 179.339844 280.320312 179.644531 279.867188 C 179.945312 279.414062 179.945312 288.476562 181.457031 286.210938 C 182.964844 283.945312 188.558594 269.894531 188.707031 266.269531 C 188.859375 262.644531 182.664062 265.816406 182.363281 264.457031 C 182.058594 263.097656 187.5 260.527344 186.894531 258.113281 C 186.289062 255.695312 181.910156 250.40625 178.738281 249.953125 C 175.566406 249.5 168.011719 256.296875 167.859375 255.390625 C 167.707031 254.484375 173.75 243.457031 177.828125 244.515625 C 181.910156 245.574219 189.761719 255.390625 192.332031 261.734375 C 194.898438 268.082031 193.691406 277.296875 193.238281 282.585938 C 192.785156 287.871094 189.765625 292.253906 189.613281 293.460938 C 189.460938 294.671875 191.726562 289.082031 192.332031 289.835938 C 192.9375 290.589844 193.089844 296.632812 193.238281 297.992188 " transform="matrix(1,0,0,1,-85,-158.5)"/>
<path style="fill-rule:nonzero;fill:rgb(100%,94.902039%,80.000305%);fill-opacity:1;stroke-width:1.5;stroke-linecap:butt;stroke-linejoin:round;stroke:rgb(0%,0%,0%);stroke-opacity:1;stroke-miterlimit:10;" d="M 369.070312 231.425781 C 381.1875 231.425781 391.015625 242.789062 391.015625 256.808594 C 391.015625 270.824219 381.1875 282.1875 369.070312 282.1875 C 356.949219 282.1875 347.125 270.824219 347.125 256.808594 C 347.125 242.789062 356.949219 231.425781 369.070312 231.425781 Z M 369.070312 231.425781 " transform="matrix(1,0,0,1,-85,-158.5)"/>
<path style="fill-rule:nonzero;fill:rgb(100%,94.902039%,80.000305%);fill-opacity:1;stroke-width:1.5;stroke-linecap:butt;stroke-linejoin:round;stroke:rgb(0%,0%,0%);stroke-opacity:1;stroke-miterlimit:10;" d="M 369.070312 320.730469 C 381.1875 320.730469 391.015625 332.09375 391.015625 346.113281 C 391.015625 360.128906 381.1875 371.492188 369.070312 371.492188 C 356.949219 371.492188 347.125 360.128906 347.125 346.113281 C 347.125 332.09375 356.949219 320.730469 369.070312 320.730469 Z M 369.070312 320.730469 " transform="matrix(1,0,0,1,-85,-158.5)"/>
<path style="fill-rule:nonzero;fill:rgb(81.176758%,88.627625%,95.294189%);fill-opacity:1;stroke-width:3;stroke-linecap:butt;stroke-linejoin:round;stroke:rgb(0%,0%,0%);stroke-opacity:1;stroke-miterlimit:10;" d="M 389.640625 244.0625 C 393.128906 243.996094 396.382812 246.386719 398.15625 250.324219 C 399.933594 254.265625 399.960938 259.148438 398.230469 263.125 C 396.5 267.097656 393.277344 269.550781 389.789062 269.550781 L 389.789062 264.691406 C 391.535156 264.691406 393.148438 263.167969 394.011719 260.707031 C 394.875 258.242188 394.859375 255.21875 393.964844 252.78125 C 393.074219 250.34375 391.445312 248.871094 389.695312 248.925781 Z M 389.640625 244.0625 " transform="matrix(1,0,0,1,-85,-158.5)"/>
<path style="fill-rule:nonzero;fill:rgb(81.176758%,88.627625%,95.294189%);fill-opacity:1;stroke-width:3;stroke-linecap:butt;stroke-linejoin:round;stroke:rgb(0%,0%,0%);stroke-opacity:1;stroke-miterlimit:10;" d="M 389.640625 333.371094 C 393.128906 333.300781 396.382812 335.691406 398.15625 339.628906 C 399.933594 343.570312 399.960938 348.453125 398.230469 352.429688 C 396.5 356.402344 393.277344 358.855469 389.789062 358.855469 L 389.789062 353.996094 C 391.535156 353.996094 393.148438 352.476562 394.011719 350.011719 C 394.875 347.546875 394.859375 344.523438 393.964844 342.085938 C 393.074219 339.648438 391.445312 338.175781 389.695312 338.230469 Z M 389.640625 333.371094 " transform="matrix(1,0,0,1,-85,-158.5)"/>
<path style="fill:none;stroke-width:6;stroke-linecap:butt;stroke-linejoin:round;stroke:rgb(100%,0%,0%);stroke-opacity:1;stroke-dasharray:6,18;stroke-miterlimit:10;" d="M 389.789062 256.808594 L 582.753906 349.453125 " transform="matrix(1,0,0,1,-85,-158.5)"/>
<path style="fill:none;stroke-width:6;stroke-linecap:butt;stroke-linejoin:round;stroke:rgb(100%,0%,0%);stroke-opacity:1;stroke-dasharray:6,18;stroke-miterlimit:10;" d="M 389.789062 346.113281 L 586.394531 353.082031 " transform="matrix(1,0,0,1,-85,-158.5)"/>
<path style="fill:none;stroke-width:6;stroke-linecap:butt;stroke-linejoin:round;stroke:rgb(0%,0%,100%);stroke-opacity:1;stroke-dasharray:6,18;stroke-miterlimit:10;" d="M 389.789062 256.808594 L 577.820312 250.949219 " transform="matrix(1,0,0,1,-85,-158.5)"/>
<path style="fill:none;stroke-width:6;stroke-linecap:butt;stroke-linejoin:round;stroke:rgb(0%,0%,100%);stroke-opacity:1;stroke-dasharray:6,18;stroke-miterlimit:10;" d="M 401.398438 339.746094 L 577.832031 250.949219 " transform="matrix(1,0,0,1,-85,-158.5)"/>
<path style="fill-rule:nonzero;fill:rgb(0%,0%,100%);fill-opacity:1;stroke-width:1.5;stroke-linecap:butt;stroke-linejoin:round;stroke:rgb(0%,0%,0%);stroke-opacity:1;stroke-miterlimit:10;" d="M 587.550781 238.207031 C 592.917969 238.207031 597.273438 243.914062 597.273438 250.949219 C 597.273438 257.988281 592.917969 263.695312 587.550781 263.695312 C 582.183594 263.695312 577.832031 257.988281 577.832031 250.949219 C 577.832031 243.914062 582.183594 238.207031 587.550781 238.207031 Z M 587.550781 238.207031 " transform="matrix(1,0,0,1,-85,-158.5)"/>
<path style="fill-rule:nonzero;fill:rgb(100%,0%,0%);fill-opacity:1;stroke-width:1.5;stroke-linecap:butt;stroke-linejoin:round;stroke:rgb(0%,0%,0%);stroke-opacity:1;stroke-miterlimit:10;" d="M 587.550781 336.851562 C 592.917969 336.851562 597.273438 342.558594 597.273438 349.597656 C 597.273438 356.636719 592.917969 362.339844 587.550781 362.339844 C 582.183594 362.339844 577.832031 356.636719 577.832031 349.597656 C 577.832031 342.558594 582.183594 336.851562 587.550781 336.851562 Z M 587.550781 336.851562 " transform="matrix(1,0,0,1,-85,-158.5)"/>
<path style="fill:none;stroke-width:2.25;stroke-linecap:butt;stroke-linejoin:round;stroke:rgb(100%,0%,0%);stroke-opacity:1;stroke-miterlimit:10;" d="M 340.046875 251.15625 C 333.980469 252.976562 312.539062 258.03125 303.640625 262.078125 C 294.742188 266.121094 291.304688 272.1875 286.652344 275.425781 C 282 278.660156 280.585938 281.898438 275.730469 281.492188 C 270.878906 281.085938 265.621094 276.636719 257.53125 272.996094 C 249.441406 269.359375 232.25 261.875 227.191406 259.648438 " transform="matrix(1,0,0,1,-85,-158.5)"/>
<path style="fill:none;stroke-width:2.25;stroke-linecap:butt;stroke-linejoin:round;stroke:rgb(100%,0%,0%);stroke-opacity:1;stroke-miterlimit:10;" d="M 227.191406 260.863281 C 224.363281 259.648438 212.832031 258.03125 210.203125 253.582031 C 207.574219 249.132812 211.214844 239.828125 211.417969 234.164062 C 211.621094 228.503906 215.058594 222.839844 211.417969 219.605469 C 207.777344 216.367188 197.460938 210.90625 189.574219 214.75 C 181.6875 218.59375 170.160156 230.324219 164.09375 242.660156 C 158.023438 255 154.992188 281.089844 153.171875 288.773438 " transform="matrix(1,0,0,1,-85,-158.5)"/>
<path style="fill:none;stroke-width:2.25;stroke-linecap:butt;stroke-linejoin:round;stroke:rgb(100%,0%,0%);stroke-opacity:1;stroke-miterlimit:10;" d="M 340.046875 256.011719 C 334.585938 257.628906 316.183594 261.671875 307.285156 265.71875 C 298.382812 269.761719 292.316406 276.839844 286.652344 280.277344 C 280.992188 283.71875 279.171875 287.5625 273.304688 286.347656 C 267.441406 285.132812 259.148438 276.839844 251.460938 273 C 243.777344 269.15625 234.472656 265.3125 227.191406 263.289062 C 219.910156 261.269531 212.023438 264.300781 207.777344 260.863281 C 203.53125 257.425781 202.113281 248.527344 201.710938 242.664062 C 201.304688 236.796875 209.191406 228.300781 205.351562 225.671875 C 201.507812 223.042969 187.753906 223.652344 178.652344 226.886719 C 169.550781 230.121094 159.84375 234.367188 150.742188 245.085938 C 141.644531 255.808594 128.496094 283.515625 124.046875 291.203125 " transform="matrix(1,0,0,1,-85,-158.5)"/>
<path style="fill:none;stroke-width:2.25;stroke-linecap:butt;stroke-linejoin:round;stroke:rgb(100%,0%,0%);stroke-opacity:1;stroke-miterlimit:10;" d="M 109.484375 283.917969 C 115.148438 278.460938 133.753906 258.4375 143.460938 251.15625 C 153.171875 243.875 160.046875 242.660156 167.730469 240.234375 C 175.417969 237.808594 184.921875 234.167969 189.574219 236.59375 C 194.226562 239.019531 194.429688 249.335938 195.640625 254.796875 C 196.855469 260.257812 191.800781 266.929688 196.855469 269.355469 C 201.914062 271.785156 217.285156 267.335938 225.980469 269.355469 C 234.675781 271.378906 240.339844 275.425781 249.035156 281.492188 C 257.730469 287.558594 269.058594 297.671875 278.160156 305.761719 C 287.261719 313.851562 294.136719 323.964844 303.640625 330.03125 C 313.148438 336.097656 329.933594 340.144531 335.191406 342.164062 " transform="matrix(1,0,0,1,-85,-158.5)"/>
<path style="fill:none;stroke-width:2.25;stroke-linecap:butt;stroke-linejoin:round;stroke:rgb(100%,0%,0%);stroke-opacity:1;stroke-miterlimit:10;" d="M 114.339844 231.742188 C 120.203125 233.5625 139.011719 242.660156 149.53125 242.660156 C 160.046875 242.660156 169.753906 234.167969 177.441406 231.742188 C 185.125 229.3125 192 224.660156 195.640625 228.097656 C 199.28125 231.535156 197.261719 246.097656 199.285156 252.367188 C 201.304688 258.636719 200.699219 262.886719 207.777344 265.714844 C 214.855469 268.546875 227.800781 261.0625 241.757812 269.355469 C 255.710938 277.648438 278.160156 304.550781 291.507812 315.472656 C 304.855469 326.390625 312.945312 331.042969 321.84375 334.886719 C 330.742188 338.730469 341.058594 337.917969 344.902344 338.527344 " transform="matrix(1,0,0,1,-85,-158.5)"/>
<path style="fill:none;stroke-width:2.25;stroke-linecap:butt;stroke-linejoin:round;stroke:rgb(0%,0%,100%);stroke-opacity:1;stroke-miterlimit:10;" d="M 341.261719 259.648438 C 333.574219 261.875 307.484375 265.515625 295.148438 272.996094 C 282.8125 280.480469 275.933594 296.457031 267.238281 304.546875 C 258.542969 312.636719 254.292969 317.089844 242.96875 321.539062 C 231.644531 325.988281 207.375 324.972656 199.285156 331.242188 C 191.195312 337.515625 198.472656 353.898438 194.429688 359.15625 C 190.382812 364.414062 184.925781 365.019531 175.015625 362.796875 C 165.105469 360.570312 145.890625 353.492188 134.96875 345.808594 C 124.046875 338.121094 113.734375 321.535156 109.484375 316.683594 " transform="matrix(1,0,0,1,-85,-158.5)"/>
<path style="fill:none;stroke-width:2.25;stroke-linecap:butt;stroke-linejoin:round;stroke:rgb(0%,0%,100%);stroke-opacity:1;stroke-miterlimit:10;" d="M 344.902344 264.503906 C 337.214844 266.121094 310.519531 267.535156 298.789062 274.210938 C 287.058594 280.882812 285.644531 295.445312 274.519531 304.546875 C 263.394531 313.648438 243.777344 323.964844 232.046875 328.816406 C 220.316406 333.671875 210.003906 328.613281 204.136719 333.671875 C 198.273438 338.726562 198.070312 354.90625 196.855469 359.15625 " transform="matrix(1,0,0,1,-85,-158.5)"/>
<path style="fill:none;stroke-width:2.25;stroke-linecap:butt;stroke-linejoin:round;stroke:rgb(0%,0%,100%);stroke-opacity:1;stroke-miterlimit:10;" d="M 195.640625 370.078125 C 191.191406 369.671875 177.84375 370.480469 168.945312 367.652344 C 160.046875 364.820312 152.363281 354.707031 142.25 353.085938 C 132.136719 351.46875 113.933594 357.132812 108.273438 357.941406 " transform="matrix(1,0,0,1,-85,-158.5)"/>
<path style="fill:none;stroke-width:0.75;stroke-linecap:butt;stroke-linejoin:round;stroke:rgb(0%,0%,0%);stroke-opacity:1;stroke-miterlimit:10;" d="M 196.855469 357.941406 C 196.652344 359.964844 195.84375 368.054688 195.640625 370.078125 " transform="matrix(1,0,0,1,-85,-158.5)"/>
<path style="fill:none;stroke-width:2.25;stroke-linecap:butt;stroke-linejoin:round;stroke:rgb(0%,0%,100%);stroke-opacity:1;stroke-miterlimit:10;" d="M 134.96875 320.320312 C 137.394531 326.792969 143.261719 350.257812 149.53125 359.15625 C 155.800781 368.054688 164.09375 370.882812 172.585938 373.714844 C 181.082031 376.546875 194.832031 381.199219 200.496094 376.144531 C 206.160156 371.085938 202.316406 350.253906 206.5625 343.378906 C 210.808594 336.503906 219.105469 337.3125 225.980469 334.886719 C 232.855469 332.457031 240.945312 331.851562 247.824219 328.816406 C 254.699219 325.78125 260.96875 318.300781 267.238281 316.683594 C 273.507812 315.066406 278.363281 315.671875 285.441406 319.109375 C 292.519531 322.546875 299.800781 332.660156 309.710938 337.3125 C 319.621094 341.964844 339.035156 345.402344 344.902344 347.019531 " transform="matrix(1,0,0,1,-85,-158.5)"/>
<path style="fill:none;stroke-width:2.25;stroke-linecap:butt;stroke-linejoin:round;stroke:rgb(0%,0%,100%);stroke-opacity:1;stroke-miterlimit:10;" d="M 155.597656 317.894531 C 157.417969 325.378906 161.058594 352.074219 166.519531 362.796875 C 171.980469 373.515625 181.484375 378.976562 188.363281 382.210938 C 195.238281 385.445312 203.328125 385.851562 207.777344 382.210938 C 212.226562 378.570312 214.453125 366.636719 215.058594 360.367188 C 215.664062 354.097656 207.574219 348.433594 211.417969 344.59375 C 215.261719 340.75 230.429688 340.347656 238.113281 337.3125 C 245.800781 334.28125 250.652344 329.019531 257.53125 326.390625 C 264.40625 323.761719 271.28125 318.503906 279.371094 321.539062 C 287.460938 324.570312 294.742188 339.535156 306.070312 344.59375 C 317.394531 349.648438 340.453125 350.660156 347.328125 351.875 " transform="matrix(1,0,0,1,-85,-158.5)"/>
<path style="fill-rule:nonzero;fill:rgb(90.196228%,72.157288%,68.62793%);fill-opacity:1;stroke-width:1.5;stroke-linecap:butt;stroke-linejoin:round;stroke:rgb(0%,0%,0%);stroke-opacity:1;stroke-miterlimit:10;" d="M 214.257812 253.039062 C 217.492188 256.5625 215.914062 263.277344 210.726562 268.039062 C 205.539062 272.800781 198.714844 273.804688 195.476562 270.285156 C 192.242188 266.761719 193.824219 260.046875 199.011719 255.285156 C 204.195312 250.523438 211.023438 249.515625 214.257812 253.039062 Z M 214.257812 253.039062 " transform="matrix(1,0,0,1,-85,-158.5)"/>
<path style="fill-rule:nonzero;fill:rgb(90.196228%,72.157288%,68.62793%);fill-opacity:1;stroke-width:1.5;stroke-linecap:butt;stroke-linejoin:round;stroke:rgb(0%,0%,0%);stroke-opacity:1;stroke-miterlimit:10;" d="M 213.453125 348.75 C 209.96875 351.917969 203.300781 350.273438 198.558594 345.074219 C 193.816406 339.875 192.796875 333.09375 196.28125 329.921875 C 199.765625 326.75 206.433594 328.394531 211.175781 333.59375 C 215.917969 338.792969 216.9375 345.578125 213.453125 348.75 Z M 213.453125 348.75 " transform="matrix(1,0,0,1,-85,-158.5)"/>
</g>
</svg>
