<svg xmlns="http://www.w3.org/2000/svg" xmlns:xlink="http://www.w3.org/1999/xlink" width="400.412" height="304.446"><defs><path id="f" d="M5.531.11c-.937 0-1.84-.15-2.703-.454-.855-.3-1.515-.695-1.984-1.187l.531-1.032c.445.461 1.047.829 1.797 1.11a6.738 6.738 0 0 0 2.36.422c1.124 0 1.968-.203 2.53-.61.563-.414.844-.957.844-1.625 0-.5-.156-.894-.469-1.187-.304-.3-.68-.535-1.124-.703-.438-.164-1.055-.344-1.844-.532-.95-.238-1.703-.468-2.266-.687A3.903 3.903 0 0 1 1.75-7.391c-.398-.457-.594-1.078-.594-1.859 0-.633.164-1.21.5-1.734.332-.52.848-.938 1.547-1.25.695-.313 1.563-.47 2.594-.47.719 0 1.422.102 2.11.298.695.199 1.296.469 1.796.812L9.25-10.53a6.592 6.592 0 0 0-1.703-.781 6.163 6.163 0 0 0-1.75-.266c-1.106 0-1.938.215-2.5.64-.555.43-.828.981-.828 1.657 0 .5.148.906.453 1.219.312.304.695.539 1.156.703.457.156 1.078.328 1.86.515.925.23 1.671.461 2.234.688.57.218 1.055.554 1.453 1 .395.449.594 1.058.594 1.828 0 .637-.172 1.215-.516 1.734-.336.524-.855.938-1.562 1.25C7.43-.039 6.562.11 5.53.11Zm0 0"/><path id="g" d="M10.313-9.469V0h-1.22v-1.734a3.475 3.475 0 0 1-1.39 1.359c-.586.313-1.258.469-2.016.469C4.446.094 3.47-.25 2.75-.938c-.71-.695-1.063-1.71-1.063-3.046V-9.47H2.97v5.36c0 1 .242 1.761.734 2.28.5.513 1.203.766 2.11.766 1 0 1.785-.3 2.359-.906.57-.601.86-1.445.86-2.531v-4.969Zm0 0"/><path id="h" d="M6.656-9.547c.883 0 1.688.203 2.407.61a4.354 4.354 0 0 1 1.703 1.703c.406.73.609 1.562.609 2.5 0 .949-.203 1.793-.61 2.53A4.34 4.34 0 0 1 9.079-.5c-.71.398-1.515.594-2.422.594a4.577 4.577 0 0 1-2.078-.469 3.93 3.93 0 0 1-1.516-1.406v5.265h-1.28V-9.469H3v1.875A3.935 3.935 0 0 1 4.516-9.03c.632-.344 1.347-.516 2.14-.516Zm-.093 8.5A3.64 3.64 0 0 0 8.374-1.5c.54-.313.96-.75 1.266-1.313.3-.562.453-1.203.453-1.921 0-.72-.153-1.352-.453-1.907-.305-.562-.727-1-1.266-1.312a3.571 3.571 0 0 0-1.813-.469 3.55 3.55 0 0 0-1.812.469A3.29 3.29 0 0 0 3.5-6.641c-.305.555-.453 1.188-.453 1.907 0 .718.148 1.359.453 1.921.3.563.719 1 1.25 1.313.54.305 1.145.453 1.813.453Zm0 0"/><path id="i" d="M5.656.094c-.918 0-1.742-.207-2.468-.625A4.607 4.607 0 0 1 1.452-2.25C1.035-2.977.828-3.805.828-4.734c0-.926.207-1.754.625-2.485a4.539 4.539 0 0 1 1.734-1.703c.727-.414 1.551-.625 2.47-.625.905 0 1.722.211 2.452.625a4.318 4.318 0 0 1 1.72 1.703c.413.73.624 1.559.624 2.485 0 .93-.21 1.757-.625 2.484A4.381 4.381 0 0 1 8.11-.531c-.73.418-1.546.625-2.453.625Zm0-1.14c.664 0 1.266-.15 1.797-.454.54-.313.957-.75 1.25-1.313.3-.562.453-1.203.453-1.921 0-.72-.152-1.36-.453-1.922a3.104 3.104 0 0 0-1.25-1.297 3.484 3.484 0 0 0-1.797-.469c-.68 0-1.281.156-1.812.469a3.314 3.314 0 0 0-1.266 1.297c-.305.562-.453 1.203-.453 1.922 0 .718.148 1.359.453 1.921.313.563.735 1 1.266 1.313.531.305 1.133.453 1.812.453Zm0 0"/><path id="j" d="M3-7.61c.3-.632.75-1.113 1.344-1.437.593-.332 1.328-.5 2.203-.5v1.25l-.297-.015c-1 0-1.781.308-2.344.921-.562.606-.844 1.461-.844 2.563V0h-1.28v-9.469H3Zm0 0"/><path id="k" d="M6.766-.578c-.243.219-.54.387-.891.5a3.639 3.639 0 0 1-1.11.172c-.886 0-1.57-.239-2.046-.719C2.239-1.102 2-1.781 2-2.656v-5.735H.312v-1.078H2v-2.062h1.281v2.062h2.875v1.078H3.281v5.657c0 .562.14.992.422 1.28.281.294.68.438 1.203.438.27 0 .524-.039.766-.125.25-.082.46-.203.64-.359Zm0 0"/><path id="m" d="M4.906-12.36c-.543 0-.96.153-1.25.454-.281.293-.422.734-.422 1.328v1.11h2.922v1.077H3.281V0H2v-8.39H.312V-9.47H2v-1.172c0-.863.242-1.546.734-2.046.5-.508 1.207-.766 2.125-.766.364 0 .711.055 1.047.156.332.106.614.25.844.438l-.438.968c-.367-.312-.835-.468-1.406-.468Zm0 0"/><path id="n" d="M.375 3.578c-.395 0-.77-.055-1.125-.156a2.097 2.097 0 0 1-.875-.453L-1.172 2c.375.32.871.484 1.484.484.5 0 .883-.152 1.157-.453.27-.304.406-.746.406-1.328V-9.469h1.281V.703c0 .883-.246 1.582-.734 2.094-.48.52-1.164.781-2.047.781Zm2.14-15.125a.932.932 0 0 1-.671-.265.915.915 0 0 1-.266-.657c0-.238.086-.445.266-.625a.915.915 0 0 1 .672-.281c.27 0 .492.09.671.266.176.18.266.386.266.625 0 .261-.09.484-.265.671a.907.907 0 0 1-.672.266Zm0 0"/><path id="o" d="M1.781-9.469h1.282V0H1.78Zm.64-2.062a.932.932 0 0 1-.671-.266.915.915 0 0 1-.266-.656c0-.238.086-.445.266-.625a.915.915 0 0 1 .672-.281c.27 0 .492.09.672.265.176.18.265.387.265.625 0 .262-.09.485-.265.672a.907.907 0 0 1-.672.266Zm0 0"/><path id="p" d="M6.61-9.547c1.187 0 2.128.352 2.827 1.047.708.688 1.063 1.695 1.063 3.016V0H9.219v-5.36c0-.988-.25-1.738-.75-2.25-.492-.519-1.188-.78-2.094-.78-1.023 0-1.828.308-2.422.921-.594.606-.89 1.438-.89 2.5V0H1.78v-9.469H3v1.75a3.523 3.523 0 0 1 1.453-1.343c.613-.32 1.332-.485 2.156-.485Zm0 0"/><path id="q" d="M10.547-9.469v8.313c0 1.613-.399 2.804-1.188 3.578-.78.77-1.964 1.156-3.546 1.156-.875 0-1.711-.133-2.5-.39-.782-.25-1.418-.606-1.907-1.063l.64-.969c.458.407 1.017.723 1.673.953a6.278 6.278 0 0 0 2.062.344c1.196 0 2.078-.281 2.64-.844.563-.554.845-1.418.845-2.593v-1.22A3.847 3.847 0 0 1 7.703-.827c-.637.312-1.344.469-2.125.469-.887 0-1.695-.192-2.422-.579a4.37 4.37 0 0 1-1.719-1.64c-.406-.707-.609-1.504-.609-2.39 0-.884.203-1.677.61-2.376A4.341 4.341 0 0 1 3.14-8.969c.726-.383 1.539-.578 2.437-.578.8 0 1.524.168 2.172.5.656.324 1.18.79 1.578 1.39v-1.812ZM5.703-1.5c.688 0 1.305-.145 1.86-.438.55-.289.976-.695 1.28-1.218.313-.531.47-1.133.47-1.813 0-.664-.157-1.258-.47-1.781a3.146 3.146 0 0 0-1.28-1.234c-.543-.29-1.165-.438-1.86-.438-.68 0-1.293.149-1.844.438a3.13 3.13 0 0 0-1.28 1.218c-.306.532-.454 1.133-.454 1.797 0 .68.148 1.282.453 1.813.313.523.738.93 1.281 1.219.551.292 1.164.437 1.844.437Zm0 0"/><path id="r" d="M12.578-12.594V0h-1.094L3.391-10.219V0H2.047v-12.594h1.11l8.109 10.219v-10.219Zm0 0"/><path id="s" d="M9.953-3.36H2.938L1.421 0H.032l5.765-12.594h1.312L12.875 0h-1.406ZM9.47-4.452 6.438-11.22 3.421-4.453Zm0 0"/><path id="t" d="M4.5-11.453H.078v-1.14h10.188v1.14H5.828V0H4.5Zm0 0"/><path id="u" d="M7.563.11c-1.25 0-2.387-.274-3.407-.829a6.188 6.188 0 0 1-2.375-2.297c-.562-.976-.843-2.07-.843-3.28 0-1.22.28-2.313.843-3.282a6.094 6.094 0 0 1 2.375-2.281c1.02-.563 2.157-.844 3.407-.844s2.375.277 3.375.828c1 .555 1.785 1.32 2.359 2.297.582.969.875 2.062.875 3.281 0 1.211-.293 2.305-.875 3.281a6.088 6.088 0 0 1-2.36 2.297c-1 .555-2.124.828-3.374.828Zm0-1.188c.988 0 1.882-.223 2.687-.672a4.873 4.873 0 0 0 1.89-1.875c.458-.8.688-1.691.688-2.672 0-.988-.23-1.879-.687-2.672a4.77 4.77 0 0 0-1.891-1.875c-.805-.445-1.7-.672-2.688-.672-1 0-1.906.227-2.718.672a4.993 4.993 0 0 0-1.907 1.875c-.46.793-.687 1.684-.687 2.672 0 .98.227 1.871.688 2.672A5.105 5.105 0 0 0 4.843-1.75c.812.45 1.718.672 2.718.672Zm0 0"/><path id="v" d="M3.39-11.453V-6.5h6.516v1.156H3.391V0H2.047v-12.594h8.64v1.14Zm0 0"/><path id="w" d="M1.781-13.36h1.282V0H1.78Zm0 0"/><path id="x" d="M5.094-9.547c1.238 0 2.187.313 2.843.938.657.617.985 1.527.985 2.734V0H7.703v-1.469c-.293.492-.719.875-1.281 1.157-.555.273-1.211.406-1.969.406-1.062 0-1.906-.25-2.531-.75-.625-.508-.938-1.176-.938-2 0-.813.29-1.461.875-1.953.582-.489 1.508-.735 2.782-.735h3.015v-.578c0-.812-.23-1.43-.687-1.86-.461-.425-1.125-.64-2-.64-.606 0-1.184.102-1.735.297-.554.2-1.027.469-1.421.813l-.579-.954a5.218 5.218 0 0 1 1.735-.937 6.637 6.637 0 0 1 2.125-.344ZM4.64-.922c.718 0 1.332-.16 1.843-.484.52-.332.91-.813 1.172-1.438V-4.39H4.688c-1.625 0-2.438.563-2.438 1.688 0 .555.207.992.625 1.312.426.313 1.016.47 1.766.47Zm0 0"/><path id="y" d="M10.422-13.36V0H9.203v-1.875A4.002 4.002 0 0 1 7.672-.406c-.625.336-1.336.5-2.125.5-.887 0-1.695-.203-2.422-.61a4.433 4.433 0 0 1-1.688-1.718c-.406-.727-.609-1.563-.609-2.5 0-.938.203-1.77.61-2.5a4.366 4.366 0 0 1 1.687-1.704c.727-.406 1.535-.609 2.422-.609.77 0 1.46.164 2.078.485a3.912 3.912 0 0 1 1.516 1.39v-5.687ZM5.656-1.046c.657 0 1.25-.148 1.782-.453.539-.313.96-.75 1.265-1.313.3-.562.453-1.203.453-1.921 0-.72-.152-1.36-.453-1.922a3.212 3.212 0 0 0-1.265-1.297 3.447 3.447 0 0 0-1.782-.469c-.68 0-1.281.156-1.812.469a3.314 3.314 0 0 0-1.266 1.297c-.305.562-.453 1.203-.453 1.922 0 .718.148 1.359.453 1.921.313.563.735 1 1.266 1.313.531.305 1.133.453 1.812.453Zm0 0"/><path id="z" d="M3.313.063c-.543 0-1.028-.141-1.454-.422-.418-.29-.746-.704-.984-1.235C.633-2.133.515-2.77.515-3.5c0-.727.118-1.36.36-1.89.238-.54.566-.954.984-1.235a2.53 2.53 0 0 1 1.454-.438c.539 0 1.019.149 1.437.438.426.281.758.695 1 1.234.238.532.36 1.164.36 1.891 0 .73-.122 1.367-.36 1.906-.242.532-.574.946-1 1.235a2.517 2.517 0 0 1-1.438.421Zm0-.657c.406 0 .757-.113 1.062-.344.313-.226.555-.554.734-.984.176-.437.266-.96.266-1.578 0-.613-.09-1.133-.266-1.563-.18-.437-.421-.769-.734-1a1.73 1.73 0 0 0-1.063-.343c-.406 0-.765.117-1.078.343-.312.231-.558.563-.734 1-.168.43-.25.95-.25 1.563 0 .617.082 1.14.25 1.578.176.43.422.758.734.984.313.231.672.344 1.079.344Zm0 0"/><path id="A" d="M2-3.25c-.469 0-.852-.172-1.14-.516-.294-.351-.438-.816-.438-1.39 0-.563.144-1.016.437-1.36.29-.351.672-.53 1.141-.53s.848.171 1.14.515c.29.343.438.804.438 1.375 0 .574-.148 1.039-.437 1.39A1.427 1.427 0 0 1 2-3.25ZM6.234-7h.594L2.047 0h-.594ZM2-3.703c.32 0 .582-.125.781-.375.196-.258.297-.617.297-1.078 0-.446-.101-.797-.297-1.047A.946.946 0 0 0 2-6.593a.95.95 0 0 0-.797.39c-.187.262-.281.61-.281 1.047 0 .449.094.804.281 1.062a.94.94 0 0 0 .797.39ZM6.297.047c-.469 0-.856-.172-1.156-.516-.293-.351-.438-.812-.438-1.375 0-.57.145-1.031.438-1.375.3-.351.687-.531 1.156-.531.469 0 .848.18 1.14.531.29.344.438.805.438 1.375 0 .563-.148 1.024-.438 1.375a1.427 1.427 0 0 1-1.14.516Zm0-.453a.907.907 0 0 0 .781-.39c.195-.259.297-.61.297-1.048 0-.445-.102-.8-.297-1.062a.917.917 0 0 0-.781-.39.95.95 0 0 0-.797.39c-.2.25-.297.605-.297 1.062 0 .45.098.805.297 1.063.195.25.46.375.797.375Zm0 0"/><path id="B" d="M5.297-.64V0H.39v-.516l2.906-2.843c.363-.364.61-.676.734-.938.133-.258.203-.523.203-.797 0-.406-.14-.722-.421-.953-.282-.238-.688-.36-1.22-.36-.812 0-1.448.262-1.905.782l-.5-.438a2.58 2.58 0 0 1 1.03-.734 3.74 3.74 0 0 1 1.438-.266c.719 0 1.285.172 1.703.516.414.336.625.793.625 1.375 0 .367-.086.715-.25 1.047-.156.336-.46.715-.906 1.14L1.453-.64Zm0 0"/><path id="C" d="M2.36-4.125c1.007 0 1.742.184 2.203.547.468.355.703.86.703 1.515 0 .407-.094.774-.282 1.094-.187.324-.476.578-.859.766-.375.18-.84.266-1.39.266-.5 0-.981-.083-1.438-.25C.847-.353.488-.57.219-.845l.344-.562c.238.242.546.437.921.593.383.149.797.22 1.235.22.582 0 1.031-.13 1.344-.391.32-.258.484-.61.484-1.047 0-.477-.184-.836-.547-1.078-.355-.25-.953-.375-1.797-.375h-1.5L1.063-7h3.843v.64H1.703l-.25 2.235Zm0 0"/><path id="D" d="M5.453-7v.516L2.531 0H1.75l2.875-6.36H1.031v1.313H.313V-7Zm0 0"/><path id="E" d="M2.453-7v7h-.719v-6.36H.094V-7Zm0 0"/><path id="F" d="M2.703-7.063c.926 0 1.633.31 2.125.922.488.606.734 1.465.734 2.579 0 .78-.136 1.445-.406 1.984a2.804 2.804 0 0 1-1.11 1.234c-.48.274-1.038.406-1.671.406-.7 0-1.258-.124-1.672-.374L1-.906c.332.23.785.344 1.36.344.769 0 1.374-.243 1.812-.735.445-.5.672-1.21.672-2.14 0-.176-.012-.368-.032-.579-.18.387-.46.684-.843.891-.375.21-.809.313-1.297.313-.461 0-.871-.083-1.235-.25a1.996 1.996 0 0 1-.828-.735c-.199-.32-.296-.691-.296-1.11 0-.425.101-.8.312-1.124.207-.332.488-.586.844-.766a2.795 2.795 0 0 1 1.234-.266Zm.078 3.641c.352 0 .664-.062.938-.187.27-.133.476-.317.625-.547.156-.239.234-.504.234-.797 0-.258-.074-.504-.219-.734a1.44 1.44 0 0 0-.625-.547 2.17 2.17 0 0 0-1-.22c-.511 0-.93.141-1.25.423-.312.273-.468.636-.468 1.093 0 .47.156.84.468 1.11.32.273.754.406 1.297.406Zm0 0"/><path id="G" d="M4.531-3.672c.438.149.774.371 1.016.672.238.293.36.64.36 1.047 0 .406-.118.762-.345 1.062-.218.305-.53.54-.937.704-.406.167-.887.25-1.438.25-.843 0-1.507-.176-1.984-.532-.48-.363-.719-.86-.719-1.484 0-.414.114-.77.344-1.063.227-.289.563-.507 1-.656-.355-.133-.625-.332-.812-.594a1.6 1.6 0 0 1-.282-.937c0-.57.22-1.024.657-1.36.445-.332 1.046-.5 1.796-.5.489 0 .915.079 1.282.235.375.148.664.36.875.64.207.282.312.61.312.985 0 .355-.101.668-.297.937-.199.262-.476.461-.828.594ZM1.453-5.187c0 .386.149.695.453.921.313.22.739.329 1.282.329.53 0 .953-.11 1.265-.329.313-.226.469-.535.469-.921 0-.383-.164-.692-.484-.922-.313-.227-.731-.344-1.25-.344-.543 0-.97.117-1.282.344-.304.23-.453.539-.453.921Zm1.734 4.64c.614 0 1.094-.125 1.438-.375a1.22 1.22 0 0 0 .531-1.031 1.2 1.2 0 0 0-.531-1.031c-.344-.25-.824-.375-1.438-.375-.617 0-1.101.125-1.453.375-.355.25-.53.593-.53 1.03 0 .438.171.782.515 1.032.351.25.843.375 1.468.375Zm0 0"/><path id="H" d="M2.906-4c.727.043 1.285.242 1.672.594.383.355.578.82.578 1.39 0 .407-.101.766-.297 1.079-.199.304-.484.546-.859.734-.375.18-.84.266-1.39.266-.512 0-.993-.083-1.438-.25C.722-.353.363-.57.094-.845l.344-.562c.238.242.55.437.937.593.383.149.797.22 1.234.22.57 0 1.016-.126 1.329-.376.312-.25.468-.597.468-1.047 0-.425-.156-.765-.468-1.015-.313-.25-.79-.375-1.422-.375h-.5v-.531L3.953-6.36H.375V-7h4.5v.516Zm0 0"/><path id="I" d="M3.422-4.188c.457 0 .863.09 1.219.266.363.168.644.414.843.735.196.312.297.68.297 1.093 0 .43-.105.809-.312 1.14-.211.325-.496.575-.86.75-.367.18-.773.266-1.218.266-.93 0-1.641-.3-2.141-.906C.758-1.457.516-2.32.516-3.438c0-.78.129-1.44.39-1.984.27-.539.645-.945 1.125-1.219.489-.28 1.051-.421 1.688-.421.695 0 1.25.125 1.656.375l-.281.593c-.336-.226-.79-.343-1.36-.343-.78 0-1.39.25-1.828.75-.437.492-.656 1.199-.656 2.125 0 .167.008.359.031.578.176-.383.453-.68.828-.891.383-.207.82-.313 1.313-.313ZM3.359-.546c.508 0 .922-.133 1.235-.406.312-.281.468-.649.468-1.11 0-.468-.156-.835-.468-1.109-.313-.27-.742-.406-1.282-.406-.355 0-.667.07-.937.203a1.488 1.488 0 0 0-.64.547c-.15.23-.22.492-.22.781 0 .262.067.508.204.735.144.23.36.417.64.562.282.137.614.203 1 .203Zm0 0"/><path id="J" d="M6.469-1.844H5.062V0h-.718v-1.844H.406v-.515L4.11-7h.797L1.328-2.484h3.047v-1.61h.688v1.61h1.406Zm0 0"/><path id="L" d="m5.922 0-1.61-2.25c-.18.023-.359.031-.546.031H1.875V0h-.734v-7h2.625c.882 0 1.582.215 2.093.64.508.43.766 1.016.766 1.766 0 .543-.14 1-.422 1.375-.273.375-.668.649-1.187.813L6.734 0ZM3.734-2.844c.696 0 1.227-.148 1.594-.453.363-.312.547-.742.547-1.297 0-.57-.184-1.008-.547-1.312-.367-.301-.898-.453-1.594-.453H1.875v3.515Zm0 0"/><path id="M" d="M5.734-5.266V0h-.687v-.953a2.004 2.004 0 0 1-.766.734c-.324.18-.699.266-1.125.266-.687 0-1.23-.188-1.625-.563C1.133-.898.938-1.46.938-2.203v-3.063h.718v2.985c0 .554.133.976.407 1.265.269.282.66.422 1.171.422.551 0 .985-.164 1.297-.5.32-.332.485-.8.485-1.406v-2.766Zm0 0"/><path id="N" d="M2.406.047c-.43 0-.84-.055-1.234-.172C.785-.25.484-.406.266-.594l.312-.562c.219.168.492.308.828.422.332.117.68.171 1.047.171.477 0 .832-.07 1.063-.218a.756.756 0 0 0 .343-.656.54.54 0 0 0-.187-.438 1.188 1.188 0 0 0-.485-.25 5.514 5.514 0 0 0-.765-.172 8.366 8.366 0 0 1-1.031-.25 1.538 1.538 0 0 1-.672-.422c-.18-.195-.266-.472-.266-.828 0-.437.18-.797.547-1.078.363-.281.875-.422 1.531-.422.344 0 .68.047 1.016.14.344.087.625.2.844.345l-.313.578c-.43-.301-.945-.454-1.547-.454-.46 0-.804.086-1.031.25a.723.723 0 0 0-.344.625c0 .2.063.36.188.485.133.117.297.203.484.265.195.055.469.106.813.157.414.086.75.168 1 .25.257.074.476.21.656.406.176.2.266.465.266.797 0 .46-.196.824-.579 1.094-.375.273-.902.406-1.578.406Zm0 0"/><path id="O" d="M.984-5.266h.72V0h-.72Zm.36-1.14a.532.532 0 0 1-.375-.14.532.532 0 0 1-.14-.376c0-.133.046-.25.14-.344a.513.513 0 0 1 .734 0 .438.438 0 0 1 .156.329c0 .156-.054.289-.156.39a.489.489 0 0 1-.36.14Zm0 0"/><path id="P" d="M2.828-5.297c.688 0 1.211.172 1.578.516.364.343.547.851.547 1.515V0h-.672v-.813c-.156.274-.39.485-.703.641-.312.149-.683.219-1.11.219-.585 0-1.054-.14-1.405-.422-.344-.281-.516-.648-.516-1.11 0-.445.16-.804.484-1.077.32-.27.836-.407 1.547-.407H4.25v-.328c0-.445-.133-.789-.39-1.031-.25-.238-.618-.36-1.094-.36-.336 0-.657.06-.97.172a2.633 2.633 0 0 0-.78.454l-.329-.532c.27-.226.586-.398.954-.515.375-.125.77-.188 1.187-.188Zm-.25 4.781c.406 0 .75-.086 1.031-.265.29-.188.504-.453.641-.797v-.86H2.594c-.899 0-1.344.313-1.344.938 0 .305.113.543.344.719.238.18.566.265.984.265Zm0 0"/><path id="R" d="M3.672-5.297c.656 0 1.176.195 1.562.578.395.375.594.934.594 1.672V0h-.703v-2.984c0-.54-.14-.954-.422-1.235-.273-.289-.656-.437-1.156-.437-.574 0-1.027.168-1.36.5-.324.336-.484.797-.484 1.39V0H.984v-5.266h.688v.97a1.96 1.96 0 0 1 .797-.735c.344-.176.742-.266 1.203-.266Zm0 0"/><path id="S" d="M5.406-5.266 3.063 0h-.72L.017-5.266H.75L2.719-.78l1.984-4.485Zm0 0"/><path id="T" d="M5.797-7.422V0h-.688v-1.047c-.21.356-.492.625-.843.813-.356.187-.75.28-1.188.28-.492 0-.937-.108-1.344-.327a2.444 2.444 0 0 1-.937-.953c-.23-.407-.344-.868-.344-1.391 0-.52.113-.984.344-1.39.226-.407.539-.72.937-.938a2.708 2.708 0 0 1 1.344-.344c.426 0 .813.09 1.156.266.344.18.625.433.844.765v-3.156ZM3.14-.578c.363 0 .691-.082.984-.25.3-.176.535-.422.703-.735.176-.312.266-.664.266-1.062 0-.406-.09-.766-.266-1.078a1.756 1.756 0 0 0-.703-.719 1.878 1.878 0 0 0-.984-.266c-.375 0-.715.09-1.016.266a1.744 1.744 0 0 0-.688.719c-.167.312-.25.672-.25 1.078 0 .398.083.75.25 1.063.165.312.395.558.688.734.3.168.64.25 1.016.25Zm0 0"/><path id="U" d="M5.563-2.406H1.171c.039.543.25.984.625 1.328.383.336.863.5 1.437.5.332 0 .633-.055.907-.172.27-.125.504-.297.703-.516l.406.454a2.19 2.19 0 0 1-.875.64 2.973 2.973 0 0 1-1.156.219c-.543 0-1.024-.113-1.438-.344a2.51 2.51 0 0 1-.984-.953 2.732 2.732 0 0 1-.344-1.375c0-.52.11-.984.328-1.39.227-.407.535-.72.922-.938a2.618 2.618 0 0 1 1.328-.344c.489 0 .926.117 1.313.344.383.219.687.531.906.937.219.407.328.871.328 1.391ZM3.03-4.687c-.511 0-.937.164-1.281.484-.344.324-.54.746-.578 1.266h3.734c-.054-.52-.25-.942-.593-1.266-.344-.32-.774-.484-1.282-.484Zm0 0"/><path id="V" d="M3.953.063c-.906 0-1.617-.258-2.125-.782-.5-.52-.75-1.273-.75-2.265V-7h.734v3.984c0 .813.18 1.422.547 1.829.375.398.907.593 1.594.593.707 0 1.242-.195 1.61-.594.363-.406.546-1.015.546-1.828V-7h.72v4.016c0 .992-.259 1.746-.766 2.265-.5.524-1.204.781-2.11.781Zm0 0"/><path id="W" d="M2.938-2.64 1.702-1.5V0H.984v-7.422h.72v5.031l3.14-2.875h.875l-2.25 2.157L5.938 0h-.875Zm0 0"/><path id="X" d="M1.672-4.234c.164-.352.41-.618.734-.797.332-.176.742-.266 1.235-.266v.688l-.172-.016c-.555 0-.985.172-1.297.516-.313.343-.469.82-.469 1.421V0H.984v-5.266h.688Zm0 0"/><path id="Z" d="M2.39-2.922v2.719h.25c.051 0 .087.012.11.031.02.024.031.047.031.078 0 .024-.011.043-.031.063-.023.023-.059.031-.11.031h-.453v-.39c-.23.312-.515.468-.859.468-.18 0-.351-.047-.516-.14a1.03 1.03 0 0 1-.375-.391A1.151 1.151 0 0 1 .297-1c0-.188.047-.363.14-.531.094-.176.22-.313.376-.407.164-.093.335-.14.515-.14.344 0 .629.152.86.453v-1.094h-.266c-.043 0-.074-.008-.094-.031-.023-.02-.031-.047-.031-.078 0-.02.008-.04.031-.063.02-.02.05-.03.094-.03ZM2.188-1a.86.86 0 0 0-.25-.625.8.8 0 0 0-.593-.266.802.802 0 0 0-.61.266.845.845 0 0 0-.25.625c0 .242.082.45.25.625.164.168.368.25.61.25a.812.812 0 0 0 .593-.25.887.887 0 0 0 .25-.625Zm0 0"/><path id="aa" d="M1.438 0 .53-1.813H.484c-.054 0-.09-.007-.109-.03-.023-.02-.031-.048-.031-.079 0-.02.004-.035.015-.047C.367-1.989.38-2 .391-2a.255.255 0 0 1 .093-.016h.532c.039 0 .07.012.093.032.02.023.032.043.032.062a.11.11 0 0 1-.032.078c-.023.024-.054.032-.093.032H.75L1.547-.22l.781-1.593h-.25c-.055 0-.09-.008-.11-.032-.023-.02-.03-.047-.03-.078 0-.02.007-.039.03-.062.02-.02.055-.032.11-.032h.531c.04 0 .07.012.094.032.02.023.031.043.031.062 0 .024-.007.043-.015.063a.091.091 0 0 1-.047.046h-.125L1.312.704h.297c.051 0 .086.004.11.016a.11.11 0 0 1 .031.078c0 .031-.012.05-.031.062-.024.02-.059.032-.11.032H.484C.441.89.41.879.391.859.367.848.359.83.359.797.36.766.367.738.391.719.41.707.44.703.484.703h.61Zm0 0"/><path id="ab" d="M.797-2.016v.297c.133-.133.254-.226.36-.281a.942.942 0 0 1 .39-.078.9.9 0 0 1 .406.094c.082.043.16.12.234.234.07.105.11.215.11.328v1.219h.156c.05 0 .082.012.094.031.02.024.031.047.031.078 0 .024-.012.043-.031.063-.012.023-.043.031-.094.031h-.515c-.055 0-.09-.008-.11-.031-.023-.02-.031-.04-.031-.063a.1.1 0 0 1 .031-.078c.02-.02.055-.031.11-.031h.156v-1.188a.458.458 0 0 0-.156-.343.53.53 0 0 0-.407-.157.68.68 0 0 0-.328.079c-.094.054-.23.183-.406.39v1.219h.219c.05 0 .086.012.109.031.02.024.031.047.031.078 0 .024-.011.043-.031.063-.023.023-.059.031-.11.031h-.64C.332 0 .301-.008.281-.031.258-.051.25-.071.25-.094a.1.1 0 0 1 .031-.078c.02-.02.051-.031.094-.031h.234v-1.61H.438c-.043 0-.075-.007-.094-.03-.024-.02-.031-.048-.031-.079 0-.02.007-.039.03-.062.02-.02.052-.032.094-.032Zm0 0"/><path id="ac" d="M2.516-1c0 .293-.11.547-.329.766-.21.21-.46.312-.75.312-.312 0-.574-.101-.78-.312A1.062 1.062 0 0 1 .343-1c0-.3.101-.555.312-.766.207-.207.469-.312.781-.312.29 0 .54.105.75.312.22.211.329.465.329.766Zm-.188 0a.83.83 0 0 0-.265-.625.882.882 0 0 0-.641-.266c-.242 0-.45.09-.625.266A.816.816 0 0 0 .53-1c0 .242.086.45.266.625a.87.87 0 0 0 .625.25.9.9 0 0 0 .64-.25A.854.854 0 0 0 2.329-1Zm0 0"/><path id="ad" d="M.547-2.016v.204c.156-.176.32-.266.5-.266.094 0 .176.027.25.078a.633.633 0 0 1 .203.234c.082-.101.164-.18.25-.234a.589.589 0 0 1 .281-.078c.133 0 .242.043.328.125a.586.586 0 0 1 .172.39v1.36h.172c.04 0 .07.012.094.031.02.024.031.047.031.078 0 .024-.012.043-.031.063-.024.023-.055.031-.094.031h-.36v-1.547a.318.318 0 0 0-.093-.234.291.291 0 0 0-.219-.11.452.452 0 0 0-.234.079c-.074.054-.156.164-.25.328v1.28h.156c.04 0 .07.013.094.032.02.024.031.047.031.078 0 .024-.012.043-.031.063-.024.023-.055.031-.094.031h-.36v-1.531a.342.342 0 0 0-.093-.25c-.063-.07-.133-.11-.203-.11a.315.315 0 0 0-.203.079 1.136 1.136 0 0 0-.297.328v1.28h.156c.05 0 .082.013.094.032.02.024.031.047.031.078 0 .024-.012.043-.031.063C.785-.008.754 0 .703 0H.172C.129 0 .098-.008.078-.031.055-.051.047-.071.047-.094a.1.1 0 0 1 .031-.078c.02-.02.05-.031.094-.031h.172v-1.61H.172c-.043 0-.074-.007-.094-.03-.023-.02-.031-.048-.031-.079 0-.02.008-.039.031-.062.02-.02.05-.032.094-.032Zm0 0"/><path id="ae" d="M1.531-3.016v.5h-.297v-.5Zm0 1v1.813h.766c.05 0 .086.012.11.031.019.024.03.047.03.078 0 .024-.011.043-.03.063-.024.023-.06.031-.11.031H.562C.52 0 .488-.008.47-.031.445-.051.438-.071.438-.094a.1.1 0 0 1 .03-.078c.02-.02.052-.031.094-.031h.782v-1.61H.766c-.043 0-.075-.007-.094-.03-.024-.02-.031-.048-.031-.079 0-.02.007-.039.03-.062.02-.02.052-.032.095-.032Zm0 0"/><path id="af" d="M2.094-1.656v-.36h.453c.039 0 .07.012.094.032.02.023.03.043.03.062a.11.11 0 0 1-.03.078c-.024.024-.055.032-.094.032H2.28V.14a.78.78 0 0 1-.078.343.859.859 0 0 1-.203.22.772.772 0 0 1-.234.14.653.653 0 0 1-.282.047H.938C.882.89.848.879.828.859.816.848.813.83.813.797c0-.031.003-.059.015-.078.02-.012.055-.016.11-.016H1.5A.554.554 0 0 0 1.813.61.553.553 0 0 0 2.03.36a.473.473 0 0 0 .063-.25v-.593c-.219.293-.492.437-.813.437a.948.948 0 0 1-.703-.297 1.003 1.003 0 0 1-.281-.719c0-.28.094-.519.281-.718a.963.963 0 0 1 .703-.297c.32 0 .594.14.813.422Zm0 .593a.774.774 0 0 0-.25-.578.753.753 0 0 0-.563-.25.753.753 0 0 0-.562.25.79.79 0 0 0-.235.579c0 .23.079.421.235.578a.767.767 0 0 0 .562.234.767.767 0 0 0 .563-.234.768.768 0 0 0 .25-.579Zm0 0"/><path id="ag" d="M.781-2.922v1.203c.125-.133.242-.226.36-.281a.942.942 0 0 1 .39-.078c.145 0 .27.027.375.078a.587.587 0 0 1 .266.25c.07.105.11.219.11.344v1.203H2.5c.05 0 .086.012.11.031.019.024.03.047.03.078 0 .024-.011.043-.03.063C2.585-.008 2.55 0 2.5 0h-.625c-.055 0-.09-.008-.11-.031-.023-.02-.03-.04-.03-.063a.1.1 0 0 1 .03-.078c.02-.02.055-.031.11-.031h.219v-1.188a.473.473 0 0 0-.156-.359.612.612 0 0 0-.422-.14.645.645 0 0 0-.375.109 3.087 3.087 0 0 0-.36.343v1.235H1c.05 0 .086.012.11.031.019.024.03.047.03.078 0 .024-.011.043-.03.063C1.085-.008 1.05 0 1 0H.375C.32 0 .285-.008.265-.031c-.023-.02-.03-.04-.03-.063a.1.1 0 0 1 .03-.078c.02-.02.055-.031.11-.031h.219V-2.72H.328c-.043 0-.074-.008-.094-.031-.023-.02-.03-.047-.03-.078 0-.02.007-.04.03-.063.02-.02.051-.03.094-.03Zm0 0"/><path id="ah" d="M1.031-2.016h1.063c.039 0 .07.012.094.032.019.023.03.043.03.062a.11.11 0 0 1-.03.078c-.024.024-.055.032-.094.032H1.03v1.296c0 .118.04.211.125.282.094.074.227.109.407.109.132 0 .273-.016.421-.047.157-.039.274-.086.36-.14.031-.02.054-.032.078-.032.031 0 .05.012.062.031.02.024.032.043.032.063a.11.11 0 0 1-.032.078c-.043.043-.164.094-.359.156a1.73 1.73 0 0 1-.547.094c-.23 0-.414-.055-.547-.156a.539.539 0 0 1-.203-.438v-1.296h-.36c-.042 0-.073-.008-.093-.032-.023-.02-.031-.047-.031-.078 0-.02.008-.039.031-.062.02-.02.05-.032.094-.032h.36v-.578c0-.039.007-.07.03-.094.02-.019.04-.03.063-.03.031 0 .055.011.078.03.02.024.031.055.031.094Zm0 0"/><path id="ai" d="M1.39-.563h.079c.093 0 .172.032.234.094a.302.302 0 0 1-.016.453.34.34 0 0 1-.218.079H1.39a.333.333 0 0 1-.22-.079.318.318 0 0 1-.093-.234c0-.082.031-.156.094-.219a.296.296 0 0 1 .219-.094Zm0 0"/><path id="aj" d="M2.484-.969H.5a.938.938 0 0 0 .313.625.98.98 0 0 0 .656.219c.144 0 .297-.02.453-.063.164-.05.3-.113.406-.187.02-.031.047-.047.078-.047.02 0 .035.012.047.031.02.024.031.047.031.079 0 .023-.011.046-.03.078-.075.074-.212.148-.407.218a1.828 1.828 0 0 1-.578.094c-.336 0-.617-.11-.844-.328a1.085 1.085 0 0 1-.328-.797c0-.281.101-.52.312-.719.207-.207.47-.312.782-.312.32 0 .582.105.78.312.208.211.313.477.313.797Zm-.187-.187a.895.895 0 0 0-.906-.735.92.92 0 0 0-.594.204.894.894 0 0 0-.297.53Zm0 0"/><clipPath id="b"><path d="M0 127h18v22H0Zm0 0"/></clipPath><clipPath id="c"><path d="M171 172h21v17.445h-21Zm0 0"/></clipPath><clipPath id="d"><path d="M313 .445h21V18h-21Zm0 0"/></clipPath><clipPath id="e"><path d="M326 16h18v21h-18Zm0 0"/></clipPath><clipPath id="a"><path d="M0 0h344v190H0z"/></clipPath><clipPath id="Y"><path d="M344.195 289h37.176v4.91h-37.176Zm0 0"/></clipPath><g id="K" clip-path="url(#a)"><g clip-path="url(#b)"><path fill="none" stroke="#000" d="M11.59 137.86a4.501 4.501 0 1 1-9.002-.003 4.501 4.501 0 0 1 9.002.002Zm0 0"/></g><path fill="none" stroke="#000" d="M24.762 177.355a4.501 4.501 0 1 1-8.998-.002 4.501 4.501 0 0 1 8.998.002ZM40.176 167.48a4.501 4.501 0 0 1-9 0 4.501 4.501 0 0 1 9 0ZM67.64 172.418a4.501 4.501 0 1 1-8.998-.002 4.501 4.501 0 0 1 8.999.002ZM80.816 167.48a4.501 4.501 0 0 1-9 0 4.501 4.501 0 0 1 9 0ZM92.906 162.543a4.501 4.501 0 1 1-8.998-.002 4.501 4.501 0 0 1 8.998.002ZM102.797 147.734a4.501 4.501 0 1 1-9.002-.002 4.501 4.501 0 0 1 9.002.002ZM106.082 167.48a4.501 4.501 0 0 1-9 0 4.501 4.501 0 0 1 9 0ZM115.973 152.668c0 2.488-2.016 4.5-4.5 4.5a4.496 4.496 0 0 1-4.5-4.5 4.501 4.501 0 0 1 9 0ZM119.258 167.48a4.501 4.501 0 1 1-9.003-.002 4.501 4.501 0 0 1 9.003.002ZM131.348 152.668c0 2.488-2.016 4.5-4.5 4.5a4.501 4.501 0 1 1 4.5-4.5ZM132.43 165.012a4.501 4.501 0 0 1-9 0 4.501 4.501 0 0 1 9 0ZM143.438 147.734a4.501 4.501 0 1 1-8.998-.002 4.501 4.501 0 0 1 8.998.002ZM146.758 157.605c0 2.489-2.012 4.5-4.5 4.5a4.501 4.501 0 1 1 4.5-4.5ZM156.613 147.734a4.501 4.501 0 1 1-9.002-.002 4.501 4.501 0 0 1 9.002.002ZM169.785 155.137c0 2.488-2.012 4.5-4.5 4.5a4.501 4.501 0 1 1 4.5-4.5ZM174.227 169.95a4.501 4.501 0 0 1-9 0 4.501 4.501 0 0 1 9 0ZM185.164 167.48a4.501 4.501 0 1 1-9.002-.002 4.501 4.501 0 0 1 9.002.002Zm0 0"/><g clip-path="url(#c)"><path fill="none" stroke="#000" d="M186.281 182.293a4.501 4.501 0 1 1-9.002-.002 4.501 4.501 0 0 1 9.002.002Zm0 0"/></g><path fill="none" stroke="#000" d="M196.172 172.418a4.501 4.501 0 0 1-9 0 4.501 4.501 0 0 1 9 0Zm0 0"/><path fill="none" stroke="#000" d="M199.492 172.418a4.501 4.501 0 0 1-9 0 4.501 4.501 0 0 1 9 0ZM204.941 145.266a4.501 4.501 0 1 1-9.002-.003 4.501 4.501 0 0 1 9.002.003ZM209.344 165.012a4.501 4.501 0 1 1-8.998-.002 4.501 4.501 0 0 1 8.998.002Zm0 0"/><path fill="none" stroke="#000" d="M212.668 172.418a4.501 4.501 0 1 1-9.002-.002 4.501 4.501 0 0 1 9.002.002ZM222.52 142.797a4.501 4.501 0 1 1-9.003-.002 4.501 4.501 0 0 1 9.003.002ZM225.84 152.668c0 2.488-2.016 4.5-4.5 4.5a4.501 4.501 0 1 1 4.5-4.5ZM236.813 150.203a4.501 4.501 0 1 1-9.003-.002 4.501 4.501 0 0 1 9.002.002Zm0 0"/><path fill="none" stroke="#000" d="M239.016 150.203a4.501 4.501 0 1 1-9.003-.002 4.501 4.501 0 0 1 9.003.002ZM248.902 155.137c0 2.488-2.011 4.5-4.5 4.5a4.501 4.501 0 1 1 4.5-4.5Zm0 0"/><path fill="none" stroke="#000" d="M252.227 155.137c0 2.488-2.016 4.5-4.5 4.5a4.496 4.496 0 0 1-4.5-4.5 4.501 4.501 0 0 1 9 0ZM260.996 162.543a4.501 4.501 0 0 1-9 0 4.501 4.501 0 0 1 9 0Zm0 0"/><path fill="none" stroke="#000" d="M262.078 162.543a4.501 4.501 0 0 1-9 0 4.501 4.501 0 0 1 9 0Zm0 0"/><path fill="none" stroke="#000" d="M264.281 169.95a4.501 4.501 0 1 1-9.002-.003 4.501 4.501 0 0 1 9.002.002ZM274.168 160.074c0 2.488-2.012 4.5-4.5 4.5a4.501 4.501 0 1 1 4.5-4.5Zm0 0"/><path fill="none" stroke="#000" d="M275.254 167.48a4.501 4.501 0 1 1-9.002-.002 4.501 4.501 0 0 1 9.002.002ZM288.426 162.543a4.501 4.501 0 0 1-9 0 4.501 4.501 0 0 1 9 0Zm0 0"/><path fill="none" stroke="#000" d="M289.547 167.48a4.501 4.501 0 1 1-9.002-.002 4.501 4.501 0 0 1 9.002.002ZM300.555 165.012a4.501 4.501 0 0 1-9 0 4.501 4.501 0 0 1 9 0Zm0 0"/><path fill="none" stroke="#000" d="M301.637 162.543a4.501 4.501 0 0 1-9 0 4.501 4.501 0 0 1 9 0ZM313.727 157.605c0 2.489-2.012 4.5-4.5 4.5a4.501 4.501 0 1 1 4.5-4.5Zm0 0"/><path fill="none" stroke="#000" d="M314.813 152.668c0 2.488-2.016 4.5-4.5 4.5a4.496 4.496 0 0 1-4.5-4.5 4.501 4.501 0 0 1 9 0Zm0 0"/><path fill="none" stroke="#000" d="M318.383 147.734a4.501 4.501 0 1 1-8.998-.002 4.501 4.501 0 0 1 8.998.002Zm0 0"/><path fill="none" stroke="#000" d="M318.746 142.797a4.501 4.501 0 1 1-9.002-.002 4.501 4.501 0 0 1 9.002.002ZM320.082 86.02a4.501 4.501 0 1 1-9.002-.003 4.501 4.501 0 0 1 9.002.003ZM320.262 98.363a4.501 4.501 0 0 1-9 0 4.501 4.501 0 0 1 9 0ZM320.586 63.805a4.501 4.501 0 1 1-9.002-.003 4.501 4.501 0 0 1 9.002.003Zm0 0"/><path fill="none" stroke="#000" d="M320.55 68.742a4.501 4.501 0 1 1-9.002-.002 4.501 4.501 0 0 1 9.003.002Zm0 0"/><path fill="none" stroke="#000" d="M320.695 66.273a4.501 4.501 0 1 1-9.002-.002 4.501 4.501 0 0 1 9.002.002ZM320.945 83.55a4.501 4.501 0 1 1-8.998-.002 4.501 4.501 0 0 1 8.998.003Zm0 0"/><path fill="none" stroke="#000" d="M321.273 66.273a4.501 4.501 0 1 1-9.002-.002 4.501 4.501 0 0 1 9.002.002ZM321.633 48.992a4.501 4.501 0 0 1-9 0 4.501 4.501 0 0 1 9 0Zm0 0"/><path fill="none" stroke="#000" d="M321.703 71.207c0 2.488-2.012 4.5-4.5 4.5a4.501 4.501 0 1 1 4.5-4.5ZM322.246 56.398a4.501 4.501 0 0 1-9 0 4.501 4.501 0 0 1 9 0Zm0 0"/><path fill="none" stroke="#000" d="M322.066 48.992a4.501 4.501 0 0 1-9 0 4.501 4.501 0 0 1 9 0ZM322.605 29.246a4.501 4.501 0 1 1-8.998-.002 4.501 4.501 0 0 1 8.998.002Zm0 0"/><path fill="none" stroke="#000" d="M322.79 36.648c0 2.489-2.017 4.5-4.5 4.5a4.496 4.496 0 0 1-4.5-4.5 4.501 4.501 0 0 1 9 0ZM324.375 21.84a4.501 4.501 0 1 1-9.002-.002 4.501 4.501 0 0 1 9.002.002Zm0 0"/><g clip-path="url(#d)"><path fill="none" stroke="#000" d="M327.77 7.027a4.501 4.501 0 0 1-9 0 4.501 4.501 0 0 1 9 0Zm0 0"/></g><path fill="none" stroke="#000" d="M328.852 24.309a4.501 4.501 0 1 1-9.003-.003 4.501 4.501 0 0 1 9.003.003ZM332.426 14.434a4.501 4.501 0 0 1-9 0 4.501 4.501 0 0 1 9 0Zm0 0"/><g clip-path="url(#e)"><path fill="none" stroke="#000" d="M341.016 26.777a4.501 4.501 0 1 1-9.003-.002 4.501 4.501 0 0 1 9.003.002Zm0 0"/></g></g></defs><use xlink:href="#f" x="48" y="17.446"/><use xlink:href="#g" x="59.07" y="17.446"/><use xlink:href="#h" x="71.184" y="17.446"/><use xlink:href="#h" x="83.388" y="17.446"/><use xlink:href="#i" x="95.592" y="17.446"/><use xlink:href="#j" x="106.878" y="17.446"/><use xlink:href="#k" x="114.366" y="17.446"/><use xlink:href="#l" x="121.674" y="17.446"/><use xlink:href="#m" x="126.39" y="17.446"/><use xlink:href="#i" x="132.33" y="17.446"/><use xlink:href="#j" x="143.616" y="17.446"/><use xlink:href="#l" x="150.834" y="17.446"/><use xlink:href="#n" x="155.55" y="17.446"/><use xlink:href="#i" x="160.482" y="17.446"/><use xlink:href="#o" x="171.768" y="17.446"/><use xlink:href="#p" x="176.61" y="17.446"/><use xlink:href="#o" x="188.796" y="17.446"/><use xlink:href="#p" x="193.638" y="17.446"/><use xlink:href="#q" x="205.86" y="17.446"/><use xlink:href="#l" x="218.208" y="17.446"/><use xlink:href="#r" x="222.924" y="17.446"/><use xlink:href="#s" x="237.558" y="17.446"/><use xlink:href="#t" x="249.834" y="17.446"/><use xlink:href="#u" x="259.986" y="17.446"/><use xlink:href="#l" x="275.088" y="17.446"/><use xlink:href="#o" x="279.804" y="17.446"/><use xlink:href="#p" x="284.646" y="17.446"/><use xlink:href="#l" x="296.832" y="17.446"/><use xlink:href="#v" x="301.548" y="17.446"/><use xlink:href="#o" x="312.762" y="17.446"/><use xlink:href="#p" x="317.604" y="17.446"/><use xlink:href="#w" x="329.79" y="17.446"/><use xlink:href="#x" x="334.632" y="17.446"/><use xlink:href="#p" x="345.252" y="17.446"/><use xlink:href="#y" x="357.474" y="17.446"/><path fill="none" stroke="#000" stroke-width=".5" d="M37 224.945h343M37 162.945h343M37 101.945h343M37 39.945h343"/><use xlink:href="#z" x="11" y="290.446"/><use xlink:href="#A" x="17.62" y="290.446"/><use xlink:href="#B" x="6" y="229.446"/><use xlink:href="#C" x="11.68" y="229.446"/><use xlink:href="#A" x="17.24" y="229.446"/><use xlink:href="#C" x="5" y="167.446"/><use xlink:href="#z" x="10.66" y="167.446"/><use xlink:href="#A" x="17.28" y="167.446"/><use xlink:href="#D" x="6" y="105.446"/><use xlink:href="#C" x="11.7" y="105.446"/><use xlink:href="#A" x="17.26" y="105.446"/><use xlink:href="#E" y="44.446"/><use xlink:href="#z" x="3.61" y="44.446"/><use xlink:href="#z" x="10.23" y="44.446"/><use xlink:href="#A" x="16.85" y="44.446"/><path fill="none" stroke="#000" stroke-linecap="square" d="M37.5 286.945h342"/><use xlink:href="#E" x="26" y="301.446"/><use xlink:href="#F" x="29.61" y="301.446"/><use xlink:href="#F" x="35.7" y="301.446"/><use xlink:href="#G" x="41.79" y="301.446"/><use xlink:href="#B" x="59" y="301.446"/><use xlink:href="#z" x="64.64" y="301.446"/><use xlink:href="#z" x="71.26" y="301.446"/><use xlink:href="#z" x="77.88" y="301.446"/><use xlink:href="#B" x="94" y="301.446"/><use xlink:href="#z" x="99.64" y="301.446"/><use xlink:href="#z" x="106.26" y="301.446"/><use xlink:href="#H" x="112.78" y="301.446"/><use xlink:href="#B" x="128" y="301.446"/><use xlink:href="#z" x="133.64" y="301.446"/><use xlink:href="#z" x="140.26" y="301.446"/><use xlink:href="#C" x="146.88" y="301.446"/><use xlink:href="#B" x="162" y="301.446"/><use xlink:href="#z" x="167.64" y="301.446"/><use xlink:href="#z" x="174.26" y="301.446"/><use xlink:href="#G" x="180.88" y="301.446"/><use xlink:href="#B" x="199" y="301.446"/><use xlink:href="#z" x="204.64" y="301.446"/><use xlink:href="#E" x="211.24" y="301.446"/><use xlink:href="#E" x="214.85" y="301.446"/><use xlink:href="#B" x="232" y="301.446"/><use xlink:href="#z" x="237.64" y="301.446"/><use xlink:href="#E" x="244.24" y="301.446"/><use xlink:href="#H" x="247.85" y="301.446"/><use xlink:href="#B" x="266" y="301.446"/><use xlink:href="#z" x="271.64" y="301.446"/><use xlink:href="#E" x="278.24" y="301.446"/><use xlink:href="#I" x="281.85" y="301.446"/><use xlink:href="#B" x="300" y="301.446"/><use xlink:href="#z" x="305.64" y="301.446"/><use xlink:href="#E" x="312.24" y="301.446"/><use xlink:href="#G" x="315.85" y="301.446"/><use xlink:href="#B" x="335" y="301.446"/><use xlink:href="#z" x="340.64" y="301.446"/><use xlink:href="#B" x="347.24" y="301.446"/><use xlink:href="#E" x="352.92" y="301.446"/><use xlink:href="#B" x="368" y="301.446"/><use xlink:href="#z" x="373.64" y="301.446"/><use xlink:href="#B" x="380.24" y="301.446"/><use xlink:href="#J" x="385.69" y="301.446"/><use xlink:href="#K" transform="translate(40 70)"/><path fill="none" stroke="#004D80" d="M342.5 40.445v246"/><g fill="#004D80"><use xlink:href="#L" x="285" y="32.446"/><use xlink:href="#M" x="292.23" y="32.446"/><use xlink:href="#N" x="298.96" y="32.446"/><use xlink:href="#N" x="303.85" y="32.446"/><use xlink:href="#O" x="308.74" y="32.446"/><use xlink:href="#P" x="311.43" y="32.446"/><use xlink:href="#Q" x="317.33" y="32.446"/><use xlink:href="#O" x="319.95" y="32.446"/><use xlink:href="#R" x="322.64" y="32.446"/></g><use xlink:href="#S" x="329.31" y="32.446" fill="#004D80"/><use xlink:href="#P" x="334.57" y="32.446" fill="#004D80"/><g fill="#004D80"><use xlink:href="#T" x="340.49" y="32.446"/><use xlink:href="#U" x="347.27" y="32.446"/><use xlink:href="#N" x="353.31" y="32.446"/><use xlink:href="#Q" x="358.2" y="32.446"/><use xlink:href="#V" x="360.82" y="32.446"/><use xlink:href="#W" x="368.74" y="32.446"/></g><use xlink:href="#X" x="374.67" y="32.446" fill="#004D80"/><g fill="#004D80"><use xlink:href="#P" x="378.59" y="32.446"/><use xlink:href="#O" x="384.49" y="32.446"/><use xlink:href="#R" x="387.18" y="32.446"/></g><use xlink:href="#U" x="393.97" y="32.446" fill="#004D80"/><g fill="silver" clip-path="url(#Y)"><use xlink:href="#Z" x="344.605" y="292.912"/><use xlink:href="#aa" x="347.465" y="292.912"/><use xlink:href="#ab" x="350.325" y="292.912"/><use xlink:href="#ac" x="353.185" y="292.912"/><use xlink:href="#ad" x="356.045" y="292.912"/><use xlink:href="#ae" x="358.904" y="292.912"/><use xlink:href="#af" x="361.764" y="292.912"/><use xlink:href="#ag" x="364.624" y="292.912"/><use xlink:href="#ah" x="367.484" y="292.912"/><use xlink:href="#ai" x="370.344" y="292.912"/><use xlink:href="#ab" x="373.204" y="292.912"/><use xlink:href="#aj" x="376.064" y="292.912"/><use xlink:href="#ah" x="378.924" y="292.912"/></g></svg>