<?xml version="1.0" encoding="utf-8" standalone="no"?>
<!DOCTYPE svg PUBLIC "-//W3C//DTD SVG 1.1//EN"
  "http://www.w3.org/Graphics/SVG/1.1/DTD/svg11.dtd">
<svg xmlns:xlink="http://www.w3.org/1999/xlink" width="326.890625pt" height="188.209928pt" viewBox="0 0 326.890625 188.209928" xmlns="http://www.w3.org/2000/svg" version="1.1">
 <metadata>
  <rdf:RDF xmlns:dc="http://purl.org/dc/elements/1.1/" xmlns:cc="http://creativecommons.org/ns#" xmlns:rdf="http://www.w3.org/1999/02/22-rdf-syntax-ns#">
   <cc:Work>
    <dc:type rdf:resource="http://purl.org/dc/dcmitype/StillImage"/>
    <dc:date>2024-08-08T08:27:55.935879</dc:date>
    <dc:format>image/svg+xml</dc:format>
    <dc:creator>
     <cc:Agent>
      <dc:title>Matplotlib v3.5.1, https://matplotlib.org/</dc:title>
     </cc:Agent>
    </dc:creator>
   </cc:Work>
  </rdf:RDF>
 </metadata>
 <defs>
  <style type="text/css">*{stroke-linejoin: round; stroke-linecap: butt}</style>
 </defs>
 <g id="figure_1">
  <g id="patch_1">
   <path d="M 0 188.209928 
L 326.890625 188.209928 
L 326.890625 0 
L 0 0 
z
" style="fill: #ffffff"/>
  </g>
  <g id="axes_1">
   <g id="patch_2">
    <path d="M 40.690625 151.388053 
L 319.690625 151.388053 
L 319.690625 40.508053 
L 40.690625 40.508053 
z
" style="fill: #ffffff"/>
   </g>
   <g id="line2d_1">
    <path d="M 78.117454 140.418641 
L 90.48996 142.395112 
L 102.862465 136.4657 
L 115.234971 144.371582 
L 127.607476 136.4657 
L 139.979982 136.4657 
L 152.352488 136.4657 
L 164.724993 124.606876 
L 189.470004 45.548053 
L 201.84251 122.630406 
L 214.215015 104.84217 
L 226.587521 98.912759 
L 238.960026 114.724523 
L 251.332532 118.677465 
L 263.705037 102.8657 
L 276.077543 106.818641 
L 288.450049 98.912759 
L 300.822554 92.983347 
" clip-path="url(#p25f484aa3e)" style="fill: none; stroke: #000000; stroke-width: 0.886227"/>
   </g>
   <g id="matplotlib.axis_1">
    <g id="xtick_1">
     <g id="line2d_2">
      <defs>
       <path id="m35cd89bbfd" d="M 0 0 
L 0 3.5 
" style="stroke: #000000; stroke-width: 0.8"/>
      </defs>
      <g>
       <use xlink:href="#m35cd89bbfd" x="53.372443" y="151.388053" style="stroke: #000000; stroke-width: 0.8"/>
      </g>
     </g>
     <g id="text_1">
      <!-- 1940 -->
      <g transform="translate(41.907599 164.708365)scale(0.1 -0.1)">
       <defs>
        <path id="Montserrat-Regular-31" d="M 1114 0 
L 1114 4288 
L 1318 4070 
L 58 4070 
L 58 4480 
L 1574 4480 
L 1574 0 
L 1114 0 
z
" transform="scale(0.015625)"/>
        <path id="Montserrat-Regular-39" d="M 1728 4518 
Q 2323 4518 2732 4252 
Q 3142 3987 3353 3488 
Q 3565 2989 3565 2278 
Q 3565 1523 3305 1004 
Q 3046 486 2585 224 
Q 2125 -38 1517 -38 
Q 1216 -38 944 19 
Q 672 77 454 205 
L 640 576 
Q 813 461 1040 413 
Q 1267 365 1510 365 
Q 2234 365 2666 825 
Q 3098 1286 3098 2202 
Q 3098 2349 3082 2553 
Q 3066 2758 3008 2963 
L 3168 2842 
Q 3104 2509 2896 2275 
Q 2688 2042 2384 1920 
Q 2080 1798 1709 1798 
Q 1267 1798 924 1964 
Q 582 2131 390 2432 
Q 198 2733 198 3142 
Q 198 3565 396 3872 
Q 595 4179 944 4348 
Q 1293 4518 1728 4518 
z
M 1747 4128 
Q 1427 4128 1180 4009 
Q 934 3891 793 3673 
Q 653 3456 653 3155 
Q 653 2714 957 2451 
Q 1261 2189 1779 2189 
Q 2125 2189 2384 2317 
Q 2643 2445 2787 2669 
Q 2931 2893 2931 3168 
Q 2931 3418 2796 3635 
Q 2662 3853 2400 3990 
Q 2138 4128 1747 4128 
z
" transform="scale(0.015625)"/>
        <path id="Montserrat-Regular-34" d="M 256 1178 
L 256 1510 
L 2630 4480 
L 3142 4480 
L 787 1510 
L 538 1587 
L 4141 1587 
L 4141 1178 
L 256 1178 
z
M 2784 0 
L 2784 1178 
L 2797 1587 
L 2797 2624 
L 3245 2624 
L 3245 0 
L 2784 0 
z
" transform="scale(0.015625)"/>
        <path id="Montserrat-Regular-30" d="M 2118 -38 
Q 1600 -38 1197 234 
Q 794 506 563 1014 
Q 333 1523 333 2240 
Q 333 2957 563 3465 
Q 794 3974 1197 4246 
Q 1600 4518 2118 4518 
Q 2637 4518 3040 4246 
Q 3443 3974 3676 3465 
Q 3910 2957 3910 2240 
Q 3910 1523 3676 1014 
Q 3443 506 3040 234 
Q 2637 -38 2118 -38 
z
M 2118 384 
Q 2515 384 2809 598 
Q 3104 813 3270 1225 
Q 3437 1638 3437 2240 
Q 3437 2842 3270 3254 
Q 3104 3667 2809 3881 
Q 2515 4096 2118 4096 
Q 1734 4096 1433 3881 
Q 1133 3667 966 3254 
Q 800 2842 800 2240 
Q 800 1638 966 1225 
Q 1133 813 1433 598 
Q 1734 384 2118 384 
z
" transform="scale(0.015625)"/>
       </defs>
       <use xlink:href="#Montserrat-Regular-31"/>
       <use xlink:href="#Montserrat-Regular-39" x="36.099991"/>
       <use xlink:href="#Montserrat-Regular-34" x="96.999985"/>
       <use xlink:href="#Montserrat-Regular-30" x="163.099976"/>
      </g>
     </g>
    </g>
    <g id="xtick_2">
     <g id="line2d_3">
      <g>
       <use xlink:href="#m35cd89bbfd" x="115.234971" y="151.388053" style="stroke: #000000; stroke-width: 0.8"/>
      </g>
     </g>
     <g id="text_2">
      <!-- 1960 -->
      <g transform="translate(104.029502 164.708365)scale(0.1 -0.1)">
       <defs>
        <path id="Montserrat-Regular-36" d="M 2170 -38 
Q 1574 -38 1164 227 
Q 755 493 544 995 
Q 333 1498 333 2202 
Q 333 2963 592 3478 
Q 851 3994 1312 4256 
Q 1773 4518 2381 4518 
Q 2682 4518 2957 4460 
Q 3232 4403 3443 4275 
L 3258 3904 
Q 3085 4019 2861 4067 
Q 2637 4115 2387 4115 
Q 1664 4115 1232 3654 
Q 800 3194 800 2278 
Q 800 2138 816 1930 
Q 832 1722 890 1517 
L 730 1638 
Q 800 1971 1005 2204 
Q 1210 2438 1517 2560 
Q 1824 2682 2189 2682 
Q 2637 2682 2976 2515 
Q 3315 2349 3507 2048 
Q 3699 1747 3699 1338 
Q 3699 922 3500 611 
Q 3302 301 2953 131 
Q 2605 -38 2170 -38 
z
M 2150 352 
Q 2470 352 2716 470 
Q 2963 589 3104 809 
Q 3245 1030 3245 1325 
Q 3245 1766 2941 2028 
Q 2637 2291 2118 2291 
Q 1773 2291 1517 2163 
Q 1261 2035 1113 1814 
Q 966 1594 966 1312 
Q 966 1069 1100 848 
Q 1235 627 1500 489 
Q 1766 352 2150 352 
z
" transform="scale(0.015625)"/>
       </defs>
       <use xlink:href="#Montserrat-Regular-31"/>
       <use xlink:href="#Montserrat-Regular-39" x="36.099991"/>
       <use xlink:href="#Montserrat-Regular-36" x="96.999985"/>
       <use xlink:href="#Montserrat-Regular-30" x="157.899979"/>
      </g>
     </g>
    </g>
    <g id="xtick_3">
     <g id="line2d_4">
      <g>
       <use xlink:href="#m35cd89bbfd" x="177.097499" y="151.388053" style="stroke: #000000; stroke-width: 0.8"/>
      </g>
     </g>
     <g id="text_3">
      <!-- 1980 -->
      <g transform="translate(165.747499 164.708365)scale(0.1 -0.1)">
       <defs>
        <path id="Montserrat-Regular-38" d="M 2035 -38 
Q 1498 -38 1110 115 
Q 723 269 515 560 
Q 307 851 307 1248 
Q 307 1632 508 1904 
Q 710 2176 1097 2323 
Q 1485 2470 2035 2470 
Q 2579 2470 2969 2323 
Q 3360 2176 3568 1904 
Q 3776 1632 3776 1248 
Q 3776 851 3565 560 
Q 3354 269 2963 115 
Q 2573 -38 2035 -38 
z
M 2035 352 
Q 2630 352 2966 595 
Q 3302 838 3302 1254 
Q 3302 1670 2966 1910 
Q 2630 2150 2035 2150 
Q 1440 2150 1107 1910 
Q 774 1670 774 1254 
Q 774 838 1107 595 
Q 1440 352 2035 352 
z
M 2035 2208 
Q 1536 2208 1187 2342 
Q 838 2477 652 2729 
Q 467 2982 467 3334 
Q 467 3706 662 3971 
Q 858 4237 1210 4377 
Q 1562 4518 2035 4518 
Q 2509 4518 2864 4377 
Q 3219 4237 3417 3971 
Q 3616 3706 3616 3334 
Q 3616 2982 3430 2729 
Q 3245 2477 2889 2342 
Q 2534 2208 2035 2208 
z
M 2035 2515 
Q 2560 2515 2854 2732 
Q 3149 2950 3149 3315 
Q 3149 3699 2845 3913 
Q 2541 4128 2035 4128 
Q 1530 4128 1229 3913 
Q 928 3699 928 3322 
Q 928 2950 1219 2732 
Q 1510 2515 2035 2515 
z
" transform="scale(0.015625)"/>
       </defs>
       <use xlink:href="#Montserrat-Regular-31"/>
       <use xlink:href="#Montserrat-Regular-39" x="36.099991"/>
       <use xlink:href="#Montserrat-Regular-38" x="96.999985"/>
       <use xlink:href="#Montserrat-Regular-30" x="160.799973"/>
      </g>
     </g>
    </g>
    <g id="xtick_4">
     <g id="line2d_5">
      <g>
       <use xlink:href="#m35cd89bbfd" x="238.960026" y="151.388053" style="stroke: #000000; stroke-width: 0.8"/>
      </g>
     </g>
     <g id="text_4">
      <!-- 2000 -->
      <g transform="translate(226.189714 164.708365)scale(0.1 -0.1)">
       <defs>
        <path id="Montserrat-Regular-32" d="M 250 0 
L 250 326 
L 2112 2150 
Q 2368 2400 2496 2589 
Q 2624 2778 2669 2944 
Q 2714 3110 2714 3258 
Q 2714 3648 2448 3872 
Q 2182 4096 1664 4096 
Q 1267 4096 963 3974 
Q 659 3853 442 3597 
L 115 3878 
Q 378 4186 787 4352 
Q 1197 4518 1702 4518 
Q 2157 4518 2489 4374 
Q 2822 4230 3004 3955 
Q 3187 3680 3187 3309 
Q 3187 3091 3126 2880 
Q 3066 2669 2909 2435 
Q 2752 2202 2451 1907 
L 742 230 
L 614 410 
L 3392 410 
L 3392 0 
L 250 0 
z
" transform="scale(0.015625)"/>
       </defs>
       <use xlink:href="#Montserrat-Regular-32"/>
       <use xlink:href="#Montserrat-Regular-30" x="56.799988"/>
       <use xlink:href="#Montserrat-Regular-30" x="122.999985"/>
       <use xlink:href="#Montserrat-Regular-30" x="189.199982"/>
      </g>
     </g>
    </g>
    <g id="xtick_5">
     <g id="line2d_6">
      <g>
       <use xlink:href="#m35cd89bbfd" x="300.822554" y="151.388053" style="stroke: #000000; stroke-width: 0.8"/>
      </g>
     </g>
     <g id="text_5">
      <!-- 2020 -->
      <g transform="translate(288.522554 164.708365)scale(0.1 -0.1)">
       <use xlink:href="#Montserrat-Regular-32"/>
       <use xlink:href="#Montserrat-Regular-30" x="56.799988"/>
       <use xlink:href="#Montserrat-Regular-32" x="122.999985"/>
       <use xlink:href="#Montserrat-Regular-30" x="179.799973"/>
      </g>
     </g>
    </g>
    <g id="xtick_6">
     <g id="line2d_7">
      <defs>
       <path id="m77d7660bdd" d="M 0 0 
L 0 2 
" style="stroke: #000000; stroke-width: 0.6"/>
      </defs>
      <g>
       <use xlink:href="#m77d7660bdd" x="84.303707" y="151.388053" style="stroke: #000000; stroke-width: 0.6"/>
      </g>
     </g>
    </g>
    <g id="xtick_7">
     <g id="line2d_8">
      <g>
       <use xlink:href="#m77d7660bdd" x="146.166235" y="151.388053" style="stroke: #000000; stroke-width: 0.6"/>
      </g>
     </g>
    </g>
    <g id="xtick_8">
     <g id="line2d_9">
      <g>
       <use xlink:href="#m77d7660bdd" x="208.028762" y="151.388053" style="stroke: #000000; stroke-width: 0.6"/>
      </g>
     </g>
    </g>
    <g id="xtick_9">
     <g id="line2d_10">
      <g>
       <use xlink:href="#m77d7660bdd" x="269.89129" y="151.388053" style="stroke: #000000; stroke-width: 0.6"/>
      </g>
     </g>
    </g>
    <g id="text_6">
     <!-- year -->
     <g transform="translate(165.005469 179.019303)scale(0.1 -0.1)">
      <defs>
       <path id="Montserrat-Regular-79" d="M 659 -1274 
Q 422 -1274 208 -1197 
Q -6 -1120 -160 -966 
L 51 -627 
Q 179 -749 329 -816 
Q 480 -883 666 -883 
Q 890 -883 1053 -758 
Q 1216 -634 1363 -320 
L 1581 173 
L 1632 243 
L 3014 3360 
L 3462 3360 
L 1779 -403 
Q 1638 -730 1468 -922 
Q 1299 -1114 1100 -1194 
Q 902 -1274 659 -1274 
z
M 1555 -96 
L 6 3360 
L 480 3360 
L 1850 275 
L 1555 -96 
z
" transform="scale(0.015625)"/>
       <path id="Montserrat-Regular-65" d="M 2061 -32 
Q 1536 -32 1139 189 
Q 742 410 518 797 
Q 294 1184 294 1683 
Q 294 2182 508 2566 
Q 723 2950 1097 3171 
Q 1472 3392 1939 3392 
Q 2413 3392 2781 3177 
Q 3149 2963 3360 2576 
Q 3571 2189 3571 1683 
Q 3571 1651 3568 1616 
Q 3565 1581 3565 1542 
L 640 1542 
L 640 1882 
L 3322 1882 
L 3142 1747 
Q 3142 2112 2985 2397 
Q 2829 2682 2560 2842 
Q 2291 3002 1939 3002 
Q 1594 3002 1318 2842 
Q 1043 2682 889 2394 
Q 736 2106 736 1734 
L 736 1664 
Q 736 1280 905 989 
Q 1075 698 1379 534 
Q 1683 371 2074 371 
Q 2381 371 2646 480 
Q 2912 589 3104 813 
L 3360 518 
Q 3136 250 2800 109 
Q 2464 -32 2061 -32 
z
" transform="scale(0.015625)"/>
       <path id="Montserrat-Regular-61" d="M 2739 0 
L 2739 742 
L 2720 864 
L 2720 2106 
Q 2720 2534 2480 2764 
Q 2240 2995 1766 2995 
Q 1440 2995 1145 2886 
Q 851 2778 646 2598 
L 442 2938 
Q 698 3155 1056 3273 
Q 1414 3392 1811 3392 
Q 2464 3392 2819 3069 
Q 3174 2746 3174 2086 
L 3174 0 
L 2739 0 
z
M 1581 -32 
Q 1203 -32 924 93 
Q 646 218 499 438 
Q 352 659 352 947 
Q 352 1210 477 1424 
Q 602 1638 886 1769 
Q 1171 1901 1651 1901 
L 2810 1901 
L 2810 1562 
L 1664 1562 
Q 1178 1562 989 1389 
Q 800 1216 800 960 
Q 800 672 1024 499 
Q 1248 326 1651 326 
Q 2035 326 2313 502 
Q 2592 678 2720 1011 
L 2822 698 
Q 2694 365 2377 166 
Q 2061 -32 1581 -32 
z
" transform="scale(0.015625)"/>
       <path id="Montserrat-Regular-72" d="M 634 0 
L 634 3360 
L 1069 3360 
L 1069 2445 
L 1024 2605 
Q 1165 2989 1497 3190 
Q 1830 3392 2323 3392 
L 2323 2950 
Q 2298 2950 2272 2953 
Q 2246 2957 2221 2957 
Q 1690 2957 1389 2633 
Q 1088 2310 1088 1715 
L 1088 0 
L 634 0 
z
" transform="scale(0.015625)"/>
      </defs>
      <use xlink:href="#Montserrat-Regular-79"/>
      <use xlink:href="#Montserrat-Regular-65" x="54.199997"/>
      <use xlink:href="#Montserrat-Regular-61" x="114.599991"/>
      <use xlink:href="#Montserrat-Regular-72" x="173.599976"/>
     </g>
    </g>
   </g>
   <g id="matplotlib.axis_2">
    <g id="ytick_1">
     <g id="line2d_11">
      <defs>
       <path id="m7a0a0948bd" d="M 0 0 
L -3.5 0 
" style="stroke: #000000; stroke-width: 0.8"/>
      </defs>
      <g>
       <use xlink:href="#m7a0a0948bd" x="40.690625" y="146.348053" style="stroke: #000000; stroke-width: 0.8"/>
      </g>
     </g>
     <g id="text_7">
      <!-- 0 -->
      <g transform="translate(28.170313 150.058209)scale(0.1 -0.1)">
       <use xlink:href="#Montserrat-Regular-30"/>
      </g>
     </g>
    </g>
    <g id="ytick_2">
     <g id="line2d_12">
      <g>
       <use xlink:href="#m7a0a0948bd" x="40.690625" y="126.583347" style="stroke: #000000; stroke-width: 0.8"/>
      </g>
     </g>
     <g id="text_8">
      <!-- 10 -->
      <g transform="translate(24.560938 130.293503)scale(0.1 -0.1)">
       <use xlink:href="#Montserrat-Regular-31"/>
       <use xlink:href="#Montserrat-Regular-30" x="36.099991"/>
      </g>
     </g>
    </g>
    <g id="ytick_3">
     <g id="line2d_13">
      <g>
       <use xlink:href="#m7a0a0948bd" x="40.690625" y="106.818641" style="stroke: #000000; stroke-width: 0.8"/>
      </g>
     </g>
     <g id="text_9">
      <!-- 20 -->
      <g transform="translate(22.490625 110.528797)scale(0.1 -0.1)">
       <use xlink:href="#Montserrat-Regular-32"/>
       <use xlink:href="#Montserrat-Regular-30" x="56.799988"/>
      </g>
     </g>
    </g>
    <g id="ytick_4">
     <g id="line2d_14">
      <g>
       <use xlink:href="#m7a0a0948bd" x="40.690625" y="87.053935" style="stroke: #000000; stroke-width: 0.8"/>
      </g>
     </g>
     <g id="text_10">
      <!-- 30 -->
      <g transform="translate(22.529688 90.764091)scale(0.1 -0.1)">
       <defs>
        <path id="Montserrat-Regular-33" d="M 1670 -38 
Q 1184 -38 752 118 
Q 320 275 58 538 
L 282 902 
Q 499 678 867 531 
Q 1235 384 1670 384 
Q 2227 384 2524 627 
Q 2822 870 2822 1280 
Q 2822 1690 2531 1933 
Q 2240 2176 1613 2176 
L 1293 2176 
L 1293 2515 
L 2675 4250 
L 2739 4070 
L 243 4070 
L 243 4480 
L 3123 4480 
L 3123 4154 
L 1741 2419 
L 1517 2566 
L 1690 2566 
Q 2496 2566 2896 2208 
Q 3296 1850 3296 1286 
Q 3296 909 3117 608 
Q 2938 307 2576 134 
Q 2214 -38 1670 -38 
z
" transform="scale(0.015625)"/>
       </defs>
       <use xlink:href="#Montserrat-Regular-33"/>
       <use xlink:href="#Montserrat-Regular-30" x="56.399994"/>
      </g>
     </g>
    </g>
    <g id="ytick_5">
     <g id="line2d_15">
      <g>
       <use xlink:href="#m7a0a0948bd" x="40.690625" y="67.289229" style="stroke: #000000; stroke-width: 0.8"/>
      </g>
     </g>
     <g id="text_11">
      <!-- 40 -->
      <g transform="translate(21.560938 70.999386)scale(0.1 -0.1)">
       <use xlink:href="#Montserrat-Regular-34"/>
       <use xlink:href="#Montserrat-Regular-30" x="66.099991"/>
      </g>
     </g>
    </g>
    <g id="ytick_6">
     <g id="line2d_16">
      <g>
       <use xlink:href="#m7a0a0948bd" x="40.690625" y="47.524523" style="stroke: #000000; stroke-width: 0.8"/>
      </g>
     </g>
     <g id="text_12">
      <!-- 50 -->
      <g transform="translate(22.510938 51.23468)scale(0.1 -0.1)">
       <defs>
        <path id="Montserrat-Regular-35" d="M 1747 -38 
Q 1267 -38 832 118 
Q 397 275 141 538 
L 365 902 
Q 576 678 944 531 
Q 1312 384 1741 384 
Q 2310 384 2608 637 
Q 2906 890 2906 1299 
Q 2906 1587 2768 1795 
Q 2630 2003 2304 2118 
Q 1978 2234 1408 2234 
L 454 2234 
L 685 4480 
L 3136 4480 
L 3136 4070 
L 870 4070 
L 1107 4294 
L 909 2413 
L 672 2643 
L 1510 2643 
Q 2189 2643 2598 2476 
Q 3008 2310 3190 2012 
Q 3373 1715 3373 1318 
Q 3373 941 3193 630 
Q 3014 320 2656 141 
Q 2298 -38 1747 -38 
z
" transform="scale(0.015625)"/>
       </defs>
       <use xlink:href="#Montserrat-Regular-35"/>
       <use xlink:href="#Montserrat-Regular-30" x="56.599991"/>
      </g>
     </g>
    </g>
    <g id="ytick_7">
     <g id="line2d_17">
      <defs>
       <path id="ma242bdd0f8" d="M 0 0 
L -2 0 
" style="stroke: #000000; stroke-width: 0.6"/>
      </defs>
      <g>
       <use xlink:href="#ma242bdd0f8" x="40.690625" y="136.4657" style="stroke: #000000; stroke-width: 0.6"/>
      </g>
     </g>
    </g>
    <g id="ytick_8">
     <g id="line2d_18">
      <g>
       <use xlink:href="#ma242bdd0f8" x="40.690625" y="116.700994" style="stroke: #000000; stroke-width: 0.6"/>
      </g>
     </g>
    </g>
    <g id="ytick_9">
     <g id="line2d_19">
      <g>
       <use xlink:href="#ma242bdd0f8" x="40.690625" y="96.936288" style="stroke: #000000; stroke-width: 0.6"/>
      </g>
     </g>
    </g>
    <g id="ytick_10">
     <g id="line2d_20">
      <g>
       <use xlink:href="#ma242bdd0f8" x="40.690625" y="77.171582" style="stroke: #000000; stroke-width: 0.6"/>
      </g>
     </g>
    </g>
    <g id="ytick_11">
     <g id="line2d_21">
      <g>
       <use xlink:href="#ma242bdd0f8" x="40.690625" y="57.406876" style="stroke: #000000; stroke-width: 0.6"/>
      </g>
     </g>
    </g>
    <g id="text_13">
     <!-- medals -->
     <g transform="translate(14.620313 113.678053)rotate(-90)scale(0.1 -0.1)">
      <defs>
       <path id="Montserrat-Regular-6d" d="M 4832 3392 
Q 5242 3392 5546 3235 
Q 5850 3078 6019 2758 
Q 6189 2438 6189 1952 
L 6189 0 
L 5734 0 
L 5734 1907 
Q 5734 2438 5481 2710 
Q 5229 2982 4768 2982 
Q 4422 2982 4169 2838 
Q 3917 2694 3779 2422 
Q 3642 2150 3642 1766 
L 3642 0 
L 3187 0 
L 3187 1907 
Q 3187 2438 2931 2710 
Q 2675 2982 2214 2982 
Q 1875 2982 1619 2838 
Q 1363 2694 1225 2422 
Q 1088 2150 1088 1766 
L 1088 0 
L 634 0 
L 634 3360 
L 1069 3360 
L 1069 2451 
L 998 2611 
Q 1152 2976 1494 3184 
Q 1837 3392 2304 3392 
Q 2797 3392 3142 3145 
Q 3488 2899 3590 2406 
L 3411 2477 
Q 3558 2886 3932 3139 
Q 4307 3392 4832 3392 
z
" transform="scale(0.015625)"/>
       <path id="Montserrat-Regular-64" d="M 1971 -32 
Q 1491 -32 1110 185 
Q 730 403 512 790 
Q 294 1178 294 1683 
Q 294 2195 512 2579 
Q 730 2963 1110 3177 
Q 1491 3392 1971 3392 
Q 2413 3392 2761 3193 
Q 3110 2995 3318 2614 
Q 3526 2234 3526 1683 
Q 3526 1139 3321 755 
Q 3117 371 2768 169 
Q 2419 -32 1971 -32 
z
M 2003 371 
Q 2362 371 2646 534 
Q 2931 698 3094 995 
Q 3258 1293 3258 1683 
Q 3258 2080 3094 2374 
Q 2931 2669 2646 2832 
Q 2362 2995 2003 2995 
Q 1651 2995 1369 2832 
Q 1088 2669 921 2374 
Q 755 2080 755 1683 
Q 755 1293 921 995 
Q 1088 698 1369 534 
Q 1651 371 2003 371 
z
M 3270 0 
L 3270 1011 
L 3315 1690 
L 3251 2368 
L 3251 4749 
L 3706 4749 
L 3706 0 
L 3270 0 
z
" transform="scale(0.015625)"/>
       <path id="Montserrat-Regular-6c" d="M 634 0 
L 634 4749 
L 1088 4749 
L 1088 0 
L 634 0 
z
" transform="scale(0.015625)"/>
       <path id="Montserrat-Regular-73" d="M 1536 -32 
Q 1120 -32 749 86 
Q 378 205 166 384 
L 371 742 
Q 576 589 896 477 
Q 1216 365 1568 365 
Q 2048 365 2259 515 
Q 2470 666 2470 915 
Q 2470 1101 2352 1206 
Q 2234 1312 2042 1366 
Q 1850 1421 1613 1459 
Q 1376 1498 1142 1549 
Q 909 1600 717 1699 
Q 525 1798 406 1971 
Q 288 2144 288 2432 
Q 288 2707 441 2924 
Q 595 3142 892 3267 
Q 1190 3392 1619 3392 
Q 1946 3392 2272 3305 
Q 2598 3219 2810 3078 
L 2611 2714 
Q 2387 2867 2131 2934 
Q 1875 3002 1619 3002 
Q 1165 3002 950 2845 
Q 736 2688 736 2445 
Q 736 2253 854 2144 
Q 973 2035 1168 1974 
Q 1363 1914 1596 1875 
Q 1830 1837 2064 1782 
Q 2298 1728 2493 1635 
Q 2688 1542 2806 1372 
Q 2925 1203 2925 928 
Q 2925 634 2761 419 
Q 2598 205 2288 86 
Q 1978 -32 1536 -32 
z
" transform="scale(0.015625)"/>
      </defs>
      <use xlink:href="#Montserrat-Regular-6d"/>
      <use xlink:href="#Montserrat-Regular-65" x="106.099991"/>
      <use xlink:href="#Montserrat-Regular-64" x="166.499985"/>
      <use xlink:href="#Montserrat-Regular-61" x="234.299973"/>
      <use xlink:href="#Montserrat-Regular-6c" x="293.299957"/>
      <use xlink:href="#Montserrat-Regular-73" x="320.199951"/>
     </g>
    </g>
   </g>
   <g id="PathCollection_1">
    <path d="M 78.117454 141.083311 
C 78.293727 141.083311 78.462804 141.013277 78.587447 140.888634 
C 78.712091 140.76399 78.782124 140.594914 78.782124 140.418641 
C 78.782124 140.242368 78.712091 140.073292 78.587447 139.948648 
C 78.462804 139.824005 78.293727 139.753971 78.117454 139.753971 
C 77.941182 139.753971 77.772105 139.824005 77.647461 139.948648 
C 77.522818 140.073292 77.452784 140.242368 77.452784 140.418641 
C 77.452784 140.594914 77.522818 140.76399 77.647461 140.888634 
C 77.772105 141.013277 77.941182 141.083311 78.117454 141.083311 
z
" clip-path="url(#p25f484aa3e)" style="fill-opacity: 0.501961; stroke: #000000; stroke-opacity: 0.501961; stroke-width: 0.886227"/>
    <path d="M 90.48996 143.059782 
C 90.666232 143.059782 90.835309 142.989748 90.959953 142.865104 
C 91.084596 142.740461 91.15463 142.571384 91.15463 142.395112 
C 91.15463 142.218839 91.084596 142.049762 90.959953 141.925119 
C 90.835309 141.800475 90.666232 141.730441 90.48996 141.730441 
C 90.313687 141.730441 90.144611 141.800475 90.019967 141.925119 
C 89.895323 142.049762 89.82529 142.218839 89.82529 142.395112 
C 89.82529 142.571384 89.895323 142.740461 90.019967 142.865104 
C 90.144611 142.989748 90.313687 143.059782 90.48996 143.059782 
z
" clip-path="url(#p25f484aa3e)" style="fill-opacity: 0.501961; stroke: #000000; stroke-opacity: 0.501961; stroke-width: 0.886227"/>
    <path d="M 102.862465 137.13037 
C 103.038738 137.13037 103.207815 137.060336 103.332458 136.935693 
C 103.457102 136.811049 103.527136 136.641972 103.527136 136.4657 
C 103.527136 136.289427 103.457102 136.120351 103.332458 135.995707 
C 103.207815 135.871064 103.038738 135.80103 102.862465 135.80103 
C 102.686193 135.80103 102.517116 135.871064 102.392473 135.995707 
C 102.267829 136.120351 102.197795 136.289427 102.197795 136.4657 
C 102.197795 136.641972 102.267829 136.811049 102.392473 136.935693 
C 102.517116 137.060336 102.686193 137.13037 102.862465 137.13037 
z
" clip-path="url(#p25f484aa3e)" style="fill-opacity: 0.501961; stroke: #000000; stroke-opacity: 0.501961; stroke-width: 0.886227"/>
    <path d="M 115.234971 145.036252 
C 115.411243 145.036252 115.58032 144.966219 115.704964 144.841575 
C 115.829607 144.716931 115.899641 144.547855 115.899641 144.371582 
C 115.899641 144.19531 115.829607 144.026233 115.704964 143.901589 
C 115.58032 143.776946 115.411243 143.706912 115.234971 143.706912 
C 115.058698 143.706912 114.889622 143.776946 114.764978 143.901589 
C 114.640335 144.026233 114.570301 144.19531 114.570301 144.371582 
C 114.570301 144.547855 114.640335 144.716931 114.764978 144.841575 
C 114.889622 144.966219 115.058698 145.036252 115.234971 145.036252 
z
" clip-path="url(#p25f484aa3e)" style="fill-opacity: 0.501961; stroke: #000000; stroke-opacity: 0.501961; stroke-width: 0.886227"/>
    <path d="M 127.607476 137.13037 
C 127.783749 137.13037 127.952826 137.060336 128.077469 136.935693 
C 128.202113 136.811049 128.272147 136.641972 128.272147 136.4657 
C 128.272147 136.289427 128.202113 136.120351 128.077469 135.995707 
C 127.952826 135.871064 127.783749 135.80103 127.607476 135.80103 
C 127.431204 135.80103 127.262127 135.871064 127.137484 135.995707 
C 127.01284 136.120351 126.942806 136.289427 126.942806 136.4657 
C 126.942806 136.641972 127.01284 136.811049 127.137484 136.935693 
C 127.262127 137.060336 127.431204 137.13037 127.607476 137.13037 
z
" clip-path="url(#p25f484aa3e)" style="fill-opacity: 0.501961; stroke: #000000; stroke-opacity: 0.501961; stroke-width: 0.886227"/>
    <path d="M 139.979982 137.13037 
C 140.156255 137.13037 140.325331 137.060336 140.449975 136.935693 
C 140.574618 136.811049 140.644652 136.641972 140.644652 136.4657 
C 140.644652 136.289427 140.574618 136.120351 140.449975 135.995707 
C 140.325331 135.871064 140.156255 135.80103 139.979982 135.80103 
C 139.803709 135.80103 139.634633 135.871064 139.509989 135.995707 
C 139.385346 136.120351 139.315312 136.289427 139.315312 136.4657 
C 139.315312 136.641972 139.385346 136.811049 139.509989 136.935693 
C 139.634633 137.060336 139.803709 137.13037 139.979982 137.13037 
z
" clip-path="url(#p25f484aa3e)" style="fill-opacity: 0.501961; stroke: #000000; stroke-opacity: 0.501961; stroke-width: 0.886227"/>
    <path d="M 152.352488 137.13037 
C 152.52876 137.13037 152.697837 137.060336 152.82248 136.935693 
C 152.947124 136.811049 153.017158 136.641972 153.017158 136.4657 
C 153.017158 136.289427 152.947124 136.120351 152.82248 135.995707 
C 152.697837 135.871064 152.52876 135.80103 152.352488 135.80103 
C 152.176215 135.80103 152.007138 135.871064 151.882495 135.995707 
C 151.757851 136.120351 151.687817 136.289427 151.687817 136.4657 
C 151.687817 136.641972 151.757851 136.811049 151.882495 136.935693 
C 152.007138 137.060336 152.176215 137.13037 152.352488 137.13037 
z
" clip-path="url(#p25f484aa3e)" style="fill-opacity: 0.501961; stroke: #000000; stroke-opacity: 0.501961; stroke-width: 0.886227"/>
    <path d="M 164.724993 125.271547 
C 164.901266 125.271547 165.070342 125.201513 165.194986 125.076869 
C 165.319629 124.952226 165.389663 124.783149 165.389663 124.606876 
C 165.389663 124.430604 165.319629 124.261527 165.194986 124.136884 
C 165.070342 124.01224 164.901266 123.942206 164.724993 123.942206 
C 164.54872 123.942206 164.379644 124.01224 164.255 124.136884 
C 164.130357 124.261527 164.060323 124.430604 164.060323 124.606876 
C 164.060323 124.783149 164.130357 124.952226 164.255 125.076869 
C 164.379644 125.201513 164.54872 125.271547 164.724993 125.271547 
z
" clip-path="url(#p25f484aa3e)" style="fill-opacity: 0.501961; stroke: #000000; stroke-opacity: 0.501961; stroke-width: 0.886227"/>
    <path d="M 189.470004 46.212723 
C 189.646277 46.212723 189.815353 46.142689 189.939997 46.018046 
C 190.064641 45.893402 190.134674 45.724325 190.134674 45.548053 
C 190.134674 45.37178 190.064641 45.202704 189.939997 45.07806 
C 189.815353 44.953416 189.646277 44.883383 189.470004 44.883383 
C 189.293732 44.883383 189.124655 44.953416 189.000011 45.07806 
C 188.875368 45.202704 188.805334 45.37178 188.805334 45.548053 
C 188.805334 45.724325 188.875368 45.893402 189.000011 46.018046 
C 189.124655 46.142689 189.293732 46.212723 189.470004 46.212723 
z
" clip-path="url(#p25f484aa3e)" style="fill-opacity: 0.501961; stroke: #000000; stroke-opacity: 0.501961; stroke-width: 0.886227"/>
    <path d="M 201.84251 123.295076 
C 202.018782 123.295076 202.187859 123.225042 202.312503 123.100399 
C 202.437146 122.975755 202.50718 122.806678 202.50718 122.630406 
C 202.50718 122.454133 202.437146 122.285056 202.312503 122.160413 
C 202.187859 122.035769 202.018782 121.965736 201.84251 121.965736 
C 201.666237 121.965736 201.49716 122.035769 201.372517 122.160413 
C 201.247873 122.285056 201.17784 122.454133 201.17784 122.630406 
C 201.17784 122.806678 201.247873 122.975755 201.372517 123.100399 
C 201.49716 123.225042 201.666237 123.295076 201.84251 123.295076 
z
" clip-path="url(#p25f484aa3e)" style="fill-opacity: 0.501961; stroke: #000000; stroke-opacity: 0.501961; stroke-width: 0.886227"/>
    <path d="M 214.215015 105.506841 
C 214.391288 105.506841 214.560364 105.436807 214.685008 105.312163 
C 214.809652 105.18752 214.879685 105.018443 214.879685 104.84217 
C 214.879685 104.665898 214.809652 104.496821 214.685008 104.372178 
C 214.560364 104.247534 214.391288 104.1775 214.215015 104.1775 
C 214.038743 104.1775 213.869666 104.247534 213.745022 104.372178 
C 213.620379 104.496821 213.550345 104.665898 213.550345 104.84217 
C 213.550345 105.018443 213.620379 105.18752 213.745022 105.312163 
C 213.869666 105.436807 214.038743 105.506841 214.215015 105.506841 
z
" clip-path="url(#p25f484aa3e)" style="fill-opacity: 0.501961; stroke: #000000; stroke-opacity: 0.501961; stroke-width: 0.886227"/>
    <path d="M 226.587521 99.577429 
C 226.763793 99.577429 226.93287 99.507395 227.057514 99.382751 
C 227.182157 99.258108 227.252191 99.089031 227.252191 98.912759 
C 227.252191 98.736486 227.182157 98.567409 227.057514 98.442766 
C 226.93287 98.318122 226.763793 98.248088 226.587521 98.248088 
C 226.411248 98.248088 226.242172 98.318122 226.117528 98.442766 
C 225.992884 98.567409 225.922851 98.736486 225.922851 98.912759 
C 225.922851 99.089031 225.992884 99.258108 226.117528 99.382751 
C 226.242172 99.507395 226.411248 99.577429 226.587521 99.577429 
z
" clip-path="url(#p25f484aa3e)" style="fill-opacity: 0.501961; stroke: #000000; stroke-opacity: 0.501961; stroke-width: 0.886227"/>
    <path d="M 238.960026 115.389194 
C 239.136299 115.389194 239.305376 115.31916 239.430019 115.194516 
C 239.554663 115.069873 239.624697 114.900796 239.624697 114.724523 
C 239.624697 114.548251 239.554663 114.379174 239.430019 114.254531 
C 239.305376 114.129887 239.136299 114.059853 238.960026 114.059853 
C 238.783754 114.059853 238.614677 114.129887 238.490034 114.254531 
C 238.36539 114.379174 238.295356 114.548251 238.295356 114.724523 
C 238.295356 114.900796 238.36539 115.069873 238.490034 115.194516 
C 238.614677 115.31916 238.783754 115.389194 238.960026 115.389194 
z
" clip-path="url(#p25f484aa3e)" style="fill-opacity: 0.501961; stroke: #000000; stroke-opacity: 0.501961; stroke-width: 0.886227"/>
    <path d="M 251.332532 119.342135 
C 251.508804 119.342135 251.677881 119.272101 251.802525 119.147457 
C 251.927168 119.022814 251.997202 118.853737 251.997202 118.677465 
C 251.997202 118.501192 251.927168 118.332115 251.802525 118.207472 
C 251.677881 118.082828 251.508804 118.012794 251.332532 118.012794 
C 251.156259 118.012794 250.987183 118.082828 250.862539 118.207472 
C 250.737896 118.332115 250.667862 118.501192 250.667862 118.677465 
C 250.667862 118.853737 250.737896 119.022814 250.862539 119.147457 
C 250.987183 119.272101 251.156259 119.342135 251.332532 119.342135 
z
" clip-path="url(#p25f484aa3e)" style="fill-opacity: 0.501961; stroke: #000000; stroke-opacity: 0.501961; stroke-width: 0.886227"/>
    <path d="M 263.705037 103.53037 
C 263.88131 103.53037 264.050387 103.460336 264.17503 103.335693 
C 264.299674 103.211049 264.369708 103.041972 264.369708 102.8657 
C 264.369708 102.689427 264.299674 102.520351 264.17503 102.395707 
C 264.050387 102.271064 263.88131 102.20103 263.705037 102.20103 
C 263.528765 102.20103 263.359688 102.271064 263.235045 102.395707 
C 263.110401 102.520351 263.040367 102.689427 263.040367 102.8657 
C 263.040367 103.041972 263.110401 103.211049 263.235045 103.335693 
C 263.359688 103.460336 263.528765 103.53037 263.705037 103.53037 
z
" clip-path="url(#p25f484aa3e)" style="fill-opacity: 0.501961; stroke: #000000; stroke-opacity: 0.501961; stroke-width: 0.886227"/>
    <path d="M 276.077543 107.483311 
C 276.253816 107.483311 276.422892 107.413277 276.547536 107.288634 
C 276.672179 107.16399 276.742213 106.994914 276.742213 106.818641 
C 276.742213 106.642368 276.672179 106.473292 276.547536 106.348648 
C 276.422892 106.224005 276.253816 106.153971 276.077543 106.153971 
C 275.90127 106.153971 275.732194 106.224005 275.60755 106.348648 
C 275.482907 106.473292 275.412873 106.642368 275.412873 106.818641 
C 275.412873 106.994914 275.482907 107.16399 275.60755 107.288634 
C 275.732194 107.413277 275.90127 107.483311 276.077543 107.483311 
z
" clip-path="url(#p25f484aa3e)" style="fill-opacity: 0.501961; stroke: #000000; stroke-opacity: 0.501961; stroke-width: 0.886227"/>
    <path d="M 288.450049 99.577429 
C 288.626321 99.577429 288.795398 99.507395 288.920041 99.382751 
C 289.044685 99.258108 289.114719 99.089031 289.114719 98.912759 
C 289.114719 98.736486 289.044685 98.567409 288.920041 98.442766 
C 288.795398 98.318122 288.626321 98.248088 288.450049 98.248088 
C 288.273776 98.248088 288.104699 98.318122 287.980056 98.442766 
C 287.855412 98.567409 287.785378 98.736486 287.785378 98.912759 
C 287.785378 99.089031 287.855412 99.258108 287.980056 99.382751 
C 288.104699 99.507395 288.273776 99.577429 288.450049 99.577429 
z
" clip-path="url(#p25f484aa3e)" style="fill-opacity: 0.501961; stroke: #000000; stroke-opacity: 0.501961; stroke-width: 0.886227"/>
    <path d="M 300.822554 93.648017 
C 300.998827 93.648017 301.167903 93.577983 301.292547 93.45334 
C 301.41719 93.328696 301.487224 93.15962 301.487224 92.983347 
C 301.487224 92.807074 301.41719 92.637998 301.292547 92.513354 
C 301.167903 92.388711 300.998827 92.318677 300.822554 92.318677 
C 300.646281 92.318677 300.477205 92.388711 300.352561 92.513354 
C 300.227918 92.637998 300.157884 92.807074 300.157884 92.983347 
C 300.157884 93.15962 300.227918 93.328696 300.352561 93.45334 
C 300.477205 93.577983 300.646281 93.648017 300.822554 93.648017 
z
" clip-path="url(#p25f484aa3e)" style="fill-opacity: 0.501961; stroke: #000000; stroke-opacity: 0.501961; stroke-width: 0.886227"/>
   </g>
   <g id="patch_3">
    <path d="M 40.690625 40.508053 
L 319.690625 40.508053 
L 319.690625 24.508053 
L 40.690625 24.508053 
z
" style="fill: #d9d9d9; stroke: #d9d9d9; stroke-linejoin: miter"/>
   </g>
   <g id="PathCollection_2">
    <defs>
     <path id="m1b2cc2c771" d="M -2.215567 0 
L 2.215567 0 
M 0 2.215567 
L 0 -2.215567 
" style="stroke: #ff0000; stroke-width: 0.886227"/>
    </defs>
    <g clip-path="url(#p25f484aa3e)">
     <use xlink:href="#m1b2cc2c771" x="164.724993" y="124.606876" style="fill: #ff0000; stroke: #ff0000; stroke-width: 0.886227"/>
    </g>
   </g>
   <g id="text_14">
    <!-- Canada -->
    <g transform="translate(160.975781 35.247897)scale(0.1 -0.1)">
     <defs>
      <path id="Montserrat-Regular-43" d="M 2675 -38 
Q 2170 -38 1741 131 
Q 1312 301 998 608 
Q 685 915 509 1331 
Q 333 1747 333 2240 
Q 333 2733 509 3149 
Q 685 3565 1001 3872 
Q 1318 4179 1747 4348 
Q 2176 4518 2682 4518 
Q 3168 4518 3597 4355 
Q 4026 4192 4320 3866 
L 4019 3565 
Q 3744 3846 3411 3971 
Q 3078 4096 2694 4096 
Q 2291 4096 1945 3958 
Q 1600 3821 1344 3568 
Q 1088 3315 944 2979 
Q 800 2643 800 2240 
Q 800 1837 944 1501 
Q 1088 1165 1344 912 
Q 1600 659 1945 521 
Q 2291 384 2694 384 
Q 3078 384 3411 512 
Q 3744 640 4019 922 
L 4320 621 
Q 4026 294 3597 128 
Q 3168 -38 2675 -38 
z
" transform="scale(0.015625)"/>
      <path id="Montserrat-Regular-6e" d="M 2349 3392 
Q 2758 3392 3068 3235 
Q 3379 3078 3555 2758 
Q 3731 2438 3731 1952 
L 3731 0 
L 3277 0 
L 3277 1907 
Q 3277 2438 3011 2710 
Q 2746 2982 2266 2982 
Q 1907 2982 1641 2838 
Q 1376 2694 1232 2422 
Q 1088 2150 1088 1766 
L 1088 0 
L 634 0 
L 634 3360 
L 1069 3360 
L 1069 2438 
L 998 2611 
Q 1158 2976 1510 3184 
Q 1862 3392 2349 3392 
z
" transform="scale(0.015625)"/>
     </defs>
     <use xlink:href="#Montserrat-Regular-43"/>
     <use xlink:href="#Montserrat-Regular-61" x="71.899994"/>
     <use xlink:href="#Montserrat-Regular-6e" x="130.899979"/>
     <use xlink:href="#Montserrat-Regular-61" x="198.499969"/>
     <use xlink:href="#Montserrat-Regular-64" x="257.499954"/>
     <use xlink:href="#Montserrat-Regular-61" x="325.299942"/>
    </g>
   </g>
  </g>
  <g id="text_15">
   <!-- Medals for Canada at Summer Olympics -->
   <g transform="translate(74.575 14.670312)scale(0.1 -0.1)">
    <defs>
     <path id="Montserrat-Regular-4d" d="M 730 0 
L 730 4480 
L 1120 4480 
L 3168 986 
L 2963 986 
L 4992 4480 
L 5382 4480 
L 5382 0 
L 4928 0 
L 4928 3770 
L 5037 3770 
L 3168 570 
L 2944 570 
L 1062 3770 
L 1184 3770 
L 1184 0 
L 730 0 
z
" transform="scale(0.015625)"/>
     <path id="Montserrat-Regular-20" transform="scale(0.015625)"/>
     <path id="Montserrat-Regular-66" d="M 710 0 
L 710 3782 
Q 710 4230 972 4505 
Q 1235 4781 1728 4781 
Q 1920 4781 2099 4729 
Q 2278 4678 2400 4570 
L 2246 4230 
Q 2150 4314 2022 4355 
Q 1894 4397 1747 4397 
Q 1459 4397 1305 4237 
Q 1152 4077 1152 3763 
L 1152 3251 
L 1165 3040 
L 1165 0 
L 710 0 
z
M 109 2982 
L 109 3360 
L 2189 3360 
L 2189 2982 
L 109 2982 
z
" transform="scale(0.015625)"/>
     <path id="Montserrat-Regular-6f" d="M 2003 -32 
Q 1517 -32 1129 189 
Q 742 410 518 797 
Q 294 1184 294 1683 
Q 294 2189 518 2573 
Q 742 2957 1126 3174 
Q 1510 3392 2003 3392 
Q 2502 3392 2889 3174 
Q 3277 2957 3497 2573 
Q 3718 2189 3718 1683 
Q 3718 1184 3497 797 
Q 3277 410 2886 189 
Q 2496 -32 2003 -32 
z
M 2003 371 
Q 2368 371 2649 534 
Q 2931 698 3094 995 
Q 3258 1293 3258 1683 
Q 3258 2080 3094 2374 
Q 2931 2669 2649 2832 
Q 2368 2995 2010 2995 
Q 1651 2995 1369 2832 
Q 1088 2669 921 2374 
Q 755 2080 755 1683 
Q 755 1293 921 995 
Q 1088 698 1369 534 
Q 1651 371 2003 371 
z
" transform="scale(0.015625)"/>
     <path id="Montserrat-Regular-74" d="M 1696 -32 
Q 1222 -32 966 224 
Q 710 480 710 947 
L 710 4102 
L 1165 4102 
L 1165 973 
Q 1165 678 1315 518 
Q 1466 358 1747 358 
Q 2048 358 2246 531 
L 2406 205 
Q 2272 83 2083 25 
Q 1894 -32 1696 -32 
z
M 109 2982 
L 109 3360 
L 2189 3360 
L 2189 2982 
L 109 2982 
z
" transform="scale(0.015625)"/>
     <path id="Montserrat-Regular-53" d="M 1965 -38 
Q 1466 -38 1008 125 
Q 550 288 301 544 
L 486 909 
Q 723 678 1123 521 
Q 1523 365 1965 365 
Q 2387 365 2652 470 
Q 2918 576 3043 755 
Q 3168 934 3168 1152 
Q 3168 1414 3017 1574 
Q 2867 1734 2624 1827 
Q 2381 1920 2086 1990 
Q 1792 2061 1497 2141 
Q 1203 2221 956 2355 
Q 710 2490 560 2710 
Q 410 2931 410 3290 
Q 410 3622 586 3900 
Q 762 4179 1126 4348 
Q 1491 4518 2061 4518 
Q 2438 4518 2809 4412 
Q 3181 4307 3450 4122 
L 3290 3744 
Q 3002 3936 2678 4025 
Q 2355 4115 2054 4115 
Q 1651 4115 1388 4006 
Q 1126 3898 1001 3715 
Q 877 3533 877 3302 
Q 877 3040 1027 2880 
Q 1178 2720 1424 2630 
Q 1670 2541 1964 2470 
Q 2259 2400 2550 2317 
Q 2842 2234 3088 2102 
Q 3334 1971 3484 1753 
Q 3635 1536 3635 1184 
Q 3635 858 3456 579 
Q 3277 301 2909 131 
Q 2541 -38 1965 -38 
z
" transform="scale(0.015625)"/>
     <path id="Montserrat-Regular-75" d="M 2022 -32 
Q 1594 -32 1274 128 
Q 954 288 778 608 
Q 602 928 602 1408 
L 602 3360 
L 1056 3360 
L 1056 1459 
Q 1056 922 1321 650 
Q 1587 378 2067 378 
Q 2419 378 2678 522 
Q 2938 666 3075 941 
Q 3213 1216 3213 1600 
L 3213 3360 
L 3667 3360 
L 3667 0 
L 3232 0 
L 3232 922 
L 3302 755 
Q 3142 384 2806 176 
Q 2470 -32 2022 -32 
z
" transform="scale(0.015625)"/>
     <path id="Montserrat-Regular-4f" d="M 2688 -38 
Q 2182 -38 1750 131 
Q 1318 301 1001 611 
Q 685 922 509 1334 
Q 333 1747 333 2240 
Q 333 2733 509 3145 
Q 685 3558 1001 3868 
Q 1318 4179 1747 4348 
Q 2176 4518 2688 4518 
Q 3194 4518 3622 4348 
Q 4051 4179 4368 3872 
Q 4685 3565 4861 3149 
Q 5037 2733 5037 2240 
Q 5037 1747 4861 1331 
Q 4685 915 4368 608 
Q 4051 301 3622 131 
Q 3194 -38 2688 -38 
z
M 2688 384 
Q 3091 384 3433 521 
Q 3776 659 4029 912 
Q 4282 1165 4422 1501 
Q 4563 1837 4563 2240 
Q 4563 2643 4422 2979 
Q 4282 3315 4029 3568 
Q 3776 3821 3433 3958 
Q 3091 4096 2688 4096 
Q 2285 4096 1939 3958 
Q 1594 3821 1341 3568 
Q 1088 3315 944 2979 
Q 800 2643 800 2240 
Q 800 1843 944 1504 
Q 1088 1165 1341 912 
Q 1594 659 1939 521 
Q 2285 384 2688 384 
z
" transform="scale(0.015625)"/>
     <path id="Montserrat-Regular-70" d="M 2368 -32 
Q 1933 -32 1581 169 
Q 1229 371 1021 752 
Q 813 1133 813 1683 
Q 813 2234 1017 2614 
Q 1222 2995 1574 3193 
Q 1926 3392 2368 3392 
Q 2848 3392 3229 3177 
Q 3610 2963 3827 2576 
Q 4045 2189 4045 1683 
Q 4045 1171 3827 787 
Q 3610 403 3229 185 
Q 2848 -32 2368 -32 
z
M 634 -1242 
L 634 3360 
L 1069 3360 
L 1069 2349 
L 1024 1677 
L 1088 998 
L 1088 -1242 
L 634 -1242 
z
M 2336 371 
Q 2694 371 2976 534 
Q 3258 698 3424 995 
Q 3590 1293 3590 1683 
Q 3590 2074 3424 2368 
Q 3258 2662 2976 2828 
Q 2694 2995 2336 2995 
Q 1978 2995 1693 2828 
Q 1408 2662 1245 2368 
Q 1082 2074 1082 1683 
Q 1082 1293 1245 995 
Q 1408 698 1693 534 
Q 1978 371 2336 371 
z
" transform="scale(0.015625)"/>
     <path id="Montserrat-Regular-69" d="M 634 0 
L 634 3360 
L 1088 3360 
L 1088 0 
L 634 0 
z
M 864 4102 
Q 723 4102 627 4198 
Q 531 4294 531 4429 
Q 531 4563 627 4656 
Q 723 4749 864 4749 
Q 1005 4749 1101 4659 
Q 1197 4570 1197 4435 
Q 1197 4294 1104 4198 
Q 1011 4102 864 4102 
z
" transform="scale(0.015625)"/>
     <path id="Montserrat-Regular-63" d="M 2029 -32 
Q 1530 -32 1136 189 
Q 742 410 518 797 
Q 294 1184 294 1683 
Q 294 2189 518 2573 
Q 742 2957 1136 3174 
Q 1530 3392 2029 3392 
Q 2458 3392 2803 3225 
Q 3149 3059 3347 2726 
L 3008 2496 
Q 2835 2752 2579 2873 
Q 2323 2995 2022 2995 
Q 1664 2995 1376 2832 
Q 1088 2669 921 2374 
Q 755 2080 755 1683 
Q 755 1286 921 992 
Q 1088 698 1376 534 
Q 1664 371 2022 371 
Q 2323 371 2579 492 
Q 2835 614 3008 864 
L 3347 634 
Q 3149 307 2803 137 
Q 2458 -32 2029 -32 
z
" transform="scale(0.015625)"/>
    </defs>
    <use xlink:href="#Montserrat-Regular-4d"/>
    <use xlink:href="#Montserrat-Regular-65" x="95.499985"/>
    <use xlink:href="#Montserrat-Regular-64" x="155.899979"/>
    <use xlink:href="#Montserrat-Regular-61" x="223.699966"/>
    <use xlink:href="#Montserrat-Regular-6c" x="282.699951"/>
    <use xlink:href="#Montserrat-Regular-73" x="309.599945"/>
    <use xlink:href="#Montserrat-Regular-20" x="358.399933"/>
    <use xlink:href="#Montserrat-Regular-66" x="384.59993"/>
    <use xlink:href="#Montserrat-Regular-6f" x="418.499924"/>
    <use xlink:href="#Montserrat-Regular-72" x="481.199921"/>
    <use xlink:href="#Montserrat-Regular-20" x="521.299911"/>
    <use xlink:href="#Montserrat-Regular-43" x="547.499908"/>
    <use xlink:href="#Montserrat-Regular-61" x="619.399902"/>
    <use xlink:href="#Montserrat-Regular-6e" x="678.399887"/>
    <use xlink:href="#Montserrat-Regular-61" x="745.999878"/>
    <use xlink:href="#Montserrat-Regular-64" x="804.999863"/>
    <use xlink:href="#Montserrat-Regular-61" x="872.79985"/>
    <use xlink:href="#Montserrat-Regular-20" x="931.799835"/>
    <use xlink:href="#Montserrat-Regular-61" x="957.999832"/>
    <use xlink:href="#Montserrat-Regular-74" x="1016.999817"/>
    <use xlink:href="#Montserrat-Regular-20" x="1057.599808"/>
    <use xlink:href="#Montserrat-Regular-53" x="1083.799805"/>
    <use xlink:href="#Montserrat-Regular-75" x="1145.299789"/>
    <use xlink:href="#Montserrat-Regular-6d" x="1212.499786"/>
    <use xlink:href="#Montserrat-Regular-6d" x="1318.599777"/>
    <use xlink:href="#Montserrat-Regular-65" x="1424.699768"/>
    <use xlink:href="#Montserrat-Regular-72" x="1485.099762"/>
    <use xlink:href="#Montserrat-Regular-20" x="1525.199753"/>
    <use xlink:href="#Montserrat-Regular-4f" x="1551.39975"/>
    <use xlink:href="#Montserrat-Regular-6c" x="1635.299744"/>
    <use xlink:href="#Montserrat-Regular-79" x="1662.199738"/>
    <use xlink:href="#Montserrat-Regular-6d" x="1716.399734"/>
    <use xlink:href="#Montserrat-Regular-70" x="1822.499725"/>
    <use xlink:href="#Montserrat-Regular-69" x="1890.299713"/>
    <use xlink:href="#Montserrat-Regular-63" x="1917.199707"/>
    <use xlink:href="#Montserrat-Regular-73" x="1973.499695"/>
   </g>
  </g>
 </g>
 <defs>
  <clipPath id="p25f484aa3e">
   <rect x="40.690625" y="40.508053" width="279" height="110.88"/>
  </clipPath>
 </defs>
</svg>
