<?xml version="1.0" encoding="utf-8" standalone="no"?>
<!DOCTYPE svg PUBLIC "-//W3C//DTD SVG 1.1//EN"
  "http://www.w3.org/Graphics/SVG/1.1/DTD/svg11.dtd">
<svg xmlns:xlink="http://www.w3.org/1999/xlink" width="323.890625pt" height="188.209928pt" viewBox="0 0 323.890625 188.209928" xmlns="http://www.w3.org/2000/svg" version="1.1">
 <metadata>
  <rdf:RDF xmlns:dc="http://purl.org/dc/elements/1.1/" xmlns:cc="http://creativecommons.org/ns#" xmlns:rdf="http://www.w3.org/1999/02/22-rdf-syntax-ns#">
   <cc:Work>
    <dc:type rdf:resource="http://purl.org/dc/dcmitype/StillImage"/>
    <dc:date>2024-08-08T08:27:31.773409</dc:date>
    <dc:format>image/svg+xml</dc:format>
    <dc:creator>
     <cc:Agent>
      <dc:title>Matplotlib v3.5.1, https://matplotlib.org/</dc:title>
     </cc:Agent>
    </dc:creator>
   </cc:Work>
  </rdf:RDF>
 </metadata>
 <defs>
  <style type="text/css">*{stroke-linejoin: round; stroke-linecap: butt}</style>
 </defs>
 <g id="figure_1">
  <g id="patch_1">
   <path d="M 0 188.209928 
L 323.890625 188.209928 
L 323.890625 0 
L 0 0 
z
" style="fill: #ffffff"/>
  </g>
  <g id="axes_1">
   <g id="patch_2">
    <path d="M 37.690625 151.388053 
L 316.690625 151.388053 
L 316.690625 40.508053 
L 37.690625 40.508053 
z
" style="fill: #ffffff"/>
   </g>
   <g id="line2d_1">
    <path d="M 75.117454 70.748053 
L 87.48996 127.448053 
L 99.862465 102.248053 
L 112.234971 133.748053 
L 136.979982 108.548053 
L 149.352488 77.048053 
L 161.724993 108.548053 
L 174.097499 108.548053 
L 186.470004 114.848053 
L 198.84251 51.848053 
L 211.215015 121.148053 
L 217.401268 77.048053 
L 229.773774 102.248053 
L 242.146279 64.448053 
L 254.518785 51.848053 
L 266.89129 89.648053 
L 279.263796 70.748053 
L 291.636301 45.548053 
L 304.008807 58.148053 
" clip-path="url(#p38e94b4806)" style="fill: none; stroke: #000000; stroke-width: 0.886227"/>
   </g>
   <g id="matplotlib.axis_1">
    <g id="xtick_1">
     <g id="line2d_2">
      <defs>
       <path id="me391edc53a" d="M 0 0 
L 0 3.5 
" style="stroke: #000000; stroke-width: 0.8"/>
      </defs>
      <g>
       <use xlink:href="#me391edc53a" x="50.372443" y="151.388053" style="stroke: #000000; stroke-width: 0.8"/>
      </g>
     </g>
     <g id="text_1">
      <!-- 1940 -->
      <g transform="translate(38.907599 164.708365)scale(0.1 -0.1)">
       <defs>
        <path id="Montserrat-Regular-31" d="M 1114 0 
L 1114 4288 
L 1318 4070 
L 58 4070 
L 58 4480 
L 1574 4480 
L 1574 0 
L 1114 0 
z
" transform="scale(0.015625)"/>
        <path id="Montserrat-Regular-39" d="M 1728 4518 
Q 2323 4518 2732 4252 
Q 3142 3987 3353 3488 
Q 3565 2989 3565 2278 
Q 3565 1523 3305 1004 
Q 3046 486 2585 224 
Q 2125 -38 1517 -38 
Q 1216 -38 944 19 
Q 672 77 454 205 
L 640 576 
Q 813 461 1040 413 
Q 1267 365 1510 365 
Q 2234 365 2666 825 
Q 3098 1286 3098 2202 
Q 3098 2349 3082 2553 
Q 3066 2758 3008 2963 
L 3168 2842 
Q 3104 2509 2896 2275 
Q 2688 2042 2384 1920 
Q 2080 1798 1709 1798 
Q 1267 1798 924 1964 
Q 582 2131 390 2432 
Q 198 2733 198 3142 
Q 198 3565 396 3872 
Q 595 4179 944 4348 
Q 1293 4518 1728 4518 
z
M 1747 4128 
Q 1427 4128 1180 4009 
Q 934 3891 793 3673 
Q 653 3456 653 3155 
Q 653 2714 957 2451 
Q 1261 2189 1779 2189 
Q 2125 2189 2384 2317 
Q 2643 2445 2787 2669 
Q 2931 2893 2931 3168 
Q 2931 3418 2796 3635 
Q 2662 3853 2400 3990 
Q 2138 4128 1747 4128 
z
" transform="scale(0.015625)"/>
        <path id="Montserrat-Regular-34" d="M 256 1178 
L 256 1510 
L 2630 4480 
L 3142 4480 
L 787 1510 
L 538 1587 
L 4141 1587 
L 4141 1178 
L 256 1178 
z
M 2784 0 
L 2784 1178 
L 2797 1587 
L 2797 2624 
L 3245 2624 
L 3245 0 
L 2784 0 
z
" transform="scale(0.015625)"/>
        <path id="Montserrat-Regular-30" d="M 2118 -38 
Q 1600 -38 1197 234 
Q 794 506 563 1014 
Q 333 1523 333 2240 
Q 333 2957 563 3465 
Q 794 3974 1197 4246 
Q 1600 4518 2118 4518 
Q 2637 4518 3040 4246 
Q 3443 3974 3676 3465 
Q 3910 2957 3910 2240 
Q 3910 1523 3676 1014 
Q 3443 506 3040 234 
Q 2637 -38 2118 -38 
z
M 2118 384 
Q 2515 384 2809 598 
Q 3104 813 3270 1225 
Q 3437 1638 3437 2240 
Q 3437 2842 3270 3254 
Q 3104 3667 2809 3881 
Q 2515 4096 2118 4096 
Q 1734 4096 1433 3881 
Q 1133 3667 966 3254 
Q 800 2842 800 2240 
Q 800 1638 966 1225 
Q 1133 813 1433 598 
Q 1734 384 2118 384 
z
" transform="scale(0.015625)"/>
       </defs>
       <use xlink:href="#Montserrat-Regular-31"/>
       <use xlink:href="#Montserrat-Regular-39" x="36.099991"/>
       <use xlink:href="#Montserrat-Regular-34" x="96.999985"/>
       <use xlink:href="#Montserrat-Regular-30" x="163.099976"/>
      </g>
     </g>
    </g>
    <g id="xtick_2">
     <g id="line2d_3">
      <g>
       <use xlink:href="#me391edc53a" x="112.234971" y="151.388053" style="stroke: #000000; stroke-width: 0.8"/>
      </g>
     </g>
     <g id="text_2">
      <!-- 1960 -->
      <g transform="translate(101.029502 164.708365)scale(0.1 -0.1)">
       <defs>
        <path id="Montserrat-Regular-36" d="M 2170 -38 
Q 1574 -38 1164 227 
Q 755 493 544 995 
Q 333 1498 333 2202 
Q 333 2963 592 3478 
Q 851 3994 1312 4256 
Q 1773 4518 2381 4518 
Q 2682 4518 2957 4460 
Q 3232 4403 3443 4275 
L 3258 3904 
Q 3085 4019 2861 4067 
Q 2637 4115 2387 4115 
Q 1664 4115 1232 3654 
Q 800 3194 800 2278 
Q 800 2138 816 1930 
Q 832 1722 890 1517 
L 730 1638 
Q 800 1971 1005 2204 
Q 1210 2438 1517 2560 
Q 1824 2682 2189 2682 
Q 2637 2682 2976 2515 
Q 3315 2349 3507 2048 
Q 3699 1747 3699 1338 
Q 3699 922 3500 611 
Q 3302 301 2953 131 
Q 2605 -38 2170 -38 
z
M 2150 352 
Q 2470 352 2716 470 
Q 2963 589 3104 809 
Q 3245 1030 3245 1325 
Q 3245 1766 2941 2028 
Q 2637 2291 2118 2291 
Q 1773 2291 1517 2163 
Q 1261 2035 1113 1814 
Q 966 1594 966 1312 
Q 966 1069 1100 848 
Q 1235 627 1500 489 
Q 1766 352 2150 352 
z
" transform="scale(0.015625)"/>
       </defs>
       <use xlink:href="#Montserrat-Regular-31"/>
       <use xlink:href="#Montserrat-Regular-39" x="36.099991"/>
       <use xlink:href="#Montserrat-Regular-36" x="96.999985"/>
       <use xlink:href="#Montserrat-Regular-30" x="157.899979"/>
      </g>
     </g>
    </g>
    <g id="xtick_3">
     <g id="line2d_4">
      <g>
       <use xlink:href="#me391edc53a" x="174.097499" y="151.388053" style="stroke: #000000; stroke-width: 0.8"/>
      </g>
     </g>
     <g id="text_3">
      <!-- 1980 -->
      <g transform="translate(162.747499 164.708365)scale(0.1 -0.1)">
       <defs>
        <path id="Montserrat-Regular-38" d="M 2035 -38 
Q 1498 -38 1110 115 
Q 723 269 515 560 
Q 307 851 307 1248 
Q 307 1632 508 1904 
Q 710 2176 1097 2323 
Q 1485 2470 2035 2470 
Q 2579 2470 2969 2323 
Q 3360 2176 3568 1904 
Q 3776 1632 3776 1248 
Q 3776 851 3565 560 
Q 3354 269 2963 115 
Q 2573 -38 2035 -38 
z
M 2035 352 
Q 2630 352 2966 595 
Q 3302 838 3302 1254 
Q 3302 1670 2966 1910 
Q 2630 2150 2035 2150 
Q 1440 2150 1107 1910 
Q 774 1670 774 1254 
Q 774 838 1107 595 
Q 1440 352 2035 352 
z
M 2035 2208 
Q 1536 2208 1187 2342 
Q 838 2477 652 2729 
Q 467 2982 467 3334 
Q 467 3706 662 3971 
Q 858 4237 1210 4377 
Q 1562 4518 2035 4518 
Q 2509 4518 2864 4377 
Q 3219 4237 3417 3971 
Q 3616 3706 3616 3334 
Q 3616 2982 3430 2729 
Q 3245 2477 2889 2342 
Q 2534 2208 2035 2208 
z
M 2035 2515 
Q 2560 2515 2854 2732 
Q 3149 2950 3149 3315 
Q 3149 3699 2845 3913 
Q 2541 4128 2035 4128 
Q 1530 4128 1229 3913 
Q 928 3699 928 3322 
Q 928 2950 1219 2732 
Q 1510 2515 2035 2515 
z
" transform="scale(0.015625)"/>
       </defs>
       <use xlink:href="#Montserrat-Regular-31"/>
       <use xlink:href="#Montserrat-Regular-39" x="36.099991"/>
       <use xlink:href="#Montserrat-Regular-38" x="96.999985"/>
       <use xlink:href="#Montserrat-Regular-30" x="160.799973"/>
      </g>
     </g>
    </g>
    <g id="xtick_4">
     <g id="line2d_5">
      <g>
       <use xlink:href="#me391edc53a" x="235.960026" y="151.388053" style="stroke: #000000; stroke-width: 0.8"/>
      </g>
     </g>
     <g id="text_4">
      <!-- 2000 -->
      <g transform="translate(223.189714 164.708365)scale(0.1 -0.1)">
       <defs>
        <path id="Montserrat-Regular-32" d="M 250 0 
L 250 326 
L 2112 2150 
Q 2368 2400 2496 2589 
Q 2624 2778 2669 2944 
Q 2714 3110 2714 3258 
Q 2714 3648 2448 3872 
Q 2182 4096 1664 4096 
Q 1267 4096 963 3974 
Q 659 3853 442 3597 
L 115 3878 
Q 378 4186 787 4352 
Q 1197 4518 1702 4518 
Q 2157 4518 2489 4374 
Q 2822 4230 3004 3955 
Q 3187 3680 3187 3309 
Q 3187 3091 3126 2880 
Q 3066 2669 2909 2435 
Q 2752 2202 2451 1907 
L 742 230 
L 614 410 
L 3392 410 
L 3392 0 
L 250 0 
z
" transform="scale(0.015625)"/>
       </defs>
       <use xlink:href="#Montserrat-Regular-32"/>
       <use xlink:href="#Montserrat-Regular-30" x="56.799988"/>
       <use xlink:href="#Montserrat-Regular-30" x="122.999985"/>
       <use xlink:href="#Montserrat-Regular-30" x="189.199982"/>
      </g>
     </g>
    </g>
    <g id="xtick_5">
     <g id="line2d_6">
      <g>
       <use xlink:href="#me391edc53a" x="297.822554" y="151.388053" style="stroke: #000000; stroke-width: 0.8"/>
      </g>
     </g>
     <g id="text_5">
      <!-- 2020 -->
      <g transform="translate(285.522554 164.708365)scale(0.1 -0.1)">
       <use xlink:href="#Montserrat-Regular-32"/>
       <use xlink:href="#Montserrat-Regular-30" x="56.799988"/>
       <use xlink:href="#Montserrat-Regular-32" x="122.999985"/>
       <use xlink:href="#Montserrat-Regular-30" x="179.799973"/>
      </g>
     </g>
    </g>
    <g id="xtick_6">
     <g id="line2d_7">
      <defs>
       <path id="md0238610d4" d="M 0 0 
L 0 2 
" style="stroke: #000000; stroke-width: 0.6"/>
      </defs>
      <g>
       <use xlink:href="#md0238610d4" x="81.303707" y="151.388053" style="stroke: #000000; stroke-width: 0.6"/>
      </g>
     </g>
    </g>
    <g id="xtick_7">
     <g id="line2d_8">
      <g>
       <use xlink:href="#md0238610d4" x="143.166235" y="151.388053" style="stroke: #000000; stroke-width: 0.6"/>
      </g>
     </g>
    </g>
    <g id="xtick_8">
     <g id="line2d_9">
      <g>
       <use xlink:href="#md0238610d4" x="205.028762" y="151.388053" style="stroke: #000000; stroke-width: 0.6"/>
      </g>
     </g>
    </g>
    <g id="xtick_9">
     <g id="line2d_10">
      <g>
       <use xlink:href="#md0238610d4" x="266.89129" y="151.388053" style="stroke: #000000; stroke-width: 0.6"/>
      </g>
     </g>
    </g>
    <g id="text_6">
     <!-- year -->
     <g transform="translate(162.005469 179.019303)scale(0.1 -0.1)">
      <defs>
       <path id="Montserrat-Regular-79" d="M 659 -1274 
Q 422 -1274 208 -1197 
Q -6 -1120 -160 -966 
L 51 -627 
Q 179 -749 329 -816 
Q 480 -883 666 -883 
Q 890 -883 1053 -758 
Q 1216 -634 1363 -320 
L 1581 173 
L 1632 243 
L 3014 3360 
L 3462 3360 
L 1779 -403 
Q 1638 -730 1468 -922 
Q 1299 -1114 1100 -1194 
Q 902 -1274 659 -1274 
z
M 1555 -96 
L 6 3360 
L 480 3360 
L 1850 275 
L 1555 -96 
z
" transform="scale(0.015625)"/>
       <path id="Montserrat-Regular-65" d="M 2061 -32 
Q 1536 -32 1139 189 
Q 742 410 518 797 
Q 294 1184 294 1683 
Q 294 2182 508 2566 
Q 723 2950 1097 3171 
Q 1472 3392 1939 3392 
Q 2413 3392 2781 3177 
Q 3149 2963 3360 2576 
Q 3571 2189 3571 1683 
Q 3571 1651 3568 1616 
Q 3565 1581 3565 1542 
L 640 1542 
L 640 1882 
L 3322 1882 
L 3142 1747 
Q 3142 2112 2985 2397 
Q 2829 2682 2560 2842 
Q 2291 3002 1939 3002 
Q 1594 3002 1318 2842 
Q 1043 2682 889 2394 
Q 736 2106 736 1734 
L 736 1664 
Q 736 1280 905 989 
Q 1075 698 1379 534 
Q 1683 371 2074 371 
Q 2381 371 2646 480 
Q 2912 589 3104 813 
L 3360 518 
Q 3136 250 2800 109 
Q 2464 -32 2061 -32 
z
" transform="scale(0.015625)"/>
       <path id="Montserrat-Regular-61" d="M 2739 0 
L 2739 742 
L 2720 864 
L 2720 2106 
Q 2720 2534 2480 2764 
Q 2240 2995 1766 2995 
Q 1440 2995 1145 2886 
Q 851 2778 646 2598 
L 442 2938 
Q 698 3155 1056 3273 
Q 1414 3392 1811 3392 
Q 2464 3392 2819 3069 
Q 3174 2746 3174 2086 
L 3174 0 
L 2739 0 
z
M 1581 -32 
Q 1203 -32 924 93 
Q 646 218 499 438 
Q 352 659 352 947 
Q 352 1210 477 1424 
Q 602 1638 886 1769 
Q 1171 1901 1651 1901 
L 2810 1901 
L 2810 1562 
L 1664 1562 
Q 1178 1562 989 1389 
Q 800 1216 800 960 
Q 800 672 1024 499 
Q 1248 326 1651 326 
Q 2035 326 2313 502 
Q 2592 678 2720 1011 
L 2822 698 
Q 2694 365 2377 166 
Q 2061 -32 1581 -32 
z
" transform="scale(0.015625)"/>
       <path id="Montserrat-Regular-72" d="M 634 0 
L 634 3360 
L 1069 3360 
L 1069 2445 
L 1024 2605 
Q 1165 2989 1497 3190 
Q 1830 3392 2323 3392 
L 2323 2950 
Q 2298 2950 2272 2953 
Q 2246 2957 2221 2957 
Q 1690 2957 1389 2633 
Q 1088 2310 1088 1715 
L 1088 0 
L 634 0 
z
" transform="scale(0.015625)"/>
      </defs>
      <use xlink:href="#Montserrat-Regular-79"/>
      <use xlink:href="#Montserrat-Regular-65" x="54.199997"/>
      <use xlink:href="#Montserrat-Regular-61" x="114.599991"/>
      <use xlink:href="#Montserrat-Regular-72" x="173.599976"/>
     </g>
    </g>
   </g>
   <g id="matplotlib.axis_2">
    <g id="ytick_1">
     <g id="line2d_11">
      <defs>
       <path id="mc1d5a301e4" d="M 0 0 
L -3.5 0 
" style="stroke: #000000; stroke-width: 0.8"/>
      </defs>
      <g>
       <use xlink:href="#mc1d5a301e4" x="37.690625" y="146.348053" style="stroke: #000000; stroke-width: 0.8"/>
      </g>
     </g>
     <g id="text_7">
      <!-- 0 -->
      <g transform="translate(25.170313 150.058209)scale(0.1 -0.1)">
       <use xlink:href="#Montserrat-Regular-30"/>
      </g>
     </g>
    </g>
    <g id="ytick_2">
     <g id="line2d_12">
      <g>
       <use xlink:href="#mc1d5a301e4" x="37.690625" y="114.848053" style="stroke: #000000; stroke-width: 0.8"/>
      </g>
     </g>
     <g id="text_8">
      <!-- 5 -->
      <g transform="translate(26.13125 118.558209)scale(0.1 -0.1)">
       <defs>
        <path id="Montserrat-Regular-35" d="M 1747 -38 
Q 1267 -38 832 118 
Q 397 275 141 538 
L 365 902 
Q 576 678 944 531 
Q 1312 384 1741 384 
Q 2310 384 2608 637 
Q 2906 890 2906 1299 
Q 2906 1587 2768 1795 
Q 2630 2003 2304 2118 
Q 1978 2234 1408 2234 
L 454 2234 
L 685 4480 
L 3136 4480 
L 3136 4070 
L 870 4070 
L 1107 4294 
L 909 2413 
L 672 2643 
L 1510 2643 
Q 2189 2643 2598 2476 
Q 3008 2310 3190 2012 
Q 3373 1715 3373 1318 
Q 3373 941 3193 630 
Q 3014 320 2656 141 
Q 2298 -38 1747 -38 
z
" transform="scale(0.015625)"/>
       </defs>
       <use xlink:href="#Montserrat-Regular-35"/>
      </g>
     </g>
    </g>
    <g id="ytick_3">
     <g id="line2d_13">
      <g>
       <use xlink:href="#mc1d5a301e4" x="37.690625" y="83.348053" style="stroke: #000000; stroke-width: 0.8"/>
      </g>
     </g>
     <g id="text_9">
      <!-- 10 -->
      <g transform="translate(21.560938 87.058209)scale(0.1 -0.1)">
       <use xlink:href="#Montserrat-Regular-31"/>
       <use xlink:href="#Montserrat-Regular-30" x="36.099991"/>
      </g>
     </g>
    </g>
    <g id="ytick_4">
     <g id="line2d_14">
      <g>
       <use xlink:href="#mc1d5a301e4" x="37.690625" y="51.848053" style="stroke: #000000; stroke-width: 0.8"/>
      </g>
     </g>
     <g id="text_10">
      <!-- 15 -->
      <g transform="translate(22.521875 55.558209)scale(0.1 -0.1)">
       <use xlink:href="#Montserrat-Regular-31"/>
       <use xlink:href="#Montserrat-Regular-35" x="36.099991"/>
      </g>
     </g>
    </g>
    <g id="ytick_5">
     <g id="line2d_15">
      <defs>
       <path id="ma093b9ac99" d="M 0 0 
L -2 0 
" style="stroke: #000000; stroke-width: 0.6"/>
      </defs>
      <g>
       <use xlink:href="#ma093b9ac99" x="37.690625" y="130.598053" style="stroke: #000000; stroke-width: 0.6"/>
      </g>
     </g>
    </g>
    <g id="ytick_6">
     <g id="line2d_16">
      <g>
       <use xlink:href="#ma093b9ac99" x="37.690625" y="99.098053" style="stroke: #000000; stroke-width: 0.6"/>
      </g>
     </g>
    </g>
    <g id="ytick_7">
     <g id="line2d_17">
      <g>
       <use xlink:href="#ma093b9ac99" x="37.690625" y="67.598053" style="stroke: #000000; stroke-width: 0.6"/>
      </g>
     </g>
    </g>
    <g id="text_11">
     <!-- medals -->
     <g transform="translate(14.620313 113.678053)rotate(-90)scale(0.1 -0.1)">
      <defs>
       <path id="Montserrat-Regular-6d" d="M 4832 3392 
Q 5242 3392 5546 3235 
Q 5850 3078 6019 2758 
Q 6189 2438 6189 1952 
L 6189 0 
L 5734 0 
L 5734 1907 
Q 5734 2438 5481 2710 
Q 5229 2982 4768 2982 
Q 4422 2982 4169 2838 
Q 3917 2694 3779 2422 
Q 3642 2150 3642 1766 
L 3642 0 
L 3187 0 
L 3187 1907 
Q 3187 2438 2931 2710 
Q 2675 2982 2214 2982 
Q 1875 2982 1619 2838 
Q 1363 2694 1225 2422 
Q 1088 2150 1088 1766 
L 1088 0 
L 634 0 
L 634 3360 
L 1069 3360 
L 1069 2451 
L 998 2611 
Q 1152 2976 1494 3184 
Q 1837 3392 2304 3392 
Q 2797 3392 3142 3145 
Q 3488 2899 3590 2406 
L 3411 2477 
Q 3558 2886 3932 3139 
Q 4307 3392 4832 3392 
z
" transform="scale(0.015625)"/>
       <path id="Montserrat-Regular-64" d="M 1971 -32 
Q 1491 -32 1110 185 
Q 730 403 512 790 
Q 294 1178 294 1683 
Q 294 2195 512 2579 
Q 730 2963 1110 3177 
Q 1491 3392 1971 3392 
Q 2413 3392 2761 3193 
Q 3110 2995 3318 2614 
Q 3526 2234 3526 1683 
Q 3526 1139 3321 755 
Q 3117 371 2768 169 
Q 2419 -32 1971 -32 
z
M 2003 371 
Q 2362 371 2646 534 
Q 2931 698 3094 995 
Q 3258 1293 3258 1683 
Q 3258 2080 3094 2374 
Q 2931 2669 2646 2832 
Q 2362 2995 2003 2995 
Q 1651 2995 1369 2832 
Q 1088 2669 921 2374 
Q 755 2080 755 1683 
Q 755 1293 921 995 
Q 1088 698 1369 534 
Q 1651 371 2003 371 
z
M 3270 0 
L 3270 1011 
L 3315 1690 
L 3251 2368 
L 3251 4749 
L 3706 4749 
L 3706 0 
L 3270 0 
z
" transform="scale(0.015625)"/>
       <path id="Montserrat-Regular-6c" d="M 634 0 
L 634 4749 
L 1088 4749 
L 1088 0 
L 634 0 
z
" transform="scale(0.015625)"/>
       <path id="Montserrat-Regular-73" d="M 1536 -32 
Q 1120 -32 749 86 
Q 378 205 166 384 
L 371 742 
Q 576 589 896 477 
Q 1216 365 1568 365 
Q 2048 365 2259 515 
Q 2470 666 2470 915 
Q 2470 1101 2352 1206 
Q 2234 1312 2042 1366 
Q 1850 1421 1613 1459 
Q 1376 1498 1142 1549 
Q 909 1600 717 1699 
Q 525 1798 406 1971 
Q 288 2144 288 2432 
Q 288 2707 441 2924 
Q 595 3142 892 3267 
Q 1190 3392 1619 3392 
Q 1946 3392 2272 3305 
Q 2598 3219 2810 3078 
L 2611 2714 
Q 2387 2867 2131 2934 
Q 1875 3002 1619 3002 
Q 1165 3002 950 2845 
Q 736 2688 736 2445 
Q 736 2253 854 2144 
Q 973 2035 1168 1974 
Q 1363 1914 1596 1875 
Q 1830 1837 2064 1782 
Q 2298 1728 2493 1635 
Q 2688 1542 2806 1372 
Q 2925 1203 2925 928 
Q 2925 634 2761 419 
Q 2598 205 2288 86 
Q 1978 -32 1536 -32 
z
" transform="scale(0.015625)"/>
      </defs>
      <use xlink:href="#Montserrat-Regular-6d"/>
      <use xlink:href="#Montserrat-Regular-65" x="106.099991"/>
      <use xlink:href="#Montserrat-Regular-64" x="166.499985"/>
      <use xlink:href="#Montserrat-Regular-61" x="234.299973"/>
      <use xlink:href="#Montserrat-Regular-6c" x="293.299957"/>
      <use xlink:href="#Montserrat-Regular-73" x="320.199951"/>
     </g>
    </g>
   </g>
   <g id="PathCollection_1">
    <path d="M 75.117454 71.412723 
C 75.293727 71.412723 75.462804 71.342689 75.587447 71.218046 
C 75.712091 71.093402 75.782124 70.924325 75.782124 70.748053 
C 75.782124 70.57178 75.712091 70.402704 75.587447 70.27806 
C 75.462804 70.153416 75.293727 70.083383 75.117454 70.083383 
C 74.941182 70.083383 74.772105 70.153416 74.647461 70.27806 
C 74.522818 70.402704 74.452784 70.57178 74.452784 70.748053 
C 74.452784 70.924325 74.522818 71.093402 74.647461 71.218046 
C 74.772105 71.342689 74.941182 71.412723 75.117454 71.412723 
z
" clip-path="url(#p38e94b4806)" style="fill-opacity: 0.501961; stroke: #000000; stroke-opacity: 0.501961; stroke-width: 0.886227"/>
    <path d="M 87.48996 128.112723 
C 87.666232 128.112723 87.835309 128.042689 87.959953 127.918046 
C 88.084596 127.793402 88.15463 127.624325 88.15463 127.448053 
C 88.15463 127.27178 88.084596 127.102704 87.959953 126.97806 
C 87.835309 126.853416 87.666232 126.783383 87.48996 126.783383 
C 87.313687 126.783383 87.144611 126.853416 87.019967 126.97806 
C 86.895323 127.102704 86.82529 127.27178 86.82529 127.448053 
C 86.82529 127.624325 86.895323 127.793402 87.019967 127.918046 
C 87.144611 128.042689 87.313687 128.112723 87.48996 128.112723 
z
" clip-path="url(#p38e94b4806)" style="fill-opacity: 0.501961; stroke: #000000; stroke-opacity: 0.501961; stroke-width: 0.886227"/>
    <path d="M 99.862465 102.912723 
C 100.038738 102.912723 100.207815 102.842689 100.332458 102.718046 
C 100.457102 102.593402 100.527136 102.424325 100.527136 102.248053 
C 100.527136 102.07178 100.457102 101.902704 100.332458 101.77806 
C 100.207815 101.653416 100.038738 101.583383 99.862465 101.583383 
C 99.686193 101.583383 99.517116 101.653416 99.392473 101.77806 
C 99.267829 101.902704 99.197795 102.07178 99.197795 102.248053 
C 99.197795 102.424325 99.267829 102.593402 99.392473 102.718046 
C 99.517116 102.842689 99.686193 102.912723 99.862465 102.912723 
z
" clip-path="url(#p38e94b4806)" style="fill-opacity: 0.501961; stroke: #000000; stroke-opacity: 0.501961; stroke-width: 0.886227"/>
    <path d="M 112.234971 134.412723 
C 112.411243 134.412723 112.58032 134.342689 112.704964 134.218046 
C 112.829607 134.093402 112.899641 133.924325 112.899641 133.748053 
C 112.899641 133.57178 112.829607 133.402704 112.704964 133.27806 
C 112.58032 133.153416 112.411243 133.083383 112.234971 133.083383 
C 112.058698 133.083383 111.889622 133.153416 111.764978 133.27806 
C 111.640335 133.402704 111.570301 133.57178 111.570301 133.748053 
C 111.570301 133.924325 111.640335 134.093402 111.764978 134.218046 
C 111.889622 134.342689 112.058698 134.412723 112.234971 134.412723 
z
" clip-path="url(#p38e94b4806)" style="fill-opacity: 0.501961; stroke: #000000; stroke-opacity: 0.501961; stroke-width: 0.886227"/>
    <path d="M 136.979982 109.212723 
C 137.156255 109.212723 137.325331 109.142689 137.449975 109.018046 
C 137.574618 108.893402 137.644652 108.724325 137.644652 108.548053 
C 137.644652 108.37178 137.574618 108.202704 137.449975 108.07806 
C 137.325331 107.953416 137.156255 107.883383 136.979982 107.883383 
C 136.803709 107.883383 136.634633 107.953416 136.509989 108.07806 
C 136.385346 108.202704 136.315312 108.37178 136.315312 108.548053 
C 136.315312 108.724325 136.385346 108.893402 136.509989 109.018046 
C 136.634633 109.142689 136.803709 109.212723 136.979982 109.212723 
z
" clip-path="url(#p38e94b4806)" style="fill-opacity: 0.501961; stroke: #000000; stroke-opacity: 0.501961; stroke-width: 0.886227"/>
    <path d="M 149.352488 77.712723 
C 149.52876 77.712723 149.697837 77.642689 149.82248 77.518046 
C 149.947124 77.393402 150.017158 77.224325 150.017158 77.048053 
C 150.017158 76.87178 149.947124 76.702704 149.82248 76.57806 
C 149.697837 76.453416 149.52876 76.383383 149.352488 76.383383 
C 149.176215 76.383383 149.007138 76.453416 148.882495 76.57806 
C 148.757851 76.702704 148.687817 76.87178 148.687817 77.048053 
C 148.687817 77.224325 148.757851 77.393402 148.882495 77.518046 
C 149.007138 77.642689 149.176215 77.712723 149.352488 77.712723 
z
" clip-path="url(#p38e94b4806)" style="fill-opacity: 0.501961; stroke: #000000; stroke-opacity: 0.501961; stroke-width: 0.886227"/>
    <path d="M 161.724993 109.212723 
C 161.901266 109.212723 162.070342 109.142689 162.194986 109.018046 
C 162.319629 108.893402 162.389663 108.724325 162.389663 108.548053 
C 162.389663 108.37178 162.319629 108.202704 162.194986 108.07806 
C 162.070342 107.953416 161.901266 107.883383 161.724993 107.883383 
C 161.54872 107.883383 161.379644 107.953416 161.255 108.07806 
C 161.130357 108.202704 161.060323 108.37178 161.060323 108.548053 
C 161.060323 108.724325 161.130357 108.893402 161.255 109.018046 
C 161.379644 109.142689 161.54872 109.212723 161.724993 109.212723 
z
" clip-path="url(#p38e94b4806)" style="fill-opacity: 0.501961; stroke: #000000; stroke-opacity: 0.501961; stroke-width: 0.886227"/>
    <path d="M 174.097499 109.212723 
C 174.273771 109.212723 174.442848 109.142689 174.567491 109.018046 
C 174.692135 108.893402 174.762169 108.724325 174.762169 108.548053 
C 174.762169 108.37178 174.692135 108.202704 174.567491 108.07806 
C 174.442848 107.953416 174.273771 107.883383 174.097499 107.883383 
C 173.921226 107.883383 173.752149 107.953416 173.627506 108.07806 
C 173.502862 108.202704 173.432828 108.37178 173.432828 108.548053 
C 173.432828 108.724325 173.502862 108.893402 173.627506 109.018046 
C 173.752149 109.142689 173.921226 109.212723 174.097499 109.212723 
z
" clip-path="url(#p38e94b4806)" style="fill-opacity: 0.501961; stroke: #000000; stroke-opacity: 0.501961; stroke-width: 0.886227"/>
    <path d="M 186.470004 115.512723 
C 186.646277 115.512723 186.815353 115.442689 186.939997 115.318046 
C 187.064641 115.193402 187.134674 115.024325 187.134674 114.848053 
C 187.134674 114.67178 187.064641 114.502704 186.939997 114.37806 
C 186.815353 114.253416 186.646277 114.183383 186.470004 114.183383 
C 186.293732 114.183383 186.124655 114.253416 186.000011 114.37806 
C 185.875368 114.502704 185.805334 114.67178 185.805334 114.848053 
C 185.805334 115.024325 185.875368 115.193402 186.000011 115.318046 
C 186.124655 115.442689 186.293732 115.512723 186.470004 115.512723 
z
" clip-path="url(#p38e94b4806)" style="fill-opacity: 0.501961; stroke: #000000; stroke-opacity: 0.501961; stroke-width: 0.886227"/>
    <path d="M 198.84251 52.512723 
C 199.018782 52.512723 199.187859 52.442689 199.312503 52.318046 
C 199.437146 52.193402 199.50718 52.024325 199.50718 51.848053 
C 199.50718 51.67178 199.437146 51.502704 199.312503 51.37806 
C 199.187859 51.253416 199.018782 51.183383 198.84251 51.183383 
C 198.666237 51.183383 198.49716 51.253416 198.372517 51.37806 
C 198.247873 51.502704 198.17784 51.67178 198.17784 51.848053 
C 198.17784 52.024325 198.247873 52.193402 198.372517 52.318046 
C 198.49716 52.442689 198.666237 52.512723 198.84251 52.512723 
z
" clip-path="url(#p38e94b4806)" style="fill-opacity: 0.501961; stroke: #000000; stroke-opacity: 0.501961; stroke-width: 0.886227"/>
    <path d="M 211.215015 121.812723 
C 211.391288 121.812723 211.560364 121.742689 211.685008 121.618046 
C 211.809652 121.493402 211.879685 121.324325 211.879685 121.148053 
C 211.879685 120.97178 211.809652 120.802704 211.685008 120.67806 
C 211.560364 120.553416 211.391288 120.483383 211.215015 120.483383 
C 211.038743 120.483383 210.869666 120.553416 210.745022 120.67806 
C 210.620379 120.802704 210.550345 120.97178 210.550345 121.148053 
C 210.550345 121.324325 210.620379 121.493402 210.745022 121.618046 
C 210.869666 121.742689 211.038743 121.812723 211.215015 121.812723 
z
" clip-path="url(#p38e94b4806)" style="fill-opacity: 0.501961; stroke: #000000; stroke-opacity: 0.501961; stroke-width: 0.886227"/>
    <path d="M 217.401268 77.712723 
C 217.577541 77.712723 217.746617 77.642689 217.871261 77.518046 
C 217.995904 77.393402 218.065938 77.224325 218.065938 77.048053 
C 218.065938 76.87178 217.995904 76.702704 217.871261 76.57806 
C 217.746617 76.453416 217.577541 76.383383 217.401268 76.383383 
C 217.224995 76.383383 217.055919 76.453416 216.931275 76.57806 
C 216.806632 76.702704 216.736598 76.87178 216.736598 77.048053 
C 216.736598 77.224325 216.806632 77.393402 216.931275 77.518046 
C 217.055919 77.642689 217.224995 77.712723 217.401268 77.712723 
z
" clip-path="url(#p38e94b4806)" style="fill-opacity: 0.501961; stroke: #000000; stroke-opacity: 0.501961; stroke-width: 0.886227"/>
    <path d="M 229.773774 102.912723 
C 229.950046 102.912723 230.119123 102.842689 230.243766 102.718046 
C 230.36841 102.593402 230.438444 102.424325 230.438444 102.248053 
C 230.438444 102.07178 230.36841 101.902704 230.243766 101.77806 
C 230.119123 101.653416 229.950046 101.583383 229.773774 101.583383 
C 229.597501 101.583383 229.428424 101.653416 229.303781 101.77806 
C 229.179137 101.902704 229.109103 102.07178 229.109103 102.248053 
C 229.109103 102.424325 229.179137 102.593402 229.303781 102.718046 
C 229.428424 102.842689 229.597501 102.912723 229.773774 102.912723 
z
" clip-path="url(#p38e94b4806)" style="fill-opacity: 0.501961; stroke: #000000; stroke-opacity: 0.501961; stroke-width: 0.886227"/>
    <path d="M 242.146279 65.112723 
C 242.322552 65.112723 242.491628 65.042689 242.616272 64.918046 
C 242.740915 64.793402 242.810949 64.624325 242.810949 64.448053 
C 242.810949 64.27178 242.740915 64.102704 242.616272 63.97806 
C 242.491628 63.853416 242.322552 63.783383 242.146279 63.783383 
C 241.970007 63.783383 241.80093 63.853416 241.676286 63.97806 
C 241.551643 64.102704 241.481609 64.27178 241.481609 64.448053 
C 241.481609 64.624325 241.551643 64.793402 241.676286 64.918046 
C 241.80093 65.042689 241.970007 65.112723 242.146279 65.112723 
z
" clip-path="url(#p38e94b4806)" style="fill-opacity: 0.501961; stroke: #000000; stroke-opacity: 0.501961; stroke-width: 0.886227"/>
    <path d="M 254.518785 52.512723 
C 254.695057 52.512723 254.864134 52.442689 254.988777 52.318046 
C 255.113421 52.193402 255.183455 52.024325 255.183455 51.848053 
C 255.183455 51.67178 255.113421 51.502704 254.988777 51.37806 
C 254.864134 51.253416 254.695057 51.183383 254.518785 51.183383 
C 254.342512 51.183383 254.173435 51.253416 254.048792 51.37806 
C 253.924148 51.502704 253.854114 51.67178 253.854114 51.848053 
C 253.854114 52.024325 253.924148 52.193402 254.048792 52.318046 
C 254.173435 52.442689 254.342512 52.512723 254.518785 52.512723 
z
" clip-path="url(#p38e94b4806)" style="fill-opacity: 0.501961; stroke: #000000; stroke-opacity: 0.501961; stroke-width: 0.886227"/>
    <path d="M 266.89129 90.312723 
C 267.067563 90.312723 267.236639 90.242689 267.361283 90.118046 
C 267.485927 89.993402 267.55596 89.824325 267.55596 89.648053 
C 267.55596 89.47178 267.485927 89.302704 267.361283 89.17806 
C 267.236639 89.053416 267.067563 88.983383 266.89129 88.983383 
C 266.715018 88.983383 266.545941 89.053416 266.421297 89.17806 
C 266.296654 89.302704 266.22662 89.47178 266.22662 89.648053 
C 266.22662 89.824325 266.296654 89.993402 266.421297 90.118046 
C 266.545941 90.242689 266.715018 90.312723 266.89129 90.312723 
z
" clip-path="url(#p38e94b4806)" style="fill-opacity: 0.501961; stroke: #000000; stroke-opacity: 0.501961; stroke-width: 0.886227"/>
    <path d="M 279.263796 71.412723 
C 279.440068 71.412723 279.609145 71.342689 279.733789 71.218046 
C 279.858432 71.093402 279.928466 70.924325 279.928466 70.748053 
C 279.928466 70.57178 279.858432 70.402704 279.733789 70.27806 
C 279.609145 70.153416 279.440068 70.083383 279.263796 70.083383 
C 279.087523 70.083383 278.918446 70.153416 278.793803 70.27806 
C 278.669159 70.402704 278.599126 70.57178 278.599126 70.748053 
C 278.599126 70.924325 278.669159 71.093402 278.793803 71.218046 
C 278.918446 71.342689 279.087523 71.412723 279.263796 71.412723 
z
" clip-path="url(#p38e94b4806)" style="fill-opacity: 0.501961; stroke: #000000; stroke-opacity: 0.501961; stroke-width: 0.886227"/>
    <path d="M 291.636301 46.212723 
C 291.812574 46.212723 291.981651 46.142689 292.106294 46.018046 
C 292.230938 45.893402 292.300971 45.724325 292.300971 45.548053 
C 292.300971 45.37178 292.230938 45.202704 292.106294 45.07806 
C 291.981651 44.953416 291.812574 44.883383 291.636301 44.883383 
C 291.460029 44.883383 291.290952 44.953416 291.166308 45.07806 
C 291.041665 45.202704 290.971631 45.37178 290.971631 45.548053 
C 290.971631 45.724325 291.041665 45.893402 291.166308 46.018046 
C 291.290952 46.142689 291.460029 46.212723 291.636301 46.212723 
z
" clip-path="url(#p38e94b4806)" style="fill-opacity: 0.501961; stroke: #000000; stroke-opacity: 0.501961; stroke-width: 0.886227"/>
    <path d="M 304.008807 58.812723 
C 304.185079 58.812723 304.354156 58.742689 304.4788 58.618046 
C 304.603443 58.493402 304.673477 58.324325 304.673477 58.148053 
C 304.673477 57.97178 304.603443 57.802704 304.4788 57.67806 
C 304.354156 57.553416 304.185079 57.483383 304.008807 57.483383 
C 303.832534 57.483383 303.663458 57.553416 303.538814 57.67806 
C 303.41417 57.802704 303.344137 57.97178 303.344137 58.148053 
C 303.344137 58.324325 303.41417 58.493402 303.538814 58.618046 
C 303.663458 58.742689 303.832534 58.812723 304.008807 58.812723 
z
" clip-path="url(#p38e94b4806)" style="fill-opacity: 0.501961; stroke: #000000; stroke-opacity: 0.501961; stroke-width: 0.886227"/>
   </g>
   <g id="patch_3">
    <path d="M 37.690625 40.508053 
L 316.690625 40.508053 
L 316.690625 24.508053 
L 37.690625 24.508053 
z
" style="fill: #d9d9d9; stroke: #d9d9d9; stroke-linejoin: miter"/>
   </g>
   <g id="PathCollection_2">
    <defs>
     <path id="mf76b907b46" d="M -2.215567 0 
L 2.215567 0 
M 0 2.215567 
L 0 -2.215567 
" style="stroke: #ff0000; stroke-width: 0.886227"/>
    </defs>
    <g clip-path="url(#p38e94b4806)">
     <use xlink:href="#mf76b907b46" x="75.117454" y="70.748053" style="fill: #ff0000; stroke: #ff0000; stroke-width: 0.886227"/>
    </g>
   </g>
   <g id="text_12">
    <!-- Switzerland -->
    <g transform="translate(147.700781 35.247897)scale(0.1 -0.1)">
     <defs>
      <path id="Montserrat-Regular-53" d="M 1965 -38 
Q 1466 -38 1008 125 
Q 550 288 301 544 
L 486 909 
Q 723 678 1123 521 
Q 1523 365 1965 365 
Q 2387 365 2652 470 
Q 2918 576 3043 755 
Q 3168 934 3168 1152 
Q 3168 1414 3017 1574 
Q 2867 1734 2624 1827 
Q 2381 1920 2086 1990 
Q 1792 2061 1497 2141 
Q 1203 2221 956 2355 
Q 710 2490 560 2710 
Q 410 2931 410 3290 
Q 410 3622 586 3900 
Q 762 4179 1126 4348 
Q 1491 4518 2061 4518 
Q 2438 4518 2809 4412 
Q 3181 4307 3450 4122 
L 3290 3744 
Q 3002 3936 2678 4025 
Q 2355 4115 2054 4115 
Q 1651 4115 1388 4006 
Q 1126 3898 1001 3715 
Q 877 3533 877 3302 
Q 877 3040 1027 2880 
Q 1178 2720 1424 2630 
Q 1670 2541 1964 2470 
Q 2259 2400 2550 2317 
Q 2842 2234 3088 2102 
Q 3334 1971 3484 1753 
Q 3635 1536 3635 1184 
Q 3635 858 3456 579 
Q 3277 301 2909 131 
Q 2541 -38 1965 -38 
z
" transform="scale(0.015625)"/>
      <path id="Montserrat-Regular-77" d="M 1318 0 
L 51 3360 
L 486 3360 
L 1638 243 
L 1440 243 
L 2624 3360 
L 3014 3360 
L 4186 243 
L 3987 243 
L 5158 3360 
L 5574 3360 
L 4301 0 
L 3872 0 
L 2746 2931 
L 2880 2931 
L 1747 0 
L 1318 0 
z
" transform="scale(0.015625)"/>
      <path id="Montserrat-Regular-69" d="M 634 0 
L 634 3360 
L 1088 3360 
L 1088 0 
L 634 0 
z
M 864 4102 
Q 723 4102 627 4198 
Q 531 4294 531 4429 
Q 531 4563 627 4656 
Q 723 4749 864 4749 
Q 1005 4749 1101 4659 
Q 1197 4570 1197 4435 
Q 1197 4294 1104 4198 
Q 1011 4102 864 4102 
z
" transform="scale(0.015625)"/>
      <path id="Montserrat-Regular-74" d="M 1696 -32 
Q 1222 -32 966 224 
Q 710 480 710 947 
L 710 4102 
L 1165 4102 
L 1165 973 
Q 1165 678 1315 518 
Q 1466 358 1747 358 
Q 2048 358 2246 531 
L 2406 205 
Q 2272 83 2083 25 
Q 1894 -32 1696 -32 
z
M 109 2982 
L 109 3360 
L 2189 3360 
L 2189 2982 
L 109 2982 
z
" transform="scale(0.015625)"/>
      <path id="Montserrat-Regular-7a" d="M 269 0 
L 269 301 
L 2509 3136 
L 2605 2982 
L 307 2982 
L 307 3360 
L 2963 3360 
L 2963 3066 
L 730 224 
L 614 378 
L 3008 378 
L 3008 0 
L 269 0 
z
" transform="scale(0.015625)"/>
      <path id="Montserrat-Regular-6e" d="M 2349 3392 
Q 2758 3392 3068 3235 
Q 3379 3078 3555 2758 
Q 3731 2438 3731 1952 
L 3731 0 
L 3277 0 
L 3277 1907 
Q 3277 2438 3011 2710 
Q 2746 2982 2266 2982 
Q 1907 2982 1641 2838 
Q 1376 2694 1232 2422 
Q 1088 2150 1088 1766 
L 1088 0 
L 634 0 
L 634 3360 
L 1069 3360 
L 1069 2438 
L 998 2611 
Q 1158 2976 1510 3184 
Q 1862 3392 2349 3392 
z
" transform="scale(0.015625)"/>
     </defs>
     <use xlink:href="#Montserrat-Regular-53"/>
     <use xlink:href="#Montserrat-Regular-77" x="61.499985"/>
     <use xlink:href="#Montserrat-Regular-69" x="149.399979"/>
     <use xlink:href="#Montserrat-Regular-74" x="176.299973"/>
     <use xlink:href="#Montserrat-Regular-7a" x="216.899963"/>
     <use xlink:href="#Montserrat-Regular-65" x="267.999954"/>
     <use xlink:href="#Montserrat-Regular-72" x="328.399948"/>
     <use xlink:href="#Montserrat-Regular-6c" x="368.499939"/>
     <use xlink:href="#Montserrat-Regular-61" x="395.399933"/>
     <use xlink:href="#Montserrat-Regular-6e" x="454.399918"/>
     <use xlink:href="#Montserrat-Regular-64" x="521.999908"/>
    </g>
   </g>
  </g>
  <g id="text_13">
   <!-- Medals for Switzerland at Winter Olympics -->
   <g transform="translate(66.035156 14.670312)scale(0.1 -0.1)">
    <defs>
     <path id="Montserrat-Regular-4d" d="M 730 0 
L 730 4480 
L 1120 4480 
L 3168 986 
L 2963 986 
L 4992 4480 
L 5382 4480 
L 5382 0 
L 4928 0 
L 4928 3770 
L 5037 3770 
L 3168 570 
L 2944 570 
L 1062 3770 
L 1184 3770 
L 1184 0 
L 730 0 
z
" transform="scale(0.015625)"/>
     <path id="Montserrat-Regular-20" transform="scale(0.015625)"/>
     <path id="Montserrat-Regular-66" d="M 710 0 
L 710 3782 
Q 710 4230 972 4505 
Q 1235 4781 1728 4781 
Q 1920 4781 2099 4729 
Q 2278 4678 2400 4570 
L 2246 4230 
Q 2150 4314 2022 4355 
Q 1894 4397 1747 4397 
Q 1459 4397 1305 4237 
Q 1152 4077 1152 3763 
L 1152 3251 
L 1165 3040 
L 1165 0 
L 710 0 
z
M 109 2982 
L 109 3360 
L 2189 3360 
L 2189 2982 
L 109 2982 
z
" transform="scale(0.015625)"/>
     <path id="Montserrat-Regular-6f" d="M 2003 -32 
Q 1517 -32 1129 189 
Q 742 410 518 797 
Q 294 1184 294 1683 
Q 294 2189 518 2573 
Q 742 2957 1126 3174 
Q 1510 3392 2003 3392 
Q 2502 3392 2889 3174 
Q 3277 2957 3497 2573 
Q 3718 2189 3718 1683 
Q 3718 1184 3497 797 
Q 3277 410 2886 189 
Q 2496 -32 2003 -32 
z
M 2003 371 
Q 2368 371 2649 534 
Q 2931 698 3094 995 
Q 3258 1293 3258 1683 
Q 3258 2080 3094 2374 
Q 2931 2669 2649 2832 
Q 2368 2995 2010 2995 
Q 1651 2995 1369 2832 
Q 1088 2669 921 2374 
Q 755 2080 755 1683 
Q 755 1293 921 995 
Q 1088 698 1369 534 
Q 1651 371 2003 371 
z
" transform="scale(0.015625)"/>
     <path id="Montserrat-Regular-57" d="M 1747 0 
L 237 4480 
L 723 4480 
L 2138 262 
L 1894 262 
L 3354 4480 
L 3789 4480 
L 5229 262 
L 4998 262 
L 6426 4480 
L 6880 4480 
L 5370 0 
L 4870 0 
L 3494 4000 
L 3622 4000 
L 2240 0 
L 1747 0 
z
" transform="scale(0.015625)"/>
     <path id="Montserrat-Regular-4f" d="M 2688 -38 
Q 2182 -38 1750 131 
Q 1318 301 1001 611 
Q 685 922 509 1334 
Q 333 1747 333 2240 
Q 333 2733 509 3145 
Q 685 3558 1001 3868 
Q 1318 4179 1747 4348 
Q 2176 4518 2688 4518 
Q 3194 4518 3622 4348 
Q 4051 4179 4368 3872 
Q 4685 3565 4861 3149 
Q 5037 2733 5037 2240 
Q 5037 1747 4861 1331 
Q 4685 915 4368 608 
Q 4051 301 3622 131 
Q 3194 -38 2688 -38 
z
M 2688 384 
Q 3091 384 3433 521 
Q 3776 659 4029 912 
Q 4282 1165 4422 1501 
Q 4563 1837 4563 2240 
Q 4563 2643 4422 2979 
Q 4282 3315 4029 3568 
Q 3776 3821 3433 3958 
Q 3091 4096 2688 4096 
Q 2285 4096 1939 3958 
Q 1594 3821 1341 3568 
Q 1088 3315 944 2979 
Q 800 2643 800 2240 
Q 800 1843 944 1504 
Q 1088 1165 1341 912 
Q 1594 659 1939 521 
Q 2285 384 2688 384 
z
" transform="scale(0.015625)"/>
     <path id="Montserrat-Regular-70" d="M 2368 -32 
Q 1933 -32 1581 169 
Q 1229 371 1021 752 
Q 813 1133 813 1683 
Q 813 2234 1017 2614 
Q 1222 2995 1574 3193 
Q 1926 3392 2368 3392 
Q 2848 3392 3229 3177 
Q 3610 2963 3827 2576 
Q 4045 2189 4045 1683 
Q 4045 1171 3827 787 
Q 3610 403 3229 185 
Q 2848 -32 2368 -32 
z
M 634 -1242 
L 634 3360 
L 1069 3360 
L 1069 2349 
L 1024 1677 
L 1088 998 
L 1088 -1242 
L 634 -1242 
z
M 2336 371 
Q 2694 371 2976 534 
Q 3258 698 3424 995 
Q 3590 1293 3590 1683 
Q 3590 2074 3424 2368 
Q 3258 2662 2976 2828 
Q 2694 2995 2336 2995 
Q 1978 2995 1693 2828 
Q 1408 2662 1245 2368 
Q 1082 2074 1082 1683 
Q 1082 1293 1245 995 
Q 1408 698 1693 534 
Q 1978 371 2336 371 
z
" transform="scale(0.015625)"/>
     <path id="Montserrat-Regular-63" d="M 2029 -32 
Q 1530 -32 1136 189 
Q 742 410 518 797 
Q 294 1184 294 1683 
Q 294 2189 518 2573 
Q 742 2957 1136 3174 
Q 1530 3392 2029 3392 
Q 2458 3392 2803 3225 
Q 3149 3059 3347 2726 
L 3008 2496 
Q 2835 2752 2579 2873 
Q 2323 2995 2022 2995 
Q 1664 2995 1376 2832 
Q 1088 2669 921 2374 
Q 755 2080 755 1683 
Q 755 1286 921 992 
Q 1088 698 1376 534 
Q 1664 371 2022 371 
Q 2323 371 2579 492 
Q 2835 614 3008 864 
L 3347 634 
Q 3149 307 2803 137 
Q 2458 -32 2029 -32 
z
" transform="scale(0.015625)"/>
    </defs>
    <use xlink:href="#Montserrat-Regular-4d"/>
    <use xlink:href="#Montserrat-Regular-65" x="95.499985"/>
    <use xlink:href="#Montserrat-Regular-64" x="155.899979"/>
    <use xlink:href="#Montserrat-Regular-61" x="223.699966"/>
    <use xlink:href="#Montserrat-Regular-6c" x="282.699951"/>
    <use xlink:href="#Montserrat-Regular-73" x="309.599945"/>
    <use xlink:href="#Montserrat-Regular-20" x="358.399933"/>
    <use xlink:href="#Montserrat-Regular-66" x="384.59993"/>
    <use xlink:href="#Montserrat-Regular-6f" x="418.499924"/>
    <use xlink:href="#Montserrat-Regular-72" x="481.199921"/>
    <use xlink:href="#Montserrat-Regular-20" x="521.299911"/>
    <use xlink:href="#Montserrat-Regular-53" x="547.499908"/>
    <use xlink:href="#Montserrat-Regular-77" x="608.999893"/>
    <use xlink:href="#Montserrat-Regular-69" x="696.899887"/>
    <use xlink:href="#Montserrat-Regular-74" x="723.799881"/>
    <use xlink:href="#Montserrat-Regular-7a" x="764.399872"/>
    <use xlink:href="#Montserrat-Regular-65" x="815.499863"/>
    <use xlink:href="#Montserrat-Regular-72" x="875.899857"/>
    <use xlink:href="#Montserrat-Regular-6c" x="915.999847"/>
    <use xlink:href="#Montserrat-Regular-61" x="942.899841"/>
    <use xlink:href="#Montserrat-Regular-6e" x="1001.899826"/>
    <use xlink:href="#Montserrat-Regular-64" x="1069.499817"/>
    <use xlink:href="#Montserrat-Regular-20" x="1137.299805"/>
    <use xlink:href="#Montserrat-Regular-61" x="1163.499802"/>
    <use xlink:href="#Montserrat-Regular-74" x="1222.499786"/>
    <use xlink:href="#Montserrat-Regular-20" x="1263.099777"/>
    <use xlink:href="#Montserrat-Regular-57" x="1289.299774"/>
    <use xlink:href="#Montserrat-Regular-69" x="1400.399765"/>
    <use xlink:href="#Montserrat-Regular-6e" x="1427.299759"/>
    <use xlink:href="#Montserrat-Regular-74" x="1494.89975"/>
    <use xlink:href="#Montserrat-Regular-65" x="1535.499741"/>
    <use xlink:href="#Montserrat-Regular-72" x="1595.899734"/>
    <use xlink:href="#Montserrat-Regular-20" x="1635.999725"/>
    <use xlink:href="#Montserrat-Regular-4f" x="1662.199722"/>
    <use xlink:href="#Montserrat-Regular-6c" x="1746.099716"/>
    <use xlink:href="#Montserrat-Regular-79" x="1772.99971"/>
    <use xlink:href="#Montserrat-Regular-6d" x="1827.199707"/>
    <use xlink:href="#Montserrat-Regular-70" x="1933.299698"/>
    <use xlink:href="#Montserrat-Regular-69" x="2001.099686"/>
    <use xlink:href="#Montserrat-Regular-63" x="2027.99968"/>
    <use xlink:href="#Montserrat-Regular-73" x="2084.299667"/>
   </g>
  </g>
 </g>
 <defs>
  <clipPath id="p38e94b4806">
   <rect x="37.690625" y="40.508053" width="279" height="110.88"/>
  </clipPath>
 </defs>
</svg>
