<?xml version="1.0" encoding="utf-8" standalone="no"?>
<!DOCTYPE svg PUBLIC "-//W3C//DTD SVG 1.1//EN"
  "http://www.w3.org/Graphics/SVG/1.1/DTD/svg11.dtd">
<svg xmlns:xlink="http://www.w3.org/1999/xlink" width="326.890625pt" height="188.209928pt" viewBox="0 0 326.890625 188.209928" xmlns="http://www.w3.org/2000/svg" version="1.1">
 <metadata>
  <rdf:RDF xmlns:dc="http://purl.org/dc/elements/1.1/" xmlns:cc="http://creativecommons.org/ns#" xmlns:rdf="http://www.w3.org/1999/02/22-rdf-syntax-ns#">
   <cc:Work>
    <dc:type rdf:resource="http://purl.org/dc/dcmitype/StillImage"/>
    <dc:date>2024-08-08T08:27:49.077886</dc:date>
    <dc:format>image/svg+xml</dc:format>
    <dc:creator>
     <cc:Agent>
      <dc:title>Matplotlib v3.5.1, https://matplotlib.org/</dc:title>
     </cc:Agent>
    </dc:creator>
   </cc:Work>
  </rdf:RDF>
 </metadata>
 <defs>
  <style type="text/css">*{stroke-linejoin: round; stroke-linecap: butt}</style>
 </defs>
 <g id="figure_1">
  <g id="patch_1">
   <path d="M 0 188.209928 
L 326.890625 188.209928 
L 326.890625 0 
L 0 0 
z
" style="fill: #ffffff"/>
  </g>
  <g id="axes_1">
   <g id="patch_2">
    <path d="M 40.690625 151.388053 
L 319.690625 151.388053 
L 319.690625 40.508053 
L 40.690625 40.508053 
z
" style="fill: #ffffff"/>
   </g>
   <g id="line2d_1">
    <path d="M 78.117454 111.002598 
L 78.117454 111.002598 
L 90.48996 131.948053 
L 90.48996 131.948053 
L 102.862465 117.548053 
L 102.862465 117.548053 
L 115.234971 120.166235 
L 115.234971 120.166235 
L 127.607476 121.475326 
L 127.607476 121.475326 
L 139.979982 128.02078 
L 139.979982 128.02078 
L 152.352488 120.166235 
L 152.352488 120.166235 
L 164.724993 125.402598 
L 164.724993 125.402598 
L 177.097499 117.548053 
L 177.097499 117.548053 
L 189.470004 96.602598 
L 189.470004 96.602598 
L 201.84251 112.311689 
L 201.84251 112.311689 
L 214.215015 118.857144 
L 214.215015 118.857144 
L 226.587521 122.784416 
L 226.587521 122.784416 
L 238.960026 105.766235 
L 238.960026 105.766235 
L 251.332532 97.911689 
L 251.332532 97.911689 
L 263.705037 73.038962 
L 263.705037 73.038962 
L 276.077543 45.548053 
L 276.077543 45.548053 
L 288.450049 48.166235 
L 288.450049 48.166235 
L 300.822554 53.402598 
L 300.822554 53.402598 
" clip-path="url(#p5a7609f6dc)" style="fill: none; stroke: #000000; stroke-width: 0.886227"/>
   </g>
   <g id="matplotlib.axis_1">
    <g id="xtick_1">
     <g id="line2d_2">
      <defs>
       <path id="m69edf0e438" d="M 0 0 
L 0 3.5 
" style="stroke: #000000; stroke-width: 0.8"/>
      </defs>
      <g>
       <use xlink:href="#m69edf0e438" x="53.372443" y="151.388053" style="stroke: #000000; stroke-width: 0.8"/>
      </g>
     </g>
     <g id="text_1">
      <!-- 1940 -->
      <g transform="translate(41.907599 164.708365)scale(0.1 -0.1)">
       <defs>
        <path id="Montserrat-Regular-31" d="M 1114 0 
L 1114 4288 
L 1318 4070 
L 58 4070 
L 58 4480 
L 1574 4480 
L 1574 0 
L 1114 0 
z
" transform="scale(0.015625)"/>
        <path id="Montserrat-Regular-39" d="M 1728 4518 
Q 2323 4518 2732 4252 
Q 3142 3987 3353 3488 
Q 3565 2989 3565 2278 
Q 3565 1523 3305 1004 
Q 3046 486 2585 224 
Q 2125 -38 1517 -38 
Q 1216 -38 944 19 
Q 672 77 454 205 
L 640 576 
Q 813 461 1040 413 
Q 1267 365 1510 365 
Q 2234 365 2666 825 
Q 3098 1286 3098 2202 
Q 3098 2349 3082 2553 
Q 3066 2758 3008 2963 
L 3168 2842 
Q 3104 2509 2896 2275 
Q 2688 2042 2384 1920 
Q 2080 1798 1709 1798 
Q 1267 1798 924 1964 
Q 582 2131 390 2432 
Q 198 2733 198 3142 
Q 198 3565 396 3872 
Q 595 4179 944 4348 
Q 1293 4518 1728 4518 
z
M 1747 4128 
Q 1427 4128 1180 4009 
Q 934 3891 793 3673 
Q 653 3456 653 3155 
Q 653 2714 957 2451 
Q 1261 2189 1779 2189 
Q 2125 2189 2384 2317 
Q 2643 2445 2787 2669 
Q 2931 2893 2931 3168 
Q 2931 3418 2796 3635 
Q 2662 3853 2400 3990 
Q 2138 4128 1747 4128 
z
" transform="scale(0.015625)"/>
        <path id="Montserrat-Regular-34" d="M 256 1178 
L 256 1510 
L 2630 4480 
L 3142 4480 
L 787 1510 
L 538 1587 
L 4141 1587 
L 4141 1178 
L 256 1178 
z
M 2784 0 
L 2784 1178 
L 2797 1587 
L 2797 2624 
L 3245 2624 
L 3245 0 
L 2784 0 
z
" transform="scale(0.015625)"/>
        <path id="Montserrat-Regular-30" d="M 2118 -38 
Q 1600 -38 1197 234 
Q 794 506 563 1014 
Q 333 1523 333 2240 
Q 333 2957 563 3465 
Q 794 3974 1197 4246 
Q 1600 4518 2118 4518 
Q 2637 4518 3040 4246 
Q 3443 3974 3676 3465 
Q 3910 2957 3910 2240 
Q 3910 1523 3676 1014 
Q 3443 506 3040 234 
Q 2637 -38 2118 -38 
z
M 2118 384 
Q 2515 384 2809 598 
Q 3104 813 3270 1225 
Q 3437 1638 3437 2240 
Q 3437 2842 3270 3254 
Q 3104 3667 2809 3881 
Q 2515 4096 2118 4096 
Q 1734 4096 1433 3881 
Q 1133 3667 966 3254 
Q 800 2842 800 2240 
Q 800 1638 966 1225 
Q 1133 813 1433 598 
Q 1734 384 2118 384 
z
" transform="scale(0.015625)"/>
       </defs>
       <use xlink:href="#Montserrat-Regular-31"/>
       <use xlink:href="#Montserrat-Regular-39" x="36.099991"/>
       <use xlink:href="#Montserrat-Regular-34" x="96.999985"/>
       <use xlink:href="#Montserrat-Regular-30" x="163.099976"/>
      </g>
     </g>
    </g>
    <g id="xtick_2">
     <g id="line2d_3">
      <g>
       <use xlink:href="#m69edf0e438" x="115.234971" y="151.388053" style="stroke: #000000; stroke-width: 0.8"/>
      </g>
     </g>
     <g id="text_2">
      <!-- 1960 -->
      <g transform="translate(104.029502 164.708365)scale(0.1 -0.1)">
       <defs>
        <path id="Montserrat-Regular-36" d="M 2170 -38 
Q 1574 -38 1164 227 
Q 755 493 544 995 
Q 333 1498 333 2202 
Q 333 2963 592 3478 
Q 851 3994 1312 4256 
Q 1773 4518 2381 4518 
Q 2682 4518 2957 4460 
Q 3232 4403 3443 4275 
L 3258 3904 
Q 3085 4019 2861 4067 
Q 2637 4115 2387 4115 
Q 1664 4115 1232 3654 
Q 800 3194 800 2278 
Q 800 2138 816 1930 
Q 832 1722 890 1517 
L 730 1638 
Q 800 1971 1005 2204 
Q 1210 2438 1517 2560 
Q 1824 2682 2189 2682 
Q 2637 2682 2976 2515 
Q 3315 2349 3507 2048 
Q 3699 1747 3699 1338 
Q 3699 922 3500 611 
Q 3302 301 2953 131 
Q 2605 -38 2170 -38 
z
M 2150 352 
Q 2470 352 2716 470 
Q 2963 589 3104 809 
Q 3245 1030 3245 1325 
Q 3245 1766 2941 2028 
Q 2637 2291 2118 2291 
Q 1773 2291 1517 2163 
Q 1261 2035 1113 1814 
Q 966 1594 966 1312 
Q 966 1069 1100 848 
Q 1235 627 1500 489 
Q 1766 352 2150 352 
z
" transform="scale(0.015625)"/>
       </defs>
       <use xlink:href="#Montserrat-Regular-31"/>
       <use xlink:href="#Montserrat-Regular-39" x="36.099991"/>
       <use xlink:href="#Montserrat-Regular-36" x="96.999985"/>
       <use xlink:href="#Montserrat-Regular-30" x="157.899979"/>
      </g>
     </g>
    </g>
    <g id="xtick_3">
     <g id="line2d_4">
      <g>
       <use xlink:href="#m69edf0e438" x="177.097499" y="151.388053" style="stroke: #000000; stroke-width: 0.8"/>
      </g>
     </g>
     <g id="text_3">
      <!-- 1980 -->
      <g transform="translate(165.747499 164.708365)scale(0.1 -0.1)">
       <defs>
        <path id="Montserrat-Regular-38" d="M 2035 -38 
Q 1498 -38 1110 115 
Q 723 269 515 560 
Q 307 851 307 1248 
Q 307 1632 508 1904 
Q 710 2176 1097 2323 
Q 1485 2470 2035 2470 
Q 2579 2470 2969 2323 
Q 3360 2176 3568 1904 
Q 3776 1632 3776 1248 
Q 3776 851 3565 560 
Q 3354 269 2963 115 
Q 2573 -38 2035 -38 
z
M 2035 352 
Q 2630 352 2966 595 
Q 3302 838 3302 1254 
Q 3302 1670 2966 1910 
Q 2630 2150 2035 2150 
Q 1440 2150 1107 1910 
Q 774 1670 774 1254 
Q 774 838 1107 595 
Q 1440 352 2035 352 
z
M 2035 2208 
Q 1536 2208 1187 2342 
Q 838 2477 652 2729 
Q 467 2982 467 3334 
Q 467 3706 662 3971 
Q 858 4237 1210 4377 
Q 1562 4518 2035 4518 
Q 2509 4518 2864 4377 
Q 3219 4237 3417 3971 
Q 3616 3706 3616 3334 
Q 3616 2982 3430 2729 
Q 3245 2477 2889 2342 
Q 2534 2208 2035 2208 
z
M 2035 2515 
Q 2560 2515 2854 2732 
Q 3149 2950 3149 3315 
Q 3149 3699 2845 3913 
Q 2541 4128 2035 4128 
Q 1530 4128 1229 3913 
Q 928 3699 928 3322 
Q 928 2950 1219 2732 
Q 1510 2515 2035 2515 
z
" transform="scale(0.015625)"/>
       </defs>
       <use xlink:href="#Montserrat-Regular-31"/>
       <use xlink:href="#Montserrat-Regular-39" x="36.099991"/>
       <use xlink:href="#Montserrat-Regular-38" x="96.999985"/>
       <use xlink:href="#Montserrat-Regular-30" x="160.799973"/>
      </g>
     </g>
    </g>
    <g id="xtick_4">
     <g id="line2d_5">
      <g>
       <use xlink:href="#m69edf0e438" x="238.960026" y="151.388053" style="stroke: #000000; stroke-width: 0.8"/>
      </g>
     </g>
     <g id="text_4">
      <!-- 2000 -->
      <g transform="translate(226.189714 164.708365)scale(0.1 -0.1)">
       <defs>
        <path id="Montserrat-Regular-32" d="M 250 0 
L 250 326 
L 2112 2150 
Q 2368 2400 2496 2589 
Q 2624 2778 2669 2944 
Q 2714 3110 2714 3258 
Q 2714 3648 2448 3872 
Q 2182 4096 1664 4096 
Q 1267 4096 963 3974 
Q 659 3853 442 3597 
L 115 3878 
Q 378 4186 787 4352 
Q 1197 4518 1702 4518 
Q 2157 4518 2489 4374 
Q 2822 4230 3004 3955 
Q 3187 3680 3187 3309 
Q 3187 3091 3126 2880 
Q 3066 2669 2909 2435 
Q 2752 2202 2451 1907 
L 742 230 
L 614 410 
L 3392 410 
L 3392 0 
L 250 0 
z
" transform="scale(0.015625)"/>
       </defs>
       <use xlink:href="#Montserrat-Regular-32"/>
       <use xlink:href="#Montserrat-Regular-30" x="56.799988"/>
       <use xlink:href="#Montserrat-Regular-30" x="122.999985"/>
       <use xlink:href="#Montserrat-Regular-30" x="189.199982"/>
      </g>
     </g>
    </g>
    <g id="xtick_5">
     <g id="line2d_6">
      <g>
       <use xlink:href="#m69edf0e438" x="300.822554" y="151.388053" style="stroke: #000000; stroke-width: 0.8"/>
      </g>
     </g>
     <g id="text_5">
      <!-- 2020 -->
      <g transform="translate(288.522554 164.708365)scale(0.1 -0.1)">
       <use xlink:href="#Montserrat-Regular-32"/>
       <use xlink:href="#Montserrat-Regular-30" x="56.799988"/>
       <use xlink:href="#Montserrat-Regular-32" x="122.999985"/>
       <use xlink:href="#Montserrat-Regular-30" x="179.799973"/>
      </g>
     </g>
    </g>
    <g id="xtick_6">
     <g id="line2d_7">
      <defs>
       <path id="ma2b2c4af6f" d="M 0 0 
L 0 2 
" style="stroke: #000000; stroke-width: 0.6"/>
      </defs>
      <g>
       <use xlink:href="#ma2b2c4af6f" x="84.303707" y="151.388053" style="stroke: #000000; stroke-width: 0.6"/>
      </g>
     </g>
    </g>
    <g id="xtick_7">
     <g id="line2d_8">
      <g>
       <use xlink:href="#ma2b2c4af6f" x="146.166235" y="151.388053" style="stroke: #000000; stroke-width: 0.6"/>
      </g>
     </g>
    </g>
    <g id="xtick_8">
     <g id="line2d_9">
      <g>
       <use xlink:href="#ma2b2c4af6f" x="208.028762" y="151.388053" style="stroke: #000000; stroke-width: 0.6"/>
      </g>
     </g>
    </g>
    <g id="xtick_9">
     <g id="line2d_10">
      <g>
       <use xlink:href="#ma2b2c4af6f" x="269.89129" y="151.388053" style="stroke: #000000; stroke-width: 0.6"/>
      </g>
     </g>
    </g>
    <g id="text_6">
     <!-- year -->
     <g transform="translate(165.005469 179.019303)scale(0.1 -0.1)">
      <defs>
       <path id="Montserrat-Regular-79" d="M 659 -1274 
Q 422 -1274 208 -1197 
Q -6 -1120 -160 -966 
L 51 -627 
Q 179 -749 329 -816 
Q 480 -883 666 -883 
Q 890 -883 1053 -758 
Q 1216 -634 1363 -320 
L 1581 173 
L 1632 243 
L 3014 3360 
L 3462 3360 
L 1779 -403 
Q 1638 -730 1468 -922 
Q 1299 -1114 1100 -1194 
Q 902 -1274 659 -1274 
z
M 1555 -96 
L 6 3360 
L 480 3360 
L 1850 275 
L 1555 -96 
z
" transform="scale(0.015625)"/>
       <path id="Montserrat-Regular-65" d="M 2061 -32 
Q 1536 -32 1139 189 
Q 742 410 518 797 
Q 294 1184 294 1683 
Q 294 2182 508 2566 
Q 723 2950 1097 3171 
Q 1472 3392 1939 3392 
Q 2413 3392 2781 3177 
Q 3149 2963 3360 2576 
Q 3571 2189 3571 1683 
Q 3571 1651 3568 1616 
Q 3565 1581 3565 1542 
L 640 1542 
L 640 1882 
L 3322 1882 
L 3142 1747 
Q 3142 2112 2985 2397 
Q 2829 2682 2560 2842 
Q 2291 3002 1939 3002 
Q 1594 3002 1318 2842 
Q 1043 2682 889 2394 
Q 736 2106 736 1734 
L 736 1664 
Q 736 1280 905 989 
Q 1075 698 1379 534 
Q 1683 371 2074 371 
Q 2381 371 2646 480 
Q 2912 589 3104 813 
L 3360 518 
Q 3136 250 2800 109 
Q 2464 -32 2061 -32 
z
" transform="scale(0.015625)"/>
       <path id="Montserrat-Regular-61" d="M 2739 0 
L 2739 742 
L 2720 864 
L 2720 2106 
Q 2720 2534 2480 2764 
Q 2240 2995 1766 2995 
Q 1440 2995 1145 2886 
Q 851 2778 646 2598 
L 442 2938 
Q 698 3155 1056 3273 
Q 1414 3392 1811 3392 
Q 2464 3392 2819 3069 
Q 3174 2746 3174 2086 
L 3174 0 
L 2739 0 
z
M 1581 -32 
Q 1203 -32 924 93 
Q 646 218 499 438 
Q 352 659 352 947 
Q 352 1210 477 1424 
Q 602 1638 886 1769 
Q 1171 1901 1651 1901 
L 2810 1901 
L 2810 1562 
L 1664 1562 
Q 1178 1562 989 1389 
Q 800 1216 800 960 
Q 800 672 1024 499 
Q 1248 326 1651 326 
Q 2035 326 2313 502 
Q 2592 678 2720 1011 
L 2822 698 
Q 2694 365 2377 166 
Q 2061 -32 1581 -32 
z
" transform="scale(0.015625)"/>
       <path id="Montserrat-Regular-72" d="M 634 0 
L 634 3360 
L 1069 3360 
L 1069 2445 
L 1024 2605 
Q 1165 2989 1497 3190 
Q 1830 3392 2323 3392 
L 2323 2950 
Q 2298 2950 2272 2953 
Q 2246 2957 2221 2957 
Q 1690 2957 1389 2633 
Q 1088 2310 1088 1715 
L 1088 0 
L 634 0 
z
" transform="scale(0.015625)"/>
      </defs>
      <use xlink:href="#Montserrat-Regular-79"/>
      <use xlink:href="#Montserrat-Regular-65" x="54.199997"/>
      <use xlink:href="#Montserrat-Regular-61" x="114.599991"/>
      <use xlink:href="#Montserrat-Regular-72" x="173.599976"/>
     </g>
    </g>
   </g>
   <g id="matplotlib.axis_2">
    <g id="ytick_1">
     <g id="line2d_11">
      <defs>
       <path id="mfd982f6f34" d="M 0 0 
L -3.5 0 
" style="stroke: #000000; stroke-width: 0.8"/>
      </defs>
      <g>
       <use xlink:href="#mfd982f6f34" x="40.690625" y="146.348053" style="stroke: #000000; stroke-width: 0.8"/>
      </g>
     </g>
     <g id="text_7">
      <!-- 0 -->
      <g transform="translate(28.170313 150.058209)scale(0.1 -0.1)">
       <use xlink:href="#Montserrat-Regular-30"/>
      </g>
     </g>
    </g>
    <g id="ytick_2">
     <g id="line2d_12">
      <g>
       <use xlink:href="#mfd982f6f34" x="40.690625" y="120.166235" style="stroke: #000000; stroke-width: 0.8"/>
      </g>
     </g>
     <g id="text_8">
      <!-- 20 -->
      <g transform="translate(22.490625 123.876391)scale(0.1 -0.1)">
       <use xlink:href="#Montserrat-Regular-32"/>
       <use xlink:href="#Montserrat-Regular-30" x="56.799988"/>
      </g>
     </g>
    </g>
    <g id="ytick_3">
     <g id="line2d_13">
      <g>
       <use xlink:href="#mfd982f6f34" x="40.690625" y="93.984416" style="stroke: #000000; stroke-width: 0.8"/>
      </g>
     </g>
     <g id="text_9">
      <!-- 40 -->
      <g transform="translate(21.560938 97.694573)scale(0.1 -0.1)">
       <use xlink:href="#Montserrat-Regular-34"/>
       <use xlink:href="#Montserrat-Regular-30" x="66.099991"/>
      </g>
     </g>
    </g>
    <g id="ytick_4">
     <g id="line2d_14">
      <g>
       <use xlink:href="#mfd982f6f34" x="40.690625" y="67.802598" style="stroke: #000000; stroke-width: 0.8"/>
      </g>
     </g>
     <g id="text_10">
      <!-- 60 -->
      <g transform="translate(22.079688 71.512755)scale(0.1 -0.1)">
       <use xlink:href="#Montserrat-Regular-36"/>
       <use xlink:href="#Montserrat-Regular-30" x="60.899994"/>
      </g>
     </g>
    </g>
    <g id="ytick_5">
     <g id="line2d_15">
      <g>
       <use xlink:href="#mfd982f6f34" x="40.690625" y="41.62078" style="stroke: #000000; stroke-width: 0.8"/>
      </g>
     </g>
     <g id="text_11">
      <!-- 80 -->
      <g transform="translate(21.790625 45.330936)scale(0.1 -0.1)">
       <use xlink:href="#Montserrat-Regular-38"/>
       <use xlink:href="#Montserrat-Regular-30" x="63.799988"/>
      </g>
     </g>
    </g>
    <g id="ytick_6">
     <g id="line2d_16">
      <defs>
       <path id="mee7ea0243d" d="M 0 0 
L -2 0 
" style="stroke: #000000; stroke-width: 0.6"/>
      </defs>
      <g>
       <use xlink:href="#mee7ea0243d" x="40.690625" y="133.257144" style="stroke: #000000; stroke-width: 0.6"/>
      </g>
     </g>
    </g>
    <g id="ytick_7">
     <g id="line2d_17">
      <g>
       <use xlink:href="#mee7ea0243d" x="40.690625" y="107.075326" style="stroke: #000000; stroke-width: 0.6"/>
      </g>
     </g>
    </g>
    <g id="ytick_8">
     <g id="line2d_18">
      <g>
       <use xlink:href="#mee7ea0243d" x="40.690625" y="80.893507" style="stroke: #000000; stroke-width: 0.6"/>
      </g>
     </g>
    </g>
    <g id="ytick_9">
     <g id="line2d_19">
      <g>
       <use xlink:href="#mee7ea0243d" x="40.690625" y="54.711689" style="stroke: #000000; stroke-width: 0.6"/>
      </g>
     </g>
    </g>
    <g id="text_12">
     <!-- medals -->
     <g transform="translate(14.620313 113.678053)rotate(-90)scale(0.1 -0.1)">
      <defs>
       <path id="Montserrat-Regular-6d" d="M 4832 3392 
Q 5242 3392 5546 3235 
Q 5850 3078 6019 2758 
Q 6189 2438 6189 1952 
L 6189 0 
L 5734 0 
L 5734 1907 
Q 5734 2438 5481 2710 
Q 5229 2982 4768 2982 
Q 4422 2982 4169 2838 
Q 3917 2694 3779 2422 
Q 3642 2150 3642 1766 
L 3642 0 
L 3187 0 
L 3187 1907 
Q 3187 2438 2931 2710 
Q 2675 2982 2214 2982 
Q 1875 2982 1619 2838 
Q 1363 2694 1225 2422 
Q 1088 2150 1088 1766 
L 1088 0 
L 634 0 
L 634 3360 
L 1069 3360 
L 1069 2451 
L 998 2611 
Q 1152 2976 1494 3184 
Q 1837 3392 2304 3392 
Q 2797 3392 3142 3145 
Q 3488 2899 3590 2406 
L 3411 2477 
Q 3558 2886 3932 3139 
Q 4307 3392 4832 3392 
z
" transform="scale(0.015625)"/>
       <path id="Montserrat-Regular-64" d="M 1971 -32 
Q 1491 -32 1110 185 
Q 730 403 512 790 
Q 294 1178 294 1683 
Q 294 2195 512 2579 
Q 730 2963 1110 3177 
Q 1491 3392 1971 3392 
Q 2413 3392 2761 3193 
Q 3110 2995 3318 2614 
Q 3526 2234 3526 1683 
Q 3526 1139 3321 755 
Q 3117 371 2768 169 
Q 2419 -32 1971 -32 
z
M 2003 371 
Q 2362 371 2646 534 
Q 2931 698 3094 995 
Q 3258 1293 3258 1683 
Q 3258 2080 3094 2374 
Q 2931 2669 2646 2832 
Q 2362 2995 2003 2995 
Q 1651 2995 1369 2832 
Q 1088 2669 921 2374 
Q 755 2080 755 1683 
Q 755 1293 921 995 
Q 1088 698 1369 534 
Q 1651 371 2003 371 
z
M 3270 0 
L 3270 1011 
L 3315 1690 
L 3251 2368 
L 3251 4749 
L 3706 4749 
L 3706 0 
L 3270 0 
z
" transform="scale(0.015625)"/>
       <path id="Montserrat-Regular-6c" d="M 634 0 
L 634 4749 
L 1088 4749 
L 1088 0 
L 634 0 
z
" transform="scale(0.015625)"/>
       <path id="Montserrat-Regular-73" d="M 1536 -32 
Q 1120 -32 749 86 
Q 378 205 166 384 
L 371 742 
Q 576 589 896 477 
Q 1216 365 1568 365 
Q 2048 365 2259 515 
Q 2470 666 2470 915 
Q 2470 1101 2352 1206 
Q 2234 1312 2042 1366 
Q 1850 1421 1613 1459 
Q 1376 1498 1142 1549 
Q 909 1600 717 1699 
Q 525 1798 406 1971 
Q 288 2144 288 2432 
Q 288 2707 441 2924 
Q 595 3142 892 3267 
Q 1190 3392 1619 3392 
Q 1946 3392 2272 3305 
Q 2598 3219 2810 3078 
L 2611 2714 
Q 2387 2867 2131 2934 
Q 1875 3002 1619 3002 
Q 1165 3002 950 2845 
Q 736 2688 736 2445 
Q 736 2253 854 2144 
Q 973 2035 1168 1974 
Q 1363 1914 1596 1875 
Q 1830 1837 2064 1782 
Q 2298 1728 2493 1635 
Q 2688 1542 2806 1372 
Q 2925 1203 2925 928 
Q 2925 634 2761 419 
Q 2598 205 2288 86 
Q 1978 -32 1536 -32 
z
" transform="scale(0.015625)"/>
      </defs>
      <use xlink:href="#Montserrat-Regular-6d"/>
      <use xlink:href="#Montserrat-Regular-65" x="106.099991"/>
      <use xlink:href="#Montserrat-Regular-64" x="166.499985"/>
      <use xlink:href="#Montserrat-Regular-61" x="234.299973"/>
      <use xlink:href="#Montserrat-Regular-6c" x="293.299957"/>
      <use xlink:href="#Montserrat-Regular-73" x="320.199951"/>
     </g>
    </g>
   </g>
   <g id="PathCollection_1">
    <path d="M 78.117454 111.667268 
C 78.293727 111.667268 78.462804 111.597235 78.587447 111.472591 
C 78.712091 111.347948 78.782124 111.178871 78.782124 111.002598 
C 78.782124 110.826326 78.712091 110.657249 78.587447 110.532605 
C 78.462804 110.407962 78.293727 110.337928 78.117454 110.337928 
C 77.941182 110.337928 77.772105 110.407962 77.647461 110.532605 
C 77.522818 110.657249 77.452784 110.826326 77.452784 111.002598 
C 77.452784 111.178871 77.522818 111.347948 77.647461 111.472591 
C 77.772105 111.597235 77.941182 111.667268 78.117454 111.667268 
z
" clip-path="url(#p5a7609f6dc)" style="fill-opacity: 0.501961; stroke: #000000; stroke-opacity: 0.501961; stroke-width: 0.886227"/>
    <path d="M 90.48996 132.612723 
C 90.666232 132.612723 90.835309 132.542689 90.959953 132.418046 
C 91.084596 132.293402 91.15463 132.124325 91.15463 131.948053 
C 91.15463 131.77178 91.084596 131.602704 90.959953 131.47806 
C 90.835309 131.353416 90.666232 131.283383 90.48996 131.283383 
C 90.313687 131.283383 90.144611 131.353416 90.019967 131.47806 
C 89.895323 131.602704 89.82529 131.77178 89.82529 131.948053 
C 89.82529 132.124325 89.895323 132.293402 90.019967 132.418046 
C 90.144611 132.542689 90.313687 132.612723 90.48996 132.612723 
z
" clip-path="url(#p5a7609f6dc)" style="fill-opacity: 0.501961; stroke: #000000; stroke-opacity: 0.501961; stroke-width: 0.886227"/>
    <path d="M 102.862465 118.212723 
C 103.038738 118.212723 103.207815 118.142689 103.332458 118.018046 
C 103.457102 117.893402 103.527136 117.724325 103.527136 117.548053 
C 103.527136 117.37178 103.457102 117.202704 103.332458 117.07806 
C 103.207815 116.953416 103.038738 116.883383 102.862465 116.883383 
C 102.686193 116.883383 102.517116 116.953416 102.392473 117.07806 
C 102.267829 117.202704 102.197795 117.37178 102.197795 117.548053 
C 102.197795 117.724325 102.267829 117.893402 102.392473 118.018046 
C 102.517116 118.142689 102.686193 118.212723 102.862465 118.212723 
z
" clip-path="url(#p5a7609f6dc)" style="fill-opacity: 0.501961; stroke: #000000; stroke-opacity: 0.501961; stroke-width: 0.886227"/>
    <path d="M 115.234971 120.830905 
C 115.411243 120.830905 115.58032 120.760871 115.704964 120.636227 
C 115.829607 120.511584 115.899641 120.342507 115.899641 120.166235 
C 115.899641 119.989962 115.829607 119.820885 115.704964 119.696242 
C 115.58032 119.571598 115.411243 119.501564 115.234971 119.501564 
C 115.058698 119.501564 114.889622 119.571598 114.764978 119.696242 
C 114.640335 119.820885 114.570301 119.989962 114.570301 120.166235 
C 114.570301 120.342507 114.640335 120.511584 114.764978 120.636227 
C 114.889622 120.760871 115.058698 120.830905 115.234971 120.830905 
z
" clip-path="url(#p5a7609f6dc)" style="fill-opacity: 0.501961; stroke: #000000; stroke-opacity: 0.501961; stroke-width: 0.886227"/>
    <path d="M 127.607476 122.139996 
C 127.783749 122.139996 127.952826 122.069962 128.077469 121.945318 
C 128.202113 121.820675 128.272147 121.651598 128.272147 121.475326 
C 128.272147 121.299053 128.202113 121.129976 128.077469 121.005333 
C 127.952826 120.880689 127.783749 120.810655 127.607476 120.810655 
C 127.431204 120.810655 127.262127 120.880689 127.137484 121.005333 
C 127.01284 121.129976 126.942806 121.299053 126.942806 121.475326 
C 126.942806 121.651598 127.01284 121.820675 127.137484 121.945318 
C 127.262127 122.069962 127.431204 122.139996 127.607476 122.139996 
z
" clip-path="url(#p5a7609f6dc)" style="fill-opacity: 0.501961; stroke: #000000; stroke-opacity: 0.501961; stroke-width: 0.886227"/>
    <path d="M 139.979982 128.68545 
C 140.156255 128.68545 140.325331 128.615416 140.449975 128.490773 
C 140.574618 128.366129 140.644652 128.197053 140.644652 128.02078 
C 140.644652 127.844507 140.574618 127.675431 140.449975 127.550787 
C 140.325331 127.426144 140.156255 127.35611 139.979982 127.35611 
C 139.803709 127.35611 139.634633 127.426144 139.509989 127.550787 
C 139.385346 127.675431 139.315312 127.844507 139.315312 128.02078 
C 139.315312 128.197053 139.385346 128.366129 139.509989 128.490773 
C 139.634633 128.615416 139.803709 128.68545 139.979982 128.68545 
z
" clip-path="url(#p5a7609f6dc)" style="fill-opacity: 0.501961; stroke: #000000; stroke-opacity: 0.501961; stroke-width: 0.886227"/>
    <path d="M 152.352488 120.830905 
C 152.52876 120.830905 152.697837 120.760871 152.82248 120.636227 
C 152.947124 120.511584 153.017158 120.342507 153.017158 120.166235 
C 153.017158 119.989962 152.947124 119.820885 152.82248 119.696242 
C 152.697837 119.571598 152.52876 119.501564 152.352488 119.501564 
C 152.176215 119.501564 152.007138 119.571598 151.882495 119.696242 
C 151.757851 119.820885 151.687817 119.989962 151.687817 120.166235 
C 151.687817 120.342507 151.757851 120.511584 151.882495 120.636227 
C 152.007138 120.760871 152.176215 120.830905 152.352488 120.830905 
z
" clip-path="url(#p5a7609f6dc)" style="fill-opacity: 0.501961; stroke: #000000; stroke-opacity: 0.501961; stroke-width: 0.886227"/>
    <path d="M 164.724993 126.067268 
C 164.901266 126.067268 165.070342 125.997235 165.194986 125.872591 
C 165.319629 125.747948 165.389663 125.578871 165.389663 125.402598 
C 165.389663 125.226326 165.319629 125.057249 165.194986 124.932605 
C 165.070342 124.807962 164.901266 124.737928 164.724993 124.737928 
C 164.54872 124.737928 164.379644 124.807962 164.255 124.932605 
C 164.130357 125.057249 164.060323 125.226326 164.060323 125.402598 
C 164.060323 125.578871 164.130357 125.747948 164.255 125.872591 
C 164.379644 125.997235 164.54872 126.067268 164.724993 126.067268 
z
" clip-path="url(#p5a7609f6dc)" style="fill-opacity: 0.501961; stroke: #000000; stroke-opacity: 0.501961; stroke-width: 0.886227"/>
    <path d="M 177.097499 118.212723 
C 177.273771 118.212723 177.442848 118.142689 177.567491 118.018046 
C 177.692135 117.893402 177.762169 117.724325 177.762169 117.548053 
C 177.762169 117.37178 177.692135 117.202704 177.567491 117.07806 
C 177.442848 116.953416 177.273771 116.883383 177.097499 116.883383 
C 176.921226 116.883383 176.752149 116.953416 176.627506 117.07806 
C 176.502862 117.202704 176.432828 117.37178 176.432828 117.548053 
C 176.432828 117.724325 176.502862 117.893402 176.627506 118.018046 
C 176.752149 118.142689 176.921226 118.212723 177.097499 118.212723 
z
" clip-path="url(#p5a7609f6dc)" style="fill-opacity: 0.501961; stroke: #000000; stroke-opacity: 0.501961; stroke-width: 0.886227"/>
    <path d="M 189.470004 97.267268 
C 189.646277 97.267268 189.815353 97.197235 189.939997 97.072591 
C 190.064641 96.947948 190.134674 96.778871 190.134674 96.602598 
C 190.134674 96.426326 190.064641 96.257249 189.939997 96.132605 
C 189.815353 96.007962 189.646277 95.937928 189.470004 95.937928 
C 189.293732 95.937928 189.124655 96.007962 189.000011 96.132605 
C 188.875368 96.257249 188.805334 96.426326 188.805334 96.602598 
C 188.805334 96.778871 188.875368 96.947948 189.000011 97.072591 
C 189.124655 97.197235 189.293732 97.267268 189.470004 97.267268 
z
" clip-path="url(#p5a7609f6dc)" style="fill-opacity: 0.501961; stroke: #000000; stroke-opacity: 0.501961; stroke-width: 0.886227"/>
    <path d="M 201.84251 112.976359 
C 202.018782 112.976359 202.187859 112.906326 202.312503 112.781682 
C 202.437146 112.657038 202.50718 112.487962 202.50718 112.311689 
C 202.50718 112.135417 202.437146 111.96634 202.312503 111.841696 
C 202.187859 111.717053 202.018782 111.647019 201.84251 111.647019 
C 201.666237 111.647019 201.49716 111.717053 201.372517 111.841696 
C 201.247873 111.96634 201.17784 112.135417 201.17784 112.311689 
C 201.17784 112.487962 201.247873 112.657038 201.372517 112.781682 
C 201.49716 112.906326 201.666237 112.976359 201.84251 112.976359 
z
" clip-path="url(#p5a7609f6dc)" style="fill-opacity: 0.501961; stroke: #000000; stroke-opacity: 0.501961; stroke-width: 0.886227"/>
    <path d="M 214.215015 119.521814 
C 214.391288 119.521814 214.560364 119.45178 214.685008 119.327137 
C 214.809652 119.202493 214.879685 119.033416 214.879685 118.857144 
C 214.879685 118.680871 214.809652 118.511794 214.685008 118.387151 
C 214.560364 118.262507 214.391288 118.192474 214.215015 118.192474 
C 214.038743 118.192474 213.869666 118.262507 213.745022 118.387151 
C 213.620379 118.511794 213.550345 118.680871 213.550345 118.857144 
C 213.550345 119.033416 213.620379 119.202493 213.745022 119.327137 
C 213.869666 119.45178 214.038743 119.521814 214.215015 119.521814 
z
" clip-path="url(#p5a7609f6dc)" style="fill-opacity: 0.501961; stroke: #000000; stroke-opacity: 0.501961; stroke-width: 0.886227"/>
    <path d="M 226.587521 123.449087 
C 226.763793 123.449087 226.93287 123.379053 227.057514 123.254409 
C 227.182157 123.129766 227.252191 122.960689 227.252191 122.784416 
C 227.252191 122.608144 227.182157 122.439067 227.057514 122.314424 
C 226.93287 122.18978 226.763793 122.119746 226.587521 122.119746 
C 226.411248 122.119746 226.242172 122.18978 226.117528 122.314424 
C 225.992884 122.439067 225.922851 122.608144 225.922851 122.784416 
C 225.922851 122.960689 225.992884 123.129766 226.117528 123.254409 
C 226.242172 123.379053 226.411248 123.449087 226.587521 123.449087 
z
" clip-path="url(#p5a7609f6dc)" style="fill-opacity: 0.501961; stroke: #000000; stroke-opacity: 0.501961; stroke-width: 0.886227"/>
    <path d="M 238.960026 106.430905 
C 239.136299 106.430905 239.305376 106.360871 239.430019 106.236227 
C 239.554663 106.111584 239.624697 105.942507 239.624697 105.766235 
C 239.624697 105.589962 239.554663 105.420885 239.430019 105.296242 
C 239.305376 105.171598 239.136299 105.101564 238.960026 105.101564 
C 238.783754 105.101564 238.614677 105.171598 238.490034 105.296242 
C 238.36539 105.420885 238.295356 105.589962 238.295356 105.766235 
C 238.295356 105.942507 238.36539 106.111584 238.490034 106.236227 
C 238.614677 106.360871 238.783754 106.430905 238.960026 106.430905 
z
" clip-path="url(#p5a7609f6dc)" style="fill-opacity: 0.501961; stroke: #000000; stroke-opacity: 0.501961; stroke-width: 0.886227"/>
    <path d="M 251.332532 98.576359 
C 251.508804 98.576359 251.677881 98.506326 251.802525 98.381682 
C 251.927168 98.257038 251.997202 98.087962 251.997202 97.911689 
C 251.997202 97.735417 251.927168 97.56634 251.802525 97.441696 
C 251.677881 97.317053 251.508804 97.247019 251.332532 97.247019 
C 251.156259 97.247019 250.987183 97.317053 250.862539 97.441696 
C 250.737896 97.56634 250.667862 97.735417 250.667862 97.911689 
C 250.667862 98.087962 250.737896 98.257038 250.862539 98.381682 
C 250.987183 98.506326 251.156259 98.576359 251.332532 98.576359 
z
" clip-path="url(#p5a7609f6dc)" style="fill-opacity: 0.501961; stroke: #000000; stroke-opacity: 0.501961; stroke-width: 0.886227"/>
    <path d="M 263.705037 73.703632 
C 263.88131 73.703632 264.050387 73.633598 264.17503 73.508955 
C 264.299674 73.384311 264.369708 73.215234 264.369708 73.038962 
C 264.369708 72.862689 264.299674 72.693613 264.17503 72.568969 
C 264.050387 72.444326 263.88131 72.374292 263.705037 72.374292 
C 263.528765 72.374292 263.359688 72.444326 263.235045 72.568969 
C 263.110401 72.693613 263.040367 72.862689 263.040367 73.038962 
C 263.040367 73.215234 263.110401 73.384311 263.235045 73.508955 
C 263.359688 73.633598 263.528765 73.703632 263.705037 73.703632 
z
" clip-path="url(#p5a7609f6dc)" style="fill-opacity: 0.501961; stroke: #000000; stroke-opacity: 0.501961; stroke-width: 0.886227"/>
    <path d="M 276.077543 46.212723 
C 276.253816 46.212723 276.422892 46.142689 276.547536 46.018046 
C 276.672179 45.893402 276.742213 45.724325 276.742213 45.548053 
C 276.742213 45.37178 276.672179 45.202704 276.547536 45.07806 
C 276.422892 44.953416 276.253816 44.883383 276.077543 44.883383 
C 275.90127 44.883383 275.732194 44.953416 275.60755 45.07806 
C 275.482907 45.202704 275.412873 45.37178 275.412873 45.548053 
C 275.412873 45.724325 275.482907 45.893402 275.60755 46.018046 
C 275.732194 46.142689 275.90127 46.212723 276.077543 46.212723 
z
" clip-path="url(#p5a7609f6dc)" style="fill-opacity: 0.501961; stroke: #000000; stroke-opacity: 0.501961; stroke-width: 0.886227"/>
    <path d="M 288.450049 48.830905 
C 288.626321 48.830905 288.795398 48.760871 288.920041 48.636227 
C 289.044685 48.511584 289.114719 48.342507 289.114719 48.166235 
C 289.114719 47.989962 289.044685 47.820885 288.920041 47.696242 
C 288.795398 47.571598 288.626321 47.501564 288.450049 47.501564 
C 288.273776 47.501564 288.104699 47.571598 287.980056 47.696242 
C 287.855412 47.820885 287.785378 47.989962 287.785378 48.166235 
C 287.785378 48.342507 287.855412 48.511584 287.980056 48.636227 
C 288.104699 48.760871 288.273776 48.830905 288.450049 48.830905 
z
" clip-path="url(#p5a7609f6dc)" style="fill-opacity: 0.501961; stroke: #000000; stroke-opacity: 0.501961; stroke-width: 0.886227"/>
    <path d="M 300.822554 54.067268 
C 300.998827 54.067268 301.167903 53.997235 301.292547 53.872591 
C 301.41719 53.747948 301.487224 53.578871 301.487224 53.402598 
C 301.487224 53.226326 301.41719 53.057249 301.292547 52.932605 
C 301.167903 52.807962 300.998827 52.737928 300.822554 52.737928 
C 300.646281 52.737928 300.477205 52.807962 300.352561 52.932605 
C 300.227918 53.057249 300.157884 53.226326 300.157884 53.402598 
C 300.157884 53.578871 300.227918 53.747948 300.352561 53.872591 
C 300.477205 53.997235 300.646281 54.067268 300.822554 54.067268 
z
" clip-path="url(#p5a7609f6dc)" style="fill-opacity: 0.501961; stroke: #000000; stroke-opacity: 0.501961; stroke-width: 0.886227"/>
    <path d="M 78.117454 111.667268 
C 78.293727 111.667268 78.462804 111.597235 78.587447 111.472591 
C 78.712091 111.347948 78.782124 111.178871 78.782124 111.002598 
C 78.782124 110.826326 78.712091 110.657249 78.587447 110.532605 
C 78.462804 110.407962 78.293727 110.337928 78.117454 110.337928 
C 77.941182 110.337928 77.772105 110.407962 77.647461 110.532605 
C 77.522818 110.657249 77.452784 110.826326 77.452784 111.002598 
C 77.452784 111.178871 77.522818 111.347948 77.647461 111.472591 
C 77.772105 111.597235 77.941182 111.667268 78.117454 111.667268 
z
" clip-path="url(#p5a7609f6dc)" style="fill-opacity: 0.501961; stroke: #000000; stroke-opacity: 0.501961; stroke-width: 0.886227"/>
    <path d="M 90.48996 132.612723 
C 90.666232 132.612723 90.835309 132.542689 90.959953 132.418046 
C 91.084596 132.293402 91.15463 132.124325 91.15463 131.948053 
C 91.15463 131.77178 91.084596 131.602704 90.959953 131.47806 
C 90.835309 131.353416 90.666232 131.283383 90.48996 131.283383 
C 90.313687 131.283383 90.144611 131.353416 90.019967 131.47806 
C 89.895323 131.602704 89.82529 131.77178 89.82529 131.948053 
C 89.82529 132.124325 89.895323 132.293402 90.019967 132.418046 
C 90.144611 132.542689 90.313687 132.612723 90.48996 132.612723 
z
" clip-path="url(#p5a7609f6dc)" style="fill-opacity: 0.501961; stroke: #000000; stroke-opacity: 0.501961; stroke-width: 0.886227"/>
    <path d="M 102.862465 118.212723 
C 103.038738 118.212723 103.207815 118.142689 103.332458 118.018046 
C 103.457102 117.893402 103.527136 117.724325 103.527136 117.548053 
C 103.527136 117.37178 103.457102 117.202704 103.332458 117.07806 
C 103.207815 116.953416 103.038738 116.883383 102.862465 116.883383 
C 102.686193 116.883383 102.517116 116.953416 102.392473 117.07806 
C 102.267829 117.202704 102.197795 117.37178 102.197795 117.548053 
C 102.197795 117.724325 102.267829 117.893402 102.392473 118.018046 
C 102.517116 118.142689 102.686193 118.212723 102.862465 118.212723 
z
" clip-path="url(#p5a7609f6dc)" style="fill-opacity: 0.501961; stroke: #000000; stroke-opacity: 0.501961; stroke-width: 0.886227"/>
    <path d="M 115.234971 120.830905 
C 115.411243 120.830905 115.58032 120.760871 115.704964 120.636227 
C 115.829607 120.511584 115.899641 120.342507 115.899641 120.166235 
C 115.899641 119.989962 115.829607 119.820885 115.704964 119.696242 
C 115.58032 119.571598 115.411243 119.501564 115.234971 119.501564 
C 115.058698 119.501564 114.889622 119.571598 114.764978 119.696242 
C 114.640335 119.820885 114.570301 119.989962 114.570301 120.166235 
C 114.570301 120.342507 114.640335 120.511584 114.764978 120.636227 
C 114.889622 120.760871 115.058698 120.830905 115.234971 120.830905 
z
" clip-path="url(#p5a7609f6dc)" style="fill-opacity: 0.501961; stroke: #000000; stroke-opacity: 0.501961; stroke-width: 0.886227"/>
    <path d="M 127.607476 122.139996 
C 127.783749 122.139996 127.952826 122.069962 128.077469 121.945318 
C 128.202113 121.820675 128.272147 121.651598 128.272147 121.475326 
C 128.272147 121.299053 128.202113 121.129976 128.077469 121.005333 
C 127.952826 120.880689 127.783749 120.810655 127.607476 120.810655 
C 127.431204 120.810655 127.262127 120.880689 127.137484 121.005333 
C 127.01284 121.129976 126.942806 121.299053 126.942806 121.475326 
C 126.942806 121.651598 127.01284 121.820675 127.137484 121.945318 
C 127.262127 122.069962 127.431204 122.139996 127.607476 122.139996 
z
" clip-path="url(#p5a7609f6dc)" style="fill-opacity: 0.501961; stroke: #000000; stroke-opacity: 0.501961; stroke-width: 0.886227"/>
    <path d="M 139.979982 128.68545 
C 140.156255 128.68545 140.325331 128.615416 140.449975 128.490773 
C 140.574618 128.366129 140.644652 128.197053 140.644652 128.02078 
C 140.644652 127.844507 140.574618 127.675431 140.449975 127.550787 
C 140.325331 127.426144 140.156255 127.35611 139.979982 127.35611 
C 139.803709 127.35611 139.634633 127.426144 139.509989 127.550787 
C 139.385346 127.675431 139.315312 127.844507 139.315312 128.02078 
C 139.315312 128.197053 139.385346 128.366129 139.509989 128.490773 
C 139.634633 128.615416 139.803709 128.68545 139.979982 128.68545 
z
" clip-path="url(#p5a7609f6dc)" style="fill-opacity: 0.501961; stroke: #000000; stroke-opacity: 0.501961; stroke-width: 0.886227"/>
    <path d="M 152.352488 120.830905 
C 152.52876 120.830905 152.697837 120.760871 152.82248 120.636227 
C 152.947124 120.511584 153.017158 120.342507 153.017158 120.166235 
C 153.017158 119.989962 152.947124 119.820885 152.82248 119.696242 
C 152.697837 119.571598 152.52876 119.501564 152.352488 119.501564 
C 152.176215 119.501564 152.007138 119.571598 151.882495 119.696242 
C 151.757851 119.820885 151.687817 119.989962 151.687817 120.166235 
C 151.687817 120.342507 151.757851 120.511584 151.882495 120.636227 
C 152.007138 120.760871 152.176215 120.830905 152.352488 120.830905 
z
" clip-path="url(#p5a7609f6dc)" style="fill-opacity: 0.501961; stroke: #000000; stroke-opacity: 0.501961; stroke-width: 0.886227"/>
    <path d="M 164.724993 126.067268 
C 164.901266 126.067268 165.070342 125.997235 165.194986 125.872591 
C 165.319629 125.747948 165.389663 125.578871 165.389663 125.402598 
C 165.389663 125.226326 165.319629 125.057249 165.194986 124.932605 
C 165.070342 124.807962 164.901266 124.737928 164.724993 124.737928 
C 164.54872 124.737928 164.379644 124.807962 164.255 124.932605 
C 164.130357 125.057249 164.060323 125.226326 164.060323 125.402598 
C 164.060323 125.578871 164.130357 125.747948 164.255 125.872591 
C 164.379644 125.997235 164.54872 126.067268 164.724993 126.067268 
z
" clip-path="url(#p5a7609f6dc)" style="fill-opacity: 0.501961; stroke: #000000; stroke-opacity: 0.501961; stroke-width: 0.886227"/>
    <path d="M 177.097499 118.212723 
C 177.273771 118.212723 177.442848 118.142689 177.567491 118.018046 
C 177.692135 117.893402 177.762169 117.724325 177.762169 117.548053 
C 177.762169 117.37178 177.692135 117.202704 177.567491 117.07806 
C 177.442848 116.953416 177.273771 116.883383 177.097499 116.883383 
C 176.921226 116.883383 176.752149 116.953416 176.627506 117.07806 
C 176.502862 117.202704 176.432828 117.37178 176.432828 117.548053 
C 176.432828 117.724325 176.502862 117.893402 176.627506 118.018046 
C 176.752149 118.142689 176.921226 118.212723 177.097499 118.212723 
z
" clip-path="url(#p5a7609f6dc)" style="fill-opacity: 0.501961; stroke: #000000; stroke-opacity: 0.501961; stroke-width: 0.886227"/>
    <path d="M 189.470004 97.267268 
C 189.646277 97.267268 189.815353 97.197235 189.939997 97.072591 
C 190.064641 96.947948 190.134674 96.778871 190.134674 96.602598 
C 190.134674 96.426326 190.064641 96.257249 189.939997 96.132605 
C 189.815353 96.007962 189.646277 95.937928 189.470004 95.937928 
C 189.293732 95.937928 189.124655 96.007962 189.000011 96.132605 
C 188.875368 96.257249 188.805334 96.426326 188.805334 96.602598 
C 188.805334 96.778871 188.875368 96.947948 189.000011 97.072591 
C 189.124655 97.197235 189.293732 97.267268 189.470004 97.267268 
z
" clip-path="url(#p5a7609f6dc)" style="fill-opacity: 0.501961; stroke: #000000; stroke-opacity: 0.501961; stroke-width: 0.886227"/>
    <path d="M 201.84251 112.976359 
C 202.018782 112.976359 202.187859 112.906326 202.312503 112.781682 
C 202.437146 112.657038 202.50718 112.487962 202.50718 112.311689 
C 202.50718 112.135417 202.437146 111.96634 202.312503 111.841696 
C 202.187859 111.717053 202.018782 111.647019 201.84251 111.647019 
C 201.666237 111.647019 201.49716 111.717053 201.372517 111.841696 
C 201.247873 111.96634 201.17784 112.135417 201.17784 112.311689 
C 201.17784 112.487962 201.247873 112.657038 201.372517 112.781682 
C 201.49716 112.906326 201.666237 112.976359 201.84251 112.976359 
z
" clip-path="url(#p5a7609f6dc)" style="fill-opacity: 0.501961; stroke: #000000; stroke-opacity: 0.501961; stroke-width: 0.886227"/>
    <path d="M 214.215015 119.521814 
C 214.391288 119.521814 214.560364 119.45178 214.685008 119.327137 
C 214.809652 119.202493 214.879685 119.033416 214.879685 118.857144 
C 214.879685 118.680871 214.809652 118.511794 214.685008 118.387151 
C 214.560364 118.262507 214.391288 118.192474 214.215015 118.192474 
C 214.038743 118.192474 213.869666 118.262507 213.745022 118.387151 
C 213.620379 118.511794 213.550345 118.680871 213.550345 118.857144 
C 213.550345 119.033416 213.620379 119.202493 213.745022 119.327137 
C 213.869666 119.45178 214.038743 119.521814 214.215015 119.521814 
z
" clip-path="url(#p5a7609f6dc)" style="fill-opacity: 0.501961; stroke: #000000; stroke-opacity: 0.501961; stroke-width: 0.886227"/>
    <path d="M 226.587521 123.449087 
C 226.763793 123.449087 226.93287 123.379053 227.057514 123.254409 
C 227.182157 123.129766 227.252191 122.960689 227.252191 122.784416 
C 227.252191 122.608144 227.182157 122.439067 227.057514 122.314424 
C 226.93287 122.18978 226.763793 122.119746 226.587521 122.119746 
C 226.411248 122.119746 226.242172 122.18978 226.117528 122.314424 
C 225.992884 122.439067 225.922851 122.608144 225.922851 122.784416 
C 225.922851 122.960689 225.992884 123.129766 226.117528 123.254409 
C 226.242172 123.379053 226.411248 123.449087 226.587521 123.449087 
z
" clip-path="url(#p5a7609f6dc)" style="fill-opacity: 0.501961; stroke: #000000; stroke-opacity: 0.501961; stroke-width: 0.886227"/>
    <path d="M 238.960026 106.430905 
C 239.136299 106.430905 239.305376 106.360871 239.430019 106.236227 
C 239.554663 106.111584 239.624697 105.942507 239.624697 105.766235 
C 239.624697 105.589962 239.554663 105.420885 239.430019 105.296242 
C 239.305376 105.171598 239.136299 105.101564 238.960026 105.101564 
C 238.783754 105.101564 238.614677 105.171598 238.490034 105.296242 
C 238.36539 105.420885 238.295356 105.589962 238.295356 105.766235 
C 238.295356 105.942507 238.36539 106.111584 238.490034 106.236227 
C 238.614677 106.360871 238.783754 106.430905 238.960026 106.430905 
z
" clip-path="url(#p5a7609f6dc)" style="fill-opacity: 0.501961; stroke: #000000; stroke-opacity: 0.501961; stroke-width: 0.886227"/>
    <path d="M 251.332532 98.576359 
C 251.508804 98.576359 251.677881 98.506326 251.802525 98.381682 
C 251.927168 98.257038 251.997202 98.087962 251.997202 97.911689 
C 251.997202 97.735417 251.927168 97.56634 251.802525 97.441696 
C 251.677881 97.317053 251.508804 97.247019 251.332532 97.247019 
C 251.156259 97.247019 250.987183 97.317053 250.862539 97.441696 
C 250.737896 97.56634 250.667862 97.735417 250.667862 97.911689 
C 250.667862 98.087962 250.737896 98.257038 250.862539 98.381682 
C 250.987183 98.506326 251.156259 98.576359 251.332532 98.576359 
z
" clip-path="url(#p5a7609f6dc)" style="fill-opacity: 0.501961; stroke: #000000; stroke-opacity: 0.501961; stroke-width: 0.886227"/>
    <path d="M 263.705037 73.703632 
C 263.88131 73.703632 264.050387 73.633598 264.17503 73.508955 
C 264.299674 73.384311 264.369708 73.215234 264.369708 73.038962 
C 264.369708 72.862689 264.299674 72.693613 264.17503 72.568969 
C 264.050387 72.444326 263.88131 72.374292 263.705037 72.374292 
C 263.528765 72.374292 263.359688 72.444326 263.235045 72.568969 
C 263.110401 72.693613 263.040367 72.862689 263.040367 73.038962 
C 263.040367 73.215234 263.110401 73.384311 263.235045 73.508955 
C 263.359688 73.633598 263.528765 73.703632 263.705037 73.703632 
z
" clip-path="url(#p5a7609f6dc)" style="fill-opacity: 0.501961; stroke: #000000; stroke-opacity: 0.501961; stroke-width: 0.886227"/>
    <path d="M 276.077543 46.212723 
C 276.253816 46.212723 276.422892 46.142689 276.547536 46.018046 
C 276.672179 45.893402 276.742213 45.724325 276.742213 45.548053 
C 276.742213 45.37178 276.672179 45.202704 276.547536 45.07806 
C 276.422892 44.953416 276.253816 44.883383 276.077543 44.883383 
C 275.90127 44.883383 275.732194 44.953416 275.60755 45.07806 
C 275.482907 45.202704 275.412873 45.37178 275.412873 45.548053 
C 275.412873 45.724325 275.482907 45.893402 275.60755 46.018046 
C 275.732194 46.142689 275.90127 46.212723 276.077543 46.212723 
z
" clip-path="url(#p5a7609f6dc)" style="fill-opacity: 0.501961; stroke: #000000; stroke-opacity: 0.501961; stroke-width: 0.886227"/>
    <path d="M 288.450049 48.830905 
C 288.626321 48.830905 288.795398 48.760871 288.920041 48.636227 
C 289.044685 48.511584 289.114719 48.342507 289.114719 48.166235 
C 289.114719 47.989962 289.044685 47.820885 288.920041 47.696242 
C 288.795398 47.571598 288.626321 47.501564 288.450049 47.501564 
C 288.273776 47.501564 288.104699 47.571598 287.980056 47.696242 
C 287.855412 47.820885 287.785378 47.989962 287.785378 48.166235 
C 287.785378 48.342507 287.855412 48.511584 287.980056 48.636227 
C 288.104699 48.760871 288.273776 48.830905 288.450049 48.830905 
z
" clip-path="url(#p5a7609f6dc)" style="fill-opacity: 0.501961; stroke: #000000; stroke-opacity: 0.501961; stroke-width: 0.886227"/>
    <path d="M 300.822554 54.067268 
C 300.998827 54.067268 301.167903 53.997235 301.292547 53.872591 
C 301.41719 53.747948 301.487224 53.578871 301.487224 53.402598 
C 301.487224 53.226326 301.41719 53.057249 301.292547 52.932605 
C 301.167903 52.807962 300.998827 52.737928 300.822554 52.737928 
C 300.646281 52.737928 300.477205 52.807962 300.352561 52.932605 
C 300.227918 53.057249 300.157884 53.226326 300.157884 53.402598 
C 300.157884 53.578871 300.227918 53.747948 300.352561 53.872591 
C 300.477205 53.997235 300.646281 54.067268 300.822554 54.067268 
z
" clip-path="url(#p5a7609f6dc)" style="fill-opacity: 0.501961; stroke: #000000; stroke-opacity: 0.501961; stroke-width: 0.886227"/>
   </g>
   <g id="patch_3">
    <path d="M 40.690625 40.508053 
L 319.690625 40.508053 
L 319.690625 24.508053 
L 40.690625 24.508053 
z
" style="fill: #d9d9d9; stroke: #d9d9d9; stroke-linejoin: miter"/>
   </g>
   <g id="PathCollection_2">
    <path d="M 273.861976 45.548053 
L 278.29311 45.548053 
M 276.077543 47.76362 
L 276.077543 43.332485 
" clip-path="url(#p5a7609f6dc)" style="fill: #ff0000; stroke: #ff0000; stroke-width: 0.886227"/>
    <path d="M 75.901887 111.002598 
L 80.333022 111.002598 
M 78.117454 113.218166 
L 78.117454 108.787031 
" clip-path="url(#p5a7609f6dc)" style="fill: #ff0000; stroke: #ff0000; stroke-width: 0.886227"/>
   </g>
   <g id="text_13">
    <!-- United Kingdom -->
    <g transform="translate(138.221094 35.222897)scale(0.1 -0.1)">
     <defs>
      <path id="Montserrat-Regular-55" d="M 2534 -38 
Q 1677 -38 1184 454 
Q 691 947 691 1914 
L 691 4480 
L 1165 4480 
L 1165 1933 
Q 1165 1139 1523 761 
Q 1882 384 2534 384 
Q 3194 384 3552 761 
Q 3910 1139 3910 1933 
L 3910 4480 
L 4371 4480 
L 4371 1914 
Q 4371 947 3881 454 
Q 3392 -38 2534 -38 
z
" transform="scale(0.015625)"/>
      <path id="Montserrat-Regular-6e" d="M 2349 3392 
Q 2758 3392 3068 3235 
Q 3379 3078 3555 2758 
Q 3731 2438 3731 1952 
L 3731 0 
L 3277 0 
L 3277 1907 
Q 3277 2438 3011 2710 
Q 2746 2982 2266 2982 
Q 1907 2982 1641 2838 
Q 1376 2694 1232 2422 
Q 1088 2150 1088 1766 
L 1088 0 
L 634 0 
L 634 3360 
L 1069 3360 
L 1069 2438 
L 998 2611 
Q 1158 2976 1510 3184 
Q 1862 3392 2349 3392 
z
" transform="scale(0.015625)"/>
      <path id="Montserrat-Regular-69" d="M 634 0 
L 634 3360 
L 1088 3360 
L 1088 0 
L 634 0 
z
M 864 4102 
Q 723 4102 627 4198 
Q 531 4294 531 4429 
Q 531 4563 627 4656 
Q 723 4749 864 4749 
Q 1005 4749 1101 4659 
Q 1197 4570 1197 4435 
Q 1197 4294 1104 4198 
Q 1011 4102 864 4102 
z
" transform="scale(0.015625)"/>
      <path id="Montserrat-Regular-74" d="M 1696 -32 
Q 1222 -32 966 224 
Q 710 480 710 947 
L 710 4102 
L 1165 4102 
L 1165 973 
Q 1165 678 1315 518 
Q 1466 358 1747 358 
Q 2048 358 2246 531 
L 2406 205 
Q 2272 83 2083 25 
Q 1894 -32 1696 -32 
z
M 109 2982 
L 109 3360 
L 2189 3360 
L 2189 2982 
L 109 2982 
z
" transform="scale(0.015625)"/>
      <path id="Montserrat-Regular-20" transform="scale(0.015625)"/>
      <path id="Montserrat-Regular-4b" d="M 1139 1114 
L 1120 1690 
L 3834 4480 
L 4378 4480 
L 2400 2406 
L 2131 2118 
L 1139 1114 
z
M 730 0 
L 730 4480 
L 1203 4480 
L 1203 0 
L 730 0 
z
M 3949 0 
L 2016 2227 
L 2336 2573 
L 4512 0 
L 3949 0 
z
" transform="scale(0.015625)"/>
      <path id="Montserrat-Regular-67" d="M 2067 -1274 
Q 1606 -1274 1184 -1139 
Q 762 -1005 499 -755 
L 730 -410 
Q 966 -621 1315 -745 
Q 1664 -870 2054 -870 
Q 2694 -870 2995 -572 
Q 3296 -275 3296 352 
L 3296 1190 
L 3360 1766 
L 3315 2342 
L 3315 3360 
L 3750 3360 
L 3750 410 
Q 3750 -461 3324 -867 
Q 2899 -1274 2067 -1274 
z
M 1984 128 
Q 1504 128 1120 336 
Q 736 544 515 915 
Q 294 1286 294 1766 
Q 294 2246 515 2614 
Q 736 2982 1120 3187 
Q 1504 3392 1984 3392 
Q 2432 3392 2790 3206 
Q 3149 3021 3360 2656 
Q 3571 2291 3571 1766 
Q 3571 1242 3360 877 
Q 3149 512 2790 320 
Q 2432 128 1984 128 
z
M 2029 531 
Q 2400 531 2688 688 
Q 2976 845 3142 1123 
Q 3309 1402 3309 1766 
Q 3309 2131 3142 2406 
Q 2976 2682 2688 2838 
Q 2400 2995 2029 2995 
Q 1664 2995 1373 2838 
Q 1082 2682 918 2406 
Q 755 2131 755 1766 
Q 755 1402 918 1123 
Q 1082 845 1373 688 
Q 1664 531 2029 531 
z
" transform="scale(0.015625)"/>
      <path id="Montserrat-Regular-6f" d="M 2003 -32 
Q 1517 -32 1129 189 
Q 742 410 518 797 
Q 294 1184 294 1683 
Q 294 2189 518 2573 
Q 742 2957 1126 3174 
Q 1510 3392 2003 3392 
Q 2502 3392 2889 3174 
Q 3277 2957 3497 2573 
Q 3718 2189 3718 1683 
Q 3718 1184 3497 797 
Q 3277 410 2886 189 
Q 2496 -32 2003 -32 
z
M 2003 371 
Q 2368 371 2649 534 
Q 2931 698 3094 995 
Q 3258 1293 3258 1683 
Q 3258 2080 3094 2374 
Q 2931 2669 2649 2832 
Q 2368 2995 2010 2995 
Q 1651 2995 1369 2832 
Q 1088 2669 921 2374 
Q 755 2080 755 1683 
Q 755 1293 921 995 
Q 1088 698 1369 534 
Q 1651 371 2003 371 
z
" transform="scale(0.015625)"/>
     </defs>
     <use xlink:href="#Montserrat-Regular-55"/>
     <use xlink:href="#Montserrat-Regular-6e" x="79.199982"/>
     <use xlink:href="#Montserrat-Regular-69" x="146.799973"/>
     <use xlink:href="#Montserrat-Regular-74" x="173.699966"/>
     <use xlink:href="#Montserrat-Regular-65" x="214.299957"/>
     <use xlink:href="#Montserrat-Regular-64" x="274.699951"/>
     <use xlink:href="#Montserrat-Regular-20" x="342.499939"/>
     <use xlink:href="#Montserrat-Regular-4b" x="368.699936"/>
     <use xlink:href="#Montserrat-Regular-69" x="439.799927"/>
     <use xlink:href="#Montserrat-Regular-6e" x="466.699921"/>
     <use xlink:href="#Montserrat-Regular-67" x="534.299911"/>
     <use xlink:href="#Montserrat-Regular-64" x="602.799896"/>
     <use xlink:href="#Montserrat-Regular-6f" x="670.599884"/>
     <use xlink:href="#Montserrat-Regular-6d" x="733.299881"/>
    </g>
   </g>
  </g>
  <g id="text_14">
   <!-- Medals for United Kingdom at Summer Olympics -->
   <g transform="translate(51.820312 14.670312)scale(0.1 -0.1)">
    <defs>
     <path id="Montserrat-Regular-4d" d="M 730 0 
L 730 4480 
L 1120 4480 
L 3168 986 
L 2963 986 
L 4992 4480 
L 5382 4480 
L 5382 0 
L 4928 0 
L 4928 3770 
L 5037 3770 
L 3168 570 
L 2944 570 
L 1062 3770 
L 1184 3770 
L 1184 0 
L 730 0 
z
" transform="scale(0.015625)"/>
     <path id="Montserrat-Regular-66" d="M 710 0 
L 710 3782 
Q 710 4230 972 4505 
Q 1235 4781 1728 4781 
Q 1920 4781 2099 4729 
Q 2278 4678 2400 4570 
L 2246 4230 
Q 2150 4314 2022 4355 
Q 1894 4397 1747 4397 
Q 1459 4397 1305 4237 
Q 1152 4077 1152 3763 
L 1152 3251 
L 1165 3040 
L 1165 0 
L 710 0 
z
M 109 2982 
L 109 3360 
L 2189 3360 
L 2189 2982 
L 109 2982 
z
" transform="scale(0.015625)"/>
     <path id="Montserrat-Regular-53" d="M 1965 -38 
Q 1466 -38 1008 125 
Q 550 288 301 544 
L 486 909 
Q 723 678 1123 521 
Q 1523 365 1965 365 
Q 2387 365 2652 470 
Q 2918 576 3043 755 
Q 3168 934 3168 1152 
Q 3168 1414 3017 1574 
Q 2867 1734 2624 1827 
Q 2381 1920 2086 1990 
Q 1792 2061 1497 2141 
Q 1203 2221 956 2355 
Q 710 2490 560 2710 
Q 410 2931 410 3290 
Q 410 3622 586 3900 
Q 762 4179 1126 4348 
Q 1491 4518 2061 4518 
Q 2438 4518 2809 4412 
Q 3181 4307 3450 4122 
L 3290 3744 
Q 3002 3936 2678 4025 
Q 2355 4115 2054 4115 
Q 1651 4115 1388 4006 
Q 1126 3898 1001 3715 
Q 877 3533 877 3302 
Q 877 3040 1027 2880 
Q 1178 2720 1424 2630 
Q 1670 2541 1964 2470 
Q 2259 2400 2550 2317 
Q 2842 2234 3088 2102 
Q 3334 1971 3484 1753 
Q 3635 1536 3635 1184 
Q 3635 858 3456 579 
Q 3277 301 2909 131 
Q 2541 -38 1965 -38 
z
" transform="scale(0.015625)"/>
     <path id="Montserrat-Regular-75" d="M 2022 -32 
Q 1594 -32 1274 128 
Q 954 288 778 608 
Q 602 928 602 1408 
L 602 3360 
L 1056 3360 
L 1056 1459 
Q 1056 922 1321 650 
Q 1587 378 2067 378 
Q 2419 378 2678 522 
Q 2938 666 3075 941 
Q 3213 1216 3213 1600 
L 3213 3360 
L 3667 3360 
L 3667 0 
L 3232 0 
L 3232 922 
L 3302 755 
Q 3142 384 2806 176 
Q 2470 -32 2022 -32 
z
" transform="scale(0.015625)"/>
     <path id="Montserrat-Regular-4f" d="M 2688 -38 
Q 2182 -38 1750 131 
Q 1318 301 1001 611 
Q 685 922 509 1334 
Q 333 1747 333 2240 
Q 333 2733 509 3145 
Q 685 3558 1001 3868 
Q 1318 4179 1747 4348 
Q 2176 4518 2688 4518 
Q 3194 4518 3622 4348 
Q 4051 4179 4368 3872 
Q 4685 3565 4861 3149 
Q 5037 2733 5037 2240 
Q 5037 1747 4861 1331 
Q 4685 915 4368 608 
Q 4051 301 3622 131 
Q 3194 -38 2688 -38 
z
M 2688 384 
Q 3091 384 3433 521 
Q 3776 659 4029 912 
Q 4282 1165 4422 1501 
Q 4563 1837 4563 2240 
Q 4563 2643 4422 2979 
Q 4282 3315 4029 3568 
Q 3776 3821 3433 3958 
Q 3091 4096 2688 4096 
Q 2285 4096 1939 3958 
Q 1594 3821 1341 3568 
Q 1088 3315 944 2979 
Q 800 2643 800 2240 
Q 800 1843 944 1504 
Q 1088 1165 1341 912 
Q 1594 659 1939 521 
Q 2285 384 2688 384 
z
" transform="scale(0.015625)"/>
     <path id="Montserrat-Regular-70" d="M 2368 -32 
Q 1933 -32 1581 169 
Q 1229 371 1021 752 
Q 813 1133 813 1683 
Q 813 2234 1017 2614 
Q 1222 2995 1574 3193 
Q 1926 3392 2368 3392 
Q 2848 3392 3229 3177 
Q 3610 2963 3827 2576 
Q 4045 2189 4045 1683 
Q 4045 1171 3827 787 
Q 3610 403 3229 185 
Q 2848 -32 2368 -32 
z
M 634 -1242 
L 634 3360 
L 1069 3360 
L 1069 2349 
L 1024 1677 
L 1088 998 
L 1088 -1242 
L 634 -1242 
z
M 2336 371 
Q 2694 371 2976 534 
Q 3258 698 3424 995 
Q 3590 1293 3590 1683 
Q 3590 2074 3424 2368 
Q 3258 2662 2976 2828 
Q 2694 2995 2336 2995 
Q 1978 2995 1693 2828 
Q 1408 2662 1245 2368 
Q 1082 2074 1082 1683 
Q 1082 1293 1245 995 
Q 1408 698 1693 534 
Q 1978 371 2336 371 
z
" transform="scale(0.015625)"/>
     <path id="Montserrat-Regular-63" d="M 2029 -32 
Q 1530 -32 1136 189 
Q 742 410 518 797 
Q 294 1184 294 1683 
Q 294 2189 518 2573 
Q 742 2957 1136 3174 
Q 1530 3392 2029 3392 
Q 2458 3392 2803 3225 
Q 3149 3059 3347 2726 
L 3008 2496 
Q 2835 2752 2579 2873 
Q 2323 2995 2022 2995 
Q 1664 2995 1376 2832 
Q 1088 2669 921 2374 
Q 755 2080 755 1683 
Q 755 1286 921 992 
Q 1088 698 1376 534 
Q 1664 371 2022 371 
Q 2323 371 2579 492 
Q 2835 614 3008 864 
L 3347 634 
Q 3149 307 2803 137 
Q 2458 -32 2029 -32 
z
" transform="scale(0.015625)"/>
    </defs>
    <use xlink:href="#Montserrat-Regular-4d"/>
    <use xlink:href="#Montserrat-Regular-65" x="95.499985"/>
    <use xlink:href="#Montserrat-Regular-64" x="155.899979"/>
    <use xlink:href="#Montserrat-Regular-61" x="223.699966"/>
    <use xlink:href="#Montserrat-Regular-6c" x="282.699951"/>
    <use xlink:href="#Montserrat-Regular-73" x="309.599945"/>
    <use xlink:href="#Montserrat-Regular-20" x="358.399933"/>
    <use xlink:href="#Montserrat-Regular-66" x="384.59993"/>
    <use xlink:href="#Montserrat-Regular-6f" x="418.499924"/>
    <use xlink:href="#Montserrat-Regular-72" x="481.199921"/>
    <use xlink:href="#Montserrat-Regular-20" x="521.299911"/>
    <use xlink:href="#Montserrat-Regular-55" x="547.499908"/>
    <use xlink:href="#Montserrat-Regular-6e" x="626.69989"/>
    <use xlink:href="#Montserrat-Regular-69" x="694.299881"/>
    <use xlink:href="#Montserrat-Regular-74" x="721.199875"/>
    <use xlink:href="#Montserrat-Regular-65" x="761.799866"/>
    <use xlink:href="#Montserrat-Regular-64" x="822.19986"/>
    <use xlink:href="#Montserrat-Regular-20" x="889.999847"/>
    <use xlink:href="#Montserrat-Regular-4b" x="916.199844"/>
    <use xlink:href="#Montserrat-Regular-69" x="987.299835"/>
    <use xlink:href="#Montserrat-Regular-6e" x="1014.199829"/>
    <use xlink:href="#Montserrat-Regular-67" x="1081.79982"/>
    <use xlink:href="#Montserrat-Regular-64" x="1150.299805"/>
    <use xlink:href="#Montserrat-Regular-6f" x="1218.099792"/>
    <use xlink:href="#Montserrat-Regular-6d" x="1280.799789"/>
    <use xlink:href="#Montserrat-Regular-20" x="1386.89978"/>
    <use xlink:href="#Montserrat-Regular-61" x="1413.099777"/>
    <use xlink:href="#Montserrat-Regular-74" x="1472.099762"/>
    <use xlink:href="#Montserrat-Regular-20" x="1512.699753"/>
    <use xlink:href="#Montserrat-Regular-53" x="1538.89975"/>
    <use xlink:href="#Montserrat-Regular-75" x="1600.399734"/>
    <use xlink:href="#Montserrat-Regular-6d" x="1667.599731"/>
    <use xlink:href="#Montserrat-Regular-6d" x="1773.699722"/>
    <use xlink:href="#Montserrat-Regular-65" x="1879.799713"/>
    <use xlink:href="#Montserrat-Regular-72" x="1940.199707"/>
    <use xlink:href="#Montserrat-Regular-20" x="1980.299698"/>
    <use xlink:href="#Montserrat-Regular-4f" x="2006.499695"/>
    <use xlink:href="#Montserrat-Regular-6c" x="2090.399689"/>
    <use xlink:href="#Montserrat-Regular-79" x="2117.299683"/>
    <use xlink:href="#Montserrat-Regular-6d" x="2171.49968"/>
    <use xlink:href="#Montserrat-Regular-70" x="2277.59967"/>
    <use xlink:href="#Montserrat-Regular-69" x="2345.399658"/>
    <use xlink:href="#Montserrat-Regular-63" x="2372.299652"/>
    <use xlink:href="#Montserrat-Regular-73" x="2428.59964"/>
   </g>
  </g>
 </g>
 <defs>
  <clipPath id="p5a7609f6dc">
   <rect x="40.690625" y="40.508053" width="279" height="110.88"/>
  </clipPath>
 </defs>
</svg>
