<?xml version="1.0" encoding="utf-8" standalone="no"?>
<!DOCTYPE svg PUBLIC "-//W3C//DTD SVG 1.1//EN"
  "http://www.w3.org/Graphics/SVG/1.1/DTD/svg11.dtd">
<svg xmlns:xlink="http://www.w3.org/1999/xlink" width="325.960938pt" height="188.209928pt" viewBox="0 0 325.960938 188.209928" xmlns="http://www.w3.org/2000/svg" version="1.1">
 <metadata>
  <rdf:RDF xmlns:dc="http://purl.org/dc/elements/1.1/" xmlns:cc="http://creativecommons.org/ns#" xmlns:rdf="http://www.w3.org/1999/02/22-rdf-syntax-ns#">
   <cc:Work>
    <dc:type rdf:resource="http://purl.org/dc/dcmitype/StillImage"/>
    <dc:date>2024-08-08T08:27:23.429892</dc:date>
    <dc:format>image/svg+xml</dc:format>
    <dc:creator>
     <cc:Agent>
      <dc:title>Matplotlib v3.5.1, https://matplotlib.org/</dc:title>
     </cc:Agent>
    </dc:creator>
   </cc:Work>
  </rdf:RDF>
 </metadata>
 <defs>
  <style type="text/css">*{stroke-linejoin: round; stroke-linecap: butt}</style>
 </defs>
 <g id="figure_1">
  <g id="patch_1">
   <path d="M 0 188.209928 
L 325.960938 188.209928 
L 325.960938 0 
L 0 0 
z
" style="fill: #ffffff"/>
  </g>
  <g id="axes_1">
   <g id="patch_2">
    <path d="M 39.760938 151.388053 
L 318.760938 151.388053 
L 318.760938 40.508053 
L 39.760938 40.508053 
z
" style="fill: #ffffff"/>
   </g>
   <g id="line2d_1">
    <path d="M 101.932778 103.905948 
L 114.305283 90.64279 
L 126.677789 77.379632 
L 139.050294 106.558579 
L 151.4228 98.600684 
L 163.795306 66.769105 
L 176.167811 77.379632 
L 200.912822 56.158579 
L 219.471581 74.727 
L 231.844086 87.990158 
L 244.216592 106.558579 
L 256.589097 80.032263 
L 268.961603 95.948053 
L 281.334108 58.811211 
L 293.706614 98.600684 
L 306.079119 45.548053 
" clip-path="url(#p004fb869bf)" style="fill: none; stroke: #000000; stroke-width: 0.886227"/>
   </g>
   <g id="matplotlib.axis_1">
    <g id="xtick_1">
     <g id="line2d_2">
      <defs>
       <path id="m8531852637" d="M 0 0 
L 0 3.5 
" style="stroke: #000000; stroke-width: 0.8"/>
      </defs>
      <g>
       <use xlink:href="#m8531852637" x="52.442756" y="151.388053" style="stroke: #000000; stroke-width: 0.8"/>
      </g>
     </g>
     <g id="text_1">
      <!-- 1940 -->
      <g transform="translate(40.977912 164.708365)scale(0.1 -0.1)">
       <defs>
        <path id="Montserrat-Regular-31" d="M 1114 0 
L 1114 4288 
L 1318 4070 
L 58 4070 
L 58 4480 
L 1574 4480 
L 1574 0 
L 1114 0 
z
" transform="scale(0.015625)"/>
        <path id="Montserrat-Regular-39" d="M 1728 4518 
Q 2323 4518 2732 4252 
Q 3142 3987 3353 3488 
Q 3565 2989 3565 2278 
Q 3565 1523 3305 1004 
Q 3046 486 2585 224 
Q 2125 -38 1517 -38 
Q 1216 -38 944 19 
Q 672 77 454 205 
L 640 576 
Q 813 461 1040 413 
Q 1267 365 1510 365 
Q 2234 365 2666 825 
Q 3098 1286 3098 2202 
Q 3098 2349 3082 2553 
Q 3066 2758 3008 2963 
L 3168 2842 
Q 3104 2509 2896 2275 
Q 2688 2042 2384 1920 
Q 2080 1798 1709 1798 
Q 1267 1798 924 1964 
Q 582 2131 390 2432 
Q 198 2733 198 3142 
Q 198 3565 396 3872 
Q 595 4179 944 4348 
Q 1293 4518 1728 4518 
z
M 1747 4128 
Q 1427 4128 1180 4009 
Q 934 3891 793 3673 
Q 653 3456 653 3155 
Q 653 2714 957 2451 
Q 1261 2189 1779 2189 
Q 2125 2189 2384 2317 
Q 2643 2445 2787 2669 
Q 2931 2893 2931 3168 
Q 2931 3418 2796 3635 
Q 2662 3853 2400 3990 
Q 2138 4128 1747 4128 
z
" transform="scale(0.015625)"/>
        <path id="Montserrat-Regular-34" d="M 256 1178 
L 256 1510 
L 2630 4480 
L 3142 4480 
L 787 1510 
L 538 1587 
L 4141 1587 
L 4141 1178 
L 256 1178 
z
M 2784 0 
L 2784 1178 
L 2797 1587 
L 2797 2624 
L 3245 2624 
L 3245 0 
L 2784 0 
z
" transform="scale(0.015625)"/>
        <path id="Montserrat-Regular-30" d="M 2118 -38 
Q 1600 -38 1197 234 
Q 794 506 563 1014 
Q 333 1523 333 2240 
Q 333 2957 563 3465 
Q 794 3974 1197 4246 
Q 1600 4518 2118 4518 
Q 2637 4518 3040 4246 
Q 3443 3974 3676 3465 
Q 3910 2957 3910 2240 
Q 3910 1523 3676 1014 
Q 3443 506 3040 234 
Q 2637 -38 2118 -38 
z
M 2118 384 
Q 2515 384 2809 598 
Q 3104 813 3270 1225 
Q 3437 1638 3437 2240 
Q 3437 2842 3270 3254 
Q 3104 3667 2809 3881 
Q 2515 4096 2118 4096 
Q 1734 4096 1433 3881 
Q 1133 3667 966 3254 
Q 800 2842 800 2240 
Q 800 1638 966 1225 
Q 1133 813 1433 598 
Q 1734 384 2118 384 
z
" transform="scale(0.015625)"/>
       </defs>
       <use xlink:href="#Montserrat-Regular-31"/>
       <use xlink:href="#Montserrat-Regular-39" x="36.099991"/>
       <use xlink:href="#Montserrat-Regular-34" x="96.999985"/>
       <use xlink:href="#Montserrat-Regular-30" x="163.099976"/>
      </g>
     </g>
    </g>
    <g id="xtick_2">
     <g id="line2d_3">
      <g>
       <use xlink:href="#m8531852637" x="114.305283" y="151.388053" style="stroke: #000000; stroke-width: 0.8"/>
      </g>
     </g>
     <g id="text_2">
      <!-- 1960 -->
      <g transform="translate(103.099815 164.708365)scale(0.1 -0.1)">
       <defs>
        <path id="Montserrat-Regular-36" d="M 2170 -38 
Q 1574 -38 1164 227 
Q 755 493 544 995 
Q 333 1498 333 2202 
Q 333 2963 592 3478 
Q 851 3994 1312 4256 
Q 1773 4518 2381 4518 
Q 2682 4518 2957 4460 
Q 3232 4403 3443 4275 
L 3258 3904 
Q 3085 4019 2861 4067 
Q 2637 4115 2387 4115 
Q 1664 4115 1232 3654 
Q 800 3194 800 2278 
Q 800 2138 816 1930 
Q 832 1722 890 1517 
L 730 1638 
Q 800 1971 1005 2204 
Q 1210 2438 1517 2560 
Q 1824 2682 2189 2682 
Q 2637 2682 2976 2515 
Q 3315 2349 3507 2048 
Q 3699 1747 3699 1338 
Q 3699 922 3500 611 
Q 3302 301 2953 131 
Q 2605 -38 2170 -38 
z
M 2150 352 
Q 2470 352 2716 470 
Q 2963 589 3104 809 
Q 3245 1030 3245 1325 
Q 3245 1766 2941 2028 
Q 2637 2291 2118 2291 
Q 1773 2291 1517 2163 
Q 1261 2035 1113 1814 
Q 966 1594 966 1312 
Q 966 1069 1100 848 
Q 1235 627 1500 489 
Q 1766 352 2150 352 
z
" transform="scale(0.015625)"/>
       </defs>
       <use xlink:href="#Montserrat-Regular-31"/>
       <use xlink:href="#Montserrat-Regular-39" x="36.099991"/>
       <use xlink:href="#Montserrat-Regular-36" x="96.999985"/>
       <use xlink:href="#Montserrat-Regular-30" x="157.899979"/>
      </g>
     </g>
    </g>
    <g id="xtick_3">
     <g id="line2d_4">
      <g>
       <use xlink:href="#m8531852637" x="176.167811" y="151.388053" style="stroke: #000000; stroke-width: 0.8"/>
      </g>
     </g>
     <g id="text_3">
      <!-- 1980 -->
      <g transform="translate(164.817811 164.708365)scale(0.1 -0.1)">
       <defs>
        <path id="Montserrat-Regular-38" d="M 2035 -38 
Q 1498 -38 1110 115 
Q 723 269 515 560 
Q 307 851 307 1248 
Q 307 1632 508 1904 
Q 710 2176 1097 2323 
Q 1485 2470 2035 2470 
Q 2579 2470 2969 2323 
Q 3360 2176 3568 1904 
Q 3776 1632 3776 1248 
Q 3776 851 3565 560 
Q 3354 269 2963 115 
Q 2573 -38 2035 -38 
z
M 2035 352 
Q 2630 352 2966 595 
Q 3302 838 3302 1254 
Q 3302 1670 2966 1910 
Q 2630 2150 2035 2150 
Q 1440 2150 1107 1910 
Q 774 1670 774 1254 
Q 774 838 1107 595 
Q 1440 352 2035 352 
z
M 2035 2208 
Q 1536 2208 1187 2342 
Q 838 2477 652 2729 
Q 467 2982 467 3334 
Q 467 3706 662 3971 
Q 858 4237 1210 4377 
Q 1562 4518 2035 4518 
Q 2509 4518 2864 4377 
Q 3219 4237 3417 3971 
Q 3616 3706 3616 3334 
Q 3616 2982 3430 2729 
Q 3245 2477 2889 2342 
Q 2534 2208 2035 2208 
z
M 2035 2515 
Q 2560 2515 2854 2732 
Q 3149 2950 3149 3315 
Q 3149 3699 2845 3913 
Q 2541 4128 2035 4128 
Q 1530 4128 1229 3913 
Q 928 3699 928 3322 
Q 928 2950 1219 2732 
Q 1510 2515 2035 2515 
z
" transform="scale(0.015625)"/>
       </defs>
       <use xlink:href="#Montserrat-Regular-31"/>
       <use xlink:href="#Montserrat-Regular-39" x="36.099991"/>
       <use xlink:href="#Montserrat-Regular-38" x="96.999985"/>
       <use xlink:href="#Montserrat-Regular-30" x="160.799973"/>
      </g>
     </g>
    </g>
    <g id="xtick_4">
     <g id="line2d_5">
      <g>
       <use xlink:href="#m8531852637" x="238.030339" y="151.388053" style="stroke: #000000; stroke-width: 0.8"/>
      </g>
     </g>
     <g id="text_4">
      <!-- 2000 -->
      <g transform="translate(225.260026 164.708365)scale(0.1 -0.1)">
       <defs>
        <path id="Montserrat-Regular-32" d="M 250 0 
L 250 326 
L 2112 2150 
Q 2368 2400 2496 2589 
Q 2624 2778 2669 2944 
Q 2714 3110 2714 3258 
Q 2714 3648 2448 3872 
Q 2182 4096 1664 4096 
Q 1267 4096 963 3974 
Q 659 3853 442 3597 
L 115 3878 
Q 378 4186 787 4352 
Q 1197 4518 1702 4518 
Q 2157 4518 2489 4374 
Q 2822 4230 3004 3955 
Q 3187 3680 3187 3309 
Q 3187 3091 3126 2880 
Q 3066 2669 2909 2435 
Q 2752 2202 2451 1907 
L 742 230 
L 614 410 
L 3392 410 
L 3392 0 
L 250 0 
z
" transform="scale(0.015625)"/>
       </defs>
       <use xlink:href="#Montserrat-Regular-32"/>
       <use xlink:href="#Montserrat-Regular-30" x="56.799988"/>
       <use xlink:href="#Montserrat-Regular-30" x="122.999985"/>
       <use xlink:href="#Montserrat-Regular-30" x="189.199982"/>
      </g>
     </g>
    </g>
    <g id="xtick_5">
     <g id="line2d_6">
      <g>
       <use xlink:href="#m8531852637" x="299.892867" y="151.388053" style="stroke: #000000; stroke-width: 0.8"/>
      </g>
     </g>
     <g id="text_5">
      <!-- 2020 -->
      <g transform="translate(287.592867 164.708365)scale(0.1 -0.1)">
       <use xlink:href="#Montserrat-Regular-32"/>
       <use xlink:href="#Montserrat-Regular-30" x="56.799988"/>
       <use xlink:href="#Montserrat-Regular-32" x="122.999985"/>
       <use xlink:href="#Montserrat-Regular-30" x="179.799973"/>
      </g>
     </g>
    </g>
    <g id="xtick_6">
     <g id="line2d_7">
      <defs>
       <path id="mf658502c3d" d="M 0 0 
L 0 2 
" style="stroke: #000000; stroke-width: 0.6"/>
      </defs>
      <g>
       <use xlink:href="#mf658502c3d" x="83.37402" y="151.388053" style="stroke: #000000; stroke-width: 0.6"/>
      </g>
     </g>
    </g>
    <g id="xtick_7">
     <g id="line2d_8">
      <g>
       <use xlink:href="#mf658502c3d" x="145.236547" y="151.388053" style="stroke: #000000; stroke-width: 0.6"/>
      </g>
     </g>
    </g>
    <g id="xtick_8">
     <g id="line2d_9">
      <g>
       <use xlink:href="#mf658502c3d" x="207.099075" y="151.388053" style="stroke: #000000; stroke-width: 0.6"/>
      </g>
     </g>
    </g>
    <g id="xtick_9">
     <g id="line2d_10">
      <g>
       <use xlink:href="#mf658502c3d" x="268.961603" y="151.388053" style="stroke: #000000; stroke-width: 0.6"/>
      </g>
     </g>
    </g>
    <g id="text_6">
     <!-- year -->
     <g transform="translate(164.075781 179.019303)scale(0.1 -0.1)">
      <defs>
       <path id="Montserrat-Regular-79" d="M 659 -1274 
Q 422 -1274 208 -1197 
Q -6 -1120 -160 -966 
L 51 -627 
Q 179 -749 329 -816 
Q 480 -883 666 -883 
Q 890 -883 1053 -758 
Q 1216 -634 1363 -320 
L 1581 173 
L 1632 243 
L 3014 3360 
L 3462 3360 
L 1779 -403 
Q 1638 -730 1468 -922 
Q 1299 -1114 1100 -1194 
Q 902 -1274 659 -1274 
z
M 1555 -96 
L 6 3360 
L 480 3360 
L 1850 275 
L 1555 -96 
z
" transform="scale(0.015625)"/>
       <path id="Montserrat-Regular-65" d="M 2061 -32 
Q 1536 -32 1139 189 
Q 742 410 518 797 
Q 294 1184 294 1683 
Q 294 2182 508 2566 
Q 723 2950 1097 3171 
Q 1472 3392 1939 3392 
Q 2413 3392 2781 3177 
Q 3149 2963 3360 2576 
Q 3571 2189 3571 1683 
Q 3571 1651 3568 1616 
Q 3565 1581 3565 1542 
L 640 1542 
L 640 1882 
L 3322 1882 
L 3142 1747 
Q 3142 2112 2985 2397 
Q 2829 2682 2560 2842 
Q 2291 3002 1939 3002 
Q 1594 3002 1318 2842 
Q 1043 2682 889 2394 
Q 736 2106 736 1734 
L 736 1664 
Q 736 1280 905 989 
Q 1075 698 1379 534 
Q 1683 371 2074 371 
Q 2381 371 2646 480 
Q 2912 589 3104 813 
L 3360 518 
Q 3136 250 2800 109 
Q 2464 -32 2061 -32 
z
" transform="scale(0.015625)"/>
       <path id="Montserrat-Regular-61" d="M 2739 0 
L 2739 742 
L 2720 864 
L 2720 2106 
Q 2720 2534 2480 2764 
Q 2240 2995 1766 2995 
Q 1440 2995 1145 2886 
Q 851 2778 646 2598 
L 442 2938 
Q 698 3155 1056 3273 
Q 1414 3392 1811 3392 
Q 2464 3392 2819 3069 
Q 3174 2746 3174 2086 
L 3174 0 
L 2739 0 
z
M 1581 -32 
Q 1203 -32 924 93 
Q 646 218 499 438 
Q 352 659 352 947 
Q 352 1210 477 1424 
Q 602 1638 886 1769 
Q 1171 1901 1651 1901 
L 2810 1901 
L 2810 1562 
L 1664 1562 
Q 1178 1562 989 1389 
Q 800 1216 800 960 
Q 800 672 1024 499 
Q 1248 326 1651 326 
Q 2035 326 2313 502 
Q 2592 678 2720 1011 
L 2822 698 
Q 2694 365 2377 166 
Q 2061 -32 1581 -32 
z
" transform="scale(0.015625)"/>
       <path id="Montserrat-Regular-72" d="M 634 0 
L 634 3360 
L 1069 3360 
L 1069 2445 
L 1024 2605 
Q 1165 2989 1497 3190 
Q 1830 3392 2323 3392 
L 2323 2950 
Q 2298 2950 2272 2953 
Q 2246 2957 2221 2957 
Q 1690 2957 1389 2633 
Q 1088 2310 1088 1715 
L 1088 0 
L 634 0 
z
" transform="scale(0.015625)"/>
      </defs>
      <use xlink:href="#Montserrat-Regular-79"/>
      <use xlink:href="#Montserrat-Regular-65" x="54.199997"/>
      <use xlink:href="#Montserrat-Regular-61" x="114.599991"/>
      <use xlink:href="#Montserrat-Regular-72" x="173.599976"/>
     </g>
    </g>
   </g>
   <g id="matplotlib.axis_2">
    <g id="ytick_1">
     <g id="line2d_11">
      <defs>
       <path id="m6d0fd10e04" d="M 0 0 
L -3.5 0 
" style="stroke: #000000; stroke-width: 0.8"/>
      </defs>
      <g>
       <use xlink:href="#m6d0fd10e04" x="39.760938" y="146.348053" style="stroke: #000000; stroke-width: 0.8"/>
      </g>
     </g>
     <g id="text_7">
      <!-- 0 -->
      <g transform="translate(27.240625 150.058209)scale(0.1 -0.1)">
       <use xlink:href="#Montserrat-Regular-30"/>
      </g>
     </g>
    </g>
    <g id="ytick_2">
     <g id="line2d_12">
      <g>
       <use xlink:href="#m6d0fd10e04" x="39.760938" y="119.821737" style="stroke: #000000; stroke-width: 0.8"/>
      </g>
     </g>
     <g id="text_8">
      <!-- 10 -->
      <g transform="translate(23.63125 123.531893)scale(0.1 -0.1)">
       <use xlink:href="#Montserrat-Regular-31"/>
       <use xlink:href="#Montserrat-Regular-30" x="36.099991"/>
      </g>
     </g>
    </g>
    <g id="ytick_3">
     <g id="line2d_13">
      <g>
       <use xlink:href="#m6d0fd10e04" x="39.760938" y="93.295421" style="stroke: #000000; stroke-width: 0.8"/>
      </g>
     </g>
     <g id="text_9">
      <!-- 20 -->
      <g transform="translate(21.560938 97.005577)scale(0.1 -0.1)">
       <use xlink:href="#Montserrat-Regular-32"/>
       <use xlink:href="#Montserrat-Regular-30" x="56.799988"/>
      </g>
     </g>
    </g>
    <g id="ytick_4">
     <g id="line2d_14">
      <g>
       <use xlink:href="#m6d0fd10e04" x="39.760938" y="66.769105" style="stroke: #000000; stroke-width: 0.8"/>
      </g>
     </g>
     <g id="text_10">
      <!-- 30 -->
      <g transform="translate(21.6 70.479262)scale(0.1 -0.1)">
       <defs>
        <path id="Montserrat-Regular-33" d="M 1670 -38 
Q 1184 -38 752 118 
Q 320 275 58 538 
L 282 902 
Q 499 678 867 531 
Q 1235 384 1670 384 
Q 2227 384 2524 627 
Q 2822 870 2822 1280 
Q 2822 1690 2531 1933 
Q 2240 2176 1613 2176 
L 1293 2176 
L 1293 2515 
L 2675 4250 
L 2739 4070 
L 243 4070 
L 243 4480 
L 3123 4480 
L 3123 4154 
L 1741 2419 
L 1517 2566 
L 1690 2566 
Q 2496 2566 2896 2208 
Q 3296 1850 3296 1286 
Q 3296 909 3117 608 
Q 2938 307 2576 134 
Q 2214 -38 1670 -38 
z
" transform="scale(0.015625)"/>
       </defs>
       <use xlink:href="#Montserrat-Regular-33"/>
       <use xlink:href="#Montserrat-Regular-30" x="56.399994"/>
      </g>
     </g>
    </g>
    <g id="ytick_5">
     <g id="line2d_15">
      <defs>
       <path id="m4ce965e286" d="M 0 0 
L -2 0 
" style="stroke: #000000; stroke-width: 0.6"/>
      </defs>
      <g>
       <use xlink:href="#m4ce965e286" x="39.760938" y="133.084895" style="stroke: #000000; stroke-width: 0.6"/>
      </g>
     </g>
    </g>
    <g id="ytick_6">
     <g id="line2d_16">
      <g>
       <use xlink:href="#m4ce965e286" x="39.760938" y="106.558579" style="stroke: #000000; stroke-width: 0.6"/>
      </g>
     </g>
    </g>
    <g id="ytick_7">
     <g id="line2d_17">
      <g>
       <use xlink:href="#m4ce965e286" x="39.760938" y="80.032263" style="stroke: #000000; stroke-width: 0.6"/>
      </g>
     </g>
    </g>
    <g id="ytick_8">
     <g id="line2d_18">
      <g>
       <use xlink:href="#m4ce965e286" x="39.760938" y="53.505948" style="stroke: #000000; stroke-width: 0.6"/>
      </g>
     </g>
    </g>
    <g id="text_11">
     <!-- medals -->
     <g transform="translate(14.620313 113.678053)rotate(-90)scale(0.1 -0.1)">
      <defs>
       <path id="Montserrat-Regular-6d" d="M 4832 3392 
Q 5242 3392 5546 3235 
Q 5850 3078 6019 2758 
Q 6189 2438 6189 1952 
L 6189 0 
L 5734 0 
L 5734 1907 
Q 5734 2438 5481 2710 
Q 5229 2982 4768 2982 
Q 4422 2982 4169 2838 
Q 3917 2694 3779 2422 
Q 3642 2150 3642 1766 
L 3642 0 
L 3187 0 
L 3187 1907 
Q 3187 2438 2931 2710 
Q 2675 2982 2214 2982 
Q 1875 2982 1619 2838 
Q 1363 2694 1225 2422 
Q 1088 2150 1088 1766 
L 1088 0 
L 634 0 
L 634 3360 
L 1069 3360 
L 1069 2451 
L 998 2611 
Q 1152 2976 1494 3184 
Q 1837 3392 2304 3392 
Q 2797 3392 3142 3145 
Q 3488 2899 3590 2406 
L 3411 2477 
Q 3558 2886 3932 3139 
Q 4307 3392 4832 3392 
z
" transform="scale(0.015625)"/>
       <path id="Montserrat-Regular-64" d="M 1971 -32 
Q 1491 -32 1110 185 
Q 730 403 512 790 
Q 294 1178 294 1683 
Q 294 2195 512 2579 
Q 730 2963 1110 3177 
Q 1491 3392 1971 3392 
Q 2413 3392 2761 3193 
Q 3110 2995 3318 2614 
Q 3526 2234 3526 1683 
Q 3526 1139 3321 755 
Q 3117 371 2768 169 
Q 2419 -32 1971 -32 
z
M 2003 371 
Q 2362 371 2646 534 
Q 2931 698 3094 995 
Q 3258 1293 3258 1683 
Q 3258 2080 3094 2374 
Q 2931 2669 2646 2832 
Q 2362 2995 2003 2995 
Q 1651 2995 1369 2832 
Q 1088 2669 921 2374 
Q 755 2080 755 1683 
Q 755 1293 921 995 
Q 1088 698 1369 534 
Q 1651 371 2003 371 
z
M 3270 0 
L 3270 1011 
L 3315 1690 
L 3251 2368 
L 3251 4749 
L 3706 4749 
L 3706 0 
L 3270 0 
z
" transform="scale(0.015625)"/>
       <path id="Montserrat-Regular-6c" d="M 634 0 
L 634 4749 
L 1088 4749 
L 1088 0 
L 634 0 
z
" transform="scale(0.015625)"/>
       <path id="Montserrat-Regular-73" d="M 1536 -32 
Q 1120 -32 749 86 
Q 378 205 166 384 
L 371 742 
Q 576 589 896 477 
Q 1216 365 1568 365 
Q 2048 365 2259 515 
Q 2470 666 2470 915 
Q 2470 1101 2352 1206 
Q 2234 1312 2042 1366 
Q 1850 1421 1613 1459 
Q 1376 1498 1142 1549 
Q 909 1600 717 1699 
Q 525 1798 406 1971 
Q 288 2144 288 2432 
Q 288 2707 441 2924 
Q 595 3142 892 3267 
Q 1190 3392 1619 3392 
Q 1946 3392 2272 3305 
Q 2598 3219 2810 3078 
L 2611 2714 
Q 2387 2867 2131 2934 
Q 1875 3002 1619 3002 
Q 1165 3002 950 2845 
Q 736 2688 736 2445 
Q 736 2253 854 2144 
Q 973 2035 1168 1974 
Q 1363 1914 1596 1875 
Q 1830 1837 2064 1782 
Q 2298 1728 2493 1635 
Q 2688 1542 2806 1372 
Q 2925 1203 2925 928 
Q 2925 634 2761 419 
Q 2598 205 2288 86 
Q 1978 -32 1536 -32 
z
" transform="scale(0.015625)"/>
      </defs>
      <use xlink:href="#Montserrat-Regular-6d"/>
      <use xlink:href="#Montserrat-Regular-65" x="106.099991"/>
      <use xlink:href="#Montserrat-Regular-64" x="166.499985"/>
      <use xlink:href="#Montserrat-Regular-61" x="234.299973"/>
      <use xlink:href="#Montserrat-Regular-6c" x="293.299957"/>
      <use xlink:href="#Montserrat-Regular-73" x="320.199951"/>
     </g>
    </g>
   </g>
   <g id="PathCollection_1">
    <path d="M 101.932778 104.570618 
C 102.10905 104.570618 102.278127 104.500584 102.402771 104.37594 
C 102.527414 104.251297 102.597448 104.08222 102.597448 103.905948 
C 102.597448 103.729675 102.527414 103.560598 102.402771 103.435955 
C 102.278127 103.311311 102.10905 103.241277 101.932778 103.241277 
C 101.756505 103.241277 101.587429 103.311311 101.462785 103.435955 
C 101.338142 103.560598 101.268108 103.729675 101.268108 103.905948 
C 101.268108 104.08222 101.338142 104.251297 101.462785 104.37594 
C 101.587429 104.500584 101.756505 104.570618 101.932778 104.570618 
z
" clip-path="url(#p004fb869bf)" style="fill-opacity: 0.501961; stroke: #000000; stroke-opacity: 0.501961; stroke-width: 0.886227"/>
    <path d="M 114.305283 91.30746 
C 114.481556 91.30746 114.650633 91.237426 114.775276 91.112782 
C 114.89992 90.988139 114.969954 90.819062 114.969954 90.64279 
C 114.969954 90.466517 114.89992 90.29744 114.775276 90.172797 
C 114.650633 90.048153 114.481556 89.978119 114.305283 89.978119 
C 114.129011 89.978119 113.959934 90.048153 113.835291 90.172797 
C 113.710647 90.29744 113.640613 90.466517 113.640613 90.64279 
C 113.640613 90.819062 113.710647 90.988139 113.835291 91.112782 
C 113.959934 91.237426 114.129011 91.30746 114.305283 91.30746 
z
" clip-path="url(#p004fb869bf)" style="fill-opacity: 0.501961; stroke: #000000; stroke-opacity: 0.501961; stroke-width: 0.886227"/>
    <path d="M 126.677789 78.044302 
C 126.854062 78.044302 127.023138 77.974268 127.147782 77.849625 
C 127.272425 77.724981 127.342459 77.555904 127.342459 77.379632 
C 127.342459 77.203359 127.272425 77.034283 127.147782 76.909639 
C 127.023138 76.784995 126.854062 76.714962 126.677789 76.714962 
C 126.501516 76.714962 126.33244 76.784995 126.207796 76.909639 
C 126.083153 77.034283 126.013119 77.203359 126.013119 77.379632 
C 126.013119 77.555904 126.083153 77.724981 126.207796 77.849625 
C 126.33244 77.974268 126.501516 78.044302 126.677789 78.044302 
z
" clip-path="url(#p004fb869bf)" style="fill-opacity: 0.501961; stroke: #000000; stroke-opacity: 0.501961; stroke-width: 0.886227"/>
    <path d="M 139.050294 107.223249 
C 139.226567 107.223249 139.395644 107.153215 139.520287 107.028572 
C 139.644931 106.903928 139.714965 106.734852 139.714965 106.558579 
C 139.714965 106.382307 139.644931 106.21323 139.520287 106.088586 
C 139.395644 105.963943 139.226567 105.893909 139.050294 105.893909 
C 138.874022 105.893909 138.704945 105.963943 138.580302 106.088586 
C 138.455658 106.21323 138.385624 106.382307 138.385624 106.558579 
C 138.385624 106.734852 138.455658 106.903928 138.580302 107.028572 
C 138.704945 107.153215 138.874022 107.223249 139.050294 107.223249 
z
" clip-path="url(#p004fb869bf)" style="fill-opacity: 0.501961; stroke: #000000; stroke-opacity: 0.501961; stroke-width: 0.886227"/>
    <path d="M 151.4228 99.265355 
C 151.599073 99.265355 151.768149 99.195321 151.892793 99.070677 
C 152.017436 98.946034 152.08747 98.776957 152.08747 98.600684 
C 152.08747 98.424412 152.017436 98.255335 151.892793 98.130692 
C 151.768149 98.006048 151.599073 97.936014 151.4228 97.936014 
C 151.246527 97.936014 151.077451 98.006048 150.952807 98.130692 
C 150.828164 98.255335 150.75813 98.424412 150.75813 98.600684 
C 150.75813 98.776957 150.828164 98.946034 150.952807 99.070677 
C 151.077451 99.195321 151.246527 99.265355 151.4228 99.265355 
z
" clip-path="url(#p004fb869bf)" style="fill-opacity: 0.501961; stroke: #000000; stroke-opacity: 0.501961; stroke-width: 0.886227"/>
    <path d="M 163.795306 67.433776 
C 163.971578 67.433776 164.140655 67.363742 164.265298 67.239098 
C 164.389942 67.114455 164.459976 66.945378 164.459976 66.769105 
C 164.459976 66.592833 164.389942 66.423756 164.265298 66.299113 
C 164.140655 66.174469 163.971578 66.104435 163.795306 66.104435 
C 163.619033 66.104435 163.449956 66.174469 163.325313 66.299113 
C 163.200669 66.423756 163.130635 66.592833 163.130635 66.769105 
C 163.130635 66.945378 163.200669 67.114455 163.325313 67.239098 
C 163.449956 67.363742 163.619033 67.433776 163.795306 67.433776 
z
" clip-path="url(#p004fb869bf)" style="fill-opacity: 0.501961; stroke: #000000; stroke-opacity: 0.501961; stroke-width: 0.886227"/>
    <path d="M 176.167811 78.044302 
C 176.344084 78.044302 176.51316 77.974268 176.637804 77.849625 
C 176.762447 77.724981 176.832481 77.555904 176.832481 77.379632 
C 176.832481 77.203359 176.762447 77.034283 176.637804 76.909639 
C 176.51316 76.784995 176.344084 76.714962 176.167811 76.714962 
C 175.991539 76.714962 175.822462 76.784995 175.697818 76.909639 
C 175.573175 77.034283 175.503141 77.203359 175.503141 77.379632 
C 175.503141 77.555904 175.573175 77.724981 175.697818 77.849625 
C 175.822462 77.974268 175.991539 78.044302 176.167811 78.044302 
z
" clip-path="url(#p004fb869bf)" style="fill-opacity: 0.501961; stroke: #000000; stroke-opacity: 0.501961; stroke-width: 0.886227"/>
    <path d="M 200.912822 56.823249 
C 201.089095 56.823249 201.258171 56.753215 201.382815 56.628572 
C 201.507459 56.503928 201.577492 56.334852 201.577492 56.158579 
C 201.577492 55.982307 201.507459 55.81323 201.382815 55.688586 
C 201.258171 55.563943 201.089095 55.493909 200.912822 55.493909 
C 200.73655 55.493909 200.567473 55.563943 200.442829 55.688586 
C 200.318186 55.81323 200.248152 55.982307 200.248152 56.158579 
C 200.248152 56.334852 200.318186 56.503928 200.442829 56.628572 
C 200.567473 56.753215 200.73655 56.823249 200.912822 56.823249 
z
" clip-path="url(#p004fb869bf)" style="fill-opacity: 0.501961; stroke: #000000; stroke-opacity: 0.501961; stroke-width: 0.886227"/>
    <path d="M 219.471581 75.39167 
C 219.647853 75.39167 219.81693 75.321637 219.941573 75.196993 
C 220.066217 75.072349 220.136251 74.903273 220.136251 74.727 
C 220.136251 74.550728 220.066217 74.381651 219.941573 74.257007 
C 219.81693 74.132364 219.647853 74.06233 219.471581 74.06233 
C 219.295308 74.06233 219.126231 74.132364 219.001588 74.257007 
C 218.876944 74.381651 218.80691 74.550728 218.80691 74.727 
C 218.80691 74.903273 218.876944 75.072349 219.001588 75.196993 
C 219.126231 75.321637 219.295308 75.39167 219.471581 75.39167 
z
" clip-path="url(#p004fb869bf)" style="fill-opacity: 0.501961; stroke: #000000; stroke-opacity: 0.501961; stroke-width: 0.886227"/>
    <path d="M 231.844086 88.654828 
C 232.020359 88.654828 232.189435 88.584794 232.314079 88.460151 
C 232.438722 88.335507 232.508756 88.166431 232.508756 87.990158 
C 232.508756 87.813885 232.438722 87.644809 232.314079 87.520165 
C 232.189435 87.395522 232.020359 87.325488 231.844086 87.325488 
C 231.667813 87.325488 231.498737 87.395522 231.374093 87.520165 
C 231.24945 87.644809 231.179416 87.813885 231.179416 87.990158 
C 231.179416 88.166431 231.24945 88.335507 231.374093 88.460151 
C 231.498737 88.584794 231.667813 88.654828 231.844086 88.654828 
z
" clip-path="url(#p004fb869bf)" style="fill-opacity: 0.501961; stroke: #000000; stroke-opacity: 0.501961; stroke-width: 0.886227"/>
    <path d="M 244.216592 107.223249 
C 244.392864 107.223249 244.561941 107.153215 244.686584 107.028572 
C 244.811228 106.903928 244.881262 106.734852 244.881262 106.558579 
C 244.881262 106.382307 244.811228 106.21323 244.686584 106.088586 
C 244.561941 105.963943 244.392864 105.893909 244.216592 105.893909 
C 244.040319 105.893909 243.871242 105.963943 243.746599 106.088586 
C 243.621955 106.21323 243.551921 106.382307 243.551921 106.558579 
C 243.551921 106.734852 243.621955 106.903928 243.746599 107.028572 
C 243.871242 107.153215 244.040319 107.223249 244.216592 107.223249 
z
" clip-path="url(#p004fb869bf)" style="fill-opacity: 0.501961; stroke: #000000; stroke-opacity: 0.501961; stroke-width: 0.886227"/>
    <path d="M 256.589097 80.696934 
C 256.76537 80.696934 256.934446 80.6269 257.05909 80.502256 
C 257.183733 80.377613 257.253767 80.208536 257.253767 80.032263 
C 257.253767 79.855991 257.183733 79.686914 257.05909 79.562271 
C 256.934446 79.437627 256.76537 79.367593 256.589097 79.367593 
C 256.412825 79.367593 256.243748 79.437627 256.119104 79.562271 
C 255.994461 79.686914 255.924427 79.855991 255.924427 80.032263 
C 255.924427 80.208536 255.994461 80.377613 256.119104 80.502256 
C 256.243748 80.6269 256.412825 80.696934 256.589097 80.696934 
z
" clip-path="url(#p004fb869bf)" style="fill-opacity: 0.501961; stroke: #000000; stroke-opacity: 0.501961; stroke-width: 0.886227"/>
    <path d="M 268.961603 96.612723 
C 269.137875 96.612723 269.306952 96.542689 269.431595 96.418046 
C 269.556239 96.293402 269.626273 96.124325 269.626273 95.948053 
C 269.626273 95.77178 269.556239 95.602704 269.431595 95.47806 
C 269.306952 95.353416 269.137875 95.283383 268.961603 95.283383 
C 268.78533 95.283383 268.616253 95.353416 268.49161 95.47806 
C 268.366966 95.602704 268.296932 95.77178 268.296932 95.948053 
C 268.296932 96.124325 268.366966 96.293402 268.49161 96.418046 
C 268.616253 96.542689 268.78533 96.612723 268.961603 96.612723 
z
" clip-path="url(#p004fb869bf)" style="fill-opacity: 0.501961; stroke: #000000; stroke-opacity: 0.501961; stroke-width: 0.886227"/>
    <path d="M 281.334108 59.475881 
C 281.510381 59.475881 281.679457 59.405847 281.804101 59.281204 
C 281.928745 59.15656 281.998778 58.987483 281.998778 58.811211 
C 281.998778 58.634938 281.928745 58.465861 281.804101 58.341218 
C 281.679457 58.216574 281.510381 58.146541 281.334108 58.146541 
C 281.157836 58.146541 280.988759 58.216574 280.864115 58.341218 
C 280.739472 58.465861 280.669438 58.634938 280.669438 58.811211 
C 280.669438 58.987483 280.739472 59.15656 280.864115 59.281204 
C 280.988759 59.405847 281.157836 59.475881 281.334108 59.475881 
z
" clip-path="url(#p004fb869bf)" style="fill-opacity: 0.501961; stroke: #000000; stroke-opacity: 0.501961; stroke-width: 0.886227"/>
    <path d="M 293.706614 99.265355 
C 293.882886 99.265355 294.051963 99.195321 294.176607 99.070677 
C 294.30125 98.946034 294.371284 98.776957 294.371284 98.600684 
C 294.371284 98.424412 294.30125 98.255335 294.176607 98.130692 
C 294.051963 98.006048 293.882886 97.936014 293.706614 97.936014 
C 293.530341 97.936014 293.361265 98.006048 293.236621 98.130692 
C 293.111977 98.255335 293.041944 98.424412 293.041944 98.600684 
C 293.041944 98.776957 293.111977 98.946034 293.236621 99.070677 
C 293.361265 99.195321 293.530341 99.265355 293.706614 99.265355 
z
" clip-path="url(#p004fb869bf)" style="fill-opacity: 0.501961; stroke: #000000; stroke-opacity: 0.501961; stroke-width: 0.886227"/>
    <path d="M 306.079119 46.212723 
C 306.255392 46.212723 306.424469 46.142689 306.549112 46.018046 
C 306.673756 45.893402 306.74379 45.724325 306.74379 45.548053 
C 306.74379 45.37178 306.673756 45.202704 306.549112 45.07806 
C 306.424469 44.953416 306.255392 44.883383 306.079119 44.883383 
C 305.902847 44.883383 305.73377 44.953416 305.609127 45.07806 
C 305.484483 45.202704 305.414449 45.37178 305.414449 45.548053 
C 305.414449 45.724325 305.484483 45.893402 305.609127 46.018046 
C 305.73377 46.142689 305.902847 46.212723 306.079119 46.212723 
z
" clip-path="url(#p004fb869bf)" style="fill-opacity: 0.501961; stroke: #000000; stroke-opacity: 0.501961; stroke-width: 0.886227"/>
   </g>
   <g id="patch_3">
    <path d="M 39.760938 40.508053 
L 318.760938 40.508053 
L 318.760938 24.508053 
L 39.760938 24.508053 
z
" style="fill: #d9d9d9; stroke: #d9d9d9; stroke-linejoin: miter"/>
   </g>
   <g id="PathCollection_2">
    <defs>
     <path id="mbfa8f4464f" d="M -2.215567 0 
L 2.215567 0 
M 0 2.215567 
L 0 -2.215567 
" style="stroke: #ff0000; stroke-width: 0.886227"/>
    </defs>
    <g clip-path="url(#p004fb869bf)">
     <use xlink:href="#mbfa8f4464f" x="281.334108" y="58.811211" style="fill: #ff0000; stroke: #ff0000; stroke-width: 0.886227"/>
    </g>
   </g>
   <g id="text_12">
    <!-- USSR+Russia -->
    <g transform="translate(146.510938 35.247897)scale(0.1 -0.1)">
     <defs>
      <path id="Montserrat-Regular-55" d="M 2534 -38 
Q 1677 -38 1184 454 
Q 691 947 691 1914 
L 691 4480 
L 1165 4480 
L 1165 1933 
Q 1165 1139 1523 761 
Q 1882 384 2534 384 
Q 3194 384 3552 761 
Q 3910 1139 3910 1933 
L 3910 4480 
L 4371 4480 
L 4371 1914 
Q 4371 947 3881 454 
Q 3392 -38 2534 -38 
z
" transform="scale(0.015625)"/>
      <path id="Montserrat-Regular-53" d="M 1965 -38 
Q 1466 -38 1008 125 
Q 550 288 301 544 
L 486 909 
Q 723 678 1123 521 
Q 1523 365 1965 365 
Q 2387 365 2652 470 
Q 2918 576 3043 755 
Q 3168 934 3168 1152 
Q 3168 1414 3017 1574 
Q 2867 1734 2624 1827 
Q 2381 1920 2086 1990 
Q 1792 2061 1497 2141 
Q 1203 2221 956 2355 
Q 710 2490 560 2710 
Q 410 2931 410 3290 
Q 410 3622 586 3900 
Q 762 4179 1126 4348 
Q 1491 4518 2061 4518 
Q 2438 4518 2809 4412 
Q 3181 4307 3450 4122 
L 3290 3744 
Q 3002 3936 2678 4025 
Q 2355 4115 2054 4115 
Q 1651 4115 1388 4006 
Q 1126 3898 1001 3715 
Q 877 3533 877 3302 
Q 877 3040 1027 2880 
Q 1178 2720 1424 2630 
Q 1670 2541 1964 2470 
Q 2259 2400 2550 2317 
Q 2842 2234 3088 2102 
Q 3334 1971 3484 1753 
Q 3635 1536 3635 1184 
Q 3635 858 3456 579 
Q 3277 301 2909 131 
Q 2541 -38 1965 -38 
z
" transform="scale(0.015625)"/>
      <path id="Montserrat-Regular-52" d="M 730 0 
L 730 4480 
L 2406 4480 
Q 2976 4480 3385 4297 
Q 3795 4115 4016 3772 
Q 4237 3430 4237 2944 
Q 4237 2470 4016 2128 
Q 3795 1786 3385 1603 
Q 2976 1421 2406 1421 
L 992 1421 
L 1203 1638 
L 1203 0 
L 730 0 
z
M 3789 0 
L 2637 1626 
L 3149 1626 
L 4307 0 
L 3789 0 
z
M 1203 1600 
L 992 1824 
L 2394 1824 
Q 3066 1824 3414 2118 
Q 3763 2413 3763 2944 
Q 3763 3482 3414 3776 
Q 3066 4070 2394 4070 
L 992 4070 
L 1203 4294 
L 1203 1600 
z
" transform="scale(0.015625)"/>
      <path id="Montserrat-Regular-2b" d="M 1638 883 
L 1638 3597 
L 2042 3597 
L 2042 883 
L 1638 883 
z
M 448 2048 
L 448 2426 
L 3232 2426 
L 3232 2048 
L 448 2048 
z
" transform="scale(0.015625)"/>
      <path id="Montserrat-Regular-75" d="M 2022 -32 
Q 1594 -32 1274 128 
Q 954 288 778 608 
Q 602 928 602 1408 
L 602 3360 
L 1056 3360 
L 1056 1459 
Q 1056 922 1321 650 
Q 1587 378 2067 378 
Q 2419 378 2678 522 
Q 2938 666 3075 941 
Q 3213 1216 3213 1600 
L 3213 3360 
L 3667 3360 
L 3667 0 
L 3232 0 
L 3232 922 
L 3302 755 
Q 3142 384 2806 176 
Q 2470 -32 2022 -32 
z
" transform="scale(0.015625)"/>
      <path id="Montserrat-Regular-69" d="M 634 0 
L 634 3360 
L 1088 3360 
L 1088 0 
L 634 0 
z
M 864 4102 
Q 723 4102 627 4198 
Q 531 4294 531 4429 
Q 531 4563 627 4656 
Q 723 4749 864 4749 
Q 1005 4749 1101 4659 
Q 1197 4570 1197 4435 
Q 1197 4294 1104 4198 
Q 1011 4102 864 4102 
z
" transform="scale(0.015625)"/>
     </defs>
     <use xlink:href="#Montserrat-Regular-55"/>
     <use xlink:href="#Montserrat-Regular-53" x="79.199982"/>
     <use xlink:href="#Montserrat-Regular-53" x="140.699966"/>
     <use xlink:href="#Montserrat-Regular-52" x="202.199951"/>
     <use xlink:href="#Montserrat-Regular-2b" x="274.499939"/>
     <use xlink:href="#Montserrat-Regular-52" x="331.999924"/>
     <use xlink:href="#Montserrat-Regular-75" x="404.299911"/>
     <use xlink:href="#Montserrat-Regular-73" x="471.499908"/>
     <use xlink:href="#Montserrat-Regular-73" x="520.299896"/>
     <use xlink:href="#Montserrat-Regular-69" x="569.099884"/>
     <use xlink:href="#Montserrat-Regular-61" x="595.999878"/>
    </g>
   </g>
  </g>
  <g id="text_13">
   <!-- Medals for USSR+Russia at Winter Olympics -->
   <g transform="translate(64.845313 14.670312)scale(0.1 -0.1)">
    <defs>
     <path id="Montserrat-Regular-4d" d="M 730 0 
L 730 4480 
L 1120 4480 
L 3168 986 
L 2963 986 
L 4992 4480 
L 5382 4480 
L 5382 0 
L 4928 0 
L 4928 3770 
L 5037 3770 
L 3168 570 
L 2944 570 
L 1062 3770 
L 1184 3770 
L 1184 0 
L 730 0 
z
" transform="scale(0.015625)"/>
     <path id="Montserrat-Regular-20" transform="scale(0.015625)"/>
     <path id="Montserrat-Regular-66" d="M 710 0 
L 710 3782 
Q 710 4230 972 4505 
Q 1235 4781 1728 4781 
Q 1920 4781 2099 4729 
Q 2278 4678 2400 4570 
L 2246 4230 
Q 2150 4314 2022 4355 
Q 1894 4397 1747 4397 
Q 1459 4397 1305 4237 
Q 1152 4077 1152 3763 
L 1152 3251 
L 1165 3040 
L 1165 0 
L 710 0 
z
M 109 2982 
L 109 3360 
L 2189 3360 
L 2189 2982 
L 109 2982 
z
" transform="scale(0.015625)"/>
     <path id="Montserrat-Regular-6f" d="M 2003 -32 
Q 1517 -32 1129 189 
Q 742 410 518 797 
Q 294 1184 294 1683 
Q 294 2189 518 2573 
Q 742 2957 1126 3174 
Q 1510 3392 2003 3392 
Q 2502 3392 2889 3174 
Q 3277 2957 3497 2573 
Q 3718 2189 3718 1683 
Q 3718 1184 3497 797 
Q 3277 410 2886 189 
Q 2496 -32 2003 -32 
z
M 2003 371 
Q 2368 371 2649 534 
Q 2931 698 3094 995 
Q 3258 1293 3258 1683 
Q 3258 2080 3094 2374 
Q 2931 2669 2649 2832 
Q 2368 2995 2010 2995 
Q 1651 2995 1369 2832 
Q 1088 2669 921 2374 
Q 755 2080 755 1683 
Q 755 1293 921 995 
Q 1088 698 1369 534 
Q 1651 371 2003 371 
z
" transform="scale(0.015625)"/>
     <path id="Montserrat-Regular-74" d="M 1696 -32 
Q 1222 -32 966 224 
Q 710 480 710 947 
L 710 4102 
L 1165 4102 
L 1165 973 
Q 1165 678 1315 518 
Q 1466 358 1747 358 
Q 2048 358 2246 531 
L 2406 205 
Q 2272 83 2083 25 
Q 1894 -32 1696 -32 
z
M 109 2982 
L 109 3360 
L 2189 3360 
L 2189 2982 
L 109 2982 
z
" transform="scale(0.015625)"/>
     <path id="Montserrat-Regular-57" d="M 1747 0 
L 237 4480 
L 723 4480 
L 2138 262 
L 1894 262 
L 3354 4480 
L 3789 4480 
L 5229 262 
L 4998 262 
L 6426 4480 
L 6880 4480 
L 5370 0 
L 4870 0 
L 3494 4000 
L 3622 4000 
L 2240 0 
L 1747 0 
z
" transform="scale(0.015625)"/>
     <path id="Montserrat-Regular-6e" d="M 2349 3392 
Q 2758 3392 3068 3235 
Q 3379 3078 3555 2758 
Q 3731 2438 3731 1952 
L 3731 0 
L 3277 0 
L 3277 1907 
Q 3277 2438 3011 2710 
Q 2746 2982 2266 2982 
Q 1907 2982 1641 2838 
Q 1376 2694 1232 2422 
Q 1088 2150 1088 1766 
L 1088 0 
L 634 0 
L 634 3360 
L 1069 3360 
L 1069 2438 
L 998 2611 
Q 1158 2976 1510 3184 
Q 1862 3392 2349 3392 
z
" transform="scale(0.015625)"/>
     <path id="Montserrat-Regular-4f" d="M 2688 -38 
Q 2182 -38 1750 131 
Q 1318 301 1001 611 
Q 685 922 509 1334 
Q 333 1747 333 2240 
Q 333 2733 509 3145 
Q 685 3558 1001 3868 
Q 1318 4179 1747 4348 
Q 2176 4518 2688 4518 
Q 3194 4518 3622 4348 
Q 4051 4179 4368 3872 
Q 4685 3565 4861 3149 
Q 5037 2733 5037 2240 
Q 5037 1747 4861 1331 
Q 4685 915 4368 608 
Q 4051 301 3622 131 
Q 3194 -38 2688 -38 
z
M 2688 384 
Q 3091 384 3433 521 
Q 3776 659 4029 912 
Q 4282 1165 4422 1501 
Q 4563 1837 4563 2240 
Q 4563 2643 4422 2979 
Q 4282 3315 4029 3568 
Q 3776 3821 3433 3958 
Q 3091 4096 2688 4096 
Q 2285 4096 1939 3958 
Q 1594 3821 1341 3568 
Q 1088 3315 944 2979 
Q 800 2643 800 2240 
Q 800 1843 944 1504 
Q 1088 1165 1341 912 
Q 1594 659 1939 521 
Q 2285 384 2688 384 
z
" transform="scale(0.015625)"/>
     <path id="Montserrat-Regular-70" d="M 2368 -32 
Q 1933 -32 1581 169 
Q 1229 371 1021 752 
Q 813 1133 813 1683 
Q 813 2234 1017 2614 
Q 1222 2995 1574 3193 
Q 1926 3392 2368 3392 
Q 2848 3392 3229 3177 
Q 3610 2963 3827 2576 
Q 4045 2189 4045 1683 
Q 4045 1171 3827 787 
Q 3610 403 3229 185 
Q 2848 -32 2368 -32 
z
M 634 -1242 
L 634 3360 
L 1069 3360 
L 1069 2349 
L 1024 1677 
L 1088 998 
L 1088 -1242 
L 634 -1242 
z
M 2336 371 
Q 2694 371 2976 534 
Q 3258 698 3424 995 
Q 3590 1293 3590 1683 
Q 3590 2074 3424 2368 
Q 3258 2662 2976 2828 
Q 2694 2995 2336 2995 
Q 1978 2995 1693 2828 
Q 1408 2662 1245 2368 
Q 1082 2074 1082 1683 
Q 1082 1293 1245 995 
Q 1408 698 1693 534 
Q 1978 371 2336 371 
z
" transform="scale(0.015625)"/>
     <path id="Montserrat-Regular-63" d="M 2029 -32 
Q 1530 -32 1136 189 
Q 742 410 518 797 
Q 294 1184 294 1683 
Q 294 2189 518 2573 
Q 742 2957 1136 3174 
Q 1530 3392 2029 3392 
Q 2458 3392 2803 3225 
Q 3149 3059 3347 2726 
L 3008 2496 
Q 2835 2752 2579 2873 
Q 2323 2995 2022 2995 
Q 1664 2995 1376 2832 
Q 1088 2669 921 2374 
Q 755 2080 755 1683 
Q 755 1286 921 992 
Q 1088 698 1376 534 
Q 1664 371 2022 371 
Q 2323 371 2579 492 
Q 2835 614 3008 864 
L 3347 634 
Q 3149 307 2803 137 
Q 2458 -32 2029 -32 
z
" transform="scale(0.015625)"/>
    </defs>
    <use xlink:href="#Montserrat-Regular-4d"/>
    <use xlink:href="#Montserrat-Regular-65" x="95.499985"/>
    <use xlink:href="#Montserrat-Regular-64" x="155.899979"/>
    <use xlink:href="#Montserrat-Regular-61" x="223.699966"/>
    <use xlink:href="#Montserrat-Regular-6c" x="282.699951"/>
    <use xlink:href="#Montserrat-Regular-73" x="309.599945"/>
    <use xlink:href="#Montserrat-Regular-20" x="358.399933"/>
    <use xlink:href="#Montserrat-Regular-66" x="384.59993"/>
    <use xlink:href="#Montserrat-Regular-6f" x="418.499924"/>
    <use xlink:href="#Montserrat-Regular-72" x="481.199921"/>
    <use xlink:href="#Montserrat-Regular-20" x="521.299911"/>
    <use xlink:href="#Montserrat-Regular-55" x="547.499908"/>
    <use xlink:href="#Montserrat-Regular-53" x="626.69989"/>
    <use xlink:href="#Montserrat-Regular-53" x="688.199875"/>
    <use xlink:href="#Montserrat-Regular-52" x="749.69986"/>
    <use xlink:href="#Montserrat-Regular-2b" x="821.999847"/>
    <use xlink:href="#Montserrat-Regular-52" x="879.499832"/>
    <use xlink:href="#Montserrat-Regular-75" x="951.79982"/>
    <use xlink:href="#Montserrat-Regular-73" x="1018.999817"/>
    <use xlink:href="#Montserrat-Regular-73" x="1067.799805"/>
    <use xlink:href="#Montserrat-Regular-69" x="1116.599792"/>
    <use xlink:href="#Montserrat-Regular-61" x="1143.499786"/>
    <use xlink:href="#Montserrat-Regular-20" x="1202.499771"/>
    <use xlink:href="#Montserrat-Regular-61" x="1228.699768"/>
    <use xlink:href="#Montserrat-Regular-74" x="1287.699753"/>
    <use xlink:href="#Montserrat-Regular-20" x="1328.299744"/>
    <use xlink:href="#Montserrat-Regular-57" x="1354.499741"/>
    <use xlink:href="#Montserrat-Regular-69" x="1465.599731"/>
    <use xlink:href="#Montserrat-Regular-6e" x="1492.499725"/>
    <use xlink:href="#Montserrat-Regular-74" x="1560.099716"/>
    <use xlink:href="#Montserrat-Regular-65" x="1600.699707"/>
    <use xlink:href="#Montserrat-Regular-72" x="1661.099701"/>
    <use xlink:href="#Montserrat-Regular-20" x="1701.199692"/>
    <use xlink:href="#Montserrat-Regular-4f" x="1727.399689"/>
    <use xlink:href="#Montserrat-Regular-6c" x="1811.299683"/>
    <use xlink:href="#Montserrat-Regular-79" x="1838.199677"/>
    <use xlink:href="#Montserrat-Regular-6d" x="1892.399673"/>
    <use xlink:href="#Montserrat-Regular-70" x="1998.499664"/>
    <use xlink:href="#Montserrat-Regular-69" x="2066.299652"/>
    <use xlink:href="#Montserrat-Regular-63" x="2093.199646"/>
    <use xlink:href="#Montserrat-Regular-73" x="2149.499634"/>
   </g>
  </g>
 </g>
 <defs>
  <clipPath id="p004fb869bf">
   <rect x="39.760938" y="40.508053" width="279" height="110.88"/>
  </clipPath>
 </defs>
</svg>
