<?xml version="1.0" encoding="utf-8" standalone="no"?>
<!DOCTYPE svg PUBLIC "-//W3C//DTD SVG 1.1//EN"
  "http://www.w3.org/Graphics/SVG/1.1/DTD/svg11.dtd">
<svg xmlns:xlink="http://www.w3.org/1999/xlink" width="326.890625pt" height="188.209928pt" viewBox="0 0 326.890625 188.209928" xmlns="http://www.w3.org/2000/svg" version="1.1">
 <metadata>
  <rdf:RDF xmlns:dc="http://purl.org/dc/elements/1.1/" xmlns:cc="http://creativecommons.org/ns#" xmlns:rdf="http://www.w3.org/1999/02/22-rdf-syntax-ns#">
   <cc:Work>
    <dc:type rdf:resource="http://purl.org/dc/dcmitype/StillImage"/>
    <dc:date>2024-08-08T08:27:51.577529</dc:date>
    <dc:format>image/svg+xml</dc:format>
    <dc:creator>
     <cc:Agent>
      <dc:title>Matplotlib v3.5.1, https://matplotlib.org/</dc:title>
     </cc:Agent>
    </dc:creator>
   </cc:Work>
  </rdf:RDF>
 </metadata>
 <defs>
  <style type="text/css">*{stroke-linejoin: round; stroke-linecap: butt}</style>
 </defs>
 <g id="figure_1">
  <g id="patch_1">
   <path d="M 0 188.209928 
L 326.890625 188.209928 
L 326.890625 0 
L 0 0 
z
" style="fill: #ffffff"/>
  </g>
  <g id="axes_1">
   <g id="patch_2">
    <path d="M 40.690625 151.388053 
L 319.690625 151.388053 
L 319.690625 40.508053 
L 40.690625 40.508053 
z
" style="fill: #ffffff"/>
   </g>
   <g id="line2d_1">
    <path d="M 78.117454 127.356748 
L 78.117454 127.356748 
L 90.48996 128.817618 
L 90.48996 128.817618 
L 102.862465 89.37414 
L 102.862465 89.37414 
L 115.234971 114.208922 
L 115.234971 114.208922 
L 127.607476 120.052401 
L 127.607476 120.052401 
L 139.979982 121.51327 
L 139.979982 121.51327 
L 152.352488 120.052401 
L 152.352488 120.052401 
L 164.724993 137.582835 
L 164.724993 137.582835 
L 177.097499 133.200227 
L 177.097499 133.200227 
L 189.470004 108.365444 
L 189.470004 108.365444 
L 201.84251 122.97414 
L 201.84251 122.97414 
L 214.215015 102.521966 
L 214.215015 102.521966 
L 226.587521 71.843705 
L 226.587521 71.843705 
L 238.960026 45.548053 
L 238.960026 45.548053 
L 251.332532 64.539357 
L 251.332532 64.539357 
L 263.705037 70.382835 
L 263.705037 70.382835 
L 276.077543 87.91327 
L 276.077543 87.91327 
L 288.450049 96.678488 
L 288.450049 96.678488 
L 300.822554 73.304575 
L 300.822554 73.304575 
" clip-path="url(#pc9c17504ce)" style="fill: none; stroke: #000000; stroke-width: 0.886227"/>
   </g>
   <g id="matplotlib.axis_1">
    <g id="xtick_1">
     <g id="line2d_2">
      <defs>
       <path id="m0e52e26112" d="M 0 0 
L 0 3.5 
" style="stroke: #000000; stroke-width: 0.8"/>
      </defs>
      <g>
       <use xlink:href="#m0e52e26112" x="53.372443" y="151.388053" style="stroke: #000000; stroke-width: 0.8"/>
      </g>
     </g>
     <g id="text_1">
      <!-- 1940 -->
      <g transform="translate(41.907599 164.708365)scale(0.1 -0.1)">
       <defs>
        <path id="Montserrat-Regular-31" d="M 1114 0 
L 1114 4288 
L 1318 4070 
L 58 4070 
L 58 4480 
L 1574 4480 
L 1574 0 
L 1114 0 
z
" transform="scale(0.015625)"/>
        <path id="Montserrat-Regular-39" d="M 1728 4518 
Q 2323 4518 2732 4252 
Q 3142 3987 3353 3488 
Q 3565 2989 3565 2278 
Q 3565 1523 3305 1004 
Q 3046 486 2585 224 
Q 2125 -38 1517 -38 
Q 1216 -38 944 19 
Q 672 77 454 205 
L 640 576 
Q 813 461 1040 413 
Q 1267 365 1510 365 
Q 2234 365 2666 825 
Q 3098 1286 3098 2202 
Q 3098 2349 3082 2553 
Q 3066 2758 3008 2963 
L 3168 2842 
Q 3104 2509 2896 2275 
Q 2688 2042 2384 1920 
Q 2080 1798 1709 1798 
Q 1267 1798 924 1964 
Q 582 2131 390 2432 
Q 198 2733 198 3142 
Q 198 3565 396 3872 
Q 595 4179 944 4348 
Q 1293 4518 1728 4518 
z
M 1747 4128 
Q 1427 4128 1180 4009 
Q 934 3891 793 3673 
Q 653 3456 653 3155 
Q 653 2714 957 2451 
Q 1261 2189 1779 2189 
Q 2125 2189 2384 2317 
Q 2643 2445 2787 2669 
Q 2931 2893 2931 3168 
Q 2931 3418 2796 3635 
Q 2662 3853 2400 3990 
Q 2138 4128 1747 4128 
z
" transform="scale(0.015625)"/>
        <path id="Montserrat-Regular-34" d="M 256 1178 
L 256 1510 
L 2630 4480 
L 3142 4480 
L 787 1510 
L 538 1587 
L 4141 1587 
L 4141 1178 
L 256 1178 
z
M 2784 0 
L 2784 1178 
L 2797 1587 
L 2797 2624 
L 3245 2624 
L 3245 0 
L 2784 0 
z
" transform="scale(0.015625)"/>
        <path id="Montserrat-Regular-30" d="M 2118 -38 
Q 1600 -38 1197 234 
Q 794 506 563 1014 
Q 333 1523 333 2240 
Q 333 2957 563 3465 
Q 794 3974 1197 4246 
Q 1600 4518 2118 4518 
Q 2637 4518 3040 4246 
Q 3443 3974 3676 3465 
Q 3910 2957 3910 2240 
Q 3910 1523 3676 1014 
Q 3443 506 3040 234 
Q 2637 -38 2118 -38 
z
M 2118 384 
Q 2515 384 2809 598 
Q 3104 813 3270 1225 
Q 3437 1638 3437 2240 
Q 3437 2842 3270 3254 
Q 3104 3667 2809 3881 
Q 2515 4096 2118 4096 
Q 1734 4096 1433 3881 
Q 1133 3667 966 3254 
Q 800 2842 800 2240 
Q 800 1638 966 1225 
Q 1133 813 1433 598 
Q 1734 384 2118 384 
z
" transform="scale(0.015625)"/>
       </defs>
       <use xlink:href="#Montserrat-Regular-31"/>
       <use xlink:href="#Montserrat-Regular-39" x="36.099991"/>
       <use xlink:href="#Montserrat-Regular-34" x="96.999985"/>
       <use xlink:href="#Montserrat-Regular-30" x="163.099976"/>
      </g>
     </g>
    </g>
    <g id="xtick_2">
     <g id="line2d_3">
      <g>
       <use xlink:href="#m0e52e26112" x="115.234971" y="151.388053" style="stroke: #000000; stroke-width: 0.8"/>
      </g>
     </g>
     <g id="text_2">
      <!-- 1960 -->
      <g transform="translate(104.029502 164.708365)scale(0.1 -0.1)">
       <defs>
        <path id="Montserrat-Regular-36" d="M 2170 -38 
Q 1574 -38 1164 227 
Q 755 493 544 995 
Q 333 1498 333 2202 
Q 333 2963 592 3478 
Q 851 3994 1312 4256 
Q 1773 4518 2381 4518 
Q 2682 4518 2957 4460 
Q 3232 4403 3443 4275 
L 3258 3904 
Q 3085 4019 2861 4067 
Q 2637 4115 2387 4115 
Q 1664 4115 1232 3654 
Q 800 3194 800 2278 
Q 800 2138 816 1930 
Q 832 1722 890 1517 
L 730 1638 
Q 800 1971 1005 2204 
Q 1210 2438 1517 2560 
Q 1824 2682 2189 2682 
Q 2637 2682 2976 2515 
Q 3315 2349 3507 2048 
Q 3699 1747 3699 1338 
Q 3699 922 3500 611 
Q 3302 301 2953 131 
Q 2605 -38 2170 -38 
z
M 2150 352 
Q 2470 352 2716 470 
Q 2963 589 3104 809 
Q 3245 1030 3245 1325 
Q 3245 1766 2941 2028 
Q 2637 2291 2118 2291 
Q 1773 2291 1517 2163 
Q 1261 2035 1113 1814 
Q 966 1594 966 1312 
Q 966 1069 1100 848 
Q 1235 627 1500 489 
Q 1766 352 2150 352 
z
" transform="scale(0.015625)"/>
       </defs>
       <use xlink:href="#Montserrat-Regular-31"/>
       <use xlink:href="#Montserrat-Regular-39" x="36.099991"/>
       <use xlink:href="#Montserrat-Regular-36" x="96.999985"/>
       <use xlink:href="#Montserrat-Regular-30" x="157.899979"/>
      </g>
     </g>
    </g>
    <g id="xtick_3">
     <g id="line2d_4">
      <g>
       <use xlink:href="#m0e52e26112" x="177.097499" y="151.388053" style="stroke: #000000; stroke-width: 0.8"/>
      </g>
     </g>
     <g id="text_3">
      <!-- 1980 -->
      <g transform="translate(165.747499 164.708365)scale(0.1 -0.1)">
       <defs>
        <path id="Montserrat-Regular-38" d="M 2035 -38 
Q 1498 -38 1110 115 
Q 723 269 515 560 
Q 307 851 307 1248 
Q 307 1632 508 1904 
Q 710 2176 1097 2323 
Q 1485 2470 2035 2470 
Q 2579 2470 2969 2323 
Q 3360 2176 3568 1904 
Q 3776 1632 3776 1248 
Q 3776 851 3565 560 
Q 3354 269 2963 115 
Q 2573 -38 2035 -38 
z
M 2035 352 
Q 2630 352 2966 595 
Q 3302 838 3302 1254 
Q 3302 1670 2966 1910 
Q 2630 2150 2035 2150 
Q 1440 2150 1107 1910 
Q 774 1670 774 1254 
Q 774 838 1107 595 
Q 1440 352 2035 352 
z
M 2035 2208 
Q 1536 2208 1187 2342 
Q 838 2477 652 2729 
Q 467 2982 467 3334 
Q 467 3706 662 3971 
Q 858 4237 1210 4377 
Q 1562 4518 2035 4518 
Q 2509 4518 2864 4377 
Q 3219 4237 3417 3971 
Q 3616 3706 3616 3334 
Q 3616 2982 3430 2729 
Q 3245 2477 2889 2342 
Q 2534 2208 2035 2208 
z
M 2035 2515 
Q 2560 2515 2854 2732 
Q 3149 2950 3149 3315 
Q 3149 3699 2845 3913 
Q 2541 4128 2035 4128 
Q 1530 4128 1229 3913 
Q 928 3699 928 3322 
Q 928 2950 1219 2732 
Q 1510 2515 2035 2515 
z
" transform="scale(0.015625)"/>
       </defs>
       <use xlink:href="#Montserrat-Regular-31"/>
       <use xlink:href="#Montserrat-Regular-39" x="36.099991"/>
       <use xlink:href="#Montserrat-Regular-38" x="96.999985"/>
       <use xlink:href="#Montserrat-Regular-30" x="160.799973"/>
      </g>
     </g>
    </g>
    <g id="xtick_4">
     <g id="line2d_5">
      <g>
       <use xlink:href="#m0e52e26112" x="238.960026" y="151.388053" style="stroke: #000000; stroke-width: 0.8"/>
      </g>
     </g>
     <g id="text_4">
      <!-- 2000 -->
      <g transform="translate(226.189714 164.708365)scale(0.1 -0.1)">
       <defs>
        <path id="Montserrat-Regular-32" d="M 250 0 
L 250 326 
L 2112 2150 
Q 2368 2400 2496 2589 
Q 2624 2778 2669 2944 
Q 2714 3110 2714 3258 
Q 2714 3648 2448 3872 
Q 2182 4096 1664 4096 
Q 1267 4096 963 3974 
Q 659 3853 442 3597 
L 115 3878 
Q 378 4186 787 4352 
Q 1197 4518 1702 4518 
Q 2157 4518 2489 4374 
Q 2822 4230 3004 3955 
Q 3187 3680 3187 3309 
Q 3187 3091 3126 2880 
Q 3066 2669 2909 2435 
Q 2752 2202 2451 1907 
L 742 230 
L 614 410 
L 3392 410 
L 3392 0 
L 250 0 
z
" transform="scale(0.015625)"/>
       </defs>
       <use xlink:href="#Montserrat-Regular-32"/>
       <use xlink:href="#Montserrat-Regular-30" x="56.799988"/>
       <use xlink:href="#Montserrat-Regular-30" x="122.999985"/>
       <use xlink:href="#Montserrat-Regular-30" x="189.199982"/>
      </g>
     </g>
    </g>
    <g id="xtick_5">
     <g id="line2d_6">
      <g>
       <use xlink:href="#m0e52e26112" x="300.822554" y="151.388053" style="stroke: #000000; stroke-width: 0.8"/>
      </g>
     </g>
     <g id="text_5">
      <!-- 2020 -->
      <g transform="translate(288.522554 164.708365)scale(0.1 -0.1)">
       <use xlink:href="#Montserrat-Regular-32"/>
       <use xlink:href="#Montserrat-Regular-30" x="56.799988"/>
       <use xlink:href="#Montserrat-Regular-32" x="122.999985"/>
       <use xlink:href="#Montserrat-Regular-30" x="179.799973"/>
      </g>
     </g>
    </g>
    <g id="xtick_6">
     <g id="line2d_7">
      <defs>
       <path id="ma21c423932" d="M 0 0 
L 0 2 
" style="stroke: #000000; stroke-width: 0.6"/>
      </defs>
      <g>
       <use xlink:href="#ma21c423932" x="84.303707" y="151.388053" style="stroke: #000000; stroke-width: 0.6"/>
      </g>
     </g>
    </g>
    <g id="xtick_7">
     <g id="line2d_8">
      <g>
       <use xlink:href="#ma21c423932" x="146.166235" y="151.388053" style="stroke: #000000; stroke-width: 0.6"/>
      </g>
     </g>
    </g>
    <g id="xtick_8">
     <g id="line2d_9">
      <g>
       <use xlink:href="#ma21c423932" x="208.028762" y="151.388053" style="stroke: #000000; stroke-width: 0.6"/>
      </g>
     </g>
    </g>
    <g id="xtick_9">
     <g id="line2d_10">
      <g>
       <use xlink:href="#ma21c423932" x="269.89129" y="151.388053" style="stroke: #000000; stroke-width: 0.6"/>
      </g>
     </g>
    </g>
    <g id="text_6">
     <!-- year -->
     <g transform="translate(165.005469 179.019303)scale(0.1 -0.1)">
      <defs>
       <path id="Montserrat-Regular-79" d="M 659 -1274 
Q 422 -1274 208 -1197 
Q -6 -1120 -160 -966 
L 51 -627 
Q 179 -749 329 -816 
Q 480 -883 666 -883 
Q 890 -883 1053 -758 
Q 1216 -634 1363 -320 
L 1581 173 
L 1632 243 
L 3014 3360 
L 3462 3360 
L 1779 -403 
Q 1638 -730 1468 -922 
Q 1299 -1114 1100 -1194 
Q 902 -1274 659 -1274 
z
M 1555 -96 
L 6 3360 
L 480 3360 
L 1850 275 
L 1555 -96 
z
" transform="scale(0.015625)"/>
       <path id="Montserrat-Regular-65" d="M 2061 -32 
Q 1536 -32 1139 189 
Q 742 410 518 797 
Q 294 1184 294 1683 
Q 294 2182 508 2566 
Q 723 2950 1097 3171 
Q 1472 3392 1939 3392 
Q 2413 3392 2781 3177 
Q 3149 2963 3360 2576 
Q 3571 2189 3571 1683 
Q 3571 1651 3568 1616 
Q 3565 1581 3565 1542 
L 640 1542 
L 640 1882 
L 3322 1882 
L 3142 1747 
Q 3142 2112 2985 2397 
Q 2829 2682 2560 2842 
Q 2291 3002 1939 3002 
Q 1594 3002 1318 2842 
Q 1043 2682 889 2394 
Q 736 2106 736 1734 
L 736 1664 
Q 736 1280 905 989 
Q 1075 698 1379 534 
Q 1683 371 2074 371 
Q 2381 371 2646 480 
Q 2912 589 3104 813 
L 3360 518 
Q 3136 250 2800 109 
Q 2464 -32 2061 -32 
z
" transform="scale(0.015625)"/>
       <path id="Montserrat-Regular-61" d="M 2739 0 
L 2739 742 
L 2720 864 
L 2720 2106 
Q 2720 2534 2480 2764 
Q 2240 2995 1766 2995 
Q 1440 2995 1145 2886 
Q 851 2778 646 2598 
L 442 2938 
Q 698 3155 1056 3273 
Q 1414 3392 1811 3392 
Q 2464 3392 2819 3069 
Q 3174 2746 3174 2086 
L 3174 0 
L 2739 0 
z
M 1581 -32 
Q 1203 -32 924 93 
Q 646 218 499 438 
Q 352 659 352 947 
Q 352 1210 477 1424 
Q 602 1638 886 1769 
Q 1171 1901 1651 1901 
L 2810 1901 
L 2810 1562 
L 1664 1562 
Q 1178 1562 989 1389 
Q 800 1216 800 960 
Q 800 672 1024 499 
Q 1248 326 1651 326 
Q 2035 326 2313 502 
Q 2592 678 2720 1011 
L 2822 698 
Q 2694 365 2377 166 
Q 2061 -32 1581 -32 
z
" transform="scale(0.015625)"/>
       <path id="Montserrat-Regular-72" d="M 634 0 
L 634 3360 
L 1069 3360 
L 1069 2445 
L 1024 2605 
Q 1165 2989 1497 3190 
Q 1830 3392 2323 3392 
L 2323 2950 
Q 2298 2950 2272 2953 
Q 2246 2957 2221 2957 
Q 1690 2957 1389 2633 
Q 1088 2310 1088 1715 
L 1088 0 
L 634 0 
z
" transform="scale(0.015625)"/>
      </defs>
      <use xlink:href="#Montserrat-Regular-79"/>
      <use xlink:href="#Montserrat-Regular-65" x="54.199997"/>
      <use xlink:href="#Montserrat-Regular-61" x="114.599991"/>
      <use xlink:href="#Montserrat-Regular-72" x="173.599976"/>
     </g>
    </g>
   </g>
   <g id="matplotlib.axis_2">
    <g id="ytick_1">
     <g id="line2d_11">
      <defs>
       <path id="m3612896e8a" d="M 0 0 
L -3.5 0 
" style="stroke: #000000; stroke-width: 0.8"/>
      </defs>
      <g>
       <use xlink:href="#m3612896e8a" x="40.690625" y="146.348053" style="stroke: #000000; stroke-width: 0.8"/>
      </g>
     </g>
     <g id="text_7">
      <!-- 0 -->
      <g transform="translate(28.170313 150.058209)scale(0.1 -0.1)">
       <use xlink:href="#Montserrat-Regular-30"/>
      </g>
     </g>
    </g>
    <g id="ytick_2">
     <g id="line2d_12">
      <g>
       <use xlink:href="#m3612896e8a" x="40.690625" y="117.130662" style="stroke: #000000; stroke-width: 0.8"/>
      </g>
     </g>
     <g id="text_8">
      <!-- 20 -->
      <g transform="translate(22.490625 120.840818)scale(0.1 -0.1)">
       <use xlink:href="#Montserrat-Regular-32"/>
       <use xlink:href="#Montserrat-Regular-30" x="56.799988"/>
      </g>
     </g>
    </g>
    <g id="ytick_3">
     <g id="line2d_13">
      <g>
       <use xlink:href="#m3612896e8a" x="40.690625" y="87.91327" style="stroke: #000000; stroke-width: 0.8"/>
      </g>
     </g>
     <g id="text_9">
      <!-- 40 -->
      <g transform="translate(21.560938 91.623426)scale(0.1 -0.1)">
       <use xlink:href="#Montserrat-Regular-34"/>
       <use xlink:href="#Montserrat-Regular-30" x="66.099991"/>
      </g>
     </g>
    </g>
    <g id="ytick_4">
     <g id="line2d_14">
      <g>
       <use xlink:href="#m3612896e8a" x="40.690625" y="58.695879" style="stroke: #000000; stroke-width: 0.8"/>
      </g>
     </g>
     <g id="text_10">
      <!-- 60 -->
      <g transform="translate(22.079688 62.406035)scale(0.1 -0.1)">
       <use xlink:href="#Montserrat-Regular-36"/>
       <use xlink:href="#Montserrat-Regular-30" x="60.899994"/>
      </g>
     </g>
    </g>
    <g id="ytick_5">
     <g id="line2d_15">
      <defs>
       <path id="m3a001c28f5" d="M 0 0 
L -2 0 
" style="stroke: #000000; stroke-width: 0.6"/>
      </defs>
      <g>
       <use xlink:href="#m3a001c28f5" x="40.690625" y="131.739357" style="stroke: #000000; stroke-width: 0.6"/>
      </g>
     </g>
    </g>
    <g id="ytick_6">
     <g id="line2d_16">
      <g>
       <use xlink:href="#m3a001c28f5" x="40.690625" y="102.521966" style="stroke: #000000; stroke-width: 0.6"/>
      </g>
     </g>
    </g>
    <g id="ytick_7">
     <g id="line2d_17">
      <g>
       <use xlink:href="#m3a001c28f5" x="40.690625" y="73.304575" style="stroke: #000000; stroke-width: 0.6"/>
      </g>
     </g>
    </g>
    <g id="ytick_8">
     <g id="line2d_18">
      <g>
       <use xlink:href="#m3a001c28f5" x="40.690625" y="44.087183" style="stroke: #000000; stroke-width: 0.6"/>
      </g>
     </g>
    </g>
    <g id="text_11">
     <!-- medals -->
     <g transform="translate(14.620313 113.678053)rotate(-90)scale(0.1 -0.1)">
      <defs>
       <path id="Montserrat-Regular-6d" d="M 4832 3392 
Q 5242 3392 5546 3235 
Q 5850 3078 6019 2758 
Q 6189 2438 6189 1952 
L 6189 0 
L 5734 0 
L 5734 1907 
Q 5734 2438 5481 2710 
Q 5229 2982 4768 2982 
Q 4422 2982 4169 2838 
Q 3917 2694 3779 2422 
Q 3642 2150 3642 1766 
L 3642 0 
L 3187 0 
L 3187 1907 
Q 3187 2438 2931 2710 
Q 2675 2982 2214 2982 
Q 1875 2982 1619 2838 
Q 1363 2694 1225 2422 
Q 1088 2150 1088 1766 
L 1088 0 
L 634 0 
L 634 3360 
L 1069 3360 
L 1069 2451 
L 998 2611 
Q 1152 2976 1494 3184 
Q 1837 3392 2304 3392 
Q 2797 3392 3142 3145 
Q 3488 2899 3590 2406 
L 3411 2477 
Q 3558 2886 3932 3139 
Q 4307 3392 4832 3392 
z
" transform="scale(0.015625)"/>
       <path id="Montserrat-Regular-64" d="M 1971 -32 
Q 1491 -32 1110 185 
Q 730 403 512 790 
Q 294 1178 294 1683 
Q 294 2195 512 2579 
Q 730 2963 1110 3177 
Q 1491 3392 1971 3392 
Q 2413 3392 2761 3193 
Q 3110 2995 3318 2614 
Q 3526 2234 3526 1683 
Q 3526 1139 3321 755 
Q 3117 371 2768 169 
Q 2419 -32 1971 -32 
z
M 2003 371 
Q 2362 371 2646 534 
Q 2931 698 3094 995 
Q 3258 1293 3258 1683 
Q 3258 2080 3094 2374 
Q 2931 2669 2646 2832 
Q 2362 2995 2003 2995 
Q 1651 2995 1369 2832 
Q 1088 2669 921 2374 
Q 755 2080 755 1683 
Q 755 1293 921 995 
Q 1088 698 1369 534 
Q 1651 371 2003 371 
z
M 3270 0 
L 3270 1011 
L 3315 1690 
L 3251 2368 
L 3251 4749 
L 3706 4749 
L 3706 0 
L 3270 0 
z
" transform="scale(0.015625)"/>
       <path id="Montserrat-Regular-6c" d="M 634 0 
L 634 4749 
L 1088 4749 
L 1088 0 
L 634 0 
z
" transform="scale(0.015625)"/>
       <path id="Montserrat-Regular-73" d="M 1536 -32 
Q 1120 -32 749 86 
Q 378 205 166 384 
L 371 742 
Q 576 589 896 477 
Q 1216 365 1568 365 
Q 2048 365 2259 515 
Q 2470 666 2470 915 
Q 2470 1101 2352 1206 
Q 2234 1312 2042 1366 
Q 1850 1421 1613 1459 
Q 1376 1498 1142 1549 
Q 909 1600 717 1699 
Q 525 1798 406 1971 
Q 288 2144 288 2432 
Q 288 2707 441 2924 
Q 595 3142 892 3267 
Q 1190 3392 1619 3392 
Q 1946 3392 2272 3305 
Q 2598 3219 2810 3078 
L 2611 2714 
Q 2387 2867 2131 2934 
Q 1875 3002 1619 3002 
Q 1165 3002 950 2845 
Q 736 2688 736 2445 
Q 736 2253 854 2144 
Q 973 2035 1168 1974 
Q 1363 1914 1596 1875 
Q 1830 1837 2064 1782 
Q 2298 1728 2493 1635 
Q 2688 1542 2806 1372 
Q 2925 1203 2925 928 
Q 2925 634 2761 419 
Q 2598 205 2288 86 
Q 1978 -32 1536 -32 
z
" transform="scale(0.015625)"/>
      </defs>
      <use xlink:href="#Montserrat-Regular-6d"/>
      <use xlink:href="#Montserrat-Regular-65" x="106.099991"/>
      <use xlink:href="#Montserrat-Regular-64" x="166.499985"/>
      <use xlink:href="#Montserrat-Regular-61" x="234.299973"/>
      <use xlink:href="#Montserrat-Regular-6c" x="293.299957"/>
      <use xlink:href="#Montserrat-Regular-73" x="320.199951"/>
     </g>
    </g>
   </g>
   <g id="PathCollection_1">
    <path d="M 78.117454 128.021419 
C 78.293727 128.021419 78.462804 127.951385 78.587447 127.826741 
C 78.712091 127.702098 78.782124 127.533021 78.782124 127.356748 
C 78.782124 127.180476 78.712091 127.011399 78.587447 126.886756 
C 78.462804 126.762112 78.293727 126.692078 78.117454 126.692078 
C 77.941182 126.692078 77.772105 126.762112 77.647461 126.886756 
C 77.522818 127.011399 77.452784 127.180476 77.452784 127.356748 
C 77.452784 127.533021 77.522818 127.702098 77.647461 127.826741 
C 77.772105 127.951385 77.941182 128.021419 78.117454 128.021419 
z
" clip-path="url(#pc9c17504ce)" style="fill-opacity: 0.501961; stroke: #000000; stroke-opacity: 0.501961; stroke-width: 0.886227"/>
    <path d="M 90.48996 129.482288 
C 90.666232 129.482288 90.835309 129.412254 90.959953 129.287611 
C 91.084596 129.162967 91.15463 128.993891 91.15463 128.817618 
C 91.15463 128.641345 91.084596 128.472269 90.959953 128.347625 
C 90.835309 128.222982 90.666232 128.152948 90.48996 128.152948 
C 90.313687 128.152948 90.144611 128.222982 90.019967 128.347625 
C 89.895323 128.472269 89.82529 128.641345 89.82529 128.817618 
C 89.82529 128.993891 89.895323 129.162967 90.019967 129.287611 
C 90.144611 129.412254 90.313687 129.482288 90.48996 129.482288 
z
" clip-path="url(#pc9c17504ce)" style="fill-opacity: 0.501961; stroke: #000000; stroke-opacity: 0.501961; stroke-width: 0.886227"/>
    <path d="M 102.862465 90.03881 
C 103.038738 90.03881 103.207815 89.968776 103.332458 89.844133 
C 103.457102 89.719489 103.527136 89.550412 103.527136 89.37414 
C 103.527136 89.197867 103.457102 89.028791 103.332458 88.904147 
C 103.207815 88.779503 103.038738 88.70947 102.862465 88.70947 
C 102.686193 88.70947 102.517116 88.779503 102.392473 88.904147 
C 102.267829 89.028791 102.197795 89.197867 102.197795 89.37414 
C 102.197795 89.550412 102.267829 89.719489 102.392473 89.844133 
C 102.517116 89.968776 102.686193 90.03881 102.862465 90.03881 
z
" clip-path="url(#pc9c17504ce)" style="fill-opacity: 0.501961; stroke: #000000; stroke-opacity: 0.501961; stroke-width: 0.886227"/>
    <path d="M 115.234971 114.873593 
C 115.411243 114.873593 115.58032 114.803559 115.704964 114.678915 
C 115.829607 114.554272 115.899641 114.385195 115.899641 114.208922 
C 115.899641 114.03265 115.829607 113.863573 115.704964 113.73893 
C 115.58032 113.614286 115.411243 113.544252 115.234971 113.544252 
C 115.058698 113.544252 114.889622 113.614286 114.764978 113.73893 
C 114.640335 113.863573 114.570301 114.03265 114.570301 114.208922 
C 114.570301 114.385195 114.640335 114.554272 114.764978 114.678915 
C 114.889622 114.803559 115.058698 114.873593 115.234971 114.873593 
z
" clip-path="url(#pc9c17504ce)" style="fill-opacity: 0.501961; stroke: #000000; stroke-opacity: 0.501961; stroke-width: 0.886227"/>
    <path d="M 127.607476 120.717071 
C 127.783749 120.717071 127.952826 120.647037 128.077469 120.522393 
C 128.202113 120.39775 128.272147 120.228673 128.272147 120.052401 
C 128.272147 119.876128 128.202113 119.707051 128.077469 119.582408 
C 127.952826 119.457764 127.783749 119.38773 127.607476 119.38773 
C 127.431204 119.38773 127.262127 119.457764 127.137484 119.582408 
C 127.01284 119.707051 126.942806 119.876128 126.942806 120.052401 
C 126.942806 120.228673 127.01284 120.39775 127.137484 120.522393 
C 127.262127 120.647037 127.431204 120.717071 127.607476 120.717071 
z
" clip-path="url(#pc9c17504ce)" style="fill-opacity: 0.501961; stroke: #000000; stroke-opacity: 0.501961; stroke-width: 0.886227"/>
    <path d="M 139.979982 122.17794 
C 140.156255 122.17794 140.325331 122.107907 140.449975 121.983263 
C 140.574618 121.858619 140.644652 121.689543 140.644652 121.51327 
C 140.644652 121.336998 140.574618 121.167921 140.449975 121.043277 
C 140.325331 120.918634 140.156255 120.8486 139.979982 120.8486 
C 139.803709 120.8486 139.634633 120.918634 139.509989 121.043277 
C 139.385346 121.167921 139.315312 121.336998 139.315312 121.51327 
C 139.315312 121.689543 139.385346 121.858619 139.509989 121.983263 
C 139.634633 122.107907 139.803709 122.17794 139.979982 122.17794 
z
" clip-path="url(#pc9c17504ce)" style="fill-opacity: 0.501961; stroke: #000000; stroke-opacity: 0.501961; stroke-width: 0.886227"/>
    <path d="M 152.352488 120.717071 
C 152.52876 120.717071 152.697837 120.647037 152.82248 120.522393 
C 152.947124 120.39775 153.017158 120.228673 153.017158 120.052401 
C 153.017158 119.876128 152.947124 119.707051 152.82248 119.582408 
C 152.697837 119.457764 152.52876 119.38773 152.352488 119.38773 
C 152.176215 119.38773 152.007138 119.457764 151.882495 119.582408 
C 151.757851 119.707051 151.687817 119.876128 151.687817 120.052401 
C 151.687817 120.228673 151.757851 120.39775 151.882495 120.522393 
C 152.007138 120.647037 152.176215 120.717071 152.352488 120.717071 
z
" clip-path="url(#pc9c17504ce)" style="fill-opacity: 0.501961; stroke: #000000; stroke-opacity: 0.501961; stroke-width: 0.886227"/>
    <path d="M 164.724993 138.247506 
C 164.901266 138.247506 165.070342 138.177472 165.194986 138.052828 
C 165.319629 137.928185 165.389663 137.759108 165.389663 137.582835 
C 165.389663 137.406563 165.319629 137.237486 165.194986 137.112843 
C 165.070342 136.988199 164.901266 136.918165 164.724993 136.918165 
C 164.54872 136.918165 164.379644 136.988199 164.255 137.112843 
C 164.130357 137.237486 164.060323 137.406563 164.060323 137.582835 
C 164.060323 137.759108 164.130357 137.928185 164.255 138.052828 
C 164.379644 138.177472 164.54872 138.247506 164.724993 138.247506 
z
" clip-path="url(#pc9c17504ce)" style="fill-opacity: 0.501961; stroke: #000000; stroke-opacity: 0.501961; stroke-width: 0.886227"/>
    <path d="M 177.097499 133.864897 
C 177.273771 133.864897 177.442848 133.794863 177.567491 133.67022 
C 177.692135 133.545576 177.762169 133.376499 177.762169 133.200227 
C 177.762169 133.023954 177.692135 132.854877 177.567491 132.730234 
C 177.442848 132.60559 177.273771 132.535557 177.097499 132.535557 
C 176.921226 132.535557 176.752149 132.60559 176.627506 132.730234 
C 176.502862 132.854877 176.432828 133.023954 176.432828 133.200227 
C 176.432828 133.376499 176.502862 133.545576 176.627506 133.67022 
C 176.752149 133.794863 176.921226 133.864897 177.097499 133.864897 
z
" clip-path="url(#pc9c17504ce)" style="fill-opacity: 0.501961; stroke: #000000; stroke-opacity: 0.501961; stroke-width: 0.886227"/>
    <path d="M 189.470004 109.030114 
C 189.646277 109.030114 189.815353 108.96008 189.939997 108.835437 
C 190.064641 108.710793 190.134674 108.541717 190.134674 108.365444 
C 190.134674 108.189172 190.064641 108.020095 189.939997 107.895451 
C 189.815353 107.770808 189.646277 107.700774 189.470004 107.700774 
C 189.293732 107.700774 189.124655 107.770808 189.000011 107.895451 
C 188.875368 108.020095 188.805334 108.189172 188.805334 108.365444 
C 188.805334 108.541717 188.875368 108.710793 189.000011 108.835437 
C 189.124655 108.96008 189.293732 109.030114 189.470004 109.030114 
z
" clip-path="url(#pc9c17504ce)" style="fill-opacity: 0.501961; stroke: #000000; stroke-opacity: 0.501961; stroke-width: 0.886227"/>
    <path d="M 201.84251 123.63881 
C 202.018782 123.63881 202.187859 123.568776 202.312503 123.444133 
C 202.437146 123.319489 202.50718 123.150412 202.50718 122.97414 
C 202.50718 122.797867 202.437146 122.628791 202.312503 122.504147 
C 202.187859 122.379503 202.018782 122.30947 201.84251 122.30947 
C 201.666237 122.30947 201.49716 122.379503 201.372517 122.504147 
C 201.247873 122.628791 201.17784 122.797867 201.17784 122.97414 
C 201.17784 123.150412 201.247873 123.319489 201.372517 123.444133 
C 201.49716 123.568776 201.666237 123.63881 201.84251 123.63881 
z
" clip-path="url(#pc9c17504ce)" style="fill-opacity: 0.501961; stroke: #000000; stroke-opacity: 0.501961; stroke-width: 0.886227"/>
    <path d="M 214.215015 103.186636 
C 214.391288 103.186636 214.560364 103.116602 214.685008 102.991959 
C 214.809652 102.867315 214.879685 102.698238 214.879685 102.521966 
C 214.879685 102.345693 214.809652 102.176617 214.685008 102.051973 
C 214.560364 101.92733 214.391288 101.857296 214.215015 101.857296 
C 214.038743 101.857296 213.869666 101.92733 213.745022 102.051973 
C 213.620379 102.176617 213.550345 102.345693 213.550345 102.521966 
C 213.550345 102.698238 213.620379 102.867315 213.745022 102.991959 
C 213.869666 103.116602 214.038743 103.186636 214.215015 103.186636 
z
" clip-path="url(#pc9c17504ce)" style="fill-opacity: 0.501961; stroke: #000000; stroke-opacity: 0.501961; stroke-width: 0.886227"/>
    <path d="M 226.587521 72.508375 
C 226.763793 72.508375 226.93287 72.438341 227.057514 72.313698 
C 227.182157 72.189054 227.252191 72.019978 227.252191 71.843705 
C 227.252191 71.667432 227.182157 71.498356 227.057514 71.373712 
C 226.93287 71.249069 226.763793 71.179035 226.587521 71.179035 
C 226.411248 71.179035 226.242172 71.249069 226.117528 71.373712 
C 225.992884 71.498356 225.922851 71.667432 225.922851 71.843705 
C 225.922851 72.019978 225.992884 72.189054 226.117528 72.313698 
C 226.242172 72.438341 226.411248 72.508375 226.587521 72.508375 
z
" clip-path="url(#pc9c17504ce)" style="fill-opacity: 0.501961; stroke: #000000; stroke-opacity: 0.501961; stroke-width: 0.886227"/>
    <path d="M 238.960026 46.212723 
C 239.136299 46.212723 239.305376 46.142689 239.430019 46.018046 
C 239.554663 45.893402 239.624697 45.724325 239.624697 45.548053 
C 239.624697 45.37178 239.554663 45.202704 239.430019 45.07806 
C 239.305376 44.953416 239.136299 44.883383 238.960026 44.883383 
C 238.783754 44.883383 238.614677 44.953416 238.490034 45.07806 
C 238.36539 45.202704 238.295356 45.37178 238.295356 45.548053 
C 238.295356 45.724325 238.36539 45.893402 238.490034 46.018046 
C 238.614677 46.142689 238.783754 46.212723 238.960026 46.212723 
z
" clip-path="url(#pc9c17504ce)" style="fill-opacity: 0.501961; stroke: #000000; stroke-opacity: 0.501961; stroke-width: 0.886227"/>
    <path d="M 251.332532 65.204027 
C 251.508804 65.204027 251.677881 65.133994 251.802525 65.00935 
C 251.927168 64.884706 251.997202 64.71563 251.997202 64.539357 
C 251.997202 64.363085 251.927168 64.194008 251.802525 64.069364 
C 251.677881 63.944721 251.508804 63.874687 251.332532 63.874687 
C 251.156259 63.874687 250.987183 63.944721 250.862539 64.069364 
C 250.737896 64.194008 250.667862 64.363085 250.667862 64.539357 
C 250.667862 64.71563 250.737896 64.884706 250.862539 65.00935 
C 250.987183 65.133994 251.156259 65.204027 251.332532 65.204027 
z
" clip-path="url(#pc9c17504ce)" style="fill-opacity: 0.501961; stroke: #000000; stroke-opacity: 0.501961; stroke-width: 0.886227"/>
    <path d="M 263.705037 71.047506 
C 263.88131 71.047506 264.050387 70.977472 264.17503 70.852828 
C 264.299674 70.728185 264.369708 70.559108 264.369708 70.382835 
C 264.369708 70.206563 264.299674 70.037486 264.17503 69.912843 
C 264.050387 69.788199 263.88131 69.718165 263.705037 69.718165 
C 263.528765 69.718165 263.359688 69.788199 263.235045 69.912843 
C 263.110401 70.037486 263.040367 70.206563 263.040367 70.382835 
C 263.040367 70.559108 263.110401 70.728185 263.235045 70.852828 
C 263.359688 70.977472 263.528765 71.047506 263.705037 71.047506 
z
" clip-path="url(#pc9c17504ce)" style="fill-opacity: 0.501961; stroke: #000000; stroke-opacity: 0.501961; stroke-width: 0.886227"/>
    <path d="M 276.077543 88.57794 
C 276.253816 88.57794 276.422892 88.507907 276.547536 88.383263 
C 276.672179 88.258619 276.742213 88.089543 276.742213 87.91327 
C 276.742213 87.736998 276.672179 87.567921 276.547536 87.443277 
C 276.422892 87.318634 276.253816 87.2486 276.077543 87.2486 
C 275.90127 87.2486 275.732194 87.318634 275.60755 87.443277 
C 275.482907 87.567921 275.412873 87.736998 275.412873 87.91327 
C 275.412873 88.089543 275.482907 88.258619 275.60755 88.383263 
C 275.732194 88.507907 275.90127 88.57794 276.077543 88.57794 
z
" clip-path="url(#pc9c17504ce)" style="fill-opacity: 0.501961; stroke: #000000; stroke-opacity: 0.501961; stroke-width: 0.886227"/>
    <path d="M 288.450049 97.343158 
C 288.626321 97.343158 288.795398 97.273124 288.920041 97.14848 
C 289.044685 97.023837 289.114719 96.85476 289.114719 96.678488 
C 289.114719 96.502215 289.044685 96.333138 288.920041 96.208495 
C 288.795398 96.083851 288.626321 96.013817 288.450049 96.013817 
C 288.273776 96.013817 288.104699 96.083851 287.980056 96.208495 
C 287.855412 96.333138 287.785378 96.502215 287.785378 96.678488 
C 287.785378 96.85476 287.855412 97.023837 287.980056 97.14848 
C 288.104699 97.273124 288.273776 97.343158 288.450049 97.343158 
z
" clip-path="url(#pc9c17504ce)" style="fill-opacity: 0.501961; stroke: #000000; stroke-opacity: 0.501961; stroke-width: 0.886227"/>
    <path d="M 300.822554 73.969245 
C 300.998827 73.969245 301.167903 73.899211 301.292547 73.774567 
C 301.41719 73.649924 301.487224 73.480847 301.487224 73.304575 
C 301.487224 73.128302 301.41719 72.959225 301.292547 72.834582 
C 301.167903 72.709938 300.998827 72.639904 300.822554 72.639904 
C 300.646281 72.639904 300.477205 72.709938 300.352561 72.834582 
C 300.227918 72.959225 300.157884 73.128302 300.157884 73.304575 
C 300.157884 73.480847 300.227918 73.649924 300.352561 73.774567 
C 300.477205 73.899211 300.646281 73.969245 300.822554 73.969245 
z
" clip-path="url(#pc9c17504ce)" style="fill-opacity: 0.501961; stroke: #000000; stroke-opacity: 0.501961; stroke-width: 0.886227"/>
    <path d="M 78.117454 128.021419 
C 78.293727 128.021419 78.462804 127.951385 78.587447 127.826741 
C 78.712091 127.702098 78.782124 127.533021 78.782124 127.356748 
C 78.782124 127.180476 78.712091 127.011399 78.587447 126.886756 
C 78.462804 126.762112 78.293727 126.692078 78.117454 126.692078 
C 77.941182 126.692078 77.772105 126.762112 77.647461 126.886756 
C 77.522818 127.011399 77.452784 127.180476 77.452784 127.356748 
C 77.452784 127.533021 77.522818 127.702098 77.647461 127.826741 
C 77.772105 127.951385 77.941182 128.021419 78.117454 128.021419 
z
" clip-path="url(#pc9c17504ce)" style="fill-opacity: 0.501961; stroke: #000000; stroke-opacity: 0.501961; stroke-width: 0.886227"/>
    <path d="M 90.48996 129.482288 
C 90.666232 129.482288 90.835309 129.412254 90.959953 129.287611 
C 91.084596 129.162967 91.15463 128.993891 91.15463 128.817618 
C 91.15463 128.641345 91.084596 128.472269 90.959953 128.347625 
C 90.835309 128.222982 90.666232 128.152948 90.48996 128.152948 
C 90.313687 128.152948 90.144611 128.222982 90.019967 128.347625 
C 89.895323 128.472269 89.82529 128.641345 89.82529 128.817618 
C 89.82529 128.993891 89.895323 129.162967 90.019967 129.287611 
C 90.144611 129.412254 90.313687 129.482288 90.48996 129.482288 
z
" clip-path="url(#pc9c17504ce)" style="fill-opacity: 0.501961; stroke: #000000; stroke-opacity: 0.501961; stroke-width: 0.886227"/>
    <path d="M 102.862465 90.03881 
C 103.038738 90.03881 103.207815 89.968776 103.332458 89.844133 
C 103.457102 89.719489 103.527136 89.550412 103.527136 89.37414 
C 103.527136 89.197867 103.457102 89.028791 103.332458 88.904147 
C 103.207815 88.779503 103.038738 88.70947 102.862465 88.70947 
C 102.686193 88.70947 102.517116 88.779503 102.392473 88.904147 
C 102.267829 89.028791 102.197795 89.197867 102.197795 89.37414 
C 102.197795 89.550412 102.267829 89.719489 102.392473 89.844133 
C 102.517116 89.968776 102.686193 90.03881 102.862465 90.03881 
z
" clip-path="url(#pc9c17504ce)" style="fill-opacity: 0.501961; stroke: #000000; stroke-opacity: 0.501961; stroke-width: 0.886227"/>
    <path d="M 115.234971 114.873593 
C 115.411243 114.873593 115.58032 114.803559 115.704964 114.678915 
C 115.829607 114.554272 115.899641 114.385195 115.899641 114.208922 
C 115.899641 114.03265 115.829607 113.863573 115.704964 113.73893 
C 115.58032 113.614286 115.411243 113.544252 115.234971 113.544252 
C 115.058698 113.544252 114.889622 113.614286 114.764978 113.73893 
C 114.640335 113.863573 114.570301 114.03265 114.570301 114.208922 
C 114.570301 114.385195 114.640335 114.554272 114.764978 114.678915 
C 114.889622 114.803559 115.058698 114.873593 115.234971 114.873593 
z
" clip-path="url(#pc9c17504ce)" style="fill-opacity: 0.501961; stroke: #000000; stroke-opacity: 0.501961; stroke-width: 0.886227"/>
    <path d="M 127.607476 120.717071 
C 127.783749 120.717071 127.952826 120.647037 128.077469 120.522393 
C 128.202113 120.39775 128.272147 120.228673 128.272147 120.052401 
C 128.272147 119.876128 128.202113 119.707051 128.077469 119.582408 
C 127.952826 119.457764 127.783749 119.38773 127.607476 119.38773 
C 127.431204 119.38773 127.262127 119.457764 127.137484 119.582408 
C 127.01284 119.707051 126.942806 119.876128 126.942806 120.052401 
C 126.942806 120.228673 127.01284 120.39775 127.137484 120.522393 
C 127.262127 120.647037 127.431204 120.717071 127.607476 120.717071 
z
" clip-path="url(#pc9c17504ce)" style="fill-opacity: 0.501961; stroke: #000000; stroke-opacity: 0.501961; stroke-width: 0.886227"/>
    <path d="M 139.979982 122.17794 
C 140.156255 122.17794 140.325331 122.107907 140.449975 121.983263 
C 140.574618 121.858619 140.644652 121.689543 140.644652 121.51327 
C 140.644652 121.336998 140.574618 121.167921 140.449975 121.043277 
C 140.325331 120.918634 140.156255 120.8486 139.979982 120.8486 
C 139.803709 120.8486 139.634633 120.918634 139.509989 121.043277 
C 139.385346 121.167921 139.315312 121.336998 139.315312 121.51327 
C 139.315312 121.689543 139.385346 121.858619 139.509989 121.983263 
C 139.634633 122.107907 139.803709 122.17794 139.979982 122.17794 
z
" clip-path="url(#pc9c17504ce)" style="fill-opacity: 0.501961; stroke: #000000; stroke-opacity: 0.501961; stroke-width: 0.886227"/>
    <path d="M 152.352488 120.717071 
C 152.52876 120.717071 152.697837 120.647037 152.82248 120.522393 
C 152.947124 120.39775 153.017158 120.228673 153.017158 120.052401 
C 153.017158 119.876128 152.947124 119.707051 152.82248 119.582408 
C 152.697837 119.457764 152.52876 119.38773 152.352488 119.38773 
C 152.176215 119.38773 152.007138 119.457764 151.882495 119.582408 
C 151.757851 119.707051 151.687817 119.876128 151.687817 120.052401 
C 151.687817 120.228673 151.757851 120.39775 151.882495 120.522393 
C 152.007138 120.647037 152.176215 120.717071 152.352488 120.717071 
z
" clip-path="url(#pc9c17504ce)" style="fill-opacity: 0.501961; stroke: #000000; stroke-opacity: 0.501961; stroke-width: 0.886227"/>
    <path d="M 164.724993 138.247506 
C 164.901266 138.247506 165.070342 138.177472 165.194986 138.052828 
C 165.319629 137.928185 165.389663 137.759108 165.389663 137.582835 
C 165.389663 137.406563 165.319629 137.237486 165.194986 137.112843 
C 165.070342 136.988199 164.901266 136.918165 164.724993 136.918165 
C 164.54872 136.918165 164.379644 136.988199 164.255 137.112843 
C 164.130357 137.237486 164.060323 137.406563 164.060323 137.582835 
C 164.060323 137.759108 164.130357 137.928185 164.255 138.052828 
C 164.379644 138.177472 164.54872 138.247506 164.724993 138.247506 
z
" clip-path="url(#pc9c17504ce)" style="fill-opacity: 0.501961; stroke: #000000; stroke-opacity: 0.501961; stroke-width: 0.886227"/>
    <path d="M 177.097499 133.864897 
C 177.273771 133.864897 177.442848 133.794863 177.567491 133.67022 
C 177.692135 133.545576 177.762169 133.376499 177.762169 133.200227 
C 177.762169 133.023954 177.692135 132.854877 177.567491 132.730234 
C 177.442848 132.60559 177.273771 132.535557 177.097499 132.535557 
C 176.921226 132.535557 176.752149 132.60559 176.627506 132.730234 
C 176.502862 132.854877 176.432828 133.023954 176.432828 133.200227 
C 176.432828 133.376499 176.502862 133.545576 176.627506 133.67022 
C 176.752149 133.794863 176.921226 133.864897 177.097499 133.864897 
z
" clip-path="url(#pc9c17504ce)" style="fill-opacity: 0.501961; stroke: #000000; stroke-opacity: 0.501961; stroke-width: 0.886227"/>
    <path d="M 189.470004 109.030114 
C 189.646277 109.030114 189.815353 108.96008 189.939997 108.835437 
C 190.064641 108.710793 190.134674 108.541717 190.134674 108.365444 
C 190.134674 108.189172 190.064641 108.020095 189.939997 107.895451 
C 189.815353 107.770808 189.646277 107.700774 189.470004 107.700774 
C 189.293732 107.700774 189.124655 107.770808 189.000011 107.895451 
C 188.875368 108.020095 188.805334 108.189172 188.805334 108.365444 
C 188.805334 108.541717 188.875368 108.710793 189.000011 108.835437 
C 189.124655 108.96008 189.293732 109.030114 189.470004 109.030114 
z
" clip-path="url(#pc9c17504ce)" style="fill-opacity: 0.501961; stroke: #000000; stroke-opacity: 0.501961; stroke-width: 0.886227"/>
    <path d="M 201.84251 123.63881 
C 202.018782 123.63881 202.187859 123.568776 202.312503 123.444133 
C 202.437146 123.319489 202.50718 123.150412 202.50718 122.97414 
C 202.50718 122.797867 202.437146 122.628791 202.312503 122.504147 
C 202.187859 122.379503 202.018782 122.30947 201.84251 122.30947 
C 201.666237 122.30947 201.49716 122.379503 201.372517 122.504147 
C 201.247873 122.628791 201.17784 122.797867 201.17784 122.97414 
C 201.17784 123.150412 201.247873 123.319489 201.372517 123.444133 
C 201.49716 123.568776 201.666237 123.63881 201.84251 123.63881 
z
" clip-path="url(#pc9c17504ce)" style="fill-opacity: 0.501961; stroke: #000000; stroke-opacity: 0.501961; stroke-width: 0.886227"/>
    <path d="M 214.215015 103.186636 
C 214.391288 103.186636 214.560364 103.116602 214.685008 102.991959 
C 214.809652 102.867315 214.879685 102.698238 214.879685 102.521966 
C 214.879685 102.345693 214.809652 102.176617 214.685008 102.051973 
C 214.560364 101.92733 214.391288 101.857296 214.215015 101.857296 
C 214.038743 101.857296 213.869666 101.92733 213.745022 102.051973 
C 213.620379 102.176617 213.550345 102.345693 213.550345 102.521966 
C 213.550345 102.698238 213.620379 102.867315 213.745022 102.991959 
C 213.869666 103.116602 214.038743 103.186636 214.215015 103.186636 
z
" clip-path="url(#pc9c17504ce)" style="fill-opacity: 0.501961; stroke: #000000; stroke-opacity: 0.501961; stroke-width: 0.886227"/>
    <path d="M 226.587521 72.508375 
C 226.763793 72.508375 226.93287 72.438341 227.057514 72.313698 
C 227.182157 72.189054 227.252191 72.019978 227.252191 71.843705 
C 227.252191 71.667432 227.182157 71.498356 227.057514 71.373712 
C 226.93287 71.249069 226.763793 71.179035 226.587521 71.179035 
C 226.411248 71.179035 226.242172 71.249069 226.117528 71.373712 
C 225.992884 71.498356 225.922851 71.667432 225.922851 71.843705 
C 225.922851 72.019978 225.992884 72.189054 226.117528 72.313698 
C 226.242172 72.438341 226.411248 72.508375 226.587521 72.508375 
z
" clip-path="url(#pc9c17504ce)" style="fill-opacity: 0.501961; stroke: #000000; stroke-opacity: 0.501961; stroke-width: 0.886227"/>
    <path d="M 238.960026 46.212723 
C 239.136299 46.212723 239.305376 46.142689 239.430019 46.018046 
C 239.554663 45.893402 239.624697 45.724325 239.624697 45.548053 
C 239.624697 45.37178 239.554663 45.202704 239.430019 45.07806 
C 239.305376 44.953416 239.136299 44.883383 238.960026 44.883383 
C 238.783754 44.883383 238.614677 44.953416 238.490034 45.07806 
C 238.36539 45.202704 238.295356 45.37178 238.295356 45.548053 
C 238.295356 45.724325 238.36539 45.893402 238.490034 46.018046 
C 238.614677 46.142689 238.783754 46.212723 238.960026 46.212723 
z
" clip-path="url(#pc9c17504ce)" style="fill-opacity: 0.501961; stroke: #000000; stroke-opacity: 0.501961; stroke-width: 0.886227"/>
    <path d="M 251.332532 65.204027 
C 251.508804 65.204027 251.677881 65.133994 251.802525 65.00935 
C 251.927168 64.884706 251.997202 64.71563 251.997202 64.539357 
C 251.997202 64.363085 251.927168 64.194008 251.802525 64.069364 
C 251.677881 63.944721 251.508804 63.874687 251.332532 63.874687 
C 251.156259 63.874687 250.987183 63.944721 250.862539 64.069364 
C 250.737896 64.194008 250.667862 64.363085 250.667862 64.539357 
C 250.667862 64.71563 250.737896 64.884706 250.862539 65.00935 
C 250.987183 65.133994 251.156259 65.204027 251.332532 65.204027 
z
" clip-path="url(#pc9c17504ce)" style="fill-opacity: 0.501961; stroke: #000000; stroke-opacity: 0.501961; stroke-width: 0.886227"/>
    <path d="M 263.705037 71.047506 
C 263.88131 71.047506 264.050387 70.977472 264.17503 70.852828 
C 264.299674 70.728185 264.369708 70.559108 264.369708 70.382835 
C 264.369708 70.206563 264.299674 70.037486 264.17503 69.912843 
C 264.050387 69.788199 263.88131 69.718165 263.705037 69.718165 
C 263.528765 69.718165 263.359688 69.788199 263.235045 69.912843 
C 263.110401 70.037486 263.040367 70.206563 263.040367 70.382835 
C 263.040367 70.559108 263.110401 70.728185 263.235045 70.852828 
C 263.359688 70.977472 263.528765 71.047506 263.705037 71.047506 
z
" clip-path="url(#pc9c17504ce)" style="fill-opacity: 0.501961; stroke: #000000; stroke-opacity: 0.501961; stroke-width: 0.886227"/>
    <path d="M 276.077543 88.57794 
C 276.253816 88.57794 276.422892 88.507907 276.547536 88.383263 
C 276.672179 88.258619 276.742213 88.089543 276.742213 87.91327 
C 276.742213 87.736998 276.672179 87.567921 276.547536 87.443277 
C 276.422892 87.318634 276.253816 87.2486 276.077543 87.2486 
C 275.90127 87.2486 275.732194 87.318634 275.60755 87.443277 
C 275.482907 87.567921 275.412873 87.736998 275.412873 87.91327 
C 275.412873 88.089543 275.482907 88.258619 275.60755 88.383263 
C 275.732194 88.507907 275.90127 88.57794 276.077543 88.57794 
z
" clip-path="url(#pc9c17504ce)" style="fill-opacity: 0.501961; stroke: #000000; stroke-opacity: 0.501961; stroke-width: 0.886227"/>
    <path d="M 288.450049 97.343158 
C 288.626321 97.343158 288.795398 97.273124 288.920041 97.14848 
C 289.044685 97.023837 289.114719 96.85476 289.114719 96.678488 
C 289.114719 96.502215 289.044685 96.333138 288.920041 96.208495 
C 288.795398 96.083851 288.626321 96.013817 288.450049 96.013817 
C 288.273776 96.013817 288.104699 96.083851 287.980056 96.208495 
C 287.855412 96.333138 287.785378 96.502215 287.785378 96.678488 
C 287.785378 96.85476 287.855412 97.023837 287.980056 97.14848 
C 288.104699 97.273124 288.273776 97.343158 288.450049 97.343158 
z
" clip-path="url(#pc9c17504ce)" style="fill-opacity: 0.501961; stroke: #000000; stroke-opacity: 0.501961; stroke-width: 0.886227"/>
    <path d="M 300.822554 73.969245 
C 300.998827 73.969245 301.167903 73.899211 301.292547 73.774567 
C 301.41719 73.649924 301.487224 73.480847 301.487224 73.304575 
C 301.487224 73.128302 301.41719 72.959225 301.292547 72.834582 
C 301.167903 72.709938 300.998827 72.639904 300.822554 72.639904 
C 300.646281 72.639904 300.477205 72.709938 300.352561 72.834582 
C 300.227918 72.959225 300.157884 73.128302 300.157884 73.304575 
C 300.157884 73.480847 300.227918 73.649924 300.352561 73.774567 
C 300.477205 73.899211 300.646281 73.969245 300.822554 73.969245 
z
" clip-path="url(#pc9c17504ce)" style="fill-opacity: 0.501961; stroke: #000000; stroke-opacity: 0.501961; stroke-width: 0.886227"/>
   </g>
   <g id="patch_3">
    <path d="M 40.690625 40.508053 
L 319.690625 40.508053 
L 319.690625 24.508053 
L 40.690625 24.508053 
z
" style="fill: #d9d9d9; stroke: #d9d9d9; stroke-linejoin: miter"/>
   </g>
   <g id="PathCollection_2">
    <path d="M 236.744459 45.548053 
L 241.175594 45.548053 
M 238.960026 47.76362 
L 238.960026 43.332485 
" clip-path="url(#pc9c17504ce)" style="fill: #ff0000; stroke: #ff0000; stroke-width: 0.886227"/>
    <path d="M 100.646898 89.37414 
L 105.078033 89.37414 
M 102.862465 91.589707 
L 102.862465 87.158572 
" clip-path="url(#pc9c17504ce)" style="fill: #ff0000; stroke: #ff0000; stroke-width: 0.886227"/>
   </g>
   <g id="text_12">
    <!-- Australia -->
    <g transform="translate(158.180469 35.247897)scale(0.1 -0.1)">
     <defs>
      <path id="Montserrat-Regular-41" d="M 13 0 
L 2061 4480 
L 2528 4480 
L 4576 0 
L 4077 0 
L 2195 4205 
L 2387 4205 
L 506 0 
L 13 0 
z
M 819 1197 
L 960 1581 
L 3565 1581 
L 3706 1197 
L 819 1197 
z
" transform="scale(0.015625)"/>
      <path id="Montserrat-Regular-75" d="M 2022 -32 
Q 1594 -32 1274 128 
Q 954 288 778 608 
Q 602 928 602 1408 
L 602 3360 
L 1056 3360 
L 1056 1459 
Q 1056 922 1321 650 
Q 1587 378 2067 378 
Q 2419 378 2678 522 
Q 2938 666 3075 941 
Q 3213 1216 3213 1600 
L 3213 3360 
L 3667 3360 
L 3667 0 
L 3232 0 
L 3232 922 
L 3302 755 
Q 3142 384 2806 176 
Q 2470 -32 2022 -32 
z
" transform="scale(0.015625)"/>
      <path id="Montserrat-Regular-74" d="M 1696 -32 
Q 1222 -32 966 224 
Q 710 480 710 947 
L 710 4102 
L 1165 4102 
L 1165 973 
Q 1165 678 1315 518 
Q 1466 358 1747 358 
Q 2048 358 2246 531 
L 2406 205 
Q 2272 83 2083 25 
Q 1894 -32 1696 -32 
z
M 109 2982 
L 109 3360 
L 2189 3360 
L 2189 2982 
L 109 2982 
z
" transform="scale(0.015625)"/>
      <path id="Montserrat-Regular-69" d="M 634 0 
L 634 3360 
L 1088 3360 
L 1088 0 
L 634 0 
z
M 864 4102 
Q 723 4102 627 4198 
Q 531 4294 531 4429 
Q 531 4563 627 4656 
Q 723 4749 864 4749 
Q 1005 4749 1101 4659 
Q 1197 4570 1197 4435 
Q 1197 4294 1104 4198 
Q 1011 4102 864 4102 
z
" transform="scale(0.015625)"/>
     </defs>
     <use xlink:href="#Montserrat-Regular-41"/>
     <use xlink:href="#Montserrat-Regular-75" x="71.699982"/>
     <use xlink:href="#Montserrat-Regular-73" x="138.899979"/>
     <use xlink:href="#Montserrat-Regular-74" x="187.699966"/>
     <use xlink:href="#Montserrat-Regular-72" x="228.299957"/>
     <use xlink:href="#Montserrat-Regular-61" x="268.399948"/>
     <use xlink:href="#Montserrat-Regular-6c" x="327.399933"/>
     <use xlink:href="#Montserrat-Regular-69" x="354.299927"/>
     <use xlink:href="#Montserrat-Regular-61" x="381.199921"/>
    </g>
   </g>
  </g>
  <g id="text_13">
   <!-- Medals for Australia at Summer Olympics -->
   <g transform="translate(71.779688 14.670312)scale(0.1 -0.1)">
    <defs>
     <path id="Montserrat-Regular-4d" d="M 730 0 
L 730 4480 
L 1120 4480 
L 3168 986 
L 2963 986 
L 4992 4480 
L 5382 4480 
L 5382 0 
L 4928 0 
L 4928 3770 
L 5037 3770 
L 3168 570 
L 2944 570 
L 1062 3770 
L 1184 3770 
L 1184 0 
L 730 0 
z
" transform="scale(0.015625)"/>
     <path id="Montserrat-Regular-20" transform="scale(0.015625)"/>
     <path id="Montserrat-Regular-66" d="M 710 0 
L 710 3782 
Q 710 4230 972 4505 
Q 1235 4781 1728 4781 
Q 1920 4781 2099 4729 
Q 2278 4678 2400 4570 
L 2246 4230 
Q 2150 4314 2022 4355 
Q 1894 4397 1747 4397 
Q 1459 4397 1305 4237 
Q 1152 4077 1152 3763 
L 1152 3251 
L 1165 3040 
L 1165 0 
L 710 0 
z
M 109 2982 
L 109 3360 
L 2189 3360 
L 2189 2982 
L 109 2982 
z
" transform="scale(0.015625)"/>
     <path id="Montserrat-Regular-6f" d="M 2003 -32 
Q 1517 -32 1129 189 
Q 742 410 518 797 
Q 294 1184 294 1683 
Q 294 2189 518 2573 
Q 742 2957 1126 3174 
Q 1510 3392 2003 3392 
Q 2502 3392 2889 3174 
Q 3277 2957 3497 2573 
Q 3718 2189 3718 1683 
Q 3718 1184 3497 797 
Q 3277 410 2886 189 
Q 2496 -32 2003 -32 
z
M 2003 371 
Q 2368 371 2649 534 
Q 2931 698 3094 995 
Q 3258 1293 3258 1683 
Q 3258 2080 3094 2374 
Q 2931 2669 2649 2832 
Q 2368 2995 2010 2995 
Q 1651 2995 1369 2832 
Q 1088 2669 921 2374 
Q 755 2080 755 1683 
Q 755 1293 921 995 
Q 1088 698 1369 534 
Q 1651 371 2003 371 
z
" transform="scale(0.015625)"/>
     <path id="Montserrat-Regular-53" d="M 1965 -38 
Q 1466 -38 1008 125 
Q 550 288 301 544 
L 486 909 
Q 723 678 1123 521 
Q 1523 365 1965 365 
Q 2387 365 2652 470 
Q 2918 576 3043 755 
Q 3168 934 3168 1152 
Q 3168 1414 3017 1574 
Q 2867 1734 2624 1827 
Q 2381 1920 2086 1990 
Q 1792 2061 1497 2141 
Q 1203 2221 956 2355 
Q 710 2490 560 2710 
Q 410 2931 410 3290 
Q 410 3622 586 3900 
Q 762 4179 1126 4348 
Q 1491 4518 2061 4518 
Q 2438 4518 2809 4412 
Q 3181 4307 3450 4122 
L 3290 3744 
Q 3002 3936 2678 4025 
Q 2355 4115 2054 4115 
Q 1651 4115 1388 4006 
Q 1126 3898 1001 3715 
Q 877 3533 877 3302 
Q 877 3040 1027 2880 
Q 1178 2720 1424 2630 
Q 1670 2541 1964 2470 
Q 2259 2400 2550 2317 
Q 2842 2234 3088 2102 
Q 3334 1971 3484 1753 
Q 3635 1536 3635 1184 
Q 3635 858 3456 579 
Q 3277 301 2909 131 
Q 2541 -38 1965 -38 
z
" transform="scale(0.015625)"/>
     <path id="Montserrat-Regular-4f" d="M 2688 -38 
Q 2182 -38 1750 131 
Q 1318 301 1001 611 
Q 685 922 509 1334 
Q 333 1747 333 2240 
Q 333 2733 509 3145 
Q 685 3558 1001 3868 
Q 1318 4179 1747 4348 
Q 2176 4518 2688 4518 
Q 3194 4518 3622 4348 
Q 4051 4179 4368 3872 
Q 4685 3565 4861 3149 
Q 5037 2733 5037 2240 
Q 5037 1747 4861 1331 
Q 4685 915 4368 608 
Q 4051 301 3622 131 
Q 3194 -38 2688 -38 
z
M 2688 384 
Q 3091 384 3433 521 
Q 3776 659 4029 912 
Q 4282 1165 4422 1501 
Q 4563 1837 4563 2240 
Q 4563 2643 4422 2979 
Q 4282 3315 4029 3568 
Q 3776 3821 3433 3958 
Q 3091 4096 2688 4096 
Q 2285 4096 1939 3958 
Q 1594 3821 1341 3568 
Q 1088 3315 944 2979 
Q 800 2643 800 2240 
Q 800 1843 944 1504 
Q 1088 1165 1341 912 
Q 1594 659 1939 521 
Q 2285 384 2688 384 
z
" transform="scale(0.015625)"/>
     <path id="Montserrat-Regular-70" d="M 2368 -32 
Q 1933 -32 1581 169 
Q 1229 371 1021 752 
Q 813 1133 813 1683 
Q 813 2234 1017 2614 
Q 1222 2995 1574 3193 
Q 1926 3392 2368 3392 
Q 2848 3392 3229 3177 
Q 3610 2963 3827 2576 
Q 4045 2189 4045 1683 
Q 4045 1171 3827 787 
Q 3610 403 3229 185 
Q 2848 -32 2368 -32 
z
M 634 -1242 
L 634 3360 
L 1069 3360 
L 1069 2349 
L 1024 1677 
L 1088 998 
L 1088 -1242 
L 634 -1242 
z
M 2336 371 
Q 2694 371 2976 534 
Q 3258 698 3424 995 
Q 3590 1293 3590 1683 
Q 3590 2074 3424 2368 
Q 3258 2662 2976 2828 
Q 2694 2995 2336 2995 
Q 1978 2995 1693 2828 
Q 1408 2662 1245 2368 
Q 1082 2074 1082 1683 
Q 1082 1293 1245 995 
Q 1408 698 1693 534 
Q 1978 371 2336 371 
z
" transform="scale(0.015625)"/>
     <path id="Montserrat-Regular-63" d="M 2029 -32 
Q 1530 -32 1136 189 
Q 742 410 518 797 
Q 294 1184 294 1683 
Q 294 2189 518 2573 
Q 742 2957 1136 3174 
Q 1530 3392 2029 3392 
Q 2458 3392 2803 3225 
Q 3149 3059 3347 2726 
L 3008 2496 
Q 2835 2752 2579 2873 
Q 2323 2995 2022 2995 
Q 1664 2995 1376 2832 
Q 1088 2669 921 2374 
Q 755 2080 755 1683 
Q 755 1286 921 992 
Q 1088 698 1376 534 
Q 1664 371 2022 371 
Q 2323 371 2579 492 
Q 2835 614 3008 864 
L 3347 634 
Q 3149 307 2803 137 
Q 2458 -32 2029 -32 
z
" transform="scale(0.015625)"/>
    </defs>
    <use xlink:href="#Montserrat-Regular-4d"/>
    <use xlink:href="#Montserrat-Regular-65" x="95.499985"/>
    <use xlink:href="#Montserrat-Regular-64" x="155.899979"/>
    <use xlink:href="#Montserrat-Regular-61" x="223.699966"/>
    <use xlink:href="#Montserrat-Regular-6c" x="282.699951"/>
    <use xlink:href="#Montserrat-Regular-73" x="309.599945"/>
    <use xlink:href="#Montserrat-Regular-20" x="358.399933"/>
    <use xlink:href="#Montserrat-Regular-66" x="384.59993"/>
    <use xlink:href="#Montserrat-Regular-6f" x="418.499924"/>
    <use xlink:href="#Montserrat-Regular-72" x="481.199921"/>
    <use xlink:href="#Montserrat-Regular-20" x="521.299911"/>
    <use xlink:href="#Montserrat-Regular-41" x="547.499908"/>
    <use xlink:href="#Montserrat-Regular-75" x="619.19989"/>
    <use xlink:href="#Montserrat-Regular-73" x="686.399887"/>
    <use xlink:href="#Montserrat-Regular-74" x="735.199875"/>
    <use xlink:href="#Montserrat-Regular-72" x="775.799866"/>
    <use xlink:href="#Montserrat-Regular-61" x="815.899857"/>
    <use xlink:href="#Montserrat-Regular-6c" x="874.899841"/>
    <use xlink:href="#Montserrat-Regular-69" x="901.799835"/>
    <use xlink:href="#Montserrat-Regular-61" x="928.699829"/>
    <use xlink:href="#Montserrat-Regular-20" x="987.699814"/>
    <use xlink:href="#Montserrat-Regular-61" x="1013.899811"/>
    <use xlink:href="#Montserrat-Regular-74" x="1072.899796"/>
    <use xlink:href="#Montserrat-Regular-20" x="1113.499786"/>
    <use xlink:href="#Montserrat-Regular-53" x="1139.699783"/>
    <use xlink:href="#Montserrat-Regular-75" x="1201.199768"/>
    <use xlink:href="#Montserrat-Regular-6d" x="1268.399765"/>
    <use xlink:href="#Montserrat-Regular-6d" x="1374.499756"/>
    <use xlink:href="#Montserrat-Regular-65" x="1480.599747"/>
    <use xlink:href="#Montserrat-Regular-72" x="1540.999741"/>
    <use xlink:href="#Montserrat-Regular-20" x="1581.099731"/>
    <use xlink:href="#Montserrat-Regular-4f" x="1607.299728"/>
    <use xlink:href="#Montserrat-Regular-6c" x="1691.199722"/>
    <use xlink:href="#Montserrat-Regular-79" x="1718.099716"/>
    <use xlink:href="#Montserrat-Regular-6d" x="1772.299713"/>
    <use xlink:href="#Montserrat-Regular-70" x="1878.399704"/>
    <use xlink:href="#Montserrat-Regular-69" x="1946.199692"/>
    <use xlink:href="#Montserrat-Regular-63" x="1973.099686"/>
    <use xlink:href="#Montserrat-Regular-73" x="2029.399673"/>
   </g>
  </g>
 </g>
 <defs>
  <clipPath id="pc9c17504ce">
   <rect x="40.690625" y="40.508053" width="279" height="110.88"/>
  </clipPath>
 </defs>
</svg>
