<?xml version="1.0" encoding="utf-8" standalone="no"?>
<!DOCTYPE svg PUBLIC "-//W3C//DTD SVG 1.1//EN"
  "http://www.w3.org/Graphics/SVG/1.1/DTD/svg11.dtd">
<svg xmlns:xlink="http://www.w3.org/1999/xlink" width="325.960938pt" height="188.209928pt" viewBox="0 0 325.960938 188.209928" xmlns="http://www.w3.org/2000/svg" version="1.1">
 <metadata>
  <rdf:RDF xmlns:dc="http://purl.org/dc/elements/1.1/" xmlns:cc="http://creativecommons.org/ns#" xmlns:rdf="http://www.w3.org/1999/02/22-rdf-syntax-ns#">
   <cc:Work>
    <dc:type rdf:resource="http://purl.org/dc/dcmitype/StillImage"/>
    <dc:date>2024-08-08T08:27:48.243156</dc:date>
    <dc:format>image/svg+xml</dc:format>
    <dc:creator>
     <cc:Agent>
      <dc:title>Matplotlib v3.5.1, https://matplotlib.org/</dc:title>
     </cc:Agent>
    </dc:creator>
   </cc:Work>
  </rdf:RDF>
 </metadata>
 <defs>
  <style type="text/css">*{stroke-linejoin: round; stroke-linecap: butt}</style>
 </defs>
 <g id="figure_1">
  <g id="patch_1">
   <path d="M 0 188.209928 
L 325.960938 188.209928 
L 325.960938 0 
L 0 0 
z
" style="fill: #ffffff"/>
  </g>
  <g id="axes_1">
   <g id="patch_2">
    <path d="M 39.760938 151.388053 
L 318.760938 151.388053 
L 318.760938 40.508053 
L 39.760938 40.508053 
z
" style="fill: #ffffff"/>
   </g>
   <g id="line2d_1">
    <path d="M 77.187767 141.965444 
L 89.560272 133.200227 
L 101.932778 141.965444 
L 114.305283 137.582835 
L 126.677789 141.965444 
L 139.050294 128.817618 
L 151.4228 137.582835 
L 163.795306 133.200227 
L 176.167811 120.052401 
L 188.540317 111.287183 
L 200.912822 111.287183 
L 213.285328 133.200227 
L 225.657833 63.078488 
L 238.030339 76.226314 
L 250.402844 89.37414 
L 262.77535 54.31327 
L 275.147855 58.695879 
L 287.520361 45.548053 
L 299.892867 45.548053 
" clip-path="url(#pe0ff6e5bd8)" style="fill: none; stroke: #000000; stroke-width: 0.886227"/>
   </g>
   <g id="matplotlib.axis_1">
    <g id="xtick_1">
     <g id="line2d_2">
      <defs>
       <path id="ma0008b31fd" d="M 0 0 
L 0 3.5 
" style="stroke: #000000; stroke-width: 0.8"/>
      </defs>
      <g>
       <use xlink:href="#ma0008b31fd" x="52.442756" y="151.388053" style="stroke: #000000; stroke-width: 0.8"/>
      </g>
     </g>
     <g id="text_1">
      <!-- 1940 -->
      <g transform="translate(40.977912 164.708365)scale(0.1 -0.1)">
       <defs>
        <path id="Montserrat-Regular-31" d="M 1114 0 
L 1114 4288 
L 1318 4070 
L 58 4070 
L 58 4480 
L 1574 4480 
L 1574 0 
L 1114 0 
z
" transform="scale(0.015625)"/>
        <path id="Montserrat-Regular-39" d="M 1728 4518 
Q 2323 4518 2732 4252 
Q 3142 3987 3353 3488 
Q 3565 2989 3565 2278 
Q 3565 1523 3305 1004 
Q 3046 486 2585 224 
Q 2125 -38 1517 -38 
Q 1216 -38 944 19 
Q 672 77 454 205 
L 640 576 
Q 813 461 1040 413 
Q 1267 365 1510 365 
Q 2234 365 2666 825 
Q 3098 1286 3098 2202 
Q 3098 2349 3082 2553 
Q 3066 2758 3008 2963 
L 3168 2842 
Q 3104 2509 2896 2275 
Q 2688 2042 2384 1920 
Q 2080 1798 1709 1798 
Q 1267 1798 924 1964 
Q 582 2131 390 2432 
Q 198 2733 198 3142 
Q 198 3565 396 3872 
Q 595 4179 944 4348 
Q 1293 4518 1728 4518 
z
M 1747 4128 
Q 1427 4128 1180 4009 
Q 934 3891 793 3673 
Q 653 3456 653 3155 
Q 653 2714 957 2451 
Q 1261 2189 1779 2189 
Q 2125 2189 2384 2317 
Q 2643 2445 2787 2669 
Q 2931 2893 2931 3168 
Q 2931 3418 2796 3635 
Q 2662 3853 2400 3990 
Q 2138 4128 1747 4128 
z
" transform="scale(0.015625)"/>
        <path id="Montserrat-Regular-34" d="M 256 1178 
L 256 1510 
L 2630 4480 
L 3142 4480 
L 787 1510 
L 538 1587 
L 4141 1587 
L 4141 1178 
L 256 1178 
z
M 2784 0 
L 2784 1178 
L 2797 1587 
L 2797 2624 
L 3245 2624 
L 3245 0 
L 2784 0 
z
" transform="scale(0.015625)"/>
        <path id="Montserrat-Regular-30" d="M 2118 -38 
Q 1600 -38 1197 234 
Q 794 506 563 1014 
Q 333 1523 333 2240 
Q 333 2957 563 3465 
Q 794 3974 1197 4246 
Q 1600 4518 2118 4518 
Q 2637 4518 3040 4246 
Q 3443 3974 3676 3465 
Q 3910 2957 3910 2240 
Q 3910 1523 3676 1014 
Q 3443 506 3040 234 
Q 2637 -38 2118 -38 
z
M 2118 384 
Q 2515 384 2809 598 
Q 3104 813 3270 1225 
Q 3437 1638 3437 2240 
Q 3437 2842 3270 3254 
Q 3104 3667 2809 3881 
Q 2515 4096 2118 4096 
Q 1734 4096 1433 3881 
Q 1133 3667 966 3254 
Q 800 2842 800 2240 
Q 800 1638 966 1225 
Q 1133 813 1433 598 
Q 1734 384 2118 384 
z
" transform="scale(0.015625)"/>
       </defs>
       <use xlink:href="#Montserrat-Regular-31"/>
       <use xlink:href="#Montserrat-Regular-39" x="36.099991"/>
       <use xlink:href="#Montserrat-Regular-34" x="96.999985"/>
       <use xlink:href="#Montserrat-Regular-30" x="163.099976"/>
      </g>
     </g>
    </g>
    <g id="xtick_2">
     <g id="line2d_3">
      <g>
       <use xlink:href="#ma0008b31fd" x="114.305283" y="151.388053" style="stroke: #000000; stroke-width: 0.8"/>
      </g>
     </g>
     <g id="text_2">
      <!-- 1960 -->
      <g transform="translate(103.099815 164.708365)scale(0.1 -0.1)">
       <defs>
        <path id="Montserrat-Regular-36" d="M 2170 -38 
Q 1574 -38 1164 227 
Q 755 493 544 995 
Q 333 1498 333 2202 
Q 333 2963 592 3478 
Q 851 3994 1312 4256 
Q 1773 4518 2381 4518 
Q 2682 4518 2957 4460 
Q 3232 4403 3443 4275 
L 3258 3904 
Q 3085 4019 2861 4067 
Q 2637 4115 2387 4115 
Q 1664 4115 1232 3654 
Q 800 3194 800 2278 
Q 800 2138 816 1930 
Q 832 1722 890 1517 
L 730 1638 
Q 800 1971 1005 2204 
Q 1210 2438 1517 2560 
Q 1824 2682 2189 2682 
Q 2637 2682 2976 2515 
Q 3315 2349 3507 2048 
Q 3699 1747 3699 1338 
Q 3699 922 3500 611 
Q 3302 301 2953 131 
Q 2605 -38 2170 -38 
z
M 2150 352 
Q 2470 352 2716 470 
Q 2963 589 3104 809 
Q 3245 1030 3245 1325 
Q 3245 1766 2941 2028 
Q 2637 2291 2118 2291 
Q 1773 2291 1517 2163 
Q 1261 2035 1113 1814 
Q 966 1594 966 1312 
Q 966 1069 1100 848 
Q 1235 627 1500 489 
Q 1766 352 2150 352 
z
" transform="scale(0.015625)"/>
       </defs>
       <use xlink:href="#Montserrat-Regular-31"/>
       <use xlink:href="#Montserrat-Regular-39" x="36.099991"/>
       <use xlink:href="#Montserrat-Regular-36" x="96.999985"/>
       <use xlink:href="#Montserrat-Regular-30" x="157.899979"/>
      </g>
     </g>
    </g>
    <g id="xtick_3">
     <g id="line2d_4">
      <g>
       <use xlink:href="#ma0008b31fd" x="176.167811" y="151.388053" style="stroke: #000000; stroke-width: 0.8"/>
      </g>
     </g>
     <g id="text_3">
      <!-- 1980 -->
      <g transform="translate(164.817811 164.708365)scale(0.1 -0.1)">
       <defs>
        <path id="Montserrat-Regular-38" d="M 2035 -38 
Q 1498 -38 1110 115 
Q 723 269 515 560 
Q 307 851 307 1248 
Q 307 1632 508 1904 
Q 710 2176 1097 2323 
Q 1485 2470 2035 2470 
Q 2579 2470 2969 2323 
Q 3360 2176 3568 1904 
Q 3776 1632 3776 1248 
Q 3776 851 3565 560 
Q 3354 269 2963 115 
Q 2573 -38 2035 -38 
z
M 2035 352 
Q 2630 352 2966 595 
Q 3302 838 3302 1254 
Q 3302 1670 2966 1910 
Q 2630 2150 2035 2150 
Q 1440 2150 1107 1910 
Q 774 1670 774 1254 
Q 774 838 1107 595 
Q 1440 352 2035 352 
z
M 2035 2208 
Q 1536 2208 1187 2342 
Q 838 2477 652 2729 
Q 467 2982 467 3334 
Q 467 3706 662 3971 
Q 858 4237 1210 4377 
Q 1562 4518 2035 4518 
Q 2509 4518 2864 4377 
Q 3219 4237 3417 3971 
Q 3616 3706 3616 3334 
Q 3616 2982 3430 2729 
Q 3245 2477 2889 2342 
Q 2534 2208 2035 2208 
z
M 2035 2515 
Q 2560 2515 2854 2732 
Q 3149 2950 3149 3315 
Q 3149 3699 2845 3913 
Q 2541 4128 2035 4128 
Q 1530 4128 1229 3913 
Q 928 3699 928 3322 
Q 928 2950 1219 2732 
Q 1510 2515 2035 2515 
z
" transform="scale(0.015625)"/>
       </defs>
       <use xlink:href="#Montserrat-Regular-31"/>
       <use xlink:href="#Montserrat-Regular-39" x="36.099991"/>
       <use xlink:href="#Montserrat-Regular-38" x="96.999985"/>
       <use xlink:href="#Montserrat-Regular-30" x="160.799973"/>
      </g>
     </g>
    </g>
    <g id="xtick_4">
     <g id="line2d_5">
      <g>
       <use xlink:href="#ma0008b31fd" x="238.030339" y="151.388053" style="stroke: #000000; stroke-width: 0.8"/>
      </g>
     </g>
     <g id="text_4">
      <!-- 2000 -->
      <g transform="translate(225.260026 164.708365)scale(0.1 -0.1)">
       <defs>
        <path id="Montserrat-Regular-32" d="M 250 0 
L 250 326 
L 2112 2150 
Q 2368 2400 2496 2589 
Q 2624 2778 2669 2944 
Q 2714 3110 2714 3258 
Q 2714 3648 2448 3872 
Q 2182 4096 1664 4096 
Q 1267 4096 963 3974 
Q 659 3853 442 3597 
L 115 3878 
Q 378 4186 787 4352 
Q 1197 4518 1702 4518 
Q 2157 4518 2489 4374 
Q 2822 4230 3004 3955 
Q 3187 3680 3187 3309 
Q 3187 3091 3126 2880 
Q 3066 2669 2909 2435 
Q 2752 2202 2451 1907 
L 742 230 
L 614 410 
L 3392 410 
L 3392 0 
L 250 0 
z
" transform="scale(0.015625)"/>
       </defs>
       <use xlink:href="#Montserrat-Regular-32"/>
       <use xlink:href="#Montserrat-Regular-30" x="56.799988"/>
       <use xlink:href="#Montserrat-Regular-30" x="122.999985"/>
       <use xlink:href="#Montserrat-Regular-30" x="189.199982"/>
      </g>
     </g>
    </g>
    <g id="xtick_5">
     <g id="line2d_6">
      <g>
       <use xlink:href="#ma0008b31fd" x="299.892867" y="151.388053" style="stroke: #000000; stroke-width: 0.8"/>
      </g>
     </g>
     <g id="text_5">
      <!-- 2020 -->
      <g transform="translate(287.592867 164.708365)scale(0.1 -0.1)">
       <use xlink:href="#Montserrat-Regular-32"/>
       <use xlink:href="#Montserrat-Regular-30" x="56.799988"/>
       <use xlink:href="#Montserrat-Regular-32" x="122.999985"/>
       <use xlink:href="#Montserrat-Regular-30" x="179.799973"/>
      </g>
     </g>
    </g>
    <g id="xtick_6">
     <g id="line2d_7">
      <defs>
       <path id="m3e416e1032" d="M 0 0 
L 0 2 
" style="stroke: #000000; stroke-width: 0.6"/>
      </defs>
      <g>
       <use xlink:href="#m3e416e1032" x="83.37402" y="151.388053" style="stroke: #000000; stroke-width: 0.6"/>
      </g>
     </g>
    </g>
    <g id="xtick_7">
     <g id="line2d_8">
      <g>
       <use xlink:href="#m3e416e1032" x="145.236547" y="151.388053" style="stroke: #000000; stroke-width: 0.6"/>
      </g>
     </g>
    </g>
    <g id="xtick_8">
     <g id="line2d_9">
      <g>
       <use xlink:href="#m3e416e1032" x="207.099075" y="151.388053" style="stroke: #000000; stroke-width: 0.6"/>
      </g>
     </g>
    </g>
    <g id="xtick_9">
     <g id="line2d_10">
      <g>
       <use xlink:href="#m3e416e1032" x="268.961603" y="151.388053" style="stroke: #000000; stroke-width: 0.6"/>
      </g>
     </g>
    </g>
    <g id="text_6">
     <!-- year -->
     <g transform="translate(164.075781 179.019303)scale(0.1 -0.1)">
      <defs>
       <path id="Montserrat-Regular-79" d="M 659 -1274 
Q 422 -1274 208 -1197 
Q -6 -1120 -160 -966 
L 51 -627 
Q 179 -749 329 -816 
Q 480 -883 666 -883 
Q 890 -883 1053 -758 
Q 1216 -634 1363 -320 
L 1581 173 
L 1632 243 
L 3014 3360 
L 3462 3360 
L 1779 -403 
Q 1638 -730 1468 -922 
Q 1299 -1114 1100 -1194 
Q 902 -1274 659 -1274 
z
M 1555 -96 
L 6 3360 
L 480 3360 
L 1850 275 
L 1555 -96 
z
" transform="scale(0.015625)"/>
       <path id="Montserrat-Regular-65" d="M 2061 -32 
Q 1536 -32 1139 189 
Q 742 410 518 797 
Q 294 1184 294 1683 
Q 294 2182 508 2566 
Q 723 2950 1097 3171 
Q 1472 3392 1939 3392 
Q 2413 3392 2781 3177 
Q 3149 2963 3360 2576 
Q 3571 2189 3571 1683 
Q 3571 1651 3568 1616 
Q 3565 1581 3565 1542 
L 640 1542 
L 640 1882 
L 3322 1882 
L 3142 1747 
Q 3142 2112 2985 2397 
Q 2829 2682 2560 2842 
Q 2291 3002 1939 3002 
Q 1594 3002 1318 2842 
Q 1043 2682 889 2394 
Q 736 2106 736 1734 
L 736 1664 
Q 736 1280 905 989 
Q 1075 698 1379 534 
Q 1683 371 2074 371 
Q 2381 371 2646 480 
Q 2912 589 3104 813 
L 3360 518 
Q 3136 250 2800 109 
Q 2464 -32 2061 -32 
z
" transform="scale(0.015625)"/>
       <path id="Montserrat-Regular-61" d="M 2739 0 
L 2739 742 
L 2720 864 
L 2720 2106 
Q 2720 2534 2480 2764 
Q 2240 2995 1766 2995 
Q 1440 2995 1145 2886 
Q 851 2778 646 2598 
L 442 2938 
Q 698 3155 1056 3273 
Q 1414 3392 1811 3392 
Q 2464 3392 2819 3069 
Q 3174 2746 3174 2086 
L 3174 0 
L 2739 0 
z
M 1581 -32 
Q 1203 -32 924 93 
Q 646 218 499 438 
Q 352 659 352 947 
Q 352 1210 477 1424 
Q 602 1638 886 1769 
Q 1171 1901 1651 1901 
L 2810 1901 
L 2810 1562 
L 1664 1562 
Q 1178 1562 989 1389 
Q 800 1216 800 960 
Q 800 672 1024 499 
Q 1248 326 1651 326 
Q 2035 326 2313 502 
Q 2592 678 2720 1011 
L 2822 698 
Q 2694 365 2377 166 
Q 2061 -32 1581 -32 
z
" transform="scale(0.015625)"/>
       <path id="Montserrat-Regular-72" d="M 634 0 
L 634 3360 
L 1069 3360 
L 1069 2445 
L 1024 2605 
Q 1165 2989 1497 3190 
Q 1830 3392 2323 3392 
L 2323 2950 
Q 2298 2950 2272 2953 
Q 2246 2957 2221 2957 
Q 1690 2957 1389 2633 
Q 1088 2310 1088 1715 
L 1088 0 
L 634 0 
z
" transform="scale(0.015625)"/>
      </defs>
      <use xlink:href="#Montserrat-Regular-79"/>
      <use xlink:href="#Montserrat-Regular-65" x="54.199997"/>
      <use xlink:href="#Montserrat-Regular-61" x="114.599991"/>
      <use xlink:href="#Montserrat-Regular-72" x="173.599976"/>
     </g>
    </g>
   </g>
   <g id="matplotlib.axis_2">
    <g id="ytick_1">
     <g id="line2d_11">
      <defs>
       <path id="mc0ed2a72bc" d="M 0 0 
L -3.5 0 
" style="stroke: #000000; stroke-width: 0.8"/>
      </defs>
      <g>
       <use xlink:href="#mc0ed2a72bc" x="39.760938" y="146.348053" style="stroke: #000000; stroke-width: 0.8"/>
      </g>
     </g>
     <g id="text_7">
      <!-- 0 -->
      <g transform="translate(27.240625 150.058209)scale(0.1 -0.1)">
       <use xlink:href="#Montserrat-Regular-30"/>
      </g>
     </g>
    </g>
    <g id="ytick_2">
     <g id="line2d_12">
      <g>
       <use xlink:href="#mc0ed2a72bc" x="39.760938" y="124.435009" style="stroke: #000000; stroke-width: 0.8"/>
      </g>
     </g>
     <g id="text_8">
      <!-- 5 -->
      <g transform="translate(28.201563 128.145166)scale(0.1 -0.1)">
       <defs>
        <path id="Montserrat-Regular-35" d="M 1747 -38 
Q 1267 -38 832 118 
Q 397 275 141 538 
L 365 902 
Q 576 678 944 531 
Q 1312 384 1741 384 
Q 2310 384 2608 637 
Q 2906 890 2906 1299 
Q 2906 1587 2768 1795 
Q 2630 2003 2304 2118 
Q 1978 2234 1408 2234 
L 454 2234 
L 685 4480 
L 3136 4480 
L 3136 4070 
L 870 4070 
L 1107 4294 
L 909 2413 
L 672 2643 
L 1510 2643 
Q 2189 2643 2598 2476 
Q 3008 2310 3190 2012 
Q 3373 1715 3373 1318 
Q 3373 941 3193 630 
Q 3014 320 2656 141 
Q 2298 -38 1747 -38 
z
" transform="scale(0.015625)"/>
       </defs>
       <use xlink:href="#Montserrat-Regular-35"/>
      </g>
     </g>
    </g>
    <g id="ytick_3">
     <g id="line2d_13">
      <g>
       <use xlink:href="#mc0ed2a72bc" x="39.760938" y="102.521966" style="stroke: #000000; stroke-width: 0.8"/>
      </g>
     </g>
     <g id="text_9">
      <!-- 10 -->
      <g transform="translate(23.63125 106.232122)scale(0.1 -0.1)">
       <use xlink:href="#Montserrat-Regular-31"/>
       <use xlink:href="#Montserrat-Regular-30" x="36.099991"/>
      </g>
     </g>
    </g>
    <g id="ytick_4">
     <g id="line2d_14">
      <g>
       <use xlink:href="#mc0ed2a72bc" x="39.760938" y="80.608922" style="stroke: #000000; stroke-width: 0.8"/>
      </g>
     </g>
     <g id="text_10">
      <!-- 15 -->
      <g transform="translate(24.592188 84.319079)scale(0.1 -0.1)">
       <use xlink:href="#Montserrat-Regular-31"/>
       <use xlink:href="#Montserrat-Regular-35" x="36.099991"/>
      </g>
     </g>
    </g>
    <g id="ytick_5">
     <g id="line2d_15">
      <g>
       <use xlink:href="#mc0ed2a72bc" x="39.760938" y="58.695879" style="stroke: #000000; stroke-width: 0.8"/>
      </g>
     </g>
     <g id="text_11">
      <!-- 20 -->
      <g transform="translate(21.560938 62.406035)scale(0.1 -0.1)">
       <use xlink:href="#Montserrat-Regular-32"/>
       <use xlink:href="#Montserrat-Regular-30" x="56.799988"/>
      </g>
     </g>
    </g>
    <g id="ytick_6">
     <g id="line2d_16">
      <defs>
       <path id="m40b0736f5e" d="M 0 0 
L -2 0 
" style="stroke: #000000; stroke-width: 0.6"/>
      </defs>
      <g>
       <use xlink:href="#m40b0736f5e" x="39.760938" y="135.391531" style="stroke: #000000; stroke-width: 0.6"/>
      </g>
     </g>
    </g>
    <g id="ytick_7">
     <g id="line2d_17">
      <g>
       <use xlink:href="#m40b0736f5e" x="39.760938" y="113.478488" style="stroke: #000000; stroke-width: 0.6"/>
      </g>
     </g>
    </g>
    <g id="ytick_8">
     <g id="line2d_18">
      <g>
       <use xlink:href="#m40b0736f5e" x="39.760938" y="91.565444" style="stroke: #000000; stroke-width: 0.6"/>
      </g>
     </g>
    </g>
    <g id="ytick_9">
     <g id="line2d_19">
      <g>
       <use xlink:href="#m40b0736f5e" x="39.760938" y="69.652401" style="stroke: #000000; stroke-width: 0.6"/>
      </g>
     </g>
    </g>
    <g id="ytick_10">
     <g id="line2d_20">
      <g>
       <use xlink:href="#m40b0736f5e" x="39.760938" y="47.739357" style="stroke: #000000; stroke-width: 0.6"/>
      </g>
     </g>
    </g>
    <g id="text_12">
     <!-- medals -->
     <g transform="translate(14.620313 113.678053)rotate(-90)scale(0.1 -0.1)">
      <defs>
       <path id="Montserrat-Regular-6d" d="M 4832 3392 
Q 5242 3392 5546 3235 
Q 5850 3078 6019 2758 
Q 6189 2438 6189 1952 
L 6189 0 
L 5734 0 
L 5734 1907 
Q 5734 2438 5481 2710 
Q 5229 2982 4768 2982 
Q 4422 2982 4169 2838 
Q 3917 2694 3779 2422 
Q 3642 2150 3642 1766 
L 3642 0 
L 3187 0 
L 3187 1907 
Q 3187 2438 2931 2710 
Q 2675 2982 2214 2982 
Q 1875 2982 1619 2838 
Q 1363 2694 1225 2422 
Q 1088 2150 1088 1766 
L 1088 0 
L 634 0 
L 634 3360 
L 1069 3360 
L 1069 2451 
L 998 2611 
Q 1152 2976 1494 3184 
Q 1837 3392 2304 3392 
Q 2797 3392 3142 3145 
Q 3488 2899 3590 2406 
L 3411 2477 
Q 3558 2886 3932 3139 
Q 4307 3392 4832 3392 
z
" transform="scale(0.015625)"/>
       <path id="Montserrat-Regular-64" d="M 1971 -32 
Q 1491 -32 1110 185 
Q 730 403 512 790 
Q 294 1178 294 1683 
Q 294 2195 512 2579 
Q 730 2963 1110 3177 
Q 1491 3392 1971 3392 
Q 2413 3392 2761 3193 
Q 3110 2995 3318 2614 
Q 3526 2234 3526 1683 
Q 3526 1139 3321 755 
Q 3117 371 2768 169 
Q 2419 -32 1971 -32 
z
M 2003 371 
Q 2362 371 2646 534 
Q 2931 698 3094 995 
Q 3258 1293 3258 1683 
Q 3258 2080 3094 2374 
Q 2931 2669 2646 2832 
Q 2362 2995 2003 2995 
Q 1651 2995 1369 2832 
Q 1088 2669 921 2374 
Q 755 2080 755 1683 
Q 755 1293 921 995 
Q 1088 698 1369 534 
Q 1651 371 2003 371 
z
M 3270 0 
L 3270 1011 
L 3315 1690 
L 3251 2368 
L 3251 4749 
L 3706 4749 
L 3706 0 
L 3270 0 
z
" transform="scale(0.015625)"/>
       <path id="Montserrat-Regular-6c" d="M 634 0 
L 634 4749 
L 1088 4749 
L 1088 0 
L 634 0 
z
" transform="scale(0.015625)"/>
       <path id="Montserrat-Regular-73" d="M 1536 -32 
Q 1120 -32 749 86 
Q 378 205 166 384 
L 371 742 
Q 576 589 896 477 
Q 1216 365 1568 365 
Q 2048 365 2259 515 
Q 2470 666 2470 915 
Q 2470 1101 2352 1206 
Q 2234 1312 2042 1366 
Q 1850 1421 1613 1459 
Q 1376 1498 1142 1549 
Q 909 1600 717 1699 
Q 525 1798 406 1971 
Q 288 2144 288 2432 
Q 288 2707 441 2924 
Q 595 3142 892 3267 
Q 1190 3392 1619 3392 
Q 1946 3392 2272 3305 
Q 2598 3219 2810 3078 
L 2611 2714 
Q 2387 2867 2131 2934 
Q 1875 3002 1619 3002 
Q 1165 3002 950 2845 
Q 736 2688 736 2445 
Q 736 2253 854 2144 
Q 973 2035 1168 1974 
Q 1363 1914 1596 1875 
Q 1830 1837 2064 1782 
Q 2298 1728 2493 1635 
Q 2688 1542 2806 1372 
Q 2925 1203 2925 928 
Q 2925 634 2761 419 
Q 2598 205 2288 86 
Q 1978 -32 1536 -32 
z
" transform="scale(0.015625)"/>
      </defs>
      <use xlink:href="#Montserrat-Regular-6d"/>
      <use xlink:href="#Montserrat-Regular-65" x="106.099991"/>
      <use xlink:href="#Montserrat-Regular-64" x="166.499985"/>
      <use xlink:href="#Montserrat-Regular-61" x="234.299973"/>
      <use xlink:href="#Montserrat-Regular-6c" x="293.299957"/>
      <use xlink:href="#Montserrat-Regular-73" x="320.199951"/>
     </g>
    </g>
   </g>
   <g id="PathCollection_1">
    <path d="M 77.187767 142.630114 
C 77.364039 142.630114 77.533116 142.56008 77.65776 142.435437 
C 77.782403 142.310793 77.852437 142.141717 77.852437 141.965444 
C 77.852437 141.789172 77.782403 141.620095 77.65776 141.495451 
C 77.533116 141.370808 77.364039 141.300774 77.187767 141.300774 
C 77.011494 141.300774 76.842418 141.370808 76.717774 141.495451 
C 76.59313 141.620095 76.523097 141.789172 76.523097 141.965444 
C 76.523097 142.141717 76.59313 142.310793 76.717774 142.435437 
C 76.842418 142.56008 77.011494 142.630114 77.187767 142.630114 
z
" clip-path="url(#pe0ff6e5bd8)" style="fill-opacity: 0.501961; stroke: #000000; stroke-opacity: 0.501961; stroke-width: 0.886227"/>
    <path d="M 89.560272 133.864897 
C 89.736545 133.864897 89.905622 133.794863 90.030265 133.67022 
C 90.154909 133.545576 90.224943 133.376499 90.224943 133.200227 
C 90.224943 133.023954 90.154909 132.854877 90.030265 132.730234 
C 89.905622 132.60559 89.736545 132.535557 89.560272 132.535557 
C 89.384 132.535557 89.214923 132.60559 89.09028 132.730234 
C 88.965636 132.854877 88.895602 133.023954 88.895602 133.200227 
C 88.895602 133.376499 88.965636 133.545576 89.09028 133.67022 
C 89.214923 133.794863 89.384 133.864897 89.560272 133.864897 
z
" clip-path="url(#pe0ff6e5bd8)" style="fill-opacity: 0.501961; stroke: #000000; stroke-opacity: 0.501961; stroke-width: 0.886227"/>
    <path d="M 101.932778 142.630114 
C 102.10905 142.630114 102.278127 142.56008 102.402771 142.435437 
C 102.527414 142.310793 102.597448 142.141717 102.597448 141.965444 
C 102.597448 141.789172 102.527414 141.620095 102.402771 141.495451 
C 102.278127 141.370808 102.10905 141.300774 101.932778 141.300774 
C 101.756505 141.300774 101.587429 141.370808 101.462785 141.495451 
C 101.338142 141.620095 101.268108 141.789172 101.268108 141.965444 
C 101.268108 142.141717 101.338142 142.310793 101.462785 142.435437 
C 101.587429 142.56008 101.756505 142.630114 101.932778 142.630114 
z
" clip-path="url(#pe0ff6e5bd8)" style="fill-opacity: 0.501961; stroke: #000000; stroke-opacity: 0.501961; stroke-width: 0.886227"/>
    <path d="M 114.305283 138.247506 
C 114.481556 138.247506 114.650633 138.177472 114.775276 138.052828 
C 114.89992 137.928185 114.969954 137.759108 114.969954 137.582835 
C 114.969954 137.406563 114.89992 137.237486 114.775276 137.112843 
C 114.650633 136.988199 114.481556 136.918165 114.305283 136.918165 
C 114.129011 136.918165 113.959934 136.988199 113.835291 137.112843 
C 113.710647 137.237486 113.640613 137.406563 113.640613 137.582835 
C 113.640613 137.759108 113.710647 137.928185 113.835291 138.052828 
C 113.959934 138.177472 114.129011 138.247506 114.305283 138.247506 
z
" clip-path="url(#pe0ff6e5bd8)" style="fill-opacity: 0.501961; stroke: #000000; stroke-opacity: 0.501961; stroke-width: 0.886227"/>
    <path d="M 126.677789 142.630114 
C 126.854062 142.630114 127.023138 142.56008 127.147782 142.435437 
C 127.272425 142.310793 127.342459 142.141717 127.342459 141.965444 
C 127.342459 141.789172 127.272425 141.620095 127.147782 141.495451 
C 127.023138 141.370808 126.854062 141.300774 126.677789 141.300774 
C 126.501516 141.300774 126.33244 141.370808 126.207796 141.495451 
C 126.083153 141.620095 126.013119 141.789172 126.013119 141.965444 
C 126.013119 142.141717 126.083153 142.310793 126.207796 142.435437 
C 126.33244 142.56008 126.501516 142.630114 126.677789 142.630114 
z
" clip-path="url(#pe0ff6e5bd8)" style="fill-opacity: 0.501961; stroke: #000000; stroke-opacity: 0.501961; stroke-width: 0.886227"/>
    <path d="M 139.050294 129.482288 
C 139.226567 129.482288 139.395644 129.412254 139.520287 129.287611 
C 139.644931 129.162967 139.714965 128.993891 139.714965 128.817618 
C 139.714965 128.641345 139.644931 128.472269 139.520287 128.347625 
C 139.395644 128.222982 139.226567 128.152948 139.050294 128.152948 
C 138.874022 128.152948 138.704945 128.222982 138.580302 128.347625 
C 138.455658 128.472269 138.385624 128.641345 138.385624 128.817618 
C 138.385624 128.993891 138.455658 129.162967 138.580302 129.287611 
C 138.704945 129.412254 138.874022 129.482288 139.050294 129.482288 
z
" clip-path="url(#pe0ff6e5bd8)" style="fill-opacity: 0.501961; stroke: #000000; stroke-opacity: 0.501961; stroke-width: 0.886227"/>
    <path d="M 151.4228 138.247506 
C 151.599073 138.247506 151.768149 138.177472 151.892793 138.052828 
C 152.017436 137.928185 152.08747 137.759108 152.08747 137.582835 
C 152.08747 137.406563 152.017436 137.237486 151.892793 137.112843 
C 151.768149 136.988199 151.599073 136.918165 151.4228 136.918165 
C 151.246527 136.918165 151.077451 136.988199 150.952807 137.112843 
C 150.828164 137.237486 150.75813 137.406563 150.75813 137.582835 
C 150.75813 137.759108 150.828164 137.928185 150.952807 138.052828 
C 151.077451 138.177472 151.246527 138.247506 151.4228 138.247506 
z
" clip-path="url(#pe0ff6e5bd8)" style="fill-opacity: 0.501961; stroke: #000000; stroke-opacity: 0.501961; stroke-width: 0.886227"/>
    <path d="M 163.795306 133.864897 
C 163.971578 133.864897 164.140655 133.794863 164.265298 133.67022 
C 164.389942 133.545576 164.459976 133.376499 164.459976 133.200227 
C 164.459976 133.023954 164.389942 132.854877 164.265298 132.730234 
C 164.140655 132.60559 163.971578 132.535557 163.795306 132.535557 
C 163.619033 132.535557 163.449956 132.60559 163.325313 132.730234 
C 163.200669 132.854877 163.130635 133.023954 163.130635 133.200227 
C 163.130635 133.376499 163.200669 133.545576 163.325313 133.67022 
C 163.449956 133.794863 163.619033 133.864897 163.795306 133.864897 
z
" clip-path="url(#pe0ff6e5bd8)" style="fill-opacity: 0.501961; stroke: #000000; stroke-opacity: 0.501961; stroke-width: 0.886227"/>
    <path d="M 176.167811 120.717071 
C 176.344084 120.717071 176.51316 120.647037 176.637804 120.522393 
C 176.762447 120.39775 176.832481 120.228673 176.832481 120.052401 
C 176.832481 119.876128 176.762447 119.707051 176.637804 119.582408 
C 176.51316 119.457764 176.344084 119.38773 176.167811 119.38773 
C 175.991539 119.38773 175.822462 119.457764 175.697818 119.582408 
C 175.573175 119.707051 175.503141 119.876128 175.503141 120.052401 
C 175.503141 120.228673 175.573175 120.39775 175.697818 120.522393 
C 175.822462 120.647037 175.991539 120.717071 176.167811 120.717071 
z
" clip-path="url(#pe0ff6e5bd8)" style="fill-opacity: 0.501961; stroke: #000000; stroke-opacity: 0.501961; stroke-width: 0.886227"/>
    <path d="M 188.540317 111.951853 
C 188.716589 111.951853 188.885666 111.88182 189.010309 111.757176 
C 189.134953 111.632532 189.204987 111.463456 189.204987 111.287183 
C 189.204987 111.110911 189.134953 110.941834 189.010309 110.81719 
C 188.885666 110.692547 188.716589 110.622513 188.540317 110.622513 
C 188.364044 110.622513 188.194967 110.692547 188.070324 110.81719 
C 187.94568 110.941834 187.875646 111.110911 187.875646 111.287183 
C 187.875646 111.463456 187.94568 111.632532 188.070324 111.757176 
C 188.194967 111.88182 188.364044 111.951853 188.540317 111.951853 
z
" clip-path="url(#pe0ff6e5bd8)" style="fill-opacity: 0.501961; stroke: #000000; stroke-opacity: 0.501961; stroke-width: 0.886227"/>
    <path d="M 200.912822 111.951853 
C 201.089095 111.951853 201.258171 111.88182 201.382815 111.757176 
C 201.507459 111.632532 201.577492 111.463456 201.577492 111.287183 
C 201.577492 111.110911 201.507459 110.941834 201.382815 110.81719 
C 201.258171 110.692547 201.089095 110.622513 200.912822 110.622513 
C 200.73655 110.622513 200.567473 110.692547 200.442829 110.81719 
C 200.318186 110.941834 200.248152 111.110911 200.248152 111.287183 
C 200.248152 111.463456 200.318186 111.632532 200.442829 111.757176 
C 200.567473 111.88182 200.73655 111.951853 200.912822 111.951853 
z
" clip-path="url(#pe0ff6e5bd8)" style="fill-opacity: 0.501961; stroke: #000000; stroke-opacity: 0.501961; stroke-width: 0.886227"/>
    <path d="M 213.285328 133.864897 
C 213.4616 133.864897 213.630677 133.794863 213.755321 133.67022 
C 213.879964 133.545576 213.949998 133.376499 213.949998 133.200227 
C 213.949998 133.023954 213.879964 132.854877 213.755321 132.730234 
C 213.630677 132.60559 213.4616 132.535557 213.285328 132.535557 
C 213.109055 132.535557 212.939978 132.60559 212.815335 132.730234 
C 212.690691 132.854877 212.620658 133.023954 212.620658 133.200227 
C 212.620658 133.376499 212.690691 133.545576 212.815335 133.67022 
C 212.939978 133.794863 213.109055 133.864897 213.285328 133.864897 
z
" clip-path="url(#pe0ff6e5bd8)" style="fill-opacity: 0.501961; stroke: #000000; stroke-opacity: 0.501961; stroke-width: 0.886227"/>
    <path d="M 225.657833 63.743158 
C 225.834106 63.743158 226.003183 63.673124 226.127826 63.54848 
C 226.25247 63.423837 226.322503 63.25476 226.322503 63.078488 
C 226.322503 62.902215 226.25247 62.733138 226.127826 62.608495 
C 226.003183 62.483851 225.834106 62.413817 225.657833 62.413817 
C 225.481561 62.413817 225.312484 62.483851 225.18784 62.608495 
C 225.063197 62.733138 224.993163 62.902215 224.993163 63.078488 
C 224.993163 63.25476 225.063197 63.423837 225.18784 63.54848 
C 225.312484 63.673124 225.481561 63.743158 225.657833 63.743158 
z
" clip-path="url(#pe0ff6e5bd8)" style="fill-opacity: 0.501961; stroke: #000000; stroke-opacity: 0.501961; stroke-width: 0.886227"/>
    <path d="M 238.030339 76.890984 
C 238.206611 76.890984 238.375688 76.82095 238.500332 76.696306 
C 238.624975 76.571663 238.695009 76.402586 238.695009 76.226314 
C 238.695009 76.050041 238.624975 75.880964 238.500332 75.756321 
C 238.375688 75.631677 238.206611 75.561643 238.030339 75.561643 
C 237.854066 75.561643 237.68499 75.631677 237.560346 75.756321 
C 237.435702 75.880964 237.365669 76.050041 237.365669 76.226314 
C 237.365669 76.402586 237.435702 76.571663 237.560346 76.696306 
C 237.68499 76.82095 237.854066 76.890984 238.030339 76.890984 
z
" clip-path="url(#pe0ff6e5bd8)" style="fill-opacity: 0.501961; stroke: #000000; stroke-opacity: 0.501961; stroke-width: 0.886227"/>
    <path d="M 250.402844 90.03881 
C 250.579117 90.03881 250.748194 89.968776 250.872837 89.844133 
C 250.997481 89.719489 251.067515 89.550412 251.067515 89.37414 
C 251.067515 89.197867 250.997481 89.028791 250.872837 88.904147 
C 250.748194 88.779503 250.579117 88.70947 250.402844 88.70947 
C 250.226572 88.70947 250.057495 88.779503 249.932852 88.904147 
C 249.808208 89.028791 249.738174 89.197867 249.738174 89.37414 
C 249.738174 89.550412 249.808208 89.719489 249.932852 89.844133 
C 250.057495 89.968776 250.226572 90.03881 250.402844 90.03881 
z
" clip-path="url(#pe0ff6e5bd8)" style="fill-opacity: 0.501961; stroke: #000000; stroke-opacity: 0.501961; stroke-width: 0.886227"/>
    <path d="M 262.77535 54.97794 
C 262.951623 54.97794 263.120699 54.907907 263.245343 54.783263 
C 263.369986 54.658619 263.44002 54.489543 263.44002 54.31327 
C 263.44002 54.136998 263.369986 53.967921 263.245343 53.843277 
C 263.120699 53.718634 262.951623 53.6486 262.77535 53.6486 
C 262.599077 53.6486 262.430001 53.718634 262.305357 53.843277 
C 262.180714 53.967921 262.11068 54.136998 262.11068 54.31327 
C 262.11068 54.489543 262.180714 54.658619 262.305357 54.783263 
C 262.430001 54.907907 262.599077 54.97794 262.77535 54.97794 
z
" clip-path="url(#pe0ff6e5bd8)" style="fill-opacity: 0.501961; stroke: #000000; stroke-opacity: 0.501961; stroke-width: 0.886227"/>
    <path d="M 275.147855 59.360549 
C 275.324128 59.360549 275.493205 59.290515 275.617848 59.165872 
C 275.742492 59.041228 275.812526 58.872151 275.812526 58.695879 
C 275.812526 58.519606 275.742492 58.35053 275.617848 58.225886 
C 275.493205 58.101243 275.324128 58.031209 275.147855 58.031209 
C 274.971583 58.031209 274.802506 58.101243 274.677863 58.225886 
C 274.553219 58.35053 274.483185 58.519606 274.483185 58.695879 
C 274.483185 58.872151 274.553219 59.041228 274.677863 59.165872 
C 274.802506 59.290515 274.971583 59.360549 275.147855 59.360549 
z
" clip-path="url(#pe0ff6e5bd8)" style="fill-opacity: 0.501961; stroke: #000000; stroke-opacity: 0.501961; stroke-width: 0.886227"/>
    <path d="M 287.520361 46.212723 
C 287.696634 46.212723 287.86571 46.142689 287.990354 46.018046 
C 288.114997 45.893402 288.185031 45.724325 288.185031 45.548053 
C 288.185031 45.37178 288.114997 45.202704 287.990354 45.07806 
C 287.86571 44.953416 287.696634 44.883383 287.520361 44.883383 
C 287.344088 44.883383 287.175012 44.953416 287.050368 45.07806 
C 286.925725 45.202704 286.855691 45.37178 286.855691 45.548053 
C 286.855691 45.724325 286.925725 45.893402 287.050368 46.018046 
C 287.175012 46.142689 287.344088 46.212723 287.520361 46.212723 
z
" clip-path="url(#pe0ff6e5bd8)" style="fill-opacity: 0.501961; stroke: #000000; stroke-opacity: 0.501961; stroke-width: 0.886227"/>
    <path d="M 299.892867 46.212723 
C 300.069139 46.212723 300.238216 46.142689 300.362859 46.018046 
C 300.487503 45.893402 300.557537 45.724325 300.557537 45.548053 
C 300.557537 45.37178 300.487503 45.202704 300.362859 45.07806 
C 300.238216 44.953416 300.069139 44.883383 299.892867 44.883383 
C 299.716594 44.883383 299.547517 44.953416 299.422874 45.07806 
C 299.29823 45.202704 299.228196 45.37178 299.228196 45.548053 
C 299.228196 45.724325 299.29823 45.893402 299.422874 46.018046 
C 299.547517 46.142689 299.716594 46.212723 299.892867 46.212723 
z
" clip-path="url(#pe0ff6e5bd8)" style="fill-opacity: 0.501961; stroke: #000000; stroke-opacity: 0.501961; stroke-width: 0.886227"/>
   </g>
   <g id="patch_3">
    <path d="M 39.760938 40.508053 
L 318.760938 40.508053 
L 318.760938 24.508053 
L 39.760938 24.508053 
z
" style="fill: #d9d9d9; stroke: #d9d9d9; stroke-linejoin: miter"/>
   </g>
   <g id="PathCollection_2">
    <defs>
     <path id="meca32c0d75" d="M -2.215567 0 
L 2.215567 0 
M 0 2.215567 
L 0 -2.215567 
" style="stroke: #ff0000; stroke-width: 0.886227"/>
    </defs>
    <g clip-path="url(#pe0ff6e5bd8)">
     <use xlink:href="#meca32c0d75" x="287.520361" y="45.548053" style="fill: #ff0000; stroke: #ff0000; stroke-width: 0.886227"/>
    </g>
   </g>
   <g id="text_13">
    <!-- Brazil -->
    <g transform="translate(165.290625 35.247897)scale(0.1 -0.1)">
     <defs>
      <path id="Montserrat-Regular-42" d="M 730 0 
L 730 4480 
L 2662 4480 
Q 3411 4480 3824 4179 
Q 4237 3878 4237 3328 
Q 4237 2963 4067 2713 
Q 3898 2464 3606 2336 
Q 3315 2208 2970 2208 
L 3078 2362 
Q 3507 2362 3817 2230 
Q 4128 2099 4301 1840 
Q 4474 1581 4474 1197 
Q 4474 627 4054 313 
Q 3635 0 2790 0 
L 730 0 
z
M 1203 390 
L 2784 390 
Q 3373 390 3686 592 
Q 4000 794 4000 1235 
Q 4000 1670 3686 1872 
Q 3373 2074 2784 2074 
L 1152 2074 
L 1152 2464 
L 2630 2464 
Q 3168 2464 3465 2669 
Q 3763 2874 3763 3277 
Q 3763 3686 3465 3888 
Q 3168 4090 2630 4090 
L 1203 4090 
L 1203 390 
z
" transform="scale(0.015625)"/>
      <path id="Montserrat-Regular-7a" d="M 269 0 
L 269 301 
L 2509 3136 
L 2605 2982 
L 307 2982 
L 307 3360 
L 2963 3360 
L 2963 3066 
L 730 224 
L 614 378 
L 3008 378 
L 3008 0 
L 269 0 
z
" transform="scale(0.015625)"/>
      <path id="Montserrat-Regular-69" d="M 634 0 
L 634 3360 
L 1088 3360 
L 1088 0 
L 634 0 
z
M 864 4102 
Q 723 4102 627 4198 
Q 531 4294 531 4429 
Q 531 4563 627 4656 
Q 723 4749 864 4749 
Q 1005 4749 1101 4659 
Q 1197 4570 1197 4435 
Q 1197 4294 1104 4198 
Q 1011 4102 864 4102 
z
" transform="scale(0.015625)"/>
     </defs>
     <use xlink:href="#Montserrat-Regular-42"/>
     <use xlink:href="#Montserrat-Regular-72" x="75.399994"/>
     <use xlink:href="#Montserrat-Regular-61" x="115.499985"/>
     <use xlink:href="#Montserrat-Regular-7a" x="174.499969"/>
     <use xlink:href="#Montserrat-Regular-69" x="225.59996"/>
     <use xlink:href="#Montserrat-Regular-6c" x="252.499954"/>
    </g>
   </g>
  </g>
  <g id="text_14">
   <!-- Medals for Brazil at Summer Olympics -->
   <g transform="translate(78.889844 14.670312)scale(0.1 -0.1)">
    <defs>
     <path id="Montserrat-Regular-4d" d="M 730 0 
L 730 4480 
L 1120 4480 
L 3168 986 
L 2963 986 
L 4992 4480 
L 5382 4480 
L 5382 0 
L 4928 0 
L 4928 3770 
L 5037 3770 
L 3168 570 
L 2944 570 
L 1062 3770 
L 1184 3770 
L 1184 0 
L 730 0 
z
" transform="scale(0.015625)"/>
     <path id="Montserrat-Regular-20" transform="scale(0.015625)"/>
     <path id="Montserrat-Regular-66" d="M 710 0 
L 710 3782 
Q 710 4230 972 4505 
Q 1235 4781 1728 4781 
Q 1920 4781 2099 4729 
Q 2278 4678 2400 4570 
L 2246 4230 
Q 2150 4314 2022 4355 
Q 1894 4397 1747 4397 
Q 1459 4397 1305 4237 
Q 1152 4077 1152 3763 
L 1152 3251 
L 1165 3040 
L 1165 0 
L 710 0 
z
M 109 2982 
L 109 3360 
L 2189 3360 
L 2189 2982 
L 109 2982 
z
" transform="scale(0.015625)"/>
     <path id="Montserrat-Regular-6f" d="M 2003 -32 
Q 1517 -32 1129 189 
Q 742 410 518 797 
Q 294 1184 294 1683 
Q 294 2189 518 2573 
Q 742 2957 1126 3174 
Q 1510 3392 2003 3392 
Q 2502 3392 2889 3174 
Q 3277 2957 3497 2573 
Q 3718 2189 3718 1683 
Q 3718 1184 3497 797 
Q 3277 410 2886 189 
Q 2496 -32 2003 -32 
z
M 2003 371 
Q 2368 371 2649 534 
Q 2931 698 3094 995 
Q 3258 1293 3258 1683 
Q 3258 2080 3094 2374 
Q 2931 2669 2649 2832 
Q 2368 2995 2010 2995 
Q 1651 2995 1369 2832 
Q 1088 2669 921 2374 
Q 755 2080 755 1683 
Q 755 1293 921 995 
Q 1088 698 1369 534 
Q 1651 371 2003 371 
z
" transform="scale(0.015625)"/>
     <path id="Montserrat-Regular-74" d="M 1696 -32 
Q 1222 -32 966 224 
Q 710 480 710 947 
L 710 4102 
L 1165 4102 
L 1165 973 
Q 1165 678 1315 518 
Q 1466 358 1747 358 
Q 2048 358 2246 531 
L 2406 205 
Q 2272 83 2083 25 
Q 1894 -32 1696 -32 
z
M 109 2982 
L 109 3360 
L 2189 3360 
L 2189 2982 
L 109 2982 
z
" transform="scale(0.015625)"/>
     <path id="Montserrat-Regular-53" d="M 1965 -38 
Q 1466 -38 1008 125 
Q 550 288 301 544 
L 486 909 
Q 723 678 1123 521 
Q 1523 365 1965 365 
Q 2387 365 2652 470 
Q 2918 576 3043 755 
Q 3168 934 3168 1152 
Q 3168 1414 3017 1574 
Q 2867 1734 2624 1827 
Q 2381 1920 2086 1990 
Q 1792 2061 1497 2141 
Q 1203 2221 956 2355 
Q 710 2490 560 2710 
Q 410 2931 410 3290 
Q 410 3622 586 3900 
Q 762 4179 1126 4348 
Q 1491 4518 2061 4518 
Q 2438 4518 2809 4412 
Q 3181 4307 3450 4122 
L 3290 3744 
Q 3002 3936 2678 4025 
Q 2355 4115 2054 4115 
Q 1651 4115 1388 4006 
Q 1126 3898 1001 3715 
Q 877 3533 877 3302 
Q 877 3040 1027 2880 
Q 1178 2720 1424 2630 
Q 1670 2541 1964 2470 
Q 2259 2400 2550 2317 
Q 2842 2234 3088 2102 
Q 3334 1971 3484 1753 
Q 3635 1536 3635 1184 
Q 3635 858 3456 579 
Q 3277 301 2909 131 
Q 2541 -38 1965 -38 
z
" transform="scale(0.015625)"/>
     <path id="Montserrat-Regular-75" d="M 2022 -32 
Q 1594 -32 1274 128 
Q 954 288 778 608 
Q 602 928 602 1408 
L 602 3360 
L 1056 3360 
L 1056 1459 
Q 1056 922 1321 650 
Q 1587 378 2067 378 
Q 2419 378 2678 522 
Q 2938 666 3075 941 
Q 3213 1216 3213 1600 
L 3213 3360 
L 3667 3360 
L 3667 0 
L 3232 0 
L 3232 922 
L 3302 755 
Q 3142 384 2806 176 
Q 2470 -32 2022 -32 
z
" transform="scale(0.015625)"/>
     <path id="Montserrat-Regular-4f" d="M 2688 -38 
Q 2182 -38 1750 131 
Q 1318 301 1001 611 
Q 685 922 509 1334 
Q 333 1747 333 2240 
Q 333 2733 509 3145 
Q 685 3558 1001 3868 
Q 1318 4179 1747 4348 
Q 2176 4518 2688 4518 
Q 3194 4518 3622 4348 
Q 4051 4179 4368 3872 
Q 4685 3565 4861 3149 
Q 5037 2733 5037 2240 
Q 5037 1747 4861 1331 
Q 4685 915 4368 608 
Q 4051 301 3622 131 
Q 3194 -38 2688 -38 
z
M 2688 384 
Q 3091 384 3433 521 
Q 3776 659 4029 912 
Q 4282 1165 4422 1501 
Q 4563 1837 4563 2240 
Q 4563 2643 4422 2979 
Q 4282 3315 4029 3568 
Q 3776 3821 3433 3958 
Q 3091 4096 2688 4096 
Q 2285 4096 1939 3958 
Q 1594 3821 1341 3568 
Q 1088 3315 944 2979 
Q 800 2643 800 2240 
Q 800 1843 944 1504 
Q 1088 1165 1341 912 
Q 1594 659 1939 521 
Q 2285 384 2688 384 
z
" transform="scale(0.015625)"/>
     <path id="Montserrat-Regular-70" d="M 2368 -32 
Q 1933 -32 1581 169 
Q 1229 371 1021 752 
Q 813 1133 813 1683 
Q 813 2234 1017 2614 
Q 1222 2995 1574 3193 
Q 1926 3392 2368 3392 
Q 2848 3392 3229 3177 
Q 3610 2963 3827 2576 
Q 4045 2189 4045 1683 
Q 4045 1171 3827 787 
Q 3610 403 3229 185 
Q 2848 -32 2368 -32 
z
M 634 -1242 
L 634 3360 
L 1069 3360 
L 1069 2349 
L 1024 1677 
L 1088 998 
L 1088 -1242 
L 634 -1242 
z
M 2336 371 
Q 2694 371 2976 534 
Q 3258 698 3424 995 
Q 3590 1293 3590 1683 
Q 3590 2074 3424 2368 
Q 3258 2662 2976 2828 
Q 2694 2995 2336 2995 
Q 1978 2995 1693 2828 
Q 1408 2662 1245 2368 
Q 1082 2074 1082 1683 
Q 1082 1293 1245 995 
Q 1408 698 1693 534 
Q 1978 371 2336 371 
z
" transform="scale(0.015625)"/>
     <path id="Montserrat-Regular-63" d="M 2029 -32 
Q 1530 -32 1136 189 
Q 742 410 518 797 
Q 294 1184 294 1683 
Q 294 2189 518 2573 
Q 742 2957 1136 3174 
Q 1530 3392 2029 3392 
Q 2458 3392 2803 3225 
Q 3149 3059 3347 2726 
L 3008 2496 
Q 2835 2752 2579 2873 
Q 2323 2995 2022 2995 
Q 1664 2995 1376 2832 
Q 1088 2669 921 2374 
Q 755 2080 755 1683 
Q 755 1286 921 992 
Q 1088 698 1376 534 
Q 1664 371 2022 371 
Q 2323 371 2579 492 
Q 2835 614 3008 864 
L 3347 634 
Q 3149 307 2803 137 
Q 2458 -32 2029 -32 
z
" transform="scale(0.015625)"/>
    </defs>
    <use xlink:href="#Montserrat-Regular-4d"/>
    <use xlink:href="#Montserrat-Regular-65" x="95.499985"/>
    <use xlink:href="#Montserrat-Regular-64" x="155.899979"/>
    <use xlink:href="#Montserrat-Regular-61" x="223.699966"/>
    <use xlink:href="#Montserrat-Regular-6c" x="282.699951"/>
    <use xlink:href="#Montserrat-Regular-73" x="309.599945"/>
    <use xlink:href="#Montserrat-Regular-20" x="358.399933"/>
    <use xlink:href="#Montserrat-Regular-66" x="384.59993"/>
    <use xlink:href="#Montserrat-Regular-6f" x="418.499924"/>
    <use xlink:href="#Montserrat-Regular-72" x="481.199921"/>
    <use xlink:href="#Montserrat-Regular-20" x="521.299911"/>
    <use xlink:href="#Montserrat-Regular-42" x="547.499908"/>
    <use xlink:href="#Montserrat-Regular-72" x="622.899902"/>
    <use xlink:href="#Montserrat-Regular-61" x="662.999893"/>
    <use xlink:href="#Montserrat-Regular-7a" x="721.999878"/>
    <use xlink:href="#Montserrat-Regular-69" x="773.099869"/>
    <use xlink:href="#Montserrat-Regular-6c" x="799.999863"/>
    <use xlink:href="#Montserrat-Regular-20" x="826.899857"/>
    <use xlink:href="#Montserrat-Regular-61" x="853.099854"/>
    <use xlink:href="#Montserrat-Regular-74" x="912.099838"/>
    <use xlink:href="#Montserrat-Regular-20" x="952.699829"/>
    <use xlink:href="#Montserrat-Regular-53" x="978.899826"/>
    <use xlink:href="#Montserrat-Regular-75" x="1040.399811"/>
    <use xlink:href="#Montserrat-Regular-6d" x="1107.599808"/>
    <use xlink:href="#Montserrat-Regular-6d" x="1213.699799"/>
    <use xlink:href="#Montserrat-Regular-65" x="1319.799789"/>
    <use xlink:href="#Montserrat-Regular-72" x="1380.199783"/>
    <use xlink:href="#Montserrat-Regular-20" x="1420.299774"/>
    <use xlink:href="#Montserrat-Regular-4f" x="1446.499771"/>
    <use xlink:href="#Montserrat-Regular-6c" x="1530.399765"/>
    <use xlink:href="#Montserrat-Regular-79" x="1557.299759"/>
    <use xlink:href="#Montserrat-Regular-6d" x="1611.499756"/>
    <use xlink:href="#Montserrat-Regular-70" x="1717.599747"/>
    <use xlink:href="#Montserrat-Regular-69" x="1785.399734"/>
    <use xlink:href="#Montserrat-Regular-63" x="1812.299728"/>
    <use xlink:href="#Montserrat-Regular-73" x="1868.599716"/>
   </g>
  </g>
 </g>
 <defs>
  <clipPath id="pe0ff6e5bd8">
   <rect x="39.760938" y="40.508053" width="279" height="110.88"/>
  </clipPath>
 </defs>
</svg>
