<?xml version="1.0" encoding="utf-8" standalone="no"?>
<!DOCTYPE svg PUBLIC "-//W3C//DTD SVG 1.1//EN"
  "http://www.w3.org/Graphics/SVG/1.1/DTD/svg11.dtd">
<svg xmlns:xlink="http://www.w3.org/1999/xlink" width="325.960938pt" height="188.209928pt" viewBox="0 0 325.960938 188.209928" xmlns="http://www.w3.org/2000/svg" version="1.1">
 <metadata>
  <rdf:RDF xmlns:dc="http://purl.org/dc/elements/1.1/" xmlns:cc="http://creativecommons.org/ns#" xmlns:rdf="http://www.w3.org/1999/02/22-rdf-syntax-ns#">
   <cc:Work>
    <dc:type rdf:resource="http://purl.org/dc/dcmitype/StillImage"/>
    <dc:date>2024-08-08T08:27:25.240152</dc:date>
    <dc:format>image/svg+xml</dc:format>
    <dc:creator>
     <cc:Agent>
      <dc:title>Matplotlib v3.5.1, https://matplotlib.org/</dc:title>
     </cc:Agent>
    </dc:creator>
   </cc:Work>
  </rdf:RDF>
 </metadata>
 <defs>
  <style type="text/css">*{stroke-linejoin: round; stroke-linecap: butt}</style>
 </defs>
 <g id="figure_1">
  <g id="patch_1">
   <path d="M 0 188.209928 
L 325.960938 188.209928 
L 325.960938 0 
L 0 0 
z
" style="fill: #ffffff"/>
  </g>
  <g id="axes_1">
   <g id="patch_2">
    <path d="M 39.760938 151.388053 
L 318.760938 151.388053 
L 318.760938 40.508053 
L 39.760938 40.508053 
z
" style="fill: #ffffff"/>
   </g>
   <g id="line2d_1">
    <path d="M 77.187767 141.965444 
L 77.187767 141.965444 
L 89.560272 137.582835 
L 89.560272 137.582835 
L 101.932778 124.435009 
L 101.932778 124.435009 
L 114.305283 141.965444 
L 114.305283 141.965444 
L 126.677789 115.669792 
L 126.677789 115.669792 
L 139.050294 124.435009 
L 139.050294 124.435009 
L 151.4228 120.052401 
L 151.4228 120.052401 
L 163.795306 128.817618 
L 163.795306 128.817618 
L 176.167811 133.200227 
L 176.167811 133.200227 
L 188.540317 137.582835 
L 188.540317 137.582835 
L 200.912822 124.435009 
L 200.912822 124.435009 
L 213.285328 80.608922 
L 213.285328 80.608922 
L 219.471581 45.548053 
L 219.471581 45.548053 
L 231.844086 98.139357 
L 231.844086 98.139357 
L 244.216592 84.991531 
L 244.216592 84.991531 
L 256.589097 89.37414 
L 256.589097 89.37414 
L 268.961603 124.435009 
L 268.961603 124.435009 
L 281.334108 111.287183 
L 281.334108 111.287183 
L 293.706614 102.521966 
L 293.706614 102.521966 
L 306.079119 63.078488 
L 306.079119 63.078488 
" clip-path="url(#pb7cb53b3a1)" style="fill: none; stroke: #000000; stroke-width: 0.886227"/>
   </g>
   <g id="matplotlib.axis_1">
    <g id="xtick_1">
     <g id="line2d_2">
      <defs>
       <path id="m130f918ed5" d="M 0 0 
L 0 3.5 
" style="stroke: #000000; stroke-width: 0.8"/>
      </defs>
      <g>
       <use xlink:href="#m130f918ed5" x="52.442756" y="151.388053" style="stroke: #000000; stroke-width: 0.8"/>
      </g>
     </g>
     <g id="text_1">
      <!-- 1940 -->
      <g transform="translate(40.977912 164.708365)scale(0.1 -0.1)">
       <defs>
        <path id="Montserrat-Regular-31" d="M 1114 0 
L 1114 4288 
L 1318 4070 
L 58 4070 
L 58 4480 
L 1574 4480 
L 1574 0 
L 1114 0 
z
" transform="scale(0.015625)"/>
        <path id="Montserrat-Regular-39" d="M 1728 4518 
Q 2323 4518 2732 4252 
Q 3142 3987 3353 3488 
Q 3565 2989 3565 2278 
Q 3565 1523 3305 1004 
Q 3046 486 2585 224 
Q 2125 -38 1517 -38 
Q 1216 -38 944 19 
Q 672 77 454 205 
L 640 576 
Q 813 461 1040 413 
Q 1267 365 1510 365 
Q 2234 365 2666 825 
Q 3098 1286 3098 2202 
Q 3098 2349 3082 2553 
Q 3066 2758 3008 2963 
L 3168 2842 
Q 3104 2509 2896 2275 
Q 2688 2042 2384 1920 
Q 2080 1798 1709 1798 
Q 1267 1798 924 1964 
Q 582 2131 390 2432 
Q 198 2733 198 3142 
Q 198 3565 396 3872 
Q 595 4179 944 4348 
Q 1293 4518 1728 4518 
z
M 1747 4128 
Q 1427 4128 1180 4009 
Q 934 3891 793 3673 
Q 653 3456 653 3155 
Q 653 2714 957 2451 
Q 1261 2189 1779 2189 
Q 2125 2189 2384 2317 
Q 2643 2445 2787 2669 
Q 2931 2893 2931 3168 
Q 2931 3418 2796 3635 
Q 2662 3853 2400 3990 
Q 2138 4128 1747 4128 
z
" transform="scale(0.015625)"/>
        <path id="Montserrat-Regular-34" d="M 256 1178 
L 256 1510 
L 2630 4480 
L 3142 4480 
L 787 1510 
L 538 1587 
L 4141 1587 
L 4141 1178 
L 256 1178 
z
M 2784 0 
L 2784 1178 
L 2797 1587 
L 2797 2624 
L 3245 2624 
L 3245 0 
L 2784 0 
z
" transform="scale(0.015625)"/>
        <path id="Montserrat-Regular-30" d="M 2118 -38 
Q 1600 -38 1197 234 
Q 794 506 563 1014 
Q 333 1523 333 2240 
Q 333 2957 563 3465 
Q 794 3974 1197 4246 
Q 1600 4518 2118 4518 
Q 2637 4518 3040 4246 
Q 3443 3974 3676 3465 
Q 3910 2957 3910 2240 
Q 3910 1523 3676 1014 
Q 3443 506 3040 234 
Q 2637 -38 2118 -38 
z
M 2118 384 
Q 2515 384 2809 598 
Q 3104 813 3270 1225 
Q 3437 1638 3437 2240 
Q 3437 2842 3270 3254 
Q 3104 3667 2809 3881 
Q 2515 4096 2118 4096 
Q 1734 4096 1433 3881 
Q 1133 3667 966 3254 
Q 800 2842 800 2240 
Q 800 1638 966 1225 
Q 1133 813 1433 598 
Q 1734 384 2118 384 
z
" transform="scale(0.015625)"/>
       </defs>
       <use xlink:href="#Montserrat-Regular-31"/>
       <use xlink:href="#Montserrat-Regular-39" x="36.099991"/>
       <use xlink:href="#Montserrat-Regular-34" x="96.999985"/>
       <use xlink:href="#Montserrat-Regular-30" x="163.099976"/>
      </g>
     </g>
    </g>
    <g id="xtick_2">
     <g id="line2d_3">
      <g>
       <use xlink:href="#m130f918ed5" x="114.305283" y="151.388053" style="stroke: #000000; stroke-width: 0.8"/>
      </g>
     </g>
     <g id="text_2">
      <!-- 1960 -->
      <g transform="translate(103.099815 164.708365)scale(0.1 -0.1)">
       <defs>
        <path id="Montserrat-Regular-36" d="M 2170 -38 
Q 1574 -38 1164 227 
Q 755 493 544 995 
Q 333 1498 333 2202 
Q 333 2963 592 3478 
Q 851 3994 1312 4256 
Q 1773 4518 2381 4518 
Q 2682 4518 2957 4460 
Q 3232 4403 3443 4275 
L 3258 3904 
Q 3085 4019 2861 4067 
Q 2637 4115 2387 4115 
Q 1664 4115 1232 3654 
Q 800 3194 800 2278 
Q 800 2138 816 1930 
Q 832 1722 890 1517 
L 730 1638 
Q 800 1971 1005 2204 
Q 1210 2438 1517 2560 
Q 1824 2682 2189 2682 
Q 2637 2682 2976 2515 
Q 3315 2349 3507 2048 
Q 3699 1747 3699 1338 
Q 3699 922 3500 611 
Q 3302 301 2953 131 
Q 2605 -38 2170 -38 
z
M 2150 352 
Q 2470 352 2716 470 
Q 2963 589 3104 809 
Q 3245 1030 3245 1325 
Q 3245 1766 2941 2028 
Q 2637 2291 2118 2291 
Q 1773 2291 1517 2163 
Q 1261 2035 1113 1814 
Q 966 1594 966 1312 
Q 966 1069 1100 848 
Q 1235 627 1500 489 
Q 1766 352 2150 352 
z
" transform="scale(0.015625)"/>
       </defs>
       <use xlink:href="#Montserrat-Regular-31"/>
       <use xlink:href="#Montserrat-Regular-39" x="36.099991"/>
       <use xlink:href="#Montserrat-Regular-36" x="96.999985"/>
       <use xlink:href="#Montserrat-Regular-30" x="157.899979"/>
      </g>
     </g>
    </g>
    <g id="xtick_3">
     <g id="line2d_4">
      <g>
       <use xlink:href="#m130f918ed5" x="176.167811" y="151.388053" style="stroke: #000000; stroke-width: 0.8"/>
      </g>
     </g>
     <g id="text_3">
      <!-- 1980 -->
      <g transform="translate(164.817811 164.708365)scale(0.1 -0.1)">
       <defs>
        <path id="Montserrat-Regular-38" d="M 2035 -38 
Q 1498 -38 1110 115 
Q 723 269 515 560 
Q 307 851 307 1248 
Q 307 1632 508 1904 
Q 710 2176 1097 2323 
Q 1485 2470 2035 2470 
Q 2579 2470 2969 2323 
Q 3360 2176 3568 1904 
Q 3776 1632 3776 1248 
Q 3776 851 3565 560 
Q 3354 269 2963 115 
Q 2573 -38 2035 -38 
z
M 2035 352 
Q 2630 352 2966 595 
Q 3302 838 3302 1254 
Q 3302 1670 2966 1910 
Q 2630 2150 2035 2150 
Q 1440 2150 1107 1910 
Q 774 1670 774 1254 
Q 774 838 1107 595 
Q 1440 352 2035 352 
z
M 2035 2208 
Q 1536 2208 1187 2342 
Q 838 2477 652 2729 
Q 467 2982 467 3334 
Q 467 3706 662 3971 
Q 858 4237 1210 4377 
Q 1562 4518 2035 4518 
Q 2509 4518 2864 4377 
Q 3219 4237 3417 3971 
Q 3616 3706 3616 3334 
Q 3616 2982 3430 2729 
Q 3245 2477 2889 2342 
Q 2534 2208 2035 2208 
z
M 2035 2515 
Q 2560 2515 2854 2732 
Q 3149 2950 3149 3315 
Q 3149 3699 2845 3913 
Q 2541 4128 2035 4128 
Q 1530 4128 1229 3913 
Q 928 3699 928 3322 
Q 928 2950 1219 2732 
Q 1510 2515 2035 2515 
z
" transform="scale(0.015625)"/>
       </defs>
       <use xlink:href="#Montserrat-Regular-31"/>
       <use xlink:href="#Montserrat-Regular-39" x="36.099991"/>
       <use xlink:href="#Montserrat-Regular-38" x="96.999985"/>
       <use xlink:href="#Montserrat-Regular-30" x="160.799973"/>
      </g>
     </g>
    </g>
    <g id="xtick_4">
     <g id="line2d_5">
      <g>
       <use xlink:href="#m130f918ed5" x="238.030339" y="151.388053" style="stroke: #000000; stroke-width: 0.8"/>
      </g>
     </g>
     <g id="text_4">
      <!-- 2000 -->
      <g transform="translate(225.260026 164.708365)scale(0.1 -0.1)">
       <defs>
        <path id="Montserrat-Regular-32" d="M 250 0 
L 250 326 
L 2112 2150 
Q 2368 2400 2496 2589 
Q 2624 2778 2669 2944 
Q 2714 3110 2714 3258 
Q 2714 3648 2448 3872 
Q 2182 4096 1664 4096 
Q 1267 4096 963 3974 
Q 659 3853 442 3597 
L 115 3878 
Q 378 4186 787 4352 
Q 1197 4518 1702 4518 
Q 2157 4518 2489 4374 
Q 2822 4230 3004 3955 
Q 3187 3680 3187 3309 
Q 3187 3091 3126 2880 
Q 3066 2669 2909 2435 
Q 2752 2202 2451 1907 
L 742 230 
L 614 410 
L 3392 410 
L 3392 0 
L 250 0 
z
" transform="scale(0.015625)"/>
       </defs>
       <use xlink:href="#Montserrat-Regular-32"/>
       <use xlink:href="#Montserrat-Regular-30" x="56.799988"/>
       <use xlink:href="#Montserrat-Regular-30" x="122.999985"/>
       <use xlink:href="#Montserrat-Regular-30" x="189.199982"/>
      </g>
     </g>
    </g>
    <g id="xtick_5">
     <g id="line2d_6">
      <g>
       <use xlink:href="#m130f918ed5" x="299.892867" y="151.388053" style="stroke: #000000; stroke-width: 0.8"/>
      </g>
     </g>
     <g id="text_5">
      <!-- 2020 -->
      <g transform="translate(287.592867 164.708365)scale(0.1 -0.1)">
       <use xlink:href="#Montserrat-Regular-32"/>
       <use xlink:href="#Montserrat-Regular-30" x="56.799988"/>
       <use xlink:href="#Montserrat-Regular-32" x="122.999985"/>
       <use xlink:href="#Montserrat-Regular-30" x="179.799973"/>
      </g>
     </g>
    </g>
    <g id="xtick_6">
     <g id="line2d_7">
      <defs>
       <path id="m469441b74c" d="M 0 0 
L 0 2 
" style="stroke: #000000; stroke-width: 0.6"/>
      </defs>
      <g>
       <use xlink:href="#m469441b74c" x="83.37402" y="151.388053" style="stroke: #000000; stroke-width: 0.6"/>
      </g>
     </g>
    </g>
    <g id="xtick_7">
     <g id="line2d_8">
      <g>
       <use xlink:href="#m469441b74c" x="145.236547" y="151.388053" style="stroke: #000000; stroke-width: 0.6"/>
      </g>
     </g>
    </g>
    <g id="xtick_8">
     <g id="line2d_9">
      <g>
       <use xlink:href="#m469441b74c" x="207.099075" y="151.388053" style="stroke: #000000; stroke-width: 0.6"/>
      </g>
     </g>
    </g>
    <g id="xtick_9">
     <g id="line2d_10">
      <g>
       <use xlink:href="#m469441b74c" x="268.961603" y="151.388053" style="stroke: #000000; stroke-width: 0.6"/>
      </g>
     </g>
    </g>
    <g id="text_6">
     <!-- year -->
     <g transform="translate(164.075781 179.019303)scale(0.1 -0.1)">
      <defs>
       <path id="Montserrat-Regular-79" d="M 659 -1274 
Q 422 -1274 208 -1197 
Q -6 -1120 -160 -966 
L 51 -627 
Q 179 -749 329 -816 
Q 480 -883 666 -883 
Q 890 -883 1053 -758 
Q 1216 -634 1363 -320 
L 1581 173 
L 1632 243 
L 3014 3360 
L 3462 3360 
L 1779 -403 
Q 1638 -730 1468 -922 
Q 1299 -1114 1100 -1194 
Q 902 -1274 659 -1274 
z
M 1555 -96 
L 6 3360 
L 480 3360 
L 1850 275 
L 1555 -96 
z
" transform="scale(0.015625)"/>
       <path id="Montserrat-Regular-65" d="M 2061 -32 
Q 1536 -32 1139 189 
Q 742 410 518 797 
Q 294 1184 294 1683 
Q 294 2182 508 2566 
Q 723 2950 1097 3171 
Q 1472 3392 1939 3392 
Q 2413 3392 2781 3177 
Q 3149 2963 3360 2576 
Q 3571 2189 3571 1683 
Q 3571 1651 3568 1616 
Q 3565 1581 3565 1542 
L 640 1542 
L 640 1882 
L 3322 1882 
L 3142 1747 
Q 3142 2112 2985 2397 
Q 2829 2682 2560 2842 
Q 2291 3002 1939 3002 
Q 1594 3002 1318 2842 
Q 1043 2682 889 2394 
Q 736 2106 736 1734 
L 736 1664 
Q 736 1280 905 989 
Q 1075 698 1379 534 
Q 1683 371 2074 371 
Q 2381 371 2646 480 
Q 2912 589 3104 813 
L 3360 518 
Q 3136 250 2800 109 
Q 2464 -32 2061 -32 
z
" transform="scale(0.015625)"/>
       <path id="Montserrat-Regular-61" d="M 2739 0 
L 2739 742 
L 2720 864 
L 2720 2106 
Q 2720 2534 2480 2764 
Q 2240 2995 1766 2995 
Q 1440 2995 1145 2886 
Q 851 2778 646 2598 
L 442 2938 
Q 698 3155 1056 3273 
Q 1414 3392 1811 3392 
Q 2464 3392 2819 3069 
Q 3174 2746 3174 2086 
L 3174 0 
L 2739 0 
z
M 1581 -32 
Q 1203 -32 924 93 
Q 646 218 499 438 
Q 352 659 352 947 
Q 352 1210 477 1424 
Q 602 1638 886 1769 
Q 1171 1901 1651 1901 
L 2810 1901 
L 2810 1562 
L 1664 1562 
Q 1178 1562 989 1389 
Q 800 1216 800 960 
Q 800 672 1024 499 
Q 1248 326 1651 326 
Q 2035 326 2313 502 
Q 2592 678 2720 1011 
L 2822 698 
Q 2694 365 2377 166 
Q 2061 -32 1581 -32 
z
" transform="scale(0.015625)"/>
       <path id="Montserrat-Regular-72" d="M 634 0 
L 634 3360 
L 1069 3360 
L 1069 2445 
L 1024 2605 
Q 1165 2989 1497 3190 
Q 1830 3392 2323 3392 
L 2323 2950 
Q 2298 2950 2272 2953 
Q 2246 2957 2221 2957 
Q 1690 2957 1389 2633 
Q 1088 2310 1088 1715 
L 1088 0 
L 634 0 
z
" transform="scale(0.015625)"/>
      </defs>
      <use xlink:href="#Montserrat-Regular-79"/>
      <use xlink:href="#Montserrat-Regular-65" x="54.199997"/>
      <use xlink:href="#Montserrat-Regular-61" x="114.599991"/>
      <use xlink:href="#Montserrat-Regular-72" x="173.599976"/>
     </g>
    </g>
   </g>
   <g id="matplotlib.axis_2">
    <g id="ytick_1">
     <g id="line2d_11">
      <defs>
       <path id="mc24057fa77" d="M 0 0 
L -3.5 0 
" style="stroke: #000000; stroke-width: 0.8"/>
      </defs>
      <g>
       <use xlink:href="#mc24057fa77" x="39.760938" y="146.348053" style="stroke: #000000; stroke-width: 0.8"/>
      </g>
     </g>
     <g id="text_7">
      <!-- 0 -->
      <g transform="translate(27.240625 150.058209)scale(0.1 -0.1)">
       <use xlink:href="#Montserrat-Regular-30"/>
      </g>
     </g>
    </g>
    <g id="ytick_2">
     <g id="line2d_12">
      <g>
       <use xlink:href="#mc24057fa77" x="39.760938" y="124.435009" style="stroke: #000000; stroke-width: 0.8"/>
      </g>
     </g>
     <g id="text_8">
      <!-- 5 -->
      <g transform="translate(28.201563 128.145166)scale(0.1 -0.1)">
       <defs>
        <path id="Montserrat-Regular-35" d="M 1747 -38 
Q 1267 -38 832 118 
Q 397 275 141 538 
L 365 902 
Q 576 678 944 531 
Q 1312 384 1741 384 
Q 2310 384 2608 637 
Q 2906 890 2906 1299 
Q 2906 1587 2768 1795 
Q 2630 2003 2304 2118 
Q 1978 2234 1408 2234 
L 454 2234 
L 685 4480 
L 3136 4480 
L 3136 4070 
L 870 4070 
L 1107 4294 
L 909 2413 
L 672 2643 
L 1510 2643 
Q 2189 2643 2598 2476 
Q 3008 2310 3190 2012 
Q 3373 1715 3373 1318 
Q 3373 941 3193 630 
Q 3014 320 2656 141 
Q 2298 -38 1747 -38 
z
" transform="scale(0.015625)"/>
       </defs>
       <use xlink:href="#Montserrat-Regular-35"/>
      </g>
     </g>
    </g>
    <g id="ytick_3">
     <g id="line2d_13">
      <g>
       <use xlink:href="#mc24057fa77" x="39.760938" y="102.521966" style="stroke: #000000; stroke-width: 0.8"/>
      </g>
     </g>
     <g id="text_9">
      <!-- 10 -->
      <g transform="translate(23.63125 106.232122)scale(0.1 -0.1)">
       <use xlink:href="#Montserrat-Regular-31"/>
       <use xlink:href="#Montserrat-Regular-30" x="36.099991"/>
      </g>
     </g>
    </g>
    <g id="ytick_4">
     <g id="line2d_14">
      <g>
       <use xlink:href="#mc24057fa77" x="39.760938" y="80.608922" style="stroke: #000000; stroke-width: 0.8"/>
      </g>
     </g>
     <g id="text_10">
      <!-- 15 -->
      <g transform="translate(24.592188 84.319079)scale(0.1 -0.1)">
       <use xlink:href="#Montserrat-Regular-31"/>
       <use xlink:href="#Montserrat-Regular-35" x="36.099991"/>
      </g>
     </g>
    </g>
    <g id="ytick_5">
     <g id="line2d_15">
      <g>
       <use xlink:href="#mc24057fa77" x="39.760938" y="58.695879" style="stroke: #000000; stroke-width: 0.8"/>
      </g>
     </g>
     <g id="text_11">
      <!-- 20 -->
      <g transform="translate(21.560938 62.406035)scale(0.1 -0.1)">
       <use xlink:href="#Montserrat-Regular-32"/>
       <use xlink:href="#Montserrat-Regular-30" x="56.799988"/>
      </g>
     </g>
    </g>
    <g id="ytick_6">
     <g id="line2d_16">
      <defs>
       <path id="m183b1b356b" d="M 0 0 
L -2 0 
" style="stroke: #000000; stroke-width: 0.6"/>
      </defs>
      <g>
       <use xlink:href="#m183b1b356b" x="39.760938" y="135.391531" style="stroke: #000000; stroke-width: 0.6"/>
      </g>
     </g>
    </g>
    <g id="ytick_7">
     <g id="line2d_17">
      <g>
       <use xlink:href="#m183b1b356b" x="39.760938" y="113.478488" style="stroke: #000000; stroke-width: 0.6"/>
      </g>
     </g>
    </g>
    <g id="ytick_8">
     <g id="line2d_18">
      <g>
       <use xlink:href="#m183b1b356b" x="39.760938" y="91.565444" style="stroke: #000000; stroke-width: 0.6"/>
      </g>
     </g>
    </g>
    <g id="ytick_9">
     <g id="line2d_19">
      <g>
       <use xlink:href="#m183b1b356b" x="39.760938" y="69.652401" style="stroke: #000000; stroke-width: 0.6"/>
      </g>
     </g>
    </g>
    <g id="ytick_10">
     <g id="line2d_20">
      <g>
       <use xlink:href="#m183b1b356b" x="39.760938" y="47.739357" style="stroke: #000000; stroke-width: 0.6"/>
      </g>
     </g>
    </g>
    <g id="text_12">
     <!-- medals -->
     <g transform="translate(14.620313 113.678053)rotate(-90)scale(0.1 -0.1)">
      <defs>
       <path id="Montserrat-Regular-6d" d="M 4832 3392 
Q 5242 3392 5546 3235 
Q 5850 3078 6019 2758 
Q 6189 2438 6189 1952 
L 6189 0 
L 5734 0 
L 5734 1907 
Q 5734 2438 5481 2710 
Q 5229 2982 4768 2982 
Q 4422 2982 4169 2838 
Q 3917 2694 3779 2422 
Q 3642 2150 3642 1766 
L 3642 0 
L 3187 0 
L 3187 1907 
Q 3187 2438 2931 2710 
Q 2675 2982 2214 2982 
Q 1875 2982 1619 2838 
Q 1363 2694 1225 2422 
Q 1088 2150 1088 1766 
L 1088 0 
L 634 0 
L 634 3360 
L 1069 3360 
L 1069 2451 
L 998 2611 
Q 1152 2976 1494 3184 
Q 1837 3392 2304 3392 
Q 2797 3392 3142 3145 
Q 3488 2899 3590 2406 
L 3411 2477 
Q 3558 2886 3932 3139 
Q 4307 3392 4832 3392 
z
" transform="scale(0.015625)"/>
       <path id="Montserrat-Regular-64" d="M 1971 -32 
Q 1491 -32 1110 185 
Q 730 403 512 790 
Q 294 1178 294 1683 
Q 294 2195 512 2579 
Q 730 2963 1110 3177 
Q 1491 3392 1971 3392 
Q 2413 3392 2761 3193 
Q 3110 2995 3318 2614 
Q 3526 2234 3526 1683 
Q 3526 1139 3321 755 
Q 3117 371 2768 169 
Q 2419 -32 1971 -32 
z
M 2003 371 
Q 2362 371 2646 534 
Q 2931 698 3094 995 
Q 3258 1293 3258 1683 
Q 3258 2080 3094 2374 
Q 2931 2669 2646 2832 
Q 2362 2995 2003 2995 
Q 1651 2995 1369 2832 
Q 1088 2669 921 2374 
Q 755 2080 755 1683 
Q 755 1293 921 995 
Q 1088 698 1369 534 
Q 1651 371 2003 371 
z
M 3270 0 
L 3270 1011 
L 3315 1690 
L 3251 2368 
L 3251 4749 
L 3706 4749 
L 3706 0 
L 3270 0 
z
" transform="scale(0.015625)"/>
       <path id="Montserrat-Regular-6c" d="M 634 0 
L 634 4749 
L 1088 4749 
L 1088 0 
L 634 0 
z
" transform="scale(0.015625)"/>
       <path id="Montserrat-Regular-73" d="M 1536 -32 
Q 1120 -32 749 86 
Q 378 205 166 384 
L 371 742 
Q 576 589 896 477 
Q 1216 365 1568 365 
Q 2048 365 2259 515 
Q 2470 666 2470 915 
Q 2470 1101 2352 1206 
Q 2234 1312 2042 1366 
Q 1850 1421 1613 1459 
Q 1376 1498 1142 1549 
Q 909 1600 717 1699 
Q 525 1798 406 1971 
Q 288 2144 288 2432 
Q 288 2707 441 2924 
Q 595 3142 892 3267 
Q 1190 3392 1619 3392 
Q 1946 3392 2272 3305 
Q 2598 3219 2810 3078 
L 2611 2714 
Q 2387 2867 2131 2934 
Q 1875 3002 1619 3002 
Q 1165 3002 950 2845 
Q 736 2688 736 2445 
Q 736 2253 854 2144 
Q 973 2035 1168 1974 
Q 1363 1914 1596 1875 
Q 1830 1837 2064 1782 
Q 2298 1728 2493 1635 
Q 2688 1542 2806 1372 
Q 2925 1203 2925 928 
Q 2925 634 2761 419 
Q 2598 205 2288 86 
Q 1978 -32 1536 -32 
z
" transform="scale(0.015625)"/>
      </defs>
      <use xlink:href="#Montserrat-Regular-6d"/>
      <use xlink:href="#Montserrat-Regular-65" x="106.099991"/>
      <use xlink:href="#Montserrat-Regular-64" x="166.499985"/>
      <use xlink:href="#Montserrat-Regular-61" x="234.299973"/>
      <use xlink:href="#Montserrat-Regular-6c" x="293.299957"/>
      <use xlink:href="#Montserrat-Regular-73" x="320.199951"/>
     </g>
    </g>
   </g>
   <g id="PathCollection_1">
    <path d="M 77.187767 142.630114 
C 77.364039 142.630114 77.533116 142.56008 77.65776 142.435437 
C 77.782403 142.310793 77.852437 142.141717 77.852437 141.965444 
C 77.852437 141.789172 77.782403 141.620095 77.65776 141.495451 
C 77.533116 141.370808 77.364039 141.300774 77.187767 141.300774 
C 77.011494 141.300774 76.842418 141.370808 76.717774 141.495451 
C 76.59313 141.620095 76.523097 141.789172 76.523097 141.965444 
C 76.523097 142.141717 76.59313 142.310793 76.717774 142.435437 
C 76.842418 142.56008 77.011494 142.630114 77.187767 142.630114 
z
" clip-path="url(#pb7cb53b3a1)" style="fill-opacity: 0.501961; stroke: #000000; stroke-opacity: 0.501961; stroke-width: 0.886227"/>
    <path d="M 89.560272 138.247506 
C 89.736545 138.247506 89.905622 138.177472 90.030265 138.052828 
C 90.154909 137.928185 90.224943 137.759108 90.224943 137.582835 
C 90.224943 137.406563 90.154909 137.237486 90.030265 137.112843 
C 89.905622 136.988199 89.736545 136.918165 89.560272 136.918165 
C 89.384 136.918165 89.214923 136.988199 89.09028 137.112843 
C 88.965636 137.237486 88.895602 137.406563 88.895602 137.582835 
C 88.895602 137.759108 88.965636 137.928185 89.09028 138.052828 
C 89.214923 138.177472 89.384 138.247506 89.560272 138.247506 
z
" clip-path="url(#pb7cb53b3a1)" style="fill-opacity: 0.501961; stroke: #000000; stroke-opacity: 0.501961; stroke-width: 0.886227"/>
    <path d="M 101.932778 125.09968 
C 102.10905 125.09968 102.278127 125.029646 102.402771 124.905002 
C 102.527414 124.780359 102.597448 124.611282 102.597448 124.435009 
C 102.597448 124.258737 102.527414 124.08966 102.402771 123.965017 
C 102.278127 123.840373 102.10905 123.770339 101.932778 123.770339 
C 101.756505 123.770339 101.587429 123.840373 101.462785 123.965017 
C 101.338142 124.08966 101.268108 124.258737 101.268108 124.435009 
C 101.268108 124.611282 101.338142 124.780359 101.462785 124.905002 
C 101.587429 125.029646 101.756505 125.09968 101.932778 125.09968 
z
" clip-path="url(#pb7cb53b3a1)" style="fill-opacity: 0.501961; stroke: #000000; stroke-opacity: 0.501961; stroke-width: 0.886227"/>
    <path d="M 114.305283 142.630114 
C 114.481556 142.630114 114.650633 142.56008 114.775276 142.435437 
C 114.89992 142.310793 114.969954 142.141717 114.969954 141.965444 
C 114.969954 141.789172 114.89992 141.620095 114.775276 141.495451 
C 114.650633 141.370808 114.481556 141.300774 114.305283 141.300774 
C 114.129011 141.300774 113.959934 141.370808 113.835291 141.495451 
C 113.710647 141.620095 113.640613 141.789172 113.640613 141.965444 
C 113.640613 142.141717 113.710647 142.310793 113.835291 142.435437 
C 113.959934 142.56008 114.129011 142.630114 114.305283 142.630114 
z
" clip-path="url(#pb7cb53b3a1)" style="fill-opacity: 0.501961; stroke: #000000; stroke-opacity: 0.501961; stroke-width: 0.886227"/>
    <path d="M 126.677789 116.334462 
C 126.854062 116.334462 127.023138 116.264428 127.147782 116.139785 
C 127.272425 116.015141 127.342459 115.846065 127.342459 115.669792 
C 127.342459 115.493519 127.272425 115.324443 127.147782 115.199799 
C 127.023138 115.075156 126.854062 115.005122 126.677789 115.005122 
C 126.501516 115.005122 126.33244 115.075156 126.207796 115.199799 
C 126.083153 115.324443 126.013119 115.493519 126.013119 115.669792 
C 126.013119 115.846065 126.083153 116.015141 126.207796 116.139785 
C 126.33244 116.264428 126.501516 116.334462 126.677789 116.334462 
z
" clip-path="url(#pb7cb53b3a1)" style="fill-opacity: 0.501961; stroke: #000000; stroke-opacity: 0.501961; stroke-width: 0.886227"/>
    <path d="M 139.050294 125.09968 
C 139.226567 125.09968 139.395644 125.029646 139.520287 124.905002 
C 139.644931 124.780359 139.714965 124.611282 139.714965 124.435009 
C 139.714965 124.258737 139.644931 124.08966 139.520287 123.965017 
C 139.395644 123.840373 139.226567 123.770339 139.050294 123.770339 
C 138.874022 123.770339 138.704945 123.840373 138.580302 123.965017 
C 138.455658 124.08966 138.385624 124.258737 138.385624 124.435009 
C 138.385624 124.611282 138.455658 124.780359 138.580302 124.905002 
C 138.704945 125.029646 138.874022 125.09968 139.050294 125.09968 
z
" clip-path="url(#pb7cb53b3a1)" style="fill-opacity: 0.501961; stroke: #000000; stroke-opacity: 0.501961; stroke-width: 0.886227"/>
    <path d="M 151.4228 120.717071 
C 151.599073 120.717071 151.768149 120.647037 151.892793 120.522393 
C 152.017436 120.39775 152.08747 120.228673 152.08747 120.052401 
C 152.08747 119.876128 152.017436 119.707051 151.892793 119.582408 
C 151.768149 119.457764 151.599073 119.38773 151.4228 119.38773 
C 151.246527 119.38773 151.077451 119.457764 150.952807 119.582408 
C 150.828164 119.707051 150.75813 119.876128 150.75813 120.052401 
C 150.75813 120.228673 150.828164 120.39775 150.952807 120.522393 
C 151.077451 120.647037 151.246527 120.717071 151.4228 120.717071 
z
" clip-path="url(#pb7cb53b3a1)" style="fill-opacity: 0.501961; stroke: #000000; stroke-opacity: 0.501961; stroke-width: 0.886227"/>
    <path d="M 163.795306 129.482288 
C 163.971578 129.482288 164.140655 129.412254 164.265298 129.287611 
C 164.389942 129.162967 164.459976 128.993891 164.459976 128.817618 
C 164.459976 128.641345 164.389942 128.472269 164.265298 128.347625 
C 164.140655 128.222982 163.971578 128.152948 163.795306 128.152948 
C 163.619033 128.152948 163.449956 128.222982 163.325313 128.347625 
C 163.200669 128.472269 163.130635 128.641345 163.130635 128.817618 
C 163.130635 128.993891 163.200669 129.162967 163.325313 129.287611 
C 163.449956 129.412254 163.619033 129.482288 163.795306 129.482288 
z
" clip-path="url(#pb7cb53b3a1)" style="fill-opacity: 0.501961; stroke: #000000; stroke-opacity: 0.501961; stroke-width: 0.886227"/>
    <path d="M 176.167811 133.864897 
C 176.344084 133.864897 176.51316 133.794863 176.637804 133.67022 
C 176.762447 133.545576 176.832481 133.376499 176.832481 133.200227 
C 176.832481 133.023954 176.762447 132.854877 176.637804 132.730234 
C 176.51316 132.60559 176.344084 132.535557 176.167811 132.535557 
C 175.991539 132.535557 175.822462 132.60559 175.697818 132.730234 
C 175.573175 132.854877 175.503141 133.023954 175.503141 133.200227 
C 175.503141 133.376499 175.573175 133.545576 175.697818 133.67022 
C 175.822462 133.794863 175.991539 133.864897 176.167811 133.864897 
z
" clip-path="url(#pb7cb53b3a1)" style="fill-opacity: 0.501961; stroke: #000000; stroke-opacity: 0.501961; stroke-width: 0.886227"/>
    <path d="M 188.540317 138.247506 
C 188.716589 138.247506 188.885666 138.177472 189.010309 138.052828 
C 189.134953 137.928185 189.204987 137.759108 189.204987 137.582835 
C 189.204987 137.406563 189.134953 137.237486 189.010309 137.112843 
C 188.885666 136.988199 188.716589 136.918165 188.540317 136.918165 
C 188.364044 136.918165 188.194967 136.988199 188.070324 137.112843 
C 187.94568 137.237486 187.875646 137.406563 187.875646 137.582835 
C 187.875646 137.759108 187.94568 137.928185 188.070324 138.052828 
C 188.194967 138.177472 188.364044 138.247506 188.540317 138.247506 
z
" clip-path="url(#pb7cb53b3a1)" style="fill-opacity: 0.501961; stroke: #000000; stroke-opacity: 0.501961; stroke-width: 0.886227"/>
    <path d="M 200.912822 125.09968 
C 201.089095 125.09968 201.258171 125.029646 201.382815 124.905002 
C 201.507459 124.780359 201.577492 124.611282 201.577492 124.435009 
C 201.577492 124.258737 201.507459 124.08966 201.382815 123.965017 
C 201.258171 123.840373 201.089095 123.770339 200.912822 123.770339 
C 200.73655 123.770339 200.567473 123.840373 200.442829 123.965017 
C 200.318186 124.08966 200.248152 124.258737 200.248152 124.435009 
C 200.248152 124.611282 200.318186 124.780359 200.442829 124.905002 
C 200.567473 125.029646 200.73655 125.09968 200.912822 125.09968 
z
" clip-path="url(#pb7cb53b3a1)" style="fill-opacity: 0.501961; stroke: #000000; stroke-opacity: 0.501961; stroke-width: 0.886227"/>
    <path d="M 213.285328 81.273593 
C 213.4616 81.273593 213.630677 81.203559 213.755321 81.078915 
C 213.879964 80.954272 213.949998 80.785195 213.949998 80.608922 
C 213.949998 80.43265 213.879964 80.263573 213.755321 80.13893 
C 213.630677 80.014286 213.4616 79.944252 213.285328 79.944252 
C 213.109055 79.944252 212.939978 80.014286 212.815335 80.13893 
C 212.690691 80.263573 212.620658 80.43265 212.620658 80.608922 
C 212.620658 80.785195 212.690691 80.954272 212.815335 81.078915 
C 212.939978 81.203559 213.109055 81.273593 213.285328 81.273593 
z
" clip-path="url(#pb7cb53b3a1)" style="fill-opacity: 0.501961; stroke: #000000; stroke-opacity: 0.501961; stroke-width: 0.886227"/>
    <path d="M 219.471581 46.212723 
C 219.647853 46.212723 219.81693 46.142689 219.941573 46.018046 
C 220.066217 45.893402 220.136251 45.724325 220.136251 45.548053 
C 220.136251 45.37178 220.066217 45.202704 219.941573 45.07806 
C 219.81693 44.953416 219.647853 44.883383 219.471581 44.883383 
C 219.295308 44.883383 219.126231 44.953416 219.001588 45.07806 
C 218.876944 45.202704 218.80691 45.37178 218.80691 45.548053 
C 218.80691 45.724325 218.876944 45.893402 219.001588 46.018046 
C 219.126231 46.142689 219.295308 46.212723 219.471581 46.212723 
z
" clip-path="url(#pb7cb53b3a1)" style="fill-opacity: 0.501961; stroke: #000000; stroke-opacity: 0.501961; stroke-width: 0.886227"/>
    <path d="M 231.844086 98.804027 
C 232.020359 98.804027 232.189435 98.733994 232.314079 98.60935 
C 232.438722 98.484706 232.508756 98.31563 232.508756 98.139357 
C 232.508756 97.963085 232.438722 97.794008 232.314079 97.669364 
C 232.189435 97.544721 232.020359 97.474687 231.844086 97.474687 
C 231.667813 97.474687 231.498737 97.544721 231.374093 97.669364 
C 231.24945 97.794008 231.179416 97.963085 231.179416 98.139357 
C 231.179416 98.31563 231.24945 98.484706 231.374093 98.60935 
C 231.498737 98.733994 231.667813 98.804027 231.844086 98.804027 
z
" clip-path="url(#pb7cb53b3a1)" style="fill-opacity: 0.501961; stroke: #000000; stroke-opacity: 0.501961; stroke-width: 0.886227"/>
    <path d="M 244.216592 85.656201 
C 244.392864 85.656201 244.561941 85.586167 244.686584 85.461524 
C 244.811228 85.33688 244.881262 85.167804 244.881262 84.991531 
C 244.881262 84.815258 244.811228 84.646182 244.686584 84.521538 
C 244.561941 84.396895 244.392864 84.326861 244.216592 84.326861 
C 244.040319 84.326861 243.871242 84.396895 243.746599 84.521538 
C 243.621955 84.646182 243.551921 84.815258 243.551921 84.991531 
C 243.551921 85.167804 243.621955 85.33688 243.746599 85.461524 
C 243.871242 85.586167 244.040319 85.656201 244.216592 85.656201 
z
" clip-path="url(#pb7cb53b3a1)" style="fill-opacity: 0.501961; stroke: #000000; stroke-opacity: 0.501961; stroke-width: 0.886227"/>
    <path d="M 256.589097 90.03881 
C 256.76537 90.03881 256.934446 89.968776 257.05909 89.844133 
C 257.183733 89.719489 257.253767 89.550412 257.253767 89.37414 
C 257.253767 89.197867 257.183733 89.028791 257.05909 88.904147 
C 256.934446 88.779503 256.76537 88.70947 256.589097 88.70947 
C 256.412825 88.70947 256.243748 88.779503 256.119104 88.904147 
C 255.994461 89.028791 255.924427 89.197867 255.924427 89.37414 
C 255.924427 89.550412 255.994461 89.719489 256.119104 89.844133 
C 256.243748 89.968776 256.412825 90.03881 256.589097 90.03881 
z
" clip-path="url(#pb7cb53b3a1)" style="fill-opacity: 0.501961; stroke: #000000; stroke-opacity: 0.501961; stroke-width: 0.886227"/>
    <path d="M 268.961603 125.09968 
C 269.137875 125.09968 269.306952 125.029646 269.431595 124.905002 
C 269.556239 124.780359 269.626273 124.611282 269.626273 124.435009 
C 269.626273 124.258737 269.556239 124.08966 269.431595 123.965017 
C 269.306952 123.840373 269.137875 123.770339 268.961603 123.770339 
C 268.78533 123.770339 268.616253 123.840373 268.49161 123.965017 
C 268.366966 124.08966 268.296932 124.258737 268.296932 124.435009 
C 268.296932 124.611282 268.366966 124.780359 268.49161 124.905002 
C 268.616253 125.029646 268.78533 125.09968 268.961603 125.09968 
z
" clip-path="url(#pb7cb53b3a1)" style="fill-opacity: 0.501961; stroke: #000000; stroke-opacity: 0.501961; stroke-width: 0.886227"/>
    <path d="M 281.334108 111.951853 
C 281.510381 111.951853 281.679457 111.88182 281.804101 111.757176 
C 281.928745 111.632532 281.998778 111.463456 281.998778 111.287183 
C 281.998778 111.110911 281.928745 110.941834 281.804101 110.81719 
C 281.679457 110.692547 281.510381 110.622513 281.334108 110.622513 
C 281.157836 110.622513 280.988759 110.692547 280.864115 110.81719 
C 280.739472 110.941834 280.669438 111.110911 280.669438 111.287183 
C 280.669438 111.463456 280.739472 111.632532 280.864115 111.757176 
C 280.988759 111.88182 281.157836 111.951853 281.334108 111.951853 
z
" clip-path="url(#pb7cb53b3a1)" style="fill-opacity: 0.501961; stroke: #000000; stroke-opacity: 0.501961; stroke-width: 0.886227"/>
    <path d="M 293.706614 103.186636 
C 293.882886 103.186636 294.051963 103.116602 294.176607 102.991959 
C 294.30125 102.867315 294.371284 102.698238 294.371284 102.521966 
C 294.371284 102.345693 294.30125 102.176617 294.176607 102.051973 
C 294.051963 101.92733 293.882886 101.857296 293.706614 101.857296 
C 293.530341 101.857296 293.361265 101.92733 293.236621 102.051973 
C 293.111977 102.176617 293.041944 102.345693 293.041944 102.521966 
C 293.041944 102.698238 293.111977 102.867315 293.236621 102.991959 
C 293.361265 103.116602 293.530341 103.186636 293.706614 103.186636 
z
" clip-path="url(#pb7cb53b3a1)" style="fill-opacity: 0.501961; stroke: #000000; stroke-opacity: 0.501961; stroke-width: 0.886227"/>
    <path d="M 306.079119 63.743158 
C 306.255392 63.743158 306.424469 63.673124 306.549112 63.54848 
C 306.673756 63.423837 306.74379 63.25476 306.74379 63.078488 
C 306.74379 62.902215 306.673756 62.733138 306.549112 62.608495 
C 306.424469 62.483851 306.255392 62.413817 306.079119 62.413817 
C 305.902847 62.413817 305.73377 62.483851 305.609127 62.608495 
C 305.484483 62.733138 305.414449 62.902215 305.414449 63.078488 
C 305.414449 63.25476 305.484483 63.423837 305.609127 63.54848 
C 305.73377 63.673124 305.902847 63.743158 306.079119 63.743158 
z
" clip-path="url(#pb7cb53b3a1)" style="fill-opacity: 0.501961; stroke: #000000; stroke-opacity: 0.501961; stroke-width: 0.886227"/>
    <path d="M 77.187767 142.630114 
C 77.364039 142.630114 77.533116 142.56008 77.65776 142.435437 
C 77.782403 142.310793 77.852437 142.141717 77.852437 141.965444 
C 77.852437 141.789172 77.782403 141.620095 77.65776 141.495451 
C 77.533116 141.370808 77.364039 141.300774 77.187767 141.300774 
C 77.011494 141.300774 76.842418 141.370808 76.717774 141.495451 
C 76.59313 141.620095 76.523097 141.789172 76.523097 141.965444 
C 76.523097 142.141717 76.59313 142.310793 76.717774 142.435437 
C 76.842418 142.56008 77.011494 142.630114 77.187767 142.630114 
z
" clip-path="url(#pb7cb53b3a1)" style="fill-opacity: 0.501961; stroke: #000000; stroke-opacity: 0.501961; stroke-width: 0.886227"/>
    <path d="M 89.560272 138.247506 
C 89.736545 138.247506 89.905622 138.177472 90.030265 138.052828 
C 90.154909 137.928185 90.224943 137.759108 90.224943 137.582835 
C 90.224943 137.406563 90.154909 137.237486 90.030265 137.112843 
C 89.905622 136.988199 89.736545 136.918165 89.560272 136.918165 
C 89.384 136.918165 89.214923 136.988199 89.09028 137.112843 
C 88.965636 137.237486 88.895602 137.406563 88.895602 137.582835 
C 88.895602 137.759108 88.965636 137.928185 89.09028 138.052828 
C 89.214923 138.177472 89.384 138.247506 89.560272 138.247506 
z
" clip-path="url(#pb7cb53b3a1)" style="fill-opacity: 0.501961; stroke: #000000; stroke-opacity: 0.501961; stroke-width: 0.886227"/>
    <path d="M 101.932778 125.09968 
C 102.10905 125.09968 102.278127 125.029646 102.402771 124.905002 
C 102.527414 124.780359 102.597448 124.611282 102.597448 124.435009 
C 102.597448 124.258737 102.527414 124.08966 102.402771 123.965017 
C 102.278127 123.840373 102.10905 123.770339 101.932778 123.770339 
C 101.756505 123.770339 101.587429 123.840373 101.462785 123.965017 
C 101.338142 124.08966 101.268108 124.258737 101.268108 124.435009 
C 101.268108 124.611282 101.338142 124.780359 101.462785 124.905002 
C 101.587429 125.029646 101.756505 125.09968 101.932778 125.09968 
z
" clip-path="url(#pb7cb53b3a1)" style="fill-opacity: 0.501961; stroke: #000000; stroke-opacity: 0.501961; stroke-width: 0.886227"/>
    <path d="M 114.305283 142.630114 
C 114.481556 142.630114 114.650633 142.56008 114.775276 142.435437 
C 114.89992 142.310793 114.969954 142.141717 114.969954 141.965444 
C 114.969954 141.789172 114.89992 141.620095 114.775276 141.495451 
C 114.650633 141.370808 114.481556 141.300774 114.305283 141.300774 
C 114.129011 141.300774 113.959934 141.370808 113.835291 141.495451 
C 113.710647 141.620095 113.640613 141.789172 113.640613 141.965444 
C 113.640613 142.141717 113.710647 142.310793 113.835291 142.435437 
C 113.959934 142.56008 114.129011 142.630114 114.305283 142.630114 
z
" clip-path="url(#pb7cb53b3a1)" style="fill-opacity: 0.501961; stroke: #000000; stroke-opacity: 0.501961; stroke-width: 0.886227"/>
    <path d="M 126.677789 116.334462 
C 126.854062 116.334462 127.023138 116.264428 127.147782 116.139785 
C 127.272425 116.015141 127.342459 115.846065 127.342459 115.669792 
C 127.342459 115.493519 127.272425 115.324443 127.147782 115.199799 
C 127.023138 115.075156 126.854062 115.005122 126.677789 115.005122 
C 126.501516 115.005122 126.33244 115.075156 126.207796 115.199799 
C 126.083153 115.324443 126.013119 115.493519 126.013119 115.669792 
C 126.013119 115.846065 126.083153 116.015141 126.207796 116.139785 
C 126.33244 116.264428 126.501516 116.334462 126.677789 116.334462 
z
" clip-path="url(#pb7cb53b3a1)" style="fill-opacity: 0.501961; stroke: #000000; stroke-opacity: 0.501961; stroke-width: 0.886227"/>
    <path d="M 139.050294 125.09968 
C 139.226567 125.09968 139.395644 125.029646 139.520287 124.905002 
C 139.644931 124.780359 139.714965 124.611282 139.714965 124.435009 
C 139.714965 124.258737 139.644931 124.08966 139.520287 123.965017 
C 139.395644 123.840373 139.226567 123.770339 139.050294 123.770339 
C 138.874022 123.770339 138.704945 123.840373 138.580302 123.965017 
C 138.455658 124.08966 138.385624 124.258737 138.385624 124.435009 
C 138.385624 124.611282 138.455658 124.780359 138.580302 124.905002 
C 138.704945 125.029646 138.874022 125.09968 139.050294 125.09968 
z
" clip-path="url(#pb7cb53b3a1)" style="fill-opacity: 0.501961; stroke: #000000; stroke-opacity: 0.501961; stroke-width: 0.886227"/>
    <path d="M 151.4228 120.717071 
C 151.599073 120.717071 151.768149 120.647037 151.892793 120.522393 
C 152.017436 120.39775 152.08747 120.228673 152.08747 120.052401 
C 152.08747 119.876128 152.017436 119.707051 151.892793 119.582408 
C 151.768149 119.457764 151.599073 119.38773 151.4228 119.38773 
C 151.246527 119.38773 151.077451 119.457764 150.952807 119.582408 
C 150.828164 119.707051 150.75813 119.876128 150.75813 120.052401 
C 150.75813 120.228673 150.828164 120.39775 150.952807 120.522393 
C 151.077451 120.647037 151.246527 120.717071 151.4228 120.717071 
z
" clip-path="url(#pb7cb53b3a1)" style="fill-opacity: 0.501961; stroke: #000000; stroke-opacity: 0.501961; stroke-width: 0.886227"/>
    <path d="M 163.795306 129.482288 
C 163.971578 129.482288 164.140655 129.412254 164.265298 129.287611 
C 164.389942 129.162967 164.459976 128.993891 164.459976 128.817618 
C 164.459976 128.641345 164.389942 128.472269 164.265298 128.347625 
C 164.140655 128.222982 163.971578 128.152948 163.795306 128.152948 
C 163.619033 128.152948 163.449956 128.222982 163.325313 128.347625 
C 163.200669 128.472269 163.130635 128.641345 163.130635 128.817618 
C 163.130635 128.993891 163.200669 129.162967 163.325313 129.287611 
C 163.449956 129.412254 163.619033 129.482288 163.795306 129.482288 
z
" clip-path="url(#pb7cb53b3a1)" style="fill-opacity: 0.501961; stroke: #000000; stroke-opacity: 0.501961; stroke-width: 0.886227"/>
    <path d="M 176.167811 133.864897 
C 176.344084 133.864897 176.51316 133.794863 176.637804 133.67022 
C 176.762447 133.545576 176.832481 133.376499 176.832481 133.200227 
C 176.832481 133.023954 176.762447 132.854877 176.637804 132.730234 
C 176.51316 132.60559 176.344084 132.535557 176.167811 132.535557 
C 175.991539 132.535557 175.822462 132.60559 175.697818 132.730234 
C 175.573175 132.854877 175.503141 133.023954 175.503141 133.200227 
C 175.503141 133.376499 175.573175 133.545576 175.697818 133.67022 
C 175.822462 133.794863 175.991539 133.864897 176.167811 133.864897 
z
" clip-path="url(#pb7cb53b3a1)" style="fill-opacity: 0.501961; stroke: #000000; stroke-opacity: 0.501961; stroke-width: 0.886227"/>
    <path d="M 188.540317 138.247506 
C 188.716589 138.247506 188.885666 138.177472 189.010309 138.052828 
C 189.134953 137.928185 189.204987 137.759108 189.204987 137.582835 
C 189.204987 137.406563 189.134953 137.237486 189.010309 137.112843 
C 188.885666 136.988199 188.716589 136.918165 188.540317 136.918165 
C 188.364044 136.918165 188.194967 136.988199 188.070324 137.112843 
C 187.94568 137.237486 187.875646 137.406563 187.875646 137.582835 
C 187.875646 137.759108 187.94568 137.928185 188.070324 138.052828 
C 188.194967 138.177472 188.364044 138.247506 188.540317 138.247506 
z
" clip-path="url(#pb7cb53b3a1)" style="fill-opacity: 0.501961; stroke: #000000; stroke-opacity: 0.501961; stroke-width: 0.886227"/>
    <path d="M 200.912822 125.09968 
C 201.089095 125.09968 201.258171 125.029646 201.382815 124.905002 
C 201.507459 124.780359 201.577492 124.611282 201.577492 124.435009 
C 201.577492 124.258737 201.507459 124.08966 201.382815 123.965017 
C 201.258171 123.840373 201.089095 123.770339 200.912822 123.770339 
C 200.73655 123.770339 200.567473 123.840373 200.442829 123.965017 
C 200.318186 124.08966 200.248152 124.258737 200.248152 124.435009 
C 200.248152 124.611282 200.318186 124.780359 200.442829 124.905002 
C 200.567473 125.029646 200.73655 125.09968 200.912822 125.09968 
z
" clip-path="url(#pb7cb53b3a1)" style="fill-opacity: 0.501961; stroke: #000000; stroke-opacity: 0.501961; stroke-width: 0.886227"/>
    <path d="M 213.285328 81.273593 
C 213.4616 81.273593 213.630677 81.203559 213.755321 81.078915 
C 213.879964 80.954272 213.949998 80.785195 213.949998 80.608922 
C 213.949998 80.43265 213.879964 80.263573 213.755321 80.13893 
C 213.630677 80.014286 213.4616 79.944252 213.285328 79.944252 
C 213.109055 79.944252 212.939978 80.014286 212.815335 80.13893 
C 212.690691 80.263573 212.620658 80.43265 212.620658 80.608922 
C 212.620658 80.785195 212.690691 80.954272 212.815335 81.078915 
C 212.939978 81.203559 213.109055 81.273593 213.285328 81.273593 
z
" clip-path="url(#pb7cb53b3a1)" style="fill-opacity: 0.501961; stroke: #000000; stroke-opacity: 0.501961; stroke-width: 0.886227"/>
    <path d="M 219.471581 46.212723 
C 219.647853 46.212723 219.81693 46.142689 219.941573 46.018046 
C 220.066217 45.893402 220.136251 45.724325 220.136251 45.548053 
C 220.136251 45.37178 220.066217 45.202704 219.941573 45.07806 
C 219.81693 44.953416 219.647853 44.883383 219.471581 44.883383 
C 219.295308 44.883383 219.126231 44.953416 219.001588 45.07806 
C 218.876944 45.202704 218.80691 45.37178 218.80691 45.548053 
C 218.80691 45.724325 218.876944 45.893402 219.001588 46.018046 
C 219.126231 46.142689 219.295308 46.212723 219.471581 46.212723 
z
" clip-path="url(#pb7cb53b3a1)" style="fill-opacity: 0.501961; stroke: #000000; stroke-opacity: 0.501961; stroke-width: 0.886227"/>
    <path d="M 231.844086 98.804027 
C 232.020359 98.804027 232.189435 98.733994 232.314079 98.60935 
C 232.438722 98.484706 232.508756 98.31563 232.508756 98.139357 
C 232.508756 97.963085 232.438722 97.794008 232.314079 97.669364 
C 232.189435 97.544721 232.020359 97.474687 231.844086 97.474687 
C 231.667813 97.474687 231.498737 97.544721 231.374093 97.669364 
C 231.24945 97.794008 231.179416 97.963085 231.179416 98.139357 
C 231.179416 98.31563 231.24945 98.484706 231.374093 98.60935 
C 231.498737 98.733994 231.667813 98.804027 231.844086 98.804027 
z
" clip-path="url(#pb7cb53b3a1)" style="fill-opacity: 0.501961; stroke: #000000; stroke-opacity: 0.501961; stroke-width: 0.886227"/>
    <path d="M 244.216592 85.656201 
C 244.392864 85.656201 244.561941 85.586167 244.686584 85.461524 
C 244.811228 85.33688 244.881262 85.167804 244.881262 84.991531 
C 244.881262 84.815258 244.811228 84.646182 244.686584 84.521538 
C 244.561941 84.396895 244.392864 84.326861 244.216592 84.326861 
C 244.040319 84.326861 243.871242 84.396895 243.746599 84.521538 
C 243.621955 84.646182 243.551921 84.815258 243.551921 84.991531 
C 243.551921 85.167804 243.621955 85.33688 243.746599 85.461524 
C 243.871242 85.586167 244.040319 85.656201 244.216592 85.656201 
z
" clip-path="url(#pb7cb53b3a1)" style="fill-opacity: 0.501961; stroke: #000000; stroke-opacity: 0.501961; stroke-width: 0.886227"/>
    <path d="M 256.589097 90.03881 
C 256.76537 90.03881 256.934446 89.968776 257.05909 89.844133 
C 257.183733 89.719489 257.253767 89.550412 257.253767 89.37414 
C 257.253767 89.197867 257.183733 89.028791 257.05909 88.904147 
C 256.934446 88.779503 256.76537 88.70947 256.589097 88.70947 
C 256.412825 88.70947 256.243748 88.779503 256.119104 88.904147 
C 255.994461 89.028791 255.924427 89.197867 255.924427 89.37414 
C 255.924427 89.550412 255.994461 89.719489 256.119104 89.844133 
C 256.243748 89.968776 256.412825 90.03881 256.589097 90.03881 
z
" clip-path="url(#pb7cb53b3a1)" style="fill-opacity: 0.501961; stroke: #000000; stroke-opacity: 0.501961; stroke-width: 0.886227"/>
    <path d="M 268.961603 125.09968 
C 269.137875 125.09968 269.306952 125.029646 269.431595 124.905002 
C 269.556239 124.780359 269.626273 124.611282 269.626273 124.435009 
C 269.626273 124.258737 269.556239 124.08966 269.431595 123.965017 
C 269.306952 123.840373 269.137875 123.770339 268.961603 123.770339 
C 268.78533 123.770339 268.616253 123.840373 268.49161 123.965017 
C 268.366966 124.08966 268.296932 124.258737 268.296932 124.435009 
C 268.296932 124.611282 268.366966 124.780359 268.49161 124.905002 
C 268.616253 125.029646 268.78533 125.09968 268.961603 125.09968 
z
" clip-path="url(#pb7cb53b3a1)" style="fill-opacity: 0.501961; stroke: #000000; stroke-opacity: 0.501961; stroke-width: 0.886227"/>
    <path d="M 281.334108 111.951853 
C 281.510381 111.951853 281.679457 111.88182 281.804101 111.757176 
C 281.928745 111.632532 281.998778 111.463456 281.998778 111.287183 
C 281.998778 111.110911 281.928745 110.941834 281.804101 110.81719 
C 281.679457 110.692547 281.510381 110.622513 281.334108 110.622513 
C 281.157836 110.622513 280.988759 110.692547 280.864115 110.81719 
C 280.739472 110.941834 280.669438 111.110911 280.669438 111.287183 
C 280.669438 111.463456 280.739472 111.632532 280.864115 111.757176 
C 280.988759 111.88182 281.157836 111.951853 281.334108 111.951853 
z
" clip-path="url(#pb7cb53b3a1)" style="fill-opacity: 0.501961; stroke: #000000; stroke-opacity: 0.501961; stroke-width: 0.886227"/>
    <path d="M 293.706614 103.186636 
C 293.882886 103.186636 294.051963 103.116602 294.176607 102.991959 
C 294.30125 102.867315 294.371284 102.698238 294.371284 102.521966 
C 294.371284 102.345693 294.30125 102.176617 294.176607 102.051973 
C 294.051963 101.92733 293.882886 101.857296 293.706614 101.857296 
C 293.530341 101.857296 293.361265 101.92733 293.236621 102.051973 
C 293.111977 102.176617 293.041944 102.345693 293.041944 102.521966 
C 293.041944 102.698238 293.111977 102.867315 293.236621 102.991959 
C 293.361265 103.116602 293.530341 103.186636 293.706614 103.186636 
z
" clip-path="url(#pb7cb53b3a1)" style="fill-opacity: 0.501961; stroke: #000000; stroke-opacity: 0.501961; stroke-width: 0.886227"/>
    <path d="M 306.079119 63.743158 
C 306.255392 63.743158 306.424469 63.673124 306.549112 63.54848 
C 306.673756 63.423837 306.74379 63.25476 306.74379 63.078488 
C 306.74379 62.902215 306.673756 62.733138 306.549112 62.608495 
C 306.424469 62.483851 306.255392 62.413817 306.079119 62.413817 
C 305.902847 62.413817 305.73377 62.483851 305.609127 62.608495 
C 305.484483 62.733138 305.414449 62.902215 305.414449 63.078488 
C 305.414449 63.25476 305.484483 63.423837 305.609127 63.54848 
C 305.73377 63.673124 305.902847 63.743158 306.079119 63.743158 
z
" clip-path="url(#pb7cb53b3a1)" style="fill-opacity: 0.501961; stroke: #000000; stroke-opacity: 0.501961; stroke-width: 0.886227"/>
   </g>
   <g id="patch_3">
    <path d="M 39.760938 40.508053 
L 318.760938 40.508053 
L 318.760938 24.508053 
L 39.760938 24.508053 
z
" style="fill: #d9d9d9; stroke: #d9d9d9; stroke-linejoin: miter"/>
   </g>
   <g id="PathCollection_2">
    <path d="M 254.37353 89.37414 
L 258.804664 89.37414 
M 256.589097 91.589707 
L 256.589097 87.158572 
" clip-path="url(#pb7cb53b3a1)" style="fill: #ff0000; stroke: #ff0000; stroke-width: 0.886227"/>
    <path d="M 99.717211 124.435009 
L 104.148345 124.435009 
M 101.932778 126.650577 
L 101.932778 122.219442 
" clip-path="url(#pb7cb53b3a1)" style="fill: #ff0000; stroke: #ff0000; stroke-width: 0.886227"/>
   </g>
   <g id="text_13">
    <!-- Italy -->
    <g transform="translate(168.715625 35.222897)scale(0.1 -0.1)">
     <defs>
      <path id="Montserrat-Regular-49" d="M 730 0 
L 730 4480 
L 1203 4480 
L 1203 0 
L 730 0 
z
" transform="scale(0.015625)"/>
      <path id="Montserrat-Regular-74" d="M 1696 -32 
Q 1222 -32 966 224 
Q 710 480 710 947 
L 710 4102 
L 1165 4102 
L 1165 973 
Q 1165 678 1315 518 
Q 1466 358 1747 358 
Q 2048 358 2246 531 
L 2406 205 
Q 2272 83 2083 25 
Q 1894 -32 1696 -32 
z
M 109 2982 
L 109 3360 
L 2189 3360 
L 2189 2982 
L 109 2982 
z
" transform="scale(0.015625)"/>
     </defs>
     <use xlink:href="#Montserrat-Regular-49"/>
     <use xlink:href="#Montserrat-Regular-74" x="30.199997"/>
     <use xlink:href="#Montserrat-Regular-61" x="70.799988"/>
     <use xlink:href="#Montserrat-Regular-6c" x="129.799973"/>
     <use xlink:href="#Montserrat-Regular-79" x="156.699966"/>
    </g>
   </g>
  </g>
  <g id="text_14">
   <!-- Medals for Italy at Winter Olympics -->
   <g transform="translate(87.05 14.670312)scale(0.1 -0.1)">
    <defs>
     <path id="Montserrat-Regular-4d" d="M 730 0 
L 730 4480 
L 1120 4480 
L 3168 986 
L 2963 986 
L 4992 4480 
L 5382 4480 
L 5382 0 
L 4928 0 
L 4928 3770 
L 5037 3770 
L 3168 570 
L 2944 570 
L 1062 3770 
L 1184 3770 
L 1184 0 
L 730 0 
z
" transform="scale(0.015625)"/>
     <path id="Montserrat-Regular-20" transform="scale(0.015625)"/>
     <path id="Montserrat-Regular-66" d="M 710 0 
L 710 3782 
Q 710 4230 972 4505 
Q 1235 4781 1728 4781 
Q 1920 4781 2099 4729 
Q 2278 4678 2400 4570 
L 2246 4230 
Q 2150 4314 2022 4355 
Q 1894 4397 1747 4397 
Q 1459 4397 1305 4237 
Q 1152 4077 1152 3763 
L 1152 3251 
L 1165 3040 
L 1165 0 
L 710 0 
z
M 109 2982 
L 109 3360 
L 2189 3360 
L 2189 2982 
L 109 2982 
z
" transform="scale(0.015625)"/>
     <path id="Montserrat-Regular-6f" d="M 2003 -32 
Q 1517 -32 1129 189 
Q 742 410 518 797 
Q 294 1184 294 1683 
Q 294 2189 518 2573 
Q 742 2957 1126 3174 
Q 1510 3392 2003 3392 
Q 2502 3392 2889 3174 
Q 3277 2957 3497 2573 
Q 3718 2189 3718 1683 
Q 3718 1184 3497 797 
Q 3277 410 2886 189 
Q 2496 -32 2003 -32 
z
M 2003 371 
Q 2368 371 2649 534 
Q 2931 698 3094 995 
Q 3258 1293 3258 1683 
Q 3258 2080 3094 2374 
Q 2931 2669 2649 2832 
Q 2368 2995 2010 2995 
Q 1651 2995 1369 2832 
Q 1088 2669 921 2374 
Q 755 2080 755 1683 
Q 755 1293 921 995 
Q 1088 698 1369 534 
Q 1651 371 2003 371 
z
" transform="scale(0.015625)"/>
     <path id="Montserrat-Regular-57" d="M 1747 0 
L 237 4480 
L 723 4480 
L 2138 262 
L 1894 262 
L 3354 4480 
L 3789 4480 
L 5229 262 
L 4998 262 
L 6426 4480 
L 6880 4480 
L 5370 0 
L 4870 0 
L 3494 4000 
L 3622 4000 
L 2240 0 
L 1747 0 
z
" transform="scale(0.015625)"/>
     <path id="Montserrat-Regular-69" d="M 634 0 
L 634 3360 
L 1088 3360 
L 1088 0 
L 634 0 
z
M 864 4102 
Q 723 4102 627 4198 
Q 531 4294 531 4429 
Q 531 4563 627 4656 
Q 723 4749 864 4749 
Q 1005 4749 1101 4659 
Q 1197 4570 1197 4435 
Q 1197 4294 1104 4198 
Q 1011 4102 864 4102 
z
" transform="scale(0.015625)"/>
     <path id="Montserrat-Regular-6e" d="M 2349 3392 
Q 2758 3392 3068 3235 
Q 3379 3078 3555 2758 
Q 3731 2438 3731 1952 
L 3731 0 
L 3277 0 
L 3277 1907 
Q 3277 2438 3011 2710 
Q 2746 2982 2266 2982 
Q 1907 2982 1641 2838 
Q 1376 2694 1232 2422 
Q 1088 2150 1088 1766 
L 1088 0 
L 634 0 
L 634 3360 
L 1069 3360 
L 1069 2438 
L 998 2611 
Q 1158 2976 1510 3184 
Q 1862 3392 2349 3392 
z
" transform="scale(0.015625)"/>
     <path id="Montserrat-Regular-4f" d="M 2688 -38 
Q 2182 -38 1750 131 
Q 1318 301 1001 611 
Q 685 922 509 1334 
Q 333 1747 333 2240 
Q 333 2733 509 3145 
Q 685 3558 1001 3868 
Q 1318 4179 1747 4348 
Q 2176 4518 2688 4518 
Q 3194 4518 3622 4348 
Q 4051 4179 4368 3872 
Q 4685 3565 4861 3149 
Q 5037 2733 5037 2240 
Q 5037 1747 4861 1331 
Q 4685 915 4368 608 
Q 4051 301 3622 131 
Q 3194 -38 2688 -38 
z
M 2688 384 
Q 3091 384 3433 521 
Q 3776 659 4029 912 
Q 4282 1165 4422 1501 
Q 4563 1837 4563 2240 
Q 4563 2643 4422 2979 
Q 4282 3315 4029 3568 
Q 3776 3821 3433 3958 
Q 3091 4096 2688 4096 
Q 2285 4096 1939 3958 
Q 1594 3821 1341 3568 
Q 1088 3315 944 2979 
Q 800 2643 800 2240 
Q 800 1843 944 1504 
Q 1088 1165 1341 912 
Q 1594 659 1939 521 
Q 2285 384 2688 384 
z
" transform="scale(0.015625)"/>
     <path id="Montserrat-Regular-70" d="M 2368 -32 
Q 1933 -32 1581 169 
Q 1229 371 1021 752 
Q 813 1133 813 1683 
Q 813 2234 1017 2614 
Q 1222 2995 1574 3193 
Q 1926 3392 2368 3392 
Q 2848 3392 3229 3177 
Q 3610 2963 3827 2576 
Q 4045 2189 4045 1683 
Q 4045 1171 3827 787 
Q 3610 403 3229 185 
Q 2848 -32 2368 -32 
z
M 634 -1242 
L 634 3360 
L 1069 3360 
L 1069 2349 
L 1024 1677 
L 1088 998 
L 1088 -1242 
L 634 -1242 
z
M 2336 371 
Q 2694 371 2976 534 
Q 3258 698 3424 995 
Q 3590 1293 3590 1683 
Q 3590 2074 3424 2368 
Q 3258 2662 2976 2828 
Q 2694 2995 2336 2995 
Q 1978 2995 1693 2828 
Q 1408 2662 1245 2368 
Q 1082 2074 1082 1683 
Q 1082 1293 1245 995 
Q 1408 698 1693 534 
Q 1978 371 2336 371 
z
" transform="scale(0.015625)"/>
     <path id="Montserrat-Regular-63" d="M 2029 -32 
Q 1530 -32 1136 189 
Q 742 410 518 797 
Q 294 1184 294 1683 
Q 294 2189 518 2573 
Q 742 2957 1136 3174 
Q 1530 3392 2029 3392 
Q 2458 3392 2803 3225 
Q 3149 3059 3347 2726 
L 3008 2496 
Q 2835 2752 2579 2873 
Q 2323 2995 2022 2995 
Q 1664 2995 1376 2832 
Q 1088 2669 921 2374 
Q 755 2080 755 1683 
Q 755 1286 921 992 
Q 1088 698 1376 534 
Q 1664 371 2022 371 
Q 2323 371 2579 492 
Q 2835 614 3008 864 
L 3347 634 
Q 3149 307 2803 137 
Q 2458 -32 2029 -32 
z
" transform="scale(0.015625)"/>
    </defs>
    <use xlink:href="#Montserrat-Regular-4d"/>
    <use xlink:href="#Montserrat-Regular-65" x="95.499985"/>
    <use xlink:href="#Montserrat-Regular-64" x="155.899979"/>
    <use xlink:href="#Montserrat-Regular-61" x="223.699966"/>
    <use xlink:href="#Montserrat-Regular-6c" x="282.699951"/>
    <use xlink:href="#Montserrat-Regular-73" x="309.599945"/>
    <use xlink:href="#Montserrat-Regular-20" x="358.399933"/>
    <use xlink:href="#Montserrat-Regular-66" x="384.59993"/>
    <use xlink:href="#Montserrat-Regular-6f" x="418.499924"/>
    <use xlink:href="#Montserrat-Regular-72" x="481.199921"/>
    <use xlink:href="#Montserrat-Regular-20" x="521.299911"/>
    <use xlink:href="#Montserrat-Regular-49" x="547.499908"/>
    <use xlink:href="#Montserrat-Regular-74" x="577.699905"/>
    <use xlink:href="#Montserrat-Regular-61" x="618.299896"/>
    <use xlink:href="#Montserrat-Regular-6c" x="677.299881"/>
    <use xlink:href="#Montserrat-Regular-79" x="704.199875"/>
    <use xlink:href="#Montserrat-Regular-20" x="758.399872"/>
    <use xlink:href="#Montserrat-Regular-61" x="784.599869"/>
    <use xlink:href="#Montserrat-Regular-74" x="843.599854"/>
    <use xlink:href="#Montserrat-Regular-20" x="884.199844"/>
    <use xlink:href="#Montserrat-Regular-57" x="910.399841"/>
    <use xlink:href="#Montserrat-Regular-69" x="1021.499832"/>
    <use xlink:href="#Montserrat-Regular-6e" x="1048.399826"/>
    <use xlink:href="#Montserrat-Regular-74" x="1115.999817"/>
    <use xlink:href="#Montserrat-Regular-65" x="1156.599808"/>
    <use xlink:href="#Montserrat-Regular-72" x="1216.999802"/>
    <use xlink:href="#Montserrat-Regular-20" x="1257.099792"/>
    <use xlink:href="#Montserrat-Regular-4f" x="1283.299789"/>
    <use xlink:href="#Montserrat-Regular-6c" x="1367.199783"/>
    <use xlink:href="#Montserrat-Regular-79" x="1394.099777"/>
    <use xlink:href="#Montserrat-Regular-6d" x="1448.299774"/>
    <use xlink:href="#Montserrat-Regular-70" x="1554.399765"/>
    <use xlink:href="#Montserrat-Regular-69" x="1622.199753"/>
    <use xlink:href="#Montserrat-Regular-63" x="1649.099747"/>
    <use xlink:href="#Montserrat-Regular-73" x="1705.399734"/>
   </g>
  </g>
 </g>
 <defs>
  <clipPath id="pb7cb53b3a1">
   <rect x="39.760938" y="40.508053" width="279" height="110.88"/>
  </clipPath>
 </defs>
</svg>
