<?xml version="1.0" encoding="utf-8" standalone="no"?>
<!DOCTYPE svg PUBLIC "-//W3C//DTD SVG 1.1//EN"
  "http://www.w3.org/Graphics/SVG/1.1/DTD/svg11.dtd">
<svg xmlns:xlink="http://www.w3.org/1999/xlink" width="325.960938pt" height="188.209928pt" viewBox="0 0 325.960938 188.209928" xmlns="http://www.w3.org/2000/svg" version="1.1">
 <metadata>
  <rdf:RDF xmlns:dc="http://purl.org/dc/elements/1.1/" xmlns:cc="http://creativecommons.org/ns#" xmlns:rdf="http://www.w3.org/1999/02/22-rdf-syntax-ns#">
   <cc:Work>
    <dc:type rdf:resource="http://purl.org/dc/dcmitype/StillImage"/>
    <dc:date>2024-08-08T08:27:30.793201</dc:date>
    <dc:format>image/svg+xml</dc:format>
    <dc:creator>
     <cc:Agent>
      <dc:title>Matplotlib v3.5.1, https://matplotlib.org/</dc:title>
     </cc:Agent>
    </dc:creator>
   </cc:Work>
  </rdf:RDF>
 </metadata>
 <defs>
  <style type="text/css">*{stroke-linejoin: round; stroke-linecap: butt}</style>
 </defs>
 <g id="figure_1">
  <g id="patch_1">
   <path d="M 0 188.209928 
L 325.960938 188.209928 
L 325.960938 0 
L 0 0 
z
" style="fill: #ffffff"/>
  </g>
  <g id="axes_1">
   <g id="patch_2">
    <path d="M 39.760938 151.388053 
L 318.760938 151.388053 
L 318.760938 40.508053 
L 39.760938 40.508053 
z
" style="fill: #ffffff"/>
   </g>
   <g id="line2d_1">
    <path d="M 77.187767 112.748053 
L 77.187767 112.748053 
L 89.560272 112.748053 
L 89.560272 112.748053 
L 101.932778 95.948053 
L 101.932778 95.948053 
L 114.305283 121.148053 
L 114.305283 121.148053 
L 126.677789 87.548053 
L 126.677789 87.548053 
L 139.050294 95.948053 
L 139.050294 95.948053 
L 151.4228 125.348053 
L 151.4228 125.348053 
L 163.795306 116.948053 
L 163.795306 116.948053 
L 176.167811 112.748053 
L 176.167811 112.748053 
L 188.540317 142.148053 
L 188.540317 142.148053 
L 200.912822 104.348053 
L 200.912822 104.348053 
L 213.285328 58.148053 
L 213.285328 58.148053 
L 219.471581 108.548053 
L 219.471581 108.548053 
L 231.844086 74.948053 
L 231.844086 74.948053 
L 244.216592 74.948053 
L 244.216592 74.948053 
L 256.589097 45.548053 
L 256.589097 45.548053 
L 268.961603 74.948053 
L 268.961603 74.948053 
L 281.334108 70.748053 
L 281.334108 70.748053 
L 293.706614 83.348053 
L 293.706614 83.348053 
L 306.079119 66.548053 
L 306.079119 66.548053 
" clip-path="url(#pc0ba534afe)" style="fill: none; stroke: #000000; stroke-width: 0.886227"/>
   </g>
   <g id="matplotlib.axis_1">
    <g id="xtick_1">
     <g id="line2d_2">
      <defs>
       <path id="m9bcd3f4645" d="M 0 0 
L 0 3.5 
" style="stroke: #000000; stroke-width: 0.8"/>
      </defs>
      <g>
       <use xlink:href="#m9bcd3f4645" x="52.442756" y="151.388053" style="stroke: #000000; stroke-width: 0.8"/>
      </g>
     </g>
     <g id="text_1">
      <!-- 1940 -->
      <g transform="translate(40.977912 164.708365)scale(0.1 -0.1)">
       <defs>
        <path id="Montserrat-Regular-31" d="M 1114 0 
L 1114 4288 
L 1318 4070 
L 58 4070 
L 58 4480 
L 1574 4480 
L 1574 0 
L 1114 0 
z
" transform="scale(0.015625)"/>
        <path id="Montserrat-Regular-39" d="M 1728 4518 
Q 2323 4518 2732 4252 
Q 3142 3987 3353 3488 
Q 3565 2989 3565 2278 
Q 3565 1523 3305 1004 
Q 3046 486 2585 224 
Q 2125 -38 1517 -38 
Q 1216 -38 944 19 
Q 672 77 454 205 
L 640 576 
Q 813 461 1040 413 
Q 1267 365 1510 365 
Q 2234 365 2666 825 
Q 3098 1286 3098 2202 
Q 3098 2349 3082 2553 
Q 3066 2758 3008 2963 
L 3168 2842 
Q 3104 2509 2896 2275 
Q 2688 2042 2384 1920 
Q 2080 1798 1709 1798 
Q 1267 1798 924 1964 
Q 582 2131 390 2432 
Q 198 2733 198 3142 
Q 198 3565 396 3872 
Q 595 4179 944 4348 
Q 1293 4518 1728 4518 
z
M 1747 4128 
Q 1427 4128 1180 4009 
Q 934 3891 793 3673 
Q 653 3456 653 3155 
Q 653 2714 957 2451 
Q 1261 2189 1779 2189 
Q 2125 2189 2384 2317 
Q 2643 2445 2787 2669 
Q 2931 2893 2931 3168 
Q 2931 3418 2796 3635 
Q 2662 3853 2400 3990 
Q 2138 4128 1747 4128 
z
" transform="scale(0.015625)"/>
        <path id="Montserrat-Regular-34" d="M 256 1178 
L 256 1510 
L 2630 4480 
L 3142 4480 
L 787 1510 
L 538 1587 
L 4141 1587 
L 4141 1178 
L 256 1178 
z
M 2784 0 
L 2784 1178 
L 2797 1587 
L 2797 2624 
L 3245 2624 
L 3245 0 
L 2784 0 
z
" transform="scale(0.015625)"/>
        <path id="Montserrat-Regular-30" d="M 2118 -38 
Q 1600 -38 1197 234 
Q 794 506 563 1014 
Q 333 1523 333 2240 
Q 333 2957 563 3465 
Q 794 3974 1197 4246 
Q 1600 4518 2118 4518 
Q 2637 4518 3040 4246 
Q 3443 3974 3676 3465 
Q 3910 2957 3910 2240 
Q 3910 1523 3676 1014 
Q 3443 506 3040 234 
Q 2637 -38 2118 -38 
z
M 2118 384 
Q 2515 384 2809 598 
Q 3104 813 3270 1225 
Q 3437 1638 3437 2240 
Q 3437 2842 3270 3254 
Q 3104 3667 2809 3881 
Q 2515 4096 2118 4096 
Q 1734 4096 1433 3881 
Q 1133 3667 966 3254 
Q 800 2842 800 2240 
Q 800 1638 966 1225 
Q 1133 813 1433 598 
Q 1734 384 2118 384 
z
" transform="scale(0.015625)"/>
       </defs>
       <use xlink:href="#Montserrat-Regular-31"/>
       <use xlink:href="#Montserrat-Regular-39" x="36.099991"/>
       <use xlink:href="#Montserrat-Regular-34" x="96.999985"/>
       <use xlink:href="#Montserrat-Regular-30" x="163.099976"/>
      </g>
     </g>
    </g>
    <g id="xtick_2">
     <g id="line2d_3">
      <g>
       <use xlink:href="#m9bcd3f4645" x="114.305283" y="151.388053" style="stroke: #000000; stroke-width: 0.8"/>
      </g>
     </g>
     <g id="text_2">
      <!-- 1960 -->
      <g transform="translate(103.099815 164.708365)scale(0.1 -0.1)">
       <defs>
        <path id="Montserrat-Regular-36" d="M 2170 -38 
Q 1574 -38 1164 227 
Q 755 493 544 995 
Q 333 1498 333 2202 
Q 333 2963 592 3478 
Q 851 3994 1312 4256 
Q 1773 4518 2381 4518 
Q 2682 4518 2957 4460 
Q 3232 4403 3443 4275 
L 3258 3904 
Q 3085 4019 2861 4067 
Q 2637 4115 2387 4115 
Q 1664 4115 1232 3654 
Q 800 3194 800 2278 
Q 800 2138 816 1930 
Q 832 1722 890 1517 
L 730 1638 
Q 800 1971 1005 2204 
Q 1210 2438 1517 2560 
Q 1824 2682 2189 2682 
Q 2637 2682 2976 2515 
Q 3315 2349 3507 2048 
Q 3699 1747 3699 1338 
Q 3699 922 3500 611 
Q 3302 301 2953 131 
Q 2605 -38 2170 -38 
z
M 2150 352 
Q 2470 352 2716 470 
Q 2963 589 3104 809 
Q 3245 1030 3245 1325 
Q 3245 1766 2941 2028 
Q 2637 2291 2118 2291 
Q 1773 2291 1517 2163 
Q 1261 2035 1113 1814 
Q 966 1594 966 1312 
Q 966 1069 1100 848 
Q 1235 627 1500 489 
Q 1766 352 2150 352 
z
" transform="scale(0.015625)"/>
       </defs>
       <use xlink:href="#Montserrat-Regular-31"/>
       <use xlink:href="#Montserrat-Regular-39" x="36.099991"/>
       <use xlink:href="#Montserrat-Regular-36" x="96.999985"/>
       <use xlink:href="#Montserrat-Regular-30" x="157.899979"/>
      </g>
     </g>
    </g>
    <g id="xtick_3">
     <g id="line2d_4">
      <g>
       <use xlink:href="#m9bcd3f4645" x="176.167811" y="151.388053" style="stroke: #000000; stroke-width: 0.8"/>
      </g>
     </g>
     <g id="text_3">
      <!-- 1980 -->
      <g transform="translate(164.817811 164.708365)scale(0.1 -0.1)">
       <defs>
        <path id="Montserrat-Regular-38" d="M 2035 -38 
Q 1498 -38 1110 115 
Q 723 269 515 560 
Q 307 851 307 1248 
Q 307 1632 508 1904 
Q 710 2176 1097 2323 
Q 1485 2470 2035 2470 
Q 2579 2470 2969 2323 
Q 3360 2176 3568 1904 
Q 3776 1632 3776 1248 
Q 3776 851 3565 560 
Q 3354 269 2963 115 
Q 2573 -38 2035 -38 
z
M 2035 352 
Q 2630 352 2966 595 
Q 3302 838 3302 1254 
Q 3302 1670 2966 1910 
Q 2630 2150 2035 2150 
Q 1440 2150 1107 1910 
Q 774 1670 774 1254 
Q 774 838 1107 595 
Q 1440 352 2035 352 
z
M 2035 2208 
Q 1536 2208 1187 2342 
Q 838 2477 652 2729 
Q 467 2982 467 3334 
Q 467 3706 662 3971 
Q 858 4237 1210 4377 
Q 1562 4518 2035 4518 
Q 2509 4518 2864 4377 
Q 3219 4237 3417 3971 
Q 3616 3706 3616 3334 
Q 3616 2982 3430 2729 
Q 3245 2477 2889 2342 
Q 2534 2208 2035 2208 
z
M 2035 2515 
Q 2560 2515 2854 2732 
Q 3149 2950 3149 3315 
Q 3149 3699 2845 3913 
Q 2541 4128 2035 4128 
Q 1530 4128 1229 3913 
Q 928 3699 928 3322 
Q 928 2950 1219 2732 
Q 1510 2515 2035 2515 
z
" transform="scale(0.015625)"/>
       </defs>
       <use xlink:href="#Montserrat-Regular-31"/>
       <use xlink:href="#Montserrat-Regular-39" x="36.099991"/>
       <use xlink:href="#Montserrat-Regular-38" x="96.999985"/>
       <use xlink:href="#Montserrat-Regular-30" x="160.799973"/>
      </g>
     </g>
    </g>
    <g id="xtick_4">
     <g id="line2d_5">
      <g>
       <use xlink:href="#m9bcd3f4645" x="238.030339" y="151.388053" style="stroke: #000000; stroke-width: 0.8"/>
      </g>
     </g>
     <g id="text_4">
      <!-- 2000 -->
      <g transform="translate(225.260026 164.708365)scale(0.1 -0.1)">
       <defs>
        <path id="Montserrat-Regular-32" d="M 250 0 
L 250 326 
L 2112 2150 
Q 2368 2400 2496 2589 
Q 2624 2778 2669 2944 
Q 2714 3110 2714 3258 
Q 2714 3648 2448 3872 
Q 2182 4096 1664 4096 
Q 1267 4096 963 3974 
Q 659 3853 442 3597 
L 115 3878 
Q 378 4186 787 4352 
Q 1197 4518 1702 4518 
Q 2157 4518 2489 4374 
Q 2822 4230 3004 3955 
Q 3187 3680 3187 3309 
Q 3187 3091 3126 2880 
Q 3066 2669 2909 2435 
Q 2752 2202 2451 1907 
L 742 230 
L 614 410 
L 3392 410 
L 3392 0 
L 250 0 
z
" transform="scale(0.015625)"/>
       </defs>
       <use xlink:href="#Montserrat-Regular-32"/>
       <use xlink:href="#Montserrat-Regular-30" x="56.799988"/>
       <use xlink:href="#Montserrat-Regular-30" x="122.999985"/>
       <use xlink:href="#Montserrat-Regular-30" x="189.199982"/>
      </g>
     </g>
    </g>
    <g id="xtick_5">
     <g id="line2d_6">
      <g>
       <use xlink:href="#m9bcd3f4645" x="299.892867" y="151.388053" style="stroke: #000000; stroke-width: 0.8"/>
      </g>
     </g>
     <g id="text_5">
      <!-- 2020 -->
      <g transform="translate(287.592867 164.708365)scale(0.1 -0.1)">
       <use xlink:href="#Montserrat-Regular-32"/>
       <use xlink:href="#Montserrat-Regular-30" x="56.799988"/>
       <use xlink:href="#Montserrat-Regular-32" x="122.999985"/>
       <use xlink:href="#Montserrat-Regular-30" x="179.799973"/>
      </g>
     </g>
    </g>
    <g id="xtick_6">
     <g id="line2d_7">
      <defs>
       <path id="mc11179e88c" d="M 0 0 
L 0 2 
" style="stroke: #000000; stroke-width: 0.6"/>
      </defs>
      <g>
       <use xlink:href="#mc11179e88c" x="83.37402" y="151.388053" style="stroke: #000000; stroke-width: 0.6"/>
      </g>
     </g>
    </g>
    <g id="xtick_7">
     <g id="line2d_8">
      <g>
       <use xlink:href="#mc11179e88c" x="145.236547" y="151.388053" style="stroke: #000000; stroke-width: 0.6"/>
      </g>
     </g>
    </g>
    <g id="xtick_8">
     <g id="line2d_9">
      <g>
       <use xlink:href="#mc11179e88c" x="207.099075" y="151.388053" style="stroke: #000000; stroke-width: 0.6"/>
      </g>
     </g>
    </g>
    <g id="xtick_9">
     <g id="line2d_10">
      <g>
       <use xlink:href="#mc11179e88c" x="268.961603" y="151.388053" style="stroke: #000000; stroke-width: 0.6"/>
      </g>
     </g>
    </g>
    <g id="text_6">
     <!-- year -->
     <g transform="translate(164.075781 179.019303)scale(0.1 -0.1)">
      <defs>
       <path id="Montserrat-Regular-79" d="M 659 -1274 
Q 422 -1274 208 -1197 
Q -6 -1120 -160 -966 
L 51 -627 
Q 179 -749 329 -816 
Q 480 -883 666 -883 
Q 890 -883 1053 -758 
Q 1216 -634 1363 -320 
L 1581 173 
L 1632 243 
L 3014 3360 
L 3462 3360 
L 1779 -403 
Q 1638 -730 1468 -922 
Q 1299 -1114 1100 -1194 
Q 902 -1274 659 -1274 
z
M 1555 -96 
L 6 3360 
L 480 3360 
L 1850 275 
L 1555 -96 
z
" transform="scale(0.015625)"/>
       <path id="Montserrat-Regular-65" d="M 2061 -32 
Q 1536 -32 1139 189 
Q 742 410 518 797 
Q 294 1184 294 1683 
Q 294 2182 508 2566 
Q 723 2950 1097 3171 
Q 1472 3392 1939 3392 
Q 2413 3392 2781 3177 
Q 3149 2963 3360 2576 
Q 3571 2189 3571 1683 
Q 3571 1651 3568 1616 
Q 3565 1581 3565 1542 
L 640 1542 
L 640 1882 
L 3322 1882 
L 3142 1747 
Q 3142 2112 2985 2397 
Q 2829 2682 2560 2842 
Q 2291 3002 1939 3002 
Q 1594 3002 1318 2842 
Q 1043 2682 889 2394 
Q 736 2106 736 1734 
L 736 1664 
Q 736 1280 905 989 
Q 1075 698 1379 534 
Q 1683 371 2074 371 
Q 2381 371 2646 480 
Q 2912 589 3104 813 
L 3360 518 
Q 3136 250 2800 109 
Q 2464 -32 2061 -32 
z
" transform="scale(0.015625)"/>
       <path id="Montserrat-Regular-61" d="M 2739 0 
L 2739 742 
L 2720 864 
L 2720 2106 
Q 2720 2534 2480 2764 
Q 2240 2995 1766 2995 
Q 1440 2995 1145 2886 
Q 851 2778 646 2598 
L 442 2938 
Q 698 3155 1056 3273 
Q 1414 3392 1811 3392 
Q 2464 3392 2819 3069 
Q 3174 2746 3174 2086 
L 3174 0 
L 2739 0 
z
M 1581 -32 
Q 1203 -32 924 93 
Q 646 218 499 438 
Q 352 659 352 947 
Q 352 1210 477 1424 
Q 602 1638 886 1769 
Q 1171 1901 1651 1901 
L 2810 1901 
L 2810 1562 
L 1664 1562 
Q 1178 1562 989 1389 
Q 800 1216 800 960 
Q 800 672 1024 499 
Q 1248 326 1651 326 
Q 2035 326 2313 502 
Q 2592 678 2720 1011 
L 2822 698 
Q 2694 365 2377 166 
Q 2061 -32 1581 -32 
z
" transform="scale(0.015625)"/>
       <path id="Montserrat-Regular-72" d="M 634 0 
L 634 3360 
L 1069 3360 
L 1069 2445 
L 1024 2605 
Q 1165 2989 1497 3190 
Q 1830 3392 2323 3392 
L 2323 2950 
Q 2298 2950 2272 2953 
Q 2246 2957 2221 2957 
Q 1690 2957 1389 2633 
Q 1088 2310 1088 1715 
L 1088 0 
L 634 0 
z
" transform="scale(0.015625)"/>
      </defs>
      <use xlink:href="#Montserrat-Regular-79"/>
      <use xlink:href="#Montserrat-Regular-65" x="54.199997"/>
      <use xlink:href="#Montserrat-Regular-61" x="114.599991"/>
      <use xlink:href="#Montserrat-Regular-72" x="173.599976"/>
     </g>
    </g>
   </g>
   <g id="matplotlib.axis_2">
    <g id="ytick_1">
     <g id="line2d_11">
      <defs>
       <path id="m2c597a6e17" d="M 0 0 
L -3.5 0 
" style="stroke: #000000; stroke-width: 0.8"/>
      </defs>
      <g>
       <use xlink:href="#m2c597a6e17" x="39.760938" y="146.348053" style="stroke: #000000; stroke-width: 0.8"/>
      </g>
     </g>
     <g id="text_7">
      <!-- 0 -->
      <g transform="translate(27.240625 150.058209)scale(0.1 -0.1)">
       <use xlink:href="#Montserrat-Regular-30"/>
      </g>
     </g>
    </g>
    <g id="ytick_2">
     <g id="line2d_12">
      <g>
       <use xlink:href="#m2c597a6e17" x="39.760938" y="125.348053" style="stroke: #000000; stroke-width: 0.8"/>
      </g>
     </g>
     <g id="text_8">
      <!-- 5 -->
      <g transform="translate(28.201563 129.058209)scale(0.1 -0.1)">
       <defs>
        <path id="Montserrat-Regular-35" d="M 1747 -38 
Q 1267 -38 832 118 
Q 397 275 141 538 
L 365 902 
Q 576 678 944 531 
Q 1312 384 1741 384 
Q 2310 384 2608 637 
Q 2906 890 2906 1299 
Q 2906 1587 2768 1795 
Q 2630 2003 2304 2118 
Q 1978 2234 1408 2234 
L 454 2234 
L 685 4480 
L 3136 4480 
L 3136 4070 
L 870 4070 
L 1107 4294 
L 909 2413 
L 672 2643 
L 1510 2643 
Q 2189 2643 2598 2476 
Q 3008 2310 3190 2012 
Q 3373 1715 3373 1318 
Q 3373 941 3193 630 
Q 3014 320 2656 141 
Q 2298 -38 1747 -38 
z
" transform="scale(0.015625)"/>
       </defs>
       <use xlink:href="#Montserrat-Regular-35"/>
      </g>
     </g>
    </g>
    <g id="ytick_3">
     <g id="line2d_13">
      <g>
       <use xlink:href="#m2c597a6e17" x="39.760938" y="104.348053" style="stroke: #000000; stroke-width: 0.8"/>
      </g>
     </g>
     <g id="text_9">
      <!-- 10 -->
      <g transform="translate(23.63125 108.058209)scale(0.1 -0.1)">
       <use xlink:href="#Montserrat-Regular-31"/>
       <use xlink:href="#Montserrat-Regular-30" x="36.099991"/>
      </g>
     </g>
    </g>
    <g id="ytick_4">
     <g id="line2d_14">
      <g>
       <use xlink:href="#m2c597a6e17" x="39.760938" y="83.348053" style="stroke: #000000; stroke-width: 0.8"/>
      </g>
     </g>
     <g id="text_10">
      <!-- 15 -->
      <g transform="translate(24.592188 87.058209)scale(0.1 -0.1)">
       <use xlink:href="#Montserrat-Regular-31"/>
       <use xlink:href="#Montserrat-Regular-35" x="36.099991"/>
      </g>
     </g>
    </g>
    <g id="ytick_5">
     <g id="line2d_15">
      <g>
       <use xlink:href="#m2c597a6e17" x="39.760938" y="62.348053" style="stroke: #000000; stroke-width: 0.8"/>
      </g>
     </g>
     <g id="text_11">
      <!-- 20 -->
      <g transform="translate(21.560938 66.058209)scale(0.1 -0.1)">
       <use xlink:href="#Montserrat-Regular-32"/>
       <use xlink:href="#Montserrat-Regular-30" x="56.799988"/>
      </g>
     </g>
    </g>
    <g id="ytick_6">
     <g id="line2d_16">
      <g>
       <use xlink:href="#m2c597a6e17" x="39.760938" y="41.348053" style="stroke: #000000; stroke-width: 0.8"/>
      </g>
     </g>
     <g id="text_12">
      <!-- 25 -->
      <g transform="translate(22.521875 45.058209)scale(0.1 -0.1)">
       <use xlink:href="#Montserrat-Regular-32"/>
       <use xlink:href="#Montserrat-Regular-35" x="56.799988"/>
      </g>
     </g>
    </g>
    <g id="ytick_7">
     <g id="line2d_17">
      <defs>
       <path id="m2bc53d856b" d="M 0 0 
L -2 0 
" style="stroke: #000000; stroke-width: 0.6"/>
      </defs>
      <g>
       <use xlink:href="#m2bc53d856b" x="39.760938" y="135.848053" style="stroke: #000000; stroke-width: 0.6"/>
      </g>
     </g>
    </g>
    <g id="ytick_8">
     <g id="line2d_18">
      <g>
       <use xlink:href="#m2bc53d856b" x="39.760938" y="114.848053" style="stroke: #000000; stroke-width: 0.6"/>
      </g>
     </g>
    </g>
    <g id="ytick_9">
     <g id="line2d_19">
      <g>
       <use xlink:href="#m2bc53d856b" x="39.760938" y="93.848053" style="stroke: #000000; stroke-width: 0.6"/>
      </g>
     </g>
    </g>
    <g id="ytick_10">
     <g id="line2d_20">
      <g>
       <use xlink:href="#m2bc53d856b" x="39.760938" y="72.848053" style="stroke: #000000; stroke-width: 0.6"/>
      </g>
     </g>
    </g>
    <g id="ytick_11">
     <g id="line2d_21">
      <g>
       <use xlink:href="#m2bc53d856b" x="39.760938" y="51.848053" style="stroke: #000000; stroke-width: 0.6"/>
      </g>
     </g>
    </g>
    <g id="text_13">
     <!-- medals -->
     <g transform="translate(14.620313 113.678053)rotate(-90)scale(0.1 -0.1)">
      <defs>
       <path id="Montserrat-Regular-6d" d="M 4832 3392 
Q 5242 3392 5546 3235 
Q 5850 3078 6019 2758 
Q 6189 2438 6189 1952 
L 6189 0 
L 5734 0 
L 5734 1907 
Q 5734 2438 5481 2710 
Q 5229 2982 4768 2982 
Q 4422 2982 4169 2838 
Q 3917 2694 3779 2422 
Q 3642 2150 3642 1766 
L 3642 0 
L 3187 0 
L 3187 1907 
Q 3187 2438 2931 2710 
Q 2675 2982 2214 2982 
Q 1875 2982 1619 2838 
Q 1363 2694 1225 2422 
Q 1088 2150 1088 1766 
L 1088 0 
L 634 0 
L 634 3360 
L 1069 3360 
L 1069 2451 
L 998 2611 
Q 1152 2976 1494 3184 
Q 1837 3392 2304 3392 
Q 2797 3392 3142 3145 
Q 3488 2899 3590 2406 
L 3411 2477 
Q 3558 2886 3932 3139 
Q 4307 3392 4832 3392 
z
" transform="scale(0.015625)"/>
       <path id="Montserrat-Regular-64" d="M 1971 -32 
Q 1491 -32 1110 185 
Q 730 403 512 790 
Q 294 1178 294 1683 
Q 294 2195 512 2579 
Q 730 2963 1110 3177 
Q 1491 3392 1971 3392 
Q 2413 3392 2761 3193 
Q 3110 2995 3318 2614 
Q 3526 2234 3526 1683 
Q 3526 1139 3321 755 
Q 3117 371 2768 169 
Q 2419 -32 1971 -32 
z
M 2003 371 
Q 2362 371 2646 534 
Q 2931 698 3094 995 
Q 3258 1293 3258 1683 
Q 3258 2080 3094 2374 
Q 2931 2669 2646 2832 
Q 2362 2995 2003 2995 
Q 1651 2995 1369 2832 
Q 1088 2669 921 2374 
Q 755 2080 755 1683 
Q 755 1293 921 995 
Q 1088 698 1369 534 
Q 1651 371 2003 371 
z
M 3270 0 
L 3270 1011 
L 3315 1690 
L 3251 2368 
L 3251 4749 
L 3706 4749 
L 3706 0 
L 3270 0 
z
" transform="scale(0.015625)"/>
       <path id="Montserrat-Regular-6c" d="M 634 0 
L 634 4749 
L 1088 4749 
L 1088 0 
L 634 0 
z
" transform="scale(0.015625)"/>
       <path id="Montserrat-Regular-73" d="M 1536 -32 
Q 1120 -32 749 86 
Q 378 205 166 384 
L 371 742 
Q 576 589 896 477 
Q 1216 365 1568 365 
Q 2048 365 2259 515 
Q 2470 666 2470 915 
Q 2470 1101 2352 1206 
Q 2234 1312 2042 1366 
Q 1850 1421 1613 1459 
Q 1376 1498 1142 1549 
Q 909 1600 717 1699 
Q 525 1798 406 1971 
Q 288 2144 288 2432 
Q 288 2707 441 2924 
Q 595 3142 892 3267 
Q 1190 3392 1619 3392 
Q 1946 3392 2272 3305 
Q 2598 3219 2810 3078 
L 2611 2714 
Q 2387 2867 2131 2934 
Q 1875 3002 1619 3002 
Q 1165 3002 950 2845 
Q 736 2688 736 2445 
Q 736 2253 854 2144 
Q 973 2035 1168 1974 
Q 1363 1914 1596 1875 
Q 1830 1837 2064 1782 
Q 2298 1728 2493 1635 
Q 2688 1542 2806 1372 
Q 2925 1203 2925 928 
Q 2925 634 2761 419 
Q 2598 205 2288 86 
Q 1978 -32 1536 -32 
z
" transform="scale(0.015625)"/>
      </defs>
      <use xlink:href="#Montserrat-Regular-6d"/>
      <use xlink:href="#Montserrat-Regular-65" x="106.099991"/>
      <use xlink:href="#Montserrat-Regular-64" x="166.499985"/>
      <use xlink:href="#Montserrat-Regular-61" x="234.299973"/>
      <use xlink:href="#Montserrat-Regular-6c" x="293.299957"/>
      <use xlink:href="#Montserrat-Regular-73" x="320.199951"/>
     </g>
    </g>
   </g>
   <g id="PathCollection_1">
    <path d="M 77.187767 113.412723 
C 77.364039 113.412723 77.533116 113.342689 77.65776 113.218046 
C 77.782403 113.093402 77.852437 112.924325 77.852437 112.748053 
C 77.852437 112.57178 77.782403 112.402704 77.65776 112.27806 
C 77.533116 112.153416 77.364039 112.083383 77.187767 112.083383 
C 77.011494 112.083383 76.842418 112.153416 76.717774 112.27806 
C 76.59313 112.402704 76.523097 112.57178 76.523097 112.748053 
C 76.523097 112.924325 76.59313 113.093402 76.717774 113.218046 
C 76.842418 113.342689 77.011494 113.412723 77.187767 113.412723 
z
" clip-path="url(#pc0ba534afe)" style="fill-opacity: 0.501961; stroke: #000000; stroke-opacity: 0.501961; stroke-width: 0.886227"/>
    <path d="M 89.560272 113.412723 
C 89.736545 113.412723 89.905622 113.342689 90.030265 113.218046 
C 90.154909 113.093402 90.224943 112.924325 90.224943 112.748053 
C 90.224943 112.57178 90.154909 112.402704 90.030265 112.27806 
C 89.905622 112.153416 89.736545 112.083383 89.560272 112.083383 
C 89.384 112.083383 89.214923 112.153416 89.09028 112.27806 
C 88.965636 112.402704 88.895602 112.57178 88.895602 112.748053 
C 88.895602 112.924325 88.965636 113.093402 89.09028 113.218046 
C 89.214923 113.342689 89.384 113.412723 89.560272 113.412723 
z
" clip-path="url(#pc0ba534afe)" style="fill-opacity: 0.501961; stroke: #000000; stroke-opacity: 0.501961; stroke-width: 0.886227"/>
    <path d="M 101.932778 96.612723 
C 102.10905 96.612723 102.278127 96.542689 102.402771 96.418046 
C 102.527414 96.293402 102.597448 96.124325 102.597448 95.948053 
C 102.597448 95.77178 102.527414 95.602704 102.402771 95.47806 
C 102.278127 95.353416 102.10905 95.283383 101.932778 95.283383 
C 101.756505 95.283383 101.587429 95.353416 101.462785 95.47806 
C 101.338142 95.602704 101.268108 95.77178 101.268108 95.948053 
C 101.268108 96.124325 101.338142 96.293402 101.462785 96.418046 
C 101.587429 96.542689 101.756505 96.612723 101.932778 96.612723 
z
" clip-path="url(#pc0ba534afe)" style="fill-opacity: 0.501961; stroke: #000000; stroke-opacity: 0.501961; stroke-width: 0.886227"/>
    <path d="M 114.305283 121.812723 
C 114.481556 121.812723 114.650633 121.742689 114.775276 121.618046 
C 114.89992 121.493402 114.969954 121.324325 114.969954 121.148053 
C 114.969954 120.97178 114.89992 120.802704 114.775276 120.67806 
C 114.650633 120.553416 114.481556 120.483383 114.305283 120.483383 
C 114.129011 120.483383 113.959934 120.553416 113.835291 120.67806 
C 113.710647 120.802704 113.640613 120.97178 113.640613 121.148053 
C 113.640613 121.324325 113.710647 121.493402 113.835291 121.618046 
C 113.959934 121.742689 114.129011 121.812723 114.305283 121.812723 
z
" clip-path="url(#pc0ba534afe)" style="fill-opacity: 0.501961; stroke: #000000; stroke-opacity: 0.501961; stroke-width: 0.886227"/>
    <path d="M 126.677789 88.212723 
C 126.854062 88.212723 127.023138 88.142689 127.147782 88.018046 
C 127.272425 87.893402 127.342459 87.724325 127.342459 87.548053 
C 127.342459 87.37178 127.272425 87.202704 127.147782 87.07806 
C 127.023138 86.953416 126.854062 86.883383 126.677789 86.883383 
C 126.501516 86.883383 126.33244 86.953416 126.207796 87.07806 
C 126.083153 87.202704 126.013119 87.37178 126.013119 87.548053 
C 126.013119 87.724325 126.083153 87.893402 126.207796 88.018046 
C 126.33244 88.142689 126.501516 88.212723 126.677789 88.212723 
z
" clip-path="url(#pc0ba534afe)" style="fill-opacity: 0.501961; stroke: #000000; stroke-opacity: 0.501961; stroke-width: 0.886227"/>
    <path d="M 139.050294 96.612723 
C 139.226567 96.612723 139.395644 96.542689 139.520287 96.418046 
C 139.644931 96.293402 139.714965 96.124325 139.714965 95.948053 
C 139.714965 95.77178 139.644931 95.602704 139.520287 95.47806 
C 139.395644 95.353416 139.226567 95.283383 139.050294 95.283383 
C 138.874022 95.283383 138.704945 95.353416 138.580302 95.47806 
C 138.455658 95.602704 138.385624 95.77178 138.385624 95.948053 
C 138.385624 96.124325 138.455658 96.293402 138.580302 96.418046 
C 138.704945 96.542689 138.874022 96.612723 139.050294 96.612723 
z
" clip-path="url(#pc0ba534afe)" style="fill-opacity: 0.501961; stroke: #000000; stroke-opacity: 0.501961; stroke-width: 0.886227"/>
    <path d="M 151.4228 126.012723 
C 151.599073 126.012723 151.768149 125.942689 151.892793 125.818046 
C 152.017436 125.693402 152.08747 125.524325 152.08747 125.348053 
C 152.08747 125.17178 152.017436 125.002704 151.892793 124.87806 
C 151.768149 124.753416 151.599073 124.683383 151.4228 124.683383 
C 151.246527 124.683383 151.077451 124.753416 150.952807 124.87806 
C 150.828164 125.002704 150.75813 125.17178 150.75813 125.348053 
C 150.75813 125.524325 150.828164 125.693402 150.952807 125.818046 
C 151.077451 125.942689 151.246527 126.012723 151.4228 126.012723 
z
" clip-path="url(#pc0ba534afe)" style="fill-opacity: 0.501961; stroke: #000000; stroke-opacity: 0.501961; stroke-width: 0.886227"/>
    <path d="M 163.795306 117.612723 
C 163.971578 117.612723 164.140655 117.542689 164.265298 117.418046 
C 164.389942 117.293402 164.459976 117.124325 164.459976 116.948053 
C 164.459976 116.77178 164.389942 116.602704 164.265298 116.47806 
C 164.140655 116.353416 163.971578 116.283383 163.795306 116.283383 
C 163.619033 116.283383 163.449956 116.353416 163.325313 116.47806 
C 163.200669 116.602704 163.130635 116.77178 163.130635 116.948053 
C 163.130635 117.124325 163.200669 117.293402 163.325313 117.418046 
C 163.449956 117.542689 163.619033 117.612723 163.795306 117.612723 
z
" clip-path="url(#pc0ba534afe)" style="fill-opacity: 0.501961; stroke: #000000; stroke-opacity: 0.501961; stroke-width: 0.886227"/>
    <path d="M 176.167811 113.412723 
C 176.344084 113.412723 176.51316 113.342689 176.637804 113.218046 
C 176.762447 113.093402 176.832481 112.924325 176.832481 112.748053 
C 176.832481 112.57178 176.762447 112.402704 176.637804 112.27806 
C 176.51316 112.153416 176.344084 112.083383 176.167811 112.083383 
C 175.991539 112.083383 175.822462 112.153416 175.697818 112.27806 
C 175.573175 112.402704 175.503141 112.57178 175.503141 112.748053 
C 175.503141 112.924325 175.573175 113.093402 175.697818 113.218046 
C 175.822462 113.342689 175.991539 113.412723 176.167811 113.412723 
z
" clip-path="url(#pc0ba534afe)" style="fill-opacity: 0.501961; stroke: #000000; stroke-opacity: 0.501961; stroke-width: 0.886227"/>
    <path d="M 188.540317 142.812723 
C 188.716589 142.812723 188.885666 142.742689 189.010309 142.618046 
C 189.134953 142.493402 189.204987 142.324325 189.204987 142.148053 
C 189.204987 141.97178 189.134953 141.802704 189.010309 141.67806 
C 188.885666 141.553416 188.716589 141.483383 188.540317 141.483383 
C 188.364044 141.483383 188.194967 141.553416 188.070324 141.67806 
C 187.94568 141.802704 187.875646 141.97178 187.875646 142.148053 
C 187.875646 142.324325 187.94568 142.493402 188.070324 142.618046 
C 188.194967 142.742689 188.364044 142.812723 188.540317 142.812723 
z
" clip-path="url(#pc0ba534afe)" style="fill-opacity: 0.501961; stroke: #000000; stroke-opacity: 0.501961; stroke-width: 0.886227"/>
    <path d="M 200.912822 105.012723 
C 201.089095 105.012723 201.258171 104.942689 201.382815 104.818046 
C 201.507459 104.693402 201.577492 104.524325 201.577492 104.348053 
C 201.577492 104.17178 201.507459 104.002704 201.382815 103.87806 
C 201.258171 103.753416 201.089095 103.683383 200.912822 103.683383 
C 200.73655 103.683383 200.567473 103.753416 200.442829 103.87806 
C 200.318186 104.002704 200.248152 104.17178 200.248152 104.348053 
C 200.248152 104.524325 200.318186 104.693402 200.442829 104.818046 
C 200.567473 104.942689 200.73655 105.012723 200.912822 105.012723 
z
" clip-path="url(#pc0ba534afe)" style="fill-opacity: 0.501961; stroke: #000000; stroke-opacity: 0.501961; stroke-width: 0.886227"/>
    <path d="M 213.285328 58.812723 
C 213.4616 58.812723 213.630677 58.742689 213.755321 58.618046 
C 213.879964 58.493402 213.949998 58.324325 213.949998 58.148053 
C 213.949998 57.97178 213.879964 57.802704 213.755321 57.67806 
C 213.630677 57.553416 213.4616 57.483383 213.285328 57.483383 
C 213.109055 57.483383 212.939978 57.553416 212.815335 57.67806 
C 212.690691 57.802704 212.620658 57.97178 212.620658 58.148053 
C 212.620658 58.324325 212.690691 58.493402 212.815335 58.618046 
C 212.939978 58.742689 213.109055 58.812723 213.285328 58.812723 
z
" clip-path="url(#pc0ba534afe)" style="fill-opacity: 0.501961; stroke: #000000; stroke-opacity: 0.501961; stroke-width: 0.886227"/>
    <path d="M 219.471581 109.212723 
C 219.647853 109.212723 219.81693 109.142689 219.941573 109.018046 
C 220.066217 108.893402 220.136251 108.724325 220.136251 108.548053 
C 220.136251 108.37178 220.066217 108.202704 219.941573 108.07806 
C 219.81693 107.953416 219.647853 107.883383 219.471581 107.883383 
C 219.295308 107.883383 219.126231 107.953416 219.001588 108.07806 
C 218.876944 108.202704 218.80691 108.37178 218.80691 108.548053 
C 218.80691 108.724325 218.876944 108.893402 219.001588 109.018046 
C 219.126231 109.142689 219.295308 109.212723 219.471581 109.212723 
z
" clip-path="url(#pc0ba534afe)" style="fill-opacity: 0.501961; stroke: #000000; stroke-opacity: 0.501961; stroke-width: 0.886227"/>
    <path d="M 231.844086 75.612723 
C 232.020359 75.612723 232.189435 75.542689 232.314079 75.418046 
C 232.438722 75.293402 232.508756 75.124325 232.508756 74.948053 
C 232.508756 74.77178 232.438722 74.602704 232.314079 74.47806 
C 232.189435 74.353416 232.020359 74.283383 231.844086 74.283383 
C 231.667813 74.283383 231.498737 74.353416 231.374093 74.47806 
C 231.24945 74.602704 231.179416 74.77178 231.179416 74.948053 
C 231.179416 75.124325 231.24945 75.293402 231.374093 75.418046 
C 231.498737 75.542689 231.667813 75.612723 231.844086 75.612723 
z
" clip-path="url(#pc0ba534afe)" style="fill-opacity: 0.501961; stroke: #000000; stroke-opacity: 0.501961; stroke-width: 0.886227"/>
    <path d="M 244.216592 75.612723 
C 244.392864 75.612723 244.561941 75.542689 244.686584 75.418046 
C 244.811228 75.293402 244.881262 75.124325 244.881262 74.948053 
C 244.881262 74.77178 244.811228 74.602704 244.686584 74.47806 
C 244.561941 74.353416 244.392864 74.283383 244.216592 74.283383 
C 244.040319 74.283383 243.871242 74.353416 243.746599 74.47806 
C 243.621955 74.602704 243.551921 74.77178 243.551921 74.948053 
C 243.551921 75.124325 243.621955 75.293402 243.746599 75.418046 
C 243.871242 75.542689 244.040319 75.612723 244.216592 75.612723 
z
" clip-path="url(#pc0ba534afe)" style="fill-opacity: 0.501961; stroke: #000000; stroke-opacity: 0.501961; stroke-width: 0.886227"/>
    <path d="M 256.589097 46.212723 
C 256.76537 46.212723 256.934446 46.142689 257.05909 46.018046 
C 257.183733 45.893402 257.253767 45.724325 257.253767 45.548053 
C 257.253767 45.37178 257.183733 45.202704 257.05909 45.07806 
C 256.934446 44.953416 256.76537 44.883383 256.589097 44.883383 
C 256.412825 44.883383 256.243748 44.953416 256.119104 45.07806 
C 255.994461 45.202704 255.924427 45.37178 255.924427 45.548053 
C 255.924427 45.724325 255.994461 45.893402 256.119104 46.018046 
C 256.243748 46.142689 256.412825 46.212723 256.589097 46.212723 
z
" clip-path="url(#pc0ba534afe)" style="fill-opacity: 0.501961; stroke: #000000; stroke-opacity: 0.501961; stroke-width: 0.886227"/>
    <path d="M 268.961603 75.612723 
C 269.137875 75.612723 269.306952 75.542689 269.431595 75.418046 
C 269.556239 75.293402 269.626273 75.124325 269.626273 74.948053 
C 269.626273 74.77178 269.556239 74.602704 269.431595 74.47806 
C 269.306952 74.353416 269.137875 74.283383 268.961603 74.283383 
C 268.78533 74.283383 268.616253 74.353416 268.49161 74.47806 
C 268.366966 74.602704 268.296932 74.77178 268.296932 74.948053 
C 268.296932 75.124325 268.366966 75.293402 268.49161 75.418046 
C 268.616253 75.542689 268.78533 75.612723 268.961603 75.612723 
z
" clip-path="url(#pc0ba534afe)" style="fill-opacity: 0.501961; stroke: #000000; stroke-opacity: 0.501961; stroke-width: 0.886227"/>
    <path d="M 281.334108 71.412723 
C 281.510381 71.412723 281.679457 71.342689 281.804101 71.218046 
C 281.928745 71.093402 281.998778 70.924325 281.998778 70.748053 
C 281.998778 70.57178 281.928745 70.402704 281.804101 70.27806 
C 281.679457 70.153416 281.510381 70.083383 281.334108 70.083383 
C 281.157836 70.083383 280.988759 70.153416 280.864115 70.27806 
C 280.739472 70.402704 280.669438 70.57178 280.669438 70.748053 
C 280.669438 70.924325 280.739472 71.093402 280.864115 71.218046 
C 280.988759 71.342689 281.157836 71.412723 281.334108 71.412723 
z
" clip-path="url(#pc0ba534afe)" style="fill-opacity: 0.501961; stroke: #000000; stroke-opacity: 0.501961; stroke-width: 0.886227"/>
    <path d="M 293.706614 84.012723 
C 293.882886 84.012723 294.051963 83.942689 294.176607 83.818046 
C 294.30125 83.693402 294.371284 83.524325 294.371284 83.348053 
C 294.371284 83.17178 294.30125 83.002704 294.176607 82.87806 
C 294.051963 82.753416 293.882886 82.683383 293.706614 82.683383 
C 293.530341 82.683383 293.361265 82.753416 293.236621 82.87806 
C 293.111977 83.002704 293.041944 83.17178 293.041944 83.348053 
C 293.041944 83.524325 293.111977 83.693402 293.236621 83.818046 
C 293.361265 83.942689 293.530341 84.012723 293.706614 84.012723 
z
" clip-path="url(#pc0ba534afe)" style="fill-opacity: 0.501961; stroke: #000000; stroke-opacity: 0.501961; stroke-width: 0.886227"/>
    <path d="M 306.079119 67.212723 
C 306.255392 67.212723 306.424469 67.142689 306.549112 67.018046 
C 306.673756 66.893402 306.74379 66.724325 306.74379 66.548053 
C 306.74379 66.37178 306.673756 66.202704 306.549112 66.07806 
C 306.424469 65.953416 306.255392 65.883383 306.079119 65.883383 
C 305.902847 65.883383 305.73377 65.953416 305.609127 66.07806 
C 305.484483 66.202704 305.414449 66.37178 305.414449 66.548053 
C 305.414449 66.724325 305.484483 66.893402 305.609127 67.018046 
C 305.73377 67.142689 305.902847 67.212723 306.079119 67.212723 
z
" clip-path="url(#pc0ba534afe)" style="fill-opacity: 0.501961; stroke: #000000; stroke-opacity: 0.501961; stroke-width: 0.886227"/>
    <path d="M 77.187767 113.412723 
C 77.364039 113.412723 77.533116 113.342689 77.65776 113.218046 
C 77.782403 113.093402 77.852437 112.924325 77.852437 112.748053 
C 77.852437 112.57178 77.782403 112.402704 77.65776 112.27806 
C 77.533116 112.153416 77.364039 112.083383 77.187767 112.083383 
C 77.011494 112.083383 76.842418 112.153416 76.717774 112.27806 
C 76.59313 112.402704 76.523097 112.57178 76.523097 112.748053 
C 76.523097 112.924325 76.59313 113.093402 76.717774 113.218046 
C 76.842418 113.342689 77.011494 113.412723 77.187767 113.412723 
z
" clip-path="url(#pc0ba534afe)" style="fill-opacity: 0.501961; stroke: #000000; stroke-opacity: 0.501961; stroke-width: 0.886227"/>
    <path d="M 89.560272 113.412723 
C 89.736545 113.412723 89.905622 113.342689 90.030265 113.218046 
C 90.154909 113.093402 90.224943 112.924325 90.224943 112.748053 
C 90.224943 112.57178 90.154909 112.402704 90.030265 112.27806 
C 89.905622 112.153416 89.736545 112.083383 89.560272 112.083383 
C 89.384 112.083383 89.214923 112.153416 89.09028 112.27806 
C 88.965636 112.402704 88.895602 112.57178 88.895602 112.748053 
C 88.895602 112.924325 88.965636 113.093402 89.09028 113.218046 
C 89.214923 113.342689 89.384 113.412723 89.560272 113.412723 
z
" clip-path="url(#pc0ba534afe)" style="fill-opacity: 0.501961; stroke: #000000; stroke-opacity: 0.501961; stroke-width: 0.886227"/>
    <path d="M 101.932778 96.612723 
C 102.10905 96.612723 102.278127 96.542689 102.402771 96.418046 
C 102.527414 96.293402 102.597448 96.124325 102.597448 95.948053 
C 102.597448 95.77178 102.527414 95.602704 102.402771 95.47806 
C 102.278127 95.353416 102.10905 95.283383 101.932778 95.283383 
C 101.756505 95.283383 101.587429 95.353416 101.462785 95.47806 
C 101.338142 95.602704 101.268108 95.77178 101.268108 95.948053 
C 101.268108 96.124325 101.338142 96.293402 101.462785 96.418046 
C 101.587429 96.542689 101.756505 96.612723 101.932778 96.612723 
z
" clip-path="url(#pc0ba534afe)" style="fill-opacity: 0.501961; stroke: #000000; stroke-opacity: 0.501961; stroke-width: 0.886227"/>
    <path d="M 114.305283 121.812723 
C 114.481556 121.812723 114.650633 121.742689 114.775276 121.618046 
C 114.89992 121.493402 114.969954 121.324325 114.969954 121.148053 
C 114.969954 120.97178 114.89992 120.802704 114.775276 120.67806 
C 114.650633 120.553416 114.481556 120.483383 114.305283 120.483383 
C 114.129011 120.483383 113.959934 120.553416 113.835291 120.67806 
C 113.710647 120.802704 113.640613 120.97178 113.640613 121.148053 
C 113.640613 121.324325 113.710647 121.493402 113.835291 121.618046 
C 113.959934 121.742689 114.129011 121.812723 114.305283 121.812723 
z
" clip-path="url(#pc0ba534afe)" style="fill-opacity: 0.501961; stroke: #000000; stroke-opacity: 0.501961; stroke-width: 0.886227"/>
    <path d="M 126.677789 88.212723 
C 126.854062 88.212723 127.023138 88.142689 127.147782 88.018046 
C 127.272425 87.893402 127.342459 87.724325 127.342459 87.548053 
C 127.342459 87.37178 127.272425 87.202704 127.147782 87.07806 
C 127.023138 86.953416 126.854062 86.883383 126.677789 86.883383 
C 126.501516 86.883383 126.33244 86.953416 126.207796 87.07806 
C 126.083153 87.202704 126.013119 87.37178 126.013119 87.548053 
C 126.013119 87.724325 126.083153 87.893402 126.207796 88.018046 
C 126.33244 88.142689 126.501516 88.212723 126.677789 88.212723 
z
" clip-path="url(#pc0ba534afe)" style="fill-opacity: 0.501961; stroke: #000000; stroke-opacity: 0.501961; stroke-width: 0.886227"/>
    <path d="M 139.050294 96.612723 
C 139.226567 96.612723 139.395644 96.542689 139.520287 96.418046 
C 139.644931 96.293402 139.714965 96.124325 139.714965 95.948053 
C 139.714965 95.77178 139.644931 95.602704 139.520287 95.47806 
C 139.395644 95.353416 139.226567 95.283383 139.050294 95.283383 
C 138.874022 95.283383 138.704945 95.353416 138.580302 95.47806 
C 138.455658 95.602704 138.385624 95.77178 138.385624 95.948053 
C 138.385624 96.124325 138.455658 96.293402 138.580302 96.418046 
C 138.704945 96.542689 138.874022 96.612723 139.050294 96.612723 
z
" clip-path="url(#pc0ba534afe)" style="fill-opacity: 0.501961; stroke: #000000; stroke-opacity: 0.501961; stroke-width: 0.886227"/>
    <path d="M 151.4228 126.012723 
C 151.599073 126.012723 151.768149 125.942689 151.892793 125.818046 
C 152.017436 125.693402 152.08747 125.524325 152.08747 125.348053 
C 152.08747 125.17178 152.017436 125.002704 151.892793 124.87806 
C 151.768149 124.753416 151.599073 124.683383 151.4228 124.683383 
C 151.246527 124.683383 151.077451 124.753416 150.952807 124.87806 
C 150.828164 125.002704 150.75813 125.17178 150.75813 125.348053 
C 150.75813 125.524325 150.828164 125.693402 150.952807 125.818046 
C 151.077451 125.942689 151.246527 126.012723 151.4228 126.012723 
z
" clip-path="url(#pc0ba534afe)" style="fill-opacity: 0.501961; stroke: #000000; stroke-opacity: 0.501961; stroke-width: 0.886227"/>
    <path d="M 163.795306 117.612723 
C 163.971578 117.612723 164.140655 117.542689 164.265298 117.418046 
C 164.389942 117.293402 164.459976 117.124325 164.459976 116.948053 
C 164.459976 116.77178 164.389942 116.602704 164.265298 116.47806 
C 164.140655 116.353416 163.971578 116.283383 163.795306 116.283383 
C 163.619033 116.283383 163.449956 116.353416 163.325313 116.47806 
C 163.200669 116.602704 163.130635 116.77178 163.130635 116.948053 
C 163.130635 117.124325 163.200669 117.293402 163.325313 117.418046 
C 163.449956 117.542689 163.619033 117.612723 163.795306 117.612723 
z
" clip-path="url(#pc0ba534afe)" style="fill-opacity: 0.501961; stroke: #000000; stroke-opacity: 0.501961; stroke-width: 0.886227"/>
    <path d="M 176.167811 113.412723 
C 176.344084 113.412723 176.51316 113.342689 176.637804 113.218046 
C 176.762447 113.093402 176.832481 112.924325 176.832481 112.748053 
C 176.832481 112.57178 176.762447 112.402704 176.637804 112.27806 
C 176.51316 112.153416 176.344084 112.083383 176.167811 112.083383 
C 175.991539 112.083383 175.822462 112.153416 175.697818 112.27806 
C 175.573175 112.402704 175.503141 112.57178 175.503141 112.748053 
C 175.503141 112.924325 175.573175 113.093402 175.697818 113.218046 
C 175.822462 113.342689 175.991539 113.412723 176.167811 113.412723 
z
" clip-path="url(#pc0ba534afe)" style="fill-opacity: 0.501961; stroke: #000000; stroke-opacity: 0.501961; stroke-width: 0.886227"/>
    <path d="M 188.540317 142.812723 
C 188.716589 142.812723 188.885666 142.742689 189.010309 142.618046 
C 189.134953 142.493402 189.204987 142.324325 189.204987 142.148053 
C 189.204987 141.97178 189.134953 141.802704 189.010309 141.67806 
C 188.885666 141.553416 188.716589 141.483383 188.540317 141.483383 
C 188.364044 141.483383 188.194967 141.553416 188.070324 141.67806 
C 187.94568 141.802704 187.875646 141.97178 187.875646 142.148053 
C 187.875646 142.324325 187.94568 142.493402 188.070324 142.618046 
C 188.194967 142.742689 188.364044 142.812723 188.540317 142.812723 
z
" clip-path="url(#pc0ba534afe)" style="fill-opacity: 0.501961; stroke: #000000; stroke-opacity: 0.501961; stroke-width: 0.886227"/>
    <path d="M 200.912822 105.012723 
C 201.089095 105.012723 201.258171 104.942689 201.382815 104.818046 
C 201.507459 104.693402 201.577492 104.524325 201.577492 104.348053 
C 201.577492 104.17178 201.507459 104.002704 201.382815 103.87806 
C 201.258171 103.753416 201.089095 103.683383 200.912822 103.683383 
C 200.73655 103.683383 200.567473 103.753416 200.442829 103.87806 
C 200.318186 104.002704 200.248152 104.17178 200.248152 104.348053 
C 200.248152 104.524325 200.318186 104.693402 200.442829 104.818046 
C 200.567473 104.942689 200.73655 105.012723 200.912822 105.012723 
z
" clip-path="url(#pc0ba534afe)" style="fill-opacity: 0.501961; stroke: #000000; stroke-opacity: 0.501961; stroke-width: 0.886227"/>
    <path d="M 213.285328 58.812723 
C 213.4616 58.812723 213.630677 58.742689 213.755321 58.618046 
C 213.879964 58.493402 213.949998 58.324325 213.949998 58.148053 
C 213.949998 57.97178 213.879964 57.802704 213.755321 57.67806 
C 213.630677 57.553416 213.4616 57.483383 213.285328 57.483383 
C 213.109055 57.483383 212.939978 57.553416 212.815335 57.67806 
C 212.690691 57.802704 212.620658 57.97178 212.620658 58.148053 
C 212.620658 58.324325 212.690691 58.493402 212.815335 58.618046 
C 212.939978 58.742689 213.109055 58.812723 213.285328 58.812723 
z
" clip-path="url(#pc0ba534afe)" style="fill-opacity: 0.501961; stroke: #000000; stroke-opacity: 0.501961; stroke-width: 0.886227"/>
    <path d="M 219.471581 109.212723 
C 219.647853 109.212723 219.81693 109.142689 219.941573 109.018046 
C 220.066217 108.893402 220.136251 108.724325 220.136251 108.548053 
C 220.136251 108.37178 220.066217 108.202704 219.941573 108.07806 
C 219.81693 107.953416 219.647853 107.883383 219.471581 107.883383 
C 219.295308 107.883383 219.126231 107.953416 219.001588 108.07806 
C 218.876944 108.202704 218.80691 108.37178 218.80691 108.548053 
C 218.80691 108.724325 218.876944 108.893402 219.001588 109.018046 
C 219.126231 109.142689 219.295308 109.212723 219.471581 109.212723 
z
" clip-path="url(#pc0ba534afe)" style="fill-opacity: 0.501961; stroke: #000000; stroke-opacity: 0.501961; stroke-width: 0.886227"/>
    <path d="M 231.844086 75.612723 
C 232.020359 75.612723 232.189435 75.542689 232.314079 75.418046 
C 232.438722 75.293402 232.508756 75.124325 232.508756 74.948053 
C 232.508756 74.77178 232.438722 74.602704 232.314079 74.47806 
C 232.189435 74.353416 232.020359 74.283383 231.844086 74.283383 
C 231.667813 74.283383 231.498737 74.353416 231.374093 74.47806 
C 231.24945 74.602704 231.179416 74.77178 231.179416 74.948053 
C 231.179416 75.124325 231.24945 75.293402 231.374093 75.418046 
C 231.498737 75.542689 231.667813 75.612723 231.844086 75.612723 
z
" clip-path="url(#pc0ba534afe)" style="fill-opacity: 0.501961; stroke: #000000; stroke-opacity: 0.501961; stroke-width: 0.886227"/>
    <path d="M 244.216592 75.612723 
C 244.392864 75.612723 244.561941 75.542689 244.686584 75.418046 
C 244.811228 75.293402 244.881262 75.124325 244.881262 74.948053 
C 244.881262 74.77178 244.811228 74.602704 244.686584 74.47806 
C 244.561941 74.353416 244.392864 74.283383 244.216592 74.283383 
C 244.040319 74.283383 243.871242 74.353416 243.746599 74.47806 
C 243.621955 74.602704 243.551921 74.77178 243.551921 74.948053 
C 243.551921 75.124325 243.621955 75.293402 243.746599 75.418046 
C 243.871242 75.542689 244.040319 75.612723 244.216592 75.612723 
z
" clip-path="url(#pc0ba534afe)" style="fill-opacity: 0.501961; stroke: #000000; stroke-opacity: 0.501961; stroke-width: 0.886227"/>
    <path d="M 256.589097 46.212723 
C 256.76537 46.212723 256.934446 46.142689 257.05909 46.018046 
C 257.183733 45.893402 257.253767 45.724325 257.253767 45.548053 
C 257.253767 45.37178 257.183733 45.202704 257.05909 45.07806 
C 256.934446 44.953416 256.76537 44.883383 256.589097 44.883383 
C 256.412825 44.883383 256.243748 44.953416 256.119104 45.07806 
C 255.994461 45.202704 255.924427 45.37178 255.924427 45.548053 
C 255.924427 45.724325 255.994461 45.893402 256.119104 46.018046 
C 256.243748 46.142689 256.412825 46.212723 256.589097 46.212723 
z
" clip-path="url(#pc0ba534afe)" style="fill-opacity: 0.501961; stroke: #000000; stroke-opacity: 0.501961; stroke-width: 0.886227"/>
    <path d="M 268.961603 75.612723 
C 269.137875 75.612723 269.306952 75.542689 269.431595 75.418046 
C 269.556239 75.293402 269.626273 75.124325 269.626273 74.948053 
C 269.626273 74.77178 269.556239 74.602704 269.431595 74.47806 
C 269.306952 74.353416 269.137875 74.283383 268.961603 74.283383 
C 268.78533 74.283383 268.616253 74.353416 268.49161 74.47806 
C 268.366966 74.602704 268.296932 74.77178 268.296932 74.948053 
C 268.296932 75.124325 268.366966 75.293402 268.49161 75.418046 
C 268.616253 75.542689 268.78533 75.612723 268.961603 75.612723 
z
" clip-path="url(#pc0ba534afe)" style="fill-opacity: 0.501961; stroke: #000000; stroke-opacity: 0.501961; stroke-width: 0.886227"/>
    <path d="M 281.334108 71.412723 
C 281.510381 71.412723 281.679457 71.342689 281.804101 71.218046 
C 281.928745 71.093402 281.998778 70.924325 281.998778 70.748053 
C 281.998778 70.57178 281.928745 70.402704 281.804101 70.27806 
C 281.679457 70.153416 281.510381 70.083383 281.334108 70.083383 
C 281.157836 70.083383 280.988759 70.153416 280.864115 70.27806 
C 280.739472 70.402704 280.669438 70.57178 280.669438 70.748053 
C 280.669438 70.924325 280.739472 71.093402 280.864115 71.218046 
C 280.988759 71.342689 281.157836 71.412723 281.334108 71.412723 
z
" clip-path="url(#pc0ba534afe)" style="fill-opacity: 0.501961; stroke: #000000; stroke-opacity: 0.501961; stroke-width: 0.886227"/>
    <path d="M 293.706614 84.012723 
C 293.882886 84.012723 294.051963 83.942689 294.176607 83.818046 
C 294.30125 83.693402 294.371284 83.524325 294.371284 83.348053 
C 294.371284 83.17178 294.30125 83.002704 294.176607 82.87806 
C 294.051963 82.753416 293.882886 82.683383 293.706614 82.683383 
C 293.530341 82.683383 293.361265 82.753416 293.236621 82.87806 
C 293.111977 83.002704 293.041944 83.17178 293.041944 83.348053 
C 293.041944 83.524325 293.111977 83.693402 293.236621 83.818046 
C 293.361265 83.942689 293.530341 84.012723 293.706614 84.012723 
z
" clip-path="url(#pc0ba534afe)" style="fill-opacity: 0.501961; stroke: #000000; stroke-opacity: 0.501961; stroke-width: 0.886227"/>
    <path d="M 306.079119 67.212723 
C 306.255392 67.212723 306.424469 67.142689 306.549112 67.018046 
C 306.673756 66.893402 306.74379 66.724325 306.74379 66.548053 
C 306.74379 66.37178 306.673756 66.202704 306.549112 66.07806 
C 306.424469 65.953416 306.255392 65.883383 306.079119 65.883383 
C 305.902847 65.883383 305.73377 65.953416 305.609127 66.07806 
C 305.484483 66.202704 305.414449 66.37178 305.414449 66.548053 
C 305.414449 66.724325 305.484483 66.893402 305.609127 67.018046 
C 305.73377 67.142689 305.902847 67.212723 306.079119 67.212723 
z
" clip-path="url(#pc0ba534afe)" style="fill-opacity: 0.501961; stroke: #000000; stroke-opacity: 0.501961; stroke-width: 0.886227"/>
   </g>
   <g id="patch_3">
    <path d="M 39.760938 40.508053 
L 318.760938 40.508053 
L 318.760938 24.508053 
L 39.760938 24.508053 
z
" style="fill: #d9d9d9; stroke: #d9d9d9; stroke-linejoin: miter"/>
   </g>
   <g id="PathCollection_2">
    <path d="M 161.579738 116.948053 
L 166.010873 116.948053 
M 163.795306 119.16362 
L 163.795306 114.732485 
" clip-path="url(#pc0ba534afe)" style="fill: #ff0000; stroke: #ff0000; stroke-width: 0.886227"/>
    <path d="M 124.462222 87.548053 
L 128.893356 87.548053 
M 126.677789 89.76362 
L 126.677789 85.332485 
" clip-path="url(#pc0ba534afe)" style="fill: #ff0000; stroke: #ff0000; stroke-width: 0.886227"/>
   </g>
   <g id="text_14">
    <!-- Austria -->
    <g transform="translate(161.546094 35.247897)scale(0.1 -0.1)">
     <defs>
      <path id="Montserrat-Regular-41" d="M 13 0 
L 2061 4480 
L 2528 4480 
L 4576 0 
L 4077 0 
L 2195 4205 
L 2387 4205 
L 506 0 
L 13 0 
z
M 819 1197 
L 960 1581 
L 3565 1581 
L 3706 1197 
L 819 1197 
z
" transform="scale(0.015625)"/>
      <path id="Montserrat-Regular-75" d="M 2022 -32 
Q 1594 -32 1274 128 
Q 954 288 778 608 
Q 602 928 602 1408 
L 602 3360 
L 1056 3360 
L 1056 1459 
Q 1056 922 1321 650 
Q 1587 378 2067 378 
Q 2419 378 2678 522 
Q 2938 666 3075 941 
Q 3213 1216 3213 1600 
L 3213 3360 
L 3667 3360 
L 3667 0 
L 3232 0 
L 3232 922 
L 3302 755 
Q 3142 384 2806 176 
Q 2470 -32 2022 -32 
z
" transform="scale(0.015625)"/>
      <path id="Montserrat-Regular-74" d="M 1696 -32 
Q 1222 -32 966 224 
Q 710 480 710 947 
L 710 4102 
L 1165 4102 
L 1165 973 
Q 1165 678 1315 518 
Q 1466 358 1747 358 
Q 2048 358 2246 531 
L 2406 205 
Q 2272 83 2083 25 
Q 1894 -32 1696 -32 
z
M 109 2982 
L 109 3360 
L 2189 3360 
L 2189 2982 
L 109 2982 
z
" transform="scale(0.015625)"/>
      <path id="Montserrat-Regular-69" d="M 634 0 
L 634 3360 
L 1088 3360 
L 1088 0 
L 634 0 
z
M 864 4102 
Q 723 4102 627 4198 
Q 531 4294 531 4429 
Q 531 4563 627 4656 
Q 723 4749 864 4749 
Q 1005 4749 1101 4659 
Q 1197 4570 1197 4435 
Q 1197 4294 1104 4198 
Q 1011 4102 864 4102 
z
" transform="scale(0.015625)"/>
     </defs>
     <use xlink:href="#Montserrat-Regular-41"/>
     <use xlink:href="#Montserrat-Regular-75" x="71.699982"/>
     <use xlink:href="#Montserrat-Regular-73" x="138.899979"/>
     <use xlink:href="#Montserrat-Regular-74" x="187.699966"/>
     <use xlink:href="#Montserrat-Regular-72" x="228.299957"/>
     <use xlink:href="#Montserrat-Regular-69" x="268.399948"/>
     <use xlink:href="#Montserrat-Regular-61" x="295.299942"/>
    </g>
   </g>
  </g>
  <g id="text_15">
   <!-- Medals for Austria at Winter Olympics -->
   <g transform="translate(79.880469 14.670312)scale(0.1 -0.1)">
    <defs>
     <path id="Montserrat-Regular-4d" d="M 730 0 
L 730 4480 
L 1120 4480 
L 3168 986 
L 2963 986 
L 4992 4480 
L 5382 4480 
L 5382 0 
L 4928 0 
L 4928 3770 
L 5037 3770 
L 3168 570 
L 2944 570 
L 1062 3770 
L 1184 3770 
L 1184 0 
L 730 0 
z
" transform="scale(0.015625)"/>
     <path id="Montserrat-Regular-20" transform="scale(0.015625)"/>
     <path id="Montserrat-Regular-66" d="M 710 0 
L 710 3782 
Q 710 4230 972 4505 
Q 1235 4781 1728 4781 
Q 1920 4781 2099 4729 
Q 2278 4678 2400 4570 
L 2246 4230 
Q 2150 4314 2022 4355 
Q 1894 4397 1747 4397 
Q 1459 4397 1305 4237 
Q 1152 4077 1152 3763 
L 1152 3251 
L 1165 3040 
L 1165 0 
L 710 0 
z
M 109 2982 
L 109 3360 
L 2189 3360 
L 2189 2982 
L 109 2982 
z
" transform="scale(0.015625)"/>
     <path id="Montserrat-Regular-6f" d="M 2003 -32 
Q 1517 -32 1129 189 
Q 742 410 518 797 
Q 294 1184 294 1683 
Q 294 2189 518 2573 
Q 742 2957 1126 3174 
Q 1510 3392 2003 3392 
Q 2502 3392 2889 3174 
Q 3277 2957 3497 2573 
Q 3718 2189 3718 1683 
Q 3718 1184 3497 797 
Q 3277 410 2886 189 
Q 2496 -32 2003 -32 
z
M 2003 371 
Q 2368 371 2649 534 
Q 2931 698 3094 995 
Q 3258 1293 3258 1683 
Q 3258 2080 3094 2374 
Q 2931 2669 2649 2832 
Q 2368 2995 2010 2995 
Q 1651 2995 1369 2832 
Q 1088 2669 921 2374 
Q 755 2080 755 1683 
Q 755 1293 921 995 
Q 1088 698 1369 534 
Q 1651 371 2003 371 
z
" transform="scale(0.015625)"/>
     <path id="Montserrat-Regular-57" d="M 1747 0 
L 237 4480 
L 723 4480 
L 2138 262 
L 1894 262 
L 3354 4480 
L 3789 4480 
L 5229 262 
L 4998 262 
L 6426 4480 
L 6880 4480 
L 5370 0 
L 4870 0 
L 3494 4000 
L 3622 4000 
L 2240 0 
L 1747 0 
z
" transform="scale(0.015625)"/>
     <path id="Montserrat-Regular-6e" d="M 2349 3392 
Q 2758 3392 3068 3235 
Q 3379 3078 3555 2758 
Q 3731 2438 3731 1952 
L 3731 0 
L 3277 0 
L 3277 1907 
Q 3277 2438 3011 2710 
Q 2746 2982 2266 2982 
Q 1907 2982 1641 2838 
Q 1376 2694 1232 2422 
Q 1088 2150 1088 1766 
L 1088 0 
L 634 0 
L 634 3360 
L 1069 3360 
L 1069 2438 
L 998 2611 
Q 1158 2976 1510 3184 
Q 1862 3392 2349 3392 
z
" transform="scale(0.015625)"/>
     <path id="Montserrat-Regular-4f" d="M 2688 -38 
Q 2182 -38 1750 131 
Q 1318 301 1001 611 
Q 685 922 509 1334 
Q 333 1747 333 2240 
Q 333 2733 509 3145 
Q 685 3558 1001 3868 
Q 1318 4179 1747 4348 
Q 2176 4518 2688 4518 
Q 3194 4518 3622 4348 
Q 4051 4179 4368 3872 
Q 4685 3565 4861 3149 
Q 5037 2733 5037 2240 
Q 5037 1747 4861 1331 
Q 4685 915 4368 608 
Q 4051 301 3622 131 
Q 3194 -38 2688 -38 
z
M 2688 384 
Q 3091 384 3433 521 
Q 3776 659 4029 912 
Q 4282 1165 4422 1501 
Q 4563 1837 4563 2240 
Q 4563 2643 4422 2979 
Q 4282 3315 4029 3568 
Q 3776 3821 3433 3958 
Q 3091 4096 2688 4096 
Q 2285 4096 1939 3958 
Q 1594 3821 1341 3568 
Q 1088 3315 944 2979 
Q 800 2643 800 2240 
Q 800 1843 944 1504 
Q 1088 1165 1341 912 
Q 1594 659 1939 521 
Q 2285 384 2688 384 
z
" transform="scale(0.015625)"/>
     <path id="Montserrat-Regular-70" d="M 2368 -32 
Q 1933 -32 1581 169 
Q 1229 371 1021 752 
Q 813 1133 813 1683 
Q 813 2234 1017 2614 
Q 1222 2995 1574 3193 
Q 1926 3392 2368 3392 
Q 2848 3392 3229 3177 
Q 3610 2963 3827 2576 
Q 4045 2189 4045 1683 
Q 4045 1171 3827 787 
Q 3610 403 3229 185 
Q 2848 -32 2368 -32 
z
M 634 -1242 
L 634 3360 
L 1069 3360 
L 1069 2349 
L 1024 1677 
L 1088 998 
L 1088 -1242 
L 634 -1242 
z
M 2336 371 
Q 2694 371 2976 534 
Q 3258 698 3424 995 
Q 3590 1293 3590 1683 
Q 3590 2074 3424 2368 
Q 3258 2662 2976 2828 
Q 2694 2995 2336 2995 
Q 1978 2995 1693 2828 
Q 1408 2662 1245 2368 
Q 1082 2074 1082 1683 
Q 1082 1293 1245 995 
Q 1408 698 1693 534 
Q 1978 371 2336 371 
z
" transform="scale(0.015625)"/>
     <path id="Montserrat-Regular-63" d="M 2029 -32 
Q 1530 -32 1136 189 
Q 742 410 518 797 
Q 294 1184 294 1683 
Q 294 2189 518 2573 
Q 742 2957 1136 3174 
Q 1530 3392 2029 3392 
Q 2458 3392 2803 3225 
Q 3149 3059 3347 2726 
L 3008 2496 
Q 2835 2752 2579 2873 
Q 2323 2995 2022 2995 
Q 1664 2995 1376 2832 
Q 1088 2669 921 2374 
Q 755 2080 755 1683 
Q 755 1286 921 992 
Q 1088 698 1376 534 
Q 1664 371 2022 371 
Q 2323 371 2579 492 
Q 2835 614 3008 864 
L 3347 634 
Q 3149 307 2803 137 
Q 2458 -32 2029 -32 
z
" transform="scale(0.015625)"/>
    </defs>
    <use xlink:href="#Montserrat-Regular-4d"/>
    <use xlink:href="#Montserrat-Regular-65" x="95.499985"/>
    <use xlink:href="#Montserrat-Regular-64" x="155.899979"/>
    <use xlink:href="#Montserrat-Regular-61" x="223.699966"/>
    <use xlink:href="#Montserrat-Regular-6c" x="282.699951"/>
    <use xlink:href="#Montserrat-Regular-73" x="309.599945"/>
    <use xlink:href="#Montserrat-Regular-20" x="358.399933"/>
    <use xlink:href="#Montserrat-Regular-66" x="384.59993"/>
    <use xlink:href="#Montserrat-Regular-6f" x="418.499924"/>
    <use xlink:href="#Montserrat-Regular-72" x="481.199921"/>
    <use xlink:href="#Montserrat-Regular-20" x="521.299911"/>
    <use xlink:href="#Montserrat-Regular-41" x="547.499908"/>
    <use xlink:href="#Montserrat-Regular-75" x="619.19989"/>
    <use xlink:href="#Montserrat-Regular-73" x="686.399887"/>
    <use xlink:href="#Montserrat-Regular-74" x="735.199875"/>
    <use xlink:href="#Montserrat-Regular-72" x="775.799866"/>
    <use xlink:href="#Montserrat-Regular-69" x="815.899857"/>
    <use xlink:href="#Montserrat-Regular-61" x="842.79985"/>
    <use xlink:href="#Montserrat-Regular-20" x="901.799835"/>
    <use xlink:href="#Montserrat-Regular-61" x="927.999832"/>
    <use xlink:href="#Montserrat-Regular-74" x="986.999817"/>
    <use xlink:href="#Montserrat-Regular-20" x="1027.599808"/>
    <use xlink:href="#Montserrat-Regular-57" x="1053.799805"/>
    <use xlink:href="#Montserrat-Regular-69" x="1164.899796"/>
    <use xlink:href="#Montserrat-Regular-6e" x="1191.799789"/>
    <use xlink:href="#Montserrat-Regular-74" x="1259.39978"/>
    <use xlink:href="#Montserrat-Regular-65" x="1299.999771"/>
    <use xlink:href="#Montserrat-Regular-72" x="1360.399765"/>
    <use xlink:href="#Montserrat-Regular-20" x="1400.499756"/>
    <use xlink:href="#Montserrat-Regular-4f" x="1426.699753"/>
    <use xlink:href="#Montserrat-Regular-6c" x="1510.599747"/>
    <use xlink:href="#Montserrat-Regular-79" x="1537.499741"/>
    <use xlink:href="#Montserrat-Regular-6d" x="1591.699738"/>
    <use xlink:href="#Montserrat-Regular-70" x="1697.799728"/>
    <use xlink:href="#Montserrat-Regular-69" x="1765.599716"/>
    <use xlink:href="#Montserrat-Regular-63" x="1792.49971"/>
    <use xlink:href="#Montserrat-Regular-73" x="1848.799698"/>
   </g>
  </g>
 </g>
 <defs>
  <clipPath id="pc0ba534afe">
   <rect x="39.760938" y="40.508053" width="279" height="110.88"/>
  </clipPath>
 </defs>
</svg>
