<?xml version="1.0" encoding="utf-8" standalone="no"?>
<!DOCTYPE svg PUBLIC "-//W3C//DTD SVG 1.1//EN"
  "http://www.w3.org/Graphics/SVG/1.1/DTD/svg11.dtd">
<svg xmlns:xlink="http://www.w3.org/1999/xlink" width="326.890625pt" height="188.209928pt" viewBox="0 0 326.890625 188.209928" xmlns="http://www.w3.org/2000/svg" version="1.1">
 <metadata>
  <rdf:RDF xmlns:dc="http://purl.org/dc/elements/1.1/" xmlns:cc="http://creativecommons.org/ns#" xmlns:rdf="http://www.w3.org/1999/02/22-rdf-syntax-ns#">
   <cc:Work>
    <dc:type rdf:resource="http://purl.org/dc/dcmitype/StillImage"/>
    <dc:date>2024-08-08T08:27:28.271034</dc:date>
    <dc:format>image/svg+xml</dc:format>
    <dc:creator>
     <cc:Agent>
      <dc:title>Matplotlib v3.5.1, https://matplotlib.org/</dc:title>
     </cc:Agent>
    </dc:creator>
   </cc:Work>
  </rdf:RDF>
 </metadata>
 <defs>
  <style type="text/css">*{stroke-linejoin: round; stroke-linecap: butt}</style>
 </defs>
 <g id="figure_1">
  <g id="patch_1">
   <path d="M 0 188.209928 
L 326.890625 188.209928 
L 326.890625 0 
L 0 0 
z
" style="fill: #ffffff"/>
  </g>
  <g id="axes_1">
   <g id="patch_2">
    <path d="M 40.690625 151.388053 
L 319.690625 151.388053 
L 319.690625 40.508053 
L 40.690625 40.508053 
z
" style="fill: #ffffff"/>
   </g>
   <g id="line2d_1">
    <path d="M 78.117454 122.348053 
L 78.117454 122.348053 
L 90.48996 107.948053 
L 90.48996 107.948053 
L 102.862465 136.748053 
L 102.862465 136.748053 
L 115.234971 131.948053 
L 115.234971 131.948053 
L 127.607476 110.348053 
L 127.607476 110.348053 
L 139.979982 112.748053 
L 139.979982 112.748053 
L 152.352488 117.548053 
L 152.352488 117.548053 
L 164.724993 129.548053 
L 164.724993 129.548053 
L 177.097499 122.348053 
L 177.097499 122.348053 
L 189.470004 124.748053 
L 189.470004 124.748053 
L 201.84251 134.348053 
L 201.84251 134.348053 
L 214.215015 98.348053 
L 214.215015 98.348053 
L 220.401268 83.948053 
L 220.401268 83.948053 
L 232.773774 86.348053 
L 232.773774 86.348053 
L 245.146279 86.348053 
L 245.146279 86.348053 
L 257.518785 98.348053 
L 257.518785 98.348053 
L 269.89129 88.748053 
L 269.89129 88.748053 
L 282.263796 81.548053 
L 282.263796 81.548053 
L 294.636301 45.548053 
L 294.636301 45.548053 
L 307.008807 52.748053 
L 307.008807 52.748053 
" clip-path="url(#p0a1dbb3bd6)" style="fill: none; stroke: #000000; stroke-width: 0.886227"/>
   </g>
   <g id="matplotlib.axis_1">
    <g id="xtick_1">
     <g id="line2d_2">
      <defs>
       <path id="m829543d271" d="M 0 0 
L 0 3.5 
" style="stroke: #000000; stroke-width: 0.8"/>
      </defs>
      <g>
       <use xlink:href="#m829543d271" x="53.372443" y="151.388053" style="stroke: #000000; stroke-width: 0.8"/>
      </g>
     </g>
     <g id="text_1">
      <!-- 1940 -->
      <g transform="translate(41.907599 164.708365)scale(0.1 -0.1)">
       <defs>
        <path id="Montserrat-Regular-31" d="M 1114 0 
L 1114 4288 
L 1318 4070 
L 58 4070 
L 58 4480 
L 1574 4480 
L 1574 0 
L 1114 0 
z
" transform="scale(0.015625)"/>
        <path id="Montserrat-Regular-39" d="M 1728 4518 
Q 2323 4518 2732 4252 
Q 3142 3987 3353 3488 
Q 3565 2989 3565 2278 
Q 3565 1523 3305 1004 
Q 3046 486 2585 224 
Q 2125 -38 1517 -38 
Q 1216 -38 944 19 
Q 672 77 454 205 
L 640 576 
Q 813 461 1040 413 
Q 1267 365 1510 365 
Q 2234 365 2666 825 
Q 3098 1286 3098 2202 
Q 3098 2349 3082 2553 
Q 3066 2758 3008 2963 
L 3168 2842 
Q 3104 2509 2896 2275 
Q 2688 2042 2384 1920 
Q 2080 1798 1709 1798 
Q 1267 1798 924 1964 
Q 582 2131 390 2432 
Q 198 2733 198 3142 
Q 198 3565 396 3872 
Q 595 4179 944 4348 
Q 1293 4518 1728 4518 
z
M 1747 4128 
Q 1427 4128 1180 4009 
Q 934 3891 793 3673 
Q 653 3456 653 3155 
Q 653 2714 957 2451 
Q 1261 2189 1779 2189 
Q 2125 2189 2384 2317 
Q 2643 2445 2787 2669 
Q 2931 2893 2931 3168 
Q 2931 3418 2796 3635 
Q 2662 3853 2400 3990 
Q 2138 4128 1747 4128 
z
" transform="scale(0.015625)"/>
        <path id="Montserrat-Regular-34" d="M 256 1178 
L 256 1510 
L 2630 4480 
L 3142 4480 
L 787 1510 
L 538 1587 
L 4141 1587 
L 4141 1178 
L 256 1178 
z
M 2784 0 
L 2784 1178 
L 2797 1587 
L 2797 2624 
L 3245 2624 
L 3245 0 
L 2784 0 
z
" transform="scale(0.015625)"/>
        <path id="Montserrat-Regular-30" d="M 2118 -38 
Q 1600 -38 1197 234 
Q 794 506 563 1014 
Q 333 1523 333 2240 
Q 333 2957 563 3465 
Q 794 3974 1197 4246 
Q 1600 4518 2118 4518 
Q 2637 4518 3040 4246 
Q 3443 3974 3676 3465 
Q 3910 2957 3910 2240 
Q 3910 1523 3676 1014 
Q 3443 506 3040 234 
Q 2637 -38 2118 -38 
z
M 2118 384 
Q 2515 384 2809 598 
Q 3104 813 3270 1225 
Q 3437 1638 3437 2240 
Q 3437 2842 3270 3254 
Q 3104 3667 2809 3881 
Q 2515 4096 2118 4096 
Q 1734 4096 1433 3881 
Q 1133 3667 966 3254 
Q 800 2842 800 2240 
Q 800 1638 966 1225 
Q 1133 813 1433 598 
Q 1734 384 2118 384 
z
" transform="scale(0.015625)"/>
       </defs>
       <use xlink:href="#Montserrat-Regular-31"/>
       <use xlink:href="#Montserrat-Regular-39" x="36.099991"/>
       <use xlink:href="#Montserrat-Regular-34" x="96.999985"/>
       <use xlink:href="#Montserrat-Regular-30" x="163.099976"/>
      </g>
     </g>
    </g>
    <g id="xtick_2">
     <g id="line2d_3">
      <g>
       <use xlink:href="#m829543d271" x="115.234971" y="151.388053" style="stroke: #000000; stroke-width: 0.8"/>
      </g>
     </g>
     <g id="text_2">
      <!-- 1960 -->
      <g transform="translate(104.029502 164.708365)scale(0.1 -0.1)">
       <defs>
        <path id="Montserrat-Regular-36" d="M 2170 -38 
Q 1574 -38 1164 227 
Q 755 493 544 995 
Q 333 1498 333 2202 
Q 333 2963 592 3478 
Q 851 3994 1312 4256 
Q 1773 4518 2381 4518 
Q 2682 4518 2957 4460 
Q 3232 4403 3443 4275 
L 3258 3904 
Q 3085 4019 2861 4067 
Q 2637 4115 2387 4115 
Q 1664 4115 1232 3654 
Q 800 3194 800 2278 
Q 800 2138 816 1930 
Q 832 1722 890 1517 
L 730 1638 
Q 800 1971 1005 2204 
Q 1210 2438 1517 2560 
Q 1824 2682 2189 2682 
Q 2637 2682 2976 2515 
Q 3315 2349 3507 2048 
Q 3699 1747 3699 1338 
Q 3699 922 3500 611 
Q 3302 301 2953 131 
Q 2605 -38 2170 -38 
z
M 2150 352 
Q 2470 352 2716 470 
Q 2963 589 3104 809 
Q 3245 1030 3245 1325 
Q 3245 1766 2941 2028 
Q 2637 2291 2118 2291 
Q 1773 2291 1517 2163 
Q 1261 2035 1113 1814 
Q 966 1594 966 1312 
Q 966 1069 1100 848 
Q 1235 627 1500 489 
Q 1766 352 2150 352 
z
" transform="scale(0.015625)"/>
       </defs>
       <use xlink:href="#Montserrat-Regular-31"/>
       <use xlink:href="#Montserrat-Regular-39" x="36.099991"/>
       <use xlink:href="#Montserrat-Regular-36" x="96.999985"/>
       <use xlink:href="#Montserrat-Regular-30" x="157.899979"/>
      </g>
     </g>
    </g>
    <g id="xtick_3">
     <g id="line2d_4">
      <g>
       <use xlink:href="#m829543d271" x="177.097499" y="151.388053" style="stroke: #000000; stroke-width: 0.8"/>
      </g>
     </g>
     <g id="text_3">
      <!-- 1980 -->
      <g transform="translate(165.747499 164.708365)scale(0.1 -0.1)">
       <defs>
        <path id="Montserrat-Regular-38" d="M 2035 -38 
Q 1498 -38 1110 115 
Q 723 269 515 560 
Q 307 851 307 1248 
Q 307 1632 508 1904 
Q 710 2176 1097 2323 
Q 1485 2470 2035 2470 
Q 2579 2470 2969 2323 
Q 3360 2176 3568 1904 
Q 3776 1632 3776 1248 
Q 3776 851 3565 560 
Q 3354 269 2963 115 
Q 2573 -38 2035 -38 
z
M 2035 352 
Q 2630 352 2966 595 
Q 3302 838 3302 1254 
Q 3302 1670 2966 1910 
Q 2630 2150 2035 2150 
Q 1440 2150 1107 1910 
Q 774 1670 774 1254 
Q 774 838 1107 595 
Q 1440 352 2035 352 
z
M 2035 2208 
Q 1536 2208 1187 2342 
Q 838 2477 652 2729 
Q 467 2982 467 3334 
Q 467 3706 662 3971 
Q 858 4237 1210 4377 
Q 1562 4518 2035 4518 
Q 2509 4518 2864 4377 
Q 3219 4237 3417 3971 
Q 3616 3706 3616 3334 
Q 3616 2982 3430 2729 
Q 3245 2477 2889 2342 
Q 2534 2208 2035 2208 
z
M 2035 2515 
Q 2560 2515 2854 2732 
Q 3149 2950 3149 3315 
Q 3149 3699 2845 3913 
Q 2541 4128 2035 4128 
Q 1530 4128 1229 3913 
Q 928 3699 928 3322 
Q 928 2950 1219 2732 
Q 1510 2515 2035 2515 
z
" transform="scale(0.015625)"/>
       </defs>
       <use xlink:href="#Montserrat-Regular-31"/>
       <use xlink:href="#Montserrat-Regular-39" x="36.099991"/>
       <use xlink:href="#Montserrat-Regular-38" x="96.999985"/>
       <use xlink:href="#Montserrat-Regular-30" x="160.799973"/>
      </g>
     </g>
    </g>
    <g id="xtick_4">
     <g id="line2d_5">
      <g>
       <use xlink:href="#m829543d271" x="238.960026" y="151.388053" style="stroke: #000000; stroke-width: 0.8"/>
      </g>
     </g>
     <g id="text_4">
      <!-- 2000 -->
      <g transform="translate(226.189714 164.708365)scale(0.1 -0.1)">
       <defs>
        <path id="Montserrat-Regular-32" d="M 250 0 
L 250 326 
L 2112 2150 
Q 2368 2400 2496 2589 
Q 2624 2778 2669 2944 
Q 2714 3110 2714 3258 
Q 2714 3648 2448 3872 
Q 2182 4096 1664 4096 
Q 1267 4096 963 3974 
Q 659 3853 442 3597 
L 115 3878 
Q 378 4186 787 4352 
Q 1197 4518 1702 4518 
Q 2157 4518 2489 4374 
Q 2822 4230 3004 3955 
Q 3187 3680 3187 3309 
Q 3187 3091 3126 2880 
Q 3066 2669 2909 2435 
Q 2752 2202 2451 1907 
L 742 230 
L 614 410 
L 3392 410 
L 3392 0 
L 250 0 
z
" transform="scale(0.015625)"/>
       </defs>
       <use xlink:href="#Montserrat-Regular-32"/>
       <use xlink:href="#Montserrat-Regular-30" x="56.799988"/>
       <use xlink:href="#Montserrat-Regular-30" x="122.999985"/>
       <use xlink:href="#Montserrat-Regular-30" x="189.199982"/>
      </g>
     </g>
    </g>
    <g id="xtick_5">
     <g id="line2d_6">
      <g>
       <use xlink:href="#m829543d271" x="300.822554" y="151.388053" style="stroke: #000000; stroke-width: 0.8"/>
      </g>
     </g>
     <g id="text_5">
      <!-- 2020 -->
      <g transform="translate(288.522554 164.708365)scale(0.1 -0.1)">
       <use xlink:href="#Montserrat-Regular-32"/>
       <use xlink:href="#Montserrat-Regular-30" x="56.799988"/>
       <use xlink:href="#Montserrat-Regular-32" x="122.999985"/>
       <use xlink:href="#Montserrat-Regular-30" x="179.799973"/>
      </g>
     </g>
    </g>
    <g id="xtick_6">
     <g id="line2d_7">
      <defs>
       <path id="m75c421f759" d="M 0 0 
L 0 2 
" style="stroke: #000000; stroke-width: 0.6"/>
      </defs>
      <g>
       <use xlink:href="#m75c421f759" x="84.303707" y="151.388053" style="stroke: #000000; stroke-width: 0.6"/>
      </g>
     </g>
    </g>
    <g id="xtick_7">
     <g id="line2d_8">
      <g>
       <use xlink:href="#m75c421f759" x="146.166235" y="151.388053" style="stroke: #000000; stroke-width: 0.6"/>
      </g>
     </g>
    </g>
    <g id="xtick_8">
     <g id="line2d_9">
      <g>
       <use xlink:href="#m75c421f759" x="208.028762" y="151.388053" style="stroke: #000000; stroke-width: 0.6"/>
      </g>
     </g>
    </g>
    <g id="xtick_9">
     <g id="line2d_10">
      <g>
       <use xlink:href="#m75c421f759" x="269.89129" y="151.388053" style="stroke: #000000; stroke-width: 0.6"/>
      </g>
     </g>
    </g>
    <g id="text_6">
     <!-- year -->
     <g transform="translate(165.005469 179.019303)scale(0.1 -0.1)">
      <defs>
       <path id="Montserrat-Regular-79" d="M 659 -1274 
Q 422 -1274 208 -1197 
Q -6 -1120 -160 -966 
L 51 -627 
Q 179 -749 329 -816 
Q 480 -883 666 -883 
Q 890 -883 1053 -758 
Q 1216 -634 1363 -320 
L 1581 173 
L 1632 243 
L 3014 3360 
L 3462 3360 
L 1779 -403 
Q 1638 -730 1468 -922 
Q 1299 -1114 1100 -1194 
Q 902 -1274 659 -1274 
z
M 1555 -96 
L 6 3360 
L 480 3360 
L 1850 275 
L 1555 -96 
z
" transform="scale(0.015625)"/>
       <path id="Montserrat-Regular-65" d="M 2061 -32 
Q 1536 -32 1139 189 
Q 742 410 518 797 
Q 294 1184 294 1683 
Q 294 2182 508 2566 
Q 723 2950 1097 3171 
Q 1472 3392 1939 3392 
Q 2413 3392 2781 3177 
Q 3149 2963 3360 2576 
Q 3571 2189 3571 1683 
Q 3571 1651 3568 1616 
Q 3565 1581 3565 1542 
L 640 1542 
L 640 1882 
L 3322 1882 
L 3142 1747 
Q 3142 2112 2985 2397 
Q 2829 2682 2560 2842 
Q 2291 3002 1939 3002 
Q 1594 3002 1318 2842 
Q 1043 2682 889 2394 
Q 736 2106 736 1734 
L 736 1664 
Q 736 1280 905 989 
Q 1075 698 1379 534 
Q 1683 371 2074 371 
Q 2381 371 2646 480 
Q 2912 589 3104 813 
L 3360 518 
Q 3136 250 2800 109 
Q 2464 -32 2061 -32 
z
" transform="scale(0.015625)"/>
       <path id="Montserrat-Regular-61" d="M 2739 0 
L 2739 742 
L 2720 864 
L 2720 2106 
Q 2720 2534 2480 2764 
Q 2240 2995 1766 2995 
Q 1440 2995 1145 2886 
Q 851 2778 646 2598 
L 442 2938 
Q 698 3155 1056 3273 
Q 1414 3392 1811 3392 
Q 2464 3392 2819 3069 
Q 3174 2746 3174 2086 
L 3174 0 
L 2739 0 
z
M 1581 -32 
Q 1203 -32 924 93 
Q 646 218 499 438 
Q 352 659 352 947 
Q 352 1210 477 1424 
Q 602 1638 886 1769 
Q 1171 1901 1651 1901 
L 2810 1901 
L 2810 1562 
L 1664 1562 
Q 1178 1562 989 1389 
Q 800 1216 800 960 
Q 800 672 1024 499 
Q 1248 326 1651 326 
Q 2035 326 2313 502 
Q 2592 678 2720 1011 
L 2822 698 
Q 2694 365 2377 166 
Q 2061 -32 1581 -32 
z
" transform="scale(0.015625)"/>
       <path id="Montserrat-Regular-72" d="M 634 0 
L 634 3360 
L 1069 3360 
L 1069 2445 
L 1024 2605 
Q 1165 2989 1497 3190 
Q 1830 3392 2323 3392 
L 2323 2950 
Q 2298 2950 2272 2953 
Q 2246 2957 2221 2957 
Q 1690 2957 1389 2633 
Q 1088 2310 1088 1715 
L 1088 0 
L 634 0 
z
" transform="scale(0.015625)"/>
      </defs>
      <use xlink:href="#Montserrat-Regular-79"/>
      <use xlink:href="#Montserrat-Regular-65" x="54.199997"/>
      <use xlink:href="#Montserrat-Regular-61" x="114.599991"/>
      <use xlink:href="#Montserrat-Regular-72" x="173.599976"/>
     </g>
    </g>
   </g>
   <g id="matplotlib.axis_2">
    <g id="ytick_1">
     <g id="line2d_11">
      <defs>
       <path id="m7d913ea153" d="M 0 0 
L -3.5 0 
" style="stroke: #000000; stroke-width: 0.8"/>
      </defs>
      <g>
       <use xlink:href="#m7d913ea153" x="40.690625" y="146.348053" style="stroke: #000000; stroke-width: 0.8"/>
      </g>
     </g>
     <g id="text_7">
      <!-- 0 -->
      <g transform="translate(28.170313 150.058209)scale(0.1 -0.1)">
       <use xlink:href="#Montserrat-Regular-30"/>
      </g>
     </g>
    </g>
    <g id="ytick_2">
     <g id="line2d_12">
      <g>
       <use xlink:href="#m7d913ea153" x="40.690625" y="122.348053" style="stroke: #000000; stroke-width: 0.8"/>
      </g>
     </g>
     <g id="text_8">
      <!-- 10 -->
      <g transform="translate(24.560938 126.058209)scale(0.1 -0.1)">
       <use xlink:href="#Montserrat-Regular-31"/>
       <use xlink:href="#Montserrat-Regular-30" x="36.099991"/>
      </g>
     </g>
    </g>
    <g id="ytick_3">
     <g id="line2d_13">
      <g>
       <use xlink:href="#m7d913ea153" x="40.690625" y="98.348053" style="stroke: #000000; stroke-width: 0.8"/>
      </g>
     </g>
     <g id="text_9">
      <!-- 20 -->
      <g transform="translate(22.490625 102.058209)scale(0.1 -0.1)">
       <use xlink:href="#Montserrat-Regular-32"/>
       <use xlink:href="#Montserrat-Regular-30" x="56.799988"/>
      </g>
     </g>
    </g>
    <g id="ytick_4">
     <g id="line2d_14">
      <g>
       <use xlink:href="#m7d913ea153" x="40.690625" y="74.348053" style="stroke: #000000; stroke-width: 0.8"/>
      </g>
     </g>
     <g id="text_10">
      <!-- 30 -->
      <g transform="translate(22.529688 78.058209)scale(0.1 -0.1)">
       <defs>
        <path id="Montserrat-Regular-33" d="M 1670 -38 
Q 1184 -38 752 118 
Q 320 275 58 538 
L 282 902 
Q 499 678 867 531 
Q 1235 384 1670 384 
Q 2227 384 2524 627 
Q 2822 870 2822 1280 
Q 2822 1690 2531 1933 
Q 2240 2176 1613 2176 
L 1293 2176 
L 1293 2515 
L 2675 4250 
L 2739 4070 
L 243 4070 
L 243 4480 
L 3123 4480 
L 3123 4154 
L 1741 2419 
L 1517 2566 
L 1690 2566 
Q 2496 2566 2896 2208 
Q 3296 1850 3296 1286 
Q 3296 909 3117 608 
Q 2938 307 2576 134 
Q 2214 -38 1670 -38 
z
" transform="scale(0.015625)"/>
       </defs>
       <use xlink:href="#Montserrat-Regular-33"/>
       <use xlink:href="#Montserrat-Regular-30" x="56.399994"/>
      </g>
     </g>
    </g>
    <g id="ytick_5">
     <g id="line2d_15">
      <g>
       <use xlink:href="#m7d913ea153" x="40.690625" y="50.348053" style="stroke: #000000; stroke-width: 0.8"/>
      </g>
     </g>
     <g id="text_11">
      <!-- 40 -->
      <g transform="translate(21.560938 54.058209)scale(0.1 -0.1)">
       <use xlink:href="#Montserrat-Regular-34"/>
       <use xlink:href="#Montserrat-Regular-30" x="66.099991"/>
      </g>
     </g>
    </g>
    <g id="ytick_6">
     <g id="line2d_16">
      <defs>
       <path id="m3c1a686ec5" d="M 0 0 
L -2 0 
" style="stroke: #000000; stroke-width: 0.6"/>
      </defs>
      <g>
       <use xlink:href="#m3c1a686ec5" x="40.690625" y="134.348053" style="stroke: #000000; stroke-width: 0.6"/>
      </g>
     </g>
    </g>
    <g id="ytick_7">
     <g id="line2d_17">
      <g>
       <use xlink:href="#m3c1a686ec5" x="40.690625" y="110.348053" style="stroke: #000000; stroke-width: 0.6"/>
      </g>
     </g>
    </g>
    <g id="ytick_8">
     <g id="line2d_18">
      <g>
       <use xlink:href="#m3c1a686ec5" x="40.690625" y="86.348053" style="stroke: #000000; stroke-width: 0.6"/>
      </g>
     </g>
    </g>
    <g id="ytick_9">
     <g id="line2d_19">
      <g>
       <use xlink:href="#m3c1a686ec5" x="40.690625" y="62.348053" style="stroke: #000000; stroke-width: 0.6"/>
      </g>
     </g>
    </g>
    <g id="text_12">
     <!-- medals -->
     <g transform="translate(14.620313 113.678053)rotate(-90)scale(0.1 -0.1)">
      <defs>
       <path id="Montserrat-Regular-6d" d="M 4832 3392 
Q 5242 3392 5546 3235 
Q 5850 3078 6019 2758 
Q 6189 2438 6189 1952 
L 6189 0 
L 5734 0 
L 5734 1907 
Q 5734 2438 5481 2710 
Q 5229 2982 4768 2982 
Q 4422 2982 4169 2838 
Q 3917 2694 3779 2422 
Q 3642 2150 3642 1766 
L 3642 0 
L 3187 0 
L 3187 1907 
Q 3187 2438 2931 2710 
Q 2675 2982 2214 2982 
Q 1875 2982 1619 2838 
Q 1363 2694 1225 2422 
Q 1088 2150 1088 1766 
L 1088 0 
L 634 0 
L 634 3360 
L 1069 3360 
L 1069 2451 
L 998 2611 
Q 1152 2976 1494 3184 
Q 1837 3392 2304 3392 
Q 2797 3392 3142 3145 
Q 3488 2899 3590 2406 
L 3411 2477 
Q 3558 2886 3932 3139 
Q 4307 3392 4832 3392 
z
" transform="scale(0.015625)"/>
       <path id="Montserrat-Regular-64" d="M 1971 -32 
Q 1491 -32 1110 185 
Q 730 403 512 790 
Q 294 1178 294 1683 
Q 294 2195 512 2579 
Q 730 2963 1110 3177 
Q 1491 3392 1971 3392 
Q 2413 3392 2761 3193 
Q 3110 2995 3318 2614 
Q 3526 2234 3526 1683 
Q 3526 1139 3321 755 
Q 3117 371 2768 169 
Q 2419 -32 1971 -32 
z
M 2003 371 
Q 2362 371 2646 534 
Q 2931 698 3094 995 
Q 3258 1293 3258 1683 
Q 3258 2080 3094 2374 
Q 2931 2669 2646 2832 
Q 2362 2995 2003 2995 
Q 1651 2995 1369 2832 
Q 1088 2669 921 2374 
Q 755 2080 755 1683 
Q 755 1293 921 995 
Q 1088 698 1369 534 
Q 1651 371 2003 371 
z
M 3270 0 
L 3270 1011 
L 3315 1690 
L 3251 2368 
L 3251 4749 
L 3706 4749 
L 3706 0 
L 3270 0 
z
" transform="scale(0.015625)"/>
       <path id="Montserrat-Regular-6c" d="M 634 0 
L 634 4749 
L 1088 4749 
L 1088 0 
L 634 0 
z
" transform="scale(0.015625)"/>
       <path id="Montserrat-Regular-73" d="M 1536 -32 
Q 1120 -32 749 86 
Q 378 205 166 384 
L 371 742 
Q 576 589 896 477 
Q 1216 365 1568 365 
Q 2048 365 2259 515 
Q 2470 666 2470 915 
Q 2470 1101 2352 1206 
Q 2234 1312 2042 1366 
Q 1850 1421 1613 1459 
Q 1376 1498 1142 1549 
Q 909 1600 717 1699 
Q 525 1798 406 1971 
Q 288 2144 288 2432 
Q 288 2707 441 2924 
Q 595 3142 892 3267 
Q 1190 3392 1619 3392 
Q 1946 3392 2272 3305 
Q 2598 3219 2810 3078 
L 2611 2714 
Q 2387 2867 2131 2934 
Q 1875 3002 1619 3002 
Q 1165 3002 950 2845 
Q 736 2688 736 2445 
Q 736 2253 854 2144 
Q 973 2035 1168 1974 
Q 1363 1914 1596 1875 
Q 1830 1837 2064 1782 
Q 2298 1728 2493 1635 
Q 2688 1542 2806 1372 
Q 2925 1203 2925 928 
Q 2925 634 2761 419 
Q 2598 205 2288 86 
Q 1978 -32 1536 -32 
z
" transform="scale(0.015625)"/>
      </defs>
      <use xlink:href="#Montserrat-Regular-6d"/>
      <use xlink:href="#Montserrat-Regular-65" x="106.099991"/>
      <use xlink:href="#Montserrat-Regular-64" x="166.499985"/>
      <use xlink:href="#Montserrat-Regular-61" x="234.299973"/>
      <use xlink:href="#Montserrat-Regular-6c" x="293.299957"/>
      <use xlink:href="#Montserrat-Regular-73" x="320.199951"/>
     </g>
    </g>
   </g>
   <g id="PathCollection_1">
    <path d="M 78.117454 123.012723 
C 78.293727 123.012723 78.462804 122.942689 78.587447 122.818046 
C 78.712091 122.693402 78.782124 122.524325 78.782124 122.348053 
C 78.782124 122.17178 78.712091 122.002704 78.587447 121.87806 
C 78.462804 121.753416 78.293727 121.683383 78.117454 121.683383 
C 77.941182 121.683383 77.772105 121.753416 77.647461 121.87806 
C 77.522818 122.002704 77.452784 122.17178 77.452784 122.348053 
C 77.452784 122.524325 77.522818 122.693402 77.647461 122.818046 
C 77.772105 122.942689 77.941182 123.012723 78.117454 123.012723 
z
" clip-path="url(#p0a1dbb3bd6)" style="fill-opacity: 0.501961; stroke: #000000; stroke-opacity: 0.501961; stroke-width: 0.886227"/>
    <path d="M 90.48996 108.612723 
C 90.666232 108.612723 90.835309 108.542689 90.959953 108.418046 
C 91.084596 108.293402 91.15463 108.124325 91.15463 107.948053 
C 91.15463 107.77178 91.084596 107.602704 90.959953 107.47806 
C 90.835309 107.353416 90.666232 107.283383 90.48996 107.283383 
C 90.313687 107.283383 90.144611 107.353416 90.019967 107.47806 
C 89.895323 107.602704 89.82529 107.77178 89.82529 107.948053 
C 89.82529 108.124325 89.895323 108.293402 90.019967 108.418046 
C 90.144611 108.542689 90.313687 108.612723 90.48996 108.612723 
z
" clip-path="url(#p0a1dbb3bd6)" style="fill-opacity: 0.501961; stroke: #000000; stroke-opacity: 0.501961; stroke-width: 0.886227"/>
    <path d="M 102.862465 137.412723 
C 103.038738 137.412723 103.207815 137.342689 103.332458 137.218046 
C 103.457102 137.093402 103.527136 136.924325 103.527136 136.748053 
C 103.527136 136.57178 103.457102 136.402704 103.332458 136.27806 
C 103.207815 136.153416 103.038738 136.083383 102.862465 136.083383 
C 102.686193 136.083383 102.517116 136.153416 102.392473 136.27806 
C 102.267829 136.402704 102.197795 136.57178 102.197795 136.748053 
C 102.197795 136.924325 102.267829 137.093402 102.392473 137.218046 
C 102.517116 137.342689 102.686193 137.412723 102.862465 137.412723 
z
" clip-path="url(#p0a1dbb3bd6)" style="fill-opacity: 0.501961; stroke: #000000; stroke-opacity: 0.501961; stroke-width: 0.886227"/>
    <path d="M 115.234971 132.612723 
C 115.411243 132.612723 115.58032 132.542689 115.704964 132.418046 
C 115.829607 132.293402 115.899641 132.124325 115.899641 131.948053 
C 115.899641 131.77178 115.829607 131.602704 115.704964 131.47806 
C 115.58032 131.353416 115.411243 131.283383 115.234971 131.283383 
C 115.058698 131.283383 114.889622 131.353416 114.764978 131.47806 
C 114.640335 131.602704 114.570301 131.77178 114.570301 131.948053 
C 114.570301 132.124325 114.640335 132.293402 114.764978 132.418046 
C 114.889622 132.542689 115.058698 132.612723 115.234971 132.612723 
z
" clip-path="url(#p0a1dbb3bd6)" style="fill-opacity: 0.501961; stroke: #000000; stroke-opacity: 0.501961; stroke-width: 0.886227"/>
    <path d="M 127.607476 111.012723 
C 127.783749 111.012723 127.952826 110.942689 128.077469 110.818046 
C 128.202113 110.693402 128.272147 110.524325 128.272147 110.348053 
C 128.272147 110.17178 128.202113 110.002704 128.077469 109.87806 
C 127.952826 109.753416 127.783749 109.683383 127.607476 109.683383 
C 127.431204 109.683383 127.262127 109.753416 127.137484 109.87806 
C 127.01284 110.002704 126.942806 110.17178 126.942806 110.348053 
C 126.942806 110.524325 127.01284 110.693402 127.137484 110.818046 
C 127.262127 110.942689 127.431204 111.012723 127.607476 111.012723 
z
" clip-path="url(#p0a1dbb3bd6)" style="fill-opacity: 0.501961; stroke: #000000; stroke-opacity: 0.501961; stroke-width: 0.886227"/>
    <path d="M 139.979982 113.412723 
C 140.156255 113.412723 140.325331 113.342689 140.449975 113.218046 
C 140.574618 113.093402 140.644652 112.924325 140.644652 112.748053 
C 140.644652 112.57178 140.574618 112.402704 140.449975 112.27806 
C 140.325331 112.153416 140.156255 112.083383 139.979982 112.083383 
C 139.803709 112.083383 139.634633 112.153416 139.509989 112.27806 
C 139.385346 112.402704 139.315312 112.57178 139.315312 112.748053 
C 139.315312 112.924325 139.385346 113.093402 139.509989 113.218046 
C 139.634633 113.342689 139.803709 113.412723 139.979982 113.412723 
z
" clip-path="url(#p0a1dbb3bd6)" style="fill-opacity: 0.501961; stroke: #000000; stroke-opacity: 0.501961; stroke-width: 0.886227"/>
    <path d="M 152.352488 118.212723 
C 152.52876 118.212723 152.697837 118.142689 152.82248 118.018046 
C 152.947124 117.893402 153.017158 117.724325 153.017158 117.548053 
C 153.017158 117.37178 152.947124 117.202704 152.82248 117.07806 
C 152.697837 116.953416 152.52876 116.883383 152.352488 116.883383 
C 152.176215 116.883383 152.007138 116.953416 151.882495 117.07806 
C 151.757851 117.202704 151.687817 117.37178 151.687817 117.548053 
C 151.687817 117.724325 151.757851 117.893402 151.882495 118.018046 
C 152.007138 118.142689 152.176215 118.212723 152.352488 118.212723 
z
" clip-path="url(#p0a1dbb3bd6)" style="fill-opacity: 0.501961; stroke: #000000; stroke-opacity: 0.501961; stroke-width: 0.886227"/>
    <path d="M 164.724993 130.212723 
C 164.901266 130.212723 165.070342 130.142689 165.194986 130.018046 
C 165.319629 129.893402 165.389663 129.724325 165.389663 129.548053 
C 165.389663 129.37178 165.319629 129.202704 165.194986 129.07806 
C 165.070342 128.953416 164.901266 128.883383 164.724993 128.883383 
C 164.54872 128.883383 164.379644 128.953416 164.255 129.07806 
C 164.130357 129.202704 164.060323 129.37178 164.060323 129.548053 
C 164.060323 129.724325 164.130357 129.893402 164.255 130.018046 
C 164.379644 130.142689 164.54872 130.212723 164.724993 130.212723 
z
" clip-path="url(#p0a1dbb3bd6)" style="fill-opacity: 0.501961; stroke: #000000; stroke-opacity: 0.501961; stroke-width: 0.886227"/>
    <path d="M 177.097499 123.012723 
C 177.273771 123.012723 177.442848 122.942689 177.567491 122.818046 
C 177.692135 122.693402 177.762169 122.524325 177.762169 122.348053 
C 177.762169 122.17178 177.692135 122.002704 177.567491 121.87806 
C 177.442848 121.753416 177.273771 121.683383 177.097499 121.683383 
C 176.921226 121.683383 176.752149 121.753416 176.627506 121.87806 
C 176.502862 122.002704 176.432828 122.17178 176.432828 122.348053 
C 176.432828 122.524325 176.502862 122.693402 176.627506 122.818046 
C 176.752149 122.942689 176.921226 123.012723 177.097499 123.012723 
z
" clip-path="url(#p0a1dbb3bd6)" style="fill-opacity: 0.501961; stroke: #000000; stroke-opacity: 0.501961; stroke-width: 0.886227"/>
    <path d="M 189.470004 125.412723 
C 189.646277 125.412723 189.815353 125.342689 189.939997 125.218046 
C 190.064641 125.093402 190.134674 124.924325 190.134674 124.748053 
C 190.134674 124.57178 190.064641 124.402704 189.939997 124.27806 
C 189.815353 124.153416 189.646277 124.083383 189.470004 124.083383 
C 189.293732 124.083383 189.124655 124.153416 189.000011 124.27806 
C 188.875368 124.402704 188.805334 124.57178 188.805334 124.748053 
C 188.805334 124.924325 188.875368 125.093402 189.000011 125.218046 
C 189.124655 125.342689 189.293732 125.412723 189.470004 125.412723 
z
" clip-path="url(#p0a1dbb3bd6)" style="fill-opacity: 0.501961; stroke: #000000; stroke-opacity: 0.501961; stroke-width: 0.886227"/>
    <path d="M 201.84251 135.012723 
C 202.018782 135.012723 202.187859 134.942689 202.312503 134.818046 
C 202.437146 134.693402 202.50718 134.524325 202.50718 134.348053 
C 202.50718 134.17178 202.437146 134.002704 202.312503 133.87806 
C 202.187859 133.753416 202.018782 133.683383 201.84251 133.683383 
C 201.666237 133.683383 201.49716 133.753416 201.372517 133.87806 
C 201.247873 134.002704 201.17784 134.17178 201.17784 134.348053 
C 201.17784 134.524325 201.247873 134.693402 201.372517 134.818046 
C 201.49716 134.942689 201.666237 135.012723 201.84251 135.012723 
z
" clip-path="url(#p0a1dbb3bd6)" style="fill-opacity: 0.501961; stroke: #000000; stroke-opacity: 0.501961; stroke-width: 0.886227"/>
    <path d="M 214.215015 99.012723 
C 214.391288 99.012723 214.560364 98.942689 214.685008 98.818046 
C 214.809652 98.693402 214.879685 98.524325 214.879685 98.348053 
C 214.879685 98.17178 214.809652 98.002704 214.685008 97.87806 
C 214.560364 97.753416 214.391288 97.683383 214.215015 97.683383 
C 214.038743 97.683383 213.869666 97.753416 213.745022 97.87806 
C 213.620379 98.002704 213.550345 98.17178 213.550345 98.348053 
C 213.550345 98.524325 213.620379 98.693402 213.745022 98.818046 
C 213.869666 98.942689 214.038743 99.012723 214.215015 99.012723 
z
" clip-path="url(#p0a1dbb3bd6)" style="fill-opacity: 0.501961; stroke: #000000; stroke-opacity: 0.501961; stroke-width: 0.886227"/>
    <path d="M 220.401268 84.612723 
C 220.577541 84.612723 220.746617 84.542689 220.871261 84.418046 
C 220.995904 84.293402 221.065938 84.124325 221.065938 83.948053 
C 221.065938 83.77178 220.995904 83.602704 220.871261 83.47806 
C 220.746617 83.353416 220.577541 83.283383 220.401268 83.283383 
C 220.224995 83.283383 220.055919 83.353416 219.931275 83.47806 
C 219.806632 83.602704 219.736598 83.77178 219.736598 83.948053 
C 219.736598 84.124325 219.806632 84.293402 219.931275 84.418046 
C 220.055919 84.542689 220.224995 84.612723 220.401268 84.612723 
z
" clip-path="url(#p0a1dbb3bd6)" style="fill-opacity: 0.501961; stroke: #000000; stroke-opacity: 0.501961; stroke-width: 0.886227"/>
    <path d="M 232.773774 87.012723 
C 232.950046 87.012723 233.119123 86.942689 233.243766 86.818046 
C 233.36841 86.693402 233.438444 86.524325 233.438444 86.348053 
C 233.438444 86.17178 233.36841 86.002704 233.243766 85.87806 
C 233.119123 85.753416 232.950046 85.683383 232.773774 85.683383 
C 232.597501 85.683383 232.428424 85.753416 232.303781 85.87806 
C 232.179137 86.002704 232.109103 86.17178 232.109103 86.348053 
C 232.109103 86.524325 232.179137 86.693402 232.303781 86.818046 
C 232.428424 86.942689 232.597501 87.012723 232.773774 87.012723 
z
" clip-path="url(#p0a1dbb3bd6)" style="fill-opacity: 0.501961; stroke: #000000; stroke-opacity: 0.501961; stroke-width: 0.886227"/>
    <path d="M 245.146279 87.012723 
C 245.322552 87.012723 245.491628 86.942689 245.616272 86.818046 
C 245.740915 86.693402 245.810949 86.524325 245.810949 86.348053 
C 245.810949 86.17178 245.740915 86.002704 245.616272 85.87806 
C 245.491628 85.753416 245.322552 85.683383 245.146279 85.683383 
C 244.970007 85.683383 244.80093 85.753416 244.676286 85.87806 
C 244.551643 86.002704 244.481609 86.17178 244.481609 86.348053 
C 244.481609 86.524325 244.551643 86.693402 244.676286 86.818046 
C 244.80093 86.942689 244.970007 87.012723 245.146279 87.012723 
z
" clip-path="url(#p0a1dbb3bd6)" style="fill-opacity: 0.501961; stroke: #000000; stroke-opacity: 0.501961; stroke-width: 0.886227"/>
    <path d="M 257.518785 99.012723 
C 257.695057 99.012723 257.864134 98.942689 257.988777 98.818046 
C 258.113421 98.693402 258.183455 98.524325 258.183455 98.348053 
C 258.183455 98.17178 258.113421 98.002704 257.988777 97.87806 
C 257.864134 97.753416 257.695057 97.683383 257.518785 97.683383 
C 257.342512 97.683383 257.173435 97.753416 257.048792 97.87806 
C 256.924148 98.002704 256.854114 98.17178 256.854114 98.348053 
C 256.854114 98.524325 256.924148 98.693402 257.048792 98.818046 
C 257.173435 98.942689 257.342512 99.012723 257.518785 99.012723 
z
" clip-path="url(#p0a1dbb3bd6)" style="fill-opacity: 0.501961; stroke: #000000; stroke-opacity: 0.501961; stroke-width: 0.886227"/>
    <path d="M 269.89129 89.412723 
C 270.067563 89.412723 270.236639 89.342689 270.361283 89.218046 
C 270.485927 89.093402 270.55596 88.924325 270.55596 88.748053 
C 270.55596 88.57178 270.485927 88.402704 270.361283 88.27806 
C 270.236639 88.153416 270.067563 88.083383 269.89129 88.083383 
C 269.715018 88.083383 269.545941 88.153416 269.421297 88.27806 
C 269.296654 88.402704 269.22662 88.57178 269.22662 88.748053 
C 269.22662 88.924325 269.296654 89.093402 269.421297 89.218046 
C 269.545941 89.342689 269.715018 89.412723 269.89129 89.412723 
z
" clip-path="url(#p0a1dbb3bd6)" style="fill-opacity: 0.501961; stroke: #000000; stroke-opacity: 0.501961; stroke-width: 0.886227"/>
    <path d="M 282.263796 82.212723 
C 282.440068 82.212723 282.609145 82.142689 282.733789 82.018046 
C 282.858432 81.893402 282.928466 81.724325 282.928466 81.548053 
C 282.928466 81.37178 282.858432 81.202704 282.733789 81.07806 
C 282.609145 80.953416 282.440068 80.883383 282.263796 80.883383 
C 282.087523 80.883383 281.918446 80.953416 281.793803 81.07806 
C 281.669159 81.202704 281.599126 81.37178 281.599126 81.548053 
C 281.599126 81.724325 281.669159 81.893402 281.793803 82.018046 
C 281.918446 82.142689 282.087523 82.212723 282.263796 82.212723 
z
" clip-path="url(#p0a1dbb3bd6)" style="fill-opacity: 0.501961; stroke: #000000; stroke-opacity: 0.501961; stroke-width: 0.886227"/>
    <path d="M 294.636301 46.212723 
C 294.812574 46.212723 294.981651 46.142689 295.106294 46.018046 
C 295.230938 45.893402 295.300971 45.724325 295.300971 45.548053 
C 295.300971 45.37178 295.230938 45.202704 295.106294 45.07806 
C 294.981651 44.953416 294.812574 44.883383 294.636301 44.883383 
C 294.460029 44.883383 294.290952 44.953416 294.166308 45.07806 
C 294.041665 45.202704 293.971631 45.37178 293.971631 45.548053 
C 293.971631 45.724325 294.041665 45.893402 294.166308 46.018046 
C 294.290952 46.142689 294.460029 46.212723 294.636301 46.212723 
z
" clip-path="url(#p0a1dbb3bd6)" style="fill-opacity: 0.501961; stroke: #000000; stroke-opacity: 0.501961; stroke-width: 0.886227"/>
    <path d="M 307.008807 53.412723 
C 307.185079 53.412723 307.354156 53.342689 307.4788 53.218046 
C 307.603443 53.093402 307.673477 52.924325 307.673477 52.748053 
C 307.673477 52.57178 307.603443 52.402704 307.4788 52.27806 
C 307.354156 52.153416 307.185079 52.083383 307.008807 52.083383 
C 306.832534 52.083383 306.663458 52.153416 306.538814 52.27806 
C 306.41417 52.402704 306.344137 52.57178 306.344137 52.748053 
C 306.344137 52.924325 306.41417 53.093402 306.538814 53.218046 
C 306.663458 53.342689 306.832534 53.412723 307.008807 53.412723 
z
" clip-path="url(#p0a1dbb3bd6)" style="fill-opacity: 0.501961; stroke: #000000; stroke-opacity: 0.501961; stroke-width: 0.886227"/>
    <path d="M 78.117454 123.012723 
C 78.293727 123.012723 78.462804 122.942689 78.587447 122.818046 
C 78.712091 122.693402 78.782124 122.524325 78.782124 122.348053 
C 78.782124 122.17178 78.712091 122.002704 78.587447 121.87806 
C 78.462804 121.753416 78.293727 121.683383 78.117454 121.683383 
C 77.941182 121.683383 77.772105 121.753416 77.647461 121.87806 
C 77.522818 122.002704 77.452784 122.17178 77.452784 122.348053 
C 77.452784 122.524325 77.522818 122.693402 77.647461 122.818046 
C 77.772105 122.942689 77.941182 123.012723 78.117454 123.012723 
z
" clip-path="url(#p0a1dbb3bd6)" style="fill-opacity: 0.501961; stroke: #000000; stroke-opacity: 0.501961; stroke-width: 0.886227"/>
    <path d="M 90.48996 108.612723 
C 90.666232 108.612723 90.835309 108.542689 90.959953 108.418046 
C 91.084596 108.293402 91.15463 108.124325 91.15463 107.948053 
C 91.15463 107.77178 91.084596 107.602704 90.959953 107.47806 
C 90.835309 107.353416 90.666232 107.283383 90.48996 107.283383 
C 90.313687 107.283383 90.144611 107.353416 90.019967 107.47806 
C 89.895323 107.602704 89.82529 107.77178 89.82529 107.948053 
C 89.82529 108.124325 89.895323 108.293402 90.019967 108.418046 
C 90.144611 108.542689 90.313687 108.612723 90.48996 108.612723 
z
" clip-path="url(#p0a1dbb3bd6)" style="fill-opacity: 0.501961; stroke: #000000; stroke-opacity: 0.501961; stroke-width: 0.886227"/>
    <path d="M 102.862465 137.412723 
C 103.038738 137.412723 103.207815 137.342689 103.332458 137.218046 
C 103.457102 137.093402 103.527136 136.924325 103.527136 136.748053 
C 103.527136 136.57178 103.457102 136.402704 103.332458 136.27806 
C 103.207815 136.153416 103.038738 136.083383 102.862465 136.083383 
C 102.686193 136.083383 102.517116 136.153416 102.392473 136.27806 
C 102.267829 136.402704 102.197795 136.57178 102.197795 136.748053 
C 102.197795 136.924325 102.267829 137.093402 102.392473 137.218046 
C 102.517116 137.342689 102.686193 137.412723 102.862465 137.412723 
z
" clip-path="url(#p0a1dbb3bd6)" style="fill-opacity: 0.501961; stroke: #000000; stroke-opacity: 0.501961; stroke-width: 0.886227"/>
    <path d="M 115.234971 132.612723 
C 115.411243 132.612723 115.58032 132.542689 115.704964 132.418046 
C 115.829607 132.293402 115.899641 132.124325 115.899641 131.948053 
C 115.899641 131.77178 115.829607 131.602704 115.704964 131.47806 
C 115.58032 131.353416 115.411243 131.283383 115.234971 131.283383 
C 115.058698 131.283383 114.889622 131.353416 114.764978 131.47806 
C 114.640335 131.602704 114.570301 131.77178 114.570301 131.948053 
C 114.570301 132.124325 114.640335 132.293402 114.764978 132.418046 
C 114.889622 132.542689 115.058698 132.612723 115.234971 132.612723 
z
" clip-path="url(#p0a1dbb3bd6)" style="fill-opacity: 0.501961; stroke: #000000; stroke-opacity: 0.501961; stroke-width: 0.886227"/>
    <path d="M 127.607476 111.012723 
C 127.783749 111.012723 127.952826 110.942689 128.077469 110.818046 
C 128.202113 110.693402 128.272147 110.524325 128.272147 110.348053 
C 128.272147 110.17178 128.202113 110.002704 128.077469 109.87806 
C 127.952826 109.753416 127.783749 109.683383 127.607476 109.683383 
C 127.431204 109.683383 127.262127 109.753416 127.137484 109.87806 
C 127.01284 110.002704 126.942806 110.17178 126.942806 110.348053 
C 126.942806 110.524325 127.01284 110.693402 127.137484 110.818046 
C 127.262127 110.942689 127.431204 111.012723 127.607476 111.012723 
z
" clip-path="url(#p0a1dbb3bd6)" style="fill-opacity: 0.501961; stroke: #000000; stroke-opacity: 0.501961; stroke-width: 0.886227"/>
    <path d="M 139.979982 113.412723 
C 140.156255 113.412723 140.325331 113.342689 140.449975 113.218046 
C 140.574618 113.093402 140.644652 112.924325 140.644652 112.748053 
C 140.644652 112.57178 140.574618 112.402704 140.449975 112.27806 
C 140.325331 112.153416 140.156255 112.083383 139.979982 112.083383 
C 139.803709 112.083383 139.634633 112.153416 139.509989 112.27806 
C 139.385346 112.402704 139.315312 112.57178 139.315312 112.748053 
C 139.315312 112.924325 139.385346 113.093402 139.509989 113.218046 
C 139.634633 113.342689 139.803709 113.412723 139.979982 113.412723 
z
" clip-path="url(#p0a1dbb3bd6)" style="fill-opacity: 0.501961; stroke: #000000; stroke-opacity: 0.501961; stroke-width: 0.886227"/>
    <path d="M 152.352488 118.212723 
C 152.52876 118.212723 152.697837 118.142689 152.82248 118.018046 
C 152.947124 117.893402 153.017158 117.724325 153.017158 117.548053 
C 153.017158 117.37178 152.947124 117.202704 152.82248 117.07806 
C 152.697837 116.953416 152.52876 116.883383 152.352488 116.883383 
C 152.176215 116.883383 152.007138 116.953416 151.882495 117.07806 
C 151.757851 117.202704 151.687817 117.37178 151.687817 117.548053 
C 151.687817 117.724325 151.757851 117.893402 151.882495 118.018046 
C 152.007138 118.142689 152.176215 118.212723 152.352488 118.212723 
z
" clip-path="url(#p0a1dbb3bd6)" style="fill-opacity: 0.501961; stroke: #000000; stroke-opacity: 0.501961; stroke-width: 0.886227"/>
    <path d="M 164.724993 130.212723 
C 164.901266 130.212723 165.070342 130.142689 165.194986 130.018046 
C 165.319629 129.893402 165.389663 129.724325 165.389663 129.548053 
C 165.389663 129.37178 165.319629 129.202704 165.194986 129.07806 
C 165.070342 128.953416 164.901266 128.883383 164.724993 128.883383 
C 164.54872 128.883383 164.379644 128.953416 164.255 129.07806 
C 164.130357 129.202704 164.060323 129.37178 164.060323 129.548053 
C 164.060323 129.724325 164.130357 129.893402 164.255 130.018046 
C 164.379644 130.142689 164.54872 130.212723 164.724993 130.212723 
z
" clip-path="url(#p0a1dbb3bd6)" style="fill-opacity: 0.501961; stroke: #000000; stroke-opacity: 0.501961; stroke-width: 0.886227"/>
    <path d="M 177.097499 123.012723 
C 177.273771 123.012723 177.442848 122.942689 177.567491 122.818046 
C 177.692135 122.693402 177.762169 122.524325 177.762169 122.348053 
C 177.762169 122.17178 177.692135 122.002704 177.567491 121.87806 
C 177.442848 121.753416 177.273771 121.683383 177.097499 121.683383 
C 176.921226 121.683383 176.752149 121.753416 176.627506 121.87806 
C 176.502862 122.002704 176.432828 122.17178 176.432828 122.348053 
C 176.432828 122.524325 176.502862 122.693402 176.627506 122.818046 
C 176.752149 122.942689 176.921226 123.012723 177.097499 123.012723 
z
" clip-path="url(#p0a1dbb3bd6)" style="fill-opacity: 0.501961; stroke: #000000; stroke-opacity: 0.501961; stroke-width: 0.886227"/>
    <path d="M 189.470004 125.412723 
C 189.646277 125.412723 189.815353 125.342689 189.939997 125.218046 
C 190.064641 125.093402 190.134674 124.924325 190.134674 124.748053 
C 190.134674 124.57178 190.064641 124.402704 189.939997 124.27806 
C 189.815353 124.153416 189.646277 124.083383 189.470004 124.083383 
C 189.293732 124.083383 189.124655 124.153416 189.000011 124.27806 
C 188.875368 124.402704 188.805334 124.57178 188.805334 124.748053 
C 188.805334 124.924325 188.875368 125.093402 189.000011 125.218046 
C 189.124655 125.342689 189.293732 125.412723 189.470004 125.412723 
z
" clip-path="url(#p0a1dbb3bd6)" style="fill-opacity: 0.501961; stroke: #000000; stroke-opacity: 0.501961; stroke-width: 0.886227"/>
    <path d="M 201.84251 135.012723 
C 202.018782 135.012723 202.187859 134.942689 202.312503 134.818046 
C 202.437146 134.693402 202.50718 134.524325 202.50718 134.348053 
C 202.50718 134.17178 202.437146 134.002704 202.312503 133.87806 
C 202.187859 133.753416 202.018782 133.683383 201.84251 133.683383 
C 201.666237 133.683383 201.49716 133.753416 201.372517 133.87806 
C 201.247873 134.002704 201.17784 134.17178 201.17784 134.348053 
C 201.17784 134.524325 201.247873 134.693402 201.372517 134.818046 
C 201.49716 134.942689 201.666237 135.012723 201.84251 135.012723 
z
" clip-path="url(#p0a1dbb3bd6)" style="fill-opacity: 0.501961; stroke: #000000; stroke-opacity: 0.501961; stroke-width: 0.886227"/>
    <path d="M 214.215015 99.012723 
C 214.391288 99.012723 214.560364 98.942689 214.685008 98.818046 
C 214.809652 98.693402 214.879685 98.524325 214.879685 98.348053 
C 214.879685 98.17178 214.809652 98.002704 214.685008 97.87806 
C 214.560364 97.753416 214.391288 97.683383 214.215015 97.683383 
C 214.038743 97.683383 213.869666 97.753416 213.745022 97.87806 
C 213.620379 98.002704 213.550345 98.17178 213.550345 98.348053 
C 213.550345 98.524325 213.620379 98.693402 213.745022 98.818046 
C 213.869666 98.942689 214.038743 99.012723 214.215015 99.012723 
z
" clip-path="url(#p0a1dbb3bd6)" style="fill-opacity: 0.501961; stroke: #000000; stroke-opacity: 0.501961; stroke-width: 0.886227"/>
    <path d="M 220.401268 84.612723 
C 220.577541 84.612723 220.746617 84.542689 220.871261 84.418046 
C 220.995904 84.293402 221.065938 84.124325 221.065938 83.948053 
C 221.065938 83.77178 220.995904 83.602704 220.871261 83.47806 
C 220.746617 83.353416 220.577541 83.283383 220.401268 83.283383 
C 220.224995 83.283383 220.055919 83.353416 219.931275 83.47806 
C 219.806632 83.602704 219.736598 83.77178 219.736598 83.948053 
C 219.736598 84.124325 219.806632 84.293402 219.931275 84.418046 
C 220.055919 84.542689 220.224995 84.612723 220.401268 84.612723 
z
" clip-path="url(#p0a1dbb3bd6)" style="fill-opacity: 0.501961; stroke: #000000; stroke-opacity: 0.501961; stroke-width: 0.886227"/>
    <path d="M 232.773774 87.012723 
C 232.950046 87.012723 233.119123 86.942689 233.243766 86.818046 
C 233.36841 86.693402 233.438444 86.524325 233.438444 86.348053 
C 233.438444 86.17178 233.36841 86.002704 233.243766 85.87806 
C 233.119123 85.753416 232.950046 85.683383 232.773774 85.683383 
C 232.597501 85.683383 232.428424 85.753416 232.303781 85.87806 
C 232.179137 86.002704 232.109103 86.17178 232.109103 86.348053 
C 232.109103 86.524325 232.179137 86.693402 232.303781 86.818046 
C 232.428424 86.942689 232.597501 87.012723 232.773774 87.012723 
z
" clip-path="url(#p0a1dbb3bd6)" style="fill-opacity: 0.501961; stroke: #000000; stroke-opacity: 0.501961; stroke-width: 0.886227"/>
    <path d="M 245.146279 87.012723 
C 245.322552 87.012723 245.491628 86.942689 245.616272 86.818046 
C 245.740915 86.693402 245.810949 86.524325 245.810949 86.348053 
C 245.810949 86.17178 245.740915 86.002704 245.616272 85.87806 
C 245.491628 85.753416 245.322552 85.683383 245.146279 85.683383 
C 244.970007 85.683383 244.80093 85.753416 244.676286 85.87806 
C 244.551643 86.002704 244.481609 86.17178 244.481609 86.348053 
C 244.481609 86.524325 244.551643 86.693402 244.676286 86.818046 
C 244.80093 86.942689 244.970007 87.012723 245.146279 87.012723 
z
" clip-path="url(#p0a1dbb3bd6)" style="fill-opacity: 0.501961; stroke: #000000; stroke-opacity: 0.501961; stroke-width: 0.886227"/>
    <path d="M 257.518785 99.012723 
C 257.695057 99.012723 257.864134 98.942689 257.988777 98.818046 
C 258.113421 98.693402 258.183455 98.524325 258.183455 98.348053 
C 258.183455 98.17178 258.113421 98.002704 257.988777 97.87806 
C 257.864134 97.753416 257.695057 97.683383 257.518785 97.683383 
C 257.342512 97.683383 257.173435 97.753416 257.048792 97.87806 
C 256.924148 98.002704 256.854114 98.17178 256.854114 98.348053 
C 256.854114 98.524325 256.924148 98.693402 257.048792 98.818046 
C 257.173435 98.942689 257.342512 99.012723 257.518785 99.012723 
z
" clip-path="url(#p0a1dbb3bd6)" style="fill-opacity: 0.501961; stroke: #000000; stroke-opacity: 0.501961; stroke-width: 0.886227"/>
    <path d="M 269.89129 89.412723 
C 270.067563 89.412723 270.236639 89.342689 270.361283 89.218046 
C 270.485927 89.093402 270.55596 88.924325 270.55596 88.748053 
C 270.55596 88.57178 270.485927 88.402704 270.361283 88.27806 
C 270.236639 88.153416 270.067563 88.083383 269.89129 88.083383 
C 269.715018 88.083383 269.545941 88.153416 269.421297 88.27806 
C 269.296654 88.402704 269.22662 88.57178 269.22662 88.748053 
C 269.22662 88.924325 269.296654 89.093402 269.421297 89.218046 
C 269.545941 89.342689 269.715018 89.412723 269.89129 89.412723 
z
" clip-path="url(#p0a1dbb3bd6)" style="fill-opacity: 0.501961; stroke: #000000; stroke-opacity: 0.501961; stroke-width: 0.886227"/>
    <path d="M 282.263796 82.212723 
C 282.440068 82.212723 282.609145 82.142689 282.733789 82.018046 
C 282.858432 81.893402 282.928466 81.724325 282.928466 81.548053 
C 282.928466 81.37178 282.858432 81.202704 282.733789 81.07806 
C 282.609145 80.953416 282.440068 80.883383 282.263796 80.883383 
C 282.087523 80.883383 281.918446 80.953416 281.793803 81.07806 
C 281.669159 81.202704 281.599126 81.37178 281.599126 81.548053 
C 281.599126 81.724325 281.669159 81.893402 281.793803 82.018046 
C 281.918446 82.142689 282.087523 82.212723 282.263796 82.212723 
z
" clip-path="url(#p0a1dbb3bd6)" style="fill-opacity: 0.501961; stroke: #000000; stroke-opacity: 0.501961; stroke-width: 0.886227"/>
    <path d="M 294.636301 46.212723 
C 294.812574 46.212723 294.981651 46.142689 295.106294 46.018046 
C 295.230938 45.893402 295.300971 45.724325 295.300971 45.548053 
C 295.300971 45.37178 295.230938 45.202704 295.106294 45.07806 
C 294.981651 44.953416 294.812574 44.883383 294.636301 44.883383 
C 294.460029 44.883383 294.290952 44.953416 294.166308 45.07806 
C 294.041665 45.202704 293.971631 45.37178 293.971631 45.548053 
C 293.971631 45.724325 294.041665 45.893402 294.166308 46.018046 
C 294.290952 46.142689 294.460029 46.212723 294.636301 46.212723 
z
" clip-path="url(#p0a1dbb3bd6)" style="fill-opacity: 0.501961; stroke: #000000; stroke-opacity: 0.501961; stroke-width: 0.886227"/>
    <path d="M 307.008807 53.412723 
C 307.185079 53.412723 307.354156 53.342689 307.4788 53.218046 
C 307.603443 53.093402 307.673477 52.924325 307.673477 52.748053 
C 307.673477 52.57178 307.603443 52.402704 307.4788 52.27806 
C 307.354156 52.153416 307.185079 52.083383 307.008807 52.083383 
C 306.832534 52.083383 306.663458 52.153416 306.538814 52.27806 
C 306.41417 52.402704 306.344137 52.57178 306.344137 52.748053 
C 306.344137 52.924325 306.41417 53.093402 306.538814 53.218046 
C 306.663458 53.342689 306.832534 53.412723 307.008807 53.412723 
z
" clip-path="url(#p0a1dbb3bd6)" style="fill-opacity: 0.501961; stroke: #000000; stroke-opacity: 0.501961; stroke-width: 0.886227"/>
   </g>
   <g id="patch_3">
    <path d="M 40.690625 40.508053 
L 319.690625 40.508053 
L 319.690625 24.508053 
L 40.690625 24.508053 
z
" style="fill: #d9d9d9; stroke: #d9d9d9; stroke-linejoin: miter"/>
   </g>
   <g id="PathCollection_2">
    <path d="M 218.185701 83.948053 
L 222.616835 83.948053 
M 220.401268 86.16362 
L 220.401268 81.732485 
" clip-path="url(#p0a1dbb3bd6)" style="fill: #ff0000; stroke: #ff0000; stroke-width: 0.886227"/>
    <path d="M 88.274392 107.948053 
L 92.705527 107.948053 
M 90.48996 110.16362 
L 90.48996 105.732485 
" clip-path="url(#p0a1dbb3bd6)" style="fill: #ff0000; stroke: #ff0000; stroke-width: 0.886227"/>
   </g>
   <g id="text_13">
    <!-- Norway -->
    <g transform="translate(160.930469 35.197897)scale(0.1 -0.1)">
     <defs>
      <path id="Montserrat-Regular-4e" d="M 730 0 
L 730 4480 
L 1120 4480 
L 4211 589 
L 4006 589 
L 4006 4480 
L 4474 4480 
L 4474 0 
L 4083 0 
L 998 3891 
L 1203 3891 
L 1203 0 
L 730 0 
z
" transform="scale(0.015625)"/>
      <path id="Montserrat-Regular-6f" d="M 2003 -32 
Q 1517 -32 1129 189 
Q 742 410 518 797 
Q 294 1184 294 1683 
Q 294 2189 518 2573 
Q 742 2957 1126 3174 
Q 1510 3392 2003 3392 
Q 2502 3392 2889 3174 
Q 3277 2957 3497 2573 
Q 3718 2189 3718 1683 
Q 3718 1184 3497 797 
Q 3277 410 2886 189 
Q 2496 -32 2003 -32 
z
M 2003 371 
Q 2368 371 2649 534 
Q 2931 698 3094 995 
Q 3258 1293 3258 1683 
Q 3258 2080 3094 2374 
Q 2931 2669 2649 2832 
Q 2368 2995 2010 2995 
Q 1651 2995 1369 2832 
Q 1088 2669 921 2374 
Q 755 2080 755 1683 
Q 755 1293 921 995 
Q 1088 698 1369 534 
Q 1651 371 2003 371 
z
" transform="scale(0.015625)"/>
      <path id="Montserrat-Regular-77" d="M 1318 0 
L 51 3360 
L 486 3360 
L 1638 243 
L 1440 243 
L 2624 3360 
L 3014 3360 
L 4186 243 
L 3987 243 
L 5158 3360 
L 5574 3360 
L 4301 0 
L 3872 0 
L 2746 2931 
L 2880 2931 
L 1747 0 
L 1318 0 
z
" transform="scale(0.015625)"/>
     </defs>
     <use xlink:href="#Montserrat-Regular-4e"/>
     <use xlink:href="#Montserrat-Regular-6f" x="81.299988"/>
     <use xlink:href="#Montserrat-Regular-72" x="143.999985"/>
     <use xlink:href="#Montserrat-Regular-77" x="184.099976"/>
     <use xlink:href="#Montserrat-Regular-61" x="271.999969"/>
     <use xlink:href="#Montserrat-Regular-79" x="330.999954"/>
    </g>
   </g>
  </g>
  <g id="text_14">
   <!-- Medals for Norway at Winter Olympics -->
   <g transform="translate(79.264844 14.670312)scale(0.1 -0.1)">
    <defs>
     <path id="Montserrat-Regular-4d" d="M 730 0 
L 730 4480 
L 1120 4480 
L 3168 986 
L 2963 986 
L 4992 4480 
L 5382 4480 
L 5382 0 
L 4928 0 
L 4928 3770 
L 5037 3770 
L 3168 570 
L 2944 570 
L 1062 3770 
L 1184 3770 
L 1184 0 
L 730 0 
z
" transform="scale(0.015625)"/>
     <path id="Montserrat-Regular-20" transform="scale(0.015625)"/>
     <path id="Montserrat-Regular-66" d="M 710 0 
L 710 3782 
Q 710 4230 972 4505 
Q 1235 4781 1728 4781 
Q 1920 4781 2099 4729 
Q 2278 4678 2400 4570 
L 2246 4230 
Q 2150 4314 2022 4355 
Q 1894 4397 1747 4397 
Q 1459 4397 1305 4237 
Q 1152 4077 1152 3763 
L 1152 3251 
L 1165 3040 
L 1165 0 
L 710 0 
z
M 109 2982 
L 109 3360 
L 2189 3360 
L 2189 2982 
L 109 2982 
z
" transform="scale(0.015625)"/>
     <path id="Montserrat-Regular-74" d="M 1696 -32 
Q 1222 -32 966 224 
Q 710 480 710 947 
L 710 4102 
L 1165 4102 
L 1165 973 
Q 1165 678 1315 518 
Q 1466 358 1747 358 
Q 2048 358 2246 531 
L 2406 205 
Q 2272 83 2083 25 
Q 1894 -32 1696 -32 
z
M 109 2982 
L 109 3360 
L 2189 3360 
L 2189 2982 
L 109 2982 
z
" transform="scale(0.015625)"/>
     <path id="Montserrat-Regular-57" d="M 1747 0 
L 237 4480 
L 723 4480 
L 2138 262 
L 1894 262 
L 3354 4480 
L 3789 4480 
L 5229 262 
L 4998 262 
L 6426 4480 
L 6880 4480 
L 5370 0 
L 4870 0 
L 3494 4000 
L 3622 4000 
L 2240 0 
L 1747 0 
z
" transform="scale(0.015625)"/>
     <path id="Montserrat-Regular-69" d="M 634 0 
L 634 3360 
L 1088 3360 
L 1088 0 
L 634 0 
z
M 864 4102 
Q 723 4102 627 4198 
Q 531 4294 531 4429 
Q 531 4563 627 4656 
Q 723 4749 864 4749 
Q 1005 4749 1101 4659 
Q 1197 4570 1197 4435 
Q 1197 4294 1104 4198 
Q 1011 4102 864 4102 
z
" transform="scale(0.015625)"/>
     <path id="Montserrat-Regular-6e" d="M 2349 3392 
Q 2758 3392 3068 3235 
Q 3379 3078 3555 2758 
Q 3731 2438 3731 1952 
L 3731 0 
L 3277 0 
L 3277 1907 
Q 3277 2438 3011 2710 
Q 2746 2982 2266 2982 
Q 1907 2982 1641 2838 
Q 1376 2694 1232 2422 
Q 1088 2150 1088 1766 
L 1088 0 
L 634 0 
L 634 3360 
L 1069 3360 
L 1069 2438 
L 998 2611 
Q 1158 2976 1510 3184 
Q 1862 3392 2349 3392 
z
" transform="scale(0.015625)"/>
     <path id="Montserrat-Regular-4f" d="M 2688 -38 
Q 2182 -38 1750 131 
Q 1318 301 1001 611 
Q 685 922 509 1334 
Q 333 1747 333 2240 
Q 333 2733 509 3145 
Q 685 3558 1001 3868 
Q 1318 4179 1747 4348 
Q 2176 4518 2688 4518 
Q 3194 4518 3622 4348 
Q 4051 4179 4368 3872 
Q 4685 3565 4861 3149 
Q 5037 2733 5037 2240 
Q 5037 1747 4861 1331 
Q 4685 915 4368 608 
Q 4051 301 3622 131 
Q 3194 -38 2688 -38 
z
M 2688 384 
Q 3091 384 3433 521 
Q 3776 659 4029 912 
Q 4282 1165 4422 1501 
Q 4563 1837 4563 2240 
Q 4563 2643 4422 2979 
Q 4282 3315 4029 3568 
Q 3776 3821 3433 3958 
Q 3091 4096 2688 4096 
Q 2285 4096 1939 3958 
Q 1594 3821 1341 3568 
Q 1088 3315 944 2979 
Q 800 2643 800 2240 
Q 800 1843 944 1504 
Q 1088 1165 1341 912 
Q 1594 659 1939 521 
Q 2285 384 2688 384 
z
" transform="scale(0.015625)"/>
     <path id="Montserrat-Regular-70" d="M 2368 -32 
Q 1933 -32 1581 169 
Q 1229 371 1021 752 
Q 813 1133 813 1683 
Q 813 2234 1017 2614 
Q 1222 2995 1574 3193 
Q 1926 3392 2368 3392 
Q 2848 3392 3229 3177 
Q 3610 2963 3827 2576 
Q 4045 2189 4045 1683 
Q 4045 1171 3827 787 
Q 3610 403 3229 185 
Q 2848 -32 2368 -32 
z
M 634 -1242 
L 634 3360 
L 1069 3360 
L 1069 2349 
L 1024 1677 
L 1088 998 
L 1088 -1242 
L 634 -1242 
z
M 2336 371 
Q 2694 371 2976 534 
Q 3258 698 3424 995 
Q 3590 1293 3590 1683 
Q 3590 2074 3424 2368 
Q 3258 2662 2976 2828 
Q 2694 2995 2336 2995 
Q 1978 2995 1693 2828 
Q 1408 2662 1245 2368 
Q 1082 2074 1082 1683 
Q 1082 1293 1245 995 
Q 1408 698 1693 534 
Q 1978 371 2336 371 
z
" transform="scale(0.015625)"/>
     <path id="Montserrat-Regular-63" d="M 2029 -32 
Q 1530 -32 1136 189 
Q 742 410 518 797 
Q 294 1184 294 1683 
Q 294 2189 518 2573 
Q 742 2957 1136 3174 
Q 1530 3392 2029 3392 
Q 2458 3392 2803 3225 
Q 3149 3059 3347 2726 
L 3008 2496 
Q 2835 2752 2579 2873 
Q 2323 2995 2022 2995 
Q 1664 2995 1376 2832 
Q 1088 2669 921 2374 
Q 755 2080 755 1683 
Q 755 1286 921 992 
Q 1088 698 1376 534 
Q 1664 371 2022 371 
Q 2323 371 2579 492 
Q 2835 614 3008 864 
L 3347 634 
Q 3149 307 2803 137 
Q 2458 -32 2029 -32 
z
" transform="scale(0.015625)"/>
    </defs>
    <use xlink:href="#Montserrat-Regular-4d"/>
    <use xlink:href="#Montserrat-Regular-65" x="95.499985"/>
    <use xlink:href="#Montserrat-Regular-64" x="155.899979"/>
    <use xlink:href="#Montserrat-Regular-61" x="223.699966"/>
    <use xlink:href="#Montserrat-Regular-6c" x="282.699951"/>
    <use xlink:href="#Montserrat-Regular-73" x="309.599945"/>
    <use xlink:href="#Montserrat-Regular-20" x="358.399933"/>
    <use xlink:href="#Montserrat-Regular-66" x="384.59993"/>
    <use xlink:href="#Montserrat-Regular-6f" x="418.499924"/>
    <use xlink:href="#Montserrat-Regular-72" x="481.199921"/>
    <use xlink:href="#Montserrat-Regular-20" x="521.299911"/>
    <use xlink:href="#Montserrat-Regular-4e" x="547.499908"/>
    <use xlink:href="#Montserrat-Regular-6f" x="628.799896"/>
    <use xlink:href="#Montserrat-Regular-72" x="691.499893"/>
    <use xlink:href="#Montserrat-Regular-77" x="731.599884"/>
    <use xlink:href="#Montserrat-Regular-61" x="819.499878"/>
    <use xlink:href="#Montserrat-Regular-79" x="878.499863"/>
    <use xlink:href="#Montserrat-Regular-20" x="932.69986"/>
    <use xlink:href="#Montserrat-Regular-61" x="958.899857"/>
    <use xlink:href="#Montserrat-Regular-74" x="1017.899841"/>
    <use xlink:href="#Montserrat-Regular-20" x="1058.499832"/>
    <use xlink:href="#Montserrat-Regular-57" x="1084.699829"/>
    <use xlink:href="#Montserrat-Regular-69" x="1195.79982"/>
    <use xlink:href="#Montserrat-Regular-6e" x="1222.699814"/>
    <use xlink:href="#Montserrat-Regular-74" x="1290.299805"/>
    <use xlink:href="#Montserrat-Regular-65" x="1330.899796"/>
    <use xlink:href="#Montserrat-Regular-72" x="1391.299789"/>
    <use xlink:href="#Montserrat-Regular-20" x="1431.39978"/>
    <use xlink:href="#Montserrat-Regular-4f" x="1457.599777"/>
    <use xlink:href="#Montserrat-Regular-6c" x="1541.499771"/>
    <use xlink:href="#Montserrat-Regular-79" x="1568.399765"/>
    <use xlink:href="#Montserrat-Regular-6d" x="1622.599762"/>
    <use xlink:href="#Montserrat-Regular-70" x="1728.699753"/>
    <use xlink:href="#Montserrat-Regular-69" x="1796.499741"/>
    <use xlink:href="#Montserrat-Regular-63" x="1823.399734"/>
    <use xlink:href="#Montserrat-Regular-73" x="1879.699722"/>
   </g>
  </g>
 </g>
 <defs>
  <clipPath id="p0a1dbb3bd6">
   <rect x="40.690625" y="40.508053" width="279" height="110.88"/>
  </clipPath>
 </defs>
</svg>
