<?xml version="1.0" encoding="utf-8" standalone="no"?>
<!DOCTYPE svg PUBLIC "-//W3C//DTD SVG 1.1//EN"
  "http://www.w3.org/Graphics/SVG/1.1/DTD/svg11.dtd">
<svg xmlns:xlink="http://www.w3.org/1999/xlink" width="327.33125pt" height="188.209928pt" viewBox="0 0 327.33125 188.209928" xmlns="http://www.w3.org/2000/svg" version="1.1">
 <metadata>
  <rdf:RDF xmlns:dc="http://purl.org/dc/elements/1.1/" xmlns:cc="http://creativecommons.org/ns#" xmlns:rdf="http://www.w3.org/1999/02/22-rdf-syntax-ns#">
   <cc:Work>
    <dc:type rdf:resource="http://purl.org/dc/dcmitype/StillImage"/>
    <dc:date>2024-08-08T08:27:57.610616</dc:date>
    <dc:format>image/svg+xml</dc:format>
    <dc:creator>
     <cc:Agent>
      <dc:title>Matplotlib v3.5.1, https://matplotlib.org/</dc:title>
     </cc:Agent>
    </dc:creator>
   </cc:Work>
  </rdf:RDF>
 </metadata>
 <defs>
  <style type="text/css">*{stroke-linejoin: round; stroke-linecap: butt}</style>
 </defs>
 <g id="figure_1">
  <g id="patch_1">
   <path d="M 0 188.209928 
L 327.33125 188.209928 
L 327.33125 0 
L 0 0 
z
" style="fill: #ffffff"/>
  </g>
  <g id="axes_1">
   <g id="patch_2">
    <path d="M 41.13125 151.388053 
L 320.13125 151.388053 
L 320.13125 40.508053 
L 41.13125 40.508053 
z
" style="fill: #ffffff"/>
   </g>
   <g id="line2d_1">
    <path d="M 78.558079 95.948053 
L 90.930585 136.268053 
L 103.30309 126.188053 
L 115.675596 136.268053 
L 128.048101 136.268053 
L 140.420607 55.628053 
L 152.793113 136.268053 
L 165.165618 126.188053 
L 177.538124 106.028053 
L 189.910629 85.868053 
L 202.283135 126.188053 
L 214.65564 136.268053 
L 227.028146 136.268053 
L 239.400651 85.868053 
L 251.773157 106.028053 
L 264.145662 95.948053 
L 276.518168 45.548053 
L 288.890674 95.948053 
L 301.263179 85.868053 
" clip-path="url(#pb6154a8d17)" style="fill: none; stroke: #000000; stroke-width: 0.886227"/>
   </g>
   <g id="matplotlib.axis_1">
    <g id="xtick_1">
     <g id="line2d_2">
      <defs>
       <path id="md93c06b948" d="M 0 0 
L 0 3.5 
" style="stroke: #000000; stroke-width: 0.8"/>
      </defs>
      <g>
       <use xlink:href="#md93c06b948" x="53.813068" y="151.388053" style="stroke: #000000; stroke-width: 0.8"/>
      </g>
     </g>
     <g id="text_1">
      <!-- 1940 -->
      <g transform="translate(42.348224 164.708365)scale(0.1 -0.1)">
       <defs>
        <path id="Montserrat-Regular-31" d="M 1114 0 
L 1114 4288 
L 1318 4070 
L 58 4070 
L 58 4480 
L 1574 4480 
L 1574 0 
L 1114 0 
z
" transform="scale(0.015625)"/>
        <path id="Montserrat-Regular-39" d="M 1728 4518 
Q 2323 4518 2732 4252 
Q 3142 3987 3353 3488 
Q 3565 2989 3565 2278 
Q 3565 1523 3305 1004 
Q 3046 486 2585 224 
Q 2125 -38 1517 -38 
Q 1216 -38 944 19 
Q 672 77 454 205 
L 640 576 
Q 813 461 1040 413 
Q 1267 365 1510 365 
Q 2234 365 2666 825 
Q 3098 1286 3098 2202 
Q 3098 2349 3082 2553 
Q 3066 2758 3008 2963 
L 3168 2842 
Q 3104 2509 2896 2275 
Q 2688 2042 2384 1920 
Q 2080 1798 1709 1798 
Q 1267 1798 924 1964 
Q 582 2131 390 2432 
Q 198 2733 198 3142 
Q 198 3565 396 3872 
Q 595 4179 944 4348 
Q 1293 4518 1728 4518 
z
M 1747 4128 
Q 1427 4128 1180 4009 
Q 934 3891 793 3673 
Q 653 3456 653 3155 
Q 653 2714 957 2451 
Q 1261 2189 1779 2189 
Q 2125 2189 2384 2317 
Q 2643 2445 2787 2669 
Q 2931 2893 2931 3168 
Q 2931 3418 2796 3635 
Q 2662 3853 2400 3990 
Q 2138 4128 1747 4128 
z
" transform="scale(0.015625)"/>
        <path id="Montserrat-Regular-34" d="M 256 1178 
L 256 1510 
L 2630 4480 
L 3142 4480 
L 787 1510 
L 538 1587 
L 4141 1587 
L 4141 1178 
L 256 1178 
z
M 2784 0 
L 2784 1178 
L 2797 1587 
L 2797 2624 
L 3245 2624 
L 3245 0 
L 2784 0 
z
" transform="scale(0.015625)"/>
        <path id="Montserrat-Regular-30" d="M 2118 -38 
Q 1600 -38 1197 234 
Q 794 506 563 1014 
Q 333 1523 333 2240 
Q 333 2957 563 3465 
Q 794 3974 1197 4246 
Q 1600 4518 2118 4518 
Q 2637 4518 3040 4246 
Q 3443 3974 3676 3465 
Q 3910 2957 3910 2240 
Q 3910 1523 3676 1014 
Q 3443 506 3040 234 
Q 2637 -38 2118 -38 
z
M 2118 384 
Q 2515 384 2809 598 
Q 3104 813 3270 1225 
Q 3437 1638 3437 2240 
Q 3437 2842 3270 3254 
Q 3104 3667 2809 3881 
Q 2515 4096 2118 4096 
Q 1734 4096 1433 3881 
Q 1133 3667 966 3254 
Q 800 2842 800 2240 
Q 800 1638 966 1225 
Q 1133 813 1433 598 
Q 1734 384 2118 384 
z
" transform="scale(0.015625)"/>
       </defs>
       <use xlink:href="#Montserrat-Regular-31"/>
       <use xlink:href="#Montserrat-Regular-39" x="36.099991"/>
       <use xlink:href="#Montserrat-Regular-34" x="96.999985"/>
       <use xlink:href="#Montserrat-Regular-30" x="163.099976"/>
      </g>
     </g>
    </g>
    <g id="xtick_2">
     <g id="line2d_3">
      <g>
       <use xlink:href="#md93c06b948" x="115.675596" y="151.388053" style="stroke: #000000; stroke-width: 0.8"/>
      </g>
     </g>
     <g id="text_2">
      <!-- 1960 -->
      <g transform="translate(104.470127 164.708365)scale(0.1 -0.1)">
       <defs>
        <path id="Montserrat-Regular-36" d="M 2170 -38 
Q 1574 -38 1164 227 
Q 755 493 544 995 
Q 333 1498 333 2202 
Q 333 2963 592 3478 
Q 851 3994 1312 4256 
Q 1773 4518 2381 4518 
Q 2682 4518 2957 4460 
Q 3232 4403 3443 4275 
L 3258 3904 
Q 3085 4019 2861 4067 
Q 2637 4115 2387 4115 
Q 1664 4115 1232 3654 
Q 800 3194 800 2278 
Q 800 2138 816 1930 
Q 832 1722 890 1517 
L 730 1638 
Q 800 1971 1005 2204 
Q 1210 2438 1517 2560 
Q 1824 2682 2189 2682 
Q 2637 2682 2976 2515 
Q 3315 2349 3507 2048 
Q 3699 1747 3699 1338 
Q 3699 922 3500 611 
Q 3302 301 2953 131 
Q 2605 -38 2170 -38 
z
M 2150 352 
Q 2470 352 2716 470 
Q 2963 589 3104 809 
Q 3245 1030 3245 1325 
Q 3245 1766 2941 2028 
Q 2637 2291 2118 2291 
Q 1773 2291 1517 2163 
Q 1261 2035 1113 1814 
Q 966 1594 966 1312 
Q 966 1069 1100 848 
Q 1235 627 1500 489 
Q 1766 352 2150 352 
z
" transform="scale(0.015625)"/>
       </defs>
       <use xlink:href="#Montserrat-Regular-31"/>
       <use xlink:href="#Montserrat-Regular-39" x="36.099991"/>
       <use xlink:href="#Montserrat-Regular-36" x="96.999985"/>
       <use xlink:href="#Montserrat-Regular-30" x="157.899979"/>
      </g>
     </g>
    </g>
    <g id="xtick_3">
     <g id="line2d_4">
      <g>
       <use xlink:href="#md93c06b948" x="177.538124" y="151.388053" style="stroke: #000000; stroke-width: 0.8"/>
      </g>
     </g>
     <g id="text_3">
      <!-- 1980 -->
      <g transform="translate(166.188124 164.708365)scale(0.1 -0.1)">
       <defs>
        <path id="Montserrat-Regular-38" d="M 2035 -38 
Q 1498 -38 1110 115 
Q 723 269 515 560 
Q 307 851 307 1248 
Q 307 1632 508 1904 
Q 710 2176 1097 2323 
Q 1485 2470 2035 2470 
Q 2579 2470 2969 2323 
Q 3360 2176 3568 1904 
Q 3776 1632 3776 1248 
Q 3776 851 3565 560 
Q 3354 269 2963 115 
Q 2573 -38 2035 -38 
z
M 2035 352 
Q 2630 352 2966 595 
Q 3302 838 3302 1254 
Q 3302 1670 2966 1910 
Q 2630 2150 2035 2150 
Q 1440 2150 1107 1910 
Q 774 1670 774 1254 
Q 774 838 1107 595 
Q 1440 352 2035 352 
z
M 2035 2208 
Q 1536 2208 1187 2342 
Q 838 2477 652 2729 
Q 467 2982 467 3334 
Q 467 3706 662 3971 
Q 858 4237 1210 4377 
Q 1562 4518 2035 4518 
Q 2509 4518 2864 4377 
Q 3219 4237 3417 3971 
Q 3616 3706 3616 3334 
Q 3616 2982 3430 2729 
Q 3245 2477 2889 2342 
Q 2534 2208 2035 2208 
z
M 2035 2515 
Q 2560 2515 2854 2732 
Q 3149 2950 3149 3315 
Q 3149 3699 2845 3913 
Q 2541 4128 2035 4128 
Q 1530 4128 1229 3913 
Q 928 3699 928 3322 
Q 928 2950 1219 2732 
Q 1510 2515 2035 2515 
z
" transform="scale(0.015625)"/>
       </defs>
       <use xlink:href="#Montserrat-Regular-31"/>
       <use xlink:href="#Montserrat-Regular-39" x="36.099991"/>
       <use xlink:href="#Montserrat-Regular-38" x="96.999985"/>
       <use xlink:href="#Montserrat-Regular-30" x="160.799973"/>
      </g>
     </g>
    </g>
    <g id="xtick_4">
     <g id="line2d_5">
      <g>
       <use xlink:href="#md93c06b948" x="239.400651" y="151.388053" style="stroke: #000000; stroke-width: 0.8"/>
      </g>
     </g>
     <g id="text_4">
      <!-- 2000 -->
      <g transform="translate(226.630339 164.708365)scale(0.1 -0.1)">
       <defs>
        <path id="Montserrat-Regular-32" d="M 250 0 
L 250 326 
L 2112 2150 
Q 2368 2400 2496 2589 
Q 2624 2778 2669 2944 
Q 2714 3110 2714 3258 
Q 2714 3648 2448 3872 
Q 2182 4096 1664 4096 
Q 1267 4096 963 3974 
Q 659 3853 442 3597 
L 115 3878 
Q 378 4186 787 4352 
Q 1197 4518 1702 4518 
Q 2157 4518 2489 4374 
Q 2822 4230 3004 3955 
Q 3187 3680 3187 3309 
Q 3187 3091 3126 2880 
Q 3066 2669 2909 2435 
Q 2752 2202 2451 1907 
L 742 230 
L 614 410 
L 3392 410 
L 3392 0 
L 250 0 
z
" transform="scale(0.015625)"/>
       </defs>
       <use xlink:href="#Montserrat-Regular-32"/>
       <use xlink:href="#Montserrat-Regular-30" x="56.799988"/>
       <use xlink:href="#Montserrat-Regular-30" x="122.999985"/>
       <use xlink:href="#Montserrat-Regular-30" x="189.199982"/>
      </g>
     </g>
    </g>
    <g id="xtick_5">
     <g id="line2d_6">
      <g>
       <use xlink:href="#md93c06b948" x="301.263179" y="151.388053" style="stroke: #000000; stroke-width: 0.8"/>
      </g>
     </g>
     <g id="text_5">
      <!-- 2020 -->
      <g transform="translate(288.963179 164.708365)scale(0.1 -0.1)">
       <use xlink:href="#Montserrat-Regular-32"/>
       <use xlink:href="#Montserrat-Regular-30" x="56.799988"/>
       <use xlink:href="#Montserrat-Regular-32" x="122.999985"/>
       <use xlink:href="#Montserrat-Regular-30" x="179.799973"/>
      </g>
     </g>
    </g>
    <g id="xtick_6">
     <g id="line2d_7">
      <defs>
       <path id="m7514e2d3f3" d="M 0 0 
L 0 2 
" style="stroke: #000000; stroke-width: 0.6"/>
      </defs>
      <g>
       <use xlink:href="#m7514e2d3f3" x="84.744332" y="151.388053" style="stroke: #000000; stroke-width: 0.6"/>
      </g>
     </g>
    </g>
    <g id="xtick_7">
     <g id="line2d_8">
      <g>
       <use xlink:href="#m7514e2d3f3" x="146.60686" y="151.388053" style="stroke: #000000; stroke-width: 0.6"/>
      </g>
     </g>
    </g>
    <g id="xtick_8">
     <g id="line2d_9">
      <g>
       <use xlink:href="#m7514e2d3f3" x="208.469387" y="151.388053" style="stroke: #000000; stroke-width: 0.6"/>
      </g>
     </g>
    </g>
    <g id="xtick_9">
     <g id="line2d_10">
      <g>
       <use xlink:href="#m7514e2d3f3" x="270.331915" y="151.388053" style="stroke: #000000; stroke-width: 0.6"/>
      </g>
     </g>
    </g>
    <g id="text_6">
     <!-- year -->
     <g transform="translate(165.446094 179.019303)scale(0.1 -0.1)">
      <defs>
       <path id="Montserrat-Regular-79" d="M 659 -1274 
Q 422 -1274 208 -1197 
Q -6 -1120 -160 -966 
L 51 -627 
Q 179 -749 329 -816 
Q 480 -883 666 -883 
Q 890 -883 1053 -758 
Q 1216 -634 1363 -320 
L 1581 173 
L 1632 243 
L 3014 3360 
L 3462 3360 
L 1779 -403 
Q 1638 -730 1468 -922 
Q 1299 -1114 1100 -1194 
Q 902 -1274 659 -1274 
z
M 1555 -96 
L 6 3360 
L 480 3360 
L 1850 275 
L 1555 -96 
z
" transform="scale(0.015625)"/>
       <path id="Montserrat-Regular-65" d="M 2061 -32 
Q 1536 -32 1139 189 
Q 742 410 518 797 
Q 294 1184 294 1683 
Q 294 2182 508 2566 
Q 723 2950 1097 3171 
Q 1472 3392 1939 3392 
Q 2413 3392 2781 3177 
Q 3149 2963 3360 2576 
Q 3571 2189 3571 1683 
Q 3571 1651 3568 1616 
Q 3565 1581 3565 1542 
L 640 1542 
L 640 1882 
L 3322 1882 
L 3142 1747 
Q 3142 2112 2985 2397 
Q 2829 2682 2560 2842 
Q 2291 3002 1939 3002 
Q 1594 3002 1318 2842 
Q 1043 2682 889 2394 
Q 736 2106 736 1734 
L 736 1664 
Q 736 1280 905 989 
Q 1075 698 1379 534 
Q 1683 371 2074 371 
Q 2381 371 2646 480 
Q 2912 589 3104 813 
L 3360 518 
Q 3136 250 2800 109 
Q 2464 -32 2061 -32 
z
" transform="scale(0.015625)"/>
       <path id="Montserrat-Regular-61" d="M 2739 0 
L 2739 742 
L 2720 864 
L 2720 2106 
Q 2720 2534 2480 2764 
Q 2240 2995 1766 2995 
Q 1440 2995 1145 2886 
Q 851 2778 646 2598 
L 442 2938 
Q 698 3155 1056 3273 
Q 1414 3392 1811 3392 
Q 2464 3392 2819 3069 
Q 3174 2746 3174 2086 
L 3174 0 
L 2739 0 
z
M 1581 -32 
Q 1203 -32 924 93 
Q 646 218 499 438 
Q 352 659 352 947 
Q 352 1210 477 1424 
Q 602 1638 886 1769 
Q 1171 1901 1651 1901 
L 2810 1901 
L 2810 1562 
L 1664 1562 
Q 1178 1562 989 1389 
Q 800 1216 800 960 
Q 800 672 1024 499 
Q 1248 326 1651 326 
Q 2035 326 2313 502 
Q 2592 678 2720 1011 
L 2822 698 
Q 2694 365 2377 166 
Q 2061 -32 1581 -32 
z
" transform="scale(0.015625)"/>
       <path id="Montserrat-Regular-72" d="M 634 0 
L 634 3360 
L 1069 3360 
L 1069 2445 
L 1024 2605 
Q 1165 2989 1497 3190 
Q 1830 3392 2323 3392 
L 2323 2950 
Q 2298 2950 2272 2953 
Q 2246 2957 2221 2957 
Q 1690 2957 1389 2633 
Q 1088 2310 1088 1715 
L 1088 0 
L 634 0 
z
" transform="scale(0.015625)"/>
      </defs>
      <use xlink:href="#Montserrat-Regular-79"/>
      <use xlink:href="#Montserrat-Regular-65" x="54.199997"/>
      <use xlink:href="#Montserrat-Regular-61" x="114.599991"/>
      <use xlink:href="#Montserrat-Regular-72" x="173.599976"/>
     </g>
    </g>
   </g>
   <g id="matplotlib.axis_2">
    <g id="ytick_1">
     <g id="line2d_11">
      <defs>
       <path id="m405041cc3b" d="M 0 0 
L -3.5 0 
" style="stroke: #000000; stroke-width: 0.8"/>
      </defs>
      <g>
       <use xlink:href="#m405041cc3b" x="41.13125" y="146.348053" style="stroke: #000000; stroke-width: 0.8"/>
      </g>
     </g>
     <g id="text_7">
      <!-- 0 -->
      <g transform="translate(28.610938 150.058209)scale(0.1 -0.1)">
       <use xlink:href="#Montserrat-Regular-30"/>
      </g>
     </g>
    </g>
    <g id="ytick_2">
     <g id="line2d_12">
      <g>
       <use xlink:href="#m405041cc3b" x="41.13125" y="121.148053" style="stroke: #000000; stroke-width: 0.8"/>
      </g>
     </g>
     <g id="text_8">
      <!-- 2.5 -->
      <g transform="translate(21.771875 124.858209)scale(0.1 -0.1)">
       <defs>
        <path id="Montserrat-Regular-2e" d="M 678 -32 
Q 538 -32 438 70 
Q 339 173 339 320 
Q 339 474 438 570 
Q 538 666 678 666 
Q 819 666 918 570 
Q 1018 474 1018 320 
Q 1018 173 918 70 
Q 819 -32 678 -32 
z
" transform="scale(0.015625)"/>
        <path id="Montserrat-Regular-35" d="M 1747 -38 
Q 1267 -38 832 118 
Q 397 275 141 538 
L 365 902 
Q 576 678 944 531 
Q 1312 384 1741 384 
Q 2310 384 2608 637 
Q 2906 890 2906 1299 
Q 2906 1587 2768 1795 
Q 2630 2003 2304 2118 
Q 1978 2234 1408 2234 
L 454 2234 
L 685 4480 
L 3136 4480 
L 3136 4070 
L 870 4070 
L 1107 4294 
L 909 2413 
L 672 2643 
L 1510 2643 
Q 2189 2643 2598 2476 
Q 3008 2310 3190 2012 
Q 3373 1715 3373 1318 
Q 3373 941 3193 630 
Q 3014 320 2656 141 
Q 2298 -38 1747 -38 
z
" transform="scale(0.015625)"/>
       </defs>
       <use xlink:href="#Montserrat-Regular-32"/>
       <use xlink:href="#Montserrat-Regular-2e" x="56.799988"/>
       <use xlink:href="#Montserrat-Regular-35" x="77.999985"/>
      </g>
     </g>
    </g>
    <g id="ytick_3">
     <g id="line2d_13">
      <g>
       <use xlink:href="#m405041cc3b" x="41.13125" y="95.948053" style="stroke: #000000; stroke-width: 0.8"/>
      </g>
     </g>
     <g id="text_9">
      <!-- 5 -->
      <g transform="translate(29.571875 99.658209)scale(0.1 -0.1)">
       <use xlink:href="#Montserrat-Regular-35"/>
      </g>
     </g>
    </g>
    <g id="ytick_4">
     <g id="line2d_14">
      <g>
       <use xlink:href="#m405041cc3b" x="41.13125" y="70.748053" style="stroke: #000000; stroke-width: 0.8"/>
      </g>
     </g>
     <g id="text_10">
      <!-- 7.5 -->
      <g transform="translate(21.560938 74.458209)scale(0.1 -0.1)">
       <defs>
        <path id="Montserrat-Regular-37" d="M 1120 0 
L 3053 4275 
L 3194 4070 
L 422 4070 
L 659 4294 
L 659 3232 
L 205 3232 
L 205 4480 
L 3494 4480 
L 3494 4154 
L 1619 0 
L 1120 0 
z
" transform="scale(0.015625)"/>
       </defs>
       <use xlink:href="#Montserrat-Regular-37"/>
       <use xlink:href="#Montserrat-Regular-2e" x="58.899994"/>
       <use xlink:href="#Montserrat-Regular-35" x="80.099991"/>
      </g>
     </g>
    </g>
    <g id="ytick_5">
     <g id="line2d_15">
      <g>
       <use xlink:href="#m405041cc3b" x="41.13125" y="45.548053" style="stroke: #000000; stroke-width: 0.8"/>
      </g>
     </g>
     <g id="text_11">
      <!-- 10 -->
      <g transform="translate(25.001563 49.258209)scale(0.1 -0.1)">
       <use xlink:href="#Montserrat-Regular-31"/>
       <use xlink:href="#Montserrat-Regular-30" x="36.099991"/>
      </g>
     </g>
    </g>
    <g id="ytick_6">
     <g id="line2d_16">
      <defs>
       <path id="m3ec5969afc" d="M 0 0 
L -2 0 
" style="stroke: #000000; stroke-width: 0.6"/>
      </defs>
      <g>
       <use xlink:href="#m3ec5969afc" x="41.13125" y="133.748053" style="stroke: #000000; stroke-width: 0.6"/>
      </g>
     </g>
    </g>
    <g id="ytick_7">
     <g id="line2d_17">
      <g>
       <use xlink:href="#m3ec5969afc" x="41.13125" y="108.548053" style="stroke: #000000; stroke-width: 0.6"/>
      </g>
     </g>
    </g>
    <g id="ytick_8">
     <g id="line2d_18">
      <g>
       <use xlink:href="#m3ec5969afc" x="41.13125" y="83.348053" style="stroke: #000000; stroke-width: 0.6"/>
      </g>
     </g>
    </g>
    <g id="ytick_9">
     <g id="line2d_19">
      <g>
       <use xlink:href="#m3ec5969afc" x="41.13125" y="58.148053" style="stroke: #000000; stroke-width: 0.6"/>
      </g>
     </g>
    </g>
    <g id="text_12">
     <!-- medals -->
     <g transform="translate(14.620313 113.678053)rotate(-90)scale(0.1 -0.1)">
      <defs>
       <path id="Montserrat-Regular-6d" d="M 4832 3392 
Q 5242 3392 5546 3235 
Q 5850 3078 6019 2758 
Q 6189 2438 6189 1952 
L 6189 0 
L 5734 0 
L 5734 1907 
Q 5734 2438 5481 2710 
Q 5229 2982 4768 2982 
Q 4422 2982 4169 2838 
Q 3917 2694 3779 2422 
Q 3642 2150 3642 1766 
L 3642 0 
L 3187 0 
L 3187 1907 
Q 3187 2438 2931 2710 
Q 2675 2982 2214 2982 
Q 1875 2982 1619 2838 
Q 1363 2694 1225 2422 
Q 1088 2150 1088 1766 
L 1088 0 
L 634 0 
L 634 3360 
L 1069 3360 
L 1069 2451 
L 998 2611 
Q 1152 2976 1494 3184 
Q 1837 3392 2304 3392 
Q 2797 3392 3142 3145 
Q 3488 2899 3590 2406 
L 3411 2477 
Q 3558 2886 3932 3139 
Q 4307 3392 4832 3392 
z
" transform="scale(0.015625)"/>
       <path id="Montserrat-Regular-64" d="M 1971 -32 
Q 1491 -32 1110 185 
Q 730 403 512 790 
Q 294 1178 294 1683 
Q 294 2195 512 2579 
Q 730 2963 1110 3177 
Q 1491 3392 1971 3392 
Q 2413 3392 2761 3193 
Q 3110 2995 3318 2614 
Q 3526 2234 3526 1683 
Q 3526 1139 3321 755 
Q 3117 371 2768 169 
Q 2419 -32 1971 -32 
z
M 2003 371 
Q 2362 371 2646 534 
Q 2931 698 3094 995 
Q 3258 1293 3258 1683 
Q 3258 2080 3094 2374 
Q 2931 2669 2646 2832 
Q 2362 2995 2003 2995 
Q 1651 2995 1369 2832 
Q 1088 2669 921 2374 
Q 755 2080 755 1683 
Q 755 1293 921 995 
Q 1088 698 1369 534 
Q 1651 371 2003 371 
z
M 3270 0 
L 3270 1011 
L 3315 1690 
L 3251 2368 
L 3251 4749 
L 3706 4749 
L 3706 0 
L 3270 0 
z
" transform="scale(0.015625)"/>
       <path id="Montserrat-Regular-6c" d="M 634 0 
L 634 4749 
L 1088 4749 
L 1088 0 
L 634 0 
z
" transform="scale(0.015625)"/>
       <path id="Montserrat-Regular-73" d="M 1536 -32 
Q 1120 -32 749 86 
Q 378 205 166 384 
L 371 742 
Q 576 589 896 477 
Q 1216 365 1568 365 
Q 2048 365 2259 515 
Q 2470 666 2470 915 
Q 2470 1101 2352 1206 
Q 2234 1312 2042 1366 
Q 1850 1421 1613 1459 
Q 1376 1498 1142 1549 
Q 909 1600 717 1699 
Q 525 1798 406 1971 
Q 288 2144 288 2432 
Q 288 2707 441 2924 
Q 595 3142 892 3267 
Q 1190 3392 1619 3392 
Q 1946 3392 2272 3305 
Q 2598 3219 2810 3078 
L 2611 2714 
Q 2387 2867 2131 2934 
Q 1875 3002 1619 3002 
Q 1165 3002 950 2845 
Q 736 2688 736 2445 
Q 736 2253 854 2144 
Q 973 2035 1168 1974 
Q 1363 1914 1596 1875 
Q 1830 1837 2064 1782 
Q 2298 1728 2493 1635 
Q 2688 1542 2806 1372 
Q 2925 1203 2925 928 
Q 2925 634 2761 419 
Q 2598 205 2288 86 
Q 1978 -32 1536 -32 
z
" transform="scale(0.015625)"/>
      </defs>
      <use xlink:href="#Montserrat-Regular-6d"/>
      <use xlink:href="#Montserrat-Regular-65" x="106.099991"/>
      <use xlink:href="#Montserrat-Regular-64" x="166.499985"/>
      <use xlink:href="#Montserrat-Regular-61" x="234.299973"/>
      <use xlink:href="#Montserrat-Regular-6c" x="293.299957"/>
      <use xlink:href="#Montserrat-Regular-73" x="320.199951"/>
     </g>
    </g>
   </g>
   <g id="PathCollection_1">
    <path d="M 78.558079 96.612723 
C 78.734352 96.612723 78.903429 96.542689 79.028072 96.418046 
C 79.152716 96.293402 79.222749 96.124325 79.222749 95.948053 
C 79.222749 95.77178 79.152716 95.602704 79.028072 95.47806 
C 78.903429 95.353416 78.734352 95.283383 78.558079 95.283383 
C 78.381807 95.283383 78.21273 95.353416 78.088086 95.47806 
C 77.963443 95.602704 77.893409 95.77178 77.893409 95.948053 
C 77.893409 96.124325 77.963443 96.293402 78.088086 96.418046 
C 78.21273 96.542689 78.381807 96.612723 78.558079 96.612723 
z
" clip-path="url(#pb6154a8d17)" style="fill-opacity: 0.501961; stroke: #000000; stroke-opacity: 0.501961; stroke-width: 0.886227"/>
    <path d="M 90.930585 136.932723 
C 91.106857 136.932723 91.275934 136.862689 91.400578 136.738046 
C 91.525221 136.613402 91.595255 136.444325 91.595255 136.268053 
C 91.595255 136.09178 91.525221 135.922704 91.400578 135.79806 
C 91.275934 135.673416 91.106857 135.603383 90.930585 135.603383 
C 90.754312 135.603383 90.585236 135.673416 90.460592 135.79806 
C 90.335948 135.922704 90.265915 136.09178 90.265915 136.268053 
C 90.265915 136.444325 90.335948 136.613402 90.460592 136.738046 
C 90.585236 136.862689 90.754312 136.932723 90.930585 136.932723 
z
" clip-path="url(#pb6154a8d17)" style="fill-opacity: 0.501961; stroke: #000000; stroke-opacity: 0.501961; stroke-width: 0.886227"/>
    <path d="M 103.30309 126.852723 
C 103.479363 126.852723 103.64844 126.782689 103.773083 126.658046 
C 103.897727 126.533402 103.967761 126.364325 103.967761 126.188053 
C 103.967761 126.01178 103.897727 125.842704 103.773083 125.71806 
C 103.64844 125.593416 103.479363 125.523383 103.30309 125.523383 
C 103.126818 125.523383 102.957741 125.593416 102.833098 125.71806 
C 102.708454 125.842704 102.63842 126.01178 102.63842 126.188053 
C 102.63842 126.364325 102.708454 126.533402 102.833098 126.658046 
C 102.957741 126.782689 103.126818 126.852723 103.30309 126.852723 
z
" clip-path="url(#pb6154a8d17)" style="fill-opacity: 0.501961; stroke: #000000; stroke-opacity: 0.501961; stroke-width: 0.886227"/>
    <path d="M 115.675596 136.932723 
C 115.851868 136.932723 116.020945 136.862689 116.145589 136.738046 
C 116.270232 136.613402 116.340266 136.444325 116.340266 136.268053 
C 116.340266 136.09178 116.270232 135.922704 116.145589 135.79806 
C 116.020945 135.673416 115.851868 135.603383 115.675596 135.603383 
C 115.499323 135.603383 115.330247 135.673416 115.205603 135.79806 
C 115.08096 135.922704 115.010926 136.09178 115.010926 136.268053 
C 115.010926 136.444325 115.08096 136.613402 115.205603 136.738046 
C 115.330247 136.862689 115.499323 136.932723 115.675596 136.932723 
z
" clip-path="url(#pb6154a8d17)" style="fill-opacity: 0.501961; stroke: #000000; stroke-opacity: 0.501961; stroke-width: 0.886227"/>
    <path d="M 128.048101 136.932723 
C 128.224374 136.932723 128.393451 136.862689 128.518094 136.738046 
C 128.642738 136.613402 128.712772 136.444325 128.712772 136.268053 
C 128.712772 136.09178 128.642738 135.922704 128.518094 135.79806 
C 128.393451 135.673416 128.224374 135.603383 128.048101 135.603383 
C 127.871829 135.603383 127.702752 135.673416 127.578109 135.79806 
C 127.453465 135.922704 127.383431 136.09178 127.383431 136.268053 
C 127.383431 136.444325 127.453465 136.613402 127.578109 136.738046 
C 127.702752 136.862689 127.871829 136.932723 128.048101 136.932723 
z
" clip-path="url(#pb6154a8d17)" style="fill-opacity: 0.501961; stroke: #000000; stroke-opacity: 0.501961; stroke-width: 0.886227"/>
    <path d="M 140.420607 56.292723 
C 140.59688 56.292723 140.765956 56.222689 140.8906 56.098046 
C 141.015243 55.973402 141.085277 55.804325 141.085277 55.628053 
C 141.085277 55.45178 141.015243 55.282704 140.8906 55.15806 
C 140.765956 55.033416 140.59688 54.963383 140.420607 54.963383 
C 140.244334 54.963383 140.075258 55.033416 139.950614 55.15806 
C 139.825971 55.282704 139.755937 55.45178 139.755937 55.628053 
C 139.755937 55.804325 139.825971 55.973402 139.950614 56.098046 
C 140.075258 56.222689 140.244334 56.292723 140.420607 56.292723 
z
" clip-path="url(#pb6154a8d17)" style="fill-opacity: 0.501961; stroke: #000000; stroke-opacity: 0.501961; stroke-width: 0.886227"/>
    <path d="M 152.793113 136.932723 
C 152.969385 136.932723 153.138462 136.862689 153.263105 136.738046 
C 153.387749 136.613402 153.457783 136.444325 153.457783 136.268053 
C 153.457783 136.09178 153.387749 135.922704 153.263105 135.79806 
C 153.138462 135.673416 152.969385 135.603383 152.793113 135.603383 
C 152.61684 135.603383 152.447763 135.673416 152.32312 135.79806 
C 152.198476 135.922704 152.128442 136.09178 152.128442 136.268053 
C 152.128442 136.444325 152.198476 136.613402 152.32312 136.738046 
C 152.447763 136.862689 152.61684 136.932723 152.793113 136.932723 
z
" clip-path="url(#pb6154a8d17)" style="fill-opacity: 0.501961; stroke: #000000; stroke-opacity: 0.501961; stroke-width: 0.886227"/>
    <path d="M 165.165618 126.852723 
C 165.341891 126.852723 165.510967 126.782689 165.635611 126.658046 
C 165.760254 126.533402 165.830288 126.364325 165.830288 126.188053 
C 165.830288 126.01178 165.760254 125.842704 165.635611 125.71806 
C 165.510967 125.593416 165.341891 125.523383 165.165618 125.523383 
C 164.989345 125.523383 164.820269 125.593416 164.695625 125.71806 
C 164.570982 125.842704 164.500948 126.01178 164.500948 126.188053 
C 164.500948 126.364325 164.570982 126.533402 164.695625 126.658046 
C 164.820269 126.782689 164.989345 126.852723 165.165618 126.852723 
z
" clip-path="url(#pb6154a8d17)" style="fill-opacity: 0.501961; stroke: #000000; stroke-opacity: 0.501961; stroke-width: 0.886227"/>
    <path d="M 177.538124 106.692723 
C 177.714396 106.692723 177.883473 106.622689 178.008116 106.498046 
C 178.13276 106.373402 178.202794 106.204325 178.202794 106.028053 
C 178.202794 105.85178 178.13276 105.682704 178.008116 105.55806 
C 177.883473 105.433416 177.714396 105.363383 177.538124 105.363383 
C 177.361851 105.363383 177.192774 105.433416 177.068131 105.55806 
C 176.943487 105.682704 176.873453 105.85178 176.873453 106.028053 
C 176.873453 106.204325 176.943487 106.373402 177.068131 106.498046 
C 177.192774 106.622689 177.361851 106.692723 177.538124 106.692723 
z
" clip-path="url(#pb6154a8d17)" style="fill-opacity: 0.501961; stroke: #000000; stroke-opacity: 0.501961; stroke-width: 0.886227"/>
    <path d="M 189.910629 86.532723 
C 190.086902 86.532723 190.255978 86.462689 190.380622 86.338046 
C 190.505266 86.213402 190.575299 86.044325 190.575299 85.868053 
C 190.575299 85.69178 190.505266 85.522704 190.380622 85.39806 
C 190.255978 85.273416 190.086902 85.203383 189.910629 85.203383 
C 189.734357 85.203383 189.56528 85.273416 189.440636 85.39806 
C 189.315993 85.522704 189.245959 85.69178 189.245959 85.868053 
C 189.245959 86.044325 189.315993 86.213402 189.440636 86.338046 
C 189.56528 86.462689 189.734357 86.532723 189.910629 86.532723 
z
" clip-path="url(#pb6154a8d17)" style="fill-opacity: 0.501961; stroke: #000000; stroke-opacity: 0.501961; stroke-width: 0.886227"/>
    <path d="M 202.283135 126.852723 
C 202.459407 126.852723 202.628484 126.782689 202.753128 126.658046 
C 202.877771 126.533402 202.947805 126.364325 202.947805 126.188053 
C 202.947805 126.01178 202.877771 125.842704 202.753128 125.71806 
C 202.628484 125.593416 202.459407 125.523383 202.283135 125.523383 
C 202.106862 125.523383 201.937785 125.593416 201.813142 125.71806 
C 201.688498 125.842704 201.618465 126.01178 201.618465 126.188053 
C 201.618465 126.364325 201.688498 126.533402 201.813142 126.658046 
C 201.937785 126.782689 202.106862 126.852723 202.283135 126.852723 
z
" clip-path="url(#pb6154a8d17)" style="fill-opacity: 0.501961; stroke: #000000; stroke-opacity: 0.501961; stroke-width: 0.886227"/>
    <path d="M 214.65564 136.932723 
C 214.831913 136.932723 215.000989 136.862689 215.125633 136.738046 
C 215.250277 136.613402 215.32031 136.444325 215.32031 136.268053 
C 215.32031 136.09178 215.250277 135.922704 215.125633 135.79806 
C 215.000989 135.673416 214.831913 135.603383 214.65564 135.603383 
C 214.479368 135.603383 214.310291 135.673416 214.185647 135.79806 
C 214.061004 135.922704 213.99097 136.09178 213.99097 136.268053 
C 213.99097 136.444325 214.061004 136.613402 214.185647 136.738046 
C 214.310291 136.862689 214.479368 136.932723 214.65564 136.932723 
z
" clip-path="url(#pb6154a8d17)" style="fill-opacity: 0.501961; stroke: #000000; stroke-opacity: 0.501961; stroke-width: 0.886227"/>
    <path d="M 227.028146 136.932723 
C 227.204418 136.932723 227.373495 136.862689 227.498139 136.738046 
C 227.622782 136.613402 227.692816 136.444325 227.692816 136.268053 
C 227.692816 136.09178 227.622782 135.922704 227.498139 135.79806 
C 227.373495 135.673416 227.204418 135.603383 227.028146 135.603383 
C 226.851873 135.603383 226.682797 135.673416 226.558153 135.79806 
C 226.433509 135.922704 226.363476 136.09178 226.363476 136.268053 
C 226.363476 136.444325 226.433509 136.613402 226.558153 136.738046 
C 226.682797 136.862689 226.851873 136.932723 227.028146 136.932723 
z
" clip-path="url(#pb6154a8d17)" style="fill-opacity: 0.501961; stroke: #000000; stroke-opacity: 0.501961; stroke-width: 0.886227"/>
    <path d="M 239.400651 86.532723 
C 239.576924 86.532723 239.746001 86.462689 239.870644 86.338046 
C 239.995288 86.213402 240.065322 86.044325 240.065322 85.868053 
C 240.065322 85.69178 239.995288 85.522704 239.870644 85.39806 
C 239.746001 85.273416 239.576924 85.203383 239.400651 85.203383 
C 239.224379 85.203383 239.055302 85.273416 238.930659 85.39806 
C 238.806015 85.522704 238.735981 85.69178 238.735981 85.868053 
C 238.735981 86.044325 238.806015 86.213402 238.930659 86.338046 
C 239.055302 86.462689 239.224379 86.532723 239.400651 86.532723 
z
" clip-path="url(#pb6154a8d17)" style="fill-opacity: 0.501961; stroke: #000000; stroke-opacity: 0.501961; stroke-width: 0.886227"/>
    <path d="M 251.773157 106.692723 
C 251.949429 106.692723 252.118506 106.622689 252.24315 106.498046 
C 252.367793 106.373402 252.437827 106.204325 252.437827 106.028053 
C 252.437827 105.85178 252.367793 105.682704 252.24315 105.55806 
C 252.118506 105.433416 251.949429 105.363383 251.773157 105.363383 
C 251.596884 105.363383 251.427808 105.433416 251.303164 105.55806 
C 251.178521 105.682704 251.108487 105.85178 251.108487 106.028053 
C 251.108487 106.204325 251.178521 106.373402 251.303164 106.498046 
C 251.427808 106.622689 251.596884 106.692723 251.773157 106.692723 
z
" clip-path="url(#pb6154a8d17)" style="fill-opacity: 0.501961; stroke: #000000; stroke-opacity: 0.501961; stroke-width: 0.886227"/>
    <path d="M 264.145662 96.612723 
C 264.321935 96.612723 264.491012 96.542689 264.615655 96.418046 
C 264.740299 96.293402 264.810333 96.124325 264.810333 95.948053 
C 264.810333 95.77178 264.740299 95.602704 264.615655 95.47806 
C 264.491012 95.353416 264.321935 95.283383 264.145662 95.283383 
C 263.96939 95.283383 263.800313 95.353416 263.67567 95.47806 
C 263.551026 95.602704 263.480992 95.77178 263.480992 95.948053 
C 263.480992 96.124325 263.551026 96.293402 263.67567 96.418046 
C 263.800313 96.542689 263.96939 96.612723 264.145662 96.612723 
z
" clip-path="url(#pb6154a8d17)" style="fill-opacity: 0.501961; stroke: #000000; stroke-opacity: 0.501961; stroke-width: 0.886227"/>
    <path d="M 276.518168 46.212723 
C 276.694441 46.212723 276.863517 46.142689 276.988161 46.018046 
C 277.112804 45.893402 277.182838 45.724325 277.182838 45.548053 
C 277.182838 45.37178 277.112804 45.202704 276.988161 45.07806 
C 276.863517 44.953416 276.694441 44.883383 276.518168 44.883383 
C 276.341895 44.883383 276.172819 44.953416 276.048175 45.07806 
C 275.923532 45.202704 275.853498 45.37178 275.853498 45.548053 
C 275.853498 45.724325 275.923532 45.893402 276.048175 46.018046 
C 276.172819 46.142689 276.341895 46.212723 276.518168 46.212723 
z
" clip-path="url(#pb6154a8d17)" style="fill-opacity: 0.501961; stroke: #000000; stroke-opacity: 0.501961; stroke-width: 0.886227"/>
    <path d="M 288.890674 96.612723 
C 289.066946 96.612723 289.236023 96.542689 289.360666 96.418046 
C 289.48531 96.293402 289.555344 96.124325 289.555344 95.948053 
C 289.555344 95.77178 289.48531 95.602704 289.360666 95.47806 
C 289.236023 95.353416 289.066946 95.283383 288.890674 95.283383 
C 288.714401 95.283383 288.545324 95.353416 288.420681 95.47806 
C 288.296037 95.602704 288.226003 95.77178 288.226003 95.948053 
C 288.226003 96.124325 288.296037 96.293402 288.420681 96.418046 
C 288.545324 96.542689 288.714401 96.612723 288.890674 96.612723 
z
" clip-path="url(#pb6154a8d17)" style="fill-opacity: 0.501961; stroke: #000000; stroke-opacity: 0.501961; stroke-width: 0.886227"/>
    <path d="M 301.263179 86.532723 
C 301.439452 86.532723 301.608528 86.462689 301.733172 86.338046 
C 301.857815 86.213402 301.927849 86.044325 301.927849 85.868053 
C 301.927849 85.69178 301.857815 85.522704 301.733172 85.39806 
C 301.608528 85.273416 301.439452 85.203383 301.263179 85.203383 
C 301.086906 85.203383 300.91783 85.273416 300.793186 85.39806 
C 300.668543 85.522704 300.598509 85.69178 300.598509 85.868053 
C 300.598509 86.044325 300.668543 86.213402 300.793186 86.338046 
C 300.91783 86.462689 301.086906 86.532723 301.263179 86.532723 
z
" clip-path="url(#pb6154a8d17)" style="fill-opacity: 0.501961; stroke: #000000; stroke-opacity: 0.501961; stroke-width: 0.886227"/>
   </g>
   <g id="patch_3">
    <path d="M 41.13125 40.508053 
L 320.13125 40.508053 
L 320.13125 24.508053 
L 41.13125 24.508053 
z
" style="fill: #d9d9d9; stroke: #d9d9d9; stroke-linejoin: miter"/>
   </g>
   <g id="PathCollection_2">
    <defs>
     <path id="m60ce60e6a3" d="M -2.215567 0 
L 2.215567 0 
M 0 2.215567 
L 0 -2.215567 
" style="stroke: #ff0000; stroke-width: 0.886227"/>
    </defs>
    <g clip-path="url(#pb6154a8d17)">
     <use xlink:href="#m60ce60e6a3" x="140.420607" y="55.628053" style="fill: #ff0000; stroke: #ff0000; stroke-width: 0.886227"/>
    </g>
   </g>
   <g id="text_13">
    <!-- Mexico -->
    <g transform="translate(162.870312 35.247897)scale(0.1 -0.1)">
     <defs>
      <path id="Montserrat-Regular-4d" d="M 730 0 
L 730 4480 
L 1120 4480 
L 3168 986 
L 2963 986 
L 4992 4480 
L 5382 4480 
L 5382 0 
L 4928 0 
L 4928 3770 
L 5037 3770 
L 3168 570 
L 2944 570 
L 1062 3770 
L 1184 3770 
L 1184 0 
L 730 0 
z
" transform="scale(0.015625)"/>
      <path id="Montserrat-Regular-78" d="M 122 0 
L 1542 1843 
L 1536 1619 
L 186 3360 
L 698 3360 
L 1805 1920 
L 1613 1926 
L 2720 3360 
L 3219 3360 
L 1856 1600 
L 1862 1843 
L 3296 0 
L 2778 0 
L 1606 1536 
L 1786 1510 
L 634 0 
L 122 0 
z
" transform="scale(0.015625)"/>
      <path id="Montserrat-Regular-69" d="M 634 0 
L 634 3360 
L 1088 3360 
L 1088 0 
L 634 0 
z
M 864 4102 
Q 723 4102 627 4198 
Q 531 4294 531 4429 
Q 531 4563 627 4656 
Q 723 4749 864 4749 
Q 1005 4749 1101 4659 
Q 1197 4570 1197 4435 
Q 1197 4294 1104 4198 
Q 1011 4102 864 4102 
z
" transform="scale(0.015625)"/>
      <path id="Montserrat-Regular-63" d="M 2029 -32 
Q 1530 -32 1136 189 
Q 742 410 518 797 
Q 294 1184 294 1683 
Q 294 2189 518 2573 
Q 742 2957 1136 3174 
Q 1530 3392 2029 3392 
Q 2458 3392 2803 3225 
Q 3149 3059 3347 2726 
L 3008 2496 
Q 2835 2752 2579 2873 
Q 2323 2995 2022 2995 
Q 1664 2995 1376 2832 
Q 1088 2669 921 2374 
Q 755 2080 755 1683 
Q 755 1286 921 992 
Q 1088 698 1376 534 
Q 1664 371 2022 371 
Q 2323 371 2579 492 
Q 2835 614 3008 864 
L 3347 634 
Q 3149 307 2803 137 
Q 2458 -32 2029 -32 
z
" transform="scale(0.015625)"/>
      <path id="Montserrat-Regular-6f" d="M 2003 -32 
Q 1517 -32 1129 189 
Q 742 410 518 797 
Q 294 1184 294 1683 
Q 294 2189 518 2573 
Q 742 2957 1126 3174 
Q 1510 3392 2003 3392 
Q 2502 3392 2889 3174 
Q 3277 2957 3497 2573 
Q 3718 2189 3718 1683 
Q 3718 1184 3497 797 
Q 3277 410 2886 189 
Q 2496 -32 2003 -32 
z
M 2003 371 
Q 2368 371 2649 534 
Q 2931 698 3094 995 
Q 3258 1293 3258 1683 
Q 3258 2080 3094 2374 
Q 2931 2669 2649 2832 
Q 2368 2995 2010 2995 
Q 1651 2995 1369 2832 
Q 1088 2669 921 2374 
Q 755 2080 755 1683 
Q 755 1293 921 995 
Q 1088 698 1369 534 
Q 1651 371 2003 371 
z
" transform="scale(0.015625)"/>
     </defs>
     <use xlink:href="#Montserrat-Regular-4d"/>
     <use xlink:href="#Montserrat-Regular-65" x="95.499985"/>
     <use xlink:href="#Montserrat-Regular-78" x="155.899979"/>
     <use xlink:href="#Montserrat-Regular-69" x="209.299973"/>
     <use xlink:href="#Montserrat-Regular-63" x="236.199966"/>
     <use xlink:href="#Montserrat-Regular-6f" x="292.499954"/>
    </g>
   </g>
  </g>
  <g id="text_14">
   <!-- Medals for Mexico at Summer Olympics -->
   <g transform="translate(76.469531 14.670312)scale(0.1 -0.1)">
    <defs>
     <path id="Montserrat-Regular-20" transform="scale(0.015625)"/>
     <path id="Montserrat-Regular-66" d="M 710 0 
L 710 3782 
Q 710 4230 972 4505 
Q 1235 4781 1728 4781 
Q 1920 4781 2099 4729 
Q 2278 4678 2400 4570 
L 2246 4230 
Q 2150 4314 2022 4355 
Q 1894 4397 1747 4397 
Q 1459 4397 1305 4237 
Q 1152 4077 1152 3763 
L 1152 3251 
L 1165 3040 
L 1165 0 
L 710 0 
z
M 109 2982 
L 109 3360 
L 2189 3360 
L 2189 2982 
L 109 2982 
z
" transform="scale(0.015625)"/>
     <path id="Montserrat-Regular-74" d="M 1696 -32 
Q 1222 -32 966 224 
Q 710 480 710 947 
L 710 4102 
L 1165 4102 
L 1165 973 
Q 1165 678 1315 518 
Q 1466 358 1747 358 
Q 2048 358 2246 531 
L 2406 205 
Q 2272 83 2083 25 
Q 1894 -32 1696 -32 
z
M 109 2982 
L 109 3360 
L 2189 3360 
L 2189 2982 
L 109 2982 
z
" transform="scale(0.015625)"/>
     <path id="Montserrat-Regular-53" d="M 1965 -38 
Q 1466 -38 1008 125 
Q 550 288 301 544 
L 486 909 
Q 723 678 1123 521 
Q 1523 365 1965 365 
Q 2387 365 2652 470 
Q 2918 576 3043 755 
Q 3168 934 3168 1152 
Q 3168 1414 3017 1574 
Q 2867 1734 2624 1827 
Q 2381 1920 2086 1990 
Q 1792 2061 1497 2141 
Q 1203 2221 956 2355 
Q 710 2490 560 2710 
Q 410 2931 410 3290 
Q 410 3622 586 3900 
Q 762 4179 1126 4348 
Q 1491 4518 2061 4518 
Q 2438 4518 2809 4412 
Q 3181 4307 3450 4122 
L 3290 3744 
Q 3002 3936 2678 4025 
Q 2355 4115 2054 4115 
Q 1651 4115 1388 4006 
Q 1126 3898 1001 3715 
Q 877 3533 877 3302 
Q 877 3040 1027 2880 
Q 1178 2720 1424 2630 
Q 1670 2541 1964 2470 
Q 2259 2400 2550 2317 
Q 2842 2234 3088 2102 
Q 3334 1971 3484 1753 
Q 3635 1536 3635 1184 
Q 3635 858 3456 579 
Q 3277 301 2909 131 
Q 2541 -38 1965 -38 
z
" transform="scale(0.015625)"/>
     <path id="Montserrat-Regular-75" d="M 2022 -32 
Q 1594 -32 1274 128 
Q 954 288 778 608 
Q 602 928 602 1408 
L 602 3360 
L 1056 3360 
L 1056 1459 
Q 1056 922 1321 650 
Q 1587 378 2067 378 
Q 2419 378 2678 522 
Q 2938 666 3075 941 
Q 3213 1216 3213 1600 
L 3213 3360 
L 3667 3360 
L 3667 0 
L 3232 0 
L 3232 922 
L 3302 755 
Q 3142 384 2806 176 
Q 2470 -32 2022 -32 
z
" transform="scale(0.015625)"/>
     <path id="Montserrat-Regular-4f" d="M 2688 -38 
Q 2182 -38 1750 131 
Q 1318 301 1001 611 
Q 685 922 509 1334 
Q 333 1747 333 2240 
Q 333 2733 509 3145 
Q 685 3558 1001 3868 
Q 1318 4179 1747 4348 
Q 2176 4518 2688 4518 
Q 3194 4518 3622 4348 
Q 4051 4179 4368 3872 
Q 4685 3565 4861 3149 
Q 5037 2733 5037 2240 
Q 5037 1747 4861 1331 
Q 4685 915 4368 608 
Q 4051 301 3622 131 
Q 3194 -38 2688 -38 
z
M 2688 384 
Q 3091 384 3433 521 
Q 3776 659 4029 912 
Q 4282 1165 4422 1501 
Q 4563 1837 4563 2240 
Q 4563 2643 4422 2979 
Q 4282 3315 4029 3568 
Q 3776 3821 3433 3958 
Q 3091 4096 2688 4096 
Q 2285 4096 1939 3958 
Q 1594 3821 1341 3568 
Q 1088 3315 944 2979 
Q 800 2643 800 2240 
Q 800 1843 944 1504 
Q 1088 1165 1341 912 
Q 1594 659 1939 521 
Q 2285 384 2688 384 
z
" transform="scale(0.015625)"/>
     <path id="Montserrat-Regular-70" d="M 2368 -32 
Q 1933 -32 1581 169 
Q 1229 371 1021 752 
Q 813 1133 813 1683 
Q 813 2234 1017 2614 
Q 1222 2995 1574 3193 
Q 1926 3392 2368 3392 
Q 2848 3392 3229 3177 
Q 3610 2963 3827 2576 
Q 4045 2189 4045 1683 
Q 4045 1171 3827 787 
Q 3610 403 3229 185 
Q 2848 -32 2368 -32 
z
M 634 -1242 
L 634 3360 
L 1069 3360 
L 1069 2349 
L 1024 1677 
L 1088 998 
L 1088 -1242 
L 634 -1242 
z
M 2336 371 
Q 2694 371 2976 534 
Q 3258 698 3424 995 
Q 3590 1293 3590 1683 
Q 3590 2074 3424 2368 
Q 3258 2662 2976 2828 
Q 2694 2995 2336 2995 
Q 1978 2995 1693 2828 
Q 1408 2662 1245 2368 
Q 1082 2074 1082 1683 
Q 1082 1293 1245 995 
Q 1408 698 1693 534 
Q 1978 371 2336 371 
z
" transform="scale(0.015625)"/>
    </defs>
    <use xlink:href="#Montserrat-Regular-4d"/>
    <use xlink:href="#Montserrat-Regular-65" x="95.499985"/>
    <use xlink:href="#Montserrat-Regular-64" x="155.899979"/>
    <use xlink:href="#Montserrat-Regular-61" x="223.699966"/>
    <use xlink:href="#Montserrat-Regular-6c" x="282.699951"/>
    <use xlink:href="#Montserrat-Regular-73" x="309.599945"/>
    <use xlink:href="#Montserrat-Regular-20" x="358.399933"/>
    <use xlink:href="#Montserrat-Regular-66" x="384.59993"/>
    <use xlink:href="#Montserrat-Regular-6f" x="418.499924"/>
    <use xlink:href="#Montserrat-Regular-72" x="481.199921"/>
    <use xlink:href="#Montserrat-Regular-20" x="521.299911"/>
    <use xlink:href="#Montserrat-Regular-4d" x="547.499908"/>
    <use xlink:href="#Montserrat-Regular-65" x="642.999893"/>
    <use xlink:href="#Montserrat-Regular-78" x="703.399887"/>
    <use xlink:href="#Montserrat-Regular-69" x="756.799881"/>
    <use xlink:href="#Montserrat-Regular-63" x="783.699875"/>
    <use xlink:href="#Montserrat-Regular-6f" x="839.999863"/>
    <use xlink:href="#Montserrat-Regular-20" x="902.69986"/>
    <use xlink:href="#Montserrat-Regular-61" x="928.899857"/>
    <use xlink:href="#Montserrat-Regular-74" x="987.899841"/>
    <use xlink:href="#Montserrat-Regular-20" x="1028.499832"/>
    <use xlink:href="#Montserrat-Regular-53" x="1054.699829"/>
    <use xlink:href="#Montserrat-Regular-75" x="1116.199814"/>
    <use xlink:href="#Montserrat-Regular-6d" x="1183.399811"/>
    <use xlink:href="#Montserrat-Regular-6d" x="1289.499802"/>
    <use xlink:href="#Montserrat-Regular-65" x="1395.599792"/>
    <use xlink:href="#Montserrat-Regular-72" x="1455.999786"/>
    <use xlink:href="#Montserrat-Regular-20" x="1496.099777"/>
    <use xlink:href="#Montserrat-Regular-4f" x="1522.299774"/>
    <use xlink:href="#Montserrat-Regular-6c" x="1606.199768"/>
    <use xlink:href="#Montserrat-Regular-79" x="1633.099762"/>
    <use xlink:href="#Montserrat-Regular-6d" x="1687.299759"/>
    <use xlink:href="#Montserrat-Regular-70" x="1793.39975"/>
    <use xlink:href="#Montserrat-Regular-69" x="1861.199738"/>
    <use xlink:href="#Montserrat-Regular-63" x="1888.099731"/>
    <use xlink:href="#Montserrat-Regular-73" x="1944.399719"/>
   </g>
  </g>
 </g>
 <defs>
  <clipPath id="pb6154a8d17">
   <rect x="41.13125" y="40.508053" width="279" height="110.88"/>
  </clipPath>
 </defs>
</svg>
