<?xml version="1.0" encoding="utf-8" standalone="no"?>
<!DOCTYPE svg PUBLIC "-//W3C//DTD SVG 1.1//EN"
  "http://www.w3.org/Graphics/SVG/1.1/DTD/svg11.dtd">
<svg xmlns:xlink="http://www.w3.org/1999/xlink" width="325.960938pt" height="188.209928pt" viewBox="0 0 325.960938 188.209928" xmlns="http://www.w3.org/2000/svg" version="1.1">
 <metadata>
  <rdf:RDF xmlns:dc="http://purl.org/dc/elements/1.1/" xmlns:cc="http://creativecommons.org/ns#" xmlns:rdf="http://www.w3.org/1999/02/22-rdf-syntax-ns#">
   <cc:Work>
    <dc:type rdf:resource="http://purl.org/dc/dcmitype/StillImage"/>
    <dc:date>2024-08-08T08:27:59.269996</dc:date>
    <dc:format>image/svg+xml</dc:format>
    <dc:creator>
     <cc:Agent>
      <dc:title>Matplotlib v3.5.1, https://matplotlib.org/</dc:title>
     </cc:Agent>
    </dc:creator>
   </cc:Work>
  </rdf:RDF>
 </metadata>
 <defs>
  <style type="text/css">*{stroke-linejoin: round; stroke-linecap: butt}</style>
 </defs>
 <g id="figure_1">
  <g id="patch_1">
   <path d="M 0 188.209928 
L 325.960938 188.209928 
L 325.960938 0 
L 0 0 
z
" style="fill: #ffffff"/>
  </g>
  <g id="axes_1">
   <g id="patch_2">
    <path d="M 39.760938 151.388053 
L 318.760938 151.388053 
L 318.760938 40.508053 
L 39.760938 40.508053 
z
" style="fill: #ffffff"/>
   </g>
   <g id="line2d_1">
    <path d="M 77.187767 45.548053 
L 89.560272 50.129871 
L 101.932778 77.62078 
L 114.305283 118.857144 
L 126.677789 123.438962 
L 139.050294 128.02078 
L 151.4228 109.693507 
L 163.795306 118.857144 
L 176.167811 105.111689 
L 188.540317 91.366235 
L 200.912822 128.02078 
L 213.285328 123.438962 
L 225.657833 128.02078 
L 238.030339 123.438962 
L 250.402844 137.184416 
L 262.77535 123.438962 
L 275.147855 132.602598 
L 287.520361 141.766235 
L 299.892867 137.184416 
" clip-path="url(#p00e048e10e)" style="fill: none; stroke: #000000; stroke-width: 0.886227"/>
   </g>
   <g id="matplotlib.axis_1">
    <g id="xtick_1">
     <g id="line2d_2">
      <defs>
       <path id="ma3f66781f4" d="M 0 0 
L 0 3.5 
" style="stroke: #000000; stroke-width: 0.8"/>
      </defs>
      <g>
       <use xlink:href="#ma3f66781f4" x="52.442756" y="151.388053" style="stroke: #000000; stroke-width: 0.8"/>
      </g>
     </g>
     <g id="text_1">
      <!-- 1940 -->
      <g transform="translate(40.977912 164.708365)scale(0.1 -0.1)">
       <defs>
        <path id="Montserrat-Regular-31" d="M 1114 0 
L 1114 4288 
L 1318 4070 
L 58 4070 
L 58 4480 
L 1574 4480 
L 1574 0 
L 1114 0 
z
" transform="scale(0.015625)"/>
        <path id="Montserrat-Regular-39" d="M 1728 4518 
Q 2323 4518 2732 4252 
Q 3142 3987 3353 3488 
Q 3565 2989 3565 2278 
Q 3565 1523 3305 1004 
Q 3046 486 2585 224 
Q 2125 -38 1517 -38 
Q 1216 -38 944 19 
Q 672 77 454 205 
L 640 576 
Q 813 461 1040 413 
Q 1267 365 1510 365 
Q 2234 365 2666 825 
Q 3098 1286 3098 2202 
Q 3098 2349 3082 2553 
Q 3066 2758 3008 2963 
L 3168 2842 
Q 3104 2509 2896 2275 
Q 2688 2042 2384 1920 
Q 2080 1798 1709 1798 
Q 1267 1798 924 1964 
Q 582 2131 390 2432 
Q 198 2733 198 3142 
Q 198 3565 396 3872 
Q 595 4179 944 4348 
Q 1293 4518 1728 4518 
z
M 1747 4128 
Q 1427 4128 1180 4009 
Q 934 3891 793 3673 
Q 653 3456 653 3155 
Q 653 2714 957 2451 
Q 1261 2189 1779 2189 
Q 2125 2189 2384 2317 
Q 2643 2445 2787 2669 
Q 2931 2893 2931 3168 
Q 2931 3418 2796 3635 
Q 2662 3853 2400 3990 
Q 2138 4128 1747 4128 
z
" transform="scale(0.015625)"/>
        <path id="Montserrat-Regular-34" d="M 256 1178 
L 256 1510 
L 2630 4480 
L 3142 4480 
L 787 1510 
L 538 1587 
L 4141 1587 
L 4141 1178 
L 256 1178 
z
M 2784 0 
L 2784 1178 
L 2797 1587 
L 2797 2624 
L 3245 2624 
L 3245 0 
L 2784 0 
z
" transform="scale(0.015625)"/>
        <path id="Montserrat-Regular-30" d="M 2118 -38 
Q 1600 -38 1197 234 
Q 794 506 563 1014 
Q 333 1523 333 2240 
Q 333 2957 563 3465 
Q 794 3974 1197 4246 
Q 1600 4518 2118 4518 
Q 2637 4518 3040 4246 
Q 3443 3974 3676 3465 
Q 3910 2957 3910 2240 
Q 3910 1523 3676 1014 
Q 3443 506 3040 234 
Q 2637 -38 2118 -38 
z
M 2118 384 
Q 2515 384 2809 598 
Q 3104 813 3270 1225 
Q 3437 1638 3437 2240 
Q 3437 2842 3270 3254 
Q 3104 3667 2809 3881 
Q 2515 4096 2118 4096 
Q 1734 4096 1433 3881 
Q 1133 3667 966 3254 
Q 800 2842 800 2240 
Q 800 1638 966 1225 
Q 1133 813 1433 598 
Q 1734 384 2118 384 
z
" transform="scale(0.015625)"/>
       </defs>
       <use xlink:href="#Montserrat-Regular-31"/>
       <use xlink:href="#Montserrat-Regular-39" x="36.099991"/>
       <use xlink:href="#Montserrat-Regular-34" x="96.999985"/>
       <use xlink:href="#Montserrat-Regular-30" x="163.099976"/>
      </g>
     </g>
    </g>
    <g id="xtick_2">
     <g id="line2d_3">
      <g>
       <use xlink:href="#ma3f66781f4" x="114.305283" y="151.388053" style="stroke: #000000; stroke-width: 0.8"/>
      </g>
     </g>
     <g id="text_2">
      <!-- 1960 -->
      <g transform="translate(103.099815 164.708365)scale(0.1 -0.1)">
       <defs>
        <path id="Montserrat-Regular-36" d="M 2170 -38 
Q 1574 -38 1164 227 
Q 755 493 544 995 
Q 333 1498 333 2202 
Q 333 2963 592 3478 
Q 851 3994 1312 4256 
Q 1773 4518 2381 4518 
Q 2682 4518 2957 4460 
Q 3232 4403 3443 4275 
L 3258 3904 
Q 3085 4019 2861 4067 
Q 2637 4115 2387 4115 
Q 1664 4115 1232 3654 
Q 800 3194 800 2278 
Q 800 2138 816 1930 
Q 832 1722 890 1517 
L 730 1638 
Q 800 1971 1005 2204 
Q 1210 2438 1517 2560 
Q 1824 2682 2189 2682 
Q 2637 2682 2976 2515 
Q 3315 2349 3507 2048 
Q 3699 1747 3699 1338 
Q 3699 922 3500 611 
Q 3302 301 2953 131 
Q 2605 -38 2170 -38 
z
M 2150 352 
Q 2470 352 2716 470 
Q 2963 589 3104 809 
Q 3245 1030 3245 1325 
Q 3245 1766 2941 2028 
Q 2637 2291 2118 2291 
Q 1773 2291 1517 2163 
Q 1261 2035 1113 1814 
Q 966 1594 966 1312 
Q 966 1069 1100 848 
Q 1235 627 1500 489 
Q 1766 352 2150 352 
z
" transform="scale(0.015625)"/>
       </defs>
       <use xlink:href="#Montserrat-Regular-31"/>
       <use xlink:href="#Montserrat-Regular-39" x="36.099991"/>
       <use xlink:href="#Montserrat-Regular-36" x="96.999985"/>
       <use xlink:href="#Montserrat-Regular-30" x="157.899979"/>
      </g>
     </g>
    </g>
    <g id="xtick_3">
     <g id="line2d_4">
      <g>
       <use xlink:href="#ma3f66781f4" x="176.167811" y="151.388053" style="stroke: #000000; stroke-width: 0.8"/>
      </g>
     </g>
     <g id="text_3">
      <!-- 1980 -->
      <g transform="translate(164.817811 164.708365)scale(0.1 -0.1)">
       <defs>
        <path id="Montserrat-Regular-38" d="M 2035 -38 
Q 1498 -38 1110 115 
Q 723 269 515 560 
Q 307 851 307 1248 
Q 307 1632 508 1904 
Q 710 2176 1097 2323 
Q 1485 2470 2035 2470 
Q 2579 2470 2969 2323 
Q 3360 2176 3568 1904 
Q 3776 1632 3776 1248 
Q 3776 851 3565 560 
Q 3354 269 2963 115 
Q 2573 -38 2035 -38 
z
M 2035 352 
Q 2630 352 2966 595 
Q 3302 838 3302 1254 
Q 3302 1670 2966 1910 
Q 2630 2150 2035 2150 
Q 1440 2150 1107 1910 
Q 774 1670 774 1254 
Q 774 838 1107 595 
Q 1440 352 2035 352 
z
M 2035 2208 
Q 1536 2208 1187 2342 
Q 838 2477 652 2729 
Q 467 2982 467 3334 
Q 467 3706 662 3971 
Q 858 4237 1210 4377 
Q 1562 4518 2035 4518 
Q 2509 4518 2864 4377 
Q 3219 4237 3417 3971 
Q 3616 3706 3616 3334 
Q 3616 2982 3430 2729 
Q 3245 2477 2889 2342 
Q 2534 2208 2035 2208 
z
M 2035 2515 
Q 2560 2515 2854 2732 
Q 3149 2950 3149 3315 
Q 3149 3699 2845 3913 
Q 2541 4128 2035 4128 
Q 1530 4128 1229 3913 
Q 928 3699 928 3322 
Q 928 2950 1219 2732 
Q 1510 2515 2035 2515 
z
" transform="scale(0.015625)"/>
       </defs>
       <use xlink:href="#Montserrat-Regular-31"/>
       <use xlink:href="#Montserrat-Regular-39" x="36.099991"/>
       <use xlink:href="#Montserrat-Regular-38" x="96.999985"/>
       <use xlink:href="#Montserrat-Regular-30" x="160.799973"/>
      </g>
     </g>
    </g>
    <g id="xtick_4">
     <g id="line2d_5">
      <g>
       <use xlink:href="#ma3f66781f4" x="238.030339" y="151.388053" style="stroke: #000000; stroke-width: 0.8"/>
      </g>
     </g>
     <g id="text_4">
      <!-- 2000 -->
      <g transform="translate(225.260026 164.708365)scale(0.1 -0.1)">
       <defs>
        <path id="Montserrat-Regular-32" d="M 250 0 
L 250 326 
L 2112 2150 
Q 2368 2400 2496 2589 
Q 2624 2778 2669 2944 
Q 2714 3110 2714 3258 
Q 2714 3648 2448 3872 
Q 2182 4096 1664 4096 
Q 1267 4096 963 3974 
Q 659 3853 442 3597 
L 115 3878 
Q 378 4186 787 4352 
Q 1197 4518 1702 4518 
Q 2157 4518 2489 4374 
Q 2822 4230 3004 3955 
Q 3187 3680 3187 3309 
Q 3187 3091 3126 2880 
Q 3066 2669 2909 2435 
Q 2752 2202 2451 1907 
L 742 230 
L 614 410 
L 3392 410 
L 3392 0 
L 250 0 
z
" transform="scale(0.015625)"/>
       </defs>
       <use xlink:href="#Montserrat-Regular-32"/>
       <use xlink:href="#Montserrat-Regular-30" x="56.799988"/>
       <use xlink:href="#Montserrat-Regular-30" x="122.999985"/>
       <use xlink:href="#Montserrat-Regular-30" x="189.199982"/>
      </g>
     </g>
    </g>
    <g id="xtick_5">
     <g id="line2d_6">
      <g>
       <use xlink:href="#ma3f66781f4" x="299.892867" y="151.388053" style="stroke: #000000; stroke-width: 0.8"/>
      </g>
     </g>
     <g id="text_5">
      <!-- 2020 -->
      <g transform="translate(287.592867 164.708365)scale(0.1 -0.1)">
       <use xlink:href="#Montserrat-Regular-32"/>
       <use xlink:href="#Montserrat-Regular-30" x="56.799988"/>
       <use xlink:href="#Montserrat-Regular-32" x="122.999985"/>
       <use xlink:href="#Montserrat-Regular-30" x="179.799973"/>
      </g>
     </g>
    </g>
    <g id="xtick_6">
     <g id="line2d_7">
      <defs>
       <path id="m46ca1519c6" d="M 0 0 
L 0 2 
" style="stroke: #000000; stroke-width: 0.6"/>
      </defs>
      <g>
       <use xlink:href="#m46ca1519c6" x="83.37402" y="151.388053" style="stroke: #000000; stroke-width: 0.6"/>
      </g>
     </g>
    </g>
    <g id="xtick_7">
     <g id="line2d_8">
      <g>
       <use xlink:href="#m46ca1519c6" x="145.236547" y="151.388053" style="stroke: #000000; stroke-width: 0.6"/>
      </g>
     </g>
    </g>
    <g id="xtick_8">
     <g id="line2d_9">
      <g>
       <use xlink:href="#m46ca1519c6" x="207.099075" y="151.388053" style="stroke: #000000; stroke-width: 0.6"/>
      </g>
     </g>
    </g>
    <g id="xtick_9">
     <g id="line2d_10">
      <g>
       <use xlink:href="#m46ca1519c6" x="268.961603" y="151.388053" style="stroke: #000000; stroke-width: 0.6"/>
      </g>
     </g>
    </g>
    <g id="text_6">
     <!-- year -->
     <g transform="translate(164.075781 179.019303)scale(0.1 -0.1)">
      <defs>
       <path id="Montserrat-Regular-79" d="M 659 -1274 
Q 422 -1274 208 -1197 
Q -6 -1120 -160 -966 
L 51 -627 
Q 179 -749 329 -816 
Q 480 -883 666 -883 
Q 890 -883 1053 -758 
Q 1216 -634 1363 -320 
L 1581 173 
L 1632 243 
L 3014 3360 
L 3462 3360 
L 1779 -403 
Q 1638 -730 1468 -922 
Q 1299 -1114 1100 -1194 
Q 902 -1274 659 -1274 
z
M 1555 -96 
L 6 3360 
L 480 3360 
L 1850 275 
L 1555 -96 
z
" transform="scale(0.015625)"/>
       <path id="Montserrat-Regular-65" d="M 2061 -32 
Q 1536 -32 1139 189 
Q 742 410 518 797 
Q 294 1184 294 1683 
Q 294 2182 508 2566 
Q 723 2950 1097 3171 
Q 1472 3392 1939 3392 
Q 2413 3392 2781 3177 
Q 3149 2963 3360 2576 
Q 3571 2189 3571 1683 
Q 3571 1651 3568 1616 
Q 3565 1581 3565 1542 
L 640 1542 
L 640 1882 
L 3322 1882 
L 3142 1747 
Q 3142 2112 2985 2397 
Q 2829 2682 2560 2842 
Q 2291 3002 1939 3002 
Q 1594 3002 1318 2842 
Q 1043 2682 889 2394 
Q 736 2106 736 1734 
L 736 1664 
Q 736 1280 905 989 
Q 1075 698 1379 534 
Q 1683 371 2074 371 
Q 2381 371 2646 480 
Q 2912 589 3104 813 
L 3360 518 
Q 3136 250 2800 109 
Q 2464 -32 2061 -32 
z
" transform="scale(0.015625)"/>
       <path id="Montserrat-Regular-61" d="M 2739 0 
L 2739 742 
L 2720 864 
L 2720 2106 
Q 2720 2534 2480 2764 
Q 2240 2995 1766 2995 
Q 1440 2995 1145 2886 
Q 851 2778 646 2598 
L 442 2938 
Q 698 3155 1056 3273 
Q 1414 3392 1811 3392 
Q 2464 3392 2819 3069 
Q 3174 2746 3174 2086 
L 3174 0 
L 2739 0 
z
M 1581 -32 
Q 1203 -32 924 93 
Q 646 218 499 438 
Q 352 659 352 947 
Q 352 1210 477 1424 
Q 602 1638 886 1769 
Q 1171 1901 1651 1901 
L 2810 1901 
L 2810 1562 
L 1664 1562 
Q 1178 1562 989 1389 
Q 800 1216 800 960 
Q 800 672 1024 499 
Q 1248 326 1651 326 
Q 2035 326 2313 502 
Q 2592 678 2720 1011 
L 2822 698 
Q 2694 365 2377 166 
Q 2061 -32 1581 -32 
z
" transform="scale(0.015625)"/>
       <path id="Montserrat-Regular-72" d="M 634 0 
L 634 3360 
L 1069 3360 
L 1069 2445 
L 1024 2605 
Q 1165 2989 1497 3190 
Q 1830 3392 2323 3392 
L 2323 2950 
Q 2298 2950 2272 2953 
Q 2246 2957 2221 2957 
Q 1690 2957 1389 2633 
Q 1088 2310 1088 1715 
L 1088 0 
L 634 0 
z
" transform="scale(0.015625)"/>
      </defs>
      <use xlink:href="#Montserrat-Regular-79"/>
      <use xlink:href="#Montserrat-Regular-65" x="54.199997"/>
      <use xlink:href="#Montserrat-Regular-61" x="114.599991"/>
      <use xlink:href="#Montserrat-Regular-72" x="173.599976"/>
     </g>
    </g>
   </g>
   <g id="matplotlib.axis_2">
    <g id="ytick_1">
     <g id="line2d_11">
      <defs>
       <path id="ma81b72c086" d="M 0 0 
L -3.5 0 
" style="stroke: #000000; stroke-width: 0.8"/>
      </defs>
      <g>
       <use xlink:href="#ma81b72c086" x="39.760938" y="146.348053" style="stroke: #000000; stroke-width: 0.8"/>
      </g>
     </g>
     <g id="text_7">
      <!-- 0 -->
      <g transform="translate(27.240625 150.058209)scale(0.1 -0.1)">
       <use xlink:href="#Montserrat-Regular-30"/>
      </g>
     </g>
    </g>
    <g id="ytick_2">
     <g id="line2d_12">
      <g>
       <use xlink:href="#ma81b72c086" x="39.760938" y="123.438962" style="stroke: #000000; stroke-width: 0.8"/>
      </g>
     </g>
     <g id="text_8">
      <!-- 5 -->
      <g transform="translate(28.201563 127.149118)scale(0.1 -0.1)">
       <defs>
        <path id="Montserrat-Regular-35" d="M 1747 -38 
Q 1267 -38 832 118 
Q 397 275 141 538 
L 365 902 
Q 576 678 944 531 
Q 1312 384 1741 384 
Q 2310 384 2608 637 
Q 2906 890 2906 1299 
Q 2906 1587 2768 1795 
Q 2630 2003 2304 2118 
Q 1978 2234 1408 2234 
L 454 2234 
L 685 4480 
L 3136 4480 
L 3136 4070 
L 870 4070 
L 1107 4294 
L 909 2413 
L 672 2643 
L 1510 2643 
Q 2189 2643 2598 2476 
Q 3008 2310 3190 2012 
Q 3373 1715 3373 1318 
Q 3373 941 3193 630 
Q 3014 320 2656 141 
Q 2298 -38 1747 -38 
z
" transform="scale(0.015625)"/>
       </defs>
       <use xlink:href="#Montserrat-Regular-35"/>
      </g>
     </g>
    </g>
    <g id="ytick_3">
     <g id="line2d_13">
      <g>
       <use xlink:href="#ma81b72c086" x="39.760938" y="100.529871" style="stroke: #000000; stroke-width: 0.8"/>
      </g>
     </g>
     <g id="text_9">
      <!-- 10 -->
      <g transform="translate(23.63125 104.240027)scale(0.1 -0.1)">
       <use xlink:href="#Montserrat-Regular-31"/>
       <use xlink:href="#Montserrat-Regular-30" x="36.099991"/>
      </g>
     </g>
    </g>
    <g id="ytick_4">
     <g id="line2d_14">
      <g>
       <use xlink:href="#ma81b72c086" x="39.760938" y="77.62078" style="stroke: #000000; stroke-width: 0.8"/>
      </g>
     </g>
     <g id="text_10">
      <!-- 15 -->
      <g transform="translate(24.592188 81.330936)scale(0.1 -0.1)">
       <use xlink:href="#Montserrat-Regular-31"/>
       <use xlink:href="#Montserrat-Regular-35" x="36.099991"/>
      </g>
     </g>
    </g>
    <g id="ytick_5">
     <g id="line2d_15">
      <g>
       <use xlink:href="#ma81b72c086" x="39.760938" y="54.711689" style="stroke: #000000; stroke-width: 0.8"/>
      </g>
     </g>
     <g id="text_11">
      <!-- 20 -->
      <g transform="translate(21.560938 58.421845)scale(0.1 -0.1)">
       <use xlink:href="#Montserrat-Regular-32"/>
       <use xlink:href="#Montserrat-Regular-30" x="56.799988"/>
      </g>
     </g>
    </g>
    <g id="ytick_6">
     <g id="line2d_16">
      <defs>
       <path id="m41063fea1f" d="M 0 0 
L -2 0 
" style="stroke: #000000; stroke-width: 0.6"/>
      </defs>
      <g>
       <use xlink:href="#m41063fea1f" x="39.760938" y="134.893507" style="stroke: #000000; stroke-width: 0.6"/>
      </g>
     </g>
    </g>
    <g id="ytick_7">
     <g id="line2d_17">
      <g>
       <use xlink:href="#m41063fea1f" x="39.760938" y="111.984416" style="stroke: #000000; stroke-width: 0.6"/>
      </g>
     </g>
    </g>
    <g id="ytick_8">
     <g id="line2d_18">
      <g>
       <use xlink:href="#m41063fea1f" x="39.760938" y="89.075326" style="stroke: #000000; stroke-width: 0.6"/>
      </g>
     </g>
    </g>
    <g id="ytick_9">
     <g id="line2d_19">
      <g>
       <use xlink:href="#m41063fea1f" x="39.760938" y="66.166235" style="stroke: #000000; stroke-width: 0.6"/>
      </g>
     </g>
    </g>
    <g id="ytick_10">
     <g id="line2d_20">
      <g>
       <use xlink:href="#m41063fea1f" x="39.760938" y="43.257144" style="stroke: #000000; stroke-width: 0.6"/>
      </g>
     </g>
    </g>
    <g id="text_12">
     <!-- medals -->
     <g transform="translate(14.620313 113.678053)rotate(-90)scale(0.1 -0.1)">
      <defs>
       <path id="Montserrat-Regular-6d" d="M 4832 3392 
Q 5242 3392 5546 3235 
Q 5850 3078 6019 2758 
Q 6189 2438 6189 1952 
L 6189 0 
L 5734 0 
L 5734 1907 
Q 5734 2438 5481 2710 
Q 5229 2982 4768 2982 
Q 4422 2982 4169 2838 
Q 3917 2694 3779 2422 
Q 3642 2150 3642 1766 
L 3642 0 
L 3187 0 
L 3187 1907 
Q 3187 2438 2931 2710 
Q 2675 2982 2214 2982 
Q 1875 2982 1619 2838 
Q 1363 2694 1225 2422 
Q 1088 2150 1088 1766 
L 1088 0 
L 634 0 
L 634 3360 
L 1069 3360 
L 1069 2451 
L 998 2611 
Q 1152 2976 1494 3184 
Q 1837 3392 2304 3392 
Q 2797 3392 3142 3145 
Q 3488 2899 3590 2406 
L 3411 2477 
Q 3558 2886 3932 3139 
Q 4307 3392 4832 3392 
z
" transform="scale(0.015625)"/>
       <path id="Montserrat-Regular-64" d="M 1971 -32 
Q 1491 -32 1110 185 
Q 730 403 512 790 
Q 294 1178 294 1683 
Q 294 2195 512 2579 
Q 730 2963 1110 3177 
Q 1491 3392 1971 3392 
Q 2413 3392 2761 3193 
Q 3110 2995 3318 2614 
Q 3526 2234 3526 1683 
Q 3526 1139 3321 755 
Q 3117 371 2768 169 
Q 2419 -32 1971 -32 
z
M 2003 371 
Q 2362 371 2646 534 
Q 2931 698 3094 995 
Q 3258 1293 3258 1683 
Q 3258 2080 3094 2374 
Q 2931 2669 2646 2832 
Q 2362 2995 2003 2995 
Q 1651 2995 1369 2832 
Q 1088 2669 921 2374 
Q 755 2080 755 1683 
Q 755 1293 921 995 
Q 1088 698 1369 534 
Q 1651 371 2003 371 
z
M 3270 0 
L 3270 1011 
L 3315 1690 
L 3251 2368 
L 3251 4749 
L 3706 4749 
L 3706 0 
L 3270 0 
z
" transform="scale(0.015625)"/>
       <path id="Montserrat-Regular-6c" d="M 634 0 
L 634 4749 
L 1088 4749 
L 1088 0 
L 634 0 
z
" transform="scale(0.015625)"/>
       <path id="Montserrat-Regular-73" d="M 1536 -32 
Q 1120 -32 749 86 
Q 378 205 166 384 
L 371 742 
Q 576 589 896 477 
Q 1216 365 1568 365 
Q 2048 365 2259 515 
Q 2470 666 2470 915 
Q 2470 1101 2352 1206 
Q 2234 1312 2042 1366 
Q 1850 1421 1613 1459 
Q 1376 1498 1142 1549 
Q 909 1600 717 1699 
Q 525 1798 406 1971 
Q 288 2144 288 2432 
Q 288 2707 441 2924 
Q 595 3142 892 3267 
Q 1190 3392 1619 3392 
Q 1946 3392 2272 3305 
Q 2598 3219 2810 3078 
L 2611 2714 
Q 2387 2867 2131 2934 
Q 1875 3002 1619 3002 
Q 1165 3002 950 2845 
Q 736 2688 736 2445 
Q 736 2253 854 2144 
Q 973 2035 1168 1974 
Q 1363 1914 1596 1875 
Q 1830 1837 2064 1782 
Q 2298 1728 2493 1635 
Q 2688 1542 2806 1372 
Q 2925 1203 2925 928 
Q 2925 634 2761 419 
Q 2598 205 2288 86 
Q 1978 -32 1536 -32 
z
" transform="scale(0.015625)"/>
      </defs>
      <use xlink:href="#Montserrat-Regular-6d"/>
      <use xlink:href="#Montserrat-Regular-65" x="106.099991"/>
      <use xlink:href="#Montserrat-Regular-64" x="166.499985"/>
      <use xlink:href="#Montserrat-Regular-61" x="234.299973"/>
      <use xlink:href="#Montserrat-Regular-6c" x="293.299957"/>
      <use xlink:href="#Montserrat-Regular-73" x="320.199951"/>
     </g>
    </g>
   </g>
   <g id="PathCollection_1">
    <path d="M 77.187767 46.212723 
C 77.364039 46.212723 77.533116 46.142689 77.65776 46.018046 
C 77.782403 45.893402 77.852437 45.724325 77.852437 45.548053 
C 77.852437 45.37178 77.782403 45.202704 77.65776 45.07806 
C 77.533116 44.953416 77.364039 44.883383 77.187767 44.883383 
C 77.011494 44.883383 76.842418 44.953416 76.717774 45.07806 
C 76.59313 45.202704 76.523097 45.37178 76.523097 45.548053 
C 76.523097 45.724325 76.59313 45.893402 76.717774 46.018046 
C 76.842418 46.142689 77.011494 46.212723 77.187767 46.212723 
z
" clip-path="url(#p00e048e10e)" style="fill-opacity: 0.501961; stroke: #000000; stroke-opacity: 0.501961; stroke-width: 0.886227"/>
    <path d="M 89.560272 50.794541 
C 89.736545 50.794541 89.905622 50.724507 90.030265 50.599864 
C 90.154909 50.47522 90.224943 50.306144 90.224943 50.129871 
C 90.224943 49.953598 90.154909 49.784522 90.030265 49.659878 
C 89.905622 49.535235 89.736545 49.465201 89.560272 49.465201 
C 89.384 49.465201 89.214923 49.535235 89.09028 49.659878 
C 88.965636 49.784522 88.895602 49.953598 88.895602 50.129871 
C 88.895602 50.306144 88.965636 50.47522 89.09028 50.599864 
C 89.214923 50.724507 89.384 50.794541 89.560272 50.794541 
z
" clip-path="url(#p00e048e10e)" style="fill-opacity: 0.501961; stroke: #000000; stroke-opacity: 0.501961; stroke-width: 0.886227"/>
    <path d="M 101.932778 78.28545 
C 102.10905 78.28545 102.278127 78.215416 102.402771 78.090773 
C 102.527414 77.966129 102.597448 77.797053 102.597448 77.62078 
C 102.597448 77.444507 102.527414 77.275431 102.402771 77.150787 
C 102.278127 77.026144 102.10905 76.95611 101.932778 76.95611 
C 101.756505 76.95611 101.587429 77.026144 101.462785 77.150787 
C 101.338142 77.275431 101.268108 77.444507 101.268108 77.62078 
C 101.268108 77.797053 101.338142 77.966129 101.462785 78.090773 
C 101.587429 78.215416 101.756505 78.28545 101.932778 78.28545 
z
" clip-path="url(#p00e048e10e)" style="fill-opacity: 0.501961; stroke: #000000; stroke-opacity: 0.501961; stroke-width: 0.886227"/>
    <path d="M 114.305283 119.521814 
C 114.481556 119.521814 114.650633 119.45178 114.775276 119.327137 
C 114.89992 119.202493 114.969954 119.033416 114.969954 118.857144 
C 114.969954 118.680871 114.89992 118.511794 114.775276 118.387151 
C 114.650633 118.262507 114.481556 118.192474 114.305283 118.192474 
C 114.129011 118.192474 113.959934 118.262507 113.835291 118.387151 
C 113.710647 118.511794 113.640613 118.680871 113.640613 118.857144 
C 113.640613 119.033416 113.710647 119.202493 113.835291 119.327137 
C 113.959934 119.45178 114.129011 119.521814 114.305283 119.521814 
z
" clip-path="url(#p00e048e10e)" style="fill-opacity: 0.501961; stroke: #000000; stroke-opacity: 0.501961; stroke-width: 0.886227"/>
    <path d="M 126.677789 124.103632 
C 126.854062 124.103632 127.023138 124.033598 127.147782 123.908955 
C 127.272425 123.784311 127.342459 123.615234 127.342459 123.438962 
C 127.342459 123.262689 127.272425 123.093613 127.147782 122.968969 
C 127.023138 122.844326 126.854062 122.774292 126.677789 122.774292 
C 126.501516 122.774292 126.33244 122.844326 126.207796 122.968969 
C 126.083153 123.093613 126.013119 123.262689 126.013119 123.438962 
C 126.013119 123.615234 126.083153 123.784311 126.207796 123.908955 
C 126.33244 124.033598 126.501516 124.103632 126.677789 124.103632 
z
" clip-path="url(#p00e048e10e)" style="fill-opacity: 0.501961; stroke: #000000; stroke-opacity: 0.501961; stroke-width: 0.886227"/>
    <path d="M 139.050294 128.68545 
C 139.226567 128.68545 139.395644 128.615416 139.520287 128.490773 
C 139.644931 128.366129 139.714965 128.197053 139.714965 128.02078 
C 139.714965 127.844507 139.644931 127.675431 139.520287 127.550787 
C 139.395644 127.426144 139.226567 127.35611 139.050294 127.35611 
C 138.874022 127.35611 138.704945 127.426144 138.580302 127.550787 
C 138.455658 127.675431 138.385624 127.844507 138.385624 128.02078 
C 138.385624 128.197053 138.455658 128.366129 138.580302 128.490773 
C 138.704945 128.615416 138.874022 128.68545 139.050294 128.68545 
z
" clip-path="url(#p00e048e10e)" style="fill-opacity: 0.501961; stroke: #000000; stroke-opacity: 0.501961; stroke-width: 0.886227"/>
    <path d="M 151.4228 110.358178 
C 151.599073 110.358178 151.768149 110.288144 151.892793 110.1635 
C 152.017436 110.038857 152.08747 109.86978 152.08747 109.693507 
C 152.08747 109.517235 152.017436 109.348158 151.892793 109.223515 
C 151.768149 109.098871 151.599073 109.028837 151.4228 109.028837 
C 151.246527 109.028837 151.077451 109.098871 150.952807 109.223515 
C 150.828164 109.348158 150.75813 109.517235 150.75813 109.693507 
C 150.75813 109.86978 150.828164 110.038857 150.952807 110.1635 
C 151.077451 110.288144 151.246527 110.358178 151.4228 110.358178 
z
" clip-path="url(#p00e048e10e)" style="fill-opacity: 0.501961; stroke: #000000; stroke-opacity: 0.501961; stroke-width: 0.886227"/>
    <path d="M 163.795306 119.521814 
C 163.971578 119.521814 164.140655 119.45178 164.265298 119.327137 
C 164.389942 119.202493 164.459976 119.033416 164.459976 118.857144 
C 164.459976 118.680871 164.389942 118.511794 164.265298 118.387151 
C 164.140655 118.262507 163.971578 118.192474 163.795306 118.192474 
C 163.619033 118.192474 163.449956 118.262507 163.325313 118.387151 
C 163.200669 118.511794 163.130635 118.680871 163.130635 118.857144 
C 163.130635 119.033416 163.200669 119.202493 163.325313 119.327137 
C 163.449956 119.45178 163.619033 119.521814 163.795306 119.521814 
z
" clip-path="url(#p00e048e10e)" style="fill-opacity: 0.501961; stroke: #000000; stroke-opacity: 0.501961; stroke-width: 0.886227"/>
    <path d="M 176.167811 105.776359 
C 176.344084 105.776359 176.51316 105.706326 176.637804 105.581682 
C 176.762447 105.457038 176.832481 105.287962 176.832481 105.111689 
C 176.832481 104.935417 176.762447 104.76634 176.637804 104.641696 
C 176.51316 104.517053 176.344084 104.447019 176.167811 104.447019 
C 175.991539 104.447019 175.822462 104.517053 175.697818 104.641696 
C 175.573175 104.76634 175.503141 104.935417 175.503141 105.111689 
C 175.503141 105.287962 175.573175 105.457038 175.697818 105.581682 
C 175.822462 105.706326 175.991539 105.776359 176.167811 105.776359 
z
" clip-path="url(#p00e048e10e)" style="fill-opacity: 0.501961; stroke: #000000; stroke-opacity: 0.501961; stroke-width: 0.886227"/>
    <path d="M 188.540317 92.030905 
C 188.716589 92.030905 188.885666 91.960871 189.010309 91.836227 
C 189.134953 91.711584 189.204987 91.542507 189.204987 91.366235 
C 189.204987 91.189962 189.134953 91.020885 189.010309 90.896242 
C 188.885666 90.771598 188.716589 90.701564 188.540317 90.701564 
C 188.364044 90.701564 188.194967 90.771598 188.070324 90.896242 
C 187.94568 91.020885 187.875646 91.189962 187.875646 91.366235 
C 187.875646 91.542507 187.94568 91.711584 188.070324 91.836227 
C 188.194967 91.960871 188.364044 92.030905 188.540317 92.030905 
z
" clip-path="url(#p00e048e10e)" style="fill-opacity: 0.501961; stroke: #000000; stroke-opacity: 0.501961; stroke-width: 0.886227"/>
    <path d="M 200.912822 128.68545 
C 201.089095 128.68545 201.258171 128.615416 201.382815 128.490773 
C 201.507459 128.366129 201.577492 128.197053 201.577492 128.02078 
C 201.577492 127.844507 201.507459 127.675431 201.382815 127.550787 
C 201.258171 127.426144 201.089095 127.35611 200.912822 127.35611 
C 200.73655 127.35611 200.567473 127.426144 200.442829 127.550787 
C 200.318186 127.675431 200.248152 127.844507 200.248152 128.02078 
C 200.248152 128.197053 200.318186 128.366129 200.442829 128.490773 
C 200.567473 128.615416 200.73655 128.68545 200.912822 128.68545 
z
" clip-path="url(#p00e048e10e)" style="fill-opacity: 0.501961; stroke: #000000; stroke-opacity: 0.501961; stroke-width: 0.886227"/>
    <path d="M 213.285328 124.103632 
C 213.4616 124.103632 213.630677 124.033598 213.755321 123.908955 
C 213.879964 123.784311 213.949998 123.615234 213.949998 123.438962 
C 213.949998 123.262689 213.879964 123.093613 213.755321 122.968969 
C 213.630677 122.844326 213.4616 122.774292 213.285328 122.774292 
C 213.109055 122.774292 212.939978 122.844326 212.815335 122.968969 
C 212.690691 123.093613 212.620658 123.262689 212.620658 123.438962 
C 212.620658 123.615234 212.690691 123.784311 212.815335 123.908955 
C 212.939978 124.033598 213.109055 124.103632 213.285328 124.103632 
z
" clip-path="url(#p00e048e10e)" style="fill-opacity: 0.501961; stroke: #000000; stroke-opacity: 0.501961; stroke-width: 0.886227"/>
    <path d="M 225.657833 128.68545 
C 225.834106 128.68545 226.003183 128.615416 226.127826 128.490773 
C 226.25247 128.366129 226.322503 128.197053 226.322503 128.02078 
C 226.322503 127.844507 226.25247 127.675431 226.127826 127.550787 
C 226.003183 127.426144 225.834106 127.35611 225.657833 127.35611 
C 225.481561 127.35611 225.312484 127.426144 225.18784 127.550787 
C 225.063197 127.675431 224.993163 127.844507 224.993163 128.02078 
C 224.993163 128.197053 225.063197 128.366129 225.18784 128.490773 
C 225.312484 128.615416 225.481561 128.68545 225.657833 128.68545 
z
" clip-path="url(#p00e048e10e)" style="fill-opacity: 0.501961; stroke: #000000; stroke-opacity: 0.501961; stroke-width: 0.886227"/>
    <path d="M 238.030339 124.103632 
C 238.206611 124.103632 238.375688 124.033598 238.500332 123.908955 
C 238.624975 123.784311 238.695009 123.615234 238.695009 123.438962 
C 238.695009 123.262689 238.624975 123.093613 238.500332 122.968969 
C 238.375688 122.844326 238.206611 122.774292 238.030339 122.774292 
C 237.854066 122.774292 237.68499 122.844326 237.560346 122.968969 
C 237.435702 123.093613 237.365669 123.262689 237.365669 123.438962 
C 237.365669 123.615234 237.435702 123.784311 237.560346 123.908955 
C 237.68499 124.033598 237.854066 124.103632 238.030339 124.103632 
z
" clip-path="url(#p00e048e10e)" style="fill-opacity: 0.501961; stroke: #000000; stroke-opacity: 0.501961; stroke-width: 0.886227"/>
    <path d="M 250.402844 137.849087 
C 250.579117 137.849087 250.748194 137.779053 250.872837 137.654409 
C 250.997481 137.529766 251.067515 137.360689 251.067515 137.184416 
C 251.067515 137.008144 250.997481 136.839067 250.872837 136.714424 
C 250.748194 136.58978 250.579117 136.519746 250.402844 136.519746 
C 250.226572 136.519746 250.057495 136.58978 249.932852 136.714424 
C 249.808208 136.839067 249.738174 137.008144 249.738174 137.184416 
C 249.738174 137.360689 249.808208 137.529766 249.932852 137.654409 
C 250.057495 137.779053 250.226572 137.849087 250.402844 137.849087 
z
" clip-path="url(#p00e048e10e)" style="fill-opacity: 0.501961; stroke: #000000; stroke-opacity: 0.501961; stroke-width: 0.886227"/>
    <path d="M 262.77535 124.103632 
C 262.951623 124.103632 263.120699 124.033598 263.245343 123.908955 
C 263.369986 123.784311 263.44002 123.615234 263.44002 123.438962 
C 263.44002 123.262689 263.369986 123.093613 263.245343 122.968969 
C 263.120699 122.844326 262.951623 122.774292 262.77535 122.774292 
C 262.599077 122.774292 262.430001 122.844326 262.305357 122.968969 
C 262.180714 123.093613 262.11068 123.262689 262.11068 123.438962 
C 262.11068 123.615234 262.180714 123.784311 262.305357 123.908955 
C 262.430001 124.033598 262.599077 124.103632 262.77535 124.103632 
z
" clip-path="url(#p00e048e10e)" style="fill-opacity: 0.501961; stroke: #000000; stroke-opacity: 0.501961; stroke-width: 0.886227"/>
    <path d="M 275.147855 133.267268 
C 275.324128 133.267268 275.493205 133.197235 275.617848 133.072591 
C 275.742492 132.947948 275.812526 132.778871 275.812526 132.602598 
C 275.812526 132.426326 275.742492 132.257249 275.617848 132.132605 
C 275.493205 132.007962 275.324128 131.937928 275.147855 131.937928 
C 274.971583 131.937928 274.802506 132.007962 274.677863 132.132605 
C 274.553219 132.257249 274.483185 132.426326 274.483185 132.602598 
C 274.483185 132.778871 274.553219 132.947948 274.677863 133.072591 
C 274.802506 133.197235 274.971583 133.267268 275.147855 133.267268 
z
" clip-path="url(#p00e048e10e)" style="fill-opacity: 0.501961; stroke: #000000; stroke-opacity: 0.501961; stroke-width: 0.886227"/>
    <path d="M 287.520361 142.430905 
C 287.696634 142.430905 287.86571 142.360871 287.990354 142.236227 
C 288.114997 142.111584 288.185031 141.942507 288.185031 141.766235 
C 288.185031 141.589962 288.114997 141.420885 287.990354 141.296242 
C 287.86571 141.171598 287.696634 141.101564 287.520361 141.101564 
C 287.344088 141.101564 287.175012 141.171598 287.050368 141.296242 
C 286.925725 141.420885 286.855691 141.589962 286.855691 141.766235 
C 286.855691 141.942507 286.925725 142.111584 287.050368 142.236227 
C 287.175012 142.360871 287.344088 142.430905 287.520361 142.430905 
z
" clip-path="url(#p00e048e10e)" style="fill-opacity: 0.501961; stroke: #000000; stroke-opacity: 0.501961; stroke-width: 0.886227"/>
    <path d="M 299.892867 137.849087 
C 300.069139 137.849087 300.238216 137.779053 300.362859 137.654409 
C 300.487503 137.529766 300.557537 137.360689 300.557537 137.184416 
C 300.557537 137.008144 300.487503 136.839067 300.362859 136.714424 
C 300.238216 136.58978 300.069139 136.519746 299.892867 136.519746 
C 299.716594 136.519746 299.547517 136.58978 299.422874 136.714424 
C 299.29823 136.839067 299.228196 137.008144 299.228196 137.184416 
C 299.228196 137.360689 299.29823 137.529766 299.422874 137.654409 
C 299.547517 137.779053 299.716594 137.849087 299.892867 137.849087 
z
" clip-path="url(#p00e048e10e)" style="fill-opacity: 0.501961; stroke: #000000; stroke-opacity: 0.501961; stroke-width: 0.886227"/>
   </g>
   <g id="patch_3">
    <path d="M 39.760938 40.508053 
L 318.760938 40.508053 
L 318.760938 24.508053 
L 39.760938 24.508053 
z
" style="fill: #d9d9d9; stroke: #d9d9d9; stroke-linejoin: miter"/>
   </g>
   <g id="PathCollection_2">
    <defs>
     <path id="ma33863d101" d="M -2.215567 0 
L 2.215567 0 
M 0 2.215567 
L 0 -2.215567 
" style="stroke: #ff0000; stroke-width: 0.886227"/>
    </defs>
    <g clip-path="url(#p00e048e10e)">
     <use xlink:href="#ma33863d101" x="89.560272" y="50.129871" style="fill: #ff0000; stroke: #ff0000; stroke-width: 0.886227"/>
    </g>
   </g>
   <g id="text_13">
    <!-- Finland -->
    <g transform="translate(160.30625 35.247897)scale(0.1 -0.1)">
     <defs>
      <path id="Montserrat-Regular-46" d="M 1152 2310 
L 3520 2310 
L 3520 1901 
L 1152 1901 
L 1152 2310 
z
M 1203 0 
L 730 0 
L 730 4480 
L 3802 4480 
L 3802 4070 
L 1203 4070 
L 1203 0 
z
" transform="scale(0.015625)"/>
      <path id="Montserrat-Regular-69" d="M 634 0 
L 634 3360 
L 1088 3360 
L 1088 0 
L 634 0 
z
M 864 4102 
Q 723 4102 627 4198 
Q 531 4294 531 4429 
Q 531 4563 627 4656 
Q 723 4749 864 4749 
Q 1005 4749 1101 4659 
Q 1197 4570 1197 4435 
Q 1197 4294 1104 4198 
Q 1011 4102 864 4102 
z
" transform="scale(0.015625)"/>
      <path id="Montserrat-Regular-6e" d="M 2349 3392 
Q 2758 3392 3068 3235 
Q 3379 3078 3555 2758 
Q 3731 2438 3731 1952 
L 3731 0 
L 3277 0 
L 3277 1907 
Q 3277 2438 3011 2710 
Q 2746 2982 2266 2982 
Q 1907 2982 1641 2838 
Q 1376 2694 1232 2422 
Q 1088 2150 1088 1766 
L 1088 0 
L 634 0 
L 634 3360 
L 1069 3360 
L 1069 2438 
L 998 2611 
Q 1158 2976 1510 3184 
Q 1862 3392 2349 3392 
z
" transform="scale(0.015625)"/>
     </defs>
     <use xlink:href="#Montserrat-Regular-46"/>
     <use xlink:href="#Montserrat-Regular-69" x="63.299988"/>
     <use xlink:href="#Montserrat-Regular-6e" x="90.199982"/>
     <use xlink:href="#Montserrat-Regular-6c" x="157.799973"/>
     <use xlink:href="#Montserrat-Regular-61" x="184.699966"/>
     <use xlink:href="#Montserrat-Regular-6e" x="243.699951"/>
     <use xlink:href="#Montserrat-Regular-64" x="311.299942"/>
    </g>
   </g>
  </g>
  <g id="text_14">
   <!-- Medals for Finland at Summer Olympics -->
   <g transform="translate(73.905469 14.670312)scale(0.1 -0.1)">
    <defs>
     <path id="Montserrat-Regular-4d" d="M 730 0 
L 730 4480 
L 1120 4480 
L 3168 986 
L 2963 986 
L 4992 4480 
L 5382 4480 
L 5382 0 
L 4928 0 
L 4928 3770 
L 5037 3770 
L 3168 570 
L 2944 570 
L 1062 3770 
L 1184 3770 
L 1184 0 
L 730 0 
z
" transform="scale(0.015625)"/>
     <path id="Montserrat-Regular-20" transform="scale(0.015625)"/>
     <path id="Montserrat-Regular-66" d="M 710 0 
L 710 3782 
Q 710 4230 972 4505 
Q 1235 4781 1728 4781 
Q 1920 4781 2099 4729 
Q 2278 4678 2400 4570 
L 2246 4230 
Q 2150 4314 2022 4355 
Q 1894 4397 1747 4397 
Q 1459 4397 1305 4237 
Q 1152 4077 1152 3763 
L 1152 3251 
L 1165 3040 
L 1165 0 
L 710 0 
z
M 109 2982 
L 109 3360 
L 2189 3360 
L 2189 2982 
L 109 2982 
z
" transform="scale(0.015625)"/>
     <path id="Montserrat-Regular-6f" d="M 2003 -32 
Q 1517 -32 1129 189 
Q 742 410 518 797 
Q 294 1184 294 1683 
Q 294 2189 518 2573 
Q 742 2957 1126 3174 
Q 1510 3392 2003 3392 
Q 2502 3392 2889 3174 
Q 3277 2957 3497 2573 
Q 3718 2189 3718 1683 
Q 3718 1184 3497 797 
Q 3277 410 2886 189 
Q 2496 -32 2003 -32 
z
M 2003 371 
Q 2368 371 2649 534 
Q 2931 698 3094 995 
Q 3258 1293 3258 1683 
Q 3258 2080 3094 2374 
Q 2931 2669 2649 2832 
Q 2368 2995 2010 2995 
Q 1651 2995 1369 2832 
Q 1088 2669 921 2374 
Q 755 2080 755 1683 
Q 755 1293 921 995 
Q 1088 698 1369 534 
Q 1651 371 2003 371 
z
" transform="scale(0.015625)"/>
     <path id="Montserrat-Regular-74" d="M 1696 -32 
Q 1222 -32 966 224 
Q 710 480 710 947 
L 710 4102 
L 1165 4102 
L 1165 973 
Q 1165 678 1315 518 
Q 1466 358 1747 358 
Q 2048 358 2246 531 
L 2406 205 
Q 2272 83 2083 25 
Q 1894 -32 1696 -32 
z
M 109 2982 
L 109 3360 
L 2189 3360 
L 2189 2982 
L 109 2982 
z
" transform="scale(0.015625)"/>
     <path id="Montserrat-Regular-53" d="M 1965 -38 
Q 1466 -38 1008 125 
Q 550 288 301 544 
L 486 909 
Q 723 678 1123 521 
Q 1523 365 1965 365 
Q 2387 365 2652 470 
Q 2918 576 3043 755 
Q 3168 934 3168 1152 
Q 3168 1414 3017 1574 
Q 2867 1734 2624 1827 
Q 2381 1920 2086 1990 
Q 1792 2061 1497 2141 
Q 1203 2221 956 2355 
Q 710 2490 560 2710 
Q 410 2931 410 3290 
Q 410 3622 586 3900 
Q 762 4179 1126 4348 
Q 1491 4518 2061 4518 
Q 2438 4518 2809 4412 
Q 3181 4307 3450 4122 
L 3290 3744 
Q 3002 3936 2678 4025 
Q 2355 4115 2054 4115 
Q 1651 4115 1388 4006 
Q 1126 3898 1001 3715 
Q 877 3533 877 3302 
Q 877 3040 1027 2880 
Q 1178 2720 1424 2630 
Q 1670 2541 1964 2470 
Q 2259 2400 2550 2317 
Q 2842 2234 3088 2102 
Q 3334 1971 3484 1753 
Q 3635 1536 3635 1184 
Q 3635 858 3456 579 
Q 3277 301 2909 131 
Q 2541 -38 1965 -38 
z
" transform="scale(0.015625)"/>
     <path id="Montserrat-Regular-75" d="M 2022 -32 
Q 1594 -32 1274 128 
Q 954 288 778 608 
Q 602 928 602 1408 
L 602 3360 
L 1056 3360 
L 1056 1459 
Q 1056 922 1321 650 
Q 1587 378 2067 378 
Q 2419 378 2678 522 
Q 2938 666 3075 941 
Q 3213 1216 3213 1600 
L 3213 3360 
L 3667 3360 
L 3667 0 
L 3232 0 
L 3232 922 
L 3302 755 
Q 3142 384 2806 176 
Q 2470 -32 2022 -32 
z
" transform="scale(0.015625)"/>
     <path id="Montserrat-Regular-4f" d="M 2688 -38 
Q 2182 -38 1750 131 
Q 1318 301 1001 611 
Q 685 922 509 1334 
Q 333 1747 333 2240 
Q 333 2733 509 3145 
Q 685 3558 1001 3868 
Q 1318 4179 1747 4348 
Q 2176 4518 2688 4518 
Q 3194 4518 3622 4348 
Q 4051 4179 4368 3872 
Q 4685 3565 4861 3149 
Q 5037 2733 5037 2240 
Q 5037 1747 4861 1331 
Q 4685 915 4368 608 
Q 4051 301 3622 131 
Q 3194 -38 2688 -38 
z
M 2688 384 
Q 3091 384 3433 521 
Q 3776 659 4029 912 
Q 4282 1165 4422 1501 
Q 4563 1837 4563 2240 
Q 4563 2643 4422 2979 
Q 4282 3315 4029 3568 
Q 3776 3821 3433 3958 
Q 3091 4096 2688 4096 
Q 2285 4096 1939 3958 
Q 1594 3821 1341 3568 
Q 1088 3315 944 2979 
Q 800 2643 800 2240 
Q 800 1843 944 1504 
Q 1088 1165 1341 912 
Q 1594 659 1939 521 
Q 2285 384 2688 384 
z
" transform="scale(0.015625)"/>
     <path id="Montserrat-Regular-70" d="M 2368 -32 
Q 1933 -32 1581 169 
Q 1229 371 1021 752 
Q 813 1133 813 1683 
Q 813 2234 1017 2614 
Q 1222 2995 1574 3193 
Q 1926 3392 2368 3392 
Q 2848 3392 3229 3177 
Q 3610 2963 3827 2576 
Q 4045 2189 4045 1683 
Q 4045 1171 3827 787 
Q 3610 403 3229 185 
Q 2848 -32 2368 -32 
z
M 634 -1242 
L 634 3360 
L 1069 3360 
L 1069 2349 
L 1024 1677 
L 1088 998 
L 1088 -1242 
L 634 -1242 
z
M 2336 371 
Q 2694 371 2976 534 
Q 3258 698 3424 995 
Q 3590 1293 3590 1683 
Q 3590 2074 3424 2368 
Q 3258 2662 2976 2828 
Q 2694 2995 2336 2995 
Q 1978 2995 1693 2828 
Q 1408 2662 1245 2368 
Q 1082 2074 1082 1683 
Q 1082 1293 1245 995 
Q 1408 698 1693 534 
Q 1978 371 2336 371 
z
" transform="scale(0.015625)"/>
     <path id="Montserrat-Regular-63" d="M 2029 -32 
Q 1530 -32 1136 189 
Q 742 410 518 797 
Q 294 1184 294 1683 
Q 294 2189 518 2573 
Q 742 2957 1136 3174 
Q 1530 3392 2029 3392 
Q 2458 3392 2803 3225 
Q 3149 3059 3347 2726 
L 3008 2496 
Q 2835 2752 2579 2873 
Q 2323 2995 2022 2995 
Q 1664 2995 1376 2832 
Q 1088 2669 921 2374 
Q 755 2080 755 1683 
Q 755 1286 921 992 
Q 1088 698 1376 534 
Q 1664 371 2022 371 
Q 2323 371 2579 492 
Q 2835 614 3008 864 
L 3347 634 
Q 3149 307 2803 137 
Q 2458 -32 2029 -32 
z
" transform="scale(0.015625)"/>
    </defs>
    <use xlink:href="#Montserrat-Regular-4d"/>
    <use xlink:href="#Montserrat-Regular-65" x="95.499985"/>
    <use xlink:href="#Montserrat-Regular-64" x="155.899979"/>
    <use xlink:href="#Montserrat-Regular-61" x="223.699966"/>
    <use xlink:href="#Montserrat-Regular-6c" x="282.699951"/>
    <use xlink:href="#Montserrat-Regular-73" x="309.599945"/>
    <use xlink:href="#Montserrat-Regular-20" x="358.399933"/>
    <use xlink:href="#Montserrat-Regular-66" x="384.59993"/>
    <use xlink:href="#Montserrat-Regular-6f" x="418.499924"/>
    <use xlink:href="#Montserrat-Regular-72" x="481.199921"/>
    <use xlink:href="#Montserrat-Regular-20" x="521.299911"/>
    <use xlink:href="#Montserrat-Regular-46" x="547.499908"/>
    <use xlink:href="#Montserrat-Regular-69" x="610.799896"/>
    <use xlink:href="#Montserrat-Regular-6e" x="637.69989"/>
    <use xlink:href="#Montserrat-Regular-6c" x="705.299881"/>
    <use xlink:href="#Montserrat-Regular-61" x="732.199875"/>
    <use xlink:href="#Montserrat-Regular-6e" x="791.19986"/>
    <use xlink:href="#Montserrat-Regular-64" x="858.79985"/>
    <use xlink:href="#Montserrat-Regular-20" x="926.599838"/>
    <use xlink:href="#Montserrat-Regular-61" x="952.799835"/>
    <use xlink:href="#Montserrat-Regular-74" x="1011.79982"/>
    <use xlink:href="#Montserrat-Regular-20" x="1052.399811"/>
    <use xlink:href="#Montserrat-Regular-53" x="1078.599808"/>
    <use xlink:href="#Montserrat-Regular-75" x="1140.099792"/>
    <use xlink:href="#Montserrat-Regular-6d" x="1207.299789"/>
    <use xlink:href="#Montserrat-Regular-6d" x="1313.39978"/>
    <use xlink:href="#Montserrat-Regular-65" x="1419.499771"/>
    <use xlink:href="#Montserrat-Regular-72" x="1479.899765"/>
    <use xlink:href="#Montserrat-Regular-20" x="1519.999756"/>
    <use xlink:href="#Montserrat-Regular-4f" x="1546.199753"/>
    <use xlink:href="#Montserrat-Regular-6c" x="1630.099747"/>
    <use xlink:href="#Montserrat-Regular-79" x="1656.999741"/>
    <use xlink:href="#Montserrat-Regular-6d" x="1711.199738"/>
    <use xlink:href="#Montserrat-Regular-70" x="1817.299728"/>
    <use xlink:href="#Montserrat-Regular-69" x="1885.099716"/>
    <use xlink:href="#Montserrat-Regular-63" x="1911.99971"/>
    <use xlink:href="#Montserrat-Regular-73" x="1968.299698"/>
   </g>
  </g>
 </g>
 <defs>
  <clipPath id="p00e048e10e">
   <rect x="39.760938" y="40.508053" width="279" height="110.88"/>
  </clipPath>
 </defs>
</svg>
