<svg width="200mm" height="119mm" version="1.1" viewBox="0 0 200 119" xmlns="http://www.w3.org/2000/svg">
 <g transform="translate(-4.7 -4)">
 <rect x="4.7" y="4" width="200" height="119" fill="#fff"/>
 <path d="m31 8.8c30 3.4 48.9-3.4 82.2 31.6 15 15.8 32.6 24.9 48 1.7 9.6-14.4 23.9-30.9 41.2-33.4v94.1h-171z" fill="#ff0"/>
 <path d="m175 8.9 .1 2.6m-3.8-2.6 .1 2.6m-4.4-2.6 .1 2.6m-5-2.6 .1 2.6m-6.2-2.6 .1 2.6m-6.8-2.6 .1 2.6m-9.9-2.6 .1 2.6m-13-2.6 .1 2.6m-25.8-2.6 .1 2.6m-3.8-2.6 .1 2.6m-5-2.6 .1 2.6m-5-2.6 .1 2.6m-5.6-2.6 .1 2.6m-7.5-2.6 .1 2.6m-9.3-2.6 .1 2.6m-13.6-2.6 .1 2.6m123 88.8v2.7m-3.7-2.7v2.7m-4.3-2.7v2.7m-4.9-2.7v2.7m-6.1-2.7v2.7m-6.7-2.7v2.7m-9.8-2.7v2.7m-12.8-2.7v2.7m-25.7-2.7v2.7m-3.7-2.7v2.7m-4.9-2.7v2.7m-4.9-2.7v2.7m-5.5-2.7v2.7m-7.3-2.7v2.7m-9.2-2.7v2.7m-13.5-2.7v2.7" stroke="#000" stroke-width=".3"/>
 <path d="m30.7 8.8c30 3.4 48.9-3.4 82.2 31.6 15 15.8 32.6 24.9 48 1.7 9.6-14.4 23.9-30.9 41.2-33.4" fill="none" stroke="#00f"/>
 <g stroke="#000">
 <path d="m105 98v-65m51 67v-52" fill="#000" stroke-dasharray="2, 2" stroke-width=".5"/>
 <path d="m199 93.5 2.8 0m-4.6-9.4 4.6 0m-2.8-9.4 2.8 0m-4.6-9.4 4.6 0m-2.8-9.4 2.8 0m-4.6-9.4 4.6 0m-2.8-9.4 2.8 0m-4.6-9.4 4.6 0m-2.8-9.4 2.8 0m-176 84.7h4.6m-2.8-9.4 2.8 0m-4.6-9.4 4.6 0m-2.8-9.4 2.8 0m-4.6-9.4 4.6 0m-2.8-9.4 2.8 0m-4.6-9.4 4.6 0m-2.8-9.4 2.8 0m-4.6-9.4 4.6 0m-2.8-9.4 2.8 0m-4.6-9.4 4.6 0m148 0v4.8m-73.4-4.8v4.8m73.4 84.5v4.8m-73.4-4.8v4.8" fill="#ff0" stroke-width=".5"/>
 <rect x="30.7" y="8.8" width="171" height="94" fill="none" stroke-width=".7"/></g>
 <g style="font-family:'Times New Roman';-inkscape-font-specification:'Times New Roman'" font-size="8px" text-anchor="middle"><text transform="rotate(-90)"><tspan x="-56" y="12">Fractional collection efficiency</tspan></text><text><tspan x="31" y="112">0.01</tspan><tspan x="105" y="112">0.1</tspan><tspan x="179" y="112">1.0</tspan><tspan x="68" y="79">Diffusion</tspan><tspan x="68" y="87">regime</tspan><tspan x="132" y="79">Diffusion and</tspan><tspan x="132" y="87">interception</tspan><tspan x="132" y="95">regime</tspan><tspan x="179" y="59">Inertial</tspan><tspan x="180" y="67">impaction</tspan><tspan x="179" y="75">and</tspan><tspan x="179" y="83">interception</tspan><tspan x="179" y="91">regime</tspan><tspan x="118" y="119">Particle diameter (microns)</tspan></text><g text-anchor="end"><text><tspan x="25" y="11">1.0</tspan><tspan x="25" y="30">0.8</tspan><tspan x="25" y="49">0.6</tspan><tspan x="25" y="68">0.4</tspan><tspan x="25" y="87">0.2</tspan><tspan x="25" y="106">0.0</tspan></text></g></g></g></svg>