<svg width="2645" height="1654" xmlns="http://www.w3.org/2000/svg" xmlns:xlink="http://www.w3.org/1999/xlink" overflow="hidden"><defs><clipPath id="clip0"><rect x="36" y="4542" width="2645" height="1654"/></clipPath><clipPath id="clip1"><rect x="392" y="4758" width="2241" height="1237"/></clipPath><clipPath id="clip2"><rect x="392" y="4758" width="2241" height="1237"/></clipPath><clipPath id="clip3"><rect x="392" y="4758" width="2241" height="1237"/></clipPath><clipPath id="clip4"><rect x="392" y="4758" width="2241" height="1237"/></clipPath><clipPath id="clip5"><rect x="40" y="4543" width="2640" height="1650"/></clipPath><clipPath id="clip6"><rect x="40" y="4543" width="2640" height="1650"/></clipPath><clipPath id="clip7"><rect x="40" y="4543" width="2640" height="1650"/></clipPath><clipPath id="clip8"><rect x="40" y="4543" width="2640" height="1650"/></clipPath><clipPath id="clip9"><rect x="40" y="4543" width="2640" height="1650"/></clipPath><clipPath id="clip10"><rect x="40" y="4543" width="2640" height="1650"/></clipPath><clipPath id="clip11"><rect x="40" y="4543" width="2640" height="1650"/></clipPath><clipPath id="clip12"><rect x="40" y="4543" width="2640" height="1650"/></clipPath><clipPath id="clip13"><rect x="40" y="4543" width="2640" height="1650"/></clipPath><clipPath id="clip14"><rect x="40" y="4543" width="2640" height="1650"/></clipPath><clipPath id="clip15"><rect x="40" y="4543" width="2640" height="1650"/></clipPath><clipPath id="clip16"><rect x="40" y="4543" width="2640" height="1650"/></clipPath><clipPath id="clip17"><rect x="40" y="4543" width="2640" height="1650"/></clipPath><clipPath id="clip18"><rect x="40" y="4543" width="2640" height="1650"/></clipPath><clipPath id="clip19"><rect x="40" y="4543" width="2640" height="1650"/></clipPath><clipPath id="clip20"><rect x="40" y="4543" width="2640" height="1650"/></clipPath><clipPath id="clip21"><rect x="40" y="4543" width="2640" height="1650"/></clipPath><clipPath id="clip22"><rect x="40" y="4543" width="2640" height="1650"/></clipPath><clipPath id="clip23"><rect x="40" y="4543" width="2640" height="1650"/></clipPath><clipPath id="clip24"><rect x="40" y="4543" width="2640" height="1650"/></clipPath><clipPath id="clip25"><rect x="40" y="4543" width="2640" height="1650"/></clipPath><clipPath id="clip26"><rect x="40" y="4543" width="2640" height="1650"/></clipPath><clipPath id="clip27"><rect x="40" y="4543" width="2640" height="1650"/></clipPath><clipPath id="clip28"><rect x="40" y="4543" width="2640" height="1650"/></clipPath><clipPath id="clip29"><rect x="40" y="4543" width="2640" height="1650"/></clipPath><clipPath id="clip30"><rect x="40" y="4543" width="2640" height="1650"/></clipPath><clipPath id="clip31"><rect x="40" y="4543" width="2641" height="1651"/></clipPath><clipPath id="clip32"><rect x="40" y="4543" width="2641" height="1651"/></clipPath><clipPath id="clip33"><rect x="40" y="4543" width="2641" height="1651"/></clipPath><clipPath id="clip34"><rect x="40" y="4543" width="2641" height="1651"/></clipPath><clipPath id="clip35"><rect x="40" y="4543" width="2641" height="1651"/></clipPath><clipPath id="clip36"><rect x="40" y="4543" width="2641" height="1651"/></clipPath><clipPath id="clip37"><rect x="40" y="4543" width="2641" height="1651"/></clipPath><clipPath id="clip38"><rect x="40" y="4543" width="2641" height="1651"/></clipPath><clipPath id="clip39"><rect x="40" y="4543" width="2641" height="1651"/></clipPath><clipPath id="clip40"><rect x="40" y="4543" width="2641" height="1651"/></clipPath><clipPath id="clip41"><rect x="40" y="4543" width="2641" height="1651"/></clipPath><clipPath id="clip42"><rect x="40" y="4543" width="2641" height="1651"/></clipPath><clipPath id="clip43"><rect x="40" y="4543" width="2641" height="1651"/></clipPath></defs><g clip-path="url(#clip0)" transform="translate(-36 -4542)"><rect x="39.9999" y="4543" width="2640" height="1650" fill="#FFFFFF" fill-opacity="1"/><g clip-path="url(#clip1)"><path d="M-317.5 5042.5 1234.54 5315.67 1366.55 5128.67 1550.55 5188.67 1577.55 5254.67 1603.55 5214.67 1629.55 5186.67 1656.55 5291.67 1682.56 5241.67 1708.56 5169.67 1761.56 5138.67 1840.56 5191.67 1866.56 5208.67 1919.56 5191.67 1945.56 5225.67 2077.57 5388.68 2129.57 5408.68 2156.57 5467.5 2261.57 5440.68 2287.58 5419.68 2472.58 5436.68 2498.58 5350.68 2524.58 5399.68 2551.58 5387.68 2577.58 5362.68 2603.59 5449.68 2629.59 5313.67 2656.5 5375.68" stroke="#4472C4" stroke-width="6.875" stroke-linecap="round" stroke-linejoin="round" stroke-miterlimit="10" stroke-opacity="1" fill="none" fill-rule="nonzero"/></g><g clip-path="url(#clip2)"><path d="M0 0 0.000360892 432" stroke="#000000" stroke-width="4.58333" stroke-linecap="round" stroke-linejoin="round" stroke-miterlimit="10" stroke-opacity="0.501961" fill="none" fill-rule="evenodd" transform="matrix(1 0 0 -1 1603.5 5930.5)"/></g><g clip-path="url(#clip3)"><path d="M1656.5 5930.5 1656.5 5498.5" stroke="#000000" stroke-width="4.58333" stroke-linecap="round" stroke-linejoin="round" stroke-miterlimit="10" stroke-opacity="0.501961" fill="none" fill-rule="nonzero"/></g><g clip-path="url(#clip4)"><path d="M2287.5 5930.5 2287.5 5498.5" stroke="#000000" stroke-width="4.58333" stroke-linecap="round" stroke-linejoin="round" stroke-miterlimit="10" stroke-opacity="0.501961" fill="none" fill-rule="nonzero"/></g><g clip-path="url(#clip5)"><text fill="#000000" fill-opacity="1" font-family="Calibri,Calibri_MSFontService,sans-serif" font-style="normal" font-variant="normal" font-weight="400" font-stretch="normal" font-size="64" text-anchor="start" direction="ltr" writing-mode="lr-tb" unicode-bidi="normal" text-decoration="none" transform="matrix(1 0 0 1 254.836 6009)">0%</text></g><g clip-path="url(#clip6)"><text fill="#000000" fill-opacity="1" font-family="Calibri,Calibri_MSFontService,sans-serif" font-style="normal" font-variant="normal" font-weight="400" font-stretch="normal" font-size="64" text-anchor="start" direction="ltr" writing-mode="lr-tb" unicode-bidi="normal" text-decoration="none" transform="matrix(1 0 0 1 222.317 5762)">20%</text></g><g clip-path="url(#clip7)"><text fill="#000000" fill-opacity="1" font-family="Calibri,Calibri_MSFontService,sans-serif" font-style="normal" font-variant="normal" font-weight="400" font-stretch="normal" font-size="64" text-anchor="start" direction="ltr" writing-mode="lr-tb" unicode-bidi="normal" text-decoration="none" transform="matrix(1 0 0 1 222.317 5516)">40%</text></g><g clip-path="url(#clip8)"><text fill="#000000" fill-opacity="1" font-family="Calibri,Calibri_MSFontService,sans-serif" font-style="normal" font-variant="normal" font-weight="400" font-stretch="normal" font-size="64" text-anchor="start" direction="ltr" writing-mode="lr-tb" unicode-bidi="normal" text-decoration="none" transform="matrix(1 0 0 1 222.317 5269)">60%</text></g><g clip-path="url(#clip9)"><text fill="#000000" fill-opacity="1" font-family="Calibri,Calibri_MSFontService,sans-serif" font-style="normal" font-variant="normal" font-weight="400" font-stretch="normal" font-size="64" text-anchor="start" direction="ltr" writing-mode="lr-tb" unicode-bidi="normal" text-decoration="none" transform="matrix(1 0 0 1 222.317 5022)">80%</text></g><g clip-path="url(#clip10)"><text fill="#000000" fill-opacity="1" font-family="Calibri,Calibri_MSFontService,sans-serif" font-style="normal" font-variant="normal" font-weight="400" font-stretch="normal" font-size="64" text-anchor="start" direction="ltr" writing-mode="lr-tb" unicode-bidi="normal" text-decoration="none" transform="matrix(1 0 0 1 189.798 4775)">100%</text></g><g clip-path="url(#clip11)"><text fill="#000000" fill-opacity="1" font-family="Calibri,Calibri_MSFontService,sans-serif" font-style="normal" font-variant="normal" font-weight="400" font-stretch="normal" font-size="64" text-anchor="start" direction="ltr" writing-mode="lr-tb" unicode-bidi="normal" text-decoration="none" transform="matrix(6.12323e-17 -1 1 6.12323e-17 414.635 6163)">1935</text></g><g clip-path="url(#clip12)"><text fill="#000000" fill-opacity="1" font-family="Calibri,Calibri_MSFontService,sans-serif" font-style="normal" font-variant="normal" font-weight="400" font-stretch="normal" font-size="64" text-anchor="start" direction="ltr" writing-mode="lr-tb" unicode-bidi="normal" text-decoration="none" transform="matrix(6.12323e-17 -1 1 6.12323e-17 546.219 6163)">1940</text></g><g clip-path="url(#clip13)"><text fill="#000000" fill-opacity="1" font-family="Calibri,Calibri_MSFontService,sans-serif" font-style="normal" font-variant="normal" font-weight="400" font-stretch="normal" font-size="64" text-anchor="start" direction="ltr" writing-mode="lr-tb" unicode-bidi="normal" text-decoration="none" transform="matrix(6.12323e-17 -1 1 6.12323e-17 677.875 6163)">1945</text></g><g clip-path="url(#clip14)"><text fill="#000000" fill-opacity="1" font-family="Calibri,Calibri_MSFontService,sans-serif" font-style="normal" font-variant="normal" font-weight="400" font-stretch="normal" font-size="64" text-anchor="start" direction="ltr" writing-mode="lr-tb" unicode-bidi="normal" text-decoration="none" transform="matrix(6.12323e-17 -1 1 6.12323e-17 809.458 6163)">1950</text></g><g clip-path="url(#clip15)"><text fill="#000000" fill-opacity="1" font-family="Calibri,Calibri_MSFontService,sans-serif" font-style="normal" font-variant="normal" font-weight="400" font-stretch="normal" font-size="64" text-anchor="start" direction="ltr" writing-mode="lr-tb" unicode-bidi="normal" text-decoration="none" transform="matrix(6.12323e-17 -1 1 6.12323e-17 941.042 6163)">1955</text></g><g clip-path="url(#clip16)"><text fill="#000000" fill-opacity="1" font-family="Calibri,Calibri_MSFontService,sans-serif" font-style="normal" font-variant="normal" font-weight="400" font-stretch="normal" font-size="64" text-anchor="start" direction="ltr" writing-mode="lr-tb" unicode-bidi="normal" text-decoration="none" transform="matrix(6.12323e-17 -1 1 6.12323e-17 1072.63 6163)">1960</text></g><g clip-path="url(#clip17)"><text fill="#000000" fill-opacity="1" font-family="Calibri,Calibri_MSFontService,sans-serif" font-style="normal" font-variant="normal" font-weight="400" font-stretch="normal" font-size="64" text-anchor="start" direction="ltr" writing-mode="lr-tb" unicode-bidi="normal" text-decoration="none" transform="matrix(6.12323e-17 -1 1 6.12323e-17 1204.28 6163)">1965</text></g><g clip-path="url(#clip18)"><text fill="#000000" fill-opacity="1" font-family="Calibri,Calibri_MSFontService,sans-serif" font-style="normal" font-variant="normal" font-weight="400" font-stretch="normal" font-size="64" text-anchor="start" direction="ltr" writing-mode="lr-tb" unicode-bidi="normal" text-decoration="none" transform="matrix(6.12323e-17 -1 1 6.12323e-17 1335.86 6163)">1970</text></g><g clip-path="url(#clip19)"><text fill="#000000" fill-opacity="1" font-family="Calibri,Calibri_MSFontService,sans-serif" font-style="normal" font-variant="normal" font-weight="400" font-stretch="normal" font-size="64" text-anchor="start" direction="ltr" writing-mode="lr-tb" unicode-bidi="normal" text-decoration="none" transform="matrix(6.12323e-17 -1 1 6.12323e-17 1467.45 6163)">1975</text></g><g clip-path="url(#clip20)"><text fill="#000000" fill-opacity="1" font-family="Calibri,Calibri_MSFontService,sans-serif" font-style="normal" font-variant="normal" font-weight="400" font-stretch="normal" font-size="64" text-anchor="start" direction="ltr" writing-mode="lr-tb" unicode-bidi="normal" text-decoration="none" transform="matrix(6.12323e-17 -1 1 6.12323e-17 1599.03 6163)">1980</text></g><g clip-path="url(#clip21)"><text fill="#000000" fill-opacity="1" font-family="Calibri,Calibri_MSFontService,sans-serif" font-style="normal" font-variant="normal" font-weight="400" font-stretch="normal" font-size="64" text-anchor="start" direction="ltr" writing-mode="lr-tb" unicode-bidi="normal" text-decoration="none" transform="matrix(6.12323e-17 -1 1 6.12323e-17 1730.69 6163)">1985</text></g><g clip-path="url(#clip22)"><text fill="#000000" fill-opacity="1" font-family="Calibri,Calibri_MSFontService,sans-serif" font-style="normal" font-variant="normal" font-weight="400" font-stretch="normal" font-size="64" text-anchor="start" direction="ltr" writing-mode="lr-tb" unicode-bidi="normal" text-decoration="none" transform="matrix(6.12323e-17 -1 1 6.12323e-17 1862.27 6163)">1990</text></g><g clip-path="url(#clip23)"><text fill="#000000" fill-opacity="1" font-family="Calibri,Calibri_MSFontService,sans-serif" font-style="normal" font-variant="normal" font-weight="400" font-stretch="normal" font-size="64" text-anchor="start" direction="ltr" writing-mode="lr-tb" unicode-bidi="normal" text-decoration="none" transform="matrix(6.12323e-17 -1 1 6.12323e-17 1993.85 6163)">1995</text></g><g clip-path="url(#clip24)"><text fill="#000000" fill-opacity="1" font-family="Calibri,Calibri_MSFontService,sans-serif" font-style="normal" font-variant="normal" font-weight="400" font-stretch="normal" font-size="64" text-anchor="start" direction="ltr" writing-mode="lr-tb" unicode-bidi="normal" text-decoration="none" transform="matrix(6.12323e-17 -1 1 6.12323e-17 2125.44 6163)">2000</text></g><g clip-path="url(#clip25)"><text fill="#000000" fill-opacity="1" font-family="Calibri,Calibri_MSFontService,sans-serif" font-style="normal" font-variant="normal" font-weight="400" font-stretch="normal" font-size="64" text-anchor="start" direction="ltr" writing-mode="lr-tb" unicode-bidi="normal" text-decoration="none" transform="matrix(6.12323e-17 -1 1 6.12323e-17 2257.09 6163)">2005</text></g><g clip-path="url(#clip26)"><text fill="#000000" fill-opacity="1" font-family="Calibri,Calibri_MSFontService,sans-serif" font-style="normal" font-variant="normal" font-weight="400" font-stretch="normal" font-size="64" text-anchor="start" direction="ltr" writing-mode="lr-tb" unicode-bidi="normal" text-decoration="none" transform="matrix(6.12323e-17 -1 1 6.12323e-17 2388.68 6163)">2010</text></g><g clip-path="url(#clip27)"><text fill="#000000" fill-opacity="1" font-family="Calibri,Calibri_MSFontService,sans-serif" font-style="normal" font-variant="normal" font-weight="400" font-stretch="normal" font-size="64" text-anchor="start" direction="ltr" writing-mode="lr-tb" unicode-bidi="normal" text-decoration="none" transform="matrix(6.12323e-17 -1 1 6.12323e-17 2520.26 6163)">2015</text></g><g clip-path="url(#clip28)"><text fill="#000000" fill-opacity="1" font-family="Calibri,Calibri_MSFontService,sans-serif" font-style="normal" font-variant="normal" font-weight="400" font-stretch="normal" font-size="64" text-anchor="start" direction="ltr" writing-mode="lr-tb" unicode-bidi="normal" text-decoration="none" transform="matrix(6.12323e-17 -1 1 6.12323e-17 2651.84 6163)">2020</text></g><g clip-path="url(#clip29)"><text fill="#000000" fill-opacity="1" font-family="Calibri,Calibri_MSFontService,sans-serif" font-style="normal" font-variant="normal" font-weight="400" font-stretch="normal" font-size="64" text-anchor="start" direction="ltr" writing-mode="lr-tb" unicode-bidi="normal" text-decoration="none" transform="matrix(6.12323e-17 -1 1 6.12323e-17 158.746 5783)">Favor death penalty for murder</text></g><g clip-path="url(#clip30)"><text fill="#000000" fill-opacity="1" font-family="Calibri,Calibri_MSFontService,sans-serif" font-style="normal" font-variant="normal" font-weight="400" font-stretch="normal" font-size="92" text-anchor="start" direction="ltr" writing-mode="lr-tb" unicode-bidi="normal" text-decoration="none" transform="matrix(1 0 0 1 476.955 4665)">Popular support for the death penalty in France</text></g><g clip-path="url(#clip31)"><text fill="#000000" fill-opacity="1" font-family="Calibri,Calibri_MSFontService,sans-serif" font-style="normal" font-variant="normal" font-weight="400" font-stretch="normal" font-size="50" text-anchor="start" direction="ltr" writing-mode="lr-tb" unicode-bidi="normal" text-decoration="none" transform="matrix(1 0 0 1 1300.57 5654)">In 1981, the</text></g><g clip-path="url(#clip32)"><text fill="#000000" fill-opacity="1" font-family="Calibri,Calibri_MSFontService,sans-serif" font-style="normal" font-variant="normal" font-weight="400" font-stretch="normal" font-size="50" text-anchor="start" direction="ltr" writing-mode="lr-tb" unicode-bidi="normal" text-decoration="none" transform="matrix(1 0 0 1 1219.1 5715)">death penalty is </text></g><g clip-path="url(#clip33)"><text fill="#000000" fill-opacity="1" font-family="Calibri,Calibri_MSFontService,sans-serif" font-style="normal" font-variant="normal" font-weight="400" font-stretch="normal" font-size="50" text-anchor="start" direction="ltr" writing-mode="lr-tb" unicode-bidi="normal" text-decoration="none" transform="matrix(1 0 0 1 1334.92 5777)">abolished.</text></g><g clip-path="url(#clip34)"><text fill="#000000" fill-opacity="1" font-family="Calibri,Calibri_MSFontService,sans-serif" font-style="normal" font-variant="normal" font-weight="400" font-stretch="normal" font-size="50" text-anchor="start" direction="ltr" writing-mode="lr-tb" unicode-bidi="normal" text-decoration="none" transform="matrix(1 0 0 1 1690.34 5640)">In 1983, the </text></g><g clip-path="url(#clip35)"><text fill="#000000" fill-opacity="1" font-family="Calibri,Calibri_MSFontService,sans-serif" font-style="normal" font-variant="normal" font-weight="400" font-stretch="normal" font-size="50" text-anchor="start" direction="ltr" writing-mode="lr-tb" unicode-bidi="normal" text-decoration="none" transform="matrix(1 0 0 1 1690.34 5701)">RCHR makes </text></g><g clip-path="url(#clip36)"><text fill="#000000" fill-opacity="1" font-family="Calibri,Calibri_MSFontService,sans-serif" font-style="normal" font-variant="normal" font-weight="400" font-stretch="normal" font-size="50" text-anchor="start" direction="ltr" writing-mode="lr-tb" unicode-bidi="normal" text-decoration="none" transform="matrix(1 0 0 1 1690.34 5763)">abolition a </text></g><g clip-path="url(#clip37)"><text fill="#000000" fill-opacity="1" font-family="Calibri,Calibri_MSFontService,sans-serif" font-style="normal" font-variant="normal" font-weight="400" font-stretch="normal" font-size="50" text-anchor="start" direction="ltr" writing-mode="lr-tb" unicode-bidi="normal" text-decoration="none" transform="matrix(1 0 0 1 1690.34 5825)">matter of </text></g><g clip-path="url(#clip38)"><text fill="#000000" fill-opacity="1" font-family="Calibri,Calibri_MSFontService,sans-serif" font-style="normal" font-variant="normal" font-weight="400" font-stretch="normal" font-size="50" text-anchor="start" direction="ltr" writing-mode="lr-tb" unicode-bidi="normal" text-decoration="none" transform="matrix(1 0 0 1 1690.34 5886)">treaty.</text></g><g clip-path="url(#clip39)"><text fill="#000000" fill-opacity="1" font-family="Calibri,Calibri_MSFontService,sans-serif" font-style="normal" font-variant="normal" font-weight="400" font-stretch="normal" font-size="50" text-anchor="start" direction="ltr" writing-mode="lr-tb" unicode-bidi="normal" text-decoration="none" transform="matrix(1 0 0 1 2322.23 5624)">in 2007, </text></g><g clip-path="url(#clip40)"><text fill="#000000" fill-opacity="1" font-family="Calibri,Calibri_MSFontService,sans-serif" font-style="normal" font-variant="normal" font-weight="400" font-stretch="normal" font-size="50" text-anchor="start" direction="ltr" writing-mode="lr-tb" unicode-bidi="normal" text-decoration="none" transform="matrix(1 0 0 1 2322.23 5685)">abolition is </text></g><g clip-path="url(#clip41)"><text fill="#000000" fill-opacity="1" font-family="Calibri,Calibri_MSFontService,sans-serif" font-style="normal" font-variant="normal" font-weight="400" font-stretch="normal" font-size="50" text-anchor="start" direction="ltr" writing-mode="lr-tb" unicode-bidi="normal" text-decoration="none" transform="matrix(1 0 0 1 2322.23 5747)">added to the </text></g><g clip-path="url(#clip42)"><text fill="#000000" fill-opacity="1" font-family="Calibri,Calibri_MSFontService,sans-serif" font-style="normal" font-variant="normal" font-weight="400" font-stretch="normal" font-size="50" text-anchor="start" direction="ltr" writing-mode="lr-tb" unicode-bidi="normal" text-decoration="none" transform="matrix(1 0 0 1 2322.23 5809)">constitution.</text></g><g clip-path="url(#clip43)"><text fill="#D0CECE" fill-opacity="1" font-family="Courier,Courier_MSFontService,sans-serif" font-style="normal" font-variant="normal" font-weight="400" font-stretch="normal" font-size="28" text-anchor="start" direction="ltr" writing-mode="lr-tb" unicode-bidi="normal" text-decoration="none" transform="matrix(1 0 0 1 2410.22 6007)">dynomight.net</text></g></g></svg>