<svg width="2644" height="1655" xmlns="http://www.w3.org/2000/svg" xmlns:xlink="http://www.w3.org/1999/xlink" overflow="hidden"><defs><clipPath id="clip0"><rect x="9" y="4830" width="2644" height="1655"/></clipPath><clipPath id="clip1"><rect x="362" y="5050" width="2240" height="1237"/></clipPath><clipPath id="clip2"><rect x="9" y="4835" width="2640" height="1650"/></clipPath><clipPath id="clip3"><rect x="362" y="5050" width="2240" height="1237"/></clipPath><clipPath id="clip4"><rect x="362" y="5050" width="2240" height="1237"/></clipPath><clipPath id="clip5"><rect x="9" y="4835" width="2640" height="1650"/></clipPath><clipPath id="clip6"><rect x="9" y="4835" width="2640" height="1650"/></clipPath><clipPath id="clip7"><rect x="9" y="4835" width="2640" height="1650"/></clipPath><clipPath id="clip8"><rect x="9" y="4835" width="2640" height="1650"/></clipPath><clipPath id="clip9"><rect x="9" y="4835" width="2640" height="1650"/></clipPath><clipPath id="clip10"><rect x="9" y="4835" width="2640" height="1650"/></clipPath><clipPath id="clip11"><rect x="9" y="4835" width="2640" height="1650"/></clipPath><clipPath id="clip12"><rect x="9" y="4835" width="2640" height="1650"/></clipPath><clipPath id="clip13"><rect x="9" y="4835" width="2640" height="1650"/></clipPath><clipPath id="clip14"><rect x="9" y="4835" width="2640" height="1650"/></clipPath><clipPath id="clip15"><rect x="9" y="4835" width="2640" height="1650"/></clipPath><clipPath id="clip16"><rect x="9" y="4835" width="2640" height="1650"/></clipPath><clipPath id="clip17"><rect x="9" y="4835" width="2640" height="1650"/></clipPath><clipPath id="clip18"><rect x="9" y="4835" width="2640" height="1650"/></clipPath><clipPath id="clip19"><rect x="9" y="4835" width="2640" height="1650"/></clipPath><clipPath id="clip20"><rect x="9" y="4835" width="2640" height="1650"/></clipPath><clipPath id="clip21"><rect x="9" y="4835" width="2640" height="1650"/></clipPath><clipPath id="clip22"><rect x="9" y="4835" width="2640" height="1650"/></clipPath><clipPath id="clip23"><rect x="9" y="4835" width="2640" height="1650"/></clipPath><clipPath id="clip24"><rect x="9" y="4835" width="2640" height="1650"/></clipPath><clipPath id="clip25"><rect x="9" y="4835" width="2640" height="1650"/></clipPath><clipPath id="clip26"><rect x="9" y="4835" width="2640" height="1650"/></clipPath><clipPath id="clip27"><rect x="9" y="4835" width="2640" height="1650"/></clipPath><clipPath id="clip28"><rect x="9" y="4835" width="2640" height="1650"/></clipPath><clipPath id="clip29"><rect x="9" y="4835" width="2640" height="1650"/></clipPath><clipPath id="clip30"><rect x="9" y="4835" width="2640" height="1650"/></clipPath><clipPath id="clip31"><rect x="9" y="4835" width="2641" height="1651"/></clipPath><clipPath id="clip32"><rect x="9" y="4835" width="2641" height="1651"/></clipPath><clipPath id="clip33"><rect x="9" y="4835" width="2641" height="1651"/></clipPath><clipPath id="clip34"><rect x="9" y="4835" width="2641" height="1651"/></clipPath><clipPath id="clip35"><rect x="9" y="4835" width="2641" height="1651"/></clipPath><clipPath id="clip36"><rect x="9" y="4835" width="2641" height="1651"/></clipPath><clipPath id="clip37"><rect x="9" y="4835" width="2641" height="1651"/></clipPath><clipPath id="clip38"><rect x="9" y="4835" width="2641" height="1651"/></clipPath><clipPath id="clip39"><rect x="9" y="4835" width="2641" height="1651"/></clipPath><clipPath id="clip40"><rect x="9" y="4835" width="2641" height="1651"/></clipPath><clipPath id="clip41"><rect x="9" y="4835" width="2641" height="1651"/></clipPath><clipPath id="clip42"><rect x="9" y="4835" width="2641" height="1651"/></clipPath><clipPath id="clip43"><rect x="9" y="4835" width="2641" height="1651"/></clipPath><clipPath id="clip44"><rect x="9" y="4835" width="2641" height="1651"/></clipPath><clipPath id="clip45"><rect x="9" y="4835" width="2641" height="1651"/></clipPath><clipPath id="clip46"><rect x="9" y="4835" width="2641" height="1651"/></clipPath><clipPath id="clip47"><rect x="9" y="4835" width="2641" height="1651"/></clipPath><clipPath id="clip48"><rect x="9" y="4835" width="2641" height="1651"/></clipPath><clipPath id="clip49"><rect x="9" y="4835" width="2641" height="1651"/></clipPath><clipPath id="clip50"><rect x="9" y="4835" width="2641" height="1651"/></clipPath></defs><g clip-path="url(#clip0)" transform="translate(-9 -4830)"><rect x="9.99997" y="4835" width="2640" height="1650" fill="#FFFFFF" fill-opacity="1"/><g clip-path="url(#clip1)"><path d="M730.5 5334.68 757.525 5485.68 809.527 5466.68 862.528 5262.67 967.532 5255.67 967.532 5214.5 1020.53 5408.68 1020.53 5451.68 1046.53 5369.68 1099.54 5501.68 1204.54 5522.68 1336.54 5810.69 1362.54 5797.69 1414.55 5770.69 1467.55 5607.68 1520.55 5630.69 1625.55 5835.69 1704.56 5927.69 1862.56 5914.69 1941.56 5838.69 1967.56 5744.69 2072.57 5910.69 2204.57 5949.7 2257.57 5839.69 2309.5 6055.5" stroke="#4472C4" stroke-width="6.875" stroke-linecap="round" stroke-linejoin="round" stroke-miterlimit="10" stroke-opacity="1" fill="none" fill-rule="nonzero"/></g><g clip-path="url(#clip2)"><path d="M741.394 5334.63C741.394 5340.7 736.469 5345.63 730.394 5345.63 724.319 5345.63 719.395 5340.7 719.395 5334.63 719.395 5328.55 724.319 5323.63 730.394 5323.63 736.469 5323.63 741.394 5328.55 741.394 5334.63Z" stroke="#4472C4" stroke-width="3.4375" stroke-linecap="butt" stroke-linejoin="round" stroke-miterlimit="10" stroke-opacity="1" fill="#4472C4" fill-rule="nonzero" fill-opacity="1"/><path d="M768.394 5485.63C768.394 5491.7 763.469 5496.63 757.394 5496.63 751.319 5496.63 746.395 5491.7 746.395 5485.63 746.395 5479.55 751.319 5474.63 757.394 5474.63 763.469 5474.63 768.394 5479.55 768.394 5485.63Z" stroke="#4472C4" stroke-width="3.4375" stroke-linecap="butt" stroke-linejoin="round" stroke-miterlimit="10" stroke-opacity="1" fill="#4472C4" fill-rule="nonzero" fill-opacity="1"/><path d="M820.394 5466.63C820.394 5472.7 815.469 5477.63 809.394 5477.63 803.319 5477.63 798.395 5472.7 798.395 5466.63 798.395 5460.55 803.319 5455.63 809.394 5455.63 815.469 5455.63 820.394 5460.55 820.394 5466.63Z" stroke="#4472C4" stroke-width="3.4375" stroke-linecap="butt" stroke-linejoin="round" stroke-miterlimit="10" stroke-opacity="1" fill="#4472C4" fill-rule="nonzero" fill-opacity="1"/><path d="M873.394 5263.63C873.394 5269.7 868.469 5274.63 862.394 5274.63 856.319 5274.63 851.395 5269.7 851.395 5263.63 851.395 5257.55 856.319 5252.63 862.394 5252.63 868.469 5252.63 873.394 5257.55 873.394 5263.63Z" stroke="#4472C4" stroke-width="3.4375" stroke-linecap="butt" stroke-linejoin="round" stroke-miterlimit="10" stroke-opacity="1" fill="#4472C4" fill-rule="nonzero" fill-opacity="1"/><path d="M978.394 5256.63C978.394 5262.7 973.469 5267.63 967.394 5267.63 961.32 5267.63 956.395 5262.7 956.395 5256.63 956.395 5250.55 961.32 5245.63 967.394 5245.63 973.469 5245.63 978.394 5250.55 978.394 5256.63Z" stroke="#4472C4" stroke-width="3.4375" stroke-linecap="butt" stroke-linejoin="round" stroke-miterlimit="10" stroke-opacity="1" fill="#4472C4" fill-rule="nonzero" fill-opacity="1"/><path d="M978.394 5214.63C978.394 5220.7 973.469 5225.63 967.394 5225.63 961.32 5225.63 956.395 5220.7 956.395 5214.63 956.395 5208.55 961.32 5203.63 967.394 5203.63 973.469 5203.63 978.394 5208.55 978.394 5214.63Z" stroke="#4472C4" stroke-width="3.4375" stroke-linecap="butt" stroke-linejoin="round" stroke-miterlimit="10" stroke-opacity="1" fill="#4472C4" fill-rule="nonzero" fill-opacity="1"/><path d="M1031.39 5408.63C1031.39 5414.7 1026.47 5419.63 1020.39 5419.63 1014.32 5419.63 1009.39 5414.7 1009.39 5408.63 1009.39 5402.55 1014.32 5397.63 1020.39 5397.63 1026.47 5397.63 1031.39 5402.55 1031.39 5408.63Z" stroke="#4472C4" stroke-width="3.4375" stroke-linecap="butt" stroke-linejoin="round" stroke-miterlimit="10" stroke-opacity="1" fill="#4472C4" fill-rule="nonzero" fill-opacity="1"/><path d="M1031.39 5451.63C1031.39 5457.7 1026.47 5462.63 1020.39 5462.63 1014.32 5462.63 1009.39 5457.7 1009.39 5451.63 1009.39 5445.55 1014.32 5440.63 1020.39 5440.63 1026.47 5440.63 1031.39 5445.55 1031.39 5451.63Z" stroke="#4472C4" stroke-width="3.4375" stroke-linecap="butt" stroke-linejoin="round" stroke-miterlimit="10" stroke-opacity="1" fill="#4472C4" fill-rule="nonzero" fill-opacity="1"/><path d="M1057.39 5369.63C1057.39 5375.7 1052.47 5380.63 1046.39 5380.63 1040.32 5380.63 1035.39 5375.7 1035.39 5369.63 1035.39 5363.55 1040.32 5358.63 1046.39 5358.63 1052.47 5358.63 1057.39 5363.55 1057.39 5369.63Z" stroke="#4472C4" stroke-width="3.4375" stroke-linecap="butt" stroke-linejoin="round" stroke-miterlimit="10" stroke-opacity="1" fill="#4472C4" fill-rule="nonzero" fill-opacity="1"/><path d="M1110.39 5501.63C1110.39 5507.7 1105.47 5512.63 1099.39 5512.63 1093.32 5512.63 1088.39 5507.7 1088.39 5501.63 1088.39 5495.55 1093.32 5490.63 1099.39 5490.63 1105.47 5490.63 1110.39 5495.55 1110.39 5501.63Z" stroke="#4472C4" stroke-width="3.4375" stroke-linecap="butt" stroke-linejoin="round" stroke-miterlimit="10" stroke-opacity="1" fill="#4472C4" fill-rule="nonzero" fill-opacity="1"/><path d="M1215.39 5522.63C1215.39 5528.7 1210.47 5533.63 1204.39 5533.63 1198.32 5533.63 1193.39 5528.7 1193.39 5522.63 1193.39 5516.55 1198.32 5511.63 1204.39 5511.63 1210.47 5511.63 1215.39 5516.55 1215.39 5522.63Z" stroke="#4472C4" stroke-width="3.4375" stroke-linecap="butt" stroke-linejoin="round" stroke-miterlimit="10" stroke-opacity="1" fill="#4472C4" fill-rule="nonzero" fill-opacity="1"/><path d="M1347.39 5810.63C1347.39 5816.7 1342.47 5821.63 1336.39 5821.63 1330.32 5821.63 1325.39 5816.7 1325.39 5810.63 1325.39 5804.55 1330.32 5799.63 1336.39 5799.63 1342.47 5799.63 1347.39 5804.55 1347.39 5810.63Z" stroke="#4472C4" stroke-width="3.4375" stroke-linecap="butt" stroke-linejoin="round" stroke-miterlimit="10" stroke-opacity="1" fill="#4472C4" fill-rule="nonzero" fill-opacity="1"/><path d="M1373.39 5797.63C1373.39 5803.7 1368.47 5808.63 1362.39 5808.63 1356.32 5808.63 1351.39 5803.7 1351.39 5797.63 1351.39 5791.55 1356.32 5786.63 1362.39 5786.63 1368.47 5786.63 1373.39 5791.55 1373.39 5797.63Z" stroke="#4472C4" stroke-width="3.4375" stroke-linecap="butt" stroke-linejoin="round" stroke-miterlimit="10" stroke-opacity="1" fill="#4472C4" fill-rule="nonzero" fill-opacity="1"/><path d="M1426.39 5770.63C1426.39 5776.7 1421.47 5781.63 1415.39 5781.63 1409.32 5781.63 1404.39 5776.7 1404.39 5770.63 1404.39 5764.55 1409.32 5759.63 1415.39 5759.63 1421.47 5759.63 1426.39 5764.55 1426.39 5770.63Z" stroke="#4472C4" stroke-width="3.4375" stroke-linecap="butt" stroke-linejoin="round" stroke-miterlimit="10" stroke-opacity="1" fill="#4472C4" fill-rule="nonzero" fill-opacity="1"/><path d="M1478.39 5607.63C1478.39 5613.7 1473.47 5618.63 1467.39 5618.63 1461.32 5618.63 1456.39 5613.7 1456.39 5607.63 1456.39 5601.55 1461.32 5596.63 1467.39 5596.63 1473.47 5596.63 1478.39 5601.55 1478.39 5607.63Z" stroke="#4472C4" stroke-width="3.4375" stroke-linecap="butt" stroke-linejoin="round" stroke-miterlimit="10" stroke-opacity="1" fill="#4472C4" fill-rule="nonzero" fill-opacity="1"/><path d="M1531.39 5630.63C1531.39 5636.7 1526.47 5641.63 1520.39 5641.63 1514.32 5641.63 1509.39 5636.7 1509.39 5630.63 1509.39 5624.55 1514.32 5619.63 1520.39 5619.63 1526.47 5619.63 1531.39 5624.55 1531.39 5630.63Z" stroke="#4472C4" stroke-width="3.4375" stroke-linecap="butt" stroke-linejoin="round" stroke-miterlimit="10" stroke-opacity="1" fill="#4472C4" fill-rule="nonzero" fill-opacity="1"/><path d="M1636.39 5835.63C1636.39 5841.7 1631.47 5846.63 1625.39 5846.63 1619.32 5846.63 1614.39 5841.7 1614.39 5835.63 1614.39 5829.55 1619.32 5824.63 1625.39 5824.63 1631.47 5824.63 1636.39 5829.55 1636.39 5835.63Z" stroke="#4472C4" stroke-width="3.4375" stroke-linecap="butt" stroke-linejoin="round" stroke-miterlimit="10" stroke-opacity="1" fill="#4472C4" fill-rule="nonzero" fill-opacity="1"/><path d="M1715.39 5927.63C1715.39 5933.7 1710.47 5938.63 1704.39 5938.63 1698.32 5938.63 1693.39 5933.7 1693.39 5927.63 1693.39 5921.55 1698.32 5916.63 1704.39 5916.63 1710.47 5916.63 1715.39 5921.55 1715.39 5927.63Z" stroke="#4472C4" stroke-width="3.4375" stroke-linecap="butt" stroke-linejoin="round" stroke-miterlimit="10" stroke-opacity="1" fill="#4472C4" fill-rule="nonzero" fill-opacity="1"/><path d="M1873.39 5914.63C1873.39 5920.7 1868.47 5925.63 1862.39 5925.63 1856.32 5925.63 1851.39 5920.7 1851.39 5914.63 1851.39 5908.55 1856.32 5903.63 1862.39 5903.63 1868.47 5903.63 1873.39 5908.55 1873.39 5914.63Z" stroke="#4472C4" stroke-width="3.4375" stroke-linecap="butt" stroke-linejoin="round" stroke-miterlimit="10" stroke-opacity="1" fill="#4472C4" fill-rule="nonzero" fill-opacity="1"/><path d="M1952.39 5838.63C1952.39 5844.7 1947.47 5849.63 1941.39 5849.63 1935.32 5849.63 1930.39 5844.7 1930.39 5838.63 1930.39 5832.55 1935.32 5827.63 1941.39 5827.63 1947.47 5827.63 1952.39 5832.55 1952.39 5838.63Z" stroke="#4472C4" stroke-width="3.4375" stroke-linecap="butt" stroke-linejoin="round" stroke-miterlimit="10" stroke-opacity="1" fill="#4472C4" fill-rule="nonzero" fill-opacity="1"/><path d="M1978.39 5744.63C1978.39 5750.7 1973.47 5755.63 1967.39 5755.63 1961.32 5755.63 1956.39 5750.7 1956.39 5744.63 1956.39 5738.55 1961.32 5733.63 1967.39 5733.63 1973.47 5733.63 1978.39 5738.55 1978.39 5744.63Z" stroke="#4472C4" stroke-width="3.4375" stroke-linecap="butt" stroke-linejoin="round" stroke-miterlimit="10" stroke-opacity="1" fill="#4472C4" fill-rule="nonzero" fill-opacity="1"/><path d="M2084.39 5911.63C2084.39 5917.7 2079.47 5922.63 2073.39 5922.63 2067.32 5922.63 2062.39 5917.7 2062.39 5911.63 2062.39 5905.55 2067.32 5900.63 2073.39 5900.63 2079.47 5900.63 2084.39 5905.55 2084.39 5911.63Z" stroke="#4472C4" stroke-width="3.4375" stroke-linecap="butt" stroke-linejoin="round" stroke-miterlimit="10" stroke-opacity="1" fill="#4472C4" fill-rule="nonzero" fill-opacity="1"/><path d="M2215.39 5949.63C2215.39 5955.7 2210.47 5960.63 2204.39 5960.63 2198.32 5960.63 2193.39 5955.7 2193.39 5949.63 2193.39 5943.55 2198.32 5938.63 2204.39 5938.63 2210.47 5938.63 2215.39 5943.55 2215.39 5949.63Z" stroke="#4472C4" stroke-width="3.4375" stroke-linecap="butt" stroke-linejoin="round" stroke-miterlimit="10" stroke-opacity="1" fill="#4472C4" fill-rule="nonzero" fill-opacity="1"/><path d="M2268.39 5839.63C2268.39 5845.7 2263.47 5850.63 2257.39 5850.63 2251.32 5850.63 2246.39 5845.7 2246.39 5839.63 2246.39 5833.55 2251.32 5828.63 2257.39 5828.63 2263.47 5828.63 2268.39 5833.55 2268.39 5839.63Z" stroke="#4472C4" stroke-width="3.4375" stroke-linecap="butt" stroke-linejoin="round" stroke-miterlimit="10" stroke-opacity="1" fill="#4472C4" fill-rule="nonzero" fill-opacity="1"/><path d="M2320.39 6055.63C2320.39 6061.7 2315.47 6066.63 2309.39 6066.63 2303.32 6066.63 2298.39 6061.7 2298.39 6055.63 2298.39 6049.55 2303.32 6044.63 2309.39 6044.63 2315.47 6044.63 2320.39 6049.55 2320.39 6055.63Z" stroke="#4472C4" stroke-width="3.4375" stroke-linecap="butt" stroke-linejoin="round" stroke-miterlimit="10" stroke-opacity="1" fill="#4472C4" fill-rule="nonzero" fill-opacity="1"/></g><g clip-path="url(#clip3)"><path d="M0 0 0.000360892 432" stroke="#000000" stroke-width="4.58333" stroke-linecap="round" stroke-linejoin="round" stroke-miterlimit="10" stroke-opacity="0.501961" fill="none" fill-rule="evenodd" transform="matrix(1 0 0 -1 730.5 6222.5)"/></g><g clip-path="url(#clip4)"><path d="M1809.5 6222.5 1809.5 5790.5" stroke="#000000" stroke-width="4.58333" stroke-linecap="round" stroke-linejoin="round" stroke-miterlimit="10" stroke-opacity="0.501961" fill="none" fill-rule="nonzero"/></g><g clip-path="url(#clip5)"><text fill="#000000" fill-opacity="1" font-family="Calibri,Calibri_MSFontService,sans-serif" font-style="normal" font-variant="normal" font-weight="400" font-stretch="normal" font-size="64" text-anchor="start" direction="ltr" writing-mode="lr-tb" unicode-bidi="normal" text-decoration="none" transform="matrix(1 0 0 1 224.281 6301)">0%</text></g><g clip-path="url(#clip6)"><text fill="#000000" fill-opacity="1" font-family="Calibri,Calibri_MSFontService,sans-serif" font-style="normal" font-variant="normal" font-weight="400" font-stretch="normal" font-size="64" text-anchor="start" direction="ltr" writing-mode="lr-tb" unicode-bidi="normal" text-decoration="none" transform="matrix(1 0 0 1 191.762 6054)">20%</text></g><g clip-path="url(#clip7)"><text fill="#000000" fill-opacity="1" font-family="Calibri,Calibri_MSFontService,sans-serif" font-style="normal" font-variant="normal" font-weight="400" font-stretch="normal" font-size="64" text-anchor="start" direction="ltr" writing-mode="lr-tb" unicode-bidi="normal" text-decoration="none" transform="matrix(1 0 0 1 191.762 5808)">40%</text></g><g clip-path="url(#clip8)"><text fill="#000000" fill-opacity="1" font-family="Calibri,Calibri_MSFontService,sans-serif" font-style="normal" font-variant="normal" font-weight="400" font-stretch="normal" font-size="64" text-anchor="start" direction="ltr" writing-mode="lr-tb" unicode-bidi="normal" text-decoration="none" transform="matrix(1 0 0 1 191.762 5561)">60%</text></g><g clip-path="url(#clip9)"><text fill="#000000" fill-opacity="1" font-family="Calibri,Calibri_MSFontService,sans-serif" font-style="normal" font-variant="normal" font-weight="400" font-stretch="normal" font-size="64" text-anchor="start" direction="ltr" writing-mode="lr-tb" unicode-bidi="normal" text-decoration="none" transform="matrix(1 0 0 1 191.762 5314)">80%</text></g><g clip-path="url(#clip10)"><text fill="#000000" fill-opacity="1" font-family="Calibri,Calibri_MSFontService,sans-serif" font-style="normal" font-variant="normal" font-weight="400" font-stretch="normal" font-size="64" text-anchor="start" direction="ltr" writing-mode="lr-tb" unicode-bidi="normal" text-decoration="none" transform="matrix(1 0 0 1 159.243 5067)">100%</text></g><g clip-path="url(#clip11)"><text fill="#000000" fill-opacity="1" font-family="Calibri,Calibri_MSFontService,sans-serif" font-style="normal" font-variant="normal" font-weight="400" font-stretch="normal" font-size="64" text-anchor="start" direction="ltr" writing-mode="lr-tb" unicode-bidi="normal" text-decoration="none" transform="matrix(6.12323e-17 -1 1 6.12323e-17 384.08 6455)">1935</text></g><g clip-path="url(#clip12)"><text fill="#000000" fill-opacity="1" font-family="Calibri,Calibri_MSFontService,sans-serif" font-style="normal" font-variant="normal" font-weight="400" font-stretch="normal" font-size="64" text-anchor="start" direction="ltr" writing-mode="lr-tb" unicode-bidi="normal" text-decoration="none" transform="matrix(6.12323e-17 -1 1 6.12323e-17 515.664 6455)">1940</text></g><g clip-path="url(#clip13)"><text fill="#000000" fill-opacity="1" font-family="Calibri,Calibri_MSFontService,sans-serif" font-style="normal" font-variant="normal" font-weight="400" font-stretch="normal" font-size="64" text-anchor="start" direction="ltr" writing-mode="lr-tb" unicode-bidi="normal" text-decoration="none" transform="matrix(6.12323e-17 -1 1 6.12323e-17 647.319 6455)">1945</text></g><g clip-path="url(#clip14)"><text fill="#000000" fill-opacity="1" font-family="Calibri,Calibri_MSFontService,sans-serif" font-style="normal" font-variant="normal" font-weight="400" font-stretch="normal" font-size="64" text-anchor="start" direction="ltr" writing-mode="lr-tb" unicode-bidi="normal" text-decoration="none" transform="matrix(6.12323e-17 -1 1 6.12323e-17 778.903 6455)">1950</text></g><g clip-path="url(#clip15)"><text fill="#000000" fill-opacity="1" font-family="Calibri,Calibri_MSFontService,sans-serif" font-style="normal" font-variant="normal" font-weight="400" font-stretch="normal" font-size="64" text-anchor="start" direction="ltr" writing-mode="lr-tb" unicode-bidi="normal" text-decoration="none" transform="matrix(6.12323e-17 -1 1 6.12323e-17 910.486 6455)">1955</text></g><g clip-path="url(#clip16)"><text fill="#000000" fill-opacity="1" font-family="Calibri,Calibri_MSFontService,sans-serif" font-style="normal" font-variant="normal" font-weight="400" font-stretch="normal" font-size="64" text-anchor="start" direction="ltr" writing-mode="lr-tb" unicode-bidi="normal" text-decoration="none" transform="matrix(6.12323e-17 -1 1 6.12323e-17 1042.07 6455)">1960</text></g><g clip-path="url(#clip17)"><text fill="#000000" fill-opacity="1" font-family="Calibri,Calibri_MSFontService,sans-serif" font-style="normal" font-variant="normal" font-weight="400" font-stretch="normal" font-size="64" text-anchor="start" direction="ltr" writing-mode="lr-tb" unicode-bidi="normal" text-decoration="none" transform="matrix(6.12323e-17 -1 1 6.12323e-17 1173.73 6455)">1965</text></g><g clip-path="url(#clip18)"><text fill="#000000" fill-opacity="1" font-family="Calibri,Calibri_MSFontService,sans-serif" font-style="normal" font-variant="normal" font-weight="400" font-stretch="normal" font-size="64" text-anchor="start" direction="ltr" writing-mode="lr-tb" unicode-bidi="normal" text-decoration="none" transform="matrix(6.12323e-17 -1 1 6.12323e-17 1305.31 6455)">1970</text></g><g clip-path="url(#clip19)"><text fill="#000000" fill-opacity="1" font-family="Calibri,Calibri_MSFontService,sans-serif" font-style="normal" font-variant="normal" font-weight="400" font-stretch="normal" font-size="64" text-anchor="start" direction="ltr" writing-mode="lr-tb" unicode-bidi="normal" text-decoration="none" transform="matrix(6.12323e-17 -1 1 6.12323e-17 1436.89 6455)">1975</text></g><g clip-path="url(#clip20)"><text fill="#000000" fill-opacity="1" font-family="Calibri,Calibri_MSFontService,sans-serif" font-style="normal" font-variant="normal" font-weight="400" font-stretch="normal" font-size="64" text-anchor="start" direction="ltr" writing-mode="lr-tb" unicode-bidi="normal" text-decoration="none" transform="matrix(6.12323e-17 -1 1 6.12323e-17 1568.48 6455)">1980</text></g><g clip-path="url(#clip21)"><text fill="#000000" fill-opacity="1" font-family="Calibri,Calibri_MSFontService,sans-serif" font-style="normal" font-variant="normal" font-weight="400" font-stretch="normal" font-size="64" text-anchor="start" direction="ltr" writing-mode="lr-tb" unicode-bidi="normal" text-decoration="none" transform="matrix(6.12323e-17 -1 1 6.12323e-17 1700.13 6455)">1985</text></g><g clip-path="url(#clip22)"><text fill="#000000" fill-opacity="1" font-family="Calibri,Calibri_MSFontService,sans-serif" font-style="normal" font-variant="normal" font-weight="400" font-stretch="normal" font-size="64" text-anchor="start" direction="ltr" writing-mode="lr-tb" unicode-bidi="normal" text-decoration="none" transform="matrix(6.12323e-17 -1 1 6.12323e-17 1831.72 6455)">1990</text></g><g clip-path="url(#clip23)"><text fill="#000000" fill-opacity="1" font-family="Calibri,Calibri_MSFontService,sans-serif" font-style="normal" font-variant="normal" font-weight="400" font-stretch="normal" font-size="64" text-anchor="start" direction="ltr" writing-mode="lr-tb" unicode-bidi="normal" text-decoration="none" transform="matrix(6.12323e-17 -1 1 6.12323e-17 1963.3 6455)">1995</text></g><g clip-path="url(#clip24)"><text fill="#000000" fill-opacity="1" font-family="Calibri,Calibri_MSFontService,sans-serif" font-style="normal" font-variant="normal" font-weight="400" font-stretch="normal" font-size="64" text-anchor="start" direction="ltr" writing-mode="lr-tb" unicode-bidi="normal" text-decoration="none" transform="matrix(6.12323e-17 -1 1 6.12323e-17 2094.88 6455)">2000</text></g><g clip-path="url(#clip25)"><text fill="#000000" fill-opacity="1" font-family="Calibri,Calibri_MSFontService,sans-serif" font-style="normal" font-variant="normal" font-weight="400" font-stretch="normal" font-size="64" text-anchor="start" direction="ltr" writing-mode="lr-tb" unicode-bidi="normal" text-decoration="none" transform="matrix(6.12323e-17 -1 1 6.12323e-17 2226.54 6455)">2005</text></g><g clip-path="url(#clip26)"><text fill="#000000" fill-opacity="1" font-family="Calibri,Calibri_MSFontService,sans-serif" font-style="normal" font-variant="normal" font-weight="400" font-stretch="normal" font-size="64" text-anchor="start" direction="ltr" writing-mode="lr-tb" unicode-bidi="normal" text-decoration="none" transform="matrix(6.12323e-17 -1 1 6.12323e-17 2358.12 6455)">2010</text></g><g clip-path="url(#clip27)"><text fill="#000000" fill-opacity="1" font-family="Calibri,Calibri_MSFontService,sans-serif" font-style="normal" font-variant="normal" font-weight="400" font-stretch="normal" font-size="64" text-anchor="start" direction="ltr" writing-mode="lr-tb" unicode-bidi="normal" text-decoration="none" transform="matrix(6.12323e-17 -1 1 6.12323e-17 2489.71 6455)">2015</text></g><g clip-path="url(#clip28)"><text fill="#000000" fill-opacity="1" font-family="Calibri,Calibri_MSFontService,sans-serif" font-style="normal" font-variant="normal" font-weight="400" font-stretch="normal" font-size="64" text-anchor="start" direction="ltr" writing-mode="lr-tb" unicode-bidi="normal" text-decoration="none" transform="matrix(6.12323e-17 -1 1 6.12323e-17 2621.29 6455)">2020</text></g><g clip-path="url(#clip29)"><text fill="#000000" fill-opacity="1" font-family="Calibri,Calibri_MSFontService,sans-serif" font-style="normal" font-variant="normal" font-weight="400" font-stretch="normal" font-size="64" text-anchor="start" direction="ltr" writing-mode="lr-tb" unicode-bidi="normal" text-decoration="none" transform="matrix(6.12323e-17 -1 1 6.12323e-17 128.19 6075)">Favor death penalty for murder</text></g><g clip-path="url(#clip30)"><text fill="#000000" fill-opacity="1" font-family="Calibri,Calibri_MSFontService,sans-serif" font-style="normal" font-variant="normal" font-weight="400" font-stretch="normal" font-size="92" text-anchor="start" direction="ltr" writing-mode="lr-tb" unicode-bidi="normal" text-decoration="none" transform="matrix(1 0 0 1 400.475 4956)">Popular support for the death penalty in Germany</text></g><g clip-path="url(#clip31)"><text fill="#000000" fill-opacity="1" font-family="Calibri,Calibri_MSFontService,sans-serif" font-style="normal" font-variant="normal" font-weight="400" font-stretch="normal" font-size="50" text-anchor="start" direction="ltr" writing-mode="lr-tb" unicode-bidi="normal" text-decoration="none" transform="matrix(1 0 0 1 444.167 5919)">In 1949, the</text></g><g clip-path="url(#clip32)"><text fill="#000000" fill-opacity="1" font-family="Calibri,Calibri_MSFontService,sans-serif" font-style="normal" font-variant="normal" font-weight="400" font-stretch="normal" font-size="50" text-anchor="start" direction="ltr" writing-mode="lr-tb" unicode-bidi="normal" text-decoration="none" transform="matrix(1 0 0 1 362.698 5980)">death penalty is </text></g><g clip-path="url(#clip33)"><text fill="#000000" fill-opacity="1" font-family="Calibri,Calibri_MSFontService,sans-serif" font-style="normal" font-variant="normal" font-weight="400" font-stretch="normal" font-size="50" text-anchor="start" direction="ltr" writing-mode="lr-tb" unicode-bidi="normal" text-decoration="none" transform="matrix(1 0 0 1 404.865 6042)">banned in the  </text></g><g clip-path="url(#clip34)"><text fill="#000000" fill-opacity="1" font-family="Calibri,Calibri_MSFontService,sans-serif" font-style="normal" font-variant="normal" font-weight="400" font-stretch="normal" font-size="50" text-anchor="start" direction="ltr" writing-mode="lr-tb" unicode-bidi="normal" text-decoration="none" transform="matrix(1 0 0 1 429.202 6104)">constitution.</text></g><g clip-path="url(#clip35)"><text fill="#000000" fill-opacity="1" font-family="Calibri,Calibri_MSFontService,sans-serif" font-style="normal" font-variant="normal" font-weight="400" font-stretch="normal" font-size="50" text-anchor="start" direction="ltr" writing-mode="lr-tb" unicode-bidi="normal" text-decoration="none" transform="matrix(1 0 0 1 1832.42 6018)">In 1990, East </text></g><g clip-path="url(#clip36)"><text fill="#000000" fill-opacity="1" font-family="Calibri,Calibri_MSFontService,sans-serif" font-style="normal" font-variant="normal" font-weight="400" font-stretch="normal" font-size="50" text-anchor="start" direction="ltr" writing-mode="lr-tb" unicode-bidi="normal" text-decoration="none" transform="matrix(1 0 0 1 1832.42 6079)">and</text></g><g clip-path="url(#clip37)"><text fill="#000000" fill-opacity="1" font-family="Calibri,Calibri_MSFontService,sans-serif" font-style="normal" font-variant="normal" font-weight="400" font-stretch="normal" font-size="50" text-anchor="start" direction="ltr" writing-mode="lr-tb" unicode-bidi="normal" text-decoration="none" transform="matrix(1 0 0 1 1920.95 6079)">West </text></g><g clip-path="url(#clip38)"><text fill="#000000" fill-opacity="1" font-family="Calibri,Calibri_MSFontService,sans-serif" font-style="normal" font-variant="normal" font-weight="400" font-stretch="normal" font-size="50" text-anchor="start" direction="ltr" writing-mode="lr-tb" unicode-bidi="normal" text-decoration="none" transform="matrix(1 0 0 1 1832.42 6141)">Germany are </text></g><g clip-path="url(#clip39)"><text fill="#000000" fill-opacity="1" font-family="Calibri,Calibri_MSFontService,sans-serif" font-style="normal" font-variant="normal" font-weight="400" font-stretch="normal" font-size="50" text-anchor="start" direction="ltr" writing-mode="lr-tb" unicode-bidi="normal" text-decoration="none" transform="matrix(1 0 0 1 1832.42 6203)">re</text></g><g clip-path="url(#clip40)"><text fill="#000000" fill-opacity="1" font-family="Calibri,Calibri_MSFontService,sans-serif" font-style="normal" font-variant="normal" font-weight="400" font-stretch="normal" font-size="50" text-anchor="start" direction="ltr" writing-mode="lr-tb" unicode-bidi="normal" text-decoration="none" transform="matrix(1 0 0 1 1875.09 6203)">-</text></g><g clip-path="url(#clip41)"><text fill="#000000" fill-opacity="1" font-family="Calibri,Calibri_MSFontService,sans-serif" font-style="normal" font-variant="normal" font-weight="400" font-stretch="normal" font-size="50" text-anchor="start" direction="ltr" writing-mode="lr-tb" unicode-bidi="normal" text-decoration="none" transform="matrix(1 0 0 1 1890.54 6203)">unified.</text></g><g clip-path="url(#clip42)"><path d="M1348.25 5496.21 1453.09 5496.21 1453.09 5500.79 1348.25 5500.79ZM1352.83 5507.67 1334.5 5498.5 1352.83 5489.33ZM1448.51 5489.33 1466.84 5498.5 1448.51 5507.67Z" fill="#000000" fill-rule="nonzero" fill-opacity="0.501961"/></g><g clip-path="url(#clip43)"><text fill="#000000" fill-opacity="1" font-family="Calibri,Calibri_MSFontService,sans-serif" font-style="normal" font-variant="normal" font-weight="400" font-stretch="normal" font-size="50" text-anchor="start" direction="ltr" writing-mode="lr-tb" unicode-bidi="normal" text-decoration="none" transform="matrix(1 0 0 1 1225.03 5273)">In 1972</text></g><g clip-path="url(#clip44)"><text fill="#000000" fill-opacity="1" font-family="Calibri,Calibri_MSFontService,sans-serif" font-style="normal" font-variant="normal" font-weight="400" font-stretch="normal" font-size="50" text-anchor="start" direction="ltr" writing-mode="lr-tb" unicode-bidi="normal" text-decoration="none" transform="matrix(1 0 0 1 1400.59 5273)">to </text></g><g clip-path="url(#clip45)"><text fill="#000000" fill-opacity="1" font-family="Calibri,Calibri_MSFontService,sans-serif" font-style="normal" font-variant="normal" font-weight="400" font-stretch="normal" font-size="50" text-anchor="start" direction="ltr" writing-mode="lr-tb" unicode-bidi="normal" text-decoration="none" transform="matrix(1 0 0 1 1455.46 5273)">1977, </text></g><g clip-path="url(#clip46)"><text fill="#000000" fill-opacity="1" font-family="Calibri,Calibri_MSFontService,sans-serif" font-style="normal" font-variant="normal" font-weight="400" font-stretch="normal" font-size="50" text-anchor="start" direction="ltr" writing-mode="lr-tb" unicode-bidi="normal" text-decoration="none" transform="matrix(1 0 0 1 1218.61 5334)">there</text></g><g clip-path="url(#clip47)"><text fill="#000000" fill-opacity="1" font-family="Calibri,Calibri_MSFontService,sans-serif" font-style="normal" font-variant="normal" font-weight="400" font-stretch="normal" font-size="50" text-anchor="start" direction="ltr" writing-mode="lr-tb" unicode-bidi="normal" text-decoration="none" transform="matrix(1 0 0 1 1341.15 5334)">is terrorism </text></g><g clip-path="url(#clip48)"><text fill="#000000" fill-opacity="1" font-family="Calibri,Calibri_MSFontService,sans-serif" font-style="normal" font-variant="normal" font-weight="400" font-stretch="normal" font-size="50" text-anchor="start" direction="ltr" writing-mode="lr-tb" unicode-bidi="normal" text-decoration="none" transform="matrix(1 0 0 1 1227.25 5396)">by the Red Army </text></g><g clip-path="url(#clip49)"><text fill="#000000" fill-opacity="1" font-family="Calibri,Calibri_MSFontService,sans-serif" font-style="normal" font-variant="normal" font-weight="400" font-stretch="normal" font-size="50" text-anchor="start" direction="ltr" writing-mode="lr-tb" unicode-bidi="normal" text-decoration="none" transform="matrix(1 0 0 1 1316.19 5458)">Faction.</text></g><g clip-path="url(#clip50)"><text fill="#D0CECE" fill-opacity="1" font-family="Courier,Courier_MSFontService,sans-serif" font-style="normal" font-variant="normal" font-weight="400" font-stretch="normal" font-size="28" text-anchor="start" direction="ltr" writing-mode="lr-tb" unicode-bidi="normal" text-decoration="none" transform="matrix(1 0 0 1 2372.88 6292)">dynomight.net</text></g></g></svg>