<svg width="2645" height="1655" xmlns="http://www.w3.org/2000/svg" overflow="hidden"><defs><clipPath id="a"><path d="M1136 508h2645v1655H1136z"/></clipPath><clipPath id="b"><path d="M1420 722h2309v1236H1420z"/></clipPath><clipPath id="c"><path d="M1136 513h2640v1650H1136z"/></clipPath><clipPath id="d"><path d="M1136 513h2640v1650H1136z"/></clipPath><clipPath id="e"><path d="M1136 513h2640v1650H1136z"/></clipPath><clipPath id="f"><path d="M1136 513h2640v1650H1136z"/></clipPath><clipPath id="g"><path d="M1136 513h2640v1650H1136z"/></clipPath><clipPath id="h"><path d="M1136 513h2640v1650H1136z"/></clipPath><clipPath id="i"><path d="M1136 513h2640v1650H1136z"/></clipPath><clipPath id="j"><path d="M1136 513h2640v1650H1136z"/></clipPath><clipPath id="k"><path d="M1136 513h2640v1650H1136z"/></clipPath><clipPath id="l"><path d="M1136 513h2640v1650H1136z"/></clipPath><clipPath id="m"><path d="M1136 513h2640v1650H1136z"/></clipPath><clipPath id="n"><path d="M1136 513h2640v1650H1136z"/></clipPath><clipPath id="o"><path d="M1136 513h2640v1650H1136z"/></clipPath><clipPath id="p"><path d="M1136 513h2640v1650H1136z"/></clipPath><clipPath id="q"><path d="M1136 513h2640v1650H1136z"/></clipPath><clipPath id="r"><path d="M1136 513h2640v1650H1136z"/></clipPath><clipPath id="s"><path d="M1136 513h2640v1650H1136z"/></clipPath><clipPath id="t"><path d="M1136 513h2640v1650H1136z"/></clipPath><clipPath id="u"><path d="M1136 513h2640v1650H1136z"/></clipPath><clipPath id="v"><path d="M1136 513h2640v1650H1136z"/></clipPath><clipPath id="w"><path d="M1136 513h2640v1650H1136z"/></clipPath><clipPath id="x"><path d="M1136 513h2640v1650H1136z"/></clipPath><clipPath id="y"><path d="M1136 513h2640v1650H1136z"/></clipPath><clipPath id="z"><path d="M1136 513h2640v1650H1136z"/></clipPath><clipPath id="A"><path d="M1136 513h2640v1650H1136z"/></clipPath><clipPath id="B"><path d="M1136 513h2640v1650H1136z"/></clipPath><clipPath id="C"><path d="M1136 513h2640v1650H1136z"/></clipPath><clipPath id="D"><path d="M1136 513h2640v1650H1136z"/></clipPath><clipPath id="E"><path d="M1136 513h2640v1650H1136z"/></clipPath><clipPath id="F"><path d="M1136 513h2640v1650H1136z"/></clipPath><clipPath id="G"><path d="M1136 513h2640v1650H1136z"/></clipPath><clipPath id="H"><path d="M1136 513h2641v1651H1136z"/></clipPath></defs><g clip-path="url(#a)" transform="translate(-1136 -508)"><path fill="#FFF" d="M1137 513h2640v1650H1137z"/><g clip-path="url(#b)"><path d="m1550.5 1950.56 6.05 1 5 1 6 1 5-1 5 1 6-1 5-1h6l5 1h6l5-1 5-5 6-1h5l6-3h5l6 5 5-1h5l6 1 5 1h6l5.01 1h5l6-2 5 1 6 1 5 1 6-7 5 2 5-2h6l5-2 6 5 5-6 6-4 5 1 5 2 6 1 5 8 6 5h5l6-1h5l5-5 6-4 5-4 6-3 5-4 6-10 5 3 5 3 6 3h5l6 17 5-3 5-2h11l6 2h5l6-2 5-20h5l6 3 5-18 6-1 5 12 6 1 5 2 5 21 6 4 5-1 6-7 5 2h6l5-2 5-7 6.01 9 5-6 6-3h5l6 6 5-1 5 2 6-28 5 4 6 1h5l6 4 5 14 5-27 6-10 5-11 6 1 5 10 5-7 6 4 5-1 6-6 5 6 6 31 5 8 5-10 6 3 5-1 6 1 5-9 6 11 5-4 5-18 6-12 5-16h6l5-40 6 3 5 13 5 17 6-5 5 41 6 11 5 3 6 5 5-5 5-6 6-14 5-8 6-12 5 4 6 9 5 14 5 4 6 6 5 5 6-3 5.01-15h11l5-4 6-17 5-4 6-16 5-27 5-28 6 3 5-1 6-14 5 11 6 15 5 14 5 3 6-3 5-6 6-4 5-23 6 6 5 8 5-14 6 1 5 1 6-17 5-6 6 11 5 10 5 10 6 20 5 14 6 6 5-40 5-2 6 2 5-3 6 6 5 28 6 6 5-47 5 12 6 17 5 10 6-12 5 44 6-16 5-7 5 6 6-3 5 3 6 13 5-5 6 1 5 2 5-8 6.01-21 5-11 6-38 5-15 6-44 5 15 5-10 6 8 5 6 6 8 5-7 6-3 5 2 5-18 6 37 5-5 6 16 5 6 5 17 6-37 5-1 6-14 5-44 6-1 5 26 5-1 6 11 5 31 6 1 5-8 6 10 5-5 5 4 6-23 5-42 6-26 5-29.01 6-11 5-26 5 17 6-24 5-6 6-15 5 34 6-34 5 11 5-9 6 34 5-33 6 44 5 34.01 6 34 5 2 5 46 6 17 5-41 6.01-8 5-43 5-19.01 6-55 5-42 6-65 5-28 6-45 5-28 5-8 6-27.01 5-14 6-4 5 27.01 6 35 5 42 5 18 6-5 5-31 6-45 5-24.01 6-24 5-7 5-12 6 45 5-15 6 17 5-6 6-27 5-53 5-6 6-68 5-17 6 30 5 18 6-6 5 37 5 24 6-46 5-20 6 44 5-4h5l6 92 5 49.01 6 37 5 32 6-38 5-73.01 5-21 6-65 5-46 6 1 5 5 6-39 5 26 5.01-12 6-18 5-8 6-19 5-71 6-45.01 5-45 5-3 6-30.03 5 5.032 6 77.998 5 80.01 6 4 5 60 5 47 6-3 5-7 6-11 5 18 5-1 6 48 5 30 6 84.01 5 59 6 39 5 5 5 39 6 13 5 14 6 38 5 25 6 24 5 24.01 5 32 6 38 5 54 6 46 5 49 6 23 5 16 5 8 6 1 5 1.94h22l5-.94h6l5-2h6l5-1 6-1 5-6 5-20 6-21 5-19 6.01-25 5-7 5 6 6-4 5 4 6-7 5-29 6-17 5-35 5-34 6-47 5-33.01 6-73 5-33 6-23 5 3 5 4 6 42 5 28 6 14 5 32 6 30.01 5 8 5 15 6 11 5-1 6-2 5 19 6 19 5 26 5 22 6 15 5 14 5.88 12" stroke="#4472C4" stroke-width="9.167" stroke-linecap="round" stroke-linejoin="round" stroke-miterlimit="10" fill="none"/></g><g clip-path="url(#c)"><path d="M1470.67 1949.33c0 3.87-3.14 7-7 7-3.87 0-7-3.13-7-7 0-3.86 3.13-7 7-7 3.86 0 7 3.14 7 7ZM1546.67 1949.33c0 3.87-3.14 7-7 7-3.87 0-7-3.13-7-7 0-3.86 3.13-7 7-7 3.86 0 7 3.14 7 7Z"/><path d="M1557.67 1949.33c0 3.87-3.14 7-7 7-3.87 0-7-3.13-7-7 0-3.86 3.13-7 7-7 3.86 0 7 3.14 7 7Z"/><path d="M1562.67 1955.33c0 3.87-3.14 7-7 7-3.87 0-7-3.13-7-7 0-3.86 3.13-7 7-7 3.86 0 7 3.14 7 7Z"/><path d="M1568.67 1949.33c0 3.87-3.14 7-7 7-3.87 0-7-3.13-7-7 0-3.86 3.13-7 7-7 3.86 0 7 3.14 7 7Z"/><path d="M1573.67 1955.33c0 3.87-3.14 7-7 7-3.87 0-7-3.13-7-7 0-3.86 3.13-7 7-7 3.86 0 7 3.14 7 7Z"/><path d="M1579.67 1955.33c0 3.87-3.14 7-7 7-3.87 0-7-3.13-7-7 0-3.86 3.13-7 7-7 3.86 0 7 3.14 7 7Z"/><path d="M1584.67 1955.33c0 3.87-3.14 7-7 7-3.87 0-7-3.13-7-7 0-3.86 3.13-7 7-7 3.86 0 7 3.14 7 7Z"/><path d="M1589.67 1949.33c0 3.87-3.14 7-7 7-3.87 0-7-3.13-7-7 0-3.86 3.13-7 7-7 3.86 0 7 3.14 7 7Z"/><path d="M1595.67 1955.33c0 3.87-3.14 7-7 7-3.87 0-7-3.13-7-7 0-3.86 3.13-7 7-7 3.86 0 7 3.14 7 7Z"/><path d="M1600.67 1949.33c0 3.87-3.14 7-7 7-3.87 0-7-3.13-7-7 0-3.86 3.13-7 7-7 3.86 0 7 3.14 7 7Z"/><path d="M1606.67 1949.33c0 3.87-3.14 7-7 7-3.87 0-7-3.13-7-7 0-3.86 3.13-7 7-7 3.86 0 7 3.14 7 7Z"/><path d="M1611.67 1955.33c0 3.87-3.14 7-7 7-3.87 0-7-3.13-7-7 0-3.86 3.13-7 7-7 3.86 0 7 3.14 7 7Z"/><path d="M1617.67 1955.33c0 3.87-3.14 7-7 7-3.87 0-7-3.13-7-7 0-3.86 3.13-7 7-7 3.86 0 7 3.14 7 7Z"/><path d="M1622.67 1955.33c0 3.87-3.14 7-7 7-3.87 0-7-3.13-7-7 0-3.86 3.13-7 7-7 3.86 0 7 3.14 7 7Z"/><path d="M1627.67 1944.33c0 3.87-3.14 7-7 7-3.87 0-7-3.13-7-7 0-3.86 3.13-7 7-7 3.86 0 7 3.14 7 7ZM1633.67 1922.33c0 3.87-3.14 7-7 7-3.87 0-7-3.13-7-7 0-3.86 3.13-7 7-7 3.86 0 7 3.14 7 7Z"/><path d="M1638.67 1949.33c0 3.87-3.14 7-7 7-3.87 0-7-3.13-7-7 0-3.86 3.13-7 7-7 3.86 0 7 3.14 7 7Z"/><path d="M1644.67 1955.33c0 3.87-3.14 7-7 7-3.87 0-7-3.13-7-7 0-3.86 3.13-7 7-7 3.86 0 7 3.14 7 7Z"/><path d="M1649.67 1944.33c0 3.87-3.14 7-7 7-3.87 0-7-3.13-7-7 0-3.86 3.13-7 7-7 3.86 0 7 3.14 7 7Z"/><path d="M1654.67 1944.33c0 3.87-3.14 7-7 7-3.87 0-7-3.13-7-7 0-3.86 3.13-7 7-7 3.86 0 7 3.14 7 7Z"/><path d="M1660.67 1944.33c0 3.87-3.14 7-7 7-3.87 0-7-3.13-7-7 0-3.86 3.13-7 7-7 3.86 0 7 3.14 7 7Z"/><path d="M1665.67 1944.33c0 3.87-3.14 7-7 7-3.87 0-7-3.13-7-7 0-3.86 3.13-7 7-7 3.86 0 7 3.14 7 7Z"/><path d="M1671.67 1955.33c0 3.87-3.14 7-7 7-3.87 0-7-3.13-7-7 0-3.86 3.13-7 7-7 3.86 0 7 3.14 7 7Z"/><path d="M1676.67 1949.33c0 3.87-3.14 7-7 7-3.87 0-7-3.13-7-7 0-3.86 3.13-7 7-7 3.86 0 7 3.14 7 7Z"/><path d="M1682.67 1949.33c0 3.87-3.14 7-7 7-3.87 0-7-3.13-7-7 0-3.86 3.13-7 7-7 3.86 0 7 3.14 7 7Z"/><path d="M1687.67 1944.33c0 3.87-3.14 7-7 7-3.87 0-7-3.13-7-7 0-3.86 3.13-7 7-7 3.86 0 7 3.14 7 7Z"/><path d="M1692.67 1949.33c0 3.87-3.14 7-7 7-3.87 0-7-3.13-7-7 0-3.86 3.13-7 7-7 3.86 0 7 3.14 7 7Z"/><path d="M1698.67 1955.33c0 3.87-3.14 7-7 7-3.87 0-7-3.13-7-7 0-3.86 3.13-7 7-7 3.86 0 7 3.14 7 7ZM1703.67 1938.33c0 3.87-3.14 7-7 7-3.87 0-7-3.13-7-7 0-3.86 3.13-7 7-7 3.86 0 7 3.14 7 7Z"/><path d="M1709.67 1955.33c0 3.87-3.14 7-7 7-3.87 0-7-3.13-7-7 0-3.86 3.13-7 7-7 3.86 0 7 3.14 7 7Z"/><path d="M1714.67 1949.33c0 3.87-3.14 7-7 7-3.87 0-7-3.13-7-7 0-3.86 3.13-7 7-7 3.86 0 7 3.14 7 7Z"/><path d="M1720.67 1955.33c0 3.87-3.14 7-7 7-3.87 0-7-3.13-7-7 0-3.86 3.13-7 7-7 3.86 0 7 3.14 7 7ZM1725.67 1922.33c0 3.87-3.14 7-7 7-3.87 0-7-3.13-7-7 0-3.86 3.13-7 7-7 3.86 0 7 3.14 7 7Z"/><path d="M1730.67 1944.33c0 3.87-3.14 7-7 7-3.87 0-7-3.13-7-7 0-3.86 3.13-7 7-7 3.86 0 7 3.14 7 7Z"/><path d="M1736.67 1949.33c0 3.87-3.14 7-7 7-3.87 0-7-3.13-7-7 0-3.86 3.13-7 7-7 3.86 0 7 3.14 7 7Z"/><path d="M1741.67 1949.33c0 3.87-3.14 7-7 7-3.87 0-7-3.13-7-7 0-3.86 3.13-7 7-7 3.86 0 7 3.14 7 7Z"/><path d="M1747.67 1944.33c0 3.87-3.14 7-7 7-3.87 0-7-3.13-7-7 0-3.86 3.13-7 7-7 3.86 0 7 3.14 7 7Z"/><path d="M1752.67 1944.33c0 3.87-3.14 7-7 7-3.87 0-7-3.13-7-7 0-3.86 3.13-7 7-7 3.86 0 7 3.14 7 7ZM1758.67 1917.33c0 3.87-3.14 7-7 7-3.87 0-7-3.13-7-7 0-3.86 3.13-7 7-7 3.86 0 7 3.14 7 7Z"/><path d="M1763.67 1928.33c0 3.87-3.14 7-7 7-3.87 0-7-3.13-7-7 0-3.86 3.13-7 7-7 3.86 0 7 3.14 7 7ZM1768.67 1955.33c0 3.87-3.14 7-7 7-3.87 0-7-3.13-7-7 0-3.86 3.13-7 7-7 3.86 0 7 3.14 7 7Z"/><path d="M1774.67 1955.33c0 3.87-3.14 7-7 7-3.87 0-7-3.13-7-7 0-3.86 3.13-7 7-7 3.86 0 7 3.14 7 7Z"/><path d="M1779.67 1949.33c0 3.87-3.14 7-7 7-3.87 0-7-3.13-7-7 0-3.86 3.13-7 7-7 3.86 0 7 3.14 7 7Z"/><path d="M1785.67 1955.33c0 3.87-3.14 7-7 7-3.87 0-7-3.13-7-7 0-3.86 3.13-7 7-7 3.86 0 7 3.14 7 7Z"/><path d="M1790.67 1955.33c0 3.87-3.14 7-7 7-3.87 0-7-3.13-7-7 0-3.86 3.13-7 7-7 3.86 0 7 3.14 7 7Z"/><path d="M1796.67 1955.33c0 3.87-3.14 7-7 7-3.87 0-7-3.13-7-7 0-3.86 3.13-7 7-7 3.86 0 7 3.14 7 7Z"/><path d="M1801.67 1949.33c0 3.87-3.14 7-7 7-3.87 0-7-3.13-7-7 0-3.86 3.13-7 7-7 3.86 0 7 3.14 7 7Z"/><path d="M1806.67 1949.33c0 3.87-3.14 7-7 7-3.87 0-7-3.13-7-7 0-3.86 3.13-7 7-7 3.86 0 7 3.14 7 7ZM1812.67 1928.33c0 3.87-3.14 7-7 7-3.87 0-7-3.13-7-7 0-3.86 3.13-7 7-7 3.86 0 7 3.14 7 7Z"/><path d="M1817.67 1938.33c0 3.87-3.14 7-7 7-3.87 0-7-3.13-7-7 0-3.86 3.13-7 7-7 3.86 0 7 3.14 7 7Z"/><path d="M1823.67 1933.33c0 3.87-3.14 7-7 7-3.87 0-7-3.13-7-7 0-3.86 3.13-7 7-7 3.86 0 7 3.14 7 7Z"/><path d="M1828.67 1933.33c0 3.87-3.14 7-7 7-3.87 0-7-3.13-7-7 0-3.86 3.13-7 7-7 3.86 0 7 3.14 7 7Z"/><path d="M1834.67 1933.33c0 3.87-3.14 7-7 7-3.87 0-7-3.13-7-7 0-3.86 3.13-7 7-7 3.86 0 7 3.14 7 7ZM1839.67 1873.33c0 3.87-3.14 7-7 7-3.87 0-7-3.13-7-7 0-3.86 3.13-7 7-7 3.86 0 7 3.14 7 7ZM1844.67 1955.33c0 3.87-3.14 7-7 7-3.87 0-7-3.13-7-7 0-3.86 3.13-7 7-7 3.86 0 7 3.14 7 7Z"/><path d="M1850.67 1949.33c0 3.87-3.14 7-7 7-3.87 0-7-3.13-7-7 0-3.86 3.13-7 7-7 3.86 0 7 3.14 7 7Z"/><path d="M1855.67 1949.33c0 3.87-3.14 7-7 7-3.87 0-7-3.13-7-7 0-3.86 3.13-7 7-7 3.86 0 7 3.14 7 7ZM1866.67 1938.33c0 3.87-3.14 7-7 7-3.87 0-7-3.13-7-7 0-3.86 3.13-7 7-7 3.86 0 7 3.14 7 7Z"/><path d="M1877.67 1944.33c0 3.87-3.14 7-7 7-3.87 0-7-3.13-7-7 0-3.86 3.13-7 7-7 3.86 0 7 3.14 7 7Z"/><path d="M1882.67 1949.33c0 3.87-3.14 7-7 7-3.87 0-7-3.13-7-7 0-3.86 3.13-7 7-7 3.86 0 7 3.14 7 7Z"/><path d="M1888.67 1944.33c0 3.87-3.14 7-7 7-3.87 0-7-3.13-7-7 0-3.86 3.13-7 7-7 3.86 0 7 3.14 7 7ZM1904.67 1938.33c0 3.87-3.14 7-7 7-3.87 0-7-3.13-7-7 0-3.86 3.13-7 7-7 3.86 0 7 3.14 7 7ZM1909.67 1889.33c0 3.87-3.14 7-7 7-3.87 0-7-3.13-7-7 0-3.86 3.13-7 7-7 3.86 0 7 3.14 7 7Z"/><path d="M1915.67 1944.33c0 3.87-3.14 7-7 7-3.87 0-7-3.13-7-7 0-3.86 3.13-7 7-7 3.86 0 7 3.14 7 7Z"/><path d="M1920.67 1933.33c0 3.87-3.14 7-7 7-3.87 0-7-3.13-7-7 0-3.86 3.13-7 7-7 3.86 0 7 3.14 7 7ZM1926.67 1840.33c0 3.87-3.14 7-7 7-3.87 0-7-3.13-7-7 0-3.86 3.13-7 7-7 3.86 0 7 3.14 7 7Z"/><path d="M1931.67 1933.33c0 3.87-3.14 7-7 7-3.87 0-7-3.13-7-7 0-3.86 3.13-7 7-7 3.86 0 7 3.14 7 7ZM1937.67 1949.33c0 3.87-3.14 7-7 7-3.87 0-7-3.13-7-7 0-3.86 3.13-7 7-7 3.86 0 7 3.14 7 7Z"/><path d="M1942.67 1949.33c0 3.87-3.14 7-7 7-3.87 0-7-3.13-7-7 0-3.86 3.13-7 7-7 3.86 0 7 3.14 7 7Z"/><path d="M1947.67 1938.33c0 3.87-3.14 7-7 7-3.87 0-7-3.13-7-7 0-3.86 3.13-7 7-7 3.86 0 7 3.14 7 7Z"/><path d="M1953.67 1949.33c0 3.87-3.14 7-7 7-3.87 0-7-3.13-7-7 0-3.86 3.13-7 7-7 3.86 0 7 3.14 7 7Z"/><path d="M1958.67 1949.33c0 3.87-3.14 7-7 7-3.87 0-7-3.13-7-7 0-3.86 3.13-7 7-7 3.86 0 7 3.14 7 7Z"/><path d="M1964.67 1944.33c0 3.87-3.14 7-7 7-3.87 0-7-3.13-7-7 0-3.86 3.13-7 7-7 3.86 0 7 3.14 7 7ZM1969.67 1917.33c0 3.87-3.14 7-7 7-3.87 0-7-3.13-7-7 0-3.86 3.13-7 7-7 3.86 0 7 3.14 7 7Z"/><path d="M1975.67 1949.33c0 3.87-3.14 7-7 7-3.87 0-7-3.13-7-7 0-3.86 3.13-7 7-7 3.86 0 7 3.14 7 7Z"/><path d="M1980.67 1949.33c0 3.87-3.14 7-7 7-3.87 0-7-3.13-7-7 0-3.86 3.13-7 7-7 3.86 0 7 3.14 7 7ZM1991.67 1917.33c0 3.87-3.14 7-7 7-3.87 0-7-3.13-7-7 0-3.86 3.13-7 7-7 3.86 0 7 3.14 7 7ZM1996.67 1949.33c0 3.87-3.14 7-7 7-3.87 0-7-3.13-7-7 0-3.86 3.13-7 7-7 3.86 0 7 3.14 7 7ZM2002.67 1928.33c0 3.87-3.14 7-7 7-3.87 0-7-3.13-7-7 0-3.86 3.13-7 7-7 3.86 0 7 3.14 7 7Z"/><path d="M2007.67 1938.33c0 3.87-3.14 7-7 7-3.87 0-7-3.13-7-7 0-3.86 3.13-7 7-7 3.86 0 7 3.14 7 7Z"/><path d="M2013.67 1933.33c0 3.87-3.14 7-7 7-3.87 0-7-3.13-7-7 0-3.86 3.13-7 7-7 3.86 0 7 3.14 7 7Z"/><path d="M2018.67 1944.33c0 3.87-3.14 7-7 7-3.87 0-7-3.13-7-7 0-3.86 3.13-7 7-7 3.86 0 7 3.14 7 7Z"/><path d="M2023.67 1944.33c0 3.87-3.14 7-7 7-3.87 0-7-3.13-7-7 0-3.86 3.13-7 7-7 3.86 0 7 3.14 7 7ZM2034.67 1824.33c0 3.87-3.14 7-7 7-3.87 0-7-3.13-7-7 0-3.86 3.13-7 7-7 3.86 0 7 3.14 7 7ZM2040.67 1949.33c0 3.87-3.14 7-7 7-3.87 0-7-3.13-7-7 0-3.86 3.13-7 7-7 3.86 0 7 3.14 7 7Z"/><path d="M2045.67 1949.33c0 3.87-3.14 7-7 7-3.87 0-7-3.13-7-7 0-3.86 3.13-7 7-7 3.86 0 7 3.14 7 7Z"/><path d="M2051.67 1944.33c0 3.87-3.14 7-7 7-3.87 0-7-3.13-7-7 0-3.86 3.13-7 7-7 3.86 0 7 3.14 7 7Z"/><path d="M2056.67 1938.33c0 3.87-3.14 7-7 7-3.87 0-7-3.13-7-7 0-3.86 3.13-7 7-7 3.86 0 7 3.14 7 7ZM2061.67 1889.33c0 3.87-3.14 7-7 7-3.87 0-7-3.13-7-7 0-3.86 3.13-7 7-7 3.86 0 7 3.14 7 7ZM2067.67 1818.33c0 3.87-3.14 7-7 7-3.87 0-7-3.13-7-7 0-3.86 3.13-7 7-7 3.86 0 7 3.14 7 7ZM2078.67 1900.33c0 3.87-3.14 7-7 7-3.87 0-7-3.13-7-7 0-3.86 3.13-7 7-7 3.86 0 7 3.14 7 7ZM2083.67 1944.33c0 3.87-3.14 7-7 7-3.87 0-7-3.13-7-7 0-3.86 3.13-7 7-7 3.86 0 7 3.14 7 7ZM2088.67 1928.33c0 3.87-3.14 7-7 7-3.87 0-7-3.13-7-7 0-3.86 3.13-7 7-7 3.86 0 7 3.14 7 7ZM2094.67 1791.33c0 3.87-3.14 7-7 7-3.87 0-7-3.13-7-7 0-3.86 3.13-7 7-7 3.86 0 7 3.14 7 7ZM2099.67 1911.33c0 3.87-3.14 7-7 7-3.87 0-7-3.13-7-7 0-3.86 3.13-7 7-7 3.86 0 7 3.14 7 7ZM2110.67 1922.33c0 3.87-3.14 7-7 7-3.87 0-7-3.13-7-7 0-3.86 3.13-7 7-7 3.86 0 7 3.14 7 7ZM2116.67 1949.33c0 3.87-3.14 7-7 7-3.87 0-7-3.13-7-7 0-3.86 3.13-7 7-7 3.86 0 7 3.14 7 7Z"/><path d="M2121.67 1917.33c0 3.87-3.14 7-7 7-3.87 0-7-3.13-7-7 0-3.86 3.13-7 7-7 3.86 0 7 3.14 7 7ZM2126.67 1944.33c0 3.87-3.14 7-7 7-3.87 0-7-3.13-7-7 0-3.86 3.13-7 7-7 3.86 0 7 3.14 7 7ZM2132.67 1878.33c0 3.87-3.14 7-7 7-3.87 0-7-3.13-7-7 0-3.86 3.13-7 7-7 3.86 0 7 3.14 7 7Z"/><path d="M2137.67 1938.33c0 3.87-3.14 7-7 7-3.87 0-7-3.13-7-7 0-3.86 3.13-7 7-7 3.86 0 7 3.14 7 7Z"/><path d="M2143.67 1944.33c0 3.87-3.14 7-7 7-3.87 0-7-3.13-7-7 0-3.86 3.13-7 7-7 3.86 0 7 3.14 7 7ZM2148.67 1922.33c0 3.87-3.14 7-7 7-3.87 0-7-3.13-7-7 0-3.86 3.13-7 7-7 3.86 0 7 3.14 7 7ZM2154.67 1900.33c0 3.87-3.14 7-7 7-3.87 0-7-3.13-7-7 0-3.86 3.13-7 7-7 3.86 0 7 3.14 7 7ZM2159.67 1933.33c0 3.87-3.14 7-7 7-3.87 0-7-3.13-7-7 0-3.86 3.13-7 7-7 3.86 0 7 3.14 7 7ZM2164.67 1917.33c0 3.87-3.14 7-7 7-3.87 0-7-3.13-7-7 0-3.86 3.13-7 7-7 3.86 0 7 3.14 7 7ZM2170.67 1856.33c0 3.87-3.14 7-7 7-3.87 0-7-3.13-7-7 0-3.86 3.13-7 7-7 3.86 0 7 3.14 7 7Z"/><path d="M2175.67 1862.33c0 3.87-3.14 7-7 7-3.87 0-7-3.13-7-7 0-3.86 3.13-7 7-7 3.86 0 7 3.14 7 7ZM2181.67 1818.33c0 3.87-3.14 7-7 7-3.87 0-7-3.13-7-7 0-3.86 3.13-7 7-7 3.86 0 7 3.14 7 7ZM2186.67 1933.33c0 3.87-3.14 7-7 7-3.87 0-7-3.13-7-7 0-3.86 3.13-7 7-7 3.86 0 7 3.14 7 7ZM2192.67 1719.33c0 3.87-3.14 7-7 7-3.87 0-7-3.13-7-7 0-3.86 3.13-7 7-7 3.86 0 7 3.14 7 7ZM2197.67 1873.33c0 3.87-3.14 7-7 7-3.87 0-7-3.13-7-7 0-3.86 3.13-7 7-7 3.86 0 7 3.14 7 7ZM2202.67 1922.33c0 3.87-3.14 7-7 7-3.87 0-7-3.13-7-7 0-3.86 3.13-7 7-7 3.86 0 7 3.14 7 7ZM2208.67 1906.33c0 3.87-3.14 7-7 7-3.87 0-7-3.13-7-7 0-3.86 3.13-7 7-7 3.86 0 7 3.14 7 7Z"/><path d="M2213.67 1906.33c0 3.87-3.14 7-7 7-3.87 0-7-3.13-7-7 0-3.86 3.13-7 7-7 3.86 0 7 3.14 7 7ZM2219.67 1928.33c0 3.87-3.14 7-7 7-3.87 0-7-3.13-7-7 0-3.86 3.13-7 7-7 3.86 0 7 3.14 7 7Z"/><path d="M2224.67 1928.33c0 3.87-3.14 7-7 7-3.87 0-7-3.13-7-7 0-3.86 3.13-7 7-7 3.86 0 7 3.14 7 7Z"/><path d="M2230.67 1938.33c0 3.87-3.14 7-7 7-3.87 0-7-3.13-7-7 0-3.86 3.13-7 7-7 3.86 0 7 3.14 7 7Z"/><path d="M2235.67 1928.33c0 3.87-3.14 7-7 7-3.87 0-7-3.13-7-7 0-3.86 3.13-7 7-7 3.86 0 7 3.14 7 7ZM2240.67 1884.33c0 3.87-3.14 7-7 7-3.87 0-7-3.13-7-7 0-3.86 3.13-7 7-7 3.86 0 7 3.14 7 7Z"/><path d="M2246.67 1895.33c0 3.87-3.14 7-7 7-3.87 0-7-3.13-7-7 0-3.86 3.13-7 7-7 3.86 0 7 3.14 7 7ZM2251.67 1856.33c0 3.87-3.14 7-7 7-3.87 0-7-3.13-7-7 0-3.86 3.13-7 7-7 3.86 0 7 3.14 7 7Z"/><path d="M2257.67 1900.33c0 3.87-3.14 7-7 7-3.87 0-7-3.13-7-7 0-3.86 3.13-7 7-7 3.86 0 7 3.14 7 7ZM2262.67 1867.33c0 3.87-3.14 7-7 7-3.87 0-7-3.13-7-7 0-3.86 3.13-7 7-7 3.86 0 7 3.14 7 7Z"/><path d="M2268.67 1906.33c0 3.87-3.14 7-7 7-3.87 0-7-3.13-7-7 0-3.86 3.13-7 7-7 3.86 0 7 3.14 7 7ZM2273.67 1938.33c0 3.87-3.14 7-7 7-3.87 0-7-3.13-7-7 0-3.86 3.13-7 7-7 3.86 0 7 3.14 7 7Z"/><path d="M2278.67 1928.33c0 3.87-3.14 7-7 7-3.87 0-7-3.13-7-7 0-3.86 3.13-7 7-7 3.86 0 7 3.14 7 7Z"/><path d="M2284.67 1917.33c0 3.87-3.14 7-7 7-3.87 0-7-3.13-7-7 0-3.86 3.13-7 7-7 3.86 0 7 3.14 7 7ZM2289.67 1900.33c0 3.87-3.14 7-7 7-3.87 0-7-3.13-7-7 0-3.86 3.13-7 7-7 3.86 0 7 3.14 7 7ZM2295.67 1928.33c0 3.87-3.14 7-7 7-3.87 0-7-3.13-7-7 0-3.86 3.13-7 7-7 3.86 0 7 3.14 7 7Z"/><path d="M2300.67 1928.33c0 3.87-3.14 7-7 7-3.87 0-7-3.13-7-7 0-3.86 3.13-7 7-7 3.86 0 7 3.14 7 7ZM2305.67 1851.33c0 3.87-3.14 7-7 7-3.87 0-7-3.13-7-7 0-3.86 3.13-7 7-7 3.86 0 7 3.14 7 7ZM2311.67 1917.33c0 3.87-3.14 7-7 7-3.87 0-7-3.13-7-7 0-3.86 3.13-7 7-7 3.86 0 7 3.14 7 7ZM2316.67 1900.33c0 3.87-3.14 7-7 7-3.87 0-7-3.13-7-7 0-3.86 3.13-7 7-7 3.86 0 7 3.14 7 7Z"/><path d="M2322.67 1906.33c0 3.87-3.14 7-7 7-3.87 0-7-3.13-7-7 0-3.86 3.13-7 7-7 3.86 0 7 3.14 7 7ZM2327.67 1845.33c0 3.87-3.14 7-7 7-3.87 0-7-3.13-7-7 0-3.86 3.13-7 7-7 3.86 0 7 3.14 7 7ZM2333.67 1829.33c0 3.87-3.14 7-7 7-3.87 0-7-3.13-7-7 0-3.86 3.13-7 7-7 3.86 0 7 3.14 7 7Z"/><path d="M2338.67 1840.33c0 3.87-3.14 7-7 7-3.87 0-7-3.13-7-7 0-3.86 3.13-7 7-7 3.86 0 7 3.14 7 7ZM2343.67 1763.33c0 3.87-3.14 7-7 7-3.87 0-7-3.13-7-7 0-3.86 3.13-7 7-7 3.86 0 7 3.14 7 7Z"/><path d="M2349.67 1763.33c0 3.87-3.14 7-7 7-3.87 0-7-3.13-7-7 0-3.86 3.13-7 7-7 3.86 0 7 3.14 7 7ZM2354.67 1862.33c0 3.87-3.14 7-7 7-3.87 0-7-3.13-7-7 0-3.86 3.13-7 7-7 3.86 0 7 3.14 7 7ZM2360.67 1824.33c0 3.87-3.14 7-7 7-3.87 0-7-3.13-7-7 0-3.86 3.13-7 7-7 3.86 0 7 3.14 7 7ZM2365.67 1769.33c0 3.87-3.14 7-7 7-3.87 0-7-3.13-7-7 0-3.86 3.13-7 7-7 3.86 0 7 3.14 7 7Z"/><path d="M2371.67 1818.33c0 3.87-3.14 7-7 7-3.87 0-7-3.13-7-7 0-3.86 3.13-7 7-7 3.86 0 7 3.14 7 7ZM2376.67 1840.33c0 3.87-3.14 7-7 7-3.87 0-7-3.13-7-7 0-3.86 3.13-7 7-7 3.86 0 7 3.14 7 7ZM2381.67 1933.33c0 3.87-3.14 7-7 7-3.87 0-7-3.13-7-7 0-3.86 3.13-7 7-7 3.86 0 7 3.14 7 7Z"/><path d="M2387.67 1840.33c0 3.87-3.14 7-7 7-3.87 0-7-3.13-7-7 0-3.86 3.13-7 7-7 3.86 0 7 3.14 7 7ZM2392.67 1752.33c0 3.87-3.14 7-7 7-3.87 0-7-3.13-7-7 0-3.86 3.13-7 7-7 3.86 0 7 3.14 7 7ZM2398.67 1785.33c0 3.87-3.14 7-7 7-3.87 0-7-3.13-7-7 0-3.86 3.13-7 7-7 3.86 0 7 3.14 7 7ZM2403.67 1824.33c0 3.87-3.14 7-7 7-3.87 0-7-3.13-7-7 0-3.86 3.13-7 7-7 3.86 0 7 3.14 7 7Z"/><path d="M2409.67 1818.33c0 3.87-3.14 7-7 7-3.87 0-7-3.13-7-7 0-3.86 3.13-7 7-7 3.86 0 7 3.14 7 7ZM2414.67 1867.33c0 3.87-3.14 7-7 7-3.87 0-7-3.13-7-7 0-3.86 3.13-7 7-7 3.86 0 7 3.14 7 7ZM2419.67 1796.33c0 3.87-3.14 7-7 7-3.87 0-7-3.13-7-7 0-3.86 3.13-7 7-7 3.86 0 7 3.14 7 7ZM2425.67 1714.33c0 3.87-3.14 7-7 7-3.87 0-7-3.13-7-7 0-3.86 3.13-7 7-7 3.86 0 7 3.14 7 7ZM2430.67 1829.33c0 3.87-3.14 7-7 7-3.87 0-7-3.13-7-7 0-3.86 3.13-7 7-7 3.86 0 7 3.14 7 7Z"/><path d="M2436.67 1824.33c0 3.87-3.14 7-7 7-3.87 0-7-3.13-7-7 0-3.86 3.13-7 7-7 3.86 0 7 3.14 7 7ZM2441.67 1780.33c0 3.87-3.14 7-7 7-3.87 0-7-3.13-7-7 0-3.86 3.13-7 7-7 3.86 0 7 3.14 7 7Z"/><path d="M2447.67 1769.33c0 3.87-3.14 7-7 7-3.87 0-7-3.13-7-7 0-3.86 3.13-7 7-7 3.86 0 7 3.14 7 7Z"/><path d="M2452.67 1769.33c0 3.87-3.14 7-7 7-3.87 0-7-3.13-7-7 0-3.86 3.13-7 7-7 3.86 0 7 3.14 7 7ZM2457.67 1878.33c0 3.87-3.14 7-7 7-3.87 0-7-3.13-7-7 0-3.86 3.13-7 7-7 3.86 0 7 3.14 7 7Z"/><path d="M2463.67 1873.33c0 3.87-3.14 7-7 7-3.87 0-7-3.13-7-7 0-3.86 3.13-7 7-7 3.86 0 7 3.14 7 7Z"/><path d="M2468.67 1878.33c0 3.87-3.14 7-7 7-3.87 0-7-3.13-7-7 0-3.86 3.13-7 7-7 3.86 0 7 3.14 7 7ZM2474.67 1840.33c0 3.87-3.14 7-7 7-3.87 0-7-3.13-7-7 0-3.86 3.13-7 7-7 3.86 0 7 3.14 7 7ZM2479.67 1796.33c0 3.87-3.14 7-7 7-3.87 0-7-3.13-7-7 0-3.86 3.13-7 7-7 3.86 0 7 3.14 7 7ZM2485.67 1681.33c0 3.87-3.14 7-7 7-3.87 0-7-3.13-7-7 0-3.86 3.13-7 7-7 3.86 0 7 3.14 7 7ZM2490.67 1862.33c0 3.87-3.14 7-7 7-3.87 0-7-3.13-7-7 0-3.86 3.13-7 7-7 3.86 0 7 3.14 7 7ZM2495.67 1889.33c0 3.87-3.14 7-7 7-3.87 0-7-3.13-7-7 0-3.86 3.13-7 7-7 3.86 0 7 3.14 7 7ZM2501.67 1824.33c0 3.87-3.14 7-7 7-3.87 0-7-3.13-7-7 0-3.86 3.13-7 7-7 3.86 0 7 3.14 7 7Z"/><path d="M2506.67 1829.33c0 3.87-3.14 7-7 7-3.87 0-7-3.13-7-7 0-3.86 3.13-7 7-7 3.86 0 7 3.14 7 7Z"/><path d="M2512.67 1818.33c0 3.87-3.14 7-7 7-3.87 0-7-3.13-7-7 0-3.86 3.13-7 7-7 3.86 0 7 3.14 7 7ZM2517.67 1895.33c0 3.87-3.14 7-7 7-3.87 0-7-3.13-7-7 0-3.86 3.13-7 7-7 3.86 0 7 3.14 7 7ZM2522.67 1654.33c0 3.87-3.14 7-7 7-3.87 0-7-3.13-7-7 0-3.86 3.13-7 7-7 3.86 0 7 3.14 7 7ZM2528.67 1884.33c0 3.87-3.14 7-7 7-3.87 0-7-3.13-7-7 0-3.86 3.13-7 7-7 3.86 0 7 3.14 7 7ZM2533.67 1911.33c0 3.87-3.14 7-7 7-3.87 0-7-3.13-7-7 0-3.86 3.13-7 7-7 3.86 0 7 3.14 7 7ZM2539.67 1867.33c0 3.87-3.14 7-7 7-3.87 0-7-3.13-7-7 0-3.86 3.13-7 7-7 3.86 0 7 3.14 7 7ZM2544.67 1834.33c0 3.87-3.14 7-7 7-3.87 0-7-3.13-7-7 0-3.86 3.13-7 7-7 3.86 0 7 3.14 7 7ZM2550.67 1878.33c0 3.87-3.14 7-7 7-3.87 0-7-3.13-7-7 0-3.86 3.13-7 7-7 3.86 0 7 3.14 7 7ZM2555.67 1802.33c0 3.87-3.14 7-7 7-3.87 0-7-3.13-7-7 0-3.86 3.13-7 7-7 3.86 0 7 3.14 7 7Z"/><path d="M2560.67 1878.33c0 3.87-3.14 7-7 7-3.87 0-7-3.13-7-7 0-3.86 3.13-7 7-7 3.86 0 7 3.14 7 7ZM2566.67 1895.33c0 3.87-3.14 7-7 7-3.87 0-7-3.13-7-7 0-3.86 3.13-7 7-7 3.86 0 7 3.14 7 7ZM2571.67 1818.33c0 3.87-3.14 7-7 7-3.87 0-7-3.13-7-7 0-3.86 3.13-7 7-7 3.86 0 7 3.14 7 7Z"/><path d="M2577.67 1895.33c0 3.87-3.14 7-7 7-3.87 0-7-3.13-7-7 0-3.86 3.13-7 7-7 3.86 0 7 3.14 7 7ZM2582.67 1867.33c0 3.87-3.14 7-7 7-3.87 0-7-3.13-7-7 0-3.86 3.13-7 7-7 3.86 0 7 3.14 7 7ZM2588.67 1851.33c0 3.87-3.14 7-7 7-3.87 0-7-3.13-7-7 0-3.86 3.13-7 7-7 3.86 0 7 3.14 7 7ZM2593.67 1900.33c0 3.87-3.14 7-7 7-3.87 0-7-3.13-7-7 0-3.86 3.13-7 7-7 3.86 0 7 3.14 7 7ZM2598.67 1829.33c0 3.87-3.14 7-7 7-3.87 0-7-3.13-7-7 0-3.86 3.13-7 7-7 3.86 0 7 3.14 7 7ZM2604.67 1856.33c0 3.87-3.14 7-7 7-3.87 0-7-3.13-7-7 0-3.86 3.13-7 7-7 3.86 0 7 3.14 7 7ZM2609.67 1763.33c0 3.87-3.14 7-7 7-3.87 0-7-3.13-7-7 0-3.86 3.13-7 7-7 3.86 0 7 3.14 7 7ZM2615.67 1796.33c0 3.87-3.14 7-7 7-3.87 0-7-3.13-7-7 0-3.86 3.13-7 7-7 3.86 0 7 3.14 7 7ZM2620.67 1709.33c0 3.87-3.14 7-7 7-3.87 0-7-3.13-7-7 0-3.86 3.13-7 7-7 3.86 0 7 3.14 7 7ZM2626.67 1752.33c0 3.87-3.14 7-7 7-3.87 0-7-3.13-7-7 0-3.86 3.13-7 7-7 3.86 0 7 3.14 7 7ZM2631.67 1637.33c0 3.87-3.14 7-7 7-3.87 0-7-3.13-7-7 0-3.86 3.13-7 7-7 3.86 0 7 3.14 7 7ZM2636.67 1840.33c0 3.87-3.14 7-7 7-3.87 0-7-3.13-7-7 0-3.86 3.13-7 7-7 3.86 0 7 3.14 7 7ZM2642.67 1747.33c0 3.87-3.14 7-7 7-3.87 0-7-3.13-7-7 0-3.86 3.13-7 7-7 3.86 0 7 3.14 7 7Z"/><path d="M2647.67 1747.33c0 3.87-3.14 7-7 7-3.87 0-7-3.13-7-7 0-3.86 3.13-7 7-7 3.86 0 7 3.14 7 7ZM2653.67 1780.33c0 3.87-3.14 7-7 7-3.87 0-7-3.13-7-7 0-3.86 3.13-7 7-7 3.86 0 7 3.14 7 7ZM2658.67 1681.33c0 3.87-3.14 7-7 7-3.87 0-7-3.13-7-7 0-3.86 3.13-7 7-7 3.86 0 7 3.14 7 7ZM2664.67 1802.33c0 3.87-3.14 7-7 7-3.87 0-7-3.13-7-7 0-3.86 3.13-7 7-7 3.86 0 7 3.14 7 7ZM2669.67 1736.33c0 3.87-3.14 7-7 7-3.87 0-7-3.13-7-7 0-3.86 3.13-7 7-7 3.86 0 7 3.14 7 7ZM2674.67 1752.33c0 3.87-3.14 7-7 7-3.87 0-7-3.13-7-7 0-3.86 3.13-7 7-7 3.86 0 7 3.14 7 7ZM2680.67 1692.33c0 3.87-3.14 7-7 7-3.87 0-7-3.13-7-7 0-3.86 3.13-7 7-7 3.86 0 7 3.14 7 7ZM2685.67 1867.33c0 3.87-3.14 7-7 7-3.87 0-7-3.13-7-7 0-3.86 3.13-7 7-7 3.86 0 7 3.14 7 7ZM2691.67 1774.33c0 3.87-3.14 7-7 7-3.87 0-7-3.13-7-7 0-3.86 3.13-7 7-7 3.86 0 7 3.14 7 7ZM2696.67 1818.33c0 3.87-3.14 7-7 7-3.87 0-7-3.13-7-7 0-3.86 3.13-7 7-7 3.86 0 7 3.14 7 7Z"/><path d="M2702.67 1780.33c0 3.87-3.14 7-7 7-3.87 0-7-3.13-7-7 0-3.86 3.13-7 7-7 3.86 0 7 3.14 7 7Z"/><path d="M2707.67 1780.33c0 3.87-3.14 7-7 7-3.87 0-7-3.13-7-7 0-3.86 3.13-7 7-7 3.86 0 7 3.14 7 7ZM2712.67 1681.33c0 3.87-3.14 7-7 7-3.87 0-7-3.13-7-7 0-3.86 3.13-7 7-7 3.86 0 7 3.14 7 7ZM2718.67 1769.33c0 3.87-3.14 7-7 7-3.87 0-7-3.13-7-7 0-3.86 3.13-7 7-7 3.86 0 7 3.14 7 7ZM2723.67 1747.33c0 3.87-3.14 7-7 7-3.87 0-7-3.13-7-7 0-3.86 3.13-7 7-7 3.86 0 7 3.14 7 7ZM2729.67 1561.33c0 3.87-3.14 7-7 7-3.87 0-7-3.13-7-7 0-3.86 3.13-7 7-7 3.86 0 7 3.14 7 7ZM2734.67 1774.33c0 3.87-3.14 7-7 7-3.87 0-7-3.13-7-7 0-3.86 3.13-7 7-7 3.86 0 7 3.14 7 7ZM2739.67 1813.33c0 3.87-3.14 7-7 7-3.87 0-7-3.13-7-7 0-3.86 3.13-7 7-7 3.86 0 7 3.14 7 7ZM2745.67 1763.33c0 3.87-3.14 7-7 7-3.87 0-7-3.13-7-7 0-3.86 3.13-7 7-7 3.86 0 7 3.14 7 7ZM2750.67 1802.33c0 3.87-3.14 7-7 7-3.87 0-7-3.13-7-7 0-3.86 3.13-7 7-7 3.86 0 7 3.14 7 7ZM2756.67 1714.33c0 3.87-3.14 7-7 7-3.87 0-7-3.13-7-7 0-3.86 3.13-7 7-7 3.86 0 7 3.14 7 7ZM2761.67 1780.33c0 3.87-3.14 7-7 7-3.87 0-7-3.13-7-7 0-3.86 3.13-7 7-7 3.86 0 7 3.14 7 7Z"/><path d="M2767.67 1774.33c0 3.87-3.14 7-7 7-3.87 0-7-3.13-7-7 0-3.86 3.13-7 7-7 3.86 0 7 3.14 7 7ZM2772.67 1813.33c0 3.87-3.14 7-7 7-3.87 0-7-3.13-7-7 0-3.86 3.13-7 7-7 3.86 0 7 3.14 7 7Z"/><path d="M2777.67 1780.33c0 3.87-3.14 7-7 7-3.87 0-7-3.13-7-7 0-3.86 3.13-7 7-7 3.86 0 7 3.14 7 7ZM2783.67 1730.33c0 3.87-3.14 7-7 7-3.87 0-7-3.13-7-7 0-3.86 3.13-7 7-7 3.86 0 7 3.14 7 7ZM2788.67 1665.33c0 3.87-3.14 7-7 7-3.87 0-7-3.13-7-7 0-3.86 3.13-7 7-7 3.86 0 7 3.14 7 7ZM2794.67 1566.33c0 3.87-3.14 7-7 7-3.87 0-7-3.13-7-7 0-3.86 3.13-7 7-7 3.86 0 7 3.14 7 7ZM2799.67 1681.33c0 3.87-3.14 7-7 7-3.87 0-7-3.13-7-7 0-3.86 3.13-7 7-7 3.86 0 7 3.14 7 7ZM2805.67 1637.33c0 3.87-3.14 7-7 7-3.87 0-7-3.13-7-7 0-3.86 3.13-7 7-7 3.86 0 7 3.14 7 7Z"/><path d="M2810.67 1676.33c0 3.87-3.14 7-7 7-3.87 0-7-3.13-7-7 0-3.86 3.13-7 7-7 3.86 0 7 3.14 7 7ZM2815.67 1533.33c0 3.87-3.14 7-7 7-3.87 0-7-3.13-7-7 0-3.86 3.13-7 7-7 3.86 0 7 3.14 7 7ZM2821.67 1648.33c0 3.87-3.14 7-7 7-3.87 0-7-3.13-7-7 0-3.86 3.13-7 7-7 3.86 0 7 3.14 7 7ZM2826.67 1561.33c0 3.87-3.14 7-7 7-3.87 0-7-3.13-7-7 0-3.86 3.13-7 7-7 3.86 0 7 3.14 7 7ZM2832.67 1610.33c0 3.87-3.14 7-7 7-3.87 0-7-3.13-7-7 0-3.86 3.13-7 7-7 3.86 0 7 3.14 7 7Z"/><path d="M2837.67 1599.33c0 3.87-3.14 7-7 7-3.87 0-7-3.13-7-7 0-3.86 3.13-7 7-7 3.86 0 7 3.14 7 7ZM2843.67 1703.33c0 3.87-3.14 7-7 7-3.87 0-7-3.13-7-7 0-3.86 3.13-7 7-7 3.86 0 7 3.14 7 7ZM2848.67 1479.33c0 3.87-3.14 7-7 7-3.87 0-7-3.13-7-7 0-3.86 3.13-7 7-7 3.86 0 7 3.14 7 7ZM2853.67 1615.33c0 3.87-3.14 7-7 7-3.87 0-7-3.13-7-7 0-3.86 3.13-7 7-7 3.86 0 7 3.14 7 7ZM2859.67 1566.33c0 3.87-3.14 7-7 7-3.87 0-7-3.13-7-7 0-3.86 3.13-7 7-7 3.86 0 7 3.14 7 7ZM2864.67 1769.33c0 3.87-3.14 7-7 7-3.87 0-7-3.13-7-7 0-3.86 3.13-7 7-7 3.86 0 7 3.14 7 7ZM2870.67 1539.33c0 3.87-3.14 7-7 7-3.87 0-7-3.13-7-7 0-3.86 3.13-7 7-7 3.86 0 7 3.14 7 7ZM2875.67 1698.33c0 3.87-3.14 7-7 7-3.87 0-7-3.13-7-7 0-3.86 3.13-7 7-7 3.86 0 7 3.14 7 7ZM2881.67 1785.33c0 3.87-3.14 7-7 7-3.87 0-7-3.13-7-7 0-3.86 3.13-7 7-7 3.86 0 7 3.14 7 7ZM2886.67 1736.33c0 3.87-3.14 7-7 7-3.87 0-7-3.13-7-7 0-3.86 3.13-7 7-7 3.86 0 7 3.14 7 7Z"/><path d="M2891.67 1780.33c0 3.87-3.14 7-7 7-3.87 0-7-3.13-7-7 0-3.86 3.13-7 7-7 3.86 0 7 3.14 7 7Z"/><path d="M2897.67 1769.33c0 3.87-3.14 7-7 7-3.87 0-7-3.13-7-7 0-3.86 3.13-7 7-7 3.86 0 7 3.14 7 7ZM2902.67 1785.33c0 3.87-3.14 7-7 7-3.87 0-7-3.13-7-7 0-3.86 3.13-7 7-7 3.86 0 7 3.14 7 7ZM2908.67 1577.33c0 3.87-3.14 7-7 7-3.87 0-7-3.13-7-7 0-3.86 3.13-7 7-7 3.86 0 7 3.14 7 7ZM2913.67 1698.33c0 3.87-3.14 7-7 7-3.87 0-7-3.13-7-7 0-3.86 3.13-7 7-7 3.86 0 7 3.14 7 7ZM2919.67 1566.33c0 3.87-3.14 7-7 7-3.87 0-7-3.13-7-7 0-3.86 3.13-7 7-7 3.86 0 7 3.14 7 7ZM2924.67 1670.33c0 3.87-3.14 7-7 7-3.87 0-7-3.13-7-7 0-3.86 3.13-7 7-7 3.86 0 7 3.14 7 7ZM2929.67 1511.33c0 3.87-3.14 7-7 7-3.87 0-7-3.13-7-7 0-3.86 3.13-7 7-7 3.86 0 7 3.14 7 7ZM2935.67 1369.33c0 3.87-3.14 7-7 7-3.87 0-7-3.13-7-7 0-3.86 3.13-7 7-7 3.86 0 7 3.14 7 7Z"/><path d="M2940.67 1369.33c0 3.87-3.14 7-7 7-3.87 0-7-3.13-7-7 0-3.86 3.13-7 7-7 3.86 0 7 3.14 7 7ZM2946.67 1429.33c0 3.87-3.14 7-7 7-3.87 0-7-3.13-7-7 0-3.86 3.13-7 7-7 3.86 0 7 3.14 7 7ZM2951.67 1446.33c0 3.87-3.14 7-7 7-3.87 0-7-3.13-7-7 0-3.86 3.13-7 7-7 3.86 0 7 3.14 7 7ZM2956.67 1369.33c0 3.87-3.14 7-7 7-3.87 0-7-3.13-7-7 0-3.86 3.13-7 7-7 3.86 0 7 3.14 7 7ZM2962.67 1331.33c0 3.87-3.14 7-7 7-3.87 0-7-3.13-7-7 0-3.86 3.13-7 7-7 3.86 0 7 3.14 7 7ZM2967.67 1232.33c0 3.87-3.14 7-7 7-3.87 0-7-3.13-7-7 0-3.86 3.13-7 7-7 3.86 0 7 3.14 7 7ZM2973.67 1358.33c0 3.87-3.14 7-7 7-3.87 0-7-3.13-7-7 0-3.86 3.13-7 7-7 3.86 0 7 3.14 7 7ZM2978.67 1429.33c0 3.87-3.14 7-7 7-3.87 0-7-3.13-7-7 0-3.86 3.13-7 7-7 3.86 0 7 3.14 7 7ZM2984.67 1500.33c0 3.87-3.14 7-7 7-3.87 0-7-3.13-7-7 0-3.86 3.13-7 7-7 3.86 0 7 3.14 7 7Z"/><path d="M2989.67 1506.33c0 3.87-3.14 7-7 7-3.87 0-7-3.13-7-7 0-3.86 3.13-7 7-7 3.86 0 7 3.14 7 7ZM2994.67 1446.33c0 3.87-3.14 7-7 7-3.87 0-7-3.13-7-7 0-3.86 3.13-7 7-7 3.86 0 7 3.14 7 7Z"/><path d="M3000.67 1446.33c0 3.87-3.14 7-7 7-3.87 0-7-3.13-7-7 0-3.86 3.13-7 7-7 3.86 0 7 3.14 7 7ZM3005.67 1407.33c0 3.87-3.14 7-7 7-3.87 0-7-3.13-7-7 0-3.86 3.13-7 7-7 3.86 0 7 3.14 7 7ZM3011.67 1342.33c0 3.87-3.14 7-7 7-3.87 0-7-3.13-7-7 0-3.86 3.13-7 7-7 3.86 0 7 3.14 7 7ZM3016.67 1281.33c0 3.87-3.14 7-7 7-3.87 0-7-3.13-7-7 0-3.86 3.13-7 7-7 3.86 0 7 3.14 7 7ZM3022.67 1325.33c0 3.87-3.14 7-7 7-3.87 0-7-3.13-7-7 0-3.86 3.13-7 7-7 3.86 0 7 3.14 7 7Z"/><path d="M3027.67 1325.33c0 3.87-3.14 7-7 7-3.87 0-7-3.13-7-7 0-3.86 3.13-7 7-7 3.86 0 7 3.14 7 7ZM3032.67 1375.33c0 3.87-3.14 7-7 7-3.87 0-7-3.13-7-7 0-3.86 3.13-7 7-7 3.86 0 7 3.14 7 7ZM3038.67 1281.33c0 3.87-3.14 7-7 7-3.87 0-7-3.13-7-7 0-3.86 3.13-7 7-7 3.86 0 7 3.14 7 7ZM3043.67 1506.33c0 3.87-3.14 7-7 7-3.87 0-7-3.13-7-7 0-3.86 3.13-7 7-7 3.86 0 7 3.14 7 7ZM3049.67 1249.33c0 3.87-3.14 7-7 7-3.87 0-7-3.13-7-7 0-3.86 3.13-7 7-7 3.86 0 7 3.14 7 7ZM3054.67 1413.33c0 3.87-3.14 7-7 7-3.87 0-7-3.13-7-7 0-3.86 3.13-7 7-7 3.86 0 7 3.14 7 7ZM3060.67 1342.33c0 3.87-3.14 7-7 7-3.87 0-7-3.13-7-7 0-3.86 3.13-7 7-7 3.86 0 7 3.14 7 7ZM3065.67 1150.33c0 3.87-3.14 7-7 7-3.87 0-7-3.13-7-7 0-3.86 3.13-7 7-7 3.86 0 7 3.14 7 7ZM3070.67 1238.33c0 3.87-3.14 7-7 7-3.87 0-7-3.13-7-7 0-3.86 3.13-7 7-7 3.86 0 7 3.14 7 7ZM3076.67 1221.33c0 3.87-3.14 7-7 7-3.87 0-7-3.13-7-7 0-3.86 3.13-7 7-7 3.86 0 7 3.14 7 7ZM3081.67 1073.33c0 3.87-3.14 7-7 7-3.87 0-7-3.13-7-7 0-3.86 3.13-7 7-7 3.86 0 7 3.14 7 7ZM3087.67 1254.33c0 3.87-3.14 7-7 7-3.87 0-7-3.13-7-7 0-3.86 3.13-7 7-7 3.86 0 7 3.14 7 7ZM3092.67 1303.33c0 3.87-3.14 7-7 7-3.87 0-7-3.13-7-7 0-3.86 3.13-7 7-7 3.86 0 7 3.14 7 7ZM3098.67 1325.33c0 3.87-3.14 7-7 7-3.87 0-7-3.13-7-7 0-3.86 3.13-7 7-7 3.86 0 7 3.14 7 7ZM3103.67 1194.33c0 3.87-3.14 7-7 7-3.87 0-7-3.13-7-7 0-3.86 3.13-7 7-7 3.86 0 7 3.14 7 7ZM3108.67 1254.33c0 3.87-3.14 7-7 7-3.87 0-7-3.13-7-7 0-3.86 3.13-7 7-7 3.86 0 7 3.14 7 7ZM3114.67 1375.33c0 3.87-3.14 7-7 7-3.87 0-7-3.13-7-7 0-3.86 3.13-7 7-7 3.86 0 7 3.14 7 7ZM3119.67 1073.33c0 3.87-3.14 7-7 7-3.87 0-7-3.13-7-7 0-3.86 3.13-7 7-7 3.86 0 7 3.14 7 7ZM3125.67 1227.33c0 3.87-3.14 7-7 7-3.87 0-7-3.13-7-7 0-3.86 3.13-7 7-7 3.86 0 7 3.14 7 7ZM3130.67 1413.33c0 3.87-3.14 7-7 7-3.87 0-7-3.13-7-7 0-3.86 3.13-7 7-7 3.86 0 7 3.14 7 7ZM3136.67 1238.33c0 3.87-3.14 7-7 7-3.87 0-7-3.13-7-7 0-3.86 3.13-7 7-7 3.86 0 7 3.14 7 7ZM3141.67 1375.33c0 3.87-3.14 7-7 7-3.87 0-7-3.13-7-7 0-3.86 3.13-7 7-7 3.86 0 7 3.14 7 7ZM3146.67 1533.33c0 3.87-3.14 7-7 7-3.87 0-7-3.13-7-7 0-3.86 3.13-7 7-7 3.86 0 7 3.14 7 7ZM3152.67 1468.33c0 3.87-3.14 7-7 7-3.87 0-7-3.13-7-7 0-3.86 3.13-7 7-7 3.86 0 7 3.14 7 7ZM3157.67 1599.33c0 3.87-3.14 7-7 7-3.87 0-7-3.13-7-7 0-3.86 3.13-7 7-7 3.86 0 7 3.14 7 7ZM3163.67 1396.33c0 3.87-3.14 7-7 7-3.87 0-7-3.13-7-7 0-3.86 3.13-7 7-7 3.86 0 7 3.14 7 7ZM3168.67 1188.33c0 3.87-3.14 7-7 7-3.87 0-7-3.13-7-7 0-3.86 3.13-7 7-7 3.86 0 7 3.14 7 7ZM3173.67 1166.33c0 3.87-3.14 7-7 7-3.87 0-7-3.13-7-7 0-3.86 3.13-7 7-7 3.86 0 7 3.14 7 7ZM3179.67 1364.33c0 3.87-3.14 7-7 7-3.87 0-7-3.13-7-7 0-3.86 3.13-7 7-7 3.86 0 7 3.14 7 7ZM3184.67 1270.33c0 3.87-3.14 7-7 7-3.87 0-7-3.13-7-7 0-3.86 3.13-7 7-7 3.86 0 7 3.14 7 7ZM3190.67 1166.33c0 3.87-3.14 7-7 7-3.87 0-7-3.13-7-7 0-3.86 3.13-7 7-7 3.86 0 7 3.14 7 7ZM3195.67 1194.33c0 3.87-3.14 7-7 7-3.87 0-7-3.13-7-7 0-3.86 3.13-7 7-7 3.86 0 7 3.14 7 7Z"/><path d="M3201.67 1194.33c0 3.87-3.14 7-7 7-3.87 0-7-3.13-7-7 0-3.86 3.13-7 7-7 3.86 0 7 3.14 7 7ZM3206.67 1166.33c0 3.87-3.14 7-7 7-3.87 0-7-3.13-7-7 0-3.86 3.13-7 7-7 3.86 0 7 3.14 7 7ZM3211.67 1402.33c0 3.87-3.14 7-7 7-3.87 0-7-3.13-7-7 0-3.86 3.13-7 7-7 3.86 0 7 3.14 7 7ZM3217.67 1106.33c0 3.87-3.14 7-7 7-3.87 0-7-3.13-7-7 0-3.86 3.13-7 7-7 3.86 0 7 3.14 7 7Z"/><path d="M3222.67 1106.33c0 3.87-3.14 7-7 7-3.87 0-7-3.13-7-7 0-3.86 3.13-7 7-7 3.86 0 7 3.14 7 7ZM3228.67 1150.33c0 3.87-3.14 7-7 7-3.87 0-7-3.13-7-7 0-3.86 3.13-7 7-7 3.86 0 7 3.14 7 7ZM3233.67 1073.33c0 3.87-3.14 7-7 7-3.87 0-7-3.13-7-7 0-3.86 3.13-7 7-7 3.86 0 7 3.14 7 7ZM3239.67 1046.33c0 3.87-3.14 7-7 7-3.87 0-7-3.13-7-7 0-3.86 3.13-7 7-7 3.86 0 7 3.14 7 7ZM3244.67 882.333c0 3.866-3.14 7-7 7-3.87 0-7-3.134-7-7s3.13-7 7-7c3.86 0 7 3.134 7 7Z"/><path d="M3249.67 882.333c0 3.866-3.14 7-7 7-3.87 0-7-3.134-7-7s3.13-7 7-7c3.86 0 7 3.134 7 7ZM3255.67 1134.33c0 3.87-3.14 7-7 7-3.87 0-7-3.13-7-7 0-3.86 3.13-7 7-7 3.86 0 7 3.14 7 7ZM3260.67 926.333c0 3.866-3.14 7-7 7-3.87 0-7-3.134-7-7s3.13-7 7-7c3.86 0 7 3.134 7 7ZM3266.67 1068.33c0 3.87-3.14 7-7 7-3.87 0-7-3.13-7-7 0-3.86 3.13-7 7-7 3.86 0 7 3.14 7 7ZM3271.67 1276.33c0 3.87-3.14 7-7 7-3.87 0-7-3.13-7-7 0-3.86 3.13-7 7-7 3.86 0 7 3.14 7 7Z"/><path d="M3277.67 1281.33c0 3.87-3.14 7-7 7-3.87 0-7-3.13-7-7 0-3.86 3.13-7 7-7 3.86 0 7 3.14 7 7ZM3282.67 1150.33c0 3.87-3.14 7-7 7-3.87 0-7-3.13-7-7 0-3.86 3.13-7 7-7 3.86 0 7 3.14 7 7ZM3287.67 1227.33c0 3.87-3.14 7-7 7-3.87 0-7-3.13-7-7 0-3.86 3.13-7 7-7 3.86 0 7 3.14 7 7ZM3293.67 1303.33c0 3.87-3.14 7-7 7-3.87 0-7-3.13-7-7 0-3.86 3.13-7 7-7 3.86 0 7 3.14 7 7ZM3298.67 1260.33c0 3.87-3.14 7-7 7-3.87 0-7-3.13-7-7 0-3.86 3.13-7 7-7 3.86 0 7 3.14 7 7Z"/><path d="M3304.67 1249.33c0 3.87-3.14 7-7 7-3.87 0-7-3.13-7-7 0-3.86 3.13-7 7-7 3.86 0 7 3.14 7 7ZM3309.67 1095.33c0 3.87-3.14 7-7 7-3.87 0-7-3.13-7-7 0-3.86 3.13-7 7-7 3.86 0 7 3.14 7 7ZM3315.67 1314.33c0 3.87-3.14 7-7 7-3.87 0-7-3.13-7-7 0-3.86 3.13-7 7-7 3.86 0 7 3.14 7 7ZM3320.67 1298.33c0 3.87-3.14 7-7 7-3.87 0-7-3.13-7-7 0-3.86 3.13-7 7-7 3.86 0 7 3.14 7 7ZM3325.67 1500.33c0 3.87-3.14 7-7 7-3.87 0-7-3.13-7-7 0-3.86 3.13-7 7-7 3.86 0 7 3.14 7 7ZM3331.67 1402.33c0 3.87-3.14 7-7 7-3.87 0-7-3.13-7-7 0-3.86 3.13-7 7-7 3.86 0 7 3.14 7 7ZM3336.67 1511.33c0 3.87-3.14 7-7 7-3.87 0-7-3.13-7-7 0-3.86 3.13-7 7-7 3.86 0 7 3.14 7 7ZM3342.67 1610.33c0 3.87-3.14 7-7 7-3.87 0-7-3.13-7-7 0-3.86 3.13-7 7-7 3.86 0 7 3.14 7 7ZM3347.67 1495.33c0 3.87-3.14 7-7 7-3.87 0-7-3.13-7-7 0-3.86 3.13-7 7-7 3.86 0 7 3.14 7 7ZM3353.67 1522.33c0 3.87-3.14 7-7 7-3.87 0-7-3.13-7-7 0-3.86 3.13-7 7-7 3.86 0 7 3.14 7 7ZM3358.67 1599.33c0 3.87-3.14 7-7 7-3.87 0-7-3.13-7-7 0-3.86 3.13-7 7-7 3.86 0 7 3.14 7 7ZM3363.67 1577.33c0 3.87-3.14 7-7 7-3.87 0-7-3.13-7-7 0-3.86 3.13-7 7-7 3.86 0 7 3.14 7 7ZM3369.67 1681.33c0 3.87-3.14 7-7 7-3.87 0-7-3.13-7-7 0-3.86 3.13-7 7-7 3.86 0 7 3.14 7 7Z"/><path d="M3374.67 1681.33c0 3.87-3.14 7-7 7-3.87 0-7-3.13-7-7 0-3.86 3.13-7 7-7 3.86 0 7 3.14 7 7ZM3380.67 1648.33c0 3.87-3.14 7-7 7-3.87 0-7-3.13-7-7 0-3.86 3.13-7 7-7 3.86 0 7 3.14 7 7ZM3385.67 1719.33c0 3.87-3.14 7-7 7-3.87 0-7-3.13-7-7 0-3.86 3.13-7 7-7 3.86 0 7 3.14 7 7ZM3390.67 1698.33c0 3.87-3.14 7-7 7-3.87 0-7-3.13-7-7 0-3.86 3.13-7 7-7 3.86 0 7 3.14 7 7ZM3396.67 1840.33c0 3.87-3.14 7-7 7-3.87 0-7-3.13-7-7 0-3.86 3.13-7 7-7 3.86 0 7 3.14 7 7ZM3401.67 1873.33c0 3.87-3.14 7-7 7-3.87 0-7-3.13-7-7 0-3.86 3.13-7 7-7 3.86 0 7 3.14 7 7ZM3407.67 1917.33c0 3.87-3.14 7-7 7-3.87 0-7-3.13-7-7 0-3.86 3.13-7 7-7 3.86 0 7 3.14 7 7ZM3412.67 1949.33c0 3.87-3.14 7-7 7-3.87 0-7-3.13-7-7 0-3.86 3.13-7 7-7 3.86 0 7 3.14 7 7Z"/><path d="M3418.67 1944.33c0 3.87-3.14 7-7 7-3.87 0-7-3.13-7-7 0-3.86 3.13-7 7-7 3.86 0 7 3.14 7 7Z"/><path d="M3423.67 1955.33c0 3.87-3.14 7-7 7-3.87 0-7-3.13-7-7 0-3.86 3.13-7 7-7 3.86 0 7 3.14 7 7Z"/><path d="M3428.67 1955.33c0 3.87-3.14 7-7 7-3.87 0-7-3.13-7-7 0-3.86 3.13-7 7-7 3.86 0 7 3.14 7 7Z"/><path d="M3434.67 1955.33c0 3.87-3.14 7-7 7-3.87 0-7-3.13-7-7 0-3.86 3.13-7 7-7 3.86 0 7 3.14 7 7Z"/><path d="M3439.67 1955.33c0 3.87-3.14 7-7 7-3.87 0-7-3.13-7-7 0-3.86 3.13-7 7-7 3.86 0 7 3.14 7 7Z"/><path d="M3445.67 1955.33c0 3.87-3.14 7-7 7-3.87 0-7-3.13-7-7 0-3.86 3.13-7 7-7 3.86 0 7 3.14 7 7Z"/><path d="M3450.67 1955.33c0 3.87-3.14 7-7 7-3.87 0-7-3.13-7-7 0-3.86 3.13-7 7-7 3.86 0 7 3.14 7 7Z"/><path d="M3456.67 1955.33c0 3.87-3.14 7-7 7-3.87 0-7-3.13-7-7 0-3.86 3.13-7 7-7 3.86 0 7 3.14 7 7Z"/><path d="M3461.67 1955.33c0 3.87-3.14 7-7 7-3.87 0-7-3.13-7-7 0-3.86 3.13-7 7-7 3.86 0 7 3.14 7 7Z"/><path d="M3466.67 1955.33c0 3.87-3.14 7-7 7-3.87 0-7-3.13-7-7 0-3.86 3.13-7 7-7 3.86 0 7 3.14 7 7Z"/><path d="M3472.67 1949.33c0 3.87-3.14 7-7 7-3.87 0-7-3.13-7-7 0-3.86 3.13-7 7-7 3.86 0 7 3.14 7 7Z"/><path d="M3477.67 1955.33c0 3.87-3.14 7-7 7-3.87 0-7-3.13-7-7 0-3.86 3.13-7 7-7 3.86 0 7 3.14 7 7Z"/><path d="M3483.67 1944.33c0 3.87-3.14 7-7 7-3.87 0-7-3.13-7-7 0-3.86 3.13-7 7-7 3.86 0 7 3.14 7 7Z"/><path d="M3488.67 1955.33c0 3.87-3.14 7-7 7-3.87 0-7-3.13-7-7 0-3.86 3.13-7 7-7 3.86 0 7 3.14 7 7Z"/><path d="M3494.67 1949.33c0 3.87-3.14 7-7 7-3.87 0-7-3.13-7-7 0-3.86 3.13-7 7-7 3.86 0 7 3.14 7 7Z"/><path d="M3499.67 1944.33c0 3.87-3.14 7-7 7-3.87 0-7-3.13-7-7 0-3.86 3.13-7 7-7 3.86 0 7 3.14 7 7ZM3504.67 1928.33c0 3.87-3.14 7-7 7-3.87 0-7-3.13-7-7 0-3.86 3.13-7 7-7 3.86 0 7 3.14 7 7ZM3510.67 1840.33c0 3.87-3.14 7-7 7-3.87 0-7-3.13-7-7 0-3.86 3.13-7 7-7 3.86 0 7 3.14 7 7Z"/><path d="M3515.67 1851.33c0 3.87-3.14 7-7 7-3.87 0-7-3.13-7-7 0-3.86 3.13-7 7-7 3.86 0 7 3.14 7 7Z"/><path d="M3521.67 1856.33c0 3.87-3.14 7-7 7-3.87 0-7-3.13-7-7 0-3.86 3.13-7 7-7 3.86 0 7 3.14 7 7ZM3526.67 1818.33c0 3.87-3.14 7-7 7-3.87 0-7-3.13-7-7 0-3.86 3.13-7 7-7 3.86 0 7 3.14 7 7ZM3532.67 1895.33c0 3.87-3.14 7-7 7-3.87 0-7-3.13-7-7 0-3.86 3.13-7 7-7 3.86 0 7 3.14 7 7ZM3537.67 1867.33c0 3.87-3.14 7-7 7-3.87 0-7-3.13-7-7 0-3.86 3.13-7 7-7 3.86 0 7 3.14 7 7ZM3542.67 1829.33c0 3.87-3.14 7-7 7-3.87 0-7-3.13-7-7 0-3.86 3.13-7 7-7 3.86 0 7 3.14 7 7ZM3548.67 1878.33c0 3.87-3.14 7-7 7-3.87 0-7-3.13-7-7 0-3.86 3.13-7 7-7 3.86 0 7 3.14 7 7ZM3553.67 1785.33c0 3.87-3.14 7-7 7-3.87 0-7-3.13-7-7 0-3.86 3.13-7 7-7 3.86 0 7 3.14 7 7ZM3559.67 1747.33c0 3.87-3.14 7-7 7-3.87 0-7-3.13-7-7 0-3.86 3.13-7 7-7 3.86 0 7 3.14 7 7Z"/><path d="M3564.67 1785.33c0 3.87-3.14 7-7 7-3.87 0-7-3.13-7-7 0-3.86 3.13-7 7-7 3.86 0 7 3.14 7 7ZM3570.67 1654.33c0 3.87-3.14 7-7 7-3.87 0-7-3.13-7-7 0-3.86 3.13-7 7-7 3.86 0 7 3.14 7 7ZM3575.67 1709.33c0 3.87-3.14 7-7 7-3.87 0-7-3.13-7-7 0-3.86 3.13-7 7-7 3.86 0 7 3.14 7 7ZM3580.67 1550.33c0 3.87-3.14 7-7 7-3.87 0-7-3.13-7-7 0-3.86 3.13-7 7-7 3.86 0 7 3.14 7 7ZM3586.67 1583.33c0 3.87-3.14 7-7 7-3.87 0-7-3.13-7-7 0-3.86 3.13-7 7-7 3.86 0 7 3.14 7 7ZM3591.67 1418.33c0 3.87-3.14 7-7 7-3.87 0-7-3.13-7-7 0-3.86 3.13-7 7-7 3.86 0 7 3.14 7 7ZM3597.67 1490.33c0 3.87-3.14 7-7 7-3.87 0-7-3.13-7-7 0-3.86 3.13-7 7-7 3.86 0 7 3.14 7 7ZM3602.67 1594.33c0 3.87-3.14 7-7 7-3.87 0-7-3.13-7-7 0-3.86 3.13-7 7-7 3.86 0 7 3.14 7 7ZM3607.67 1566.33c0 3.87-3.14 7-7 7-3.87 0-7-3.13-7-7 0-3.86 3.13-7 7-7 3.86 0 7 3.14 7 7Z"/><path d="M3613.67 1599.33c0 3.87-3.14 7-7 7-3.87 0-7-3.13-7-7 0-3.86 3.13-7 7-7 3.86 0 7 3.14 7 7ZM3618.67 1632.33c0 3.87-3.14 7-7 7-3.87 0-7-3.13-7-7 0-3.86 3.13-7 7-7 3.86 0 7 3.14 7 7Z"/><path d="M3624.67 1626.33c0 3.87-3.14 7-7 7-3.87 0-7-3.13-7-7 0-3.86 3.13-7 7-7 3.86 0 7 3.14 7 7ZM3629.67 1665.33c0 3.87-3.14 7-7 7-3.87 0-7-3.13-7-7 0-3.86 3.13-7 7-7 3.86 0 7 3.14 7 7ZM3635.67 1725.33c0 3.87-3.14 7-7 7-3.87 0-7-3.13-7-7 0-3.86 3.13-7 7-7 3.86 0 7 3.14 7 7ZM3640.67 1752.33c0 3.87-3.14 7-7 7-3.87 0-7-3.13-7-7 0-3.86 3.13-7 7-7 3.86 0 7 3.14 7 7ZM3645.67 1670.33c0 3.87-3.14 7-7 7-3.87 0-7-3.13-7-7 0-3.86 3.13-7 7-7 3.86 0 7 3.14 7 7ZM3651.67 1703.33c0 3.87-3.14 7-7 7-3.87 0-7-3.13-7-7 0-3.86 3.13-7 7-7 3.86 0 7 3.14 7 7ZM3656.67 1719.33c0 3.87-3.14 7-7 7-3.87 0-7-3.13-7-7 0-3.86 3.13-7 7-7 3.86 0 7 3.14 7 7Z"/><path d="M3662.67 1719.33c0 3.87-3.14 7-7 7-3.87 0-7-3.13-7-7 0-3.86 3.13-7 7-7 3.86 0 7 3.14 7 7ZM3667.67 1741.33c0 3.87-3.14 7-7 7-3.87 0-7-3.13-7-7 0-3.86 3.13-7 7-7 3.86 0 7 3.14 7 7ZM3673.67 1763.33c0 3.87-3.14 7-7 7-3.87 0-7-3.13-7-7 0-3.86 3.13-7 7-7 3.86 0 7 3.14 7 7ZM3678.67 1802.33c0 3.87-3.14 7-7 7-3.87 0-7-3.13-7-7 0-3.86 3.13-7 7-7 3.86 0 7 3.14 7 7ZM3683.67 1845.33c0 3.87-3.14 7-7 7-3.87 0-7-3.13-7-7 0-3.86 3.13-7 7-7 3.86 0 7 3.14 7 7ZM3689.67 1829.33c0 3.87-3.14 7-7 7-3.87 0-7-3.13-7-7 0-3.86 3.13-7 7-7 3.86 0 7 3.14 7 7Z"/><path d="M3694.67 1818.33c0 3.87-3.14 7-7 7-3.87 0-7-3.13-7-7 0-3.86 3.13-7 7-7 3.86 0 7 3.14 7 7ZM3700.67 1834.33c0 3.87-3.14 7-7 7-3.87 0-7-3.13-7-7 0-3.86 3.13-7 7-7 3.86 0 7 3.14 7 7ZM3705.67 1862.33c0 3.87-3.14 7-7 7-3.87 0-7-3.13-7-7 0-3.86 3.13-7 7-7 3.86 0 7 3.14 7 7Z"/></g><g clip-path="url(#d)"><text fill="#595959" font-family="Calibri,Calibri_MSFontService,sans-serif" font-weight="400" font-size="55" transform="translate(1341.75 1969)">0</text></g><g clip-path="url(#e)"><text fill="#595959" font-family="Calibri,Calibri_MSFontService,sans-serif" font-weight="400" font-size="55" transform="translate(1313.88 1832)">25</text></g><g clip-path="url(#f)"><text fill="#595959" font-family="Calibri,Calibri_MSFontService,sans-serif" font-weight="400" font-size="55" transform="translate(1313.88 1695)">50</text></g><g clip-path="url(#g)"><text fill="#595959" font-family="Calibri,Calibri_MSFontService,sans-serif" font-weight="400" font-size="55" transform="translate(1313.88 1558)">75</text></g><g clip-path="url(#h)"><text fill="#595959" font-family="Calibri,Calibri_MSFontService,sans-serif" font-weight="400" font-size="55" transform="translate(1286.01 1421)">100</text></g><g clip-path="url(#i)"><text fill="#595959" font-family="Calibri,Calibri_MSFontService,sans-serif" font-weight="400" font-size="55" transform="translate(1286.01 1285)">125</text></g><g clip-path="url(#j)"><text fill="#595959" font-family="Calibri,Calibri_MSFontService,sans-serif" font-weight="400" font-size="55" transform="translate(1286.01 1148)">150</text></g><g clip-path="url(#k)"><text fill="#595959" font-family="Calibri,Calibri_MSFontService,sans-serif" font-weight="400" font-size="55" transform="translate(1286.01 1011)">175</text></g><g clip-path="url(#l)"><text fill="#595959" font-family="Calibri,Calibri_MSFontService,sans-serif" font-weight="400" font-size="55" transform="translate(1286.01 874)">200</text></g><g clip-path="url(#m)"><text fill="#595959" font-family="Calibri,Calibri_MSFontService,sans-serif" font-weight="400" font-size="55" transform="translate(1286.01 737)">225</text></g><g clip-path="url(#n)"><text font-family="Calibri,Calibri_MSFontService,sans-serif" font-weight="400" font-size="64" transform="rotate(-90 1784.24 341.76)">1600</text></g><g clip-path="url(#o)"><text font-family="Calibri,Calibri_MSFontService,sans-serif" font-weight="400" font-size="64" transform="rotate(-90 1852.05 273.95)">1625</text></g><g clip-path="url(#p)"><text font-family="Calibri,Calibri_MSFontService,sans-serif" font-weight="400" font-size="64" transform="rotate(-90 1919.865 206.135)">1650</text></g><g clip-path="url(#q)"><text font-family="Calibri,Calibri_MSFontService,sans-serif" font-weight="400" font-size="64" transform="rotate(-90 1987.675 138.325)">1675</text></g><g clip-path="url(#r)"><text font-family="Calibri,Calibri_MSFontService,sans-serif" font-weight="400" font-size="64" transform="rotate(-90 2055.49 70.51)">1700</text></g><g clip-path="url(#s)"><text font-family="Calibri,Calibri_MSFontService,sans-serif" font-weight="400" font-size="64" transform="rotate(-90 2123.3 2.7)">1725</text></g><g clip-path="url(#t)"><text font-family="Calibri,Calibri_MSFontService,sans-serif" font-weight="400" font-size="64" transform="rotate(-90 2191.115 -65.115)">1750</text></g><g clip-path="url(#u)"><text font-family="Calibri,Calibri_MSFontService,sans-serif" font-weight="400" font-size="64" transform="rotate(-90 2258.925 -132.925)">1775</text></g><g clip-path="url(#v)"><text font-family="Calibri,Calibri_MSFontService,sans-serif" font-weight="400" font-size="64" transform="rotate(-90 2326.735 -200.735)">1800</text></g><g clip-path="url(#w)"><text font-family="Calibri,Calibri_MSFontService,sans-serif" font-weight="400" font-size="64" transform="rotate(-90 2394.55 -268.55)">1825</text></g><g clip-path="url(#x)"><text font-family="Calibri,Calibri_MSFontService,sans-serif" font-weight="400" font-size="64" transform="rotate(-90 2462.36 -336.36)">1850</text></g><g clip-path="url(#y)"><text font-family="Calibri,Calibri_MSFontService,sans-serif" font-weight="400" font-size="64" transform="rotate(-90 2530.175 -404.175)">1875</text></g><g clip-path="url(#z)"><text font-family="Calibri,Calibri_MSFontService,sans-serif" font-weight="400" font-size="64" transform="rotate(-90 2597.985 -471.985)">1900</text></g><g clip-path="url(#A)"><text font-family="Calibri,Calibri_MSFontService,sans-serif" font-weight="400" font-size="64" transform="rotate(-90 2665.8 -539.8)">1925</text></g><g clip-path="url(#B)"><text font-family="Calibri,Calibri_MSFontService,sans-serif" font-weight="400" font-size="64" transform="rotate(-90 2733.61 -607.61)">1950</text></g><g clip-path="url(#C)"><text font-family="Calibri,Calibri_MSFontService,sans-serif" font-weight="400" font-size="64" transform="rotate(-90 2801.425 -675.425)">1975</text></g><g clip-path="url(#D)"><text font-family="Calibri,Calibri_MSFontService,sans-serif" font-weight="400" font-size="64" transform="rotate(-90 2869.235 -743.235)">2000</text></g><g clip-path="url(#E)"><text font-family="Calibri,Calibri_MSFontService,sans-serif" font-weight="400" font-size="64" transform="rotate(-90 2937.05 -811.05)">2025</text></g><g clip-path="url(#F)"><text font-family="Calibri,Calibri_MSFontService,sans-serif" font-weight="400" font-size="64" transform="rotate(-90 1478.98 224.02)">Number of people executed</text></g><g clip-path="url(#G)"><text font-family="Calibri,Calibri_MSFontService,sans-serif" font-weight="400" font-size="101" transform="translate(1822.64 644)">Executions in the United States</text></g><g clip-path="url(#H)"><text fill="#D0CECE" font-family="Courier,Courier_MSFontService,sans-serif" font-weight="400" font-size="28" transform="translate(3523.28 1962)">dynomight.net</text></g></g></svg>