<svg width="2658" height="1627" xmlns="http://www.w3.org/2000/svg" xmlns:xlink="http://www.w3.org/1999/xlink" overflow="hidden"><defs><clipPath id="clip0"><rect x="82" y="4161" width="2658" height="1627"/></clipPath><clipPath id="clip1"><rect x="439" y="4392" width="2253" height="1195"/></clipPath><clipPath id="clip2"><rect x="439" y="4392" width="2253" height="1195"/></clipPath><clipPath id="clip3"><rect x="439" y="4392" width="2253" height="1195"/></clipPath><clipPath id="clip4"><rect x="87" y="4166" width="2652" height="1619"/></clipPath><clipPath id="clip5"><rect x="87" y="4166" width="2652" height="1619"/></clipPath><clipPath id="clip6"><rect x="87" y="4166" width="2652" height="1619"/></clipPath><clipPath id="clip7"><rect x="87" y="4166" width="2652" height="1619"/></clipPath><clipPath id="clip8"><rect x="87" y="4166" width="2652" height="1619"/></clipPath><clipPath id="clip9"><rect x="87" y="4166" width="2652" height="1619"/></clipPath><clipPath id="clip10"><rect x="87" y="4166" width="2652" height="1619"/></clipPath><clipPath id="clip11"><rect x="87" y="4166" width="2652" height="1619"/></clipPath><clipPath id="clip12"><rect x="87" y="4166" width="2652" height="1619"/></clipPath><clipPath id="clip13"><rect x="87" y="4166" width="2652" height="1619"/></clipPath><clipPath id="clip14"><rect x="87" y="4166" width="2652" height="1619"/></clipPath><clipPath id="clip15"><rect x="87" y="4166" width="2652" height="1619"/></clipPath><clipPath id="clip16"><rect x="87" y="4166" width="2652" height="1619"/></clipPath><clipPath id="clip17"><rect x="87" y="4166" width="2652" height="1619"/></clipPath><clipPath id="clip18"><rect x="87" y="4166" width="2652" height="1619"/></clipPath><clipPath id="clip19"><rect x="87" y="4166" width="2652" height="1619"/></clipPath><clipPath id="clip20"><rect x="87" y="4166" width="2652" height="1619"/></clipPath><clipPath id="clip21"><rect x="87" y="4166" width="2652" height="1619"/></clipPath><clipPath id="clip22"><rect x="87" y="4166" width="2652" height="1619"/></clipPath><clipPath id="clip23"><rect x="87" y="4166" width="2652" height="1619"/></clipPath><clipPath id="clip24"><rect x="87" y="4166" width="2652" height="1619"/></clipPath><clipPath id="clip25"><rect x="87" y="4166" width="2652" height="1619"/></clipPath><clipPath id="clip26"><rect x="87" y="4166" width="2652" height="1619"/></clipPath><clipPath id="clip27"><rect x="87" y="4166" width="2652" height="1619"/></clipPath><clipPath id="clip28"><rect x="87" y="4166" width="2652" height="1619"/></clipPath><clipPath id="clip29"><rect x="87" y="4166" width="2652" height="1619"/></clipPath><clipPath id="clip30"><rect x="87" y="4166" width="2653" height="1620"/></clipPath><clipPath id="clip31"><rect x="87" y="4166" width="2653" height="1620"/></clipPath><clipPath id="clip32"><rect x="87" y="4166" width="2653" height="1620"/></clipPath><clipPath id="clip33"><rect x="87" y="4166" width="2653" height="1620"/></clipPath><clipPath id="clip34"><rect x="87" y="4166" width="2653" height="1620"/></clipPath><clipPath id="clip35"><rect x="87" y="4166" width="2653" height="1620"/></clipPath><clipPath id="clip36"><rect x="87" y="4166" width="2653" height="1620"/></clipPath><clipPath id="clip37"><rect x="87" y="4166" width="2653" height="1620"/></clipPath><clipPath id="clip38"><rect x="87" y="4166" width="2653" height="1620"/></clipPath><clipPath id="clip39"><rect x="87" y="4166" width="2653" height="1620"/></clipPath><clipPath id="clip40"><rect x="87" y="4166" width="2653" height="1620"/></clipPath><clipPath id="clip41"><rect x="87" y="4166" width="2653" height="1620"/></clipPath><clipPath id="clip42"><rect x="87" y="4166" width="2653" height="1620"/></clipPath><clipPath id="clip43"><rect x="87" y="4166" width="2653" height="1620"/></clipPath><clipPath id="clip44"><rect x="87" y="4166" width="2653" height="1620"/></clipPath><clipPath id="clip45"><rect x="87" y="4166" width="2653" height="1620"/></clipPath><clipPath id="clip46"><rect x="87" y="4166" width="2653" height="1620"/></clipPath><clipPath id="clip47"><rect x="87" y="4166" width="2653" height="1620"/></clipPath><clipPath id="clip48"><rect x="87" y="4166" width="2653" height="1620"/></clipPath><clipPath id="clip49"><rect x="87" y="4166" width="2653" height="1620"/></clipPath><clipPath id="clip50"><rect x="87" y="4166" width="2653" height="1620"/></clipPath><clipPath id="clip51"><rect x="87" y="4166" width="2653" height="1620"/></clipPath></defs><g clip-path="url(#clip0)" transform="translate(-82 -4161)"><rect x="87" y="4166" width="2652" height="1619" fill="#FFFFFF" fill-opacity="1"/><g clip-path="url(#clip1)"><path d="M491.5 4815.66 908.53 4713.65 972.532 4858.66 1009.53 4892.66 1074.54 4874.66 1202.54 4974.66 1237.54 5022.5 1264.54 4884.66 1307.54 4916.66 1380.55 4928.66 1389.55 4929.66 1407.55 4821.66 1496.55 4729.66 1546.55 4754.66 1622.55 4720.65 1726.56 4651.65 1748.56 4612.65 1752.56 4677.65 1822.56 4593.65 1823.56 4593.65 1894.56 4620.65 1979.57 4591.65 1996.57 4564.5 2095.57 4674.65 2121.57 4747.66 2131.57 4729.66 2135.57 4743.66 2148.57 4716.65 2165.57 4722.65 2191.57 4706.65 2207.57 4733.66 2217.57 4789.66 2243.57 4781.66 2270.57 4772.66 2284.58 4751.66 2296.58 4743.66 2321.58 4727.66 2348.58 4772.66 2374.58 4777.66 2400.58 4764.66 2426.58 4827.66 2458.58 4794.66 2479.58 4831.66 2505.58 4802.66 2531.58 4842.66 2557.58 4847.66 2584.58 4901.66 2609.59 4896.66 2636.59 4903.66 2662.5 4915.66" stroke="#4472C4" stroke-width="6.875" stroke-linecap="round" stroke-linejoin="round" stroke-miterlimit="10" stroke-opacity="1" fill="none" fill-rule="nonzero"/></g><g clip-path="url(#clip2)"><path d="M0 0 0.000360892 417" stroke="#000000" stroke-width="4.58333" stroke-linecap="round" stroke-linejoin="round" stroke-miterlimit="10" stroke-opacity="0.501961" fill="none" fill-rule="evenodd" transform="matrix(1 0 0 -1 1397.5 5524.5)"/></g><g clip-path="url(#clip3)"><path d="M0 0 0.000360892 417" stroke="#000000" stroke-width="4.58333" stroke-linecap="round" stroke-linejoin="round" stroke-miterlimit="10" stroke-opacity="0.501961" fill="none" fill-rule="evenodd" transform="matrix(1 0 0 -1 1502.5 5524.5)"/></g><g clip-path="url(#clip4)"><text fill="#000000" fill-opacity="1" font-family="Calibri,Calibri_MSFontService,sans-serif" font-style="normal" font-variant="normal" font-weight="400" font-stretch="normal" font-size="64" text-anchor="start" direction="ltr" writing-mode="lr-tb" unicode-bidi="normal" text-decoration="none" transform="matrix(1 0 0 1 301.469 5601)">0%</text></g><g clip-path="url(#clip5)"><text fill="#000000" fill-opacity="1" font-family="Calibri,Calibri_MSFontService,sans-serif" font-style="normal" font-variant="normal" font-weight="400" font-stretch="normal" font-size="64" text-anchor="start" direction="ltr" writing-mode="lr-tb" unicode-bidi="normal" text-decoration="none" transform="matrix(1 0 0 1 268.95 5363)">20%</text></g><g clip-path="url(#clip6)"><text fill="#000000" fill-opacity="1" font-family="Calibri,Calibri_MSFontService,sans-serif" font-style="normal" font-variant="normal" font-weight="400" font-stretch="normal" font-size="64" text-anchor="start" direction="ltr" writing-mode="lr-tb" unicode-bidi="normal" text-decoration="none" transform="matrix(1 0 0 1 268.95 5125)">40%</text></g><g clip-path="url(#clip7)"><text fill="#000000" fill-opacity="1" font-family="Calibri,Calibri_MSFontService,sans-serif" font-style="normal" font-variant="normal" font-weight="400" font-stretch="normal" font-size="64" text-anchor="start" direction="ltr" writing-mode="lr-tb" unicode-bidi="normal" text-decoration="none" transform="matrix(1 0 0 1 268.95 4886)">60%</text></g><g clip-path="url(#clip8)"><text fill="#000000" fill-opacity="1" font-family="Calibri,Calibri_MSFontService,sans-serif" font-style="normal" font-variant="normal" font-weight="400" font-stretch="normal" font-size="64" text-anchor="start" direction="ltr" writing-mode="lr-tb" unicode-bidi="normal" text-decoration="none" transform="matrix(1 0 0 1 268.95 4648)">80%</text></g><g clip-path="url(#clip9)"><text fill="#000000" fill-opacity="1" font-family="Calibri,Calibri_MSFontService,sans-serif" font-style="normal" font-variant="normal" font-weight="400" font-stretch="normal" font-size="64" text-anchor="start" direction="ltr" writing-mode="lr-tb" unicode-bidi="normal" text-decoration="none" transform="matrix(1 0 0 1 236.431 4410)">100%</text></g><g clip-path="url(#clip10)"><text fill="#000000" fill-opacity="1" font-family="Calibri,Calibri_MSFontService,sans-serif" font-style="normal" font-variant="normal" font-weight="400" font-stretch="normal" font-size="64" text-anchor="start" direction="ltr" writing-mode="lr-tb" unicode-bidi="normal" text-decoration="none" transform="matrix(6.12323e-17 -1 1 6.12323e-17 461.268 5755)">1935</text></g><g clip-path="url(#clip11)"><text fill="#000000" fill-opacity="1" font-family="Calibri,Calibri_MSFontService,sans-serif" font-style="normal" font-variant="normal" font-weight="400" font-stretch="normal" font-size="64" text-anchor="start" direction="ltr" writing-mode="lr-tb" unicode-bidi="normal" text-decoration="none" transform="matrix(6.12323e-17 -1 1 6.12323e-17 592.343 5755)">1940</text></g><g clip-path="url(#clip12)"><text fill="#000000" fill-opacity="1" font-family="Calibri,Calibri_MSFontService,sans-serif" font-style="normal" font-variant="normal" font-weight="400" font-stretch="normal" font-size="64" text-anchor="start" direction="ltr" writing-mode="lr-tb" unicode-bidi="normal" text-decoration="none" transform="matrix(6.12323e-17 -1 1 6.12323e-17 723.346 5755)">1945</text></g><g clip-path="url(#clip13)"><text fill="#000000" fill-opacity="1" font-family="Calibri,Calibri_MSFontService,sans-serif" font-style="normal" font-variant="normal" font-weight="400" font-stretch="normal" font-size="64" text-anchor="start" direction="ltr" writing-mode="lr-tb" unicode-bidi="normal" text-decoration="none" transform="matrix(6.12323e-17 -1 1 6.12323e-17 854.348 5755)">1950</text></g><g clip-path="url(#clip14)"><text fill="#000000" fill-opacity="1" font-family="Calibri,Calibri_MSFontService,sans-serif" font-style="normal" font-variant="normal" font-weight="400" font-stretch="normal" font-size="64" text-anchor="start" direction="ltr" writing-mode="lr-tb" unicode-bidi="normal" text-decoration="none" transform="matrix(6.12323e-17 -1 1 6.12323e-17 985.351 5755)">1955</text></g><g clip-path="url(#clip15)"><text fill="#000000" fill-opacity="1" font-family="Calibri,Calibri_MSFontService,sans-serif" font-style="normal" font-variant="normal" font-weight="400" font-stretch="normal" font-size="64" text-anchor="start" direction="ltr" writing-mode="lr-tb" unicode-bidi="normal" text-decoration="none" transform="matrix(6.12323e-17 -1 1 6.12323e-17 1116.42 5755)">1960</text></g><g clip-path="url(#clip16)"><text fill="#000000" fill-opacity="1" font-family="Calibri,Calibri_MSFontService,sans-serif" font-style="normal" font-variant="normal" font-weight="400" font-stretch="normal" font-size="64" text-anchor="start" direction="ltr" writing-mode="lr-tb" unicode-bidi="normal" text-decoration="none" transform="matrix(6.12323e-17 -1 1 6.12323e-17 1247.43 5755)">1965</text></g><g clip-path="url(#clip17)"><text fill="#000000" fill-opacity="1" font-family="Calibri,Calibri_MSFontService,sans-serif" font-style="normal" font-variant="normal" font-weight="400" font-stretch="normal" font-size="64" text-anchor="start" direction="ltr" writing-mode="lr-tb" unicode-bidi="normal" text-decoration="none" transform="matrix(6.12323e-17 -1 1 6.12323e-17 1378.43 5755)">1970</text></g><g clip-path="url(#clip18)"><text fill="#000000" fill-opacity="1" font-family="Calibri,Calibri_MSFontService,sans-serif" font-style="normal" font-variant="normal" font-weight="400" font-stretch="normal" font-size="64" text-anchor="start" direction="ltr" writing-mode="lr-tb" unicode-bidi="normal" text-decoration="none" transform="matrix(6.12323e-17 -1 1 6.12323e-17 1509.43 5755)">1975</text></g><g clip-path="url(#clip19)"><text fill="#000000" fill-opacity="1" font-family="Calibri,Calibri_MSFontService,sans-serif" font-style="normal" font-variant="normal" font-weight="400" font-stretch="normal" font-size="64" text-anchor="start" direction="ltr" writing-mode="lr-tb" unicode-bidi="normal" text-decoration="none" transform="matrix(6.12323e-17 -1 1 6.12323e-17 1640.51 5755)">1980</text></g><g clip-path="url(#clip20)"><text fill="#000000" fill-opacity="1" font-family="Calibri,Calibri_MSFontService,sans-serif" font-style="normal" font-variant="normal" font-weight="400" font-stretch="normal" font-size="64" text-anchor="start" direction="ltr" writing-mode="lr-tb" unicode-bidi="normal" text-decoration="none" transform="matrix(6.12323e-17 -1 1 6.12323e-17 1771.51 5755)">1985</text></g><g clip-path="url(#clip21)"><text fill="#000000" fill-opacity="1" font-family="Calibri,Calibri_MSFontService,sans-serif" font-style="normal" font-variant="normal" font-weight="400" font-stretch="normal" font-size="64" text-anchor="start" direction="ltr" writing-mode="lr-tb" unicode-bidi="normal" text-decoration="none" transform="matrix(6.12323e-17 -1 1 6.12323e-17 1902.51 5755)">1990</text></g><g clip-path="url(#clip22)"><text fill="#000000" fill-opacity="1" font-family="Calibri,Calibri_MSFontService,sans-serif" font-style="normal" font-variant="normal" font-weight="400" font-stretch="normal" font-size="64" text-anchor="start" direction="ltr" writing-mode="lr-tb" unicode-bidi="normal" text-decoration="none" transform="matrix(6.12323e-17 -1 1 6.12323e-17 2033.51 5755)">1995</text></g><g clip-path="url(#clip23)"><text fill="#000000" fill-opacity="1" font-family="Calibri,Calibri_MSFontService,sans-serif" font-style="normal" font-variant="normal" font-weight="400" font-stretch="normal" font-size="64" text-anchor="start" direction="ltr" writing-mode="lr-tb" unicode-bidi="normal" text-decoration="none" transform="matrix(6.12323e-17 -1 1 6.12323e-17 2164.59 5755)">2000</text></g><g clip-path="url(#clip24)"><text fill="#000000" fill-opacity="1" font-family="Calibri,Calibri_MSFontService,sans-serif" font-style="normal" font-variant="normal" font-weight="400" font-stretch="normal" font-size="64" text-anchor="start" direction="ltr" writing-mode="lr-tb" unicode-bidi="normal" text-decoration="none" transform="matrix(6.12323e-17 -1 1 6.12323e-17 2295.59 5755)">2005</text></g><g clip-path="url(#clip25)"><text fill="#000000" fill-opacity="1" font-family="Calibri,Calibri_MSFontService,sans-serif" font-style="normal" font-variant="normal" font-weight="400" font-stretch="normal" font-size="64" text-anchor="start" direction="ltr" writing-mode="lr-tb" unicode-bidi="normal" text-decoration="none" transform="matrix(6.12323e-17 -1 1 6.12323e-17 2426.59 5755)">2010</text></g><g clip-path="url(#clip26)"><text fill="#000000" fill-opacity="1" font-family="Calibri,Calibri_MSFontService,sans-serif" font-style="normal" font-variant="normal" font-weight="400" font-stretch="normal" font-size="64" text-anchor="start" direction="ltr" writing-mode="lr-tb" unicode-bidi="normal" text-decoration="none" transform="matrix(6.12323e-17 -1 1 6.12323e-17 2557.6 5755)">2015</text></g><g clip-path="url(#clip27)"><text fill="#000000" fill-opacity="1" font-family="Calibri,Calibri_MSFontService,sans-serif" font-style="normal" font-variant="normal" font-weight="400" font-stretch="normal" font-size="64" text-anchor="start" direction="ltr" writing-mode="lr-tb" unicode-bidi="normal" text-decoration="none" transform="matrix(6.12323e-17 -1 1 6.12323e-17 2688.67 5755)">2020</text></g><g clip-path="url(#clip28)"><text fill="#000000" fill-opacity="1" font-family="Calibri,Calibri_MSFontService,sans-serif" font-style="normal" font-variant="normal" font-weight="400" font-stretch="normal" font-size="64" text-anchor="start" direction="ltr" writing-mode="lr-tb" unicode-bidi="normal" text-decoration="none" transform="matrix(6.12323e-17 -1 1 6.12323e-17 205.379 5396)">Favor death penalty for murder</text></g><g clip-path="url(#clip29)"><text fill="#000000" fill-opacity="1" font-family="Calibri,Calibri_MSFontService,sans-serif" font-style="normal" font-variant="normal" font-weight="400" font-stretch="normal" font-size="101" text-anchor="start" direction="ltr" writing-mode="lr-tb" unicode-bidi="normal" text-decoration="none" transform="matrix(1 0 0 1 417.962 4297)">Popular support for the death penalty in the U.S.</text></g><g clip-path="url(#clip30)"><text fill="#000000" fill-opacity="1" font-family="Calibri,Calibri_MSFontService,sans-serif" font-style="normal" font-variant="normal" font-weight="400" font-stretch="normal" font-size="50" text-anchor="start" direction="ltr" writing-mode="lr-tb" unicode-bidi="normal" text-decoration="none" transform="matrix(1 0 0 1 1202.55 5232)">In 1972, </text></g><g clip-path="url(#clip31)"><text fill="#000000" fill-opacity="1" font-family="Calibri,Calibri_MSFontService,sans-serif" font-style="italic" font-variant="normal" font-weight="400" font-stretch="normal" font-size="50" text-anchor="start" direction="ltr" writing-mode="lr-tb" unicode-bidi="normal" text-decoration="none" transform="matrix(1 0 0 1 989.399 5294)">Furman v.</text></g><g clip-path="url(#clip32)"><text fill="#000000" fill-opacity="1" font-family="Calibri,Calibri_MSFontService,sans-serif" font-style="italic" font-variant="normal" font-weight="400" font-stretch="normal" font-size="50" text-anchor="start" direction="ltr" writing-mode="lr-tb" unicode-bidi="normal" text-decoration="none" transform="matrix(1 0 0 1 1205.46 5294)">Georgia</text></g><g clip-path="url(#clip33)"><text fill="#000000" fill-opacity="1" font-family="Calibri,Calibri_MSFontService,sans-serif" font-style="normal" font-variant="normal" font-weight="400" font-stretch="normal" font-size="50" text-anchor="start" direction="ltr" writing-mode="lr-tb" unicode-bidi="normal" text-decoration="none" transform="matrix(1 0 0 1 1088.74 5355)">invalidates</text></g><g clip-path="url(#clip34)"><text fill="#000000" fill-opacity="1" font-family="Calibri,Calibri_MSFontService,sans-serif" font-style="normal" font-variant="normal" font-weight="400" font-stretch="normal" font-size="50" text-anchor="start" direction="ltr" writing-mode="lr-tb" unicode-bidi="normal" text-decoration="none" transform="matrix(1 0 0 1 1320.61 5355)">all </text></g><g clip-path="url(#clip35)"><text fill="#000000" fill-opacity="1" font-family="Calibri,Calibri_MSFontService,sans-serif" font-style="normal" font-variant="normal" font-weight="400" font-stretch="normal" font-size="50" text-anchor="start" direction="ltr" writing-mode="lr-tb" unicode-bidi="normal" text-decoration="none" transform="matrix(1 0 0 1 1085.97 5417)">current death </text></g><g clip-path="url(#clip36)"><text fill="#000000" fill-opacity="1" font-family="Calibri,Calibri_MSFontService,sans-serif" font-style="normal" font-variant="normal" font-weight="400" font-stretch="normal" font-size="50" text-anchor="start" direction="ltr" writing-mode="lr-tb" unicode-bidi="normal" text-decoration="none" transform="matrix(1 0 0 1 1098.8 5478)">penalty laws.</text></g><g clip-path="url(#clip37)"><text fill="#000000" fill-opacity="1" font-family="Calibri,Calibri_MSFontService,sans-serif" font-style="normal" font-variant="normal" font-weight="400" font-stretch="normal" font-size="50" text-anchor="start" direction="ltr" writing-mode="lr-tb" unicode-bidi="normal" text-decoration="none" transform="matrix(1 0 0 1 1544.83 5284)">In 1976,</text></g><g clip-path="url(#clip38)"><text fill="#000000" fill-opacity="1" font-family="Calibri,Calibri_MSFontService,sans-serif" font-style="italic" font-variant="normal" font-weight="400" font-stretch="normal" font-size="50" text-anchor="start" direction="ltr" writing-mode="lr-tb" unicode-bidi="normal" text-decoration="none" transform="matrix(1 0 0 1 1544.83 5346)">Gregg v. Georgia</text></g><g clip-path="url(#clip39)"><text fill="#000000" fill-opacity="1" font-family="Calibri,Calibri_MSFontService,sans-serif" font-style="normal" font-variant="normal" font-weight="400" font-stretch="normal" font-size="50" text-anchor="start" direction="ltr" writing-mode="lr-tb" unicode-bidi="normal" text-decoration="none" transform="matrix(1 0 0 1 1544.83 5407)">allows executions </text></g><g clip-path="url(#clip40)"><text fill="#000000" fill-opacity="1" font-family="Calibri,Calibri_MSFontService,sans-serif" font-style="normal" font-variant="normal" font-weight="400" font-stretch="normal" font-size="50" text-anchor="start" direction="ltr" writing-mode="lr-tb" unicode-bidi="normal" text-decoration="none" transform="matrix(1 0 0 1 1544.83 5469)">to resume.</text></g><g clip-path="url(#clip41)"><path d="M1106.25 4497.21 1409.22 4497.21 1409.22 4501.79 1106.25 4501.79ZM1110.83 4508.67 1092.5 4499.5 1110.83 4490.33ZM1404.63 4490.33 1422.97 4499.5 1404.63 4508.67Z" fill="#000000" fill-rule="nonzero" fill-opacity="0.501961"/></g><g clip-path="url(#clip42)"><text fill="#000000" fill-opacity="1" font-family="Calibri,Calibri_MSFontService,sans-serif" font-style="normal" font-variant="normal" font-weight="400" font-stretch="normal" font-size="50" text-anchor="start" direction="ltr" writing-mode="lr-tb" unicode-bidi="normal" text-decoration="none" transform="matrix(1 0 0 1 976.445 4397)">Between 1963 and 1975 </text></g><g clip-path="url(#clip43)"><text fill="#000000" fill-opacity="1" font-family="Calibri,Calibri_MSFontService,sans-serif" font-style="normal" font-variant="normal" font-weight="400" font-stretch="normal" font-size="50" text-anchor="start" direction="ltr" writing-mode="lr-tb" unicode-bidi="normal" text-decoration="none" transform="matrix(1 0 0 1 976.445 4458)">the</text></g><g clip-path="url(#clip44)"><text fill="#000000" fill-opacity="1" font-family="Calibri,Calibri_MSFontService,sans-serif" font-style="normal" font-variant="normal" font-weight="400" font-stretch="normal" font-size="50" text-anchor="start" direction="ltr" writing-mode="lr-tb" unicode-bidi="normal" text-decoration="none" transform="matrix(1 0 0 1 1056.31 4458)">murder rate doubles.</text></g><g clip-path="url(#clip45)"><text fill="#000000" fill-opacity="1" font-family="Calibri,Calibri_MSFontService,sans-serif" font-style="normal" font-variant="normal" font-weight="400" font-stretch="normal" font-size="50" text-anchor="start" direction="ltr" writing-mode="lr-tb" unicode-bidi="normal" text-decoration="none" transform="matrix(1 0 0 1 1759.13 4397)">Between 1992 and 2000, the </text></g><g clip-path="url(#clip46)"><text fill="#000000" fill-opacity="1" font-family="Calibri,Calibri_MSFontService,sans-serif" font-style="normal" font-variant="normal" font-weight="400" font-stretch="normal" font-size="50" text-anchor="start" direction="ltr" writing-mode="lr-tb" unicode-bidi="normal" text-decoration="none" transform="matrix(1 0 0 1 1759.13 4458)">murder rate nearly halves.</text></g><g clip-path="url(#clip47)"><path d="M1909.25 4493.21 2096.6 4493.21 2096.6 4497.79 1909.25 4497.79ZM1913.83 4504.67 1895.5 4495.5 1913.83 4486.33ZM2092.02 4486.33 2110.35 4495.5 2092.02 4504.67Z" fill="#000000" fill-rule="nonzero" fill-opacity="0.501961"/></g><g clip-path="url(#clip48)"><path d="M1221.25 5082.21 1470 5082.21 1470 5086.79 1221.25 5086.79ZM1225.83 5093.67 1207.5 5084.5 1225.83 5075.33ZM1465.42 5075.33 1483.75 5084.5 1465.42 5093.67Z" fill="#000000" fill-rule="nonzero" fill-opacity="0.501961"/></g><g clip-path="url(#clip49)"><text fill="#000000" fill-opacity="1" font-family="Calibri,Calibri_MSFontService,sans-serif" font-style="normal" font-variant="normal" font-weight="400" font-stretch="normal" font-size="50" text-anchor="start" direction="ltr" writing-mode="lr-tb" unicode-bidi="normal" text-decoration="none" transform="matrix(1 0 0 1 1268 4987)">No executions between </text></g><g clip-path="url(#clip50)"><text fill="#000000" fill-opacity="1" font-family="Calibri,Calibri_MSFontService,sans-serif" font-style="normal" font-variant="normal" font-weight="400" font-stretch="normal" font-size="50" text-anchor="start" direction="ltr" writing-mode="lr-tb" unicode-bidi="normal" text-decoration="none" transform="matrix(1 0 0 1 1268 5048)">1967 and 1977</text></g><g clip-path="url(#clip51)"><text fill="#D0CECE" fill-opacity="1" font-family="Courier,Courier_MSFontService,sans-serif" font-style="normal" font-variant="normal" font-weight="400" font-stretch="normal" font-size="28" text-anchor="start" direction="ltr" writing-mode="lr-tb" unicode-bidi="normal" text-decoration="none" transform="matrix(1 0 0 1 2452.8 5586)">dynomight.net</text></g></g></svg>