<?xml version="1.0" encoding="UTF-8"?>
<!DOCTYPE svg PUBLIC "-//W3C//DTD SVG 1.1//EN" "http://www.w3.org/Graphics/SVG/1.1/DTD/svg11.dtd">
<svg width="160mm" height="97mm" viewBox="0 0 16000 9700" version="1.1" xmlns="http://www.w3.org/2000/svg" xmlns:xlink="http://www.w3.org/1999/xlink" stroke-width="28.222" stroke-linejoin="round" xml:space="preserve">
 <path fill="rgb(255,255,255)" stroke="none" d="M 7971,9661 L -16,9661 -16,-16 15958,-16 15958,9661 7971,9661 Z"/>
 <g style="opacity: 0.250980392156863">
  <path fill="none" stroke="rgb(179,179,179)" stroke-linejoin="round" d="M 3023,1617 L 3023,7576"/>
 </g>
 <g style="opacity: 0.250980392156863">
  <path fill="none" stroke="rgb(179,179,179)" stroke-linejoin="round" d="M 3316,1617 L 3316,7576"/>
 </g>
 <g style="opacity: 0.250980392156863">
  <path fill="none" stroke="rgb(179,179,179)" stroke-linejoin="round" d="M 3609,1617 L 3609,7576"/>
 </g>
 <g style="opacity: 0.250980392156863">
  <path fill="none" stroke="rgb(179,179,179)" stroke-linejoin="round" d="M 3903,1617 L 3903,7576"/>
 </g>
 <g style="opacity: 0.250980392156863">
  <path fill="none" stroke="rgb(179,179,179)" stroke-linejoin="round" d="M 4196,1617 L 4196,7576"/>
 </g>
 <g style="opacity: 0.250980392156863">
  <path fill="none" stroke="rgb(179,179,179)" stroke-linejoin="round" d="M 4490,1617 L 4490,7576"/>
 </g>
 <g style="opacity: 0.250980392156863">
  <path fill="none" stroke="rgb(179,179,179)" stroke-linejoin="round" d="M 4783,1617 L 4783,7576"/>
 </g>
 <g style="opacity: 0.250980392156863">
  <path fill="none" stroke="rgb(179,179,179)" stroke-linejoin="round" d="M 5076,1617 L 5076,7576"/>
 </g>
 <g style="opacity: 0.250980392156863">
  <path fill="none" stroke="rgb(179,179,179)" stroke-linejoin="round" d="M 5370,1617 L 5370,7576"/>
 </g>
 <g style="opacity: 0.250980392156863">
  <path fill="none" stroke="rgb(179,179,179)" stroke-linejoin="round" d="M 5663,1617 L 5663,7576"/>
 </g>
 <g style="opacity: 0.250980392156863">
  <path fill="none" stroke="rgb(179,179,179)" stroke-linejoin="round" d="M 5957,1617 L 5957,7576"/>
 </g>
 <g style="opacity: 0.250980392156863">
  <path fill="none" stroke="rgb(179,179,179)" stroke-linejoin="round" d="M 6250,1617 L 6250,7576"/>
 </g>
 <g style="opacity: 0.250980392156863">
  <path fill="none" stroke="rgb(179,179,179)" stroke-linejoin="round" d="M 6544,1617 L 6544,7576"/>
 </g>
 <g style="opacity: 0.250980392156863">
  <path fill="none" stroke="rgb(179,179,179)" stroke-linejoin="round" d="M 6837,1617 L 6837,7576"/>
 </g>
 <g style="opacity: 0.250980392156863">
  <path fill="none" stroke="rgb(179,179,179)" stroke-linejoin="round" d="M 7130,1617 L 7130,7576"/>
 </g>
 <g style="opacity: 0.250980392156863">
  <path fill="none" stroke="rgb(179,179,179)" stroke-linejoin="round" d="M 7424,1617 L 7424,7576"/>
 </g>
 <g style="opacity: 0.250980392156863">
  <path fill="none" stroke="rgb(179,179,179)" stroke-linejoin="round" d="M 7717,1617 L 7717,7576"/>
 </g>
 <g style="opacity: 0.250980392156863">
  <path fill="none" stroke="rgb(179,179,179)" stroke-linejoin="round" d="M 8010,1617 L 8010,7576"/>
 </g>
 <g style="opacity: 0.250980392156863">
  <path fill="none" stroke="rgb(179,179,179)" stroke-linejoin="round" d="M 8303,1617 L 8303,7576"/>
 </g>
 <g style="opacity: 0.250980392156863">
  <path fill="none" stroke="rgb(179,179,179)" stroke-linejoin="round" d="M 8596,1617 L 8596,7576"/>
 </g>
 <g style="opacity: 0.250980392156863">
  <path fill="none" stroke="rgb(179,179,179)" stroke-linejoin="round" d="M 8890,1617 L 8890,7576"/>
 </g>
 <g style="opacity: 0.250980392156863">
  <path fill="none" stroke="rgb(179,179,179)" stroke-linejoin="round" d="M 9183,1617 L 9183,7576"/>
 </g>
 <g style="opacity: 0.250980392156863">
  <path fill="none" stroke="rgb(179,179,179)" stroke-linejoin="round" d="M 9477,1617 L 9477,7576"/>
 </g>
 <g style="opacity: 0.250980392156863">
  <path fill="none" stroke="rgb(179,179,179)" stroke-linejoin="round" d="M 9770,1617 L 9770,7576"/>
 </g>
 <g style="opacity: 0.250980392156863">
  <path fill="none" stroke="rgb(179,179,179)" stroke-linejoin="round" d="M 10064,1617 L 10064,7576"/>
 </g>
 <g style="opacity: 0.250980392156863">
  <path fill="none" stroke="rgb(179,179,179)" stroke-linejoin="round" d="M 10357,1617 L 10357,7576"/>
 </g>
 <g style="opacity: 0.250980392156863">
  <path fill="none" stroke="rgb(179,179,179)" stroke-linejoin="round" d="M 10650,1617 L 10650,7576"/>
 </g>
 <g style="opacity: 0.250980392156863">
  <path fill="none" stroke="rgb(179,179,179)" stroke-linejoin="round" d="M 10944,1617 L 10944,7576"/>
 </g>
 <g style="opacity: 0.250980392156863">
  <path fill="none" stroke="rgb(179,179,179)" stroke-linejoin="round" d="M 11237,1617 L 11237,7576"/>
 </g>
 <g style="opacity: 0.250980392156863">
  <path fill="none" stroke="rgb(179,179,179)" stroke-linejoin="round" d="M 11531,1617 L 11531,7576"/>
 </g>
 <g style="opacity: 0.250980392156863">
  <path fill="none" stroke="rgb(179,179,179)" stroke-linejoin="round" d="M 11824,1617 L 11824,7576"/>
 </g>
 <g style="opacity: 0.250980392156863">
  <path fill="none" stroke="rgb(179,179,179)" stroke-linejoin="round" d="M 12117,1617 L 12117,7576"/>
 </g>
 <g style="opacity: 0.250980392156863">
  <path fill="none" stroke="rgb(179,179,179)" stroke-linejoin="round" d="M 12411,1617 L 12411,7576"/>
 </g>
 <g style="opacity: 0.250980392156863">
  <path fill="none" stroke="rgb(179,179,179)" stroke-linejoin="round" d="M 12704,1617 L 12704,7576"/>
 </g>
 <g style="opacity: 0.250980392156863">
  <path fill="none" stroke="rgb(179,179,179)" stroke-linejoin="round" d="M 12998,1617 L 12998,7576"/>
 </g>
 <g style="opacity: 0.250980392156863">
  <path fill="none" stroke="rgb(179,179,179)" stroke-linejoin="round" d="M 13291,1617 L 13291,7576"/>
 </g>
 <g style="opacity: 0.250980392156863">
  <path fill="none" stroke="rgb(179,179,179)" stroke-linejoin="round" d="M 13585,1617 L 13585,7576"/>
 </g>
 <g style="opacity: 0.250980392156863">
  <path fill="none" stroke="rgb(179,179,179)" stroke-linejoin="round" d="M 13878,1617 L 13878,7576"/>
 </g>
 <g style="opacity: 0.250980392156863">
  <path fill="none" stroke="rgb(179,179,179)" stroke-linejoin="round" d="M 14171,1617 L 14171,7576"/>
 </g>
 <g style="opacity: 0.250980392156863">
  <path fill="none" stroke="rgb(179,179,179)" stroke-linejoin="round" d="M 14465,1617 L 14465,7576"/>
 </g>
 <g style="opacity: 0.250980392156863">
  <path fill="none" stroke="rgb(179,179,179)" stroke-linejoin="round" d="M 14758,1617 L 14758,7576"/>
 </g>
 <g style="opacity: 0.250980392156863">
  <path fill="none" stroke="rgb(179,179,179)" stroke-linejoin="round" d="M 15052,1617 L 15052,7576"/>
 </g>
 <g style="opacity: 0.250980392156863">
  <path fill="none" stroke="rgb(179,179,179)" stroke-linejoin="round" d="M 15345,1617 L 15345,7576"/>
 </g>
 <g style="opacity: 0.250980392156863">
  <path fill="none" stroke="rgb(179,179,179)" stroke-linejoin="round" d="M 15639,1617 L 15639,7576"/>
 </g>
 <path fill="none" stroke="rgb(0,0,0)" stroke-width="51" stroke-linejoin="round" d="M 3023,3357 L 3316,3263 3609,3938 3903,4962 4196,5256 4490,5319 4783,4275 5076,4488 5370,4243 5663,4030 5957,3987 6250,4256 6544,4229 6837,4219 7130,4476 7424,4159 7717,3911 8010,3622 8303,3511 8596,3462 8890,3369 9183,3327 9477,3287 9770,2984 10064,3070 10357,3170 10650,3119 10944,3067 11237,3048 11531,2641 11824,2495 12117,2457 12411,2400 12704,2295 12998,2242 13291,2262 13585,2462 13878,2516 14171,2596 14465,2541 14758,2267 15052,2383 15345,2300 15639,2295"/>
 <text class="SVGTextShape" transform="rotate(-44.9 1935 9312)"><tspan class="TextParagraph" font-family="Montserrat" font-size="423px" font-weight="400"><tspan class="TextPosition" x="1935" y="9312"><tspan fill="rgb(0,0,0)" stroke="none" style="white-space: pre">04/01/25</tspan></tspan></tspan></text>
 <text class="SVGTextShape" transform="rotate(-44.9 2727 9400)"><tspan class="TextParagraph" font-family="Montserrat" font-size="423px" font-weight="400"><tspan class="TextPosition" x="2727" y="9400"><tspan fill="rgb(0,0,0)" stroke="none" style="white-space: pre">04/04/25</tspan></tspan></tspan></text>
 <text class="SVGTextShape" transform="rotate(-44.9 3629 9378)"><tspan class="TextParagraph" font-family="Montserrat" font-size="423px" font-weight="400"><tspan class="TextPosition" x="3629" y="9378"><tspan fill="rgb(0,0,0)" stroke="none" style="white-space: pre">04/09/25</tspan></tspan></tspan></text>
 <text class="SVGTextShape" transform="rotate(-44.9 4575 9312)"><tspan class="TextParagraph" font-family="Montserrat" font-size="423px" font-weight="400"><tspan class="TextPosition" x="4575" y="9312"><tspan fill="rgb(0,0,0)" stroke="none" style="white-space: pre">04/14/25</tspan></tspan></tspan></text>
 <text class="SVGTextShape" transform="rotate(-44.9 5478 9290)"><tspan class="TextParagraph" font-family="Montserrat" font-size="423px" font-weight="400"><tspan class="TextPosition" x="5478" y="9290"><tspan fill="rgb(0,0,0)" stroke="none" style="white-space: pre">04/17/25</tspan></tspan></tspan></text>
 <text class="SVGTextShape" transform="rotate(-44.9 6335 9312)"><tspan class="TextParagraph" font-family="Montserrat" font-size="423px" font-weight="400"><tspan class="TextPosition" x="6335" y="9312"><tspan fill="rgb(0,0,0)" stroke="none" style="white-space: pre">04/22/25</tspan></tspan></tspan></text>
 <text class="SVGTextShape" transform="rotate(-44.9 7215 9312)"><tspan class="TextParagraph" font-family="Montserrat" font-size="423px" font-weight="400"><tspan class="TextPosition" x="7215" y="9312"><tspan fill="rgb(0,0,0)" stroke="none" style="white-space: pre">04/25/25</tspan></tspan></tspan></text>
 <text class="SVGTextShape" transform="rotate(-44.9 8051 9356)"><tspan class="TextParagraph" font-family="Montserrat" font-size="423px" font-weight="400"><tspan class="TextPosition" x="8051" y="9356"><tspan fill="rgb(0,0,0)" stroke="none" style="white-space: pre">04/30/25</tspan></tspan></tspan></text>
 <text class="SVGTextShape" transform="rotate(-44.9 8976 9312)"><tspan class="TextParagraph" font-family="Montserrat" font-size="423px" font-weight="400"><tspan class="TextPosition" x="8976" y="9312"><tspan fill="rgb(0,0,0)" stroke="none" style="white-space: pre">05/05/25</tspan></tspan></tspan></text>
 <text class="SVGTextShape" transform="rotate(-44.9 9834 9334)"><tspan class="TextParagraph" font-family="Montserrat" font-size="423px" font-weight="400"><tspan class="TextPosition" x="9834" y="9334"><tspan fill="rgb(0,0,0)" stroke="none" style="white-space: pre">05/08/25</tspan></tspan></tspan></text>
 <text class="SVGTextShape" transform="rotate(-44.9 10826 9223)"><tspan class="TextParagraph" font-family="Montserrat" font-size="423px" font-weight="400"><tspan class="TextPosition" x="10826" y="9223"><tspan fill="rgb(0,0,0)" stroke="none" style="white-space: pre">05/13/25</tspan></tspan></tspan></text>
 <text class="SVGTextShape" transform="rotate(-44.9 11683 9246)"><tspan class="TextParagraph" font-family="Montserrat" font-size="423px" font-weight="400"><tspan class="TextPosition" x="11683" y="9246"><tspan fill="rgb(0,0,0)" stroke="none" style="white-space: pre">05/16/25</tspan></tspan></tspan></text>
 <text class="SVGTextShape" transform="rotate(-44.9 12587 9223)"><tspan class="TextParagraph" font-family="Montserrat" font-size="423px" font-weight="400"><tspan class="TextPosition" x="12587" y="9223"><tspan fill="rgb(0,0,0)" stroke="none" style="white-space: pre">05/21/25</tspan></tspan></tspan></text>
 <text class="SVGTextShape" transform="rotate(-44.9 13399 9290)"><tspan class="TextParagraph" font-family="Montserrat" font-size="423px" font-weight="400"><tspan class="TextPosition" x="13399" y="9290"><tspan fill="rgb(0,0,0)" stroke="none" style="white-space: pre">05/26/25</tspan></tspan></tspan></text>
 <text class="SVGTextShape" transform="rotate(-44.9 14279 9290)"><tspan class="TextParagraph" font-family="Montserrat" font-size="423px" font-weight="400"><tspan class="TextPosition" x="14279" y="9290"><tspan fill="rgb(0,0,0)" stroke="none" style="white-space: pre">05/29/25</tspan></tspan></tspan></text>
 <text class="SVGTextShape"><tspan class="TextParagraph" font-family="Montserrat" font-size="353px" font-weight="400"><tspan class="TextPosition" x="1926" y="7703"><tspan fill="rgb(0,0,0)" stroke="none" style="white-space: pre">2800</tspan></tspan></tspan></text>
 <text class="SVGTextShape"><tspan class="TextParagraph" font-family="Montserrat" font-size="353px" font-weight="400"><tspan class="TextPosition" x="1926" y="6709"><tspan fill="rgb(0,0,0)" stroke="none" style="white-space: pre">3000</tspan></tspan></tspan></text>
 <text class="SVGTextShape"><tspan class="TextParagraph" font-family="Montserrat" font-size="353px" font-weight="400"><tspan class="TextPosition" x="1958" y="5716"><tspan fill="rgb(0,0,0)" stroke="none" style="white-space: pre">3200</tspan></tspan></tspan></text>
 <text class="SVGTextShape"><tspan class="TextParagraph" font-family="Montserrat" font-size="353px" font-weight="400"><tspan class="TextPosition" x="1926" y="4723"><tspan fill="rgb(0,0,0)" stroke="none" style="white-space: pre">3400</tspan></tspan></tspan></text>
 <text class="SVGTextShape"><tspan class="TextParagraph" font-family="Montserrat" font-size="353px" font-weight="400"><tspan class="TextPosition" x="1926" y="3729"><tspan fill="rgb(0,0,0)" stroke="none" style="white-space: pre">3600</tspan></tspan></tspan></text>
 <text class="SVGTextShape"><tspan class="TextParagraph" font-family="Montserrat" font-size="353px" font-weight="400"><tspan class="TextPosition" x="1926" y="2736"><tspan fill="rgb(0,0,0)" stroke="none" style="white-space: pre">3800</tspan></tspan></tspan></text>
 <text class="SVGTextShape"><tspan class="TextParagraph" font-family="Montserrat" font-size="353px" font-weight="400"><tspan class="TextPosition" x="1895" y="1743"><tspan fill="rgb(0,0,0)" stroke="none" style="white-space: pre">4000</tspan></tspan></tspan></text>
 <text class="SVGTextShape"><tspan class="TextParagraph" font-family="Montserrat" font-size="494px" font-weight="400"><tspan class="TextPosition" x="5697" y="930"><tspan fill="rgb(0,0,0)" stroke="none" style="white-space: pre">MSCI World Index</tspan></tspan></tspan></text>
 <text class="SVGTextShape" transform="rotate(-90 1053 7063)"><tspan class="TextParagraph" font-family="Montserrat" font-size="494px" font-weight="400"><tspan class="TextPosition" x="1053" y="7063"><tspan fill="rgb(0,0,0)" stroke="none" style="white-space: pre">Closing price</tspan></tspan></tspan></text>
</svg>