<svg width="2090" height="1622" xmlns="http://www.w3.org/2000/svg" xmlns:xlink="http://www.w3.org/1999/xlink" overflow="hidden"><defs><clipPath id="clip0"><rect x="6994" y="3584" width="2090" height="1622"/></clipPath><clipPath id="clip1"><rect x="6994" y="3586" width="2086" height="1618"/></clipPath><clipPath id="clip2"><rect x="6994" y="3586" width="2086" height="1618"/></clipPath><clipPath id="clip3"><rect x="6994" y="3586" width="2086" height="1618"/></clipPath><clipPath id="clip4"><rect x="6994" y="3586" width="2086" height="1618"/></clipPath><clipPath id="clip5"><rect x="6994" y="3586" width="2086" height="1618"/></clipPath><clipPath id="clip6"><rect x="6994" y="3586" width="2086" height="1618"/></clipPath><clipPath id="clip7"><rect x="6994" y="3586" width="2086" height="1618"/></clipPath><clipPath id="clip8"><rect x="6994" y="3586" width="2086" height="1618"/></clipPath><clipPath id="clip9"><rect x="6994" y="3586" width="2086" height="1618"/></clipPath><clipPath id="clip10"><rect x="6994" y="3586" width="2086" height="1618"/></clipPath><clipPath id="clip11"><rect x="6994" y="3586" width="2086" height="1618"/></clipPath><clipPath id="clip12"><rect x="6994" y="3586" width="2086" height="1618"/></clipPath><clipPath id="clip13"><rect x="6994" y="3586" width="2086" height="1618"/></clipPath><clipPath id="clip14"><rect x="6994" y="3586" width="2086" height="1618"/></clipPath><clipPath id="clip15"><rect x="6994" y="3586" width="2086" height="1618"/></clipPath><clipPath id="clip16"><rect x="6994" y="3586" width="2086" height="1618"/></clipPath><clipPath id="clip17"><rect x="6994" y="3586" width="2086" height="1618"/></clipPath><clipPath id="clip18"><rect x="6994" y="3586" width="2086" height="1618"/></clipPath><clipPath id="clip19"><rect x="6994" y="3586" width="2086" height="1618"/></clipPath><clipPath id="clip20"><rect x="6994" y="3586" width="2086" height="1618"/></clipPath><clipPath id="clip21"><rect x="6994" y="3586" width="2086" height="1618"/></clipPath><clipPath id="clip22"><rect x="6994" y="3586" width="2086" height="1618"/></clipPath><clipPath id="clip23"><rect x="6994" y="3586" width="2086" height="1618"/></clipPath><clipPath id="clip24"><rect x="6994" y="3586" width="2086" height="1618"/></clipPath><clipPath id="clip25"><rect x="6994" y="3586" width="2086" height="1618"/></clipPath><clipPath id="clip26"><rect x="6994" y="3586" width="2086" height="1618"/></clipPath><clipPath id="clip27"><rect x="6994" y="3586" width="2086" height="1618"/></clipPath><clipPath id="clip28"><rect x="6994" y="3586" width="2086" height="1618"/></clipPath><clipPath id="clip29"><rect x="6994" y="3586" width="2086" height="1618"/></clipPath><clipPath id="clip30"><rect x="6994" y="3586" width="2086" height="1618"/></clipPath><clipPath id="clip31"><rect x="6994" y="3586" width="2086" height="1618"/></clipPath><clipPath id="clip32"><rect x="6994" y="3586" width="2086" height="1618"/></clipPath><clipPath id="clip33"><rect x="6994" y="3586" width="2087" height="1619"/></clipPath><clipPath id="clip34"><rect x="6400" y="3829" width="2377" height="109"/></clipPath><clipPath id="clip35"><rect x="6994" y="3586" width="2087" height="1619"/></clipPath><clipPath id="clip36"><rect x="6994" y="3586" width="2087" height="1619"/></clipPath><clipPath id="clip37"><rect x="6994" y="3586" width="2087" height="1619"/></clipPath><clipPath id="clip38"><rect x="6994" y="3586" width="2087" height="1619"/></clipPath><clipPath id="clip39"><rect x="6994" y="3586" width="2087" height="1619"/></clipPath><clipPath id="clip40"><rect x="6994" y="3586" width="2087" height="1619"/></clipPath></defs><g clip-path="url(#clip0)" transform="translate(-6994 -3584)"><rect x="6995" y="3587" width="2085" height="1617" fill="#FFFFFF" fill-opacity="1"/><g clip-path="url(#clip1)"><path d="M0 0 0.000360892 1297" stroke="#000000" stroke-width="3.4375" stroke-linecap="butt" stroke-linejoin="round" stroke-miterlimit="10" stroke-opacity="1" fill="none" fill-rule="evenodd" transform="matrix(1 0 0 -1 7293.5 4984.5)"/></g><g clip-path="url(#clip2)"><path d="M7272.5 4984.5 7293.5 4984.5M7272.5 4724.66 7293.5 4724.66M7272.5 4465.65 7293.5 4465.65M7272.5 4205.64 7293.5 4205.64M7272.5 3946.63 7293.5 3946.63M7272.5 3687.5 7293.5 3687.5" stroke="#000000" stroke-width="3.4375" stroke-linecap="butt" stroke-linejoin="round" stroke-miterlimit="10" stroke-opacity="1" fill="none" fill-rule="nonzero"/></g><g clip-path="url(#clip3)"><path d="M7293.5 4984.5 8980.5 4984.5" stroke="#000000" stroke-width="3.4375" stroke-linecap="butt" stroke-linejoin="round" stroke-miterlimit="10" stroke-opacity="1" fill="none" fill-rule="evenodd"/></g><g clip-path="url(#clip4)"><path d="M7293.5 4984.5 7293.5 5004.5M7855.76 4984.5 7855.76 5004.5M8417.78 4984.5 8417.78 5004.5M8980.5 4984.5 8980.5 5004.5" stroke="#000000" stroke-width="3.4375" stroke-linecap="butt" stroke-linejoin="round" stroke-miterlimit="10" stroke-opacity="1" fill="none" fill-rule="nonzero"/></g><g clip-path="url(#clip5)"><path d="M7645.06 4278.46C7645.06 4284.53 7640.14 4289.46 7634.06 4289.46 7627.99 4289.46 7623.06 4284.53 7623.06 4278.46 7623.06 4272.38 7627.99 4267.46 7634.06 4267.46 7640.14 4267.46 7645.06 4272.38 7645.06 4278.46Z" stroke="#000000" stroke-width="3.4375" stroke-linecap="butt" stroke-linejoin="round" stroke-miterlimit="10" stroke-opacity="1" fill="none" fill-rule="nonzero"/><path d="M7581.06 4147.46C7581.06 4153.53 7576.14 4158.46 7570.06 4158.46 7563.99 4158.46 7559.06 4153.53 7559.06 4147.46 7559.06 4141.38 7563.99 4136.46 7570.06 4136.46 7576.14 4136.46 7581.06 4141.38 7581.06 4147.46Z" stroke="#000000" stroke-width="3.4375" stroke-linecap="butt" stroke-linejoin="round" stroke-miterlimit="10" stroke-opacity="1" fill="none" fill-rule="nonzero"/><path d="M7790.06 4448.46C7790.06 4454.53 7785.14 4459.46 7779.06 4459.46 7772.99 4459.46 7768.06 4454.53 7768.06 4448.46 7768.06 4442.38 7772.99 4437.46 7779.06 4437.46 7785.14 4437.46 7790.06 4442.38 7790.06 4448.46Z" stroke="#000000" stroke-width="3.4375" stroke-linecap="butt" stroke-linejoin="round" stroke-miterlimit="10" stroke-opacity="1" fill="none" fill-rule="nonzero"/><path d="M7941.06 4493.46C7941.06 4499.53 7936.14 4504.46 7930.06 4504.46 7923.99 4504.46 7919.06 4499.53 7919.06 4493.46 7919.06 4487.38 7923.99 4482.46 7930.06 4482.46 7936.14 4482.46 7941.06 4487.38 7941.06 4493.46Z" stroke="#000000" stroke-width="3.4375" stroke-linecap="butt" stroke-linejoin="round" stroke-miterlimit="10" stroke-opacity="1" fill="none" fill-rule="nonzero"/><path d="M8121.06 4507.46C8121.06 4513.53 8116.14 4518.46 8110.06 4518.46 8103.99 4518.46 8099.06 4513.53 8099.06 4507.46 8099.06 4501.38 8103.99 4496.46 8110.06 4496.46 8116.14 4496.46 8121.06 4501.38 8121.06 4507.46Z" stroke="#000000" stroke-width="3.4375" stroke-linecap="butt" stroke-linejoin="round" stroke-miterlimit="10" stroke-opacity="1" fill="none" fill-rule="nonzero"/><path d="M8410.06 4526.46C8410.06 4532.53 8405.14 4537.46 8399.07 4537.46 8392.99 4537.46 8388.07 4532.53 8388.07 4526.46 8388.07 4520.38 8392.99 4515.46 8399.07 4515.46 8405.14 4515.46 8410.06 4520.38 8410.06 4526.46Z" stroke="#000000" stroke-width="3.4375" stroke-linecap="butt" stroke-linejoin="round" stroke-miterlimit="10" stroke-opacity="1" fill="none" fill-rule="nonzero"/><path d="M8735.06 4537.46C8735.06 4543.53 8730.14 4548.46 8724.06 4548.46 8717.99 4548.46 8713.06 4543.53 8713.06 4537.46 8713.06 4531.38 8717.99 4526.46 8724.06 4526.46 8730.14 4526.46 8735.06 4531.38 8735.06 4537.46Z" stroke="#000000" stroke-width="3.4375" stroke-linecap="butt" stroke-linejoin="round" stroke-miterlimit="10" stroke-opacity="1" fill="none" fill-rule="nonzero"/></g><g clip-path="url(#clip6)"><path d="M7634.5 4278.5 7643.75 4255.5 7663.5 4255.5" stroke="#A6A6A6" stroke-width="3.4375" stroke-linecap="butt" stroke-linejoin="round" stroke-miterlimit="10" stroke-opacity="1" fill="none" fill-rule="nonzero"/></g><g clip-path="url(#clip7)"><path d="M7779.5 4448.5 7722.5 4477.5" stroke="#A6A6A6" stroke-width="3.4375" stroke-linecap="butt" stroke-linejoin="round" stroke-miterlimit="10" stroke-opacity="1" fill="none" fill-rule="nonzero"/></g><g clip-path="url(#clip8)"><path d="M7930.5 4493.5 7924.5 4446.5" stroke="#A6A6A6" stroke-width="3.4375" stroke-linecap="butt" stroke-linejoin="round" stroke-miterlimit="10" stroke-opacity="1" fill="none" fill-rule="nonzero"/></g><g clip-path="url(#clip9)"><path d="M8110.5 4507.5 8189.5 4550.5" stroke="#A6A6A6" stroke-width="3.4375" stroke-linecap="butt" stroke-linejoin="round" stroke-miterlimit="10" stroke-opacity="1" fill="none" fill-rule="nonzero"/></g><g clip-path="url(#clip10)"><path d="M8399.5 4526.5 8477.5 4418.5" stroke="#A6A6A6" stroke-width="3.4375" stroke-linecap="butt" stroke-linejoin="round" stroke-miterlimit="10" stroke-opacity="1" fill="none" fill-rule="nonzero"/></g><g clip-path="url(#clip11)"><path d="M8724.5 4537.5 8825.5 4585.5" stroke="#A6A6A6" stroke-width="3.4375" stroke-linecap="butt" stroke-linejoin="round" stroke-miterlimit="10" stroke-opacity="1" fill="none" fill-rule="nonzero"/></g><g clip-path="url(#clip12)"><text fill="#000000" fill-opacity="1" font-family="Montserrat,Montserrat_MSFontService,sans-serif" font-style="normal" font-variant="normal" font-weight="400" font-stretch="normal" font-size="41" text-anchor="start" direction="ltr" writing-mode="lr-tb" unicode-bidi="normal" text-decoration="none" transform="matrix(1 0 0 1 7677.65 4270)">Gopher</text></g><g clip-path="url(#clip13)"><text fill="#000000" fill-opacity="1" font-family="Montserrat,Montserrat_MSFontService,sans-serif" font-style="normal" font-variant="normal" font-weight="400" font-stretch="normal" font-size="41" text-anchor="start" direction="ltr" writing-mode="lr-tb" unicode-bidi="normal" text-decoration="none" transform="matrix(1 0 0 1 7609.34 4162)">Chinchilla</text></g><g clip-path="url(#clip14)"><text fill="#000000" fill-opacity="1" font-family="Montserrat,Montserrat_MSFontService,sans-serif" font-style="normal" font-variant="normal" font-weight="400" font-stretch="normal" font-size="41" text-anchor="start" direction="ltr" writing-mode="lr-tb" unicode-bidi="normal" text-decoration="none" transform="matrix(1 0 0 1 7599.84 4524)">Gopher 7.1B</text></g><g clip-path="url(#clip15)"><text fill="#000000" fill-opacity="1" font-family="Montserrat,Montserrat_MSFontService,sans-serif" font-style="normal" font-variant="normal" font-weight="400" font-stretch="normal" font-size="41" text-anchor="start" direction="ltr" writing-mode="lr-tb" unicode-bidi="normal" text-decoration="none" transform="matrix(1 0 0 1 7800.34 4429)">Gopher 1.4B</text></g><g clip-path="url(#clip16)"><text fill="#000000" fill-opacity="1" font-family="Montserrat,Montserrat_MSFontService,sans-serif" font-style="normal" font-variant="normal" font-weight="400" font-stretch="normal" font-size="41" text-anchor="start" direction="ltr" writing-mode="lr-tb" unicode-bidi="normal" text-decoration="none" transform="matrix(1 0 0 1 8053.87 4597)">Gopher 417M</text></g><g clip-path="url(#clip17)"><text fill="#000000" fill-opacity="1" font-family="Montserrat,Montserrat_MSFontService,sans-serif" font-style="normal" font-variant="normal" font-weight="400" font-stretch="normal" font-size="41" text-anchor="start" direction="ltr" writing-mode="lr-tb" unicode-bidi="normal" text-decoration="none" transform="matrix(1 0 0 1 8347.61 4401)">Gopher 117M</text></g><g clip-path="url(#clip18)"><text fill="#000000" fill-opacity="1" font-family="Montserrat,Montserrat_MSFontService,sans-serif" font-style="normal" font-variant="normal" font-weight="400" font-stretch="normal" font-size="41" text-anchor="start" direction="ltr" writing-mode="lr-tb" unicode-bidi="normal" text-decoration="none" transform="matrix(1 0 0 1 8695.52 4632)">Gopher 44M</text></g><g clip-path="url(#clip19)"><text fill="#000000" fill-opacity="1" font-family="Montserrat,Montserrat_MSFontService,sans-serif" font-style="normal" font-variant="normal" font-weight="400" font-stretch="normal" font-size="64" text-anchor="start" direction="ltr" writing-mode="lr-tb" unicode-bidi="normal" text-decoration="none" transform="matrix(1 0 0 1 7190.82 5005)">0</text></g><g clip-path="url(#clip20)"><text fill="#000000" fill-opacity="1" font-family="Montserrat,Montserrat_MSFontService,sans-serif" font-style="normal" font-variant="normal" font-weight="400" font-stretch="normal" font-size="64" text-anchor="start" direction="ltr" writing-mode="lr-tb" unicode-bidi="normal" text-decoration="none" transform="matrix(1 0 0 1 7154.38 4746)">20</text></g><g clip-path="url(#clip21)"><text fill="#000000" fill-opacity="1" font-family="Montserrat,Montserrat_MSFontService,sans-serif" font-style="normal" font-variant="normal" font-weight="400" font-stretch="normal" font-size="64" text-anchor="start" direction="ltr" writing-mode="lr-tb" unicode-bidi="normal" text-decoration="none" transform="matrix(1 0 0 1 7148.4 4487)">40</text></g><g clip-path="url(#clip22)"><text fill="#000000" fill-opacity="1" font-family="Montserrat,Montserrat_MSFontService,sans-serif" font-style="normal" font-variant="normal" font-weight="400" font-stretch="normal" font-size="64" text-anchor="start" direction="ltr" writing-mode="lr-tb" unicode-bidi="normal" text-decoration="none" transform="matrix(1 0 0 1 7151.75 4227)">60</text></g><g clip-path="url(#clip23)"><text fill="#000000" fill-opacity="1" font-family="Montserrat,Montserrat_MSFontService,sans-serif" font-style="normal" font-variant="normal" font-weight="400" font-stretch="normal" font-size="64" text-anchor="start" direction="ltr" writing-mode="lr-tb" unicode-bidi="normal" text-decoration="none" transform="matrix(1 0 0 1 7149.89 3968)">80</text></g><g clip-path="url(#clip24)"><text fill="#000000" fill-opacity="1" font-family="Montserrat,Montserrat_MSFontService,sans-serif" font-style="normal" font-variant="normal" font-weight="400" font-stretch="normal" font-size="64" text-anchor="start" direction="ltr" writing-mode="lr-tb" unicode-bidi="normal" text-decoration="none" transform="matrix(1 0 0 1 7125.17 3709)">100</text></g><g clip-path="url(#clip25)"><text fill="#000000" fill-opacity="1" font-family="Montserrat,Montserrat_MSFontService,sans-serif" font-style="normal" font-variant="normal" font-weight="400" font-stretch="normal" font-size="64" text-anchor="start" direction="ltr" writing-mode="lr-tb" unicode-bidi="normal" text-decoration="none" transform="matrix(1 0 0 1 7243.82 5087)">0.0</text></g><g clip-path="url(#clip26)"><text fill="#000000" fill-opacity="1" font-family="Montserrat,Montserrat_MSFontService,sans-serif" font-style="normal" font-variant="normal" font-weight="400" font-stretch="normal" font-size="64" text-anchor="start" direction="ltr" writing-mode="lr-tb" unicode-bidi="normal" text-decoration="none" transform="matrix(1 0 0 1 7809.35 5087)">0.5</text></g><g clip-path="url(#clip27)"><text fill="#000000" fill-opacity="1" font-family="Montserrat,Montserrat_MSFontService,sans-serif" font-style="normal" font-variant="normal" font-weight="400" font-stretch="normal" font-size="64" text-anchor="start" direction="ltr" writing-mode="lr-tb" unicode-bidi="normal" text-decoration="none" transform="matrix(1 0 0 1 8378.38 5087)">1.0</text></g><g clip-path="url(#clip28)"><text fill="#000000" fill-opacity="1" font-family="Montserrat,Montserrat_MSFontService,sans-serif" font-style="normal" font-variant="normal" font-weight="400" font-stretch="normal" font-size="64" text-anchor="start" direction="ltr" writing-mode="lr-tb" unicode-bidi="normal" text-decoration="none" transform="matrix(1 0 0 1 8943.91 5087)">1.5</text></g><g clip-path="url(#clip29)"><text fill="#000000" fill-opacity="1" font-family="Montserrat,Montserrat_MSFontService,sans-serif" font-style="normal" font-variant="normal" font-weight="400" font-stretch="normal" font-size="64" text-anchor="start" direction="ltr" writing-mode="lr-tb" unicode-bidi="normal" text-decoration="none" transform="matrix(6.12323e-17 -1 1 6.12323e-17 7095.19 4655)">big</text></g><g clip-path="url(#clip30)"><text fill="#000000" fill-opacity="1" font-family="Montserrat,Montserrat_MSFontService,sans-serif" font-style="normal" font-variant="normal" font-weight="400" font-stretch="normal" font-size="64" text-anchor="start" direction="ltr" writing-mode="lr-tb" unicode-bidi="normal" text-decoration="none" transform="matrix(6.12323e-17 -1 1 6.12323e-17 7095.19 4551)">-</text></g><g clip-path="url(#clip31)"><text fill="#000000" fill-opacity="1" font-family="Montserrat,Montserrat_MSFontService,sans-serif" font-style="normal" font-variant="normal" font-weight="400" font-stretch="normal" font-size="64" text-anchor="start" direction="ltr" writing-mode="lr-tb" unicode-bidi="normal" text-decoration="none" transform="matrix(6.12323e-17 -1 1 6.12323e-17 7095.19 4526)">bench accuracy</text></g><g clip-path="url(#clip32)"><text fill="#000000" fill-opacity="1" font-family="Montserrat,Montserrat_MSFontService,sans-serif" font-style="normal" font-variant="normal" font-weight="400" font-stretch="normal" font-size="64" text-anchor="start" direction="ltr" writing-mode="lr-tb" unicode-bidi="normal" text-decoration="none" transform="matrix(1 0 0 1 7976.54 5179)">total error</text></g><g clip-path="url(#clip33)"><g clip-path="url(#clip34)"><text fill="#4472C4" fill-opacity="1" font-family="Calibri,Calibri_MSFontService,sans-serif" font-style="normal" font-variant="normal" font-weight="400" font-stretch="normal" font-size="50" text-anchor="start" direction="ltr" writing-mode="lr-tb" unicode-bidi="normal" text-decoration="none" transform="matrix(1 0 0 1 7419.04 3894)">NO ONE KNOWS</text></g></g><g clip-path="url(#clip35)"><text fill="#BFBFBF" fill-opacity="1" font-family="Courier,Courier_MSFontService,sans-serif" font-style="normal" font-variant="normal" font-weight="400" font-stretch="normal" font-size="46" text-anchor="start" direction="ltr" writing-mode="lr-tb" unicode-bidi="normal" text-decoration="none" transform="matrix(1 0 0 1 8635.07 5168)">dynomight.net</text></g><g clip-path="url(#clip36)"><path d="M7296.5 4114.5 7563 4149.71" stroke="#4472C4" stroke-width="4.58333" stroke-linecap="butt" stroke-linejoin="miter" stroke-miterlimit="8" stroke-opacity="0.74902" fill="none" fill-rule="evenodd"/></g><g clip-path="url(#clip37)"><path d="M7295.5 3904.5 7557.46 4139.03" stroke="#4472C4" stroke-width="4.58333" stroke-linecap="butt" stroke-linejoin="miter" stroke-miterlimit="8" stroke-opacity="0.74902" fill="none" fill-rule="evenodd"/></g><g clip-path="url(#clip38)"><path d="M7293.5 4031.5 7559.15 4143.33" stroke="#4472C4" stroke-width="4.58333" stroke-linecap="butt" stroke-linejoin="miter" stroke-miterlimit="8" stroke-opacity="0.74902" fill="none" fill-rule="evenodd"/></g><g clip-path="url(#clip39)"><path d="M7293.5 3693.5 7567.39 4147.72" stroke="#4472C4" stroke-width="4.58333" stroke-linecap="butt" stroke-linejoin="miter" stroke-miterlimit="8" stroke-opacity="0.74902" fill="none" fill-rule="evenodd"/></g><g clip-path="url(#clip40)"><path d="M7295.5 3807.5 7565.19 4149.55" stroke="#4472C4" stroke-width="4.58333" stroke-linecap="butt" stroke-linejoin="miter" stroke-miterlimit="8" stroke-opacity="0.74902" fill="none" fill-rule="evenodd"/></g></g></svg>