<svg width="2108" height="1627" xmlns="http://www.w3.org/2000/svg" xmlns:xlink="http://www.w3.org/1999/xlink" overflow="hidden"><defs><clipPath id="clip0"><rect x="5390" y="586" width="2108" height="1627"/></clipPath><clipPath id="clip1"><rect x="5393" y="589" width="2101" height="1623"/></clipPath><clipPath id="clip2"><rect x="5393" y="589" width="2101" height="1623"/></clipPath><clipPath id="clip3"><rect x="5393" y="589" width="2101" height="1623"/></clipPath><clipPath id="clip4"><rect x="5393" y="589" width="2101" height="1623"/></clipPath><clipPath id="clip5"><rect x="5393" y="589" width="2101" height="1623"/></clipPath><clipPath id="clip6"><rect x="5393" y="589" width="2101" height="1623"/></clipPath><clipPath id="clip7"><rect x="5393" y="589" width="2101" height="1623"/></clipPath><clipPath id="clip8"><rect x="5393" y="589" width="2101" height="1623"/></clipPath><clipPath id="clip9"><rect x="5393" y="589" width="2101" height="1623"/></clipPath><clipPath id="clip10"><rect x="5393" y="589" width="2101" height="1623"/></clipPath><clipPath id="clip11"><rect x="5393" y="589" width="2101" height="1623"/></clipPath><clipPath id="clip12"><rect x="5393" y="589" width="2101" height="1623"/></clipPath><clipPath id="clip13"><rect x="5393" y="589" width="2101" height="1623"/></clipPath><clipPath id="clip14"><rect x="5393" y="589" width="2101" height="1623"/></clipPath><clipPath id="clip15"><rect x="5393" y="589" width="2101" height="1623"/></clipPath><clipPath id="clip16"><rect x="5393" y="589" width="2101" height="1623"/></clipPath><clipPath id="clip17"><rect x="5393" y="589" width="2101" height="1623"/></clipPath><clipPath id="clip18"><rect x="5393" y="589" width="2101" height="1623"/></clipPath><clipPath id="clip19"><rect x="5393" y="589" width="2101" height="1623"/></clipPath><clipPath id="clip20"><rect x="5393" y="589" width="2101" height="1623"/></clipPath><clipPath id="clip21"><rect x="5393" y="589" width="2101" height="1623"/></clipPath><clipPath id="clip22"><rect x="5393" y="589" width="2101" height="1623"/></clipPath><clipPath id="clip23"><rect x="5393" y="589" width="2101" height="1623"/></clipPath><clipPath id="clip24"><rect x="5393" y="589" width="2101" height="1623"/></clipPath><clipPath id="clip25"><rect x="5393" y="589" width="2101" height="1623"/></clipPath><clipPath id="clip26"><rect x="5393" y="589" width="2101" height="1623"/></clipPath><clipPath id="clip27"><rect x="5393" y="589" width="2101" height="1623"/></clipPath><clipPath id="clip28"><rect x="5393" y="589" width="2101" height="1623"/></clipPath><clipPath id="clip29"><rect x="5393" y="589" width="2101" height="1623"/></clipPath><clipPath id="clip30"><rect x="5393" y="589" width="2101" height="1623"/></clipPath><clipPath id="clip31"><rect x="5393" y="589" width="2101" height="1623"/></clipPath><clipPath id="clip32"><rect x="5393" y="589" width="2101" height="1623"/></clipPath><clipPath id="clip33"><rect x="5393" y="589" width="2102" height="1624"/></clipPath><clipPath id="clip34"><rect x="5393" y="589" width="2102" height="1624"/></clipPath><clipPath id="clip35"><rect x="3480" y="833" width="5462" height="109"/></clipPath><clipPath id="clip36"><rect x="5393" y="589" width="2102" height="1624"/></clipPath><clipPath id="clip37"><rect x="3480" y="833" width="5462" height="109"/></clipPath><clipPath id="clip38"><rect x="5393" y="589" width="2102" height="1624"/></clipPath><clipPath id="clip39"><rect x="3480" y="833" width="5462" height="109"/></clipPath><clipPath id="clip40"><rect x="5393" y="589" width="2102" height="1624"/></clipPath><clipPath id="clip41"><rect x="3480" y="833" width="5462" height="109"/></clipPath><clipPath id="clip42"><rect x="5393" y="589" width="2102" height="1624"/></clipPath><clipPath id="clip43"><rect x="3480" y="833" width="5462" height="109"/></clipPath><clipPath id="clip44"><rect x="5393" y="589" width="2102" height="1624"/></clipPath><clipPath id="clip45"><rect x="3480" y="833" width="5462" height="109"/></clipPath><clipPath id="clip46"><rect x="5393" y="589" width="2102" height="1624"/></clipPath><clipPath id="clip47"><rect x="3480" y="833" width="5462" height="109"/></clipPath><clipPath id="clip48"><rect x="5393" y="589" width="2102" height="1624"/></clipPath><clipPath id="clip49"><rect x="3480" y="833" width="5462" height="109"/></clipPath><clipPath id="clip50"><rect x="5393" y="589" width="2102" height="1624"/></clipPath><clipPath id="clip51"><rect x="3480" y="833" width="5462" height="109"/></clipPath><clipPath id="clip52"><rect x="5393" y="589" width="2102" height="1624"/></clipPath></defs><g clip-path="url(#clip0)" transform="translate(-5390 -586)"><rect x="5393" y="590" width="2101" height="1623" fill="#FFFFFF" fill-opacity="1"/><g clip-path="url(#clip1)"><path d="M0 0 0.000360892 1301" stroke="#000000" stroke-width="3.4375" stroke-linecap="butt" stroke-linejoin="round" stroke-miterlimit="10" stroke-opacity="1" fill="none" fill-rule="evenodd" transform="matrix(1 0 0 -1 5693.5 1991.5)"/></g><g clip-path="url(#clip2)"><path d="M5673.5 1991.5 5693.5 1991.5M5673.5 1731.56 5693.5 1731.56M5673.5 1471.55 5693.5 1471.55M5673.5 1211.54 5693.5 1211.54M5673.5 950.531 5693.5 950.531M5673.5 690.5 5693.5 690.5" stroke="#000000" stroke-width="3.4375" stroke-linecap="butt" stroke-linejoin="round" stroke-miterlimit="10" stroke-opacity="1" fill="none" fill-rule="nonzero"/></g><g clip-path="url(#clip3)"><path d="M5693.5 1991.5 7393.5 1991.5" stroke="#000000" stroke-width="3.4375" stroke-linecap="butt" stroke-linejoin="round" stroke-miterlimit="10" stroke-opacity="1" fill="none" fill-rule="evenodd"/></g><g clip-path="url(#clip4)"><path d="M5693.5 1991.5 5693.5 2012.5M6260.71 1991.5 6260.71 2012.5M6826.72 1991.5 6826.72 2012.5M7393.5 1991.5 7393.5 2012.5" stroke="#000000" stroke-width="3.4375" stroke-linecap="butt" stroke-linejoin="round" stroke-miterlimit="10" stroke-opacity="1" fill="none" fill-rule="nonzero"/></g><g clip-path="url(#clip5)"><path d="M6048.62 1284.29C6048.62 1290.37 6043.7 1295.29 6037.62 1295.29 6031.55 1295.29 6026.62 1290.37 6026.62 1284.29 6026.62 1278.22 6031.55 1273.29 6037.62 1273.29 6043.7 1273.29 6048.62 1278.22 6048.62 1284.29Z" stroke="#000000" stroke-width="3.4375" stroke-linecap="butt" stroke-linejoin="round" stroke-miterlimit="10" stroke-opacity="1" fill="none" fill-rule="nonzero"/><path d="M5984.62 1152.29C5984.62 1158.37 5979.7 1163.29 5973.62 1163.29 5967.55 1163.29 5962.62 1158.37 5962.62 1152.29 5962.62 1146.22 5967.55 1141.29 5973.62 1141.29 5979.7 1141.29 5984.62 1146.22 5984.62 1152.29Z" stroke="#000000" stroke-width="3.4375" stroke-linecap="butt" stroke-linejoin="round" stroke-miterlimit="10" stroke-opacity="1" fill="none" fill-rule="nonzero"/><path d="M6195.62 1454.29C6195.62 1460.37 6190.7 1465.29 6184.62 1465.29 6178.55 1465.29 6173.62 1460.37 6173.62 1454.29 6173.62 1448.22 6178.55 1443.29 6184.62 1443.29 6190.7 1443.29 6195.62 1448.22 6195.62 1454.29Z" stroke="#000000" stroke-width="3.4375" stroke-linecap="butt" stroke-linejoin="round" stroke-miterlimit="10" stroke-opacity="1" fill="none" fill-rule="nonzero"/><path d="M6346.62 1499.29C6346.62 1505.37 6341.7 1510.29 6335.62 1510.29 6329.55 1510.29 6324.62 1505.37 6324.62 1499.29 6324.62 1493.22 6329.55 1488.29 6335.62 1488.29 6341.7 1488.29 6346.62 1493.22 6346.62 1499.29Z" stroke="#000000" stroke-width="3.4375" stroke-linecap="butt" stroke-linejoin="round" stroke-miterlimit="10" stroke-opacity="1" fill="none" fill-rule="nonzero"/><path d="M6528.62 1513.29C6528.62 1519.37 6523.7 1524.29 6517.62 1524.29 6511.55 1524.29 6506.62 1519.37 6506.62 1513.29 6506.62 1507.22 6511.55 1502.29 6517.62 1502.29 6523.7 1502.29 6528.62 1507.22 6528.62 1513.29Z" stroke="#000000" stroke-width="3.4375" stroke-linecap="butt" stroke-linejoin="round" stroke-miterlimit="10" stroke-opacity="1" fill="none" fill-rule="nonzero"/><path d="M6819.62 1532.29C6819.62 1538.37 6814.7 1543.29 6808.62 1543.29 6802.55 1543.29 6797.62 1538.37 6797.62 1532.29 6797.62 1526.22 6802.55 1521.29 6808.62 1521.29 6814.7 1521.29 6819.62 1526.22 6819.62 1532.29Z" stroke="#000000" stroke-width="3.4375" stroke-linecap="butt" stroke-linejoin="round" stroke-miterlimit="10" stroke-opacity="1" fill="none" fill-rule="nonzero"/><path d="M7147.62 1544.29C7147.62 1550.37 7142.7 1555.29 7136.62 1555.29 7130.55 1555.29 7125.62 1550.37 7125.62 1544.29 7125.62 1538.22 7130.55 1533.29 7136.62 1533.29 7142.7 1533.29 7147.62 1538.22 7147.62 1544.29Z" stroke="#000000" stroke-width="3.4375" stroke-linecap="butt" stroke-linejoin="round" stroke-miterlimit="10" stroke-opacity="1" fill="none" fill-rule="nonzero"/></g><g clip-path="url(#clip6)"><path d="M6037.5 1284.5 6046.7 1260.5 6067.5 1260.5" stroke="#A6A6A6" stroke-width="3.4375" stroke-linecap="butt" stroke-linejoin="round" stroke-miterlimit="10" stroke-opacity="1" fill="none" fill-rule="nonzero"/></g><g clip-path="url(#clip7)"><path d="M6184.5 1454.5 6125.5 1483.5" stroke="#A6A6A6" stroke-width="3.4375" stroke-linecap="butt" stroke-linejoin="round" stroke-miterlimit="10" stroke-opacity="1" fill="none" fill-rule="nonzero"/></g><g clip-path="url(#clip8)"><path d="M6335.5 1499.5 6328.5 1452.5" stroke="#A6A6A6" stroke-width="3.4375" stroke-linecap="butt" stroke-linejoin="round" stroke-miterlimit="10" stroke-opacity="1" fill="none" fill-rule="nonzero"/></g><g clip-path="url(#clip9)"><path d="M6517.5 1513.5 6595.5 1556.5" stroke="#A6A6A6" stroke-width="3.4375" stroke-linecap="butt" stroke-linejoin="round" stroke-miterlimit="10" stroke-opacity="1" fill="none" fill-rule="nonzero"/></g><g clip-path="url(#clip10)"><path d="M6808.5 1532.5 6885.5 1423.5" stroke="#A6A6A6" stroke-width="3.4375" stroke-linecap="butt" stroke-linejoin="round" stroke-miterlimit="10" stroke-opacity="1" fill="none" fill-rule="nonzero"/></g><g clip-path="url(#clip11)"><path d="M7136.5 1544.5 7236.5 1591.5" stroke="#A6A6A6" stroke-width="3.4375" stroke-linecap="butt" stroke-linejoin="round" stroke-miterlimit="10" stroke-opacity="1" fill="none" fill-rule="nonzero"/></g><g clip-path="url(#clip12)"><text fill="#000000" fill-opacity="1" font-family="Montserrat,Montserrat_MSFontService,sans-serif" font-style="normal" font-variant="normal" font-weight="400" font-stretch="normal" font-size="41" text-anchor="start" direction="ltr" writing-mode="lr-tb" unicode-bidi="normal" text-decoration="none" transform="matrix(1 0 0 1 6080.97 1276)">Gopher</text></g><g clip-path="url(#clip13)"><text fill="#000000" fill-opacity="1" font-family="Montserrat,Montserrat_MSFontService,sans-serif" font-style="normal" font-variant="normal" font-weight="400" font-stretch="normal" font-size="41" text-anchor="start" direction="ltr" writing-mode="lr-tb" unicode-bidi="normal" text-decoration="none" transform="matrix(1 0 0 1 6012.15 1167)">Chinchilla</text></g><g clip-path="url(#clip14)"><text fill="#000000" fill-opacity="1" font-family="Montserrat,Montserrat_MSFontService,sans-serif" font-style="normal" font-variant="normal" font-weight="400" font-stretch="normal" font-size="41" text-anchor="start" direction="ltr" writing-mode="lr-tb" unicode-bidi="normal" text-decoration="none" transform="matrix(1 0 0 1 6002.58 1530)">Gopher 7.1B</text></g><g clip-path="url(#clip15)"><text fill="#000000" fill-opacity="1" font-family="Montserrat,Montserrat_MSFontService,sans-serif" font-style="normal" font-variant="normal" font-weight="400" font-stretch="normal" font-size="41" text-anchor="start" direction="ltr" writing-mode="lr-tb" unicode-bidi="normal" text-decoration="none" transform="matrix(1 0 0 1 6204.57 1435)">Gopher 1.4B</text></g><g clip-path="url(#clip16)"><text fill="#000000" fill-opacity="1" font-family="Montserrat,Montserrat_MSFontService,sans-serif" font-style="normal" font-variant="normal" font-weight="400" font-stretch="normal" font-size="41" text-anchor="start" direction="ltr" writing-mode="lr-tb" unicode-bidi="normal" text-decoration="none" transform="matrix(1 0 0 1 6459.96 1603)">Gopher 417M</text></g><g clip-path="url(#clip17)"><text fill="#000000" fill-opacity="1" font-family="Montserrat,Montserrat_MSFontService,sans-serif" font-style="normal" font-variant="normal" font-weight="400" font-stretch="normal" font-size="41" text-anchor="start" direction="ltr" writing-mode="lr-tb" unicode-bidi="normal" text-decoration="none" transform="matrix(1 0 0 1 6755.87 1407)">Gopher 117M</text></g><g clip-path="url(#clip18)"><text fill="#000000" fill-opacity="1" font-family="Montserrat,Montserrat_MSFontService,sans-serif" font-style="normal" font-variant="normal" font-weight="400" font-stretch="normal" font-size="41" text-anchor="start" direction="ltr" writing-mode="lr-tb" unicode-bidi="normal" text-decoration="none" transform="matrix(1 0 0 1 7106.35 1639)">Gopher 44M</text></g><g clip-path="url(#clip19)"><text fill="#000000" fill-opacity="1" font-family="Montserrat,Montserrat_MSFontService,sans-serif" font-style="normal" font-variant="normal" font-weight="400" font-stretch="normal" font-size="64" text-anchor="start" direction="ltr" writing-mode="lr-tb" unicode-bidi="normal" text-decoration="none" transform="matrix(1 0 0 1 5591.59 2013)">0</text></g><g clip-path="url(#clip20)"><text fill="#000000" fill-opacity="1" font-family="Montserrat,Montserrat_MSFontService,sans-serif" font-style="normal" font-variant="normal" font-weight="400" font-stretch="normal" font-size="64" text-anchor="start" direction="ltr" writing-mode="lr-tb" unicode-bidi="normal" text-decoration="none" transform="matrix(1 0 0 1 5555.15 1753)">20</text></g><g clip-path="url(#clip21)"><text fill="#000000" fill-opacity="1" font-family="Montserrat,Montserrat_MSFontService,sans-serif" font-style="normal" font-variant="normal" font-weight="400" font-stretch="normal" font-size="64" text-anchor="start" direction="ltr" writing-mode="lr-tb" unicode-bidi="normal" text-decoration="none" transform="matrix(1 0 0 1 5549.17 1493)">40</text></g><g clip-path="url(#clip22)"><text fill="#000000" fill-opacity="1" font-family="Montserrat,Montserrat_MSFontService,sans-serif" font-style="normal" font-variant="normal" font-weight="400" font-stretch="normal" font-size="64" text-anchor="start" direction="ltr" writing-mode="lr-tb" unicode-bidi="normal" text-decoration="none" transform="matrix(1 0 0 1 5552.51 1232)">60</text></g><g clip-path="url(#clip23)"><text fill="#000000" fill-opacity="1" font-family="Montserrat,Montserrat_MSFontService,sans-serif" font-style="normal" font-variant="normal" font-weight="400" font-stretch="normal" font-size="64" text-anchor="start" direction="ltr" writing-mode="lr-tb" unicode-bidi="normal" text-decoration="none" transform="matrix(1 0 0 1 5550.66 972)">80</text></g><g clip-path="url(#clip24)"><text fill="#000000" fill-opacity="1" font-family="Montserrat,Montserrat_MSFontService,sans-serif" font-style="normal" font-variant="normal" font-weight="400" font-stretch="normal" font-size="64" text-anchor="start" direction="ltr" writing-mode="lr-tb" unicode-bidi="normal" text-decoration="none" transform="matrix(1 0 0 1 5525.93 712)">100</text></g><g clip-path="url(#clip25)"><text fill="#000000" fill-opacity="1" font-family="Montserrat,Montserrat_MSFontService,sans-serif" font-style="normal" font-variant="normal" font-weight="400" font-stretch="normal" font-size="64" text-anchor="start" direction="ltr" writing-mode="lr-tb" unicode-bidi="normal" text-decoration="none" transform="matrix(1 0 0 1 5644.59 2095)">0.0</text></g><g clip-path="url(#clip26)"><text fill="#000000" fill-opacity="1" font-family="Montserrat,Montserrat_MSFontService,sans-serif" font-style="normal" font-variant="normal" font-weight="400" font-stretch="normal" font-size="64" text-anchor="start" direction="ltr" writing-mode="lr-tb" unicode-bidi="normal" text-decoration="none" transform="matrix(1 0 0 1 6214.27 2095)">0.5</text></g><g clip-path="url(#clip27)"><text fill="#000000" fill-opacity="1" font-family="Montserrat,Montserrat_MSFontService,sans-serif" font-style="normal" font-variant="normal" font-weight="400" font-stretch="normal" font-size="64" text-anchor="start" direction="ltr" writing-mode="lr-tb" unicode-bidi="normal" text-decoration="none" transform="matrix(1 0 0 1 6787.45 2095)">1.0</text></g><g clip-path="url(#clip28)"><text fill="#000000" fill-opacity="1" font-family="Montserrat,Montserrat_MSFontService,sans-serif" font-style="normal" font-variant="normal" font-weight="400" font-stretch="normal" font-size="64" text-anchor="start" direction="ltr" writing-mode="lr-tb" unicode-bidi="normal" text-decoration="none" transform="matrix(1 0 0 1 7357.13 2095)">1.5</text></g><g clip-path="url(#clip29)"><text fill="#000000" fill-opacity="1" font-family="Montserrat,Montserrat_MSFontService,sans-serif" font-style="normal" font-variant="normal" font-weight="400" font-stretch="normal" font-size="64" text-anchor="start" direction="ltr" writing-mode="lr-tb" unicode-bidi="normal" text-decoration="none" transform="matrix(6.12323e-17 -1 1 6.12323e-17 5495.96 1661)">big</text></g><g clip-path="url(#clip30)"><text fill="#000000" fill-opacity="1" font-family="Montserrat,Montserrat_MSFontService,sans-serif" font-style="normal" font-variant="normal" font-weight="400" font-stretch="normal" font-size="64" text-anchor="start" direction="ltr" writing-mode="lr-tb" unicode-bidi="normal" text-decoration="none" transform="matrix(6.12323e-17 -1 1 6.12323e-17 5495.96 1556)">-</text></g><g clip-path="url(#clip31)"><text fill="#000000" fill-opacity="1" font-family="Montserrat,Montserrat_MSFontService,sans-serif" font-style="normal" font-variant="normal" font-weight="400" font-stretch="normal" font-size="64" text-anchor="start" direction="ltr" writing-mode="lr-tb" unicode-bidi="normal" text-decoration="none" transform="matrix(6.12323e-17 -1 1 6.12323e-17 5495.96 1531)">bench accuracy</text></g><g clip-path="url(#clip32)"><text fill="#000000" fill-opacity="1" font-family="Montserrat,Montserrat_MSFontService,sans-serif" font-style="normal" font-variant="normal" font-weight="400" font-stretch="normal" font-size="64" text-anchor="start" direction="ltr" writing-mode="lr-tb" unicode-bidi="normal" text-decoration="none" transform="matrix(1 0 0 1 6383.54 2187)">total error</text></g><g clip-path="url(#clip33)"><path d="M5695.5 781.5 6181.79 1457.27" stroke="#4472C4" stroke-width="4.58333" stroke-linecap="butt" stroke-linejoin="miter" stroke-miterlimit="8" stroke-opacity="0.74902" fill="none" fill-rule="evenodd"/></g><g clip-path="url(#clip34)"><g clip-path="url(#clip35)"><text fill="#4472C4" fill-opacity="1" font-family="Calibri,Calibri_MSFontService,sans-serif" font-style="normal" font-variant="normal" font-weight="400" font-stretch="normal" font-size="50" text-anchor="start" direction="ltr" writing-mode="lr-tb" unicode-bidi="normal" text-decoration="none" transform="matrix(1 0 0 1 5820.49 898)">Big</text></g></g><g clip-path="url(#clip36)"><g clip-path="url(#clip37)"><text fill="#4472C4" fill-opacity="1" font-family="Calibri,Calibri_MSFontService,sans-serif" font-style="normal" font-variant="normal" font-weight="400" font-stretch="normal" font-size="50" text-anchor="start" direction="ltr" writing-mode="lr-tb" unicode-bidi="normal" text-decoration="none" transform="matrix(1 0 0 1 5883.24 898)">-</text></g></g><g clip-path="url(#clip38)"><g clip-path="url(#clip39)"><text fill="#4472C4" fill-opacity="1" font-family="Calibri,Calibri_MSFontService,sans-serif" font-style="normal" font-variant="normal" font-weight="400" font-stretch="normal" font-size="50" text-anchor="start" direction="ltr" writing-mode="lr-tb" unicode-bidi="normal" text-decoration="none" transform="matrix(1 0 0 1 5898.68 898)">Bench</text></g></g><g clip-path="url(#clip40)"><g clip-path="url(#clip41)"><text fill="#4472C4" fill-opacity="1" font-family="Calibri,Calibri_MSFontService,sans-serif" font-style="normal" font-variant="normal" font-weight="400" font-stretch="normal" font-size="50" text-anchor="start" direction="ltr" writing-mode="lr-tb" unicode-bidi="normal" text-decoration="none" transform="matrix(1 0 0 1 6071.06 898)">≈  </text></g></g><g clip-path="url(#clip42)"><g clip-path="url(#clip43)"><text fill="#4472C4" fill-opacity="1" font-family="Calibri,Calibri_MSFontService,sans-serif" font-style="normal" font-variant="normal" font-weight="400" font-stretch="normal" font-size="50" text-anchor="start" direction="ltr" writing-mode="lr-tb" unicode-bidi="normal" text-decoration="none" transform="matrix(1 0 0 1 6118.96 898)">92.92 </text></g></g><g clip-path="url(#clip44)"><g clip-path="url(#clip45)"><text fill="#4472C4" fill-opacity="1" font-family="Calibri,Calibri_MSFontService,sans-serif" font-style="normal" font-variant="normal" font-weight="400" font-stretch="normal" font-size="50" text-anchor="start" direction="ltr" writing-mode="lr-tb" unicode-bidi="normal" text-decoration="none" transform="matrix(1 0 0 1 6245.27 898)">-</text></g></g><g clip-path="url(#clip46)"><g clip-path="url(#clip47)"><text fill="#4472C4" fill-opacity="1" font-family="Calibri,Calibri_MSFontService,sans-serif" font-style="normal" font-variant="normal" font-weight="400" font-stretch="normal" font-size="50" text-anchor="start" direction="ltr" writing-mode="lr-tb" unicode-bidi="normal" text-decoration="none" transform="matrix(1 0 0 1 6272.11 898)">141.17 </text></g></g><g clip-path="url(#clip48)"><g clip-path="url(#clip49)"><text fill="#4472C4" fill-opacity="1" font-family="Calibri,Calibri_MSFontService,sans-serif" font-style="normal" font-variant="normal" font-weight="400" font-stretch="normal" font-size="50" text-anchor="start" direction="ltr" writing-mode="lr-tb" unicode-bidi="normal" text-decoration="none" transform="matrix(1 0 0 1 6423.98 898)">×</text></g></g><g clip-path="url(#clip50)"><g clip-path="url(#clip51)"><text fill="#4472C4" fill-opacity="1" font-family="Calibri,Calibri_MSFontService,sans-serif" font-style="normal" font-variant="normal" font-weight="400" font-stretch="normal" font-size="50" text-anchor="start" direction="ltr" writing-mode="lr-tb" unicode-bidi="normal" text-decoration="none" transform="matrix(1 0 0 1 6460.48 898)">ERROR</text></g></g><g clip-path="url(#clip52)"><text fill="#BFBFBF" fill-opacity="1" font-family="Courier,Courier_MSFontService,sans-serif" font-style="normal" font-variant="normal" font-weight="400" font-stretch="normal" font-size="46" text-anchor="start" direction="ltr" writing-mode="lr-tb" unicode-bidi="normal" text-decoration="none" transform="matrix(1 0 0 1 7045.5 2176)">dynomight.net</text></g></g></svg>