<?xml version="1.0" encoding="utf-8" standalone="no"?>
<!DOCTYPE svg PUBLIC "-//W3C//DTD SVG 1.1//EN"
  "http://www.w3.org/Graphics/SVG/1.1/DTD/svg11.dtd">
<svg xmlns:xlink="http://www.w3.org/1999/xlink" width="432pt" height="288pt" viewBox="0 0 432 288" xmlns="http://www.w3.org/2000/svg" version="1.1">
 <metadata>
  <rdf:RDF xmlns:dc="http://purl.org/dc/elements/1.1/" xmlns:cc="http://creativecommons.org/ns#" xmlns:rdf="http://www.w3.org/1999/02/22-rdf-syntax-ns#">
   <cc:Work>
    <dc:type rdf:resource="http://purl.org/dc/dcmitype/StillImage"/>
    <dc:date>2023-02-27T09:49:33.761019</dc:date>
    <dc:format>image/svg+xml</dc:format>
    <dc:creator>
     <cc:Agent>
      <dc:title>Matplotlib v3.5.1, https://matplotlib.org/</dc:title>
     </cc:Agent>
    </dc:creator>
   </cc:Work>
  </rdf:RDF>
 </metadata>
 <defs>
  <style type="text/css">*{stroke-linejoin: round; stroke-linecap: butt}</style>
 </defs>
 <g id="figure_1">
  <g id="patch_1">
   <path d="M 0 288 
L 432 288 
L 432 0 
L 0 0 
L 0 288 
z
" style="fill: none"/>
  </g>
  <g id="axes_1">
   <g id="patch_2">
    <path d="M 54 252 
L 388.8 252 
L 388.8 34.56 
L 54 34.56 
z
" style="fill: #ffffff"/>
   </g>
   <g id="matplotlib.axis_1">
    <g id="xtick_1">
     <g id="line2d_1">
      <defs>
       <path id="m2061396b08" d="M 0 0 
L 0 3.5 
" style="stroke: #000000; stroke-width: 0.8"/>
      </defs>
      <g>
       <use xlink:href="#m2061396b08" x="94.602972" y="252" style="stroke: #000000; stroke-width: 0.8"/>
      </g>
     </g>
     <g id="text_1">
      <!-- $\mathdefault{10^{21}}$ -->
      <g transform="translate(86.052972 266.420313)scale(0.1 -0.1)">
       <defs>
        <path id="Montserrat-Regular-31" d="M 1574 4480 
L 1574 0 
L 1114 0 
L 1114 4070 
L 58 4070 
L 58 4480 
L 1574 4480 
z
" transform="scale(0.015625)"/>
        <path id="Montserrat-Regular-30" d="M 2118 -38 
Q 1600 -38 1193 237 
Q 787 512 560 1027 
Q 333 1542 333 2240 
Q 333 2938 560 3453 
Q 787 3968 1193 4243 
Q 1600 4518 2118 4518 
Q 2637 4518 3043 4243 
Q 3450 3968 3680 3453 
Q 3910 2938 3910 2240 
Q 3910 1542 3680 1027 
Q 3450 512 3043 237 
Q 2637 -38 2118 -38 
z
M 2118 384 
Q 2509 384 2806 601 
Q 3104 819 3270 1235 
Q 3437 1651 3437 2240 
Q 3437 2829 3270 3245 
Q 3104 3661 2806 3878 
Q 2509 4096 2118 4096 
Q 1728 4096 1430 3878 
Q 1133 3661 966 3245 
Q 800 2829 800 2240 
Q 800 1651 966 1235 
Q 1133 819 1430 601 
Q 1728 384 2118 384 
z
" transform="scale(0.015625)"/>
        <path id="Montserrat-Regular-32" d="M 3392 410 
L 3392 0 
L 250 0 
L 250 326 
L 2112 2150 
Q 2464 2496 2589 2749 
Q 2714 3002 2714 3258 
Q 2714 3654 2442 3875 
Q 2170 4096 1664 4096 
Q 877 4096 442 3597 
L 115 3878 
Q 378 4186 784 4352 
Q 1190 4518 1702 4518 
Q 2387 4518 2787 4195 
Q 3187 3872 3187 3309 
Q 3187 2963 3033 2643 
Q 2880 2323 2451 1907 
L 928 410 
L 3392 410 
z
" transform="scale(0.015625)"/>
       </defs>
       <use xlink:href="#Montserrat-Regular-31" transform="translate(0 0.76875)"/>
       <use xlink:href="#Montserrat-Regular-30" transform="translate(36.099991 0.76875)"/>
       <use xlink:href="#Montserrat-Regular-32" transform="translate(103.220378 37.584375)scale(0.7)"/>
       <use xlink:href="#Montserrat-Regular-31" transform="translate(142.98037 37.584375)scale(0.7)"/>
      </g>
     </g>
    </g>
    <g id="xtick_2">
     <g id="line2d_2">
      <g>
       <use xlink:href="#m2061396b08" x="145.372553" y="252" style="stroke: #000000; stroke-width: 0.8"/>
      </g>
     </g>
     <g id="text_2">
      <!-- $\mathdefault{10^{23}}$ -->
      <g transform="translate(136.072553 266.420313)scale(0.1 -0.1)">
       <defs>
        <path id="Montserrat-Regular-33" d="M 1856 2560 
Q 2560 2522 2928 2179 
Q 3296 1837 3296 1286 
Q 3296 902 3110 604 
Q 2925 307 2560 134 
Q 2195 -38 1670 -38 
Q 1184 -38 752 118 
Q 320 275 58 538 
L 282 902 
Q 506 672 877 528 
Q 1248 384 1670 384 
Q 2221 384 2521 624 
Q 2822 864 2822 1286 
Q 2822 1702 2521 1939 
Q 2221 2176 1613 2176 
L 1293 2176 
L 1293 2515 
L 2534 4070 
L 243 4070 
L 243 4480 
L 3123 4480 
L 3123 4154 
L 1856 2560 
z
" transform="scale(0.015625)"/>
       </defs>
       <use xlink:href="#Montserrat-Regular-31" transform="translate(0 0.76875)"/>
       <use xlink:href="#Montserrat-Regular-30" transform="translate(36.099991 0.76875)"/>
       <use xlink:href="#Montserrat-Regular-32" transform="translate(103.220378 37.584375)scale(0.7)"/>
       <use xlink:href="#Montserrat-Regular-33" transform="translate(142.98037 37.584375)scale(0.7)"/>
      </g>
     </g>
    </g>
    <g id="xtick_3">
     <g id="line2d_3">
      <g>
       <use xlink:href="#m2061396b08" x="196.142134" y="252" style="stroke: #000000; stroke-width: 0.8"/>
      </g>
     </g>
     <g id="text_3">
      <!-- $\mathdefault{10^{25}}$ -->
      <g transform="translate(186.842134 266.420313)scale(0.1 -0.1)">
       <defs>
        <path id="Montserrat-Regular-35" d="M 1510 2643 
Q 2483 2643 2928 2294 
Q 3373 1946 3373 1318 
Q 3373 928 3190 621 
Q 3008 314 2643 138 
Q 2278 -38 1747 -38 
Q 1267 -38 835 118 
Q 403 275 141 538 
L 365 902 
Q 589 672 953 528 
Q 1318 384 1741 384 
Q 2298 384 2602 633 
Q 2906 883 2906 1299 
Q 2906 1760 2563 1997 
Q 2221 2234 1408 2234 
L 454 2234 
L 685 4480 
L 3136 4480 
L 3136 4070 
L 1088 4070 
L 934 2643 
L 1510 2643 
z
" transform="scale(0.015625)"/>
       </defs>
       <use xlink:href="#Montserrat-Regular-31" transform="translate(0 0.76875)"/>
       <use xlink:href="#Montserrat-Regular-30" transform="translate(36.099991 0.76875)"/>
       <use xlink:href="#Montserrat-Regular-32" transform="translate(103.220378 37.584375)scale(0.7)"/>
       <use xlink:href="#Montserrat-Regular-35" transform="translate(142.98037 37.584375)scale(0.7)"/>
      </g>
     </g>
    </g>
    <g id="xtick_4">
     <g id="line2d_4">
      <g>
       <use xlink:href="#m2061396b08" x="246.911714" y="252" style="stroke: #000000; stroke-width: 0.8"/>
      </g>
     </g>
     <g id="text_4">
      <!-- $\mathdefault{10^{27}}$ -->
      <g transform="translate(237.561714 266.420313)scale(0.1 -0.1)">
       <defs>
        <path id="Montserrat-Regular-37" d="M 3494 4480 
L 3494 4154 
L 1619 0 
L 1120 0 
L 2963 4070 
L 659 4070 
L 659 3232 
L 205 3232 
L 205 4480 
L 3494 4480 
z
" transform="scale(0.015625)"/>
       </defs>
       <use xlink:href="#Montserrat-Regular-31" transform="translate(0 0.76875)"/>
       <use xlink:href="#Montserrat-Regular-30" transform="translate(36.099991 0.76875)"/>
       <use xlink:href="#Montserrat-Regular-32" transform="translate(103.220378 37.584375)scale(0.7)"/>
       <use xlink:href="#Montserrat-Regular-37" transform="translate(142.98037 37.584375)scale(0.7)"/>
      </g>
     </g>
    </g>
    <g id="xtick_5">
     <g id="line2d_5">
      <g>
       <use xlink:href="#m2061396b08" x="297.681295" y="252" style="stroke: #000000; stroke-width: 0.8"/>
      </g>
     </g>
     <g id="text_5">
      <!-- $\mathdefault{10^{29}}$ -->
      <g transform="translate(288.231295 266.420313)scale(0.1 -0.1)">
       <defs>
        <path id="Montserrat-Regular-39" d="M 1728 4518 
Q 2618 4518 3091 3932 
Q 3565 3347 3565 2278 
Q 3565 1530 3309 1011 
Q 3053 493 2592 227 
Q 2131 -38 1517 -38 
Q 851 -38 454 205 
L 640 576 
Q 960 365 1510 365 
Q 2253 365 2675 835 
Q 3098 1306 3098 2202 
Q 3098 2368 3078 2566 
Q 2912 2202 2547 2000 
Q 2182 1798 1709 1798 
Q 1267 1798 924 1964 
Q 582 2131 390 2435 
Q 198 2739 198 3142 
Q 198 3552 396 3865 
Q 595 4179 944 4348 
Q 1293 4518 1728 4518 
z
M 1779 2189 
Q 2118 2189 2377 2317 
Q 2637 2445 2784 2669 
Q 2931 2893 2931 3168 
Q 2931 3424 2793 3641 
Q 2656 3859 2387 3993 
Q 2118 4128 1747 4128 
Q 1261 4128 957 3862 
Q 653 3597 653 3155 
Q 653 2714 957 2451 
Q 1261 2189 1779 2189 
z
" transform="scale(0.015625)"/>
       </defs>
       <use xlink:href="#Montserrat-Regular-31" transform="translate(0 0.76875)"/>
       <use xlink:href="#Montserrat-Regular-30" transform="translate(36.099991 0.76875)"/>
       <use xlink:href="#Montserrat-Regular-32" transform="translate(103.220378 37.584375)scale(0.7)"/>
       <use xlink:href="#Montserrat-Regular-39" transform="translate(142.98037 37.584375)scale(0.7)"/>
      </g>
     </g>
    </g>
    <g id="xtick_6">
     <g id="line2d_6">
      <g>
       <use xlink:href="#m2061396b08" x="348.450876" y="252" style="stroke: #000000; stroke-width: 0.8"/>
      </g>
     </g>
     <g id="text_6">
      <!-- $\mathdefault{10^{31}}$ -->
      <g transform="translate(339.900876 266.420313)scale(0.1 -0.1)">
       <use xlink:href="#Montserrat-Regular-31" transform="translate(0 0.184375)"/>
       <use xlink:href="#Montserrat-Regular-30" transform="translate(36.099991 0.184375)"/>
       <use xlink:href="#Montserrat-Regular-33" transform="translate(103.220378 37)scale(0.7)"/>
       <use xlink:href="#Montserrat-Regular-31" transform="translate(142.700374 37)scale(0.7)"/>
      </g>
     </g>
    </g>
    <g id="text_7">
     <!-- compute (FLOPs) -->
     <g transform="translate(177.399219 279.78125)scale(0.1 -0.1)">
      <defs>
       <path id="Montserrat-Regular-63" d="M 2029 -32 
Q 1530 -32 1136 185 
Q 742 403 518 796 
Q 294 1190 294 1683 
Q 294 2176 518 2566 
Q 742 2957 1136 3174 
Q 1530 3392 2029 3392 
Q 2464 3392 2806 3222 
Q 3149 3053 3347 2726 
L 3008 2496 
Q 2842 2746 2586 2870 
Q 2330 2995 2029 2995 
Q 1664 2995 1373 2832 
Q 1082 2669 918 2368 
Q 755 2067 755 1683 
Q 755 1293 918 995 
Q 1082 698 1373 534 
Q 1664 371 2029 371 
Q 2330 371 2586 492 
Q 2842 614 3008 864 
L 3347 634 
Q 3149 307 2803 137 
Q 2458 -32 2029 -32 
z
" transform="scale(0.015625)"/>
       <path id="Montserrat-Regular-6f" d="M 2010 -32 
Q 1523 -32 1132 189 
Q 742 410 518 800 
Q 294 1190 294 1683 
Q 294 2176 518 2566 
Q 742 2957 1132 3174 
Q 1523 3392 2010 3392 
Q 2496 3392 2886 3174 
Q 3277 2957 3497 2566 
Q 3718 2176 3718 1683 
Q 3718 1190 3497 800 
Q 3277 410 2886 189 
Q 2496 -32 2010 -32 
z
M 2010 371 
Q 2368 371 2653 534 
Q 2938 698 3098 998 
Q 3258 1299 3258 1683 
Q 3258 2067 3098 2368 
Q 2938 2669 2653 2832 
Q 2368 2995 2010 2995 
Q 1651 2995 1366 2832 
Q 1082 2669 918 2368 
Q 755 2067 755 1683 
Q 755 1299 918 998 
Q 1082 698 1366 534 
Q 1651 371 2010 371 
z
" transform="scale(0.015625)"/>
       <path id="Montserrat-Regular-6d" d="M 4832 3392 
Q 5466 3392 5827 3027 
Q 6189 2662 6189 1952 
L 6189 0 
L 5734 0 
L 5734 1907 
Q 5734 2432 5481 2707 
Q 5229 2982 4768 2982 
Q 4243 2982 3942 2659 
Q 3642 2336 3642 1766 
L 3642 0 
L 3187 0 
L 3187 1907 
Q 3187 2432 2934 2707 
Q 2682 2982 2214 2982 
Q 1696 2982 1392 2659 
Q 1088 2336 1088 1766 
L 1088 0 
L 634 0 
L 634 3366 
L 1069 3366 
L 1069 2752 
Q 1248 3059 1568 3225 
Q 1888 3392 2304 3392 
Q 2726 3392 3036 3213 
Q 3347 3034 3501 2682 
Q 3686 3014 4035 3203 
Q 4384 3392 4832 3392 
z
" transform="scale(0.015625)"/>
       <path id="Montserrat-Regular-70" d="M 2368 3392 
Q 2842 3392 3226 3177 
Q 3610 2963 3827 2572 
Q 4045 2182 4045 1683 
Q 4045 1178 3827 787 
Q 3610 397 3229 182 
Q 2848 -32 2368 -32 
Q 1958 -32 1628 137 
Q 1299 307 1088 634 
L 1088 -1242 
L 634 -1242 
L 634 3366 
L 1069 3366 
L 1069 2701 
Q 1274 3034 1610 3213 
Q 1946 3392 2368 3392 
z
M 2336 371 
Q 2688 371 2976 534 
Q 3264 698 3427 998 
Q 3590 1299 3590 1683 
Q 3590 2067 3427 2364 
Q 3264 2662 2976 2828 
Q 2688 2995 2336 2995 
Q 1978 2995 1693 2828 
Q 1408 2662 1245 2364 
Q 1082 2067 1082 1683 
Q 1082 1299 1245 998 
Q 1408 698 1693 534 
Q 1978 371 2336 371 
z
" transform="scale(0.015625)"/>
       <path id="Montserrat-Regular-75" d="M 3667 3366 
L 3667 0 
L 3232 0 
L 3232 614 
Q 3053 307 2739 137 
Q 2426 -32 2022 -32 
Q 1363 -32 982 336 
Q 602 704 602 1414 
L 602 3366 
L 1056 3366 
L 1056 1459 
Q 1056 928 1318 653 
Q 1581 378 2067 378 
Q 2598 378 2905 701 
Q 3213 1024 3213 1600 
L 3213 3366 
L 3667 3366 
z
" transform="scale(0.015625)"/>
       <path id="Montserrat-Regular-74" d="M 2406 205 
Q 2278 90 2089 29 
Q 1901 -32 1696 -32 
Q 1222 -32 966 224 
Q 710 480 710 947 
L 710 2982 
L 109 2982 
L 109 3366 
L 710 3366 
L 710 4102 
L 1165 4102 
L 1165 3366 
L 2189 3366 
L 2189 2982 
L 1165 2982 
L 1165 973 
Q 1165 672 1315 515 
Q 1466 358 1747 358 
Q 1888 358 2019 403 
Q 2150 448 2246 531 
L 2406 205 
z
" transform="scale(0.015625)"/>
       <path id="Montserrat-Regular-65" d="M 3565 1542 
L 749 1542 
Q 787 1018 1152 694 
Q 1517 371 2074 371 
Q 2387 371 2649 483 
Q 2912 595 3104 813 
L 3360 518 
Q 3136 250 2800 109 
Q 2464 -32 2061 -32 
Q 1542 -32 1142 189 
Q 742 410 518 800 
Q 294 1190 294 1683 
Q 294 2176 508 2566 
Q 723 2957 1097 3174 
Q 1472 3392 1939 3392 
Q 2406 3392 2777 3174 
Q 3149 2957 3360 2569 
Q 3571 2182 3571 1683 
L 3565 1542 
z
M 1939 3002 
Q 1453 3002 1123 2691 
Q 794 2381 749 1882 
L 3136 1882 
Q 3091 2381 2761 2691 
Q 2432 3002 1939 3002 
z
" transform="scale(0.015625)"/>
       <path id="Montserrat-Regular-20" transform="scale(0.015625)"/>
       <path id="Montserrat-Regular-28" d="M 1408 -1242 
Q 1050 -653 858 112 
Q 666 877 666 1754 
Q 666 2630 858 3401 
Q 1050 4173 1408 4749 
L 1843 4749 
Q 1466 4102 1290 3360 
Q 1114 2618 1114 1754 
Q 1114 890 1290 147 
Q 1466 -595 1843 -1242 
L 1408 -1242 
z
" transform="scale(0.015625)"/>
       <path id="Montserrat-Regular-46" d="M 1203 4070 
L 1203 2310 
L 3520 2310 
L 3520 1901 
L 1203 1901 
L 1203 0 
L 730 0 
L 730 4480 
L 3802 4480 
L 3802 4070 
L 1203 4070 
z
" transform="scale(0.015625)"/>
       <path id="Montserrat-Regular-4c" d="M 730 4480 
L 1203 4480 
L 1203 410 
L 3712 410 
L 3712 0 
L 730 0 
L 730 4480 
z
" transform="scale(0.015625)"/>
       <path id="Montserrat-Regular-4f" d="M 2688 -38 
Q 2022 -38 1481 259 
Q 941 557 637 1075 
Q 333 1594 333 2240 
Q 333 2886 637 3404 
Q 941 3923 1481 4220 
Q 2022 4518 2688 4518 
Q 3354 4518 3888 4224 
Q 4422 3930 4729 3408 
Q 5037 2886 5037 2240 
Q 5037 1594 4729 1072 
Q 4422 550 3888 256 
Q 3354 -38 2688 -38 
z
M 2688 384 
Q 3219 384 3648 624 
Q 4077 864 4320 1289 
Q 4563 1715 4563 2240 
Q 4563 2765 4320 3190 
Q 4077 3616 3648 3856 
Q 3219 4096 2688 4096 
Q 2157 4096 1725 3856 
Q 1293 3616 1046 3190 
Q 800 2765 800 2240 
Q 800 1715 1046 1289 
Q 1293 864 1725 624 
Q 2157 384 2688 384 
z
" transform="scale(0.015625)"/>
       <path id="Montserrat-Regular-50" d="M 2406 4480 
Q 3264 4480 3750 4070 
Q 4237 3661 4237 2944 
Q 4237 2227 3750 1820 
Q 3264 1414 2406 1414 
L 1203 1414 
L 1203 0 
L 730 0 
L 730 4480 
L 2406 4480 
z
M 2394 1830 
Q 3059 1830 3411 2121 
Q 3763 2413 3763 2944 
Q 3763 3488 3411 3779 
Q 3059 4070 2394 4070 
L 1203 4070 
L 1203 1830 
L 2394 1830 
z
" transform="scale(0.015625)"/>
       <path id="Montserrat-Regular-73" d="M 1536 -32 
Q 1126 -32 752 86 
Q 378 205 166 384 
L 371 742 
Q 582 576 902 470 
Q 1222 365 1568 365 
Q 2029 365 2249 509 
Q 2470 653 2470 915 
Q 2470 1101 2348 1206 
Q 2227 1312 2041 1366 
Q 1856 1421 1549 1472 
Q 1139 1549 889 1629 
Q 640 1709 464 1901 
Q 288 2093 288 2432 
Q 288 2854 640 3123 
Q 992 3392 1619 3392 
Q 1946 3392 2272 3305 
Q 2598 3219 2810 3078 
L 2611 2714 
Q 2195 3002 1619 3002 
Q 1184 3002 963 2848 
Q 742 2694 742 2445 
Q 742 2253 867 2137 
Q 992 2022 1177 1968 
Q 1363 1914 1690 1856 
Q 2093 1779 2336 1702 
Q 2579 1626 2752 1440 
Q 2925 1254 2925 928 
Q 2925 486 2557 227 
Q 2189 -32 1536 -32 
z
" transform="scale(0.015625)"/>
       <path id="Montserrat-Regular-29" d="M 256 -1242 
Q 634 -595 813 144 
Q 992 883 992 1754 
Q 992 2624 813 3363 
Q 634 4102 256 4749 
L 691 4749 
Q 1050 4173 1245 3401 
Q 1440 2630 1440 1754 
Q 1440 877 1248 109 
Q 1056 -659 691 -1242 
L 256 -1242 
z
" transform="scale(0.015625)"/>
      </defs>
      <use xlink:href="#Montserrat-Regular-63"/>
      <use xlink:href="#Montserrat-Regular-6f" x="56.299988"/>
      <use xlink:href="#Montserrat-Regular-6d" x="118.999985"/>
      <use xlink:href="#Montserrat-Regular-70" x="225.099976"/>
      <use xlink:href="#Montserrat-Regular-75" x="292.899963"/>
      <use xlink:href="#Montserrat-Regular-74" x="360.199951"/>
      <use xlink:href="#Montserrat-Regular-65" x="400.799942"/>
      <use xlink:href="#Montserrat-Regular-20" x="461.199936"/>
      <use xlink:href="#Montserrat-Regular-28" x="487.399933"/>
      <use xlink:href="#Montserrat-Regular-46" x="520.299927"/>
      <use xlink:href="#Montserrat-Regular-4c" x="583.599915"/>
      <use xlink:href="#Montserrat-Regular-4f" x="642.499908"/>
      <use xlink:href="#Montserrat-Regular-50" x="726.399902"/>
      <use xlink:href="#Montserrat-Regular-73" x="798.19989"/>
      <use xlink:href="#Montserrat-Regular-29" x="847.099884"/>
     </g>
    </g>
   </g>
   <g id="matplotlib.axis_2">
    <g id="ytick_1">
     <g id="line2d_7">
      <defs>
       <path id="m273493bfa7" d="M 0 0 
L -3.5 0 
" style="stroke: #000000; stroke-width: 0.8"/>
      </defs>
      <g>
       <use xlink:href="#m273493bfa7" x="54" y="237.504" style="stroke: #000000; stroke-width: 0.8"/>
      </g>
     </g>
     <g id="text_8">
      <!-- 0.0 -->
      <g transform="translate(31.639063 241.214156)scale(0.1 -0.1)">
       <defs>
        <path id="Montserrat-Regular-2e" d="M 678 -32 
Q 538 -32 438 70 
Q 339 173 339 320 
Q 339 467 438 566 
Q 538 666 678 666 
Q 819 666 921 566 
Q 1024 467 1024 320 
Q 1024 173 921 70 
Q 819 -32 678 -32 
z
" transform="scale(0.015625)"/>
       </defs>
       <use xlink:href="#Montserrat-Regular-30"/>
       <use xlink:href="#Montserrat-Regular-2e" x="66.199997"/>
       <use xlink:href="#Montserrat-Regular-30" x="87.399994"/>
      </g>
     </g>
    </g>
    <g id="ytick_2">
     <g id="line2d_8">
      <g>
       <use xlink:href="#m273493bfa7" x="54" y="201.264" style="stroke: #000000; stroke-width: 0.8"/>
      </g>
     </g>
     <g id="text_9">
      <!-- 0.1 -->
      <g transform="translate(34.65 204.974156)scale(0.1 -0.1)">
       <use xlink:href="#Montserrat-Regular-30"/>
       <use xlink:href="#Montserrat-Regular-2e" x="66.199997"/>
       <use xlink:href="#Montserrat-Regular-31" x="87.399994"/>
      </g>
     </g>
    </g>
    <g id="ytick_3">
     <g id="line2d_9">
      <g>
       <use xlink:href="#m273493bfa7" x="54" y="165.024" style="stroke: #000000; stroke-width: 0.8"/>
      </g>
     </g>
     <g id="text_10">
      <!-- 0.2 -->
      <g transform="translate(32.579687 168.734156)scale(0.1 -0.1)">
       <use xlink:href="#Montserrat-Regular-30"/>
       <use xlink:href="#Montserrat-Regular-2e" x="66.199997"/>
       <use xlink:href="#Montserrat-Regular-32" x="87.399994"/>
      </g>
     </g>
    </g>
    <g id="ytick_4">
     <g id="line2d_10">
      <g>
       <use xlink:href="#m273493bfa7" x="54" y="128.784" style="stroke: #000000; stroke-width: 0.8"/>
      </g>
     </g>
     <g id="text_11">
      <!-- 0.3 -->
      <g transform="translate(32.61875 132.494156)scale(0.1 -0.1)">
       <use xlink:href="#Montserrat-Regular-30"/>
       <use xlink:href="#Montserrat-Regular-2e" x="66.199997"/>
       <use xlink:href="#Montserrat-Regular-33" x="87.399994"/>
      </g>
     </g>
    </g>
    <g id="ytick_5">
     <g id="line2d_11">
      <g>
       <use xlink:href="#m273493bfa7" x="54" y="92.544" style="stroke: #000000; stroke-width: 0.8"/>
      </g>
     </g>
     <g id="text_12">
      <!-- 0.4 -->
      <g transform="translate(31.65 96.254156)scale(0.1 -0.1)">
       <defs>
        <path id="Montserrat-Regular-34" d="M 4141 1178 
L 3245 1178 
L 3245 0 
L 2784 0 
L 2784 1178 
L 256 1178 
L 256 1510 
L 2630 4480 
L 3142 4480 
L 851 1587 
L 2797 1587 
L 2797 2624 
L 3245 2624 
L 3245 1587 
L 4141 1587 
L 4141 1178 
z
" transform="scale(0.015625)"/>
       </defs>
       <use xlink:href="#Montserrat-Regular-30"/>
       <use xlink:href="#Montserrat-Regular-2e" x="66.199997"/>
       <use xlink:href="#Montserrat-Regular-34" x="87.399994"/>
      </g>
     </g>
    </g>
    <g id="ytick_6">
     <g id="line2d_12">
      <g>
       <use xlink:href="#m273493bfa7" x="54" y="56.304" style="stroke: #000000; stroke-width: 0.8"/>
      </g>
     </g>
     <g id="text_13">
      <!-- 0.5 -->
      <g transform="translate(32.6 60.014156)scale(0.1 -0.1)">
       <use xlink:href="#Montserrat-Regular-30"/>
       <use xlink:href="#Montserrat-Regular-2e" x="66.199997"/>
       <use xlink:href="#Montserrat-Regular-35" x="87.399994"/>
      </g>
     </g>
    </g>
    <g id="text_14">
     <!-- total error -->
     <g transform="translate(25.698438 168.249531)rotate(-90)scale(0.1 -0.1)">
      <defs>
       <path id="Montserrat-Regular-61" d="M 1811 3392 
Q 2470 3392 2822 3062 
Q 3174 2733 3174 2086 
L 3174 0 
L 2739 0 
L 2739 525 
Q 2586 262 2288 115 
Q 1990 -32 1581 -32 
Q 1018 -32 685 237 
Q 352 506 352 947 
Q 352 1376 662 1638 
Q 973 1901 1651 1901 
L 2720 1901 
L 2720 2106 
Q 2720 2541 2477 2768 
Q 2234 2995 1766 2995 
Q 1446 2995 1152 2889 
Q 858 2784 646 2598 
L 442 2938 
Q 698 3155 1056 3273 
Q 1414 3392 1811 3392 
z
M 1651 326 
Q 2035 326 2310 502 
Q 2586 678 2720 1011 
L 2720 1562 
L 1664 1562 
Q 800 1562 800 960 
Q 800 666 1024 496 
Q 1248 326 1651 326 
z
" transform="scale(0.015625)"/>
       <path id="Montserrat-Regular-6c" d="M 634 4749 
L 1088 4749 
L 1088 0 
L 634 0 
L 634 4749 
z
" transform="scale(0.015625)"/>
       <path id="Montserrat-Regular-72" d="M 1069 2707 
Q 1229 3046 1545 3219 
Q 1862 3392 2330 3392 
L 2330 2950 
L 2221 2957 
Q 1690 2957 1389 2630 
Q 1088 2304 1088 1715 
L 1088 0 
L 634 0 
L 634 3366 
L 1069 3366 
L 1069 2707 
z
" transform="scale(0.015625)"/>
      </defs>
      <use xlink:href="#Montserrat-Regular-74"/>
      <use xlink:href="#Montserrat-Regular-6f" x="40.599991"/>
      <use xlink:href="#Montserrat-Regular-74" x="103.299988"/>
      <use xlink:href="#Montserrat-Regular-61" x="143.899979"/>
      <use xlink:href="#Montserrat-Regular-6c" x="202.899963"/>
      <use xlink:href="#Montserrat-Regular-20" x="229.799957"/>
      <use xlink:href="#Montserrat-Regular-65" x="255.999954"/>
      <use xlink:href="#Montserrat-Regular-72" x="316.399948"/>
      <use xlink:href="#Montserrat-Regular-72" x="356.499939"/>
      <use xlink:href="#Montserrat-Regular-6f" x="396.59993"/>
      <use xlink:href="#Montserrat-Regular-72" x="459.299927"/>
     </g>
    </g>
   </g>
   <g id="line2d_13">
    <path d="M 96.557705 -1 
L 99.172234 10.426473 
L 101.964561 21.653274 
L 104.756888 31.95372 
L 107.549215 41.404247 
L 110.341542 50.074984 
L 113.133869 58.030274 
L 115.926196 65.329151 
L 118.718523 72.025776 
L 121.51085 78.169844 
L 124.303177 83.806948 
L 127.095504 88.978918 
L 130.141679 94.135597 
L 133.187854 98.829889 
L 136.234028 103.103255 
L 139.280203 106.993439 
L 142.326378 110.534799 
L 145.372553 113.758614 
L 148.672576 116.9257 
L 151.972598 119.786318 
L 155.526469 122.558199 
L 159.08034 125.04233 
L 162.888058 127.418459 
L 166.695777 129.531315 
L 170.757343 131.527648 
L 175.072758 133.391874 
L 179.64202 135.113191 
L 184.46513 136.685302 
L 189.542088 138.106003 
L 195.126742 139.43214 
L 201.219092 140.64073 
L 207.819137 141.717572 
L 215.180726 142.686429 
L 223.303859 143.52882 
L 232.696232 144.272949 
L 243.611692 144.906011 
L 256.557935 145.426703 
L 272.550353 145.83981 
L 293.619729 146.149424 
L 324.081477 146.355518 
L 373.581818 146.45902 
L 373.581818 146.45902 
" clip-path="url(#pad56becfac)" style="fill: none; stroke: #1f77b4; stroke-width: 1.5; stroke-linecap: square"/>
   </g>
   <g id="line2d_14">
    <defs>
     <path id="me2d29b6ef2" d="M 0 3 
C 0.795609 3 1.55874 2.683901 2.12132 2.12132 
C 2.683901 1.55874 3 0.795609 3 0 
C 3 -0.795609 2.683901 -1.55874 2.12132 -2.12132 
C 1.55874 -2.683901 0.795609 -3 0 -3 
C -0.795609 -3 -1.55874 -2.683901 -2.12132 -2.12132 
C -2.683901 -1.55874 -3 -0.795609 -3 0 
C -3 0.795609 -2.683901 1.55874 -2.12132 2.12132 
C -1.55874 2.683901 -0.795609 3 0 3 
z
" style="stroke: #1f77b4"/>
    </defs>
    <g clip-path="url(#pad56becfac)">
     <use xlink:href="#me2d29b6ef2" x="158.022062" y="124.330852" style="fill-opacity: 0; stroke: #1f77b4"/>
    </g>
   </g>
   <g id="line2d_15">
    <path d="M 102.705 -1 
L 105.264584 11.816912 
L 108.056911 24.691904 
L 110.849238 36.504544 
L 113.641565 47.342489 
L 116.433892 57.286165 
L 119.226219 66.40936 
L 122.018546 74.779774 
L 124.810873 82.459522 
L 127.6032 89.505592 
L 130.395527 95.970271 
L 133.187854 101.901531 
L 135.98018 107.343386 
L 138.772507 112.336218 
L 141.818682 117.314289 
L 144.864857 121.845987 
L 147.911032 125.971339 
L 150.957207 129.726781 
L 154.003382 133.145481 
L 157.303404 136.504024 
L 160.603427 139.537572 
L 163.90345 142.277574 
L 167.45732 144.932579 
L 171.011191 147.311969 
L 174.81891 149.587909 
L 178.626628 151.611677 
L 182.688195 153.523836 
L 187.003609 155.309458 
L 191.572871 156.958197 
L 196.395981 158.46402 
L 201.726787 159.887425 
L 207.311441 161.147741 
L 213.403791 162.296344 
L 220.257684 163.35509 
L 227.873122 164.296631 
L 236.250102 165.106363 
L 245.896323 165.813175 
L 257.319478 166.418901 
L 271.027265 166.913374 
L 288.288923 167.301297 
L 311.389082 167.582492 
L 346.166245 167.76055 
L 373.581818 167.813395 
L 373.581818 167.813395 
" clip-path="url(#pad56becfac)" style="fill: none; stroke: #ff7f0e; stroke-width: 1.5; stroke-linecap: square"/>
   </g>
   <g id="line2d_16">
    <defs>
     <path id="m6ca90ca749" d="M 0 3 
C 0.795609 3 1.55874 2.683901 2.12132 2.12132 
C 2.683901 1.55874 3 0.795609 3 0 
C 3 -0.795609 2.683901 -1.55874 2.12132 -2.12132 
C 1.55874 -2.683901 0.795609 -3 0 -3 
C -0.795609 -3 -1.55874 -2.683901 -2.12132 -2.12132 
C -2.683901 -1.55874 -3 -0.795609 -3 0 
C -3 0.795609 -2.683901 1.55874 -2.12132 2.12132 
C -1.55874 2.683901 -0.795609 3 0 3 
z
" style="stroke: #ff7f0e"/>
    </defs>
    <g clip-path="url(#pad56becfac)">
     <use xlink:href="#m6ca90ca749" x="180.978265" y="152.7479" style="fill-opacity: 0; stroke: #ff7f0e"/>
    </g>
   </g>
   <g id="line2d_17">
    <path d="M 107.193603 -1 
L 109.833846 13.028275 
L 112.626173 26.671541 
L 115.4185 39.189062 
L 118.210827 50.673726 
L 121.003154 61.210759 
L 123.795481 70.878351 
L 126.587808 79.748243 
L 129.380135 87.886255 
L 132.172462 95.352777 
L 134.964789 102.203215 
L 137.757116 108.488403 
L 140.549443 114.254984 
L 143.34177 119.545747 
L 146.134097 124.399954 
L 149.180271 129.23981 
L 152.226446 133.645687 
L 155.272621 137.6565 
L 158.318796 141.307673 
L 161.364971 144.631453 
L 164.664994 147.896747 
L 167.965016 150.846069 
L 171.265039 153.509996 
L 174.81891 156.091286 
L 178.37278 158.404612 
L 182.180499 160.617361 
L 186.242065 162.708079 
L 190.303632 164.552649 
L 194.619046 166.275156 
L 199.188308 167.865618 
L 204.265267 169.388846 
L 209.596072 170.75123 
L 215.434574 172.007567 
L 221.780772 173.139509 
L 228.634665 174.137125 
L 236.50395 175.050436 
L 245.388627 175.84736 
L 255.542543 176.527072 
L 267.473394 177.096103 
L 281.942725 177.55664 
L 300.473622 177.913098 
L 325.858412 178.164128 
L 365.966381 178.314128 
L 373.581818 178.326969 
L 373.581818 178.326969 
" clip-path="url(#pad56becfac)" style="fill: none; stroke: #2ca02c; stroke-width: 1.5; stroke-linecap: square"/>
   </g>
   <g id="line2d_18">
    <defs>
     <path id="m98c340e6dd" d="M 0 3 
C 0.795609 3 1.55874 2.683901 2.12132 2.12132 
C 2.683901 1.55874 3 0.795609 3 0 
C 3 -0.795609 2.683901 -1.55874 2.12132 -2.12132 
C 1.55874 -2.683901 0.795609 -3 0 -3 
C -0.795609 -3 -1.55874 -2.683901 -2.12132 -2.12132 
C -2.683901 -1.55874 -3 -0.795609 -3 0 
C -3 0.795609 -2.683901 1.55874 -2.12132 2.12132 
C -1.55874 2.683901 -0.795609 3 0 3 
z
" style="stroke: #2ca02c"/>
    </defs>
    <g clip-path="url(#pad56becfac)">
     <use xlink:href="#m98c340e6dd" x="164.903035" y="148.119681" style="fill-opacity: 0; stroke: #2ca02c"/>
    </g>
   </g>
   <g id="line2d_19">
    <path d="M 127.859704 -1 
L 130.649374 16.103639 
L 133.441701 31.811546 
L 136.234028 46.223349 
L 139.026355 59.445994 
L 141.818682 71.577601 
L 144.611009 82.708194 
L 147.403336 92.920371 
L 150.195663 102.289912 
L 152.98799 110.886346 
L 155.780317 118.773464 
L 158.572644 126.009793 
L 161.364971 132.649033 
L 164.157298 138.74045 
L 166.949625 144.329247 
L 169.741952 149.456896 
L 172.788126 154.569385 
L 175.834301 159.22345 
L 178.880476 163.460195 
L 181.926651 167.317042 
L 184.972826 170.828055 
L 188.272849 174.277285 
L 191.572871 177.392746 
L 194.872894 180.206733 
L 198.426765 182.93343 
L 201.980635 185.377068 
L 205.788354 187.714464 
L 209.596072 189.792879 
L 213.657639 191.75667 
L 217.973053 193.590507 
L 222.542316 195.283766 
L 227.365426 196.830249 
L 232.442384 198.227792 
L 238.027038 199.532312 
L 244.119387 200.721201 
L 250.719433 201.78049 
L 258.081022 202.733553 
L 266.458003 203.584912 
L 275.850375 204.311202 
L 286.765835 204.929089 
L 299.965926 205.445374 
L 316.46604 205.855182 
L 338.043112 206.15537 
L 369.520252 206.352628 
L 373.581818 206.366789 
L 373.581818 206.366789 
" clip-path="url(#pad56becfac)" style="fill: none; stroke: #d62728; stroke-width: 1.5; stroke-linecap: square"/>
   </g>
   <g id="line2d_20">
    <path d="M 151.018337 -1 
L 153.749534 16.952294 
L 156.541861 33.806889 
L 159.334188 49.270764 
L 162.126515 63.458671 
L 164.918841 76.475893 
L 167.711168 88.419028 
L 170.503495 99.376701 
L 173.295822 109.430225 
L 176.088149 118.654204 
L 178.880476 127.117087 
L 181.672803 134.881674 
L 184.46513 142.005582 
L 187.257457 148.541677 
L 190.049784 154.538459 
L 192.842111 160.040431 
L 195.634438 165.088419 
L 198.680613 170.121482 
L 201.726787 174.703243 
L 204.772962 178.874168 
L 207.819137 182.671096 
L 210.865312 186.127563 
L 214.165335 189.523208 
L 217.465357 192.590267 
L 220.76538 195.360538 
L 224.319251 198.044874 
L 227.873122 200.450548 
L 231.68084 202.751631 
L 235.488559 204.797756 
L 239.550125 206.731039 
L 243.865539 208.536386 
L 248.434802 210.203339 
L 253.257912 211.725797 
L 258.588718 213.164926 
L 264.173372 214.439165 
L 270.265721 215.600457 
L 277.119615 216.670899 
L 284.735052 217.622841 
L 293.112033 218.441518 
L 302.758253 219.156138 
L 313.927561 219.757159 
L 327.3815 220.253498 
L 344.389309 220.647441 
L 366.981773 220.934077 
L 373.581818 220.986487 
L 373.581818 220.986487 
" clip-path="url(#pad56becfac)" style="fill: none; stroke: #9467bd; stroke-width: 1.5; stroke-linecap: square"/>
   </g>
   <g id="line2d_21">
    <path d="M 175.293092 -1 
L 177.865085 16.536623 
L 180.657411 34.064057 
L 183.449738 50.145252 
L 186.242065 64.899542 
L 189.034392 78.436414 
L 191.826719 90.856321 
L 194.619046 102.251426 
L 197.411373 112.706288 
L 200.2037 122.29849 
L 202.996027 131.099213 
L 205.788354 139.173763 
L 208.580681 146.582059 
L 211.373008 153.379075 
L 214.165335 159.615251 
L 216.957662 165.336862 
L 219.749989 170.586367 
L 222.542316 175.40272 
L 225.58849 180.204833 
L 228.634665 184.576352 
L 231.68084 188.555888 
L 234.727015 192.178588 
L 237.77319 195.476449 
L 241.073213 198.716279 
L 244.373235 201.642602 
L 247.673258 204.285755 
L 251.227129 206.846915 
L 254.780999 209.142202 
L 258.588718 211.337695 
L 262.650284 213.412109 
L 266.711851 215.242295 
L 271.027265 216.951369 
L 275.596527 218.529428 
L 280.673485 220.040778 
L 286.004291 221.392538 
L 291.842793 222.639077 
L 298.188991 223.762193 
L 305.296732 224.784823 
L 313.166017 225.683945 
L 322.050694 226.468489 
L 332.20461 227.13764 
L 344.389309 227.707654 
L 359.112488 228.163737 
L 373.581818 228.449406 
L 373.581818 228.449406 
" clip-path="url(#pad56becfac)" style="fill: none; stroke: #8c564b; stroke-width: 1.5; stroke-linecap: square"/>
   </g>
   <g id="line2d_22">
    <path d="M 200.110335 -1 
L 202.742179 17.245769 
L 205.534506 35.049799 
L 208.326833 51.384769 
L 211.11916 66.371894 
L 213.911487 80.122389 
L 216.703814 92.738291 
L 219.496141 104.31322 
L 222.288468 114.933069 
L 225.080795 124.676643 
L 227.873122 133.616248 
L 230.665448 141.818221 
L 233.457775 149.343426 
L 236.250102 156.247705 
L 239.042429 162.582292 
L 241.834756 168.394195 
L 244.627083 173.726541 
L 247.41941 178.6189 
L 250.465585 183.496794 
L 253.51176 187.9373 
L 256.557935 191.979636 
L 259.604109 195.659505 
L 262.650284 199.009409 
L 265.950307 202.300366 
L 269.25033 205.272869 
L 272.550353 207.957732 
L 276.104223 210.55931 
L 279.658094 212.890818 
L 283.465812 215.120958 
L 287.527379 217.228108 
L 291.588945 219.087176 
L 295.90436 220.82322 
L 300.473622 222.426182 
L 305.296732 223.890197 
L 310.627538 225.274081 
L 316.46604 226.550243 
L 322.812237 227.700049 
L 329.666131 228.713408 
L 337.281568 229.614586 
L 345.912397 230.410107 
L 355.812465 231.09645 
L 367.489468 231.677741 
L 373.581818 231.907431 
L 373.581818 231.907431 
" clip-path="url(#pad56becfac)" style="fill: none; stroke: #e377c2; stroke-width: 1.5; stroke-linecap: square"/>
   </g>
   <g id="line2d_23">
    <path clip-path="url(#pad56becfac)" style="fill: none; stroke: #000000; stroke-width: 1.5; stroke-linecap: square"/>
   </g>
   <g id="patch_3">
    <path d="M 54 252 
L 388.8 252 
" style="fill: none; stroke: #000000; stroke-width: 0.8; stroke-linejoin: miter; stroke-linecap: square"/>
   </g>
   <g id="text_15">
    <a xlink:href="https://dynomight.net">
     <!-- dynomight.net -->
     <g style="opacity: 0.25" transform="translate(297.681295 284.616)scale(0.1 -0.1)">
      <defs>
       <path id="DejaVuSansMono-64" d="M 2681 3053 
L 2681 4863 
L 3256 4863 
L 3256 0 
L 2681 0 
L 2681 441 
Q 2538 181 2298 45 
Q 2059 -91 1747 -91 
Q 1113 -91 748 401 
Q 384 894 384 1759 
Q 384 2613 750 3098 
Q 1116 3584 1747 3584 
Q 2063 3584 2303 3448 
Q 2544 3313 2681 3053 
z
M 991 1747 
Q 991 1078 1203 737 
Q 1416 397 1831 397 
Q 2247 397 2464 740 
Q 2681 1084 2681 1747 
Q 2681 2413 2464 2755 
Q 2247 3097 1831 3097 
Q 1416 3097 1203 2756 
Q 991 2416 991 1747 
z
" transform="scale(0.015625)"/>
       <path id="DejaVuSansMono-79" d="M 2681 1125 
Q 2538 759 2316 163 
Q 2006 -663 1900 -844 
Q 1756 -1088 1540 -1209 
Q 1325 -1331 1038 -1331 
L 575 -1331 
L 575 -850 
L 916 -850 
Q 1169 -850 1312 -703 
Q 1456 -556 1678 56 
L 325 3500 
L 934 3500 
L 1972 763 
L 2994 3500 
L 3603 3500 
L 2681 1125 
z
" transform="scale(0.015625)"/>
       <path id="DejaVuSansMono-6e" d="M 3284 2169 
L 3284 0 
L 2706 0 
L 2706 2169 
Q 2706 2641 2540 2862 
Q 2375 3084 2022 3084 
Q 1619 3084 1401 2798 
Q 1184 2513 1184 1978 
L 1184 0 
L 609 0 
L 609 3500 
L 1184 3500 
L 1184 2975 
Q 1338 3275 1600 3429 
Q 1863 3584 2222 3584 
Q 2756 3584 3020 3232 
Q 3284 2881 3284 2169 
z
" transform="scale(0.015625)"/>
       <path id="DejaVuSansMono-6f" d="M 1925 3097 
Q 1488 3097 1263 2756 
Q 1038 2416 1038 1747 
Q 1038 1081 1263 739 
Q 1488 397 1925 397 
Q 2366 397 2591 739 
Q 2816 1081 2816 1747 
Q 2816 2416 2591 2756 
Q 2366 3097 1925 3097 
z
M 1925 3584 
Q 2653 3584 3039 3112 
Q 3425 2641 3425 1747 
Q 3425 850 3040 379 
Q 2656 -91 1925 -91 
Q 1197 -91 812 379 
Q 428 850 428 1747 
Q 428 2641 812 3112 
Q 1197 3584 1925 3584 
z
" transform="scale(0.015625)"/>
       <path id="DejaVuSansMono-6d" d="M 2113 3144 
Q 2219 3369 2383 3476 
Q 2547 3584 2778 3584 
Q 3200 3584 3373 3257 
Q 3547 2931 3547 2028 
L 3547 0 
L 3022 0 
L 3022 2003 
Q 3022 2744 2939 2923 
Q 2856 3103 2638 3103 
Q 2388 3103 2295 2911 
Q 2203 2719 2203 2003 
L 2203 0 
L 1678 0 
L 1678 2003 
Q 1678 2753 1589 2928 
Q 1500 3103 1269 3103 
Q 1041 3103 952 2911 
Q 863 2719 863 2003 
L 863 0 
L 341 0 
L 341 3500 
L 863 3500 
L 863 3200 
Q 966 3388 1120 3486 
Q 1275 3584 1472 3584 
Q 1709 3584 1867 3475 
Q 2025 3366 2113 3144 
z
" transform="scale(0.015625)"/>
       <path id="DejaVuSansMono-69" d="M 800 3500 
L 2272 3500 
L 2272 447 
L 3413 447 
L 3413 0 
L 556 0 
L 556 447 
L 1697 447 
L 1697 3053 
L 800 3053 
L 800 3500 
z
M 1697 4863 
L 2272 4863 
L 2272 4134 
L 1697 4134 
L 1697 4863 
z
" transform="scale(0.015625)"/>
       <path id="DejaVuSansMono-67" d="M 2681 1778 
Q 2681 2425 2470 2761 
Q 2259 3097 1856 3097 
Q 1434 3097 1212 2761 
Q 991 2425 991 1778 
Q 991 1131 1214 792 
Q 1438 453 1863 453 
Q 2259 453 2470 793 
Q 2681 1134 2681 1778 
z
M 3256 225 
Q 3256 -563 2884 -969 
Q 2513 -1375 1791 -1375 
Q 1553 -1375 1293 -1331 
Q 1034 -1288 775 -1203 
L 775 -634 
Q 1081 -778 1331 -847 
Q 1581 -916 1791 -916 
Q 2256 -916 2468 -662 
Q 2681 -409 2681 141 
L 2681 166 
L 2681 556 
Q 2544 263 2306 119 
Q 2069 -25 1728 -25 
Q 1116 -25 750 465 
Q 384 956 384 1778 
Q 384 2603 750 3093 
Q 1116 3584 1728 3584 
Q 2066 3584 2300 3450 
Q 2534 3316 2681 3034 
L 2681 3488 
L 3256 3488 
L 3256 225 
z
" transform="scale(0.015625)"/>
       <path id="DejaVuSansMono-68" d="M 3284 2169 
L 3284 0 
L 2706 0 
L 2706 2169 
Q 2706 2641 2540 2862 
Q 2375 3084 2022 3084 
Q 1619 3084 1401 2798 
Q 1184 2513 1184 1978 
L 1184 0 
L 609 0 
L 609 4863 
L 1184 4863 
L 1184 2975 
Q 1338 3275 1600 3429 
Q 1863 3584 2222 3584 
Q 2756 3584 3020 3232 
Q 3284 2881 3284 2169 
z
" transform="scale(0.015625)"/>
       <path id="DejaVuSansMono-74" d="M 1919 4494 
L 1919 3500 
L 3225 3500 
L 3225 3053 
L 1919 3053 
L 1919 1153 
Q 1919 766 2066 612 
Q 2213 459 2578 459 
L 3225 459 
L 3225 0 
L 2522 0 
Q 1875 0 1609 259 
Q 1344 519 1344 1153 
L 1344 3053 
L 409 3053 
L 409 3500 
L 1344 3500 
L 1344 4494 
L 1919 4494 
z
" transform="scale(0.015625)"/>
       <path id="DejaVuSansMono-2e" d="M 1528 953 
L 2316 953 
L 2316 0 
L 1528 0 
L 1528 953 
z
" transform="scale(0.015625)"/>
       <path id="DejaVuSansMono-65" d="M 3475 1894 
L 3475 1613 
L 984 1613 
L 984 1594 
Q 984 1022 1282 709 
Q 1581 397 2125 397 
Q 2400 397 2700 484 
Q 3000 572 3341 750 
L 3341 178 
Q 3013 44 2708 -23 
Q 2403 -91 2119 -91 
Q 1303 -91 843 398 
Q 384 888 384 1747 
Q 384 2584 834 3084 
Q 1284 3584 2034 3584 
Q 2703 3584 3089 3131 
Q 3475 2678 3475 1894 
z
M 2900 2063 
Q 2888 2569 2661 2833 
Q 2434 3097 2009 3097 
Q 1594 3097 1325 2822 
Q 1056 2547 1006 2059 
L 2900 2063 
z
" transform="scale(0.015625)"/>
      </defs>
      <use xlink:href="#DejaVuSansMono-64"/>
      <use xlink:href="#DejaVuSansMono-79" x="60.205078"/>
      <use xlink:href="#DejaVuSansMono-6e" x="120.410156"/>
      <use xlink:href="#DejaVuSansMono-6f" x="180.615234"/>
      <use xlink:href="#DejaVuSansMono-6d" x="240.820312"/>
      <use xlink:href="#DejaVuSansMono-69" x="301.025391"/>
      <use xlink:href="#DejaVuSansMono-67" x="361.230469"/>
      <use xlink:href="#DejaVuSansMono-68" x="421.435547"/>
      <use xlink:href="#DejaVuSansMono-74" x="481.640625"/>
      <use xlink:href="#DejaVuSansMono-2e" x="541.845703"/>
      <use xlink:href="#DejaVuSansMono-6e" x="602.050781"/>
      <use xlink:href="#DejaVuSansMono-65" x="662.255859"/>
      <use xlink:href="#DejaVuSansMono-74" x="722.460938"/>
     </g>
    </a>
   </g>
   <g id="text_16">
    <!-- How much does more compute help with limited data? -->
    <g transform="translate(53.769375 28.56)scale(0.12 -0.12)">
     <defs>
      <path id="Montserrat-Regular-48" d="M 4474 4480 
L 4474 0 
L 4006 0 
L 4006 2067 
L 1203 2067 
L 1203 0 
L 730 0 
L 730 4480 
L 1203 4480 
L 1203 2483 
L 4006 2483 
L 4006 4480 
L 4474 4480 
z
" transform="scale(0.015625)"/>
      <path id="Montserrat-Regular-77" d="M 5574 3366 
L 4301 0 
L 3872 0 
L 2810 2758 
L 1747 0 
L 1318 0 
L 51 3366 
L 486 3366 
L 1542 506 
L 2624 3366 
L 3014 3366 
L 4090 506 
L 5158 3366 
L 5574 3366 
z
" transform="scale(0.015625)"/>
      <path id="Montserrat-Regular-68" d="M 2349 3392 
Q 2982 3392 3356 3024 
Q 3731 2656 3731 1952 
L 3731 0 
L 3277 0 
L 3277 1907 
Q 3277 2432 3014 2707 
Q 2752 2982 2266 2982 
Q 1722 2982 1405 2659 
Q 1088 2336 1088 1766 
L 1088 0 
L 634 0 
L 634 4749 
L 1088 4749 
L 1088 2778 
Q 1274 3072 1600 3232 
Q 1926 3392 2349 3392 
z
" transform="scale(0.015625)"/>
      <path id="Montserrat-Regular-64" d="M 3706 4749 
L 3706 0 
L 3270 0 
L 3270 666 
Q 3066 326 2730 147 
Q 2394 -32 1971 -32 
Q 1498 -32 1114 185 
Q 730 403 512 793 
Q 294 1184 294 1683 
Q 294 2182 512 2572 
Q 730 2963 1114 3177 
Q 1498 3392 1971 3392 
Q 2381 3392 2710 3222 
Q 3040 3053 3251 2726 
L 3251 4749 
L 3706 4749 
z
M 2010 371 
Q 2362 371 2646 534 
Q 2931 698 3094 998 
Q 3258 1299 3258 1683 
Q 3258 2067 3094 2368 
Q 2931 2669 2646 2832 
Q 2362 2995 2010 2995 
Q 1651 2995 1366 2832 
Q 1082 2669 918 2368 
Q 755 2067 755 1683 
Q 755 1299 918 998 
Q 1082 698 1366 534 
Q 1651 371 2010 371 
z
" transform="scale(0.015625)"/>
      <path id="Montserrat-Regular-69" d="M 634 3366 
L 1088 3366 
L 1088 0 
L 634 0 
L 634 3366 
z
M 864 4102 
Q 723 4102 627 4198 
Q 531 4294 531 4429 
Q 531 4557 627 4653 
Q 723 4749 864 4749 
Q 1005 4749 1101 4656 
Q 1197 4563 1197 4435 
Q 1197 4294 1101 4198 
Q 1005 4102 864 4102 
z
" transform="scale(0.015625)"/>
      <path id="Montserrat-Regular-3f" d="M 1504 1344 
Q 1504 1606 1590 1804 
Q 1677 2003 1805 2144 
Q 1933 2285 2138 2464 
Q 2413 2707 2544 2889 
Q 2675 3072 2675 3334 
Q 2675 3686 2400 3900 
Q 2125 4115 1645 4115 
Q 851 4115 422 3597 
L 83 3853 
Q 627 4518 1677 4518 
Q 2349 4518 2749 4217 
Q 3149 3917 3149 3405 
Q 3149 3142 3062 2940 
Q 2976 2739 2851 2598 
Q 2726 2458 2522 2272 
Q 2246 2022 2112 1827 
Q 1978 1632 1978 1344 
L 1504 1344 
z
M 1741 -32 
Q 1600 -32 1504 67 
Q 1408 166 1408 301 
Q 1408 442 1504 534 
Q 1600 627 1741 627 
Q 1888 627 1984 534 
Q 2080 442 2080 301 
Q 2080 166 1981 67 
Q 1882 -32 1741 -32 
z
" transform="scale(0.015625)"/>
     </defs>
     <use xlink:href="#Montserrat-Regular-48"/>
     <use xlink:href="#Montserrat-Regular-6f" x="81.299988"/>
     <use xlink:href="#Montserrat-Regular-77" x="143.999985"/>
     <use xlink:href="#Montserrat-Regular-20" x="231.899979"/>
     <use xlink:href="#Montserrat-Regular-6d" x="258.099976"/>
     <use xlink:href="#Montserrat-Regular-75" x="364.199966"/>
     <use xlink:href="#Montserrat-Regular-63" x="431.499954"/>
     <use xlink:href="#Montserrat-Regular-68" x="487.799942"/>
     <use xlink:href="#Montserrat-Regular-20" x="555.499924"/>
     <use xlink:href="#Montserrat-Regular-64" x="581.699921"/>
     <use xlink:href="#Montserrat-Regular-6f" x="649.499908"/>
     <use xlink:href="#Montserrat-Regular-65" x="712.199905"/>
     <use xlink:href="#Montserrat-Regular-73" x="772.599899"/>
     <use xlink:href="#Montserrat-Regular-20" x="821.499893"/>
     <use xlink:href="#Montserrat-Regular-6d" x="847.69989"/>
     <use xlink:href="#Montserrat-Regular-6f" x="953.799881"/>
     <use xlink:href="#Montserrat-Regular-72" x="1016.499878"/>
     <use xlink:href="#Montserrat-Regular-65" x="1056.599869"/>
     <use xlink:href="#Montserrat-Regular-20" x="1116.999863"/>
     <use xlink:href="#Montserrat-Regular-63" x="1143.19986"/>
     <use xlink:href="#Montserrat-Regular-6f" x="1199.499847"/>
     <use xlink:href="#Montserrat-Regular-6d" x="1262.199844"/>
     <use xlink:href="#Montserrat-Regular-70" x="1368.299835"/>
     <use xlink:href="#Montserrat-Regular-75" x="1436.099823"/>
     <use xlink:href="#Montserrat-Regular-74" x="1503.399811"/>
     <use xlink:href="#Montserrat-Regular-65" x="1543.999802"/>
     <use xlink:href="#Montserrat-Regular-20" x="1604.399796"/>
     <use xlink:href="#Montserrat-Regular-68" x="1630.599792"/>
     <use xlink:href="#Montserrat-Regular-65" x="1698.299774"/>
     <use xlink:href="#Montserrat-Regular-6c" x="1758.699768"/>
     <use xlink:href="#Montserrat-Regular-70" x="1785.599762"/>
     <use xlink:href="#Montserrat-Regular-20" x="1853.39975"/>
     <use xlink:href="#Montserrat-Regular-77" x="1879.599747"/>
     <use xlink:href="#Montserrat-Regular-69" x="1967.499741"/>
     <use xlink:href="#Montserrat-Regular-74" x="1994.399734"/>
     <use xlink:href="#Montserrat-Regular-68" x="2034.999725"/>
     <use xlink:href="#Montserrat-Regular-20" x="2102.699707"/>
     <use xlink:href="#Montserrat-Regular-6c" x="2128.899704"/>
     <use xlink:href="#Montserrat-Regular-69" x="2155.799698"/>
     <use xlink:href="#Montserrat-Regular-6d" x="2182.699692"/>
     <use xlink:href="#Montserrat-Regular-69" x="2288.799683"/>
     <use xlink:href="#Montserrat-Regular-74" x="2315.699677"/>
     <use xlink:href="#Montserrat-Regular-65" x="2356.299667"/>
     <use xlink:href="#Montserrat-Regular-64" x="2416.699661"/>
     <use xlink:href="#Montserrat-Regular-20" x="2484.499649"/>
     <use xlink:href="#Montserrat-Regular-64" x="2510.699646"/>
     <use xlink:href="#Montserrat-Regular-61" x="2578.499634"/>
     <use xlink:href="#Montserrat-Regular-74" x="2637.499619"/>
     <use xlink:href="#Montserrat-Regular-61" x="2678.099609"/>
     <use xlink:href="#Montserrat-Regular-3f" x="2737.099594"/>
    </g>
   </g>
   <g id="legend_1">
    <g id="line2d_24">
     <path d="M 238.064063 47.480312 
L 248.064063 47.480312 
L 258.064062 47.480312 
" style="fill: none; stroke: #1f77b4; stroke-width: 1.5; stroke-linecap: square"/>
    </g>
    <g id="text_17">
     <!-- 300B tokens (GPT-3) -->
     <g transform="translate(266.064062 50.980312)scale(0.1 -0.1)">
      <defs>
       <path id="Montserrat-Regular-42" d="M 3552 2310 
Q 3994 2214 4234 1929 
Q 4474 1645 4474 1197 
Q 4474 621 4048 310 
Q 3622 0 2790 0 
L 730 0 
L 730 4480 
L 2662 4480 
Q 3411 4480 3824 4179 
Q 4237 3878 4237 3328 
Q 4237 2957 4054 2697 
Q 3872 2438 3552 2310 
z
M 1203 4090 
L 1203 2464 
L 2630 2464 
Q 3174 2464 3468 2672 
Q 3763 2880 3763 3277 
Q 3763 3674 3468 3882 
Q 3174 4090 2630 4090 
L 1203 4090 
z
M 2784 390 
Q 3386 390 3693 595 
Q 4000 800 4000 1235 
Q 4000 2074 2784 2074 
L 1203 2074 
L 1203 390 
L 2784 390 
z
" transform="scale(0.015625)"/>
       <path id="Montserrat-Regular-6b" d="M 1882 1690 
L 1088 960 
L 1088 0 
L 634 0 
L 634 4749 
L 1088 4749 
L 1088 1530 
L 3098 3366 
L 3661 3366 
L 2221 1990 
L 3795 0 
L 3238 0 
L 1882 1690 
z
" transform="scale(0.015625)"/>
       <path id="Montserrat-Regular-6e" d="M 2349 3392 
Q 2982 3392 3356 3024 
Q 3731 2656 3731 1952 
L 3731 0 
L 3277 0 
L 3277 1907 
Q 3277 2432 3014 2707 
Q 2752 2982 2266 2982 
Q 1722 2982 1405 2659 
Q 1088 2336 1088 1766 
L 1088 0 
L 634 0 
L 634 3366 
L 1069 3366 
L 1069 2746 
Q 1254 3053 1584 3222 
Q 1914 3392 2349 3392 
z
" transform="scale(0.015625)"/>
       <path id="Montserrat-Regular-47" d="M 3885 2240 
L 4339 2240 
L 4339 531 
Q 4026 256 3597 109 
Q 3168 -38 2694 -38 
Q 2022 -38 1484 256 
Q 947 550 640 1072 
Q 333 1594 333 2240 
Q 333 2886 640 3408 
Q 947 3930 1484 4224 
Q 2022 4518 2701 4518 
Q 3213 4518 3641 4355 
Q 4070 4192 4365 3872 
L 4070 3571 
Q 3539 4096 2720 4096 
Q 2176 4096 1737 3856 
Q 1299 3616 1049 3190 
Q 800 2765 800 2240 
Q 800 1715 1049 1292 
Q 1299 870 1734 627 
Q 2170 384 2714 384 
Q 3405 384 3885 730 
L 3885 2240 
z
" transform="scale(0.015625)"/>
       <path id="Montserrat-Regular-54" d="M 1600 4070 
L 26 4070 
L 26 4480 
L 3648 4480 
L 3648 4070 
L 2074 4070 
L 2074 0 
L 1600 0 
L 1600 4070 
z
" transform="scale(0.015625)"/>
       <path id="Montserrat-Regular-2d" d="M 384 1933 
L 2061 1933 
L 2061 1536 
L 384 1536 
L 384 1933 
z
" transform="scale(0.015625)"/>
      </defs>
      <use xlink:href="#Montserrat-Regular-33"/>
      <use xlink:href="#Montserrat-Regular-30" x="56.399994"/>
      <use xlink:href="#Montserrat-Regular-30" x="122.599991"/>
      <use xlink:href="#Montserrat-Regular-42" x="188.799988"/>
      <use xlink:href="#Montserrat-Regular-20" x="264.199982"/>
      <use xlink:href="#Montserrat-Regular-74" x="290.399979"/>
      <use xlink:href="#Montserrat-Regular-6f" x="330.999969"/>
      <use xlink:href="#Montserrat-Regular-6b" x="393.699966"/>
      <use xlink:href="#Montserrat-Regular-65" x="453.799957"/>
      <use xlink:href="#Montserrat-Regular-6e" x="514.199951"/>
      <use xlink:href="#Montserrat-Regular-73" x="581.899933"/>
      <use xlink:href="#Montserrat-Regular-20" x="630.799927"/>
      <use xlink:href="#Montserrat-Regular-28" x="656.999924"/>
      <use xlink:href="#Montserrat-Regular-47" x="689.899918"/>
      <use xlink:href="#Montserrat-Regular-50" x="767.199905"/>
      <use xlink:href="#Montserrat-Regular-54" x="838.999893"/>
      <use xlink:href="#Montserrat-Regular-2d" x="896.399887"/>
      <use xlink:href="#Montserrat-Regular-33" x="934.599884"/>
      <use xlink:href="#Montserrat-Regular-29" x="990.999878"/>
     </g>
    </g>
    <g id="line2d_25">
     <path d="M 238.064063 61.84125 
L 248.064063 61.84125 
L 258.064062 61.84125 
" style="fill: none; stroke: #ff7f0e; stroke-width: 1.5; stroke-linecap: square"/>
    </g>
    <g id="text_18">
     <!-- 780B tokens (PaLM) -->
     <g transform="translate(266.064062 65.34125)scale(0.1 -0.1)">
      <defs>
       <path id="Montserrat-Regular-38" d="M 2899 2349 
Q 3322 2208 3549 1926 
Q 3776 1645 3776 1248 
Q 3776 858 3565 566 
Q 3354 275 2960 118 
Q 2566 -38 2035 -38 
Q 1229 -38 768 307 
Q 307 653 307 1248 
Q 307 1651 528 1929 
Q 749 2208 1171 2349 
Q 826 2483 646 2736 
Q 467 2989 467 3334 
Q 467 3878 892 4198 
Q 1318 4518 2035 4518 
Q 2509 4518 2864 4374 
Q 3219 4230 3417 3961 
Q 3616 3693 3616 3334 
Q 3616 2989 3430 2736 
Q 3245 2483 2899 2349 
z
M 928 3322 
Q 928 2950 1222 2732 
Q 1517 2515 2035 2515 
Q 2554 2515 2851 2732 
Q 3149 2950 3149 3315 
Q 3149 3693 2845 3910 
Q 2541 4128 2035 4128 
Q 1523 4128 1225 3910 
Q 928 3693 928 3322 
z
M 2035 352 
Q 2630 352 2966 595 
Q 3302 838 3302 1254 
Q 3302 1670 2966 1910 
Q 2630 2150 2035 2150 
Q 1446 2150 1110 1910 
Q 774 1670 774 1254 
Q 774 832 1107 592 
Q 1440 352 2035 352 
z
" transform="scale(0.015625)"/>
       <path id="Montserrat-Regular-4d" d="M 5382 4480 
L 5382 0 
L 4928 0 
L 4928 3584 
L 3168 570 
L 2944 570 
L 1184 3565 
L 1184 0 
L 730 0 
L 730 4480 
L 1120 4480 
L 3066 1158 
L 4992 4480 
L 5382 4480 
z
" transform="scale(0.015625)"/>
      </defs>
      <use xlink:href="#Montserrat-Regular-37"/>
      <use xlink:href="#Montserrat-Regular-38" x="58.899994"/>
      <use xlink:href="#Montserrat-Regular-30" x="122.699982"/>
      <use xlink:href="#Montserrat-Regular-42" x="188.899979"/>
      <use xlink:href="#Montserrat-Regular-20" x="264.299973"/>
      <use xlink:href="#Montserrat-Regular-74" x="290.499969"/>
      <use xlink:href="#Montserrat-Regular-6f" x="331.09996"/>
      <use xlink:href="#Montserrat-Regular-6b" x="393.799957"/>
      <use xlink:href="#Montserrat-Regular-65" x="453.899948"/>
      <use xlink:href="#Montserrat-Regular-6e" x="514.299942"/>
      <use xlink:href="#Montserrat-Regular-73" x="581.999924"/>
      <use xlink:href="#Montserrat-Regular-20" x="630.899918"/>
      <use xlink:href="#Montserrat-Regular-28" x="657.099915"/>
      <use xlink:href="#Montserrat-Regular-50" x="689.999908"/>
      <use xlink:href="#Montserrat-Regular-61" x="761.799896"/>
      <use xlink:href="#Montserrat-Regular-4c" x="820.799881"/>
      <use xlink:href="#Montserrat-Regular-4d" x="879.699875"/>
      <use xlink:href="#Montserrat-Regular-29" x="975.19986"/>
     </g>
    </g>
    <g id="line2d_26">
     <path d="M 238.064063 76.202188 
L 248.064063 76.202188 
L 258.064062 76.202188 
" style="fill: none; stroke: #2ca02c; stroke-width: 1.5; stroke-linecap: square"/>
    </g>
    <g id="text_19">
     <!-- 1.4T tokens (Chinchilla) -->
     <g transform="translate(266.064062 79.702188)scale(0.1 -0.1)">
      <defs>
       <path id="Montserrat-Regular-43" d="M 2675 -38 
Q 2010 -38 1475 256 
Q 941 550 637 1072 
Q 333 1594 333 2240 
Q 333 2886 637 3408 
Q 941 3930 1478 4224 
Q 2016 4518 2682 4518 
Q 3181 4518 3603 4352 
Q 4026 4186 4320 3866 
L 4019 3565 
Q 3494 4096 2694 4096 
Q 2163 4096 1728 3853 
Q 1293 3610 1046 3187 
Q 800 2765 800 2240 
Q 800 1715 1046 1292 
Q 1293 870 1728 627 
Q 2163 384 2694 384 
Q 3501 384 4019 922 
L 4320 621 
Q 4026 301 3600 131 
Q 3174 -38 2675 -38 
z
" transform="scale(0.015625)"/>
      </defs>
      <use xlink:href="#Montserrat-Regular-31"/>
      <use xlink:href="#Montserrat-Regular-2e" x="36.099991"/>
      <use xlink:href="#Montserrat-Regular-34" x="57.299988"/>
      <use xlink:href="#Montserrat-Regular-54" x="123.399979"/>
      <use xlink:href="#Montserrat-Regular-20" x="180.799973"/>
      <use xlink:href="#Montserrat-Regular-74" x="206.999969"/>
      <use xlink:href="#Montserrat-Regular-6f" x="247.59996"/>
      <use xlink:href="#Montserrat-Regular-6b" x="310.299957"/>
      <use xlink:href="#Montserrat-Regular-65" x="370.399948"/>
      <use xlink:href="#Montserrat-Regular-6e" x="430.799942"/>
      <use xlink:href="#Montserrat-Regular-73" x="498.499924"/>
      <use xlink:href="#Montserrat-Regular-20" x="547.399918"/>
      <use xlink:href="#Montserrat-Regular-28" x="573.599915"/>
      <use xlink:href="#Montserrat-Regular-43" x="606.499908"/>
      <use xlink:href="#Montserrat-Regular-68" x="678.399902"/>
      <use xlink:href="#Montserrat-Regular-69" x="746.099884"/>
      <use xlink:href="#Montserrat-Regular-6e" x="772.999878"/>
      <use xlink:href="#Montserrat-Regular-63" x="840.69986"/>
      <use xlink:href="#Montserrat-Regular-68" x="896.999847"/>
      <use xlink:href="#Montserrat-Regular-69" x="964.699829"/>
      <use xlink:href="#Montserrat-Regular-6c" x="991.599823"/>
      <use xlink:href="#Montserrat-Regular-6c" x="1018.499817"/>
      <use xlink:href="#Montserrat-Regular-61" x="1045.399811"/>
      <use xlink:href="#Montserrat-Regular-29" x="1104.399796"/>
     </g>
    </g>
    <g id="line2d_27">
     <path d="M 238.064063 90.563125 
L 248.064063 90.563125 
L 258.064062 90.563125 
" style="fill: none; stroke: #d62728; stroke-width: 1.5; stroke-linecap: square"/>
    </g>
    <g id="text_20">
     <!-- 10x Chinchilla -->
     <g transform="translate(266.064062 94.063125)scale(0.1 -0.1)">
      <defs>
       <path id="Montserrat-Regular-78" d="M 2778 0 
L 1709 1408 
L 634 0 
L 122 0 
L 1453 1728 
L 186 3366 
L 698 3366 
L 1709 2048 
L 2720 3366 
L 3219 3366 
L 1952 1728 
L 3296 0 
L 2778 0 
z
" transform="scale(0.015625)"/>
      </defs>
      <use xlink:href="#Montserrat-Regular-31"/>
      <use xlink:href="#Montserrat-Regular-30" x="36.099991"/>
      <use xlink:href="#Montserrat-Regular-78" x="102.299988"/>
      <use xlink:href="#Montserrat-Regular-20" x="155.699982"/>
      <use xlink:href="#Montserrat-Regular-43" x="181.899979"/>
      <use xlink:href="#Montserrat-Regular-68" x="253.799973"/>
      <use xlink:href="#Montserrat-Regular-69" x="321.499954"/>
      <use xlink:href="#Montserrat-Regular-6e" x="348.399948"/>
      <use xlink:href="#Montserrat-Regular-63" x="416.09993"/>
      <use xlink:href="#Montserrat-Regular-68" x="472.399918"/>
      <use xlink:href="#Montserrat-Regular-69" x="540.099899"/>
      <use xlink:href="#Montserrat-Regular-6c" x="566.999893"/>
      <use xlink:href="#Montserrat-Regular-6c" x="593.899887"/>
      <use xlink:href="#Montserrat-Regular-61" x="620.799881"/>
     </g>
    </g>
    <g id="line2d_28">
     <path d="M 238.064063 104.924062 
L 248.064063 104.924062 
L 258.064062 104.924062 
" style="fill: none; stroke: #9467bd; stroke-width: 1.5; stroke-linecap: square"/>
    </g>
    <g id="text_21">
     <!-- 100x Chinchilla -->
     <g transform="translate(266.064062 108.424062)scale(0.1 -0.1)">
      <use xlink:href="#Montserrat-Regular-31"/>
      <use xlink:href="#Montserrat-Regular-30" x="36.099991"/>
      <use xlink:href="#Montserrat-Regular-30" x="102.299988"/>
      <use xlink:href="#Montserrat-Regular-78" x="168.499985"/>
      <use xlink:href="#Montserrat-Regular-20" x="221.899979"/>
      <use xlink:href="#Montserrat-Regular-43" x="248.099976"/>
      <use xlink:href="#Montserrat-Regular-68" x="319.999969"/>
      <use xlink:href="#Montserrat-Regular-69" x="387.699951"/>
      <use xlink:href="#Montserrat-Regular-6e" x="414.599945"/>
      <use xlink:href="#Montserrat-Regular-63" x="482.299927"/>
      <use xlink:href="#Montserrat-Regular-68" x="538.599915"/>
      <use xlink:href="#Montserrat-Regular-69" x="606.299896"/>
      <use xlink:href="#Montserrat-Regular-6c" x="633.19989"/>
      <use xlink:href="#Montserrat-Regular-6c" x="660.099884"/>
      <use xlink:href="#Montserrat-Regular-61" x="686.999878"/>
     </g>
    </g>
    <g id="line2d_29">
     <path d="M 238.064063 119.285 
L 248.064063 119.285 
L 258.064062 119.285 
" style="fill: none; stroke: #8c564b; stroke-width: 1.5; stroke-linecap: square"/>
    </g>
    <g id="text_22">
     <!-- 1000x Chinchilla -->
     <g transform="translate(266.064062 122.785)scale(0.1 -0.1)">
      <use xlink:href="#Montserrat-Regular-31"/>
      <use xlink:href="#Montserrat-Regular-30" x="36.099991"/>
      <use xlink:href="#Montserrat-Regular-30" x="102.299988"/>
      <use xlink:href="#Montserrat-Regular-30" x="168.499985"/>
      <use xlink:href="#Montserrat-Regular-78" x="234.699982"/>
      <use xlink:href="#Montserrat-Regular-20" x="288.099976"/>
      <use xlink:href="#Montserrat-Regular-43" x="314.299973"/>
      <use xlink:href="#Montserrat-Regular-68" x="386.199966"/>
      <use xlink:href="#Montserrat-Regular-69" x="453.899948"/>
      <use xlink:href="#Montserrat-Regular-6e" x="480.799942"/>
      <use xlink:href="#Montserrat-Regular-63" x="548.499924"/>
      <use xlink:href="#Montserrat-Regular-68" x="604.799911"/>
      <use xlink:href="#Montserrat-Regular-69" x="672.499893"/>
      <use xlink:href="#Montserrat-Regular-6c" x="699.399887"/>
      <use xlink:href="#Montserrat-Regular-6c" x="726.299881"/>
      <use xlink:href="#Montserrat-Regular-61" x="753.199875"/>
     </g>
    </g>
    <g id="line2d_30">
     <path d="M 238.064063 133.645938 
L 248.064063 133.645938 
L 258.064062 133.645938 
" style="fill: none; stroke: #e377c2; stroke-width: 1.5; stroke-linecap: square"/>
    </g>
    <g id="text_23">
     <!-- 10000x Chinchilla -->
     <g transform="translate(266.064062 137.145938)scale(0.1 -0.1)">
      <use xlink:href="#Montserrat-Regular-31"/>
      <use xlink:href="#Montserrat-Regular-30" x="36.099991"/>
      <use xlink:href="#Montserrat-Regular-30" x="102.299988"/>
      <use xlink:href="#Montserrat-Regular-30" x="168.499985"/>
      <use xlink:href="#Montserrat-Regular-30" x="234.699982"/>
      <use xlink:href="#Montserrat-Regular-78" x="300.899979"/>
      <use xlink:href="#Montserrat-Regular-20" x="354.299973"/>
      <use xlink:href="#Montserrat-Regular-43" x="380.499969"/>
      <use xlink:href="#Montserrat-Regular-68" x="452.399963"/>
      <use xlink:href="#Montserrat-Regular-69" x="520.099945"/>
      <use xlink:href="#Montserrat-Regular-6e" x="546.999939"/>
      <use xlink:href="#Montserrat-Regular-63" x="614.699921"/>
      <use xlink:href="#Montserrat-Regular-68" x="670.999908"/>
      <use xlink:href="#Montserrat-Regular-69" x="738.69989"/>
      <use xlink:href="#Montserrat-Regular-6c" x="765.599884"/>
      <use xlink:href="#Montserrat-Regular-6c" x="792.499878"/>
      <use xlink:href="#Montserrat-Regular-61" x="819.399872"/>
     </g>
    </g>
   </g>
  </g>
 </g>
 <defs>
  <clipPath id="pad56becfac">
   <rect x="54" y="34.56" width="334.8" height="217.44"/>
  </clipPath>
 </defs>
</svg>
