<?xml version="1.0" encoding="utf-8" standalone="no"?>
<!DOCTYPE svg PUBLIC "-//W3C//DTD SVG 1.1//EN"
  "http://www.w3.org/Graphics/SVG/1.1/DTD/svg11.dtd">
<svg xmlns:xlink="http://www.w3.org/1999/xlink" width="432pt" height="288pt" viewBox="0 0 432 288" xmlns="http://www.w3.org/2000/svg" version="1.1">
 <metadata>
  <rdf:RDF xmlns:dc="http://purl.org/dc/elements/1.1/" xmlns:cc="http://creativecommons.org/ns#" xmlns:rdf="http://www.w3.org/1999/02/22-rdf-syntax-ns#">
   <cc:Work>
    <dc:type rdf:resource="http://purl.org/dc/dcmitype/StillImage"/>
    <dc:date>2023-02-28T09:59:23.782241</dc:date>
    <dc:format>image/svg+xml</dc:format>
    <dc:creator>
     <cc:Agent>
      <dc:title>Matplotlib v3.5.1, https://matplotlib.org/</dc:title>
     </cc:Agent>
    </dc:creator>
   </cc:Work>
  </rdf:RDF>
 </metadata>
 <defs>
  <style type="text/css">*{stroke-linejoin: round; stroke-linecap: butt}</style>
 </defs>
 <g id="figure_1">
  <g id="patch_1">
   <path d="M 0 288 
L 432 288 
L 432 0 
L 0 0 
L 0 288 
z
" style="fill: none"/>
  </g>
  <g id="axes_1">
   <g id="patch_2">
    <path d="M 54 252 
L 388.8 252 
L 388.8 34.56 
L 54 34.56 
z
" style="fill: #ffffff"/>
   </g>
   <g id="matplotlib.axis_1">
    <g id="xtick_1">
     <g id="line2d_1">
      <defs>
       <path id="mf5c2b4571b" d="M 0 0 
L 0 3.5 
" style="stroke: #000000; stroke-width: 0.8"/>
      </defs>
      <g>
       <use xlink:href="#mf5c2b4571b" x="110.773674" y="252" style="stroke: #000000; stroke-width: 0.8"/>
      </g>
     </g>
     <g id="text_1">
      <!-- $\mathdefault{10^{1}}$ -->
      <g transform="translate(104.173674 266.420313)scale(0.1 -0.1)">
       <defs>
        <path id="Montserrat-Regular-31" d="M 1574 4480 
L 1574 0 
L 1114 0 
L 1114 4070 
L 58 4070 
L 58 4480 
L 1574 4480 
z
" transform="scale(0.015625)"/>
        <path id="Montserrat-Regular-30" d="M 2118 -38 
Q 1600 -38 1193 237 
Q 787 512 560 1027 
Q 333 1542 333 2240 
Q 333 2938 560 3453 
Q 787 3968 1193 4243 
Q 1600 4518 2118 4518 
Q 2637 4518 3043 4243 
Q 3450 3968 3680 3453 
Q 3910 2938 3910 2240 
Q 3910 1542 3680 1027 
Q 3450 512 3043 237 
Q 2637 -38 2118 -38 
z
M 2118 384 
Q 2509 384 2806 601 
Q 3104 819 3270 1235 
Q 3437 1651 3437 2240 
Q 3437 2829 3270 3245 
Q 3104 3661 2806 3878 
Q 2509 4096 2118 4096 
Q 1728 4096 1430 3878 
Q 1133 3661 966 3245 
Q 800 2829 800 2240 
Q 800 1651 966 1235 
Q 1133 819 1430 601 
Q 1728 384 2118 384 
z
" transform="scale(0.015625)"/>
       </defs>
       <use xlink:href="#Montserrat-Regular-31" transform="translate(0 0.184375)"/>
       <use xlink:href="#Montserrat-Regular-30" transform="translate(36.099991 0.184375)"/>
       <use xlink:href="#Montserrat-Regular-31" transform="translate(103.220378 37)scale(0.7)"/>
      </g>
     </g>
    </g>
    <g id="xtick_2">
     <g id="line2d_2">
      <g>
       <use xlink:href="#mf5c2b4571b" x="173.447331" y="252" style="stroke: #000000; stroke-width: 0.8"/>
      </g>
     </g>
     <g id="text_2">
      <!-- $\mathdefault{10^{3}}$ -->
      <g transform="translate(166.147331 266.420313)scale(0.1 -0.1)">
       <defs>
        <path id="Montserrat-Regular-33" d="M 1856 2560 
Q 2560 2522 2928 2179 
Q 3296 1837 3296 1286 
Q 3296 902 3110 604 
Q 2925 307 2560 134 
Q 2195 -38 1670 -38 
Q 1184 -38 752 118 
Q 320 275 58 538 
L 282 902 
Q 506 672 877 528 
Q 1248 384 1670 384 
Q 2221 384 2521 624 
Q 2822 864 2822 1286 
Q 2822 1702 2521 1939 
Q 2221 2176 1613 2176 
L 1293 2176 
L 1293 2515 
L 2534 4070 
L 243 4070 
L 243 4480 
L 3123 4480 
L 3123 4154 
L 1856 2560 
z
" transform="scale(0.015625)"/>
       </defs>
       <use xlink:href="#Montserrat-Regular-31" transform="translate(0 0.184375)"/>
       <use xlink:href="#Montserrat-Regular-30" transform="translate(36.099991 0.184375)"/>
       <use xlink:href="#Montserrat-Regular-33" transform="translate(103.220378 37)scale(0.7)"/>
      </g>
     </g>
    </g>
    <g id="xtick_3">
     <g id="line2d_3">
      <g>
       <use xlink:href="#mf5c2b4571b" x="236.120988" y="252" style="stroke: #000000; stroke-width: 0.8"/>
      </g>
     </g>
     <g id="text_3">
      <!-- $\mathdefault{10^{5}}$ -->
      <g transform="translate(228.820988 266.420313)scale(0.1 -0.1)">
       <defs>
        <path id="Montserrat-Regular-35" d="M 1510 2643 
Q 2483 2643 2928 2294 
Q 3373 1946 3373 1318 
Q 3373 928 3190 621 
Q 3008 314 2643 138 
Q 2278 -38 1747 -38 
Q 1267 -38 835 118 
Q 403 275 141 538 
L 365 902 
Q 589 672 953 528 
Q 1318 384 1741 384 
Q 2298 384 2602 633 
Q 2906 883 2906 1299 
Q 2906 1760 2563 1997 
Q 2221 2234 1408 2234 
L 454 2234 
L 685 4480 
L 3136 4480 
L 3136 4070 
L 1088 4070 
L 934 2643 
L 1510 2643 
z
" transform="scale(0.015625)"/>
       </defs>
       <use xlink:href="#Montserrat-Regular-31" transform="translate(0 0.184375)"/>
       <use xlink:href="#Montserrat-Regular-30" transform="translate(36.099991 0.184375)"/>
       <use xlink:href="#Montserrat-Regular-35" transform="translate(103.220378 37)scale(0.7)"/>
      </g>
     </g>
    </g>
    <g id="xtick_4">
     <g id="line2d_4">
      <g>
       <use xlink:href="#mf5c2b4571b" x="298.794644" y="252" style="stroke: #000000; stroke-width: 0.8"/>
      </g>
     </g>
     <g id="text_4">
      <!-- $\mathdefault{10^{7}}$ -->
      <g transform="translate(291.394644 266.420313)scale(0.1 -0.1)">
       <defs>
        <path id="Montserrat-Regular-37" d="M 3494 4480 
L 3494 4154 
L 1619 0 
L 1120 0 
L 2963 4070 
L 659 4070 
L 659 3232 
L 205 3232 
L 205 4480 
L 3494 4480 
z
" transform="scale(0.015625)"/>
       </defs>
       <use xlink:href="#Montserrat-Regular-31" transform="translate(0 0.184375)"/>
       <use xlink:href="#Montserrat-Regular-30" transform="translate(36.099991 0.184375)"/>
       <use xlink:href="#Montserrat-Regular-37" transform="translate(103.220378 37)scale(0.7)"/>
      </g>
     </g>
    </g>
    <g id="xtick_5">
     <g id="line2d_5">
      <g>
       <use xlink:href="#mf5c2b4571b" x="361.468301" y="252" style="stroke: #000000; stroke-width: 0.8"/>
      </g>
     </g>
     <g id="text_5">
      <!-- $\mathdefault{10^{9}}$ -->
      <g transform="translate(354.018301 266.420313)scale(0.1 -0.1)">
       <defs>
        <path id="Montserrat-Regular-39" d="M 1728 4518 
Q 2618 4518 3091 3932 
Q 3565 3347 3565 2278 
Q 3565 1530 3309 1011 
Q 3053 493 2592 227 
Q 2131 -38 1517 -38 
Q 851 -38 454 205 
L 640 576 
Q 960 365 1510 365 
Q 2253 365 2675 835 
Q 3098 1306 3098 2202 
Q 3098 2368 3078 2566 
Q 2912 2202 2547 2000 
Q 2182 1798 1709 1798 
Q 1267 1798 924 1964 
Q 582 2131 390 2435 
Q 198 2739 198 3142 
Q 198 3552 396 3865 
Q 595 4179 944 4348 
Q 1293 4518 1728 4518 
z
M 1779 2189 
Q 2118 2189 2377 2317 
Q 2637 2445 2784 2669 
Q 2931 2893 2931 3168 
Q 2931 3424 2793 3641 
Q 2656 3859 2387 3993 
Q 2118 4128 1747 4128 
Q 1261 4128 957 3862 
Q 653 3597 653 3155 
Q 653 2714 957 2451 
Q 1261 2189 1779 2189 
z
" transform="scale(0.015625)"/>
       </defs>
       <use xlink:href="#Montserrat-Regular-31" transform="translate(0 0.76875)"/>
       <use xlink:href="#Montserrat-Regular-30" transform="translate(36.099991 0.76875)"/>
       <use xlink:href="#Montserrat-Regular-39" transform="translate(103.220378 37.584375)scale(0.7)"/>
      </g>
     </g>
    </g>
    <g id="text_6">
     <!-- cost (millions of dollars) -->
     <g transform="translate(162.65625 279.83125)scale(0.1 -0.1)">
      <defs>
       <path id="Montserrat-Regular-63" d="M 2029 -32 
Q 1530 -32 1136 185 
Q 742 403 518 796 
Q 294 1190 294 1683 
Q 294 2176 518 2566 
Q 742 2957 1136 3174 
Q 1530 3392 2029 3392 
Q 2464 3392 2806 3222 
Q 3149 3053 3347 2726 
L 3008 2496 
Q 2842 2746 2586 2870 
Q 2330 2995 2029 2995 
Q 1664 2995 1373 2832 
Q 1082 2669 918 2368 
Q 755 2067 755 1683 
Q 755 1293 918 995 
Q 1082 698 1373 534 
Q 1664 371 2029 371 
Q 2330 371 2586 492 
Q 2842 614 3008 864 
L 3347 634 
Q 3149 307 2803 137 
Q 2458 -32 2029 -32 
z
" transform="scale(0.015625)"/>
       <path id="Montserrat-Regular-6f" d="M 2010 -32 
Q 1523 -32 1132 189 
Q 742 410 518 800 
Q 294 1190 294 1683 
Q 294 2176 518 2566 
Q 742 2957 1132 3174 
Q 1523 3392 2010 3392 
Q 2496 3392 2886 3174 
Q 3277 2957 3497 2566 
Q 3718 2176 3718 1683 
Q 3718 1190 3497 800 
Q 3277 410 2886 189 
Q 2496 -32 2010 -32 
z
M 2010 371 
Q 2368 371 2653 534 
Q 2938 698 3098 998 
Q 3258 1299 3258 1683 
Q 3258 2067 3098 2368 
Q 2938 2669 2653 2832 
Q 2368 2995 2010 2995 
Q 1651 2995 1366 2832 
Q 1082 2669 918 2368 
Q 755 2067 755 1683 
Q 755 1299 918 998 
Q 1082 698 1366 534 
Q 1651 371 2010 371 
z
" transform="scale(0.015625)"/>
       <path id="Montserrat-Regular-73" d="M 1536 -32 
Q 1126 -32 752 86 
Q 378 205 166 384 
L 371 742 
Q 582 576 902 470 
Q 1222 365 1568 365 
Q 2029 365 2249 509 
Q 2470 653 2470 915 
Q 2470 1101 2348 1206 
Q 2227 1312 2041 1366 
Q 1856 1421 1549 1472 
Q 1139 1549 889 1629 
Q 640 1709 464 1901 
Q 288 2093 288 2432 
Q 288 2854 640 3123 
Q 992 3392 1619 3392 
Q 1946 3392 2272 3305 
Q 2598 3219 2810 3078 
L 2611 2714 
Q 2195 3002 1619 3002 
Q 1184 3002 963 2848 
Q 742 2694 742 2445 
Q 742 2253 867 2137 
Q 992 2022 1177 1968 
Q 1363 1914 1690 1856 
Q 2093 1779 2336 1702 
Q 2579 1626 2752 1440 
Q 2925 1254 2925 928 
Q 2925 486 2557 227 
Q 2189 -32 1536 -32 
z
" transform="scale(0.015625)"/>
       <path id="Montserrat-Regular-74" d="M 2406 205 
Q 2278 90 2089 29 
Q 1901 -32 1696 -32 
Q 1222 -32 966 224 
Q 710 480 710 947 
L 710 2982 
L 109 2982 
L 109 3366 
L 710 3366 
L 710 4102 
L 1165 4102 
L 1165 3366 
L 2189 3366 
L 2189 2982 
L 1165 2982 
L 1165 973 
Q 1165 672 1315 515 
Q 1466 358 1747 358 
Q 1888 358 2019 403 
Q 2150 448 2246 531 
L 2406 205 
z
" transform="scale(0.015625)"/>
       <path id="Montserrat-Regular-20" transform="scale(0.015625)"/>
       <path id="Montserrat-Regular-28" d="M 1408 -1242 
Q 1050 -653 858 112 
Q 666 877 666 1754 
Q 666 2630 858 3401 
Q 1050 4173 1408 4749 
L 1843 4749 
Q 1466 4102 1290 3360 
Q 1114 2618 1114 1754 
Q 1114 890 1290 147 
Q 1466 -595 1843 -1242 
L 1408 -1242 
z
" transform="scale(0.015625)"/>
       <path id="Montserrat-Regular-6d" d="M 4832 3392 
Q 5466 3392 5827 3027 
Q 6189 2662 6189 1952 
L 6189 0 
L 5734 0 
L 5734 1907 
Q 5734 2432 5481 2707 
Q 5229 2982 4768 2982 
Q 4243 2982 3942 2659 
Q 3642 2336 3642 1766 
L 3642 0 
L 3187 0 
L 3187 1907 
Q 3187 2432 2934 2707 
Q 2682 2982 2214 2982 
Q 1696 2982 1392 2659 
Q 1088 2336 1088 1766 
L 1088 0 
L 634 0 
L 634 3366 
L 1069 3366 
L 1069 2752 
Q 1248 3059 1568 3225 
Q 1888 3392 2304 3392 
Q 2726 3392 3036 3213 
Q 3347 3034 3501 2682 
Q 3686 3014 4035 3203 
Q 4384 3392 4832 3392 
z
" transform="scale(0.015625)"/>
       <path id="Montserrat-Regular-69" d="M 634 3366 
L 1088 3366 
L 1088 0 
L 634 0 
L 634 3366 
z
M 864 4102 
Q 723 4102 627 4198 
Q 531 4294 531 4429 
Q 531 4557 627 4653 
Q 723 4749 864 4749 
Q 1005 4749 1101 4656 
Q 1197 4563 1197 4435 
Q 1197 4294 1101 4198 
Q 1005 4102 864 4102 
z
" transform="scale(0.015625)"/>
       <path id="Montserrat-Regular-6c" d="M 634 4749 
L 1088 4749 
L 1088 0 
L 634 0 
L 634 4749 
z
" transform="scale(0.015625)"/>
       <path id="Montserrat-Regular-6e" d="M 2349 3392 
Q 2982 3392 3356 3024 
Q 3731 2656 3731 1952 
L 3731 0 
L 3277 0 
L 3277 1907 
Q 3277 2432 3014 2707 
Q 2752 2982 2266 2982 
Q 1722 2982 1405 2659 
Q 1088 2336 1088 1766 
L 1088 0 
L 634 0 
L 634 3366 
L 1069 3366 
L 1069 2746 
Q 1254 3053 1584 3222 
Q 1914 3392 2349 3392 
z
" transform="scale(0.015625)"/>
       <path id="Montserrat-Regular-66" d="M 1747 4397 
Q 1453 4397 1302 4237 
Q 1152 4077 1152 3763 
L 1152 3366 
L 2189 3366 
L 2189 2982 
L 1165 2982 
L 1165 0 
L 710 0 
L 710 2982 
L 109 2982 
L 109 3366 
L 710 3366 
L 710 3782 
Q 710 4243 976 4512 
Q 1242 4781 1728 4781 
Q 1920 4781 2099 4726 
Q 2278 4672 2400 4570 
L 2246 4230 
Q 2048 4397 1747 4397 
z
" transform="scale(0.015625)"/>
       <path id="Montserrat-Regular-64" d="M 3706 4749 
L 3706 0 
L 3270 0 
L 3270 666 
Q 3066 326 2730 147 
Q 2394 -32 1971 -32 
Q 1498 -32 1114 185 
Q 730 403 512 793 
Q 294 1184 294 1683 
Q 294 2182 512 2572 
Q 730 2963 1114 3177 
Q 1498 3392 1971 3392 
Q 2381 3392 2710 3222 
Q 3040 3053 3251 2726 
L 3251 4749 
L 3706 4749 
z
M 2010 371 
Q 2362 371 2646 534 
Q 2931 698 3094 998 
Q 3258 1299 3258 1683 
Q 3258 2067 3094 2368 
Q 2931 2669 2646 2832 
Q 2362 2995 2010 2995 
Q 1651 2995 1366 2832 
Q 1082 2669 918 2368 
Q 755 2067 755 1683 
Q 755 1299 918 998 
Q 1082 698 1366 534 
Q 1651 371 2010 371 
z
" transform="scale(0.015625)"/>
       <path id="Montserrat-Regular-61" d="M 1811 3392 
Q 2470 3392 2822 3062 
Q 3174 2733 3174 2086 
L 3174 0 
L 2739 0 
L 2739 525 
Q 2586 262 2288 115 
Q 1990 -32 1581 -32 
Q 1018 -32 685 237 
Q 352 506 352 947 
Q 352 1376 662 1638 
Q 973 1901 1651 1901 
L 2720 1901 
L 2720 2106 
Q 2720 2541 2477 2768 
Q 2234 2995 1766 2995 
Q 1446 2995 1152 2889 
Q 858 2784 646 2598 
L 442 2938 
Q 698 3155 1056 3273 
Q 1414 3392 1811 3392 
z
M 1651 326 
Q 2035 326 2310 502 
Q 2586 678 2720 1011 
L 2720 1562 
L 1664 1562 
Q 800 1562 800 960 
Q 800 666 1024 496 
Q 1248 326 1651 326 
z
" transform="scale(0.015625)"/>
       <path id="Montserrat-Regular-72" d="M 1069 2707 
Q 1229 3046 1545 3219 
Q 1862 3392 2330 3392 
L 2330 2950 
L 2221 2957 
Q 1690 2957 1389 2630 
Q 1088 2304 1088 1715 
L 1088 0 
L 634 0 
L 634 3366 
L 1069 3366 
L 1069 2707 
z
" transform="scale(0.015625)"/>
       <path id="Montserrat-Regular-29" d="M 256 -1242 
Q 634 -595 813 144 
Q 992 883 992 1754 
Q 992 2624 813 3363 
Q 634 4102 256 4749 
L 691 4749 
Q 1050 4173 1245 3401 
Q 1440 2630 1440 1754 
Q 1440 877 1248 109 
Q 1056 -659 691 -1242 
L 256 -1242 
z
" transform="scale(0.015625)"/>
      </defs>
      <use xlink:href="#Montserrat-Regular-63"/>
      <use xlink:href="#Montserrat-Regular-6f" x="56.299988"/>
      <use xlink:href="#Montserrat-Regular-73" x="118.999985"/>
      <use xlink:href="#Montserrat-Regular-74" x="167.899979"/>
      <use xlink:href="#Montserrat-Regular-20" x="208.499969"/>
      <use xlink:href="#Montserrat-Regular-28" x="234.699966"/>
      <use xlink:href="#Montserrat-Regular-6d" x="267.59996"/>
      <use xlink:href="#Montserrat-Regular-69" x="373.699951"/>
      <use xlink:href="#Montserrat-Regular-6c" x="400.599945"/>
      <use xlink:href="#Montserrat-Regular-6c" x="427.499939"/>
      <use xlink:href="#Montserrat-Regular-69" x="454.399933"/>
      <use xlink:href="#Montserrat-Regular-6f" x="481.299927"/>
      <use xlink:href="#Montserrat-Regular-6e" x="543.999924"/>
      <use xlink:href="#Montserrat-Regular-73" x="611.699905"/>
      <use xlink:href="#Montserrat-Regular-20" x="660.599899"/>
      <use xlink:href="#Montserrat-Regular-6f" x="686.799896"/>
      <use xlink:href="#Montserrat-Regular-66" x="749.499893"/>
      <use xlink:href="#Montserrat-Regular-20" x="783.399887"/>
      <use xlink:href="#Montserrat-Regular-64" x="809.599884"/>
      <use xlink:href="#Montserrat-Regular-6f" x="877.399872"/>
      <use xlink:href="#Montserrat-Regular-6c" x="940.099869"/>
      <use xlink:href="#Montserrat-Regular-6c" x="966.999863"/>
      <use xlink:href="#Montserrat-Regular-61" x="993.899857"/>
      <use xlink:href="#Montserrat-Regular-72" x="1052.899841"/>
      <use xlink:href="#Montserrat-Regular-73" x="1092.999832"/>
      <use xlink:href="#Montserrat-Regular-29" x="1141.899826"/>
     </g>
    </g>
   </g>
   <g id="matplotlib.axis_2">
    <g id="ytick_1">
     <g id="line2d_6">
      <defs>
       <path id="m4ab4d73882" d="M 0 0 
L -3.5 0 
" style="stroke: #000000; stroke-width: 0.8"/>
      </defs>
      <g>
       <use xlink:href="#m4ab4d73882" x="54" y="252" style="stroke: #000000; stroke-width: 0.8"/>
      </g>
     </g>
     <g id="text_7">
      <!-- 0.00 -->
      <g transform="translate(25.01875 255.710156)scale(0.1 -0.1)">
       <defs>
        <path id="Montserrat-Regular-2e" d="M 678 -32 
Q 538 -32 438 70 
Q 339 173 339 320 
Q 339 467 438 566 
Q 538 666 678 666 
Q 819 666 921 566 
Q 1024 467 1024 320 
Q 1024 173 921 70 
Q 819 -32 678 -32 
z
" transform="scale(0.015625)"/>
       </defs>
       <use xlink:href="#Montserrat-Regular-30"/>
       <use xlink:href="#Montserrat-Regular-2e" x="66.199997"/>
       <use xlink:href="#Montserrat-Regular-30" x="87.399994"/>
       <use xlink:href="#Montserrat-Regular-30" x="153.599991"/>
      </g>
     </g>
    </g>
    <g id="ytick_2">
     <g id="line2d_7">
      <g>
       <use xlink:href="#m4ab4d73882" x="54" y="215.76" style="stroke: #000000; stroke-width: 0.8"/>
      </g>
     </g>
     <g id="text_8">
      <!-- 0.05 -->
      <g transform="translate(25.979687 219.470156)scale(0.1 -0.1)">
       <use xlink:href="#Montserrat-Regular-30"/>
       <use xlink:href="#Montserrat-Regular-2e" x="66.199997"/>
       <use xlink:href="#Montserrat-Regular-30" x="87.399994"/>
       <use xlink:href="#Montserrat-Regular-35" x="153.599991"/>
      </g>
     </g>
    </g>
    <g id="ytick_3">
     <g id="line2d_8">
      <g>
       <use xlink:href="#m4ab4d73882" x="54" y="179.52" style="stroke: #000000; stroke-width: 0.8"/>
      </g>
     </g>
     <g id="text_9">
      <!-- 0.10 -->
      <g transform="translate(28.029687 183.230156)scale(0.1 -0.1)">
       <use xlink:href="#Montserrat-Regular-30"/>
       <use xlink:href="#Montserrat-Regular-2e" x="66.199997"/>
       <use xlink:href="#Montserrat-Regular-31" x="87.399994"/>
       <use xlink:href="#Montserrat-Regular-30" x="123.499985"/>
      </g>
     </g>
    </g>
    <g id="ytick_4">
     <g id="line2d_9">
      <g>
       <use xlink:href="#m4ab4d73882" x="54" y="143.28" style="stroke: #000000; stroke-width: 0.8"/>
      </g>
     </g>
     <g id="text_10">
      <!-- 0.15 -->
      <g transform="translate(28.990625 146.990156)scale(0.1 -0.1)">
       <use xlink:href="#Montserrat-Regular-30"/>
       <use xlink:href="#Montserrat-Regular-2e" x="66.199997"/>
       <use xlink:href="#Montserrat-Regular-31" x="87.399994"/>
       <use xlink:href="#Montserrat-Regular-35" x="123.499985"/>
      </g>
     </g>
    </g>
    <g id="ytick_5">
     <g id="line2d_10">
      <g>
       <use xlink:href="#m4ab4d73882" x="54" y="107.04" style="stroke: #000000; stroke-width: 0.8"/>
      </g>
     </g>
     <g id="text_11">
      <!-- 0.20 -->
      <g transform="translate(25.959375 110.750156)scale(0.1 -0.1)">
       <defs>
        <path id="Montserrat-Regular-32" d="M 3392 410 
L 3392 0 
L 250 0 
L 250 326 
L 2112 2150 
Q 2464 2496 2589 2749 
Q 2714 3002 2714 3258 
Q 2714 3654 2442 3875 
Q 2170 4096 1664 4096 
Q 877 4096 442 3597 
L 115 3878 
Q 378 4186 784 4352 
Q 1190 4518 1702 4518 
Q 2387 4518 2787 4195 
Q 3187 3872 3187 3309 
Q 3187 2963 3033 2643 
Q 2880 2323 2451 1907 
L 928 410 
L 3392 410 
z
" transform="scale(0.015625)"/>
       </defs>
       <use xlink:href="#Montserrat-Regular-30"/>
       <use xlink:href="#Montserrat-Regular-2e" x="66.199997"/>
       <use xlink:href="#Montserrat-Regular-32" x="87.399994"/>
       <use xlink:href="#Montserrat-Regular-30" x="144.199982"/>
      </g>
     </g>
    </g>
    <g id="ytick_6">
     <g id="line2d_11">
      <g>
       <use xlink:href="#m4ab4d73882" x="54" y="70.8" style="stroke: #000000; stroke-width: 0.8"/>
      </g>
     </g>
     <g id="text_12">
      <!-- 0.25 -->
      <g transform="translate(26.920312 74.510156)scale(0.1 -0.1)">
       <use xlink:href="#Montserrat-Regular-30"/>
       <use xlink:href="#Montserrat-Regular-2e" x="66.199997"/>
       <use xlink:href="#Montserrat-Regular-32" x="87.399994"/>
       <use xlink:href="#Montserrat-Regular-35" x="144.199982"/>
      </g>
     </g>
    </g>
    <g id="ytick_7">
     <g id="line2d_12">
      <g>
       <use xlink:href="#m4ab4d73882" x="54" y="34.56" style="stroke: #000000; stroke-width: 0.8"/>
      </g>
     </g>
     <g id="text_13">
      <!-- 0.30 -->
      <g transform="translate(25.998437 38.270156)scale(0.1 -0.1)">
       <use xlink:href="#Montserrat-Regular-30"/>
       <use xlink:href="#Montserrat-Regular-2e" x="66.199997"/>
       <use xlink:href="#Montserrat-Regular-33" x="87.399994"/>
       <use xlink:href="#Montserrat-Regular-30" x="143.799988"/>
      </g>
     </g>
    </g>
    <g id="text_14">
     <!-- total error -->
     <g transform="translate(19.078125 168.249531)rotate(-90)scale(0.1 -0.1)">
      <defs>
       <path id="Montserrat-Regular-65" d="M 3565 1542 
L 749 1542 
Q 787 1018 1152 694 
Q 1517 371 2074 371 
Q 2387 371 2649 483 
Q 2912 595 3104 813 
L 3360 518 
Q 3136 250 2800 109 
Q 2464 -32 2061 -32 
Q 1542 -32 1142 189 
Q 742 410 518 800 
Q 294 1190 294 1683 
Q 294 2176 508 2566 
Q 723 2957 1097 3174 
Q 1472 3392 1939 3392 
Q 2406 3392 2777 3174 
Q 3149 2957 3360 2569 
Q 3571 2182 3571 1683 
L 3565 1542 
z
M 1939 3002 
Q 1453 3002 1123 2691 
Q 794 2381 749 1882 
L 3136 1882 
Q 3091 2381 2761 2691 
Q 2432 3002 1939 3002 
z
" transform="scale(0.015625)"/>
      </defs>
      <use xlink:href="#Montserrat-Regular-74"/>
      <use xlink:href="#Montserrat-Regular-6f" x="40.599991"/>
      <use xlink:href="#Montserrat-Regular-74" x="103.299988"/>
      <use xlink:href="#Montserrat-Regular-61" x="143.899979"/>
      <use xlink:href="#Montserrat-Regular-6c" x="202.899963"/>
      <use xlink:href="#Montserrat-Regular-20" x="229.799957"/>
      <use xlink:href="#Montserrat-Regular-65" x="255.999954"/>
      <use xlink:href="#Montserrat-Regular-72" x="316.399948"/>
      <use xlink:href="#Montserrat-Regular-72" x="356.499939"/>
      <use xlink:href="#Montserrat-Regular-6f" x="396.59993"/>
      <use xlink:href="#Montserrat-Regular-72" x="459.299927"/>
     </g>
    </g>
   </g>
   <g id="line2d_13">
    <path d="M 373.581818 244.752 
L 312.146296 237.504 
L 276.20882 230.256 
L 250.710774 223.008 
L 230.932954 215.76 
L 214.773298 208.512 
L 201.110503 201.264 
L 189.275252 194.016 
L 178.835821 186.768 
L 169.497432 179.52 
L 161.049831 172.272 
L 153.337776 165.024 
L 146.243373 157.776 
L 139.674981 150.528 
L 133.559955 143.28 
L 127.83973 136.032 
L 122.466405 128.784 
L 117.400299 121.536 
L 112.608174 114.288 
L 108.06191 107.04 
L 103.737505 99.792 
L 99.614309 92.544 
L 95.674428 85.296 
L 91.902254 78.048 
L 88.284089 70.8 
L 84.807851 63.552 
L 81.462822 56.304 
L 78.239459 49.056 
L 75.12922 41.808 
L 72.124433 34.56 
L 69.218182 27.312 
" clip-path="url(#pceb2d83480)" style="fill: none; stroke: #1f77b4; stroke-width: 1.5; stroke-linecap: square"/>
   </g>
   <g id="line2d_14">
    <defs>
     <path id="m7bda828af5" d="M 0 3 
C 0.795609 3 1.55874 2.683901 2.12132 2.12132 
C 2.683901 1.55874 3 0.795609 3 0 
C 3 -0.795609 2.683901 -1.55874 2.12132 -2.12132 
C 1.55874 -2.683901 0.795609 -3 0 -3 
C -0.795609 -3 -1.55874 -2.683901 -2.12132 -2.12132 
C -2.683901 -1.55874 -3 -0.795609 -3 0 
C -3 0.795609 -2.683901 1.55874 -2.12132 2.12132 
C -1.55874 2.683901 -0.795609 3 0 3 
z
" style="stroke: #ff7f0e"/>
    </defs>
    <g clip-path="url(#pceb2d83480)">
     <use xlink:href="#m7bda828af5" x="185.895716" y="248.376" style="fill-opacity: 0; stroke: #ff7f0e"/>
    </g>
   </g>
   <g id="line2d_15">
    <defs>
     <path id="mfe9e05b1bd" d="M 0 3 
C 0.795609 3 1.55874 2.683901 2.12132 2.12132 
C 2.683901 1.55874 3 0.795609 3 0 
C 3 -0.795609 2.683901 -1.55874 2.12132 -2.12132 
C 1.55874 -2.683901 0.795609 -3 0 -3 
C -0.795609 -3 -1.55874 -2.683901 -2.12132 -2.12132 
C -2.683901 -1.55874 -3 -0.795609 -3 0 
C -3 0.795609 -2.683901 1.55874 -2.12132 2.12132 
C -1.55874 2.683901 -0.795609 3 0 3 
z
" style="stroke: #2ca02c"/>
    </defs>
    <g clip-path="url(#pceb2d83480)">
     <use xlink:href="#mfe9e05b1bd" x="212.978764" y="248.376" style="fill-opacity: 0; stroke: #2ca02c"/>
    </g>
   </g>
   <g id="line2d_16">
    <defs>
     <path id="mc2e44e7cbf" d="M 0 3 
C 0.795609 3 1.55874 2.683901 2.12132 2.12132 
C 2.683901 1.55874 3 0.795609 3 0 
C 3 -0.795609 2.683901 -1.55874 2.12132 -2.12132 
C 1.55874 -2.683901 0.795609 -3 0 -3 
C -0.795609 -3 -1.55874 -2.683901 -2.12132 -2.12132 
C -2.683901 -1.55874 -3 -0.795609 -3 0 
C -3 0.795609 -2.683901 1.55874 -2.12132 2.12132 
C -1.55874 2.683901 -0.795609 3 0 3 
z
" style="stroke: #d62728"/>
    </defs>
    <g clip-path="url(#pceb2d83480)">
     <use xlink:href="#mc2e44e7cbf" x="255.304823" y="248.376" style="fill-opacity: 0; stroke: #d62728"/>
    </g>
   </g>
   <g id="line2d_17">
    <defs>
     <path id="m0af8062ca9" d="M 0 3 
C 0.795609 3 1.55874 2.683901 2.12132 2.12132 
C 2.683901 1.55874 3 0.795609 3 0 
C 3 -0.795609 2.683901 -1.55874 2.12132 -2.12132 
C 1.55874 -2.683901 0.795609 -3 0 -3 
C -0.795609 -3 -1.55874 -2.683901 -2.12132 -2.12132 
C -2.683901 -1.55874 -3 -0.795609 -3 0 
C -3 0.795609 -2.683901 1.55874 -2.12132 2.12132 
C -1.55874 2.683901 -0.795609 3 0 3 
z
" style="stroke: #9467bd"/>
    </defs>
    <g clip-path="url(#pceb2d83480)">
     <use xlink:href="#m0af8062ca9" x="282.217405" y="248.376" style="fill-opacity: 0; stroke: #9467bd"/>
    </g>
   </g>
   <g id="line2d_18">
    <defs>
     <path id="m9c127e4096" d="M 0 3 
C 0.795609 3 1.55874 2.683901 2.12132 2.12132 
C 2.683901 1.55874 3 0.795609 3 0 
C 3 -0.795609 2.683901 -1.55874 2.12132 -2.12132 
C 1.55874 -2.683901 0.795609 -3 0 -3 
C -0.795609 -3 -1.55874 -2.683901 -2.12132 -2.12132 
C -2.683901 -1.55874 -3 -0.795609 -3 0 
C -3 0.795609 -2.683901 1.55874 -2.12132 2.12132 
C -1.55874 2.683901 -0.795609 3 0 3 
z
" style="stroke: #8c564b"/>
    </defs>
    <g clip-path="url(#pceb2d83480)">
     <use xlink:href="#m9c127e4096" x="310.318091" y="248.376" style="fill-opacity: 0; stroke: #8c564b"/>
    </g>
   </g>
   <g id="line2d_19">
    <defs>
     <path id="mcf76c7d59d" d="M 0 3 
C 0.795609 3 1.55874 2.683901 2.12132 2.12132 
C 2.683901 1.55874 3 0.795609 3 0 
C 3 -0.795609 2.683901 -1.55874 2.12132 -2.12132 
C 1.55874 -2.683901 0.795609 -3 0 -3 
C -0.795609 -3 -1.55874 -2.683901 -2.12132 -2.12132 
C -2.683901 -1.55874 -3 -0.795609 -3 0 
C -3 0.795609 -2.683901 1.55874 -2.12132 2.12132 
C -1.55874 2.683901 -0.795609 3 0 3 
z
" style="stroke: #e377c2"/>
    </defs>
    <g clip-path="url(#pceb2d83480)">
     <use xlink:href="#mcf76c7d59d" x="329.506267" y="248.376" style="fill-opacity: 0; stroke: #e377c2"/>
    </g>
   </g>
   <g id="patch_3">
    <path d="M 54 252 
L 388.8 252 
" style="fill: none; stroke: #000000; stroke-width: 0.8; stroke-linejoin: miter; stroke-linecap: square"/>
   </g>
   <g id="text_15">
    <a xlink:href="https://dynomight.net">
     <!-- dynomight.net -->
     <g style="opacity: 0.25" transform="translate(313.746111 299.112)scale(0.1 -0.1)">
      <defs>
       <path id="DejaVuSansMono-64" d="M 2681 3053 
L 2681 4863 
L 3256 4863 
L 3256 0 
L 2681 0 
L 2681 441 
Q 2538 181 2298 45 
Q 2059 -91 1747 -91 
Q 1113 -91 748 401 
Q 384 894 384 1759 
Q 384 2613 750 3098 
Q 1116 3584 1747 3584 
Q 2063 3584 2303 3448 
Q 2544 3313 2681 3053 
z
M 991 1747 
Q 991 1078 1203 737 
Q 1416 397 1831 397 
Q 2247 397 2464 740 
Q 2681 1084 2681 1747 
Q 2681 2413 2464 2755 
Q 2247 3097 1831 3097 
Q 1416 3097 1203 2756 
Q 991 2416 991 1747 
z
" transform="scale(0.015625)"/>
       <path id="DejaVuSansMono-79" d="M 2681 1125 
Q 2538 759 2316 163 
Q 2006 -663 1900 -844 
Q 1756 -1088 1540 -1209 
Q 1325 -1331 1038 -1331 
L 575 -1331 
L 575 -850 
L 916 -850 
Q 1169 -850 1312 -703 
Q 1456 -556 1678 56 
L 325 3500 
L 934 3500 
L 1972 763 
L 2994 3500 
L 3603 3500 
L 2681 1125 
z
" transform="scale(0.015625)"/>
       <path id="DejaVuSansMono-6e" d="M 3284 2169 
L 3284 0 
L 2706 0 
L 2706 2169 
Q 2706 2641 2540 2862 
Q 2375 3084 2022 3084 
Q 1619 3084 1401 2798 
Q 1184 2513 1184 1978 
L 1184 0 
L 609 0 
L 609 3500 
L 1184 3500 
L 1184 2975 
Q 1338 3275 1600 3429 
Q 1863 3584 2222 3584 
Q 2756 3584 3020 3232 
Q 3284 2881 3284 2169 
z
" transform="scale(0.015625)"/>
       <path id="DejaVuSansMono-6f" d="M 1925 3097 
Q 1488 3097 1263 2756 
Q 1038 2416 1038 1747 
Q 1038 1081 1263 739 
Q 1488 397 1925 397 
Q 2366 397 2591 739 
Q 2816 1081 2816 1747 
Q 2816 2416 2591 2756 
Q 2366 3097 1925 3097 
z
M 1925 3584 
Q 2653 3584 3039 3112 
Q 3425 2641 3425 1747 
Q 3425 850 3040 379 
Q 2656 -91 1925 -91 
Q 1197 -91 812 379 
Q 428 850 428 1747 
Q 428 2641 812 3112 
Q 1197 3584 1925 3584 
z
" transform="scale(0.015625)"/>
       <path id="DejaVuSansMono-6d" d="M 2113 3144 
Q 2219 3369 2383 3476 
Q 2547 3584 2778 3584 
Q 3200 3584 3373 3257 
Q 3547 2931 3547 2028 
L 3547 0 
L 3022 0 
L 3022 2003 
Q 3022 2744 2939 2923 
Q 2856 3103 2638 3103 
Q 2388 3103 2295 2911 
Q 2203 2719 2203 2003 
L 2203 0 
L 1678 0 
L 1678 2003 
Q 1678 2753 1589 2928 
Q 1500 3103 1269 3103 
Q 1041 3103 952 2911 
Q 863 2719 863 2003 
L 863 0 
L 341 0 
L 341 3500 
L 863 3500 
L 863 3200 
Q 966 3388 1120 3486 
Q 1275 3584 1472 3584 
Q 1709 3584 1867 3475 
Q 2025 3366 2113 3144 
z
" transform="scale(0.015625)"/>
       <path id="DejaVuSansMono-69" d="M 800 3500 
L 2272 3500 
L 2272 447 
L 3413 447 
L 3413 0 
L 556 0 
L 556 447 
L 1697 447 
L 1697 3053 
L 800 3053 
L 800 3500 
z
M 1697 4863 
L 2272 4863 
L 2272 4134 
L 1697 4134 
L 1697 4863 
z
" transform="scale(0.015625)"/>
       <path id="DejaVuSansMono-67" d="M 2681 1778 
Q 2681 2425 2470 2761 
Q 2259 3097 1856 3097 
Q 1434 3097 1212 2761 
Q 991 2425 991 1778 
Q 991 1131 1214 792 
Q 1438 453 1863 453 
Q 2259 453 2470 793 
Q 2681 1134 2681 1778 
z
M 3256 225 
Q 3256 -563 2884 -969 
Q 2513 -1375 1791 -1375 
Q 1553 -1375 1293 -1331 
Q 1034 -1288 775 -1203 
L 775 -634 
Q 1081 -778 1331 -847 
Q 1581 -916 1791 -916 
Q 2256 -916 2468 -662 
Q 2681 -409 2681 141 
L 2681 166 
L 2681 556 
Q 2544 263 2306 119 
Q 2069 -25 1728 -25 
Q 1116 -25 750 465 
Q 384 956 384 1778 
Q 384 2603 750 3093 
Q 1116 3584 1728 3584 
Q 2066 3584 2300 3450 
Q 2534 3316 2681 3034 
L 2681 3488 
L 3256 3488 
L 3256 225 
z
" transform="scale(0.015625)"/>
       <path id="DejaVuSansMono-68" d="M 3284 2169 
L 3284 0 
L 2706 0 
L 2706 2169 
Q 2706 2641 2540 2862 
Q 2375 3084 2022 3084 
Q 1619 3084 1401 2798 
Q 1184 2513 1184 1978 
L 1184 0 
L 609 0 
L 609 4863 
L 1184 4863 
L 1184 2975 
Q 1338 3275 1600 3429 
Q 1863 3584 2222 3584 
Q 2756 3584 3020 3232 
Q 3284 2881 3284 2169 
z
" transform="scale(0.015625)"/>
       <path id="DejaVuSansMono-74" d="M 1919 4494 
L 1919 3500 
L 3225 3500 
L 3225 3053 
L 1919 3053 
L 1919 1153 
Q 1919 766 2066 612 
Q 2213 459 2578 459 
L 3225 459 
L 3225 0 
L 2522 0 
Q 1875 0 1609 259 
Q 1344 519 1344 1153 
L 1344 3053 
L 409 3053 
L 409 3500 
L 1344 3500 
L 1344 4494 
L 1919 4494 
z
" transform="scale(0.015625)"/>
       <path id="DejaVuSansMono-2e" d="M 1528 953 
L 2316 953 
L 2316 0 
L 1528 0 
L 1528 953 
z
" transform="scale(0.015625)"/>
       <path id="DejaVuSansMono-65" d="M 3475 1894 
L 3475 1613 
L 984 1613 
L 984 1594 
Q 984 1022 1282 709 
Q 1581 397 2125 397 
Q 2400 397 2700 484 
Q 3000 572 3341 750 
L 3341 178 
Q 3013 44 2708 -23 
Q 2403 -91 2119 -91 
Q 1303 -91 843 398 
Q 384 888 384 1747 
Q 384 2584 834 3084 
Q 1284 3584 2034 3584 
Q 2703 3584 3089 3131 
Q 3475 2678 3475 1894 
z
M 2900 2063 
Q 2888 2569 2661 2833 
Q 2434 3097 2009 3097 
Q 1594 3097 1325 2822 
Q 1056 2547 1006 2059 
L 2900 2063 
z
" transform="scale(0.015625)"/>
      </defs>
      <use xlink:href="#DejaVuSansMono-64"/>
      <use xlink:href="#DejaVuSansMono-79" x="60.205078"/>
      <use xlink:href="#DejaVuSansMono-6e" x="120.410156"/>
      <use xlink:href="#DejaVuSansMono-6f" x="180.615234"/>
      <use xlink:href="#DejaVuSansMono-6d" x="240.820312"/>
      <use xlink:href="#DejaVuSansMono-69" x="301.025391"/>
      <use xlink:href="#DejaVuSansMono-67" x="361.230469"/>
      <use xlink:href="#DejaVuSansMono-68" x="421.435547"/>
      <use xlink:href="#DejaVuSansMono-74" x="481.640625"/>
      <use xlink:href="#DejaVuSansMono-2e" x="541.845703"/>
      <use xlink:href="#DejaVuSansMono-6e" x="602.050781"/>
      <use xlink:href="#DejaVuSansMono-65" x="662.255859"/>
      <use xlink:href="#DejaVuSansMono-74" x="722.460938"/>
     </g>
    </a>
   </g>
   <g id="text_16">
    <!-- Cost of compute to achieve a given loss -->
    <g transform="translate(102.733125 28.56)scale(0.12 -0.12)">
     <defs>
      <path id="Montserrat-Regular-43" d="M 2675 -38 
Q 2010 -38 1475 256 
Q 941 550 637 1072 
Q 333 1594 333 2240 
Q 333 2886 637 3408 
Q 941 3930 1478 4224 
Q 2016 4518 2682 4518 
Q 3181 4518 3603 4352 
Q 4026 4186 4320 3866 
L 4019 3565 
Q 3494 4096 2694 4096 
Q 2163 4096 1728 3853 
Q 1293 3610 1046 3187 
Q 800 2765 800 2240 
Q 800 1715 1046 1292 
Q 1293 870 1728 627 
Q 2163 384 2694 384 
Q 3501 384 4019 922 
L 4320 621 
Q 4026 301 3600 131 
Q 3174 -38 2675 -38 
z
" transform="scale(0.015625)"/>
      <path id="Montserrat-Regular-70" d="M 2368 3392 
Q 2842 3392 3226 3177 
Q 3610 2963 3827 2572 
Q 4045 2182 4045 1683 
Q 4045 1178 3827 787 
Q 3610 397 3229 182 
Q 2848 -32 2368 -32 
Q 1958 -32 1628 137 
Q 1299 307 1088 634 
L 1088 -1242 
L 634 -1242 
L 634 3366 
L 1069 3366 
L 1069 2701 
Q 1274 3034 1610 3213 
Q 1946 3392 2368 3392 
z
M 2336 371 
Q 2688 371 2976 534 
Q 3264 698 3427 998 
Q 3590 1299 3590 1683 
Q 3590 2067 3427 2364 
Q 3264 2662 2976 2828 
Q 2688 2995 2336 2995 
Q 1978 2995 1693 2828 
Q 1408 2662 1245 2364 
Q 1082 2067 1082 1683 
Q 1082 1299 1245 998 
Q 1408 698 1693 534 
Q 1978 371 2336 371 
z
" transform="scale(0.015625)"/>
      <path id="Montserrat-Regular-75" d="M 3667 3366 
L 3667 0 
L 3232 0 
L 3232 614 
Q 3053 307 2739 137 
Q 2426 -32 2022 -32 
Q 1363 -32 982 336 
Q 602 704 602 1414 
L 602 3366 
L 1056 3366 
L 1056 1459 
Q 1056 928 1318 653 
Q 1581 378 2067 378 
Q 2598 378 2905 701 
Q 3213 1024 3213 1600 
L 3213 3366 
L 3667 3366 
z
" transform="scale(0.015625)"/>
      <path id="Montserrat-Regular-68" d="M 2349 3392 
Q 2982 3392 3356 3024 
Q 3731 2656 3731 1952 
L 3731 0 
L 3277 0 
L 3277 1907 
Q 3277 2432 3014 2707 
Q 2752 2982 2266 2982 
Q 1722 2982 1405 2659 
Q 1088 2336 1088 1766 
L 1088 0 
L 634 0 
L 634 4749 
L 1088 4749 
L 1088 2778 
Q 1274 3072 1600 3232 
Q 1926 3392 2349 3392 
z
" transform="scale(0.015625)"/>
      <path id="Montserrat-Regular-76" d="M 3462 3366 
L 1965 0 
L 1498 0 
L 6 3366 
L 480 3366 
L 1741 499 
L 3014 3366 
L 3462 3366 
z
" transform="scale(0.015625)"/>
      <path id="Montserrat-Regular-67" d="M 3750 3366 
L 3750 410 
Q 3750 -448 3331 -861 
Q 2912 -1274 2067 -1274 
Q 1600 -1274 1181 -1136 
Q 762 -998 499 -755 
L 730 -410 
Q 973 -627 1321 -748 
Q 1670 -870 2054 -870 
Q 2694 -870 2995 -572 
Q 3296 -275 3296 352 
L 3296 781 
Q 3085 461 2742 294 
Q 2400 128 1984 128 
Q 1510 128 1123 336 
Q 736 544 515 918 
Q 294 1293 294 1766 
Q 294 2240 515 2611 
Q 736 2982 1120 3187 
Q 1504 3392 1984 3392 
Q 2413 3392 2758 3219 
Q 3104 3046 3315 2720 
L 3315 3366 
L 3750 3366 
z
M 2029 531 
Q 2394 531 2688 688 
Q 2982 845 3145 1126 
Q 3309 1408 3309 1766 
Q 3309 2125 3145 2403 
Q 2982 2682 2691 2838 
Q 2400 2995 2029 2995 
Q 1664 2995 1373 2841 
Q 1082 2688 918 2406 
Q 755 2125 755 1766 
Q 755 1408 918 1126 
Q 1082 845 1373 688 
Q 1664 531 2029 531 
z
" transform="scale(0.015625)"/>
     </defs>
     <use xlink:href="#Montserrat-Regular-43"/>
     <use xlink:href="#Montserrat-Regular-6f" x="71.899994"/>
     <use xlink:href="#Montserrat-Regular-73" x="134.599991"/>
     <use xlink:href="#Montserrat-Regular-74" x="183.499985"/>
     <use xlink:href="#Montserrat-Regular-20" x="224.099976"/>
     <use xlink:href="#Montserrat-Regular-6f" x="250.299973"/>
     <use xlink:href="#Montserrat-Regular-66" x="312.999969"/>
     <use xlink:href="#Montserrat-Regular-20" x="346.899963"/>
     <use xlink:href="#Montserrat-Regular-63" x="373.09996"/>
     <use xlink:href="#Montserrat-Regular-6f" x="429.399948"/>
     <use xlink:href="#Montserrat-Regular-6d" x="492.099945"/>
     <use xlink:href="#Montserrat-Regular-70" x="598.199936"/>
     <use xlink:href="#Montserrat-Regular-75" x="665.999924"/>
     <use xlink:href="#Montserrat-Regular-74" x="733.299911"/>
     <use xlink:href="#Montserrat-Regular-65" x="773.899902"/>
     <use xlink:href="#Montserrat-Regular-20" x="834.299896"/>
     <use xlink:href="#Montserrat-Regular-74" x="860.499893"/>
     <use xlink:href="#Montserrat-Regular-6f" x="901.099884"/>
     <use xlink:href="#Montserrat-Regular-20" x="963.799881"/>
     <use xlink:href="#Montserrat-Regular-61" x="989.999878"/>
     <use xlink:href="#Montserrat-Regular-63" x="1048.999863"/>
     <use xlink:href="#Montserrat-Regular-68" x="1105.29985"/>
     <use xlink:href="#Montserrat-Regular-69" x="1172.999832"/>
     <use xlink:href="#Montserrat-Regular-65" x="1199.899826"/>
     <use xlink:href="#Montserrat-Regular-76" x="1260.29982"/>
     <use xlink:href="#Montserrat-Regular-65" x="1314.499817"/>
     <use xlink:href="#Montserrat-Regular-20" x="1374.899811"/>
     <use xlink:href="#Montserrat-Regular-61" x="1401.099808"/>
     <use xlink:href="#Montserrat-Regular-20" x="1460.099792"/>
     <use xlink:href="#Montserrat-Regular-67" x="1486.299789"/>
     <use xlink:href="#Montserrat-Regular-69" x="1554.89978"/>
     <use xlink:href="#Montserrat-Regular-76" x="1581.799774"/>
     <use xlink:href="#Montserrat-Regular-65" x="1635.999771"/>
     <use xlink:href="#Montserrat-Regular-6e" x="1696.399765"/>
     <use xlink:href="#Montserrat-Regular-20" x="1764.099747"/>
     <use xlink:href="#Montserrat-Regular-6c" x="1790.299744"/>
     <use xlink:href="#Montserrat-Regular-6f" x="1817.199738"/>
     <use xlink:href="#Montserrat-Regular-73" x="1879.899734"/>
     <use xlink:href="#Montserrat-Regular-73" x="1928.799728"/>
    </g>
   </g>
   <g id="legend_1">
    <g id="line2d_20">
     <path d="M 277.259375 47.480312 
L 287.259375 47.480312 
L 297.259375 47.480312 
" style="fill: none; stroke: #1f77b4; stroke-width: 1.5; stroke-linecap: square"/>
    </g>
    <g id="text_17">
     <!-- estimated cost -->
     <g transform="translate(305.259375 50.980312)scale(0.1 -0.1)">
      <use xlink:href="#Montserrat-Regular-65"/>
      <use xlink:href="#Montserrat-Regular-73" x="60.399994"/>
      <use xlink:href="#Montserrat-Regular-74" x="109.299988"/>
      <use xlink:href="#Montserrat-Regular-69" x="149.899979"/>
      <use xlink:href="#Montserrat-Regular-6d" x="176.799973"/>
      <use xlink:href="#Montserrat-Regular-61" x="282.899963"/>
      <use xlink:href="#Montserrat-Regular-74" x="341.899948"/>
      <use xlink:href="#Montserrat-Regular-65" x="382.499939"/>
      <use xlink:href="#Montserrat-Regular-64" x="442.899933"/>
      <use xlink:href="#Montserrat-Regular-20" x="510.699921"/>
      <use xlink:href="#Montserrat-Regular-63" x="536.899918"/>
      <use xlink:href="#Montserrat-Regular-6f" x="593.199905"/>
      <use xlink:href="#Montserrat-Regular-73" x="655.899902"/>
      <use xlink:href="#Montserrat-Regular-74" x="704.799896"/>
     </g>
    </g>
    <g id="line2d_21">
     <g>
      <use xlink:href="#m7bda828af5" x="287.259375" y="61.84125" style="fill-opacity: 0; stroke: #ff7f0e"/>
     </g>
    </g>
    <g id="text_18">
     <!-- lesotho -->
     <g transform="translate(305.259375 65.34125)scale(0.1 -0.1)">
      <use xlink:href="#Montserrat-Regular-6c"/>
      <use xlink:href="#Montserrat-Regular-65" x="26.899994"/>
      <use xlink:href="#Montserrat-Regular-73" x="87.299988"/>
      <use xlink:href="#Montserrat-Regular-6f" x="136.199982"/>
      <use xlink:href="#Montserrat-Regular-74" x="198.899979"/>
      <use xlink:href="#Montserrat-Regular-68" x="239.499969"/>
      <use xlink:href="#Montserrat-Regular-6f" x="307.199951"/>
     </g>
    </g>
    <g id="line2d_22">
     <g>
      <use xlink:href="#mfe9e05b1bd" x="287.259375" y="76.202188" style="fill-opacity: 0; stroke: #2ca02c"/>
     </g>
    </g>
    <g id="text_19">
     <!-- albania -->
     <g transform="translate(305.259375 79.702188)scale(0.1 -0.1)">
      <defs>
       <path id="Montserrat-Regular-62" d="M 2368 3392 
Q 2842 3392 3226 3177 
Q 3610 2963 3827 2572 
Q 4045 2182 4045 1683 
Q 4045 1184 3827 793 
Q 3610 403 3226 185 
Q 2842 -32 2368 -32 
Q 1946 -32 1610 147 
Q 1274 326 1069 666 
L 1069 0 
L 634 0 
L 634 4749 
L 1088 4749 
L 1088 2726 
Q 1299 3053 1628 3222 
Q 1958 3392 2368 3392 
z
M 2336 371 
Q 2688 371 2976 534 
Q 3264 698 3427 998 
Q 3590 1299 3590 1683 
Q 3590 2067 3427 2368 
Q 3264 2669 2976 2832 
Q 2688 2995 2336 2995 
Q 1978 2995 1693 2832 
Q 1408 2669 1245 2368 
Q 1082 2067 1082 1683 
Q 1082 1299 1245 998 
Q 1408 698 1693 534 
Q 1978 371 2336 371 
z
" transform="scale(0.015625)"/>
      </defs>
      <use xlink:href="#Montserrat-Regular-61"/>
      <use xlink:href="#Montserrat-Regular-6c" x="58.999985"/>
      <use xlink:href="#Montserrat-Regular-62" x="85.899979"/>
      <use xlink:href="#Montserrat-Regular-61" x="153.699966"/>
      <use xlink:href="#Montserrat-Regular-6e" x="212.699951"/>
      <use xlink:href="#Montserrat-Regular-69" x="280.399933"/>
      <use xlink:href="#Montserrat-Regular-61" x="307.299927"/>
     </g>
    </g>
    <g id="line2d_23">
     <g>
      <use xlink:href="#mc2e44e7cbf" x="287.259375" y="90.563125" style="fill-opacity: 0; stroke: #d62728"/>
     </g>
    </g>
    <g id="text_20">
     <!-- vermont -->
     <g transform="translate(305.259375 94.063125)scale(0.1 -0.1)">
      <use xlink:href="#Montserrat-Regular-76"/>
      <use xlink:href="#Montserrat-Regular-65" x="54.199997"/>
      <use xlink:href="#Montserrat-Regular-72" x="114.599991"/>
      <use xlink:href="#Montserrat-Regular-6d" x="154.699982"/>
      <use xlink:href="#Montserrat-Regular-6f" x="260.799973"/>
      <use xlink:href="#Montserrat-Regular-6e" x="323.499969"/>
      <use xlink:href="#Montserrat-Regular-74" x="391.199951"/>
     </g>
    </g>
    <g id="line2d_24">
     <g>
      <use xlink:href="#m0af8062ca9" x="287.259375" y="104.924062" style="fill-opacity: 0; stroke: #9467bd"/>
     </g>
    </g>
    <g id="text_21">
     <!-- france -->
     <g transform="translate(305.259375 108.424062)scale(0.1 -0.1)">
      <use xlink:href="#Montserrat-Regular-66"/>
      <use xlink:href="#Montserrat-Regular-72" x="33.899994"/>
      <use xlink:href="#Montserrat-Regular-61" x="73.999985"/>
      <use xlink:href="#Montserrat-Regular-6e" x="132.999969"/>
      <use xlink:href="#Montserrat-Regular-63" x="200.699951"/>
      <use xlink:href="#Montserrat-Regular-65" x="256.999939"/>
     </g>
    </g>
    <g id="line2d_25">
     <g>
      <use xlink:href="#m9c127e4096" x="287.259375" y="119.285" style="fill-opacity: 0; stroke: #8c564b"/>
     </g>
    </g>
    <g id="text_22">
     <!-- usa -->
     <g transform="translate(305.259375 122.785)scale(0.1 -0.1)">
      <use xlink:href="#Montserrat-Regular-75"/>
      <use xlink:href="#Montserrat-Regular-73" x="67.299988"/>
      <use xlink:href="#Montserrat-Regular-61" x="116.199982"/>
     </g>
    </g>
    <g id="line2d_26">
     <g>
      <use xlink:href="#mcf76c7d59d" x="287.259375" y="133.645938" style="fill-opacity: 0; stroke: #e377c2"/>
     </g>
    </g>
    <g id="text_23">
     <!-- world -->
     <g transform="translate(305.259375 137.145938)scale(0.1 -0.1)">
      <defs>
       <path id="Montserrat-Regular-77" d="M 5574 3366 
L 4301 0 
L 3872 0 
L 2810 2758 
L 1747 0 
L 1318 0 
L 51 3366 
L 486 3366 
L 1542 506 
L 2624 3366 
L 3014 3366 
L 4090 506 
L 5158 3366 
L 5574 3366 
z
" transform="scale(0.015625)"/>
      </defs>
      <use xlink:href="#Montserrat-Regular-77"/>
      <use xlink:href="#Montserrat-Regular-6f" x="87.899994"/>
      <use xlink:href="#Montserrat-Regular-72" x="150.599991"/>
      <use xlink:href="#Montserrat-Regular-6c" x="190.699982"/>
      <use xlink:href="#Montserrat-Regular-64" x="217.599976"/>
     </g>
    </g>
   </g>
  </g>
 </g>
 <defs>
  <clipPath id="pceb2d83480">
   <rect x="54" y="34.56" width="334.8" height="217.44"/>
  </clipPath>
 </defs>
</svg>
