<?xml version="1.0" encoding="utf-8" standalone="no"?>
<!DOCTYPE svg PUBLIC "-//W3C//DTD SVG 1.1//EN"
  "http://www.w3.org/Graphics/SVG/1.1/DTD/svg11.dtd">
<svg xmlns:xlink="http://www.w3.org/1999/xlink" width="432pt" height="288pt" viewBox="0 0 432 288" xmlns="http://www.w3.org/2000/svg" version="1.1">
 <metadata>
  <rdf:RDF xmlns:dc="http://purl.org/dc/elements/1.1/" xmlns:cc="http://creativecommons.org/ns#" xmlns:rdf="http://www.w3.org/1999/02/22-rdf-syntax-ns#">
   <cc:Work>
    <dc:type rdf:resource="http://purl.org/dc/dcmitype/StillImage"/>
    <dc:date>2023-03-01T12:24:08.333499</dc:date>
    <dc:format>image/svg+xml</dc:format>
    <dc:creator>
     <cc:Agent>
      <dc:title>Matplotlib v3.5.1, https://matplotlib.org/</dc:title>
     </cc:Agent>
    </dc:creator>
   </cc:Work>
  </rdf:RDF>
 </metadata>
 <defs>
  <style type="text/css">*{stroke-linejoin: round; stroke-linecap: butt}</style>
 </defs>
 <g id="figure_1">
  <g id="patch_1">
   <path d="M 0 288 
L 432 288 
L 432 0 
L 0 0 
L 0 288 
z
" style="fill: none"/>
  </g>
  <g id="axes_1">
   <g id="patch_2">
    <path d="M 54 252 
L 388.8 252 
L 388.8 34.56 
L 54 34.56 
z
" style="fill: #ffffff"/>
   </g>
   <g id="matplotlib.axis_1">
    <g id="xtick_1">
     <g id="line2d_1">
      <defs>
       <path id="md723f9e2fd" d="M 0 0 
L 0 3.5 
" style="stroke: #000000; stroke-width: 0.8"/>
      </defs>
      <g>
       <use xlink:href="#md723f9e2fd" x="54" y="252" style="stroke: #000000; stroke-width: 0.8"/>
      </g>
     </g>
     <g id="text_1">
      <!-- $\mathdefault{10^{19}}$ -->
      <g transform="translate(45.3 266.420313)scale(0.1 -0.1)">
       <defs>
        <path id="Montserrat-Regular-31" d="M 1574 4480 
L 1574 0 
L 1114 0 
L 1114 4070 
L 58 4070 
L 58 4480 
L 1574 4480 
z
" transform="scale(0.015625)"/>
        <path id="Montserrat-Regular-30" d="M 2118 -38 
Q 1600 -38 1193 237 
Q 787 512 560 1027 
Q 333 1542 333 2240 
Q 333 2938 560 3453 
Q 787 3968 1193 4243 
Q 1600 4518 2118 4518 
Q 2637 4518 3043 4243 
Q 3450 3968 3680 3453 
Q 3910 2938 3910 2240 
Q 3910 1542 3680 1027 
Q 3450 512 3043 237 
Q 2637 -38 2118 -38 
z
M 2118 384 
Q 2509 384 2806 601 
Q 3104 819 3270 1235 
Q 3437 1651 3437 2240 
Q 3437 2829 3270 3245 
Q 3104 3661 2806 3878 
Q 2509 4096 2118 4096 
Q 1728 4096 1430 3878 
Q 1133 3661 966 3245 
Q 800 2829 800 2240 
Q 800 1651 966 1235 
Q 1133 819 1430 601 
Q 1728 384 2118 384 
z
" transform="scale(0.015625)"/>
        <path id="Montserrat-Regular-39" d="M 1728 4518 
Q 2618 4518 3091 3932 
Q 3565 3347 3565 2278 
Q 3565 1530 3309 1011 
Q 3053 493 2592 227 
Q 2131 -38 1517 -38 
Q 851 -38 454 205 
L 640 576 
Q 960 365 1510 365 
Q 2253 365 2675 835 
Q 3098 1306 3098 2202 
Q 3098 2368 3078 2566 
Q 2912 2202 2547 2000 
Q 2182 1798 1709 1798 
Q 1267 1798 924 1964 
Q 582 2131 390 2435 
Q 198 2739 198 3142 
Q 198 3552 396 3865 
Q 595 4179 944 4348 
Q 1293 4518 1728 4518 
z
M 1779 2189 
Q 2118 2189 2377 2317 
Q 2637 2445 2784 2669 
Q 2931 2893 2931 3168 
Q 2931 3424 2793 3641 
Q 2656 3859 2387 3993 
Q 2118 4128 1747 4128 
Q 1261 4128 957 3862 
Q 653 3597 653 3155 
Q 653 2714 957 2451 
Q 1261 2189 1779 2189 
z
" transform="scale(0.015625)"/>
       </defs>
       <use xlink:href="#Montserrat-Regular-31" transform="translate(0 0.76875)"/>
       <use xlink:href="#Montserrat-Regular-30" transform="translate(36.099991 0.76875)"/>
       <use xlink:href="#Montserrat-Regular-31" transform="translate(103.220378 37.584375)scale(0.7)"/>
       <use xlink:href="#Montserrat-Regular-39" transform="translate(128.490372 37.584375)scale(0.7)"/>
      </g>
     </g>
    </g>
    <g id="xtick_2">
     <g id="line2d_2">
      <g>
       <use xlink:href="#md723f9e2fd" x="98.64" y="252" style="stroke: #000000; stroke-width: 0.8"/>
      </g>
     </g>
     <g id="text_2">
      <!-- $\mathdefault{10^{21}}$ -->
      <g transform="translate(90.09 266.420313)scale(0.1 -0.1)">
       <defs>
        <path id="Montserrat-Regular-32" d="M 3392 410 
L 3392 0 
L 250 0 
L 250 326 
L 2112 2150 
Q 2464 2496 2589 2749 
Q 2714 3002 2714 3258 
Q 2714 3654 2442 3875 
Q 2170 4096 1664 4096 
Q 877 4096 442 3597 
L 115 3878 
Q 378 4186 784 4352 
Q 1190 4518 1702 4518 
Q 2387 4518 2787 4195 
Q 3187 3872 3187 3309 
Q 3187 2963 3033 2643 
Q 2880 2323 2451 1907 
L 928 410 
L 3392 410 
z
" transform="scale(0.015625)"/>
       </defs>
       <use xlink:href="#Montserrat-Regular-31" transform="translate(0 0.76875)"/>
       <use xlink:href="#Montserrat-Regular-30" transform="translate(36.099991 0.76875)"/>
       <use xlink:href="#Montserrat-Regular-32" transform="translate(103.220378 37.584375)scale(0.7)"/>
       <use xlink:href="#Montserrat-Regular-31" transform="translate(142.98037 37.584375)scale(0.7)"/>
      </g>
     </g>
    </g>
    <g id="xtick_3">
     <g id="line2d_3">
      <g>
       <use xlink:href="#md723f9e2fd" x="143.28" y="252" style="stroke: #000000; stroke-width: 0.8"/>
      </g>
     </g>
     <g id="text_3">
      <!-- $\mathdefault{10^{23}}$ -->
      <g transform="translate(133.98 266.420313)scale(0.1 -0.1)">
       <defs>
        <path id="Montserrat-Regular-33" d="M 1856 2560 
Q 2560 2522 2928 2179 
Q 3296 1837 3296 1286 
Q 3296 902 3110 604 
Q 2925 307 2560 134 
Q 2195 -38 1670 -38 
Q 1184 -38 752 118 
Q 320 275 58 538 
L 282 902 
Q 506 672 877 528 
Q 1248 384 1670 384 
Q 2221 384 2521 624 
Q 2822 864 2822 1286 
Q 2822 1702 2521 1939 
Q 2221 2176 1613 2176 
L 1293 2176 
L 1293 2515 
L 2534 4070 
L 243 4070 
L 243 4480 
L 3123 4480 
L 3123 4154 
L 1856 2560 
z
" transform="scale(0.015625)"/>
       </defs>
       <use xlink:href="#Montserrat-Regular-31" transform="translate(0 0.76875)"/>
       <use xlink:href="#Montserrat-Regular-30" transform="translate(36.099991 0.76875)"/>
       <use xlink:href="#Montserrat-Regular-32" transform="translate(103.220378 37.584375)scale(0.7)"/>
       <use xlink:href="#Montserrat-Regular-33" transform="translate(142.98037 37.584375)scale(0.7)"/>
      </g>
     </g>
    </g>
    <g id="xtick_4">
     <g id="line2d_4">
      <g>
       <use xlink:href="#md723f9e2fd" x="187.92" y="252" style="stroke: #000000; stroke-width: 0.8"/>
      </g>
     </g>
     <g id="text_4">
      <!-- $\mathdefault{10^{25}}$ -->
      <g transform="translate(178.62 266.420313)scale(0.1 -0.1)">
       <defs>
        <path id="Montserrat-Regular-35" d="M 1510 2643 
Q 2483 2643 2928 2294 
Q 3373 1946 3373 1318 
Q 3373 928 3190 621 
Q 3008 314 2643 138 
Q 2278 -38 1747 -38 
Q 1267 -38 835 118 
Q 403 275 141 538 
L 365 902 
Q 589 672 953 528 
Q 1318 384 1741 384 
Q 2298 384 2602 633 
Q 2906 883 2906 1299 
Q 2906 1760 2563 1997 
Q 2221 2234 1408 2234 
L 454 2234 
L 685 4480 
L 3136 4480 
L 3136 4070 
L 1088 4070 
L 934 2643 
L 1510 2643 
z
" transform="scale(0.015625)"/>
       </defs>
       <use xlink:href="#Montserrat-Regular-31" transform="translate(0 0.76875)"/>
       <use xlink:href="#Montserrat-Regular-30" transform="translate(36.099991 0.76875)"/>
       <use xlink:href="#Montserrat-Regular-32" transform="translate(103.220378 37.584375)scale(0.7)"/>
       <use xlink:href="#Montserrat-Regular-35" transform="translate(142.98037 37.584375)scale(0.7)"/>
      </g>
     </g>
    </g>
    <g id="xtick_5">
     <g id="line2d_5">
      <g>
       <use xlink:href="#md723f9e2fd" x="232.56" y="252" style="stroke: #000000; stroke-width: 0.8"/>
      </g>
     </g>
     <g id="text_5">
      <!-- $\mathdefault{10^{27}}$ -->
      <g transform="translate(223.21 266.420313)scale(0.1 -0.1)">
       <defs>
        <path id="Montserrat-Regular-37" d="M 3494 4480 
L 3494 4154 
L 1619 0 
L 1120 0 
L 2963 4070 
L 659 4070 
L 659 3232 
L 205 3232 
L 205 4480 
L 3494 4480 
z
" transform="scale(0.015625)"/>
       </defs>
       <use xlink:href="#Montserrat-Regular-31" transform="translate(0 0.76875)"/>
       <use xlink:href="#Montserrat-Regular-30" transform="translate(36.099991 0.76875)"/>
       <use xlink:href="#Montserrat-Regular-32" transform="translate(103.220378 37.584375)scale(0.7)"/>
       <use xlink:href="#Montserrat-Regular-37" transform="translate(142.98037 37.584375)scale(0.7)"/>
      </g>
     </g>
    </g>
    <g id="xtick_6">
     <g id="line2d_6">
      <g>
       <use xlink:href="#md723f9e2fd" x="277.2" y="252" style="stroke: #000000; stroke-width: 0.8"/>
      </g>
     </g>
     <g id="text_6">
      <!-- $\mathdefault{10^{29}}$ -->
      <g transform="translate(267.75 266.420313)scale(0.1 -0.1)">
       <use xlink:href="#Montserrat-Regular-31" transform="translate(0 0.76875)"/>
       <use xlink:href="#Montserrat-Regular-30" transform="translate(36.099991 0.76875)"/>
       <use xlink:href="#Montserrat-Regular-32" transform="translate(103.220378 37.584375)scale(0.7)"/>
       <use xlink:href="#Montserrat-Regular-39" transform="translate(142.98037 37.584375)scale(0.7)"/>
      </g>
     </g>
    </g>
    <g id="xtick_7">
     <g id="line2d_7">
      <g>
       <use xlink:href="#md723f9e2fd" x="321.84" y="252" style="stroke: #000000; stroke-width: 0.8"/>
      </g>
     </g>
     <g id="text_7">
      <!-- $\mathdefault{10^{31}}$ -->
      <g transform="translate(313.29 266.420313)scale(0.1 -0.1)">
       <use xlink:href="#Montserrat-Regular-31" transform="translate(0 0.184375)"/>
       <use xlink:href="#Montserrat-Regular-30" transform="translate(36.099991 0.184375)"/>
       <use xlink:href="#Montserrat-Regular-33" transform="translate(103.220378 37)scale(0.7)"/>
       <use xlink:href="#Montserrat-Regular-31" transform="translate(142.700374 37)scale(0.7)"/>
      </g>
     </g>
    </g>
    <g id="xtick_8">
     <g id="line2d_8">
      <g>
       <use xlink:href="#md723f9e2fd" x="366.48" y="252" style="stroke: #000000; stroke-width: 0.8"/>
      </g>
     </g>
     <g id="text_8">
      <!-- $\mathdefault{10^{33}}$ -->
      <g transform="translate(357.23 266.420313)scale(0.1 -0.1)">
       <use xlink:href="#Montserrat-Regular-31" transform="translate(0 0.184375)"/>
       <use xlink:href="#Montserrat-Regular-30" transform="translate(36.099991 0.184375)"/>
       <use xlink:href="#Montserrat-Regular-33" transform="translate(103.220378 37)scale(0.7)"/>
       <use xlink:href="#Montserrat-Regular-33" transform="translate(142.700374 37)scale(0.7)"/>
      </g>
     </g>
    </g>
    <g id="text_9">
     <!-- compute (FLOPs) -->
     <g transform="translate(177.399219 279.78125)scale(0.1 -0.1)">
      <defs>
       <path id="Montserrat-Regular-63" d="M 2029 -32 
Q 1530 -32 1136 185 
Q 742 403 518 796 
Q 294 1190 294 1683 
Q 294 2176 518 2566 
Q 742 2957 1136 3174 
Q 1530 3392 2029 3392 
Q 2464 3392 2806 3222 
Q 3149 3053 3347 2726 
L 3008 2496 
Q 2842 2746 2586 2870 
Q 2330 2995 2029 2995 
Q 1664 2995 1373 2832 
Q 1082 2669 918 2368 
Q 755 2067 755 1683 
Q 755 1293 918 995 
Q 1082 698 1373 534 
Q 1664 371 2029 371 
Q 2330 371 2586 492 
Q 2842 614 3008 864 
L 3347 634 
Q 3149 307 2803 137 
Q 2458 -32 2029 -32 
z
" transform="scale(0.015625)"/>
       <path id="Montserrat-Regular-6f" d="M 2010 -32 
Q 1523 -32 1132 189 
Q 742 410 518 800 
Q 294 1190 294 1683 
Q 294 2176 518 2566 
Q 742 2957 1132 3174 
Q 1523 3392 2010 3392 
Q 2496 3392 2886 3174 
Q 3277 2957 3497 2566 
Q 3718 2176 3718 1683 
Q 3718 1190 3497 800 
Q 3277 410 2886 189 
Q 2496 -32 2010 -32 
z
M 2010 371 
Q 2368 371 2653 534 
Q 2938 698 3098 998 
Q 3258 1299 3258 1683 
Q 3258 2067 3098 2368 
Q 2938 2669 2653 2832 
Q 2368 2995 2010 2995 
Q 1651 2995 1366 2832 
Q 1082 2669 918 2368 
Q 755 2067 755 1683 
Q 755 1299 918 998 
Q 1082 698 1366 534 
Q 1651 371 2010 371 
z
" transform="scale(0.015625)"/>
       <path id="Montserrat-Regular-6d" d="M 4832 3392 
Q 5466 3392 5827 3027 
Q 6189 2662 6189 1952 
L 6189 0 
L 5734 0 
L 5734 1907 
Q 5734 2432 5481 2707 
Q 5229 2982 4768 2982 
Q 4243 2982 3942 2659 
Q 3642 2336 3642 1766 
L 3642 0 
L 3187 0 
L 3187 1907 
Q 3187 2432 2934 2707 
Q 2682 2982 2214 2982 
Q 1696 2982 1392 2659 
Q 1088 2336 1088 1766 
L 1088 0 
L 634 0 
L 634 3366 
L 1069 3366 
L 1069 2752 
Q 1248 3059 1568 3225 
Q 1888 3392 2304 3392 
Q 2726 3392 3036 3213 
Q 3347 3034 3501 2682 
Q 3686 3014 4035 3203 
Q 4384 3392 4832 3392 
z
" transform="scale(0.015625)"/>
       <path id="Montserrat-Regular-70" d="M 2368 3392 
Q 2842 3392 3226 3177 
Q 3610 2963 3827 2572 
Q 4045 2182 4045 1683 
Q 4045 1178 3827 787 
Q 3610 397 3229 182 
Q 2848 -32 2368 -32 
Q 1958 -32 1628 137 
Q 1299 307 1088 634 
L 1088 -1242 
L 634 -1242 
L 634 3366 
L 1069 3366 
L 1069 2701 
Q 1274 3034 1610 3213 
Q 1946 3392 2368 3392 
z
M 2336 371 
Q 2688 371 2976 534 
Q 3264 698 3427 998 
Q 3590 1299 3590 1683 
Q 3590 2067 3427 2364 
Q 3264 2662 2976 2828 
Q 2688 2995 2336 2995 
Q 1978 2995 1693 2828 
Q 1408 2662 1245 2364 
Q 1082 2067 1082 1683 
Q 1082 1299 1245 998 
Q 1408 698 1693 534 
Q 1978 371 2336 371 
z
" transform="scale(0.015625)"/>
       <path id="Montserrat-Regular-75" d="M 3667 3366 
L 3667 0 
L 3232 0 
L 3232 614 
Q 3053 307 2739 137 
Q 2426 -32 2022 -32 
Q 1363 -32 982 336 
Q 602 704 602 1414 
L 602 3366 
L 1056 3366 
L 1056 1459 
Q 1056 928 1318 653 
Q 1581 378 2067 378 
Q 2598 378 2905 701 
Q 3213 1024 3213 1600 
L 3213 3366 
L 3667 3366 
z
" transform="scale(0.015625)"/>
       <path id="Montserrat-Regular-74" d="M 2406 205 
Q 2278 90 2089 29 
Q 1901 -32 1696 -32 
Q 1222 -32 966 224 
Q 710 480 710 947 
L 710 2982 
L 109 2982 
L 109 3366 
L 710 3366 
L 710 4102 
L 1165 4102 
L 1165 3366 
L 2189 3366 
L 2189 2982 
L 1165 2982 
L 1165 973 
Q 1165 672 1315 515 
Q 1466 358 1747 358 
Q 1888 358 2019 403 
Q 2150 448 2246 531 
L 2406 205 
z
" transform="scale(0.015625)"/>
       <path id="Montserrat-Regular-65" d="M 3565 1542 
L 749 1542 
Q 787 1018 1152 694 
Q 1517 371 2074 371 
Q 2387 371 2649 483 
Q 2912 595 3104 813 
L 3360 518 
Q 3136 250 2800 109 
Q 2464 -32 2061 -32 
Q 1542 -32 1142 189 
Q 742 410 518 800 
Q 294 1190 294 1683 
Q 294 2176 508 2566 
Q 723 2957 1097 3174 
Q 1472 3392 1939 3392 
Q 2406 3392 2777 3174 
Q 3149 2957 3360 2569 
Q 3571 2182 3571 1683 
L 3565 1542 
z
M 1939 3002 
Q 1453 3002 1123 2691 
Q 794 2381 749 1882 
L 3136 1882 
Q 3091 2381 2761 2691 
Q 2432 3002 1939 3002 
z
" transform="scale(0.015625)"/>
       <path id="Montserrat-Regular-20" transform="scale(0.015625)"/>
       <path id="Montserrat-Regular-28" d="M 1408 -1242 
Q 1050 -653 858 112 
Q 666 877 666 1754 
Q 666 2630 858 3401 
Q 1050 4173 1408 4749 
L 1843 4749 
Q 1466 4102 1290 3360 
Q 1114 2618 1114 1754 
Q 1114 890 1290 147 
Q 1466 -595 1843 -1242 
L 1408 -1242 
z
" transform="scale(0.015625)"/>
       <path id="Montserrat-Regular-46" d="M 1203 4070 
L 1203 2310 
L 3520 2310 
L 3520 1901 
L 1203 1901 
L 1203 0 
L 730 0 
L 730 4480 
L 3802 4480 
L 3802 4070 
L 1203 4070 
z
" transform="scale(0.015625)"/>
       <path id="Montserrat-Regular-4c" d="M 730 4480 
L 1203 4480 
L 1203 410 
L 3712 410 
L 3712 0 
L 730 0 
L 730 4480 
z
" transform="scale(0.015625)"/>
       <path id="Montserrat-Regular-4f" d="M 2688 -38 
Q 2022 -38 1481 259 
Q 941 557 637 1075 
Q 333 1594 333 2240 
Q 333 2886 637 3404 
Q 941 3923 1481 4220 
Q 2022 4518 2688 4518 
Q 3354 4518 3888 4224 
Q 4422 3930 4729 3408 
Q 5037 2886 5037 2240 
Q 5037 1594 4729 1072 
Q 4422 550 3888 256 
Q 3354 -38 2688 -38 
z
M 2688 384 
Q 3219 384 3648 624 
Q 4077 864 4320 1289 
Q 4563 1715 4563 2240 
Q 4563 2765 4320 3190 
Q 4077 3616 3648 3856 
Q 3219 4096 2688 4096 
Q 2157 4096 1725 3856 
Q 1293 3616 1046 3190 
Q 800 2765 800 2240 
Q 800 1715 1046 1289 
Q 1293 864 1725 624 
Q 2157 384 2688 384 
z
" transform="scale(0.015625)"/>
       <path id="Montserrat-Regular-50" d="M 2406 4480 
Q 3264 4480 3750 4070 
Q 4237 3661 4237 2944 
Q 4237 2227 3750 1820 
Q 3264 1414 2406 1414 
L 1203 1414 
L 1203 0 
L 730 0 
L 730 4480 
L 2406 4480 
z
M 2394 1830 
Q 3059 1830 3411 2121 
Q 3763 2413 3763 2944 
Q 3763 3488 3411 3779 
Q 3059 4070 2394 4070 
L 1203 4070 
L 1203 1830 
L 2394 1830 
z
" transform="scale(0.015625)"/>
       <path id="Montserrat-Regular-73" d="M 1536 -32 
Q 1126 -32 752 86 
Q 378 205 166 384 
L 371 742 
Q 582 576 902 470 
Q 1222 365 1568 365 
Q 2029 365 2249 509 
Q 2470 653 2470 915 
Q 2470 1101 2348 1206 
Q 2227 1312 2041 1366 
Q 1856 1421 1549 1472 
Q 1139 1549 889 1629 
Q 640 1709 464 1901 
Q 288 2093 288 2432 
Q 288 2854 640 3123 
Q 992 3392 1619 3392 
Q 1946 3392 2272 3305 
Q 2598 3219 2810 3078 
L 2611 2714 
Q 2195 3002 1619 3002 
Q 1184 3002 963 2848 
Q 742 2694 742 2445 
Q 742 2253 867 2137 
Q 992 2022 1177 1968 
Q 1363 1914 1690 1856 
Q 2093 1779 2336 1702 
Q 2579 1626 2752 1440 
Q 2925 1254 2925 928 
Q 2925 486 2557 227 
Q 2189 -32 1536 -32 
z
" transform="scale(0.015625)"/>
       <path id="Montserrat-Regular-29" d="M 256 -1242 
Q 634 -595 813 144 
Q 992 883 992 1754 
Q 992 2624 813 3363 
Q 634 4102 256 4749 
L 691 4749 
Q 1050 4173 1245 3401 
Q 1440 2630 1440 1754 
Q 1440 877 1248 109 
Q 1056 -659 691 -1242 
L 256 -1242 
z
" transform="scale(0.015625)"/>
      </defs>
      <use xlink:href="#Montserrat-Regular-63"/>
      <use xlink:href="#Montserrat-Regular-6f" x="56.299988"/>
      <use xlink:href="#Montserrat-Regular-6d" x="118.999985"/>
      <use xlink:href="#Montserrat-Regular-70" x="225.099976"/>
      <use xlink:href="#Montserrat-Regular-75" x="292.899963"/>
      <use xlink:href="#Montserrat-Regular-74" x="360.199951"/>
      <use xlink:href="#Montserrat-Regular-65" x="400.799942"/>
      <use xlink:href="#Montserrat-Regular-20" x="461.199936"/>
      <use xlink:href="#Montserrat-Regular-28" x="487.399933"/>
      <use xlink:href="#Montserrat-Regular-46" x="520.299927"/>
      <use xlink:href="#Montserrat-Regular-4c" x="583.599915"/>
      <use xlink:href="#Montserrat-Regular-4f" x="642.499908"/>
      <use xlink:href="#Montserrat-Regular-50" x="726.399902"/>
      <use xlink:href="#Montserrat-Regular-73" x="798.19989"/>
      <use xlink:href="#Montserrat-Regular-29" x="847.099884"/>
     </g>
    </g>
   </g>
   <g id="matplotlib.axis_2">
    <g id="ytick_1">
     <g id="line2d_9">
      <defs>
       <path id="m08c1da9031" d="M 0 0 
L -3.5 0 
" style="stroke: #000000; stroke-width: 0.8"/>
      </defs>
      <g>
       <use xlink:href="#m08c1da9031" x="54" y="252" style="stroke: #000000; stroke-width: 0.8"/>
      </g>
     </g>
     <g id="text_10">
      <!-- $\mathdefault{10^{7}}$ -->
      <g transform="translate(32.2 255.710156)scale(0.1 -0.1)">
       <use xlink:href="#Montserrat-Regular-31" transform="translate(0 0.184375)"/>
       <use xlink:href="#Montserrat-Regular-30" transform="translate(36.099991 0.184375)"/>
       <use xlink:href="#Montserrat-Regular-37" transform="translate(103.220378 37)scale(0.7)"/>
      </g>
     </g>
    </g>
    <g id="ytick_2">
     <g id="line2d_10">
      <g>
       <use xlink:href="#m08c1da9031" x="54" y="215.76" style="stroke: #000000; stroke-width: 0.8"/>
      </g>
     </g>
     <g id="text_11">
      <!-- $\mathdefault{10^{9}}$ -->
      <g transform="translate(32.1 219.470156)scale(0.1 -0.1)">
       <use xlink:href="#Montserrat-Regular-31" transform="translate(0 0.76875)"/>
       <use xlink:href="#Montserrat-Regular-30" transform="translate(36.099991 0.76875)"/>
       <use xlink:href="#Montserrat-Regular-39" transform="translate(103.220378 37.584375)scale(0.7)"/>
      </g>
     </g>
    </g>
    <g id="ytick_3">
     <g id="line2d_11">
      <g>
       <use xlink:href="#m08c1da9031" x="54" y="179.52" style="stroke: #000000; stroke-width: 0.8"/>
      </g>
     </g>
     <g id="text_12">
      <!-- $\mathdefault{10^{11}}$ -->
      <g transform="translate(31.3 183.230156)scale(0.1 -0.1)">
       <use xlink:href="#Montserrat-Regular-31" transform="translate(0 0.184375)"/>
       <use xlink:href="#Montserrat-Regular-30" transform="translate(36.099991 0.184375)"/>
       <use xlink:href="#Montserrat-Regular-31" transform="translate(103.220378 37)scale(0.7)"/>
       <use xlink:href="#Montserrat-Regular-31" transform="translate(128.490372 37)scale(0.7)"/>
      </g>
     </g>
    </g>
    <g id="ytick_4">
     <g id="line2d_12">
      <g>
       <use xlink:href="#m08c1da9031" x="54" y="143.28" style="stroke: #000000; stroke-width: 0.8"/>
      </g>
     </g>
     <g id="text_13">
      <!-- $\mathdefault{10^{13}}$ -->
      <g transform="translate(29.9 146.990156)scale(0.1 -0.1)">
       <use xlink:href="#Montserrat-Regular-31" transform="translate(0 0.184375)"/>
       <use xlink:href="#Montserrat-Regular-30" transform="translate(36.099991 0.184375)"/>
       <use xlink:href="#Montserrat-Regular-31" transform="translate(103.220378 37)scale(0.7)"/>
       <use xlink:href="#Montserrat-Regular-33" transform="translate(128.490372 37)scale(0.7)"/>
      </g>
     </g>
    </g>
    <g id="ytick_5">
     <g id="line2d_13">
      <g>
       <use xlink:href="#m08c1da9031" x="54" y="107.04" style="stroke: #000000; stroke-width: 0.8"/>
      </g>
     </g>
     <g id="text_14">
      <!-- $\mathdefault{10^{15}}$ -->
      <g transform="translate(29.9 110.750156)scale(0.1 -0.1)">
       <use xlink:href="#Montserrat-Regular-31" transform="translate(0 0.184375)"/>
       <use xlink:href="#Montserrat-Regular-30" transform="translate(36.099991 0.184375)"/>
       <use xlink:href="#Montserrat-Regular-31" transform="translate(103.220378 37)scale(0.7)"/>
       <use xlink:href="#Montserrat-Regular-35" transform="translate(128.490372 37)scale(0.7)"/>
      </g>
     </g>
    </g>
    <g id="ytick_6">
     <g id="line2d_14">
      <g>
       <use xlink:href="#m08c1da9031" x="54" y="70.8" style="stroke: #000000; stroke-width: 0.8"/>
      </g>
     </g>
     <g id="text_15">
      <!-- $\mathdefault{10^{17}}$ -->
      <g transform="translate(29.7 74.510156)scale(0.1 -0.1)">
       <use xlink:href="#Montserrat-Regular-31" transform="translate(0 0.184375)"/>
       <use xlink:href="#Montserrat-Regular-30" transform="translate(36.099991 0.184375)"/>
       <use xlink:href="#Montserrat-Regular-31" transform="translate(103.220378 37)scale(0.7)"/>
       <use xlink:href="#Montserrat-Regular-37" transform="translate(128.490372 37)scale(0.7)"/>
      </g>
     </g>
    </g>
    <g id="ytick_7">
     <g id="line2d_15">
      <g>
       <use xlink:href="#m08c1da9031" x="54" y="34.56" style="stroke: #000000; stroke-width: 0.8"/>
      </g>
     </g>
     <g id="text_16">
      <!-- $\mathdefault{10^{19}}$ -->
      <g transform="translate(29.6 38.270156)scale(0.1 -0.1)">
       <use xlink:href="#Montserrat-Regular-31" transform="translate(0 0.76875)"/>
       <use xlink:href="#Montserrat-Regular-30" transform="translate(36.099991 0.76875)"/>
       <use xlink:href="#Montserrat-Regular-31" transform="translate(103.220378 37.584375)scale(0.7)"/>
       <use xlink:href="#Montserrat-Regular-39" transform="translate(128.490372 37.584375)scale(0.7)"/>
      </g>
     </g>
    </g>
    <g id="text_17">
     <!-- data (# tokens) -->
     <g transform="translate(23.659375 181.010469)rotate(-90)scale(0.1 -0.1)">
      <defs>
       <path id="Montserrat-Regular-64" d="M 3706 4749 
L 3706 0 
L 3270 0 
L 3270 666 
Q 3066 326 2730 147 
Q 2394 -32 1971 -32 
Q 1498 -32 1114 185 
Q 730 403 512 793 
Q 294 1184 294 1683 
Q 294 2182 512 2572 
Q 730 2963 1114 3177 
Q 1498 3392 1971 3392 
Q 2381 3392 2710 3222 
Q 3040 3053 3251 2726 
L 3251 4749 
L 3706 4749 
z
M 2010 371 
Q 2362 371 2646 534 
Q 2931 698 3094 998 
Q 3258 1299 3258 1683 
Q 3258 2067 3094 2368 
Q 2931 2669 2646 2832 
Q 2362 2995 2010 2995 
Q 1651 2995 1366 2832 
Q 1082 2669 918 2368 
Q 755 2067 755 1683 
Q 755 1299 918 998 
Q 1082 698 1366 534 
Q 1651 371 2010 371 
z
" transform="scale(0.015625)"/>
       <path id="Montserrat-Regular-61" d="M 1811 3392 
Q 2470 3392 2822 3062 
Q 3174 2733 3174 2086 
L 3174 0 
L 2739 0 
L 2739 525 
Q 2586 262 2288 115 
Q 1990 -32 1581 -32 
Q 1018 -32 685 237 
Q 352 506 352 947 
Q 352 1376 662 1638 
Q 973 1901 1651 1901 
L 2720 1901 
L 2720 2106 
Q 2720 2541 2477 2768 
Q 2234 2995 1766 2995 
Q 1446 2995 1152 2889 
Q 858 2784 646 2598 
L 442 2938 
Q 698 3155 1056 3273 
Q 1414 3392 1811 3392 
z
M 1651 326 
Q 2035 326 2310 502 
Q 2586 678 2720 1011 
L 2720 1562 
L 1664 1562 
Q 800 1562 800 960 
Q 800 666 1024 496 
Q 1248 326 1651 326 
z
" transform="scale(0.015625)"/>
       <path id="Montserrat-Regular-23" d="M 3315 2912 
L 3149 1568 
L 4058 1568 
L 4058 1216 
L 3104 1216 
L 2957 0 
L 2611 0 
L 2758 1216 
L 1446 1216 
L 1293 0 
L 947 0 
L 1094 1216 
L 186 1216 
L 186 1568 
L 1139 1568 
L 1306 2912 
L 390 2912 
L 390 3264 
L 1350 3264 
L 1498 4480 
L 1850 4480 
L 1696 3264 
L 3014 3264 
L 3162 4480 
L 3507 4480 
L 3360 3264 
L 4262 3264 
L 4262 2912 
L 3315 2912 
z
M 2970 2912 
L 1658 2912 
L 1485 1568 
L 2803 1568 
L 2970 2912 
z
" transform="scale(0.015625)"/>
       <path id="Montserrat-Regular-6b" d="M 1882 1690 
L 1088 960 
L 1088 0 
L 634 0 
L 634 4749 
L 1088 4749 
L 1088 1530 
L 3098 3366 
L 3661 3366 
L 2221 1990 
L 3795 0 
L 3238 0 
L 1882 1690 
z
" transform="scale(0.015625)"/>
       <path id="Montserrat-Regular-6e" d="M 2349 3392 
Q 2982 3392 3356 3024 
Q 3731 2656 3731 1952 
L 3731 0 
L 3277 0 
L 3277 1907 
Q 3277 2432 3014 2707 
Q 2752 2982 2266 2982 
Q 1722 2982 1405 2659 
Q 1088 2336 1088 1766 
L 1088 0 
L 634 0 
L 634 3366 
L 1069 3366 
L 1069 2746 
Q 1254 3053 1584 3222 
Q 1914 3392 2349 3392 
z
" transform="scale(0.015625)"/>
      </defs>
      <use xlink:href="#Montserrat-Regular-64"/>
      <use xlink:href="#Montserrat-Regular-61" x="67.799988"/>
      <use xlink:href="#Montserrat-Regular-74" x="126.799973"/>
      <use xlink:href="#Montserrat-Regular-61" x="167.399963"/>
      <use xlink:href="#Montserrat-Regular-20" x="226.399948"/>
      <use xlink:href="#Montserrat-Regular-28" x="252.599945"/>
      <use xlink:href="#Montserrat-Regular-23" x="285.499939"/>
      <use xlink:href="#Montserrat-Regular-20" x="355.09993"/>
      <use xlink:href="#Montserrat-Regular-74" x="381.299927"/>
      <use xlink:href="#Montserrat-Regular-6f" x="421.899918"/>
      <use xlink:href="#Montserrat-Regular-6b" x="484.599915"/>
      <use xlink:href="#Montserrat-Regular-65" x="544.699905"/>
      <use xlink:href="#Montserrat-Regular-6e" x="605.099899"/>
      <use xlink:href="#Montserrat-Regular-73" x="672.799881"/>
      <use xlink:href="#Montserrat-Regular-29" x="721.699875"/>
     </g>
    </g>
   </g>
   <g id="PathCollection_1">
    <path d="M 356.017884 176.240942 
L 255.996 176.116514 
L 225.864 175.870765 
L 207.1152 175.506771 
L 193.7232 175.02945 
L 183.9024 174.470601 
L 176.3136 173.83865 
L 169.8408 173.083924 
L 164.7072 172.269417 
L 160.428454 171.366 
L 156.8952 170.384375 
L 154.093764 169.3728 
L 151.9848 168.397208 
L 150.1992 167.344278 
L 148.813707 166.2924 
L 147.714188 165.2052 
L 146.775159 163.9368 
L 146.135154 162.6684 
L 145.7352 161.377852 
L 145.537278 159.9504 
L 145.554777 158.5008 
L 145.793727 156.87 
L 146.286463 155.058 
L 147.0744 153.024991 
L 148.223831 150.7092 
L 149.850544 147.9912 
L 151.852963 145.092 
L 154.224508 142.0116 
L 157.593897 138.0252 
L 161.5824 133.666112 
L 166.9392 128.190721 
L 174.3048 121.098153 
L 184.732408 111.57 
L 191.082342 105.9528 
L 201.760263 96.7116 
L 217.390422 83.484 
L 237.4704 66.788828 
L 254.396436 52.8612 
L 254.396436 52.8612 
" clip-path="url(#pd4d6dcdadf)" style="fill: none; stroke: #000000; stroke-width: 1.5"/>
   </g>
   <g id="PathCollection_2">
    <path d="M 366.2568 168.784625 
L 366.0336 168.784588 
L 365.8104 168.784549 
L 365.5872 168.784511 
L 365.364 168.784472 
L 365.1408 168.784433 
L 364.9176 168.784394 
L 364.6944 168.784354 
L 364.4712 168.784314 
L 364.248 168.784274 
L 364.0248 168.784233 
L 363.8016 168.784192 
L 363.5784 168.784151 
L 363.3552 168.784109 
L 363.254636 168.78409 
" clip-path="url(#pd4d6dcdadf)" style="fill: none; stroke: #000000; stroke-width: 1.5"/>
    <path d="M 345.154638 168.779344 
L 268.7184 168.642234 
L 240.1488 168.380772 
L 222.2928 168.007556 
L 209.5704 167.532362 
L 199.5264 166.934951 
L 191.9376 166.270015 
L 185.688 165.502657 
L 180.642333 164.6616 
L 176.5368 163.752734 
L 173.1888 162.782776 
L 170.468709 161.7624 
L 168.233568 160.6752 
L 166.4928 159.574803 
L 165.1536 158.469917 
L 164.178015 157.4136 
L 163.368 156.223097 
L 162.820482 155.058 
L 162.452285 153.7896 
L 162.274882 152.34 
L 162.313902 150.8904 
L 162.572964 149.2596 
L 163.083919 147.4476 
L 163.871999 145.4544 
L 165.055266 143.0988 
L 166.579409 140.562 
L 168.579589 137.6628 
L 171.09621 134.4012 
L 173.8584 131.11828 
L 178.123071 126.4284 
L 183.063586 121.3548 
L 188.644115 115.9188 
L 195.2856 109.716529 
L 205.9992 100.10362 
L 221.4 86.784856 
L 262.067989 52.8612 
L 262.067989 52.8612 
" clip-path="url(#pd4d6dcdadf)" style="fill: none; stroke: #000000; stroke-width: 1.5"/>
   </g>
   <g id="PathCollection_3">
    <path d="M 355.918161 158.597898 
L 289.0296 158.451853 
L 261.576 158.18335 
L 244.3896 157.809588 
L 231.8904 157.330084 
L 222.2928 156.752311 
L 214.704 156.084163 
L 208.4544 155.313477 
L 203.544 154.49399 
L 199.3032 153.552929 
L 195.9552 152.57664 
L 193.39405 151.6152 
L 191.143242 150.528 
L 189.408956 149.4408 
L 188.074518 148.3536 
L 187.0272 147.227577 
L 186.197674 145.998 
L 185.621777 144.7296 
L 185.279779 143.4612 
L 185.127378 142.0116 
L 185.206705 140.3808 
L 185.507672 138.75 
L 186.123348 136.7568 
L 186.966402 134.7636 
L 188.1432 132.510522 
L 189.9288 129.636475 
L 192.225426 126.4284 
L 194.972375 122.9856 
L 197.964 119.530325 
L 202.508244 114.6504 
L 207.170135 109.9392 
L 213.000162 104.322 
L 219.454531 98.3424 
L 227.330757 91.2756 
L 234.57055 84.9336 
L 248.32437 73.1556 
L 257.144651 65.7264 
L 272.596052 52.8612 
L 272.596052 52.8612 
" clip-path="url(#pd4d6dcdadf)" style="fill: none; stroke: #000000; stroke-width: 1.5"/>
   </g>
   <g id="PathCollection_4">
    <path d="M 355.718049 142.447434 
L 313.1352 142.254479 
L 290.592 141.94516 
L 275.1912 141.520935 
L 264.0312 141.004125 
L 255.187443 140.3808 
L 248.184 139.670063 
L 242.8272 138.927017 
L 237.973286 138.0252 
L 234.282223 137.1192 
L 231.2208 136.145699 
L 228.730198 135.126 
L 226.675835 134.0388 
L 225.091941 132.9516 
L 223.8552 131.843143 
L 222.827787 130.596 
L 222.099505 129.3276 
L 221.6232 128.026346 
L 221.360802 126.6096 
L 221.321407 125.16 
L 221.506784 123.5292 
L 221.949964 121.7172 
L 222.676045 119.724 
L 223.703837 117.5496 
L 225.1944 114.952628 
L 227.221753 111.9324 
L 229.839322 108.4896 
L 232.40369 105.4092 
L 235.971605 101.4228 
L 240.298634 96.8928 
L 244.667792 92.544 
L 250.749177 86.7456 
L 256.8888 81.098118 
L 268.071663 71.1624 
L 279.6552 61.171755 
L 289.467787 52.8612 
L 289.467787 52.8612 
" clip-path="url(#pd4d6dcdadf)" style="fill: none; stroke: #000000; stroke-width: 1.5"/>
   </g>
   <g id="PathCollection_5">
    <path d="M 356.118326 128.587242 
L 328.7592 128.319785 
L 311.3496 127.940777 
L 298.8504 127.459214 
L 289.0296 126.861665 
L 281.664 126.206442 
L 275.4144 125.430678 
L 270.504 124.60544 
L 266.2632 123.656454 
L 262.9152 122.670642 
L 260.399082 121.7172 
L 258.166201 120.63 
L 256.4424 119.540915 
L 255.1032 118.43817 
L 253.9872 117.20609 
L 253.261984 116.1 
L 252.692646 114.8316 
L 252.356608 113.5632 
L 252.208477 112.1136 
L 252.272723 110.664 
L 252.555247 109.0332 
L 253.0944 107.201207 
L 253.9872 105.029108 
L 255.303766 102.51 
L 256.758374 100.1544 
L 258.789657 97.2552 
L 261.18653 94.1748 
L 264.420728 90.3696 
L 267.726742 86.7456 
L 271.745881 82.578 
L 276.325177 78.048 
L 283.2264 71.518221 
L 292.409059 63.1896 
L 302.319055 54.492 
L 304.204087 52.8612 
L 304.204087 52.8612 
" clip-path="url(#pd4d6dcdadf)" style="fill: none; stroke: #000000; stroke-width: 1.5"/>
   </g>
   <g id="PathCollection_6">
    <path d="M 355.818975 114.890629 
L 339.696 114.507978 
L 327.6432 114.015208 
L 318.2688 113.419439 
L 311.1264 112.76252 
L 305.1 111.996059 
L 300.4128 111.19663 
L 296.3952 110.296515 
L 293.0472 109.316008 
L 290.3688 108.300395 
L 288.1368 107.20254 
L 286.3512 106.052796 
L 285.012 104.916655 
L 284.006621 103.7784 
L 283.2264 102.551745 
L 282.737611 101.4228 
L 282.406367 100.1544 
L 282.263383 98.7048 
L 282.351744 97.074 
L 282.706906 95.262 
L 283.284328 93.45 
L 284.220333 91.2756 
L 285.479999 88.92 
L 287.244 86.127557 
L 289.6992 82.742075 
L 292.824 78.89178 
L 296.963495 74.2428 
L 300.937496 70.0752 
L 305.850239 65.1828 
L 311.5728 59.727962 
L 319.058719 52.8612 
L 319.058719 52.8612 
" clip-path="url(#pd4d6dcdadf)" style="fill: none; stroke: #000000; stroke-width: 1.5"/>
   </g>
   <g id="PathCollection_7">
    <path d="M 356.102811 99.097641 
L 348.1776 98.504801 
L 341.2584 97.772838 
L 335.6784 96.958016 
L 331.4376 96.135134 
L 327.6432 95.17101 
L 324.7416 94.213953 
L 322.488959 93.2688 
L 320.463599 92.1816 
L 318.902128 91.0944 
L 317.5992 89.895383 
L 316.672535 88.7388 
L 315.958457 87.4704 
L 315.502354 86.202 
L 315.24118 84.7524 
L 315.210011 83.3028 
L 315.403166 81.672 
L 315.853854 79.86 
L 316.587221 77.8668 
L 317.620507 75.6924 
L 319.1616 73.024932 
L 321.28152 69.894 
L 323.627495 66.8136 
L 326.9736 62.823543 
L 331.270077 58.116 
L 335.9016 53.362771 
L 336.40563 52.8612 
L 336.40563 52.8612 
" clip-path="url(#pd4d6dcdadf)" style="fill: none; stroke: #000000; stroke-width: 1.5"/>
   </g>
   <g id="PathCollection_8">
    <path d="M 366.2568 85.798325 
L 360.9 84.955222 
L 356.8824 84.116883 
L 353.5344 83.215735 
L 350.648452 82.2156 
L 348.4008 81.213579 
L 346.6152 80.19988 
L 345.0528 79.050107 
L 343.9368 77.969794 
L 343.023503 76.7796 
L 342.348103 75.5112 
L 341.92373 74.2428 
L 341.69295 72.7932 
L 341.687149 71.3436 
L 341.904245 69.7128 
L 342.37636 67.9008 
L 343.208885 65.7264 
L 344.278853 63.552 
L 344.816903 62.588847 
L 344.816903 62.588847 
" clip-path="url(#pd4d6dcdadf)" style="fill: none; stroke: #000000; stroke-width: 1.5"/>
   </g>
   <g id="text_18">
    <a xlink:href="https://dynomight.net">
     <!-- dynomight.net -->
     <g style="opacity: 0.25" transform="translate(292.80101 282.460728)scale(0.1 -0.1)">
      <defs>
       <path id="DejaVuSansMono-64" d="M 2681 3053 
L 2681 4863 
L 3256 4863 
L 3256 0 
L 2681 0 
L 2681 441 
Q 2538 181 2298 45 
Q 2059 -91 1747 -91 
Q 1113 -91 748 401 
Q 384 894 384 1759 
Q 384 2613 750 3098 
Q 1116 3584 1747 3584 
Q 2063 3584 2303 3448 
Q 2544 3313 2681 3053 
z
M 991 1747 
Q 991 1078 1203 737 
Q 1416 397 1831 397 
Q 2247 397 2464 740 
Q 2681 1084 2681 1747 
Q 2681 2413 2464 2755 
Q 2247 3097 1831 3097 
Q 1416 3097 1203 2756 
Q 991 2416 991 1747 
z
" transform="scale(0.015625)"/>
       <path id="DejaVuSansMono-79" d="M 2681 1125 
Q 2538 759 2316 163 
Q 2006 -663 1900 -844 
Q 1756 -1088 1540 -1209 
Q 1325 -1331 1038 -1331 
L 575 -1331 
L 575 -850 
L 916 -850 
Q 1169 -850 1312 -703 
Q 1456 -556 1678 56 
L 325 3500 
L 934 3500 
L 1972 763 
L 2994 3500 
L 3603 3500 
L 2681 1125 
z
" transform="scale(0.015625)"/>
       <path id="DejaVuSansMono-6e" d="M 3284 2169 
L 3284 0 
L 2706 0 
L 2706 2169 
Q 2706 2641 2540 2862 
Q 2375 3084 2022 3084 
Q 1619 3084 1401 2798 
Q 1184 2513 1184 1978 
L 1184 0 
L 609 0 
L 609 3500 
L 1184 3500 
L 1184 2975 
Q 1338 3275 1600 3429 
Q 1863 3584 2222 3584 
Q 2756 3584 3020 3232 
Q 3284 2881 3284 2169 
z
" transform="scale(0.015625)"/>
       <path id="DejaVuSansMono-6f" d="M 1925 3097 
Q 1488 3097 1263 2756 
Q 1038 2416 1038 1747 
Q 1038 1081 1263 739 
Q 1488 397 1925 397 
Q 2366 397 2591 739 
Q 2816 1081 2816 1747 
Q 2816 2416 2591 2756 
Q 2366 3097 1925 3097 
z
M 1925 3584 
Q 2653 3584 3039 3112 
Q 3425 2641 3425 1747 
Q 3425 850 3040 379 
Q 2656 -91 1925 -91 
Q 1197 -91 812 379 
Q 428 850 428 1747 
Q 428 2641 812 3112 
Q 1197 3584 1925 3584 
z
" transform="scale(0.015625)"/>
       <path id="DejaVuSansMono-6d" d="M 2113 3144 
Q 2219 3369 2383 3476 
Q 2547 3584 2778 3584 
Q 3200 3584 3373 3257 
Q 3547 2931 3547 2028 
L 3547 0 
L 3022 0 
L 3022 2003 
Q 3022 2744 2939 2923 
Q 2856 3103 2638 3103 
Q 2388 3103 2295 2911 
Q 2203 2719 2203 2003 
L 2203 0 
L 1678 0 
L 1678 2003 
Q 1678 2753 1589 2928 
Q 1500 3103 1269 3103 
Q 1041 3103 952 2911 
Q 863 2719 863 2003 
L 863 0 
L 341 0 
L 341 3500 
L 863 3500 
L 863 3200 
Q 966 3388 1120 3486 
Q 1275 3584 1472 3584 
Q 1709 3584 1867 3475 
Q 2025 3366 2113 3144 
z
" transform="scale(0.015625)"/>
       <path id="DejaVuSansMono-69" d="M 800 3500 
L 2272 3500 
L 2272 447 
L 3413 447 
L 3413 0 
L 556 0 
L 556 447 
L 1697 447 
L 1697 3053 
L 800 3053 
L 800 3500 
z
M 1697 4863 
L 2272 4863 
L 2272 4134 
L 1697 4134 
L 1697 4863 
z
" transform="scale(0.015625)"/>
       <path id="DejaVuSansMono-67" d="M 2681 1778 
Q 2681 2425 2470 2761 
Q 2259 3097 1856 3097 
Q 1434 3097 1212 2761 
Q 991 2425 991 1778 
Q 991 1131 1214 792 
Q 1438 453 1863 453 
Q 2259 453 2470 793 
Q 2681 1134 2681 1778 
z
M 3256 225 
Q 3256 -563 2884 -969 
Q 2513 -1375 1791 -1375 
Q 1553 -1375 1293 -1331 
Q 1034 -1288 775 -1203 
L 775 -634 
Q 1081 -778 1331 -847 
Q 1581 -916 1791 -916 
Q 2256 -916 2468 -662 
Q 2681 -409 2681 141 
L 2681 166 
L 2681 556 
Q 2544 263 2306 119 
Q 2069 -25 1728 -25 
Q 1116 -25 750 465 
Q 384 956 384 1778 
Q 384 2603 750 3093 
Q 1116 3584 1728 3584 
Q 2066 3584 2300 3450 
Q 2534 3316 2681 3034 
L 2681 3488 
L 3256 3488 
L 3256 225 
z
" transform="scale(0.015625)"/>
       <path id="DejaVuSansMono-68" d="M 3284 2169 
L 3284 0 
L 2706 0 
L 2706 2169 
Q 2706 2641 2540 2862 
Q 2375 3084 2022 3084 
Q 1619 3084 1401 2798 
Q 1184 2513 1184 1978 
L 1184 0 
L 609 0 
L 609 4863 
L 1184 4863 
L 1184 2975 
Q 1338 3275 1600 3429 
Q 1863 3584 2222 3584 
Q 2756 3584 3020 3232 
Q 3284 2881 3284 2169 
z
" transform="scale(0.015625)"/>
       <path id="DejaVuSansMono-74" d="M 1919 4494 
L 1919 3500 
L 3225 3500 
L 3225 3053 
L 1919 3053 
L 1919 1153 
Q 1919 766 2066 612 
Q 2213 459 2578 459 
L 3225 459 
L 3225 0 
L 2522 0 
Q 1875 0 1609 259 
Q 1344 519 1344 1153 
L 1344 3053 
L 409 3053 
L 409 3500 
L 1344 3500 
L 1344 4494 
L 1919 4494 
z
" transform="scale(0.015625)"/>
       <path id="DejaVuSansMono-2e" d="M 1528 953 
L 2316 953 
L 2316 0 
L 1528 0 
L 1528 953 
z
" transform="scale(0.015625)"/>
       <path id="DejaVuSansMono-65" d="M 3475 1894 
L 3475 1613 
L 984 1613 
L 984 1594 
Q 984 1022 1282 709 
Q 1581 397 2125 397 
Q 2400 397 2700 484 
Q 3000 572 3341 750 
L 3341 178 
Q 3013 44 2708 -23 
Q 2403 -91 2119 -91 
Q 1303 -91 843 398 
Q 384 888 384 1747 
Q 384 2584 834 3084 
Q 1284 3584 2034 3584 
Q 2703 3584 3089 3131 
Q 3475 2678 3475 1894 
z
M 2900 2063 
Q 2888 2569 2661 2833 
Q 2434 3097 2009 3097 
Q 1594 3097 1325 2822 
Q 1056 2547 1006 2059 
L 2900 2063 
z
" transform="scale(0.015625)"/>
      </defs>
      <use xlink:href="#DejaVuSansMono-64"/>
      <use xlink:href="#DejaVuSansMono-79" x="60.205078"/>
      <use xlink:href="#DejaVuSansMono-6e" x="120.410156"/>
      <use xlink:href="#DejaVuSansMono-6f" x="180.615234"/>
      <use xlink:href="#DejaVuSansMono-6d" x="240.820312"/>
      <use xlink:href="#DejaVuSansMono-69" x="301.025391"/>
      <use xlink:href="#DejaVuSansMono-67" x="361.230469"/>
      <use xlink:href="#DejaVuSansMono-68" x="421.435547"/>
      <use xlink:href="#DejaVuSansMono-74" x="481.640625"/>
      <use xlink:href="#DejaVuSansMono-2e" x="541.845703"/>
      <use xlink:href="#DejaVuSansMono-6e" x="602.050781"/>
      <use xlink:href="#DejaVuSansMono-65" x="662.255859"/>
      <use xlink:href="#DejaVuSansMono-74" x="722.460938"/>
     </g>
    </a>
   </g>
   <g id="text_19">
    <!-- What does the scaling law predict (BigBench)? -->
    <g transform="translate(80.215313 28.56)scale(0.12 -0.12)">
     <defs>
      <path id="Montserrat-Regular-57" d="M 6880 4480 
L 5370 0 
L 4870 0 
L 3558 3821 
L 2240 0 
L 1747 0 
L 237 4480 
L 723 4480 
L 2016 627 
L 3354 4480 
L 3795 4480 
L 5114 608 
L 6426 4480 
L 6880 4480 
z
" transform="scale(0.015625)"/>
      <path id="Montserrat-Regular-68" d="M 2349 3392 
Q 2982 3392 3356 3024 
Q 3731 2656 3731 1952 
L 3731 0 
L 3277 0 
L 3277 1907 
Q 3277 2432 3014 2707 
Q 2752 2982 2266 2982 
Q 1722 2982 1405 2659 
Q 1088 2336 1088 1766 
L 1088 0 
L 634 0 
L 634 4749 
L 1088 4749 
L 1088 2778 
Q 1274 3072 1600 3232 
Q 1926 3392 2349 3392 
z
" transform="scale(0.015625)"/>
      <path id="Montserrat-Regular-6c" d="M 634 4749 
L 1088 4749 
L 1088 0 
L 634 0 
L 634 4749 
z
" transform="scale(0.015625)"/>
      <path id="Montserrat-Regular-69" d="M 634 3366 
L 1088 3366 
L 1088 0 
L 634 0 
L 634 3366 
z
M 864 4102 
Q 723 4102 627 4198 
Q 531 4294 531 4429 
Q 531 4557 627 4653 
Q 723 4749 864 4749 
Q 1005 4749 1101 4656 
Q 1197 4563 1197 4435 
Q 1197 4294 1101 4198 
Q 1005 4102 864 4102 
z
" transform="scale(0.015625)"/>
      <path id="Montserrat-Regular-67" d="M 3750 3366 
L 3750 410 
Q 3750 -448 3331 -861 
Q 2912 -1274 2067 -1274 
Q 1600 -1274 1181 -1136 
Q 762 -998 499 -755 
L 730 -410 
Q 973 -627 1321 -748 
Q 1670 -870 2054 -870 
Q 2694 -870 2995 -572 
Q 3296 -275 3296 352 
L 3296 781 
Q 3085 461 2742 294 
Q 2400 128 1984 128 
Q 1510 128 1123 336 
Q 736 544 515 918 
Q 294 1293 294 1766 
Q 294 2240 515 2611 
Q 736 2982 1120 3187 
Q 1504 3392 1984 3392 
Q 2413 3392 2758 3219 
Q 3104 3046 3315 2720 
L 3315 3366 
L 3750 3366 
z
M 2029 531 
Q 2394 531 2688 688 
Q 2982 845 3145 1126 
Q 3309 1408 3309 1766 
Q 3309 2125 3145 2403 
Q 2982 2682 2691 2838 
Q 2400 2995 2029 2995 
Q 1664 2995 1373 2841 
Q 1082 2688 918 2406 
Q 755 2125 755 1766 
Q 755 1408 918 1126 
Q 1082 845 1373 688 
Q 1664 531 2029 531 
z
" transform="scale(0.015625)"/>
      <path id="Montserrat-Regular-77" d="M 5574 3366 
L 4301 0 
L 3872 0 
L 2810 2758 
L 1747 0 
L 1318 0 
L 51 3366 
L 486 3366 
L 1542 506 
L 2624 3366 
L 3014 3366 
L 4090 506 
L 5158 3366 
L 5574 3366 
z
" transform="scale(0.015625)"/>
      <path id="Montserrat-Regular-72" d="M 1069 2707 
Q 1229 3046 1545 3219 
Q 1862 3392 2330 3392 
L 2330 2950 
L 2221 2957 
Q 1690 2957 1389 2630 
Q 1088 2304 1088 1715 
L 1088 0 
L 634 0 
L 634 3366 
L 1069 3366 
L 1069 2707 
z
" transform="scale(0.015625)"/>
      <path id="Montserrat-Regular-42" d="M 3552 2310 
Q 3994 2214 4234 1929 
Q 4474 1645 4474 1197 
Q 4474 621 4048 310 
Q 3622 0 2790 0 
L 730 0 
L 730 4480 
L 2662 4480 
Q 3411 4480 3824 4179 
Q 4237 3878 4237 3328 
Q 4237 2957 4054 2697 
Q 3872 2438 3552 2310 
z
M 1203 4090 
L 1203 2464 
L 2630 2464 
Q 3174 2464 3468 2672 
Q 3763 2880 3763 3277 
Q 3763 3674 3468 3882 
Q 3174 4090 2630 4090 
L 1203 4090 
z
M 2784 390 
Q 3386 390 3693 595 
Q 4000 800 4000 1235 
Q 4000 2074 2784 2074 
L 1203 2074 
L 1203 390 
L 2784 390 
z
" transform="scale(0.015625)"/>
      <path id="Montserrat-Regular-3f" d="M 1504 1344 
Q 1504 1606 1590 1804 
Q 1677 2003 1805 2144 
Q 1933 2285 2138 2464 
Q 2413 2707 2544 2889 
Q 2675 3072 2675 3334 
Q 2675 3686 2400 3900 
Q 2125 4115 1645 4115 
Q 851 4115 422 3597 
L 83 3853 
Q 627 4518 1677 4518 
Q 2349 4518 2749 4217 
Q 3149 3917 3149 3405 
Q 3149 3142 3062 2940 
Q 2976 2739 2851 2598 
Q 2726 2458 2522 2272 
Q 2246 2022 2112 1827 
Q 1978 1632 1978 1344 
L 1504 1344 
z
M 1741 -32 
Q 1600 -32 1504 67 
Q 1408 166 1408 301 
Q 1408 442 1504 534 
Q 1600 627 1741 627 
Q 1888 627 1984 534 
Q 2080 442 2080 301 
Q 2080 166 1981 67 
Q 1882 -32 1741 -32 
z
" transform="scale(0.015625)"/>
     </defs>
     <use xlink:href="#Montserrat-Regular-57"/>
     <use xlink:href="#Montserrat-Regular-68" x="111.099991"/>
     <use xlink:href="#Montserrat-Regular-61" x="178.799973"/>
     <use xlink:href="#Montserrat-Regular-74" x="237.799957"/>
     <use xlink:href="#Montserrat-Regular-20" x="278.399948"/>
     <use xlink:href="#Montserrat-Regular-64" x="304.599945"/>
     <use xlink:href="#Montserrat-Regular-6f" x="372.399933"/>
     <use xlink:href="#Montserrat-Regular-65" x="435.09993"/>
     <use xlink:href="#Montserrat-Regular-73" x="495.499924"/>
     <use xlink:href="#Montserrat-Regular-20" x="544.399918"/>
     <use xlink:href="#Montserrat-Regular-74" x="570.599915"/>
     <use xlink:href="#Montserrat-Regular-68" x="611.199905"/>
     <use xlink:href="#Montserrat-Regular-65" x="678.899887"/>
     <use xlink:href="#Montserrat-Regular-20" x="739.299881"/>
     <use xlink:href="#Montserrat-Regular-73" x="765.499878"/>
     <use xlink:href="#Montserrat-Regular-63" x="814.399872"/>
     <use xlink:href="#Montserrat-Regular-61" x="870.69986"/>
     <use xlink:href="#Montserrat-Regular-6c" x="929.699844"/>
     <use xlink:href="#Montserrat-Regular-69" x="956.599838"/>
     <use xlink:href="#Montserrat-Regular-6e" x="983.499832"/>
     <use xlink:href="#Montserrat-Regular-67" x="1051.199814"/>
     <use xlink:href="#Montserrat-Regular-20" x="1119.799805"/>
     <use xlink:href="#Montserrat-Regular-6c" x="1145.999802"/>
     <use xlink:href="#Montserrat-Regular-61" x="1172.899796"/>
     <use xlink:href="#Montserrat-Regular-77" x="1231.89978"/>
     <use xlink:href="#Montserrat-Regular-20" x="1319.799774"/>
     <use xlink:href="#Montserrat-Regular-70" x="1345.999771"/>
     <use xlink:href="#Montserrat-Regular-72" x="1413.799759"/>
     <use xlink:href="#Montserrat-Regular-65" x="1453.89975"/>
     <use xlink:href="#Montserrat-Regular-64" x="1514.299744"/>
     <use xlink:href="#Montserrat-Regular-69" x="1582.099731"/>
     <use xlink:href="#Montserrat-Regular-63" x="1608.999725"/>
     <use xlink:href="#Montserrat-Regular-74" x="1665.299713"/>
     <use xlink:href="#Montserrat-Regular-20" x="1705.899704"/>
     <use xlink:href="#Montserrat-Regular-28" x="1732.099701"/>
     <use xlink:href="#Montserrat-Regular-42" x="1764.999695"/>
     <use xlink:href="#Montserrat-Regular-69" x="1840.399689"/>
     <use xlink:href="#Montserrat-Regular-67" x="1867.299683"/>
     <use xlink:href="#Montserrat-Regular-42" x="1935.899673"/>
     <use xlink:href="#Montserrat-Regular-65" x="2011.299667"/>
     <use xlink:href="#Montserrat-Regular-6e" x="2071.699661"/>
     <use xlink:href="#Montserrat-Regular-63" x="2139.399643"/>
     <use xlink:href="#Montserrat-Regular-68" x="2195.699631"/>
     <use xlink:href="#Montserrat-Regular-29" x="2263.399612"/>
     <use xlink:href="#Montserrat-Regular-3f" x="2296.299606"/>
    </g>
   </g>
   <g id="text_20">
    <g clip-path="url(#pd4d6dcdadf)">
     <!-- 50 -->
     <g transform="translate(358.777479 178.981197)rotate(-359.9942)scale(0.1 -0.1)">
      <use xlink:href="#Montserrat-Regular-35"/>
      <use xlink:href="#Montserrat-Regular-30" x="56.599991"/>
     </g>
    </g>
   </g>
   <g id="text_21">
    <g clip-path="url(#pd4d6dcdadf)">
     <!-- 60 -->
     <g transform="translate(347.84785 171.520353)rotate(-359.985741)scale(0.1 -0.1)">
      <defs>
       <path id="Montserrat-Regular-36" d="M 2189 2682 
Q 2630 2682 2972 2515 
Q 3315 2349 3507 2045 
Q 3699 1741 3699 1338 
Q 3699 928 3500 614 
Q 3302 301 2953 131 
Q 2605 -38 2170 -38 
Q 1280 -38 806 547 
Q 333 1133 333 2202 
Q 333 2950 589 3468 
Q 845 3987 1305 4252 
Q 1766 4518 2381 4518 
Q 3046 4518 3443 4275 
L 3258 3904 
Q 2938 4115 2387 4115 
Q 1645 4115 1222 3644 
Q 800 3174 800 2278 
Q 800 2118 819 1914 
Q 986 2278 1350 2480 
Q 1715 2682 2189 2682 
z
M 2150 352 
Q 2637 352 2941 617 
Q 3245 883 3245 1325 
Q 3245 1766 2941 2028 
Q 2637 2291 2118 2291 
Q 1779 2291 1520 2163 
Q 1261 2035 1113 1811 
Q 966 1587 966 1312 
Q 966 1056 1104 838 
Q 1242 621 1510 486 
Q 1779 352 2150 352 
z
" transform="scale(0.015625)"/>
      </defs>
      <use xlink:href="#Montserrat-Regular-36"/>
      <use xlink:href="#Montserrat-Regular-30" x="60.899994"/>
     </g>
    </g>
   </g>
   <g id="text_22">
    <g clip-path="url(#pd4d6dcdadf)">
     <!-- 70 -->
     <g transform="translate(358.661028 161.339378)rotate(-359.976908)scale(0.1 -0.1)">
      <use xlink:href="#Montserrat-Regular-37"/>
      <use xlink:href="#Montserrat-Regular-30" x="58.899994"/>
     </g>
    </g>
   </g>
   <g id="text_23">
    <g clip-path="url(#pd4d6dcdadf)">
     <!-- 80 -->
     <g transform="translate(358.413658 145.193104)rotate(-359.91742)scale(0.1 -0.1)">
      <defs>
       <path id="Montserrat-Regular-38" d="M 2899 2349 
Q 3322 2208 3549 1926 
Q 3776 1645 3776 1248 
Q 3776 858 3565 566 
Q 3354 275 2960 118 
Q 2566 -38 2035 -38 
Q 1229 -38 768 307 
Q 307 653 307 1248 
Q 307 1651 528 1929 
Q 749 2208 1171 2349 
Q 826 2483 646 2736 
Q 467 2989 467 3334 
Q 467 3878 892 4198 
Q 1318 4518 2035 4518 
Q 2509 4518 2864 4374 
Q 3219 4230 3417 3961 
Q 3616 3693 3616 3334 
Q 3616 2989 3430 2736 
Q 3245 2483 2899 2349 
z
M 928 3322 
Q 928 2950 1222 2732 
Q 1517 2515 2035 2515 
Q 2554 2515 2851 2732 
Q 3149 2950 3149 3315 
Q 3149 3693 2845 3910 
Q 2541 4128 2035 4128 
Q 1523 4128 1225 3910 
Q 928 3693 928 3322 
z
M 2035 352 
Q 2630 352 2966 595 
Q 3302 838 3302 1254 
Q 3302 1670 2966 1910 
Q 2630 2150 2035 2150 
Q 1446 2150 1110 1910 
Q 774 1670 774 1254 
Q 774 832 1107 592 
Q 1440 352 2035 352 
z
" transform="scale(0.015625)"/>
      </defs>
      <use xlink:href="#Montserrat-Regular-38"/>
      <use xlink:href="#Montserrat-Regular-30" x="63.799988"/>
     </g>
    </g>
   </g>
   <g id="text_24">
    <g clip-path="url(#pd4d6dcdadf)">
     <!-- 85 -->
     <g transform="translate(358.886543 131.344681)rotate(-359.757855)scale(0.1 -0.1)">
      <use xlink:href="#Montserrat-Regular-38"/>
      <use xlink:href="#Montserrat-Regular-35" x="63.799988"/>
     </g>
    </g>
   </g>
   <g id="text_25">
    <g clip-path="url(#pd4d6dcdadf)">
     <!-- 88 -->
     <g transform="translate(358.503509 117.682613)rotate(-359.269695)scale(0.1 -0.1)">
      <use xlink:href="#Montserrat-Regular-38"/>
      <use xlink:href="#Montserrat-Regular-38" x="63.799988"/>
     </g>
    </g>
   </g>
   <g id="text_26">
    <g clip-path="url(#pd4d6dcdadf)">
     <!-- 90 -->
     <g transform="translate(358.669023 102.019782)rotate(-357.433598)scale(0.1 -0.1)">
      <use xlink:href="#Montserrat-Regular-39"/>
      <use xlink:href="#Montserrat-Regular-30" x="60.899994"/>
     </g>
    </g>
   </g>
   <g id="text_27">
    <g clip-path="url(#pd4d6dcdadf)">
     <!-- 91 -->
     <g transform="translate(348.467773 61.437149)rotate(-51.134534)scale(0.1 -0.1)">
      <use xlink:href="#Montserrat-Regular-39"/>
      <use xlink:href="#Montserrat-Regular-31" x="60.899994"/>
     </g>
    </g>
   </g>
  </g>
 </g>
 <defs>
  <clipPath id="pd4d6dcdadf">
   <rect x="54" y="34.56" width="334.8" height="217.44"/>
  </clipPath>
 </defs>
</svg>
