<?xml version="1.0" encoding="utf-8" standalone="no"?>
<!DOCTYPE svg PUBLIC "-//W3C//DTD SVG 1.1//EN"
  "http://www.w3.org/Graphics/SVG/1.1/DTD/svg11.dtd">
<svg xmlns:xlink="http://www.w3.org/1999/xlink" width="432pt" height="288pt" viewBox="0 0 432 288" xmlns="http://www.w3.org/2000/svg" version="1.1">
 <metadata>
  <rdf:RDF xmlns:dc="http://purl.org/dc/elements/1.1/" xmlns:cc="http://creativecommons.org/ns#" xmlns:rdf="http://www.w3.org/1999/02/22-rdf-syntax-ns#">
   <cc:Work>
    <dc:type rdf:resource="http://purl.org/dc/dcmitype/StillImage"/>
    <dc:date>2023-03-05T12:29:21.507672</dc:date>
    <dc:format>image/svg+xml</dc:format>
    <dc:creator>
     <cc:Agent>
      <dc:title>Matplotlib v3.5.1, https://matplotlib.org/</dc:title>
     </cc:Agent>
    </dc:creator>
   </cc:Work>
  </rdf:RDF>
 </metadata>
 <defs>
  <style type="text/css">*{stroke-linejoin: round; stroke-linecap: butt}</style>
 </defs>
 <g id="figure_1">
  <g id="patch_1">
   <path d="M 0 288 
L 432 288 
L 432 0 
L 0 0 
L 0 288 
z
" style="fill: none"/>
  </g>
  <g id="axes_1">
   <g id="patch_2">
    <path d="M 54 252 
L 388.8 252 
L 388.8 34.56 
L 54 34.56 
z
" style="fill: #ffffff"/>
   </g>
   <g id="matplotlib.axis_1">
    <g id="xtick_1">
     <g id="line2d_1">
      <defs>
       <path id="m8d85e1fbe0" d="M 0 0 
L 0 3.5 
" style="stroke: #000000; stroke-width: 0.8"/>
      </defs>
      <g>
       <use xlink:href="#m8d85e1fbe0" x="87.513514" y="252" style="stroke: #000000; stroke-width: 0.8"/>
      </g>
     </g>
     <g id="text_1">
      <!-- $\mathdefault{10^{7}}$ -->
      <g transform="translate(80.113514 266.420313)scale(0.1 -0.1)">
       <defs>
        <path id="Montserrat-Regular-31" d="M 1574 4480 
L 1574 0 
L 1114 0 
L 1114 4070 
L 58 4070 
L 58 4480 
L 1574 4480 
z
" transform="scale(0.015625)"/>
        <path id="Montserrat-Regular-30" d="M 2118 -38 
Q 1600 -38 1193 237 
Q 787 512 560 1027 
Q 333 1542 333 2240 
Q 333 2938 560 3453 
Q 787 3968 1193 4243 
Q 1600 4518 2118 4518 
Q 2637 4518 3043 4243 
Q 3450 3968 3680 3453 
Q 3910 2938 3910 2240 
Q 3910 1542 3680 1027 
Q 3450 512 3043 237 
Q 2637 -38 2118 -38 
z
M 2118 384 
Q 2509 384 2806 601 
Q 3104 819 3270 1235 
Q 3437 1651 3437 2240 
Q 3437 2829 3270 3245 
Q 3104 3661 2806 3878 
Q 2509 4096 2118 4096 
Q 1728 4096 1430 3878 
Q 1133 3661 966 3245 
Q 800 2829 800 2240 
Q 800 1651 966 1235 
Q 1133 819 1430 601 
Q 1728 384 2118 384 
z
" transform="scale(0.015625)"/>
        <path id="Montserrat-Regular-37" d="M 3494 4480 
L 3494 4154 
L 1619 0 
L 1120 0 
L 2963 4070 
L 659 4070 
L 659 3232 
L 205 3232 
L 205 4480 
L 3494 4480 
z
" transform="scale(0.015625)"/>
       </defs>
       <use xlink:href="#Montserrat-Regular-31" transform="translate(0 0.184375)"/>
       <use xlink:href="#Montserrat-Regular-30" transform="translate(36.099991 0.184375)"/>
       <use xlink:href="#Montserrat-Regular-37" transform="translate(103.220378 37)scale(0.7)"/>
      </g>
     </g>
    </g>
    <g id="xtick_2">
     <g id="line2d_2">
      <g>
       <use xlink:href="#m8d85e1fbe0" x="154.540541" y="252" style="stroke: #000000; stroke-width: 0.8"/>
      </g>
     </g>
     <g id="text_2">
      <!-- $\mathdefault{10^{9}}$ -->
      <g transform="translate(147.090541 266.420313)scale(0.1 -0.1)">
       <defs>
        <path id="Montserrat-Regular-39" d="M 1728 4518 
Q 2618 4518 3091 3932 
Q 3565 3347 3565 2278 
Q 3565 1530 3309 1011 
Q 3053 493 2592 227 
Q 2131 -38 1517 -38 
Q 851 -38 454 205 
L 640 576 
Q 960 365 1510 365 
Q 2253 365 2675 835 
Q 3098 1306 3098 2202 
Q 3098 2368 3078 2566 
Q 2912 2202 2547 2000 
Q 2182 1798 1709 1798 
Q 1267 1798 924 1964 
Q 582 2131 390 2435 
Q 198 2739 198 3142 
Q 198 3552 396 3865 
Q 595 4179 944 4348 
Q 1293 4518 1728 4518 
z
M 1779 2189 
Q 2118 2189 2377 2317 
Q 2637 2445 2784 2669 
Q 2931 2893 2931 3168 
Q 2931 3424 2793 3641 
Q 2656 3859 2387 3993 
Q 2118 4128 1747 4128 
Q 1261 4128 957 3862 
Q 653 3597 653 3155 
Q 653 2714 957 2451 
Q 1261 2189 1779 2189 
z
" transform="scale(0.015625)"/>
       </defs>
       <use xlink:href="#Montserrat-Regular-31" transform="translate(0 0.76875)"/>
       <use xlink:href="#Montserrat-Regular-30" transform="translate(36.099991 0.76875)"/>
       <use xlink:href="#Montserrat-Regular-39" transform="translate(103.220378 37.584375)scale(0.7)"/>
      </g>
     </g>
    </g>
    <g id="xtick_3">
     <g id="line2d_3">
      <g>
       <use xlink:href="#m8d85e1fbe0" x="221.567568" y="252" style="stroke: #000000; stroke-width: 0.8"/>
      </g>
     </g>
     <g id="text_3">
      <!-- $\mathdefault{10^{11}}$ -->
      <g transform="translate(213.717568 266.420313)scale(0.1 -0.1)">
       <use xlink:href="#Montserrat-Regular-31" transform="translate(0 0.184375)"/>
       <use xlink:href="#Montserrat-Regular-30" transform="translate(36.099991 0.184375)"/>
       <use xlink:href="#Montserrat-Regular-31" transform="translate(103.220378 37)scale(0.7)"/>
       <use xlink:href="#Montserrat-Regular-31" transform="translate(128.490372 37)scale(0.7)"/>
      </g>
     </g>
    </g>
    <g id="xtick_4">
     <g id="line2d_4">
      <g>
       <use xlink:href="#m8d85e1fbe0" x="288.594595" y="252" style="stroke: #000000; stroke-width: 0.8"/>
      </g>
     </g>
     <g id="text_4">
      <!-- $\mathdefault{10^{13}}$ -->
      <g transform="translate(280.044595 266.420313)scale(0.1 -0.1)">
       <defs>
        <path id="Montserrat-Regular-33" d="M 1856 2560 
Q 2560 2522 2928 2179 
Q 3296 1837 3296 1286 
Q 3296 902 3110 604 
Q 2925 307 2560 134 
Q 2195 -38 1670 -38 
Q 1184 -38 752 118 
Q 320 275 58 538 
L 282 902 
Q 506 672 877 528 
Q 1248 384 1670 384 
Q 2221 384 2521 624 
Q 2822 864 2822 1286 
Q 2822 1702 2521 1939 
Q 2221 2176 1613 2176 
L 1293 2176 
L 1293 2515 
L 2534 4070 
L 243 4070 
L 243 4480 
L 3123 4480 
L 3123 4154 
L 1856 2560 
z
" transform="scale(0.015625)"/>
       </defs>
       <use xlink:href="#Montserrat-Regular-31" transform="translate(0 0.184375)"/>
       <use xlink:href="#Montserrat-Regular-30" transform="translate(36.099991 0.184375)"/>
       <use xlink:href="#Montserrat-Regular-31" transform="translate(103.220378 37)scale(0.7)"/>
       <use xlink:href="#Montserrat-Regular-33" transform="translate(128.490372 37)scale(0.7)"/>
      </g>
     </g>
    </g>
    <g id="xtick_5">
     <g id="line2d_5">
      <g>
       <use xlink:href="#m8d85e1fbe0" x="355.621622" y="252" style="stroke: #000000; stroke-width: 0.8"/>
      </g>
     </g>
     <g id="text_5">
      <!-- $\mathdefault{10^{15}}$ -->
      <g transform="translate(347.071622 266.420313)scale(0.1 -0.1)">
       <defs>
        <path id="Montserrat-Regular-35" d="M 1510 2643 
Q 2483 2643 2928 2294 
Q 3373 1946 3373 1318 
Q 3373 928 3190 621 
Q 3008 314 2643 138 
Q 2278 -38 1747 -38 
Q 1267 -38 835 118 
Q 403 275 141 538 
L 365 902 
Q 589 672 953 528 
Q 1318 384 1741 384 
Q 2298 384 2602 633 
Q 2906 883 2906 1299 
Q 2906 1760 2563 1997 
Q 2221 2234 1408 2234 
L 454 2234 
L 685 4480 
L 3136 4480 
L 3136 4070 
L 1088 4070 
L 934 2643 
L 1510 2643 
z
" transform="scale(0.015625)"/>
       </defs>
       <use xlink:href="#Montserrat-Regular-31" transform="translate(0 0.184375)"/>
       <use xlink:href="#Montserrat-Regular-30" transform="translate(36.099991 0.184375)"/>
       <use xlink:href="#Montserrat-Regular-31" transform="translate(103.220378 37)scale(0.7)"/>
       <use xlink:href="#Montserrat-Regular-35" transform="translate(128.490372 37)scale(0.7)"/>
      </g>
     </g>
    </g>
    <g id="text_6">
     <!-- # parameters $N$ -->
     <g transform="translate(182.4 279.721875)scale(0.1 -0.1)">
      <defs>
       <path id="Montserrat-Regular-23" d="M 3315 2912 
L 3149 1568 
L 4058 1568 
L 4058 1216 
L 3104 1216 
L 2957 0 
L 2611 0 
L 2758 1216 
L 1446 1216 
L 1293 0 
L 947 0 
L 1094 1216 
L 186 1216 
L 186 1568 
L 1139 1568 
L 1306 2912 
L 390 2912 
L 390 3264 
L 1350 3264 
L 1498 4480 
L 1850 4480 
L 1696 3264 
L 3014 3264 
L 3162 4480 
L 3507 4480 
L 3360 3264 
L 4262 3264 
L 4262 2912 
L 3315 2912 
z
M 2970 2912 
L 1658 2912 
L 1485 1568 
L 2803 1568 
L 2970 2912 
z
" transform="scale(0.015625)"/>
       <path id="Montserrat-Regular-20" transform="scale(0.015625)"/>
       <path id="Montserrat-Regular-70" d="M 2368 3392 
Q 2842 3392 3226 3177 
Q 3610 2963 3827 2572 
Q 4045 2182 4045 1683 
Q 4045 1178 3827 787 
Q 3610 397 3229 182 
Q 2848 -32 2368 -32 
Q 1958 -32 1628 137 
Q 1299 307 1088 634 
L 1088 -1242 
L 634 -1242 
L 634 3366 
L 1069 3366 
L 1069 2701 
Q 1274 3034 1610 3213 
Q 1946 3392 2368 3392 
z
M 2336 371 
Q 2688 371 2976 534 
Q 3264 698 3427 998 
Q 3590 1299 3590 1683 
Q 3590 2067 3427 2364 
Q 3264 2662 2976 2828 
Q 2688 2995 2336 2995 
Q 1978 2995 1693 2828 
Q 1408 2662 1245 2364 
Q 1082 2067 1082 1683 
Q 1082 1299 1245 998 
Q 1408 698 1693 534 
Q 1978 371 2336 371 
z
" transform="scale(0.015625)"/>
       <path id="Montserrat-Regular-61" d="M 1811 3392 
Q 2470 3392 2822 3062 
Q 3174 2733 3174 2086 
L 3174 0 
L 2739 0 
L 2739 525 
Q 2586 262 2288 115 
Q 1990 -32 1581 -32 
Q 1018 -32 685 237 
Q 352 506 352 947 
Q 352 1376 662 1638 
Q 973 1901 1651 1901 
L 2720 1901 
L 2720 2106 
Q 2720 2541 2477 2768 
Q 2234 2995 1766 2995 
Q 1446 2995 1152 2889 
Q 858 2784 646 2598 
L 442 2938 
Q 698 3155 1056 3273 
Q 1414 3392 1811 3392 
z
M 1651 326 
Q 2035 326 2310 502 
Q 2586 678 2720 1011 
L 2720 1562 
L 1664 1562 
Q 800 1562 800 960 
Q 800 666 1024 496 
Q 1248 326 1651 326 
z
" transform="scale(0.015625)"/>
       <path id="Montserrat-Regular-72" d="M 1069 2707 
Q 1229 3046 1545 3219 
Q 1862 3392 2330 3392 
L 2330 2950 
L 2221 2957 
Q 1690 2957 1389 2630 
Q 1088 2304 1088 1715 
L 1088 0 
L 634 0 
L 634 3366 
L 1069 3366 
L 1069 2707 
z
" transform="scale(0.015625)"/>
       <path id="Montserrat-Regular-6d" d="M 4832 3392 
Q 5466 3392 5827 3027 
Q 6189 2662 6189 1952 
L 6189 0 
L 5734 0 
L 5734 1907 
Q 5734 2432 5481 2707 
Q 5229 2982 4768 2982 
Q 4243 2982 3942 2659 
Q 3642 2336 3642 1766 
L 3642 0 
L 3187 0 
L 3187 1907 
Q 3187 2432 2934 2707 
Q 2682 2982 2214 2982 
Q 1696 2982 1392 2659 
Q 1088 2336 1088 1766 
L 1088 0 
L 634 0 
L 634 3366 
L 1069 3366 
L 1069 2752 
Q 1248 3059 1568 3225 
Q 1888 3392 2304 3392 
Q 2726 3392 3036 3213 
Q 3347 3034 3501 2682 
Q 3686 3014 4035 3203 
Q 4384 3392 4832 3392 
z
" transform="scale(0.015625)"/>
       <path id="Montserrat-Regular-65" d="M 3565 1542 
L 749 1542 
Q 787 1018 1152 694 
Q 1517 371 2074 371 
Q 2387 371 2649 483 
Q 2912 595 3104 813 
L 3360 518 
Q 3136 250 2800 109 
Q 2464 -32 2061 -32 
Q 1542 -32 1142 189 
Q 742 410 518 800 
Q 294 1190 294 1683 
Q 294 2176 508 2566 
Q 723 2957 1097 3174 
Q 1472 3392 1939 3392 
Q 2406 3392 2777 3174 
Q 3149 2957 3360 2569 
Q 3571 2182 3571 1683 
L 3565 1542 
z
M 1939 3002 
Q 1453 3002 1123 2691 
Q 794 2381 749 1882 
L 3136 1882 
Q 3091 2381 2761 2691 
Q 2432 3002 1939 3002 
z
" transform="scale(0.015625)"/>
       <path id="Montserrat-Regular-74" d="M 2406 205 
Q 2278 90 2089 29 
Q 1901 -32 1696 -32 
Q 1222 -32 966 224 
Q 710 480 710 947 
L 710 2982 
L 109 2982 
L 109 3366 
L 710 3366 
L 710 4102 
L 1165 4102 
L 1165 3366 
L 2189 3366 
L 2189 2982 
L 1165 2982 
L 1165 973 
Q 1165 672 1315 515 
Q 1466 358 1747 358 
Q 1888 358 2019 403 
Q 2150 448 2246 531 
L 2406 205 
z
" transform="scale(0.015625)"/>
       <path id="Montserrat-Regular-73" d="M 1536 -32 
Q 1126 -32 752 86 
Q 378 205 166 384 
L 371 742 
Q 582 576 902 470 
Q 1222 365 1568 365 
Q 2029 365 2249 509 
Q 2470 653 2470 915 
Q 2470 1101 2348 1206 
Q 2227 1312 2041 1366 
Q 1856 1421 1549 1472 
Q 1139 1549 889 1629 
Q 640 1709 464 1901 
Q 288 2093 288 2432 
Q 288 2854 640 3123 
Q 992 3392 1619 3392 
Q 1946 3392 2272 3305 
Q 2598 3219 2810 3078 
L 2611 2714 
Q 2195 3002 1619 3002 
Q 1184 3002 963 2848 
Q 742 2694 742 2445 
Q 742 2253 867 2137 
Q 992 2022 1177 1968 
Q 1363 1914 1690 1856 
Q 2093 1779 2336 1702 
Q 2579 1626 2752 1440 
Q 2925 1254 2925 928 
Q 2925 486 2557 227 
Q 2189 -32 1536 -32 
z
" transform="scale(0.015625)"/>
       <path id="DejaVuSans-Oblique-4e" d="M 1081 4666 
L 1931 4666 
L 3219 666 
L 4000 4666 
L 4616 4666 
L 3706 0 
L 2853 0 
L 1569 4025 
L 788 0 
L 172 0 
L 1081 4666 
z
" transform="scale(0.015625)"/>
      </defs>
      <use xlink:href="#Montserrat-Regular-23" transform="translate(0 0.09375)"/>
      <use xlink:href="#Montserrat-Regular-20" transform="translate(69.599991 0.09375)"/>
      <use xlink:href="#Montserrat-Regular-70" transform="translate(95.799988 0.09375)"/>
      <use xlink:href="#Montserrat-Regular-61" transform="translate(163.599976 0.09375)"/>
      <use xlink:href="#Montserrat-Regular-72" transform="translate(222.59996 0.09375)"/>
      <use xlink:href="#Montserrat-Regular-61" transform="translate(262.699951 0.09375)"/>
      <use xlink:href="#Montserrat-Regular-6d" transform="translate(321.699936 0.09375)"/>
      <use xlink:href="#Montserrat-Regular-65" transform="translate(427.799927 0.09375)"/>
      <use xlink:href="#Montserrat-Regular-74" transform="translate(488.199921 0.09375)"/>
      <use xlink:href="#Montserrat-Regular-65" transform="translate(528.799911 0.09375)"/>
      <use xlink:href="#Montserrat-Regular-72" transform="translate(589.199905 0.09375)"/>
      <use xlink:href="#Montserrat-Regular-73" transform="translate(629.299896 0.09375)"/>
      <use xlink:href="#Montserrat-Regular-20" transform="translate(678.19989 0.09375)"/>
      <use xlink:href="#DejaVuSans-Oblique-4e" transform="translate(704.399887 0.09375)"/>
     </g>
    </g>
   </g>
   <g id="matplotlib.axis_2">
    <g id="ytick_1">
     <g id="line2d_6">
      <defs>
       <path id="m5331b1e4ee" d="M 0 0 
L -3.5 0 
" style="stroke: #000000; stroke-width: 0.8"/>
      </defs>
      <g>
       <use xlink:href="#m5331b1e4ee" x="54" y="252" style="stroke: #000000; stroke-width: 0.8"/>
      </g>
     </g>
     <g id="text_7">
      <!-- $\mathdefault{10^{7}}$ -->
      <g transform="translate(32.2 255.710156)scale(0.1 -0.1)">
       <use xlink:href="#Montserrat-Regular-31" transform="translate(0 0.184375)"/>
       <use xlink:href="#Montserrat-Regular-30" transform="translate(36.099991 0.184375)"/>
       <use xlink:href="#Montserrat-Regular-37" transform="translate(103.220378 37)scale(0.7)"/>
      </g>
     </g>
    </g>
    <g id="ytick_2">
     <g id="line2d_7">
      <g>
       <use xlink:href="#m5331b1e4ee" x="54" y="212.465455" style="stroke: #000000; stroke-width: 0.8"/>
      </g>
     </g>
     <g id="text_8">
      <!-- $\mathdefault{10^{9}}$ -->
      <g transform="translate(32.1 216.175611)scale(0.1 -0.1)">
       <use xlink:href="#Montserrat-Regular-31" transform="translate(0 0.76875)"/>
       <use xlink:href="#Montserrat-Regular-30" transform="translate(36.099991 0.76875)"/>
       <use xlink:href="#Montserrat-Regular-39" transform="translate(103.220378 37.584375)scale(0.7)"/>
      </g>
     </g>
    </g>
    <g id="ytick_3">
     <g id="line2d_8">
      <g>
       <use xlink:href="#m5331b1e4ee" x="54" y="172.930909" style="stroke: #000000; stroke-width: 0.8"/>
      </g>
     </g>
     <g id="text_9">
      <!-- $\mathdefault{10^{11}}$ -->
      <g transform="translate(31.3 176.641065)scale(0.1 -0.1)">
       <use xlink:href="#Montserrat-Regular-31" transform="translate(0 0.184375)"/>
       <use xlink:href="#Montserrat-Regular-30" transform="translate(36.099991 0.184375)"/>
       <use xlink:href="#Montserrat-Regular-31" transform="translate(103.220378 37)scale(0.7)"/>
       <use xlink:href="#Montserrat-Regular-31" transform="translate(128.490372 37)scale(0.7)"/>
      </g>
     </g>
    </g>
    <g id="ytick_4">
     <g id="line2d_9">
      <g>
       <use xlink:href="#m5331b1e4ee" x="54" y="133.396364" style="stroke: #000000; stroke-width: 0.8"/>
      </g>
     </g>
     <g id="text_10">
      <!-- $\mathdefault{10^{13}}$ -->
      <g transform="translate(29.9 137.10652)scale(0.1 -0.1)">
       <use xlink:href="#Montserrat-Regular-31" transform="translate(0 0.184375)"/>
       <use xlink:href="#Montserrat-Regular-30" transform="translate(36.099991 0.184375)"/>
       <use xlink:href="#Montserrat-Regular-31" transform="translate(103.220378 37)scale(0.7)"/>
       <use xlink:href="#Montserrat-Regular-33" transform="translate(128.490372 37)scale(0.7)"/>
      </g>
     </g>
    </g>
    <g id="ytick_5">
     <g id="line2d_10">
      <g>
       <use xlink:href="#m5331b1e4ee" x="54" y="93.861818" style="stroke: #000000; stroke-width: 0.8"/>
      </g>
     </g>
     <g id="text_11">
      <!-- $\mathdefault{10^{15}}$ -->
      <g transform="translate(29.9 97.571974)scale(0.1 -0.1)">
       <use xlink:href="#Montserrat-Regular-31" transform="translate(0 0.184375)"/>
       <use xlink:href="#Montserrat-Regular-30" transform="translate(36.099991 0.184375)"/>
       <use xlink:href="#Montserrat-Regular-31" transform="translate(103.220378 37)scale(0.7)"/>
       <use xlink:href="#Montserrat-Regular-35" transform="translate(128.490372 37)scale(0.7)"/>
      </g>
     </g>
    </g>
    <g id="ytick_6">
     <g id="line2d_11">
      <g>
       <use xlink:href="#m5331b1e4ee" x="54" y="54.327273" style="stroke: #000000; stroke-width: 0.8"/>
      </g>
     </g>
     <g id="text_12">
      <!-- $\mathdefault{10^{17}}$ -->
      <g transform="translate(29.7 58.037429)scale(0.1 -0.1)">
       <use xlink:href="#Montserrat-Regular-31" transform="translate(0 0.184375)"/>
       <use xlink:href="#Montserrat-Regular-30" transform="translate(36.099991 0.184375)"/>
       <use xlink:href="#Montserrat-Regular-31" transform="translate(103.220378 37)scale(0.7)"/>
       <use xlink:href="#Montserrat-Regular-37" transform="translate(128.490372 37)scale(0.7)"/>
      </g>
     </g>
    </g>
    <g id="text_13">
     <!-- data (# tokens $D$) -->
     <g transform="translate(23.7 186.18)rotate(-90)scale(0.1 -0.1)">
      <defs>
       <path id="Montserrat-Regular-64" d="M 3706 4749 
L 3706 0 
L 3270 0 
L 3270 666 
Q 3066 326 2730 147 
Q 2394 -32 1971 -32 
Q 1498 -32 1114 185 
Q 730 403 512 793 
Q 294 1184 294 1683 
Q 294 2182 512 2572 
Q 730 2963 1114 3177 
Q 1498 3392 1971 3392 
Q 2381 3392 2710 3222 
Q 3040 3053 3251 2726 
L 3251 4749 
L 3706 4749 
z
M 2010 371 
Q 2362 371 2646 534 
Q 2931 698 3094 998 
Q 3258 1299 3258 1683 
Q 3258 2067 3094 2368 
Q 2931 2669 2646 2832 
Q 2362 2995 2010 2995 
Q 1651 2995 1366 2832 
Q 1082 2669 918 2368 
Q 755 2067 755 1683 
Q 755 1299 918 998 
Q 1082 698 1366 534 
Q 1651 371 2010 371 
z
" transform="scale(0.015625)"/>
       <path id="Montserrat-Regular-28" d="M 1408 -1242 
Q 1050 -653 858 112 
Q 666 877 666 1754 
Q 666 2630 858 3401 
Q 1050 4173 1408 4749 
L 1843 4749 
Q 1466 4102 1290 3360 
Q 1114 2618 1114 1754 
Q 1114 890 1290 147 
Q 1466 -595 1843 -1242 
L 1408 -1242 
z
" transform="scale(0.015625)"/>
       <path id="Montserrat-Regular-6f" d="M 2010 -32 
Q 1523 -32 1132 189 
Q 742 410 518 800 
Q 294 1190 294 1683 
Q 294 2176 518 2566 
Q 742 2957 1132 3174 
Q 1523 3392 2010 3392 
Q 2496 3392 2886 3174 
Q 3277 2957 3497 2566 
Q 3718 2176 3718 1683 
Q 3718 1190 3497 800 
Q 3277 410 2886 189 
Q 2496 -32 2010 -32 
z
M 2010 371 
Q 2368 371 2653 534 
Q 2938 698 3098 998 
Q 3258 1299 3258 1683 
Q 3258 2067 3098 2368 
Q 2938 2669 2653 2832 
Q 2368 2995 2010 2995 
Q 1651 2995 1366 2832 
Q 1082 2669 918 2368 
Q 755 2067 755 1683 
Q 755 1299 918 998 
Q 1082 698 1366 534 
Q 1651 371 2010 371 
z
" transform="scale(0.015625)"/>
       <path id="Montserrat-Regular-6b" d="M 1882 1690 
L 1088 960 
L 1088 0 
L 634 0 
L 634 4749 
L 1088 4749 
L 1088 1530 
L 3098 3366 
L 3661 3366 
L 2221 1990 
L 3795 0 
L 3238 0 
L 1882 1690 
z
" transform="scale(0.015625)"/>
       <path id="Montserrat-Regular-6e" d="M 2349 3392 
Q 2982 3392 3356 3024 
Q 3731 2656 3731 1952 
L 3731 0 
L 3277 0 
L 3277 1907 
Q 3277 2432 3014 2707 
Q 2752 2982 2266 2982 
Q 1722 2982 1405 2659 
Q 1088 2336 1088 1766 
L 1088 0 
L 634 0 
L 634 3366 
L 1069 3366 
L 1069 2746 
Q 1254 3053 1584 3222 
Q 1914 3392 2349 3392 
z
" transform="scale(0.015625)"/>
       <path id="DejaVuSans-Oblique-44" d="M 1081 4666 
L 2438 4666 
Q 3519 4666 4070 4208 
Q 4622 3750 4622 2847 
Q 4622 2250 4412 1698 
Q 4203 1147 3834 769 
Q 3463 381 2891 190 
Q 2319 0 1538 0 
L 172 0 
L 1081 4666 
z
M 1613 4147 
L 909 519 
L 1734 519 
Q 2794 519 3375 1128 
Q 3956 1738 3956 2847 
Q 3956 3519 3581 3833 
Q 3206 4147 2406 4147 
L 1613 4147 
z
" transform="scale(0.015625)"/>
       <path id="Montserrat-Regular-29" d="M 256 -1242 
Q 634 -595 813 144 
Q 992 883 992 1754 
Q 992 2624 813 3363 
Q 634 4102 256 4749 
L 691 4749 
Q 1050 4173 1245 3401 
Q 1440 2630 1440 1754 
Q 1440 877 1248 109 
Q 1056 -659 691 -1242 
L 256 -1242 
z
" transform="scale(0.015625)"/>
      </defs>
      <use xlink:href="#Montserrat-Regular-64" transform="translate(0 0.796875)"/>
      <use xlink:href="#Montserrat-Regular-61" transform="translate(67.799988 0.796875)"/>
      <use xlink:href="#Montserrat-Regular-74" transform="translate(126.799973 0.796875)"/>
      <use xlink:href="#Montserrat-Regular-61" transform="translate(167.399963 0.796875)"/>
      <use xlink:href="#Montserrat-Regular-20" transform="translate(226.399948 0.796875)"/>
      <use xlink:href="#Montserrat-Regular-28" transform="translate(252.599945 0.796875)"/>
      <use xlink:href="#Montserrat-Regular-23" transform="translate(285.499939 0.796875)"/>
      <use xlink:href="#Montserrat-Regular-20" transform="translate(355.09993 0.796875)"/>
      <use xlink:href="#Montserrat-Regular-74" transform="translate(381.299927 0.796875)"/>
      <use xlink:href="#Montserrat-Regular-6f" transform="translate(421.899918 0.796875)"/>
      <use xlink:href="#Montserrat-Regular-6b" transform="translate(484.599915 0.796875)"/>
      <use xlink:href="#Montserrat-Regular-65" transform="translate(544.699905 0.796875)"/>
      <use xlink:href="#Montserrat-Regular-6e" transform="translate(605.099899 0.796875)"/>
      <use xlink:href="#Montserrat-Regular-73" transform="translate(672.799881 0.796875)"/>
      <use xlink:href="#Montserrat-Regular-20" transform="translate(721.699875 0.796875)"/>
      <use xlink:href="#DejaVuSans-Oblique-44" transform="translate(747.899872 0.796875)"/>
      <use xlink:href="#Montserrat-Regular-29" transform="translate(824.901825 0.796875)"/>
     </g>
    </g>
   </g>
   <g id="PathCollection_1">
    <path d="M 327.475833 34.757673 
L 329.816216 37.341387 
L 332.265346 39.699491 
L 334.843243 41.875057 
L 337.793931 44.048291 
L 340.546095 45.827345 
L 343.891892 47.72321 
L 347.251313 49.385455 
L 351.264865 51.108606 
L 355.286486 52.600768 
L 359.978378 54.098703 
L 365.005405 55.465813 
L 370.367568 56.704403 
L 376.735135 57.935678 
L 383.876091 59.071418 
L 388.8 59.730885 
L 388.8 59.730885 
" clip-path="url(#p0cdc4a0e8d)" style="fill: none; stroke: #4682b4; stroke-width: 1.5"/>
   </g>
   <g id="PathCollection_2">
    <path d="M 286.48935 34.757673 
L 287.879712 38.711127 
L 289.34263 42.269236 
L 291.047277 45.827345 
L 292.807585 48.990109 
L 294.627027 51.834405 
L 296.752859 54.722618 
L 298.925503 57.292364 
L 301.216403 59.664436 
L 303.675676 61.899933 
L 306.356757 64.037037 
L 309.372973 66.135899 
L 312.389189 67.971217 
L 315.740541 69.755352 
L 319.571267 71.5248 
L 323.529955 73.106182 
L 328.140541 74.689101 
L 333.167568 76.155588 
L 338.52973 77.480561 
L 344.562162 78.731206 
L 350.92973 79.831507 
L 358.637838 80.921039 
L 367.016216 81.871224 
L 376.735135 82.737885 
L 387.459459 83.471808 
L 388.8 83.550577 
L 388.8 83.550577 
" clip-path="url(#p0cdc4a0e8d)" style="fill: none; stroke: #55749f; stroke-width: 1.5"/>
   </g>
   <g id="PathCollection_3">
    <path d="M 252.113171 34.757673 
L 253.182987 41.280873 
L 254.315505 46.815709 
L 255.494343 51.559855 
L 256.84848 56.106327 
L 258.320878 60.257455 
L 259.801048 63.815564 
L 261.528203 67.373673 
L 263.312559 70.536436 
L 265.135135 73.348342 
L 267.315181 76.268945 
L 269.341457 78.641018 
L 271.644199 81.013091 
L 274.0458 83.187491 
L 276.52973 85.173281 
L 279.545946 87.287016 
L 282.562162 89.134506 
L 285.913514 90.929834 
L 289.664322 92.675782 
L 293.621622 94.270206 
L 298.147771 95.838545 
L 303.005405 97.275049 
L 308.367568 98.620607 
L 314.4 99.889761 
L 320.767568 101.005542 
L 328.475676 102.11058 
L 336.518919 103.038776 
L 345.902703 103.897648 
L 356.291892 104.633032 
L 369.027027 105.306969 
L 383.437838 105.851236 
L 388.8 106.009567 
L 388.8 106.009567 
" clip-path="url(#p0cdc4a0e8d)" style="fill: none; stroke: #65678a; stroke-width: 1.5"/>
   </g>
   <g id="PathCollection_4">
    <path d="M 220.269683 34.757673 
L 221.045194 44.245964 
L 221.917187 52.152873 
L 222.943311 59.269091 
L 224.067664 65.396945 
L 225.254054 70.636669 
L 226.594595 75.507726 
L 228.093204 80.024727 
L 229.610811 83.88333 
L 231.297524 87.536291 
L 233.110838 90.896727 
L 234.972973 93.881561 
L 237.095639 96.826909 
L 239.223822 99.396655 
L 241.464641 101.768727 
L 243.797949 103.943127 
L 246.452823 106.117527 
L 249.204063 108.094255 
L 252.064865 109.904665 
L 255.416216 111.761865 
L 258.870079 113.431418 
L 262.789189 115.077819 
L 266.965479 116.594182 
L 271.502703 118.01258 
L 276.864865 119.438134 
L 282.562162 120.712565 
L 288.594595 121.843475 
L 295.510064 122.919709 
L 303.340541 123.911452 
L 312.724324 124.853295 
L 322.443243 125.61263 
L 334.172973 126.310394 
L 348.583784 126.929177 
L 366.010811 127.437206 
L 387.124324 127.824911 
L 388.8 127.848361 
L 388.8 127.848361 
" clip-path="url(#p0cdc4a0e8d)" style="fill: none; stroke: #745976; stroke-width: 1.5"/>
   </g>
   <g id="PathCollection_5">
    <path d="M 189.552495 34.757673 
L 190.10313 47.804073 
L 190.790337 58.676073 
L 191.578961 67.571345 
L 192.464236 75.082909 
L 193.486101 81.803782 
L 194.622335 87.733964 
L 195.78169 92.675782 
L 197.187071 97.6176 
L 198.674602 101.9664 
L 200.118919 105.554901 
L 201.874569 109.280291 
L 203.72768 112.640727 
L 205.485718 115.408145 
L 207.653242 118.373236 
L 209.637506 120.745309 
L 211.889452 123.117382 
L 214.464636 125.489455 
L 216.906598 127.466182 
L 219.891892 129.587131 
L 222.908108 131.459428 
L 226.259459 133.277621 
L 229.945946 135.016554 
L 233.967568 136.656914 
L 238.324324 138.187659 
L 243.016216 139.601065 
L 248.096343 140.907927 
L 254.075676 142.202769 
L 260.443243 143.350564 
L 267.816216 144.442603 
L 275.524324 145.368302 
L 284.662203 146.245091 
L 295.632432 147.054724 
L 308.367568 147.750385 
L 323.113514 148.323795 
L 341.210811 148.796905 
L 363.664865 149.158262 
L 388.8 149.389236 
L 388.8 149.389236 
" clip-path="url(#p0cdc4a0e8d)" style="fill: none; stroke: #844b60; stroke-width: 1.5"/>
   </g>
   <g id="PathCollection_6">
    <path d="M 159.366784 34.757673 
L 159.78194 52.943564 
L 160.307272 66.582982 
L 160.952342 77.652655 
L 161.719228 86.943273 
L 162.59719 94.850182 
L 163.630574 101.9664 
L 164.762918 108.094255 
L 165.935135 113.243436 
L 167.300023 118.175564 
L 168.819073 122.722036 
L 170.304856 126.477818 
L 172.050836 130.2336 
L 173.879104 133.594036 
L 175.654054 136.423306 
L 177.747624 139.326545 
L 179.875653 141.896291 
L 182.115664 144.268364 
L 184.448363 146.442764 
L 187.102467 148.617164 
L 189.853147 150.593891 
L 192.745946 152.423586 
L 196.097297 154.279031 
L 199.515889 155.931055 
L 203.47027 157.59164 
L 207.608262 159.093818 
L 212.183784 160.523769 
L 217.210811 161.866767 
L 223.243243 163.221784 
L 229.275676 164.351758 
L 236.135546 165.419345 
L 244.021622 166.418135 
L 253.405405 167.359491 
L 263.124324 168.118288 
L 274.854054 168.81552 
L 289.264865 169.433934 
L 306.691892 169.94173 
L 327.805405 170.329189 
L 355.956757 170.618679 
L 388.8 170.784551 
L 388.8 170.784551 
" clip-path="url(#p0cdc4a0e8d)" style="fill: none; stroke: #933d4c; stroke-width: 1.5"/>
   </g>
   <g id="PathCollection_7">
    <path d="M 129.439333 34.757673 
L 129.758183 59.664436 
L 130.201091 77.059636 
L 130.758021 90.303709 
L 131.445169 101.175709 
L 132.25441 110.268655 
L 133.145774 117.780218 
L 134.17488 124.501091 
L 135.319175 130.431273 
L 136.487487 135.373091 
L 137.840957 140.117236 
L 139.328599 144.466036 
L 140.8 148.117392 
L 142.527598 151.779927 
L 144.380809 155.140364 
L 146.162162 157.942607 
L 148.30531 160.872873 
L 150.465424 163.442618 
L 152.742636 165.814691 
L 155.210811 168.07116 
L 157.891892 170.219035 
L 160.922277 172.337891 
L 164.176034 174.314618 
L 167.538443 176.093673 
L 170.962162 177.678166 
L 174.983784 179.296842 
L 179.431977 180.837818 
L 184.367568 182.29665 
L 189.72973 183.639927 
L 195.762162 184.90736 
L 202.12973 186.021301 
L 209.502703 187.081559 
L 217.545946 188.017149 
L 226.92973 188.882294 
L 237.318919 189.623172 
L 250.054054 190.301868 
L 264.464865 190.850001 
L 282.562162 191.315372 
L 306.691892 191.690525 
L 338.194595 191.945968 
L 388.8 192.108291 
L 388.8 192.108291 
" clip-path="url(#p0cdc4a0e8d)" style="fill: none; stroke: #a33037; stroke-width: 1.5"/>
   </g>
   <g id="PathCollection_8">
    <path d="M 99.640734 34.757673 
L 99.890508 68.164364 
L 100.248649 88.545543 
L 100.736266 103.943127 
L 101.325021 115.803491 
L 102.051456 125.8848 
L 102.871485 134.187055 
L 103.765304 141.1056 
L 104.801604 147.431127 
L 105.928591 152.965964 
L 107.103642 157.710109 
L 108.451833 162.256582 
L 109.841847 166.210036 
L 111.308108 169.780753 
L 113.109867 173.523927 
L 114.884896 176.686691 
L 116.67027 179.458647 
L 118.866239 182.4192 
L 120.880905 184.791273 
L 123.169746 187.163345 
L 125.556122 189.337745 
L 128.064865 191.354639 
L 131.095665 193.488873 
L 134.326341 195.4656 
L 137.662989 197.244655 
L 141.135135 198.862482 
L 145.156757 200.490502 
L 149.513514 202.01054 
L 154.540541 203.506378 
L 159.567568 204.778449 
L 165.6 206.064719 
L 171.967568 207.194499 
L 179.340541 208.269799 
L 187.048649 209.182159 
L 196.432432 210.066702 
L 206.486486 210.801811 
L 218.715127 211.477091 
L 233.782484 212.070109 
L 252.064865 212.549545 
L 275.189189 212.920564 
L 307.027027 213.189388 
L 355.286486 213.352839 
L 388.8 213.395351 
L 388.8 213.395351 
" clip-path="url(#p0cdc4a0e8d)" style="fill: none; stroke: #b22222; stroke-width: 1.5"/>
   </g>
   <g id="text_14">
    <g id="patch_3">
     <path d="M 362.929113 64.208336 
L 382.099426 64.208336 
L 382.099426 54.647399 
L 362.929113 54.647399 
z
" style="fill: #ffffff"/>
    </g>
    <!-- 0.01 -->
    <g transform="translate(363.029113 62.167711)scale(0.1 -0.1)">
     <defs>
      <path id="Montserrat-Regular-2e" d="M 678 -32 
Q 538 -32 438 70 
Q 339 173 339 320 
Q 339 467 438 566 
Q 538 666 678 666 
Q 819 666 921 566 
Q 1024 467 1024 320 
Q 1024 173 921 70 
Q 819 -32 678 -32 
z
" transform="scale(0.015625)"/>
     </defs>
     <use xlink:href="#Montserrat-Regular-30"/>
     <use xlink:href="#Montserrat-Regular-2e" x="66.199997"/>
     <use xlink:href="#Montserrat-Regular-30" x="87.399994"/>
     <use xlink:href="#Montserrat-Regular-31" x="153.599991"/>
    </g>
   </g>
   <g id="text_15">
    <g id="patch_4">
     <path d="M 362.494374 88.165632 
L 383.734999 88.165632 
L 383.734999 78.604695 
L 362.494374 78.604695 
z
" style="fill: #ffffff"/>
    </g>
    <!-- 0.02 -->
    <g transform="translate(362.594374 86.125007)scale(0.1 -0.1)">
     <defs>
      <path id="Montserrat-Regular-32" d="M 3392 410 
L 3392 0 
L 250 0 
L 250 326 
L 2112 2150 
Q 2464 2496 2589 2749 
Q 2714 3002 2714 3258 
Q 2714 3654 2442 3875 
Q 2170 4096 1664 4096 
Q 877 4096 442 3597 
L 115 3878 
Q 378 4186 784 4352 
Q 1190 4518 1702 4518 
Q 2387 4518 2787 4195 
Q 3187 3872 3187 3309 
Q 3187 2963 3033 2643 
Q 2880 2323 2451 1907 
L 928 410 
L 3392 410 
z
" transform="scale(0.015625)"/>
     </defs>
     <use xlink:href="#Montserrat-Regular-30"/>
     <use xlink:href="#Montserrat-Regular-2e" x="66.199997"/>
     <use xlink:href="#Montserrat-Regular-30" x="87.399994"/>
     <use xlink:href="#Montserrat-Regular-32" x="153.599991"/>
    </g>
   </g>
   <g id="text_16">
    <g id="patch_5">
     <path d="M 362.258843 110.704154 
L 384.429156 110.704154 
L 384.429156 101.143216 
L 362.258843 101.143216 
z
" style="fill: #ffffff"/>
    </g>
    <!-- 0.04 -->
    <g transform="translate(362.358843 108.663529)scale(0.1 -0.1)">
     <defs>
      <path id="Montserrat-Regular-34" d="M 4141 1178 
L 3245 1178 
L 3245 0 
L 2784 0 
L 2784 1178 
L 256 1178 
L 256 1510 
L 2630 4480 
L 3142 4480 
L 851 1587 
L 2797 1587 
L 2797 2624 
L 3245 2624 
L 3245 1587 
L 4141 1587 
L 4141 1178 
z
" transform="scale(0.015625)"/>
     </defs>
     <use xlink:href="#Montserrat-Regular-30"/>
     <use xlink:href="#Montserrat-Regular-2e" x="66.199997"/>
     <use xlink:href="#Montserrat-Regular-30" x="87.399994"/>
     <use xlink:href="#Montserrat-Regular-34" x="153.599991"/>
    </g>
   </g>
   <g id="text_17">
    <g id="patch_6">
     <path d="M 362.258843 132.585996 
L 384.199468 132.585996 
L 384.199468 123.025059 
L 362.258843 123.025059 
z
" style="fill: #ffffff"/>
    </g>
    <!-- 0.08 -->
    <g transform="translate(362.358843 130.545371)scale(0.1 -0.1)">
     <defs>
      <path id="Montserrat-Regular-38" d="M 2899 2349 
Q 3322 2208 3549 1926 
Q 3776 1645 3776 1248 
Q 3776 858 3565 566 
Q 3354 275 2960 118 
Q 2566 -38 2035 -38 
Q 1229 -38 768 307 
Q 307 653 307 1248 
Q 307 1651 528 1929 
Q 749 2208 1171 2349 
Q 826 2483 646 2736 
Q 467 2989 467 3334 
Q 467 3878 892 4198 
Q 1318 4518 2035 4518 
Q 2509 4518 2864 4374 
Q 3219 4230 3417 3961 
Q 3616 3693 3616 3334 
Q 3616 2989 3430 2736 
Q 3245 2483 2899 2349 
z
M 928 3322 
Q 928 2950 1222 2732 
Q 1517 2515 2035 2515 
Q 2554 2515 2851 2732 
Q 3149 2950 3149 3315 
Q 3149 3693 2845 3910 
Q 2541 4128 2035 4128 
Q 1523 4128 1225 3910 
Q 928 3693 928 3322 
z
M 2035 352 
Q 2630 352 2966 595 
Q 3302 838 3302 1254 
Q 3302 1670 2966 1910 
Q 2630 2150 2035 2150 
Q 1446 2150 1110 1910 
Q 774 1670 774 1254 
Q 774 832 1107 592 
Q 1440 352 2035 352 
z
" transform="scale(0.015625)"/>
     </defs>
     <use xlink:href="#Montserrat-Regular-30"/>
     <use xlink:href="#Montserrat-Regular-2e" x="66.199997"/>
     <use xlink:href="#Montserrat-Regular-30" x="87.399994"/>
     <use xlink:href="#Montserrat-Regular-38" x="153.599991"/>
    </g>
   </g>
   <g id="text_18">
    <g id="patch_7">
     <path d="M 362.258843 154.14848 
L 380.899468 154.14848 
L 380.899468 144.587542 
L 362.258843 144.587542 
z
" style="fill: #ffffff"/>
    </g>
    <!-- 0.16 -->
    <g transform="translate(362.358843 152.107855)scale(0.1 -0.1)">
     <defs>
      <path id="Montserrat-Regular-36" d="M 2189 2682 
Q 2630 2682 2972 2515 
Q 3315 2349 3507 2045 
Q 3699 1741 3699 1338 
Q 3699 928 3500 614 
Q 3302 301 2953 131 
Q 2605 -38 2170 -38 
Q 1280 -38 806 547 
Q 333 1133 333 2202 
Q 333 2950 589 3468 
Q 845 3987 1305 4252 
Q 1766 4518 2381 4518 
Q 3046 4518 3443 4275 
L 3258 3904 
Q 2938 4115 2387 4115 
Q 1645 4115 1222 3644 
Q 800 3174 800 2278 
Q 800 2118 819 1914 
Q 986 2278 1350 2480 
Q 1715 2682 2189 2682 
z
M 2150 352 
Q 2637 352 2941 617 
Q 3245 883 3245 1325 
Q 3245 1766 2941 2028 
Q 2637 2291 2118 2291 
Q 1779 2291 1520 2163 
Q 1261 2035 1113 1811 
Q 966 1587 966 1312 
Q 966 1056 1104 838 
Q 1242 621 1510 486 
Q 1779 352 2150 352 
z
" transform="scale(0.015625)"/>
     </defs>
     <use xlink:href="#Montserrat-Regular-30"/>
     <use xlink:href="#Montserrat-Regular-2e" x="66.199997"/>
     <use xlink:href="#Montserrat-Regular-31" x="87.399994"/>
     <use xlink:href="#Montserrat-Regular-36" x="123.499985"/>
    </g>
   </g>
   <g id="text_19">
    <g id="patch_8">
     <path d="M 362.258843 175.554686 
L 382.519781 175.554686 
L 382.519781 165.993748 
L 362.258843 165.993748 
z
" style="fill: #ffffff"/>
    </g>
    <!-- 0.32 -->
    <g transform="translate(362.358843 173.514061)scale(0.1 -0.1)">
     <use xlink:href="#Montserrat-Regular-30"/>
     <use xlink:href="#Montserrat-Regular-2e" x="66.199997"/>
     <use xlink:href="#Montserrat-Regular-33" x="87.399994"/>
     <use xlink:href="#Montserrat-Regular-32" x="143.799988"/>
    </g>
   </g>
   <g id="text_20">
    <g id="patch_9">
     <path d="M 362.593978 196.884168 
L 384.234603 196.884168 
L 384.234603 187.323231 
L 362.593978 187.323231 
z
" style="fill: #ffffff"/>
    </g>
    <!-- 0.64 -->
    <g transform="translate(362.693978 194.843543)scale(0.1 -0.1)">
     <use xlink:href="#Montserrat-Regular-30"/>
     <use xlink:href="#Montserrat-Regular-2e" x="66.199997"/>
     <use xlink:href="#Montserrat-Regular-36" x="87.399994"/>
     <use xlink:href="#Montserrat-Regular-34" x="148.299988"/>
    </g>
   </g>
   <g id="text_21">
    <g id="patch_10">
     <path d="M 362.258843 218.173201 
L 380.247906 218.173201 
L 380.247906 208.612263 
L 362.258843 208.612263 
z
" style="fill: #ffffff"/>
    </g>
    <!-- 1.28 -->
    <g transform="translate(362.358843 216.132576)scale(0.1 -0.1)">
     <use xlink:href="#Montserrat-Regular-31"/>
     <use xlink:href="#Montserrat-Regular-2e" x="36.099991"/>
     <use xlink:href="#Montserrat-Regular-32" x="57.299988"/>
     <use xlink:href="#Montserrat-Regular-38" x="114.099976"/>
    </g>
   </g>
   <g id="text_22">
    <a xlink:href="https://dynomight.net">
     <!-- dynomight.net -->
     <g style="opacity: 0.25" transform="translate(287.0611 285.229885)scale(0.1 -0.1)">
      <defs>
       <path id="DejaVuSansMono-64" d="M 2681 3053 
L 2681 4863 
L 3256 4863 
L 3256 0 
L 2681 0 
L 2681 441 
Q 2538 181 2298 45 
Q 2059 -91 1747 -91 
Q 1113 -91 748 401 
Q 384 894 384 1759 
Q 384 2613 750 3098 
Q 1116 3584 1747 3584 
Q 2063 3584 2303 3448 
Q 2544 3313 2681 3053 
z
M 991 1747 
Q 991 1078 1203 737 
Q 1416 397 1831 397 
Q 2247 397 2464 740 
Q 2681 1084 2681 1747 
Q 2681 2413 2464 2755 
Q 2247 3097 1831 3097 
Q 1416 3097 1203 2756 
Q 991 2416 991 1747 
z
" transform="scale(0.015625)"/>
       <path id="DejaVuSansMono-79" d="M 2681 1125 
Q 2538 759 2316 163 
Q 2006 -663 1900 -844 
Q 1756 -1088 1540 -1209 
Q 1325 -1331 1038 -1331 
L 575 -1331 
L 575 -850 
L 916 -850 
Q 1169 -850 1312 -703 
Q 1456 -556 1678 56 
L 325 3500 
L 934 3500 
L 1972 763 
L 2994 3500 
L 3603 3500 
L 2681 1125 
z
" transform="scale(0.015625)"/>
       <path id="DejaVuSansMono-6e" d="M 3284 2169 
L 3284 0 
L 2706 0 
L 2706 2169 
Q 2706 2641 2540 2862 
Q 2375 3084 2022 3084 
Q 1619 3084 1401 2798 
Q 1184 2513 1184 1978 
L 1184 0 
L 609 0 
L 609 3500 
L 1184 3500 
L 1184 2975 
Q 1338 3275 1600 3429 
Q 1863 3584 2222 3584 
Q 2756 3584 3020 3232 
Q 3284 2881 3284 2169 
z
" transform="scale(0.015625)"/>
       <path id="DejaVuSansMono-6f" d="M 1925 3097 
Q 1488 3097 1263 2756 
Q 1038 2416 1038 1747 
Q 1038 1081 1263 739 
Q 1488 397 1925 397 
Q 2366 397 2591 739 
Q 2816 1081 2816 1747 
Q 2816 2416 2591 2756 
Q 2366 3097 1925 3097 
z
M 1925 3584 
Q 2653 3584 3039 3112 
Q 3425 2641 3425 1747 
Q 3425 850 3040 379 
Q 2656 -91 1925 -91 
Q 1197 -91 812 379 
Q 428 850 428 1747 
Q 428 2641 812 3112 
Q 1197 3584 1925 3584 
z
" transform="scale(0.015625)"/>
       <path id="DejaVuSansMono-6d" d="M 2113 3144 
Q 2219 3369 2383 3476 
Q 2547 3584 2778 3584 
Q 3200 3584 3373 3257 
Q 3547 2931 3547 2028 
L 3547 0 
L 3022 0 
L 3022 2003 
Q 3022 2744 2939 2923 
Q 2856 3103 2638 3103 
Q 2388 3103 2295 2911 
Q 2203 2719 2203 2003 
L 2203 0 
L 1678 0 
L 1678 2003 
Q 1678 2753 1589 2928 
Q 1500 3103 1269 3103 
Q 1041 3103 952 2911 
Q 863 2719 863 2003 
L 863 0 
L 341 0 
L 341 3500 
L 863 3500 
L 863 3200 
Q 966 3388 1120 3486 
Q 1275 3584 1472 3584 
Q 1709 3584 1867 3475 
Q 2025 3366 2113 3144 
z
" transform="scale(0.015625)"/>
       <path id="DejaVuSansMono-69" d="M 800 3500 
L 2272 3500 
L 2272 447 
L 3413 447 
L 3413 0 
L 556 0 
L 556 447 
L 1697 447 
L 1697 3053 
L 800 3053 
L 800 3500 
z
M 1697 4863 
L 2272 4863 
L 2272 4134 
L 1697 4134 
L 1697 4863 
z
" transform="scale(0.015625)"/>
       <path id="DejaVuSansMono-67" d="M 2681 1778 
Q 2681 2425 2470 2761 
Q 2259 3097 1856 3097 
Q 1434 3097 1212 2761 
Q 991 2425 991 1778 
Q 991 1131 1214 792 
Q 1438 453 1863 453 
Q 2259 453 2470 793 
Q 2681 1134 2681 1778 
z
M 3256 225 
Q 3256 -563 2884 -969 
Q 2513 -1375 1791 -1375 
Q 1553 -1375 1293 -1331 
Q 1034 -1288 775 -1203 
L 775 -634 
Q 1081 -778 1331 -847 
Q 1581 -916 1791 -916 
Q 2256 -916 2468 -662 
Q 2681 -409 2681 141 
L 2681 166 
L 2681 556 
Q 2544 263 2306 119 
Q 2069 -25 1728 -25 
Q 1116 -25 750 465 
Q 384 956 384 1778 
Q 384 2603 750 3093 
Q 1116 3584 1728 3584 
Q 2066 3584 2300 3450 
Q 2534 3316 2681 3034 
L 2681 3488 
L 3256 3488 
L 3256 225 
z
" transform="scale(0.015625)"/>
       <path id="DejaVuSansMono-68" d="M 3284 2169 
L 3284 0 
L 2706 0 
L 2706 2169 
Q 2706 2641 2540 2862 
Q 2375 3084 2022 3084 
Q 1619 3084 1401 2798 
Q 1184 2513 1184 1978 
L 1184 0 
L 609 0 
L 609 4863 
L 1184 4863 
L 1184 2975 
Q 1338 3275 1600 3429 
Q 1863 3584 2222 3584 
Q 2756 3584 3020 3232 
Q 3284 2881 3284 2169 
z
" transform="scale(0.015625)"/>
       <path id="DejaVuSansMono-74" d="M 1919 4494 
L 1919 3500 
L 3225 3500 
L 3225 3053 
L 1919 3053 
L 1919 1153 
Q 1919 766 2066 612 
Q 2213 459 2578 459 
L 3225 459 
L 3225 0 
L 2522 0 
Q 1875 0 1609 259 
Q 1344 519 1344 1153 
L 1344 3053 
L 409 3053 
L 409 3500 
L 1344 3500 
L 1344 4494 
L 1919 4494 
z
" transform="scale(0.015625)"/>
       <path id="DejaVuSansMono-2e" d="M 1528 953 
L 2316 953 
L 2316 0 
L 1528 0 
L 1528 953 
z
" transform="scale(0.015625)"/>
       <path id="DejaVuSansMono-65" d="M 3475 1894 
L 3475 1613 
L 984 1613 
L 984 1594 
Q 984 1022 1282 709 
Q 1581 397 2125 397 
Q 2400 397 2700 484 
Q 3000 572 3341 750 
L 3341 178 
Q 3013 44 2708 -23 
Q 2403 -91 2119 -91 
Q 1303 -91 843 398 
Q 384 888 384 1747 
Q 384 2584 834 3084 
Q 1284 3584 2034 3584 
Q 2703 3584 3089 3131 
Q 3475 2678 3475 1894 
z
M 2900 2063 
Q 2888 2569 2661 2833 
Q 2434 3097 2009 3097 
Q 1594 3097 1325 2822 
Q 1056 2547 1006 2059 
L 2900 2063 
z
" transform="scale(0.015625)"/>
      </defs>
      <use xlink:href="#DejaVuSansMono-64"/>
      <use xlink:href="#DejaVuSansMono-79" x="60.205078"/>
      <use xlink:href="#DejaVuSansMono-6e" x="120.410156"/>
      <use xlink:href="#DejaVuSansMono-6f" x="180.615234"/>
      <use xlink:href="#DejaVuSansMono-6d" x="240.820312"/>
      <use xlink:href="#DejaVuSansMono-69" x="301.025391"/>
      <use xlink:href="#DejaVuSansMono-67" x="361.230469"/>
      <use xlink:href="#DejaVuSansMono-68" x="421.435547"/>
      <use xlink:href="#DejaVuSansMono-74" x="481.640625"/>
      <use xlink:href="#DejaVuSansMono-2e" x="541.845703"/>
      <use xlink:href="#DejaVuSansMono-6e" x="602.050781"/>
      <use xlink:href="#DejaVuSansMono-65" x="662.255859"/>
      <use xlink:href="#DejaVuSansMono-74" x="722.460938"/>
     </g>
    </a>
   </g>
   <g id="text_23">
    <!-- The scaling law $E(N,D)$ -->
    <g transform="translate(153.18 28.56)scale(0.12 -0.12)">
     <defs>
      <path id="Montserrat-Regular-54" d="M 1600 4070 
L 26 4070 
L 26 4480 
L 3648 4480 
L 3648 4070 
L 2074 4070 
L 2074 0 
L 1600 0 
L 1600 4070 
z
" transform="scale(0.015625)"/>
      <path id="Montserrat-Regular-68" d="M 2349 3392 
Q 2982 3392 3356 3024 
Q 3731 2656 3731 1952 
L 3731 0 
L 3277 0 
L 3277 1907 
Q 3277 2432 3014 2707 
Q 2752 2982 2266 2982 
Q 1722 2982 1405 2659 
Q 1088 2336 1088 1766 
L 1088 0 
L 634 0 
L 634 4749 
L 1088 4749 
L 1088 2778 
Q 1274 3072 1600 3232 
Q 1926 3392 2349 3392 
z
" transform="scale(0.015625)"/>
      <path id="Montserrat-Regular-63" d="M 2029 -32 
Q 1530 -32 1136 185 
Q 742 403 518 796 
Q 294 1190 294 1683 
Q 294 2176 518 2566 
Q 742 2957 1136 3174 
Q 1530 3392 2029 3392 
Q 2464 3392 2806 3222 
Q 3149 3053 3347 2726 
L 3008 2496 
Q 2842 2746 2586 2870 
Q 2330 2995 2029 2995 
Q 1664 2995 1373 2832 
Q 1082 2669 918 2368 
Q 755 2067 755 1683 
Q 755 1293 918 995 
Q 1082 698 1373 534 
Q 1664 371 2029 371 
Q 2330 371 2586 492 
Q 2842 614 3008 864 
L 3347 634 
Q 3149 307 2803 137 
Q 2458 -32 2029 -32 
z
" transform="scale(0.015625)"/>
      <path id="Montserrat-Regular-6c" d="M 634 4749 
L 1088 4749 
L 1088 0 
L 634 0 
L 634 4749 
z
" transform="scale(0.015625)"/>
      <path id="Montserrat-Regular-69" d="M 634 3366 
L 1088 3366 
L 1088 0 
L 634 0 
L 634 3366 
z
M 864 4102 
Q 723 4102 627 4198 
Q 531 4294 531 4429 
Q 531 4557 627 4653 
Q 723 4749 864 4749 
Q 1005 4749 1101 4656 
Q 1197 4563 1197 4435 
Q 1197 4294 1101 4198 
Q 1005 4102 864 4102 
z
" transform="scale(0.015625)"/>
      <path id="Montserrat-Regular-67" d="M 3750 3366 
L 3750 410 
Q 3750 -448 3331 -861 
Q 2912 -1274 2067 -1274 
Q 1600 -1274 1181 -1136 
Q 762 -998 499 -755 
L 730 -410 
Q 973 -627 1321 -748 
Q 1670 -870 2054 -870 
Q 2694 -870 2995 -572 
Q 3296 -275 3296 352 
L 3296 781 
Q 3085 461 2742 294 
Q 2400 128 1984 128 
Q 1510 128 1123 336 
Q 736 544 515 918 
Q 294 1293 294 1766 
Q 294 2240 515 2611 
Q 736 2982 1120 3187 
Q 1504 3392 1984 3392 
Q 2413 3392 2758 3219 
Q 3104 3046 3315 2720 
L 3315 3366 
L 3750 3366 
z
M 2029 531 
Q 2394 531 2688 688 
Q 2982 845 3145 1126 
Q 3309 1408 3309 1766 
Q 3309 2125 3145 2403 
Q 2982 2682 2691 2838 
Q 2400 2995 2029 2995 
Q 1664 2995 1373 2841 
Q 1082 2688 918 2406 
Q 755 2125 755 1766 
Q 755 1408 918 1126 
Q 1082 845 1373 688 
Q 1664 531 2029 531 
z
" transform="scale(0.015625)"/>
      <path id="Montserrat-Regular-77" d="M 5574 3366 
L 4301 0 
L 3872 0 
L 2810 2758 
L 1747 0 
L 1318 0 
L 51 3366 
L 486 3366 
L 1542 506 
L 2624 3366 
L 3014 3366 
L 4090 506 
L 5158 3366 
L 5574 3366 
z
" transform="scale(0.015625)"/>
      <path id="DejaVuSans-Oblique-45" d="M 1081 4666 
L 4031 4666 
L 3928 4134 
L 1606 4134 
L 1338 2753 
L 3566 2753 
L 3463 2222 
L 1234 2222 
L 909 531 
L 3284 531 
L 3181 0 
L 172 0 
L 1081 4666 
z
" transform="scale(0.015625)"/>
      <path id="DejaVuSans-28" d="M 1984 4856 
Q 1566 4138 1362 3434 
Q 1159 2731 1159 2009 
Q 1159 1288 1364 580 
Q 1569 -128 1984 -844 
L 1484 -844 
Q 1016 -109 783 600 
Q 550 1309 550 2009 
Q 550 2706 781 3412 
Q 1013 4119 1484 4856 
L 1984 4856 
z
" transform="scale(0.015625)"/>
      <path id="DejaVuSans-2c" d="M 750 794 
L 1409 794 
L 1409 256 
L 897 -744 
L 494 -744 
L 750 256 
L 750 794 
z
" transform="scale(0.015625)"/>
      <path id="DejaVuSans-29" d="M 513 4856 
L 1013 4856 
Q 1481 4119 1714 3412 
Q 1947 2706 1947 2009 
Q 1947 1309 1714 600 
Q 1481 -109 1013 -844 
L 513 -844 
Q 928 -128 1133 580 
Q 1338 1288 1338 2009 
Q 1338 2731 1133 3434 
Q 928 4138 513 4856 
z
" transform="scale(0.015625)"/>
     </defs>
     <use xlink:href="#Montserrat-Regular-54" transform="translate(0 0.125)"/>
     <use xlink:href="#Montserrat-Regular-68" transform="translate(57.399994 0.125)"/>
     <use xlink:href="#Montserrat-Regular-65" transform="translate(125.099976 0.125)"/>
     <use xlink:href="#Montserrat-Regular-20" transform="translate(185.499969 0.125)"/>
     <use xlink:href="#Montserrat-Regular-73" transform="translate(211.699966 0.125)"/>
     <use xlink:href="#Montserrat-Regular-63" transform="translate(260.59996 0.125)"/>
     <use xlink:href="#Montserrat-Regular-61" transform="translate(316.899948 0.125)"/>
     <use xlink:href="#Montserrat-Regular-6c" transform="translate(375.899933 0.125)"/>
     <use xlink:href="#Montserrat-Regular-69" transform="translate(402.799927 0.125)"/>
     <use xlink:href="#Montserrat-Regular-6e" transform="translate(429.699921 0.125)"/>
     <use xlink:href="#Montserrat-Regular-67" transform="translate(497.399902 0.125)"/>
     <use xlink:href="#Montserrat-Regular-20" transform="translate(565.999893 0.125)"/>
     <use xlink:href="#Montserrat-Regular-6c" transform="translate(592.19989 0.125)"/>
     <use xlink:href="#Montserrat-Regular-61" transform="translate(619.099884 0.125)"/>
     <use xlink:href="#Montserrat-Regular-77" transform="translate(678.099869 0.125)"/>
     <use xlink:href="#Montserrat-Regular-20" transform="translate(765.999863 0.125)"/>
     <use xlink:href="#DejaVuSans-Oblique-45" transform="translate(792.19986 0.125)"/>
     <use xlink:href="#DejaVuSans-28" transform="translate(855.383453 0.125)"/>
     <use xlink:href="#DejaVuSans-Oblique-4e" transform="translate(894.397125 0.125)"/>
     <use xlink:href="#DejaVuSans-2c" transform="translate(969.201813 0.125)"/>
     <use xlink:href="#DejaVuSans-Oblique-44" transform="translate(1020.471344 0.125)"/>
     <use xlink:href="#DejaVuSans-29" transform="translate(1097.473297 0.125)"/>
    </g>
   </g>
  </g>
 </g>
 <defs>
  <clipPath id="p0cdc4a0e8d">
   <rect x="54" y="34.56" width="334.8" height="217.44"/>
  </clipPath>
 </defs>
</svg>
