<?xml version="1.0" encoding="utf-8" standalone="no"?>
<!DOCTYPE svg PUBLIC "-//W3C//DTD SVG 1.1//EN"
  "http://www.w3.org/Graphics/SVG/1.1/DTD/svg11.dtd">
<svg xmlns:xlink="http://www.w3.org/1999/xlink" width="432pt" height="252pt" viewBox="0 0 432 252" xmlns="http://www.w3.org/2000/svg" version="1.1">
 <metadata>
  <rdf:RDF xmlns:dc="http://purl.org/dc/elements/1.1/" xmlns:cc="http://creativecommons.org/ns#" xmlns:rdf="http://www.w3.org/1999/02/22-rdf-syntax-ns#">
   <cc:Work>
    <dc:type rdf:resource="http://purl.org/dc/dcmitype/StillImage"/>
    <dc:date>2024-11-14T11:35:26.144596</dc:date>
    <dc:format>image/svg+xml</dc:format>
    <dc:creator>
     <cc:Agent>
      <dc:title>Matplotlib v3.8.4, https://matplotlib.org/</dc:title>
     </cc:Agent>
    </dc:creator>
   </cc:Work>
  </rdf:RDF>
 </metadata>
 <defs>
  <style type="text/css">*{stroke-linejoin: round; stroke-linecap: butt}</style>
 </defs>
 <g id="figure_1">
  <g id="patch_1">
   <path d="M 0 252 
L 432 252 
L 432 0 
L 0 0 
z
" style="fill: #ffffff"/>
  </g>
  <g id="axes_1">
   <g id="patch_2">
    <path d="M 54 224.28 
L 388.8 224.28 
L 388.8 30.24 
L 54 30.24 
z
" style="fill: #ffffff"/>
   </g>
   <g id="matplotlib.axis_1">
    <g id="xtick_1">
     <g id="line2d_1"/>
     <g id="text_1">
      <!-- 0 -->
      <g transform="translate(50.689844 235.200312) scale(0.1 -0.1)">
       <defs>
        <path id="Montserrat-Regular-30" d="M 2118 -38 
Q 1600 -38 1193 237 
Q 787 512 560 1027 
Q 333 1542 333 2240 
Q 333 2938 560 3453 
Q 787 3968 1193 4243 
Q 1600 4518 2118 4518 
Q 2637 4518 3043 4243 
Q 3450 3968 3680 3453 
Q 3910 2938 3910 2240 
Q 3910 1542 3680 1027 
Q 3450 512 3043 237 
Q 2637 -38 2118 -38 
z
M 2118 384 
Q 2509 384 2806 601 
Q 3104 819 3270 1235 
Q 3437 1651 3437 2240 
Q 3437 2829 3270 3245 
Q 3104 3661 2806 3878 
Q 2509 4096 2118 4096 
Q 1728 4096 1430 3878 
Q 1133 3661 966 3245 
Q 800 2829 800 2240 
Q 800 1651 966 1235 
Q 1133 819 1430 601 
Q 1728 384 2118 384 
z
" transform="scale(0.015625)"/>
       </defs>
       <use xlink:href="#Montserrat-Regular-30"/>
      </g>
     </g>
    </g>
    <g id="xtick_2">
     <g id="line2d_2"/>
     <g id="text_2">
      <!-- 20 -->
      <g transform="translate(114.81 235.200312) scale(0.1 -0.1)">
       <defs>
        <path id="Montserrat-Regular-32" d="M 3392 410 
L 3392 0 
L 250 0 
L 250 326 
L 2112 2150 
Q 2464 2496 2589 2749 
Q 2714 3002 2714 3258 
Q 2714 3654 2442 3875 
Q 2170 4096 1664 4096 
Q 877 4096 442 3597 
L 115 3878 
Q 378 4186 784 4352 
Q 1190 4518 1702 4518 
Q 2387 4518 2787 4195 
Q 3187 3872 3187 3309 
Q 3187 2963 3033 2643 
Q 2880 2323 2451 1907 
L 928 410 
L 3392 410 
z
" transform="scale(0.015625)"/>
       </defs>
       <use xlink:href="#Montserrat-Regular-32"/>
       <use xlink:href="#Montserrat-Regular-30" x="56.799988"/>
      </g>
     </g>
    </g>
    <g id="xtick_3">
     <g id="line2d_3"/>
     <g id="text_3">
      <!-- 40 -->
      <g transform="translate(181.305156 235.200312) scale(0.1 -0.1)">
       <defs>
        <path id="Montserrat-Regular-34" d="M 4141 1178 
L 3245 1178 
L 3245 0 
L 2784 0 
L 2784 1178 
L 256 1178 
L 256 1510 
L 2630 4480 
L 3142 4480 
L 851 1587 
L 2797 1587 
L 2797 2624 
L 3245 2624 
L 3245 1587 
L 4141 1587 
L 4141 1178 
z
" transform="scale(0.015625)"/>
       </defs>
       <use xlink:href="#Montserrat-Regular-34"/>
       <use xlink:href="#Montserrat-Regular-30" x="66.099991"/>
      </g>
     </g>
    </g>
    <g id="xtick_4">
     <g id="line2d_4"/>
     <g id="text_4">
      <!-- 60 -->
      <g transform="translate(248.524531 235.200312) scale(0.1 -0.1)">
       <defs>
        <path id="Montserrat-Regular-36" d="M 2189 2682 
Q 2630 2682 2972 2515 
Q 3315 2349 3507 2045 
Q 3699 1741 3699 1338 
Q 3699 928 3500 614 
Q 3302 301 2953 131 
Q 2605 -38 2170 -38 
Q 1280 -38 806 547 
Q 333 1133 333 2202 
Q 333 2950 589 3468 
Q 845 3987 1305 4252 
Q 1766 4518 2381 4518 
Q 3046 4518 3443 4275 
L 3258 3904 
Q 2938 4115 2387 4115 
Q 1645 4115 1222 3644 
Q 800 3174 800 2278 
Q 800 2118 819 1914 
Q 986 2278 1350 2480 
Q 1715 2682 2189 2682 
z
M 2150 352 
Q 2637 352 2941 617 
Q 3245 883 3245 1325 
Q 3245 1766 2941 2028 
Q 2637 2291 2118 2291 
Q 1779 2291 1520 2163 
Q 1261 2035 1113 1811 
Q 966 1587 966 1312 
Q 966 1056 1104 838 
Q 1242 621 1510 486 
Q 1779 352 2150 352 
z
" transform="scale(0.015625)"/>
       </defs>
       <use xlink:href="#Montserrat-Regular-36"/>
       <use xlink:href="#Montserrat-Regular-30" x="60.899994"/>
      </g>
     </g>
    </g>
    <g id="xtick_5">
     <g id="line2d_5"/>
     <g id="text_5">
      <!-- 80 -->
      <g transform="translate(315.34 235.200312) scale(0.1 -0.1)">
       <defs>
        <path id="Montserrat-Regular-38" d="M 2899 2349 
Q 3322 2208 3549 1926 
Q 3776 1645 3776 1248 
Q 3776 858 3565 566 
Q 3354 275 2960 118 
Q 2566 -38 2035 -38 
Q 1229 -38 768 307 
Q 307 653 307 1248 
Q 307 1651 528 1929 
Q 749 2208 1171 2349 
Q 826 2483 646 2736 
Q 467 2989 467 3334 
Q 467 3878 892 4198 
Q 1318 4518 2035 4518 
Q 2509 4518 2864 4374 
Q 3219 4230 3417 3961 
Q 3616 3693 3616 3334 
Q 3616 2989 3430 2736 
Q 3245 2483 2899 2349 
z
M 928 3322 
Q 928 2950 1222 2732 
Q 1517 2515 2035 2515 
Q 2554 2515 2851 2732 
Q 3149 2950 3149 3315 
Q 3149 3693 2845 3910 
Q 2541 4128 2035 4128 
Q 1523 4128 1225 3910 
Q 928 3693 928 3322 
z
M 2035 352 
Q 2630 352 2966 595 
Q 3302 838 3302 1254 
Q 3302 1670 2966 1910 
Q 2630 2150 2035 2150 
Q 1446 2150 1110 1910 
Q 774 1670 774 1254 
Q 774 832 1107 592 
Q 1440 352 2035 352 
z
" transform="scale(0.015625)"/>
       </defs>
       <use xlink:href="#Montserrat-Regular-38"/>
       <use xlink:href="#Montserrat-Regular-30" x="63.799988"/>
      </g>
     </g>
    </g>
    <g id="xtick_6">
     <g id="line2d_6"/>
     <g id="text_6">
      <!-- 100 -->
      <g transform="translate(380.375 235.200312) scale(0.1 -0.1)">
       <defs>
        <path id="Montserrat-Regular-31" d="M 1574 4480 
L 1574 0 
L 1114 0 
L 1114 4070 
L 58 4070 
L 58 4480 
L 1574 4480 
z
" transform="scale(0.015625)"/>
       </defs>
       <use xlink:href="#Montserrat-Regular-31"/>
       <use xlink:href="#Montserrat-Regular-30" x="36.099991"/>
       <use xlink:href="#Montserrat-Regular-30" x="102.299988"/>
      </g>
     </g>
    </g>
    <g id="text_7">
     <!-- turns -->
     <g transform="translate(208.170312 248.56125) scale(0.1 -0.1)">
      <defs>
       <path id="Montserrat-Regular-74" d="M 2406 205 
Q 2278 90 2089 29 
Q 1901 -32 1696 -32 
Q 1222 -32 966 224 
Q 710 480 710 947 
L 710 2982 
L 109 2982 
L 109 3366 
L 710 3366 
L 710 4102 
L 1165 4102 
L 1165 3366 
L 2189 3366 
L 2189 2982 
L 1165 2982 
L 1165 973 
Q 1165 672 1315 515 
Q 1466 358 1747 358 
Q 1888 358 2019 403 
Q 2150 448 2246 531 
L 2406 205 
z
" transform="scale(0.015625)"/>
       <path id="Montserrat-Regular-75" d="M 3667 3366 
L 3667 0 
L 3232 0 
L 3232 614 
Q 3053 307 2739 137 
Q 2426 -32 2022 -32 
Q 1363 -32 982 336 
Q 602 704 602 1414 
L 602 3366 
L 1056 3366 
L 1056 1459 
Q 1056 928 1318 653 
Q 1581 378 2067 378 
Q 2598 378 2905 701 
Q 3213 1024 3213 1600 
L 3213 3366 
L 3667 3366 
z
" transform="scale(0.015625)"/>
       <path id="Montserrat-Regular-72" d="M 1069 2707 
Q 1229 3046 1545 3219 
Q 1862 3392 2330 3392 
L 2330 2950 
L 2221 2957 
Q 1690 2957 1389 2630 
Q 1088 2304 1088 1715 
L 1088 0 
L 634 0 
L 634 3366 
L 1069 3366 
L 1069 2707 
z
" transform="scale(0.015625)"/>
       <path id="Montserrat-Regular-6e" d="M 2349 3392 
Q 2982 3392 3356 3024 
Q 3731 2656 3731 1952 
L 3731 0 
L 3277 0 
L 3277 1907 
Q 3277 2432 3014 2707 
Q 2752 2982 2266 2982 
Q 1722 2982 1405 2659 
Q 1088 2336 1088 1766 
L 1088 0 
L 634 0 
L 634 3366 
L 1069 3366 
L 1069 2746 
Q 1254 3053 1584 3222 
Q 1914 3392 2349 3392 
z
" transform="scale(0.015625)"/>
       <path id="Montserrat-Regular-73" d="M 1536 -32 
Q 1126 -32 752 86 
Q 378 205 166 384 
L 371 742 
Q 582 576 902 470 
Q 1222 365 1568 365 
Q 2029 365 2249 509 
Q 2470 653 2470 915 
Q 2470 1101 2348 1206 
Q 2227 1312 2041 1366 
Q 1856 1421 1549 1472 
Q 1139 1549 889 1629 
Q 640 1709 464 1901 
Q 288 2093 288 2432 
Q 288 2854 640 3123 
Q 992 3392 1619 3392 
Q 1946 3392 2272 3305 
Q 2598 3219 2810 3078 
L 2611 2714 
Q 2195 3002 1619 3002 
Q 1184 3002 963 2848 
Q 742 2694 742 2445 
Q 742 2253 867 2137 
Q 992 2022 1177 1968 
Q 1363 1914 1690 1856 
Q 2093 1779 2336 1702 
Q 2579 1626 2752 1440 
Q 2925 1254 2925 928 
Q 2925 486 2557 227 
Q 2189 -32 1536 -32 
z
" transform="scale(0.015625)"/>
      </defs>
      <use xlink:href="#Montserrat-Regular-74"/>
      <use xlink:href="#Montserrat-Regular-75" x="40.599991"/>
      <use xlink:href="#Montserrat-Regular-72" x="107.899979"/>
      <use xlink:href="#Montserrat-Regular-6e" x="147.999969"/>
      <use xlink:href="#Montserrat-Regular-73" x="215.699951"/>
     </g>
    </g>
   </g>
   <g id="matplotlib.axis_2">
    <g id="ytick_1">
     <g id="line2d_7"/>
     <g id="text_8">
      <!-- LOSS -->
      <g transform="translate(23.91875 227.667831) scale(0.1 -0.1)">
       <defs>
        <path id="Montserrat-Regular-4c" d="M 730 4480 
L 1203 4480 
L 1203 410 
L 3712 410 
L 3712 0 
L 730 0 
L 730 4480 
z
" transform="scale(0.015625)"/>
        <path id="Montserrat-Regular-4f" d="M 2688 -38 
Q 2022 -38 1481 259 
Q 941 557 637 1075 
Q 333 1594 333 2240 
Q 333 2886 637 3404 
Q 941 3923 1481 4220 
Q 2022 4518 2688 4518 
Q 3354 4518 3888 4224 
Q 4422 3930 4729 3408 
Q 5037 2886 5037 2240 
Q 5037 1594 4729 1072 
Q 4422 550 3888 256 
Q 3354 -38 2688 -38 
z
M 2688 384 
Q 3219 384 3648 624 
Q 4077 864 4320 1289 
Q 4563 1715 4563 2240 
Q 4563 2765 4320 3190 
Q 4077 3616 3648 3856 
Q 3219 4096 2688 4096 
Q 2157 4096 1725 3856 
Q 1293 3616 1046 3190 
Q 800 2765 800 2240 
Q 800 1715 1046 1289 
Q 1293 864 1725 624 
Q 2157 384 2688 384 
z
" transform="scale(0.015625)"/>
        <path id="Montserrat-Regular-53" d="M 1965 -38 
Q 1466 -38 1008 122 
Q 550 282 301 544 
L 486 909 
Q 730 666 1133 515 
Q 1536 365 1965 365 
Q 2566 365 2867 585 
Q 3168 806 3168 1158 
Q 3168 1427 3005 1587 
Q 2842 1747 2605 1833 
Q 2368 1920 1946 2022 
Q 1440 2150 1139 2268 
Q 838 2387 624 2630 
Q 410 2874 410 3290 
Q 410 3629 589 3907 
Q 768 4186 1139 4352 
Q 1510 4518 2061 4518 
Q 2445 4518 2813 4412 
Q 3181 4307 3450 4122 
L 3290 3744 
Q 3008 3930 2688 4022 
Q 2368 4115 2061 4115 
Q 1472 4115 1174 3888 
Q 877 3661 877 3302 
Q 877 3034 1040 2870 
Q 1203 2707 1449 2620 
Q 1696 2534 2112 2432 
Q 2605 2310 2909 2192 
Q 3213 2074 3424 1834 
Q 3635 1594 3635 1184 
Q 3635 845 3452 566 
Q 3270 288 2892 125 
Q 2515 -38 1965 -38 
z
" transform="scale(0.015625)"/>
       </defs>
       <use xlink:href="#Montserrat-Regular-4c"/>
       <use xlink:href="#Montserrat-Regular-4f" x="58.899994"/>
       <use xlink:href="#Montserrat-Regular-53" x="142.799988"/>
       <use xlink:href="#Montserrat-Regular-53" x="204.299973"/>
      </g>
     </g>
    </g>
    <g id="ytick_2">
     <g id="line2d_8"/>
     <g id="text_9">
      <!-- -1000 -->
      <g transform="translate(23.209375 195.435273) scale(0.1 -0.1)">
       <defs>
        <path id="Montserrat-Regular-2d" d="M 384 1933 
L 2061 1933 
L 2061 1536 
L 384 1536 
L 384 1933 
z
" transform="scale(0.015625)"/>
       </defs>
       <use xlink:href="#Montserrat-Regular-2d"/>
       <use xlink:href="#Montserrat-Regular-31" x="38.199997"/>
       <use xlink:href="#Montserrat-Regular-30" x="74.299988"/>
       <use xlink:href="#Montserrat-Regular-30" x="140.499985"/>
       <use xlink:href="#Montserrat-Regular-30" x="206.699982"/>
      </g>
     </g>
    </g>
    <g id="ytick_3">
     <g id="line2d_9"/>
     <g id="text_10">
      <!-- -500 -->
      <g transform="translate(27.779687 163.202714) scale(0.1 -0.1)">
       <defs>
        <path id="Montserrat-Regular-35" d="M 1510 2643 
Q 2483 2643 2928 2294 
Q 3373 1946 3373 1318 
Q 3373 928 3190 621 
Q 3008 314 2643 138 
Q 2278 -38 1747 -38 
Q 1267 -38 835 118 
Q 403 275 141 538 
L 365 902 
Q 589 672 953 528 
Q 1318 384 1741 384 
Q 2298 384 2602 633 
Q 2906 883 2906 1299 
Q 2906 1760 2563 1997 
Q 2221 2234 1408 2234 
L 454 2234 
L 685 4480 
L 3136 4480 
L 3136 4070 
L 1088 4070 
L 934 2643 
L 1510 2643 
z
" transform="scale(0.015625)"/>
       </defs>
       <use xlink:href="#Montserrat-Regular-2d"/>
       <use xlink:href="#Montserrat-Regular-35" x="38.199997"/>
       <use xlink:href="#Montserrat-Regular-30" x="94.799988"/>
       <use xlink:href="#Montserrat-Regular-30" x="160.999985"/>
      </g>
     </g>
    </g>
    <g id="ytick_4">
     <g id="line2d_10"/>
     <g id="text_11">
      <!-- 0 -->
      <g transform="translate(43.879688 130.970156) scale(0.1 -0.1)">
       <use xlink:href="#Montserrat-Regular-30"/>
      </g>
     </g>
    </g>
    <g id="ytick_5">
     <g id="line2d_11"/>
     <g id="text_12">
      <!-- 500 -->
      <g transform="translate(31.6 98.737598) scale(0.1 -0.1)">
       <use xlink:href="#Montserrat-Regular-35"/>
       <use xlink:href="#Montserrat-Regular-30" x="56.599991"/>
       <use xlink:href="#Montserrat-Regular-30" x="122.799988"/>
      </g>
     </g>
    </g>
    <g id="ytick_6">
     <g id="line2d_12"/>
     <g id="text_13">
      <!-- 1000 -->
      <g transform="translate(27.029687 66.50504) scale(0.1 -0.1)">
       <use xlink:href="#Montserrat-Regular-31"/>
       <use xlink:href="#Montserrat-Regular-30" x="36.099991"/>
       <use xlink:href="#Montserrat-Regular-30" x="102.299988"/>
       <use xlink:href="#Montserrat-Regular-30" x="168.499985"/>
      </g>
     </g>
    </g>
    <g id="ytick_7">
     <g id="line2d_13"/>
     <g id="text_14">
      <!-- WIN -->
      <g transform="translate(28.240625 34.272482) scale(0.1 -0.1)">
       <defs>
        <path id="Montserrat-Regular-57" d="M 6880 4480 
L 5370 0 
L 4870 0 
L 3558 3821 
L 2240 0 
L 1747 0 
L 237 4480 
L 723 4480 
L 2016 627 
L 3354 4480 
L 3795 4480 
L 5114 608 
L 6426 4480 
L 6880 4480 
z
" transform="scale(0.015625)"/>
        <path id="Montserrat-Regular-49" d="M 730 4480 
L 1203 4480 
L 1203 0 
L 730 0 
L 730 4480 
z
" transform="scale(0.015625)"/>
        <path id="Montserrat-Regular-4e" d="M 4474 4480 
L 4474 0 
L 4083 0 
L 1203 3635 
L 1203 0 
L 730 0 
L 730 4480 
L 1120 4480 
L 4006 845 
L 4006 4480 
L 4474 4480 
z
" transform="scale(0.015625)"/>
       </defs>
       <use xlink:href="#Montserrat-Regular-57"/>
       <use xlink:href="#Montserrat-Regular-49" x="111.099991"/>
       <use xlink:href="#Montserrat-Regular-4e" x="141.299988"/>
      </g>
     </g>
    </g>
    <g id="text_15">
     <!-- mean centipawn difference -->
     <g transform="translate(17.26875 196.6475) rotate(-90) scale(0.1 -0.1)">
      <defs>
       <path id="Montserrat-Regular-6d" d="M 4832 3392 
Q 5466 3392 5827 3027 
Q 6189 2662 6189 1952 
L 6189 0 
L 5734 0 
L 5734 1907 
Q 5734 2432 5481 2707 
Q 5229 2982 4768 2982 
Q 4243 2982 3942 2659 
Q 3642 2336 3642 1766 
L 3642 0 
L 3187 0 
L 3187 1907 
Q 3187 2432 2934 2707 
Q 2682 2982 2214 2982 
Q 1696 2982 1392 2659 
Q 1088 2336 1088 1766 
L 1088 0 
L 634 0 
L 634 3366 
L 1069 3366 
L 1069 2752 
Q 1248 3059 1568 3225 
Q 1888 3392 2304 3392 
Q 2726 3392 3036 3213 
Q 3347 3034 3501 2682 
Q 3686 3014 4035 3203 
Q 4384 3392 4832 3392 
z
" transform="scale(0.015625)"/>
       <path id="Montserrat-Regular-65" d="M 3565 1542 
L 749 1542 
Q 787 1018 1152 694 
Q 1517 371 2074 371 
Q 2387 371 2649 483 
Q 2912 595 3104 813 
L 3360 518 
Q 3136 250 2800 109 
Q 2464 -32 2061 -32 
Q 1542 -32 1142 189 
Q 742 410 518 800 
Q 294 1190 294 1683 
Q 294 2176 508 2566 
Q 723 2957 1097 3174 
Q 1472 3392 1939 3392 
Q 2406 3392 2777 3174 
Q 3149 2957 3360 2569 
Q 3571 2182 3571 1683 
L 3565 1542 
z
M 1939 3002 
Q 1453 3002 1123 2691 
Q 794 2381 749 1882 
L 3136 1882 
Q 3091 2381 2761 2691 
Q 2432 3002 1939 3002 
z
" transform="scale(0.015625)"/>
       <path id="Montserrat-Regular-61" d="M 1811 3392 
Q 2470 3392 2822 3062 
Q 3174 2733 3174 2086 
L 3174 0 
L 2739 0 
L 2739 525 
Q 2586 262 2288 115 
Q 1990 -32 1581 -32 
Q 1018 -32 685 237 
Q 352 506 352 947 
Q 352 1376 662 1638 
Q 973 1901 1651 1901 
L 2720 1901 
L 2720 2106 
Q 2720 2541 2477 2768 
Q 2234 2995 1766 2995 
Q 1446 2995 1152 2889 
Q 858 2784 646 2598 
L 442 2938 
Q 698 3155 1056 3273 
Q 1414 3392 1811 3392 
z
M 1651 326 
Q 2035 326 2310 502 
Q 2586 678 2720 1011 
L 2720 1562 
L 1664 1562 
Q 800 1562 800 960 
Q 800 666 1024 496 
Q 1248 326 1651 326 
z
" transform="scale(0.015625)"/>
       <path id="Montserrat-Regular-20" transform="scale(0.015625)"/>
       <path id="Montserrat-Regular-63" d="M 2029 -32 
Q 1530 -32 1136 185 
Q 742 403 518 796 
Q 294 1190 294 1683 
Q 294 2176 518 2566 
Q 742 2957 1136 3174 
Q 1530 3392 2029 3392 
Q 2464 3392 2806 3222 
Q 3149 3053 3347 2726 
L 3008 2496 
Q 2842 2746 2586 2870 
Q 2330 2995 2029 2995 
Q 1664 2995 1373 2832 
Q 1082 2669 918 2368 
Q 755 2067 755 1683 
Q 755 1293 918 995 
Q 1082 698 1373 534 
Q 1664 371 2029 371 
Q 2330 371 2586 492 
Q 2842 614 3008 864 
L 3347 634 
Q 3149 307 2803 137 
Q 2458 -32 2029 -32 
z
" transform="scale(0.015625)"/>
       <path id="Montserrat-Regular-69" d="M 634 3366 
L 1088 3366 
L 1088 0 
L 634 0 
L 634 3366 
z
M 864 4102 
Q 723 4102 627 4198 
Q 531 4294 531 4429 
Q 531 4557 627 4653 
Q 723 4749 864 4749 
Q 1005 4749 1101 4656 
Q 1197 4563 1197 4435 
Q 1197 4294 1101 4198 
Q 1005 4102 864 4102 
z
" transform="scale(0.015625)"/>
       <path id="Montserrat-Regular-70" d="M 2368 3392 
Q 2842 3392 3226 3177 
Q 3610 2963 3827 2572 
Q 4045 2182 4045 1683 
Q 4045 1178 3827 787 
Q 3610 397 3229 182 
Q 2848 -32 2368 -32 
Q 1958 -32 1628 137 
Q 1299 307 1088 634 
L 1088 -1242 
L 634 -1242 
L 634 3366 
L 1069 3366 
L 1069 2701 
Q 1274 3034 1610 3213 
Q 1946 3392 2368 3392 
z
M 2336 371 
Q 2688 371 2976 534 
Q 3264 698 3427 998 
Q 3590 1299 3590 1683 
Q 3590 2067 3427 2364 
Q 3264 2662 2976 2828 
Q 2688 2995 2336 2995 
Q 1978 2995 1693 2828 
Q 1408 2662 1245 2364 
Q 1082 2067 1082 1683 
Q 1082 1299 1245 998 
Q 1408 698 1693 534 
Q 1978 371 2336 371 
z
" transform="scale(0.015625)"/>
       <path id="Montserrat-Regular-77" d="M 5574 3366 
L 4301 0 
L 3872 0 
L 2810 2758 
L 1747 0 
L 1318 0 
L 51 3366 
L 486 3366 
L 1542 506 
L 2624 3366 
L 3014 3366 
L 4090 506 
L 5158 3366 
L 5574 3366 
z
" transform="scale(0.015625)"/>
       <path id="Montserrat-Regular-64" d="M 3706 4749 
L 3706 0 
L 3270 0 
L 3270 666 
Q 3066 326 2730 147 
Q 2394 -32 1971 -32 
Q 1498 -32 1114 185 
Q 730 403 512 793 
Q 294 1184 294 1683 
Q 294 2182 512 2572 
Q 730 2963 1114 3177 
Q 1498 3392 1971 3392 
Q 2381 3392 2710 3222 
Q 3040 3053 3251 2726 
L 3251 4749 
L 3706 4749 
z
M 2010 371 
Q 2362 371 2646 534 
Q 2931 698 3094 998 
Q 3258 1299 3258 1683 
Q 3258 2067 3094 2368 
Q 2931 2669 2646 2832 
Q 2362 2995 2010 2995 
Q 1651 2995 1366 2832 
Q 1082 2669 918 2368 
Q 755 2067 755 1683 
Q 755 1299 918 998 
Q 1082 698 1366 534 
Q 1651 371 2010 371 
z
" transform="scale(0.015625)"/>
       <path id="Montserrat-Regular-66" d="M 1747 4397 
Q 1453 4397 1302 4237 
Q 1152 4077 1152 3763 
L 1152 3366 
L 2189 3366 
L 2189 2982 
L 1165 2982 
L 1165 0 
L 710 0 
L 710 2982 
L 109 2982 
L 109 3366 
L 710 3366 
L 710 3782 
Q 710 4243 976 4512 
Q 1242 4781 1728 4781 
Q 1920 4781 2099 4726 
Q 2278 4672 2400 4570 
L 2246 4230 
Q 2048 4397 1747 4397 
z
" transform="scale(0.015625)"/>
      </defs>
      <use xlink:href="#Montserrat-Regular-6d"/>
      <use xlink:href="#Montserrat-Regular-65" x="106.099991"/>
      <use xlink:href="#Montserrat-Regular-61" x="166.499985"/>
      <use xlink:href="#Montserrat-Regular-6e" x="225.499969"/>
      <use xlink:href="#Montserrat-Regular-20" x="293.199951"/>
      <use xlink:href="#Montserrat-Regular-63" x="319.399948"/>
      <use xlink:href="#Montserrat-Regular-65" x="375.699936"/>
      <use xlink:href="#Montserrat-Regular-6e" x="436.09993"/>
      <use xlink:href="#Montserrat-Regular-74" x="503.799911"/>
      <use xlink:href="#Montserrat-Regular-69" x="544.399902"/>
      <use xlink:href="#Montserrat-Regular-70" x="571.299896"/>
      <use xlink:href="#Montserrat-Regular-61" x="639.099884"/>
      <use xlink:href="#Montserrat-Regular-77" x="698.099869"/>
      <use xlink:href="#Montserrat-Regular-6e" x="785.999863"/>
      <use xlink:href="#Montserrat-Regular-20" x="853.699844"/>
      <use xlink:href="#Montserrat-Regular-64" x="879.899841"/>
      <use xlink:href="#Montserrat-Regular-69" x="947.699829"/>
      <use xlink:href="#Montserrat-Regular-66" x="974.599823"/>
      <use xlink:href="#Montserrat-Regular-66" x="1008.499817"/>
      <use xlink:href="#Montserrat-Regular-65" x="1042.399811"/>
      <use xlink:href="#Montserrat-Regular-72" x="1102.799805"/>
      <use xlink:href="#Montserrat-Regular-65" x="1142.899796"/>
      <use xlink:href="#Montserrat-Regular-6e" x="1203.299789"/>
      <use xlink:href="#Montserrat-Regular-63" x="1270.999771"/>
      <use xlink:href="#Montserrat-Regular-65" x="1327.299759"/>
     </g>
    </g>
   </g>
   <g id="line2d_14">
    <path d="M 54 127.26 
L 57.348 123.102 
L 60.696 121.960967 
L 64.044 119.272772 
L 67.392 119.504847 
L 70.74 116.571684 
L 74.088 117.02294 
L 77.436 115.217916 
L 80.784 115.662726 
L 84.132 115.018074 
L 87.48 114.760214 
L 90.828 114.760214 
L 94.176 104.310419 
L 97.524 106.167014 
L 100.872 98.869563 
L 104.22 100.94534 
L 107.568 98.031516 
L 110.916 98.811544 
L 114.264 93.01613 
L 117.612 89.760642 
L 120.96 91.862205 
L 124.308 90.862995 
L 127.656 90.347274 
L 131.004 85.69934 
L 134.352 79.220595 
L 137.7 70.704753 
L 141.048 65.547544 
L 144.396 61.112344 
L 147.744 57.360474 
L 151.092 51.171823 
L 154.44 51.004214 
L 157.788 51.687544 
L 161.136 46.382065 
L 164.484 47.742279 
L 167.832 46.053293 
L 171.18 38.81386 
L 174.528 41.269981 
L 177.876 39.278009 
L 181.224 37.260251 
L 184.572 37.292484 
L 187.92 35.023312 
L 191.268 37.163553 
L 194.616 35.197367 
L 197.964 38.046726 
L 201.312 36.725191 
L 204.66 36.31906 
L 208.008 35.706642 
L 211.356 34.333535 
L 214.704 34.333535 
L 218.052 30.626791 
L 221.4 30.626791 
L 224.748 30.626791 
L 228.096 30.626791 
L 231.444 30.626791 
L 234.792 30.626791 
L 238.14 30.626791 
L 241.488 30.626791 
L 244.836 30.626791 
L 248.184 30.626791 
L 251.532 30.626791 
L 254.88 30.626791 
L 258.228 30.626791 
L 261.576 30.626791 
L 264.924 30.626791 
L 268.272 30.626791 
L 271.62 30.626791 
L 274.968 30.626791 
L 278.316 30.626791 
L 281.664 30.626791 
L 285.012 30.626791 
L 288.36 30.626791 
L 291.708 30.626791 
L 295.056 30.626791 
L 298.404 30.626791 
L 301.752 30.626791 
L 305.1 30.626791 
L 308.448 30.626791 
L 311.796 30.626791 
L 315.144 30.626791 
L 318.492 30.626791 
L 321.84 30.626791 
L 325.188 30.626791 
L 328.536 30.626791 
L 331.884 30.626791 
L 335.232 30.626791 
L 338.58 30.626791 
L 341.928 30.626791 
L 345.276 30.626791 
L 348.624 30.626791 
L 351.972 30.626791 
L 355.32 30.626791 
L 358.668 30.626791 
L 362.016 30.626791 
L 365.364 30.626791 
L 368.712 30.626791 
L 372.06 30.626791 
L 375.408 30.626791 
L 378.756 30.626791 
L 382.104 30.626791 
L 385.452 30.626791 
" clip-path="url(#p3f4a6a0093)" style="fill: none; stroke: #1f77b4; stroke-width: 0.5; stroke-linecap: square"/>
   </g>
   <g id="line2d_15">
    <path d="M 54 127.26 
L 57.348 122.753888 
L 60.696 120.710344 
L 64.044 116.184893 
L 67.392 115.018074 
L 70.74 118.641014 
L 74.088 119.20186 
L 77.436 118.582995 
L 80.784 114.431442 
L 84.132 113.735219 
L 87.48 112.220288 
L 90.828 125.210009 
L 94.176 122.263953 
L 97.524 124.056084 
L 100.872 126.312363 
L 104.22 127.363144 
L 107.568 128.66534 
L 110.916 128.143172 
L 114.264 130.373665 
L 117.612 133.513116 
L 120.96 132.37853 
L 124.308 132.191581 
L 127.656 139.076456 
L 131.004 136.749265 
L 134.352 142.203014 
L 137.7 149.249051 
L 141.048 149.062102 
L 144.396 157.816465 
L 147.744 157.513479 
L 151.092 156.398233 
L 154.44 165.848819 
L 157.788 166.777116 
L 161.136 168.865786 
L 164.484 190.081256 
L 167.832 197.178865 
L 171.18 199.428698 
L 174.528 205.249898 
L 177.876 204.083079 
L 181.224 205.095181 
L 184.572 203.438428 
L 187.92 205.462633 
L 191.268 211.135563 
L 194.616 211.67707 
L 197.964 211.12267 
L 201.312 216.905191 
L 204.66 216.756921 
L 208.008 213.959135 
L 211.356 217.981758 
L 214.704 218.697321 
L 218.052 223.757833 
L 221.4 223.738493 
L 224.748 223.951228 
L 228.096 223.951228 
L 231.444 221.198567 
L 234.792 223.957674 
L 238.14 223.957674 
L 241.488 223.957674 
L 244.836 223.957674 
L 248.184 223.957674 
L 251.532 223.957674 
L 254.88 223.957674 
L 258.228 223.957674 
L 261.576 223.957674 
L 264.924 223.957674 
L 268.272 223.957674 
L 271.62 223.957674 
L 274.968 223.957674 
L 278.316 223.957674 
L 281.664 223.957674 
L 285.012 223.957674 
L 288.36 223.957674 
L 291.708 223.957674 
L 295.056 223.957674 
L 298.404 223.957674 
L 301.752 223.957674 
L 305.1 223.957674 
L 308.448 223.957674 
L 311.796 223.957674 
L 315.144 223.957674 
L 318.492 223.957674 
L 321.84 223.957674 
L 325.188 223.957674 
L 328.536 223.957674 
L 331.884 223.957674 
L 335.232 223.957674 
L 338.58 223.957674 
L 341.928 223.957674 
L 345.276 223.957674 
L 348.624 223.957674 
L 351.972 223.957674 
L 355.32 223.957674 
L 358.668 223.957674 
L 362.016 223.957674 
L 365.364 223.957674 
L 368.712 223.957674 
L 372.06 223.957674 
L 375.408 223.957674 
L 378.756 223.957674 
L 382.104 223.957674 
L 385.452 223.957674 
" clip-path="url(#p3f4a6a0093)" style="fill: none; stroke: #ff7f0e; stroke-width: 0.5; stroke-linecap: square"/>
   </g>
   <g id="line2d_16">
    <path d="M 54 127.26 
L 57.348 123.099421 
L 60.696 122.083451 
L 64.044 120.683269 
L 67.392 122.003514 
L 70.74 121.775308 
L 74.088 122.884108 
L 77.436 123.63706 
L 80.784 124.708471 
L 84.132 128.502887 
L 87.48 132.069098 
L 90.828 136.269645 
L 94.176 141.019434 
L 97.524 142.814143 
L 100.872 147.600033 
L 104.22 151.622657 
L 107.568 155.333269 
L 110.916 160.313844 
L 114.264 161.421354 
L 117.612 166.356804 
L 120.96 171.266467 
L 124.308 173.582054 
L 127.656 177.22949 
L 131.004 179.118318 
L 134.352 183.340783 
L 137.7 186.038004 
L 141.048 187.111993 
L 144.396 191.843732 
L 147.744 195.848305 
L 151.092 200.895924 
L 154.44 202.75123 
L 157.788 205.216376 
L 161.136 206.029926 
L 164.484 207.103914 
L 167.832 208.743907 
L 171.18 209.84755 
L 174.528 212.088357 
L 177.876 213.162346 
L 181.224 214.646333 
L 184.572 215.989786 
L 187.92 217.92374 
L 191.268 217.668458 
L 194.616 218.204807 
L 197.964 217.99594 
L 201.312 218.688296 
L 204.66 218.369838 
L 208.008 218.720528 
L 211.356 219.78936 
L 214.704 220.715079 
L 218.052 220.837563 
L 221.4 221.522182 
L 224.748 221.457717 
L 228.096 221.849665 
L 231.444 222.018564 
L 234.792 222.023721 
L 238.14 222.973937 
L 241.488 223.080949 
L 244.836 223.00488 
L 248.184 223.015194 
L 251.532 222.999723 
L 254.88 223.200854 
L 258.228 223.172489 
L 261.576 223.215036 
L 264.924 223.24598 
L 268.272 223.132521 
L 271.62 223.216326 
L 274.968 223.296262 
L 278.316 223.289816 
L 281.664 223.342677 
L 285.012 223.157018 
L 288.36 223.957674 
L 291.708 223.957674 
L 295.056 223.957674 
L 298.404 223.957674 
L 301.752 223.957674 
L 305.1 223.957674 
L 308.448 223.957674 
L 311.796 223.957674 
L 315.144 223.957674 
L 318.492 223.957674 
L 321.84 223.957674 
L 325.188 223.957674 
L 328.536 223.957674 
L 331.884 223.957674 
L 335.232 223.957674 
L 338.58 223.957674 
L 341.928 223.957674 
L 345.276 223.957674 
L 348.624 223.957674 
L 351.972 223.957674 
L 355.32 223.957674 
L 358.668 223.957674 
L 362.016 223.957674 
L 365.364 223.957674 
L 368.712 223.957674 
L 372.06 223.957674 
L 375.408 223.957674 
L 378.756 223.957674 
L 382.104 223.957674 
L 385.452 223.957674 
" clip-path="url(#p3f4a6a0093)" style="fill: none; stroke: #2ca02c; stroke-width: 0.5; stroke-linecap: square"/>
   </g>
   <g id="line2d_17">
    <path d="M 54 127.26 
L 57.348 122.67653 
L 60.696 122.328419 
L 64.044 119.878744 
L 67.392 122.663637 
L 70.74 122.470242 
L 74.088 123.882028 
L 77.436 128.974772 
L 80.784 132.288279 
L 84.132 134.003051 
L 87.48 141.081321 
L 90.828 141.326288 
L 94.176 147.444028 
L 97.524 152.865544 
L 100.872 149.468233 
L 104.22 157.236279 
L 107.568 159.363628 
L 110.916 164.353228 
L 114.264 167.943935 
L 117.612 174.190605 
L 120.96 175.531479 
L 124.308 174.164819 
L 127.656 179.618567 
L 131.004 185.639609 
L 134.352 191.286753 
L 137.7 196.392391 
L 141.048 199.976651 
L 144.396 204.373172 
L 147.744 207.016242 
L 151.092 212.624707 
L 154.44 215.802837 
L 157.788 215.583656 
L 161.136 215.860856 
L 164.484 215.093721 
L 167.832 220.238037 
L 171.18 219.651405 
L 174.528 219.638512 
L 177.876 219.116344 
L 181.224 219.380651 
L 184.572 219.664298 
L 187.92 219.561153 
L 191.268 219.135684 
L 194.616 219.393544 
L 197.964 223.957674 
L 201.312 223.957674 
L 204.66 223.957674 
L 208.008 223.957674 
L 211.356 223.957674 
L 214.704 223.957674 
L 218.052 223.957674 
L 221.4 223.957674 
L 224.748 223.957674 
L 228.096 223.957674 
L 231.444 223.957674 
L 234.792 223.957674 
L 238.14 223.957674 
L 241.488 223.957674 
L 244.836 223.957674 
L 248.184 223.957674 
L 251.532 223.957674 
L 254.88 223.957674 
L 258.228 223.957674 
L 261.576 223.957674 
L 264.924 223.957674 
L 268.272 223.957674 
L 271.62 223.957674 
L 274.968 223.957674 
L 278.316 223.957674 
L 281.664 223.957674 
L 285.012 223.957674 
L 288.36 223.957674 
L 291.708 223.957674 
L 295.056 223.957674 
L 298.404 223.957674 
L 301.752 223.957674 
L 305.1 223.957674 
L 308.448 223.957674 
L 311.796 223.957674 
L 315.144 223.957674 
L 318.492 223.957674 
L 321.84 223.957674 
L 325.188 223.957674 
L 328.536 223.957674 
L 331.884 223.957674 
L 335.232 223.957674 
L 338.58 223.957674 
L 341.928 223.957674 
L 345.276 223.957674 
L 348.624 223.957674 
L 351.972 223.957674 
L 355.32 223.957674 
L 358.668 223.957674 
L 362.016 223.957674 
L 365.364 223.957674 
L 368.712 223.957674 
L 372.06 223.957674 
L 375.408 223.957674 
L 378.756 223.957674 
L 382.104 223.957674 
L 385.452 223.957674 
" clip-path="url(#p3f4a6a0093)" style="fill: none; stroke: #d62728; stroke-width: 0.5; stroke-linecap: square"/>
   </g>
   <g id="line2d_18">
    <path d="M 54 127.26 
L 57.348 123.688633 
L 60.696 122.450902 
L 64.044 121.890056 
L 67.392 119.279219 
L 70.74 127.640344 
L 74.088 127.472735 
L 77.436 128.401033 
L 80.784 124.752307 
L 84.132 128.510623 
L 87.48 131.347088 
L 90.828 146.92186 
L 94.176 153.838967 
L 97.524 156.540056 
L 100.872 163.386251 
L 104.22 166.88026 
L 107.568 167.544251 
L 110.916 168.395191 
L 114.264 179.160865 
L 117.612 180.566205 
L 120.96 181.662112 
L 124.308 180.604884 
L 127.656 192.414893 
L 131.004 188.740381 
L 134.352 202.23293 
L 137.7 197.720372 
L 141.048 201.665637 
L 144.396 204.437637 
L 147.744 206.13307 
L 151.092 213.972028 
L 154.44 214.790735 
L 157.788 215.055042 
L 161.136 218.091349 
L 164.484 219.238828 
L 167.832 218.529712 
L 171.18 218.800465 
L 174.528 219.612726 
L 177.876 220.599042 
L 181.224 219.593386 
L 184.572 223.951228 
L 187.92 218.426567 
L 191.268 223.957674 
L 194.616 223.957674 
L 197.964 223.957674 
L 201.312 223.957674 
L 204.66 223.957674 
L 208.008 223.957674 
L 211.356 223.957674 
L 214.704 223.957674 
L 218.052 223.957674 
L 221.4 223.957674 
L 224.748 223.957674 
L 228.096 223.957674 
L 231.444 223.957674 
L 234.792 223.957674 
L 238.14 223.957674 
L 241.488 223.957674 
L 244.836 223.957674 
L 248.184 223.957674 
L 251.532 223.957674 
L 254.88 223.957674 
L 258.228 223.957674 
L 261.576 223.957674 
L 264.924 223.957674 
L 268.272 223.957674 
L 271.62 223.957674 
L 274.968 223.957674 
L 278.316 223.957674 
L 281.664 223.957674 
L 285.012 223.957674 
L 288.36 223.957674 
L 291.708 223.957674 
L 295.056 223.957674 
L 298.404 223.957674 
L 301.752 223.957674 
L 305.1 223.957674 
L 308.448 223.957674 
L 311.796 223.957674 
L 315.144 223.957674 
L 318.492 223.957674 
L 321.84 223.957674 
L 325.188 223.957674 
L 328.536 223.957674 
L 331.884 223.957674 
L 335.232 223.957674 
L 338.58 223.957674 
L 341.928 223.957674 
L 345.276 223.957674 
L 348.624 223.957674 
L 351.972 223.957674 
L 355.32 223.957674 
L 358.668 223.957674 
L 362.016 223.957674 
L 365.364 223.957674 
L 368.712 223.957674 
L 372.06 223.957674 
L 375.408 223.957674 
L 378.756 223.957674 
L 382.104 223.957674 
L 385.452 223.957674 
" clip-path="url(#p3f4a6a0093)" style="fill: none; stroke: #9467bd; stroke-width: 0.5; stroke-linecap: square"/>
   </g>
   <g id="line2d_19">
    <path d="M 54 127.26 
L 57.348 123.522313 
L 60.696 122.91634 
L 64.044 121.579334 
L 67.392 125.102997 
L 70.74 126.376828 
L 74.088 125.715416 
L 77.436 127.914966 
L 80.784 129.798636 
L 84.132 135.912508 
L 87.48 138.175233 
L 90.828 147.050791 
L 94.176 150.677598 
L 97.524 157.815176 
L 100.872 161.00362 
L 104.22 166.350357 
L 107.568 170.276283 
L 110.916 174.261516 
L 114.264 178.388573 
L 117.612 183.030061 
L 120.96 190.243708 
L 124.308 192.69725 
L 127.656 194.935479 
L 131.004 194.845228 
L 134.352 200.34797 
L 137.7 203.867766 
L 141.048 206.357408 
L 144.396 207.934225 
L 147.744 210.503805 
L 151.092 211.429524 
L 154.44 213.527219 
L 157.788 215.3735 
L 161.136 215.092432 
L 164.484 217.050882 
L 167.832 217.27522 
L 171.18 218.572259 
L 174.528 218.711503 
L 177.876 219.802253 
L 181.224 220.397911 
L 184.572 220.180019 
L 187.92 221.08382 
L 191.268 220.752469 
L 194.616 221.513157 
L 197.964 221.598251 
L 201.312 221.854822 
L 204.66 222.503341 
L 208.008 222.392461 
L 211.356 222.558781 
L 214.704 222.6168 
L 218.052 222.507209 
L 221.4 222.46853 
L 224.748 222.511077 
L 228.096 222.3035 
L 231.444 223.306577 
L 234.792 223.102867 
L 238.14 223.240822 
L 241.488 223.213747 
L 244.836 223.164753 
L 248.184 223.222772 
L 251.532 223.956385 
L 254.88 223.957674 
L 258.228 223.957674 
L 261.576 223.957674 
L 264.924 223.957674 
L 268.272 223.957674 
L 271.62 223.957674 
L 274.968 223.957674 
L 278.316 223.957674 
L 281.664 223.957674 
L 285.012 223.957674 
L 288.36 223.957674 
L 291.708 223.957674 
L 295.056 223.957674 
L 298.404 223.957674 
L 301.752 223.957674 
L 305.1 223.957674 
L 308.448 223.957674 
L 311.796 223.957674 
L 315.144 223.957674 
L 318.492 223.957674 
L 321.84 223.957674 
L 325.188 223.957674 
L 328.536 223.957674 
L 331.884 223.957674 
L 335.232 223.957674 
L 338.58 223.957674 
L 341.928 223.957674 
L 345.276 223.957674 
L 348.624 223.957674 
L 351.972 223.957674 
L 355.32 223.957674 
L 358.668 223.957674 
L 362.016 223.957674 
L 365.364 223.957674 
L 368.712 223.957674 
L 372.06 223.957674 
L 375.408 223.957674 
L 378.756 223.957674 
L 382.104 223.957674 
L 385.452 223.957674 
" clip-path="url(#p3f4a6a0093)" style="fill: none; stroke: #8c564b; stroke-width: 0.5; stroke-linecap: square"/>
   </g>
   <g id="line2d_20">
    <path d="M 54 127.26 
L 57.348 123.312156 
L 60.696 123.016906 
L 64.044 123.13939 
L 67.392 122.706184 
L 70.74 122.515367 
L 74.088 126.543148 
L 77.436 130.158352 
L 80.784 134.271226 
L 84.132 139.563812 
L 87.48 143.157098 
L 90.828 148.551539 
L 94.176 154.579027 
L 97.524 158.04725 
L 100.872 162.720971 
L 104.22 166.247213 
L 107.568 171.744798 
L 110.916 177.259144 
L 114.264 180.508186 
L 117.612 184.133704 
L 120.96 187.734726 
L 124.308 191.245496 
L 127.656 195.047648 
L 131.004 196.968709 
L 134.352 198.878166 
L 137.7 201.773939 
L 141.048 205.408482 
L 144.396 208.62658 
L 147.744 210.23563 
L 151.092 213.133981 
L 154.44 216.134188 
L 157.788 216.033622 
L 161.136 218.260247 
L 164.484 218.452353 
L 167.832 218.768233 
L 171.18 219.791939 
L 174.528 219.758417 
L 177.876 221.104448 
L 181.224 220.351496 
L 184.572 221.930891 
L 187.92 222.089475 
L 191.268 222.493027 
L 194.616 222.444033 
L 197.964 222.473687 
L 201.312 223.013905 
L 204.66 222.952019 
L 208.008 223.46645 
L 211.356 223.956385 
L 214.704 223.957674 
L 218.052 223.957674 
L 221.4 223.957674 
L 224.748 223.957674 
L 228.096 223.957674 
L 231.444 223.957674 
L 234.792 223.957674 
L 238.14 223.957674 
L 241.488 223.957674 
L 244.836 223.957674 
L 248.184 223.957674 
L 251.532 223.957674 
L 254.88 223.957674 
L 258.228 223.957674 
L 261.576 223.957674 
L 264.924 223.957674 
L 268.272 223.957674 
L 271.62 223.957674 
L 274.968 223.957674 
L 278.316 223.957674 
L 281.664 223.957674 
L 285.012 223.957674 
L 288.36 223.957674 
L 291.708 223.957674 
L 295.056 223.957674 
L 298.404 223.957674 
L 301.752 223.957674 
L 305.1 223.957674 
L 308.448 223.957674 
L 311.796 223.957674 
L 315.144 223.957674 
L 318.492 223.957674 
L 321.84 223.957674 
L 325.188 223.957674 
L 328.536 223.957674 
L 331.884 223.957674 
L 335.232 223.957674 
L 338.58 223.957674 
L 341.928 223.957674 
L 345.276 223.957674 
L 348.624 223.957674 
L 351.972 223.957674 
L 355.32 223.957674 
L 358.668 223.957674 
L 362.016 223.957674 
L 365.364 223.957674 
L 368.712 223.957674 
L 372.06 223.957674 
L 375.408 223.957674 
L 378.756 223.957674 
L 382.104 223.957674 
L 385.452 223.957674 
" clip-path="url(#p3f4a6a0093)" style="fill: none; stroke: #e377c2; stroke-width: 0.5; stroke-linecap: square"/>
   </g>
   <g id="line2d_21">
    <path d="M 54 127.26 
L 57.348 123.918128 
L 60.696 122.738417 
L 64.044 122.757756 
L 67.392 124.695578 
L 70.74 128.576378 
L 74.088 131.209133 
L 77.436 137.044515 
L 80.784 140.276796 
L 84.132 143.930679 
L 87.48 146.777459 
L 90.828 149.791847 
L 94.176 157.347159 
L 97.524 161.296292 
L 100.872 166.877682 
L 104.22 173.926298 
L 107.568 178.673509 
L 110.916 185.296655 
L 114.264 186.130833 
L 117.612 186.690391 
L 120.96 190.061916 
L 124.308 192.409736 
L 127.656 195.117271 
L 131.004 195.808337 
L 134.352 200.417593 
L 137.7 203.664056 
L 141.048 204.571725 
L 144.396 207.927779 
L 147.744 210.243366 
L 151.092 211.995527 
L 154.44 214.550925 
L 157.788 214.299511 
L 161.136 215.600417 
L 164.484 216.898744 
L 167.832 218.345341 
L 171.18 219.191124 
L 174.528 219.409016 
L 177.876 220.792437 
L 181.224 221.559572 
L 184.572 221.522182 
L 187.92 222.588435 
L 191.268 223.199565 
L 194.616 223.953807 
L 197.964 223.956385 
L 201.312 223.956385 
L 204.66 223.955096 
L 208.008 223.956385 
L 211.356 223.957674 
L 214.704 223.957674 
L 218.052 223.957674 
L 221.4 223.957674 
L 224.748 223.957674 
L 228.096 223.957674 
L 231.444 223.957674 
L 234.792 223.957674 
L 238.14 223.957674 
L 241.488 223.957674 
L 244.836 223.957674 
L 248.184 223.957674 
L 251.532 223.957674 
L 254.88 223.957674 
L 258.228 223.957674 
L 261.576 223.957674 
L 264.924 223.957674 
L 268.272 223.957674 
L 271.62 223.957674 
L 274.968 223.957674 
L 278.316 223.957674 
L 281.664 223.957674 
L 285.012 223.957674 
L 288.36 223.957674 
L 291.708 223.957674 
L 295.056 223.957674 
L 298.404 223.957674 
L 301.752 223.957674 
L 305.1 223.957674 
L 308.448 223.957674 
L 311.796 223.957674 
L 315.144 223.957674 
L 318.492 223.957674 
L 321.84 223.957674 
L 325.188 223.957674 
L 328.536 223.957674 
L 331.884 223.957674 
L 335.232 223.957674 
L 338.58 223.957674 
L 341.928 223.957674 
L 345.276 223.957674 
L 348.624 223.957674 
L 351.972 223.957674 
L 355.32 223.957674 
L 358.668 223.957674 
L 362.016 223.957674 
L 365.364 223.957674 
L 368.712 223.957674 
L 372.06 223.957674 
L 375.408 223.957674 
L 378.756 223.957674 
L 382.104 223.957674 
L 385.452 223.957674 
" clip-path="url(#p3f4a6a0093)" style="fill: none; stroke: #7f7f7f; stroke-width: 0.5; stroke-linecap: square"/>
   </g>
   <g id="line2d_22">
    <path d="M 54 127.26 
L 57.348 122.881529 
L 60.696 123.457847 
L 64.044 122.848007 
L 67.392 124.310076 
L 70.74 126.63211 
L 74.088 129.374456 
L 77.436 136.459172 
L 80.784 142.922445 
L 84.132 145.693155 
L 87.48 151.43184 
L 90.828 153.609472 
L 94.176 159.608595 
L 97.524 166.276867 
L 100.872 170.361377 
L 104.22 173.221049 
L 107.568 176.810467 
L 110.916 179.762969 
L 114.264 187.06042 
L 117.612 189.136197 
L 120.96 193.165267 
L 124.308 195.82123 
L 127.656 198.461721 
L 131.004 200.955232 
L 134.352 202.884028 
L 137.7 204.82056 
L 141.048 206.180774 
L 144.396 207.275392 
L 147.744 208.669127 
L 151.092 210.238208 
L 154.44 213.626495 
L 157.788 214.884854 
L 161.136 216.459092 
L 164.484 217.618175 
L 167.832 219.499267 
L 171.18 220.506212 
L 174.528 220.717658 
L 177.876 221.17536 
L 181.224 221.264322 
L 184.572 221.34168 
L 187.92 221.15602 
L 191.268 220.961336 
L 194.616 221.132813 
L 197.964 221.306869 
L 201.312 221.584069 
L 204.66 221.790357 
L 208.008 221.80454 
L 211.356 222.094633 
L 214.704 222.182305 
L 218.052 222.503341 
L 221.4 222.558781 
L 224.748 222.335732 
L 228.096 222.952019 
L 231.444 223.431639 
L 234.792 223.472897 
L 238.14 223.441953 
L 241.488 223.471607 
L 244.836 223.542519 
L 248.184 223.54123 
L 251.532 223.570884 
L 254.88 223.573462 
L 258.228 223.35557 
L 261.576 223.474186 
L 264.924 223.957674 
L 268.272 223.957674 
L 271.62 223.957674 
L 274.968 223.957674 
L 278.316 223.957674 
L 281.664 223.957674 
L 285.012 223.957674 
L 288.36 223.957674 
L 291.708 223.957674 
L 295.056 223.957674 
L 298.404 223.957674 
L 301.752 223.957674 
L 305.1 223.957674 
L 308.448 223.957674 
L 311.796 223.957674 
L 315.144 223.957674 
L 318.492 223.957674 
L 321.84 223.957674 
L 325.188 223.957674 
L 328.536 223.957674 
L 331.884 223.957674 
L 335.232 223.957674 
L 338.58 223.957674 
L 341.928 223.957674 
L 345.276 223.957674 
L 348.624 223.957674 
L 351.972 223.957674 
L 355.32 223.957674 
L 358.668 223.957674 
L 362.016 223.957674 
L 365.364 223.957674 
L 368.712 223.957674 
L 372.06 223.957674 
L 375.408 223.957674 
L 378.756 223.957674 
L 382.104 223.957674 
L 385.452 223.957674 
" clip-path="url(#p3f4a6a0093)" style="fill: none; stroke: #bcbd22; stroke-width: 0.5; stroke-linecap: square"/>
   </g>
   <g id="line2d_23">
    <path d="M 54 127.26 
L 57.348 123.58249 
L 60.696 123.006802 
L 64.044 122.432612 
L 67.392 122.87937 
L 70.74 124.04424 
L 74.088 128.552301 
L 77.436 133.388684 
L 80.784 136.219152 
L 84.132 139.632805 
L 87.48 148.635433 
L 90.828 157.772989 
L 94.176 162.415976 
L 97.524 170.600048 
L 100.872 173.931245 
L 104.22 177.653731 
L 107.568 178.413819 
L 110.916 184.654942 
L 114.264 188.524348 
L 117.612 189.206479 
L 120.96 193.338243 
L 124.308 197.269116 
L 127.656 199.585363 
L 131.004 200.954122 
L 134.352 204.492208 
L 137.7 205.289776 
L 141.048 206.139816 
L 144.396 209.530981 
L 147.744 211.333006 
L 151.092 214.560759 
L 154.44 216.373279 
L 157.788 214.251926 
L 161.136 216.124413 
L 164.484 216.788554 
L 167.832 218.008893 
L 171.18 217.635595 
L 174.528 218.017889 
L 177.876 219.287701 
L 181.224 219.989322 
L 184.572 219.908366 
L 187.92 219.819913 
L 191.268 219.593536 
L 194.616 220.674451 
L 197.964 220.885837 
L 201.312 221.672911 
L 204.66 221.1392 
L 208.008 221.585958 
L 211.356 221.831825 
L 214.704 223.101638 
L 218.052 223.098639 
L 221.4 222.957716 
L 224.748 223.956175 
L 228.096 223.956175 
L 231.444 223.957674 
L 234.792 223.957674 
L 238.14 223.957674 
L 241.488 223.957674 
L 244.836 223.957674 
L 248.184 223.957674 
L 251.532 223.957674 
L 254.88 223.957674 
L 258.228 223.957674 
L 261.576 223.957674 
L 264.924 223.957674 
L 268.272 223.957674 
L 271.62 223.957674 
L 274.968 223.957674 
L 278.316 223.957674 
L 281.664 223.957674 
L 285.012 223.957674 
L 288.36 223.957674 
L 291.708 223.957674 
L 295.056 223.957674 
L 298.404 223.957674 
L 301.752 223.957674 
L 305.1 223.957674 
L 308.448 223.957674 
L 311.796 223.957674 
L 315.144 223.957674 
L 318.492 223.957674 
L 321.84 223.957674 
L 325.188 223.957674 
L 328.536 223.957674 
L 331.884 223.957674 
L 335.232 223.957674 
L 338.58 223.957674 
L 341.928 223.957674 
L 345.276 223.957674 
L 348.624 223.957674 
L 351.972 223.957674 
L 355.32 223.957674 
L 358.668 223.957674 
L 362.016 223.957674 
L 365.364 223.957674 
L 368.712 223.957674 
L 372.06 223.957674 
L 375.408 223.957674 
L 378.756 223.957674 
L 382.104 223.957674 
L 385.452 223.957674 
" clip-path="url(#p3f4a6a0093)" style="fill: none; stroke: #17becf; stroke-width: 0.5; stroke-linecap: square"/>
   </g>
   <g id="line2d_24">
    <path d="M 54 127.26 
L 57.348 122.653323 
L 60.696 122.410934 
L 64.044 122.216249 
L 67.392 124.294605 
L 70.74 125.995194 
L 74.088 128.914175 
L 77.436 133.977265 
L 80.784 139.746893 
L 84.132 144.509576 
L 87.48 151.168822 
L 90.828 155.115377 
L 94.176 161.594121 
L 97.524 165.224796 
L 100.872 169.974586 
L 104.22 173.12822 
L 107.568 177.682035 
L 110.916 182.408618 
L 114.264 188.985349 
L 117.612 194.831046 
L 120.96 197.769366 
L 124.308 204.620718 
L 127.656 204.959805 
L 131.004 205.870052 
L 134.352 207.342435 
L 137.7 209.0701 
L 141.048 209.673494 
L 144.396 213.442125 
L 147.744 215.311613 
L 151.092 217.730344 
L 154.44 218.042355 
L 157.788 220.75118 
L 161.136 221.154731 
L 164.484 221.462874 
L 167.832 221.801961 
L 171.18 221.76715 
L 174.528 222.877239 
L 177.876 223.327206 
L 181.224 223.342677 
L 184.572 223.297552 
L 187.92 223.285948 
L 191.268 223.221483 
L 194.616 223.162175 
L 197.964 223.141546 
L 201.312 223.363306 
L 204.66 223.408432 
L 208.008 223.403274 
L 211.356 223.497393 
L 214.704 223.382646 
L 218.052 223.002301 
L 221.4 222.887553 
L 224.748 222.388593 
L 228.096 222.942993 
L 231.444 222.959754 
L 234.792 223.069345 
L 238.14 223.108024 
L 241.488 223.044848 
L 244.836 223.04098 
L 248.184 223.957674 
L 251.532 223.957674 
L 254.88 223.957674 
L 258.228 223.957674 
L 261.576 223.957674 
L 264.924 223.957674 
L 268.272 223.957674 
L 271.62 223.957674 
L 274.968 223.957674 
L 278.316 223.957674 
L 281.664 223.957674 
L 285.012 223.957674 
L 288.36 223.957674 
L 291.708 223.957674 
L 295.056 223.957674 
L 298.404 223.957674 
L 301.752 223.957674 
L 305.1 223.957674 
L 308.448 223.957674 
L 311.796 223.957674 
L 315.144 223.957674 
L 318.492 223.957674 
L 321.84 223.957674 
L 325.188 223.957674 
L 328.536 223.957674 
L 331.884 223.957674 
L 335.232 223.957674 
L 338.58 223.957674 
L 341.928 223.957674 
L 345.276 223.957674 
L 348.624 223.957674 
L 351.972 223.957674 
L 355.32 223.957674 
L 358.668 223.957674 
L 362.016 223.957674 
L 365.364 223.957674 
L 368.712 223.957674 
L 372.06 223.957674 
L 375.408 223.957674 
L 378.756 223.957674 
L 382.104 223.957674 
L 385.452 223.957674 
" clip-path="url(#p3f4a6a0093)" style="fill: none; stroke: #1f77b4; stroke-width: 0.5; stroke-linecap: square"/>
   </g>
   <g id="line2d_25">
    <path d="M 54 127.26 
L 57.348 122.976 
L 60.696 122.085209 
L 64.044 123.685116 
L 67.392 126.931814 
L 70.74 135.745953 
L 74.088 146.675721 
L 77.436 153.110512 
L 80.784 149.951721 
L 84.132 160.746698 
L 87.48 160.670512 
L 90.828 168.634884 
L 94.176 173.135721 
L 97.524 180.666419 
L 100.872 182.922698 
L 104.22 187.282884 
L 107.568 193.735256 
L 110.916 197.521116 
L 114.264 200.070419 
L 117.612 202.514233 
L 120.96 205.87814 
L 124.308 204.190326 
L 127.656 205.315535 
L 131.004 203.903163 
L 134.352 209.453023 
L 137.7 211.111535 
L 141.048 208.562233 
L 144.396 211.691721 
L 147.744 211.644837 
L 151.092 213.865953 
L 154.44 214.164837 
L 157.788 218.431256 
L 161.136 218.214419 
L 164.484 221.619349 
L 167.832 220.007721 
L 171.18 221.039163 
L 174.528 221.771721 
L 177.876 223.957674 
L 181.224 223.957674 
L 184.572 223.957674 
L 187.92 223.957674 
L 191.268 223.957674 
L 194.616 223.957674 
L 197.964 223.957674 
L 201.312 223.957674 
L 204.66 223.957674 
L 208.008 223.957674 
L 211.356 223.957674 
L 214.704 223.957674 
L 218.052 223.957674 
L 221.4 223.957674 
L 224.748 223.957674 
L 228.096 223.957674 
L 231.444 223.957674 
L 234.792 223.957674 
L 238.14 223.957674 
L 241.488 223.957674 
L 244.836 223.957674 
L 248.184 223.957674 
L 251.532 223.957674 
L 254.88 223.957674 
L 258.228 223.957674 
L 261.576 223.957674 
L 264.924 223.957674 
L 268.272 223.957674 
L 271.62 223.957674 
L 274.968 223.957674 
L 278.316 223.957674 
L 281.664 223.957674 
L 285.012 223.957674 
L 288.36 223.957674 
L 291.708 223.957674 
L 295.056 223.957674 
L 298.404 223.957674 
L 301.752 223.957674 
L 305.1 223.957674 
L 308.448 223.957674 
L 311.796 223.957674 
L 315.144 223.957674 
L 318.492 223.957674 
L 321.84 223.957674 
L 325.188 223.957674 
L 328.536 223.957674 
L 331.884 223.957674 
L 335.232 223.957674 
L 338.58 223.957674 
L 341.928 223.957674 
L 345.276 223.957674 
L 348.624 223.957674 
L 351.972 223.957674 
L 355.32 223.957674 
L 358.668 223.957674 
L 362.016 223.957674 
L 365.364 223.957674 
L 368.712 223.957674 
L 372.06 223.957674 
L 375.408 223.957674 
L 378.756 223.957674 
L 382.104 223.957674 
L 385.452 223.957674 
" clip-path="url(#p3f4a6a0093)" style="fill: none; stroke-dasharray: 0.5,0.825; stroke-dashoffset: 0; stroke: #ff7f0e; stroke-width: 0.5"/>
   </g>
   <g id="patch_3">
    <path d="M 54 224.28 
L 54 30.24 
" style="fill: none"/>
   </g>
   <g id="patch_4">
    <path d="M 388.8 224.28 
L 388.8 30.24 
" style="fill: none"/>
   </g>
   <g id="patch_5">
    <path d="M 54 224.28 
L 388.8 224.28 
" style="fill: none"/>
   </g>
   <g id="patch_6">
    <path d="M 54 30.24 
L 388.8 30.24 
" style="fill: none"/>
   </g>
   <g id="text_16">
    <g id="patch_7">
     <a xlink:href="https://dynomight.net/chess">
      <path d="M 323.8664 225.676606 
L 388.881244 225.676606 
L 388.881244 213.343012 
L 323.8664 213.343012 
z
" style="fill: #ffffff; opacity: 0.000001; stroke: #ffffff; stroke-linejoin: miter"/>
     </a>
    </g>
    <a xlink:href="https://dynomight.net/chess">
     <!-- dynomight.net/chess -->
     <g style="opacity: 0.3" transform="translate(327.8664 220.734419) scale(0.05 -0.05)">
      <defs>
       <path id="CourierNewPSMT-64" d="M 3206 3922 
L 3206 263 
L 3556 263 
Q 3653 263 3693 227 
Q 3734 191 3734 131 
Q 3734 75 3693 37 
Q 3653 0 3556 0 
L 2941 0 
L 2941 522 
Q 2484 -103 1781 -103 
Q 1425 -103 1098 86 
Q 772 275 583 625 
Q 394 975 394 1347 
Q 394 1722 583 2070 
Q 772 2419 1098 2609 
Q 1425 2800 1784 2800 
Q 2472 2800 2941 2175 
L 2941 3656 
L 2591 3656 
Q 2494 3656 2453 3693 
Q 2413 3731 2413 3791 
Q 2413 3847 2453 3884 
Q 2494 3922 2591 3922 
L 3206 3922 
z
M 2941 1347 
Q 2941 1847 2603 2190 
Q 2266 2534 1800 2534 
Q 1331 2534 993 2190 
Q 656 1847 656 1347 
Q 656 850 993 504 
Q 1331 159 1800 159 
Q 2266 159 2603 504 
Q 2941 850 2941 1347 
z
" transform="scale(0.015625)"/>
       <path id="CourierNewPSMT-79" d="M 1938 0 
L 719 2441 
L 641 2441 
Q 547 2441 506 2478 
Q 466 2516 466 2572 
Q 466 2613 486 2645 
Q 506 2678 539 2692 
Q 572 2706 641 2706 
L 1359 2706 
Q 1453 2706 1493 2668 
Q 1534 2631 1534 2572 
Q 1534 2516 1493 2478 
Q 1453 2441 1359 2441 
L 1006 2441 
L 2078 288 
L 3134 2441 
L 2781 2441 
Q 2688 2441 2647 2478 
Q 2606 2516 2606 2575 
Q 2606 2631 2647 2668 
Q 2688 2706 2781 2706 
L 3497 2706 
Q 3594 2706 3634 2668 
Q 3675 2631 3675 2572 
Q 3675 2531 3650 2497 
Q 3625 2463 3594 2452 
Q 3563 2441 3419 2441 
L 1756 -944 
L 2166 -944 
Q 2259 -944 2300 -980 
Q 2341 -1016 2341 -1075 
Q 2341 -1131 2300 -1168 
Q 2259 -1206 2166 -1206 
L 653 -1206 
Q 559 -1206 518 -1170 
Q 478 -1134 478 -1075 
Q 478 -1016 518 -980 
Q 559 -944 653 -944 
L 1475 -944 
L 1938 0 
z
" transform="scale(0.015625)"/>
       <path id="CourierNewPSMT-6e" d="M 1072 2706 
L 1072 2309 
Q 1347 2588 1569 2694 
Q 1791 2800 2069 2800 
Q 2369 2800 2616 2672 
Q 2791 2578 2933 2361 
Q 3075 2144 3075 1916 
L 3075 263 
L 3297 263 
Q 3391 263 3431 227 
Q 3472 191 3472 131 
Q 3472 75 3431 37 
Q 3391 0 3297 0 
L 2594 0 
Q 2497 0 2456 37 
Q 2416 75 2416 131 
Q 2416 191 2456 227 
Q 2497 263 2594 263 
L 2813 263 
L 2813 1872 
Q 2813 2150 2609 2342 
Q 2406 2534 2066 2534 
Q 1806 2534 1615 2429 
Q 1425 2325 1072 1909 
L 1072 263 
L 1369 263 
Q 1463 263 1503 227 
Q 1544 191 1544 131 
Q 1544 75 1503 37 
Q 1463 0 1369 0 
L 513 0 
Q 419 0 378 37 
Q 338 75 338 131 
Q 338 191 378 227 
Q 419 263 513 263 
L 809 263 
L 809 2441 
L 588 2441 
Q 494 2441 453 2478 
Q 413 2516 413 2575 
Q 413 2631 453 2668 
Q 494 2706 588 2706 
L 1072 2706 
z
" transform="scale(0.015625)"/>
       <path id="CourierNewPSMT-6f" d="M 3388 1347 
Q 3388 747 2958 322 
Q 2528 -103 1922 -103 
Q 1309 -103 881 323 
Q 453 750 453 1347 
Q 453 1947 881 2373 
Q 1309 2800 1922 2800 
Q 2528 2800 2958 2375 
Q 3388 1950 3388 1347 
z
M 3122 1347 
Q 3122 1841 2770 2187 
Q 2419 2534 1919 2534 
Q 1419 2534 1067 2186 
Q 716 1838 716 1347 
Q 716 859 1067 509 
Q 1419 159 1919 159 
Q 2419 159 2770 507 
Q 3122 856 3122 1347 
z
" transform="scale(0.015625)"/>
       <path id="CourierNewPSMT-6d" d="M 725 2706 
L 725 2441 
Q 1059 2800 1397 2800 
Q 1600 2800 1753 2692 
Q 1906 2584 2009 2366 
Q 2184 2584 2364 2692 
Q 2544 2800 2725 2800 
Q 3009 2800 3178 2616 
Q 3400 2378 3400 2097 
L 3400 263 
L 3622 263 
Q 3716 263 3756 227 
Q 3797 191 3797 131 
Q 3797 75 3756 37 
Q 3716 0 3622 0 
L 3138 0 
L 3138 2072 
Q 3138 2272 3016 2403 
Q 2894 2534 2734 2534 
Q 2591 2534 2431 2426 
Q 2272 2319 2069 2003 
L 2069 263 
L 2288 263 
Q 2381 263 2422 227 
Q 2463 191 2463 131 
Q 2463 75 2422 37 
Q 2381 0 2288 0 
L 1803 0 
L 1803 2053 
Q 1803 2263 1679 2398 
Q 1556 2534 1403 2534 
Q 1263 2534 1125 2444 
Q 934 2316 725 2003 
L 725 263 
L 947 263 
Q 1041 263 1081 227 
Q 1122 191 1122 131 
Q 1122 75 1081 37 
Q 1041 0 947 0 
L 241 0 
Q 147 0 106 37 
Q 66 75 66 131 
Q 66 191 106 227 
Q 147 263 241 263 
L 463 263 
L 463 2441 
L 241 2441 
Q 147 2441 106 2478 
Q 66 2516 66 2575 
Q 66 2631 106 2668 
Q 147 2706 241 2706 
L 725 2706 
z
" transform="scale(0.015625)"/>
       <path id="CourierNewPSMT-69" d="M 2050 4053 
L 2050 3375 
L 1663 3375 
L 1663 4053 
L 2050 4053 
z
M 2059 2706 
L 2059 263 
L 3091 263 
Q 3188 263 3228 227 
Q 3269 191 3269 131 
Q 3269 75 3228 37 
Q 3188 0 3091 0 
L 766 0 
Q 672 0 631 37 
Q 591 75 591 131 
Q 591 191 631 227 
Q 672 263 766 263 
L 1797 263 
L 1797 2441 
L 1031 2441 
Q 938 2441 895 2478 
Q 853 2516 853 2572 
Q 853 2631 893 2668 
Q 934 2706 1031 2706 
L 2059 2706 
z
" transform="scale(0.015625)"/>
       <path id="CourierNewPSMT-67" d="M 2803 2225 
L 2803 2706 
L 3419 2706 
Q 3513 2706 3553 2668 
Q 3594 2631 3594 2572 
Q 3594 2516 3553 2478 
Q 3513 2441 3419 2441 
L 3066 2441 
L 3066 -181 
Q 3066 -444 2953 -650 
Q 2878 -788 2703 -934 
Q 2528 -1081 2384 -1143 
Q 2241 -1206 2000 -1206 
L 1256 -1206 
Q 1163 -1206 1122 -1170 
Q 1081 -1134 1081 -1075 
Q 1081 -1016 1122 -978 
Q 1163 -941 1256 -941 
L 2009 -944 
Q 2241 -944 2427 -825 
Q 2613 -706 2734 -478 
Q 2803 -347 2803 -144 
L 2803 644 
Q 2381 66 1716 66 
Q 1175 66 783 467 
Q 391 869 391 1434 
Q 391 2000 783 2400 
Q 1175 2800 1716 2800 
Q 2381 2800 2803 2225 
z
M 2803 1434 
Q 2803 1897 2486 2215 
Q 2169 2534 1728 2534 
Q 1288 2534 972 2214 
Q 656 1894 656 1434 
Q 656 972 972 651 
Q 1288 331 1728 331 
Q 2169 331 2486 651 
Q 2803 972 2803 1434 
z
" transform="scale(0.015625)"/>
       <path id="CourierNewPSMT-68" d="M 1056 3922 
L 1056 2306 
Q 1306 2578 1536 2689 
Q 1766 2800 2050 2800 
Q 2356 2800 2570 2692 
Q 2784 2584 2928 2361 
Q 3072 2138 3072 1891 
L 3072 263 
L 3366 263 
Q 3463 263 3502 227 
Q 3541 191 3541 131 
Q 3541 75 3502 37 
Q 3463 0 3366 0 
L 2513 0 
Q 2416 0 2375 37 
Q 2334 75 2334 131 
Q 2334 191 2375 227 
Q 2416 263 2513 263 
L 2806 263 
L 2806 1872 
Q 2806 2156 2601 2347 
Q 2397 2538 2031 2538 
Q 1744 2538 1541 2397 
Q 1394 2297 1056 1925 
L 1056 263 
L 1353 263 
Q 1447 263 1487 227 
Q 1528 191 1528 131 
Q 1528 75 1487 37 
Q 1447 0 1353 0 
L 497 0 
Q 403 0 362 37 
Q 322 75 322 131 
Q 322 191 362 227 
Q 403 263 497 263 
L 794 263 
L 794 3656 
L 441 3656 
Q 347 3656 306 3693 
Q 266 3731 266 3791 
Q 266 3847 306 3884 
Q 347 3922 441 3922 
L 1056 3922 
z
" transform="scale(0.015625)"/>
       <path id="CourierNewPSMT-74" d="M 1381 2706 
L 2806 2706 
Q 2900 2706 2940 2668 
Q 2981 2631 2981 2572 
Q 2981 2516 2940 2478 
Q 2900 2441 2806 2441 
L 1381 2441 
L 1381 694 
Q 1381 466 1564 312 
Q 1747 159 2100 159 
Q 2366 159 2675 239 
Q 2984 319 3156 419 
Q 3219 459 3259 459 
Q 3309 459 3346 420 
Q 3384 381 3384 328 
Q 3384 281 3344 241 
Q 3244 138 2858 17 
Q 2472 -103 2119 -103 
Q 1659 -103 1387 112 
Q 1116 328 1116 694 
L 1116 2441 
L 631 2441 
Q 538 2441 497 2478 
Q 456 2516 456 2575 
Q 456 2631 497 2668 
Q 538 2706 631 2706 
L 1116 2706 
L 1116 3481 
Q 1116 3575 1153 3615 
Q 1191 3656 1247 3656 
Q 1306 3656 1343 3615 
Q 1381 3575 1381 3481 
L 1381 2706 
z
" transform="scale(0.015625)"/>
       <path id="CourierNewPSMT-2e" d="M 1866 753 
L 1978 753 
Q 2153 753 2278 629 
Q 2403 506 2403 331 
Q 2403 150 2276 28 
Q 2150 -94 1978 -94 
L 1866 -94 
Q 1691 -94 1566 29 
Q 1441 153 1441 328 
Q 1441 509 1567 631 
Q 1694 753 1866 753 
z
" transform="scale(0.015625)"/>
       <path id="CourierNewPSMT-65" d="M 3341 1291 
L 666 1291 
Q 734 781 1092 470 
Q 1450 159 1978 159 
Q 2272 159 2594 256 
Q 2916 353 3119 513 
Q 3178 559 3222 559 
Q 3272 559 3309 520 
Q 3347 481 3347 428 
Q 3347 375 3297 325 
Q 3147 169 2764 33 
Q 2381 -103 1978 -103 
Q 1303 -103 851 339 
Q 400 781 400 1409 
Q 400 1981 823 2390 
Q 1247 2800 1872 2800 
Q 2516 2800 2931 2379 
Q 3347 1959 3341 1291 
z
M 3075 1556 
Q 2997 1991 2664 2262 
Q 2331 2534 1872 2534 
Q 1413 2534 1081 2265 
Q 750 1997 669 1556 
L 3075 1556 
z
" transform="scale(0.015625)"/>
       <path id="CourierNewPSMT-2f" d="M 3100 4113 
L 988 -413 
Q 934 -528 850 -528 
Q 797 -528 758 -489 
Q 719 -450 719 -403 
Q 719 -366 750 -300 
L 2859 4225 
Q 2894 4297 2925 4319 
Q 2956 4341 3000 4341 
Q 3053 4341 3092 4302 
Q 3131 4263 3131 4216 
Q 3131 4181 3100 4113 
z
" transform="scale(0.015625)"/>
       <path id="CourierNewPSMT-63" d="M 3016 2441 
L 3016 2528 
Q 3016 2625 3053 2665 
Q 3091 2706 3147 2706 
Q 3206 2706 3243 2665 
Q 3281 2625 3281 2528 
L 3281 1934 
Q 3278 1838 3242 1797 
Q 3206 1756 3147 1756 
Q 3094 1756 3058 1792 
Q 3022 1828 3016 1913 
Q 2997 2134 2723 2334 
Q 2450 2534 1988 2534 
Q 1403 2534 1100 2168 
Q 797 1803 797 1331 
Q 797 822 1131 490 
Q 1466 159 1997 159 
Q 2303 159 2620 271 
Q 2938 384 3194 634 
Q 3259 697 3309 697 
Q 3363 697 3398 661 
Q 3434 625 3434 572 
Q 3434 438 3119 231 
Q 2609 -103 1984 -103 
Q 1350 -103 942 301 
Q 534 706 534 1328 
Q 534 1963 951 2381 
Q 1369 2800 2003 2800 
Q 2606 2800 3016 2441 
z
" transform="scale(0.015625)"/>
       <path id="CourierNewPSMT-73" d="M 2788 2534 
Q 2788 2625 2825 2665 
Q 2863 2706 2919 2706 
Q 2978 2706 3015 2665 
Q 3053 2625 3053 2528 
L 3053 2078 
Q 3053 1984 3015 1943 
Q 2978 1903 2919 1903 
Q 2866 1903 2830 1937 
Q 2794 1972 2788 2050 
Q 2769 2238 2594 2359 
Q 2338 2534 1916 2534 
Q 1475 2534 1231 2356 
Q 1047 2222 1047 2056 
Q 1047 1869 1266 1744 
Q 1416 1656 1834 1609 
Q 2381 1550 2594 1475 
Q 2897 1366 3045 1172 
Q 3194 978 3194 753 
Q 3194 419 2872 158 
Q 2550 -103 1928 -103 
Q 1306 -103 909 213 
Q 909 106 896 75 
Q 884 44 851 22 
Q 819 0 778 0 
Q 722 0 684 40 
Q 647 81 647 175 
L 647 716 
Q 647 809 683 850 
Q 719 891 778 891 
Q 834 891 873 852 
Q 913 813 913 747 
Q 913 603 984 506 
Q 1094 356 1333 257 
Q 1572 159 1919 159 
Q 2431 159 2681 350 
Q 2931 541 2931 753 
Q 2931 997 2678 1144 
Q 2422 1291 1933 1341 
Q 1444 1391 1231 1472 
Q 1019 1553 900 1715 
Q 781 1878 781 2066 
Q 781 2403 1112 2601 
Q 1444 2800 1903 2800 
Q 2447 2800 2788 2534 
z
" transform="scale(0.015625)"/>
      </defs>
      <use xlink:href="#CourierNewPSMT-64"/>
      <use xlink:href="#CourierNewPSMT-79" x="60.009766"/>
      <use xlink:href="#CourierNewPSMT-6e" x="120.019531"/>
      <use xlink:href="#CourierNewPSMT-6f" x="180.029297"/>
      <use xlink:href="#CourierNewPSMT-6d" x="240.039062"/>
      <use xlink:href="#CourierNewPSMT-69" x="300.048828"/>
      <use xlink:href="#CourierNewPSMT-67" x="360.058594"/>
      <use xlink:href="#CourierNewPSMT-68" x="420.068359"/>
      <use xlink:href="#CourierNewPSMT-74" x="480.078125"/>
      <use xlink:href="#CourierNewPSMT-2e" x="540.087891"/>
      <use xlink:href="#CourierNewPSMT-6e" x="600.097656"/>
      <use xlink:href="#CourierNewPSMT-65" x="660.107422"/>
      <use xlink:href="#CourierNewPSMT-74" x="720.117188"/>
      <use xlink:href="#CourierNewPSMT-2f" x="780.126953"/>
      <use xlink:href="#CourierNewPSMT-63" x="840.136719"/>
      <use xlink:href="#CourierNewPSMT-68" x="900.146484"/>
      <use xlink:href="#CourierNewPSMT-65" x="960.15625"/>
      <use xlink:href="#CourierNewPSMT-73" x="1020.166016"/>
      <use xlink:href="#CourierNewPSMT-73" x="1080.175781"/>
     </g>
    </a>
   </g>
   <g id="legend_1">
    <g id="line2d_26">
     <path d="M 242.532813 43.160313 
L 252.532813 43.160313 
L 262.532812 43.160313 
" style="fill: none; stroke: #1f77b4; stroke-width: 0.5; stroke-linecap: square"/>
    </g>
    <g id="text_17">
     <!-- gpt-3.5-turbo-instruct -->
     <g style="fill: #1f77b4" transform="translate(270.532812 46.660313) scale(0.1 -0.1)">
      <defs>
       <path id="Montserrat-Regular-67" d="M 3750 3366 
L 3750 410 
Q 3750 -448 3331 -861 
Q 2912 -1274 2067 -1274 
Q 1600 -1274 1181 -1136 
Q 762 -998 499 -755 
L 730 -410 
Q 973 -627 1321 -748 
Q 1670 -870 2054 -870 
Q 2694 -870 2995 -572 
Q 3296 -275 3296 352 
L 3296 781 
Q 3085 461 2742 294 
Q 2400 128 1984 128 
Q 1510 128 1123 336 
Q 736 544 515 918 
Q 294 1293 294 1766 
Q 294 2240 515 2611 
Q 736 2982 1120 3187 
Q 1504 3392 1984 3392 
Q 2413 3392 2758 3219 
Q 3104 3046 3315 2720 
L 3315 3366 
L 3750 3366 
z
M 2029 531 
Q 2394 531 2688 688 
Q 2982 845 3145 1126 
Q 3309 1408 3309 1766 
Q 3309 2125 3145 2403 
Q 2982 2682 2691 2838 
Q 2400 2995 2029 2995 
Q 1664 2995 1373 2841 
Q 1082 2688 918 2406 
Q 755 2125 755 1766 
Q 755 1408 918 1126 
Q 1082 845 1373 688 
Q 1664 531 2029 531 
z
" transform="scale(0.015625)"/>
       <path id="Montserrat-Regular-33" d="M 1856 2560 
Q 2560 2522 2928 2179 
Q 3296 1837 3296 1286 
Q 3296 902 3110 604 
Q 2925 307 2560 134 
Q 2195 -38 1670 -38 
Q 1184 -38 752 118 
Q 320 275 58 538 
L 282 902 
Q 506 672 877 528 
Q 1248 384 1670 384 
Q 2221 384 2521 624 
Q 2822 864 2822 1286 
Q 2822 1702 2521 1939 
Q 2221 2176 1613 2176 
L 1293 2176 
L 1293 2515 
L 2534 4070 
L 243 4070 
L 243 4480 
L 3123 4480 
L 3123 4154 
L 1856 2560 
z
" transform="scale(0.015625)"/>
       <path id="Montserrat-Regular-2e" d="M 678 -32 
Q 538 -32 438 70 
Q 339 173 339 320 
Q 339 467 438 566 
Q 538 666 678 666 
Q 819 666 921 566 
Q 1024 467 1024 320 
Q 1024 173 921 70 
Q 819 -32 678 -32 
z
" transform="scale(0.015625)"/>
       <path id="Montserrat-Regular-62" d="M 2368 3392 
Q 2842 3392 3226 3177 
Q 3610 2963 3827 2572 
Q 4045 2182 4045 1683 
Q 4045 1184 3827 793 
Q 3610 403 3226 185 
Q 2842 -32 2368 -32 
Q 1946 -32 1610 147 
Q 1274 326 1069 666 
L 1069 0 
L 634 0 
L 634 4749 
L 1088 4749 
L 1088 2726 
Q 1299 3053 1628 3222 
Q 1958 3392 2368 3392 
z
M 2336 371 
Q 2688 371 2976 534 
Q 3264 698 3427 998 
Q 3590 1299 3590 1683 
Q 3590 2067 3427 2368 
Q 3264 2669 2976 2832 
Q 2688 2995 2336 2995 
Q 1978 2995 1693 2832 
Q 1408 2669 1245 2368 
Q 1082 2067 1082 1683 
Q 1082 1299 1245 998 
Q 1408 698 1693 534 
Q 1978 371 2336 371 
z
" transform="scale(0.015625)"/>
       <path id="Montserrat-Regular-6f" d="M 2010 -32 
Q 1523 -32 1132 189 
Q 742 410 518 800 
Q 294 1190 294 1683 
Q 294 2176 518 2566 
Q 742 2957 1132 3174 
Q 1523 3392 2010 3392 
Q 2496 3392 2886 3174 
Q 3277 2957 3497 2566 
Q 3718 2176 3718 1683 
Q 3718 1190 3497 800 
Q 3277 410 2886 189 
Q 2496 -32 2010 -32 
z
M 2010 371 
Q 2368 371 2653 534 
Q 2938 698 3098 998 
Q 3258 1299 3258 1683 
Q 3258 2067 3098 2368 
Q 2938 2669 2653 2832 
Q 2368 2995 2010 2995 
Q 1651 2995 1366 2832 
Q 1082 2669 918 2368 
Q 755 2067 755 1683 
Q 755 1299 918 998 
Q 1082 698 1366 534 
Q 1651 371 2010 371 
z
" transform="scale(0.015625)"/>
      </defs>
      <use xlink:href="#Montserrat-Regular-67"/>
      <use xlink:href="#Montserrat-Regular-70" x="68.599991"/>
      <use xlink:href="#Montserrat-Regular-74" x="136.399979"/>
      <use xlink:href="#Montserrat-Regular-2d" x="176.999969"/>
      <use xlink:href="#Montserrat-Regular-33" x="215.199966"/>
      <use xlink:href="#Montserrat-Regular-2e" x="271.59996"/>
      <use xlink:href="#Montserrat-Regular-35" x="292.799957"/>
      <use xlink:href="#Montserrat-Regular-2d" x="349.399948"/>
      <use xlink:href="#Montserrat-Regular-74" x="387.599945"/>
      <use xlink:href="#Montserrat-Regular-75" x="428.199936"/>
      <use xlink:href="#Montserrat-Regular-72" x="495.499924"/>
      <use xlink:href="#Montserrat-Regular-62" x="535.599915"/>
      <use xlink:href="#Montserrat-Regular-6f" x="603.399902"/>
      <use xlink:href="#Montserrat-Regular-2d" x="666.099899"/>
      <use xlink:href="#Montserrat-Regular-69" x="704.299896"/>
      <use xlink:href="#Montserrat-Regular-6e" x="731.19989"/>
      <use xlink:href="#Montserrat-Regular-73" x="798.899872"/>
      <use xlink:href="#Montserrat-Regular-74" x="847.799866"/>
      <use xlink:href="#Montserrat-Regular-72" x="888.399857"/>
      <use xlink:href="#Montserrat-Regular-75" x="928.499847"/>
      <use xlink:href="#Montserrat-Regular-63" x="995.799835"/>
      <use xlink:href="#Montserrat-Regular-74" x="1052.099823"/>
     </g>
    </g>
    <g id="line2d_27">
     <path d="M 242.532813 57.57125 
L 252.532813 57.57125 
L 262.532812 57.57125 
" style="fill: none; stroke: #ff7f0e; stroke-width: 0.5; stroke-linecap: square"/>
    </g>
    <g id="text_18">
     <!-- gpt-4o -->
     <g style="fill: #ff7f0e" transform="translate(270.532812 61.07125) scale(0.1 -0.1)">
      <use xlink:href="#Montserrat-Regular-67"/>
      <use xlink:href="#Montserrat-Regular-70" x="68.599991"/>
      <use xlink:href="#Montserrat-Regular-74" x="136.399979"/>
      <use xlink:href="#Montserrat-Regular-2d" x="176.999969"/>
      <use xlink:href="#Montserrat-Regular-34" x="215.199966"/>
      <use xlink:href="#Montserrat-Regular-6f" x="281.299957"/>
     </g>
    </g>
    <g id="line2d_28">
     <path d="M 242.532813 71.982188 
L 252.532813 71.982188 
L 262.532812 71.982188 
" style="fill: none; stroke: #2ca02c; stroke-width: 0.5; stroke-linecap: square"/>
    </g>
    <g id="text_19">
     <!-- llama-3.1-70b -->
     <g style="fill: #2ca02c" transform="translate(270.532812 75.482188) scale(0.1 -0.1)">
      <defs>
       <path id="Montserrat-Regular-6c" d="M 634 4749 
L 1088 4749 
L 1088 0 
L 634 0 
L 634 4749 
z
" transform="scale(0.015625)"/>
       <path id="Montserrat-Regular-37" d="M 3494 4480 
L 3494 4154 
L 1619 0 
L 1120 0 
L 2963 4070 
L 659 4070 
L 659 3232 
L 205 3232 
L 205 4480 
L 3494 4480 
z
" transform="scale(0.015625)"/>
      </defs>
      <use xlink:href="#Montserrat-Regular-6c"/>
      <use xlink:href="#Montserrat-Regular-6c" x="26.899994"/>
      <use xlink:href="#Montserrat-Regular-61" x="53.799988"/>
      <use xlink:href="#Montserrat-Regular-6d" x="112.799973"/>
      <use xlink:href="#Montserrat-Regular-61" x="218.899963"/>
      <use xlink:href="#Montserrat-Regular-2d" x="277.899948"/>
      <use xlink:href="#Montserrat-Regular-33" x="316.099945"/>
      <use xlink:href="#Montserrat-Regular-2e" x="372.499939"/>
      <use xlink:href="#Montserrat-Regular-31" x="393.699936"/>
      <use xlink:href="#Montserrat-Regular-2d" x="429.799927"/>
      <use xlink:href="#Montserrat-Regular-37" x="467.999924"/>
      <use xlink:href="#Montserrat-Regular-30" x="526.899918"/>
      <use xlink:href="#Montserrat-Regular-62" x="593.099915"/>
     </g>
    </g>
    <g id="line2d_29">
     <path d="M 242.532813 86.343125 
L 252.532813 86.343125 
L 262.532812 86.343125 
" style="fill: none; stroke: #d62728; stroke-width: 0.5; stroke-linecap: square"/>
    </g>
    <g id="text_20">
     <!-- gpt-4o-mini -->
     <g style="fill: #d62728" transform="translate(270.532812 89.843125) scale(0.1 -0.1)">
      <use xlink:href="#Montserrat-Regular-67"/>
      <use xlink:href="#Montserrat-Regular-70" x="68.599991"/>
      <use xlink:href="#Montserrat-Regular-74" x="136.399979"/>
      <use xlink:href="#Montserrat-Regular-2d" x="176.999969"/>
      <use xlink:href="#Montserrat-Regular-34" x="215.199966"/>
      <use xlink:href="#Montserrat-Regular-6f" x="281.299957"/>
      <use xlink:href="#Montserrat-Regular-2d" x="343.999954"/>
      <use xlink:href="#Montserrat-Regular-6d" x="382.199951"/>
      <use xlink:href="#Montserrat-Regular-69" x="488.299942"/>
      <use xlink:href="#Montserrat-Regular-6e" x="515.199936"/>
      <use xlink:href="#Montserrat-Regular-69" x="582.899918"/>
     </g>
    </g>
    <g id="line2d_30">
     <path d="M 242.532813 100.754063 
L 252.532813 100.754063 
L 262.532812 100.754063 
" style="fill: none; stroke: #9467bd; stroke-width: 0.5; stroke-linecap: square"/>
    </g>
    <g id="text_21">
     <!-- o1-mini -->
     <g style="fill: #9467bd" transform="translate(270.532812 104.254063) scale(0.1 -0.1)">
      <use xlink:href="#Montserrat-Regular-6f"/>
      <use xlink:href="#Montserrat-Regular-31" x="62.699997"/>
      <use xlink:href="#Montserrat-Regular-2d" x="98.799988"/>
      <use xlink:href="#Montserrat-Regular-6d" x="136.999985"/>
      <use xlink:href="#Montserrat-Regular-69" x="243.099976"/>
      <use xlink:href="#Montserrat-Regular-6e" x="269.999969"/>
      <use xlink:href="#Montserrat-Regular-69" x="337.699951"/>
     </g>
    </g>
    <g id="line2d_31">
     <path d="M 242.532813 115.115 
L 252.532813 115.115 
L 262.532812 115.115 
" style="fill: none; stroke: #8c564b; stroke-width: 0.5; stroke-linecap: square"/>
    </g>
    <g id="text_22">
     <!-- llama-3.1-70b-instruct -->
     <g style="fill: #8c564b" transform="translate(270.532812 118.615) scale(0.1 -0.1)">
      <use xlink:href="#Montserrat-Regular-6c"/>
      <use xlink:href="#Montserrat-Regular-6c" x="26.899994"/>
      <use xlink:href="#Montserrat-Regular-61" x="53.799988"/>
      <use xlink:href="#Montserrat-Regular-6d" x="112.799973"/>
      <use xlink:href="#Montserrat-Regular-61" x="218.899963"/>
      <use xlink:href="#Montserrat-Regular-2d" x="277.899948"/>
      <use xlink:href="#Montserrat-Regular-33" x="316.099945"/>
      <use xlink:href="#Montserrat-Regular-2e" x="372.499939"/>
      <use xlink:href="#Montserrat-Regular-31" x="393.699936"/>
      <use xlink:href="#Montserrat-Regular-2d" x="429.799927"/>
      <use xlink:href="#Montserrat-Regular-37" x="467.999924"/>
      <use xlink:href="#Montserrat-Regular-30" x="526.899918"/>
      <use xlink:href="#Montserrat-Regular-62" x="593.099915"/>
      <use xlink:href="#Montserrat-Regular-2d" x="660.899902"/>
      <use xlink:href="#Montserrat-Regular-69" x="699.099899"/>
      <use xlink:href="#Montserrat-Regular-6e" x="725.999893"/>
      <use xlink:href="#Montserrat-Regular-73" x="793.699875"/>
      <use xlink:href="#Montserrat-Regular-74" x="842.599869"/>
      <use xlink:href="#Montserrat-Regular-72" x="883.19986"/>
      <use xlink:href="#Montserrat-Regular-75" x="923.29985"/>
      <use xlink:href="#Montserrat-Regular-63" x="990.599838"/>
      <use xlink:href="#Montserrat-Regular-74" x="1046.899826"/>
     </g>
    </g>
    <g id="line2d_32">
     <path d="M 242.532813 129.475938 
L 252.532813 129.475938 
L 262.532812 129.475938 
" style="fill: none; stroke: #e377c2; stroke-width: 0.5; stroke-linecap: square"/>
    </g>
    <g id="text_23">
     <!-- qwen-2.5-72b -->
     <g style="fill: #e377c2" transform="translate(270.532812 132.975938) scale(0.1 -0.1)">
      <defs>
       <path id="Montserrat-Regular-71" d="M 3706 3366 
L 3706 -1242 
L 3251 -1242 
L 3251 634 
Q 3040 307 2710 137 
Q 2381 -32 1971 -32 
Q 1491 -32 1110 182 
Q 730 397 512 787 
Q 294 1178 294 1683 
Q 294 2182 512 2572 
Q 730 2963 1114 3177 
Q 1498 3392 1971 3392 
Q 2394 3392 2730 3213 
Q 3066 3034 3270 2701 
L 3270 3366 
L 3706 3366 
z
M 2010 371 
Q 2362 371 2646 534 
Q 2931 698 3094 998 
Q 3258 1299 3258 1683 
Q 3258 2067 3094 2364 
Q 2931 2662 2646 2828 
Q 2362 2995 2010 2995 
Q 1651 2995 1366 2828 
Q 1082 2662 918 2364 
Q 755 2067 755 1683 
Q 755 1299 918 998 
Q 1082 698 1366 534 
Q 1651 371 2010 371 
z
" transform="scale(0.015625)"/>
      </defs>
      <use xlink:href="#Montserrat-Regular-71"/>
      <use xlink:href="#Montserrat-Regular-77" x="67.799988"/>
      <use xlink:href="#Montserrat-Regular-65" x="155.699982"/>
      <use xlink:href="#Montserrat-Regular-6e" x="216.099976"/>
      <use xlink:href="#Montserrat-Regular-2d" x="283.799957"/>
      <use xlink:href="#Montserrat-Regular-32" x="321.999954"/>
      <use xlink:href="#Montserrat-Regular-2e" x="378.799942"/>
      <use xlink:href="#Montserrat-Regular-35" x="399.999939"/>
      <use xlink:href="#Montserrat-Regular-2d" x="456.59993"/>
      <use xlink:href="#Montserrat-Regular-37" x="494.799927"/>
      <use xlink:href="#Montserrat-Regular-32" x="553.699921"/>
      <use xlink:href="#Montserrat-Regular-62" x="610.499908"/>
     </g>
    </g>
    <g id="line2d_33">
     <path d="M 242.532813 143.836875 
L 252.532813 143.836875 
L 262.532812 143.836875 
" style="fill: none; stroke: #7f7f7f; stroke-width: 0.5; stroke-linecap: square"/>
    </g>
    <g id="text_24">
     <!-- llama-3.2-3b -->
     <g style="fill: #7f7f7f" transform="translate(270.532812 147.336875) scale(0.1 -0.1)">
      <use xlink:href="#Montserrat-Regular-6c"/>
      <use xlink:href="#Montserrat-Regular-6c" x="26.899994"/>
      <use xlink:href="#Montserrat-Regular-61" x="53.799988"/>
      <use xlink:href="#Montserrat-Regular-6d" x="112.799973"/>
      <use xlink:href="#Montserrat-Regular-61" x="218.899963"/>
      <use xlink:href="#Montserrat-Regular-2d" x="277.899948"/>
      <use xlink:href="#Montserrat-Regular-33" x="316.099945"/>
      <use xlink:href="#Montserrat-Regular-2e" x="372.499939"/>
      <use xlink:href="#Montserrat-Regular-32" x="393.699936"/>
      <use xlink:href="#Montserrat-Regular-2d" x="450.499924"/>
      <use xlink:href="#Montserrat-Regular-33" x="488.699921"/>
      <use xlink:href="#Montserrat-Regular-62" x="545.099915"/>
     </g>
    </g>
    <g id="line2d_34">
     <path d="M 242.532813 158.197813 
L 252.532813 158.197813 
L 262.532812 158.197813 
" style="fill: none; stroke: #bcbd22; stroke-width: 0.5; stroke-linecap: square"/>
    </g>
    <g id="text_25">
     <!-- gemma-2-27b -->
     <g style="fill: #bcbd22" transform="translate(270.532812 161.697813) scale(0.1 -0.1)">
      <use xlink:href="#Montserrat-Regular-67"/>
      <use xlink:href="#Montserrat-Regular-65" x="68.599991"/>
      <use xlink:href="#Montserrat-Regular-6d" x="128.999985"/>
      <use xlink:href="#Montserrat-Regular-6d" x="235.099976"/>
      <use xlink:href="#Montserrat-Regular-61" x="341.199966"/>
      <use xlink:href="#Montserrat-Regular-2d" x="400.199951"/>
      <use xlink:href="#Montserrat-Regular-32" x="438.399948"/>
      <use xlink:href="#Montserrat-Regular-2d" x="495.199936"/>
      <use xlink:href="#Montserrat-Regular-32" x="533.399933"/>
      <use xlink:href="#Montserrat-Regular-37" x="590.199921"/>
      <use xlink:href="#Montserrat-Regular-62" x="649.099915"/>
     </g>
    </g>
    <g id="line2d_35">
     <path d="M 242.532813 172.60875 
L 252.532813 172.60875 
L 262.532812 172.60875 
" style="fill: none; stroke: #17becf; stroke-width: 0.5; stroke-linecap: square"/>
    </g>
    <g id="text_26">
     <!-- gemma-2-27b-it -->
     <g style="fill: #17becf" transform="translate(270.532812 176.10875) scale(0.1 -0.1)">
      <use xlink:href="#Montserrat-Regular-67"/>
      <use xlink:href="#Montserrat-Regular-65" x="68.599991"/>
      <use xlink:href="#Montserrat-Regular-6d" x="128.999985"/>
      <use xlink:href="#Montserrat-Regular-6d" x="235.099976"/>
      <use xlink:href="#Montserrat-Regular-61" x="341.199966"/>
      <use xlink:href="#Montserrat-Regular-2d" x="400.199951"/>
      <use xlink:href="#Montserrat-Regular-32" x="438.399948"/>
      <use xlink:href="#Montserrat-Regular-2d" x="495.199936"/>
      <use xlink:href="#Montserrat-Regular-32" x="533.399933"/>
      <use xlink:href="#Montserrat-Regular-37" x="590.199921"/>
      <use xlink:href="#Montserrat-Regular-62" x="649.099915"/>
      <use xlink:href="#Montserrat-Regular-2d" x="716.899902"/>
      <use xlink:href="#Montserrat-Regular-69" x="755.099899"/>
      <use xlink:href="#Montserrat-Regular-74" x="781.999893"/>
     </g>
    </g>
    <g id="line2d_36">
     <path d="M 242.532813 187.019688 
L 252.532813 187.019688 
L 262.532812 187.019688 
" style="fill: none; stroke: #1f77b4; stroke-width: 0.5; stroke-linecap: square"/>
    </g>
    <g id="text_27">
     <!-- command-r-v01 -->
     <g style="fill: #1f77b4" transform="translate(270.532812 190.519688) scale(0.1 -0.1)">
      <defs>
       <path id="Montserrat-Regular-76" d="M 3462 3366 
L 1965 0 
L 1498 0 
L 6 3366 
L 480 3366 
L 1741 499 
L 3014 3366 
L 3462 3366 
z
" transform="scale(0.015625)"/>
      </defs>
      <use xlink:href="#Montserrat-Regular-63"/>
      <use xlink:href="#Montserrat-Regular-6f" x="56.299988"/>
      <use xlink:href="#Montserrat-Regular-6d" x="118.999985"/>
      <use xlink:href="#Montserrat-Regular-6d" x="225.099976"/>
      <use xlink:href="#Montserrat-Regular-61" x="331.199966"/>
      <use xlink:href="#Montserrat-Regular-6e" x="390.199951"/>
      <use xlink:href="#Montserrat-Regular-64" x="457.899933"/>
      <use xlink:href="#Montserrat-Regular-2d" x="525.699921"/>
      <use xlink:href="#Montserrat-Regular-72" x="563.899918"/>
      <use xlink:href="#Montserrat-Regular-2d" x="603.999908"/>
      <use xlink:href="#Montserrat-Regular-76" x="642.199905"/>
      <use xlink:href="#Montserrat-Regular-30" x="696.399902"/>
      <use xlink:href="#Montserrat-Regular-31" x="762.599899"/>
     </g>
    </g>
    <g id="line2d_37">
     <path d="M 242.532813 201.380625 
L 252.532813 201.380625 
L 262.532812 201.380625 
" style="fill: none; stroke-dasharray: 0.5,0.825; stroke-dashoffset: 0; stroke: #ff7f0e; stroke-width: 0.5"/>
    </g>
    <g id="text_28">
     <!-- gpt-3.5-turbo -->
     <g style="fill: #ff7f0e" transform="translate(270.532812 204.880625) scale(0.1 -0.1)">
      <use xlink:href="#Montserrat-Regular-67"/>
      <use xlink:href="#Montserrat-Regular-70" x="68.599991"/>
      <use xlink:href="#Montserrat-Regular-74" x="136.399979"/>
      <use xlink:href="#Montserrat-Regular-2d" x="176.999969"/>
      <use xlink:href="#Montserrat-Regular-33" x="215.199966"/>
      <use xlink:href="#Montserrat-Regular-2e" x="271.59996"/>
      <use xlink:href="#Montserrat-Regular-35" x="292.799957"/>
      <use xlink:href="#Montserrat-Regular-2d" x="349.399948"/>
      <use xlink:href="#Montserrat-Regular-74" x="387.599945"/>
      <use xlink:href="#Montserrat-Regular-75" x="428.199936"/>
      <use xlink:href="#Montserrat-Regular-72" x="495.499924"/>
      <use xlink:href="#Montserrat-Regular-62" x="535.599915"/>
      <use xlink:href="#Montserrat-Regular-6f" x="603.399902"/>
     </g>
    </g>
   </g>
  </g>
 </g>
 <defs>
  <clipPath id="p3f4a6a0093">
   <rect x="54" y="30.24" width="334.8" height="194.04"/>
  </clipPath>
 </defs>
</svg>
