<?xml version="1.0" encoding="UTF-8" standalone="no"?>
<svg
   xmlns:dc="http://purl.org/dc/elements/1.1/"
   xmlns:cc="http://creativecommons.org/ns#"
   xmlns:rdf="http://www.w3.org/1999/02/22-rdf-syntax-ns#"
   xmlns:svg="http://www.w3.org/2000/svg"
   xmlns="http://www.w3.org/2000/svg"
   xmlns:sodipodi="http://sodipodi.sourceforge.net/DTD/sodipodi-0.dtd"
   xmlns:inkscape="http://www.inkscape.org/namespaces/inkscape"
   viewBox="0 0 960 540"
   version="1.1"
   id="svg213"
   sodipodi:docname="dismal-past-model-font.svg"
   inkscape:version="1.0 (4035a4f, 2020-05-01)">
  <metadata
     id="metadata217">
    <rdf:RDF>
      <cc:Work
         rdf:about="">
        <dc:format>image/svg+xml</dc:format>
        <dc:type
           rdf:resource="http://purl.org/dc/dcmitype/StillImage" />
        <dc:title></dc:title>
      </cc:Work>
    </rdf:RDF>
  </metadata>
  <sodipodi:namedview
     inkscape:document-rotation="0"
     pagecolor="#ffffff"
     bordercolor="#666666"
     borderopacity="1"
     objecttolerance="10"
     gridtolerance="10"
     guidetolerance="10"
     inkscape:pageopacity="0"
     inkscape:pageshadow="2"
     inkscape:window-width="1567"
     inkscape:window-height="766"
     id="namedview215"
     showgrid="false"
     inkscape:zoom="0.72234701"
     inkscape:cx="318.54138"
     inkscape:cy="270"
     inkscape:window-x="1192"
     inkscape:window-y="422"
     inkscape:window-maximized="0"
     inkscape:current-layer="svg213" />
  <defs
     id="defs175">
    <clipPath
       id="a">
      <path
         d="M0 0h959.76v540H0Zm0 0"
         id="path172" />
    </clipPath>
  </defs>
  <g
     clip-path="url(#a)"
     id="g179">
    <path
       style="stroke:none;fill-rule:nonzero;fill:#fff;fill-opacity:1"
       d="M0 0h959.76v540H0Zm0 0"
       id="path177" />
  </g>
  <path
     style="fill:#fff;fill-opacity:1;stroke:none"
     d="M0 0h960v540H0z"
     id="path181" />
  <path
     style="stroke:none;fill-rule:nonzero;fill:#000;fill-opacity:1"
     d="m148.37 70.74-.5.2.26-.06-.29.01a.83.83 0 0 0-.47.18l-.25.2.44-.19-.14.02-.38.13-.19.11.4-.13-.17.02a.97.97 0 0 0-.87.83l-.03.22a1 1 0 0 0 1.92.53l.02-.04.07-.27.02-.17-.53.78.18-.1c.16-.1.3-.22.4-.38l.18-.3-.17.2.33-.32c.1-.1.19-.24.24-.37l.2-.48-.18.3.38-.48.05-.06.35-.5-.14.17.5-.48-.14.11.66-.47.22-.2.54-.64-.1.1.7-.65.68-.64-.11.1.68-.5-.08.05.8-.49.08-.06.66-.48.87-.65.03-.02.83-.65.04-.04.76-.65-.14.1.81-.51.17-.13.6-.54.04-.04.65-.66-.04.04.6-.54.03-.04.65-.65.02-.02.53-.56-.13.11.65-.51.04-.03.56-.5h.02l.48-.44-.1.08.48-.35.17-.15.34-.37-.3.23.32-.17c.16-.1.3-.22.4-.38l.16-.23-.42.37.34-.18-.06.03.08-.03.04-.03.46-.23-.4.12h.05l-.31-.02.25.05-.53-.28.17.16-.01-.01.07.07-.2-.27.18.34-.1-.28.06.31v-.05l.07.51.04.18.16.47-.04-.17.07.48.04.2.19.5.05.13.25.47-.06-.14.17.48.07.15.26.46-.05-.11.2.5.07.16.3.46.18.2.5.4.07.06.49.32.06.04.5.26.2.07.5.12.11.01.49.04-.16-.03.49.15.17.03.51.02h1l-.2-.03.7.23.76.25a.68.68 0 0 0 .43-1.28l-.77-.26-.72-.22-.2-.04h-.97l.12.01-.5-.09.14.04-.48-.19-.15-.04-.48-.08.12.03-.5-.16.18.08-.47-.3.04.03-.46-.36.06.06-.47-.44.17.22-.26-.5.07.17-.15-.51-.02-.08-.19-.5.04.12-.12-.49-.05-.14-.2-.5.03.1-.16-.52.04.2-.04-.48-.03-.16-.12-.48.02.17-.03-.5-.01-.1-.06-.31-.09-.3-.17-.33.03.06-.03-.1-.22-.33-.17-.17a1.13 1.13 0 0 0-.52-.31l-.26-.06-.16-.03h-.06c-.2-.02-.4.01-.57.1l-.46.22.25-.08-.1.02-.22.08-.35.16c-.14.06-.27.16-.37.28l-.19.22.33-.27-.32.17-.3.23-.33.37.19-.17-.49.34-.1.07-.49.42h.02l-.57.47.03-.03-.66.5-.09.08-.55.52-.02.02-.66.66.05-.05-.6.54-.04.04-.66.65.05-.04-.6.53.18-.13-.83.5-.15.11-.77.65.03-.02-.82.66.03-.03-.88.66h.01l-.65.47.09-.06-.8.48-.11.08-.67.52-.11.1-.68.66-.67.65-.09.1-.53.66.2-.2-.64.5-.14.11-.47.5-.15.18-.32.52.04-.06-.36.5-.16.32-.15.48.21-.38-.3.35-.14.22-.15.32.3-.37-.17.13c-.29.23-.44.6-.4.96l.03.17.08.27.02.04a1 1 0 0 0 1.91-.53l-.02-.22-.46.96.15-.09.2-.17.15-.16-.12.11.12-.09.15-.16.2-.25-.37.27.27-.1.1-.04.47-.26c.36-.2.5-.65.3-1a.74.74 0 0 0-.93-.34Zm0 0"
     id="path183" />
  <path
     style="stroke:none;fill-rule:nonzero;fill:#000;fill-opacity:1"
     d="m165.03 59.93-.11-.32.04.3.01-.22a.9.9 0 0 0-.22-.62l-.2-.23.12 1.07.03-.04.1-.34.03-.23a1 1 0 1 0-1.38.8l.05.02.26.08.17.02-.61-.3.24.24.17.14.5.33-.04-.02.65.46-.03-.02.64.5-.02-.03.8.67-.1-.1.65.67h-.01l.79.83.03.02.67.66.04.04.79.71-.06-.06.65.67.24.19.89.53-.34-.3.54.7.28.27.7.48-.07-.06.67.54-.06-.05.68.62.08.08.68.5-.17-.15.54.63.1.1.54.47.02.02.52.43-.02-.01.54.47.02.02.28.23.2.12.47.2.3.05h.76c.42 0 .77-.34.76-.76a.76.76 0 0 0-.76-.77h-.77l.4.1-.45-.25.22.18-.23-.28-.02-.02-.47-.54v.02l-.43-.52.05.06-.4-.59h-.01l-.48-.67-.15-.18-.63-.56.07.06-.63-.67-.05-.06-.63-.59-.14-.12-.71-.48.27.26-.54-.7a1.2 1.2 0 0 0-.3-.29l-.87-.55.19.15-.66-.64-.04-.04-.8-.7.03.02-.7-.65.04.04-.8-.82-.02-.02-.66-.64-.1-.08-.83-.64-.03-.02-.66-.47-.03-.02-.66-.44-.08-.05-.52-.29.14.09-.27-.21c-.22-.17-.5-.25-.78-.21l-.17.02-.26.07-.05.02a1 1 0 0 0-.6 1.04l.02.23.11.34.02.04c.08.14.18.26.31.34l.25.17-.28-.3.1.19.21.24.26.2a.75.75 0 0 0 1.18-.82ZM164.57 62.6c-.25-1.37-.8-1.48-1.22-1.21l-.42 1.18-.02 1.09-.03 1.41-.01 1.02v5.32l-.01 1.29-.02 1.16v1.28l-.02 1.17-.01 1.24v1.2L162.8 80v2.24l.01 1.47v1.47l.01 1.44v1.48l-.02 1.46v1.19l-.01 1.29v2.91l-.02 1.47v3.6l-.01 1.3v6.39l-.01 1.29v1.15l-.01 1.47-.02 1.47V118l-.03 1.46v1l-.03 1.48.23 1.35.25 1.08v5.39l-.01 1.47V136.63l-.02 1.46v1.3l-.01 1.17-.27 1.04-.21 1.38-.01 1.01-.27 1.14-.22 1.3-.01 1.52v1.2l-.02 1.2-.01 1.04v2.24l-.01 1.13v1.16l-.03 1.07-.54 1.34-.02 1.33-.02 1.47.01 1.01v1.33l.02 1.12.04 1.47v2.38l-.04 1-.03 1.48-.02 1.32V176.35l.25 1.42.27 1.04v1.47l-.03 1.23-.01 1.37-.01 1.48V187.18l-.04 1.06-.23 1.4-.23 1.48v1.6l-.01 1.76V198.33l-.01 1.76-.13 1.32-.32 1.34-.05 1.2v1.47l-.01 1.47V214.64l.01 1.59v1.44l.01 1.47V235.44l.01 1.73v1.58l-.01 1.6v1.52l-.19 1.08-.07 1.2-.22 1.66V278.65l.01 1.55-.14 1.5-.31 1.55-.02 1.1v1.8l-.2 1.32-.22 1.48-.09 1.02v12.09l-.1 1.46-.34 1.71-.02 1.68v10.11l.01 1.01.01 1.08.01 2.06.01 1.75v1.62l.03 1.49.01 1.24.2 1 .3 1.44v1.42l-.02 1.85v2.17l-.02 1.97v3.77l-.01 1.56V347.1l.01 1.47.07 1.57.24 1.51.2 1 .03 1.31.09 1 .18 1.58.2 1 .38 1.83.16 1.45.01 1.48v15.02l.2 1.07.31 1.49-.03 1.15.01 1.37.01 1.3.01 1.06v1.18l.02 1.2.02 1.47v4.41l-.01 1.44v2.95l-.01 1.47-.01 1.46-.26 1.07-.25 1.39v8.5l-.01 1.3-.02 1.47c0 1.14.02 1.29.07 1.43l.45 1.4.41 1.07c.12.59.28.92.55 1.15.2.8.25.98.34 1.14.02.8.48 1.2 1.01 1.16l.9-1.02c0-1.47-.43-1.9-.96-1.9l-.97 1.48c0 1.01.43 1.45.97 1.45l.98-1.13.19-1.33-.46-1.12-.3-1.2-.32-1.05-.27-1.04-.01-1.45-.02-1.17v-8.64l.1-1.05.32-1.08.03-1.32v-1.45l-.01-1.47v-2.95l-.01-1.47-.01-1.49V388.13l.03-1.52v-1.21l.02-1.2v-1.16l.02-1.34v-1.26l-.03-1.1-.3-1.46-.15-1.53V361.48l.01-1.48-.19-1.08-.14-1-.38-1.73-.17-1.68-.04-1.37-.07-1.03-.2-1.49-.22-1.49.01-1.38v-2.95l.01-1.52v-3.21l-.01-1.96v-1.96l-.01-1-.01-1.04v-1.13l-.01-1.85v-1.63l-.15-1.09-.36-1.46.06-1.75.01-1.48v-1.79l.02-1.84.02-2.06v-11.95l.16-1.28.32-1.66.03-1.08v-11.01l.05-1.7.23-1.46.23-1.64v-2.73l.3-1.27.2-1.22v-30.68l.01-1.9v-1.73l.06-1.6.2-1.75.22-1.39v-3.23l-.01-1.59V219.14l.01-1.47v-1.44l.01-1.59v-3.23l.02-1.56v-2.95l-.01-1.48-.01-1.48.12-1.1.33-1.67.02-1.08v-1.76l-.01-1.9v-1.95l-.01-1.77v-1.5l.17-1.1.23-1.36.1-1.57.01-1.38V182.87l-.02-1.36-.02-1.22-.01-1.49-.24-1.45-.26-1v-4.09l-.02-1.33-.02-1-.04-1.49-.01-1.24v-1.14l.02-1.12.03-1.17.01-1.15V160.15l-.02-1.45c.35-.66.5-1 .48-1.36l-.02-1.28-.02-1.3v-3.37l-.02-1.04-.01-1.2v-1.2l-.01-1.04.1-1.03.3-1 .07-1.4.02-1.1c.42-.86.45-1 .45-1.15v-2.66l-.02-1.44v-6.86l-.02-1.48v-4.42l-.19-1.3-.36-1.04.05-1.1v-1.46l-.03-1.14v-3.76l-.02-1.48v-1.47l-.02-1.48V109l-.01-1.29V101.33l-.01-1.14V96.43l-.01-1.48v-2.92l-.02-1.28v-1.18l-.02-1.5V84.19l.01-1.47v-5.18l-.01-1.2-.02-1.2V73.9l-.02-1.2-.01-1.26v-5.34l-.01-1.02-.03-1.23-.02-1.27c-.05-.97-.46-1.35-.95-1.33-.84 1.22-.69 1.48-.45 1.63.87.48 1.2.17 1.22-.24ZM796.12 312.14l-.23.23.3-.18-.4.12a.7.7 0 0 0-.42.36l-.16.33.21-.26-.4.3a.72.72 0 0 0-.28.48l-.06.48.14-.35-.43.56-.07.11-.35.65-.04.09-.2.54.04-.09-.46.88v.02l-.33.65.04-.07-.51.81.11-.13-.66.65-.08.1-.6.84.08-.1-.83.81h.01l-.8.75.05-.04-1 .82.02-.02-.83.65-.07.06-.84.81.1-.08-.82.59.02-.02-.97.65-.03.02-.95.7h-.01l-.84.64-.91.7-.83.65h.01l-.71.53-.1.08-.64.66.08-.08-.7.55-.02.01-.64.52.17-.1-.65.32-.19.12-.44.38.07-.05-.5.33-.46.33-.06.05-.27.24.41-.18-.2.02a.7.7 0 0 0-.63.76.7.7 0 0 0 1.4-.06v-1.47a.7.7 0 0 0-1.41 0v1.47c0 .36.28.67.65.7l.2.02a.7.7 0 0 0 .48-.14l.3-.2-.12.06.5-.24.04-.02.52-.29h.01l.52-.3-.07.04.66-.3.16-.1.66-.5h-.01l.71-.52.1-.1.66-.64-.1.08.71-.54.02-.02.82-.66.9-.7.01-.02.8-.66v.01l.92-.72-.04.03.96-.66.02-.01.82-.61.1-.09.8-.83-.06.06.81-.66h.01l.99-.83.05-.05.78-.76.02-.02.8-.83.1-.1.58-.86-.09.1.65-.65.11-.14.5-.82.05-.08.3-.65v.02l.44-.88.04-.08.2-.55-.04.1.33-.66-.06.1.42-.58.13-.35.05-.49-.26.49.4-.32.21-.31.12-.35-.47.44.4-.11.17-.07.28-.16c.35-.2.47-.66.27-1.01a.74.74 0 0 0-1.02-.27.81.81 0 0 0-.15.12Zm0 0"
     id="path185" />
  <path
     style="fill:#000000;fill-opacity:1;fill-rule:nonzero;stroke:none"
     d="m 774.16,295.07 0.25,-0.23 0.2,-0.33 0.09,-0.22 -0.86,0.58 0.45,0.02 -0.53,-0.21 0.3,0.25 0.15,0.1 0.65,0.36 -0.27,-0.22 0.74,0.87 0.1,0.1 0.97,0.85 -0.17,-0.18 1,1.44 0.06,0.09 1.14,1.3 v 0.02 l 1.28,1.42 0.1,0.1 1.47,1.25 -0.04,-0.04 1.44,1.37 0.1,0.08 1.5,1.12 -0.07,-0.06 1.26,1.14 0.1,0.08 1.4,0.98 -0.1,-0.07 1.06,0.95 0.1,0.08 1.19,0.82 -0.07,-0.05 0.99,0.83 0.1,0.07 0.97,0.6 -0.12,-0.08 0.85,0.73 0.06,0.04 0.85,0.62 -0.06,-0.04 0.61,0.52 -0.03,-0.03 0.67,0.63 0.23,0.16 0.74,0.33 0.06,0.03 0.67,0.24 0.14,0.04 0.7,0.12 -0.06,-0.02 0.65,0.17 -0.12,-0.04 0.57,0.25 0.03,0.02 0.7,0.28 c 0.38,0.15 0.8,-0.03 0.96,-0.4 0.15791,-0.37555 -0.0221,-0.80768 -0.4,-0.96 l -0.72,-0.28 0.03,0.01 -0.57,-0.26 -0.11,-0.04 -0.65,-0.17 h -0.07 l -0.71,-0.12 0.26,0.1 -0.62,-0.38 0.04,0.02 -0.67,-0.45 0.14,0.12 -0.63,-0.67 -0.03,-0.03 -0.58,-0.55 -0.04,-0.03 -0.79,-0.69 0.06,0.05 -0.8,-0.8 -0.18,-0.14 -0.97,-0.6 0.11,0.08 -1,-0.81 -0.06,-0.05 -1.19,-0.83 0.11,0.1 -1.04,-0.98 -0.1,-0.08 -1.38,-1 0.08,0.06 -1.29,-1.13 -0.01,-0.01 -1.44,-1.2 0.04,0.03 -1.45,-1.35 -0.04,-0.03 -1.48,-1.25 0.1,0.1 -1.28,-1.41 0.02,0.01 -1.14,-1.3 0.05,0.06 -1.06,-1.4 -0.18,-0.18 -1.01,-0.8 0.1,0.1 -0.8,-0.83 -0.24,-0.18 -0.66,-0.33 0.07,0.03 -0.33,-0.2 c -0.14991,-0.0924 -0.32408,-0.13767 -0.5,-0.13 l -0.46,0.02 c -0.40887,0.0247 -0.74359,0.33429 -0.8,0.74 l -0.04,0.23 0.06,-0.22 -0.14,0.3 c -0.38687,0.7848 0.6269,1.50425 1.24,0.88 z"
     id="path187"
     sodipodi:nodetypes="cccccccccccccccccccccccccccccccccccccccccccccccccccccccccccccccccccccccccccccccccccccccccccccccccccccccccccccccscccccc" />
  <path
     style="fill:#004f8b;fill-opacity:1;fill-rule:nonzero;stroke:none"
     d="m 310.16,295.2 0.9,1 c -0.88,-0.34 -0.77,0.3 -0.3,0.63 0.46,0.33 1.1,0.22 1.44,-0.24 l 0.21,-1.05 0.05,-1.15 c 0.04,-0.8 -0.03,-1.02 -0.16,-1.21 l -0.76,-1.23 -1.14,-0.82 -1.06,-0.52 -1.18,-0.46 -1.18,-0.3 -1.06,-0.29 -1.17,-0.5 -1.3,-0.43 -1.13,-0.32 -1.3,-0.3 -1.43,-0.24 -1.04,-0.45 -1.17,-0.3 -1.26,-0.78 -1.1,-0.52 -1.4,-0.42 c -0.39252,-0.18327 -0.80086,-0.33054 -1.22,-0.44 l -1.12,-0.09 -1.48,-0.02 h -1.14 l -1.14,-0.45 -1.18,-0.06 h -1.46 c -1.11,-0.45 -1.27,-0.49 -1.44,-0.49 l -1.46,-0.02 -1,-0.4 -1.48,-0.1 h -10.78 l -1.3,-0.04 -1,-0.23 -1.05,-0.2 -1.4,-0.3 -1.57,-0.22 h -13.95 l -1.31,0.43 -1.48,0.1 h -5.2 l -1.04,-0.29 -1.54,-0.21 h -2.72 l -1.56,0.39 c -0.82,0.12 -0.96,0.14 -1.1,0.18 l -1.03,0.35 -1.01,0.1 h -1.13 l -1.31,0.01 h -1.46 l -1.56,0.27 -1.6,0.6 -1.48,0.77 -1.7,0.56 -1.73,0.63 -1.7,0.74 -1.73,0.63 -1.31,0.21 h -4.84 l -1.01,0.34 -1.4,0.44 -1.04,0.25 -1.4,0.41 -1.35,0.45 -1.12,0.5 -1.07,0.43 -1.43,0.43 -1.4,0.52 -1.15,0.28 c -1.22,0.29 -1.6,0.56 -1.79,0.96 l 1.07,-0.52 c -0.57,0 -0.8,0.07 -1,0.19 l -1.1,0.96 1.14,-0.65 -1.09,0.2 -1.2,0.57 -1.32,0.77 -1.1,1.25 -0.93,1.16 c 0.16,-0.6 -0.12,-0.38 -0.3,-0.1 l -1.2,0.15 c -1.03,0.22 -1.27,0.33 -1.47,0.5 l -1.2,0.28 -1.07,0.8 -1.13,0.58 -1.17,0.8 c -0.91,0.21 -1.06,0.26 -1.18,0.33 l -1.36,0.72 c -0.62,0.17 -0.92,0.34 -1.13,0.59 l -0.97,1.07 -1.04,1.2 c 0.09,-0.65 -0.29,-0.31 -0.43,0.14 l -0.6,1.02 -0.79,1.12 c -0.83,0.96 -0.93,1.14 -0.99,1.35 -0.7,0.61 -0.86,0.98 -0.86,1.35 l -0.47,1.33 -0.65,1.04 -0.56,1.15 c -0.42,0.84 -0.47,1 -0.49,1.15 l -0.55,1.25 -0.59,1.03 -0.29,1.13 -0.31,1.31 v 3.7 l -0.01,1.3 v 1.47 l -0.01,1.14 v 2.43 c 0.03,1.06 0.08,1.21 0.15,1.36 l 0.4,1.11 -0.01,1.03 c 0.19,0.78 0.24,0.97 0.33,1.14 l 0.75,1.18 0.83,1.22 1.1,1.18 1.29,1.04 1.42,1.31 1.03,0.86 c 0.53,0.58 0.77,0.72 1.03,0.78 l 1.48,0.55 1.41,0.42 1.28,0.4 1.07,0.4 1.15,0.34 1.08,0.48 1.36,0.5 1.35,0.81 1.5,0.65 1.1,0.62 1.48,0.59 1.15,0.28 1.36,0.48 1.05,0.47 1.56,0.47 1.15,0.35 1.2,0.3 1.1,0.07 h 6.16 l 1.33,0.48 1.56,0.3 1.58,0.27 1.08,0.16 1.83,0.2 1.04,0.13 1.07,0.18 1.84,0.2 1.11,0.06 h 6.72 l 1.02,-0.06 1.82,-0.26 1.28,-0.4 1.92,-0.48 1.96,-0.24 1.09,-0.2 1.1,-0.16 1.18,-0.18 2.1,0.02 1.87,0.05 1.9,0.22 1.5,0.33 1.59,0.34 1.13,0.03 1.19,0.28 1.75,0.2 h 1.48 l 1.78,0.02 1.15,-0.2 1.8,-0.3 h 1.17 l 1.02,-0.18 1.06,-0.18 1.32,-0.14 h 5.3 l 1.26,0.3 1.77,0.2 h 3.3 l 1.32,0.28 1.04,0.17 1.37,0.02 h 4.54 l 1.15,-0.06 1.27,-0.18 1,-0.06 1.14,-0.14 1.03,-0.11 1.05,-0.19 1.96,-0.23 1.74,-0.03 h 7.68 l 1.3,0.01 h 2.21 l 1.2,-0.15 1.86,-0.43 1.26,-0.22 1.16,-0.49 1.25,-0.56 1,-0.54 1.08,-0.53 1.02,-0.43 1.1,-0.37 1.3,-0.58 1.23,-0.44 1.36,-0.41 1.06,-0.51 1.12,-0.74 1.24,-0.68 1.32,-0.97 1.05,-0.83 1.08,-0.85 0.95,-1.11 0.89,-1.15 1.13,-0.9 1.27,-0.81 1.13,-0.89 1.04,-1.2 0.6,-1.02 0.6,-1.26 0.4,-1.04 0.43,-1.25 0.3,-1.3 0.22,-1.18 0.23,-1.21 v -4.31 L 332.35,319 v -1.47 l -0.05,-1.32 -0.35,-1.3 -0.52,-1.25 -0.45,-1.32 -0.83,-1.4 -1.17,-1.23 -1.45,-1.47 -1.02,-1.03 -1.3,-1.08 -1.21,-0.97 -1.24,-1 -1.18,-0.96 -1.25,-1 -1.17,-0.97 -1.29,-1 -1.42,-0.8 -1.5,-0.93 -1.32,-0.77 -1.28,-1.3 -0.82,-1.2 -1,-0.94 c -0.5,-0.6 -0.77,-0.81 -1.1,-0.9 l -1.09,-0.11 -1.04,0.12 -1.25,0.44 -1.08,1.03 -0.54,1.01 c -0.45,1.23 -0.22,1.73 0.24,1.9 0.45538,0.16235 0.95709,-0.0685 1.13,-0.52 l 0.64,-1.33 1.34,-0.24 c 1.07,0.97 1.2,1.1 1.37,1.2 l 1,1.3 1.2,1.24 1.3,1.1 1.32,0.77 1.2,0.69 1.1,0.6 1.1,0.86 1.22,0.96 1.23,0.98 1.18,0.95 1.27,1 1.17,0.94 1.23,0.99 1.44,1.41 1.46,1.46 0.97,1.26 0.37,1.28 0.48,1.17 0.24,1.05 -0.04,1.14 v 2.92 l -0.01,1.46 v 1.54 l -0.06,1.31 -0.32,1.18 -0.34,1.22 -0.34,1.08 -0.43,1.07 -0.3,1.15 -1.3,1.3 -1.3,0.98 -1.3,0.85 c -1.15,1.1 -1.28,1.26 -1.37,1.44 l -1,1.24 -1.17,0.98 -1.56,1.22 -1.1,0.76 -1.19,0.62 -1.15,0.76 -1.08,0.3 -1.05,0.47 -1.08,0.36 -1.28,0.55 -1.17,0.45 c -1.1,0.3 -1.34,0.44 -1.52,0.63 l -1.05,0.63 -1.16,0.43 -1.27,0.4 -1.74,0.42 -1.66,0.28 h -12.07 l -1.15,0.08 -1.8,0.21 -1.12,0.19 -2.11,0.24 -1.1,0.06 -1.12,0.17 -2.03,0.04 h -4.52 l -1.52,-0.32 -1.07,-0.17 h -3.3 l -1.11,-0.13 -1.61,-0.36 -1.13,-0.03 h -5.3 l -1.1,0.2 -1.95,0.32 h -1.15 l -1.87,0.32 -1.6,0.15 h -1.63 l -1.48,0.01 -1.18,-0.3 -1.76,-0.18 -1.26,-0.32 -1.82,-0.38 -1.09,-0.08 -1.96,-0.23 h -3.34 l -1.4,0.18 -1.16,0.17 -1.09,0.2 -1.1,0.17 -1.24,0.16 -1.77,0.43 -1.21,0.4 -1.52,0.2 -1.5,0.03 h -5.82 l -1.78,-0.18 -1.08,-0.07 -1.87,-0.27 -1.08,-0.18 -1.83,-0.18 -1.57,-0.27 -1.17,-0.2 -1.25,-0.37 -1.55,-0.21 h -6.18 l -1.46,-0.47 -1.57,-0.34 -1.4,-0.68 -1.1,-0.28 -1.46,-0.5 -1.3,-0.56 -1.12,-0.6 -1.09,-0.47 -1.38,-0.71 -1.48,-0.59 -1.25,-0.49 -1.04,-0.43 -1.36,-0.51 -1.22,-0.43 -1.33,-0.28 -1.06,-0.42 -1.04,-0.71 -1.27,-1 -1.43,-1.3 -1.3,-1.17 c -0.69,-0.98 -0.78,-1.14 -0.9,-1.27 -0.58,-1.08 -0.63,-1.26 -0.73,-1.44 l -0.1,-1.05 c -0.0926,-0.46109 -0.22645,-0.91291 -0.4,-1.35 l -0.06,-1 v -2.29 l -0.01,-1.3 v -1.48 L 171,321.29 v -2.43 l 0.02,-1.05 0.4,-1.1 0.53,-1.2 0.3,-1.28 c 0.14,0.5 0.37,0.15 0.41,-0.24 l 0.42,-1.12 0.56,-1.15 0.53,-1.33 c 0.6,-0.84 0.73,-1.17 0.74,-1.5 l 0.78,-1.04 1.01,-0.95 0.71,-1.25 0.66,-1.18 c -0.46,0.8 -0.23,0.67 -0.05,0.49 l 0.59,-1.1 -0.99,1.01 1.06,-0.58 c 0.75,-0.7 0.9,-0.81 1,-0.95 l 1.11,-0.55 1.12,-0.46 1.2,-0.69 c 0.8,-0.26 1.03,-0.38 1.2,-0.54 1,-0.52 1.18,-0.66 1.31,-0.84 l 1.17,-0.53 1.2,-0.56 c 1.01,0.08 1.2,0.04 1.38,-0.04 0.99,-0.21 1.35,-0.44 1.56,-0.8 l 0.88,-1 1.06,-1.11 1.16,-0.57 c 1.3,-0.35 1.73,-0.6 1.96,-1.01 0.34,0.2 0.8,-0.07 1.03,-0.51 0.82,0.16 0.96,0.11 1.1,0.04 l 1.02,-0.34 1.52,-0.6 1.31,-0.3 1.3,-0.58 1.2,-0.45 1.46,-0.54 1.4,-0.27 c 0.78,-0.1 1,-0.15 1.19,-0.24 l 1,-0.51 1.34,0.14 h 2.41 l 1.06,-0.06 1.47,-0.26 1.15,-0.43 1.73,-0.56 1,-0.5 1.41,-0.5 1.03,-0.36 1.7,-0.62 1.47,-0.77 1.07,-0.3 1.16,-0.01 h 2.12 l 1.3,0.02 1.47,-0.24 1.02,-0.23 1.55,-0.38 1.54,-0.12 h 1.36 l 1.52,0.3 1.06,0.2 h 2.55 l 1.19,0.01 h 1.46 l 1,0.01 c 0.9,0 1.14,-0.06 1.36,-0.17 l 1.09,-0.49 1.3,0.16 h 12.64 l 1.29,0.44 1.35,0.1 1.07,0.3 1.45,0.15 h 6.07 l 1.35,0.01 h 3.39 l 1.47,-0.02 1.02,0.4 1.44,0.06 1.04,0.27 1.4,0.2 h 1.46 l 1.28,0.28 1.16,0.24 1.02,-0.01 1.48,-0.03 1.07,0.22 1.07,0.4 1.3,0.53 1.2,0.67 1.24,0.4 1.05,0.43 1.38,0.2 c 1.15,0.5 1.3,0.52 1.47,0.52 l 1.23,0.21 1.29,0.38 1.48,0.56 1.4,0.22 1.05,0.34 c 0.55,0.2 0.78,0.3 1.02,0.32 l 1.19,0.5 0.03,1.05 0.04,1 c 0.05,1.08 0.54,1.52 1.1,1.49 0.57,-0.03 1.01,-0.51 0.98,-1.08 -0.2,-1 -0.62,-1.36 -1.1,-1.33 0.41,0.2 0.19,-0.2 -0.2,-0.32 z"
     id="path193"
     sodipodi:nodetypes="ccccccccccccccccccccccccccccccccccccccccccccccccccccccccccccccccccccccccccccccccccccccccccccccccccccccccccccccccccccccccccccccccccccccccccccccccccccccccccccccccccccccccccccccccccccccccccccccccccccccccccccccccccccccccccccccccccccccccccccccccccccccccccccccccccccccccccccccccccccccccccccccccccccccccccccccccccccccccccccccccccccccccccccccccccccccccccccccccccccccccccccccccccccccccccccccccccccccccccccccccccccccccccccccccccccccccccccccccccccccccccccccccccccccccccccccccccccccccccccccccccccccccccccccccccccccc" />
  <path
     style="fill:#000000;fill-opacity:1;fill-rule:nonzero;stroke:none"
     d="m 165,322.07 -1.1,-0.8 1.1,0.95 c 0.72,0 0.9,-0.06 1.04,-0.18 l 1.19,-0.33 1.15,-0.26 1.35,-0.2 h 1.45 l 1.33,-0.01 h 1.14 l 1.47,-0.01 h 14.2 l 1.28,-0.05 1.5,-0.48 1.36,0.06 h 20.1 l 1.05,0.3 1.47,0.19 h 19.39 l 1.1,-0.03 1.56,-0.23 1.73,-0.23 1.87,0.01 1.01,-0.02 1.55,-0.27 1.64,-0.2 h 5.81 l 1.58,0.01 1.73,0.01 h 16.36 l 1.87,-0.35 2.04,-0.16 h 3.23 l 1.96,0.01 h 10.52 l 1.85,-0.15 1,-0.18 1.83,-0.16 h 9.15 l 1.1,-0.2 1.62,-0.3 1.56,0.01 h 8.14 l 2,0.16 1.16,0.15 1.11,0.17 h 5.54 l 1.82,0.2 1.73,0.2 1.02,0.07 h 6.54 l 1.26,-0.21 1,-0.06 1.15,-0.23 2.34,0.02 h 2.25 l 1.15,-0.25 1.9,-0.18 1.84,-0.05 h 17.49 l 1.23,-0.05 1.21,-0.18 1.05,-0.05 1.14,-0.17 1.9,-0.05 h 11.28 l 1.49,-0.03 1.54,-0.17 1.25,-0.06 1.37,-0.18 1.05,-0.05 h 14.53 l 1.65,-0.03 h 5.32 l 1.4,-0.06 1.23,-0.17 1.27,-0.02 1.37,-0.24 1.34,0.01 h 3.14 l 1.64,-0.23 1.62,-0.04 1.53,-0.18 1.38,-0.02 h 4.89 l 2.17,0.01 1.05,0.01 h 25.43 l 1.23,-0.18 1.28,-0.17 1.3,-0.17 h 1.16 l 1.36,0.01 h 4.67 l 1.92,-0.21 1.57,-0.3 1.38,-0.03 1.62,-0.22 1.1,-0.21 1.8,0.01 1,-0.05 1.08,-0.18 1.96,-0.23 2.05,-0.04 h 4.96 l 1.08,-0.21 1.52,-0.22 1.54,-0.04 1.78,-0.24 1.97,-0.18 2.06,-0.04 h 2.24 l 1.23,-0.19 1.29,-0.16 1.28,-0.14 h 6.77 l 1.15,-0.25 2.12,-0.21 1.07,-0.11 1.3,-0.15 1.09,-0.04 1.37,-0.18 1.24,-0.05 h 1.44 l 1.72,-0.18 1.65,-0.16 1.6,-0.14 h 3.87 l 1.36,-0.18 1.14,-0.17 1.06,-0.17 h 4.49 l 1.25,-0.01 h 8.02 l 1.04,0.21 1.19,0.07 1.98,0.22 h 2.96 l 1.82,0.05 1.84,0.2 1.1,0.22 1.2,0.02 h 21.23 l 1.06,0.05 1.25,0.16 1.13,0.06 1.1,0.2 h 14.36 l 1.2,0.01 h 3.47 l 1.43,-0.02 h 11.54 l 1.09,-0.06 1.18,-0.15 1.2,-0.05 1.41,-0.24 1.18,0.01 h 4.25 l 1.44,0.01 1.48,0.01 h 13.72 l 1.53,0.01 h 11.17 l 1.39,-0.23 1.02,-0.06 1.42,-0.2 h 7.99 l 1.5,-0.05 1.54,-0.18 1.36,-0.05 1.37,-0.18 1.3,-0.05 h 7.81 l 1.32,-0.01 h 7.33 l 1.55,-0.15 1.49,-0.17 1.26,-0.17 h 4.74 l 1.23,-0.17 1.26,-0.14 1.33,-0.17 h 4.29 l 1.47,0.02 1.47,0.01 h 37.05 l 1.47,-0.17 1.15,-0.18 1.29,-0.16 h 12.71 l 1.69,-0.33 1.51,-0.15 h 11.28 l 1.2,-0.04 1.18,0.61 1.04,0.27 h 1.02 l 1.18,-0.01 H 796 c 0.83,-1 0.54,-1.28 0.2,-1.28 h -1.48 c -0.65,1 -0.36,1.28 0,1.28 h 1.24 c 0.87,-1 0.59,-1.28 0.24,-1.28 l -1.04,-0.01 h -2.41 l -1.13,-0.49 c -0.59,-0.5 -0.79,-0.6 -1,-0.62 l -1.27,-0.04 h -11.3 l -1.82,0.19 -1.54,0.31 -1.03,-0.01 h -11.62 l -1.41,0.17 -1.15,0.18 -1.34,0.16 H 719.7 l -1.48,0.02 h -4.38 l -1.4,0.18 -1.29,0.14 -1.14,0.18 -1.3,-0.02 h -3.42 l -1.36,0.18 -1.46,0.17 -1.45,0.14 h -7.27 l -1.3,-0.02 h -7.85 l -1.4,0.06 -1.37,0.18 -1.34,0.05 -1.53,0.17 -1.42,0.05 h -8.07 l -1.53,0.2 -1.09,0.06 -1.24,0.23 -2.24,-0.01 h -24.04 l -1.48,0.02 -1.45,0.01 h -5.54 l -1.46,0.24 -1.16,0.04 -1.2,0.15 -1.9,0.05 h -10.58 l -1.4,-0.03 h -6.65 l -1.99,0.02 h -10.29 l -1.07,-0.2 -1.16,-0.06 -1.24,-0.17 -1.17,-0.06 h -1.23 l -1.9,-0.01 h -19.2 l -1.04,-0.2 -1.88,-0.2 -1.98,-0.07 h -1.95 l -1.91,-0.06 -1,-0.17 -1.2,-0.05 -1.1,-0.23 h -6.62 l -1.42,-0.01 h -2.61 l -1.12,-0.02 h -2.27 l -1.04,0.18 -1.12,0.17 -1.24,0.17 -1.2,-0.01 h -2.63 l -1.69,0.14 -1.65,0.17 -1.65,0.18 h -1.39 l -1.34,0.05 -1.37,0.17 -1.07,0.06 -1.35,0.15 -1.1,0.1 -1.18,0.18 -1.1,0.07 -1.78,0.2 h -5.87 l -1.39,0.14 -1.32,0.18 -1.12,0.17 -1.07,-0.01 h -2.19 l -1.06,0.06 -1.22,0.16 -1.74,0.24 -1.42,0.04 -1.1,0.08 -1.42,0.22 -1.02,0.21 -1.59,-0.01 h -4.39 l -1.04,0.06 -1.08,0.18 -1.95,0.23 -1.82,0.04 -1.12,0.02 -1.72,0.24 -1.43,0.23 -1.1,0.03 -1.33,0.26 -1.04,0.21 -1.79,-0.02 h -6.15 l -1.4,0.18 -1.31,0.18 -1.12,0.17 -1.3,-0.01 h -25.07 l -1.19,0.02 h -5.89 l -1.46,0.02 -1.54,0.18 -1.64,0.05 -1.62,0.24 -1.56,-0.01 h -2.95 l -1.38,0.24 -1.24,0.02 -1.26,0.18 -1.28,0.05 h -5.3 l -1.63,-0.02 h -14.58 l -1.15,0.05 -1.36,0.17 -1.24,0.05 -1.53,0.17 -1.4,0.03 H 374.1 l -1.05,0.05 -1.2,0.18 -1.06,0.06 -1.13,0.17 -1.11,0.05 h -3.57 l -1.36,0.01 h -13.56 l -1.03,0.06 -1.9,0.2 -1.11,0.24 -1.02,-0.02 h -3.54 l -1.29,0.25 -2.1,0.25 -1.03,-0.01 h -4.51 l -1.71,-0.06 -1.73,-0.2 -1.96,-0.23 -1.26,-0.01 h -3.21 l -2,-0.16 -1.16,-0.15 -1.14,-0.17 H 307.4 l -1.71,0.32 -2,0.16 h -6.85 l -1.13,-0.01 -1.13,0.01 -1.95,0.34 -1.6,0.12 h -16.9 l -1.12,0.2 -1,0.17 -1.53,0.15 h -16.22 l -1.76,0.01 H 245 l -1.58,0.26 -1.04,0.25 -1.57,-0.02 h -1.04 l -1.01,0.08 -1.65,0.21 -1.63,0.2 h -19.39 l -1.14,-0.16 -1.16,-0.3 -1.58,-0.03 h -4.98 l -1.24,0.01 h -13.72 l -1.3,0.3 -1.15,0.19 H 171.7 l -1.3,-0.02 h -1.18 l -1.1,0.31 -1.03,0.18 -1.04,0.28 -1.01,0.43 -1.06,-0.15 -0.83,1 1.02,0.85 c -0.73,-0.17 -0.6,0.3 -0.22,0.5 0.37,0.2 0.84,0.07 1.05,-0.3 z"
     id="path205"
     sodipodi:nodetypes="cccccccccccccccccccccccccccccccccccccccccccccccccccccccccccccccccccccccccccccccccccccccccccccccccccccccccccccccccccccccccccccccccccccccccccccccccccccccccccccccccccccccccccccccccccccccccccccccccccccccscsccccccccccccccccccccccccccccccccccccccccccccccccccccccccccccccccccccccccccccccccccccccccccccccccccccccccccccccccccccccccccccccccccccccccccccccccccccccccccccccccccccccccccccccccccccccccccccccccccccccccccccccccccc" />
  <path
     style="stroke:none;fill-rule:nonzero;fill:#004f8b;fill-opacity:1"
     d="m331.51 193.75-.48-.02-.28-.02-.43-.01.16.02-.1-.03-.13-.02-.31-.03.09.02-.11-.03-.15-.01-.45-.01h.02l-.26-.01h-.03l-.48-.01h-.51.03l-.32-.02h-.34l.16.01-.31-.06.11.03-.5-.18-.18-.05-.48-.06.15.03-.48-.15-.17-.04-.52-.06h-.58l-.53-.02h-.66l-.2.01-.71.14-.83.17h.03l-.94.16.18-.02H320.12l-.93.04-.12.02-1 .16.12-.01-.97.04-.13.02-1 .2.2-.02-.96-.02-.21.03-1.65.33h-.06l-.76.2h.05l-.82.16h.07l-.88.1-.35.12-.65.34.32-.1-.85.13-.23.07-.83.33.12-.04-.93.26-.07.02-.97.35-.06.02-1 .43.14-.05-1.02.29-.12.04-1.16.48.09-.03-1.08.34.07-.02-1.3.31-.05.01-1.16.34-.07.02-1.3.48-.07.03-1.08.48-1.16.5h.03l-1.19.47h-.02l-1.14.48-.05.03-1.16.56-.13.08-.97.64-.03.03-.82.6-.13.1-.82.83.13-.11-.82.59.03-.02-.97.65-.02.02-1 .7h.03l-.96.65-.02.01-1.16.83.08-.06-1.13.65-.02.01-1.3.8.01-.01-1.16.68-.05.03-1.3.85-.04.03-1.14.82.09-.05-1.3.76-.1.06-1.13.82.07-.04-1.33.82-.13.1-1.14.96.07-.05-1.13.82-.06.04-.99.82-.01.01-.97.82-.05.05-.99.96h.01l-.99.93.04-.04-.97.82v.01l-1.05.9.07-.05-1.13.82-.08.07-1.06.93.02-.02-1.13.96.02-.03-1.19.94.05-.03-1.16.82v-.01l-1.36.93.06-.03-1.3.79-.13.08-1.36 1.1-.03.03-1.31 1.13-.01.02-1.36 1.21-.05.04-1.13 1.14.03-.04-1.16 1.08-.14.15-.97 1.3.07-.08-1 1.1-.02.03-.96 1.13-.03.03-.83 1.05.03-.04-.82.97-.11.15-.6.99.04-.05-.66.96.04-.05-.72.94.02-.02-.65.83-.01.01-.71.93.03-.03-.66.8-.06.08-.6.88.14-.17-.82.83-.07.08-.82.98.08-.08-1 .96-.02.02-.96 1-.04.04-.99 1.13.02-.02-1.02 1.1.04-.04-1.16 1.14-.03.03-1.03 1.08-.02.02-1.16 1.3h.02l-1.03 1.1-.02.02-1 1.13-.01.02-.92 1.1-.03.06-.84 1.12.07-.07-.9 1.01-.12.19-.66 1.16.05-.1-.71 1.02-.02.03-.66.99-.07.14-.55 1.13.04-.07-.65 1.16-.03.05-.6 1.2.04-.07-.66 1.13-.02.03-.56 1.05v-.03l-.64 1.14-.03.06-.6 1.18.03-.04-.66 1.16-.05.09-.54 1.2.05-.11-.64 1.13-.6 1.05-.65 1.13-.02.03-.57 1.05.07-.1-.66.96-.03.05-.7 1.16-.02.02-.66 1.14.02-.04-.7 1.13v-.02l-.64.99-.04.06-.54.94.11-.17-.65.8-.03.03-.7.94v-.02l-.64.82.02-.03-.65.77-.12.17-.48.82.13-.18-.52.6-.05.07-.49.65-.06.1-.42.7-.04.07-.34.64.03-.05-.42.7-.03.07-.34.65.04-.08-.37.6-.09.17-.34.83.03-.07-.37.76-.1.28-.17.82.07-.2-.37.9-.34.82-.05.15-.23.88-.02.1-.15.81.02-.1-.22.86-.18.65v.03l-.2.82v-.02l-.17.65-.03.2-.06.65.06-.28-.17.51-.06.27-.05.48v.62l.06-.39-.17.52v.03l-.14.48.02-.06-.18.48-.05.24-.06.43.12-.38-.17.34-.1.31-.06.29.42-.7-.17.13c-.14.12-.25.26-.33.42l-.03.06c-.07.16-.1.33-.1.51v.45-.04.47l.7-1.1-.24.1a1.2 1.2 0 0 0-.67.8l-.06.24 1.18-.91H206c-.66 0-1.2.51-1.22 1.17V308.28v-.01.17l.67-1.1-.16.09c-.27.13-.49.36-.6.63l-.14.34.06-.12-.17.31-.04.09-.23.51-.1.35-.05.48.04-.2-.14.48.04-.1-.11.28.26-.41-.16.17c-.17.17-.28.37-.33.6l-.06.25.89-.91-.23.06a1.2 1.2 0 0 0-.92 1.17v.23c0 .66.54 1.2 1.2 1.2h.23l.3-.03.23-.06.3-.1.3-.18h.01l.45-.26c.19-.1.34-.24.45-.42l.31-.5-.17.21.48-.48-.16.14.68-.49.1-.07.59-.51-.16.11.79-.49.07-.04.68-.48-.07.04.79-.48.13-.1.81-.65-.07.05 1-.7.95-.66-.15.09.99-.5.02-.01.82-.44-.09.04.82-.35.27-.17.56-.47-.12.09.62-.4-.05.04.52-.29.15-.09.46-.37-.07.05.32-.2.2-.19.27-.34-.01.02.13-.15-.13.11.3-.22c.14-.1.23-.26.27-.43l.05-.26-.5.52.22-.05c.3-.08.52-.35.52-.67v-.22c0-.38-.3-.68-.68-.68h-.97a.68.68 0 0 0 0 1.36h.97a.68.68 0 1 0-.68-.68v.22l.51-.66-.22.06a.68.68 0 0 0-.45.37l-.12.24.45-.38-.36.1h-.02l-.2.07-.26.15-.34.27.26-.14-.36.12-.18.09-.5.3.15-.07-.55.23h-.02l-.68.3-.13.06-.62.38.16-.08-.82.33-.09.03-.83.41h.03l-1 .46-.15.08-.97.64h-.01l-1 .68-.07.04-.82.65.11-.08-.8.48-.06.04-.69.48.08-.04-.8.47-.16.12-.6.5.08-.06-.68.48-.15.13-.48.49-.18.23-.31.5.44-.42-.46.26.02-.01-.3.17.28-.11-.23.05.28-.03h-.24c-.67.01-1.2.56-1.19 1.23.02.67.57 1.2 1.24 1.19a1.22 1.22 0 0 0 1.19-1.21v-.23l-.92 1.17.23-.05c.44-.11.78-.47.88-.91l.06-.26-.32.6.16-.18c.12-.11.21-.25.27-.4l.12-.29.03-.1.15-.48.04-.2.05-.49-.1.36.23-.52-.04.1.17-.32.05-.1.15-.34-.57.6.17-.08c.4-.21.66-.63.66-1.08V307.69a1.21 1.21 0 1 0-1.2 1.25h.22a1.2 1.2 0 0 0 1.17-.92l.06-.23-.6.77.23-.12c.38-.21.62-.62.62-1.05v-.47.04-.45l-.14.56.03-.06-.29.36.17-.15c.2-.17.35-.4.4-.67l.06-.28-.1.3.17-.35.12-.37.06-.43-.06.24.17-.48.02-.06.14-.48-.02.05.18-.5.07-.39v-.48.14l.06-.48-.06.23.18-.51.05-.29.06-.65-.04.2.17-.64v-.03l.2-.82v.02l.17-.65.23-.84.02-.12.14-.82-.02.1.21-.88-.05.17.34-.82v-.01l.37-.91.07-.22.17-.82-.1.28.36-.77.03-.05.34-.83-.09.18.37-.6.05-.07.34-.65-.04.06.43-.7.04-.07.34-.66-.04.07.43-.71-.07.1.48-.66-.05.07.5-.6.13-.17.48-.82-.12.17.65-.76.04-.04.64-.82.02-.02.7-.94-.02.04.65-.79.11-.16.54-.94-.04.06.66-1 .01-.02.71-1.13.02-.04.65-1.14-.01.03.7-1.16-.03.04.65-.96.06-.1.57-1.05-.02.03.66-1.14.6-1.05h-.01l.65-1.13.06-.1.54-1.2-.05.1.65-1.17.02-.05.6-1.19-.04.06.66-1.13v-.03l.57-1.05v.03l.64-1.14.03-.06.6-1.19-.03.05.65-1.16.04-.07.53-1.14-.08.14.65-1-.01.03.7-1.02.06-.1.64-1.17-.13.19.87-1.02.06-.08.81-1.14-.03.06.9-1.12-.03.03.99-1.13-.02.02 1.02-1.1v-.02l1.17-1.3-.02.02 1.02-1.08-.03.04 1.16-1.14.04-.04 1.02-1.1.02-.03 1-1.13-.05.04.97-.99-.02.02.99-.96.08-.09.82-1-.07.09.82-.82.14-.17.6-.88-.06.09.65-.8.02-.04.71-.93-.02.02.66-.82.01-.02.71-.93.04-.06.65-.96.03-.05.6-1-.11.16.82-.97.03-.04.82-1.05-.03.04.96-1.14-.02.02.99-1.1.06-.09.96-1.3-.13.15 1.16-1.08.03-.03 1.13-1.13-.05.04 1.36-1.22v.01l1.3-1.13-.03.02 1.36-1.1-.12.08 1.3-.8.05-.04 1.36-.94 1.17-.82.04-.04 1.2-.93.03-.03 1.13-.97.02-.02 1.04-.94-.09.07 1.14-.82.07-.06 1.05-.9.96-.82.04-.04.99-.93v-.02l1-.96-.05.05.96-.82h-.01l1-.82-.06.05 1.13-.82.07-.06 1.13-.96-.13.1 1.33-.83.07-.04 1.13-.82-.08.06 1.3-.77.09-.06 1.13-.82-.04.03 1.3-.85-.04.03 1.16-.68.02-.01 1.3-.8-.02.02 1.13-.65.08-.05 1.17-.82h-.02l.97-.64.02-.02 1-.7h-.03l.96-.64.03-.02.83-.6.12-.1.82-.83-.12.11.82-.6-.03.03.97-.66-.14.08 1.17-.57-.05.02 1.13-.49-.02.01 1.19-.49h.03l1.16-.52 1.08-.48-.06.02 1.3-.49-.07.03 1.16-.35-.05.02 1.3-.31.07-.03 1.08-.34.08-.03 1.17-.48-.13.05 1.03-.29.13-.04 1-.42-.07.02.96-.34-.07.03.93-.25.14-.05.82-.34-.23.06.85-.14.3-.1.66-.35-.36.12.88-.12h.08l.83-.18.05-.01.77-.2-.05.01.82-.18.82-.17-.2.02.96-.01.2-.02.99-.2-.15.01.97-.06.11-.02.99-.17-.1.01.93-.07h-.06.79l.18-.02.93-.17h.02l.82-.18.7-.15-.18.02h.65l.55-.01h-.01.48-.1l.5.04-.15-.03.49.13.15.03.49.05-.2-.04.52.16.14.03.3.05h.52l.32-.01h-.03.51l.48-.01h.03l.26-.01h-.02l.45-.02.15-.01.1-.03-.08.02.3-.03.13-.02.11-.03-.16.03.42-.02h.01l.29-.01.47-.03a.73.73 0 0 0 0-1.46Zm0 0"
     id="path207" />
  <path
     style="stroke:none;fill-rule:nonzero;fill:#004f8b;fill-opacity:1"
     d="m199.5 304.52-.25.04a.76.76 0 0 0-.39.17l-.18.16-.06.06-.08.08a.81.81 0 0 0-.23.54l-.01.3-.01.35v.09l.03.48.04.2.14.48.05.12.24.52.18.26.5.5-.1-.12.49.66.48.65.03.05.51.6.17.15.48.35.02.01.5.35.26.12.5.14-.23-.1.51.32.17.07.48.18.48.16.3.06h.5a.88.88 0 0 0 0-1.76h-.5l.29.05-.48-.17-.49-.17.17.08-.51-.32-.12-.05-.47-.2.24.14-.46-.39-.08-.06-.49-.33.18.15-.51-.59.04.06-.48-.65-.49-.65-.12-.14-.52-.47.19.24-.27-.5.04.1-.2-.48.06.18-.08-.48.01.1v-.33l-.02-.31-.01.16.02-.12-.17.38.15-.18-.36.23.25-.07a.74.74 0 0 0-.32-1.45ZM345.4 221c.22-.6.03-1.09-.38-1.27a.82.82 0 0 0-1.07.41l-.76 1.43-.46 1.07-.53 1.04-.74 1.36-.74 1.08-.82 1.02-.7 1.06-.57 1.1c-.05-.35-.26-.03-.26.32l-.66 1-.33 1.31-.62 1.03-.35 1.26-.3 1.17-.48 1.3-.6 1.13c-.51.7-.59.91-.59 1.13l-.72 1.17-.52 1.18-.3 1.07-.39 1-.45 1.15-.12 1.3-.25 1.3-.23 1-.39 1.08-.09 1.04v1.3l-.29 1.37-.4 1.14-.32 1.07-.4 1.08-.13 1.05-.47 1.46v1.48l-.16 1.19-.24 1.05-.3 1.08-.33 1.15-.37 1.16-.26 1.12-.45 1.3-.3 1.1-.31 1.33-.46 1.26-.52 1.59-.4 1.07-.43 1.08-.62 1.34-.45 1.24-.6 1.18-.75 1.21-.64 1.24-1 1.06-.49 1.02-.96 1.13-.99 1.3-.98 1.38-1.02 1.44-.89 1.54-.6 1.1-.79 1.06-.59 1.07c-.7 1-.75 1.16-.75 1.33l-.24 1.27-.48 1.12-.43 1-.53 1.46-.74 1.09-.5 1.1-.68 1.22-.56 1.07-.76 1.07-.62 1.11-1.12 1.15c-1.05.88-1.12 1.08-1.12 1.3-.52 1.43-.1 1.86.42 1.87l1.05.02 1.07-.32 1.19-.52 1.14-.48 1.14-.16c.94-.05 1.18-.47 1.07-.89-1.32-.43-1.56-.08-1.51.3.08.72.3.96.59 1.04 1.05.3 1.37-.02 1.37-.42l-1.02-.98-1.14-1-1.37.26-1.24.58-1.17.53-1.02.14.1 1.64c1.1-.9 1.2-1.11 1.22-1.35l1.1-1.05 1.03-1.12.7-1.01.75-1.38c.6-.77.7-.9.78-1.04l.56-1.09.62-1.2c.45-.76.51-.89.55-1.03l.55-1.49.47-1.26c.34-.59.46-.8.48-1.04l.27-1.06c.5-.88.62-1.07.67-1.28l1.1-1.55.74-1.34.72-1.22 1.02-1.4 1.01-1.43.93-1.22.8-1.07.67-1.27 1.2-1.22c.48-.7.57-.86.61-1.03l.74-1.35.7-1.24.47-1.4c.5-.87.56-1 .6-1.13.4-.79.45-.93.47-1.07l.24-1.1.4-1.07.38-1.05.4-1.02.38-1.3.27-1.31c.37-.74.42-.88.44-1.02l.28-1.47.45-1.16.29-1.31.4-1.27.22-1 .1-1.27v-1.48c.3-.75.4-.94.44-1.16l.18-1.06.35-1.03.4-1.38.36-1.33.23-1.22v-1.3l.3-1 .18-1.11.25-1.3.23-1 .23-1.05.28-1.01.4-1.14.43-1.08.46-1.26c.53-.52.63-.76.63-1.01l.65-1.3.55-1.01.53-1.48.22-1.26.42-1.16c.46-.7.54-.91.54-1.13.45-.69.66-.97.7-1.3l.29-1c-.03.58.14.35.2.08l.61-1.14.88-1 .75-1.11.67-1.21.56-1.04.71-1.23.38-1.14c.46-.8.52-.98.5-1.16-.01-.68-.39-1.03-.84-1.02-.78.95-.76 1.05-.71 1.15 1.14.88 1.44.57 1.45.19Zm0 0"
     id="path209" />
  <path
     style="stroke:none;fill-rule:nonzero;fill:#004f8b;fill-opacity:1"
     d="m302.49 300.63-.3.02c-.19.01-.37.1-.51.25l-.14.15a.8.8 0 0 0-.2.4l-.04.28-.01.12v.99l-.02.64-.02.66.02.18.14.66.03.09.17.48.1.2.34.48-.1-.21.16.51.18.3.39.41.02.03.33.32-.1-.13.28.43.1.11.34.34-.08-.08.31.42.08.09.48.48a.76.76 0 0 0 1.07-1.07l-.48-.48.08.09-.32-.43-.07-.09-.35-.34.1.12-.28-.43-.05-.05-.29-.36-.34-.43.13.24-.17-.5-.1-.22-.35-.48.1.2-.17-.48.03.1-.14-.66.02.16-.02-.66-.01-.65v.01-.5l-.01-.49-.02.18.07-.28-.23.4.15-.14-.29.16.28-.09a.74.74 0 0 0-.3-1.45Zm0 0"
     id="path211" />
  <g
     aria-label="Growth"
     transform="rotate(-90,-26.332006,35.630406)"
     id="text169"
     style="font-size:42.6667px;line-height:1.25;font-family:serif;-inkscape-font-specification:'serif, Normal';letter-spacing:0px;word-spacing:0px">
    <path
       d="m -266.69284,104.0502 h 3.02934 v 11.39201 q -2.09067,1.83467 -4.94934,2.816 -2.85867,0.98133 -6.016,0.98133 -4.48001,0 -8.06401,-1.96266 -3.584,-1.96267 -5.632,-5.41868 -2.048,-3.49866 -2.048,-7.808 0,-4.309338 2.048,-7.76534 2.048,-3.498669 5.632,-5.461338 3.584,-1.962668 8.10667,-1.962668 3.41334,0 6.27201,1.109334 2.85867,1.066668 4.82134,3.200003 l -1.96267,2.005335 q -3.54134,-3.49867 -9.00268,-3.49867 -3.62666,0 -6.57067,1.621335 -2.90133,1.578668 -4.56533,4.437337 -1.664,2.816002 -1.664,6.314672 0,3.49867 1.664,6.31467 1.664,2.816 4.56533,4.43734 2.90134,1.62133 6.52801,1.62133 4.608,0 7.808,-2.304 z"
       style="font-style:normal;font-variant:normal;font-weight:normal;font-stretch:normal;font-size:42.6667px;font-family:Montserrat;-inkscape-font-specification:Montserrat"
       id="path63" />
    <path
       d="m -252.46616,100.93553 q 1.06667,-2.261335 3.15733,-3.413336 2.13334,-1.152001 5.24801,-1.152001 v 2.944002 l -0.72533,-0.04267 q -3.54134,0 -5.54668,2.176005 -2.00533,2.176 -2.00533,6.10134 v 11.43467 h -3.02934 V 96.54086 h 2.90134 z"
       style="font-style:normal;font-variant:normal;font-weight:normal;font-stretch:normal;font-size:42.6667px;font-family:Montserrat;-inkscape-font-specification:Montserrat"
       id="path65" />
    <path
       d="m -229.69414,119.19688 q -3.24267,0 -5.84534,-1.45067 -2.60267,-1.49334 -4.09601,-4.096 -1.49333,-2.60267 -1.49333,-5.88801 0,-3.28533 1.49333,-5.888 1.49334,-2.602671 4.09601,-4.053339 2.60267,-1.450668 5.84534,-1.450668 3.24266,0 5.84533,1.450668 2.60267,1.450668 4.05334,4.053339 1.49333,2.60267 1.49333,5.888 0,3.28534 -1.49333,5.88801 -1.45067,2.60266 -4.05334,4.096 -2.60267,1.45067 -5.84533,1.45067 z m 0,-2.68801 q 2.38933,0 4.26667,-1.06666 1.92,-1.10934 2.98666,-3.11467 1.06667,-2.00534 1.06667,-4.56534 0,-2.56 -1.06667,-4.56534 -1.06666,-2.00533 -2.98666,-3.072 -1.87734,-1.109331 -4.26667,-1.109331 -2.38934,0 -4.30934,1.109331 -1.87734,1.06667 -2.98667,3.072 -1.06667,2.00534 -1.06667,4.56534 0,2.56 1.06667,4.56534 1.10933,2.00533 2.98667,3.11467 1.92,1.06666 4.30934,1.06666 z"
       style="font-style:normal;font-variant:normal;font-weight:normal;font-stretch:normal;font-size:42.6667px;font-family:Montserrat;-inkscape-font-specification:Montserrat"
       id="path67" />
    <path
       d="m -179.84544,96.54086 -8.49067,22.44268 h -2.85867 l -7.08267,-18.38934 -7.08267,18.38934 h -2.85867 l -8.44801,-22.44268 h 2.90134 l 7.04,19.07201 7.21067,-19.07201 h 2.60267 l 7.16801,19.07201 7.12534,-19.07201 z"
       style="font-style:normal;font-variant:normal;font-weight:normal;font-stretch:normal;font-size:42.6667px;font-family:Montserrat;-inkscape-font-specification:Montserrat"
       id="path69" />
    <path
       d="m -162.79876,117.61821 q -0.85333,0.768 -2.13333,1.19467 -1.23734,0.384 -2.60267,0.384 -3.15734,0 -4.86401,-1.70667 -1.70666,-1.70667 -1.70666,-4.82134 V 99.100862 h -4.01067 V 96.54086 h 4.01067 v -4.90667 h 3.02933 v 4.90667 h 6.82667 v 2.560002 h -6.82667 v 13.397348 q 0,2.00533 0.98133,3.072 1.02401,1.024 2.90134,1.024 0.93867,0 1.792,-0.29867 0.896,-0.29867 1.536,-0.85333 z"
       style="font-style:normal;font-variant:normal;font-weight:normal;font-stretch:normal;font-size:42.6667px;font-family:Montserrat;-inkscape-font-specification:Montserrat"
       id="path71" />
    <path
       d="m -145.84941,96.370193 q 4.224,0 6.69867,2.474669 2.51734,2.431998 2.51734,7.125338 v 13.01334 h -3.02934 v -12.71467 q 0,-3.49867 -1.74933,-5.33334 -1.74934,-1.834668 -4.99201,-1.834668 -3.62667,0 -5.76,2.175998 -2.09067,2.13334 -2.09067,5.93067 v 11.77601 h -3.02933 V 87.324853 h 3.02933 V 100.4662 q 1.23734,-1.962672 3.41334,-3.029339 2.176,-1.066668 4.992,-1.066668 z"
       style="font-style:normal;font-variant:normal;font-weight:normal;font-stretch:normal;font-size:42.6667px;font-family:Montserrat;-inkscape-font-specification:Montserrat"
       id="path73" />
  </g>
  <g
     transform="translate(0.03759834,-22.701601)"
     aria-label="Poor"
     id="text169-5"
     style="font-size:42.6667px;line-height:1.25;font-family:serif;-inkscape-font-specification:'serif, Normal';letter-spacing:0px;word-spacing:0px">
    <path
       d="m 207.2771,433.26216 q 5.71734,0 8.96001,2.73066 3.24267,2.73067 3.24267,7.50934 0,4.77867 -3.24267,7.50934 -3.24267,2.688 -8.96001,2.688 h -8.02134 v 9.42935 h -3.15734 v -29.86669 z m -0.0853,17.66401 q 4.43733,0 6.784,-1.92 2.34667,-1.96267 2.34667,-5.50401 0,-3.62667 -2.34667,-5.54667 -2.34667,-1.96267 -6.784,-1.96267 h -7.93601 v 14.93335 z"
       style="font-style:normal;font-variant:normal;font-weight:normal;font-stretch:normal;font-size:42.6667px;font-family:Montserrat;-inkscape-font-specification:Montserrat"
       id="path45" />
    <path
       d="m 234.71512,463.34218 q -3.24267,0 -5.84534,-1.45067 -2.60267,-1.49333 -4.096,-4.096 -1.49334,-2.60267 -1.49334,-5.88801 0,-3.28533 1.49334,-5.888 1.49333,-2.60267 4.096,-4.05334 2.60267,-1.45066 5.84534,-1.45066 3.24267,0 5.84534,1.45066 2.60267,1.45067 4.05333,4.05334 1.49334,2.60267 1.49334,5.888 0,3.28534 -1.49334,5.88801 -1.45066,2.60267 -4.05333,4.096 -2.60267,1.45067 -5.84534,1.45067 z m 0,-2.688 q 2.38933,0 4.26667,-1.06667 1.92,-1.10933 2.98667,-3.11467 1.06667,-2.00533 1.06667,-4.56534 0,-2.56 -1.06667,-4.56533 -1.06667,-2.00534 -2.98667,-3.07201 -1.87734,-1.10933 -4.26667,-1.10933 -2.38934,0 -4.30934,1.10933 -1.87733,1.06667 -2.98667,3.07201 -1.06666,2.00533 -1.06666,4.56533 0,2.56001 1.06666,4.56534 1.10934,2.00534 2.98667,3.11467 1.92,1.06667 4.30934,1.06667 z"
       style="font-style:normal;font-variant:normal;font-weight:normal;font-stretch:normal;font-size:42.6667px;font-family:Montserrat;-inkscape-font-specification:Montserrat"
       id="path47" />
    <path
       d="m 261.46514,463.34218 q -3.24267,0 -5.84534,-1.45067 -2.60267,-1.49333 -4.096,-4.096 -1.49334,-2.60267 -1.49334,-5.88801 0,-3.28533 1.49334,-5.888 1.49333,-2.60267 4.096,-4.05334 2.60267,-1.45066 5.84534,-1.45066 3.24267,0 5.84534,1.45066 2.60266,1.45067 4.05333,4.05334 1.49334,2.60267 1.49334,5.888 0,3.28534 -1.49334,5.88801 -1.45067,2.60267 -4.05333,4.096 -2.60267,1.45067 -5.84534,1.45067 z m 0,-2.688 q 2.38933,0 4.26667,-1.06667 1.92,-1.10933 2.98667,-3.11467 1.06666,-2.00533 1.06666,-4.56534 0,-2.56 -1.06666,-4.56533 -1.06667,-2.00534 -2.98667,-3.07201 -1.87734,-1.10933 -4.26667,-1.10933 -2.38934,0 -4.30934,1.10933 -1.87733,1.06667 -2.98667,3.07201 -1.06666,2.00533 -1.06666,4.56533 0,2.56001 1.06666,4.56534 1.10934,2.00534 2.98667,3.11467 1.92,1.06667 4.30934,1.06667 z"
       style="font-style:normal;font-variant:normal;font-weight:normal;font-stretch:normal;font-size:42.6667px;font-family:Montserrat;-inkscape-font-specification:Montserrat"
       id="path49" />
    <path
       d="m 281.94315,445.08083 q 1.06667,-2.26133 3.15733,-3.41333 2.13334,-1.152 5.24801,-1.152 v 2.944 l -0.72534,-0.0427 q -3.54133,0 -5.54667,2.176 -2.00533,2.176 -2.00533,6.10134 v 11.43468 h -3.02934 v -22.44269 h 2.90134 z"
       style="font-style:normal;font-variant:normal;font-weight:normal;font-stretch:normal;font-size:42.6667px;font-family:Montserrat;-inkscape-font-specification:Montserrat"
       id="path51" />
  </g>
  <g
     transform="translate(0.03759834,-22.701601)"
     aria-label="Rich"
     id="text169-5-1"
     style="font-size:42.6667px;line-height:1.25;font-family:serif;-inkscape-font-specification:'serif, Normal';letter-spacing:0px;word-spacing:0px">
    <path
       d="m 668.53524,465.48871 -6.82668,-9.60001 q -1.152,0.128 -2.38933,0.128 h -8.02134 v 9.47201 h -3.15734 v -29.86669 h 11.17868 q 5.71734,0 8.96001,2.73067 3.24266,2.73067 3.24266,7.50934 0,3.49867 -1.792,5.93067 -1.74933,2.38933 -5.03467,3.456 l 7.29601,10.24001 z M 659.2339,453.3287 q 4.43733,0 6.784,-1.96267 2.34667,-1.96267 2.34667,-5.504 0,-3.62667 -2.34667,-5.54667 -2.34667,-1.96267 -6.784,-1.96267 h -7.93601 v 14.97601 z"
       style="font-style:normal;font-variant:normal;font-weight:normal;font-stretch:normal;font-size:42.6667px;font-family:Montserrat;-inkscape-font-specification:Montserrat"
       id="path54" />
    <path
       d="m 678.33391,443.04603 h 3.02934 v 22.44268 h -3.02934 z m 1.536,-4.90668 q -0.93867,0 -1.57867,-0.64 -0.64,-0.64 -0.64,-1.536 0,-0.85333 0.64,-1.49333 0.64,-0.64 1.57867,-0.64 0.93867,0 1.57867,0.64 0.64,0.59733 0.64,1.45067 0,0.93866 -0.64,1.57866 -0.64,0.64 -1.57867,0.64 z"
       style="font-style:normal;font-variant:normal;font-weight:normal;font-stretch:normal;font-size:42.6667px;font-family:Montserrat;-inkscape-font-specification:Montserrat"
       id="path56" />
    <path
       d="m 699.13526,465.70204 q -3.328,0 -5.97334,-1.45067 -2.60267,-1.45066 -4.096,-4.05333 -1.49334,-2.64534 -1.49334,-5.93067 0,-3.28534 1.49334,-5.88801 1.49333,-2.60267 4.096,-4.05333 2.64534,-1.45067 5.97334,-1.45067 2.90134,0 5.16267,1.152 2.304,1.10933 3.62667,3.28533 l -2.26134,1.53601 q -1.10933,-1.66401 -2.816,-2.47467 -1.70667,-0.85334 -3.712,-0.85334 -2.432,0 -4.39467,1.10934 -1.92,1.06667 -3.02934,3.072 -1.06666,2.00533 -1.06666,4.56534 0,2.60267 1.06666,4.608 1.10934,1.96267 3.02934,3.072 1.96267,1.06667 4.39467,1.06667 2.00533,0 3.712,-0.81067 1.70667,-0.81066 2.816,-2.47467 l 2.26134,1.53601 q -1.32267,2.176 -3.62667,3.328 -2.304,1.10933 -5.16267,1.10933 z"
       style="font-style:normal;font-variant:normal;font-weight:normal;font-stretch:normal;font-size:42.6667px;font-family:Montserrat;-inkscape-font-specification:Montserrat"
       id="path58" />
    <path
       d="m 724.93528,442.87536 q 4.22401,0 6.69867,2.47467 2.51734,2.432 2.51734,7.12534 v 13.01334 h -3.02934 v -12.71468 q 0,-3.49867 -1.74933,-5.33333 -1.74934,-1.83467 -4.99201,-1.83467 -3.62666,0 -5.76,2.176 -2.09067,2.13333 -2.09067,5.93067 v 11.77601 h -3.02933 v -31.65869 h 3.02933 v 13.14134 q 1.23734,-1.96267 3.41334,-3.02933 2.176,-1.06667 4.992,-1.06667 z"
       style="font-style:normal;font-variant:normal;font-weight:normal;font-stretch:normal;font-size:42.6667px;font-family:Montserrat;-inkscape-font-specification:Montserrat"
       id="path60" />
  </g>
  <text
     xml:space="preserve"
     style="font-size:32px;line-height:1.25;font-family:serif;-inkscape-font-specification:'serif, Normal';letter-spacing:0px;word-spacing:0px"
     x="351.16949"
     y="163.30983"
     id="text366"><tspan
       sodipodi:role="line"
       id="tspan364"
       x="351.16949"
       y="163.30983"
       style="font-style:normal;font-variant:normal;font-weight:normal;font-stretch:normal;font-size:32px;font-family:Montserrat;-inkscape-font-specification:Montserrat;fill:#004f8b;fill-opacity:1">Everyone poor</tspan><tspan
       sodipodi:role="line"
       x="351.16949"
       y="204.31696"
       style="font-style:normal;font-variant:normal;font-weight:normal;font-stretch:normal;font-size:32px;font-family:Montserrat;-inkscape-font-specification:Montserrat;fill:#004f8b;fill-opacity:1"
       id="tspan1235">little growth</tspan></text>
  <text
     xml:space="preserve"
     style="font-style:normal;font-variant:normal;font-weight:normal;font-stretch:normal;font-size:37.3333px;line-height:1.25;font-family:Montserrat;-inkscape-font-specification:Montserrat;letter-spacing:0px;word-spacing:0px"
     x="93.538162"
     y="330.202"
     id="text1326"><tspan
       sodipodi:role="line"
       id="tspan1324"
       x="93.538162"
       y="330.202">0%</tspan></text>
  <text
     id="text1326-2"
     y="241.3186"
     x="92.773087"
     style="font-style:normal;font-variant:normal;font-weight:normal;font-stretch:normal;font-size:37.3333px;line-height:1.25;font-family:Montserrat;-inkscape-font-specification:Montserrat;letter-spacing:0px;word-spacing:0px"
     xml:space="preserve"><tspan
       y="241.3186"
       x="92.773087"
       id="tspan1324-1"
       sodipodi:role="line">2%</tspan></text>
  <text
     id="text1326-8"
     y="157.00409"
     x="89.962593"
     style="font-style:normal;font-variant:normal;font-weight:normal;font-stretch:normal;font-size:37.3333px;line-height:1.25;font-family:Montserrat;-inkscape-font-specification:Montserrat;letter-spacing:0px;word-spacing:0px"
     xml:space="preserve"><tspan
       y="157.00409"
       x="89.962593"
       id="tspan1324-4"
       sodipodi:role="line">4%</tspan></text>
</svg>
