<svg xmlns="http://www.w3.org/2000/svg" viewBox="0 0 960 540"><defs><clipPath id="a"><path d="M0 0h959.76v540H0Zm0 0"/></clipPath></defs><g clip-path="url(#a)"><path style="stroke:none;fill-rule:nonzero;fill:#fff;fill-opacity:1" d="M0 0h959.76v540H0Zm0 0"/></g><path style="fill:#fff;fill-opacity:1;stroke:none" d="M0 0h960v540H0z"/><path style="stroke:none;fill-rule:nonzero;fill:#000;fill-opacity:1" d="m148.37 70.74-.5.2.26-.06-.29.01a.83.83 0 0 0-.47.18l-.25.2.44-.19-.14.02-.38.13-.19.11.4-.13-.17.02a.97.97 0 0 0-.87.83l-.03.22a1 1 0 0 0 1.92.53l.02-.04.07-.27.02-.17-.53.78.18-.1c.16-.1.3-.22.4-.38l.18-.3-.17.2.33-.32c.1-.1.19-.24.24-.37l.2-.48-.18.3.38-.48.05-.06.35-.5-.14.17.5-.48-.14.11.66-.47.22-.2.54-.64-.1.1.7-.65.68-.64-.11.1.68-.5-.08.05.8-.49.08-.06.66-.48.87-.65.03-.02.83-.65.04-.04.76-.65-.14.1.81-.51.17-.13.6-.54.04-.04.65-.66-.04.04.6-.54.03-.04.65-.65.02-.02.53-.56-.13.11.65-.51.04-.03.56-.5h.02l.48-.44-.1.08.48-.35.17-.15.34-.37-.3.23.32-.17c.16-.1.3-.22.4-.38l.16-.23-.42.37.34-.18-.06.03.08-.03.04-.03.46-.23-.4.12h.05l-.31-.02.25.05-.53-.28.17.16-.01-.01.07.07-.2-.27.18.34-.1-.28.06.31v-.05l.07.51.04.18.16.47-.04-.17.07.48.04.2.19.5.05.13.25.47-.06-.14.17.48.07.15.26.46-.05-.11.2.5.07.16.3.46.18.2.5.4.07.06.49.32.06.04.5.26.2.07.5.12.11.01.49.04-.16-.03.49.15.17.03.51.02h1l-.2-.03.7.23.76.25a.68.68 0 0 0 .43-1.28l-.77-.26-.72-.22-.2-.04h-.97l.12.01-.5-.09.14.04-.48-.19-.15-.04-.48-.08.12.03-.5-.16.18.08-.47-.3.04.03-.46-.36.06.06-.47-.44.17.22-.26-.5.07.17-.15-.51-.02-.08-.19-.5.04.12-.12-.49-.05-.14-.2-.5.03.1-.16-.52.04.2-.04-.48-.03-.16-.12-.48.02.17-.03-.5-.01-.1-.06-.31-.09-.3-.17-.33.03.06-.03-.1-.22-.33-.17-.17a1.13 1.13 0 0 0-.52-.31l-.26-.06-.16-.03h-.06c-.2-.02-.4.01-.57.1l-.46.22.25-.08-.1.02-.22.08-.35.16c-.14.06-.27.16-.37.28l-.19.22.33-.27-.32.17-.3.23-.33.37.19-.17-.49.34-.1.07-.49.42h.02l-.57.47.03-.03-.66.5-.09.08-.55.52-.02.02-.66.66.05-.05-.6.54-.04.04-.66.65.05-.04-.6.53.18-.13-.83.5-.15.11-.77.65.03-.02-.82.66.03-.03-.88.66h.01l-.65.47.09-.06-.8.48-.11.08-.67.52-.11.1-.68.66-.67.65-.09.1-.53.66.2-.2-.64.5-.14.11-.47.5-.15.18-.32.52.04-.06-.36.5-.16.32-.15.48.21-.38-.3.35-.14.22-.15.32.3-.37-.17.13c-.29.23-.44.6-.4.96l.03.17.08.27.02.04a1 1 0 0 0 1.91-.53l-.02-.22-.46.96.15-.09.2-.17.15-.16-.12.11.12-.09.15-.16.2-.25-.37.27.27-.1.1-.04.47-.26c.36-.2.5-.65.3-1a.74.74 0 0 0-.93-.34Zm0 0"/><path style="stroke:none;fill-rule:nonzero;fill:#000;fill-opacity:1" d="m165.03 59.93-.11-.32.04.3.01-.22a.9.9 0 0 0-.22-.62l-.2-.23.12 1.07.03-.04.1-.34.03-.23a1 1 0 1 0-1.38.8l.05.02.26.08.17.02-.61-.3.24.24.17.14.5.33-.04-.02.65.46-.03-.02.64.5-.02-.03.8.67-.1-.1.65.67h-.01l.79.83.03.02.67.66.04.04.79.71-.06-.06.65.67.24.19.89.53-.34-.3.54.7.28.27.7.48-.07-.06.67.54-.06-.05.68.62.08.08.68.5-.17-.15.54.63.1.1.54.47.02.02.52.43-.02-.01.54.47.02.02.28.23.2.12.47.2.3.05h.76c.42 0 .77-.34.76-.76a.76.76 0 0 0-.76-.77h-.77l.4.1-.45-.25.22.18-.23-.28-.02-.02-.47-.54v.02l-.43-.52.05.06-.4-.59h-.01l-.48-.67-.15-.18-.63-.56.07.06-.63-.67-.05-.06-.63-.59-.14-.12-.71-.48.27.26-.54-.7a1.2 1.2 0 0 0-.3-.29l-.87-.55.19.15-.66-.64-.04-.04-.8-.7.03.02-.7-.65.04.04-.8-.82-.02-.02-.66-.64-.1-.08-.83-.64-.03-.02-.66-.47-.03-.02-.66-.44-.08-.05-.52-.29.14.09-.27-.21c-.22-.17-.5-.25-.78-.21l-.17.02-.26.07-.05.02a1 1 0 0 0-.6 1.04l.02.23.11.34.02.04c.08.14.18.26.31.34l.25.17-.28-.3.1.19.21.24.26.2a.75.75 0 0 0 1.18-.82ZM164.57 62.6c-.25-1.37-.8-1.48-1.22-1.21l-.42 1.18-.02 1.09-.03 1.41-.01 1.02v5.32l-.01 1.29-.02 1.16v1.28l-.02 1.17-.01 1.24v1.2L162.8 80v2.24l.01 1.47v1.47l.01 1.44v1.48l-.02 1.46v1.19l-.01 1.29v2.91l-.02 1.47v3.6l-.01 1.3v6.39l-.01 1.29v1.15l-.01 1.47-.02 1.47V118l-.03 1.46v1l-.03 1.48.23 1.35.25 1.08v5.39l-.01 1.47V136.63l-.02 1.46v1.3l-.01 1.17-.27 1.04-.21 1.38-.01 1.01-.27 1.14-.22 1.3-.01 1.52v1.2l-.02 1.2-.01 1.04v2.24l-.01 1.13v1.16l-.03 1.07-.54 1.34-.02 1.33-.02 1.47.01 1.01v1.33l.02 1.12.04 1.47v2.38l-.04 1-.03 1.48-.02 1.32V176.35l.25 1.42.27 1.04v1.47l-.03 1.23-.01 1.37-.01 1.48V187.18l-.04 1.06-.23 1.4-.23 1.48v1.6l-.01 1.76V198.33l-.01 1.76-.13 1.32-.32 1.34-.05 1.2v1.47l-.01 1.47V214.64l.01 1.59v1.44l.01 1.47V235.44l.01 1.73v1.58l-.01 1.6v1.52l-.19 1.08-.07 1.2-.22 1.66V278.65l.01 1.55-.14 1.5-.31 1.55-.02 1.1v1.8l-.2 1.32-.22 1.48-.09 1.02v12.09l-.1 1.46-.34 1.71-.02 1.68v10.11l.01 1.01.01 1.08.01 2.06.01 1.75v1.62l.03 1.49.01 1.24.2 1 .3 1.44v1.42l-.02 1.85v2.17l-.02 1.97v3.77l-.01 1.56V347.1l.01 1.47.07 1.57.24 1.51.2 1 .03 1.31.09 1 .18 1.58.2 1 .38 1.83.16 1.45.01 1.48v15.02l.2 1.07.31 1.49-.03 1.15.01 1.37.01 1.3.01 1.06v1.18l.02 1.2.02 1.47v4.41l-.01 1.44v2.95l-.01 1.47-.01 1.46-.26 1.07-.25 1.39v8.5l-.01 1.3-.02 1.47c0 1.14.02 1.29.07 1.43l.45 1.4.41 1.07c.12.59.28.92.55 1.15.2.8.25.98.34 1.14.02.8.48 1.2 1.01 1.16l.9-1.02c0-1.47-.43-1.9-.96-1.9l-.97 1.48c0 1.01.43 1.45.97 1.45l.98-1.13.19-1.33-.46-1.12-.3-1.2-.32-1.05-.27-1.04-.01-1.45-.02-1.17v-8.64l.1-1.05.32-1.08.03-1.32v-1.45l-.01-1.47v-2.95l-.01-1.47-.01-1.49V388.13l.03-1.52v-1.21l.02-1.2v-1.16l.02-1.34v-1.26l-.03-1.1-.3-1.46-.15-1.53V361.48l.01-1.48-.19-1.08-.14-1-.38-1.73-.17-1.68-.04-1.37-.07-1.03-.2-1.49-.22-1.49.01-1.38v-2.95l.01-1.52v-3.21l-.01-1.96v-1.96l-.01-1-.01-1.04v-1.13l-.01-1.85v-1.63l-.15-1.09-.36-1.46.06-1.75.01-1.48v-1.79l.02-1.84.02-2.06v-11.95l.16-1.28.32-1.66.03-1.08v-11.01l.05-1.7.23-1.46.23-1.64v-2.73l.3-1.27.2-1.22v-30.68l.01-1.9v-1.73l.06-1.6.2-1.75.22-1.39v-3.23l-.01-1.59V219.14l.01-1.47v-1.44l.01-1.59v-3.23l.02-1.56v-2.95l-.01-1.48-.01-1.48.12-1.1.33-1.67.02-1.08v-1.76l-.01-1.9v-1.95l-.01-1.77v-1.5l.17-1.1.23-1.36.1-1.57.01-1.38V182.87l-.02-1.36-.02-1.22-.01-1.49-.24-1.45-.26-1v-4.09l-.02-1.33-.02-1-.04-1.49-.01-1.24v-1.14l.02-1.12.03-1.17.01-1.15V160.15l-.02-1.45c.35-.66.5-1 .48-1.36l-.02-1.28-.02-1.3v-3.37l-.02-1.04-.01-1.2v-1.2l-.01-1.04.1-1.03.3-1 .07-1.4.02-1.1c.42-.86.45-1 .45-1.15v-2.66l-.02-1.44v-6.86l-.02-1.48v-4.42l-.19-1.3-.36-1.04.05-1.1v-1.46l-.03-1.14v-3.76l-.02-1.48v-1.47l-.02-1.48V109l-.01-1.29V101.33l-.01-1.14V96.43l-.01-1.48v-2.92l-.02-1.28v-1.18l-.02-1.5V84.19l.01-1.47v-5.18l-.01-1.2-.02-1.2V73.9l-.02-1.2-.01-1.26v-5.34l-.01-1.02-.03-1.23-.02-1.27c-.05-.97-.46-1.35-.95-1.33-.84 1.22-.69 1.48-.45 1.63.87.48 1.2.17 1.22-.24ZM796.12 312.14l-.23.23.3-.18-.4.12a.7.7 0 0 0-.42.36l-.16.33.21-.26-.4.3a.72.72 0 0 0-.28.48l-.06.48.14-.35-.43.56-.07.11-.35.65-.04.09-.2.54.04-.09-.46.88v.02l-.33.65.04-.07-.51.81.11-.13-.66.65-.08.1-.6.84.08-.1-.83.81h.01l-.8.75.05-.04-1 .82.02-.02-.83.65-.07.06-.84.81.1-.08-.82.59.02-.02-.97.65-.03.02-.95.7h-.01l-.84.64-.91.7-.83.65h.01l-.71.53-.1.08-.64.66.08-.08-.7.55-.02.01-.64.52.17-.1-.65.32-.19.12-.44.38.07-.05-.5.33-.46.33-.06.05-.27.24.41-.18-.2.02a.7.7 0 0 0-.63.76.7.7 0 0 0 1.4-.06v-1.47a.7.7 0 0 0-1.41 0v1.47c0 .36.28.67.65.7l.2.02a.7.7 0 0 0 .48-.14l.3-.2-.12.06.5-.24.04-.02.52-.29h.01l.52-.3-.07.04.66-.3.16-.1.66-.5h-.01l.71-.52.1-.1.66-.64-.1.08.71-.54.02-.02.82-.66.9-.7.01-.02.8-.66v.01l.92-.72-.04.03.96-.66.02-.01.82-.61.1-.09.8-.83-.06.06.81-.66h.01l.99-.83.05-.05.78-.76.02-.02.8-.83.1-.1.58-.86-.09.1.65-.65.11-.14.5-.82.05-.08.3-.65v.02l.44-.88.04-.08.2-.55-.04.1.33-.66-.06.1.42-.58.13-.35.05-.49-.26.49.4-.32.21-.31.12-.35-.47.44.4-.11.17-.07.28-.16c.35-.2.47-.66.27-1.01a.74.74 0 0 0-1.02-.27.81.81 0 0 0-.15.12Zm0 0"/><path style="stroke:none;fill-rule:nonzero;fill:#000;fill-opacity:1" d="m774.16 295.07.25-.23.2-.33.09-.22-.86.58.45.02-.53-.21.3.25.15.1.65.36-.27-.22.74.87.1.1.97.85-.17-.18 1 1.44.06.09 1.14 1.3v.02l1.28 1.42.1.1 1.47 1.25-.04-.04 1.44 1.37.1.08 1.5 1.12-.07-.06 1.26 1.14.1.08 1.4.98-.1-.07 1.06.95.1.08 1.19.82-.07-.05.99.83.1.07.97.6-.12-.08.85.73.06.04.85.62-.06-.04.61.52-.03-.03.67.63.23.16.74.33.06.03.67.24.14.04.7.12-.06-.02.65.17-.12-.04.57.25.03.02.7.28c.38.15.8-.03.96-.4a.73.73 0 0 0-.4-.96l-.72-.28.03.01-.57-.26-.11-.04-.65-.17h-.07l-.71-.12.26.1-.62-.38.04.02-.67-.45.14.12-.63-.67-.03-.03-.58-.55-.04-.03-.79-.69.06.05-.8-.8-.18-.14-.97-.6.11.08-1-.81-.06-.05-1.19-.83.11.1-1.04-.98-.1-.08-1.38-1 .08.06-1.29-1.13-.01-.01-1.44-1.2.04.03-1.45-1.35-.04-.03-1.48-1.25.1.1-1.28-1.41.02.01-1.14-1.3.05.06-1.06-1.4-.18-.18-1.01-.8.1.1-.8-.83-.24-.18-.66-.33.07.03-.33-.2a.88.88 0 0 0-.5-.13l-.46.02a.86.86 0 0 0-.8.74l-.04.23.06-.22-.14.3a.77.77 0 0 0 1.24.88ZM183.08 447.12l-.14-.3.06.2-.03-.2a.8.8 0 0 0-.59-.66l-.21-.06a.86.86 0 0 0-1.08.79v.22l-.02.34v.12l.05.42.04.17.16.52-.04-.22.04.71v.1l.14.79-.01-.1.05.99v-.06l-.02 1.14.01.13.17 1.27v-.03l.13 1.45v-.03l.09 1.48v-.03l.05 1.7v-.04 1.53l-.01 1.9v4.49l.01 1.24v.05l.06 1.02.01.11.17 1-.01-.08.1 1.02.03.17.17.65-.03-.16.07.65v-.02l.04.5v-.03l.02.48v-.05l-.01.48-.01.28c0 .2.06.4.18.56l.13.17c.2.27.56.38.89.27l.12-.04.23-.12.03-.03-.44.15h.23c.4 0 .71-.32.71-.71v-.23l-.16.45.23-.28.08-.12.25-.48a.71.71 0 1 0-1.26-.67l-.26.49.08-.12-.23.29a.73.73 0 0 0-.16.44v.23a.72.72 0 1 0 .72-.71h-.23l.44.15-.03-.03-.23-.12-.12-.04.53.88.03-.22.01-.16v-.29.01l-.02-.48v.05l.02-.48v.04l.04-.51v-.14l-.05-.65-.02-.16-.16-.65.03.2-.02-1.02-.01-.15-.18-.99.02.11-.07-1.02v.06l.01-1.24.01-1.28V459.46l-.01-1.53v-1.79l-.14-1.47v-.05l-.2-1.44-.19-1.27.01.12v-1.19l-.08-.99v-.12l-.16-.79v.09l-.06-.71-.05-.21-.18-.51.04.16-.07-.43.01.12-.01-.34v-.02l-.01-.2-.64.88.21-.06-.94-.46.08.2.17.23.24.25c.28.27.73.27 1.01-.01.2-.21.26-.53.14-.8Zm0 0"/><path style="stroke:none;fill-rule:nonzero;fill:#000;fill-opacity:1" d="M183.65 450.85v-.49.02l.01-.48v.01l.02-.5v.02l.02-.25.03-.45v.04l.04-.31.03-.29.04-.31-.38.64.2-.14.24-.26.2-.32-.6.44.37-.1.09-.02.34-.12-.25.05.43-.03h-.14l.51.02h.01l.48.02h.51l.5.01.72.02H188.27l-.29-.03.77.2-.26-.1.54.29-.14-.1.64.49-.1-.09.53.52-.02-.03.48.5-.06-.07.46.53-.16-.24.31.65-.04-.1.23.6-.07-.41v2.3l.01-.1-.05.65.02-.13-.17.82.1-.3-.3.6.2-.27-.65.65.04-.04-.6.54.17-.12-.82.52-.07.04-.59.43.14-.08-.65.35.22-.1-.71.2.3-.03H187l-.65.01h-.54l-.96.05.44.08-.35-.15-.1-.03-.31-.1.6.56-.14-.38a.94.94 0 0 0-.6-.54l-.24-.07.63.8-.02-.32a.9.9 0 0 0-.15-.44l-.05-.07.12.27-.05-.22a.75.75 0 1 0-.57.9l.21-.04-.61-.16.25.22.13.1.5.28-.15-.12.48.48a.7.7 0 0 0 1 0 .7.7 0 0 0 0-1l-.48-.47-.16-.12-.51-.29.13.1-.26-.23-.32-.17-.21-.04a.75.75 0 0 0-.9.56l-.04.22.12-.27-.06.07a.86.86 0 0 0-.15.44l-.02.32a.9.9 0 0 0 .36.76l.2.15-.36-.6.07.41c.05.28.21.51.45.66l.29.18.02.01.32.2c.15.08.32.13.49.14l.48.01.48.02h.02l.51.01.66.01h.66l.3-.03.71-.2.2-.08.66-.33.13-.08.6-.42-.05.04.82-.51.16-.12.6-.54.04-.04.66-.65.2-.27.32-.59.1-.3.18-.82.02-.13.06-.65v-.1l.01-.82v-1.48c0-.14-.02-.28-.07-.41l-.22-.6-.04-.08-.3-.66-.16-.24-.45-.55-.08-.08-.49-.48-.02-.02-.54-.5-.11-.1-.66-.48-.15-.09-.55-.27-.23-.09-.77-.2-.28-.03H187.07l-.71.01-.52.01h-.5l-.48.03-.52.02-.14.02-.43.07-.27.1-.33.15.1-.03-.36.13a1 1 0 0 0-.59.58l-.13.35.12-.22-.14.2a.9.9 0 0 0-.17.64l.03.3v.01l.03.28.04.32v-.04l.04.45.01.25v-.03l.02.51v-.01l.01.48v-.02.49c0 .4.33.73.73.73.41 0 .74-.33.74-.73ZM202.41 465.38l-.33-.18-.03-.01-.3-.16.1.06-.34-.23-.18-.1-.47-.18-.18-.04-.48-.06.12.02-.51-.15.19.09-.48-.3-.25-.09-.47-.1.15.05-.47-.2-.22-.06-.51-.07-.1-.01-.48-.01-.33-.01h.03l-.31-.02h-.66a.94.94 0 0 0-.6.2l-.28.22a.97.97 0 0 0-.3.45l-.13.33.02-.02-.16.42-.03.08-.13.48-.03.16-.06.65v.09l-.02.65v.88l.03.27.14.55-.02-.08.12.66.1.28.39.77.08.15.25.34.05.06.55.67c.1.11.22.21.36.28l.65.32.05.02.53.23-.13-.07.7.43c.15.09.3.14.47.16l.65.07-.2-.03.66.18.2.04.66.06h.1l.7.01h1.2c.17 0 .33-.03.48-.1l.4-.18h.02l.31-.16c.18-.08.33-.2.44-.37l.28-.4-.12.15.31-.3c.1-.12.2-.24.25-.38l.21-.52c.06-.14.1-.3.1-.46l-.03-.65v-.54l-.02-.64v-.1l-.08-.7-.03-.2-.19-.64-.02-.08-.26-.7-.17-.3-.51-.64-.16-.16-.66-.54.08.07-.66-.65-.24-.18-.66-.34-.13-.06-.48-.17-.06-.02-.65-.2h-.04l-.65-.17-.66-.17-.26-.03h-.48a.98.98 0 0 0-.42.1l-.51.23-.2.12-.45.34-.05.05-.27.24c-.11.09-.2.21-.25.34l-.19.43c-.13.3-.1.64.1.91l.04.08-.15-.45.02.34.02.11.02.11-.02-.1.04.43v.03l.03.3c.02.18.1.35.23.47l.22.21-.1-.1.31.43.27.24.49.24-.08-.05.7.49.07.04.54.28.04.02.94.42.04.02.77.29c.37.13.78-.05.91-.43a.71.71 0 0 0-.42-.91l-.76-.28.05.01-.94-.42.04.02-.54-.28.07.04-.71-.48-.06-.04-.47-.26.28.28-.26-.47-.06-.08-.17-.24.14.54.04-.3v-.03l.03-.42-.01.09.02-.1.01-.12.03-.34-.16.45.06-.08.06-.1.21-.42-.29.34.3-.22-.12.07.5-.27-.08.04.52-.22-.42.08.48.01-.26-.03.65.17.66.17h-.04l.65.2-.04-.02.48.17-.13-.06.65.34-.26-.2.65.66.07.07.65.54-.16-.17.5.66-.16-.3.25.72-.03-.11.15.66-.02-.2.04.72v-.08l-.01.65-.01.53-.02.65.11-.46-.24.5.22-.32-.3.31-.13.15-.28.4.48-.39-.32.13h.02l-.4.16.44-.09h-1.2l-.7.01h.1l-.65-.05.17.03-.66-.16-.18-.03-.65-.04.5.15-.72-.41-.14-.08-.55-.22.05.02-.66-.3.36.26-.58-.64.05.06-.26-.33.1.16-.4-.77.09.24-.16-.65-.04-.1-.2-.53.07.34-.01-.88-.01-.65v.08l.04-.65-.02.12.1-.48-.02.08.13-.43-.01.03.11-.34-.3.45.28-.23-.6.21H196.5l.37-.03h-.03l.34-.01h-.01.48l-.1-.01.5.04-.16-.03.49.14.22.04h.49l-.4-.1.49.28.2.08.5.13.13.03.49.05-.18-.04.49.16-.18-.08.35.22.13.06.31.13-.03-.01.35.15a.75.75 0 0 0 .67-1.34ZM213.54 466.2l.06-.24-.05.14.08-.2a.88.88 0 0 0-.1-.87l-.18-.24.1.17-.04-.07-.21-.3-.22-.2a.94.94 0 0 0-.6-.25l-.22-.01h.06-.05l-.08-.01-.2-.01a.97.97 0 0 0-1 .93.96.96 0 0 0 1.91.22l.02-.05.03-.19-.1.3.02-.05c.07-.13.11-.27.12-.42l.01-.23.01-.19c.01-.14-.01-.3-.06-.43l-.05-.12-.03-.07-.15-.35-.13-.21-.1-.13c-.1-.13-.23-.24-.39-.31l-.3-.15.14.08-.11-.07c-.18-.13-.4-.2-.62-.2h-.45.03l-.25-.02h-.51l-.02-.01h-.28.03l-.42-.02h-.11l-.29.02h.07-.49c-.24 0-.47.08-.67.21l-.28.2.2-.11-.26.11a1.2 1.2 0 0 0-.58.58l-.15.34-.1.3-.05.3.23-.51-.22.29c-.17.2-.25.47-.25.74l.02.42v-.02.34l.01.42v1.3l.06.36.23.66.1.2.31.52.14.18.45.48.03.02.48.49-.02-.03.48.52.04.04.5.48-.01-.02.47.48.19.15.7.47.2.1.82.33.09.03.76.23.33.05h.8-.02l.66.02.82.01H216.54l.54-.05.25-.06.51-.16-.06.01.43-.11c.32-.09.59-.3.74-.6l.17-.31-.25.32.37-.33c.19-.17.31-.4.37-.65l.05-.26-.1.3.22-.46c.08-.17.13-.35.13-.53v-.26l-.02-.12-.05-.51-.08-.3-.18-.48.07.32-.06-.7c-.03-.32-.18-.6-.43-.8l-.65-.53.32.42-.32-.7a1.15 1.15 0 0 0-.37-.46l-.66-.48-.01-.01-.72-.5h.01l-.66-.46-.16-.1-.83-.4-.66-.32-.02-.01-.88-.41-.38-.1-.54-.03.23.04-.72-.21-.34-.05-.51.04h-.1l-.25.05h.05l-.22.02a.91.91 0 0 0-.77 1.2l.07.2-.04-.2.02.25v.08l.1.5.07.22.23.45.15.21.28.26.03.02.5.43.1.06.48.28-.04-.02.71.48.02.01.77.49c.32.2.75.1.94-.22.2-.32.11-.75-.21-.95l-.77-.48.02.01-.7-.48-.04-.02-.48-.29.09.07-.51-.43.1.12-.22-.3.13.27-.1-.5v.14l-.02-.51v.1l.02-.25-.04.2.07-.2-.96.61.22.03h-.05l.25.03.1.01.5.03-.26-.05.7.24.19.04.53.08-.32-.1.88.44-.05-.02.65.36.81.45-.14-.1.65.5v.01l.71.52.64.49-.36-.47.3.72c.07.16.18.3.32.42l.65.55-.41-.81.04.7.06.28.15.48-.05-.22.06.5v-.13.26l.12-.53-.23.45-.1.26-.06.25.35-.59-.37.34-.22.29-.18.31.74-.57-.43.11-.07.03-.52.17.26-.05-.54.05h.13-1.49l-.82.01-.66.01h.01l-.8.01.34.05-.77-.22.08.02-.83-.3.21.1-.71-.44.2.15-.49-.48-.02-.02-.52-.48.05.05-.48-.5-.5-.51.02.02-.46-.48.14.18-.31-.5.1.22-.22-.66.06.36v-1.3.01-.42l.01-.34v.02l.01-.42-.25.68.23-.28c.12-.15.2-.32.24-.5l.06-.31-.12.32.18-.33-.55.5.25-.1.2-.11.28-.2-.67.2.49.01h-.07l.29.01h.1l.43-.01h-.03.3l.48-.02h.28-.03l.45-.02-.38-.05.12.03-.08-.02.32.13-.25-.15.12.1-.28-.34.18.34.04.06.06.1-.16-.5.01.2.01.22c.01.15.05.3.12.42l.02.05-.1-.3.03.17v.02l.02.06c.09.46.5.79.98.77h.28l.05-.02h-.06.23l-.65-.22.23.2.21.13.07.03-.26-.18.21.2-.2-.27.09.19-.04-.14.05.24a.74.74 0 0 0 1.45 0ZM223.6 466.1l.27.25-.18-.24.13.28-.07-.4-.03.51-.03.48v-.01l-.03.48v-.01l-.04.47v.05l-.02.5-.02.49c-.01.15.02.3.08.43l.14.35.02.03.14.32a1 1 0 0 0 .26.35l.16.14-.37-.83v.23a1.09 1.09 0 1 0 2.17.02v-.22l.01-.27v-.5.08l.06-.7v.08l.13-.82.01-.12.06-.9-.02.17.22-.99.03-.25v-2.71l-.03.21.18-.88-.02.07.17-.65.02-.04.14-.65.03-.23.01-.48-.14.52.18-.33.17-.3-.67.53.37-.11c.27-.08.5-.25.64-.48l.29-.45-.9.53.54-.03.22-.04.66-.17-.16.03.59-.07h-.11.82l-.17-.02.83.11.97.13-.23-.06 1 .38.32.06 1 .04h-.05l.97.08h1.08l-.19-.02.98.2h.11l1 .06-.1-.01 1 .17.09.01.96.06h1.04a.84.84 0 0 0 0-1.67h-1 .06l-.97-.06h.1l-1-.16-.1-.01-.99-.06.18.03-.96-.26-.17-.03-1-.06.2.03-.95-.26-.19-.03-.98-.08.31.08-.98-.42-.24-.06-.96-.16.12.02-.81-.23-.28-.03-.82-.02h-.1l-.6.05-.2.03-.66.17.24-.03-.54.02c-.38.02-.73.22-.93.55l-.27.45.62-.49-.37.12c-.28.09-.51.29-.66.55l-.16.31-.03.06-.16.35c-.07.15-.1.31-.1.48v.48l.03-.24-.13.65v-.04l-.16.65-.02.06-.16.88-.02.2V465.56l.02-.24-.23 1-.02.17-.06.9.01-.11-.14.82v.1l-.06.71v.88-.01.22c.02.6.5 1.08 1.1 1.08.6 0 1.1-.5 1.08-1.1v-.23c0-.41-.24-.79-.61-.96l-.18-.1.43.39-.2-.3.03.04-.2-.33.14.47-.02-.49-.02-.5v-.05l-.04-.47-.03-.47v.01l-.03-.48-.03-.5a.83.83 0 0 0-.3-.6l-.25-.2-.05-.04-.29-.21a.74.74 0 0 0-.92 1.16ZM677.82 449.32l-.02-.25v.06-.23a.72.72 0 0 0-1.44-.09l-.05.42.01-.05-.02.1.02-.07-.25.88v.02l-.08.3-.18.68-.02.15-.04.54v.04l-.02.7v.84l-.02.9-.01 1-.01.96-.01 1.23-.01 1.24-.02 1.24-.02 1.13v1.29l-.02 1.02v.1l.13 1.25.01.05.17 1.16v.02l.17 1.02.02.06.22.99-.02-.17.04.85.03.2.18.67-.03-.18.06.86.11.4.28.5-.1-.34.07.71c.01.17.08.32.18.46l.21.27-.16-.34.09.4c.05.2.18.4.37.51l.18.12-.36-.52.09.4c.08.4.46.66.87.62l.22-.03a.77.77 0 0 0 .68-.86v-.02l-.07-.44v.1-1.24a.7.7 0 1 0-1.4 0v1.24-.1l-.06.44.85-.65-.22-.03.7.74-.03-.4a.84.84 0 0 0-.22-.5l-.15-.17.23.54-.02-.4c0-.15-.05-.3-.14-.43l-.18-.28.14.43-.04-.72-.05-.22-.17-.55.05.22-.06-.84-.03-.17-.16-.68.03.21-.02-.84-.02-.22-.23-.99.01.06-.17-1.02v.02l-.16-1.16v.02l-.16-1.25.01.12v-1.02l-.01-1.28v-.01l-.03-1.13-.02-1.24v-1.24l-.01-1.22-.01-.97-.01-1-.02-.9v-.83l-.02-.71v.05l.01-.54-.02.16.17-.68.01-.1.04-.31-.02.1.2-.9.02-.31-.02-.11v.05l-.04-.42a.72.72 0 0 0-1.44.1v.22-.06l-.02.25a.74.74 0 0 0 1.48.1v-.1Zm0 0"/><path style="stroke:none;fill-rule:nonzero;fill:#000;fill-opacity:1" d="m678.27 450.12.17-.51-.06.12.26-.46.27-.47-.21.24.35-.27.18-.2.27-.41-.4.32.48-.19.26-.16.35-.3-.19.13.62-.32-.28.09.66-.12.23-.06.66-.29-.13.05.51-.14-.08.02.66-.13-.26.02.65.03h.02l.87.02.53.02h.02l.71.01.47.01.47.02h1.03l-.56-.13.47.24-.1-.05.51.32-.17-.13.26.23-.03-.03.45.43-.12-.13.22.27-.04-.06.34.48-.14-.25.21.5-.09-.37.04.48v-.05l.02.48v-.03l.01.51.05-.36-.15.5.09-.21-.27.49.16-.23-.47.49.15-.12-.64.47.13-.09-.64.34-.87.47.14-.06-.76.27-.97.35h.03l-.98.32h-.02l-1 .35-.11.05-.96.5.03-.02-1 .46-.04.02-.97.5-.06.04-.77.48-.03.02-.71.48-.18.14-.52.56-.06.08-.49.65.02-.03-.43.53-.1.15-.36.64.1-.15-.43.54c-.13.16-.21.36-.23.57l-.07.7.06-.25-.18.54c-.07.18-.08.37-.04.56l.13.66-.02-.14.05.57c.03.43.3.8.69.96l.65.27-.5-.4.34.48c.13.18.31.33.52.4l.82.34.1.03.82.24-.1-.03 1.11.45.09.03 1.15.37.16.04 1.19.22h.01l1.14.2-.07-.02 1.04.23.09.02 1.13.18h.02l1.05.15.17.02h.97l-.21-.01.94.15h-.03l.82.16.89.17.07.01.66.09h.1l.7.04-.2-.03.66.15-.08-.02.55.17.19.04.66.08-.52-.21.4.3.26.16.35.13-.35-.24.3.32.04.04.35.33.27.17.43.18-.5-.59.1.44.15.3.22.28-.15-.32.06.28-.02-.14v1.13a.75.75 0 1 0 1.5 0v-1.13l-.01-.15-.06-.28-.03-.1-.11-.33.04.26v-.45a.86.86 0 0 0-.46-.77l-.42-.22.24.19-.32-.35.15.22-.2-.4a.97.97 0 0 0-.35-.4l-.31-.2.2.16-.35-.36a1.05 1.05 0 0 0-.46-.3l-.63-.2.2.09-.51-.28-.23-.1-.64-.18-.21-.05-.7-.07.21.04-.63-.2.02.02-.86-.28-.12-.04-.82-.18h-.04l-.93-.19-.27-.03-.97.02h.18l-1.05-.12h.03l-1.14-.16.08.01-1.04-.22-.1-.02-1.14-.15h.02l-1.19-.17.14.03-1.17-.3.08.01-1.14-.39-.1-.03-.82-.21.1.03-.82-.3.47.31-.4-.43a1.13 1.13 0 0 0-.44-.3l-.66-.23.73.92-.07-.57-.04-.2-.2-.64v.63l.16-.55.03-.22.06-.7-.22.56.41-.54.12-.18.32-.66-.11.18.42-.55.02-.03.47-.65-.06.07.5-.57-.18.16.7-.48-.03.02.77-.5-.07.05.96-.52h-.02l.99-.49h-.01l.97-.47-.13.05 1-.33h-.03l1-.29.03-.01.96-.33h-.01l.76-.23.15-.06.89-.44-.06.02.67-.28.16-.09.67-.43.15-.12.5-.47.17-.21.3-.48.05-.08.23-.46c.09-.16.13-.34.14-.52v-.5.02l.02-.48v.05l.04-.48c.01-.17 0-.35-.07-.52l-.18-.51-.15-.3-.34-.48.04.07-.17-.3-.22-.27-.46-.43-.02-.02-.26-.23-.2-.14-.5-.3-.15-.08-.5-.21c-.15-.07-.33-.1-.5-.1h-1.03l-.48.02h.01l-.48.01h.01l-.7.01h-.03l-.53.02-.87.03h-.02l-.65.02-.31.06-.64.21-.06.02-.5.2-.1.05-.64.34.14-.07-.64.23-.25.13-.56.41-.2.2-.28.37.24-.22-.42.26a.88.88 0 0 0-.3.31l-.23.43.17-.2-.33.29-.18.23-.24.5-.03.06-.2.5v.03l-.17.5c-.14.4.07.82.46.95.4.13.82-.08.95-.47ZM703.9 461.24l-.3.45-.01.03-.28.46-.1.3-.07.38-.01.1-.02.49v-.02l-.02.37v.01l-.04.76v.04l-.01.65v.57l-.02.7V468a1 1 0 0 0 .09.42l.16.35.1.16.2.29.26.26.15.1-.14-.12.23.22c.3.3.75.36 1.12.18l.22-.12-.24.08.2-.03a.8.8 0 0 0 .65-.64l.06-.29-.03.11.17-.48c.05-.15.06-.3.02-.45l-.17-.72v-.01l-.26-.97a.8.8 0 0 0-1.56.42l.25.96v-.02l.17.71.02-.46-.17.48-.03.12-.06.28.94-.64-.2-.03.24.07-.22-.1.25.18-.22-.23-.02-.02-.13-.13.23.34-.14-.32-.05-.11-.18-.33.12.49v-2.17l-.01-.57-.01-.65v-.04l-.04-.76-.03-.38v.02l-.01-.49-.02-.1-.06-.39-.04.42.18-.5-.01.04.2-.5a.73.73 0 0 0-.4-.97.73.73 0 0 0-.9.28ZM705.25 452.41l.05-.48v.09l.06-.27-.04.12.07-.2a.94.94 0 1 0-1.81-.4l-.01.23.02.28.07.28.04.11.17.48.08.15.29.48.12.16.49.5-.05-.04.42.5.53.64-.05-.06.37.53.1.12.7.71-.1-.12.49.71.5.76a.84.84 0 0 0 1.4-.93l-.52-.76v-.01l-.48-.7-.1-.13-.71-.71.1.12-.37-.54-.02-.03-.5-.66.07.1-.32-.57-.13-.18-.47-.51.12.16-.28-.48.08.17-.16-.48.03.14-.04-.28v.09-.23a.94.94 0 0 0-1.88.1c0 .11.03.2.06.3l.08.2-.04-.12.07.27-.02-.09.06.48a.73.73 0 0 0 1.46 0ZM719.8 460.4l-.46-.07h-.05l-.47-.04.26.07-.5-.22-.2-.06-.49-.07.32.11-.46-.27a.9.9 0 0 0-.43-.13l-.48-.02-.5-.03h-.55.01-.98l-.96-.01c-.16 0-.32.04-.46.1l-.34.17-.03.02-.31.17a.99.99 0 0 0-.42.43l-.18.36.17-.24-.33.35a.98.98 0 0 0-.25.5l-.09.42.03-.11-.22.7-.05.31v1.19l.01.6.01.66.01.57v-.02 1.2c0 .13.04.27.1.4l.22.48.06.11.31.49.05.07.4.5-.05-.06.3.48.25.25.45.34-.1-.09.32.31c.12.12.28.2.44.25l.48.11h-.01l.65.16.15.03.46.04h.1l.66-.01h.04l.42-.03h-.04l.66-.02.24-.05.76-.24.19-.1.51-.32.09-.06.62-.52.02-.02.71-.65.02-.02.66-.66.06-.07.68-.87.04-.07.48-.76a.75.75 0 0 0-.23-1.03.75.75 0 0 0-1.04.23l-.48.77.05-.06-.69.88.06-.08-.64.65.02-.01-.71.65.1-.08-.68.44.12-.07-.56.24.12-.04-.78.21.26-.03-.66-.02h.04l-.42-.03h-.04l-.65-.02.12.01-.45-.07.09.02-.65-.17h-.03l-.48-.12.46.26-.3-.31-.1-.1-.46-.34.23.24-.32-.48-.04-.07-.4-.5.04.06-.3-.48.05.11-.23-.48.1.41v-1.19.02l.01-.56v-.67l.01-.6v-1.19l-.04.3.23-.7.03-.11.09-.43-.3.53.35-.33a1 1 0 0 0 .24-.34l.16-.38-.43.49.3-.17-.03.01.34-.17-.43.1h1.94-.01.55l.5-.03.48-.02-.36-.05.5.17.22.05.49.04-.22-.05.51.19.36.04.47-.03h.05l.47-.07c.4-.06.7-.43.65-.84a.75.75 0 0 0-.65-.65ZM729.84 438.31l-.1.22-.06.26-.03.45v-.06l-.04.3-.01.1-.02.46v.01l-.02.7v-.03l-.04.6v.04l-.02.82-.01.8-.02 1.16-.02 1.13v1.37l-.02 1.3v1.6l-.01 1.64-.01 1.9-.01 1.96v1.95l-.01 2.13-.01 1.64-.02 1.47-.02 2.27v-.01l-.02.82v.65l.05.4.2.57-.03-.07.1.42c.07.22.19.43.36.59l.34.31-.16-.19.16.23c.22.32.58.5.97.52h.3l.28-.02.29-.06.34-.13.32-.17.25-.2.45-.42c.1-.1.2-.23.26-.37l.3-.65-.02.04.45-.88-.03.06.48-.83-.05.09.59-.86.05-.08.48-.82-.12.17.6-.72.06-.07.34-.49.02-.03.3-.45-.17.2.31-.3c.16-.16.27-.36.33-.57l.12-.45a1.21 1.21 0 0 0-2.35-.6c-.13.5.08 1.03.52 1.31l.36.24-.44-.5.16.34-.04-.1.22.6-.05-.18.17.8-.02-.19.05.94.01.13.14.83-.01-.13.06.93v-.07.96l.02.27.18.81.18.83c.04.16.11.32.21.46l.42.56-.08-.13.35.64-.06-.12.22.53c.05.13.13.25.23.36l.34.35-.18-.25.23.45.07.12.15.2.01.02.34.46.16.17.29.22-.08-.06.31.3c.12.12.27.2.43.24l.45.12-.38-.2.25.22a.9.9 0 0 0 1.2-1.36l-.25-.22a.93.93 0 0 0-.38-.2l-.46-.11.42.24-.3-.32-.08-.06-.28-.23.22.27-.27-.5.07.17-.08-.24.03.1-.1-.5-.1-.27-.22-.43.07.16-.18-.54-.06-.14-.32-.66-.01-.02-.32-.62.11.32-.32-1.65.02.24V465l-.05-.93-.02-.14-.14-.83.01.14-.06-.94-.03-.18-.17-.8-.05-.18-.23-.59-.06-.14-.18-.33c-.11-.2-.27-.37-.46-.48l-.38-.22a1.2 1.2 0 0 0-1.78.76l-.11.46.31-.56-.3.31-.18.22-.28.46.05-.07-.34.48.06-.08-.6.71-.1.16-.5.82.06-.08-.6.85-.05.08-.48.82-.04.06-.45.87-.01.03-.32.64.26-.36-.45.42.24-.17-.31.17.35-.13-.29.05.2-.01h-.3l.98.47-.17-.22-.14-.15-.34-.31.36.58-.12-.43-.03-.1-.21-.56.07.4v-.66l-.02-.82-.03-2.26-.01-1.47-.01-1.65v.01l-.01-2.12v-1.96l-.01-1.96-.01-1.9v-1.64l-.02-1.6v-1.3l-.02-1.36-.02-1.14-.01-1.16-.02-.8-.02-.82v-.04l-.04-.6v.04l-.01-.7v-.02l-.02-.46-.01-.1-.05-.3v.06l-.03-.45-.06-.26-.1-.22a.73.73 0 0 0-.95-.38.71.71 0 0 0-.39.38Zm0 0"/><path style="stroke:none;fill-rule:nonzero;fill:#004f8b;fill-opacity:1" d="m310.16 295.2.9 1c-.88-.34-.77.3-.3.63.46.33 1.1.22 1.44-.24l.21-1.05.05-1.15c.04-.8-.03-1.02-.16-1.21l-.76-1.23-1.14-.82-1.06-.52-1.18-.46-1.18-.3-1.06-.29-1.17-.5-1.3-.43-1.13-.32-1.3-.3-1.43-.24-1.04-.45-1.17-.3-1.26-.78-1.1-.52-1.4-.42a7.16 7.16 0 0 0-1.22-.44l-1.12-.09-1.48-.02h-1.14l-1.14-.45-1.18-.06h-1.46c-1.11-.45-1.27-.49-1.44-.49l-1.46-.02-1-.4-1.48-.1h-10.78l-1.3-.04-1-.23-1.05-.2-1.4-.3-1.57-.22H248.45l-1.31.43-1.48.1h-5.2l-1.04-.29-1.54-.21h-2.72l-1.56.39c-.82.12-.96.14-1.1.18l-1.03.35-1.01.1h-1.13l-1.31.01h-1.46l-1.56.27-1.6.6-1.48.77-1.7.56-1.73.63-1.7.74-1.73.63-1.31.21h-4.84l-1.01.34-1.4.44-1.04.25-1.4.41-1.35.45-1.12.5-1.07.43-1.43.43-1.4.52-1.15.28c-1.22.29-1.6.56-1.79.96l1.07-.52c-.57 0-.8.07-1 .19l-1.1.96 1.14-.65-1.09.2-1.2.57-1.32.77-1.1 1.25-.93 1.16c.16-.6-.12-.38-.3-.1l-1.2.15c-1.03.22-1.27.33-1.47.5l-1.2.28-1.07.8-1.13.58-1.17.8c-.91.21-1.06.26-1.18.33l-1.36.72c-.62.17-.92.34-1.13.59l-.97 1.07-1.04 1.2c.09-.65-.29-.31-.43.14l-.6 1.02-.79 1.12c-.83.96-.93 1.14-.99 1.35-.7.61-.86.98-.86 1.35l-.47 1.33-.65 1.04-.56 1.15c-.42.84-.47 1-.49 1.15l-.55 1.25-.59 1.03-.29 1.13-.31 1.31v3.7l-.01 1.3v1.47l-.01 1.14V327.98c.03 1.06.08 1.21.15 1.36l.4 1.11-.01 1.03c.19.78.24.97.33 1.14l.75 1.18.83 1.22 1.1 1.18 1.29 1.04 1.42 1.31 1.03.86c.53.58.77.72 1.03.78l1.48.55 1.41.42 1.28.4 1.07.4 1.15.34 1.08.48 1.36.5 1.35.81 1.5.65 1.1.62 1.48.59 1.15.28 1.36.48 1.05.47 1.56.47 1.15.35 1.2.3 1.1.07h6.16l1.33.48 1.56.3 1.58.27 1.08.16 1.83.2 1.04.13 1.07.18 1.84.2 1.11.06h6.72l1.02-.06 1.82-.26 1.28-.4 1.92-.48 1.96-.24 1.09-.2 1.1-.16 1.18-.18 2.1.02 1.87.05 1.9.22 1.5.33 1.59.34 1.13.03 1.19.28 1.75.2h1.48l1.78.02 1.15-.2 1.8-.3h1.17l1.02-.18 1.06-.18 1.32-.14h5.3l1.26.3 1.77.2h3.3l1.32.28 1.04.17 1.37.02h4.54l1.15-.06 1.27-.18 1-.06 1.14-.14 1.03-.11 1.05-.19 1.96-.23 1.74-.03h7.68l1.3.01h2.21l1.2-.15 1.86-.43 1.26-.22 1.16-.49 1.25-.56 1-.54 1.08-.53 1.02-.43 1.1-.37 1.3-.58 1.23-.44 1.36-.41 1.06-.51 1.12-.74 1.24-.68 1.32-.97 1.05-.83 1.08-.85.95-1.11.89-1.15 1.13-.9 1.27-.81 1.13-.89 1.04-1.2.6-1.02.6-1.26.4-1.04.43-1.25.3-1.3.22-1.18.23-1.21v-4.31l-.01-1.48v-1.47l-.05-1.32-.35-1.3-.52-1.25-.45-1.32-.83-1.4-1.17-1.23-1.45-1.47-1.02-1.03-1.3-1.08-1.21-.97-1.24-1-1.18-.96-1.25-1-1.17-.97-1.29-1-1.42-.8-1.5-.93-1.32-.77-1.28-1.3-.82-1.2-1-.94c-.5-.6-.77-.81-1.1-.9l-1.09-.11-1.04.12-1.25.44-1.08 1.03-.54 1.01c-.45 1.23-.22 1.73.24 1.9a.89.89 0 0 0 1.13-.52l.64-1.33 1.34-.24c1.07.97 1.2 1.1 1.37 1.2l1 1.3 1.2 1.24 1.3 1.1 1.32.77 1.2.69 1.1.6 1.1.86 1.22.96 1.23.98 1.18.95 1.27 1 1.17.94 1.23.99 1.44 1.41 1.46 1.46.97 1.26.37 1.28.48 1.17.24 1.05-.04 1.14v2.92l-.01 1.46v1.54l-.06 1.31-.32 1.18-.34 1.22-.34 1.08-.43 1.07-.3 1.15-1.3 1.3-1.3.98-1.3.85c-1.15 1.1-1.28 1.26-1.37 1.44l-1 1.24-1.17.98-1.56 1.22-1.1.76-1.19.62-1.15.76-1.08.3-1.05.47-1.08.36-1.28.55-1.17.45c-1.1.3-1.34.44-1.52.63l-1.05.63-1.16.43-1.27.4-1.74.42-1.66.28h-12.07l-1.15.08-1.8.21-1.12.19-2.11.24-1.1.06-1.12.17-2.03.04h-4.52l-1.52-.32-1.07-.17h-3.3l-1.11-.13-1.61-.36-1.13-.03h-5.3l-1.1.2-1.95.32h-1.15l-1.87.32-1.6.15h-1.63l-1.48.01-1.18-.3-1.76-.18-1.26-.32-1.82-.38-1.09-.08-1.96-.23h-3.34l-1.4.18-1.16.17-1.09.2-1.1.17-1.24.16-1.77.43-1.21.4-1.52.2-1.5.03h-5.82l-1.78-.18-1.08-.07-1.87-.27-1.08-.18-1.83-.18-1.57-.27-1.17-.2-1.25-.37-1.55-.21h-6.18l-1.46-.47-1.57-.34-1.4-.68-1.1-.28-1.46-.5-1.3-.56-1.12-.6-1.09-.47-1.38-.71-1.48-.59-1.25-.49-1.04-.43-1.36-.51-1.22-.43-1.33-.28-1.06-.42-1.04-.71-1.27-1-1.43-1.3-1.3-1.17c-.69-.98-.78-1.14-.9-1.27-.58-1.08-.63-1.26-.73-1.44l-.1-1.05a7.84 7.84 0 0 0-.4-1.35l-.06-1V325.2l-.01-1.3v-1.48l-.01-1.13v-2.43l.02-1.05.4-1.1.53-1.2.3-1.28c.14.5.37.15.41-.24l.42-1.12.56-1.15.53-1.33c.6-.84.73-1.17.74-1.5l.78-1.04 1.01-.95.71-1.25.66-1.18c-.46.8-.23.67-.05.49l.59-1.1-.99 1.01 1.06-.58c.75-.7.9-.81 1-.95l1.11-.55 1.12-.46 1.2-.69c.8-.26 1.03-.38 1.2-.54 1-.52 1.18-.66 1.31-.84l1.17-.53 1.2-.56c1.01.08 1.2.04 1.38-.04.99-.21 1.35-.44 1.56-.8l.88-1 1.06-1.11 1.16-.57c1.3-.35 1.73-.6 1.96-1.01.34.2.8-.07 1.03-.51.82.16.96.11 1.1.04l1.02-.34 1.52-.6 1.31-.3 1.3-.58 1.2-.45 1.46-.54 1.4-.27c.78-.1 1-.15 1.19-.24l1-.51 1.34.14h2.41l1.06-.06 1.47-.26 1.15-.43 1.73-.56 1-.5 1.41-.5 1.03-.36 1.7-.62 1.47-.77 1.07-.3 1.16-.01h2.12l1.3.02 1.47-.24 1.02-.23 1.55-.38 1.54-.12h1.36l1.52.3 1.06.2h2.55l1.19.01h1.46l1 .01c.9 0 1.14-.06 1.36-.17l1.09-.49 1.3.16h12.64l1.29.44 1.35.1 1.07.3 1.45.15h6.07l1.35.01h3.39l1.47-.02 1.02.4 1.44.06 1.04.27 1.4.2h1.46l1.28.28 1.16.24 1.02-.01 1.48-.03 1.07.22 1.07.4 1.3.53 1.2.67 1.24.4 1.05.43 1.38.2c1.15.5 1.3.52 1.47.52l1.23.21 1.29.38 1.48.56 1.4.22 1.05.34c.55.2.78.3 1.02.32l1.19.5.03 1.05.04 1c.05 1.08.54 1.52 1.1 1.49.57-.03 1.01-.51.98-1.08-.2-1-.62-1.36-1.1-1.33.41.2.19-.2-.2-.32ZM349.23 181.31l-.2-.27.14.4-.02-.24a.81.81 0 0 0-.4-.63l-.17-.1a.92.92 0 0 0-1.38.74l-.02.23v-.02l-.02.26v.03l-.02.51v.01l-.01.48-.02.49-.04 1.3v.01l-.02.82-.01.65-.02.89v.82-.06l-.07.96v-.07l-.15 1.16v-.06l-.23 1.25.01-.05-.35 1.47v-.04l-.37 1.42-.03.14-.18 1.3.02-.1-.32 1.42-.02.1-.18 1.3.04-.17-.35 1.19-.04.18-.15 1.13v-.05l-.17 1.05-.02.2-.01.99v.1l.05.73.02.16.14.68.1.53c.03.17.1.33.2.47l.33.5.25.26.36.3c.15.12.32.2.5.25l.66.15.15.02.6.07.12.01.82.01.65.01.83.01.77.01.82.01h.2l.94-.15h.08l.8-.17.28-.1.77-.34-.33.1.83-.14.28-.08.82-.34-.3.08 1-.17.2-.05 1.01-.34-.19.05 1.13-.2h.02l.98-.18-.21.03.99-.02h.06l.9-.06h.03l.65-.05h.04l.81-.1.08-.02.63-.12.17-.05.64-.26-.23.06.48-.06a.9.9 0 0 0 .4-.16l.44-.3h-.02l.3-.19-.1.05.23-.11a.82.82 0 0 0 .45-.74v-1.13a.82.82 0 0 0-1.64 0v1.13l.45-.73-.23.1.05-.01-.33.14-.07.04-.47.25.44-.11h-.48l-.28.03-.66.2.46-.02-.63-.12-.08-.02-.8-.1h-.05l-.65-.05h-.03l-.9-.06h-.06l-1-.01-.21.01-1 .16h.04l-1.14.14-.19.04-1.03.28.14-.03-1 .17-.28.1-.82.33.3-.09-.83.15-.32.09-.77.34.25-.09-.8.18.1-.01-.94.15.2-.02H351l-.77.02h-.83l-.65.02-.82.01h.12l-.6-.04.16.02-.66-.13.5.22-.37-.27.28.27-.36-.48.21.47-.12-.54v.02l-.14-.68.02.15-.06-.73v.09-1l-.02.2.16-1.05v-.04l.14-1.14-.04.19.33-1.2.04-.17.16-1.3-.02.1.3-1.42.02-.1.16-1.3-.03.13.36-1.41v-.04l.34-1.47.01-.06.22-1.25v-.06l.14-1.17v-.07l.05-.96v-.07l-.02-.82-.01-.88v-.01l-.02-.65-.01-.82v-.01l-.04-1.3-.02-.49-.01-.48-.03-.52v-.03l-.02-.26v.02l-.01-.23-.46.86.17-.1a.81.81 0 1 0-1.15-.38l.1.21.18.26.24.23a.74.74 0 0 0 1.1-.98Zm0 0"/><path style="stroke:none;fill-rule:nonzero;fill:#004f8b;fill-opacity:1" d="m351.32 194.6.04-.34v-.06l.02-.3v.08l.04-.34-.26.5.23-.22.09-.1.3-.37-.46.3.5-.13.16-.07.55-.27-.26.08.7-.13.32-.12.6-.35-.14.07.82-.32-.07.03.8-.25h.02l1-.34h.03l.81-.3.04-.02.81-.33.08-.03.8-.4-.33.1 1-.15.15-.03.81-.24-.06.01.81-.19-.12.02.6-.06.33-.1.58-.27-.28.08.54-.06h-.09.48c.2 0 .39-.06.54-.18l.28-.23.14-.14.23-.28a.86.86 0 0 0-1.35-1.08l-.23.29.14-.14-.29.23.54-.19h-.57l-.54.06h.1l-.64-.02h-.1l-.6.06-.1.01-.82.15-.07.02-.83.2.11-.02-.99.14-.33.1-.79.4.11-.05-.82.3.03-.01-.83.26-.02.01-1 .35h.02l-.79.26-.09.04-.81.36-.16.08-.58.39.26-.13-.67.21-.25.12-.52.35.16-.09-.47.2a.9.9 0 0 0-.43.37l-.26.4-.02.05-.16.28a.85.85 0 0 0-.09.53l.05.34v-.09.37l.05.33a.74.74 0 0 0 1.47 0ZM350.34 178.93l.07-.5v-.05l.04-.48-.2.49.23-.28-.15.14.26-.2-.46.18.66-.05.14-.02.68-.16-.16.02.68-.03.15-.02.68-.14-.14.02.74-.05h-.07l1 .02h.01l1.05-.01h1.18l1.02-.06 1.15-.05h-.13l1.2.12h-.04l1.14.17-.13-.03 1.17.37-.14-.06.96.52-.11-.08.99.76a.8.8 0 1 0 1-1.28l-1-.76-.12-.08-.96-.5-.14-.06-1.16-.37-.13-.03-1.13-.17h.02l-1.18-.2-.1-.02-1.17-.05-1.01-.05h-1.18l-1.05-.02h-.02l-.99.01h-.08l-.73.08-.18.03-.67.2.15-.04-.68.09-.12.02-.68.18.13-.02-.65.07a.88.88 0 0 0-.45.19l-.26.2-.13.15-.23.28a.85.85 0 0 0-.17.58l.04.48v.04l.06.5a.76.76 0 0 0 1.5 0ZM371.42 189.61v.48l.01.52.02.16.18.71.03.1.32.8-.03-.1.23.95.01.05.32 1v-.02l.29.97.05.13.49 1-.05-.13.3.97v.02l.32 1 .3.93.1.2.5.8v.02l.47.72.09.11.47.53-.09-.1.33.48-.02-.03.3.49-.07-.13.16.35.2.31.33.33.02.02.13.13.22.16.33.18c.13.07.28.12.43.13h.18c.19.03.38-.01.56-.1l.31-.16c.2-.1.35-.24.46-.43l.18-.3.03-.07.32-.65.08-.23.18-.77-.03.12.35-.99.05-.17.17-.97-.03.15.31-1 .01-.02.33-1.13-.03.1.48-1.16v-.01l.45-1.15-.02.05.46-1-.02.02.45-.91.04-.1.3-.83-.08.16.42-.72v-.02l.28-.5-.07.11.27-.35-.03.03.3-.35-.1.1.14-.13-.1.07.32-.2v-.01l.13-.09-.37.14.34-.04-.6-.21.17.17.22.15.31.14-.34-.32.34.62.1.15.47.53a.74.74 0 0 0 1.11-.98l-.48-.54.1.14-.34-.63a.76.76 0 0 0-.35-.32l-.3-.14.21.15-.17-.17a.75.75 0 0 0-.45-.21l-.34-.04-.2.01-.14.02-.14.03-.36.13.11-.03-.18.03a.93.93 0 0 0-.46.25l-.33.32-.02.03-.3.33-.07.07-.34.46-.02.02-.48.7-.12.2-.33.82.05-.1-.47.9-.5.98-.03.05-.51 1.13-.02.03-.48 1.16-.04.1-.35 1.14-.3.99-.04.14-.16.97.04-.17-.33 1-.04.12-.16.77.08-.24-.3.65.02-.04-.16.32.41-.44-.3.18.47-.15-.18.02.52.09-.34-.16.15.08-.15-.1.08.07-.35-.3.23.28-.2-.33-.03-.07-.32-.47-.03-.03-.35-.48-.09-.1-.5-.5.1.12-.49-.7.02.03-.52-.79.1.2-.33-.93-.36-1v.02l-.32-.96-.06-.13-.53-.98.06.12-.34-.95v-.01l-.36-.99.01.05-.27-.93-.04-.1-.36-.79.03.1-.22-.71.03.23v-.52l.01-.48a.73.73 0 1 0-1.47-.01v.01ZM393.7 193.3h.68l-.2-.03.13.03.12.03.34.04c.14.01.29-.01.42-.07l.33-.14-.12.04.51-.14.35-.19.33-.3-.25.17.35-.15a.97.97 0 0 0 .37-.27l.32-.4-.25.22.51-.3.27-.25.32-.42.02-.03.35-.5a.95.95 0 0 0 .16-.4l.07-.49-.03.15.16-.48.04-.2.05-.5V187.06l-.06-.51-.05-.2-.16-.49-.08-.17-.25-.42-.26-.3-.48-.34-.5-.36-.24-.13-.48-.17-.49-.18-.31-.05h-1.81l-.39.07-.65.28-.3.2-.49.48-.03.04-.49.54-.1.13-.51.83-.01.01-.49.82-.03.06-.48.96-.06.14-.34 1.05-.01.05-.3 1.13-.04.15-.11 1.05v-.04l-.17 1.13v.08l-.08 1.05v.05l-.02.97-.01.99-.02.96.02.2.16.83.15.83.13.35.36.6-.03-.07.33.66.1.17.42.54.06.08.48.52.1.1.5.42.08.06.48.34-.05-.04.47.38c.12.1.26.17.42.21l.49.13-.3-.13.53.34c.14.09.3.14.48.16l.48.03-.23-.04.5.15.33.05.51-.02.11-.01.47-.08.47-.07h-.12.5l.34-.07.49-.22.03-.02.48-.25.2-.16.49-.5a.79.79 0 0 0-.04-1.12.8.8 0 0 0-1.1.03l-.49.51.2-.16-.48.26.03-.02-.48.23.34-.08h-.51l.12.02-.47-.08-.47-.07.1.02-.5-.13.12.03-.48-.18-.22-.06-.48-.08.5.23-.48-.4-.25-.15-.46-.21.2.12-.49-.36-.01-.01-.49-.34.07.06-.51-.43.09.08-.5-.5.07.07-.43-.53.11.17-.34-.64-.05-.07-.37-.6.14.35-.19-.82-.18-.82.02.21-.01-.96-.02-1-.01-.96v.06l.04-1.05v.1l.16-1.13v-.04l.11-1.05-.03.16.32-1.13-.01.03.34-1.04-.05.13.48-.97-.03.06.47-.83-.01.03.5-.82-.1.13.5-.54-.04.04.48-.49-.3.2.65-.28-.38.08h1.8l-.3-.06.48.17.48.16-.24-.12.5.37h.02l.49.34-.27-.28.26.42-.08-.17.17.48-.05-.2.06.5v-.11l-.01.96v.49-.1l-.06.5.05-.22-.18.48-.04.15-.1.48.14-.33-.33.51.03-.03-.3.43.26-.26-.5.32-.25.23-.31.4.26-.24-.32.2-.22.17-.3.33.34-.23-.5.2-.15.08-.3.2.36-.14-.34.04-.12.02-.13.04.2-.03h-.68a.74.74 0 0 0 0 1.48ZM406.2 198.32l-.05.4.02-.11-.14.48-.02.1-.06.36.02-.07-.17.65v.02l-.14.55v.06l-.08.47-.01.08-.04.65-.05.65.03.3.13.5.07.2.17.34c.12.25.34.43.6.51l.36.13-.24-.13.29.2c.17.11.37.17.58.16h.48c.24 0 .48-.1.66-.27l.28-.25c.14-.12.24-.28.3-.46l.13-.49.04-.2.04-.58v-.09l-.01-.79-.01-.76v-.82l-.02-1.1v-.97.01-1.16l-.01-1.14V193.57l-.02.14.18-1.19.17-1.13v.02l.18-1v-.15l.01-.82-.03.23.15-.6v.02l.17-.64-.1.25.22-.36.04-.07.18-.34-.1.14.1-.1-.35.27.34-.17-.3.1.18-.03-.16.01h.84l-.6-.2.26.2-.1-.08.34.33.01.01.44.42-.11-.12.35.47.06.07.44.5.06.05.5.47-.13-.13.47.64-.08-.12.33.64.07.13.46.63.03.04.37.45.01.01.46.54-.02-.02.51.65.03.04.49.54-.11-.16.48.94.05.08.5.74c.25.34.72.43 1.07.19a.76.76 0 0 0 .2-1.06l-.52-.74.05.09-.48-.94-.1-.16-.5-.54.04.04-.5-.65.03.05-.4-.59.03.03-.31-.5-.38-.67.04.08-.3-.66-.07-.13-.45-.65-.09-.12-.46-.5.05.07-.41-.52.04.05-.33-.49-.1-.13-.42-.43-.01-.01-.34-.34-.09-.09-.25-.2a1 1 0 0 0-.61-.21H410.2l-.16.02-.18.03-.26.09-.34.17c-.13.07-.25.17-.34.3l-.09.11-.09.15-.16.34.04-.07-.22.37-.12.27-.16.65v.02l-.13.6-.03.2v.83l.02-.16-.17.99v.02l-.17 1.14-.16 1.2-.01.12V196.89l-.01 1.16v.96l-.02 1.1v.82l-.02.77-.01.78v-.1l-.06.56.03-.15-.14.48.29-.47-.29.25.7-.25-.48-.01.58.2-.27-.2-.33-.17-.38-.1.64.52-.17-.34.01.03-.2-.46.08.34-.09-1.3v-.08l-.08-.47.01.1-.02-.56-.02.2.17-.64.01-.08.06-.37-.02.1.14-.48.02-.1.06-.4a.74.74 0 0 0-.63-.84.74.74 0 0 0-.83.63ZM423.86 190.94l-.05.25a.8.8 0 0 0 .06.48l.22.46.14.21.3.32.28.3.3.32.06.05.33.3.06.04.48.35.03.03.65.43.07.04.66.34.1.05.65.25-.17-.09.51.34.25.11.48.13-.27-.13.48.35.32.14.49.1-.13-.04.5.2.32.06h.59l.34-.05.32-.12.3-.18.07-.05.17-.12.12-.11.3-.35.13-.2.15-.33-.06.1.32-.5.1-.22.12-.52-.1.23.32-.5.03-.05.26-.5v.02l.28-.52-.06.1.4-.49.12-.23.14-.48-.1.2.35-.5.08-.16.17-.5-.07.13.2-.3.03-.07.17-.34-.03.07.07-.11-.15.16.24-.2a.67.67 0 1 0-1.09-.62v.05l-.01.07v.14-.06l-.05.34v.05l-.06.64-.04.6v.02l-.04.82.03-.18-.22.81v.04l-.21.95-.25 1.16-.02.07-.16 1.13v-.04l-.24 1.3.03-.12-.35 1.13v-.01l-.38 1.16-.03.13-.18.96v-.02l-.2.99-.01.03-.18.99-.01.13-.05.8.01-.15-.16.83-.01.1-.06.66V205.57l.07.59v-.01l.07.64.07.27.17.4.04.08.17.3.18.24.37.34-.17-.2.28.48c.26.43.82.58 1.26.32a.91.91 0 0 0 .33-1.26l-.29-.48-.16-.2-.38-.35.19.24-.17-.31.04.07-.17-.4.07.46.06-.64v.01l.07-.59v-.94.09l.06-.65-.02.13.18-.82.02-.13.07-.8-.01.08.16-1-.01.04.19-1v-.02l.16-.96-.03.13.36-1.17v-.01l.33-1.15.03-.1.21-1.32v-.05l.13-1.14-.01.07.2-1.17v-.04l.13-.97v.03l.13-.84.01-.17-.04-.82v-.02l-.05-.6-.04-.64-.01-.05-.05-.34.01.06-.01-.14v-.07l-.02-.05a.67.67 0 0 0-.77-.56.65.65 0 0 0-.36.18l-.21.2-.16.25-.05.12.03-.06-.17.34.03-.06-.2.31-.06.14-.17.51.08-.16-.34.48-.1.19-.13.48.12-.23-.4.48-.04.05-.33.5-.31.47.03-.04-.36.47-.11.21-.17.5.13-.22-.37.47-.04.05-.19.3.1-.12-.32.33.17-.14-.18.1.06-.02-.32.15.34-.08h-.34.03-.48l.3.07-.5-.2-.1-.03-.48-.13.28.13-.49-.34-.23-.11-.48-.15.23.11-.5-.35-.17-.08-.65-.26.07.03-.65-.34.07.04-.65-.41h.01l-.49-.32.05.03-.35-.27.07.05-.32-.3-.3-.28-.32-.3.16.2-.24-.44.08.23-.04-.25a.75.75 0 0 0-.88-.6c-.3.06-.54.3-.6.6ZM451.63 193.04l-.45-.53-.25-.3-.06-.05-.44-.43-.13-.1-.2-.12.13.1-.33-.32-.35-.2-.43-.13.17.07-.34-.17-.17-.07-.26-.07-.2-.03-.33-.01h.02l-.17-.02H447.5l-.37.05-.11.05-.29.18-.18.16c-.1.1-.2.23-.25.37l-.09.26-.18.52-.04.2-.07.66.03-.16-.18.65-.03.15-.07.65-.01.1v.49c0 .14.03.29.09.42l.22.48.06.1.21.36c.08.12.18.22.29.3l.5.36c.12.08.25.13.39.17l.48.1-.5-.26.45.42c.1.1.23.18.37.22l.5.2.14.03.71.16.22.02.54.02h.77l.54-.04.2-.04.5-.13.16-.06.65-.28.22-.13.66-.48.14-.13.69-.71c.1-.1.17-.22.23-.35l.3-.7.02-.03.33-.82.08-.3.12-.93-.07.28.32-.8.08-.3.09-.76v.02l.11-.82v-.1l.04-.65V188.93l-.02-.6-.08-.36-.2-.5-.11-.2-.3-.42a.98.98 0 0 0-.42-.35l-.49-.22.14.07-.5-.3-.22-.11-.71-.23-.3-.04h-.57l-.77.01-.65.02-.39.08-.53.24-.04.02-.64.32-.1.05-.5.33-.05.04-.47.35.04-.03-.5.33a.86.86 0 0 0-.28.32l-.35.7-.01.01-.32.66.04-.06-.4.67-.1.3-.06.65.02-.12-.16.65v-.01l-.25.87.01-.04-.28.76a.7.7 0 0 0 .41.9.7.7 0 0 0 .9-.41l.28-.77.02-.05.25-.87v-.02l.18-.66.01-.1.06-.66-.13.34.45-.63.04-.06.37-.64-.07.1.49-.6-.24.2.52-.29.05-.03.5-.32-.16.07.57-.23h.03l.65-.31-.04.02.54-.22-.36.07h.65l.76.02h.57l-.3-.05.71.23-.24-.11.48.32.1.06.48.24-.4-.36.28.43-.1-.2.19.51-.06-.38-.02.6v.02l-.01.82.01-.13-.08.65.01-.08-.17.82v.02l-.14.76.08-.26-.35.78-.09.28-.16.94.07-.26-.34.82.01-.02-.31.7.22-.33-.68.71.15-.13-.65.48.24-.13-.66.28.11-.04-.48.15.21-.05-.54.07h.13-.66l-.54.02.22.02-.7-.13.12.03-.51-.15.32.16-.5-.37c-.14-.1-.3-.17-.48-.2l-.48-.06.4.15-.51-.33.21.18-.28-.31.16.24-.23-.48.1.42v-.49.07l.03-.66-.03.18.16-.66.03-.16.05-.65-.05.22.17-.51v-.01l.08-.26-.2.35.16-.18-.2.17.11-.07-.45.14.31-.01h.03l.17-.01h-.02l.34-.01-.19-.02.26.05-.22-.07.34.16.16.06.43.1-.35-.18.35.3.16.12.2.1-.17-.12.45.42-.04-.05.26.28.1.09.56.42a.74.74 0 0 0 1-1.06ZM464.24 186.66l-.43.48-.06.06-.34.48-.07.11-.24.48-.07.23-.08.57.01-.09-.16.65-.02.12-.08.76.01-.1-.21.95-.02.13-.08 1v.04l-.02.77v-.03l-.04.85-.03.65v.03l-.02.88.08.4.21.54-.06-.24.09.66c.03.2.12.4.26.56l.3.34.2.17.33.23c.21.14.46.2.7.19l.5-.05.23-.05.48-.15.2-.1.51-.28.24-.18.48-.49.03-.03.65-.7.05-.07.65-.82-.02.02.65-.77.1-.14.48-.8-.06.09.5-.69.06-.08.47-.8-.07.1.47-.6.04-.05.46-.7-.17.2.44-.39.1-.09.3-.34-.57.32.46-.09c.17-.03.33-.1.47-.23l.26-.22-.65.24h.34-.04l.31.01-.88-.6.1.24.16.24.22.26-.24-.67v.51l.05.35.16.48-.02-.05.14.48.02.06.17.48-.06-.27.04.51.1.4.24.46-.1-.32.07.49c.03.22.13.43.3.58l.48.45-.26-.47.1.48.07.2.25.48.11.18.24.27.26.2.31.14.07.03.48.17.16.03.5.06-.28-.1.71.43.12.06.76.28a.7.7 0 0 0 .5-1.31l-.77-.29.11.06-.7-.42-.29-.1-.5-.06.15.04-.48-.17.4.36-.15-.3-.08-.14-.2-.29.08.16-.21-.49.07.32-.01-.49a.88.88 0 0 0-.15-.46l-.35-.55.15.43-.05-.49-.08-.29-.2-.49.07.47.04-.5c0-.15-.01-.3-.06-.43l-.18-.48.02.04-.15-.48-.01-.05-.18-.48.06.34v-.51c0-.25-.1-.5-.28-.68l-.23-.25.14.2-.12-.22a1 1 0 0 0-.91-.51l-.31.01h.04-.34a.97.97 0 0 0-.67.25l-.25.23.48-.24-.46.09a1 1 0 0 0-.53.28l-.32.34.13-.1-.47.34-.2.21-.5.67.04-.05-.5.58-.09.13-.49.78.06-.08-.51.67-.07.1-.49.78.1-.14-.65.77-.03.03-.65.81.05-.05-.66.7.04-.03-.49.48.25-.18-.51.28.13-.07-.47.19.23-.07-.48.07.73.16-.34-.21.2.16-.32-.34.27.51-.14-.65-.07-.2-.24-.54.1.4-.02-.88v-.03l-.03-.65-.05-.85v.03l-.01-.77v.06l.03-1v.09l.12-.97v-.08l.04-.76-.01.1.12-.65v-.1l.04-.56-.07.27.22-.48-.07.11.34-.48-.05.06.41-.5a.74.74 0 0 0-1.12-.98ZM486.39 191.13l.48-.45-.1.08.48-.31.18-.18.35-.45-.07.08.32-.32.39-.4.11-.16.28-.46-.13.17.47-.47a.84.84 0 0 0 .24-.46l.09-.47-.03.1.16-.5.04-.15.06-.48.01-.1.01-.49v-.05l-.01-.34v.02V184.7l-.03-.18-.06-.31-.06-.18-.16-.34a.9.9 0 0 0-.48-.46l-.29-.11-.03-.01-.48-.17-.18-.04-.54-.07h-.1l-.68-.01h-.1l-.53.05-.14.03-.65.16-.19.07-.54.27-.23.16-.5.48-.1.11-.51.7-.05.08-.5.82-.45.75-.05.1-.36.8.06-.1-.4.62-.12.3-.2.78-.01.01-.2.76-.02.24-.03.82v-.02l-.04.88v.03l-.01.65-.02.65c0 .17.03.34.1.5l.2.48.07.13.29.52c.1.18.25.34.44.45l.44.27.2.1.47.18.28.07.53.09.18.01.65.01h.78l.82.01H488.06l1.05-.01 1.13-.02.2-.02 1.04-.18h.02l.96-.18.25-.07.96-.4-.15.05.98-.25.16-.05.94-.41-.03.01.97-.38.13-.06.74-.43-.1.05.79-.3-.16.03.62-.1.21-.07.91-.43-.07.03.77-.28a.85.85 0 0 0 .5-1.1.85.85 0 0 0-1.1-.5l-.76.3-.06.02-.9.42.2-.06-.62.11-.16.04-.8.32.2-.05-.85.12-.14.03-1 .3h-.04l-.98.33.25-.05-1 .09-.16.02-1 .23.06-.02-.97.17h.02l-1.05.16.22-.02-1.13-.02-1.05-.02h-1.87l-.82.01h-.78l-.65.02h.1l-.55-.03.3.05-.48-.15.2.08-.46-.23.47.41-.33-.5.06.11-.24-.47.13.53-.01-.65-.02-.65v-.03l-.04-.88v.02l-.02-.82-.02.24.15-.77v-.02l.14-.8-.1.3.34-.67.04-.1.31-.84-.04.1.4-.77-.02.04.47-.83-.05.07.5-.71-.1.11.48-.49-.21.17.53-.3-.2.09.65-.18-.14.03.54-.06h-.09.68l-.09-.01.54.04-.22-.04.48.17-.04-.02.29.12-.5-.5.14.34-.05-.19.04.31v-.14l-.01.34v.31-.02l-.02.34v.05l.01.49v-.11l-.04.48.02-.12-.13.51-.02.16-.02.49.2-.52-.43.5-.12.19-.23.49.03-.06-.28.49.12-.15-.32.3-.06.09-.34.45.19-.18-.49.32-.1.08-.48.45a.73.73 0 1 0 1 1.07ZM541.04 184.21l.01-.28v.05l.02-.22a.77.77 0 1 0-1.53-.15v.27-.09l-.02.11v.09l-.02.34v.33l-.02.48v.57l-.02.65-.01.76-.01.97-.01 1-.02.96-.01 1.16-.02 1.13-.01 1.37-.01 1.05v2.16-.01l-.02 1.98v1.41l.01.57.01.13.04.25v-.05l.01.23.02.1.05.22c.05.23.2.43.4.55l.03.02a.8.8 0 0 0 1.09-.3.8.8 0 0 0 .1-.44l-.01-.34v.02l-.02-.65-.03-.99-.02-.8v-.01l-.05-.94v.02l-.02-.99v.02-11.2l-.01-.83-.02.16.22-.94.02-.08.05-.54-.03.15.26-.7.17-.49.04-.13.06-.51-.03.14.18-.48-.04.1.17-.32-.01.02.17-.29-.08.11.08-.09-.32.22.47-.17-.4.04.25.03-.27-.08.5.25.26.07.48.08-.62-.4.3.44.08.11.33.36-.11-.15.27.43-.01-.01.3.51.1.14.42.49-.23-.55.05.49c.02.19.09.37.2.52l.4.49-.17-.33.16.52-.01-.04.13.49-.03-.3-.01.49v.52-.02l-.01.48v.07l.02.48.06-.4-.2.52.08-.16-.28.48.34-.34-.47.29.09-.05-.5.25.34-.1-.48.04h-.02l-.48.06h.05l-.48.02-.5.02-.14.02-.3.07.06-.01-.33.04.68.32-.14-.21a.67.67 0 0 0-.45-.3l-.2-.04.53.63v-.43l-.46.62.2-.06a.63.63 0 0 0 .43-.43l.06-.2-.62.46h.23a.64.64 0 0 0 0-1.28h-.23a.64.64 0 0 0-.61.46l-.06.2.44-.44-.2.06a.64.64 0 0 0-.46.61v.43c0 .26.16.5.4.6l.19.07-.37-.37.1.24c.08.23.3.39.54.42l.33.05-.06-.01.3.06.13.02.51.03.48.02h-.05l.48.05h.02l.48.04c.15.01.29 0 .42-.06l.52-.2.04-.02.5-.22a1 1 0 0 0 .46-.4l.28-.48.07-.14.2-.5.08-.35.02-.48v-.07l-.01-.48v.03-1.01l-.05-.29-.15-.48-.01-.03-.18-.51-.18-.32-.4-.48.22.52-.07-.48a.94.94 0 0 0-.24-.54l-.43-.47.1.13-.32-.5-.03-.05-.3-.41-.13-.15-.35-.33.1.11-.33-.41a.91.91 0 0 0-.64-.34l-.48-.04.26.06-.51-.21a.87.87 0 0 0-.45-.06l-.25.03-.35.13-.42.27c-.18.12-.31.3-.35.51l-.03.12.03-.08-.1.32-.04.12-.05.36.03-.12-.16.48-.03.14-.05.52.03-.15-.16.48-.25.7-.04.15-.05.54.02-.08-.23.93-.02.14-.01.82v11.2l-.03.98v-.01l-.05.93v.01l-.02.8-.02 1v-.01l-.02.65v-.02l-.02.34a.8.8 0 0 0 1.2.74l.02-.02c.2-.12.35-.32.4-.55l.05-.21.02-.11.02-.23v.05l.03-.25.02-.13v-1.23.01l.01-.73v-.03l-.01-1.98v-.96l-.02-1.2v-1.04l-.01-1.36v-.01l-.02-1.13-.02-1.16-.01-.96-.01-1-.02-.96v-.77l-.02-.65-.01-.57v-.48l-.02-.32v-.01l-.01-.34-.01-.09-.02-.1.01.08v-.23a.77.77 0 1 0-1.53.06v.05l.02.22v-.05.28c.02.41.36.73.76.72.39-.02.7-.33.71-.72ZM556.72 186.19l.01-.29-.06-.35-.2-.43-.1-.17-.06-.06-.22-.18-.45-.24-.33-.1H555h.02l-.28-.03h-.01l-.3-.02-.38.07-.17.06-.09.05-.3.17a.84.84 0 0 0-.36.4l-.11.3.16-.26-.45.48a.8.8 0 0 0-.22.46l-.06.48.03-.12-.14.52.08-.2-.28.47-.11.32-.07.48.05-.2-.24.65-.06.3v.65l.04.28.22.65.06.13.27.52.06.1.36.49.08.09.47.5.1.09.4.29.3.15.65.18.15.03.54.05h.05l.48.03h.06l.68-.02.2-.02.66-.15.15-.06.66-.27.31-.2.5-.47.16-.2.3-.5-.01.03.33-.51.14-.33.11-.48-.19.4.4-.5c.12-.15.19-.33.2-.52l.05-.52-.04.21.22-.71.04-.3v-1.26l-.02-.48-.01-.48a.89.89 0 0 0-.12-.41l-.24-.44-.17-.23-.32-.3-.02-.02-.24-.21-.2-.14-.43-.2-.19-.07-.28-.06.14.05-.48-.2-.33-.07h-.52l-.32.01h.01-.37l-.12.02-.43.02-.15.03-.06.01-.33.2-.22.2c-.3.3-.32.79-.02 1.1l.03.03-.2-.49.01.46.03.18.02.05-.03-.12.03.25v-.08.23l.07.31.23.43.12.16.28.28c.26.26.68.26.94 0a.66.66 0 0 0 0-.94l-.28-.29.12.16-.23-.43.08.32v-.23.08l.03-.25-.03.12.02-.05.03-.18.01-.46-.21.5.03-.04-.07.06.24-.19-.7.15.06.01.15.03.43.03h.49l.3.02h.53l-.32-.07.49.2.17.05.28.06-.28-.1.42.24-.2-.17.2.24.03.02.3.32-.17-.25.21.46-.08-.4-.01.48-.02.48v1.27l.04-.29-.23.7-.04.17-.07.51.27-.54-.45.46a.98.98 0 0 0-.26.46l-.12.48.15-.32-.34.5-.33.48.11-.14-.47.5.3-.22-.64.3.14-.06-.65.19.21-.04-.68.04h.02l-.48.03h.05l-.54-.01.21.03-.66-.16.3.13-.4-.27.11.1-.5-.48.09.08-.38-.47.07.11-.29-.5.07.13-.24-.65.05.28v-.65l-.04.26.2-.66.04-.16.05-.48-.1.32.27-.48.08-.2.15-.5.02-.13.06-.48-.22.47.46-.49.16-.25.11-.29-.37.42.3-.16-.17.07.17-.05-.15.03.31-.03.29-.01H555l.3-.02-.35-.07.45.21-.17-.1.06.05-.19-.25.2.42-.07-.29.02.29a.74.74 0 0 0 1.47 0ZM566.84 184.66l-.23-.25.17.29-.09-.3a.74.74 0 0 0-.34-.44l-.3-.18-.24-.1-.34-.06.35.17-.28-.24a.87.87 0 0 0-.48-.2l-.34-.02h.06l-.1-.01a.85.85 0 0 0-.48.06l-.43.18a.9.9 0 0 0-.46.44l-.05.11-.17.33.14-.2-.28.31a.9.9 0 0 0-.24.58l-.01.51.08-.35-.23.49-.08.37v.48-.01 1.1l.05.43.08.28.16.34-.08-.25.07.43c.02.19.1.36.24.5l.33.35.14.13.31.2.06.05.54.32.24.1.64.19.14.03.54.07-.18-.04.7.23.3.05.48.01c.14 0 .28-.01.41-.07l.52-.18.16-.08.48-.27.24-.18.48-.49.02-.02.48-.5.15-.2.28-.48v-.01l.29-.48.1-.25.15-.48.04-.22.04-.52-.05.25.16-.49.05-.34-.01-.48-.09-.4-.2-.5-.05-.1-.27-.47-.03-.04-.3-.47-.14-.18-.44-.44-.04-.04-.35-.3.06.05-.43-.44a.94.94 0 0 0-.65-.3h-.35l.4.1-.32-.16-.29-.1-.34-.04a.88.88 0 0 0-.6.13l-.41.26-.15.11-.33.32-.08.09-.18.23-.13.25-.15.43.02-.06-.15.35-.03.07-.14.43-.04.29.03.48v.08l.07.33-.01-.04.03.3v-.06.82l.06.26.22.51.04.07.28.48a.65.65 0 0 0 1.12-.66l-.28-.48.03.06-.22-.5.05.26v-.82.06l.03-.3v.04l.05-.33.01-.08.03-.48-.07.28.2-.41-.03.05.18-.33.04-.06.19-.42-.17.24.21-.21-.06.05.36-.3-.21.13.43-.2-.54.07.34.07-.28-.11.3.18.34.1.34.06-.57-.3.41.46.05.04.34.32-.07-.06.41.47-.12-.17.27.49-.02-.04.24.49-.07-.21.13.52-.04-.27v.48l.07-.37-.19.48-.06.24-.07.5.03-.16-.14.49.11-.25-.29.48-.28.5.15-.2-.48.5.02-.02-.48.48.2-.16-.47.29.15-.08-.5.2.37-.08-.48.02.28.03-.72-.17-.16-.03-.54-.03.16.02-.66-.15.16.05-.58-.25.1.06-.31-.19.17.13-.35-.33.27.46-.1-.43-.09-.2-.17-.34.1.29-.08-.43.02.13-.01-.49-.01-.5v.01-.48l-.08.37.23-.48.08-.3.04-.51-.23.53.28-.31.15-.2.16-.35v.01l.05-.1-.38.38.42-.21-.28.08.11-.01h-.06l.34-.02-.42-.08.34.16.23.06.34.04-.25-.07.32.16-.33-.33.14.27.1.13.22.27a.73.73 0 1 0 1.1-.98ZM576.34 184.12l-.1.95v.02l-.04.5v.03l-.02.49v-.06l-.02.28-.01.08v.43c-.01.2.05.4.17.57l.22.3-.18-.48.04.48c.03.3.2.58.47.73l.42.26-.44-.6.06.22c.1.43.47.73.91.74h.23l-.28-.04.05.02.4.04.14-.02h-.08.06-.02.23c.53 0 .96-.43.96-.96v-.06l-.02-.23v.05-.74l-.01-.5v-.01l-.01-.54v.01V182.9l.01-.65v-.5.02l.02-.48.02-.48-.01.1.07-.44-.13.35.18-.3.1-.26.11-.4-.64.7.35-.12c.16-.06.3-.16.42-.29l.19-.21-.28.23.3-.18-.35.12.34-.05.24-.06.48-.2-.37.08h.48-.01.51l.49-.01-.3-.04.72.2.1.02.6.1-.22-.06.83.33.2.06.77.14-.13-.03.85.26.21.05 1.13.08-.11-.02.82.18h.08l1.2.14h-.05l1 .17h-.01l.96.17-.06-.02.76.2-.1-.03.7.28a.86.86 0 0 0 .64-1.6l-.7-.28-.1-.03-.77-.2-.07-.02-.96-.16-1-.18-1.18-.2.08.02-.81-.23-.13-.02-1.13-.14.32.1-.79-.41-.28-.1-.76-.14.2.06-.81-.35-.2-.06-.6-.12.08.02-.7-.2-.28-.05h-1 .01l-.48-.01c-.15 0-.3.03-.44.08l-.47.2.21-.06-.34.07-.3.1-.31.17c-.16.1-.3.22-.39.37l-.15.24.43-.39-.33.16a1 1 0 0 0-.57.75l-.07.4.1-.28-.17.32-.1.34-.04.46v.13l.01.48.02.48v-.03.52l.01 1.3.01.65v1.24-.01.65-.01l-.02.54v.94l-.01.31v-.05l-.01.23.96-.9h-.23.02-.06.08l-.15-.01-.39.04-.05.02.28-.05h-.23l.95.72-.07-.23a.95.95 0 0 0-.42-.57l-.43-.26.45.69-.07-.48a.9.9 0 0 0-.21-.48l-.24-.28.23.59-.01-.43v-.08l-.04-.28v.06l-.02-.49v-.02l-.04-.5v-.03l-.1-.95a.74.74 0 0 0-1.47 0ZM358.16 229.29V229v.04-.23l-.48.66.17-.06.26-.16.14-.13-.3.17.18-.05c.3-.08.51-.35.53-.65l.02-.23-.07.27.08-.15-.32.33.2-.11a.82.82 0 0 0 .34-.38l.07-.17-.17.25.21-.21-.4.23.07-.02.3-.15.2-.14-.35.16.05-.01-.86-.24.22.2-.3-.72V227.86l-.01.65-.01.6-.01.82-.01.97v1.16l-.02 1.36v-.01l-.02 1.3v2.91-.05l-.05 1.3v-.08l-.17 1.3v.1l-.06 1.13v-.09l-.16 1.3v.09l-.06 1.04v1.08l.06.93.03.65v-.02l.03.88.02.15.1.51v-.04l.09.65v-.11.34c0 .2.08.4.23.54l.23.2c.13.12.3.18.48.18h.76a.72.72 0 1 0 0-1.44h-.76l.47.18-.23-.2.25.54v-.34.1l.08-.64v.04l.1-.51.02-.15.03-.88v.02l.03-.65.06-.93v-1.02.06l.05-1.05v.08l.17-1.3.01-.09.06-1.13v.07l.16-1.3.01-.1.05-1.3V234.72l-.01-1.3v.01l-.01-1.36-.01-1.16v-.97l-.02-.82v-.6l-.02-.65V227.5a.97.97 0 0 0-.37-.72l-.24-.19a.94.94 0 0 0-1.2.03l-.05.04-.15.15-.14.2-.14.3-.02.07.15-.32-.18.24-.16.32-.04.18.17-.34-.14.16-.17.36-.03.18-.01.2.02.23.47-.75-.17.06-.27.19-.14.14.3-.2-.16.06c-.31.1-.51.4-.5.72l.01.23V229v.29c0 .39.31.71.71.72.4 0 .72-.32.72-.71v-.01ZM364.53 239.07l-.02.48v-.01l-.05.96-.03.52V241l-.03.47v.03l-.02.48v.02l-.02.7-.02.57-.02.65-.01.54-.01.48v-.03l-.02.34v.12l.02.3v-.04.12c0 .34.18.64.47.82l.27.16a.9.9 0 0 0 .83.04l.04-.02-.27.07.23-.02c.46-.05.8-.46.75-.93 0-.05-.01-.1-.03-.14l-.05-.21.01.07-.06-.33.01.13v-2.86a.72.72 0 0 0-1.45 0v2.86l.02-.13-.06.33.01-.07-.06.21.9-.61-.22-.03.27.08-.04-.02.4.35-.16-.26.13.5v-.1.04l.02-.31v-.12l-.02-.34v.03l-.01-.48-.02-.54-.01-.65-.02-.57-.02-.7v-.02l-.02-.48v-.03l-.03-.47v.02l-.03-.52-.03-.48-.03-.48v.01l-.01-.48a.74.74 0 0 0-1.48 0ZM363.5 232.17l-.03.51.04.3.16.48-.01-.04.13.49c.03.14.1.27.21.38l.34.34-.15-.2.17.31.24.29.37.28-.08-.08.34.34-.05-.05.28.34c.1.1.22.19.35.24l.35.13-.04-.02.33.14.3.06h1.98a.74.74 0 1 0 0-1.48h-1.99l.42.12-.3-.2-.32-.2.26.28-.21-.4-.14-.17-.34-.35-.08-.07-.37-.29.22.26-.17-.3-.15-.2-.34-.34.22.35-.16-.48-.01-.04-.18-.48.05.26-.03-.5a.81.81 0 0 0-1.62 0ZM374.34 224.39v.48-.02l-.02.48v.52l-.02.65v.65-.01l-.03.87-.04.8-.02 1-.02 1.14v.13l.17 1.24v-.01l.16 1.47v.03l.21 1.48v-.05l.13 1.47v-.04l.05 1.42v.08l.18 1.3-.01-.08.05 1.41v-.03 3.67l.01 1.02.02 1v-.01.99l.01.96v.04l.04.76v.01l.04.65v-.02l.02.54.02.51.03.22.1.28-.04-.22v.65a.69.69 0 1 0 1.38 0v-.65l-.04.22.1-.28.03-.22.02-.5.02-.55v.02l.04-.65.03-.77v-.04l.01-.96.01-1v.01l.02-.99.01-1.02v-3.71l-.06-1.41-.01-.09-.17-1.3v.08l-.06-1.42v-.05l-.16-1.48v-.05l-.24-1.47v.03l-.17-1.47v-.02l-.18-1.24v.1l-.02-1.13-.02-1-.03-.8-.03-.87v.01l-.01-.65-.01-.65-.01-.52-.01-.48v.02-.48a.74.74 0 0 0-1.48 0Zm0 0"/><path style="stroke:none;fill-rule:nonzero;fill:#004f8b;fill-opacity:1" d="m370.42 239.19.04-.28v.02l.03-.22a.8.8 0 1 0-.97.67l.22.04.05.01.3.05h.06l.45.04.49.04.3-.02.5-.12.03-.01.52-.15.54-.15-.31.04.65.01.6.02h.83l.29-.02.65-.17-.06.01.83-.17.16-.04.82-.31-.2.05.97-.16.24-.08.93-.39h.02l.81-.37-.12.04.84-.26-.04.01.65-.17.15-.06.62-.28h.01l.49-.23.22-.15.4-.4-.25.17.48-.17.19-.1.5-.37.11-.09.49-.5.08-.12.49-.77a.75.75 0 0 0-1.27-.8l-.48.77.09-.11-.48.5.1-.08-.5.36.18-.1-.48.18h-.04l-.52.23.15-.05-.52.1-.03.01-.67.17.07-.01-.65.1-.06.01-.86.2-.14.04-.83.31h.01l-.94.34.18-.05-.97.18-.2.05-.81.32.17-.05-.82.18h-.06l-.65.18.26-.04-.82.02h-.61l-.65.02-.32.06-.53.19-.03.01-.5.2.03-.02-.48.16.25-.05-.48.04-.46.04h-.06l-.3.06h-.05l-.22.05a.8.8 0 0 0-.63.91l.04.22v-.02l.03.28a.74.74 0 0 0 1.46 0Zm0 0"/><path style="stroke:none;fill-rule:nonzero;fill:#004f8b;fill-opacity:1" d="m378.28 222.9-.01.48v.5-.06l-.05.7v.03l-.02.57v.01l-.02.9-.02.77-.03 1-.02 1.2-.02 1.3v.08l.12 1.6v.02l.18 1.64.01.1.39 1.84-.02-.17.05 1.73.02.16.37 1.93v-.1l.16 1.79.17 1.7v-.07l.04 1.62.01.08.18 1.64v-.07l.06 1.48v.08l.18 1.3v-.05l.07 1.07v-.04l.01 1.16v1.01l.02 1v.04l.04.76v-.02l.03.66v-.04.83c0 .23.1.44.27.6l.23.2c.14.12.33.2.52.2h.25a.8.8 0 1 0 0-1.6h-.25l.52.2-.22-.2.27.6v-.83.04l.02-.66v.02l.05-.76v-1.04l.02-1.02.01-1.15v-.05l-.04-1.08v-.08l-.17-1.3v.08l-.05-1.48v-.05l-.16-1.65v.09-1.62l-.01-.09-.17-1.7-.17-1.78-.01-.08-.36-1.93.02.14-.07-1.73-.02-.17-.4-1.84.01.1-.17-1.64-.16-1.58v.08l-.02-1.3-.02-1.2-.02-1-.02-.76-.02-.9v-.02l-.03-.57v-.02l-.05-.7v.04-.97c-.01-.4-.35-.73-.76-.73-.4.01-.71.33-.72.73ZM386.6 225.81l-.05.96v.02l-.03.5-.02.48v.01l-.03.7v.02l-.03.82v.01l-.02 1.13-.02 1.31-.01 1.43-.01 1.47v.03l.04 1.53v.06l.13 1.61v-.03l.07 1.52v.07l.18 1.65v-.06l.06 1.36v-.04l.01 1.3.01.12.17 1.25V245l.14 1.3v.08l.22 1.15-.02-.12.04.8v-.03l.03.88.02.66.1.37.25.46.17.32.24.26.17.11-.15-.13.2.23c.14.17.35.26.56.26h.28a.74.74 0 1 0 0-1.5h-.28l.56.26-.2-.23-.14-.12-.17-.12.24.26-.17-.3.08.24-.08-.52.01.15.02-.66.03-.88v.02l.03-.79v-.15l-.13-1.16-.14-1.3v-.03l-.18-1.25v.14l.02-1.3v-.05l-.04-1.36-.01-.06-.16-1.64v.06l-.04-1.53v-.06l-.16-1.62v.05l-.07-1.53v.04-1.47l-.02-1.42v-.01l-.02-1.3-.02-1.14v-.01l-.03-.82v-.01l-.03-.7v-.02l-.02-.48-.03-.5v-.02l-.06-.96a.74.74 0 0 0-1.48 0ZM396.63 244.71l.5.02.21-.03.5-.12.03-.01.49-.15.12-.05.52-.27-.2.08.5-.12.36-.16.5-.37-.05.02.36-.23.26-.27.33-.5.03-.03.18-.3-.14.17.32-.33c.11-.12.2-.27.24-.43l.1-.37.01-.03.16-.65.02-.13.06-.54v-.1l.01-.68a1 1 0 0 0-.19-.58l-.25-.35-.15-.16-.33-.29a.9.9 0 0 0-.4-.2l-.46-.1.09.03-.5-.16.06.02-.54-.22-.12-.03-.65-.16-.29-.02-.54.05-.3.09-.68.34-.15.09-.54.42-.09.09-.48.5-.12.15-.43.7-.05.11-.35.8-.01.02-.38.93-.04.18-.18 1 .05-.18-.36.9-.05.16-.16.81-.18.87-.02.17-.02.66v.07l.05.82.01.14.13.65v-.04l.1.66c.01.15.07.29.15.41l.34.49-.02-.02.3.48.15.17.5.51.3.2.64.32-.03-.02.66.34.34.1.87.12h-.04l.79.13.15.02.94.03h.06l.99-.03.15-.02 1.13-.21.1-.03 1.14-.35.07-.03 1.33-.54.07-.02 1.3-.66.03-.01 1.42-.77.07-.04 1.47-1v.02l1.47-.97a.88.88 0 0 0-.96-1.47l-1.48.97-1.48 1 .07-.05-1.41.77.02-.02-1.3.66.13-.06-1.38.43h.02l-1.14.32.11-.03-1.14.19.19-.01-1-.03h.07l-.93-.09.08.02-.8-.15H398l-.88-.12.34.1-.65-.33-.03-.02-.65-.3.28.19-.51-.51.13.17-.31-.48-.03-.05-.35-.48.18.41-.13-.65-.01-.04-.16-.65.03.14-.08-.82v.07-.66l-.02.2.15-.89v-.03l.13-.82-.04.17.32-.92.04-.14.16-1-.05.18.37-.94-.01.02.33-.8-.05.11.42-.71-.12.16.48-.52-.1.09.55-.43-.15.1.68-.35-.3.09.54-.06-.33-.03.65.19-.12-.05.53.24.05.02.48.18.08.03.45.12-.45-.28.29.34-.13-.19.2.38-.11-.44v.68-.1l-.05.54.03-.17-.18.65.02-.05-.13.36.2-.33-.3.35-.14.2-.17.32.03-.04-.3.52.22-.26-.32.27-.03.02-.46.42.31-.19-.5.18-.32.19-.42.4.25-.16-.47.18.03-.01-.47.16.22-.04-.51.01a.74.74 0 0 0 0 1.48ZM447.9 242.5l-.02-.28v.03l-.01-.37a.76.76 0 0 0-.18-.46l-.16-.18.17.37-.04-.24-.18-.37-.15-.18-.3-.21-.23-.09.44.44-.14-.34a.79.79 0 0 0-.36-.4l-.22-.13.2.16-.16-.18-.1-.09-.26-.2-.22-.1-.5-.18-.5-.17-.72-.24-.21-.04-.77-.02.2.03-.77-.23-.23-.03h-.65l-.3.06-.55.23-.12.06-.49.31-.13.1-.28.29-.14.19-.18.3v.02l-.21.4-.07.16-.18.65.02-.03-.18.53-.04.25v.72l.05.71.02.14.16.66.04.1.25.65.2.32.51.48.47.46.12.1.48.32-.04-.03.54.4.33.16.66.15-.05-.01.62.17.25.04H445.75l.54-.06.17-.03.48-.15.2-.09.49-.29.27-.26.46-.65.07-.12.31-.66-.04.07.4-.65.08-.18.16-.52v-.02l.15-.48.03-.25V240.8l-.29.64.18-.16c.36-.34.38-.9.04-1.26a.88.88 0 0 0-1.25-.04.88.88 0 0 0-.04 1.25l.16.18.2.16.3.18-.4-.5.16.48.17.32.4.46-.17-.28.3.8.1.17.4.66v-.02l.5.83-.02-.02.47.83-.03-.07.47 1-.01-.03.45 1.03-.06-.15.3 1.16.04.1.39 1.03-.06-.25.13 1.14v.04l.17 1.05-.02-.17V253.5l-.01 1.13.01-.16-.17 1.1v-.02l-.14.8.11-.32-.38.72.01-.04-.3.52.14-.18-.45.49.02-.02-.48.48.29-.2-.64.3.14-.05-.65.19.2-.04-.88.07h.07-.83l.21.03-.91-.2.08.03-1-.3.1.04-.97-.46.09.05-1-.63.08.06-.84-.68.04.04-.84-.8.15.2-.45-.87-.08-.12-.5-.63.13.27-.19-.8v-.02l-.2-.65.02.1-.08-.67v.08-.74l-.06.28.23-.45-.12.16.25-.25a.63.63 0 1 0-.89-.9l-.25.26-.12.16-.23.46-.07.28v.77l.04.68.02.11.14.66v-.03l.14.8.12.27.45.66-.06-.11.4.9.14.2.8.85.04.03.8.74.09.06.97.68.09.05.95.5.1.05.98.38.07.02.9.26.24.04.83.01h.06l.88-.04.16-.03.66-.15.15-.04.66-.26.34-.22.48-.48.02-.02.46-.48.12-.16.33-.5.02-.04.4-.7.13-.34.14-.8v-.02l.18-1.1.01-.17v-2.3l-.02-.97-.01-.16-.18-1.05v.04l-.15-1.14-.06-.24-.4-1.01.03.1-.32-1.16-.05-.14-.47-1.02-.01-.03-.5-1-.03-.06-.49-.81-.02-.03-.52-.81-.01-.02-.43-.65.09.17-.33-.79-.17-.27-.4-.44.18.28-.18-.48a.92.92 0 0 0-.44-.48l-.32-.16.2.14-.17-.16a.88.88 0 0 0-1.25.04l-.17.18a.9.9 0 0 0-.24.6v.29l.01.48v.98l-.01.48v.49l.04-.25-.15.48.02-.04-.18.5.08-.17-.4.65-.05.08-.3.66.06-.13-.45.65.3-.26-.5.28.21-.1-.48.15.14-.03-.54.06h.11-.65l-.62-.01h-.81l.24.03-.62-.16-.05-.01-.65-.14.34.15-.54-.39-.06-.04-.49-.3.13.1-.49-.44h.01l-.51-.48.21.32-.26-.66.03.1-.17-.65.02.14-.06-.7v.07-.66l-.04.26.17-.54.01-.05.16-.65-.05.16.19-.4-.02.03.17-.31-.14.18.28-.28-.13.1.48-.3-.13.06.54-.23-.32.07h.65l-.23-.04.77.23.2.03.77.03-.22-.04.71.23-.03-.01.48.17.03.01.51.16-.26-.14.25.2-.04-.04.17.17.21.14.23.1-.39-.4.15.34c.08.2.25.36.46.44l.22.08-.25-.15.18.16-.22-.34.07.22.22.33.18.16-.25-.47.05.37v-.14l-.03.28c-.03.4.28.76.68.8a.74.74 0 0 0 .8-.8ZM459.66 243.54l.01.48.01.5v-.12l-.07.47v.07l-.04.48-.03.51v.02l-.02.48-.02.48-.02.35v.31-.05l-.01.11v.27a.93.93 0 1 0 1.86-.03v-.17.02-.86l-.06-.65-.02-.11-.14-.65.02.13-.06-.82-.03-.17-.17-.65.03.17-.05-.84v.06-.83l.01-.76v-.82.08l.07-.65-.02.11.17-.82.02-.1.06-.6-.02.11.15-.65-.06.18.23-.54.03-.07.17-.5-.13.25.23-.31.11-.2.14-.34-.2.31.1-.11-.33.22.34-.14-.22.06.37-.05-.54-.08.45.2-.1-.05.49.29-.2-.16.48.48.01.01.66.64-.01-.01.66.67.18.14.93.57.1.05.86.4-.18-.12.76.65.01.01.8.65-.08-.07.83.88.09.08.99.77a.76.76 0 0 0 .93-1.2l-1-.77.1.08-.82-.88-.08-.07-.79-.65.01.01-.76-.65-.05-.04-.76-.56.06.05-.81-.72.06.06-.64-.69h-.01l-.64-.67-.01-.01-.48-.49-.2-.15-.48-.29-.12-.06-.45-.19a1 1 0 0 0-.55-.07l-.37.06-.24.07-.33.15-.3.2-.11.12-.22.31-.14.34.12-.2-.23.32-.15.27-.16.52.03-.07-.22.53-.06.17-.13.65-.02.12-.05.6.01-.11-.16.82-.02.11-.05.66v1.66l.01.83v.06l.06.85.03.17.17.65-.03-.17.06.82.02.13.14.65-.02-.12.06.66v-.08.77-.02.18a.93.93 0 1 0 1.86.02v-.27l-.01-.11v.05-.31l-.02-.34v-.01l-.02-.48-.02-.48v-.02l-.03-.5-.03-.49-.01-.07-.08-.47v.12l.02-.5v-.48a.74.74 0 1 0-1.47-.03v.03ZM478.5 239.98l-.33-.25-.09-.06-.31-.18.07.05-.33-.24-.21-.1-.48-.16.14.07-.32-.2-.34-.1-.32-.01h.05l-.17-.02h-.04l-.31-.02a.84.84 0 0 0-.58.17l-.29.23-.07.06-.32.3-.1.13-.3.42-.1.2-.18.52-.05.19-.06.54.02-.13-.18.65-.02.17-.04.6v.05l-.01.82v.6l-.02.65.06.3.18.55.1.2.33.52.08.1.41.5.04.04.48.5.2.15.5.3.15.07.47.2.23.05.48.07h.12l.51.02.36-.05.49-.17.48-.16c.16-.05.3-.15.42-.26l.34-.36.33-.34c.1-.1.18-.23.23-.36l.16-.43-.1.2.34-.52c.08-.13.14-.28.16-.44l.08-.65-.02.13.17-.65.03-.19.05-.65v-.6l-.03-.48-.01-.5-.02-.16-.09-.47-.06-.21-.2-.47-.04-.07-.25-.48-.08-.12-.35-.47-.28-.24-.43-.23.04.02-.31-.19a.8.8 0 0 0-.46-.12l-.48.02H478l-.28.03-.15.02-.36.1-.33.22-.17.18-.07.1-.16.26-.07.18-.12.49v-.03l-.15.52-.16.47-.02.2v.98l.06.27.22.48.02.03.25.48a.63.63 0 0 0 1.11-.58l-.25-.48v.02l-.22-.48.06.26v-.99l-.04.23.19-.47v-.02l.19-.5v-.02l.16-.48-.1.2.18-.25-.1.1.19-.15-.45.18.37-.02h-.08l.28.02h.02l.48.03-.53-.25.25.26.14.12.42.27-.25-.25.32.5-.12-.27.14.53v.02l.15.5-.04-.23.02.49V242l-.02.51-.01.48v.02l-.01.48v-.09l-.06.66.03-.17-.17.65-.03.14-.08.65.17-.47-.34.5-.1.2-.18.42.18-.29-.3.35-.33.38.43-.3-.96.35.33-.06-.51.01h.12l-.48-.04.21.04-.49-.15.16.07-.52-.27.23.16-.49-.47.04.04-.43-.47.08.1-.35-.5.1.19-.2-.53.06.33v-.65l-.01-.6-.01-.82v.04l.01-.6-.02.2.16-.66.02-.14.06-.54-.04.19.16-.52-.1.21.28-.43-.11.14.3-.32-.07.07.29-.23-.5.2.32-.03h.04l.17-.03h-.05l.32-.01-.37-.06.35.15.1.03.5.14-.22-.1.35.22.04.03.32.16-.1-.05.35.25a.74.74 0 0 0 .9-1.18ZM484.19 241.61l.02.43.06.24.15.35-.06-.26.02.43.04.2.1.35.09.19.26.43.29.5v-.01l.26.46.16.2.33.32-.13-.16.3.46c.15.24.41.4.7.43l.48.05-.16-.03.5.14.15.03.48.06c.17.02.34 0 .5-.07l.47-.2.16-.1.51-.34.14-.12.42-.42.12-.15.33-.5-.08.1.43-.5.08-.1.31-.48.03-.06.27-.5-.03.06.32-.52-.18.21.31-.26.05-.04.48-.45-.6.24h.76-.12l.45.05-.54-.29.3.35.29.31-.1-.13.31.51.07.1.38.48-.13-.23.19.48.17.29.45.49-.11-.16.3.51v.02l.27.44.09.11.3.36-.16-.27.15.38c.09.21.24.38.43.5l.34.18-.26-.2.17.18c.18.2.44.32.72.33l.3.01h-.06l.17.02h.05l.3.01c.34.02.66-.11.88-.37l.19-.21-.1.09.36-.33c.15-.14.26-.32.32-.53l.1-.42v.02l.14-.48-.04.13.23-.54.05-.15.17-.65-.08.23.3-.58.09-.25.16-.66-.12.3.31-.56.12-.28.12-.49-.21.42.3-.37.16-.27.13-.33-.01.04.15-.36.05-.13.13-.5.09-.35-.19.35.3-.33-.03.03.16-.16-.02.02.34-.31-.27.16.31-.11.05-.02.52-.23a.8.8 0 0 0-.66-1.47l-.5.22.04-.01-.31.1-.27.17-.33.32-.03.02-.17.17.03-.03-.33.29-.21.3-.14.33.01-.03-.2.47.09-.17-.23.32h-.01l-.21.3.17-.19-.37.3c-.14.13-.25.29-.32.46l-.16.48.13-.26-.36.53-.15.31-.19.65.11-.25-.32.56-.13.29-.16.65.05-.15-.22.54-.04.1-.14.49v.03l-.12.42.26-.46-.33.35-.12.14-.15.24.84-.48-.31.01h-.05l-.17.03.07-.01-.31.01.72.27-.17-.16-.28-.18-.35-.16.48.46-.18-.36-.17-.24-.33-.33.1.12-.3-.42.03.05-.33-.5-.11-.15-.46-.48.18.28-.2-.48-.15-.23-.4-.47.08.1-.31-.5-.11-.14-.29-.31-.31-.34a.89.89 0 0 0-.55-.27l-.45-.06h-.87a.87.87 0 0 0-.6.23l-.48.45.04-.03-.31.25-.17.18-.35.5-.03.03-.3.48.01-.02-.31.48.08-.1-.43.47-.07.1-.35.5.12-.13-.43.42.15-.12-.52.33.17-.08-.48.19.45-.06-.48-.05.15.02-.51-.14-.13-.02-.48-.06.65.38-.33-.45-.14-.15-.35-.3.16.18-.3-.44-.01-.02-.34-.47V243l-.3-.41.06.1-.17-.32.08.21-.1-.42-.09-.23-.2-.33.1.24-.08-.42a.73.73 0 0 0-1.45.2ZM515.02 224.9v.82-.06l-.06.82v.04l-.01.85-.03.93v.01l-.02 1-.01 1.42v.04l.04 1.19v.05l.16 1.65v.05l.21 1.37.01.04.3 1.45.03.1.45 1.42-.02-.05.3 1.16v-.05l.23 1.14v-.03l.17.99.04.15.26.74-.01-.03.2.65.2.34.47.48-.22-.45.06.48.13.35.2.29-.14-.45v.2c0 .43.35.77.77.77.43 0 .78-.34.78-.77v-.2a.79.79 0 0 0-.14-.44l-.2-.28.13.35-.05-.48-.09-.28-.32-.58.09.23-.14-.66v.04l-.13-.78-.16-.99v-.02l-.23-1.14-.01-.07-.32-1.16-.01-.04-.46-1.42.02.08-.32-1.44v.05l-.24-1.36.01.05-.18-1.64v.05l-.07-1.19v.05l-.01-1.42-.02-1-.03-.94-.02-.85v-.04l-.06-.82v.06-.82a.76.76 0 1 0-1.53 0Zm0 0"/><path style="stroke:none;fill-rule:nonzero;fill:#004f8b;fill-opacity:1" d="m512.2 233.47.26.06h.06l.42.07h.01l.28.04h.05l.48.04h.01l.51.04.48.03h.03l.54.02.66.02h1.21l.32-.04.62-.2h-.01l.64-.2.28-.12.53-.38-.1.06.65-.34.19-.12.52-.45.07-.08.47-.5-.04.03 1.22-1.22.1-.12.54-.77v.02l.7-.97a.92.92 0 1 0-1.48-1.1v.01l-.71.96-.01.02-.54.76.1-.12-1.22 1.22.03-.03-.5.46.09-.07-.56.4.12-.08-.65.34-.1.06-.54.37.34-.15-.66.14-.64.15.23-.03h-.65l-.54.01h-.02l-.65.02h-.01l-.54.02h-.03l-.48.03-.5.03h-.02l-.48.04h-.05l-.28.04h-.01l-.42.07h-.06l-.26.07c-.4.1-.65.49-.56.88.06.28.28.5.56.56ZM529.76 220.47v1.65l.03-.2-.23.8-.01.05-.2.95v-.04l-.23.86-.03.22-.02 1v-.06l-.07.87v.07l-.03 1.41-.02 1.01-.04 1.42v.02l-.01 1.3.01.22.22 1.19-.01-.13.08 1.22.06.3.34.96.03.08.34.77.12.21.48.66.08.09.48.53.02.03.49.5.3.23.52.26.13.05.48.17.3.07.48.03h1.08c.17 0 .33-.04.47-.12l.48-.23.13-.07.48-.32.13-.1.5-.46.05-.05.47-.48.1-.13.48-.66-.02.04.5-.66.02-.02.48-.66-.1.12.32-.33-.06.06.35-.3-.16.11.18-.1-.06.03.31-.16-.18.07.17-.05-.32.05h.34-.03.09l-.68-.25.28.23-.22-.24.21.31-.17-.48.07.66.07.27.2.54-.04-.18.18.9.03.1.25.8.09.2.4.69-.12-.35.1.7.12.37.45.7-.13-.37.06.53.07.27.43.94-.03-.06.29.77a.87.87 0 0 0 1.63-.6l-.28-.77-.02-.06-.43-.94.07.27-.05-.54-.14-.37-.45-.71.14.44-.03-.72-.08-.33-.33-.73.08.29-.09-.83v-.06l-.16-.91-.04-.17-.19-.54.06.27-.04-.65-.06-.3-.13-.35c-.07-.2-.2-.38-.37-.5l-.29-.23c-.2-.15-.46-.24-.71-.23h-.09.03-.34l-.38.07-.17.06-.17.09-.3.18-.11.06-.16.13-.11.1-.33.32-.06.06-.3.35-.05.06-.48.65.01-.03-.5.65-.02.02-.5.64.11-.12-.49.48.05-.04-.51.44.13-.1-.49.31.13-.07-.49.22.47-.1h-.98.16l-.48-.07.2.05-.49-.17.13.05-.5-.25.31.24-.48-.51.02.02-.48-.54.07.07-.5-.65.13.21-.34-.76.03.09-.34-.96.07.3-.09-1.22-.01-.15-.24-1.19.02.21-.01-1.3v-.02l-.04-1.42-.03-1.02v.01l-.02-1.41v-.07l-.08-.87v.05l-.01-.99-.01.13.1-.88.01-.04.08-.97v.04l.1-.83v-1.74a.74.74 0 0 0-1.47 0Zm0 0"/><path style="stroke:none;fill-rule:nonzero;fill:#000;fill-opacity:1" d="m117.55 314.7.03-.28v.02l.03-.22-.03.14.01-.05.03-.1.02-.14-.03.14.02-.05.05-.23.02-.23v.03l.02-.22-.13.38.02-.04a1 1 0 0 0 .14-.4l.02-.2c.03-.27-.05-.54-.22-.75l-.2-.25a1.08 1.08 0 0 0-.47-.33l-.25-.09.1.04-.5-.23.04.02-.48-.24a1.1 1.1 0 0 0-.4-.12l-.7-.07.34.09-.54-.23c-.14-.06-.3-.1-.45-.1h-.65l.36.06-.53-.18-.04-.01-.5-.16-.06-.01-.71-.18-.28-.03-.82-.01-.84-.01-.83-.01h-1.77l-.23.02-.85.17h.03l-.82.13-.3.1-.88.4h-.03l-.65.32.14-.06-.83.28-.16.07-.66.34.04-.02-.65.3c-.13.07-.24.15-.34.25l-.49.48-.03.03-.48.51.05-.05-.5.48-.08.07-.48.54-.07.09-.49.65v.02l-.52.7-.06.1-.48.83-.03.05-.48.93.04-.08-.51.82-.1.18-.3.74-.34.83-.08.34-.08.83.01-.09-.17 1 .02-.08-.23.97-.01.07-.17 1-.01.09-.08.96v.28l.15 1v-.05l.1.99.06.27.34.96-.03-.08.3 1.16.06.17.48 1.13.1.17.7 1.13.05.09.57.76.1.12.83.88.02.01.64.66.14.13.87.66.11.08.82.49.27.12.94.3.15.03.96.19.16.02 1.17.06h.06l1.14.01 1.36.01.24-.02 1.25-.22.17-.05 1.48-.47.19-.08 1.24-.63.16-.1 1.16-.78-.08.05 1.02-.6.25-.19.98-.94-.05.04.96-.83.2-.23.77-1.08.07-.12.65-1.17.01-.02.7-1.32-.02.03.63-1.14.08-.17.5-1.3.04-.13.3-1.17.03-.14.15-1.14-.03.19.3-1 .04-.2.1-.91-.01.1.16-.83.02-.17.05-.93V318.95l-.03-.28-.18-.7v-.03l-.18-.65-.13-.31-.36-.6.04.08-.34-.66a1.14 1.14 0 0 0-.27-.34l-.6-.53.05.04-.66-.65-.11-.1-.72-.53.02.01-.66-.5-.16-.11-.77-.41-.17-.08-.97-.32h.02l-1-.35-.19-.06-.97-.16h-.05l-1.05-.13h-.15l-1.13.02h.18l-1-.14h.01l-.97-.16-1-.15h-1l-.71.03-.66.03a.93.93 0 0 0-.49.16l-.33.22-.31.22a.8.8 0 0 0-.35.54l-.06.38.07-.23-.16.3-.07.34v.96l.06-.3-.23.52.04-.07-.28.48c-.2.34-.1.79.25.99.35.2.8.09 1-.26l.28-.48.04-.07.22-.51.06-.3v-.96l-.19.5.23-.26.14-.2.16-.35-.48.44.36-.13-.06.02.39-.1-.29.03.65.02.72.03h.01l.82.02-.17-.02 1 .18h-.01l.96.2 1 .18.17.02 1.13.02-.14-.01 1.05.16h-.04l.97.17-.2-.05 1 .37.96.36-.17-.08.75.44-.13-.1.64.52h.02l.7.55-.12-.1.65.65.04.04.59.54-.24-.3.34.64.04.08.37.6-.14-.34.17.65v-.02l.16.7-.03-.26v.82-.07l-.06.93.02-.17-.18.82-.01.1-.12.9.04-.22-.32 1-.04.17-.19 1.14.03-.14-.32 1.16.04-.13-.52 1.3.08-.17-.66 1.13-.02.02-.73 1.3v-.01l-.65 1.16.08-.12-.78 1.08.23-.24-.98.81-.04.04-1 .93.23-.17-1.02.59-.08.05-1.17.8.16-.1-1.24.62.17-.07-1.48.49.18-.05-1.25.23.24-.02h-1.36l-1.14.01h.06l-1.16-.04.16.02-.96-.16.14.03-.93-.27.27.12-.82-.48.11.08-.88-.65.13.12-.66-.64.02.02-.86-.88.11.14-.56-.77.05.08-.71-1.13.09.17-.48-1.13.05.15-.32-1.16-.02-.09-.35-.96.07.27-.13-1v-.02l-.14-1v.28l.1-.96-.02.1.17-.99-.01.07.23-.96.01-.07.18-1v-.07l.1-.82-.1.34.36-.82v.01l.3-.73-.07.15.5-.82.05-.08.48-.94-.03.06.48-.82-.06.1.5-.7.48-.66-.07.1.48-.55-.08.08.52-.48.04-.05.49-.5-.02.01.48-.48-.34.24.65-.32.04-.02.65-.34-.17.07.82-.28.13-.05.65-.31h-.03l.88-.39-.29.09.82-.14h.03l.85-.18-.24.02h2.6l.85-.02h.81l-.27-.04.7.17-.02-.01.51.13h-.04l.54.15.34.05h.65l-.44-.1.54.23.36.08.71.04-.38-.1.49.22.1.04.53.17.21.04.26.03-.56-.23.25.2-.37-.68.02.2a1 1 0 0 0 .14.4l.02.04-.13-.38.03.22v-.03l.02.23.05.23.01.05-.03-.14.02.14.03.1.01.05-.03-.14.03.22v-.02l.03.28a.8.8 0 0 0 .88.7.8.8 0 0 0 .71-.7ZM126.34 334.71l.29-.43-.08.1.38-.43.02-.02.52-.64-.09.1.67-.65.06-.06.78-.87-.12.12.97-.82.06-.06 1-.96.07-.09.97-1.16-.02.02.9-1.01 1-1.16.11-.17.7-1.2-.1.16.96-1.13.1-.16.7-1.17-.1.15.8-.97.13-.17.57-1-.04.04.63-.98.03-.05.47-.85.09-.18.26-.84-.1.22.38-.61.12-.33.12-.66-.06.2.25-.57.05-.16.11-.52-.08.2.14-.24-.12.17.22-.23.2-.36.06-.23-.17.33.22-.25a.77.77 0 0 0-1.14-1.03l-.23.26-.17.32-.06.23.2-.36-.22.23-.13.17-.14.25-.03.05-.22.49.13-.2-.42.48c-.1.1-.16.23-.2.37l-.17.65.15-.32-.42.58-.1.18-.35.8.1-.17-.56.8.02-.02-.68.95-.03.05-.63.98.11-.14-.84.95-.1.15-.72 1.15.1-.14-.97 1.14-.11.15-.72 1.2.11-.16-.98 1.17-.87 1.02-.01.01-.96 1.17.08-.1-1 .97.06-.04-.96.83-.12.12-.75.88.04-.04-.64.66-.09.1-.49.67-.11.2-.24.5-.05.14-.15.5a.92.92 0 0 0 1.65.78ZM133.5 304.07l-.47-.06.09.02-.51-.13.08.03-.48-.18-.04-.01-.48-.15-.23-.03h-.56.07l-.65-.06h-.03l-.54-.02h-.01l-.7-.03h.03l-.48-.03H128h.03-.51l-.35.08-.48.2-.05.01-.48.24-.06.03-.52.31a.89.89 0 0 0-.31.32l-.26.45.3-.3-.4.25a.88.88 0 0 0-.39.51l-.14.52.13-.29-.34.48-.12.22-.17.48v.01l-.18.5-.05.26-.08 1.44c-.01.14.01.28.06.41l.17.47c.05.14.14.28.25.39l.33.32-.08-.08.4.48c.17.21.42.35.69.4l.47.07-.26-.08.5.21c.13.06.27.1.42.1l.54.01h.68l.53.02.27-.03.88-.2.28-.1.66-.34.1-.05.65-.42.22-.18.48-.5-.1.1.48-.4.1-.09.48-.48-.08.08.48-.4c.16-.14.28-.31.35-.51l.25-.72.02-.07.14-.49.04-.2.04-.5v-.12l-.02-.5c0-.17-.04-.33-.12-.47l-.25-.47-.1-.15-.36-.47-.2-.19-.43-.32-.08-.05-.5-.3-.35-.12-.66-.1.08.02-.66-.16-.17-.02-.82-.03h-.07l-.65.02h-.07l-.65.07-.2.05-.5.18-.22.12-.41.3-.2.23-.32.5.02-.04-.36.5-.1.22-.15.49.05-.14-.28.52-.06.15-.14.49v.02l-.14.55-.02.16v2.9a.66.66 0 0 0 1.32 0v-2.9l-.04.24.2-.53v.02l.2-.47-.08.13.34-.5.08-.14.19-.47-.12.2.38-.46.01-.02.37-.47-.24.2.44-.25-.19.08.52-.16-.2.04.66-.04h-.09l.65.02h-.06l.82.07-.17-.03.65.19.07.02.65.13-.36-.15.47.32-.08-.06.41.36-.19-.22.32.5-.09-.17.2.5-.07-.45-.02.51.01-.13-.07.48.07-.26-.2.47.01-.02-.3.7.32-.43-.49.4-.08.07-.49.48.2-.16-.54.34-.23.2-.48.52.22-.19-.65.43.1-.06-.64.35.29-.11-.88.2.25-.03h-.54l-.65.01h-.02l-.54.02.42.06-.52-.18-.29-.06-.48-.04.67.3-.45-.42-.04-.04-.35-.3.26.33-.23-.44.12.41-.09-1.44-.01.25.1-.52-.03.1.17-.48-.11.23.33-.48.13-.28.14-.51-.38.52.4-.26c.12-.08.23-.2.3-.32l.25-.46-.31.33.5-.32-.1.06.48-.22-.02.01.48-.2-.34.07h.5-.02l.49.01h.09l.48-.03h-.04l.7-.03h.02l.54-.02h.03l.65-.06h-.07.56l-.2-.03.48.14-.04-.02.49.17.1.02.5.1.07.01.48.06a.74.74 0 0 0 .17-1.47ZM146.85 329.5l-.16-.35-.06-.1-.18-.28-.15-.16-.27-.24.27.46-.07-.37a.83.83 0 0 0-.43-.58l-.27-.14.4.44-.14-.35-.04-.08-.1-.18-.13-.2-.29-.32-.16-.13-.16-.12-.08-.05-.31-.18.03.02-.34-.2-.16-.09-.48-.18-.04-.01-.51-.17-.3-.05h-.79l-.35.01a.95.95 0 0 0-.58.2l-.29.22-.08.07-.31.31-.2.26-.3.6-.07.21-.15.65-.02.15-.07.82.03-.19-.17.65-.03.18-.08.88v.06l-.03.82.02.24.16.77v-.02l.15.83.1.29.34.67-.06-.14.28.8c.07.17.16.32.3.45l.49.47.08.07.64.5.33.19.53.19.07.02.64.2.23.04.7.07h.1l.65.03h.1l.82-.05.16-.02.72-.12.3-.1.77-.33c.18-.08.34-.2.47-.34l.37-.43-.07.07.66-.65.24-.33.34-.64.1-.24.21-.71.03-.13.14-.65.02-.12.05-.54v-.14l.01-.65c0-.16-.03-.32-.09-.48l-.23-.6-.1-.2-.37-.63-.11-.16-.44-.53-.52-.63a1.3 1.3 0 0 0-.4-.32l-.66-.34-.04-.01-.66-.31-.26-.09-.66-.12.31.11-.5-.27-.39-.12-.48-.06.1.02-.53-.12a.9.9 0 0 0-.49.03l-.38.13-.11.04-.34.17.25-.08-.42.06a.8.8 0 0 0-.63.47l-.29.66.14-.22-.48.54a.8.8 0 0 0 .07 1.13.8.8 0 0 0 1.13-.06l.48-.54.14-.21.28-.65-.63.47.43-.06.25-.07.34-.18-.61.05.38.13-.1-.04.49.22.07.03.47.17-.28-.15.45.34.32.17.64.22-.21-.1.63.37-.03-.02.63.4-.32-.3.5.66.4.55-.13-.23.3.67-.07-.22.16.63-.04-.32v.65-.14l-.05.54.03-.16-.15.64.03-.11-.24.7.08-.19-.34.66.24-.33-.65.65-.06.07-.37.43.47-.35-.77.34.16-.06-.7.22.26-.05-.82.07h.08l-.65.01h.1l-.7-.04.2.03-.66-.15.05.02-.55-.15.37.17-.66-.46.08.06-.53-.44.32.42-.34-.78-.08-.14-.4-.63.15.33-.19-.82v-.02l-.19-.76.03.22-.02-.82v.07l.04-.88-.03.2.16-.65.03-.19.04-.82-.01.14.13-.65-.07.2.28-.59-.2.27.32-.31-.08.07.28-.23-.62.22h1.13l-.3-.05.5.18h.02l.48.16-.16-.07.35.19h.01l.32.17-.07-.03.18.1-.13-.1.32.3-.09-.1.14.16-.08-.1.2.32c.1.19.29.32.5.38l.29.08-.58-.58.1.37c.05.18.16.33.3.44l.3.22-.05-.04.26.22-.18-.22.19.34c.19.36.64.5 1 .3.34-.19.49-.6.32-.96ZM46.4 194.12l.04-.28-.02.12.05-.2a.87.87 0 0 0-.73-1.11l-.17-.02.78.73-.04-.2a.93.93 0 0 0-.44-.63l-.22-.13.46.85.02-.34v-.27l-.1-.37-.16-.32.1.35v-.1a1.05 1.05 0 0 0-.36-.71l-.44-.38-.14-.1-.3-.2.02.02-.27-.18c-.17-.11-.36-.17-.56-.18l-.34-.01h.03l-.3-.02h-.04l-.48-.03-.52-.02-.48-.01h-.11l-.66.04-.2.03-.65.16-.34.13-.71.42-.24.18-.66.65-.14.18-.6.87.15-.18-.84.82-.18.23-.66 1.08.05-.08-.83 1.16-.08.12-.66 1.19.09-.14-.83 1.13-.06.1-.77 1.24-.02.04-.82 1.48-.06.1-.68 1.53-.05.14-.52 1.64-.03.13-.31 1.56v.01l-.35 1.82-.02.15-.11 1.64v-.01l-.15 1.78V213.48l.15 1.48.02.13.29 1.42.08.25.48 1.13.07.13.54.94.2.27.65.65.12.1.62.5.32.17.8.32.02.01.63.23c.14.05.29.08.44.08h.65-.01l.76.01h.8l.72.01h.65c.14 0 .28-.01.4-.06l.72-.22.17-.07.65-.31.1-.05.67-.4.06-.03.48-.31.06-.05.6-.43h-.01l.47-.34.02-.01.58-.44c.13-.1.24-.21.32-.34l.33-.52.06-.1.25-.49-.09.14.34-.49c.1-.14.16-.3.2-.47l.1-.51-.04.14.15-.48.06-.26.04-.48.01-.14v-.49l-.08-.38-.17-.5-.01-.02-.18-.49-.18-.32-.37-.48.04.07-.35-.5-.09-.13-.43-.48-.07-.07-.51-.48-.14-.1-.49-.34-.03-.03-.49-.3-.07-.05-.5-.27.03.02-.52-.3-.12-.05-.48-.21-.33-.08-.42-.05.34.1-.35-.16c-.15-.07-.32-.1-.5-.1l-.27.02.56.14-.17-.1a.95.95 0 0 0-.42-.13l-.06-.01a.9.9 0 0 0-.77.34l-.18.23a.85.85 0 0 0-.15.77l.03.11-.03-.16.03.34c.03.3.22.55.5.65l.25.1-.24-.16.3.32-.08-.11.23.34.05.07.43.48-.08-.1.28.48a.7.7 0 1 0 1.22-.71l-.28-.49-.08-.1-.42-.5.06.08-.23-.34-.1-.1-.3-.32.06.07-.17-.22.16.56.03-.34-.03.16.03-.1-.37.47.25-.15a.9.9 0 1 0-1.36-.7v.05c.01.15.06.3.14.43l.1.16c.1.18.25.31.43.4l.25.12-.06-.03.33.18.35.12.42.07-.32-.1.47.24-.1-.06.5.33.48.3h-.02l.49.31-.04-.02.47.34-.12-.1.5.48-.07-.08.42.49-.1-.13.34.51.04.06.36.49-.17-.34.16.49v-.02l.16.51-.06-.39v.49-.15l-.06.48.07-.27-.19.47-.04.15-.13.5.2-.43-.34.48-.09.13-.26.48.07-.12-.35.5.33-.32-.6.41-.49.33v.01l-.6.42.03-.03-.48.32.05-.04-.68.4.1-.05-.66.31.17-.07-.7.23.39-.06H37.38l-.8.01-.77.02h.01-.65l.44.07-.62-.22.03.01-.8-.3.32.17-.62-.48.12.11-.65-.65.2.27-.54-.94.08.15-.48-1.14.08.25-.28-1.41.01.12-.14-1.47.01.12v-1.53.1l.14-1.79v-.01l.1-1.65-.01.16.34-1.82v.02l.3-1.56-.03.13.51-1.65-.05.14.67-1.53-.05.1.82-1.47-.02.05.76-1.25-.05.07.81-1.14.09-.13.64-1.2-.07.13.81-1.17.05-.07.65-1.08-.18.23.81-.83.15-.18.59-.89-.15.19.65-.66-.23.18.7-.43-.3.14.65-.19-.2.04.65-.07h-.09l.48-.01.51-.02h.01l.48-.02h.03l.31-.03h-.03.34l-.57-.14.3.16.05.03.32.15-.19-.11.47.35-.32-.41.04.1.07.13.18.3.02.03.1.14-.16-.48.02.34c.02.36.24.68.57.82l.23.1-.5-.51.08.2c.16.37.54.6.94.55l.17-.02-.86-.43.1.18-.1-.3.04.28a.75.75 0 0 0 1.49 0ZM50.33 213.1v.76l-.01.94v-.02l-.02.54-.01.66-.02.71v-.06l-.05.65v.01l-.05.65-.04.47c-.02.2.03.4.14.57l.18.3-.13-.32.05.23c.08.45.47.77.92.8h.23a1 1 0 0 0 1.03-.95V218.63l.02-.49.01-.82.02-.82v-.77l.02-.82.01-.8.01-1v-.93l.01-.8.01-.87.01-.65V208.68v.13l.04-.42-.1.34.17-.34.08-.23.09-.36-.59.74.34-.18.29-.2.15-.16-.7.32.32-.02.16-.01h-.03.34-.06.31l-.27-.04.49.15-.33-.17.36.27-.21-.22.32.47.05.08.38.45.08.09.52.47-.07-.06.54.62v-.02l.5.62.01.01.55.65-.03-.03.49.65.05.07.51.53-.12-.16.49.94.03.05.48.77c.2.33.65.43.98.22a.71.71 0 0 0 .22-.98l-.48-.77.03.06-.48-.94-.12-.16-.5-.54.05.06-.48-.65.05.09-.4-.75-.04-.06-.45-.68v-.02l-.48-.68-.05-.05-.44-.54.08.12-.3-.51v-.01l-.3-.5-.2-.21-.33-.3-.3-.18-.47-.2-.22-.05-.31-.05h-.13l-.34-.02h.03-.17l-.3-.02c-.25-.02-.49.05-.69.19l-.18.12.14-.08-.34.17c-.3.15-.5.42-.58.74l-.09.37.1-.26-.18.33-.11.35-.07.43v2l.01.87v.79l.01.93.01 1 .01.8.02.82.01.77.01.82.02.82v.49l.02.4.95-1.02-.23.01.98.7-.07-.23-.16-.32-.22-.27.2.51-.04-.47-.05-.65-.05-.66v.06l-.01-.71-.02-.66-.01-.54v.02l-.01-.93v-.77a.75.75 0 0 0-1.5 0ZM66.97 214.29l-.23-.49-.04-.07-.28-.45-.23-.23-.48-.32.22.23-.27-.42-.27-.26-.32-.18.22.17-.24-.27-.15-.13-.28-.21a.99.99 0 0 0-.43-.18l-.42-.05.46.2-.28-.23a.95.95 0 0 0-.7-.2l-.43.04-.3.08-.35.16a.96.96 0 0 0-.34.27l-.28.35a.96.96 0 0 0-.2.4l-.14.66v.1l-.07.54.03-.15-.17.65-.03.18-.06.77v.96l.06.76.02.13.17.8-.01-.03.11.62.08.25.31.65.08.13.33.49.27.26.47.32-.06-.05.53.41.34.18.64.19.53.15.27.05.68.02h.05l.6-.01.22-.03.66-.15.26-.1.53-.28.15-.1.65-.47.12-.1.49-.48.13-.16.35-.5.02-.03.35-.54.15-.35.17-.65-.06.15.22-.54.06-.2.13-.64.02-.15.05-.71-.03.18.16-.65c.05-.17.05-.34 0-.5l-.17-.71-.07-.21-.31-.65-.14-.21-.45-.56.02.03-.49-.65-.12-.14-.56-.52-.12-.09-.67-.46-.06-.03-.55-.32-.1-.05-.66-.3-.22-.06-.57-.1.14.04-.49-.16-.2-.04-.48-.05a.91.91 0 0 0-.52.1l-.44.25-.23.18-.3.32-.14.22-.21.46-.08.38.01.48v.03l.04.48.03.5.02.54v-.01l.03.65.02.54.02.65.05.21.23.6.02.04.31.66.08.13.45.56-.03-.04.48.71c.21.3.63.38.93.18.3-.21.38-.63.18-.93l-.48-.7-.04-.05-.45-.57.08.13-.31-.65.02.05-.22-.6.04.27.02-.65.03-.53.02-.66.03-.53.03-.5.03-.48v-.03l.02-.48-.1.38.24-.45-.18.23.32-.3-.23.15.46-.2-.49.07.48.06-.2-.05.49.18.1.03.57.14-.22-.08.65.33-.1-.06.52.36-.06-.04.63.5-.11-.1.51.56-.07-.1.48.66.02.03.45.57-.13-.2.31.65-.07-.2.17.7v-.52l-.17.64-.04.19-.06.7.02-.13-.15.65.07-.2-.24.54-.05.14-.18.65.16-.34-.37.53-.03.04-.33.52.13-.18-.47.5.13-.13-.65.49.14-.09-.54.28.21-.08-.65.19.22-.04-.6.04h.06l-.68.02.26.03-.55-.12h.01l-.65-.16.34.16-.55-.38-.03-.03-.49-.3.27.25-.34-.48.08.15-.31-.65.08.24-.12-.62v-.03l-.17-.8.02.14-.06-.77v.08-.82.07l.05-.77-.02.17.17-.65.02-.14.06-.54-.02.11.15-.65-.21.42.28-.34-.28.23.34-.18-.3.1.42-.07-.74-.19.29.22c.13.1.3.18.46.2l.43.05-.22-.05.33.12-.1-.04.3.16.18.08.36.1-.37-.22.35.36.13.11.48.32-.22-.23.28.45-.04-.08.22.48c.17.37.62.54 1 .37a.75.75 0 0 0 .36-1ZM73.75 212.06l-.05.5-.05.48.03.35.14.49v.03l.17.51.12.25.33.49-.12-.25.16.49.1.2.3.5-.11-.23.16.51.15.3.36.5-.15-.3.1.34c.06.17.16.32.29.44l.34.32.18.16.2.12.33.17c.16.09.34.12.52.12h.17c.17-.01.33-.06.48-.14l.3-.18c.17-.1.31-.23.4-.4l.16-.3-.05.1.33-.48c.09-.12.15-.26.17-.42l.09-.48-.16.4.36-.53.13-.26.14-.49-.34.49.36-.27.05-.04.28-.24-.55.23.3-.02h-.07.34l-.84-.59.1.24c.06.18.19.34.35.44l.4.28-.4-.6.1.48.11.3.3.51-.12-.33.06.32.06.2.14.36c.09.23.26.43.48.55l.26.15-.44-.45.24.44c.17.3.47.52.82.58l.48.08-.48-.2.33.24c.2.13.41.2.64.21h.31H83l.18.02h.03l.34.01c.2.01.41-.04.6-.13l.1-.06c.15-.08.28-.18.39-.3l.14-.18.02-.03.22-.29.18-.34.17-.49-.11.24.3-.5.12-.26.15-.52-.04.1.2-.5.04-.1.14-.5.04-.26.01-.49-.04.28.15-.5-.09.2.19-.33.06-.12.14-.36-.5.53.35-.17a.92.92 0 0 0 .42-.4l.24-.46-.6.46.47-.1.17-.06.47-.2-.19.06.34-.06-.13.01h.31l.4-.1.34-.2.49-.29a.79.79 0 0 0-.8-1.36l-.49.28-.33.2.4-.1h-.45l-.34.06-.08.01-.49.14.19-.03-.48.01a.88.88 0 0 0-.64.32l-.33.39.57-.32-.37.06a.97.97 0 0 0-.69.45l-.2.32.12-.16-.26.28c-.1.1-.17.23-.22.36l-.18.5-.06.28-.04.48.08-.33-.2.47.04-.1-.25.47-.07.15-.18.5.13-.25-.32.47-.14.26-.18.48.2-.35-.23.27h.01l-.14.17.4-.31-.12.05.48-.11h-.37l-.18.02h.04-.31l.67.2-.35-.23c-.16-.1-.35-.16-.54-.18l-.48-.03.87.51-.27-.41c-.16-.23-.4-.4-.66-.47l-.3-.08.66.48-.2-.32.02.03-.17-.28-.02-.04-.32-.5.12.27-.12-.48a.97.97 0 0 0-.49-.6l-.44-.24.36.33-.14-.21a.9.9 0 0 0-.79-.43h-.34.08l-.31-.01a.93.93 0 0 0-.62.18l-.29.21.05-.03-.37.25c-.17.1-.3.26-.38.44l-.18.48.17-.3-.43.5c-.12.13-.2.3-.24.49l-.08.48.17-.41-.34.48-.03.03-.18.28.4-.35-.32.16.52-.12h-.17l.43.1-.35-.16.18.11-.14-.11.06.05-.34-.31.28.43-.11-.34-.17-.3-.38-.48.16.3-.18-.51-.12-.23-.32-.48.1.21-.17-.47-.13-.24-.35-.47.13.25-.17-.5v.03l-.14-.48.03.19-.04-.48-.05-.5a.86.86 0 0 0-1.71 0ZM95.91 193.96l-.03.65v.02l-.02.66-.01.85v-.02l-.03.76v.01l-.04.99v.14l.15 1.14v-.02l.12 1.16.03.16.4 1.36-.02-.04.3 1.3-.01-.07.21 1.42v-.04l.16 1.47v.06l.24 1.47v-.05l.14 1.44v.02l.18 1.34v-.12 2.55l.01 1.3v.02l.03 1.02.02.83.01.1.08.58v-.11 2.18a.79.79 0 0 0 1.57 0v-2.18.1l.08-.57v-.1l.03-.82v-.01l.02-1.02v-.01l.01-1.3.01-1.25v-1.44l-.17-1.33v.04l-.13-1.45v-.05l-.22-1.47v.01l-.18-1.47v-.04l-.25-1.42-.01-.06-.32-1.3-.01-.05-.4-1.35.02.13-.16-1.16v-.03l-.2-1.13.02.12-.04-.99v-.01l-.04-.76v.02l-.01-.85-.02-.66v-.02l-.03-.65a.74.74 0 0 0-.78-.7.74.74 0 0 0-.7.7Zm0 0"/><path style="stroke:none;fill-rule:nonzero;fill:#000;fill-opacity:1" d="m93.97 204.36.02-.34.01-.3-.23.5.09-.08-.1.09.19-.14-.78.1.17.07-.16-.08.33.2.3.1.42.09-.53-.3.34.37c.13.14.29.24.47.28l.65.17.6.16.26.03.82-.01h.09l.64-.07h-.02l.82-.07.6-.06.13-.02.65-.17.08-.02.77-.29.15-.07.77-.48c.38-.24.5-.75.25-1.13a.82.82 0 0 0-1.13-.26l-.76.48.15-.07-.76.28.07-.02-.65.17.13-.02-.6.05h.15l-.82-.07h.02l-.64-.06h-.09l-.82-.02.27.04-.6-.18-.03-.01-.66-.17.48.28-.34-.36a1 1 0 0 0-.65-.32l-.42-.03.3.08-.35-.15a.95.95 0 0 0-.68-.03l-.17.07a.88.88 0 0 0-.42.32l-.14.2-.14.36-.02.12v.14l.02.31.01.34a.74.74 0 0 0 1.49 0ZM107.2 187.08l-.04.48-.05.53-.05.66v.04l-.02.93-.03 1.14-.03 1.36-.03 1.3-.04 1.41-.04 1.48v.05l.03 1.53v.06l.12 1.64v-.04l.04 1.36.01.08.16 1.45v.06l.22 1.33-.01-.07.13 1.3.05.25.33 1.03-.04-.14.16.82.04.14.19.6-.03-.07.17.65v.04l.12.4c.06.2.18.4.35.55l.34.32.2.14.16.1.07.04.35.17.31.1.32.06c.23.04.48 0 .7-.1l.5-.24.2-.11.48-.35.14-.12.48-.49.09-.1.5-.66.07-.1.3-.5-.03.05.33-.5.1-.17.22-.52-.26.37.34-.3-.21.14.42-.23.17-.11.28-.23-1.2.11.43.23-.25-.2.33.35-.14-.18.38.6-.13-.3.18.65.06.16.39.84v-.01l.35.81-.04-.1.28.87.04.1.37.82-.05-.13.3 1.02.03.08.33.82.02.05.48 1.02v.01l.4.8-.02-.05.37.9-.02-.04.34 1 .1.18.65.97-.04-.07.54 1a.8.8 0 1 0 1.42-.78l-.54-1-.04-.06-.66-.96.1.19-.34-1-.01-.03-.37-.91.02.04-.29-.84-.37-1.07-.3-.84.03.08-.27-1.02-.03-.1-.32-.83.03.1-.22-.89-.04-.1-.32-.84v-.01l-.35-.86.04.15-.15-.66-.12-.3-.36-.6-.17-.2-.35-.35-.25-.19-.43-.22c-.37-.2-.83-.16-1.17.1l-.28.22.17-.1-.43.22-.24.17-.34.31-.2.26-.28.5.07-.12-.35.47-.03.04-.32.47.05-.06-.52.65.1-.1-.5.47.17-.13-.49.33.2-.1-.5.2.67-.06-.31-.07.31.11-.33-.17.32.25-.12-.14-.07-.06-.34-.31.35.56-.12-.4.01.02-.18-.65-.02-.08-.2-.6.03.14-.18-.82-.04-.13-.35-1.02.05.24-.15-1.3-.01-.07-.24-1.33.01.06-.18-1.44v.08l-.07-1.36v-.05l-.16-1.64v.05l-.08-1.53v.03l-.04-1.48-.04-1.41-.03-1.3-.03-1.36-.03-1.13v-.01l-.02-.93v-.04l-.05-.65v-.01l-.06-.54v.01l-.03-.48a.74.74 0 0 0-1.48 0ZM165 322.07l-1.1-.8 1.1.95c.72 0 .9-.06 1.04-.18l1.19-.33 1.15-.26 1.35-.2h1.45l1.33-.01h1.14l1.47-.01h14.2l1.28-.05 1.5-.48 1.36.06h20.1l1.05.3 1.47.19h19.39l1.1-.03 1.56-.23 1.73-.23 1.87.01 1.01-.02 1.55-.27 1.64-.2h5.81l1.58.01 1.73.01h16.36l1.87-.35 2.04-.16H278.55l1.96.01h10.52l1.85-.15 1-.18 1.83-.16H304.86l1.1-.2 1.62-.3 1.56.01h8.14l2 .16 1.16.15 1.11.17h5.54l1.82.2 1.73.2 1.02.07h6.54l1.26-.21 1-.06 1.15-.23 2.34.02h2.25l1.15-.25 1.9-.18 1.84-.05H368.58l1.23-.05 1.21-.18 1.05-.05 1.14-.17 1.9-.05H386.39l1.49-.03 1.54-.17 1.25-.06 1.37-.18 1.05-.05h14.53l1.65-.03h5.32l1.4-.06 1.23-.17 1.27-.02 1.37-.24 1.34.01H424.34l1.64-.23 1.62-.04 1.53-.18 1.38-.02h4.89l2.17.01 1.05.01h25.43l1.23-.18 1.28-.17 1.3-.17h1.16l1.36.01h4.67l1.92-.21 1.57-.3 1.38-.03 1.62-.22 1.1-.21 1.8.01 1-.05 1.08-.18 1.96-.23 2.05-.04h4.96l1.08-.21 1.52-.22 1.54-.04 1.78-.24 1.97-.18 2.06-.04h2.24l1.23-.19 1.29-.16 1.28-.14H518.25l1.15-.25 2.12-.21 1.07-.11 1.3-.15 1.09-.04 1.37-.18 1.24-.05h1.44l1.72-.18 1.65-.16 1.6-.14h3.87l1.36-.18 1.14-.17 1.06-.17h4.49l1.25-.01h8.02l1.04.21 1.19.07 1.98.22h2.96l1.82.05 1.84.2 1.1.22 1.2.02h21.23l1.06.05 1.25.16 1.13.06 1.1.2H608.45l1.2.01H613.12l1.43-.02H626.09l1.09-.06 1.18-.15 1.2-.05 1.41-.24 1.18.01h4.25l1.44.01 1.48.01h13.72l1.53.01h11.17l1.39-.23 1.02-.06 1.42-.2h7.99l1.5-.05 1.54-.18 1.36-.05 1.37-.18 1.3-.05h7.81l1.32-.01h7.33l1.55-.15 1.49-.17 1.26-.17h4.74l1.23-.17 1.26-.14 1.33-.17h4.29l1.47.02 1.47.01h37.05l1.47-.17 1.15-.18 1.29-.16h12.71l1.69-.33 1.51-.15h11.28l1.2-.04 1.18.61 1.04.27h1.02l1.18-.01H796c.83-1 .54-1.28.2-1.28h-1.48c-.65 1-.36 1.28 0 1.28h1.24c.87-1 .59-1.28.24-1.28l-1.04-.01h-2.41l-1.13-.49c-.59-.5-.79-.6-1-.62l-1.27-.04H778.05l-1.82.19-1.54.31-1.03-.01H762.04l-1.41.17-1.15.18-1.34.16H719.7l-1.48.02H713.84l-1.4.18-1.29.14-1.14.18-1.3-.02h-3.42l-1.36.18-1.46.17-1.45.14h-7.27l-1.3-.02H684.6l-1.4.06-1.37.18-1.34.05-1.53.17-1.42.05h-8.07l-1.53.2-1.09.06-1.24.23-2.24-.01h-24.04l-1.48.02-1.45.01h-5.54l-1.46.24-1.16.04-1.2.15-1.9.05h-10.58l-1.4-.03h-6.65l-1.99.02H594.23l-1.07-.2-1.16-.06-1.24-.17-1.17-.06h-1.23l-1.9-.01h-19.2l-1.04-.2-1.88-.2-1.98-.07h-1.95l-1.91-.06-1-.17-1.2-.05-1.1-.23H548.58l-1.42-.01h-2.61l-1.12-.02H541.16l-1.04.18-1.12.17-1.24.17-1.2-.01h-2.63l-1.69.14-1.65.17-1.65.18h-1.39l-1.34.05-1.37.17-1.07.06-1.35.15-1.1.1-1.18.18-1.1.07-1.78.2h-5.87l-1.39.14-1.32.18-1.12.17-1.07-.01h-2.19l-1.06.06-1.22.16-1.74.24-1.42.04-1.1.08-1.42.22-1.02.21-1.59-.01h-4.39l-1.04.06-1.08.18-1.95.23-1.82.04-1.12.02-1.72.24-1.43.23-1.1.03-1.33.26-1.04.21-1.79-.02h-6.15l-1.4.18-1.31.18-1.12.17-1.3-.01H437.57l-1.19.02h-5.89l-1.46.02-1.54.18-1.64.05-1.62.24-1.56-.01h-2.95l-1.38.24-1.24.02-1.26.18-1.28.05h-5.3l-1.63-.02H393.05l-1.15.05-1.36.17-1.24.05-1.53.17-1.4.03H374.1l-1.05.05-1.2.18-1.06.06-1.13.17-1.11.05H364.98l-1.36.01h-13.56l-1.03.06-1.9.2-1.11.24-1.02-.02h-3.54l-1.29.25-2.1.25-1.03-.01h-4.51l-1.71-.06-1.73-.2-1.96-.23-1.26-.01h-3.21l-2-.16-1.16-.15-1.14-.17H307.4l-1.71.32-2 .16H296.84l-1.13-.01-1.13.01-1.95.34-1.6.12H274.13l-1.12.2-1 .17-1.53.15h-16.22l-1.76.01H245l-1.58.26-1.04.25-1.57-.02h-1.04l-1.01.08-1.65.21-1.63.2h-19.39l-1.14-.16-1.16-.3-1.58-.03H207.23l-1.24.01h-13.72l-1.3.3-1.15.19H171.7l-1.3-.02h-1.18l-1.1.31-1.03.18-1.04.28-1.01.43-1.06-.15-.83 1 1.02.85c-.73-.17-.6.3-.22.5.37.2.84.07 1.05-.3Zm0 0"/><path style="stroke:none;fill-rule:nonzero;fill:#004f8b;fill-opacity:1" d="m331.51 193.75-.48-.02-.28-.02-.43-.01.16.02-.1-.03-.13-.02-.31-.03.09.02-.11-.03-.15-.01-.45-.01h.02l-.26-.01h-.03l-.48-.01h-.51.03l-.32-.02h-.34l.16.01-.31-.06.11.03-.5-.18-.18-.05-.48-.06.15.03-.48-.15-.17-.04-.52-.06h-.58l-.53-.02h-.66l-.2.01-.71.14-.83.17h.03l-.94.16.18-.02H320.12l-.93.04-.12.02-1 .16.12-.01-.97.04-.13.02-1 .2.2-.02-.96-.02-.21.03-1.65.33h-.06l-.76.2h.05l-.82.16h.07l-.88.1-.35.12-.65.34.32-.1-.85.13-.23.07-.83.33.12-.04-.93.26-.07.02-.97.35-.06.02-1 .43.14-.05-1.02.29-.12.04-1.16.48.09-.03-1.08.34.07-.02-1.3.31-.05.01-1.16.34-.07.02-1.3.48-.07.03-1.08.48-1.16.5h.03l-1.19.47h-.02l-1.14.48-.05.03-1.16.56-.13.08-.97.64-.03.03-.82.6-.13.1-.82.83.13-.11-.82.59.03-.02-.97.65-.02.02-1 .7h.03l-.96.65-.02.01-1.16.83.08-.06-1.13.65-.02.01-1.3.8.01-.01-1.16.68-.05.03-1.3.85-.04.03-1.14.82.09-.05-1.3.76-.1.06-1.13.82.07-.04-1.33.82-.13.1-1.14.96.07-.05-1.13.82-.06.04-.99.82-.01.01-.97.82-.05.05-.99.96h.01l-.99.93.04-.04-.97.82v.01l-1.05.9.07-.05-1.13.82-.08.07-1.06.93.02-.02-1.13.96.02-.03-1.19.94.05-.03-1.16.82v-.01l-1.36.93.06-.03-1.3.79-.13.08-1.36 1.1-.03.03-1.31 1.13-.01.02-1.36 1.21-.05.04-1.13 1.14.03-.04-1.16 1.08-.14.15-.97 1.3.07-.08-1 1.1-.02.03-.96 1.13-.03.03-.83 1.05.03-.04-.82.97-.11.15-.6.99.04-.05-.66.96.04-.05-.72.94.02-.02-.65.83-.01.01-.71.93.03-.03-.66.8-.06.08-.6.88.14-.17-.82.83-.07.08-.82.98.08-.08-1 .96-.02.02-.96 1-.04.04-.99 1.13.02-.02-1.02 1.1.04-.04-1.16 1.14-.03.03-1.03 1.08-.02.02-1.16 1.3h.02l-1.03 1.1-.02.02-1 1.13-.01.02-.92 1.1-.03.06-.84 1.12.07-.07-.9 1.01-.12.19-.66 1.16.05-.1-.71 1.02-.02.03-.66.99-.07.14-.55 1.13.04-.07-.65 1.16-.03.05-.6 1.2.04-.07-.66 1.13-.02.03-.56 1.05v-.03l-.64 1.14-.03.06-.6 1.18.03-.04-.66 1.16-.05.09-.54 1.2.05-.11-.64 1.13-.6 1.05-.65 1.13-.02.03-.57 1.05.07-.1-.66.96-.03.05-.7 1.16-.02.02-.66 1.14.02-.04-.7 1.13v-.02l-.64.99-.04.06-.54.94.11-.17-.65.8-.03.03-.7.94v-.02l-.64.82.02-.03-.65.77-.12.17-.48.82.13-.18-.52.6-.05.07-.49.65-.06.1-.42.7-.04.07-.34.64.03-.05-.42.7-.03.07-.34.65.04-.08-.37.6-.09.17-.34.83.03-.07-.37.76-.1.28-.17.82.07-.2-.37.9-.34.82-.05.15-.23.88-.02.1-.15.81.02-.1-.22.86-.18.65v.03l-.2.82v-.02l-.17.65-.03.2-.06.65.06-.28-.17.51-.06.27-.05.48v.62l.06-.39-.17.52v.03l-.14.48.02-.06-.18.48-.05.24-.06.43.12-.38-.17.34-.1.31-.06.29.42-.7-.17.13c-.14.12-.25.26-.33.42l-.03.06c-.07.16-.1.33-.1.51v.45-.04.47l.7-1.1-.24.1a1.2 1.2 0 0 0-.67.8l-.06.24 1.18-.91H206c-.66 0-1.2.51-1.22 1.17V308.28v-.01.17l.67-1.1-.16.09c-.27.13-.49.36-.6.63l-.14.34.06-.12-.17.31-.04.09-.23.51-.1.35-.05.48.04-.2-.14.48.04-.1-.11.28.26-.41-.16.17c-.17.17-.28.37-.33.6l-.06.25.89-.91-.23.06a1.2 1.2 0 0 0-.92 1.17v.23c0 .66.54 1.2 1.2 1.2h.23l.3-.03.23-.06.3-.1.3-.18h.01l.45-.26c.19-.1.34-.24.45-.42l.31-.5-.17.21.48-.48-.16.14.68-.49.1-.07.59-.51-.16.11.79-.49.07-.04.68-.48-.07.04.79-.48.13-.1.81-.65-.07.05 1-.7.95-.66-.15.09.99-.5.02-.01.82-.44-.09.04.82-.35.27-.17.56-.47-.12.09.62-.4-.05.04.52-.29.15-.09.46-.37-.07.05.32-.2.2-.19.27-.34-.01.02.13-.15-.13.11.3-.22c.14-.1.23-.26.27-.43l.05-.26-.5.52.22-.05c.3-.08.52-.35.52-.67v-.22c0-.38-.3-.68-.68-.68h-.97a.68.68 0 0 0 0 1.36h.97a.68.68 0 1 0-.68-.68v.22l.51-.66-.22.06a.68.68 0 0 0-.45.37l-.12.24.45-.38-.36.1h-.02l-.2.07-.26.15-.34.27.26-.14-.36.12-.18.09-.5.3.15-.07-.55.23h-.02l-.68.3-.13.06-.62.38.16-.08-.82.33-.09.03-.83.41h.03l-1 .46-.15.08-.97.64h-.01l-1 .68-.07.04-.82.65.11-.08-.8.48-.06.04-.69.48.08-.04-.8.47-.16.12-.6.5.08-.06-.68.48-.15.13-.48.49-.18.23-.31.5.44-.42-.46.26.02-.01-.3.17.28-.11-.23.05.28-.03h-.24c-.67.01-1.2.56-1.19 1.23.02.67.57 1.2 1.24 1.19a1.22 1.22 0 0 0 1.19-1.21v-.23l-.92 1.17.23-.05c.44-.11.78-.47.88-.91l.06-.26-.32.6.16-.18c.12-.11.21-.25.27-.4l.12-.29.03-.1.15-.48.04-.2.05-.49-.1.36.23-.52-.04.1.17-.32.05-.1.15-.34-.57.6.17-.08c.4-.21.66-.63.66-1.08V307.69a1.21 1.21 0 1 0-1.2 1.25h.22a1.2 1.2 0 0 0 1.17-.92l.06-.23-.6.77.23-.12c.38-.21.62-.62.62-1.05v-.47.04-.45l-.14.56.03-.06-.29.36.17-.15c.2-.17.35-.4.4-.67l.06-.28-.1.3.17-.35.12-.37.06-.43-.06.24.17-.48.02-.06.14-.48-.02.05.18-.5.07-.39v-.48.14l.06-.48-.06.23.18-.51.05-.29.06-.65-.04.2.17-.64v-.03l.2-.82v.02l.17-.65.23-.84.02-.12.14-.82-.02.1.21-.88-.05.17.34-.82v-.01l.37-.91.07-.22.17-.82-.1.28.36-.77.03-.05.34-.83-.09.18.37-.6.05-.07.34-.65-.04.06.43-.7.04-.07.34-.66-.04.07.43-.71-.07.1.48-.66-.05.07.5-.6.13-.17.48-.82-.12.17.65-.76.04-.04.64-.82.02-.02.7-.94-.02.04.65-.79.11-.16.54-.94-.04.06.66-1 .01-.02.71-1.13.02-.04.65-1.14-.01.03.7-1.16-.03.04.65-.96.06-.1.57-1.05-.02.03.66-1.14.6-1.05h-.01l.65-1.13.06-.1.54-1.2-.05.1.65-1.17.02-.05.6-1.19-.04.06.66-1.13v-.03l.57-1.05v.03l.64-1.14.03-.06.6-1.19-.03.05.65-1.16.04-.07.53-1.14-.08.14.65-1-.01.03.7-1.02.06-.1.64-1.17-.13.19.87-1.02.06-.08.81-1.14-.03.06.9-1.12-.03.03.99-1.13-.02.02 1.02-1.1v-.02l1.17-1.3-.02.02 1.02-1.08-.03.04 1.16-1.14.04-.04 1.02-1.1.02-.03 1-1.13-.05.04.97-.99-.02.02.99-.96.08-.09.82-1-.07.09.82-.82.14-.17.6-.88-.06.09.65-.8.02-.04.71-.93-.02.02.66-.82.01-.02.71-.93.04-.06.65-.96.03-.05.6-1-.11.16.82-.97.03-.04.82-1.05-.03.04.96-1.14-.02.02.99-1.1.06-.09.96-1.3-.13.15 1.16-1.08.03-.03 1.13-1.13-.05.04 1.36-1.22v.01l1.3-1.13-.03.02 1.36-1.1-.12.08 1.3-.8.05-.04 1.36-.94 1.17-.82.04-.04 1.2-.93.03-.03 1.13-.97.02-.02 1.04-.94-.09.07 1.14-.82.07-.06 1.05-.9.96-.82.04-.04.99-.93v-.02l1-.96-.05.05.96-.82h-.01l1-.82-.06.05 1.13-.82.07-.06 1.13-.96-.13.1 1.33-.83.07-.04 1.13-.82-.08.06 1.3-.77.09-.06 1.13-.82-.04.03 1.3-.85-.04.03 1.16-.68.02-.01 1.3-.8-.02.02 1.13-.65.08-.05 1.17-.82h-.02l.97-.64.02-.02 1-.7h-.03l.96-.64.03-.02.83-.6.12-.1.82-.83-.12.11.82-.6-.03.03.97-.66-.14.08 1.17-.57-.05.02 1.13-.49-.02.01 1.19-.49h.03l1.16-.52 1.08-.48-.06.02 1.3-.49-.07.03 1.16-.35-.05.02 1.3-.31.07-.03 1.08-.34.08-.03 1.17-.48-.13.05 1.03-.29.13-.04 1-.42-.07.02.96-.34-.07.03.93-.25.14-.05.82-.34-.23.06.85-.14.3-.1.66-.35-.36.12.88-.12h.08l.83-.18.05-.01.77-.2-.05.01.82-.18.82-.17-.2.02.96-.01.2-.02.99-.2-.15.01.97-.06.11-.02.99-.17-.1.01.93-.07h-.06.79l.18-.02.93-.17h.02l.82-.18.7-.15-.18.02h.65l.55-.01h-.01.48-.1l.5.04-.15-.03.49.13.15.03.49.05-.2-.04.52.16.14.03.3.05h.52l.32-.01h-.03.51l.48-.01h.03l.26-.01h-.02l.45-.02.15-.01.1-.03-.08.02.3-.03.13-.02.11-.03-.16.03.42-.02h.01l.29-.01.47-.03a.73.73 0 0 0 0-1.46Zm0 0"/><path style="stroke:none;fill-rule:nonzero;fill:#004f8b;fill-opacity:1" d="m199.5 304.52-.25.04a.76.76 0 0 0-.39.17l-.18.16-.06.06-.08.08a.81.81 0 0 0-.23.54l-.01.3-.01.35v.09l.03.48.04.2.14.48.05.12.24.52.18.26.5.5-.1-.12.49.66.48.65.03.05.51.6.17.15.48.35.02.01.5.35.26.12.5.14-.23-.1.51.32.17.07.48.18.48.16.3.06h.5a.88.88 0 0 0 0-1.76h-.5l.29.05-.48-.17-.49-.17.17.08-.51-.32-.12-.05-.47-.2.24.14-.46-.39-.08-.06-.49-.33.18.15-.51-.59.04.06-.48-.65-.49-.65-.12-.14-.52-.47.19.24-.27-.5.04.1-.2-.48.06.18-.08-.48.01.1v-.33l-.02-.31-.01.16.02-.12-.17.38.15-.18-.36.23.25-.07a.74.74 0 0 0-.32-1.45ZM345.4 221c.22-.6.03-1.09-.38-1.27a.82.82 0 0 0-1.07.41l-.76 1.43-.46 1.07-.53 1.04-.74 1.36-.74 1.08-.82 1.02-.7 1.06-.57 1.1c-.05-.35-.26-.03-.26.32l-.66 1-.33 1.31-.62 1.03-.35 1.26-.3 1.17-.48 1.3-.6 1.13c-.51.7-.59.91-.59 1.13l-.72 1.17-.52 1.18-.3 1.07-.39 1-.45 1.15-.12 1.3-.25 1.3-.23 1-.39 1.08-.09 1.04v1.3l-.29 1.37-.4 1.14-.32 1.07-.4 1.08-.13 1.05-.47 1.46v1.48l-.16 1.19-.24 1.05-.3 1.08-.33 1.15-.37 1.16-.26 1.12-.45 1.3-.3 1.1-.31 1.33-.46 1.26-.52 1.59-.4 1.07-.43 1.08-.62 1.34-.45 1.24-.6 1.18-.75 1.21-.64 1.24-1 1.06-.49 1.02-.96 1.13-.99 1.3-.98 1.38-1.02 1.44-.89 1.54-.6 1.1-.79 1.06-.59 1.07c-.7 1-.75 1.16-.75 1.33l-.24 1.27-.48 1.12-.43 1-.53 1.46-.74 1.09-.5 1.1-.68 1.22-.56 1.07-.76 1.07-.62 1.11-1.12 1.15c-1.05.88-1.12 1.08-1.12 1.3-.52 1.43-.1 1.86.42 1.87l1.05.02 1.07-.32 1.19-.52 1.14-.48 1.14-.16c.94-.05 1.18-.47 1.07-.89-1.32-.43-1.56-.08-1.51.3.08.72.3.96.59 1.04 1.05.3 1.37-.02 1.37-.42l-1.02-.98-1.14-1-1.37.26-1.24.58-1.17.53-1.02.14.1 1.64c1.1-.9 1.2-1.11 1.22-1.35l1.1-1.05 1.03-1.12.7-1.01.75-1.38c.6-.77.7-.9.78-1.04l.56-1.09.62-1.2c.45-.76.51-.89.55-1.03l.55-1.49.47-1.26c.34-.59.46-.8.48-1.04l.27-1.06c.5-.88.62-1.07.67-1.28l1.1-1.55.74-1.34.72-1.22 1.02-1.4 1.01-1.43.93-1.22.8-1.07.67-1.27 1.2-1.22c.48-.7.57-.86.61-1.03l.74-1.35.7-1.24.47-1.4c.5-.87.56-1 .6-1.13.4-.79.45-.93.47-1.07l.24-1.1.4-1.07.38-1.05.4-1.02.38-1.3.27-1.31c.37-.74.42-.88.44-1.02l.28-1.47.45-1.16.29-1.31.4-1.27.22-1 .1-1.27v-1.48c.3-.75.4-.94.44-1.16l.18-1.06.35-1.03.4-1.38.36-1.33.23-1.22v-1.3l.3-1 .18-1.11.25-1.3.23-1 .23-1.05.28-1.01.4-1.14.43-1.08.46-1.26c.53-.52.63-.76.63-1.01l.65-1.3.55-1.01.53-1.48.22-1.26.42-1.16c.46-.7.54-.91.54-1.13.45-.69.66-.97.7-1.3l.29-1c-.03.58.14.35.2.08l.61-1.14.88-1 .75-1.11.67-1.21.56-1.04.71-1.23.38-1.14c.46-.8.52-.98.5-1.16-.01-.68-.39-1.03-.84-1.02-.78.95-.76 1.05-.71 1.15 1.14.88 1.44.57 1.45.19Zm0 0"/><path style="stroke:none;fill-rule:nonzero;fill:#004f8b;fill-opacity:1" d="m302.49 300.63-.3.02c-.19.01-.37.1-.51.25l-.14.15a.8.8 0 0 0-.2.4l-.04.28-.01.12v.99l-.02.64-.02.66.02.18.14.66.03.09.17.48.1.2.34.48-.1-.21.16.51.18.3.39.41.02.03.33.32-.1-.13.28.43.1.11.34.34-.08-.08.31.42.08.09.48.48a.76.76 0 0 0 1.07-1.07l-.48-.48.08.09-.32-.43-.07-.09-.35-.34.1.12-.28-.43-.05-.05-.29-.36-.34-.43.13.24-.17-.5-.1-.22-.35-.48.1.2-.17-.48.03.1-.14-.66.02.16-.02-.66-.01-.65v.01-.5l-.01-.49-.02.18.07-.28-.23.4.15-.14-.29.16.28-.09a.74.74 0 0 0-.3-1.45Zm0 0"/></svg>