<?xml version="1.0" encoding="UTF-8" standalone="no"?>
<svg
   xmlns:dc="http://purl.org/dc/elements/1.1/"
   xmlns:cc="http://creativecommons.org/ns#"
   xmlns:rdf="http://www.w3.org/1999/02/22-rdf-syntax-ns#"
   xmlns:svg="http://www.w3.org/2000/svg"
   xmlns="http://www.w3.org/2000/svg"
   xmlns:sodipodi="http://sodipodi.sourceforge.net/DTD/sodipodi-0.dtd"
   xmlns:inkscape="http://www.inkscape.org/namespaces/inkscape"
   viewBox="0 0 960 540"
   version="1.1"
   id="svg103"
   sodipodi:docname="divergence-model-font.svg"
   inkscape:version="1.0 (4035a4f, 2020-05-01)">
  <metadata
     id="metadata107">
    <rdf:RDF>
      <cc:Work
         rdf:about="">
        <dc:format>image/svg+xml</dc:format>
        <dc:type
           rdf:resource="http://purl.org/dc/dcmitype/StillImage" />
      </cc:Work>
    </rdf:RDF>
  </metadata>
  <sodipodi:namedview
     inkscape:document-rotation="0"
     pagecolor="#ffffff"
     bordercolor="#666666"
     borderopacity="1"
     objecttolerance="10"
     gridtolerance="10"
     guidetolerance="10"
     inkscape:pageopacity="0"
     inkscape:pageshadow="2"
     inkscape:window-width="1079"
     inkscape:window-height="968"
     id="namedview105"
     showgrid="false"
     inkscape:zoom="0.29404851"
     inkscape:cx="480"
     inkscape:cy="270"
     inkscape:window-x="0"
     inkscape:window-y="23"
     inkscape:window-maximized="0"
     inkscape:current-layer="svg103" />
  <defs
     id="defs79">
    <clipPath
       id="a">
      <path
         d="M0 0h959.76v540H0Zm0 0"
         id="path76" />
    </clipPath>
  </defs>
  <g
     clip-path="url(#a)"
     id="g83">
    <path
       style="stroke:none;fill-rule:nonzero;fill:#fff;fill-opacity:1"
       d="M0 0h959.76v540H0Zm0 0"
       id="path81" />
  </g>
  <path
     style="fill:#fff;fill-opacity:1;stroke:none"
     d="M0 0h960v540H0z"
     id="path85" />
  <path
     style="stroke:none;fill-rule:nonzero;fill:#000;fill-opacity:1"
     d="m149.84 74.15-.26-.08-.2-.04-.42-.03.3.07-.05-.02a.88.88 0 0 0-.9.11l-.26.2a.94.94 0 0 0-.34.52l-.01.05-.02.16-.02.23.27-.61-.1.1.16-.13-.2.13-.22.2-.1.14a1.12 1.12 0 1 0 1.64-.1l-.1-.1a1.25 1.25 0 1 0-.94 2.16h.2-.07.06c.24.03.47-.01.69-.11l.45-.23.24-.14.25-.2-.08.05.51-.34c.11-.08.22-.18.3-.29l.32-.42-.13.15.35-.33.13-.16.32-.42-.13.15.48-.48.57-.55.67-.65.05-.05.54-.59.06-.06.66-.82-.15.15.71-.64.15-.15.66-.82-.04.06.71-.79.13-.16.66-.98.06-.11.54-1-.07.12.65-.96-.1.12.71-.82.04-.04.65-.83-.02.03.5-.6.2-.3.3-.66-.08.13.33-.54-.09.13.41-.52.06-.09.33-.5-.04.07.36-.49.19-.36.16-.49-.13.28.21-.34.1-.2.13-.31.06-.17.04-.17-.09.24.17-.35.03-.06.05-.12-.33.46.23-.2-.87.3h.03l.22.02-1.2-1.24v.2-.06.28l-.01.29-.01.25.01-.13-.02.16.03-.17-.01.05c-.13.45 0 .95.33 1.28l.22.23c.24.24.56.38.9.4h.05l-.6-.18.25.15-.3-.23.17.17-.14-.17.12.17c.24.36.65.57 1.09.57h.43-.14l.45.04-.46-.14.31.17.23.09.29.08-.59-.36.32.34c.15.16.34.28.55.35l.34.1-.64-.45.31.42.13.15.35.34.25.19.34.2-.23-.18.48.46-.03-.03.26.25-.05-.05.46.51-.13-.16.32.49v-.01l.45.7.07.11.43.53-.1-.15.37.64.44.76-.01-.03.3.53-.08-.15.27.7c.06.16.15.3.27.42l.48.48-.14-.16.33.47-.14-.27.24.7c.1.27.28.49.52.62l.46.25-.44-.47.3.65.22.29.27.26.01.01.48.45-.1-.11.35.47.32.26.46.24-.35-.32.28.44c.1.16.25.28.42.35l.47.17-.29-.18.34.32.12.1.32.2.04.02.31.17.03.02.1.05-.18-.14.7.71a.73.73 0 0 0 1.04-1.03l-.29-.28-.42-.43-.19-.13-.11-.06.02.01-.31-.17.23.2-.24-.3v-.01l-.3-.36-.26-.22-.44-.22.37.37-.23-.46a.9.9 0 0 0-.32-.35l-.44-.27.33.37-.26-.54-.12-.2-.43-.5.02.02-.23-.3.15.26-.26-.66a1.05 1.05 0 0 0-.25-.38l-.38-.36.3.49-.22-.71-.11-.27-.3-.49-.08-.11-.43-.54.2.36-.24-.72-.06-.15-.27-.54-.02-.03-.4-.77.02.05-.31-.66-.15-.25-.43-.54.07.1-.44-.7v-.01l-.32-.49-.11-.15-.45-.51-.06-.06-.25-.26-.03-.02-.48-.46-.23-.17-.34-.2.26.2-.33-.33.12.14-.3-.43a1.3 1.3 0 0 0-.63-.46l-.34-.11.54.36-.3-.35c-.16-.18-.37-.3-.6-.38l-.28-.08.27.11-.3-.17c-.15-.09-.3-.14-.47-.17l-.46-.06-.18-.02h-.43l1.11.6-.11-.16-.19-.23-.17-.17-.3-.22-.25-.14c-.21-.1-.45-.16-.68-.15h-.06l.98.38-.23-.23.34.58-.01-.05.03.17-.02-.16.01.13v-.25l-.01-.29-.01-.28v.05-.2c.01-.69-.54-1.26-1.24-1.26H162.03c-.28.02-.55.13-.77.32l-.22.2-.26.3-.07.11-.03.07-.17.33-.05.1-.06.16.03-.08-.15.31.1-.17-.23.33-.15.3-.18.47.2-.35-.38.47-.02.03-.36.47.07-.08-.44.5-.12.15-.35.54-.08.14-.32.64.2-.3-.52.6-.04.05-.66.82.04-.05-.71.83-.1.13-.66.96-.06.12-.54.99.05-.1-.64 1 .12-.16-.7.8-.05.07-.65.83.15-.16-.7.66-.14.15-.65.83.05-.07-.53.6.04-.04-.64.66-.56.58-.47.48-.13.15-.3.43.12-.14-.34.34-.12.15-.3.43.33-.33-.51.34-.07.05-.26.2.19-.12-.45.23.45-.13h-.06.07-.2a1.26 1.26 0 1 0 .93 2.17l.1-.1c.24-.22.36-.53.35-.85v-.17l-.18.63.12-.2c.12-.16.18-.36.18-.57V75.32l-.02-.23-.02-.16-.01-.05-.17.78.2-.26-.34.26.05-.02-.3.08.42-.03.2-.04.26-.08a.75.75 0 0 0 0-1.42Zm0 0"
     id="path87" />
  <path
     style="stroke:none;fill-rule:nonzero;fill:#000;fill-opacity:1"
     d="M161.98 64.83c-.2-.27-.8-.33-1.2 0-.38 1.25-.22 1.57.06 1.76l.37 1.16.14 1.23-.03 1.47.2 1.33.28 1.17-.04 1.1v1.31l-.01 1.13-.01 1.31v1.04l.05 1.32.22 1.18.22 1-.02 1.55v10.09l-.01 1.53-.01 1.2v1.25l-.01 1.18v1.22l-.02 1.48-.01 1.3v1.14l-.03 1.47-.01 1.48v1.5l.07 1.08.21 1 .25 1.33v3.91l-.01 1.46v2.96l-.01 1.47-.28 1.29-.22 1.32-.03 1.29v1.14l-.01 1.31-.01 1.47-.01 1v1.46l-.02 1.47c-.01 1.12.01 1.27.07 1.41l.47 1.47-.07 1.25.01 1.28v1.28l-.01 1.15v6.85l-.27 1.1-.23 1.6-.01 1.18v1.03l-.02 1.48v1.47l-.02 1.47-.03 1.46-.02 1.48-.28 1.32-.24 1.13V175.86l-.2 1.3-.28 1.52v4.04l-.01 1.47-.45 1.34-.05 1.6v1.02l-.01 1.25v8.94l.01 1.37v2.45l.01 1.14v2.4l-.01 1.36v2.96l.01 1.45v1.46l.02 1.5v1.35l.01 1.41v1.24l-.01 1.35v1.18l-.02 1.29v4.26l-.01 1.47.01 1.27.01 1.36.01 1.47v3.25l-.2 1.3-.08 1.1-.2 1.57v1.58l-.01 1.48v7.57l.01 1.36V254.72l.01 1.7v14.37l.06 1.6.2 1.47.23 1.54v6.02l.05 1.54.2 1.43.23 1.52v1.27l.01 1.19v10.68l-.01 1.35-.01 1.2v1.37l.01 1.47v16.67l.06 1.57.23 1.47.2 1.33.01 1.19V338.28l-.01 1.56.06 1.02.2 1.02.24 1.43.02 1.02V346.77l.01 1.16v6.57l.23 1.95.23 2 .05 1.38v2.73l.01 1.05.01 1.3v13.94l.2 1.05.3 1.54-.02 1.32.06 1.03.33 1.17.14 1.17v1.48l.01 1.53v5.56l-.14 1.29-.35 1.6-.03 1.07v4.11l.02 1.05.01 1.47.02 1.46.3 1.37.2 1.13-.01 1.4.05 1.12.25 1.23.15 1.1.24 1.38.5 1.06-.1 1.04.22 1.1c.33.68.88.87 1.34.65l.51-1.28c0-1.05-.4-1.46-.91-1.46l-.92 1.46c0 .96.4 1.37.92 1.37l1.03-1.1.18-1.07.06-1.38-.32-1.11-.12-1.15-.31-1.43-.21-1.2-.01-1.53-.27-1.5-.26-1.15.02-1.04.02-1.48.03-1.49v-4.13l.13-1.27.33-1.6.04-1.1v-8.05l.01-1.45-.37-1.55-.13-1.64-.02-1.04-.31-1.62-.15-1.31v-14.91l.02-1.21v-2.87l-.06-1.06-.21-1.8-.15-1.1-.04-1.23v-6.44l.01-1.3v-1.14l.01-1.3-.1-1.06-.18-1.12-.23-1.73v-5.84l-.01-1.54v-5.72l.01-1.23-.07-1.07-.18-1.22-.23-1.48v-15.21l.01-1.35v-1.48l.01-1.35v-1.2l-.01-1.38v-3.08l-.01-1.6v-7.18l.01-1.35-.06-1.59-.19-1.42-.23-1.5v-5.85l-.06-1.69-.22-1.47-.2-1.47V253.84l.01-1.73v-6.01l.01-1.44v-4.43l.05-1.48.2-1.75.22-1.57v-3.36l.02-1.46v-1.37l.02-1.24v-4.27l-.01-1.47-.01-1.32v-1.15l-.02-1.37V215.78l.01-1.36.02-1.47V199.7l.02-1.35v-10.2l-.01-1.01-.02-1.31.4-1.17.08-1.46v-3.72l.05-1.04.33-1.1.1-1.48V168.48l-.01-1.46.01-1.42v-2.5l.27-1.33.23-1.12-.01-1-.03-1.49-.02-1.45-.02-1.46v-1.45l-.01-1.53-.01-1.2.25-1.33.22-1.36-.01-1.47V140.71l-.01-1.14v-1.46l.01-1.49-.25-1.4-.24-1.04v-1l-.03-1.47v-1.45l-.01-1.48v-1.14l-.01-1.31-.02-1.49.14-1.15.25-1.13.06-1.13v-2.95l-.01-1.45-.02-1v-2.41l.01-1.48-.04-1.1-.21-1-.18-1.32v-2.49l-.02-1.49-.02-1.29-.01-1.13-.01-1.48-.01-1.04v-2.44l-.01-1.19-.02-1.23V83.9l-.01-1.19-.08-1.1-.23-1.03-.23-1.18V77.16l-.02-1.32v-2.49l-.2-1.47-.38-1.25.04-1.18-.03-1.07-.34-1.1-.27-1.23c-.42-.8-.56-.93-.73-1.03l.14 1.14c.42-1.03.18-1.27-.13-1.33Zm0 0"
     id="path89" />
  <path
     style="stroke:none;fill-rule:nonzero;fill:#000;fill-opacity:1"
     d="M164.19 415.79c-.55-.13-1 .12-1.11.54.8 1.06 1.1.99 1.3.8l1.38-.22 1 .03 1.49.02 1.02.02h1.42l1.96.02h1.05l1.02-.05 1.23-.15 1-.05 1.38-.17 1.14-.12 1.33-.17 1.07-.06 1.16-.14 1.9-.04 1.13-.18 2.15-.33 1.16.01h1.42l1.48.01h8.5l1.17-.03 1.4-.18 1.04-.06 1.23-.2 1.14-.05h45.87l1.4.32 1.01.16h4.88l1.45.32 1.66.2h6.86l1.48-.01H285.73l1.59-.01 1.64.05 1.5.2 1.76.23h5.98l1.48-.18 1.29-.14 1.42-.18 1.2.01h10.46l1.81-.01H317l1.1-.01h2.44l1.3-.01h6.79l1.73-.23 1.78-.22 1.8-.02h11.12l1.2-.02h1.13l2.06-.01h9.49l1.48.01h1.44l1.53.01h5.85l1.47.01h1.25l1.14-.01h10.2l1.78-.01h22.54l1.5-.15 1.5-.18 1.31-.17h3.71l1.32-.17 1.15-.14 1.25-.18 1.35.02h9.64l1.3-.01H439.35l1.27-.19 1.13-.17 1.18-.13 1.03.02h2.19l1.19.01h1.16l1.28-.18 1.97-.33 1.63.01h1.47l1.04-.02 1.46-.32 1.27-.15h1.48l1-.2 1.9-.3 1.83.01h5.84l1.23-.05 1.23-.18 1.2-.04 1.27-.18 1.04-.04h6.54l1.33-.01 1.3-.01h1.48l1.36-.01h5.43l1.3-.01H505.5l1.48.01h2.95l1.44.06 1.4.16 1.38.06 1.22.16 1.15.06h2.23l2.01-.01H534.69l1.25.01h1.16l1.02-.05 1.1-.18 1.81-.23 1.4-.04h1.79l1.12-.14 1.02-.18 1.8-.16H550.34l1.03-.01H553.55l1.96-.02H559.1l1.29.14 1.57.32 1.69.01 1.59.06 1 .18 1.02.05 1.05.17 1.14.07H584.93l1.9.05 2.13.2 1.05.16 1.45.07H598l1.35-.06 1.22-.18 1.08-.05 1.05-.15 1.82-.04h17.61l1.24-.18 1.13-.17 1.03-.18 1.02.01H633.99l1.5-.15 1.5-.17 1.42-.16h18.88l1.42-.17 1.16-.14 1.16-.18 1.81.02h1.05l1.07-.07 1.6-.21 1.73-.2h33.96l1.71-.17 1.8-.17 1.44-.17 1.34.01 1.4-.05 1.52-.15 1.65-.04 1.84-.17 1.76-.05H727.5l1.3-.01 1.42-.01h4.42l1.54-.02h1.61l1.59-.01h1.64l1.45-.06 1.67-.17 1.2-.05 1.52-.14 1.11-.04h1.09l1.2.01h2.46l1.14.01H767.1l1.3-.01h2.25l1.67-.02h11.76l1.33.01h2.45c.87.39 1.1.47 1.33.46l1.06.68c.44.41.8.65 1.16.57.46-1.15.13-1.38-.23-1.33l-1.38.02c-.64 1-.35 1.3 0 1.3h1.25c1-1.06.83-1.4.53-1.53l-1.07-1.05-1.32-.43-1.33-.5-1.01-.01h-2.77l-1.45.01H769.52l-1.1-.01-1.3-.01h-5.74l-1.61-.01h-7.04l-1.3.01h-2.36l-1.13.02-1.21.07-1.5.15-1.21.05-1.67.18-1.36.06-1.6-.01h-1.59l-1.61-.01-1.53-.01h-4.43l-1.41-.02h-2.95l-1.8-.01h-7.39l-1.84.06-1.85.18-1.65.06-1.52.15-1.32.05h-1.4l-1.53.19-1.79.16-1.62.18h-32.93l-1.93.02-1.78.23-1.73.23h-1.91l-1.12.02-1.13.17-1.14.13-1.31.18-1.02-.01H638.3l-1.52.19-1.47.16-1.4.14h-8.53l-1.17.17-1.12.17-1.11.17-2.1-.02h-12.07l-1.12.01H603.5l-1.07.07-2.04.19-1.23.18-1.2.04h-6.46l-1.32-.05-1.04-.16-1.22-.07-1.98-.2H569.5l-1-.05-1.05-.16-1.1-.07-1.8-.22h-1.66l-1.52-.13-1.44-.33-1.7-.02h-1.73l-1.96-.02h-3.17l-1.03-.01h-1.16l-1.02-.01-1.15.01-1.96.34-1.8.13h-1.64l-1.77.25-1.93.23-1.97.05H528.06l-1.3.01h-9.05l-1.15-.01-1.03-.06-1.24-.17-1.38-.06-1.41-.17-1.54-.06h-22.69l-1.47-.01-1.3-.01h-1.33l-1.37-.02h-5.26l-1.14.07-1.25.18-1.2.05-1.24.18-1.1.05H463.83l-1.1.02-1.02.14-1.8.34-1.3-.02-1.06.03-1.42.32-1.29.12h-3.26l-1.15.19-2.08.34H443.95l-1.13.01-1.32.16-1.16.18-1.14.17-1.79-.01h-4.68l-1.07-.01H419.24l-1.37.17-1.15.14-1.2.18-1.01-.02h-2.7l-1.42.18-1.46.17-1.4.13H378.54l-1.45-.01h-5.13l-1.25-.02H366.4l-1.36.01H361.86l-1.44.01h-1.47l-1.48.01h-1.42l-1.3.01h-6.43l-2.07-.02h-3.66l-1.13-.01H339l-1.13-.01h-3.91l-1.06.02-1.06.08-1.72.21-1.62.24H317l-1.14-.01h-1.8l-1.74-.02h-10.04l-1.53.18-1.29.14-1.37.17h-1.2l-1.35-.01h-2.3l-1.84-.06-1.67-.22-1.53-.2h-3.29l-2.02-.01h-19.87l-1.23-.14-1.7-.36-1.15-.02H255.17l-1.59-.3-1.78-.18H206.7l-1.29.05-1.23.17-1 .04-1.4.16-1.03.02h-9.96l-1.41.01h-1.31l-1.33.19-1.02.17-1.79.17-1.07.06-1.23.15-1 .05-1.38.18-1.13.1-1.34.18-1 .05-1.23.15-1.9.05-1.96.01-1.42.01-1.02.02-1.48.03-1 .02-1.14.04-1.15.57c-.52.55-.5 1.05-.18 1.36 1.3.25 1.7-.03 1.78-.45Zm0 0"
     id="path91" />
  <path
     style="stroke:none;fill-rule:nonzero;fill:#000;fill-opacity:1"
     d="m789.23 410.4-.28.03a.78.78 0 0 0-.48.25l-.14.17.44-.25-.28.05a.77.77 0 0 0-.46.26l-.24.28.3-.22-.32.14.03-.02-.28.1a.8.8 0 0 0-.43.4l-.18.33-.03.07-.1.25.2-.3-.35.33-.08.08-.34.42.17-.16-.49.33.1-.06-.49.25-.1.06-.48.33.08-.05-.57.3-.12.08-.66.5v.01l-.61.48.11-.07-.83.47-.04.03-.86.56.06-.04-1.16.65.02-.01-1.03.53-.02.02-1.16.64h.02l-1.02.52h.03l-1 .47-.12.07-.96.65-1 .69-.02.02-.9.65.07-.05-.82.49-.16.12-.7.65-.1.12-.51.65-.06.08-.4.67-.01.01-.3.5.15-.19-.37.37-.18.24-.15.33-.03.07-.12.35-.04.33.04.48v.03l.07.5.03.26.06.19.2.42c.08.2.26.33.47.37l.28.06-.32-.17.48.45.14.1.48.26a.66.66 0 0 0 .62-1.16l-.48-.26.14.1-.48-.45-.32-.16-.29-.06.47.37-.2-.43.06.37.03-.25.07-.51v-.03l.04-.48-.07.28.16-.33-.05.08.2-.3-.22.23.42-.31.2-.2.32-.47.45-.64-.03.04.51-.65-.1.11.71-.65-.16.12.82-.47.08-.05.9-.65v.01l.99-.68.96-.64-.11.06.98-.49.03-.01 1.02-.55h.02l1.16-.66-.02.01 1.02-.54.02-.01 1.16-.66.06-.04.85-.57-.05.03.82-.49.12-.08.59-.49h-.01l.64-.5-.11.07.56-.32.08-.06.48-.34-.1.06.48-.27.1-.05.47-.35.17-.17.34-.43-.06.06.33-.35.2-.36.06-.26-.05.14.17-.34-.41.4.28-.13.03-.01.31-.15.28-.23.22-.3-.45.3.28-.07a.77.77 0 0 0 .45-.27l.13-.18-.4.27.28-.08c.4-.1.63-.51.52-.91a.74.74 0 0 0-.82-.55Zm0 0"
     id="path93" />
  <path
     style="fill:#000000;fill-opacity:1;fill-rule:nonzero;stroke:none"
     d="m 771.95,395.43 v -0.28 l -0.02,0.2 0.04,-0.2 c 0.22153,-1.09748 -1.46565,-1.35376 -1.58,-0.24 l -0.01,0.2 v 0.03 l -0.02,0.34 c 0,0.14 0.02,0.28 0.09,0.4 l 0.21,0.43 0.02,0.05 0.3,0.52 0.02,0.03 0.45,0.7 h -0.02 l 0.48,0.79 0.05,0.07 0.7,0.95 0.02,0.03 0.8,1 0.07,0.07 0.97,0.96 0.05,0.05 1.16,1 0.1,0.06 1.24,0.82 0.07,0.04 1.48,0.8 1.25,0.66 -0.08,-0.05 1.13,0.79 0.1,0.05 1.21,0.65 -0.1,-0.06 1.14,0.81 0.1,0.06 1.09,0.58 -0.12,-0.08 0.84,0.64 0.03,0.03 0.72,0.49 0.04,0.03 0.5,0.3 -0.1,-0.08 0.49,0.4 -0.05,-0.04 0.3,0.32 -0.13,-0.2 0.23,0.46 V 410 l 0.22,0.48 0.02,0.03 0.25,0.48 c 0.19,0.35 0.62,0.49 0.98,0.3 0.35566,-0.18596 0.49061,-0.62681 0.3,-0.98 l -0.26,-0.48 0.02,0.03 -0.23,-0.48 -0.23,-0.47 -0.14,-0.19 -0.3,-0.31 0.03,0.05 -0.4,-0.5 -0.16,-0.13 -0.47,-0.33 0.03,0.02 -0.7,-0.53 0.03,0.02 -0.8,-0.67 -0.13,-0.08 -1.06,-0.61 0.08,0.05 -1.13,-0.82 -0.1,-0.07 -1.22,-0.66 0.09,0.06 -1.13,-0.8 -0.08,-0.05 -1.24,-0.7 h -0.01 l -1.47,-0.8 0.07,0.05 -1.25,-0.83 0.09,0.07 -1.16,-1 0.05,0.05 -0.96,-0.96 0.05,0.05 -0.84,-0.98 0.03,0.03 -0.72,-0.93 0.05,0.08 -0.49,-0.8 -0.01,-0.01 -0.46,-0.7 -0.33,-0.5 0.03,0.04 -0.24,-0.42 0.11,0.38 -0.02,-0.34 v -0.03 l -0.01,-0.2 c -0.0867,-1.06667 -1.68667,-0.93667 -1.6,0.13 l 0.02,0.12 0.04,0.18 -0.02,-0.19 v 0.28 c -0.02,0.43 0.32,0.78 0.74,0.8 0.42,0 0.77,-0.33 0.78,-0.75 z"
     id="path95"
     sodipodi:nodetypes="cccccccccccccccccccccccccccccccccccccccccccccccccccccccccccccccccccccccccccccccccccccccccccccccccccccccccccccc" />
  <g
     style="font-size:42.6667px;line-height:1.25;font-family:serif;-inkscape-font-specification:'serif, Normal';letter-spacing:0px;word-spacing:0px"
     id="text169"
     transform="rotate(-90,27.976004,8.861406)"
     aria-label="Growth">
    <path
       id="path63"
       style="font-style:normal;font-variant:normal;font-weight:normal;font-stretch:normal;font-size:42.6667px;font-family:Montserrat;-inkscape-font-specification:Montserrat"
       d="m -266.69284,104.0502 h 3.02934 v 11.39201 q -2.09067,1.83467 -4.94934,2.816 -2.85867,0.98133 -6.016,0.98133 -4.48001,0 -8.06401,-1.96266 -3.584,-1.96267 -5.632,-5.41868 -2.048,-3.49866 -2.048,-7.808 0,-4.309338 2.048,-7.76534 2.048,-3.498669 5.632,-5.461338 3.584,-1.962668 8.10667,-1.962668 3.41334,0 6.27201,1.109334 2.85867,1.066668 4.82134,3.200003 l -1.96267,2.005335 q -3.54134,-3.49867 -9.00268,-3.49867 -3.62666,0 -6.57067,1.621335 -2.90133,1.578668 -4.56533,4.437337 -1.664,2.816002 -1.664,6.314672 0,3.49867 1.664,6.31467 1.664,2.816 4.56533,4.43734 2.90134,1.62133 6.52801,1.62133 4.608,0 7.808,-2.304 z" />
    <path
       id="path65"
       style="font-style:normal;font-variant:normal;font-weight:normal;font-stretch:normal;font-size:42.6667px;font-family:Montserrat;-inkscape-font-specification:Montserrat"
       d="m -252.46616,100.93553 q 1.06667,-2.261335 3.15733,-3.413336 2.13334,-1.152001 5.24801,-1.152001 v 2.944002 l -0.72533,-0.04267 q -3.54134,0 -5.54668,2.176005 -2.00533,2.176 -2.00533,6.10134 v 11.43467 h -3.02934 V 96.54086 h 2.90134 z" />
    <path
       id="path67"
       style="font-style:normal;font-variant:normal;font-weight:normal;font-stretch:normal;font-size:42.6667px;font-family:Montserrat;-inkscape-font-specification:Montserrat"
       d="m -229.69414,119.19688 q -3.24267,0 -5.84534,-1.45067 -2.60267,-1.49334 -4.09601,-4.096 -1.49333,-2.60267 -1.49333,-5.88801 0,-3.28533 1.49333,-5.888 1.49334,-2.602671 4.09601,-4.053339 2.60267,-1.450668 5.84534,-1.450668 3.24266,0 5.84533,1.450668 2.60267,1.450668 4.05334,4.053339 1.49333,2.60267 1.49333,5.888 0,3.28534 -1.49333,5.88801 -1.45067,2.60266 -4.05334,4.096 -2.60267,1.45067 -5.84533,1.45067 z m 0,-2.68801 q 2.38933,0 4.26667,-1.06666 1.92,-1.10934 2.98666,-3.11467 1.06667,-2.00534 1.06667,-4.56534 0,-2.56 -1.06667,-4.56534 -1.06666,-2.00533 -2.98666,-3.072 -1.87734,-1.109331 -4.26667,-1.109331 -2.38934,0 -4.30934,1.109331 -1.87734,1.06667 -2.98667,3.072 -1.06667,2.00534 -1.06667,4.56534 0,2.56 1.06667,4.56534 1.10933,2.00533 2.98667,3.11467 1.92,1.06666 4.30934,1.06666 z" />
    <path
       id="path69"
       style="font-style:normal;font-variant:normal;font-weight:normal;font-stretch:normal;font-size:42.6667px;font-family:Montserrat;-inkscape-font-specification:Montserrat"
       d="m -179.84544,96.54086 -8.49067,22.44268 h -2.85867 l -7.08267,-18.38934 -7.08267,18.38934 h -2.85867 l -8.44801,-22.44268 h 2.90134 l 7.04,19.07201 7.21067,-19.07201 h 2.60267 l 7.16801,19.07201 7.12534,-19.07201 z" />
    <path
       id="path71"
       style="font-style:normal;font-variant:normal;font-weight:normal;font-stretch:normal;font-size:42.6667px;font-family:Montserrat;-inkscape-font-specification:Montserrat"
       d="m -162.79876,117.61821 q -0.85333,0.768 -2.13333,1.19467 -1.23734,0.384 -2.60267,0.384 -3.15734,0 -4.86401,-1.70667 -1.70666,-1.70667 -1.70666,-4.82134 V 99.100862 h -4.01067 V 96.54086 h 4.01067 v -4.90667 h 3.02933 v 4.90667 h 6.82667 v 2.560002 h -6.82667 v 13.397348 q 0,2.00533 0.98133,3.072 1.02401,1.024 2.90134,1.024 0.93867,0 1.792,-0.29867 0.896,-0.29867 1.536,-0.85333 z" />
    <path
       id="path73"
       style="font-style:normal;font-variant:normal;font-weight:normal;font-stretch:normal;font-size:42.6667px;font-family:Montserrat;-inkscape-font-specification:Montserrat"
       d="m -145.84941,96.370193 q 4.224,0 6.69867,2.474669 2.51734,2.431998 2.51734,7.125338 v 13.01334 h -3.02934 v -12.71467 q 0,-3.49867 -1.74933,-5.33334 -1.74934,-1.834668 -4.99201,-1.834668 -3.62667,0 -5.76,2.175998 -2.09067,2.13334 -2.09067,5.93067 v 11.77601 h -3.02933 V 87.324853 h 3.02933 V 100.4662 q 1.23734,-1.962672 3.41334,-3.029339 2.176,-1.066668 4.992,-1.066668 z" />
  </g>
  <g
     style="font-size:42.6667px;line-height:1.25;font-family:serif;-inkscape-font-specification:'serif, Normal';letter-spacing:0px;word-spacing:0px"
     id="text169-5"
     aria-label="Poor"
     transform="translate(13.114596,4.83741)">
    <path
       id="path45"
       style="font-style:normal;font-variant:normal;font-weight:normal;font-stretch:normal;font-size:42.6667px;font-family:Montserrat;-inkscape-font-specification:Montserrat"
       d="m 207.2771,433.26216 q 5.71734,0 8.96001,2.73066 3.24267,2.73067 3.24267,7.50934 0,4.77867 -3.24267,7.50934 -3.24267,2.688 -8.96001,2.688 h -8.02134 v 9.42935 h -3.15734 v -29.86669 z m -0.0853,17.66401 q 4.43733,0 6.784,-1.92 2.34667,-1.96267 2.34667,-5.50401 0,-3.62667 -2.34667,-5.54667 -2.34667,-1.96267 -6.784,-1.96267 h -7.93601 v 14.93335 z" />
    <path
       id="path47"
       style="font-style:normal;font-variant:normal;font-weight:normal;font-stretch:normal;font-size:42.6667px;font-family:Montserrat;-inkscape-font-specification:Montserrat"
       d="m 234.71512,463.34218 q -3.24267,0 -5.84534,-1.45067 -2.60267,-1.49333 -4.096,-4.096 -1.49334,-2.60267 -1.49334,-5.88801 0,-3.28533 1.49334,-5.888 1.49333,-2.60267 4.096,-4.05334 2.60267,-1.45066 5.84534,-1.45066 3.24267,0 5.84534,1.45066 2.60267,1.45067 4.05333,4.05334 1.49334,2.60267 1.49334,5.888 0,3.28534 -1.49334,5.88801 -1.45066,2.60267 -4.05333,4.096 -2.60267,1.45067 -5.84534,1.45067 z m 0,-2.688 q 2.38933,0 4.26667,-1.06667 1.92,-1.10933 2.98667,-3.11467 1.06667,-2.00533 1.06667,-4.56534 0,-2.56 -1.06667,-4.56533 -1.06667,-2.00534 -2.98667,-3.07201 -1.87734,-1.10933 -4.26667,-1.10933 -2.38934,0 -4.30934,1.10933 -1.87733,1.06667 -2.98667,3.07201 -1.06666,2.00533 -1.06666,4.56533 0,2.56001 1.06666,4.56534 1.10934,2.00534 2.98667,3.11467 1.92,1.06667 4.30934,1.06667 z" />
    <path
       id="path49"
       style="font-style:normal;font-variant:normal;font-weight:normal;font-stretch:normal;font-size:42.6667px;font-family:Montserrat;-inkscape-font-specification:Montserrat"
       d="m 261.46514,463.34218 q -3.24267,0 -5.84534,-1.45067 -2.60267,-1.49333 -4.096,-4.096 -1.49334,-2.60267 -1.49334,-5.88801 0,-3.28533 1.49334,-5.888 1.49333,-2.60267 4.096,-4.05334 2.60267,-1.45066 5.84534,-1.45066 3.24267,0 5.84534,1.45066 2.60266,1.45067 4.05333,4.05334 1.49334,2.60267 1.49334,5.888 0,3.28534 -1.49334,5.88801 -1.45067,2.60267 -4.05333,4.096 -2.60267,1.45067 -5.84534,1.45067 z m 0,-2.688 q 2.38933,0 4.26667,-1.06667 1.92,-1.10933 2.98667,-3.11467 1.06666,-2.00533 1.06666,-4.56534 0,-2.56 -1.06666,-4.56533 -1.06667,-2.00534 -2.98667,-3.07201 -1.87734,-1.10933 -4.26667,-1.10933 -2.38934,0 -4.30934,1.10933 -1.87733,1.06667 -2.98667,3.07201 -1.06666,2.00533 -1.06666,4.56533 0,2.56001 1.06666,4.56534 1.10934,2.00534 2.98667,3.11467 1.92,1.06667 4.30934,1.06667 z" />
    <path
       id="path51"
       style="font-style:normal;font-variant:normal;font-weight:normal;font-stretch:normal;font-size:42.6667px;font-family:Montserrat;-inkscape-font-specification:Montserrat"
       d="m 281.94315,445.08083 q 1.06667,-2.26133 3.15733,-3.41333 2.13334,-1.152 5.24801,-1.152 v 2.944 l -0.72534,-0.0427 q -3.54133,0 -5.54667,2.176 -2.00533,2.176 -2.00533,6.10134 v 11.43468 h -3.02934 v -22.44269 h 2.90134 z" />
  </g>
  <g
     style="font-size:42.6667px;line-height:1.25;font-family:serif;-inkscape-font-specification:'serif, Normal';letter-spacing:0px;word-spacing:0px"
     id="text169-5-1"
     aria-label="Rich"
     transform="translate(13.114596,4.83741)">
    <path
       id="path54"
       style="font-style:normal;font-variant:normal;font-weight:normal;font-stretch:normal;font-size:42.6667px;font-family:Montserrat;-inkscape-font-specification:Montserrat"
       d="m 668.53524,465.48871 -6.82668,-9.60001 q -1.152,0.128 -2.38933,0.128 h -8.02134 v 9.47201 h -3.15734 v -29.86669 h 11.17868 q 5.71734,0 8.96001,2.73067 3.24266,2.73067 3.24266,7.50934 0,3.49867 -1.792,5.93067 -1.74933,2.38933 -5.03467,3.456 l 7.29601,10.24001 z M 659.2339,453.3287 q 4.43733,0 6.784,-1.96267 2.34667,-1.96267 2.34667,-5.504 0,-3.62667 -2.34667,-5.54667 -2.34667,-1.96267 -6.784,-1.96267 h -7.93601 v 14.97601 z" />
    <path
       id="path56"
       style="font-style:normal;font-variant:normal;font-weight:normal;font-stretch:normal;font-size:42.6667px;font-family:Montserrat;-inkscape-font-specification:Montserrat"
       d="m 678.33391,443.04603 h 3.02934 v 22.44268 h -3.02934 z m 1.536,-4.90668 q -0.93867,0 -1.57867,-0.64 -0.64,-0.64 -0.64,-1.536 0,-0.85333 0.64,-1.49333 0.64,-0.64 1.57867,-0.64 0.93867,0 1.57867,0.64 0.64,0.59733 0.64,1.45067 0,0.93866 -0.64,1.57866 -0.64,0.64 -1.57867,0.64 z" />
    <path
       id="path58"
       style="font-style:normal;font-variant:normal;font-weight:normal;font-stretch:normal;font-size:42.6667px;font-family:Montserrat;-inkscape-font-specification:Montserrat"
       d="m 699.13526,465.70204 q -3.328,0 -5.97334,-1.45067 -2.60267,-1.45066 -4.096,-4.05333 -1.49334,-2.64534 -1.49334,-5.93067 0,-3.28534 1.49334,-5.88801 1.49333,-2.60267 4.096,-4.05333 2.64534,-1.45067 5.97334,-1.45067 2.90134,0 5.16267,1.152 2.304,1.10933 3.62667,3.28533 l -2.26134,1.53601 q -1.10933,-1.66401 -2.816,-2.47467 -1.70667,-0.85334 -3.712,-0.85334 -2.432,0 -4.39467,1.10934 -1.92,1.06667 -3.02934,3.072 -1.06666,2.00533 -1.06666,4.56534 0,2.60267 1.06666,4.608 1.10934,1.96267 3.02934,3.072 1.96267,1.06667 4.39467,1.06667 2.00533,0 3.712,-0.81067 1.70667,-0.81066 2.816,-2.47467 l 2.26134,1.53601 q -1.32267,2.176 -3.62667,3.328 -2.304,1.10933 -5.16267,1.10933 z" />
    <path
       id="path60"
       style="font-style:normal;font-variant:normal;font-weight:normal;font-stretch:normal;font-size:42.6667px;font-family:Montserrat;-inkscape-font-specification:Montserrat"
       d="m 724.93528,442.87536 q 4.22401,0 6.69867,2.47467 2.51734,2.432 2.51734,7.12534 v 13.01334 h -3.02934 v -12.71468 q 0,-3.49867 -1.74933,-5.33333 -1.74934,-1.83467 -4.99201,-1.83467 -3.62666,0 -5.76,2.176 -2.09067,2.13333 -2.09067,5.93067 v 11.77601 h -3.02933 v -31.65869 h 3.02933 v 13.14134 q 1.23734,-1.96267 3.41334,-3.02933 2.176,-1.06667 4.992,-1.06667 z" />
  </g>
  <path
     sodipodi:nodetypes="cccccccccccccccccccccccccccccccccccccccccccccccccccccccccccccccccccccccccccccccccccccccccccccccccccccccccccccccccccccccccccccccccccccccccccccccccccccccccccccccccccccccccccccccccccccccccccccccccccccccccccccccccccccccccccccccccccccccccccccccccccccccccccccccccccccccccccccccccccccccccccccccccccccccccccccccccccccccccccccccccccccccccccccccccccccccccccccccccccccccccccccccccccccccccccccccccccccccccccccccccccccccccccccccccccccccccccccccccccccccccccccccccccccccccccccccccccccccccccccccccccccccccccccccccccccccccccccccccccccccccccccccccccccccccccccccccccccccccccccccccccccccccccccc"
     id="path858-3"
     d="m 235.242,348.79013 1.23,0.09 1.29,0.03 1.2,-0.33 1.15,-0.38 1.1,-0.22 1.1,-0.06 1.15,-0.25 1.22,-0.17 1.47,-0.2 1.2,-0.3 1.12,-0.14 1.44,-0.36 1.23,-0.2 1.31,-0.3 1.25,-0.17 1.65,-0.43 1.48,-0.37 1.18,-0.2 1.45,-0.43 1.44,-0.54 1.23,-0.32 1.27,-0.25 1.14,-0.34 2.12,-0.48 1.18,-0.27 1.33,-0.34 1.46,-0.46 1.17,-0.26 1.23,-0.25 1.52,-0.47 1.03,-0.19 1.14,-0.33 1.24,-0.44 1.1,-0.32 1.08,-0.23 1.08,-0.37 1,-0.25 1.14,-0.34 1.18,-0.45 1.2,-0.3 1.39,-0.24 1.64,-0.35 1.7,-0.34 1.73,-0.5 1.54,-0.42 1.73,-0.32 1.73,-0.64 1.57,-0.46 1.75,-0.6 1.6,-0.5 1.66,-0.47 1.66,-0.48 1.85,-0.67 2.07,-0.64 2.2,-0.7 2.24,-0.64 2.2,-0.56 2.19,-0.66 1.9,-0.73 1.94,-0.64 1.9,-0.72 1.9,-0.63 2.1,-0.52 2.34,-0.66 2.4,-0.72 2.43,-0.64 2.39,-0.66 2.23,-0.47 2.2,-0.52 1.98,-0.5 2.02,-0.54 2.16,-0.67 2.18,-0.53 2.47,-0.75 2.2,-0.56 2.55,-0.46 2.2,-0.5 2.3,-0.5 2.3,-0.68 2,-0.67 2.16,-0.7 2.4,-0.64 2.45,-0.53 2.66,-0.66 2.54,-0.78 2.62,-0.82 2.36,-0.77 2.3,-0.8 2.1,-0.63 2.32,-0.84 2.42,-0.76 2.61,-0.83 1.4,-0.46 1.4,-0.48 2.58,-0.79 2.55,-0.88 2.16,-0.83 2.27,-0.88 1.91,-0.64 2.32,-0.83 2.24,-0.63 2.58,-0.83 2.55,-0.64 2.43,-0.66 2.09,-0.47 2.09,-0.67 1.96,-0.66 2.13,-0.7 2.1,-0.65 2.3,-0.53 2.3,-0.66 2.42,-0.71 2.42,-0.65 2.31,-0.84 2.08,-0.64 2.09,-0.84 1.9,-0.63 2.1,-0.9 2.08,-0.81 2.36,-0.75 2.6,-0.8 1.35,-0.38 1.38,-0.43 2.53,-1.02 2.54,-0.96 2.33,-1 2.22,-1 2.28,-0.95 2.45,-1 2.59,-0.94 1.38,-0.52 1.38,-0.47 2.63,-1 2.55,-0.97 2.33,-1 2.3,-0.8 2.14,-0.8 2.56,-1 1.34,-0.58 1.3,-0.57 2.5,-0.98 2.54,-0.8 2.36,-0.83 2.5,-0.98 2.43,-1.15 2.18,-1.18 2.23,-1.19 2.27,-1.12 2.25,-1.04 1.28,-0.55 1.33,-0.56 1.32,-0.53 1.31,-0.5 2.6,-0.97 2.5,-1 2.29,-1 2.33,-0.95 2.59,-0.99 1.34,-0.47 1.36,-0.48 1.45,-0.48 1.49,-0.51 1.47,-0.55 1.44,-0.53 1.37,-0.48 1.42,-0.56 2.52,-1.34 2.2,-0.52 2.48,-1.4 2.33,-0.95 1.34,-0.65 1.3,-0.62 1.28,-0.55 1.3,-0.57 1.35,-0.6 1.32,-0.6 2.44,-1.12 2.4,-1.04 2.3,-1.16 2.22,-1 2.13,-1 2.08,-1 2.25,-0.94 2.3,-1 2.42,-1 2.43,-0.99 2.02,-0.74 2.16,-0.92 1.56,-0.79 1.96,-1.05 1.84,-1.16 1.76,-1.04 1.97,-1.12 1.89,-1.22 2.07,-1.13 2.2,-1.32 2.1,-1.1 2.12,-1.34 1.8,-1.18 1.71,-1.13 1.46,-1 1.69,-1.12 1.77,-1.12 1.91,-1.15 1.89,-0.92 1.97,-1 1.94,-0.95 2.07,-0.99 1.97,-1 1.95,-1.01 1.72,-1.2 1.59,-1.1 1.8,-1.31 1.8,-1.23 1.94,-1.3 2.16,-1.32 2.23,-1.1 2.34,-1.19 2.28,-1.13 2.18,-1.05 2.02,-1.17 1.97,-1.2 1.95,-1.16 1.9,-1.2 1.91,-1.12 1.96,-1.31 2.27,-1.43 2.11,-1.51 2.12,-1.47 1.8,-1.3 1.69,-1.33 1.57,-1.35 1.5,-1.48 1.3,-1.26 1.43,-1.4 1.06,-1 1.27,-1.1 1.34,-1.25 1.4,-1.06 1.6,-1.1 1.57,-0.95 1.7,-1.17 1.53,-1.2 1.59,-1.1 1.56,-0.96 1.57,-1.2 1.35,-1.17 1.24,-1.3 1.23,-1.06 1.14,-1.03 1.3,-1.16 1.12,-1.04 1.3,-0.9 1.14,-1.01 1.02,-0.7 1.13,-0.93 1.93,-1.46 1.71,-1.28 1.55,-1.14 1.74,-1.44 1.6,-1.3 1.28,-1.29 1.48,-1.48 0.8,-1 1.07,-1.56 1.14,-1.4 1.08,-1.04 1.05,-1.04 0.97,-1.06 c 0.82,-0.7 0.93,-0.79 1.02,-0.9 l 0.98,-1 1.17,-0.62 1.5,-0.8 1.3,-0.79 1.18,-0.68 1.05,-0.6 c 0.92,-0.03 1.44,-0.43 1.6,-1.02 -0.03,0.47 0.38,-0.12 0.31,-0.75 -0.1,-0.91 -0.72,-1.4 -1.4,-1.33 -0.7,0.08 -1.18,0.7 -1.1,1.38 0.6,1.22 1.3,1.38 1.83,1.05 1.23387,-0.77676 0.14216,-2.64415 -1.14,-1.95 l -1.1,0.9 -1.48,1.1 -2.05,1.13 -1.58,0.73 c -0.96629,0.54185 -0.29014,2.01135 0.75,1.63 l 1.53,-0.71 1.32,-0.52 1.05,-0.78 1.5,-1.02 c 1.15,-0.43 1.4,-0.62 1.56,-0.88 0.47,-0.75 0.29,-1.52 -0.3,-1.88 -0.58555,-0.36373 -1.35503,-0.18478 -1.72,0.4 l 1.05,-0.39 c -0.62,0 -1,0.2 -1.24,0.51 -0.62,-0.02 -0.85,0.07 -1.05,0.22 l -1.45,0.85 -1.21,0.7 -1.32,0.71 -1.04,0.44 -1.16,0.78 -1.3,1.23 -1.1,1.02 -0.96,1.1 -1.58,1.59 -1.37,1.61 -1.07,1.56 -1.08,1.37 -1.34,1.32 -1.2,1.26 -1.45,1.3 -1.58,1.39 -1.56,1.23 -1.71,1.38 -1.8,1.43 -1.14,0.96 -1.05,0.74 -1.13,1.03 -1.3,0.9 -1.22,1.11 -1.3,1.15 -1.13,1.02 -1.3,1.12 -1.23,1.29 -1.23,1.06 -1.43,1.1 -1.52,0.92 -1.7,1.16 -1.52,1.2 -1.59,1.1 -1.56,0.97 -1.7,1.16 -1.51,1.18 -1.38,1.29 -1.27,1.11 -1.11,1.06 -1.43,1.45 -1.26,1.3 -1.43,1.45 -1.47,1.29 -1.6,1.28 -1.75,1.29 -2.11,1.45 -2.08,1.48 -2.25,1.41 -1.92,1.3 -1.9,1.1 -1.91,1.2 -1.93,1.15 -1.97,1.2 -1.94,1.11 -2.11,1.01 -2.3,1.14 -2.35,1.2 -2.29,1.18 -2.24,1.43 -1.97,1.31 -1.83,1.26 -1.8,1.32 -1.58,1.1 -1.61,1.14 -1.83,0.97 -1.93,0.99 -2.05,0.98 -1.96,0.97 -1.97,1 -1.94,0.97 -2,1.2 -1.8,1.15 -1.72,1.14 -1.45,1 -1.69,1.13 -1.77,1.16 -2.06,1.3 -2.07,1.1 -2.22,1.33 -2.1,1.14 -1.9,1.23 -1.94,1.1 -1.8,1.06 -1.8,1.15 -1.88,1.03 -1.48,0.75 -2.07,0.9 -2,0.75 -2.45,1 -2.44,0.91 -2.34,1.01 -2.28,0.97 -2.11,1 -2.12,1 -2.23,1.01 -2.3,1.15 -2.36,1.03 -2.46,1.16 -1.3,0.65 -1.31,0.58 -1.3,0.56 -1.3,0.57 -1.33,0.64 -1.3,0.61 -2.4,0.97 -2.35,1.35 -2.18,0.5 -2.64,1.4 -1.27,0.4 -1.4,0.49 -1.46,0.55 -1.44,0.54 -1.46,0.5 -1.46,0.48 -1.38,0.48 -1.36,0.49 -2.63,1 -2.37,0.97 -2.29,1 -2.44,0.99 -2.58,0.95 -1.34,0.52 -1.35,0.55 -1.35,0.57 -1.31,0.57 -2.29,1.06 -2.31,1.14 -2.26,1.2 -2.14,1.18 -2.33,1.11 -2.4,0.94 -2.3,0.81 -2.58,0.81 -2.59,1.02 -1.33,0.58 -1.3,0.56 -2.52,0.98 -2.12,0.79 -2.33,0.82 -2.36,1.01 -2.5,0.95 -2.62,1 -1.37,0.47 -1.4,0.51 -2.6,0.96 -2.5,1 -2.3,0.97 -2.24,1 -2.28,1 -2.52,0.94 -2.48,1 -1.3,0.4 -1.34,0.4 -2.61,0.8 -2.42,0.76 -2.18,0.85 -2.05,0.89 -1.88,0.62 -2.06,0.85 -2.05,0.63 -2.29,0.83 -2.36,0.63 -2.43,0.72 -2.26,0.65 -2.3,0.52 -2.2,0.67 -2.14,0.72 -1.96,0.65 -2,0.65 -2.05,0.46 -2.45,0.66 -2.59,0.65 -2.6,0.83 -2.27,0.65 -2.36,0.84 -1.94,0.64 -2.3,0.9 -2.13,0.82 -2.5,0.87 -2.57,0.78 -1.42,0.5 -1.37,0.44 -2.6,0.81 -2.47,0.76 -2.3,0.84 -2.09,0.64 -2.32,0.8 -2.34,0.77 -2.6,0.81 -2.49,0.77 -2.59,0.64 -2.46,0.53 -2.48,0.66 -2.23,0.72 -1.96,0.65 -2.21,0.63 -2.25,0.5 -2.18,0.48 -2.57,0.47 -2.3,0.58 -2.44,0.57 -2.24,0.53 -2.2,0.66 -1.98,0.53 -1.93,0.47 -2.17,0.5 -2.28,0.47 -2.44,0.67 -2.46,0.64 -2.41,0.72 -2.29,0.65 -2.14,0.53 -2.04,0.67 -1.89,0.73 -1.93,0.63 -1.9,0.73 -2.05,0.63 -2.2,0.55 -2.29,0.68 -2.21,0.72 -2.11,0.65 -1.84,0.67 -1.58,0.46 -1.69,0.49 -1.64,0.52 -1.73,0.6 -1.6,0.48 -1.63,0.62 -1.64,0.29 -1.64,0.44 -1.66,0.49 -1.62,0.32 -1.62,0.34 -1.44,0.25 -1.39,0.36 -1.2,0.46 -1.07,0.3 -1.1,0.28 -1.98,0.57 -1.22,0.35 -1.25,0.45 -1.08,0.34 -1.06,0.2 -1.42,0.46 -1.14,0.23 -1.27,0.3 -1.48,0.42 -1.28,0.33 -1.19,0.28 -1.17,0.32 -1.06,0.18 -1.6,0.4 -1.52,0.43 -1.48,0.53 -1.1,0.33 -1.1,0.16 -1.66,0.43 -1.48,0.37 -1.18,0.2 -1.32,0.28 -1.23,0.21 -1.63,0.4 -1.32,0.35 -1.09,0.2 -1.19,0.32 -1.08,-0.03 -1.12,0.29 -1.17,0.25 -1.24,0.03 -1.02,0.34 -1.08,0.4 -1.09,0.23 -1.2,0.04 c -1.22,0.1 -1.52,0.47 -1.48,0.88 z"
     style="fill:#004f8b;fill-opacity:1;fill-rule:nonzero;stroke:none" />
</svg>
