<svg xmlns="http://www.w3.org/2000/svg" viewBox="0 0 960 540"><defs><clipPath id="a"><path d="M0 0h959.76v540H0Zm0 0"/></clipPath></defs><g clip-path="url(#a)"><path style="stroke:none;fill-rule:nonzero;fill:#fff;fill-opacity:1" d="M0 0h959.76v540H0Zm0 0"/></g><path style="fill:#fff;fill-opacity:1;stroke:none" d="M0 0h960v540H0z"/><path style="stroke:none;fill-rule:nonzero;fill:#000;fill-opacity:1" d="m149.84 74.15-.26-.08-.2-.04-.42-.03.3.07-.05-.02a.88.88 0 0 0-.9.11l-.26.2a.94.94 0 0 0-.34.52l-.01.05-.02.16-.02.23.27-.61-.1.1.16-.13-.2.13-.22.2-.1.14a1.12 1.12 0 1 0 1.64-.1l-.1-.1a1.25 1.25 0 1 0-.94 2.16h.2-.07.06c.24.03.47-.01.69-.11l.45-.23.24-.14.25-.2-.08.05.51-.34c.11-.08.22-.18.3-.29l.32-.42-.13.15.35-.33.13-.16.32-.42-.13.15.48-.48.57-.55.67-.65.05-.05.54-.59.06-.06.66-.82-.15.15.71-.64.15-.15.66-.82-.04.06.71-.79.13-.16.66-.98.06-.11.54-1-.07.12.65-.96-.1.12.71-.82.04-.04.65-.83-.02.03.5-.6.2-.3.3-.66-.08.13.33-.54-.09.13.41-.52.06-.09.33-.5-.04.07.36-.49.19-.36.16-.49-.13.28.21-.34.1-.2.13-.31.06-.17.04-.17-.09.24.17-.35.03-.06.05-.12-.33.46.23-.2-.87.3h.03l.22.02-1.2-1.24v.2-.06.28l-.01.29-.01.25.01-.13-.02.16.03-.17-.01.05c-.13.45 0 .95.33 1.28l.22.23c.24.24.56.38.9.4h.05l-.6-.18.25.15-.3-.23.17.17-.14-.17.12.17c.24.36.65.57 1.09.57h.43-.14l.45.04-.46-.14.31.17.23.09.29.08-.59-.36.32.34c.15.16.34.28.55.35l.34.1-.64-.45.31.42.13.15.35.34.25.19.34.2-.23-.18.48.46-.03-.03.26.25-.05-.05.46.51-.13-.16.32.49v-.01l.45.7.07.11.43.53-.1-.15.37.64.44.76-.01-.03.3.53-.08-.15.27.7c.06.16.15.3.27.42l.48.48-.14-.16.33.47-.14-.27.24.7c.1.27.28.49.52.62l.46.25-.44-.47.3.65.22.29.27.26.01.01.48.45-.1-.11.35.47.32.26.46.24-.35-.32.28.44c.1.16.25.28.42.35l.47.17-.29-.18.34.32.12.1.32.2.04.02.31.17.03.02.1.05-.18-.14.7.71a.73.73 0 0 0 1.04-1.03l-.29-.28-.42-.43-.19-.13-.11-.06.02.01-.31-.17.23.2-.24-.3v-.01l-.3-.36-.26-.22-.44-.22.37.37-.23-.46a.9.9 0 0 0-.32-.35l-.44-.27.33.37-.26-.54-.12-.2-.43-.5.02.02-.23-.3.15.26-.26-.66a1.05 1.05 0 0 0-.25-.38l-.38-.36.3.49-.22-.71-.11-.27-.3-.49-.08-.11-.43-.54.2.36-.24-.72-.06-.15-.27-.54-.02-.03-.4-.77.02.05-.31-.66-.15-.25-.43-.54.07.1-.44-.7v-.01l-.32-.49-.11-.15-.45-.51-.06-.06-.25-.26-.03-.02-.48-.46-.23-.17-.34-.2.26.2-.33-.33.12.14-.3-.43a1.3 1.3 0 0 0-.63-.46l-.34-.11.54.36-.3-.35c-.16-.18-.37-.3-.6-.38l-.28-.08.27.11-.3-.17c-.15-.09-.3-.14-.47-.17l-.46-.06-.18-.02h-.43l1.11.6-.11-.16-.19-.23-.17-.17-.3-.22-.25-.14c-.21-.1-.45-.16-.68-.15h-.06l.98.38-.23-.23.34.58-.01-.05.03.17-.02-.16.01.13v-.25l-.01-.29-.01-.28v.05-.2c.01-.69-.54-1.26-1.24-1.26H162.03c-.28.02-.55.13-.77.32l-.22.2-.26.3-.07.11-.03.07-.17.33-.05.1-.06.16.03-.08-.15.31.1-.17-.23.33-.15.3-.18.47.2-.35-.38.47-.02.03-.36.47.07-.08-.44.5-.12.15-.35.54-.08.14-.32.64.2-.3-.52.6-.04.05-.66.82.04-.05-.71.83-.1.13-.66.96-.06.12-.54.99.05-.1-.64 1 .12-.16-.7.8-.05.07-.65.83.15-.16-.7.66-.14.15-.65.83.05-.07-.53.6.04-.04-.64.66-.56.58-.47.48-.13.15-.3.43.12-.14-.34.34-.12.15-.3.43.33-.33-.51.34-.07.05-.26.2.19-.12-.45.23.45-.13h-.06.07-.2a1.26 1.26 0 1 0 .93 2.17l.1-.1c.24-.22.36-.53.35-.85v-.17l-.18.63.12-.2c.12-.16.18-.36.18-.57V75.32l-.02-.23-.02-.16-.01-.05-.17.78.2-.26-.34.26.05-.02-.3.08.42-.03.2-.04.26-.08a.75.75 0 0 0 0-1.42Zm0 0"/><path style="stroke:none;fill-rule:nonzero;fill:#000;fill-opacity:1" d="M161.98 64.83c-.2-.27-.8-.33-1.2 0-.38 1.25-.22 1.57.06 1.76l.37 1.16.14 1.23-.03 1.47.2 1.33.28 1.17-.04 1.1v1.31l-.01 1.13-.01 1.31v1.04l.05 1.32.22 1.18.22 1-.02 1.55v10.09l-.01 1.53-.01 1.2v1.25l-.01 1.18v1.22l-.02 1.48-.01 1.3v1.14l-.03 1.47-.01 1.48v1.5l.07 1.08.21 1 .25 1.33v3.91l-.01 1.46v2.96l-.01 1.47-.28 1.29-.22 1.32-.03 1.29v1.14l-.01 1.31-.01 1.47-.01 1v1.46l-.02 1.47c-.01 1.12.01 1.27.07 1.41l.47 1.47-.07 1.25.01 1.28v1.28l-.01 1.15v6.85l-.27 1.1-.23 1.6-.01 1.18v1.03l-.02 1.48v1.47l-.02 1.47-.03 1.46-.02 1.48-.28 1.32-.24 1.13V175.86l-.2 1.3-.28 1.52v4.04l-.01 1.47-.45 1.34-.05 1.6v1.02l-.01 1.25v8.94l.01 1.37v2.45l.01 1.14v2.4l-.01 1.36v2.96l.01 1.45v1.46l.02 1.5v1.35l.01 1.41v1.24l-.01 1.35v1.18l-.02 1.29v4.26l-.01 1.47.01 1.27.01 1.36.01 1.47v3.25l-.2 1.3-.08 1.1-.2 1.57v1.58l-.01 1.48v7.57l.01 1.36V254.72l.01 1.7v14.37l.06 1.6.2 1.47.23 1.54v6.02l.05 1.54.2 1.43.23 1.52v1.27l.01 1.19v10.68l-.01 1.35-.01 1.2v1.37l.01 1.47v16.67l.06 1.57.23 1.47.2 1.33.01 1.19V338.28l-.01 1.56.06 1.02.2 1.02.24 1.43.02 1.02V346.77l.01 1.16v6.57l.23 1.95.23 2 .05 1.38v2.73l.01 1.05.01 1.3v13.94l.2 1.05.3 1.54-.02 1.32.06 1.03.33 1.17.14 1.17v1.48l.01 1.53v5.56l-.14 1.29-.35 1.6-.03 1.07v4.11l.02 1.05.01 1.47.02 1.46.3 1.37.2 1.13-.01 1.4.05 1.12.25 1.23.15 1.1.24 1.38.5 1.06-.1 1.04.22 1.1c.33.68.88.87 1.34.65l.51-1.28c0-1.05-.4-1.46-.91-1.46l-.92 1.46c0 .96.4 1.37.92 1.37l1.03-1.1.18-1.07.06-1.38-.32-1.11-.12-1.15-.31-1.43-.21-1.2-.01-1.53-.27-1.5-.26-1.15.02-1.04.02-1.48.03-1.49v-4.13l.13-1.27.33-1.6.04-1.1v-8.05l.01-1.45-.37-1.55-.13-1.64-.02-1.04-.31-1.62-.15-1.31v-14.91l.02-1.21v-2.87l-.06-1.06-.21-1.8-.15-1.1-.04-1.23v-6.44l.01-1.3v-1.14l.01-1.3-.1-1.06-.18-1.12-.23-1.73v-5.84l-.01-1.54v-5.72l.01-1.23-.07-1.07-.18-1.22-.23-1.48v-15.21l.01-1.35v-1.48l.01-1.35v-1.2l-.01-1.38v-3.08l-.01-1.6v-7.18l.01-1.35-.06-1.59-.19-1.42-.23-1.5v-5.85l-.06-1.69-.22-1.47-.2-1.47V253.84l.01-1.73v-6.01l.01-1.44v-4.43l.05-1.48.2-1.75.22-1.57v-3.36l.02-1.46v-1.37l.02-1.24v-4.27l-.01-1.47-.01-1.32v-1.15l-.02-1.37V215.78l.01-1.36.02-1.47V199.7l.02-1.35v-10.2l-.01-1.01-.02-1.31.4-1.17.08-1.46v-3.72l.05-1.04.33-1.1.1-1.48V168.48l-.01-1.46.01-1.42v-2.5l.27-1.33.23-1.12-.01-1-.03-1.49-.02-1.45-.02-1.46v-1.45l-.01-1.53-.01-1.2.25-1.33.22-1.36-.01-1.47V140.71l-.01-1.14v-1.46l.01-1.49-.25-1.4-.24-1.04v-1l-.03-1.47v-1.45l-.01-1.48v-1.14l-.01-1.31-.02-1.49.14-1.15.25-1.13.06-1.13v-2.95l-.01-1.45-.02-1v-2.41l.01-1.48-.04-1.1-.21-1-.18-1.32v-2.49l-.02-1.49-.02-1.29-.01-1.13-.01-1.48-.01-1.04v-2.44l-.01-1.19-.02-1.23V83.9l-.01-1.19-.08-1.1-.23-1.03-.23-1.18V77.16l-.02-1.32v-2.49l-.2-1.47-.38-1.25.04-1.18-.03-1.07-.34-1.1-.27-1.23c-.42-.8-.56-.93-.73-1.03l.14 1.14c.42-1.03.18-1.27-.13-1.33Zm0 0"/><path style="stroke:none;fill-rule:nonzero;fill:#000;fill-opacity:1" d="M164.19 415.79c-.55-.13-1 .12-1.11.54.8 1.06 1.1.99 1.3.8l1.38-.22 1 .03 1.49.02 1.02.02h1.42l1.96.02h1.05l1.02-.05 1.23-.15 1-.05 1.38-.17 1.14-.12 1.33-.17 1.07-.06 1.16-.14 1.9-.04 1.13-.18 2.15-.33 1.16.01h1.42l1.48.01h8.5l1.17-.03 1.4-.18 1.04-.06 1.23-.2 1.14-.05h45.87l1.4.32 1.01.16h4.88l1.45.32 1.66.2h6.86l1.48-.01H285.73l1.59-.01 1.64.05 1.5.2 1.76.23h5.98l1.48-.18 1.29-.14 1.42-.18 1.2.01h10.46l1.81-.01H317l1.1-.01h2.44l1.3-.01h6.79l1.73-.23 1.78-.22 1.8-.02h11.12l1.2-.02h1.13l2.06-.01h9.49l1.48.01h1.44l1.53.01h5.85l1.47.01h1.25l1.14-.01h10.2l1.78-.01h22.54l1.5-.15 1.5-.18 1.31-.17h3.71l1.32-.17 1.15-.14 1.25-.18 1.35.02h9.64l1.3-.01H439.35l1.27-.19 1.13-.17 1.18-.13 1.03.02h2.19l1.19.01h1.16l1.28-.18 1.97-.33 1.63.01h1.47l1.04-.02 1.46-.32 1.27-.15h1.48l1-.2 1.9-.3 1.83.01h5.84l1.23-.05 1.23-.18 1.2-.04 1.27-.18 1.04-.04h6.54l1.33-.01 1.3-.01h1.48l1.36-.01h5.43l1.3-.01H505.5l1.48.01h2.95l1.44.06 1.4.16 1.38.06 1.22.16 1.15.06h2.23l2.01-.01H534.69l1.25.01h1.16l1.02-.05 1.1-.18 1.81-.23 1.4-.04h1.79l1.12-.14 1.02-.18 1.8-.16H550.34l1.03-.01H553.55l1.96-.02H559.1l1.29.14 1.57.32 1.69.01 1.59.06 1 .18 1.02.05 1.05.17 1.14.07H584.93l1.9.05 2.13.2 1.05.16 1.45.07H598l1.35-.06 1.22-.18 1.08-.05 1.05-.15 1.82-.04h17.61l1.24-.18 1.13-.17 1.03-.18 1.02.01H633.99l1.5-.15 1.5-.17 1.42-.16h18.88l1.42-.17 1.16-.14 1.16-.18 1.81.02h1.05l1.07-.07 1.6-.21 1.73-.2h33.96l1.71-.17 1.8-.17 1.44-.17 1.34.01 1.4-.05 1.52-.15 1.65-.04 1.84-.17 1.76-.05H727.5l1.3-.01 1.42-.01h4.42l1.54-.02h1.61l1.59-.01h1.64l1.45-.06 1.67-.17 1.2-.05 1.52-.14 1.11-.04h1.09l1.2.01h2.46l1.14.01H767.1l1.3-.01h2.25l1.67-.02h11.76l1.33.01h2.45c.87.39 1.1.47 1.33.46l1.06.68c.44.41.8.65 1.16.57.46-1.15.13-1.38-.23-1.33l-1.38.02c-.64 1-.35 1.3 0 1.3h1.25c1-1.06.83-1.4.53-1.53l-1.07-1.05-1.32-.43-1.33-.5-1.01-.01h-2.77l-1.45.01H769.52l-1.1-.01-1.3-.01h-5.74l-1.61-.01h-7.04l-1.3.01h-2.36l-1.13.02-1.21.07-1.5.15-1.21.05-1.67.18-1.36.06-1.6-.01h-1.59l-1.61-.01-1.53-.01h-4.43l-1.41-.02h-2.95l-1.8-.01h-7.39l-1.84.06-1.85.18-1.65.06-1.52.15-1.32.05h-1.4l-1.53.19-1.79.16-1.62.18h-32.93l-1.93.02-1.78.23-1.73.23h-1.91l-1.12.02-1.13.17-1.14.13-1.31.18-1.02-.01H638.3l-1.52.19-1.47.16-1.4.14h-8.53l-1.17.17-1.12.17-1.11.17-2.1-.02h-12.07l-1.12.01H603.5l-1.07.07-2.04.19-1.23.18-1.2.04h-6.46l-1.32-.05-1.04-.16-1.22-.07-1.98-.2H569.5l-1-.05-1.05-.16-1.1-.07-1.8-.22h-1.66l-1.52-.13-1.44-.33-1.7-.02h-1.73l-1.96-.02h-3.17l-1.03-.01h-1.16l-1.02-.01-1.15.01-1.96.34-1.8.13h-1.64l-1.77.25-1.93.23-1.97.05H528.06l-1.3.01h-9.05l-1.15-.01-1.03-.06-1.24-.17-1.38-.06-1.41-.17-1.54-.06h-22.69l-1.47-.01-1.3-.01h-1.33l-1.37-.02h-5.26l-1.14.07-1.25.18-1.2.05-1.24.18-1.1.05H463.83l-1.1.02-1.02.14-1.8.34-1.3-.02-1.06.03-1.42.32-1.29.12h-3.26l-1.15.19-2.08.34H443.95l-1.13.01-1.32.16-1.16.18-1.14.17-1.79-.01h-4.68l-1.07-.01H419.24l-1.37.17-1.15.14-1.2.18-1.01-.02h-2.7l-1.42.18-1.46.17-1.4.13H378.54l-1.45-.01h-5.13l-1.25-.02H366.4l-1.36.01H361.86l-1.44.01h-1.47l-1.48.01h-1.42l-1.3.01h-6.43l-2.07-.02h-3.66l-1.13-.01H339l-1.13-.01h-3.91l-1.06.02-1.06.08-1.72.21-1.62.24H317l-1.14-.01h-1.8l-1.74-.02h-10.04l-1.53.18-1.29.14-1.37.17h-1.2l-1.35-.01h-2.3l-1.84-.06-1.67-.22-1.53-.2h-3.29l-2.02-.01h-19.87l-1.23-.14-1.7-.36-1.15-.02H255.17l-1.59-.3-1.78-.18H206.7l-1.29.05-1.23.17-1 .04-1.4.16-1.03.02h-9.96l-1.41.01h-1.31l-1.33.19-1.02.17-1.79.17-1.07.06-1.23.15-1 .05-1.38.18-1.13.1-1.34.18-1 .05-1.23.15-1.9.05-1.96.01-1.42.01-1.02.02-1.48.03-1 .02-1.14.04-1.15.57c-.52.55-.5 1.05-.18 1.36 1.3.25 1.7-.03 1.78-.45Zm0 0"/><path style="stroke:none;fill-rule:nonzero;fill:#000;fill-opacity:1" d="m789.23 410.4-.28.03a.78.78 0 0 0-.48.25l-.14.17.44-.25-.28.05a.77.77 0 0 0-.46.26l-.24.28.3-.22-.32.14.03-.02-.28.1a.8.8 0 0 0-.43.4l-.18.33-.03.07-.1.25.2-.3-.35.33-.08.08-.34.42.17-.16-.49.33.1-.06-.49.25-.1.06-.48.33.08-.05-.57.3-.12.08-.66.5v.01l-.61.48.11-.07-.83.47-.04.03-.86.56.06-.04-1.16.65.02-.01-1.03.53-.02.02-1.16.64h.02l-1.02.52h.03l-1 .47-.12.07-.96.65-1 .69-.02.02-.9.65.07-.05-.82.49-.16.12-.7.65-.1.12-.51.65-.06.08-.4.67-.01.01-.3.5.15-.19-.37.37-.18.24-.15.33-.03.07-.12.35-.04.33.04.48v.03l.07.5.03.26.06.19.2.42c.08.2.26.33.47.37l.28.06-.32-.17.48.45.14.1.48.26a.66.66 0 0 0 .62-1.16l-.48-.26.14.1-.48-.45-.32-.16-.29-.06.47.37-.2-.43.06.37.03-.25.07-.51v-.03l.04-.48-.07.28.16-.33-.05.08.2-.3-.22.23.42-.31.2-.2.32-.47.45-.64-.03.04.51-.65-.1.11.71-.65-.16.12.82-.47.08-.05.9-.65v.01l.99-.68.96-.64-.11.06.98-.49.03-.01 1.02-.55h.02l1.16-.66-.02.01 1.02-.54.02-.01 1.16-.66.06-.04.85-.57-.05.03.82-.49.12-.08.59-.49h-.01l.64-.5-.11.07.56-.32.08-.06.48-.34-.1.06.48-.27.1-.05.47-.35.17-.17.34-.43-.06.06.33-.35.2-.36.06-.26-.05.14.17-.34-.41.4.28-.13.03-.01.31-.15.28-.23.22-.3-.45.3.28-.07a.77.77 0 0 0 .45-.27l.13-.18-.4.27.28-.08c.4-.1.63-.51.52-.91a.74.74 0 0 0-.82-.55Zm0 0"/><path style="stroke:none;fill-rule:nonzero;fill:#000;fill-opacity:1" d="M771.95 395.43v-.28l-.02.2.04-.2a.8.8 0 1 0-1.58-.24l-.01.2v.03l-.02.34c0 .14.02.28.09.4l.21.43.02.05.3.52.02.03.45.7h-.02l.48.79.05.07.7.95.02.03.8 1 .07.07.97.96.05.05 1.16 1 .1.06 1.24.82.07.04 1.48.8 1.25.66-.08-.05 1.13.79.1.05 1.21.65-.1-.06 1.14.81.1.06 1.09.58-.12-.08.84.64.03.03.72.49.04.03.5.3-.1-.08.49.4-.05-.04.3.32-.13-.2.23.46V410l.22.48.02.03.25.48c.19.35.62.49.98.3a.72.72 0 0 0 .3-.98l-.26-.48.02.03-.23-.48-.23-.47-.14-.19-.3-.31.03.05-.4-.5-.16-.13-.47-.33.03.02-.7-.53.03.02-.8-.67-.13-.08-1.06-.61.08.05-1.13-.82-.1-.07-1.22-.66.09.06-1.13-.8-.08-.05-1.24-.7h-.01l-1.47-.8.07.05-1.25-.83.09.07-1.16-1 .05.05-.96-.96.05.05-.84-.98.03.03-.72-.93.05.08-.49-.8-.01-.01-.46-.7-.33-.5.03.04-.24-.42.11.38-.02-.34v-.03l-.01-.2a.8.8 0 0 0-1.6.13l.02.12.04.18-.02-.19v.28c-.02.43.32.78.74.8.42 0 .77-.33.78-.75v-.05ZM183.21 454.35l.02-.25-.06.26.08-.2c.2-.43 0-.94-.44-1.12a.86.86 0 0 0-1.2.73l-.02.23v.01l-.02.31-.02.43v.52l-.01.49-.02.71v.76l-.02 1-.01 1.03-.01 1.13-.02 1.1v1.31l-.01 1.08v1.36l-.02 1.16v2.55l-.02 1.3.01.14.17 1.36v.03l.17 1.16v-.04l.14 1.3v-.11 1.2l.07 1.13.01.13.19.99-.01-.04.12.8.02.11.2.81.07.17.28.59-.08-.28.09.7c.03.29.2.53.46.67l.32.16-.19-.14.23.23a.76.76 0 0 0 1.23-.22l.2-.42.07-.32v-.57a.76.76 0 1 0-1.52 0v.57l.07-.33-.2.43a.76.76 0 1 0 1.23-.22l-.23-.23.1.13-.2-.31.14.44-.03-.72-.05-.27-.23-.6.04.17-.12-.83v.16l.01-.82-.01-.17-.16-1 .02.13-.05-1.14v.05-1.25l-.14-1.3-.01-.05-.17-1.16v.02l-.17-1.36.01.13v-1.3l-.01-1.2-.01-1.36-.01-1.16V462.8l-.02-1.3v-.02l-.02-1.1v.01-1.13l-.01-1.02v-.01l-.02-1v-.76l-.02-.7v-.01l-.01-.48v-.51l-.01-.02-.02-.43-.01-.3V454l-.02-.23a.86.86 0 1 0-1.65.4l.09.19-.07-.26.02.25a.75.75 0 0 0 1.5 0Zm0 0"/><path style="stroke:none;fill-rule:nonzero;fill:#000;fill-opacity:1" d="M181.73 455.78v-1l-.02.14.1-.47v-.04l.03-.25v-.05l.03-.45-.04.22.03-.1.05-.19.03-.3-.69.8.24-.06.06-.02.36-.13-.32.07.43-.02h-.07l.48.02.71.01-.13-.01.53.08-.16-.04.64.2.2.04.57.06-.48-.17.7.44.15.08.54.23-.09-.04.65.34-.2-.13.54.43.09.07.47.32-.39-.43.35.62-.03-.05.3.65-.08-.25.17.7.1.3.34.64-.11-.32.12.6v-.03l.14.82-.02-.12.07.8v-.1 1l.02-.25-.19.94.07-.22-.33.8-.04.1-.28.88.06-.14-.3.65.1-.18-.46.66.21-.23-.64.52.18-.13-.64.34-.13.09-.5.36.36-.17-.48.13-.06.02-.47.15.15-.03-.5.08h.1l-.48.02h.18l-.32-.03.21.05-.35-.12-.09-.03-.29-.07.4.2-.35-.3-.25-.16-.26-.1.47.55-.06-.3-.03-.1.02.15v-.43l-.52.67.23-.06.28-.15.26-.23-.45.18h.5a.69.69 0 1 0 0-1.37h-.5a.7.7 0 0 0-.46.17l-.26.23.3-.16-.23.06a.68.68 0 0 0-.52.66v.43l.01-.15-.02.1-.07.3c-.06.23 0 .47.15.66l.17.22-.02-.02.28.37.27.24.26.15.06.03.33.16.19.07.3.08.18.02.48.04h.11l.52-.03.21-.03.49-.12h-.06l.49-.09.34-.14.53-.31-.14.07.67-.29.23-.13.66-.5.22-.22.5-.65.11-.19.32-.65.07-.15.29-.87-.04.1.35-.8.07-.21.2-.94.03-.25.01-1v-.08l-.05-.8-.02-.11-.13-.82v-.02l-.11-.6-.12-.35-.35-.65.1.28-.16-.71-.08-.24-.32-.65-.02-.06-.34-.62c-.1-.19-.25-.35-.43-.46l-.5-.3.1.07-.54-.42-.18-.12-.66-.33-.09-.04-.54-.23.15.08-.71-.42a1.14 1.14 0 0 0-.5-.16l-.57-.05.16.03-.66-.15-.17-.03-.55-.03h-.1l-.7.01h-.01l-.48.02-.23.03-.41.1-.34.15-.32.2-.05.04-.2.16a.96.96 0 0 0-.37.87l.04.31.04.19.03.1-.04-.22.03.45v.05l.04.25v.04l.1.47-.02-.13v.99a.74.74 0 1 0 1.48 0ZM199.04 473.3l-.47-.3h-.02l-.48-.3-.12-.06-.48-.2-.09-.02-.27-.07.22.1-.4-.26-.38-.12-.27-.03h-.06l-.26-.02h-.46.02l-.25-.02h-.34c-.15 0-.3.04-.43.1l-.43.23a.93.93 0 0 0-.47.63l-.06.29.07-.22-.23.48-.1.4v.99l-.01.48-.01.48v.1l.06.66.03.16.17.65.04.1.29.72.1.2.47.66.06.08.48.54-.08-.1.48.71.1.12.48.53.01.01.47.5.2.16.49.3-.14-.1.5.43c.17.14.37.23.6.25l.64.07-.17-.04.64.18.2.04.64.06h.58c.16 0 .32-.03.47-.1l.48-.23.14-.08.5-.34.17-.13.42-.42.12-.14.34-.48.02-.02.37-.54.15-.35.17-.68v-.01l.14-.6.03-.3-.03-.79v.03l-.02-.62v-.9l-.01-.1-.06-.59-.02-.1-.18-.83-.08-.22-.3-.6-.1-.16-.54-.7-.18-.17-.66-.5-.53-.42-.15-.1-.66-.33-.18-.07-.76-.2.12.04-.53-.23-.3-.07-.7-.06.27.06-.57-.22-.35-.07h-.65l-.4.1-.49.22-.14.08-.48.34h-.01l-.51.38-.14.13-.32.34-.14.21-.21.43-.05.11-.12.36-.05.26-.01.43v.05l.02.48v.02l.03.5v.01l.02.48.12.36.17.29.01.02.2.32c.09.12.2.21.34.27l.42.17-.1-.05.5.3-.03-.02.48.34h.01l.7.5a.7.7 0 0 0 .98-.2.7.7 0 0 0-.18-.97l-.71-.48h.01l-.48-.34-.04-.02-.51-.31-.1-.06-.43-.17.4.41-.14-.35.02.03-.11-.32.04.28.03-.48.02-.51v-.02l.02-.48v.06l.04-.42-.14.4.2-.32.05-.06.24-.41-.13.17.31-.34-.14.12.51-.36.48-.34-.14.09.48-.23-.4.09h.65l-.35-.07.56.23.28.06.71.06-.29-.07.54.22.14.05.76.19-.21-.09.65.35-.15-.1.54.44.64.51-.17-.17.54.71-.11-.17.27.6-.07-.22.16.82-.02-.2v.6l-.01.9-.01.62v-.03l-.04.8.03-.2-.14.6v-.03l-.17.68.16-.35-.37.54-.33.48.11-.14-.42.43.17-.15-.5.34.13-.07-.48.22.45-.1h-.49.1l-.65-.05.17.03-.66-.16-.17-.03-.65-.05.58.23-.52-.41-.14-.1-.49-.27.2.15-.49-.47-.53-.5.14.16-.5-.7-.07-.1-.49-.54.05.06-.5-.64.14.24-.28-.72.03.12-.16-.65.03.16-.06-.65v.06-.49l-.01-.48v.01-.5l-.02-.49-.08.4.22-.48.07-.22.05-.28-.47.64.43-.22-.45.1H195.52h-.02l.45-.01h.01l.26-.02h.06l.27-.03-.44-.07.44.2.23.06.29.04-.14-.03.49.15-.06-.02.52.22-.08-.04.5.27c.36.2.8.06 1-.3a.73.73 0 0 0-.26-.97ZM212.55 474.7l.1-.22.05-.16.04-.22.01-.05.04-.22-.01.03v-.05l.02-.12.01-.2v.03l.02-.23v.03-.08l.03-.22a.98.98 0 0 0-.89-1.06h-.04l-.23-.02h.02l-.29-.01h-.56.02-.25c-.16 0-.3.04-.44.1l-.46.24-.28.2-.11.12.02-.02-.31.31-.13.14-.43.45c-.12.13-.2.3-.24.46l-.06.26.03-.1-.17.52-.05.21-.06.68V477.82c0 .23.07.46.21.64l.23.28-.08-.12.26.43c.15.27.43.44.73.48l.52.06-.53-.23.48.4.35.19.48.15-.06-.03.47.19.34.06.5.02h.68-.01l.65.01.36-.05.65-.23.15-.06.48-.25.1-.06.51-.34-.02.01.48-.3.27-.26.26-.33-.03.04.4-.48.2-.34.16-.49.02-.06.14-.51.04-.27v-.54l-.02-.48v.02-.48l-.01-.5-.08-.39-.2-.48-.13-.22-.35-.47-.2-.19-.65-.5.05.04-.55-.48-.34-.2-.88-.29.13.06-.66-.34-.31-.09-.88-.11.24.07-.54-.23-.35-.07h-1.69l-.51.02h-.48c-.15 0-.3.04-.43.1l-.34.19-.02.01-.3.18a.93.93 0 0 0-.44.54l-.1.37.57-.6-.36.12a.9.9 0 0 0-.52.47l-.16.35.16-.24-.17.17a.88.88 0 0 0-.23.7l.03.3v-.04l.01.34.02.26.03.17.12.44.1.22.2.29h-.01l.28.43.27.23.5.26-.14-.1.48.43.2.12.71.28-.1-.05.76.48c.32.2.74.1.94-.22a.7.7 0 0 0-.21-.94l-.77-.48-.1-.06-.72-.28.2.12-.48-.42-.15-.1-.51-.26.31.32-.22-.47v.03l-.13-.33.06.31.01-.45v.03l.01-.25v-.01l.02-.34v.04l.03-.3-.27.55.17-.17.17-.22.18-.33-.55.43.37-.1c.3-.08.54-.3.63-.6l.12-.36-.45.53.32-.17-.04.02.34-.16-.4.1h1.47l.48.01h.72l-.37-.08.53.23.26.07.87.12-.33-.11.65.35.12.05.87.33-.32-.19.53.48.05.05.65.52-.2-.23.32.49-.1-.19.2.49-.08-.4v.5l-.02.49v-.03l-.02.48v.54l.05-.3-.15.5.03-.06-.18.48.17-.3-.38.48-.03.03-.26.35.28-.26-.48.32-.52.34.08-.06-.48.26.15-.06-.65.23.33-.06-.65.01h-.66l-.5.02.33.05-.49-.16-.03-.01-.49-.14.36.18-.49-.39a.98.98 0 0 0-.51-.21l-.51-.06.74.48-.26-.43-.07-.1-.23-.29.22.61v-.96.01-1.28.08l.05-.68-.05.24.17-.5.03-.11.06-.26-.25.46.43-.45-.02.02.11-.11.31-.3-.02.01.11-.1-.23.15.45-.22-.44.1h.25-.01l.48.01h.07l.29-.02h-.02.23l-1.02-.9.02.23v.02l.01.06v-.03l.02.23v-.03.2l.02.12.01.05v-.03l.03.22.01.05.04.22.06.16.1.22c.16.36.58.53.95.37.16-.08.3-.21.37-.37ZM223.4 474.36l-.03.51-.03.48v-.01l-.02.25.07.4.22.46-.08-.32v.26l.03.16.12.52-.01-.06.04.26v-.22l-.03.23a.93.93 0 0 0 1.86.14v-.28l.01-.32v-1.71l.01-.7v-3.86l-.03.26.17-.6.18-.66-.28.47.37-.34a.98.98 0 0 0 .3-.54l.13-.66-.3.54.35-.32-.18.13.32-.18.16-.12.52-.45-.58.25.25-.02.27-.06.6-.23-.36.07h.5l.28-.04.6-.17.06-.02.49-.16-.08.01.54-.14-.26.04h.65-.01H230.88l.82-.06h-.03l.6-.01h-.02l.94-.02.72-.02.82-.02h.02l.94-.05h-.05 3.2a.85.85 0 0 0 0-1.7h-3.2.05l-.94-.05h-.02l-.83-.02-.7-.02-.95-.02h.02l-.6-.01h.03l-.82-.06h-.66.01-.65l-.26.03-.54.14-.1.03-.47.17.06-.02-.6.17.29-.03h-.51l-.37.06-.6.23.24-.06-.26.03c-.2.03-.4.12-.55.26l-.5.46.1-.08-.3.22-.16.13-.33.35a1 1 0 0 0-.25.5l-.1.66.28-.54-.36.34a.95.95 0 0 0-.27.47l-.16.65v-.02l-.16.59-.04.26v5.1l.01.65v.52l.01.32v.23a.93.93 0 1 0 1.86-.04v-.05l-.02-.23-.03-.18-.07-.25-.01-.03-.16-.5-.03-.07-.1-.24-.03-.07-.25-.45.1.33-.02-.25-.03-.47-.03-.51a.73.73 0 0 0-1.46 0ZM686.6 457.25v-.48.07l.02-.29a.74.74 0 0 0-.18-.55l-.2-.25h-.01a.81.81 0 0 0-.4-.27l-.21-.05a.87.87 0 0 0-1.1.79l-.01.23-.01.35v.01l-.01.6-.01.65-.02.88v.8l-.01.93-.02 1v1.13l-.01 1.14-.01 1.3-.02 1.16v2.45-.05l-.05 1.3v-.1l-.16 1.17-.01.1-.05 1.25v-.13l-.16.97-.01.15-.02 1.1v.03l.02.82v.03l.03.76v-.01l.02.8.02.63.04.71v.08l.04.25v-.01l.02.17a.79.79 0 1 0 1.57-.2l-.03-.17-.03-.3v.05l-.03-.66-.04-.62v.04-.8l-.04-.22-.22-.62.02.06-.28-1.13-.05-.12-.48-1.02a.66.66 0 0 0-.88-.32.66.66 0 0 0-.32.88l.49 1.02-.05-.12.29 1.13.01.07.23.62-.04-.23v.8-.04l-.03.62-.04.66v-.05l-.03.3-.02.17c-.06.43.25.83.68.88a.8.8 0 0 0 .89-.68l.02-.17.03-.24v-.08l.04-.7.03-.63v-.02l.02-.8v.02l.03-.76v-.03l.01-.82v.02l.04-1.1-.02.14.18-.96.02-.13.06-1.25v.1l.16-1.17v-.1l.06-1.3V465.24l-.02-1.3v-1.14l-.01-1.13-.02-1v-.94l-.02-.79v-.88l-.02-.65v-.61l-.02-.34v-.01l-.01-.23-.63.87.2-.05c.16-.05.3-.14.4-.26l.02-.02a.78.78 0 1 0-1.1.1l.24.2-.27-.5.03.28v-.07.48a.73.73 0 1 0 1.46 0Zm0 0"/><path style="stroke:none;fill-rule:nonzero;fill:#000;fill-opacity:1" d="m686.02 456.13.26-.46.1-.28.06-.5-.14.36.32-.46.06-.1.23-.46.06-.15.08-.28-.26.43.44-.41-.52.25.28-.04.16-.04.5-.15-.24.04.49-.04h-.12l.5.03.48.02h.02l.48.02h.73l.54.02h-.06l.93.06-.15-.03.82.18.05.01.77.13-.23-.07.82.33-.05-.02.65.28.8.35-.19-.1.62.43.15.08.66.31-.24-.15.54.45-.07-.06.49.48-.18-.23.28.48-.1-.22.18.51-.02-.03.2.65v-.04l.17.65-.01-.02.17.71-.03-.26v.65l.07-.39-.22.6-.3.82.2-.33-.51.6.06-.06-.65.66.03-.03-.59.55.18-.13-.81.5-.12.07-.64.52.12-.08-.82.5.17-.09-.8.3.2-.05-.98.15-.12.03-.82.24.06-.02-.82.18-.15.05-.6.23.15-.05-.65.15h.02l-.54.11-.36.15-.48.34-.1.1-.34.3-.17.2-.31.51-.12.29-.11.48.46-.62-.45.25a.96.96 0 0 0-.48.72l-.07.45.09-.28-.14.31-.09.26-.07.45v.13l-.02.48v-.02l-.02.34-.01.3v.17l.03.29.06.25.12.32.02.05.2.46.22.33.31.34.16.14.42.3-.14-.12.32.32.15.13.41.3h.02l.47.33-.05-.03.53.4c.13.1.27.17.42.21l.65.19-.36-.17.56.38.1.06.65.35.1.05.59.26-.09-.05.65.35.06.03.54.25-.05-.02.65.34-.12-.07.54.36.32.16.51.16-.11-.04.49.21.18.06.49.13.29.04h.5l-.26-.03.5.12.25.04h.31l.39-.06.3-.11-.03.01.28-.1-.18.05.5-.05.48-.05h-.08.43l-.32-.08.34.18.15.05.22.06-.47-.4.2.43.14.2.28.29a.72.72 0 1 0 1.02-1.02l-.29-.28.15.2-.2-.42a.74.74 0 0 0-.48-.4l-.23-.05.15.05-.34-.17-.14-.05-.4-.11-.13-.02-.47-.06-.51-.04.18.03-.28-.09.03.01-.3-.1-.3-.11.1.04-.46-.22-.26-.08-.5-.1.14.03-.48-.16.18.08-.48-.25-.17-.07-.5-.17.31.16-.54-.37-.13-.09-.65-.34-.05-.02-.54-.26.04.02-.66-.34-.09-.04-.6-.25.09.04-.66-.33.1.06-.57-.36-.37-.16-.66-.16.43.2-.55-.39-.07-.05-.5-.3.02.01-.44-.26.15.1-.36-.3-.14-.1-.43-.27.11.08-.36-.29.27.32-.25-.44v.02l-.16-.3.09.21-.08-.27.04.23-.01-.3-.02-.34v.02l-.02-.48v.12l.04-.46-.08.3.15-.3.07-.29.05-.45-.48.73.45-.26c.24-.13.4-.36.47-.62l.11-.48-.11.28.3-.51-.17.22.34-.31-.09.06.49-.34-.36.16.53-.12.65-.13.14-.04.6-.22-.15.04.82-.16.07-.02.82-.21-.13.02 1-.12.19-.05.8-.27.18-.08.82-.47.12-.07.66-.5-.12.08.83-.47.17-.13.61-.52.05-.05.66-.64.05-.06.52-.6.2-.32.32-.81.23-.59c.05-.13.08-.27.08-.4v-.66l-.03-.27-.16-.7v-.03l-.17-.65-.02-.04-.2-.65v-.03l-.17-.51-.1-.22-.28-.48-.17-.23-.48-.48-.07-.07-.54-.46-.25-.16-.65-.31.15.09-.62-.43-.2-.1-.8-.34-.65-.28-.05-.02-.83-.3-.23-.06-.77-.1h.07l-.83-.16-.15-.01-.94-.05H690l-.7.01h-.03l-.48.02h-.02l-.48.02-.5.03h-.12l-.48.08-.2.06-.48.18.1-.03-.27.07a.96.96 0 0 0-.46.28l-.4.45a.95.95 0 0 0-.25.53l-.03.28.01-.1-.1.5.06-.19-.24.5-.08.37v.5l.06-.28-.2.5a.73.73 0 0 0 1.32.61ZM708.02 470.36l-.3.2-.25.26-.17.3-.1.28-.06.46.05-.18-.19.46.02-.03-.2.46-.05.1-.2.65-.03.22-.03.65v.02l-.01.83-.02.65v.65l-.02.51v.97c0 .2.06.4.18.57l.21.31-.03-.04.2.3c.1.17.26.3.46.37l.16.06-.2-.1.26.18a.78.78 0 0 0 1.21-.5l.06-.27-.03.1.17-.48.05-.2.05-.7v-1.07a.79.79 0 0 0-1.57 0v1-.06l-.05.7.04-.2-.17.5-.03.1-.05.28a.78.78 0 1 0 1.54.3c.04-.2 0-.42-.13-.59l-.17-.26.01.03-.09-.15.05.1-.15-.32.04.1-.11-.35.05.3-.01-.97v-.52l-.02-.64v-.01l-.01-.65-.01-.83v-.02l-.03-.65-.02.23.14-.66v.04l.12-.5.01-.04.1-.49.01-.07.05-.45-.08.27.16-.31-.15.2.27-.25c.29-.29.3-.76.01-1.05a.74.74 0 0 0-.94-.1ZM708.17 462.63v-.54l-.03-.28a.77.77 0 0 0-.17-.42l-.14-.17.16.31-.02-.07a.85.85 0 0 0-.62-.6l-.24-.07.1.04-.14-.06-.2-.05h-.05a.96.96 0 0 0-.77.2l-.23.2a1 1 0 0 0-.36.72v.29l-.01.49.02.24.08.34.12.3.19.3.05.07.25.33-.02-.03.34.47.12.14.49.45-.11-.13.35.48.22.2.46.3-.03-.03.48.34-.12-.1.28.3.1.1.65.5-.04-.03.54.48a.78.78 0 1 0 1.04-1.16l-.54-.48-.04-.04-.65-.5.1.08-.29-.31-.13-.11-.48-.34h.01l-.44-.32.25.29-.27-.54-.1-.15-.41-.51.07.1-.29-.49-.2-.35.04.07-.15-.32.09.31-.04-.34v.09-.49l-.01-.29-.32.75.22-.2-.51.25.05-.01.2-.06.15-.05-.11.03.24-.05h-.4l.06.01-.19-.08.19.1-.35-.42.08.27-.03-.23v.48c-.01.4.32.74.72.75.41 0 .74-.33.74-.74ZM722.74 468.1l-.21-.3-.22-.2-.3-.17-.24-.1-.45-.1h-.1l-.48-.04h-.02l-.48-.03-.51-.02h-.02l-.65-.03-.65-.02h-.01l-.82-.02h-.67l-.25.04-.85.22-.11.04-.57.23-.04.02-.66.3-.2.13-.54.46-.07.06-.25.25c-.1.1-.19.23-.24.38l-.17.5-.04.21-.06.54v2.16l.05.32.22.65.01.03.31.82.1.18.41.66v-.02l.5.82.1.14.55.6.03.04.68.68.71.65.17.12.82.49-.06-.04.78.53.32.14.65.15h.02l.77.17.2.02.97-.01h.08l.93-.1.13-.02.82-.2.23-.1.83-.51.22-.2.66-.83-.02.02.8-.94.05-.07.65-.96.66-1 .04-.07.5-.96a.8.8 0 0 0-.32-1.08.8.8 0 0 0-1.08.34l-.51.96.04-.07-.65 1v-.01l-.65.96.05-.07-.79.94v-.01l-.7.8.24-.18-.86.45.26-.08-.83.13.12-.01-.93.02h.03-.97l.2.02-.76-.18.05.01-.65-.19.3.15-.75-.55-.09-.05-.82-.49.17.13-.7-.66.02.03-.65-.65.03.03-.54-.59.1.14-.51-.82-.01-.02-.43-.65.1.19-.32-.82v.02l-.22-.65.06.31v-1.42.01-.65l-.01.1.05-.54-.04.2.17-.5-.23.37.26-.26-.06.05.54-.45-.2.13.64-.32-.06.03.57-.22-.1.03.84-.22-.24.03h.67l.82-.02h.01l.65-.02.65-.03h.02l.5-.02h.01l.48-.03h.02l.48-.04h-.1l.46.02-.3-.07.31.15-.23-.18.23.28a.74.74 0 0 0 1.15-.92ZM730.7 455.28l-.02 1.02-.01 1.16v-.03l-.08 1.25v-.04l-.15 1.47v.04l-.1 1.47v-.07l-.2 1.44v.08l-.1 1.47v.03l-.03 1.48-.03 1.3-.04 1.3v.01l-.02 1.42-.03 1.47-.01 1.3-.02.82-.02.88-.02.65v.1l.05.6c.01.16.06.3.12.44l.17.34c.08.15.2.28.33.39l.26.2c.2.15.44.24.7.24h.99c.26 0 .5-.08.7-.24l.49-.38.08-.07.51-.5.17-.2.53-.82-.06.1.65-.83.11-.17.42-.77-.1.16.64-.83.13-.23.28-.6-.11.19.47-.66-.03.04.39-.5-.24.23.49-.34h-.01l.28-.18-.94.13.19.06-.75-1.1v.14c-.02.18.02.36.1.52l.2.46.3.66-.06-.18.22.85-.02-.06.17.82-.02-.16.06 1.1v-.06V477.36l.03.2.2 1-.01-.03.16.96.08.24.42.98-.02-.06.34.96.06.14.46.87.1.13.49.65.08.1.57.56.13.1.52.35-.1-.07.48.42.09.07.7.48h.01l.77.52a.87.87 0 1 0 .96-1.45l-.76-.51-.7-.48.08.07-.48-.43-.09-.07-.51-.34.28.32-.37-.7-.07-.12-.47-.66.09.13-.45-.88.07.17-.28-.98-.02-.07-.38-1 .06.25-.11-.97v-.03l-.16-1 .02.18v-1l.01-1.13v-1.19l-.05-1.11-.03-.19-.17-.82-.02-.06-.23-.85-.09-.21-.32-.65-.01-.02-.25-.45.14.46-.02-.14a1.09 1.09 0 0 0-.83-1l-.2-.04a1.1 1.1 0 0 0-.89.17l-.28.2-.48.35-.18.16-.4.48-.05.05-.5.64-.1.18-.3.59.13-.2-.65.81-.11.15-.43.76.1-.14-.66.82-.06.08-.54.82.18-.2-.52.47.1-.08-.49.36.69-.22h-1l.72.24-.26-.2.32.4-.17-.34.12.38-.07-.6v.1l-.01-.65v.01l-.02-.88-.02-.82-.01-1.3-.03-1.47-.02-1.42v-.01l-.04-1.3-.03-1.3-.03-1.48v.04l.02-1.47v.06l.13-1.45v-.06l.03-1.48v.06l.12-1.48v-.04l.04-1.25v-.04l-.02-1.16-.02-1.02a.74.74 0 0 0-.76-.73c-.4 0-.72.33-.73.73ZM46.9 237.02l-.04-.26a.77.77 0 0 0-.18-.38l-.16-.18.18.68.01-.1a.83.83 0 0 0-.09-.6l-.11-.2-.04-.06-.1-.15-.19-.21.18.29-.07-.19a.98.98 0 0 0-.46-.52l-.33-.19.43.46-.07-.16c-.11-.22-.3-.4-.53-.5l-.45-.2.15.09-.3-.2-.16-.07-.45-.19-.38-.08-.48-.02-.47-.01-.52-.02-.48-.01-.49-.02h-.13l-.49.05-.23.04-.52.16-.11.04-.66.27-.24.13-.66.48.06-.04-.83.53-.2.16-.66.64.14-.12-.82.6-.25.23-.65.82.03-.04-.85.98-.07.09-.83 1.12-.03.04-.88 1.3.03-.03-.83 1.13-.03.06-.89 1.36-.07.13-.66 1.33-.02.04-.65 1.44-.06.17-.48 1.64-.04.14-.28 1.59-.01.12-.15 1.78v.07l-.05 1.82v2.03l.07 1.9v.06l.16 1.79.01.1.3 1.65.05.22.49 1.3.09.2.7 1.21.13.18.83.96-.02-.01.77.93.08.1.85.84.76.71.22.17.82.48.2.1.86.31-.15-.06.65.34.4.12.81.13-.15-.03.65.18c.14.03.28.05.43.04l.7-.05c.18-.01.35-.06.5-.14l.65-.33.03-.02.57-.3.31-.24.66-.68.11-.13.54-.74.07-.1.48-.83.04-.06.48-.93.5-.95.06-.11.42-1 .03-.09.33-1 .04-.13.19-.91.03-.27v-.83l-.02-.88-.01-.66-.04-.28-.2-.82-.12-.28-.34-.65-.07-.1-.43-.65-.2-.22-.51-.47-.5-.44-.16-.14-.5-.3-.13-.07-.49-.22c-.15-.07-.33-.1-.5-.1l-.5.01h-.05l-.3.02-.34.01-.3.02h.01l-.5.01c-.21 0-.4.07-.58.18l-.3.2.05-.03-.33.2c-.24.14-.4.37-.47.63l-.1.38.03-.1-.12.35-.06.32v.53l.05.49v-.02l.03.34.03.31v-.08.82l.03.23.2.7.02.07.28.77c.16.43.64.64 1.07.48a.83.83 0 0 0 .49-1.06l-.28-.77.02.07-.2-.71.03.22v-.82.08l.03-.3v-.01l.03-.34v.02l.04-.48-.02.13.1-.41-.06.19.16-.34.04-.09.13-.36-.58.6.35-.14.03-.01.33-.15-.48.1.51.01h-.02l.31.01.34.02.3.01h.04l.51.02-.49-.12.48.23-.14-.08.48.32-.17-.13.47.46.5.5-.18-.23.42.66-.06-.1.34.66-.1-.28.19.82-.04-.3v.66l-.02.88v.83l.02-.27-.2.9.04-.14-.35.99.04-.1-.44 1 .04-.09-.5.97-.01.01-.48.94.03-.06-.48.82.07-.11-.53.74.1-.13-.65.68.3-.23-.55.31.02-.01-.65.35.49-.15-.71.06.41.04-.65-.16-.14-.03-.83-.1.42.13-.65-.34-.15-.07-.85-.3.2.08-.82-.48.21.16-.77-.7.04.03-.82-.82.08.1-.76-.94-.02-.02-.82-.97.13.19-.7-1.22.08.2-.47-1.31.05.22-.27-1.65v.12l-.12-1.79v.06l-.05-1.9v.04l.01-1.96v.04l.06-1.8v.05l.14-1.79-.02.13.29-1.6-.03.14.48-1.64-.06.17.65-1.45-.02.03.65-1.33-.08.13.88-1.36-.04.05.82-1.13.03-.03.87-1.31-.02.03.82-1.14-.07.08.85-1 .02-.03.66-.82-.25.23.82-.6.16-.13.64-.66-.2.16.82-.55.06-.04.65-.49-.23.14.64-.3-.08.04.5-.18-.23.05.48-.07-.14.01.49-.01.48-.02.51-.02.49-.01.47-.02-.38-.06.46.16-.12-.04.32.15.12.05.47.15-.51-.37.1.13c.1.14.24.25.4.32l.34.16-.27-.18.14.13.03.03.22.18.14.1.07.04.2.12.06.03.1.04-.2-.12.18.16-.22-.36.07.25a.74.74 0 0 0 1.45-.32ZM51.81 262.14v.99-.08l-.06.48v.06l-.02.5-.02.48v-.01l-.03.48v.03l-.02.48-.01.5v-.01l-.02.3v.02l-.01.34v.18-.06l-.01.43c-.02.42.25.8.66.92l.2.06.18.04.06.01c.18.02.36-.01.52-.1l.23-.11a.95.95 0 0 0 .52-.82l.02-.31.02-.56V265.8l.02-.94v-.08l-.05-.6-.02-.11-.15-.83.01.14-.04-.85-.01-.08-.16-1.17v.13-.85.03-1l.02-.81.01-.83v.03l.03-.85.03-.64V255.8l.01-.52-.09.45.2-.48-.24.36.28-.29-.5.3.49-.14h-.03l.33-.09-.16.04.3-.04h-.08.34-.02l.48-.03-.2-.01.49.08h-.04l.52.1-.47-.25.5.51.02.02.5.48-.03-.03.51.54-.09-.1.32.48.07.1.42.47-.04-.06.5.71.09.1.76.76a.79.79 0 0 0 1.12-1.11l-.77-.77.09.1-.52-.7-.04-.07-.43-.48.07.09-.31-.48v.01l-.38-.63-.08-.1-.46-.54.02.02-.46-.56a.95.95 0 0 0-.33-.26l-.48-.23h-.03l-.45-.2-.39-.1-.48-.01h.02l-.34-.02.08.01-.3-.04h-.2l-.35.01-.25.04-.49.14c-.18.06-.35.15-.5.29l-.28.28c-.12.11-.21.25-.27.4l-.2.48c-.06.15-.09.3-.09.45v.52l.02.65v.04l.03.64.03.85v-.03l.01.83.01.82.02 1v.03l.04.85.01.1.18 1.17v-.08l.06.85.02.14.18.82-.02-.1.08.59-.01-.1v.93l.02.55v.02l.02.57v-.01.31l.54-.89-.23.12.33-.1h-.06l.33.03-.2-.05.71.89-.01-.43v.06-.18l-.01-.34v-.02l-.02-.3v.02l-.01-.51-.02-.48v-.03l-.03-.48v.01l-.02-.48-.01-.5-.01-.06-.05-.48v.08-.49l-.01-.5a.74.74 0 0 0-1.48 0ZM73.28 259.79l-.21-.33-.1-.12-.34-.35-.34-.2-.42-.12.32.19-.46-.45-.09-.06-.5-.36-.01-.01-.41-.28.16.14-.32-.36a.82.82 0 0 0-.37-.25l-.41-.15.16.08-.3-.18-.33-.11-.45-.08h-.12l-.48-.02h-.01l-.48-.02h-.51a1 1 0 0 0-.5.11l-.48.26-.26.2-.48.5-.09.11-.34.48-.09.15-.3.65-.1.28-.11.7.02-.08-.17.64-.03.18-.06.82v.07l-.01.65v-.01l-.02.7-.02.66v.12l.05.48.05.24.15.48.13.26.3.46c.14.22.36.39.62.46l.64.18h.04l.62.17.25.03.8.02.82.01 1 .02.26-.03.9-.2.2-.06.83-.33.06-.03.88-.42.16-.1.67-.47.1-.08.6-.52.16-.18.53-.72-.04.06.45-.54.16-.25.32-.65.07-.19.2-.71.04-.36-.02-.65v.02l-.01-.82-.02-.66-.07-.36-.24-.65-.12-.23-.32-.48-.1-.12-.47-.5-.04-.05-.5-.47-.21-.16-.55-.3-.7-.35-.27-.09-.54-.1.05.02-.65-.16-.25-.02h-.7l-.25.04-.65.18-.18.08-.61.3a.94.94 0 0 0-.38.38l-.29.5.1-.13-.42.5-.07.1-.32.51-.1.22-.18.66-.02.1-.1.66v.1l-.02.7v.06l.03.65v-.04 3.2a.7.7 0 1 0 1.39 0v-3.2.04l.03-.65v.06l.09-.7-.02.1.18-.63-.03.08.27-.63-.1.17.36-.5-.08.1.45-.48.07-.08.34-.46-.41.31.64-.25-.13.04.65-.16-.25.03.71.01-.25-.04.65.19h.03l.54.14-.25-.1.65.36-.04-.03.53.32-.21-.17.47.5-.04-.05.44.52-.1-.14.3.5-.11-.24.22.66-.06-.37-.02.65v.83-.02l-.03.65.07-.35-.25.7.04-.11-.31.65.16-.25-.45.54-.58.74.18-.19-.6.5.03-.02-.64.5.2-.13-.87.43.06-.03-.82.34.2-.06-.9.2.23-.03-.99.01-.83.02-.79.02.24.02-.62-.13.04.01-.66-.15.63.42-.32-.45.14.25-.18-.47.05.22-.07-.48.02.13-.02-.66-.02-.7v.01-.65l-.01.07.05-.82-.03.2.17-.66.02-.1.11-.7-.08.27.31-.65-.09.14.34-.48-.1.12.49-.51-.26.2.48-.26-.44.12.51-.01.48-.02.49-.01h-.12l.45.03-.21-.04.32.11.13.03.43.08-.43-.2.36.31.17.12.44.23-.05-.03.52.32-.09-.06.5.4.3.16.43.1-.35-.19.34.34-.05-.06.24.3c.27.31.73.35 1.06.1a.75.75 0 0 0 .15-.98ZM77.34 260.7l.2.27.08.1.27.28-.24-.41.15.51-.01-.07.1.48.12.32.3.5-.12-.3.15.65.06.17.29.66-.08-.26.1.68c.05.32.23.6.5.76l.45.27-.5-.76.06.43c.03.23.14.44.3.6l.34.34-.22-.31.1.23c.12.25.32.44.58.55l.43.19c.14.06.29.09.44.09h.76c.18 0 .35-.05.51-.13l.42-.23.28-.22.32-.36-.02.02.42-.43.1-.13.34-.5.07-.13.27-.58h.01l.3-.67-.02.04.27-.54.02-.03.3-.66-.18.26.38-.4.2-.3.12-.36-.57.56.39-.13.3-.17.26-.22-.6.21.51.01-.6-.24.24.23.07.06.39.3-.33-.47.15.49.1.21.34.56-.05-.1.3.67-.01-.04.23.57.03.06.33.66-.1-.3.06.37c.03.23.13.43.28.6l.32.36.03.03.32.33.03.03.47.45.1.08.46.36.2.13.47.24c.17.08.35.13.53.14l.52.01h-.01l.96.04h.23l.35-.05c.15-.02.3-.07.42-.14l.32-.16.15-.09.34-.23.02-.01.47-.33.17-.15.47-.47-.28.21.45-.26c.18-.1.33-.25.45-.42l.3-.49-.05.09.4-.55.12-.17.26-.51.05-.1.2-.5.04-.12.14-.52v.03l.14-.5.02-.05.12-.5-.04.12.2-.52.03-.08.13-.49.04-.38-.06-.47-.03.35.14-.49.03-.14.06-.51-.08.26.23-.48-.02.04.26-.49a.85.85 0 0 0-1.5-.78l-.25.48-.02.03-.22.49-.08.26-.06.51.03-.15-.14.49.02-.06-.17.44.02-.04-.2.48.03-.07-.25.5-.02.03-.21.46.02-.05-.25.46-.05.11-.2.5.06-.12-.25.46.12-.17-.36.45.11-.13-.49.47-.19.23-.31.48.46-.42-.46.25-.22.16-.5.43.2-.14-.5.29-.05.03-.34.22.06-.03-.31.18.42-.16-.34.07.2-.03-.96.04-.5.02.55.1-.5-.2.19.1-.5-.33.11.08-.5-.4-.35-.3.04.04-.36-.32.2.23-.22-.33.05.07-.36-.64.02.05-.27-.56-.03-.06-.37-.64-.07-.1-.4-.52.13.23-.19-.47a.94.94 0 0 0-.35-.45l-.4-.26.08.06-.26-.22a.93.93 0 0 0-.6-.21h-.52a.9.9 0 0 0-.6.25l-.25.23.4-.21-.4.1a.91.91 0 0 0-.61.5l-.16.33.26-.33-.42.34-.26.32-.32.65.02-.04-.29.54-.01.02-.33.65v-.02l-.3.56.09-.12-.35.47.11-.13-.43.42.03-.03-.36.32.32-.2-.44.18.4-.08h-.75l.48.12-.42-.21.48.45-.12-.22-.2-.25-.34-.34.3.52-.1-.42c-.08-.3-.28-.56-.55-.7l-.46-.24.55.74-.13-.68-.1-.29-.34-.64.08.2-.19-.65-.13-.3-.32-.46.14.3-.13-.48-.03-.1-.2-.5a.97.97 0 0 0-.29-.4l-.3-.25-.12-.08-.29-.17a.87.87 0 0 0-1.12 1.27ZM99.84 238.13v2.02-.04l-.07 1.12v.03l-.02 1.05v.14l.2 1.42.01.01.24 1.43.01.08.43 1.63V247l.45 1.88v.01l.46 1.8.5 1.9v-.02l.47 1.99v.02l.48 1.8.5 1.8.01.03.5 1.53v.01l.5 1.47-.03-.08.34 1.41v.04l.32 1.13-.02-.06.23 1.09.08.23.4.8-.1-.32.09.86.02.13.17.68-.02-.15.06.66v-.08.48c0 .5.4.9.9.9s.9-.4.9-.9V267.48l-.06-.65-.02-.14-.17-.68.02.13-.08-.85-.05-.2-.28-.85.04.22-.1-1.12-.04-.16-.31-1.14v.03l-.33-1.41-.02-.07-.47-1.48v.01l-.47-1.53-.52-1.77-.49-1.77.01.02-.49-1.98v-.02l-.53-1.9v-.01l-.51-1.78v.01l-.5-1.86-.02-.05-.53-1.6.02.08-.33-1.4v.04l-.24-1.41.01.12-.02-1.05v-.03l-.07-1.12v.04-2.02a.73.73 0 0 0-1.46 0Zm0 0"/><path style="stroke:none;fill-rule:nonzero;fill:#000;fill-opacity:1" d="m96.92 251.08.44.14h.01l.47.14-.12-.04.52.22.06.03.64.23h-.01l.53.19.35.07.65.03h.62l.69.02h.77l.99-.01h.07l.82-.06.16-.02.83-.17.25-.09.77-.35.09-.04.95-.55.19-.13.75-.67.06-.06.63-.67.13-.16.54-.88.5-.82.04-.06.48-.9.02-.04.48-1a1.01 1.01 0 0 0-1.82-.89l-.49 1 .02-.03-.48.9.03-.05-.51.82-.54.88.16-.2-.66.63.06-.05-.78.63.27-.16-1.02.42.14-.05-.81.21.05-.01-.82.17.16-.02-.82.06h.1l-1-.01-.73-.01h-.03l-.69.01-.6.02h-.02l-.65.02.35.04-.55-.14-.1-.03-.66-.11h.04l-.55-.1a1.07 1.07 0 0 0-.5.02l-.47.14h-.01l-.44.14a.73.73 0 0 0 0 1.4ZM113.55 235.19v.76-.07l-.09.98v.06l-.04 1.19-.04 1.48v.02l.01 1.53v.07l.13 1.62v-.03l.09 1.82.01.1.31 2.13.02.07.45 2.07.02.06.62 2.27.03.1.8 2.08-.03-.08.63 2.13.03.08.62 1.66-.03-.08.45 1.49.04.1.46 1.15.5 1.18.06.14.46.8.07.12.48.66c.12.18.3.32.5.42l.7.34.2.07.77.22c.23.07.48.07.72 0l.82-.22.14-.06.83-.34c.23-.1.43-.27.57-.49l.43-.65.02-.03.49-.8.04-.08.4-.77-.04.06.48-.82.45-.77.1-.2.3-.82-.19.34.42-.55-.1.1.34-.34-.5.32.28-.1.23-.1.3-.17-1.5-.2.18.17.3.31-.3-.52.2.65.05.14.36.81-.1-.3.15.98.18 1.14.04.17.32 1-.02-.1.26 1.15.03.1.37 1.02.34.98.03.08.42.96.02.03.48 1a.94.94 0 0 0 1.68-.82l-.49-1 .02.04-.43-.97.03.08-.34-1-.37-1.03.05.26-.07-1.17v-.06l-.14-1.04v.03l-.1-1.13v.02l-.08-1-.08-.33-.32-.83.06.17-.15-.65a1.24 1.24 0 0 0-.34-.62l-.3-.3-.18-.18a1.24 1.24 0 0 0-1.44-.22l-.32.16.25-.1-.29.09c-.2.05-.4.16-.54.3l-.35.34-.1.12-.43.53-.2.34-.32.82.1-.2-.46.76-.49.83-.03.06-.4.76.04-.07-.48.8.02-.04-.43.65.6-.49-.83.34.16-.05-.83.22h.72l-.77-.22.2.07-.71-.34.47.39-.5-.65.06.08-.5-.78.09.16-.54-1.15v.01l-.5-1.12.04.1-.54-1.54-.68-1.63.04.1-.68-2.12-.03-.09-.85-2.06.04.1-.68-2.25.01.05-.5-2.06.01.07-.37-2.13.01.1-.13-1.81v-.06l-.22-1.6v.05l-.1-1.52v.04l-.03-1.48-.04-1.2v-.05l-.1-.98v.07-.76a.73.73 0 1 0-1.47 0ZM222.59 362.86l1.23.09 1.29.03 1.2-.33 1.15-.38 1.1-.22 1.1-.06 1.15-.25 1.22-.17 1.47-.2 1.2-.3 1.12-.14 1.44-.36 1.23-.2 1.31-.3 1.25-.17 1.65-.43 1.48-.37 1.18-.2 1.45-.43 1.44-.54 1.23-.32 1.27-.25 1.14-.34 2.12-.48 1.18-.27 1.33-.34 1.46-.46 1.17-.26 1.23-.25 1.52-.47 1.03-.19 1.14-.33 1.24-.44 1.1-.32 1.08-.23 1.08-.37 1-.25 1.14-.34 1.18-.45 1.2-.3 1.39-.24 1.64-.35 1.7-.34 1.73-.5 1.54-.42 1.73-.32 1.73-.64 1.57-.46 1.75-.6 1.6-.5 1.66-.47 1.66-.48 1.85-.67 2.07-.64 2.2-.7 2.24-.64 2.2-.56 2.19-.66 1.9-.73 1.94-.64 1.9-.72 1.9-.63 2.1-.52 2.34-.66 2.4-.72 2.43-.64 2.39-.66 2.23-.47 2.2-.52 1.98-.5 2.02-.54 2.16-.67 2.18-.53 2.47-.75 2.2-.56 2.55-.46 2.2-.5 2.3-.5 2.3-.68 2-.67 2.16-.7 2.4-.64 2.45-.53 2.66-.66 2.54-.78 2.62-.82 2.36-.77 2.3-.8 2.1-.63 2.32-.84 2.42-.76 2.61-.83 1.4-.46 1.4-.48 2.58-.79 2.55-.88 2.16-.83 2.27-.88 1.91-.64 2.32-.83 2.24-.63 2.58-.83 2.55-.64 2.43-.66 2.09-.47 2.09-.67 1.96-.66 2.13-.7 2.1-.65 2.3-.53 2.3-.66 2.42-.71 2.42-.65 2.31-.84 2.08-.64 2.09-.84 1.9-.63 2.1-.9 2.08-.81 2.36-.75 2.6-.8 1.35-.38 1.38-.43 2.53-1.02 2.54-.96 2.33-1 2.22-1 2.28-.95 2.45-1 2.59-.94 1.38-.52 1.38-.47 2.63-1 2.55-.97 2.33-1 2.3-.8 2.14-.8 2.56-1 1.34-.58 1.3-.57 2.5-.98 2.54-.8 2.36-.83 2.5-.98 2.43-1.15 2.18-1.18 2.23-1.19 2.27-1.12 2.25-1.04 1.28-.55 1.33-.56 1.32-.53 1.31-.5 2.6-.97 2.5-1 2.29-1 2.33-.95 2.59-.99 1.34-.47 1.36-.48 1.45-.48 1.49-.51 1.47-.55 1.44-.53 1.37-.48 1.42-.56 2.52-1.34 2.2-.52 2.48-1.4 2.33-.95 1.34-.65 1.3-.62 1.28-.55 1.3-.57 1.35-.6 1.32-.6 2.44-1.12 2.4-1.04 2.3-1.16 2.22-1 2.13-1 2.08-1 2.25-.94 2.3-1 2.42-1 2.43-.99 2.02-.74 2.16-.92 1.56-.79 1.96-1.05 1.84-1.16 1.76-1.04 1.97-1.12 1.89-1.22 2.07-1.13 2.2-1.32 2.1-1.1 2.12-1.34 1.8-1.18 1.71-1.13 1.46-1 1.69-1.12 1.77-1.12 1.91-1.15 1.89-.92 1.97-1 1.94-.95 2.07-.99 1.97-1 1.95-1.01 1.72-1.2 1.59-1.1 1.8-1.31 1.8-1.23 1.94-1.3 2.16-1.32 2.23-1.1 2.34-1.19 2.28-1.13 2.18-1.05 2.02-1.17 1.97-1.2 1.95-1.16 1.9-1.2 1.91-1.12 1.96-1.31 2.27-1.43 2.11-1.51 2.12-1.47 1.8-1.3 1.69-1.33 1.57-1.35 1.5-1.48 1.3-1.26 1.43-1.4 1.06-1 1.27-1.1 1.34-1.25 1.4-1.06 1.6-1.1 1.57-.95 1.7-1.17 1.53-1.2 1.59-1.1 1.56-.96 1.57-1.2 1.35-1.17 1.24-1.3 1.23-1.06 1.14-1.03 1.3-1.16 1.12-1.04 1.3-.9 1.14-1.01 1.02-.7 1.13-.93 1.93-1.46 1.71-1.28 1.55-1.14 1.74-1.44 1.6-1.3 1.28-1.29 1.48-1.48.8-1 1.07-1.56 1.14-1.4 1.08-1.04 1.05-1.04.97-1.06c.82-.7.93-.79 1.02-.9l.98-1 1.17-.62 1.5-.8 1.3-.79 1.18-.68 1.05-.6c.92-.03 1.44-.43 1.6-1.02-.03.47.38-.12.31-.75-.1-.91-.72-1.4-1.4-1.33-.7.08-1.18.7-1.1 1.38.6 1.22 1.3 1.38 1.83 1.05a1.13 1.13 0 0 0-1.14-1.95l-1.1.9-1.48 1.1-2.05 1.13-1.58.73a.9.9 0 0 0 .75 1.63l1.53-.71 1.32-.52 1.05-.78 1.5-1.02c1.15-.43 1.4-.62 1.56-.88.47-.75.29-1.52-.3-1.88a1.25 1.25 0 0 0-1.72.4l1.05-.39c-.62 0-1 .2-1.24.51-.62-.02-.85.07-1.05.22l-1.45.85-1.21.7-1.32.71-1.04.44-1.16.78-1.3 1.23-1.1 1.02-.96 1.1-1.58 1.59-1.37 1.61-1.07 1.56-1.08 1.37-1.34 1.32-1.2 1.26-1.45 1.3-1.58 1.39-1.56 1.23-1.71 1.38-1.8 1.43-1.14.96-1.05.74-1.13 1.03-1.3.9-1.22 1.11-1.3 1.15-1.13 1.02-1.3 1.12-1.23 1.29-1.23 1.06-1.43 1.1-1.52.92-1.7 1.16-1.52 1.2-1.59 1.1-1.56.97-1.7 1.16-1.51 1.18-1.38 1.29-1.27 1.11-1.11 1.06-1.43 1.45-1.26 1.3-1.43 1.45-1.47 1.29-1.6 1.28-1.75 1.29-2.11 1.45-2.08 1.48-2.25 1.41-1.92 1.3-1.9 1.1-1.91 1.2-1.93 1.15-1.97 1.2-1.94 1.11-2.11 1.01-2.3 1.14-2.35 1.2-2.29 1.18-2.24 1.43-1.97 1.31-1.83 1.26-1.8 1.32-1.58 1.1-1.61 1.14-1.83.97-1.93.99-2.05.98-1.96.97-1.97 1-1.94.97-2 1.2-1.8 1.15-1.72 1.14-1.45 1-1.69 1.13-1.77 1.16-2.06 1.3-2.07 1.1-2.22 1.33-2.1 1.14-1.9 1.23-1.94 1.1-1.8 1.06-1.8 1.15-1.88 1.03-1.48.75-2.07.9-2 .75-2.45 1-2.44.91-2.34 1.01-2.28.97-2.11 1-2.12 1-2.23 1.01-2.3 1.15-2.36 1.03-2.46 1.16-1.3.65-1.31.58-1.3.56-1.3.57-1.33.64-1.3.61-2.4.97-2.35 1.35-2.18.5-2.64 1.4-1.27.4-1.4.49-1.46.55-1.44.54-1.46.5-1.46.48-1.38.48-1.36.49-2.63 1-2.37.97-2.29 1-2.44.99-2.58.95-1.34.52-1.35.55-1.35.57-1.31.57-2.29 1.06-2.31 1.14-2.26 1.2-2.14 1.18-2.33 1.11-2.4.94-2.3.81-2.58.81-2.59 1.02-1.33.58-1.3.56-2.52.98-2.12.79-2.33.82-2.36 1.01-2.5.95-2.62 1-1.37.47-1.4.51-2.6.96-2.5 1-2.3.97-2.24 1-2.28 1-2.52.94-2.48 1-1.3.4-1.34.4-2.61.8-2.42.76-2.18.85-2.05.89-1.88.62-2.06.85-2.05.63-2.29.83-2.36.63-2.43.72-2.26.65-2.3.52-2.2.67-2.14.72-1.96.65-2 .65-2.05.46-2.45.66-2.59.65-2.6.83-2.27.65-2.36.84-1.94.64-2.3.9-2.13.82-2.5.87-2.57.78-1.42.5-1.37.44-2.6.81-2.47.76-2.3.84-2.09.64-2.32.8-2.34.77-2.6.81-2.49.77-2.59.64-2.46.53-2.48.66-2.23.72-1.96.65-2.21.63-2.25.5-2.18.48-2.57.47-2.3.58-2.44.57-2.24.53-2.2.66-1.98.53-1.93.47-2.17.5-2.28.47-2.44.67-2.46.64-2.41.72-2.29.65-2.14.53-2.04.67-1.89.73-1.93.63-1.9.73-2.05.63-2.2.55-2.29.68-2.21.72-2.11.65-1.84.67-1.58.46-1.69.49-1.64.52-1.73.6-1.6.48-1.63.62-1.64.29-1.64.44-1.66.49-1.62.32-1.62.34-1.44.25-1.39.36-1.2.46-1.07.3-1.1.28-1.98.57-1.22.35-1.25.45-1.08.34-1.06.2-1.42.46-1.14.23-1.27.3-1.48.42-1.28.33-1.19.28-1.17.32-1.06.18-1.6.4-1.52.43-1.48.53-1.1.33-1.1.16-1.66.43-1.48.37-1.18.2-1.32.28-1.23.21-1.63.4-1.32.35-1.09.2-1.19.32-1.08-.03-1.12.29-1.17.25-1.24.03-1.02.34-1.08.4-1.09.23-1.2.04c-1.22.1-1.52.47-1.48.88Zm0 0"/></svg>