<?xml version="1.0" encoding="utf-8" standalone="no"?>
<!DOCTYPE svg PUBLIC "-//W3C//DTD SVG 1.1//EN"
  "http://www.w3.org/Graphics/SVG/1.1/DTD/svg11.dtd">
<svg height="432pt" version="1.1" viewBox="0 0 720 432" width="720pt" xmlns="http://www.w3.org/2000/svg" xmlns:xlink="http://www.w3.org/1999/xlink">
 <metadata>
  <rdf:RDF xmlns:cc="http://creativecommons.org/ns#" xmlns:dc="http://purl.org/dc/elements/1.1/" xmlns:rdf="http://www.w3.org/1999/02/22-rdf-syntax-ns#">
   <cc:Work>
    <dc:type rdf:resource="http://purl.org/dc/dcmitype/StillImage"/>
    <dc:date>2022-02-22T14:15:52.031077</dc:date>
    <dc:format>image/svg+xml</dc:format>
    <dc:creator>
     <cc:Agent>
      <dc:title>Matplotlib v3.4.1, https://matplotlib.org/</dc:title>
     </cc:Agent>
    </dc:creator>
   </cc:Work>
  </rdf:RDF>
 </metadata>
 <defs>
  <style type="text/css">*{stroke-linecap:butt;stroke-linejoin:round;}</style>
 </defs>
 <g id="figure_1">
  <g id="patch_1">
   <path d="M 0 432 
L 720 432 
L 720 0 
L 0 0 
z
" style="fill:#ffffff;"/>
  </g>
  <g id="axes_1">
   <g id="patch_2">
    <path d="M 122.42 348.58 
L 628.047308 348.58 
L 628.047308 34.42 
L 122.42 34.42 
z
" style="fill:#ffffff;"/>
   </g>
   <g id="matplotlib.axis_1">
    <g id="xtick_1">
     <g id="text_1">
      <!-- 1300 -->
      <g style="fill:#262626;" transform="translate(136.574721 374.404687)scale(0.22 -0.22)">
       <defs>
        <path d="M 1574 4480 
L 1574 0 
L 1114 0 
L 1114 4070 
L 58 4070 
L 58 4480 
L 1574 4480 
z
" id="Montserrat-Regular-31" transform="scale(0.015625)"/>
        <path d="M 1856 2560 
Q 2560 2522 2928 2179 
Q 3296 1837 3296 1286 
Q 3296 902 3110 604 
Q 2925 307 2560 134 
Q 2195 -38 1670 -38 
Q 1184 -38 752 118 
Q 320 275 58 538 
L 282 902 
Q 506 672 877 528 
Q 1248 384 1670 384 
Q 2221 384 2521 624 
Q 2822 864 2822 1286 
Q 2822 1702 2521 1939 
Q 2221 2176 1613 2176 
L 1293 2176 
L 1293 2515 
L 2534 4070 
L 243 4070 
L 243 4480 
L 3123 4480 
L 3123 4154 
L 1856 2560 
z
" id="Montserrat-Regular-33" transform="scale(0.015625)"/>
        <path d="M 2118 -38 
Q 1600 -38 1193 237 
Q 787 512 560 1027 
Q 333 1542 333 2240 
Q 333 2938 560 3453 
Q 787 3968 1193 4243 
Q 1600 4518 2118 4518 
Q 2637 4518 3043 4243 
Q 3450 3968 3680 3453 
Q 3910 2938 3910 2240 
Q 3910 1542 3680 1027 
Q 3450 512 3043 237 
Q 2637 -38 2118 -38 
z
M 2118 384 
Q 2509 384 2806 601 
Q 3104 819 3270 1235 
Q 3437 1651 3437 2240 
Q 3437 2829 3270 3245 
Q 3104 3661 2806 3878 
Q 2509 4096 2118 4096 
Q 1728 4096 1430 3878 
Q 1133 3661 966 3245 
Q 800 2829 800 2240 
Q 800 1651 966 1235 
Q 1133 819 1430 601 
Q 1728 384 2118 384 
z
" id="Montserrat-Regular-30" transform="scale(0.015625)"/>
       </defs>
       <use xlink:href="#Montserrat-Regular-31"/>
       <use x="36.099991" xlink:href="#Montserrat-Regular-33"/>
       <use x="92.499985" xlink:href="#Montserrat-Regular-30"/>
       <use x="158.699982" xlink:href="#Montserrat-Regular-30"/>
      </g>
     </g>
    </g>
    <g id="xtick_2">
     <g id="text_2">
      <!-- 1400 -->
      <g style="fill:#262626;" transform="translate(213.297912 374.404687)scale(0.22 -0.22)">
       <defs>
        <path d="M 4141 1178 
L 3245 1178 
L 3245 0 
L 2784 0 
L 2784 1178 
L 256 1178 
L 256 1510 
L 2630 4480 
L 3142 4480 
L 851 1587 
L 2797 1587 
L 2797 2624 
L 3245 2624 
L 3245 1587 
L 4141 1587 
L 4141 1178 
z
" id="Montserrat-Regular-34" transform="scale(0.015625)"/>
       </defs>
       <use xlink:href="#Montserrat-Regular-31"/>
       <use x="36.099991" xlink:href="#Montserrat-Regular-34"/>
       <use x="102.199982" xlink:href="#Montserrat-Regular-30"/>
       <use x="168.399979" xlink:href="#Montserrat-Regular-30"/>
      </g>
     </g>
    </g>
    <g id="xtick_3">
     <g id="text_3">
      <!-- 1500 -->
      <g style="fill:#262626;" transform="translate(292.131729 374.404687)scale(0.22 -0.22)">
       <defs>
        <path d="M 1510 2643 
Q 2483 2643 2928 2294 
Q 3373 1946 3373 1318 
Q 3373 928 3190 621 
Q 3008 314 2643 138 
Q 2278 -38 1747 -38 
Q 1267 -38 835 118 
Q 403 275 141 538 
L 365 902 
Q 589 672 953 528 
Q 1318 384 1741 384 
Q 2298 384 2602 633 
Q 2906 883 2906 1299 
Q 2906 1760 2563 1997 
Q 2221 2234 1408 2234 
L 454 2234 
L 685 4480 
L 3136 4480 
L 3136 4070 
L 1088 4070 
L 934 2643 
L 1510 2643 
z
" id="Montserrat-Regular-35" transform="scale(0.015625)"/>
       </defs>
       <use xlink:href="#Montserrat-Regular-31"/>
       <use x="36.099991" xlink:href="#Montserrat-Regular-35"/>
       <use x="92.699982" xlink:href="#Montserrat-Regular-30"/>
       <use x="158.899979" xlink:href="#Montserrat-Regular-30"/>
      </g>
     </g>
    </g>
    <g id="xtick_4">
     <g id="text_4">
      <!-- 1600 -->
      <g style="fill:#262626;" transform="translate(369.44617 374.404687)scale(0.22 -0.22)">
       <defs>
        <path d="M 2189 2682 
Q 2630 2682 2972 2515 
Q 3315 2349 3507 2045 
Q 3699 1741 3699 1338 
Q 3699 928 3500 614 
Q 3302 301 2953 131 
Q 2605 -38 2170 -38 
Q 1280 -38 806 547 
Q 333 1133 333 2202 
Q 333 2950 589 3468 
Q 845 3987 1305 4252 
Q 1766 4518 2381 4518 
Q 3046 4518 3443 4275 
L 3258 3904 
Q 2938 4115 2387 4115 
Q 1645 4115 1222 3644 
Q 800 3174 800 2278 
Q 800 2118 819 1914 
Q 986 2278 1350 2480 
Q 1715 2682 2189 2682 
z
M 2150 352 
Q 2637 352 2941 617 
Q 3245 883 3245 1325 
Q 3245 1766 2941 2028 
Q 2637 2291 2118 2291 
Q 1779 2291 1520 2163 
Q 1261 2035 1113 1811 
Q 966 1587 966 1312 
Q 966 1056 1104 838 
Q 1242 621 1510 486 
Q 1779 352 2150 352 
z
" id="Montserrat-Regular-36" transform="scale(0.015625)"/>
       </defs>
       <use xlink:href="#Montserrat-Regular-31"/>
       <use x="36.099991" xlink:href="#Montserrat-Regular-36"/>
       <use x="96.999985" xlink:href="#Montserrat-Regular-30"/>
       <use x="163.199982" xlink:href="#Montserrat-Regular-30"/>
      </g>
     </g>
    </g>
    <g id="xtick_5">
     <g id="text_5">
      <!-- 1700 -->
      <g style="fill:#262626;" transform="translate(447.454987 374.404687)scale(0.22 -0.22)">
       <defs>
        <path d="M 3494 4480 
L 3494 4154 
L 1619 0 
L 1120 0 
L 2963 4070 
L 659 4070 
L 659 3232 
L 205 3232 
L 205 4480 
L 3494 4480 
z
" id="Montserrat-Regular-37" transform="scale(0.015625)"/>
       </defs>
       <use xlink:href="#Montserrat-Regular-31"/>
       <use x="36.099991" xlink:href="#Montserrat-Regular-37"/>
       <use x="94.999985" xlink:href="#Montserrat-Regular-30"/>
       <use x="161.199982" xlink:href="#Montserrat-Regular-30"/>
      </g>
     </g>
    </g>
    <g id="xtick_6">
     <g id="text_6">
      <!-- 1800 -->
      <g style="fill:#262626;" transform="translate(524.705835 374.404687)scale(0.22 -0.22)">
       <defs>
        <path d="M 2899 2349 
Q 3322 2208 3549 1926 
Q 3776 1645 3776 1248 
Q 3776 858 3565 566 
Q 3354 275 2960 118 
Q 2566 -38 2035 -38 
Q 1229 -38 768 307 
Q 307 653 307 1248 
Q 307 1651 528 1929 
Q 749 2208 1171 2349 
Q 826 2483 646 2736 
Q 467 2989 467 3334 
Q 467 3878 892 4198 
Q 1318 4518 2035 4518 
Q 2509 4518 2864 4374 
Q 3219 4230 3417 3961 
Q 3616 3693 3616 3334 
Q 3616 2989 3430 2736 
Q 3245 2483 2899 2349 
z
M 928 3322 
Q 928 2950 1222 2732 
Q 1517 2515 2035 2515 
Q 2554 2515 2851 2732 
Q 3149 2950 3149 3315 
Q 3149 3693 2845 3910 
Q 2541 4128 2035 4128 
Q 1523 4128 1225 3910 
Q 928 3693 928 3322 
z
M 2035 352 
Q 2630 352 2966 595 
Q 3302 838 3302 1254 
Q 3302 1670 2966 1910 
Q 2630 2150 2035 2150 
Q 1446 2150 1110 1910 
Q 774 1670 774 1254 
Q 774 832 1107 592 
Q 1440 352 2035 352 
z
" id="Montserrat-Regular-38" transform="scale(0.015625)"/>
       </defs>
       <use xlink:href="#Montserrat-Regular-31"/>
       <use x="36.099991" xlink:href="#Montserrat-Regular-38"/>
       <use x="99.899979" xlink:href="#Montserrat-Regular-30"/>
       <use x="166.099976" xlink:href="#Montserrat-Regular-30"/>
      </g>
     </g>
    </g>
    <g id="text_7">
     <!-- year -->
     <g style="fill:#262626;" transform="translate(349.589279 400.362812)scale(0.24 -0.24)">
      <defs>
       <path d="M 3462 3366 
L 1779 -403 
Q 1574 -877 1305 -1075 
Q 1037 -1274 659 -1274 
Q 416 -1274 205 -1197 
Q -6 -1120 -160 -966 
L 51 -627 
Q 307 -883 666 -883 
Q 896 -883 1059 -755 
Q 1222 -627 1363 -320 
L 1510 6 
L 6 3366 
L 480 3366 
L 1747 506 
L 3014 3366 
L 3462 3366 
z
" id="Montserrat-Regular-79" transform="scale(0.015625)"/>
       <path d="M 3565 1542 
L 749 1542 
Q 787 1018 1152 694 
Q 1517 371 2074 371 
Q 2387 371 2649 483 
Q 2912 595 3104 813 
L 3360 518 
Q 3136 250 2800 109 
Q 2464 -32 2061 -32 
Q 1542 -32 1142 189 
Q 742 410 518 800 
Q 294 1190 294 1683 
Q 294 2176 508 2566 
Q 723 2957 1097 3174 
Q 1472 3392 1939 3392 
Q 2406 3392 2777 3174 
Q 3149 2957 3360 2569 
Q 3571 2182 3571 1683 
L 3565 1542 
z
M 1939 3002 
Q 1453 3002 1123 2691 
Q 794 2381 749 1882 
L 3136 1882 
Q 3091 2381 2761 2691 
Q 2432 3002 1939 3002 
z
" id="Montserrat-Regular-65" transform="scale(0.015625)"/>
       <path d="M 1811 3392 
Q 2470 3392 2822 3062 
Q 3174 2733 3174 2086 
L 3174 0 
L 2739 0 
L 2739 525 
Q 2586 262 2288 115 
Q 1990 -32 1581 -32 
Q 1018 -32 685 237 
Q 352 506 352 947 
Q 352 1376 662 1638 
Q 973 1901 1651 1901 
L 2720 1901 
L 2720 2106 
Q 2720 2541 2477 2768 
Q 2234 2995 1766 2995 
Q 1446 2995 1152 2889 
Q 858 2784 646 2598 
L 442 2938 
Q 698 3155 1056 3273 
Q 1414 3392 1811 3392 
z
M 1651 326 
Q 2035 326 2310 502 
Q 2586 678 2720 1011 
L 2720 1562 
L 1664 1562 
Q 800 1562 800 960 
Q 800 666 1024 496 
Q 1248 326 1651 326 
z
" id="Montserrat-Regular-61" transform="scale(0.015625)"/>
       <path d="M 1069 2707 
Q 1229 3046 1545 3219 
Q 1862 3392 2330 3392 
L 2330 2950 
L 2221 2957 
Q 1690 2957 1389 2630 
Q 1088 2304 1088 1715 
L 1088 0 
L 634 0 
L 634 3366 
L 1069 3366 
L 1069 2707 
z
" id="Montserrat-Regular-72" transform="scale(0.015625)"/>
      </defs>
      <use xlink:href="#Montserrat-Regular-79"/>
      <use x="54.199997" xlink:href="#Montserrat-Regular-65"/>
      <use x="114.599991" xlink:href="#Montserrat-Regular-61"/>
      <use x="173.599976" xlink:href="#Montserrat-Regular-72"/>
     </g>
    </g>
   </g>
   <g id="matplotlib.axis_2">
    <g id="ytick_1">
     <g id="text_8">
      <!-- 0 -->
      <g style="fill:#262626;" transform="translate(98.355313 356.742344)scale(0.22 -0.22)">
       <use xlink:href="#Montserrat-Regular-30"/>
      </g>
     </g>
    </g>
    <g id="ytick_2">
     <g id="text_9">
      <!-- 1000 -->
      <g style="fill:#262626;" transform="translate(61.285313 293.910344)scale(0.22 -0.22)">
       <use xlink:href="#Montserrat-Regular-31"/>
       <use x="36.099991" xlink:href="#Montserrat-Regular-30"/>
       <use x="102.299988" xlink:href="#Montserrat-Regular-30"/>
       <use x="168.499985" xlink:href="#Montserrat-Regular-30"/>
      </g>
     </g>
    </g>
    <g id="ytick_3">
     <g id="text_10">
      <!-- 2000 -->
      <g style="fill:#262626;" transform="translate(56.730625 231.078344)scale(0.22 -0.22)">
       <defs>
        <path d="M 3392 410 
L 3392 0 
L 250 0 
L 250 326 
L 2112 2150 
Q 2464 2496 2589 2749 
Q 2714 3002 2714 3258 
Q 2714 3654 2442 3875 
Q 2170 4096 1664 4096 
Q 877 4096 442 3597 
L 115 3878 
Q 378 4186 784 4352 
Q 1190 4518 1702 4518 
Q 2387 4518 2787 4195 
Q 3187 3872 3187 3309 
Q 3187 2963 3033 2643 
Q 2880 2323 2451 1907 
L 928 410 
L 3392 410 
z
" id="Montserrat-Regular-32" transform="scale(0.015625)"/>
       </defs>
       <use xlink:href="#Montserrat-Regular-32"/>
       <use x="56.799988" xlink:href="#Montserrat-Regular-30"/>
       <use x="122.999985" xlink:href="#Montserrat-Regular-30"/>
       <use x="189.199982" xlink:href="#Montserrat-Regular-30"/>
      </g>
     </g>
    </g>
    <g id="ytick_4">
     <g id="text_11">
      <!-- 3000 -->
      <g style="fill:#262626;" transform="translate(56.816563 168.246344)scale(0.22 -0.22)">
       <use xlink:href="#Montserrat-Regular-33"/>
       <use x="56.399994" xlink:href="#Montserrat-Regular-30"/>
       <use x="122.599991" xlink:href="#Montserrat-Regular-30"/>
       <use x="188.799988" xlink:href="#Montserrat-Regular-30"/>
      </g>
     </g>
    </g>
    <g id="ytick_5">
     <g id="text_12">
      <!-- 4000 -->
      <g style="fill:#262626;" transform="translate(54.685313 105.414344)scale(0.22 -0.22)">
       <use xlink:href="#Montserrat-Regular-34"/>
       <use x="66.099991" xlink:href="#Montserrat-Regular-30"/>
       <use x="132.299988" xlink:href="#Montserrat-Regular-30"/>
       <use x="198.499985" xlink:href="#Montserrat-Regular-30"/>
      </g>
     </g>
    </g>
    <g id="ytick_6">
     <g id="text_13">
      <!-- 5000 -->
      <g style="fill:#262626;" transform="translate(56.775313 42.582344)scale(0.22 -0.22)">
       <use xlink:href="#Montserrat-Regular-35"/>
       <use x="56.599991" xlink:href="#Montserrat-Regular-30"/>
       <use x="122.799988" xlink:href="#Montserrat-Regular-30"/>
       <use x="188.999985" xlink:href="#Montserrat-Regular-30"/>
      </g>
     </g>
    </g>
    <g id="text_14">
     <!-- GDP per capita ($) -->
     <g style="fill:#262626;" transform="translate(46.027813 301.36)rotate(-90)scale(0.24 -0.24)">
      <defs>
       <path d="M 3885 2240 
L 4339 2240 
L 4339 531 
Q 4026 256 3597 109 
Q 3168 -38 2694 -38 
Q 2022 -38 1484 256 
Q 947 550 640 1072 
Q 333 1594 333 2240 
Q 333 2886 640 3408 
Q 947 3930 1484 4224 
Q 2022 4518 2701 4518 
Q 3213 4518 3641 4355 
Q 4070 4192 4365 3872 
L 4070 3571 
Q 3539 4096 2720 4096 
Q 2176 4096 1737 3856 
Q 1299 3616 1049 3190 
Q 800 2765 800 2240 
Q 800 1715 1049 1292 
Q 1299 870 1734 627 
Q 2170 384 2714 384 
Q 3405 384 3885 730 
L 3885 2240 
z
" id="Montserrat-Regular-47" transform="scale(0.015625)"/>
       <path d="M 730 4480 
L 2554 4480 
Q 3264 4480 3808 4195 
Q 4352 3910 4653 3401 
Q 4954 2893 4954 2240 
Q 4954 1587 4653 1078 
Q 4352 570 3808 285 
Q 3264 0 2554 0 
L 730 0 
L 730 4480 
z
M 2528 410 
Q 3117 410 3558 643 
Q 4000 877 4243 1289 
Q 4486 1702 4486 2240 
Q 4486 2778 4243 3190 
Q 4000 3603 3558 3836 
Q 3117 4070 2528 4070 
L 1203 4070 
L 1203 410 
L 2528 410 
z
" id="Montserrat-Regular-44" transform="scale(0.015625)"/>
       <path d="M 2406 4480 
Q 3264 4480 3750 4070 
Q 4237 3661 4237 2944 
Q 4237 2227 3750 1820 
Q 3264 1414 2406 1414 
L 1203 1414 
L 1203 0 
L 730 0 
L 730 4480 
L 2406 4480 
z
M 2394 1830 
Q 3059 1830 3411 2121 
Q 3763 2413 3763 2944 
Q 3763 3488 3411 3779 
Q 3059 4070 2394 4070 
L 1203 4070 
L 1203 1830 
L 2394 1830 
z
" id="Montserrat-Regular-50" transform="scale(0.015625)"/>
       <path id="Montserrat-Regular-20" transform="scale(0.015625)"/>
       <path d="M 2368 3392 
Q 2842 3392 3226 3177 
Q 3610 2963 3827 2572 
Q 4045 2182 4045 1683 
Q 4045 1178 3827 787 
Q 3610 397 3229 182 
Q 2848 -32 2368 -32 
Q 1958 -32 1628 137 
Q 1299 307 1088 634 
L 1088 -1242 
L 634 -1242 
L 634 3366 
L 1069 3366 
L 1069 2701 
Q 1274 3034 1610 3213 
Q 1946 3392 2368 3392 
z
M 2336 371 
Q 2688 371 2976 534 
Q 3264 698 3427 998 
Q 3590 1299 3590 1683 
Q 3590 2067 3427 2364 
Q 3264 2662 2976 2828 
Q 2688 2995 2336 2995 
Q 1978 2995 1693 2828 
Q 1408 2662 1245 2364 
Q 1082 2067 1082 1683 
Q 1082 1299 1245 998 
Q 1408 698 1693 534 
Q 1978 371 2336 371 
z
" id="Montserrat-Regular-70" transform="scale(0.015625)"/>
       <path d="M 2029 -32 
Q 1530 -32 1136 185 
Q 742 403 518 796 
Q 294 1190 294 1683 
Q 294 2176 518 2566 
Q 742 2957 1136 3174 
Q 1530 3392 2029 3392 
Q 2464 3392 2806 3222 
Q 3149 3053 3347 2726 
L 3008 2496 
Q 2842 2746 2586 2870 
Q 2330 2995 2029 2995 
Q 1664 2995 1373 2832 
Q 1082 2669 918 2368 
Q 755 2067 755 1683 
Q 755 1293 918 995 
Q 1082 698 1373 534 
Q 1664 371 2029 371 
Q 2330 371 2586 492 
Q 2842 614 3008 864 
L 3347 634 
Q 3149 307 2803 137 
Q 2458 -32 2029 -32 
z
" id="Montserrat-Regular-63" transform="scale(0.015625)"/>
       <path d="M 634 3366 
L 1088 3366 
L 1088 0 
L 634 0 
L 634 3366 
z
M 864 4102 
Q 723 4102 627 4198 
Q 531 4294 531 4429 
Q 531 4557 627 4653 
Q 723 4749 864 4749 
Q 1005 4749 1101 4656 
Q 1197 4563 1197 4435 
Q 1197 4294 1101 4198 
Q 1005 4102 864 4102 
z
" id="Montserrat-Regular-69" transform="scale(0.015625)"/>
       <path d="M 2406 205 
Q 2278 90 2089 29 
Q 1901 -32 1696 -32 
Q 1222 -32 966 224 
Q 710 480 710 947 
L 710 2982 
L 109 2982 
L 109 3366 
L 710 3366 
L 710 4102 
L 1165 4102 
L 1165 3366 
L 2189 3366 
L 2189 2982 
L 1165 2982 
L 1165 973 
Q 1165 672 1315 515 
Q 1466 358 1747 358 
Q 1888 358 2019 403 
Q 2150 448 2246 531 
L 2406 205 
z
" id="Montserrat-Regular-74" transform="scale(0.015625)"/>
       <path d="M 1408 -1242 
Q 1050 -653 858 112 
Q 666 877 666 1754 
Q 666 2630 858 3401 
Q 1050 4173 1408 4749 
L 1843 4749 
Q 1466 4102 1290 3360 
Q 1114 2618 1114 1754 
Q 1114 890 1290 147 
Q 1466 -595 1843 -1242 
L 1408 -1242 
z
" id="Montserrat-Regular-28" transform="scale(0.015625)"/>
       <path d="M 3635 1184 
Q 3635 691 3257 348 
Q 2880 6 2150 -32 
L 2150 -768 
L 1830 -768 
L 1830 -38 
Q 1363 -13 950 144 
Q 538 301 301 544 
L 486 909 
Q 710 691 1072 544 
Q 1434 397 1830 371 
L 1830 2054 
Q 1389 2163 1094 2288 
Q 800 2413 605 2653 
Q 410 2893 410 3290 
Q 410 3782 768 4118 
Q 1126 4454 1830 4512 
L 1830 5248 
L 2150 5248 
L 2150 4518 
Q 2515 4506 2857 4400 
Q 3200 4294 3450 4122 
L 3290 3744 
Q 3027 3910 2732 4006 
Q 2438 4102 2150 4115 
L 2150 2419 
Q 2624 2304 2925 2185 
Q 3226 2067 3430 1824 
Q 3635 1581 3635 1184 
z
M 877 3302 
Q 877 2970 1123 2797 
Q 1370 2624 1830 2502 
L 1830 4102 
Q 1357 4064 1117 3843 
Q 877 3622 877 3302 
z
M 2150 371 
Q 2656 410 2912 621 
Q 3168 832 3168 1158 
Q 3168 1504 2905 1677 
Q 2643 1850 2150 1971 
L 2150 371 
z
" id="Montserrat-Regular-24" transform="scale(0.015625)"/>
       <path d="M 256 -1242 
Q 634 -595 813 144 
Q 992 883 992 1754 
Q 992 2624 813 3363 
Q 634 4102 256 4749 
L 691 4749 
Q 1050 4173 1245 3401 
Q 1440 2630 1440 1754 
Q 1440 877 1248 109 
Q 1056 -659 691 -1242 
L 256 -1242 
z
" id="Montserrat-Regular-29" transform="scale(0.015625)"/>
      </defs>
      <use xlink:href="#Montserrat-Regular-47"/>
      <use x="77.299988" xlink:href="#Montserrat-Regular-44"/>
      <use x="159.899979" xlink:href="#Montserrat-Regular-50"/>
      <use x="231.699966" xlink:href="#Montserrat-Regular-20"/>
      <use x="257.899963" xlink:href="#Montserrat-Regular-70"/>
      <use x="325.699951" xlink:href="#Montserrat-Regular-65"/>
      <use x="386.099945" xlink:href="#Montserrat-Regular-72"/>
      <use x="426.199936" xlink:href="#Montserrat-Regular-20"/>
      <use x="452.399933" xlink:href="#Montserrat-Regular-63"/>
      <use x="508.699921" xlink:href="#Montserrat-Regular-61"/>
      <use x="567.699905" xlink:href="#Montserrat-Regular-70"/>
      <use x="635.499893" xlink:href="#Montserrat-Regular-69"/>
      <use x="662.399887" xlink:href="#Montserrat-Regular-74"/>
      <use x="702.999878" xlink:href="#Montserrat-Regular-61"/>
      <use x="761.999863" xlink:href="#Montserrat-Regular-20"/>
      <use x="788.19986" xlink:href="#Montserrat-Regular-28"/>
      <use x="821.099854" xlink:href="#Montserrat-Regular-24"/>
      <use x="882.599838" xlink:href="#Montserrat-Regular-29"/>
     </g>
    </g>
   </g>
   <g id="line2d_1">
    <path clip-path="url(#p00a4097b5d)" d="M 145.756645 265.578928 
L 146.534533 267.303317 
L 147.312421 268.755435 
L 148.090309 269.721961 
L 148.868198 270.086801 
L 149.646086 269.873224 
L 150.423974 269.205601 
L 152.757638 266.449785 
L 153.535527 265.83491 
L 154.313415 265.602458 
L 155.091303 265.868783 
L 155.869191 266.611907 
L 156.647079 267.517929 
L 157.424967 268.048251 
L 158.202856 267.720387 
L 158.980744 266.396778 
L 159.758632 264.308842 
L 163.648073 251.773729 
L 165.203849 246.033263 
L 166.759625 240.309087 
L 167.537514 238.168662 
L 168.315402 236.723784 
L 169.09329 235.999277 
L 169.871178 235.958941 
L 170.649066 236.590622 
L 171.426954 237.751333 
L 172.982731 240.477673 
L 173.760619 241.453509 
L 175.316395 242.893215 
L 176.872172 244.825234 
L 177.65006 245.501906 
L 178.427948 245.485616 
L 179.205836 244.761109 
L 180.761612 242.711183 
L 181.539501 242.367288 
L 182.317389 242.810473 
L 183.095277 243.916368 
L 184.651053 246.648138 
L 185.428941 247.379626 
L 186.20683 247.252669 
L 186.984718 246.257183 
L 188.540494 243.129287 
L 189.318382 241.952545 
L 190.09627 241.423256 
L 190.874159 241.509876 
L 193.207823 243.050682 
L 193.985711 243.225474 
L 194.763599 242.995608 
L 195.541488 242.230505 
L 196.319376 240.840961 
L 197.097264 238.880758 
L 198.65304 234.370817 
L 199.430928 232.511196 
L 200.208817 231.154749 
L 200.986705 230.198824 
L 202.542481 228.809021 
L 203.320369 228.322138 
L 204.098257 228.167256 
L 204.876146 228.468229 
L 205.654034 229.157571 
L 207.20981 230.859982 
L 207.987698 231.43452 
L 208.765586 231.663869 
L 209.543475 231.59147 
L 211.877139 230.976596 
L 213.432915 230.590812 
L 215.76658 229.582398 
L 216.544468 229.617821 
L 217.322356 229.95034 
L 218.878133 231.155266 
L 221.211797 233.072289 
L 222.767573 234.269975 
L 225.879126 237.02786 
L 226.657014 237.218166 
L 227.434902 236.993988 
L 228.212791 236.35636 
L 228.990679 235.366044 
L 231.324343 231.934073 
L 232.102231 231.32437 
L 232.88012 231.129668 
L 234.435896 231.358242 
L 235.991672 231.632065 
L 236.76956 231.972341 
L 237.547449 232.663751 
L 238.325337 233.726207 
L 240.659001 237.496644 
L 241.436889 238.30622 
L 242.214778 238.72872 
L 242.992666 238.806032 
L 244.548442 238.395943 
L 245.32633 238.19064 
L 246.104218 238.111001 
L 247.659995 238.334145 
L 253.105212 239.755752 
L 253.8831 239.821687 
L 254.660988 239.755752 
L 256.216764 239.339457 
L 258.550429 238.691486 
L 260.884093 238.108157 
L 264.773534 236.874788 
L 267.107199 236.404712 
L 269.440863 235.857065 
L 271.774528 235.369923 
L 274.108192 234.681098 
L 275.663969 234.499842 
L 277.219745 234.65912 
L 279.553409 235.196941 
L 281.109186 235.745364 
L 282.664962 236.600965 
L 284.220738 237.702723 
L 287.332291 240.137398 
L 288.110179 240.573343 
L 288.888067 240.864749 
L 289.665956 241.00722 
L 290.443844 241.00722 
L 291.221732 240.860095 
L 291.99962 240.545418 
L 292.777508 240.048968 
L 294.333285 238.745527 
L 295.111173 238.285017 
L 295.889061 238.246232 
L 296.666949 238.73958 
L 297.444837 239.688007 
L 299.000614 241.946339 
L 299.778502 242.714286 
L 300.55639 243.026636 
L 301.334278 242.896835 
L 302.112166 242.424948 
L 304.445831 240.544642 
L 306.001607 239.690593 
L 307.557383 239.166993 
L 309.11316 238.990908 
L 310.668936 239.162338 
L 313.780489 240.032419 
L 315.336265 240.602044 
L 317.66993 241.851703 
L 320.003594 243.134458 
L 321.55937 243.724769 
L 327.004588 244.967188 
L 328.560364 245.392015 
L 330.11614 245.567065 
L 341.006575 245.347024 
L 343.340239 245.402875 
L 344.118127 245.554137 
L 344.896015 245.884328 
L 345.673904 246.429906 
L 348.007568 248.561023 
L 348.785456 249.073505 
L 350.341233 249.738283 
L 351.897009 250.376945 
L 352.674897 250.862536 
L 353.452785 251.546965 
L 355.008562 253.518804 
L 356.564338 255.573902 
L 357.342226 256.344951 
L 358.120114 256.923626 
L 359.675891 257.687436 
L 361.231667 258.039088 
L 362.009555 258.034692 
L 362.787443 257.896359 
L 364.34322 257.256403 
L 365.898996 256.511727 
L 366.676884 256.305649 
L 368.23266 256.292203 
L 369.010549 256.273069 
L 369.788437 256.058199 
L 370.566325 255.590191 
L 373.677878 252.950989 
L 374.455766 252.487377 
L 375.233654 252.16003 
L 376.011542 252.006699 
L 376.78943 252.02273 
L 379.123095 252.413685 
L 379.900983 252.343871 
L 380.678871 252.111936 
L 383.790424 250.664731 
L 385.3462 250.331696 
L 386.901976 249.954187 
L 387.679864 249.52393 
L 389.235641 248.080345 
L 390.013529 247.314467 
L 390.791417 246.760615 
L 391.569305 246.511097 
L 392.347193 246.526611 
L 393.90297 246.794487 
L 395.458746 246.808191 
L 400.126075 246.574963 
L 402.45974 245.997322 
L 404.015516 245.571202 
L 405.571292 245.373398 
L 410.238621 245.347024 
L 418.017503 245.260145 
L 419.573279 244.949864 
L 421.906944 244.428591 
L 425.018496 244.094521 
L 425.796385 243.669177 
L 426.574273 242.932258 
L 428.130049 240.952663 
L 428.907937 240.244445 
L 429.685825 240.069912 
L 430.463714 240.493963 
L 432.01949 242.38125 
L 432.797378 243.269689 
L 433.575266 243.87086 
L 434.353154 244.179073 
L 435.131043 244.277329 
L 436.686819 244.104347 
L 442.132036 242.549836 
L 443.687812 241.516858 
L 445.243589 240.474053 
L 446.799365 239.686197 
L 448.355141 239.166993 
L 449.910918 238.964534 
L 452.244582 238.969188 
L 453.02247 239.062531 
L 453.800359 239.2849 
L 454.578247 239.684387 
L 456.911911 241.390935 
L 457.689799 241.720609 
L 458.467688 241.812401 
L 460.023464 241.530303 
L 461.57924 241.224159 
L 463.912905 241.141417 
L 465.468681 241.224159 
L 467.024457 241.560814 
L 469.358122 242.473042 
L 470.913898 243.214356 
L 471.691786 243.804149 
L 473.247563 245.578442 
L 474.025451 246.474897 
L 474.803339 247.130367 
L 475.581227 247.49986 
L 476.359115 247.606907 
L 477.137004 247.516667 
L 477.914892 247.252669 
L 479.470668 246.326738 
L 481.026444 245.260921 
L 482.582221 244.550893 
L 484.137997 244.007384 
L 484.915885 243.555666 
L 485.693773 242.900455 
L 488.027438 240.482586 
L 488.805326 240.037332 
L 489.583214 239.948643 
L 490.361102 240.155498 
L 491.916879 240.784076 
L 492.694767 240.915429 
L 493.472655 240.867594 
L 496.584208 240.131968 
L 497.362096 240.136105 
L 498.139984 240.277542 
L 498.917872 240.566362 
L 500.473649 241.549179 
L 502.807313 243.34183 
L 503.585201 243.773121 
L 504.363089 244.04591 
L 505.140978 244.141839 
L 505.918866 244.076421 
L 509.030418 243.3364 
L 509.808307 243.3364 
L 511.364083 243.657541 
L 513.697747 244.268796 
L 516.031412 244.734735 
L 517.587188 245.021228 
L 518.365076 244.947019 
L 519.142964 244.657165 
L 520.698741 243.557476 
L 522.254517 242.314798 
L 523.032405 241.87756 
L 523.810293 241.656226 
L 524.588182 241.647693 
L 526.921846 241.968834 
L 527.699734 241.902124 
L 529.255511 241.441356 
L 530.811287 240.875092 
L 531.589175 240.710643 
L 533.92284 240.607216 
L 534.700728 240.299779 
L 535.478616 239.695247 
L 538.590169 236.335674 
L 539.368057 235.825261 
L 540.145945 235.7027 
L 540.923833 236.066763 
L 541.701721 236.801872 
M 565.816254 234.916912 
" style="fill:none;stroke:#395684;stroke-linecap:round;stroke-opacity:0.9;stroke-width:1.5;"/>
   </g>
   <g id="line2d_2">
    <path clip-path="url(#p00a4097b5d)" d="M -1 274.808266 
L 123.975776 272.254117 
L 124.753664 269.32868 
L 125.531553 267.898541 
L 126.309441 267.552835 
L 128.643105 267.932413 
L 129.420993 268.28691 
L 130.198882 268.993576 
L 131.754658 270.810015 
L 132.532546 271.223207 
L 133.310434 270.919648 
L 134.866211 269.298169 
L 135.644099 269.261193 
L 136.421987 270.090421 
L 137.977763 272.573707 
L 138.755651 273.406813 
L 139.53354 273.803456 
L 140.311428 273.816384 
L 141.867204 273.262015 
L 142.645092 273.337775 
L 143.42298 274.10598 
L 144.200869 275.563528 
L 145.756645 279.112631 
L 146.534533 280.471146 
L 147.312421 281.42733 
L 148.090309 282.018417 
L 148.868198 282.246732 
L 151.201862 282.05746 
L 151.97975 282.532708 
L 152.757638 283.182748 
L 153.535527 283.541382 
L 154.313415 283.240667 
L 155.091303 282.226047 
L 156.647079 278.954128 
L 157.424967 277.290761 
L 158.202856 275.972582 
L 158.980744 275.138959 
L 159.758632 274.767656 
L 162.870185 274.227766 
L 163.648073 274.399713 
L 165.203849 275.086211 
L 165.981737 274.972441 
L 166.759625 274.378252 
L 169.09329 271.776025 
L 169.871178 271.413513 
L 170.649066 271.582616 
L 171.426954 272.392968 
L 172.982731 274.727836 
L 173.760619 274.989248 
L 174.538507 274.255691 
L 175.316395 273.146435 
L 176.094283 272.532336 
L 176.872172 272.846237 
L 178.427948 274.40747 
L 179.205836 274.483489 
L 180.761612 273.456458 
L 181.539501 273.222712 
L 182.317389 273.522651 
L 184.651053 275.603606 
L 185.428941 275.896563 
L 186.20683 275.939744 
L 186.984718 275.815373 
L 187.762606 275.475097 
L 188.540494 274.811353 
L 190.09627 273.265117 
L 190.874159 273.042232 
L 191.652047 273.084896 
L 192.429935 272.974229 
L 193.207823 272.385469 
L 193.985711 271.600974 
L 194.763599 271.071427 
L 195.541488 271.170717 
L 197.097264 272.316949 
L 197.875152 272.199301 
L 198.65304 270.785193 
L 199.430928 267.762534 
L 201.764593 255.041769 
L 202.542481 252.673804 
L 203.320369 251.582648 
L 204.876146 250.827888 
L 205.654034 250.462014 
L 206.431922 250.244817 
L 207.20981 250.460721 
L 207.987698 251.174627 
L 208.765586 252.091251 
L 209.543475 252.762751 
L 210.321363 252.882985 
L 211.099251 252.694489 
L 211.877139 252.673028 
L 212.655027 253.267217 
L 214.988692 256.44269 
L 216.544468 258.115624 
L 218.100244 260.182874 
L 218.878133 260.410414 
L 219.656021 259.630056 
L 221.211797 256.84166 
L 221.989685 256.046047 
L 223.545462 255.156056 
L 224.32335 254.131868 
L 225.101238 252.602181 
L 227.434902 246.878005 
L 228.212791 245.572495 
L 228.990679 244.888325 
L 229.768567 244.546756 
L 230.546455 243.867498 
L 231.324343 242.474335 
L 232.102231 240.618851 
L 232.88012 239.108815 
L 233.658008 238.426454 
L 234.435896 238.523676 
L 235.213784 238.776814 
L 235.991672 238.847144 
L 237.547449 238.594265 
L 238.325337 238.74863 
L 239.103225 239.028659 
L 239.881113 239.066668 
L 241.436889 238.384308 
L 242.214778 238.55548 
L 242.992666 239.673786 
L 244.548442 243.527999 
L 245.32633 244.895564 
L 246.104218 245.484065 
L 248.437883 245.979481 
L 249.215771 245.653427 
L 249.993659 244.528657 
L 252.327324 239.194918 
L 253.105212 238.308806 
L 253.8831 238.154958 
L 255.438876 238.53919 
L 256.994653 237.985854 
L 257.772541 238.149528 
L 258.550429 239.263438 
L 260.106205 243.208926 
L 260.884093 244.617345 
L 261.661982 245.020453 
L 262.43987 244.500731 
L 263.995646 242.633354 
L 264.773534 242.604136 
L 265.551422 243.872928 
L 267.885087 250.601382 
L 268.662975 251.325372 
L 269.440863 251.198674 
L 270.218751 250.519416 
L 270.99664 249.203306 
L 273.330304 243.53317 
L 274.108192 242.722301 
L 274.88608 242.46244 
L 275.663969 242.354876 
L 276.441857 242.371683 
L 277.219745 242.548802 
L 278.775521 243.185913 
L 280.331298 243.631685 
L 281.109186 244.07849 
L 281.887074 244.827303 
L 283.44285 246.741481 
L 284.220738 247.254221 
L 284.998627 247.040127 
L 285.776515 246.12945 
L 286.554403 244.898926 
L 287.332291 244.082886 
L 288.110179 244.233372 
L 288.888067 245.301775 
L 289.665956 246.592546 
L 290.443844 247.372128 
L 291.221732 247.483312 
L 291.99962 247.393072 
L 292.777508 247.624232 
L 294.333285 248.948875 
L 295.111173 249.358188 
L 296.666949 249.732336 
L 297.444837 250.025034 
L 298.222725 250.04753 
L 299.000614 249.377322 
L 300.55639 246.628745 
L 301.334278 245.806499 
L 302.112166 245.815808 
L 304.445831 247.478141 
L 306.001607 247.957526 
L 306.779495 248.031217 
L 307.557383 247.922102 
L 308.335272 247.526493 
L 312.224712 244.684832 
L 313.002601 244.190708 
L 315.336265 242.212664 
L 316.114153 241.970903 
L 316.892041 241.937806 
L 317.66993 241.732245 
L 318.447818 241.066432 
L 320.003594 238.972291 
L 320.781482 238.194002 
L 322.337259 237.335298 
L 323.115147 236.999676 
L 323.893035 236.799286 
L 324.670923 236.808595 
L 326.226699 237.06225 
L 327.004588 236.874788 
L 328.560364 235.954804 
L 329.338252 235.680204 
L 330.11614 235.705286 
L 331.671917 236.061075 
L 332.449805 235.90309 
L 333.227693 235.323898 
L 334.783469 233.70759 
L 335.561357 233.51444 
L 336.339246 234.130607 
L 337.117134 235.456026 
L 338.67291 238.398012 
L 339.450798 239.273781 
L 340.228686 239.706624 
L 342.562351 240.111024 
L 344.896015 241.435409 
L 345.673904 241.450147 
L 346.451792 241.26372 
L 347.22968 241.199595 
L 348.007568 241.410586 
L 349.563344 242.091396 
L 350.341233 242.029081 
L 351.119121 241.528493 
L 352.674897 239.965192 
L 353.452785 239.81212 
L 354.230673 240.594287 
L 356.564338 245.274625 
L 357.342226 246.182457 
L 358.120114 247.29404 
L 359.675891 250.516572 
L 360.453779 250.767124 
L 361.231667 248.904918 
L 363.565331 238.649598 
L 364.34322 236.492366 
L 367.454772 229.332621 
L 368.23266 228.407724 
L 369.010549 228.645348 
L 369.788437 230.160297 
L 371.344213 234.924669 
L 372.122101 236.526497 
L 372.899989 236.926502 
L 373.677878 236.422553 
L 374.455766 235.589964 
L 375.233654 235.074121 
L 376.011542 235.121698 
L 376.78943 235.76398 
L 377.567318 237.006916 
L 378.345207 238.937901 
L 379.900983 244.479529 
L 381.456759 250.135443 
L 382.234647 252.486859 
L 383.012536 254.105753 
L 383.790424 254.566521 
L 384.568312 253.838135 
L 386.124088 250.803841 
L 386.901976 249.259673 
L 387.679864 248.031217 
L 388.457753 247.759204 
L 389.235641 249.068592 
L 390.791417 254.520237 
L 391.569305 255.630528 
L 392.347193 254.218489 
L 393.125082 250.757299 
L 394.680858 242.850034 
L 395.458746 239.771783 
L 396.236634 237.262123 
L 397.014522 235.454216 
L 397.792411 234.88847 
L 398.570299 235.744329 
L 399.348187 237.45941 
L 400.126075 238.839646 
L 400.903963 239.162597 
L 401.681851 238.713464 
L 402.45974 238.611847 
L 403.237628 239.705072 
L 404.793404 244.016951 
L 405.571292 245.255491 
L 406.34918 245.254457 
L 407.127069 244.317665 
L 408.682845 241.737158 
L 409.460733 240.862681 
L 410.238621 240.640571 
L 411.016509 241.027906 
L 411.794398 241.555384 
L 412.572286 241.527718 
L 413.350174 240.739861 
L 414.128062 239.668356 
L 414.90595 239.411856 
L 415.683838 240.770372 
L 416.461727 243.893355 
L 417.239615 247.74369 
L 418.017503 251.023624 
L 418.795391 252.711555 
L 419.573279 253.010977 
L 422.684832 251.39441 
L 423.46272 250.414438 
L 425.018496 248.032252 
L 426.574273 246.386467 
L 427.352161 245.850714 
L 428.130049 245.821496 
L 428.907937 246.747428 
L 429.685825 248.493537 
L 430.463714 250.52588 
L 431.241602 252.14193 
L 432.01949 252.920219 
L 432.797378 252.45066 
L 433.575266 250.292135 
L 434.353154 246.29028 
L 435.908931 236.141231 
L 436.686819 233.05393 
L 437.464707 232.768471 
L 438.242595 235.150916 
L 439.798372 243.2534 
L 440.57626 245.896998 
L 441.354148 246.123245 
L 442.132036 243.836729 
L 442.909924 239.728861 
L 445.243589 225.54848 
L 446.021477 222.584257 
L 446.799365 221.513269 
L 447.577253 222.290007 
L 448.355141 224.332952 
L 449.13303 226.697814 
L 449.910918 228.693958 
L 450.688806 229.832691 
L 451.466694 229.764171 
L 452.244582 228.331705 
L 454.578247 220.607247 
L 455.356135 219.102641 
L 457.689799 216.061624 
L 458.467688 215.529232 
L 459.245576 215.759099 
L 460.023464 216.399572 
L 460.801352 216.53713 
L 461.57924 215.224122 
L 462.357128 212.330489 
L 464.690793 200.95376 
L 465.468681 198.254828 
L 466.246569 196.425719 
L 467.024457 195.251303 
L 467.802346 194.869657 
L 468.580234 195.171664 
L 470.13601 197.010858 
L 470.913898 197.268908 
L 471.691786 196.426236 
L 472.469675 194.722015 
L 474.025451 190.859527 
L 474.803339 189.782333 
L 475.581227 189.75596 
L 476.359115 190.775234 
L 477.137004 192.666658 
L 477.914892 195.265266 
L 480.248556 205.432931 
L 481.026444 207.383309 
L 481.804333 207.632051 
L 482.582221 206.376963 
L 483.360109 204.084758 
L 484.137997 200.989442 
L 487.24955 186.683139 
L 488.027438 184.995983 
L 488.805326 184.568829 
L 489.583214 185.205423 
L 490.361102 186.435172 
L 491.916879 189.227705 
L 492.694767 190.311105 
L 493.472655 190.964764 
L 494.250543 191.078276 
L 495.028431 190.471675 
L 495.80632 189.129191 
L 498.139984 183.430872 
L 498.917872 182.542432 
L 499.69576 182.399703 
L 500.473649 182.896412 
L 502.807313 185.358754 
L 503.585201 185.504069 
L 505.918866 184.519184 
L 506.696754 184.110129 
L 507.474642 183.258148 
L 509.030418 180.617911 
L 509.808307 179.738522 
L 510.586195 179.421259 
L 512.141971 179.348343 
L 514.475636 178.926102 
L 515.253524 178.343548 
L 516.031412 176.977275 
L 516.8093 174.767295 
L 518.365076 169.11164 
L 519.142964 166.782719 
L 519.920853 165.431701 
L 520.698741 165.133573 
L 521.476629 165.630281 
L 522.254517 166.351944 
L 523.032405 166.744709 
L 523.810293 166.425636 
L 524.588182 165.427823 
L 525.36607 164.115074 
L 526.143958 163.129154 
L 526.921846 162.906269 
L 527.699734 163.560445 
L 529.255511 165.521166 
L 530.033399 165.659758 
L 530.811287 164.992653 
L 534.700728 158.84908 
L 535.478616 158.074927 
L 536.256504 158.005631 
L 537.034392 158.717727 
L 537.81228 160.031511 
L 539.368057 163.10821 
L 540.145945 163.975447 
L 540.923833 163.759801 
L 541.701721 162.329145 
L 543.257498 158.192576 
L 544.035386 156.704776 
L 544.813274 155.502694 
L 545.591162 154.072296 
L 548.702715 146.530129 
L 550.258491 142.693499 
L 551.036379 141.500466 
L 551.814267 141.188892 
L 552.592156 141.379715 
L 553.370044 141.383077 
L 554.147932 140.887143 
L 556.481596 138.408253 
L 557.259485 138.043155 
L 558.037373 138.137015 
L 558.815261 138.818342 
L 560.371037 140.436977 
L 561.148925 140.83724 
L 561.926814 141.414622 
L 562.704702 142.442946 
L 563.48259 143.687951 
L 564.260478 144.134756 
L 565.038366 143.109276 
L 565.816254 140.857408 
L 565.816254 140.857408 
" style="fill:none;stroke:#a6633e;stroke-linecap:round;stroke-opacity:0.9;stroke-width:1.5;"/>
   </g>
   <g id="line2d_3">
    <path clip-path="url(#p00a4097b5d)" d="M 169.09329 169.063826 
L 169.871178 170.579057 
L 170.649066 171.280075 
L 171.426954 170.902757 
L 172.982731 169.014179 
L 173.760619 168.81559 
L 174.538507 169.339864 
L 175.316395 170.344722 
L 176.094283 171.720942 
L 176.872172 173.534056 
L 178.427948 177.904991 
L 179.205836 179.354688 
L 179.983724 179.859104 
L 180.761612 179.95244 
L 181.539501 180.536291 
L 182.317389 182.053508 
L 183.095277 184.011592 
L 183.873165 185.352065 
L 184.651053 185.439444 
L 186.20683 183.701793 
L 186.984718 183.366179 
L 188.540494 183.397953 
L 190.09627 182.661189 
L 190.874159 182.317631 
L 191.652047 182.107127 
L 192.429935 182.250111 
L 193.207823 183.209294 
L 193.985711 185.288517 
L 195.541488 190.694099 
L 196.319376 191.927334 
L 197.097264 191.158796 
L 197.875152 188.388485 
L 199.430928 180.933468 
L 200.208817 178.917793 
L 200.986705 178.486856 
L 201.764593 178.522602 
L 202.542481 177.525687 
L 203.320369 174.995668 
L 204.876146 168.388625 
L 205.654034 166.104855 
L 206.431922 164.414866 
L 207.20981 162.403163 
L 207.987698 159.531572 
L 209.543475 152.930486 
L 210.321363 150.956515 
L 211.099251 150.603027 
L 211.877139 152.336706 
L 212.655027 156.640121 
L 213.432915 164.013717 
L 215.76658 192.985812 
L 216.544468 198.34969 
L 217.322356 199.694135 
L 218.100244 198.065709 
L 219.656021 191.281921 
L 220.433909 188.74793 
L 221.989685 185.532781 
L 222.767573 182.941199 
L 223.545462 179.755837 
L 224.32335 177.285395 
L 225.101238 176.520829 
L 225.879126 177.074891 
L 226.657014 177.863288 
L 228.212791 178.41735 
L 228.990679 179.39242 
L 229.768567 181.346532 
L 230.546455 183.610443 
L 231.324343 184.833749 
L 232.102231 183.97386 
L 232.88012 180.806371 
L 234.435896 172.090316 
L 235.213784 169.562283 
L 235.991672 168.837435 
L 236.76956 168.716296 
L 237.547449 167.663776 
L 238.325337 164.891479 
L 239.881113 156.530898 
L 240.659001 153.428943 
L 241.436889 152.443944 
L 242.214778 153.820163 
L 244.548442 162.973113 
L 245.32633 164.188475 
L 246.104218 163.966056 
L 246.882107 162.218476 
L 247.659995 158.804737 
L 248.437883 154.223298 
L 249.215771 150.34089 
L 249.993659 148.958713 
L 250.771547 150.432241 
L 251.549436 152.956302 
L 252.327324 154.550969 
L 253.105212 154.241171 
L 253.8831 152.148047 
L 254.660988 148.521818 
L 256.216764 138.880341 
L 256.994653 135.49639 
L 257.772541 134.400181 
L 258.550429 134.638488 
L 259.328317 134.682177 
L 260.106205 133.873921 
L 260.884093 133.564123 
L 261.661982 135.514263 
L 263.995646 148.468199 
L 264.773534 149.026233 
L 266.329311 146.881476 
L 267.107199 147.042333 
L 267.885087 148.708492 
L 268.662975 151.621787 
L 269.440863 155.20234 
L 270.218751 158.199042 
L 270.99664 159.386602 
L 271.774528 157.974637 
L 272.552416 154.421886 
L 274.88608 139.41653 
L 275.663969 136.110029 
L 276.441857 134.958215 
L 277.219745 136.094142 
L 280.331298 145.574763 
L 281.887074 151.586041 
L 282.664962 152.173863 
L 283.44285 149.034177 
L 285.776515 130.638913 
L 286.554403 130.350959 
L 287.332291 134.823175 
L 288.888067 150.150245 
L 289.665956 155.690868 
L 290.443844 157.591361 
L 291.221732 156.038398 
L 292.777508 148.956727 
L 293.555396 147.570579 
L 294.333285 149.405538 
L 295.111173 154.141876 
L 296.666949 165.415753 
L 297.444837 168.67062 
L 298.222725 169.673493 
L 299.000614 169.075741 
L 299.778502 168.031165 
L 300.55639 167.725338 
L 301.334278 168.875167 
L 302.890054 173.657181 
L 303.667943 174.88843 
L 304.445831 174.503168 
L 306.001607 171.792434 
L 306.779495 170.902757 
L 308.335272 169.594057 
L 309.11316 168.805661 
L 309.891048 168.432314 
L 310.668936 169.180993 
L 311.446824 171.583915 
L 313.002601 179.243479 
L 313.780489 181.993931 
L 314.558377 182.943185 
L 316.114153 182.119042 
L 316.892041 182.551965 
L 318.447818 185.326248 
L 319.225706 185.499021 
L 320.003594 183.546894 
L 320.781482 179.471856 
L 322.337259 169.032052 
L 323.115147 165.131771 
L 323.893035 162.923466 
L 324.670923 162.256208 
L 325.448811 162.528274 
L 327.004588 163.825058 
L 327.782476 164.025632 
L 328.560364 163.491429 
L 329.338252 162.337629 
L 330.11614 161.390361 
L 330.894028 161.886833 
L 331.671917 164.478414 
L 333.227693 172.02081 
L 334.005581 173.637322 
L 335.561357 173.021697 
L 336.339246 174.463451 
L 337.117134 178.169114 
L 337.895022 182.863749 
L 338.67291 186.779917 
L 339.450798 188.966378 
L 340.228686 189.357598 
L 341.006575 188.122376 
L 341.784463 185.199152 
L 344.118127 172.553028 
L 344.896015 171.925488 
L 345.673904 174.129822 
L 346.451792 177.507814 
L 347.22968 179.849174 
L 348.007568 179.92861 
L 349.563344 176.308339 
L 350.341233 175.307452 
L 351.119121 175.59342 
L 351.897009 176.854458 
L 354.230673 182.474516 
L 355.008562 183.185463 
L 356.564338 182.722752 
L 357.342226 183.455544 
L 358.120114 185.753214 
L 359.675891 192.288766 
L 360.453779 194.3382 
L 361.231667 195.023331 
L 362.009555 194.751265 
L 363.565331 193.140711 
L 365.121108 191.264048 
L 365.898996 190.155924 
L 367.454772 187.508737 
L 368.23266 186.557498 
L 369.010549 186.432387 
L 369.788437 187.11156 
L 370.566325 188.08663 
L 371.344213 188.634735 
L 372.122101 188.380541 
L 373.677878 186.61906 
L 374.455766 186.066984 
L 375.233654 186.082871 
L 376.011542 186.756087 
L 376.78943 187.977407 
L 377.567318 189.45292 
L 378.345207 190.646438 
L 379.123095 191.140923 
L 379.900983 190.92049 
L 380.678871 190.412103 
L 381.456759 190.102305 
L 382.234647 190.155924 
L 383.790424 190.769563 
L 384.568312 191.357385 
L 385.3462 192.495298 
L 387.679864 197.505689 
L 388.457753 198.19082 
L 390.013529 198.911696 
L 390.791417 199.495547 
L 391.569305 199.819246 
L 392.347193 199.586898 
L 393.125082 198.975245 
L 393.90297 198.607856 
L 394.680858 198.796515 
L 396.236634 199.914569 
L 397.792411 200.540123 
L 398.570299 200.708923 
L 399.348187 200.365365 
L 400.126075 199.086454 
L 402.45974 192.272879 
L 403.237628 191.224331 
L 404.015516 191.043615 
L 407.904957 191.90549 
L 408.682845 191.814139 
L 409.460733 191.059502 
L 410.238621 189.63165 
L 411.794398 186.333093 
L 412.572286 185.181279 
L 413.350174 184.653033 
L 414.128062 185.030351 
L 414.90595 186.376782 
L 415.683838 188.140249 
L 416.461727 189.113333 
L 417.239615 188.102517 
L 418.017503 184.88141 
L 419.573279 176.637996 
L 420.351167 174.687856 
L 421.129056 174.68587 
L 421.906944 175.353128 
L 422.684832 175.253833 
L 423.46272 173.637322 
L 425.018496 168.710338 
L 425.796385 167.864351 
L 426.574273 168.956588 
L 428.907937 176.510899 
L 430.463714 180.151029 
L 432.01949 184.81389 
L 432.797378 185.880311 
L 433.575266 185.095886 
L 435.908931 178.778781 
L 436.686819 178.447138 
L 437.464707 179.382491 
L 439.020483 182.865735 
L 439.798372 184.003648 
L 440.57626 184.116844 
L 441.354148 183.310574 
L 444.465701 178.345858 
L 445.243589 177.213903 
L 446.021477 176.435436 
L 446.799365 176.401676 
L 447.577253 177.201988 
L 449.13303 179.487743 
L 450.688806 180.619698 
L 451.466694 181.557036 
L 452.244582 183.290715 
L 453.800359 187.919816 
L 454.578247 189.518454 
L 455.356135 190.004996 
L 456.134023 189.363555 
L 457.689799 186.627004 
L 458.467688 185.884282 
L 459.245576 186.033224 
L 460.023464 186.678637 
L 460.801352 187.113546 
L 461.57924 186.936802 
L 462.357128 186.491964 
L 463.135017 186.470119 
L 463.912905 187.282346 
L 465.468681 190.257204 
L 467.802346 194.552676 
L 468.580234 195.384762 
L 469.358122 195.257666 
L 470.13601 194.046275 
L 472.469675 188.247487 
L 473.247563 187.018223 
L 474.025451 186.209968 
L 475.581227 185.040281 
L 477.137004 184.132731 
L 477.914892 183.76137 
L 478.69278 183.080211 
L 479.470668 181.614627 
L 480.248556 179.203761 
L 481.804333 173.494338 
L 482.582221 171.635549 
L 483.360109 170.79949 
L 484.915885 170.374511 
L 485.693773 169.582142 
L 486.471662 167.961659 
L 489.583214 158.902046 
L 490.361102 157.81378 
L 491.138991 157.595333 
L 491.916879 158.064002 
L 494.250543 160.169041 
L 495.028431 161.356601 
L 495.80632 163.491429 
L 496.584208 166.645016 
L 498.139984 173.963007 
L 498.917872 176.328198 
L 499.69576 176.927935 
L 500.473649 175.97471 
L 501.251537 174.366142 
L 502.029425 173.113048 
L 502.807313 172.717857 
L 503.585201 173.009782 
L 505.918866 174.523027 
L 506.696754 175.48221 
L 509.030418 179.539376 
L 509.808307 179.801513 
L 510.586195 179.193832 
L 511.364083 177.831514 
L 513.697747 171.949319 
L 514.475636 170.97822 
L 515.253524 170.948432 
L 516.031412 171.419087 
L 516.8093 171.746758 
L 517.587188 171.520367 
L 519.920853 169.369652 
L 520.698741 169.820449 
L 521.476629 171.355539 
L 523.032405 175.986625 
L 523.810293 177.748106 
L 524.588182 178.804598 
L 525.36607 179.577108 
L 526.143958 180.736865 
L 526.921846 182.569838 
L 528.477622 187.08773 
L 529.255511 188.765803 
L 530.033399 189.752789 
L 530.811287 190.175783 
L 531.589175 190.199613 
L 532.367063 189.852083 
L 533.144951 189.127235 
L 533.92284 188.18791 
L 534.700728 187.476963 
L 535.478616 187.367739 
L 536.256504 187.862225 
L 537.034392 188.547356 
L 537.81228 189.019997 
L 540.145945 189.456892 
L 540.923833 190.076488 
L 543.257498 193.095035 
L 544.035386 193.657041 
L 544.813274 193.629239 
L 545.591162 192.94808 
L 547.146938 190.594805 
L 547.924827 190.006982 
L 548.702715 190.441891 
L 550.258491 193.043402 
L 551.036379 193.470368 
L 551.814267 192.596578 
L 552.592156 190.709986 
L 554.92582 184.267771 
L 555.703708 182.692963 
L 556.481596 182.103155 
L 557.259485 182.837933 
L 558.815261 186.346994 
L 559.593149 187.486893 
L 560.371037 187.987336 
L 561.148925 188.269332 
L 561.926814 188.404372 
L 562.704702 188.02904 
L 563.48259 186.793818 
L 565.816254 181.128085 
L 565.816254 181.128085 
" style="fill:none;stroke:#407e4e;stroke-linecap:round;stroke-opacity:0.9;stroke-width:1.5;"/>
   </g>
   <g id="line2d_4">
    <path clip-path="url(#p00a4097b5d)" d="M 390.791417 301.707328 
L 391.569305 301.592265 
L 392.347193 301.317149 
L 393.125082 300.775191 
L 393.90297 299.958892 
L 397.792411 294.893805 
L 399.348187 292.548077 
L 401.681851 288.739372 
L 402.45974 287.697085 
L 403.237628 286.862945 
L 404.015516 286.263584 
L 404.793404 285.906761 
L 405.571292 285.772564 
L 408.682845 285.870303 
L 410.238621 285.425049 
L 413.350174 283.986894 
L 414.128062 283.36116 
L 415.683838 281.607294 
L 417.239615 279.843343 
L 418.017503 279.171325 
L 418.795391 278.681856 
L 420.351167 278.068533 
L 421.906944 277.723862 
L 422.684832 277.840218 
L 423.46272 278.234534 
L 425.018496 279.355943 
L 425.796385 279.754913 
L 427.352161 280.112513 
L 428.907937 280.268946 
L 429.685825 280.188014 
L 430.463714 279.836621 
L 431.241602 279.144693 
L 433.575266 276.306135 
L 434.353154 275.740388 
L 435.131043 275.464237 
L 435.908931 275.392356 
L 437.464707 275.589643 
L 439.020483 275.850538 
L 439.798372 275.792102 
L 440.57626 275.548013 
L 441.354148 275.149819 
L 442.132036 274.593639 
L 442.909924 273.762085 
L 443.687812 272.457093 
L 444.465701 270.572908 
L 446.799365 263.547101 
L 447.577253 261.707649 
L 448.355141 260.245189 
L 449.13303 259.065085 
L 449.910918 258.136051 
L 450.688806 257.536691 
L 451.466694 257.430936 
L 452.244582 257.965396 
L 453.02247 259.154808 
L 454.578247 262.666936 
L 456.134023 266.122696 
L 457.689799 269.086919 
L 458.467688 270.154546 
L 459.245576 270.677628 
L 460.023464 270.607039 
L 460.801352 270.119639 
L 462.357128 268.970563 
L 464.690793 267.881475 
L 465.468681 267.191616 
L 466.246569 266.163809 
L 468.580234 262.435259 
L 470.13601 260.327414 
L 470.913898 259.079307 
L 473.247563 254.495415 
L 474.025451 253.468383 
L 474.803339 253.193008 
L 475.581227 253.753584 
L 477.914892 257.138237 
L 478.69278 257.309409 
L 479.470668 256.700741 
L 481.026444 254.516876 
L 481.804333 253.767029 
L 482.582221 253.431408 
L 484.137997 253.164049 
L 485.693773 252.666047 
L 486.471662 252.793004 
L 487.24955 253.602321 
L 488.027438 255.203632 
L 490.361102 261.584054 
L 491.138991 262.936623 
L 491.916879 263.793775 
L 492.694767 264.344266 
L 493.472655 264.714536 
L 494.250543 264.898636 
L 495.028431 264.854679 
L 497.362096 264.142325 
L 498.139984 264.255577 
L 498.917872 264.641361 
L 500.473649 265.656757 
L 501.251537 265.973503 
L 502.807313 266.266977 
L 503.585201 266.571053 
L 504.363089 267.131628 
L 505.918866 268.596157 
L 506.696754 269.052788 
L 507.474642 269.083816 
L 508.25253 268.694154 
L 510.586195 266.670085 
L 511.364083 265.858181 
L 512.141971 264.743495 
L 513.697747 261.698341 
L 514.475636 260.176927 
L 515.253524 258.901671 
L 516.031412 257.92325 
L 516.8093 257.202104 
L 517.587188 256.686261 
L 518.365076 256.359948 
L 519.142964 256.305907 
L 519.920853 256.645148 
L 520.698741 257.422662 
L 522.254517 259.48681 
L 523.032405 260.223728 
L 523.810293 260.652951 
L 526.143958 261.360651 
L 526.921846 261.497692 
L 527.699734 261.398919 
L 528.477622 260.987021 
L 530.033399 259.43794 
L 531.589175 257.881362 
L 532.367063 257.35983 
L 533.144951 257.138755 
L 533.92284 257.355176 
L 534.700728 258.134758 
L 535.478616 259.471813 
L 537.81228 264.656875 
L 538.590169 265.818362 
L 539.368057 266.471246 
L 540.145945 266.700337 
L 540.923833 266.619664 
L 541.701721 266.278871 
L 542.479609 265.667617 
L 544.813274 263.002557 
L 545.591162 262.466029 
L 546.36905 262.374496 
L 547.146938 262.731837 
L 547.924827 263.441864 
L 550.258491 266.365492 
L 552.592156 269.513039 
L 554.147932 272.038471 
L 555.703708 275.187828 
L 557.259485 278.947406 
L 558.815261 282.983392 
M 565.816254 285.308176 
" style="fill:none;stroke:#933b3e;stroke-linecap:round;stroke-opacity:0.9;stroke-width:1.5;"/>
   </g>
   <g id="line2d_5">
    <path clip-path="url(#p00a4097b5d)" d="M 198.65304 260.324 
L 200.208817 250.447029 
L 200.986705 247.14856 
L 201.764593 245.134403 
L 202.542481 243.963934 
L 204.098257 241.962222 
L 205.654034 239.738123 
L 206.431922 238.946519 
L 207.20981 238.424543 
L 207.987698 238.117119 
L 208.765586 238.03093 
L 210.321363 238.228198 
L 211.099251 237.872379 
L 211.877139 236.573086 
L 212.655027 234.040642 
L 214.210804 226.979802 
L 214.988692 224.433761 
L 215.76658 223.701383 
L 216.544468 224.790272 
L 218.100244 228.586058 
L 218.878133 229.215654 
L 219.656021 228.529136 
L 221.989685 223.786189 
L 223.545462 221.878272 
L 224.32335 220.385169 
L 225.101238 218.160379 
L 225.879126 215.567325 
L 226.657014 213.469284 
L 227.434902 212.29121 
L 228.990679 211.357877 
L 229.768567 210.473399 
L 230.546455 209.362617 
L 231.324343 208.533679 
L 232.102231 208.275572 
L 232.88012 208.612494 
L 233.658008 209.58316 
L 234.435896 211.260165 
L 238.325337 222.565481 
L 239.103225 224.19893 
L 239.881113 224.952971 
L 240.659001 224.465794 
L 242.214778 221.194979 
L 242.992666 220.103786 
L 243.770554 220.116691 
L 244.548442 220.98135 
L 246.104218 223.256148 
L 246.882107 223.971473 
L 248.437883 224.675045 
L 249.215771 225.017037 
L 249.993659 225.584872 
L 253.105212 228.677778 
L 253.8831 229.058716 
L 254.660988 229.21865 
L 255.438876 228.890486 
L 256.216764 227.866584 
L 256.994653 226.069975 
L 258.550429 221.868362 
L 259.328317 220.861975 
L 260.106205 221.218255 
L 260.884093 222.45786 
L 261.661982 223.332428 
L 262.43987 222.597975 
L 263.217758 219.968049 
L 264.773534 212.829778 
L 265.551422 210.725745 
L 266.329311 210.343885 
L 267.107199 211.448905 
L 268.662975 215.482749 
L 269.440863 217.016642 
L 270.218751 217.622733 
L 270.99664 217.217597 
L 271.774528 216.014403 
L 272.552416 214.507243 
L 273.330304 213.305893 
L 274.108192 212.753959 
L 274.88608 212.693119 
L 275.663969 212.52051 
L 276.441857 211.650321 
L 277.219745 209.888971 
L 278.775521 205.063292 
L 279.553409 203.159753 
L 280.331298 202.276658 
L 281.109186 202.543984 
L 283.44285 205.844296 
L 284.220738 205.85144 
L 284.998627 205.151556 
L 286.554403 202.904872 
L 287.332291 201.740395 
L 288.110179 200.784477 
L 288.888067 200.352379 
L 289.665956 200.703358 
L 290.443844 201.791325 
L 291.99962 204.496379 
L 292.777508 205.1587 
L 293.555396 205.089333 
L 294.333285 204.447523 
L 295.111173 203.608905 
L 295.889061 202.950272 
L 296.666949 202.680181 
L 297.444837 202.710601 
L 299.000614 203.139473 
L 299.778502 203.602914 
L 300.55639 204.389909 
L 302.890054 207.68907 
L 303.667943 208.297926 
L 304.445831 208.48851 
L 306.001607 208.200444 
L 309.11316 207.41437 
L 309.891048 207.042189 
L 310.668936 206.510535 
L 315.336265 202.26721 
L 316.892041 200.743687 
L 317.66993 200.229778 
L 318.447818 199.935259 
L 319.225706 199.885021 
L 320.781482 200.163407 
L 321.55937 199.790074 
L 322.337259 198.594025 
L 323.115147 196.680115 
L 324.670923 191.650025 
L 325.448811 188.460329 
L 327.004588 180.808148 
L 327.782476 177.716165 
L 328.560364 176.005745 
L 329.338252 175.213909 
L 330.11614 174.198765 
L 330.894028 171.868658 
L 332.449805 164.78777 
L 333.227693 162.718535 
L 334.005581 162.807029 
L 334.783469 164.756658 
L 336.339246 169.963045 
L 337.117134 170.697037 
L 337.895022 168.610519 
L 338.67291 163.326469 
L 339.450798 156.451374 
L 340.228686 150.749745 
L 341.006575 148.560675 
L 341.784463 149.776082 
L 342.562351 152.290321 
L 343.340239 154.281202 
L 344.118127 155.765086 
L 344.896015 158.638601 
L 345.673904 164.23837 
L 348.007568 190.40558 
L 348.785456 196.118963 
L 349.563344 198.727457 
L 350.341233 198.722156 
L 351.119121 197.096082 
L 351.897009 194.601893 
L 352.674897 191.394914 
L 355.78645 176.658387 
L 357.342226 172.661416 
L 358.120114 169.317317 
L 358.898002 163.945465 
L 359.675891 157.221317 
L 360.453779 151.514387 
L 361.231667 148.241267 
L 362.009555 146.989449 
L 362.787443 145.266584 
L 363.565331 141.386683 
L 365.121108 130.355374 
L 365.898996 127.122123 
L 366.676884 125.937366 
L 367.454772 125.963868 
L 368.23266 127.758864 
L 369.010549 133.783128 
L 369.788437 146.020165 
L 371.344213 180.428823 
L 372.122101 192.503391 
L 372.899989 196.366469 
L 373.677878 191.968049 
L 374.455766 180.977761 
L 376.78943 138.13707 
L 377.567318 131.404856 
L 378.345207 129.787309 
L 379.123095 130.451243 
L 379.900983 130.384642 
L 380.678871 128.773317 
L 383.012536 121.559457 
L 383.790424 118.303391 
L 386.124088 105.534008 
L 386.901976 103.801465 
L 387.679864 103.863687 
L 388.457753 104.198996 
L 389.235641 103.135457 
L 390.013529 99.825004 
L 391.569305 90.923309 
L 392.347193 88.754058 
L 393.125082 89.425136 
L 393.90297 93.219078 
L 394.680858 99.288971 
L 396.236634 112.452889 
L 397.014522 116.954782 
L 397.792411 119.527095 
L 398.570299 119.500823 
L 399.348187 116.691605 
L 400.126075 111.994749 
L 400.903963 108.909679 
L 401.681851 110.195835 
L 402.45974 116.464148 
L 404.015516 132.868691 
L 404.793404 137.999029 
L 405.571292 139.082848 
L 406.34918 134.315934 
L 407.127069 123.412296 
L 408.682845 95.666716 
L 409.460733 88.105103 
L 410.238621 86.911588 
L 411.016509 89.940889 
L 411.794398 95.255358 
L 414.90595 119.702469 
L 415.683838 124.246765 
L 416.461727 127.058058 
L 417.239615 126.221975 
L 418.017503 120.854502 
L 419.573279 103.225794 
L 420.351167 96.576543 
L 421.129056 93.663391 
L 421.906944 94.77279 
L 422.684832 98.695556 
L 423.46272 103.635309 
L 424.240608 107.540329 
L 425.018496 109.105103 
L 425.796385 108.022206 
L 426.574273 104.866387 
L 427.352161 100.972658 
L 428.130049 97.744938 
L 428.907937 96.143292 
L 429.685825 95.758206 
L 430.463714 95.535128 
L 432.01949 93.579737 
L 432.797378 94.298288 
L 433.575266 98.341119 
L 434.353154 105.570189 
L 435.908931 122.386551 
L 437.464707 135.470502 
L 439.020483 146.357547 
L 439.798372 149.265169 
L 440.57626 148.944379 
L 441.354148 145.353235 
L 442.909924 134.891144 
L 443.687812 132.487984 
L 444.465701 132.946123 
L 445.243589 134.577267 
L 446.021477 135.258255 
L 447.577253 133.649926 
L 448.355141 134.689037 
L 449.910918 141.619901 
L 450.688806 143.513992 
L 451.466694 142.680905 
L 452.244582 140.374996 
L 453.02247 138.535523 
L 453.800359 138.23363 
L 454.578247 138.719885 
L 455.356135 138.890881 
L 456.134023 138.141218 
L 456.911911 137.103259 
L 458.467688 135.538947 
L 459.245576 134.012198 
L 460.023464 131.038436 
L 461.57924 121.843144 
L 462.357128 117.343325 
L 463.135017 113.719918 
L 463.912905 111.09921 
L 464.690793 109.399852 
L 465.468681 108.618617 
L 466.246569 108.779934 
L 467.024457 110.226716 
L 467.802346 112.727358 
L 468.580234 115.754815 
L 469.358122 117.960247 
L 470.13601 118.789877 
L 470.913898 118.061646 
L 474.803339 110.718041 
L 475.581227 108.037185 
L 477.914892 97.520708 
L 478.69278 95.268263 
L 479.470668 93.635737 
L 480.248556 92.352807 
L 481.026444 91.665136 
L 481.804333 92.214996 
L 482.582221 94.947012 
L 483.360109 100.193037 
L 484.915885 113.684889 
L 485.693773 118.847029 
L 486.471662 122.546486 
L 487.24955 125.455259 
L 488.027438 127.796889 
L 488.805326 128.95284 
L 489.583214 128.234288 
L 490.361102 125.553202 
L 492.694767 113.969728 
L 493.472655 111.851868 
L 494.250543 111.534996 
L 495.028431 113.182502 
L 497.362096 122.275473 
L 498.139984 123.596889 
L 498.917872 124.229712 
L 499.69576 125.009794 
L 502.029425 128.780691 
L 502.807313 128.779309 
L 503.585201 127.282749 
L 504.363089 123.969761 
L 505.140978 119.15284 
L 506.696754 106.861877 
L 508.25253 94.264412 
L 509.030418 90.691243 
L 509.808307 90.663358 
L 511.364083 96.385728 
L 512.141971 97.873531 
L 512.919859 97.859473 
L 513.697747 98.064576 
L 514.475636 99.579572 
L 516.031412 104.584543 
L 516.8093 105.664444 
L 517.587188 105.110897 
L 518.365076 103.218189 
L 519.142964 99.881926 
L 519.920853 94.914519 
L 522.254517 74.946947 
L 523.032405 71.692724 
L 523.810293 71.139407 
L 524.588182 71.751259 
L 525.36607 71.24772 
L 526.143958 68.771276 
L 527.699734 61.340329 
L 528.477622 59.516066 
L 529.255511 59.851144 
L 530.033399 61.630008 
L 531.589175 65.752576 
L 532.367063 67.553794 
L 533.144951 69.697465 
L 534.700728 75.270272 
L 536.256504 81.212033 
L 537.034392 84.55521 
L 537.81228 88.759819 
L 539.368057 98.316922 
L 540.145945 101.067144 
L 540.923833 100.548395 
L 541.701721 96.508329 
L 544.035386 77.445975 
L 544.813274 74.262963 
L 546.36905 71.573119 
L 547.146938 69.874453 
L 547.924827 68.557646 
L 548.702715 69.445119 
L 549.480603 72.614305 
L 550.258491 76.666354 
L 551.036379 79.422107 
L 551.814267 80.425037 
L 552.592156 80.989392 
L 553.370044 84.313758 
L 554.147932 94.222744 
L 554.92582 114.250999 
L 555.703708 145.112345 
L 556.481596 183.206176 
M 561.926814 159.392848 
L 562.704702 162.181244 
L 563.48259 163.959157 
L 564.260478 164.06336 
L 565.038366 162.433607 
L 565.816254 159.707008 
L 565.816254 159.707008 
" style="fill:none;stroke:#615686;stroke-linecap:round;stroke-opacity:0.9;stroke-width:1.5;"/>
   </g>
   <g id="line2d_6">
    <path clip-path="url(#p00a4097b5d)" d="M 390.791417 293.28784 
L 392.347193 290.891174 
L 393.125082 290.084701 
L 393.90297 289.601696 
L 394.680858 289.410356 
L 395.458746 289.461552 
L 396.236634 289.733307 
L 397.792411 290.504615 
L 398.570299 290.556846 
L 399.348187 290.066343 
L 400.126075 288.958896 
L 402.45974 284.424391 
L 403.237628 283.611712 
L 404.015516 283.319789 
L 404.793404 283.42606 
L 405.571292 283.838735 
L 407.904957 285.558987 
L 409.460733 286.049232 
L 411.794398 286.479489 
L 412.572286 286.290217 
L 413.350174 285.740243 
L 416.461727 282.423851 
L 418.017503 281.543427 
L 418.795391 280.917176 
L 419.573279 279.972369 
L 421.906944 276.260885 
L 422.684832 275.701344 
L 423.46272 275.813304 
L 425.018496 276.738719 
L 425.796385 276.805946 
L 426.574273 276.644341 
L 427.352161 276.619777 
L 428.130049 277.077701 
L 430.463714 279.910054 
L 435.131043 283.473378 
L 435.908931 283.737893 
L 437.464707 284.013009 
L 438.242595 284.340873 
L 439.020483 285.019097 
L 439.798372 286.128353 
L 440.57626 287.45067 
L 441.354148 288.541309 
L 442.132036 288.946744 
L 442.909924 288.413835 
L 443.687812 286.843035 
L 444.465701 284.286316 
L 446.021477 278.383469 
L 446.799365 277.031417 
L 447.577253 277.536142 
L 449.13303 281.079298 
L 449.910918 282.262505 
L 450.688806 282.745251 
L 451.466694 282.689142 
L 452.244582 282.205361 
L 453.02247 281.235732 
L 454.578247 278.490258 
L 455.356135 277.503562 
L 456.134023 277.18811 
L 456.911911 277.376606 
L 458.467688 278.272802 
L 459.245576 278.960334 
L 460.023464 280.181033 
L 460.801352 282.082541 
L 462.357128 286.50095 
L 463.135017 287.928245 
L 463.912905 288.442019 
L 464.690793 288.167678 
L 465.468681 287.269931 
L 466.246569 285.916328 
L 467.802346 282.564771 
L 468.580234 281.182467 
L 469.358122 280.226282 
L 470.913898 278.963695 
L 471.691786 278.614112 
L 472.469675 278.626781 
L 474.025451 279.161758 
L 474.803339 279.066605 
L 475.581227 278.483535 
L 476.359115 277.435818 
L 478.69278 272.624386 
L 479.470668 271.958315 
L 480.248556 272.30764 
L 481.026444 273.448442 
L 482.582221 276.20943 
L 483.360109 277.16096 
L 484.137997 277.649395 
L 485.693773 277.91029 
L 486.471662 278.223157 
L 487.24955 278.673582 
L 488.027438 278.909913 
L 488.805326 278.609457 
L 491.138991 275.919058 
L 491.916879 275.49449 
L 492.694767 275.292807 
L 493.472655 275.278069 
L 494.250543 275.46372 
L 495.028431 276.119966 
L 496.584208 278.283145 
L 497.362096 278.794333 
L 498.139984 278.358647 
L 498.917872 277.070978 
L 499.69576 275.56482 
L 500.473649 274.368168 
L 501.251537 273.624527 
L 503.585201 271.840925 
L 504.363089 271.727931 
L 505.140978 272.467177 
L 505.918866 274.067712 
L 507.474642 278.087926 
L 508.25253 279.49919 
L 509.030418 280.207924 
L 509.808307 280.347292 
L 510.586195 280.303594 
L 511.364083 280.50476 
L 512.141971 281.251246 
L 513.697747 283.627226 
L 514.475636 284.19168 
L 515.253524 283.674803 
L 516.031412 281.959722 
L 518.365076 274.764036 
L 519.142964 273.355099 
L 520.698741 271.297416 
L 521.476629 269.86495 
L 523.032405 266.530975 
L 523.810293 265.429217 
L 524.588182 265.004649 
L 525.36607 265.151774 
L 526.143958 265.667617 
L 527.699734 267.343395 
L 529.255511 269.147424 
L 531.589175 271.157272 
L 532.367063 272.211712 
L 533.144951 273.658399 
L 535.478616 278.549211 
L 536.256504 279.409466 
L 537.034392 279.656657 
L 537.81228 279.415931 
L 538.590169 278.675392 
L 539.368057 277.439179 
L 541.701721 272.774614 
L 543.257498 270.541363 
L 544.035386 269.989321 
L 544.813274 270.475945 
L 545.591162 272.362715 
L 547.146938 278.240481 
L 547.924827 280.526221 
L 548.702715 281.936192 
L 551.036379 284.399568 
L 551.814267 285.134418 
L 552.592156 285.517099 
L 553.370044 285.427117 
L 555.703708 284.077134 
L 556.481596 284.183147 
L 557.259485 284.759495 
L 558.037373 285.731452 
L 561.148925 290.581668 
L 562.704702 292.177291 
L 563.48259 292.881888 
L 564.260478 293.744471 
L 565.816254 296.11528 
L 565.816254 296.11528 
" style="fill:none;stroke:#6e5a48;stroke-linecap:round;stroke-opacity:0.9;stroke-width:1.5;"/>
   </g>
   <g id="line2d_7">
    <path clip-path="url(#p00a4097b5d)" d="M 340.228686 268.084903 
L 341.006575 264.997556 
L 341.784463 262.886542 
L 342.562351 262.249968 
L 343.340239 262.96042 
L 344.118127 264.501897 
L 345.673904 268.013755 
L 346.451792 269.287594 
L 347.22968 269.949258 
L 348.007568 269.952464 
L 348.785456 269.476552 
L 350.341233 268.028682 
L 351.119121 267.149738 
L 353.452785 263.768992 
L 354.230673 263.164876 
L 355.008562 262.785791 
L 355.78645 262.057154 
L 357.342226 259.045636 
L 358.120114 258.383238 
L 358.898002 259.459844 
L 360.453779 264.275331 
L 361.231667 265.171576 
L 362.009555 264.273116 
L 363.565331 260.65249 
L 364.34322 259.685673 
L 367.454772 258.341039 
L 368.23266 258.259632 
L 369.010549 258.37102 
L 369.788437 258.238926 
L 370.566325 257.333051 
L 371.344213 255.443469 
L 372.122101 253.102575 
L 372.899989 251.508936 
L 373.677878 251.932343 
L 374.455766 254.76282 
L 376.011542 263.422845 
L 376.78943 266.557531 
L 377.567318 268.441627 
L 378.345207 269.627049 
L 379.123095 270.470136 
L 379.900983 270.86421 
L 380.678871 270.559448 
L 381.456759 269.571469 
L 383.012536 267.01177 
L 383.790424 266.364053 
L 384.568312 266.507829 
L 385.3462 267.387478 
L 386.124088 268.466035 
L 386.901976 269.12623 
L 387.679864 268.827392 
L 389.235641 266.483265 
L 390.013529 266.392197 
L 390.791417 268.139033 
L 392.347193 274.404698 
L 393.125082 275.640013 
L 393.90297 274.281633 
L 395.458746 267.666504 
L 396.236634 265.334496 
L 397.014522 264.340365 
L 397.792411 264.165129 
L 399.348187 264.196052 
L 400.126075 264.042998 
L 400.903963 263.625165 
L 402.45974 262.303444 
L 403.237628 262.057876 
L 404.793404 262.271049 
L 406.34918 261.815842 
L 407.127069 261.939692 
L 408.682845 262.844337 
L 409.460733 262.642224 
L 411.794398 260.316416 
L 412.572286 259.830848 
L 413.350174 259.63629 
L 414.128062 260.060251 
L 414.90595 261.404484 
L 415.683838 263.608782 
L 417.239615 268.780085 
L 418.017503 270.785269 
L 418.795391 271.825577 
L 419.573279 271.716802 
L 421.129056 270.011234 
L 422.684832 269.114991 
L 423.46272 267.703641 
L 424.240608 264.886761 
L 425.796385 257.337563 
L 426.574273 254.32623 
L 427.352161 252.362497 
L 428.130049 251.470482 
L 428.907937 251.402822 
L 429.685825 252.042803 
L 430.463714 253.240313 
L 431.241602 255.021539 
L 433.575266 261.857652 
L 434.353154 262.835757 
L 435.131043 262.468718 
L 435.908931 261.112374 
L 436.686819 259.501644 
L 437.464707 258.209457 
L 438.242595 257.446275 
L 439.020483 257.120767 
L 439.798372 257.076254 
L 441.354148 257.146534 
L 442.132036 256.770079 
L 442.909924 255.901382 
L 443.687812 254.811207 
L 444.465701 253.935779 
L 446.021477 252.758685 
L 446.799365 251.294995 
L 449.13303 244.214123 
L 449.910918 243.095316 
L 450.688806 242.633553 
L 452.244582 241.91456 
L 453.02247 241.551513 
L 453.800359 241.63822 
L 454.578247 242.461511 
L 456.134023 245.573225 
L 456.911911 246.655439 
L 457.689799 246.939357 
L 459.245576 246.919519 
L 460.023464 246.914413 
L 460.801352 245.733013 
L 461.57924 242.388612 
L 463.912905 226.601634 
L 464.690793 224.710287 
L 465.468681 225.31354 
L 466.246569 227.879889 
L 467.802346 236.07113 
L 468.580234 239.959635 
L 469.358122 242.733277 
L 470.13601 244.292923 
L 470.913898 245.024933 
L 471.691786 245.224402 
L 473.247563 245.02782 
L 474.025451 245.247774 
L 475.581227 246.235046 
L 476.359115 246.585848 
L 477.137004 247.284467 
L 477.914892 249.026977 
L 478.69278 252.028964 
L 479.470668 255.610895 
L 480.248556 258.483877 
L 481.026444 259.448241 
L 481.804333 258.120298 
L 482.582221 255.040882 
L 484.915885 243.767427 
L 485.693773 240.68713 
L 486.471662 238.336212 
L 487.24955 236.964901 
L 488.027438 236.4634 
L 488.805326 236.274499 
L 489.583214 235.668262 
L 490.361102 234.368811 
L 491.138991 232.721067 
L 491.916879 231.390475 
L 492.694767 230.629149 
L 493.472655 230.061659 
L 494.250543 229.104002 
L 495.028431 227.482149 
L 496.584208 223.488668 
L 497.362096 221.924718 
L 498.139984 220.914315 
L 498.917872 220.52971 
L 499.69576 220.654204 
L 500.473649 221.265603 
L 502.029425 223.389645 
L 502.807313 224.011571 
L 503.585201 223.671292 
L 505.140978 221.312533 
L 505.918866 220.705889 
L 507.474642 220.777024 
L 508.25253 220.552542 
L 509.030418 219.863677 
L 509.808307 218.694813 
L 511.364083 215.168854 
L 512.141971 213.480315 
L 512.919859 212.53153 
L 513.697747 212.684484 
L 514.475636 213.996759 
L 516.031412 218.352336 
L 516.8093 219.797058 
L 517.587188 219.956159 
L 519.142964 218.240783 
L 519.920853 218.095742 
L 520.698741 218.809415 
L 522.254517 220.837161 
L 523.032405 221.68944 
L 523.810293 222.846268 
L 526.143958 227.906864 
L 526.921846 228.565217 
L 527.699734 228.512134 
L 528.477622 228.067341 
L 530.033399 226.771992 
L 531.589175 225.303239 
L 532.367063 224.930864 
L 533.144951 224.9427 
L 534.700728 225.459133 
L 535.478616 225.19509 
L 536.256504 224.266211 
L 537.81228 221.751168 
L 538.590169 221.417392 
L 539.368057 222.390648 
L 540.145945 224.631469 
L 542.479609 233.612177 
L 543.257498 235.609626 
L 547.146938 243.343488 
L 547.924827 245.630917 
L 551.036379 257.055254 
L 551.814267 258.142725 
L 552.592156 258.437929 
L 554.147932 258.468845 
L 554.92582 258.93835 
L 555.703708 260.184316 
L 556.481596 262.556128 
L 558.815261 272.453288 
L 559.593149 273.164854 
L 560.371037 271.843489 
L 561.148925 269.187158 
L 562.704702 262.510253 
L 563.48259 258.660335 
L 565.038366 249.249364 
L 565.816254 243.937941 
L 565.816254 243.937941 
" style="fill:none;stroke:#a36892;stroke-linecap:round;stroke-opacity:0.9;stroke-width:1.5;"/>
   </g>
   <g id="line2d_8">
    <path clip-path="url(#p00a4097b5d)" d="M 161.314408 277.391344 
L 162.870185 266.091668 
L 163.648073 261.921226 
L 164.425961 259.395794 
L 165.203849 258.492616 
L 165.981737 258.738773 
L 166.759625 259.559726 
L 168.315402 261.66059 
L 171.426954 266.063226 
L 172.204843 265.970141 
L 172.982731 264.537158 
L 174.538507 259.711505 
L 175.316395 258.748857 
L 176.094283 259.700387 
L 177.65006 264.077683 
L 178.427948 264.942334 
L 179.205836 263.839542 
L 179.983724 260.533493 
L 180.761612 255.197944 
L 182.317389 242.423397 
L 183.095277 238.703897 
L 183.873165 238.922387 
L 184.651053 242.885458 
L 186.20683 254.518686 
L 186.984718 258.324288 
L 187.762606 259.881384 
L 188.540494 259.678926 
L 189.318382 258.508647 
L 190.09627 257.104106 
L 190.874159 256.040875 
L 191.652047 255.692843 
L 192.429935 256.209979 
L 193.207823 257.529451 
L 193.985711 259.439492 
L 195.541488 263.866433 
L 196.319376 265.720106 
L 197.097264 266.948045 
L 197.875152 267.491038 
L 199.430928 267.725042 
L 200.208817 268.351034 
L 200.986705 269.694295 
L 203.320369 275.838385 
L 204.098257 277.031417 
L 204.876146 277.035037 
L 205.654034 275.670057 
L 206.431922 273.05697 
L 207.987698 265.605043 
L 209.543475 258.048655 
L 211.099251 252.25027 
L 212.655027 247.578465 
L 213.432915 245.54457 
L 214.210804 244.021864 
L 214.988692 243.329936 
L 215.76658 243.605311 
L 216.544468 244.692072 
L 218.878133 249.254244 
L 220.433909 251.451812 
L 221.211797 252.271214 
L 221.989685 252.890743 
L 222.767573 253.217831 
L 223.545462 253.173357 
L 225.879126 252.094612 
L 226.657014 252.42894 
L 227.434902 253.310398 
L 228.990679 255.398593 
L 229.768567 255.88651 
L 230.546455 255.842037 
L 231.324343 255.383596 
L 232.88012 253.921653 
L 234.435896 252.511165 
L 235.213784 252.048845 
L 235.991672 251.810187 
L 237.547449 251.743477 
L 239.103225 251.828546 
L 240.659001 252.200366 
L 245.32633 254.060762 
L 246.882107 254.215903 
L 247.659995 254.124111 
L 249.215771 253.599736 
L 249.993659 253.303675 
L 250.771547 253.324878 
L 251.549436 253.995345 
L 252.327324 255.529428 
L 253.8831 259.6042 
L 254.660988 260.84998 
L 255.438876 261.148884 
L 256.216764 260.616751 
L 258.550429 258.007284 
L 259.328317 257.687436 
L 260.106205 257.75337 
L 260.884093 258.079942 
L 261.661982 258.689386 
L 262.43987 259.686166 
L 263.217758 261.143196 
L 264.773534 265.027661 
L 265.551422 267.031821 
L 266.329311 268.714581 
L 267.107199 269.823579 
L 267.885087 270.21324 
L 268.662975 270.006645 
L 269.440863 269.448655 
L 270.99664 267.981024 
L 271.774528 267.199373 
L 272.552416 266.584499 
L 273.330304 266.35489 
L 274.108192 266.454439 
L 274.88608 266.300332 
L 275.663969 265.176338 
L 277.219745 260.356115 
L 277.997633 258.823324 
L 278.775521 258.848147 
L 279.553409 259.313052 
L 280.331298 258.000044 
L 281.109186 253.249893 
L 282.664962 237.889926 
L 283.44285 233.15322 
L 284.220738 232.473704 
L 285.776515 236.322746 
L 286.554403 236.747056 
L 287.332291 235.622544 
L 289.665956 230.409815 
L 290.443844 229.65247 
L 291.221732 230.414728 
L 291.99962 233.171062 
L 296.666949 256.836747 
L 297.444837 260.048678 
L 298.222725 261.653092 
L 299.000614 261.818834 
L 299.778502 260.852307 
L 300.55639 258.885898 
L 301.334278 255.876943 
L 302.890054 248.908797 
L 303.667943 246.722347 
L 304.445831 246.006889 
L 305.223719 246.460676 
L 306.779495 248.206785 
L 307.557383 248.358306 
L 308.335272 247.617767 
L 309.891048 244.584766 
L 310.668936 244.249662 
L 311.446824 245.932163 
L 312.224712 249.331814 
L 313.002601 253.287903 
L 313.780489 256.233508 
L 314.558377 257.035845 
L 315.336265 255.353085 
L 316.114153 251.783038 
L 317.66993 243.742869 
L 320.003594 233.590717 
L 320.781482 229.407606 
L 321.55937 224.531274 
L 323.115147 213.228236 
L 323.893035 209.599236 
L 324.670923 209.512357 
L 325.448811 213.09947 
L 327.782476 230.026617 
L 328.560364 232.447589 
L 329.338252 231.644735 
L 330.11614 227.828014 
L 331.671917 216.017408 
L 332.449805 212.466237 
L 333.227693 213.357779 
L 334.005581 219.035154 
L 335.561357 236.588553 
L 336.339246 242.036838 
L 337.117134 243.170399 
L 338.67291 240.059569 
L 339.450798 239.975017 
L 340.228686 241.447303 
L 341.006575 243.86362 
L 343.340239 252.317239 
L 344.118127 253.911569 
L 345.673904 255.511328 
L 346.451792 256.973013 
L 347.22968 258.877107 
L 348.007568 260.375508 
L 348.785456 260.446614 
L 349.563344 258.971225 
L 351.119121 254.305885 
L 351.897009 252.796365 
L 353.452785 251.064995 
L 354.230673 249.636148 
L 355.78645 246.124538 
L 356.564338 245.510956 
L 357.342226 246.130743 
L 358.898002 248.761155 
L 359.675891 249.324833 
L 360.453779 249.081779 
L 361.231667 248.444926 
L 362.009555 248.058884 
L 362.787443 248.351583 
L 364.34322 249.899888 
L 365.121108 249.607706 
L 365.898996 247.818675 
L 366.676884 244.721031 
L 368.23266 237.635495 
L 369.010549 235.727522 
L 369.788437 236.283185 
L 370.566325 239.840045 
L 372.899989 257.891704 
L 373.677878 260.000326 
L 374.455766 259.13102 
L 376.011542 254.880681 
L 376.78943 254.051454 
L 377.567318 254.268392 
L 378.345207 254.876544 
L 379.123095 255.204925 
L 379.900983 254.84836 
L 381.456759 253.133796 
L 382.234647 252.990291 
L 383.012536 253.802712 
L 384.568312 256.92104 
L 385.3462 257.937988 
L 386.124088 258.19216 
L 387.679864 257.57289 
L 388.457753 257.185038 
L 389.235641 256.934227 
L 390.013529 257.211929 
L 390.791417 258.794365 
L 391.569305 261.745142 
L 392.347193 265.236067 
L 393.125082 267.769515 
L 393.90297 268.629771 
L 394.680858 268.099189 
L 396.236634 266.347392 
L 397.014522 265.665548 
L 397.792411 264.756165 
L 398.570299 263.4716 
L 400.126075 259.931288 
L 402.45974 253.738845 
L 403.237628 252.295002 
L 404.015516 251.81872 
L 404.793404 252.368177 
L 405.571292 253.449508 
L 406.34918 254.213576 
L 407.127069 254.010083 
L 407.904957 252.613299 
L 410.238621 245.621882 
L 411.016509 245.191883 
L 411.794398 246.753116 
L 413.350174 252.524869 
L 414.128062 254.580225 
L 414.90595 255.77636 
L 415.683838 256.488715 
L 416.461727 256.796669 
L 417.239615 256.378565 
L 418.017503 255.072538 
L 421.129056 247.538904 
L 422.684832 243.021206 
L 423.46272 241.704061 
L 424.240608 241.605288 
L 425.018496 242.424431 
L 425.796385 243.469821 
L 426.574273 244.042032 
L 427.352161 243.830782 
L 428.907937 242.247571 
L 429.685825 242.236711 
L 430.463714 243.485335 
L 431.241602 246.066877 
L 432.797378 252.424803 
L 433.575266 253.422617 
L 434.353154 251.229185 
L 435.131043 245.87683 
L 435.908931 239.164665 
L 436.686819 233.58477 
L 437.464707 230.983577 
L 438.242595 231.414868 
L 439.020483 233.651222 
L 440.57626 238.539965 
L 441.354148 240.359508 
L 442.132036 241.755257 
L 442.909924 242.683257 
L 443.687812 242.981128 
L 444.465701 242.63232 
L 445.243589 241.705871 
L 446.799365 238.804998 
L 447.577253 237.361672 
L 448.355141 236.523136 
L 449.13303 236.664572 
L 449.910918 237.714358 
L 450.688806 239.003319 
L 451.466694 239.726275 
L 452.244582 239.539589 
L 455.356135 236.187256 
L 456.134023 235.223574 
L 456.911911 234.451748 
L 457.689799 234.382711 
L 458.467688 235.199785 
L 459.245576 236.400316 
L 460.023464 237.129219 
L 460.801352 236.878925 
L 461.57924 235.776392 
L 463.912905 231.50847 
L 464.690793 230.819386 
L 465.468681 231.262055 
L 466.246569 233.114694 
L 468.580234 242.282994 
L 469.358122 244.162783 
L 470.13601 244.137702 
L 470.913898 241.722678 
L 473.247563 228.151224 
L 474.025451 226.507767 
L 474.803339 226.895101 
L 477.137004 231.529931 
L 477.914892 232.34804 
L 478.69278 232.166525 
L 479.470668 230.784221 
L 481.026444 226.072597 
L 481.804333 224.536962 
L 482.582221 224.761658 
L 483.360109 227.179526 
L 484.137997 231.614483 
L 484.915885 236.777308 
L 485.693773 240.758219 
L 486.471662 241.994433 
L 487.24955 240.748911 
L 488.027438 238.92549 
L 488.805326 238.784054 
L 489.583214 241.076775 
L 491.138991 248.149641 
L 491.916879 249.558578 
L 492.694767 248.505431 
L 493.472655 245.530866 
L 494.250543 241.943753 
L 495.028431 239.215086 
L 495.80632 238.186503 
L 496.584208 238.730013 
L 498.139984 241.491518 
L 498.917872 242.432964 
L 499.69576 242.806594 
L 500.473649 242.956564 
L 501.251537 243.545064 
L 502.029425 245.212569 
L 504.363089 253.363922 
L 505.140978 254.672017 
L 506.696754 255.674485 
L 507.474642 256.480441 
L 508.25253 257.459379 
L 509.030418 258.02616 
L 509.808307 257.781037 
L 510.586195 256.775467 
L 511.364083 255.499434 
L 512.141971 254.500069 
L 512.919859 254.151261 
L 513.697747 254.5342 
L 515.253524 256.283671 
L 516.031412 256.317543 
L 516.8093 255.082364 
L 518.365076 250.928729 
L 519.142964 250.012106 
L 519.920853 250.487612 
L 521.476629 253.225847 
L 522.254517 254.036974 
L 523.032405 254.246155 
L 523.810293 254.208663 
L 524.588182 254.522306 
L 525.36607 255.512621 
L 526.921846 258.776007 
L 527.699734 259.633676 
L 528.477622 259.108525 
L 529.255511 257.29674 
L 530.811287 252.734568 
L 531.589175 251.18678 
L 532.367063 250.259556 
L 533.144951 249.916177 
L 533.92284 250.165178 
L 534.700728 251.006558 
L 536.256504 253.178529 
L 537.034392 253.788232 
L 537.81228 253.944924 
L 538.590169 253.731347 
L 539.368057 253.215762 
L 540.145945 252.363005 
L 541.701721 249.981078 
L 542.479609 249.245969 
L 543.257498 249.407574 
L 544.035386 250.370223 
L 544.813274 251.627121 
L 545.591162 252.65286 
L 547.146938 254.242018 
L 547.924827 255.567955 
L 549.480603 259.135933 
L 550.258491 260.515134 
L 551.036379 261.334536 
L 551.814267 261.737126 
L 553.370044 262.191171 
L 554.147932 262.647285 
L 554.92582 263.472117 
L 556.481596 265.54609 
L 557.259485 265.880677 
L 558.037373 265.448868 
L 561.926814 261.11527 
L 562.704702 260.531165 
L 563.48259 260.21261 
L 565.816254 259.67272 
L 565.816254 259.67272 
" style="fill:none;stroke:#696969;stroke-linecap:round;stroke-opacity:0.9;stroke-width:1.5;"/>
   </g>
   <g id="line2d_9">
    <path clip-path="url(#p00a4097b5d)" d="M 472.469675 177.99112 
L 474.803339 186.661677 
L 475.581227 186.46258 
L 476.359115 181.791034 
L 477.914892 166.007791 
L 478.69278 163.63724 
L 479.470668 169.100004 
L 480.248556 181.087988 
L 481.026444 194.802688 
L 481.804333 205.259432 
L 482.582221 209.677065 
L 483.360109 208.678993 
L 484.137997 204.560523 
L 485.693773 195.764043 
L 487.24955 190.16217 
L 488.805326 184.639159 
L 489.583214 182.943212 
L 490.361102 183.942836 
L 491.138991 188.394341 
L 492.694767 201.267144 
L 493.472655 205.022067 
L 494.250543 205.707013 
L 495.80632 203.277509 
L 496.584208 203.837567 
L 497.362096 206.865398 
L 499.69576 221.831049 
L 500.473649 224.157126 
L 501.251537 224.441033 
L 502.029425 223.070106 
L 502.807313 220.424957 
L 503.585201 216.616769 
L 505.918866 202.752875 
L 506.696754 199.108878 
L 507.474642 196.382021 
L 508.25253 194.385101 
L 509.808307 191.400968 
L 511.364083 187.939261 
L 512.141971 187.157094 
L 512.919859 187.953224 
L 513.697747 190.268441 
L 514.475636 193.586902 
L 515.253524 197.559022 
L 516.8093 207.343231 
L 517.587188 212.460807 
L 518.365076 216.709853 
L 519.142964 219.38267 
L 519.920853 220.18242 
L 520.698741 219.14246 
L 521.476629 216.849997 
L 522.254517 214.136068 
L 523.032405 211.883166 
L 523.810293 210.354771 
L 526.143958 207.52759 
L 526.921846 206.141925 
L 527.699734 204.173189 
L 528.477622 201.802897 
L 529.255511 200.280707 
L 530.033399 201.416079 
L 530.811287 206.560805 
L 531.589175 215.335048 
L 533.144951 235.935152 
L 533.92284 244.004281 
L 534.700728 249.335951 
L 535.478616 251.428282 
L 536.256504 250.293687 
L 537.034392 246.628228 
L 538.590169 237.497937 
L 539.368057 234.550521 
L 540.145945 233.779472 
L 540.923833 235.394745 
L 541.701721 239.148893 
L 543.257498 247.955198 
L 544.035386 250.762212 
L 544.813274 252.509872 
M 550.258491 252.509872 
L 553.370044 255.359032 
L 554.147932 257.763713 
L 558.037373 266.992777 
L 558.815261 267.863375 
L 559.593149 267.652643 
L 560.371037 266.830397 
L 561.148925 266.221728 
L 561.926814 266.203369 
L 562.704702 266.715592 
L 563.48259 267.571452 
L 564.260478 268.974959 
L 565.038366 271.142275 
L 565.816254 273.935584 
L 565.816254 273.935584 
" style="fill:none;stroke:#998b57;stroke-linecap:round;stroke-opacity:0.9;stroke-width:1.5;"/>
   </g>
   <g id="patch_3">
    <path d="M 122.42 348.58 
L 628.047308 348.58 
" style="fill:none;stroke:#262626;stroke-linecap:square;stroke-linejoin:miter;stroke-width:1.25;"/>
   </g>
   <g id="text_15">
    <!-- France -->
    <g style="fill:#395684;opacity:0.9;" transform="translate(573.595136 239.026678)scale(0.15 -0.15)">
     <defs>
      <path d="M 1203 4070 
L 1203 2310 
L 3520 2310 
L 3520 1901 
L 1203 1901 
L 1203 0 
L 730 0 
L 730 4480 
L 3802 4480 
L 3802 4070 
L 1203 4070 
z
" id="Montserrat-Regular-46" transform="scale(0.015625)"/>
      <path d="M 2349 3392 
Q 2982 3392 3356 3024 
Q 3731 2656 3731 1952 
L 3731 0 
L 3277 0 
L 3277 1907 
Q 3277 2432 3014 2707 
Q 2752 2982 2266 2982 
Q 1722 2982 1405 2659 
Q 1088 2336 1088 1766 
L 1088 0 
L 634 0 
L 634 3366 
L 1069 3366 
L 1069 2746 
Q 1254 3053 1584 3222 
Q 1914 3392 2349 3392 
z
" id="Montserrat-Regular-6e" transform="scale(0.015625)"/>
     </defs>
     <use xlink:href="#Montserrat-Regular-46"/>
     <use x="63.299988" xlink:href="#Montserrat-Regular-72"/>
     <use x="103.399979" xlink:href="#Montserrat-Regular-61"/>
     <use x="162.399963" xlink:href="#Montserrat-Regular-6e"/>
     <use x="230.099945" xlink:href="#Montserrat-Regular-63"/>
     <use x="286.399933" xlink:href="#Montserrat-Regular-65"/>
    </g>
   </g>
   <g id="text_16">
    <!-- United Kingdom -->
    <g style="fill:#a6633e;opacity:0.9;" transform="translate(573.595136 144.929674)scale(0.15 -0.15)">
     <defs>
      <path d="M 2534 -38 
Q 1664 -38 1177 461 
Q 691 960 691 1914 
L 691 4480 
L 1165 4480 
L 1165 1933 
Q 1165 1152 1517 768 
Q 1869 384 2534 384 
Q 3206 384 3558 768 
Q 3910 1152 3910 1933 
L 3910 4480 
L 4371 4480 
L 4371 1914 
Q 4371 960 3888 461 
Q 3405 -38 2534 -38 
z
" id="Montserrat-Regular-55" transform="scale(0.015625)"/>
      <path d="M 3706 4749 
L 3706 0 
L 3270 0 
L 3270 666 
Q 3066 326 2730 147 
Q 2394 -32 1971 -32 
Q 1498 -32 1114 185 
Q 730 403 512 793 
Q 294 1184 294 1683 
Q 294 2182 512 2572 
Q 730 2963 1114 3177 
Q 1498 3392 1971 3392 
Q 2381 3392 2710 3222 
Q 3040 3053 3251 2726 
L 3251 4749 
L 3706 4749 
z
M 2010 371 
Q 2362 371 2646 534 
Q 2931 698 3094 998 
Q 3258 1299 3258 1683 
Q 3258 2067 3094 2368 
Q 2931 2669 2646 2832 
Q 2362 2995 2010 2995 
Q 1651 2995 1366 2832 
Q 1082 2669 918 2368 
Q 755 2067 755 1683 
Q 755 1299 918 998 
Q 1082 698 1366 534 
Q 1651 371 2010 371 
z
" id="Montserrat-Regular-64" transform="scale(0.015625)"/>
      <path d="M 2118 2106 
L 1203 1178 
L 1203 0 
L 730 0 
L 730 4480 
L 1203 4480 
L 1203 1773 
L 3834 4480 
L 4378 4480 
L 2438 2451 
L 4512 0 
L 3949 0 
L 2118 2106 
z
" id="Montserrat-Regular-4b" transform="scale(0.015625)"/>
      <path d="M 3750 3366 
L 3750 410 
Q 3750 -448 3331 -861 
Q 2912 -1274 2067 -1274 
Q 1600 -1274 1181 -1136 
Q 762 -998 499 -755 
L 730 -410 
Q 973 -627 1321 -748 
Q 1670 -870 2054 -870 
Q 2694 -870 2995 -572 
Q 3296 -275 3296 352 
L 3296 781 
Q 3085 461 2742 294 
Q 2400 128 1984 128 
Q 1510 128 1123 336 
Q 736 544 515 918 
Q 294 1293 294 1766 
Q 294 2240 515 2611 
Q 736 2982 1120 3187 
Q 1504 3392 1984 3392 
Q 2413 3392 2758 3219 
Q 3104 3046 3315 2720 
L 3315 3366 
L 3750 3366 
z
M 2029 531 
Q 2394 531 2688 688 
Q 2982 845 3145 1126 
Q 3309 1408 3309 1766 
Q 3309 2125 3145 2403 
Q 2982 2682 2691 2838 
Q 2400 2995 2029 2995 
Q 1664 2995 1373 2841 
Q 1082 2688 918 2406 
Q 755 2125 755 1766 
Q 755 1408 918 1126 
Q 1082 845 1373 688 
Q 1664 531 2029 531 
z
" id="Montserrat-Regular-67" transform="scale(0.015625)"/>
      <path d="M 2010 -32 
Q 1523 -32 1132 189 
Q 742 410 518 800 
Q 294 1190 294 1683 
Q 294 2176 518 2566 
Q 742 2957 1132 3174 
Q 1523 3392 2010 3392 
Q 2496 3392 2886 3174 
Q 3277 2957 3497 2566 
Q 3718 2176 3718 1683 
Q 3718 1190 3497 800 
Q 3277 410 2886 189 
Q 2496 -32 2010 -32 
z
M 2010 371 
Q 2368 371 2653 534 
Q 2938 698 3098 998 
Q 3258 1299 3258 1683 
Q 3258 2067 3098 2368 
Q 2938 2669 2653 2832 
Q 2368 2995 2010 2995 
Q 1651 2995 1366 2832 
Q 1082 2669 918 2368 
Q 755 2067 755 1683 
Q 755 1299 918 998 
Q 1082 698 1366 534 
Q 1651 371 2010 371 
z
" id="Montserrat-Regular-6f" transform="scale(0.015625)"/>
      <path d="M 4832 3392 
Q 5466 3392 5827 3027 
Q 6189 2662 6189 1952 
L 6189 0 
L 5734 0 
L 5734 1907 
Q 5734 2432 5481 2707 
Q 5229 2982 4768 2982 
Q 4243 2982 3942 2659 
Q 3642 2336 3642 1766 
L 3642 0 
L 3187 0 
L 3187 1907 
Q 3187 2432 2934 2707 
Q 2682 2982 2214 2982 
Q 1696 2982 1392 2659 
Q 1088 2336 1088 1766 
L 1088 0 
L 634 0 
L 634 3366 
L 1069 3366 
L 1069 2752 
Q 1248 3059 1568 3225 
Q 1888 3392 2304 3392 
Q 2726 3392 3036 3213 
Q 3347 3034 3501 2682 
Q 3686 3014 4035 3203 
Q 4384 3392 4832 3392 
z
" id="Montserrat-Regular-6d" transform="scale(0.015625)"/>
     </defs>
     <use xlink:href="#Montserrat-Regular-55"/>
     <use x="79.199982" xlink:href="#Montserrat-Regular-6e"/>
     <use x="146.899963" xlink:href="#Montserrat-Regular-69"/>
     <use x="173.799957" xlink:href="#Montserrat-Regular-74"/>
     <use x="214.399948" xlink:href="#Montserrat-Regular-65"/>
     <use x="274.799942" xlink:href="#Montserrat-Regular-64"/>
     <use x="342.59993" xlink:href="#Montserrat-Regular-20"/>
     <use x="368.799927" xlink:href="#Montserrat-Regular-4b"/>
     <use x="439.899918" xlink:href="#Montserrat-Regular-69"/>
     <use x="466.799911" xlink:href="#Montserrat-Regular-6e"/>
     <use x="534.499893" xlink:href="#Montserrat-Regular-67"/>
     <use x="603.099884" xlink:href="#Montserrat-Regular-64"/>
     <use x="670.899872" xlink:href="#Montserrat-Regular-6f"/>
     <use x="733.599869" xlink:href="#Montserrat-Regular-6d"/>
    </g>
   </g>
   <g id="text_17">
    <!-- Italy -->
    <g style="fill:#407e4e;opacity:0.9;" transform="translate(573.595136 185.20035)scale(0.15 -0.15)">
     <defs>
      <path d="M 730 4480 
L 1203 4480 
L 1203 0 
L 730 0 
L 730 4480 
z
" id="Montserrat-Regular-49" transform="scale(0.015625)"/>
      <path d="M 634 4749 
L 1088 4749 
L 1088 0 
L 634 0 
L 634 4749 
z
" id="Montserrat-Regular-6c" transform="scale(0.015625)"/>
     </defs>
     <use xlink:href="#Montserrat-Regular-49"/>
     <use x="30.199997" xlink:href="#Montserrat-Regular-74"/>
     <use x="70.799988" xlink:href="#Montserrat-Regular-61"/>
     <use x="129.799973" xlink:href="#Montserrat-Regular-6c"/>
     <use x="156.699966" xlink:href="#Montserrat-Regular-79"/>
    </g>
   </g>
   <g id="text_18">
    <!-- Mexico -->
    <g style="fill:#933b3e;opacity:0.9;" transform="translate(573.595136 289.417942)scale(0.15 -0.15)">
     <defs>
      <path d="M 5382 4480 
L 5382 0 
L 4928 0 
L 4928 3584 
L 3168 570 
L 2944 570 
L 1184 3565 
L 1184 0 
L 730 0 
L 730 4480 
L 1120 4480 
L 3066 1158 
L 4992 4480 
L 5382 4480 
z
" id="Montserrat-Regular-4d" transform="scale(0.015625)"/>
      <path d="M 2778 0 
L 1709 1408 
L 634 0 
L 122 0 
L 1453 1728 
L 186 3366 
L 698 3366 
L 1709 2048 
L 2720 3366 
L 3219 3366 
L 1952 1728 
L 3296 0 
L 2778 0 
z
" id="Montserrat-Regular-78" transform="scale(0.015625)"/>
     </defs>
     <use xlink:href="#Montserrat-Regular-4d"/>
     <use x="95.499985" xlink:href="#Montserrat-Regular-65"/>
     <use x="155.899979" xlink:href="#Montserrat-Regular-78"/>
     <use x="209.299973" xlink:href="#Montserrat-Regular-69"/>
     <use x="236.199966" xlink:href="#Montserrat-Regular-63"/>
     <use x="292.499954" xlink:href="#Montserrat-Regular-6f"/>
    </g>
   </g>
   <g id="text_19">
    <!-- Netherlands -->
    <g style="fill:#615686;opacity:0.9;" transform="translate(573.595136 163.816774)scale(0.15 -0.15)">
     <defs>
      <path d="M 4474 4480 
L 4474 0 
L 4083 0 
L 1203 3635 
L 1203 0 
L 730 0 
L 730 4480 
L 1120 4480 
L 4006 845 
L 4006 4480 
L 4474 4480 
z
" id="Montserrat-Regular-4e" transform="scale(0.015625)"/>
      <path d="M 2349 3392 
Q 2982 3392 3356 3024 
Q 3731 2656 3731 1952 
L 3731 0 
L 3277 0 
L 3277 1907 
Q 3277 2432 3014 2707 
Q 2752 2982 2266 2982 
Q 1722 2982 1405 2659 
Q 1088 2336 1088 1766 
L 1088 0 
L 634 0 
L 634 4749 
L 1088 4749 
L 1088 2778 
Q 1274 3072 1600 3232 
Q 1926 3392 2349 3392 
z
" id="Montserrat-Regular-68" transform="scale(0.015625)"/>
      <path d="M 1536 -32 
Q 1126 -32 752 86 
Q 378 205 166 384 
L 371 742 
Q 582 576 902 470 
Q 1222 365 1568 365 
Q 2029 365 2249 509 
Q 2470 653 2470 915 
Q 2470 1101 2348 1206 
Q 2227 1312 2041 1366 
Q 1856 1421 1549 1472 
Q 1139 1549 889 1629 
Q 640 1709 464 1901 
Q 288 2093 288 2432 
Q 288 2854 640 3123 
Q 992 3392 1619 3392 
Q 1946 3392 2272 3305 
Q 2598 3219 2810 3078 
L 2611 2714 
Q 2195 3002 1619 3002 
Q 1184 3002 963 2848 
Q 742 2694 742 2445 
Q 742 2253 867 2137 
Q 992 2022 1177 1968 
Q 1363 1914 1690 1856 
Q 2093 1779 2336 1702 
Q 2579 1626 2752 1440 
Q 2925 1254 2925 928 
Q 2925 486 2557 227 
Q 2189 -32 1536 -32 
z
" id="Montserrat-Regular-73" transform="scale(0.015625)"/>
     </defs>
     <use xlink:href="#Montserrat-Regular-4e"/>
     <use x="81.299988" xlink:href="#Montserrat-Regular-65"/>
     <use x="141.699982" xlink:href="#Montserrat-Regular-74"/>
     <use x="182.299973" xlink:href="#Montserrat-Regular-68"/>
     <use x="249.999954" xlink:href="#Montserrat-Regular-65"/>
     <use x="310.399948" xlink:href="#Montserrat-Regular-72"/>
     <use x="350.499939" xlink:href="#Montserrat-Regular-6c"/>
     <use x="377.399933" xlink:href="#Montserrat-Regular-61"/>
     <use x="436.399918" xlink:href="#Montserrat-Regular-6e"/>
     <use x="504.099899" xlink:href="#Montserrat-Regular-64"/>
     <use x="571.899887" xlink:href="#Montserrat-Regular-73"/>
    </g>
   </g>
   <g id="text_20">
    <!-- Peru -->
    <g style="fill:#6e5a48;opacity:0.9;" transform="translate(573.595136 300.225046)scale(0.15 -0.15)">
     <defs>
      <path d="M 3667 3366 
L 3667 0 
L 3232 0 
L 3232 614 
Q 3053 307 2739 137 
Q 2426 -32 2022 -32 
Q 1363 -32 982 336 
Q 602 704 602 1414 
L 602 3366 
L 1056 3366 
L 1056 1459 
Q 1056 928 1318 653 
Q 1581 378 2067 378 
Q 2598 378 2905 701 
Q 3213 1024 3213 1600 
L 3213 3366 
L 3667 3366 
z
" id="Montserrat-Regular-75" transform="scale(0.015625)"/>
     </defs>
     <use xlink:href="#Montserrat-Regular-50"/>
     <use x="71.799988" xlink:href="#Montserrat-Regular-65"/>
     <use x="132.199982" xlink:href="#Montserrat-Regular-72"/>
     <use x="172.299973" xlink:href="#Montserrat-Regular-75"/>
    </g>
   </g>
   <g id="text_21">
    <!-- Portugal -->
    <g style="fill:#a36892;opacity:0.9;" transform="translate(573.595136 248.010207)scale(0.15 -0.15)">
     <use xlink:href="#Montserrat-Regular-50"/>
     <use x="71.799988" xlink:href="#Montserrat-Regular-6f"/>
     <use x="134.499985" xlink:href="#Montserrat-Regular-72"/>
     <use x="174.599976" xlink:href="#Montserrat-Regular-74"/>
     <use x="215.199966" xlink:href="#Montserrat-Regular-75"/>
     <use x="282.499954" xlink:href="#Montserrat-Regular-67"/>
     <use x="351.099945" xlink:href="#Montserrat-Regular-61"/>
     <use x="410.09993" xlink:href="#Montserrat-Regular-6c"/>
    </g>
   </g>
   <g id="text_22">
    <!-- Sweden -->
    <g style="fill:#696969;opacity:0.9;" transform="translate(573.595136 263.782486)scale(0.15 -0.15)">
     <defs>
      <path d="M 1965 -38 
Q 1466 -38 1008 122 
Q 550 282 301 544 
L 486 909 
Q 730 666 1133 515 
Q 1536 365 1965 365 
Q 2566 365 2867 585 
Q 3168 806 3168 1158 
Q 3168 1427 3005 1587 
Q 2842 1747 2605 1833 
Q 2368 1920 1946 2022 
Q 1440 2150 1139 2268 
Q 838 2387 624 2630 
Q 410 2874 410 3290 
Q 410 3629 589 3907 
Q 768 4186 1139 4352 
Q 1510 4518 2061 4518 
Q 2445 4518 2813 4412 
Q 3181 4307 3450 4122 
L 3290 3744 
Q 3008 3930 2688 4022 
Q 2368 4115 2061 4115 
Q 1472 4115 1174 3888 
Q 877 3661 877 3302 
Q 877 3034 1040 2870 
Q 1203 2707 1449 2620 
Q 1696 2534 2112 2432 
Q 2605 2310 2909 2192 
Q 3213 2074 3424 1834 
Q 3635 1594 3635 1184 
Q 3635 845 3452 566 
Q 3270 288 2892 125 
Q 2515 -38 1965 -38 
z
" id="Montserrat-Regular-53" transform="scale(0.015625)"/>
      <path d="M 5574 3366 
L 4301 0 
L 3872 0 
L 2810 2758 
L 1747 0 
L 1318 0 
L 51 3366 
L 486 3366 
L 1542 506 
L 2624 3366 
L 3014 3366 
L 4090 506 
L 5158 3366 
L 5574 3366 
z
" id="Montserrat-Regular-77" transform="scale(0.015625)"/>
     </defs>
     <use xlink:href="#Montserrat-Regular-53"/>
     <use x="61.499985" xlink:href="#Montserrat-Regular-77"/>
     <use x="149.399979" xlink:href="#Montserrat-Regular-65"/>
     <use x="209.799973" xlink:href="#Montserrat-Regular-64"/>
     <use x="277.59996" xlink:href="#Montserrat-Regular-65"/>
     <use x="337.999954" xlink:href="#Montserrat-Regular-6e"/>
    </g>
   </g>
   <g id="text_23">
    <!-- South Africa -->
    <g style="fill:#998b57;opacity:0.9;" transform="translate(573.595136 278.04535)scale(0.15 -0.15)">
     <defs>
      <path d="M 3539 1197 
L 1043 1197 
L 506 0 
L 13 0 
L 2061 4480 
L 2528 4480 
L 4576 0 
L 4077 0 
L 3539 1197 
z
M 3366 1581 
L 2291 3987 
L 1216 1581 
L 3366 1581 
z
" id="Montserrat-Regular-41" transform="scale(0.015625)"/>
      <path d="M 1747 4397 
Q 1453 4397 1302 4237 
Q 1152 4077 1152 3763 
L 1152 3366 
L 2189 3366 
L 2189 2982 
L 1165 2982 
L 1165 0 
L 710 0 
L 710 2982 
L 109 2982 
L 109 3366 
L 710 3366 
L 710 3782 
Q 710 4243 976 4512 
Q 1242 4781 1728 4781 
Q 1920 4781 2099 4726 
Q 2278 4672 2400 4570 
L 2246 4230 
Q 2048 4397 1747 4397 
z
" id="Montserrat-Regular-66" transform="scale(0.015625)"/>
     </defs>
     <use xlink:href="#Montserrat-Regular-53"/>
     <use x="61.499985" xlink:href="#Montserrat-Regular-6f"/>
     <use x="124.199982" xlink:href="#Montserrat-Regular-75"/>
     <use x="191.499969" xlink:href="#Montserrat-Regular-74"/>
     <use x="232.09996" xlink:href="#Montserrat-Regular-68"/>
     <use x="299.799942" xlink:href="#Montserrat-Regular-20"/>
     <use x="325.999939" xlink:href="#Montserrat-Regular-41"/>
     <use x="397.699921" xlink:href="#Montserrat-Regular-66"/>
     <use x="431.599915" xlink:href="#Montserrat-Regular-72"/>
     <use x="471.699905" xlink:href="#Montserrat-Regular-69"/>
     <use x="498.599899" xlink:href="#Montserrat-Regular-63"/>
     <use x="554.899887" xlink:href="#Montserrat-Regular-61"/>
    </g>
   </g>
  </g>
 </g>
 <defs>
  <clipPath id="p00a4097b5d">
   <rect height="314.16" width="505.627308" x="122.42" y="34.42"/>
  </clipPath>
 </defs>
</svg>
