<?xml version="1.0" encoding="utf-8" standalone="no"?>
<!DOCTYPE svg PUBLIC "-//W3C//DTD SVG 1.1//EN"
  "http://www.w3.org/Graphics/SVG/1.1/DTD/svg11.dtd">
<svg height="432pt" version="1.1" viewBox="0 0 720 432" width="720pt" xmlns="http://www.w3.org/2000/svg" xmlns:xlink="http://www.w3.org/1999/xlink">
 <metadata>
  <rdf:RDF xmlns:cc="http://creativecommons.org/ns#" xmlns:dc="http://purl.org/dc/elements/1.1/" xmlns:rdf="http://www.w3.org/1999/02/22-rdf-syntax-ns#">
   <cc:Work>
    <dc:type rdf:resource="http://purl.org/dc/dcmitype/StillImage"/>
    <dc:date>2022-02-22T13:42:37.232390</dc:date>
    <dc:format>image/svg+xml</dc:format>
    <dc:creator>
     <cc:Agent>
      <dc:title>Matplotlib v3.4.1, https://matplotlib.org/</dc:title>
     </cc:Agent>
    </dc:creator>
   </cc:Work>
  </rdf:RDF>
 </metadata>
 <defs>
  <style type="text/css">*{stroke-linecap:butt;stroke-linejoin:round;}</style>
 </defs>
 <g id="figure_1">
  <g id="patch_1">
   <path d="M 0 432 
L 720 432 
L 720 0 
L 0 0 
z
" style="fill:#ffffff;"/>
  </g>
  <g id="axes_1">
   <g id="patch_2">
    <path d="M 90 367.2 
L 648 367.2 
L 648 51.84 
L 90 51.84 
z
" style="fill:#ffffff;"/>
   </g>
   <g id="matplotlib.axis_1">
    <g id="xtick_1">
     <g id="text_1">
      <!-- $1k -->
      <g style="fill:#262626;" transform="translate(167.12032 393.110625)scale(0.22 -0.22)">
       <defs>
        <path d="M 3635 1184 
Q 3635 691 3257 348 
Q 2880 6 2150 -32 
L 2150 -768 
L 1830 -768 
L 1830 -38 
Q 1363 -13 950 144 
Q 538 301 301 544 
L 486 909 
Q 710 691 1072 544 
Q 1434 397 1830 371 
L 1830 2054 
Q 1389 2163 1094 2288 
Q 800 2413 605 2653 
Q 410 2893 410 3290 
Q 410 3782 768 4118 
Q 1126 4454 1830 4512 
L 1830 5248 
L 2150 5248 
L 2150 4518 
Q 2515 4506 2857 4400 
Q 3200 4294 3450 4122 
L 3290 3744 
Q 3027 3910 2732 4006 
Q 2438 4102 2150 4115 
L 2150 2419 
Q 2624 2304 2925 2185 
Q 3226 2067 3430 1824 
Q 3635 1581 3635 1184 
z
M 877 3302 
Q 877 2970 1123 2797 
Q 1370 2624 1830 2502 
L 1830 4102 
Q 1357 4064 1117 3843 
Q 877 3622 877 3302 
z
M 2150 371 
Q 2656 410 2912 621 
Q 3168 832 3168 1158 
Q 3168 1504 2905 1677 
Q 2643 1850 2150 1971 
L 2150 371 
z
" id="Montserrat-Regular-24" transform="scale(0.015625)"/>
        <path d="M 1574 4480 
L 1574 0 
L 1114 0 
L 1114 4070 
L 58 4070 
L 58 4480 
L 1574 4480 
z
" id="Montserrat-Regular-31" transform="scale(0.015625)"/>
        <path d="M 1882 1690 
L 1088 960 
L 1088 0 
L 634 0 
L 634 4749 
L 1088 4749 
L 1088 1530 
L 3098 3366 
L 3661 3366 
L 2221 1990 
L 3795 0 
L 3238 0 
L 1882 1690 
z
" id="Montserrat-Regular-6b" transform="scale(0.015625)"/>
       </defs>
       <use xlink:href="#Montserrat-Regular-24"/>
       <use x="61.499985" xlink:href="#Montserrat-Regular-31"/>
       <use x="97.599976" xlink:href="#Montserrat-Regular-6b"/>
      </g>
     </g>
    </g>
    <g id="xtick_2">
     <g id="text_2">
      <!-- $2k -->
      <g style="fill:#262626;" transform="translate(259.308921 393.110625)scale(0.22 -0.22)">
       <defs>
        <path d="M 3392 410 
L 3392 0 
L 250 0 
L 250 326 
L 2112 2150 
Q 2464 2496 2589 2749 
Q 2714 3002 2714 3258 
Q 2714 3654 2442 3875 
Q 2170 4096 1664 4096 
Q 877 4096 442 3597 
L 115 3878 
Q 378 4186 784 4352 
Q 1190 4518 1702 4518 
Q 2387 4518 2787 4195 
Q 3187 3872 3187 3309 
Q 3187 2963 3033 2643 
Q 2880 2323 2451 1907 
L 928 410 
L 3392 410 
z
" id="Montserrat-Regular-32" transform="scale(0.015625)"/>
       </defs>
       <use xlink:href="#Montserrat-Regular-24"/>
       <use x="61.499985" xlink:href="#Montserrat-Regular-32"/>
       <use x="118.299973" xlink:href="#Montserrat-Regular-6b"/>
      </g>
     </g>
    </g>
    <g id="xtick_3">
     <g id="text_3">
      <!-- $4k -->
      <g style="fill:#262626;" transform="translate(352.752209 393.110625)scale(0.22 -0.22)">
       <defs>
        <path d="M 4141 1178 
L 3245 1178 
L 3245 0 
L 2784 0 
L 2784 1178 
L 256 1178 
L 256 1510 
L 2630 4480 
L 3142 4480 
L 851 1587 
L 2797 1587 
L 2797 2624 
L 3245 2624 
L 3245 1587 
L 4141 1587 
L 4141 1178 
z
" id="Montserrat-Regular-34" transform="scale(0.015625)"/>
       </defs>
       <use xlink:href="#Montserrat-Regular-24"/>
       <use x="61.499985" xlink:href="#Montserrat-Regular-34"/>
       <use x="127.599976" xlink:href="#Montserrat-Regular-6b"/>
      </g>
     </g>
    </g>
    <g id="xtick_4">
     <g id="text_4">
      <!-- $8k -->
      <g style="fill:#262626;" transform="translate(447.47081 393.110625)scale(0.22 -0.22)">
       <defs>
        <path d="M 2899 2349 
Q 3322 2208 3549 1926 
Q 3776 1645 3776 1248 
Q 3776 858 3565 566 
Q 3354 275 2960 118 
Q 2566 -38 2035 -38 
Q 1229 -38 768 307 
Q 307 653 307 1248 
Q 307 1651 528 1929 
Q 749 2208 1171 2349 
Q 826 2483 646 2736 
Q 467 2989 467 3334 
Q 467 3878 892 4198 
Q 1318 4518 2035 4518 
Q 2509 4518 2864 4374 
Q 3219 4230 3417 3961 
Q 3616 3693 3616 3334 
Q 3616 2989 3430 2736 
Q 3245 2483 2899 2349 
z
M 928 3322 
Q 928 2950 1222 2732 
Q 1517 2515 2035 2515 
Q 2554 2515 2851 2732 
Q 3149 2950 3149 3315 
Q 3149 3693 2845 3910 
Q 2541 4128 2035 4128 
Q 1523 4128 1225 3910 
Q 928 3693 928 3322 
z
M 2035 352 
Q 2630 352 2966 595 
Q 3302 838 3302 1254 
Q 3302 1670 2966 1910 
Q 2630 2150 2035 2150 
Q 1446 2150 1110 1910 
Q 774 1670 774 1254 
Q 774 832 1107 592 
Q 1440 352 2035 352 
z
" id="Montserrat-Regular-38" transform="scale(0.015625)"/>
       </defs>
       <use xlink:href="#Montserrat-Regular-24"/>
       <use x="61.499985" xlink:href="#Montserrat-Regular-38"/>
       <use x="125.299973" xlink:href="#Montserrat-Regular-6b"/>
      </g>
     </g>
    </g>
    <g id="xtick_5">
     <g id="text_5">
      <!-- $16k -->
      <g style="fill:#262626;" transform="translate(538.284411 393.110625)scale(0.22 -0.22)">
       <defs>
        <path d="M 2189 2682 
Q 2630 2682 2972 2515 
Q 3315 2349 3507 2045 
Q 3699 1741 3699 1338 
Q 3699 928 3500 614 
Q 3302 301 2953 131 
Q 2605 -38 2170 -38 
Q 1280 -38 806 547 
Q 333 1133 333 2202 
Q 333 2950 589 3468 
Q 845 3987 1305 4252 
Q 1766 4518 2381 4518 
Q 3046 4518 3443 4275 
L 3258 3904 
Q 2938 4115 2387 4115 
Q 1645 4115 1222 3644 
Q 800 3174 800 2278 
Q 800 2118 819 1914 
Q 986 2278 1350 2480 
Q 1715 2682 2189 2682 
z
M 2150 352 
Q 2637 352 2941 617 
Q 3245 883 3245 1325 
Q 3245 1766 2941 2028 
Q 2637 2291 2118 2291 
Q 1779 2291 1520 2163 
Q 1261 2035 1113 1811 
Q 966 1587 966 1312 
Q 966 1056 1104 838 
Q 1242 621 1510 486 
Q 1779 352 2150 352 
z
" id="Montserrat-Regular-36" transform="scale(0.015625)"/>
       </defs>
       <use xlink:href="#Montserrat-Regular-24"/>
       <use x="61.499985" xlink:href="#Montserrat-Regular-31"/>
       <use x="97.599976" xlink:href="#Montserrat-Regular-36"/>
       <use x="158.499969" xlink:href="#Montserrat-Regular-6b"/>
      </g>
     </g>
    </g>
    <g id="xtick_6"/>
    <g id="xtick_7"/>
    <g id="xtick_8"/>
    <g id="xtick_9"/>
    <g id="xtick_10"/>
    <g id="xtick_11"/>
    <g id="xtick_12"/>
    <g id="xtick_13"/>
    <g id="xtick_14"/>
    <g id="xtick_15"/>
    <g id="xtick_16"/>
    <g id="xtick_17"/>
   </g>
   <g id="matplotlib.axis_2">
    <g id="ytick_1">
     <g id="text_6">
      <!-- −2 -->
      <g style="fill:#262626;" transform="translate(55.354687 357.842344)scale(0.22 -0.22)">
       <defs>
        <path d="M 448 2426 
L 3232 2426 
L 3232 2048 
L 448 2048 
L 448 2426 
z
" id="Montserrat-Regular-2212" transform="scale(0.015625)"/>
       </defs>
       <use xlink:href="#Montserrat-Regular-2212"/>
       <use x="57.499985" xlink:href="#Montserrat-Regular-32"/>
      </g>
     </g>
    </g>
    <g id="ytick_2">
     <g id="text_7">
      <!-- 0 -->
      <g style="fill:#262626;" transform="translate(65.935312 287.762344)scale(0.22 -0.22)">
       <defs>
        <path d="M 2118 -38 
Q 1600 -38 1193 237 
Q 787 512 560 1027 
Q 333 1542 333 2240 
Q 333 2938 560 3453 
Q 787 3968 1193 4243 
Q 1600 4518 2118 4518 
Q 2637 4518 3043 4243 
Q 3450 3968 3680 3453 
Q 3910 2938 3910 2240 
Q 3910 1542 3680 1027 
Q 3450 512 3043 237 
Q 2637 -38 2118 -38 
z
M 2118 384 
Q 2509 384 2806 601 
Q 3104 819 3270 1235 
Q 3437 1651 3437 2240 
Q 3437 2829 3270 3245 
Q 3104 3661 2806 3878 
Q 2509 4096 2118 4096 
Q 1728 4096 1430 3878 
Q 1133 3661 966 3245 
Q 800 2829 800 2240 
Q 800 1651 966 1235 
Q 1133 819 1430 601 
Q 1728 384 2118 384 
z
" id="Montserrat-Regular-30" transform="scale(0.015625)"/>
       </defs>
       <use xlink:href="#Montserrat-Regular-30"/>
      </g>
     </g>
    </g>
    <g id="ytick_3">
     <g id="text_8">
      <!-- 2 -->
      <g style="fill:#262626;" transform="translate(68.004688 217.682344)scale(0.22 -0.22)">
       <use xlink:href="#Montserrat-Regular-32"/>
      </g>
     </g>
    </g>
    <g id="ytick_4">
     <g id="text_9">
      <!-- 4 -->
      <g style="fill:#262626;" transform="translate(65.959375 147.602344)scale(0.22 -0.22)">
       <use xlink:href="#Montserrat-Regular-34"/>
      </g>
     </g>
    </g>
    <g id="ytick_5">
     <g id="text_10">
      <!-- 6 -->
      <g style="fill:#262626;" transform="translate(67.100625 77.522344)scale(0.22 -0.22)">
       <use xlink:href="#Montserrat-Regular-36"/>
      </g>
     </g>
    </g>
    <g id="text_11">
     <!-- mean yearly growth (%) -->
     <g style="fill:#262626;" transform="translate(46.577187 351.4725)rotate(-90)scale(0.24 -0.24)">
      <defs>
       <path d="M 4832 3392 
Q 5466 3392 5827 3027 
Q 6189 2662 6189 1952 
L 6189 0 
L 5734 0 
L 5734 1907 
Q 5734 2432 5481 2707 
Q 5229 2982 4768 2982 
Q 4243 2982 3942 2659 
Q 3642 2336 3642 1766 
L 3642 0 
L 3187 0 
L 3187 1907 
Q 3187 2432 2934 2707 
Q 2682 2982 2214 2982 
Q 1696 2982 1392 2659 
Q 1088 2336 1088 1766 
L 1088 0 
L 634 0 
L 634 3366 
L 1069 3366 
L 1069 2752 
Q 1248 3059 1568 3225 
Q 1888 3392 2304 3392 
Q 2726 3392 3036 3213 
Q 3347 3034 3501 2682 
Q 3686 3014 4035 3203 
Q 4384 3392 4832 3392 
z
" id="Montserrat-Regular-6d" transform="scale(0.015625)"/>
       <path d="M 3565 1542 
L 749 1542 
Q 787 1018 1152 694 
Q 1517 371 2074 371 
Q 2387 371 2649 483 
Q 2912 595 3104 813 
L 3360 518 
Q 3136 250 2800 109 
Q 2464 -32 2061 -32 
Q 1542 -32 1142 189 
Q 742 410 518 800 
Q 294 1190 294 1683 
Q 294 2176 508 2566 
Q 723 2957 1097 3174 
Q 1472 3392 1939 3392 
Q 2406 3392 2777 3174 
Q 3149 2957 3360 2569 
Q 3571 2182 3571 1683 
L 3565 1542 
z
M 1939 3002 
Q 1453 3002 1123 2691 
Q 794 2381 749 1882 
L 3136 1882 
Q 3091 2381 2761 2691 
Q 2432 3002 1939 3002 
z
" id="Montserrat-Regular-65" transform="scale(0.015625)"/>
       <path d="M 1811 3392 
Q 2470 3392 2822 3062 
Q 3174 2733 3174 2086 
L 3174 0 
L 2739 0 
L 2739 525 
Q 2586 262 2288 115 
Q 1990 -32 1581 -32 
Q 1018 -32 685 237 
Q 352 506 352 947 
Q 352 1376 662 1638 
Q 973 1901 1651 1901 
L 2720 1901 
L 2720 2106 
Q 2720 2541 2477 2768 
Q 2234 2995 1766 2995 
Q 1446 2995 1152 2889 
Q 858 2784 646 2598 
L 442 2938 
Q 698 3155 1056 3273 
Q 1414 3392 1811 3392 
z
M 1651 326 
Q 2035 326 2310 502 
Q 2586 678 2720 1011 
L 2720 1562 
L 1664 1562 
Q 800 1562 800 960 
Q 800 666 1024 496 
Q 1248 326 1651 326 
z
" id="Montserrat-Regular-61" transform="scale(0.015625)"/>
       <path d="M 2349 3392 
Q 2982 3392 3356 3024 
Q 3731 2656 3731 1952 
L 3731 0 
L 3277 0 
L 3277 1907 
Q 3277 2432 3014 2707 
Q 2752 2982 2266 2982 
Q 1722 2982 1405 2659 
Q 1088 2336 1088 1766 
L 1088 0 
L 634 0 
L 634 3366 
L 1069 3366 
L 1069 2746 
Q 1254 3053 1584 3222 
Q 1914 3392 2349 3392 
z
" id="Montserrat-Regular-6e" transform="scale(0.015625)"/>
       <path id="Montserrat-Regular-20" transform="scale(0.015625)"/>
       <path d="M 3462 3366 
L 1779 -403 
Q 1574 -877 1305 -1075 
Q 1037 -1274 659 -1274 
Q 416 -1274 205 -1197 
Q -6 -1120 -160 -966 
L 51 -627 
Q 307 -883 666 -883 
Q 896 -883 1059 -755 
Q 1222 -627 1363 -320 
L 1510 6 
L 6 3366 
L 480 3366 
L 1747 506 
L 3014 3366 
L 3462 3366 
z
" id="Montserrat-Regular-79" transform="scale(0.015625)"/>
       <path d="M 1069 2707 
Q 1229 3046 1545 3219 
Q 1862 3392 2330 3392 
L 2330 2950 
L 2221 2957 
Q 1690 2957 1389 2630 
Q 1088 2304 1088 1715 
L 1088 0 
L 634 0 
L 634 3366 
L 1069 3366 
L 1069 2707 
z
" id="Montserrat-Regular-72" transform="scale(0.015625)"/>
       <path d="M 634 4749 
L 1088 4749 
L 1088 0 
L 634 0 
L 634 4749 
z
" id="Montserrat-Regular-6c" transform="scale(0.015625)"/>
       <path d="M 3750 3366 
L 3750 410 
Q 3750 -448 3331 -861 
Q 2912 -1274 2067 -1274 
Q 1600 -1274 1181 -1136 
Q 762 -998 499 -755 
L 730 -410 
Q 973 -627 1321 -748 
Q 1670 -870 2054 -870 
Q 2694 -870 2995 -572 
Q 3296 -275 3296 352 
L 3296 781 
Q 3085 461 2742 294 
Q 2400 128 1984 128 
Q 1510 128 1123 336 
Q 736 544 515 918 
Q 294 1293 294 1766 
Q 294 2240 515 2611 
Q 736 2982 1120 3187 
Q 1504 3392 1984 3392 
Q 2413 3392 2758 3219 
Q 3104 3046 3315 2720 
L 3315 3366 
L 3750 3366 
z
M 2029 531 
Q 2394 531 2688 688 
Q 2982 845 3145 1126 
Q 3309 1408 3309 1766 
Q 3309 2125 3145 2403 
Q 2982 2682 2691 2838 
Q 2400 2995 2029 2995 
Q 1664 2995 1373 2841 
Q 1082 2688 918 2406 
Q 755 2125 755 1766 
Q 755 1408 918 1126 
Q 1082 845 1373 688 
Q 1664 531 2029 531 
z
" id="Montserrat-Regular-67" transform="scale(0.015625)"/>
       <path d="M 2010 -32 
Q 1523 -32 1132 189 
Q 742 410 518 800 
Q 294 1190 294 1683 
Q 294 2176 518 2566 
Q 742 2957 1132 3174 
Q 1523 3392 2010 3392 
Q 2496 3392 2886 3174 
Q 3277 2957 3497 2566 
Q 3718 2176 3718 1683 
Q 3718 1190 3497 800 
Q 3277 410 2886 189 
Q 2496 -32 2010 -32 
z
M 2010 371 
Q 2368 371 2653 534 
Q 2938 698 3098 998 
Q 3258 1299 3258 1683 
Q 3258 2067 3098 2368 
Q 2938 2669 2653 2832 
Q 2368 2995 2010 2995 
Q 1651 2995 1366 2832 
Q 1082 2669 918 2368 
Q 755 2067 755 1683 
Q 755 1299 918 998 
Q 1082 698 1366 534 
Q 1651 371 2010 371 
z
" id="Montserrat-Regular-6f" transform="scale(0.015625)"/>
       <path d="M 5574 3366 
L 4301 0 
L 3872 0 
L 2810 2758 
L 1747 0 
L 1318 0 
L 51 3366 
L 486 3366 
L 1542 506 
L 2624 3366 
L 3014 3366 
L 4090 506 
L 5158 3366 
L 5574 3366 
z
" id="Montserrat-Regular-77" transform="scale(0.015625)"/>
       <path d="M 2406 205 
Q 2278 90 2089 29 
Q 1901 -32 1696 -32 
Q 1222 -32 966 224 
Q 710 480 710 947 
L 710 2982 
L 109 2982 
L 109 3366 
L 710 3366 
L 710 4102 
L 1165 4102 
L 1165 3366 
L 2189 3366 
L 2189 2982 
L 1165 2982 
L 1165 973 
Q 1165 672 1315 515 
Q 1466 358 1747 358 
Q 1888 358 2019 403 
Q 2150 448 2246 531 
L 2406 205 
z
" id="Montserrat-Regular-74" transform="scale(0.015625)"/>
       <path d="M 2349 3392 
Q 2982 3392 3356 3024 
Q 3731 2656 3731 1952 
L 3731 0 
L 3277 0 
L 3277 1907 
Q 3277 2432 3014 2707 
Q 2752 2982 2266 2982 
Q 1722 2982 1405 2659 
Q 1088 2336 1088 1766 
L 1088 0 
L 634 0 
L 634 4749 
L 1088 4749 
L 1088 2778 
Q 1274 3072 1600 3232 
Q 1926 3392 2349 3392 
z
" id="Montserrat-Regular-68" transform="scale(0.015625)"/>
       <path d="M 1408 -1242 
Q 1050 -653 858 112 
Q 666 877 666 1754 
Q 666 2630 858 3401 
Q 1050 4173 1408 4749 
L 1843 4749 
Q 1466 4102 1290 3360 
Q 1114 2618 1114 1754 
Q 1114 890 1290 147 
Q 1466 -595 1843 -1242 
L 1408 -1242 
z
" id="Montserrat-Regular-28" transform="scale(0.015625)"/>
       <path d="M 1280 2080 
Q 826 2080 547 2416 
Q 269 2752 269 3296 
Q 269 3840 547 4176 
Q 826 4512 1280 4512 
Q 1728 4512 2009 4179 
Q 2291 3846 2291 3296 
Q 2291 2746 2009 2413 
Q 1728 2080 1280 2080 
z
M 3994 4480 
L 4371 4480 
L 1312 0 
L 934 0 
L 3994 4480 
z
M 1280 2368 
Q 1594 2368 1782 2614 
Q 1971 2861 1971 3296 
Q 1971 3731 1782 3977 
Q 1594 4224 1280 4224 
Q 960 4224 774 3974 
Q 589 3725 589 3296 
Q 589 2867 774 2617 
Q 960 2368 1280 2368 
z
M 4026 -32 
Q 3578 -32 3296 304 
Q 3014 640 3014 1184 
Q 3014 1728 3296 2064 
Q 3578 2400 4026 2400 
Q 4480 2400 4758 2064 
Q 5037 1728 5037 1184 
Q 5037 640 4758 304 
Q 4480 -32 4026 -32 
z
M 4026 256 
Q 4346 256 4531 505 
Q 4717 755 4717 1184 
Q 4717 1613 4531 1862 
Q 4346 2112 4026 2112 
Q 3712 2112 3523 1865 
Q 3334 1619 3334 1184 
Q 3334 749 3523 502 
Q 3712 256 4026 256 
z
" id="Montserrat-Regular-25" transform="scale(0.015625)"/>
       <path d="M 256 -1242 
Q 634 -595 813 144 
Q 992 883 992 1754 
Q 992 2624 813 3363 
Q 634 4102 256 4749 
L 691 4749 
Q 1050 4173 1245 3401 
Q 1440 2630 1440 1754 
Q 1440 877 1248 109 
Q 1056 -659 691 -1242 
L 256 -1242 
z
" id="Montserrat-Regular-29" transform="scale(0.015625)"/>
      </defs>
      <use xlink:href="#Montserrat-Regular-6d"/>
      <use x="106.099991" xlink:href="#Montserrat-Regular-65"/>
      <use x="166.499985" xlink:href="#Montserrat-Regular-61"/>
      <use x="225.499969" xlink:href="#Montserrat-Regular-6e"/>
      <use x="293.199951" xlink:href="#Montserrat-Regular-20"/>
      <use x="319.399948" xlink:href="#Montserrat-Regular-79"/>
      <use x="373.599945" xlink:href="#Montserrat-Regular-65"/>
      <use x="433.999939" xlink:href="#Montserrat-Regular-61"/>
      <use x="492.999924" xlink:href="#Montserrat-Regular-72"/>
      <use x="533.099915" xlink:href="#Montserrat-Regular-6c"/>
      <use x="559.999908" xlink:href="#Montserrat-Regular-79"/>
      <use x="614.199905" xlink:href="#Montserrat-Regular-20"/>
      <use x="640.399902" xlink:href="#Montserrat-Regular-67"/>
      <use x="708.999893" xlink:href="#Montserrat-Regular-72"/>
      <use x="749.099884" xlink:href="#Montserrat-Regular-6f"/>
      <use x="811.799881" xlink:href="#Montserrat-Regular-77"/>
      <use x="899.699875" xlink:href="#Montserrat-Regular-74"/>
      <use x="940.299866" xlink:href="#Montserrat-Regular-68"/>
      <use x="1007.999847" xlink:href="#Montserrat-Regular-20"/>
      <use x="1034.199844" xlink:href="#Montserrat-Regular-28"/>
      <use x="1067.099838" xlink:href="#Montserrat-Regular-25"/>
      <use x="1149.999832" xlink:href="#Montserrat-Regular-29"/>
     </g>
    </g>
   </g>
   <g id="line2d_1"/>
   <g id="line2d_2"/>
   <g id="line2d_3">
    <defs>
     <path d="M 0 1.333086 
C 0.353539 1.333086 0.692645 1.192624 0.942634 0.942634 
C 1.192624 0.692645 1.333086 0.353539 1.333086 0 
C 1.333086 -0.353539 1.192624 -0.692645 0.942634 -0.942634 
C 0.692645 -1.192624 0.353539 -1.333086 0 -1.333086 
C -0.353539 -1.333086 -0.692645 -1.192624 -0.942634 -0.942634 
C -1.192624 -0.692645 -1.333086 -0.353539 -1.333086 0 
C -1.333086 0.353539 -1.192624 0.692645 -0.942634 0.942634 
C -0.692645 1.192624 -0.353539 1.333086 0 1.333086 
z
" id="m4b2940a8c4" style="stroke:#000000;stroke-opacity:0;"/>
    </defs>
    <g clip-path="url(#p605191485c)">
     <use style="fill:#696969;fill-opacity:0.8;stroke:#000000;stroke-opacity:0;" x="137.981281" xlink:href="#m4b2940a8c4" y="237.437148"/>
    </g>
   </g>
   <g id="line2d_4"/>
   <g id="line2d_5">
    <defs>
     <path d="M 0 4.110471 
C 1.09011 4.110471 2.135718 3.677366 2.906542 2.906542 
C 3.677366 2.135718 4.110471 1.09011 4.110471 0 
C 4.110471 -1.09011 3.677366 -2.135718 2.906542 -2.906542 
C 2.135718 -3.677366 1.09011 -4.110471 0 -4.110471 
C -1.09011 -4.110471 -2.135718 -3.677366 -2.906542 -2.906542 
C -3.677366 -2.135718 -4.110471 -1.09011 -4.110471 0 
C -4.110471 1.09011 -3.677366 2.135718 -2.906542 2.906542 
C -2.135718 3.677366 -1.09011 4.110471 0 4.110471 
z
" id="mcd7d331724" style="stroke:#000000;stroke-opacity:0;"/>
    </defs>
    <g clip-path="url(#p605191485c)">
     <use style="fill:#448653;fill-opacity:0.8;stroke:#000000;stroke-opacity:0;" x="300.329232" xlink:href="#mcd7d331724" y="218.72996"/>
    </g>
   </g>
   <g id="line2d_6"/>
   <g id="line2d_7">
    <defs>
     <path d="M 0 3.19633 
C 0.847677 3.19633 1.660749 2.859545 2.260147 2.260147 
C 2.859545 1.660749 3.19633 0.847677 3.19633 0 
C 3.19633 -0.847677 2.859545 -1.660749 2.260147 -2.260147 
C 1.660749 -2.859545 0.847677 -3.19633 0 -3.19633 
C -0.847677 -3.19633 -1.660749 -2.859545 -2.260147 -2.260147 
C -2.859545 -1.660749 -3.19633 -0.847677 -3.19633 0 
C -3.19633 0.847677 -2.859545 1.660749 -2.260147 2.260147 
C -1.660749 2.859545 -0.847677 3.19633 0 3.19633 
z
" id="m3609c09740" style="stroke:#000000;stroke-opacity:0;"/>
    </defs>
    <g clip-path="url(#p605191485c)">
     <use style="fill:#696969;fill-opacity:0.8;stroke:#000000;stroke-opacity:0;" x="409.599114" xlink:href="#m3609c09740" y="253.162534"/>
    </g>
   </g>
   <g id="line2d_8">
    <defs>
     <path d="M 0 3.508313 
C 0.930416 3.508313 1.822849 3.138655 2.480752 2.480752 
C 3.138655 1.822849 3.508313 0.930416 3.508313 0 
C 3.508313 -0.930416 3.138655 -1.822849 2.480752 -2.480752 
C 1.822849 -3.138655 0.930416 -3.508313 0 -3.508313 
C -0.930416 -3.508313 -1.822849 -3.138655 -2.480752 -2.480752 
C -3.138655 -1.822849 -3.508313 -0.930416 -3.508313 0 
C -3.508313 0.930416 -3.138655 1.822849 -2.480752 2.480752 
C -1.822849 3.138655 -0.930416 3.508313 0 3.508313 
z
" id="m5a45bf7d0a" style="stroke:#000000;stroke-opacity:0;"/>
    </defs>
    <g clip-path="url(#p605191485c)">
     <use style="fill:#696969;fill-opacity:0.8;stroke:#000000;stroke-opacity:0;" x="332.821209" xlink:href="#m5a45bf7d0a" y="261.457722"/>
    </g>
   </g>
   <g id="line2d_9"/>
   <g id="line2d_10"/>
   <g id="line2d_11">
    <defs>
     <path d="M 0 3.794733 
C 1.006375 3.794733 1.971667 3.394896 2.683282 2.683282 
C 3.394896 1.971667 3.794733 1.006375 3.794733 0 
C 3.794733 -1.006375 3.394896 -1.971667 2.683282 -2.683282 
C 1.971667 -3.394896 1.006375 -3.794733 0 -3.794733 
C -1.006375 -3.794733 -1.971667 -3.394896 -2.683282 -2.683282 
C -3.394896 -1.971667 -3.794733 -1.006375 -3.794733 0 
C -3.794733 1.006375 -3.394896 1.971667 -2.683282 2.683282 
C -1.971667 3.394896 -1.006375 3.794733 0 3.794733 
z
" id="mbfcd1c8a7c" style="stroke:#000000;stroke-opacity:0;"/>
    </defs>
    <g clip-path="url(#p605191485c)">
     <use style="fill:#696969;fill-opacity:0.8;stroke:#000000;stroke-opacity:0;" x="382.968547" xlink:href="#mbfcd1c8a7c" y="252.415624"/>
    </g>
   </g>
   <g id="line2d_12"/>
   <g id="line2d_13"/>
   <g id="line2d_14"/>
   <g id="line2d_15">
    <defs>
     <path d="M 0 3.109853 
C 0.824743 3.109853 1.615817 2.782179 2.198998 2.198998 
C 2.782179 1.615817 3.109853 0.824743 3.109853 0 
C 3.109853 -0.824743 2.782179 -1.615817 2.198998 -2.198998 
C 1.615817 -2.782179 0.824743 -3.109853 0 -3.109853 
C -0.824743 -3.109853 -1.615817 -2.782179 -2.198998 -2.198998 
C -2.782179 -1.615817 -3.109853 -0.824743 -3.109853 0 
C -3.109853 0.824743 -2.782179 1.615817 -2.198998 2.198998 
C -1.615817 2.782179 -0.824743 3.109853 0 3.109853 
z
" id="medbc81524f" style="stroke:#000000;stroke-opacity:0;"/>
    </defs>
    <g clip-path="url(#p605191485c)">
     <use style="fill:#696969;fill-opacity:0.8;stroke:#000000;stroke-opacity:0;" x="224.25084" xlink:href="#medbc81524f" y="267.362087"/>
    </g>
   </g>
   <g id="line2d_16"/>
   <g id="line2d_17"/>
   <g id="line2d_18"/>
   <g id="line2d_19">
    <defs>
     <path d="M 0 2.018138 
C 0.535216 2.018138 1.048584 1.805494 1.427039 1.427039 
C 1.805494 1.048584 2.018138 0.535216 2.018138 0 
C 2.018138 -0.535216 1.805494 -1.048584 1.427039 -1.427039 
C 1.048584 -1.805494 0.535216 -2.018138 0 -2.018138 
C -0.535216 -2.018138 -1.048584 -1.805494 -1.427039 -1.427039 
C -1.805494 -1.048584 -2.018138 -0.535216 -2.018138 0 
C -2.018138 0.535216 -1.805494 1.048584 -1.427039 1.427039 
C -1.048584 1.805494 -0.535216 2.018138 0 2.018138 
z
" id="mffe1ac8713" style="stroke:#000000;stroke-opacity:0;"/>
    </defs>
    <g clip-path="url(#p605191485c)">
     <use style="fill:#448653;fill-opacity:0.8;stroke:#000000;stroke-opacity:0;" x="0" xlink:href="#mffe1ac8713" y="0"/>
    </g>
   </g>
   <g id="line2d_20">
    <defs>
     <path d="M 0 7.228651 
C 1.917061 7.228651 3.755861 6.466994 5.111428 5.111428 
C 6.466994 3.755861 7.228651 1.917061 7.228651 0 
C 7.228651 -1.917061 6.466994 -3.755861 5.111428 -5.111428 
C 3.755861 -6.466994 1.917061 -7.228651 0 -7.228651 
C -1.917061 -7.228651 -3.755861 -6.466994 -5.111428 -5.111428 
C -6.466994 -3.755861 -7.228651 -1.917061 -7.228651 0 
C -7.228651 1.917061 -6.466994 3.755861 -5.111428 5.111428 
C -3.755861 6.466994 -1.917061 7.228651 0 7.228651 
z
" id="mc6f6173daa" style="stroke:#000000;stroke-opacity:0;"/>
    </defs>
    <g clip-path="url(#p605191485c)">
     <use style="fill:#448653;fill-opacity:0.8;stroke:#000000;stroke-opacity:0;" x="195.458451" xlink:href="#mc6f6173daa" y="270.051573"/>
    </g>
   </g>
   <g id="line2d_21"/>
   <g id="line2d_22"/>
   <g id="line2d_23"/>
   <g id="line2d_24">
    <defs>
     <path d="M 0 4.095833 
C 1.086228 4.095833 2.128112 3.66427 2.896191 2.896191 
C 3.66427 2.128112 4.095833 1.086228 4.095833 0 
C 4.095833 -1.086228 3.66427 -2.128112 2.896191 -2.896191 
C 2.128112 -3.66427 1.086228 -4.095833 0 -4.095833 
C -1.086228 -4.095833 -2.128112 -3.66427 -2.896191 -2.896191 
C -3.66427 -2.128112 -4.095833 -1.086228 -4.095833 0 
C -4.095833 1.086228 -3.66427 2.128112 -2.896191 2.896191 
C -2.128112 3.66427 -1.086228 4.095833 0 4.095833 
z
" id="m0ad36a85e3" style="stroke:#000000;stroke-opacity:0;"/>
    </defs>
    <g clip-path="url(#p605191485c)">
     <use style="fill:#696969;fill-opacity:0.8;stroke:#000000;stroke-opacity:0;" x="319.932724" xlink:href="#m0ad36a85e3" y="221.439033"/>
    </g>
   </g>
   <g id="line2d_25">
    <defs>
     <path d="M 0 2.718931 
C 0.721069 2.718931 1.412702 2.432447 1.922574 1.922574 
C 2.432447 1.412702 2.718931 0.721069 2.718931 0 
C 2.718931 -0.721069 2.432447 -1.412702 1.922574 -1.922574 
C 1.412702 -2.432447 0.721069 -2.718931 0 -2.718931 
C -0.721069 -2.718931 -1.412702 -2.432447 -1.922574 -1.922574 
C -2.432447 -1.412702 -2.718931 -0.721069 -2.718931 0 
C -2.718931 0.721069 -2.432447 1.412702 -1.922574 1.922574 
C -1.412702 2.432447 -0.721069 2.718931 0 2.718931 
z
" id="m5b744ee2f6" style="stroke:#000000;stroke-opacity:0;"/>
    </defs>
    <g clip-path="url(#p605191485c)">
     <use style="fill:#696969;fill-opacity:0.8;stroke:#000000;stroke-opacity:0;" x="332.102395" xlink:href="#m5b744ee2f6" y="215.007087"/>
    </g>
   </g>
   <g id="line2d_26">
    <defs>
     <path d="M 0 2.664384 
C 0.706603 2.664384 1.38436 2.383647 1.884004 1.884004 
C 2.383647 1.38436 2.664384 0.706603 2.664384 0 
C 2.664384 -0.706603 2.383647 -1.38436 1.884004 -1.884004 
C 1.38436 -2.383647 0.706603 -2.664384 0 -2.664384 
C -0.706603 -2.664384 -1.38436 -2.383647 -1.884004 -1.884004 
C -2.383647 -1.38436 -2.664384 -0.706603 -2.664384 0 
C -2.664384 0.706603 -2.383647 1.38436 -1.884004 1.884004 
C -1.38436 2.383647 -0.706603 2.664384 0 2.664384 
z
" id="mee23a82887" style="stroke:#000000;stroke-opacity:0;"/>
    </defs>
    <g clip-path="url(#p605191485c)">
     <use style="fill:#448653;fill-opacity:0.8;stroke:#000000;stroke-opacity:0;" x="269.62647" xlink:href="#mee23a82887" y="221.54804"/>
    </g>
   </g>
   <g id="line2d_27">
    <defs>
     <path d="M 0 30 
C 7.956093 30 15.587396 26.839011 21.213203 21.213203 
C 26.839011 15.587396 30 7.956093 30 0 
C 30 -7.956093 26.839011 -15.587396 21.213203 -21.213203 
C 15.587396 -26.839011 7.956093 -30 0 -30 
C -7.956093 -30 -15.587396 -26.839011 -21.213203 -21.213203 
C -26.839011 -15.587396 -30 -7.956093 -30 0 
C -30 7.956093 -26.839011 15.587396 -21.213203 21.213203 
C -15.587396 26.839011 -7.956093 30 0 30 
z
" id="mf6fd593952" style="stroke:#000000;stroke-opacity:0;"/>
    </defs>
    <g clip-path="url(#p605191485c)">
     <use style="fill:#9d3e42;fill-opacity:0.8;stroke:#000000;stroke-opacity:0;" x="176.756223" xlink:href="#mf6fd593952" y="276.693509"/>
    </g>
   </g>
   <g id="line2d_28"/>
   <g id="line2d_29"/>
   <g id="line2d_30"/>
   <g id="line2d_31"/>
   <g id="line2d_32">
    <defs>
     <path d="M 0 3.441921 
C 0.912808 3.441921 1.788353 3.079259 2.433806 2.433806 
C 3.079259 1.788353 3.441921 0.912808 3.441921 0 
C 3.441921 -0.912808 3.079259 -1.788353 2.433806 -2.433806 
C 1.788353 -3.079259 0.912808 -3.441921 0 -3.441921 
C -0.912808 -3.441921 -1.788353 -3.079259 -2.433806 -2.433806 
C -3.079259 -1.788353 -3.441921 -0.912808 -3.441921 0 
C -3.441921 0.912808 -3.079259 1.788353 -2.433806 2.433806 
C -1.788353 3.079259 -0.912808 3.441921 0 3.441921 
z
" id="m0de3b3e1f7" style="stroke:#000000;stroke-opacity:0;"/>
    </defs>
    <g clip-path="url(#p605191485c)">
     <use style="fill:#448653;fill-opacity:0.8;stroke:#000000;stroke-opacity:0;" x="194.702008" xlink:href="#m0de3b3e1f7" y="247.240626"/>
    </g>
   </g>
   <g id="line2d_33"/>
   <g id="line2d_34"/>
   <g id="line2d_35">
    <defs>
     <path d="M 0 0.894901 
C 0.23733 0.894901 0.464972 0.800608 0.63279 0.63279 
C 0.800608 0.464972 0.894901 0.23733 0.894901 0 
C 0.894901 -0.23733 0.800608 -0.464972 0.63279 -0.63279 
C 0.464972 -0.800608 0.23733 -0.894901 0 -0.894901 
C -0.23733 -0.894901 -0.464972 -0.800608 -0.63279 -0.63279 
C -0.800608 -0.464972 -0.894901 -0.23733 -0.894901 0 
C -0.894901 0.23733 -0.800608 0.464972 -0.63279 0.63279 
C -0.464972 0.800608 -0.23733 0.894901 0 0.894901 
z
" id="m656022f445" style="stroke:#000000;stroke-opacity:0;"/>
    </defs>
    <g clip-path="url(#p605191485c)">
     <use style="fill:#448653;fill-opacity:0.8;stroke:#000000;stroke-opacity:0;" x="0" xlink:href="#m656022f445" y="0"/>
    </g>
   </g>
   <g id="line2d_36">
    <defs>
     <path d="M 0 4.974746 
C 1.319318 4.974746 2.584778 4.450575 3.517676 3.517676 
C 4.450575 2.584778 4.974746 1.319318 4.974746 0 
C 4.974746 -1.319318 4.450575 -2.584778 3.517676 -3.517676 
C 2.584778 -4.450575 1.319318 -4.974746 0 -4.974746 
C -1.319318 -4.974746 -2.584778 -4.450575 -3.517676 -3.517676 
C -4.450575 -2.584778 -4.974746 -1.319318 -4.974746 0 
C -4.974746 1.319318 -4.450575 2.584778 -3.517676 3.517676 
C -2.584778 4.450575 -1.319318 4.974746 0 4.974746 
z
" id="m2a0d7b06c8" style="stroke:#000000;stroke-opacity:0;"/>
    </defs>
    <g clip-path="url(#p605191485c)">
     <use style="fill:#448653;fill-opacity:0.8;stroke:#000000;stroke-opacity:0;" x="268.6747" xlink:href="#m2a0d7b06c8" y="243.862529"/>
    </g>
   </g>
   <g id="line2d_37">
    <defs>
     <path d="M 0 2.390527 
C 0.633975 2.390527 1.24207 2.138646 1.690358 1.690358 
C 2.138646 1.24207 2.390527 0.633975 2.390527 0 
C 2.390527 -0.633975 2.138646 -1.24207 1.690358 -1.690358 
C 1.24207 -2.138646 0.633975 -2.390527 0 -2.390527 
C -0.633975 -2.390527 -1.24207 -2.138646 -1.690358 -1.690358 
C -2.138646 -1.24207 -2.390527 -0.633975 -2.390527 0 
C -2.390527 0.633975 -2.138646 1.24207 -1.690358 1.690358 
C -1.24207 2.138646 -0.633975 2.390527 0 2.390527 
z
" id="m0a13d0936f" style="stroke:#000000;stroke-opacity:0;"/>
    </defs>
    <g clip-path="url(#p605191485c)">
     <use style="fill:#448653;fill-opacity:0.8;stroke:#000000;stroke-opacity:0;" x="193.431863" xlink:href="#m0a13d0936f" y="223.051471"/>
    </g>
   </g>
   <g id="line2d_38"/>
   <g id="line2d_39"/>
   <g id="line2d_40">
    <defs>
     <path d="M 0 10.775502 
C 2.857697 10.775502 5.598734 9.640127 7.61943 7.61943 
C 9.640127 5.598734 10.775502 2.857697 10.775502 0 
C 10.775502 -2.857697 9.640127 -5.598734 7.61943 -7.61943 
C 5.598734 -9.640127 2.857697 -10.775502 0 -10.775502 
C -2.857697 -10.775502 -5.598734 -9.640127 -7.61943 -7.61943 
C -9.640127 -5.598734 -10.775502 -2.857697 -10.775502 0 
C -10.775502 2.857697 -9.640127 5.598734 -7.61943 7.61943 
C -5.598734 9.640127 -2.857697 10.775502 0 10.775502 
z
" id="m9cd9a0cbd7" style="stroke:#000000;stroke-opacity:0;"/>
    </defs>
    <g clip-path="url(#p605191485c)">
     <use style="fill:#696969;fill-opacity:0.8;stroke:#000000;stroke-opacity:0;" x="331.019747" xlink:href="#m9cd9a0cbd7" y="250.103758"/>
    </g>
   </g>
   <g id="line2d_41"/>
   <g id="line2d_42">
    <defs>
     <path d="M 0 0.190339 
C 0.050478 0.190339 0.098896 0.170283 0.13459 0.13459 
C 0.170283 0.098896 0.190339 0.050478 0.190339 0 
C 0.190339 -0.050478 0.170283 -0.098896 0.13459 -0.13459 
C 0.098896 -0.170283 0.050478 -0.190339 0 -0.190339 
C -0.050478 -0.190339 -0.098896 -0.170283 -0.13459 -0.13459 
C -0.170283 -0.098896 -0.190339 -0.050478 -0.190339 0 
C -0.190339 0.050478 -0.170283 0.098896 -0.13459 0.13459 
C -0.098896 0.170283 -0.050478 0.190339 0 0.190339 
z
" id="mad38223b17" style="stroke:#000000;stroke-opacity:0;"/>
    </defs>
    <g clip-path="url(#p605191485c)">
     <use style="fill:#448653;fill-opacity:0.8;stroke:#000000;stroke-opacity:0;" x="0" xlink:href="#mad38223b17" y="0"/>
    </g>
   </g>
   <g id="line2d_43">
    <defs>
     <path d="M 0 2.486318 
C 0.659379 2.486318 1.291841 2.224344 1.758093 1.758093 
C 2.224344 1.291841 2.486318 0.659379 2.486318 0 
C 2.486318 -0.659379 2.224344 -1.291841 1.758093 -1.758093 
C 1.291841 -2.224344 0.659379 -2.486318 0 -2.486318 
C -0.659379 -2.486318 -1.291841 -2.224344 -1.758093 -1.758093 
C -2.224344 -1.291841 -2.486318 -0.659379 -2.486318 0 
C -2.486318 0.659379 -2.224344 1.291841 -1.758093 1.758093 
C -1.291841 2.224344 -0.659379 2.486318 0 2.486318 
z
" id="m21084697f1" style="stroke:#000000;stroke-opacity:0;"/>
    </defs>
    <g clip-path="url(#p605191485c)">
     <use style="fill:#696969;fill-opacity:0.8;stroke:#000000;stroke-opacity:0;" x="342.688141" xlink:href="#m21084697f1" y="230.942361"/>
    </g>
   </g>
   <g id="line2d_44"/>
   <g id="line2d_45"/>
   <g id="line2d_46">
    <defs>
     <path d="M 0 1.847467 
C 0.489954 1.847467 0.959907 1.652807 1.306357 1.306357 
C 1.652807 0.959907 1.847467 0.489954 1.847467 0 
C 1.847467 -0.489954 1.652807 -0.959907 1.306357 -1.306357 
C 0.959907 -1.652807 0.489954 -1.847467 0 -1.847467 
C -0.489954 -1.847467 -0.959907 -1.652807 -1.306357 -1.306357 
C -1.652807 -0.959907 -1.847467 -0.489954 -1.847467 0 
C -1.847467 0.489954 -1.652807 0.959907 -1.306357 1.306357 
C -0.959907 1.652807 -0.489954 1.847467 0 1.847467 
z
" id="m2df4486906" style="stroke:#000000;stroke-opacity:0;"/>
    </defs>
    <g clip-path="url(#p605191485c)">
     <use style="fill:#448653;fill-opacity:0.8;stroke:#000000;stroke-opacity:0;" x="147.064168" xlink:href="#m2df4486906" y="223.567102"/>
    </g>
   </g>
   <g id="line2d_47"/>
   <g id="line2d_48">
    <defs>
     <path d="M 0 6.362762 
C 1.687424 6.362762 3.305963 5.692342 4.499152 4.499152 
C 5.692342 3.305963 6.362762 1.687424 6.362762 0 
C 6.362762 -1.687424 5.692342 -3.305963 4.499152 -4.499152 
C 3.305963 -5.692342 1.687424 -6.362762 0 -6.362762 
C -1.687424 -6.362762 -3.305963 -5.692342 -4.499152 -4.499152 
C -5.692342 -3.305963 -6.362762 -1.687424 -6.362762 0 
C -6.362762 1.687424 -5.692342 3.305963 -4.499152 4.499152 
C -3.305963 5.692342 -1.687424 6.362762 0 6.362762 
z
" id="m1e3b3ee349" style="stroke:#000000;stroke-opacity:0;"/>
    </defs>
    <g clip-path="url(#p605191485c)">
     <use style="fill:#696969;fill-opacity:0.8;stroke:#000000;stroke-opacity:0;" x="265.252503" xlink:href="#m1e3b3ee349" y="238.431"/>
    </g>
   </g>
   <g id="line2d_49"/>
   <g id="line2d_50"/>
   <g id="line2d_51">
    <defs>
     <path d="M 0 2.444165 
C 0.6482 2.444165 1.269939 2.186632 1.728285 1.728285 
C 2.186632 1.269939 2.444165 0.6482 2.444165 0 
C 2.444165 -0.6482 2.186632 -1.269939 1.728285 -1.728285 
C 1.269939 -2.186632 0.6482 -2.444165 0 -2.444165 
C -0.6482 -2.444165 -1.269939 -2.186632 -1.728285 -1.728285 
C -2.186632 -1.269939 -2.444165 -0.6482 -2.444165 0 
C -2.444165 0.6482 -2.186632 1.269939 -1.728285 1.728285 
C -1.269939 2.186632 -0.6482 2.444165 0 2.444165 
z
" id="m66b85eab47" style="stroke:#000000;stroke-opacity:0;"/>
    </defs>
    <g clip-path="url(#p605191485c)">
     <use style="fill:#696969;fill-opacity:0.8;stroke:#000000;stroke-opacity:0;" x="265.853875" xlink:href="#m66b85eab47" y="245.664978"/>
    </g>
   </g>
   <g id="line2d_52">
    <defs>
     <path d="M 0 8.62348 
C 2.286974 8.62348 4.480587 7.714856 6.097721 6.097721 
C 7.714856 4.480587 8.62348 2.286974 8.62348 0 
C 8.62348 -2.286974 7.714856 -4.480587 6.097721 -6.097721 
C 4.480587 -7.714856 2.286974 -8.62348 0 -8.62348 
C -2.286974 -8.62348 -4.480587 -7.714856 -6.097721 -6.097721 
C -7.714856 -4.480587 -8.62348 -2.286974 -8.62348 0 
C -8.62348 2.286974 -7.714856 4.480587 -6.097721 6.097721 
C -4.480587 7.714856 -2.286974 8.62348 0 8.62348 
z
" id="m1dc57d8ca3" style="stroke:#000000;stroke-opacity:0;"/>
    </defs>
    <g clip-path="url(#p605191485c)">
     <use style="fill:#696969;fill-opacity:0.8;stroke:#000000;stroke-opacity:0;" x="333.73588" xlink:href="#m1dc57d8ca3" y="241.370522"/>
    </g>
   </g>
   <g id="line2d_53"/>
   <g id="line2d_54">
    <defs>
     <path d="M 0 9.448668 
C 2.505816 9.448668 4.909338 8.453097 6.681217 6.681217 
C 8.453097 4.909338 9.448668 2.505816 9.448668 0 
C 9.448668 -2.505816 8.453097 -4.909338 6.681217 -6.681217 
C 4.909338 -8.453097 2.505816 -9.448668 0 -9.448668 
C -2.505816 -9.448668 -4.909338 -8.453097 -6.681217 -6.681217 
C -8.453097 -4.909338 -9.448668 -2.505816 -9.448668 0 
C -9.448668 2.505816 -8.453097 4.909338 -6.681217 6.681217 
C -4.909338 8.453097 -2.505816 9.448668 0 9.448668 
z
" id="ma784052b44" style="stroke:#000000;stroke-opacity:0;"/>
    </defs>
    <g clip-path="url(#p605191485c)">
     <use style="fill:#696969;fill-opacity:0.8;stroke:#000000;stroke-opacity:0;" x="424.716307" xlink:href="#ma784052b44" y="266.576697"/>
    </g>
   </g>
   <g id="line2d_55"/>
   <g id="line2d_56"/>
   <g id="line2d_57"/>
   <g id="line2d_58"/>
   <g id="line2d_59"/>
   <g id="line2d_60"/>
   <g id="line2d_61">
    <defs>
     <path d="M 0 3.296763 
C 0.874312 3.296763 1.712932 2.949395 2.331163 2.331163 
C 2.949395 1.712932 3.296763 0.874312 3.296763 0 
C 3.296763 -0.874312 2.949395 -1.712932 2.331163 -2.331163 
C 1.712932 -2.949395 0.874312 -3.296763 0 -3.296763 
C -0.874312 -3.296763 -1.712932 -2.949395 -2.331163 -2.331163 
C -2.949395 -1.712932 -3.296763 -0.874312 -3.296763 0 
C -3.296763 0.874312 -2.949395 1.712932 -2.331163 2.331163 
C -1.712932 2.949395 -0.874312 3.296763 0 3.296763 
z
" id="mc05f3e26c8" style="stroke:#000000;stroke-opacity:0;"/>
    </defs>
    <g clip-path="url(#p605191485c)">
     <use style="fill:#696969;fill-opacity:0.8;stroke:#000000;stroke-opacity:0;" x="274.640166" xlink:href="#mc05f3e26c8" y="268.068902"/>
    </g>
   </g>
   <g id="line2d_62">
    <defs>
     <path d="M 0 1.745029 
C 0.462787 1.745029 0.906682 1.561162 1.233922 1.233922 
C 1.561162 0.906682 1.745029 0.462787 1.745029 0 
C 1.745029 -0.462787 1.561162 -0.906682 1.233922 -1.233922 
C 0.906682 -1.561162 0.462787 -1.745029 0 -1.745029 
C -0.462787 -1.745029 -0.906682 -1.561162 -1.233922 -1.233922 
C -1.561162 -0.906682 -1.745029 -0.462787 -1.745029 0 
C -1.745029 0.462787 -1.561162 0.906682 -1.233922 1.233922 
C -0.906682 1.561162 -0.462787 1.745029 0 1.745029 
z
" id="me1bdcbaa9a" style="stroke:#000000;stroke-opacity:0;"/>
    </defs>
    <g clip-path="url(#p605191485c)">
     <use style="fill:#448653;fill-opacity:0.8;stroke:#000000;stroke-opacity:0;" x="0" xlink:href="#me1bdcbaa9a" y="0"/>
    </g>
   </g>
   <g id="line2d_63">
    <defs>
     <path d="M 0 1.034265 
C 0.27429 1.034265 0.537383 0.925288 0.731336 0.731336 
C 0.925288 0.537383 1.034265 0.27429 1.034265 0 
C 1.034265 -0.27429 0.925288 -0.537383 0.731336 -0.731336 
C 0.537383 -0.925288 0.27429 -1.034265 0 -1.034265 
C -0.27429 -1.034265 -0.537383 -0.925288 -0.731336 -0.731336 
C -0.925288 -0.537383 -1.034265 -0.27429 -1.034265 0 
C -1.034265 0.27429 -0.925288 0.537383 -0.731336 0.731336 
C -0.537383 0.925288 -0.27429 1.034265 0 1.034265 
z
" id="m8914a6a3d7" style="stroke:#000000;stroke-opacity:0;"/>
    </defs>
    <g clip-path="url(#p605191485c)">
     <use style="fill:#9d3e42;fill-opacity:0.8;stroke:#000000;stroke-opacity:0;" x="215.529792" xlink:href="#m8914a6a3d7" y="235.299161"/>
    </g>
   </g>
   <g id="line2d_64">
    <defs>
     <path d="M 0 1.1717 
C 0.310739 1.1717 0.608792 1.048242 0.828517 0.828517 
C 1.048242 0.608792 1.1717 0.310739 1.1717 0 
C 1.1717 -0.310739 1.048242 -0.608792 0.828517 -0.828517 
C 0.608792 -1.048242 0.310739 -1.1717 0 -1.1717 
C -0.310739 -1.1717 -0.608792 -1.048242 -0.828517 -0.828517 
C -1.048242 -0.608792 -1.1717 -0.310739 -1.1717 0 
C -1.1717 0.310739 -1.048242 0.608792 -0.828517 0.828517 
C -0.608792 1.048242 -0.310739 1.1717 0 1.1717 
z
" id="mfda1e15596" style="stroke:#000000;stroke-opacity:0;"/>
    </defs>
    <g clip-path="url(#p605191485c)">
     <use style="fill:#448653;fill-opacity:0.8;stroke:#000000;stroke-opacity:0;" x="0" xlink:href="#mfda1e15596" y="0"/>
    </g>
   </g>
   <g id="line2d_65"/>
   <g id="line2d_66">
    <defs>
     <path d="M 0 2.012461 
C 0.533711 2.012461 1.045634 1.800416 1.423025 1.423025 
C 1.800416 1.045634 2.012461 0.533711 2.012461 0 
C 2.012461 -0.533711 1.800416 -1.045634 1.423025 -1.423025 
C 1.045634 -1.800416 0.533711 -2.012461 0 -2.012461 
C -0.533711 -2.012461 -1.045634 -1.800416 -1.423025 -1.423025 
C -1.800416 -1.045634 -2.012461 -0.533711 -2.012461 0 
C -2.012461 0.533711 -1.800416 1.045634 -1.423025 1.423025 
C -1.045634 1.800416 -0.533711 2.012461 0 2.012461 
z
" id="m8f8d84aa92" style="stroke:#000000;stroke-opacity:0;"/>
    </defs>
    <g clip-path="url(#p605191485c)">
     <use style="fill:#448653;fill-opacity:0.8;stroke:#000000;stroke-opacity:0;" x="0" xlink:href="#m8f8d84aa92" y="0"/>
    </g>
   </g>
   <g id="line2d_67">
    <defs>
     <path d="M 0 3.893443 
C 1.032553 3.893443 2.022955 3.483205 2.75308 2.75308 
C 3.483205 2.022955 3.893443 1.032553 3.893443 0 
C 3.893443 -1.032553 3.483205 -2.022955 2.75308 -2.75308 
C 2.022955 -3.483205 1.032553 -3.893443 0 -3.893443 
C -1.032553 -3.893443 -2.022955 -3.483205 -2.75308 -2.75308 
C -3.483205 -2.022955 -3.893443 -1.032553 -3.893443 0 
C -3.893443 1.032553 -3.483205 2.022955 -2.75308 2.75308 
C -2.022955 3.483205 -1.032553 3.893443 0 3.893443 
z
" id="mc09434dd62" style="stroke:#000000;stroke-opacity:0;"/>
    </defs>
    <g clip-path="url(#p605191485c)">
     <use style="fill:#696969;fill-opacity:0.8;stroke:#000000;stroke-opacity:0;" x="260.030784" xlink:href="#mc09434dd62" y="248.088419"/>
    </g>
   </g>
   <g id="line2d_68">
    <defs>
     <path d="M 0 10.240094 
C 2.715705 10.240094 5.320547 9.161133 7.24084 7.24084 
C 9.161133 5.320547 10.240094 2.715705 10.240094 0 
C 10.240094 -2.715705 9.161133 -5.320547 7.24084 -7.24084 
C 5.320547 -9.161133 2.715705 -10.240094 0 -10.240094 
C -2.715705 -10.240094 -5.320547 -9.161133 -7.24084 -7.24084 
C -9.161133 -5.320547 -10.240094 -2.715705 -10.240094 0 
C -10.240094 2.715705 -9.161133 5.320547 -7.24084 7.24084 
C -5.320547 9.161133 -2.715705 10.240094 0 10.240094 
z
" id="mbe1ad25534" style="stroke:#000000;stroke-opacity:0;"/>
    </defs>
    <g clip-path="url(#p605191485c)">
     <use style="fill:#9d3e42;fill-opacity:0.8;stroke:#000000;stroke-opacity:0;" x="155.747713" xlink:href="#mbe1ad25534" y="240.588051"/>
    </g>
   </g>
   <g id="line2d_69">
    <defs>
     <path d="M 0 24.139426 
C 6.40185 24.139426 12.54236 21.595943 17.069151 17.069151 
C 21.595943 12.54236 24.139426 6.40185 24.139426 0 
C 24.139426 -6.40185 21.595943 -12.54236 17.069151 -17.069151 
C 12.54236 -21.595943 6.40185 -24.139426 0 -24.139426 
C -6.40185 -24.139426 -12.54236 -21.595943 -17.069151 -17.069151 
C -21.595943 -12.54236 -24.139426 -6.40185 -24.139426 0 
C -24.139426 6.40185 -21.595943 12.54236 -17.069151 17.069151 
C -12.54236 21.595943 -6.40185 24.139426 0 24.139426 
z
" id="m34d9599c4f" style="stroke:#000000;stroke-opacity:0;"/>
    </defs>
    <g clip-path="url(#p605191485c)">
     <use style="fill:#9d3e42;fill-opacity:0.8;stroke:#000000;stroke-opacity:0;" x="162.316963" xlink:href="#m34d9599c4f" y="267.353368"/>
    </g>
   </g>
   <g id="line2d_70">
    <defs>
     <path d="M 0 2.883655 
C 0.764754 2.883655 1.498289 2.579815 2.039052 2.039052 
C 2.579815 1.498289 2.883655 0.764754 2.883655 0 
C 2.883655 -0.764754 2.579815 -1.498289 2.039052 -2.039052 
C 1.498289 -2.579815 0.764754 -2.883655 0 -2.883655 
C -0.764754 -2.883655 -1.498289 -2.579815 -2.039052 -2.039052 
C -2.579815 -1.498289 -2.883655 -0.764754 -2.883655 0 
C -2.883655 0.764754 -2.579815 1.498289 -2.039052 2.039052 
C -1.498289 2.579815 -0.764754 2.883655 0 2.883655 
z
" id="m73d6a8e18e" style="stroke:#000000;stroke-opacity:0;"/>
    </defs>
    <g clip-path="url(#p605191485c)">
     <use style="fill:#696969;fill-opacity:0.8;stroke:#000000;stroke-opacity:0;" x="326.192462" xlink:href="#m73d6a8e18e" y="254.574757"/>
    </g>
   </g>
   <g id="line2d_71"/>
   <g id="line2d_72"/>
   <g id="line2d_73"/>
   <g id="line2d_74"/>
   <g id="line2d_75">
    <defs>
     <path d="M 0 8.44451 
C 2.23951 8.44451 4.387597 7.554743 5.97117 5.97117 
C 7.554743 4.387597 8.44451 2.23951 8.44451 0 
C 8.44451 -2.23951 7.554743 -4.387597 5.97117 -5.97117 
C 4.387597 -7.554743 2.23951 -8.44451 0 -8.44451 
C -2.23951 -8.44451 -4.387597 -7.554743 -5.97117 -5.97117 
C -7.554743 -4.387597 -8.44451 -2.23951 -8.44451 0 
C -8.44451 2.23951 -7.554743 4.387597 -5.97117 5.97117 
C -4.387597 7.554743 -2.23951 8.44451 0 8.44451 
z
" id="m5a6564cc8d" style="stroke:#000000;stroke-opacity:0;"/>
    </defs>
    <g clip-path="url(#p605191485c)">
     <use style="fill:#696969;fill-opacity:0.8;stroke:#000000;stroke-opacity:0;" x="326.065254" xlink:href="#m5a6564cc8d" y="258.998368"/>
    </g>
   </g>
   <g id="line2d_76">
    <defs>
     <path d="M 0 1.276831 
C 0.338619 1.276831 0.663416 1.142296 0.902856 0.902856 
C 1.142296 0.663416 1.276831 0.338619 1.276831 0 
C 1.276831 -0.338619 1.142296 -0.663416 0.902856 -0.902856 
C 0.663416 -1.142296 0.338619 -1.276831 0 -1.276831 
C -0.338619 -1.276831 -0.663416 -1.142296 -0.902856 -0.902856 
C -1.142296 -0.663416 -1.276831 -0.338619 -1.276831 0 
C -1.276831 0.338619 -1.142296 0.663416 -0.902856 0.902856 
C -0.663416 1.142296 -0.338619 1.276831 0 1.276831 
z
" id="mf80684a5bd" style="stroke:#000000;stroke-opacity:0;"/>
    </defs>
    <g clip-path="url(#p605191485c)">
     <use style="fill:#448653;fill-opacity:0.8;stroke:#000000;stroke-opacity:0;" x="161.512916" xlink:href="#mf80684a5bd" y="262.492061"/>
    </g>
   </g>
   <g id="line2d_77"/>
   <g id="line2d_78">
    <defs>
     <path d="M 0 10.316619 
C 2.735999 10.316619 5.360308 9.229595 7.294951 7.294951 
C 9.229595 5.360308 10.316619 2.735999 10.316619 0 
C 10.316619 -2.735999 9.229595 -5.360308 7.294951 -7.294951 
C 5.360308 -9.229595 2.735999 -10.316619 0 -10.316619 
C -2.735999 -10.316619 -5.360308 -9.229595 -7.294951 -7.294951 
C -9.229595 -5.360308 -10.316619 -2.735999 -10.316619 0 
C -10.316619 2.735999 -9.229595 5.360308 -7.294951 7.294951 
C -5.360308 9.229595 -2.735999 10.316619 0 10.316619 
z
" id="md0b549e796" style="stroke:#000000;stroke-opacity:0;"/>
    </defs>
    <g clip-path="url(#p605191485c)">
     <use style="fill:#9d3e42;fill-opacity:0.8;stroke:#000000;stroke-opacity:0;" x="246.806341" xlink:href="#md0b549e796" y="234.994961"/>
    </g>
   </g>
   <g id="line2d_79"/>
   <g id="line2d_80"/>
   <g id="line2d_81"/>
   <g id="line2d_82"/>
   <g id="line2d_83">
    <defs>
     <path d="M 0 4.74422 
C 1.258182 4.74422 2.465001 4.244339 3.35467 3.35467 
C 4.244339 2.465001 4.74422 1.258182 4.74422 0 
C 4.74422 -1.258182 4.244339 -2.465001 3.35467 -3.35467 
C 2.465001 -4.244339 1.258182 -4.74422 0 -4.74422 
C -1.258182 -4.74422 -2.465001 -4.244339 -3.35467 -3.35467 
C -4.244339 -2.465001 -4.74422 -1.258182 -4.74422 0 
C -4.74422 1.258182 -4.244339 2.465001 -3.35467 3.35467 
C -2.465001 4.244339 -1.258182 4.74422 0 4.74422 
z
" id="m6ee231b04d" style="stroke:#000000;stroke-opacity:0;"/>
    </defs>
    <g clip-path="url(#p605191485c)">
     <use style="fill:#9d3e42;fill-opacity:0.8;stroke:#000000;stroke-opacity:0;" x="157.479321" xlink:href="#m6ee231b04d" y="240.498734"/>
    </g>
   </g>
   <g id="line2d_84"/>
   <g id="line2d_85"/>
   <g id="line2d_86"/>
   <g id="line2d_87"/>
   <g id="line2d_88"/>
   <g id="line2d_89"/>
   <g id="line2d_90">
    <defs>
     <path d="M 0 3.163952 
C 0.83909 3.163952 1.643926 2.830578 2.237252 2.237252 
C 2.830578 1.643926 3.163952 0.83909 3.163952 0 
C 3.163952 -0.83909 2.830578 -1.643926 2.237252 -2.237252 
C 1.643926 -2.830578 0.83909 -3.163952 0 -3.163952 
C -0.83909 -3.163952 -1.643926 -2.830578 -2.237252 -2.237252 
C -2.830578 -1.643926 -3.163952 -0.83909 -3.163952 0 
C -3.163952 0.83909 -2.830578 1.643926 -2.237252 2.237252 
C -1.643926 2.830578 -0.83909 3.163952 0 3.163952 
z
" id="mb2aa838fc8" style="stroke:#000000;stroke-opacity:0;"/>
    </defs>
    <g clip-path="url(#p605191485c)">
     <use style="fill:#9d3e42;fill-opacity:0.8;stroke:#000000;stroke-opacity:0;" x="225.970236" xlink:href="#mb2aa838fc8" y="262.041728"/>
    </g>
   </g>
   <g id="line2d_91"/>
   <g id="line2d_92"/>
   <g id="line2d_93"/>
   <g id="line2d_94"/>
   <g id="line2d_95"/>
   <g id="line2d_96"/>
   <g id="line2d_97"/>
   <g id="line2d_98">
    <defs>
     <path d="M 0 5.330199 
C 1.413585 5.330199 2.769464 4.768575 3.76902 3.76902 
C 4.768575 2.769464 5.330199 1.413585 5.330199 0 
C 5.330199 -1.413585 4.768575 -2.769464 3.76902 -3.76902 
C 2.769464 -4.768575 1.413585 -5.330199 0 -5.330199 
C -1.413585 -5.330199 -2.769464 -4.768575 -3.76902 -3.76902 
C -4.768575 -2.769464 -5.330199 -1.413585 -5.330199 0 
C -5.330199 1.413585 -4.768575 2.769464 -3.76902 3.76902 
C -2.769464 4.768575 -1.413585 5.330199 0 5.330199 
z
" id="mbf782dfe0a" style="stroke:#000000;stroke-opacity:0;"/>
    </defs>
    <g clip-path="url(#p605191485c)">
     <use style="fill:#448653;fill-opacity:0.8;stroke:#000000;stroke-opacity:0;" x="190.595165" xlink:href="#mbf782dfe0a" y="216.534557"/>
    </g>
   </g>
   <g id="line2d_99"/>
   <g id="line2d_100"/>
   <g id="line2d_101"/>
   <g id="line2d_102">
    <defs>
     <path d="M 0 4.997118 
C 1.325251 4.997118 2.596402 4.47059 3.533496 3.533496 
C 4.47059 2.596402 4.997118 1.325251 4.997118 0 
C 4.997118 -1.325251 4.47059 -2.596402 3.533496 -3.533496 
C 2.596402 -4.47059 1.325251 -4.997118 0 -4.997118 
C -1.325251 -4.997118 -2.596402 -4.47059 -3.533496 -3.533496 
C -4.47059 -2.596402 -4.997118 -1.325251 -4.997118 0 
C -4.997118 1.325251 -4.47059 2.596402 -3.533496 3.533496 
C -2.596402 4.47059 -1.325251 4.997118 0 4.997118 
z
" id="m5e44d73348" style="stroke:#000000;stroke-opacity:0;"/>
    </defs>
    <g clip-path="url(#p605191485c)">
     <use style="fill:#9d3e42;fill-opacity:0.8;stroke:#000000;stroke-opacity:0;" x="154.564818" xlink:href="#m5e44d73348" y="255.390339"/>
    </g>
   </g>
   <g id="line2d_103"/>
   <g id="line2d_104"/>
   <g id="line2d_105"/>
   <g id="line2d_106"/>
   <g id="line2d_107"/>
   <g id="line2d_108"/>
   <g id="line2d_109">
    <defs>
     <path d="M 0 2.59991 
C 0.689504 2.59991 1.350861 2.325967 1.838414 1.838414 
C 2.325967 1.350861 2.59991 0.689504 2.59991 0 
C 2.59991 -0.689504 2.325967 -1.350861 1.838414 -1.838414 
C 1.350861 -2.325967 0.689504 -2.59991 0 -2.59991 
C -0.689504 -2.59991 -1.350861 -2.325967 -1.838414 -1.838414 
C -2.325967 -1.350861 -2.59991 -0.689504 -2.59991 0 
C -2.59991 0.689504 -2.325967 1.350861 -1.838414 1.838414 
C -1.350861 2.325967 -0.689504 2.59991 0 2.59991 
z
" id="mbe41d786ba" style="stroke:#000000;stroke-opacity:0;"/>
    </defs>
    <g clip-path="url(#p605191485c)">
     <use style="fill:#9d3e42;fill-opacity:0.8;stroke:#000000;stroke-opacity:0;" x="191.762778" xlink:href="#mbe41d786ba" y="242.49551"/>
    </g>
   </g>
   <g id="line2d_110"/>
   <g id="line2d_111"/>
   <g id="line2d_112"/>
   <g id="line2d_113">
    <defs>
     <path d="M 0 1.10469 
C 0.292967 1.10469 0.573974 0.988292 0.781133 0.781133 
C 0.988292 0.573974 1.10469 0.292967 1.10469 0 
C 1.10469 -0.292967 0.988292 -0.573974 0.781133 -0.781133 
C 0.573974 -0.988292 0.292967 -1.10469 0 -1.10469 
C -0.292967 -1.10469 -0.573974 -0.988292 -0.781133 -0.781133 
C -0.988292 -0.573974 -1.10469 -0.292967 -1.10469 0 
C -1.10469 0.292967 -0.988292 0.573974 -0.781133 0.781133 
C -0.573974 0.988292 -0.292967 1.10469 0 1.10469 
z
" id="m8a84bdc233" style="stroke:#000000;stroke-opacity:0;"/>
    </defs>
    <g clip-path="url(#p605191485c)">
     <use style="fill:#448653;fill-opacity:0.8;stroke:#000000;stroke-opacity:0;" x="0" xlink:href="#m8a84bdc233" y="0"/>
    </g>
   </g>
   <g id="line2d_114">
    <defs>
     <path d="M 0 3.613534 
C 0.95832 3.613534 1.877519 3.232789 2.555154 2.555154 
C 3.232789 1.877519 3.613534 0.95832 3.613534 0 
C 3.613534 -0.95832 3.232789 -1.877519 2.555154 -2.555154 
C 1.877519 -3.232789 0.95832 -3.613534 0 -3.613534 
C -0.95832 -3.613534 -1.877519 -3.232789 -2.555154 -2.555154 
C -3.232789 -1.877519 -3.613534 -0.95832 -3.613534 0 
C -3.613534 0.95832 -3.232789 1.877519 -2.555154 2.555154 
C -1.877519 3.232789 -0.95832 3.613534 0 3.613534 
z
" id="md47c661998" style="stroke:#000000;stroke-opacity:0;"/>
    </defs>
    <g clip-path="url(#p605191485c)">
     <use style="fill:#696969;fill-opacity:0.8;stroke:#000000;stroke-opacity:0;" x="387.066964" xlink:href="#md47c661998" y="250.075139"/>
    </g>
   </g>
   <g id="line2d_115">
    <defs>
     <path d="M 0 2.241509 
C 0.594455 2.241509 1.164643 2.00533 1.584986 1.584986 
C 2.00533 1.164643 2.241509 0.594455 2.241509 0 
C 2.241509 -0.594455 2.00533 -1.164643 1.584986 -1.584986 
C 1.164643 -2.00533 0.594455 -2.241509 0 -2.241509 
C -0.594455 -2.241509 -1.164643 -2.00533 -1.584986 -1.584986 
C -2.00533 -1.164643 -2.241509 -0.594455 -2.241509 0 
C -2.241509 0.594455 -2.00533 1.164643 -1.584986 1.584986 
C -1.164643 2.00533 -0.594455 2.241509 0 2.241509 
z
" id="m736bf3ec73" style="stroke:#000000;stroke-opacity:0;"/>
    </defs>
    <g clip-path="url(#p605191485c)">
     <use style="fill:#696969;fill-opacity:0.8;stroke:#000000;stroke-opacity:0;" x="290.488986" xlink:href="#m736bf3ec73" y="224.660026"/>
    </g>
   </g>
   <g id="line2d_116"/>
   <g id="line2d_117">
    <defs>
     <path d="M 0 1.538283 
C 0.407957 1.538283 0.799261 1.376199 1.08773 1.08773 
C 1.376199 0.799261 1.538283 0.407957 1.538283 0 
C 1.538283 -0.407957 1.376199 -0.799261 1.08773 -1.08773 
C 0.799261 -1.376199 0.407957 -1.538283 0 -1.538283 
C -0.407957 -1.538283 -0.799261 -1.376199 -1.08773 -1.08773 
C -1.376199 -0.799261 -1.538283 -0.407957 -1.538283 0 
C -1.538283 0.407957 -1.376199 0.799261 -1.08773 1.08773 
C -0.799261 1.376199 -0.407957 1.538283 0 1.538283 
z
" id="mf50da904e6" style="stroke:#000000;stroke-opacity:0;"/>
    </defs>
    <g clip-path="url(#p605191485c)">
     <use style="fill:#696969;fill-opacity:0.8;stroke:#000000;stroke-opacity:0;" x="402.191343" xlink:href="#mf50da904e6" y="237.386111"/>
    </g>
   </g>
   <g id="line2d_118"/>
   <g id="line2d_119"/>
   <g id="line2d_120">
    <defs>
     <path d="M 0 0.96364 
C 0.25556 0.96364 0.500688 0.862105 0.681396 0.681396 
C 0.862105 0.500688 0.96364 0.25556 0.96364 0 
C 0.96364 -0.25556 0.862105 -0.500688 0.681396 -0.681396 
C 0.500688 -0.862105 0.25556 -0.96364 0 -0.96364 
C -0.25556 -0.96364 -0.500688 -0.862105 -0.681396 -0.681396 
C -0.862105 -0.500688 -0.96364 -0.25556 -0.96364 0 
C -0.96364 0.25556 -0.862105 0.500688 -0.681396 0.681396 
C -0.500688 0.862105 -0.25556 0.96364 0 0.96364 
z
" id="md542673fb6" style="stroke:#000000;stroke-opacity:0;"/>
    </defs>
    <g clip-path="url(#p605191485c)">
     <use style="fill:#448653;fill-opacity:0.8;stroke:#000000;stroke-opacity:0;" x="0" xlink:href="#md542673fb6" y="0"/>
    </g>
   </g>
   <g id="line2d_121">
    <defs>
     <path d="M 0 2.990451 
C 0.793077 2.990451 1.553778 2.675358 2.114568 2.114568 
C 2.675358 1.553778 2.990451 0.793077 2.990451 0 
C 2.990451 -0.793077 2.675358 -1.553778 2.114568 -2.114568 
C 1.553778 -2.675358 0.793077 -2.990451 0 -2.990451 
C -0.793077 -2.990451 -1.553778 -2.675358 -2.114568 -2.114568 
C -2.675358 -1.553778 -2.990451 -0.793077 -2.990451 0 
C -2.990451 0.793077 -2.675358 1.553778 -2.114568 2.114568 
C -1.553778 2.675358 -0.793077 2.990451 0 2.990451 
z
" id="m22ca51064b" style="stroke:#000000;stroke-opacity:0;"/>
    </defs>
    <g clip-path="url(#p605191485c)">
     <use style="fill:#448653;fill-opacity:0.8;stroke:#000000;stroke-opacity:0;" x="254.763825" xlink:href="#m22ca51064b" y="268.786446"/>
    </g>
   </g>
   <g id="line2d_122">
    <defs>
     <path d="M 0 4.522191 
C 1.199299 4.522191 2.349639 4.045704 3.197672 3.197672 
C 4.045704 2.349639 4.522191 1.199299 4.522191 0 
C 4.522191 -1.199299 4.045704 -2.349639 3.197672 -3.197672 
C 2.349639 -4.045704 1.199299 -4.522191 0 -4.522191 
C -1.199299 -4.522191 -2.349639 -4.045704 -3.197672 -3.197672 
C -4.045704 -2.349639 -4.522191 -1.199299 -4.522191 0 
C -4.522191 1.199299 -4.045704 2.349639 -3.197672 3.197672 
C -2.349639 4.045704 -1.199299 4.522191 0 4.522191 
z
" id="ma42e5f5402" style="stroke:#000000;stroke-opacity:0;"/>
    </defs>
    <g clip-path="url(#p605191485c)">
     <use style="fill:#9d3e42;fill-opacity:0.8;stroke:#000000;stroke-opacity:0;" x="183.782808" xlink:href="#ma42e5f5402" y="228.40135"/>
    </g>
   </g>
   <g id="line2d_123">
    <defs>
     <path d="M 0 6.760303 
C 1.792853 6.760303 3.512517 6.047995 4.780256 4.780256 
C 6.047995 3.512517 6.760303 1.792853 6.760303 0 
C 6.760303 -1.792853 6.047995 -3.512517 4.780256 -4.780256 
C 3.512517 -6.047995 1.792853 -6.760303 0 -6.760303 
C -1.792853 -6.760303 -3.512517 -6.047995 -4.780256 -4.780256 
C -6.047995 -3.512517 -6.760303 -1.792853 -6.760303 0 
C -6.760303 1.792853 -6.047995 3.512517 -4.780256 4.780256 
C -3.512517 6.047995 -1.792853 6.760303 0 6.760303 
z
" id="md171efd2a2" style="stroke:#000000;stroke-opacity:0;"/>
    </defs>
    <g clip-path="url(#p605191485c)">
     <use style="fill:#696969;fill-opacity:0.8;stroke:#000000;stroke-opacity:0;" x="246.374374" xlink:href="#md171efd2a2" y="234.151237"/>
    </g>
   </g>
   <g id="line2d_124">
    <defs>
     <path d="M 0 1.581675 
C 0.419465 1.581675 0.821806 1.415019 1.118413 1.118413 
C 1.415019 0.821806 1.581675 0.419465 1.581675 0 
C 1.581675 -0.419465 1.415019 -0.821806 1.118413 -1.118413 
C 0.821806 -1.415019 0.419465 -1.581675 0 -1.581675 
C -0.419465 -1.581675 -0.821806 -1.415019 -1.118413 -1.118413 
C -1.415019 -0.821806 -1.581675 -0.419465 -1.581675 0 
C -1.581675 0.419465 -1.415019 0.821806 -1.118413 1.118413 
C -0.821806 1.415019 -0.419465 1.581675 0 1.581675 
z
" id="m7bb5a8fdf5" style="stroke:#000000;stroke-opacity:0;"/>
    </defs>
    <g clip-path="url(#p605191485c)">
     <use style="fill:#448653;fill-opacity:0.8;stroke:#000000;stroke-opacity:0;" x="0" xlink:href="#m7bb5a8fdf5" y="0"/>
    </g>
   </g>
   <g id="line2d_125"/>
   <g id="line2d_126">
    <defs>
     <path d="M 0 3.390571 
C 0.89919 3.390571 1.761673 3.033319 2.397496 2.397496 
C 3.033319 1.761673 3.390571 0.89919 3.390571 0 
C 3.390571 -0.89919 3.033319 -1.761673 2.397496 -2.397496 
C 1.761673 -3.033319 0.89919 -3.390571 0 -3.390571 
C -0.89919 -3.390571 -1.761673 -3.033319 -2.397496 -2.397496 
C -3.033319 -1.761673 -3.390571 -0.89919 -3.390571 0 
C -3.390571 0.89919 -3.033319 1.761673 -2.397496 2.397496 
C -1.761673 3.033319 -0.89919 3.390571 0 3.390571 
z
" id="m50892d062a" style="stroke:#000000;stroke-opacity:0;"/>
    </defs>
    <g clip-path="url(#p605191485c)">
     <use style="fill:#696969;fill-opacity:0.8;stroke:#000000;stroke-opacity:0;" x="244.54501" xlink:href="#m50892d062a" y="263.331691"/>
    </g>
   </g>
   <g id="line2d_127">
    <defs>
     <path d="M 0 1.154486 
C 0.306173 1.154486 0.599848 1.032842 0.816345 0.816345 
C 1.032842 0.599848 1.154486 0.306173 1.154486 0 
C 1.154486 -0.306173 1.032842 -0.599848 0.816345 -0.816345 
C 0.599848 -1.032842 0.306173 -1.154486 0 -1.154486 
C -0.306173 -1.154486 -0.599848 -1.032842 -0.816345 -0.816345 
C -1.032842 -0.599848 -1.154486 -0.306173 -1.154486 0 
C -1.154486 0.306173 -1.032842 0.599848 -0.816345 0.816345 
C -0.599848 1.032842 -0.306173 1.154486 0 1.154486 
z
" id="m61867d1ad2" style="stroke:#000000;stroke-opacity:0;"/>
    </defs>
    <g clip-path="url(#p605191485c)">
     <use style="fill:#448653;fill-opacity:0.8;stroke:#000000;stroke-opacity:0;" x="0" xlink:href="#m61867d1ad2" y="0"/>
    </g>
   </g>
   <g id="line2d_128"/>
   <g id="line2d_129"/>
   <g id="line2d_130">
    <defs>
     <path d="M 0 4.850738 
C 1.286431 4.850738 2.520346 4.339634 3.42999 3.42999 
C 4.339634 2.520346 4.850738 1.286431 4.850738 0 
C 4.850738 -1.286431 4.339634 -2.520346 3.42999 -3.42999 
C 2.520346 -4.339634 1.286431 -4.850738 0 -4.850738 
C -1.286431 -4.850738 -2.520346 -4.339634 -3.42999 -3.42999 
C -4.339634 -2.520346 -4.850738 -1.286431 -4.850738 0 
C -4.850738 1.286431 -4.339634 2.520346 -3.42999 3.42999 
C -2.520346 4.339634 -1.286431 4.850738 0 4.850738 
z
" id="m3bbe8dfa82" style="stroke:#000000;stroke-opacity:0;"/>
    </defs>
    <g clip-path="url(#p605191485c)">
     <use style="fill:#696969;fill-opacity:0.8;stroke:#000000;stroke-opacity:0;" x="45.984689" xlink:href="#m3bbe8dfa82" y="262.008434"/>
    </g>
   </g>
   <g id="line2d_131"/>
   <g id="line2d_132"/>
   <g id="line2d_133"/>
   <g id="line2d_134"/>
   <g id="line2d_135"/>
   <g id="line2d_136">
    <defs>
     <path d="M 0 0.863453 
C 0.22899 0.863453 0.448633 0.772474 0.610553 0.610553 
C 0.772474 0.448633 0.863453 0.22899 0.863453 0 
C 0.863453 -0.22899 0.772474 -0.448633 0.610553 -0.610553 
C 0.448633 -0.772474 0.22899 -0.863453 0 -0.863453 
C -0.22899 -0.863453 -0.448633 -0.772474 -0.610553 -0.610553 
C -0.772474 -0.448633 -0.863453 -0.22899 -0.863453 0 
C -0.863453 0.22899 -0.772474 0.448633 -0.610553 0.610553 
C -0.448633 0.772474 -0.22899 0.863453 0 0.863453 
z
" id="mf5e321f625" style="stroke:#000000;stroke-opacity:0;"/>
    </defs>
    <g clip-path="url(#p605191485c)">
     <use style="fill:#9d3e42;fill-opacity:0.8;stroke:#000000;stroke-opacity:0;" x="232.543033" xlink:href="#mf5e321f625" y="258.104685"/>
    </g>
   </g>
   <g id="line2d_137"/>
   <g id="line2d_138">
    <defs>
     <path d="M 0 1.493631 
C 0.396115 1.493631 0.77606 1.336252 1.056156 1.056156 
C 1.336252 0.77606 1.493631 0.396115 1.493631 0 
C 1.493631 -0.396115 1.336252 -0.77606 1.056156 -1.056156 
C 0.77606 -1.336252 0.396115 -1.493631 0 -1.493631 
C -0.396115 -1.493631 -0.77606 -1.336252 -1.056156 -1.056156 
C -1.336252 -0.77606 -1.493631 -0.396115 -1.493631 0 
C -1.493631 0.396115 -1.336252 0.77606 -1.056156 1.056156 
C -0.77606 1.336252 -0.396115 1.493631 0 1.493631 
z
" id="med1970ff2c" style="stroke:#000000;stroke-opacity:0;"/>
    </defs>
    <g clip-path="url(#p605191485c)">
     <use style="fill:#448653;fill-opacity:0.8;stroke:#000000;stroke-opacity:0;" x="0" xlink:href="#med1970ff2c" y="0"/>
    </g>
   </g>
   <g id="line2d_139"/>
   <g id="line2d_140"/>
   <g id="line2d_141">
    <defs>
     <path d="M 0 17.169784 
C 4.55348 17.169784 8.921074 15.360667 12.140871 12.140871 
C 15.360667 8.921074 17.169784 4.55348 17.169784 0 
C 17.169784 -4.55348 15.360667 -8.921074 12.140871 -12.140871 
C 8.921074 -15.360667 4.55348 -17.169784 0 -17.169784 
C -4.55348 -17.169784 -8.921074 -15.360667 -12.140871 -12.140871 
C -15.360667 -8.921074 -17.169784 -4.55348 -17.169784 0 
C -17.169784 4.55348 -15.360667 8.921074 -12.140871 12.140871 
C -8.921074 15.360667 -4.55348 17.169784 0 17.169784 
z
" id="md0e5794052" style="stroke:#000000;stroke-opacity:0;"/>
    </defs>
    <g clip-path="url(#p605191485c)">
     <use style="fill:#3d5b8d;fill-opacity:0.8;stroke:#000000;stroke-opacity:0;" x="0" xlink:href="#md0e5794052" y="0"/>
    </g>
   </g>
   <g id="line2d_142"/>
   <g id="line2d_143"/>
   <g id="line2d_144">
    <defs>
     <path d="M 0 3.347273 
C 0.887707 3.347273 1.739176 2.994583 2.36688 2.36688 
C 2.994583 1.739176 3.347273 0.887707 3.347273 0 
C 3.347273 -0.887707 2.994583 -1.739176 2.36688 -2.36688 
C 1.739176 -2.994583 0.887707 -3.347273 0 -3.347273 
C -0.887707 -3.347273 -1.739176 -2.994583 -2.36688 -2.36688 
C -2.994583 -1.739176 -3.347273 -0.887707 -3.347273 0 
C -3.347273 0.887707 -2.994583 1.739176 -2.36688 2.36688 
C -1.739176 2.994583 -0.887707 3.347273 0 3.347273 
z
" id="m69159b43a7" style="stroke:#000000;stroke-opacity:0;"/>
    </defs>
    <g clip-path="url(#p605191485c)">
     <use style="fill:#696969;fill-opacity:0.8;stroke:#000000;stroke-opacity:0;" x="288.407287" xlink:href="#m69159b43a7" y="222.840147"/>
    </g>
   </g>
   <g id="line2d_145"/>
   <g id="line2d_146"/>
   <g id="line2d_147"/>
   <g id="line2d_148"/>
   <g id="line2d_149"/>
   <g id="line2d_150">
    <defs>
     <path d="M 0 4.323223 
C 1.146532 4.323223 2.246259 3.867701 3.05698 3.05698 
C 3.867701 2.246259 4.323223 1.146532 4.323223 0 
C 4.323223 -1.146532 3.867701 -2.246259 3.05698 -3.05698 
C 2.246259 -3.867701 1.146532 -4.323223 0 -4.323223 
C -1.146532 -4.323223 -2.246259 -3.867701 -3.05698 -3.05698 
C -3.867701 -2.246259 -4.323223 -1.146532 -4.323223 0 
C -4.323223 1.146532 -3.867701 2.246259 -3.05698 3.05698 
C -2.246259 3.867701 -1.146532 4.323223 0 4.323223 
z
" id="m953831ecf0" style="stroke:#000000;stroke-opacity:0;"/>
    </defs>
    <g clip-path="url(#p605191485c)">
     <use style="fill:#9d3e42;fill-opacity:0.8;stroke:#000000;stroke-opacity:0;" x="180.174222" xlink:href="#m953831ecf0" y="256.756429"/>
    </g>
   </g>
   <g id="line2d_151"/>
   <g id="line2d_152"/>
   <g id="line2d_153">
    <defs>
     <path d="M 0 0.861242 
C 0.228404 0.861242 0.447484 0.770496 0.60899 0.60899 
C 0.770496 0.447484 0.861242 0.228404 0.861242 0 
C 0.861242 -0.228404 0.770496 -0.447484 0.60899 -0.60899 
C 0.447484 -0.770496 0.228404 -0.861242 0 -0.861242 
C -0.228404 -0.861242 -0.447484 -0.770496 -0.60899 -0.60899 
C -0.770496 -0.447484 -0.861242 -0.228404 -0.861242 0 
C -0.861242 0.228404 -0.770496 0.447484 -0.60899 0.60899 
C -0.447484 0.770496 -0.228404 0.861242 0 0.861242 
z
" id="m5978319ed4" style="stroke:#000000;stroke-opacity:0;"/>
    </defs>
    <g clip-path="url(#p605191485c)">
     <use style="fill:#448653;fill-opacity:0.8;stroke:#000000;stroke-opacity:0;" x="0" xlink:href="#m5978319ed4" y="0"/>
    </g>
   </g>
   <g id="line2d_154"/>
   <g id="line2d_155"/>
   <g id="line2d_156">
    <defs>
     <path d="M 0 2.663668 
C 0.706413 2.663668 1.383988 2.383007 1.883498 1.883498 
C 2.383007 1.383988 2.663668 0.706413 2.663668 0 
C 2.663668 -0.706413 2.383007 -1.383988 1.883498 -1.883498 
C 1.383988 -2.383007 0.706413 -2.663668 0 -2.663668 
C -0.706413 -2.663668 -1.383988 -2.383007 -1.883498 -1.883498 
C -2.383007 -1.383988 -2.663668 -0.706413 -2.663668 0 
C -2.663668 0.706413 -2.383007 1.383988 -1.883498 1.883498 
C -1.383988 2.383007 -0.706413 2.663668 0 2.663668 
z
" id="m7153643464" style="stroke:#000000;stroke-opacity:0;"/>
    </defs>
    <g clip-path="url(#p605191485c)">
     <use style="fill:#9d3e42;fill-opacity:0.8;stroke:#000000;stroke-opacity:0;" x="180.033504" xlink:href="#m7153643464" y="248.160833"/>
    </g>
   </g>
   <g id="line2d_157"/>
   <g id="line2d_158"/>
   <g id="line2d_159"/>
   <g id="line2d_160">
    <defs>
     <path d="M 0 1.616847 
C 0.428793 1.616847 0.840081 1.446486 1.143284 1.143284 
C 1.446486 0.840081 1.616847 0.428793 1.616847 0 
C 1.616847 -0.428793 1.446486 -0.840081 1.143284 -1.143284 
C 0.840081 -1.446486 0.428793 -1.616847 0 -1.616847 
C -0.428793 -1.616847 -0.840081 -1.446486 -1.143284 -1.143284 
C -1.446486 -0.840081 -1.616847 -0.428793 -1.616847 0 
C -1.616847 0.428793 -1.446486 0.840081 -1.143284 1.143284 
C -0.840081 1.446486 -0.428793 1.616847 0 1.616847 
z
" id="m73702b41fe" style="stroke:#000000;stroke-opacity:0;"/>
    </defs>
    <g clip-path="url(#p605191485c)">
     <use style="fill:#448653;fill-opacity:0.8;stroke:#000000;stroke-opacity:0;" x="361.922978" xlink:href="#m73702b41fe" y="281.473046"/>
    </g>
   </g>
   <g id="line2d_161">
    <defs>
     <path d="M 0 14.275802 
C 3.785987 14.275802 7.417419 12.771613 10.094516 10.094516 
C 12.771613 7.417419 14.275802 3.785987 14.275802 0 
C 14.275802 -3.785987 12.771613 -7.417419 10.094516 -10.094516 
C 7.417419 -12.771613 3.785987 -14.275802 0 -14.275802 
C -3.785987 -14.275802 -7.417419 -12.771613 -10.094516 -10.094516 
C -12.771613 -7.417419 -14.275802 -3.785987 -14.275802 0 
C -14.275802 3.785987 -12.771613 7.417419 -10.094516 10.094516 
C -7.417419 12.771613 -3.785987 14.275802 0 14.275802 
z
" id="m5f88aed070" style="stroke:#000000;stroke-opacity:0;"/>
    </defs>
    <g clip-path="url(#p605191485c)">
     <use style="fill:#696969;fill-opacity:0.8;stroke:#000000;stroke-opacity:0;" x="398.330825" xlink:href="#m5f88aed070" y="226.749035"/>
    </g>
   </g>
   <g id="line2d_162"/>
   <g id="line2d_163">
    <defs>
     <path d="M 0 2.388532 
C 0.633446 2.388532 1.241033 2.136861 1.688947 1.688947 
C 2.136861 1.241033 2.388532 0.633446 2.388532 0 
C 2.388532 -0.633446 2.136861 -1.241033 1.688947 -1.688947 
C 1.241033 -2.136861 0.633446 -2.388532 0 -2.388532 
C -0.633446 -2.388532 -1.241033 -2.136861 -1.688947 -1.688947 
C -2.136861 -1.241033 -2.388532 -0.633446 -2.388532 0 
C -2.388532 0.633446 -2.136861 1.241033 -1.688947 1.688947 
C -1.241033 2.136861 -0.633446 2.388532 0 2.388532 
z
" id="mb035af945f" style="stroke:#000000;stroke-opacity:0;"/>
    </defs>
    <g clip-path="url(#p605191485c)">
     <use style="fill:#448653;fill-opacity:0.8;stroke:#000000;stroke-opacity:0;" x="262.205187" xlink:href="#mb035af945f" y="274.479218"/>
    </g>
   </g>
   <g id="line2d_164"/>
   <g id="line2d_165"/>
   <g id="line2d_166">
    <defs>
     <path d="M 0 4.866828 
C 1.290698 4.866828 2.528706 4.354028 3.441367 3.441367 
C 4.354028 2.528706 4.866828 1.290698 4.866828 0 
C 4.866828 -1.290698 4.354028 -2.528706 3.441367 -3.441367 
C 2.528706 -4.354028 1.290698 -4.866828 0 -4.866828 
C -1.290698 -4.866828 -2.528706 -4.354028 -3.441367 -3.441367 
C -4.354028 -2.528706 -4.866828 -1.290698 -4.866828 0 
C -4.866828 1.290698 -4.354028 2.528706 -3.441367 3.441367 
C -2.528706 4.354028 -1.290698 4.866828 0 4.866828 
z
" id="mbfcda86c95" style="stroke:#000000;stroke-opacity:0;"/>
    </defs>
    <g clip-path="url(#p605191485c)">
     <use style="fill:#9d3e42;fill-opacity:0.8;stroke:#000000;stroke-opacity:0;" x="166.734011" xlink:href="#mbfcda86c95" y="241.253943"/>
    </g>
   </g>
   <g id="line2d_167"/>
   <g id="line2d_168"/>
   <g id="line2d_169"/>
   <g id="line2d_170">
    <path clip-path="url(#p605191485c)" d="M 45.984689 281.000627 
L 65.153297 279.609981 
L 81.955283 278.235218 
L 96.91133 276.868559 
L 110.387191 275.502226 
L 122.649647 274.128437 
L 133.899277 272.739414 
L 144.290702 271.327378 
L 153.945631 269.884549 
L 162.96159 268.403903 
L 171.417929 266.911509 
L 179.380078 265.413266 
L 186.902623 263.895186 
L 194.031576 262.350372 
L 200.806086 260.782166 
L 207.259733 259.194684 
L 213.421542 257.592044 
L 219.316771 255.978363 
L 224.967531 254.35607 
L 230.393293 252.616254 
L 235.611292 250.731106 
L 240.636853 248.756022 
L 245.483667 246.746404 
L 250.164014 244.757649 
L 254.68895 242.845157 
L 259.068464 241.444754 
L 263.311615 240.752065 
L 267.426637 240.41627 
L 271.421043 240.086416 
L 275.301702 239.426142 
L 279.074914 238.788121 
L 282.746469 238.440363 
L 286.3217 238.351548 
L 289.805534 238.490355 
L 293.202527 238.825466 
L 296.516903 239.325558 
L 299.752585 239.959314 
L 302.913225 240.695412 
L 306.002223 241.502532 
L 309.022756 242.349354 
L 311.977793 243.204559 
L 314.870115 244.036825 
L 317.702327 244.814834 
L 320.476879 245.507264 
L 323.19607 246.082796 
L 325.862067 246.51011 
L 328.476911 246.75339 
L 331.042529 246.805635 
L 333.560739 246.689043 
L 336.033262 246.426042 
L 338.461726 246.03906 
L 340.847674 245.550528 
L 343.192568 244.982873 
L 345.497799 244.358526 
L 347.764685 243.699914 
L 349.994481 243.029467 
L 352.188382 242.369614 
L 354.347524 241.742784 
L 356.472992 241.171406 
L 358.565821 240.677908 
L 360.626997 240.284721 
L 362.657463 240.007639 
L 364.658123 239.788216 
L 366.629837 239.606166 
L 368.573431 239.459929 
L 370.489697 239.347943 
L 372.379392 239.268649 
L 374.243243 239.220485 
L 376.081948 239.201891 
L 377.896175 239.211305 
L 379.686568 239.247168 
L 381.453746 239.307919 
L 383.198302 239.391997 
L 384.920808 239.497841 
L 386.621815 239.62389 
L 388.301853 239.768584 
L 389.961432 239.930363 
L 391.601046 240.107665 
L 393.221168 240.298929 
L 394.822256 240.502596 
L 396.404753 240.717104 
L 397.969085 240.940893 
L 399.515665 241.172402 
L 401.044891 241.41007 
L 402.557148 241.652337 
L 404.052809 241.897642 
L 405.532233 242.144423 
L 406.995771 242.391122 
L 408.443758 242.636176 
L 409.876523 242.878025 
L 411.294382 243.115109 
L 412.697641 243.345867 
L 414.0866 243.568737 
L 415.461545 243.78216 
L 416.822757 243.984575 
L 418.170508 244.17442 
L 419.505061 244.350136 
L 420.826673 244.510162 
L 422.135591 244.652936 
L 423.432058 244.776898 
" style="fill:none;stroke:#8b0000;stroke-linecap:round;stroke-opacity:0.5;stroke-width:1.5;"/>
   </g>
   <g id="text_12">
    <!-- dynomight.net -->
    <g style="fill:#262626;opacity:0.25;" transform="translate(592.740965 381.216)scale(0.06 -0.06)">
     <defs>
      <path d="M 2681 3053 
L 2681 4863 
L 3256 4863 
L 3256 0 
L 2681 0 
L 2681 441 
Q 2538 181 2298 45 
Q 2059 -91 1747 -91 
Q 1113 -91 748 401 
Q 384 894 384 1759 
Q 384 2613 750 3098 
Q 1116 3584 1747 3584 
Q 2063 3584 2303 3448 
Q 2544 3313 2681 3053 
z
M 991 1747 
Q 991 1078 1203 737 
Q 1416 397 1831 397 
Q 2247 397 2464 740 
Q 2681 1084 2681 1747 
Q 2681 2413 2464 2755 
Q 2247 3097 1831 3097 
Q 1416 3097 1203 2756 
Q 991 2416 991 1747 
z
" id="DejaVuSansMono-64" transform="scale(0.015625)"/>
      <path d="M 2681 1125 
Q 2538 759 2316 163 
Q 2006 -663 1900 -844 
Q 1756 -1088 1540 -1209 
Q 1325 -1331 1038 -1331 
L 575 -1331 
L 575 -850 
L 916 -850 
Q 1169 -850 1312 -703 
Q 1456 -556 1678 56 
L 325 3500 
L 934 3500 
L 1972 763 
L 2994 3500 
L 3603 3500 
L 2681 1125 
z
" id="DejaVuSansMono-79" transform="scale(0.015625)"/>
      <path d="M 3284 2169 
L 3284 0 
L 2706 0 
L 2706 2169 
Q 2706 2641 2540 2862 
Q 2375 3084 2022 3084 
Q 1619 3084 1401 2798 
Q 1184 2513 1184 1978 
L 1184 0 
L 609 0 
L 609 3500 
L 1184 3500 
L 1184 2975 
Q 1338 3275 1600 3429 
Q 1863 3584 2222 3584 
Q 2756 3584 3020 3232 
Q 3284 2881 3284 2169 
z
" id="DejaVuSansMono-6e" transform="scale(0.015625)"/>
      <path d="M 1925 3097 
Q 1488 3097 1263 2756 
Q 1038 2416 1038 1747 
Q 1038 1081 1263 739 
Q 1488 397 1925 397 
Q 2366 397 2591 739 
Q 2816 1081 2816 1747 
Q 2816 2416 2591 2756 
Q 2366 3097 1925 3097 
z
M 1925 3584 
Q 2653 3584 3039 3112 
Q 3425 2641 3425 1747 
Q 3425 850 3040 379 
Q 2656 -91 1925 -91 
Q 1197 -91 812 379 
Q 428 850 428 1747 
Q 428 2641 812 3112 
Q 1197 3584 1925 3584 
z
" id="DejaVuSansMono-6f" transform="scale(0.015625)"/>
      <path d="M 2113 3144 
Q 2219 3369 2383 3476 
Q 2547 3584 2778 3584 
Q 3200 3584 3373 3257 
Q 3547 2931 3547 2028 
L 3547 0 
L 3022 0 
L 3022 2003 
Q 3022 2744 2939 2923 
Q 2856 3103 2638 3103 
Q 2388 3103 2295 2911 
Q 2203 2719 2203 2003 
L 2203 0 
L 1678 0 
L 1678 2003 
Q 1678 2753 1589 2928 
Q 1500 3103 1269 3103 
Q 1041 3103 952 2911 
Q 863 2719 863 2003 
L 863 0 
L 341 0 
L 341 3500 
L 863 3500 
L 863 3200 
Q 966 3388 1120 3486 
Q 1275 3584 1472 3584 
Q 1709 3584 1867 3475 
Q 2025 3366 2113 3144 
z
" id="DejaVuSansMono-6d" transform="scale(0.015625)"/>
      <path d="M 800 3500 
L 2272 3500 
L 2272 447 
L 3413 447 
L 3413 0 
L 556 0 
L 556 447 
L 1697 447 
L 1697 3053 
L 800 3053 
L 800 3500 
z
M 1697 4863 
L 2272 4863 
L 2272 4134 
L 1697 4134 
L 1697 4863 
z
" id="DejaVuSansMono-69" transform="scale(0.015625)"/>
      <path d="M 2681 1778 
Q 2681 2425 2470 2761 
Q 2259 3097 1856 3097 
Q 1434 3097 1212 2761 
Q 991 2425 991 1778 
Q 991 1131 1214 792 
Q 1438 453 1863 453 
Q 2259 453 2470 793 
Q 2681 1134 2681 1778 
z
M 3256 225 
Q 3256 -563 2884 -969 
Q 2513 -1375 1791 -1375 
Q 1553 -1375 1293 -1331 
Q 1034 -1288 775 -1203 
L 775 -634 
Q 1081 -778 1331 -847 
Q 1581 -916 1791 -916 
Q 2256 -916 2468 -662 
Q 2681 -409 2681 141 
L 2681 166 
L 2681 556 
Q 2544 263 2306 119 
Q 2069 -25 1728 -25 
Q 1116 -25 750 465 
Q 384 956 384 1778 
Q 384 2603 750 3093 
Q 1116 3584 1728 3584 
Q 2066 3584 2300 3450 
Q 2534 3316 2681 3034 
L 2681 3488 
L 3256 3488 
L 3256 225 
z
" id="DejaVuSansMono-67" transform="scale(0.015625)"/>
      <path d="M 3284 2169 
L 3284 0 
L 2706 0 
L 2706 2169 
Q 2706 2641 2540 2862 
Q 2375 3084 2022 3084 
Q 1619 3084 1401 2798 
Q 1184 2513 1184 1978 
L 1184 0 
L 609 0 
L 609 4863 
L 1184 4863 
L 1184 2975 
Q 1338 3275 1600 3429 
Q 1863 3584 2222 3584 
Q 2756 3584 3020 3232 
Q 3284 2881 3284 2169 
z
" id="DejaVuSansMono-68" transform="scale(0.015625)"/>
      <path d="M 1919 4494 
L 1919 3500 
L 3225 3500 
L 3225 3053 
L 1919 3053 
L 1919 1153 
Q 1919 766 2066 612 
Q 2213 459 2578 459 
L 3225 459 
L 3225 0 
L 2522 0 
Q 1875 0 1609 259 
Q 1344 519 1344 1153 
L 1344 3053 
L 409 3053 
L 409 3500 
L 1344 3500 
L 1344 4494 
L 1919 4494 
z
" id="DejaVuSansMono-74" transform="scale(0.015625)"/>
      <path d="M 1528 953 
L 2316 953 
L 2316 0 
L 1528 0 
L 1528 953 
z
" id="DejaVuSansMono-2e" transform="scale(0.015625)"/>
      <path d="M 3475 1894 
L 3475 1613 
L 984 1613 
L 984 1594 
Q 984 1022 1282 709 
Q 1581 397 2125 397 
Q 2400 397 2700 484 
Q 3000 572 3341 750 
L 3341 178 
Q 3013 44 2708 -23 
Q 2403 -91 2119 -91 
Q 1303 -91 843 398 
Q 384 888 384 1747 
Q 384 2584 834 3084 
Q 1284 3584 2034 3584 
Q 2703 3584 3089 3131 
Q 3475 2678 3475 1894 
z
M 2900 2063 
Q 2888 2569 2661 2833 
Q 2434 3097 2009 3097 
Q 1594 3097 1325 2822 
Q 1056 2547 1006 2059 
L 2900 2063 
z
" id="DejaVuSansMono-65" transform="scale(0.015625)"/>
     </defs>
     <use xlink:href="#DejaVuSansMono-64"/>
     <use x="60.205078" xlink:href="#DejaVuSansMono-79"/>
     <use x="120.410156" xlink:href="#DejaVuSansMono-6e"/>
     <use x="180.615234" xlink:href="#DejaVuSansMono-6f"/>
     <use x="240.820312" xlink:href="#DejaVuSansMono-6d"/>
     <use x="301.025391" xlink:href="#DejaVuSansMono-69"/>
     <use x="361.230469" xlink:href="#DejaVuSansMono-67"/>
     <use x="421.435547" xlink:href="#DejaVuSansMono-68"/>
     <use x="481.640625" xlink:href="#DejaVuSansMono-74"/>
     <use x="541.845703" xlink:href="#DejaVuSansMono-2e"/>
     <use x="602.050781" xlink:href="#DejaVuSansMono-6e"/>
     <use x="662.255859" xlink:href="#DejaVuSansMono-65"/>
     <use x="722.460938" xlink:href="#DejaVuSansMono-74"/>
    </g>
   </g>
  </g>
  <g id="text_13">
   <!-- GPD per capita in 1870 vs. 1920 -->
   <g style="fill:#262626;" transform="translate(139.5765 30.0105)scale(0.288 -0.288)">
    <defs>
     <path d="M 3885 2240 
L 4339 2240 
L 4339 531 
Q 4026 256 3597 109 
Q 3168 -38 2694 -38 
Q 2022 -38 1484 256 
Q 947 550 640 1072 
Q 333 1594 333 2240 
Q 333 2886 640 3408 
Q 947 3930 1484 4224 
Q 2022 4518 2701 4518 
Q 3213 4518 3641 4355 
Q 4070 4192 4365 3872 
L 4070 3571 
Q 3539 4096 2720 4096 
Q 2176 4096 1737 3856 
Q 1299 3616 1049 3190 
Q 800 2765 800 2240 
Q 800 1715 1049 1292 
Q 1299 870 1734 627 
Q 2170 384 2714 384 
Q 3405 384 3885 730 
L 3885 2240 
z
" id="Montserrat-Regular-47" transform="scale(0.015625)"/>
     <path d="M 2406 4480 
Q 3264 4480 3750 4070 
Q 4237 3661 4237 2944 
Q 4237 2227 3750 1820 
Q 3264 1414 2406 1414 
L 1203 1414 
L 1203 0 
L 730 0 
L 730 4480 
L 2406 4480 
z
M 2394 1830 
Q 3059 1830 3411 2121 
Q 3763 2413 3763 2944 
Q 3763 3488 3411 3779 
Q 3059 4070 2394 4070 
L 1203 4070 
L 1203 1830 
L 2394 1830 
z
" id="Montserrat-Regular-50" transform="scale(0.015625)"/>
     <path d="M 730 4480 
L 2554 4480 
Q 3264 4480 3808 4195 
Q 4352 3910 4653 3401 
Q 4954 2893 4954 2240 
Q 4954 1587 4653 1078 
Q 4352 570 3808 285 
Q 3264 0 2554 0 
L 730 0 
L 730 4480 
z
M 2528 410 
Q 3117 410 3558 643 
Q 4000 877 4243 1289 
Q 4486 1702 4486 2240 
Q 4486 2778 4243 3190 
Q 4000 3603 3558 3836 
Q 3117 4070 2528 4070 
L 1203 4070 
L 1203 410 
L 2528 410 
z
" id="Montserrat-Regular-44" transform="scale(0.015625)"/>
     <path d="M 2368 3392 
Q 2842 3392 3226 3177 
Q 3610 2963 3827 2572 
Q 4045 2182 4045 1683 
Q 4045 1178 3827 787 
Q 3610 397 3229 182 
Q 2848 -32 2368 -32 
Q 1958 -32 1628 137 
Q 1299 307 1088 634 
L 1088 -1242 
L 634 -1242 
L 634 3366 
L 1069 3366 
L 1069 2701 
Q 1274 3034 1610 3213 
Q 1946 3392 2368 3392 
z
M 2336 371 
Q 2688 371 2976 534 
Q 3264 698 3427 998 
Q 3590 1299 3590 1683 
Q 3590 2067 3427 2364 
Q 3264 2662 2976 2828 
Q 2688 2995 2336 2995 
Q 1978 2995 1693 2828 
Q 1408 2662 1245 2364 
Q 1082 2067 1082 1683 
Q 1082 1299 1245 998 
Q 1408 698 1693 534 
Q 1978 371 2336 371 
z
" id="Montserrat-Regular-70" transform="scale(0.015625)"/>
     <path d="M 2029 -32 
Q 1530 -32 1136 185 
Q 742 403 518 796 
Q 294 1190 294 1683 
Q 294 2176 518 2566 
Q 742 2957 1136 3174 
Q 1530 3392 2029 3392 
Q 2464 3392 2806 3222 
Q 3149 3053 3347 2726 
L 3008 2496 
Q 2842 2746 2586 2870 
Q 2330 2995 2029 2995 
Q 1664 2995 1373 2832 
Q 1082 2669 918 2368 
Q 755 2067 755 1683 
Q 755 1293 918 995 
Q 1082 698 1373 534 
Q 1664 371 2029 371 
Q 2330 371 2586 492 
Q 2842 614 3008 864 
L 3347 634 
Q 3149 307 2803 137 
Q 2458 -32 2029 -32 
z
" id="Montserrat-Regular-63" transform="scale(0.015625)"/>
     <path d="M 634 3366 
L 1088 3366 
L 1088 0 
L 634 0 
L 634 3366 
z
M 864 4102 
Q 723 4102 627 4198 
Q 531 4294 531 4429 
Q 531 4557 627 4653 
Q 723 4749 864 4749 
Q 1005 4749 1101 4656 
Q 1197 4563 1197 4435 
Q 1197 4294 1101 4198 
Q 1005 4102 864 4102 
z
" id="Montserrat-Regular-69" transform="scale(0.015625)"/>
     <path d="M 3494 4480 
L 3494 4154 
L 1619 0 
L 1120 0 
L 2963 4070 
L 659 4070 
L 659 3232 
L 205 3232 
L 205 4480 
L 3494 4480 
z
" id="Montserrat-Regular-37" transform="scale(0.015625)"/>
     <path d="M 3462 3366 
L 1965 0 
L 1498 0 
L 6 3366 
L 480 3366 
L 1741 499 
L 3014 3366 
L 3462 3366 
z
" id="Montserrat-Regular-76" transform="scale(0.015625)"/>
     <path d="M 1536 -32 
Q 1126 -32 752 86 
Q 378 205 166 384 
L 371 742 
Q 582 576 902 470 
Q 1222 365 1568 365 
Q 2029 365 2249 509 
Q 2470 653 2470 915 
Q 2470 1101 2348 1206 
Q 2227 1312 2041 1366 
Q 1856 1421 1549 1472 
Q 1139 1549 889 1629 
Q 640 1709 464 1901 
Q 288 2093 288 2432 
Q 288 2854 640 3123 
Q 992 3392 1619 3392 
Q 1946 3392 2272 3305 
Q 2598 3219 2810 3078 
L 2611 2714 
Q 2195 3002 1619 3002 
Q 1184 3002 963 2848 
Q 742 2694 742 2445 
Q 742 2253 867 2137 
Q 992 2022 1177 1968 
Q 1363 1914 1690 1856 
Q 2093 1779 2336 1702 
Q 2579 1626 2752 1440 
Q 2925 1254 2925 928 
Q 2925 486 2557 227 
Q 2189 -32 1536 -32 
z
" id="Montserrat-Regular-73" transform="scale(0.015625)"/>
     <path d="M 678 -32 
Q 538 -32 438 70 
Q 339 173 339 320 
Q 339 467 438 566 
Q 538 666 678 666 
Q 819 666 921 566 
Q 1024 467 1024 320 
Q 1024 173 921 70 
Q 819 -32 678 -32 
z
" id="Montserrat-Regular-2e" transform="scale(0.015625)"/>
     <path d="M 1728 4518 
Q 2618 4518 3091 3932 
Q 3565 3347 3565 2278 
Q 3565 1530 3309 1011 
Q 3053 493 2592 227 
Q 2131 -38 1517 -38 
Q 851 -38 454 205 
L 640 576 
Q 960 365 1510 365 
Q 2253 365 2675 835 
Q 3098 1306 3098 2202 
Q 3098 2368 3078 2566 
Q 2912 2202 2547 2000 
Q 2182 1798 1709 1798 
Q 1267 1798 924 1964 
Q 582 2131 390 2435 
Q 198 2739 198 3142 
Q 198 3552 396 3865 
Q 595 4179 944 4348 
Q 1293 4518 1728 4518 
z
M 1779 2189 
Q 2118 2189 2377 2317 
Q 2637 2445 2784 2669 
Q 2931 2893 2931 3168 
Q 2931 3424 2793 3641 
Q 2656 3859 2387 3993 
Q 2118 4128 1747 4128 
Q 1261 4128 957 3862 
Q 653 3597 653 3155 
Q 653 2714 957 2451 
Q 1261 2189 1779 2189 
z
" id="Montserrat-Regular-39" transform="scale(0.015625)"/>
    </defs>
    <use xlink:href="#Montserrat-Regular-47"/>
    <use x="77.299988" xlink:href="#Montserrat-Regular-50"/>
    <use x="149.099976" xlink:href="#Montserrat-Regular-44"/>
    <use x="231.699966" xlink:href="#Montserrat-Regular-20"/>
    <use x="257.899963" xlink:href="#Montserrat-Regular-70"/>
    <use x="325.699951" xlink:href="#Montserrat-Regular-65"/>
    <use x="386.099945" xlink:href="#Montserrat-Regular-72"/>
    <use x="426.199936" xlink:href="#Montserrat-Regular-20"/>
    <use x="452.399933" xlink:href="#Montserrat-Regular-63"/>
    <use x="508.699921" xlink:href="#Montserrat-Regular-61"/>
    <use x="567.699905" xlink:href="#Montserrat-Regular-70"/>
    <use x="635.499893" xlink:href="#Montserrat-Regular-69"/>
    <use x="662.399887" xlink:href="#Montserrat-Regular-74"/>
    <use x="702.999878" xlink:href="#Montserrat-Regular-61"/>
    <use x="761.999863" xlink:href="#Montserrat-Regular-20"/>
    <use x="788.19986" xlink:href="#Montserrat-Regular-69"/>
    <use x="815.099854" xlink:href="#Montserrat-Regular-6e"/>
    <use x="882.799835" xlink:href="#Montserrat-Regular-20"/>
    <use x="908.999832" xlink:href="#Montserrat-Regular-31"/>
    <use x="945.099823" xlink:href="#Montserrat-Regular-38"/>
    <use x="1008.899811" xlink:href="#Montserrat-Regular-37"/>
    <use x="1067.799805" xlink:href="#Montserrat-Regular-30"/>
    <use x="1133.999802" xlink:href="#Montserrat-Regular-20"/>
    <use x="1160.199799" xlink:href="#Montserrat-Regular-76"/>
    <use x="1214.399796" xlink:href="#Montserrat-Regular-73"/>
    <use x="1263.299789" xlink:href="#Montserrat-Regular-2e"/>
    <use x="1284.499786" xlink:href="#Montserrat-Regular-20"/>
    <use x="1310.699783" xlink:href="#Montserrat-Regular-31"/>
    <use x="1346.799774" xlink:href="#Montserrat-Regular-39"/>
    <use x="1407.699768" xlink:href="#Montserrat-Regular-32"/>
    <use x="1464.499756" xlink:href="#Montserrat-Regular-30"/>
   </g>
  </g>
  <g id="text_14">
   <!-- GDP per capita at start -->
   <g style="fill:#262626;" transform="translate(195.38325 422.091)scale(0.288 -0.288)">
    <use xlink:href="#Montserrat-Regular-47"/>
    <use x="77.299988" xlink:href="#Montserrat-Regular-44"/>
    <use x="159.899979" xlink:href="#Montserrat-Regular-50"/>
    <use x="231.699966" xlink:href="#Montserrat-Regular-20"/>
    <use x="257.899963" xlink:href="#Montserrat-Regular-70"/>
    <use x="325.699951" xlink:href="#Montserrat-Regular-65"/>
    <use x="386.099945" xlink:href="#Montserrat-Regular-72"/>
    <use x="426.199936" xlink:href="#Montserrat-Regular-20"/>
    <use x="452.399933" xlink:href="#Montserrat-Regular-63"/>
    <use x="508.699921" xlink:href="#Montserrat-Regular-61"/>
    <use x="567.699905" xlink:href="#Montserrat-Regular-70"/>
    <use x="635.499893" xlink:href="#Montserrat-Regular-69"/>
    <use x="662.399887" xlink:href="#Montserrat-Regular-74"/>
    <use x="702.999878" xlink:href="#Montserrat-Regular-61"/>
    <use x="761.999863" xlink:href="#Montserrat-Regular-20"/>
    <use x="788.19986" xlink:href="#Montserrat-Regular-61"/>
    <use x="847.199844" xlink:href="#Montserrat-Regular-74"/>
    <use x="887.799835" xlink:href="#Montserrat-Regular-20"/>
    <use x="913.999832" xlink:href="#Montserrat-Regular-73"/>
    <use x="962.899826" xlink:href="#Montserrat-Regular-74"/>
    <use x="1003.499817" xlink:href="#Montserrat-Regular-61"/>
    <use x="1062.499802" xlink:href="#Montserrat-Regular-72"/>
    <use x="1102.599792" xlink:href="#Montserrat-Regular-74"/>
   </g>
  </g>
 </g>
 <defs>
  <clipPath id="p605191485c">
   <rect height="315.36" width="558" x="90" y="51.84"/>
  </clipPath>
 </defs>
</svg>
