<?xml version="1.0" encoding="utf-8" standalone="no"?>
<!DOCTYPE svg PUBLIC "-//W3C//DTD SVG 1.1//EN"
  "http://www.w3.org/Graphics/SVG/1.1/DTD/svg11.dtd">
<svg height="432pt" version="1.1" viewBox="0 0 720 432" width="720pt" xmlns="http://www.w3.org/2000/svg" xmlns:xlink="http://www.w3.org/1999/xlink">
 <metadata>
  <rdf:RDF xmlns:cc="http://creativecommons.org/ns#" xmlns:dc="http://purl.org/dc/elements/1.1/" xmlns:rdf="http://www.w3.org/1999/02/22-rdf-syntax-ns#">
   <cc:Work>
    <dc:type rdf:resource="http://purl.org/dc/dcmitype/StillImage"/>
    <dc:date>2022-02-22T13:42:20.713895</dc:date>
    <dc:format>image/svg+xml</dc:format>
    <dc:creator>
     <cc:Agent>
      <dc:title>Matplotlib v3.4.1, https://matplotlib.org/</dc:title>
     </cc:Agent>
    </dc:creator>
   </cc:Work>
  </rdf:RDF>
 </metadata>
 <defs>
  <style type="text/css">*{stroke-linecap:butt;stroke-linejoin:round;}</style>
 </defs>
 <g id="figure_1">
  <g id="patch_1">
   <path d="M 0 432 
L 720 432 
L 720 0 
L 0 0 
z
" style="fill:#ffffff;"/>
  </g>
  <g id="axes_1">
   <g id="patch_2">
    <path d="M 90 367.2 
L 648 367.2 
L 648 51.84 
L 90 51.84 
z
" style="fill:#ffffff;"/>
   </g>
   <g id="matplotlib.axis_1">
    <g id="xtick_1">
     <g id="text_1">
      <!-- $1k -->
      <g style="fill:#262626;" transform="translate(167.12032 393.110625)scale(0.22 -0.22)">
       <defs>
        <path d="M 3635 1184 
Q 3635 691 3257 348 
Q 2880 6 2150 -32 
L 2150 -768 
L 1830 -768 
L 1830 -38 
Q 1363 -13 950 144 
Q 538 301 301 544 
L 486 909 
Q 710 691 1072 544 
Q 1434 397 1830 371 
L 1830 2054 
Q 1389 2163 1094 2288 
Q 800 2413 605 2653 
Q 410 2893 410 3290 
Q 410 3782 768 4118 
Q 1126 4454 1830 4512 
L 1830 5248 
L 2150 5248 
L 2150 4518 
Q 2515 4506 2857 4400 
Q 3200 4294 3450 4122 
L 3290 3744 
Q 3027 3910 2732 4006 
Q 2438 4102 2150 4115 
L 2150 2419 
Q 2624 2304 2925 2185 
Q 3226 2067 3430 1824 
Q 3635 1581 3635 1184 
z
M 877 3302 
Q 877 2970 1123 2797 
Q 1370 2624 1830 2502 
L 1830 4102 
Q 1357 4064 1117 3843 
Q 877 3622 877 3302 
z
M 2150 371 
Q 2656 410 2912 621 
Q 3168 832 3168 1158 
Q 3168 1504 2905 1677 
Q 2643 1850 2150 1971 
L 2150 371 
z
" id="Montserrat-Regular-24" transform="scale(0.015625)"/>
        <path d="M 1574 4480 
L 1574 0 
L 1114 0 
L 1114 4070 
L 58 4070 
L 58 4480 
L 1574 4480 
z
" id="Montserrat-Regular-31" transform="scale(0.015625)"/>
        <path d="M 1882 1690 
L 1088 960 
L 1088 0 
L 634 0 
L 634 4749 
L 1088 4749 
L 1088 1530 
L 3098 3366 
L 3661 3366 
L 2221 1990 
L 3795 0 
L 3238 0 
L 1882 1690 
z
" id="Montserrat-Regular-6b" transform="scale(0.015625)"/>
       </defs>
       <use xlink:href="#Montserrat-Regular-24"/>
       <use x="61.499985" xlink:href="#Montserrat-Regular-31"/>
       <use x="97.599976" xlink:href="#Montserrat-Regular-6b"/>
      </g>
     </g>
    </g>
    <g id="xtick_2">
     <g id="text_2">
      <!-- $2k -->
      <g style="fill:#262626;" transform="translate(259.308921 393.110625)scale(0.22 -0.22)">
       <defs>
        <path d="M 3392 410 
L 3392 0 
L 250 0 
L 250 326 
L 2112 2150 
Q 2464 2496 2589 2749 
Q 2714 3002 2714 3258 
Q 2714 3654 2442 3875 
Q 2170 4096 1664 4096 
Q 877 4096 442 3597 
L 115 3878 
Q 378 4186 784 4352 
Q 1190 4518 1702 4518 
Q 2387 4518 2787 4195 
Q 3187 3872 3187 3309 
Q 3187 2963 3033 2643 
Q 2880 2323 2451 1907 
L 928 410 
L 3392 410 
z
" id="Montserrat-Regular-32" transform="scale(0.015625)"/>
       </defs>
       <use xlink:href="#Montserrat-Regular-24"/>
       <use x="61.499985" xlink:href="#Montserrat-Regular-32"/>
       <use x="118.299973" xlink:href="#Montserrat-Regular-6b"/>
      </g>
     </g>
    </g>
    <g id="xtick_3">
     <g id="text_3">
      <!-- $4k -->
      <g style="fill:#262626;" transform="translate(352.752209 393.110625)scale(0.22 -0.22)">
       <defs>
        <path d="M 4141 1178 
L 3245 1178 
L 3245 0 
L 2784 0 
L 2784 1178 
L 256 1178 
L 256 1510 
L 2630 4480 
L 3142 4480 
L 851 1587 
L 2797 1587 
L 2797 2624 
L 3245 2624 
L 3245 1587 
L 4141 1587 
L 4141 1178 
z
" id="Montserrat-Regular-34" transform="scale(0.015625)"/>
       </defs>
       <use xlink:href="#Montserrat-Regular-24"/>
       <use x="61.499985" xlink:href="#Montserrat-Regular-34"/>
       <use x="127.599976" xlink:href="#Montserrat-Regular-6b"/>
      </g>
     </g>
    </g>
    <g id="xtick_4">
     <g id="text_4">
      <!-- $8k -->
      <g style="fill:#262626;" transform="translate(447.47081 393.110625)scale(0.22 -0.22)">
       <defs>
        <path d="M 2899 2349 
Q 3322 2208 3549 1926 
Q 3776 1645 3776 1248 
Q 3776 858 3565 566 
Q 3354 275 2960 118 
Q 2566 -38 2035 -38 
Q 1229 -38 768 307 
Q 307 653 307 1248 
Q 307 1651 528 1929 
Q 749 2208 1171 2349 
Q 826 2483 646 2736 
Q 467 2989 467 3334 
Q 467 3878 892 4198 
Q 1318 4518 2035 4518 
Q 2509 4518 2864 4374 
Q 3219 4230 3417 3961 
Q 3616 3693 3616 3334 
Q 3616 2989 3430 2736 
Q 3245 2483 2899 2349 
z
M 928 3322 
Q 928 2950 1222 2732 
Q 1517 2515 2035 2515 
Q 2554 2515 2851 2732 
Q 3149 2950 3149 3315 
Q 3149 3693 2845 3910 
Q 2541 4128 2035 4128 
Q 1523 4128 1225 3910 
Q 928 3693 928 3322 
z
M 2035 352 
Q 2630 352 2966 595 
Q 3302 838 3302 1254 
Q 3302 1670 2966 1910 
Q 2630 2150 2035 2150 
Q 1446 2150 1110 1910 
Q 774 1670 774 1254 
Q 774 832 1107 592 
Q 1440 352 2035 352 
z
" id="Montserrat-Regular-38" transform="scale(0.015625)"/>
       </defs>
       <use xlink:href="#Montserrat-Regular-24"/>
       <use x="61.499985" xlink:href="#Montserrat-Regular-38"/>
       <use x="125.299973" xlink:href="#Montserrat-Regular-6b"/>
      </g>
     </g>
    </g>
    <g id="xtick_5">
     <g id="text_5">
      <!-- $16k -->
      <g style="fill:#262626;" transform="translate(538.284411 393.110625)scale(0.22 -0.22)">
       <defs>
        <path d="M 2189 2682 
Q 2630 2682 2972 2515 
Q 3315 2349 3507 2045 
Q 3699 1741 3699 1338 
Q 3699 928 3500 614 
Q 3302 301 2953 131 
Q 2605 -38 2170 -38 
Q 1280 -38 806 547 
Q 333 1133 333 2202 
Q 333 2950 589 3468 
Q 845 3987 1305 4252 
Q 1766 4518 2381 4518 
Q 3046 4518 3443 4275 
L 3258 3904 
Q 2938 4115 2387 4115 
Q 1645 4115 1222 3644 
Q 800 3174 800 2278 
Q 800 2118 819 1914 
Q 986 2278 1350 2480 
Q 1715 2682 2189 2682 
z
M 2150 352 
Q 2637 352 2941 617 
Q 3245 883 3245 1325 
Q 3245 1766 2941 2028 
Q 2637 2291 2118 2291 
Q 1779 2291 1520 2163 
Q 1261 2035 1113 1811 
Q 966 1587 966 1312 
Q 966 1056 1104 838 
Q 1242 621 1510 486 
Q 1779 352 2150 352 
z
" id="Montserrat-Regular-36" transform="scale(0.015625)"/>
       </defs>
       <use xlink:href="#Montserrat-Regular-24"/>
       <use x="61.499985" xlink:href="#Montserrat-Regular-31"/>
       <use x="97.599976" xlink:href="#Montserrat-Regular-36"/>
       <use x="158.499969" xlink:href="#Montserrat-Regular-6b"/>
      </g>
     </g>
    </g>
    <g id="xtick_6"/>
    <g id="xtick_7"/>
    <g id="xtick_8"/>
    <g id="xtick_9"/>
    <g id="xtick_10"/>
    <g id="xtick_11"/>
    <g id="xtick_12"/>
    <g id="xtick_13"/>
    <g id="xtick_14"/>
    <g id="xtick_15"/>
    <g id="xtick_16"/>
    <g id="xtick_17"/>
   </g>
   <g id="matplotlib.axis_2">
    <g id="ytick_1">
     <g id="text_6">
      <!-- −2 -->
      <g style="fill:#262626;" transform="translate(55.354687 357.842344)scale(0.22 -0.22)">
       <defs>
        <path d="M 448 2426 
L 3232 2426 
L 3232 2048 
L 448 2048 
L 448 2426 
z
" id="Montserrat-Regular-2212" transform="scale(0.015625)"/>
       </defs>
       <use xlink:href="#Montserrat-Regular-2212"/>
       <use x="57.499985" xlink:href="#Montserrat-Regular-32"/>
      </g>
     </g>
    </g>
    <g id="ytick_2">
     <g id="text_7">
      <!-- 0 -->
      <g style="fill:#262626;" transform="translate(65.935312 287.762344)scale(0.22 -0.22)">
       <defs>
        <path d="M 2118 -38 
Q 1600 -38 1193 237 
Q 787 512 560 1027 
Q 333 1542 333 2240 
Q 333 2938 560 3453 
Q 787 3968 1193 4243 
Q 1600 4518 2118 4518 
Q 2637 4518 3043 4243 
Q 3450 3968 3680 3453 
Q 3910 2938 3910 2240 
Q 3910 1542 3680 1027 
Q 3450 512 3043 237 
Q 2637 -38 2118 -38 
z
M 2118 384 
Q 2509 384 2806 601 
Q 3104 819 3270 1235 
Q 3437 1651 3437 2240 
Q 3437 2829 3270 3245 
Q 3104 3661 2806 3878 
Q 2509 4096 2118 4096 
Q 1728 4096 1430 3878 
Q 1133 3661 966 3245 
Q 800 2829 800 2240 
Q 800 1651 966 1235 
Q 1133 819 1430 601 
Q 1728 384 2118 384 
z
" id="Montserrat-Regular-30" transform="scale(0.015625)"/>
       </defs>
       <use xlink:href="#Montserrat-Regular-30"/>
      </g>
     </g>
    </g>
    <g id="ytick_3">
     <g id="text_8">
      <!-- 2 -->
      <g style="fill:#262626;" transform="translate(68.004688 217.682344)scale(0.22 -0.22)">
       <use xlink:href="#Montserrat-Regular-32"/>
      </g>
     </g>
    </g>
    <g id="ytick_4">
     <g id="text_9">
      <!-- 4 -->
      <g style="fill:#262626;" transform="translate(65.959375 147.602344)scale(0.22 -0.22)">
       <use xlink:href="#Montserrat-Regular-34"/>
      </g>
     </g>
    </g>
    <g id="ytick_5">
     <g id="text_10">
      <!-- 6 -->
      <g style="fill:#262626;" transform="translate(67.100625 77.522344)scale(0.22 -0.22)">
       <use xlink:href="#Montserrat-Regular-36"/>
      </g>
     </g>
    </g>
    <g id="text_11">
     <!-- mean yearly growth (%) -->
     <g style="fill:#262626;" transform="translate(46.577187 351.4725)rotate(-90)scale(0.24 -0.24)">
      <defs>
       <path d="M 4832 3392 
Q 5466 3392 5827 3027 
Q 6189 2662 6189 1952 
L 6189 0 
L 5734 0 
L 5734 1907 
Q 5734 2432 5481 2707 
Q 5229 2982 4768 2982 
Q 4243 2982 3942 2659 
Q 3642 2336 3642 1766 
L 3642 0 
L 3187 0 
L 3187 1907 
Q 3187 2432 2934 2707 
Q 2682 2982 2214 2982 
Q 1696 2982 1392 2659 
Q 1088 2336 1088 1766 
L 1088 0 
L 634 0 
L 634 3366 
L 1069 3366 
L 1069 2752 
Q 1248 3059 1568 3225 
Q 1888 3392 2304 3392 
Q 2726 3392 3036 3213 
Q 3347 3034 3501 2682 
Q 3686 3014 4035 3203 
Q 4384 3392 4832 3392 
z
" id="Montserrat-Regular-6d" transform="scale(0.015625)"/>
       <path d="M 3565 1542 
L 749 1542 
Q 787 1018 1152 694 
Q 1517 371 2074 371 
Q 2387 371 2649 483 
Q 2912 595 3104 813 
L 3360 518 
Q 3136 250 2800 109 
Q 2464 -32 2061 -32 
Q 1542 -32 1142 189 
Q 742 410 518 800 
Q 294 1190 294 1683 
Q 294 2176 508 2566 
Q 723 2957 1097 3174 
Q 1472 3392 1939 3392 
Q 2406 3392 2777 3174 
Q 3149 2957 3360 2569 
Q 3571 2182 3571 1683 
L 3565 1542 
z
M 1939 3002 
Q 1453 3002 1123 2691 
Q 794 2381 749 1882 
L 3136 1882 
Q 3091 2381 2761 2691 
Q 2432 3002 1939 3002 
z
" id="Montserrat-Regular-65" transform="scale(0.015625)"/>
       <path d="M 1811 3392 
Q 2470 3392 2822 3062 
Q 3174 2733 3174 2086 
L 3174 0 
L 2739 0 
L 2739 525 
Q 2586 262 2288 115 
Q 1990 -32 1581 -32 
Q 1018 -32 685 237 
Q 352 506 352 947 
Q 352 1376 662 1638 
Q 973 1901 1651 1901 
L 2720 1901 
L 2720 2106 
Q 2720 2541 2477 2768 
Q 2234 2995 1766 2995 
Q 1446 2995 1152 2889 
Q 858 2784 646 2598 
L 442 2938 
Q 698 3155 1056 3273 
Q 1414 3392 1811 3392 
z
M 1651 326 
Q 2035 326 2310 502 
Q 2586 678 2720 1011 
L 2720 1562 
L 1664 1562 
Q 800 1562 800 960 
Q 800 666 1024 496 
Q 1248 326 1651 326 
z
" id="Montserrat-Regular-61" transform="scale(0.015625)"/>
       <path d="M 2349 3392 
Q 2982 3392 3356 3024 
Q 3731 2656 3731 1952 
L 3731 0 
L 3277 0 
L 3277 1907 
Q 3277 2432 3014 2707 
Q 2752 2982 2266 2982 
Q 1722 2982 1405 2659 
Q 1088 2336 1088 1766 
L 1088 0 
L 634 0 
L 634 3366 
L 1069 3366 
L 1069 2746 
Q 1254 3053 1584 3222 
Q 1914 3392 2349 3392 
z
" id="Montserrat-Regular-6e" transform="scale(0.015625)"/>
       <path id="Montserrat-Regular-20" transform="scale(0.015625)"/>
       <path d="M 3462 3366 
L 1779 -403 
Q 1574 -877 1305 -1075 
Q 1037 -1274 659 -1274 
Q 416 -1274 205 -1197 
Q -6 -1120 -160 -966 
L 51 -627 
Q 307 -883 666 -883 
Q 896 -883 1059 -755 
Q 1222 -627 1363 -320 
L 1510 6 
L 6 3366 
L 480 3366 
L 1747 506 
L 3014 3366 
L 3462 3366 
z
" id="Montserrat-Regular-79" transform="scale(0.015625)"/>
       <path d="M 1069 2707 
Q 1229 3046 1545 3219 
Q 1862 3392 2330 3392 
L 2330 2950 
L 2221 2957 
Q 1690 2957 1389 2630 
Q 1088 2304 1088 1715 
L 1088 0 
L 634 0 
L 634 3366 
L 1069 3366 
L 1069 2707 
z
" id="Montserrat-Regular-72" transform="scale(0.015625)"/>
       <path d="M 634 4749 
L 1088 4749 
L 1088 0 
L 634 0 
L 634 4749 
z
" id="Montserrat-Regular-6c" transform="scale(0.015625)"/>
       <path d="M 3750 3366 
L 3750 410 
Q 3750 -448 3331 -861 
Q 2912 -1274 2067 -1274 
Q 1600 -1274 1181 -1136 
Q 762 -998 499 -755 
L 730 -410 
Q 973 -627 1321 -748 
Q 1670 -870 2054 -870 
Q 2694 -870 2995 -572 
Q 3296 -275 3296 352 
L 3296 781 
Q 3085 461 2742 294 
Q 2400 128 1984 128 
Q 1510 128 1123 336 
Q 736 544 515 918 
Q 294 1293 294 1766 
Q 294 2240 515 2611 
Q 736 2982 1120 3187 
Q 1504 3392 1984 3392 
Q 2413 3392 2758 3219 
Q 3104 3046 3315 2720 
L 3315 3366 
L 3750 3366 
z
M 2029 531 
Q 2394 531 2688 688 
Q 2982 845 3145 1126 
Q 3309 1408 3309 1766 
Q 3309 2125 3145 2403 
Q 2982 2682 2691 2838 
Q 2400 2995 2029 2995 
Q 1664 2995 1373 2841 
Q 1082 2688 918 2406 
Q 755 2125 755 1766 
Q 755 1408 918 1126 
Q 1082 845 1373 688 
Q 1664 531 2029 531 
z
" id="Montserrat-Regular-67" transform="scale(0.015625)"/>
       <path d="M 2010 -32 
Q 1523 -32 1132 189 
Q 742 410 518 800 
Q 294 1190 294 1683 
Q 294 2176 518 2566 
Q 742 2957 1132 3174 
Q 1523 3392 2010 3392 
Q 2496 3392 2886 3174 
Q 3277 2957 3497 2566 
Q 3718 2176 3718 1683 
Q 3718 1190 3497 800 
Q 3277 410 2886 189 
Q 2496 -32 2010 -32 
z
M 2010 371 
Q 2368 371 2653 534 
Q 2938 698 3098 998 
Q 3258 1299 3258 1683 
Q 3258 2067 3098 2368 
Q 2938 2669 2653 2832 
Q 2368 2995 2010 2995 
Q 1651 2995 1366 2832 
Q 1082 2669 918 2368 
Q 755 2067 755 1683 
Q 755 1299 918 998 
Q 1082 698 1366 534 
Q 1651 371 2010 371 
z
" id="Montserrat-Regular-6f" transform="scale(0.015625)"/>
       <path d="M 5574 3366 
L 4301 0 
L 3872 0 
L 2810 2758 
L 1747 0 
L 1318 0 
L 51 3366 
L 486 3366 
L 1542 506 
L 2624 3366 
L 3014 3366 
L 4090 506 
L 5158 3366 
L 5574 3366 
z
" id="Montserrat-Regular-77" transform="scale(0.015625)"/>
       <path d="M 2406 205 
Q 2278 90 2089 29 
Q 1901 -32 1696 -32 
Q 1222 -32 966 224 
Q 710 480 710 947 
L 710 2982 
L 109 2982 
L 109 3366 
L 710 3366 
L 710 4102 
L 1165 4102 
L 1165 3366 
L 2189 3366 
L 2189 2982 
L 1165 2982 
L 1165 973 
Q 1165 672 1315 515 
Q 1466 358 1747 358 
Q 1888 358 2019 403 
Q 2150 448 2246 531 
L 2406 205 
z
" id="Montserrat-Regular-74" transform="scale(0.015625)"/>
       <path d="M 2349 3392 
Q 2982 3392 3356 3024 
Q 3731 2656 3731 1952 
L 3731 0 
L 3277 0 
L 3277 1907 
Q 3277 2432 3014 2707 
Q 2752 2982 2266 2982 
Q 1722 2982 1405 2659 
Q 1088 2336 1088 1766 
L 1088 0 
L 634 0 
L 634 4749 
L 1088 4749 
L 1088 2778 
Q 1274 3072 1600 3232 
Q 1926 3392 2349 3392 
z
" id="Montserrat-Regular-68" transform="scale(0.015625)"/>
       <path d="M 1408 -1242 
Q 1050 -653 858 112 
Q 666 877 666 1754 
Q 666 2630 858 3401 
Q 1050 4173 1408 4749 
L 1843 4749 
Q 1466 4102 1290 3360 
Q 1114 2618 1114 1754 
Q 1114 890 1290 147 
Q 1466 -595 1843 -1242 
L 1408 -1242 
z
" id="Montserrat-Regular-28" transform="scale(0.015625)"/>
       <path d="M 1280 2080 
Q 826 2080 547 2416 
Q 269 2752 269 3296 
Q 269 3840 547 4176 
Q 826 4512 1280 4512 
Q 1728 4512 2009 4179 
Q 2291 3846 2291 3296 
Q 2291 2746 2009 2413 
Q 1728 2080 1280 2080 
z
M 3994 4480 
L 4371 4480 
L 1312 0 
L 934 0 
L 3994 4480 
z
M 1280 2368 
Q 1594 2368 1782 2614 
Q 1971 2861 1971 3296 
Q 1971 3731 1782 3977 
Q 1594 4224 1280 4224 
Q 960 4224 774 3974 
Q 589 3725 589 3296 
Q 589 2867 774 2617 
Q 960 2368 1280 2368 
z
M 4026 -32 
Q 3578 -32 3296 304 
Q 3014 640 3014 1184 
Q 3014 1728 3296 2064 
Q 3578 2400 4026 2400 
Q 4480 2400 4758 2064 
Q 5037 1728 5037 1184 
Q 5037 640 4758 304 
Q 4480 -32 4026 -32 
z
M 4026 256 
Q 4346 256 4531 505 
Q 4717 755 4717 1184 
Q 4717 1613 4531 1862 
Q 4346 2112 4026 2112 
Q 3712 2112 3523 1865 
Q 3334 1619 3334 1184 
Q 3334 749 3523 502 
Q 3712 256 4026 256 
z
" id="Montserrat-Regular-25" transform="scale(0.015625)"/>
       <path d="M 256 -1242 
Q 634 -595 813 144 
Q 992 883 992 1754 
Q 992 2624 813 3363 
Q 634 4102 256 4749 
L 691 4749 
Q 1050 4173 1245 3401 
Q 1440 2630 1440 1754 
Q 1440 877 1248 109 
Q 1056 -659 691 -1242 
L 256 -1242 
z
" id="Montserrat-Regular-29" transform="scale(0.015625)"/>
      </defs>
      <use xlink:href="#Montserrat-Regular-6d"/>
      <use x="106.099991" xlink:href="#Montserrat-Regular-65"/>
      <use x="166.499985" xlink:href="#Montserrat-Regular-61"/>
      <use x="225.499969" xlink:href="#Montserrat-Regular-6e"/>
      <use x="293.199951" xlink:href="#Montserrat-Regular-20"/>
      <use x="319.399948" xlink:href="#Montserrat-Regular-79"/>
      <use x="373.599945" xlink:href="#Montserrat-Regular-65"/>
      <use x="433.999939" xlink:href="#Montserrat-Regular-61"/>
      <use x="492.999924" xlink:href="#Montserrat-Regular-72"/>
      <use x="533.099915" xlink:href="#Montserrat-Regular-6c"/>
      <use x="559.999908" xlink:href="#Montserrat-Regular-79"/>
      <use x="614.199905" xlink:href="#Montserrat-Regular-20"/>
      <use x="640.399902" xlink:href="#Montserrat-Regular-67"/>
      <use x="708.999893" xlink:href="#Montserrat-Regular-72"/>
      <use x="749.099884" xlink:href="#Montserrat-Regular-6f"/>
      <use x="811.799881" xlink:href="#Montserrat-Regular-77"/>
      <use x="899.699875" xlink:href="#Montserrat-Regular-74"/>
      <use x="940.299866" xlink:href="#Montserrat-Regular-68"/>
      <use x="1007.999847" xlink:href="#Montserrat-Regular-20"/>
      <use x="1034.199844" xlink:href="#Montserrat-Regular-28"/>
      <use x="1067.099838" xlink:href="#Montserrat-Regular-25"/>
      <use x="1149.999832" xlink:href="#Montserrat-Regular-29"/>
     </g>
    </g>
   </g>
   <g id="line2d_1">
    <defs>
     <path d="M 0 3.252116 
C 0.862471 3.252116 1.689734 2.909452 2.299593 2.299593 
C 2.909452 1.689734 3.252116 0.862471 3.252116 0 
C 3.252116 -0.862471 2.909452 -1.689734 2.299593 -2.299593 
C 1.689734 -2.909452 0.862471 -3.252116 0 -3.252116 
C -0.862471 -3.252116 -1.689734 -2.909452 -2.299593 -2.299593 
C -2.909452 -1.689734 -3.252116 -0.862471 -3.252116 0 
C -3.252116 0.862471 -2.909452 1.689734 -2.299593 2.299593 
C -1.689734 2.909452 -0.862471 3.252116 0 3.252116 
z
" id="mbe085366d9" style="stroke:#000000;stroke-opacity:0;"/>
    </defs>
    <g clip-path="url(#pda71db6615)">
     <use style="fill:#9d3e42;fill-opacity:0.8;stroke:#000000;stroke-opacity:0;" x="0" xlink:href="#mbe085366d9" y="0"/>
    </g>
   </g>
   <g id="line2d_2"/>
   <g id="line2d_3">
    <defs>
     <path d="M 0 1.231228 
C 0.326525 1.231228 0.639721 1.101498 0.870609 0.870609 
C 1.101498 0.639721 1.231228 0.326525 1.231228 0 
C 1.231228 -0.326525 1.101498 -0.639721 0.870609 -0.870609 
C 0.639721 -1.101498 0.326525 -1.231228 0 -1.231228 
C -0.326525 -1.231228 -0.639721 -1.101498 -0.870609 -0.870609 
C -1.101498 -0.639721 -1.231228 -0.326525 -1.231228 0 
C -1.231228 0.326525 -1.101498 0.639721 -0.870609 0.870609 
C -0.639721 1.101498 -0.326525 1.231228 0 1.231228 
z
" id="me4fcd4253f" style="stroke:#000000;stroke-opacity:0;"/>
    </defs>
    <g clip-path="url(#pda71db6615)">
     <use style="fill:#696969;fill-opacity:0.8;stroke:#000000;stroke-opacity:0;" x="0" xlink:href="#me4fcd4253f" y="0"/>
    </g>
   </g>
   <g id="line2d_4"/>
   <g id="line2d_5">
    <defs>
     <path d="M 0 2.124873 
C 0.563523 2.124873 1.104041 1.900983 1.502512 1.502512 
C 1.900983 1.104041 2.124873 0.563523 2.124873 0 
C 2.124873 -0.563523 1.900983 -1.104041 1.502512 -1.502512 
C 1.104041 -1.900983 0.563523 -2.124873 0 -2.124873 
C -0.563523 -2.124873 -1.104041 -1.900983 -1.502512 -1.502512 
C -1.900983 -1.104041 -2.124873 -0.563523 -2.124873 0 
C -2.124873 0.563523 -1.900983 1.104041 -1.502512 1.502512 
C -1.104041 1.900983 -0.563523 2.124873 0 2.124873 
z
" id="m3dd070bb3c" style="stroke:#000000;stroke-opacity:0;"/>
    </defs>
    <g clip-path="url(#pda71db6615)">
     <use style="fill:#448653;fill-opacity:0.8;stroke:#000000;stroke-opacity:0;" x="247.751877" xlink:href="#m3dd070bb3c" y="252.459394"/>
    </g>
   </g>
   <g id="line2d_6"/>
   <g id="line2d_7">
    <defs>
     <path d="M 0 2.112413 
C 0.560219 2.112413 1.097567 1.889836 1.493702 1.493702 
C 1.889836 1.097567 2.112413 0.560219 2.112413 0 
C 2.112413 -0.560219 1.889836 -1.097567 1.493702 -1.493702 
C 1.097567 -1.889836 0.560219 -2.112413 0 -2.112413 
C -0.560219 -2.112413 -1.097567 -1.889836 -1.493702 -1.493702 
C -1.889836 -1.097567 -2.112413 -0.560219 -2.112413 0 
C -2.112413 0.560219 -1.889836 1.097567 -1.493702 1.493702 
C -1.097567 1.889836 -0.560219 2.112413 0 2.112413 
z
" id="m338a7fac6a" style="stroke:#000000;stroke-opacity:0;"/>
    </defs>
    <g clip-path="url(#pda71db6615)">
     <use style="fill:#696969;fill-opacity:0.8;stroke:#000000;stroke-opacity:0;" x="158.41353" xlink:href="#m338a7fac6a" y="148.026633"/>
    </g>
   </g>
   <g id="line2d_8">
    <defs>
     <path d="M 0 3.370924 
C 0.893979 3.370924 1.751464 3.015742 2.383603 2.383603 
C 3.015742 1.751464 3.370924 0.893979 3.370924 0 
C 3.370924 -0.893979 3.015742 -1.751464 2.383603 -2.383603 
C 1.751464 -3.015742 0.893979 -3.370924 0 -3.370924 
C -0.893979 -3.370924 -1.751464 -3.015742 -2.383603 -2.383603 
C -3.015742 -1.751464 -3.370924 -0.893979 -3.370924 0 
C -3.370924 0.893979 -3.015742 1.751464 -2.383603 2.383603 
C -1.751464 3.015742 -0.893979 3.370924 0 3.370924 
z
" id="m1b42a08d32" style="stroke:#000000;stroke-opacity:0;"/>
    </defs>
    <g clip-path="url(#pda71db6615)">
     <use style="fill:#696969;fill-opacity:0.8;stroke:#000000;stroke-opacity:0;" x="274.850972" xlink:href="#m1b42a08d32" y="249.66371"/>
    </g>
   </g>
   <g id="line2d_9"/>
   <g id="line2d_10"/>
   <g id="line2d_11">
    <defs>
     <path d="M 0 3.57927 
C 0.949233 3.57927 1.859717 3.202135 2.530926 2.530926 
C 3.202135 1.859717 3.57927 0.949233 3.57927 0 
C 3.57927 -0.949233 3.202135 -1.859717 2.530926 -2.530926 
C 1.859717 -3.202135 0.949233 -3.57927 0 -3.57927 
C -0.949233 -3.57927 -1.859717 -3.202135 -2.530926 -2.530926 
C -3.202135 -1.859717 -3.57927 -0.949233 -3.57927 0 
C -3.57927 0.949233 -3.202135 1.859717 -2.530926 2.530926 
C -1.859717 3.202135 -0.949233 3.57927 0 3.57927 
z
" id="m05a4bcd3bd" style="stroke:#000000;stroke-opacity:0;"/>
    </defs>
    <g clip-path="url(#pda71db6615)">
     <use style="fill:#696969;fill-opacity:0.8;stroke:#000000;stroke-opacity:0;" x="301.37357" xlink:href="#m05a4bcd3bd" y="237.390477"/>
    </g>
   </g>
   <g id="line2d_12"/>
   <g id="line2d_13"/>
   <g id="line2d_14"/>
   <g id="line2d_15">
    <defs>
     <path d="M 0 2.549729 
C 0.676196 2.549729 1.324788 2.281073 1.802931 1.802931 
C 2.281073 1.324788 2.549729 0.676196 2.549729 0 
C 2.549729 -0.676196 2.281073 -1.324788 1.802931 -1.802931 
C 1.324788 -2.281073 0.676196 -2.549729 0 -2.549729 
C -0.676196 -2.549729 -1.324788 -2.281073 -1.802931 -1.802931 
C -2.281073 -1.324788 -2.549729 -0.676196 -2.549729 0 
C -2.549729 0.676196 -2.281073 1.324788 -1.802931 1.802931 
C -1.324788 2.281073 -0.676196 2.549729 0 2.549729 
z
" id="m7d67fb0c67" style="stroke:#000000;stroke-opacity:0;"/>
    </defs>
    <g clip-path="url(#pda71db6615)">
     <use style="fill:#696969;fill-opacity:0.8;stroke:#000000;stroke-opacity:0;" x="0" xlink:href="#m7d67fb0c67" y="0"/>
    </g>
   </g>
   <g id="line2d_16"/>
   <g id="line2d_17"/>
   <g id="line2d_18"/>
   <g id="line2d_19">
    <defs>
     <path d="M 0 1.938654 
C 0.514137 1.938654 1.007286 1.734385 1.370835 1.370835 
C 1.734385 1.007286 1.938654 0.514137 1.938654 0 
C 1.938654 -0.514137 1.734385 -1.007286 1.370835 -1.370835 
C 1.007286 -1.734385 0.514137 -1.938654 0 -1.938654 
C -0.514137 -1.938654 -1.007286 -1.734385 -1.370835 -1.370835 
C -1.734385 -1.007286 -1.938654 -0.514137 -1.938654 0 
C -1.938654 0.514137 -1.734385 1.007286 -1.370835 1.370835 
C -1.007286 1.734385 -0.514137 1.938654 0 1.938654 
z
" id="m6c83d5ed0c" style="stroke:#000000;stroke-opacity:0;"/>
    </defs>
    <g clip-path="url(#pda71db6615)">
     <use style="fill:#448653;fill-opacity:0.8;stroke:#000000;stroke-opacity:0;" x="0" xlink:href="#m6c83d5ed0c" y="0"/>
    </g>
   </g>
   <g id="line2d_20">
    <defs>
     <path d="M 0 4.962795 
C 1.316148 4.962795 2.578568 4.439883 3.509226 3.509226 
C 4.439883 2.578568 4.962795 1.316148 4.962795 0 
C 4.962795 -1.316148 4.439883 -2.578568 3.509226 -3.509226 
C 2.578568 -4.439883 1.316148 -4.962795 0 -4.962795 
C -1.316148 -4.962795 -2.578568 -4.439883 -3.509226 -3.509226 
C -4.439883 -2.578568 -4.962795 -1.316148 -4.962795 0 
C -4.962795 1.316148 -4.439883 2.578568 -3.509226 3.509226 
C -2.578568 4.439883 -1.316148 4.962795 0 4.962795 
z
" id="mde59116192" style="stroke:#000000;stroke-opacity:0;"/>
    </defs>
    <g clip-path="url(#pda71db6615)">
     <use style="fill:#448653;fill-opacity:0.8;stroke:#000000;stroke-opacity:0;" x="165.015775" xlink:href="#mde59116192" y="263.910916"/>
    </g>
   </g>
   <g id="line2d_21"/>
   <g id="line2d_22"/>
   <g id="line2d_23"/>
   <g id="line2d_24">
    <defs>
     <path d="M 0 3.083068 
C 0.817639 3.083068 1.6019 2.758216 2.180058 2.180058 
C 2.758216 1.6019 3.083068 0.817639 3.083068 0 
C 3.083068 -0.817639 2.758216 -1.6019 2.180058 -2.180058 
C 1.6019 -2.758216 0.817639 -3.083068 0 -3.083068 
C -0.817639 -3.083068 -1.6019 -2.758216 -2.180058 -2.180058 
C -2.758216 -1.6019 -3.083068 -0.817639 -3.083068 0 
C -3.083068 0.817639 -2.758216 1.6019 -2.180058 2.180058 
C -1.6019 2.758216 -0.817639 3.083068 0 3.083068 
z
" id="m90dc7ba072" style="stroke:#000000;stroke-opacity:0;"/>
    </defs>
    <g clip-path="url(#pda71db6615)">
     <use style="fill:#696969;fill-opacity:0.8;stroke:#000000;stroke-opacity:0;" x="234.256142" xlink:href="#m90dc7ba072" y="235.265738"/>
    </g>
   </g>
   <g id="line2d_25">
    <defs>
     <path d="M 0 2.583521 
C 0.685158 2.583521 1.342346 2.311305 1.826825 1.826825 
C 2.311305 1.342346 2.583521 0.685158 2.583521 0 
C 2.583521 -0.685158 2.311305 -1.342346 1.826825 -1.826825 
C 1.342346 -2.311305 0.685158 -2.583521 0 -2.583521 
C -0.685158 -2.583521 -1.342346 -2.311305 -1.826825 -1.826825 
C -2.311305 -1.342346 -2.583521 -0.685158 -2.583521 0 
C -2.583521 0.685158 -2.311305 1.342346 -1.826825 1.826825 
C -1.342346 2.311305 -0.685158 2.583521 0 2.583521 
z
" id="m3a8b10dd2a" style="stroke:#000000;stroke-opacity:0;"/>
    </defs>
    <g clip-path="url(#pda71db6615)">
     <use style="fill:#696969;fill-opacity:0.8;stroke:#000000;stroke-opacity:0;" x="0" xlink:href="#m3a8b10dd2a" y="0"/>
    </g>
   </g>
   <g id="line2d_26">
    <defs>
     <path d="M 0 2.211259 
C 0.586433 2.211259 1.148925 1.978266 1.563596 1.563596 
C 1.978266 1.148925 2.211259 0.586433 2.211259 0 
C 2.211259 -0.586433 1.978266 -1.148925 1.563596 -1.563596 
C 1.148925 -1.978266 0.586433 -2.211259 0 -2.211259 
C -0.586433 -2.211259 -1.148925 -1.978266 -1.563596 -1.563596 
C -1.978266 -1.148925 -2.211259 -0.586433 -2.211259 0 
C -2.211259 0.586433 -1.978266 1.148925 -1.563596 1.563596 
C -1.148925 1.978266 -0.586433 2.211259 0 2.211259 
z
" id="mbf7f043945" style="stroke:#000000;stroke-opacity:0;"/>
    </defs>
    <g clip-path="url(#pda71db6615)">
     <use style="fill:#448653;fill-opacity:0.8;stroke:#000000;stroke-opacity:0;" x="158.083141" xlink:href="#mbf7f043945" y="221.770794"/>
    </g>
   </g>
   <g id="line2d_27">
    <defs>
     <path d="M 0 30 
C 7.956093 30 15.587396 26.839011 21.213203 21.213203 
C 26.839011 15.587396 30 7.956093 30 0 
C 30 -7.956093 26.839011 -15.587396 21.213203 -21.213203 
C 15.587396 -26.839011 7.956093 -30 0 -30 
C -7.956093 -30 -15.587396 -26.839011 -21.213203 -21.213203 
C -26.839011 -15.587396 -30 -7.956093 -30 0 
C -30 7.956093 -26.839011 15.587396 -21.213203 21.213203 
C -15.587396 26.839011 -7.956093 30 0 30 
z
" id="m8b0402b230" style="stroke:#000000;stroke-opacity:0;"/>
    </defs>
    <g clip-path="url(#pda71db6615)">
     <use style="fill:#9d3e42;fill-opacity:0.8;stroke:#000000;stroke-opacity:0;" x="167.353492" xlink:href="#m8b0402b230" y="274.761642"/>
    </g>
   </g>
   <g id="line2d_28"/>
   <g id="line2d_29"/>
   <g id="line2d_30"/>
   <g id="line2d_31"/>
   <g id="line2d_32">
    <defs>
     <path d="M 0 2.452225 
C 0.650338 2.452225 1.274127 2.193843 1.733985 1.733985 
C 2.193843 1.274127 2.452225 0.650338 2.452225 0 
C 2.452225 -0.650338 2.193843 -1.274127 1.733985 -1.733985 
C 1.274127 -2.193843 0.650338 -2.452225 0 -2.452225 
C -0.650338 -2.452225 -1.274127 -2.193843 -1.733985 -1.733985 
C -2.193843 -1.274127 -2.452225 -0.650338 -2.452225 0 
C -2.452225 0.650338 -2.193843 1.274127 -1.733985 1.733985 
C -1.274127 2.193843 -0.650338 2.452225 0 2.452225 
z
" id="m41156cae36" style="stroke:#000000;stroke-opacity:0;"/>
    </defs>
    <g clip-path="url(#pda71db6615)">
     <use style="fill:#448653;fill-opacity:0.8;stroke:#000000;stroke-opacity:0;" x="162.316963" xlink:href="#m41156cae36" y="262.907507"/>
    </g>
   </g>
   <g id="line2d_33"/>
   <g id="line2d_34"/>
   <g id="line2d_35">
    <defs>
     <path d="M 0 0.586867 
C 0.155639 0.586867 0.304925 0.525031 0.414978 0.414978 
C 0.525031 0.304925 0.586867 0.155639 0.586867 0 
C 0.586867 -0.155639 0.525031 -0.304925 0.414978 -0.414978 
C 0.304925 -0.525031 0.155639 -0.586867 0 -0.586867 
C -0.155639 -0.586867 -0.304925 -0.525031 -0.414978 -0.414978 
C -0.525031 -0.304925 -0.586867 -0.155639 -0.586867 0 
C -0.586867 0.155639 -0.525031 0.304925 -0.414978 0.414978 
C -0.304925 0.525031 -0.155639 0.586867 0 0.586867 
z
" id="m55c7c1ac5d" style="stroke:#000000;stroke-opacity:0;"/>
    </defs>
    <g clip-path="url(#pda71db6615)">
     <use style="fill:#448653;fill-opacity:0.8;stroke:#000000;stroke-opacity:0;" x="0" xlink:href="#m55c7c1ac5d" y="0"/>
    </g>
   </g>
   <g id="line2d_36">
    <defs>
     <path d="M 0 5.052656 
C 1.33998 5.052656 2.625258 4.520276 3.572767 3.572767 
C 4.520276 2.625258 5.052656 1.33998 5.052656 0 
C 5.052656 -1.33998 4.520276 -2.625258 3.572767 -3.572767 
C 2.625258 -4.520276 1.33998 -5.052656 0 -5.052656 
C -1.33998 -5.052656 -2.625258 -4.520276 -3.572767 -3.572767 
C -4.520276 -2.625258 -5.052656 -1.33998 -5.052656 0 
C -5.052656 1.33998 -4.520276 2.625258 -3.572767 3.572767 
C -2.625258 4.520276 -1.33998 5.052656 0 5.052656 
z
" id="m3f428db547" style="stroke:#000000;stroke-opacity:0;"/>
    </defs>
    <g clip-path="url(#pda71db6615)">
     <use style="fill:#448653;fill-opacity:0.8;stroke:#000000;stroke-opacity:0;" x="225.668385" xlink:href="#m3f428db547" y="257.415599"/>
    </g>
   </g>
   <g id="line2d_37">
    <defs>
     <path d="M 0 1.829232 
C 0.485118 1.829232 0.950432 1.636492 1.293462 1.293462 
C 1.636492 0.950432 1.829232 0.485118 1.829232 0 
C 1.829232 -0.485118 1.636492 -0.950432 1.293462 -1.293462 
C 0.950432 -1.636492 0.485118 -1.829232 0 -1.829232 
C -0.485118 -1.829232 -0.950432 -1.636492 -1.293462 -1.293462 
C -1.636492 -0.950432 -1.829232 -0.485118 -1.829232 0 
C -1.829232 0.485118 -1.636492 0.950432 -1.293462 1.293462 
C -0.950432 1.636492 -0.485118 1.829232 0 1.829232 
z
" id="mabb1092658" style="stroke:#000000;stroke-opacity:0;"/>
    </defs>
    <g clip-path="url(#pda71db6615)">
     <use style="fill:#448653;fill-opacity:0.8;stroke:#000000;stroke-opacity:0;" x="151.821872" xlink:href="#mabb1092658" y="258.138081"/>
    </g>
   </g>
   <g id="line2d_38"/>
   <g id="line2d_39"/>
   <g id="line2d_40">
    <defs>
     <path d="M 0 9.931033 
C 2.633741 9.931033 5.159965 8.884637 7.022301 7.022301 
C 8.884637 5.159965 9.931033 2.633741 9.931033 0 
C 9.931033 -2.633741 8.884637 -5.159965 7.022301 -7.022301 
C 5.159965 -8.884637 2.633741 -9.931033 0 -9.931033 
C -2.633741 -9.931033 -5.159965 -8.884637 -7.022301 -7.022301 
C -8.884637 -5.159965 -9.931033 -2.633741 -9.931033 0 
C -9.931033 2.633741 -8.884637 5.159965 -7.022301 7.022301 
C -5.159965 8.884637 -2.633741 9.931033 0 9.931033 
z
" id="m00a9a8c11f" style="stroke:#000000;stroke-opacity:0;"/>
    </defs>
    <g clip-path="url(#pda71db6615)">
     <use style="fill:#696969;fill-opacity:0.8;stroke:#000000;stroke-opacity:0;" x="246.114535" xlink:href="#m00a9a8c11f" y="235.667383"/>
    </g>
   </g>
   <g id="line2d_41"/>
   <g id="line2d_42">
    <defs>
     <path d="M 0 0.112115 
C 0.029733 0.112115 0.058253 0.100302 0.079277 0.079277 
C 0.100302 0.058253 0.112115 0.029733 0.112115 0 
C 0.112115 -0.029733 0.100302 -0.058253 0.079277 -0.079277 
C 0.058253 -0.100302 0.029733 -0.112115 0 -0.112115 
C -0.029733 -0.112115 -0.058253 -0.100302 -0.079277 -0.079277 
C -0.100302 -0.058253 -0.112115 -0.029733 -0.112115 0 
C -0.112115 0.029733 -0.100302 0.058253 -0.079277 0.079277 
C -0.058253 0.100302 -0.029733 0.112115 0 0.112115 
z
" id="mc100e85709" style="stroke:#000000;stroke-opacity:0;"/>
    </defs>
    <g clip-path="url(#pda71db6615)">
     <use style="fill:#448653;fill-opacity:0.8;stroke:#000000;stroke-opacity:0;" x="0" xlink:href="#mc100e85709" y="0"/>
    </g>
   </g>
   <g id="line2d_43">
    <defs>
     <path d="M 0 2.178616 
C 0.577776 2.178616 1.131965 1.949063 1.540514 1.540514 
C 1.949063 1.131965 2.178616 0.577776 2.178616 0 
C 2.178616 -0.577776 1.949063 -1.131965 1.540514 -1.540514 
C 1.131965 -1.949063 0.577776 -2.178616 0 -2.178616 
C -0.577776 -2.178616 -1.131965 -1.949063 -1.540514 -1.540514 
C -1.949063 -1.131965 -2.178616 -0.577776 -2.178616 0 
C -2.178616 0.577776 -1.949063 1.131965 -1.540514 1.540514 
C -1.131965 1.949063 -0.577776 2.178616 0 2.178616 
z
" id="md5dad4c682" style="stroke:#000000;stroke-opacity:0;"/>
    </defs>
    <g clip-path="url(#pda71db6615)">
     <use style="fill:#696969;fill-opacity:0.8;stroke:#000000;stroke-opacity:0;" x="281.028111" xlink:href="#md5dad4c682" y="247.749637"/>
    </g>
   </g>
   <g id="line2d_44"/>
   <g id="line2d_45">
    <defs>
     <path d="M 0 3.081029 
C 0.817098 3.081029 1.60084 2.756392 2.178616 2.178616 
C 2.756392 1.60084 3.081029 0.817098 3.081029 0 
C 3.081029 -0.817098 2.756392 -1.60084 2.178616 -2.178616 
C 1.60084 -2.756392 0.817098 -3.081029 0 -3.081029 
C -0.817098 -3.081029 -1.60084 -2.756392 -2.178616 -2.178616 
C -2.756392 -1.60084 -3.081029 -0.817098 -3.081029 0 
C -3.081029 0.817098 -2.756392 1.60084 -2.178616 2.178616 
C -1.60084 2.756392 -0.817098 3.081029 0 3.081029 
z
" id="m45342fd33c" style="stroke:#000000;stroke-opacity:0;"/>
    </defs>
    <g clip-path="url(#pda71db6615)">
     <use style="fill:#3d5b8d;fill-opacity:0.8;stroke:#000000;stroke-opacity:0;" x="132.904155" xlink:href="#m45342fd33c" y="243.721278"/>
    </g>
   </g>
   <g id="line2d_46">
    <defs>
     <path d="M 0 1.595822 
C 0.423217 1.595822 0.829157 1.427676 1.128417 1.128417 
C 1.427676 0.829157 1.595822 0.423217 1.595822 0 
C 1.595822 -0.423217 1.427676 -0.829157 1.128417 -1.128417 
C 0.829157 -1.427676 0.423217 -1.595822 0 -1.595822 
C -0.423217 -1.595822 -0.829157 -1.427676 -1.128417 -1.128417 
C -1.427676 -0.829157 -1.595822 -0.423217 -1.595822 0 
C -1.595822 0.423217 -1.427676 0.829157 -1.128417 1.128417 
C -0.829157 1.427676 -0.423217 1.595822 0 1.595822 
z
" id="m26eb844615" style="stroke:#000000;stroke-opacity:0;"/>
    </defs>
    <g clip-path="url(#pda71db6615)">
     <use style="fill:#448653;fill-opacity:0.8;stroke:#000000;stroke-opacity:0;" x="0" xlink:href="#m26eb844615" y="0"/>
    </g>
   </g>
   <g id="line2d_47">
    <defs>
     <path d="M 0 4.209626 
C 1.116406 4.209626 2.187237 3.766073 2.976655 2.976655 
C 3.766073 2.187237 4.209626 1.116406 4.209626 0 
C 4.209626 -1.116406 3.766073 -2.187237 2.976655 -2.976655 
C 2.187237 -3.766073 1.116406 -4.209626 0 -4.209626 
C -1.116406 -4.209626 -2.187237 -3.766073 -2.976655 -2.976655 
C -3.766073 -2.187237 -4.209626 -1.116406 -4.209626 0 
C -4.209626 1.116406 -3.766073 2.187237 -2.976655 2.976655 
C -2.187237 3.766073 -1.116406 4.209626 0 4.209626 
z
" id="m6dc9ec9ce2" style="stroke:#000000;stroke-opacity:0;"/>
    </defs>
    <g clip-path="url(#pda71db6615)">
     <use style="fill:#3d5b8d;fill-opacity:0.8;stroke:#000000;stroke-opacity:0;" x="178.333454" xlink:href="#m6dc9ec9ce2" y="263.927153"/>
    </g>
   </g>
   <g id="line2d_48">
    <defs>
     <path d="M 0 6.38191 
C 1.692502 6.38191 3.315912 5.709471 4.512692 4.512692 
C 5.709471 3.315912 6.38191 1.692502 6.38191 0 
C 6.38191 -1.692502 5.709471 -3.315912 4.512692 -4.512692 
C 3.315912 -5.709471 1.692502 -6.38191 0 -6.38191 
C -1.692502 -6.38191 -3.315912 -5.709471 -4.512692 -4.512692 
C -5.709471 -3.315912 -6.38191 -1.692502 -6.38191 0 
C -6.38191 1.692502 -5.709471 3.315912 -4.512692 4.512692 
C -3.315912 5.709471 -1.692502 6.38191 0 6.38191 
z
" id="m36c12d84af" style="stroke:#000000;stroke-opacity:0;"/>
    </defs>
    <g clip-path="url(#pda71db6615)">
     <use style="fill:#696969;fill-opacity:0.8;stroke:#000000;stroke-opacity:0;" x="248.520648" xlink:href="#m36c12d84af" y="270.985666"/>
    </g>
   </g>
   <g id="line2d_49"/>
   <g id="line2d_50"/>
   <g id="line2d_51">
    <defs>
     <path d="M 0 2.09988 
C 0.556895 2.09988 1.091056 1.878624 1.48484 1.48484 
C 1.878624 1.091056 2.09988 0.556895 2.09988 0 
C 2.09988 -0.556895 1.878624 -1.091056 1.48484 -1.48484 
C 1.091056 -1.878624 0.556895 -2.09988 0 -2.09988 
C -0.556895 -2.09988 -1.091056 -1.878624 -1.48484 -1.48484 
C -1.878624 -1.091056 -2.09988 -0.556895 -2.09988 0 
C -2.09988 0.556895 -1.878624 1.091056 -1.48484 1.48484 
C -1.091056 1.878624 -0.556895 2.09988 0 2.09988 
z
" id="m91bcc2412b" style="stroke:#000000;stroke-opacity:0;"/>
    </defs>
    <g clip-path="url(#pda71db6615)">
     <use style="fill:#696969;fill-opacity:0.8;stroke:#000000;stroke-opacity:0;" x="221.578489" xlink:href="#m91bcc2412b" y="256.758832"/>
    </g>
   </g>
   <g id="line2d_52">
    <defs>
     <path d="M 0 9.830405 
C 2.607054 9.830405 5.107681 8.794612 6.951146 6.951146 
C 8.794612 5.107681 9.830405 2.607054 9.830405 0 
C 9.830405 -2.607054 8.794612 -5.107681 6.951146 -6.951146 
C 5.107681 -8.794612 2.607054 -9.830405 0 -9.830405 
C -2.607054 -9.830405 -5.107681 -8.794612 -6.951146 -6.951146 
C -8.794612 -5.107681 -9.830405 -2.607054 -9.830405 0 
C -9.830405 2.607054 -8.794612 5.107681 -6.951146 6.951146 
C -5.107681 8.794612 -2.607054 9.830405 0 9.830405 
z
" id="m40bda2ad2e" style="stroke:#000000;stroke-opacity:0;"/>
    </defs>
    <g clip-path="url(#pda71db6615)">
     <use style="fill:#696969;fill-opacity:0.8;stroke:#000000;stroke-opacity:0;" x="265.252503" xlink:href="#m40bda2ad2e" y="244.207307"/>
    </g>
   </g>
   <g id="line2d_53"/>
   <g id="line2d_54">
    <defs>
     <path d="M 0 8.884737 
C 2.35626 8.884737 4.61633 7.948585 6.282458 6.282458 
C 7.948585 4.61633 8.884737 2.35626 8.884737 0 
C 8.884737 -2.35626 7.948585 -4.61633 6.282458 -6.282458 
C 4.61633 -7.948585 2.35626 -8.884737 0 -8.884737 
C -2.35626 -8.884737 -4.61633 -7.948585 -6.282458 -6.282458 
C -7.948585 -4.61633 -8.884737 -2.35626 -8.884737 0 
C -8.884737 2.35626 -7.948585 4.61633 -6.282458 6.282458 
C -4.61633 7.948585 -2.35626 8.884737 0 8.884737 
z
" id="mc1c2a1110f" style="stroke:#000000;stroke-opacity:0;"/>
    </defs>
    <g clip-path="url(#pda71db6615)">
     <use style="fill:#696969;fill-opacity:0.8;stroke:#000000;stroke-opacity:0;" x="347.427892" xlink:href="#mc1c2a1110f" y="239.630941"/>
    </g>
   </g>
   <g id="line2d_55"/>
   <g id="line2d_56">
    <defs>
     <path d="M 0 1.992374 
C 0.528384 1.992374 1.035197 1.782445 1.408821 1.408821 
C 1.782445 1.035197 1.992374 0.528384 1.992374 0 
C 1.992374 -0.528384 1.782445 -1.035197 1.408821 -1.408821 
C 1.035197 -1.782445 0.528384 -1.992374 0 -1.992374 
C -0.528384 -1.992374 -1.035197 -1.782445 -1.408821 -1.408821 
C -1.782445 -1.035197 -1.992374 -0.528384 -1.992374 0 
C -1.992374 0.528384 -1.782445 1.035197 -1.408821 1.408821 
C -1.035197 1.782445 -0.528384 1.992374 0 1.992374 
z
" id="mebe9b909bb" style="stroke:#000000;stroke-opacity:0;"/>
    </defs>
    <g clip-path="url(#pda71db6615)">
     <use style="fill:#3d5b8d;fill-opacity:0.8;stroke:#000000;stroke-opacity:0;" x="0" xlink:href="#mebe9b909bb" y="0"/>
    </g>
   </g>
   <g id="line2d_57"/>
   <g id="line2d_58"/>
   <g id="line2d_59"/>
   <g id="line2d_60"/>
   <g id="line2d_61">
    <defs>
     <path d="M 0 3.032091 
C 0.80412 3.032091 1.575413 2.712611 2.144012 2.144012 
C 2.712611 1.575413 3.032091 0.80412 3.032091 0 
C 3.032091 -0.80412 2.712611 -1.575413 2.144012 -2.144012 
C 1.575413 -2.712611 0.80412 -3.032091 0 -3.032091 
C -0.80412 -3.032091 -1.575413 -2.712611 -2.144012 -2.144012 
C -2.712611 -1.575413 -3.032091 -0.80412 -3.032091 0 
C -3.032091 0.80412 -2.712611 1.575413 -2.144012 2.144012 
C -1.575413 2.712611 -0.80412 3.032091 0 3.032091 
z
" id="m65757bc36b" style="stroke:#000000;stroke-opacity:0;"/>
    </defs>
    <g clip-path="url(#pda71db6615)">
     <use style="fill:#696969;fill-opacity:0.8;stroke:#000000;stroke-opacity:0;" x="0" xlink:href="#m65757bc36b" y="0"/>
    </g>
   </g>
   <g id="line2d_62">
    <defs>
     <path d="M 0 1.647751 
C 0.436989 1.647751 0.856138 1.474134 1.165136 1.165136 
C 1.474134 0.856138 1.647751 0.436989 1.647751 0 
C 1.647751 -0.436989 1.474134 -0.856138 1.165136 -1.165136 
C 0.856138 -1.474134 0.436989 -1.647751 0 -1.647751 
C -0.436989 -1.647751 -0.856138 -1.474134 -1.165136 -1.165136 
C -1.474134 -0.856138 -1.647751 -0.436989 -1.647751 0 
C -1.647751 0.436989 -1.474134 0.856138 -1.165136 1.165136 
C -0.856138 1.474134 -0.436989 1.647751 0 1.647751 
z
" id="m9c31ed94c7" style="stroke:#000000;stroke-opacity:0;"/>
    </defs>
    <g clip-path="url(#pda71db6615)">
     <use style="fill:#448653;fill-opacity:0.8;stroke:#000000;stroke-opacity:0;" x="0" xlink:href="#m9c31ed94c7" y="0"/>
    </g>
   </g>
   <g id="line2d_63">
    <defs>
     <path d="M 0 0.518647 
C 0.137547 0.518647 0.269478 0.463999 0.366739 0.366739 
C 0.463999 0.269478 0.518647 0.137547 0.518647 0 
C 0.518647 -0.137547 0.463999 -0.269478 0.366739 -0.366739 
C 0.269478 -0.463999 0.137547 -0.518647 0 -0.518647 
C -0.137547 -0.518647 -0.269478 -0.463999 -0.366739 -0.366739 
C -0.463999 -0.269478 -0.518647 -0.137547 -0.518647 0 
C -0.518647 0.137547 -0.463999 0.269478 -0.366739 0.366739 
C -0.269478 0.463999 -0.137547 0.518647 0 0.518647 
z
" id="m6b48edfb3e" style="stroke:#000000;stroke-opacity:0;"/>
    </defs>
    <g clip-path="url(#pda71db6615)">
     <use style="fill:#9d3e42;fill-opacity:0.8;stroke:#000000;stroke-opacity:0;" x="201.363442" xlink:href="#m6b48edfb3e" y="272.307881"/>
    </g>
   </g>
   <g id="line2d_64">
    <defs>
     <path d="M 0 1.007791 
C 0.267269 1.007791 0.523628 0.901604 0.712616 0.712616 
C 0.901604 0.523628 1.007791 0.267269 1.007791 0 
C 1.007791 -0.267269 0.901604 -0.523628 0.712616 -0.712616 
C 0.523628 -0.901604 0.267269 -1.007791 0 -1.007791 
C -0.267269 -1.007791 -0.523628 -0.901604 -0.712616 -0.712616 
C -0.901604 -0.523628 -1.007791 -0.267269 -1.007791 0 
C -1.007791 0.267269 -0.901604 0.523628 -0.712616 0.712616 
C -0.523628 0.901604 -0.267269 1.007791 0 1.007791 
z
" id="m1633b2e0e2" style="stroke:#000000;stroke-opacity:0;"/>
    </defs>
    <g clip-path="url(#pda71db6615)">
     <use style="fill:#448653;fill-opacity:0.8;stroke:#000000;stroke-opacity:0;" x="0" xlink:href="#m1633b2e0e2" y="0"/>
    </g>
   </g>
   <g id="line2d_65"/>
   <g id="line2d_66">
    <defs>
     <path d="M 0 1.700312 
C 0.450928 1.700312 0.883448 1.521157 1.202302 1.202302 
C 1.521157 0.883448 1.700312 0.450928 1.700312 0 
C 1.700312 -0.450928 1.521157 -0.883448 1.202302 -1.202302 
C 0.883448 -1.521157 0.450928 -1.700312 0 -1.700312 
C -0.450928 -1.700312 -0.883448 -1.521157 -1.202302 -1.202302 
C -1.521157 -0.883448 -1.700312 -0.450928 -1.700312 0 
C -1.700312 0.450928 -1.521157 0.883448 -1.202302 1.202302 
C -0.883448 1.521157 -0.450928 1.700312 0 1.700312 
z
" id="md9c210cbc4" style="stroke:#000000;stroke-opacity:0;"/>
    </defs>
    <g clip-path="url(#pda71db6615)">
     <use style="fill:#448653;fill-opacity:0.8;stroke:#000000;stroke-opacity:0;" x="0" xlink:href="#md9c210cbc4" y="0"/>
    </g>
   </g>
   <g id="line2d_67">
    <defs>
     <path d="M 0 3.85683 
C 1.022843 3.85683 2.003931 3.45045 2.727191 2.727191 
C 3.45045 2.003931 3.85683 1.022843 3.85683 0 
C 3.85683 -1.022843 3.45045 -2.003931 2.727191 -2.727191 
C 2.003931 -3.45045 1.022843 -3.85683 0 -3.85683 
C -1.022843 -3.85683 -2.003931 -3.45045 -2.727191 -2.727191 
C -3.45045 -2.003931 -3.85683 -1.022843 -3.85683 0 
C -3.85683 1.022843 -3.45045 2.003931 -2.727191 2.727191 
C -2.003931 3.45045 -1.022843 3.85683 0 3.85683 
z
" id="m0df944cec7" style="stroke:#000000;stroke-opacity:0;"/>
    </defs>
    <g clip-path="url(#pda71db6615)">
     <use style="fill:#696969;fill-opacity:0.8;stroke:#000000;stroke-opacity:0;" x="0" xlink:href="#m0df944cec7" y="0"/>
    </g>
   </g>
   <g id="line2d_68">
    <defs>
     <path d="M 0 9.072751 
C 2.406122 9.072751 4.714019 8.116788 6.415404 6.415404 
C 8.116788 4.714019 9.072751 2.406122 9.072751 0 
C 9.072751 -2.406122 8.116788 -4.714019 6.415404 -6.415404 
C 4.714019 -8.116788 2.406122 -9.072751 0 -9.072751 
C -2.406122 -9.072751 -4.714019 -8.116788 -6.415404 -6.415404 
C -8.116788 -4.714019 -9.072751 -2.406122 -9.072751 0 
C -9.072751 2.406122 -8.116788 4.714019 -6.415404 6.415404 
C -4.714019 8.116788 -2.406122 9.072751 0 9.072751 
z
" id="md49b733c34" style="stroke:#000000;stroke-opacity:0;"/>
    </defs>
    <g clip-path="url(#pda71db6615)">
     <use style="fill:#9d3e42;fill-opacity:0.8;stroke:#000000;stroke-opacity:0;" x="158.578425" xlink:href="#md49b733c34" y="281.055291"/>
    </g>
   </g>
   <g id="line2d_69">
    <defs>
     <path d="M 0 25.219705 
C 6.688344 25.219705 13.103651 22.562398 17.833024 17.833024 
C 22.562398 13.103651 25.219705 6.688344 25.219705 0 
C 25.219705 -6.688344 22.562398 -13.103651 17.833024 -17.833024 
C 13.103651 -22.562398 6.688344 -25.219705 0 -25.219705 
C -6.688344 -25.219705 -13.103651 -22.562398 -17.833024 -17.833024 
C -22.562398 -13.103651 -25.219705 -6.688344 -25.219705 0 
C -25.219705 6.688344 -22.562398 13.103651 -17.833024 17.833024 
C -13.103651 22.562398 -6.688344 25.219705 0 25.219705 
z
" id="m5fff33f630" style="stroke:#000000;stroke-opacity:0;"/>
    </defs>
    <g clip-path="url(#pda71db6615)">
     <use style="fill:#9d3e42;fill-opacity:0.8;stroke:#000000;stroke-opacity:0;" x="175.597572" xlink:href="#m5fff33f630" y="286.422431"/>
    </g>
   </g>
   <g id="line2d_70">
    <defs>
     <path d="M 0 3.69096 
C 0.978854 3.69096 1.917748 3.302057 2.609903 2.609903 
C 3.302057 1.917748 3.69096 0.978854 3.69096 0 
C 3.69096 -0.978854 3.302057 -1.917748 2.609903 -2.609903 
C 1.917748 -3.302057 0.978854 -3.69096 0 -3.69096 
C -0.978854 -3.69096 -1.917748 -3.302057 -2.609903 -2.609903 
C -3.302057 -1.917748 -3.69096 -0.978854 -3.69096 0 
C -3.69096 0.978854 -3.302057 1.917748 -2.609903 2.609903 
C -1.917748 3.302057 -0.978854 3.69096 0 3.69096 
z
" id="m85d83f28d2" style="stroke:#000000;stroke-opacity:0;"/>
    </defs>
    <g clip-path="url(#pda71db6615)">
     <use style="fill:#696969;fill-opacity:0.8;stroke:#000000;stroke-opacity:0;" x="230.127416" xlink:href="#m85d83f28d2" y="229.852125"/>
    </g>
   </g>
   <g id="line2d_71">
    <defs>
     <path d="M 0 4.59946 
C 1.219791 4.59946 2.389787 4.114831 3.252309 3.252309 
C 4.114831 2.389787 4.59946 1.219791 4.59946 0 
C 4.59946 -1.219791 4.114831 -2.389787 3.252309 -3.252309 
C 2.389787 -4.114831 1.219791 -4.59946 0 -4.59946 
C -1.219791 -4.59946 -2.389787 -4.114831 -3.252309 -3.252309 
C -4.114831 -2.389787 -4.59946 -1.219791 -4.59946 0 
C -4.59946 1.219791 -4.114831 2.389787 -3.252309 3.252309 
C -2.389787 4.114831 -1.219791 4.59946 0 4.59946 
z
" id="m6229f96415" style="stroke:#000000;stroke-opacity:0;"/>
    </defs>
    <g clip-path="url(#pda71db6615)">
     <use style="fill:#9d3e42;fill-opacity:0.8;stroke:#000000;stroke-opacity:0;" x="166.5787" xlink:href="#m6229f96415" y="273.550319"/>
    </g>
   </g>
   <g id="line2d_72">
    <defs>
     <path d="M 0 1.993005 
C 0.528551 1.993005 1.035525 1.783009 1.409267 1.409267 
C 1.783009 1.035525 1.993005 0.528551 1.993005 0 
C 1.993005 -0.528551 1.783009 -1.035525 1.409267 -1.409267 
C 1.035525 -1.783009 0.528551 -1.993005 0 -1.993005 
C -0.528551 -1.993005 -1.035525 -1.783009 -1.409267 -1.409267 
C -1.783009 -1.035525 -1.993005 -0.528551 -1.993005 0 
C -1.993005 0.528551 -1.783009 1.035525 -1.409267 1.409267 
C -1.035525 1.783009 -0.528551 1.993005 0 1.993005 
z
" id="mf78f7fe595" style="stroke:#000000;stroke-opacity:0;"/>
    </defs>
    <g clip-path="url(#pda71db6615)">
     <use style="fill:#9d3e42;fill-opacity:0.8;stroke:#000000;stroke-opacity:0;" x="166.5787" xlink:href="#mf78f7fe595" y="273.550319"/>
    </g>
   </g>
   <g id="line2d_73"/>
   <g id="line2d_74"/>
   <g id="line2d_75">
    <defs>
     <path d="M 0 8.373141 
C 2.220583 8.373141 4.350516 7.490894 5.920705 5.920705 
C 7.490894 4.350516 8.373141 2.220583 8.373141 0 
C 8.373141 -2.220583 7.490894 -4.350516 5.920705 -5.920705 
C 4.350516 -7.490894 2.220583 -8.373141 0 -8.373141 
C -2.220583 -8.373141 -4.350516 -7.490894 -5.920705 -5.920705 
C -7.490894 -4.350516 -8.373141 -2.220583 -8.373141 0 
C -8.373141 2.220583 -7.490894 4.350516 -5.920705 5.920705 
C -4.350516 7.490894 -2.220583 8.373141 0 8.373141 
z
" id="m7ff4fc4a2b" style="stroke:#000000;stroke-opacity:0;"/>
    </defs>
    <g clip-path="url(#pda71db6615)">
     <use style="fill:#696969;fill-opacity:0.8;stroke:#000000;stroke-opacity:0;" x="318.057366" xlink:href="#m7ff4fc4a2b" y="275.479808"/>
    </g>
   </g>
   <g id="line2d_76">
    <defs>
     <path d="M 0 1.120031 
C 0.297036 1.120031 0.581946 1.002017 0.791981 0.791981 
C 1.002017 0.581946 1.120031 0.297036 1.120031 0 
C 1.120031 -0.297036 1.002017 -0.581946 0.791981 -0.791981 
C 0.581946 -1.002017 0.297036 -1.120031 0 -1.120031 
C -0.297036 -1.120031 -0.581946 -1.002017 -0.791981 -0.791981 
C -1.002017 -0.581946 -1.120031 -0.297036 -1.120031 0 
C -1.120031 0.297036 -1.002017 0.581946 -0.791981 0.791981 
C -0.581946 1.002017 -0.297036 1.120031 0 1.120031 
z
" id="mab9aac5ff8" style="stroke:#000000;stroke-opacity:0;"/>
    </defs>
    <g clip-path="url(#pda71db6615)">
     <use style="fill:#448653;fill-opacity:0.8;stroke:#000000;stroke-opacity:0;" x="199.545466" xlink:href="#mab9aac5ff8" y="299.102412"/>
    </g>
   </g>
   <g id="line2d_77">
    <defs>
     <path d="M 0 0.81775 
C 0.21687 0.81775 0.424886 0.731587 0.578237 0.578237 
C 0.731587 0.424886 0.81775 0.21687 0.81775 0 
C 0.81775 -0.21687 0.731587 -0.424886 0.578237 -0.578237 
C 0.424886 -0.731587 0.21687 -0.81775 0 -0.81775 
C -0.21687 -0.81775 -0.424886 -0.731587 -0.578237 -0.578237 
C -0.731587 -0.424886 -0.81775 -0.21687 -0.81775 0 
C -0.81775 0.21687 -0.731587 0.424886 -0.578237 0.578237 
C -0.424886 0.731587 -0.21687 0.81775 0 0.81775 
z
" id="mad04488dfc" style="stroke:#000000;stroke-opacity:0;"/>
    </defs>
    <g clip-path="url(#pda71db6615)">
     <use style="fill:#9d3e42;fill-opacity:0.8;stroke:#000000;stroke-opacity:0;" x="166.5787" xlink:href="#mad04488dfc" y="262.670011"/>
    </g>
   </g>
   <g id="line2d_78">
    <defs>
     <path d="M 0 9.304486 
C 2.467579 9.304486 4.834424 8.324107 6.579265 6.579265 
C 8.324107 4.834424 9.304486 2.467579 9.304486 0 
C 9.304486 -2.467579 8.324107 -4.834424 6.579265 -6.579265 
C 4.834424 -8.324107 2.467579 -9.304486 0 -9.304486 
C -2.467579 -9.304486 -4.834424 -8.324107 -6.579265 -6.579265 
C -8.324107 -4.834424 -9.304486 -2.467579 -9.304486 0 
C -9.304486 2.467579 -8.324107 4.834424 -6.579265 6.579265 
C -4.834424 8.324107 -2.467579 9.304486 0 9.304486 
z
" id="m6acc6ac4e3" style="stroke:#000000;stroke-opacity:0;"/>
    </defs>
    <g clip-path="url(#pda71db6615)">
     <use style="fill:#9d3e42;fill-opacity:0.8;stroke:#000000;stroke-opacity:0;" x="221.993046" xlink:href="#m6acc6ac4e3" y="266.817386"/>
    </g>
   </g>
   <g id="line2d_79"/>
   <g id="line2d_80"/>
   <g id="line2d_81"/>
   <g id="line2d_82">
    <defs>
     <path d="M 0 2.425424 
C 0.64323 2.425424 1.260201 2.169866 1.715034 1.715034 
C 2.169866 1.260201 2.425424 0.64323 2.425424 0 
C 2.425424 -0.64323 2.169866 -1.260201 1.715034 -1.715034 
C 1.260201 -2.169866 0.64323 -2.425424 0 -2.425424 
C -0.64323 -2.425424 -1.260201 -2.169866 -1.715034 -1.715034 
C -2.169866 -1.260201 -2.425424 -0.64323 -2.425424 0 
C -2.425424 0.64323 -2.169866 1.260201 -1.715034 1.715034 
C -1.260201 2.169866 -0.64323 2.425424 0 2.425424 
z
" id="m623f2f1a6e" style="stroke:#000000;stroke-opacity:0;"/>
    </defs>
    <g clip-path="url(#pda71db6615)">
     <use style="fill:#9d3e42;fill-opacity:0.8;stroke:#000000;stroke-opacity:0;" x="0" xlink:href="#m623f2f1a6e" y="0"/>
    </g>
   </g>
   <g id="line2d_83">
    <defs>
     <path d="M 0 4.951638 
C 1.31319 4.951638 2.572771 4.429902 3.501337 3.501337 
C 4.429902 2.572771 4.951638 1.31319 4.951638 0 
C 4.951638 -1.31319 4.429902 -2.572771 3.501337 -3.501337 
C 2.572771 -4.429902 1.31319 -4.951638 0 -4.951638 
C -1.31319 -4.951638 -2.572771 -4.429902 -3.501337 -3.501337 
C -4.429902 -2.572771 -4.951638 -1.31319 -4.951638 0 
C -4.951638 1.31319 -4.429902 2.572771 -3.501337 3.501337 
C -2.572771 4.429902 -1.31319 4.951638 0 4.951638 
z
" id="me35475ff6e" style="stroke:#000000;stroke-opacity:0;"/>
    </defs>
    <g clip-path="url(#pda71db6615)">
     <use style="fill:#9d3e42;fill-opacity:0.8;stroke:#000000;stroke-opacity:0;" x="156.715814" xlink:href="#me35475ff6e" y="279.207372"/>
    </g>
   </g>
   <g id="line2d_84"/>
   <g id="line2d_85">
    <defs>
     <path d="M 0 1.377695 
C 0.365369 1.377695 0.715823 1.232533 0.974178 0.974178 
C 1.232533 0.715823 1.377695 0.365369 1.377695 0 
C 1.377695 -0.365369 1.232533 -0.715823 0.974178 -0.974178 
C 0.715823 -1.232533 0.365369 -1.377695 0 -1.377695 
C -0.365369 -1.377695 -0.715823 -1.232533 -0.974178 -0.974178 
C -1.232533 -0.715823 -1.377695 -0.365369 -1.377695 0 
C -1.377695 0.365369 -1.232533 0.715823 -0.974178 0.974178 
C -0.715823 1.232533 -0.365369 1.377695 0 1.377695 
z
" id="mcbf9ea96d6" style="stroke:#000000;stroke-opacity:0;"/>
    </defs>
    <g clip-path="url(#pda71db6615)">
     <use style="fill:#9d3e42;fill-opacity:0.8;stroke:#000000;stroke-opacity:0;" x="0" xlink:href="#mcbf9ea96d6" y="0"/>
    </g>
   </g>
   <g id="line2d_86">
    <defs>
     <path d="M 0 1.093914 
C 0.290109 1.093914 0.568376 0.978652 0.773514 0.773514 
C 0.978652 0.568376 1.093914 0.290109 1.093914 0 
C 1.093914 -0.290109 0.978652 -0.568376 0.773514 -0.773514 
C 0.568376 -0.978652 0.290109 -1.093914 0 -1.093914 
C -0.290109 -1.093914 -0.568376 -0.978652 -0.773514 -0.773514 
C -0.978652 -0.568376 -1.093914 -0.290109 -1.093914 0 
C -1.093914 0.290109 -0.978652 0.568376 -0.773514 0.773514 
C -0.568376 0.978652 -0.290109 1.093914 0 1.093914 
z
" id="m4c5e2b4149" style="stroke:#000000;stroke-opacity:0;"/>
    </defs>
    <g clip-path="url(#pda71db6615)">
     <use style="fill:#9d3e42;fill-opacity:0.8;stroke:#000000;stroke-opacity:0;" x="195.458451" xlink:href="#m4c5e2b4149" y="256.108066"/>
    </g>
   </g>
   <g id="line2d_87"/>
   <g id="line2d_88"/>
   <g id="line2d_89"/>
   <g id="line2d_90">
    <defs>
     <path d="M 0 2.64649 
C 0.701857 2.64649 1.375063 2.367639 1.871351 1.871351 
C 2.367639 1.375063 2.64649 0.701857 2.64649 0 
C 2.64649 -0.701857 2.367639 -1.375063 1.871351 -1.871351 
C 1.375063 -2.367639 0.701857 -2.64649 0 -2.64649 
C -0.701857 -2.64649 -1.375063 -2.367639 -1.871351 -1.871351 
C -2.367639 -1.375063 -2.64649 -0.701857 -2.64649 0 
C -2.64649 0.701857 -2.367639 1.375063 -1.871351 1.871351 
C -1.375063 2.367639 -0.701857 2.64649 0 2.64649 
z
" id="m445d91bbf3" style="stroke:#000000;stroke-opacity:0;"/>
    </defs>
    <g clip-path="url(#pda71db6615)">
     <use style="fill:#9d3e42;fill-opacity:0.8;stroke:#000000;stroke-opacity:0;" x="166.5787" xlink:href="#m445d91bbf3" y="248.926537"/>
    </g>
   </g>
   <g id="line2d_91"/>
   <g id="line2d_92"/>
   <g id="line2d_93"/>
   <g id="line2d_94"/>
   <g id="line2d_95">
    <g clip-path="url(#pda71db6615)">
     <use style="fill:#3d5b8d;fill-opacity:0.8;stroke:#000000;stroke-opacity:0;" x="132.904155" xlink:href="#m45342fd33c" y="260.652795"/>
    </g>
   </g>
   <g id="line2d_96"/>
   <g id="line2d_97"/>
   <g id="line2d_98">
    <defs>
     <path d="M 0 4.814173 
C 1.276733 4.814173 2.501347 4.306921 3.404134 3.404134 
C 4.306921 2.501347 4.814173 1.276733 4.814173 0 
C 4.814173 -1.276733 4.306921 -2.501347 3.404134 -3.404134 
C 2.501347 -4.306921 1.276733 -4.814173 0 -4.814173 
C -1.276733 -4.814173 -2.501347 -4.306921 -3.404134 -3.404134 
C -4.306921 -2.501347 -4.814173 -1.276733 -4.814173 0 
C -4.814173 1.276733 -4.306921 2.501347 -3.404134 3.404134 
C -2.501347 4.306921 -1.276733 4.814173 0 4.814173 
z
" id="m2fa166b268" style="stroke:#000000;stroke-opacity:0;"/>
    </defs>
    <g clip-path="url(#pda71db6615)">
     <use style="fill:#448653;fill-opacity:0.8;stroke:#000000;stroke-opacity:0;" x="185.41662" xlink:href="#m2fa166b268" y="276.936105"/>
    </g>
   </g>
   <g id="line2d_99"/>
   <g id="line2d_100"/>
   <g id="line2d_101"/>
   <g id="line2d_102">
    <defs>
     <path d="M 0 3.26677 
C 0.866358 3.26677 1.697348 2.922563 2.309955 2.309955 
C 2.922563 1.697348 3.26677 0.866358 3.26677 0 
C 3.26677 -0.866358 2.922563 -1.697348 2.309955 -2.309955 
C 1.697348 -2.922563 0.866358 -3.26677 0 -3.26677 
C -0.866358 -3.26677 -1.697348 -2.922563 -2.309955 -2.309955 
C -2.922563 -1.697348 -3.26677 -0.866358 -3.26677 0 
C -3.26677 0.866358 -2.922563 1.697348 -2.309955 2.309955 
C -1.697348 2.922563 -0.866358 3.26677 0 3.26677 
z
" id="m3ff0434e5e" style="stroke:#000000;stroke-opacity:0;"/>
    </defs>
    <g clip-path="url(#pda71db6615)">
     <use style="fill:#9d3e42;fill-opacity:0.8;stroke:#000000;stroke-opacity:0;" x="154.564818" xlink:href="#m3ff0434e5e" y="279.6"/>
    </g>
   </g>
   <g id="line2d_103"/>
   <g id="line2d_104">
    <defs>
     <path d="M 0 1.29589 
C 0.343674 1.29589 0.673318 1.159346 0.916332 0.916332 
C 1.159346 0.673318 1.29589 0.343674 1.29589 0 
C 1.29589 -0.343674 1.159346 -0.673318 0.916332 -0.916332 
C 0.673318 -1.159346 0.343674 -1.29589 0 -1.29589 
C -0.343674 -1.29589 -0.673318 -1.159346 -0.916332 -0.916332 
C -1.159346 -0.673318 -1.29589 -0.343674 -1.29589 0 
C -1.29589 0.343674 -1.159346 0.673318 -0.916332 0.916332 
C -0.673318 1.159346 -0.343674 1.29589 0 1.29589 
z
" id="mb2d3be2185" style="stroke:#000000;stroke-opacity:0;"/>
    </defs>
    <g clip-path="url(#pda71db6615)">
     <use style="fill:#9d3e42;fill-opacity:0.8;stroke:#000000;stroke-opacity:0;" x="0" xlink:href="#mb2d3be2185" y="0"/>
    </g>
   </g>
   <g id="line2d_105"/>
   <g id="line2d_106"/>
   <g id="line2d_107"/>
   <g id="line2d_108"/>
   <g id="line2d_109">
    <defs>
     <path d="M 0 1.418158 
C 0.3761 1.418158 0.736847 1.268732 1.002789 1.002789 
C 1.268732 0.736847 1.418158 0.3761 1.418158 0 
C 1.418158 -0.3761 1.268732 -0.736847 1.002789 -1.002789 
C 0.736847 -1.268732 0.3761 -1.418158 0 -1.418158 
C -0.3761 -1.418158 -0.736847 -1.268732 -1.002789 -1.002789 
C -1.268732 -0.736847 -1.418158 -0.3761 -1.418158 0 
C -1.418158 0.3761 -1.268732 0.736847 -1.002789 1.002789 
C -0.736847 1.268732 -0.3761 1.418158 0 1.418158 
z
" id="m546a1e95b0" style="stroke:#000000;stroke-opacity:0;"/>
    </defs>
    <g clip-path="url(#pda71db6615)">
     <use style="fill:#9d3e42;fill-opacity:0.8;stroke:#000000;stroke-opacity:0;" x="179.044387" xlink:href="#m546a1e95b0" y="273.053913"/>
    </g>
   </g>
   <g id="line2d_110"/>
   <g id="line2d_111"/>
   <g id="line2d_112"/>
   <g id="line2d_113">
    <defs>
     <path d="M 0 0.920438 
C 0.244103 0.920438 0.478241 0.823455 0.650848 0.650848 
C 0.823455 0.478241 0.920438 0.244103 0.920438 0 
C 0.920438 -0.244103 0.823455 -0.478241 0.650848 -0.650848 
C 0.478241 -0.823455 0.244103 -0.920438 0 -0.920438 
C -0.244103 -0.920438 -0.478241 -0.823455 -0.650848 -0.650848 
C -0.823455 -0.478241 -0.920438 -0.244103 -0.920438 0 
C -0.920438 0.244103 -0.823455 0.478241 -0.650848 0.650848 
C -0.478241 0.823455 -0.244103 0.920438 0 0.920438 
z
" id="mdfe0b5f36c" style="stroke:#000000;stroke-opacity:0;"/>
    </defs>
    <g clip-path="url(#pda71db6615)">
     <use style="fill:#448653;fill-opacity:0.8;stroke:#000000;stroke-opacity:0;" x="0" xlink:href="#mdfe0b5f36c" y="0"/>
    </g>
   </g>
   <g id="line2d_114">
    <defs>
     <path d="M 0 3.012544 
C 0.798936 3.012544 1.565257 2.695123 2.13019 2.13019 
C 2.695123 1.565257 3.012544 0.798936 3.012544 0 
C 3.012544 -0.798936 2.695123 -1.565257 2.13019 -2.13019 
C 1.565257 -2.695123 0.798936 -3.012544 0 -3.012544 
C -0.798936 -3.012544 -1.565257 -2.695123 -2.13019 -2.13019 
C -2.695123 -1.565257 -3.012544 -0.798936 -3.012544 0 
C -3.012544 0.798936 -2.695123 1.565257 -2.13019 2.13019 
C -1.565257 2.695123 -0.798936 3.012544 0 3.012544 
z
" id="mb3101a1a0f" style="stroke:#000000;stroke-opacity:0;"/>
    </defs>
    <g clip-path="url(#pda71db6615)">
     <use style="fill:#696969;fill-opacity:0.8;stroke:#000000;stroke-opacity:0;" x="334.463223" xlink:href="#mb3101a1a0f" y="252.44572"/>
    </g>
   </g>
   <g id="line2d_115">
    <defs>
     <path d="M 0 2.088476 
C 0.55387 2.088476 1.08513 1.868421 1.476776 1.476776 
C 1.868421 1.08513 2.088476 0.55387 2.088476 0 
C 2.088476 -0.55387 1.868421 -1.08513 1.476776 -1.476776 
C 1.08513 -1.868421 0.55387 -2.088476 0 -2.088476 
C -0.55387 -2.088476 -1.08513 -1.868421 -1.476776 -1.476776 
C -1.868421 -1.08513 -2.088476 -0.55387 -2.088476 0 
C -2.088476 0.55387 -1.868421 1.08513 -1.476776 1.476776 
C -1.08513 1.868421 -0.55387 2.088476 0 2.088476 
z
" id="mf3d930717e" style="stroke:#000000;stroke-opacity:0;"/>
    </defs>
    <g clip-path="url(#pda71db6615)">
     <use style="fill:#696969;fill-opacity:0.8;stroke:#000000;stroke-opacity:0;" x="228.755731" xlink:href="#mf3d930717e" y="247.711641"/>
    </g>
   </g>
   <g id="line2d_116">
    <defs>
     <path d="M 0 3.436657 
C 0.911412 3.436657 1.785618 3.07455 2.430084 2.430084 
C 3.07455 1.785618 3.436657 0.911412 3.436657 0 
C 3.436657 -0.911412 3.07455 -1.785618 2.430084 -2.430084 
C 1.785618 -3.07455 0.911412 -3.436657 0 -3.436657 
C -0.911412 -3.436657 -1.785618 -3.07455 -2.430084 -2.430084 
C -3.07455 -1.785618 -3.436657 -0.911412 -3.436657 0 
C -3.436657 0.911412 -3.07455 1.785618 -2.430084 2.430084 
C -1.785618 3.07455 -0.911412 3.436657 0 3.436657 
z
" id="m251dbae984" style="stroke:#000000;stroke-opacity:0;"/>
    </defs>
    <g clip-path="url(#pda71db6615)">
     <use style="fill:#9d3e42;fill-opacity:0.8;stroke:#000000;stroke-opacity:0;" x="123.856241" xlink:href="#m251dbae984" y="279.6"/>
    </g>
   </g>
   <g id="line2d_117">
    <defs>
     <path d="M 0 0.855315 
C 0.226832 0.855315 0.444405 0.765194 0.604799 0.604799 
C 0.765194 0.444405 0.855315 0.226832 0.855315 0 
C 0.855315 -0.226832 0.765194 -0.444405 0.604799 -0.604799 
C 0.444405 -0.765194 0.226832 -0.855315 0 -0.855315 
C -0.226832 -0.855315 -0.444405 -0.765194 -0.604799 -0.604799 
C -0.765194 -0.444405 -0.855315 -0.226832 -0.855315 0 
C -0.855315 0.226832 -0.765194 0.444405 -0.604799 0.604799 
C -0.444405 0.765194 -0.226832 0.855315 0 0.855315 
z
" id="mc0757e19bd" style="stroke:#000000;stroke-opacity:0;"/>
    </defs>
    <g clip-path="url(#pda71db6615)">
     <use style="fill:#696969;fill-opacity:0.8;stroke:#000000;stroke-opacity:0;" x="158.41353" xlink:href="#mc0757e19bd" y="151.976702"/>
    </g>
   </g>
   <g id="line2d_118">
    <defs>
     <path d="M 0 0.960534 
C 0.254737 0.960534 0.499074 0.859326 0.6792 0.6792 
C 0.859326 0.499074 0.960534 0.254737 0.960534 0 
C 0.960534 -0.254737 0.859326 -0.499074 0.6792 -0.6792 
C 0.499074 -0.859326 0.254737 -0.960534 0 -0.960534 
C -0.254737 -0.960534 -0.499074 -0.859326 -0.6792 -0.6792 
C -0.859326 -0.499074 -0.960534 -0.254737 -0.960534 0 
C -0.960534 0.254737 -0.859326 0.499074 -0.6792 0.6792 
C -0.499074 0.859326 -0.254737 0.960534 0 0.960534 
z
" id="mab626fa8ca" style="stroke:#000000;stroke-opacity:0;"/>
    </defs>
    <g clip-path="url(#pda71db6615)">
     <use style="fill:#9d3e42;fill-opacity:0.8;stroke:#000000;stroke-opacity:0;" x="0" xlink:href="#mab626fa8ca" y="0"/>
    </g>
   </g>
   <g id="line2d_119"/>
   <g id="line2d_120">
    <defs>
     <path d="M 0 0.665175 
C 0.176407 0.665175 0.345612 0.595088 0.47035 0.47035 
C 0.595088 0.345612 0.665175 0.176407 0.665175 0 
C 0.665175 -0.176407 0.595088 -0.345612 0.47035 -0.47035 
C 0.345612 -0.595088 0.176407 -0.665175 0 -0.665175 
C -0.176407 -0.665175 -0.345612 -0.595088 -0.47035 -0.47035 
C -0.595088 -0.345612 -0.665175 -0.176407 -0.665175 0 
C -0.665175 0.176407 -0.595088 0.345612 -0.47035 0.47035 
C -0.345612 0.595088 -0.176407 0.665175 0 0.665175 
z
" id="m9c26c1475a" style="stroke:#000000;stroke-opacity:0;"/>
    </defs>
    <g clip-path="url(#pda71db6615)">
     <use style="fill:#448653;fill-opacity:0.8;stroke:#000000;stroke-opacity:0;" x="0" xlink:href="#m9c26c1475a" y="0"/>
    </g>
   </g>
   <g id="line2d_121">
    <defs>
     <path d="M 0 2.55957 
C 0.678806 2.55957 1.329901 2.289877 1.809889 1.809889 
C 2.289877 1.329901 2.55957 0.678806 2.55957 0 
C 2.55957 -0.678806 2.289877 -1.329901 1.809889 -1.809889 
C 1.329901 -2.289877 0.678806 -2.55957 0 -2.55957 
C -0.678806 -2.55957 -1.329901 -2.289877 -1.809889 -1.809889 
C -2.289877 -1.329901 -2.55957 -0.678806 -2.55957 0 
C -2.55957 0.678806 -2.289877 1.329901 -1.809889 1.809889 
C -1.329901 2.289877 -0.678806 2.55957 0 2.55957 
z
" id="m0216b980a1" style="stroke:#000000;stroke-opacity:0;"/>
    </defs>
    <g clip-path="url(#pda71db6615)">
     <use style="fill:#448653;fill-opacity:0.8;stroke:#000000;stroke-opacity:0;" x="159.89045" xlink:href="#m0216b980a1" y="230.473545"/>
    </g>
   </g>
   <g id="line2d_122">
    <defs>
     <path d="M 0 3.567662 
C 0.946155 3.567662 1.853685 3.191751 2.522718 2.522718 
C 3.191751 1.853685 3.567662 0.946155 3.567662 0 
C 3.567662 -0.946155 3.191751 -1.853685 2.522718 -2.522718 
C 1.853685 -3.191751 0.946155 -3.567662 0 -3.567662 
C -0.946155 -3.567662 -1.853685 -3.191751 -2.522718 -2.522718 
C -3.191751 -1.853685 -3.567662 -0.946155 -3.567662 0 
C -3.567662 0.946155 -3.191751 1.853685 -2.522718 2.522718 
C -1.853685 3.191751 -0.946155 3.567662 0 3.567662 
z
" id="m1cd7e6870d" style="stroke:#000000;stroke-opacity:0;"/>
    </defs>
    <g clip-path="url(#pda71db6615)">
     <use style="fill:#9d3e42;fill-opacity:0.8;stroke:#000000;stroke-opacity:0;" x="174.722073" xlink:href="#m1cd7e6870d" y="274.93774"/>
    </g>
   </g>
   <g id="line2d_123">
    <defs>
     <path d="M 0 6.511378 
C 1.726838 6.511378 3.383181 5.825298 4.60424 4.60424 
C 5.825298 3.383181 6.511378 1.726838 6.511378 0 
C 6.511378 -1.726838 5.825298 -3.383181 4.60424 -4.60424 
C 3.383181 -5.825298 1.726838 -6.511378 0 -6.511378 
C -1.726838 -6.511378 -3.383181 -5.825298 -4.60424 -4.60424 
C -5.825298 -3.383181 -6.511378 -1.726838 -6.511378 0 
C -6.511378 1.726838 -5.825298 3.383181 -4.60424 4.60424 
C -3.383181 5.825298 -1.726838 6.511378 0 6.511378 
z
" id="ma985dc2ab1" style="stroke:#000000;stroke-opacity:0;"/>
    </defs>
    <g clip-path="url(#pda71db6615)">
     <use style="fill:#696969;fill-opacity:0.8;stroke:#000000;stroke-opacity:0;" x="157.08714" xlink:href="#ma985dc2ab1" y="233.385098"/>
    </g>
   </g>
   <g id="line2d_124">
    <defs>
     <path d="M 0 1.273385 
C 0.337706 1.273385 0.661625 1.139213 0.900419 0.900419 
C 1.139213 0.661625 1.273385 0.337706 1.273385 0 
C 1.273385 -0.337706 1.139213 -0.661625 0.900419 -0.900419 
C 0.661625 -1.139213 0.337706 -1.273385 0 -1.273385 
C -0.337706 -1.273385 -0.661625 -1.139213 -0.900419 -0.900419 
C -1.139213 -0.661625 -1.273385 -0.337706 -1.273385 0 
C -1.273385 0.337706 -1.139213 0.661625 -0.900419 0.900419 
C -0.661625 1.139213 -0.337706 1.273385 0 1.273385 
z
" id="m5f5c49295c" style="stroke:#000000;stroke-opacity:0;"/>
    </defs>
    <g clip-path="url(#pda71db6615)">
     <use style="fill:#448653;fill-opacity:0.8;stroke:#000000;stroke-opacity:0;" x="0" xlink:href="#m5f5c49295c" y="0"/>
    </g>
   </g>
   <g id="line2d_125">
    <defs>
     <path d="M 0 3.367566 
C 0.893089 3.367566 1.74972 3.012738 2.381229 2.381229 
C 3.012738 1.74972 3.367566 0.893089 3.367566 0 
C 3.367566 -0.893089 3.012738 -1.74972 2.381229 -2.381229 
C 1.74972 -3.012738 0.893089 -3.367566 0 -3.367566 
C -0.893089 -3.367566 -1.74972 -3.012738 -2.381229 -2.381229 
C -3.012738 -1.74972 -3.367566 -0.893089 -3.367566 0 
C -3.367566 0.893089 -3.012738 1.74972 -2.381229 2.381229 
C -1.74972 3.012738 -0.893089 3.367566 0 3.367566 
z
" id="m79f8908a23" style="stroke:#000000;stroke-opacity:0;"/>
    </defs>
    <g clip-path="url(#pda71db6615)">
     <use style="fill:#9d3e42;fill-opacity:0.8;stroke:#000000;stroke-opacity:0;" x="145.753424" xlink:href="#m79f8908a23" y="279.148326"/>
    </g>
   </g>
   <g id="line2d_126">
    <defs>
     <path d="M 0 3.298171 
C 0.874685 3.298171 1.713663 2.950655 2.332159 2.332159 
C 2.950655 1.713663 3.298171 0.874685 3.298171 0 
C 3.298171 -0.874685 2.950655 -1.713663 2.332159 -2.332159 
C 1.713663 -2.950655 0.874685 -3.298171 0 -3.298171 
C -0.874685 -3.298171 -1.713663 -2.950655 -2.332159 -2.332159 
C -2.950655 -1.713663 -3.298171 -0.874685 -3.298171 0 
C -3.298171 0.874685 -2.950655 1.713663 -2.332159 2.332159 
C -1.713663 2.950655 -0.874685 3.298171 0 3.298171 
z
" id="m702496da1c" style="stroke:#000000;stroke-opacity:0;"/>
    </defs>
    <g clip-path="url(#pda71db6615)">
     <use style="fill:#696969;fill-opacity:0.8;stroke:#000000;stroke-opacity:0;" x="253.982623" xlink:href="#m702496da1c" y="284.449598"/>
    </g>
   </g>
   <g id="line2d_127">
    <defs>
     <path d="M 0 0.982529 
C 0.26057 0.982529 0.510502 0.879003 0.694753 0.694753 
C 0.879003 0.510502 0.982529 0.26057 0.982529 0 
C 0.982529 -0.26057 0.879003 -0.510502 0.694753 -0.694753 
C 0.510502 -0.879003 0.26057 -0.982529 0 -0.982529 
C -0.26057 -0.982529 -0.510502 -0.879003 -0.694753 -0.694753 
C -0.879003 -0.510502 -0.982529 -0.26057 -0.982529 0 
C -0.982529 0.26057 -0.879003 0.510502 -0.694753 0.694753 
C -0.510502 0.879003 -0.26057 0.982529 0 0.982529 
z
" id="ma9d8d1d904" style="stroke:#000000;stroke-opacity:0;"/>
    </defs>
    <g clip-path="url(#pda71db6615)">
     <use style="fill:#448653;fill-opacity:0.8;stroke:#000000;stroke-opacity:0;" x="0" xlink:href="#ma9d8d1d904" y="0"/>
    </g>
   </g>
   <g id="line2d_128">
    <defs>
     <path d="M 0 1.044539 
C 0.277015 1.044539 0.542721 0.93448 0.738601 0.738601 
C 0.93448 0.542721 1.044539 0.277015 1.044539 0 
C 1.044539 -0.277015 0.93448 -0.542721 0.738601 -0.738601 
C 0.542721 -0.93448 0.277015 -1.044539 0 -1.044539 
C -0.277015 -1.044539 -0.542721 -0.93448 -0.738601 -0.738601 
C -0.93448 -0.542721 -1.044539 -0.277015 -1.044539 0 
C -1.044539 0.277015 -0.93448 0.542721 -0.738601 0.738601 
C -0.542721 0.93448 -0.277015 1.044539 0 1.044539 
z
" id="mc36cd4d35d" style="stroke:#000000;stroke-opacity:0;"/>
    </defs>
    <g clip-path="url(#pda71db6615)">
     <use style="fill:#9d3e42;fill-opacity:0.8;stroke:#000000;stroke-opacity:0;" x="0" xlink:href="#mc36cd4d35d" y="0"/>
    </g>
   </g>
   <g id="line2d_129"/>
   <g id="line2d_130">
    <defs>
     <path d="M 0 4.803717 
C 1.273961 4.803717 2.495915 4.297567 3.396741 3.396741 
C 4.297567 2.495915 4.803717 1.273961 4.803717 0 
C 4.803717 -1.273961 4.297567 -2.495915 3.396741 -3.396741 
C 2.495915 -4.297567 1.273961 -4.803717 0 -4.803717 
C -1.273961 -4.803717 -2.495915 -4.297567 -3.396741 -3.396741 
C -4.297567 -2.495915 -4.803717 -1.273961 -4.803717 0 
C -4.803717 1.273961 -4.297567 2.495915 -3.396741 3.396741 
C -2.495915 4.297567 -1.273961 4.803717 0 4.803717 
z
" id="mc0b2fd278c" style="stroke:#000000;stroke-opacity:0;"/>
    </defs>
    <g clip-path="url(#pda71db6615)">
     <use style="fill:#696969;fill-opacity:0.8;stroke:#000000;stroke-opacity:0;" x="0" xlink:href="#mc0b2fd278c" y="0"/>
    </g>
   </g>
   <g id="line2d_131"/>
   <g id="line2d_132"/>
   <g id="line2d_133">
    <defs>
     <path d="M 0 2.424387 
C 0.642955 2.424387 1.259663 2.168939 1.714301 1.714301 
C 2.168939 1.259663 2.424387 0.642955 2.424387 0 
C 2.424387 -0.642955 2.168939 -1.259663 1.714301 -1.714301 
C 1.259663 -2.168939 0.642955 -2.424387 0 -2.424387 
C -0.642955 -2.424387 -1.259663 -2.168939 -1.714301 -1.714301 
C -2.168939 -1.259663 -2.424387 -0.642955 -2.424387 0 
C -2.424387 0.642955 -2.168939 1.259663 -1.714301 1.714301 
C -1.259663 2.168939 -0.642955 2.424387 0 2.424387 
z
" id="m3fa3a91aea" style="stroke:#000000;stroke-opacity:0;"/>
    </defs>
    <g clip-path="url(#pda71db6615)">
     <use style="fill:#9d3e42;fill-opacity:0.8;stroke:#000000;stroke-opacity:0;" x="153.542672" xlink:href="#m3fa3a91aea" y="276.840181"/>
    </g>
   </g>
   <g id="line2d_134"/>
   <g id="line2d_135"/>
   <g id="line2d_136">
    <defs>
     <path d="M 0 0.459536 
C 0.12187 0.459536 0.238766 0.411116 0.324941 0.324941 
C 0.411116 0.238766 0.459536 0.12187 0.459536 0 
C 0.459536 -0.12187 0.411116 -0.238766 0.324941 -0.324941 
C 0.238766 -0.411116 0.12187 -0.459536 0 -0.459536 
C -0.12187 -0.459536 -0.238766 -0.411116 -0.324941 -0.324941 
C -0.411116 -0.238766 -0.459536 -0.12187 -0.459536 0 
C -0.459536 0.12187 -0.411116 0.238766 -0.324941 0.324941 
C -0.238766 0.411116 -0.12187 0.459536 0 0.459536 
z
" id="mca980f4129" style="stroke:#000000;stroke-opacity:0;"/>
    </defs>
    <g clip-path="url(#pda71db6615)">
     <use style="fill:#9d3e42;fill-opacity:0.8;stroke:#000000;stroke-opacity:0;" x="0" xlink:href="#mca980f4129" y="0"/>
    </g>
   </g>
   <g id="line2d_137"/>
   <g id="line2d_138">
    <defs>
     <path d="M 0 1.112147 
C 0.294945 1.112147 0.577849 0.994964 0.786407 0.786407 
C 0.994964 0.577849 1.112147 0.294945 1.112147 0 
C 1.112147 -0.294945 0.994964 -0.577849 0.786407 -0.786407 
C 0.577849 -0.994964 0.294945 -1.112147 0 -1.112147 
C -0.294945 -1.112147 -0.577849 -0.994964 -0.786407 -0.786407 
C -0.994964 -0.577849 -1.112147 -0.294945 -1.112147 0 
C -1.112147 0.294945 -0.994964 0.577849 -0.786407 0.786407 
C -0.577849 0.994964 -0.294945 1.112147 0 1.112147 
z
" id="mab84c6f57f" style="stroke:#000000;stroke-opacity:0;"/>
    </defs>
    <g clip-path="url(#pda71db6615)">
     <use style="fill:#448653;fill-opacity:0.8;stroke:#000000;stroke-opacity:0;" x="0" xlink:href="#mab84c6f57f" y="0"/>
    </g>
   </g>
   <g id="line2d_139"/>
   <g id="line2d_140"/>
   <g id="line2d_141">
    <defs>
     <path d="M 0 14.930453 
C 3.959602 14.930453 7.757563 13.357287 10.557425 10.557425 
C 13.357287 7.757563 14.930453 3.959602 14.930453 0 
C 14.930453 -3.959602 13.357287 -7.757563 10.557425 -10.557425 
C 7.757563 -13.357287 3.959602 -14.930453 0 -14.930453 
C -3.959602 -14.930453 -7.757563 -13.357287 -10.557425 -10.557425 
C -13.357287 -7.757563 -14.930453 -3.959602 -14.930453 0 
C -14.930453 3.959602 -13.357287 7.757563 -10.557425 10.557425 
C -7.757563 13.357287 -3.959602 14.930453 0 14.930453 
z
" id="m8d0bdc9076" style="stroke:#000000;stroke-opacity:0;"/>
    </defs>
    <g clip-path="url(#pda71db6615)">
     <use style="fill:#3d5b8d;fill-opacity:0.8;stroke:#000000;stroke-opacity:0;" x="0" xlink:href="#m8d0bdc9076" y="0"/>
    </g>
   </g>
   <g id="line2d_142"/>
   <g id="line2d_143"/>
   <g id="line2d_144">
    <defs>
     <path d="M 0 3.235453 
C 0.858052 3.235453 1.681076 2.894545 2.287811 2.287811 
C 2.894545 1.681076 3.235453 0.858052 3.235453 0 
C 3.235453 -0.858052 2.894545 -1.681076 2.287811 -2.287811 
C 1.681076 -2.894545 0.858052 -3.235453 0 -3.235453 
C -0.858052 -3.235453 -1.681076 -2.894545 -2.287811 -2.287811 
C -2.894545 -1.681076 -3.235453 -0.858052 -3.235453 0 
C -3.235453 0.858052 -2.894545 1.681076 -2.287811 2.287811 
C -1.681076 2.894545 -0.858052 3.235453 0 3.235453 
z
" id="m59e80ce768" style="stroke:#000000;stroke-opacity:0;"/>
    </defs>
    <g clip-path="url(#pda71db6615)">
     <use style="fill:#696969;fill-opacity:0.8;stroke:#000000;stroke-opacity:0;" x="231.774684" xlink:href="#m59e80ce768" y="250.357349"/>
    </g>
   </g>
   <g id="line2d_145"/>
   <g id="line2d_146"/>
   <g id="line2d_147">
    <defs>
     <path d="M 0 1.994266 
C 0.528885 1.994266 1.03618 1.784137 1.410159 1.410159 
C 1.784137 1.03618 1.994266 0.528885 1.994266 0 
C 1.994266 -0.528885 1.784137 -1.03618 1.410159 -1.410159 
C 1.03618 -1.784137 0.528885 -1.994266 0 -1.994266 
C -0.528885 -1.994266 -1.03618 -1.784137 -1.410159 -1.410159 
C -1.784137 -1.03618 -1.994266 -0.528885 -1.994266 0 
C -1.994266 0.528885 -1.784137 1.03618 -1.410159 1.410159 
C -1.03618 1.784137 -0.528885 1.994266 0 1.994266 
z
" id="ma0521d1f27" style="stroke:#000000;stroke-opacity:0;"/>
    </defs>
    <g clip-path="url(#pda71db6615)">
     <use style="fill:#9d3e42;fill-opacity:0.8;stroke:#000000;stroke-opacity:0;" x="195.458451" xlink:href="#ma0521d1f27" y="261.475809"/>
    </g>
   </g>
   <g id="line2d_148"/>
   <g id="line2d_149"/>
   <g id="line2d_150">
    <defs>
     <path d="M 0 3.81027 
C 1.010495 3.81027 1.97974 3.408796 2.694268 2.694268 
C 3.408796 1.97974 3.81027 1.010495 3.81027 0 
C 3.81027 -1.010495 3.408796 -1.97974 2.694268 -2.694268 
C 1.97974 -3.408796 1.010495 -3.81027 0 -3.81027 
C -1.010495 -3.81027 -1.97974 -3.408796 -2.694268 -2.694268 
C -3.408796 -1.97974 -3.81027 -1.010495 -3.81027 0 
C -3.81027 1.010495 -3.408796 1.97974 -2.694268 2.694268 
C -1.97974 3.408796 -1.010495 3.81027 0 3.81027 
z
" id="m39b0ec019b" style="stroke:#000000;stroke-opacity:0;"/>
    </defs>
    <g clip-path="url(#pda71db6615)">
     <use style="fill:#9d3e42;fill-opacity:0.8;stroke:#000000;stroke-opacity:0;" x="171.462915" xlink:href="#m39b0ec019b" y="275.117656"/>
    </g>
   </g>
   <g id="line2d_151"/>
   <g id="line2d_152"/>
   <g id="line2d_153">
    <defs>
     <path d="M 0 0.55833 
C 0.148071 0.55833 0.290097 0.4995 0.394799 0.394799 
C 0.4995 0.290097 0.55833 0.148071 0.55833 0 
C 0.55833 -0.148071 0.4995 -0.290097 0.394799 -0.394799 
C 0.290097 -0.4995 0.148071 -0.55833 0 -0.55833 
C -0.148071 -0.55833 -0.290097 -0.4995 -0.394799 -0.394799 
C -0.4995 -0.290097 -0.55833 -0.148071 -0.55833 0 
C -0.55833 0.148071 -0.4995 0.290097 -0.394799 0.394799 
C -0.290097 0.4995 -0.148071 0.55833 0 0.55833 
z
" id="m4886bc948a" style="stroke:#000000;stroke-opacity:0;"/>
    </defs>
    <g clip-path="url(#pda71db6615)">
     <use style="fill:#448653;fill-opacity:0.8;stroke:#000000;stroke-opacity:0;" x="0" xlink:href="#m4886bc948a" y="0"/>
    </g>
   </g>
   <g id="line2d_154">
    <defs>
     <path d="M 0 1.719426 
C 0.455997 1.719426 0.893379 1.538256 1.215818 1.215818 
C 1.538256 0.893379 1.719426 0.455997 1.719426 0 
C 1.719426 -0.455997 1.538256 -0.893379 1.215818 -1.215818 
C 0.893379 -1.538256 0.455997 -1.719426 0 -1.719426 
C -0.455997 -1.719426 -0.893379 -1.538256 -1.215818 -1.215818 
C -1.538256 -0.893379 -1.719426 -0.455997 -1.719426 0 
C -1.719426 0.455997 -1.538256 0.893379 -1.215818 1.215818 
C -0.893379 1.538256 -0.455997 1.719426 0 1.719426 
z
" id="m0fe0b8f509" style="stroke:#000000;stroke-opacity:0;"/>
    </defs>
    <g clip-path="url(#pda71db6615)">
     <use style="fill:#3d5b8d;fill-opacity:0.8;stroke:#000000;stroke-opacity:0;" x="132.904155" xlink:href="#m0fe0b8f509" y="252.352893"/>
    </g>
   </g>
   <g id="line2d_155">
    <defs>
     <path d="M 0 5.444925 
C 1.444011 5.444925 2.829073 4.871213 3.850143 3.850143 
C 4.871213 2.829073 5.444925 1.444011 5.444925 0 
C 5.444925 -1.444011 4.871213 -2.829073 3.850143 -3.850143 
C 2.829073 -4.871213 1.444011 -5.444925 0 -5.444925 
C -1.444011 -5.444925 -2.829073 -4.871213 -3.850143 -3.850143 
C -4.871213 -2.829073 -5.444925 -1.444011 -5.444925 0 
C -5.444925 1.444011 -4.871213 2.829073 -3.850143 3.850143 
C -2.829073 4.871213 -1.444011 5.444925 0 5.444925 
z
" id="md66e562cf6" style="stroke:#000000;stroke-opacity:0;"/>
    </defs>
    <g clip-path="url(#pda71db6615)">
     <use style="fill:#9d3e42;fill-opacity:0.8;stroke:#000000;stroke-opacity:0;" x="180.875641" xlink:href="#md66e562cf6" y="267.028623"/>
    </g>
   </g>
   <g id="line2d_156">
    <defs>
     <path d="M 0 2.428014 
C 0.643917 2.428014 1.261547 2.172183 1.716865 1.716865 
C 2.172183 1.261547 2.428014 0.643917 2.428014 0 
C 2.428014 -0.643917 2.172183 -1.261547 1.716865 -1.716865 
C 1.261547 -2.172183 0.643917 -2.428014 0 -2.428014 
C -0.643917 -2.428014 -1.261547 -2.172183 -1.716865 -1.716865 
C -2.172183 -1.261547 -2.428014 -0.643917 -2.428014 0 
C -2.428014 0.643917 -2.172183 1.261547 -1.716865 1.716865 
C -1.261547 2.172183 -0.643917 2.428014 0 2.428014 
z
" id="mfc7703bf9e" style="stroke:#000000;stroke-opacity:0;"/>
    </defs>
    <g clip-path="url(#pda71db6615)">
     <use style="fill:#9d3e42;fill-opacity:0.8;stroke:#000000;stroke-opacity:0;" x="179.751631" xlink:href="#mfc7703bf9e" y="279.455054"/>
    </g>
   </g>
   <g id="line2d_157"/>
   <g id="line2d_158"/>
   <g id="line2d_159"/>
   <g id="line2d_160">
    <defs>
     <path d="M 0 0.928596 
C 0.246267 0.928596 0.48248 0.830753 0.656617 0.656617 
C 0.830753 0.48248 0.928596 0.246267 0.928596 0 
C 0.928596 -0.246267 0.830753 -0.48248 0.656617 -0.656617 
C 0.48248 -0.830753 0.246267 -0.928596 0 -0.928596 
C -0.246267 -0.928596 -0.48248 -0.830753 -0.656617 -0.656617 
C -0.830753 -0.48248 -0.928596 -0.246267 -0.928596 0 
C -0.928596 0.246267 -0.830753 0.48248 -0.656617 0.656617 
C -0.48248 0.830753 -0.246267 0.928596 0 0.928596 
z
" id="mf4e8aab3e1" style="stroke:#000000;stroke-opacity:0;"/>
    </defs>
    <g clip-path="url(#pda71db6615)">
     <use style="fill:#448653;fill-opacity:0.8;stroke:#000000;stroke-opacity:0;" x="277.768511" xlink:href="#mf4e8aab3e1" y="236.058245"/>
    </g>
   </g>
   <g id="line2d_161">
    <defs>
     <path d="M 0 10.058058 
C 2.667428 10.058058 5.225964 8.998277 7.112121 7.112121 
C 8.998277 5.225964 10.058058 2.667428 10.058058 0 
C 10.058058 -2.667428 8.998277 -5.225964 7.112121 -7.112121 
C 5.225964 -8.998277 2.667428 -10.058058 0 -10.058058 
C -2.667428 -10.058058 -5.225964 -8.998277 -7.112121 -7.112121 
C -8.998277 -5.225964 -10.058058 -2.667428 -10.058058 0 
C -10.058058 2.667428 -8.998277 5.225964 -7.112121 7.112121 
C -5.225964 8.998277 -2.667428 10.058058 0 10.058058 
z
" id="m7b8257851b" style="stroke:#000000;stroke-opacity:0;"/>
    </defs>
    <g clip-path="url(#pda71db6615)">
     <use style="fill:#696969;fill-opacity:0.8;stroke:#000000;stroke-opacity:0;" x="318.515516" xlink:href="#m7b8257851b" y="238.316511"/>
    </g>
   </g>
   <g id="line2d_162"/>
   <g id="line2d_163">
    <defs>
     <path d="M 0 2.038526 
C 0.540623 2.038526 1.059177 1.823734 1.441455 1.441455 
C 1.823734 1.059177 2.038526 0.540623 2.038526 0 
C 2.038526 -0.540623 1.823734 -1.059177 1.441455 -1.441455 
C 1.059177 -1.823734 0.540623 -2.038526 0 -2.038526 
C -0.540623 -2.038526 -1.059177 -1.823734 -1.441455 -1.441455 
C -1.823734 -1.059177 -2.038526 -0.540623 -2.038526 0 
C -2.038526 0.540623 -1.823734 1.059177 -1.441455 1.441455 
C -1.059177 1.823734 -0.540623 2.038526 0 2.038526 
z
" id="m5ae8f18e00" style="stroke:#000000;stroke-opacity:0;"/>
    </defs>
    <g clip-path="url(#pda71db6615)">
     <use style="fill:#448653;fill-opacity:0.8;stroke:#000000;stroke-opacity:0;" x="180.033504" xlink:href="#m5ae8f18e00" y="237.090341"/>
    </g>
   </g>
   <g id="line2d_164">
    <defs>
     <path d="M 0 5.144613 
C 1.364367 5.144613 2.673037 4.602544 3.63779 3.63779 
C 4.602544 2.673037 5.144613 1.364367 5.144613 0 
C 5.144613 -1.364367 4.602544 -2.673037 3.63779 -3.63779 
C 2.673037 -4.602544 1.364367 -5.144613 0 -5.144613 
C -1.364367 -5.144613 -2.673037 -4.602544 -3.63779 -3.63779 
C -4.602544 -2.673037 -5.144613 -1.364367 -5.144613 0 
C -5.144613 1.364367 -4.602544 2.673037 -3.63779 3.63779 
C -2.673037 4.602544 -1.364367 5.144613 0 5.144613 
z
" id="me8c87b0843" style="stroke:#000000;stroke-opacity:0;"/>
    </defs>
    <g clip-path="url(#pda71db6615)">
     <use style="fill:#9d3e42;fill-opacity:0.8;stroke:#000000;stroke-opacity:0;" x="160.704097" xlink:href="#me8c87b0843" y="282.581309"/>
    </g>
   </g>
   <g id="line2d_165">
    <defs>
     <path d="M 0 2.672015 
C 0.708627 2.672015 1.388325 2.390475 1.8894 1.8894 
C 2.390475 1.388325 2.672015 0.708627 2.672015 0 
C 2.672015 -0.708627 2.390475 -1.388325 1.8894 -1.8894 
C 1.388325 -2.390475 0.708627 -2.672015 0 -2.672015 
C -0.708627 -2.672015 -1.388325 -2.390475 -1.8894 -1.8894 
C -2.390475 -1.388325 -2.672015 -0.708627 -2.672015 0 
C -2.672015 0.708627 -2.390475 1.388325 -1.8894 1.8894 
C -1.388325 2.390475 -0.708627 2.672015 0 2.672015 
z
" id="m4bb7210711" style="stroke:#000000;stroke-opacity:0;"/>
    </defs>
    <g clip-path="url(#pda71db6615)">
     <use style="fill:#9d3e42;fill-opacity:0.8;stroke:#000000;stroke-opacity:0;" x="0" xlink:href="#m4bb7210711" y="0"/>
    </g>
   </g>
   <g id="line2d_166">
    <defs>
     <path d="M 0 4.554696 
C 1.207919 4.554696 2.366528 4.074784 3.220656 3.220656 
C 4.074784 2.366528 4.554696 1.207919 4.554696 0 
C 4.554696 -1.207919 4.074784 -2.366528 3.220656 -3.220656 
C 2.366528 -4.074784 1.207919 -4.554696 0 -4.554696 
C -1.207919 -4.554696 -2.366528 -4.074784 -3.220656 -3.220656 
C -4.074784 -2.366528 -4.554696 -1.207919 -4.554696 0 
C -4.554696 1.207919 -4.074784 2.366528 -3.220656 3.220656 
C -2.366528 4.074784 -1.207919 4.554696 0 4.554696 
z
" id="me2e4eb93c8" style="stroke:#000000;stroke-opacity:0;"/>
    </defs>
    <g clip-path="url(#pda71db6615)">
     <use style="fill:#9d3e42;fill-opacity:0.8;stroke:#000000;stroke-opacity:0;" x="0" xlink:href="#me2e4eb93c8" y="0"/>
    </g>
   </g>
   <g id="line2d_167">
    <defs>
     <path d="M 0 2.530429 
C 0.671078 2.530429 1.31476 2.263807 1.789284 1.789284 
C 2.263807 1.31476 2.530429 0.671078 2.530429 0 
C 2.530429 -0.671078 2.263807 -1.31476 1.789284 -1.789284 
C 1.31476 -2.263807 0.671078 -2.530429 0 -2.530429 
C -0.671078 -2.530429 -1.31476 -2.263807 -1.789284 -1.789284 
C -2.263807 -1.31476 -2.530429 -0.671078 -2.530429 0 
C -2.530429 0.671078 -2.263807 1.31476 -1.789284 1.789284 
C -1.31476 2.263807 -0.671078 2.530429 0 2.530429 
z
" id="md877704a34" style="stroke:#000000;stroke-opacity:0;"/>
    </defs>
    <g clip-path="url(#pda71db6615)">
     <use style="fill:#3d5b8d;fill-opacity:0.8;stroke:#000000;stroke-opacity:0;" x="207.944023" xlink:href="#md877704a34" y="274.040675"/>
    </g>
   </g>
   <g id="line2d_168"/>
   <g id="line2d_169"/>
   <g id="text_12">
    <!-- dynomight.net -->
    <g style="fill:#262626;opacity:0.25;" transform="translate(592.740965 381.216)scale(0.06 -0.06)">
     <defs>
      <path d="M 2681 3053 
L 2681 4863 
L 3256 4863 
L 3256 0 
L 2681 0 
L 2681 441 
Q 2538 181 2298 45 
Q 2059 -91 1747 -91 
Q 1113 -91 748 401 
Q 384 894 384 1759 
Q 384 2613 750 3098 
Q 1116 3584 1747 3584 
Q 2063 3584 2303 3448 
Q 2544 3313 2681 3053 
z
M 991 1747 
Q 991 1078 1203 737 
Q 1416 397 1831 397 
Q 2247 397 2464 740 
Q 2681 1084 2681 1747 
Q 2681 2413 2464 2755 
Q 2247 3097 1831 3097 
Q 1416 3097 1203 2756 
Q 991 2416 991 1747 
z
" id="DejaVuSansMono-64" transform="scale(0.015625)"/>
      <path d="M 2681 1125 
Q 2538 759 2316 163 
Q 2006 -663 1900 -844 
Q 1756 -1088 1540 -1209 
Q 1325 -1331 1038 -1331 
L 575 -1331 
L 575 -850 
L 916 -850 
Q 1169 -850 1312 -703 
Q 1456 -556 1678 56 
L 325 3500 
L 934 3500 
L 1972 763 
L 2994 3500 
L 3603 3500 
L 2681 1125 
z
" id="DejaVuSansMono-79" transform="scale(0.015625)"/>
      <path d="M 3284 2169 
L 3284 0 
L 2706 0 
L 2706 2169 
Q 2706 2641 2540 2862 
Q 2375 3084 2022 3084 
Q 1619 3084 1401 2798 
Q 1184 2513 1184 1978 
L 1184 0 
L 609 0 
L 609 3500 
L 1184 3500 
L 1184 2975 
Q 1338 3275 1600 3429 
Q 1863 3584 2222 3584 
Q 2756 3584 3020 3232 
Q 3284 2881 3284 2169 
z
" id="DejaVuSansMono-6e" transform="scale(0.015625)"/>
      <path d="M 1925 3097 
Q 1488 3097 1263 2756 
Q 1038 2416 1038 1747 
Q 1038 1081 1263 739 
Q 1488 397 1925 397 
Q 2366 397 2591 739 
Q 2816 1081 2816 1747 
Q 2816 2416 2591 2756 
Q 2366 3097 1925 3097 
z
M 1925 3584 
Q 2653 3584 3039 3112 
Q 3425 2641 3425 1747 
Q 3425 850 3040 379 
Q 2656 -91 1925 -91 
Q 1197 -91 812 379 
Q 428 850 428 1747 
Q 428 2641 812 3112 
Q 1197 3584 1925 3584 
z
" id="DejaVuSansMono-6f" transform="scale(0.015625)"/>
      <path d="M 2113 3144 
Q 2219 3369 2383 3476 
Q 2547 3584 2778 3584 
Q 3200 3584 3373 3257 
Q 3547 2931 3547 2028 
L 3547 0 
L 3022 0 
L 3022 2003 
Q 3022 2744 2939 2923 
Q 2856 3103 2638 3103 
Q 2388 3103 2295 2911 
Q 2203 2719 2203 2003 
L 2203 0 
L 1678 0 
L 1678 2003 
Q 1678 2753 1589 2928 
Q 1500 3103 1269 3103 
Q 1041 3103 952 2911 
Q 863 2719 863 2003 
L 863 0 
L 341 0 
L 341 3500 
L 863 3500 
L 863 3200 
Q 966 3388 1120 3486 
Q 1275 3584 1472 3584 
Q 1709 3584 1867 3475 
Q 2025 3366 2113 3144 
z
" id="DejaVuSansMono-6d" transform="scale(0.015625)"/>
      <path d="M 800 3500 
L 2272 3500 
L 2272 447 
L 3413 447 
L 3413 0 
L 556 0 
L 556 447 
L 1697 447 
L 1697 3053 
L 800 3053 
L 800 3500 
z
M 1697 4863 
L 2272 4863 
L 2272 4134 
L 1697 4134 
L 1697 4863 
z
" id="DejaVuSansMono-69" transform="scale(0.015625)"/>
      <path d="M 2681 1778 
Q 2681 2425 2470 2761 
Q 2259 3097 1856 3097 
Q 1434 3097 1212 2761 
Q 991 2425 991 1778 
Q 991 1131 1214 792 
Q 1438 453 1863 453 
Q 2259 453 2470 793 
Q 2681 1134 2681 1778 
z
M 3256 225 
Q 3256 -563 2884 -969 
Q 2513 -1375 1791 -1375 
Q 1553 -1375 1293 -1331 
Q 1034 -1288 775 -1203 
L 775 -634 
Q 1081 -778 1331 -847 
Q 1581 -916 1791 -916 
Q 2256 -916 2468 -662 
Q 2681 -409 2681 141 
L 2681 166 
L 2681 556 
Q 2544 263 2306 119 
Q 2069 -25 1728 -25 
Q 1116 -25 750 465 
Q 384 956 384 1778 
Q 384 2603 750 3093 
Q 1116 3584 1728 3584 
Q 2066 3584 2300 3450 
Q 2534 3316 2681 3034 
L 2681 3488 
L 3256 3488 
L 3256 225 
z
" id="DejaVuSansMono-67" transform="scale(0.015625)"/>
      <path d="M 3284 2169 
L 3284 0 
L 2706 0 
L 2706 2169 
Q 2706 2641 2540 2862 
Q 2375 3084 2022 3084 
Q 1619 3084 1401 2798 
Q 1184 2513 1184 1978 
L 1184 0 
L 609 0 
L 609 4863 
L 1184 4863 
L 1184 2975 
Q 1338 3275 1600 3429 
Q 1863 3584 2222 3584 
Q 2756 3584 3020 3232 
Q 3284 2881 3284 2169 
z
" id="DejaVuSansMono-68" transform="scale(0.015625)"/>
      <path d="M 1919 4494 
L 1919 3500 
L 3225 3500 
L 3225 3053 
L 1919 3053 
L 1919 1153 
Q 1919 766 2066 612 
Q 2213 459 2578 459 
L 3225 459 
L 3225 0 
L 2522 0 
Q 1875 0 1609 259 
Q 1344 519 1344 1153 
L 1344 3053 
L 409 3053 
L 409 3500 
L 1344 3500 
L 1344 4494 
L 1919 4494 
z
" id="DejaVuSansMono-74" transform="scale(0.015625)"/>
      <path d="M 1528 953 
L 2316 953 
L 2316 0 
L 1528 0 
L 1528 953 
z
" id="DejaVuSansMono-2e" transform="scale(0.015625)"/>
      <path d="M 3475 1894 
L 3475 1613 
L 984 1613 
L 984 1594 
Q 984 1022 1282 709 
Q 1581 397 2125 397 
Q 2400 397 2700 484 
Q 3000 572 3341 750 
L 3341 178 
Q 3013 44 2708 -23 
Q 2403 -91 2119 -91 
Q 1303 -91 843 398 
Q 384 888 384 1747 
Q 384 2584 834 3084 
Q 1284 3584 2034 3584 
Q 2703 3584 3089 3131 
Q 3475 2678 3475 1894 
z
M 2900 2063 
Q 2888 2569 2661 2833 
Q 2434 3097 2009 3097 
Q 1594 3097 1325 2822 
Q 1056 2547 1006 2059 
L 2900 2063 
z
" id="DejaVuSansMono-65" transform="scale(0.015625)"/>
     </defs>
     <use xlink:href="#DejaVuSansMono-64"/>
     <use x="60.205078" xlink:href="#DejaVuSansMono-79"/>
     <use x="120.410156" xlink:href="#DejaVuSansMono-6e"/>
     <use x="180.615234" xlink:href="#DejaVuSansMono-6f"/>
     <use x="240.820312" xlink:href="#DejaVuSansMono-6d"/>
     <use x="301.025391" xlink:href="#DejaVuSansMono-69"/>
     <use x="361.230469" xlink:href="#DejaVuSansMono-67"/>
     <use x="421.435547" xlink:href="#DejaVuSansMono-68"/>
     <use x="481.640625" xlink:href="#DejaVuSansMono-74"/>
     <use x="541.845703" xlink:href="#DejaVuSansMono-2e"/>
     <use x="602.050781" xlink:href="#DejaVuSansMono-6e"/>
     <use x="662.255859" xlink:href="#DejaVuSansMono-65"/>
     <use x="722.460938" xlink:href="#DejaVuSansMono-74"/>
    </g>
   </g>
  </g>
  <g id="text_13">
   <!-- GPD per capita in 1820 vs. 1870 -->
   <g style="fill:#262626;" transform="translate(139.16025 30.0105)scale(0.288 -0.288)">
    <defs>
     <path d="M 3885 2240 
L 4339 2240 
L 4339 531 
Q 4026 256 3597 109 
Q 3168 -38 2694 -38 
Q 2022 -38 1484 256 
Q 947 550 640 1072 
Q 333 1594 333 2240 
Q 333 2886 640 3408 
Q 947 3930 1484 4224 
Q 2022 4518 2701 4518 
Q 3213 4518 3641 4355 
Q 4070 4192 4365 3872 
L 4070 3571 
Q 3539 4096 2720 4096 
Q 2176 4096 1737 3856 
Q 1299 3616 1049 3190 
Q 800 2765 800 2240 
Q 800 1715 1049 1292 
Q 1299 870 1734 627 
Q 2170 384 2714 384 
Q 3405 384 3885 730 
L 3885 2240 
z
" id="Montserrat-Regular-47" transform="scale(0.015625)"/>
     <path d="M 2406 4480 
Q 3264 4480 3750 4070 
Q 4237 3661 4237 2944 
Q 4237 2227 3750 1820 
Q 3264 1414 2406 1414 
L 1203 1414 
L 1203 0 
L 730 0 
L 730 4480 
L 2406 4480 
z
M 2394 1830 
Q 3059 1830 3411 2121 
Q 3763 2413 3763 2944 
Q 3763 3488 3411 3779 
Q 3059 4070 2394 4070 
L 1203 4070 
L 1203 1830 
L 2394 1830 
z
" id="Montserrat-Regular-50" transform="scale(0.015625)"/>
     <path d="M 730 4480 
L 2554 4480 
Q 3264 4480 3808 4195 
Q 4352 3910 4653 3401 
Q 4954 2893 4954 2240 
Q 4954 1587 4653 1078 
Q 4352 570 3808 285 
Q 3264 0 2554 0 
L 730 0 
L 730 4480 
z
M 2528 410 
Q 3117 410 3558 643 
Q 4000 877 4243 1289 
Q 4486 1702 4486 2240 
Q 4486 2778 4243 3190 
Q 4000 3603 3558 3836 
Q 3117 4070 2528 4070 
L 1203 4070 
L 1203 410 
L 2528 410 
z
" id="Montserrat-Regular-44" transform="scale(0.015625)"/>
     <path d="M 2368 3392 
Q 2842 3392 3226 3177 
Q 3610 2963 3827 2572 
Q 4045 2182 4045 1683 
Q 4045 1178 3827 787 
Q 3610 397 3229 182 
Q 2848 -32 2368 -32 
Q 1958 -32 1628 137 
Q 1299 307 1088 634 
L 1088 -1242 
L 634 -1242 
L 634 3366 
L 1069 3366 
L 1069 2701 
Q 1274 3034 1610 3213 
Q 1946 3392 2368 3392 
z
M 2336 371 
Q 2688 371 2976 534 
Q 3264 698 3427 998 
Q 3590 1299 3590 1683 
Q 3590 2067 3427 2364 
Q 3264 2662 2976 2828 
Q 2688 2995 2336 2995 
Q 1978 2995 1693 2828 
Q 1408 2662 1245 2364 
Q 1082 2067 1082 1683 
Q 1082 1299 1245 998 
Q 1408 698 1693 534 
Q 1978 371 2336 371 
z
" id="Montserrat-Regular-70" transform="scale(0.015625)"/>
     <path d="M 2029 -32 
Q 1530 -32 1136 185 
Q 742 403 518 796 
Q 294 1190 294 1683 
Q 294 2176 518 2566 
Q 742 2957 1136 3174 
Q 1530 3392 2029 3392 
Q 2464 3392 2806 3222 
Q 3149 3053 3347 2726 
L 3008 2496 
Q 2842 2746 2586 2870 
Q 2330 2995 2029 2995 
Q 1664 2995 1373 2832 
Q 1082 2669 918 2368 
Q 755 2067 755 1683 
Q 755 1293 918 995 
Q 1082 698 1373 534 
Q 1664 371 2029 371 
Q 2330 371 2586 492 
Q 2842 614 3008 864 
L 3347 634 
Q 3149 307 2803 137 
Q 2458 -32 2029 -32 
z
" id="Montserrat-Regular-63" transform="scale(0.015625)"/>
     <path d="M 634 3366 
L 1088 3366 
L 1088 0 
L 634 0 
L 634 3366 
z
M 864 4102 
Q 723 4102 627 4198 
Q 531 4294 531 4429 
Q 531 4557 627 4653 
Q 723 4749 864 4749 
Q 1005 4749 1101 4656 
Q 1197 4563 1197 4435 
Q 1197 4294 1101 4198 
Q 1005 4102 864 4102 
z
" id="Montserrat-Regular-69" transform="scale(0.015625)"/>
     <path d="M 3462 3366 
L 1965 0 
L 1498 0 
L 6 3366 
L 480 3366 
L 1741 499 
L 3014 3366 
L 3462 3366 
z
" id="Montserrat-Regular-76" transform="scale(0.015625)"/>
     <path d="M 1536 -32 
Q 1126 -32 752 86 
Q 378 205 166 384 
L 371 742 
Q 582 576 902 470 
Q 1222 365 1568 365 
Q 2029 365 2249 509 
Q 2470 653 2470 915 
Q 2470 1101 2348 1206 
Q 2227 1312 2041 1366 
Q 1856 1421 1549 1472 
Q 1139 1549 889 1629 
Q 640 1709 464 1901 
Q 288 2093 288 2432 
Q 288 2854 640 3123 
Q 992 3392 1619 3392 
Q 1946 3392 2272 3305 
Q 2598 3219 2810 3078 
L 2611 2714 
Q 2195 3002 1619 3002 
Q 1184 3002 963 2848 
Q 742 2694 742 2445 
Q 742 2253 867 2137 
Q 992 2022 1177 1968 
Q 1363 1914 1690 1856 
Q 2093 1779 2336 1702 
Q 2579 1626 2752 1440 
Q 2925 1254 2925 928 
Q 2925 486 2557 227 
Q 2189 -32 1536 -32 
z
" id="Montserrat-Regular-73" transform="scale(0.015625)"/>
     <path d="M 678 -32 
Q 538 -32 438 70 
Q 339 173 339 320 
Q 339 467 438 566 
Q 538 666 678 666 
Q 819 666 921 566 
Q 1024 467 1024 320 
Q 1024 173 921 70 
Q 819 -32 678 -32 
z
" id="Montserrat-Regular-2e" transform="scale(0.015625)"/>
     <path d="M 3494 4480 
L 3494 4154 
L 1619 0 
L 1120 0 
L 2963 4070 
L 659 4070 
L 659 3232 
L 205 3232 
L 205 4480 
L 3494 4480 
z
" id="Montserrat-Regular-37" transform="scale(0.015625)"/>
    </defs>
    <use xlink:href="#Montserrat-Regular-47"/>
    <use x="77.299988" xlink:href="#Montserrat-Regular-50"/>
    <use x="149.099976" xlink:href="#Montserrat-Regular-44"/>
    <use x="231.699966" xlink:href="#Montserrat-Regular-20"/>
    <use x="257.899963" xlink:href="#Montserrat-Regular-70"/>
    <use x="325.699951" xlink:href="#Montserrat-Regular-65"/>
    <use x="386.099945" xlink:href="#Montserrat-Regular-72"/>
    <use x="426.199936" xlink:href="#Montserrat-Regular-20"/>
    <use x="452.399933" xlink:href="#Montserrat-Regular-63"/>
    <use x="508.699921" xlink:href="#Montserrat-Regular-61"/>
    <use x="567.699905" xlink:href="#Montserrat-Regular-70"/>
    <use x="635.499893" xlink:href="#Montserrat-Regular-69"/>
    <use x="662.399887" xlink:href="#Montserrat-Regular-74"/>
    <use x="702.999878" xlink:href="#Montserrat-Regular-61"/>
    <use x="761.999863" xlink:href="#Montserrat-Regular-20"/>
    <use x="788.19986" xlink:href="#Montserrat-Regular-69"/>
    <use x="815.099854" xlink:href="#Montserrat-Regular-6e"/>
    <use x="882.799835" xlink:href="#Montserrat-Regular-20"/>
    <use x="908.999832" xlink:href="#Montserrat-Regular-31"/>
    <use x="945.099823" xlink:href="#Montserrat-Regular-38"/>
    <use x="1008.899811" xlink:href="#Montserrat-Regular-32"/>
    <use x="1065.699799" xlink:href="#Montserrat-Regular-30"/>
    <use x="1131.899796" xlink:href="#Montserrat-Regular-20"/>
    <use x="1158.099792" xlink:href="#Montserrat-Regular-76"/>
    <use x="1212.299789" xlink:href="#Montserrat-Regular-73"/>
    <use x="1261.199783" xlink:href="#Montserrat-Regular-2e"/>
    <use x="1282.39978" xlink:href="#Montserrat-Regular-20"/>
    <use x="1308.599777" xlink:href="#Montserrat-Regular-31"/>
    <use x="1344.699768" xlink:href="#Montserrat-Regular-38"/>
    <use x="1408.499756" xlink:href="#Montserrat-Regular-37"/>
    <use x="1467.39975" xlink:href="#Montserrat-Regular-30"/>
   </g>
  </g>
  <g id="text_14">
   <!-- GDP per capita at start -->
   <g style="fill:#262626;" transform="translate(195.38325 422.091)scale(0.288 -0.288)">
    <use xlink:href="#Montserrat-Regular-47"/>
    <use x="77.299988" xlink:href="#Montserrat-Regular-44"/>
    <use x="159.899979" xlink:href="#Montserrat-Regular-50"/>
    <use x="231.699966" xlink:href="#Montserrat-Regular-20"/>
    <use x="257.899963" xlink:href="#Montserrat-Regular-70"/>
    <use x="325.699951" xlink:href="#Montserrat-Regular-65"/>
    <use x="386.099945" xlink:href="#Montserrat-Regular-72"/>
    <use x="426.199936" xlink:href="#Montserrat-Regular-20"/>
    <use x="452.399933" xlink:href="#Montserrat-Regular-63"/>
    <use x="508.699921" xlink:href="#Montserrat-Regular-61"/>
    <use x="567.699905" xlink:href="#Montserrat-Regular-70"/>
    <use x="635.499893" xlink:href="#Montserrat-Regular-69"/>
    <use x="662.399887" xlink:href="#Montserrat-Regular-74"/>
    <use x="702.999878" xlink:href="#Montserrat-Regular-61"/>
    <use x="761.999863" xlink:href="#Montserrat-Regular-20"/>
    <use x="788.19986" xlink:href="#Montserrat-Regular-61"/>
    <use x="847.199844" xlink:href="#Montserrat-Regular-74"/>
    <use x="887.799835" xlink:href="#Montserrat-Regular-20"/>
    <use x="913.999832" xlink:href="#Montserrat-Regular-73"/>
    <use x="962.899826" xlink:href="#Montserrat-Regular-74"/>
    <use x="1003.499817" xlink:href="#Montserrat-Regular-61"/>
    <use x="1062.499802" xlink:href="#Montserrat-Regular-72"/>
    <use x="1102.599792" xlink:href="#Montserrat-Regular-74"/>
   </g>
  </g>
 </g>
 <defs>
  <clipPath id="pda71db6615">
   <rect height="315.36" width="558" x="90" y="51.84"/>
  </clipPath>
 </defs>
</svg>
