<?xml version="1.0" encoding="utf-8" standalone="no"?>
<!DOCTYPE svg PUBLIC "-//W3C//DTD SVG 1.1//EN"
  "http://www.w3.org/Graphics/SVG/1.1/DTD/svg11.dtd">
<svg height="432pt" version="1.1" viewBox="0 0 720 432" width="720pt" xmlns="http://www.w3.org/2000/svg" xmlns:xlink="http://www.w3.org/1999/xlink">
 <metadata>
  <rdf:RDF xmlns:cc="http://creativecommons.org/ns#" xmlns:dc="http://purl.org/dc/elements/1.1/" xmlns:rdf="http://www.w3.org/1999/02/22-rdf-syntax-ns#">
   <cc:Work>
    <dc:type rdf:resource="http://purl.org/dc/dcmitype/StillImage"/>
    <dc:date>2022-02-22T14:17:24.266125</dc:date>
    <dc:format>image/svg+xml</dc:format>
    <dc:creator>
     <cc:Agent>
      <dc:title>Matplotlib v3.4.1, https://matplotlib.org/</dc:title>
     </cc:Agent>
    </dc:creator>
   </cc:Work>
  </rdf:RDF>
 </metadata>
 <defs>
  <style type="text/css">*{stroke-linecap:butt;stroke-linejoin:round;}</style>
 </defs>
 <g id="figure_1">
  <g id="patch_1">
   <path d="M 0 432 
L 720 432 
L 720 0 
L 0 0 
z
" style="fill:#ffffff;"/>
  </g>
  <g id="axes_1">
   <g id="patch_2">
    <path d="M 136.92 348.58 
L 579.142384 348.58 
L 579.142384 25.92 
L 136.92 25.92 
z
" style="fill:#ffffff;"/>
   </g>
   <g id="matplotlib.axis_1">
    <g id="xtick_1">
     <g id="text_1">
      <!-- 1850 -->
      <g style="fill:#262626;" transform="translate(189.956871 374.404687)scale(0.22 -0.22)">
       <defs>
        <path d="M 1574 4480 
L 1574 0 
L 1114 0 
L 1114 4070 
L 58 4070 
L 58 4480 
L 1574 4480 
z
" id="Montserrat-Regular-31" transform="scale(0.015625)"/>
        <path d="M 2899 2349 
Q 3322 2208 3549 1926 
Q 3776 1645 3776 1248 
Q 3776 858 3565 566 
Q 3354 275 2960 118 
Q 2566 -38 2035 -38 
Q 1229 -38 768 307 
Q 307 653 307 1248 
Q 307 1651 528 1929 
Q 749 2208 1171 2349 
Q 826 2483 646 2736 
Q 467 2989 467 3334 
Q 467 3878 892 4198 
Q 1318 4518 2035 4518 
Q 2509 4518 2864 4374 
Q 3219 4230 3417 3961 
Q 3616 3693 3616 3334 
Q 3616 2989 3430 2736 
Q 3245 2483 2899 2349 
z
M 928 3322 
Q 928 2950 1222 2732 
Q 1517 2515 2035 2515 
Q 2554 2515 2851 2732 
Q 3149 2950 3149 3315 
Q 3149 3693 2845 3910 
Q 2541 4128 2035 4128 
Q 1523 4128 1225 3910 
Q 928 3693 928 3322 
z
M 2035 352 
Q 2630 352 2966 595 
Q 3302 838 3302 1254 
Q 3302 1670 2966 1910 
Q 2630 2150 2035 2150 
Q 1446 2150 1110 1910 
Q 774 1670 774 1254 
Q 774 832 1107 592 
Q 1440 352 2035 352 
z
" id="Montserrat-Regular-38" transform="scale(0.015625)"/>
        <path d="M 1510 2643 
Q 2483 2643 2928 2294 
Q 3373 1946 3373 1318 
Q 3373 928 3190 621 
Q 3008 314 2643 138 
Q 2278 -38 1747 -38 
Q 1267 -38 835 118 
Q 403 275 141 538 
L 365 902 
Q 589 672 953 528 
Q 1318 384 1741 384 
Q 2298 384 2602 633 
Q 2906 883 2906 1299 
Q 2906 1760 2563 1997 
Q 2221 2234 1408 2234 
L 454 2234 
L 685 4480 
L 3136 4480 
L 3136 4070 
L 1088 4070 
L 934 2643 
L 1510 2643 
z
" id="Montserrat-Regular-35" transform="scale(0.015625)"/>
        <path d="M 2118 -38 
Q 1600 -38 1193 237 
Q 787 512 560 1027 
Q 333 1542 333 2240 
Q 333 2938 560 3453 
Q 787 3968 1193 4243 
Q 1600 4518 2118 4518 
Q 2637 4518 3043 4243 
Q 3450 3968 3680 3453 
Q 3910 2938 3910 2240 
Q 3910 1542 3680 1027 
Q 3450 512 3043 237 
Q 2637 -38 2118 -38 
z
M 2118 384 
Q 2509 384 2806 601 
Q 3104 819 3270 1235 
Q 3437 1651 3437 2240 
Q 3437 2829 3270 3245 
Q 3104 3661 2806 3878 
Q 2509 4096 2118 4096 
Q 1728 4096 1430 3878 
Q 1133 3661 966 3245 
Q 800 2829 800 2240 
Q 800 1651 966 1235 
Q 1133 819 1430 601 
Q 1728 384 2118 384 
z
" id="Montserrat-Regular-30" transform="scale(0.015625)"/>
       </defs>
       <use xlink:href="#Montserrat-Regular-31"/>
       <use x="36.099991" xlink:href="#Montserrat-Regular-38"/>
       <use x="99.899979" xlink:href="#Montserrat-Regular-35"/>
       <use x="156.499969" xlink:href="#Montserrat-Regular-30"/>
      </g>
     </g>
    </g>
    <g id="xtick_2">
     <g id="text_2">
      <!-- 1900 -->
      <g style="fill:#262626;" transform="translate(291.77402 374.404687)scale(0.22 -0.22)">
       <defs>
        <path d="M 1728 4518 
Q 2618 4518 3091 3932 
Q 3565 3347 3565 2278 
Q 3565 1530 3309 1011 
Q 3053 493 2592 227 
Q 2131 -38 1517 -38 
Q 851 -38 454 205 
L 640 576 
Q 960 365 1510 365 
Q 2253 365 2675 835 
Q 3098 1306 3098 2202 
Q 3098 2368 3078 2566 
Q 2912 2202 2547 2000 
Q 2182 1798 1709 1798 
Q 1267 1798 924 1964 
Q 582 2131 390 2435 
Q 198 2739 198 3142 
Q 198 3552 396 3865 
Q 595 4179 944 4348 
Q 1293 4518 1728 4518 
z
M 1779 2189 
Q 2118 2189 2377 2317 
Q 2637 2445 2784 2669 
Q 2931 2893 2931 3168 
Q 2931 3424 2793 3641 
Q 2656 3859 2387 3993 
Q 2118 4128 1747 4128 
Q 1261 4128 957 3862 
Q 653 3597 653 3155 
Q 653 2714 957 2451 
Q 1261 2189 1779 2189 
z
" id="Montserrat-Regular-39" transform="scale(0.015625)"/>
       </defs>
       <use xlink:href="#Montserrat-Regular-31"/>
       <use x="36.099991" xlink:href="#Montserrat-Regular-39"/>
       <use x="96.999985" xlink:href="#Montserrat-Regular-30"/>
       <use x="163.199982" xlink:href="#Montserrat-Regular-30"/>
      </g>
     </g>
    </g>
    <g id="xtick_3">
     <g id="text_3">
      <!-- 1950 -->
      <g style="fill:#262626;" transform="translate(395.387263 374.404687)scale(0.22 -0.22)">
       <use xlink:href="#Montserrat-Regular-31"/>
       <use x="36.099991" xlink:href="#Montserrat-Regular-39"/>
       <use x="96.999985" xlink:href="#Montserrat-Regular-35"/>
       <use x="153.599976" xlink:href="#Montserrat-Regular-30"/>
      </g>
     </g>
    </g>
    <g id="xtick_4">
     <g id="text_4">
      <!-- 2000 -->
      <g style="fill:#262626;" transform="translate(494.026443 374.404687)scale(0.22 -0.22)">
       <defs>
        <path d="M 3392 410 
L 3392 0 
L 250 0 
L 250 326 
L 2112 2150 
Q 2464 2496 2589 2749 
Q 2714 3002 2714 3258 
Q 2714 3654 2442 3875 
Q 2170 4096 1664 4096 
Q 877 4096 442 3597 
L 115 3878 
Q 378 4186 784 4352 
Q 1190 4518 1702 4518 
Q 2387 4518 2787 4195 
Q 3187 3872 3187 3309 
Q 3187 2963 3033 2643 
Q 2880 2323 2451 1907 
L 928 410 
L 3392 410 
z
" id="Montserrat-Regular-32" transform="scale(0.015625)"/>
       </defs>
       <use xlink:href="#Montserrat-Regular-32"/>
       <use x="56.799988" xlink:href="#Montserrat-Regular-30"/>
       <use x="122.999985" xlink:href="#Montserrat-Regular-30"/>
       <use x="189.199982" xlink:href="#Montserrat-Regular-30"/>
      </g>
     </g>
    </g>
    <g id="text_5">
     <!-- year -->
     <g style="fill:#262626;" transform="translate(332.386817 400.362812)scale(0.24 -0.24)">
      <defs>
       <path d="M 3462 3366 
L 1779 -403 
Q 1574 -877 1305 -1075 
Q 1037 -1274 659 -1274 
Q 416 -1274 205 -1197 
Q -6 -1120 -160 -966 
L 51 -627 
Q 307 -883 666 -883 
Q 896 -883 1059 -755 
Q 1222 -627 1363 -320 
L 1510 6 
L 6 3366 
L 480 3366 
L 1747 506 
L 3014 3366 
L 3462 3366 
z
" id="Montserrat-Regular-79" transform="scale(0.015625)"/>
       <path d="M 3565 1542 
L 749 1542 
Q 787 1018 1152 694 
Q 1517 371 2074 371 
Q 2387 371 2649 483 
Q 2912 595 3104 813 
L 3360 518 
Q 3136 250 2800 109 
Q 2464 -32 2061 -32 
Q 1542 -32 1142 189 
Q 742 410 518 800 
Q 294 1190 294 1683 
Q 294 2176 508 2566 
Q 723 2957 1097 3174 
Q 1472 3392 1939 3392 
Q 2406 3392 2777 3174 
Q 3149 2957 3360 2569 
Q 3571 2182 3571 1683 
L 3565 1542 
z
M 1939 3002 
Q 1453 3002 1123 2691 
Q 794 2381 749 1882 
L 3136 1882 
Q 3091 2381 2761 2691 
Q 2432 3002 1939 3002 
z
" id="Montserrat-Regular-65" transform="scale(0.015625)"/>
       <path d="M 1811 3392 
Q 2470 3392 2822 3062 
Q 3174 2733 3174 2086 
L 3174 0 
L 2739 0 
L 2739 525 
Q 2586 262 2288 115 
Q 1990 -32 1581 -32 
Q 1018 -32 685 237 
Q 352 506 352 947 
Q 352 1376 662 1638 
Q 973 1901 1651 1901 
L 2720 1901 
L 2720 2106 
Q 2720 2541 2477 2768 
Q 2234 2995 1766 2995 
Q 1446 2995 1152 2889 
Q 858 2784 646 2598 
L 442 2938 
Q 698 3155 1056 3273 
Q 1414 3392 1811 3392 
z
M 1651 326 
Q 2035 326 2310 502 
Q 2586 678 2720 1011 
L 2720 1562 
L 1664 1562 
Q 800 1562 800 960 
Q 800 666 1024 496 
Q 1248 326 1651 326 
z
" id="Montserrat-Regular-61" transform="scale(0.015625)"/>
       <path d="M 1069 2707 
Q 1229 3046 1545 3219 
Q 1862 3392 2330 3392 
L 2330 2950 
L 2221 2957 
Q 1690 2957 1389 2630 
Q 1088 2304 1088 1715 
L 1088 0 
L 634 0 
L 634 3366 
L 1069 3366 
L 1069 2707 
z
" id="Montserrat-Regular-72" transform="scale(0.015625)"/>
      </defs>
      <use xlink:href="#Montserrat-Regular-79"/>
      <use x="54.199997" xlink:href="#Montserrat-Regular-65"/>
      <use x="114.599991" xlink:href="#Montserrat-Regular-61"/>
      <use x="173.599976" xlink:href="#Montserrat-Regular-72"/>
     </g>
    </g>
   </g>
   <g id="matplotlib.axis_2">
    <g id="ytick_1">
     <g id="text_6">
      <!-- 0 -->
      <g style="fill:#262626;" transform="translate(112.855313 344.727087)scale(0.22 -0.22)">
       <use xlink:href="#Montserrat-Regular-30"/>
      </g>
     </g>
    </g>
    <g id="ytick_2">
     <g id="text_7">
      <!-- 20000 -->
      <g style="fill:#262626;" transform="translate(56.665938 274.739406)scale(0.22 -0.22)">
       <use xlink:href="#Montserrat-Regular-32"/>
       <use x="56.799988" xlink:href="#Montserrat-Regular-30"/>
       <use x="122.999985" xlink:href="#Montserrat-Regular-30"/>
       <use x="189.199982" xlink:href="#Montserrat-Regular-30"/>
       <use x="255.399979" xlink:href="#Montserrat-Regular-30"/>
      </g>
     </g>
    </g>
    <g id="ytick_3">
     <g id="text_8">
      <!-- 40000 -->
      <g style="fill:#262626;" transform="translate(54.620625 204.751725)scale(0.22 -0.22)">
       <defs>
        <path d="M 4141 1178 
L 3245 1178 
L 3245 0 
L 2784 0 
L 2784 1178 
L 256 1178 
L 256 1510 
L 2630 4480 
L 3142 4480 
L 851 1587 
L 2797 1587 
L 2797 2624 
L 3245 2624 
L 3245 1587 
L 4141 1587 
L 4141 1178 
z
" id="Montserrat-Regular-34" transform="scale(0.015625)"/>
       </defs>
       <use xlink:href="#Montserrat-Regular-34"/>
       <use x="66.099991" xlink:href="#Montserrat-Regular-30"/>
       <use x="132.299988" xlink:href="#Montserrat-Regular-30"/>
       <use x="198.499985" xlink:href="#Montserrat-Regular-30"/>
       <use x="264.699982" xlink:href="#Montserrat-Regular-30"/>
      </g>
     </g>
    </g>
    <g id="ytick_4">
     <g id="text_9">
      <!-- 60000 -->
      <g style="fill:#262626;" transform="translate(55.761875 134.764044)scale(0.22 -0.22)">
       <defs>
        <path d="M 2189 2682 
Q 2630 2682 2972 2515 
Q 3315 2349 3507 2045 
Q 3699 1741 3699 1338 
Q 3699 928 3500 614 
Q 3302 301 2953 131 
Q 2605 -38 2170 -38 
Q 1280 -38 806 547 
Q 333 1133 333 2202 
Q 333 2950 589 3468 
Q 845 3987 1305 4252 
Q 1766 4518 2381 4518 
Q 3046 4518 3443 4275 
L 3258 3904 
Q 2938 4115 2387 4115 
Q 1645 4115 1222 3644 
Q 800 3174 800 2278 
Q 800 2118 819 1914 
Q 986 2278 1350 2480 
Q 1715 2682 2189 2682 
z
M 2150 352 
Q 2637 352 2941 617 
Q 3245 883 3245 1325 
Q 3245 1766 2941 2028 
Q 2637 2291 2118 2291 
Q 1779 2291 1520 2163 
Q 1261 2035 1113 1811 
Q 966 1587 966 1312 
Q 966 1056 1104 838 
Q 1242 621 1510 486 
Q 1779 352 2150 352 
z
" id="Montserrat-Regular-36" transform="scale(0.015625)"/>
       </defs>
       <use xlink:href="#Montserrat-Regular-36"/>
       <use x="60.899994" xlink:href="#Montserrat-Regular-30"/>
       <use x="127.099991" xlink:href="#Montserrat-Regular-30"/>
       <use x="193.299988" xlink:href="#Montserrat-Regular-30"/>
       <use x="259.499985" xlink:href="#Montserrat-Regular-30"/>
      </g>
     </g>
    </g>
    <g id="ytick_5">
     <g id="text_10">
      <!-- 80000 -->
      <g style="fill:#262626;" transform="translate(55.125938 64.776363)scale(0.22 -0.22)">
       <use xlink:href="#Montserrat-Regular-38"/>
       <use x="63.799988" xlink:href="#Montserrat-Regular-30"/>
       <use x="129.999985" xlink:href="#Montserrat-Regular-30"/>
       <use x="196.199982" xlink:href="#Montserrat-Regular-30"/>
       <use x="262.399979" xlink:href="#Montserrat-Regular-30"/>
      </g>
     </g>
    </g>
    <g id="text_11">
     <!-- GDP per capita ($) -->
     <g style="fill:#262626;" transform="translate(45.963125 297.11)rotate(-90)scale(0.24 -0.24)">
      <defs>
       <path d="M 3885 2240 
L 4339 2240 
L 4339 531 
Q 4026 256 3597 109 
Q 3168 -38 2694 -38 
Q 2022 -38 1484 256 
Q 947 550 640 1072 
Q 333 1594 333 2240 
Q 333 2886 640 3408 
Q 947 3930 1484 4224 
Q 2022 4518 2701 4518 
Q 3213 4518 3641 4355 
Q 4070 4192 4365 3872 
L 4070 3571 
Q 3539 4096 2720 4096 
Q 2176 4096 1737 3856 
Q 1299 3616 1049 3190 
Q 800 2765 800 2240 
Q 800 1715 1049 1292 
Q 1299 870 1734 627 
Q 2170 384 2714 384 
Q 3405 384 3885 730 
L 3885 2240 
z
" id="Montserrat-Regular-47" transform="scale(0.015625)"/>
       <path d="M 730 4480 
L 2554 4480 
Q 3264 4480 3808 4195 
Q 4352 3910 4653 3401 
Q 4954 2893 4954 2240 
Q 4954 1587 4653 1078 
Q 4352 570 3808 285 
Q 3264 0 2554 0 
L 730 0 
L 730 4480 
z
M 2528 410 
Q 3117 410 3558 643 
Q 4000 877 4243 1289 
Q 4486 1702 4486 2240 
Q 4486 2778 4243 3190 
Q 4000 3603 3558 3836 
Q 3117 4070 2528 4070 
L 1203 4070 
L 1203 410 
L 2528 410 
z
" id="Montserrat-Regular-44" transform="scale(0.015625)"/>
       <path d="M 2406 4480 
Q 3264 4480 3750 4070 
Q 4237 3661 4237 2944 
Q 4237 2227 3750 1820 
Q 3264 1414 2406 1414 
L 1203 1414 
L 1203 0 
L 730 0 
L 730 4480 
L 2406 4480 
z
M 2394 1830 
Q 3059 1830 3411 2121 
Q 3763 2413 3763 2944 
Q 3763 3488 3411 3779 
Q 3059 4070 2394 4070 
L 1203 4070 
L 1203 1830 
L 2394 1830 
z
" id="Montserrat-Regular-50" transform="scale(0.015625)"/>
       <path id="Montserrat-Regular-20" transform="scale(0.015625)"/>
       <path d="M 2368 3392 
Q 2842 3392 3226 3177 
Q 3610 2963 3827 2572 
Q 4045 2182 4045 1683 
Q 4045 1178 3827 787 
Q 3610 397 3229 182 
Q 2848 -32 2368 -32 
Q 1958 -32 1628 137 
Q 1299 307 1088 634 
L 1088 -1242 
L 634 -1242 
L 634 3366 
L 1069 3366 
L 1069 2701 
Q 1274 3034 1610 3213 
Q 1946 3392 2368 3392 
z
M 2336 371 
Q 2688 371 2976 534 
Q 3264 698 3427 998 
Q 3590 1299 3590 1683 
Q 3590 2067 3427 2364 
Q 3264 2662 2976 2828 
Q 2688 2995 2336 2995 
Q 1978 2995 1693 2828 
Q 1408 2662 1245 2364 
Q 1082 2067 1082 1683 
Q 1082 1299 1245 998 
Q 1408 698 1693 534 
Q 1978 371 2336 371 
z
" id="Montserrat-Regular-70" transform="scale(0.015625)"/>
       <path d="M 2029 -32 
Q 1530 -32 1136 185 
Q 742 403 518 796 
Q 294 1190 294 1683 
Q 294 2176 518 2566 
Q 742 2957 1136 3174 
Q 1530 3392 2029 3392 
Q 2464 3392 2806 3222 
Q 3149 3053 3347 2726 
L 3008 2496 
Q 2842 2746 2586 2870 
Q 2330 2995 2029 2995 
Q 1664 2995 1373 2832 
Q 1082 2669 918 2368 
Q 755 2067 755 1683 
Q 755 1293 918 995 
Q 1082 698 1373 534 
Q 1664 371 2029 371 
Q 2330 371 2586 492 
Q 2842 614 3008 864 
L 3347 634 
Q 3149 307 2803 137 
Q 2458 -32 2029 -32 
z
" id="Montserrat-Regular-63" transform="scale(0.015625)"/>
       <path d="M 634 3366 
L 1088 3366 
L 1088 0 
L 634 0 
L 634 3366 
z
M 864 4102 
Q 723 4102 627 4198 
Q 531 4294 531 4429 
Q 531 4557 627 4653 
Q 723 4749 864 4749 
Q 1005 4749 1101 4656 
Q 1197 4563 1197 4435 
Q 1197 4294 1101 4198 
Q 1005 4102 864 4102 
z
" id="Montserrat-Regular-69" transform="scale(0.015625)"/>
       <path d="M 2406 205 
Q 2278 90 2089 29 
Q 1901 -32 1696 -32 
Q 1222 -32 966 224 
Q 710 480 710 947 
L 710 2982 
L 109 2982 
L 109 3366 
L 710 3366 
L 710 4102 
L 1165 4102 
L 1165 3366 
L 2189 3366 
L 2189 2982 
L 1165 2982 
L 1165 973 
Q 1165 672 1315 515 
Q 1466 358 1747 358 
Q 1888 358 2019 403 
Q 2150 448 2246 531 
L 2406 205 
z
" id="Montserrat-Regular-74" transform="scale(0.015625)"/>
       <path d="M 1408 -1242 
Q 1050 -653 858 112 
Q 666 877 666 1754 
Q 666 2630 858 3401 
Q 1050 4173 1408 4749 
L 1843 4749 
Q 1466 4102 1290 3360 
Q 1114 2618 1114 1754 
Q 1114 890 1290 147 
Q 1466 -595 1843 -1242 
L 1408 -1242 
z
" id="Montserrat-Regular-28" transform="scale(0.015625)"/>
       <path d="M 3635 1184 
Q 3635 691 3257 348 
Q 2880 6 2150 -32 
L 2150 -768 
L 1830 -768 
L 1830 -38 
Q 1363 -13 950 144 
Q 538 301 301 544 
L 486 909 
Q 710 691 1072 544 
Q 1434 397 1830 371 
L 1830 2054 
Q 1389 2163 1094 2288 
Q 800 2413 605 2653 
Q 410 2893 410 3290 
Q 410 3782 768 4118 
Q 1126 4454 1830 4512 
L 1830 5248 
L 2150 5248 
L 2150 4518 
Q 2515 4506 2857 4400 
Q 3200 4294 3450 4122 
L 3290 3744 
Q 3027 3910 2732 4006 
Q 2438 4102 2150 4115 
L 2150 2419 
Q 2624 2304 2925 2185 
Q 3226 2067 3430 1824 
Q 3635 1581 3635 1184 
z
M 877 3302 
Q 877 2970 1123 2797 
Q 1370 2624 1830 2502 
L 1830 4102 
Q 1357 4064 1117 3843 
Q 877 3622 877 3302 
z
M 2150 371 
Q 2656 410 2912 621 
Q 3168 832 3168 1158 
Q 3168 1504 2905 1677 
Q 2643 1850 2150 1971 
L 2150 371 
z
" id="Montserrat-Regular-24" transform="scale(0.015625)"/>
       <path d="M 256 -1242 
Q 634 -595 813 144 
Q 992 883 992 1754 
Q 992 2624 813 3363 
Q 634 4102 256 4749 
L 691 4749 
Q 1050 4173 1245 3401 
Q 1440 2630 1440 1754 
Q 1440 877 1248 109 
Q 1056 -659 691 -1242 
L 256 -1242 
z
" id="Montserrat-Regular-29" transform="scale(0.015625)"/>
      </defs>
      <use xlink:href="#Montserrat-Regular-47"/>
      <use x="77.299988" xlink:href="#Montserrat-Regular-44"/>
      <use x="159.899979" xlink:href="#Montserrat-Regular-50"/>
      <use x="231.699966" xlink:href="#Montserrat-Regular-20"/>
      <use x="257.899963" xlink:href="#Montserrat-Regular-70"/>
      <use x="325.699951" xlink:href="#Montserrat-Regular-65"/>
      <use x="386.099945" xlink:href="#Montserrat-Regular-72"/>
      <use x="426.199936" xlink:href="#Montserrat-Regular-20"/>
      <use x="452.399933" xlink:href="#Montserrat-Regular-63"/>
      <use x="508.699921" xlink:href="#Montserrat-Regular-61"/>
      <use x="567.699905" xlink:href="#Montserrat-Regular-70"/>
      <use x="635.499893" xlink:href="#Montserrat-Regular-69"/>
      <use x="662.399887" xlink:href="#Montserrat-Regular-74"/>
      <use x="702.999878" xlink:href="#Montserrat-Regular-61"/>
      <use x="761.999863" xlink:href="#Montserrat-Regular-20"/>
      <use x="788.19986" xlink:href="#Montserrat-Regular-28"/>
      <use x="821.099854" xlink:href="#Montserrat-Regular-24"/>
      <use x="882.599838" xlink:href="#Montserrat-Regular-29"/>
     </g>
    </g>
   </g>
   <g id="line2d_1">
    <path clip-path="url(#pf75cb75367)" d="M 157.021017 327.292379 
L 159.072142 327.21175 
L 161.123266 326.969862 
L 163.17439 327.104244 
L 165.225514 326.83548 
L 169.327763 327.104244 
L 173.430011 327.265503 
L 175.481136 326.942986 
L 181.634508 326.727975 
L 183.685632 326.45921 
L 185.736757 327.184874 
L 187.787881 327.426761 
L 189.839005 327.292379 
L 191.890129 327.373009 
L 195.992378 326.889233 
L 198.043502 326.808604 
L 200.094626 327.292379 
L 206.247999 327.292379 
L 208.299123 327.507391 
L 210.350247 327.265503 
L 218.554744 327.561143 
L 220.605869 327.749278 
L 222.656993 328.34056 
L 226.759241 328.233054 
L 228.810366 327.561143 
L 230.86149 327.21175 
L 232.912614 327.507391 
L 237.014862 327.614896 
L 241.117111 327.157997 
L 243.168235 327.319256 
L 245.219359 326.83548 
L 247.270484 327.507391 
L 251.372732 327.373009 
L 253.423856 327.131121 
L 255.474981 326.674222 
L 257.526105 326.727555 
L 259.577229 327.49084 
L 261.628353 327.532833 
L 263.679477 327.063915 
L 265.730602 327.021923 
L 267.781726 327.249383 
L 269.83285 327.193393 
L 271.883974 326.958934 
L 273.935099 326.930939 
L 275.986223 326.780465 
L 278.037347 326.486517 
L 282.139596 326.269555 
L 284.19072 326.423528 
L 288.292968 326.049094 
L 290.344092 325.783141 
L 292.395217 325.839131 
L 294.446341 326.168073 
L 296.497465 326.157575 
L 298.548589 326.0176 
L 300.599714 326.007101 
L 304.701962 325.783141 
L 310.855335 325.513688 
L 312.906459 325.55918 
L 314.957583 325.436702 
L 319.059832 324.957286 
L 327.264329 324.204919 
L 329.315453 323.784993 
L 335.468825 323.1761 
L 337.51995 323.165602 
L 339.571074 323.022127 
L 341.622198 323.00463 
L 343.673322 322.367742 
L 347.775571 323.819986 
L 349.826695 322.770171 
L 351.877819 322.724679 
L 353.928944 323.071118 
L 355.980068 323.613523 
L 358.031192 323.305577 
L 360.082316 323.756998 
L 362.13344 322.819163 
L 364.184565 321.69936 
L 366.235689 321.433406 
L 368.286813 320.537564 
L 370.337937 320.551562 
L 372.389062 320.978487 
L 374.440186 320.142134 
L 376.49131 319.456255 
L 378.542434 320.359096 
L 380.593559 320.684538 
L 382.644683 320.460578 
L 384.695807 320.768524 
L 386.746931 320.936494 
L 388.798055 320.22262 
L 390.84918 320.918997 
L 392.900304 319.491248 
L 394.951428 319.134311 
L 397.002552 318.206974 
L 401.104801 319.183303 
L 403.155925 320.254114 
L 407.258174 325.499691 
L 409.309298 326.657987 
L 411.360422 323.249587 
L 413.411546 320.824514 
L 415.46267 319.718708 
L 421.616043 315.715413 
L 425.718292 312.803925 
L 427.769416 311.747111 
L 429.82054 310.483834 
L 431.871664 309.462014 
L 440.076161 303.565552 
L 446.229534 296.055873 
L 448.280658 294.803094 
L 450.331782 294.183703 
L 452.382907 292.26604 
L 454.434031 289.407044 
L 456.485155 285.778182 
L 458.536279 283.206135 
L 460.587404 282.352285 
L 462.638528 281.683903 
L 464.689652 280.45212 
L 466.740776 277.250183 
L 468.7919 274.951088 
L 470.843025 276.64479 
L 472.894149 273.061421 
L 474.945273 271.479699 
L 476.996397 269.271588 
L 479.047522 265.614732 
L 481.098646 263.221153 
L 485.200894 262.647254 
L 487.252019 261.870391 
L 489.303143 260.040213 
L 493.405391 255.707975 
L 495.456515 253.195418 
L 497.50764 249.979484 
L 499.558764 247.491422 
L 503.661012 243.584839 
L 505.712137 242.219212 
L 507.763261 242.42292 
L 509.814385 239.742882 
L 511.865509 236.250167 
L 513.916634 234.273284 
L 518.018882 229.30992 
L 520.070006 226.892362 
L 522.12113 222.075465 
L 524.172255 219.295368 
L 526.223379 218.355361 
L 528.274503 217.873337 
L 530.325627 215.93353 
L 532.376752 214.53378 
L 534.427876 211.588426 
L 536.479 209.499536 
L 538.530124 210.786595 
L 540.581249 217.39243 
L 542.632373 214.905375 
L 544.683497 213.557894 
L 546.734621 217.347727 
L 548.785745 220.756127 
L 550.83687 221.683464 
L 554.939118 219.618828 
L 556.990242 217.490022 
L 559.041367 216.311321 
L 559.041367 216.311321 
" style="fill:none;stroke:#395684;stroke-linecap:round;stroke-opacity:0.9;stroke-width:1.5;"/>
   </g>
   <g id="line2d_2">
    <path clip-path="url(#pf75cb75367)" d="M 157.021017 326.157575 
L 159.072142 325.643166 
L 161.123266 325.716653 
L 163.17439 325.989605 
L 165.225514 325.828633 
L 167.276639 325.191745 
L 169.327763 324.950287 
L 171.378887 324.929291 
L 173.430011 325.933614 
L 175.481136 325.142754 
L 177.53226 324.607348 
L 179.583384 324.873301 
L 181.634508 324.771819 
L 183.685632 324.806813 
L 187.787881 324.131432 
L 189.839005 324.001954 
L 191.890129 324.008953 
L 195.992378 323.763996 
L 200.094626 324.292403 
L 202.145751 324.176924 
L 206.247999 324.243412 
L 208.299123 324.159427 
L 210.350247 323.959962 
L 212.401372 323.585528 
L 216.50362 323.148105 
L 218.554744 323.302078 
L 220.605869 323.603025 
L 222.656993 322.808664 
L 224.708117 323.183099 
L 226.759241 322.647693 
L 228.810366 322.89265 
L 232.912614 323.739501 
L 234.963738 323.127108 
L 237.014862 323.494544 
L 239.065987 322.983634 
L 241.117111 322.731678 
L 243.168235 322.178775 
L 245.219359 322.157779 
L 247.270484 321.615374 
L 249.321608 322.122785 
L 251.372732 322.035301 
L 255.474981 321.090467 
L 257.526105 321.293431 
L 259.577229 321.118462 
L 261.628353 320.807017 
L 263.679477 321.387915 
L 265.730602 320.523567 
L 267.781726 320.485073 
L 269.83285 320.289108 
L 271.883974 320.338099 
L 273.935099 321.118462 
L 275.986223 320.236617 
L 278.037347 320.138634 
L 280.088471 319.914674 
L 282.139596 318.882356 
L 288.292968 318.51842 
L 290.344092 318.28746 
L 292.395217 318.259465 
L 294.446341 317.846538 
L 296.497465 318.794871 
L 298.548589 318.945344 
L 300.599714 318.609404 
L 302.650838 319.001335 
L 304.701962 318.203475 
L 306.753086 318.325953 
L 308.80421 317.811544 
L 310.855335 317.594582 
L 314.957583 317.545591 
L 317.008707 317.997011 
L 321.110956 316.863211 
L 323.16208 317.164158 
L 325.213204 317.174656 
L 327.264329 316.495776 
L 329.315453 316.373297 
L 331.366577 316.996188 
L 333.417701 316.87021 
L 335.468825 316.086348 
L 337.51995 315.463457 
L 339.571074 315.015536 
L 341.622198 314.71109 
L 343.673322 313.979718 
L 345.724447 314.987541 
L 347.775571 314.665598 
L 349.826695 314.497627 
L 351.877819 316.334804 
L 353.928944 317.867534 
L 355.980068 313.57379 
L 358.031192 313.024387 
L 360.082316 311.848594 
L 362.13344 310.910759 
L 364.184565 310.711294 
L 366.235689 309.259049 
L 368.286813 308.503182 
L 370.337937 306.676504 
L 372.389062 305.864647 
L 374.440186 304.657359 
L 376.49131 304.832329 
L 378.542434 305.311744 
L 380.593559 307.642334 
L 382.644683 308.478687 
L 384.695807 308.919609 
L 386.746931 309.762961 
L 388.798055 309.070083 
L 392.900304 306.260077 
L 394.951428 307.281897 
L 397.002552 305.640686 
L 399.053677 309.615987 
L 401.104801 311.292192 
L 403.155925 313.657775 
L 405.207049 314.357652 
L 407.258174 321.790344 
L 409.309298 321.58388 
L 411.360422 311.705119 
L 413.411546 308.408699 
L 415.46267 305.941633 
L 417.513795 303.765016 
L 419.564919 303.11763 
L 423.667167 302.627717 
L 425.718292 300.069667 
L 427.769416 298.036525 
L 429.82054 295.698936 
L 431.871664 294.736606 
L 433.922789 294.092719 
L 435.973913 294.831089 
L 438.025037 293.40684 
L 440.076161 290.341379 
L 442.127285 290.813796 
L 444.17841 288.378225 
L 446.229534 287.300414 
L 448.280658 283.927008 
L 450.331782 281.911363 
L 452.382907 281.141499 
L 454.434031 278.884396 
L 460.587404 269.813992 
L 462.638528 267.850838 
L 464.689652 266.300611 
L 466.740776 263.599086 
L 468.7919 261.278995 
L 470.843025 261.964874 
L 472.894149 259.116375 
L 474.945273 257.485662 
L 476.996397 256.106905 
L 479.047522 254.864624 
L 481.098646 254.54618 
L 483.14977 255.543504 
L 485.200894 256.848774 
L 487.252019 255.777963 
L 489.303143 253.454372 
L 491.354267 251.316248 
L 493.405391 249.454576 
L 495.456515 248.782694 
L 497.50764 247.071495 
L 499.558764 243.439135 
L 501.609888 240.279191 
L 503.661012 238.138333 
L 505.712137 236.637271 
L 507.763261 235.502547 
L 509.814385 232.536608 
L 511.865509 229.202427 
L 513.916634 225.24325 
L 515.967758 220.386479 
L 518.018882 215.176178 
L 520.070006 209.155401 
L 522.12113 203.938261 
L 524.172255 201.361767 
L 526.223379 201.302619 
L 528.274503 200.774789 
L 530.325627 197.700869 
L 532.376752 194.211586 
L 534.427876 188.588004 
L 536.479 182.561219 
L 538.530124 179.649873 
L 540.581249 185.466565 
L 542.632373 183.248507 
L 544.683497 180.523709 
L 546.734621 182.742318 
L 548.785745 183.487687 
L 550.83687 181.874471 
L 552.887994 179.55088 
L 554.939118 176.99283 
L 556.990242 173.315834 
L 559.041367 170.434602 
L 559.041367 170.434602 
" style="fill:none;stroke:#a6633e;stroke-linecap:round;stroke-opacity:0.9;stroke-width:1.5;"/>
   </g>
   <g id="line2d_3">
    <path clip-path="url(#pf75cb75367)" d="M 157.021017 330.837107 
L 159.072142 330.94663 
L 163.17439 331.306452 
L 165.225514 331.11219 
L 167.276639 331.397783 
L 169.327763 331.349182 
L 171.378887 330.801707 
L 173.430011 330.542243 
L 175.481136 330.955368 
L 179.583384 331.592399 
L 181.634508 331.434842 
L 185.736757 331.556532 
L 187.787881 331.060391 
L 191.890129 330.865818 
L 193.941254 331.305926 
L 195.992378 331.404906 
L 204.196875 330.847039 
L 208.299123 331.631607 
L 210.350247 331.327975 
L 212.401372 331.245091 
L 214.452496 331.421077 
L 224.708117 331.438145 
M 237.014862 331.64111 
L 245.219359 331.595618 
L 249.321608 331.315667 
L 253.423856 331.18619 
L 255.474981 331.1267 
L 257.526105 331.361159 
L 261.628353 331.053213 
L 267.781726 331.364658 
L 269.83285 331.158195 
L 275.986223 331.280673 
L 292.395217 330.328841 
L 294.446341 330.496811 
L 296.497465 330.272851 
L 300.599714 330.500311 
L 302.650838 330.423324 
L 304.701962 330.545803 
L 306.753086 330.33584 
L 308.80421 330.290348 
L 310.855335 329.971904 
L 314.957583 329.597469 
L 317.008707 329.303521 
L 319.059832 329.485489 
L 325.213204 329.429499 
L 327.264329 329.688453 
L 329.315453 329.698952 
L 331.366577 329.597469 
L 335.468825 329.824929 
L 341.622198 329.551977 
L 351.877819 329.803933 
L 353.928944 330.150372 
L 355.980068 330.020895 
L 360.082316 329.37001 
L 362.13344 328.589647 
L 364.184565 328.348189 
L 366.235689 328.750619 
L 368.286813 328.498663 
L 370.337937 328.649136 
L 372.389062 327.371861 
L 374.440186 328.365686 
L 376.49131 327.585324 
L 378.542434 327.802285 
L 380.593559 327.466345 
L 382.644683 327.399856 
L 384.695807 326.902944 
L 386.746931 326.612495 
L 388.798055 327.256382 
L 390.84918 328.068239 
L 392.900304 326.762968 
L 397.002552 326.80846 
L 399.053677 327.557329 
L 401.104801 326.818959 
L 403.155925 327.03592 
L 407.258174 326.007101 
L 409.309298 326.500515 
L 413.411546 325.013276 
L 415.46267 325.153252 
L 419.564919 324.929291 
L 421.616043 324.470872 
L 423.667167 324.509365 
L 425.718292 323.746499 
L 433.922789 321.734354 
L 435.973913 321.660866 
L 438.025037 320.978487 
L 442.127285 319.165806 
L 444.17841 317.990013 
L 446.229534 317.020683 
L 448.280658 315.827393 
L 450.331782 314.298162 
L 452.382907 313.339331 
L 454.434031 311.568643 
L 456.485155 309.385027 
L 458.536279 308.748139 
L 460.587404 306.036117 
L 462.638528 303.817507 
L 464.689652 301.115983 
L 466.740776 297.168677 
L 468.7919 297.252663 
L 470.843025 300.213142 
L 472.894149 298.557933 
L 474.945273 296.594779 
L 476.996397 295.62195 
L 479.047522 293.431335 
L 481.098646 291.695641 
L 483.14977 291.30371 
L 485.200894 290.379872 
L 487.252019 290.519848 
L 489.303143 291.443685 
L 491.354267 290.232898 
L 493.405391 288.364227 
L 495.456515 285.330261 
L 497.50764 281.522931 
L 499.558764 278.709427 
L 503.661012 273.75147 
L 505.712137 271.481351 
L 507.763261 271.756384 
L 509.814385 270.709742 
L 511.865509 269.159501 
L 513.916634 266.789435 
L 515.967758 263.741936 
L 518.018882 260.340744 
L 522.12113 254.776999 
L 524.172255 253.449572 
L 526.223379 252.941853 
L 528.274503 253.708011 
L 530.325627 252.079931 
L 532.376752 251.256934 
L 534.427876 249.748386 
L 536.479 247.410215 
L 538.530124 247.012424 
L 540.581249 249.421483 
L 542.632373 247.459356 
L 544.683497 248.614724 
L 546.734621 251.81666 
L 548.785745 252.313573 
L 550.83687 251.099286 
L 552.887994 249.37759 
L 554.939118 247.869355 
L 556.990242 244.535176 
L 559.041367 241.956795 
L 559.041367 241.956795 
" style="fill:none;stroke:#407e4e;stroke-linecap:round;stroke-opacity:0.9;stroke-width:1.5;"/>
   </g>
   <g id="line2d_4">
    <path clip-path="url(#pf75cb75367)" d="M 157.021017 326.797831 
L 159.072142 326.905802 
L 163.17439 326.42443 
L 169.327763 326.311959 
L 171.378887 326.64937 
L 175.481136 325.277234 
L 179.583384 324.45845 
L 181.634508 325.034298 
L 183.685632 324.597913 
L 185.736757 324.42246 
L 187.787881 324.804859 
L 189.839005 324.91283 
L 191.890129 324.34598 
L 193.941254 324.948821 
L 195.992378 325.182759 
L 198.043502 325.286231 
L 200.094626 325.106279 
L 202.145751 324.480944 
L 204.196875 324.296493 
L 206.247999 324.224512 
L 210.350247 323.572185 
L 212.401372 323.909596 
L 214.452496 323.85561 
L 216.50362 323.342746 
L 218.554744 322.667925 
L 220.605869 321.718676 
L 222.656993 321.678187 
L 224.708117 322.002101 
L 226.759241 321.700681 
L 228.810366 322.020096 
L 230.86149 321.948115 
L 234.963738 321.160824 
L 237.014862 321.475741 
L 239.065987 321.003366 
L 241.117111 320.000132 
L 243.168235 319.455776 
L 245.219359 320.337542 
L 247.270484 320.468008 
L 249.321608 319.937148 
L 251.372732 319.712208 
L 253.423856 319.266826 
L 255.474981 319.757196 
L 257.526105 319.352303 
L 259.577229 319.095871 
L 261.628353 318.659487 
L 263.679477 319.190346 
L 265.730602 318.699976 
L 267.781726 318.893425 
L 269.83285 318.72247 
L 271.883974 318.371563 
L 275.986223 314.673543 
L 278.037347 314.4576 
L 280.088471 313.616323 
L 282.139596 313.611824 
L 284.19072 313.737791 
L 286.241844 314.084199 
L 288.292968 313.917743 
L 290.344092 313.409378 
L 292.395217 314.00322 
L 294.446341 313.09896 
L 296.497465 313.242922 
L 298.548589 312.730058 
L 300.599714 310.935033 
L 302.650838 312.649079 
L 304.701962 313.782779 
L 306.753086 311.510881 
L 308.80421 312.469127 
L 310.855335 310.647109 
L 312.906459 310.575129 
L 314.957583 308.712622 
L 317.008707 308.438195 
L 319.059832 305.873874 
L 321.110956 306.175294 
L 323.16208 305.275533 
L 325.213204 306.247275 
L 327.264329 304.645699 
L 329.315453 301.640496 
L 331.366577 301.743968 
L 333.417701 305.154356 
L 335.468825 302.277365 
L 337.51995 302.841939 
L 339.571074 302.495127 
L 341.622198 301.652904 
L 343.673322 301.193076 
L 345.724447 304.733044 
L 347.775571 304.495769 
L 349.826695 300.79292 
L 351.877819 302.378987 
L 353.928944 299.921623 
L 355.980068 299.996949 
L 358.031192 301.035752 
L 360.082316 302.708621 
L 362.13344 301.536905 
L 364.184565 297.822212 
L 366.235689 297.628101 
L 368.286813 297.547409 
L 370.337937 295.80473 
L 372.389062 296.208454 
L 374.440186 296.493055 
L 376.49131 294.732283 
L 378.542434 299.138893 
L 380.593559 301.812488 
L 382.644683 307.23814 
L 384.695807 308.400915 
L 386.746931 306.23526 
L 388.798055 302.687771 
L 390.84918 299.583209 
L 392.900304 297.038854 
L 394.951428 299.729759 
L 397.002552 297.471556 
L 399.053677 294.554305 
L 401.104801 289.136186 
L 403.155925 284.529388 
L 405.207049 280.398868 
L 407.258174 277.077569 
L 409.309298 278.903461 
L 411.360422 284.69524 
L 413.411546 286.483143 
L 415.46267 285.004006 
L 417.513795 286.885136 
L 419.564919 283.23413 
L 421.616043 280.137175 
L 423.667167 279.020872 
L 425.718292 277.365663 
L 427.769416 278.782914 
L 429.82054 275.780442 
L 433.922789 275.654464 
L 435.973913 277.264181 
L 438.025037 273.925769 
L 440.076161 273.376365 
L 442.127285 272.963438 
L 444.17841 270.160431 
L 446.229534 268.277763 
L 448.280658 265.317284 
L 450.331782 261.712918 
L 452.382907 257.72712 
L 454.434031 256.631813 
L 456.485155 253.660836 
L 458.536279 251.897146 
L 460.587404 252.7265 
L 462.638528 251.200769 
L 464.689652 247.631397 
L 466.740776 243.474129 
L 470.843025 245.734731 
L 472.894149 241.87841 
L 474.945273 238.57849 
L 476.996397 234.081782 
L 479.047522 231.76169 
L 481.098646 232.944482 
L 483.14977 231.387256 
L 485.200894 234.347735 
L 487.252019 231.030319 
L 489.303143 224.3185 
L 491.354267 221.004584 
L 495.456515 215.031135 
L 497.50764 211.066333 
L 499.558764 207.941383 
L 501.609888 207.150522 
L 503.661012 208.963351 
L 505.712137 206.246635 
L 507.763261 204.422629 
L 509.814385 200.763167 
L 511.865509 198.721817 
L 513.916634 195.145007 
L 518.018882 185.836621 
L 520.070006 180.576729 
L 522.12113 175.99036 
L 524.172255 176.01997 
L 526.223379 174.661205 
L 528.274503 171.540807 
L 530.325627 166.870102 
L 532.376752 162.803663 
L 534.427876 159.881332 
L 536.479 158.43999 
L 538.530124 160.630598 
L 540.581249 167.00932 
L 542.632373 164.160884 
L 544.683497 162.73284 
L 546.734621 160.216783 
L 548.785745 158.575572 
L 550.83687 155.772566 
L 552.887994 152.528637 
L 554.939118 151.044898 
L 556.990242 147.570815 
L 559.041367 142.927239 
L 559.041367 142.927239 
" style="fill:none;stroke:#933b3e;stroke-linecap:round;stroke-opacity:0.9;stroke-width:1.5;"/>
   </g>
   <g id="line2d_5">
    <path clip-path="url(#pf75cb75367)" d="M 290.344092 333.373305 
L 296.497465 333.191337 
M 339.571074 333.397801 
L 343.673322 333.11785 
M 376.49131 333.054861 
L 382.644683 332.928883 
L 384.695807 333.334812 
L 386.746931 333.28582 
L 390.84918 332.837899 
L 394.951428 333.054861 
M 419.564919 333.768735 
L 421.616043 333.240328 
L 425.718292 332.515956 
L 427.769416 332.893889 
L 431.871664 332.403975 
L 435.973913 332.459966 
L 440.076161 332.865894 
L 442.127285 333.506281 
L 444.17841 333.324313 
L 450.331782 332.180015 
L 452.382907 332.15202 
L 454.434031 332.236005 
L 456.485155 332.442469 
L 458.536279 332.141522 
L 460.587404 331.672604 
L 462.638528 331.504634 
L 464.689652 331.557125 
L 466.740776 331.270175 
L 468.7919 331.249179 
L 470.843025 330.986725 
L 472.894149 331.249179 
L 474.945273 331.025218 
L 476.996397 330.461817 
L 479.047522 330.059388 
L 481.098646 329.810932 
L 483.14977 329.698952 
L 485.200894 329.118054 
L 487.252019 328.771615 
L 489.303143 328.012249 
L 491.354267 327.399856 
L 493.405391 326.948436 
L 495.456515 326.308048 
L 497.50764 325.909119 
L 501.609888 326.12958 
L 503.661012 325.88702 
L 505.712137 325.269627 
L 507.763261 324.294223 
L 509.814385 323.511466 
L 511.865509 322.568155 
L 513.916634 321.798588 
L 515.967758 321.4795 
L 518.018882 321.482933 
L 520.070006 320.933918 
L 524.172255 319.084813 
L 526.223379 317.867141 
L 528.274503 316.795102 
L 530.325627 315.331911 
L 532.376752 313.375753 
L 536.479 308.934611 
L 538.530124 307.904395 
L 540.581249 306.000981 
L 542.632373 302.766227 
L 544.683497 300.797539 
L 546.734621 299.191321 
L 550.83687 294.7681 
L 554.939118 292.580985 
L 556.990242 292.003827 
L 559.041367 290.716841 
L 559.041367 290.716841 
" style="fill:none;stroke:#615686;stroke-linecap:round;stroke-opacity:0.9;stroke-width:1.5;"/>
   </g>
   <g id="line2d_6">
    <path clip-path="url(#pf75cb75367)" d="M 214.452496 333.250826 
L 216.50362 333.250826 
M 284.19072 333.492284 
L 286.241844 333.4013 
L 288.292968 333.506281 
L 290.344092 333.373305 
L 292.395217 333.352309 
L 294.446341 333.446792 
L 296.497465 333.306817 
L 298.548589 333.614762 
L 300.599714 333.380304 
L 304.701962 333.261325 
L 306.753086 333.34531 
L 308.80421 333.590267 
L 310.855335 333.051362 
L 312.906459 333.051362 
L 314.957583 333.327813 
L 325.213204 332.89039 
L 327.264329 332.977874 
L 329.315453 332.900888 
L 331.366577 333.138846 
L 333.417701 333.110851 
L 335.468825 332.659431 
L 343.673322 332.809904 
L 345.724447 332.610439 
L 347.775571 332.711921 
L 349.826695 332.60344 
L 351.877819 332.676927 
L 353.928944 333.177339 
L 355.980068 332.715421 
L 358.031192 333.023366 
L 360.082316 332.77841 
L 362.13344 332.655931 
L 364.184565 332.820402 
L 366.235689 332.676927 
L 374.440186 332.627936 
L 376.49131 332.505458 
L 382.644683 332.610439 
L 388.798055 332.771411 
L 390.84918 332.676927 
L 394.951428 332.837899 
L 407.258174 332.753914 
L 409.309298 332.862395 
L 411.360422 333.096854 
L 419.564919 333.110851 
L 423.667167 333.054861 
L 427.769416 332.816903 
L 429.82054 332.792407 
L 431.871664 332.655931 
L 433.922789 332.771411 
L 435.973913 332.571946 
L 438.025037 332.564947 
L 440.076161 332.365482 
L 446.229534 332.218508 
L 448.280658 331.984049 
L 450.331782 332.264 
L 452.382907 332.312992 
L 454.434031 332.064535 
L 456.485155 332.050538 
L 460.587404 331.721596 
L 464.689652 331.914062 
L 466.740776 331.805581 
L 468.7919 331.861571 
L 470.843025 331.560624 
L 472.894149 331.606116 
L 476.996397 331.175692 
L 479.047522 331.571122 
L 483.14977 331.116202 
L 485.200894 331.07071 
L 487.252019 330.745267 
L 495.456515 330.290348 
L 497.50764 329.782937 
L 501.609888 329.261529 
L 503.661012 329.347928 
L 507.763261 328.948587 
L 511.865509 328.320323 
L 513.916634 327.90178 
L 515.967758 327.767216 
L 520.070006 327.089319 
L 522.12113 326.93064 
L 524.172255 326.633997 
L 526.223379 326.518279 
L 532.376752 324.678565 
L 536.479 323.019681 
L 538.530124 322.459935 
L 544.683497 319.87968 
L 546.734621 319.305781 
L 548.785745 318.465929 
L 550.83687 317.465105 
L 559.041367 312.746191 
L 559.041367 312.746191 
" style="fill:none;stroke:#6e5a48;stroke-linecap:round;stroke-opacity:0.9;stroke-width:1.5;"/>
   </g>
   <g id="line2d_7">
    <path clip-path="url(#pf75cb75367)" d="M 440.076161 317.118666 
L 442.127285 316.009361 
L 444.17841 314.76708 
L 446.229534 314.151188 
L 450.331782 311.831097 
L 456.485155 307.201412 
L 458.536279 306.599518 
L 460.587404 304.251431 
L 462.638528 303.086136 
L 464.689652 302.32327 
L 466.740776 299.849206 
L 468.7919 298.767896 
L 470.843025 297.49762 
L 474.945273 295.649945 
L 476.996397 295.170529 
L 479.047522 295.037553 
L 481.098646 293.85826 
L 483.14977 293.613303 
L 485.200894 293.637799 
L 487.252019 293.102393 
L 489.303143 293.245868 
L 491.354267 292.909927 
L 493.405391 292.143562 
L 495.456515 292.483002 
L 497.50764 292.052578 
L 499.558764 291.891606 
L 503.661012 294.529318 
L 505.712137 299.864786 
L 507.763261 302.309039 
L 509.814385 305.967015 
L 511.865509 306.517899 
L 513.916634 306.892133 
L 515.967758 305.723447 
L 518.018882 306.618781 
L 520.070006 303.880393 
L 522.12113 299.636147 
L 526.223379 293.664125 
L 528.274503 289.248735 
L 532.376752 279.723896 
L 534.427876 273.546659 
L 536.479 266.513643 
L 538.530124 261.105908 
L 540.581249 265.402817 
L 544.683497 255.62399 
L 546.734621 252.820983 
L 548.785745 251.795664 
L 550.83687 251.225264 
L 552.887994 253.660836 
L 554.939118 253.856801 
L 556.990242 252.430333 
L 559.041367 250.23876 
L 559.041367 250.23876 
" style="fill:none;stroke:#a36892;stroke-linecap:round;stroke-opacity:0.9;stroke-width:1.5;"/>
   </g>
   <g id="line2d_8">
    <path clip-path="url(#pf75cb75367)" d="M 206.247999 331.540432 
L 214.452496 331.539628 
M 255.474981 331.035716 
L 263.679477 330.939518 
M 286.241844 330.515426 
L 288.292968 330.154284 
L 290.344092 330.099528 
L 292.395217 330.533315 
L 294.446341 330.424956 
L 296.497465 330.078371 
L 298.548589 330.441741 
L 300.599714 330.119921 
L 302.650838 330.152318 
L 304.701962 329.50852 
L 306.753086 329.489599 
L 308.80421 329.900365 
L 310.855335 329.900128 
L 312.906459 328.751128 
L 314.957583 329.200089 
L 319.059832 329.000773 
L 321.110956 329.521298 
L 323.16208 328.85255 
L 325.213204 328.939617 
L 327.264329 329.176665 
L 329.315453 328.414757 
L 333.417701 328.316983 
L 337.51995 328.456755 
L 339.571074 328.16701 
L 343.673322 328.059053 
L 345.724447 328.313882 
L 347.775571 327.774064 
L 349.826695 326.663981 
L 351.877819 326.274364 
L 353.928944 326.159367 
L 355.980068 325.299157 
L 358.031192 326.157707 
L 360.082316 325.211509 
L 364.184565 325.214317 
L 368.286813 324.616607 
L 370.337937 324.811924 
L 372.389062 324.852682 
L 374.440186 324.127527 
L 376.49131 323.739197 
L 378.542434 324.897418 
L 380.593559 324.943951 
L 382.644683 324.214409 
L 384.695807 323.31327 
L 386.746931 323.422149 
L 388.798055 323.178539 
L 390.84918 322.617788 
L 392.900304 322.305025 
L 394.951428 321.668421 
L 397.002552 319.754462 
L 401.104801 319.115974 
L 403.155925 319.282895 
L 405.207049 319.67794 
L 407.258174 319.711325 
L 409.309298 323.695163 
L 411.360422 326.866655 
L 413.411546 327.078088 
L 415.46267 326.566198 
L 417.513795 326.532814 
L 419.564919 325.849629 
L 423.667167 323.533037 
L 425.718292 322.763172 
L 427.769416 322.161278 
L 433.922789 319.071322 
L 435.973913 318.217473 
L 438.025037 316.740732 
L 442.127285 311.876589 
L 446.229534 307.953779 
L 448.280658 304.947808 
L 450.331782 303.464069 
L 452.382907 300.276131 
L 454.434031 296.671765 
L 456.485155 292.035081 
L 460.587404 282.380281 
L 462.638528 280.560601 
L 466.740776 272.784969 
L 468.7919 274.398185 
L 470.843025 273.288881 
L 472.894149 271.4762 
L 474.945273 269.271588 
L 476.996397 266.367099 
L 479.047522 263.140667 
L 481.098646 261.663927 
L 485.200894 258.038565 
L 487.252019 256.76129 
L 489.303143 254.161248 
L 491.354267 251.050295 
L 493.405391 249.108137 
L 495.456515 245.916699 
L 497.50764 240.706116 
L 499.558764 236.47886 
L 501.609888 231.76169 
L 503.661012 228.65273 
L 505.712137 228.161473 
L 507.763261 228.361481 
L 509.814385 227.609926 
L 511.865509 224.978912 
L 513.916634 221.840383 
L 515.967758 220.951068 
L 518.018882 222.631144 
L 520.070006 223.203892 
L 522.12113 220.347372 
L 524.172255 220.222849 
L 526.223379 220.401288 
L 528.274503 218.915633 
L 530.325627 216.488429 
L 532.376752 214.584068 
L 534.427876 212.920611 
L 536.479 210.962357 
L 538.530124 212.349811 
L 540.581249 219.020395 
L 542.632373 214.0464 
L 544.683497 214.159788 
L 546.734621 212.056659 
L 548.785745 209.348135 
L 550.83687 208.707748 
L 552.887994 206.979052 
L 554.939118 205.46032 
L 556.990242 202.136389 
L 559.041367 201.230236 
L 559.041367 201.230236 
" style="fill:none;stroke:#696969;stroke-linecap:round;stroke-opacity:0.9;stroke-width:1.5;"/>
   </g>
   <g id="line2d_9">
    <path clip-path="url(#pf75cb75367)" d="M 339.571074 332.68897 
L 341.622198 332.748882 
L 345.724447 332.175109 
L 347.775571 332.151105 
L 353.928944 331.571016 
L 355.980068 331.79455 
L 360.082316 331.407074 
L 364.184565 331.296412 
L 366.235689 331.588097 
L 370.337937 331.212282 
L 372.389062 330.924717 
L 374.440186 331.340383 
L 376.49131 331.33014 
L 378.542434 330.835517 
L 382.644683 330.892436 
L 386.746931 330.709213 
L 388.798055 330.407237 
L 390.84918 330.640683 
L 392.900304 329.545857 
L 394.951428 329.793098 
L 397.002552 330.928176 
L 399.053677 329.652633 
L 401.104801 329.190675 
L 403.155925 330.80573 
L 405.207049 330.664996 
L 411.360422 333.360129 
L 413.411546 333.284901 
L 415.46267 332.71937 
L 417.513795 332.404043 
L 419.564919 333.072047 
L 421.616043 333.097658 
L 423.667167 332.932239 
L 425.718292 331.957135 
L 429.82054 331.625945 
L 431.871664 331.728655 
L 433.922789 331.43196 
L 438.025037 331.120656 
L 440.076161 331.148775 
L 442.127285 330.945269 
L 444.17841 330.894026 
L 450.331782 329.854925 
L 452.382907 329.237425 
L 454.434031 328.753931 
L 456.485155 327.926571 
L 458.536279 326.891909 
L 460.587404 326.15475 
L 462.638528 325.290867 
L 464.689652 324.709213 
L 466.740776 323.189937 
L 468.7919 322.173172 
L 470.843025 321.300406 
L 476.996397 316.070613 
L 479.047522 314.638001 
L 481.098646 315.344338 
L 483.14977 314.172706 
L 485.200894 312.693783 
L 487.252019 309.928362 
L 489.303143 307.507541 
L 491.354267 305.562456 
L 493.405391 302.424033 
L 497.50764 294.432349 
L 499.558764 291.914389 
L 503.661012 283.877456 
L 505.712137 281.582413 
L 507.763261 278.81289 
L 509.814385 274.554274 
L 511.865509 269.763954 
L 513.916634 265.861223 
L 515.967758 262.881901 
L 518.018882 267.89041 
L 520.070006 261.185587 
L 522.12113 255.700915 
L 524.172255 253.263874 
L 526.223379 248.203065 
L 528.274503 246.703197 
L 530.325627 243.318395 
L 532.376752 240.530155 
L 534.427876 236.774615 
L 536.479 232.575051 
L 538.530124 231.171244 
L 540.581249 231.696731 
L 542.632373 226.201964 
L 544.683497 223.797092 
L 546.734621 221.816441 
L 548.785745 219.027432 
L 550.83687 215.860489 
L 552.887994 213.144967 
L 554.939118 210.226481 
L 556.990242 206.761333 
L 559.041367 203.841471 
L 559.041367 203.841471 
" style="fill:none;stroke:#998b57;stroke-linecap:round;stroke-opacity:0.9;stroke-width:1.5;"/>
   </g>
   <g id="line2d_10">
    <path clip-path="url(#pf75cb75367)" d="M 339.571074 332.807132 
L 341.622198 332.470011 
L 343.673322 332.307883 
L 345.724447 332.298119 
L 347.775571 332.063493 
L 349.826695 331.716481 
L 351.877819 331.988351 
L 353.928944 331.727507 
L 355.980068 332.706158 
L 358.031192 331.421276 
L 362.13344 331.548422 
L 364.184565 331.479682 
L 366.235689 331.655362 
L 370.337937 331.4525 
L 372.389062 330.987081 
L 374.440186 331.102128 
L 376.49131 330.979068 
L 380.593559 330.156272 
L 382.644683 330.135696 
L 384.695807 329.931824 
L 386.746931 330.290249 
L 388.798055 329.579395 
L 390.84918 329.139313 
L 392.900304 327.922392 
L 394.951428 327.616562 
L 397.002552 327.836097 
L 399.053677 327.383302 
L 401.104801 327.392706 
L 403.155925 328.167474 
L 405.207049 327.949243 
M 501.609888 327.970891 
L 503.661012 328.460314 
L 505.712137 329.144138 
L 507.763261 329.578946 
L 509.814385 329.825083 
L 515.967758 330.948583 
L 518.018882 331.035958 
L 520.070006 330.739521 
L 522.12113 330.765758 
L 524.172255 330.600487 
L 530.325627 330.427902 
L 532.376752 330.23764 
L 536.479 330.451573 
L 538.530124 330.284548 
L 542.632373 330.435795 
L 552.887994 330.39702 
L 554.939118 330.468738 
L 559.041367 330.978496 
L 559.041367 330.978496 
" style="fill:none;stroke:#4b889a;stroke-linecap:round;stroke-opacity:0.9;stroke-width:1.5;"/>
   </g>
   <g id="line2d_11">
    <path clip-path="url(#pf75cb75367)" d="M 321.110956 330.685778 
L 327.264329 329.961405 
L 329.315453 329.870421 
L 331.366577 329.324518 
L 333.417701 330.139874 
L 335.468825 329.324518 
L 337.51995 329.324518 
L 339.571074 329.961405 
L 341.622198 329.775938 
L 343.673322 329.146049 
L 345.724447 328.960582 
L 347.775571 329.055065 
L 349.826695 328.694628 
L 353.928944 328.509161 
L 355.980068 328.243208 
L 358.031192 328.243208 
L 360.082316 328.509161 
L 364.184565 328.694628 
L 366.235689 328.421676 
L 368.286813 327.60632 
L 370.337937 328.05774 
L 372.389062 328.148724 
L 374.440186 328.603644 
L 376.49131 327.791787 
L 378.542434 328.243208 
L 380.593559 330.412826 
L 382.644683 330.864247 
L 384.695807 331.137198 
L 392.900304 329.419001 
L 394.951428 329.324518 
L 397.002552 329.419001 
L 399.053677 329.324518 
L 401.104801 328.873097 
L 403.155925 328.873097 
L 405.207049 329.324518 
L 407.258174 328.603644 
L 409.309298 328.603644 
L 413.411546 327.60632 
L 417.513795 327.879272 
L 419.564919 327.333368 
L 421.616043 327.242384 
L 423.667167 326.612495 
L 425.718292 327.427851 
L 429.82054 327.333368 
L 431.871664 326.976431 
L 433.922789 326.339543 
L 435.973913 326.339543 
L 438.025037 326.045595 
L 440.076161 326.087587 
L 442.127285 325.828633 
L 444.17841 326.157575 
L 446.229534 326.213565 
L 448.280658 325.513688 
L 450.331782 325.758645 
L 452.382907 325.419205 
L 454.434031 324.355392 
L 456.485155 325.265232 
L 458.536279 325.587175 
L 460.587404 326.150576 
L 462.638528 325.50319 
L 464.689652 325.181247 
L 466.740776 324.36589 
L 470.843025 323.501542 
L 472.894149 323.316075 
L 474.945273 322.871653 
L 476.996397 322.168277 
L 479.047522 321.92682 
L 481.098646 322.196272 
L 483.14977 321.097466 
L 485.200894 320.863007 
L 487.252019 320.100141 
L 489.303143 318.889354 
L 491.354267 318.647897 
L 493.405391 318.805369 
L 495.456515 319.463253 
L 497.50764 319.088819 
L 499.558764 319.099317 
L 501.609888 320.072146 
L 503.661012 322.629266 
L 505.712137 324.666961 
L 507.763261 327.265249 
L 509.814385 327.175551 
L 511.865509 326.553855 
L 513.916634 325.193021 
L 515.967758 324.577387 
L 518.018882 324.612439 
L 520.070006 323.884391 
L 522.12113 322.534523 
L 524.172255 321.757716 
L 528.274503 320.794154 
L 530.325627 320.603994 
L 532.376752 320.069674 
L 534.427876 317.611585 
L 536.479 316.843306 
L 538.530124 315.551313 
L 540.581249 314.699526 
L 544.683497 312.32101 
L 548.785745 310.742788 
L 552.887994 308.958102 
L 556.990242 308.073656 
L 559.041367 307.430162 
L 559.041367 307.430162 
" style="fill:none;stroke:#395684;stroke-linecap:round;stroke-opacity:0.9;stroke-width:1.5;"/>
   </g>
   <g id="line2d_12">
    <path clip-path="url(#pf75cb75367)" d="M 173.430011 329.838927 
L 175.481136 329.926412 
L 177.53226 329.069062 
L 181.634508 328.883595 
L 183.685632 329.030569 
L 185.736757 329.558976 
L 187.787881 329.971904 
L 189.839005 330.640286 
L 191.890129 331.049714 
L 193.941254 331.249179 
L 198.043502 329.971904 
L 200.094626 330.440821 
L 204.196875 330.374333 
L 206.247999 330.307844 
L 208.299123 330.573798 
L 210.350247 330.573798 
L 212.401372 331.049714 
L 214.452496 329.971904 
L 216.50362 330.237857 
L 218.554744 329.971904 
L 220.605869 329.565975 
L 222.656993 329.429499 
L 224.708117 329.163546 
L 226.759241 330.84325 
L 228.810366 329.971904 
L 230.86149 330.10488 
L 232.912614 330.038392 
L 234.963738 329.632463 
L 237.014862 329.097058 
L 239.065987 329.971904 
L 241.117111 330.507309 
L 243.168235 330.640286 
L 245.219359 330.307844 
L 247.270484 330.374333 
L 249.321608 330.979726 
L 251.372732 330.913238 
L 253.423856 330.307844 
L 259.577229 330.440821 
L 261.628353 329.971904 
L 263.679477 329.296522 
L 265.730602 330.10488 
L 267.781726 329.831928 
L 269.83285 329.76544 
L 271.883974 329.296522 
L 273.935099 329.429499 
L 275.986223 329.030569 
L 278.037347 329.030569 
L 280.088471 329.163546 
L 282.139596 328.827605 
L 284.19072 328.355188 
L 286.241844 328.960582 
L 288.292968 328.488165 
L 290.344092 328.218712 
L 292.395217 328.218712 
L 294.446341 327.886271 
L 296.497465 327.21089 
L 298.548589 327.746295 
L 300.599714 328.621141 
L 302.650838 328.621141 
L 304.701962 328.754118 
L 306.753086 328.085736 
L 308.80421 329.097058 
L 310.855335 328.894093 
L 312.906459 329.097058 
L 314.957583 330.237857 
L 317.008707 330.10488 
L 319.059832 330.374333 
L 321.110956 330.773263 
L 323.16208 330.374333 
L 327.264329 330.237857 
L 329.315453 330.307844 
L 333.417701 330.640286 
L 337.51995 330.706774 
L 339.571074 330.979726 
L 341.622198 330.573798 
L 343.673322 330.440821 
L 345.724447 329.495987 
L 347.775571 329.495987 
L 349.826695 329.971904 
L 353.928944 329.429499 
L 358.031192 329.905415 
L 360.082316 330.10488 
L 362.13344 329.565975 
L 368.286813 328.554653 
L 370.337937 328.085736 
L 372.389062 327.952759 
L 374.440186 326.535508 
L 376.49131 326.269555 
L 380.593559 326.402532 
L 382.644683 327.343866 
L 384.695807 326.336044 
L 386.746931 325.933614 
L 388.798055 323.91447 
L 390.84918 322.903148 
L 392.900304 322.969636 
L 394.951428 321.555885 
L 399.053677 319.876181 
L 401.104801 320.345098 
L 403.155925 322.563708 
L 405.207049 321.086967 
L 407.258174 319.876181 
L 409.309298 316.240321 
L 411.360422 313.276342 
L 413.411546 313.818747 
L 415.46267 309.577493 
L 417.513795 309.171565 
L 419.564919 306.952955 
L 421.616043 304.933811 
L 423.667167 303.988977 
L 425.718292 303.320595 
L 429.82054 299.817711 
L 431.871664 297.595602 
L 433.922789 294.841587 
L 435.973913 295.919397 
L 438.025037 294.299183 
L 440.076161 294.166206 
L 442.127285 293.763777 
L 444.17841 291.604657 
L 446.229534 290.260893 
L 448.280658 287.506878 
L 450.331782 286.35908 
L 452.382907 286.964474 
L 454.434031 286.69852 
L 456.485155 285.753687 
L 458.536279 285.28127 
L 460.587404 283.06266 
L 462.638528 283.402101 
L 464.689652 283.601566 
L 470.843025 279.227335 
L 472.894149 276.466321 
L 474.945273 274.650141 
L 476.996397 275.392011 
L 479.047522 276.602797 
L 481.098646 279.629765 
L 483.14977 281.449444 
L 485.200894 282.593743 
L 487.252019 287.030962 
L 489.303143 288.983618 
L 491.354267 290.127917 
L 493.405391 288.444713 
L 495.456515 288.042284 
L 497.50764 286.495556 
L 499.558764 291.947596 
L 501.609888 290.194405 
L 503.661012 286.612696 
L 505.712137 284.418265 
L 507.763261 285.145137 
L 509.814385 287.120973 
L 511.865509 286.004655 
L 513.916634 286.832164 
L 515.967758 284.443739 
L 518.018882 284.987144 
L 520.070006 288.729967 
L 524.172255 286.530421 
L 526.223379 291.57649 
L 528.274503 295.523327 
L 530.325627 288.577531 
L 532.376752 284.26876 
L 534.427876 279.686854 
L 536.479 275.724154 
L 538.530124 273.509026 
L 540.581249 276.225057 
L 542.632373 276.705752 
L 544.683497 274.464674 
L 546.734621 271.654668 
L 548.785745 261.576442 
L 550.83687 265.467757 
L 552.887994 270.769324 
L 554.939118 283.307617 
L 556.990242 291.495704 
L 559.041367 299.086513 
L 559.041367 299.086513 
" style="fill:none;stroke:#a6633e;stroke-linecap:round;stroke-opacity:0.9;stroke-width:1.5;"/>
   </g>
   <g id="line2d_13">
    <path clip-path="url(#pf75cb75367)" d="M 319.059832 332.788908 
L 321.110956 332.788908 
L 323.16208 332.09253 
L 325.213204 332.302493 
L 327.264329 333.11785 
L 329.315453 332.932382 
L 331.366577 332.543951 
L 333.417701 332.414474 
L 335.468825 331.935058 
L 337.51995 331.858072 
L 341.622198 332.424972 
L 343.673322 332.064535 
L 345.724447 332.225507 
L 347.775571 332.047038 
L 349.826695 331.693601 
L 351.877819 331.102205 
L 353.928944 331.343662 
L 355.980068 331.200187 
L 358.031192 331.270175 
L 360.082316 331.102205 
L 362.13344 330.517807 
L 364.184565 330.405827 
L 366.235689 329.954407 
L 368.286813 329.70945 
L 374.440186 329.796934 
L 378.542434 329.492488 
L 380.593559 329.576473 
L 382.644683 329.335016 
L 384.695807 329.716449 
L 386.746931 329.523982 
L 388.798055 328.974579 
L 390.84918 328.705127 
L 392.900304 328.824106 
L 394.951428 328.533657 
L 397.002552 328.866098 
L 399.053677 329.59397 
M 419.564919 331.455642 
L 421.616043 331.270175 
L 423.667167 330.829253 
L 429.82054 329.93341 
L 431.871664 329.824929 
L 438.025037 329.153048 
L 440.076161 329.016572 
L 444.17841 328.425176 
L 446.229534 327.94576 
L 450.331782 326.46902 
L 452.382907 325.877624 
L 454.434031 325.016776 
L 456.485155 324.372889 
L 458.536279 323.547034 
L 460.587404 322.413234 
L 462.638528 320.922496 
L 464.689652 319.200799 
L 466.740776 317.332128 
L 468.7919 317.475603 
L 470.843025 316.919201 
L 472.894149 314.71109 
L 474.945273 312.936902 
L 476.996397 310.252874 
L 481.098646 307.225907 
L 483.14977 305.948632 
L 485.200894 305.385231 
L 487.252019 303.215613 
L 489.303143 300.192145 
L 491.354267 298.844882 
L 493.405391 294.859084 
L 495.456515 288.605685 
L 497.50764 286.932979 
L 499.558764 283.363607 
L 501.609888 281.131 
L 503.661012 277.303324 
L 505.712137 273.221231 
L 507.763261 269.769908 
L 509.814385 265.634796 
L 515.967758 254.546992 
L 518.018882 252.120337 
L 522.12113 242.825183 
L 524.172255 244.866968 
L 526.223379 240.591315 
L 528.274503 237.361221 
L 530.325627 231.670224 
L 532.376752 226.773478 
L 534.427876 221.549203 
L 536.479 214.921565 
L 538.530124 214.917869 
L 540.581249 217.67508 
L 542.632373 205.738558 
L 544.683497 201.610997 
L 546.734621 199.364393 
L 548.785745 196.690863 
L 550.83687 191.438288 
L 552.887994 190.752409 
L 554.939118 189.013215 
L 556.990242 184.328265 
L 559.041367 180.268729 
L 559.041367 180.268729 
" style="fill:none;stroke:#407e4e;stroke-linecap:round;stroke-opacity:0.9;stroke-width:1.5;"/>
   </g>
   <g id="line2d_14">
    <path clip-path="url(#pf75cb75367)" d="M 173.430011 331.522131 
L 175.481136 331.823078 
L 177.53226 331.690101 
L 179.583384 331.287672 
L 181.634508 331.221184 
L 187.787881 331.445144 
L 191.890129 331.333164 
L 193.941254 330.941233 
L 198.043502 331.035716 
L 200.094626 331.24218 
L 204.196875 330.857248 
L 206.247999 330.89924 
L 208.299123 330.720772 
L 210.350247 331.200187 
L 212.401372 331.109203 
L 216.50362 330.745267 
L 218.554744 330.664782 
L 222.656993 330.059388 
L 224.708117 329.926412 
L 226.759241 330.055889 
L 228.810366 330.395329 
L 230.86149 330.038392 
L 232.912614 330.206362 
L 234.963738 329.961405 
L 237.014862 329.9894 
L 239.065987 329.541479 
L 241.117111 329.70945 
L 243.168235 329.614966 
L 245.219359 329.296522 
L 247.270484 329.65346 
L 249.321608 329.597469 
L 251.372732 329.65346 
L 257.526105 328.600145 
L 261.628353 328.092734 
L 263.679477 328.348189 
L 267.781726 327.896769 
L 269.83285 327.991252 
L 271.883974 328.386683 
L 275.986223 327.805785 
L 278.037347 328.029745 
L 280.088471 327.7183 
L 282.139596 327.529334 
L 284.19072 327.753294 
L 286.241844 327.819782 
L 290.344092 327.571326 
L 292.395217 327.144401 
L 294.446341 326.853952 
L 300.599714 326.948436 
L 302.650838 326.69648 
L 306.753086 325.884623 
L 308.80421 325.709654 
L 310.855335 325.303725 
L 312.906459 325.135755 
L 317.008707 325.195244 
L 323.16208 325.05177 
L 325.213204 325.058768 
L 327.264329 324.939789 
L 329.315453 324.330896 
L 331.366577 324.187422 
L 333.417701 323.924968 
L 335.468825 323.819986 
L 337.51995 323.1761 
L 341.622198 322.392238 
L 343.673322 321.114963 
L 345.724447 321.391414 
L 347.775571 321.142958 
L 349.826695 319.757202 
L 351.877819 321.566383 
L 353.928944 322.486721 
L 355.980068 320.45008 
L 358.031192 319.981162 
L 360.082316 321.790344 
L 362.13344 320.572558 
L 364.184565 319.522743 
L 368.286813 320.002158 
L 370.337937 319.942669 
L 374.440186 318.224471 
L 376.49131 317.034681 
L 378.542434 316.334804 
L 380.593559 318.028506 
L 382.644683 317.227147 
L 384.695807 316.852713 
L 386.746931 316.271815 
L 388.798055 315.368974 
L 390.84918 314.056705 
L 392.900304 313.17486 
L 394.951428 312.789928 
L 397.002552 311.792603 
L 399.053677 314.039208 
L 401.104801 313.62978 
L 403.155925 314.6551 
L 405.207049 315.256994 
L 407.258174 316.551766 
L 409.309298 314.364651 
L 411.360422 312.383999 
L 413.411546 309.434019 
L 415.46267 307.873293 
L 417.513795 307.407875 
L 419.564919 306.277574 
L 421.616043 304.93731 
L 423.667167 304.135951 
L 425.718292 303.180619 
L 427.769416 301.840355 
L 429.82054 301.41693 
L 431.871664 299.891198 
L 433.922789 299.131832 
L 435.973913 299.460774 
L 438.025037 298.221992 
L 440.076161 296.381316 
L 442.127285 294.2012 
L 444.17841 293.357848 
L 446.229534 292.04208 
L 448.280658 290.176908 
L 450.331782 288.091275 
L 452.382907 286.670525 
L 454.434031 284.003995 
L 456.485155 283.29012 
L 458.536279 281.347962 
L 460.587404 280.634088 
L 464.689652 275.643966 
L 468.7919 271.157756 
L 470.843025 268.116791 
L 472.894149 264.442438 
L 474.945273 261.681424 
L 476.996397 259.364832 
L 479.047522 256.180392 
L 481.098646 252.471045 
L 483.14977 251.953136 
L 485.200894 252.086113 
L 487.252019 249.346095 
L 489.303143 244.457456 
L 491.354267 239.953748 
L 493.405391 236.8183 
L 495.456515 235.247077 
L 497.50764 235.831474 
L 499.558764 235.28557 
L 501.609888 233.563873 
L 503.661012 227.637053 
L 505.712137 220.940876 
L 507.763261 214.717882 
L 511.865509 196.436114 
L 513.916634 185.625309 
L 515.967758 173.645742 
L 518.018882 165.246345 
L 520.070006 157.644096 
L 522.12113 147.458167 
L 524.172255 138.575273 
L 526.223379 130.659536 
L 528.274503 123.619317 
L 530.325627 109.720166 
L 534.427876 87.021816 
L 536.479 74.531535 
L 538.530124 68.784655 
L 540.581249 68.422222 
L 542.632373 61.946572 
L 544.683497 54.433903 
L 546.734621 50.458603 
L 548.785745 51.074494 
L 550.83687 48.859384 
L 552.887994 47.12019 
L 554.939118 46.766752 
L 556.990242 42.41935 
L 559.041367 40.586364 
L 559.041367 40.586364 
" style="fill:none;stroke:#933b3e;stroke-linecap:round;stroke-opacity:0.9;stroke-width:1.5;"/>
   </g>
   <g id="line2d_15">
    <path clip-path="url(#pf75cb75367)" d="M 317.008707 328.845102 
L 319.059832 328.064739 
L 321.110956 328.526658 
L 323.16208 329.65346 
L 325.213204 329.88092 
L 327.264329 329.167045 
L 329.315453 328.253706 
L 331.366577 328.985077 
L 333.417701 327.858276 
L 335.468825 327.763792 
L 337.51995 327.004426 
L 339.571074 328.00175 
L 341.622198 329.237033 
L 343.673322 330.223859 
L 345.724447 328.985077 
L 347.775571 328.834604 
L 349.826695 330.171368 
L 351.877819 327.711301 
L 353.928944 329.642961 
L 355.980068 328.712125 
L 358.031192 329.803933 
L 360.082316 328.929087 
L 362.13344 326.47252 
L 364.184565 326.234561 
L 366.235689 326.458522 
L 368.286813 325.174248 
L 370.337937 327.165398 
L 372.389062 329.614966 
L 374.440186 328.302697 
L 376.49131 324.93629 
L 378.542434 325.895121 
L 380.593559 328.705127 
L 382.644683 329.726947 
L 384.695807 326.885447 
L 386.746931 325.146253 
L 388.798055 323.701007 
L 390.84918 323.784993 
L 392.900304 322.682687 
L 394.951428 324.796315 
L 397.002552 322.875153 
M 419.564919 324.064943 
L 421.616043 324.778818 
L 423.667167 328.369186 
L 425.718292 326.787464 
L 427.769416 325.359715 
L 429.82054 326.255558 
L 431.871664 325.223239 
L 433.922789 326.507513 
L 435.973913 326.486517 
L 438.025037 325.230238 
L 440.076161 324.442877 
L 444.17841 323.354568 
L 446.229534 322.395737 
L 448.280658 323.267084 
L 450.331782 322.598701 
L 452.382907 321.457902 
L 454.434031 319.974163 
L 456.485155 318.039004 
L 458.536279 315.809896 
L 460.587404 313.293839 
L 462.638528 310.956251 
L 464.689652 308.027266 
L 466.740776 305.441221 
L 468.7919 303.97148 
L 470.843025 302.963657 
L 474.945273 298.806389 
L 476.996397 296.013881 
L 479.047522 292.748955 
L 481.098646 288.969621 
L 483.14977 286.401073 
L 485.200894 285.16929 
L 489.303143 277.890571 
L 491.354267 278.436475 
L 493.405391 277.66661 
L 497.50764 267.091472 
L 501.609888 257.247704 
L 503.661012 253.850913 
L 505.712137 249.865504 
L 509.814385 233.491742 
L 511.865509 228.233306 
L 513.916634 222.049193 
L 515.967758 214.547989 
L 518.018882 219.018746 
L 520.070006 213.539984 
L 522.12113 204.38335 
L 524.172255 207.561437 
L 526.223379 204.183379 
L 528.274503 200.261124 
L 530.325627 189.2016 
L 532.376752 180.14634 
L 534.427876 168.336796 
L 536.479 155.14246 
L 538.530124 153.966277 
L 540.581249 156.890696 
L 542.632373 131.456287 
L 544.683497 120.75073 
L 546.734621 116.862914 
L 548.785745 110.389054 
L 550.83687 106.812683 
L 552.887994 106.795186 
L 554.939118 106.553729 
L 556.990242 100.947596 
L 559.041367 97.198668 
L 559.041367 97.198668 
" style="fill:none;stroke:#615686;stroke-linecap:round;stroke-opacity:0.9;stroke-width:1.5;"/>
   </g>
   <g id="line2d_16">
    <path clip-path="url(#pf75cb75367)" d="M 419.564919 326.969432 
L 429.82054 328.17672 
L 431.871664 327.672808 
L 433.922789 326.706978 
L 435.973913 325.867126 
L 438.025037 325.27573 
L 442.127285 323.889974 
L 444.17841 324.015952 
L 446.229534 323.032625 
L 448.280658 322.476223 
L 450.331782 321.209446 
L 452.382907 320.166629 
L 454.434031 318.850861 
L 458.536279 314.826569 
L 460.587404 313.199356 
L 462.638528 311.033237 
L 464.689652 307.705323 
L 466.740776 306.099106 
L 468.7919 304.335416 
L 470.843025 303.751019 
L 472.894149 299.243812 
L 474.945273 300.853529 
L 476.996397 306.085108 
L 479.047522 309.696472 
L 481.098646 314.399645 
L 483.14977 315.963869 
L 485.200894 313.696268 
L 487.252019 311.691121 
L 489.303143 312.240525 
L 491.354267 312.583464 
L 493.405391 315.624429 
L 495.456515 316.572762 
L 497.50764 318.196476 
L 499.558764 318.00751 
L 501.609888 316.898205 
L 503.661012 314.236749 
L 505.712137 311.941974 
L 507.763261 312.367319 
L 509.814385 312.472512 
L 511.865509 311.74104 
L 513.916634 309.457083 
L 518.018882 306.965601 
L 520.070006 306.068918 
L 522.12113 304.703681 
L 524.172255 302.898476 
L 526.223379 299.935393 
L 528.274503 296.311846 
L 530.325627 293.157251 
L 532.376752 290.68732 
L 534.427876 286.923344 
L 536.479 282.439394 
L 538.530124 281.484495 
L 540.581249 278.562204 
L 542.632373 274.446019 
L 544.683497 273.491845 
L 546.734621 277.967557 
L 548.785745 279.706751 
L 550.83687 278.849402 
L 552.887994 279.689254 
L 554.939118 277.834581 
L 556.990242 274.67182 
L 559.041367 277.035656 
L 559.041367 277.035656 
" style="fill:none;stroke:#6e5a48;stroke-linecap:round;stroke-opacity:0.9;stroke-width:1.5;"/>
   </g>
   <g id="line2d_17">
    <path clip-path="url(#pf75cb75367)" d="M 419.564919 332.932382 
L 421.616043 332.264 
L 423.667167 332.844898 
L 425.718292 333.033865 
L 427.769416 332.732918 
L 431.871664 332.459966 
L 435.973913 332.519455 
L 440.076161 332.515956 
L 442.127285 332.739916 
L 446.229534 332.582444 
L 448.280658 332.337487 
L 450.331782 332.421472 
L 452.382907 332.03654 
L 456.485155 331.784585 
L 468.7919 331.091706 
L 470.843025 331.308668 
L 472.894149 331.305169 
L 476.996397 330.769763 
L 483.14977 330.801258 
L 485.200894 330.685778 
L 489.303143 330.986725 
L 491.354267 330.951731 
L 497.50764 330.472315 
L 503.661012 330.343595 
L 507.763261 330.6219 
L 511.865509 330.301215 
L 513.916634 330.086399 
L 515.967758 330.103572 
L 520.070006 329.843007 
L 522.12113 329.86382 
L 524.172255 329.662624 
L 526.223379 329.699319 
L 528.274503 329.573755 
L 532.376752 329.013627 
L 536.479 328.233492 
L 538.530124 328.315881 
L 540.581249 328.150021 
L 542.632373 327.537974 
L 544.683497 327.074414 
L 546.734621 326.888946 
L 552.887994 325.905619 
L 554.939118 325.475195 
L 556.990242 325.192175 
L 559.041367 324.745677 
L 559.041367 324.745677 
" style="fill:none;stroke:#a36892;stroke-linecap:round;stroke-opacity:0.9;stroke-width:1.5;"/>
   </g>
   <g id="patch_3">
    <path d="M 136.92 348.58 
L 579.142384 348.58 
" style="fill:none;stroke:#262626;stroke-linecap:square;stroke-linejoin:miter;stroke-width:1.25;"/>
   </g>
   <g id="text_12">
    <!-- Italy -->
    <g style="fill:#395684;opacity:0.9;" transform="translate(563.143615 220.112102)scale(0.14 -0.14)">
     <defs>
      <path d="M 730 4480 
L 1203 4480 
L 1203 0 
L 730 0 
L 730 4480 
z
" id="Montserrat-Regular-49" transform="scale(0.015625)"/>
      <path d="M 634 4749 
L 1088 4749 
L 1088 0 
L 634 0 
L 634 4749 
z
" id="Montserrat-Regular-6c" transform="scale(0.015625)"/>
     </defs>
     <use xlink:href="#Montserrat-Regular-49"/>
     <use x="30.199997" xlink:href="#Montserrat-Regular-74"/>
     <use x="70.799988" xlink:href="#Montserrat-Regular-61"/>
     <use x="129.799973" xlink:href="#Montserrat-Regular-6c"/>
     <use x="156.699966" xlink:href="#Montserrat-Regular-79"/>
    </g>
   </g>
   <g id="text_13">
    <!-- Netherlands -->
    <g style="fill:#a6633e;opacity:0.9;" transform="translate(563.143615 174.270383)scale(0.14 -0.14)">
     <defs>
      <path d="M 4474 4480 
L 4474 0 
L 4083 0 
L 1203 3635 
L 1203 0 
L 730 0 
L 730 4480 
L 1120 4480 
L 4006 845 
L 4006 4480 
L 4474 4480 
z
" id="Montserrat-Regular-4e" transform="scale(0.015625)"/>
      <path d="M 2349 3392 
Q 2982 3392 3356 3024 
Q 3731 2656 3731 1952 
L 3731 0 
L 3277 0 
L 3277 1907 
Q 3277 2432 3014 2707 
Q 2752 2982 2266 2982 
Q 1722 2982 1405 2659 
Q 1088 2336 1088 1766 
L 1088 0 
L 634 0 
L 634 4749 
L 1088 4749 
L 1088 2778 
Q 1274 3072 1600 3232 
Q 1926 3392 2349 3392 
z
" id="Montserrat-Regular-68" transform="scale(0.015625)"/>
      <path d="M 2349 3392 
Q 2982 3392 3356 3024 
Q 3731 2656 3731 1952 
L 3731 0 
L 3277 0 
L 3277 1907 
Q 3277 2432 3014 2707 
Q 2752 2982 2266 2982 
Q 1722 2982 1405 2659 
Q 1088 2336 1088 1766 
L 1088 0 
L 634 0 
L 634 3366 
L 1069 3366 
L 1069 2746 
Q 1254 3053 1584 3222 
Q 1914 3392 2349 3392 
z
" id="Montserrat-Regular-6e" transform="scale(0.015625)"/>
      <path d="M 3706 4749 
L 3706 0 
L 3270 0 
L 3270 666 
Q 3066 326 2730 147 
Q 2394 -32 1971 -32 
Q 1498 -32 1114 185 
Q 730 403 512 793 
Q 294 1184 294 1683 
Q 294 2182 512 2572 
Q 730 2963 1114 3177 
Q 1498 3392 1971 3392 
Q 2381 3392 2710 3222 
Q 3040 3053 3251 2726 
L 3251 4749 
L 3706 4749 
z
M 2010 371 
Q 2362 371 2646 534 
Q 2931 698 3094 998 
Q 3258 1299 3258 1683 
Q 3258 2067 3094 2368 
Q 2931 2669 2646 2832 
Q 2362 2995 2010 2995 
Q 1651 2995 1366 2832 
Q 1082 2669 918 2368 
Q 755 2067 755 1683 
Q 755 1299 918 998 
Q 1082 698 1366 534 
Q 1651 371 2010 371 
z
" id="Montserrat-Regular-64" transform="scale(0.015625)"/>
      <path d="M 1536 -32 
Q 1126 -32 752 86 
Q 378 205 166 384 
L 371 742 
Q 582 576 902 470 
Q 1222 365 1568 365 
Q 2029 365 2249 509 
Q 2470 653 2470 915 
Q 2470 1101 2348 1206 
Q 2227 1312 2041 1366 
Q 1856 1421 1549 1472 
Q 1139 1549 889 1629 
Q 640 1709 464 1901 
Q 288 2093 288 2432 
Q 288 2854 640 3123 
Q 992 3392 1619 3392 
Q 1946 3392 2272 3305 
Q 2598 3219 2810 3078 
L 2611 2714 
Q 2195 3002 1619 3002 
Q 1184 3002 963 2848 
Q 742 2694 742 2445 
Q 742 2253 867 2137 
Q 992 2022 1177 1968 
Q 1363 1914 1690 1856 
Q 2093 1779 2336 1702 
Q 2579 1626 2752 1440 
Q 2925 1254 2925 928 
Q 2925 486 2557 227 
Q 2189 -32 1536 -32 
z
" id="Montserrat-Regular-73" transform="scale(0.015625)"/>
     </defs>
     <use xlink:href="#Montserrat-Regular-4e"/>
     <use x="81.299988" xlink:href="#Montserrat-Regular-65"/>
     <use x="141.699982" xlink:href="#Montserrat-Regular-74"/>
     <use x="182.299973" xlink:href="#Montserrat-Regular-68"/>
     <use x="249.999954" xlink:href="#Montserrat-Regular-65"/>
     <use x="310.399948" xlink:href="#Montserrat-Regular-72"/>
     <use x="350.499939" xlink:href="#Montserrat-Regular-6c"/>
     <use x="377.399933" xlink:href="#Montserrat-Regular-61"/>
     <use x="436.399918" xlink:href="#Montserrat-Regular-6e"/>
     <use x="504.099899" xlink:href="#Montserrat-Regular-64"/>
     <use x="571.899887" xlink:href="#Montserrat-Regular-73"/>
    </g>
   </g>
   <g id="text_14">
    <!-- Portugal -->
    <g style="fill:#407e4e;opacity:0.9;" transform="translate(563.143615 245.757576)scale(0.14 -0.14)">
     <defs>
      <path d="M 2010 -32 
Q 1523 -32 1132 189 
Q 742 410 518 800 
Q 294 1190 294 1683 
Q 294 2176 518 2566 
Q 742 2957 1132 3174 
Q 1523 3392 2010 3392 
Q 2496 3392 2886 3174 
Q 3277 2957 3497 2566 
Q 3718 2176 3718 1683 
Q 3718 1190 3497 800 
Q 3277 410 2886 189 
Q 2496 -32 2010 -32 
z
M 2010 371 
Q 2368 371 2653 534 
Q 2938 698 3098 998 
Q 3258 1299 3258 1683 
Q 3258 2067 3098 2368 
Q 2938 2669 2653 2832 
Q 2368 2995 2010 2995 
Q 1651 2995 1366 2832 
Q 1082 2669 918 2368 
Q 755 2067 755 1683 
Q 755 1299 918 998 
Q 1082 698 1366 534 
Q 1651 371 2010 371 
z
" id="Montserrat-Regular-6f" transform="scale(0.015625)"/>
      <path d="M 3667 3366 
L 3667 0 
L 3232 0 
L 3232 614 
Q 3053 307 2739 137 
Q 2426 -32 2022 -32 
Q 1363 -32 982 336 
Q 602 704 602 1414 
L 602 3366 
L 1056 3366 
L 1056 1459 
Q 1056 928 1318 653 
Q 1581 378 2067 378 
Q 2598 378 2905 701 
Q 3213 1024 3213 1600 
L 3213 3366 
L 3667 3366 
z
" id="Montserrat-Regular-75" transform="scale(0.015625)"/>
      <path d="M 3750 3366 
L 3750 410 
Q 3750 -448 3331 -861 
Q 2912 -1274 2067 -1274 
Q 1600 -1274 1181 -1136 
Q 762 -998 499 -755 
L 730 -410 
Q 973 -627 1321 -748 
Q 1670 -870 2054 -870 
Q 2694 -870 2995 -572 
Q 3296 -275 3296 352 
L 3296 781 
Q 3085 461 2742 294 
Q 2400 128 1984 128 
Q 1510 128 1123 336 
Q 736 544 515 918 
Q 294 1293 294 1766 
Q 294 2240 515 2611 
Q 736 2982 1120 3187 
Q 1504 3392 1984 3392 
Q 2413 3392 2758 3219 
Q 3104 3046 3315 2720 
L 3315 3366 
L 3750 3366 
z
M 2029 531 
Q 2394 531 2688 688 
Q 2982 845 3145 1126 
Q 3309 1408 3309 1766 
Q 3309 2125 3145 2403 
Q 2982 2682 2691 2838 
Q 2400 2995 2029 2995 
Q 1664 2995 1373 2841 
Q 1082 2688 918 2406 
Q 755 2125 755 1766 
Q 755 1408 918 1126 
Q 1082 845 1373 688 
Q 1664 531 2029 531 
z
" id="Montserrat-Regular-67" transform="scale(0.015625)"/>
     </defs>
     <use xlink:href="#Montserrat-Regular-50"/>
     <use x="71.799988" xlink:href="#Montserrat-Regular-6f"/>
     <use x="134.499985" xlink:href="#Montserrat-Regular-72"/>
     <use x="174.599976" xlink:href="#Montserrat-Regular-74"/>
     <use x="215.199966" xlink:href="#Montserrat-Regular-75"/>
     <use x="282.499954" xlink:href="#Montserrat-Regular-67"/>
     <use x="351.099945" xlink:href="#Montserrat-Regular-61"/>
     <use x="410.09993" xlink:href="#Montserrat-Regular-6c"/>
    </g>
   </g>
   <g id="text_15">
    <!-- United States -->
    <g style="fill:#933b3e;opacity:0.9;" transform="translate(563.143615 146.76302)scale(0.14 -0.14)">
     <defs>
      <path d="M 2534 -38 
Q 1664 -38 1177 461 
Q 691 960 691 1914 
L 691 4480 
L 1165 4480 
L 1165 1933 
Q 1165 1152 1517 768 
Q 1869 384 2534 384 
Q 3206 384 3558 768 
Q 3910 1152 3910 1933 
L 3910 4480 
L 4371 4480 
L 4371 1914 
Q 4371 960 3888 461 
Q 3405 -38 2534 -38 
z
" id="Montserrat-Regular-55" transform="scale(0.015625)"/>
      <path d="M 1965 -38 
Q 1466 -38 1008 122 
Q 550 282 301 544 
L 486 909 
Q 730 666 1133 515 
Q 1536 365 1965 365 
Q 2566 365 2867 585 
Q 3168 806 3168 1158 
Q 3168 1427 3005 1587 
Q 2842 1747 2605 1833 
Q 2368 1920 1946 2022 
Q 1440 2150 1139 2268 
Q 838 2387 624 2630 
Q 410 2874 410 3290 
Q 410 3629 589 3907 
Q 768 4186 1139 4352 
Q 1510 4518 2061 4518 
Q 2445 4518 2813 4412 
Q 3181 4307 3450 4122 
L 3290 3744 
Q 3008 3930 2688 4022 
Q 2368 4115 2061 4115 
Q 1472 4115 1174 3888 
Q 877 3661 877 3302 
Q 877 3034 1040 2870 
Q 1203 2707 1449 2620 
Q 1696 2534 2112 2432 
Q 2605 2310 2909 2192 
Q 3213 2074 3424 1834 
Q 3635 1594 3635 1184 
Q 3635 845 3452 566 
Q 3270 288 2892 125 
Q 2515 -38 1965 -38 
z
" id="Montserrat-Regular-53" transform="scale(0.015625)"/>
     </defs>
     <use xlink:href="#Montserrat-Regular-55"/>
     <use x="79.199982" xlink:href="#Montserrat-Regular-6e"/>
     <use x="146.899963" xlink:href="#Montserrat-Regular-69"/>
     <use x="173.799957" xlink:href="#Montserrat-Regular-74"/>
     <use x="214.399948" xlink:href="#Montserrat-Regular-65"/>
     <use x="274.799942" xlink:href="#Montserrat-Regular-64"/>
     <use x="342.59993" xlink:href="#Montserrat-Regular-20"/>
     <use x="368.799927" xlink:href="#Montserrat-Regular-53"/>
     <use x="430.299911" xlink:href="#Montserrat-Regular-74"/>
     <use x="470.899902" xlink:href="#Montserrat-Regular-61"/>
     <use x="529.899887" xlink:href="#Montserrat-Regular-74"/>
     <use x="570.499878" xlink:href="#Montserrat-Regular-65"/>
     <use x="630.899872" xlink:href="#Montserrat-Regular-73"/>
    </g>
   </g>
   <g id="text_16">
    <!-- China -->
    <g style="fill:#615686;opacity:0.9;" transform="translate(563.143615 294.552622)scale(0.14 -0.14)">
     <defs>
      <path d="M 2675 -38 
Q 2010 -38 1475 256 
Q 941 550 637 1072 
Q 333 1594 333 2240 
Q 333 2886 637 3408 
Q 941 3930 1478 4224 
Q 2016 4518 2682 4518 
Q 3181 4518 3603 4352 
Q 4026 4186 4320 3866 
L 4019 3565 
Q 3494 4096 2694 4096 
Q 2163 4096 1728 3853 
Q 1293 3610 1046 3187 
Q 800 2765 800 2240 
Q 800 1715 1046 1292 
Q 1293 870 1728 627 
Q 2163 384 2694 384 
Q 3501 384 4019 922 
L 4320 621 
Q 4026 301 3600 131 
Q 3174 -38 2675 -38 
z
" id="Montserrat-Regular-43" transform="scale(0.015625)"/>
     </defs>
     <use xlink:href="#Montserrat-Regular-43"/>
     <use x="71.899994" xlink:href="#Montserrat-Regular-68"/>
     <use x="139.599976" xlink:href="#Montserrat-Regular-69"/>
     <use x="166.499969" xlink:href="#Montserrat-Regular-6e"/>
     <use x="234.199951" xlink:href="#Montserrat-Regular-61"/>
    </g>
   </g>
   <g id="text_17">
    <!-- India -->
    <g style="fill:#6e5a48;opacity:0.9;" transform="translate(563.143615 316.581972)scale(0.14 -0.14)">
     <use xlink:href="#Montserrat-Regular-49"/>
     <use x="30.199997" xlink:href="#Montserrat-Regular-6e"/>
     <use x="97.899979" xlink:href="#Montserrat-Regular-64"/>
     <use x="165.699966" xlink:href="#Montserrat-Regular-69"/>
     <use x="192.59996" xlink:href="#Montserrat-Regular-61"/>
    </g>
   </g>
   <g id="text_18">
    <!-- Russian Federation -->
    <g style="fill:#a36892;opacity:0.9;" transform="translate(563.143615 254.074542)scale(0.14 -0.14)">
     <defs>
      <path d="M 3789 0 
L 2765 1440 
Q 2592 1421 2406 1421 
L 1203 1421 
L 1203 0 
L 730 0 
L 730 4480 
L 2406 4480 
Q 3264 4480 3750 4070 
Q 4237 3661 4237 2944 
Q 4237 2419 3971 2057 
Q 3706 1696 3213 1536 
L 4307 0 
L 3789 0 
z
M 2394 1824 
Q 3059 1824 3411 2118 
Q 3763 2413 3763 2944 
Q 3763 3488 3411 3779 
Q 3059 4070 2394 4070 
L 1203 4070 
L 1203 1824 
L 2394 1824 
z
" id="Montserrat-Regular-52" transform="scale(0.015625)"/>
      <path d="M 1203 4070 
L 1203 2310 
L 3520 2310 
L 3520 1901 
L 1203 1901 
L 1203 0 
L 730 0 
L 730 4480 
L 3802 4480 
L 3802 4070 
L 1203 4070 
z
" id="Montserrat-Regular-46" transform="scale(0.015625)"/>
     </defs>
     <use xlink:href="#Montserrat-Regular-52"/>
     <use x="72.299988" xlink:href="#Montserrat-Regular-75"/>
     <use x="139.599976" xlink:href="#Montserrat-Regular-73"/>
     <use x="188.499969" xlink:href="#Montserrat-Regular-73"/>
     <use x="237.399963" xlink:href="#Montserrat-Regular-69"/>
     <use x="264.299957" xlink:href="#Montserrat-Regular-61"/>
     <use x="323.299942" xlink:href="#Montserrat-Regular-6e"/>
     <use x="390.999924" xlink:href="#Montserrat-Regular-20"/>
     <use x="417.199921" xlink:href="#Montserrat-Regular-46"/>
     <use x="480.499908" xlink:href="#Montserrat-Regular-65"/>
     <use x="540.899902" xlink:href="#Montserrat-Regular-64"/>
     <use x="608.69989" xlink:href="#Montserrat-Regular-65"/>
     <use x="669.099884" xlink:href="#Montserrat-Regular-72"/>
     <use x="709.199875" xlink:href="#Montserrat-Regular-61"/>
     <use x="768.19986" xlink:href="#Montserrat-Regular-74"/>
     <use x="808.79985" xlink:href="#Montserrat-Regular-69"/>
     <use x="835.699844" xlink:href="#Montserrat-Regular-6f"/>
     <use x="898.399841" xlink:href="#Montserrat-Regular-6e"/>
    </g>
   </g>
   <g id="text_19">
    <!-- Japan -->
    <g style="fill:#696969;opacity:0.9;" transform="translate(563.143615 205.066017)scale(0.14 -0.14)">
     <defs>
      <path d="M 1210 -38 
Q 826 -38 499 128 
Q 173 294 -32 602 
L 250 922 
Q 621 371 1216 371 
Q 2048 371 2048 1357 
L 2048 4070 
L 410 4070 
L 410 4480 
L 2515 4480 
L 2515 1376 
Q 2515 672 2185 317 
Q 1856 -38 1210 -38 
z
" id="Montserrat-Regular-4a" transform="scale(0.015625)"/>
     </defs>
     <use xlink:href="#Montserrat-Regular-4a"/>
     <use x="50.099991" xlink:href="#Montserrat-Regular-61"/>
     <use x="109.099976" xlink:href="#Montserrat-Regular-70"/>
     <use x="176.899963" xlink:href="#Montserrat-Regular-61"/>
     <use x="235.899948" xlink:href="#Montserrat-Regular-6e"/>
    </g>
   </g>
   <g id="text_20">
    <!-- South Korea -->
    <g style="fill:#998b57;opacity:0.9;" transform="translate(563.143615 207.677253)scale(0.14 -0.14)">
     <defs>
      <path d="M 2118 2106 
L 1203 1178 
L 1203 0 
L 730 0 
L 730 4480 
L 1203 4480 
L 1203 1773 
L 3834 4480 
L 4378 4480 
L 2438 2451 
L 4512 0 
L 3949 0 
L 2118 2106 
z
" id="Montserrat-Regular-4b" transform="scale(0.015625)"/>
     </defs>
     <use xlink:href="#Montserrat-Regular-53"/>
     <use x="61.499985" xlink:href="#Montserrat-Regular-6f"/>
     <use x="124.199982" xlink:href="#Montserrat-Regular-75"/>
     <use x="191.499969" xlink:href="#Montserrat-Regular-74"/>
     <use x="232.09996" xlink:href="#Montserrat-Regular-68"/>
     <use x="299.799942" xlink:href="#Montserrat-Regular-20"/>
     <use x="325.999939" xlink:href="#Montserrat-Regular-4b"/>
     <use x="397.09993" xlink:href="#Montserrat-Regular-6f"/>
     <use x="459.799927" xlink:href="#Montserrat-Regular-72"/>
     <use x="499.899918" xlink:href="#Montserrat-Regular-65"/>
     <use x="560.299911" xlink:href="#Montserrat-Regular-61"/>
    </g>
   </g>
   <g id="text_21">
    <!-- North Korea -->
    <g style="fill:#4b889a;opacity:0.9;" transform="translate(563.143615 334.814277)scale(0.14 -0.14)">
     <use xlink:href="#Montserrat-Regular-4e"/>
     <use x="81.299988" xlink:href="#Montserrat-Regular-6f"/>
     <use x="143.999985" xlink:href="#Montserrat-Regular-72"/>
     <use x="184.099976" xlink:href="#Montserrat-Regular-74"/>
     <use x="224.699966" xlink:href="#Montserrat-Regular-68"/>
     <use x="292.399948" xlink:href="#Montserrat-Regular-20"/>
     <use x="318.599945" xlink:href="#Montserrat-Regular-4b"/>
     <use x="389.699936" xlink:href="#Montserrat-Regular-6f"/>
     <use x="452.399933" xlink:href="#Montserrat-Regular-72"/>
     <use x="492.499924" xlink:href="#Montserrat-Regular-65"/>
     <use x="552.899918" xlink:href="#Montserrat-Regular-61"/>
    </g>
   </g>
   <g id="text_22">
    <!-- Cuba -->
    <g style="fill:#395684;opacity:0.9;" transform="translate(563.143615 311.265943)scale(0.14 -0.14)">
     <defs>
      <path d="M 2368 3392 
Q 2842 3392 3226 3177 
Q 3610 2963 3827 2572 
Q 4045 2182 4045 1683 
Q 4045 1184 3827 793 
Q 3610 403 3226 185 
Q 2842 -32 2368 -32 
Q 1946 -32 1610 147 
Q 1274 326 1069 666 
L 1069 0 
L 634 0 
L 634 4749 
L 1088 4749 
L 1088 2726 
Q 1299 3053 1628 3222 
Q 1958 3392 2368 3392 
z
M 2336 371 
Q 2688 371 2976 534 
Q 3264 698 3427 998 
Q 3590 1299 3590 1683 
Q 3590 2067 3427 2368 
Q 3264 2669 2976 2832 
Q 2688 2995 2336 2995 
Q 1978 2995 1693 2832 
Q 1408 2669 1245 2368 
Q 1082 2067 1082 1683 
Q 1082 1299 1245 998 
Q 1408 698 1693 534 
Q 1978 371 2336 371 
z
" id="Montserrat-Regular-62" transform="scale(0.015625)"/>
     </defs>
     <use xlink:href="#Montserrat-Regular-43"/>
     <use x="71.899994" xlink:href="#Montserrat-Regular-75"/>
     <use x="139.199982" xlink:href="#Montserrat-Regular-62"/>
     <use x="206.999969" xlink:href="#Montserrat-Regular-61"/>
    </g>
   </g>
   <g id="text_23">
    <!-- Venezuela -->
    <g style="fill:#a6633e;opacity:0.9;" transform="translate(563.143615 302.922294)scale(0.14 -0.14)">
     <defs>
      <path d="M 4454 4480 
L 2470 0 
L 2003 0 
L 19 4480 
L 531 4480 
L 2246 589 
L 3974 4480 
L 4454 4480 
z
" id="Montserrat-Regular-56" transform="scale(0.015625)"/>
      <path d="M 3008 378 
L 3008 0 
L 269 0 
L 269 301 
L 2387 2982 
L 307 2982 
L 307 3366 
L 2970 3366 
L 2970 3066 
L 851 378 
L 3008 378 
z
" id="Montserrat-Regular-7a" transform="scale(0.015625)"/>
     </defs>
     <use xlink:href="#Montserrat-Regular-56"/>
     <use x="69.799988" xlink:href="#Montserrat-Regular-65"/>
     <use x="130.199982" xlink:href="#Montserrat-Regular-6e"/>
     <use x="197.899963" xlink:href="#Montserrat-Regular-65"/>
     <use x="258.299957" xlink:href="#Montserrat-Regular-7a"/>
     <use x="309.399948" xlink:href="#Montserrat-Regular-75"/>
     <use x="376.699936" xlink:href="#Montserrat-Regular-65"/>
     <use x="437.09993" xlink:href="#Montserrat-Regular-6c"/>
     <use x="463.999924" xlink:href="#Montserrat-Regular-61"/>
    </g>
   </g>
   <g id="text_24">
    <!-- Taiwan -->
    <g style="fill:#407e4e;opacity:0.9;" transform="translate(563.143615 184.10451)scale(0.14 -0.14)">
     <defs>
      <path d="M 1600 4070 
L 26 4070 
L 26 4480 
L 3648 4480 
L 3648 4070 
L 2074 4070 
L 2074 0 
L 1600 0 
L 1600 4070 
z
" id="Montserrat-Regular-54" transform="scale(0.015625)"/>
      <path d="M 5574 3366 
L 4301 0 
L 3872 0 
L 2810 2758 
L 1747 0 
L 1318 0 
L 51 3366 
L 486 3366 
L 1542 506 
L 2624 3366 
L 3014 3366 
L 4090 506 
L 5158 3366 
L 5574 3366 
z
" id="Montserrat-Regular-77" transform="scale(0.015625)"/>
     </defs>
     <use xlink:href="#Montserrat-Regular-54"/>
     <use x="57.399994" xlink:href="#Montserrat-Regular-61"/>
     <use x="116.399979" xlink:href="#Montserrat-Regular-69"/>
     <use x="143.299973" xlink:href="#Montserrat-Regular-77"/>
     <use x="231.199966" xlink:href="#Montserrat-Regular-61"/>
     <use x="290.199951" xlink:href="#Montserrat-Regular-6e"/>
    </g>
   </g>
   <g id="text_25">
    <!-- Norway -->
    <g style="fill:#933b3e;opacity:0.9;" transform="translate(563.143615 44.352145)scale(0.14 -0.14)">
     <use xlink:href="#Montserrat-Regular-4e"/>
     <use x="81.299988" xlink:href="#Montserrat-Regular-6f"/>
     <use x="143.999985" xlink:href="#Montserrat-Regular-72"/>
     <use x="184.099976" xlink:href="#Montserrat-Regular-77"/>
     <use x="271.999969" xlink:href="#Montserrat-Regular-61"/>
     <use x="330.999954" xlink:href="#Montserrat-Regular-79"/>
    </g>
   </g>
   <g id="text_26">
    <!-- Singapore -->
    <g style="fill:#615686;opacity:0.9;" transform="translate(563.143615 100.999449)scale(0.14 -0.14)">
     <use xlink:href="#Montserrat-Regular-53"/>
     <use x="61.499985" xlink:href="#Montserrat-Regular-69"/>
     <use x="88.399979" xlink:href="#Montserrat-Regular-6e"/>
     <use x="156.09996" xlink:href="#Montserrat-Regular-67"/>
     <use x="224.699951" xlink:href="#Montserrat-Regular-61"/>
     <use x="283.699936" xlink:href="#Montserrat-Regular-70"/>
     <use x="351.499924" xlink:href="#Montserrat-Regular-6f"/>
     <use x="414.199921" xlink:href="#Montserrat-Regular-72"/>
     <use x="454.299911" xlink:href="#Montserrat-Regular-65"/>
    </g>
   </g>
   <g id="text_27">
    <!-- Iran -->
    <g style="fill:#6e5a48;opacity:0.9;" transform="translate(563.143615 280.871438)scale(0.14 -0.14)">
     <use xlink:href="#Montserrat-Regular-49"/>
     <use x="30.199997" xlink:href="#Montserrat-Regular-72"/>
     <use x="70.299988" xlink:href="#Montserrat-Regular-61"/>
     <use x="129.299973" xlink:href="#Montserrat-Regular-6e"/>
    </g>
   </g>
   <g id="text_28">
    <!-- Kenya -->
    <g style="fill:#a36892;opacity:0.9;" transform="translate(563.143615 328.511458)scale(0.14 -0.14)">
     <use xlink:href="#Montserrat-Regular-4b"/>
     <use x="71.099991" xlink:href="#Montserrat-Regular-65"/>
     <use x="131.499985" xlink:href="#Montserrat-Regular-6e"/>
     <use x="199.199966" xlink:href="#Montserrat-Regular-79"/>
     <use x="253.399963" xlink:href="#Montserrat-Regular-61"/>
    </g>
   </g>
  </g>
 </g>
 <defs>
  <clipPath id="pf75cb75367">
   <rect height="322.66" width="442.222384" x="136.92" y="25.92"/>
  </clipPath>
 </defs>
</svg>
