<svg xmlns="http://www.w3.org/2000/svg" viewBox="0 0 960 540"><defs><clipPath id="a"><path d="M0 0h959.76v540H0Zm0 0"/></clipPath></defs><g clip-path="url(#a)"><path style="stroke:none;fill-rule:nonzero;fill:#fff;fill-opacity:1" d="M0 0h959.76v540H0Zm0 0"/></g><path style="fill:#fff;fill-opacity:1;stroke:none" d="M0 0h960v540H0z"/><path style="stroke:none;fill-rule:nonzero;fill:#000;fill-opacity:1" d="M152.38 66.03h-.34.04l-.31-.03a.78.78 0 0 0-.7.33l-.14.2.55-.33-.23.03a.84.84 0 0 0-.66.5l-.09.2a.93.93 0 0 0 .81 1.3h.23c.22.02.44-.05.62-.18l.29-.22-.19.11.49-.21.12-.06.49-.3.17-.14.46-.45.31-.3-.18.14.46-.28.2-.16.33-.34-.16.14.45-.31.17-.14.48-.51-.05.05.52-.48.02-.02.48-.48.12-.13.47-.65.5-.68.09-.13.43-.79v-.03l.35-.68v.01l.41-.83.34-.65.41-.83-.08.14.48-.66.11-.21.33-.83-.03.08.34-.65.04-.1.24-.65-.1.2.33-.48-.01.01.37-.5.13-.25.17-.48-.04.08.22-.48.05-.1.16-.52.03-.11.08-.43-.26.5.34-.35c.12-.12.2-.26.25-.42l.11-.43-.06.17.16-.34.06-.14.06-.2.04-.26v-.23l-.91.94h.03-.13l.17.02h.36l-.97-.98v.54-.01l-.01.45v.61l.05.48.04.2.17.51-.05-.23.05.65.02.13.13.65.03.13.29.82.05.14.34.65-.07-.17.25.82.06.17.34.66-.06-.13.25.71.06.14.34.65.1.15.42.57-.1-.15.35.66.11.17.43.53.11.11.52.48-.1-.1.44.51-.06-.06.35.48.12.14.44.42.35.33-.13-.15.27.38c.14.2.35.34.59.4l.35.07-.44-.23.37.36c.18.17.42.26.67.25l.47-.04-.35-.05.31.13.28.05h.48a.7.7 0 0 0 0-1.41h-.29a.7.7 0 0 0 0 1.42h.29a.7.7 0 0 0 0-1.42h-.48l.52.22-.23-.24-.35-.22-.45-.14.45.32-.3-.42-.25-.24-.3-.2.3.33-.23-.4-.14-.18-.33-.35-.42-.44.1.12-.33-.48-.05-.07-.42-.51-.08-.09-.5-.49.1.12-.42-.55.1.16-.34-.65-.1-.15-.42-.56.09.13-.34-.65.05.13-.26-.7-.06-.14-.34-.65.07.18-.27-.82-.07-.17-.34-.65.06.14-.29-.82.04.11-.15-.65.02.13-.07-.66-.05-.22-.17-.51.04.2-.05-.49v.11-.48l-.02-.45v.01-.54a.98.98 0 0 0-.98-.97h-.36l-.17.02h.13-.03a.96.96 0 0 0-1 .91V51.3l.03-.27-.05.2.07-.18-.18.34-.07.19-.1.43.24-.44-.34.34a.94.94 0 0 0-.26.49l-.09.42.03-.11-.17.5.04-.1-.23.48-.04.1-.17.47.13-.24-.37.5-.35.49-.11.2-.26.65.04-.09-.34.65-.04.08-.35.82.12-.21-.48.64-.1.14-.42.81-.35.65-.44.82v.02l-.35.68.02-.02-.43.8.09-.15-.51.68-.5.66.1-.1-.48.48.02-.02-.5.49-.04.03-.48.52.16-.15-.45.32-.18.16-.3.35.2-.18-.45.3-.17.13-.3.32-.45.45.14-.12-.47.32.11-.06-.47.24-.2.13-.27.23.56-.23-.23.02.92.57-.09-.2a.85.85 0 1 0-.48 1.12l.22-.08a.81.81 0 0 0 .5-.52l.07-.23-.68.54.3-.03h-.03.34a.75.75 0 0 0 0-1.5Zm0 0"/><path style="stroke:none;fill-rule:nonzero;fill:#000;fill-opacity:1" d="M162.97 56.99c.21-.63.01-1.13-.42-1.3a.85.85 0 0 0-1.1.45l-.08 1.07-.03 1.42.18 1.17.3 1.35.15 1.4.3 1.9v1.01l.33 1.99.16 1.8v1.1l.01 1.09.17 1.27.3 2.1-.01 1.86V78.85l-.01 1.16v2.36l-.32 1.98-.19 1.13v2.13l-.02 1.13v3.41l-.01 1.16v6.26l-.06 1.53-.22 1.76-.22 1.58-.13 1.47-.35 1.8-.02 1.16-.01 2.12-.31 1.9-.17 1.13-.02 1.32v4.59l.01 1.16.32 1.75.16 1.57.02 1.9V133.38l-.3 1.66-.18 1.11-.06 1.92-.25 1.96-.18 1-.06 1.2V144.5l-.02 1.99v5.89l-.02 1.99V161.73l-.02 1.96V167.97l-.01 1.3v8.09l-.05 1.61-.14 1-.2 1.5-.08 1.1v3.77l-.22 1.77-.07 1.36-.2 1.07v4.99l-.16 1.16-.17 1.14-.17 1.13-.01 1.16v3.26l-.01 1.16V215.37l-.01 1.95-.14 1.83-.34 1.92-.02 1.18V224l-.01 1.75-.22 1.73-.07 1.1-.2 1.8V246.7l.01 1.84v5.05l-.16 1.14-.17 1.14-.18 1.2-.01 1.3-.27 2.22-.22 1.01v12.14l.01 1.33v2.3l.02 1.96v21l-.01 1.13v3.95l.02 1.95V333l.02 1.44v10l.01 1.14V347.98l.01 1.41v3.77l.18 1.81.14 1.48.18 1.44-.01 1.34.01 1.5.25 1.45.04 1.1.24 1.49-.01 2.34v1.05l-.01 1.35v1.13l.14 1.3.18 1.06.17 1.1-.01 1v1.36l.05 1.13.18 1.43.05 1.2.21 1.43-.01 1.16.25 1.31.03 1.24.25 1.23v8.36l.02 1.18.23 1.82.18 1.12.04 1.6v3.45l-.01 1.65v10.98l-.02 1.57v1.22l-.03 1.14c.3.83.4.93.5 1.02.75.4.94.42 1.12.39.76-.14 1.14-.68 1.04-1.25.57-.5.57-1.12.19-1.5a1 1 0 0 0-1.41 0c-.76 1.08-.8 1.24-.8 1.4l1.17-.74.46-1.67-.01-1.6v-10.96l-.01-1.64v-1.81l-.01-1.66-.06-1.84-.18-1.1-.08-1.03-.17-1.74v-7.46l.02-1.12-.25-1.3-.03-1.22-.25-1.26.02-1.11-.21-1.46-.04-1.2-.18-1.42-.06-1v-2.45l-.17-1.3-.18-1.02-.13-1.11v-1l-.01-1.37V364.6l-.24-1.54-.04-1.12-.24-1.4.03-1.3v-1.47l-.17-1.55-.15-1.45-.17-1.7.01-1.03v-5.13l.02-1.33v-11.14l.02-1.4v-25.67l.02-1.95V276.21l.01-1.14v-3.76l.02-1.17V261.6l.28-2.12.19-1.1v-1.14l.16-1.03.16-1.16.16-1.32.02-1.3v-6.78l.01-1.7v-12.67l.05-1.57.14-1 .21-1.83.07-1.06v-3.56l.14-1.8.32-1.98V206.5l-.01-1.96v-5.41l.32-2.13.17-1.32V190.54l.26-2.19.23-1.94v-2.96l.05-1.68.23-1.64.2-1.68V164.69l-.01-1.96-.01-1.99v-5.4l-.01-1.97v-1.98l-.02-1.96V143.31l-.01-1.04.05-1.15.2-1.95.22-1.99v-1.04l.3-1.81.18-1.78v-5.42l.01-1.77.01-1.77-.18-1.13-.3-1.75v-1.72l.01-1.75v-1.9l-.01-1.17.3-1.98.16-1.03V107.88l.3-1.58.17-1.79.2-1.39.08-1.07.23-1.57v-1.67l.01-1.72V92.15l-.01-1.05v-1.14l-.01-1.21V87.6l-.02-1.16.15-1.8.14-1.01.16-1.13.01-1.3v-2.36l-.01-1.02V75.65l-.02-1.13-.17-1.11-.31-2.22V68.1l-.35-1.95-.16-1.82-.15-1.1-.18-1.02-.17-1.27-.35-1.55-.18-1.2-.02-1.25c0-.93-.38-1.3-.84-1.31-.85.95-.83 1.06-.78 1.17 1.2.88 1.5.58 1.52.2Zm0 0"/><path style="stroke:none;fill-rule:nonzero;fill:#000;fill-opacity:1" d="M163.4 413.8c-1.56.48-2.08 1.41-1.82 2.3l.82 1.02c.28.25.69.36 1.09.26l-1-.44a1.5 1.5 0 0 0 1.6.5l1.14-.2 1.23.24 1.05-.02 1.05-.06 1.55.19 1.64.07h1.3l1.3-.01h1.53l1.48-.03 1.44-.01h3.34l1.72-.01h11.34l1.74-.14 1.65-.16 1.53-.17 1.19.02H203.87l1.66-.17 1.34-.16 1.35-.13 1.23.01 1.9-.18 1.65-.16 2.04-.36 1.55-.1 1.77-.19 1.36.02 1.82-.2 1.5-.17 1.48-.2 1.28-.17 1.18-.03 1.53-.19 1.53-.24 1.32-.12 1.51-.18 1.19.02 1.74-.06 1.8-.19 1.4-.04 1.57-.2 1.2-.03h1.2l1.25-.01h1.33l1.1-.02h1.15l1.07-.01h1.16l1.26-.02 1.47-.01 1.26.13 1.65.15h5.62l1.64-.01 1.5-.03 1.61-.19 1.16-.05 1.3-.17 2.13-.03 1.65-.19 1.38-.13 1.58-.17 1.34.01h4.55l1.3-.01H285l1.21-.02 2.05-.02h1.13l1.04-.02h1.13l1.29-.01 1.3-.01 1.41-.01 1.48-.02h1.47l1.47-.01h1.5l1.47-.01 1.72-.19 1.33-.17 1.35-.16h7.62l1.4-.16 1.32-.16 1.32-.18 1.14.03h1.3l1.34-.01h1.26l1.3-.02h1.36l1.16-.01H334.98l1.25-.02h1.3l1.38.05 1.48.15 1.88.06 1.5.14 1.66.06h4.73l1.41-.05 1.47-.15 1.22-.04 1.78-.18 1.37-.04h17.73l1.66-.02h1.64l1.45.14 1.8.16 1.9.2 1.81.16 2.03.06 1.66.15 1.58.21 1.57.15 1.15.28 1.79.2 1.72.15 2.03.01 1.68.16 2 .16 2.07.17 2.18.01h2.18l1.78.01 1.78.17 1.64.14 1.83.17 2.04.01h2.07l2.12.02h2.37l2.3-.02 2.16.17 2.3.17 2 .18 2 .02h1.98l2.13.01 2.32.03 2.14.17 2.48.07 2.17.17 2.48.07h2.18l2.08.05 1.8.16 2.13.06 1.85.13 2.3.06h11.71l1.99.16 1.96.17 2.01.17h2.51l2.23.02 2.3.01H493l2.23.02h1.82l1.73.13 1.77.16 1.9.17h2.2l1.95.06 2 .16 2.13.07 2.06.14 1.98.11 1.73.17 2 .06 1.46.15 2.06.07h1.86l1.8.13 2.1.17 2.25.17 2.66.01h2.12l2.13.01h1.75l1.96.01h1.87l1.96.01 2.15.01h2.12l2.53.01h10.92l2.12.01h2.16l2.42-.06 2.43-.19 2.42-.11 2.66-.34 2.4-.18 2.32-.36 2.08-.09 2.36-.17 2.47-.24 2.4-.17 2.52-.2 2.6-.18 2.36-.05 2.55-.18 2.1-.05h1.72l2.28-.18 1.96-.14 2.15-.19H624.53l1.62.02 1.47.02h3.17l1.76.01h1.99l1.94.01 1.96.02h11.89l2.12.01 2.29-.18 2.27-.18 2.08-.14h9.21l1.97-.08 1.96-.2 1.96-.05 2.41-.19 2.12-.06h6.42l1.95-.07 1.96-.18h1.47l2.16-.18 1.77-.05h2.23l2.2-.06 2.4-.18 1.98-.05 2.26-.18 1.69-.04H719.52l1.86.02 2.12.01H728.98l1.47.01H733.42l1.65-.01h1.64l1.7-.02 1.65-.01 1.56-.01 1.81-.01 1.1.16 1.49.17 1.2.16 1.63.01h1.1l1.14-.01 1.21.16 1.3.07 1.08.16 1.05.04H757l1.11-.02 1.13-.01 1.11-.02 1.3-.01 1.12-.02 1.13-.02 1.06-.02 1.8-.04 1.45-.03 1.2-.07 1.47-.05 1.45-.02 1.25-.1c1.09-.27 1.25-.3 1.41-.37l1.34-.19 1.22-.43 1.02-.17 1.35-.02 1.25-.02 1.45.02h2.3l-1.53-1.3c.25 1.21 1.02 1.8 1.87 1.73l1.33-.02 1.47-.02 1.05-.05c.86.2 1.02.24 1.2.26l-.74-1.2-.47 1.17-.91 1.04-.95 1.29c-.92.95-.91 1.65-.47 2.08.42.41 1.1.41 1.53 0l1.01-.98.84-1.18c.7-.3.92-.47 1.07-.7l.9-1.28c.3-.68.35-.9.34-1.13l-.23-1.16-1-.99c-.74-.35-.98-.4-1.21-.4l-1.15.04-1.32-.06-1.47-.02.71 1.54c-.21.74-.08.48-.01.2.25-1.1-.35-2.04-1.3-2.26l-1.11-.09h-2.26l-1.46.02-1.16-.01-1.23-.03c-.76-.03-1.02.02-1.27.12l-1.45.44c-1.08-.14-1.22-.11-1.36-.07-.62.06-.82.09-1.02.15l-1.31.08h-1.02l-1.28-.04-1.34-.09-1.45-.03-1.8-.03-1.05-.02-1.14-.02-1.1-.02-1.32-.02-1.1-.01-1.14-.02H757l-1.14-.02-1.84-.22-1.15-.06-1.62-.24-1.3-.01-1.1-.01-1.3-.01-2.45-.33-1.4-.16-2.08-.03h-1.56l-1.64-.02-1.7-.02h-3.3l-1.48-.01H728.97l-1.7.01h-3.75l-2.14.01-1.88.01h-1.94l-1.81.01H707.13l-1.89.06-2.24.18-1.97.05-2.4.17-2.02.05h-2.23l-1.97.05-2.14.2-1.5.02-1.98.18-1.72.05h-2.05l-2.07-.01-2.3-.01-2.3.05-2.4.17-2.02.03-1.97.17-1.72.03h-7.19l-2.13-.01-2.27.14-2.3.17-2.1.16h-11.88l-1.92.01-1.97.01-1.96.02h-6.88l-1.5.03-1.63.02H612.6l-2.12-.02-2.32.17-1.97.14-2.1.17-1.58-.01-2.28.05-2.54.18-2.35.05-2.74.17-2.53.2-2.44.16-2.47.22-2.25.17-2.29.1-2.35.31-2.33.13-2.63.32-2.29.1-2.37.16-2.22.04H553.72l-2.44.01h-2.52l-2.13.02H542.52l-1.87.01h-1.96l-1.76.01h-2.12l-2.13.01h-2.46l-2.05-.15-2.1-.18-2.01-.14-1.97-.01-1.8-.06-1.45-.16-2.03-.07-1.65-.17-2.05-.12-2.14-.13-2.11-.06-1.99-.16-2.14-.07h-2.06l-1.67-.16-1.8-.18-1.94-.15h-6.56l-2.52.01-2.3.01-2.24.01h-2.28l-1.8-.16-1.99-.17-2.2-.17-2.32-.02H463.52l-2.11-.05-1.84-.14-2.09-.07-1.8-.17-2.29-.07h-2.2l-2.3-.04-2.17-.16-2.47-.05-2.17-.16-2.51-.03H435.43l-1.8.01-1.83-.15-2.31-.17-2.36-.16-2.46-.02h-4.49l-2.07.01h-1.81l-1.62-.15-1.66-.14-1.98-.17H404.88l-1.87-.16-1.97-.18-1.9-.17-2.03-.01-1.47-.13-1.42-.18-1.2-.3-1.78-.2-1.58-.22-1.92-.19-2.03-.07-1.62-.16-1.9-.21-1.8-.18-1.7-.19-1.9-.01-1.64-.01h-1.48l-1.58-.01H357.3l-1.62.05-1.8.2-1.23.04-1.47.16-1.14.05h-4.53l-1.44-.06-1.51-.13-1.84-.07-1.46-.17-1.64-.07h-1.4l-1.25-.01H331.26l-1.05-.01h-3.5l-1.36-.01-1.3-.01-1.24-.01H318.68l-1.65.19-1.33.17-1.1.15-1.98-.03h-2.3l-2.12-.02h-1.18l-1.68.2-1.32.17-1.4.17-1.14-.02h-1.5l-1.47-.02h-1.48l-1.47-.02h-1.41l-1.3-.02h-1.28l-1.14-.01h-1.05l-1.13-.02h-1.04l-2.19-.03h-2.59l-1.3-.01h-3.01l-1.53-.01h-1.65l-1.84.19-1.44.14-1.4.18-1.07-.02-1.16.06-1.53.2-1.16.05-1.3.18h-2.75l-1.85-.01h-1.81l-1.7-.01-1.9.16-1.53.14-1.21-.02-1.25-.01h-1.17l-1.08-.02h-1.15l-1.08-.01-1.34-.01h-1.24l-1.32-.01-1.52.06-1.55.18-1.36.04-1.78.18-1.47.04h-1.4l-1.76.19-1.42.13-1.6.24-1.25.17-1.2.04-1.51.2-1.44.2-1.43.15-1.52.16-1.34-.01-1.96.18-1.77.14-2.1.38-1.45.15-1.64.17h-1.22l-1.67.16-1.4.18-1.36.18-2.22-.02h-1.48l-1.79.2-1.6.18-1.5.15-1.23-.01h-15.57l-1.44-.04-1.43-.01h-1.58l-1.32-.01h-1.34l-1.52.13-1.15.16-1.52.53-1.18.54-1.32.03-1.19.87c-1.1 1.65-.69 2.32-.02 2.47a1.24 1.24 0 1 0 .56-2.42c-.9-.21-1.6.22-1.77.92a1.3 1.3 0 0 0 2.1 1.28 1.71 1.71 0 0 0 .6-2.36 1.68 1.68 0 0 0-3.08.52c-.32 1.45.27 2.57 1.32 2.98 1.8.63 3.2-.05 3.63-1.33a2.45 2.45 0 0 0-3.1-3.12Zm0 0"/><path style="stroke:none;fill-rule:nonzero;fill:#000;fill-opacity:1" d="M790.73 412.19v.65l.01.02v.17-.01l.01.34.21-.52-.57.57-.08.1-.29.41.07-.1-.32.34-.07.1-.3.41-.35.51.2-.2-.44.3-.1.08-.34.33.15-.1-.5.29-.07.05-.66.5-.14.12-.55.65.06-.06-.66.64-.07.07-.57.7-.02.02-.5.65.06-.07-.55.58-.03.04-.7.8-.1.16-.38.68.03-.04-.5.79.04-.07-.45.63.1-.12-.65.65-.12.14-.37.53.14-.15-.52.47-.13.15-.36.52.12-.14-.5.48-.18.23-.3.53.02-.03-.3.5-.01.02-.28.5.1-.13-.48.54-.04.06-.2.29-.09.14-.2.47-.05.28v.06a.72.72 0 0 0 1.45 0v-.77a.73.73 0 0 0-1.45 0v.77a.72.72 0 0 0 1.45 0v-.06l-.1.36.25-.44-.21.24.29-.2.05-.05.55-.47.13-.14.34-.47-.03.05.37-.46.06-.07.34-.5-.15.17.52-.47.12-.14.37-.5-.11.12.5-.48.14-.17.37-.54-.12.15.65-.66.1-.12.45-.62.05-.08.47-.8.02-.04.36-.68-.1.15.67-.83-.03.03.53-.6.06-.08.47-.66-.02.03.55-.72-.07.08.65-.66.05-.06.53-.66-.12.13.64-.53-.05.04.46-.33.13-.1.34-.35-.1.08.42-.32.19-.2.33-.53.27-.43-.07.1.3-.36.07-.09.27-.43-.06.08.3-.35.01-.02.21-.26c.1-.13.16-.28.16-.43v-.34.01l.01-.17v-.67a.73.73 0 0 0-1.46-.02v.02Zm0 0"/><path style="stroke:none;fill-rule:nonzero;fill:#000;fill-opacity:1" d="m793.04 413.44-.48-.06.16.04-.48-.18h.03l-.33-.13.27.2-.32-.36-.22-.17-.3-.17.1.06-.5-.35-.07-.05-.53-.3-.03-.02-.64-.34.14.09-.6-.46-.22-.13-.82-.32.2.12-.81-.6-.04-.03-.98-.66.11.1-.95-.9-.03-.02-.99-.84h-.01l-1.16-.95.03.03-1.12-1 .04.03-1.16-1.14.07.08-.95-1.17-.98-1.2v-.01l-.99-1.17.05.05-.74-1.03.07.12-.63-1.18-.54-.97-.02-.05-.5-.82.03.05-.42-.77.02.04-.33-.68-.08-.15-.37-.54.16.35-.18-.65-.06-.18-.17-.37.1.48v-.41l-.01-.34v.02l-.02-.48v.2l.03-.3-.32.63.16-.15c.13-.12.23-.28.28-.44l.08-.24-.45.56.33-.2.32-.21-.32.14.46-.1-.19.02h1l-.36-.08.51.23-.08-.05.48.29a.87.87 0 1 0 .87-1.5l-.48-.28-.08-.04-.51-.23-.36-.07h-.99l.19.01-.46-.1a.97.97 0 0 0-.6.07l-.32.14.02-.02-.35.15c-.18.07-.34.2-.45.36l-.14.2.24-.24-.18.13c-.2.15-.35.36-.41.6l-.07.29-.03.23-.02.48v-.02l-.02.34V395.16c0 .16.04.32.11.46l.17.37-.07-.2.17.66.16.35.37.54-.07-.12.35.68.02.04.44.76.02.04.52.82-.03-.05.55.96v.01l.68 1.15.08.12.78 1 .04.05 1 1.15 1 1.17.97 1.15.07.08 1.17 1.12.04.04 1.14.98.03.03 1.17.92 1 .8-.04-.02.97.87.12.09 1 .64-.04-.02.83.59.21.11.83.3-.24-.12.6.45.19.1.66.29-.03-.01.55.26-.08-.05.52.33.14.07.32.12-.25-.15.36.32.33.17.34.09-.05-.02.49.16.16.04.48.04c.4.04.76-.25.8-.66a.74.74 0 0 0-.63-.79ZM174.75 449.09v-.29l-.03.2.05-.2a.78.78 0 1 0-1.52 0l.04.15.16.3.15.2-.18-.43.05.4c.02.16.08.31.19.44l.22.26-.2-.48.05.5.02.16.13.49-.03-.16.04.48.04.2.16.51-.04-.2.04.49.03.2.22.7-.04-.21.04.77.03.19.24.88-.02-.1.14.99v-.1l.04.89.01.1.22 1.41-.01-.16-.01 1.25-.01 1.47-.01 1.3-.01 1.34v.16l.18 1.13v-.04l.13 1.3v.05l.17 1.05-.02-.17v1.98l.01.82v-.01.76l.04.74v-.03.48l.02.7v.1l.05.37v.02l.08.5.14.38.25.36-.06-.1.13.24.16.22.22.2a.75.75 0 0 0 1.17-.91l-.1-.17.09.3v-.76l-.03-.17-.2-.71-.01-.05-.29-.77a.64.64 0 0 0-1.2.45l.28.76-.01-.05.2.71-.03-.17v.76l.08-.3-.1.17a.76.76 0 1 0 1.27-.07l-.17-.24.14.5.03-.27a.88.88 0 0 0-.1-.48l-.2-.38.09.55.07-.5v-.02l.05-.37v-.1l.02-.7v-.48.03l.04-.74v-1.58l.01-.96v-1.01l-.02-.17-.18-1.04.01.06-.14-1.3V464l-.18-1.13.01.15v-1.33l-.02-1.3-.01-1.48v-1.25l-.02-.16-.24-1.41.01.09-.06-.88-.02-.12-.19-.99-.03-.1-.27-.87.04.2-.07-.77-.05-.21-.24-.71.04.15-.08-.48-.04-.16-.18-.5.04.16-.07-.48-.04-.14-.15-.48.03.15-.07-.5a.81.81 0 0 0-.22-.46l-.23-.25.21.43-.06-.4a.83.83 0 0 0-.3-.5l-.18-.15.2.23-.08-.13a.79.79 0 0 0-1.45.58l.05.19-.02-.2v.29a.73.73 0 1 0 1.47 0Zm0 0"/><path style="stroke:none;fill-rule:nonzero;fill:#000;fill-opacity:1" d="m173.26 450.73.1-.46.02-.15.03-.5.02-.48.03-.47v-.01l.02-.28-.11.4.24-.46-.8.5h.28l.25-.05.5-.15-.17.03.71-.1h.05l.82-.16-.13.01.76-.04.14-.01.83-.16-.14.01.82-.04h-.07.97l1 .02h1l-.32-.06.76.24.93.3-.41-.25.53.5.06.04.64.52-.05-.05.53.49-.2-.26.27.48-.1-.21.17.51-.04-.16.12.65v.05l.14.65-.02-.17.05.82.03.21.17.66-.04-.21.06.87.05-.42-.23.7v-.03l-.3.82.05-.1-.46.94-.25.55.14-.24-.58.71.08-.09-.5.49.19-.15-.82.51.23-.11-.76.26-.15.06-.81.4.27-.1-.82.18h-.06l-.59.16.26-.03-.94.01.2.01-.72-.11-.81-.14.1.02-.71-.2-.05-.02-.5-.11-.18-.03-.29-.01.3.06-.44-.17a.88.88 0 0 0-1.13.5l-.02.05v.02l.63-.56-.22.04a.78.78 0 1 0 .4 1.51l.2-.07-.23.04h.48l-.23-.04.56.2h-.02l.7.27a.71.71 0 0 0 .53-1.32l-.7-.28h-.04l-.56-.2-.24-.05h-.48l.23.04-.2-.07a.78.78 0 0 0-.51 1.48c.04.02.07.03.11.03l.22.04-.63-.55v.01c.07.22.22.4.41.5l.41.23.12.06.27.1-.08-.04.46.22.1.04.7.25.1.03.82.2.7.16.24.04h.94l.25-.02.6-.13h-.01l.82-.17.24-.08.82-.39-.11.05.76-.26.24-.1.82-.52.17-.12.52-.48.09-.1.6-.7.16-.25.26-.53.45-.93.04-.09.32-.82.02-.07.22-.72c.04-.13.06-.27.05-.41l-.06-.88-.04-.21-.17-.66.03.2-.06-.82-.03-.15-.14-.65.01.05-.12-.65-.04-.17-.17-.5-.1-.22-.28-.48-.23-.27-.54-.48-.06-.04-.65-.5.05.04-.54-.47c-.13-.1-.26-.18-.41-.23l-.94-.27h-.01l-.77-.22-.29-.04h-1.99l-.97.01h-.07l-.82.07-.14.02-.82.18.12-.02-.77.07-.12.02-.82.19.05-.01-.71.13-.19.05-.47.18.2-.05-.28.04a.96.96 0 0 0-.72.55l-.22.46c-.06.14-.09.3-.08.45l.02.28.03.49v-.01l.03.48.02.5.02.15.1.46c.1.4.49.64.89.55a.73.73 0 0 0 .55-.55ZM189.35 465.08l-.48-.05.17.04-.49-.18-.1-.03-.27-.06.17.07-.42-.21-.3-.09h-.34.1l-.28-.05h-.07l-.31-.03h.07l-.1-.01-.12-.02-.45-.01-.3.03h-.02l.26-.03h-.22a.88.88 0 0 0-.9.83v1.62l.05.48.04.2.16.48.05.1.25.52.19.26.5.48.07.06.64.5.64.51.32.17.88.26h-.03l.76.24h.01l.76.25.22.04.9.07-.3-.07.56.23.38.08.94.01h-.02l.54.02.66.01.31-.04.54-.15.06-.02.5-.18c.23-.08.42-.23.55-.43l.26-.4-.38.36.46-.26c.31-.17.52-.5.54-.86l.04-.51-.04.2.13-.48.03-.15.06-.49v-.65l-.02-.48v.02-.48l-.07-.37-.2-.5-.09-.18-.3-.46-.15-.2-.5-.46-.2-.15-.53-.27-.05-.03-.49-.22-.17-.05-.53-.13-.68-.17.05.01-.54-.16-.3-.04-.7.02h-.48l-.5.01h-.01l-.48.01h-.03l-.48.03a.85.85 0 0 0-.5.2l-.28.24.3-.16-.23.07a.83.83 0 0 0-.51.46l-.12.27.14-.21-.16.18.24-.2-.16.09a.75.75 0 0 0-.4.81l.03.22v-.04l.02.2v-.03l.02.28.15.36.22.28-.14-.33.06.43c.02.2.13.36.29.46l.43.29-.21-.22.28.49c.2.31.6.41.91.23.32-.19.42-.6.24-.91l-.29-.48-.2-.22-.43-.28.3.46-.06-.42-.14-.33-.23-.28.15.47.02-.28v.02l.02-.2v.05l.03-.22-.6.6.18-.03.36-.18.19-.16.12-.14.17-.24-.52.34.23-.04.34-.15.3-.22-.56.17.48.02h.03l.48.02h.51l.49.01.7.02-.26-.05.53.18.06.01.68.18-.03-.01.54.16-.16-.07.48.24-.06-.03.5.3-.21-.18.47.5-.15-.2.26.48-.05-.12.2.51-.08-.36v.48-.02l-.01.48v.53-.11l-.06.48.04-.2-.15.49-.03.15-.08.5.53-.76-.46.26c-.15.09-.28.2-.37.35l-.26.4.58-.44-.51.16-.03.01-.54.19.33-.06-.66.02-.54.01h.02l-.94.01.38.07-.57-.22-.31-.07-.91-.04.21.04-.76-.22h-.02l-.77-.2h.02l-.88-.25.32.16-.66-.5-.03-.03-.67-.46.1.08-.51-.48.19.25-.26-.5.04.1-.18-.48.06.2-.07-.49v.11-.99.01-.54a.88.88 0 1 0-.87.93h.22l-.26-.04.03.01.29.03.45-.01.11-.02.11-.01h-.07l.31-.02h.07l.27-.06-.1.01.34-.01-.33-.06.43.18.16.05.29.05-.1-.02.47.16.16.03.48.06a.74.74 0 0 0 .17-1.46ZM204.2 465.94l-.17-.3.04.09-.13-.36a.78.78 0 0 0-.44-.44l-.35-.15.5.67-.02-.2a.84.84 0 0 0-.8-.76l-.44-.03-.25-.02H201.56h.02-.76l-.43-.01a.9.9 0 0 0-.86.58l-.07.2.05-.11-.18.33-.1.3-.06.42-.01.12-.02.51-.01.48v.12l.05.49.04.2.16.5.1.23.28.43.25.27.47.36-.02-.02.47.37.26.15.5.2-.3-.18.47.4c.18.16.4.25.63.27l.7.04-.37-.1.53.25c.13.06.28.1.43.1l.65.01h.59l.48.01h.98c.18.01.34-.02.5-.1l.48-.22.2-.13.35-.25c.11-.09.2-.2.28-.32l.31-.51.14-.33.1-.48-.07.22.23-.48v-.03l.23-.5.08-.28.05-.32-.06.24.13-.35c.12-.3.1-.63-.04-.91l-.15-.3.06.17-.15-.5a1.07 1.07 0 0 0-.2-.37l-.41-.47.12.17-.27-.48-.2-.26-.53-.48h.02l-.5-.46-.22-.16-.5-.28.11.08-.26-.2-.24-.12-.46-.17.12.05-.31-.17-.12-.05-.46-.16a.96.96 0 0 0-.6-.02l-.3.09-.18.08-.33.18-.06.03-.1.07-.21.19-.36.43-.12.2-.15.35-.03.07-.15.43-.04.3.02.52.02.13.06.3-.01-.09.03.34v-.07.82l.03.22.23.71v.03l.29.77c.14.37.55.56.92.42a.71.71 0 0 0 .42-.92l-.28-.76v.03l-.22-.71.04.21v-.82.07l.03-.34-.02.1.07-.31.02-.13.02-.51-.08.31.2-.42-.04.06.19-.33-.12.17.38-.42-.35.24.12-.04.06-.03.35-.16-.32.08.31-.02-.41-.06.45.17-.12-.05.3.17.13.06.46.18-.27-.16.25.2.13.1.5.29-.21-.18.47.5-.01-.02.48.53-.16-.23.25.49.11.17.39.49-.2-.41.13.51.07.31.06-.7-.15.35-.07.22-.06.31.07-.23-.22.5v-.01l-.22.48-.08.22-.12.48.14-.33-.31.5.28-.31-.34.25.19-.1-.48.22.48-.1h-2.06l-.65.02.42.08-.54-.21-.37-.08-.71-.01.64.23-.5-.39a1.15 1.15 0 0 0-.36-.18l-.52-.14.33.16-.49-.36-.03-.02-.49-.33.26.25-.3-.42.13.24-.18-.5.05.19-.07-.48v.1-.48l-.02-.51v.13l.04-.43-.08.3.16-.35.07-.2.04-.21-.87.72h.71l.48-.01h-.02H202.14l.25-.02.45-.02-.81-.47.09.18c.1.22.31.38.56.43l.37.08-.5-.34.21.32-.02-.04.17.3c.2.36.64.5 1 .3.35-.2.48-.64.29-1ZM214.66 468.55l.2.5-.05-.2.05.48.04.15.17.53-.03-.33-.05.48c-.01.15.01.31.08.45l.16.31-.1-.32.03.23c.02.24.13.47.32.64l.23.2-.33-.81v.05c-.05.53.34 1 .87 1.05.53.05 1-.34 1.04-.87v-.37l-.04-.26-.18-.57.01.04-.18-.65-.07-.19-.31-.6.09.24-.19-.82-.17-.81v-.02l-.23-1 .02.2-.02-1.03v-.09l-.15-1.16v.07l-.04-1.02v.05l.01-1v.07l.07-.87v-.03l.03-.64v-.01l.03-.66v.03l.03-.5v-.03l.02-.48-.29.72.24-.27-.15.14.25-.2-.25.15.51-.22-.38.1.7-.06.33-.07.6-.23-.42.08h.84l.66-.01h-.01l.82-.01h-.06l.65.02-.15-.01.83.14.2.01.66-.01h-.15l.84.1-.2-.05.6.2.06.02.66.17-.2-.08.76.4.14.06.76.25a.97.97 0 1 0 .61-1.83l-.76-.26.14.06-.77-.4-.2-.07-.65-.17.06.02-.6-.2-.02-.01-.8-.24-.1-.02-.64-.13.05.02-.81-.2-.13-.02-.64-.09-.14-.01-.82-.01-.65-.01h-.84c-.15 0-.3.02-.43.07l-.59.23.32-.07-.7.06-.39.1-.51.22-.24.15-.25.2-.25.24-.2.3c-.16.21-.23.47-.22.73l.02.48v.02l.04.51v-.03l.03.66.03.65v.03l.06.87v-.06l.01 1v.05l.07 1.02.01.1.2 1.15-.01-.13.03 1.02.02.18.23 1v-.03l.16.83v-.01l.16.82.1.26.3.6-.08-.22.17.66v.03l.17.57-.04-.3v.26c-.02.53.4.98.93 1 .53 0 .97-.41.99-.94v-.12l-.01-.05a.96.96 0 0 0-.32-.63l-.23-.2.25.34-.1-.21-.18-.28-.23-.25.23.53-.04-.48-.1-.33-.27-.49.1.29-.07-.49-.09-.26-.25-.47a.74.74 0 0 0-1-.3.73.73 0 0 0-.33.92ZM696.69 456.93l-.02.3v.01l-.01.34-.02.37v.01l-.02.66-.02.62v.01l-.01.82-.02.8-.02.99-.02 1.98-.01.97-.01 1-.01.93-.01.82-.02.9v2.77-.01l-.02 1v2.73l.01.94v.82l.02.1.08.71.03.15.18.65-.03-.17.08.76.1.36.29.51-.1-.35.04.65.13.38.21.33-.12-.3.08.42c.07.42.46.7.88.65l.22-.03a.76.76 0 0 0 .63-.96l-.05-.18.03.16-.03-.51-.02-.48-.02-.48v-.03l-.06-.68-.02-.1-.17-.66.02.12-.06-.87-.13-.36-.43-.54.1.16-.29-.7a.64.64 0 1 0-1.18.47l.28.7.1.16.42.54-.13-.35.05.88.02.12.17.65-.02-.11.06.68v-.08l-.02.48-.03.48-.02.5.03-.15-.06.18.83-.54-.22-.03.68.7-.04-.42-.1-.3-.17-.35.09.45.05-.65-.04-.32-.16-.56.04.22-.04-.76-.03-.17-.15-.65.02.17-.03-.7v.05l.01-.82v-.94l.01-.83v-2.91.02-1.94l-.02-.83-.02-.9v-.82l-.02-.94v-1l-.02-.95-.01-1-.02-1v-.98l-.02-.8-.02-.82-.02-.63-.01-.66v-.01l-.02-.37-.02-.34-.02-.31a.77.77 0 0 0-1.54 0Zm0 0"/><path style="stroke:none;fill-rule:nonzero;fill:#000;fill-opacity:1" d="m696.23 459.51.07-.47.03-.33v-.02l.03-.42-.5.72.18-.08c.17-.08.3-.21.4-.37l.17-.3-.61.45.4-.08.19-.07.32-.14-.13.05.34-.1h.04l.48-.15-.2.04.4-.03.1-.02.65-.12-.15.02.77-.04h-.08l.82.03.94.03.96.02.2-.01 1-.16 1-.14.05-.02 1-.2-.1.02.97-.11h-.1l.95-.04.18-.02.82-.16-.17.03.88-.05h-.1l.66.01H710.25h-.02H711.61h-.04.3l-1.13-.69.12.23c.12.22.3.4.53.52l.46.25-.67-1.03.03.5.1.38.19.48-.04-.83-.15.48.06-.15-.24.51.25-.35-.5.5-.04.03-.46.5-.02.02-.47.53.15-.14-.7.56-.01.01-.8.67.13-.1-.93.55-.07.05-.98.7.1-.07-1 .55.08-.05-1.15.5-.07.03-1.01.52.06-.03-1.16.49-.03.01-1.05.48-.05.03-.96.51h.01l-.93.48-.05.03-.82.48-.07.04-.72.5-.12.1-.49.48-.17.2-.3.48-.08.2-.18.5-.05.2-.08.47-.01.13-.02.48v.12l.04.51.05.25.14.49.1.24.3.51c.09.14.2.26.32.36l.67.5.8.52.08.05.96.54.2.08.99.33h-.03l.98.35.2.06 1.02.18-.11-.02 1.15.33.13.02 1.05.19-.14-.03 1.13.33.13.02.99.19-.3-.09.83.35.14.06.88.26-.25-.1.65.34.05.03.82.4.3.1.66.14-.13-.03.65.2v.01l.5.16.15.04.54.1-.13-.03.71.21.32.05.31.01-.52-.14.69.39c.2.11.45.16.68.12l.27-.04-.65-.13.33.2.15.07.18.07-.28-.18.06.06.23.22-.2-.33.06.2.14.27.22.28a.76.76 0 0 0 1.2-.95l-.23-.28.14.26-.06-.2-.2-.33-.22-.22-.06-.06.21.41-.03-.18-.11-.31-.2-.33a.98.98 0 0 0-.49-.41l-.26-.1.3.18-.6-.51-.02-.02-.25-.2-.1-.07-.63-.4a1.38 1.38 0 0 0-.42-.17l-.53-.13.18.06-.48-.18h-.01l-.65-.25-.18-.05-.66-.15.31.1-.82-.39.02.01-.65-.33-.25-.1-.88-.24.13.04-.83-.32-.28-.08-1-.16.13.03-1.13-.3-.14-.03-1.05-.16.12.03-1.16-.3-.13-.02-1.02-.15.2.05-1-.32-.03-.02-1-.29.2.08-.97-.49.07.04-.77-.46.06.04-.69-.47.32.33-.32-.5.1.19-.2-.47.08.24-.08-.5v.12l-.01-.48v.13l.04-.49-.05.24.16-.52-.08.2.27-.48-.16.2.48-.48-.13.1.7-.51-.1.06.83-.48-.05.02.93-.48h.01l.97-.5-.06.02 1.06-.48-.04.02 1.16-.48.07-.02 1.02-.5-.07.02 1.17-.47.09-.04 1.03-.52.1-.07 1-.66-.07.04.94-.52.13-.09.84-.63-.03.02.73-.52.13-.12.5-.5-.02.03.5-.46-.02.01.52-.47c.1-.09.19-.2.26-.32l.27-.5.05-.13.2-.47c.1-.27.11-.56.03-.83l-.15-.5.05.34-.01-.51a1.29 1.29 0 0 0-.63-1.06l-.45-.27.52.57-.11-.23a1.3 1.3 0 0 0-1.2-.75h-.3.04-1.38.02H708.36l-.88.07-.18.03-.82.18.18-.02-.93.07-.12.01-.97.17-.09.02-.98.25.07-.01-.99.2-.99.18.2-.02-.97.03-.94.02-.82.02h-.08l-.76.09-.15.02-.65.17.05-.02-.4.08-.18.06-.47.19-.33.13-.18.1-.3.2.2-.11-.38.14c-.26.1-.46.3-.55.56l-.11.32.24-.36-.15.14a.85.85 0 0 0-.27.68l.02.42v.02l.02.28.01.05.07.47c.05.4.43.68.83.62.32-.04.58-.3.62-.62ZM720.84 472.19l-.02.48-.02.48v-.02l-.02.34-.02.3v-.04l-.04.34v.03l-.05.48v.03l-.03.5-.03.48v.12l.03.46.1.35.14.32-.09-.3.05.44a1 1 0 0 0 .93.89l.45.03-.34-.09.14.06c.4.18.87.06 1.14-.28l.26-.35.15-.3.11-.4.02-.06.17-.82.02-.12.06-.82v-1.02a.89.89 0 1 0-1.78 0v.96-.06l-.06.82.02-.12-.17.82.02-.06-.12.4.32-.47-.35.27a.94.94 0 0 0-.17 1.33c.31.41.9.49 1.32.17a.94.94 0 0 0 .29-1.14l-.06-.14a1.01 1.01 0 0 0-.86-.59l-.46-.02.94.87-.06-.45-.08-.28-.14-.31.07.22-.08-.45.01.12-.03-.48-.02-.5v-.03l-.05-.48v-.03l-.04-.34v.05l-.02-.31-.02-.34v.02l-.02-.48-.02-.48a.75.75 0 0 0-1.5 0ZM720.88 460.9l-.33.45-.09.16-.21.5a.98.98 0 0 0-.08.4l.01.32c0 .14.05.28.11.41l.18.34-.05-.12.12.3.08.18.31.5.05.08.36.47.1.11.5.47h-.01l.51.5v-.01l.47.48.3.2.7.28-.23-.15.76.65.15.1 1 .54a.88.88 0 1 0 .84-1.55l-1-.54.16.1-.77-.64-.25-.15-.7-.29.3.2-.49-.48h.01l-.5-.51-.46-.49.1.13-.32-.5.01.03-.3-.51.07.17-.11-.31-.03-.08-.16-.35.08.44.02-.32-.03.2.12-.52-.06.18.24-.5a.86.86 0 0 0-1.48-.88ZM738.46 469.04l-.5-.1-.13-.03-.96-.04.08.01-.33-.04h-.07l-.32-.03-.34-.01h.04l-.48-.04h-.09l-.5-.01c-.15 0-.3.03-.43.1l-.48.22.25-.08-.46.08c-.22.04-.41.14-.56.3l-.32.34-.03.03-.3.34-.17.31-.18.49-.06.26-.04.49.06-.27-.18.5-.06.27-.05.65v1.88l.03.27.18.67v-.03l.15.65.1.28.4.7-.03-.06.32.65.15.23.46.53-.04-.05.48.64.2.2.51.38.07.05.49.31.34.13.54.1h-.05l.65.16.17.02.71.05h.07l.82-.01.23-.03.88-.23.17-.07.65-.32.04-.02.87-.47.04-.03.8-.5.04-.02.74-.51.8-.54.2-.18.52-.7-.06.07.65-.65.1-.12.56-.88.49-.77.04-.07.48-.99a.72.72 0 0 0-.34-.96.72.72 0 0 0-.96.33l-.48.99.04-.07-.48.76-.57.88.1-.12-.66.65.03-.03-.65.6.14-.1-.84.48-.78.45h.01l-.83.45.04-.02-.89.43h.01l-.65.3.16-.06-.87.22.23-.03h-.82.08l-.7-.08.16.04-.65-.18-.04-.02-.54-.12.32.14-.47-.32.06.05-.5-.4.19.2-.48-.66-.04-.05-.44-.54.13.2-.3-.64-.03-.07-.4-.7.11.29-.13-.66-.01-.03-.16-.68.03.24v-1.79.1l.06-.66-.05.22.16-.51.05-.27.02-.48-.06.29.17-.49-.18.32.28-.34-.03.03.3-.34-.55.32.46-.1.23-.07.48-.23-.42.1h.5l.09-.01.48-.04h-.04l.34-.02.32-.01.07-.01.33-.05h-.08l.96-.03.14-.02.49-.1a.74.74 0 0 0 0-1.43ZM750.36 453.51v1-.08l-.1.98v.05l-.04.96-.04 1v.01l-.03 1.2-.02 1.32v.05l.03 1.36.01.09.15 1.3v.01l.16 1.28.03.14.3 1.14v-.01l.26 1.05-.03-.15.12 1.14.03.17.22.82.08.23.33.65.06.1.42.66.34.52-.08-.14.25.54c.12.24.3.43.53.55l.34.17-.04-.02.32.17c.17.1.37.15.58.14h.99l.5-.01c.18 0 .34-.04.5-.11l.47-.24.18-.1.47-.34.09-.07.5-.43.1-.1.46-.52-.08.08.48-.42-.12.09.51-.35.16-.12.37-.37-.43.26.5-.16.12-.05.37-.17-.47.1h.66-.01l.6.01h.67l-.37-.06.6.22-.04-.01.83.33-.24-.14.65.48-.03-.02.83.65-.16-.16.62.74-.05-.07.68.97v-.01l.55.8-.02-.01.53.8-.01-.02.46.75-.05-.1.37.81.04.08.54.9-.06-.1.34.82.06.1.53.93-.08-.2.28 1a.9.9 0 1 0 1.74-.5l-.28-1-.09-.2-.54-.93.05.1-.34-.82-.06-.11-.53-.91.07.15-.3-.83-.05-.1-.39-.79-.03-.06-.5-.83v-.02l-.53-.84.01.02-.62-1.02-.04-.06-.56-.8-.21-.21-.82-.66-.03-.02-.65-.48-.23-.14-.82-.35h-.02l-.6-.24a1.15 1.15 0 0 0-.43-.08h-.68l-.6.01h.02-.66c-.16 0-.32.04-.46.1l-.37.18.11-.04-.5.17c-.17.05-.32.15-.44.27l-.37.37.18-.15-.5.34-.13.09-.48.42-.06.06-.5.5.1-.09-.51.42.06-.05-.49.34.17-.1-.48.22.5-.1-.51-.01h-.48l-.51-.02.54.14-.32-.16-.03-.02-.34-.17.53.54-.25-.53-.1-.16-.34-.5-.43-.64.06.09-.35-.65.1.23-.24-.82.03.15-.17-1.13-.03-.15-.3-1.05-.02-.04-.38-1.12.04.14-.24-1.27v.05l-.17-1.3v.08l-.07-1.36v.03l-.03-1.33-.02-1.19v-.02l-.05-.98-.03-.97v-.05l-.11-.98v.07-.99a.73.73 0 1 0-1.46 0ZM30.77 236.77l.25.03h.08l.45.02-.12-.02.06.01.05.01.25.03h.05l.18.01h-.09.05l.22.01.28-.03c.2-.02.38-.1.52-.23l.15-.16a.9.9 0 0 0 .23-.35l.1-.27-.06.12.24-.48.1-.4.02-.48v.03l.04-.68c0-.17-.03-.34-.1-.5l-.05-.08-.15-.24-.16-.17.13.18-.07-.13c-.1-.16-.23-.3-.4-.4l-.33-.18-.31-.12-.34-.06.11.03-.48-.16-.2-.04-.54-.06h-.11l-.66-.01h-.1l-.62.06h-.09l-.82.15-.65.1-.24.07-.82.33-.14.07-.82.48-.1.06-.97.7-.02.02-1 .76-.02.03-1 .81-.11.11-.92.98-.02.04-.83.95-.05.06-.88 1.16-.08.12-.66 1.13-.7 1.22-.05.11-.5 1.13v.04l-.44 1.1-.05.13-.34 1.3-.03.11-.22 1.33-.02.2V254.24l.02.17.24 1.64v.08l.35 1.65.05.17.6 1.59.05.11.66 1.3.04.08.71 1.19.03.04.66 1 .12.14.77.82.11.1 1 .82.13.1.98.6-.05-.04.96.66.3.15 1.11.35.15.04.98.18.18.02 1.25.04h.02l1 .01h.03l1.07-.02.18-.01 1-.16.2-.05.82-.28.22-.1.82-.48.2-.14.59-.52-.07.06.65-.49.23-.23.5-.65.15-.22.3-.66.4-.83.09-.27.13-.65-.03.11.22-.7.02-.09.17-.68.03-.21.03-.54-.03.18.15-.65.02-.18.03-.54v-.12l-.02-.5-.01-.14-.09-.48-.07-.23-.2-.47-.12-.22-.24-.33-.14-.14-.32-.3a.97.97 0 0 0-.38-.2l-.46-.15.4.24-.33-.32a.92.92 0 0 0-.47-.26l-.46-.1.1.03-.49-.16-.34-.04-.51.04h.01l-.48.03h-.04l-.48.06h.02l-.5.04-.06.01-.25.04h.07-.23l.67.48-.01-.05.02.17v-.45a.63.63 0 1 0-1.27 0v.45l.03-.17-.02.05a.65.65 0 0 0 .58.82l.23.02h-.07l.25.04h.05l.51.05h-.02l.48.06h.04l.48.03h-.01l.5.04-.32-.1.47.24.15.05.44.14-.45-.3.3.36c.09.1.2.2.34.25l.44.2-.33-.24.3.33-.13-.17.21.36-.1-.24.14.49-.04-.23.03.48v-.12l-.03.51.02-.11-.08.53.03-.16-.2.65-.03.15-.08.54.02-.11-.18.67.03-.07-.24.7-.03.11-.15.65.1-.26-.4.82h-.01l-.32.66.15-.23-.52.65.25-.23-.66.47-.07.06-.6.5.17-.12-.82.49.22-.1-.82.28.19-.05-1 .18.18-.02-1.08.04h.03l-.99.01h.03-1.25.18l-1-.15.15.03-1.1-.33.3.15-.96-.64-.05-.04-1-.59.15.1-.99-.82.11.1-.75-.82.11.15-.64-1 .03.05-.7-1.2.03.08-.65-1.3.05.1-.6-1.58.06.18-.34-1.65.02.08-.23-1.65.01.16v-2.94l.01-2.95v-1.47l-.02.2.23-1.34-.01.1.33-1.3-.04.12.42-1.1-.02.02.47-1.13-.06.11.68-1.23-.02.02.65-1.13-.08.12.88-1.17-.04.05.81-.97-.02.03.9-1-.12.12.99-.83-.03.03 1-.77-.03.01.96-.7-.1.05.82-.48-.13.06.82-.35-.23.07.65-.12.81-.14-.08.01.62-.06-.1.01h.66l-.12-.01.54.05-.18-.03.49.13.13.03.34.04-.28-.07.35.15-.32-.23.1.1.04.05.18.16-.08-.09.06.08-.24-.6.01.34.02.34v-.03l.02.48.08-.4-.22.49-.07.3-.02.3.15-.44-.12.18.46-.35-.27.09.11-.03h-.05.09-.18l-.05.01-.25.03-.05.01-.06.01.12-.01-.45.01h-.08l-.25.04a.74.74 0 0 0 0 1.46ZM42.43 254.7l-.02.82-.02.82-.02.82-.02 1v.11l.13.97v.02l.15 1 .05.19.32.82-.05-.19.12.83.13.35.38.6-.05-.08.33.66-.03-.05.22.52.2.3.33.34-.27-.5.1.45c.06.32.27.58.56.72l.18.08a1.05 1.05 0 0 0 1.5-.9l.02-.34v-.02l.02-.6v-.87l-.2-1.05-.03-.15-.33-1 .03.11-.28-1.25-.01-.05-.31-1.13.03.16-.17-1.39-.03-.15-.34-1.3.03.2-.08-1.2-.02-.07-.17-1.16.01.08-.06-.88v.08-2.07l-.08.4.16-.4.12-.3-.68.62.4-.12.18-.08.34-.18-.29.1.42-.08-.14.02.48-.03-.37-.05.66.21-.12-.04.69.32.02.01.84.38-.12-.07.68.44.03.01.9.53-.07-.05.82.61.05.03.93.6-.07-.06 1 .82.98.83-.06-.06.97 1c.29.3.77.3 1.06.01.3-.3.3-.77.02-1.07l-.97-.99-.06-.05-.99-.83-.99-.82-.07-.06-.94-.6.1.09-.76-.69-.07-.06-.85-.6.05.04-.61-.52-.13-.1-.79-.47-.04-.02-.68-.36-.1-.05-.65-.24-.3-.07-.47-.02h-.13l-.43.02-.38.1-.34.16.18-.06-.4.1c-.3.08-.55.28-.69.55l-.15.3-.02.04-.18.39c-.07.14-.1.3-.11.47V252.49l.05.88v.09l.18 1.16-.01-.08.08 1.19.03.2.34 1.3-.03-.14.18 1.39.03.17.31 1.13-.01-.05.29 1.25.03.12.35.99-.04-.15.21 1.04-.02-.2.01.66.02.6v.02l.01.34a1.05 1.05 0 1 0 2.1-.1 1.05 1.05 0 0 0-.93-1l-.2-.01.86.72-.13-.45a1 1 0 0 0-.32-.49l-.36-.29.23.26-.3-.5.02.03-.36-.64-.05-.09-.41-.59.15.35-.16-.82-.06-.18-.36-.81.06.17-.2-.98v.02l-.16-.96.01.12-.02-1-.01-.82-.02-.82-.02-.82a.74.74 0 0 0-1.48 0ZM66.64 249.66l-.48-.28-.06-.04-.52-.24-.28-.07-.64-.05h-.02l-.56-.03-.66-.03-.53-.03-.5-.03a.96.96 0 0 0-.43.07l-.48.2-.18.1-.48.34-.2.18-.33.43-.08.1-.3.5-.14.37-.1.71v-.04l-.15.82-.02.13-.05.93v1.08l.06.93.02.13.17.82.2.94.04.16.34.82.08.16.46.72.04.05.5.66.03.04.47.56.12.12.64.53.18.12.56.28.07.04.47.2.28.07.65.08h.1l.64.04h.11l.65-.04.26-.05.51-.14c.15-.05.3-.12.42-.22l.3-.25.24-.26.34-.5.13-.26.18-.48-.11.22.31-.5c.09-.14.14-.28.16-.43l.12-.65-.02.1.17-.65c.05-.18.05-.36.02-.53l-.17-.83-.1-.3-.34-.66-.02-.03-.44-.82-.11-.15-.5-.64-.14-.15-.73-.64-.2-.14-.83-.46h-.01l-.9-.48-.83-.45-.19-.08-.9-.28.11.04-.66-.3-.28-.07-.88-.1.22.06-.54-.2-.35-.06-.65.02-.16.02-.33.07a.88.88 0 0 0-.47.28l-.16.18a.82.82 0 0 0-.2.47l-.03.25v.14l.02.5.03.48.02.5.03.18.2.7v-.05l.16.82.07.18.36.7.02.03.5.9.12.16.77.76a.7.7 0 0 0 1 0 .7.7 0 0 0 0-1l-.77-.76.11.15-.5-.9v.02l-.36-.71.06.18-.17-.82v.01l-.13-.71.01.17.02-.51.03-.48.03-.5-.04.22.08-.25-.25.37.19-.16-.47.2.34-.04h-.13l.65.03-.35-.08.53.25.25.07.88.13-.29-.1.64.34.03.01.85.4-.11-.06.8.51.87.54.81.5-.19-.14.7.67-.15-.17.46.67-.09-.16.4.83.02.04.35.65-.11-.3.17.81.01-.54-.17.65-.02.1-.11.65.15-.4-.3.5-.1.23-.18.48.14-.27-.34.52.23-.26-.31.26.33-.2-.5.2.26-.07-.65.08h.1l-.66.02h.1l-.65-.03.24.04-.5-.15.1.04-.58-.23.24.13-.67-.5.13.12-.5-.52.05.05-.52-.64.03.05-.5-.7.1.18-.34-.82.05.16-.2-.93v.01l-.17-.82.02.13-.05-.94v.06-.96.05l.06-.93-.02.14.18-.82v-.04l.13-.7-.12.32.31-.51-.07.1.34-.43-.2.19.48-.34-.18.1.48-.2-.3.08.5-.04.54-.02.64-.03h.01l.56-.04h.02l.64-.04-.26-.03.55.15-.18-.07.48.28a.74.74 0 1 0 .75-1.28ZM73.82 250.59l.18.5-.05-.3v.51c.01.18.06.34.15.49l.41.66-.05-.08.33.66-.06-.15.27.89.02.04.3.83.02.06.32.76.06.11.47.83.07.1.44.6-.11-.19.3.66.14.22.44.55-.1-.14.3.52.03.05.27.43.1.13.3.35-.01-.01.17.2c.22.26.56.41.9.4l.34-.01-.66-.2.31.22c.19.13.4.2.63.2h.76l.18-.02.4-.07c.34-.05.64-.27.8-.58l.16-.32-.16.24.3-.35c.1-.1.18-.23.22-.37l.17-.48-.08.17.3-.52.08-.2.15-.5v.02l.2-.66.03-.07.15-.66.02-.08.1-.65-.12.34.3-.52.02-.04.16-.32-.16.23.33-.34-.11.1.14-.12-.15.1.35-.17-.35.1.31-.03h-.16l.5.04-.26-.06.48.19-.15-.08.5.3-.21-.17.47.5-.01-.02.47.51.04.04.5.5-.02-.03.45.46.13.11.47.36-.07-.06.5.44.2.14.48.26-.17-.1.47.35.07.06.33.21c.17.12.37.19.58.2l.34.02h-.04l.14.01.07.01.34.01c.38.02.75-.14 1-.42l.17-.2-.03.03.32-.34c.12-.13.21-.28.27-.45l.16-.49-.07.17.33-.66c.07-.13.12-.28.13-.44l.06-.63-.01.1.14-.83-.02.1.22-.79.02-.12.16-1-.02.13.23-.84.03-.18.1-.83-.02.05.13-.83v-.19l-.04-1-.01.21.17-.96v-.03l.14-1-.05.21.4-.99.03-.08.28-1a.9.9 0 1 0-1.75-.5l-.28 1 .02-.1-.4 1-.05.2-.14 1v-.03l-.16.96-.02.12-.05.99.03-.2-.21.8.01-.03-.25.8.06-.16-.38.79-.1.3-.18 1 .03-.13-.24.79-.01.06-.2.82-.01.07-.11.61.12-.36-.35.64-.06.16-.18.48.25-.4-.31.33-.04.04-.16.2.9-.45-.34.02h-.07l-.14.02h.04l-.34.02.63.13-.35-.18.1.05-.5-.31-.19-.1-.49-.2.27.16-.52-.41-.07-.06-.5-.32.06.04-.52-.39.08.07-.51-.48.04.05-.49-.5-.02-.04-.5-.47-.22-.16-.52-.27-.15-.07-.5-.15-.26-.05-.51-.02h-.12l-.31.03-.34.1-.34.17-.2.13-.13.12-.05.04-.35.33-.16.21-.18.31.03-.04-.33.5-.14.35-.13.64.02-.07-.18.64.02-.07-.24.64.01-.02-.19.47.1-.2-.33.5-.12.24-.17.48.23-.37-.32.33-.14.2-.18.3.82-.53-.4.05.13-.01h-.76l.68.23-.3-.24a1.12 1.12 0 0 0-.66-.23l-.34-.01.82.38-.18-.2-.03-.03-.33-.34.11.14-.29-.42.02.03-.32-.5-.1-.12-.47-.53.16.23-.32-.65-.12-.18-.46-.59.07.11-.49-.82.05.1-.34-.76.02.05-.33-.81.02.04-.3-.87-.07-.16-.35-.65-.06-.07-.44-.64.15.34-.1-.5-.1-.27-.28-.46a.86.86 0 0 0-1.55.73ZM95.56 225.63l-.1.98v.05l-.02 1v-.01l-.03.96v.06l.04 1.05v.08l.16 1.17v.04l.25 1.31.02.1.5 1.65.44 1.54v-.02l.46 1.62v.04l.56 1.7.02.06.63 1.65-.01-.04.52 1.59.05.13.65 1.3-.06-.13.45 1.39.03.08.48 1.14-.07-.24.22 1.3.06.23.48 1.17-.04-.12.35 1.3.33 1.16v.03l.4 1.3-.03-.15.17 1.13.07.23.41 1.06-.04-.12.2.81v-.02l.2.93.06.19.24.5-.06-.16.14.65.07.19.17.34-.09-.37v.72a.81.81 0 0 0 1.62 0v-.72l-.08-.35-.17-.34.06.18-.14-.65v.03l-.1-.55.01.02-.14-.94v-.01l-.14-.83-.2-1.13v.03l-.17-1.13-.03-.16-.4-1.3.02.04-.3-1.16-.32-1.3-.06-.16-.49-1.16.07.22-.24-1.3-.07-.23-.48-1.13.03.08-.45-1.38-.06-.15-.67-1.3.06.13-.55-1.58-.02-.06-.67-1.63.02.05-.58-1.7v.03l-.5-1.6v-.02l-.52-1.52-.52-1.63.02.1-.27-1.31v.04l-.18-1.16v.09l-.07-1.05v.03l-.02-.96-.03-.99v-.05l-.09-.99a.74.74 0 0 0-.8-.66.74.74 0 0 0-.66.66Zm0 0"/><path style="stroke:none;fill-rule:nonzero;fill:#000;fill-opacity:1" d="m96.78 244.43.13-.11a.9.9 0 0 0 .3-.63l.03-.45-.13.4.03-.03.07-.16.09-.25-.34.47.19-.15-.49.2.26-.03.15-.03.51-.15-.2.04.53-.05h-.1l.65.01h.04l.54-.01.67-.02.25-.03.54-.15.09-.02.48-.17.3-.17.48-.38-.2.12.46-.21.33-.25.32-.38.3-.36.03-.03.23-.3.03-.04.26-.38-.07.09.36-.4.18-.37.12-.69v.04l.14-.6.02-.16v-.82l-.03.19.22-.83v.02l.29-.97a.7.7 0 0 0-1.34-.39l-.28.96v.02l-.23.82-.03.18v.82l.02-.16-.14.6.02-.06-.22.67.25-.36-.43.33-.01.02-.35.28.08-.06-.31.2-.17.13-.33.33-.35.35.45-.25-.5.12-.24.1-.53.3.16-.08-.48.17.08-.03-.54.14.3-.03-.68-.02-.54-.01H97.8l-.11.02-.54.06-.25.06-.5.19.06-.02-.25.07c-.2.07-.39.2-.52.36l-.14.2a.98.98 0 0 0-.2.5l-.03.26a1 1 0 0 0 .12.59l.02.04-.12-.41.03.45c.01.24.12.47.3.63l.13.11c.28.25.7.25.98 0ZM108.7 224.36l.5.3-.2-.17.45.53-.08-.1.32.54-.08-.18.25.84.01.02.28.84.03.07.43 1.02.02.04.46.97-.03-.06.49 1.23-.03-.07.43 1.32v-.04l.45 1.65.03.07.53 1.53-.03-.11.47 1.9.02.08.49 1.53-.01-.04.46 1.65.02.07.45 1.34.01.01.48 1.37.02.05.46 1.14-.02-.07.33 1v.03l.3.82.11.23.33.54.15.2.48.52-.05-.05.35.42c.11.13.24.24.4.32l.31.16-.32-.23.17.17c.24.24.57.38.9.38h.34c.24 0 .47-.06.67-.18l.13-.08-.02.01.33-.2c.26-.14.45-.38.55-.67l.17-.5-.03.05.32-.79.07-.33.09-.88-.02.09.14-.83-.03.15.27-.89-.05.14.3-.65.01-.03.28-.66-.07.14.3-.52.07-.13.18-.42-.26.37.35-.33-.19.14.32-.2-.62.18h.51l-.5-.11.43.2-.32-.23.33.34-.11-.14.41.6-.08-.14.34.66-.04-.09.36.88.34.82.02.05.43.93-.04-.1.35.97-.02-.05.3.98.03.08.39.97.03.06.35.74-.03-.06.31.82.06.12.34.6-.08-.2.25.93v.02l.23.77a.87.87 0 0 0 1.66-.5l-.22-.76v.01l-.25-.93-.08-.2-.34-.6.05.12-.3-.82.05.34.02-.82-.04-.33-.29-1 .02.08-.2-1-.04-.15-.34-.96-.04-.1-.41-.94v.03l-.34-.82-.37-.89-.04-.09-.35-.65-.09-.13-.43-.6-.13-.15-.34-.33-.33-.22-.43-.2c-.15-.07-.31-.1-.48-.1h-.5c-.22 0-.44.07-.62.19l-.31.2-.2.16-.34.35c-.1.11-.19.24-.24.38l-.16.43.1-.2-.32.5-.08.15-.29.65.02-.05-.32.65-.06.15-.3.87-.03.1-.2.81-.01.1-.15.87.07-.26-.3.8-.03.06-.17.5.68-.73-.34.15.2-.07-.14.03.27-.03h-.34l.9.37-.17-.17-.26-.2-.3-.18.37.33-.33-.43-.1-.11-.5-.5.16.19-.35-.53.12.23-.32-.82.01.04-.35-.99-.03-.09-.5-1.12.01.05-.53-1.36v.02l-.5-1.33.02.08-.5-1.64-.02-.04-.52-1.52.02.08-.5-1.9-.01-.04-.48-1.54-.5-1.63-.04-.1-.53-1.3-.01-.01-.53-1.2-.03-.07-.5-.96-.01-.02-.54-.96.02.04-.4-.8.02.03-.37-.8-.07-.12-.35-.52-.12-.14-.5-.48-.24-.15-.52-.22a.73.73 0 0 0-.66 1.3ZM199.63 68.79l-1.23-.74-.3 1.15c-.55-.16-.32.09-.01.18.33 1.17.4 1.34.52 1.48l.51 1.18.43 1.18c.33.84.4.98.48 1.09l.8 1.37.65 1.16.82 1.35.45 1.15.46 1.18.53 1.12.6 1.07.47 1.18.49 1 .61 1.24.78 1.42.64 1.22.69 1.24 1.02 1.28.99 1.19.75 1.03 1.04 1.17 1.12 1.43 1.04 1.38 1.08 1.1 1.48 1.46.86 1.19 1.1 1.25.9 1.12.93 1.2 1.02 1.09.63 1.35.75 1.4.68 1.05.71 1.13.9 1.08.68 1.25.7 1.02 1.1 1.02 1 1.07.76 1.03.99 1.22 1.47 1.34.97 1.04.93 1.14 1.46 1.26 1.17.98 1.32 1.4.96 1.13 1.37 1.2 1.23 1.17 1.62 1.62 1.26 1.23.89 1.1.94 1.34 1.07 1.38.94 1.34.98 1.36 1.26 1.47 1.58 1.45 1.47 1.25 1.82 1.28 1 .72 1.02.61 1.78 1.2 1.45 1.26 1.31 1.3 1.34 1.63 1.2 1.7 1.38 1.73 1.04 1.53 1.4 1.56 1.36 1.47 1.52 1.58 1.96 1.39 1.55 1.32 1.91 1.45 1.04.58 1.62 1.23 1.55 1.33 1.93 1.4 1.46 1.38 1.51 1.53 1.68 1.7 1.53 1.42 1.68 1.29 1.51 1.17 1.61 1.11 1.08.71 1.08.67 1.27.58 2.08 1.14 1.01.55 1.7 1.24 1.54 1.16 1.3 1.12 1.5 1.07 1.26.96 1.34 1.37 1.24 1.18 1.15.78 1.04.44 1.15 1.01 1.78 1.2 1.72 1 1.76 1 1.61.81 1.2.95 1.6 1.16 1.36.95 1.38 1 1.27.85 1.19.63 1.23 1.28 1.2.92.95 1 1.3.64 1.16.79 1.47.69 1.23.92c.48.36.73.5 1 .53l1.01.54 1.06.37 1.2.69 1.23 1.03 1.17.36c1.01.74 1.14.8 1.28.84l1.04.38c.3.3.65.5 1.03.5.85.46 1.03.6 1.23.68l1.39.74 1.25 1c.67.52.92.7 1.2.77l1.2.59 1.2.87 1.07.73 1.4.96 1.34 1.04 1.46.7 1.05.43 1.3.93 1.05.4 1.06.44 1.16 1.17 1.24 1.13 1.18 1.48 1.29 1.4c.68.83.8.94.94 1.04l1.06.75a7.6 7.6 0 0 0 1.26.81l1.25.61 1.03.93 1.16 1 1.4 1.43 1.36 1.1 1.55 1.08 1.57.76 1.57.62 1.04.63 1.48.79 1.47.64 1.3.7 1.33.7 1.32.75c.9.66 1.05.77 1.2.84l1.28.62 1.01.41 1.18.8 1.4.88 1.39.73 1.5.93 1.08.53 1.94.99 1.78.71 1.53.91 1.05.6 1.73 1.13 1.4.95 1.48.99 1.44.97 1.55 1.02 1.32.98 1.63 1.06 1.78.99 1.01.52 1.12.62 1.12.65 1.22.66 1.28.56 2.04 1.12 1.36.6 2.02 1.28 1.69 1.27 1.84 1.06 1.8 1 1.48.94 1 .55 1.02.5 1 .5 1.2.51 1.26.56 1.24.62 1.32.58 1.27.62 1.1.58 1.3.68 1.15.56 1.16.66 1.32.56 2.18 1.25 1.48 1.25 1.07.64 1.86 1.25 1.99.98 1.25.54 1.07.44 1.26.38 1.16.4 1.2.37 1.07.4 1.02.5 1.05.34 1.2.33 2.04.77 1.71.77 1.47.87 1.36.98 1.28.94 1.1.75 1.88 1.03 1.06.48 1.11.37 1 .46 1.1.33 1.72.58 1.08.33 1.74.78 1.8.72 1.3.87 1.52.98 1.57.85 1.54 1 1.1.96c.72.53.86.6 1.02.65l1.54.62 1.05.44 2.19.97 1.28.58 1.19.26c.86.43 1.03.47 1.2.48l1.51.37 1.36.22 1.73.6 1.95.76 1.68.74 1.03.32 1.58.65 1.58.87 1.05.52 1.12.5 1.4.54 1 .45 1.53.55 1.01.45 1.38.51 1.53.34 1.3.4 1.36.36 1.37.4 2.16.92 1.01.35 1.06.45 1.73.68 1.28.51 1.04.5 1.4.52 1.09.48 1.38.52 1.3.48 1.5.53 1.5.49 1.3.47 1.26.5 1.25.48 1.36.5 1.11.48 1.01.47 1.18.5 1.05.51 1.13.48 1.06.5 1.18.5 1.32.5 1.52.53 1.5.5 1.47.48 1.45.5 1.5.49 1.47.48 1.45.5 1.44.49 1.3.47 1.41.51 2.1.95 1.41.38 1.12.33 1.45.33 1.1.44 1.51.51 1.48.49 1.64.5 1.67.49 1.76.37 1.47.3 1.27.33 1.16.44 1.12.42 1.48.4 1.13.42 1.3.34 2.16 1.05 1.42.6 1.48.64 1.74.59 1.67.52 1.8.35 1.42.33 1.5.32 1.3.46 1.3.48 1.29.44 1.26.36 1.05.39 1.03.35 2.04.77 1.16.35 1.05.31 1.55.32 1.05.42 1.42.29 1.08.42 1.4.38 1.35.32 2.4.79 1.07.46 1.38.51 1.18.47 1.85.95 1.04.5 1.02.46 1.39.39 1.16.48 1.42.26 2.23.9 1.49.52 1.2.46 1.25.49 1.5.48 1.45.34 1 .4 1.3.36 1.13.41 1.13.34 1.13.34 1.15.39 1.72.55 1.34.28 1.05.26 1.44.2 1.36.29 1.42.19 1.12.3 1.58.15 1.34.2 1.25.21 1.6.08 1.28.42 1.25.06 1.1.39 1.16.16 2.19.53 1.15.25 1.2.32 1.4.45 1.6.38 1.48.33 1.72.12 1.1.34 1.51.21 1.24.33 1.45.15 1.08.3 1.57.18 1.16.34 1.13.12 1.62.53c.8.37.93.4 1.07.42l1.45.35 1 .31 2.1.74 1.28.26 1.03.31 1.08.43 1.16.34 1.83.58 1.03.2 1.08.33 1.55.25 1.17.38 1.43.17 1.32.25 1.1.5c.4.16.86.12 1.21-.13.7-.18 1.07-.56 1.07-1.03l-1.02-.85c-1.23 0-1.61.39-1.6.86l1.32.84c.92 0 1.3-.38 1.3-.85l-1.02-.85c.82.39.57.07.21-.06l-1.01-.54-1.25-.61-1.48-.31-1.51-.3-1.48-.42-1.7-.4-1.03-.21-1.64-.56-1.23-.36-1.08-.42-1.16-.34-1.19-.23-1.02-.41-1.03-.32-1.88-.6-1.08-.15-1.62-.55-1.1-.38-1.13-.1-1.14-.34-1.36-.15-1.1-.3-1.45-.15-1.19-.34-1.48-.2-1.21-.36-1.77-.14-1.24-.3-1.47-.35-1.35-.45-1.35-.37-1.27-.27-1.25-.24-1.08-.32-1.16-.17-1.02-.35-1.62-.12-1.29-.43-1.42-.05-1.1-.2-1.47-.21-1.41-.13-1.06-.3-1.48-.2-1.36-.3-1.38-.19-1.06-.27-1.05-.2-1.9-.62-2.08-.69-1.06-.3-1.16-.43-1.29-.36-1.05-.4-1.52-.37-1.3-.42-1.17-.46-1.24-.48-1.5-.53-1.2-.46-1.25-.48-1.63-.37-2.14-.75-1.74-.83-1.91-.97-1.37-.55-1.34-.5-1.12-.48-1.56-.52-1.1-.35-1.4-.34-1.25-.33-1.17-.44-1.64-.34-1.05-.43-1.41-.28-2.05-.62-1.01-.33-1.94-.77-1.13-.41-1.3-.37-1.17-.4-1.31-.48-1.5-.52-1.65-.35-1.45-.34-1.7-.32-1.48-.47-1.58-.52-1.38-.6-1.33-.56-1.2-.62-1.28-.53-1.49-.4-1.14-.43-1.34-.34-2.29-.85-1.47-.39-1.53-.33-1.66-.34-1.52-.45-1.58-.51-1.47-.48-1.43-.48-1.23-.49-1.57-.38-1.08-.32-1.23-.32-1.92-.9-1.55-.57-1.33-.48-1.44-.5-1.47-.5-1.5-.5-1.47-.48-1.45-.5-1.5-.5-1.48-.47-1.45-.5-1.24-.47-1.07-.45-1.07-.5-1.18-.5-1.05-.5-1.13-.48-1.01-.47-1.23-.52-1.4-.51-1.23-.47-1.3-.5-1.37-.5-1.51-.5-1.45-.5-1.29-.46-1.3-.48-1.08-.47-1.39-.51-1-.47-1.25-.5-1.12-.54-1.8-.64-1.1-.38-1.17-.42-1.12-.54-1.42-.42-1.35-.35-1.37-.4-1.44-.32-1.1-.42-1.04-.46-1.5-.54-1.05-.47-1.34-.51-1-.45-1.83-.94-1.77-.88-1.92-.66-1.55-.68-1.2-.4-1.95-.76-1.25-.4-1.57-.42-1.47-.17-1.96-.68-2-.92-1.95-.87-1.13-.53-1.06-.54-1.17-.94-1.35-.62-1.4-.96-1.3-.85-1.57-.98a3.97 3.97 0 0 0-1.07-.63l-1.37-.56-1.27-.41-1.73-.77-1.08-.44-1.86-.52-1.94-.76-1.72-.85-1.58-.98-1.62-1.2-1.4-.98-1.13-.5-1.52-.9-1.98-.92-1.15-.38-1.2-.34-1.75-.72-1.31-.48-1.21-.37-1.16-.4-1.2-.37-2.08-.87-1.9-.96-1.02-.5-1.57-1.19-1.58-1.3-1.48-.75-1.12-.73-1.16-.48-1.09-.64-1.18-.57-1.27-.67-1.13-.6-1.37-.66-1.3-.57-1.24-.62-1.33-.6-1.16-.48-1.93-.96-1.52-.9-1.87-1.05-1.67-.97-1.58-1.04-1.97-1.42-1.21-.7-1.35-.6-1.06-.63-1.05-.54-1.23-.55-1.08-.6-1.11-.63-1.17-.66-1.04-.54-1.66-.93-1.4-.9-1.3-.97-1.6-1.05-1.52-1.02-1.44-.97-1.47-1-1.79-1.17-1.05-.59-1.07-.69-1.76-.75-1.65-.76-1.01-.52-1.72-.9-1.59-.85-1.35-.73-1.01-.81-1.07-.69-1.07-.35-1.09-.57-1.1-.82-1.12-.64-1.5-.8-1.37-.76-1.5-.66-1.39-.76-1.16-.66-1.06-.37-1.3-.69-1.3-.7-1.13-.92-1.36-1.33-1.06-.99a10.61 10.61 0 0 0-1.29-.97c-1.02-.88-1.2-1-1.42-1.06l-1.08-.57-1.34-.97-1.2-1.25-1-1.05c-.71-.96-.87-1.1-1.05-1.22l-1.17-.97-.99-1.01-1.11-.7-1.42-.67-1-.72-1.45-.91-1.03-.33-1.1-.51-1.26-.96-1-.6-1.21-.7-1.38-.92-1.27-.64-1.42-.95-1.17-.97-1.23-.7-1.07-.7-1.04-.22-1.41-.6c-.82-.49-1.01-.57-1.22-.6l-1.48-.54-1.07-1.1c-.9-.62-1.03-.69-1.18-.73l-1.05-.27c-.74-.58-1.03-.76-1.36-.8l-1.03-.45-1.08-.73-1.1-.31-1.01-.9-1.24-.6a9.34 9.34 0 0 0-1.17-1.26l-1.29-1.12-1.21-1.17-1.25-.7-1.02-.7-1.25-.93-1.54-1.08-1.45-1.05-1.44-1.1-1.01-.48-1.62-.89-1.7-.96-1.73-1.04-1.51-1.06-1.57-1.04-1.13-.79-1.23-1.28-1.01-1.01-1.38-1.06-1.39-.99-1.37-1.18-1.6-1.2-1.04-.67-1.88-1.26-1.11-.64-1.1-.56-1.19-.54-1.87-1.22-1.7-1.16-1.45-1.13-1.45-1.12-1.45-1.34-1.66-1.69-1.6-1.6-1.59-1.47-1.13-.76-1.43-1.26-1.67-1.39-1.12-.74-1.04-.58-1.62-1.22-1.65-1.39-1.07-.73-1.48-1.28-1.18-1.37-1.37-1.47-1.09-1.39-1.4-1.7-1.33-1.73-1.19-1.7-.85-1.01-1.43-1.4-1.6-1.39-1.15-.69-1.73-1.2-1.88-1.37-1.6-1.16-1.48-1.25-1.11-1.27-1-1.2-.98-1.35-1.01-1.38-.89-1.3-1.05-1.37-1.35-1.4-1.16-1.18-1.08-1.05-1.29-1.2-1.14-.96-1-1.16-1.02-1.09-1.29-1.08-1.24-1-.83-1.03-.92-1.14-1.54-1.25-1-1.13-.95-1.18-.76-1.02-1.33-1.26-.81-1.05-.72-1.2-.85-1.15-.72-1.03-.71-1.07-.6-1.05-.52-1.3-.9-1.15-.9-1.11-1.04-1.25-1.04-1.15-.9-1.18-1.09-1.29-1.47-1.47-.9-1.04-.86-1.23-1.06-1.2-1.06-1.3-.92-1.23-1-1.2-.76-1.01-.65-1.18-.67-1.24-.55-1.02-.5-1.2-.5-1a8.33 8.33 0 0 0-.6-1.3l-.8-1.38-.48-1.27-.53-1.18-.76-1.43-.9-1.14-.42-1.18-.6-1.13-.6-1.38-.47-1.2-.56-1.25c-.5-.92-.7-1.07-.94-1.14-1.4-.35-1.8.07-1.8.57l.57 1.01 1.1.21c-.24.47.2.6.56.42.28-1.06.24-1.1.2-1.14Zm0 0"/></svg>