<?xml version="1.0" encoding="utf-8" standalone="no"?>
<!DOCTYPE svg PUBLIC "-//W3C//DTD SVG 1.1//EN"
  "http://www.w3.org/Graphics/SVG/1.1/DTD/svg11.dtd">
<svg xmlns:xlink="http://www.w3.org/1999/xlink" width="576pt" height="324pt" viewBox="0 0 576 324" xmlns="http://www.w3.org/2000/svg" version="1.1">
 <metadata>
  <rdf:RDF xmlns:dc="http://purl.org/dc/elements/1.1/" xmlns:cc="http://creativecommons.org/ns#" xmlns:rdf="http://www.w3.org/1999/02/22-rdf-syntax-ns#">
   <cc:Work>
    <dc:type rdf:resource="http://purl.org/dc/dcmitype/StillImage"/>
    <dc:date>2025-06-25T14:14:13.473244</dc:date>
    <dc:format>image/svg+xml</dc:format>
    <dc:creator>
     <cc:Agent>
      <dc:title>Matplotlib v3.10.3, https://matplotlib.org/</dc:title>
     </cc:Agent>
    </dc:creator>
   </cc:Work>
  </rdf:RDF>
 </metadata>
 <defs>
  <style type="text/css">*{stroke-linejoin: round; stroke-linecap: butt}</style>
 </defs>
 <g id="figure_1">
  <g id="patch_1">
   <path d="M 0 324 
L 576 324 
L 576 0 
L 0 0 
z
" style="fill: #ffffff"/>
  </g>
  <g id="axes_1">
   <g id="patch_2">
    <path d="M 39.14 289.66 
L 542.79 289.66 
L 542.79 36.72 
L 39.14 36.72 
z
" style="fill: #ffffff"/>
   </g>
   <g id="matplotlib.axis_1">
    <g id="xtick_1">
     <g id="line2d_1">
      <defs>
       <path id="m8de5c2cd3f" d="M 0 0 
L 0 3.5 
" style="stroke: #333333; stroke-width: 0.8"/>
      </defs>
      <g>
       <use xlink:href="#m8de5c2cd3f" x="56.507241" y="289.66" style="fill: #333333; stroke: #333333; stroke-width: 0.8"/>
      </g>
     </g>
     <g id="text_1">
      <!-- 1940 -->
      <g style="fill: #333333" transform="translate(38.163491 308.0325) scale(0.16 -0.16)">
       <defs>
        <path id="Montserrat-Regular-31" d="M 1114 0 
L 1114 4288 
L 1318 4070 
L 58 4070 
L 58 4480 
L 1574 4480 
L 1574 0 
L 1114 0 
z
" transform="scale(0.015625)"/>
        <path id="Montserrat-Regular-39" d="M 1728 4518 
Q 2323 4518 2732 4252 
Q 3142 3987 3353 3488 
Q 3565 2989 3565 2278 
Q 3565 1523 3305 1004 
Q 3046 486 2585 224 
Q 2125 -38 1517 -38 
Q 1216 -38 944 19 
Q 672 77 454 205 
L 640 576 
Q 813 461 1040 413 
Q 1267 365 1510 365 
Q 2234 365 2666 825 
Q 3098 1286 3098 2202 
Q 3098 2349 3082 2553 
Q 3066 2758 3008 2963 
L 3168 2842 
Q 3104 2509 2896 2275 
Q 2688 2042 2384 1920 
Q 2080 1798 1709 1798 
Q 1267 1798 924 1964 
Q 582 2131 390 2432 
Q 198 2733 198 3142 
Q 198 3565 396 3872 
Q 595 4179 944 4348 
Q 1293 4518 1728 4518 
z
M 1747 4128 
Q 1427 4128 1180 4009 
Q 934 3891 793 3673 
Q 653 3456 653 3155 
Q 653 2714 957 2451 
Q 1261 2189 1779 2189 
Q 2125 2189 2384 2317 
Q 2643 2445 2787 2669 
Q 2931 2893 2931 3168 
Q 2931 3418 2796 3635 
Q 2662 3853 2400 3990 
Q 2138 4128 1747 4128 
z
" transform="scale(0.015625)"/>
        <path id="Montserrat-Regular-34" d="M 256 1178 
L 256 1510 
L 2630 4480 
L 3142 4480 
L 787 1510 
L 538 1587 
L 4141 1587 
L 4141 1178 
L 256 1178 
z
M 2784 0 
L 2784 1178 
L 2797 1587 
L 2797 2624 
L 3245 2624 
L 3245 0 
L 2784 0 
z
" transform="scale(0.015625)"/>
        <path id="Montserrat-Regular-30" d="M 2118 -38 
Q 1600 -38 1197 234 
Q 794 506 563 1014 
Q 333 1523 333 2240 
Q 333 2957 563 3465 
Q 794 3974 1197 4246 
Q 1600 4518 2118 4518 
Q 2637 4518 3040 4246 
Q 3443 3974 3676 3465 
Q 3910 2957 3910 2240 
Q 3910 1523 3676 1014 
Q 3443 506 3040 234 
Q 2637 -38 2118 -38 
z
M 2118 384 
Q 2515 384 2809 598 
Q 3104 813 3270 1225 
Q 3437 1638 3437 2240 
Q 3437 2842 3270 3254 
Q 3104 3667 2809 3881 
Q 2515 4096 2118 4096 
Q 1734 4096 1433 3881 
Q 1133 3667 966 3254 
Q 800 2842 800 2240 
Q 800 1638 966 1225 
Q 1133 813 1433 598 
Q 1734 384 2118 384 
z
" transform="scale(0.015625)"/>
       </defs>
       <use xlink:href="#Montserrat-Regular-31"/>
       <use xlink:href="#Montserrat-Regular-39" transform="translate(36.099991 0)"/>
       <use xlink:href="#Montserrat-Regular-34" transform="translate(96.999985 0)"/>
       <use xlink:href="#Montserrat-Regular-30" transform="translate(163.099976 0)"/>
      </g>
     </g>
    </g>
    <g id="xtick_2">
     <g id="line2d_2">
      <g>
       <use xlink:href="#m8de5c2cd3f" x="125.976207" y="289.66" style="fill: #333333; stroke: #333333; stroke-width: 0.8"/>
      </g>
     </g>
     <g id="text_2">
      <!-- 1960 -->
      <g style="fill: #333333" transform="translate(108.047457 308.0325) scale(0.16 -0.16)">
       <defs>
        <path id="Montserrat-Regular-36" d="M 2170 -38 
Q 1574 -38 1164 227 
Q 755 493 544 995 
Q 333 1498 333 2202 
Q 333 2963 592 3478 
Q 851 3994 1312 4256 
Q 1773 4518 2381 4518 
Q 2682 4518 2957 4460 
Q 3232 4403 3443 4275 
L 3258 3904 
Q 3085 4019 2861 4067 
Q 2637 4115 2387 4115 
Q 1664 4115 1232 3654 
Q 800 3194 800 2278 
Q 800 2138 816 1930 
Q 832 1722 890 1517 
L 730 1638 
Q 800 1971 1005 2204 
Q 1210 2438 1517 2560 
Q 1824 2682 2189 2682 
Q 2637 2682 2976 2515 
Q 3315 2349 3507 2048 
Q 3699 1747 3699 1338 
Q 3699 922 3500 611 
Q 3302 301 2953 131 
Q 2605 -38 2170 -38 
z
M 2150 352 
Q 2470 352 2716 470 
Q 2963 589 3104 809 
Q 3245 1030 3245 1325 
Q 3245 1766 2941 2028 
Q 2637 2291 2118 2291 
Q 1773 2291 1517 2163 
Q 1261 2035 1113 1814 
Q 966 1594 966 1312 
Q 966 1069 1100 848 
Q 1235 627 1500 489 
Q 1766 352 2150 352 
z
" transform="scale(0.015625)"/>
       </defs>
       <use xlink:href="#Montserrat-Regular-31"/>
       <use xlink:href="#Montserrat-Regular-39" transform="translate(36.099991 0)"/>
       <use xlink:href="#Montserrat-Regular-36" transform="translate(96.999985 0)"/>
       <use xlink:href="#Montserrat-Regular-30" transform="translate(157.899979 0)"/>
      </g>
     </g>
    </g>
    <g id="xtick_3">
     <g id="line2d_3">
      <g>
       <use xlink:href="#m8de5c2cd3f" x="195.445172" y="289.66" style="fill: #333333; stroke: #333333; stroke-width: 0.8"/>
      </g>
     </g>
     <g id="text_3">
      <!-- 1980 -->
      <g style="fill: #333333" transform="translate(177.285172 308.0325) scale(0.16 -0.16)">
       <defs>
        <path id="Montserrat-Regular-38" d="M 2035 -38 
Q 1498 -38 1110 115 
Q 723 269 515 560 
Q 307 851 307 1248 
Q 307 1632 508 1904 
Q 710 2176 1097 2323 
Q 1485 2470 2035 2470 
Q 2579 2470 2969 2323 
Q 3360 2176 3568 1904 
Q 3776 1632 3776 1248 
Q 3776 851 3565 560 
Q 3354 269 2963 115 
Q 2573 -38 2035 -38 
z
M 2035 352 
Q 2630 352 2966 595 
Q 3302 838 3302 1254 
Q 3302 1670 2966 1910 
Q 2630 2150 2035 2150 
Q 1440 2150 1107 1910 
Q 774 1670 774 1254 
Q 774 838 1107 595 
Q 1440 352 2035 352 
z
M 2035 2208 
Q 1536 2208 1187 2342 
Q 838 2477 652 2729 
Q 467 2982 467 3334 
Q 467 3706 662 3971 
Q 858 4237 1210 4377 
Q 1562 4518 2035 4518 
Q 2509 4518 2864 4377 
Q 3219 4237 3417 3971 
Q 3616 3706 3616 3334 
Q 3616 2982 3430 2729 
Q 3245 2477 2889 2342 
Q 2534 2208 2035 2208 
z
M 2035 2515 
Q 2560 2515 2854 2732 
Q 3149 2950 3149 3315 
Q 3149 3699 2845 3913 
Q 2541 4128 2035 4128 
Q 1530 4128 1229 3913 
Q 928 3699 928 3322 
Q 928 2950 1219 2732 
Q 1510 2515 2035 2515 
z
" transform="scale(0.015625)"/>
       </defs>
       <use xlink:href="#Montserrat-Regular-31"/>
       <use xlink:href="#Montserrat-Regular-39" transform="translate(36.099991 0)"/>
       <use xlink:href="#Montserrat-Regular-38" transform="translate(96.999985 0)"/>
       <use xlink:href="#Montserrat-Regular-30" transform="translate(160.799973 0)"/>
      </g>
     </g>
    </g>
    <g id="xtick_4">
     <g id="line2d_4">
      <g>
       <use xlink:href="#m8de5c2cd3f" x="264.914138" y="289.66" style="fill: #333333; stroke: #333333; stroke-width: 0.8"/>
      </g>
     </g>
     <g id="text_4">
      <!-- 2000 -->
      <g style="fill: #333333" transform="translate(244.481638 308.0325) scale(0.16 -0.16)">
       <defs>
        <path id="Montserrat-Regular-32" d="M 250 0 
L 250 326 
L 2112 2150 
Q 2368 2400 2496 2589 
Q 2624 2778 2669 2944 
Q 2714 3110 2714 3258 
Q 2714 3648 2448 3872 
Q 2182 4096 1664 4096 
Q 1267 4096 963 3974 
Q 659 3853 442 3597 
L 115 3878 
Q 378 4186 787 4352 
Q 1197 4518 1702 4518 
Q 2157 4518 2489 4374 
Q 2822 4230 3004 3955 
Q 3187 3680 3187 3309 
Q 3187 3091 3126 2880 
Q 3066 2669 2909 2435 
Q 2752 2202 2451 1907 
L 742 230 
L 614 410 
L 3392 410 
L 3392 0 
L 250 0 
z
" transform="scale(0.015625)"/>
       </defs>
       <use xlink:href="#Montserrat-Regular-32"/>
       <use xlink:href="#Montserrat-Regular-30" transform="translate(56.799988 0)"/>
       <use xlink:href="#Montserrat-Regular-30" transform="translate(122.999985 0)"/>
       <use xlink:href="#Montserrat-Regular-30" transform="translate(189.199982 0)"/>
      </g>
     </g>
    </g>
    <g id="xtick_5">
     <g id="line2d_5">
      <g>
       <use xlink:href="#m8de5c2cd3f" x="334.383103" y="289.66" style="fill: #333333; stroke: #333333; stroke-width: 0.8"/>
      </g>
     </g>
     <g id="text_5">
      <!-- 2020 -->
      <g style="fill: #333333" transform="translate(314.703103 308.0325) scale(0.16 -0.16)">
       <use xlink:href="#Montserrat-Regular-32"/>
       <use xlink:href="#Montserrat-Regular-30" transform="translate(56.799988 0)"/>
       <use xlink:href="#Montserrat-Regular-32" transform="translate(122.999985 0)"/>
       <use xlink:href="#Montserrat-Regular-30" transform="translate(179.799973 0)"/>
      </g>
     </g>
    </g>
    <g id="xtick_6">
     <g id="line2d_6">
      <g>
       <use xlink:href="#m8de5c2cd3f" x="403.852069" y="289.66" style="fill: #333333; stroke: #333333; stroke-width: 0.8"/>
      </g>
     </g>
     <g id="text_6">
      <!-- 2040 -->
      <g style="fill: #333333" transform="translate(383.428319 308.0325) scale(0.16 -0.16)">
       <use xlink:href="#Montserrat-Regular-32"/>
       <use xlink:href="#Montserrat-Regular-30" transform="translate(56.799988 0)"/>
       <use xlink:href="#Montserrat-Regular-34" transform="translate(122.999985 0)"/>
       <use xlink:href="#Montserrat-Regular-30" transform="translate(189.099976 0)"/>
      </g>
     </g>
    </g>
    <g id="xtick_7">
     <g id="line2d_7">
      <g>
       <use xlink:href="#m8de5c2cd3f" x="473.321034" y="289.66" style="fill: #333333; stroke: #333333; stroke-width: 0.8"/>
      </g>
     </g>
     <g id="text_7">
      <!-- 2060 -->
      <g style="fill: #333333" transform="translate(453.312284 308.0325) scale(0.16 -0.16)">
       <use xlink:href="#Montserrat-Regular-32"/>
       <use xlink:href="#Montserrat-Regular-30" transform="translate(56.799988 0)"/>
       <use xlink:href="#Montserrat-Regular-36" transform="translate(122.999985 0)"/>
       <use xlink:href="#Montserrat-Regular-30" transform="translate(183.899979 0)"/>
      </g>
     </g>
    </g>
    <g id="xtick_8">
     <g id="line2d_8">
      <g>
       <use xlink:href="#m8de5c2cd3f" x="542.79" y="289.66" style="fill: #333333; stroke: #333333; stroke-width: 0.8"/>
      </g>
     </g>
     <g id="text_8">
      <!-- 2080 -->
      <g style="fill: #333333" transform="translate(522.55 308.0325) scale(0.16 -0.16)">
       <use xlink:href="#Montserrat-Regular-32"/>
       <use xlink:href="#Montserrat-Regular-30" transform="translate(56.799988 0)"/>
       <use xlink:href="#Montserrat-Regular-38" transform="translate(122.999985 0)"/>
       <use xlink:href="#Montserrat-Regular-30" transform="translate(186.799973 0)"/>
      </g>
     </g>
    </g>
   </g>
   <g id="matplotlib.axis_2">
    <g id="ytick_1">
     <g id="line2d_9">
      <defs>
       <path id="m4f542e9b2f" d="M 0 0 
L -3.5 0 
" style="stroke: #333333; stroke-width: 0.8"/>
      </defs>
      <g>
       <use xlink:href="#m4f542e9b2f" x="39.14" y="287.403845" style="fill: #333333; stroke: #333333; stroke-width: 0.8"/>
      </g>
     </g>
     <g id="text_9">
      <!-- 0 -->
      <g style="fill: #333333" transform="translate(22.0475 293.340095) scale(0.16 -0.16)">
       <use xlink:href="#Montserrat-Regular-30"/>
      </g>
     </g>
    </g>
    <g id="ytick_2">
     <g id="line2d_10">
      <g>
       <use xlink:href="#m4f542e9b2f" x="39.14" y="224.732884" style="fill: #333333; stroke: #333333; stroke-width: 0.8"/>
      </g>
     </g>
     <g id="text_10">
      <!-- 5 -->
      <g style="fill: #333333" transform="translate(23.585 230.669134) scale(0.16 -0.16)">
       <defs>
        <path id="Montserrat-Regular-35" d="M 1747 -38 
Q 1267 -38 832 118 
Q 397 275 141 538 
L 365 902 
Q 576 678 944 531 
Q 1312 384 1741 384 
Q 2310 384 2608 637 
Q 2906 890 2906 1299 
Q 2906 1587 2768 1795 
Q 2630 2003 2304 2118 
Q 1978 2234 1408 2234 
L 454 2234 
L 685 4480 
L 3136 4480 
L 3136 4070 
L 870 4070 
L 1107 4294 
L 909 2413 
L 672 2643 
L 1510 2643 
Q 2189 2643 2598 2476 
Q 3008 2310 3190 2012 
Q 3373 1715 3373 1318 
Q 3373 941 3193 630 
Q 3014 320 2656 141 
Q 2298 -38 1747 -38 
z
" transform="scale(0.015625)"/>
       </defs>
       <use xlink:href="#Montserrat-Regular-35"/>
      </g>
     </g>
    </g>
    <g id="ytick_3">
     <g id="line2d_11">
      <g>
       <use xlink:href="#m4f542e9b2f" x="39.14" y="162.061923" style="fill: #333333; stroke: #333333; stroke-width: 0.8"/>
      </g>
     </g>
     <g id="text_11">
      <!-- 10 -->
      <g style="fill: #333333" transform="translate(16.2725 167.998173) scale(0.16 -0.16)">
       <use xlink:href="#Montserrat-Regular-31"/>
       <use xlink:href="#Montserrat-Regular-30" transform="translate(36.099991 0)"/>
      </g>
     </g>
    </g>
    <g id="ytick_4">
     <g id="line2d_12">
      <g>
       <use xlink:href="#m4f542e9b2f" x="39.14" y="99.390961" style="fill: #333333; stroke: #333333; stroke-width: 0.8"/>
      </g>
     </g>
     <g id="text_12">
      <!-- 15 -->
      <g style="fill: #333333" transform="translate(17.81 105.327211) scale(0.16 -0.16)">
       <use xlink:href="#Montserrat-Regular-31"/>
       <use xlink:href="#Montserrat-Regular-35" transform="translate(36.099991 0)"/>
      </g>
     </g>
    </g>
    <g id="ytick_5">
     <g id="line2d_13">
      <g>
       <use xlink:href="#m4f542e9b2f" x="39.14" y="36.72" style="fill: #333333; stroke: #333333; stroke-width: 0.8"/>
      </g>
     </g>
     <g id="text_13">
      <!-- 20 -->
      <g style="fill: #333333" transform="translate(12.96 42.65625) scale(0.16 -0.16)">
       <use xlink:href="#Montserrat-Regular-32"/>
       <use xlink:href="#Montserrat-Regular-30" transform="translate(56.799988 0)"/>
      </g>
     </g>
    </g>
   </g>
   <g id="line2d_14">
    <path d="M 56.507241 287.403845 
L 73.874483 287.403845 
L 74.013421 274.869653 
L 87.768276 274.869653 
L 87.907214 262.335461 
L 98.188621 262.335461 
L 98.327559 249.801269 
L 125.976207 249.801269 
L 126.115145 237.267076 
L 139.87 237.267076 
L 140.008938 224.732884 
L 157.237241 224.732884 
L 157.376179 212.198692 
L 174.604483 212.198692 
L 174.743421 199.6645 
L 257.967241 199.6645 
L 258.106179 187.130307 
L 285.754828 187.130307 
L 285.893766 174.596115 
L 351.71561 174.596115 
L 351.71561 174.596115 
" clip-path="url(#pedd8b89eec)" style="fill: none; stroke: #4c72b0; stroke-width: 1.5; stroke-linecap: square"/>
   </g>
   <g id="text_14">
    <!-- USA →  -->
    <g style="fill: #696969" transform="translate(41.393233 277.276289) scale(0.1 -0.1)">
     <defs>
      <path id="Montserrat-Regular-55" d="M 2534 -38 
Q 1677 -38 1184 454 
Q 691 947 691 1914 
L 691 4480 
L 1165 4480 
L 1165 1933 
Q 1165 1139 1523 761 
Q 1882 384 2534 384 
Q 3194 384 3552 761 
Q 3910 1139 3910 1933 
L 3910 4480 
L 4371 4480 
L 4371 1914 
Q 4371 947 3881 454 
Q 3392 -38 2534 -38 
z
" transform="scale(0.015625)"/>
      <path id="Montserrat-Regular-53" d="M 1965 -38 
Q 1466 -38 1008 125 
Q 550 288 301 544 
L 486 909 
Q 723 678 1123 521 
Q 1523 365 1965 365 
Q 2387 365 2652 470 
Q 2918 576 3043 755 
Q 3168 934 3168 1152 
Q 3168 1414 3017 1574 
Q 2867 1734 2624 1827 
Q 2381 1920 2086 1990 
Q 1792 2061 1497 2141 
Q 1203 2221 956 2355 
Q 710 2490 560 2710 
Q 410 2931 410 3290 
Q 410 3622 586 3900 
Q 762 4179 1126 4348 
Q 1491 4518 2061 4518 
Q 2438 4518 2809 4412 
Q 3181 4307 3450 4122 
L 3290 3744 
Q 3002 3936 2678 4025 
Q 2355 4115 2054 4115 
Q 1651 4115 1388 4006 
Q 1126 3898 1001 3715 
Q 877 3533 877 3302 
Q 877 3040 1027 2880 
Q 1178 2720 1424 2630 
Q 1670 2541 1964 2470 
Q 2259 2400 2550 2317 
Q 2842 2234 3088 2102 
Q 3334 1971 3484 1753 
Q 3635 1536 3635 1184 
Q 3635 858 3456 579 
Q 3277 301 2909 131 
Q 2541 -38 1965 -38 
z
" transform="scale(0.015625)"/>
      <path id="Montserrat-Regular-41" d="M 13 0 
L 2061 4480 
L 2528 4480 
L 4576 0 
L 4077 0 
L 2195 4205 
L 2387 4205 
L 506 0 
L 13 0 
z
M 819 1197 
L 960 1581 
L 3565 1581 
L 3706 1197 
L 819 1197 
z
" transform="scale(0.015625)"/>
      <path id="Montserrat-Regular-20" transform="scale(0.015625)"/>
      <path id="Montserrat-Regular-2192" d="M 2304 3002 
L 3162 1747 
L 2304 480 
L 1875 480 
L 2701 1747 
L 1875 3002 
L 2304 3002 
z
M 2797 1920 
L 2797 1568 
L 474 1568 
L 474 1920 
L 2797 1920 
z
" transform="scale(0.015625)"/>
     </defs>
     <use xlink:href="#Montserrat-Regular-55"/>
     <use xlink:href="#Montserrat-Regular-53" transform="translate(79.199982 0)"/>
     <use xlink:href="#Montserrat-Regular-41" transform="translate(140.699966 0)"/>
     <use xlink:href="#Montserrat-Regular-20" transform="translate(212.399948 0)"/>
     <use xlink:href="#Montserrat-Regular-2192" transform="translate(238.599945 0)"/>
     <use xlink:href="#Montserrat-Regular-20" transform="translate(298.59993 0)"/>
    </g>
   </g>
   <g id="text_15">
    <!-- USSR →  -->
    <g style="fill: #696969" transform="translate(49.077651 264.742096) scale(0.1 -0.1)">
     <defs>
      <path id="Montserrat-Regular-52" d="M 730 0 
L 730 4480 
L 2406 4480 
Q 2976 4480 3385 4297 
Q 3795 4115 4016 3772 
Q 4237 3430 4237 2944 
Q 4237 2470 4016 2128 
Q 3795 1786 3385 1603 
Q 2976 1421 2406 1421 
L 992 1421 
L 1203 1638 
L 1203 0 
L 730 0 
z
M 3789 0 
L 2637 1626 
L 3149 1626 
L 4307 0 
L 3789 0 
z
M 1203 1600 
L 992 1824 
L 2394 1824 
Q 3066 1824 3414 2118 
Q 3763 2413 3763 2944 
Q 3763 3482 3414 3776 
Q 3066 4070 2394 4070 
L 992 4070 
L 1203 4294 
L 1203 1600 
z
" transform="scale(0.015625)"/>
     </defs>
     <use xlink:href="#Montserrat-Regular-55"/>
     <use xlink:href="#Montserrat-Regular-53" transform="translate(79.199982 0)"/>
     <use xlink:href="#Montserrat-Regular-53" transform="translate(140.699966 0)"/>
     <use xlink:href="#Montserrat-Regular-52" transform="translate(202.199951 0)"/>
     <use xlink:href="#Montserrat-Regular-20" transform="translate(274.499939 0)"/>
     <use xlink:href="#Montserrat-Regular-2192" transform="translate(300.699936 0)"/>
     <use xlink:href="#Montserrat-Regular-20" transform="translate(360.699921 0)"/>
    </g>
   </g>
   <g id="text_16">
    <!-- UK →  -->
    <g style="fill: #696969" transform="translate(71.918308 252.207904) scale(0.1 -0.1)">
     <defs>
      <path id="Montserrat-Regular-4b" d="M 1139 1114 
L 1120 1690 
L 3834 4480 
L 4378 4480 
L 2400 2406 
L 2131 2118 
L 1139 1114 
z
M 730 0 
L 730 4480 
L 1203 4480 
L 1203 0 
L 730 0 
z
M 3949 0 
L 2016 2227 
L 2336 2573 
L 4512 0 
L 3949 0 
z
" transform="scale(0.015625)"/>
     </defs>
     <use xlink:href="#Montserrat-Regular-55"/>
     <use xlink:href="#Montserrat-Regular-4b" transform="translate(79.199982 0)"/>
     <use xlink:href="#Montserrat-Regular-20" transform="translate(150.299973 0)"/>
     <use xlink:href="#Montserrat-Regular-2192" transform="translate(176.499969 0)"/>
     <use xlink:href="#Montserrat-Regular-20" transform="translate(236.499954 0)"/>
    </g>
   </g>
   <g id="text_17">
    <!-- France →  -->
    <g style="fill: #696969" transform="translate(80.066832 239.673712) scale(0.1 -0.1)">
     <defs>
      <path id="Montserrat-Regular-46" d="M 1152 2310 
L 3520 2310 
L 3520 1901 
L 1152 1901 
L 1152 2310 
z
M 1203 0 
L 730 0 
L 730 4480 
L 3802 4480 
L 3802 4070 
L 1203 4070 
L 1203 0 
z
" transform="scale(0.015625)"/>
      <path id="Montserrat-Regular-72" d="M 634 0 
L 634 3360 
L 1069 3360 
L 1069 2445 
L 1024 2605 
Q 1165 2989 1497 3190 
Q 1830 3392 2323 3392 
L 2323 2950 
Q 2298 2950 2272 2953 
Q 2246 2957 2221 2957 
Q 1690 2957 1389 2633 
Q 1088 2310 1088 1715 
L 1088 0 
L 634 0 
z
" transform="scale(0.015625)"/>
      <path id="Montserrat-Regular-61" d="M 2739 0 
L 2739 742 
L 2720 864 
L 2720 2106 
Q 2720 2534 2480 2764 
Q 2240 2995 1766 2995 
Q 1440 2995 1145 2886 
Q 851 2778 646 2598 
L 442 2938 
Q 698 3155 1056 3273 
Q 1414 3392 1811 3392 
Q 2464 3392 2819 3069 
Q 3174 2746 3174 2086 
L 3174 0 
L 2739 0 
z
M 1581 -32 
Q 1203 -32 924 93 
Q 646 218 499 438 
Q 352 659 352 947 
Q 352 1210 477 1424 
Q 602 1638 886 1769 
Q 1171 1901 1651 1901 
L 2810 1901 
L 2810 1562 
L 1664 1562 
Q 1178 1562 989 1389 
Q 800 1216 800 960 
Q 800 672 1024 499 
Q 1248 326 1651 326 
Q 2035 326 2313 502 
Q 2592 678 2720 1011 
L 2822 698 
Q 2694 365 2377 166 
Q 2061 -32 1581 -32 
z
" transform="scale(0.015625)"/>
      <path id="Montserrat-Regular-6e" d="M 2349 3392 
Q 2758 3392 3068 3235 
Q 3379 3078 3555 2758 
Q 3731 2438 3731 1952 
L 3731 0 
L 3277 0 
L 3277 1907 
Q 3277 2438 3011 2710 
Q 2746 2982 2266 2982 
Q 1907 2982 1641 2838 
Q 1376 2694 1232 2422 
Q 1088 2150 1088 1766 
L 1088 0 
L 634 0 
L 634 3360 
L 1069 3360 
L 1069 2438 
L 998 2611 
Q 1158 2976 1510 3184 
Q 1862 3392 2349 3392 
z
" transform="scale(0.015625)"/>
      <path id="Montserrat-Regular-63" d="M 2029 -32 
Q 1530 -32 1136 189 
Q 742 410 518 797 
Q 294 1184 294 1683 
Q 294 2189 518 2573 
Q 742 2957 1136 3174 
Q 1530 3392 2029 3392 
Q 2458 3392 2803 3225 
Q 3149 3059 3347 2726 
L 3008 2496 
Q 2835 2752 2579 2873 
Q 2323 2995 2022 2995 
Q 1664 2995 1376 2832 
Q 1088 2669 921 2374 
Q 755 2080 755 1683 
Q 755 1286 921 992 
Q 1088 698 1376 534 
Q 1664 371 2022 371 
Q 2323 371 2579 492 
Q 2835 614 3008 864 
L 3347 634 
Q 3149 307 2803 137 
Q 2458 -32 2029 -32 
z
" transform="scale(0.015625)"/>
      <path id="Montserrat-Regular-65" d="M 2061 -32 
Q 1536 -32 1139 189 
Q 742 410 518 797 
Q 294 1184 294 1683 
Q 294 2182 508 2566 
Q 723 2950 1097 3171 
Q 1472 3392 1939 3392 
Q 2413 3392 2781 3177 
Q 3149 2963 3360 2576 
Q 3571 2189 3571 1683 
Q 3571 1651 3568 1616 
Q 3565 1581 3565 1542 
L 640 1542 
L 640 1882 
L 3322 1882 
L 3142 1747 
Q 3142 2112 2985 2397 
Q 2829 2682 2560 2842 
Q 2291 3002 1939 3002 
Q 1594 3002 1318 2842 
Q 1043 2682 889 2394 
Q 736 2106 736 1734 
L 736 1664 
Q 736 1280 905 989 
Q 1075 698 1379 534 
Q 1683 371 2074 371 
Q 2381 371 2646 480 
Q 2912 589 3104 813 
L 3360 518 
Q 3136 250 2800 109 
Q 2464 -32 2061 -32 
z
" transform="scale(0.015625)"/>
     </defs>
     <use xlink:href="#Montserrat-Regular-46"/>
     <use xlink:href="#Montserrat-Regular-72" transform="translate(63.299988 0)"/>
     <use xlink:href="#Montserrat-Regular-61" transform="translate(103.399979 0)"/>
     <use xlink:href="#Montserrat-Regular-6e" transform="translate(162.399963 0)"/>
     <use xlink:href="#Montserrat-Regular-63" transform="translate(229.999954 0)"/>
     <use xlink:href="#Montserrat-Regular-65" transform="translate(286.299942 0)"/>
     <use xlink:href="#Montserrat-Regular-20" transform="translate(346.699936 0)"/>
     <use xlink:href="#Montserrat-Regular-2192" transform="translate(372.899933 0)"/>
     <use xlink:href="#Montserrat-Regular-20" transform="translate(432.899918 0)"/>
    </g>
   </g>
   <g id="text_18">
    <!-- China →  -->
    <g style="fill: #696969" transform="translate(99.329375 227.13952) scale(0.1 -0.1)">
     <defs>
      <path id="Montserrat-Regular-43" d="M 2675 -38 
Q 2170 -38 1741 131 
Q 1312 301 998 608 
Q 685 915 509 1331 
Q 333 1747 333 2240 
Q 333 2733 509 3149 
Q 685 3565 1001 3872 
Q 1318 4179 1747 4348 
Q 2176 4518 2682 4518 
Q 3168 4518 3597 4355 
Q 4026 4192 4320 3866 
L 4019 3565 
Q 3744 3846 3411 3971 
Q 3078 4096 2694 4096 
Q 2291 4096 1945 3958 
Q 1600 3821 1344 3568 
Q 1088 3315 944 2979 
Q 800 2643 800 2240 
Q 800 1837 944 1501 
Q 1088 1165 1344 912 
Q 1600 659 1945 521 
Q 2291 384 2694 384 
Q 3078 384 3411 512 
Q 3744 640 4019 922 
L 4320 621 
Q 4026 294 3597 128 
Q 3168 -38 2675 -38 
z
" transform="scale(0.015625)"/>
      <path id="Montserrat-Regular-68" d="M 2349 3392 
Q 2758 3392 3068 3235 
Q 3379 3078 3555 2758 
Q 3731 2438 3731 1952 
L 3731 0 
L 3277 0 
L 3277 1907 
Q 3277 2438 3011 2710 
Q 2746 2982 2266 2982 
Q 1907 2982 1641 2838 
Q 1376 2694 1232 2422 
Q 1088 2150 1088 1766 
L 1088 0 
L 634 0 
L 634 4749 
L 1088 4749 
L 1088 2438 
L 998 2611 
Q 1158 2976 1510 3184 
Q 1862 3392 2349 3392 
z
" transform="scale(0.015625)"/>
      <path id="Montserrat-Regular-69" d="M 634 0 
L 634 3360 
L 1088 3360 
L 1088 0 
L 634 0 
z
M 864 4102 
Q 723 4102 627 4198 
Q 531 4294 531 4429 
Q 531 4563 627 4656 
Q 723 4749 864 4749 
Q 1005 4749 1101 4659 
Q 1197 4570 1197 4435 
Q 1197 4294 1104 4198 
Q 1011 4102 864 4102 
z
" transform="scale(0.015625)"/>
     </defs>
     <use xlink:href="#Montserrat-Regular-43"/>
     <use xlink:href="#Montserrat-Regular-68" transform="translate(71.899994 0)"/>
     <use xlink:href="#Montserrat-Regular-69" transform="translate(139.499985 0)"/>
     <use xlink:href="#Montserrat-Regular-6e" transform="translate(166.399979 0)"/>
     <use xlink:href="#Montserrat-Regular-61" transform="translate(233.999969 0)"/>
     <use xlink:href="#Montserrat-Regular-20" transform="translate(292.999954 0)"/>
     <use xlink:href="#Montserrat-Regular-2192" transform="translate(319.199951 0)"/>
     <use xlink:href="#Montserrat-Regular-20" transform="translate(379.199936 0)"/>
    </g>
   </g>
   <g id="text_19">
    <!-- India →  -->
    <g style="fill: #696969" transform="translate(138.213858 202.071135) scale(0.1 -0.1)">
     <defs>
      <path id="Montserrat-Regular-49" d="M 730 0 
L 730 4480 
L 1203 4480 
L 1203 0 
L 730 0 
z
" transform="scale(0.015625)"/>
      <path id="Montserrat-Regular-64" d="M 1971 -32 
Q 1491 -32 1110 185 
Q 730 403 512 790 
Q 294 1178 294 1683 
Q 294 2195 512 2579 
Q 730 2963 1110 3177 
Q 1491 3392 1971 3392 
Q 2413 3392 2761 3193 
Q 3110 2995 3318 2614 
Q 3526 2234 3526 1683 
Q 3526 1139 3321 755 
Q 3117 371 2768 169 
Q 2419 -32 1971 -32 
z
M 2003 371 
Q 2362 371 2646 534 
Q 2931 698 3094 995 
Q 3258 1293 3258 1683 
Q 3258 2080 3094 2374 
Q 2931 2669 2646 2832 
Q 2362 2995 2003 2995 
Q 1651 2995 1369 2832 
Q 1088 2669 921 2374 
Q 755 2080 755 1683 
Q 755 1293 921 995 
Q 1088 698 1369 534 
Q 1651 371 2003 371 
z
M 3270 0 
L 3270 1011 
L 3315 1690 
L 3251 2368 
L 3251 4749 
L 3706 4749 
L 3706 0 
L 3270 0 
z
" transform="scale(0.015625)"/>
     </defs>
     <use xlink:href="#Montserrat-Regular-49"/>
     <use xlink:href="#Montserrat-Regular-6e" transform="translate(30.199997 0)"/>
     <use xlink:href="#Montserrat-Regular-64" transform="translate(97.799988 0)"/>
     <use xlink:href="#Montserrat-Regular-69" transform="translate(165.599976 0)"/>
     <use xlink:href="#Montserrat-Regular-61" transform="translate(192.499969 0)"/>
     <use xlink:href="#Montserrat-Regular-20" transform="translate(251.499954 0)"/>
     <use xlink:href="#Montserrat-Regular-2192" transform="translate(277.699951 0)"/>
     <use xlink:href="#Montserrat-Regular-20" transform="translate(337.699936 0)"/>
    </g>
   </g>
   <g id="text_20">
    <!-- Pakistan →  -->
    <g style="fill: #696969" transform="translate(203.348491 189.536943) scale(0.1 -0.1)">
     <defs>
      <path id="Montserrat-Regular-50" d="M 730 0 
L 730 4480 
L 2406 4480 
Q 2976 4480 3385 4297 
Q 3795 4115 4016 3772 
Q 4237 3430 4237 2944 
Q 4237 2470 4016 2128 
Q 3795 1786 3385 1600 
Q 2976 1414 2406 1414 
L 992 1414 
L 1203 1638 
L 1203 0 
L 730 0 
z
M 1203 1600 
L 992 1830 
L 2394 1830 
Q 3066 1830 3414 2121 
Q 3763 2413 3763 2944 
Q 3763 3482 3414 3776 
Q 3066 4070 2394 4070 
L 992 4070 
L 1203 4294 
L 1203 1600 
z
" transform="scale(0.015625)"/>
      <path id="Montserrat-Regular-6b" d="M 992 870 
L 1005 1453 
L 3098 3360 
L 3654 3360 
L 2176 1946 
L 1920 1728 
L 992 870 
z
M 634 0 
L 634 4749 
L 1088 4749 
L 1088 0 
L 634 0 
z
M 3238 0 
L 1837 1747 
L 2131 2099 
L 3795 0 
L 3238 0 
z
" transform="scale(0.015625)"/>
      <path id="Montserrat-Regular-73" d="M 1536 -32 
Q 1120 -32 749 86 
Q 378 205 166 384 
L 371 742 
Q 576 589 896 477 
Q 1216 365 1568 365 
Q 2048 365 2259 515 
Q 2470 666 2470 915 
Q 2470 1101 2352 1206 
Q 2234 1312 2042 1366 
Q 1850 1421 1613 1459 
Q 1376 1498 1142 1549 
Q 909 1600 717 1699 
Q 525 1798 406 1971 
Q 288 2144 288 2432 
Q 288 2707 441 2924 
Q 595 3142 892 3267 
Q 1190 3392 1619 3392 
Q 1946 3392 2272 3305 
Q 2598 3219 2810 3078 
L 2611 2714 
Q 2387 2867 2131 2934 
Q 1875 3002 1619 3002 
Q 1165 3002 950 2845 
Q 736 2688 736 2445 
Q 736 2253 854 2144 
Q 973 2035 1168 1974 
Q 1363 1914 1596 1875 
Q 1830 1837 2064 1782 
Q 2298 1728 2493 1635 
Q 2688 1542 2806 1372 
Q 2925 1203 2925 928 
Q 2925 634 2761 419 
Q 2598 205 2288 86 
Q 1978 -32 1536 -32 
z
" transform="scale(0.015625)"/>
      <path id="Montserrat-Regular-74" d="M 1696 -32 
Q 1222 -32 966 224 
Q 710 480 710 947 
L 710 4102 
L 1165 4102 
L 1165 973 
Q 1165 678 1315 518 
Q 1466 358 1747 358 
Q 2048 358 2246 531 
L 2406 205 
Q 2272 83 2083 25 
Q 1894 -32 1696 -32 
z
M 109 2982 
L 109 3360 
L 2189 3360 
L 2189 2982 
L 109 2982 
z
" transform="scale(0.015625)"/>
     </defs>
     <use xlink:href="#Montserrat-Regular-50"/>
     <use xlink:href="#Montserrat-Regular-61" transform="translate(71.799988 0)"/>
     <use xlink:href="#Montserrat-Regular-6b" transform="translate(130.799973 0)"/>
     <use xlink:href="#Montserrat-Regular-69" transform="translate(190.899963 0)"/>
     <use xlink:href="#Montserrat-Regular-73" transform="translate(217.799957 0)"/>
     <use xlink:href="#Montserrat-Regular-74" transform="translate(266.599945 0)"/>
     <use xlink:href="#Montserrat-Regular-61" transform="translate(307.199936 0)"/>
     <use xlink:href="#Montserrat-Regular-6e" transform="translate(366.199921 0)"/>
     <use xlink:href="#Montserrat-Regular-20" transform="translate(433.799911 0)"/>
     <use xlink:href="#Montserrat-Regular-2192" transform="translate(459.999908 0)"/>
     <use xlink:href="#Montserrat-Regular-20" transform="translate(519.999893 0)"/>
    </g>
   </g>
   <g id="text_21">
    <!-- Israel →  -->
    <g style="fill: #696969" transform="translate(119.455991 214.605327) scale(0.1 -0.1)">
     <defs>
      <path id="Montserrat-Regular-6c" d="M 634 0 
L 634 4749 
L 1088 4749 
L 1088 0 
L 634 0 
z
" transform="scale(0.015625)"/>
     </defs>
     <use xlink:href="#Montserrat-Regular-49"/>
     <use xlink:href="#Montserrat-Regular-73" transform="translate(30.199997 0)"/>
     <use xlink:href="#Montserrat-Regular-72" transform="translate(78.999985 0)"/>
     <use xlink:href="#Montserrat-Regular-61" transform="translate(119.099976 0)"/>
     <use xlink:href="#Montserrat-Regular-65" transform="translate(178.09996 0)"/>
     <use xlink:href="#Montserrat-Regular-6c" transform="translate(238.499954 0)"/>
     <use xlink:href="#Montserrat-Regular-20" transform="translate(265.399948 0)"/>
     <use xlink:href="#Montserrat-Regular-2192" transform="translate(291.599945 0)"/>
     <use xlink:href="#Montserrat-Regular-20" transform="translate(351.59993 0)"/>
    </g>
   </g>
   <g id="text_22">
    <!-- North Korea →  -->
    <g style="fill: #696969" transform="translate(213.336078 177.002751) scale(0.1 -0.1)">
     <defs>
      <path id="Montserrat-Regular-4e" d="M 730 0 
L 730 4480 
L 1120 4480 
L 4211 589 
L 4006 589 
L 4006 4480 
L 4474 4480 
L 4474 0 
L 4083 0 
L 998 3891 
L 1203 3891 
L 1203 0 
L 730 0 
z
" transform="scale(0.015625)"/>
      <path id="Montserrat-Regular-6f" d="M 2003 -32 
Q 1517 -32 1129 189 
Q 742 410 518 797 
Q 294 1184 294 1683 
Q 294 2189 518 2573 
Q 742 2957 1126 3174 
Q 1510 3392 2003 3392 
Q 2502 3392 2889 3174 
Q 3277 2957 3497 2573 
Q 3718 2189 3718 1683 
Q 3718 1184 3497 797 
Q 3277 410 2886 189 
Q 2496 -32 2003 -32 
z
M 2003 371 
Q 2368 371 2649 534 
Q 2931 698 3094 995 
Q 3258 1293 3258 1683 
Q 3258 2080 3094 2374 
Q 2931 2669 2649 2832 
Q 2368 2995 2010 2995 
Q 1651 2995 1369 2832 
Q 1088 2669 921 2374 
Q 755 2080 755 1683 
Q 755 1293 921 995 
Q 1088 698 1369 534 
Q 1651 371 2003 371 
z
" transform="scale(0.015625)"/>
     </defs>
     <use xlink:href="#Montserrat-Regular-4e"/>
     <use xlink:href="#Montserrat-Regular-6f" transform="translate(81.299988 0)"/>
     <use xlink:href="#Montserrat-Regular-72" transform="translate(143.999985 0)"/>
     <use xlink:href="#Montserrat-Regular-74" transform="translate(184.099976 0)"/>
     <use xlink:href="#Montserrat-Regular-68" transform="translate(224.699966 0)"/>
     <use xlink:href="#Montserrat-Regular-20" transform="translate(292.299957 0)"/>
     <use xlink:href="#Montserrat-Regular-4b" transform="translate(318.499954 0)"/>
     <use xlink:href="#Montserrat-Regular-6f" transform="translate(389.599945 0)"/>
     <use xlink:href="#Montserrat-Regular-72" transform="translate(452.299942 0)"/>
     <use xlink:href="#Montserrat-Regular-65" transform="translate(492.399933 0)"/>
     <use xlink:href="#Montserrat-Regular-61" transform="translate(552.799927 0)"/>
     <use xlink:href="#Montserrat-Regular-20" transform="translate(611.799911 0)"/>
     <use xlink:href="#Montserrat-Regular-2192" transform="translate(637.999908 0)"/>
     <use xlink:href="#Montserrat-Regular-20" transform="translate(697.999893 0)"/>
    </g>
   </g>
   <g id="text_23">
    <!--  ← We are here -->
    <g style="fill: #333333" transform="translate(351.750345 177.883927) scale(0.12 -0.12)">
     <defs>
      <path id="Montserrat-Regular-2190" d="M 1536 486 
L 678 1741 
L 1536 3008 
L 1965 3008 
L 1139 1741 
L 1965 486 
L 1536 486 
z
M 1043 1568 
L 1043 1920 
L 3366 1920 
L 3366 1568 
L 1043 1568 
z
" transform="scale(0.015625)"/>
      <path id="Montserrat-Regular-57" d="M 1747 0 
L 237 4480 
L 723 4480 
L 2138 262 
L 1894 262 
L 3354 4480 
L 3789 4480 
L 5229 262 
L 4998 262 
L 6426 4480 
L 6880 4480 
L 5370 0 
L 4870 0 
L 3494 4000 
L 3622 4000 
L 2240 0 
L 1747 0 
z
" transform="scale(0.015625)"/>
     </defs>
     <use xlink:href="#Montserrat-Regular-20"/>
     <use xlink:href="#Montserrat-Regular-2190" transform="translate(26.199997 0)"/>
     <use xlink:href="#Montserrat-Regular-20" transform="translate(86.199982 0)"/>
     <use xlink:href="#Montserrat-Regular-57" transform="translate(112.399979 0)"/>
     <use xlink:href="#Montserrat-Regular-65" transform="translate(223.499969 0)"/>
     <use xlink:href="#Montserrat-Regular-20" transform="translate(283.899963 0)"/>
     <use xlink:href="#Montserrat-Regular-61" transform="translate(310.09996 0)"/>
     <use xlink:href="#Montserrat-Regular-72" transform="translate(369.099945 0)"/>
     <use xlink:href="#Montserrat-Regular-65" transform="translate(409.199936 0)"/>
     <use xlink:href="#Montserrat-Regular-20" transform="translate(469.59993 0)"/>
     <use xlink:href="#Montserrat-Regular-68" transform="translate(495.799927 0)"/>
     <use xlink:href="#Montserrat-Regular-65" transform="translate(563.399918 0)"/>
     <use xlink:href="#Montserrat-Regular-72" transform="translate(623.799911 0)"/>
     <use xlink:href="#Montserrat-Regular-65" transform="translate(663.899902 0)"/>
    </g>
   </g>
   <g id="text_24">
    <!-- dynomight.net -->
    <g style="fill: #808080" transform="translate(480.37375 286.150426) scale(0.08 -0.08)">
     <defs>
      <path id="CourierNewPSMT-64" d="M 3206 3922 
L 3206 263 
L 3556 263 
Q 3653 263 3693 227 
Q 3734 191 3734 131 
Q 3734 75 3693 37 
Q 3653 0 3556 0 
L 2941 0 
L 2941 522 
Q 2484 -103 1781 -103 
Q 1425 -103 1098 86 
Q 772 275 583 625 
Q 394 975 394 1347 
Q 394 1722 583 2070 
Q 772 2419 1098 2609 
Q 1425 2800 1784 2800 
Q 2472 2800 2941 2175 
L 2941 3656 
L 2591 3656 
Q 2494 3656 2453 3693 
Q 2413 3731 2413 3791 
Q 2413 3847 2453 3884 
Q 2494 3922 2591 3922 
L 3206 3922 
z
M 2941 1347 
Q 2941 1847 2603 2190 
Q 2266 2534 1800 2534 
Q 1331 2534 993 2190 
Q 656 1847 656 1347 
Q 656 850 993 504 
Q 1331 159 1800 159 
Q 2266 159 2603 504 
Q 2941 850 2941 1347 
z
" transform="scale(0.015625)"/>
      <path id="CourierNewPSMT-79" d="M 1938 0 
L 719 2441 
L 641 2441 
Q 547 2441 506 2478 
Q 466 2516 466 2572 
Q 466 2613 486 2645 
Q 506 2678 539 2692 
Q 572 2706 641 2706 
L 1359 2706 
Q 1453 2706 1493 2668 
Q 1534 2631 1534 2572 
Q 1534 2516 1493 2478 
Q 1453 2441 1359 2441 
L 1006 2441 
L 2078 288 
L 3134 2441 
L 2781 2441 
Q 2688 2441 2647 2478 
Q 2606 2516 2606 2575 
Q 2606 2631 2647 2668 
Q 2688 2706 2781 2706 
L 3497 2706 
Q 3594 2706 3634 2668 
Q 3675 2631 3675 2572 
Q 3675 2531 3650 2497 
Q 3625 2463 3594 2452 
Q 3563 2441 3419 2441 
L 1756 -944 
L 2166 -944 
Q 2259 -944 2300 -980 
Q 2341 -1016 2341 -1075 
Q 2341 -1131 2300 -1168 
Q 2259 -1206 2166 -1206 
L 653 -1206 
Q 559 -1206 518 -1170 
Q 478 -1134 478 -1075 
Q 478 -1016 518 -980 
Q 559 -944 653 -944 
L 1475 -944 
L 1938 0 
z
" transform="scale(0.015625)"/>
      <path id="CourierNewPSMT-6e" d="M 1072 2706 
L 1072 2309 
Q 1347 2588 1569 2694 
Q 1791 2800 2069 2800 
Q 2369 2800 2616 2672 
Q 2791 2578 2933 2361 
Q 3075 2144 3075 1916 
L 3075 263 
L 3297 263 
Q 3391 263 3431 227 
Q 3472 191 3472 131 
Q 3472 75 3431 37 
Q 3391 0 3297 0 
L 2594 0 
Q 2497 0 2456 37 
Q 2416 75 2416 131 
Q 2416 191 2456 227 
Q 2497 263 2594 263 
L 2813 263 
L 2813 1872 
Q 2813 2150 2609 2342 
Q 2406 2534 2066 2534 
Q 1806 2534 1615 2429 
Q 1425 2325 1072 1909 
L 1072 263 
L 1369 263 
Q 1463 263 1503 227 
Q 1544 191 1544 131 
Q 1544 75 1503 37 
Q 1463 0 1369 0 
L 513 0 
Q 419 0 378 37 
Q 338 75 338 131 
Q 338 191 378 227 
Q 419 263 513 263 
L 809 263 
L 809 2441 
L 588 2441 
Q 494 2441 453 2478 
Q 413 2516 413 2575 
Q 413 2631 453 2668 
Q 494 2706 588 2706 
L 1072 2706 
z
" transform="scale(0.015625)"/>
      <path id="CourierNewPSMT-6f" d="M 3388 1347 
Q 3388 747 2958 322 
Q 2528 -103 1922 -103 
Q 1309 -103 881 323 
Q 453 750 453 1347 
Q 453 1947 881 2373 
Q 1309 2800 1922 2800 
Q 2528 2800 2958 2375 
Q 3388 1950 3388 1347 
z
M 3122 1347 
Q 3122 1841 2770 2187 
Q 2419 2534 1919 2534 
Q 1419 2534 1067 2186 
Q 716 1838 716 1347 
Q 716 859 1067 509 
Q 1419 159 1919 159 
Q 2419 159 2770 507 
Q 3122 856 3122 1347 
z
" transform="scale(0.015625)"/>
      <path id="CourierNewPSMT-6d" d="M 725 2706 
L 725 2441 
Q 1059 2800 1397 2800 
Q 1600 2800 1753 2692 
Q 1906 2584 2009 2366 
Q 2184 2584 2364 2692 
Q 2544 2800 2725 2800 
Q 3009 2800 3178 2616 
Q 3400 2378 3400 2097 
L 3400 263 
L 3622 263 
Q 3716 263 3756 227 
Q 3797 191 3797 131 
Q 3797 75 3756 37 
Q 3716 0 3622 0 
L 3138 0 
L 3138 2072 
Q 3138 2272 3016 2403 
Q 2894 2534 2734 2534 
Q 2591 2534 2431 2426 
Q 2272 2319 2069 2003 
L 2069 263 
L 2288 263 
Q 2381 263 2422 227 
Q 2463 191 2463 131 
Q 2463 75 2422 37 
Q 2381 0 2288 0 
L 1803 0 
L 1803 2053 
Q 1803 2263 1679 2398 
Q 1556 2534 1403 2534 
Q 1263 2534 1125 2444 
Q 934 2316 725 2003 
L 725 263 
L 947 263 
Q 1041 263 1081 227 
Q 1122 191 1122 131 
Q 1122 75 1081 37 
Q 1041 0 947 0 
L 241 0 
Q 147 0 106 37 
Q 66 75 66 131 
Q 66 191 106 227 
Q 147 263 241 263 
L 463 263 
L 463 2441 
L 241 2441 
Q 147 2441 106 2478 
Q 66 2516 66 2575 
Q 66 2631 106 2668 
Q 147 2706 241 2706 
L 725 2706 
z
" transform="scale(0.015625)"/>
      <path id="CourierNewPSMT-69" d="M 2050 4053 
L 2050 3375 
L 1663 3375 
L 1663 4053 
L 2050 4053 
z
M 2059 2706 
L 2059 263 
L 3091 263 
Q 3188 263 3228 227 
Q 3269 191 3269 131 
Q 3269 75 3228 37 
Q 3188 0 3091 0 
L 766 0 
Q 672 0 631 37 
Q 591 75 591 131 
Q 591 191 631 227 
Q 672 263 766 263 
L 1797 263 
L 1797 2441 
L 1031 2441 
Q 938 2441 895 2478 
Q 853 2516 853 2572 
Q 853 2631 893 2668 
Q 934 2706 1031 2706 
L 2059 2706 
z
" transform="scale(0.015625)"/>
      <path id="CourierNewPSMT-67" d="M 2803 2225 
L 2803 2706 
L 3419 2706 
Q 3513 2706 3553 2668 
Q 3594 2631 3594 2572 
Q 3594 2516 3553 2478 
Q 3513 2441 3419 2441 
L 3066 2441 
L 3066 -181 
Q 3066 -444 2953 -650 
Q 2878 -788 2703 -934 
Q 2528 -1081 2384 -1143 
Q 2241 -1206 2000 -1206 
L 1256 -1206 
Q 1163 -1206 1122 -1170 
Q 1081 -1134 1081 -1075 
Q 1081 -1016 1122 -978 
Q 1163 -941 1256 -941 
L 2009 -944 
Q 2241 -944 2427 -825 
Q 2613 -706 2734 -478 
Q 2803 -347 2803 -144 
L 2803 644 
Q 2381 66 1716 66 
Q 1175 66 783 467 
Q 391 869 391 1434 
Q 391 2000 783 2400 
Q 1175 2800 1716 2800 
Q 2381 2800 2803 2225 
z
M 2803 1434 
Q 2803 1897 2486 2215 
Q 2169 2534 1728 2534 
Q 1288 2534 972 2214 
Q 656 1894 656 1434 
Q 656 972 972 651 
Q 1288 331 1728 331 
Q 2169 331 2486 651 
Q 2803 972 2803 1434 
z
" transform="scale(0.015625)"/>
      <path id="CourierNewPSMT-68" d="M 1056 3922 
L 1056 2306 
Q 1306 2578 1536 2689 
Q 1766 2800 2050 2800 
Q 2356 2800 2570 2692 
Q 2784 2584 2928 2361 
Q 3072 2138 3072 1891 
L 3072 263 
L 3366 263 
Q 3463 263 3502 227 
Q 3541 191 3541 131 
Q 3541 75 3502 37 
Q 3463 0 3366 0 
L 2513 0 
Q 2416 0 2375 37 
Q 2334 75 2334 131 
Q 2334 191 2375 227 
Q 2416 263 2513 263 
L 2806 263 
L 2806 1872 
Q 2806 2156 2601 2347 
Q 2397 2538 2031 2538 
Q 1744 2538 1541 2397 
Q 1394 2297 1056 1925 
L 1056 263 
L 1353 263 
Q 1447 263 1487 227 
Q 1528 191 1528 131 
Q 1528 75 1487 37 
Q 1447 0 1353 0 
L 497 0 
Q 403 0 362 37 
Q 322 75 322 131 
Q 322 191 362 227 
Q 403 263 497 263 
L 794 263 
L 794 3656 
L 441 3656 
Q 347 3656 306 3693 
Q 266 3731 266 3791 
Q 266 3847 306 3884 
Q 347 3922 441 3922 
L 1056 3922 
z
" transform="scale(0.015625)"/>
      <path id="CourierNewPSMT-74" d="M 1381 2706 
L 2806 2706 
Q 2900 2706 2940 2668 
Q 2981 2631 2981 2572 
Q 2981 2516 2940 2478 
Q 2900 2441 2806 2441 
L 1381 2441 
L 1381 694 
Q 1381 466 1564 312 
Q 1747 159 2100 159 
Q 2366 159 2675 239 
Q 2984 319 3156 419 
Q 3219 459 3259 459 
Q 3309 459 3346 420 
Q 3384 381 3384 328 
Q 3384 281 3344 241 
Q 3244 138 2858 17 
Q 2472 -103 2119 -103 
Q 1659 -103 1387 112 
Q 1116 328 1116 694 
L 1116 2441 
L 631 2441 
Q 538 2441 497 2478 
Q 456 2516 456 2575 
Q 456 2631 497 2668 
Q 538 2706 631 2706 
L 1116 2706 
L 1116 3481 
Q 1116 3575 1153 3615 
Q 1191 3656 1247 3656 
Q 1306 3656 1343 3615 
Q 1381 3575 1381 3481 
L 1381 2706 
z
" transform="scale(0.015625)"/>
      <path id="CourierNewPSMT-2e" d="M 1866 753 
L 1978 753 
Q 2153 753 2278 629 
Q 2403 506 2403 331 
Q 2403 150 2276 28 
Q 2150 -94 1978 -94 
L 1866 -94 
Q 1691 -94 1566 29 
Q 1441 153 1441 328 
Q 1441 509 1567 631 
Q 1694 753 1866 753 
z
" transform="scale(0.015625)"/>
      <path id="CourierNewPSMT-65" d="M 3341 1291 
L 666 1291 
Q 734 781 1092 470 
Q 1450 159 1978 159 
Q 2272 159 2594 256 
Q 2916 353 3119 513 
Q 3178 559 3222 559 
Q 3272 559 3309 520 
Q 3347 481 3347 428 
Q 3347 375 3297 325 
Q 3147 169 2764 33 
Q 2381 -103 1978 -103 
Q 1303 -103 851 339 
Q 400 781 400 1409 
Q 400 1981 823 2390 
Q 1247 2800 1872 2800 
Q 2516 2800 2931 2379 
Q 3347 1959 3341 1291 
z
M 3075 1556 
Q 2997 1991 2664 2262 
Q 2331 2534 1872 2534 
Q 1413 2534 1081 2265 
Q 750 1997 669 1556 
L 3075 1556 
z
" transform="scale(0.015625)"/>
     </defs>
     <use xlink:href="#CourierNewPSMT-64"/>
     <use xlink:href="#CourierNewPSMT-79" transform="translate(60.009766 0)"/>
     <use xlink:href="#CourierNewPSMT-6e" transform="translate(120.019531 0)"/>
     <use xlink:href="#CourierNewPSMT-6f" transform="translate(180.029297 0)"/>
     <use xlink:href="#CourierNewPSMT-6d" transform="translate(240.039062 0)"/>
     <use xlink:href="#CourierNewPSMT-69" transform="translate(300.048828 0)"/>
     <use xlink:href="#CourierNewPSMT-67" transform="translate(360.058594 0)"/>
     <use xlink:href="#CourierNewPSMT-68" transform="translate(420.068359 0)"/>
     <use xlink:href="#CourierNewPSMT-74" transform="translate(480.078125 0)"/>
     <use xlink:href="#CourierNewPSMT-2e" transform="translate(540.087891 0)"/>
     <use xlink:href="#CourierNewPSMT-6e" transform="translate(600.097656 0)"/>
     <use xlink:href="#CourierNewPSMT-65" transform="translate(660.107422 0)"/>
     <use xlink:href="#CourierNewPSMT-74" transform="translate(720.117188 0)"/>
    </g>
   </g>
   <g id="text_25">
    <!-- Countries with nuclear weapons -->
    <g style="fill: #333333" transform="translate(96.623125 30.72) scale(0.24 -0.24)">
     <defs>
      <path id="Montserrat-Regular-75" d="M 2022 -32 
Q 1594 -32 1274 128 
Q 954 288 778 608 
Q 602 928 602 1408 
L 602 3360 
L 1056 3360 
L 1056 1459 
Q 1056 922 1321 650 
Q 1587 378 2067 378 
Q 2419 378 2678 522 
Q 2938 666 3075 941 
Q 3213 1216 3213 1600 
L 3213 3360 
L 3667 3360 
L 3667 0 
L 3232 0 
L 3232 922 
L 3302 755 
Q 3142 384 2806 176 
Q 2470 -32 2022 -32 
z
" transform="scale(0.015625)"/>
      <path id="Montserrat-Regular-77" d="M 1318 0 
L 51 3360 
L 486 3360 
L 1638 243 
L 1440 243 
L 2624 3360 
L 3014 3360 
L 4186 243 
L 3987 243 
L 5158 3360 
L 5574 3360 
L 4301 0 
L 3872 0 
L 2746 2931 
L 2880 2931 
L 1747 0 
L 1318 0 
z
" transform="scale(0.015625)"/>
      <path id="Montserrat-Regular-70" d="M 2368 -32 
Q 1933 -32 1581 169 
Q 1229 371 1021 752 
Q 813 1133 813 1683 
Q 813 2234 1017 2614 
Q 1222 2995 1574 3193 
Q 1926 3392 2368 3392 
Q 2848 3392 3229 3177 
Q 3610 2963 3827 2576 
Q 4045 2189 4045 1683 
Q 4045 1171 3827 787 
Q 3610 403 3229 185 
Q 2848 -32 2368 -32 
z
M 634 -1242 
L 634 3360 
L 1069 3360 
L 1069 2349 
L 1024 1677 
L 1088 998 
L 1088 -1242 
L 634 -1242 
z
M 2336 371 
Q 2694 371 2976 534 
Q 3258 698 3424 995 
Q 3590 1293 3590 1683 
Q 3590 2074 3424 2368 
Q 3258 2662 2976 2828 
Q 2694 2995 2336 2995 
Q 1978 2995 1693 2828 
Q 1408 2662 1245 2368 
Q 1082 2074 1082 1683 
Q 1082 1293 1245 995 
Q 1408 698 1693 534 
Q 1978 371 2336 371 
z
" transform="scale(0.015625)"/>
     </defs>
     <use xlink:href="#Montserrat-Regular-43"/>
     <use xlink:href="#Montserrat-Regular-6f" transform="translate(71.899994 0)"/>
     <use xlink:href="#Montserrat-Regular-75" transform="translate(134.599991 0)"/>
     <use xlink:href="#Montserrat-Regular-6e" transform="translate(201.799988 0)"/>
     <use xlink:href="#Montserrat-Regular-74" transform="translate(269.399979 0)"/>
     <use xlink:href="#Montserrat-Regular-72" transform="translate(309.999969 0)"/>
     <use xlink:href="#Montserrat-Regular-69" transform="translate(350.09996 0)"/>
     <use xlink:href="#Montserrat-Regular-65" transform="translate(376.999954 0)"/>
     <use xlink:href="#Montserrat-Regular-73" transform="translate(437.399948 0)"/>
     <use xlink:href="#Montserrat-Regular-20" transform="translate(486.199936 0)"/>
     <use xlink:href="#Montserrat-Regular-77" transform="translate(512.399933 0)"/>
     <use xlink:href="#Montserrat-Regular-69" transform="translate(600.299927 0)"/>
     <use xlink:href="#Montserrat-Regular-74" transform="translate(627.199921 0)"/>
     <use xlink:href="#Montserrat-Regular-68" transform="translate(667.799911 0)"/>
     <use xlink:href="#Montserrat-Regular-20" transform="translate(735.399902 0)"/>
     <use xlink:href="#Montserrat-Regular-6e" transform="translate(761.599899 0)"/>
     <use xlink:href="#Montserrat-Regular-75" transform="translate(829.19989 0)"/>
     <use xlink:href="#Montserrat-Regular-63" transform="translate(896.399887 0)"/>
     <use xlink:href="#Montserrat-Regular-6c" transform="translate(952.699875 0)"/>
     <use xlink:href="#Montserrat-Regular-65" transform="translate(979.599869 0)"/>
     <use xlink:href="#Montserrat-Regular-61" transform="translate(1039.999863 0)"/>
     <use xlink:href="#Montserrat-Regular-72" transform="translate(1098.999847 0)"/>
     <use xlink:href="#Montserrat-Regular-20" transform="translate(1139.099838 0)"/>
     <use xlink:href="#Montserrat-Regular-77" transform="translate(1165.299835 0)"/>
     <use xlink:href="#Montserrat-Regular-65" transform="translate(1253.199829 0)"/>
     <use xlink:href="#Montserrat-Regular-61" transform="translate(1313.599823 0)"/>
     <use xlink:href="#Montserrat-Regular-70" transform="translate(1372.599808 0)"/>
     <use xlink:href="#Montserrat-Regular-6f" transform="translate(1440.399796 0)"/>
     <use xlink:href="#Montserrat-Regular-6e" transform="translate(1503.099792 0)"/>
     <use xlink:href="#Montserrat-Regular-73" transform="translate(1570.699783 0)"/>
    </g>
   </g>
  </g>
 </g>
 <defs>
  <clipPath id="pedd8b89eec">
   <rect x="39.14" y="36.72" width="503.65" height="252.94"/>
  </clipPath>
 </defs>
</svg>
