<?xml version="1.0" encoding="utf-8" standalone="no"?>
<!DOCTYPE svg PUBLIC "-//W3C//DTD SVG 1.1//EN"
  "http://www.w3.org/Graphics/SVG/1.1/DTD/svg11.dtd">
<svg height="244.8pt" version="1.1" viewBox="0 0 432 244.8" width="432pt" xmlns="http://www.w3.org/2000/svg" xmlns:xlink="http://www.w3.org/1999/xlink">
 <metadata>
  <rdf:RDF xmlns:cc="http://creativecommons.org/ns#" xmlns:dc="http://purl.org/dc/elements/1.1/" xmlns:rdf="http://www.w3.org/1999/02/22-rdf-syntax-ns#">
   <cc:Work>
    <dc:type rdf:resource="http://purl.org/dc/dcmitype/StillImage"/>
    <dc:date>2021-05-30T09:22:54.898921</dc:date>
    <dc:format>image/svg+xml</dc:format>
    <dc:creator>
     <cc:Agent>
      <dc:title>Matplotlib v3.4.1, https://matplotlib.org/</dc:title>
     </cc:Agent>
    </dc:creator>
   </cc:Work>
  </rdf:RDF>
 </metadata>
 <defs>
  <style type="text/css">*{stroke-linecap:butt;stroke-linejoin:round;}</style>
 </defs>
 <g id="figure_1">
  <g id="patch_1">
   <path d="M 0 244.8 
L 432 244.8 
L 432 0 
L 0 0 
z
" style="fill:#ffffff;"/>
  </g>
  <g id="axes_1">
   <g id="patch_2">
    <path d="M 60.522772 195.5808 
L 359.456436 195.5808 
L 359.456436 10.8 
L 60.522772 10.8 
z
" style="fill:#ffffff;"/>
   </g>
   <g id="matplotlib.axis_1">
    <g id="xtick_1">
     <g id="line2d_1">
      <defs>
       <path d="M 0 0 
L 0 3.5 
" id="m76d918e7b0" style="stroke:#000000;stroke-width:0.8;"/>
      </defs>
      <g>
       <use style="stroke:#000000;stroke-width:0.8;" x="60.522772" xlink:href="#m76d918e7b0" y="195.5808"/>
      </g>
     </g>
     <g id="text_1">
      <!-- bad -->
      <g transform="translate(51.110272 210.179237)scale(0.1 -0.1)">
       <defs>
        <path d="M 3116 1747 
Q 3116 2381 2855 2742 
Q 2594 3103 2138 3103 
Q 1681 3103 1420 2742 
Q 1159 2381 1159 1747 
Q 1159 1113 1420 752 
Q 1681 391 2138 391 
Q 2594 391 2855 752 
Q 3116 1113 3116 1747 
z
M 1159 2969 
Q 1341 3281 1617 3432 
Q 1894 3584 2278 3584 
Q 2916 3584 3314 3078 
Q 3713 2572 3713 1747 
Q 3713 922 3314 415 
Q 2916 -91 2278 -91 
Q 1894 -91 1617 61 
Q 1341 213 1159 525 
L 1159 0 
L 581 0 
L 581 4863 
L 1159 4863 
L 1159 2969 
z
" id="DejaVuSans-62" transform="scale(0.015625)"/>
        <path d="M 2194 1759 
Q 1497 1759 1228 1600 
Q 959 1441 959 1056 
Q 959 750 1161 570 
Q 1363 391 1709 391 
Q 2188 391 2477 730 
Q 2766 1069 2766 1631 
L 2766 1759 
L 2194 1759 
z
M 3341 1997 
L 3341 0 
L 2766 0 
L 2766 531 
Q 2569 213 2275 61 
Q 1981 -91 1556 -91 
Q 1019 -91 701 211 
Q 384 513 384 1019 
Q 384 1609 779 1909 
Q 1175 2209 1959 2209 
L 2766 2209 
L 2766 2266 
Q 2766 2663 2505 2880 
Q 2244 3097 1772 3097 
Q 1472 3097 1187 3025 
Q 903 2953 641 2809 
L 641 3341 
Q 956 3463 1253 3523 
Q 1550 3584 1831 3584 
Q 2591 3584 2966 3190 
Q 3341 2797 3341 1997 
z
" id="DejaVuSans-61" transform="scale(0.015625)"/>
        <path d="M 2906 2969 
L 2906 4863 
L 3481 4863 
L 3481 0 
L 2906 0 
L 2906 525 
Q 2725 213 2448 61 
Q 2172 -91 1784 -91 
Q 1150 -91 751 415 
Q 353 922 353 1747 
Q 353 2572 751 3078 
Q 1150 3584 1784 3584 
Q 2172 3584 2448 3432 
Q 2725 3281 2906 2969 
z
M 947 1747 
Q 947 1113 1208 752 
Q 1469 391 1925 391 
Q 2381 391 2643 752 
Q 2906 1113 2906 1747 
Q 2906 2381 2643 2742 
Q 2381 3103 1925 3103 
Q 1469 3103 1208 2742 
Q 947 2381 947 1747 
z
" id="DejaVuSans-64" transform="scale(0.015625)"/>
       </defs>
       <use xlink:href="#DejaVuSans-62"/>
       <use x="63.476562" xlink:href="#DejaVuSans-61"/>
       <use x="124.755859" xlink:href="#DejaVuSans-64"/>
      </g>
     </g>
    </g>
    <g id="xtick_2">
     <g id="line2d_2">
      <g>
       <use style="stroke:#000000;stroke-width:0.8;" x="356.496696" xlink:href="#m76d918e7b0" y="195.5808"/>
      </g>
     </g>
     <g id="text_2">
      <!-- good -->
      <g transform="translate(344.029509 210.179237)scale(0.1 -0.1)">
       <defs>
        <path d="M 2906 1791 
Q 2906 2416 2648 2759 
Q 2391 3103 1925 3103 
Q 1463 3103 1205 2759 
Q 947 2416 947 1791 
Q 947 1169 1205 825 
Q 1463 481 1925 481 
Q 2391 481 2648 825 
Q 2906 1169 2906 1791 
z
M 3481 434 
Q 3481 -459 3084 -895 
Q 2688 -1331 1869 -1331 
Q 1566 -1331 1297 -1286 
Q 1028 -1241 775 -1147 
L 775 -588 
Q 1028 -725 1275 -790 
Q 1522 -856 1778 -856 
Q 2344 -856 2625 -561 
Q 2906 -266 2906 331 
L 2906 616 
Q 2728 306 2450 153 
Q 2172 0 1784 0 
Q 1141 0 747 490 
Q 353 981 353 1791 
Q 353 2603 747 3093 
Q 1141 3584 1784 3584 
Q 2172 3584 2450 3431 
Q 2728 3278 2906 2969 
L 2906 3500 
L 3481 3500 
L 3481 434 
z
" id="DejaVuSans-67" transform="scale(0.015625)"/>
        <path d="M 1959 3097 
Q 1497 3097 1228 2736 
Q 959 2375 959 1747 
Q 959 1119 1226 758 
Q 1494 397 1959 397 
Q 2419 397 2687 759 
Q 2956 1122 2956 1747 
Q 2956 2369 2687 2733 
Q 2419 3097 1959 3097 
z
M 1959 3584 
Q 2709 3584 3137 3096 
Q 3566 2609 3566 1747 
Q 3566 888 3137 398 
Q 2709 -91 1959 -91 
Q 1206 -91 779 398 
Q 353 888 353 1747 
Q 353 2609 779 3096 
Q 1206 3584 1959 3584 
z
" id="DejaVuSans-6f" transform="scale(0.015625)"/>
       </defs>
       <use xlink:href="#DejaVuSans-67"/>
       <use x="63.476562" xlink:href="#DejaVuSans-6f"/>
       <use x="124.658203" xlink:href="#DejaVuSans-6f"/>
       <use x="185.839844" xlink:href="#DejaVuSans-64"/>
      </g>
     </g>
    </g>
    <g id="text_3">
     <!-- people who want to be constrained -->
     <g transform="translate(121.754448 223.857362)scale(0.1 -0.1)">
      <defs>
       <path d="M 1159 525 
L 1159 -1331 
L 581 -1331 
L 581 3500 
L 1159 3500 
L 1159 2969 
Q 1341 3281 1617 3432 
Q 1894 3584 2278 3584 
Q 2916 3584 3314 3078 
Q 3713 2572 3713 1747 
Q 3713 922 3314 415 
Q 2916 -91 2278 -91 
Q 1894 -91 1617 61 
Q 1341 213 1159 525 
z
M 3116 1747 
Q 3116 2381 2855 2742 
Q 2594 3103 2138 3103 
Q 1681 3103 1420 2742 
Q 1159 2381 1159 1747 
Q 1159 1113 1420 752 
Q 1681 391 2138 391 
Q 2594 391 2855 752 
Q 3116 1113 3116 1747 
z
" id="DejaVuSans-70" transform="scale(0.015625)"/>
       <path d="M 3597 1894 
L 3597 1613 
L 953 1613 
Q 991 1019 1311 708 
Q 1631 397 2203 397 
Q 2534 397 2845 478 
Q 3156 559 3463 722 
L 3463 178 
Q 3153 47 2828 -22 
Q 2503 -91 2169 -91 
Q 1331 -91 842 396 
Q 353 884 353 1716 
Q 353 2575 817 3079 
Q 1281 3584 2069 3584 
Q 2775 3584 3186 3129 
Q 3597 2675 3597 1894 
z
M 3022 2063 
Q 3016 2534 2758 2815 
Q 2500 3097 2075 3097 
Q 1594 3097 1305 2825 
Q 1016 2553 972 2059 
L 3022 2063 
z
" id="DejaVuSans-65" transform="scale(0.015625)"/>
       <path d="M 603 4863 
L 1178 4863 
L 1178 0 
L 603 0 
L 603 4863 
z
" id="DejaVuSans-6c" transform="scale(0.015625)"/>
       <path id="DejaVuSans-20" transform="scale(0.015625)"/>
       <path d="M 269 3500 
L 844 3500 
L 1563 769 
L 2278 3500 
L 2956 3500 
L 3675 769 
L 4391 3500 
L 4966 3500 
L 4050 0 
L 3372 0 
L 2619 2869 
L 1863 0 
L 1184 0 
L 269 3500 
z
" id="DejaVuSans-77" transform="scale(0.015625)"/>
       <path d="M 3513 2113 
L 3513 0 
L 2938 0 
L 2938 2094 
Q 2938 2591 2744 2837 
Q 2550 3084 2163 3084 
Q 1697 3084 1428 2787 
Q 1159 2491 1159 1978 
L 1159 0 
L 581 0 
L 581 4863 
L 1159 4863 
L 1159 2956 
Q 1366 3272 1645 3428 
Q 1925 3584 2291 3584 
Q 2894 3584 3203 3211 
Q 3513 2838 3513 2113 
z
" id="DejaVuSans-68" transform="scale(0.015625)"/>
       <path d="M 3513 2113 
L 3513 0 
L 2938 0 
L 2938 2094 
Q 2938 2591 2744 2837 
Q 2550 3084 2163 3084 
Q 1697 3084 1428 2787 
Q 1159 2491 1159 1978 
L 1159 0 
L 581 0 
L 581 3500 
L 1159 3500 
L 1159 2956 
Q 1366 3272 1645 3428 
Q 1925 3584 2291 3584 
Q 2894 3584 3203 3211 
Q 3513 2838 3513 2113 
z
" id="DejaVuSans-6e" transform="scale(0.015625)"/>
       <path d="M 1172 4494 
L 1172 3500 
L 2356 3500 
L 2356 3053 
L 1172 3053 
L 1172 1153 
Q 1172 725 1289 603 
Q 1406 481 1766 481 
L 2356 481 
L 2356 0 
L 1766 0 
Q 1100 0 847 248 
Q 594 497 594 1153 
L 594 3053 
L 172 3053 
L 172 3500 
L 594 3500 
L 594 4494 
L 1172 4494 
z
" id="DejaVuSans-74" transform="scale(0.015625)"/>
       <path d="M 3122 3366 
L 3122 2828 
Q 2878 2963 2633 3030 
Q 2388 3097 2138 3097 
Q 1578 3097 1268 2742 
Q 959 2388 959 1747 
Q 959 1106 1268 751 
Q 1578 397 2138 397 
Q 2388 397 2633 464 
Q 2878 531 3122 666 
L 3122 134 
Q 2881 22 2623 -34 
Q 2366 -91 2075 -91 
Q 1284 -91 818 406 
Q 353 903 353 1747 
Q 353 2603 823 3093 
Q 1294 3584 2113 3584 
Q 2378 3584 2631 3529 
Q 2884 3475 3122 3366 
z
" id="DejaVuSans-63" transform="scale(0.015625)"/>
       <path d="M 2834 3397 
L 2834 2853 
Q 2591 2978 2328 3040 
Q 2066 3103 1784 3103 
Q 1356 3103 1142 2972 
Q 928 2841 928 2578 
Q 928 2378 1081 2264 
Q 1234 2150 1697 2047 
L 1894 2003 
Q 2506 1872 2764 1633 
Q 3022 1394 3022 966 
Q 3022 478 2636 193 
Q 2250 -91 1575 -91 
Q 1294 -91 989 -36 
Q 684 19 347 128 
L 347 722 
Q 666 556 975 473 
Q 1284 391 1588 391 
Q 1994 391 2212 530 
Q 2431 669 2431 922 
Q 2431 1156 2273 1281 
Q 2116 1406 1581 1522 
L 1381 1569 
Q 847 1681 609 1914 
Q 372 2147 372 2553 
Q 372 3047 722 3315 
Q 1072 3584 1716 3584 
Q 2034 3584 2315 3537 
Q 2597 3491 2834 3397 
z
" id="DejaVuSans-73" transform="scale(0.015625)"/>
       <path d="M 2631 2963 
Q 2534 3019 2420 3045 
Q 2306 3072 2169 3072 
Q 1681 3072 1420 2755 
Q 1159 2438 1159 1844 
L 1159 0 
L 581 0 
L 581 3500 
L 1159 3500 
L 1159 2956 
Q 1341 3275 1631 3429 
Q 1922 3584 2338 3584 
Q 2397 3584 2469 3576 
Q 2541 3569 2628 3553 
L 2631 2963 
z
" id="DejaVuSans-72" transform="scale(0.015625)"/>
       <path d="M 603 3500 
L 1178 3500 
L 1178 0 
L 603 0 
L 603 3500 
z
M 603 4863 
L 1178 4863 
L 1178 4134 
L 603 4134 
L 603 4863 
z
" id="DejaVuSans-69" transform="scale(0.015625)"/>
      </defs>
      <use xlink:href="#DejaVuSans-70"/>
      <use x="63.476562" xlink:href="#DejaVuSans-65"/>
      <use x="125" xlink:href="#DejaVuSans-6f"/>
      <use x="186.181641" xlink:href="#DejaVuSans-70"/>
      <use x="249.658203" xlink:href="#DejaVuSans-6c"/>
      <use x="277.441406" xlink:href="#DejaVuSans-65"/>
      <use x="338.964844" xlink:href="#DejaVuSans-20"/>
      <use x="370.751953" xlink:href="#DejaVuSans-77"/>
      <use x="452.539062" xlink:href="#DejaVuSans-68"/>
      <use x="515.917969" xlink:href="#DejaVuSans-6f"/>
      <use x="577.099609" xlink:href="#DejaVuSans-20"/>
      <use x="608.886719" xlink:href="#DejaVuSans-77"/>
      <use x="690.673828" xlink:href="#DejaVuSans-61"/>
      <use x="751.953125" xlink:href="#DejaVuSans-6e"/>
      <use x="815.332031" xlink:href="#DejaVuSans-74"/>
      <use x="854.541016" xlink:href="#DejaVuSans-20"/>
      <use x="886.328125" xlink:href="#DejaVuSans-74"/>
      <use x="925.537109" xlink:href="#DejaVuSans-6f"/>
      <use x="986.71875" xlink:href="#DejaVuSans-20"/>
      <use x="1018.505859" xlink:href="#DejaVuSans-62"/>
      <use x="1081.982422" xlink:href="#DejaVuSans-65"/>
      <use x="1143.505859" xlink:href="#DejaVuSans-20"/>
      <use x="1175.292969" xlink:href="#DejaVuSans-63"/>
      <use x="1230.273438" xlink:href="#DejaVuSans-6f"/>
      <use x="1291.455078" xlink:href="#DejaVuSans-6e"/>
      <use x="1354.833984" xlink:href="#DejaVuSans-73"/>
      <use x="1406.933594" xlink:href="#DejaVuSans-74"/>
      <use x="1446.142578" xlink:href="#DejaVuSans-72"/>
      <use x="1487.255859" xlink:href="#DejaVuSans-61"/>
      <use x="1548.535156" xlink:href="#DejaVuSans-69"/>
      <use x="1576.318359" xlink:href="#DejaVuSans-6e"/>
      <use x="1639.697266" xlink:href="#DejaVuSans-65"/>
      <use x="1701.220703" xlink:href="#DejaVuSans-64"/>
     </g>
    </g>
   </g>
   <g id="matplotlib.axis_2">
    <g id="ytick_1">
     <g id="line2d_3">
      <defs>
       <path d="M 0 0 
L -3.5 0 
" id="mb82ef38307" style="stroke:#000000;stroke-width:0.8;"/>
      </defs>
      <g>
       <use style="stroke:#000000;stroke-width:0.8;" x="60.522772" xlink:href="#mb82ef38307" y="195.5808"/>
      </g>
     </g>
     <g id="text_4">
      <!-- bad -->
      <g transform="translate(34.697772 199.380019)scale(0.1 -0.1)">
       <use xlink:href="#DejaVuSans-62"/>
       <use x="63.476562" xlink:href="#DejaVuSans-61"/>
       <use x="124.755859" xlink:href="#DejaVuSans-64"/>
      </g>
     </g>
    </g>
    <g id="ytick_2">
     <g id="line2d_4">
      <g>
       <use style="stroke:#000000;stroke-width:0.8;" x="60.522772" xlink:href="#mb82ef38307" y="19.599086"/>
      </g>
     </g>
     <g id="text_5">
      <!-- good -->
      <g transform="translate(28.588397 23.398304)scale(0.1 -0.1)">
       <use xlink:href="#DejaVuSans-67"/>
       <use x="63.476562" xlink:href="#DejaVuSans-6f"/>
       <use x="124.658203" xlink:href="#DejaVuSans-6f"/>
       <use x="185.839844" xlink:href="#DejaVuSans-64"/>
      </g>
     </g>
    </g>
    <g id="text_6">
     <!-- people who want to be free -->
     <g transform="translate(22.50871 171.811494)rotate(-90)scale(0.1 -0.1)">
      <defs>
       <path d="M 2375 4863 
L 2375 4384 
L 1825 4384 
Q 1516 4384 1395 4259 
Q 1275 4134 1275 3809 
L 1275 3500 
L 2222 3500 
L 2222 3053 
L 1275 3053 
L 1275 0 
L 697 0 
L 697 3053 
L 147 3053 
L 147 3500 
L 697 3500 
L 697 3744 
Q 697 4328 969 4595 
Q 1241 4863 1831 4863 
L 2375 4863 
z
" id="DejaVuSans-66" transform="scale(0.015625)"/>
      </defs>
      <use xlink:href="#DejaVuSans-70"/>
      <use x="63.476562" xlink:href="#DejaVuSans-65"/>
      <use x="125" xlink:href="#DejaVuSans-6f"/>
      <use x="186.181641" xlink:href="#DejaVuSans-70"/>
      <use x="249.658203" xlink:href="#DejaVuSans-6c"/>
      <use x="277.441406" xlink:href="#DejaVuSans-65"/>
      <use x="338.964844" xlink:href="#DejaVuSans-20"/>
      <use x="370.751953" xlink:href="#DejaVuSans-77"/>
      <use x="452.539062" xlink:href="#DejaVuSans-68"/>
      <use x="515.917969" xlink:href="#DejaVuSans-6f"/>
      <use x="577.099609" xlink:href="#DejaVuSans-20"/>
      <use x="608.886719" xlink:href="#DejaVuSans-77"/>
      <use x="690.673828" xlink:href="#DejaVuSans-61"/>
      <use x="751.953125" xlink:href="#DejaVuSans-6e"/>
      <use x="815.332031" xlink:href="#DejaVuSans-74"/>
      <use x="854.541016" xlink:href="#DejaVuSans-20"/>
      <use x="886.328125" xlink:href="#DejaVuSans-74"/>
      <use x="925.537109" xlink:href="#DejaVuSans-6f"/>
      <use x="986.71875" xlink:href="#DejaVuSans-20"/>
      <use x="1018.505859" xlink:href="#DejaVuSans-62"/>
      <use x="1081.982422" xlink:href="#DejaVuSans-65"/>
      <use x="1143.505859" xlink:href="#DejaVuSans-20"/>
      <use x="1175.292969" xlink:href="#DejaVuSans-66"/>
      <use x="1210.498047" xlink:href="#DejaVuSans-72"/>
      <use x="1249.361328" xlink:href="#DejaVuSans-65"/>
      <use x="1310.884766" xlink:href="#DejaVuSans-65"/>
     </g>
    </g>
   </g>
   <g id="line2d_5">
    <defs>
     <path d="M -3 3 
L 3 -3 
M -3 -3 
L 3 3 
" id="m671edb67b5" style="stroke:#5f4690;"/>
    </defs>
    <g clip-path="url(#pb7b6a78e16)">
     <use style="fill:#5f4690;stroke:#5f4690;" x="75.321468" xlink:href="#m671edb67b5" y="19.599086"/>
    </g>
   </g>
   <g id="line2d_6">
    <defs>
     <path d="M -3 3 
L 3 -3 
M -3 -3 
L 3 3 
" id="mfc8f054549" style="stroke:#1d6996;"/>
    </defs>
    <g clip-path="url(#pb7b6a78e16)">
     <use style="fill:#1d6996;stroke:#1d6996;" x="104.918861" xlink:href="#mfc8f054549" y="33.677623"/>
    </g>
   </g>
   <g id="line2d_7">
    <defs>
     <path d="M -3 3 
L 3 -3 
M -3 -3 
L 3 3 
" id="mdde2da4d03" style="stroke:#38a6a5;"/>
    </defs>
    <g clip-path="url(#pb7b6a78e16)">
     <use style="fill:#38a6a5;stroke:#38a6a5;" x="104.918861" xlink:href="#mdde2da4d03" y="45.996343"/>
    </g>
   </g>
   <g id="line2d_8">
    <defs>
     <path d="M -3 3 
L 3 -3 
M -3 -3 
L 3 3 
" id="m96c8192578" style="stroke:#0f8554;"/>
    </defs>
    <g clip-path="url(#pb7b6a78e16)">
     <use style="fill:#0f8554;stroke:#0f8554;" x="282.503215" xlink:href="#m96c8192578" y="63.594514"/>
    </g>
   </g>
   <g id="line2d_9">
    <defs>
     <path d="M -3 3 
L 3 -3 
M -3 -3 
L 3 3 
" id="m8e6312c369" style="stroke:#73af48;"/>
    </defs>
    <g clip-path="url(#pb7b6a78e16)">
     <use style="fill:#73af48;stroke:#73af48;" x="232.187648" xlink:href="#m8e6312c369" y="160.384457"/>
    </g>
   </g>
   <g id="line2d_10">
    <defs>
     <path d="M -3 3 
L 3 -3 
M -3 -3 
L 3 3 
" id="m8b6857b64d" style="stroke:#edad08;"/>
    </defs>
    <g clip-path="url(#pb7b6a78e16)">
     <use style="fill:#edad08;stroke:#edad08;" x="326.899304" xlink:href="#m8b6857b64d" y="190.301349"/>
    </g>
   </g>
   <g id="line2d_11">
    <defs>
     <path d="M -3 3 
L 3 -3 
M -3 -3 
L 3 3 
" id="me405871bda" style="stroke:#000000;"/>
    </defs>
    <g clip-path="url(#pb7b6a78e16)">
     <use style="stroke:#000000;" x="232.187648" xlink:href="#me405871bda" y="33.677623"/>
    </g>
   </g>
   <g id="patch_3">
    <path d="M 60.522772 195.5808 
L 60.522772 10.8 
" style="fill:none;stroke:#000000;stroke-linecap:square;stroke-linejoin:miter;stroke-width:0.8;"/>
   </g>
   <g id="patch_4">
    <path d="M 60.522772 195.5808 
L 359.456436 195.5808 
" style="fill:none;stroke:#000000;stroke-linecap:square;stroke-linejoin:miter;stroke-width:0.8;"/>
   </g>
   <g id="text_7">
    <!-- Twinkies -->
    <g style="fill:#5f4690;" transform="translate(81.240947 22.358461)scale(0.1 -0.1)">
     <defs>
      <path d="M -19 4666 
L 3928 4666 
L 3928 4134 
L 2272 4134 
L 2272 0 
L 1638 0 
L 1638 4134 
L -19 4134 
L -19 4666 
z
" id="DejaVuSans-54" transform="scale(0.015625)"/>
      <path d="M 581 4863 
L 1159 4863 
L 1159 1991 
L 2875 3500 
L 3609 3500 
L 1753 1863 
L 3688 0 
L 2938 0 
L 1159 1709 
L 1159 0 
L 581 0 
L 581 4863 
z
" id="DejaVuSans-6b" transform="scale(0.015625)"/>
     </defs>
     <use xlink:href="#DejaVuSans-54"/>
     <use x="44.583984" xlink:href="#DejaVuSans-77"/>
     <use x="126.371094" xlink:href="#DejaVuSans-69"/>
     <use x="154.154297" xlink:href="#DejaVuSans-6e"/>
     <use x="217.533203" xlink:href="#DejaVuSans-6b"/>
     <use x="275.443359" xlink:href="#DejaVuSans-69"/>
     <use x="303.226562" xlink:href="#DejaVuSans-65"/>
     <use x="364.75" xlink:href="#DejaVuSans-73"/>
    </g>
   </g>
   <g id="text_8">
    <!-- Alcohol (typical) -->
    <g style="fill:#1d6996;" transform="translate(110.838339 36.436998)scale(0.1 -0.1)">
     <defs>
      <path d="M 2188 4044 
L 1331 1722 
L 3047 1722 
L 2188 4044 
z
M 1831 4666 
L 2547 4666 
L 4325 0 
L 3669 0 
L 3244 1197 
L 1141 1197 
L 716 0 
L 50 0 
L 1831 4666 
z
" id="DejaVuSans-41" transform="scale(0.015625)"/>
      <path d="M 1984 4856 
Q 1566 4138 1362 3434 
Q 1159 2731 1159 2009 
Q 1159 1288 1364 580 
Q 1569 -128 1984 -844 
L 1484 -844 
Q 1016 -109 783 600 
Q 550 1309 550 2009 
Q 550 2706 781 3412 
Q 1013 4119 1484 4856 
L 1984 4856 
z
" id="DejaVuSans-28" transform="scale(0.015625)"/>
      <path d="M 2059 -325 
Q 1816 -950 1584 -1140 
Q 1353 -1331 966 -1331 
L 506 -1331 
L 506 -850 
L 844 -850 
Q 1081 -850 1212 -737 
Q 1344 -625 1503 -206 
L 1606 56 
L 191 3500 
L 800 3500 
L 1894 763 
L 2988 3500 
L 3597 3500 
L 2059 -325 
z
" id="DejaVuSans-79" transform="scale(0.015625)"/>
      <path d="M 513 4856 
L 1013 4856 
Q 1481 4119 1714 3412 
Q 1947 2706 1947 2009 
Q 1947 1309 1714 600 
Q 1481 -109 1013 -844 
L 513 -844 
Q 928 -128 1133 580 
Q 1338 1288 1338 2009 
Q 1338 2731 1133 3434 
Q 928 4138 513 4856 
z
" id="DejaVuSans-29" transform="scale(0.015625)"/>
     </defs>
     <use xlink:href="#DejaVuSans-41"/>
     <use x="68.408203" xlink:href="#DejaVuSans-6c"/>
     <use x="96.191406" xlink:href="#DejaVuSans-63"/>
     <use x="151.171875" xlink:href="#DejaVuSans-6f"/>
     <use x="212.353516" xlink:href="#DejaVuSans-68"/>
     <use x="275.732422" xlink:href="#DejaVuSans-6f"/>
     <use x="336.914062" xlink:href="#DejaVuSans-6c"/>
     <use x="364.697266" xlink:href="#DejaVuSans-20"/>
     <use x="396.484375" xlink:href="#DejaVuSans-28"/>
     <use x="435.498047" xlink:href="#DejaVuSans-74"/>
     <use x="474.707031" xlink:href="#DejaVuSans-79"/>
     <use x="533.886719" xlink:href="#DejaVuSans-70"/>
     <use x="597.363281" xlink:href="#DejaVuSans-69"/>
     <use x="625.146484" xlink:href="#DejaVuSans-63"/>
     <use x="680.126953" xlink:href="#DejaVuSans-61"/>
     <use x="741.40625" xlink:href="#DejaVuSans-6c"/>
     <use x="769.189453" xlink:href="#DejaVuSans-29"/>
    </g>
   </g>
   <g id="text_9">
    <!-- Casinos (no self-exclusion) -->
    <g style="fill:#38a6a5;" transform="translate(110.838339 48.755718)scale(0.1 -0.1)">
     <defs>
      <path d="M 4122 4306 
L 4122 3641 
Q 3803 3938 3442 4084 
Q 3081 4231 2675 4231 
Q 1875 4231 1450 3742 
Q 1025 3253 1025 2328 
Q 1025 1406 1450 917 
Q 1875 428 2675 428 
Q 3081 428 3442 575 
Q 3803 722 4122 1019 
L 4122 359 
Q 3791 134 3420 21 
Q 3050 -91 2638 -91 
Q 1578 -91 968 557 
Q 359 1206 359 2328 
Q 359 3453 968 4101 
Q 1578 4750 2638 4750 
Q 3056 4750 3426 4639 
Q 3797 4528 4122 4306 
z
" id="DejaVuSans-43" transform="scale(0.015625)"/>
      <path d="M 313 2009 
L 1997 2009 
L 1997 1497 
L 313 1497 
L 313 2009 
z
" id="DejaVuSans-2d" transform="scale(0.015625)"/>
      <path d="M 3513 3500 
L 2247 1797 
L 3578 0 
L 2900 0 
L 1881 1375 
L 863 0 
L 184 0 
L 1544 1831 
L 300 3500 
L 978 3500 
L 1906 2253 
L 2834 3500 
L 3513 3500 
z
" id="DejaVuSans-78" transform="scale(0.015625)"/>
      <path d="M 544 1381 
L 544 3500 
L 1119 3500 
L 1119 1403 
Q 1119 906 1312 657 
Q 1506 409 1894 409 
Q 2359 409 2629 706 
Q 2900 1003 2900 1516 
L 2900 3500 
L 3475 3500 
L 3475 0 
L 2900 0 
L 2900 538 
Q 2691 219 2414 64 
Q 2138 -91 1772 -91 
Q 1169 -91 856 284 
Q 544 659 544 1381 
z
M 1991 3584 
L 1991 3584 
z
" id="DejaVuSans-75" transform="scale(0.015625)"/>
     </defs>
     <use xlink:href="#DejaVuSans-43"/>
     <use x="69.824219" xlink:href="#DejaVuSans-61"/>
     <use x="131.103516" xlink:href="#DejaVuSans-73"/>
     <use x="183.203125" xlink:href="#DejaVuSans-69"/>
     <use x="210.986328" xlink:href="#DejaVuSans-6e"/>
     <use x="274.365234" xlink:href="#DejaVuSans-6f"/>
     <use x="335.546875" xlink:href="#DejaVuSans-73"/>
     <use x="387.646484" xlink:href="#DejaVuSans-20"/>
     <use x="419.433594" xlink:href="#DejaVuSans-28"/>
     <use x="458.447266" xlink:href="#DejaVuSans-6e"/>
     <use x="521.826172" xlink:href="#DejaVuSans-6f"/>
     <use x="583.007812" xlink:href="#DejaVuSans-20"/>
     <use x="614.794922" xlink:href="#DejaVuSans-73"/>
     <use x="666.894531" xlink:href="#DejaVuSans-65"/>
     <use x="728.417969" xlink:href="#DejaVuSans-6c"/>
     <use x="756.201172" xlink:href="#DejaVuSans-66"/>
     <use x="785.90625" xlink:href="#DejaVuSans-2d"/>
     <use x="821.990234" xlink:href="#DejaVuSans-65"/>
     <use x="881.763672" xlink:href="#DejaVuSans-78"/>
     <use x="939.193359" xlink:href="#DejaVuSans-63"/>
     <use x="994.173828" xlink:href="#DejaVuSans-6c"/>
     <use x="1021.957031" xlink:href="#DejaVuSans-75"/>
     <use x="1085.335938" xlink:href="#DejaVuSans-73"/>
     <use x="1137.435547" xlink:href="#DejaVuSans-69"/>
     <use x="1165.21875" xlink:href="#DejaVuSans-6f"/>
     <use x="1226.400391" xlink:href="#DejaVuSans-6e"/>
     <use x="1289.779297" xlink:href="#DejaVuSans-29"/>
    </g>
   </g>
   <g id="text_10">
    <!-- Casinos (with self-exclusion) -->
    <g style="fill:#0f8554;" transform="translate(288.422694 66.353889)scale(0.1 -0.1)">
     <use xlink:href="#DejaVuSans-43"/>
     <use x="69.824219" xlink:href="#DejaVuSans-61"/>
     <use x="131.103516" xlink:href="#DejaVuSans-73"/>
     <use x="183.203125" xlink:href="#DejaVuSans-69"/>
     <use x="210.986328" xlink:href="#DejaVuSans-6e"/>
     <use x="274.365234" xlink:href="#DejaVuSans-6f"/>
     <use x="335.546875" xlink:href="#DejaVuSans-73"/>
     <use x="387.646484" xlink:href="#DejaVuSans-20"/>
     <use x="419.433594" xlink:href="#DejaVuSans-28"/>
     <use x="458.447266" xlink:href="#DejaVuSans-77"/>
     <use x="540.234375" xlink:href="#DejaVuSans-69"/>
     <use x="568.017578" xlink:href="#DejaVuSans-74"/>
     <use x="607.226562" xlink:href="#DejaVuSans-68"/>
     <use x="670.605469" xlink:href="#DejaVuSans-20"/>
     <use x="702.392578" xlink:href="#DejaVuSans-73"/>
     <use x="754.492188" xlink:href="#DejaVuSans-65"/>
     <use x="816.015625" xlink:href="#DejaVuSans-6c"/>
     <use x="843.798828" xlink:href="#DejaVuSans-66"/>
     <use x="873.503906" xlink:href="#DejaVuSans-2d"/>
     <use x="909.587891" xlink:href="#DejaVuSans-65"/>
     <use x="969.361328" xlink:href="#DejaVuSans-78"/>
     <use x="1026.791016" xlink:href="#DejaVuSans-63"/>
     <use x="1081.771484" xlink:href="#DejaVuSans-6c"/>
     <use x="1109.554688" xlink:href="#DejaVuSans-75"/>
     <use x="1172.933594" xlink:href="#DejaVuSans-73"/>
     <use x="1225.033203" xlink:href="#DejaVuSans-69"/>
     <use x="1252.816406" xlink:href="#DejaVuSans-6f"/>
     <use x="1313.998047" xlink:href="#DejaVuSans-6e"/>
     <use x="1377.376953" xlink:href="#DejaVuSans-29"/>
    </g>
   </g>
   <g id="text_11">
    <!-- Alcohol (ADH1B/ALDH2*2 mutations) -->
    <g style="fill:#73af48;" transform="translate(238.107127 163.143832)scale(0.1 -0.1)">
     <defs>
      <path d="M 1259 4147 
L 1259 519 
L 2022 519 
Q 2988 519 3436 956 
Q 3884 1394 3884 2338 
Q 3884 3275 3436 3711 
Q 2988 4147 2022 4147 
L 1259 4147 
z
M 628 4666 
L 1925 4666 
Q 3281 4666 3915 4102 
Q 4550 3538 4550 2338 
Q 4550 1131 3912 565 
Q 3275 0 1925 0 
L 628 0 
L 628 4666 
z
" id="DejaVuSans-44" transform="scale(0.015625)"/>
      <path d="M 628 4666 
L 1259 4666 
L 1259 2753 
L 3553 2753 
L 3553 4666 
L 4184 4666 
L 4184 0 
L 3553 0 
L 3553 2222 
L 1259 2222 
L 1259 0 
L 628 0 
L 628 4666 
z
" id="DejaVuSans-48" transform="scale(0.015625)"/>
      <path d="M 794 531 
L 1825 531 
L 1825 4091 
L 703 3866 
L 703 4441 
L 1819 4666 
L 2450 4666 
L 2450 531 
L 3481 531 
L 3481 0 
L 794 0 
L 794 531 
z
" id="DejaVuSans-31" transform="scale(0.015625)"/>
      <path d="M 1259 2228 
L 1259 519 
L 2272 519 
Q 2781 519 3026 730 
Q 3272 941 3272 1375 
Q 3272 1813 3026 2020 
Q 2781 2228 2272 2228 
L 1259 2228 
z
M 1259 4147 
L 1259 2741 
L 2194 2741 
Q 2656 2741 2882 2914 
Q 3109 3088 3109 3444 
Q 3109 3797 2882 3972 
Q 2656 4147 2194 4147 
L 1259 4147 
z
M 628 4666 
L 2241 4666 
Q 2963 4666 3353 4366 
Q 3744 4066 3744 3513 
Q 3744 3084 3544 2831 
Q 3344 2578 2956 2516 
Q 3422 2416 3680 2098 
Q 3938 1781 3938 1306 
Q 3938 681 3513 340 
Q 3088 0 2303 0 
L 628 0 
L 628 4666 
z
" id="DejaVuSans-42" transform="scale(0.015625)"/>
      <path d="M 1625 4666 
L 2156 4666 
L 531 -594 
L 0 -594 
L 1625 4666 
z
" id="DejaVuSans-2f" transform="scale(0.015625)"/>
      <path d="M 628 4666 
L 1259 4666 
L 1259 531 
L 3531 531 
L 3531 0 
L 628 0 
L 628 4666 
z
" id="DejaVuSans-4c" transform="scale(0.015625)"/>
      <path d="M 1228 531 
L 3431 531 
L 3431 0 
L 469 0 
L 469 531 
Q 828 903 1448 1529 
Q 2069 2156 2228 2338 
Q 2531 2678 2651 2914 
Q 2772 3150 2772 3378 
Q 2772 3750 2511 3984 
Q 2250 4219 1831 4219 
Q 1534 4219 1204 4116 
Q 875 4013 500 3803 
L 500 4441 
Q 881 4594 1212 4672 
Q 1544 4750 1819 4750 
Q 2544 4750 2975 4387 
Q 3406 4025 3406 3419 
Q 3406 3131 3298 2873 
Q 3191 2616 2906 2266 
Q 2828 2175 2409 1742 
Q 1991 1309 1228 531 
z
" id="DejaVuSans-32" transform="scale(0.015625)"/>
      <path d="M 3009 3897 
L 1888 3291 
L 3009 2681 
L 2828 2375 
L 1778 3009 
L 1778 1831 
L 1422 1831 
L 1422 3009 
L 372 2375 
L 191 2681 
L 1313 3291 
L 191 3897 
L 372 4206 
L 1422 3572 
L 1422 4750 
L 1778 4750 
L 1778 3572 
L 2828 4206 
L 3009 3897 
z
" id="DejaVuSans-2a" transform="scale(0.015625)"/>
      <path d="M 3328 2828 
Q 3544 3216 3844 3400 
Q 4144 3584 4550 3584 
Q 5097 3584 5394 3201 
Q 5691 2819 5691 2113 
L 5691 0 
L 5113 0 
L 5113 2094 
Q 5113 2597 4934 2840 
Q 4756 3084 4391 3084 
Q 3944 3084 3684 2787 
Q 3425 2491 3425 1978 
L 3425 0 
L 2847 0 
L 2847 2094 
Q 2847 2600 2669 2842 
Q 2491 3084 2119 3084 
Q 1678 3084 1418 2786 
Q 1159 2488 1159 1978 
L 1159 0 
L 581 0 
L 581 3500 
L 1159 3500 
L 1159 2956 
Q 1356 3278 1631 3431 
Q 1906 3584 2284 3584 
Q 2666 3584 2933 3390 
Q 3200 3197 3328 2828 
z
" id="DejaVuSans-6d" transform="scale(0.015625)"/>
     </defs>
     <use xlink:href="#DejaVuSans-41"/>
     <use x="68.408203" xlink:href="#DejaVuSans-6c"/>
     <use x="96.191406" xlink:href="#DejaVuSans-63"/>
     <use x="151.171875" xlink:href="#DejaVuSans-6f"/>
     <use x="212.353516" xlink:href="#DejaVuSans-68"/>
     <use x="275.732422" xlink:href="#DejaVuSans-6f"/>
     <use x="336.914062" xlink:href="#DejaVuSans-6c"/>
     <use x="364.697266" xlink:href="#DejaVuSans-20"/>
     <use x="396.484375" xlink:href="#DejaVuSans-28"/>
     <use x="435.498047" xlink:href="#DejaVuSans-41"/>
     <use x="503.90625" xlink:href="#DejaVuSans-44"/>
     <use x="580.908203" xlink:href="#DejaVuSans-48"/>
     <use x="656.103516" xlink:href="#DejaVuSans-31"/>
     <use x="719.726562" xlink:href="#DejaVuSans-42"/>
     <use x="788.330078" xlink:href="#DejaVuSans-2f"/>
     <use x="822.021484" xlink:href="#DejaVuSans-41"/>
     <use x="890.429688" xlink:href="#DejaVuSans-4c"/>
     <use x="946.142578" xlink:href="#DejaVuSans-44"/>
     <use x="1023.144531" xlink:href="#DejaVuSans-48"/>
     <use x="1098.339844" xlink:href="#DejaVuSans-32"/>
     <use x="1161.962891" xlink:href="#DejaVuSans-2a"/>
     <use x="1211.962891" xlink:href="#DejaVuSans-32"/>
     <use x="1275.585938" xlink:href="#DejaVuSans-20"/>
     <use x="1307.373047" xlink:href="#DejaVuSans-6d"/>
     <use x="1404.785156" xlink:href="#DejaVuSans-75"/>
     <use x="1468.164062" xlink:href="#DejaVuSans-74"/>
     <use x="1507.373047" xlink:href="#DejaVuSans-61"/>
     <use x="1568.652344" xlink:href="#DejaVuSans-74"/>
     <use x="1607.861328" xlink:href="#DejaVuSans-69"/>
     <use x="1635.644531" xlink:href="#DejaVuSans-6f"/>
     <use x="1696.826172" xlink:href="#DejaVuSans-6e"/>
     <use x="1760.205078" xlink:href="#DejaVuSans-73"/>
     <use x="1812.304688" xlink:href="#DejaVuSans-29"/>
    </g>
   </g>
   <g id="text_12">
    <!-- Fentanyl -->
    <g style="fill:#edad08;" transform="translate(332.818782 193.060724)scale(0.1 -0.1)">
     <defs>
      <path d="M 628 4666 
L 3309 4666 
L 3309 4134 
L 1259 4134 
L 1259 2759 
L 3109 2759 
L 3109 2228 
L 1259 2228 
L 1259 0 
L 628 0 
L 628 4666 
z
" id="DejaVuSans-46" transform="scale(0.015625)"/>
     </defs>
     <use xlink:href="#DejaVuSans-46"/>
     <use x="52.019531" xlink:href="#DejaVuSans-65"/>
     <use x="113.542969" xlink:href="#DejaVuSans-6e"/>
     <use x="176.921875" xlink:href="#DejaVuSans-74"/>
     <use x="216.130859" xlink:href="#DejaVuSans-61"/>
     <use x="277.410156" xlink:href="#DejaVuSans-6e"/>
     <use x="340.789062" xlink:href="#DejaVuSans-79"/>
     <use x="399.96875" xlink:href="#DejaVuSans-6c"/>
    </g>
   </g>
   <g id="text_13">
    <!-- dynomight.net -->
    <g style="fill:#808080;opacity:0.5;" transform="translate(362.416175 221.978057)scale(0.06 -0.06)">
     <defs>
      <path d="M 2681 3053 
L 2681 4863 
L 3256 4863 
L 3256 0 
L 2681 0 
L 2681 441 
Q 2538 181 2298 45 
Q 2059 -91 1747 -91 
Q 1113 -91 748 401 
Q 384 894 384 1759 
Q 384 2613 750 3098 
Q 1116 3584 1747 3584 
Q 2063 3584 2303 3448 
Q 2544 3313 2681 3053 
z
M 991 1747 
Q 991 1078 1203 737 
Q 1416 397 1831 397 
Q 2247 397 2464 740 
Q 2681 1084 2681 1747 
Q 2681 2413 2464 2755 
Q 2247 3097 1831 3097 
Q 1416 3097 1203 2756 
Q 991 2416 991 1747 
z
" id="DejaVuSansMono-64" transform="scale(0.015625)"/>
      <path d="M 2681 1125 
Q 2538 759 2316 163 
Q 2006 -663 1900 -844 
Q 1756 -1088 1540 -1209 
Q 1325 -1331 1038 -1331 
L 575 -1331 
L 575 -850 
L 916 -850 
Q 1169 -850 1312 -703 
Q 1456 -556 1678 56 
L 325 3500 
L 934 3500 
L 1972 763 
L 2994 3500 
L 3603 3500 
L 2681 1125 
z
" id="DejaVuSansMono-79" transform="scale(0.015625)"/>
      <path d="M 3284 2169 
L 3284 0 
L 2706 0 
L 2706 2169 
Q 2706 2641 2540 2862 
Q 2375 3084 2022 3084 
Q 1619 3084 1401 2798 
Q 1184 2513 1184 1978 
L 1184 0 
L 609 0 
L 609 3500 
L 1184 3500 
L 1184 2975 
Q 1338 3275 1600 3429 
Q 1863 3584 2222 3584 
Q 2756 3584 3020 3232 
Q 3284 2881 3284 2169 
z
" id="DejaVuSansMono-6e" transform="scale(0.015625)"/>
      <path d="M 1925 3097 
Q 1488 3097 1263 2756 
Q 1038 2416 1038 1747 
Q 1038 1081 1263 739 
Q 1488 397 1925 397 
Q 2366 397 2591 739 
Q 2816 1081 2816 1747 
Q 2816 2416 2591 2756 
Q 2366 3097 1925 3097 
z
M 1925 3584 
Q 2653 3584 3039 3112 
Q 3425 2641 3425 1747 
Q 3425 850 3040 379 
Q 2656 -91 1925 -91 
Q 1197 -91 812 379 
Q 428 850 428 1747 
Q 428 2641 812 3112 
Q 1197 3584 1925 3584 
z
" id="DejaVuSansMono-6f" transform="scale(0.015625)"/>
      <path d="M 2113 3144 
Q 2219 3369 2383 3476 
Q 2547 3584 2778 3584 
Q 3200 3584 3373 3257 
Q 3547 2931 3547 2028 
L 3547 0 
L 3022 0 
L 3022 2003 
Q 3022 2744 2939 2923 
Q 2856 3103 2638 3103 
Q 2388 3103 2295 2911 
Q 2203 2719 2203 2003 
L 2203 0 
L 1678 0 
L 1678 2003 
Q 1678 2753 1589 2928 
Q 1500 3103 1269 3103 
Q 1041 3103 952 2911 
Q 863 2719 863 2003 
L 863 0 
L 341 0 
L 341 3500 
L 863 3500 
L 863 3200 
Q 966 3388 1120 3486 
Q 1275 3584 1472 3584 
Q 1709 3584 1867 3475 
Q 2025 3366 2113 3144 
z
" id="DejaVuSansMono-6d" transform="scale(0.015625)"/>
      <path d="M 800 3500 
L 2272 3500 
L 2272 447 
L 3413 447 
L 3413 0 
L 556 0 
L 556 447 
L 1697 447 
L 1697 3053 
L 800 3053 
L 800 3500 
z
M 1697 4863 
L 2272 4863 
L 2272 4134 
L 1697 4134 
L 1697 4863 
z
" id="DejaVuSansMono-69" transform="scale(0.015625)"/>
      <path d="M 2681 1778 
Q 2681 2425 2470 2761 
Q 2259 3097 1856 3097 
Q 1434 3097 1212 2761 
Q 991 2425 991 1778 
Q 991 1131 1214 792 
Q 1438 453 1863 453 
Q 2259 453 2470 793 
Q 2681 1134 2681 1778 
z
M 3256 225 
Q 3256 -563 2884 -969 
Q 2513 -1375 1791 -1375 
Q 1553 -1375 1293 -1331 
Q 1034 -1288 775 -1203 
L 775 -634 
Q 1081 -778 1331 -847 
Q 1581 -916 1791 -916 
Q 2256 -916 2468 -662 
Q 2681 -409 2681 141 
L 2681 166 
L 2681 556 
Q 2544 263 2306 119 
Q 2069 -25 1728 -25 
Q 1116 -25 750 465 
Q 384 956 384 1778 
Q 384 2603 750 3093 
Q 1116 3584 1728 3584 
Q 2066 3584 2300 3450 
Q 2534 3316 2681 3034 
L 2681 3488 
L 3256 3488 
L 3256 225 
z
" id="DejaVuSansMono-67" transform="scale(0.015625)"/>
      <path d="M 3284 2169 
L 3284 0 
L 2706 0 
L 2706 2169 
Q 2706 2641 2540 2862 
Q 2375 3084 2022 3084 
Q 1619 3084 1401 2798 
Q 1184 2513 1184 1978 
L 1184 0 
L 609 0 
L 609 4863 
L 1184 4863 
L 1184 2975 
Q 1338 3275 1600 3429 
Q 1863 3584 2222 3584 
Q 2756 3584 3020 3232 
Q 3284 2881 3284 2169 
z
" id="DejaVuSansMono-68" transform="scale(0.015625)"/>
      <path d="M 1919 4494 
L 1919 3500 
L 3225 3500 
L 3225 3053 
L 1919 3053 
L 1919 1153 
Q 1919 766 2066 612 
Q 2213 459 2578 459 
L 3225 459 
L 3225 0 
L 2522 0 
Q 1875 0 1609 259 
Q 1344 519 1344 1153 
L 1344 3053 
L 409 3053 
L 409 3500 
L 1344 3500 
L 1344 4494 
L 1919 4494 
z
" id="DejaVuSansMono-74" transform="scale(0.015625)"/>
      <path d="M 1528 953 
L 2316 953 
L 2316 0 
L 1528 0 
L 1528 953 
z
" id="DejaVuSansMono-2e" transform="scale(0.015625)"/>
      <path d="M 3475 1894 
L 3475 1613 
L 984 1613 
L 984 1594 
Q 984 1022 1282 709 
Q 1581 397 2125 397 
Q 2400 397 2700 484 
Q 3000 572 3341 750 
L 3341 178 
Q 3013 44 2708 -23 
Q 2403 -91 2119 -91 
Q 1303 -91 843 398 
Q 384 888 384 1747 
Q 384 2584 834 3084 
Q 1284 3584 2034 3584 
Q 2703 3584 3089 3131 
Q 3475 2678 3475 1894 
z
M 2900 2063 
Q 2888 2569 2661 2833 
Q 2434 3097 2009 3097 
Q 1594 3097 1325 2822 
Q 1056 2547 1006 2059 
L 2900 2063 
z
" id="DejaVuSansMono-65" transform="scale(0.015625)"/>
     </defs>
     <use xlink:href="#DejaVuSansMono-64"/>
     <use x="60.205078" xlink:href="#DejaVuSansMono-79"/>
     <use x="120.410156" xlink:href="#DejaVuSansMono-6e"/>
     <use x="180.615234" xlink:href="#DejaVuSansMono-6f"/>
     <use x="240.820312" xlink:href="#DejaVuSansMono-6d"/>
     <use x="301.025391" xlink:href="#DejaVuSansMono-69"/>
     <use x="361.230469" xlink:href="#DejaVuSansMono-67"/>
     <use x="421.435547" xlink:href="#DejaVuSansMono-68"/>
     <use x="481.640625" xlink:href="#DejaVuSansMono-74"/>
     <use x="541.845703" xlink:href="#DejaVuSansMono-2e"/>
     <use x="602.050781" xlink:href="#DejaVuSansMono-6e"/>
     <use x="662.255859" xlink:href="#DejaVuSansMono-65"/>
     <use x="722.460938" xlink:href="#DejaVuSansMono-74"/>
    </g>
   </g>
   <g id="text_14">
    <!-- This is just a cartoon.  -->
    <g style="fill:#808080;opacity:0.5;" transform="translate(16.126684 228.057835)scale(0.04 -0.04)">
     <defs>
      <path d="M 603 3500 
L 1178 3500 
L 1178 -63 
Q 1178 -731 923 -1031 
Q 669 -1331 103 -1331 
L -116 -1331 
L -116 -844 
L 38 -844 
Q 366 -844 484 -692 
Q 603 -541 603 -63 
L 603 3500 
z
M 603 4863 
L 1178 4863 
L 1178 4134 
L 603 4134 
L 603 4863 
z
" id="DejaVuSans-6a" transform="scale(0.015625)"/>
      <path d="M 684 794 
L 1344 794 
L 1344 0 
L 684 0 
L 684 794 
z
" id="DejaVuSans-2e" transform="scale(0.015625)"/>
     </defs>
     <use xlink:href="#DejaVuSans-54"/>
     <use x="61.083984" xlink:href="#DejaVuSans-68"/>
     <use x="124.462891" xlink:href="#DejaVuSans-69"/>
     <use x="152.246094" xlink:href="#DejaVuSans-73"/>
     <use x="204.345703" xlink:href="#DejaVuSans-20"/>
     <use x="236.132812" xlink:href="#DejaVuSans-69"/>
     <use x="263.916016" xlink:href="#DejaVuSans-73"/>
     <use x="316.015625" xlink:href="#DejaVuSans-20"/>
     <use x="347.802734" xlink:href="#DejaVuSans-6a"/>
     <use x="375.585938" xlink:href="#DejaVuSans-75"/>
     <use x="438.964844" xlink:href="#DejaVuSans-73"/>
     <use x="491.064453" xlink:href="#DejaVuSans-74"/>
     <use x="530.273438" xlink:href="#DejaVuSans-20"/>
     <use x="562.060547" xlink:href="#DejaVuSans-61"/>
     <use x="623.339844" xlink:href="#DejaVuSans-20"/>
     <use x="655.126953" xlink:href="#DejaVuSans-63"/>
     <use x="710.107422" xlink:href="#DejaVuSans-61"/>
     <use x="771.386719" xlink:href="#DejaVuSans-72"/>
     <use x="812.5" xlink:href="#DejaVuSans-74"/>
     <use x="851.708984" xlink:href="#DejaVuSans-6f"/>
     <use x="912.890625" xlink:href="#DejaVuSans-6f"/>
     <use x="974.072266" xlink:href="#DejaVuSans-6e"/>
     <use x="1037.451172" xlink:href="#DejaVuSans-2e"/>
     <use x="1069.238281" xlink:href="#DejaVuSans-20"/>
    </g>
    <!--  Try not to think the exact locations too much. -->
    <g style="fill:#808080;opacity:0.5;" transform="translate(16.126684 232.53696)scale(0.04 -0.04)">
     <use xlink:href="#DejaVuSans-20"/>
     <use x="31.787109" xlink:href="#DejaVuSans-54"/>
     <use x="78.121094" xlink:href="#DejaVuSans-72"/>
     <use x="119.234375" xlink:href="#DejaVuSans-79"/>
     <use x="178.414062" xlink:href="#DejaVuSans-20"/>
     <use x="210.201172" xlink:href="#DejaVuSans-6e"/>
     <use x="273.580078" xlink:href="#DejaVuSans-6f"/>
     <use x="334.761719" xlink:href="#DejaVuSans-74"/>
     <use x="373.970703" xlink:href="#DejaVuSans-20"/>
     <use x="405.757812" xlink:href="#DejaVuSans-74"/>
     <use x="444.966797" xlink:href="#DejaVuSans-6f"/>
     <use x="506.148438" xlink:href="#DejaVuSans-20"/>
     <use x="537.935547" xlink:href="#DejaVuSans-74"/>
     <use x="577.144531" xlink:href="#DejaVuSans-68"/>
     <use x="640.523438" xlink:href="#DejaVuSans-69"/>
     <use x="668.306641" xlink:href="#DejaVuSans-6e"/>
     <use x="731.685547" xlink:href="#DejaVuSans-6b"/>
     <use x="789.595703" xlink:href="#DejaVuSans-20"/>
     <use x="821.382812" xlink:href="#DejaVuSans-74"/>
     <use x="860.591797" xlink:href="#DejaVuSans-68"/>
     <use x="923.970703" xlink:href="#DejaVuSans-65"/>
     <use x="985.494141" xlink:href="#DejaVuSans-20"/>
     <use x="1017.28125" xlink:href="#DejaVuSans-65"/>
     <use x="1077.054688" xlink:href="#DejaVuSans-78"/>
     <use x="1136.234375" xlink:href="#DejaVuSans-61"/>
     <use x="1197.513672" xlink:href="#DejaVuSans-63"/>
     <use x="1252.494141" xlink:href="#DejaVuSans-74"/>
     <use x="1291.703125" xlink:href="#DejaVuSans-20"/>
     <use x="1323.490234" xlink:href="#DejaVuSans-6c"/>
     <use x="1351.273438" xlink:href="#DejaVuSans-6f"/>
     <use x="1412.455078" xlink:href="#DejaVuSans-63"/>
     <use x="1467.435547" xlink:href="#DejaVuSans-61"/>
     <use x="1528.714844" xlink:href="#DejaVuSans-74"/>
     <use x="1567.923828" xlink:href="#DejaVuSans-69"/>
     <use x="1595.707031" xlink:href="#DejaVuSans-6f"/>
     <use x="1656.888672" xlink:href="#DejaVuSans-6e"/>
     <use x="1720.267578" xlink:href="#DejaVuSans-73"/>
     <use x="1772.367188" xlink:href="#DejaVuSans-20"/>
     <use x="1804.154297" xlink:href="#DejaVuSans-74"/>
     <use x="1843.363281" xlink:href="#DejaVuSans-6f"/>
     <use x="1904.544922" xlink:href="#DejaVuSans-6f"/>
     <use x="1965.726562" xlink:href="#DejaVuSans-20"/>
     <use x="1997.513672" xlink:href="#DejaVuSans-6d"/>
     <use x="2094.925781" xlink:href="#DejaVuSans-75"/>
     <use x="2158.304688" xlink:href="#DejaVuSans-63"/>
     <use x="2213.285156" xlink:href="#DejaVuSans-68"/>
     <use x="2276.664062" xlink:href="#DejaVuSans-2e"/>
    </g>
   </g>
   <g id="text_15">
    <!-- Alcohol (new invention) -->
    <g transform="translate(238.107127 33.677623)scale(0.1 -0.1)">
     <defs>
      <path d="M 3419 850 
L 1538 850 
L 1241 0 
L 31 0 
L 1759 4666 
L 3194 4666 
L 4922 0 
L 3713 0 
L 3419 850 
z
M 1838 1716 
L 3116 1716 
L 2478 3572 
L 1838 1716 
z
" id="DejaVuSans-Bold-41" transform="scale(0.015625)"/>
      <path d="M 538 4863 
L 1656 4863 
L 1656 0 
L 538 0 
L 538 4863 
z
" id="DejaVuSans-Bold-6c" transform="scale(0.015625)"/>
      <path d="M 3366 3391 
L 3366 2478 
Q 3138 2634 2908 2709 
Q 2678 2784 2431 2784 
Q 1963 2784 1702 2511 
Q 1441 2238 1441 1747 
Q 1441 1256 1702 982 
Q 1963 709 2431 709 
Q 2694 709 2930 787 
Q 3166 866 3366 1019 
L 3366 103 
Q 3103 6 2833 -42 
Q 2563 -91 2291 -91 
Q 1344 -91 809 395 
Q 275 881 275 1747 
Q 275 2613 809 3098 
Q 1344 3584 2291 3584 
Q 2566 3584 2833 3536 
Q 3100 3488 3366 3391 
z
" id="DejaVuSans-Bold-63" transform="scale(0.015625)"/>
      <path d="M 2203 2784 
Q 1831 2784 1636 2517 
Q 1441 2250 1441 1747 
Q 1441 1244 1636 976 
Q 1831 709 2203 709 
Q 2569 709 2762 976 
Q 2956 1244 2956 1747 
Q 2956 2250 2762 2517 
Q 2569 2784 2203 2784 
z
M 2203 3584 
Q 3106 3584 3614 3096 
Q 4122 2609 4122 1747 
Q 4122 884 3614 396 
Q 3106 -91 2203 -91 
Q 1297 -91 786 396 
Q 275 884 275 1747 
Q 275 2609 786 3096 
Q 1297 3584 2203 3584 
z
" id="DejaVuSans-Bold-6f" transform="scale(0.015625)"/>
      <path d="M 4056 2131 
L 4056 0 
L 2931 0 
L 2931 347 
L 2931 1625 
Q 2931 2084 2911 2256 
Q 2891 2428 2841 2509 
Q 2775 2619 2662 2680 
Q 2550 2741 2406 2741 
Q 2056 2741 1856 2470 
Q 1656 2200 1656 1722 
L 1656 0 
L 538 0 
L 538 4863 
L 1656 4863 
L 1656 2988 
Q 1909 3294 2193 3439 
Q 2478 3584 2822 3584 
Q 3428 3584 3742 3212 
Q 4056 2841 4056 2131 
z
" id="DejaVuSans-Bold-68" transform="scale(0.015625)"/>
      <path id="DejaVuSans-Bold-20" transform="scale(0.015625)"/>
      <path d="M 2413 -844 
L 1484 -844 
Q 1006 -72 778 623 
Q 550 1319 550 2003 
Q 550 2688 779 3389 
Q 1009 4091 1484 4856 
L 2413 4856 
Q 2013 4116 1813 3408 
Q 1613 2700 1613 2009 
Q 1613 1319 1811 609 
Q 2009 -100 2413 -844 
z
" id="DejaVuSans-Bold-28" transform="scale(0.015625)"/>
      <path d="M 4056 2131 
L 4056 0 
L 2931 0 
L 2931 347 
L 2931 1631 
Q 2931 2084 2911 2256 
Q 2891 2428 2841 2509 
Q 2775 2619 2662 2680 
Q 2550 2741 2406 2741 
Q 2056 2741 1856 2470 
Q 1656 2200 1656 1722 
L 1656 0 
L 538 0 
L 538 3500 
L 1656 3500 
L 1656 2988 
Q 1909 3294 2193 3439 
Q 2478 3584 2822 3584 
Q 3428 3584 3742 3212 
Q 4056 2841 4056 2131 
z
" id="DejaVuSans-Bold-6e" transform="scale(0.015625)"/>
      <path d="M 4031 1759 
L 4031 1441 
L 1416 1441 
Q 1456 1047 1700 850 
Q 1944 653 2381 653 
Q 2734 653 3104 758 
Q 3475 863 3866 1075 
L 3866 213 
Q 3469 63 3072 -14 
Q 2675 -91 2278 -91 
Q 1328 -91 801 392 
Q 275 875 275 1747 
Q 275 2603 792 3093 
Q 1309 3584 2216 3584 
Q 3041 3584 3536 3087 
Q 4031 2591 4031 1759 
z
M 2881 2131 
Q 2881 2450 2695 2645 
Q 2509 2841 2209 2841 
Q 1884 2841 1681 2658 
Q 1478 2475 1428 2131 
L 2881 2131 
z
" id="DejaVuSans-Bold-65" transform="scale(0.015625)"/>
      <path d="M 225 3500 
L 1313 3500 
L 1900 1088 
L 2491 3500 
L 3425 3500 
L 4013 1113 
L 4603 3500 
L 5691 3500 
L 4769 0 
L 3547 0 
L 2956 2406 
L 2369 0 
L 1147 0 
L 225 3500 
z
" id="DejaVuSans-Bold-77" transform="scale(0.015625)"/>
      <path d="M 538 3500 
L 1656 3500 
L 1656 0 
L 538 0 
L 538 3500 
z
M 538 4863 
L 1656 4863 
L 1656 3950 
L 538 3950 
L 538 4863 
z
" id="DejaVuSans-Bold-69" transform="scale(0.015625)"/>
      <path d="M 97 3500 
L 1216 3500 
L 2088 1081 
L 2956 3500 
L 4078 3500 
L 2700 0 
L 1472 0 
L 97 3500 
z
" id="DejaVuSans-Bold-76" transform="scale(0.015625)"/>
      <path d="M 1759 4494 
L 1759 3500 
L 2913 3500 
L 2913 2700 
L 1759 2700 
L 1759 1216 
Q 1759 972 1856 886 
Q 1953 800 2241 800 
L 2816 800 
L 2816 0 
L 1856 0 
Q 1194 0 917 276 
Q 641 553 641 1216 
L 641 2700 
L 84 2700 
L 84 3500 
L 641 3500 
L 641 4494 
L 1759 4494 
z
" id="DejaVuSans-Bold-74" transform="scale(0.015625)"/>
      <path d="M 513 -844 
Q 913 -100 1113 609 
Q 1313 1319 1313 2009 
Q 1313 2700 1113 3408 
Q 913 4116 513 4856 
L 1441 4856 
Q 1916 4091 2145 3389 
Q 2375 2688 2375 2003 
Q 2375 1319 2147 623 
Q 1919 -72 1441 -844 
L 513 -844 
z
" id="DejaVuSans-Bold-29" transform="scale(0.015625)"/>
     </defs>
     <use xlink:href="#DejaVuSans-Bold-41"/>
     <use x="77.392578" xlink:href="#DejaVuSans-Bold-6c"/>
     <use x="111.669922" xlink:href="#DejaVuSans-Bold-63"/>
     <use x="170.947266" xlink:href="#DejaVuSans-Bold-6f"/>
     <use x="239.648438" xlink:href="#DejaVuSans-Bold-68"/>
     <use x="310.839844" xlink:href="#DejaVuSans-Bold-6f"/>
     <use x="379.541016" xlink:href="#DejaVuSans-Bold-6c"/>
     <use x="413.818359" xlink:href="#DejaVuSans-Bold-20"/>
     <use x="448.632812" xlink:href="#DejaVuSans-Bold-28"/>
     <use x="494.335938" xlink:href="#DejaVuSans-Bold-6e"/>
     <use x="565.527344" xlink:href="#DejaVuSans-Bold-65"/>
     <use x="633.349609" xlink:href="#DejaVuSans-Bold-77"/>
     <use x="725.732422" xlink:href="#DejaVuSans-Bold-20"/>
     <use x="760.546875" xlink:href="#DejaVuSans-Bold-69"/>
     <use x="794.824219" xlink:href="#DejaVuSans-Bold-6e"/>
     <use x="866.015625" xlink:href="#DejaVuSans-Bold-76"/>
     <use x="931.201172" xlink:href="#DejaVuSans-Bold-65"/>
     <use x="999.023438" xlink:href="#DejaVuSans-Bold-6e"/>
     <use x="1070.214844" xlink:href="#DejaVuSans-Bold-74"/>
     <use x="1118.017578" xlink:href="#DejaVuSans-Bold-69"/>
     <use x="1152.294922" xlink:href="#DejaVuSans-Bold-6f"/>
     <use x="1220.996094" xlink:href="#DejaVuSans-Bold-6e"/>
     <use x="1292.1875" xlink:href="#DejaVuSans-Bold-29"/>
    </g>
   </g>
  </g>
 </g>
 <defs>
  <clipPath id="pb7b6a78e16">
   <rect height="184.7808" width="298.933663" x="60.522772" y="10.8"/>
  </clipPath>
 </defs>
</svg>
