<?xml version="1.0" encoding="utf-8" standalone="no"?>
<!DOCTYPE svg PUBLIC "-//W3C//DTD SVG 1.1//EN"
  "http://www.w3.org/Graphics/SVG/1.1/DTD/svg11.dtd">
<svg height="432pt" version="1.1" viewBox="0 0 432 432" width="432pt" xmlns="http://www.w3.org/2000/svg" xmlns:xlink="http://www.w3.org/1999/xlink">
 <metadata>
  <rdf:RDF xmlns:cc="http://creativecommons.org/ns#" xmlns:dc="http://purl.org/dc/elements/1.1/" xmlns:rdf="http://www.w3.org/1999/02/22-rdf-syntax-ns#">
   <cc:Work>
    <dc:type rdf:resource="http://purl.org/dc/dcmitype/StillImage"/>
    <dc:date>2021-06-17T15:34:56.708925</dc:date>
    <dc:format>image/svg+xml</dc:format>
    <dc:creator>
     <cc:Agent>
      <dc:title>Matplotlib v3.4.1, https://matplotlib.org/</dc:title>
     </cc:Agent>
    </dc:creator>
   </cc:Work>
  </rdf:RDF>
 </metadata>
 <defs>
  <style type="text/css">*{stroke-linecap:butt;stroke-linejoin:round;}</style>
 </defs>
 <g id="figure_1">
  <g id="patch_1">
   <path d="M 0 432 
L 432 432 
L 432 0 
L 0 0 
z
" style="fill:#ffffff;"/>
  </g>
  <g id="axes_1">
   <g id="patch_2">
    <path d="M 55.08 384.48 
L 387.72 384.48 
L 387.72 51.84 
L 55.08 51.84 
z
" style="fill:#ffffff;"/>
   </g>
   <g id="matplotlib.axis_1">
    <g id="xtick_1">
     <g id="line2d_1"/>
     <g id="text_1">
      <!-- 0 -->
      <g style="fill:#262626;" transform="translate(69.250806 396.569375)scale(0.12 -0.12)">
       <defs>
        <path d="M 266 2259 
Q 266 3072 433 3567 
Q 600 4063 929 4331 
Q 1259 4600 1759 4600 
Q 2128 4600 2406 4451 
Q 2684 4303 2865 4023 
Q 3047 3744 3150 3342 
Q 3253 2941 3253 2259 
Q 3253 1453 3087 958 
Q 2922 463 2592 192 
Q 2263 -78 1759 -78 
Q 1097 -78 719 397 
Q 266 969 266 2259 
z
M 844 2259 
Q 844 1131 1108 757 
Q 1372 384 1759 384 
Q 2147 384 2411 759 
Q 2675 1134 2675 2259 
Q 2675 3391 2411 3762 
Q 2147 4134 1753 4134 
Q 1366 4134 1134 3806 
Q 844 3388 844 2259 
z
" id="ArialMT-30" transform="scale(0.015625)"/>
       </defs>
       <use xlink:href="#ArialMT-30"/>
      </g>
     </g>
    </g>
    <g id="xtick_2">
     <g id="line2d_2"/>
     <g id="text_2">
      <!-- 20 -->
      <g style="fill:#262626;" transform="translate(135.943717 396.569375)scale(0.12 -0.12)">
       <defs>
        <path d="M 3222 541 
L 3222 0 
L 194 0 
Q 188 203 259 391 
Q 375 700 629 1000 
Q 884 1300 1366 1694 
Q 2113 2306 2375 2664 
Q 2638 3022 2638 3341 
Q 2638 3675 2398 3904 
Q 2159 4134 1775 4134 
Q 1369 4134 1125 3890 
Q 881 3647 878 3216 
L 300 3275 
Q 359 3922 746 4261 
Q 1134 4600 1788 4600 
Q 2447 4600 2831 4234 
Q 3216 3869 3216 3328 
Q 3216 3053 3103 2787 
Q 2991 2522 2730 2228 
Q 2469 1934 1863 1422 
Q 1356 997 1212 845 
Q 1069 694 975 541 
L 3222 541 
z
" id="ArialMT-32" transform="scale(0.015625)"/>
       </defs>
       <use xlink:href="#ArialMT-32"/>
       <use x="55.615234" xlink:href="#ArialMT-30"/>
      </g>
     </g>
    </g>
    <g id="xtick_3">
     <g id="line2d_3"/>
     <g id="text_3">
      <!-- 40 -->
      <g style="fill:#262626;" transform="translate(205.973191 396.569375)scale(0.12 -0.12)">
       <defs>
        <path d="M 2069 0 
L 2069 1097 
L 81 1097 
L 81 1613 
L 2172 4581 
L 2631 4581 
L 2631 1613 
L 3250 1613 
L 3250 1097 
L 2631 1097 
L 2631 0 
L 2069 0 
z
M 2069 1613 
L 2069 3678 
L 634 1613 
L 2069 1613 
z
" id="ArialMT-34" transform="scale(0.015625)"/>
       </defs>
       <use xlink:href="#ArialMT-34"/>
       <use x="55.615234" xlink:href="#ArialMT-30"/>
      </g>
     </g>
    </g>
    <g id="xtick_4">
     <g id="line2d_4"/>
     <g id="text_4">
      <!-- 60 -->
      <g style="fill:#262626;" transform="translate(276.002664 396.569375)scale(0.12 -0.12)">
       <defs>
        <path d="M 3184 3459 
L 2625 3416 
Q 2550 3747 2413 3897 
Q 2184 4138 1850 4138 
Q 1581 4138 1378 3988 
Q 1113 3794 959 3422 
Q 806 3050 800 2363 
Q 1003 2672 1297 2822 
Q 1591 2972 1913 2972 
Q 2475 2972 2870 2558 
Q 3266 2144 3266 1488 
Q 3266 1056 3080 686 
Q 2894 316 2569 119 
Q 2244 -78 1831 -78 
Q 1128 -78 684 439 
Q 241 956 241 2144 
Q 241 3472 731 4075 
Q 1159 4600 1884 4600 
Q 2425 4600 2770 4297 
Q 3116 3994 3184 3459 
z
M 888 1484 
Q 888 1194 1011 928 
Q 1134 663 1356 523 
Q 1578 384 1822 384 
Q 2178 384 2434 671 
Q 2691 959 2691 1453 
Q 2691 1928 2437 2201 
Q 2184 2475 1800 2475 
Q 1419 2475 1153 2201 
Q 888 1928 888 1484 
z
" id="ArialMT-36" transform="scale(0.015625)"/>
       </defs>
       <use xlink:href="#ArialMT-36"/>
       <use x="55.615234" xlink:href="#ArialMT-30"/>
      </g>
     </g>
    </g>
    <g id="xtick_5">
     <g id="line2d_5"/>
     <g id="text_5">
      <!-- 80 -->
      <g style="fill:#262626;" transform="translate(346.032138 396.569375)scale(0.12 -0.12)">
       <defs>
        <path d="M 1131 2484 
Q 781 2613 612 2850 
Q 444 3088 444 3419 
Q 444 3919 803 4259 
Q 1163 4600 1759 4600 
Q 2359 4600 2725 4251 
Q 3091 3903 3091 3403 
Q 3091 3084 2923 2848 
Q 2756 2613 2416 2484 
Q 2838 2347 3058 2040 
Q 3278 1734 3278 1309 
Q 3278 722 2862 322 
Q 2447 -78 1769 -78 
Q 1091 -78 675 323 
Q 259 725 259 1325 
Q 259 1772 486 2073 
Q 713 2375 1131 2484 
z
M 1019 3438 
Q 1019 3113 1228 2906 
Q 1438 2700 1772 2700 
Q 2097 2700 2305 2904 
Q 2513 3109 2513 3406 
Q 2513 3716 2298 3927 
Q 2084 4138 1766 4138 
Q 1444 4138 1231 3931 
Q 1019 3725 1019 3438 
z
M 838 1322 
Q 838 1081 952 856 
Q 1066 631 1291 507 
Q 1516 384 1775 384 
Q 2178 384 2440 643 
Q 2703 903 2703 1303 
Q 2703 1709 2433 1975 
Q 2163 2241 1756 2241 
Q 1359 2241 1098 1978 
Q 838 1716 838 1322 
z
" id="ArialMT-38" transform="scale(0.015625)"/>
       </defs>
       <use xlink:href="#ArialMT-38"/>
       <use x="55.615234" xlink:href="#ArialMT-30"/>
      </g>
     </g>
    </g>
    <g id="text_6">
     <!-- Errors to retrain right eye -->
     <g style="fill:#262626;" transform="translate(155.0475 411.54375)scale(0.12 -0.12)">
      <defs>
       <path d="M 506 0 
L 506 4581 
L 3819 4581 
L 3819 4041 
L 1113 4041 
L 1113 2638 
L 3647 2638 
L 3647 2100 
L 1113 2100 
L 1113 541 
L 3925 541 
L 3925 0 
L 506 0 
z
" id="ArialMT-45" transform="scale(0.015625)"/>
       <path d="M 416 0 
L 416 3319 
L 922 3319 
L 922 2816 
Q 1116 3169 1280 3281 
Q 1444 3394 1641 3394 
Q 1925 3394 2219 3213 
L 2025 2691 
Q 1819 2813 1613 2813 
Q 1428 2813 1281 2702 
Q 1134 2591 1072 2394 
Q 978 2094 978 1738 
L 978 0 
L 416 0 
z
" id="ArialMT-72" transform="scale(0.015625)"/>
       <path d="M 213 1659 
Q 213 2581 725 3025 
Q 1153 3394 1769 3394 
Q 2453 3394 2887 2945 
Q 3322 2497 3322 1706 
Q 3322 1066 3130 698 
Q 2938 331 2570 128 
Q 2203 -75 1769 -75 
Q 1072 -75 642 372 
Q 213 819 213 1659 
z
M 791 1659 
Q 791 1022 1069 705 
Q 1347 388 1769 388 
Q 2188 388 2466 706 
Q 2744 1025 2744 1678 
Q 2744 2294 2464 2611 
Q 2184 2928 1769 2928 
Q 1347 2928 1069 2612 
Q 791 2297 791 1659 
z
" id="ArialMT-6f" transform="scale(0.015625)"/>
       <path d="M 197 991 
L 753 1078 
Q 800 744 1014 566 
Q 1228 388 1613 388 
Q 2000 388 2187 545 
Q 2375 703 2375 916 
Q 2375 1106 2209 1216 
Q 2094 1291 1634 1406 
Q 1016 1563 777 1677 
Q 538 1791 414 1992 
Q 291 2194 291 2438 
Q 291 2659 392 2848 
Q 494 3038 669 3163 
Q 800 3259 1026 3326 
Q 1253 3394 1513 3394 
Q 1903 3394 2198 3281 
Q 2494 3169 2634 2976 
Q 2775 2784 2828 2463 
L 2278 2388 
Q 2241 2644 2061 2787 
Q 1881 2931 1553 2931 
Q 1166 2931 1000 2803 
Q 834 2675 834 2503 
Q 834 2394 903 2306 
Q 972 2216 1119 2156 
Q 1203 2125 1616 2013 
Q 2213 1853 2448 1751 
Q 2684 1650 2818 1456 
Q 2953 1263 2953 975 
Q 2953 694 2789 445 
Q 2625 197 2315 61 
Q 2006 -75 1616 -75 
Q 969 -75 630 194 
Q 291 463 197 991 
z
" id="ArialMT-73" transform="scale(0.015625)"/>
       <path id="ArialMT-20" transform="scale(0.015625)"/>
       <path d="M 1650 503 
L 1731 6 
Q 1494 -44 1306 -44 
Q 1000 -44 831 53 
Q 663 150 594 308 
Q 525 466 525 972 
L 525 2881 
L 113 2881 
L 113 3319 
L 525 3319 
L 525 4141 
L 1084 4478 
L 1084 3319 
L 1650 3319 
L 1650 2881 
L 1084 2881 
L 1084 941 
Q 1084 700 1114 631 
Q 1144 563 1211 522 
Q 1278 481 1403 481 
Q 1497 481 1650 503 
z
" id="ArialMT-74" transform="scale(0.015625)"/>
       <path d="M 2694 1069 
L 3275 997 
Q 3138 488 2766 206 
Q 2394 -75 1816 -75 
Q 1088 -75 661 373 
Q 234 822 234 1631 
Q 234 2469 665 2931 
Q 1097 3394 1784 3394 
Q 2450 3394 2872 2941 
Q 3294 2488 3294 1666 
Q 3294 1616 3291 1516 
L 816 1516 
Q 847 969 1125 678 
Q 1403 388 1819 388 
Q 2128 388 2347 550 
Q 2566 713 2694 1069 
z
M 847 1978 
L 2700 1978 
Q 2663 2397 2488 2606 
Q 2219 2931 1791 2931 
Q 1403 2931 1139 2672 
Q 875 2413 847 1978 
z
" id="ArialMT-65" transform="scale(0.015625)"/>
       <path d="M 2588 409 
Q 2275 144 1986 34 
Q 1697 -75 1366 -75 
Q 819 -75 525 192 
Q 231 459 231 875 
Q 231 1119 342 1320 
Q 453 1522 633 1644 
Q 813 1766 1038 1828 
Q 1203 1872 1538 1913 
Q 2219 1994 2541 2106 
Q 2544 2222 2544 2253 
Q 2544 2597 2384 2738 
Q 2169 2928 1744 2928 
Q 1347 2928 1158 2789 
Q 969 2650 878 2297 
L 328 2372 
Q 403 2725 575 2942 
Q 747 3159 1072 3276 
Q 1397 3394 1825 3394 
Q 2250 3394 2515 3294 
Q 2781 3194 2906 3042 
Q 3031 2891 3081 2659 
Q 3109 2516 3109 2141 
L 3109 1391 
Q 3109 606 3145 398 
Q 3181 191 3288 0 
L 2700 0 
Q 2613 175 2588 409 
z
M 2541 1666 
Q 2234 1541 1622 1453 
Q 1275 1403 1131 1340 
Q 988 1278 909 1158 
Q 831 1038 831 891 
Q 831 666 1001 516 
Q 1172 366 1500 366 
Q 1825 366 2078 508 
Q 2331 650 2450 897 
Q 2541 1088 2541 1459 
L 2541 1666 
z
" id="ArialMT-61" transform="scale(0.015625)"/>
       <path d="M 425 3934 
L 425 4581 
L 988 4581 
L 988 3934 
L 425 3934 
z
M 425 0 
L 425 3319 
L 988 3319 
L 988 0 
L 425 0 
z
" id="ArialMT-69" transform="scale(0.015625)"/>
       <path d="M 422 0 
L 422 3319 
L 928 3319 
L 928 2847 
Q 1294 3394 1984 3394 
Q 2284 3394 2536 3286 
Q 2788 3178 2913 3003 
Q 3038 2828 3088 2588 
Q 3119 2431 3119 2041 
L 3119 0 
L 2556 0 
L 2556 2019 
Q 2556 2363 2490 2533 
Q 2425 2703 2258 2804 
Q 2091 2906 1866 2906 
Q 1506 2906 1245 2678 
Q 984 2450 984 1813 
L 984 0 
L 422 0 
z
" id="ArialMT-6e" transform="scale(0.015625)"/>
       <path d="M 319 -275 
L 866 -356 
Q 900 -609 1056 -725 
Q 1266 -881 1628 -881 
Q 2019 -881 2231 -725 
Q 2444 -569 2519 -288 
Q 2563 -116 2559 434 
Q 2191 0 1641 0 
Q 956 0 581 494 
Q 206 988 206 1678 
Q 206 2153 378 2554 
Q 550 2956 876 3175 
Q 1203 3394 1644 3394 
Q 2231 3394 2613 2919 
L 2613 3319 
L 3131 3319 
L 3131 450 
Q 3131 -325 2973 -648 
Q 2816 -972 2473 -1159 
Q 2131 -1347 1631 -1347 
Q 1038 -1347 672 -1080 
Q 306 -813 319 -275 
z
M 784 1719 
Q 784 1066 1043 766 
Q 1303 466 1694 466 
Q 2081 466 2343 764 
Q 2606 1063 2606 1700 
Q 2606 2309 2336 2618 
Q 2066 2928 1684 2928 
Q 1309 2928 1046 2623 
Q 784 2319 784 1719 
z
" id="ArialMT-67" transform="scale(0.015625)"/>
       <path d="M 422 0 
L 422 4581 
L 984 4581 
L 984 2938 
Q 1378 3394 1978 3394 
Q 2347 3394 2619 3248 
Q 2891 3103 3008 2847 
Q 3125 2591 3125 2103 
L 3125 0 
L 2563 0 
L 2563 2103 
Q 2563 2525 2380 2717 
Q 2197 2909 1863 2909 
Q 1613 2909 1392 2779 
Q 1172 2650 1078 2428 
Q 984 2206 984 1816 
L 984 0 
L 422 0 
z
" id="ArialMT-68" transform="scale(0.015625)"/>
       <path d="M 397 -1278 
L 334 -750 
Q 519 -800 656 -800 
Q 844 -800 956 -737 
Q 1069 -675 1141 -563 
Q 1194 -478 1313 -144 
Q 1328 -97 1363 -6 
L 103 3319 
L 709 3319 
L 1400 1397 
Q 1534 1031 1641 628 
Q 1738 1016 1872 1384 
L 2581 3319 
L 3144 3319 
L 1881 -56 
Q 1678 -603 1566 -809 
Q 1416 -1088 1222 -1217 
Q 1028 -1347 759 -1347 
Q 597 -1347 397 -1278 
z
" id="ArialMT-79" transform="scale(0.015625)"/>
      </defs>
      <use xlink:href="#ArialMT-45"/>
      <use x="66.699219" xlink:href="#ArialMT-72"/>
      <use x="100" xlink:href="#ArialMT-72"/>
      <use x="133.300781" xlink:href="#ArialMT-6f"/>
      <use x="188.916016" xlink:href="#ArialMT-72"/>
      <use x="222.216797" xlink:href="#ArialMT-73"/>
      <use x="272.216797" xlink:href="#ArialMT-20"/>
      <use x="300" xlink:href="#ArialMT-74"/>
      <use x="327.783203" xlink:href="#ArialMT-6f"/>
      <use x="383.398438" xlink:href="#ArialMT-20"/>
      <use x="411.181641" xlink:href="#ArialMT-72"/>
      <use x="444.482422" xlink:href="#ArialMT-65"/>
      <use x="500.097656" xlink:href="#ArialMT-74"/>
      <use x="527.880859" xlink:href="#ArialMT-72"/>
      <use x="561.181641" xlink:href="#ArialMT-61"/>
      <use x="616.796875" xlink:href="#ArialMT-69"/>
      <use x="639.013672" xlink:href="#ArialMT-6e"/>
      <use x="694.628906" xlink:href="#ArialMT-20"/>
      <use x="722.412109" xlink:href="#ArialMT-72"/>
      <use x="755.712891" xlink:href="#ArialMT-69"/>
      <use x="777.929688" xlink:href="#ArialMT-67"/>
      <use x="833.544922" xlink:href="#ArialMT-68"/>
      <use x="889.160156" xlink:href="#ArialMT-74"/>
      <use x="916.943359" xlink:href="#ArialMT-20"/>
      <use x="944.726562" xlink:href="#ArialMT-65"/>
      <use x="1000.341797" xlink:href="#ArialMT-79"/>
      <use x="1050.341797" xlink:href="#ArialMT-65"/>
     </g>
    </g>
   </g>
   <g id="matplotlib.axis_2">
    <g id="ytick_1">
     <g id="line2d_6"/>
     <g id="text_7">
      <!-- 0 -->
      <g style="fill:#262626;" transform="translate(44.906875 371.267319)scale(0.12 -0.12)">
       <use xlink:href="#ArialMT-30"/>
      </g>
     </g>
    </g>
    <g id="ytick_2">
     <g id="line2d_7"/>
     <g id="text_8">
      <!-- 20 -->
      <g style="fill:#262626;" transform="translate(38.23375 301.237845)scale(0.12 -0.12)">
       <use xlink:href="#ArialMT-32"/>
       <use x="55.615234" xlink:href="#ArialMT-30"/>
      </g>
     </g>
    </g>
    <g id="ytick_3">
     <g id="line2d_8"/>
     <g id="text_9">
      <!-- 40 -->
      <g style="fill:#262626;" transform="translate(38.23375 231.208372)scale(0.12 -0.12)">
       <use xlink:href="#ArialMT-34"/>
       <use x="55.615234" xlink:href="#ArialMT-30"/>
      </g>
     </g>
    </g>
    <g id="ytick_4">
     <g id="line2d_9"/>
     <g id="text_10">
      <!-- 60 -->
      <g style="fill:#262626;" transform="translate(38.23375 161.178898)scale(0.12 -0.12)">
       <use xlink:href="#ArialMT-36"/>
       <use x="55.615234" xlink:href="#ArialMT-30"/>
      </g>
     </g>
    </g>
    <g id="ytick_5">
     <g id="line2d_10"/>
     <g id="text_11">
      <!-- 80 -->
      <g style="fill:#262626;" transform="translate(38.23375 91.149424)scale(0.12 -0.12)">
       <use xlink:href="#ArialMT-38"/>
       <use x="55.615234" xlink:href="#ArialMT-30"/>
      </g>
     </g>
    </g>
    <g id="text_12">
     <!-- Errors to retrain left eye -->
     <g style="fill:#262626;" transform="translate(31.708125 280.845)rotate(-90)scale(0.12 -0.12)">
      <defs>
       <path d="M 409 0 
L 409 4581 
L 972 4581 
L 972 0 
L 409 0 
z
" id="ArialMT-6c" transform="scale(0.015625)"/>
       <path d="M 556 0 
L 556 2881 
L 59 2881 
L 59 3319 
L 556 3319 
L 556 3672 
Q 556 4006 616 4169 
Q 697 4388 901 4523 
Q 1106 4659 1475 4659 
Q 1713 4659 2000 4603 
L 1916 4113 
Q 1741 4144 1584 4144 
Q 1328 4144 1222 4034 
Q 1116 3925 1116 3625 
L 1116 3319 
L 1763 3319 
L 1763 2881 
L 1116 2881 
L 1116 0 
L 556 0 
z
" id="ArialMT-66" transform="scale(0.015625)"/>
      </defs>
      <use xlink:href="#ArialMT-45"/>
      <use x="66.699219" xlink:href="#ArialMT-72"/>
      <use x="100" xlink:href="#ArialMT-72"/>
      <use x="133.300781" xlink:href="#ArialMT-6f"/>
      <use x="188.916016" xlink:href="#ArialMT-72"/>
      <use x="222.216797" xlink:href="#ArialMT-73"/>
      <use x="272.216797" xlink:href="#ArialMT-20"/>
      <use x="300" xlink:href="#ArialMT-74"/>
      <use x="327.783203" xlink:href="#ArialMT-6f"/>
      <use x="383.398438" xlink:href="#ArialMT-20"/>
      <use x="411.181641" xlink:href="#ArialMT-72"/>
      <use x="444.482422" xlink:href="#ArialMT-65"/>
      <use x="500.097656" xlink:href="#ArialMT-74"/>
      <use x="527.880859" xlink:href="#ArialMT-72"/>
      <use x="561.181641" xlink:href="#ArialMT-61"/>
      <use x="616.796875" xlink:href="#ArialMT-69"/>
      <use x="639.013672" xlink:href="#ArialMT-6e"/>
      <use x="694.628906" xlink:href="#ArialMT-20"/>
      <use x="722.412109" xlink:href="#ArialMT-6c"/>
      <use x="744.628906" xlink:href="#ArialMT-65"/>
      <use x="800.244141" xlink:href="#ArialMT-66"/>
      <use x="828.027344" xlink:href="#ArialMT-74"/>
      <use x="855.810547" xlink:href="#ArialMT-20"/>
      <use x="883.59375" xlink:href="#ArialMT-65"/>
      <use x="939.208984" xlink:href="#ArialMT-79"/>
      <use x="989.208984" xlink:href="#ArialMT-65"/>
     </g>
    </g>
   </g>
   <g id="line2d_11">
    <defs>
     <path d="M 0 5 
C 1.326016 5 2.597899 4.473168 3.535534 3.535534 
C 4.473168 2.597899 5 1.326016 5 0 
C 5 -1.326016 4.473168 -2.597899 3.535534 -3.535534 
C 2.597899 -4.473168 1.326016 -5 0 -5 
C -1.326016 -5 -2.597899 -4.473168 -3.535534 -3.535534 
C -4.473168 -2.597899 -5 -1.326016 -5 0 
C -5 1.326016 -4.473168 2.597899 -3.535534 3.535534 
C -2.597899 4.473168 -1.326016 5 0 5 
z
" id="m17b1f3c2d1" style="stroke:#edad08;stroke-opacity:0.8;"/>
    </defs>
    <g clip-path="url(#p11a6df0f2f)">
     <use style="fill-opacity:0;stroke:#edad08;stroke-opacity:0.8;" x="282.675789" xlink:href="#m17b1f3c2d1" y="366.972632"/>
    </g>
   </g>
   <g id="line2d_12">
    <defs>
     <path d="M -0 5 
L 5 -5 
L -5 -5 
z
" id="mc86c0f2ab8" style="stroke:#edad08;stroke-linejoin:miter;stroke-opacity:0.8;"/>
    </defs>
    <g clip-path="url(#p11a6df0f2f)">
     <use style="fill-opacity:0;stroke:#edad08;stroke-linejoin:miter;stroke-opacity:0.8;" x="83.091789" xlink:href="#mc86c0f2ab8" y="366.972632"/>
    </g>
   </g>
   <g id="line2d_13">
    <defs>
     <path d="M 0 -5 
L -5 5 
L 5 5 
z
" id="m33f8b11e4a" style="stroke:#edad08;stroke-linejoin:miter;stroke-opacity:0.8;"/>
    </defs>
    <g clip-path="url(#p11a6df0f2f)">
     <use style="fill-opacity:0;stroke:#edad08;stroke-linejoin:miter;stroke-opacity:0.8;" x="76.088842" xlink:href="#m33f8b11e4a" y="156.884211"/>
    </g>
   </g>
   <g id="line2d_14">
    <defs>
     <path d="M 0 0 
L 0 5 
M 0 0 
L 4 -2.5 
M 0 0 
L -4 -2.5 
" id="m5a1ebe0af6" style="stroke:#edad08;stroke-opacity:0.8;"/>
    </defs>
    <g clip-path="url(#p11a6df0f2f)">
     <use style="fill-opacity:0;stroke:#edad08;stroke-opacity:0.8;" x="90.094737" xlink:href="#m5a1ebe0af6" y="163.887158"/>
    </g>
   </g>
   <g id="line2d_15">
    <defs>
     <path d="M -5 0 
L 5 0 
M 0 5 
L 0 -5 
" id="m7df49705e3" style="stroke:#edad08;stroke-opacity:0.8;"/>
    </defs>
    <g clip-path="url(#p11a6df0f2f)">
     <use style="fill-opacity:0;stroke:#edad08;stroke-opacity:0.8;" x="72.587368" xlink:href="#m7df49705e3" y="212.907789"/>
    </g>
   </g>
   <g id="line2d_16">
    <defs>
     <path d="M 0 -5 
L -4.330127 -2.5 
L -4.330127 2.5 
L -0 5 
L 4.330127 2.5 
L 4.330127 -2.5 
z
" id="m3d9991a0d3" style="stroke:#edad08;stroke-linejoin:miter;stroke-opacity:0.8;"/>
    </defs>
    <g clip-path="url(#p11a6df0f2f)">
     <use style="fill-opacity:0;stroke:#edad08;stroke-linejoin:miter;stroke-opacity:0.8;" x="72.587368" xlink:href="#m3d9991a0d3" y="237.418105"/>
    </g>
   </g>
   <g id="line2d_17">
    <defs>
     <path d="M 0 -5 
L -1.12257 -1.545085 
L -4.755283 -1.545085 
L -1.816356 0.59017 
L -2.938926 4.045085 
L -0 1.90983 
L 2.938926 4.045085 
L 1.816356 0.59017 
L 4.755283 -1.545085 
L 1.12257 -1.545085 
z
" id="m4846531baf" style="stroke:#edad08;stroke-linejoin:bevel;stroke-opacity:0.8;"/>
    </defs>
    <g clip-path="url(#p11a6df0f2f)">
     <use style="fill-opacity:0;stroke:#edad08;stroke-linejoin:bevel;stroke-opacity:0.8;" x="79.590316" xlink:href="#m4846531baf" y="163.887158"/>
    </g>
   </g>
   <g id="line2d_18">
    <defs>
     <path d="M -5 5 
L 5 -5 
M -5 -5 
L 5 5 
" id="m788fdf7ca7" style="stroke:#edad08;stroke-opacity:0.8;"/>
    </defs>
    <g clip-path="url(#p11a6df0f2f)">
     <use style="fill-opacity:0;stroke:#edad08;stroke-opacity:0.8;" x="72.587368" xlink:href="#m788fdf7ca7" y="282.937263"/>
    </g>
   </g>
   <g id="line2d_19">
    <defs>
     <path d="M -5 5 
L 5 5 
L 5 -5 
L -5 -5 
z
" id="mb15945f35c" style="stroke:#edad08;stroke-linejoin:miter;stroke-opacity:0.8;"/>
    </defs>
    <g clip-path="url(#p11a6df0f2f)">
     <use style="fill-opacity:0;stroke:#edad08;stroke-linejoin:miter;stroke-opacity:0.8;" x="93.596211" xlink:href="#mb15945f35c" y="342.462316"/>
    </g>
   </g>
   <g id="line2d_20">
    <defs>
     <path d="M 0 0 
L 5 0 
M 0 0 
L -2.5 -4 
M 0 0 
L -2.5 4 
" id="m60313e91be" style="stroke:#edad08;stroke-opacity:0.8;"/>
    </defs>
    <g clip-path="url(#p11a6df0f2f)">
     <use style="fill-opacity:0;stroke:#edad08;stroke-opacity:0.8;" x="72.587368" xlink:href="#m60313e91be" y="195.400421"/>
    </g>
   </g>
   <g id="line2d_21">
    <defs>
     <path d="M 0 0 
L -5 -0 
M 0 0 
L 2.5 4 
M 0 0 
L 2.5 -4 
" id="mabbda15b1a" style="stroke:#edad08;stroke-opacity:0.8;"/>
    </defs>
    <g clip-path="url(#p11a6df0f2f)">
     <use style="fill-opacity:0;stroke:#edad08;stroke-opacity:0.8;" x="72.587368" xlink:href="#mabbda15b1a" y="244.421053"/>
    </g>
   </g>
   <g id="line2d_22">
    <defs>
     <path d="M 0 -5 
L -4.755283 -1.545085 
L -2.938926 4.045085 
L 2.938926 4.045085 
L 4.755283 -1.545085 
z
" id="m3c81882e23" style="stroke:#edad08;stroke-linejoin:miter;stroke-opacity:0.8;"/>
    </defs>
    <g clip-path="url(#p11a6df0f2f)">
     <use style="fill-opacity:0;stroke:#edad08;stroke-linejoin:miter;stroke-opacity:0.8;" x="72.587368" xlink:href="#m3c81882e23" y="282.937263"/>
    </g>
   </g>
   <g id="line2d_23">
    <defs>
     <path d="M -0 7.071068 
L 4.242641 0 
L -0 -7.071068 
L -4.242641 -0 
z
" id="me78524af7f" style="stroke:#edad08;stroke-linejoin:miter;stroke-opacity:0.8;"/>
    </defs>
    <g clip-path="url(#p11a6df0f2f)">
     <use style="fill-opacity:0;stroke:#edad08;stroke-linejoin:miter;stroke-opacity:0.8;" x="83.091789" xlink:href="#me78524af7f" y="356.468211"/>
    </g>
   </g>
   <g id="line2d_24">
    <defs>
     <path d="M 0 5 
C 1.326016 5 2.597899 4.473168 3.535534 3.535534 
C 4.473168 2.597899 5 1.326016 5 0 
C 5 -1.326016 4.473168 -2.597899 3.535534 -3.535534 
C 2.597899 -4.473168 1.326016 -5 0 -5 
C -1.326016 -5 -2.597899 -4.473168 -3.535534 -3.535534 
C -4.473168 -2.597899 -5 -1.326016 -5 0 
C -5 1.326016 -4.473168 2.597899 -3.535534 3.535534 
C -2.597899 4.473168 -1.326016 5 0 5 
z
" id="m276e3a178f" style="stroke:#1d6996;stroke-opacity:0.8;"/>
    </defs>
    <g clip-path="url(#p11a6df0f2f)">
     <use style="fill-opacity:0;stroke:#1d6996;stroke-opacity:0.8;" x="72.587368" xlink:href="#m276e3a178f" y="58.842947"/>
    </g>
   </g>
   <g id="line2d_25">
    <defs>
     <path d="M -0 5 
L 5 -5 
L -5 -5 
z
" id="mb679639217" style="stroke:#1d6996;stroke-linejoin:miter;stroke-opacity:0.8;"/>
    </defs>
    <g clip-path="url(#p11a6df0f2f)">
     <use style="fill-opacity:0;stroke:#1d6996;stroke-linejoin:miter;stroke-opacity:0.8;" x="72.587368" xlink:href="#mb679639217" y="366.972632"/>
    </g>
   </g>
   <g id="line2d_26">
    <defs>
     <path d="M 0 -5 
L -5 5 
L 5 5 
z
" id="mf99ebbd67d" style="stroke:#1d6996;stroke-linejoin:miter;stroke-opacity:0.8;"/>
    </defs>
    <g clip-path="url(#p11a6df0f2f)">
     <use style="fill-opacity:0;stroke:#1d6996;stroke-linejoin:miter;stroke-opacity:0.8;" x="72.587368" xlink:href="#mf99ebbd67d" y="219.910737"/>
    </g>
   </g>
   <g id="line2d_27">
    <defs>
     <path d="M 0 0 
L 0 5 
M 0 0 
L 4 -2.5 
M 0 0 
L -4 -2.5 
" id="m7d0854ad8d" style="stroke:#1d6996;stroke-opacity:0.8;"/>
    </defs>
    <g clip-path="url(#p11a6df0f2f)">
     <use style="fill-opacity:0;stroke:#1d6996;stroke-opacity:0.8;" x="125.109474" xlink:href="#m7d0854ad8d" y="307.447579"/>
    </g>
   </g>
   <g id="line2d_28">
    <defs>
     <path d="M -5 0 
L 5 0 
M 0 5 
L 0 -5 
" id="m4e6d932746" style="stroke:#1d6996;stroke-opacity:0.8;"/>
    </defs>
    <g clip-path="url(#p11a6df0f2f)">
     <use style="fill-opacity:0;stroke:#1d6996;stroke-opacity:0.8;" x="83.091789" xlink:href="#m4e6d932746" y="156.884211"/>
    </g>
   </g>
   <g id="line2d_29">
    <defs>
     <path d="M 0 -5 
L -1.12257 -1.545085 
L -4.755283 -1.545085 
L -1.816356 0.59017 
L -2.938926 4.045085 
L -0 1.90983 
L 2.938926 4.045085 
L 1.816356 0.59017 
L 4.755283 -1.545085 
L 1.12257 -1.545085 
z
" id="mda6852bda5" style="stroke:#1d6996;stroke-linejoin:bevel;stroke-opacity:0.8;"/>
    </defs>
    <g clip-path="url(#p11a6df0f2f)">
     <use style="fill-opacity:0;stroke:#1d6996;stroke-linejoin:bevel;stroke-opacity:0.8;" x="72.587368" xlink:href="#mda6852bda5" y="300.444632"/>
    </g>
   </g>
   <g id="line2d_30">
    <defs>
     <path d="M -5 5 
L 5 -5 
M -5 -5 
L 5 5 
" id="m93e289e42e" style="stroke:#1d6996;stroke-opacity:0.8;"/>
    </defs>
    <g clip-path="url(#p11a6df0f2f)">
     <use style="fill-opacity:0;stroke:#1d6996;stroke-opacity:0.8;" x="86.593263" xlink:href="#m93e289e42e" y="293.441684"/>
    </g>
   </g>
   <g id="line2d_31">
    <defs>
     <path d="M -5 5 
L 5 5 
L 5 -5 
L -5 -5 
z
" id="m2cdc12bbcd" style="stroke:#1d6996;stroke-linejoin:miter;stroke-opacity:0.8;"/>
    </defs>
    <g clip-path="url(#p11a6df0f2f)">
     <use style="fill-opacity:0;stroke:#1d6996;stroke-linejoin:miter;stroke-opacity:0.8;" x="72.587368" xlink:href="#m2cdc12bbcd" y="198.901895"/>
    </g>
   </g>
   <g id="line2d_32">
    <defs>
     <path d="M 0 0 
L -5 -0 
M 0 0 
L 2.5 4 
M 0 0 
L 2.5 -4 
" id="m49d49be6b7" style="stroke:#1d6996;stroke-opacity:0.8;"/>
    </defs>
    <g clip-path="url(#p11a6df0f2f)">
     <use style="fill-opacity:0;stroke:#1d6996;stroke-opacity:0.8;" x="72.587368" xlink:href="#m49d49be6b7" y="331.957895"/>
    </g>
   </g>
   <g id="line2d_33">
    <defs>
     <path d="M 0 -5 
L -4.755283 -1.545085 
L -2.938926 4.045085 
L 2.938926 4.045085 
L 4.755283 -1.545085 
z
" id="m1baf160cb1" style="stroke:#1d6996;stroke-linejoin:miter;stroke-opacity:0.8;"/>
    </defs>
    <g clip-path="url(#p11a6df0f2f)">
     <use style="fill-opacity:0;stroke:#1d6996;stroke-linejoin:miter;stroke-opacity:0.8;" x="72.587368" xlink:href="#m1baf160cb1" y="349.465263"/>
    </g>
   </g>
   <g id="line2d_34">
    <defs>
     <path d="M -0 7.071068 
L 4.242641 0 
L -0 -7.071068 
L -4.242641 -0 
z
" id="mcb62b8e989" style="stroke:#1d6996;stroke-linejoin:miter;stroke-opacity:0.8;"/>
    </defs>
    <g clip-path="url(#p11a6df0f2f)">
     <use style="fill-opacity:0;stroke:#1d6996;stroke-linejoin:miter;stroke-opacity:0.8;" x="93.596211" xlink:href="#mcb62b8e989" y="324.954947"/>
    </g>
   </g>
   <g id="text_13">
    <!-- dynomight.net -->
    <g style="fill:#808080;opacity:0.5;" transform="translate(2418.574737 752.134737)scale(0.09 -0.09)">
     <defs>
      <path d="M 2681 3053 
L 2681 4863 
L 3256 4863 
L 3256 0 
L 2681 0 
L 2681 441 
Q 2538 181 2298 45 
Q 2059 -91 1747 -91 
Q 1113 -91 748 401 
Q 384 894 384 1759 
Q 384 2613 750 3098 
Q 1116 3584 1747 3584 
Q 2063 3584 2303 3448 
Q 2544 3313 2681 3053 
z
M 991 1747 
Q 991 1078 1203 737 
Q 1416 397 1831 397 
Q 2247 397 2464 740 
Q 2681 1084 2681 1747 
Q 2681 2413 2464 2755 
Q 2247 3097 1831 3097 
Q 1416 3097 1203 2756 
Q 991 2416 991 1747 
z
" id="DejaVuSansMono-64" transform="scale(0.015625)"/>
      <path d="M 2681 1125 
Q 2538 759 2316 163 
Q 2006 -663 1900 -844 
Q 1756 -1088 1540 -1209 
Q 1325 -1331 1038 -1331 
L 575 -1331 
L 575 -850 
L 916 -850 
Q 1169 -850 1312 -703 
Q 1456 -556 1678 56 
L 325 3500 
L 934 3500 
L 1972 763 
L 2994 3500 
L 3603 3500 
L 2681 1125 
z
" id="DejaVuSansMono-79" transform="scale(0.015625)"/>
      <path d="M 3284 2169 
L 3284 0 
L 2706 0 
L 2706 2169 
Q 2706 2641 2540 2862 
Q 2375 3084 2022 3084 
Q 1619 3084 1401 2798 
Q 1184 2513 1184 1978 
L 1184 0 
L 609 0 
L 609 3500 
L 1184 3500 
L 1184 2975 
Q 1338 3275 1600 3429 
Q 1863 3584 2222 3584 
Q 2756 3584 3020 3232 
Q 3284 2881 3284 2169 
z
" id="DejaVuSansMono-6e" transform="scale(0.015625)"/>
      <path d="M 1925 3097 
Q 1488 3097 1263 2756 
Q 1038 2416 1038 1747 
Q 1038 1081 1263 739 
Q 1488 397 1925 397 
Q 2366 397 2591 739 
Q 2816 1081 2816 1747 
Q 2816 2416 2591 2756 
Q 2366 3097 1925 3097 
z
M 1925 3584 
Q 2653 3584 3039 3112 
Q 3425 2641 3425 1747 
Q 3425 850 3040 379 
Q 2656 -91 1925 -91 
Q 1197 -91 812 379 
Q 428 850 428 1747 
Q 428 2641 812 3112 
Q 1197 3584 1925 3584 
z
" id="DejaVuSansMono-6f" transform="scale(0.015625)"/>
      <path d="M 2113 3144 
Q 2219 3369 2383 3476 
Q 2547 3584 2778 3584 
Q 3200 3584 3373 3257 
Q 3547 2931 3547 2028 
L 3547 0 
L 3022 0 
L 3022 2003 
Q 3022 2744 2939 2923 
Q 2856 3103 2638 3103 
Q 2388 3103 2295 2911 
Q 2203 2719 2203 2003 
L 2203 0 
L 1678 0 
L 1678 2003 
Q 1678 2753 1589 2928 
Q 1500 3103 1269 3103 
Q 1041 3103 952 2911 
Q 863 2719 863 2003 
L 863 0 
L 341 0 
L 341 3500 
L 863 3500 
L 863 3200 
Q 966 3388 1120 3486 
Q 1275 3584 1472 3584 
Q 1709 3584 1867 3475 
Q 2025 3366 2113 3144 
z
" id="DejaVuSansMono-6d" transform="scale(0.015625)"/>
      <path d="M 800 3500 
L 2272 3500 
L 2272 447 
L 3413 447 
L 3413 0 
L 556 0 
L 556 447 
L 1697 447 
L 1697 3053 
L 800 3053 
L 800 3500 
z
M 1697 4863 
L 2272 4863 
L 2272 4134 
L 1697 4134 
L 1697 4863 
z
" id="DejaVuSansMono-69" transform="scale(0.015625)"/>
      <path d="M 2681 1778 
Q 2681 2425 2470 2761 
Q 2259 3097 1856 3097 
Q 1434 3097 1212 2761 
Q 991 2425 991 1778 
Q 991 1131 1214 792 
Q 1438 453 1863 453 
Q 2259 453 2470 793 
Q 2681 1134 2681 1778 
z
M 3256 225 
Q 3256 -563 2884 -969 
Q 2513 -1375 1791 -1375 
Q 1553 -1375 1293 -1331 
Q 1034 -1288 775 -1203 
L 775 -634 
Q 1081 -778 1331 -847 
Q 1581 -916 1791 -916 
Q 2256 -916 2468 -662 
Q 2681 -409 2681 141 
L 2681 166 
L 2681 556 
Q 2544 263 2306 119 
Q 2069 -25 1728 -25 
Q 1116 -25 750 465 
Q 384 956 384 1778 
Q 384 2603 750 3093 
Q 1116 3584 1728 3584 
Q 2066 3584 2300 3450 
Q 2534 3316 2681 3034 
L 2681 3488 
L 3256 3488 
L 3256 225 
z
" id="DejaVuSansMono-67" transform="scale(0.015625)"/>
      <path d="M 3284 2169 
L 3284 0 
L 2706 0 
L 2706 2169 
Q 2706 2641 2540 2862 
Q 2375 3084 2022 3084 
Q 1619 3084 1401 2798 
Q 1184 2513 1184 1978 
L 1184 0 
L 609 0 
L 609 4863 
L 1184 4863 
L 1184 2975 
Q 1338 3275 1600 3429 
Q 1863 3584 2222 3584 
Q 2756 3584 3020 3232 
Q 3284 2881 3284 2169 
z
" id="DejaVuSansMono-68" transform="scale(0.015625)"/>
      <path d="M 1919 4494 
L 1919 3500 
L 3225 3500 
L 3225 3053 
L 1919 3053 
L 1919 1153 
Q 1919 766 2066 612 
Q 2213 459 2578 459 
L 3225 459 
L 3225 0 
L 2522 0 
Q 1875 0 1609 259 
Q 1344 519 1344 1153 
L 1344 3053 
L 409 3053 
L 409 3500 
L 1344 3500 
L 1344 4494 
L 1919 4494 
z
" id="DejaVuSansMono-74" transform="scale(0.015625)"/>
      <path d="M 1528 953 
L 2316 953 
L 2316 0 
L 1528 0 
L 1528 953 
z
" id="DejaVuSansMono-2e" transform="scale(0.015625)"/>
      <path d="M 3475 1894 
L 3475 1613 
L 984 1613 
L 984 1594 
Q 984 1022 1282 709 
Q 1581 397 2125 397 
Q 2400 397 2700 484 
Q 3000 572 3341 750 
L 3341 178 
Q 3013 44 2708 -23 
Q 2403 -91 2119 -91 
Q 1303 -91 843 398 
Q 384 888 384 1747 
Q 384 2584 834 3084 
Q 1284 3584 2034 3584 
Q 2703 3584 3089 3131 
Q 3475 2678 3475 1894 
z
M 2900 2063 
Q 2888 2569 2661 2833 
Q 2434 3097 2009 3097 
Q 1594 3097 1325 2822 
Q 1056 2547 1006 2059 
L 2900 2063 
z
" id="DejaVuSansMono-65" transform="scale(0.015625)"/>
     </defs>
     <use xlink:href="#DejaVuSansMono-64"/>
     <use x="60.205078" xlink:href="#DejaVuSansMono-79"/>
     <use x="120.410156" xlink:href="#DejaVuSansMono-6e"/>
     <use x="180.615234" xlink:href="#DejaVuSansMono-6f"/>
     <use x="240.820312" xlink:href="#DejaVuSansMono-6d"/>
     <use x="301.025391" xlink:href="#DejaVuSansMono-69"/>
     <use x="361.230469" xlink:href="#DejaVuSansMono-67"/>
     <use x="421.435547" xlink:href="#DejaVuSansMono-68"/>
     <use x="481.640625" xlink:href="#DejaVuSansMono-74"/>
     <use x="541.845703" xlink:href="#DejaVuSansMono-2e"/>
     <use x="602.050781" xlink:href="#DejaVuSansMono-6e"/>
     <use x="662.255859" xlink:href="#DejaVuSansMono-65"/>
     <use x="722.460938" xlink:href="#DejaVuSansMono-74"/>
    </g>
   </g>
   <g id="legend_1">
    <g id="text_14">
     <!-- cat -->
     <g style="fill:#262626;" transform="translate(343.116562 71.229375)scale(0.12 -0.12)">
      <defs>
       <path d="M 2588 1216 
L 3141 1144 
Q 3050 572 2676 248 
Q 2303 -75 1759 -75 
Q 1078 -75 664 370 
Q 250 816 250 1647 
Q 250 2184 428 2587 
Q 606 2991 970 3192 
Q 1334 3394 1763 3394 
Q 2303 3394 2647 3120 
Q 2991 2847 3088 2344 
L 2541 2259 
Q 2463 2594 2264 2762 
Q 2066 2931 1784 2931 
Q 1359 2931 1093 2626 
Q 828 2322 828 1663 
Q 828 994 1084 691 
Q 1341 388 1753 388 
Q 2084 388 2306 591 
Q 2528 794 2588 1216 
z
" id="ArialMT-63" transform="scale(0.015625)"/>
      </defs>
      <use xlink:href="#ArialMT-63"/>
      <use x="50" xlink:href="#ArialMT-61"/>
      <use x="105.615234" xlink:href="#ArialMT-74"/>
     </g>
    </g>
    <g id="line2d_35"/>
    <g id="line2d_36">
     <g>
      <use style="fill-opacity:0;stroke:#edad08;stroke-opacity:0.8;" x="337.32" xlink:href="#m17b1f3c2d1" y="84.00375"/>
     </g>
    </g>
    <g id="text_15">
     <!-- Igr -->
     <g style="fill:#262626;" transform="translate(358.92 88.20375)scale(0.12 -0.12)">
      <defs>
       <path d="M 597 0 
L 597 4581 
L 1203 4581 
L 1203 0 
L 597 0 
z
" id="ArialMT-49" transform="scale(0.015625)"/>
      </defs>
      <use xlink:href="#ArialMT-49"/>
      <use x="27.783203" xlink:href="#ArialMT-67"/>
      <use x="83.398438" xlink:href="#ArialMT-72"/>
     </g>
    </g>
    <g id="line2d_37"/>
    <g id="line2d_38">
     <g>
      <use style="fill-opacity:0;stroke:#1d6996;stroke-opacity:0.8;" x="337.32" xlink:href="#m276e3a178f" y="101.11875"/>
     </g>
    </g>
    <g id="text_16">
     <!-- Brs -->
     <g style="fill:#262626;" transform="translate(358.92 105.31875)scale(0.12 -0.12)">
      <defs>
       <path d="M 469 0 
L 469 4581 
L 2188 4581 
Q 2713 4581 3030 4442 
Q 3347 4303 3526 4014 
Q 3706 3725 3706 3409 
Q 3706 3116 3547 2856 
Q 3388 2597 3066 2438 
Q 3481 2316 3704 2022 
Q 3928 1728 3928 1328 
Q 3928 1006 3792 729 
Q 3656 453 3456 303 
Q 3256 153 2954 76 
Q 2653 0 2216 0 
L 469 0 
z
M 1075 2656 
L 2066 2656 
Q 2469 2656 2644 2709 
Q 2875 2778 2992 2937 
Q 3109 3097 3109 3338 
Q 3109 3566 3000 3739 
Q 2891 3913 2687 3977 
Q 2484 4041 1991 4041 
L 1075 4041 
L 1075 2656 
z
M 1075 541 
L 2216 541 
Q 2509 541 2628 563 
Q 2838 600 2978 687 
Q 3119 775 3209 942 
Q 3300 1109 3300 1328 
Q 3300 1584 3169 1773 
Q 3038 1963 2805 2039 
Q 2572 2116 2134 2116 
L 1075 2116 
L 1075 541 
z
" id="ArialMT-42" transform="scale(0.015625)"/>
      </defs>
      <use xlink:href="#ArialMT-42"/>
      <use x="66.699219" xlink:href="#ArialMT-72"/>
      <use x="100" xlink:href="#ArialMT-73"/>
     </g>
    </g>
   </g>
  </g>
 </g>
 <defs>
  <clipPath id="p11a6df0f2f">
   <rect height="332.64" width="332.64" x="55.08" y="51.84"/>
  </clipPath>
 </defs>
</svg>
