<?xml version="1.0" encoding="utf-8" standalone="no"?>
<!DOCTYPE svg PUBLIC "-//W3C//DTD SVG 1.1//EN"
  "http://www.w3.org/Graphics/SVG/1.1/DTD/svg11.dtd">
<svg xmlns:xlink="http://www.w3.org/1999/xlink" width="576pt" height="360pt" viewBox="0 0 576 360" xmlns="http://www.w3.org/2000/svg" version="1.1">
 <metadata>
  <rdf:RDF xmlns:dc="http://purl.org/dc/elements/1.1/" xmlns:cc="http://creativecommons.org/ns#" xmlns:rdf="http://www.w3.org/1999/02/22-rdf-syntax-ns#">
   <cc:Work>
    <dc:type rdf:resource="http://purl.org/dc/dcmitype/StillImage"/>
    <dc:date>2025-03-06T08:24:41.028364</dc:date>
    <dc:format>image/svg+xml</dc:format>
    <dc:creator>
     <cc:Agent>
      <dc:title>Matplotlib v3.8.4, https://matplotlib.org/</dc:title>
     </cc:Agent>
    </dc:creator>
   </cc:Work>
  </rdf:RDF>
 </metadata>
 <defs>
  <style type="text/css">*{stroke-linejoin: round; stroke-linecap: butt}</style>
 </defs>
 <g id="figure_1">
  <g id="patch_1">
   <path d="M 0 360 
L 576 360 
L 576 0 
L 0 0 
z
" style="fill: #ffffff"/>
  </g>
  <g id="axes_1">
   <g id="patch_2">
    <path d="M 83.945 281.308712 
L 538.292731 281.308712 
L 538.292731 19.44 
L 83.945 19.44 
z
" style="fill: #ffffff"/>
   </g>
   <g id="matplotlib.axis_1">
    <g id="xtick_1">
     <g id="line2d_1">
      <defs>
       <path id="mcd58c694b1" d="M 0 0 
L 0 3.5 
" style="stroke: #000000; stroke-width: 0.8"/>
      </defs>
      <g>
       <use xlink:href="#mcd58c694b1" x="89.349928" y="281.308712" style="stroke: #000000; stroke-width: 0.8"/>
      </g>
     </g>
     <g id="text_1">
      <!-- Nov 2023 -->
      <g transform="translate(53.863314 335.453017) rotate(-25) scale(0.18 -0.18)">
       <defs>
        <path id="Montserrat-Regular-4e" d="M 730 0 
L 730 4480 
L 1120 4480 
L 4211 589 
L 4006 589 
L 4006 4480 
L 4474 4480 
L 4474 0 
L 4083 0 
L 998 3891 
L 1203 3891 
L 1203 0 
L 730 0 
z
" transform="scale(0.015625)"/>
        <path id="Montserrat-Regular-6f" d="M 2003 -32 
Q 1517 -32 1129 189 
Q 742 410 518 797 
Q 294 1184 294 1683 
Q 294 2189 518 2573 
Q 742 2957 1126 3174 
Q 1510 3392 2003 3392 
Q 2502 3392 2889 3174 
Q 3277 2957 3497 2573 
Q 3718 2189 3718 1683 
Q 3718 1184 3497 797 
Q 3277 410 2886 189 
Q 2496 -32 2003 -32 
z
M 2003 371 
Q 2368 371 2649 534 
Q 2931 698 3094 995 
Q 3258 1293 3258 1683 
Q 3258 2080 3094 2374 
Q 2931 2669 2649 2832 
Q 2368 2995 2010 2995 
Q 1651 2995 1369 2832 
Q 1088 2669 921 2374 
Q 755 2080 755 1683 
Q 755 1293 921 995 
Q 1088 698 1369 534 
Q 1651 371 2003 371 
z
" transform="scale(0.015625)"/>
        <path id="Montserrat-Regular-76" d="M 1498 0 
L 6 3360 
L 480 3360 
L 1850 243 
L 1626 243 
L 3014 3360 
L 3462 3360 
L 1965 0 
L 1498 0 
z
" transform="scale(0.015625)"/>
        <path id="Montserrat-Regular-20" transform="scale(0.015625)"/>
        <path id="Montserrat-Regular-32" d="M 250 0 
L 250 326 
L 2112 2150 
Q 2368 2400 2496 2589 
Q 2624 2778 2669 2944 
Q 2714 3110 2714 3258 
Q 2714 3648 2448 3872 
Q 2182 4096 1664 4096 
Q 1267 4096 963 3974 
Q 659 3853 442 3597 
L 115 3878 
Q 378 4186 787 4352 
Q 1197 4518 1702 4518 
Q 2157 4518 2489 4374 
Q 2822 4230 3004 3955 
Q 3187 3680 3187 3309 
Q 3187 3091 3126 2880 
Q 3066 2669 2909 2435 
Q 2752 2202 2451 1907 
L 742 230 
L 614 410 
L 3392 410 
L 3392 0 
L 250 0 
z
" transform="scale(0.015625)"/>
        <path id="Montserrat-Regular-30" d="M 2118 -38 
Q 1600 -38 1197 234 
Q 794 506 563 1014 
Q 333 1523 333 2240 
Q 333 2957 563 3465 
Q 794 3974 1197 4246 
Q 1600 4518 2118 4518 
Q 2637 4518 3040 4246 
Q 3443 3974 3676 3465 
Q 3910 2957 3910 2240 
Q 3910 1523 3676 1014 
Q 3443 506 3040 234 
Q 2637 -38 2118 -38 
z
M 2118 384 
Q 2515 384 2809 598 
Q 3104 813 3270 1225 
Q 3437 1638 3437 2240 
Q 3437 2842 3270 3254 
Q 3104 3667 2809 3881 
Q 2515 4096 2118 4096 
Q 1734 4096 1433 3881 
Q 1133 3667 966 3254 
Q 800 2842 800 2240 
Q 800 1638 966 1225 
Q 1133 813 1433 598 
Q 1734 384 2118 384 
z
" transform="scale(0.015625)"/>
        <path id="Montserrat-Regular-33" d="M 1670 -38 
Q 1184 -38 752 118 
Q 320 275 58 538 
L 282 902 
Q 499 678 867 531 
Q 1235 384 1670 384 
Q 2227 384 2524 627 
Q 2822 870 2822 1280 
Q 2822 1690 2531 1933 
Q 2240 2176 1613 2176 
L 1293 2176 
L 1293 2515 
L 2675 4250 
L 2739 4070 
L 243 4070 
L 243 4480 
L 3123 4480 
L 3123 4154 
L 1741 2419 
L 1517 2566 
L 1690 2566 
Q 2496 2566 2896 2208 
Q 3296 1850 3296 1286 
Q 3296 909 3117 608 
Q 2938 307 2576 134 
Q 2214 -38 1670 -38 
z
" transform="scale(0.015625)"/>
       </defs>
       <use xlink:href="#Montserrat-Regular-4e"/>
       <use xlink:href="#Montserrat-Regular-6f" x="81.299988"/>
       <use xlink:href="#Montserrat-Regular-76" x="143.999985"/>
       <use xlink:href="#Montserrat-Regular-20" x="198.199982"/>
       <use xlink:href="#Montserrat-Regular-32" x="224.399979"/>
       <use xlink:href="#Montserrat-Regular-30" x="281.199966"/>
       <use xlink:href="#Montserrat-Regular-32" x="347.399963"/>
       <use xlink:href="#Montserrat-Regular-33" x="404.199951"/>
      </g>
     </g>
    </g>
    <g id="xtick_2">
     <g id="line2d_2">
      <g>
       <use xlink:href="#mcd58c694b1" x="142.798636" y="281.308712" style="stroke: #000000; stroke-width: 0.8"/>
      </g>
     </g>
     <g id="text_2">
      <!-- Jan 2024 -->
      <g transform="translate(108.276816 334.553236) rotate(-25) scale(0.18 -0.18)">
       <defs>
        <path id="Montserrat-Regular-4a" d="M 1210 -38 
Q 832 -38 502 128 
Q 173 294 -26 602 
L 250 922 
Q 435 653 678 512 
Q 922 371 1216 371 
Q 2048 371 2048 1357 
L 2048 4070 
L 410 4070 
L 410 4480 
L 2515 4480 
L 2515 1376 
Q 2515 666 2185 314 
Q 1856 -38 1210 -38 
z
" transform="scale(0.015625)"/>
        <path id="Montserrat-Regular-61" d="M 2739 0 
L 2739 742 
L 2720 864 
L 2720 2106 
Q 2720 2534 2480 2764 
Q 2240 2995 1766 2995 
Q 1440 2995 1145 2886 
Q 851 2778 646 2598 
L 442 2938 
Q 698 3155 1056 3273 
Q 1414 3392 1811 3392 
Q 2464 3392 2819 3069 
Q 3174 2746 3174 2086 
L 3174 0 
L 2739 0 
z
M 1581 -32 
Q 1203 -32 924 93 
Q 646 218 499 438 
Q 352 659 352 947 
Q 352 1210 477 1424 
Q 602 1638 886 1769 
Q 1171 1901 1651 1901 
L 2810 1901 
L 2810 1562 
L 1664 1562 
Q 1178 1562 989 1389 
Q 800 1216 800 960 
Q 800 672 1024 499 
Q 1248 326 1651 326 
Q 2035 326 2313 502 
Q 2592 678 2720 1011 
L 2822 698 
Q 2694 365 2377 166 
Q 2061 -32 1581 -32 
z
" transform="scale(0.015625)"/>
        <path id="Montserrat-Regular-6e" d="M 2349 3392 
Q 2758 3392 3068 3235 
Q 3379 3078 3555 2758 
Q 3731 2438 3731 1952 
L 3731 0 
L 3277 0 
L 3277 1907 
Q 3277 2438 3011 2710 
Q 2746 2982 2266 2982 
Q 1907 2982 1641 2838 
Q 1376 2694 1232 2422 
Q 1088 2150 1088 1766 
L 1088 0 
L 634 0 
L 634 3360 
L 1069 3360 
L 1069 2438 
L 998 2611 
Q 1158 2976 1510 3184 
Q 1862 3392 2349 3392 
z
" transform="scale(0.015625)"/>
        <path id="Montserrat-Regular-34" d="M 256 1178 
L 256 1510 
L 2630 4480 
L 3142 4480 
L 787 1510 
L 538 1587 
L 4141 1587 
L 4141 1178 
L 256 1178 
z
M 2784 0 
L 2784 1178 
L 2797 1587 
L 2797 2624 
L 3245 2624 
L 3245 0 
L 2784 0 
z
" transform="scale(0.015625)"/>
       </defs>
       <use xlink:href="#Montserrat-Regular-4a"/>
       <use xlink:href="#Montserrat-Regular-61" x="50.099991"/>
       <use xlink:href="#Montserrat-Regular-6e" x="109.099976"/>
       <use xlink:href="#Montserrat-Regular-20" x="176.699966"/>
       <use xlink:href="#Montserrat-Regular-32" x="202.899963"/>
       <use xlink:href="#Montserrat-Regular-30" x="259.699951"/>
       <use xlink:href="#Montserrat-Regular-32" x="325.899948"/>
       <use xlink:href="#Montserrat-Regular-34" x="382.699936"/>
      </g>
     </g>
    </g>
    <g id="xtick_3">
     <g id="line2d_3">
      <g>
       <use xlink:href="#mcd58c694b1" x="195.371136" y="281.308712" style="stroke: #000000; stroke-width: 0.8"/>
      </g>
     </g>
     <g id="text_3">
      <!-- Mar 2024 -->
      <g transform="translate(159.388744 335.915388) rotate(-25) scale(0.18 -0.18)">
       <defs>
        <path id="Montserrat-Regular-4d" d="M 730 0 
L 730 4480 
L 1120 4480 
L 3168 986 
L 2963 986 
L 4992 4480 
L 5382 4480 
L 5382 0 
L 4928 0 
L 4928 3770 
L 5037 3770 
L 3168 570 
L 2944 570 
L 1062 3770 
L 1184 3770 
L 1184 0 
L 730 0 
z
" transform="scale(0.015625)"/>
        <path id="Montserrat-Regular-72" d="M 634 0 
L 634 3360 
L 1069 3360 
L 1069 2445 
L 1024 2605 
Q 1165 2989 1497 3190 
Q 1830 3392 2323 3392 
L 2323 2950 
Q 2298 2950 2272 2953 
Q 2246 2957 2221 2957 
Q 1690 2957 1389 2633 
Q 1088 2310 1088 1715 
L 1088 0 
L 634 0 
z
" transform="scale(0.015625)"/>
       </defs>
       <use xlink:href="#Montserrat-Regular-4d"/>
       <use xlink:href="#Montserrat-Regular-61" x="95.499985"/>
       <use xlink:href="#Montserrat-Regular-72" x="154.499969"/>
       <use xlink:href="#Montserrat-Regular-20" x="194.59996"/>
       <use xlink:href="#Montserrat-Regular-32" x="220.799957"/>
       <use xlink:href="#Montserrat-Regular-30" x="277.599945"/>
       <use xlink:href="#Montserrat-Regular-32" x="343.799942"/>
       <use xlink:href="#Montserrat-Regular-34" x="400.59993"/>
      </g>
     </g>
    </g>
    <g id="xtick_4">
     <g id="line2d_4">
      <g>
       <use xlink:href="#mcd58c694b1" x="248.819845" y="281.308712" style="stroke: #000000; stroke-width: 0.8"/>
      </g>
     </g>
     <g id="text_4">
      <!-- May 2024 -->
      <g transform="translate(211.648548 336.907138) rotate(-25) scale(0.18 -0.18)">
       <defs>
        <path id="Montserrat-Regular-79" d="M 659 -1274 
Q 422 -1274 208 -1197 
Q -6 -1120 -160 -966 
L 51 -627 
Q 179 -749 329 -816 
Q 480 -883 666 -883 
Q 890 -883 1053 -758 
Q 1216 -634 1363 -320 
L 1581 173 
L 1632 243 
L 3014 3360 
L 3462 3360 
L 1779 -403 
Q 1638 -730 1468 -922 
Q 1299 -1114 1100 -1194 
Q 902 -1274 659 -1274 
z
M 1555 -96 
L 6 3360 
L 480 3360 
L 1850 275 
L 1555 -96 
z
" transform="scale(0.015625)"/>
       </defs>
       <use xlink:href="#Montserrat-Regular-4d"/>
       <use xlink:href="#Montserrat-Regular-61" x="95.499985"/>
       <use xlink:href="#Montserrat-Regular-79" x="154.499969"/>
       <use xlink:href="#Montserrat-Regular-20" x="208.699966"/>
       <use xlink:href="#Montserrat-Regular-32" x="234.899963"/>
       <use xlink:href="#Montserrat-Regular-30" x="291.699951"/>
       <use xlink:href="#Montserrat-Regular-32" x="357.899948"/>
       <use xlink:href="#Montserrat-Regular-34" x="414.699936"/>
      </g>
     </g>
    </g>
    <g id="xtick_5">
     <g id="line2d_5">
      <g>
       <use xlink:href="#mcd58c694b1" x="302.268553" y="281.308712" style="stroke: #000000; stroke-width: 0.8"/>
      </g>
     </g>
     <g id="text_5">
      <!-- Jul 2024 -->
      <g transform="translate(270.396408 332.082108) rotate(-25) scale(0.18 -0.18)">
       <defs>
        <path id="Montserrat-Regular-75" d="M 2022 -32 
Q 1594 -32 1274 128 
Q 954 288 778 608 
Q 602 928 602 1408 
L 602 3360 
L 1056 3360 
L 1056 1459 
Q 1056 922 1321 650 
Q 1587 378 2067 378 
Q 2419 378 2678 522 
Q 2938 666 3075 941 
Q 3213 1216 3213 1600 
L 3213 3360 
L 3667 3360 
L 3667 0 
L 3232 0 
L 3232 922 
L 3302 755 
Q 3142 384 2806 176 
Q 2470 -32 2022 -32 
z
" transform="scale(0.015625)"/>
        <path id="Montserrat-Regular-6c" d="M 634 0 
L 634 4749 
L 1088 4749 
L 1088 0 
L 634 0 
z
" transform="scale(0.015625)"/>
       </defs>
       <use xlink:href="#Montserrat-Regular-4a"/>
       <use xlink:href="#Montserrat-Regular-75" x="50.099991"/>
       <use xlink:href="#Montserrat-Regular-6c" x="117.299988"/>
       <use xlink:href="#Montserrat-Regular-20" x="144.199982"/>
       <use xlink:href="#Montserrat-Regular-32" x="170.399979"/>
       <use xlink:href="#Montserrat-Regular-30" x="227.199966"/>
       <use xlink:href="#Montserrat-Regular-32" x="293.399963"/>
       <use xlink:href="#Montserrat-Regular-34" x="350.199951"/>
      </g>
     </g>
    </g>
    <g id="xtick_6">
     <g id="line2d_6">
      <g>
       <use xlink:href="#mcd58c694b1" x="356.59347" y="281.308712" style="stroke: #000000; stroke-width: 0.8"/>
      </g>
     </g>
     <g id="text_6">
      <!-- Sep 2024 -->
      <g transform="translate(321.009995 335.543352) rotate(-25) scale(0.18 -0.18)">
       <defs>
        <path id="Montserrat-Regular-53" d="M 1965 -38 
Q 1466 -38 1008 125 
Q 550 288 301 544 
L 486 909 
Q 723 678 1123 521 
Q 1523 365 1965 365 
Q 2387 365 2652 470 
Q 2918 576 3043 755 
Q 3168 934 3168 1152 
Q 3168 1414 3017 1574 
Q 2867 1734 2624 1827 
Q 2381 1920 2086 1990 
Q 1792 2061 1497 2141 
Q 1203 2221 956 2355 
Q 710 2490 560 2710 
Q 410 2931 410 3290 
Q 410 3622 586 3900 
Q 762 4179 1126 4348 
Q 1491 4518 2061 4518 
Q 2438 4518 2809 4412 
Q 3181 4307 3450 4122 
L 3290 3744 
Q 3002 3936 2678 4025 
Q 2355 4115 2054 4115 
Q 1651 4115 1388 4006 
Q 1126 3898 1001 3715 
Q 877 3533 877 3302 
Q 877 3040 1027 2880 
Q 1178 2720 1424 2630 
Q 1670 2541 1964 2470 
Q 2259 2400 2550 2317 
Q 2842 2234 3088 2102 
Q 3334 1971 3484 1753 
Q 3635 1536 3635 1184 
Q 3635 858 3456 579 
Q 3277 301 2909 131 
Q 2541 -38 1965 -38 
z
" transform="scale(0.015625)"/>
        <path id="Montserrat-Regular-65" d="M 2061 -32 
Q 1536 -32 1139 189 
Q 742 410 518 797 
Q 294 1184 294 1683 
Q 294 2182 508 2566 
Q 723 2950 1097 3171 
Q 1472 3392 1939 3392 
Q 2413 3392 2781 3177 
Q 3149 2963 3360 2576 
Q 3571 2189 3571 1683 
Q 3571 1651 3568 1616 
Q 3565 1581 3565 1542 
L 640 1542 
L 640 1882 
L 3322 1882 
L 3142 1747 
Q 3142 2112 2985 2397 
Q 2829 2682 2560 2842 
Q 2291 3002 1939 3002 
Q 1594 3002 1318 2842 
Q 1043 2682 889 2394 
Q 736 2106 736 1734 
L 736 1664 
Q 736 1280 905 989 
Q 1075 698 1379 534 
Q 1683 371 2074 371 
Q 2381 371 2646 480 
Q 2912 589 3104 813 
L 3360 518 
Q 3136 250 2800 109 
Q 2464 -32 2061 -32 
z
" transform="scale(0.015625)"/>
        <path id="Montserrat-Regular-70" d="M 2368 -32 
Q 1933 -32 1581 169 
Q 1229 371 1021 752 
Q 813 1133 813 1683 
Q 813 2234 1017 2614 
Q 1222 2995 1574 3193 
Q 1926 3392 2368 3392 
Q 2848 3392 3229 3177 
Q 3610 2963 3827 2576 
Q 4045 2189 4045 1683 
Q 4045 1171 3827 787 
Q 3610 403 3229 185 
Q 2848 -32 2368 -32 
z
M 634 -1242 
L 634 3360 
L 1069 3360 
L 1069 2349 
L 1024 1677 
L 1088 998 
L 1088 -1242 
L 634 -1242 
z
M 2336 371 
Q 2694 371 2976 534 
Q 3258 698 3424 995 
Q 3590 1293 3590 1683 
Q 3590 2074 3424 2368 
Q 3258 2662 2976 2828 
Q 2694 2995 2336 2995 
Q 1978 2995 1693 2828 
Q 1408 2662 1245 2368 
Q 1082 2074 1082 1683 
Q 1082 1293 1245 995 
Q 1408 698 1693 534 
Q 1978 371 2336 371 
z
" transform="scale(0.015625)"/>
       </defs>
       <use xlink:href="#Montserrat-Regular-53"/>
       <use xlink:href="#Montserrat-Regular-65" x="61.499985"/>
       <use xlink:href="#Montserrat-Regular-70" x="121.899979"/>
       <use xlink:href="#Montserrat-Regular-20" x="189.699966"/>
       <use xlink:href="#Montserrat-Regular-32" x="215.899963"/>
       <use xlink:href="#Montserrat-Regular-30" x="272.699951"/>
       <use xlink:href="#Montserrat-Regular-32" x="338.899948"/>
       <use xlink:href="#Montserrat-Regular-34" x="395.699936"/>
      </g>
     </g>
    </g>
    <g id="xtick_7">
     <g id="line2d_7">
      <g>
       <use xlink:href="#mcd58c694b1" x="410.042178" y="281.308712" style="stroke: #000000; stroke-width: 0.8"/>
      </g>
     </g>
     <g id="text_7">
      <!-- Nov 2024 -->
      <g transform="translate(373.765378 336.189958) rotate(-25) scale(0.18 -0.18)">
       <use xlink:href="#Montserrat-Regular-4e"/>
       <use xlink:href="#Montserrat-Regular-6f" x="81.299988"/>
       <use xlink:href="#Montserrat-Regular-76" x="143.999985"/>
       <use xlink:href="#Montserrat-Regular-20" x="198.199982"/>
       <use xlink:href="#Montserrat-Regular-32" x="224.399979"/>
       <use xlink:href="#Montserrat-Regular-30" x="281.199966"/>
       <use xlink:href="#Montserrat-Regular-32" x="347.399963"/>
       <use xlink:href="#Montserrat-Regular-34" x="404.199951"/>
      </g>
     </g>
    </g>
    <g id="xtick_8">
     <g id="line2d_8">
      <g>
       <use xlink:href="#mcd58c694b1" x="463.490887" y="281.308712" style="stroke: #000000; stroke-width: 0.8"/>
      </g>
     </g>
     <g id="text_8">
      <!-- Jan 2025 -->
      <g transform="translate(429.74396 333.830559) rotate(-25) scale(0.18 -0.18)">
       <defs>
        <path id="Montserrat-Regular-35" d="M 1747 -38 
Q 1267 -38 832 118 
Q 397 275 141 538 
L 365 902 
Q 576 678 944 531 
Q 1312 384 1741 384 
Q 2310 384 2608 637 
Q 2906 890 2906 1299 
Q 2906 1587 2768 1795 
Q 2630 2003 2304 2118 
Q 1978 2234 1408 2234 
L 454 2234 
L 685 4480 
L 3136 4480 
L 3136 4070 
L 870 4070 
L 1107 4294 
L 909 2413 
L 672 2643 
L 1510 2643 
Q 2189 2643 2598 2476 
Q 3008 2310 3190 2012 
Q 3373 1715 3373 1318 
Q 3373 941 3193 630 
Q 3014 320 2656 141 
Q 2298 -38 1747 -38 
z
" transform="scale(0.015625)"/>
       </defs>
       <use xlink:href="#Montserrat-Regular-4a"/>
       <use xlink:href="#Montserrat-Regular-61" x="50.099991"/>
       <use xlink:href="#Montserrat-Regular-6e" x="109.099976"/>
       <use xlink:href="#Montserrat-Regular-20" x="176.699966"/>
       <use xlink:href="#Montserrat-Regular-32" x="202.899963"/>
       <use xlink:href="#Montserrat-Regular-30" x="259.699951"/>
       <use xlink:href="#Montserrat-Regular-32" x="325.899948"/>
       <use xlink:href="#Montserrat-Regular-35" x="382.699936"/>
      </g>
     </g>
    </g>
    <g id="xtick_9">
     <g id="line2d_9">
      <g>
       <use xlink:href="#mcd58c694b1" x="515.187178" y="281.308712" style="stroke: #000000; stroke-width: 0.8"/>
      </g>
     </g>
     <g id="text_9">
      <!-- Mar 2025 -->
      <g transform="translate(479.97968 335.192711) rotate(-25) scale(0.18 -0.18)">
       <use xlink:href="#Montserrat-Regular-4d"/>
       <use xlink:href="#Montserrat-Regular-61" x="95.499985"/>
       <use xlink:href="#Montserrat-Regular-72" x="154.499969"/>
       <use xlink:href="#Montserrat-Regular-20" x="194.59996"/>
       <use xlink:href="#Montserrat-Regular-32" x="220.799957"/>
       <use xlink:href="#Montserrat-Regular-30" x="277.599945"/>
       <use xlink:href="#Montserrat-Regular-32" x="343.799942"/>
       <use xlink:href="#Montserrat-Regular-35" x="400.59993"/>
      </g>
     </g>
    </g>
   </g>
   <g id="matplotlib.axis_2">
    <g id="ytick_1">
     <g id="line2d_10">
      <defs>
       <path id="m927fe8b6b6" d="M 0 0 
L -3.5 0 
" style="stroke: #000000; stroke-width: 0.8"/>
      </defs>
      <g>
       <use xlink:href="#m927fe8b6b6" x="83.945" y="259.055047" style="stroke: #000000; stroke-width: 0.8"/>
      </g>
     </g>
     <g id="text_10">
      <!-- −1.5 -->
      <g transform="translate(46.094688 265.733328) scale(0.18 -0.18)">
       <defs>
        <path id="Montserrat-Regular-2212" d="M 448 2048 
L 448 2426 
L 3232 2426 
L 3232 2048 
L 448 2048 
z
" transform="scale(0.015625)"/>
        <path id="Montserrat-Regular-31" d="M 1114 0 
L 1114 4288 
L 1318 4070 
L 58 4070 
L 58 4480 
L 1574 4480 
L 1574 0 
L 1114 0 
z
" transform="scale(0.015625)"/>
        <path id="Montserrat-Regular-2e" d="M 678 -32 
Q 538 -32 438 70 
Q 339 173 339 320 
Q 339 474 438 570 
Q 538 666 678 666 
Q 819 666 918 570 
Q 1018 474 1018 320 
Q 1018 173 918 70 
Q 819 -32 678 -32 
z
" transform="scale(0.015625)"/>
       </defs>
       <use xlink:href="#Montserrat-Regular-2212"/>
       <use xlink:href="#Montserrat-Regular-31" x="57.499985"/>
       <use xlink:href="#Montserrat-Regular-2e" x="93.599976"/>
       <use xlink:href="#Montserrat-Regular-35" x="114.799973"/>
      </g>
     </g>
    </g>
    <g id="ytick_2">
     <g id="line2d_11">
      <g>
       <use xlink:href="#m927fe8b6b6" x="83.945" y="207.302337" style="stroke: #000000; stroke-width: 0.8"/>
      </g>
     </g>
     <g id="text_11">
      <!-- −1.0 -->
      <g transform="translate(44.365 213.980618) scale(0.18 -0.18)">
       <use xlink:href="#Montserrat-Regular-2212"/>
       <use xlink:href="#Montserrat-Regular-31" x="57.499985"/>
       <use xlink:href="#Montserrat-Regular-2e" x="93.599976"/>
       <use xlink:href="#Montserrat-Regular-30" x="114.799973"/>
      </g>
     </g>
    </g>
    <g id="ytick_3">
     <g id="line2d_12">
      <g>
       <use xlink:href="#m927fe8b6b6" x="83.945" y="155.549627" style="stroke: #000000; stroke-width: 0.8"/>
      </g>
     </g>
     <g id="text_12">
      <!-- −0.5 -->
      <g transform="translate(40.675 162.227908) scale(0.18 -0.18)">
       <use xlink:href="#Montserrat-Regular-2212"/>
       <use xlink:href="#Montserrat-Regular-30" x="57.499985"/>
       <use xlink:href="#Montserrat-Regular-2e" x="123.699982"/>
       <use xlink:href="#Montserrat-Regular-35" x="144.899979"/>
      </g>
     </g>
    </g>
    <g id="ytick_4">
     <g id="line2d_13">
      <g>
       <use xlink:href="#m927fe8b6b6" x="83.945" y="103.796917" style="stroke: #000000; stroke-width: 0.8"/>
      </g>
     </g>
     <g id="text_13">
      <!-- 0.0 -->
      <g transform="translate(49.295313 110.475198) scale(0.18 -0.18)">
       <use xlink:href="#Montserrat-Regular-30"/>
       <use xlink:href="#Montserrat-Regular-2e" x="66.199997"/>
       <use xlink:href="#Montserrat-Regular-30" x="87.399994"/>
      </g>
     </g>
    </g>
    <g id="ytick_5">
     <g id="line2d_14">
      <g>
       <use xlink:href="#m927fe8b6b6" x="83.945" y="52.044207" style="stroke: #000000; stroke-width: 0.8"/>
      </g>
     </g>
     <g id="text_14">
      <!-- 0.5 -->
      <g transform="translate(51.025 58.722489) scale(0.18 -0.18)">
       <use xlink:href="#Montserrat-Regular-30"/>
       <use xlink:href="#Montserrat-Regular-2e" x="66.199997"/>
       <use xlink:href="#Montserrat-Regular-35" x="87.399994"/>
      </g>
     </g>
    </g>
    <g id="text_15">
     <!-- Δ Stress -->
     <g transform="translate(33.181875 186.202794) rotate(-90) scale(0.18 -0.18)">
      <defs>
       <path id="Montserrat-Regular-394" d="M 2528 4480 
L 4576 0 
L 13 0 
L 2061 4480 
L 2528 4480 
z
M 582 186 
L 442 410 
L 4134 410 
L 3994 186 
L 2195 4205 
L 2387 4205 
L 582 186 
z
" transform="scale(0.015625)"/>
       <path id="Montserrat-Regular-74" d="M 1696 -32 
Q 1222 -32 966 224 
Q 710 480 710 947 
L 710 4102 
L 1165 4102 
L 1165 973 
Q 1165 678 1315 518 
Q 1466 358 1747 358 
Q 2048 358 2246 531 
L 2406 205 
Q 2272 83 2083 25 
Q 1894 -32 1696 -32 
z
M 109 2982 
L 109 3360 
L 2189 3360 
L 2189 2982 
L 109 2982 
z
" transform="scale(0.015625)"/>
       <path id="Montserrat-Regular-73" d="M 1536 -32 
Q 1120 -32 749 86 
Q 378 205 166 384 
L 371 742 
Q 576 589 896 477 
Q 1216 365 1568 365 
Q 2048 365 2259 515 
Q 2470 666 2470 915 
Q 2470 1101 2352 1206 
Q 2234 1312 2042 1366 
Q 1850 1421 1613 1459 
Q 1376 1498 1142 1549 
Q 909 1600 717 1699 
Q 525 1798 406 1971 
Q 288 2144 288 2432 
Q 288 2707 441 2924 
Q 595 3142 892 3267 
Q 1190 3392 1619 3392 
Q 1946 3392 2272 3305 
Q 2598 3219 2810 3078 
L 2611 2714 
Q 2387 2867 2131 2934 
Q 1875 3002 1619 3002 
Q 1165 3002 950 2845 
Q 736 2688 736 2445 
Q 736 2253 854 2144 
Q 973 2035 1168 1974 
Q 1363 1914 1596 1875 
Q 1830 1837 2064 1782 
Q 2298 1728 2493 1635 
Q 2688 1542 2806 1372 
Q 2925 1203 2925 928 
Q 2925 634 2761 419 
Q 2598 205 2288 86 
Q 1978 -32 1536 -32 
z
" transform="scale(0.015625)"/>
      </defs>
      <use xlink:href="#Montserrat-Regular-394"/>
      <use xlink:href="#Montserrat-Regular-20" x="71.699982"/>
      <use xlink:href="#Montserrat-Regular-53" x="97.899979"/>
      <use xlink:href="#Montserrat-Regular-74" x="159.399963"/>
      <use xlink:href="#Montserrat-Regular-72" x="199.999954"/>
      <use xlink:href="#Montserrat-Regular-65" x="240.099945"/>
      <use xlink:href="#Montserrat-Regular-73" x="300.499939"/>
      <use xlink:href="#Montserrat-Regular-73" x="349.299927"/>
     </g>
    </g>
   </g>
   <g id="line2d_15">
    <path d="M 104.59717 103.796917 
L 517.640562 103.796917 
" clip-path="url(#p2ba1a91d75)" style="fill: none; stroke: #000000; stroke-width: 0.5; stroke-linecap: square"/>
   </g>
   <g id="line2d_16">
    <defs>
     <path id="m4f14c0491b" d="M 0 2 
C 0.530406 2 1.03916 1.789267 1.414214 1.414214 
C 1.789267 1.03916 2 0.530406 2 0 
C 2 -0.530406 1.789267 -1.03916 1.414214 -1.414214 
C 1.03916 -1.789267 0.530406 -2 0 -2 
C -0.530406 -2 -1.03916 -1.789267 -1.414214 -1.414214 
C -1.789267 -1.03916 -2 -0.530406 -2 0 
C -2 0.530406 -1.789267 1.03916 -1.414214 1.414214 
C -1.03916 1.789267 -0.530406 2 0 2 
z
" style="stroke: #000000; stroke-opacity: 0"/>
    </defs>
    <g clip-path="url(#p2ba1a91d75)">
     <use xlink:href="#m4f14c0491b" x="104.59717" y="238.353963" style="fill: #1f77b4; fill-opacity: 0.7; stroke: #000000; stroke-opacity: 0"/>
     <use xlink:href="#m4f14c0491b" x="105.474595" y="93.446375" style="fill: #1f77b4; fill-opacity: 0.7; stroke: #000000; stroke-opacity: 0"/>
     <use xlink:href="#m4f14c0491b" x="105.54457" y="134.848543" style="fill: #1f77b4; fill-opacity: 0.7; stroke: #000000; stroke-opacity: 0"/>
     <use xlink:href="#m4f14c0491b" x="106.275352" y="165.900169" style="fill: #1f77b4; fill-opacity: 0.7; stroke: #000000; stroke-opacity: 0"/>
     <use xlink:href="#m4f14c0491b" x="111.608053" y="165.900169" style="fill: #1f77b4; fill-opacity: 0.7; stroke: #000000; stroke-opacity: 0"/>
     <use xlink:href="#m4f14c0491b" x="112.916281" y="145.199085" style="fill: #1f77b4; fill-opacity: 0.7; stroke: #000000; stroke-opacity: 0"/>
     <use xlink:href="#m4f14c0491b" x="113.323961" y="83.095833" style="fill: #1f77b4; fill-opacity: 0.7; stroke: #000000; stroke-opacity: 0"/>
     <use xlink:href="#m4f14c0491b" x="116.855568" y="114.147459" style="fill: #1f77b4; fill-opacity: 0.7; stroke: #000000; stroke-opacity: 0"/>
     <use xlink:href="#m4f14c0491b" x="134.429021" y="186.601253" style="fill: #1f77b4; fill-opacity: 0.7; stroke: #000000; stroke-opacity: 0"/>
     <use xlink:href="#m4f14c0491b" x="139.853602" y="269.405589" style="fill: #1f77b4; fill-opacity: 0.7; stroke: #000000; stroke-opacity: 0"/>
     <use xlink:href="#m4f14c0491b" x="141.414957" y="207.302337" style="fill: #1f77b4; fill-opacity: 0.7; stroke: #000000; stroke-opacity: 0"/>
     <use xlink:href="#m4f14c0491b" x="147.599528" y="145.199085" style="fill: #1f77b4; fill-opacity: 0.7; stroke: #000000; stroke-opacity: 0"/>
     <use xlink:href="#m4f14c0491b" x="148.464783" y="165.900169" style="fill: #1f77b4; fill-opacity: 0.7; stroke: #000000; stroke-opacity: 0"/>
     <use xlink:href="#m4f14c0491b" x="155.552335" y="72.745291" style="fill: #1f77b4; fill-opacity: 0.7; stroke: #000000; stroke-opacity: 0"/>
     <use xlink:href="#m4f14c0491b" x="172.92134" y="155.549627" style="fill: #1f77b4; fill-opacity: 0.7; stroke: #000000; stroke-opacity: 0"/>
     <use xlink:href="#m4f14c0491b" x="193.072915" y="186.601253" style="fill: #1f77b4; fill-opacity: 0.7; stroke: #000000; stroke-opacity: 0"/>
     <use xlink:href="#m4f14c0491b" x="198.375192" y="176.250711" style="fill: #1f77b4; fill-opacity: 0.7; stroke: #000000; stroke-opacity: 0"/>
     <use xlink:href="#m4f14c0491b" x="203.539345" y="228.003421" style="fill: #1f77b4; fill-opacity: 0.7; stroke: #000000; stroke-opacity: 0"/>
     <use xlink:href="#m4f14c0491b" x="210.119426" y="186.601253" style="fill: #1f77b4; fill-opacity: 0.7; stroke: #000000; stroke-opacity: 0"/>
     <use xlink:href="#m4f14c0491b" x="210.528932" y="103.796917" style="fill: #1f77b4; fill-opacity: 0.7; stroke: #000000; stroke-opacity: 0"/>
     <use xlink:href="#m4f14c0491b" x="226.354836" y="196.951795" style="fill: #1f77b4; fill-opacity: 0.7; stroke: #000000; stroke-opacity: 0"/>
     <use xlink:href="#m4f14c0491b" x="242.97663" y="124.498001" style="fill: #1f77b4; fill-opacity: 0.7; stroke: #000000; stroke-opacity: 0"/>
     <use xlink:href="#m4f14c0491b" x="246.643927" y="114.147459" style="fill: #1f77b4; fill-opacity: 0.7; stroke: #000000; stroke-opacity: 0"/>
     <use xlink:href="#m4f14c0491b" x="294.082698" y="165.900169" style="fill: #1f77b4; fill-opacity: 0.7; stroke: #000000; stroke-opacity: 0"/>
     <use xlink:href="#m4f14c0491b" x="309.593411" y="155.549627" style="fill: #1f77b4; fill-opacity: 0.7; stroke: #000000; stroke-opacity: 0"/>
     <use xlink:href="#m4f14c0491b" x="316.989462" y="165.900169" style="fill: #1f77b4; fill-opacity: 0.7; stroke: #000000; stroke-opacity: 0"/>
     <use xlink:href="#m4f14c0491b" x="328.204928" y="145.199085" style="fill: #1f77b4; fill-opacity: 0.7; stroke: #000000; stroke-opacity: 0"/>
     <use xlink:href="#m4f14c0491b" x="333.265031" y="145.199085" style="fill: #1f77b4; fill-opacity: 0.7; stroke: #000000; stroke-opacity: 0"/>
     <use xlink:href="#m4f14c0491b" x="400.852335" y="93.446375" style="fill: #1f77b4; fill-opacity: 0.7; stroke: #000000; stroke-opacity: 0"/>
     <use xlink:href="#m4f14c0491b" x="419.402395" y="207.302337" style="fill: #1f77b4; fill-opacity: 0.7; stroke: #000000; stroke-opacity: 0"/>
     <use xlink:href="#m4f14c0491b" x="420.063811" y="207.302337" style="fill: #1f77b4; fill-opacity: 0.7; stroke: #000000; stroke-opacity: 0"/>
     <use xlink:href="#m4f14c0491b" x="423.580814" y="124.498001" style="fill: #1f77b4; fill-opacity: 0.7; stroke: #000000; stroke-opacity: 0"/>
     <use xlink:href="#m4f14c0491b" x="428.177865" y="134.848543" style="fill: #1f77b4; fill-opacity: 0.7; stroke: #000000; stroke-opacity: 0"/>
     <use xlink:href="#m4f14c0491b" x="454.169612" y="155.549627" style="fill: #1f77b4; fill-opacity: 0.7; stroke: #000000; stroke-opacity: 0"/>
     <use xlink:href="#m4f14c0491b" x="465.632729" y="124.498001" style="fill: #1f77b4; fill-opacity: 0.7; stroke: #000000; stroke-opacity: 0"/>
     <use xlink:href="#m4f14c0491b" x="467.383321" y="124.498001" style="fill: #1f77b4; fill-opacity: 0.7; stroke: #000000; stroke-opacity: 0"/>
     <use xlink:href="#m4f14c0491b" x="468.290561" y="93.446375" style="fill: #1f77b4; fill-opacity: 0.7; stroke: #000000; stroke-opacity: 0"/>
     <use xlink:href="#m4f14c0491b" x="469.292116" y="83.095833" style="fill: #1f77b4; fill-opacity: 0.7; stroke: #000000; stroke-opacity: 0"/>
     <use xlink:href="#m4f14c0491b" x="469.875646" y="124.498001" style="fill: #1f77b4; fill-opacity: 0.7; stroke: #000000; stroke-opacity: 0"/>
     <use xlink:href="#m4f14c0491b" x="470.812703" y="114.147459" style="fill: #1f77b4; fill-opacity: 0.7; stroke: #000000; stroke-opacity: 0"/>
     <use xlink:href="#m4f14c0491b" x="476.108895" y="124.498001" style="fill: #1f77b4; fill-opacity: 0.7; stroke: #000000; stroke-opacity: 0"/>
     <use xlink:href="#m4f14c0491b" x="476.232416" y="72.745291" style="fill: #1f77b4; fill-opacity: 0.7; stroke: #000000; stroke-opacity: 0"/>
     <use xlink:href="#m4f14c0491b" x="479.691614" y="72.745291" style="fill: #1f77b4; fill-opacity: 0.7; stroke: #000000; stroke-opacity: 0"/>
     <use xlink:href="#m4f14c0491b" x="483.967997" y="114.147459" style="fill: #1f77b4; fill-opacity: 0.7; stroke: #000000; stroke-opacity: 0"/>
     <use xlink:href="#m4f14c0491b" x="485.075427" y="114.147459" style="fill: #1f77b4; fill-opacity: 0.7; stroke: #000000; stroke-opacity: 0"/>
     <use xlink:href="#m4f14c0491b" x="485.113761" y="114.147459" style="fill: #1f77b4; fill-opacity: 0.7; stroke: #000000; stroke-opacity: 0"/>
     <use xlink:href="#m4f14c0491b" x="485.707027" y="114.147459" style="fill: #1f77b4; fill-opacity: 0.7; stroke: #000000; stroke-opacity: 0"/>
     <use xlink:href="#m4f14c0491b" x="486.054468" y="124.498001" style="fill: #1f77b4; fill-opacity: 0.7; stroke: #000000; stroke-opacity: 0"/>
     <use xlink:href="#m4f14c0491b" x="486.960492" y="134.848543" style="fill: #1f77b4; fill-opacity: 0.7; stroke: #000000; stroke-opacity: 0"/>
     <use xlink:href="#m4f14c0491b" x="487.43693" y="103.796917" style="fill: #1f77b4; fill-opacity: 0.7; stroke: #000000; stroke-opacity: 0"/>
     <use xlink:href="#m4f14c0491b" x="488.434226" y="103.796917" style="fill: #1f77b4; fill-opacity: 0.7; stroke: #000000; stroke-opacity: 0"/>
     <use xlink:href="#m4f14c0491b" x="491.092058" y="124.498001" style="fill: #1f77b4; fill-opacity: 0.7; stroke: #000000; stroke-opacity: 0"/>
     <use xlink:href="#m4f14c0491b" x="491.9348" y="134.848543" style="fill: #1f77b4; fill-opacity: 0.7; stroke: #000000; stroke-opacity: 0"/>
     <use xlink:href="#m4f14c0491b" x="492.117952" y="124.498001" style="fill: #1f77b4; fill-opacity: 0.7; stroke: #000000; stroke-opacity: 0"/>
     <use xlink:href="#m4f14c0491b" x="493.031886" y="103.796917" style="fill: #1f77b4; fill-opacity: 0.7; stroke: #000000; stroke-opacity: 0"/>
     <use xlink:href="#m4f14c0491b" x="493.659835" y="114.147459" style="fill: #1f77b4; fill-opacity: 0.7; stroke: #000000; stroke-opacity: 0"/>
     <use xlink:href="#m4f14c0491b" x="494.576203" y="103.796917" style="fill: #1f77b4; fill-opacity: 0.7; stroke: #000000; stroke-opacity: 0"/>
     <use xlink:href="#m4f14c0491b" x="496.396161" y="114.147459" style="fill: #1f77b4; fill-opacity: 0.7; stroke: #000000; stroke-opacity: 0"/>
     <use xlink:href="#m4f14c0491b" x="498.011061" y="93.446375" style="fill: #1f77b4; fill-opacity: 0.7; stroke: #000000; stroke-opacity: 0"/>
     <use xlink:href="#m4f14c0491b" x="499.72271" y="124.498001" style="fill: #1f77b4; fill-opacity: 0.7; stroke: #000000; stroke-opacity: 0"/>
     <use xlink:href="#m4f14c0491b" x="502.382976" y="103.796917" style="fill: #1f77b4; fill-opacity: 0.7; stroke: #000000; stroke-opacity: 0"/>
     <use xlink:href="#m4f14c0491b" x="505.111391" y="124.498001" style="fill: #1f77b4; fill-opacity: 0.7; stroke: #000000; stroke-opacity: 0"/>
     <use xlink:href="#m4f14c0491b" x="510.354646" y="103.796917" style="fill: #1f77b4; fill-opacity: 0.7; stroke: #000000; stroke-opacity: 0"/>
     <use xlink:href="#m4f14c0491b" x="511.407313" y="114.147459" style="fill: #1f77b4; fill-opacity: 0.7; stroke: #000000; stroke-opacity: 0"/>
     <use xlink:href="#m4f14c0491b" x="511.974415" y="124.498001" style="fill: #1f77b4; fill-opacity: 0.7; stroke: #000000; stroke-opacity: 0"/>
     <use xlink:href="#m4f14c0491b" x="512.020659" y="114.147459" style="fill: #1f77b4; fill-opacity: 0.7; stroke: #000000; stroke-opacity: 0"/>
     <use xlink:href="#m4f14c0491b" x="512.990573" y="114.147459" style="fill: #1f77b4; fill-opacity: 0.7; stroke: #000000; stroke-opacity: 0"/>
     <use xlink:href="#m4f14c0491b" x="514.593912" y="124.498001" style="fill: #1f77b4; fill-opacity: 0.7; stroke: #000000; stroke-opacity: 0"/>
     <use xlink:href="#m4f14c0491b" x="517.604053" y="114.147459" style="fill: #1f77b4; fill-opacity: 0.7; stroke: #000000; stroke-opacity: 0"/>
    </g>
   </g>
   <g id="line2d_17">
    <defs>
     <path id="mab398aea8f" d="M 0 2 
C 0.530406 2 1.03916 1.789267 1.414214 1.414214 
C 1.789267 1.03916 2 0.530406 2 0 
C 2 -0.530406 1.789267 -1.03916 1.414214 -1.414214 
C 1.03916 -1.789267 0.530406 -2 0 -2 
C -0.530406 -2 -1.03916 -1.789267 -1.414214 -1.414214 
C -1.789267 -1.03916 -2 -0.530406 -2 0 
C -2 0.530406 -1.789267 1.03916 -1.414214 1.414214 
C -1.03916 1.789267 -0.530406 2 0 2 
z
" style="stroke: #000000; stroke-opacity: 0"/>
    </defs>
    <g clip-path="url(#p2ba1a91d75)">
     <use xlink:href="#mab398aea8f" x="107.21545" y="176.250711" style="fill: #ff7f0e; fill-opacity: 0.7; stroke: #000000; stroke-opacity: 0"/>
     <use xlink:href="#mab398aea8f" x="110.691077" y="145.199085" style="fill: #ff7f0e; fill-opacity: 0.7; stroke: #000000; stroke-opacity: 0"/>
     <use xlink:href="#mab398aea8f" x="110.750708" y="145.199085" style="fill: #ff7f0e; fill-opacity: 0.7; stroke: #000000; stroke-opacity: 0"/>
     <use xlink:href="#mab398aea8f" x="111.656731" y="145.199085" style="fill: #ff7f0e; fill-opacity: 0.7; stroke: #000000; stroke-opacity: 0"/>
     <use xlink:href="#mab398aea8f" x="131.664705" y="186.601253" style="fill: #ff7f0e; fill-opacity: 0.7; stroke: #000000; stroke-opacity: 0"/>
     <use xlink:href="#mab398aea8f" x="234.341719" y="176.250711" style="fill: #ff7f0e; fill-opacity: 0.7; stroke: #000000; stroke-opacity: 0"/>
     <use xlink:href="#mab398aea8f" x="243.995831" y="186.601253" style="fill: #ff7f0e; fill-opacity: 0.7; stroke: #000000; stroke-opacity: 0"/>
     <use xlink:href="#mab398aea8f" x="325.372463" y="155.549627" style="fill: #ff7f0e; fill-opacity: 0.7; stroke: #000000; stroke-opacity: 0"/>
     <use xlink:href="#mab398aea8f" x="400.807307" y="114.147459" style="fill: #ff7f0e; fill-opacity: 0.7; stroke: #000000; stroke-opacity: 0"/>
     <use xlink:href="#mab398aea8f" x="455.215586" y="165.900169" style="fill: #ff7f0e; fill-opacity: 0.7; stroke: #000000; stroke-opacity: 0"/>
     <use xlink:href="#mab398aea8f" x="455.970098" y="134.848543" style="fill: #ff7f0e; fill-opacity: 0.7; stroke: #000000; stroke-opacity: 0"/>
     <use xlink:href="#mab398aea8f" x="465.596221" y="186.601253" style="fill: #ff7f0e; fill-opacity: 0.7; stroke: #000000; stroke-opacity: 0"/>
     <use xlink:href="#mab398aea8f" x="467.342553" y="62.394749" style="fill: #ff7f0e; fill-opacity: 0.7; stroke: #000000; stroke-opacity: 0"/>
     <use xlink:href="#mab398aea8f" x="469.458839" y="124.498001" style="fill: #ff7f0e; fill-opacity: 0.7; stroke: #000000; stroke-opacity: 0"/>
     <use xlink:href="#mab398aea8f" x="470.84982" y="114.147459" style="fill: #ff7f0e; fill-opacity: 0.7; stroke: #000000; stroke-opacity: 0"/>
     <use xlink:href="#mab398aea8f" x="474.668019" y="124.498001" style="fill: #ff7f0e; fill-opacity: 0.7; stroke: #000000; stroke-opacity: 0"/>
     <use xlink:href="#mab398aea8f" x="479.653888" y="134.848543" style="fill: #ff7f0e; fill-opacity: 0.7; stroke: #000000; stroke-opacity: 0"/>
     <use xlink:href="#mab398aea8f" x="480.545308" y="114.147459" style="fill: #ff7f0e; fill-opacity: 0.7; stroke: #000000; stroke-opacity: 0"/>
     <use xlink:href="#mab398aea8f" x="487.833658" y="124.498001" style="fill: #ff7f0e; fill-opacity: 0.7; stroke: #000000; stroke-opacity: 0"/>
     <use xlink:href="#mab398aea8f" x="496.359652" y="124.498001" style="fill: #ff7f0e; fill-opacity: 0.7; stroke: #000000; stroke-opacity: 0"/>
     <use xlink:href="#mab398aea8f" x="505.073057" y="114.147459" style="fill: #ff7f0e; fill-opacity: 0.7; stroke: #000000; stroke-opacity: 0"/>
     <use xlink:href="#mab398aea8f" x="507.761921" y="114.147459" style="fill: #ff7f0e; fill-opacity: 0.7; stroke: #000000; stroke-opacity: 0"/>
     <use xlink:href="#mab398aea8f" x="510.317529" y="93.446375" style="fill: #ff7f0e; fill-opacity: 0.7; stroke: #000000; stroke-opacity: 0"/>
     <use xlink:href="#mab398aea8f" x="514.930401" y="134.848543" style="fill: #ff7f0e; fill-opacity: 0.7; stroke: #000000; stroke-opacity: 0"/>
    </g>
   </g>
   <g id="line2d_18">
    <path d="M 465.243303 259.055047 
L 465.243303 31.343123 
" clip-path="url(#p2ba1a91d75)" style="fill: none; stroke-dasharray: 1,1.65; stroke-dashoffset: 0; stroke: #000000; stroke-opacity: 0.5"/>
   </g>
   <g id="text_16">
    <!-- (take if stressed) -->
    <g transform="translate(379.381012 248.704505) scale(0.1 -0.1)">
     <defs>
      <path id="Montserrat-Regular-28" d="M 1408 -1242 
Q 1056 -659 861 105 
Q 666 870 666 1754 
Q 666 2637 861 3408 
Q 1056 4179 1408 4749 
L 1843 4749 
Q 1466 4090 1290 3350 
Q 1114 2611 1114 1754 
Q 1114 896 1290 157 
Q 1466 -582 1843 -1242 
L 1408 -1242 
z
" transform="scale(0.015625)"/>
      <path id="Montserrat-Regular-6b" d="M 992 870 
L 1005 1453 
L 3098 3360 
L 3654 3360 
L 2176 1946 
L 1920 1728 
L 992 870 
z
M 634 0 
L 634 4749 
L 1088 4749 
L 1088 0 
L 634 0 
z
M 3238 0 
L 1837 1747 
L 2131 2099 
L 3795 0 
L 3238 0 
z
" transform="scale(0.015625)"/>
      <path id="Montserrat-Regular-69" d="M 634 0 
L 634 3360 
L 1088 3360 
L 1088 0 
L 634 0 
z
M 864 4102 
Q 723 4102 627 4198 
Q 531 4294 531 4429 
Q 531 4563 627 4656 
Q 723 4749 864 4749 
Q 1005 4749 1101 4659 
Q 1197 4570 1197 4435 
Q 1197 4294 1104 4198 
Q 1011 4102 864 4102 
z
" transform="scale(0.015625)"/>
      <path id="Montserrat-Regular-66" d="M 710 0 
L 710 3782 
Q 710 4230 972 4505 
Q 1235 4781 1728 4781 
Q 1920 4781 2099 4729 
Q 2278 4678 2400 4570 
L 2246 4230 
Q 2150 4314 2022 4355 
Q 1894 4397 1747 4397 
Q 1459 4397 1305 4237 
Q 1152 4077 1152 3763 
L 1152 3251 
L 1165 3040 
L 1165 0 
L 710 0 
z
M 109 2982 
L 109 3360 
L 2189 3360 
L 2189 2982 
L 109 2982 
z
" transform="scale(0.015625)"/>
      <path id="Montserrat-Regular-64" d="M 1971 -32 
Q 1491 -32 1110 185 
Q 730 403 512 790 
Q 294 1178 294 1683 
Q 294 2195 512 2579 
Q 730 2963 1110 3177 
Q 1491 3392 1971 3392 
Q 2413 3392 2761 3193 
Q 3110 2995 3318 2614 
Q 3526 2234 3526 1683 
Q 3526 1139 3321 755 
Q 3117 371 2768 169 
Q 2419 -32 1971 -32 
z
M 2003 371 
Q 2362 371 2646 534 
Q 2931 698 3094 995 
Q 3258 1293 3258 1683 
Q 3258 2080 3094 2374 
Q 2931 2669 2646 2832 
Q 2362 2995 2003 2995 
Q 1651 2995 1369 2832 
Q 1088 2669 921 2374 
Q 755 2080 755 1683 
Q 755 1293 921 995 
Q 1088 698 1369 534 
Q 1651 371 2003 371 
z
M 3270 0 
L 3270 1011 
L 3315 1690 
L 3251 2368 
L 3251 4749 
L 3706 4749 
L 3706 0 
L 3270 0 
z
" transform="scale(0.015625)"/>
      <path id="Montserrat-Regular-29" d="M 691 -1242 
L 256 -1242 
Q 640 -582 816 157 
Q 992 896 992 1754 
Q 992 2611 816 3350 
Q 640 4090 256 4749 
L 691 4749 
Q 1056 4179 1248 3408 
Q 1440 2637 1440 1754 
Q 1440 870 1248 105 
Q 1056 -659 691 -1242 
z
" transform="scale(0.015625)"/>
     </defs>
     <use xlink:href="#Montserrat-Regular-28"/>
     <use xlink:href="#Montserrat-Regular-74" x="32.899994"/>
     <use xlink:href="#Montserrat-Regular-61" x="73.499985"/>
     <use xlink:href="#Montserrat-Regular-6b" x="132.499969"/>
     <use xlink:href="#Montserrat-Regular-65" x="192.59996"/>
     <use xlink:href="#Montserrat-Regular-20" x="252.999954"/>
     <use xlink:href="#Montserrat-Regular-69" x="279.199951"/>
     <use xlink:href="#Montserrat-Regular-66" x="306.099945"/>
     <use xlink:href="#Montserrat-Regular-20" x="339.999939"/>
     <use xlink:href="#Montserrat-Regular-73" x="366.199936"/>
     <use xlink:href="#Montserrat-Regular-74" x="414.999924"/>
     <use xlink:href="#Montserrat-Regular-72" x="455.599915"/>
     <use xlink:href="#Montserrat-Regular-65" x="495.699905"/>
     <use xlink:href="#Montserrat-Regular-73" x="556.099899"/>
     <use xlink:href="#Montserrat-Regular-73" x="604.899887"/>
     <use xlink:href="#Montserrat-Regular-65" x="653.699875"/>
     <use xlink:href="#Montserrat-Regular-64" x="714.099869"/>
     <use xlink:href="#Montserrat-Regular-29" x="781.899857"/>
    </g>
   </g>
   <g id="text_17">
    <!-- (take daily) -->
    <g transform="translate(469.624345 248.704505) scale(0.1 -0.1)">
     <use xlink:href="#Montserrat-Regular-28"/>
     <use xlink:href="#Montserrat-Regular-74" x="32.899994"/>
     <use xlink:href="#Montserrat-Regular-61" x="73.499985"/>
     <use xlink:href="#Montserrat-Regular-6b" x="132.499969"/>
     <use xlink:href="#Montserrat-Regular-65" x="192.59996"/>
     <use xlink:href="#Montserrat-Regular-20" x="252.999954"/>
     <use xlink:href="#Montserrat-Regular-64" x="279.199951"/>
     <use xlink:href="#Montserrat-Regular-61" x="346.999939"/>
     <use xlink:href="#Montserrat-Regular-69" x="405.999924"/>
     <use xlink:href="#Montserrat-Regular-6c" x="432.899918"/>
     <use xlink:href="#Montserrat-Regular-79" x="459.799911"/>
     <use xlink:href="#Montserrat-Regular-29" x="513.999908"/>
    </g>
   </g>
   <g id="text_18">
    <!-- dynomight.net/theanine -->
    <g style="fill: #808080; opacity: 0.75" transform="translate(432.335231 278.280619) scale(0.08 -0.08)">
     <defs>
      <path id="DejaVuSansMono-64" d="M 2681 3053 
L 2681 4863 
L 3256 4863 
L 3256 0 
L 2681 0 
L 2681 441 
Q 2538 181 2298 45 
Q 2059 -91 1747 -91 
Q 1113 -91 748 401 
Q 384 894 384 1759 
Q 384 2613 750 3098 
Q 1116 3584 1747 3584 
Q 2063 3584 2303 3448 
Q 2544 3313 2681 3053 
z
M 991 1747 
Q 991 1078 1203 737 
Q 1416 397 1831 397 
Q 2247 397 2464 740 
Q 2681 1084 2681 1747 
Q 2681 2413 2464 2755 
Q 2247 3097 1831 3097 
Q 1416 3097 1203 2756 
Q 991 2416 991 1747 
z
" transform="scale(0.015625)"/>
      <path id="DejaVuSansMono-79" d="M 2681 1125 
Q 2538 759 2316 163 
Q 2006 -663 1900 -844 
Q 1756 -1088 1540 -1209 
Q 1325 -1331 1038 -1331 
L 575 -1331 
L 575 -850 
L 916 -850 
Q 1169 -850 1312 -703 
Q 1456 -556 1678 56 
L 325 3500 
L 934 3500 
L 1972 763 
L 2994 3500 
L 3603 3500 
L 2681 1125 
z
" transform="scale(0.015625)"/>
      <path id="DejaVuSansMono-6e" d="M 3284 2169 
L 3284 0 
L 2706 0 
L 2706 2169 
Q 2706 2641 2540 2862 
Q 2375 3084 2022 3084 
Q 1619 3084 1401 2798 
Q 1184 2513 1184 1978 
L 1184 0 
L 609 0 
L 609 3500 
L 1184 3500 
L 1184 2975 
Q 1338 3275 1600 3429 
Q 1863 3584 2222 3584 
Q 2756 3584 3020 3232 
Q 3284 2881 3284 2169 
z
" transform="scale(0.015625)"/>
      <path id="DejaVuSansMono-6f" d="M 1925 3097 
Q 1488 3097 1263 2756 
Q 1038 2416 1038 1747 
Q 1038 1081 1263 739 
Q 1488 397 1925 397 
Q 2366 397 2591 739 
Q 2816 1081 2816 1747 
Q 2816 2416 2591 2756 
Q 2366 3097 1925 3097 
z
M 1925 3584 
Q 2653 3584 3039 3112 
Q 3425 2641 3425 1747 
Q 3425 850 3040 379 
Q 2656 -91 1925 -91 
Q 1197 -91 812 379 
Q 428 850 428 1747 
Q 428 2641 812 3112 
Q 1197 3584 1925 3584 
z
" transform="scale(0.015625)"/>
      <path id="DejaVuSansMono-6d" d="M 2113 3144 
Q 2219 3369 2383 3476 
Q 2547 3584 2778 3584 
Q 3200 3584 3373 3257 
Q 3547 2931 3547 2028 
L 3547 0 
L 3022 0 
L 3022 2003 
Q 3022 2744 2939 2923 
Q 2856 3103 2638 3103 
Q 2388 3103 2295 2911 
Q 2203 2719 2203 2003 
L 2203 0 
L 1678 0 
L 1678 2003 
Q 1678 2753 1589 2928 
Q 1500 3103 1269 3103 
Q 1041 3103 952 2911 
Q 863 2719 863 2003 
L 863 0 
L 341 0 
L 341 3500 
L 863 3500 
L 863 3200 
Q 966 3388 1120 3486 
Q 1275 3584 1472 3584 
Q 1709 3584 1867 3475 
Q 2025 3366 2113 3144 
z
" transform="scale(0.015625)"/>
      <path id="DejaVuSansMono-69" d="M 800 3500 
L 2272 3500 
L 2272 447 
L 3413 447 
L 3413 0 
L 556 0 
L 556 447 
L 1697 447 
L 1697 3053 
L 800 3053 
L 800 3500 
z
M 1697 4863 
L 2272 4863 
L 2272 4134 
L 1697 4134 
L 1697 4863 
z
" transform="scale(0.015625)"/>
      <path id="DejaVuSansMono-67" d="M 2681 1778 
Q 2681 2425 2470 2761 
Q 2259 3097 1856 3097 
Q 1434 3097 1212 2761 
Q 991 2425 991 1778 
Q 991 1131 1214 792 
Q 1438 453 1863 453 
Q 2259 453 2470 793 
Q 2681 1134 2681 1778 
z
M 3256 225 
Q 3256 -563 2884 -969 
Q 2513 -1375 1791 -1375 
Q 1553 -1375 1293 -1331 
Q 1034 -1288 775 -1203 
L 775 -634 
Q 1081 -778 1331 -847 
Q 1581 -916 1791 -916 
Q 2256 -916 2468 -662 
Q 2681 -409 2681 141 
L 2681 166 
L 2681 556 
Q 2544 263 2306 119 
Q 2069 -25 1728 -25 
Q 1116 -25 750 465 
Q 384 956 384 1778 
Q 384 2603 750 3093 
Q 1116 3584 1728 3584 
Q 2066 3584 2300 3450 
Q 2534 3316 2681 3034 
L 2681 3488 
L 3256 3488 
L 3256 225 
z
" transform="scale(0.015625)"/>
      <path id="DejaVuSansMono-68" d="M 3284 2169 
L 3284 0 
L 2706 0 
L 2706 2169 
Q 2706 2641 2540 2862 
Q 2375 3084 2022 3084 
Q 1619 3084 1401 2798 
Q 1184 2513 1184 1978 
L 1184 0 
L 609 0 
L 609 4863 
L 1184 4863 
L 1184 2975 
Q 1338 3275 1600 3429 
Q 1863 3584 2222 3584 
Q 2756 3584 3020 3232 
Q 3284 2881 3284 2169 
z
" transform="scale(0.015625)"/>
      <path id="DejaVuSansMono-74" d="M 1919 4494 
L 1919 3500 
L 3225 3500 
L 3225 3053 
L 1919 3053 
L 1919 1153 
Q 1919 766 2066 612 
Q 2213 459 2578 459 
L 3225 459 
L 3225 0 
L 2522 0 
Q 1875 0 1609 259 
Q 1344 519 1344 1153 
L 1344 3053 
L 409 3053 
L 409 3500 
L 1344 3500 
L 1344 4494 
L 1919 4494 
z
" transform="scale(0.015625)"/>
      <path id="DejaVuSansMono-2e" d="M 1528 953 
L 2316 953 
L 2316 0 
L 1528 0 
L 1528 953 
z
" transform="scale(0.015625)"/>
      <path id="DejaVuSansMono-65" d="M 3475 1894 
L 3475 1613 
L 984 1613 
L 984 1594 
Q 984 1022 1282 709 
Q 1581 397 2125 397 
Q 2400 397 2700 484 
Q 3000 572 3341 750 
L 3341 178 
Q 3013 44 2708 -23 
Q 2403 -91 2119 -91 
Q 1303 -91 843 398 
Q 384 888 384 1747 
Q 384 2584 834 3084 
Q 1284 3584 2034 3584 
Q 2703 3584 3089 3131 
Q 3475 2678 3475 1894 
z
M 2900 2063 
Q 2888 2569 2661 2833 
Q 2434 3097 2009 3097 
Q 1594 3097 1325 2822 
Q 1056 2547 1006 2059 
L 2900 2063 
z
" transform="scale(0.015625)"/>
      <path id="DejaVuSansMono-2f" d="M 2778 4666 
L 3372 4666 
L 916 -594 
L 319 -594 
L 2778 4666 
z
" transform="scale(0.015625)"/>
      <path id="DejaVuSansMono-61" d="M 2194 1759 
L 2003 1759 
Q 1500 1759 1245 1582 
Q 991 1406 991 1056 
Q 991 741 1181 566 
Q 1372 391 1709 391 
Q 2184 391 2456 720 
Q 2728 1050 2731 1631 
L 2731 1759 
L 2194 1759 
z
M 3309 1997 
L 3309 0 
L 2731 0 
L 2731 519 
Q 2547 206 2267 57 
Q 1988 -91 1588 -91 
Q 1053 -91 734 211 
Q 416 513 416 1019 
Q 416 1603 808 1906 
Q 1200 2209 1959 2209 
L 2731 2209 
L 2731 2300 
Q 2728 2719 2518 2908 
Q 2309 3097 1850 3097 
Q 1556 3097 1256 3012 
Q 956 2928 672 2766 
L 672 3341 
Q 991 3463 1283 3523 
Q 1575 3584 1850 3584 
Q 2284 3584 2592 3456 
Q 2900 3328 3091 3072 
Q 3209 2916 3259 2686 
Q 3309 2456 3309 1997 
z
" transform="scale(0.015625)"/>
     </defs>
     <use xlink:href="#DejaVuSansMono-64"/>
     <use xlink:href="#DejaVuSansMono-79" x="60.205078"/>
     <use xlink:href="#DejaVuSansMono-6e" x="120.410156"/>
     <use xlink:href="#DejaVuSansMono-6f" x="180.615234"/>
     <use xlink:href="#DejaVuSansMono-6d" x="240.820312"/>
     <use xlink:href="#DejaVuSansMono-69" x="301.025391"/>
     <use xlink:href="#DejaVuSansMono-67" x="361.230469"/>
     <use xlink:href="#DejaVuSansMono-68" x="421.435547"/>
     <use xlink:href="#DejaVuSansMono-74" x="481.640625"/>
     <use xlink:href="#DejaVuSansMono-2e" x="541.845703"/>
     <use xlink:href="#DejaVuSansMono-6e" x="602.050781"/>
     <use xlink:href="#DejaVuSansMono-65" x="662.255859"/>
     <use xlink:href="#DejaVuSansMono-74" x="722.460938"/>
     <use xlink:href="#DejaVuSansMono-2f" x="782.666016"/>
     <use xlink:href="#DejaVuSansMono-74" x="842.871094"/>
     <use xlink:href="#DejaVuSansMono-68" x="903.076172"/>
     <use xlink:href="#DejaVuSansMono-65" x="963.28125"/>
     <use xlink:href="#DejaVuSansMono-61" x="1023.486328"/>
     <use xlink:href="#DejaVuSansMono-6e" x="1083.691406"/>
     <use xlink:href="#DejaVuSansMono-69" x="1143.896484"/>
     <use xlink:href="#DejaVuSansMono-6e" x="1204.101562"/>
     <use xlink:href="#DejaVuSansMono-65" x="1264.306641"/>
    </g>
   </g>
   <g id="legend_1">
    <g id="line2d_19">
     <g>
      <use xlink:href="#m4f14c0491b" x="225.952147" y="42.696562" style="fill: #1f77b4; fill-opacity: 0.7; stroke: #000000; stroke-opacity: 0"/>
     </g>
    </g>
    <g id="text_19">
     <!-- 200 mg theanine -->
     <g transform="translate(258.352147 48.996562) scale(0.18 -0.18)">
      <defs>
       <path id="Montserrat-Regular-6d" d="M 4832 3392 
Q 5242 3392 5546 3235 
Q 5850 3078 6019 2758 
Q 6189 2438 6189 1952 
L 6189 0 
L 5734 0 
L 5734 1907 
Q 5734 2438 5481 2710 
Q 5229 2982 4768 2982 
Q 4422 2982 4169 2838 
Q 3917 2694 3779 2422 
Q 3642 2150 3642 1766 
L 3642 0 
L 3187 0 
L 3187 1907 
Q 3187 2438 2931 2710 
Q 2675 2982 2214 2982 
Q 1875 2982 1619 2838 
Q 1363 2694 1225 2422 
Q 1088 2150 1088 1766 
L 1088 0 
L 634 0 
L 634 3360 
L 1069 3360 
L 1069 2451 
L 998 2611 
Q 1152 2976 1494 3184 
Q 1837 3392 2304 3392 
Q 2797 3392 3142 3145 
Q 3488 2899 3590 2406 
L 3411 2477 
Q 3558 2886 3932 3139 
Q 4307 3392 4832 3392 
z
" transform="scale(0.015625)"/>
       <path id="Montserrat-Regular-67" d="M 2067 -1274 
Q 1606 -1274 1184 -1139 
Q 762 -1005 499 -755 
L 730 -410 
Q 966 -621 1315 -745 
Q 1664 -870 2054 -870 
Q 2694 -870 2995 -572 
Q 3296 -275 3296 352 
L 3296 1190 
L 3360 1766 
L 3315 2342 
L 3315 3360 
L 3750 3360 
L 3750 410 
Q 3750 -461 3324 -867 
Q 2899 -1274 2067 -1274 
z
M 1984 128 
Q 1504 128 1120 336 
Q 736 544 515 915 
Q 294 1286 294 1766 
Q 294 2246 515 2614 
Q 736 2982 1120 3187 
Q 1504 3392 1984 3392 
Q 2432 3392 2790 3206 
Q 3149 3021 3360 2656 
Q 3571 2291 3571 1766 
Q 3571 1242 3360 877 
Q 3149 512 2790 320 
Q 2432 128 1984 128 
z
M 2029 531 
Q 2400 531 2688 688 
Q 2976 845 3142 1123 
Q 3309 1402 3309 1766 
Q 3309 2131 3142 2406 
Q 2976 2682 2688 2838 
Q 2400 2995 2029 2995 
Q 1664 2995 1373 2838 
Q 1082 2682 918 2406 
Q 755 2131 755 1766 
Q 755 1402 918 1123 
Q 1082 845 1373 688 
Q 1664 531 2029 531 
z
" transform="scale(0.015625)"/>
       <path id="Montserrat-Regular-68" d="M 2349 3392 
Q 2758 3392 3068 3235 
Q 3379 3078 3555 2758 
Q 3731 2438 3731 1952 
L 3731 0 
L 3277 0 
L 3277 1907 
Q 3277 2438 3011 2710 
Q 2746 2982 2266 2982 
Q 1907 2982 1641 2838 
Q 1376 2694 1232 2422 
Q 1088 2150 1088 1766 
L 1088 0 
L 634 0 
L 634 4749 
L 1088 4749 
L 1088 2438 
L 998 2611 
Q 1158 2976 1510 3184 
Q 1862 3392 2349 3392 
z
" transform="scale(0.015625)"/>
      </defs>
      <use xlink:href="#Montserrat-Regular-32"/>
      <use xlink:href="#Montserrat-Regular-30" x="56.799988"/>
      <use xlink:href="#Montserrat-Regular-30" x="122.999985"/>
      <use xlink:href="#Montserrat-Regular-20" x="189.199982"/>
      <use xlink:href="#Montserrat-Regular-6d" x="215.399979"/>
      <use xlink:href="#Montserrat-Regular-67" x="321.499969"/>
      <use xlink:href="#Montserrat-Regular-20" x="389.999954"/>
      <use xlink:href="#Montserrat-Regular-74" x="416.199951"/>
      <use xlink:href="#Montserrat-Regular-68" x="456.799942"/>
      <use xlink:href="#Montserrat-Regular-65" x="524.399933"/>
      <use xlink:href="#Montserrat-Regular-61" x="584.799927"/>
      <use xlink:href="#Montserrat-Regular-6e" x="643.799911"/>
      <use xlink:href="#Montserrat-Regular-69" x="711.399902"/>
      <use xlink:href="#Montserrat-Regular-6e" x="738.299896"/>
      <use xlink:href="#Montserrat-Regular-65" x="805.899887"/>
     </g>
    </g>
    <g id="line2d_20">
     <g>
      <use xlink:href="#mab398aea8f" x="225.952147" y="68.63625" style="fill: #ff7f0e; fill-opacity: 0.7; stroke: #000000; stroke-opacity: 0"/>
     </g>
    </g>
    <g id="text_20">
     <!-- 25 μg vitamin D -->
     <g transform="translate(258.352147 74.93625) scale(0.18 -0.18)">
      <defs>
       <path id="Montserrat-Regular-3bc" d="M 634 -1242 
L 634 3360 
L 1088 3360 
L 1088 1459 
Q 1088 922 1353 650 
Q 1619 378 2106 378 
Q 2458 378 2714 522 
Q 2970 666 3110 941 
Q 3251 1216 3251 1600 
L 3251 3360 
L 3706 3360 
L 3706 0 
L 3270 0 
L 3270 934 
L 3347 813 
Q 3251 525 3062 336 
Q 2874 147 2630 57 
Q 2387 -32 2112 -32 
Q 1715 -32 1430 131 
Q 1146 294 998 608 
L 1088 813 
L 1088 -1242 
L 634 -1242 
z
" transform="scale(0.015625)"/>
       <path id="Montserrat-Regular-44" d="M 730 0 
L 730 4480 
L 2554 4480 
Q 3270 4480 3811 4195 
Q 4352 3910 4653 3404 
Q 4954 2899 4954 2240 
Q 4954 1581 4653 1075 
Q 4352 570 3811 285 
Q 3270 0 2554 0 
L 730 0 
z
M 1203 410 
L 2528 410 
Q 3123 410 3561 643 
Q 4000 877 4243 1289 
Q 4486 1702 4486 2240 
Q 4486 2784 4243 3193 
Q 4000 3603 3561 3836 
Q 3123 4070 2528 4070 
L 1203 4070 
L 1203 410 
z
" transform="scale(0.015625)"/>
      </defs>
      <use xlink:href="#Montserrat-Regular-32"/>
      <use xlink:href="#Montserrat-Regular-35" x="56.799988"/>
      <use xlink:href="#Montserrat-Regular-20" x="113.399979"/>
      <use xlink:href="#Montserrat-Regular-3bc" x="139.599976"/>
      <use xlink:href="#Montserrat-Regular-67" x="207.399963"/>
      <use xlink:href="#Montserrat-Regular-20" x="275.899948"/>
      <use xlink:href="#Montserrat-Regular-76" x="302.099945"/>
      <use xlink:href="#Montserrat-Regular-69" x="356.299942"/>
      <use xlink:href="#Montserrat-Regular-74" x="383.199936"/>
      <use xlink:href="#Montserrat-Regular-61" x="423.799927"/>
      <use xlink:href="#Montserrat-Regular-6d" x="482.799911"/>
      <use xlink:href="#Montserrat-Regular-69" x="588.899902"/>
      <use xlink:href="#Montserrat-Regular-6e" x="615.799896"/>
      <use xlink:href="#Montserrat-Regular-20" x="683.399887"/>
      <use xlink:href="#Montserrat-Regular-44" x="709.599884"/>
     </g>
    </g>
   </g>
  </g>
 </g>
 <defs>
  <clipPath id="p2ba1a91d75">
   <rect x="83.945" y="19.44" width="454.347731" height="261.868712"/>
  </clipPath>
 </defs>
</svg>
