<?xml version="1.0" encoding="utf-8" standalone="no"?>
<!DOCTYPE svg PUBLIC "-//W3C//DTD SVG 1.1//EN"
  "http://www.w3.org/Graphics/SVG/1.1/DTD/svg11.dtd">
<svg xmlns:xlink="http://www.w3.org/1999/xlink" width="576pt" height="288pt" viewBox="0 0 576 288" xmlns="http://www.w3.org/2000/svg" version="1.1">
 <metadata>
  <rdf:RDF xmlns:dc="http://purl.org/dc/elements/1.1/" xmlns:cc="http://creativecommons.org/ns#" xmlns:rdf="http://www.w3.org/1999/02/22-rdf-syntax-ns#">
   <cc:Work>
    <dc:type rdf:resource="http://purl.org/dc/dcmitype/StillImage"/>
    <dc:date>2025-06-04T18:38:43.360004</dc:date>
    <dc:format>image/svg+xml</dc:format>
    <dc:creator>
     <cc:Agent>
      <dc:title>Matplotlib v3.10.3, https://matplotlib.org/</dc:title>
     </cc:Agent>
    </dc:creator>
   </cc:Work>
  </rdf:RDF>
 </metadata>
 <defs>
  <style type="text/css">*{stroke-linejoin: round; stroke-linecap: butt}</style>
 </defs>
 <g id="figure_1">
  <g id="axes_1">
   <g id="matplotlib.axis_1">
    <g id="xtick_1">
     <g id="text_1">
      <!-- 80 °C -->
      <g style="fill: #333333" transform="translate(58.692764 279.135) scale(0.16 -0.16)">
       <defs>
        <path id="Montserrat-Regular-38" d="M 2035 -38 
Q 1498 -38 1110 115 
Q 723 269 515 560 
Q 307 851 307 1248 
Q 307 1632 508 1904 
Q 710 2176 1097 2323 
Q 1485 2470 2035 2470 
Q 2579 2470 2969 2323 
Q 3360 2176 3568 1904 
Q 3776 1632 3776 1248 
Q 3776 851 3565 560 
Q 3354 269 2963 115 
Q 2573 -38 2035 -38 
z
M 2035 352 
Q 2630 352 2966 595 
Q 3302 838 3302 1254 
Q 3302 1670 2966 1910 
Q 2630 2150 2035 2150 
Q 1440 2150 1107 1910 
Q 774 1670 774 1254 
Q 774 838 1107 595 
Q 1440 352 2035 352 
z
M 2035 2208 
Q 1536 2208 1187 2342 
Q 838 2477 652 2729 
Q 467 2982 467 3334 
Q 467 3706 662 3971 
Q 858 4237 1210 4377 
Q 1562 4518 2035 4518 
Q 2509 4518 2864 4377 
Q 3219 4237 3417 3971 
Q 3616 3706 3616 3334 
Q 3616 2982 3430 2729 
Q 3245 2477 2889 2342 
Q 2534 2208 2035 2208 
z
M 2035 2515 
Q 2560 2515 2854 2732 
Q 3149 2950 3149 3315 
Q 3149 3699 2845 3913 
Q 2541 4128 2035 4128 
Q 1530 4128 1229 3913 
Q 928 3699 928 3322 
Q 928 2950 1219 2732 
Q 1510 2515 2035 2515 
z
" transform="scale(0.015625)"/>
        <path id="Montserrat-Regular-30" d="M 2118 -38 
Q 1600 -38 1197 234 
Q 794 506 563 1014 
Q 333 1523 333 2240 
Q 333 2957 563 3465 
Q 794 3974 1197 4246 
Q 1600 4518 2118 4518 
Q 2637 4518 3040 4246 
Q 3443 3974 3676 3465 
Q 3910 2957 3910 2240 
Q 3910 1523 3676 1014 
Q 3443 506 3040 234 
Q 2637 -38 2118 -38 
z
M 2118 384 
Q 2515 384 2809 598 
Q 3104 813 3270 1225 
Q 3437 1638 3437 2240 
Q 3437 2842 3270 3254 
Q 3104 3667 2809 3881 
Q 2515 4096 2118 4096 
Q 1734 4096 1433 3881 
Q 1133 3667 966 3254 
Q 800 2842 800 2240 
Q 800 1638 966 1225 
Q 1133 813 1433 598 
Q 1734 384 2118 384 
z
" transform="scale(0.015625)"/>
        <path id="Montserrat-Regular-20" transform="scale(0.015625)"/>
        <path id="Montserrat-Regular-b0" d="M 1338 2483 
Q 1056 2483 822 2620 
Q 589 2758 454 2985 
Q 320 3213 320 3501 
Q 320 3782 454 4012 
Q 589 4243 822 4377 
Q 1056 4512 1338 4512 
Q 1626 4512 1859 4377 
Q 2093 4243 2227 4012 
Q 2362 3782 2362 3501 
Q 2362 3219 2227 2988 
Q 2093 2758 1859 2620 
Q 1626 2483 1338 2483 
z
M 1344 2752 
Q 1549 2752 1718 2854 
Q 1888 2957 1984 3123 
Q 2080 3290 2080 3501 
Q 2080 3712 1984 3881 
Q 1888 4051 1718 4147 
Q 1549 4243 1344 4243 
Q 1133 4243 963 4147 
Q 794 4051 698 3881 
Q 602 3712 602 3501 
Q 602 3290 698 3120 
Q 794 2950 963 2851 
Q 1133 2752 1344 2752 
z
" transform="scale(0.015625)"/>
        <path id="Montserrat-Regular-43" d="M 2675 -38 
Q 2170 -38 1741 131 
Q 1312 301 998 608 
Q 685 915 509 1331 
Q 333 1747 333 2240 
Q 333 2733 509 3149 
Q 685 3565 1001 3872 
Q 1318 4179 1747 4348 
Q 2176 4518 2682 4518 
Q 3168 4518 3597 4355 
Q 4026 4192 4320 3866 
L 4019 3565 
Q 3744 3846 3411 3971 
Q 3078 4096 2694 4096 
Q 2291 4096 1945 3958 
Q 1600 3821 1344 3568 
Q 1088 3315 944 2979 
Q 800 2643 800 2240 
Q 800 1837 944 1501 
Q 1088 1165 1344 912 
Q 1600 659 1945 521 
Q 2291 384 2694 384 
Q 3078 384 3411 512 
Q 3744 640 4019 922 
L 4320 621 
Q 4026 294 3597 128 
Q 3168 -38 2675 -38 
z
" transform="scale(0.015625)"/>
       </defs>
       <use xlink:href="#Montserrat-Regular-38"/>
       <use xlink:href="#Montserrat-Regular-30" transform="translate(63.799988 0)"/>
       <use xlink:href="#Montserrat-Regular-20" transform="translate(129.999985 0)"/>
       <use xlink:href="#Montserrat-Regular-b0" transform="translate(156.199982 0)"/>
       <use xlink:href="#Montserrat-Regular-43" transform="translate(198.099976 0)"/>
      </g>
     </g>
    </g>
    <g id="xtick_2">
     <g id="text_2">
      <!-- 85 °C -->
      <g style="fill: #333333" transform="translate(155.503316 279.135) scale(0.16 -0.16)">
       <defs>
        <path id="Montserrat-Regular-35" d="M 1747 -38 
Q 1267 -38 832 118 
Q 397 275 141 538 
L 365 902 
Q 576 678 944 531 
Q 1312 384 1741 384 
Q 2310 384 2608 637 
Q 2906 890 2906 1299 
Q 2906 1587 2768 1795 
Q 2630 2003 2304 2118 
Q 1978 2234 1408 2234 
L 454 2234 
L 685 4480 
L 3136 4480 
L 3136 4070 
L 870 4070 
L 1107 4294 
L 909 2413 
L 672 2643 
L 1510 2643 
Q 2189 2643 2598 2476 
Q 3008 2310 3190 2012 
Q 3373 1715 3373 1318 
Q 3373 941 3193 630 
Q 3014 320 2656 141 
Q 2298 -38 1747 -38 
z
" transform="scale(0.015625)"/>
       </defs>
       <use xlink:href="#Montserrat-Regular-38"/>
       <use xlink:href="#Montserrat-Regular-35" transform="translate(63.799988 0)"/>
       <use xlink:href="#Montserrat-Regular-20" transform="translate(120.399979 0)"/>
       <use xlink:href="#Montserrat-Regular-b0" transform="translate(146.599976 0)"/>
       <use xlink:href="#Montserrat-Regular-43" transform="translate(188.499969 0)"/>
      </g>
     </g>
    </g>
    <g id="xtick_3">
     <g id="text_3">
      <!-- 90 °C -->
      <g style="fill: #333333" transform="translate(251.007618 279.135) scale(0.16 -0.16)">
       <defs>
        <path id="Montserrat-Regular-39" d="M 1728 4518 
Q 2323 4518 2732 4252 
Q 3142 3987 3353 3488 
Q 3565 2989 3565 2278 
Q 3565 1523 3305 1004 
Q 3046 486 2585 224 
Q 2125 -38 1517 -38 
Q 1216 -38 944 19 
Q 672 77 454 205 
L 640 576 
Q 813 461 1040 413 
Q 1267 365 1510 365 
Q 2234 365 2666 825 
Q 3098 1286 3098 2202 
Q 3098 2349 3082 2553 
Q 3066 2758 3008 2963 
L 3168 2842 
Q 3104 2509 2896 2275 
Q 2688 2042 2384 1920 
Q 2080 1798 1709 1798 
Q 1267 1798 924 1964 
Q 582 2131 390 2432 
Q 198 2733 198 3142 
Q 198 3565 396 3872 
Q 595 4179 944 4348 
Q 1293 4518 1728 4518 
z
M 1747 4128 
Q 1427 4128 1180 4009 
Q 934 3891 793 3673 
Q 653 3456 653 3155 
Q 653 2714 957 2451 
Q 1261 2189 1779 2189 
Q 2125 2189 2384 2317 
Q 2643 2445 2787 2669 
Q 2931 2893 2931 3168 
Q 2931 3418 2796 3635 
Q 2662 3853 2400 3990 
Q 2138 4128 1747 4128 
z
" transform="scale(0.015625)"/>
       </defs>
       <use xlink:href="#Montserrat-Regular-39"/>
       <use xlink:href="#Montserrat-Regular-30" transform="translate(60.899994 0)"/>
       <use xlink:href="#Montserrat-Regular-20" transform="translate(127.099991 0)"/>
       <use xlink:href="#Montserrat-Regular-b0" transform="translate(153.299988 0)"/>
       <use xlink:href="#Montserrat-Regular-43" transform="translate(195.199982 0)"/>
      </g>
     </g>
    </g>
    <g id="xtick_4">
     <g id="text_4">
      <!-- 95 °C -->
      <g style="fill: #333333" transform="translate(347.81817 279.135) scale(0.16 -0.16)">
       <use xlink:href="#Montserrat-Regular-39"/>
       <use xlink:href="#Montserrat-Regular-35" transform="translate(60.899994 0)"/>
       <use xlink:href="#Montserrat-Regular-20" transform="translate(117.499985 0)"/>
       <use xlink:href="#Montserrat-Regular-b0" transform="translate(143.699982 0)"/>
       <use xlink:href="#Montserrat-Regular-43" transform="translate(185.599976 0)"/>
      </g>
     </g>
    </g>
    <g id="xtick_5">
     <g id="text_5">
      <!-- 100 °C -->
      <g style="fill: #333333" transform="translate(439.779972 279.135) scale(0.16 -0.16)">
       <defs>
        <path id="Montserrat-Regular-31" d="M 1114 0 
L 1114 4288 
L 1318 4070 
L 58 4070 
L 58 4480 
L 1574 4480 
L 1574 0 
L 1114 0 
z
" transform="scale(0.015625)"/>
       </defs>
       <use xlink:href="#Montserrat-Regular-31"/>
       <use xlink:href="#Montserrat-Regular-30" transform="translate(36.099991 0)"/>
       <use xlink:href="#Montserrat-Regular-30" transform="translate(102.299988 0)"/>
       <use xlink:href="#Montserrat-Regular-20" transform="translate(168.499985 0)"/>
       <use xlink:href="#Montserrat-Regular-b0" transform="translate(194.699982 0)"/>
       <use xlink:href="#Montserrat-Regular-43" transform="translate(236.599976 0)"/>
      </g>
     </g>
    </g>
    <g id="xtick_6"/>
    <g id="xtick_7"/>
    <g id="xtick_8"/>
    <g id="xtick_9"/>
   </g>
   <g id="matplotlib.axis_2">
    <g id="ytick_1">
     <g id="text_6">
      <!-- 1 -->
      <g style="fill: #333333" transform="translate(35.141875 261.312273) scale(0.16 -0.16)">
       <use xlink:href="#Montserrat-Regular-31"/>
      </g>
     </g>
    </g>
    <g id="ytick_2">
     <g id="text_7">
      <!-- 2 -->
      <g style="fill: #333333" transform="translate(31.829375 201.879886) scale(0.16 -0.16)">
       <defs>
        <path id="Montserrat-Regular-32" d="M 250 0 
L 250 326 
L 2112 2150 
Q 2368 2400 2496 2589 
Q 2624 2778 2669 2944 
Q 2714 3110 2714 3258 
Q 2714 3648 2448 3872 
Q 2182 4096 1664 4096 
Q 1267 4096 963 3974 
Q 659 3853 442 3597 
L 115 3878 
Q 378 4186 787 4352 
Q 1197 4518 1702 4518 
Q 2157 4518 2489 4374 
Q 2822 4230 3004 3955 
Q 3187 3680 3187 3309 
Q 3187 3091 3126 2880 
Q 3066 2669 2909 2435 
Q 2752 2202 2451 1907 
L 742 230 
L 614 410 
L 3392 410 
L 3392 0 
L 250 0 
z
" transform="scale(0.015625)"/>
       </defs>
       <use xlink:href="#Montserrat-Regular-32"/>
      </g>
     </g>
    </g>
    <g id="ytick_3">
     <g id="text_8">
      <!-- 3 -->
      <g style="fill: #333333" transform="translate(31.891875 142.4475) scale(0.16 -0.16)">
       <defs>
        <path id="Montserrat-Regular-33" d="M 1670 -38 
Q 1184 -38 752 118 
Q 320 275 58 538 
L 282 902 
Q 499 678 867 531 
Q 1235 384 1670 384 
Q 2227 384 2524 627 
Q 2822 870 2822 1280 
Q 2822 1690 2531 1933 
Q 2240 2176 1613 2176 
L 1293 2176 
L 1293 2515 
L 2675 4250 
L 2739 4070 
L 243 4070 
L 243 4480 
L 3123 4480 
L 3123 4154 
L 1741 2419 
L 1517 2566 
L 1690 2566 
Q 2496 2566 2896 2208 
Q 3296 1850 3296 1286 
Q 3296 909 3117 608 
Q 2938 307 2576 134 
Q 2214 -38 1670 -38 
z
" transform="scale(0.015625)"/>
       </defs>
       <use xlink:href="#Montserrat-Regular-33"/>
      </g>
     </g>
    </g>
    <g id="ytick_4">
     <g id="text_9">
      <!-- 4 -->
      <g style="fill: #333333" transform="translate(30.341875 83.015114) scale(0.16 -0.16)">
       <defs>
        <path id="Montserrat-Regular-34" d="M 256 1178 
L 256 1510 
L 2630 4480 
L 3142 4480 
L 787 1510 
L 538 1587 
L 4141 1587 
L 4141 1178 
L 256 1178 
z
M 2784 0 
L 2784 1178 
L 2797 1587 
L 2797 2624 
L 3245 2624 
L 3245 0 
L 2784 0 
z
" transform="scale(0.015625)"/>
       </defs>
       <use xlink:href="#Montserrat-Regular-34"/>
      </g>
     </g>
    </g>
    <g id="ytick_5">
     <g id="text_10">
      <!-- 5 -->
      <g style="fill: #333333" transform="translate(31.861875 23.582727) scale(0.16 -0.16)">
       <use xlink:href="#Montserrat-Regular-35"/>
      </g>
     </g>
    </g>
    <g id="ytick_6"/>
    <g id="ytick_7"/>
    <g id="ytick_8"/>
    <g id="ytick_9"/>
   </g>
   <g id="PathCollection_1">
    <path d="M 463.139758 223.001149 
L 460.481077 228.31851 
L 465.798439 228.31851 
z
" clip-path="url(#pfed1515152)" style="fill: #4c72b0; stroke: #4c72b0; stroke-width: 0.886227"/>
    <path d="M 59.764097 104.136376 
L 57.105416 109.453738 
L 62.422778 109.453738 
z
" clip-path="url(#pfed1515152)" style="fill: #4c72b0; stroke: #4c72b0; stroke-width: 0.886227"/>
    <path d="M 328.305001 104.136376 
L 325.64632 109.453738 
L 330.963682 109.453738 
z
" clip-path="url(#pfed1515152)" style="fill: #4c72b0; stroke: #4c72b0; stroke-width: 0.886227"/>
    <path d="M 196.950905 133.852569 
L 194.292224 139.169931 
L 199.609586 139.169931 
z
" clip-path="url(#pfed1515152)" style="fill: #4c72b0; stroke: #4c72b0; stroke-width: 0.886227"/>
   </g>
   <g id="PathCollection_2">
    <path d="M 463.979246 109.453738 
C 464.684336 109.453738 465.360643 109.173602 465.859217 108.675028 
C 466.357791 108.176454 466.637927 107.500147 466.637927 106.795057 
C 466.637927 106.089966 466.357791 105.41366 465.859217 104.915086 
C 465.360643 104.416511 464.684336 104.136376 463.979246 104.136376 
C 463.274155 104.136376 462.597849 104.416511 462.099275 104.915086 
C 461.6007 105.41366 461.320565 106.089966 461.320565 106.795057 
C 461.320565 107.500147 461.6007 108.176454 462.099275 108.675028 
C 462.597849 109.173602 463.274155 109.453738 463.979246 109.453738 
z
" clip-path="url(#pfed1515152)" style="fill: #4c72b0; stroke: #4c72b0; stroke-width: 0.886227"/>
    <path d="M 331.734195 79.737544 
C 332.439286 79.737544 333.115592 79.457409 333.614167 78.958835 
C 334.112741 78.460261 334.392876 77.783954 334.392876 77.078864 
C 334.392876 76.373773 334.112741 75.697467 333.614167 75.198892 
C 333.115592 74.700318 332.439286 74.420183 331.734195 74.420183 
C 331.029105 74.420183 330.352798 74.700318 329.854224 75.198892 
C 329.35565 75.697467 329.075515 76.373773 329.075515 77.078864 
C 329.075515 77.783954 329.35565 78.460261 329.854224 78.958835 
C 330.352798 79.457409 331.029105 79.737544 331.734195 79.737544 
z
" clip-path="url(#pfed1515152)" style="fill: #4c72b0; stroke: #4c72b0; stroke-width: 0.886227"/>
    <path d="M 61.976898 139.169931 
C 62.681988 139.169931 63.358295 138.889795 63.856869 138.391221 
C 64.355443 137.892647 64.635579 137.21634 64.635579 136.51125 
C 64.635579 135.80616 64.355443 135.129853 63.856869 134.631279 
C 63.358295 134.132705 62.681988 133.852569 61.976898 133.852569 
C 61.271808 133.852569 60.595501 134.132705 60.096927 134.631279 
C 59.598353 135.129853 59.318217 135.80616 59.318217 136.51125 
C 59.318217 137.21634 59.598353 137.892647 60.096927 138.391221 
C 60.595501 138.889795 61.271808 139.169931 61.976898 139.169931 
z
" clip-path="url(#pfed1515152)" style="fill: #4c72b0; stroke: #4c72b0; stroke-width: 0.886227"/>
    <path d="M 195.92319 168.886124 
C 196.62828 168.886124 197.304587 168.605989 197.803161 168.107414 
C 198.301735 167.60884 198.58187 166.932534 198.58187 166.227443 
C 198.58187 165.522353 198.301735 164.846046 197.803161 164.347472 
C 197.304587 163.848898 196.62828 163.568762 195.92319 163.568762 
C 195.218099 163.568762 194.541793 163.848898 194.043218 164.347472 
C 193.544644 164.846046 193.264509 165.522353 193.264509 166.227443 
C 193.264509 166.932534 193.544644 167.60884 194.043218 168.107414 
C 194.541793 168.605989 195.218099 168.886124 195.92319 168.886124 
z
" clip-path="url(#pfed1515152)" style="fill: #4c72b0; stroke: #4c72b0; stroke-width: 0.886227"/>
   </g>
   <g id="FillBetweenPolyCollection_1">
    <path d="M 61.085653 50.859133 
L 61.085653 192.447174 
L 195.544176 175.427767 
L 330.002699 182.856815 
L 464.461222 214.734319 
L 464.461222 73.146278 
L 464.461222 73.146278 
L 330.002699 90.165685 
L 195.544176 82.736636 
L 61.085653 50.859133 
z
" clip-path="url(#pfed1515152)" style="fill: #4c72b0; fill-opacity: 0.2"/>
   </g>
   <g id="line2d_1">
    <path d="M 61.085653 121.653153 
L 195.544176 129.082202 
L 330.002699 136.51125 
L 464.461222 143.940298 
" clip-path="url(#pfed1515152)" style="fill: none; stroke: #4c72b0; stroke-width: 1.772454; stroke-linejoin: miter"/>
   </g>
   <g id="text_11">
    <g clip-path="url(#pfed1515152)">
     <!-- dynomight.net -->
     <g style="fill: #d3d3d3" transform="translate(402.42222 251.612784) scale(0.08 -0.08)">
      <defs>
       <path id="DejaVuSansMono-64" d="M 2681 3053 
L 2681 4863 
L 3256 4863 
L 3256 0 
L 2681 0 
L 2681 441 
Q 2538 181 2298 45 
Q 2059 -91 1747 -91 
Q 1113 -91 748 401 
Q 384 894 384 1759 
Q 384 2613 750 3098 
Q 1116 3584 1747 3584 
Q 2063 3584 2303 3448 
Q 2544 3313 2681 3053 
z
M 991 1747 
Q 991 1078 1203 737 
Q 1416 397 1831 397 
Q 2247 397 2464 740 
Q 2681 1084 2681 1747 
Q 2681 2413 2464 2755 
Q 2247 3097 1831 3097 
Q 1416 3097 1203 2756 
Q 991 2416 991 1747 
z
" transform="scale(0.015625)"/>
       <path id="DejaVuSansMono-79" d="M 2681 1125 
Q 2538 759 2316 163 
Q 2006 -663 1900 -844 
Q 1756 -1088 1540 -1209 
Q 1325 -1331 1038 -1331 
L 575 -1331 
L 575 -850 
L 916 -850 
Q 1169 -850 1312 -703 
Q 1456 -556 1678 56 
L 325 3500 
L 934 3500 
L 1972 763 
L 2994 3500 
L 3603 3500 
L 2681 1125 
z
" transform="scale(0.015625)"/>
       <path id="DejaVuSansMono-6e" d="M 3284 2169 
L 3284 0 
L 2706 0 
L 2706 2169 
Q 2706 2641 2540 2862 
Q 2375 3084 2022 3084 
Q 1619 3084 1401 2798 
Q 1184 2513 1184 1978 
L 1184 0 
L 609 0 
L 609 3500 
L 1184 3500 
L 1184 2975 
Q 1338 3275 1600 3429 
Q 1863 3584 2222 3584 
Q 2756 3584 3020 3232 
Q 3284 2881 3284 2169 
z
" transform="scale(0.015625)"/>
       <path id="DejaVuSansMono-6f" d="M 1925 3097 
Q 1488 3097 1263 2756 
Q 1038 2416 1038 1747 
Q 1038 1081 1263 739 
Q 1488 397 1925 397 
Q 2366 397 2591 739 
Q 2816 1081 2816 1747 
Q 2816 2416 2591 2756 
Q 2366 3097 1925 3097 
z
M 1925 3584 
Q 2653 3584 3039 3112 
Q 3425 2641 3425 1747 
Q 3425 850 3040 379 
Q 2656 -91 1925 -91 
Q 1197 -91 812 379 
Q 428 850 428 1747 
Q 428 2641 812 3112 
Q 1197 3584 1925 3584 
z
" transform="scale(0.015625)"/>
       <path id="DejaVuSansMono-6d" d="M 2113 3144 
Q 2219 3369 2383 3476 
Q 2547 3584 2778 3584 
Q 3200 3584 3373 3257 
Q 3547 2931 3547 2028 
L 3547 0 
L 3022 0 
L 3022 2003 
Q 3022 2744 2939 2923 
Q 2856 3103 2638 3103 
Q 2388 3103 2295 2911 
Q 2203 2719 2203 2003 
L 2203 0 
L 1678 0 
L 1678 2003 
Q 1678 2753 1589 2928 
Q 1500 3103 1269 3103 
Q 1041 3103 952 2911 
Q 863 2719 863 2003 
L 863 0 
L 341 0 
L 341 3500 
L 863 3500 
L 863 3200 
Q 966 3388 1120 3486 
Q 1275 3584 1472 3584 
Q 1709 3584 1867 3475 
Q 2025 3366 2113 3144 
z
" transform="scale(0.015625)"/>
       <path id="DejaVuSansMono-69" d="M 800 3500 
L 2272 3500 
L 2272 447 
L 3413 447 
L 3413 0 
L 556 0 
L 556 447 
L 1697 447 
L 1697 3053 
L 800 3053 
L 800 3500 
z
M 1697 4863 
L 2272 4863 
L 2272 4134 
L 1697 4134 
L 1697 4863 
z
" transform="scale(0.015625)"/>
       <path id="DejaVuSansMono-67" d="M 2681 1778 
Q 2681 2425 2470 2761 
Q 2259 3097 1856 3097 
Q 1434 3097 1212 2761 
Q 991 2425 991 1778 
Q 991 1131 1214 792 
Q 1438 453 1863 453 
Q 2259 453 2470 793 
Q 2681 1134 2681 1778 
z
M 3256 225 
Q 3256 -563 2884 -969 
Q 2513 -1375 1791 -1375 
Q 1553 -1375 1293 -1331 
Q 1034 -1288 775 -1203 
L 775 -634 
Q 1081 -778 1331 -847 
Q 1581 -916 1791 -916 
Q 2256 -916 2468 -662 
Q 2681 -409 2681 141 
L 2681 166 
L 2681 556 
Q 2544 263 2306 119 
Q 2069 -25 1728 -25 
Q 1116 -25 750 465 
Q 384 956 384 1778 
Q 384 2603 750 3093 
Q 1116 3584 1728 3584 
Q 2066 3584 2300 3450 
Q 2534 3316 2681 3034 
L 2681 3488 
L 3256 3488 
L 3256 225 
z
" transform="scale(0.015625)"/>
       <path id="DejaVuSansMono-68" d="M 3284 2169 
L 3284 0 
L 2706 0 
L 2706 2169 
Q 2706 2641 2540 2862 
Q 2375 3084 2022 3084 
Q 1619 3084 1401 2798 
Q 1184 2513 1184 1978 
L 1184 0 
L 609 0 
L 609 4863 
L 1184 4863 
L 1184 2975 
Q 1338 3275 1600 3429 
Q 1863 3584 2222 3584 
Q 2756 3584 3020 3232 
Q 3284 2881 3284 2169 
z
" transform="scale(0.015625)"/>
       <path id="DejaVuSansMono-74" d="M 1919 4494 
L 1919 3500 
L 3225 3500 
L 3225 3053 
L 1919 3053 
L 1919 1153 
Q 1919 766 2066 612 
Q 2213 459 2578 459 
L 3225 459 
L 3225 0 
L 2522 0 
Q 1875 0 1609 259 
Q 1344 519 1344 1153 
L 1344 3053 
L 409 3053 
L 409 3500 
L 1344 3500 
L 1344 4494 
L 1919 4494 
z
" transform="scale(0.015625)"/>
       <path id="DejaVuSansMono-2e" d="M 1528 953 
L 2316 953 
L 2316 0 
L 1528 0 
L 1528 953 
z
" transform="scale(0.015625)"/>
       <path id="DejaVuSansMono-65" d="M 3475 1894 
L 3475 1613 
L 984 1613 
L 984 1594 
Q 984 1022 1282 709 
Q 1581 397 2125 397 
Q 2400 397 2700 484 
Q 3000 572 3341 750 
L 3341 178 
Q 3013 44 2708 -23 
Q 2403 -91 2119 -91 
Q 1303 -91 843 398 
Q 384 888 384 1747 
Q 384 2584 834 3084 
Q 1284 3584 2034 3584 
Q 2703 3584 3089 3131 
Q 3475 2678 3475 1894 
z
M 2900 2063 
Q 2888 2569 2661 2833 
Q 2434 3097 2009 3097 
Q 1594 3097 1325 2822 
Q 1056 2547 1006 2059 
L 2900 2063 
z
" transform="scale(0.015625)"/>
      </defs>
      <use xlink:href="#DejaVuSansMono-64"/>
      <use xlink:href="#DejaVuSansMono-79" transform="translate(60.205078 0)"/>
      <use xlink:href="#DejaVuSansMono-6e" transform="translate(120.410156 0)"/>
      <use xlink:href="#DejaVuSansMono-6f" transform="translate(180.615234 0)"/>
      <use xlink:href="#DejaVuSansMono-6d" transform="translate(240.820312 0)"/>
      <use xlink:href="#DejaVuSansMono-69" transform="translate(301.025391 0)"/>
      <use xlink:href="#DejaVuSansMono-67" transform="translate(361.230469 0)"/>
      <use xlink:href="#DejaVuSansMono-68" transform="translate(421.435547 0)"/>
      <use xlink:href="#DejaVuSansMono-74" transform="translate(481.640625 0)"/>
      <use xlink:href="#DejaVuSansMono-2e" transform="translate(541.845703 0)"/>
      <use xlink:href="#DejaVuSansMono-6e" transform="translate(602.050781 0)"/>
      <use xlink:href="#DejaVuSansMono-65" transform="translate(662.255859 0)"/>
      <use xlink:href="#DejaVuSansMono-74" transform="translate(722.460938 0)"/>
     </g>
    </g>
   </g>
   <g id="text_12">
    <g clip-path="url(#pfed1515152)">
     <!-- dynomight.net -->
     <g style="fill: #d3d3d3" transform="translate(402.42222 251.612784) scale(0.08 -0.08)">
      <use xlink:href="#DejaVuSansMono-64"/>
      <use xlink:href="#DejaVuSansMono-79" transform="translate(60.205078 0)"/>
      <use xlink:href="#DejaVuSansMono-6e" transform="translate(120.410156 0)"/>
      <use xlink:href="#DejaVuSansMono-6f" transform="translate(180.615234 0)"/>
      <use xlink:href="#DejaVuSansMono-6d" transform="translate(240.820312 0)"/>
      <use xlink:href="#DejaVuSansMono-69" transform="translate(301.025391 0)"/>
      <use xlink:href="#DejaVuSansMono-67" transform="translate(361.230469 0)"/>
      <use xlink:href="#DejaVuSansMono-68" transform="translate(421.435547 0)"/>
      <use xlink:href="#DejaVuSansMono-74" transform="translate(481.640625 0)"/>
      <use xlink:href="#DejaVuSansMono-2e" transform="translate(541.845703 0)"/>
      <use xlink:href="#DejaVuSansMono-6e" transform="translate(602.050781 0)"/>
      <use xlink:href="#DejaVuSansMono-65" transform="translate(662.255859 0)"/>
      <use xlink:href="#DejaVuSansMono-74" transform="translate(722.460938 0)"/>
     </g>
    </g>
   </g>
   <g id="text_13">
    <g clip-path="url(#pfed1515152)">
     <!-- dynomight.net -->
     <g style="fill: #d3d3d3" transform="translate(402.42222 251.612784) scale(0.08 -0.08)">
      <use xlink:href="#DejaVuSansMono-64"/>
      <use xlink:href="#DejaVuSansMono-79" transform="translate(60.205078 0)"/>
      <use xlink:href="#DejaVuSansMono-6e" transform="translate(120.410156 0)"/>
      <use xlink:href="#DejaVuSansMono-6f" transform="translate(180.615234 0)"/>
      <use xlink:href="#DejaVuSansMono-6d" transform="translate(240.820312 0)"/>
      <use xlink:href="#DejaVuSansMono-69" transform="translate(301.025391 0)"/>
      <use xlink:href="#DejaVuSansMono-67" transform="translate(361.230469 0)"/>
      <use xlink:href="#DejaVuSansMono-68" transform="translate(421.435547 0)"/>
      <use xlink:href="#DejaVuSansMono-74" transform="translate(481.640625 0)"/>
      <use xlink:href="#DejaVuSansMono-2e" transform="translate(541.845703 0)"/>
      <use xlink:href="#DejaVuSansMono-6e" transform="translate(602.050781 0)"/>
      <use xlink:href="#DejaVuSansMono-65" transform="translate(662.255859 0)"/>
      <use xlink:href="#DejaVuSansMono-74" transform="translate(722.460938 0)"/>
     </g>
    </g>
   </g>
   <g id="text_14">
    <g clip-path="url(#pfed1515152)">
     <!-- dynomight.net -->
     <g style="fill: #d3d3d3" transform="translate(402.42222 251.612784) scale(0.08 -0.08)">
      <use xlink:href="#DejaVuSansMono-64"/>
      <use xlink:href="#DejaVuSansMono-79" transform="translate(60.205078 0)"/>
      <use xlink:href="#DejaVuSansMono-6e" transform="translate(120.410156 0)"/>
      <use xlink:href="#DejaVuSansMono-6f" transform="translate(180.615234 0)"/>
      <use xlink:href="#DejaVuSansMono-6d" transform="translate(240.820312 0)"/>
      <use xlink:href="#DejaVuSansMono-69" transform="translate(301.025391 0)"/>
      <use xlink:href="#DejaVuSansMono-67" transform="translate(361.230469 0)"/>
      <use xlink:href="#DejaVuSansMono-68" transform="translate(421.435547 0)"/>
      <use xlink:href="#DejaVuSansMono-74" transform="translate(481.640625 0)"/>
      <use xlink:href="#DejaVuSansMono-2e" transform="translate(541.845703 0)"/>
      <use xlink:href="#DejaVuSansMono-6e" transform="translate(602.050781 0)"/>
      <use xlink:href="#DejaVuSansMono-65" transform="translate(662.255859 0)"/>
      <use xlink:href="#DejaVuSansMono-74" transform="translate(722.460938 0)"/>
     </g>
    </g>
   </g>
   <g id="text_15">
    <g clip-path="url(#pfed1515152)">
     <!-- dynomight.net -->
     <g style="fill: #d3d3d3" transform="translate(402.42222 251.612784) scale(0.08 -0.08)">
      <use xlink:href="#DejaVuSansMono-64"/>
      <use xlink:href="#DejaVuSansMono-79" transform="translate(60.205078 0)"/>
      <use xlink:href="#DejaVuSansMono-6e" transform="translate(120.410156 0)"/>
      <use xlink:href="#DejaVuSansMono-6f" transform="translate(180.615234 0)"/>
      <use xlink:href="#DejaVuSansMono-6d" transform="translate(240.820312 0)"/>
      <use xlink:href="#DejaVuSansMono-69" transform="translate(301.025391 0)"/>
      <use xlink:href="#DejaVuSansMono-67" transform="translate(361.230469 0)"/>
      <use xlink:href="#DejaVuSansMono-68" transform="translate(421.435547 0)"/>
      <use xlink:href="#DejaVuSansMono-74" transform="translate(481.640625 0)"/>
      <use xlink:href="#DejaVuSansMono-2e" transform="translate(541.845703 0)"/>
      <use xlink:href="#DejaVuSansMono-6e" transform="translate(602.050781 0)"/>
      <use xlink:href="#DejaVuSansMono-65" transform="translate(662.255859 0)"/>
      <use xlink:href="#DejaVuSansMono-74" transform="translate(722.460938 0)"/>
     </g>
    </g>
   </g>
   <g id="text_16">
    <g clip-path="url(#pfed1515152)">
     <!-- dynomight.net -->
     <g style="fill: #d3d3d3" transform="translate(402.42222 251.612784) scale(0.08 -0.08)">
      <use xlink:href="#DejaVuSansMono-64"/>
      <use xlink:href="#DejaVuSansMono-79" transform="translate(60.205078 0)"/>
      <use xlink:href="#DejaVuSansMono-6e" transform="translate(120.410156 0)"/>
      <use xlink:href="#DejaVuSansMono-6f" transform="translate(180.615234 0)"/>
      <use xlink:href="#DejaVuSansMono-6d" transform="translate(240.820312 0)"/>
      <use xlink:href="#DejaVuSansMono-69" transform="translate(301.025391 0)"/>
      <use xlink:href="#DejaVuSansMono-67" transform="translate(361.230469 0)"/>
      <use xlink:href="#DejaVuSansMono-68" transform="translate(421.435547 0)"/>
      <use xlink:href="#DejaVuSansMono-74" transform="translate(481.640625 0)"/>
      <use xlink:href="#DejaVuSansMono-2e" transform="translate(541.845703 0)"/>
      <use xlink:href="#DejaVuSansMono-6e" transform="translate(602.050781 0)"/>
      <use xlink:href="#DejaVuSansMono-65" transform="translate(662.255859 0)"/>
      <use xlink:href="#DejaVuSansMono-74" transform="translate(722.460938 0)"/>
     </g>
    </g>
   </g>
   <g id="text_17">
    <g clip-path="url(#pfed1515152)">
     <!-- dynomight.net -->
     <g style="fill: #d3d3d3" transform="translate(402.42222 251.612784) scale(0.08 -0.08)">
      <use xlink:href="#DejaVuSansMono-64"/>
      <use xlink:href="#DejaVuSansMono-79" transform="translate(60.205078 0)"/>
      <use xlink:href="#DejaVuSansMono-6e" transform="translate(120.410156 0)"/>
      <use xlink:href="#DejaVuSansMono-6f" transform="translate(180.615234 0)"/>
      <use xlink:href="#DejaVuSansMono-6d" transform="translate(240.820312 0)"/>
      <use xlink:href="#DejaVuSansMono-69" transform="translate(301.025391 0)"/>
      <use xlink:href="#DejaVuSansMono-67" transform="translate(361.230469 0)"/>
      <use xlink:href="#DejaVuSansMono-68" transform="translate(421.435547 0)"/>
      <use xlink:href="#DejaVuSansMono-74" transform="translate(481.640625 0)"/>
      <use xlink:href="#DejaVuSansMono-2e" transform="translate(541.845703 0)"/>
      <use xlink:href="#DejaVuSansMono-6e" transform="translate(602.050781 0)"/>
      <use xlink:href="#DejaVuSansMono-65" transform="translate(662.255859 0)"/>
      <use xlink:href="#DejaVuSansMono-74" transform="translate(722.460938 0)"/>
     </g>
    </g>
   </g>
   <g id="text_18">
    <g clip-path="url(#pfed1515152)">
     <!-- dynomight.net -->
     <g style="fill: #d3d3d3" transform="translate(402.42222 251.612784) scale(0.08 -0.08)">
      <use xlink:href="#DejaVuSansMono-64"/>
      <use xlink:href="#DejaVuSansMono-79" transform="translate(60.205078 0)"/>
      <use xlink:href="#DejaVuSansMono-6e" transform="translate(120.410156 0)"/>
      <use xlink:href="#DejaVuSansMono-6f" transform="translate(180.615234 0)"/>
      <use xlink:href="#DejaVuSansMono-6d" transform="translate(240.820312 0)"/>
      <use xlink:href="#DejaVuSansMono-69" transform="translate(301.025391 0)"/>
      <use xlink:href="#DejaVuSansMono-67" transform="translate(361.230469 0)"/>
      <use xlink:href="#DejaVuSansMono-68" transform="translate(421.435547 0)"/>
      <use xlink:href="#DejaVuSansMono-74" transform="translate(481.640625 0)"/>
      <use xlink:href="#DejaVuSansMono-2e" transform="translate(541.845703 0)"/>
      <use xlink:href="#DejaVuSansMono-6e" transform="translate(602.050781 0)"/>
      <use xlink:href="#DejaVuSansMono-65" transform="translate(662.255859 0)"/>
      <use xlink:href="#DejaVuSansMono-74" transform="translate(722.460938 0)"/>
     </g>
    </g>
   </g>
  </g>
  <g id="text_19">
   <!-- Strength -->
   <g style="fill: #333333" transform="translate(20.600625 181.19875) rotate(-90) scale(0.2 -0.2)">
    <defs>
     <path id="Montserrat-Regular-53" d="M 1965 -38 
Q 1466 -38 1008 125 
Q 550 288 301 544 
L 486 909 
Q 723 678 1123 521 
Q 1523 365 1965 365 
Q 2387 365 2652 470 
Q 2918 576 3043 755 
Q 3168 934 3168 1152 
Q 3168 1414 3017 1574 
Q 2867 1734 2624 1827 
Q 2381 1920 2086 1990 
Q 1792 2061 1497 2141 
Q 1203 2221 956 2355 
Q 710 2490 560 2710 
Q 410 2931 410 3290 
Q 410 3622 586 3900 
Q 762 4179 1126 4348 
Q 1491 4518 2061 4518 
Q 2438 4518 2809 4412 
Q 3181 4307 3450 4122 
L 3290 3744 
Q 3002 3936 2678 4025 
Q 2355 4115 2054 4115 
Q 1651 4115 1388 4006 
Q 1126 3898 1001 3715 
Q 877 3533 877 3302 
Q 877 3040 1027 2880 
Q 1178 2720 1424 2630 
Q 1670 2541 1964 2470 
Q 2259 2400 2550 2317 
Q 2842 2234 3088 2102 
Q 3334 1971 3484 1753 
Q 3635 1536 3635 1184 
Q 3635 858 3456 579 
Q 3277 301 2909 131 
Q 2541 -38 1965 -38 
z
" transform="scale(0.015625)"/>
     <path id="Montserrat-Regular-74" d="M 1696 -32 
Q 1222 -32 966 224 
Q 710 480 710 947 
L 710 4102 
L 1165 4102 
L 1165 973 
Q 1165 678 1315 518 
Q 1466 358 1747 358 
Q 2048 358 2246 531 
L 2406 205 
Q 2272 83 2083 25 
Q 1894 -32 1696 -32 
z
M 109 2982 
L 109 3360 
L 2189 3360 
L 2189 2982 
L 109 2982 
z
" transform="scale(0.015625)"/>
     <path id="Montserrat-Regular-72" d="M 634 0 
L 634 3360 
L 1069 3360 
L 1069 2445 
L 1024 2605 
Q 1165 2989 1497 3190 
Q 1830 3392 2323 3392 
L 2323 2950 
Q 2298 2950 2272 2953 
Q 2246 2957 2221 2957 
Q 1690 2957 1389 2633 
Q 1088 2310 1088 1715 
L 1088 0 
L 634 0 
z
" transform="scale(0.015625)"/>
     <path id="Montserrat-Regular-65" d="M 2061 -32 
Q 1536 -32 1139 189 
Q 742 410 518 797 
Q 294 1184 294 1683 
Q 294 2182 508 2566 
Q 723 2950 1097 3171 
Q 1472 3392 1939 3392 
Q 2413 3392 2781 3177 
Q 3149 2963 3360 2576 
Q 3571 2189 3571 1683 
Q 3571 1651 3568 1616 
Q 3565 1581 3565 1542 
L 640 1542 
L 640 1882 
L 3322 1882 
L 3142 1747 
Q 3142 2112 2985 2397 
Q 2829 2682 2560 2842 
Q 2291 3002 1939 3002 
Q 1594 3002 1318 2842 
Q 1043 2682 889 2394 
Q 736 2106 736 1734 
L 736 1664 
Q 736 1280 905 989 
Q 1075 698 1379 534 
Q 1683 371 2074 371 
Q 2381 371 2646 480 
Q 2912 589 3104 813 
L 3360 518 
Q 3136 250 2800 109 
Q 2464 -32 2061 -32 
z
" transform="scale(0.015625)"/>
     <path id="Montserrat-Regular-6e" d="M 2349 3392 
Q 2758 3392 3068 3235 
Q 3379 3078 3555 2758 
Q 3731 2438 3731 1952 
L 3731 0 
L 3277 0 
L 3277 1907 
Q 3277 2438 3011 2710 
Q 2746 2982 2266 2982 
Q 1907 2982 1641 2838 
Q 1376 2694 1232 2422 
Q 1088 2150 1088 1766 
L 1088 0 
L 634 0 
L 634 3360 
L 1069 3360 
L 1069 2438 
L 998 2611 
Q 1158 2976 1510 3184 
Q 1862 3392 2349 3392 
z
" transform="scale(0.015625)"/>
     <path id="Montserrat-Regular-67" d="M 2067 -1274 
Q 1606 -1274 1184 -1139 
Q 762 -1005 499 -755 
L 730 -410 
Q 966 -621 1315 -745 
Q 1664 -870 2054 -870 
Q 2694 -870 2995 -572 
Q 3296 -275 3296 352 
L 3296 1190 
L 3360 1766 
L 3315 2342 
L 3315 3360 
L 3750 3360 
L 3750 410 
Q 3750 -461 3324 -867 
Q 2899 -1274 2067 -1274 
z
M 1984 128 
Q 1504 128 1120 336 
Q 736 544 515 915 
Q 294 1286 294 1766 
Q 294 2246 515 2614 
Q 736 2982 1120 3187 
Q 1504 3392 1984 3392 
Q 2432 3392 2790 3206 
Q 3149 3021 3360 2656 
Q 3571 2291 3571 1766 
Q 3571 1242 3360 877 
Q 3149 512 2790 320 
Q 2432 128 1984 128 
z
M 2029 531 
Q 2400 531 2688 688 
Q 2976 845 3142 1123 
Q 3309 1402 3309 1766 
Q 3309 2131 3142 2406 
Q 2976 2682 2688 2838 
Q 2400 2995 2029 2995 
Q 1664 2995 1373 2838 
Q 1082 2682 918 2406 
Q 755 2131 755 1766 
Q 755 1402 918 1123 
Q 1082 845 1373 688 
Q 1664 531 2029 531 
z
" transform="scale(0.015625)"/>
     <path id="Montserrat-Regular-68" d="M 2349 3392 
Q 2758 3392 3068 3235 
Q 3379 3078 3555 2758 
Q 3731 2438 3731 1952 
L 3731 0 
L 3277 0 
L 3277 1907 
Q 3277 2438 3011 2710 
Q 2746 2982 2266 2982 
Q 1907 2982 1641 2838 
Q 1376 2694 1232 2422 
Q 1088 2150 1088 1766 
L 1088 0 
L 634 0 
L 634 4749 
L 1088 4749 
L 1088 2438 
L 998 2611 
Q 1158 2976 1510 3184 
Q 1862 3392 2349 3392 
z
" transform="scale(0.015625)"/>
    </defs>
    <use xlink:href="#Montserrat-Regular-53"/>
    <use xlink:href="#Montserrat-Regular-74" transform="translate(61.499985 0)"/>
    <use xlink:href="#Montserrat-Regular-72" transform="translate(102.099976 0)"/>
    <use xlink:href="#Montserrat-Regular-65" transform="translate(142.199966 0)"/>
    <use xlink:href="#Montserrat-Regular-6e" transform="translate(202.59996 0)"/>
    <use xlink:href="#Montserrat-Regular-67" transform="translate(270.199951 0)"/>
    <use xlink:href="#Montserrat-Regular-74" transform="translate(338.699936 0)"/>
    <use xlink:href="#Montserrat-Regular-68" transform="translate(379.299927 0)"/>
   </g>
  </g>
  <g id="text_20">
   <!-- subject -->
   <g style="fill: #333333" transform="translate(502.91 100.288125) scale(0.18 -0.18)">
    <defs>
     <path id="Montserrat-Regular-73" d="M 1536 -32 
Q 1120 -32 749 86 
Q 378 205 166 384 
L 371 742 
Q 576 589 896 477 
Q 1216 365 1568 365 
Q 2048 365 2259 515 
Q 2470 666 2470 915 
Q 2470 1101 2352 1206 
Q 2234 1312 2042 1366 
Q 1850 1421 1613 1459 
Q 1376 1498 1142 1549 
Q 909 1600 717 1699 
Q 525 1798 406 1971 
Q 288 2144 288 2432 
Q 288 2707 441 2924 
Q 595 3142 892 3267 
Q 1190 3392 1619 3392 
Q 1946 3392 2272 3305 
Q 2598 3219 2810 3078 
L 2611 2714 
Q 2387 2867 2131 2934 
Q 1875 3002 1619 3002 
Q 1165 3002 950 2845 
Q 736 2688 736 2445 
Q 736 2253 854 2144 
Q 973 2035 1168 1974 
Q 1363 1914 1596 1875 
Q 1830 1837 2064 1782 
Q 2298 1728 2493 1635 
Q 2688 1542 2806 1372 
Q 2925 1203 2925 928 
Q 2925 634 2761 419 
Q 2598 205 2288 86 
Q 1978 -32 1536 -32 
z
" transform="scale(0.015625)"/>
     <path id="Montserrat-Regular-75" d="M 2022 -32 
Q 1594 -32 1274 128 
Q 954 288 778 608 
Q 602 928 602 1408 
L 602 3360 
L 1056 3360 
L 1056 1459 
Q 1056 922 1321 650 
Q 1587 378 2067 378 
Q 2419 378 2678 522 
Q 2938 666 3075 941 
Q 3213 1216 3213 1600 
L 3213 3360 
L 3667 3360 
L 3667 0 
L 3232 0 
L 3232 922 
L 3302 755 
Q 3142 384 2806 176 
Q 2470 -32 2022 -32 
z
" transform="scale(0.015625)"/>
     <path id="Montserrat-Regular-62" d="M 2368 -32 
Q 1926 -32 1574 169 
Q 1222 371 1017 755 
Q 813 1139 813 1683 
Q 813 2234 1021 2614 
Q 1229 2995 1581 3193 
Q 1933 3392 2368 3392 
Q 2848 3392 3229 3177 
Q 3610 2963 3827 2579 
Q 4045 2195 4045 1683 
Q 4045 1178 3827 790 
Q 3610 403 3229 185 
Q 2848 -32 2368 -32 
z
M 634 0 
L 634 4749 
L 1088 4749 
L 1088 2368 
L 1024 1690 
L 1069 1011 
L 1069 0 
L 634 0 
z
M 2336 371 
Q 2694 371 2976 534 
Q 3258 698 3424 995 
Q 3590 1293 3590 1683 
Q 3590 2080 3424 2374 
Q 3258 2669 2976 2832 
Q 2694 2995 2336 2995 
Q 1978 2995 1693 2832 
Q 1408 2669 1245 2374 
Q 1082 2080 1082 1683 
Q 1082 1293 1245 995 
Q 1408 698 1693 534 
Q 1978 371 2336 371 
z
" transform="scale(0.015625)"/>
     <path id="Montserrat-Regular-6a" d="M 134 -1274 
Q -70 -1274 -259 -1219 
Q -448 -1165 -576 -1056 
L -416 -710 
Q -211 -883 109 -883 
Q 378 -883 522 -723 
Q 666 -563 666 -250 
L 666 3360 
L 1120 3360 
L 1120 -250 
Q 1120 -717 867 -995 
Q 614 -1274 134 -1274 
z
M 896 4102 
Q 755 4102 659 4198 
Q 563 4294 563 4429 
Q 563 4563 659 4656 
Q 755 4749 896 4749 
Q 1037 4749 1133 4659 
Q 1229 4570 1229 4435 
Q 1229 4294 1136 4198 
Q 1043 4102 896 4102 
z
" transform="scale(0.015625)"/>
     <path id="Montserrat-Regular-63" d="M 2029 -32 
Q 1530 -32 1136 189 
Q 742 410 518 797 
Q 294 1184 294 1683 
Q 294 2189 518 2573 
Q 742 2957 1136 3174 
Q 1530 3392 2029 3392 
Q 2458 3392 2803 3225 
Q 3149 3059 3347 2726 
L 3008 2496 
Q 2835 2752 2579 2873 
Q 2323 2995 2022 2995 
Q 1664 2995 1376 2832 
Q 1088 2669 921 2374 
Q 755 2080 755 1683 
Q 755 1286 921 992 
Q 1088 698 1376 534 
Q 1664 371 2022 371 
Q 2323 371 2579 492 
Q 2835 614 3008 864 
L 3347 634 
Q 3149 307 2803 137 
Q 2458 -32 2029 -32 
z
" transform="scale(0.015625)"/>
    </defs>
    <use xlink:href="#Montserrat-Regular-73"/>
    <use xlink:href="#Montserrat-Regular-75" transform="translate(48.799988 0)"/>
    <use xlink:href="#Montserrat-Regular-62" transform="translate(115.999985 0)"/>
    <use xlink:href="#Montserrat-Regular-6a" transform="translate(183.799973 0)"/>
    <use xlink:href="#Montserrat-Regular-65" transform="translate(211.199966 0)"/>
    <use xlink:href="#Montserrat-Regular-63" transform="translate(271.59996 0)"/>
    <use xlink:href="#Montserrat-Regular-74" transform="translate(327.899948 0)"/>
   </g>
  </g>
  <g id="line2d_2">
   <path d="M 510.83 114.67125 
" clip-path="url(#pf275708cff)" style="fill: none; stroke: #1f77b4; stroke-width: 1.5; stroke-linecap: square"/>
   <defs>
    <path id="m13dea2d7cb" d="M 0 2.658681 
C 0.70509 2.658681 1.381397 2.378545 1.879971 1.879971 
C 2.378545 1.381397 2.658681 0.70509 2.658681 0 
C 2.658681 -0.70509 2.378545 -1.381397 1.879971 -1.879971 
C 1.381397 -2.378545 0.70509 -2.658681 0 -2.658681 
C -0.70509 -2.658681 -1.381397 -2.378545 -1.879971 -1.879971 
C -2.378545 -1.381397 -2.658681 -0.70509 -2.658681 0 
C -2.658681 0.70509 -2.378545 1.381397 -1.879971 1.879971 
C -1.381397 2.378545 -0.70509 2.658681 0 2.658681 
z
" style="stroke: #4c72b0; stroke-width: 0.886227"/>
   </defs>
   <g clip-path="url(#pf275708cff)">
    <use xlink:href="#m13dea2d7cb" x="510.83" y="114.67125" style="fill: #4c72b0; stroke: #4c72b0; stroke-width: 0.886227"/>
   </g>
  </g>
  <g id="text_21">
   <!-- A -->
   <g style="fill: #333333" transform="translate(520.67 119.055) scale(0.16 -0.16)">
    <defs>
     <path id="Montserrat-Regular-41" d="M 13 0 
L 2061 4480 
L 2528 4480 
L 4576 0 
L 4077 0 
L 2195 4205 
L 2387 4205 
L 506 0 
L 13 0 
z
M 819 1197 
L 960 1581 
L 3565 1581 
L 3706 1197 
L 819 1197 
z
" transform="scale(0.015625)"/>
    </defs>
    <use xlink:href="#Montserrat-Regular-41"/>
   </g>
  </g>
  <g id="text_22">
   <!-- Sugar -->
   <g style="fill: #333333" transform="translate(502.91 145.947812) scale(0.18 -0.18)">
    <defs>
     <path id="Montserrat-Regular-61" d="M 2739 0 
L 2739 742 
L 2720 864 
L 2720 2106 
Q 2720 2534 2480 2764 
Q 2240 2995 1766 2995 
Q 1440 2995 1145 2886 
Q 851 2778 646 2598 
L 442 2938 
Q 698 3155 1056 3273 
Q 1414 3392 1811 3392 
Q 2464 3392 2819 3069 
Q 3174 2746 3174 2086 
L 3174 0 
L 2739 0 
z
M 1581 -32 
Q 1203 -32 924 93 
Q 646 218 499 438 
Q 352 659 352 947 
Q 352 1210 477 1424 
Q 602 1638 886 1769 
Q 1171 1901 1651 1901 
L 2810 1901 
L 2810 1562 
L 1664 1562 
Q 1178 1562 989 1389 
Q 800 1216 800 960 
Q 800 672 1024 499 
Q 1248 326 1651 326 
Q 2035 326 2313 502 
Q 2592 678 2720 1011 
L 2822 698 
Q 2694 365 2377 166 
Q 2061 -32 1581 -32 
z
" transform="scale(0.015625)"/>
    </defs>
    <use xlink:href="#Montserrat-Regular-53"/>
    <use xlink:href="#Montserrat-Regular-75" transform="translate(61.499985 0)"/>
    <use xlink:href="#Montserrat-Regular-67" transform="translate(128.699982 0)"/>
    <use xlink:href="#Montserrat-Regular-61" transform="translate(197.199966 0)"/>
    <use xlink:href="#Montserrat-Regular-72" transform="translate(256.199951 0)"/>
   </g>
  </g>
  <g id="line2d_3">
   <path d="M 510.83 160.330938 
" clip-path="url(#p2b32a617ee)" style="fill: none; stroke: #1f77b4; stroke-width: 1.5; stroke-linecap: square"/>
   <defs>
    <path id="mec5888eb0c" d="M 0 2.658681 
C 0.70509 2.658681 1.381397 2.378545 1.879971 1.879971 
C 2.378545 1.381397 2.658681 0.70509 2.658681 0 
C 2.658681 -0.70509 2.378545 -1.381397 1.879971 -1.879971 
C 1.381397 -2.378545 0.70509 -2.658681 0 -2.658681 
C -0.70509 -2.658681 -1.381397 -2.378545 -1.879971 -1.879971 
C -2.378545 -1.381397 -2.658681 -0.70509 -2.658681 0 
C -2.658681 0.70509 -2.378545 1.381397 -1.879971 1.879971 
C -1.381397 2.378545 -0.70509 2.658681 0 2.658681 
z
" style="stroke: #000000; stroke-width: 0.886227"/>
   </defs>
   <g clip-path="url(#p2b32a617ee)">
    <use xlink:href="#mec5888eb0c" x="510.83" y="160.330938" style="stroke: #000000; stroke-width: 0.886227"/>
   </g>
  </g>
  <g id="text_23">
   <!-- 0.0 -->
   <g style="fill: #333333" transform="translate(520.67 164.714687) scale(0.16 -0.16)">
    <defs>
     <path id="Montserrat-Regular-2e" d="M 678 -32 
Q 538 -32 438 70 
Q 339 173 339 320 
Q 339 474 438 570 
Q 538 666 678 666 
Q 819 666 918 570 
Q 1018 474 1018 320 
Q 1018 173 918 70 
Q 819 -32 678 -32 
z
" transform="scale(0.015625)"/>
    </defs>
    <use xlink:href="#Montserrat-Regular-30"/>
    <use xlink:href="#Montserrat-Regular-2e" transform="translate(66.199997 0)"/>
    <use xlink:href="#Montserrat-Regular-30" transform="translate(87.399994 0)"/>
   </g>
  </g>
  <g id="line2d_4">
   <path d="M 510.83 178.170938 
" clip-path="url(#p7353836dd8)" style="fill: none; stroke: #1f77b4; stroke-width: 1.5; stroke-linecap: square"/>
   <defs>
    <path id="m440da88a09" d="M 0 -2.658681 
L -2.658681 2.658681 
L 2.658681 2.658681 
z
" style="stroke: #000000; stroke-width: 0.886227; stroke-linejoin: miter"/>
   </defs>
   <g clip-path="url(#p7353836dd8)">
    <use xlink:href="#m440da88a09" x="510.83" y="178.170938" style="stroke: #000000; stroke-width: 0.886227; stroke-linejoin: miter"/>
   </g>
  </g>
  <g id="text_24">
   <!-- 1.0 -->
   <g style="fill: #333333" transform="translate(520.67 182.554688) scale(0.16 -0.16)">
    <use xlink:href="#Montserrat-Regular-31"/>
    <use xlink:href="#Montserrat-Regular-2e" transform="translate(36.099991 0)"/>
    <use xlink:href="#Montserrat-Regular-30" transform="translate(57.299988 0)"/>
   </g>
  </g>
 </g>
 <defs>
  <clipPath id="pfed1515152">
   <rect x="40.916875" y="5.76" width="443.713125" height="261.5025"/>
  </clipPath>
  <clipPath id="pf275708cff">
   <path d="M 502.91 122.59125 
L 502.91 106.75125 
L 518.75 106.75125 
L 518.75 122.59125 
"/>
  </clipPath>
  <clipPath id="p2b32a617ee">
   <path d="M 502.91 168.250937 
L 502.91 152.410937 
L 518.75 152.410937 
L 518.75 168.250937 
"/>
  </clipPath>
  <clipPath id="p7353836dd8">
   <path d="M 502.91 186.090937 
L 502.91 170.250937 
L 518.75 170.250937 
L 518.75 186.090937 
"/>
  </clipPath>
 </defs>
</svg>
