<svg xmlns="http://www.w3.org/2000/svg" xmlns:xlink="http://www.w3.org/1999/xlink" width="500pt" height="500pt" viewBox="0 0 500 500"><defs><symbol overflow="visible" id="a"><path style="stroke:none" d="M17-9.797h1.984v7.469c-.918.805-2 1.422-3.25 1.86-1.25.429-2.57.64-3.953.64-1.96 0-3.726-.426-5.297-1.281a9.548 9.548 0 0 1-3.687-3.579C1.898-6.207 1.453-7.91 1.453-9.796c0-1.883.445-3.586 1.344-5.11a9.482 9.482 0 0 1 3.687-3.562c1.57-.863 3.348-1.297 5.329-1.297 1.5 0 2.874.243 4.124.72 1.25.468 2.301 1.171 3.157 2.108l-1.282 1.313c-1.554-1.531-3.523-2.297-5.906-2.297-1.594 0-3.031.356-4.312 1.063a7.72 7.72 0 0 0-3 2.906C3.864-12.711 3.5-11.328 3.5-9.797c0 1.531.363 2.914 1.094 4.14A7.87 7.87 0 0 0 7.578-2.75c1.27.71 2.703 1.063 4.297 1.063 2.008 0 3.719-.5 5.125-1.5Zm0 0"/></symbol><symbol overflow="visible" id="b"><path style="stroke:none" d="M11.766.172c-1.95 0-3.715-.43-5.297-1.297C4.895-2 3.664-3.191 2.78-4.703 1.895-6.211 1.453-7.91 1.453-9.797c0-1.883.442-3.582 1.328-5.094.883-1.52 2.114-2.71 3.688-3.578 1.582-.863 3.347-1.297 5.297-1.297 1.937 0 3.68.434 5.234 1.297a9.508 9.508 0 0 1 3.688 3.563c.894 1.523 1.343 3.226 1.343 5.11 0 1.886-.449 3.589-1.343 5.108A9.575 9.575 0 0 1 17-1.108C15.445-.254 13.703.17 11.766.17Zm0-1.86c1.539 0 2.937-.347 4.187-1.046a7.544 7.544 0 0 0 2.953-2.907c.707-1.238 1.063-2.625 1.063-4.156 0-1.531-.356-2.914-1.063-4.156a7.597 7.597 0 0 0-2.953-2.906c-1.25-.707-2.648-1.063-4.187-1.063-1.555 0-2.961.356-4.22 1.063a7.664 7.664 0 0 0-2.968 2.906C3.86-12.711 3.5-11.328 3.5-9.797c0 1.531.36 2.918 1.078 4.156a7.61 7.61 0 0 0 2.969 2.907c1.258.699 2.664 1.046 4.219 1.046Zm0 0"/></symbol><symbol overflow="visible" id="c"><path style="stroke:none" d="M3.188-19.594h7.984c2.07 0 3.898.418 5.484 1.25 1.594.824 2.828 1.98 3.703 3.469.875 1.48 1.313 3.172 1.313 5.078 0 1.906-.438 3.606-1.313 5.094-.875 1.48-2.109 2.637-3.703 3.469C15.07-.41 13.242 0 11.172 0H3.187Zm7.874 17.797c1.72 0 3.22-.336 4.5-1.016 1.29-.687 2.29-1.628 3-2.828.708-1.207 1.063-2.593 1.063-4.156 0-1.57-.355-2.957-1.063-4.156-.71-1.207-1.71-2.149-3-2.828-1.28-.688-2.78-1.032-4.5-1.032H5.266v16.016Zm0 0"/></symbol><symbol overflow="visible" id="d"><path style="stroke:none" d="M15.547-10.11c1.281.282 2.27.84 2.969 1.672.707.825 1.062 1.891 1.062 3.204 0 1.68-.625 2.968-1.875 3.875C16.461-.453 14.63 0 12.203 0H3.188v-19.594h8.453c2.187 0 3.879.438 5.078 1.313 1.207.875 1.812 2.117 1.812 3.718 0 1.086-.265 2.008-.797 2.766-.53.75-1.261 1.313-2.187 1.688ZM5.266-17.89v7.109h6.25c1.582 0 2.8-.301 3.656-.906.863-.602 1.297-1.489 1.297-2.657 0-1.156-.434-2.035-1.297-2.64-.856-.602-2.074-.907-3.656-.907Zm6.921 16.187c1.75 0 3.07-.297 3.97-.89.894-.602 1.343-1.54 1.343-2.813 0-2.446-1.773-3.672-5.313-3.672H5.266v7.375Zm0 0"/></symbol><symbol overflow="visible" id="e"><path style="stroke:none" d="M15.484-5.234H4.563L2.219 0H.063l8.953-19.594h2.046L20.017 0h-2.172Zm-.75-1.688-4.703-10.515L5.312-6.922Zm0 0"/></symbol><symbol overflow="visible" id="z"><path style="stroke:none" d="M11.703.172c-1.937 0-3.687-.426-5.25-1.281-1.562-.864-2.789-2.055-3.672-3.579-.886-1.519-1.328-3.222-1.328-5.109 0-1.883.442-3.586 1.328-5.11a9.363 9.363 0 0 1 3.672-3.562c1.57-.863 3.332-1.297 5.281-1.297 1.457 0 2.801.246 4.032.735a8.373 8.373 0 0 1 3.14 2.125l-1.328 1.312c-1.531-1.55-3.465-2.328-5.797-2.328-1.543 0-2.949.356-4.219 1.063a7.745 7.745 0 0 0-2.984 2.922C3.86-12.707 3.5-11.329 3.5-9.797c0 1.531.36 2.914 1.078 4.14A7.734 7.734 0 0 0 7.562-2.75c1.27.71 2.676 1.063 4.22 1.063 2.35 0 4.284-.782 5.796-2.344l1.328 1.312A8.642 8.642 0 0 1 15.75-.563c-1.242.493-2.59.735-4.047.735Zm0 0"/></symbol><symbol overflow="visible" id="A"><path style="stroke:none" d="M7-17.813H.11v-1.78h15.843v1.78H9.078V0H7Zm0 0"/></symbol><symbol overflow="visible" id="B"><path style="stroke:none" d="M3.188-19.594h2.078V0H3.187Zm0 0"/></symbol><symbol overflow="visible" id="C"><path style="stroke:none" d="M19.578-19.594V0H17.86L5.266-15.906V0H3.187v-19.594h1.72L17.53-3.704v-15.89Zm0 0"/></symbol><symbol overflow="visible" id="D"><path style="stroke:none" d="M8.594.172c-1.461 0-2.856-.234-4.188-.703C3.07-1 2.04-1.613 1.313-2.375l.812-1.594c.707.711 1.648 1.281 2.828 1.719 1.176.438 2.39.656 3.64.656 1.759 0 3.079-.32 3.954-.968.875-.645 1.312-1.477 1.312-2.5 0-.79-.242-1.415-.718-1.875-.47-.47-1.055-.829-1.75-1.079-.688-.257-1.649-.535-2.875-.828-1.48-.375-2.657-.734-3.532-1.078a5.751 5.751 0 0 1-2.25-1.578c-.625-.719-.937-1.68-.937-2.89 0-.989.258-1.891.781-2.704.52-.812 1.32-1.457 2.406-1.937 1.082-.489 2.426-.735 4.032-.735 1.125 0 2.222.157 3.296.47 1.07.304 2 .726 2.782 1.265l-.703 1.656a9.822 9.822 0 0 0-2.641-1.219A9.788 9.788 0 0 0 9.016-18c-1.72 0-3.012.336-3.875 1-.868.656-1.297 1.508-1.297 2.547 0 .793.234 1.43.703 1.906.476.469 1.078.828 1.797 1.078.718.25 1.68.528 2.89.828 1.438.356 2.598.704 3.485 1.047a5.65 5.65 0 0 1 2.265 1.578c.614.7.922 1.641.922 2.829 0 .992-.265 1.89-.797 2.703-.53.812-1.351 1.46-2.453 1.937-1.105.48-2.46.719-4.062.719Zm0 0"/></symbol><symbol overflow="visible" id="f"><path style="stroke:none" d="M3.531-3.172 2.047-1.797V0h-.86v-8.906h.86v6.031l3.765-3.438H6.86L4.156-3.733 7.11 0H6.08Zm0 0"/></symbol><symbol overflow="visible" id="g"><path style="stroke:none" d="M1.188-6.313h.859V0h-.86Zm.437-1.375a.631.631 0 0 1-.453-.171A.614.614 0 0 1 1-8.297c0-.164.055-.305.172-.422a.613.613 0 0 1 .453-.187c.164 0 .313.058.438.172a.558.558 0 0 1 .187.421.613.613 0 0 1-.625.626Zm0 0"/></symbol><symbol overflow="visible" id="h"><path style="stroke:none" d="M1.188-8.906h.859V0h-.86Zm0 0"/></symbol><symbol overflow="visible" id="j"><path style="stroke:none" d="M7.031-6.313v5.547c0 1.07-.265 1.864-.797 2.375-.523.52-1.308.782-2.359.782-.586 0-1.14-.09-1.672-.266-.523-.168-.945-.402-1.265-.703l.437-.656c.3.27.664.476 1.094.625.437.156.898.234 1.39.234.79 0 1.375-.188 1.75-.563.383-.367.579-.937.579-1.718v-.813a2.64 2.64 0 0 1-1.047.922c-.43.211-.903.313-1.422.313a3.387 3.387 0 0 1-1.625-.391 2.924 2.924 0 0 1-1.14-1.094c-.274-.468-.407-1-.407-1.593 0-.594.133-1.118.406-1.579.281-.468.66-.828 1.14-1.078a3.366 3.366 0 0 1 1.626-.39c.539 0 1.023.109 1.453.328.426.21.773.523 1.047.937v-1.218ZM3.797-1a2.67 2.67 0 0 0 1.234-.281c.375-.196.66-.473.86-.828a2.33 2.33 0 0 0 .312-1.204c0-.445-.105-.843-.312-1.187-.2-.352-.48-.625-.844-.813a2.615 2.615 0 0 0-1.25-.296c-.45 0-.856.093-1.219.28-.367.188-.652.462-.86.813a2.42 2.42 0 0 0-.296 1.204c0 .449.098.851.297 1.203.207.355.492.632.86.828.362.187.769.281 1.218.281Zm0 0"/></symbol><symbol overflow="visible" id="k"><path style="stroke:none" d="M2-5.078c.195-.426.492-.742.89-.953.395-.219.891-.328 1.485-.328v.828l-.219-.016c-.656 0-1.172.211-1.547.625-.375.406-.562.977-.562 1.703V0h-.86v-6.313H2Zm0 0"/></symbol><symbol overflow="visible" id="l"><path style="stroke:none" d="M3.39-6.36c.82 0 1.454.212 1.891.626.446.406.672 1.015.672 1.828V0h-.812v-.984c-.2.336-.485.593-.86.78-.367.18-.804.266-1.312.266-.711 0-1.274-.164-1.688-.5C.863-.78.656-1.227.656-1.78c0-.532.192-.957.578-1.282.395-.332 1.016-.5 1.86-.5h2v-.39c0-.54-.153-.953-.453-1.235-.305-.28-.746-.421-1.329-.421-.398 0-.78.07-1.156.203-.367.125-.68.304-.937.531l-.39-.64a3.46 3.46 0 0 1 1.155-.626 4.528 4.528 0 0 1 1.407-.218ZM3.095-.61c.476 0 .89-.109 1.234-.328.344-.218.598-.535.766-.953v-1.03H3.125c-1.086 0-1.625.374-1.625 1.124 0 .367.14.656.422.875.281.211.672.313 1.172.313Zm0 0"/></symbol><symbol overflow="visible" id="m"><path style="stroke:none" d="M4.406-6.36c.79 0 1.422.231 1.89.688.47.461.704 1.133.704 2.016V0h-.86v-3.578c0-.656-.167-1.156-.5-1.5-.324-.344-.788-.516-1.39-.516-.68 0-1.215.203-1.61.61-.398.406-.593.964-.593 1.671V0h-.86v-6.313H2v1.172c.238-.382.563-.68.969-.89.414-.219.894-.328 1.437-.328Zm0 0"/></symbol><symbol overflow="visible" id="n"><path style="stroke:none" d="M6.953-8.906V0h-.828v-1.25c-.25.43-.59.758-1.016.984a2.986 2.986 0 0 1-1.406.329 3.18 3.18 0 0 1-1.61-.407c-.48-.27-.859-.648-1.14-1.14C.68-1.973.547-2.531.547-3.156s.133-1.18.406-1.672c.281-.488.66-.863 1.14-1.125a3.22 3.22 0 0 1 1.61-.406c.508 0 .969.109 1.375.328.414.21.754.515 1.016.922v-3.797ZM3.766-.703c.437 0 .832-.098 1.187-.297.363-.207.645-.5.844-.875.207-.375.312-.8.312-1.281 0-.477-.105-.906-.312-1.281-.2-.375-.48-.66-.844-.86a2.314 2.314 0 0 0-1.187-.312c-.45 0-.852.105-1.204.312-.355.2-.636.484-.843.86-.2.375-.297.804-.297 1.28 0 .481.098.907.297 1.282.207.375.488.668.843.875a2.4 2.4 0 0 0 1.204.297Zm0 0"/></symbol><symbol overflow="visible" id="o"><path style="stroke:none" d="M9.063-6.36c.789 0 1.41.231 1.859.688.457.461.687 1.133.687 2.016V0h-.859v-3.578c0-.656-.164-1.156-.484-1.5-.313-.344-.758-.516-1.329-.516-.656 0-1.171.203-1.546.61-.375.406-.563.964-.563 1.671V0h-.86v-3.578c0-.656-.155-1.156-.468-1.5-.313-.344-.762-.516-1.344-.516-.648 0-1.164.203-1.547.61-.375.406-.562.964-.562 1.671V0h-.86v-6.313H2v1.157c.227-.383.54-.68.938-.89a2.982 2.982 0 0 1 1.374-.313c.532 0 .989.117 1.375.343.395.22.688.547.875.985a2.37 2.37 0 0 1 1-.969c.438-.238.938-.36 1.5-.36Zm0 0"/></symbol><symbol overflow="visible" id="p"><path style="stroke:none" d="M3.766.063a3.297 3.297 0 0 1-1.641-.407A3.044 3.044 0 0 1 .969-1.5a3.254 3.254 0 0 1-.422-1.656c0-.614.14-1.164.422-1.656a2.977 2.977 0 0 1 1.156-1.141 3.339 3.339 0 0 1 1.64-.406c.614 0 1.16.136 1.641.406.489.273.867.652 1.14 1.14.282.493.423 1.043.423 1.657 0 .617-.14 1.168-.422 1.656a2.977 2.977 0 0 1-1.14 1.156c-.481.274-1.028.406-1.641.406Zm0-.766A2.42 2.42 0 0 0 4.969-1c.363-.207.644-.5.843-.875.196-.375.297-.8.297-1.281 0-.477-.101-.906-.296-1.281-.2-.375-.481-.66-.844-.86a2.35 2.35 0 0 0-1.203-.312c-.45 0-.852.105-1.204.312-.355.2-.636.484-.843.86-.2.375-.297.804-.297 1.28 0 .481.098.907.297 1.282.207.375.488.668.843.875a2.4 2.4 0 0 0 1.204.297Zm0 0"/></symbol><symbol overflow="visible" id="q"><path style="stroke:none" d="M4.516-.39a1.782 1.782 0 0 1-.61.343c-.23.07-.469.11-.719.11-.593 0-1.054-.16-1.374-.485-.325-.32-.485-.773-.485-1.36v-3.812H.203v-.718h1.125v-1.375h.86v1.375h1.921v.718H2.188v3.766c0 .375.093.664.28.86.188.198.458.296.813.296.176 0 .344-.023.5-.078.164-.063.313-.145.438-.25Zm0 0"/></symbol><symbol overflow="visible" id="r"><path style="stroke:none" d="M6.688-2.89H1.405c.04.656.29 1.187.75 1.593.457.399 1.035.594 1.735.594a2.71 2.71 0 0 0 1.062-.203 2.21 2.21 0 0 0 .86-.625l.484.562c-.281.336-.633.59-1.047.766-.418.18-.883.266-1.39.266-.65 0-1.22-.133-1.72-.407A3.03 3.03 0 0 1 .97-1.5a3.254 3.254 0 0 1-.422-1.656c0-.614.133-1.164.406-1.656.27-.489.64-.868 1.11-1.141.468-.27.992-.406 1.578-.406.582 0 1.101.136 1.562.406.469.273.832.652 1.094 1.14.27.481.406 1.032.406 1.657ZM3.64-5.626c-.618 0-1.133.195-1.547.578-.406.387-.637.89-.688 1.516h4.469c-.055-.625-.29-1.13-.703-1.516-.406-.383-.918-.578-1.531-.578Zm0 0"/></symbol><symbol overflow="visible" id="s"><path style="stroke:none" d="M6.813-2.219c0 .617-.235 1.137-.704 1.563-.468.43-1.164.664-2.078.719v1.375h-.593V.077A5.392 5.392 0 0 1 1.78-.266C1.27-.46.863-.71.563-1.016l.343-.687c.281.273.645.5 1.094.687.457.18.938.282 1.438.313V-3.86a9.235 9.235 0 0 1-1.391-.438 2.45 2.45 0 0 1-.922-.672c-.242-.3-.36-.703-.36-1.203 0-.613.223-1.129.672-1.547.446-.426 1.114-.672 2-.734v-1.39h.594v1.374c.457.012.899.086 1.328.219.426.137.797.309 1.11.516l-.297.718A4.785 4.785 0 0 0 5.125-7.5a4.214 4.214 0 0 0-1.094-.219v3.188c.594.148 1.078.293 1.453.437.375.149.688.371.938.672.258.305.39.703.39 1.203ZM1.64-6.188c0 .418.148.735.453.954.312.21.758.39 1.344.546v-3c-.594.043-1.043.204-1.344.485-.305.273-.453.61-.453 1.016ZM4.03-.702c.633-.04 1.11-.192 1.422-.453.32-.27.484-.61.484-1.016 0-.426-.167-.75-.5-.969-.324-.218-.792-.406-1.406-.562Zm0 0"/></symbol><symbol overflow="visible" id="t"><path style="stroke:none" d="M2.953-8.406V0h-.86v-7.625H.11v-.781Zm0 0"/></symbol><symbol overflow="visible" id="u"><path style="stroke:none" d="M7.281-4.203h.86V-1a4.28 4.28 0 0 1-1.407.797 5.033 5.033 0 0 1-1.687.281c-.836 0-1.59-.18-2.266-.547A4.156 4.156 0 0 1 1.203-2C.816-2.656.625-3.39.625-4.203c0-.8.191-1.531.578-2.188a4.046 4.046 0 0 1 1.578-1.53c.676-.364 1.438-.548 2.281-.548a4.83 4.83 0 0 1 1.766.313c.531.199.984.496 1.36.89l-.563.563c-.656-.656-1.5-.984-2.531-.984a3.78 3.78 0 0 0-1.844.453 3.366 3.366 0 0 0-1.281 1.25 3.447 3.447 0 0 0-.469 1.78c0 .657.156 1.25.469 1.782.312.531.738.95 1.281 1.25.54.305 1.156.453 1.844.453.863 0 1.593-.219 2.187-.656Zm0 0"/></symbol><symbol overflow="visible" id="v"><path style="stroke:none" d="M6.484-6.313 3.688 0h-.876L.017-6.313h.89l2.36 5.375 2.39-5.375Zm0 0"/></symbol><symbol overflow="visible" id="w"><path style="stroke:none" d="M12.906-8.406 10.062 0h-.937L6.672-7.156 4.203 0h-.922L.437-8.406h.922l2.422 7.234 2.5-7.234h.828l2.485 7.265 2.453-7.265Zm0 0"/></symbol><symbol overflow="visible" id="x"><path style="stroke:none" d="M6.484-6.313 3.344.75c-.262.594-.563 1.016-.906 1.266-.336.25-.735.375-1.204.375-.304 0-.59-.055-.859-.157a1.787 1.787 0 0 1-.672-.421l.39-.641c.321.32.708.484 1.157.484.29 0 .535-.086.734-.25.207-.156.399-.43.579-.812l.265-.61L.016-6.312h.89L3.281-.954l2.375-5.36Zm0 0"/></symbol><symbol overflow="visible" id="y"><path style="stroke:none" d="M3.797.063a3.417 3.417 0 0 1-1.672-.407 2.925 2.925 0 0 1-1.156-1.14 3.344 3.344 0 0 1-.422-1.672c0-.614.14-1.164.422-1.656a2.977 2.977 0 0 1 1.156-1.141 3.46 3.46 0 0 1 1.672-.406c.55 0 1.039.109 1.469.328.425.21.765.515 1.015.922l-.64.421c-.211-.3-.477-.53-.797-.687a2.316 2.316 0 0 0-1.047-.234c-.45 0-.856.105-1.219.312-.367.2-.652.484-.86.86-.198.375-.296.804-.296 1.28 0 .493.098.923.297 1.298.207.367.492.652.86.859.362.2.769.297 1.218.297.383 0 .734-.07 1.047-.219.32-.156.586-.39.797-.703l.64.438c-.25.406-.593.718-1.031.937-.43.21-.914.313-1.453.313Zm0 0"/></symbol><symbol overflow="visible" id="E"><path style="stroke:none" d="M4.016-4.906v4.578h.437c.07 0 .125.016.156.047.04.031.063.07.063.11a.152.152 0 0 1-.063.124C4.58-.016 4.523 0 4.453 0h-.781v-.656c-.375.523-.856.781-1.438.781-.304 0-.59-.078-.859-.234a1.637 1.637 0 0 1-.64-.672A1.888 1.888 0 0 1 .5-1.687a1.9 1.9 0 0 1 .234-.907 1.66 1.66 0 0 1 .641-.672c.27-.156.555-.234.86-.234.57 0 1.05.262 1.437.781v-1.86h-.438a.273.273 0 0 1-.171-.046.148.148 0 0 1-.047-.11c0-.05.015-.093.046-.124a.273.273 0 0 1 .172-.047Zm-.344 3.218c0-.414-.14-.765-.422-1.046a1.357 1.357 0 0 0-1-.438 1.35 1.35 0 0 0-1 .438 1.426 1.426 0 0 0-.422 1.046c0 .418.14.774.422 1.063.281.281.613.422 1 .422.383 0 .719-.14 1-.422.281-.29.422-.645.422-1.063Zm0 0"/></symbol><symbol overflow="visible" id="F"><path style="stroke:none" d="M2.422 0 .906-3.047h-.11a.273.273 0 0 1-.171-.047.165.165 0 0 1-.047-.125.1.1 0 0 1 .031-.078c.02-.031.04-.05.063-.062a.227.227 0 0 1 .125-.032h.906c.07 0 .125.016.156.047.04.031.063.074.063.125a.152.152 0 0 1-.063.125c-.03.031-.086.047-.156.047h-.437L2.594-.359l1.328-2.688h-.438c-.086 0-.14-.015-.171-.047a.165.165 0 0 1-.047-.125c0-.05.015-.094.046-.125.032-.031.086-.047.172-.047h.891c.082 0 .14.016.172.047a.171.171 0 0 1 .047.125.179.179 0 0 1-.032.094c-.023.031-.046.055-.078.063a.67.67 0 0 1-.203.015L2.203 1.188h.5c.082 0 .14.007.172.03.031.032.047.071.047.126 0 .05-.016.093-.047.125-.031.031-.09.047-.172.047H.813a.273.273 0 0 1-.172-.047.171.171 0 0 1-.047-.125c0-.055.015-.094.047-.125a.346.346 0 0 1 .171-.032h1.032Zm0 0"/></symbol><symbol overflow="visible" id="G"><path style="stroke:none" d="M1.344-3.39v.5c.226-.227.43-.383.61-.47.187-.093.398-.14.64-.14.25 0 .472.055.672.156.144.086.273.215.39.39.125.18.188.368.188.563v2.063h.281c.07 0 .125.016.156.047.04.031.063.07.063.11a.152.152 0 0 1-.063.124C4.25-.016 4.195 0 4.125 0H3.25c-.086 0-.148-.016-.188-.047a.165.165 0 0 1-.046-.125c0-.039.015-.078.046-.11.04-.03.102-.046.188-.046h.266v-2.016a.774.774 0 0 0-.25-.578c-.168-.164-.399-.25-.688-.25-.21 0-.398.047-.562.14-.157.087-.383.298-.672.641v2.063h.375c.07 0 .125.016.156.047.04.031.063.07.063.11a.152.152 0 0 1-.063.124C1.844-.016 1.789 0 1.719 0H.64a.273.273 0 0 1-.172-.047.165.165 0 0 1-.047-.125c0-.039.016-.078.047-.11A.273.273 0 0 1 .64-.327h.375v-2.719H.734a.273.273 0 0 1-.171-.047.165.165 0 0 1-.047-.125c0-.05.015-.094.046-.125a.273.273 0 0 1 .172-.047Zm0 0"/></symbol><symbol overflow="visible" id="H"><path style="stroke:none" d="M4.234-1.688c0 .5-.183.93-.546 1.282a1.743 1.743 0 0 1-1.282.531c-.511 0-.949-.176-1.312-.531a1.737 1.737 0 0 1-.532-1.281c0-.5.176-.926.532-1.282.363-.351.8-.531 1.312-.531.5 0 .926.18 1.281.531.364.356.547.781.547 1.281Zm-.328 0a1.44 1.44 0 0 0-.437-1.046 1.463 1.463 0 0 0-1.063-.438c-.418 0-.777.149-1.078.438-.293.293-.437.64-.437 1.046 0 .407.144.758.437 1.047.3.293.66.438 1.078.438.414 0 .77-.145 1.063-.438.289-.289.437-.64.437-1.046Zm0 0"/></symbol><symbol overflow="visible" id="I"><path style="stroke:none" d="M.906-3.39v.343c.281-.3.563-.453.844-.453.164 0 .313.047.438.14a.92.92 0 0 1 .328.407c.144-.188.289-.32.437-.406a.874.874 0 0 1 .453-.141c.239 0 .426.078.563.234.187.2.281.414.281.641v2.297h.281c.07 0 .125.016.157.047.039.031.062.07.062.11a.152.152 0 0 1-.063.124c-.03.031-.085.047-.156.047h-.61v-2.594c0-.164-.054-.3-.155-.406a.436.436 0 0 0-.344-.172.684.684 0 0 0-.39.14c-.126.087-.274.262-.438.532v2.172h.265c.082 0 .141.016.172.047s.047.07.047.11a.165.165 0 0 1-.047.124C3-.016 2.941 0 2.86 0H2.25v-2.563A.645.645 0 0 0 2.094-3a.436.436 0 0 0-.344-.172c-.117 0-.23.04-.344.11-.156.117-.324.304-.5.562v2.172h.281c.07 0 .125.016.157.047.039.031.062.07.062.11a.152.152 0 0 1-.062.124C1.312-.016 1.258 0 1.187 0h-.89a.273.273 0 0 1-.172-.047.165.165 0 0 1-.047-.125c0-.039.016-.078.047-.11a.273.273 0 0 1 .172-.046h.281v-2.719H.297a.273.273 0 0 1-.172-.047.165.165 0 0 1-.047-.125c0-.05.016-.094.047-.125a.273.273 0 0 1 .172-.047Zm0 0"/></symbol><symbol overflow="visible" id="J"><path style="stroke:none" d="M2.563-5.063v.844h-.485v-.843Zm.015 1.672v3.063H3.86c.082 0 .141.016.172.047.04.031.063.07.063.11a.152.152 0 0 1-.063.124C4-.016 3.941 0 3.86 0H.953a.273.273 0 0 1-.172-.047.165.165 0 0 1-.047-.125c0-.039.016-.078.047-.11a.273.273 0 0 1 .172-.046H2.25v-2.719h-.953c-.086 0-.149-.015-.188-.047a.165.165 0 0 1-.046-.125c0-.05.015-.094.046-.125.04-.031.102-.047.188-.047Zm0 0"/></symbol><symbol overflow="visible" id="K"><path style="stroke:none" d="M3.5-2.781v-.61h.781c.07 0 .125.016.157.047.039.031.062.074.062.125a.152.152 0 0 1-.063.125c-.03.031-.085.047-.156.047h-.453V.234c0 .22-.047.41-.14.579a1.391 1.391 0 0 1-.313.359c-.148.125-.281.21-.406.266-.117.05-.274.078-.469.078h-.922c-.086 0-.14-.016-.172-.047a.171.171 0 0 1-.047-.125c0-.055.016-.094.047-.125.032-.032.086-.047.172-.047l.938.016a.93.93 0 0 0 .515-.157c.156-.093.285-.242.39-.437A.94.94 0 0 0 3.5.188v-1c-.344.492-.797.734-1.36.734-.449 0-.84-.164-1.171-.5a1.715 1.715 0 0 1-.485-1.219c0-.469.16-.867.485-1.203.332-.332.722-.5 1.172-.5.562 0 1.015.242 1.359.719Zm0 .984c0-.383-.133-.707-.39-.969a1.279 1.279 0 0 0-.954-.406c-.367 0-.68.137-.937.406-.262.262-.39.586-.39.97 0 .386.128.714.39.984.258.261.57.39.937.39.375 0 .692-.129.953-.39.258-.27.391-.598.391-.985Zm0 0"/></symbol><symbol overflow="visible" id="L"><path style="stroke:none" d="M1.328-4.906v2.015c.207-.218.406-.375.594-.468.187-.094.398-.141.64-.141.258 0 .477.047.657.14.176.087.32.22.437.407.125.187.188.387.188.594v2.03h.36c.081 0 .14.017.171.048s.047.07.047.11a.165.165 0 0 1-.047.124c-.031.031-.09.047-.172.047H3.141C3.055 0 3-.016 2.969-.047a.165.165 0 0 1-.047-.125c0-.039.015-.078.047-.11.031-.03.086-.046.172-.046h.375v-2.016a.763.763 0 0 0-.266-.594c-.168-.156-.402-.234-.703-.234-.242 0-.45.059-.625.172-.117.086-.313.281-.594.594v2.078h.36c.082 0 .14.016.171.047.032.031.047.07.047.11a.165.165 0 0 1-.047.124C1.83-.016 1.77 0 1.688 0H.625C.539 0 .485-.016.453-.047a.165.165 0 0 1-.047-.125c0-.039.016-.078.047-.11.031-.03.086-.046.172-.046H1v-4.25H.547a.273.273 0 0 1-.172-.047.148.148 0 0 1-.047-.11c0-.05.016-.093.047-.124a.273.273 0 0 1 .172-.047Zm0 0"/></symbol><symbol overflow="visible" id="M"><path style="stroke:none" d="M1.734-3.39h1.782c.07 0 .125.015.156.046.039.031.062.074.062.125a.152.152 0 0 1-.062.125c-.031.031-.086.047-.156.047H1.734v2.172c0 .2.07.36.22.484.155.125.378.188.671.188.219 0 .457-.031.719-.094.258-.07.46-.148.61-.234a.262.262 0 0 1 .124-.047c.04 0 .078.015.11.047a.171.171 0 0 1 .046.125c0 .031-.015.07-.046.11-.086.085-.29.179-.61.28-.324.094-.633.141-.922.141-.386 0-.695-.09-.922-.266-.23-.175-.343-.421-.343-.734v-2.172H.797c-.086 0-.14-.015-.172-.047a.165.165 0 0 1-.047-.125c0-.05.016-.094.047-.125s.086-.047.172-.047h.594v-.968c0-.07.015-.125.046-.157a.152.152 0 0 1 .125-.062c.051 0 .094.023.125.062.032.032.047.086.047.157Zm0 0"/></symbol><symbol overflow="visible" id="N"><path style="stroke:none" d="M2.328-.938h.14c.145 0 .27.055.376.157A.473.473 0 0 1 3-.421a.536.536 0 0 1-.531.546h-.14a.513.513 0 0 1-.376-.156.498.498 0 0 1-.156-.375c0-.156.05-.281.156-.375a.554.554 0 0 1 .375-.156Zm0 0"/></symbol><symbol overflow="visible" id="O"><path style="stroke:none" d="M4.172-1.61H.828c.063.419.238.758.531 1.016.301.262.672.39 1.11.39.25 0 .504-.034.765-.109.27-.082.493-.19.672-.328.04-.039.082-.062.125-.062.04 0 .078.015.11.047a.171.171 0 0 1 .046.125c0 .043-.023.086-.062.125-.125.125-.352.246-.672.36-.312.112-.64.171-.984.171-.563 0-1.031-.18-1.406-.547A1.83 1.83 0 0 1 .5-1.766c0-.476.176-.882.531-1.218.352-.344.79-.516 1.313-.516.531 0 .969.18 1.312.531.352.344.524.797.516 1.36Zm-.328-.343a1.422 1.422 0 0 0-.516-.875 1.496 1.496 0 0 0-.984-.344c-.387 0-.719.117-1 .344a1.376 1.376 0 0 0-.5.875Zm0 0"/></symbol></defs><path style="fill:#fff;fill-opacity:1;stroke:none" d="M0 0h500v500H0z"/><path style="stroke:none;fill-rule:nonzero;fill:#000;fill-opacity:1" d="M234.137 221.313c.265.011.566.023 1.031.019-.2.016-.363.035-.332.063a30.52 30.52 0 0 0-1.734-.02c.03-.02.433-.016.699-.02.336-.003.27-.027.336-.042Zm97.195.14c-.7.008.066-.058.336-.058.031.011.066.023.332.02.066-.052-.535-.063-1-.083-1.902.027-.5.125.332.121Zm91.691.04c1.504-.005-.097.062-.332.081.7.02.133.113 1.036.121.164-.03.5-.05.664-.082-.399-.004-.965.004-1.032-.02.532-.003 1.266.009 1.368-.019-1.168-.015-.2-.058 0-.101-1.036.011-1.368-.047-1.704.02Zm-297.695.12c-.433.004-.8.004-.703.04.469.003.77-.008 1.035-.02.067.023-.066.058.332.062.469-.05.235-.129 0-.16-.031.05-1.566.028-.664.078Zm38.672.102c1.3-.031.066.09 1.367.058-.035-.05.168-.117-.703-.12-.066.03-.566.035-.664.062Zm220.352.238c0-.039.933-.023.703-.078h-1.371c-.098.043.066.074.668.078Zm48.949.121c1.57-.066 3.238.028 2.738-.031.598-.066-1.101-.176-1.035-.11-.168.07-2.938.137-1.703.141Zm-94.094.418c1.637-.047 1.3.125 2.371.043a4.55 4.55 0 0 1-.668-.043c.266-.004.668 0 .668-.02-.77-.007-1.703-.027-2.371.02Zm-128.328-1.039c-.266-.004-.402-.016-.367-.039-1.067.012-1.035-.039-1.703 0-.032.078.867.05 1.703.04.035.01.3.023.367 0Zm-30.129.223c.031-.051.664-.067-.336-.082-1.133.07-.133.125 1.035.16v.082c-.469-.004-.765.008-1.035.02-.2-.094-.965.074-2.734.019.832.04-.067.113 1.035.078-.3.059.465.05.332.102-.469-.032-1.637-.028-1.367-.102-.602 0-1.07.004-1.368.02-.433.066 1.098.015.665.082-.332 0-.399.015-.665.02-.066-.028.067-.06-.335-.063-1.102.023.199.074-1.368.082-.101-.04.368-.047.332-.082-.699-.035-.664.015-1.367-.02-.133.035.5.051 0 .063-.433-.094-1.433.054-2.402-.024.668-.129-.168.028-1.035-.097-.2.035.433.117-.332.12.265-.16-2.805-.113-.336-.242-1.301.004-1.735-.12-.7-.14-2.269.035-1.535-.047-2.402-.059-.867.004.469.035 0 .082.934-.004.7.032 1.367 0 0 .028.168.043.368.059-.934-.043-2.036.047-1.368.121.47-.012.036-.078.668-.082-.234.09.668-.016.7.043-.434.078.902.144-.368.16v-.101h-1c-.3.062-.066.101-.367.12-.566 0-.867-.015-1.035-.038.703-.016 1.535-.07.367-.082.434.12-1.633.027-.699.101-1.27.035-1.902-.059-2.035.02-.668-.004-.235-.067-1.035-.063-1.27.059-1.035-.031-2.735.02-.203-.098-.168.023-.703.023v-.101c-.601.054-1.969.082-3.402.02-.367.019-.102.073-1.035.058-1-.086-2.203.011-3.403-.078-.101.046-.933.046-1.367.02-.203.026.399.105-.367.1-.5-.058.398-.074-.668-.1.098.062-1-.052-1.035.019.332.02.7.039 1.035.062-.469 0-.336.035-.703.04.07-.087-.766-.013-1.031 0 .03-.036-.067-.063-.336-.083a25.53 25.53 0 0 1-1.368-.02c-.765.032.434.051-.332.063-.367-.156-1.136.016-2.738-.082-.367.047-1.035.074-2.066.082-.102-.047 1-.023 1.031-.062-1.5.015.27-.04-.7-.04-2.136.032-3.534.032-5.804.083.031-.047-1.734-.086-1.703-.063.469.008-.969.078-1.703.082-.2-.101-1.332-.195-1.399-.242-.27.047-.203.055-.335.14-1.266.032-1.934-.062-2.735.04.067-.051-.535-.063-1.035-.079.133.047.434.083.7.122-.665-.008-.766.02-1.368.02-.602-.173-1.602.038-2.066-.122-.97-.004-.801.059-1.704.059.036-.036-.066-.059-.332-.079.598.016 1.032.067 1.368 0-1.336-.02 2.5-.167.332-.242-.067.032.132.075-.332.082-1.235-.027-.5-.09 0-.082-.836-.027-1.704-.004-1.036-.078-1.902-.02-.699.031-1.367.059-3.402-.051-7.675-.07-12.312 0-.168-.082-2.637-.008-3.438.039-1.3-.059-2.668-.078-3.07 0-.234-.07-1.602.047-1.734-.02.566.008.933-.023.367-.039-1.903.035-4.739.055-5.84 0-.668.082-1.902.059-2.734.02-.133.035.53.05 0 .062-.168-.039-1.938-.086-2.372-.043.536-.008 1.137.078.336.082 0-.039-.937-.027-.703-.082-1.133.035-1.8-.011-2.734.02.766.012 1.234.035 1.367.082-.668-.031-1.168-.055-1.703 0 .137-.094-.934-.035-2.035-.082-.301.031-.531.066-1.399.062-.433-.05 1.368-.062.368-.082 0 .032-.938.067-.704 0-1.168.035-1.8-.015-2.734.043 1.2-.023.3.067 0 .078-.27-.004-.668 0-.668-.02 0-.026.602-.019.668-.038-.836.027-1.07-.082-1.367-.02.363 0 .433.035 0 .04-.102-.098-2.54-.028-1.703.019 0-.028.933-.024 1.035 0-.27.031-1.668-.004-1.371.058.8.012.734-.035 1.703-.02.102.044.668.056 1.035.083-1.535-.004-1.867-.074-2.07 0-.668-.008-.266-.078-1.367-.063-1.567.024-.266.082-.668.102-1.403-.035-.965-.121-.368-.18-1.101.004-1.433-.035-2.734-.02.066.036.234.067.7.079.034-.016 1.136-.059 1.034-.02-.101.09-1 .13-2.402.141.332-.086.367-.035-1.035-.04.234-.089-.668.017-.7-.042.067-.023.567-.02 1.036-.02-.035-.035-.203-.066-.668-.078-.3.032-.535-.007-1.367.02-.07.05.531.062.664.097-.465-.003-.567-.03-1.031-.039-.403.059-.368.137-.336.223.535.02 1.367.016.703.059 2 .007-.102-.086.664-.102.836.086.367-.027 1.703-.02.402.005.535.024.7.044-.099.011-.868.074 0 .078.202-.04.667-.067 1.37-.078 0 .027-1.437.062 0 .058.7-.004.067-.09 1.031-.078 0 .02.27.023.336.04-1.402-.009.266.05-.668.077 1.204.031.2-.066 1-.058.036.039 1.336-.036 1.368.039-.5-.032-1.5-.024-1.368.043.903-.016 5.075.039 3.438-.063.602.04 3.637.125 3.402.082-.898.004-.867-.043-1-.082 1.703.074 2.57.02 4.438.102-2.035.011-.5.113-1.7.16-.535-.004-1.269.008-1.402-.02.235-.062 1.067-.035 1.403 0v-.16c-2.239.059-3.438-.004-4.473.02.902.008-1.703.082-.668.097.434-.039 1.5-.043 2.402-.058v.058c.403.004.969-.004 1 .02-1.234-.012-1.902.05-2.734 0v.043c-.2 0-.402 0-.332.016.398.003.965 0 1.031.023-.898.012-1.066.07-2.066.078.234.074-1.102.156.367.18.23-.067 1.031-.086 1-.121a18.35 18.35 0 0 1 1.734.023c-.433.043-1.3.059-1.367.117.7.012 1.266.035 1.703-.02-1.469-.03.801-.05 1.367-.12-.168.03-.5.054-.703.082 1.137.004 1.668-.047 1.739.039 1.367.027 1.066-.043 2.035-.04-.637.083.633.04 0 .122 1.601.015.465-.078 1.031-.082.504.004.57.035 1.035.043.734-.043 2.203-.047 2.402-.121.633.004.735-.024 1.368-.02.168.024.367.043.668.059.101-.02.566-.047.703-.02-1.77.094-1.27.098-3.106.16-.133-.027-.398-.035 0-.058-1.265-.016-1.633.023-2.734.02-.133.046-.367.136-1.367.077.23.063-.035.082.367.102a64.411 64.411 0 0 1 2.035-.082c.066.023-.066.059.332.062.367-.035.934-.046 1.402-.02 0-.03-.168-.046-.367-.062 1.7-.02 1.102.063 2.403.02-.2.043-1.036.039-.336.082 1.168.016 1.437-.024 2.035-.043.101.016.035.043.367.043.836-.043-1.832-.121-.367-.203.101.066 1.535.043 1.738 0-.469-.047-1.3.023-1.371-.02 2.605-.004.07-.093 2.738-.117v.078c-1.066-.008-1.101.043-1.035.102-.933.004-1.3.082-2.07.039.3.117.77.008 1.738 0-.035.058-.902.066-1.035.12 2.203-.054 2.668.036 4.77-.062-.5.075 1.167.012 1.035.063-1.836-.012-1.067.156-1.368.18-1.203-.008-.668-.121-1.367-.16-.336.062-.168.093 0 .18 1.067-.024.899-.009 1.735.019.699-.051 1.3-.164.332-.2.203.012 1.601.043 1.703 0-1.336.004.133-.03-.668-.062 1.035-.04 2.87.039 4.105-.02-.101.04.367.047.332.082-1.265-.062-1.5.075-2.734.079.531.004.234.043 0 .062 1.2-.035 1.867.02 2.734-.043v.063c1.47-.051 1.27-.028 2.403.02.433-.036-.168-.141-.332-.204.53.027 2.5.016 1.367.082 1.168 0 .867-.082 2.035-.082.035.063-1.066.059-.668.14 1.102.016.469-.07 1.367-.019.035-.05.07-.101 1.004-.098-.668.043.098.024.367.06-.433.007-.8.023-1.035.038 1.7-.016 2.035-.012 3.402 0-.5-.066.266-.086-.668-.117.868.043 1.938-.04 2.403 0-.531.023-1.399.023-1.735.059 2.739.02 4.172.093 6.508 0-.402-.004-.968.003-1.035-.02.266-.004.7 0 .7-.02-.833.004-1.633.004-2.067-.02-.734.028.434.048-.336.06-.133-.04-1.566-.004-1.031-.079 1.3.055 2.535-.007 3.101-.101 1.2.113.067.105 1.368.219-.032-.036.265-.051.667-.059-.402.09 1.2.043 1.368.04-.602-.036-2.868-.083-1.7-.161-.535.156 2.633-.04 2.036.082 1.464.012.933-.074 1.734 0 .031-.024-.066-.059.332-.063.402.004.535.024.703.043-2.035.036-1.437.114-2.77.121.231 0 .434 0 .368.02 0 .012.031.023.332.02.101-.082 1.066.015 1.367-.043-.398 0-.8-.004-.668-.04 1.703.016 1.402-.062 3.738-.097-.699.039.235.05 1.035.058 1.133-.007.7-.105 2.067-.101-.133.156 1.437-.012 3.07.082-.164-.082 1.969-.11 2.403-.04.066-.03.835-.019 1.37-.023.133-.035-.503-.046 0-.058.465.012.032.078.665.082.734-.02.601-.086 1.703-.082.035.055-.567.039 0 .082.969-.027 1.836-.024 1.035.039 1.434.012.734-.106 2.066-.098-.398.028-.367.047.336.059.5-.05.535-.074.7-.102.402.055.27.063 1.367.043v.078c.504-.004 1.234.008 1.37-.02-.937.013-.667-.042-1.034-.058.933-.011 2.734-.074 1.367 0 1.3.028.668-.058 1.703-.043-.637.067-.035.012 1.035.02-.101.082.7.012 1.367.02-.101.046.067.077.668.081-.035-.035.367-.046 1.032-.043 0 .032-1.434.067 0 .063.667-.027.667-.098 1.738-.102.23-.058-.969-.035-.703-.097.867.058 1.136.011 2.402 0-.5.113 2.535.148 1.035.199.434-.004 1.035.082 1.367.02-.464-.012.368-.067.336-.079.598.012 2-.027 2.035.02-1.3-.016-1.3.043-1.703.078 1.903.035 3.57.008 3.438-.059 0 .02.265.024.332.04-.668-.008-1.102.093-.332.101-.168-.066.398-.082 1-.102.035.06 2.535-.027 2.07.06-1.004-.048-1.805.046-1.035.081.633-.055 2-.09 1.703-.14.363.019.7.039 1.031.058.301.059-.464.055-.332.102.5-.004 1.266.007 1.368-.02-1.368-.008.699-.035-.7-.082.868.004 1.067-.031 1.735-.039 0 .02.265.023.332.04-.598-.036-1.2 0-1.032.062 1.235.011 1.032-.063 2.067-.063.3.047 1.703.129 2.402.082-1.367.004.102-.031-.699-.059-1.234.04-1.57-.027-2.035-.082.531-.03 1.566-.058 1.7.02-.665.008-.665-.027-1.032-.04.031.04.23.067.699.08.566-.044 1.836.003 1-.08.867.04 1.836-.026 2.738.02-1.004.008-1.738.032-2.035.079.832.027 1.668-.043 1.7 0-.098.054-1.434.039-1.7.082 1.067.062 2.7-.11 1.367.02.602-.013 1.434-.009 1.7-.04-.73-.008.07-.09.367-.101.636.003 1.136.015 1.37.039-.968-.024-1.702.058-1.034.062.168-.035.367.008.668.02.066-.036 1.168-.012 1.367-.04-.067.028-.567.036-.668.06.633.019 1.566.109 2.035.019-.398-.004-.969.004-1-.02 1.77-.086 2.336-.16 4.438-.2-.266-.003-.403-.015-.336-.038 1.336-.008 2.203-.04 2.039-.082.832.012 1.265.047 1.699.082-.867.031-1.168-.024-1.7.02.333.011-.667.117-1.035.16-1.468-.063-1.57.043-3.07 0 .434.062-1.101.015-.668.078 1.403-.094 2.735-.024 4.774-.059-.27-.05-.504-.094.332-.121 1.3-.031.668.055 1.734.04.434-.052-.2-.063.336-.08.367.024 1.367.02 1.7-.042-1.403.012.269-.05-.669-.078.469 0 .735-.008 1.035-.02-1.367.07 1.368.086.336.14 1.899.032.133-.151 1.7-.14-.766.043.234.07 1.367.059.3-.063 1.469-.074 2.402-.098-.5.047-.867.043 0 .078-.465.028-1.266.028-1.7 0 0 .028-.167.043-.366.063 1.132.012.668.039 1.035.058.332-.027 1.168-.027 1.367-.058 0 .02.3.023.332.039-1.434.008.234.082-.668.098-.633 0-.23-.063-1.031-.059-.77.078.633.078 1.031.14-.664.048-1.465-.035-1.7.04.868.07 2.27.023 3.403 0-.066.086 1.903-.02 2.07.082.165-.024.368-.047.665-.063.336.067.703-.02 1.035-.02.035.036-.067.063-.332.083 1.402-.035 1.734-.032 3.402 0 .266-.04.566-.075.703-.121-.402-.008-.77-.02-1.035-.04 2.27-.007.8.16 2.402.06-.066.03-1.168.105-.336.12 1.438-.078 3.473-.004 3.407-.18 1.265-.054 2.132.06 2.734-.019.402.004.535.023.7.04-.4.034-.9.065-1.368.1-.766-.03-1.101.028-.367-.062-1.133-.008-1.434.035-2.035.063 1.57.043 3.004-.012 3.07.078.535-.035.934-.078 1.367-.121.168.047 1.938.066 2.07 0-1.203.02-2.437-.055-1.367-.098 2.934.047 4.57-.07 7.172 0 .067-.031-.133-.074.336-.078 0 .031.098.059.367.078.801-.008 1.266-.031 2.368-.02-.067-.058.101-.101.699-.12.336.062 1.437.183 2.07.16-.668-.004.2-.079.668-.082-.402.085 3.07-.067 2.066.02 1.403.003 2.004-.032 2.036-.06.504.012.87.028 1.37.04.302-.086 2.735-.02 3.071-.06-.836.032-1.004-.065-.336-.062.469.047 2.668.098 3.07.082-.132-.023-.3-.082-1.367-.101 1.801-.012 1.801.086 2.403.14-.067-.082.765-.011 1.035 0 .566-.039-.035-.023 0-.078.633-.007.867-.043 1.699-.043-.234.07.703.036 1.035.024.133.043.602.07 1.367.078-1.035-.105 4.34-.113 3.07-.04 1.067.056 1.067-.07 2.403-.062.266.04 1.035.016.332.063 1.07.016.437-.07 1.738-.043-.57.078 1.301-.016 1 .082.567-.113 1.633.035 2.735-.059 0 .02.3.024.367.04.168.027-1.332.046-.367.058 1.168-.043.535-.062.703-.098 3.136.028 6.937 0 10.277-.02-.402.028-.367.048.332.06.969-.122 4.871-.063 5.473-.02.367-.078 2.367 0 2.734-.04-.398.005-1.168-.058-.332-.062.535.078 1.235.028 2.035.082.399-.078 2.836.004 1.735-.12.468 0 .734-.008 1-.02.035.074.535.062-.332.097 2.234-.05 2.77.012 4.472-.039.297.036-1.035.067 0 .078v-.039c.367 0 .5.032.664 0-.066-.03-.632-.023-.664-.097.832.023 1.399-.063 1.7 0-1.168.008-.368.12.335.058-.636-.035 2.704.004 3.77.04.535-.07-1.168-.012-1.035-.06 2.004.016 1.836-.015 2.07.06 1.067-.02 1.469-.06 2.735-.02.734-.027-.434-.047.335-.059.465.02.664.055 1.368.059 1.836-.133 6.136.078 8.207-.121-.832.05.265.09 1.367.082.066-.024-.067-.059.336-.063-.067.047.3.067 1.035.063.066-.024-.07-.059.332-.063.3.078 1.2.004 1.734.043.235-.07-1.265-.035-1.367-.082 1.77-.043 2.067.028 3.402 0-.699-.004.5-.058.704-.078-.301.07.765.098 0 .14.5-.003 1.265.009 1.367-.019-.27-.004-.703-.004-.703-.023.636.015 1.437-.055 1.738 0-.434.012-.703.027-.703.062a7.4 7.4 0 0 0 .703.059c-.969-.152 1.867-.082 2.035-.04.266-.097.434-.097.332-.14 1.203-.008 1.035.063 1.735.082-.2-.07-.434-.125.668-.16-.235.082 1.101.066.699.16 2.836.024 3.437-.066 5.14-.062.032.023-.5.031 0 .039.801-.02 1.5-.043 2.036-.078.433.05-.168.062.332.078 1.27-.059.968-.13 2.07-.176 1.367.047.867.012 1.703.078-.367.004-.836.031-.336.04.836-.055 1.168-.126 1.367-.141a29.3 29.3 0 0 0-1.367.023c-.2-.043-1.035-.043-.332-.082-.867.016-1.836.027-3.105.02.433-.067-1.102-.016-.668-.083 1.402.016 1.738-.027 3.07-.015-.3.066 1.101.031 1.371.016 0 .042.934.027.7.082 1.034.015 1-.036 2.034-.02.067-.023-.066-.059.332-.063.368.07.704-.019 1.036-.015-.235.066 1.27.031 1.367.078-.399.004-.965-.004-1.032.02 1.668-.008.332.054 0 .101.067-.027-.535-.113-.668-.062 1.403.05-1.968.105-.703.082 1.07-.016 1.004.035 2.07.02 1.27-.11-.234-.173 1.036-.263.765.051 1.3.043 1.367.102.168-.027.367-.047.668-.063.332.04-1 .067 0 .083.535-.016-.066-.098 1.035-.083.465.051-1.336.063-.336.083 1.07-.094-.234.027 1.004.039.098-.016.297-.024.7-.02.066-.031-.102-.074.331-.082.235.106.47-.039 1.371-.02.5.079-.937.04-.668.102 1.032-.074 1.633.012 2.036 0-.836-.055 1.3-.043 1.367-.101-.235.074.234.039 1.402.101.067-.113 1.399-.035 1.7-.121.167.027.5.05.667.082-.398 0-.8.004-.668.04h1.036c.566-.052-.899-.177 1.367-.161-.266.082.703.09 1.336.121-.067.07-.903-.004-1 .04.765.046 1.566-.009 2.035-.04 1.336.027 2.902-.008 4.805.02.433-.051-1.602-.051-.336-.083.535.004.27.051 1.003.043-.667-.265 5.137-.05 5.504-.16.235.051 1.868.02 1.704.098-1.102-.059-1.872.023-2.403.062-1.035-.035.934-.062 0-.082-.101.04-1.504.004-1.367.059 1.465.008-.77.063.332.125 1.367-.016 4.07.055 3.438-.023 0 .023-.602.023-.668 0 1.535-.028 2.433.02 3.07.062.7-.047 3.437.04 2.734 0 .235-.055-1.633.012-1.367-.039 2.836-.023 2.902.023 4.77-.023-.598.074 1.968.109 1.738.082 0-.063.566-.11 1.7-.043-.165-.063.433-.082 1.034-.098.266.055-.5.05-.367.098h1.734c.036-.024-.066-.055.336-.059.633.04 2.934.094 2.735.059-.969-.078 1.57-.067 0-.118.433-.003.469-.027 1.035-.023v.082c1.27.008.633-.098 1.703-.101.098.03.566.035.7.062-.434 0-.47-.027-1.036-.02.633.098-1.133.055-1.035.118 1.203.011 1.203-.047 1.703-.078 1.5.042.8.02 2.402 0 0 .027-.433.027-.332.062 1.934-.023 1.735-.144 3.067-.102-.297-.007-1.5-.054-.664-.058.898.027 1.168.09 2.367.098.066-.024-.031-.055.367-.06.5.024.535.075 1 .099.102-.032.77-.012 1.035 0 .434-.051-.168-.063.367-.079 1 0 1.536.141 2.372.118-.036-.078.898-.051 1.734-.04.133-.078 1.902-.062 3.07-.078-.27.063.934.04.664.102-.566-.004-.867.012-1 .04 1.336.003 1.735-.122 2.739-.024.5-.043 1.132-.078 2.035-.098.097.035-1.602.063-.668.082.066-.027.367-.016.668 0-.137-.07.597-.086 1.031-.121.8.047 2.473-.04 1.703.039 1.27.012.434-.094 1.402-.098-.5.086 1.168.09.332.137 1.301.02 1.204-.09.668-.117 1.204-.02 1.47.035 2.07 0-.57.058 1.266.094.333.058-.301-.066 1.101-.027 1.367-.058-.434.043.203.043-.668.078.902.016 2.238.023 3.07-.04 1.137.04 2.203.04 1.703-.023 1.067.016.668.016 1.735 0 0 .024-.301.028-.367.043 1.468 0 1.168-.039 3.105-.042-.234-.075 1-.07 1.367-.118-.8.004-1.433.024-2.07.04-.133-.036.5-.051 0-.06-.066.02-.367.032-.668.04 1.234-.059-1.602-.106-.7-.04 0-.01.067-.023.333-.019-.23.059-.23.035 0 .098-.633-.02-1.133.059-1.367 0 .035-.027.636-.02.703-.04-1.57-.038-.469.079-1.703.06-.266-.067.367-.083.668-.118-1.137-.008-2.102-.004-2.403.04-1.035-.024.067-.051-.668-.083-.367.028-.332.075-1.035.082-.765-.03.434-.05-.332-.058-.836.035.567.082-.703.097.3-.093-1.133.012-1.031-.039.73.008.73-.078.363-.023-1.668.086-2.836-.14-4.469 0 0-.016-.265-.02-.336-.04 1.239-.042 3.07-.046 3.407-.14 1 .024.867.078 1.035.102 1.164-.074 1.066-.09.363-.18-1.965-.016-2.8.035-4.102.059-.703-.047.067-.024.332-.059-4.035.066-.964-.117-2.402-.101.035.035-.265.05-.668.062 0-.027-.598-.02-.7-.043.267-.004.403-.016.333-.039-1-.02-.598.043-.664.082.766-.008 1.266.004 1.367.04-1-.032-1.77.026-2.402-.04-.934.086.5.172 0 .238.168.047-.633-.152-1.367-.18-1.235.005-1.27-.062-2.403-.062-.3.066 1.133.027 1.031.082-.332 0-.398.016-.699.02-.8-.008-.734-.063-1.367-.082-.336.062-.535.027-1 0-.77.03.434.05-.367.062-.836.016-1.438-.07-1.703-.062-.067.027.066.058-.332.062-.969-.043-1.203-.047 0-.082-1.07.012-1.535-.016-1.371-.078 1.601-.008 2.004.004 2.738-.078.3.066.766.015 1.367 0-.367.105.7.004 1.035.058-.402.008-.8.02-1.035.04 1.703-.004 1.668-.016 3.07.078 0-.024.164-.043.332-.059-.433-.027-1.668-.008-1.699-.059.965-.074 1.301.04 2.403-.039.464.043-.903.075 0 .078.433-.042 1-.074 1.699-.097.734.012 1.101.039 1.703.058.066-.023.133-.046.7-.039-.032.024-.602.043 0 .059 1.804-.078 3.003-.133 4.804-.098-.633.016-2.067.082-1.367.078.8-.039 1.902.04 2.734-.02.27-.019-1 .024-.7-.081.802.008 1.302 0 1.704-.02 0 .043.933.028.7.082-.669.004-.868-.066-1.036-.039.57.168 2.504-.058 3.773-.062.832.027-.636.062.332.082.602.023.934-.117 0-.14-.632.027-.902-.052-1.035.019-.265-.004-.668 0-.668-.02.47-.004.368-.043.668-.062-.668.011-.765-.11-1.367-.04.399.005.535.024.7.04-1.833-.02-2.403.035-3.434.062.566-.039-.035-.027 0-.082.8.016 2.3-.023 1.367-.039-.602.078-1.102-.117-1.703-.039.469.004.402.043.668.059-.7.007-.668.054-1.367.062-2.239-.094-3.938.07-7.508-.062-1.235 0 1.133.027 1.035.082-.367 0-.434.015-.703.02-.031-.075-.633 0-1.035-.063.07.066-1.602.008-2.403.062-.031-.023.067-.058-.332-.062-2.504.082-7.039-.028-8.91.043.067-.051-.766-.051-1-.082-1.2.011-.668.058-2.402 0-.867-.012.168.043.332.058-2.602-.027-4.871.031-6.504-.039-.836-.023 0 .047-1.703.063-.031-.094-2.703.039-3.07-.063-1.032-.012-2.903.106-2.067.02-1.402-.004-.469.078-1.035.082-.969-.008.3-.153-.668-.16.101.066-.734.039-1.367.097.765-.004 1.265.004 1.367.043-.668-.039-.633.012-1.703 0-.801-.039-3.102-.09-3.77 0-.031-.031.168-.047.336-.062-.668-.008-1.469.062-1.37-.02-1.536-.004-2.2.067-3.067 0-.668-.023.23.063-1.739.063-.03-.059-3.503-.055-4.437 0-.031-.086-.23-.004-.668 0-.066-.028.035-.059-.363-.063-.07.024-.368.012-.668 0 .23.102-1.27-.027-1.371.04.3.007.3.054 0 .062-.098-.07-1.532.035-1.368-.02.301-.023 1.27-.008 1-.062-1.332-.024-.8.058-1.699.062.067-.023.602-.047 0-.062-.933.015-.066.011-.668.062-.5-.015-1.402-.058-1.734-.062.098 0-.2.039-.336.043-1.766.023-5.77-.047-7.504.039-.137-.028-.504-.04-.367-.078-1.035.035-.969.015-2.04.039v-.082c-1.366-.032-.132.09-1.03.082-.102-.14-.536.043-1.372.039-.097-.028-.5-.04-.363-.078-1.305 0-1.238.093-2.371.058.266-.008.469-.199.332-.262-.2.032-.531.051-1.031.063.597.063.265.293-1.371.219.902.011 1.234-.008 1.035-.059-1.235-.008-1.668.035-2.735.04-.167-.063.602-.071.333-.141-.266-.004-.399-.016-.332-.04-1.137.012-1.168.06-2.403.02 0 .04.266.043.7.02-.067.05-.067.097.667.101.102-.039-.332-.101.7-.082v.102c-.766.004-2.567.047-2.735.02.367-.024.969-.04.668-.102-1.3.015-1.668.09-2.738.12-1.867-.019-5.172-.003-4.77-.1-1.136.027-.734.03-1.734.042.3-.066-1.137-.027-1.035-.082 1.234.02.867.004 2.066.02-.031-.036-.23-.067-.699-.078-.066.035-.566.046-1.367.039.133-.012.867-.079 0-.079-.067.016-.266.024-.668.02v.098c.469.02 1.035.035 1.367.062-.332 0-.398.016-.7.02-.198-.035-1.6 0-1.702-.043.566.008.933-.028.336-.04-.102.012-1.036.032-1.371 0 1.203-.03.734-.035 1.37-.097-1.37-.016-1.167.063-2.738.04-.03.046-.03.097.368.12-1 .117-3.336.004-4.102.02.531-.008 1.133.074.332.078 0-.028-.602-.02-.7-.04-.269-.116.434-.175 1.032-.241-.633.007-.766-.02-1.367-.02-.2.043.433.133-.332.14-.168-.093-1.438-.007-1.703-.077.535.003.902-.028.336-.04.097.043-1.004.02-1.036.06.899.026 1.133.081 1.7.077-.7.008.535.055-.664.063-.536-.043-.801-.102-2.07-.098-.47.008-.036.074-.669.078.168-.062-1.199-.074-.367-.02-.465 0-.734.008-1 .02.668-.058-2.57-.137-2.07-.18 0 .086-.164.157-.332.18-.633-.07-1.367-.015-3.106-.02.07-.077-.265-.007-1-.019-.132-.035.5-.05 0-.062-.832.03-.867.03-1.035.062a25.53 25.53 0 0 0-1.367.02c-.031-.028.168-.047.336-.059-2.305.066-3.504-.012-5.473 0 .832-.031 1 .066.332.059a22.155 22.155 0 0 1-1-.043c.465-.055.266-.02-.699-.016-.871-.027.332-.102-.336-.102-.734.036-.3.063-.7.079h-1.034c.633-.036-.067-.059-.668-.079.433.07.168.086-1.035.06-.133.034.5.05 0 .062-.266.007-1.2-.079-2.036-.02.27.004.403.016.336.04-.902-.048-1.601.038-2.402.058.8-.051.367-.098.7-.137-.801.055-1.77-.016-2.403.059 1.168-.02.035.12-.7.117-.167-.059 1.067-.043.7-.117-.398-.051-1.3.039-1.703-.02.066-.039.535.012.668-.02-.633-.003.199-.035-.332-.042-.336.066-.703-.02-1.035-.02-.434.02-1.336.105-1.704.063 0-.028.602-.02.668-.043-1.867-.04-2.433.054-4.101-.02-.203.031-.535.05-1.035.063.031-.036-.27-.051-.668-.063-.735.031-1.469.063-2.403.082.168.05.602.078-.668.078-.066-.023.47-.031 0-.039 0 .012-.3.024-.367 0v-.039h1.035c-.035-.035.067-.062.332-.082-1.5-.023-1.398.098-2.367.043-.168.094-.5.117.332.176-.867-.012-1.468-.047-1.699-.098 1.031.008.7-.066 1-.098-.668.004-.668-.027-1-.043-.77.047.8.11-.703.122 1.137-.075-.934-.063-1.7-.04.134-.027.4-.035 0-.062-2.034-.035-1.87.172-3.07.063.098.039-.468.039-.703.058 1.004.02 1.27.031 1.703.043-.066.02-.367.031-.668.04 0-.04-.265-.044-.699-.02-.3-.04-.199-.13-1-.18-.07.023.031.055-.367.059-.367-.051.297.105-1.371.082.3-.024.469-.055.336-.102-.8-.023-.637.004-1.703-.02-.399.102.734.118 1.035.18-.734-.016-1.336-.082-2.07-.039.57-.031 0-.086-.664-.101-.602.015.03.097-.704.101-.566-.02-.867-.07-.332-.101-1.27.023-.968-.047-2.035-.04-.035.04.266.043.668.02-.07.023.067.055-.336.059-.699-.051-2.234-.055-3.07-.098-1.5.117-3.27-.024-4.805.02.633.062-2 .011-2.734.078-.469-.02-1.902-.149-1.367-.098-.137.09-1.035.059-1.739.078v-.059c-1.535-.011-1.867.051-2.367.102-1.867-.043-3.902.047-6.172-.023-.57.074-1.07.058-2.402.101.031-.062-1.035-.058-2.035-.058.23-.06-.703-.043-.703-.083.902 0 .566-.074 1.035-.097-1.203.062-1.8-.063-2.734 0 1.167.031 1.53.11 1.699.2-1.403-.017-2.133.007-2.403.058-.097-.043.067-.075.368-.098h-1.368c-.132.035.5.05 0 .059-.332-.02-.699-.04-1.035-.059-.398.063.535.047.668.078-1.836.027-1.035-.098-2.035-.121-.266.047-.2.11-1.035.121-.332-.039-.434-.094-1.367-.098-.602.012.031.094-.668.098-.102-.023-.399-.012-.7 0 .032-.035-.269-.05-.667-.058-.102.03-.77.011-1.036 0-.066.03-1.132.105-1.367.058 0-.023.602-.016.668-.039-.77.008-1.3-.004-1.703-.02-.234.137-1.5.028-3.07.098-.969-.043.199-.101-1.035-.14-.735.043.168.058 0 .12-.2.008-1.332.051-1.368 0 0-.023.602-.015.668-.038-.902-.055-.867.015-1.367.039.067-.047-.535-.063-.668-.098-2.469-.04-2.437.07-3.437.117 0-.023-.602-.015-.668-.039.703.024 1.636-.031.668-.039.168.031-1.266-.004-1.367-.02.167-.03 1.066-.019.699-.078-1.301-.023-.766.098-1.735.04-.101.039.47.039.7.058-.399.004-.965-.004-1.032.02.5.02.5.066.7.101-.668-.055-1.868-.004-1.036-.082-1.367.02-2.668-.02-1.734-.078-1.102-.016-.465.07-1.367.02.133.07.398.105-.336.16-.133-.04-.73-.051-.664-.102-1.637 0-2.106.067-2.77.121.598-.094-.203-.02-1.004-.082-.5.028-.03.11-1.367.082 1.434-.086-1.668-.02-1.035-.12-1.7.046-1.668.046-3.434.062.165.043.598.07 1.368.078-.536-.055 1.5-.055 1.367-.02v.04c-1.3-.009-2.168.007-2.735.042-.27-.043-.87-.07-.667-.14-1.235.078-2.536-.032-3.106.039.434.004.836.007.703.039-.5-.016-1.101-.028-1.035-.078 1-.02 1.2-.028 1.703.02-.433-.052 1-.083 0-.102.031.093-2.039-.047-1.371.023 1.102.035-1.234.047-1.332.094Zm235.434-.14c1.035.026-.235.085-1 .077.234-.02.332-.043.332-.078.3.012.601.024.668 0Zm-10.946.878c-.332-.074 1.371-.027 2.07-.039-.199.016-.433.035 0 .04-.734.054-1-.056-2.07 0Zm-37.968-.219c.265.012.933.032 1 0 .402 0 .3.035.367.059.8.008-.2-.09 1.035-.059.465.118-2.137.14-2.402 0Zm-173.508.38c-.5.038.668.085.332.14-1.899-.043-.434-.121-3.067-.102.164-.015.368-.031.332-.058 1.235.027 1.336.07 1.036-.04.566 0 .699.13 1.367.06Zm-24.657.26c.2-.015.364-.034.364-.062.804.032.636.043 1.703.02-.133.09-1.168.082-2.067.043Zm-65 .138h-.699c.164-.036-.469-.118.7-.098.066.016-.133.02-.333.02.2.02.766.02.665.058-.297-.004-.333.008-.333.02Zm-27.394-.559c1.336.066-1.934.207 0 0Zm2.77-.7c.035-.023.332-.01.332 0 1.136-.019.035-.046.667-.081.903.05-.464.105.704.14-.235.04-1.036-.058-1.704-.058Zm184.785-.241c.933.02 1.203.078 1.367.14-.633.004-1.168.012-1.367.04-1.204-.036.8-.044 1-.06-.133-.05-1-.058-1-.12Zm3.07.02c.398.03 1 .05 1.035.1-.601-.007-.668.016-.703.04-.531-.035.133-.07-.332-.14Zm-5.805.062c.434.004.266.047.332.078-.633-.004-.734.023-1.367.02v-.06c.531-.003.567.02 1.035.02v-.058Zm8.875.02c1.801-.009 2.602.097 3.77.179-1.301-.012-2.469-.137-3.403-.098-1.136-.023.368-.043.332-.062-.03-.02-.433-.016-.699-.02Zm15.746 0c.368-.048 1.036.054 2.07.038-.199.016-.367.032-.367.063-1.468.02-.601-.102-1.703-.102Zm8.543.038c.903.004-.465.035 0 .082-1 0-2.066 0-2.035-.062 1.067.043 1.3.043 2.035-.02Zm6.172 0c1.004.032-.433.078 0 .14-.398-.003-.297-.034-.332-.058-.3.012-.566.02-1.035.02.336-.04 1.504-.031 1.367-.102Zm-61.594.04c.602.019.434.081 1.704.062-1.938.008-.868.187-3.407.16.403-.023.137-.05 0-.02-.965-.042.903-.035 0-.101.703.004.301.074 1.004.082.735-.063 1.168-.094.7-.184Zm-1.703.28c-.699.02-.699-.101-1.03-.038-.337 0-.27-.024-.337-.04.27 0 .3-.007.336-.023.598.02 1.2.04 1.031.102Zm6.508 0c-1.168-.03-1.5.016-2.066-.038-.403.09-.77-.04-1.371.039-1.133-.02-.301-.047 0-.079-1.102-.027-.266.063-1.368.04-.199-.07 1.204-.051 1.036-.122.832-.003.832.047 1.367.063.402-.004.265-.04.336-.063.965.016.898-.027 1.699-.02.2.052-.133.075-1.035.06.937.027 1.336.07 2.402.042-.766-.062 2.672-.082 2.402.02-.933.012-.664-.043-1.03-.063-1.204.06-1.938.047-2.372.122Zm17.086-.18c.297-.01.566-.019 1.031-.019.035-.054-.566-.039 0-.078.735-.011.903.012 1.371.02-.27.031-1.804.09-1.003.117-.231.027-.735.039-1.368.043.735-.086-1.035-.008-1.734 0 .066-.094-1.203.02-1.703-.043.402-.055 1.805 0 2.402 0-.3-.008 1.703-.133 1.004-.04Zm-26.328.142c-.2-.02-.969-.032-.367-.04-.301-.023-.934.012-.668-.082h-1.035c.136.032 1.07.016.703.082-.703-.035-.434 0-1.367 0 .5.055-.036.06.332.141-.266-.035-1.102-.031-1.036-.082-1.3.012.368.082-1.367.082.035.047 1.27.043 1.703.02.23.058-2.136.02-3.406.039 1.137-.051.234-.106-.332-.16-.402.02 0 .042-.7.078-.57.004-.87-.032-1.034 0-.469-.004-.27-.051-.336-.078-.801.003-.2.093-1.367.078.867-.086-.133-.102-1.7-.078.098-.028.598-.032.664-.06-.23-.046-1.132.036-1.367.06-.566-.012-.199-.047.336-.04a61.957 61.957 0 0 0-1.035-.062c1.7-.004 4.402.008 7.54-.078-.602.05.1.062 1.034.039.133-.035-.265-.04-.699-.04 1.102-.073 1.031.087 2.734.04.934-.016-1.035-.043 0-.078.633.015 1.067.066 1.368 0 1.101.027 1.402.101 3.105.097-.969.032-1.402.172-2.402.141 0-.02.433-.016.699-.02Zm32.832-.22c.602-.007.902.032 1.035 0 1.035.02-.133.067-.332.079-.469-.016-.637-.043-.703-.078Zm104.039 0c1.3-.019 1.035.06 2.066.06-.832.019-1.03.074-2.402.058-.066-.05-.066-.094.336-.117Zm-107.441.04c-.836-.067 1 .074 1 .02.968.038-.899.035 0 .097-.832-.035-1.332.02-2.368-.02.032-.042.868-.042 1.7-.039.101-.03-.332-.035-.332-.058Zm94.093.12c-.902-.05.836-.112 1.368-.14.035.082-.235.07-1.368.14Zm22.258-.062c.5.079-1.535.004-1.035.082-.602.008-.668-.015-.703-.042-.3.023-1.266.007-1 .062-.168.047 1.535-.012 1 .059.57.007.601-.02 1.035-.02-1 .004-.535-.062.703-.078 0 .05-.57.039 0 .078.067-.027.7-.074.664-.16 1.07.004.434.11 1.703.101-.101.04-.902.04-1.367.06.133.065 1.332-.052 1.035.038.266-.05 1-.074 1.032-.137-.965-.027-1.602-.07-2.403-.101.735-.04 1.805.101 3.07.039-.132.05.633.043.368.101 1-.015.535-.093.336-.101.265-.04 2.199-.012 2.066.043.133-.055 2.469-.04 2.371.039.7-.05 1.766.047 2.067-.04.402.024 1.203.02 2.07.02.234.067-1.27.032-1.367.079-.27.054 1.601-.012 1.367.039v.043c-.703-.02-1.402-.04-2.07-.063-.5.008.132.027 0 .063-.465-.04-2.668-.118-2.735 0-1.469-.032-2.504-.012-3.105-.063-.867.004.504.035 0 .082-2.567-.086-5.703.016-7.84-.082-.469.008-.3.05-.367.082-2.938-.043-.434-.125-2.735-.101 0 .054 1.102.042 1.032.101-.801 0-1-.035-2.067-.02v-.081c-.867.003-.535.074-1 .101-1.101-.02-.836-.059-1.37.02a51.135 51.135 0 0 0-3.102-.02c-.7-.043.632-.137 1.734-.14-.067-.016-.367-.02-.367-.04-1.266.051-1.469.168-3.403.18 1.47-.07-.765-.031-1.035.02-.8-.004-.199-.09.336-.082-.101-.028-.601 0-.668.023-.101-.094 1.766-.14 3.735-.102-.899-.105 1.402.008.367-.12 1.601.019.234.093 2.035.081-.164.028-.5.051-.664.079 1.367.011.965-.075 2.402-.06.23.052-.703.04-.703.08 1.57-.056 2.07-.08 3.106-.142.199.04-.067.102 1.699.063v-.043c-.832.016-1.035-.102 1.035-.098.133.043-.5.04-1.035.04.234.038.902.054 1.703.058.398-.008.867-.035.332-.04.336-.054.637.056 1.738.02Zm-96.164-.058c.266.012.531.02 1.035.02.23.054-.703.038-.703.077-.734.004-.164-.07-.332-.097Zm-9.578.039c.066-.05.57.027 1.371 0 .23.055-.703.039-.703.082-.934.012.234-.098-.668-.082Zm4.105 0c.368-.059.368.031-.367.02.067.038.235.066.7.081-.5.063-.833-.042-1.7-.02.301-.038.766-.062 1.367-.081Zm1.368 0c.5.043.836-.016 1.703.02-.2.042-2.102.019-2.403 0-.3-.047 1.735-.047.7-.02Zm64.332.16c.332 0 .265.024.332.04 1.07-.09 2.539-.071 1.37-.161 1.098.059 2.134-.023 3.067-.04.801-.007.403.06 1.035.063 1-.011-.53-.03-.332-.062.2-.047.5.059 1.7.02-.332.109 1.035-.008.668.101.668-.04.867-.004 1.734 0-.098.04-.934.04-1.031.078-.434.063-.47-.058.332-.039-.47-.062-1.668.027-2.035-.02-.434.063 1.101.016.668.079-.301-.008-.602-.016-.668-.04-.5.012-.836.032-1.036.063.301 0 .336-.012.336-.023.633 0-.636.101.7.101-.235.02-.801.02-.7.059-.402.039 0-.168-1.37-.098-.9-.062 2.136-.062 1.37-.18-1.902.016-.836.106-2.37.118 0-.028.034-.055-.368-.059.066-.023.633-.02 1.035-.02-.066-.023-.633-.015-1.035-.019.066-.016.367-.02.367-.04-1.3.024-1.168.15 0 .18-.031.055-1.633.048-2.066.016.433-.043-.035-.035.332-.097.332 0 .265.023.367.039.602-.012.031-.036 0-.059-.7.012-.668.063-1.367.02.164.015.332.03.332.062h-1.035c.035-.039-.399-.043-.332-.082Zm17.785-.16c1.133-.016.531.039 0 .039.234.02.633.031 1.035.043-.336.02-.637.004-1.703.02.933.078-.035.187-1.735.18-.5-.118.934-.134.368-.2 1.234.039 1.902-.004 2.035-.082Zm-94.094.02h2.035c-.066.058-2.203.097-2.035 0Zm-48.25.101c-.3-.004-.332.008-.367.02-1-.02.469-.051 0-.102h1.035c.066.027-1.402.062-.332.082-.07.02-.336.008-.336 0Zm63.629-.082c.637.023.234.105 1.738.082-.535.043-.867.027-1.738.02v-.102Zm55.79.02c.87-.063 1.1.082 2.737.042-.836.079-1.77-.02-2.738-.042Zm56.823.101c-.5.02.133.031-.699.059-.469-.02-.668-.055-1.367-.059.965-.062 2.703 0 3.402-.101.832.011.766.078 1.035.12-.402-.003-.601.005-.668.02-.5-.086-1.101.059-1.703-.039Zm-38.336-.059c-.636.032.434.055.664.098.47-.008.301-.05.368-.078.601.004.77.031.668.078-1.133.02-2.536.02-1.7.102-1.101.015-.5-.067-1.035-.082-.601.043-.035.058 0 .12-.265-.011-1.101-.081-1.035 0-1.633-.081-.902-.183.332-.28 1.102.066-.164.09 1.738.042Zm-43.476.06c.097-.024.699-.017.699-.04.734.055 1.367.117 2.035.18-.133.054-1.066 0-.668-.04-.3.04-.969.063-1.367.098-.7.012-.934-.117-1.035-.02-.668-.034-.266-.034-1.367-.019 1.734-.062-.602-.035-.7-.101 1-.004 1.868 0 1.735.062.734-.023 1.535-.043 1.699-.101-.066-.024-.633-.016-1.031-.02Zm4.101.179c-.265-.012-.53-.02-1-.02.266-.02.368-.043.332-.078.868 0 1.07.035 1.371-.02.801-.011-.203.09 1.032.06-.098.019-.7.01-.7.038-.101-.043-.601-.05-1.035.02Zm10.614-.121c.898.007-.47.035 0 .082-.235-.012-1.938.007-1.704.058-.5.082-2.234-.082-2.07.02-.398 0-.265-.035-.332-.059 1.2.016 1.2-.031.332-.043.133-.023.867-.011 1.371-.015.067.035-.402.039-.336.078 1.036-.031 1.801-.082 2.739-.121Zm-146.45.023c.801-.008 1.301 0 1.704.02-.235.03-.633 0-1.036 0-.101.03.266.035.7.039-.399.054-1.832 0-1.368-.059Zm6.84 0c.77-.008 1.27.004 1.371.04-.3.034-.203-.024-.703-.02-.3.015-.5.035-.668.058-.332 0-.265-.023-.367-.039-.266-.004-.297.008-.332.02-.934-.059 1.102.007.7-.059Zm133.801.02c-.3.027-.531.062-1.367.058.168-.043-.5-.039-1.035-.039.8-.05 1.203-.023 2.402-.02Zm-91.023.02c1.035-.056.933.046 2.402 0v.058c-.902-.051-1.3-.012-2.402-.059Zm-141.34 0c.097.042-.969.019-1.035.058-.2-.098-.735.07-2.739.039-.03.023.102.035.368.043-1.633.015.468-.07.667-.121 1.27.011 1.47-.035 2.739-.02Zm294.992.058c-.066-.016.137-.02.336-.02h.668c-.067.082-1.203.117-.336.2-.3.003-.332-.008-.332-.02-1.668-.176-2.969.117-5.14 0-.333 0-.266-.024-.333-.04.266.005.301-.007.332-.019.27.082 2.239-.011 1.371-.039.067-.023.332-.011.332 0h.7c-.133.024-.598.031-.7.059 1.102-.024 2.438-.047 1.735-.121.668.008.902.043 1.367.062.434-.008.434-.062 0-.062Zm8.879.02c1.066-.016.664.054 1.734.042-.668.047-1.504-.027-2.402.016.133-.024.598-.027.668-.059Zm-19.82.081c.199.07-.735.078-1.739.078-.199-.074.703-.078 1.739-.078Zm4.437 0c1 .024-1.27.016-.703.078-.465 0-.965-.003-1 .02-.367-.012-.367-.043-1.035-.04.035-.038 1.136-.01 1.035-.058.77.04.902.04 1.703 0Zm.668 0c.664.02-.168.121-1.004.118.3-.04.5-.086 1.004-.118Zm-80.047.02c.465.004.098.058.664.058 0 .032-2.035.032-.332.04-.633.074-.969-.032-1.734-.016.234-.02.433-.04 0-.043-.235-.055 1.633.016 1.402-.04Zm2.035 0c.399.004.2.02 0 .02.067.023.633.015 1.032.019.035-.027-.73.09-.7.14-1.734-.046-.398-.113-.332-.18Zm1.7.039c1.136-.055 2.703-.04 3.437.02-.8.085-2.902.058-3.438-.02Zm-11.278.02c2.035-.075 6.074.027 2.402.081.133-.042-2.269-.074-3.437-.042-.031-.028-1.332-.079-1.367-.04-.903-.05 2.87-.054 2.402 0Zm16.082.12c-.566-.03.168-.136-.699-.097-.5-.012.133-.027 0-.063 1.066.004 3.238.07 3.437 0 .532.024.7.067 1.7.063.035.027-3.637-.059-4.438.058.067.028 1.403.036 0 .04Zm-76.308 0c-.102-.05 1.336-.015 1.035-.082.765.075 1.5.032 2.367.083.27-.02.168-.106 1.371-.122.031.055-.57.04 0 .082 1.098.008.8-.062 2.066-.042-.199.101 2.668.019 2.403.12-.668-.007-.633-.054-1.735-.038-.367.003-.199.039-.668.039.336.058.903-.028 1.368.023-.098.04-.934.035-1.032.078-.504-.008.133-.027 0-.062-1.336-.012.098.14-1.37.12.3-.058.3-.062 0-.12-.567.027-2.337-.012-1.368.062-.101.043-1.168-.023-1.035-.062-.566-.008-.633.015-.668.043-1.465-.028-1.668-.078-1.367-.141-.301-.059-.5.047-1.367.02Zm49.28-.101c-.8-.043.903.02 1.704 0-.969.012-.668.094-1.703.102.367-.024.3-.043-.367-.043-.164-.028 1.336-.047.367-.059Zm33.536 0c.367-.043 2.137-.008 3.07-.02-.168.094-2.437-.039-2.738.059-.531-.004.3-.031-.332-.039Zm-69.805.02c.368.003.168.019 0 .019.102.027.836.02 1.371.023-.77.04.164.055 0 .118.399 0 .598.004.664.02.036-.11 2.172.066 0 .081.403-.062.235-.058-.664-.082-.968.051-1.738-.008-2.07.063-.633-.008-.867-.043-1.703-.04-.2.048-.965.075-.332.16-1.5 0-.5-.144-1.734-.16-1.168.036.601.07.332.118-.301 0-.235.027-.332.043-.434-.008-.434-.063 0-.063-.133-.02-1.336-.07-1.004 0-.7-.027 1.07-.187 2.039-.12.566.01.566-.11 0-.098.199-.055 1.332.082 1.031-.04h1.371c-.07.016-.336.02-.336.04h1.367c-.398-.032-.398-.051 0-.083Zm65.332 0c.868 0 1.07.03 1.739.042-.27.043-2.137.02-1.739-.042Zm-84.183.261c.101-.02.703-.012.703-.039-1.07-.023.133-.055-.703-.16 1.367.05 1.836.195 0 .238-1.332-.011 1.367-.027 0-.039Zm4.136-.039c.836.031-1.265.059-1.734.078v.063c-1.168-.094.402-.121-.668-.242 1.336-.028 1.902-.051 3.07-.02a1.029 1.029 0 0 1-.332 0c-.867.008-.27.094.668.059-.27.03-1.101.03-1.703.043.168-.016.367-.036.332-.059-.73-.012-.465.035-1 .04 0 .026 1.336.077 1.367.038Zm-67.433-.101c.703.011-.734.09-.668.18-.73.007-.899-.012-1.367-.02.234-.04 1.035-.043 1.367-.078-.133-.078-1.066.011-1.367-.043-.434-.09 1.734.035 2.035-.04Zm98.234-.02c.367.004.164.02 0 .02.067.023.664.023.664 0 .535.007-.297.035.336.039.133.043-.969-.004-1-.016-.77-.004-.168.07-.367.098-.668 0-.434-.055-1.371-.04.57-.035 1.07-.07 1.738-.1Zm-37.304.04c-.133-.024.8.097 1.699.038 1.203.004-.735.07.336.063-.903.011-2.004-.035-3.403-.04-.336-.038 1.934-.015.664-.042.067-.02.368-.012.368 0 .27.004.3-.008.336-.02Zm1.367.14a1.262 1.262 0 0 1-.367 0c-.434.004-.434.058 0 .058-.567.075-.536-.054-1.704-.02.5-.046.735-.081-.332-.038-.867-.059 2-.04 2.403 0Zm-51.352-.121c-.101.027-.836.02-1.367.02.668.054 3.438.023 3.77-.02.3.015.601.027.699 0-.031.02.734.05.336.062.066.02.668.012.668.04 1.03-.012-.301-.044 0-.079 1.234.055.964.008 2.402 0-.234.059-1.836.04-1.703.117a23.068 23.068 0 0 0-3.07.043c1.07-.094-2.938-.136-4.805-.12.066.038-.602.026-1.367.058-.535.062-.368-.07.668-.04-.036-.042-1.438-.007-2.036-.019.7-.035.301-.062.668-.078 1.333-.004.133.016.364.059h1.035c-1.8-.098 2.605-.012 1.004-.02 1.398.004 1.433-.059 2.734-.023Zm32.164-.02c.235.008 1.336.05 1.371 0 1.399.047.164.102 1.735.102-.102.023-.703.011-.703.039-.598-.02-1.2-.035-1.032-.102-.703.012-.902-.012-1.37-.02.167.028.433.044 1.034.044.102.05-.132.086-1.035.078-.398-.051-.133-.098 0-.14Zm3.438.082c.168-.015.367-.035.336-.062.5-.063.199.082.699.082.398-.004.266-.035.332-.063.601.016 1.07.024 1.371 0 .934.035-1.07.059-1.371.082-.664 0-.434-.054-1.367-.039Zm10.277-.062c.168-.055.535.03 1 .02-.332.058-1.332.027-.664.1-1.004.02-1.07.02-2.07 0-.633.055-.035-.05 1.035-.019-.133-.027-.602-.031-.668-.058-.668.117-2.402-.07-1.367.02.3-.016.5-.04.664-.063.234.054 2.57.027 2.07 0Zm34.203.062c-1.37-.015-1.37-.015-2.738 0-.031.024.066.035.332.04-.297.023-.73.015-1.332 0 .031-.024.332-.012.332 0 1.102-.044.168-.044 0-.102 1.336-.047 2.469.062 3.07-.016.5.016-.101.027.336.078Zm-161.863 0c-.2-.02-.77-.02-.668-.062.5.011.867.03 1.367.043-.965.015-.832.097-2.066.097.398-.027.3-.09 1.367-.078Zm124.223-.043c-.032.031-.067.059.336.063.132.047-.97.023-1.004.058-.368-.004-.23-.039-.7-.039.168-.031 1.067-.015.7-.082-.297 0-.332.012-.368.024-.699-.032.368-.043 1.036-.024Zm-56.79 0c.47.008 0 .04-.367.043 1 .063-.601.094-.668.16.434-.054 1.801-.023 2.036-.043.402.016-.067.07 1.035.082-.133.051-1.336.004-1.035-.039-.301.07-1.47-.015-1.368.059-1.535.016-1.902-.035-2.035-.098 1.5.028.735-.078 2.035-.062 0-.02-.398-.016-.668-.02.102-.039.668-.054 1.036-.082Zm35.57 0c.766.004.735.055.7.102-.3-.016-.766-.02-1.367-.02.133-.031 1.066-.015.668-.082Zm-30.097.082c.067-.023.332-.012.332 0 .867.004 1.07-.031 1.367-.058.47.004.301.05.336.078-.8-.047-.632.031-1.703.02.067-.024-.066-.036-.332-.04Zm22.922-.039c.402.004.2.02 0 .02.469.066 1.867.007 2.402.039.067.05-1.668.039.336.062-.367.043-2.172.008-3.07.02.2.054 1.434.05 1.367.117-1.066-.035-2.234-.066-2.402-.16 1.535-.004 1-.059 1.367-.098Zm-1.7.04c.134-.032.434.007 1 0-.835.073-1.335.042-3.07.058v-.04h-1.035c1.5-.066 1.868-.019 3.438 0 .066-.015-.133-.019-.332-.019Zm45.845 0c-.47.03-.868.07-1.704.077.067-.054.57-.082 1.704-.078Zm-68.434.038c-.938-.035.898 0 .332.063-.734.023-1.535.043-1.703.097-1.367-.078 1.535-.082 1.371-.16Zm6.137.14c.402-.007.402-.097 0-.038-.965 0 .836-.055-.668-.04.636-.027 2.07-.058 2.738-.019-.035.051-1.336.028-1.367.078-.067.016.133.02.332.02-.133.031-.434-.008-1.035 0Zm5.14-.1c-.566.035-1.234.062-2.402.062.766-.04 1.2-.098 2.402-.063Zm-64.664.081c.832.004.098.067 0 .078-.836.012-.77-.035-1.738-.019.3-.07 1.203.008 1.738-.059Zm-3.07.04c-.102.042-1.3.019-1.367.062-.703-.121-1.77.07-1.739-.02-.265.008-.53.02-1.03.02.964-.106 3.1-.07 4.136-.063Zm73.574 0c.899-.012-.27.097.664.081.07.028-1.734.04-.664.06-1.402.042.098-.122 0-.142Zm16.75.062c-.066-.047 1.2-.012 1.7-.02 0 .02-.399.016-.669.02.137.016.301.035.668.039-.265.047-1.199-.035-1.699-.04Zm-18.488-1.102c-.566.055-1.3.106-1.7.02-.6.05.4.07-.335.101-.965-.03-.5.032-2.067 0 .301.075-.836.07-1.035.118.633.011 1.434-.059 1.735 0-.532 0-.235.058 0 .02 1.035-.036-1.266-.079 0-.118.367.082 2.203-.063 3.402-.063-.465-.042.902-.074 0-.078Zm-6.137.121c-.836-.003-1.27.125-1.035.118 0-.024.934-.024 1.035 0-.234.004-.433.004-.367.023 1.535-.008 1-.062 1.367-.101-.836-.028-1.066.007-1.367-.02.2 0 .398-.004.367-.02Zm-18.152 1c.168-.035.367.008.7.02.065-.09 1.804.027 2.034-.02-.398-.03-1.3-.03-1.699-.062.465-.008.566-.023 1.035 0-.101-.055-1.101-.055-1.37-.098-.099.04-.567-.011-.7.02 1.336.035-.77.14 0 .14Zm33.867 0c.133.063-1.336.204 0 .282.3-.051.469-.11.367-.184.832.04 1.2-.02 1.703.043 1.567-.184-1.203.016-2.07-.14Zm5.504.06c-.3-.056.469-.052.336-.099-.668.04-2.805-.02-2.07.02.703.02.703.078 1.734.078Zm140.976-.54c-1.101-.047-1.667.066-1.035.098-.265-.067 1.403-.024 1.036-.098Zm-39.707-.96c1-.036 1.567-.005 1.704-.063-.97-.016-.868.03-1.704.02-.066-.02-.566-.048-.668-.02.47.007.368.046.668.062Zm-80.414.077c.102-.027.5-.035.332-.078-1.03.027-2.199-.02-3.066-.062v.082c1.633-.024 2.066.023 2.734.058Zm2.07-.117c.165.027-.402.102.333.098-.031-.043 1.27-.11.668-.121-.2.043-.535.043-1 .023Zm-57.491.32c-.836-.007.367-.054.332-.082-.598.012-1.434.012-1.7.04.602-.005 1.036.093 1.368.042Zm12.644.14c1.77.009 1.004-.1 2.738-.12-.703-.04-2.27-.028-2.738-.082.066.039-.367.047-.332.082.633.004.734-.024 1.367-.02-.234.059-.234.04 0 .098-.465 0-.765-.008-1.035-.02.137.036-.5.051 0 .063Zm-12.312.02c-.7-.02-1.301.063-.7.06.102-.036.567.01.7-.02-1-.016.8-.032.335-.083-.601.004-.8-.019-.667-.058-.403.004-1-.004-1.036.02.27.003.668 0 .668.019-.199 0-.398.004-.332.02.598 0 .868.015 1.032.042Zm4.773 0c-.934.004-1.035.06-1.367.098 1.265-.02 1.469-.101 2.402-.14-1.035.019-2.07-.063-2.402-.02.465.02 1.3.02 1.367.062Zm259.39.118c-.8.035-1.464.074-2.367.101-.3-.062 1.368-.183.668-.14-.933-.008-.3.074-1.035.082.735-.09-3.238-.09-3.402 0 .598-.004.8.015.668.058 1.601-.008 2.234.043 3.433.059.868-.078 3.407-.098 4.774-.02.902-.113 2.535.016 3.77-.078.335.035-1.036.067 0 .078.667-.066.132-.086 1.035-.117.066.027-.133.07.332.078-.067-.039.5-.043.703-.058-1.871.007.097-.086-1.371-.102-.598.031.636.106-1.032.102-.601-.02-1.168-.04-1.035-.102-.469 0-.734-.012-1.035-.02.633.075-2.336-.019-1 .06.098 0 1.035-.005 1.7.019-.598.066-1.333.03-2.403 0-.434.05.203.062-.332.082-.832-.043.3-.09-.332-.121.266-.004.664 0 .664-.02-1.434.063-2-.008-2.734 0 .5.04-.836.05.332.059Zm12.348.082h1.035c.067-.059-1.27-.07-.367-.121-1.504.011.067.078-.668.12Zm-6.84.218c-.5.067-.234-.078-.703-.078.836.012 1.602.032 1.703-.039-.968.02-1.402.02-2.402 0 .969.086-1.066.067-1.367.137.766.016 1.367.043 2.402.039-.168-.027 1.336-.047.367-.059Zm2.735.082c.203-.042 1.703-.007 1.37-.082-.901.012-1.237-.007-1.034-.058-.668-.004-.77.023-1.371.02-.364.074.703.066 1.035.097-.2 0-.399.02 0 .023Zm-348.047.38c.3-.07-1.102-.036-1.367-.02.398-.059.199-.074-.668-.102.332.086-.934.055-1.703.14-.2-.062.8-.081-.368-.097-.898.02-1.699-.011-3.07-.023-.297.066.3.078.668.101-.933-.011-.668.04-1.367.04.133-.032-.434-.051-.668-.02 1.203.023-1.602.078-.332.101.066-.023.367-.011.668 0-.336-.085 1.332-.054 1.7-.101.667.14 2.437.094 4.472.043.133-.035-.5-.055 0-.063.066.028.734.024 1.035.04-.035-.032.234-.047.668-.06.031.013.066.024.332.02Zm283.684-.102c.066.105-2.137.05-2.735.02.098.113 3.969.081 2.735-.02Zm13.347.082c-.566 0-.168-.055-.668-.063-.035.063-1.336-.058-1.367 0 .633.059 1.035.055 2.035.063Zm12.344-.02c-1-.011.535-.03.336-.062-.867.004-1.77.004-1.703.062.77-.027 1.27.051 1.367 0Zm-18.484.078c-.832.024.535.106.668.063-.903-.02.601-.059 1.367-.043-.032-.074-.367-.055 0-.117-1.2-.031-.2.066-1.035.058-.567-.039.035-.023 0-.082h-1v.102c.402.004.8.004.668.039-.336 0-.403-.016-.668-.02Zm-308.676.082c-.535-.003-.067-.035.336-.042.097.03.433.144 1.031.082-1.332-.051.402-.09-.332-.122-.3.059-1.102-.011-1.734 0-.27.047.398.137.699.082Zm2.402-.039c-.066.016-.3.024-.7.02.434.047-.167.059.368.078-.066-.027 1.734-.039.668-.059-.937.036.266-.035.7-.042-.47.003-1.302-.067-1.403-.02.234.004.434.004.367.023Zm22.223.079c.133.039-.469.039-.668.062 1.734-.012 3.238-.012 4.105-.023-.8-.004-.8-.051-.336-.079-.867.028-1.066-.011-1.367.02.735.05-.668.02-1.734.02Zm0 0"/><path style="stroke:none;fill-rule:nonzero;fill:#000;fill-opacity:1" d="M436.254 226.79a.262.262 0 0 1 .016-.2c.035.055-.008.144-.016.2Zm.32-2.15c-.039-.003-.031.04-.066.04.023.062.004.164.055.199a.534.534 0 0 1 .011-.238Zm-.133-.038c.016.062-.03.191.028.21 0-.082.004-.16-.028-.21Zm.04-1.153c-.047.02-.063.067-.051.14.047.016.03.005.078.016a.32.32 0 0 0-.028-.156Zm1.265-2.578c-.008.11-.09.149-.14.215.097.059.019.293.117.351a2.16 2.16 0 0 0 .023-.566Zm1.125-2.2c.04-.073.18.036.234-.01-.105-.024-.14-.118-.261-.122-.012.027.039.047 0 .055-.047.015-.074-.055-.106-.016.028.055.11.012.133.094Zm-.703-.265c.004-.027-.004-.05-.027-.05-.012.023-.047.054 0 .066 0-.012.011-.02.027-.016Zm-1.035 9.098c.039.023.055-.02.023.043.051 0 .028-.063.082-.055-.02.024-.011.031.024.028.047-.028-.035-.028 0-.043h.043c0 .02-.016.02-.016.043.031.003.05.02.094.011.012-.027-.004-.047.055-.054 0 .03-.028.043-.012.054.035-.02 0-.035.05-.054-.015-.012-.03-.055-.038-.106.011.016.023.008.062.016.125-.164.29-.235.453-.32.094-.051.207-.063.305-.118.133-.074.258-.238.426-.304.003-.098.093-.114.117-.188-.024-.004-.031.02-.035 0 .03-.012.046-.047.078-.066.125.004.215.047.344.039.015-.078.03-.16.066-.223.058-.031.176.04.238 0-.058-.012-.125-.016-.172-.039.121-.121.414-.176.489-.387-.028-.015-.047.035-.051 0a.487.487 0 0 1 .254-.105c.004.043-.02.05-.028.082.262-.16.575-.274.793-.477-.074 0-.086-.129-.105-.136.02.242-.29.152-.332.332-.055.035-.07-.016-.117-.028-.067.055-.121.121-.2.16-.015-.113.125-.222.266-.187-.012-.067.004-.106.078-.09.024-.047-.008-.047-.015-.094.07-.031.039-.02.093-.05-.007.05.008.078.055.078v-.106c.262-.11.457-.289.719-.398-.02-.004-.04 0-.043-.016.183-.035.262-.184.383-.277-.118.011-.215.11-.305.105.07-.148.453-.137.32-.36-.004.044.016.106-.027.11-.008-.02-.05-.004-.05-.027-.005-.082.007-.152.05-.188v.067c.105-.051.187-.117.305-.156-.016.125-.13.152-.184.238.086-.028.215-.082.223-.149-.012.02-.032.032-.063.028.02-.035.055-.059.078-.094.031.035.098.039.121.082-.086.078-.175.145-.226.25.066-.035.16-.023.183.027.063 0 .067-.058.133-.05.02.066-.039.054-.05.09.093-.036.117-.145.183-.212.02.02.047.036.082.04.05-.086.203-.141.195-.239-.043.059-.12.153-.168.156.059-.082.079-.187.168-.234.09-.05.04-.117.055-.2.023-.112.195-.331.281-.32.028-.078.149-.14.2-.16-.06.137-.137.247-.176.399.215-.297.465-.5.73-.727v-.07c.09-.055.195-.125.293-.2.094-.066.219-.128.238-.238-.16.125-.34.231-.52.333.188-.165.403-.305.61-.45.024.032.133-.011.149.078.156.106.593-.066.582-.289 0-.035 0-.109-.078-.093-.008.02.015.07-.016.066.008-.144-.238-.035-.238-.172.07-.031.144-.062.199-.105-.074.02-.149.043-.223.062a2.916 2.916 0 0 1-.957-.531c.035-.012.063.043.078 0-.054-.024-.113-.117-.156-.117.012 0 .016.023 0 .027-.293-.184-.562-.457-.824-.625 0 .031-.055.008-.078.012-.016-.059-.113-.035-.121-.106-.118.098-.196-.105-.278-.062-.011.058.036-.024.024.039-.043-.012-.078-.035-.09-.082.059.012-.012-.024.027-.024.028-.011.04.059.063.012-.031-.035-.133-.031-.106-.094-.023.016-.144.028-.078-.011-.05.011-.11.043-.133-.016.02 0 .063-.047.028-.066-.004.023-.035.011-.055.015.008-.043-.023-.047-.012-.093-.062-.02-.156-.008-.172-.067.032.008.067.027.063-.023-.027-.035-.121 0-.117-.07-.028-.005-.028.019-.04.027-.062-.028-.113-.219-.187-.106.043 0 .094-.004.094.04a.683.683 0 0 1-.266-.055c.028-.012.059-.02.067-.051-.047-.035-.055-.113-.117-.133-.008.047.046.031.039.078-.118.047-.16-.086-.278-.078-.039.016.055.04.012.066-.047-.011-.086-.03-.094-.082.067-.078.211.063.254-.035-.074-.066-.21.016-.293-.027.02-.016.055-.016.067-.043-.051-.008-.102.035-.133-.035.004-.031.035-.028.039-.055-.156.012-.27-.137-.371-.16.078.02-.055.027-.04 0-.019.059.075.066.04.094-.075-.043-.086-.153-.172-.184 0 .047.012.113-.055.106-.004-.063-.004-.122.043-.133-.062-.012-.117-.082-.121 0-.082.004-.047-.106-.094-.137-.199-.016-.273-.156-.476-.172-.035.016.011.067-.012.067-.063-.008-.09-.051-.105-.106.015-.012.046-.012.05-.039-.164-.055-.234-.2-.437-.21.035.042-.043.085-.016.116.078-.097.14.14.215.04.035.03.012.05.012.105.039.015.105.004.133.027-.012.02-.012.05-.04.055-.097 0-.167-.028-.199-.094-.027.012-.011.066-.05.066-.137-.132-.325-.156-.415-.277.028-.012.047.04.055 0-.027-.008-.012-.05-.055-.039-.015.047-.015.059-.027.09-.07-.027 0-.07-.027-.106-.016.024-.09 0-.117.028-.012-.043-.043-.07-.067-.106 0 .016-.004.032-.027.028.012-.086.066-.035.082.011 0-.039.012-.066.039-.078.016.04.004.078.016.09.015-.047 0 .043.027.027.012-.05-.016-.082-.027-.144-.036.043-.067.023-.067-.016.012.051-.055.02-.082.028.02-.051-.055-.075-.023-.094.023.066.078.062.156.055.004-.043-.047.004-.063-.04-.003.016 0 .036-.015.04a.207.207 0 0 0-.106-.094c-.054.05.051.101.028.12-.036-.015-.051-.038-.07 0 .03-.085-.02-.132-.036-.144.012 0 .012-.011.024-.015.046.004-.024.058.011.054.043-.035.012-.046 0-.093-.03-.008-.027.023-.062.011.008-.02.008-.054 0-.066-.016.031-.024-.05-.082-.023-.008.046.062.015.066.05-.02.012-.02.043-.05.04.011-.02.011-.032 0-.051-.06.03-.028-.032-.083-.028-.011.043.043.02.043.051-.043-.016-.011.047-.054.027.03-.043-.035-.082-.082-.09-.012.04.047.016.043.051-.02 0-.04 0-.043.012.058.063.011.078.093.11.008-.024-.02-.036 0-.04.032.024.016-.007.043-.015.036.023-.023.054.012.066.008-.023.106.02.04.04.026.027.023-.005.054-.012-.035.035.043.02.039.066-.043-.027-.121-.031-.106.012-.007-.02.07-.02.067 0-.024.02-.024.093.027.082.043-.016-.066-.047-.015-.067.035.024.062.07.093.067-.054.02-.05.02-.093.05 0-.015.015-.015.015-.039-.058-.007-.047.04-.094.012-.003.07.067-.02.067.043-.063.004-.192.168-.293.04.02-.044.05-.075.078-.106-.047.023-.047.015-.117.011.008.043-.024.043-.04.055.012-.055-.09-.023-.12-.094.058-.007.09.008.132.012-.003-.16-.238.027-.28-.05 0 .015 0 .03-.024.027.004-.028.027-.036.023-.07-.21.003-.48-.18-.754-.235-.07-.16-.148-.316-.398-.293.004.105-.082.125-.024.223.047.007.036-.04.079-.04-.032.055-.043.126-.067.188-.039-.027-.105-.09-.133-.082.149.102.29.422.133.625.043.711.113 1.457.094 2.188.05.046.027.207-.012.238.016.02.063.008.063.043.004.031.004.062-.028.062-.054-.008-.082-.047-.156-.039 0 .024-.035.078 0 .094-.004-.035.016-.043.05-.04.044.024.075.06.071.134.137.011.13-.125.2-.188-.07.2-.008.395-.044.57-.027.16-.105.29-.105.465-.031-.234.11-.492 0-.675-.012.058.004.144-.04.171-.042-.054.024-.093.013-.156-.004-.031-.051-.02-.067-.043-.004-.054.043-.062.055-.105-.031-.031-.047.012-.067.027.04.195-.152.469 0 .61-.03.046-.03.12-.078.144.059.219-.054.52.063.707a.703.703 0 0 1 .082-.215c-.012.164-.016.336-.055.477-.039-.031-.008-.059.016-.09-.035-.02-.043.05-.055.012-.012-.055.047-.125-.012-.149.012.094-.02.211 0 .27.004-.031.036-.031.04 0 .003.054-.051.054-.055.105.101.11.02.371 0 .528 0-.067.008-.149-.04-.172-.034.03-.023.101-.066.12.211.114.016.477.082.716.075 0 .043-.106.118-.106.02.016.007.067.039.067.02-.16.02-.344.082-.465-.02.097.011.261.011.343.036.02.043-.003.055.016.008.063-.016.09-.016.145.075-.012-.015-.184.055-.2.02-.004.05.07.078.016.004.02.024.02.028.04-.043.222.011.343-.028.597-.047-.074.04-.278-.105-.348-.031.016.027.05-.012.066-.023 0-.012-.03-.043-.023.008.031.035.059-.023.05.035.06.086.106.066.227-.027 0-.02-.035-.055-.027-.074.145.149.27 0 .371.094.031.102.176.028.211-.04 0-.016-.066-.055-.066.02.043.016.105.016.16h-.043c.007.152-.051.351-.078.504-.012-.078-.036-.223.015-.278-.02-.062-.082-.078-.082-.16.024-.004.031.016.055.016-.13-.156.11-.317.012-.48-.004.038.011.093-.024.093-.027-.074-.09-.18-.043-.25.016.016.012.047.043.05-.058-.108.027-.366-.121-.382-.004.156.07.262.027.36.004-.04-.02-.047-.054-.043 0 .058.03.085.039.136-.082.106-.11.23-.133.422.062.024.066.176.027.223.008.02.051.004.055.027-.008.145-.133.332-.016.438.004-.075-.062-.172 0-.223.04.168.047.367.094.531-.043-.02-.047-.082-.094-.094.032.09-.082.211-.039.317.016-.04.012-.094.04-.117.054.074.038.218.038.343.059.04.141.055.176.118-.094-.055-.195-.094-.265-.172-.02.113.18.12.238.199-.04-.016-.063.066-.055.078.031.024.043.106.04.16.073-.015.054.059.105.067.03-.02-.024-.04.027-.04 0 .032.008.055.027.067-.015-.035.086.016.118.016.043-.121.187-.102.253-.082-.023.03 0 .074.028.039-.043-.059.094.035.039-.04-.008.028-.05-.019-.04-.054Zm1.219-8.844c.035.008.046-.008.039-.039.062.008 0 .063.054.063.004.023-.011.023-.015.043h-.024c-.011-.067-.031-.04-.082-.067.004-.02.024-.02.028-.039.02.004-.004.016 0 .04Zm.12.012c-.015 0-.007-.012 0-.012-.007-.039-.05-.039-.081-.055.054 0 .09.004.175-.011-.03.035-.039.008-.082.027a.04.04 0 0 1 .012.04c-.012-.005-.023.003-.023.01Zm-.042-.078c-.004-.031.062.008.043-.04h.023c0 .012.008.012.016.012-.004.036-.047.028-.082.028Zm3.691 5.715c.031-.016.04-.059.09-.051-.012.035-.05.043-.09.05Zm-5.469 2.507c.008.004.028.043-.011.04.015.023.066.011.093.027.004.074-.004.137-.054.16.039.047.004.035.066.066-.012.012-.016.028-.012.051-.05.012-.062-.015-.105-.012.012.02.035.024.05.04-.034.035-.066-.047-.12-.04-.004-.046-.02-.085-.012-.148.031 0 .015.04.039.043.062-.016.039-.188.043-.215.004-.02.023.012.023-.012Zm.082.028c-.058.004-.011-.059-.015-.082.031.004.008.054.015.082Zm.067-.055c-.04-.004-.024-.055-.028-.094.043.024.036.047.028.094Zm-.028-.476c-.054-.012-.003-.098-.015-.122.031.016.008.086.015.121Zm.957-.055c.028-.082.18-.012.239 0-.074.086-.137-.059-.239 0Zm.278-.051c-.012-.047.043-.023.05-.016.13-.004-.046.04-.05.016Zm-.414-.043c.015-.043-.028-.133-.012-.223a.806.806 0 0 0 .293.079c-.02.105.016.152.078.175-.074.043-.234-.039-.36-.03Zm-.133.055c-.024-.004-.027-.024-.024-.055h.063c.016.043-.04.02-.04.055Zm.664-.067c-.023.04-.082-.004-.117 0v-.105c.039 0 .086-.008.105.012-.008.035-.058.093.012.093Zm-.61 0c-.007-.007-.023-.011-.038-.011.003-.07-.016-.164.011-.215.051.031.024.195.028.226Zm-.702-.226c-.055.008-.016-.078-.024-.117.02.027.02.074.024.117Zm.757-.024c-.027-.234-.058-.574.09-.73-.05.226 0 .516-.012.73h-.078Zm1.407-.293c.058-.023-.024-.054-.04-.082.008-.195-.074-.41-.093-.62.066.011.031-.083.094-.083.027.121-.028.32.105.336.004.113-.047.235-.027.317.043 0 .039-.047.039-.094.023.05.043.11.05.172-.054.023-.082.074-.168.066a.107.107 0 0 0 .012-.066c.035-.008-.012.062.028.054Zm-1.446-.238c-.043-.105.016-.324.04-.453.034.148-.048.293-.04.453Zm1.961-.012c-.023-.011.016-.066.012-.093.043-.008.05.023.094.011-.008.055-.082.04-.106.082Zm-.21 0c-.04-.015.011-.12-.028-.136.012-.036.043.007.066 0a.351.351 0 0 0-.039.136Zm.382-.187c.004-.067.137-.047.145 0-.047.027-.082-.004-.145 0Zm-.066-.027a.107.107 0 0 1-.067-.012c.008-.012.016-.024.016-.04.031-.007.027.024.062.012-.004.012-.011.02-.011.04Zm-.543-.028c-.028-.137-.063-.183-.067-.344.035-.011.051-.035.094-.039a1.699 1.699 0 0 0-.027.383Zm.636-.035c.016-.082.07-.121.094-.187.012.05-.035.156-.094.187Zm-2.109-.203c-.035-.016.012-.066.012-.09.043.024-.02.055-.012.09Zm1.262-.012c-.043-.035.011-.094.011-.133.032.028-.003.098-.011.133Zm1.402-.012c-.043-.046-.055-.167.027-.175-.003.058.024.152-.027.175Zm-2.316-.027c-.032-.004-.028-.035-.055-.039 0-.094.016-.172.066-.215.004-.031-.039-.015-.043-.039-.062-.012-.058.047-.105.055a.693.693 0 0 0 .055-.215c-.004-.031-.036.016-.028.04-.004-.224.008-.536 0-.743a.884.884 0 0 1 .094.504.532.532 0 0 0 .094-.25c.113.152.02.43-.016.594-.02-.008-.027-.032-.023-.063-.035.121.05.285-.04.371Zm2.492-.094c.008-.117.066-.3.066-.437.106.039.133.223.133.332-.062.004.004-.121-.055-.121-.082.043-.058.187-.144.226Zm-1.473-.37c.028.105-.047.214-.066.316-.012-.086.062-.2.066-.317Zm1.711.238c-.031-.07.04-.153.04-.239.077.016.152.043.226.067-.086.062-.196.097-.266.172Zm-3.105-.055c-.028-.027.02-.086 0-.145.054.04.035.098 0 .145Zm3.636-.106c.016-.09.102-.12.196-.132-.063.05-.102.117-.196.132Zm.145-.011c-.008-.067.059-.059.094-.078 0 .058-.04.074-.094.078Zm-.504-.2c0-.035.02-.054.055-.054.008.012.015.023.011.039a.085.085 0 0 1-.066.015Zm-.57-.027c-.024.004-.024-.012-.04-.016.016-.03.024-.074.04-.105.035.023.004.094 0 .121Zm.488-.027c-.04.008-.055-.012-.05-.051.015.016.07 0 .05.05Zm-3.215-.543c-.18-.375-.172-.82-.191-1.32.183.046.062.289.117.425.016.035.027 0 .027-.023.051.031.008.16.024.234.304-.66-.086-1.625.07-2.504.031.059.047.332.07.473.055-.102.008-.305.024-.445.015-.075.086.03.14-.07.016-.223-.039-.372-.023-.59.324.457.043 1.167.117 1.722.078.028.02-.078.094-.047a.55.55 0 0 1 .074.184c.05.008.074-.016.07-.067.055.243-.07.512-.28.567.124.27.038.664.019.988-.043-.07-.032-.406-.117-.52-.094.278-.008.852-.235.923v.07Zm1.996-.094c-.031-.14-.125-.316-.05-.476a.31.31 0 0 1 .062.21c.098-.023.02.184-.012.266Zm-2.879-.039c-.043-.14-.007-.383.016-.57.008-.035.035-.055.055-.078-.024-.051.047-.106.011-.055-.015.246.004.496-.082.703Zm3.078-.66h-.039c-.007-.05-.035-.082-.027-.149.078.024.031-.078.094-.066.004.082-.016.145-.028.215Zm-3.035-.028c-.03-.042.024-.117.012-.187.04.05 0 .137-.012.188Zm6.403-.015c.027-.043.07-.067.082-.121.043.023.058-.008.093-.024.008.008-.097.13-.175.145Zm-3.606-.156c-.031-.036-.012-.125 0-.164.04.043-.004.113 0 .164Zm3.82-.043c-.035.004-.035-.028-.039-.051.043.008.063-.008.051-.055.016 0 .012.016.016.028.031-.004.008-.06-.016-.055.09-.074.145-.211.266-.211a.338.338 0 0 1-.13.117c.02.098-.093.16-.147.227Zm-.015-.133h-.04c-.003-.047-.015-.086-.027-.133.055.016.067.07.067.133Zm-3.817-.133c-.02-.094-.05-.227-.027-.316.078.062.035.21.027.316Zm1.192-.21c-.047-.099-.004-.298.015-.438.196.082.04.308-.015.437Zm-3.621-.028c-.012-.004-.024-.008-.024-.028-.093-.007-.047-.144-.043-.25.012-.18.004-.433.028-.543.008.278.035.54.039.82Zm-.422-.067c-.031-.015-.043-.043-.082-.054-.008-.036.027-.024.027-.051a.227.227 0 0 1 .055.105Zm4.308-.023c-.011 0-.011-.008-.011-.016.004-.035-.008-.047-.04-.039.005-.078-.007-.137-.015-.199.027-.016.11.008.172 0l-.106.254Zm-4.125-.137c-.015-.039-.019-.289.083-.304-.02.109-.028.234-.082.304Zm1.91-.078c-.07-.094-.046-.289-.05-.453.031.012.031.059.05.082.126-.191.106-.492.067-.77h.082c.152.352-.047.614-.082.957-.055-.105-.039.137-.066.184Zm2.415-.055h-.082c.02-.054.047-.093.058-.156.024.04.047.11.024.156Zm-.278-.023c-.004.016-.035.012-.054.012-.024-.028-.008-.098-.012-.145.055.008.031.102.066.133Zm-.171-.043c-.036-.063-.008-.18 0-.25.109.055-.02.144 0 .25Zm.144-.145c-.023.004-.012-.117-.027-.039-.012.004-.012-.004-.012-.015 0-.008-.004-.012-.016-.012.008-.027.067-.004.094-.016.008.051-.047.036-.039.082Zm-1.246 0c-.04-.043.02-.105.012-.156.023.028-.008.113-.012.156Zm1.55-.011c-.042-.02-.011-.117-.038-.16.043-.008.047-.051.093-.051-.003.078-.054.12-.054.21Zm-.238-.094c-.015-.012-.046-.012-.066-.027a.058.058 0 0 0 .012-.04c.035-.003.031.024.07.016.004.028-.012.031-.016.051Zm-.078-.04h-.043v-.054c.036-.004.043.02.043.055Zm.118-.01c.007-.063.03-.102.039-.161.09-.008.093.074.105.145-.05-.004-.082.023-.144.015Zm-3.981-.016c-.066-.051-.043-.301-.035-.477-.008-.031-.04.02-.055-.016-.008-.062.016-.09.012-.144.035-.008.027.027.043.039.047-.07.023-.219.078-.29.059.099-.004.294-.027.395.078.114.039.387-.016.493Zm3.887-.028c-.055-.023 0-.086-.024-.129h.051c.02.028-.016.086-.027.13Zm-1.192-.039c-.027-.031-.015-.14.028-.144.004.062-.02.097-.028.144Zm-2.824 0c-.125.016-.094-.265-.039-.305.008.06-.012.09-.016.133.043-.004.004-.086.055-.082.031.078-.015.156 0 .254Zm.305-.144c-.082-.047-.172-.297-.028-.332.02.097.024.214.028.332Zm2.387-.133a.674.674 0 0 1 0-.293c.027 0 .003.047.011.066.031.008.028-.02.028-.039.043.004.058.04.093.055-.039.074-.105.121-.132.21Zm.027-.426c-.043-.02.008-.059 0-.094.027.008.012.082 0 .094Zm2.613-.16c0-.024-.02-.024-.015-.05.039-.013.027.034.066.026-.008.016-.027.024-.05.024Zm-5.293-.078h-.039c.012-.09.031-.172.05-.254.036.074-.023.164-.01.254Zm.266-.094c-.024-.09-.028-.273.012-.344.03.098-.008.242-.012.344Zm3.406-.172c-.02-.031.035-.05 0-.055.074-.03.09.11.188.094-.02.02-.02.074.011.043-.054.074-.16-.07-.199-.082Zm-.86.094c-.042.008-.038-.024-.081-.012-.004-.043.027-.05.011-.094.036 0 .043.02.082.012-.02.02-.011.059-.011.094Zm.278-.012c-.09-.012-.156-.05-.254-.055.07-.02.207.004.254.055Zm1.418-.11c-.008.02-.035-.003-.063.016 0 .02-.007.051.012.051-.133.074-.207-.078-.332-.09-.004-.03-.023-.05-.015-.093-.051.027-.055-.036-.079-.067-.023 0-.035.008-.039.024-.035 0 .016-.036.012-.051.059.027.121.055.184.078.027 0 .011-.043.027-.05h.066c-.093.128.102.136.188.128-.024.05.008.035.039.055Zm-3.766.067c-.05-.008.02-.156-.027-.199.059-.027.055.168.027.2Zm1.008-.836c.082-.015-.012-.066.028-.117-.024.004-.012.043-.055.024v-.051c.027.039.07-.012.066.066.055 0 .051-.062.106-.027-.008.066-.059.008-.078.054.011.016.039.008.078 0-.008.22-.078.504-.09.793-.113-.199-.07-.535-.082-.804 0-.024.062.043.027.062Zm.848.664c-.008-.035-.102.016-.09-.039.148 0 .031-.05.063-.133.039.086.046.036.066.118-.008.054-.07-.016-.04.054Zm.133-.027c-.043-.02.03-.078-.051-.078-.043-.02.05-.008.05-.028.02.008 0 .016-.011.016.008.031.059.027.066.063-.011.027-.007-.012-.027-.012-.016.008-.027.02-.027.039Zm-.727-.012c-.039.004 0-.125 0-.172.07.04-.016.106 0 .172Zm.461-.015c-.02.023-.098.023-.121 0 .02-.032-.004-.04.016-.051.023-.004.027.012.015.012 0 .027.059.003.051.039.02 0 .02-.04 0-.04.004-.027.047.016.039.04Zm.027 0c.004-.012.016-.008.028-.012-.008-.012-.012-.024-.028-.024.016-.042.047.004.055.012-.004.024-.023.031-.055.024Zm1.024-.094c-.012-.035.027-.024.027-.05-.031-.028-.105-.02-.094-.09.098.05.293-.075.262.062.05-.028.156-.043.2 0-.032.027-.06.062.015.066-.012.074-.078-.05-.066.04-.024.003-.028-.009-.028-.028-.023.012-.008.043-.039.016-.05.12-.195.023-.277-.016Zm-.68.027c-.004.02-.023.024-.023.043-.028-.027-.032-.07-.043-.082.004-.012.027-.008.027-.023.04.004-.039.082.04.062Zm-.105-.027c-.012-.004-.012-.027-.04-.024-.007-.05.028-.05.028-.093.016.004.012.027 0 .027.105.027-.043.012.012.09Zm-.633 0c-.027-.02-.031-.067-.027-.117.019.03.019.074.027.117Zm.539-.078c.012.015.031.015.027.043-.043-.004-.058-.032-.05-.082.011.004.011.027.011.039.012.004.012-.004.012-.012.016.004.008.012 0 .012Zm-2.559-.66c.024.043.008-.07.055-.055a.622.622 0 0 1-.016.266s-.02-.02-.011-.028c-.067.113.027.32-.04.465.005.09-.027.027-.015-.027v-.98c.016-.005.012-.024.016-.04.023 0 .043-.008.05-.027.02-.059-.062-.02-.05-.067.011 0 .011-.023.011-.039.067.02.055.059.094.012.004.184-.008.227-.012.371h-.07a.367.367 0 0 1-.012.149Zm2.43.675c-.035-.004-.008-.047 0-.054.031-.02.047.035.05 0 .016.004.012.027.028.027-.047.082-.047-.066-.078.027Zm-.07-.066c0 .023-.063-.008-.051-.04.031-.003.05 0 .066.013 0 .015-.015.011-.027.015 0 .008.008.012.012.012Zm-1.79 0c-.066-.203-.038-.5-.117-.691-.007.097.047.246.028.398-.051-.023-.028-.125-.059-.172-.058.11.035.274 0 .438-.078-.145-.039-.352-.09-.504.016.011.036.015.067.015-.008-.058.015-.144-.012-.175.082-.032.211.007.305.015-.012.164-.008.344-.055.477 0-.098 0-.196-.082-.211-.02.11.02.273.016.41Zm1.407-.332c-.016.027-.059-.016-.05-.055-.013 0-.013.02-.017.028a.072.072 0 0 0-.054-.012c-.012-.07.058-.05.094-.067.054.04-.028.083.027.106Zm-1.274-.371c-.16-.016-.191-.012-.316-.04-.004-.042.023-.054.012-.105.199.004.379.028.558.051h.051c.02.008 0 .016-.012.012-.097 0-.187-.008-.265-.024-.024.02-.028.059-.028.106Zm.918-.082c0 .023-.101.031-.082-.012.04.02.047-.012.082.012Zm-.027-.09v.027c-.012.004-.023.012-.043.012.024-.047-.05-.05-.105-.039.046.023.054.008.054.066.012 0 .016-.007.016-.015.043.023-.035.039-.055.039.035-.074-.152-.024-.066-.117a.083.083 0 0 0-.043.039c-.024-.028-.074-.028-.078-.078.086.058-.012-.043.12-.028a.427.427 0 0 0 .2.094Zm-.637.027c-.218.016-.558-.05-.824-.066.008-.082-.023-.129-.015-.215.148-.059.261.074.453.133.183.055.277.078.386.148Zm.664-.066c-.027-.02-.035-.059-.07-.07.031-.059.102.03.07.07Zm.051-.027v.05c-.027-.02-.015.004-.05 0 0-.03.015-.05.05-.05Zm-1.433-.36c-.051.008-.196-.008-.2-.094.063.036.137.059.2.094Zm1.289-.039c-.02-.05-.012-.055-.028-.094-.015.04-.015-.043-.039-.039.004.016.016.121.067.133Zm2.77 6.59c-.02 0-.052.008-.052-.012.04-.066.133-.074.168-.144-.23.117-.457.312-.609.476.145-.129.363-.175.492-.32Zm.48-.45c-.004.028-.047.009-.043.04.011.004.027 0 .027.012-.035.015-.062.035-.078.07.05.004.062-.028.094-.043-.02-.035.023-.078 0-.078Zm-3.438-5.902c-.012-.043-.012-.027.012-.05-.012-.04-.082-.016-.09-.028.027-.011.027-.023.012-.043.02 0 .027-.004.039-.011 0-.02.008-.047-.012-.055.004.031-.004.05-.027.055-.016-.036.039-.055-.012-.055-.023.02.008.086-.016.121.028.023.059.012.067.027-.016.024-.024.051-.055.063.02 0 .031.008.043.015-.008-.035.008-.046.04-.039Zm-.25-.32c-.023.008-.031.027-.027.055.043.035.05.035.105.066.004-.047-.039-.05-.039-.094-.023 0-.043.004-.054.016-.024-.035.058-.027.015-.043ZM63.559 96.098c-.016-.766-.02-4.059.007-4.094-.004 1.23.012 3.86-.007 4.094Zm-.016 6.62c-.016-1.198-.004-3.827.012-4.66-.008 1.399.011 4.227-.012 4.66Zm.078-10.148c.008-1.765-.012-5.023.012-5.824-.008 1.766.012 5.024-.012 5.824Zm-.453 93.086c-.012-.765-.016-4.058.012-4.058-.008 1.199.011 3.828-.012 4.058Zm.062-18.398c-.015-1.196-.003-3.824.012-4.656-.008 1.398.012 4.226-.012 4.656Zm-.011-10.68c.004-2.492.004-5.156.031-4.656-.023.797 0 4.39-.031 4.656ZM64.703 94.7c-.008 2.66.012 4.59.012 6.387-.008 9.016-.055-4.625-.012-6.387Zm-1.398 43.051c0 1.797-.004 3.227-.02 4.09.004-1.66-.008-3.992.02-4.09Zm.027-15.469c-.016-.402-.008-9.582.016-14.672.004 4.325 0 15.07-.016 14.672Zm1.383-6.058c-.02 5.957-.02 15.472-.031 19.797-.012 4.292-.024-7.653-.02-18.63.008-11.015.059-1.93.07-6.421.012-4.461.024 4.289.008 8.75-.012 4.422-.008-2.961-.027-3.496Zm.094-.266c0-2.16.004-4.023.02-5.254.007 2.227.015 4.356-.02 5.254Zm-.68 319.055c-.27-.735-.488-5.922-.645-11.614-.035-1.414-.07-2.832-.109-4.289a3799.105 3799.105 0 0 1-.219-37.664c-.02-6.418-.027-12.875-.035-19.36 0-2.151 0-4.304-.004-6.522-.035-7.786.004-15.239 0-22.887-.004-3.828-.015-7.719-.05-11.711-.02-1.996-.012-10.547.011-13.574-.058 2.925-.035-11.114-.031-10.48.02-1.563.031-3.196.035-4.825.008-1.629.016.434.023 2.496.012-1.832.016-3.66.02-5.523-.004-1.954-.004-3.91-.008-5.922-.023-6.555-.004-13.61.024-19.696-.004-16.636.02-62.28.03-54.03.017 9.316.04 4.526.044 2.03 0-1.464 0-3.425.004-5.62-.008.066-.02.23-.024.562-.008-4.156-.039-10.012-.011-15.735.007 1.063.007 2.43.02 2.926 0-2.894.026-.597.038-2.492.008-5.293.016-7.82.012-1.7.027-5.687.07-9.316.105-14.937-.004-2.129-.004-.965-.015-.332-.016-3.726-.008-12.277-.024-13.074-.015-.8-.008 23.156-.027 18.895-.008-1.73 0-5.32-.012-6.688-.004 3.027-.004 6.754-.015 8.684-.004-2.094-.004-5.055-.012-6.688 0 2.031-.004 3.43-.016 4.028 0-2.961-.004-5.192-.004-8.715.012-1.567.024 1.328.024-1.996.015-.602.008 2.195.02 1.996.007-2.696.007-8.055.011-9.383.012-1.297 0 3.258.012 3.36.008-10.415.011-22.259.02-25.919.007-3.691.007-.23.015 1.332.008-4.293.008-7.52.012-12.61.004-3.26.007-1.96.015-.73 0-.867.004-1.632.008-2.128 0-.368.004-1.301.008-1.93.008 1.996 0 5.723.012 7.351.015-2.996 0-10.113.02-12.71.015 4.128.01 8.55.019 13.175.015-9.015-.047-18.265.004-25.515.004 1.297.023 1.863.03 2.925-.015-2.761-.034-6.851 0-9.316.005-1.363.016-4.059.02-6.754.008 4.727.016 7.887.004 11.18.004-.067.012-.367.012-.93.043 7.383-.031 11.61-.047 16.867.004.407.004.813.008 1.23.023 1.696.016-4.292.035-4.89.008 7.785-.012 16.27.016 20.094.008-9.25-.004-17.399.023-24.352.028 1.797.008 8.782.028 12.11.027-15.137.027-16.668.03-17.899.005 1.164.009 2.328.009 3.528.007-.297.011-.594.015-.899.004-6.656.004-14.472.012-14.074.008.3.012 6.387.012 12.809l.035-2.032c.004-7.515.054-16.035.035-23.554.027 1.234.023.601.039-.965.016 2.363.016 5.722.027 8.254.008-.868.004-2.43.016-2.93.008 1.266.004 3.262.02 3.895.011-3.563.015-7.387.023-11.149.023-.762.004 1.633.02 1.434.011-3.563 0-8.551.023-11.145.02 2.992 0 8.848.016 10.676a18715 18715 0 0 0 .023-3.59c.004-2.43.008-3.594.016-.867.007 1.465.007 1.43.011 1.066.016-1.664.016-7.453.051-7.285 0 1.461 0 7.25.024 8.715.027-1.098.011-4.059.035-4.36-.012 6.422.004 6.188-.016 7.786-.004-.7.004-2.528-.012-2.461V89.94c.02-.367.043-.234.055.133 0-1.73.008-3.527.004-6.754.039.868.031 3.828.02 6.555.007-.023.011-.043.019-.066-.004-4.426.008-11.18.027-15.704.008 2.063.008 9.68.004 14.872.004-.165.012-.329.02-.5-.008 6.523.023 14.175.008 21.492.046-3.528.011-7.653.02-12.207.007-2.098.019-4.028.034-6.059-.011-5.789-.015-22.988 0-24.95.02-2.163.02 15.27.032 15.372.007.098.02-8.02.02-4.195-.005 1.996-.009 6.355-.013 9.515.02.11.043.22.067.332 0-2.757.011-6.02-.031-6.152.003-1.363-.012-4.227.007-4.66.004.469 0 1.168.012 1.168 0-.668-.004-1.633.008-1.73.004 3.324.015 7.917.015 11.542.008.309.02.614.028.934.004-.07.015-2.895.02-5.324.007-2.563.015 2.761.015 6.984.008.672.02 1.34.031 2.031v-5.156c.016-2.328.035-2.262.051-4.594.004 4.293.008 9.485 0 13.64.02 1.517.04 3.032.059 4.595.011-3.461.027-6.657.043-8.551-.004-1.531-.008-3.129.007-3.695.008 1.433.012-2.293.04-1.727-.024 2.027-.016 6.086-.047 7.55v9.782c0 .395.003.79.007 1.2.004-2.63.008-5.126.02-7.919.035 1.262.039 8.98.016 14.57.027 11.38-.106 22.891-.125 34.266 0 .469.003 1.133.011 1.864.008.824.02 1.648.028 2.496.004-2.727.007-5.157.015-7.153.028 8.051.024-11.511.051-12.777.043 13.043.012 37.46.04 52.535.003-3.629.007-4.793.015-.898.004 1.054.004 2.105.007 3.191.024-15.336-.03-31.273.024-43.48.004 7.25-.016 18.261.02 21.293 0-2.133-.004-5.227.007-5.657.028 3.727-.008 16.2.02 19.86.02-17.899-.004-42.184.047-55.36-.02 19.93.007 46.809-.028 63.88-.007-2.962-.015-2.997-.03-1.434-.005 5.293-.013 10.586-.02 16.039.007 1.097.011.73.02-1.899.007-2.164.003-3.426.019-4.125.007 1.465.004 18.332.011 4.922.008-13.371.028-36.527.035-22.988.008 13.543.032 18.898.04 11.512.007-7.418.043-30.84.046-22.989.004 7.817.028 24.32.02 33.637-.004 9.348-.094-6.324-.094 7.418-.004 13.738.028 2.297.028 4.922v19.066c.007 5.09.003 11.64.02 14.938.015-.235.003-15.739.019-9.617 0 15.07.007 31.906-.032 24.984.004 9.316.004 16.172-.004 21.992.036 9.05.032 19.563.04 20.727.011 1.363-.063 26.05.039 35.332-.004.699-.028 17.332-.059 18.765.035 15.836.059 13.606.047 29.211-.008 13.04-.027 17.032-.031 19.227-.016 13.742.02 13.64-.118 20.363-.043 2.027-.043 5.156-.113 6.219-.137 2.129-.308 3.129-.531 2.465ZM63.98 91.738c-.011-2.43-.003-6.82-.015-9.383-.028 2.93-.02 6.555-.008 10.247l.023-.864Zm.422 18.766c0-1.633-.023-3.594-.015-5.426 0-1.73-.004-3.527.008-6.152.015.23.03 4.554.027 7.918h.023c.012-1.633.02-3.563.02-5.856-.004-.781-.004-1.558-.008-2.363-.012-.066-.023 1.164-.02 1.629-.023-.598-.03-2.629-.039-5.254l-.011-.965c-.024-.367-.032 1.63-.032-.601-.02 1.566 0 5.625-.007 8.152.047-2.828.015 7.852.039 10.48.004-.515.008-1.03.015-1.562Zm-.965 20.426v4.36c.004-2.13.004-3.763.008-5.259-.004.297-.008.594-.008.899Zm-.222 119.703c.066-8.719.008-27.016.043-28.215l-.012-5.652c-.008 12.14-.016 25.148-.031 33.867Zm1.531-30.774c0-.734-.004-.433-.008 1.328-.02 9.383-.039 14.938-.039 9.016 0-5.055-.008-16.066-.015-12.84l-.012 13.008c.008 3.395.031 6.688.062 10.047l.012-20.559Zm.031 24.618c-.004-2.594-.007-5.688-.007-8.817-.004 2.711-.004 5.426-.008 8.219.004.195.008.394.015.598Zm.028 3.328c.004-5.29 0-10.582-.012-5.258 0 1.2 0 2.394-.004 3.629.008.535.012 1.074.016 1.629Zm.015 3.261c-.007-.066-.015-.964-.015-2.73-.004 3.594-.012 10.781.007 10.445.004-2.394.008-5.023.008-7.715Zm-1.64 5.356c-.004-2.328-.008-4.36-.016-.668-.004 1.406-.004 2.812-.008 4.262l.024-3.594Zm1.562-122c-.004 1-.004 4.793-.012 6.988-.07.23-.02-8.387.012-6.988Zm.028-14.207c0 .965 0 4.758-.008 6.988-.075.234-.02-8.383.008-6.988Zm.164 218.582v-.035.035ZM59.25 65.223c-.133-.2-.05-.36-.031-.399.008-.011.004-.004.004-.008h.004l.003-.011.012-.012.02-.027.031-.055.043-.098a.261.261 0 0 0 .02-.148c-.06-.07-.211.289-.266.215-.028-.082.601-1.332.62-1.356.095-.082.274-.375.321-.46-.113.19-.246.32-.308.39.004 0-.203.273-.106-.078-.039.047-.062.058-.074.035l-.004-.008c.004.004-.117.352-.2.324-.148-.047.583-.996.556-1.132-.063.132-.125.218-.188.253.191-.226.762-1.421.895-1.66.46-.812 1.058-1.64 1.55-2.445.23-.371.489-.79.758-1.238l.418-.684.024-.043.015-.023.004-.008c.04-.055-.082.121.09-.125.059-.317 1.055-.266 1.07.016.14.21.04.058.074.109v.008l.047.09.09.183.188.371a47.858 47.858 0 0 0 1.46 2.735c.301.504 1.317 2.66 1.422 2.738.028.058.344.695.66 1.324l.231.461.11.215.027.05.012.024.003.012.004.004c-.07-.047.172.058-.02.515-.69.446-.323.133-.421.227h-.11c-.269-.008-.453-.016-.476-.008-.07.012.102.117.094.145h-.375a.568.568 0 0 0 .187.054c-.648.067-2.039-.144-2.515-.125.047-.035-.059-.097-.063-.086-.008.02-3.812.075-4.226.079-.371.003-1.286-.258-.891-.333.285-.058.047-.09-.14-.12.5-.325-.989.144.156-.329.02 0-.36-.144-.504-.094.523.094.144-.05 0 0 .523.094.144-.05 0 0"/><path style="stroke:none;fill-rule:nonzero;fill:#000;fill-opacity:1" d="M68.723 434.777c.129.2.047.36.03.399-.007.012-.003.004-.007.008l-.016.023-.02.027-.03.055-.047.098a.293.293 0 0 0-.016.148c.059.07.211-.289.266-.215.027.082-.606 1.332-.621 1.356-.094.082-.274.375-.32.46.113-.19.246-.32.308-.39-.004 0 .203-.273.105.078.036-.047.063-.058.075-.035l.004.008c-.004-.004.117-.352.199-.324.148.047-.582.996-.559 1.132.067-.132.13-.218.192-.253-.192.226-.762 1.421-.895 1.66-.46.812-1.058 1.64-1.55 2.445-.231.371-.489.79-.762 1.238l-.414.684-.028.043-.012.023-.007.008c-.035.055.086-.121-.086.125-.063.317-1.055.27-1.07-.015l-.075-.11v-.008l-.047-.09-.093-.183-.184-.371a47.859 47.859 0 0 0-1.461-2.735c-.3-.503-1.316-2.66-1.422-2.738a153.73 153.73 0 0 0-.66-1.324l-.234-.461-.106-.215-.027-.05-.012-.024-.004-.012-.004-.004c.07.047-.175-.058.02-.515.691-.446.32-.133.422-.227h.11c.269.008.452.016.476.008.066-.012-.102-.117-.094-.145h.375a.568.568 0 0 0-.188-.054c.645-.067 2.04.144 2.516.125-.047.035.059.097.063.086.007-.02 3.812-.075 4.226-.079.371-.003 1.285.258.89.333-.284.058-.046.09.141.12-.5.325.989-.144-.16.329-.015 0 .363.144.508.094-.523-.094-.145.05 0 0-.523-.094-.145.05 0 0"/><g style="fill:#000;fill-opacity:1"><use xlink:href="#a" x="18" y="40"/><use xlink:href="#b" x="39.644" y="40"/><use xlink:href="#b" x="63.136" y="40"/><use xlink:href="#c" x="86.628" y="40"/></g><g style="fill:#000;fill-opacity:1"><use xlink:href="#d" x="32" y="486"/><use xlink:href="#e" x="53.112" y="486"/><use xlink:href="#c" x="73.188" y="486"/></g><path style="stroke:none;fill-rule:nonzero;fill:#000;fill-opacity:1" d="M369.04 440.402a2.301 2.301 0 0 1 0 3.254 2.296 2.296 0 0 1-3.25 0 2.301 2.301 0 0 1 0-3.254 2.296 2.296 0 0 1 3.25 0Zm0 0"/><use xlink:href="#f" x="326" y="439" style="fill:#000;fill-opacity:1"/><g style="fill:#000;fill-opacity:1"><use xlink:href="#g" x="333.116" y="439"/><use xlink:href="#h" x="336.344" y="439"/><use xlink:href="#h" x="339.572" y="439"/><use xlink:href="#i" x="342.8" y="439"/></g><g style="fill:#000;fill-opacity:1"><use xlink:href="#j" x="306" y="454"/><use xlink:href="#k" x="314.232" y="454"/></g><g style="fill:#000;fill-opacity:1"><use xlink:href="#l" x="318.936" y="454"/><use xlink:href="#m" x="326.016" y="454"/></g><g style="fill:#000;fill-opacity:1"><use xlink:href="#n" x="334.164" y="454"/><use xlink:href="#o" x="342.3" y="454"/><use xlink:href="#l" x="355.032" y="454"/></g><path style="stroke:none;fill-rule:nonzero;fill:#000;fill-opacity:1" d="M210.152 196.809a2.301 2.301 0 0 1-3.254 3.254 2.308 2.308 0 0 1 0-3.254 2.308 2.308 0 0 1 3.254 0Zm0 0"/><g style="fill:#000;fill-opacity:1"><use xlink:href="#n" x="136" y="195"/><use xlink:href="#p" x="144.136" y="195"/><use xlink:href="#m" x="151.66" y="195"/><use xlink:href="#l" x="159.784" y="195"/><use xlink:href="#q" x="166.864" y="195"/></g><g style="fill:#000;fill-opacity:1"><use xlink:href="#r" x="171.508" y="195"/><use xlink:href="#i" x="178.756" y="195"/><use xlink:href="#s" x="181.9" y="195"/></g><g style="fill:#000;fill-opacity:1"><use xlink:href="#t" x="189.16" y="195"/><use xlink:href="#i" x="193.492" y="195"/></g><use xlink:href="#q" x="131" y="210" style="fill:#000;fill-opacity:1"/><g style="fill:#000;fill-opacity:1"><use xlink:href="#p" x="135.644" y="210"/><use xlink:href="#i" x="143.168" y="210"/><use xlink:href="#u" x="146.312" y="210"/><use xlink:href="#g" x="155.588" y="210"/><use xlink:href="#v" x="158.816" y="210"/></g><use xlink:href="#r" x="165.14" y="210" style="fill:#000;fill-opacity:1"/><use xlink:href="#w" x="172.148" y="210" style="fill:#000;fill-opacity:1"/><g style="fill:#000;fill-opacity:1"><use xlink:href="#r" x="184.82" y="210"/><use xlink:href="#h" x="192.068" y="210"/><use xlink:href="#h" x="195.296" y="210"/></g><path style="stroke:none;fill-rule:nonzero;fill:#000;fill-opacity:1" d="M273.094 247.492a2.296 2.296 0 0 1 0 3.25 2.296 2.296 0 0 1-3.25 0 2.296 2.296 0 0 1 0-3.25 2.296 2.296 0 0 1 3.25 0Zm0 0"/><use xlink:href="#x" x="280" y="254" style="fill:#000;fill-opacity:1"/><g style="fill:#000;fill-opacity:1"><use xlink:href="#r" x="286.324" y="254"/><use xlink:href="#h" x="293.572" y="254"/><use xlink:href="#h" x="296.8" y="254"/><use xlink:href="#i" x="300.028" y="254"/><use xlink:href="#l" x="303.172" y="254"/><use xlink:href="#q" x="310.252" y="254"/><use xlink:href="#i" x="315.124" y="254"/><use xlink:href="#n" x="318.268" y="254"/><use xlink:href="#p" x="326.404" y="254"/><use xlink:href="#j" x="333.928" y="254"/></g><path style="stroke:none;fill-rule:nonzero;fill:#000;fill-opacity:1" d="M140.598 71.574a2.301 2.301 0 1 1-3.255 3.254 2.301 2.301 0 0 1 3.255-3.254Zm0 0"/><g style="fill:#000;fill-opacity:1"><use xlink:href="#g" x="151" y="70"/><use xlink:href="#m" x="154.228" y="70"/></g><use xlink:href="#v" x="162.232" y="70" style="fill:#000;fill-opacity:1"/><g style="fill:#000;fill-opacity:1"><use xlink:href="#r" x="168.556" y="70"/><use xlink:href="#m" x="175.804" y="70"/><use xlink:href="#q" x="183.928" y="70"/><use xlink:href="#i" x="188.8" y="70"/><use xlink:href="#y" x="191.944" y="70"/><use xlink:href="#l" x="198.7" y="70"/><use xlink:href="#m" x="205.78" y="70"/></g><use xlink:href="#y" x="213.928" y="70" style="fill:#000;fill-opacity:1"/><g style="fill:#000;fill-opacity:1"><use xlink:href="#r" x="220.576" y="70"/><use xlink:href="#k" x="227.824" y="70"/><use xlink:href="#i" x="232.636" y="70"/></g><use xlink:href="#v" x="169" y="85" style="fill:#000;fill-opacity:1"/><use xlink:href="#l" x="175.312" y="85" style="fill:#000;fill-opacity:1"/><use xlink:href="#y" x="182.416" y="85" style="fill:#000;fill-opacity:1"/><g style="fill:#000;fill-opacity:1"><use xlink:href="#y" x="189.064" y="85"/><use xlink:href="#g" x="195.82" y="85"/><use xlink:href="#m" x="199.048" y="85"/></g><use xlink:href="#r" x="207.196" y="85" style="fill:#000;fill-opacity:1"/><use xlink:href="#e" x="365" y="203" style="fill:#000;fill-opacity:1"/><use xlink:href="#z" x="384.796" y="203" style="fill:#000;fill-opacity:1"/><g style="fill:#000;fill-opacity:1"><use xlink:href="#A" x="404.676" y="203"/><use xlink:href="#B" x="420.748" y="203"/><use xlink:href="#b" x="429.204" y="203"/><use xlink:href="#C" x="452.696" y="203"/><use xlink:href="#D" x="475.46" y="203"/></g><g style="fill:#000;fill-opacity:.2"><use xlink:href="#E" x="430" y="490"/><use xlink:href="#F" x="434.801" y="490"/><use xlink:href="#G" x="439.602" y="490"/><use xlink:href="#H" x="444.402" y="490"/><use xlink:href="#I" x="449.203" y="490"/><use xlink:href="#J" x="454.004" y="490"/><use xlink:href="#K" x="458.805" y="490"/><use xlink:href="#L" x="463.606" y="490"/><use xlink:href="#M" x="468.406" y="490"/><use xlink:href="#N" x="473.207" y="490"/><use xlink:href="#G" x="478.008" y="490"/><use xlink:href="#O" x="482.809" y="490"/><use xlink:href="#M" x="487.61" y="490"/></g></svg>