<svg xmlns="http://www.w3.org/2000/svg" xml:space="preserve" id="Gradient" x="0" y="0" style="enable-background:new 0 0 1176 301" version="1.1" viewBox="0 0 1176 301"><style>.st1{fill:none}</style><linearGradient id="SVGID_1_" x1="18" x2="1158" y1="130" y2="130" gradientUnits="userSpaceOnUse"><stop offset="0" style="stop-color:#ff001d"/><stop offset="0" style="stop-color:#ff001c"/><stop offset="0" style="stop-color:#ff001b"/><stop offset=".001" style="stop-color:#ff0018"/><stop offset=".002" style="stop-color:#ff0013"/><stop offset=".002" style="stop-color:#ff0010"/><stop offset=".002" style="stop-color:#ff000f"/><stop offset=".003" style="stop-color:#ff000d"/><stop offset=".004" style="stop-color:#ff0e00"/><stop offset=".004" style="stop-color:#ff1000"/><stop offset=".004" style="stop-color:#f10"/><stop offset=".004" style="stop-color:#ff1200"/><stop offset=".005" style="stop-color:#ff1300"/><stop offset=".005" style="stop-color:#ff1500"/><stop offset=".005" style="stop-color:#ff1700"/><stop offset=".006" style="stop-color:#ff1900"/><stop offset=".006" style="stop-color:#ff1a00"/><stop offset=".006" style="stop-color:#ff1d00"/><stop offset=".007" style="stop-color:#ff2100"/><stop offset=".009" style="stop-color:#ff2600"/><stop offset=".01" style="stop-color:#ff2a00"/><stop offset=".012" style="stop-color:#ff2f00"/><stop offset=".014" style="stop-color:#ff3200"/><stop offset=".015" style="stop-color:#ff3400"/><stop offset=".015" style="stop-color:#ff3500"/><stop offset=".016" style="stop-color:#ff3600"/><stop offset=".018" style="stop-color:#ff3b00"/><stop offset=".02" style="stop-color:#ff3e00"/><stop offset=".024" style="stop-color:#f40"/><stop offset=".024" style="stop-color:#ff4500"/><stop offset=".026" style="stop-color:#ff4700"/><stop offset=".026" style="stop-color:#ff4800"/><stop offset=".027" style="stop-color:#ff4900"/><stop offset=".028" style="stop-color:#ff4a00"/><stop offset=".028" style="stop-color:#ff4b00"/><stop offset=".031" style="stop-color:#ff4e00"/><stop offset=".033" style="stop-color:#ff5100"/><stop offset=".036" style="stop-color:#ff5400"/><stop offset=".038" style="stop-color:#ff5700"/><stop offset=".041" style="stop-color:#ff5a00"/><stop offset=".045" style="stop-color:#ff5e00"/><stop offset=".046" style="stop-color:#ff5f00"/><stop offset=".047" style="stop-color:#ff6000"/><stop offset=".048" style="stop-color:#ff6100"/><stop offset=".049" style="stop-color:#ff6200"/><stop offset=".05" style="stop-color:#ff6300"/><stop offset=".051" style="stop-color:#ff6400"/><stop offset=".052" style="stop-color:#ff6500"/><stop offset=".054" style="stop-color:#ff6700"/><stop offset=".058" style="stop-color:#ff6a00"/><stop offset=".06" style="stop-color:#ff6c00"/><stop offset=".062" style="stop-color:#ff6d00"/><stop offset=".066" style="stop-color:#ff7000"/><stop offset=".068" style="stop-color:#ff7200"/><stop offset=".07" style="stop-color:#ff7300"/><stop offset=".073" style="stop-color:#ff7500"/><stop offset=".076" style="stop-color:#f70"/><stop offset=".077" style="stop-color:#ff7800"/><stop offset=".082" style="stop-color:#ff7b00"/><stop offset=".084" style="stop-color:#ff7c00"/><stop offset=".087" style="stop-color:#ff7e00"/><stop offset=".091" style="stop-color:#ff8000"/><stop offset=".092" style="stop-color:#ff8100"/><stop offset=".094" style="stop-color:#ff8200"/><stop offset=".098" style="stop-color:#ff8400"/><stop offset=".1" style="stop-color:#ff8500"/><stop offset=".102" style="stop-color:#ff8600"/><stop offset=".102" style="stop-color:#ff8601"/><stop offset=".103" style="stop-color:#ff8606"/><stop offset=".103" style="stop-color:#ff8608"/><stop offset=".103" style="stop-color:#ff8708"/><stop offset=".103" style="stop-color:#ff8709"/><stop offset=".103" style="stop-color:#ff870a"/><stop offset=".104" style="stop-color:#ff870d"/><stop offset=".104" style="stop-color:#ff870e"/><stop offset=".104" style="stop-color:#ff870f"/><stop offset=".105" style="stop-color:#ff880f"/><stop offset=".105" style="stop-color:#ff8810"/><stop offset=".105" style="stop-color:#f81"/><stop offset=".106" style="stop-color:#ff8812"/><stop offset=".106" style="stop-color:#ff8813"/><stop offset=".106" style="stop-color:#ff8913"/><stop offset=".106" style="stop-color:#ff8914"/><stop offset=".107" style="stop-color:#ff8916"/><stop offset=".108" style="stop-color:#ff8a17"/><stop offset=".108" style="stop-color:#ff8a18"/><stop offset=".109" style="stop-color:#ff8a19"/><stop offset=".109" style="stop-color:#ff8a1a"/><stop offset=".109" style="stop-color:#ff8b1a"/><stop offset=".11" style="stop-color:#ff8b1b"/><stop offset=".111" style="stop-color:#ff8b1c"/><stop offset=".111" style="stop-color:#ff8c1c"/><stop offset=".111" style="stop-color:#ff8c1d"/><stop offset=".112" style="stop-color:#ff8c1e"/><stop offset=".112" style="stop-color:#ff8c1f"/><stop offset=".113" style="stop-color:#ff8d1f"/><stop offset=".113" style="stop-color:#ff8d20"/><stop offset=".114" style="stop-color:#ff8d21"/><stop offset=".115" style="stop-color:#ff8e23"/><stop offset=".116" style="stop-color:#ff8e24"/><stop offset=".116" style="stop-color:#ff8f24"/><stop offset=".117" style="stop-color:#ff8f25"/><stop offset=".117" style="stop-color:#ff8f26"/><stop offset=".118" style="stop-color:#ff9026"/><stop offset=".118" style="stop-color:#ff9027"/><stop offset=".119" style="stop-color:#ff9028"/><stop offset=".119" style="stop-color:#ff9128"/><stop offset=".12" style="stop-color:#ff9129"/><stop offset=".121" style="stop-color:#ff912a"/><stop offset=".121" style="stop-color:#ff922a"/><stop offset=".122" style="stop-color:#ff922b"/><stop offset=".122" style="stop-color:#ff922c"/><stop offset=".123" style="stop-color:#ff932c"/><stop offset=".123" style="stop-color:#ff932d"/><stop offset=".124" style="stop-color:#ff932e"/><stop offset=".125" style="stop-color:#ff942e"/><stop offset=".125" style="stop-color:#ff942f"/><stop offset=".126" style="stop-color:#ff9430"/><stop offset=".126" style="stop-color:#ff9530"/><stop offset=".127" style="stop-color:#ff9531"/><stop offset=".128" style="stop-color:#ff9532"/><stop offset=".128" style="stop-color:#ff9632"/><stop offset=".13" style="stop-color:#ff9634"/><stop offset=".13" style="stop-color:#ff9734"/><stop offset=".131" style="stop-color:#ff9735"/><stop offset=".132" style="stop-color:#ff9736"/><stop offset=".132" style="stop-color:#ff9836"/><stop offset=".133" style="stop-color:#ff9837"/><stop offset=".134" style="stop-color:#ff9838"/><stop offset=".134" style="stop-color:#ff9938"/><stop offset=".135" style="stop-color:#ff9939"/><stop offset=".136" style="stop-color:#ff9a3a"/><stop offset=".137" style="stop-color:#ff9a3b"/><stop offset=".138" style="stop-color:#ff9b3b"/><stop offset=".138" style="stop-color:#ff9b3c"/><stop offset=".139" style="stop-color:#ff9b3d"/><stop offset=".14" style="stop-color:#ff9c3d"/><stop offset=".14" style="stop-color:#ff9c3e"/><stop offset=".141" style="stop-color:#ff9c3f"/><stop offset=".142" style="stop-color:#ff9d3f"/><stop offset=".142" style="stop-color:#ff9d40"/><stop offset=".143" style="stop-color:#ff9d41"/><stop offset=".144" style="stop-color:#ff9e41"/><stop offset=".145" style="stop-color:#ff9e42"/><stop offset=".146" style="stop-color:#ff9f43"/><stop offset=".147" style="stop-color:#ff9f44"/><stop offset=".147" style="stop-color:#ffa044"/><stop offset=".148" style="stop-color:#ffa045"/><stop offset=".149" style="stop-color:#ffa046"/><stop offset=".15" style="stop-color:#ffa146"/><stop offset=".15" style="stop-color:#ffa147"/><stop offset=".151" style="stop-color:#ffa148"/><stop offset=".152" style="stop-color:#ffa248"/><stop offset=".153" style="stop-color:#ffa249"/><stop offset=".153" style="stop-color:#ffa24a"/><stop offset=".154" style="stop-color:#ffa34a"/><stop offset=".155" style="stop-color:#ffa34b"/><stop offset=".156" style="stop-color:#ffa44c"/><stop offset=".157" style="stop-color:#ffa44d"/><stop offset=".158" style="stop-color:#ffa54d"/><stop offset=".159" style="stop-color:#ffa54e"/><stop offset=".159" style="stop-color:#ffa54f"/><stop offset=".16" style="stop-color:#ffa64f"/><stop offset=".161" style="stop-color:#ffa650"/><stop offset=".162" style="stop-color:#ffa651"/><stop offset=".162" style="stop-color:#ffa751"/><stop offset=".163" style="stop-color:#ffa752"/><stop offset=".164" style="stop-color:#ffa753"/><stop offset=".165" style="stop-color:#ffa853"/><stop offset=".166" style="stop-color:#ffa854"/><stop offset=".167" style="stop-color:#ffa955"/><stop offset=".168" style="stop-color:#ffa956"/><stop offset=".169" style="stop-color:#ffaa56"/><stop offset=".17" style="stop-color:#ffaa57"/><stop offset=".171" style="stop-color:#ffaa58"/><stop offset=".171" style="stop-color:#ffab58"/><stop offset=".172" style="stop-color:#ffab59"/><stop offset=".173" style="stop-color:#ffab5a"/><stop offset=".174" style="stop-color:#ffac5a"/><stop offset=".175" style="stop-color:#ffac5b"/><stop offset=".176" style="stop-color:#ffac5c"/><stop offset=".176" style="stop-color:#ffad5c"/><stop offset=".177" style="stop-color:#ffad5d"/><stop offset=".178" style="stop-color:#ffad5e"/><stop offset=".179" style="stop-color:#ffae5e"/><stop offset=".18" style="stop-color:#ffae5f"/><stop offset=".181" style="stop-color:#ffaf5f"/><stop offset=".181" style="stop-color:#ffaf60"/><stop offset=".182" style="stop-color:#ffaf61"/><stop offset=".183" style="stop-color:#ffb061"/><stop offset=".184" style="stop-color:#ffb062"/><stop offset=".185" style="stop-color:#ffb063"/><stop offset=".186" style="stop-color:#ffb163"/><stop offset=".187" style="stop-color:#ffb164"/><stop offset=".188" style="stop-color:#ffb165"/><stop offset=".188" style="stop-color:#ffb265"/><stop offset=".189" style="stop-color:#ffb266"/><stop offset=".19" style="stop-color:#ffb267"/><stop offset=".191" style="stop-color:#ffb367"/><stop offset=".192" style="stop-color:#ffb368"/><stop offset=".193" style="stop-color:#ffb369"/><stop offset=".194" style="stop-color:#ffb469"/><stop offset=".195" style="stop-color:#ffb46a"/><stop offset=".196" style="stop-color:#ffb56a"/><stop offset=".196" style="stop-color:#ffb56b"/><stop offset=".198" style="stop-color:#ffb56c"/><stop offset=".198" style="stop-color:#ffb66c"/><stop offset=".199" style="stop-color:#ffb66d"/><stop offset=".2" style="stop-color:#ffb66e"/><stop offset=".201" style="stop-color:#ffb76e"/><stop offset=".202" style="stop-color:#ffb76f"/><stop offset=".203" style="stop-color:#ffb770"/><stop offset=".204" style="stop-color:#ffb870"/><stop offset=".205" style="stop-color:#ffb871"/><stop offset=".206" style="stop-color:#ffb872"/><stop offset=".207" style="stop-color:#ffb972"/><stop offset=".208" style="stop-color:#ffb973"/><stop offset=".209" style="stop-color:#ffb974"/><stop offset=".209" style="stop-color:#ffba74"/><stop offset=".211" style="stop-color:#ffba75"/><stop offset=".211" style="stop-color:#ffba76"/><stop offset=".212" style="stop-color:#ffbb76"/><stop offset=".214" style="stop-color:#fb7"/><stop offset=".214" style="stop-color:#ffbb78"/><stop offset=".215" style="stop-color:#ffbc78"/><stop offset=".216" style="stop-color:#ffbc79"/><stop offset=".217" style="stop-color:#ffbc7a"/><stop offset=".218" style="stop-color:#ffbd7a"/><stop offset=".219" style="stop-color:#ffbd7b"/><stop offset=".221" style="stop-color:#ffbe7c"/><stop offset=".222" style="stop-color:#ffbe7d"/><stop offset=".223" style="stop-color:#ffbf7d"/><stop offset=".224" style="stop-color:#ffbf7e"/><stop offset=".225" style="stop-color:#ffbf7f"/><stop offset=".226" style="stop-color:#ffc07f"/><stop offset=".227" style="stop-color:#ffc080"/><stop offset=".228" style="stop-color:#ffc081"/><stop offset=".229" style="stop-color:#ffc181"/><stop offset=".23" style="stop-color:#ffc182"/><stop offset=".231" style="stop-color:#ffc183"/><stop offset=".232" style="stop-color:#ffc283"/><stop offset=".233" style="stop-color:#ffc284"/><stop offset=".235" style="stop-color:#ffc285"/><stop offset=".235" style="stop-color:#ffc385"/><stop offset=".236" style="stop-color:#ffc386"/><stop offset=".238" style="stop-color:#ffc387"/><stop offset=".239" style="stop-color:#ffc487"/><stop offset=".24" style="stop-color:#ffc488"/><stop offset=".241" style="stop-color:#ffc489"/><stop offset=".242" style="stop-color:#ffc589"/><stop offset=".243" style="stop-color:#ffc58a"/><stop offset=".244" style="stop-color:#ffc58b"/><stop offset=".245" style="stop-color:#ffc68b"/><stop offset=".246" style="stop-color:#ffc68c"/><stop offset=".247" style="stop-color:#ffc68d"/><stop offset=".248" style="stop-color:#ffc78d"/><stop offset=".249" style="stop-color:#ffc78e"/><stop offset=".251" style="stop-color:#ffc78f"/><stop offset=".251" style="stop-color:#ffc88f"/><stop offset=".253" style="stop-color:#ffc890"/><stop offset=".254" style="stop-color:#ffc891"/><stop offset=".255" style="stop-color:#ffc991"/><stop offset=".256" style="stop-color:#ffc992"/><stop offset=".257" style="stop-color:#ffc993"/><stop offset=".258" style="stop-color:#ffca93"/><stop offset=".259" style="stop-color:#ffca94"/><stop offset=".261" style="stop-color:#ffca95"/><stop offset=".261" style="stop-color:#ffcb95"/><stop offset=".263" style="stop-color:#ffcb96"/><stop offset=".264" style="stop-color:#ffcb97"/><stop offset=".265" style="stop-color:#ffcc97"/><stop offset=".266" style="stop-color:#ffcc98"/><stop offset=".268" style="stop-color:#fc9"/><stop offset=".268" style="stop-color:#ffcd99"/><stop offset=".269" style="stop-color:#ffcd9a"/><stop offset=".271" style="stop-color:#ffcd9b"/><stop offset=".272" style="stop-color:#ffce9b"/><stop offset=".273" style="stop-color:#ffce9c"/><stop offset=".275" style="stop-color:#ffce9d"/><stop offset=".275" style="stop-color:#ffcf9d"/><stop offset=".276" style="stop-color:#ffcf9e"/><stop offset=".278" style="stop-color:#ffcf9f"/><stop offset=".28" style="stop-color:#ffd0a0"/><stop offset=".282" style="stop-color:#ffd0a1"/><stop offset=".283" style="stop-color:#ffd0a2"/><stop offset=".284" style="stop-color:#ffd1a2"/><stop offset=".285" style="stop-color:#ffd1a3"/><stop offset=".286" style="stop-color:#ffd1a4"/><stop offset=".287" style="stop-color:#ffd2a4"/><stop offset=".289" style="stop-color:#ffd2a5"/><stop offset=".29" style="stop-color:#ffd2a6"/><stop offset=".291" style="stop-color:#ffd3a6"/><stop offset=".293" style="stop-color:#ffd3a7"/><stop offset=".294" style="stop-color:#ffd3a8"/><stop offset=".295" style="stop-color:#ffd4a8"/><stop offset=".298" style="stop-color:#ffd4aa"/><stop offset=".299" style="stop-color:#ffd5aa"/><stop offset=".3" style="stop-color:#ffd5ab"/><stop offset=".302" style="stop-color:#ffd5ac"/><stop offset=".302" style="stop-color:#ffd6ac"/><stop offset=".304" style="stop-color:#ffd6ad"/><stop offset=".305" style="stop-color:#ffd6ae"/><stop offset=".306" style="stop-color:#ffd7ae"/><stop offset=".307" style="stop-color:#ffd7af"/><stop offset=".313" style="stop-color:#ffd8b2"/><stop offset=".314" style="stop-color:#ffd8b3"/><stop offset=".315" style="stop-color:#ffd9b3"/><stop offset=".317" style="stop-color:#ffd9b4"/><stop offset=".319" style="stop-color:#ffd9b5"/><stop offset=".32" style="stop-color:#ffdab5"/><stop offset=".321" style="stop-color:#ffdab6"/><stop offset=".323" style="stop-color:#ffdab7"/><stop offset=".324" style="stop-color:#ffdbb7"/><stop offset=".325" style="stop-color:#ffdbb8"/><stop offset=".327" style="stop-color:#ffdbb9"/><stop offset=".328" style="stop-color:#ffdcb9"/><stop offset=".329" style="stop-color:#ffdcba"/><stop offset=".331" style="stop-color:#ffdcbb"/><stop offset=".332" style="stop-color:#fdb"/><stop offset=".333" style="stop-color:#ffddbc"/><stop offset=".335" style="stop-color:#ffddbd"/><stop offset=".336" style="stop-color:#ffddbe"/><stop offset=".337" style="stop-color:#ffdebe"/><stop offset=".339" style="stop-color:#ffdebf"/><stop offset=".341" style="stop-color:#ffdec0"/><stop offset=".342" style="stop-color:#ffdfc0"/><stop offset=".344" style="stop-color:#ffdfc1"/><stop offset=".345" style="stop-color:#ffdfc2"/><stop offset=".346" style="stop-color:#ffe0c2"/><stop offset=".348" style="stop-color:#ffe0c3"/><stop offset=".35" style="stop-color:#ffe0c4"/><stop offset=".351" style="stop-color:#ffe1c4"/><stop offset=".352" style="stop-color:#ffe1c5"/><stop offset=".354" style="stop-color:#ffe1c6"/><stop offset=".355" style="stop-color:#ffe1c7"/><stop offset=".356" style="stop-color:#ffe2c7"/><stop offset=".359" style="stop-color:#ffe2c8"/><stop offset=".36" style="stop-color:#ffe2c9"/><stop offset=".361" style="stop-color:#ffe3c9"/><stop offset=".365" style="stop-color:#ffe3cb"/><stop offset=".366" style="stop-color:#ffe4cb"/><stop offset=".367" style="stop-color:#ffe4cc"/><stop offset=".369" style="stop-color:#ffe4cd"/><stop offset=".371" style="stop-color:#ffe5cd"/><stop offset=".372" style="stop-color:#ffe5ce"/><stop offset=".374" style="stop-color:#ffe5cf"/><stop offset=".375" style="stop-color:#ffe5d0"/><stop offset=".377" style="stop-color:#ffe6d0"/><stop offset=".379" style="stop-color:#ffe6d1"/><stop offset=".38" style="stop-color:#ffe6d2"/><stop offset=".382" style="stop-color:#ffe7d2"/><stop offset=".383" style="stop-color:#ffe7d3"/><stop offset=".385" style="stop-color:#ffe7d4"/><stop offset=".387" style="stop-color:#ffe8d4"/><stop offset=".388" style="stop-color:#ffe8d5"/><stop offset=".39" style="stop-color:#ffe8d6"/><stop offset=".392" style="stop-color:#ffe8d7"/><stop offset=".393" style="stop-color:#ffe9d7"/><stop offset=".395" style="stop-color:#ffe9d8"/><stop offset=".397" style="stop-color:#ffe9d9"/><stop offset=".398" style="stop-color:#ffead9"/><stop offset=".4" style="stop-color:#ffeada"/><stop offset=".402" style="stop-color:#ffeadb"/><stop offset=".403" style="stop-color:#ffebdb"/><stop offset=".405" style="stop-color:#ffebdc"/><stop offset=".407" style="stop-color:#ffebdd"/><stop offset=".409" style="stop-color:#ffebde"/><stop offset=".41" style="stop-color:#ffecde"/><stop offset=".412" style="stop-color:#ffecdf"/><stop offset=".414" style="stop-color:#ffece0"/><stop offset=".415" style="stop-color:#ffede0"/><stop offset=".417" style="stop-color:#ffede1"/><stop offset=".42" style="stop-color:#ffede2"/><stop offset=".421" style="stop-color:#ffeee2"/><stop offset=".422" style="stop-color:#ffeee3"/><stop offset=".425" style="stop-color:#ffeee4"/><stop offset=".426" style="stop-color:#ffeee5"/><stop offset=".428" style="stop-color:#ffefe5"/><stop offset=".43" style="stop-color:#ffefe6"/><stop offset=".432" style="stop-color:#ffefe7"/><stop offset=".434" style="stop-color:#fff0e7"/><stop offset=".435" style="stop-color:#fff0e8"/><stop offset=".438" style="stop-color:#fff0e9"/><stop offset=".439" style="stop-color:#fff0ea"/><stop offset=".441" style="stop-color:#fff1ea"/><stop offset=".443" style="stop-color:#fff1eb"/><stop offset=".445" style="stop-color:#fff1ec"/><stop offset=".447" style="stop-color:#fff2ec"/><stop offset=".449" style="stop-color:#fff2ed"/><stop offset=".451" style="stop-color:#fff2ee"/><stop offset=".454" style="stop-color:#fff3ef"/><stop offset=".457" style="stop-color:#fff3f0"/><stop offset=".459" style="stop-color:#fff3f1"/><stop offset=".46" style="stop-color:#fff4f1"/><stop offset=".463" style="stop-color:#fff4f2"/><stop offset=".465" style="stop-color:#fff4f3"/><stop offset=".467" style="stop-color:#fff5f3"/><stop offset=".468" style="stop-color:#fff5f4"/><stop offset=".471" style="stop-color:#fff5f5"/><stop offset=".473" style="stop-color:#fff5f6"/><stop offset=".474" style="stop-color:#fff6f6"/><stop offset=".477" style="stop-color:#fff6f7"/><stop offset=".48" style="stop-color:#fff6f8"/><stop offset=".481" style="stop-color:#fff7f8"/><stop offset=".483" style="stop-color:#fff7f9"/><stop offset=".486" style="stop-color:#fff7fa"/><stop offset=".488" style="stop-color:#fff7fb"/><stop offset=".489" style="stop-color:#fff8fb"/><stop offset=".492" style="stop-color:#fff8fc"/><stop offset=".495" style="stop-color:#fff8fd"/><stop offset=".496" style="stop-color:#fff9fd"/><stop offset=".498" style="stop-color:#fff9fe"/><stop offset=".501" style="stop-color:#fff9ff"/><stop offset=".504" style="stop-color:#fef9ff"/><stop offset=".505" style="stop-color:#fef8ff"/><stop offset=".507" style="stop-color:#fdf8ff"/><stop offset=".51" style="stop-color:#fcf8ff"/><stop offset=".511" style="stop-color:#fcf7ff"/><stop offset=".514" style="stop-color:#fbf7ff"/><stop offset=".516" style="stop-color:#faf7ff"/><stop offset=".517" style="stop-color:#faf6ff"/><stop offset=".52" style="stop-color:#f9f6ff"/><stop offset=".522" style="stop-color:#f9f5ff"/><stop offset=".524" style="stop-color:#f8f5ff"/><stop offset=".527" style="stop-color:#f7f5ff"/><stop offset=".528" style="stop-color:#f7f4ff"/><stop offset=".531" style="stop-color:#f6f4ff"/><stop offset=".533" style="stop-color:#f5f4ff"/><stop offset=".535" style="stop-color:#f5f3ff"/><stop offset=".538" style="stop-color:#f4f3ff"/><stop offset=".542" style="stop-color:#f3f2ff"/><stop offset=".545" style="stop-color:#f2f2ff"/><stop offset=".547" style="stop-color:#f2f1ff"/><stop offset=".55" style="stop-color:#f1f1ff"/><stop offset=".552" style="stop-color:#f0f1ff"/><stop offset=".554" style="stop-color:#f0f0ff"/><stop offset=".558" style="stop-color:#eff0ff"/><stop offset=".56" style="stop-color:#eef0ff"/><stop offset=".562" style="stop-color:#eeefff"/><stop offset=".565" style="stop-color:#edefff"/><stop offset=".568" style="stop-color:#edeeff"/><stop offset=".57" style="stop-color:#eceeff"/><stop offset=".573" style="stop-color:#ebeeff"/><stop offset=".575" style="stop-color:#ebedff"/><stop offset=".579" style="stop-color:#eaedff"/><stop offset=".581" style="stop-color:#e9edff"/><stop offset=".584" style="stop-color:#e9ecff"/><stop offset=".588" style="stop-color:#e8ecff"/><stop offset=".59" style="stop-color:#e8ebff"/><stop offset=".593" style="stop-color:#e7ebff"/><stop offset=".596" style="stop-color:#e6ebff"/><stop offset=".598" style="stop-color:#e6eaff"/><stop offset=".602" style="stop-color:#e5eaff"/><stop offset=".605" style="stop-color:#e4eaff"/><stop offset=".608" style="stop-color:#e4e9ff"/><stop offset=".612" style="stop-color:#e3e9ff"/><stop offset=".614" style="stop-color:#e3e8ff"/><stop offset=".617" style="stop-color:#e2e8ff"/><stop offset=".621" style="stop-color:#e1e8ff"/><stop offset=".624" style="stop-color:#e1e7ff"/><stop offset=".628" style="stop-color:#e0e7ff"/><stop offset=".631" style="stop-color:#dfe7ff"/><stop offset=".634" style="stop-color:#dfe6ff"/><stop offset=".638" style="stop-color:#dee6ff"/><stop offset=".641" style="stop-color:#dee5ff"/><stop offset=".645" style="stop-color:#dde5ff"/><stop offset=".649" style="stop-color:#dce5ff"/><stop offset=".652" style="stop-color:#dce4ff"/><stop offset=".656" style="stop-color:#dbe4ff"/><stop offset=".66" style="stop-color:#dae4ff"/><stop offset=".663" style="stop-color:#dae3ff"/><stop offset=".668" style="stop-color:#d9e3ff"/><stop offset=".671" style="stop-color:#d9e2ff"/><stop offset=".675" style="stop-color:#d8e2ff"/><stop offset=".68" style="stop-color:#d7e2ff"/><stop offset=".683" style="stop-color:#d7e1ff"/><stop offset=".688" style="stop-color:#d6e1ff"/><stop offset=".692" style="stop-color:#d5e1ff"/><stop offset=".695" style="stop-color:#d5e0ff"/><stop offset=".701" style="stop-color:#d4e0ff"/><stop offset=".705" style="stop-color:#d4dfff"/><stop offset=".709" style="stop-color:#d3dfff"/><stop offset=".714" style="stop-color:#d2dfff"/><stop offset=".718" style="stop-color:#d2deff"/><stop offset=".724" style="stop-color:#d1deff"/><stop offset=".728" style="stop-color:#d1ddff"/><stop offset=".732" style="stop-color:#d0ddff"/><stop offset=".738" style="stop-color:#cfddff"/><stop offset=".742" style="stop-color:#cfdcff"/><stop offset=".748" style="stop-color:#cedcff"/><stop offset=".753" style="stop-color:#cddcff"/><stop offset=".757" style="stop-color:#cddbff"/><stop offset=".764" style="stop-color:#ccdbff"/><stop offset=".769" style="stop-color:#ccdaff"/><stop offset=".774" style="stop-color:#cbdaff"/><stop offset=".781" style="stop-color:#cadaff"/><stop offset=".785" style="stop-color:#cad9ff"/><stop offset=".793" style="stop-color:#c9d9ff"/><stop offset=".802" style="stop-color:#c8d8ff"/><stop offset=".81" style="stop-color:#c7d8ff"/><stop offset=".815" style="stop-color:#c7d7ff"/><stop offset=".823" style="stop-color:#c6d7ff"/><stop offset=".829" style="stop-color:#c5d7ff"/><stop offset=".834" style="stop-color:#c5d6ff"/><stop offset=".843" style="stop-color:#c4d6ff"/><stop offset=".849" style="stop-color:#c4d5ff"/><stop offset=".855" style="stop-color:#c3d5ff"/><stop offset=".864" style="stop-color:#c2d5ff"/><stop offset=".869" style="stop-color:#c2d4ff"/><stop offset=".879" style="stop-color:#c1d4ff"/><stop offset=".885" style="stop-color:#c1d3ff"/><stop offset=".892" style="stop-color:#c0d3ff"/><stop offset=".902" style="stop-color:#bfd3ff"/><stop offset=".908" style="stop-color:#bfd2ff"/><stop offset=".918" style="stop-color:#bed2ff"/><stop offset=".926" style="stop-color:#bdd2ff"/><stop offset=".933" style="stop-color:#bdd1ff"/><stop offset=".944" style="stop-color:#bcd1ff"/><stop offset=".951" style="stop-color:#bcd0ff"/><stop offset=".961" style="stop-color:#bbd0ff"/><stop offset=".971" style="stop-color:#bad0ff"/><stop offset=".979" style="stop-color:#bacfff"/><stop offset=".991" style="stop-color:#b9cfff"/><stop offset=".999" style="stop-color:#b9ceff"/><stop offset="1" style="stop-color:#b9ceff"/></linearGradient><path d="M18 16h1140v228H18z" style="fill:url(#SVGID_1_)"/><path d="M37 255h2v9h-2zM137 255h2v9h-2zM237 255h2v9h-2zM337 255h2v9h-2zM437 255h2v9h-2zM537 255h2v9h-2zM637 255h2v9h-2zM737 255h2v9h-2zM837 255h2v9h-2zM937 255h2v9h-2zM1037 255h2v9h-2zM1137 255h2v9h-2z"/><path d="M88 268.2h100v40H88z" class="st1"/><path d="M112.3 292.4v-3.1l6.1-11.8c.5-1 1-2.5 1-4.3 0-1.4-.7-2.1-1.7-2.1s-1.8.7-1.8 2.1v1.6h-3.6v-1.4c0-1.9.5-3.1 1.5-4s2.4-1.4 3.9-1.4 2.8.4 3.7 1.3c1 .9 1.6 2.2 1.6 4.2 0 1.8-.5 3.8-1.3 5.3l-5.5 10.5h6.8v3.2h-10.7zM135 291.2c-1 .9-2.3 1.4-3.8 1.4s-2.9-.5-3.9-1.4c-1-.9-1.5-2.1-1.5-4v-13.9c0-1.9.6-3.1 1.5-4 1-.9 2.4-1.4 3.9-1.4s2.9.5 3.8 1.4c1 .9 1.5 2.1 1.5 4v13.9c.1 1.9-.5 3.1-1.5 4zm-2-18c0-1.4-.8-2.1-1.8-2.1s-1.8.7-1.8 2.1v14.1c0 1.4.8 2.1 1.8 2.1s1.8-.7 1.8-2.1v-14.1zM148.7 291.2c-1 .9-2.3 1.4-3.8 1.4s-2.9-.5-3.9-1.4c-1-.9-1.5-2.1-1.5-4v-13.9c0-1.9.6-3.1 1.5-4 1-.9 2.4-1.4 3.9-1.4s2.9.5 3.8 1.4c1 .9 1.5 2.1 1.5 4v13.9c0 1.9-.6 3.1-1.5 4zm-2.1-18c0-1.4-.8-2.1-1.8-2.1s-1.8.7-1.8 2.1v14.1c0 1.4.8 2.1 1.8 2.1s1.8-.7 1.8-2.1v-14.1zM162.3 291.2c-1 .9-2.3 1.4-3.8 1.4s-2.9-.5-3.9-1.4c-1-.9-1.5-2.1-1.5-4v-13.9c0-1.9.6-3.1 1.5-4 1-.9 2.4-1.4 3.9-1.4s2.9.5 3.8 1.4c1 .9 1.5 2.1 1.5 4v13.9c0 1.9-.5 3.1-1.5 4zm-2.1-18c0-1.4-.8-2.1-1.8-2.1s-1.8.7-1.8 2.1v14.1c0 1.4.8 2.1 1.8 2.1s1.8-.7 1.8-2.1v-14.1z"/><path d="M188 268h100v40H188z" class="st1"/><path d="M221.4 291.1c-1 .9-2.4 1.4-3.9 1.4s-3-.5-3.9-1.4c-1-.9-1.5-2.1-1.5-4v-1.4h3.6v1.6c0 1.4.8 2.1 1.8 2.1.6 0 1-.3 1.3-.6.5-.6.6-2.1.6-3.6 0-1.6 0-2.9-.5-3.5-.3-.4-.7-.6-1.4-.6h-1.2v-3h1.2c.5 0 .9-.2 1.2-.5.5-.6.5-1.8.5-3.1 0-1.2 0-2.3-.5-2.9-.3-.3-.6-.5-1.2-.5-.9 0-1.6.6-1.6 1.9v1.7h-3.6v-1.5c0-1.9.5-3.1 1.5-4 1-.9 2.2-1.4 3.7-1.4 1.6 0 2.9.5 3.7 1.4 1.1 1.1 1.6 2.7 1.6 5 0 1.6-.1 2.8-.6 3.8-.3.6-.7 1.1-1.3 1.4.6.4 1.1.9 1.4 1.5.6 1.2.7 2.4.7 4.5 0 2.5-.1 4.2-1.6 5.7zM235 291.1c-1 .9-2.3 1.4-3.8 1.4s-2.9-.5-3.9-1.4c-1-.9-1.5-2.1-1.5-4v-13.9c0-1.9.6-3.1 1.5-4 1-.9 2.4-1.4 3.9-1.4s2.9.5 3.8 1.4c1 .9 1.5 2.1 1.5 4V287c.1 2-.5 3.1-1.5 4.1zm-2-18.1c0-1.4-.8-2.1-1.8-2.1s-1.8.7-1.8 2.1v14.1c0 1.4.8 2.1 1.8 2.1s1.8-.7 1.8-2.1V273zM248.7 291.1c-1 .9-2.3 1.4-3.8 1.4s-2.9-.5-3.9-1.4c-1-.9-1.5-2.1-1.5-4v-13.9c0-1.9.6-3.1 1.5-4 1-.9 2.4-1.4 3.9-1.4s2.9.5 3.8 1.4c1 .9 1.5 2.1 1.5 4V287c0 2-.6 3.1-1.5 4.1zm-2.1-18.1c0-1.4-.8-2.1-1.8-2.1s-1.8.7-1.8 2.1v14.1c0 1.4.8 2.1 1.8 2.1s1.8-.7 1.8-2.1V273zM262.3 291.1c-1 .9-2.3 1.4-3.8 1.4s-2.9-.5-3.9-1.4c-1-.9-1.5-2.1-1.5-4v-13.9c0-1.9.6-3.1 1.5-4 1-.9 2.4-1.4 3.9-1.4s2.9.5 3.8 1.4c1 .9 1.5 2.1 1.5 4V287c0 2-.5 3.1-1.5 4.1zm-2.1-18.1c0-1.4-.8-2.1-1.8-2.1s-1.8.7-1.8 2.1v14.1c0 1.4.8 2.1 1.8 2.1s1.8-.7 1.8-2.1V273z"/><path d="M288 268h100v40H288z" class="st1"/><path d="M321.9 288.4v3.8h-3.6v-3.8h-6.7v-3.2l6.2-17.2h3.5l-6 17.2h3v-4.3h3.6v4.3h1.7v3.2h-1.7zM335 291.1c-1 .9-2.3 1.4-3.8 1.4s-2.9-.5-3.9-1.4c-1-.9-1.5-2.1-1.5-4v-13.9c0-1.9.6-3.1 1.5-4 1-.9 2.4-1.4 3.9-1.4s2.9.5 3.8 1.4c1 .9 1.5 2.1 1.5 4V287c.1 2-.5 3.1-1.5 4.1zm-2-18.1c0-1.4-.8-2.1-1.8-2.1s-1.8.7-1.8 2.1v14.1c0 1.4.8 2.1 1.8 2.1s1.8-.7 1.8-2.1V273zM348.7 291.1c-1 .9-2.3 1.4-3.8 1.4s-2.9-.5-3.9-1.4c-1-.9-1.5-2.1-1.5-4v-13.9c0-1.9.6-3.1 1.5-4 1-.9 2.4-1.4 3.9-1.4s2.9.5 3.8 1.4c1 .9 1.5 2.1 1.5 4V287c0 2-.6 3.1-1.5 4.1zm-2.1-18.1c0-1.4-.8-2.1-1.8-2.1s-1.8.7-1.8 2.1v14.1c0 1.4.8 2.1 1.8 2.1s1.8-.7 1.8-2.1V273zM362.3 291.1c-1 .9-2.3 1.4-3.8 1.4s-2.9-.5-3.9-1.4c-1-.9-1.5-2.1-1.5-4v-13.9c0-1.9.6-3.1 1.5-4 1-.9 2.4-1.4 3.9-1.4s2.9.5 3.8 1.4c1 .9 1.5 2.1 1.5 4V287c0 2-.5 3.1-1.5 4.1zm-2.1-18.1c0-1.4-.8-2.1-1.8-2.1s-1.8.7-1.8 2.1v14.1c0 1.4.8 2.1 1.8 2.1s1.8-.7 1.8-2.1V273z"/><path d="M-12 268H88v40H-12z" class="st1"/><path d="M16.8 292.2v-20l-3.6 2.8v-4.1l3.6-2.9h3.6v24.2h-3.6zM35 291.1c-1 .9-2.3 1.4-3.8 1.4s-2.9-.5-3.9-1.4c-1-.9-1.5-2.1-1.5-4v-13.9c0-1.9.6-3.1 1.5-4 1-.9 2.4-1.4 3.9-1.4s2.9.5 3.8 1.4c1 .9 1.5 2.1 1.5 4V287c.1 2-.5 3.1-1.5 4.1zM33 273c0-1.4-.8-2.1-1.8-2.1s-1.8.7-1.8 2.1v14.1c0 1.4.8 2.1 1.8 2.1s1.8-.7 1.8-2.1V273zM48.7 291.1c-1 .9-2.3 1.4-3.8 1.4s-2.9-.5-3.9-1.4c-1-.9-1.5-2.1-1.5-4v-13.9c0-1.9.6-3.1 1.5-4 1-.9 2.4-1.4 3.9-1.4s2.9.5 3.8 1.4c1 .9 1.5 2.1 1.5 4V287c0 2-.6 3.1-1.5 4.1zM46.6 273c0-1.4-.8-2.1-1.8-2.1s-1.8.7-1.8 2.1v14.1c0 1.4.8 2.1 1.8 2.1s1.8-.7 1.8-2.1V273zM62.3 291.1c-1 .9-2.3 1.4-3.8 1.4s-2.9-.5-3.9-1.4c-1-.9-1.5-2.1-1.5-4v-13.9c0-1.9.6-3.1 1.5-4 1-.9 2.4-1.4 3.9-1.4s2.9.5 3.8 1.4c1 .9 1.5 2.1 1.5 4V287c0 2-.5 3.1-1.5 4.1zM60.2 273c0-1.4-.8-2.1-1.8-2.1s-1.8.7-1.8 2.1v14.1c0 1.4.8 2.1 1.8 2.1s1.8-.7 1.8-2.1V273z"/><path d="M388 268h100v33H388z" class="st1"/><path d="M421.4 291c-1 1-2.3 1.5-3.8 1.5s-2.9-.5-3.9-1.4c-1-.9-1.5-2.1-1.5-4v-1.2h3.6v1.7c0 1.5.8 2.1 1.8 2.1.6 0 1-.2 1.3-.6.5-.7.5-2.6.5-4.6s0-3.5-.5-4.3c-.3-.5-.8-.7-1.4-.7-1 0-1.8.7-1.8 2.1v.5h-3.4V268h10.4v3.2h-7.1v6.5c.3-.4.8-.9 1.3-1.2.5-.3 1.1-.4 1.7-.4 1.5 0 2.5.5 3.3 1.5 1 1.3 1.2 3.5 1.2 6.5-.1 3.1-.1 5.3-1.7 6.9zM435 291.1c-1 .9-2.3 1.4-3.8 1.4s-2.9-.5-3.9-1.4c-1-.9-1.5-2.1-1.5-4v-13.9c0-1.9.6-3.1 1.5-4 1-.9 2.4-1.4 3.9-1.4s2.9.5 3.8 1.4c1 .9 1.5 2.1 1.5 4V287c.1 2-.5 3.1-1.5 4.1zm-2-18.1c0-1.4-.8-2.1-1.8-2.1s-1.8.7-1.8 2.1v14.1c0 1.4.8 2.1 1.8 2.1s1.8-.7 1.8-2.1V273zM448.7 291.1c-1 .9-2.3 1.4-3.8 1.4s-2.9-.5-3.9-1.4c-1-.9-1.5-2.1-1.5-4v-13.9c0-1.9.6-3.1 1.5-4 1-.9 2.4-1.4 3.9-1.4s2.9.5 3.8 1.4c1 .9 1.5 2.1 1.5 4V287c0 2-.6 3.1-1.5 4.1zm-2.1-18.1c0-1.4-.8-2.1-1.8-2.1s-1.8.7-1.8 2.1v14.1c0 1.4.8 2.1 1.8 2.1s1.8-.7 1.8-2.1V273zM462.3 291.1c-1 .9-2.3 1.4-3.8 1.4s-2.9-.5-3.9-1.4c-1-.9-1.5-2.1-1.5-4v-13.9c0-1.9.6-3.1 1.5-4 1-.9 2.4-1.4 3.9-1.4s2.9.5 3.8 1.4c1 .9 1.5 2.1 1.5 4V287c0 2-.5 3.1-1.5 4.1zm-2.1-18.1c0-1.4-.8-2.1-1.8-2.1s-1.8.7-1.8 2.1v14.1c0 1.4.8 2.1 1.8 2.1s1.8-.7 1.8-2.1V273z"/><path d="M488 268h100v33H488z" class="st1"/><path d="M521.8 290.5c-1 1.4-2.5 1.9-4.3 1.9-1.9 0-3.4-.7-4.2-1.9-1-1.4-1.2-2.8-1.2-5.7 0-2.2.4-4.1 1-5.7l4.2-11.2h3.7l-4 9.8c.4-.3 1-.4 1.5-.4 1.3 0 2.4.5 3.2 1.5.9 1.1 1.2 2.4 1.2 6 .1 3.3-.3 4.6-1.1 5.7zm-2.9-9.5c-.3-.4-.8-.6-1.3-.6s-1 .2-1.3.6c-.6.7-.5 2.4-.5 3.9s0 3 .5 3.8c.3.4.8.6 1.3.6s1-.2 1.3-.6c.6-.7.5-2.3.5-3.8s0-3.2-.5-3.9zM535 291.1c-1 .9-2.3 1.4-3.8 1.4s-2.9-.5-3.9-1.4c-1-.9-1.5-2.1-1.5-4v-13.9c0-1.9.6-3.1 1.5-4 1-.9 2.4-1.4 3.9-1.4s2.9.5 3.8 1.4c1 .9 1.5 2.1 1.5 4V287c.1 2-.5 3.1-1.5 4.1zm-2-18.1c0-1.4-.8-2.1-1.8-2.1s-1.8.7-1.8 2.1v14.1c0 1.4.8 2.1 1.8 2.1s1.8-.7 1.8-2.1V273zM548.7 291.1c-1 .9-2.3 1.4-3.8 1.4s-2.9-.5-3.9-1.4c-1-.9-1.5-2.1-1.5-4v-13.9c0-1.9.6-3.1 1.5-4 1-.9 2.4-1.4 3.9-1.4s2.9.5 3.8 1.4c1 .9 1.5 2.1 1.5 4V287c0 2-.6 3.1-1.5 4.1zm-2.1-18.1c0-1.4-.8-2.1-1.8-2.1s-1.8.7-1.8 2.1v14.1c0 1.4.8 2.1 1.8 2.1s1.8-.7 1.8-2.1V273zM562.3 291.1c-1 .9-2.3 1.4-3.8 1.4s-2.9-.5-3.9-1.4c-1-.9-1.5-2.1-1.5-4v-13.9c0-1.9.6-3.1 1.5-4 1-.9 2.4-1.4 3.9-1.4s2.9.5 3.8 1.4c1 .9 1.5 2.1 1.5 4V287c0 2-.5 3.1-1.5 4.1zm-2.1-18.1c0-1.4-.8-2.1-1.8-2.1s-1.8.7-1.8 2.1v14.1c0 1.4.8 2.1 1.8 2.1s1.8-.7 1.8-2.1V273z"/><path d="M588 268h100v33H588z" class="st1"/><path d="M616.8 292.2h-3.6l6.4-21h-4.2v3.2h-3.5V268h11.3v3l-6.4 21.2zM635 291.1c-1 .9-2.3 1.4-3.8 1.4s-2.9-.5-3.9-1.4c-1-.9-1.5-2.1-1.5-4v-13.9c0-1.9.6-3.1 1.5-4 1-.9 2.4-1.4 3.9-1.4s2.9.5 3.8 1.4c1 .9 1.5 2.1 1.5 4V287c.1 2-.5 3.1-1.5 4.1zm-2-18.1c0-1.4-.8-2.1-1.8-2.1s-1.8.7-1.8 2.1v14.1c0 1.4.8 2.1 1.8 2.1s1.8-.7 1.8-2.1V273zM648.7 291.1c-1 .9-2.3 1.4-3.8 1.4s-2.9-.5-3.9-1.4c-1-.9-1.5-2.1-1.5-4v-13.9c0-1.9.6-3.1 1.5-4 1-.9 2.4-1.4 3.9-1.4s2.9.5 3.8 1.4c1 .9 1.5 2.1 1.5 4V287c0 2-.6 3.1-1.5 4.1zm-2.1-18.1c0-1.4-.8-2.1-1.8-2.1s-1.8.7-1.8 2.1v14.1c0 1.4.8 2.1 1.8 2.1s1.8-.7 1.8-2.1V273zM662.3 291.1c-1 .9-2.3 1.4-3.8 1.4s-2.9-.5-3.9-1.4c-1-.9-1.5-2.1-1.5-4v-13.9c0-1.9.6-3.1 1.5-4 1-.9 2.4-1.4 3.9-1.4s2.9.5 3.8 1.4 1.5 2.1 1.5 4V287c0 2-.5 3.1-1.5 4.1zm-2.1-18.1c0-1.4-.8-2.1-1.8-2.1s-1.8.7-1.8 2.1v14.1c0 1.4.8 2.1 1.8 2.1s1.8-.7 1.8-2.1V273z"/><path d="M688 268h100v33H688z" class="st1"/><path d="M721.4 291.1c-1 1-2.4 1.4-3.8 1.4s-2.9-.5-3.9-1.4c-1.4-1.4-1.6-3-1.6-5.7 0-2 .1-3.2.7-4.3.3-.6.8-1.1 1.4-1.5-.6-.4-1-.9-1.3-1.5-.5-1.1-.6-2.1-.6-3.8 0-2.3.3-3.9 1.6-5.2 1-1 2.2-1.4 3.7-1.4s2.8.4 3.7 1.4c1.2 1.2 1.6 2.8 1.6 5.2 0 1.7-.1 2.7-.6 3.8-.3.6-.7 1.1-1.3 1.5.6.4 1.1.9 1.4 1.5.6 1.1.7 2.2.7 4.3-.1 2.6-.3 4.2-1.7 5.7zm-2.5-9.5c-.3-.4-.8-.6-1.3-.6s-1 .2-1.3.6c-.6.7-.5 2-.5 3.6 0 1.4 0 2.8.5 3.5.3.4.8.6 1.3.6s1-.2 1.3-.6c.5-.7.5-2.1.5-3.5 0-1.5 0-2.9-.5-3.6zm-.2-10.2c-.3-.3-.7-.5-1.2-.5s-.9.1-1.2.5c-.5.6-.5 1.9-.5 3 0 1.2 0 2.5.6 3.2.3.3.6.4 1.1.4.4 0 .8-.1 1.1-.4.6-.6.6-2 .6-3.2 0-1.1 0-2.4-.5-3zM735 291.1c-1 .9-2.3 1.4-3.8 1.4s-2.9-.5-3.9-1.4c-1-.9-1.5-2.1-1.5-4v-13.9c0-1.9.6-3.1 1.5-4 1-.9 2.4-1.4 3.9-1.4s2.9.5 3.8 1.4c1 .9 1.5 2.1 1.5 4V287c.1 2-.5 3.1-1.5 4.1zm-2-18.1c0-1.4-.8-2.1-1.8-2.1s-1.8.7-1.8 2.1v14.1c0 1.4.8 2.1 1.8 2.1s1.8-.7 1.8-2.1V273zM748.7 291.1c-1 .9-2.3 1.4-3.8 1.4s-2.9-.5-3.9-1.4c-1-.9-1.5-2.1-1.5-4v-13.9c0-1.9.6-3.1 1.5-4 1-.9 2.4-1.4 3.9-1.4s2.9.5 3.8 1.4c1 .9 1.5 2.1 1.5 4V287c0 2-.6 3.1-1.5 4.1zm-2.1-18.1c0-1.4-.8-2.1-1.8-2.1s-1.8.7-1.8 2.1v14.1c0 1.4.8 2.1 1.8 2.1s1.8-.7 1.8-2.1V273zM762.3 291.1c-1 .9-2.3 1.4-3.8 1.4s-2.9-.5-3.9-1.4c-1-.9-1.5-2.1-1.5-4v-13.9c0-1.9.6-3.1 1.5-4 1-.9 2.4-1.4 3.9-1.4s2.9.5 3.8 1.4 1.5 2.1 1.5 4V287c0 2-.5 3.1-1.5 4.1zm-2.1-18.1c0-1.4-.8-2.1-1.8-2.1s-1.8.7-1.8 2.1v14.1c0 1.4.8 2.1 1.8 2.1s1.8-.7 1.8-2.1V273z"/><path d="M788 268h100v33H788z" class="st1"/><path d="m822 281.1-4.3 11.2H814l4-9.8c-.4.3-1 .4-1.5.4-1.3 0-2.4-.5-3.2-1.5-.9-1.1-1.2-2.4-1.2-6 0-3.2.4-4.6 1.2-5.7 1-1.4 2.5-1.9 4.3-1.9 1.9 0 3.4.7 4.3 1.9 1 1.4 1.2 2.8 1.2 5.7-.1 2.1-.5 4.1-1.1 5.7zm-3.1-9.5c-.3-.4-.8-.6-1.3-.6s-1 .2-1.3.6c-.6.7-.5 2.3-.5 3.8s0 3.1.5 3.9c.3.4.8.6 1.3.6s1-.2 1.3-.6c.6-.7.5-2.4.5-3.9s0-3-.5-3.8zM835 291.1c-1 .9-2.3 1.4-3.8 1.4s-2.9-.5-3.9-1.4c-1-.9-1.5-2.1-1.5-4v-13.9c0-1.9.6-3.1 1.5-4 1-.9 2.4-1.4 3.9-1.4s2.9.5 3.8 1.4c1 .9 1.5 2.1 1.5 4V287c.1 2-.5 3.1-1.5 4.1zm-2-18.1c0-1.4-.8-2.1-1.8-2.1s-1.8.7-1.8 2.1v14.1c0 1.4.8 2.1 1.8 2.1s1.8-.7 1.8-2.1V273zM848.7 291.1c-1 .9-2.3 1.4-3.8 1.4s-2.9-.5-3.9-1.4c-1-.9-1.5-2.1-1.5-4v-13.9c0-1.9.6-3.1 1.5-4 1-.9 2.4-1.4 3.9-1.4s2.9.5 3.8 1.4c1 .9 1.5 2.1 1.5 4V287c0 2-.6 3.1-1.5 4.1zm-2.1-18.1c0-1.4-.8-2.1-1.8-2.1s-1.8.7-1.8 2.1v14.1c0 1.4.8 2.1 1.8 2.1s1.8-.7 1.8-2.1V273zM862.3 291.1c-1 .9-2.3 1.4-3.8 1.4s-2.9-.5-3.9-1.4c-1-.9-1.5-2.1-1.5-4v-13.9c0-1.9.6-3.1 1.5-4 1-.9 2.4-1.4 3.9-1.4s2.9.5 3.8 1.4 1.5 2.1 1.5 4V287c0 2-.5 3.1-1.5 4.1zm-2.1-18.1c0-1.4-.8-2.1-1.8-2.1s-1.8.7-1.8 2.1v14.1c0 1.4.8 2.1 1.8 2.1s1.8-.7 1.8-2.1V273z"/><path d="M888 268h100v33H888z" class="st1"/><path d="M909.9 292.2v-20l-3.6 2.8v-4.1l3.6-2.9h3.6v24.2h-3.6zM928.2 291.1c-1 .9-2.3 1.4-3.8 1.4s-2.9-.5-3.9-1.4-1.5-2.1-1.5-4v-13.9c0-1.9.6-3.1 1.5-4s2.4-1.4 3.9-1.4 2.9.5 3.8 1.4c1 .9 1.5 2.1 1.5 4V287c.1 2-.5 3.1-1.5 4.1zm-2-18.1c0-1.4-.8-2.1-1.8-2.1s-1.8.7-1.8 2.1v14.1c0 1.4.8 2.1 1.8 2.1s1.8-.7 1.8-2.1V273zM941.9 291.1c-1 .9-2.3 1.4-3.8 1.4s-2.9-.5-3.9-1.4c-1-.9-1.5-2.1-1.5-4v-13.9c0-1.9.6-3.1 1.5-4 1-.9 2.4-1.4 3.9-1.4s2.9.5 3.8 1.4c1 .9 1.5 2.1 1.5 4V287c0 2-.6 3.1-1.5 4.1zm-2.1-18.1c0-1.4-.8-2.1-1.8-2.1s-1.8.7-1.8 2.1v14.1c0 1.4.8 2.1 1.8 2.1s1.8-.7 1.8-2.1V273zM955.5 291.1c-1 .9-2.3 1.4-3.8 1.4s-2.9-.5-3.9-1.4c-1-.9-1.5-2.1-1.5-4v-13.9c0-1.9.6-3.1 1.5-4 1-.9 2.4-1.4 3.9-1.4s2.9.5 3.8 1.4c1 .9 1.5 2.1 1.5 4V287c0 2-.6 3.1-1.5 4.1zm-2.1-18.1c0-1.4-.8-2.1-1.8-2.1s-1.8.7-1.8 2.1v14.1c0 1.4.8 2.1 1.8 2.1s1.8-.7 1.8-2.1V273zM969.1 291.1c-1 .9-2.3 1.4-3.8 1.4s-2.9-.5-3.9-1.4c-1-.9-1.5-2.1-1.5-4v-13.9c0-1.9.6-3.1 1.5-4 1-.9 2.4-1.4 3.9-1.4s2.9.5 3.8 1.4 1.5 2.1 1.5 4V287c.1 2-.5 3.1-1.5 4.1zm-2-18.1c0-1.4-.8-2.1-1.8-2.1s-1.8.7-1.8 2.1v14.1c0 1.4.8 2.1 1.8 2.1s1.8-.7 1.8-2.1V273z"/><path d="M988 268h100v33H988z" class="st1"/><path d="M1009.9 292.2v-20l-3.6 2.8v-4.1l3.6-2.9h3.6v24.2h-3.6zM1023.6 292.2v-20l-3.6 2.8v-4.1l3.6-2.9h3.6v24.2h-3.6zM1041.9 291.1c-1 .9-2.3 1.4-3.8 1.4s-2.9-.5-3.9-1.4c-1-.9-1.5-2.1-1.5-4v-13.9c0-1.9.6-3.1 1.5-4 1-.9 2.4-1.4 3.9-1.4s2.9.5 3.8 1.4c1 .9 1.5 2.1 1.5 4V287c0 2-.6 3.1-1.5 4.1zm-2.1-18.1c0-1.4-.8-2.1-1.8-2.1s-1.8.7-1.8 2.1v14.1c0 1.4.8 2.1 1.8 2.1s1.8-.7 1.8-2.1V273zM1055.5 291.1c-1 .9-2.3 1.4-3.8 1.4s-2.9-.5-3.9-1.4c-1-.9-1.5-2.1-1.5-4v-13.9c0-1.9.6-3.1 1.5-4 1-.9 2.4-1.4 3.9-1.4s2.9.5 3.8 1.4c1 .9 1.5 2.1 1.5 4V287c0 2-.6 3.1-1.5 4.1zm-2.1-18.1c0-1.4-.8-2.1-1.8-2.1s-1.8.7-1.8 2.1v14.1c0 1.4.8 2.1 1.8 2.1s1.8-.7 1.8-2.1V273zM1069.1 291.1c-1 .9-2.3 1.4-3.8 1.4s-2.9-.5-3.9-1.4c-1-.9-1.5-2.1-1.5-4v-13.9c0-1.9.6-3.1 1.5-4 1-.9 2.4-1.4 3.9-1.4s2.9.5 3.8 1.4 1.5 2.1 1.5 4V287c.1 2-.5 3.1-1.5 4.1zm-2-18.1c0-1.4-.8-2.1-1.8-2.1s-1.8.7-1.8 2.1v14.1c0 1.4.8 2.1 1.8 2.1s1.8-.7 1.8-2.1V273z"/><path d="M1088 268h100v33h-100z" class="st1"/><path d="M1109.9 292.2v-20l-3.6 2.8v-4.1l3.6-2.9h3.6v24.2h-3.6zM1119.1 292.2v-3.1l6.1-11.8c.5-1 1-2.5 1-4.3 0-1.4-.7-2.1-1.7-2.1s-1.8.7-1.8 2.1v1.6h-3.6v-1.4c0-1.9.5-3.1 1.5-4s2.4-1.4 3.9-1.4 2.8.4 3.7 1.3c1 .9 1.6 2.2 1.6 4.2 0 1.8-.5 3.8-1.3 5.3L1123 289h6.8v3.2h-10.7zM1141.9 291.1c-1 .9-2.3 1.4-3.8 1.4s-2.9-.5-3.9-1.4c-1-.9-1.5-2.1-1.5-4v-13.9c0-1.9.6-3.1 1.5-4 1-.9 2.4-1.4 3.9-1.4s2.9.5 3.8 1.4c1 .9 1.5 2.1 1.5 4V287c0 2-.6 3.1-1.5 4.1zm-2.1-18.1c0-1.4-.8-2.1-1.8-2.1s-1.8.7-1.8 2.1v14.1c0 1.4.8 2.1 1.8 2.1s1.8-.7 1.8-2.1V273zM1155.5 291.1c-1 .9-2.3 1.4-3.8 1.4s-2.9-.5-3.9-1.4c-1-.9-1.5-2.1-1.5-4v-13.9c0-1.9.6-3.1 1.5-4 1-.9 2.4-1.4 3.9-1.4s2.9.5 3.8 1.4c1 .9 1.5 2.1 1.5 4V287c0 2-.6 3.1-1.5 4.1zm-2.1-18.1c0-1.4-.8-2.1-1.8-2.1s-1.8.7-1.8 2.1v14.1c0 1.4.8 2.1 1.8 2.1s1.8-.7 1.8-2.1V273zM1169.1 291.1c-1 .9-2.3 1.4-3.8 1.4s-2.9-.5-3.9-1.4c-1-.9-1.5-2.1-1.5-4v-13.9c0-1.9.6-3.1 1.5-4 1-.9 2.4-1.4 3.9-1.4s2.9.5 3.8 1.4 1.5 2.1 1.5 4V287c.1 2-.5 3.1-1.5 4.1zm-2-18.1c0-1.4-.8-2.1-1.8-2.1s-1.8.7-1.8 2.1v14.1c0 1.4.8 2.1 1.8 2.1s1.8-.7 1.8-2.1V273zM18 253h1140v2H18z"/></svg>