<?xml version="1.0" encoding="utf-8" standalone="no"?>
<!DOCTYPE svg PUBLIC "-//W3C//DTD SVG 1.1//EN"
  "http://www.w3.org/Graphics/SVG/1.1/DTD/svg11.dtd">
<svg height="306.541687pt" version="1.1" viewBox="0 0 405.196459 306.541687" width="405.196459pt" xmlns="http://www.w3.org/2000/svg" xmlns:xlink="http://www.w3.org/1999/xlink">
 <metadata>
  <rdf:RDF xmlns:cc="http://creativecommons.org/ns#" xmlns:dc="http://purl.org/dc/elements/1.1/" xmlns:rdf="http://www.w3.org/1999/02/22-rdf-syntax-ns#">
   <cc:Work>
    <dc:type rdf:resource="http://purl.org/dc/dcmitype/StillImage"/>
    <dc:date>2021-07-01T15:59:33.259717</dc:date>
    <dc:format>image/svg+xml</dc:format>
    <dc:creator>
     <cc:Agent>
      <dc:title>Matplotlib v3.4.1, https://matplotlib.org/</dc:title>
     </cc:Agent>
    </dc:creator>
   </cc:Work>
  </rdf:RDF>
 </metadata>
 <defs>
  <style type="text/css">*{stroke-linecap:butt;stroke-linejoin:round;}</style>
 </defs>
 <g id="figure_1">
  <g id="patch_1">
   <path d="M 0 306.541687 
L 405.196459 306.541687 
L 405.196459 0 
L 0 0 
z
" style="fill:#ffffff;"/>
  </g>
  <g id="axes_1">
   <g id="patch_2">
    <path d="M 35.20625 273.312 
L 392.32625 273.312 
L 392.32625 7.2 
L 35.20625 7.2 
z
" style="fill:#ffffff;"/>
   </g>
   <g id="matplotlib.axis_1">
    <g id="xtick_1">
     <g id="line2d_1"/>
     <g id="text_1">
      <!-- −0.15 -->
      <g style="fill:#262626;" transform="translate(41.31171 283.969812)scale(0.1 -0.1)">
       <defs>
        <path d="M 3381 1997 
L 356 1997 
L 356 2522 
L 3381 2522 
L 3381 1997 
z
" id="ArialMT-2212" transform="scale(0.015625)"/>
        <path d="M 266 2259 
Q 266 3072 433 3567 
Q 600 4063 929 4331 
Q 1259 4600 1759 4600 
Q 2128 4600 2406 4451 
Q 2684 4303 2865 4023 
Q 3047 3744 3150 3342 
Q 3253 2941 3253 2259 
Q 3253 1453 3087 958 
Q 2922 463 2592 192 
Q 2263 -78 1759 -78 
Q 1097 -78 719 397 
Q 266 969 266 2259 
z
M 844 2259 
Q 844 1131 1108 757 
Q 1372 384 1759 384 
Q 2147 384 2411 759 
Q 2675 1134 2675 2259 
Q 2675 3391 2411 3762 
Q 2147 4134 1753 4134 
Q 1366 4134 1134 3806 
Q 844 3388 844 2259 
z
" id="ArialMT-30" transform="scale(0.015625)"/>
        <path d="M 581 0 
L 581 641 
L 1222 641 
L 1222 0 
L 581 0 
z
" id="ArialMT-2e" transform="scale(0.015625)"/>
        <path d="M 2384 0 
L 1822 0 
L 1822 3584 
Q 1619 3391 1289 3197 
Q 959 3003 697 2906 
L 697 3450 
Q 1169 3672 1522 3987 
Q 1875 4303 2022 4600 
L 2384 4600 
L 2384 0 
z
" id="ArialMT-31" transform="scale(0.015625)"/>
        <path d="M 266 1200 
L 856 1250 
Q 922 819 1161 601 
Q 1400 384 1738 384 
Q 2144 384 2425 690 
Q 2706 997 2706 1503 
Q 2706 1984 2436 2262 
Q 2166 2541 1728 2541 
Q 1456 2541 1237 2417 
Q 1019 2294 894 2097 
L 366 2166 
L 809 4519 
L 3088 4519 
L 3088 3981 
L 1259 3981 
L 1013 2750 
Q 1425 3038 1878 3038 
Q 2478 3038 2890 2622 
Q 3303 2206 3303 1553 
Q 3303 931 2941 478 
Q 2500 -78 1738 -78 
Q 1113 -78 717 272 
Q 322 622 266 1200 
z
" id="ArialMT-35" transform="scale(0.015625)"/>
       </defs>
       <use xlink:href="#ArialMT-2212"/>
       <use x="58.398438" xlink:href="#ArialMT-30"/>
       <use x="114.013672" xlink:href="#ArialMT-2e"/>
       <use x="141.796875" xlink:href="#ArialMT-31"/>
       <use x="197.412109" xlink:href="#ArialMT-35"/>
      </g>
     </g>
    </g>
    <g id="xtick_2">
     <g id="line2d_2"/>
     <g id="text_2">
      <!-- −0.10 -->
      <g style="fill:#262626;" transform="translate(89.069353 283.969812)scale(0.1 -0.1)">
       <use xlink:href="#ArialMT-2212"/>
       <use x="58.398438" xlink:href="#ArialMT-30"/>
       <use x="114.013672" xlink:href="#ArialMT-2e"/>
       <use x="141.796875" xlink:href="#ArialMT-31"/>
       <use x="197.412109" xlink:href="#ArialMT-30"/>
      </g>
     </g>
    </g>
    <g id="xtick_3">
     <g id="line2d_3"/>
     <g id="text_3">
      <!-- −0.05 -->
      <g style="fill:#262626;" transform="translate(136.826995 283.969812)scale(0.1 -0.1)">
       <use xlink:href="#ArialMT-2212"/>
       <use x="58.398438" xlink:href="#ArialMT-30"/>
       <use x="114.013672" xlink:href="#ArialMT-2e"/>
       <use x="141.796875" xlink:href="#ArialMT-30"/>
       <use x="197.412109" xlink:href="#ArialMT-35"/>
      </g>
     </g>
    </g>
    <g id="xtick_4">
     <g id="line2d_4"/>
     <g id="text_4">
      <!-- 0.00 -->
      <g style="fill:#262626;" transform="translate(187.504951 283.969812)scale(0.1 -0.1)">
       <use xlink:href="#ArialMT-30"/>
       <use x="55.615234" xlink:href="#ArialMT-2e"/>
       <use x="83.398438" xlink:href="#ArialMT-30"/>
       <use x="139.013672" xlink:href="#ArialMT-30"/>
      </g>
     </g>
    </g>
    <g id="xtick_5">
     <g id="line2d_5"/>
     <g id="text_5">
      <!-- 0.05 -->
      <g style="fill:#262626;" transform="translate(235.262594 283.969812)scale(0.1 -0.1)">
       <use xlink:href="#ArialMT-30"/>
       <use x="55.615234" xlink:href="#ArialMT-2e"/>
       <use x="83.398438" xlink:href="#ArialMT-30"/>
       <use x="139.013672" xlink:href="#ArialMT-35"/>
      </g>
     </g>
    </g>
    <g id="xtick_6">
     <g id="line2d_6"/>
     <g id="text_6">
      <!-- 0.10 -->
      <g style="fill:#262626;" transform="translate(283.020236 283.969812)scale(0.1 -0.1)">
       <use xlink:href="#ArialMT-30"/>
       <use x="55.615234" xlink:href="#ArialMT-2e"/>
       <use x="83.398438" xlink:href="#ArialMT-31"/>
       <use x="139.013672" xlink:href="#ArialMT-30"/>
      </g>
     </g>
    </g>
    <g id="xtick_7">
     <g id="line2d_7"/>
     <g id="text_7">
      <!-- 0.15 -->
      <g style="fill:#262626;" transform="translate(330.777879 283.969812)scale(0.1 -0.1)">
       <use xlink:href="#ArialMT-30"/>
       <use x="55.615234" xlink:href="#ArialMT-2e"/>
       <use x="83.398438" xlink:href="#ArialMT-31"/>
       <use x="139.013672" xlink:href="#ArialMT-35"/>
      </g>
     </g>
    </g>
    <g id="xtick_8">
     <g id="line2d_8"/>
     <g id="text_8">
      <!-- 0.20 -->
      <g style="fill:#262626;" transform="translate(378.535522 283.969812)scale(0.1 -0.1)">
       <defs>
        <path d="M 3222 541 
L 3222 0 
L 194 0 
Q 188 203 259 391 
Q 375 700 629 1000 
Q 884 1300 1366 1694 
Q 2113 2306 2375 2664 
Q 2638 3022 2638 3341 
Q 2638 3675 2398 3904 
Q 2159 4134 1775 4134 
Q 1369 4134 1125 3890 
Q 881 3647 878 3216 
L 300 3275 
Q 359 3922 746 4261 
Q 1134 4600 1788 4600 
Q 2447 4600 2831 4234 
Q 3216 3869 3216 3328 
Q 3216 3053 3103 2787 
Q 2991 2522 2730 2228 
Q 2469 1934 1863 1422 
Q 1356 997 1212 845 
Q 1069 694 975 541 
L 3222 541 
z
" id="ArialMT-32" transform="scale(0.015625)"/>
       </defs>
       <use xlink:href="#ArialMT-30"/>
       <use x="55.615234" xlink:href="#ArialMT-2e"/>
       <use x="83.398438" xlink:href="#ArialMT-32"/>
       <use x="139.013672" xlink:href="#ArialMT-30"/>
      </g>
     </g>
    </g>
    <g id="text_9">
     <!-- BIGI (negative favors women, positive men) -->
     <g style="fill:#262626;" transform="translate(116.787344 297.237)scale(0.1 -0.1)">
      <defs>
       <path d="M 469 0 
L 469 4581 
L 2188 4581 
Q 2713 4581 3030 4442 
Q 3347 4303 3526 4014 
Q 3706 3725 3706 3409 
Q 3706 3116 3547 2856 
Q 3388 2597 3066 2438 
Q 3481 2316 3704 2022 
Q 3928 1728 3928 1328 
Q 3928 1006 3792 729 
Q 3656 453 3456 303 
Q 3256 153 2954 76 
Q 2653 0 2216 0 
L 469 0 
z
M 1075 2656 
L 2066 2656 
Q 2469 2656 2644 2709 
Q 2875 2778 2992 2937 
Q 3109 3097 3109 3338 
Q 3109 3566 3000 3739 
Q 2891 3913 2687 3977 
Q 2484 4041 1991 4041 
L 1075 4041 
L 1075 2656 
z
M 1075 541 
L 2216 541 
Q 2509 541 2628 563 
Q 2838 600 2978 687 
Q 3119 775 3209 942 
Q 3300 1109 3300 1328 
Q 3300 1584 3169 1773 
Q 3038 1963 2805 2039 
Q 2572 2116 2134 2116 
L 1075 2116 
L 1075 541 
z
" id="ArialMT-42" transform="scale(0.015625)"/>
       <path d="M 597 0 
L 597 4581 
L 1203 4581 
L 1203 0 
L 597 0 
z
" id="ArialMT-49" transform="scale(0.015625)"/>
       <path d="M 2638 1797 
L 2638 2334 
L 4578 2338 
L 4578 638 
Q 4131 281 3656 101 
Q 3181 -78 2681 -78 
Q 2006 -78 1454 211 
Q 903 500 622 1047 
Q 341 1594 341 2269 
Q 341 2938 620 3517 
Q 900 4097 1425 4378 
Q 1950 4659 2634 4659 
Q 3131 4659 3532 4498 
Q 3934 4338 4162 4050 
Q 4391 3763 4509 3300 
L 3963 3150 
Q 3859 3500 3706 3700 
Q 3553 3900 3268 4020 
Q 2984 4141 2638 4141 
Q 2222 4141 1919 4014 
Q 1616 3888 1430 3681 
Q 1244 3475 1141 3228 
Q 966 2803 966 2306 
Q 966 1694 1177 1281 
Q 1388 869 1791 669 
Q 2194 469 2647 469 
Q 3041 469 3416 620 
Q 3791 772 3984 944 
L 3984 1797 
L 2638 1797 
z
" id="ArialMT-47" transform="scale(0.015625)"/>
       <path id="ArialMT-20" transform="scale(0.015625)"/>
       <path d="M 1497 -1347 
Q 1031 -759 709 28 
Q 388 816 388 1659 
Q 388 2403 628 3084 
Q 909 3875 1497 4659 
L 1900 4659 
Q 1522 4009 1400 3731 
Q 1209 3300 1100 2831 
Q 966 2247 966 1656 
Q 966 153 1900 -1347 
L 1497 -1347 
z
" id="ArialMT-28" transform="scale(0.015625)"/>
       <path d="M 422 0 
L 422 3319 
L 928 3319 
L 928 2847 
Q 1294 3394 1984 3394 
Q 2284 3394 2536 3286 
Q 2788 3178 2913 3003 
Q 3038 2828 3088 2588 
Q 3119 2431 3119 2041 
L 3119 0 
L 2556 0 
L 2556 2019 
Q 2556 2363 2490 2533 
Q 2425 2703 2258 2804 
Q 2091 2906 1866 2906 
Q 1506 2906 1245 2678 
Q 984 2450 984 1813 
L 984 0 
L 422 0 
z
" id="ArialMT-6e" transform="scale(0.015625)"/>
       <path d="M 2694 1069 
L 3275 997 
Q 3138 488 2766 206 
Q 2394 -75 1816 -75 
Q 1088 -75 661 373 
Q 234 822 234 1631 
Q 234 2469 665 2931 
Q 1097 3394 1784 3394 
Q 2450 3394 2872 2941 
Q 3294 2488 3294 1666 
Q 3294 1616 3291 1516 
L 816 1516 
Q 847 969 1125 678 
Q 1403 388 1819 388 
Q 2128 388 2347 550 
Q 2566 713 2694 1069 
z
M 847 1978 
L 2700 1978 
Q 2663 2397 2488 2606 
Q 2219 2931 1791 2931 
Q 1403 2931 1139 2672 
Q 875 2413 847 1978 
z
" id="ArialMT-65" transform="scale(0.015625)"/>
       <path d="M 319 -275 
L 866 -356 
Q 900 -609 1056 -725 
Q 1266 -881 1628 -881 
Q 2019 -881 2231 -725 
Q 2444 -569 2519 -288 
Q 2563 -116 2559 434 
Q 2191 0 1641 0 
Q 956 0 581 494 
Q 206 988 206 1678 
Q 206 2153 378 2554 
Q 550 2956 876 3175 
Q 1203 3394 1644 3394 
Q 2231 3394 2613 2919 
L 2613 3319 
L 3131 3319 
L 3131 450 
Q 3131 -325 2973 -648 
Q 2816 -972 2473 -1159 
Q 2131 -1347 1631 -1347 
Q 1038 -1347 672 -1080 
Q 306 -813 319 -275 
z
M 784 1719 
Q 784 1066 1043 766 
Q 1303 466 1694 466 
Q 2081 466 2343 764 
Q 2606 1063 2606 1700 
Q 2606 2309 2336 2618 
Q 2066 2928 1684 2928 
Q 1309 2928 1046 2623 
Q 784 2319 784 1719 
z
" id="ArialMT-67" transform="scale(0.015625)"/>
       <path d="M 2588 409 
Q 2275 144 1986 34 
Q 1697 -75 1366 -75 
Q 819 -75 525 192 
Q 231 459 231 875 
Q 231 1119 342 1320 
Q 453 1522 633 1644 
Q 813 1766 1038 1828 
Q 1203 1872 1538 1913 
Q 2219 1994 2541 2106 
Q 2544 2222 2544 2253 
Q 2544 2597 2384 2738 
Q 2169 2928 1744 2928 
Q 1347 2928 1158 2789 
Q 969 2650 878 2297 
L 328 2372 
Q 403 2725 575 2942 
Q 747 3159 1072 3276 
Q 1397 3394 1825 3394 
Q 2250 3394 2515 3294 
Q 2781 3194 2906 3042 
Q 3031 2891 3081 2659 
Q 3109 2516 3109 2141 
L 3109 1391 
Q 3109 606 3145 398 
Q 3181 191 3288 0 
L 2700 0 
Q 2613 175 2588 409 
z
M 2541 1666 
Q 2234 1541 1622 1453 
Q 1275 1403 1131 1340 
Q 988 1278 909 1158 
Q 831 1038 831 891 
Q 831 666 1001 516 
Q 1172 366 1500 366 
Q 1825 366 2078 508 
Q 2331 650 2450 897 
Q 2541 1088 2541 1459 
L 2541 1666 
z
" id="ArialMT-61" transform="scale(0.015625)"/>
       <path d="M 1650 503 
L 1731 6 
Q 1494 -44 1306 -44 
Q 1000 -44 831 53 
Q 663 150 594 308 
Q 525 466 525 972 
L 525 2881 
L 113 2881 
L 113 3319 
L 525 3319 
L 525 4141 
L 1084 4478 
L 1084 3319 
L 1650 3319 
L 1650 2881 
L 1084 2881 
L 1084 941 
Q 1084 700 1114 631 
Q 1144 563 1211 522 
Q 1278 481 1403 481 
Q 1497 481 1650 503 
z
" id="ArialMT-74" transform="scale(0.015625)"/>
       <path d="M 425 3934 
L 425 4581 
L 988 4581 
L 988 3934 
L 425 3934 
z
M 425 0 
L 425 3319 
L 988 3319 
L 988 0 
L 425 0 
z
" id="ArialMT-69" transform="scale(0.015625)"/>
       <path d="M 1344 0 
L 81 3319 
L 675 3319 
L 1388 1331 
Q 1503 1009 1600 663 
Q 1675 925 1809 1294 
L 2547 3319 
L 3125 3319 
L 1869 0 
L 1344 0 
z
" id="ArialMT-76" transform="scale(0.015625)"/>
       <path d="M 556 0 
L 556 2881 
L 59 2881 
L 59 3319 
L 556 3319 
L 556 3672 
Q 556 4006 616 4169 
Q 697 4388 901 4523 
Q 1106 4659 1475 4659 
Q 1713 4659 2000 4603 
L 1916 4113 
Q 1741 4144 1584 4144 
Q 1328 4144 1222 4034 
Q 1116 3925 1116 3625 
L 1116 3319 
L 1763 3319 
L 1763 2881 
L 1116 2881 
L 1116 0 
L 556 0 
z
" id="ArialMT-66" transform="scale(0.015625)"/>
       <path d="M 213 1659 
Q 213 2581 725 3025 
Q 1153 3394 1769 3394 
Q 2453 3394 2887 2945 
Q 3322 2497 3322 1706 
Q 3322 1066 3130 698 
Q 2938 331 2570 128 
Q 2203 -75 1769 -75 
Q 1072 -75 642 372 
Q 213 819 213 1659 
z
M 791 1659 
Q 791 1022 1069 705 
Q 1347 388 1769 388 
Q 2188 388 2466 706 
Q 2744 1025 2744 1678 
Q 2744 2294 2464 2611 
Q 2184 2928 1769 2928 
Q 1347 2928 1069 2612 
Q 791 2297 791 1659 
z
" id="ArialMT-6f" transform="scale(0.015625)"/>
       <path d="M 416 0 
L 416 3319 
L 922 3319 
L 922 2816 
Q 1116 3169 1280 3281 
Q 1444 3394 1641 3394 
Q 1925 3394 2219 3213 
L 2025 2691 
Q 1819 2813 1613 2813 
Q 1428 2813 1281 2702 
Q 1134 2591 1072 2394 
Q 978 2094 978 1738 
L 978 0 
L 416 0 
z
" id="ArialMT-72" transform="scale(0.015625)"/>
       <path d="M 197 991 
L 753 1078 
Q 800 744 1014 566 
Q 1228 388 1613 388 
Q 2000 388 2187 545 
Q 2375 703 2375 916 
Q 2375 1106 2209 1216 
Q 2094 1291 1634 1406 
Q 1016 1563 777 1677 
Q 538 1791 414 1992 
Q 291 2194 291 2438 
Q 291 2659 392 2848 
Q 494 3038 669 3163 
Q 800 3259 1026 3326 
Q 1253 3394 1513 3394 
Q 1903 3394 2198 3281 
Q 2494 3169 2634 2976 
Q 2775 2784 2828 2463 
L 2278 2388 
Q 2241 2644 2061 2787 
Q 1881 2931 1553 2931 
Q 1166 2931 1000 2803 
Q 834 2675 834 2503 
Q 834 2394 903 2306 
Q 972 2216 1119 2156 
Q 1203 2125 1616 2013 
Q 2213 1853 2448 1751 
Q 2684 1650 2818 1456 
Q 2953 1263 2953 975 
Q 2953 694 2789 445 
Q 2625 197 2315 61 
Q 2006 -75 1616 -75 
Q 969 -75 630 194 
Q 291 463 197 991 
z
" id="ArialMT-73" transform="scale(0.015625)"/>
       <path d="M 1034 0 
L 19 3319 
L 600 3319 
L 1128 1403 
L 1325 691 
Q 1338 744 1497 1375 
L 2025 3319 
L 2603 3319 
L 3100 1394 
L 3266 759 
L 3456 1400 
L 4025 3319 
L 4572 3319 
L 3534 0 
L 2950 0 
L 2422 1988 
L 2294 2553 
L 1622 0 
L 1034 0 
z
" id="ArialMT-77" transform="scale(0.015625)"/>
       <path d="M 422 0 
L 422 3319 
L 925 3319 
L 925 2853 
Q 1081 3097 1340 3245 
Q 1600 3394 1931 3394 
Q 2300 3394 2536 3241 
Q 2772 3088 2869 2813 
Q 3263 3394 3894 3394 
Q 4388 3394 4653 3120 
Q 4919 2847 4919 2278 
L 4919 0 
L 4359 0 
L 4359 2091 
Q 4359 2428 4304 2576 
Q 4250 2725 4106 2815 
Q 3963 2906 3769 2906 
Q 3419 2906 3187 2673 
Q 2956 2441 2956 1928 
L 2956 0 
L 2394 0 
L 2394 2156 
Q 2394 2531 2256 2718 
Q 2119 2906 1806 2906 
Q 1569 2906 1367 2781 
Q 1166 2656 1075 2415 
Q 984 2175 984 1722 
L 984 0 
L 422 0 
z
" id="ArialMT-6d" transform="scale(0.015625)"/>
       <path d="M 569 0 
L 569 641 
L 1209 641 
L 1209 0 
Q 1209 -353 1084 -570 
Q 959 -788 688 -906 
L 531 -666 
Q 709 -588 793 -436 
Q 878 -284 888 0 
L 569 0 
z
" id="ArialMT-2c" transform="scale(0.015625)"/>
       <path d="M 422 -1272 
L 422 3319 
L 934 3319 
L 934 2888 
Q 1116 3141 1344 3267 
Q 1572 3394 1897 3394 
Q 2322 3394 2647 3175 
Q 2972 2956 3137 2557 
Q 3303 2159 3303 1684 
Q 3303 1175 3120 767 
Q 2938 359 2589 142 
Q 2241 -75 1856 -75 
Q 1575 -75 1351 44 
Q 1128 163 984 344 
L 984 -1272 
L 422 -1272 
z
M 931 1641 
Q 931 1000 1190 694 
Q 1450 388 1819 388 
Q 2194 388 2461 705 
Q 2728 1022 2728 1688 
Q 2728 2322 2467 2637 
Q 2206 2953 1844 2953 
Q 1484 2953 1207 2617 
Q 931 2281 931 1641 
z
" id="ArialMT-70" transform="scale(0.015625)"/>
       <path d="M 791 -1347 
L 388 -1347 
Q 1322 153 1322 1656 
Q 1322 2244 1188 2822 
Q 1081 3291 891 3722 
Q 769 4003 388 4659 
L 791 4659 
Q 1378 3875 1659 3084 
Q 1900 2403 1900 1659 
Q 1900 816 1576 28 
Q 1253 -759 791 -1347 
z
" id="ArialMT-29" transform="scale(0.015625)"/>
      </defs>
      <use xlink:href="#ArialMT-42"/>
      <use x="66.699219" xlink:href="#ArialMT-49"/>
      <use x="94.482422" xlink:href="#ArialMT-47"/>
      <use x="172.265625" xlink:href="#ArialMT-49"/>
      <use x="200.048828" xlink:href="#ArialMT-20"/>
      <use x="227.832031" xlink:href="#ArialMT-28"/>
      <use x="261.132812" xlink:href="#ArialMT-6e"/>
      <use x="316.748047" xlink:href="#ArialMT-65"/>
      <use x="372.363281" xlink:href="#ArialMT-67"/>
      <use x="427.978516" xlink:href="#ArialMT-61"/>
      <use x="483.59375" xlink:href="#ArialMT-74"/>
      <use x="511.376953" xlink:href="#ArialMT-69"/>
      <use x="533.59375" xlink:href="#ArialMT-76"/>
      <use x="583.59375" xlink:href="#ArialMT-65"/>
      <use x="639.208984" xlink:href="#ArialMT-20"/>
      <use x="666.992188" xlink:href="#ArialMT-66"/>
      <use x="694.775391" xlink:href="#ArialMT-61"/>
      <use x="750.390625" xlink:href="#ArialMT-76"/>
      <use x="800.390625" xlink:href="#ArialMT-6f"/>
      <use x="856.005859" xlink:href="#ArialMT-72"/>
      <use x="889.306641" xlink:href="#ArialMT-73"/>
      <use x="939.306641" xlink:href="#ArialMT-20"/>
      <use x="967.089844" xlink:href="#ArialMT-77"/>
      <use x="1039.306641" xlink:href="#ArialMT-6f"/>
      <use x="1094.921875" xlink:href="#ArialMT-6d"/>
      <use x="1178.222656" xlink:href="#ArialMT-65"/>
      <use x="1233.837891" xlink:href="#ArialMT-6e"/>
      <use x="1289.453125" xlink:href="#ArialMT-2c"/>
      <use x="1317.236328" xlink:href="#ArialMT-20"/>
      <use x="1345.019531" xlink:href="#ArialMT-70"/>
      <use x="1400.634766" xlink:href="#ArialMT-6f"/>
      <use x="1456.25" xlink:href="#ArialMT-73"/>
      <use x="1506.25" xlink:href="#ArialMT-69"/>
      <use x="1528.466797" xlink:href="#ArialMT-74"/>
      <use x="1556.25" xlink:href="#ArialMT-69"/>
      <use x="1578.466797" xlink:href="#ArialMT-76"/>
      <use x="1628.466797" xlink:href="#ArialMT-65"/>
      <use x="1684.082031" xlink:href="#ArialMT-20"/>
      <use x="1711.865234" xlink:href="#ArialMT-6d"/>
      <use x="1795.166016" xlink:href="#ArialMT-65"/>
      <use x="1850.78125" xlink:href="#ArialMT-6e"/>
      <use x="1906.396484" xlink:href="#ArialMT-29"/>
     </g>
    </g>
   </g>
   <g id="matplotlib.axis_2">
    <g id="ytick_1">
     <g id="line2d_9"/>
     <g id="text_10">
      <!-- 0 -->
      <g style="fill:#262626;" transform="translate(26.145313 260.322249)scale(0.1 -0.1)">
       <use xlink:href="#ArialMT-30"/>
      </g>
     </g>
    </g>
    <g id="ytick_2">
     <g id="line2d_10"/>
     <g id="text_11">
      <!-- 20 -->
      <g style="fill:#262626;" transform="translate(20.584375 201.825918)scale(0.1 -0.1)">
       <use xlink:href="#ArialMT-32"/>
       <use x="55.615234" xlink:href="#ArialMT-30"/>
      </g>
     </g>
    </g>
    <g id="ytick_3">
     <g id="line2d_11"/>
     <g id="text_12">
      <!-- 40 -->
      <g style="fill:#262626;" transform="translate(20.584375 143.329587)scale(0.1 -0.1)">
       <defs>
        <path d="M 2069 0 
L 2069 1097 
L 81 1097 
L 81 1613 
L 2172 4581 
L 2631 4581 
L 2631 1613 
L 3250 1613 
L 3250 1097 
L 2631 1097 
L 2631 0 
L 2069 0 
z
M 2069 1613 
L 2069 3678 
L 634 1613 
L 2069 1613 
z
" id="ArialMT-34" transform="scale(0.015625)"/>
       </defs>
       <use xlink:href="#ArialMT-34"/>
       <use x="55.615234" xlink:href="#ArialMT-30"/>
      </g>
     </g>
    </g>
    <g id="ytick_4">
     <g id="line2d_12"/>
     <g id="text_13">
      <!-- 60 -->
      <g style="fill:#262626;" transform="translate(20.584375 84.833256)scale(0.1 -0.1)">
       <defs>
        <path d="M 3184 3459 
L 2625 3416 
Q 2550 3747 2413 3897 
Q 2184 4138 1850 4138 
Q 1581 4138 1378 3988 
Q 1113 3794 959 3422 
Q 806 3050 800 2363 
Q 1003 2672 1297 2822 
Q 1591 2972 1913 2972 
Q 2475 2972 2870 2558 
Q 3266 2144 3266 1488 
Q 3266 1056 3080 686 
Q 2894 316 2569 119 
Q 2244 -78 1831 -78 
Q 1128 -78 684 439 
Q 241 956 241 2144 
Q 241 3472 731 4075 
Q 1159 4600 1884 4600 
Q 2425 4600 2770 4297 
Q 3116 3994 3184 3459 
z
M 888 1484 
Q 888 1194 1011 928 
Q 1134 663 1356 523 
Q 1578 384 1822 384 
Q 2178 384 2434 671 
Q 2691 959 2691 1453 
Q 2691 1928 2437 2201 
Q 2184 2475 1800 2475 
Q 1419 2475 1153 2201 
Q 888 1928 888 1484 
z
" id="ArialMT-36" transform="scale(0.015625)"/>
       </defs>
       <use xlink:href="#ArialMT-36"/>
       <use x="55.615234" xlink:href="#ArialMT-30"/>
      </g>
     </g>
    </g>
    <g id="ytick_5">
     <g id="line2d_13"/>
     <g id="text_14">
      <!-- 80 -->
      <g style="fill:#262626;" transform="translate(20.584375 26.336925)scale(0.1 -0.1)">
       <defs>
        <path d="M 1131 2484 
Q 781 2613 612 2850 
Q 444 3088 444 3419 
Q 444 3919 803 4259 
Q 1163 4600 1759 4600 
Q 2359 4600 2725 4251 
Q 3091 3903 3091 3403 
Q 3091 3084 2923 2848 
Q 2756 2613 2416 2484 
Q 2838 2347 3058 2040 
Q 3278 1734 3278 1309 
Q 3278 722 2862 322 
Q 2447 -78 1769 -78 
Q 1091 -78 675 323 
Q 259 725 259 1325 
Q 259 1772 486 2073 
Q 713 2375 1131 2484 
z
M 1019 3438 
Q 1019 3113 1228 2906 
Q 1438 2700 1772 2700 
Q 2097 2700 2305 2904 
Q 2513 3109 2513 3406 
Q 2513 3716 2298 3927 
Q 2084 4138 1766 4138 
Q 1444 4138 1231 3931 
Q 1019 3725 1019 3438 
z
M 838 1322 
Q 838 1081 952 856 
Q 1066 631 1291 507 
Q 1516 384 1775 384 
Q 2178 384 2440 643 
Q 2703 903 2703 1303 
Q 2703 1709 2433 1975 
Q 2163 2241 1756 2241 
Q 1359 2241 1098 1978 
Q 838 1716 838 1322 
z
" id="ArialMT-38" transform="scale(0.015625)"/>
       </defs>
       <use xlink:href="#ArialMT-38"/>
       <use x="55.615234" xlink:href="#ArialMT-30"/>
      </g>
     </g>
    </g>
    <g id="text_15">
     <!-- female share of degrees -->
     <g style="fill:#262626;" transform="translate(14.479688 194.172406)rotate(-90)scale(0.1 -0.1)">
      <defs>
       <path d="M 409 0 
L 409 4581 
L 972 4581 
L 972 0 
L 409 0 
z
" id="ArialMT-6c" transform="scale(0.015625)"/>
       <path d="M 422 0 
L 422 4581 
L 984 4581 
L 984 2938 
Q 1378 3394 1978 3394 
Q 2347 3394 2619 3248 
Q 2891 3103 3008 2847 
Q 3125 2591 3125 2103 
L 3125 0 
L 2563 0 
L 2563 2103 
Q 2563 2525 2380 2717 
Q 2197 2909 1863 2909 
Q 1613 2909 1392 2779 
Q 1172 2650 1078 2428 
Q 984 2206 984 1816 
L 984 0 
L 422 0 
z
" id="ArialMT-68" transform="scale(0.015625)"/>
       <path d="M 2575 0 
L 2575 419 
Q 2259 -75 1647 -75 
Q 1250 -75 917 144 
Q 584 363 401 755 
Q 219 1147 219 1656 
Q 219 2153 384 2558 
Q 550 2963 881 3178 
Q 1213 3394 1622 3394 
Q 1922 3394 2156 3267 
Q 2391 3141 2538 2938 
L 2538 4581 
L 3097 4581 
L 3097 0 
L 2575 0 
z
M 797 1656 
Q 797 1019 1065 703 
Q 1334 388 1700 388 
Q 2069 388 2326 689 
Q 2584 991 2584 1609 
Q 2584 2291 2321 2609 
Q 2059 2928 1675 2928 
Q 1300 2928 1048 2622 
Q 797 2316 797 1656 
z
" id="ArialMT-64" transform="scale(0.015625)"/>
      </defs>
      <use xlink:href="#ArialMT-66"/>
      <use x="27.783203" xlink:href="#ArialMT-65"/>
      <use x="83.398438" xlink:href="#ArialMT-6d"/>
      <use x="166.699219" xlink:href="#ArialMT-61"/>
      <use x="222.314453" xlink:href="#ArialMT-6c"/>
      <use x="244.53125" xlink:href="#ArialMT-65"/>
      <use x="300.146484" xlink:href="#ArialMT-20"/>
      <use x="327.929688" xlink:href="#ArialMT-73"/>
      <use x="377.929688" xlink:href="#ArialMT-68"/>
      <use x="433.544922" xlink:href="#ArialMT-61"/>
      <use x="489.160156" xlink:href="#ArialMT-72"/>
      <use x="522.460938" xlink:href="#ArialMT-65"/>
      <use x="578.076172" xlink:href="#ArialMT-20"/>
      <use x="605.859375" xlink:href="#ArialMT-6f"/>
      <use x="661.474609" xlink:href="#ArialMT-66"/>
      <use x="689.257812" xlink:href="#ArialMT-20"/>
      <use x="717.041016" xlink:href="#ArialMT-64"/>
      <use x="772.65625" xlink:href="#ArialMT-65"/>
      <use x="828.271484" xlink:href="#ArialMT-67"/>
      <use x="883.886719" xlink:href="#ArialMT-72"/>
      <use x="917.1875" xlink:href="#ArialMT-65"/>
      <use x="972.802734" xlink:href="#ArialMT-65"/>
      <use x="1028.417969" xlink:href="#ArialMT-73"/>
     </g>
    </g>
   </g>
   <g id="PolyCollection_1">
    <path clip-path="url(#ped3f65a50a)" d="M 51.438977 54.063242 
L 51.438977 104.05423 
L 54.685523 102.245854 
L 57.932068 100.332189 
L 61.178614 98.4205 
L 64.425159 96.513415 
L 67.671705 94.611434 
L 70.91825 92.722425 
L 74.164795 90.863185 
L 77.411341 88.939471 
L 80.657886 86.899634 
L 83.904432 85.121612 
L 87.150977 83.351982 
L 90.397523 81.601714 
L 93.644068 79.802091 
L 96.890614 78.053033 
L 100.137159 76.393001 
L 103.383705 75.014272 
L 106.63025 73.670147 
L 109.876795 72.660583 
L 113.123341 72.883291 
L 116.369886 72.184138 
L 119.616432 69.928385 
L 122.862977 68.399293 
L 126.109523 67.045746 
L 129.356068 65.864481 
L 132.602614 64.747321 
L 135.849159 63.879656 
L 139.095705 63.387166 
L 142.34225 63.126283 
L 145.588795 62.948635 
L 148.835341 63.245237 
L 152.081886 63.074039 
L 155.328432 63.213389 
L 158.574977 63.328542 
L 161.821523 63.390776 
L 165.068068 64.671663 
L 168.314614 66.470095 
L 171.561159 67.826684 
L 174.807705 68.482532 
L 178.05425 69.928774 
L 181.300795 71.640322 
L 184.547341 73.766664 
L 187.793886 76.347978 
L 191.040432 79.28334 
L 194.286977 82.513244 
L 197.533523 86.51315 
L 200.780068 89.912193 
L 204.026614 93.238494 
L 207.273159 96.399067 
L 210.519705 97.75983 
L 213.76625 98.005468 
L 217.012795 99.649455 
L 220.259341 101.745455 
L 223.505886 103.498968 
L 226.752432 105.221749 
L 229.998977 106.869351 
L 233.245523 108.686059 
L 236.492068 110.847257 
L 239.738614 113.225509 
L 242.985159 115.712438 
L 246.231705 117.844127 
L 249.47825 119.751238 
L 252.724795 120.399039 
L 255.971341 121.650418 
L 259.217886 122.378911 
L 262.464432 124.360568 
L 265.710977 126.521059 
L 268.957523 128.47842 
L 272.204068 130.333409 
L 275.450614 132.056158 
L 278.697159 131.050502 
L 281.943705 130.485125 
L 285.19025 131.412149 
L 288.436795 133.056047 
L 291.683341 134.655975 
L 294.929886 136.150224 
L 298.176432 137.805312 
L 301.422977 139.422759 
L 304.669523 141.09464 
L 307.916068 142.757378 
L 311.162614 144.409446 
L 314.409159 146.062359 
L 317.655705 147.749945 
L 320.90225 149.456872 
L 324.148795 151.095603 
L 327.395341 152.683295 
L 330.641886 154.261882 
L 333.888432 155.916621 
L 337.134977 157.759615 
L 340.381523 159.804473 
L 343.628068 161.577113 
L 346.874614 163.34152 
L 350.121159 165.315966 
L 353.367705 167.005031 
L 356.61425 169.319525 
L 359.860795 171.140143 
L 363.107341 173.055822 
L 366.353886 174.85963 
L 369.600432 176.748738 
L 372.846977 178.405321 
L 376.093523 180.248074 
L 376.093523 80.160553 
L 376.093523 80.160553 
L 372.846977 80.553725 
L 369.600432 80.816075 
L 366.353886 81.169043 
L 363.107341 81.390766 
L 359.860795 81.587854 
L 356.61425 81.681691 
L 353.367705 81.762879 
L 350.121159 81.833623 
L 346.874614 81.894599 
L 343.628068 81.967443 
L 340.381523 81.964739 
L 337.134977 82.014703 
L 333.888432 82.045204 
L 330.641886 82.062212 
L 327.395341 82.073053 
L 324.148795 82.079604 
L 320.90225 82.08454 
L 317.655705 82.091684 
L 314.409159 82.106566 
L 311.162614 82.137313 
L 307.916068 82.196132 
L 304.669523 82.301846 
L 301.422977 82.48444 
L 298.176432 82.584268 
L 294.929886 82.720833 
L 291.683341 82.787251 
L 288.436795 82.601105 
L 285.19025 83.481746 
L 281.943705 83.890879 
L 278.697159 83.255427 
L 275.450614 81.88997 
L 272.204068 80.494055 
L 268.957523 79.154137 
L 265.710977 77.74037 
L 262.464432 75.98577 
L 259.217886 73.553778 
L 255.971341 71.109712 
L 252.724795 68.365661 
L 249.47825 66.197916 
L 246.231705 64.039578 
L 242.985159 63.230276 
L 239.738614 62.680492 
L 236.492068 62.48012 
L 233.245523 61.549982 
L 229.998977 60.872919 
L 226.752432 61.010391 
L 223.505886 61.173717 
L 220.259341 61.696119 
L 217.012795 62.749554 
L 213.76625 64.381945 
L 210.519705 65.788784 
L 207.273159 66.519983 
L 204.026614 66.973915 
L 200.780068 66.768892 
L 197.533523 66.668934 
L 194.286977 66.478344 
L 191.040432 66.329548 
L 187.793886 66.007455 
L 184.547341 65.373428 
L 181.300795 64.099282 
L 178.05425 62.698939 
L 174.807705 61.56288 
L 171.561159 60.111887 
L 168.314614 57.961011 
L 165.068068 55.998443 
L 161.821523 54.313204 
L 158.574977 53.243406 
L 155.328432 52.502866 
L 152.081886 51.90212 
L 148.835341 51.172305 
L 145.588795 50.275463 
L 142.34225 49.425106 
L 139.095705 48.432373 
L 135.849159 48.085786 
L 132.602614 47.411672 
L 129.356068 47.023584 
L 126.109523 46.846706 
L 122.862977 46.25437 
L 119.616432 46.229673 
L 116.369886 47.822801 
L 113.123341 49.884229 
L 109.876795 52.221439 
L 106.63025 52.985888 
L 103.383705 53.051585 
L 100.137159 53.318002 
L 96.890614 53.577967 
L 93.644068 53.816313 
L 90.397523 53.546267 
L 87.150977 53.634531 
L 83.904432 53.711939 
L 80.657886 53.507881 
L 77.411341 53.308717 
L 74.164795 53.109658 
L 70.91825 53.131028 
L 67.671705 53.273062 
L 64.425159 53.543283 
L 61.178614 53.778628 
L 57.932068 53.759398 
L 54.685523 53.896688 
L 51.438977 54.063242 
z
" style="fill:#00008b;fill-opacity:0.15;"/>
   </g>
   <g id="PolyCollection_2">
    <path clip-path="url(#ped3f65a50a)" d="M 51.438977 19.296 
L 51.438977 187.185379 
L 54.685523 185.89907 
L 57.932068 184.74533 
L 61.178614 183.538273 
L 64.425159 182.350099 
L 67.671705 181.235521 
L 70.91825 180.041301 
L 74.164795 178.859736 
L 77.411341 177.677289 
L 80.657886 176.491107 
L 83.904432 175.296603 
L 87.150977 174.086457 
L 90.397523 172.84784 
L 93.644068 171.556351 
L 96.890614 170.166418 
L 100.137159 168.583832 
L 103.383705 166.619975 
L 106.63025 164.047487 
L 109.876795 158.924245 
L 113.123341 149.130179 
L 116.369886 142.851711 
L 119.616432 143.287966 
L 122.862977 143.908054 
L 126.109523 144.767556 
L 129.356068 146.565042 
L 132.602614 148.123508 
L 135.849159 149.29271 
L 139.095705 151.0228 
L 142.34225 152.868625 
L 145.588795 154.417494 
L 148.835341 156.628631 
L 152.081886 158.748783 
L 155.328432 160.590467 
L 158.574977 162.737165 
L 161.821523 165.343053 
L 165.068068 166.856639 
L 168.314614 166.921545 
L 171.561159 167.170554 
L 174.807705 167.207899 
L 178.05425 167.095286 
L 181.300795 166.832527 
L 184.547341 166.916129 
L 187.793886 166.829463 
L 191.040432 166.965906 
L 194.286977 166.74893 
L 197.533523 166.966407 
L 200.780068 165.794485 
L 204.026614 165.830942 
L 207.273159 167.326602 
L 210.519705 172.550506 
L 213.76625 175.637377 
L 217.012795 178.498761 
L 220.259341 181.133367 
L 223.505886 183.187926 
L 226.752432 185.589476 
L 229.998977 187.959015 
L 233.245523 189.911788 
L 236.492068 192.331396 
L 239.738614 194.906291 
L 242.985159 197.267699 
L 246.231705 199.599949 
L 249.47825 198.658481 
L 252.724795 199.910771 
L 255.971341 200.064152 
L 259.217886 201.218058 
L 262.464432 202.477994 
L 265.710977 204.311782 
L 268.957523 206.071439 
L 272.204068 207.566126 
L 275.450614 207.015666 
L 278.697159 203.623514 
L 281.943705 202.434545 
L 285.19025 202.172467 
L 288.436795 203.286001 
L 291.683341 204.413687 
L 294.929886 205.538675 
L 298.176432 206.550774 
L 301.422977 207.791132 
L 304.669523 209.576206 
L 307.916068 211.065486 
L 311.162614 212.286671 
L 314.409159 213.150017 
L 317.655705 214.188324 
L 320.90225 215.439653 
L 324.148795 216.889545 
L 327.395341 218.343575 
L 330.641886 220.440799 
L 333.888432 222.437523 
L 337.134977 223.603338 
L 340.381523 226.189645 
L 343.628068 229.128509 
L 346.874614 232.476146 
L 350.121159 235.213374 
L 353.367705 238.542336 
L 356.61425 242.059841 
L 359.860795 245.237409 
L 363.107341 248.538395 
L 366.353886 252.341092 
L 369.600432 255.302902 
L 372.846977 257.928977 
L 376.093523 261.216 
L 376.093523 89.001887 
L 376.093523 89.001887 
L 372.846977 89.645923 
L 369.600432 90.29737 
L 366.353886 90.956154 
L 363.107341 91.622112 
L 359.860795 92.274538 
L 356.61425 92.918144 
L 353.367705 93.566505 
L 350.121159 94.218957 
L 346.874614 94.874623 
L 343.628068 95.418258 
L 340.381523 95.896907 
L 337.134977 96.254628 
L 333.888432 96.610203 
L 330.641886 96.956969 
L 327.395341 97.262795 
L 324.148795 97.456177 
L 320.90225 97.661898 
L 317.655705 97.877071 
L 314.409159 98.097194 
L 311.162614 98.315319 
L 307.916068 98.343133 
L 304.669523 98.057263 
L 301.422977 97.663892 
L 298.176432 97.202592 
L 294.929886 97.581062 
L 291.683341 97.178817 
L 288.436795 96.555743 
L 285.19025 95.198538 
L 281.943705 90.97257 
L 278.697159 87.108004 
L 275.450614 84.426328 
L 272.204068 84.329549 
L 268.957523 86.852116 
L 265.710977 89.94086 
L 262.464432 93.282339 
L 259.217886 96.256594 
L 255.971341 98.422973 
L 252.724795 100.758446 
L 249.47825 103.994244 
L 246.231705 106.867491 
L 242.985159 109.882127 
L 239.738614 112.877674 
L 236.492068 115.498999 
L 233.245523 118.470852 
L 229.998977 120.815479 
L 226.752432 122.742268 
L 223.505886 124.730881 
L 220.259341 127.110014 
L 217.012795 130.229839 
L 213.76625 132.890291 
L 210.519705 135.061545 
L 207.273159 138.815381 
L 204.026614 142.937305 
L 200.780068 145.42625 
L 197.533523 147.585432 
L 194.286977 149.42233 
L 191.040432 151.111372 
L 187.793886 152.133996 
L 184.547341 153.119891 
L 181.300795 154.52284 
L 178.05425 155.912764 
L 174.807705 157.018277 
L 171.561159 157.173374 
L 168.314614 156.338223 
L 165.068068 154.483231 
L 161.821523 151.580853 
L 158.574977 148.683732 
L 155.328432 146.391966 
L 152.081886 143.91535 
L 148.835341 140.883205 
L 145.588795 137.527632 
L 142.34225 133.814301 
L 139.095705 129.995719 
L 135.849159 126.035305 
L 132.602614 121.996031 
L 129.356068 117.873353 
L 126.109523 113.559338 
L 122.862977 109.22354 
L 119.616432 105.056332 
L 116.369886 100.875867 
L 113.123341 98.690927 
L 109.876795 95.947716 
L 106.63025 91.869117 
L 103.383705 87.761845 
L 100.137159 83.295191 
L 96.890614 79.387504 
L 93.644068 75.416914 
L 90.397523 71.313859 
L 87.150977 67.088069 
L 83.904432 62.953241 
L 80.657886 58.982428 
L 77.411341 55.010812 
L 74.164795 50.99912 
L 70.91825 46.920065 
L 67.671705 42.808743 
L 64.425159 38.161495 
L 61.178614 33.44988 
L 57.932068 28.734893 
L 54.685523 24.016842 
L 51.438977 19.296 
z
" style="fill:#8b0000;fill-opacity:0.15;"/>
   </g>
   <g id="line2d_14">
    <defs>
     <path d="M 0 1.5 
C 0.397805 1.5 0.77937 1.341951 1.06066 1.06066 
C 1.341951 0.77937 1.5 0.397805 1.5 0 
C 1.5 -0.397805 1.341951 -0.77937 1.06066 -1.06066 
C 0.77937 -1.341951 0.397805 -1.5 0 -1.5 
C -0.397805 -1.5 -0.77937 -1.341951 -1.06066 -1.06066 
C -1.341951 -0.77937 -1.5 -0.397805 -1.5 0 
C -1.5 0.397805 -1.341951 0.77937 -1.06066 1.06066 
C -0.77937 1.341951 -0.397805 1.5 0 1.5 
z
" id="m07dfd69df4" style="stroke:#000000;stroke-opacity:0;"/>
    </defs>
    <g clip-path="url(#ped3f65a50a)">
     <use style="fill:#00008b;fill-opacity:0.9;stroke:#000000;stroke-opacity:0;" x="189.653416" xlink:href="#m07dfd69df4" y="66.907423"/>
     <use style="fill:#00008b;fill-opacity:0.9;stroke:#000000;stroke-opacity:0;" x="180.915678" xlink:href="#m07dfd69df4" y="69.496704"/>
     <use style="fill:#00008b;fill-opacity:0.9;stroke:#000000;stroke-opacity:0;" x="181.288187" xlink:href="#m07dfd69df4" y="66.618159"/>
     <use style="fill:#00008b;fill-opacity:0.9;stroke:#000000;stroke-opacity:0;" x="178.611849" xlink:href="#m07dfd69df4" y="61.539712"/>
     <use style="fill:#00008b;fill-opacity:0.9;stroke:#000000;stroke-opacity:0;" x="180.580419" xlink:href="#m07dfd69df4" y="81.256661"/>
     <use style="fill:#00008b;fill-opacity:0.9;stroke:#000000;stroke-opacity:0;" x="178.019654" xlink:href="#m07dfd69df4" y="74.415983"/>
     <use style="fill:#00008b;fill-opacity:0.9;stroke:#000000;stroke-opacity:0;" x="190.247521" xlink:href="#m07dfd69df4" y="70.728228"/>
     <use style="fill:#00008b;fill-opacity:0.9;stroke:#000000;stroke-opacity:0;" x="186.555855" xlink:href="#m07dfd69df4" y="61.46159"/>
     <use style="fill:#00008b;fill-opacity:0.9;stroke:#000000;stroke-opacity:0;" x="175.800834" xlink:href="#m07dfd69df4" y="85.633736"/>
     <use style="fill:#00008b;fill-opacity:0.9;stroke:#000000;stroke-opacity:0;" x="182.192717" xlink:href="#m07dfd69df4" y="47.078073"/>
     <use style="fill:#00008b;fill-opacity:0.9;stroke:#000000;stroke-opacity:0;" x="174.814161" xlink:href="#m07dfd69df4" y="70.06251"/>
     <use style="fill:#00008b;fill-opacity:0.9;stroke:#000000;stroke-opacity:0;" x="183.698038" xlink:href="#m07dfd69df4" y="67.142637"/>
     <use style="fill:#00008b;fill-opacity:0.9;stroke:#000000;stroke-opacity:0;" x="189.653416" xlink:href="#m07dfd69df4" y="90.464568"/>
     <use style="fill:#00008b;fill-opacity:0.9;stroke:#000000;stroke-opacity:0;" x="174.1169" xlink:href="#m07dfd69df4" y="71.149811"/>
     <use style="fill:#00008b;fill-opacity:0.9;stroke:#000000;stroke-opacity:0;" x="179.731288" xlink:href="#m07dfd69df4" y="51.692937"/>
     <use style="fill:#00008b;fill-opacity:0.9;stroke:#000000;stroke-opacity:0;" x="172.878067" xlink:href="#m07dfd69df4" y="56.539855"/>
     <use style="fill:#00008b;fill-opacity:0.9;stroke:#000000;stroke-opacity:0;" x="176.440787" xlink:href="#m07dfd69df4" y="68.345087"/>
     <use style="fill:#00008b;fill-opacity:0.9;stroke:#000000;stroke-opacity:0;" x="194.687072" xlink:href="#m07dfd69df4" y="76.143643"/>
     <use style="fill:#00008b;fill-opacity:0.9;stroke:#000000;stroke-opacity:0;" x="197.436002" xlink:href="#m07dfd69df4" y="67.485922"/>
     <use style="fill:#00008b;fill-opacity:0.9;stroke:#000000;stroke-opacity:0;" x="151.443481" xlink:href="#m07dfd69df4" y="52.182902"/>
     <use style="fill:#00008b;fill-opacity:0.9;stroke:#000000;stroke-opacity:0;" x="184.825118" xlink:href="#m07dfd69df4" y="70.334372"/>
     <use style="fill:#00008b;fill-opacity:0.9;stroke:#000000;stroke-opacity:0;" x="168.673484" xlink:href="#m07dfd69df4" y="67.733654"/>
     <use style="fill:#00008b;fill-opacity:0.9;stroke:#000000;stroke-opacity:0;" x="180.628177" xlink:href="#m07dfd69df4" y="58.395388"/>
     <use style="fill:#00008b;fill-opacity:0.9;stroke:#000000;stroke-opacity:0;" x="177.049219" xlink:href="#m07dfd69df4" y="75.140313"/>
     <use style="fill:#00008b;fill-opacity:0.9;stroke:#000000;stroke-opacity:0;" x="184.924454" xlink:href="#m07dfd69df4" y="61.695488"/>
     <use style="fill:#00008b;fill-opacity:0.9;stroke:#000000;stroke-opacity:0;" x="165.77555" xlink:href="#m07dfd69df4" y="70.700588"/>
     <use style="fill:#00008b;fill-opacity:0.9;stroke:#000000;stroke-opacity:0;" x="165.511928" xlink:href="#m07dfd69df4" y="65.037822"/>
     <use style="fill:#00008b;fill-opacity:0.9;stroke:#000000;stroke-opacity:0;" x="166.284646" xlink:href="#m07dfd69df4" y="59.776896"/>
     <use style="fill:#00008b;fill-opacity:0.9;stroke:#000000;stroke-opacity:0;" x="163.380027" xlink:href="#m07dfd69df4" y="78.024768"/>
     <use style="fill:#00008b;fill-opacity:0.9;stroke:#000000;stroke-opacity:0;" x="206.755428" xlink:href="#m07dfd69df4" y="98.363766"/>
     <use style="fill:#00008b;fill-opacity:0.9;stroke:#000000;stroke-opacity:0;" x="176.164748" xlink:href="#m07dfd69df4" y="50.431025"/>
     <use style="fill:#00008b;fill-opacity:0.9;stroke:#000000;stroke-opacity:0;" x="162.109673" xlink:href="#m07dfd69df4" y="63.918641"/>
     <use style="fill:#00008b;fill-opacity:0.9;stroke:#000000;stroke-opacity:0;" x="173.787372" xlink:href="#m07dfd69df4" y="67.025849"/>
     <use style="fill:#00008b;fill-opacity:0.9;stroke:#000000;stroke-opacity:0;" x="194.284952" xlink:href="#m07dfd69df4" y="75.651191"/>
     <use style="fill:#00008b;fill-opacity:0.9;stroke:#000000;stroke-opacity:0;" x="160.919553" xlink:href="#m07dfd69df4" y="43.677418"/>
     <use style="fill:#00008b;fill-opacity:0.9;stroke:#000000;stroke-opacity:0;" x="177.136138" xlink:href="#m07dfd69df4" y="52.576612"/>
     <use style="fill:#00008b;fill-opacity:0.9;stroke:#000000;stroke-opacity:0;" x="183.990315" xlink:href="#m07dfd69df4" y="71.374758"/>
     <use style="fill:#00008b;fill-opacity:0.9;stroke:#000000;stroke-opacity:0;" x="174.68235" xlink:href="#m07dfd69df4" y="53.301878"/>
     <use style="fill:#00008b;fill-opacity:0.9;stroke:#000000;stroke-opacity:0;" x="156.301389" xlink:href="#m07dfd69df4" y="87.560371"/>
     <use style="fill:#00008b;fill-opacity:0.9;stroke:#000000;stroke-opacity:0;" x="184.914903" xlink:href="#m07dfd69df4" y="63.399924"/>
     <use style="fill:#00008b;fill-opacity:0.9;stroke:#000000;stroke-opacity:0;" x="155.46754" xlink:href="#m07dfd69df4" y="59.039666"/>
     <use style="fill:#00008b;fill-opacity:0.9;stroke:#000000;stroke-opacity:0;" x="170.186446" xlink:href="#m07dfd69df4" y="60.267592"/>
     <use style="fill:#00008b;fill-opacity:0.9;stroke:#000000;stroke-opacity:0;" x="153.080613" xlink:href="#m07dfd69df4" y="54.608511"/>
     <use style="fill:#00008b;fill-opacity:0.9;stroke:#000000;stroke-opacity:0;" x="153.935475" xlink:href="#m07dfd69df4" y="39.763809"/>
     <use style="fill:#00008b;fill-opacity:0.9;stroke:#000000;stroke-opacity:0;" x="153.00038" xlink:href="#m07dfd69df4" y="37.097722"/>
     <use style="fill:#00008b;fill-opacity:0.9;stroke:#000000;stroke-opacity:0;" x="171.968761" xlink:href="#m07dfd69df4" y="65.737262"/>
     <use style="fill:#00008b;fill-opacity:0.9;stroke:#000000;stroke-opacity:0;" x="150.368934" xlink:href="#m07dfd69df4" y="51.898932"/>
     <use style="fill:#00008b;fill-opacity:0.9;stroke:#000000;stroke-opacity:0;" x="187.421224" xlink:href="#m07dfd69df4" y="117.807947"/>
     <use style="fill:#00008b;fill-opacity:0.9;stroke:#000000;stroke-opacity:0;" x="148.619094" xlink:href="#m07dfd69df4" y="45.72558"/>
     <use style="fill:#00008b;fill-opacity:0.9;stroke:#000000;stroke-opacity:0;" x="195.751112" xlink:href="#m07dfd69df4" y="100.469576"/>
     <use style="fill:#00008b;fill-opacity:0.9;stroke:#000000;stroke-opacity:0;" x="159.396084" xlink:href="#m07dfd69df4" y="42.869526"/>
     <use style="fill:#00008b;fill-opacity:0.9;stroke:#000000;stroke-opacity:0;" x="144.145158" xlink:href="#m07dfd69df4" y="76.463062"/>
     <use style="fill:#00008b;fill-opacity:0.9;stroke:#000000;stroke-opacity:0;" x="144.131786" xlink:href="#m07dfd69df4" y="66.455012"/>
     <use style="fill:#00008b;fill-opacity:0.9;stroke:#000000;stroke-opacity:0;" x="143.024764" xlink:href="#m07dfd69df4" y="60.211962"/>
     <use style="fill:#00008b;fill-opacity:0.9;stroke:#000000;stroke-opacity:0;" x="138.822091" xlink:href="#m07dfd69df4" y="57.020899"/>
     <use style="fill:#00008b;fill-opacity:0.9;stroke:#000000;stroke-opacity:0;" x="153.614544" xlink:href="#m07dfd69df4" y="42.59822"/>
     <use style="fill:#00008b;fill-opacity:0.9;stroke:#000000;stroke-opacity:0;" x="134.934619" xlink:href="#m07dfd69df4" y="68.692877"/>
     <use style="fill:#00008b;fill-opacity:0.9;stroke:#000000;stroke-opacity:0;" x="133.938395" xlink:href="#m07dfd69df4" y="61.495723"/>
     <use style="fill:#00008b;fill-opacity:0.9;stroke:#000000;stroke-opacity:0;" x="173.540943" xlink:href="#m07dfd69df4" y="70.723197"/>
     <use style="fill:#00008b;fill-opacity:0.9;stroke:#000000;stroke-opacity:0;" x="249.216748" xlink:href="#m07dfd69df4" y="125.89989"/>
     <use style="fill:#00008b;fill-opacity:0.9;stroke:#000000;stroke-opacity:0;" x="208.886374" xlink:href="#m07dfd69df4" y="64.931358"/>
     <use style="fill:#00008b;fill-opacity:0.9;stroke:#000000;stroke-opacity:0;" x="248.638881" xlink:href="#m07dfd69df4" y="47.036278"/>
     <use style="fill:#00008b;fill-opacity:0.9;stroke:#000000;stroke-opacity:0;" x="238.155123" xlink:href="#m07dfd69df4" y="55.652875"/>
     <use style="fill:#00008b;fill-opacity:0.9;stroke:#000000;stroke-opacity:0;" x="244.426657" xlink:href="#m07dfd69df4" y="117.360742"/>
     <use style="fill:#00008b;fill-opacity:0.9;stroke:#000000;stroke-opacity:0;" x="278.207548" xlink:href="#m07dfd69df4" y="98.11387"/>
     <use style="fill:#00008b;fill-opacity:0.9;stroke:#000000;stroke-opacity:0;" x="270.957938" xlink:href="#m07dfd69df4" y="116.629363"/>
     <use style="fill:#00008b;fill-opacity:0.9;stroke:#000000;stroke-opacity:0;" x="141.208063" xlink:href="#m07dfd69df4" y="55.512864"/>
     <use style="fill:#00008b;fill-opacity:0.9;stroke:#000000;stroke-opacity:0;" x="248.678997" xlink:href="#m07dfd69df4" y="109.11741"/>
     <use style="fill:#00008b;fill-opacity:0.9;stroke:#000000;stroke-opacity:0;" x="315.311416" xlink:href="#m07dfd69df4" y="144.415354"/>
     <use style="fill:#00008b;fill-opacity:0.9;stroke:#000000;stroke-opacity:0;" x="320.414797" xlink:href="#m07dfd69df4" y="120.970697"/>
     <use style="fill:#00008b;fill-opacity:0.9;stroke:#000000;stroke-opacity:0;" x="51.438977" xlink:href="#m07dfd69df4" y="64.384505"/>
     <use style="fill:#00008b;fill-opacity:0.9;stroke:#000000;stroke-opacity:0;" x="376.093523" xlink:href="#m07dfd69df4" y="78.787179"/>
    </g>
   </g>
   <g id="line2d_15">
    <path clip-path="url(#ped3f65a50a)" d="M 51.438977 70.34272 
L 54.685523 69.851504 
L 57.932068 69.360632 
L 61.178614 68.870246 
L 64.425159 68.380529 
L 67.671705 67.891715 
L 70.91825 67.404105 
L 74.164795 66.918083 
L 77.411341 66.43414 
L 80.657886 65.95292 
L 83.904432 65.47528 
L 87.150977 65.002397 
L 90.397523 64.535958 
L 93.644068 64.078521 
L 96.890614 63.634237 
L 100.137159 63.210429 
L 103.383705 62.821175 
L 106.63025 62.494857 
L 109.876795 62.275179 
L 113.123341 62.056786 
L 116.369886 61.203292 
L 119.616432 60.022621 
L 122.862977 59.363775 
L 126.109523 58.795509 
L 129.356068 58.295622 
L 132.602614 57.880148 
L 135.849159 57.569882 
L 139.095705 57.381921 
L 142.34225 57.321679 
L 145.588795 57.38938 
L 148.835341 57.555978 
L 152.081886 57.737119 
L 155.328432 57.810204 
L 158.574977 57.966879 
L 161.821523 58.591291 
L 165.068068 60.111799 
L 168.314614 62.230694 
L 171.561159 63.983307 
L 174.807705 65.023794 
L 178.05425 66.053274 
L 181.300795 67.385168 
L 184.547341 68.960327 
L 187.793886 70.645475 
L 191.040432 72.308272 
L 194.286977 73.947515 
L 197.533523 75.653084 
L 200.780068 77.380199 
L 204.026614 79.17764 
L 207.273159 81.222579 
L 210.519705 83.450505 
L 213.76625 85.721135 
L 217.012795 87.91718 
L 220.259341 89.962407 
L 223.505886 91.764962 
L 226.752432 93.238726 
L 229.998977 94.492972 
L 233.245523 95.721303 
L 236.492068 97.0227 
L 239.738614 98.409435 
L 242.985159 99.862493 
L 246.231705 101.327946 
L 249.47825 102.70631 
L 252.724795 103.970586 
L 255.971341 105.191156 
L 259.217886 106.437305 
L 262.464432 107.719253 
L 265.710977 109.027596 
L 268.957523 110.351955 
L 272.204068 111.660476 
L 275.450614 112.771529 
L 278.697159 113.358936 
L 281.943705 113.396238 
L 285.19025 113.285292 
L 288.436795 113.276143 
L 291.683341 113.419276 
L 294.929886 113.692805 
L 298.176432 114.063781 
L 301.422977 114.504565 
L 304.669523 114.994768 
L 307.916068 115.51989 
L 311.162614 116.069689 
L 314.409159 116.636893 
L 317.655705 117.216255 
L 320.90225 117.803594 
L 324.148795 118.395643 
L 327.395341 118.990066 
L 330.641886 119.585088 
L 333.888432 120.179327 
L 337.134977 120.771697 
L 340.381523 121.361335 
L 343.628068 121.94755 
L 346.874614 122.529783 
L 350.121159 123.107585 
L 353.367705 123.680587 
L 356.61425 124.248493 
L 359.860795 124.811062 
L 363.107341 125.368101 
L 366.353886 125.919458 
L 369.600432 126.465016 
L 372.846977 127.004685 
L 376.093523 127.538405 
" style="fill:none;stroke:#00008b;stroke-linecap:round;stroke-opacity:0.5;stroke-width:1.5;"/>
   </g>
   <g id="line2d_16">
    <defs>
     <path d="M 0 1.5 
C 0.397805 1.5 0.77937 1.341951 1.06066 1.06066 
C 1.341951 0.77937 1.5 0.397805 1.5 0 
C 1.5 -0.397805 1.341951 -0.77937 1.06066 -1.06066 
C 0.77937 -1.341951 0.397805 -1.5 0 -1.5 
C -0.397805 -1.5 -0.77937 -1.341951 -1.06066 -1.06066 
C -1.341951 -0.77937 -1.5 -0.397805 -1.5 0 
C -1.5 0.397805 -1.341951 0.77937 -1.06066 1.06066 
C -0.77937 1.341951 -0.397805 1.5 0 1.5 
z
" id="m415eaafe3d" style="stroke:#000000;stroke-opacity:0;"/>
    </defs>
    <g clip-path="url(#ped3f65a50a)">
     <use style="fill:#8b0000;fill-opacity:0.9;stroke:#000000;stroke-opacity:0;" x="189.653416" xlink:href="#m415eaafe3d" y="132.907107"/>
     <use style="fill:#8b0000;fill-opacity:0.9;stroke:#000000;stroke-opacity:0;" x="180.915678" xlink:href="#m415eaafe3d" y="157.548775"/>
     <use style="fill:#8b0000;fill-opacity:0.9;stroke:#000000;stroke-opacity:0;" x="181.288187" xlink:href="#m415eaafe3d" y="139.419445"/>
     <use style="fill:#8b0000;fill-opacity:0.9;stroke:#000000;stroke-opacity:0;" x="178.611849" xlink:href="#m415eaafe3d" y="171.745454"/>
     <use style="fill:#8b0000;fill-opacity:0.9;stroke:#000000;stroke-opacity:0;" x="180.580419" xlink:href="#m415eaafe3d" y="172.927489"/>
     <use style="fill:#8b0000;fill-opacity:0.9;stroke:#000000;stroke-opacity:0;" x="178.019654" xlink:href="#m415eaafe3d" y="174.642602"/>
     <use style="fill:#8b0000;fill-opacity:0.9;stroke:#000000;stroke-opacity:0;" x="190.247521" xlink:href="#m415eaafe3d" y="169.297295"/>
     <use style="fill:#8b0000;fill-opacity:0.9;stroke:#000000;stroke-opacity:0;" x="186.555855" xlink:href="#m415eaafe3d" y="179.067235"/>
     <use style="fill:#8b0000;fill-opacity:0.9;stroke:#000000;stroke-opacity:0;" x="175.800834" xlink:href="#m415eaafe3d" y="135.300514"/>
     <use style="fill:#8b0000;fill-opacity:0.9;stroke:#000000;stroke-opacity:0;" x="182.192717" xlink:href="#m415eaafe3d" y="157.873663"/>
     <use style="fill:#8b0000;fill-opacity:0.9;stroke:#000000;stroke-opacity:0;" x="174.814161" xlink:href="#m415eaafe3d" y="162.566882"/>
     <use style="fill:#8b0000;fill-opacity:0.9;stroke:#000000;stroke-opacity:0;" x="183.698038" xlink:href="#m415eaafe3d" y="164.125459"/>
     <use style="fill:#8b0000;fill-opacity:0.9;stroke:#000000;stroke-opacity:0;" x="189.653416" xlink:href="#m415eaafe3d" y="190.25188"/>
     <use style="fill:#8b0000;fill-opacity:0.9;stroke:#000000;stroke-opacity:0;" x="174.1169" xlink:href="#m415eaafe3d" y="163.929847"/>
     <use style="fill:#8b0000;fill-opacity:0.9;stroke:#000000;stroke-opacity:0;" x="179.731288" xlink:href="#m415eaafe3d" y="155.758962"/>
     <use style="fill:#8b0000;fill-opacity:0.9;stroke:#000000;stroke-opacity:0;" x="172.878067" xlink:href="#m415eaafe3d" y="136.783484"/>
     <use style="fill:#8b0000;fill-opacity:0.9;stroke:#000000;stroke-opacity:0;" x="176.440787" xlink:href="#m415eaafe3d" y="165.396876"/>
     <use style="fill:#8b0000;fill-opacity:0.9;stroke:#000000;stroke-opacity:0;" x="194.687072" xlink:href="#m415eaafe3d" y="158.954441"/>
     <use style="fill:#8b0000;fill-opacity:0.9;stroke:#000000;stroke-opacity:0;" x="197.436002" xlink:href="#m415eaafe3d" y="138.240627"/>
     <use style="fill:#8b0000;fill-opacity:0.9;stroke:#000000;stroke-opacity:0;" x="151.443481" xlink:href="#m415eaafe3d" y="134.398062"/>
     <use style="fill:#8b0000;fill-opacity:0.9;stroke:#000000;stroke-opacity:0;" x="184.825118" xlink:href="#m415eaafe3d" y="178.214329"/>
     <use style="fill:#8b0000;fill-opacity:0.9;stroke:#000000;stroke-opacity:0;" x="168.673484" xlink:href="#m415eaafe3d" y="170.900972"/>
     <use style="fill:#8b0000;fill-opacity:0.9;stroke:#000000;stroke-opacity:0;" x="180.628177" xlink:href="#m415eaafe3d" y="182.754346"/>
     <use style="fill:#8b0000;fill-opacity:0.9;stroke:#000000;stroke-opacity:0;" x="177.049219" xlink:href="#m415eaafe3d" y="192.891702"/>
     <use style="fill:#8b0000;fill-opacity:0.9;stroke:#000000;stroke-opacity:0;" x="184.924454" xlink:href="#m415eaafe3d" y="102.370063"/>
     <use style="fill:#8b0000;fill-opacity:0.9;stroke:#000000;stroke-opacity:0;" x="162.893854" xlink:href="#m415eaafe3d" y="143.961188"/>
     <use style="fill:#8b0000;fill-opacity:0.9;stroke:#000000;stroke-opacity:0;" x="165.77555" xlink:href="#m415eaafe3d" y="159.092639"/>
     <use style="fill:#8b0000;fill-opacity:0.9;stroke:#000000;stroke-opacity:0;" x="165.511928" xlink:href="#m415eaafe3d" y="203.484978"/>
     <use style="fill:#8b0000;fill-opacity:0.9;stroke:#000000;stroke-opacity:0;" x="166.284646" xlink:href="#m415eaafe3d" y="162.680775"/>
     <use style="fill:#8b0000;fill-opacity:0.9;stroke:#000000;stroke-opacity:0;" x="163.380027" xlink:href="#m415eaafe3d" y="165.103137"/>
     <use style="fill:#8b0000;fill-opacity:0.9;stroke:#000000;stroke-opacity:0;" x="206.755428" xlink:href="#m415eaafe3d" y="167.131585"/>
     <use style="fill:#8b0000;fill-opacity:0.9;stroke:#000000;stroke-opacity:0;" x="176.164748" xlink:href="#m415eaafe3d" y="159.249468"/>
     <use style="fill:#8b0000;fill-opacity:0.9;stroke:#000000;stroke-opacity:0;" x="162.109673" xlink:href="#m415eaafe3d" y="155.993591"/>
     <use style="fill:#8b0000;fill-opacity:0.9;stroke:#000000;stroke-opacity:0;" x="173.787372" xlink:href="#m415eaafe3d" y="134.676943"/>
     <use style="fill:#8b0000;fill-opacity:0.9;stroke:#000000;stroke-opacity:0;" x="194.284952" xlink:href="#m415eaafe3d" y="151.229884"/>
     <use style="fill:#8b0000;fill-opacity:0.9;stroke:#000000;stroke-opacity:0;" x="160.919553" xlink:href="#m415eaafe3d" y="176.160932"/>
     <use style="fill:#8b0000;fill-opacity:0.9;stroke:#000000;stroke-opacity:0;" x="182.823118" xlink:href="#m415eaafe3d" y="168.497972"/>
     <use style="fill:#8b0000;fill-opacity:0.9;stroke:#000000;stroke-opacity:0;" x="177.136138" xlink:href="#m415eaafe3d" y="152.685419"/>
     <use style="fill:#8b0000;fill-opacity:0.9;stroke:#000000;stroke-opacity:0;" x="183.990315" xlink:href="#m415eaafe3d" y="132.254581"/>
     <use style="fill:#8b0000;fill-opacity:0.9;stroke:#000000;stroke-opacity:0;" x="174.68235" xlink:href="#m415eaafe3d" y="164.04254"/>
     <use style="fill:#8b0000;fill-opacity:0.9;stroke:#000000;stroke-opacity:0;" x="184.914903" xlink:href="#m415eaafe3d" y="147.09355"/>
     <use style="fill:#8b0000;fill-opacity:0.9;stroke:#000000;stroke-opacity:0;" x="155.46754" xlink:href="#m415eaafe3d" y="165.166021"/>
     <use style="fill:#8b0000;fill-opacity:0.9;stroke:#000000;stroke-opacity:0;" x="170.186446" xlink:href="#m415eaafe3d" y="153.721974"/>
     <use style="fill:#8b0000;fill-opacity:0.9;stroke:#000000;stroke-opacity:0;" x="153.080613" xlink:href="#m415eaafe3d" y="147.189952"/>
     <use style="fill:#8b0000;fill-opacity:0.9;stroke:#000000;stroke-opacity:0;" x="157.953803" xlink:href="#m415eaafe3d" y="180.797469"/>
     <use style="fill:#8b0000;fill-opacity:0.9;stroke:#000000;stroke-opacity:0;" x="153.935475" xlink:href="#m415eaafe3d" y="164.76535"/>
     <use style="fill:#8b0000;fill-opacity:0.9;stroke:#000000;stroke-opacity:0;" x="153.00038" xlink:href="#m415eaafe3d" y="138.149783"/>
     <use style="fill:#8b0000;fill-opacity:0.9;stroke:#000000;stroke-opacity:0;" x="171.968761" xlink:href="#m415eaafe3d" y="179.877204"/>
     <use style="fill:#8b0000;fill-opacity:0.9;stroke:#000000;stroke-opacity:0;" x="150.368934" xlink:href="#m415eaafe3d" y="113.5655"/>
     <use style="fill:#8b0000;fill-opacity:0.9;stroke:#000000;stroke-opacity:0;" x="187.421224" xlink:href="#m415eaafe3d" y="172.528661"/>
     <use style="fill:#8b0000;fill-opacity:0.9;stroke:#000000;stroke-opacity:0;" x="148.619094" xlink:href="#m415eaafe3d" y="129.142225"/>
     <use style="fill:#8b0000;fill-opacity:0.9;stroke:#000000;stroke-opacity:0;" x="195.751112" xlink:href="#m415eaafe3d" y="146.943858"/>
     <use style="fill:#8b0000;fill-opacity:0.9;stroke:#000000;stroke-opacity:0;" x="159.396084" xlink:href="#m415eaafe3d" y="166.640128"/>
     <use style="fill:#8b0000;fill-opacity:0.9;stroke:#000000;stroke-opacity:0;" x="144.145158" xlink:href="#m415eaafe3d" y="159.877484"/>
     <use style="fill:#8b0000;fill-opacity:0.9;stroke:#000000;stroke-opacity:0;" x="142.205243" xlink:href="#m415eaafe3d" y="141.15626"/>
     <use style="fill:#8b0000;fill-opacity:0.9;stroke:#000000;stroke-opacity:0;" x="144.131786" xlink:href="#m415eaafe3d" y="135.849502"/>
     <use style="fill:#8b0000;fill-opacity:0.9;stroke:#000000;stroke-opacity:0;" x="143.024764" xlink:href="#m415eaafe3d" y="142.78471"/>
     <use style="fill:#8b0000;fill-opacity:0.9;stroke:#000000;stroke-opacity:0;" x="138.822091" xlink:href="#m415eaafe3d" y="169.904311"/>
     <use style="fill:#8b0000;fill-opacity:0.9;stroke:#000000;stroke-opacity:0;" x="153.614544" xlink:href="#m415eaafe3d" y="179.777731"/>
     <use style="fill:#8b0000;fill-opacity:0.9;stroke:#000000;stroke-opacity:0;" x="134.934619" xlink:href="#m415eaafe3d" y="131.599744"/>
     <use style="fill:#8b0000;fill-opacity:0.9;stroke:#000000;stroke-opacity:0;" x="133.938395" xlink:href="#m415eaafe3d" y="135.125786"/>
     <use style="fill:#8b0000;fill-opacity:0.9;stroke:#000000;stroke-opacity:0;" x="173.540943" xlink:href="#m415eaafe3d" y="170.013144"/>
     <use style="fill:#8b0000;fill-opacity:0.9;stroke:#000000;stroke-opacity:0;" x="249.216748" xlink:href="#m415eaafe3d" y="195.810932"/>
     <use style="fill:#8b0000;fill-opacity:0.9;stroke:#000000;stroke-opacity:0;" x="208.886374" xlink:href="#m415eaafe3d" y="155.277362"/>
     <use style="fill:#8b0000;fill-opacity:0.9;stroke:#000000;stroke-opacity:0;" x="248.638881" xlink:href="#m415eaafe3d" y="100.901425"/>
     <use style="fill:#8b0000;fill-opacity:0.9;stroke:#000000;stroke-opacity:0;" x="238.155123" xlink:href="#m415eaafe3d" y="100.107747"/>
     <use style="fill:#8b0000;fill-opacity:0.9;stroke:#000000;stroke-opacity:0;" x="244.426657" xlink:href="#m415eaafe3d" y="207.95752"/>
     <use style="fill:#8b0000;fill-opacity:0.9;stroke:#000000;stroke-opacity:0;" x="278.207548" xlink:href="#m415eaafe3d" y="133.708624"/>
     <use style="fill:#8b0000;fill-opacity:0.9;stroke:#000000;stroke-opacity:0;" x="270.957938" xlink:href="#m415eaafe3d" y="144.384058"/>
     <use style="fill:#8b0000;fill-opacity:0.9;stroke:#000000;stroke-opacity:0;" x="141.208063" xlink:href="#m415eaafe3d" y="120.541919"/>
     <use style="fill:#8b0000;fill-opacity:0.9;stroke:#000000;stroke-opacity:0;" x="248.678997" xlink:href="#m415eaafe3d" y="123.699434"/>
     <use style="fill:#8b0000;fill-opacity:0.9;stroke:#000000;stroke-opacity:0;" x="315.311416" xlink:href="#m415eaafe3d" y="221.987104"/>
     <use style="fill:#8b0000;fill-opacity:0.9;stroke:#000000;stroke-opacity:0;" x="320.414797" xlink:href="#m415eaafe3d" y="194.211408"/>
     <use style="fill:#8b0000;fill-opacity:0.9;stroke:#000000;stroke-opacity:0;" x="51.438977" xlink:href="#m415eaafe3d" y="188.173125"/>
     <use style="fill:#8b0000;fill-opacity:0.9;stroke:#000000;stroke-opacity:0;" x="376.093523" xlink:href="#m415eaafe3d" y="96.21543"/>
    </g>
   </g>
   <g id="line2d_17">
    <path clip-path="url(#ped3f65a50a)" d="M 51.438977 137.827635 
L 54.685523 137.96427 
L 57.932068 138.104962 
L 61.178614 138.249306 
L 64.425159 138.396597 
L 67.671705 138.545708 
L 70.91825 138.694917 
L 74.164795 138.841657 
L 77.411341 138.982109 
L 80.657886 139.11056 
L 83.904432 139.218318 
L 87.150977 139.291813 
L 90.397523 139.309078 
L 93.644068 139.23289 
L 96.890614 138.996414 
L 100.137159 138.470841 
L 103.383705 137.386513 
L 106.63025 135.132741 
L 109.876795 130.37068 
L 113.123341 122.412943 
L 116.369886 119.12288 
L 119.616432 121.806377 
L 122.862977 124.701085 
L 126.109523 127.5927 
L 129.356068 130.498677 
L 132.602614 133.418919 
L 135.849159 136.350728 
L 139.095705 139.28904 
L 142.34225 142.219556 
L 145.588795 145.106642 
L 148.835341 147.911376 
L 152.081886 150.587442 
L 155.328432 153.147537 
L 158.574977 155.671391 
L 161.821523 158.338195 
L 165.068068 160.589204 
L 168.314614 162.048011 
L 171.561159 162.389067 
L 174.807705 162.1274 
L 178.05425 161.760619 
L 181.300795 161.086845 
L 184.547341 160.181088 
L 187.793886 159.372731 
L 191.040432 158.719548 
L 194.286977 158.081141 
L 197.533523 157.318062 
L 200.780068 156.06183 
L 204.026614 154.200744 
L 207.273159 152.156181 
L 210.519705 150.543134 
L 213.76625 149.372806 
L 217.012795 148.228326 
L 220.259341 147.16832 
L 223.505886 146.438325 
L 226.752432 145.990303 
L 229.998977 145.615036 
L 233.245523 145.14277 
L 236.492068 144.554696 
L 239.738614 143.887772 
L 242.985159 143.249863 
L 246.231705 142.939784 
L 249.47825 143.262948 
L 252.724795 144.062699 
L 255.971341 144.869801 
L 259.217886 145.50963 
L 262.464432 145.990965 
L 265.710977 146.357975 
L 268.957523 146.654392 
L 272.204068 146.896874 
L 275.450614 147.135108 
L 278.697159 147.244622 
L 281.943705 147.24177 
L 285.19025 147.182585 
L 288.436795 147.10957 
L 291.683341 147.049157 
L 294.929886 147.01198 
L 298.176432 147.001678 
L 301.422977 147.019145 
L 304.669523 147.064228 
L 307.916068 147.136406 
L 311.162614 147.235045 
L 314.409159 147.359501 
L 317.655705 147.509067 
L 320.90225 147.682365 
L 324.148795 147.877538 
L 327.395341 148.092376 
L 330.641886 148.324837 
L 333.888432 148.573097 
L 337.134977 148.835522 
L 340.381523 149.110642 
L 343.628068 149.397129 
L 346.874614 149.69378 
L 350.121159 149.999502 
L 353.367705 150.313298 
L 356.61425 150.634259 
L 359.860795 150.961555 
L 363.107341 151.294426 
L 366.353886 151.632178 
L 369.600432 151.974172 
L 372.846977 152.319828 
L 376.093523 152.66861 
" style="fill:none;stroke:#8b0000;stroke-linecap:round;stroke-opacity:0.5;stroke-width:1.5;"/>
   </g>
   <g id="legend_1">
    <g id="patch_3">
     <path d="M 305.535625 43.490625 
L 385.32625 43.490625 
Q 387.32625 43.490625 387.32625 41.490625 
L 387.32625 14.2 
Q 387.32625 12.2 385.32625 12.2 
L 305.535625 12.2 
Q 303.535625 12.2 303.535625 14.2 
L 303.535625 41.490625 
Q 303.535625 43.490625 305.535625 43.490625 
z
" style="fill:#ffffff;opacity:0.8;stroke:#cccccc;stroke-linejoin:miter;"/>
    </g>
    <g id="line2d_18"/>
    <g id="line2d_19">
     <g>
      <use style="fill:#00008b;fill-opacity:0.9;stroke:#000000;stroke-opacity:0;" x="317.535625" xlink:href="#m07dfd69df4" y="19.857812"/>
     </g>
    </g>
    <g id="text_16">
     <!-- non-STEM -->
     <g style="fill:#262626;" transform="translate(335.535625 23.357812)scale(0.1 -0.1)">
      <defs>
       <path d="M 203 1375 
L 203 1941 
L 1931 1941 
L 1931 1375 
L 203 1375 
z
" id="ArialMT-2d" transform="scale(0.015625)"/>
       <path d="M 288 1472 
L 859 1522 
Q 900 1178 1048 958 
Q 1197 738 1509 602 
Q 1822 466 2213 466 
Q 2559 466 2825 569 
Q 3091 672 3220 851 
Q 3350 1031 3350 1244 
Q 3350 1459 3225 1620 
Q 3100 1781 2813 1891 
Q 2628 1963 1997 2114 
Q 1366 2266 1113 2400 
Q 784 2572 623 2826 
Q 463 3081 463 3397 
Q 463 3744 659 4045 
Q 856 4347 1234 4503 
Q 1613 4659 2075 4659 
Q 2584 4659 2973 4495 
Q 3363 4331 3572 4012 
Q 3781 3694 3797 3291 
L 3216 3247 
Q 3169 3681 2898 3903 
Q 2628 4125 2100 4125 
Q 1550 4125 1298 3923 
Q 1047 3722 1047 3438 
Q 1047 3191 1225 3031 
Q 1400 2872 2139 2705 
Q 2878 2538 3153 2413 
Q 3553 2228 3743 1945 
Q 3934 1663 3934 1294 
Q 3934 928 3725 604 
Q 3516 281 3123 101 
Q 2731 -78 2241 -78 
Q 1619 -78 1198 103 
Q 778 284 539 648 
Q 300 1013 288 1472 
z
" id="ArialMT-53" transform="scale(0.015625)"/>
       <path d="M 1659 0 
L 1659 4041 
L 150 4041 
L 150 4581 
L 3781 4581 
L 3781 4041 
L 2266 4041 
L 2266 0 
L 1659 0 
z
" id="ArialMT-54" transform="scale(0.015625)"/>
       <path d="M 506 0 
L 506 4581 
L 3819 4581 
L 3819 4041 
L 1113 4041 
L 1113 2638 
L 3647 2638 
L 3647 2100 
L 1113 2100 
L 1113 541 
L 3925 541 
L 3925 0 
L 506 0 
z
" id="ArialMT-45" transform="scale(0.015625)"/>
       <path d="M 475 0 
L 475 4581 
L 1388 4581 
L 2472 1338 
Q 2622 884 2691 659 
Q 2769 909 2934 1394 
L 4031 4581 
L 4847 4581 
L 4847 0 
L 4263 0 
L 4263 3834 
L 2931 0 
L 2384 0 
L 1059 3900 
L 1059 0 
L 475 0 
z
" id="ArialMT-4d" transform="scale(0.015625)"/>
      </defs>
      <use xlink:href="#ArialMT-6e"/>
      <use x="55.615234" xlink:href="#ArialMT-6f"/>
      <use x="111.230469" xlink:href="#ArialMT-6e"/>
      <use x="166.845703" xlink:href="#ArialMT-2d"/>
      <use x="200.146484" xlink:href="#ArialMT-53"/>
      <use x="266.845703" xlink:href="#ArialMT-54"/>
      <use x="327.929688" xlink:href="#ArialMT-45"/>
      <use x="394.628906" xlink:href="#ArialMT-4d"/>
     </g>
    </g>
    <g id="line2d_20"/>
    <g id="line2d_21">
     <g>
      <use style="fill:#8b0000;fill-opacity:0.9;stroke:#000000;stroke-opacity:0;" x="317.535625" xlink:href="#m415eaafe3d" y="34.003125"/>
     </g>
    </g>
    <g id="text_17">
     <!-- STEM -->
     <g style="fill:#262626;" transform="translate(335.535625 37.503125)scale(0.1 -0.1)">
      <use xlink:href="#ArialMT-53"/>
      <use x="66.699219" xlink:href="#ArialMT-54"/>
      <use x="127.783203" xlink:href="#ArialMT-45"/>
      <use x="194.482422" xlink:href="#ArialMT-4d"/>
     </g>
    </g>
   </g>
  </g>
  <g id="text_18">
   <!-- dynomight.net -->
   <g style="fill:#808080;opacity:0.5;" transform="translate(346.24625 297.504)scale(0.06 -0.06)">
    <defs>
     <path d="M 2681 3053 
L 2681 4863 
L 3256 4863 
L 3256 0 
L 2681 0 
L 2681 441 
Q 2538 181 2298 45 
Q 2059 -91 1747 -91 
Q 1113 -91 748 401 
Q 384 894 384 1759 
Q 384 2613 750 3098 
Q 1116 3584 1747 3584 
Q 2063 3584 2303 3448 
Q 2544 3313 2681 3053 
z
M 991 1747 
Q 991 1078 1203 737 
Q 1416 397 1831 397 
Q 2247 397 2464 740 
Q 2681 1084 2681 1747 
Q 2681 2413 2464 2755 
Q 2247 3097 1831 3097 
Q 1416 3097 1203 2756 
Q 991 2416 991 1747 
z
" id="DejaVuSansMono-64" transform="scale(0.015625)"/>
     <path d="M 2681 1125 
Q 2538 759 2316 163 
Q 2006 -663 1900 -844 
Q 1756 -1088 1540 -1209 
Q 1325 -1331 1038 -1331 
L 575 -1331 
L 575 -850 
L 916 -850 
Q 1169 -850 1312 -703 
Q 1456 -556 1678 56 
L 325 3500 
L 934 3500 
L 1972 763 
L 2994 3500 
L 3603 3500 
L 2681 1125 
z
" id="DejaVuSansMono-79" transform="scale(0.015625)"/>
     <path d="M 3284 2169 
L 3284 0 
L 2706 0 
L 2706 2169 
Q 2706 2641 2540 2862 
Q 2375 3084 2022 3084 
Q 1619 3084 1401 2798 
Q 1184 2513 1184 1978 
L 1184 0 
L 609 0 
L 609 3500 
L 1184 3500 
L 1184 2975 
Q 1338 3275 1600 3429 
Q 1863 3584 2222 3584 
Q 2756 3584 3020 3232 
Q 3284 2881 3284 2169 
z
" id="DejaVuSansMono-6e" transform="scale(0.015625)"/>
     <path d="M 1925 3097 
Q 1488 3097 1263 2756 
Q 1038 2416 1038 1747 
Q 1038 1081 1263 739 
Q 1488 397 1925 397 
Q 2366 397 2591 739 
Q 2816 1081 2816 1747 
Q 2816 2416 2591 2756 
Q 2366 3097 1925 3097 
z
M 1925 3584 
Q 2653 3584 3039 3112 
Q 3425 2641 3425 1747 
Q 3425 850 3040 379 
Q 2656 -91 1925 -91 
Q 1197 -91 812 379 
Q 428 850 428 1747 
Q 428 2641 812 3112 
Q 1197 3584 1925 3584 
z
" id="DejaVuSansMono-6f" transform="scale(0.015625)"/>
     <path d="M 2113 3144 
Q 2219 3369 2383 3476 
Q 2547 3584 2778 3584 
Q 3200 3584 3373 3257 
Q 3547 2931 3547 2028 
L 3547 0 
L 3022 0 
L 3022 2003 
Q 3022 2744 2939 2923 
Q 2856 3103 2638 3103 
Q 2388 3103 2295 2911 
Q 2203 2719 2203 2003 
L 2203 0 
L 1678 0 
L 1678 2003 
Q 1678 2753 1589 2928 
Q 1500 3103 1269 3103 
Q 1041 3103 952 2911 
Q 863 2719 863 2003 
L 863 0 
L 341 0 
L 341 3500 
L 863 3500 
L 863 3200 
Q 966 3388 1120 3486 
Q 1275 3584 1472 3584 
Q 1709 3584 1867 3475 
Q 2025 3366 2113 3144 
z
" id="DejaVuSansMono-6d" transform="scale(0.015625)"/>
     <path d="M 800 3500 
L 2272 3500 
L 2272 447 
L 3413 447 
L 3413 0 
L 556 0 
L 556 447 
L 1697 447 
L 1697 3053 
L 800 3053 
L 800 3500 
z
M 1697 4863 
L 2272 4863 
L 2272 4134 
L 1697 4134 
L 1697 4863 
z
" id="DejaVuSansMono-69" transform="scale(0.015625)"/>
     <path d="M 2681 1778 
Q 2681 2425 2470 2761 
Q 2259 3097 1856 3097 
Q 1434 3097 1212 2761 
Q 991 2425 991 1778 
Q 991 1131 1214 792 
Q 1438 453 1863 453 
Q 2259 453 2470 793 
Q 2681 1134 2681 1778 
z
M 3256 225 
Q 3256 -563 2884 -969 
Q 2513 -1375 1791 -1375 
Q 1553 -1375 1293 -1331 
Q 1034 -1288 775 -1203 
L 775 -634 
Q 1081 -778 1331 -847 
Q 1581 -916 1791 -916 
Q 2256 -916 2468 -662 
Q 2681 -409 2681 141 
L 2681 166 
L 2681 556 
Q 2544 263 2306 119 
Q 2069 -25 1728 -25 
Q 1116 -25 750 465 
Q 384 956 384 1778 
Q 384 2603 750 3093 
Q 1116 3584 1728 3584 
Q 2066 3584 2300 3450 
Q 2534 3316 2681 3034 
L 2681 3488 
L 3256 3488 
L 3256 225 
z
" id="DejaVuSansMono-67" transform="scale(0.015625)"/>
     <path d="M 3284 2169 
L 3284 0 
L 2706 0 
L 2706 2169 
Q 2706 2641 2540 2862 
Q 2375 3084 2022 3084 
Q 1619 3084 1401 2798 
Q 1184 2513 1184 1978 
L 1184 0 
L 609 0 
L 609 4863 
L 1184 4863 
L 1184 2975 
Q 1338 3275 1600 3429 
Q 1863 3584 2222 3584 
Q 2756 3584 3020 3232 
Q 3284 2881 3284 2169 
z
" id="DejaVuSansMono-68" transform="scale(0.015625)"/>
     <path d="M 1919 4494 
L 1919 3500 
L 3225 3500 
L 3225 3053 
L 1919 3053 
L 1919 1153 
Q 1919 766 2066 612 
Q 2213 459 2578 459 
L 3225 459 
L 3225 0 
L 2522 0 
Q 1875 0 1609 259 
Q 1344 519 1344 1153 
L 1344 3053 
L 409 3053 
L 409 3500 
L 1344 3500 
L 1344 4494 
L 1919 4494 
z
" id="DejaVuSansMono-74" transform="scale(0.015625)"/>
     <path d="M 1528 953 
L 2316 953 
L 2316 0 
L 1528 0 
L 1528 953 
z
" id="DejaVuSansMono-2e" transform="scale(0.015625)"/>
     <path d="M 3475 1894 
L 3475 1613 
L 984 1613 
L 984 1594 
Q 984 1022 1282 709 
Q 1581 397 2125 397 
Q 2400 397 2700 484 
Q 3000 572 3341 750 
L 3341 178 
Q 3013 44 2708 -23 
Q 2403 -91 2119 -91 
Q 1303 -91 843 398 
Q 384 888 384 1747 
Q 384 2584 834 3084 
Q 1284 3584 2034 3584 
Q 2703 3584 3089 3131 
Q 3475 2678 3475 1894 
z
M 2900 2063 
Q 2888 2569 2661 2833 
Q 2434 3097 2009 3097 
Q 1594 3097 1325 2822 
Q 1056 2547 1006 2059 
L 2900 2063 
z
" id="DejaVuSansMono-65" transform="scale(0.015625)"/>
    </defs>
    <use xlink:href="#DejaVuSansMono-64"/>
    <use x="60.205078" xlink:href="#DejaVuSansMono-79"/>
    <use x="120.410156" xlink:href="#DejaVuSansMono-6e"/>
    <use x="180.615234" xlink:href="#DejaVuSansMono-6f"/>
    <use x="240.820312" xlink:href="#DejaVuSansMono-6d"/>
    <use x="301.025391" xlink:href="#DejaVuSansMono-69"/>
    <use x="361.230469" xlink:href="#DejaVuSansMono-67"/>
    <use x="421.435547" xlink:href="#DejaVuSansMono-68"/>
    <use x="481.640625" xlink:href="#DejaVuSansMono-74"/>
    <use x="541.845703" xlink:href="#DejaVuSansMono-2e"/>
    <use x="602.050781" xlink:href="#DejaVuSansMono-6e"/>
    <use x="662.255859" xlink:href="#DejaVuSansMono-65"/>
    <use x="722.460938" xlink:href="#DejaVuSansMono-74"/>
   </g>
  </g>
 </g>
 <defs>
  <clipPath id="ped3f65a50a">
   <rect height="266.112" width="357.12" x="35.20625" y="7.2"/>
  </clipPath>
 </defs>
</svg>
