<?xml version="1.0" encoding="utf-8" standalone="no"?>
<!DOCTYPE svg PUBLIC "-//W3C//DTD SVG 1.1//EN"
  "http://www.w3.org/Graphics/SVG/1.1/DTD/svg11.dtd">
<svg height="216pt" version="1.1" viewBox="0 0 576 216" width="576pt" xmlns="http://www.w3.org/2000/svg" xmlns:xlink="http://www.w3.org/1999/xlink">
 <metadata>
  <rdf:RDF xmlns:cc="http://creativecommons.org/ns#" xmlns:dc="http://purl.org/dc/elements/1.1/" xmlns:rdf="http://www.w3.org/1999/02/22-rdf-syntax-ns#">
   <cc:Work>
    <dc:type rdf:resource="http://purl.org/dc/dcmitype/StillImage"/>
    <dc:date>2021-06-29T10:22:14.477973</dc:date>
    <dc:format>image/svg+xml</dc:format>
    <dc:creator>
     <cc:Agent>
      <dc:title>Matplotlib v3.4.1, https://matplotlib.org/</dc:title>
     </cc:Agent>
    </dc:creator>
   </cc:Work>
  </rdf:RDF>
 </metadata>
 <defs>
  <style type="text/css">*{stroke-linecap:butt;stroke-linejoin:round;}</style>
 </defs>
 <g id="figure_1">
  <g id="patch_1">
   <path d="M 0 216 
L 576 216 
L 576 0 
L 0 0 
z
" style="fill:none;"/>
  </g>
  <g id="axes_1">
   <g id="patch_2">
    <path d="M 51.84 172.8 
L 570.24 172.8 
L 570.24 21.6 
L 51.84 21.6 
z
" style="fill:none;"/>
   </g>
   <g id="matplotlib.axis_1">
    <g id="xtick_1">
     <g id="text_1">
      <!-- GDP per capita -->
      <g style="fill:#262626;" transform="translate(41.310668 194.542094)scale(0.1 -0.1)">
       <defs>
        <path d="M 2638 1797 
L 2638 2334 
L 4578 2338 
L 4578 638 
Q 4131 281 3656 101 
Q 3181 -78 2681 -78 
Q 2006 -78 1454 211 
Q 903 500 622 1047 
Q 341 1594 341 2269 
Q 341 2938 620 3517 
Q 900 4097 1425 4378 
Q 1950 4659 2634 4659 
Q 3131 4659 3532 4498 
Q 3934 4338 4162 4050 
Q 4391 3763 4509 3300 
L 3963 3150 
Q 3859 3500 3706 3700 
Q 3553 3900 3268 4020 
Q 2984 4141 2638 4141 
Q 2222 4141 1919 4014 
Q 1616 3888 1430 3681 
Q 1244 3475 1141 3228 
Q 966 2803 966 2306 
Q 966 1694 1177 1281 
Q 1388 869 1791 669 
Q 2194 469 2647 469 
Q 3041 469 3416 620 
Q 3791 772 3984 944 
L 3984 1797 
L 2638 1797 
z
" id="ArialMT-47" transform="scale(0.015625)"/>
        <path d="M 494 0 
L 494 4581 
L 2072 4581 
Q 2606 4581 2888 4516 
Q 3281 4425 3559 4188 
Q 3922 3881 4101 3404 
Q 4281 2928 4281 2316 
Q 4281 1794 4159 1391 
Q 4038 988 3847 723 
Q 3656 459 3429 307 
Q 3203 156 2883 78 
Q 2563 0 2147 0 
L 494 0 
z
M 1100 541 
L 2078 541 
Q 2531 541 2789 625 
Q 3047 709 3200 863 
Q 3416 1078 3536 1442 
Q 3656 1806 3656 2325 
Q 3656 3044 3420 3430 
Q 3184 3816 2847 3947 
Q 2603 4041 2063 4041 
L 1100 4041 
L 1100 541 
z
" id="ArialMT-44" transform="scale(0.015625)"/>
        <path d="M 494 0 
L 494 4581 
L 2222 4581 
Q 2678 4581 2919 4538 
Q 3256 4481 3484 4323 
Q 3713 4166 3852 3881 
Q 3991 3597 3991 3256 
Q 3991 2672 3619 2267 
Q 3247 1863 2275 1863 
L 1100 1863 
L 1100 0 
L 494 0 
z
M 1100 2403 
L 2284 2403 
Q 2872 2403 3119 2622 
Q 3366 2841 3366 3238 
Q 3366 3525 3220 3729 
Q 3075 3934 2838 4000 
Q 2684 4041 2272 4041 
L 1100 4041 
L 1100 2403 
z
" id="ArialMT-50" transform="scale(0.015625)"/>
        <path id="ArialMT-20" transform="scale(0.015625)"/>
        <path d="M 422 -1272 
L 422 3319 
L 934 3319 
L 934 2888 
Q 1116 3141 1344 3267 
Q 1572 3394 1897 3394 
Q 2322 3394 2647 3175 
Q 2972 2956 3137 2557 
Q 3303 2159 3303 1684 
Q 3303 1175 3120 767 
Q 2938 359 2589 142 
Q 2241 -75 1856 -75 
Q 1575 -75 1351 44 
Q 1128 163 984 344 
L 984 -1272 
L 422 -1272 
z
M 931 1641 
Q 931 1000 1190 694 
Q 1450 388 1819 388 
Q 2194 388 2461 705 
Q 2728 1022 2728 1688 
Q 2728 2322 2467 2637 
Q 2206 2953 1844 2953 
Q 1484 2953 1207 2617 
Q 931 2281 931 1641 
z
" id="ArialMT-70" transform="scale(0.015625)"/>
        <path d="M 2694 1069 
L 3275 997 
Q 3138 488 2766 206 
Q 2394 -75 1816 -75 
Q 1088 -75 661 373 
Q 234 822 234 1631 
Q 234 2469 665 2931 
Q 1097 3394 1784 3394 
Q 2450 3394 2872 2941 
Q 3294 2488 3294 1666 
Q 3294 1616 3291 1516 
L 816 1516 
Q 847 969 1125 678 
Q 1403 388 1819 388 
Q 2128 388 2347 550 
Q 2566 713 2694 1069 
z
M 847 1978 
L 2700 1978 
Q 2663 2397 2488 2606 
Q 2219 2931 1791 2931 
Q 1403 2931 1139 2672 
Q 875 2413 847 1978 
z
" id="ArialMT-65" transform="scale(0.015625)"/>
        <path d="M 416 0 
L 416 3319 
L 922 3319 
L 922 2816 
Q 1116 3169 1280 3281 
Q 1444 3394 1641 3394 
Q 1925 3394 2219 3213 
L 2025 2691 
Q 1819 2813 1613 2813 
Q 1428 2813 1281 2702 
Q 1134 2591 1072 2394 
Q 978 2094 978 1738 
L 978 0 
L 416 0 
z
" id="ArialMT-72" transform="scale(0.015625)"/>
        <path d="M 2588 1216 
L 3141 1144 
Q 3050 572 2676 248 
Q 2303 -75 1759 -75 
Q 1078 -75 664 370 
Q 250 816 250 1647 
Q 250 2184 428 2587 
Q 606 2991 970 3192 
Q 1334 3394 1763 3394 
Q 2303 3394 2647 3120 
Q 2991 2847 3088 2344 
L 2541 2259 
Q 2463 2594 2264 2762 
Q 2066 2931 1784 2931 
Q 1359 2931 1093 2626 
Q 828 2322 828 1663 
Q 828 994 1084 691 
Q 1341 388 1753 388 
Q 2084 388 2306 591 
Q 2528 794 2588 1216 
z
" id="ArialMT-63" transform="scale(0.015625)"/>
        <path d="M 2588 409 
Q 2275 144 1986 34 
Q 1697 -75 1366 -75 
Q 819 -75 525 192 
Q 231 459 231 875 
Q 231 1119 342 1320 
Q 453 1522 633 1644 
Q 813 1766 1038 1828 
Q 1203 1872 1538 1913 
Q 2219 1994 2541 2106 
Q 2544 2222 2544 2253 
Q 2544 2597 2384 2738 
Q 2169 2928 1744 2928 
Q 1347 2928 1158 2789 
Q 969 2650 878 2297 
L 328 2372 
Q 403 2725 575 2942 
Q 747 3159 1072 3276 
Q 1397 3394 1825 3394 
Q 2250 3394 2515 3294 
Q 2781 3194 2906 3042 
Q 3031 2891 3081 2659 
Q 3109 2516 3109 2141 
L 3109 1391 
Q 3109 606 3145 398 
Q 3181 191 3288 0 
L 2700 0 
Q 2613 175 2588 409 
z
M 2541 1666 
Q 2234 1541 1622 1453 
Q 1275 1403 1131 1340 
Q 988 1278 909 1158 
Q 831 1038 831 891 
Q 831 666 1001 516 
Q 1172 366 1500 366 
Q 1825 366 2078 508 
Q 2331 650 2450 897 
Q 2541 1088 2541 1459 
L 2541 1666 
z
" id="ArialMT-61" transform="scale(0.015625)"/>
        <path d="M 425 3934 
L 425 4581 
L 988 4581 
L 988 3934 
L 425 3934 
z
M 425 0 
L 425 3319 
L 988 3319 
L 988 0 
L 425 0 
z
" id="ArialMT-69" transform="scale(0.015625)"/>
        <path d="M 1650 503 
L 1731 6 
Q 1494 -44 1306 -44 
Q 1000 -44 831 53 
Q 663 150 594 308 
Q 525 466 525 972 
L 525 2881 
L 113 2881 
L 113 3319 
L 525 3319 
L 525 4141 
L 1084 4478 
L 1084 3319 
L 1650 3319 
L 1650 2881 
L 1084 2881 
L 1084 941 
Q 1084 700 1114 631 
Q 1144 563 1211 522 
Q 1278 481 1403 481 
Q 1497 481 1650 503 
z
" id="ArialMT-74" transform="scale(0.015625)"/>
       </defs>
       <use xlink:href="#ArialMT-47"/>
       <use x="77.783203" xlink:href="#ArialMT-44"/>
       <use x="150" xlink:href="#ArialMT-50"/>
       <use x="214.949219" xlink:href="#ArialMT-20"/>
       <use x="242.732422" xlink:href="#ArialMT-70"/>
       <use x="298.347656" xlink:href="#ArialMT-65"/>
       <use x="353.962891" xlink:href="#ArialMT-72"/>
       <use x="387.263672" xlink:href="#ArialMT-20"/>
       <use x="415.046875" xlink:href="#ArialMT-63"/>
       <use x="465.046875" xlink:href="#ArialMT-61"/>
       <use x="520.662109" xlink:href="#ArialMT-70"/>
       <use x="576.277344" xlink:href="#ArialMT-69"/>
       <use x="598.494141" xlink:href="#ArialMT-74"/>
       <use x="626.277344" xlink:href="#ArialMT-61"/>
      </g>
     </g>
    </g>
    <g id="xtick_2">
     <g id="text_2">
      <!-- Human Development -->
      <g style="fill:#262626;" transform="translate(146.256974 194.481156)scale(0.1 -0.1)">
       <defs>
        <path d="M 513 0 
L 513 4581 
L 1119 4581 
L 1119 2700 
L 3500 2700 
L 3500 4581 
L 4106 4581 
L 4106 0 
L 3500 0 
L 3500 2159 
L 1119 2159 
L 1119 0 
L 513 0 
z
" id="ArialMT-48" transform="scale(0.015625)"/>
        <path d="M 2597 0 
L 2597 488 
Q 2209 -75 1544 -75 
Q 1250 -75 995 37 
Q 741 150 617 320 
Q 494 491 444 738 
Q 409 903 409 1263 
L 409 3319 
L 972 3319 
L 972 1478 
Q 972 1038 1006 884 
Q 1059 663 1231 536 
Q 1403 409 1656 409 
Q 1909 409 2131 539 
Q 2353 669 2445 892 
Q 2538 1116 2538 1541 
L 2538 3319 
L 3100 3319 
L 3100 0 
L 2597 0 
z
" id="ArialMT-75" transform="scale(0.015625)"/>
        <path d="M 422 0 
L 422 3319 
L 925 3319 
L 925 2853 
Q 1081 3097 1340 3245 
Q 1600 3394 1931 3394 
Q 2300 3394 2536 3241 
Q 2772 3088 2869 2813 
Q 3263 3394 3894 3394 
Q 4388 3394 4653 3120 
Q 4919 2847 4919 2278 
L 4919 0 
L 4359 0 
L 4359 2091 
Q 4359 2428 4304 2576 
Q 4250 2725 4106 2815 
Q 3963 2906 3769 2906 
Q 3419 2906 3187 2673 
Q 2956 2441 2956 1928 
L 2956 0 
L 2394 0 
L 2394 2156 
Q 2394 2531 2256 2718 
Q 2119 2906 1806 2906 
Q 1569 2906 1367 2781 
Q 1166 2656 1075 2415 
Q 984 2175 984 1722 
L 984 0 
L 422 0 
z
" id="ArialMT-6d" transform="scale(0.015625)"/>
        <path d="M 422 0 
L 422 3319 
L 928 3319 
L 928 2847 
Q 1294 3394 1984 3394 
Q 2284 3394 2536 3286 
Q 2788 3178 2913 3003 
Q 3038 2828 3088 2588 
Q 3119 2431 3119 2041 
L 3119 0 
L 2556 0 
L 2556 2019 
Q 2556 2363 2490 2533 
Q 2425 2703 2258 2804 
Q 2091 2906 1866 2906 
Q 1506 2906 1245 2678 
Q 984 2450 984 1813 
L 984 0 
L 422 0 
z
" id="ArialMT-6e" transform="scale(0.015625)"/>
        <path d="M 1344 0 
L 81 3319 
L 675 3319 
L 1388 1331 
Q 1503 1009 1600 663 
Q 1675 925 1809 1294 
L 2547 3319 
L 3125 3319 
L 1869 0 
L 1344 0 
z
" id="ArialMT-76" transform="scale(0.015625)"/>
        <path d="M 409 0 
L 409 4581 
L 972 4581 
L 972 0 
L 409 0 
z
" id="ArialMT-6c" transform="scale(0.015625)"/>
        <path d="M 213 1659 
Q 213 2581 725 3025 
Q 1153 3394 1769 3394 
Q 2453 3394 2887 2945 
Q 3322 2497 3322 1706 
Q 3322 1066 3130 698 
Q 2938 331 2570 128 
Q 2203 -75 1769 -75 
Q 1072 -75 642 372 
Q 213 819 213 1659 
z
M 791 1659 
Q 791 1022 1069 705 
Q 1347 388 1769 388 
Q 2188 388 2466 706 
Q 2744 1025 2744 1678 
Q 2744 2294 2464 2611 
Q 2184 2928 1769 2928 
Q 1347 2928 1069 2612 
Q 791 2297 791 1659 
z
" id="ArialMT-6f" transform="scale(0.015625)"/>
       </defs>
       <use xlink:href="#ArialMT-48"/>
       <use x="72.216797" xlink:href="#ArialMT-75"/>
       <use x="127.832031" xlink:href="#ArialMT-6d"/>
       <use x="211.132812" xlink:href="#ArialMT-61"/>
       <use x="266.748047" xlink:href="#ArialMT-6e"/>
       <use x="322.363281" xlink:href="#ArialMT-20"/>
       <use x="350.146484" xlink:href="#ArialMT-44"/>
       <use x="422.363281" xlink:href="#ArialMT-65"/>
       <use x="477.978516" xlink:href="#ArialMT-76"/>
       <use x="527.978516" xlink:href="#ArialMT-65"/>
       <use x="583.59375" xlink:href="#ArialMT-6c"/>
       <use x="605.810547" xlink:href="#ArialMT-6f"/>
       <use x="661.425781" xlink:href="#ArialMT-70"/>
       <use x="717.041016" xlink:href="#ArialMT-6d"/>
       <use x="800.341797" xlink:href="#ArialMT-65"/>
       <use x="855.957031" xlink:href="#ArialMT-6e"/>
       <use x="911.572266" xlink:href="#ArialMT-74"/>
      </g>
     </g>
    </g>
    <g id="xtick_3">
     <g id="text_3">
      <!-- Gini Index  -->
      <g style="fill:#262626;" transform="translate(287.14 194.481156)scale(0.1 -0.1)">
       <defs>
        <path d="M 597 0 
L 597 4581 
L 1203 4581 
L 1203 0 
L 597 0 
z
" id="ArialMT-49" transform="scale(0.015625)"/>
        <path d="M 2575 0 
L 2575 419 
Q 2259 -75 1647 -75 
Q 1250 -75 917 144 
Q 584 363 401 755 
Q 219 1147 219 1656 
Q 219 2153 384 2558 
Q 550 2963 881 3178 
Q 1213 3394 1622 3394 
Q 1922 3394 2156 3267 
Q 2391 3141 2538 2938 
L 2538 4581 
L 3097 4581 
L 3097 0 
L 2575 0 
z
M 797 1656 
Q 797 1019 1065 703 
Q 1334 388 1700 388 
Q 2069 388 2326 689 
Q 2584 991 2584 1609 
Q 2584 2291 2321 2609 
Q 2059 2928 1675 2928 
Q 1300 2928 1048 2622 
Q 797 2316 797 1656 
z
" id="ArialMT-64" transform="scale(0.015625)"/>
        <path d="M 47 0 
L 1259 1725 
L 138 3319 
L 841 3319 
L 1350 2541 
Q 1494 2319 1581 2169 
Q 1719 2375 1834 2534 
L 2394 3319 
L 3066 3319 
L 1919 1756 
L 3153 0 
L 2463 0 
L 1781 1031 
L 1600 1309 
L 728 0 
L 47 0 
z
" id="ArialMT-78" transform="scale(0.015625)"/>
       </defs>
       <use xlink:href="#ArialMT-47"/>
       <use x="77.783203" xlink:href="#ArialMT-69"/>
       <use x="100" xlink:href="#ArialMT-6e"/>
       <use x="155.615234" xlink:href="#ArialMT-69"/>
       <use x="177.832031" xlink:href="#ArialMT-20"/>
       <use x="205.615234" xlink:href="#ArialMT-49"/>
       <use x="233.398438" xlink:href="#ArialMT-6e"/>
       <use x="289.013672" xlink:href="#ArialMT-64"/>
       <use x="344.628906" xlink:href="#ArialMT-65"/>
       <use x="400.244141" xlink:href="#ArialMT-78"/>
       <use x="450.244141" xlink:href="#ArialMT-20"/>
      </g>
     </g>
    </g>
    <g id="xtick_4">
     <g id="text_4">
      <!-- Human Inequality -->
      <g style="fill:#262626;" transform="translate(389.949588 194.422562)scale(0.1 -0.1)">
       <defs>
        <path d="M 2538 -1272 
L 2538 353 
Q 2406 169 2170 47 
Q 1934 -75 1669 -75 
Q 1078 -75 651 397 
Q 225 869 225 1691 
Q 225 2191 398 2587 
Q 572 2984 901 3189 
Q 1231 3394 1625 3394 
Q 2241 3394 2594 2875 
L 2594 3319 
L 3100 3319 
L 3100 -1272 
L 2538 -1272 
z
M 803 1669 
Q 803 1028 1072 708 
Q 1341 388 1716 388 
Q 2075 388 2334 692 
Q 2594 997 2594 1619 
Q 2594 2281 2320 2615 
Q 2047 2950 1678 2950 
Q 1313 2950 1058 2639 
Q 803 2328 803 1669 
z
" id="ArialMT-71" transform="scale(0.015625)"/>
        <path d="M 397 -1278 
L 334 -750 
Q 519 -800 656 -800 
Q 844 -800 956 -737 
Q 1069 -675 1141 -563 
Q 1194 -478 1313 -144 
Q 1328 -97 1363 -6 
L 103 3319 
L 709 3319 
L 1400 1397 
Q 1534 1031 1641 628 
Q 1738 1016 1872 1384 
L 2581 3319 
L 3144 3319 
L 1881 -56 
Q 1678 -603 1566 -809 
Q 1416 -1088 1222 -1217 
Q 1028 -1347 759 -1347 
Q 597 -1347 397 -1278 
z
" id="ArialMT-79" transform="scale(0.015625)"/>
       </defs>
       <use xlink:href="#ArialMT-48"/>
       <use x="72.216797" xlink:href="#ArialMT-75"/>
       <use x="127.832031" xlink:href="#ArialMT-6d"/>
       <use x="211.132812" xlink:href="#ArialMT-61"/>
       <use x="266.748047" xlink:href="#ArialMT-6e"/>
       <use x="322.363281" xlink:href="#ArialMT-20"/>
       <use x="350.146484" xlink:href="#ArialMT-49"/>
       <use x="377.929688" xlink:href="#ArialMT-6e"/>
       <use x="433.544922" xlink:href="#ArialMT-65"/>
       <use x="489.160156" xlink:href="#ArialMT-71"/>
       <use x="544.775391" xlink:href="#ArialMT-75"/>
       <use x="600.390625" xlink:href="#ArialMT-61"/>
       <use x="656.005859" xlink:href="#ArialMT-6c"/>
       <use x="678.222656" xlink:href="#ArialMT-69"/>
       <use x="700.439453" xlink:href="#ArialMT-74"/>
       <use x="728.222656" xlink:href="#ArialMT-79"/>
      </g>
     </g>
    </g>
    <g id="xtick_5">
     <g id="text_5">
      <!-- GGGI -->
      <g style="fill:#262626;" transform="translate(533.620114 194.481156)scale(0.1 -0.1)">
       <use xlink:href="#ArialMT-47"/>
       <use x="77.783203" xlink:href="#ArialMT-47"/>
       <use x="155.566406" xlink:href="#ArialMT-47"/>
       <use x="233.349609" xlink:href="#ArialMT-49"/>
      </g>
     </g>
    </g>
   </g>
   <g id="matplotlib.axis_2">
    <g id="ytick_1">
     <g id="text_6">
      <!-- −0.50 -->
      <g style="fill:#262626;" transform="translate(19.538437 156.218906)scale(0.1 -0.1)">
       <defs>
        <path d="M 3381 1997 
L 356 1997 
L 356 2522 
L 3381 2522 
L 3381 1997 
z
" id="ArialMT-2212" transform="scale(0.015625)"/>
        <path d="M 266 2259 
Q 266 3072 433 3567 
Q 600 4063 929 4331 
Q 1259 4600 1759 4600 
Q 2128 4600 2406 4451 
Q 2684 4303 2865 4023 
Q 3047 3744 3150 3342 
Q 3253 2941 3253 2259 
Q 3253 1453 3087 958 
Q 2922 463 2592 192 
Q 2263 -78 1759 -78 
Q 1097 -78 719 397 
Q 266 969 266 2259 
z
M 844 2259 
Q 844 1131 1108 757 
Q 1372 384 1759 384 
Q 2147 384 2411 759 
Q 2675 1134 2675 2259 
Q 2675 3391 2411 3762 
Q 2147 4134 1753 4134 
Q 1366 4134 1134 3806 
Q 844 3388 844 2259 
z
" id="ArialMT-30" transform="scale(0.015625)"/>
        <path d="M 581 0 
L 581 641 
L 1222 641 
L 1222 0 
L 581 0 
z
" id="ArialMT-2e" transform="scale(0.015625)"/>
        <path d="M 266 1200 
L 856 1250 
Q 922 819 1161 601 
Q 1400 384 1738 384 
Q 2144 384 2425 690 
Q 2706 997 2706 1503 
Q 2706 1984 2436 2262 
Q 2166 2541 1728 2541 
Q 1456 2541 1237 2417 
Q 1019 2294 894 2097 
L 366 2166 
L 809 4519 
L 3088 4519 
L 3088 3981 
L 1259 3981 
L 1013 2750 
Q 1425 3038 1878 3038 
Q 2478 3038 2890 2622 
Q 3303 2206 3303 1553 
Q 3303 931 2941 478 
Q 2500 -78 1738 -78 
Q 1113 -78 717 272 
Q 322 622 266 1200 
z
" id="ArialMT-35" transform="scale(0.015625)"/>
       </defs>
       <use xlink:href="#ArialMT-2212"/>
       <use x="58.398438" xlink:href="#ArialMT-30"/>
       <use x="114.013672" xlink:href="#ArialMT-2e"/>
       <use x="141.796875" xlink:href="#ArialMT-35"/>
       <use x="197.412109" xlink:href="#ArialMT-30"/>
      </g>
     </g>
    </g>
    <g id="ytick_2">
     <g id="text_7">
      <!-- −0.25 -->
      <g style="fill:#262626;" transform="translate(19.538437 131.018906)scale(0.1 -0.1)">
       <defs>
        <path d="M 3222 541 
L 3222 0 
L 194 0 
Q 188 203 259 391 
Q 375 700 629 1000 
Q 884 1300 1366 1694 
Q 2113 2306 2375 2664 
Q 2638 3022 2638 3341 
Q 2638 3675 2398 3904 
Q 2159 4134 1775 4134 
Q 1369 4134 1125 3890 
Q 881 3647 878 3216 
L 300 3275 
Q 359 3922 746 4261 
Q 1134 4600 1788 4600 
Q 2447 4600 2831 4234 
Q 3216 3869 3216 3328 
Q 3216 3053 3103 2787 
Q 2991 2522 2730 2228 
Q 2469 1934 1863 1422 
Q 1356 997 1212 845 
Q 1069 694 975 541 
L 3222 541 
z
" id="ArialMT-32" transform="scale(0.015625)"/>
       </defs>
       <use xlink:href="#ArialMT-2212"/>
       <use x="58.398438" xlink:href="#ArialMT-30"/>
       <use x="114.013672" xlink:href="#ArialMT-2e"/>
       <use x="141.796875" xlink:href="#ArialMT-32"/>
       <use x="197.412109" xlink:href="#ArialMT-35"/>
      </g>
     </g>
    </g>
    <g id="ytick_3">
     <g id="text_8">
      <!-- 0.00 -->
      <g style="fill:#262626;" transform="translate(25.379062 105.818906)scale(0.1 -0.1)">
       <use xlink:href="#ArialMT-30"/>
       <use x="55.615234" xlink:href="#ArialMT-2e"/>
       <use x="83.398438" xlink:href="#ArialMT-30"/>
       <use x="139.013672" xlink:href="#ArialMT-30"/>
      </g>
     </g>
    </g>
    <g id="ytick_4">
     <g id="text_9">
      <!-- 0.25 -->
      <g style="fill:#262626;" transform="translate(25.379062 80.618906)scale(0.1 -0.1)">
       <use xlink:href="#ArialMT-30"/>
       <use x="55.615234" xlink:href="#ArialMT-2e"/>
       <use x="83.398438" xlink:href="#ArialMT-32"/>
       <use x="139.013672" xlink:href="#ArialMT-35"/>
      </g>
     </g>
    </g>
    <g id="ytick_5">
     <g id="text_10">
      <!-- 0.50 -->
      <g style="fill:#262626;" transform="translate(25.379062 55.418906)scale(0.1 -0.1)">
       <use xlink:href="#ArialMT-30"/>
       <use x="55.615234" xlink:href="#ArialMT-2e"/>
       <use x="83.398438" xlink:href="#ArialMT-35"/>
       <use x="139.013672" xlink:href="#ArialMT-30"/>
      </g>
     </g>
    </g>
    <g id="ytick_6">
     <g id="text_11">
      <!-- 0.75 -->
      <g style="fill:#262626;" transform="translate(25.379062 30.218906)scale(0.1 -0.1)">
       <defs>
        <path d="M 303 3981 
L 303 4522 
L 3269 4522 
L 3269 4084 
Q 2831 3619 2401 2847 
Q 1972 2075 1738 1259 
Q 1569 684 1522 0 
L 944 0 
Q 953 541 1156 1306 
Q 1359 2072 1739 2783 
Q 2119 3494 2547 3981 
L 303 3981 
z
" id="ArialMT-37" transform="scale(0.015625)"/>
       </defs>
       <use xlink:href="#ArialMT-30"/>
       <use x="55.615234" xlink:href="#ArialMT-2e"/>
       <use x="83.398438" xlink:href="#ArialMT-37"/>
       <use x="139.013672" xlink:href="#ArialMT-35"/>
      </g>
     </g>
    </g>
    <g id="text_12">
     <!-- regression coefficient -->
     <g style="fill:#262626;" transform="translate(13.223281 149.071016)rotate(-90)scale(0.11 -0.11)">
      <defs>
       <path d="M 319 -275 
L 866 -356 
Q 900 -609 1056 -725 
Q 1266 -881 1628 -881 
Q 2019 -881 2231 -725 
Q 2444 -569 2519 -288 
Q 2563 -116 2559 434 
Q 2191 0 1641 0 
Q 956 0 581 494 
Q 206 988 206 1678 
Q 206 2153 378 2554 
Q 550 2956 876 3175 
Q 1203 3394 1644 3394 
Q 2231 3394 2613 2919 
L 2613 3319 
L 3131 3319 
L 3131 450 
Q 3131 -325 2973 -648 
Q 2816 -972 2473 -1159 
Q 2131 -1347 1631 -1347 
Q 1038 -1347 672 -1080 
Q 306 -813 319 -275 
z
M 784 1719 
Q 784 1066 1043 766 
Q 1303 466 1694 466 
Q 2081 466 2343 764 
Q 2606 1063 2606 1700 
Q 2606 2309 2336 2618 
Q 2066 2928 1684 2928 
Q 1309 2928 1046 2623 
Q 784 2319 784 1719 
z
" id="ArialMT-67" transform="scale(0.015625)"/>
       <path d="M 197 991 
L 753 1078 
Q 800 744 1014 566 
Q 1228 388 1613 388 
Q 2000 388 2187 545 
Q 2375 703 2375 916 
Q 2375 1106 2209 1216 
Q 2094 1291 1634 1406 
Q 1016 1563 777 1677 
Q 538 1791 414 1992 
Q 291 2194 291 2438 
Q 291 2659 392 2848 
Q 494 3038 669 3163 
Q 800 3259 1026 3326 
Q 1253 3394 1513 3394 
Q 1903 3394 2198 3281 
Q 2494 3169 2634 2976 
Q 2775 2784 2828 2463 
L 2278 2388 
Q 2241 2644 2061 2787 
Q 1881 2931 1553 2931 
Q 1166 2931 1000 2803 
Q 834 2675 834 2503 
Q 834 2394 903 2306 
Q 972 2216 1119 2156 
Q 1203 2125 1616 2013 
Q 2213 1853 2448 1751 
Q 2684 1650 2818 1456 
Q 2953 1263 2953 975 
Q 2953 694 2789 445 
Q 2625 197 2315 61 
Q 2006 -75 1616 -75 
Q 969 -75 630 194 
Q 291 463 197 991 
z
" id="ArialMT-73" transform="scale(0.015625)"/>
       <path d="M 556 0 
L 556 2881 
L 59 2881 
L 59 3319 
L 556 3319 
L 556 3672 
Q 556 4006 616 4169 
Q 697 4388 901 4523 
Q 1106 4659 1475 4659 
Q 1713 4659 2000 4603 
L 1916 4113 
Q 1741 4144 1584 4144 
Q 1328 4144 1222 4034 
Q 1116 3925 1116 3625 
L 1116 3319 
L 1763 3319 
L 1763 2881 
L 1116 2881 
L 1116 0 
L 556 0 
z
" id="ArialMT-66" transform="scale(0.015625)"/>
      </defs>
      <use xlink:href="#ArialMT-72"/>
      <use x="33.300781" xlink:href="#ArialMT-65"/>
      <use x="88.916016" xlink:href="#ArialMT-67"/>
      <use x="144.53125" xlink:href="#ArialMT-72"/>
      <use x="177.832031" xlink:href="#ArialMT-65"/>
      <use x="233.447266" xlink:href="#ArialMT-73"/>
      <use x="283.447266" xlink:href="#ArialMT-73"/>
      <use x="333.447266" xlink:href="#ArialMT-69"/>
      <use x="355.664062" xlink:href="#ArialMT-6f"/>
      <use x="411.279297" xlink:href="#ArialMT-6e"/>
      <use x="466.894531" xlink:href="#ArialMT-20"/>
      <use x="494.677734" xlink:href="#ArialMT-63"/>
      <use x="544.677734" xlink:href="#ArialMT-6f"/>
      <use x="600.292969" xlink:href="#ArialMT-65"/>
      <use x="655.908203" xlink:href="#ArialMT-66"/>
      <use x="681.941406" xlink:href="#ArialMT-66"/>
      <use x="709.724609" xlink:href="#ArialMT-69"/>
      <use x="731.941406" xlink:href="#ArialMT-63"/>
      <use x="781.941406" xlink:href="#ArialMT-69"/>
      <use x="804.158203" xlink:href="#ArialMT-65"/>
      <use x="859.773438" xlink:href="#ArialMT-6e"/>
      <use x="915.388672" xlink:href="#ArialMT-74"/>
     </g>
    </g>
   </g>
   <g id="line2d_1">
    <path clip-path="url(#p88232f3a2b)" d="M 75.403636 203.04 
L 75.403636 1.44 
" style="fill:none;stroke:#f7f7f7;stroke-linecap:round;stroke-width:0.5;"/>
   </g>
   <g id="line2d_2">
    <path clip-path="url(#p88232f3a2b)" d="M 193.221818 203.04 
L 193.221818 1.44 
" style="fill:none;stroke:#f7f7f7;stroke-linecap:round;stroke-width:0.5;"/>
   </g>
   <g id="line2d_3">
    <path clip-path="url(#p88232f3a2b)" d="M 311.04 203.04 
L 311.04 1.44 
" style="fill:none;stroke:#f7f7f7;stroke-linecap:round;stroke-width:0.5;"/>
   </g>
   <g id="line2d_4">
    <path clip-path="url(#p88232f3a2b)" d="M 428.858182 203.04 
L 428.858182 1.44 
" style="fill:none;stroke:#f7f7f7;stroke-linecap:round;stroke-width:0.5;"/>
   </g>
   <g id="line2d_5">
    <path clip-path="url(#p88232f3a2b)" d="M 546.676364 203.04 
L 546.676364 1.44 
" style="fill:none;stroke:#f7f7f7;stroke-linecap:round;stroke-width:0.5;"/>
   </g>
   <g id="line2d_6">
    <path clip-path="url(#p88232f3a2b)" d="M 75.403636 102.24 
L 546.676364 102.24 
" style="fill:none;stroke:#000000;stroke-linecap:round;stroke-width:1.75;"/>
   </g>
   <g id="line2d_7">
    <defs>
     <path d="M 5 -3.409091 
L 1.815954 -0.211676 
L 5 2.970143 
L 4.171123 3.812389 
L 0.973708 0.617201 
L -2.22148 3.812389 
L -3.043672 2.970143 
L 0.131462 -0.211676 
L -3.043672 -3.409091 
L -2.22148 -4.251337 
L 0.973708 -1.053922 
L 4.171123 -4.251337 
L 5 -3.409091 
z
" id="m1924845359"/>
    </defs>
    <g clip-path="url(#p88232f3a2b)">
     <use style="fill:#4c72b0;" x="75.403636" xlink:href="#m1924845359" y="134.2944"/>
     <use style="fill:#4c72b0;" x="193.221818" xlink:href="#m1924845359" y="152.4384"/>
     <use style="fill:#4c72b0;" x="311.04" xlink:href="#m1924845359" y="87.8256"/>
     <use style="fill:#4c72b0;" x="428.858182" xlink:href="#m1924845359" y="63.8352"/>
     <use style="fill:#4c72b0;" x="546.676364" xlink:href="#m1924845359" y="154.5552"/>
    </g>
   </g>
   <g id="text_13">
    <!-- Country variable → Women's STEM propensity -->
    <g style="fill:#262626;" transform="translate(185.62875 15.6)scale(0.12 -0.12)">
     <defs>
      <path d="M 3763 1606 
L 4369 1453 
Q 4178 706 3683 314 
Q 3188 -78 2472 -78 
Q 1731 -78 1267 223 
Q 803 525 561 1097 
Q 319 1669 319 2325 
Q 319 3041 592 3573 
Q 866 4106 1370 4382 
Q 1875 4659 2481 4659 
Q 3169 4659 3637 4309 
Q 4106 3959 4291 3325 
L 3694 3184 
Q 3534 3684 3231 3912 
Q 2928 4141 2469 4141 
Q 1941 4141 1586 3887 
Q 1231 3634 1087 3207 
Q 944 2781 944 2328 
Q 944 1744 1114 1308 
Q 1284 872 1643 656 
Q 2003 441 2422 441 
Q 2931 441 3284 734 
Q 3638 1028 3763 1606 
z
" id="ArialMT-43" transform="scale(0.015625)"/>
      <path d="M 941 0 
L 419 0 
L 419 4581 
L 981 4581 
L 981 2947 
Q 1338 3394 1891 3394 
Q 2197 3394 2470 3270 
Q 2744 3147 2920 2923 
Q 3097 2700 3197 2384 
Q 3297 2069 3297 1709 
Q 3297 856 2875 390 
Q 2453 -75 1863 -75 
Q 1275 -75 941 416 
L 941 0 
z
M 934 1684 
Q 934 1088 1097 822 
Q 1363 388 1816 388 
Q 2184 388 2453 708 
Q 2722 1028 2722 1663 
Q 2722 2313 2464 2622 
Q 2206 2931 1841 2931 
Q 1472 2931 1203 2611 
Q 934 2291 934 1684 
z
" id="ArialMT-62" transform="scale(0.015625)"/>
      <path d="M 4859 2738 
Q 5275 2284 5578 2048 
Q 5881 1813 6150 1697 
L 6150 1556 
Q 5841 1406 5550 1173 
Q 5259 941 4856 491 
L 4616 491 
Q 4909 1119 5231 1456 
L 247 1456 
L 247 1772 
L 5231 1772 
Q 4994 2075 4900 2222 
Q 4806 2369 4622 2738 
L 4859 2738 
z
" id="ArialMT-2192" transform="scale(0.015625)"/>
      <path d="M 1294 0 
L 78 4581 
L 700 4581 
L 1397 1578 
Q 1509 1106 1591 641 
Q 1766 1375 1797 1488 
L 2669 4581 
L 3400 4581 
L 4056 2263 
Q 4303 1400 4413 641 
Q 4500 1075 4641 1638 
L 5359 4581 
L 5969 4581 
L 4713 0 
L 4128 0 
L 3163 3491 
Q 3041 3928 3019 4028 
Q 2947 3713 2884 3491 
L 1913 0 
L 1294 0 
z
" id="ArialMT-57" transform="scale(0.015625)"/>
      <path d="M 425 2959 
L 281 3816 
L 281 4581 
L 922 4581 
L 922 3816 
L 772 2959 
L 425 2959 
z
" id="ArialMT-27" transform="scale(0.015625)"/>
      <path d="M 288 1472 
L 859 1522 
Q 900 1178 1048 958 
Q 1197 738 1509 602 
Q 1822 466 2213 466 
Q 2559 466 2825 569 
Q 3091 672 3220 851 
Q 3350 1031 3350 1244 
Q 3350 1459 3225 1620 
Q 3100 1781 2813 1891 
Q 2628 1963 1997 2114 
Q 1366 2266 1113 2400 
Q 784 2572 623 2826 
Q 463 3081 463 3397 
Q 463 3744 659 4045 
Q 856 4347 1234 4503 
Q 1613 4659 2075 4659 
Q 2584 4659 2973 4495 
Q 3363 4331 3572 4012 
Q 3781 3694 3797 3291 
L 3216 3247 
Q 3169 3681 2898 3903 
Q 2628 4125 2100 4125 
Q 1550 4125 1298 3923 
Q 1047 3722 1047 3438 
Q 1047 3191 1225 3031 
Q 1400 2872 2139 2705 
Q 2878 2538 3153 2413 
Q 3553 2228 3743 1945 
Q 3934 1663 3934 1294 
Q 3934 928 3725 604 
Q 3516 281 3123 101 
Q 2731 -78 2241 -78 
Q 1619 -78 1198 103 
Q 778 284 539 648 
Q 300 1013 288 1472 
z
" id="ArialMT-53" transform="scale(0.015625)"/>
      <path d="M 1659 0 
L 1659 4041 
L 150 4041 
L 150 4581 
L 3781 4581 
L 3781 4041 
L 2266 4041 
L 2266 0 
L 1659 0 
z
" id="ArialMT-54" transform="scale(0.015625)"/>
      <path d="M 506 0 
L 506 4581 
L 3819 4581 
L 3819 4041 
L 1113 4041 
L 1113 2638 
L 3647 2638 
L 3647 2100 
L 1113 2100 
L 1113 541 
L 3925 541 
L 3925 0 
L 506 0 
z
" id="ArialMT-45" transform="scale(0.015625)"/>
      <path d="M 475 0 
L 475 4581 
L 1388 4581 
L 2472 1338 
Q 2622 884 2691 659 
Q 2769 909 2934 1394 
L 4031 4581 
L 4847 4581 
L 4847 0 
L 4263 0 
L 4263 3834 
L 2931 0 
L 2384 0 
L 1059 3900 
L 1059 0 
L 475 0 
z
" id="ArialMT-4d" transform="scale(0.015625)"/>
     </defs>
     <use xlink:href="#ArialMT-43"/>
     <use x="72.216797" xlink:href="#ArialMT-6f"/>
     <use x="127.832031" xlink:href="#ArialMT-75"/>
     <use x="183.447266" xlink:href="#ArialMT-6e"/>
     <use x="239.0625" xlink:href="#ArialMT-74"/>
     <use x="266.845703" xlink:href="#ArialMT-72"/>
     <use x="300.146484" xlink:href="#ArialMT-79"/>
     <use x="350.146484" xlink:href="#ArialMT-20"/>
     <use x="377.929688" xlink:href="#ArialMT-76"/>
     <use x="427.929688" xlink:href="#ArialMT-61"/>
     <use x="483.544922" xlink:href="#ArialMT-72"/>
     <use x="516.845703" xlink:href="#ArialMT-69"/>
     <use x="539.0625" xlink:href="#ArialMT-61"/>
     <use x="594.677734" xlink:href="#ArialMT-62"/>
     <use x="650.292969" xlink:href="#ArialMT-6c"/>
     <use x="672.509766" xlink:href="#ArialMT-65"/>
     <use x="728.125" xlink:href="#ArialMT-20"/>
     <use x="755.908203" xlink:href="#ArialMT-2192"/>
     <use x="855.908203" xlink:href="#ArialMT-20"/>
     <use x="883.691406" xlink:href="#ArialMT-57"/>
     <use x="976.326172" xlink:href="#ArialMT-6f"/>
     <use x="1031.941406" xlink:href="#ArialMT-6d"/>
     <use x="1115.242188" xlink:href="#ArialMT-65"/>
     <use x="1170.857422" xlink:href="#ArialMT-6e"/>
     <use x="1226.472656" xlink:href="#ArialMT-27"/>
     <use x="1245.564453" xlink:href="#ArialMT-73"/>
     <use x="1295.564453" xlink:href="#ArialMT-20"/>
     <use x="1323.347656" xlink:href="#ArialMT-53"/>
     <use x="1390.046875" xlink:href="#ArialMT-54"/>
     <use x="1451.130859" xlink:href="#ArialMT-45"/>
     <use x="1517.830078" xlink:href="#ArialMT-4d"/>
     <use x="1601.130859" xlink:href="#ArialMT-20"/>
     <use x="1628.914062" xlink:href="#ArialMT-70"/>
     <use x="1684.529297" xlink:href="#ArialMT-72"/>
     <use x="1717.830078" xlink:href="#ArialMT-6f"/>
     <use x="1773.445312" xlink:href="#ArialMT-70"/>
     <use x="1829.060547" xlink:href="#ArialMT-65"/>
     <use x="1884.675781" xlink:href="#ArialMT-6e"/>
     <use x="1940.291016" xlink:href="#ArialMT-73"/>
     <use x="1990.291016" xlink:href="#ArialMT-69"/>
     <use x="2012.507812" xlink:href="#ArialMT-74"/>
     <use x="2040.291016" xlink:href="#ArialMT-79"/>
    </g>
   </g>
   <g id="legend_1"/>
  </g>
  <g id="text_14">
   <!-- dynomight.net -->
   <g style="fill:#808080;opacity:0.5;" transform="translate(489.6 211.68)scale(0.06 -0.06)">
    <defs>
     <path d="M 2681 3053 
L 2681 4863 
L 3256 4863 
L 3256 0 
L 2681 0 
L 2681 441 
Q 2538 181 2298 45 
Q 2059 -91 1747 -91 
Q 1113 -91 748 401 
Q 384 894 384 1759 
Q 384 2613 750 3098 
Q 1116 3584 1747 3584 
Q 2063 3584 2303 3448 
Q 2544 3313 2681 3053 
z
M 991 1747 
Q 991 1078 1203 737 
Q 1416 397 1831 397 
Q 2247 397 2464 740 
Q 2681 1084 2681 1747 
Q 2681 2413 2464 2755 
Q 2247 3097 1831 3097 
Q 1416 3097 1203 2756 
Q 991 2416 991 1747 
z
" id="DejaVuSansMono-64" transform="scale(0.015625)"/>
     <path d="M 2681 1125 
Q 2538 759 2316 163 
Q 2006 -663 1900 -844 
Q 1756 -1088 1540 -1209 
Q 1325 -1331 1038 -1331 
L 575 -1331 
L 575 -850 
L 916 -850 
Q 1169 -850 1312 -703 
Q 1456 -556 1678 56 
L 325 3500 
L 934 3500 
L 1972 763 
L 2994 3500 
L 3603 3500 
L 2681 1125 
z
" id="DejaVuSansMono-79" transform="scale(0.015625)"/>
     <path d="M 3284 2169 
L 3284 0 
L 2706 0 
L 2706 2169 
Q 2706 2641 2540 2862 
Q 2375 3084 2022 3084 
Q 1619 3084 1401 2798 
Q 1184 2513 1184 1978 
L 1184 0 
L 609 0 
L 609 3500 
L 1184 3500 
L 1184 2975 
Q 1338 3275 1600 3429 
Q 1863 3584 2222 3584 
Q 2756 3584 3020 3232 
Q 3284 2881 3284 2169 
z
" id="DejaVuSansMono-6e" transform="scale(0.015625)"/>
     <path d="M 1925 3097 
Q 1488 3097 1263 2756 
Q 1038 2416 1038 1747 
Q 1038 1081 1263 739 
Q 1488 397 1925 397 
Q 2366 397 2591 739 
Q 2816 1081 2816 1747 
Q 2816 2416 2591 2756 
Q 2366 3097 1925 3097 
z
M 1925 3584 
Q 2653 3584 3039 3112 
Q 3425 2641 3425 1747 
Q 3425 850 3040 379 
Q 2656 -91 1925 -91 
Q 1197 -91 812 379 
Q 428 850 428 1747 
Q 428 2641 812 3112 
Q 1197 3584 1925 3584 
z
" id="DejaVuSansMono-6f" transform="scale(0.015625)"/>
     <path d="M 2113 3144 
Q 2219 3369 2383 3476 
Q 2547 3584 2778 3584 
Q 3200 3584 3373 3257 
Q 3547 2931 3547 2028 
L 3547 0 
L 3022 0 
L 3022 2003 
Q 3022 2744 2939 2923 
Q 2856 3103 2638 3103 
Q 2388 3103 2295 2911 
Q 2203 2719 2203 2003 
L 2203 0 
L 1678 0 
L 1678 2003 
Q 1678 2753 1589 2928 
Q 1500 3103 1269 3103 
Q 1041 3103 952 2911 
Q 863 2719 863 2003 
L 863 0 
L 341 0 
L 341 3500 
L 863 3500 
L 863 3200 
Q 966 3388 1120 3486 
Q 1275 3584 1472 3584 
Q 1709 3584 1867 3475 
Q 2025 3366 2113 3144 
z
" id="DejaVuSansMono-6d" transform="scale(0.015625)"/>
     <path d="M 800 3500 
L 2272 3500 
L 2272 447 
L 3413 447 
L 3413 0 
L 556 0 
L 556 447 
L 1697 447 
L 1697 3053 
L 800 3053 
L 800 3500 
z
M 1697 4863 
L 2272 4863 
L 2272 4134 
L 1697 4134 
L 1697 4863 
z
" id="DejaVuSansMono-69" transform="scale(0.015625)"/>
     <path d="M 2681 1778 
Q 2681 2425 2470 2761 
Q 2259 3097 1856 3097 
Q 1434 3097 1212 2761 
Q 991 2425 991 1778 
Q 991 1131 1214 792 
Q 1438 453 1863 453 
Q 2259 453 2470 793 
Q 2681 1134 2681 1778 
z
M 3256 225 
Q 3256 -563 2884 -969 
Q 2513 -1375 1791 -1375 
Q 1553 -1375 1293 -1331 
Q 1034 -1288 775 -1203 
L 775 -634 
Q 1081 -778 1331 -847 
Q 1581 -916 1791 -916 
Q 2256 -916 2468 -662 
Q 2681 -409 2681 141 
L 2681 166 
L 2681 556 
Q 2544 263 2306 119 
Q 2069 -25 1728 -25 
Q 1116 -25 750 465 
Q 384 956 384 1778 
Q 384 2603 750 3093 
Q 1116 3584 1728 3584 
Q 2066 3584 2300 3450 
Q 2534 3316 2681 3034 
L 2681 3488 
L 3256 3488 
L 3256 225 
z
" id="DejaVuSansMono-67" transform="scale(0.015625)"/>
     <path d="M 3284 2169 
L 3284 0 
L 2706 0 
L 2706 2169 
Q 2706 2641 2540 2862 
Q 2375 3084 2022 3084 
Q 1619 3084 1401 2798 
Q 1184 2513 1184 1978 
L 1184 0 
L 609 0 
L 609 4863 
L 1184 4863 
L 1184 2975 
Q 1338 3275 1600 3429 
Q 1863 3584 2222 3584 
Q 2756 3584 3020 3232 
Q 3284 2881 3284 2169 
z
" id="DejaVuSansMono-68" transform="scale(0.015625)"/>
     <path d="M 1919 4494 
L 1919 3500 
L 3225 3500 
L 3225 3053 
L 1919 3053 
L 1919 1153 
Q 1919 766 2066 612 
Q 2213 459 2578 459 
L 3225 459 
L 3225 0 
L 2522 0 
Q 1875 0 1609 259 
Q 1344 519 1344 1153 
L 1344 3053 
L 409 3053 
L 409 3500 
L 1344 3500 
L 1344 4494 
L 1919 4494 
z
" id="DejaVuSansMono-74" transform="scale(0.015625)"/>
     <path d="M 1528 953 
L 2316 953 
L 2316 0 
L 1528 0 
L 1528 953 
z
" id="DejaVuSansMono-2e" transform="scale(0.015625)"/>
     <path d="M 3475 1894 
L 3475 1613 
L 984 1613 
L 984 1594 
Q 984 1022 1282 709 
Q 1581 397 2125 397 
Q 2400 397 2700 484 
Q 3000 572 3341 750 
L 3341 178 
Q 3013 44 2708 -23 
Q 2403 -91 2119 -91 
Q 1303 -91 843 398 
Q 384 888 384 1747 
Q 384 2584 834 3084 
Q 1284 3584 2034 3584 
Q 2703 3584 3089 3131 
Q 3475 2678 3475 1894 
z
M 2900 2063 
Q 2888 2569 2661 2833 
Q 2434 3097 2009 3097 
Q 1594 3097 1325 2822 
Q 1056 2547 1006 2059 
L 2900 2063 
z
" id="DejaVuSansMono-65" transform="scale(0.015625)"/>
    </defs>
    <use xlink:href="#DejaVuSansMono-64"/>
    <use x="60.205078" xlink:href="#DejaVuSansMono-79"/>
    <use x="120.410156" xlink:href="#DejaVuSansMono-6e"/>
    <use x="180.615234" xlink:href="#DejaVuSansMono-6f"/>
    <use x="240.820312" xlink:href="#DejaVuSansMono-6d"/>
    <use x="301.025391" xlink:href="#DejaVuSansMono-69"/>
    <use x="361.230469" xlink:href="#DejaVuSansMono-67"/>
    <use x="421.435547" xlink:href="#DejaVuSansMono-68"/>
    <use x="481.640625" xlink:href="#DejaVuSansMono-74"/>
    <use x="541.845703" xlink:href="#DejaVuSansMono-2e"/>
    <use x="602.050781" xlink:href="#DejaVuSansMono-6e"/>
    <use x="662.255859" xlink:href="#DejaVuSansMono-65"/>
    <use x="722.460938" xlink:href="#DejaVuSansMono-74"/>
   </g>
  </g>
  <g id="text_15">
   <!-- Coefficients from "Gender stereotypes can explain the gender-equality paradox", Breda et al, 2014. (Table S5) -->
   <g style="fill:#808080;opacity:0.7;" transform="translate(11.52 211.68)scale(0.05 -0.05)">
    <defs>
     <path d="M 3353 166 
Q 3113 38 2859 -26 
Q 2606 -91 2322 -91 
Q 1425 -91 929 543 
Q 434 1178 434 2328 
Q 434 3472 932 4111 
Q 1431 4750 2322 4750 
Q 2606 4750 2859 4686 
Q 3113 4622 3353 4494 
L 3353 3847 
Q 3122 4038 2856 4138 
Q 2591 4238 2322 4238 
Q 1706 4238 1400 3763 
Q 1094 3288 1094 2328 
Q 1094 1372 1400 897 
Q 1706 422 2322 422 
Q 2597 422 2861 522 
Q 3125 622 3353 813 
L 3353 166 
z
" id="DejaVuSansMono-43" transform="scale(0.015625)"/>
     <path d="M 3322 4863 
L 3322 4384 
L 2669 4384 
Q 2359 4384 2239 4257 
Q 2119 4131 2119 3809 
L 2119 3500 
L 3322 3500 
L 3322 3053 
L 2119 3053 
L 2119 0 
L 1544 0 
L 1544 3053 
L 609 3053 
L 609 3500 
L 1544 3500 
L 1544 3744 
Q 1544 4319 1808 4591 
Q 2072 4863 2631 4863 
L 3322 4863 
z
" id="DejaVuSansMono-66" transform="scale(0.015625)"/>
     <path d="M 3316 178 
Q 3084 44 2839 -23 
Q 2594 -91 2338 -91 
Q 1525 -91 1067 396 
Q 609 884 609 1747 
Q 609 2609 1067 3096 
Q 1525 3584 2338 3584 
Q 2591 3584 2831 3518 
Q 3072 3453 3316 3316 
L 3316 2713 
Q 3088 2916 2858 3006 
Q 2628 3097 2338 3097 
Q 1797 3097 1506 2747 
Q 1216 2397 1216 1747 
Q 1216 1100 1508 748 
Q 1800 397 2338 397 
Q 2638 397 2875 489 
Q 3113 581 3316 775 
L 3316 178 
z
" id="DejaVuSansMono-63" transform="scale(0.015625)"/>
     <path d="M 3041 3378 
L 3041 2816 
Q 2794 2959 2544 3031 
Q 2294 3103 2034 3103 
Q 1644 3103 1451 2976 
Q 1259 2850 1259 2591 
Q 1259 2356 1403 2240 
Q 1547 2125 2119 2016 
L 2350 1972 
Q 2778 1891 2998 1647 
Q 3219 1403 3219 1013 
Q 3219 494 2850 201 
Q 2481 -91 1825 -91 
Q 1566 -91 1281 -36 
Q 997 19 666 128 
L 666 722 
Q 988 556 1281 473 
Q 1575 391 1838 391 
Q 2219 391 2428 545 
Q 2638 700 2638 978 
Q 2638 1378 1872 1531 
L 1847 1538 
L 1631 1581 
Q 1134 1678 906 1908 
Q 678 2138 678 2534 
Q 678 3038 1018 3311 
Q 1359 3584 1991 3584 
Q 2272 3584 2531 3532 
Q 2791 3481 3041 3378 
z
" id="DejaVuSansMono-73" transform="scale(0.015625)"/>
     <path id="DejaVuSansMono-20" transform="scale(0.015625)"/>
     <path d="M 3609 2778 
Q 3425 2922 3234 2987 
Q 3044 3053 2816 3053 
Q 2278 3053 1993 2715 
Q 1709 2378 1709 1741 
L 1709 0 
L 1131 0 
L 1131 3500 
L 1709 3500 
L 1709 2816 
Q 1853 3188 2151 3386 
Q 2450 3584 2859 3584 
Q 3072 3584 3256 3531 
Q 3441 3478 3609 3366 
L 3609 2778 
z
" id="DejaVuSansMono-72" transform="scale(0.015625)"/>
     <path d="M 2797 4666 
L 2797 2931 
L 2253 2931 
L 2253 4666 
L 2797 4666 
z
M 1600 4666 
L 1600 2931 
L 1056 2931 
L 1056 4666 
L 1600 4666 
z
" id="DejaVuSansMono-22" transform="scale(0.015625)"/>
     <path d="M 3450 384 
Q 3197 150 2880 29 
Q 2563 -91 2194 -91 
Q 1306 -91 812 545 
Q 319 1181 319 2328 
Q 319 3472 819 4111 
Q 1319 4750 2209 4750 
Q 2503 4750 2772 4667 
Q 3041 4584 3291 4416 
L 3291 3769 
Q 3038 4009 2772 4123 
Q 2506 4238 2209 4238 
Q 1594 4238 1286 3761 
Q 978 3284 978 2328 
Q 978 1356 1276 889 
Q 1575 422 2194 422 
Q 2403 422 2561 470 
Q 2719 519 2847 622 
L 2847 1875 
L 2169 1875 
L 2169 2394 
L 3450 2394 
L 3450 384 
z
" id="DejaVuSansMono-47" transform="scale(0.015625)"/>
     <path d="M 1172 441 
L 1172 -1331 
L 594 -1331 
L 594 3500 
L 1172 3500 
L 1172 3053 
Q 1316 3313 1555 3448 
Q 1794 3584 2106 3584 
Q 2741 3584 3102 3093 
Q 3463 2603 3463 1734 
Q 3463 881 3100 395 
Q 2738 -91 2106 -91 
Q 1788 -91 1548 45 
Q 1309 181 1172 441 
z
M 2859 1747 
Q 2859 2416 2648 2756 
Q 2438 3097 2022 3097 
Q 1603 3097 1387 2755 
Q 1172 2413 1172 1747 
Q 1172 1084 1387 740 
Q 1603 397 2022 397 
Q 2438 397 2648 737 
Q 2859 1078 2859 1747 
z
" id="DejaVuSansMono-70" transform="scale(0.015625)"/>
     <path d="M 2194 1759 
L 2003 1759 
Q 1500 1759 1245 1582 
Q 991 1406 991 1056 
Q 991 741 1181 566 
Q 1372 391 1709 391 
Q 2184 391 2456 720 
Q 2728 1050 2731 1631 
L 2731 1759 
L 2194 1759 
z
M 3309 1997 
L 3309 0 
L 2731 0 
L 2731 519 
Q 2547 206 2267 57 
Q 1988 -91 1588 -91 
Q 1053 -91 734 211 
Q 416 513 416 1019 
Q 416 1603 808 1906 
Q 1200 2209 1959 2209 
L 2731 2209 
L 2731 2300 
Q 2728 2719 2518 2908 
Q 2309 3097 1850 3097 
Q 1556 3097 1256 3012 
Q 956 2928 672 2766 
L 672 3341 
Q 991 3463 1283 3523 
Q 1575 3584 1850 3584 
Q 2284 3584 2592 3456 
Q 2900 3328 3091 3072 
Q 3209 2916 3259 2686 
Q 3309 2456 3309 1997 
z
" id="DejaVuSansMono-61" transform="scale(0.015625)"/>
     <path d="M 3494 3500 
L 2241 1825 
L 3616 0 
L 2950 0 
L 1925 1403 
L 903 0 
L 238 0 
L 1613 1825 
L 359 3500 
L 997 3500 
L 1925 2234 
L 2847 3500 
L 3494 3500 
z
" id="DejaVuSansMono-78" transform="scale(0.015625)"/>
     <path d="M 1997 1269 
Q 1997 881 2139 684 
Q 2281 488 2559 488 
L 3231 488 
L 3231 0 
L 2503 0 
Q 1988 0 1705 331 
Q 1422 663 1422 1269 
L 1422 4447 
L 500 4447 
L 500 4897 
L 1997 4897 
L 1997 1269 
z
" id="DejaVuSansMono-6c" transform="scale(0.015625)"/>
     <path d="M 1113 2009 
L 2741 2009 
L 2741 1497 
L 1113 1497 
L 1113 2009 
z
" id="DejaVuSansMono-2d" transform="scale(0.015625)"/>
     <path d="M 1038 1734 
Q 1038 1066 1248 725 
Q 1459 384 1875 384 
Q 2291 384 2505 726 
Q 2719 1069 2719 1734 
Q 2719 2400 2505 2742 
Q 2291 3084 1875 3084 
Q 1459 3084 1248 2743 
Q 1038 2403 1038 1734 
z
M 2719 434 
Q 2578 175 2339 36 
Q 2100 -103 1784 -103 
Q 1156 -103 792 383 
Q 428 869 428 1722 
Q 428 2591 790 3081 
Q 1153 3572 1784 3572 
Q 2097 3572 2336 3436 
Q 2575 3300 2719 3041 
L 2719 3488 
L 3297 3488 
L 3297 -1344 
L 2719 -1344 
L 2719 434 
z
" id="DejaVuSansMono-71" transform="scale(0.015625)"/>
     <path d="M 609 1325 
L 609 3494 
L 1184 3494 
L 1184 1325 
Q 1184 853 1351 631 
Q 1519 409 1869 409 
Q 2275 409 2490 695 
Q 2706 981 2706 1516 
L 2706 3494 
L 3284 3494 
L 3284 0 
L 2706 0 
L 2706 525 
Q 2553 222 2289 65 
Q 2025 -91 1672 -91 
Q 1134 -91 871 261 
Q 609 613 609 1325 
z
" id="DejaVuSansMono-75" transform="scale(0.015625)"/>
     <path d="M 1569 947 
L 2356 947 
L 2356 300 
L 1741 -897 
L 1259 -897 
L 1569 300 
L 1569 947 
z
" id="DejaVuSansMono-2c" transform="scale(0.015625)"/>
     <path d="M 1153 2228 
L 1153 519 
L 1900 519 
Q 2450 519 2684 711 
Q 2919 903 2919 1344 
Q 2919 1800 2672 2014 
Q 2425 2228 1900 2228 
L 1153 2228 
z
M 1153 4147 
L 1153 2741 
L 1888 2741 
Q 2344 2741 2548 2916 
Q 2753 3091 2753 3481 
Q 2753 3834 2551 3990 
Q 2350 4147 1888 4147 
L 1153 4147 
z
M 519 4666 
L 1900 4666 
Q 2616 4666 3003 4356 
Q 3391 4047 3391 3481 
Q 3391 3053 3186 2806 
Q 2981 2559 2572 2497 
Q 3031 2428 3292 2104 
Q 3553 1781 3553 1281 
Q 3553 647 3137 323 
Q 2722 0 1900 0 
L 519 0 
L 519 4666 
z
" id="DejaVuSansMono-42" transform="scale(0.015625)"/>
     <path d="M 1166 531 
L 3309 531 
L 3309 0 
L 475 0 
L 475 531 
Q 1059 1147 1496 1619 
Q 1934 2091 2100 2284 
Q 2413 2666 2522 2902 
Q 2631 3138 2631 3384 
Q 2631 3775 2401 3997 
Q 2172 4219 1772 4219 
Q 1488 4219 1175 4116 
Q 863 4013 513 3803 
L 513 4441 
Q 834 4594 1145 4672 
Q 1456 4750 1759 4750 
Q 2444 4750 2861 4386 
Q 3278 4022 3278 3431 
Q 3278 3131 3139 2831 
Q 3000 2531 2688 2169 
Q 2513 1966 2180 1606 
Q 1847 1247 1166 531 
z
" id="DejaVuSansMono-32" transform="scale(0.015625)"/>
     <path d="M 1509 2344 
Q 1509 2516 1629 2641 
Q 1750 2766 1919 2766 
Q 2094 2766 2219 2641 
Q 2344 2516 2344 2344 
Q 2344 2169 2220 2047 
Q 2097 1925 1919 1925 
Q 1744 1925 1626 2044 
Q 1509 2163 1509 2344 
z
M 1925 4250 
Q 1484 4250 1267 3775 
Q 1050 3300 1050 2328 
Q 1050 1359 1267 884 
Q 1484 409 1925 409 
Q 2369 409 2586 884 
Q 2803 1359 2803 2328 
Q 2803 3300 2586 3775 
Q 2369 4250 1925 4250 
z
M 1925 4750 
Q 2672 4750 3055 4137 
Q 3438 3525 3438 2328 
Q 3438 1134 3055 521 
Q 2672 -91 1925 -91 
Q 1178 -91 797 521 
Q 416 1134 416 2328 
Q 416 3525 797 4137 
Q 1178 4750 1925 4750 
z
" id="DejaVuSansMono-30" transform="scale(0.015625)"/>
     <path d="M 844 531 
L 1825 531 
L 1825 4097 
L 769 3859 
L 769 4434 
L 1819 4666 
L 2450 4666 
L 2450 531 
L 3419 531 
L 3419 0 
L 844 0 
L 844 531 
z
" id="DejaVuSansMono-31" transform="scale(0.015625)"/>
     <path d="M 2297 4091 
L 825 1625 
L 2297 1625 
L 2297 4091 
z
M 2194 4666 
L 2925 4666 
L 2925 1625 
L 3547 1625 
L 3547 1113 
L 2925 1113 
L 2925 0 
L 2297 0 
L 2297 1113 
L 319 1113 
L 319 1709 
L 2194 4666 
z
" id="DejaVuSansMono-34" transform="scale(0.015625)"/>
     <path d="M 2766 4856 
Q 2350 4144 2145 3436 
Q 1941 2728 1941 2009 
Q 1941 1294 2145 584 
Q 2350 -125 2766 -844 
L 2266 -844 
Q 1794 -100 1562 604 
Q 1331 1309 1331 2009 
Q 1331 2706 1562 3412 
Q 1794 4119 2266 4856 
L 2766 4856 
z
" id="DejaVuSansMono-28" transform="scale(0.015625)"/>
     <path d="M 147 4666 
L 3706 4666 
L 3706 4134 
L 2247 4134 
L 2247 0 
L 1613 0 
L 1613 4134 
L 147 4134 
L 147 4666 
z
" id="DejaVuSansMono-54" transform="scale(0.015625)"/>
     <path d="M 2869 1747 
Q 2869 2416 2656 2756 
Q 2444 3097 2028 3097 
Q 1609 3097 1393 2755 
Q 1178 2413 1178 1747 
Q 1178 1084 1393 740 
Q 1609 397 2028 397 
Q 2444 397 2656 737 
Q 2869 1078 2869 1747 
z
M 1178 3053 
Q 1316 3309 1558 3446 
Q 1800 3584 2119 3584 
Q 2750 3584 3112 3098 
Q 3475 2613 3475 1759 
Q 3475 894 3111 401 
Q 2747 -91 2113 -91 
Q 1800 -91 1561 45 
Q 1322 181 1178 441 
L 1178 0 
L 603 0 
L 603 4863 
L 1178 4863 
L 1178 3053 
z
" id="DejaVuSansMono-62" transform="scale(0.015625)"/>
     <path d="M 3163 4506 
L 3163 3866 
Q 2875 4050 2586 4144 
Q 2297 4238 2003 4238 
Q 1556 4238 1297 4030 
Q 1038 3822 1038 3469 
Q 1038 3159 1208 2996 
Q 1378 2834 1844 2725 
L 2175 2650 
Q 2831 2497 3131 2169 
Q 3431 1841 3431 1275 
Q 3431 609 3018 259 
Q 2606 -91 1819 -91 
Q 1491 -91 1159 -20 
Q 828 50 494 191 
L 494 863 
Q 853 634 1173 528 
Q 1494 422 1819 422 
Q 2297 422 2562 636 
Q 2828 850 2828 1234 
Q 2828 1584 2645 1768 
Q 2463 1953 2009 2053 
L 1672 2131 
Q 1022 2278 728 2575 
Q 434 2872 434 3372 
Q 434 3997 854 4373 
Q 1275 4750 1972 4750 
Q 2241 4750 2537 4689 
Q 2834 4628 3163 4506 
z
" id="DejaVuSansMono-53" transform="scale(0.015625)"/>
     <path d="M 647 4666 
L 3009 4666 
L 3009 4134 
L 1222 4134 
L 1222 2988 
Q 1356 3038 1492 3061 
Q 1628 3084 1766 3084 
Q 2491 3084 2916 2656 
Q 3341 2228 3341 1497 
Q 3341 759 2895 334 
Q 2450 -91 1678 -91 
Q 1306 -91 998 -41 
Q 691 9 447 109 
L 447 750 
Q 734 594 1025 517 
Q 1316 441 1619 441 
Q 2141 441 2423 716 
Q 2706 991 2706 1497 
Q 2706 1997 2414 2275 
Q 2122 2553 1600 2553 
Q 1347 2553 1106 2495 
Q 866 2438 647 2322 
L 647 4666 
z
" id="DejaVuSansMono-35" transform="scale(0.015625)"/>
     <path d="M 1088 4856 
L 1588 4856 
Q 2059 4119 2290 3412 
Q 2522 2706 2522 2009 
Q 2522 1306 2290 600 
Q 2059 -106 1588 -844 
L 1088 -844 
Q 1503 -119 1708 590 
Q 1913 1300 1913 2009 
Q 1913 2722 1708 3431 
Q 1503 4141 1088 4856 
z
" id="DejaVuSansMono-29" transform="scale(0.015625)"/>
    </defs>
    <use xlink:href="#DejaVuSansMono-43"/>
    <use x="60.205078" xlink:href="#DejaVuSansMono-6f"/>
    <use x="120.410156" xlink:href="#DejaVuSansMono-65"/>
    <use x="180.615234" xlink:href="#DejaVuSansMono-66"/>
    <use x="240.820312" xlink:href="#DejaVuSansMono-66"/>
    <use x="301.025391" xlink:href="#DejaVuSansMono-69"/>
    <use x="361.230469" xlink:href="#DejaVuSansMono-63"/>
    <use x="421.435547" xlink:href="#DejaVuSansMono-69"/>
    <use x="481.640625" xlink:href="#DejaVuSansMono-65"/>
    <use x="541.845703" xlink:href="#DejaVuSansMono-6e"/>
    <use x="602.050781" xlink:href="#DejaVuSansMono-74"/>
    <use x="662.255859" xlink:href="#DejaVuSansMono-73"/>
    <use x="722.460938" xlink:href="#DejaVuSansMono-20"/>
    <use x="782.666016" xlink:href="#DejaVuSansMono-66"/>
    <use x="842.871094" xlink:href="#DejaVuSansMono-72"/>
    <use x="903.076172" xlink:href="#DejaVuSansMono-6f"/>
    <use x="963.28125" xlink:href="#DejaVuSansMono-6d"/>
    <use x="1023.486328" xlink:href="#DejaVuSansMono-20"/>
    <use x="1083.691406" xlink:href="#DejaVuSansMono-22"/>
    <use x="1143.896484" xlink:href="#DejaVuSansMono-47"/>
    <use x="1204.101562" xlink:href="#DejaVuSansMono-65"/>
    <use x="1264.306641" xlink:href="#DejaVuSansMono-6e"/>
    <use x="1324.511719" xlink:href="#DejaVuSansMono-64"/>
    <use x="1384.716797" xlink:href="#DejaVuSansMono-65"/>
    <use x="1444.921875" xlink:href="#DejaVuSansMono-72"/>
    <use x="1505.126953" xlink:href="#DejaVuSansMono-20"/>
    <use x="1565.332031" xlink:href="#DejaVuSansMono-73"/>
    <use x="1625.537109" xlink:href="#DejaVuSansMono-74"/>
    <use x="1685.742188" xlink:href="#DejaVuSansMono-65"/>
    <use x="1745.947266" xlink:href="#DejaVuSansMono-72"/>
    <use x="1806.152344" xlink:href="#DejaVuSansMono-65"/>
    <use x="1866.357422" xlink:href="#DejaVuSansMono-6f"/>
    <use x="1926.5625" xlink:href="#DejaVuSansMono-74"/>
    <use x="1986.767578" xlink:href="#DejaVuSansMono-79"/>
    <use x="2046.972656" xlink:href="#DejaVuSansMono-70"/>
    <use x="2107.177734" xlink:href="#DejaVuSansMono-65"/>
    <use x="2167.382812" xlink:href="#DejaVuSansMono-73"/>
    <use x="2227.587891" xlink:href="#DejaVuSansMono-20"/>
    <use x="2287.792969" xlink:href="#DejaVuSansMono-63"/>
    <use x="2347.998047" xlink:href="#DejaVuSansMono-61"/>
    <use x="2408.203125" xlink:href="#DejaVuSansMono-6e"/>
    <use x="2468.408203" xlink:href="#DejaVuSansMono-20"/>
    <use x="2528.613281" xlink:href="#DejaVuSansMono-65"/>
    <use x="2588.818359" xlink:href="#DejaVuSansMono-78"/>
    <use x="2649.023438" xlink:href="#DejaVuSansMono-70"/>
    <use x="2709.228516" xlink:href="#DejaVuSansMono-6c"/>
    <use x="2769.433594" xlink:href="#DejaVuSansMono-61"/>
    <use x="2829.638672" xlink:href="#DejaVuSansMono-69"/>
    <use x="2889.84375" xlink:href="#DejaVuSansMono-6e"/>
    <use x="2950.048828" xlink:href="#DejaVuSansMono-20"/>
    <use x="3010.253906" xlink:href="#DejaVuSansMono-74"/>
    <use x="3070.458984" xlink:href="#DejaVuSansMono-68"/>
    <use x="3130.664062" xlink:href="#DejaVuSansMono-65"/>
    <use x="3190.869141" xlink:href="#DejaVuSansMono-20"/>
    <use x="3251.074219" xlink:href="#DejaVuSansMono-67"/>
    <use x="3311.279297" xlink:href="#DejaVuSansMono-65"/>
    <use x="3371.484375" xlink:href="#DejaVuSansMono-6e"/>
    <use x="3431.689453" xlink:href="#DejaVuSansMono-64"/>
    <use x="3491.894531" xlink:href="#DejaVuSansMono-65"/>
    <use x="3552.099609" xlink:href="#DejaVuSansMono-72"/>
    <use x="3612.304688" xlink:href="#DejaVuSansMono-2d"/>
    <use x="3672.509766" xlink:href="#DejaVuSansMono-65"/>
    <use x="3732.714844" xlink:href="#DejaVuSansMono-71"/>
    <use x="3792.919922" xlink:href="#DejaVuSansMono-75"/>
    <use x="3853.125" xlink:href="#DejaVuSansMono-61"/>
    <use x="3913.330078" xlink:href="#DejaVuSansMono-6c"/>
    <use x="3973.535156" xlink:href="#DejaVuSansMono-69"/>
    <use x="4033.740234" xlink:href="#DejaVuSansMono-74"/>
    <use x="4093.945312" xlink:href="#DejaVuSansMono-79"/>
    <use x="4154.150391" xlink:href="#DejaVuSansMono-20"/>
    <use x="4214.355469" xlink:href="#DejaVuSansMono-70"/>
    <use x="4274.560547" xlink:href="#DejaVuSansMono-61"/>
    <use x="4334.765625" xlink:href="#DejaVuSansMono-72"/>
    <use x="4394.970703" xlink:href="#DejaVuSansMono-61"/>
    <use x="4455.175781" xlink:href="#DejaVuSansMono-64"/>
    <use x="4515.380859" xlink:href="#DejaVuSansMono-6f"/>
    <use x="4575.585938" xlink:href="#DejaVuSansMono-78"/>
    <use x="4635.791016" xlink:href="#DejaVuSansMono-22"/>
    <use x="4695.996094" xlink:href="#DejaVuSansMono-2c"/>
    <use x="4756.201172" xlink:href="#DejaVuSansMono-20"/>
    <use x="4816.40625" xlink:href="#DejaVuSansMono-42"/>
    <use x="4876.611328" xlink:href="#DejaVuSansMono-72"/>
    <use x="4936.816406" xlink:href="#DejaVuSansMono-65"/>
    <use x="4997.021484" xlink:href="#DejaVuSansMono-64"/>
    <use x="5057.226562" xlink:href="#DejaVuSansMono-61"/>
    <use x="5117.431641" xlink:href="#DejaVuSansMono-20"/>
    <use x="5177.636719" xlink:href="#DejaVuSansMono-65"/>
    <use x="5237.841797" xlink:href="#DejaVuSansMono-74"/>
    <use x="5298.046875" xlink:href="#DejaVuSansMono-20"/>
    <use x="5358.251953" xlink:href="#DejaVuSansMono-61"/>
    <use x="5418.457031" xlink:href="#DejaVuSansMono-6c"/>
    <use x="5478.662109" xlink:href="#DejaVuSansMono-2c"/>
    <use x="5538.867188" xlink:href="#DejaVuSansMono-20"/>
    <use x="5599.072266" xlink:href="#DejaVuSansMono-32"/>
    <use x="5659.277344" xlink:href="#DejaVuSansMono-30"/>
    <use x="5719.482422" xlink:href="#DejaVuSansMono-31"/>
    <use x="5779.6875" xlink:href="#DejaVuSansMono-34"/>
    <use x="5839.892578" xlink:href="#DejaVuSansMono-2e"/>
    <use x="5900.097656" xlink:href="#DejaVuSansMono-20"/>
    <use x="5960.302734" xlink:href="#DejaVuSansMono-28"/>
    <use x="6020.507812" xlink:href="#DejaVuSansMono-54"/>
    <use x="6080.712891" xlink:href="#DejaVuSansMono-61"/>
    <use x="6140.917969" xlink:href="#DejaVuSansMono-62"/>
    <use x="6201.123047" xlink:href="#DejaVuSansMono-6c"/>
    <use x="6261.328125" xlink:href="#DejaVuSansMono-65"/>
    <use x="6321.533203" xlink:href="#DejaVuSansMono-20"/>
    <use x="6381.738281" xlink:href="#DejaVuSansMono-53"/>
    <use x="6441.943359" xlink:href="#DejaVuSansMono-35"/>
    <use x="6502.148438" xlink:href="#DejaVuSansMono-29"/>
   </g>
  </g>
 </g>
 <defs>
  <clipPath id="p88232f3a2b">
   <rect height="151.2" width="518.4" x="51.84" y="21.6"/>
  </clipPath>
 </defs>
</svg>
