<?xml version="1.0" encoding="utf-8" standalone="no"?>
<!DOCTYPE svg PUBLIC "-//W3C//DTD SVG 1.1//EN"
  "http://www.w3.org/Graphics/SVG/1.1/DTD/svg11.dtd">
<svg height="306.4245pt" version="1.1" viewBox="0 0 401.160901 306.4245" width="401.160901pt" xmlns="http://www.w3.org/2000/svg" xmlns:xlink="http://www.w3.org/1999/xlink">
 <metadata>
  <rdf:RDF xmlns:cc="http://creativecommons.org/ns#" xmlns:dc="http://purl.org/dc/elements/1.1/" xmlns:rdf="http://www.w3.org/1999/02/22-rdf-syntax-ns#">
   <cc:Work>
    <dc:type rdf:resource="http://purl.org/dc/dcmitype/StillImage"/>
    <dc:date>2021-07-01T15:58:44.733452</dc:date>
    <dc:format>image/svg+xml</dc:format>
    <dc:creator>
     <cc:Agent>
      <dc:title>Matplotlib v3.4.1, https://matplotlib.org/</dc:title>
     </cc:Agent>
    </dc:creator>
   </cc:Work>
  </rdf:RDF>
 </metadata>
 <defs>
  <style type="text/css">*{stroke-linecap:butt;stroke-linejoin:round;}</style>
 </defs>
 <g id="figure_1">
  <g id="patch_1">
   <path d="M 0 306.4245 
L 401.160901 306.4245 
L 401.160901 0 
L 0 0 
z
" style="fill:#ffffff;"/>
  </g>
  <g id="axes_1">
   <g id="patch_2">
    <path d="M 35.20625 273.312 
L 392.32625 273.312 
L 392.32625 7.2 
L 35.20625 7.2 
z
" style="fill:#ffffff;"/>
   </g>
   <g id="matplotlib.axis_1">
    <g id="xtick_1">
     <g id="line2d_1"/>
     <g id="text_1">
      <!-- 0 -->
      <g style="fill:#262626;" transform="translate(42.474202 283.969812)scale(0.1 -0.1)">
       <defs>
        <path d="M 266 2259 
Q 266 3072 433 3567 
Q 600 4063 929 4331 
Q 1259 4600 1759 4600 
Q 2128 4600 2406 4451 
Q 2684 4303 2865 4023 
Q 3047 3744 3150 3342 
Q 3253 2941 3253 2259 
Q 3253 1453 3087 958 
Q 2922 463 2592 192 
Q 2263 -78 1759 -78 
Q 1097 -78 719 397 
Q 266 969 266 2259 
z
M 844 2259 
Q 844 1131 1108 757 
Q 1372 384 1759 384 
Q 2147 384 2411 759 
Q 2675 1134 2675 2259 
Q 2675 3391 2411 3762 
Q 2147 4134 1753 4134 
Q 1366 4134 1134 3806 
Q 844 3388 844 2259 
z
" id="ArialMT-30" transform="scale(0.015625)"/>
       </defs>
       <use xlink:href="#ArialMT-30"/>
      </g>
     </g>
    </g>
    <g id="xtick_2">
     <g id="line2d_2"/>
     <g id="text_2">
      <!-- 10000 -->
      <g style="fill:#262626;" transform="translate(79.181454 283.969812)scale(0.1 -0.1)">
       <defs>
        <path d="M 2384 0 
L 1822 0 
L 1822 3584 
Q 1619 3391 1289 3197 
Q 959 3003 697 2906 
L 697 3450 
Q 1169 3672 1522 3987 
Q 1875 4303 2022 4600 
L 2384 4600 
L 2384 0 
z
" id="ArialMT-31" transform="scale(0.015625)"/>
       </defs>
       <use xlink:href="#ArialMT-31"/>
       <use x="55.615234" xlink:href="#ArialMT-30"/>
       <use x="111.230469" xlink:href="#ArialMT-30"/>
       <use x="166.845703" xlink:href="#ArialMT-30"/>
       <use x="222.460938" xlink:href="#ArialMT-30"/>
      </g>
     </g>
    </g>
    <g id="xtick_3">
     <g id="line2d_3"/>
     <g id="text_3">
      <!-- 20000 -->
      <g style="fill:#262626;" transform="translate(127.010581 283.969812)scale(0.1 -0.1)">
       <defs>
        <path d="M 3222 541 
L 3222 0 
L 194 0 
Q 188 203 259 391 
Q 375 700 629 1000 
Q 884 1300 1366 1694 
Q 2113 2306 2375 2664 
Q 2638 3022 2638 3341 
Q 2638 3675 2398 3904 
Q 2159 4134 1775 4134 
Q 1369 4134 1125 3890 
Q 881 3647 878 3216 
L 300 3275 
Q 359 3922 746 4261 
Q 1134 4600 1788 4600 
Q 2447 4600 2831 4234 
Q 3216 3869 3216 3328 
Q 3216 3053 3103 2787 
Q 2991 2522 2730 2228 
Q 2469 1934 1863 1422 
Q 1356 997 1212 845 
Q 1069 694 975 541 
L 3222 541 
z
" id="ArialMT-32" transform="scale(0.015625)"/>
       </defs>
       <use xlink:href="#ArialMT-32"/>
       <use x="55.615234" xlink:href="#ArialMT-30"/>
       <use x="111.230469" xlink:href="#ArialMT-30"/>
       <use x="166.845703" xlink:href="#ArialMT-30"/>
       <use x="222.460938" xlink:href="#ArialMT-30"/>
      </g>
     </g>
    </g>
    <g id="xtick_4">
     <g id="line2d_4"/>
     <g id="text_4">
      <!-- 30000 -->
      <g style="fill:#262626;" transform="translate(174.839707 283.969812)scale(0.1 -0.1)">
       <defs>
        <path d="M 269 1209 
L 831 1284 
Q 928 806 1161 595 
Q 1394 384 1728 384 
Q 2125 384 2398 659 
Q 2672 934 2672 1341 
Q 2672 1728 2419 1979 
Q 2166 2231 1775 2231 
Q 1616 2231 1378 2169 
L 1441 2663 
Q 1497 2656 1531 2656 
Q 1891 2656 2178 2843 
Q 2466 3031 2466 3422 
Q 2466 3731 2256 3934 
Q 2047 4138 1716 4138 
Q 1388 4138 1169 3931 
Q 950 3725 888 3313 
L 325 3413 
Q 428 3978 793 4289 
Q 1159 4600 1703 4600 
Q 2078 4600 2393 4439 
Q 2709 4278 2876 4000 
Q 3044 3722 3044 3409 
Q 3044 3113 2884 2869 
Q 2725 2625 2413 2481 
Q 2819 2388 3044 2092 
Q 3269 1797 3269 1353 
Q 3269 753 2831 336 
Q 2394 -81 1725 -81 
Q 1122 -81 723 278 
Q 325 638 269 1209 
z
" id="ArialMT-33" transform="scale(0.015625)"/>
       </defs>
       <use xlink:href="#ArialMT-33"/>
       <use x="55.615234" xlink:href="#ArialMT-30"/>
       <use x="111.230469" xlink:href="#ArialMT-30"/>
       <use x="166.845703" xlink:href="#ArialMT-30"/>
       <use x="222.460938" xlink:href="#ArialMT-30"/>
      </g>
     </g>
    </g>
    <g id="xtick_5">
     <g id="line2d_5"/>
     <g id="text_5">
      <!-- 40000 -->
      <g style="fill:#262626;" transform="translate(222.668834 283.969812)scale(0.1 -0.1)">
       <defs>
        <path d="M 2069 0 
L 2069 1097 
L 81 1097 
L 81 1613 
L 2172 4581 
L 2631 4581 
L 2631 1613 
L 3250 1613 
L 3250 1097 
L 2631 1097 
L 2631 0 
L 2069 0 
z
M 2069 1613 
L 2069 3678 
L 634 1613 
L 2069 1613 
z
" id="ArialMT-34" transform="scale(0.015625)"/>
       </defs>
       <use xlink:href="#ArialMT-34"/>
       <use x="55.615234" xlink:href="#ArialMT-30"/>
       <use x="111.230469" xlink:href="#ArialMT-30"/>
       <use x="166.845703" xlink:href="#ArialMT-30"/>
       <use x="222.460938" xlink:href="#ArialMT-30"/>
      </g>
     </g>
    </g>
    <g id="xtick_6">
     <g id="line2d_6"/>
     <g id="text_6">
      <!-- 50000 -->
      <g style="fill:#262626;" transform="translate(270.49796 283.969812)scale(0.1 -0.1)">
       <defs>
        <path d="M 266 1200 
L 856 1250 
Q 922 819 1161 601 
Q 1400 384 1738 384 
Q 2144 384 2425 690 
Q 2706 997 2706 1503 
Q 2706 1984 2436 2262 
Q 2166 2541 1728 2541 
Q 1456 2541 1237 2417 
Q 1019 2294 894 2097 
L 366 2166 
L 809 4519 
L 3088 4519 
L 3088 3981 
L 1259 3981 
L 1013 2750 
Q 1425 3038 1878 3038 
Q 2478 3038 2890 2622 
Q 3303 2206 3303 1553 
Q 3303 931 2941 478 
Q 2500 -78 1738 -78 
Q 1113 -78 717 272 
Q 322 622 266 1200 
z
" id="ArialMT-35" transform="scale(0.015625)"/>
       </defs>
       <use xlink:href="#ArialMT-35"/>
       <use x="55.615234" xlink:href="#ArialMT-30"/>
       <use x="111.230469" xlink:href="#ArialMT-30"/>
       <use x="166.845703" xlink:href="#ArialMT-30"/>
       <use x="222.460938" xlink:href="#ArialMT-30"/>
      </g>
     </g>
    </g>
    <g id="xtick_7">
     <g id="line2d_7"/>
     <g id="text_7">
      <!-- 60000 -->
      <g style="fill:#262626;" transform="translate(318.327087 283.969812)scale(0.1 -0.1)">
       <defs>
        <path d="M 3184 3459 
L 2625 3416 
Q 2550 3747 2413 3897 
Q 2184 4138 1850 4138 
Q 1581 4138 1378 3988 
Q 1113 3794 959 3422 
Q 806 3050 800 2363 
Q 1003 2672 1297 2822 
Q 1591 2972 1913 2972 
Q 2475 2972 2870 2558 
Q 3266 2144 3266 1488 
Q 3266 1056 3080 686 
Q 2894 316 2569 119 
Q 2244 -78 1831 -78 
Q 1128 -78 684 439 
Q 241 956 241 2144 
Q 241 3472 731 4075 
Q 1159 4600 1884 4600 
Q 2425 4600 2770 4297 
Q 3116 3994 3184 3459 
z
M 888 1484 
Q 888 1194 1011 928 
Q 1134 663 1356 523 
Q 1578 384 1822 384 
Q 2178 384 2434 671 
Q 2691 959 2691 1453 
Q 2691 1928 2437 2201 
Q 2184 2475 1800 2475 
Q 1419 2475 1153 2201 
Q 888 1928 888 1484 
z
" id="ArialMT-36" transform="scale(0.015625)"/>
       </defs>
       <use xlink:href="#ArialMT-36"/>
       <use x="55.615234" xlink:href="#ArialMT-30"/>
       <use x="111.230469" xlink:href="#ArialMT-30"/>
       <use x="166.845703" xlink:href="#ArialMT-30"/>
       <use x="222.460938" xlink:href="#ArialMT-30"/>
      </g>
     </g>
    </g>
    <g id="xtick_8">
     <g id="line2d_8"/>
     <g id="text_8">
      <!-- 70000 -->
      <g style="fill:#262626;" transform="translate(366.156214 283.969812)scale(0.1 -0.1)">
       <defs>
        <path d="M 303 3981 
L 303 4522 
L 3269 4522 
L 3269 4084 
Q 2831 3619 2401 2847 
Q 1972 2075 1738 1259 
Q 1569 684 1522 0 
L 944 0 
Q 953 541 1156 1306 
Q 1359 2072 1739 2783 
Q 2119 3494 2547 3981 
L 303 3981 
z
" id="ArialMT-37" transform="scale(0.015625)"/>
       </defs>
       <use xlink:href="#ArialMT-37"/>
       <use x="55.615234" xlink:href="#ArialMT-30"/>
       <use x="111.230469" xlink:href="#ArialMT-30"/>
       <use x="166.845703" xlink:href="#ArialMT-30"/>
       <use x="222.460938" xlink:href="#ArialMT-30"/>
      </g>
     </g>
    </g>
    <g id="text_9">
     <!-- GDP per capita -->
     <g style="fill:#262626;" transform="translate(179.673281 297.237)scale(0.1 -0.1)">
      <defs>
       <path d="M 2638 1797 
L 2638 2334 
L 4578 2338 
L 4578 638 
Q 4131 281 3656 101 
Q 3181 -78 2681 -78 
Q 2006 -78 1454 211 
Q 903 500 622 1047 
Q 341 1594 341 2269 
Q 341 2938 620 3517 
Q 900 4097 1425 4378 
Q 1950 4659 2634 4659 
Q 3131 4659 3532 4498 
Q 3934 4338 4162 4050 
Q 4391 3763 4509 3300 
L 3963 3150 
Q 3859 3500 3706 3700 
Q 3553 3900 3268 4020 
Q 2984 4141 2638 4141 
Q 2222 4141 1919 4014 
Q 1616 3888 1430 3681 
Q 1244 3475 1141 3228 
Q 966 2803 966 2306 
Q 966 1694 1177 1281 
Q 1388 869 1791 669 
Q 2194 469 2647 469 
Q 3041 469 3416 620 
Q 3791 772 3984 944 
L 3984 1797 
L 2638 1797 
z
" id="ArialMT-47" transform="scale(0.015625)"/>
       <path d="M 494 0 
L 494 4581 
L 2072 4581 
Q 2606 4581 2888 4516 
Q 3281 4425 3559 4188 
Q 3922 3881 4101 3404 
Q 4281 2928 4281 2316 
Q 4281 1794 4159 1391 
Q 4038 988 3847 723 
Q 3656 459 3429 307 
Q 3203 156 2883 78 
Q 2563 0 2147 0 
L 494 0 
z
M 1100 541 
L 2078 541 
Q 2531 541 2789 625 
Q 3047 709 3200 863 
Q 3416 1078 3536 1442 
Q 3656 1806 3656 2325 
Q 3656 3044 3420 3430 
Q 3184 3816 2847 3947 
Q 2603 4041 2063 4041 
L 1100 4041 
L 1100 541 
z
" id="ArialMT-44" transform="scale(0.015625)"/>
       <path d="M 494 0 
L 494 4581 
L 2222 4581 
Q 2678 4581 2919 4538 
Q 3256 4481 3484 4323 
Q 3713 4166 3852 3881 
Q 3991 3597 3991 3256 
Q 3991 2672 3619 2267 
Q 3247 1863 2275 1863 
L 1100 1863 
L 1100 0 
L 494 0 
z
M 1100 2403 
L 2284 2403 
Q 2872 2403 3119 2622 
Q 3366 2841 3366 3238 
Q 3366 3525 3220 3729 
Q 3075 3934 2838 4000 
Q 2684 4041 2272 4041 
L 1100 4041 
L 1100 2403 
z
" id="ArialMT-50" transform="scale(0.015625)"/>
       <path id="ArialMT-20" transform="scale(0.015625)"/>
       <path d="M 422 -1272 
L 422 3319 
L 934 3319 
L 934 2888 
Q 1116 3141 1344 3267 
Q 1572 3394 1897 3394 
Q 2322 3394 2647 3175 
Q 2972 2956 3137 2557 
Q 3303 2159 3303 1684 
Q 3303 1175 3120 767 
Q 2938 359 2589 142 
Q 2241 -75 1856 -75 
Q 1575 -75 1351 44 
Q 1128 163 984 344 
L 984 -1272 
L 422 -1272 
z
M 931 1641 
Q 931 1000 1190 694 
Q 1450 388 1819 388 
Q 2194 388 2461 705 
Q 2728 1022 2728 1688 
Q 2728 2322 2467 2637 
Q 2206 2953 1844 2953 
Q 1484 2953 1207 2617 
Q 931 2281 931 1641 
z
" id="ArialMT-70" transform="scale(0.015625)"/>
       <path d="M 2694 1069 
L 3275 997 
Q 3138 488 2766 206 
Q 2394 -75 1816 -75 
Q 1088 -75 661 373 
Q 234 822 234 1631 
Q 234 2469 665 2931 
Q 1097 3394 1784 3394 
Q 2450 3394 2872 2941 
Q 3294 2488 3294 1666 
Q 3294 1616 3291 1516 
L 816 1516 
Q 847 969 1125 678 
Q 1403 388 1819 388 
Q 2128 388 2347 550 
Q 2566 713 2694 1069 
z
M 847 1978 
L 2700 1978 
Q 2663 2397 2488 2606 
Q 2219 2931 1791 2931 
Q 1403 2931 1139 2672 
Q 875 2413 847 1978 
z
" id="ArialMT-65" transform="scale(0.015625)"/>
       <path d="M 416 0 
L 416 3319 
L 922 3319 
L 922 2816 
Q 1116 3169 1280 3281 
Q 1444 3394 1641 3394 
Q 1925 3394 2219 3213 
L 2025 2691 
Q 1819 2813 1613 2813 
Q 1428 2813 1281 2702 
Q 1134 2591 1072 2394 
Q 978 2094 978 1738 
L 978 0 
L 416 0 
z
" id="ArialMT-72" transform="scale(0.015625)"/>
       <path d="M 2588 1216 
L 3141 1144 
Q 3050 572 2676 248 
Q 2303 -75 1759 -75 
Q 1078 -75 664 370 
Q 250 816 250 1647 
Q 250 2184 428 2587 
Q 606 2991 970 3192 
Q 1334 3394 1763 3394 
Q 2303 3394 2647 3120 
Q 2991 2847 3088 2344 
L 2541 2259 
Q 2463 2594 2264 2762 
Q 2066 2931 1784 2931 
Q 1359 2931 1093 2626 
Q 828 2322 828 1663 
Q 828 994 1084 691 
Q 1341 388 1753 388 
Q 2084 388 2306 591 
Q 2528 794 2588 1216 
z
" id="ArialMT-63" transform="scale(0.015625)"/>
       <path d="M 2588 409 
Q 2275 144 1986 34 
Q 1697 -75 1366 -75 
Q 819 -75 525 192 
Q 231 459 231 875 
Q 231 1119 342 1320 
Q 453 1522 633 1644 
Q 813 1766 1038 1828 
Q 1203 1872 1538 1913 
Q 2219 1994 2541 2106 
Q 2544 2222 2544 2253 
Q 2544 2597 2384 2738 
Q 2169 2928 1744 2928 
Q 1347 2928 1158 2789 
Q 969 2650 878 2297 
L 328 2372 
Q 403 2725 575 2942 
Q 747 3159 1072 3276 
Q 1397 3394 1825 3394 
Q 2250 3394 2515 3294 
Q 2781 3194 2906 3042 
Q 3031 2891 3081 2659 
Q 3109 2516 3109 2141 
L 3109 1391 
Q 3109 606 3145 398 
Q 3181 191 3288 0 
L 2700 0 
Q 2613 175 2588 409 
z
M 2541 1666 
Q 2234 1541 1622 1453 
Q 1275 1403 1131 1340 
Q 988 1278 909 1158 
Q 831 1038 831 891 
Q 831 666 1001 516 
Q 1172 366 1500 366 
Q 1825 366 2078 508 
Q 2331 650 2450 897 
Q 2541 1088 2541 1459 
L 2541 1666 
z
" id="ArialMT-61" transform="scale(0.015625)"/>
       <path d="M 425 3934 
L 425 4581 
L 988 4581 
L 988 3934 
L 425 3934 
z
M 425 0 
L 425 3319 
L 988 3319 
L 988 0 
L 425 0 
z
" id="ArialMT-69" transform="scale(0.015625)"/>
       <path d="M 1650 503 
L 1731 6 
Q 1494 -44 1306 -44 
Q 1000 -44 831 53 
Q 663 150 594 308 
Q 525 466 525 972 
L 525 2881 
L 113 2881 
L 113 3319 
L 525 3319 
L 525 4141 
L 1084 4478 
L 1084 3319 
L 1650 3319 
L 1650 2881 
L 1084 2881 
L 1084 941 
Q 1084 700 1114 631 
Q 1144 563 1211 522 
Q 1278 481 1403 481 
Q 1497 481 1650 503 
z
" id="ArialMT-74" transform="scale(0.015625)"/>
      </defs>
      <use xlink:href="#ArialMT-47"/>
      <use x="77.783203" xlink:href="#ArialMT-44"/>
      <use x="150" xlink:href="#ArialMT-50"/>
      <use x="214.949219" xlink:href="#ArialMT-20"/>
      <use x="242.732422" xlink:href="#ArialMT-70"/>
      <use x="298.347656" xlink:href="#ArialMT-65"/>
      <use x="353.962891" xlink:href="#ArialMT-72"/>
      <use x="387.263672" xlink:href="#ArialMT-20"/>
      <use x="415.046875" xlink:href="#ArialMT-63"/>
      <use x="465.046875" xlink:href="#ArialMT-61"/>
      <use x="520.662109" xlink:href="#ArialMT-70"/>
      <use x="576.277344" xlink:href="#ArialMT-69"/>
      <use x="598.494141" xlink:href="#ArialMT-74"/>
      <use x="626.277344" xlink:href="#ArialMT-61"/>
     </g>
    </g>
   </g>
   <g id="matplotlib.axis_2">
    <g id="ytick_1">
     <g id="line2d_9"/>
     <g id="text_10">
      <!-- 10 -->
      <g style="fill:#262626;" transform="translate(20.584375 238.705494)scale(0.1 -0.1)">
       <use xlink:href="#ArialMT-31"/>
       <use x="55.615234" xlink:href="#ArialMT-30"/>
      </g>
     </g>
    </g>
    <g id="ytick_2">
     <g id="line2d_10"/>
     <g id="text_11">
      <!-- 20 -->
      <g style="fill:#262626;" transform="translate(20.584375 199.176083)scale(0.1 -0.1)">
       <use xlink:href="#ArialMT-32"/>
       <use x="55.615234" xlink:href="#ArialMT-30"/>
      </g>
     </g>
    </g>
    <g id="ytick_3">
     <g id="line2d_11"/>
     <g id="text_12">
      <!-- 30 -->
      <g style="fill:#262626;" transform="translate(20.584375 159.646671)scale(0.1 -0.1)">
       <use xlink:href="#ArialMT-33"/>
       <use x="55.615234" xlink:href="#ArialMT-30"/>
      </g>
     </g>
    </g>
    <g id="ytick_4">
     <g id="line2d_12"/>
     <g id="text_13">
      <!-- 40 -->
      <g style="fill:#262626;" transform="translate(20.584375 120.117259)scale(0.1 -0.1)">
       <use xlink:href="#ArialMT-34"/>
       <use x="55.615234" xlink:href="#ArialMT-30"/>
      </g>
     </g>
    </g>
    <g id="ytick_5">
     <g id="line2d_13"/>
     <g id="text_14">
      <!-- 50 -->
      <g style="fill:#262626;" transform="translate(20.584375 80.587847)scale(0.1 -0.1)">
       <use xlink:href="#ArialMT-35"/>
       <use x="55.615234" xlink:href="#ArialMT-30"/>
      </g>
     </g>
    </g>
    <g id="ytick_6">
     <g id="line2d_14"/>
     <g id="text_15">
      <!-- 60 -->
      <g style="fill:#262626;" transform="translate(20.584375 41.058436)scale(0.1 -0.1)">
       <use xlink:href="#ArialMT-36"/>
       <use x="55.615234" xlink:href="#ArialMT-30"/>
      </g>
     </g>
    </g>
    <g id="text_16">
     <!-- female share of engineering grads -->
     <g style="fill:#262626;" transform="translate(14.479688 216.131)rotate(-90)scale(0.1 -0.1)">
      <defs>
       <path d="M 556 0 
L 556 2881 
L 59 2881 
L 59 3319 
L 556 3319 
L 556 3672 
Q 556 4006 616 4169 
Q 697 4388 901 4523 
Q 1106 4659 1475 4659 
Q 1713 4659 2000 4603 
L 1916 4113 
Q 1741 4144 1584 4144 
Q 1328 4144 1222 4034 
Q 1116 3925 1116 3625 
L 1116 3319 
L 1763 3319 
L 1763 2881 
L 1116 2881 
L 1116 0 
L 556 0 
z
" id="ArialMT-66" transform="scale(0.015625)"/>
       <path d="M 422 0 
L 422 3319 
L 925 3319 
L 925 2853 
Q 1081 3097 1340 3245 
Q 1600 3394 1931 3394 
Q 2300 3394 2536 3241 
Q 2772 3088 2869 2813 
Q 3263 3394 3894 3394 
Q 4388 3394 4653 3120 
Q 4919 2847 4919 2278 
L 4919 0 
L 4359 0 
L 4359 2091 
Q 4359 2428 4304 2576 
Q 4250 2725 4106 2815 
Q 3963 2906 3769 2906 
Q 3419 2906 3187 2673 
Q 2956 2441 2956 1928 
L 2956 0 
L 2394 0 
L 2394 2156 
Q 2394 2531 2256 2718 
Q 2119 2906 1806 2906 
Q 1569 2906 1367 2781 
Q 1166 2656 1075 2415 
Q 984 2175 984 1722 
L 984 0 
L 422 0 
z
" id="ArialMT-6d" transform="scale(0.015625)"/>
       <path d="M 409 0 
L 409 4581 
L 972 4581 
L 972 0 
L 409 0 
z
" id="ArialMT-6c" transform="scale(0.015625)"/>
       <path d="M 197 991 
L 753 1078 
Q 800 744 1014 566 
Q 1228 388 1613 388 
Q 2000 388 2187 545 
Q 2375 703 2375 916 
Q 2375 1106 2209 1216 
Q 2094 1291 1634 1406 
Q 1016 1563 777 1677 
Q 538 1791 414 1992 
Q 291 2194 291 2438 
Q 291 2659 392 2848 
Q 494 3038 669 3163 
Q 800 3259 1026 3326 
Q 1253 3394 1513 3394 
Q 1903 3394 2198 3281 
Q 2494 3169 2634 2976 
Q 2775 2784 2828 2463 
L 2278 2388 
Q 2241 2644 2061 2787 
Q 1881 2931 1553 2931 
Q 1166 2931 1000 2803 
Q 834 2675 834 2503 
Q 834 2394 903 2306 
Q 972 2216 1119 2156 
Q 1203 2125 1616 2013 
Q 2213 1853 2448 1751 
Q 2684 1650 2818 1456 
Q 2953 1263 2953 975 
Q 2953 694 2789 445 
Q 2625 197 2315 61 
Q 2006 -75 1616 -75 
Q 969 -75 630 194 
Q 291 463 197 991 
z
" id="ArialMT-73" transform="scale(0.015625)"/>
       <path d="M 422 0 
L 422 4581 
L 984 4581 
L 984 2938 
Q 1378 3394 1978 3394 
Q 2347 3394 2619 3248 
Q 2891 3103 3008 2847 
Q 3125 2591 3125 2103 
L 3125 0 
L 2563 0 
L 2563 2103 
Q 2563 2525 2380 2717 
Q 2197 2909 1863 2909 
Q 1613 2909 1392 2779 
Q 1172 2650 1078 2428 
Q 984 2206 984 1816 
L 984 0 
L 422 0 
z
" id="ArialMT-68" transform="scale(0.015625)"/>
       <path d="M 213 1659 
Q 213 2581 725 3025 
Q 1153 3394 1769 3394 
Q 2453 3394 2887 2945 
Q 3322 2497 3322 1706 
Q 3322 1066 3130 698 
Q 2938 331 2570 128 
Q 2203 -75 1769 -75 
Q 1072 -75 642 372 
Q 213 819 213 1659 
z
M 791 1659 
Q 791 1022 1069 705 
Q 1347 388 1769 388 
Q 2188 388 2466 706 
Q 2744 1025 2744 1678 
Q 2744 2294 2464 2611 
Q 2184 2928 1769 2928 
Q 1347 2928 1069 2612 
Q 791 2297 791 1659 
z
" id="ArialMT-6f" transform="scale(0.015625)"/>
       <path d="M 422 0 
L 422 3319 
L 928 3319 
L 928 2847 
Q 1294 3394 1984 3394 
Q 2284 3394 2536 3286 
Q 2788 3178 2913 3003 
Q 3038 2828 3088 2588 
Q 3119 2431 3119 2041 
L 3119 0 
L 2556 0 
L 2556 2019 
Q 2556 2363 2490 2533 
Q 2425 2703 2258 2804 
Q 2091 2906 1866 2906 
Q 1506 2906 1245 2678 
Q 984 2450 984 1813 
L 984 0 
L 422 0 
z
" id="ArialMT-6e" transform="scale(0.015625)"/>
       <path d="M 319 -275 
L 866 -356 
Q 900 -609 1056 -725 
Q 1266 -881 1628 -881 
Q 2019 -881 2231 -725 
Q 2444 -569 2519 -288 
Q 2563 -116 2559 434 
Q 2191 0 1641 0 
Q 956 0 581 494 
Q 206 988 206 1678 
Q 206 2153 378 2554 
Q 550 2956 876 3175 
Q 1203 3394 1644 3394 
Q 2231 3394 2613 2919 
L 2613 3319 
L 3131 3319 
L 3131 450 
Q 3131 -325 2973 -648 
Q 2816 -972 2473 -1159 
Q 2131 -1347 1631 -1347 
Q 1038 -1347 672 -1080 
Q 306 -813 319 -275 
z
M 784 1719 
Q 784 1066 1043 766 
Q 1303 466 1694 466 
Q 2081 466 2343 764 
Q 2606 1063 2606 1700 
Q 2606 2309 2336 2618 
Q 2066 2928 1684 2928 
Q 1309 2928 1046 2623 
Q 784 2319 784 1719 
z
" id="ArialMT-67" transform="scale(0.015625)"/>
       <path d="M 2575 0 
L 2575 419 
Q 2259 -75 1647 -75 
Q 1250 -75 917 144 
Q 584 363 401 755 
Q 219 1147 219 1656 
Q 219 2153 384 2558 
Q 550 2963 881 3178 
Q 1213 3394 1622 3394 
Q 1922 3394 2156 3267 
Q 2391 3141 2538 2938 
L 2538 4581 
L 3097 4581 
L 3097 0 
L 2575 0 
z
M 797 1656 
Q 797 1019 1065 703 
Q 1334 388 1700 388 
Q 2069 388 2326 689 
Q 2584 991 2584 1609 
Q 2584 2291 2321 2609 
Q 2059 2928 1675 2928 
Q 1300 2928 1048 2622 
Q 797 2316 797 1656 
z
" id="ArialMT-64" transform="scale(0.015625)"/>
      </defs>
      <use xlink:href="#ArialMT-66"/>
      <use x="27.783203" xlink:href="#ArialMT-65"/>
      <use x="83.398438" xlink:href="#ArialMT-6d"/>
      <use x="166.699219" xlink:href="#ArialMT-61"/>
      <use x="222.314453" xlink:href="#ArialMT-6c"/>
      <use x="244.53125" xlink:href="#ArialMT-65"/>
      <use x="300.146484" xlink:href="#ArialMT-20"/>
      <use x="327.929688" xlink:href="#ArialMT-73"/>
      <use x="377.929688" xlink:href="#ArialMT-68"/>
      <use x="433.544922" xlink:href="#ArialMT-61"/>
      <use x="489.160156" xlink:href="#ArialMT-72"/>
      <use x="522.460938" xlink:href="#ArialMT-65"/>
      <use x="578.076172" xlink:href="#ArialMT-20"/>
      <use x="605.859375" xlink:href="#ArialMT-6f"/>
      <use x="661.474609" xlink:href="#ArialMT-66"/>
      <use x="689.257812" xlink:href="#ArialMT-20"/>
      <use x="717.041016" xlink:href="#ArialMT-65"/>
      <use x="772.65625" xlink:href="#ArialMT-6e"/>
      <use x="828.271484" xlink:href="#ArialMT-67"/>
      <use x="883.886719" xlink:href="#ArialMT-69"/>
      <use x="906.103516" xlink:href="#ArialMT-6e"/>
      <use x="961.71875" xlink:href="#ArialMT-65"/>
      <use x="1017.333984" xlink:href="#ArialMT-65"/>
      <use x="1072.949219" xlink:href="#ArialMT-72"/>
      <use x="1106.25" xlink:href="#ArialMT-69"/>
      <use x="1128.466797" xlink:href="#ArialMT-6e"/>
      <use x="1184.082031" xlink:href="#ArialMT-67"/>
      <use x="1239.697266" xlink:href="#ArialMT-20"/>
      <use x="1267.480469" xlink:href="#ArialMT-67"/>
      <use x="1323.095703" xlink:href="#ArialMT-72"/>
      <use x="1356.396484" xlink:href="#ArialMT-61"/>
      <use x="1412.011719" xlink:href="#ArialMT-64"/>
      <use x="1467.626953" xlink:href="#ArialMT-73"/>
     </g>
    </g>
   </g>
   <g id="PolyCollection_1">
    <path clip-path="url(#pf4f58a4647)" d="M 51.438977 160.066917 
L 51.438977 199.984898 
L 54.685523 198.051862 
L 57.932068 196.136475 
L 61.178614 194.136001 
L 64.425159 192.129953 
L 67.671705 189.955801 
L 70.91825 187.782688 
L 74.164795 185.872828 
L 77.411341 183.746579 
L 80.657886 181.807056 
L 83.904432 179.93343 
L 87.150977 178.230903 
L 90.397523 176.769454 
L 93.644068 175.201768 
L 96.890614 173.744199 
L 100.137159 172.426099 
L 103.383705 170.99885 
L 106.63025 169.548088 
L 109.876795 168.141395 
L 113.123341 166.685469 
L 116.369886 165.672223 
L 119.616432 164.661909 
L 122.862977 163.681151 
L 126.109523 162.426133 
L 129.356068 161.209274 
L 132.602614 160.204262 
L 135.849159 159.757399 
L 139.095705 159.85777 
L 142.34225 159.933037 
L 145.588795 160.442595 
L 148.835341 160.45747 
L 152.081886 160.157194 
L 155.328432 160.245907 
L 158.574977 160.551406 
L 161.821523 160.895646 
L 165.068068 161.285088 
L 168.314614 161.673206 
L 171.561159 162.164684 
L 174.807705 162.849173 
L 178.05425 163.41374 
L 181.300795 163.84456 
L 184.547341 164.116571 
L 187.793886 164.62555 
L 191.040432 165.124131 
L 194.286977 165.40051 
L 197.533523 165.888286 
L 200.780068 166.217655 
L 204.026614 166.468272 
L 207.273159 166.953365 
L 210.519705 167.391687 
L 213.76625 167.818706 
L 217.012795 168.300046 
L 220.259341 168.661522 
L 223.505886 168.950807 
L 226.752432 169.281599 
L 229.998977 169.657078 
L 233.245523 170.213116 
L 236.492068 170.6613 
L 239.738614 171.14413 
L 242.985159 171.800288 
L 246.231705 172.330674 
L 249.47825 173.057441 
L 252.724795 173.560337 
L 255.971341 174.226251 
L 259.217886 174.991178 
L 262.464432 175.822987 
L 265.710977 176.648571 
L 268.957523 177.301824 
L 272.204068 177.943361 
L 275.450614 178.598292 
L 278.697159 179.312933 
L 281.943705 180.028859 
L 285.19025 180.803088 
L 288.436795 181.474338 
L 291.683341 182.282359 
L 294.929886 183.111622 
L 298.176432 183.939303 
L 301.422977 184.76524 
L 304.669523 185.544328 
L 307.916068 186.263719 
L 311.162614 186.981389 
L 314.409159 187.725441 
L 317.655705 188.504635 
L 320.90225 189.282461 
L 324.148795 190.058845 
L 327.395341 190.855596 
L 330.641886 191.749415 
L 333.888432 192.643861 
L 337.134977 193.458949 
L 340.381523 194.218897 
L 343.628068 195.050935 
L 346.874614 195.896875 
L 350.121159 196.761395 
L 353.367705 197.678413 
L 356.61425 198.49894 
L 359.860795 199.367536 
L 363.107341 200.23445 
L 366.353886 201.137886 
L 369.600432 202.066624 
L 372.846977 202.994917 
L 376.093523 203.925654 
L 376.093523 161.616611 
L 376.093523 161.616611 
L 372.846977 161.805974 
L 369.600432 161.960381 
L 366.353886 162.105558 
L 363.107341 162.240832 
L 359.860795 162.399259 
L 356.61425 162.556434 
L 353.367705 162.705828 
L 350.121159 162.846798 
L 346.874614 162.9695 
L 343.628068 163.021299 
L 340.381523 163.020971 
L 337.134977 162.937139 
L 333.888432 162.887327 
L 330.641886 162.882657 
L 327.395341 162.996115 
L 324.148795 162.969703 
L 320.90225 162.930956 
L 317.655705 162.865599 
L 314.409159 162.662299 
L 311.162614 162.321715 
L 307.916068 162.204509 
L 304.669523 162.251529 
L 301.422977 162.262348 
L 298.176432 162.274917 
L 294.929886 161.997635 
L 291.683341 161.71217 
L 288.436795 161.523965 
L 285.19025 161.380859 
L 281.943705 161.178039 
L 278.697159 160.817445 
L 275.450614 160.446399 
L 272.204068 160.159535 
L 268.957523 159.677294 
L 265.710977 159.553248 
L 262.464432 159.301936 
L 259.217886 158.856806 
L 255.971341 158.512171 
L 252.724795 158.018808 
L 249.47825 157.495378 
L 246.231705 157.115244 
L 242.985159 156.806722 
L 239.738614 156.459139 
L 236.492068 156.258918 
L 233.245523 156.054426 
L 229.998977 155.662776 
L 226.752432 155.232399 
L 223.505886 154.467053 
L 220.259341 153.847301 
L 217.012795 152.829521 
L 213.76625 152.075732 
L 210.519705 150.96189 
L 207.273159 150.037824 
L 204.026614 149.354594 
L 200.780068 149.193996 
L 197.533523 148.15454 
L 194.286977 147.81911 
L 191.040432 147.004527 
L 187.793886 146.125588 
L 184.547341 146.530152 
L 181.300795 146.200729 
L 178.05425 145.565218 
L 174.807705 145.066163 
L 171.561159 144.229308 
L 168.314614 144.025404 
L 165.068068 143.533068 
L 161.821523 142.948245 
L 158.574977 142.62364 
L 155.328432 142.586816 
L 152.081886 143.147003 
L 148.835341 143.605531 
L 145.588795 143.954486 
L 142.34225 144.328294 
L 139.095705 144.759633 
L 135.849159 145.406301 
L 132.602614 146.238854 
L 129.356068 146.994007 
L 126.109523 147.900094 
L 122.862977 148.966074 
L 119.616432 149.353537 
L 116.369886 149.956102 
L 113.123341 150.780717 
L 109.876795 151.626306 
L 106.63025 152.150582 
L 103.383705 153.101006 
L 100.137159 154.343722 
L 96.890614 155.623654 
L 93.644068 156.370802 
L 90.397523 157.450632 
L 87.150977 158.031221 
L 83.904432 158.642621 
L 80.657886 158.977878 
L 77.411341 159.10842 
L 74.164795 159.331956 
L 70.91825 159.228746 
L 67.671705 159.140662 
L 64.425159 159.140872 
L 61.178614 159.283367 
L 57.932068 159.705803 
L 54.685523 159.924662 
L 51.438977 160.066917 
z
" style="fill:#00008b;fill-opacity:0.15;"/>
   </g>
   <g id="text_17">
    <!-- Norway -->
    <g style="fill:#00008b;opacity:0.75;" transform="translate(378.366105 198.188978)scale(0.04 -0.04)">
     <defs>
      <path d="M 488 0 
L 488 4581 
L 1109 4581 
L 3516 984 
L 3516 4581 
L 4097 4581 
L 4097 0 
L 3475 0 
L 1069 3600 
L 1069 0 
L 488 0 
z
" id="ArialMT-4e" transform="scale(0.015625)"/>
      <path d="M 1034 0 
L 19 3319 
L 600 3319 
L 1128 1403 
L 1325 691 
Q 1338 744 1497 1375 
L 2025 3319 
L 2603 3319 
L 3100 1394 
L 3266 759 
L 3456 1400 
L 4025 3319 
L 4572 3319 
L 3534 0 
L 2950 0 
L 2422 1988 
L 2294 2553 
L 1622 0 
L 1034 0 
z
" id="ArialMT-77" transform="scale(0.015625)"/>
      <path d="M 397 -1278 
L 334 -750 
Q 519 -800 656 -800 
Q 844 -800 956 -737 
Q 1069 -675 1141 -563 
Q 1194 -478 1313 -144 
Q 1328 -97 1363 -6 
L 103 3319 
L 709 3319 
L 1400 1397 
Q 1534 1031 1641 628 
Q 1738 1016 1872 1384 
L 2581 3319 
L 3144 3319 
L 1881 -56 
Q 1678 -603 1566 -809 
Q 1416 -1088 1222 -1217 
Q 1028 -1347 759 -1347 
Q 597 -1347 397 -1278 
z
" id="ArialMT-79" transform="scale(0.015625)"/>
     </defs>
     <use xlink:href="#ArialMT-4e"/>
     <use x="72.216797" xlink:href="#ArialMT-6f"/>
     <use x="127.832031" xlink:href="#ArialMT-72"/>
     <use x="161.132812" xlink:href="#ArialMT-77"/>
     <use x="233.349609" xlink:href="#ArialMT-61"/>
     <use x="288.964844" xlink:href="#ArialMT-79"/>
    </g>
   </g>
   <g id="text_18">
    <!-- USA -->
    <g style="fill:#cd853f;opacity:0.75;" transform="translate(374.243234 202.560651)scale(0.04 -0.04)">
     <defs>
      <path d="M 3500 4581 
L 4106 4581 
L 4106 1934 
Q 4106 1244 3950 837 
Q 3794 431 3386 176 
Q 2978 -78 2316 -78 
Q 1672 -78 1262 144 
Q 853 366 678 786 
Q 503 1206 503 1934 
L 503 4581 
L 1109 4581 
L 1109 1938 
Q 1109 1341 1220 1058 
Q 1331 775 1601 622 
Q 1872 469 2263 469 
Q 2931 469 3215 772 
Q 3500 1075 3500 1938 
L 3500 4581 
z
" id="ArialMT-55" transform="scale(0.015625)"/>
      <path d="M 288 1472 
L 859 1522 
Q 900 1178 1048 958 
Q 1197 738 1509 602 
Q 1822 466 2213 466 
Q 2559 466 2825 569 
Q 3091 672 3220 851 
Q 3350 1031 3350 1244 
Q 3350 1459 3225 1620 
Q 3100 1781 2813 1891 
Q 2628 1963 1997 2114 
Q 1366 2266 1113 2400 
Q 784 2572 623 2826 
Q 463 3081 463 3397 
Q 463 3744 659 4045 
Q 856 4347 1234 4503 
Q 1613 4659 2075 4659 
Q 2584 4659 2973 4495 
Q 3363 4331 3572 4012 
Q 3781 3694 3797 3291 
L 3216 3247 
Q 3169 3681 2898 3903 
Q 2628 4125 2100 4125 
Q 1550 4125 1298 3923 
Q 1047 3722 1047 3438 
Q 1047 3191 1225 3031 
Q 1400 2872 2139 2705 
Q 2878 2538 3153 2413 
Q 3553 2228 3743 1945 
Q 3934 1663 3934 1294 
Q 3934 928 3725 604 
Q 3516 281 3123 101 
Q 2731 -78 2241 -78 
Q 1619 -78 1198 103 
Q 778 284 539 648 
Q 300 1013 288 1472 
z
" id="ArialMT-53" transform="scale(0.015625)"/>
      <path d="M -9 0 
L 1750 4581 
L 2403 4581 
L 4278 0 
L 3588 0 
L 3053 1388 
L 1138 1388 
L 634 0 
L -9 0 
z
M 1313 1881 
L 2866 1881 
L 2388 3150 
Q 2169 3728 2063 4100 
Q 1975 3659 1816 3225 
L 1313 1881 
z
" id="ArialMT-41" transform="scale(0.015625)"/>
     </defs>
     <use xlink:href="#ArialMT-55"/>
     <use x="72.216797" xlink:href="#ArialMT-53"/>
     <use x="138.916016" xlink:href="#ArialMT-41"/>
    </g>
   </g>
   <g id="text_19">
    <!-- Denmark -->
    <g style="fill:#00008b;opacity:0.75;" transform="translate(341.571157 136.151239)scale(0.04 -0.04)">
     <defs>
      <path d="M 425 0 
L 425 4581 
L 988 4581 
L 988 1969 
L 2319 3319 
L 3047 3319 
L 1778 2088 
L 3175 0 
L 2481 0 
L 1384 1697 
L 988 1316 
L 988 0 
L 425 0 
z
" id="ArialMT-6b" transform="scale(0.015625)"/>
     </defs>
     <use xlink:href="#ArialMT-44"/>
     <use x="72.216797" xlink:href="#ArialMT-65"/>
     <use x="127.832031" xlink:href="#ArialMT-6e"/>
     <use x="183.447266" xlink:href="#ArialMT-6d"/>
     <use x="266.748047" xlink:href="#ArialMT-61"/>
     <use x="322.363281" xlink:href="#ArialMT-72"/>
     <use x="355.664062" xlink:href="#ArialMT-6b"/>
    </g>
   </g>
   <g id="text_20">
    <!-- UnitedArabEmirates -->
    <g style="fill:#006400;opacity:0.75;" transform="translate(333.755878 152.753592)scale(0.04 -0.04)">
     <defs>
      <path d="M 941 0 
L 419 0 
L 419 4581 
L 981 4581 
L 981 2947 
Q 1338 3394 1891 3394 
Q 2197 3394 2470 3270 
Q 2744 3147 2920 2923 
Q 3097 2700 3197 2384 
Q 3297 2069 3297 1709 
Q 3297 856 2875 390 
Q 2453 -75 1863 -75 
Q 1275 -75 941 416 
L 941 0 
z
M 934 1684 
Q 934 1088 1097 822 
Q 1363 388 1816 388 
Q 2184 388 2453 708 
Q 2722 1028 2722 1663 
Q 2722 2313 2464 2622 
Q 2206 2931 1841 2931 
Q 1472 2931 1203 2611 
Q 934 2291 934 1684 
z
" id="ArialMT-62" transform="scale(0.015625)"/>
      <path d="M 506 0 
L 506 4581 
L 3819 4581 
L 3819 4041 
L 1113 4041 
L 1113 2638 
L 3647 2638 
L 3647 2100 
L 1113 2100 
L 1113 541 
L 3925 541 
L 3925 0 
L 506 0 
z
" id="ArialMT-45" transform="scale(0.015625)"/>
     </defs>
     <use xlink:href="#ArialMT-55"/>
     <use x="72.216797" xlink:href="#ArialMT-6e"/>
     <use x="127.832031" xlink:href="#ArialMT-69"/>
     <use x="150.048828" xlink:href="#ArialMT-74"/>
     <use x="177.832031" xlink:href="#ArialMT-65"/>
     <use x="233.447266" xlink:href="#ArialMT-64"/>
     <use x="289.0625" xlink:href="#ArialMT-41"/>
     <use x="355.761719" xlink:href="#ArialMT-72"/>
     <use x="389.0625" xlink:href="#ArialMT-61"/>
     <use x="444.677734" xlink:href="#ArialMT-62"/>
     <use x="500.292969" xlink:href="#ArialMT-45"/>
     <use x="566.992188" xlink:href="#ArialMT-6d"/>
     <use x="650.292969" xlink:href="#ArialMT-69"/>
     <use x="672.509766" xlink:href="#ArialMT-72"/>
     <use x="705.810547" xlink:href="#ArialMT-61"/>
     <use x="761.425781" xlink:href="#ArialMT-74"/>
     <use x="789.208984" xlink:href="#ArialMT-65"/>
     <use x="844.824219" xlink:href="#ArialMT-73"/>
    </g>
   </g>
   <g id="text_21">
    <!-- Austria -->
    <g style="fill:#00008b;opacity:0.75;" transform="translate(324.41485 191.88771)scale(0.04 -0.04)">
     <defs>
      <path d="M 2597 0 
L 2597 488 
Q 2209 -75 1544 -75 
Q 1250 -75 995 37 
Q 741 150 617 320 
Q 494 491 444 738 
Q 409 903 409 1263 
L 409 3319 
L 972 3319 
L 972 1478 
Q 972 1038 1006 884 
Q 1059 663 1231 536 
Q 1403 409 1656 409 
Q 1909 409 2131 539 
Q 2353 669 2445 892 
Q 2538 1116 2538 1541 
L 2538 3319 
L 3100 3319 
L 3100 0 
L 2597 0 
z
" id="ArialMT-75" transform="scale(0.015625)"/>
     </defs>
     <use xlink:href="#ArialMT-41"/>
     <use x="66.699219" xlink:href="#ArialMT-75"/>
     <use x="122.314453" xlink:href="#ArialMT-73"/>
     <use x="172.314453" xlink:href="#ArialMT-74"/>
     <use x="200.097656" xlink:href="#ArialMT-72"/>
     <use x="233.398438" xlink:href="#ArialMT-69"/>
     <use x="255.615234" xlink:href="#ArialMT-61"/>
    </g>
   </g>
   <g id="text_22">
    <!-- Sweden -->
    <g style="fill:#00008b;opacity:0.75;" transform="translate(313.294578 161.450063)scale(0.04 -0.04)">
     <use xlink:href="#ArialMT-53"/>
     <use x="66.699219" xlink:href="#ArialMT-77"/>
     <use x="138.916016" xlink:href="#ArialMT-65"/>
     <use x="194.53125" xlink:href="#ArialMT-64"/>
     <use x="250.146484" xlink:href="#ArialMT-65"/>
     <use x="305.761719" xlink:href="#ArialMT-6e"/>
    </g>
   </g>
   <g id="text_23">
    <!-- Finland -->
    <g style="fill:#00008b;opacity:0.75;" transform="translate(295.602584 189.911239)scale(0.04 -0.04)">
     <defs>
      <path d="M 525 0 
L 525 4581 
L 3616 4581 
L 3616 4041 
L 1131 4041 
L 1131 2622 
L 3281 2622 
L 3281 2081 
L 1131 2081 
L 1131 0 
L 525 0 
z
" id="ArialMT-46" transform="scale(0.015625)"/>
     </defs>
     <use xlink:href="#ArialMT-46"/>
     <use x="61.083984" xlink:href="#ArialMT-69"/>
     <use x="83.300781" xlink:href="#ArialMT-6e"/>
     <use x="138.916016" xlink:href="#ArialMT-6c"/>
     <use x="161.132812" xlink:href="#ArialMT-61"/>
     <use x="216.748047" xlink:href="#ArialMT-6e"/>
     <use x="272.363281" xlink:href="#ArialMT-64"/>
    </g>
   </g>
   <g id="text_24">
    <!-- Bahrain -->
    <g style="fill:#006400;opacity:0.75;" transform="translate(288.031233 166.588886)scale(0.04 -0.04)">
     <defs>
      <path d="M 469 0 
L 469 4581 
L 2188 4581 
Q 2713 4581 3030 4442 
Q 3347 4303 3526 4014 
Q 3706 3725 3706 3409 
Q 3706 3116 3547 2856 
Q 3388 2597 3066 2438 
Q 3481 2316 3704 2022 
Q 3928 1728 3928 1328 
Q 3928 1006 3792 729 
Q 3656 453 3456 303 
Q 3256 153 2954 76 
Q 2653 0 2216 0 
L 469 0 
z
M 1075 2656 
L 2066 2656 
Q 2469 2656 2644 2709 
Q 2875 2778 2992 2937 
Q 3109 3097 3109 3338 
Q 3109 3566 3000 3739 
Q 2891 3913 2687 3977 
Q 2484 4041 1991 4041 
L 1075 4041 
L 1075 2656 
z
M 1075 541 
L 2216 541 
Q 2509 541 2628 563 
Q 2838 600 2978 687 
Q 3119 775 3209 942 
Q 3300 1109 3300 1328 
Q 3300 1584 3169 1773 
Q 3038 1963 2805 2039 
Q 2572 2116 2134 2116 
L 1075 2116 
L 1075 541 
z
" id="ArialMT-42" transform="scale(0.015625)"/>
     </defs>
     <use xlink:href="#ArialMT-42"/>
     <use x="66.699219" xlink:href="#ArialMT-61"/>
     <use x="122.314453" xlink:href="#ArialMT-68"/>
     <use x="177.929688" xlink:href="#ArialMT-72"/>
     <use x="211.230469" xlink:href="#ArialMT-61"/>
     <use x="266.845703" xlink:href="#ArialMT-69"/>
     <use x="289.0625" xlink:href="#ArialMT-6e"/>
    </g>
   </g>
   <g id="text_25">
    <!-- France -->
    <g style="fill:#00008b;opacity:0.75;" transform="translate(284.243166 174.494768)scale(0.04 -0.04)">
     <use xlink:href="#ArialMT-46"/>
     <use x="61.083984" xlink:href="#ArialMT-72"/>
     <use x="94.384766" xlink:href="#ArialMT-61"/>
     <use x="150" xlink:href="#ArialMT-6e"/>
     <use x="205.615234" xlink:href="#ArialMT-63"/>
     <use x="255.615234" xlink:href="#ArialMT-65"/>
    </g>
   </g>
   <g id="text_26">
    <!-- SaudiArabia -->
    <g style="fill:#006400;opacity:0.75;" transform="translate(277.580569 262.250062)scale(0.04 -0.04)">
     <use xlink:href="#ArialMT-53"/>
     <use x="66.699219" xlink:href="#ArialMT-61"/>
     <use x="122.314453" xlink:href="#ArialMT-75"/>
     <use x="177.929688" xlink:href="#ArialMT-64"/>
     <use x="233.544922" xlink:href="#ArialMT-69"/>
     <use x="255.761719" xlink:href="#ArialMT-41"/>
     <use x="322.460938" xlink:href="#ArialMT-72"/>
     <use x="355.761719" xlink:href="#ArialMT-61"/>
     <use x="411.376953" xlink:href="#ArialMT-62"/>
     <use x="466.992188" xlink:href="#ArialMT-69"/>
     <use x="489.208984" xlink:href="#ArialMT-61"/>
    </g>
   </g>
   <g id="text_27">
    <!-- UK -->
    <g style="fill:#00008b;opacity:0.75;" transform="translate(272.749827 187.934768)scale(0.04 -0.04)">
     <defs>
      <path d="M 469 0 
L 469 4581 
L 1075 4581 
L 1075 2309 
L 3350 4581 
L 4172 4581 
L 2250 2725 
L 4256 0 
L 3456 0 
L 1825 2319 
L 1075 1588 
L 1075 0 
L 469 0 
z
" id="ArialMT-4b" transform="scale(0.015625)"/>
     </defs>
     <use xlink:href="#ArialMT-55"/>
     <use x="72.216797" xlink:href="#ArialMT-4b"/>
    </g>
   </g>
   <g id="text_28">
    <!-- NewZealand -->
    <g style="fill:#696969;opacity:0.75;" transform="translate(259.056348 167.260926)scale(0.04 -0.04)">
     <defs>
      <path d="M 128 0 
L 128 563 
L 2475 3497 
Q 2725 3809 2950 4041 
L 394 4041 
L 394 4581 
L 3675 4581 
L 3675 4041 
L 1103 863 
L 825 541 
L 3750 541 
L 3750 0 
L 128 0 
z
" id="ArialMT-5a" transform="scale(0.015625)"/>
     </defs>
     <use xlink:href="#ArialMT-4e"/>
     <use x="72.216797" xlink:href="#ArialMT-65"/>
     <use x="127.832031" xlink:href="#ArialMT-77"/>
     <use x="200.048828" xlink:href="#ArialMT-5a"/>
     <use x="261.132812" xlink:href="#ArialMT-65"/>
     <use x="316.748047" xlink:href="#ArialMT-61"/>
     <use x="372.363281" xlink:href="#ArialMT-6c"/>
     <use x="394.580078" xlink:href="#ArialMT-61"/>
     <use x="450.195312" xlink:href="#ArialMT-6e"/>
     <use x="505.810547" xlink:href="#ArialMT-64"/>
    </g>
   </g>
   <g id="text_29">
    <!-- Spain -->
    <g style="fill:#00008b;opacity:0.75;" transform="translate(246.238142 169.894163)scale(0.04 -0.04)">
     <use xlink:href="#ArialMT-53"/>
     <use x="66.699219" xlink:href="#ArialMT-70"/>
     <use x="122.314453" xlink:href="#ArialMT-61"/>
     <use x="177.929688" xlink:href="#ArialMT-69"/>
     <use x="200.146484" xlink:href="#ArialMT-6e"/>
    </g>
   </g>
   <g id="text_30">
    <!-- Kuwait -->
    <g style="fill:#006400;opacity:0.75;" transform="translate(246.051609 176.747984)scale(0.04 -0.04)">
     <use xlink:href="#ArialMT-4b"/>
     <use x="66.699219" xlink:href="#ArialMT-75"/>
     <use x="122.314453" xlink:href="#ArialMT-77"/>
     <use x="194.53125" xlink:href="#ArialMT-61"/>
     <use x="250.146484" xlink:href="#ArialMT-69"/>
     <use x="272.363281" xlink:href="#ArialMT-74"/>
    </g>
   </g>
   <g id="text_31">
    <!-- Slovenia -->
    <g style="fill:#00008b;opacity:0.75;" transform="translate(242.765748 179.356846)scale(0.04 -0.04)">
     <defs>
      <path d="M 1344 0 
L 81 3319 
L 675 3319 
L 1388 1331 
Q 1503 1009 1600 663 
Q 1675 925 1809 1294 
L 2547 3319 
L 3125 3319 
L 1869 0 
L 1344 0 
z
" id="ArialMT-76" transform="scale(0.015625)"/>
     </defs>
     <use xlink:href="#ArialMT-53"/>
     <use x="66.699219" xlink:href="#ArialMT-6c"/>
     <use x="88.916016" xlink:href="#ArialMT-6f"/>
     <use x="144.53125" xlink:href="#ArialMT-76"/>
     <use x="194.53125" xlink:href="#ArialMT-65"/>
     <use x="250.146484" xlink:href="#ArialMT-6e"/>
     <use x="305.761719" xlink:href="#ArialMT-69"/>
     <use x="327.978516" xlink:href="#ArialMT-61"/>
    </g>
   </g>
   <g id="text_32">
    <!-- Lithuania -->
    <g style="fill:#00008b;opacity:0.75;" transform="translate(242.593563 189.515945)scale(0.04 -0.04)">
     <defs>
      <path d="M 469 0 
L 469 4581 
L 1075 4581 
L 1075 541 
L 3331 541 
L 3331 0 
L 469 0 
z
" id="ArialMT-4c" transform="scale(0.015625)"/>
     </defs>
     <use xlink:href="#ArialMT-4c"/>
     <use x="55.615234" xlink:href="#ArialMT-69"/>
     <use x="77.832031" xlink:href="#ArialMT-74"/>
     <use x="105.615234" xlink:href="#ArialMT-68"/>
     <use x="161.230469" xlink:href="#ArialMT-75"/>
     <use x="216.845703" xlink:href="#ArialMT-61"/>
     <use x="272.460938" xlink:href="#ArialMT-6e"/>
     <use x="328.076172" xlink:href="#ArialMT-69"/>
     <use x="350.292969" xlink:href="#ArialMT-61"/>
    </g>
   </g>
   <g id="text_33">
    <!-- Portugal -->
    <g style="fill:#00008b;opacity:0.75;" transform="translate(220.089959 147.196037)scale(0.04 -0.04)">
     <use xlink:href="#ArialMT-50"/>
     <use x="66.699219" xlink:href="#ArialMT-6f"/>
     <use x="122.314453" xlink:href="#ArialMT-72"/>
     <use x="155.615234" xlink:href="#ArialMT-74"/>
     <use x="183.398438" xlink:href="#ArialMT-75"/>
     <use x="239.013672" xlink:href="#ArialMT-67"/>
     <use x="294.628906" xlink:href="#ArialMT-61"/>
     <use x="350.244141" xlink:href="#ArialMT-6c"/>
    </g>
   </g>
   <g id="text_34">
    <!-- Poland -->
    <g style="fill:#00008b;opacity:0.75;" transform="translate(219.506443 132.988886)scale(0.04 -0.04)">
     <use xlink:href="#ArialMT-50"/>
     <use x="66.699219" xlink:href="#ArialMT-6f"/>
     <use x="122.314453" xlink:href="#ArialMT-6c"/>
     <use x="144.53125" xlink:href="#ArialMT-61"/>
     <use x="200.146484" xlink:href="#ArialMT-6e"/>
     <use x="255.761719" xlink:href="#ArialMT-64"/>
    </g>
   </g>
   <g id="text_35">
    <!-- Slovakia -->
    <g style="fill:#00008b;opacity:0.75;" transform="translate(214.044357 153.54418)scale(0.04 -0.04)">
     <use xlink:href="#ArialMT-53"/>
     <use x="66.699219" xlink:href="#ArialMT-6c"/>
     <use x="88.916016" xlink:href="#ArialMT-6f"/>
     <use x="144.53125" xlink:href="#ArialMT-76"/>
     <use x="194.53125" xlink:href="#ArialMT-61"/>
     <use x="250.146484" xlink:href="#ArialMT-6b"/>
     <use x="300.146484" xlink:href="#ArialMT-69"/>
     <use x="322.363281" xlink:href="#ArialMT-61"/>
    </g>
   </g>
   <g id="text_36">
    <!-- Latvia -->
    <g style="fill:#00008b;opacity:0.75;" transform="translate(207.247838 169.751239)scale(0.04 -0.04)">
     <use xlink:href="#ArialMT-4c"/>
     <use x="55.615234" xlink:href="#ArialMT-61"/>
     <use x="111.230469" xlink:href="#ArialMT-74"/>
     <use x="139.013672" xlink:href="#ArialMT-76"/>
     <use x="189.013672" xlink:href="#ArialMT-69"/>
     <use x="211.230469" xlink:href="#ArialMT-61"/>
    </g>
   </g>
   <g id="text_37">
    <!-- Turkey -->
    <g style="fill:#006400;opacity:0.75;" transform="translate(201.910108 177.633684)scale(0.04 -0.04)">
     <defs>
      <path d="M 1659 0 
L 1659 4041 
L 150 4041 
L 150 4581 
L 3781 4581 
L 3781 4041 
L 2266 4041 
L 2266 0 
L 1659 0 
z
" id="ArialMT-54" transform="scale(0.015625)"/>
     </defs>
     <use xlink:href="#ArialMT-54"/>
     <use x="57.333984" xlink:href="#ArialMT-75"/>
     <use x="112.949219" xlink:href="#ArialMT-72"/>
     <use x="146.25" xlink:href="#ArialMT-6b"/>
     <use x="196.25" xlink:href="#ArialMT-65"/>
     <use x="251.865234" xlink:href="#ArialMT-79"/>
    </g>
   </g>
   <g id="text_38">
    <!-- Oman -->
    <g style="fill:#006400;opacity:0.75;" transform="translate(192.94693 67.370062)scale(0.04 -0.04)">
     <defs>
      <path d="M 309 2231 
Q 309 3372 921 4017 
Q 1534 4663 2503 4663 
Q 3138 4663 3647 4359 
Q 4156 4056 4423 3514 
Q 4691 2972 4691 2284 
Q 4691 1588 4409 1038 
Q 4128 488 3612 205 
Q 3097 -78 2500 -78 
Q 1853 -78 1343 234 
Q 834 547 571 1087 
Q 309 1628 309 2231 
z
M 934 2222 
Q 934 1394 1379 917 
Q 1825 441 2497 441 
Q 3181 441 3623 922 
Q 4066 1403 4066 2288 
Q 4066 2847 3877 3264 
Q 3688 3681 3323 3911 
Q 2959 4141 2506 4141 
Q 1863 4141 1398 3698 
Q 934 3256 934 2222 
z
" id="ArialMT-4f" transform="scale(0.015625)"/>
     </defs>
     <use xlink:href="#ArialMT-4f"/>
     <use x="77.783203" xlink:href="#ArialMT-6d"/>
     <use x="161.083984" xlink:href="#ArialMT-61"/>
     <use x="216.699219" xlink:href="#ArialMT-6e"/>
    </g>
   </g>
   <g id="text_39">
    <!-- Panama -->
    <g style="fill:#cd853f;opacity:0.75;" transform="translate(192.870403 133.779474)scale(0.04 -0.04)">
     <use xlink:href="#ArialMT-50"/>
     <use x="66.699219" xlink:href="#ArialMT-61"/>
     <use x="122.314453" xlink:href="#ArialMT-6e"/>
     <use x="177.929688" xlink:href="#ArialMT-61"/>
     <use x="233.544922" xlink:href="#ArialMT-6d"/>
     <use x="316.845703" xlink:href="#ArialMT-61"/>
    </g>
   </g>
   <g id="text_40">
    <!-- Malaysia -->
    <g style="fill:#006400;opacity:0.75;" transform="translate(187.85791 122.687801)scale(0.04 -0.04)">
     <defs>
      <path d="M 475 0 
L 475 4581 
L 1388 4581 
L 2472 1338 
Q 2622 884 2691 659 
Q 2769 909 2934 1394 
L 4031 4581 
L 4847 4581 
L 4847 0 
L 4263 0 
L 4263 3834 
L 2931 0 
L 2384 0 
L 1059 3900 
L 1059 0 
L 475 0 
z
" id="ArialMT-4d" transform="scale(0.015625)"/>
     </defs>
     <use xlink:href="#ArialMT-4d"/>
     <use x="83.300781" xlink:href="#ArialMT-61"/>
     <use x="138.916016" xlink:href="#ArialMT-6c"/>
     <use x="161.132812" xlink:href="#ArialMT-61"/>
     <use x="216.748047" xlink:href="#ArialMT-79"/>
     <use x="266.748047" xlink:href="#ArialMT-73"/>
     <use x="316.748047" xlink:href="#ArialMT-69"/>
     <use x="338.964844" xlink:href="#ArialMT-61"/>
    </g>
   </g>
   <g id="text_41">
    <!-- Kazakhstan -->
    <g style="fill:#006400;opacity:0.75;" transform="translate(179.344326 153.148886)scale(0.04 -0.04)">
     <defs>
      <path d="M 125 0 
L 125 456 
L 2238 2881 
Q 1878 2863 1603 2863 
L 250 2863 
L 250 3319 
L 2963 3319 
L 2963 2947 
L 1166 841 
L 819 456 
Q 1197 484 1528 484 
L 3063 484 
L 3063 0 
L 125 0 
z
" id="ArialMT-7a" transform="scale(0.015625)"/>
     </defs>
     <use xlink:href="#ArialMT-4b"/>
     <use x="66.699219" xlink:href="#ArialMT-61"/>
     <use x="122.314453" xlink:href="#ArialMT-7a"/>
     <use x="172.314453" xlink:href="#ArialMT-61"/>
     <use x="227.929688" xlink:href="#ArialMT-6b"/>
     <use x="277.929688" xlink:href="#ArialMT-68"/>
     <use x="333.544922" xlink:href="#ArialMT-73"/>
     <use x="383.544922" xlink:href="#ArialMT-74"/>
     <use x="411.328125" xlink:href="#ArialMT-61"/>
     <use x="466.943359" xlink:href="#ArialMT-6e"/>
    </g>
   </g>
   <g id="text_42">
    <!-- Argentina -->
    <g style="fill:#cd853f;opacity:0.75;" transform="translate(153.425722 153.125449)scale(0.04 -0.04)">
     <use xlink:href="#ArialMT-41"/>
     <use x="66.699219" xlink:href="#ArialMT-72"/>
     <use x="100" xlink:href="#ArialMT-67"/>
     <use x="155.615234" xlink:href="#ArialMT-65"/>
     <use x="211.230469" xlink:href="#ArialMT-6e"/>
     <use x="266.845703" xlink:href="#ArialMT-74"/>
     <use x="294.628906" xlink:href="#ArialMT-69"/>
     <use x="316.845703" xlink:href="#ArialMT-6e"/>
     <use x="372.460938" xlink:href="#ArialMT-61"/>
    </g>
   </g>
   <g id="text_43">
    <!-- CostaRica -->
    <g style="fill:#cd853f;opacity:0.75;" transform="translate(146.375709 142.475945)scale(0.04 -0.04)">
     <defs>
      <path d="M 3763 1606 
L 4369 1453 
Q 4178 706 3683 314 
Q 3188 -78 2472 -78 
Q 1731 -78 1267 223 
Q 803 525 561 1097 
Q 319 1669 319 2325 
Q 319 3041 592 3573 
Q 866 4106 1370 4382 
Q 1875 4659 2481 4659 
Q 3169 4659 3637 4309 
Q 4106 3959 4291 3325 
L 3694 3184 
Q 3534 3684 3231 3912 
Q 2928 4141 2469 4141 
Q 1941 4141 1586 3887 
Q 1231 3634 1087 3207 
Q 944 2781 944 2328 
Q 944 1744 1114 1308 
Q 1284 872 1643 656 
Q 2003 441 2422 441 
Q 2931 441 3284 734 
Q 3638 1028 3763 1606 
z
" id="ArialMT-43" transform="scale(0.015625)"/>
      <path d="M 503 0 
L 503 4581 
L 2534 4581 
Q 3147 4581 3465 4457 
Q 3784 4334 3975 4021 
Q 4166 3709 4166 3331 
Q 4166 2844 3850 2509 
Q 3534 2175 2875 2084 
Q 3116 1969 3241 1856 
Q 3506 1613 3744 1247 
L 4541 0 
L 3778 0 
L 3172 953 
Q 2906 1366 2734 1584 
Q 2563 1803 2427 1890 
Q 2291 1978 2150 2013 
Q 2047 2034 1813 2034 
L 1109 2034 
L 1109 0 
L 503 0 
z
M 1109 2559 
L 2413 2559 
Q 2828 2559 3062 2645 
Q 3297 2731 3419 2920 
Q 3541 3109 3541 3331 
Q 3541 3656 3305 3865 
Q 3069 4075 2559 4075 
L 1109 4075 
L 1109 2559 
z
" id="ArialMT-52" transform="scale(0.015625)"/>
     </defs>
     <use xlink:href="#ArialMT-43"/>
     <use x="72.216797" xlink:href="#ArialMT-6f"/>
     <use x="127.832031" xlink:href="#ArialMT-73"/>
     <use x="177.832031" xlink:href="#ArialMT-74"/>
     <use x="205.615234" xlink:href="#ArialMT-61"/>
     <use x="261.230469" xlink:href="#ArialMT-52"/>
     <use x="333.447266" xlink:href="#ArialMT-69"/>
     <use x="355.664062" xlink:href="#ArialMT-63"/>
     <use x="405.664062" xlink:href="#ArialMT-61"/>
    </g>
   </g>
   <g id="text_44">
    <!-- Belarus -->
    <g style="fill:#00008b;opacity:0.75;" transform="translate(145.95003 157.101827)scale(0.04 -0.04)">
     <use xlink:href="#ArialMT-42"/>
     <use x="66.699219" xlink:href="#ArialMT-65"/>
     <use x="122.314453" xlink:href="#ArialMT-6c"/>
     <use x="144.53125" xlink:href="#ArialMT-61"/>
     <use x="200.146484" xlink:href="#ArialMT-72"/>
     <use x="233.447266" xlink:href="#ArialMT-75"/>
     <use x="289.0625" xlink:href="#ArialMT-73"/>
    </g>
   </g>
   <g id="text_45">
    <!-- Serbia -->
    <g style="fill:#00008b;opacity:0.75;" transform="translate(145.792194 137.337121)scale(0.04 -0.04)">
     <use xlink:href="#ArialMT-53"/>
     <use x="66.699219" xlink:href="#ArialMT-65"/>
     <use x="122.314453" xlink:href="#ArialMT-72"/>
     <use x="155.615234" xlink:href="#ArialMT-62"/>
     <use x="211.230469" xlink:href="#ArialMT-69"/>
     <use x="233.447266" xlink:href="#ArialMT-61"/>
    </g>
   </g>
   <g id="text_46">
    <!-- Georgia -->
    <g style="fill:#006400;opacity:0.75;" transform="translate(122.662028 184.378059)scale(0.04 -0.04)">
     <use xlink:href="#ArialMT-47"/>
     <use x="77.783203" xlink:href="#ArialMT-65"/>
     <use x="133.398438" xlink:href="#ArialMT-6f"/>
     <use x="189.013672" xlink:href="#ArialMT-72"/>
     <use x="222.314453" xlink:href="#ArialMT-67"/>
     <use x="277.929688" xlink:href="#ArialMT-69"/>
     <use x="300.146484" xlink:href="#ArialMT-61"/>
    </g>
   </g>
   <g id="text_47">
    <!-- Brazil -->
    <g style="fill:#cd853f;opacity:0.75;" transform="translate(122.346356 159.078298)scale(0.04 -0.04)">
     <use xlink:href="#ArialMT-42"/>
     <use x="66.699219" xlink:href="#ArialMT-72"/>
     <use x="100" xlink:href="#ArialMT-61"/>
     <use x="155.615234" xlink:href="#ArialMT-7a"/>
     <use x="205.615234" xlink:href="#ArialMT-69"/>
     <use x="227.832031" xlink:href="#ArialMT-6c"/>
    </g>
   </g>
   <g id="text_48">
    <!-- Albania -->
    <g style="fill:#00008b;opacity:0.75;" transform="translate(120.347098 122.315945)scale(0.04 -0.04)">
     <use xlink:href="#ArialMT-41"/>
     <use x="66.699219" xlink:href="#ArialMT-6c"/>
     <use x="88.916016" xlink:href="#ArialMT-62"/>
     <use x="144.53125" xlink:href="#ArialMT-61"/>
     <use x="200.146484" xlink:href="#ArialMT-6e"/>
     <use x="255.761719" xlink:href="#ArialMT-69"/>
     <use x="277.978516" xlink:href="#ArialMT-61"/>
    </g>
   </g>
   <g id="text_49">
    <!-- Colombia -->
    <g style="fill:#cd853f;opacity:0.75;" transform="translate(120.150999 148.800651)scale(0.04 -0.04)">
     <use xlink:href="#ArialMT-43"/>
     <use x="72.216797" xlink:href="#ArialMT-6f"/>
     <use x="127.832031" xlink:href="#ArialMT-6c"/>
     <use x="150.048828" xlink:href="#ArialMT-6f"/>
     <use x="205.664062" xlink:href="#ArialMT-6d"/>
     <use x="288.964844" xlink:href="#ArialMT-62"/>
     <use x="344.580078" xlink:href="#ArialMT-69"/>
     <use x="366.796875" xlink:href="#ArialMT-61"/>
    </g>
   </g>
   <g id="text_50">
    <!-- Ukraine -->
    <g style="fill:#00008b;opacity:0.75;" transform="translate(114.215404 172.004814)scale(0.04 -0.04)">
     <use xlink:href="#ArialMT-55"/>
     <use x="72.216797" xlink:href="#ArialMT-6b"/>
     <use x="122.216797" xlink:href="#ArialMT-72"/>
     <use x="155.517578" xlink:href="#ArialMT-61"/>
     <use x="211.132812" xlink:href="#ArialMT-69"/>
     <use x="233.349609" xlink:href="#ArialMT-6e"/>
     <use x="288.964844" xlink:href="#ArialMT-65"/>
    </g>
   </g>
   <g id="text_51">
    <!-- SriLanka -->
    <g style="fill:#006400;opacity:0.75;" transform="translate(114.052785 187.14418)scale(0.04 -0.04)">
     <use xlink:href="#ArialMT-53"/>
     <use x="66.699219" xlink:href="#ArialMT-72"/>
     <use x="100" xlink:href="#ArialMT-69"/>
     <use x="122.216797" xlink:href="#ArialMT-4c"/>
     <use x="177.832031" xlink:href="#ArialMT-61"/>
     <use x="233.447266" xlink:href="#ArialMT-6e"/>
     <use x="289.0625" xlink:href="#ArialMT-6b"/>
     <use x="339.0625" xlink:href="#ArialMT-61"/>
    </g>
   </g>
   <g id="text_52">
    <!-- Moldova -->
    <g style="fill:#00008b;opacity:0.75;" transform="translate(113.909298 155.125357)scale(0.04 -0.04)">
     <use xlink:href="#ArialMT-4d"/>
     <use x="83.300781" xlink:href="#ArialMT-6f"/>
     <use x="138.916016" xlink:href="#ArialMT-6c"/>
     <use x="161.132812" xlink:href="#ArialMT-64"/>
     <use x="216.748047" xlink:href="#ArialMT-6f"/>
     <use x="272.363281" xlink:href="#ArialMT-76"/>
     <use x="322.363281" xlink:href="#ArialMT-61"/>
    </g>
   </g>
   <g id="text_53">
    <!-- Iran -->
    <g style="fill:#006400;opacity:0.75;" transform="translate(112.158752 179.610259)scale(0.04 -0.04)">
     <defs>
      <path d="M 597 0 
L 597 4581 
L 1203 4581 
L 1203 0 
L 597 0 
z
" id="ArialMT-49" transform="scale(0.015625)"/>
     </defs>
     <use xlink:href="#ArialMT-49"/>
     <use x="27.783203" xlink:href="#ArialMT-72"/>
     <use x="61.083984" xlink:href="#ArialMT-61"/>
     <use x="116.699219" xlink:href="#ArialMT-6e"/>
    </g>
   </g>
   <g id="text_54">
    <!-- Egypt -->
    <g style="fill:#8b0000;opacity:0.75;" transform="translate(110.102099 174.461913)scale(0.04 -0.04)">
     <use xlink:href="#ArialMT-45"/>
     <use x="66.699219" xlink:href="#ArialMT-67"/>
     <use x="122.314453" xlink:href="#ArialMT-79"/>
     <use x="172.314453" xlink:href="#ArialMT-70"/>
     <use x="227.929688" xlink:href="#ArialMT-74"/>
    </g>
   </g>
   <g id="text_55">
    <!-- SouthAfrica -->
    <g style="fill:#8b0000;opacity:0.75;" transform="translate(107.036252 163.031239)scale(0.04 -0.04)">
     <use xlink:href="#ArialMT-53"/>
     <use x="66.699219" xlink:href="#ArialMT-6f"/>
     <use x="122.314453" xlink:href="#ArialMT-75"/>
     <use x="177.929688" xlink:href="#ArialMT-74"/>
     <use x="205.712891" xlink:href="#ArialMT-68"/>
     <use x="261.328125" xlink:href="#ArialMT-41"/>
     <use x="328.027344" xlink:href="#ArialMT-66"/>
     <use x="355.810547" xlink:href="#ArialMT-72"/>
     <use x="389.111328" xlink:href="#ArialMT-69"/>
     <use x="411.328125" xlink:href="#ArialMT-63"/>
     <use x="461.328125" xlink:href="#ArialMT-61"/>
    </g>
   </g>
   <g id="text_56">
    <!-- Mongolia -->
    <g style="fill:#006400;opacity:0.75;" transform="translate(106.98364 125.850154)scale(0.04 -0.04)">
     <use xlink:href="#ArialMT-4d"/>
     <use x="83.300781" xlink:href="#ArialMT-6f"/>
     <use x="138.916016" xlink:href="#ArialMT-6e"/>
     <use x="194.53125" xlink:href="#ArialMT-67"/>
     <use x="250.146484" xlink:href="#ArialMT-6f"/>
     <use x="305.761719" xlink:href="#ArialMT-6c"/>
     <use x="327.978516" xlink:href="#ArialMT-69"/>
     <use x="350.195312" xlink:href="#ArialMT-61"/>
    </g>
   </g>
   <g id="text_57">
    <!-- Bhutan -->
    <g style="fill:#006400;opacity:0.75;" transform="translate(104.577835 177.017474)scale(0.04 -0.04)">
     <use xlink:href="#ArialMT-42"/>
     <use x="66.699219" xlink:href="#ArialMT-68"/>
     <use x="122.314453" xlink:href="#ArialMT-75"/>
     <use x="177.929688" xlink:href="#ArialMT-74"/>
     <use x="205.712891" xlink:href="#ArialMT-61"/>
     <use x="261.328125" xlink:href="#ArialMT-6e"/>
    </g>
   </g>
   <g id="text_58">
    <!-- Algeria -->
    <g style="fill:#8b0000;opacity:0.75;" transform="translate(102.210293 147.591331)scale(0.04 -0.04)">
     <use xlink:href="#ArialMT-41"/>
     <use x="66.699219" xlink:href="#ArialMT-6c"/>
     <use x="88.916016" xlink:href="#ArialMT-67"/>
     <use x="144.53125" xlink:href="#ArialMT-65"/>
     <use x="200.146484" xlink:href="#ArialMT-72"/>
     <use x="233.447266" xlink:href="#ArialMT-69"/>
     <use x="255.664062" xlink:href="#ArialMT-61"/>
    </g>
   </g>
   <g id="text_59">
    <!-- Tunisia -->
    <g style="fill:#8b0000;opacity:0.75;" transform="translate(98.19743 113.22418)scale(0.04 -0.04)">
     <use xlink:href="#ArialMT-54"/>
     <use x="57.333984" xlink:href="#ArialMT-75"/>
     <use x="112.949219" xlink:href="#ArialMT-6e"/>
     <use x="168.564453" xlink:href="#ArialMT-69"/>
     <use x="190.78125" xlink:href="#ArialMT-73"/>
     <use x="240.78125" xlink:href="#ArialMT-69"/>
     <use x="262.998047" xlink:href="#ArialMT-61"/>
    </g>
   </g>
   <g id="text_60">
    <!-- Philippines -->
    <g style="fill:#006400;opacity:0.75;" transform="translate(90.865225 159.078298)scale(0.04 -0.04)">
     <use xlink:href="#ArialMT-50"/>
     <use x="66.699219" xlink:href="#ArialMT-68"/>
     <use x="122.314453" xlink:href="#ArialMT-69"/>
     <use x="144.53125" xlink:href="#ArialMT-6c"/>
     <use x="166.748047" xlink:href="#ArialMT-69"/>
     <use x="188.964844" xlink:href="#ArialMT-70"/>
     <use x="244.580078" xlink:href="#ArialMT-70"/>
     <use x="300.195312" xlink:href="#ArialMT-69"/>
     <use x="322.412109" xlink:href="#ArialMT-6e"/>
     <use x="378.027344" xlink:href="#ArialMT-65"/>
     <use x="433.642578" xlink:href="#ArialMT-73"/>
    </g>
   </g>
   <g id="text_61">
    <!-- ElSalvador -->
    <g style="fill:#cd853f;opacity:0.75;" transform="translate(90.052129 170.541827)scale(0.04 -0.04)">
     <use xlink:href="#ArialMT-45"/>
     <use x="66.699219" xlink:href="#ArialMT-6c"/>
     <use x="88.916016" xlink:href="#ArialMT-53"/>
     <use x="155.615234" xlink:href="#ArialMT-61"/>
     <use x="211.230469" xlink:href="#ArialMT-6c"/>
     <use x="233.447266" xlink:href="#ArialMT-76"/>
     <use x="283.447266" xlink:href="#ArialMT-61"/>
     <use x="339.0625" xlink:href="#ArialMT-64"/>
     <use x="394.677734" xlink:href="#ArialMT-6f"/>
     <use x="450.292969" xlink:href="#ArialMT-72"/>
    </g>
   </g>
   <g id="text_62">
    <!-- Angola -->
    <g style="fill:#8b0000;opacity:0.75;" transform="translate(80.424126 199.37486)scale(0.04 -0.04)">
     <use xlink:href="#ArialMT-41"/>
     <use x="66.699219" xlink:href="#ArialMT-6e"/>
     <use x="122.314453" xlink:href="#ArialMT-67"/>
     <use x="177.929688" xlink:href="#ArialMT-6f"/>
     <use x="233.544922" xlink:href="#ArialMT-6c"/>
     <use x="255.761719" xlink:href="#ArialMT-61"/>
    </g>
   </g>
   <g id="text_63">
    <!-- Syria -->
    <g style="fill:#006400;opacity:0.75;" transform="translate(78.008755 133.385118)scale(0.04 -0.04)">
     <use xlink:href="#ArialMT-53"/>
     <use x="66.699219" xlink:href="#ArialMT-79"/>
     <use x="116.699219" xlink:href="#ArialMT-72"/>
     <use x="150" xlink:href="#ArialMT-69"/>
     <use x="172.216797" xlink:href="#ArialMT-61"/>
    </g>
   </g>
   <g id="text_64">
    <!-- Ghana -->
    <g style="fill:#8b0000;opacity:0.75;" transform="translate(76.071676 202.955945)scale(0.04 -0.04)">
     <use xlink:href="#ArialMT-47"/>
     <use x="77.783203" xlink:href="#ArialMT-68"/>
     <use x="133.398438" xlink:href="#ArialMT-61"/>
     <use x="189.013672" xlink:href="#ArialMT-6e"/>
     <use x="244.628906" xlink:href="#ArialMT-61"/>
    </g>
   </g>
   <g id="text_65">
    <!-- Bangladesh -->
    <g style="fill:#006400;opacity:0.75;" transform="translate(75.325541 210.047801)scale(0.04 -0.04)">
     <use xlink:href="#ArialMT-42"/>
     <use x="66.699219" xlink:href="#ArialMT-61"/>
     <use x="122.314453" xlink:href="#ArialMT-6e"/>
     <use x="177.929688" xlink:href="#ArialMT-67"/>
     <use x="233.544922" xlink:href="#ArialMT-6c"/>
     <use x="255.761719" xlink:href="#ArialMT-61"/>
     <use x="311.376953" xlink:href="#ArialMT-64"/>
     <use x="366.992188" xlink:href="#ArialMT-65"/>
     <use x="422.607422" xlink:href="#ArialMT-73"/>
     <use x="472.607422" xlink:href="#ArialMT-68"/>
    </g>
   </g>
   <g id="text_66">
    <!-- Honduras -->
    <g style="fill:#cd853f;opacity:0.75;" transform="translate(74.780289 127.850062)scale(0.04 -0.04)">
     <defs>
      <path d="M 513 0 
L 513 4581 
L 1119 4581 
L 1119 2700 
L 3500 2700 
L 3500 4581 
L 4106 4581 
L 4106 0 
L 3500 0 
L 3500 2159 
L 1119 2159 
L 1119 0 
L 513 0 
z
" id="ArialMT-48" transform="scale(0.015625)"/>
     </defs>
     <use xlink:href="#ArialMT-48"/>
     <use x="72.216797" xlink:href="#ArialMT-6f"/>
     <use x="127.832031" xlink:href="#ArialMT-6e"/>
     <use x="183.447266" xlink:href="#ArialMT-64"/>
     <use x="239.0625" xlink:href="#ArialMT-75"/>
     <use x="294.677734" xlink:href="#ArialMT-72"/>
     <use x="327.978516" xlink:href="#ArialMT-61"/>
     <use x="383.59375" xlink:href="#ArialMT-73"/>
    </g>
   </g>
   <g id="text_67">
    <!-- Palestine -->
    <g style="fill:#006400;opacity:0.75;" transform="translate(74.61767 152.29024)scale(0.04 -0.04)">
     <use xlink:href="#ArialMT-50"/>
     <use x="66.699219" xlink:href="#ArialMT-61"/>
     <use x="122.314453" xlink:href="#ArialMT-6c"/>
     <use x="144.53125" xlink:href="#ArialMT-65"/>
     <use x="200.146484" xlink:href="#ArialMT-73"/>
     <use x="250.146484" xlink:href="#ArialMT-74"/>
     <use x="277.929688" xlink:href="#ArialMT-69"/>
     <use x="300.146484" xlink:href="#ArialMT-6e"/>
     <use x="355.761719" xlink:href="#ArialMT-65"/>
    </g>
   </g>
   <g id="text_68">
    <!-- Kyrgyzstan -->
    <g style="fill:#006400;opacity:0.75;" transform="translate(72.986697 173.680743)scale(0.04 -0.04)">
     <use xlink:href="#ArialMT-4b"/>
     <use x="66.699219" xlink:href="#ArialMT-79"/>
     <use x="116.699219" xlink:href="#ArialMT-72"/>
     <use x="150" xlink:href="#ArialMT-67"/>
     <use x="205.615234" xlink:href="#ArialMT-79"/>
     <use x="255.615234" xlink:href="#ArialMT-7a"/>
     <use x="305.615234" xlink:href="#ArialMT-73"/>
     <use x="355.615234" xlink:href="#ArialMT-74"/>
     <use x="383.398438" xlink:href="#ArialMT-61"/>
     <use x="439.013672" xlink:href="#ArialMT-6e"/>
    </g>
   </g>
   <g id="text_69">
    <!-- Myanmar -->
    <g style="fill:#006400;opacity:0.75;" transform="translate(70.633504 20.306625)scale(0.04 -0.04)">
     <use xlink:href="#ArialMT-4d"/>
     <use x="83.300781" xlink:href="#ArialMT-79"/>
     <use x="133.300781" xlink:href="#ArialMT-61"/>
     <use x="188.916016" xlink:href="#ArialMT-6e"/>
     <use x="244.53125" xlink:href="#ArialMT-6d"/>
     <use x="327.832031" xlink:href="#ArialMT-61"/>
     <use x="383.447266" xlink:href="#ArialMT-72"/>
    </g>
   </g>
   <g id="text_70">
    <!-- Nepal -->
    <g style="fill:#006400;opacity:0.75;" transform="translate(67.610703 220.348886)scale(0.04 -0.04)">
     <use xlink:href="#ArialMT-4e"/>
     <use x="72.216797" xlink:href="#ArialMT-65"/>
     <use x="127.832031" xlink:href="#ArialMT-70"/>
     <use x="183.447266" xlink:href="#ArialMT-61"/>
     <use x="239.0625" xlink:href="#ArialMT-6c"/>
    </g>
   </g>
   <g id="text_71">
    <!-- Sudan -->
    <g style="fill:#8b0000;opacity:0.75;" transform="translate(67.051102 149.659296)scale(0.04 -0.04)">
     <use xlink:href="#ArialMT-53"/>
     <use x="66.699219" xlink:href="#ArialMT-75"/>
     <use x="122.314453" xlink:href="#ArialMT-64"/>
     <use x="177.929688" xlink:href="#ArialMT-61"/>
     <use x="233.544922" xlink:href="#ArialMT-6e"/>
    </g>
   </g>
   <g id="text_72">
    <!-- Lesotho -->
    <g style="fill:#8b0000;opacity:0.75;" transform="translate(61.058113 166.98418)scale(0.04 -0.04)">
     <use xlink:href="#ArialMT-4c"/>
     <use x="55.615234" xlink:href="#ArialMT-65"/>
     <use x="111.230469" xlink:href="#ArialMT-73"/>
     <use x="161.230469" xlink:href="#ArialMT-6f"/>
     <use x="216.845703" xlink:href="#ArialMT-74"/>
     <use x="244.628906" xlink:href="#ArialMT-68"/>
     <use x="300.244141" xlink:href="#ArialMT-6f"/>
    </g>
   </g>
   <g id="text_73">
    <!-- Zimbabwe -->
    <g style="fill:#8b0000;opacity:0.75;" transform="translate(60.431551 191.097121)scale(0.04 -0.04)">
     <use xlink:href="#ArialMT-5a"/>
     <use x="61.083984" xlink:href="#ArialMT-69"/>
     <use x="83.300781" xlink:href="#ArialMT-6d"/>
     <use x="166.601562" xlink:href="#ArialMT-62"/>
     <use x="222.216797" xlink:href="#ArialMT-61"/>
     <use x="277.832031" xlink:href="#ArialMT-62"/>
     <use x="333.447266" xlink:href="#ArialMT-77"/>
     <use x="405.664062" xlink:href="#ArialMT-65"/>
    </g>
   </g>
   <g id="text_74">
    <!-- Rwanda -->
    <g style="fill:#8b0000;opacity:0.75;" transform="translate(59.283652 198.212415)scale(0.04 -0.04)">
     <use xlink:href="#ArialMT-52"/>
     <use x="72.216797" xlink:href="#ArialMT-77"/>
     <use x="144.433594" xlink:href="#ArialMT-61"/>
     <use x="200.048828" xlink:href="#ArialMT-6e"/>
     <use x="255.664062" xlink:href="#ArialMT-64"/>
     <use x="311.279297" xlink:href="#ArialMT-61"/>
    </g>
   </g>
   <g id="text_75">
    <!-- BurkinaFaso -->
    <g style="fill:#8b0000;opacity:0.75;" transform="translate(58.690571 194.259474)scale(0.04 -0.04)">
     <use xlink:href="#ArialMT-42"/>
     <use x="66.699219" xlink:href="#ArialMT-75"/>
     <use x="122.314453" xlink:href="#ArialMT-72"/>
     <use x="155.615234" xlink:href="#ArialMT-6b"/>
     <use x="205.615234" xlink:href="#ArialMT-69"/>
     <use x="227.832031" xlink:href="#ArialMT-6e"/>
     <use x="283.447266" xlink:href="#ArialMT-61"/>
     <use x="339.0625" xlink:href="#ArialMT-46"/>
     <use x="400.146484" xlink:href="#ArialMT-61"/>
     <use x="455.761719" xlink:href="#ArialMT-73"/>
     <use x="505.761719" xlink:href="#ArialMT-6f"/>
    </g>
   </g>
   <g id="text_76">
    <!-- Eritrea -->
    <g style="fill:#8b0000;opacity:0.75;" transform="translate(56.433036 213.233592)scale(0.04 -0.04)">
     <use xlink:href="#ArialMT-45"/>
     <use x="66.699219" xlink:href="#ArialMT-72"/>
     <use x="100" xlink:href="#ArialMT-69"/>
     <use x="122.216797" xlink:href="#ArialMT-74"/>
     <use x="150" xlink:href="#ArialMT-72"/>
     <use x="183.300781" xlink:href="#ArialMT-65"/>
     <use x="238.916016" xlink:href="#ArialMT-61"/>
    </g>
   </g>
   <g id="text_77">
    <!-- Madagascar -->
    <g style="fill:#8b0000;opacity:0.75;" transform="translate(55.366447 180.005449)scale(0.04 -0.04)">
     <use xlink:href="#ArialMT-4d"/>
     <use x="83.300781" xlink:href="#ArialMT-61"/>
     <use x="138.916016" xlink:href="#ArialMT-64"/>
     <use x="194.53125" xlink:href="#ArialMT-61"/>
     <use x="250.146484" xlink:href="#ArialMT-67"/>
     <use x="305.761719" xlink:href="#ArialMT-61"/>
     <use x="361.376953" xlink:href="#ArialMT-73"/>
     <use x="411.376953" xlink:href="#ArialMT-63"/>
     <use x="461.376953" xlink:href="#ArialMT-61"/>
     <use x="516.992188" xlink:href="#ArialMT-72"/>
    </g>
   </g>
   <g id="text_78">
    <!-- Mozambique -->
    <g style="fill:#8b0000;opacity:0.75;" transform="translate(53.711559 139.708886)scale(0.04 -0.04)">
     <defs>
      <path d="M 2538 -1272 
L 2538 353 
Q 2406 169 2170 47 
Q 1934 -75 1669 -75 
Q 1078 -75 651 397 
Q 225 869 225 1691 
Q 225 2191 398 2587 
Q 572 2984 901 3189 
Q 1231 3394 1625 3394 
Q 2241 3394 2594 2875 
L 2594 3319 
L 3100 3319 
L 3100 -1272 
L 2538 -1272 
z
M 803 1669 
Q 803 1028 1072 708 
Q 1341 388 1716 388 
Q 2075 388 2334 692 
Q 2594 997 2594 1619 
Q 2594 2281 2320 2615 
Q 2047 2950 1678 2950 
Q 1313 2950 1058 2639 
Q 803 2328 803 1669 
z
" id="ArialMT-71" transform="scale(0.015625)"/>
     </defs>
     <use xlink:href="#ArialMT-4d"/>
     <use x="83.300781" xlink:href="#ArialMT-6f"/>
     <use x="138.916016" xlink:href="#ArialMT-7a"/>
     <use x="188.916016" xlink:href="#ArialMT-61"/>
     <use x="244.53125" xlink:href="#ArialMT-6d"/>
     <use x="327.832031" xlink:href="#ArialMT-62"/>
     <use x="383.447266" xlink:href="#ArialMT-69"/>
     <use x="405.664062" xlink:href="#ArialMT-71"/>
     <use x="461.279297" xlink:href="#ArialMT-75"/>
     <use x="516.894531" xlink:href="#ArialMT-65"/>
    </g>
   </g>
   <g id="line2d_15">
    <defs>
     <path d="M 0 1.5 
C 0.397805 1.5 0.77937 1.341951 1.06066 1.06066 
C 1.341951 0.77937 1.5 0.397805 1.5 0 
C 1.5 -0.397805 1.341951 -0.77937 1.06066 -1.06066 
C 0.77937 -1.341951 0.397805 -1.5 0 -1.5 
C -0.397805 -1.5 -0.77937 -1.341951 -1.06066 -1.06066 
C -1.341951 -0.77937 -1.5 -0.397805 -1.5 0 
C -1.5 0.397805 -1.341951 0.77937 -1.06066 1.06066 
C -0.77937 1.341951 -0.397805 1.5 0 1.5 
z
" id="m75b78028ca" style="stroke:#000000;stroke-opacity:0;"/>
    </defs>
    <g clip-path="url(#pf4f58a4647)">
     <use style="fill:#00008b;fill-opacity:0.9;stroke:#000000;stroke-opacity:0;" x="376.093523" xlink:href="#m75b78028ca" y="197.178353"/>
    </g>
   </g>
   <g id="line2d_16">
    <defs>
     <path d="M 0 1.5 
C 0.397805 1.5 0.77937 1.341951 1.06066 1.06066 
C 1.341951 0.77937 1.5 0.397805 1.5 0 
C 1.5 -0.397805 1.341951 -0.77937 1.06066 -1.06066 
C 0.77937 -1.341951 0.397805 -1.5 0 -1.5 
C -0.397805 -1.5 -0.77937 -1.341951 -1.06066 -1.06066 
C -1.341951 -0.77937 -1.5 -0.397805 -1.5 0 
C -1.5 0.397805 -1.341951 0.77937 -1.06066 1.06066 
C -0.77937 1.341951 -0.397805 1.5 0 1.5 
z
" id="m870860afc8" style="stroke:#000000;stroke-opacity:0;"/>
    </defs>
    <g clip-path="url(#pf4f58a4647)">
     <use style="fill:#cd853f;fill-opacity:0.9;stroke:#000000;stroke-opacity:0;" x="371.970652" xlink:href="#m870860afc8" y="201.526588"/>
    </g>
   </g>
   <g id="line2d_17">
    <g clip-path="url(#pf4f58a4647)">
     <use style="fill:#00008b;fill-opacity:0.9;stroke:#000000;stroke-opacity:0;" x="339.298576" xlink:href="#m75b78028ca" y="135.117176"/>
    </g>
   </g>
   <g id="line2d_18">
    <defs>
     <path d="M 0 1.5 
C 0.397805 1.5 0.77937 1.341951 1.06066 1.06066 
C 1.341951 0.77937 1.5 0.397805 1.5 0 
C 1.5 -0.397805 1.341951 -0.77937 1.06066 -1.06066 
C 0.77937 -1.341951 0.397805 -1.5 0 -1.5 
C -0.397805 -1.5 -0.77937 -1.341951 -1.06066 -1.06066 
C -1.341951 -0.77937 -1.5 -0.397805 -1.5 0 
C -1.5 0.397805 -1.341951 0.77937 -1.06066 1.06066 
C -0.77937 1.341951 -0.397805 1.5 0 1.5 
z
" id="me51e43e78e" style="stroke:#000000;stroke-opacity:0;"/>
    </defs>
    <g clip-path="url(#pf4f58a4647)">
     <use style="fill:#006400;fill-opacity:0.9;stroke:#000000;stroke-opacity:0;" x="331.483296" xlink:href="#me51e43e78e" y="151.719529"/>
    </g>
   </g>
   <g id="line2d_19">
    <g clip-path="url(#pf4f58a4647)">
     <use style="fill:#00008b;fill-opacity:0.9;stroke:#000000;stroke-opacity:0;" x="322.142268" xlink:href="#m75b78028ca" y="190.853647"/>
    </g>
   </g>
   <g id="line2d_20">
    <g clip-path="url(#pf4f58a4647)">
     <use style="fill:#00008b;fill-opacity:0.9;stroke:#000000;stroke-opacity:0;" x="311.021996" xlink:href="#m75b78028ca" y="160.416"/>
    </g>
   </g>
   <g id="line2d_21">
    <g clip-path="url(#pf4f58a4647)">
     <use style="fill:#00008b;fill-opacity:0.9;stroke:#000000;stroke-opacity:0;" x="293.330002" xlink:href="#m75b78028ca" y="188.877176"/>
    </g>
   </g>
   <g id="line2d_22">
    <g clip-path="url(#pf4f58a4647)">
     <use style="fill:#006400;fill-opacity:0.9;stroke:#000000;stroke-opacity:0;" x="285.758651" xlink:href="#me51e43e78e" y="165.554824"/>
    </g>
   </g>
   <g id="line2d_23">
    <g clip-path="url(#pf4f58a4647)">
     <use style="fill:#00008b;fill-opacity:0.9;stroke:#000000;stroke-opacity:0;" x="281.970585" xlink:href="#m75b78028ca" y="173.460706"/>
    </g>
   </g>
   <g id="line2d_24">
    <g clip-path="url(#pf4f58a4647)">
     <use style="fill:#006400;fill-opacity:0.9;stroke:#000000;stroke-opacity:0;" x="275.307987" xlink:href="#me51e43e78e" y="261.216"/>
    </g>
   </g>
   <g id="line2d_25">
    <g clip-path="url(#pf4f58a4647)">
     <use style="fill:#00008b;fill-opacity:0.9;stroke:#000000;stroke-opacity:0;" x="270.477245" xlink:href="#m75b78028ca" y="186.900706"/>
    </g>
   </g>
   <g id="line2d_26">
    <defs>
     <path d="M 0 1.5 
C 0.397805 1.5 0.77937 1.341951 1.06066 1.06066 
C 1.341951 0.77937 1.5 0.397805 1.5 0 
C 1.5 -0.397805 1.341951 -0.77937 1.06066 -1.06066 
C 0.77937 -1.341951 0.397805 -1.5 0 -1.5 
C -0.397805 -1.5 -0.77937 -1.341951 -1.06066 -1.06066 
C -1.341951 -0.77937 -1.5 -0.397805 -1.5 0 
C -1.5 0.397805 -1.341951 0.77937 -1.06066 1.06066 
C -0.77937 1.341951 -0.397805 1.5 0 1.5 
z
" id="md9aa979db6" style="stroke:#000000;stroke-opacity:0;"/>
    </defs>
    <g clip-path="url(#pf4f58a4647)">
     <use style="fill:#696969;fill-opacity:0.9;stroke:#000000;stroke-opacity:0;" x="256.783766" xlink:href="#md9aa979db6" y="166.345412"/>
    </g>
   </g>
   <g id="line2d_27">
    <g clip-path="url(#pf4f58a4647)">
     <use style="fill:#00008b;fill-opacity:0.9;stroke:#000000;stroke-opacity:0;" x="243.965561" xlink:href="#m75b78028ca" y="168.717176"/>
    </g>
   </g>
   <g id="line2d_28">
    <g clip-path="url(#pf4f58a4647)">
     <use style="fill:#006400;fill-opacity:0.9;stroke:#000000;stroke-opacity:0;" x="243.779027" xlink:href="#me51e43e78e" y="175.832471"/>
    </g>
   </g>
   <g id="line2d_29">
    <g clip-path="url(#pf4f58a4647)">
     <use style="fill:#00008b;fill-opacity:0.9;stroke:#000000;stroke-opacity:0;" x="240.493166" xlink:href="#m75b78028ca" y="178.204235"/>
    </g>
   </g>
   <g id="line2d_30">
    <g clip-path="url(#pf4f58a4647)">
     <use style="fill:#00008b;fill-opacity:0.9;stroke:#000000;stroke-opacity:0;" x="240.320981" xlink:href="#m75b78028ca" y="188.481882"/>
    </g>
   </g>
   <g id="line2d_31">
    <g clip-path="url(#pf4f58a4647)">
     <use style="fill:#00008b;fill-opacity:0.9;stroke:#000000;stroke-opacity:0;" x="217.817377" xlink:href="#m75b78028ca" y="146.185412"/>
    </g>
   </g>
   <g id="line2d_32">
    <g clip-path="url(#pf4f58a4647)">
     <use style="fill:#00008b;fill-opacity:0.9;stroke:#000000;stroke-opacity:0;" x="217.233862" xlink:href="#m75b78028ca" y="131.954824"/>
    </g>
   </g>
   <g id="line2d_33">
    <g clip-path="url(#pf4f58a4647)">
     <use style="fill:#00008b;fill-opacity:0.9;stroke:#000000;stroke-opacity:0;" x="211.771775" xlink:href="#m75b78028ca" y="152.510118"/>
    </g>
   </g>
   <g id="line2d_34">
    <g clip-path="url(#pf4f58a4647)">
     <use style="fill:#00008b;fill-opacity:0.9;stroke:#000000;stroke-opacity:0;" x="204.975257" xlink:href="#m75b78028ca" y="168.717176"/>
    </g>
   </g>
   <g id="line2d_35">
    <g clip-path="url(#pf4f58a4647)">
     <use style="fill:#006400;fill-opacity:0.9;stroke:#000000;stroke-opacity:0;" x="199.637526" xlink:href="#me51e43e78e" y="176.623059"/>
    </g>
   </g>
   <g id="line2d_36">
    <g clip-path="url(#pf4f58a4647)">
     <use style="fill:#006400;fill-opacity:0.9;stroke:#000000;stroke-opacity:0;" x="190.674348" xlink:href="#me51e43e78e" y="66.336"/>
    </g>
   </g>
   <g id="line2d_37">
    <g clip-path="url(#pf4f58a4647)">
     <use style="fill:#cd853f;fill-opacity:0.9;stroke:#000000;stroke-opacity:0;" x="190.597821" xlink:href="#m870860afc8" y="132.745412"/>
    </g>
   </g>
   <g id="line2d_38">
    <g clip-path="url(#pf4f58a4647)">
     <use style="fill:#006400;fill-opacity:0.9;stroke:#000000;stroke-opacity:0;" x="185.585329" xlink:href="#me51e43e78e" y="121.677176"/>
    </g>
   </g>
   <g id="line2d_39">
    <g clip-path="url(#pf4f58a4647)">
     <use style="fill:#006400;fill-opacity:0.9;stroke:#000000;stroke-opacity:0;" x="177.071744" xlink:href="#me51e43e78e" y="152.114824"/>
    </g>
   </g>
   <g id="line2d_40">
    <g clip-path="url(#pf4f58a4647)">
     <use style="fill:#cd853f;fill-opacity:0.9;stroke:#000000;stroke-opacity:0;" x="151.15314" xlink:href="#m870860afc8" y="152.114824"/>
    </g>
   </g>
   <g id="line2d_41">
    <g clip-path="url(#pf4f58a4647)">
     <use style="fill:#cd853f;fill-opacity:0.9;stroke:#000000;stroke-opacity:0;" x="144.103127" xlink:href="#m870860afc8" y="141.441882"/>
    </g>
   </g>
   <g id="line2d_42">
    <g clip-path="url(#pf4f58a4647)">
     <use style="fill:#00008b;fill-opacity:0.9;stroke:#000000;stroke-opacity:0;" x="143.677448" xlink:href="#m75b78028ca" y="156.067765"/>
    </g>
   </g>
   <g id="line2d_43">
    <g clip-path="url(#pf4f58a4647)">
     <use style="fill:#00008b;fill-opacity:0.9;stroke:#000000;stroke-opacity:0;" x="143.519612" xlink:href="#m75b78028ca" y="136.303059"/>
    </g>
   </g>
   <g id="line2d_44">
    <g clip-path="url(#pf4f58a4647)">
     <use style="fill:#006400;fill-opacity:0.9;stroke:#000000;stroke-opacity:0;" x="120.389446" xlink:href="#me51e43e78e" y="183.343059"/>
    </g>
   </g>
   <g id="line2d_45">
    <g clip-path="url(#pf4f58a4647)">
     <use style="fill:#cd853f;fill-opacity:0.9;stroke:#000000;stroke-opacity:0;" x="120.073774" xlink:href="#m870860afc8" y="158.044235"/>
    </g>
   </g>
   <g id="line2d_46">
    <g clip-path="url(#pf4f58a4647)">
     <use style="fill:#00008b;fill-opacity:0.9;stroke:#000000;stroke-opacity:0;" x="118.074516" xlink:href="#m75b78028ca" y="121.281882"/>
    </g>
   </g>
   <g id="line2d_47">
    <g clip-path="url(#pf4f58a4647)">
     <use style="fill:#cd853f;fill-opacity:0.9;stroke:#000000;stroke-opacity:0;" x="117.878417" xlink:href="#m870860afc8" y="147.766588"/>
    </g>
   </g>
   <g id="line2d_48">
    <g clip-path="url(#pf4f58a4647)">
     <use style="fill:#00008b;fill-opacity:0.9;stroke:#000000;stroke-opacity:0;" x="111.942822" xlink:href="#m75b78028ca" y="171.088941"/>
    </g>
   </g>
   <g id="line2d_49">
    <g clip-path="url(#pf4f58a4647)">
     <use style="fill:#006400;fill-opacity:0.9;stroke:#000000;stroke-opacity:0;" x="111.780203" xlink:href="#me51e43e78e" y="186.110118"/>
    </g>
   </g>
   <g id="line2d_50">
    <g clip-path="url(#pf4f58a4647)">
     <use style="fill:#00008b;fill-opacity:0.9;stroke:#000000;stroke-opacity:0;" x="111.636716" xlink:href="#m75b78028ca" y="154.091294"/>
    </g>
   </g>
   <g id="line2d_51">
    <g clip-path="url(#pf4f58a4647)">
     <use style="fill:#006400;fill-opacity:0.9;stroke:#000000;stroke-opacity:0;" x="109.88617" xlink:href="#me51e43e78e" y="177.018353"/>
    </g>
   </g>
   <g id="line2d_52">
    <defs>
     <path d="M 0 1.5 
C 0.397805 1.5 0.77937 1.341951 1.06066 1.06066 
C 1.341951 0.77937 1.5 0.397805 1.5 0 
C 1.5 -0.397805 1.341951 -0.77937 1.06066 -1.06066 
C 0.77937 -1.341951 0.397805 -1.5 0 -1.5 
C -0.397805 -1.5 -0.77937 -1.341951 -1.06066 -1.06066 
C -1.341951 -0.77937 -1.5 -0.397805 -1.5 0 
C -1.5 0.397805 -1.341951 0.77937 -1.06066 1.06066 
C -0.77937 1.341951 -0.397805 1.5 0 1.5 
z
" id="m72b7841bf8" style="stroke:#000000;stroke-opacity:0;"/>
    </defs>
    <g clip-path="url(#pf4f58a4647)">
     <use style="fill:#8b0000;fill-opacity:0.9;stroke:#000000;stroke-opacity:0;" x="107.829518" xlink:href="#m72b7841bf8" y="174.646588"/>
    </g>
   </g>
   <g id="line2d_53">
    <g clip-path="url(#pf4f58a4647)">
     <use style="fill:#8b0000;fill-opacity:0.9;stroke:#000000;stroke-opacity:0;" x="104.763671" xlink:href="#m72b7841bf8" y="161.997176"/>
    </g>
   </g>
   <g id="line2d_54">
    <g clip-path="url(#pf4f58a4647)">
     <use style="fill:#006400;fill-opacity:0.9;stroke:#000000;stroke-opacity:0;" x="104.711058" xlink:href="#me51e43e78e" y="124.839529"/>
    </g>
   </g>
   <g id="line2d_55">
    <g clip-path="url(#pf4f58a4647)">
     <use style="fill:#006400;fill-opacity:0.9;stroke:#000000;stroke-opacity:0;" x="102.305253" xlink:href="#me51e43e78e" y="176.227765"/>
    </g>
   </g>
   <g id="line2d_56">
    <g clip-path="url(#pf4f58a4647)">
     <use style="fill:#8b0000;fill-opacity:0.9;stroke:#000000;stroke-opacity:0;" x="99.937712" xlink:href="#m72b7841bf8" y="146.580706"/>
    </g>
   </g>
   <g id="line2d_57">
    <g clip-path="url(#pf4f58a4647)">
     <use style="fill:#8b0000;fill-opacity:0.9;stroke:#000000;stroke-opacity:0;" x="95.924848" xlink:href="#m72b7841bf8" y="112.190118"/>
    </g>
   </g>
   <g id="line2d_58">
    <g clip-path="url(#pf4f58a4647)">
     <use style="fill:#006400;fill-opacity:0.9;stroke:#000000;stroke-opacity:0;" x="88.592643" xlink:href="#me51e43e78e" y="158.044235"/>
    </g>
   </g>
   <g id="line2d_59">
    <g clip-path="url(#pf4f58a4647)">
     <use style="fill:#cd853f;fill-opacity:0.9;stroke:#000000;stroke-opacity:0;" x="87.779548" xlink:href="#m870860afc8" y="169.507765"/>
    </g>
   </g>
   <g id="line2d_60">
    <g clip-path="url(#pf4f58a4647)">
     <use style="fill:#8b0000;fill-opacity:0.9;stroke:#000000;stroke-opacity:0;" x="78.151544" xlink:href="#m72b7841bf8" y="198.364235"/>
    </g>
   </g>
   <g id="line2d_61">
    <g clip-path="url(#pf4f58a4647)">
     <use style="fill:#006400;fill-opacity:0.9;stroke:#000000;stroke-opacity:0;" x="75.736174" xlink:href="#me51e43e78e" y="132.350118"/>
    </g>
   </g>
   <g id="line2d_62">
    <g clip-path="url(#pf4f58a4647)">
     <use style="fill:#8b0000;fill-opacity:0.9;stroke:#000000;stroke-opacity:0;" x="73.799094" xlink:href="#m72b7841bf8" y="201.921882"/>
    </g>
   </g>
   <g id="line2d_63">
    <g clip-path="url(#pf4f58a4647)">
     <use style="fill:#006400;fill-opacity:0.9;stroke:#000000;stroke-opacity:0;" x="73.05296" xlink:href="#me51e43e78e" y="209.037176"/>
    </g>
   </g>
   <g id="line2d_64">
    <g clip-path="url(#pf4f58a4647)">
     <use style="fill:#cd853f;fill-opacity:0.9;stroke:#000000;stroke-opacity:0;" x="72.507708" xlink:href="#m870860afc8" y="126.816"/>
    </g>
   </g>
   <g id="line2d_65">
    <g clip-path="url(#pf4f58a4647)">
     <use style="fill:#006400;fill-opacity:0.9;stroke:#000000;stroke-opacity:0;" x="72.345089" xlink:href="#me51e43e78e" y="150.928941"/>
    </g>
   </g>
   <g id="line2d_66">
    <g clip-path="url(#pf4f58a4647)">
     <use style="fill:#006400;fill-opacity:0.9;stroke:#000000;stroke-opacity:0;" x="70.714115" xlink:href="#me51e43e78e" y="172.670118"/>
    </g>
   </g>
   <g id="line2d_67">
    <g clip-path="url(#pf4f58a4647)">
     <use style="fill:#006400;fill-opacity:0.9;stroke:#000000;stroke-opacity:0;" x="68.360922" xlink:href="#me51e43e78e" y="19.296"/>
    </g>
   </g>
   <g id="line2d_68">
    <g clip-path="url(#pf4f58a4647)">
     <use style="fill:#006400;fill-opacity:0.9;stroke:#000000;stroke-opacity:0;" x="65.338121" xlink:href="#me51e43e78e" y="219.314824"/>
    </g>
   </g>
   <g id="line2d_69">
    <g clip-path="url(#pf4f58a4647)">
     <use style="fill:#8b0000;fill-opacity:0.9;stroke:#000000;stroke-opacity:0;" x="64.778521" xlink:href="#m72b7841bf8" y="148.952471"/>
    </g>
   </g>
   <g id="line2d_70">
    <g clip-path="url(#pf4f58a4647)">
     <use style="fill:#8b0000;fill-opacity:0.9;stroke:#000000;stroke-opacity:0;" x="58.785531" xlink:href="#m72b7841bf8" y="165.950118"/>
    </g>
   </g>
   <g id="line2d_71">
    <g clip-path="url(#pf4f58a4647)">
     <use style="fill:#8b0000;fill-opacity:0.9;stroke:#000000;stroke-opacity:0;" x="58.15897" xlink:href="#m72b7841bf8" y="190.063059"/>
    </g>
   </g>
   <g id="line2d_72">
    <g clip-path="url(#pf4f58a4647)">
     <use style="fill:#8b0000;fill-opacity:0.9;stroke:#000000;stroke-opacity:0;" x="57.011071" xlink:href="#m72b7841bf8" y="197.178353"/>
    </g>
   </g>
   <g id="line2d_73">
    <g clip-path="url(#pf4f58a4647)">
     <use style="fill:#8b0000;fill-opacity:0.9;stroke:#000000;stroke-opacity:0;" x="56.417989" xlink:href="#m72b7841bf8" y="193.225412"/>
    </g>
   </g>
   <g id="line2d_74">
    <g clip-path="url(#pf4f58a4647)">
     <use style="fill:#8b0000;fill-opacity:0.9;stroke:#000000;stroke-opacity:0;" x="54.160455" xlink:href="#m72b7841bf8" y="212.199529"/>
    </g>
   </g>
   <g id="line2d_75">
    <g clip-path="url(#pf4f58a4647)">
     <use style="fill:#8b0000;fill-opacity:0.9;stroke:#000000;stroke-opacity:0;" x="53.093865" xlink:href="#m72b7841bf8" y="178.994824"/>
    </g>
   </g>
   <g id="line2d_76">
    <g clip-path="url(#pf4f58a4647)">
     <use style="fill:#8b0000;fill-opacity:0.9;stroke:#000000;stroke-opacity:0;" x="51.438977" xlink:href="#m72b7841bf8" y="138.674824"/>
    </g>
   </g>
   <g id="line2d_77">
    <path clip-path="url(#pf4f58a4647)" d="M 51.438977 182.03382 
L 54.685523 180.752165 
L 57.932068 179.477951 
L 61.178614 178.211943 
L 64.425159 176.953794 
L 67.671705 175.703142 
L 70.91825 174.459414 
L 74.164795 173.221614 
L 77.411341 171.988917 
L 80.657886 170.759645 
L 83.904432 169.529801 
L 87.150977 168.313813 
L 90.397523 167.114 
L 93.644068 165.902501 
L 96.890614 164.678792 
L 100.137159 163.479099 
L 103.383705 162.310665 
L 106.63025 161.144348 
L 109.876795 159.992011 
L 113.123341 158.876904 
L 116.369886 157.823401 
L 119.616432 156.854408 
L 122.862977 155.967875 
L 126.109523 155.079215 
L 129.356068 154.165616 
L 132.602614 153.388641 
L 135.849159 152.874229 
L 139.095705 152.594016 
L 142.34225 152.48591 
L 145.588795 152.453247 
L 148.835341 152.381651 
L 152.081886 152.19979 
L 155.328432 152.080935 
L 158.574977 152.10905 
L 161.821523 152.411631 
L 165.068068 152.862986 
L 168.314614 153.390295 
L 171.561159 153.892635 
L 174.807705 154.371307 
L 178.05425 154.855257 
L 181.300795 155.337211 
L 184.547341 155.794177 
L 187.793886 156.274676 
L 191.040432 156.767984 
L 194.286977 157.293956 
L 197.533523 157.84644 
L 200.780068 158.381768 
L 204.026614 158.893939 
L 207.273159 159.411907 
L 210.519705 159.917052 
L 213.76625 160.437536 
L 217.012795 160.965297 
L 220.259341 161.529016 
L 223.505886 162.097883 
L 226.752432 162.618706 
L 229.998977 163.090703 
L 233.245523 163.531549 
L 236.492068 163.969653 
L 239.738614 164.418027 
L 242.985159 164.869556 
L 246.231705 165.316679 
L 249.47825 165.776564 
L 252.724795 166.258284 
L 255.971341 166.762426 
L 259.217886 167.286477 
L 262.464432 167.825682 
L 265.710977 168.377893 
L 268.957523 168.940611 
L 272.204068 169.511417 
L 275.450614 170.088172 
L 278.697159 170.669014 
L 281.943705 171.25238 
L 285.19025 171.836979 
L 288.436795 172.421728 
L 291.683341 173.005762 
L 294.929886 173.588369 
L 298.176432 174.168873 
L 301.422977 174.746631 
L 304.669523 175.321087 
L 307.916068 175.891765 
L 311.162614 176.458252 
L 314.409159 177.020228 
L 317.655705 177.577519 
L 320.90225 178.130009 
L 324.148795 178.677608 
L 327.395341 179.220186 
L 330.641886 179.757598 
L 333.888432 180.289742 
L 337.134977 180.816678 
L 340.381523 181.33856 
L 343.628068 181.855653 
L 346.874614 182.368395 
L 350.121159 182.877225 
L 353.367705 183.382571 
L 356.61425 183.884851 
L 359.860795 184.384471 
L 363.107341 184.881826 
L 366.353886 185.377299 
L 369.600432 185.871261 
L 372.846977 186.364073 
L 376.093523 186.856036 
" style="fill:none;stroke:#00008b;stroke-linecap:round;stroke-opacity:0.5;stroke-width:1.5;"/>
   </g>
  </g>
  <g id="text_79">
   <!-- dynomight.net -->
   <g style="fill:#808080;opacity:0.5;" transform="translate(346.24625 297.504)scale(0.06 -0.06)">
    <defs>
     <path d="M 2681 3053 
L 2681 4863 
L 3256 4863 
L 3256 0 
L 2681 0 
L 2681 441 
Q 2538 181 2298 45 
Q 2059 -91 1747 -91 
Q 1113 -91 748 401 
Q 384 894 384 1759 
Q 384 2613 750 3098 
Q 1116 3584 1747 3584 
Q 2063 3584 2303 3448 
Q 2544 3313 2681 3053 
z
M 991 1747 
Q 991 1078 1203 737 
Q 1416 397 1831 397 
Q 2247 397 2464 740 
Q 2681 1084 2681 1747 
Q 2681 2413 2464 2755 
Q 2247 3097 1831 3097 
Q 1416 3097 1203 2756 
Q 991 2416 991 1747 
z
" id="DejaVuSansMono-64" transform="scale(0.015625)"/>
     <path d="M 2681 1125 
Q 2538 759 2316 163 
Q 2006 -663 1900 -844 
Q 1756 -1088 1540 -1209 
Q 1325 -1331 1038 -1331 
L 575 -1331 
L 575 -850 
L 916 -850 
Q 1169 -850 1312 -703 
Q 1456 -556 1678 56 
L 325 3500 
L 934 3500 
L 1972 763 
L 2994 3500 
L 3603 3500 
L 2681 1125 
z
" id="DejaVuSansMono-79" transform="scale(0.015625)"/>
     <path d="M 3284 2169 
L 3284 0 
L 2706 0 
L 2706 2169 
Q 2706 2641 2540 2862 
Q 2375 3084 2022 3084 
Q 1619 3084 1401 2798 
Q 1184 2513 1184 1978 
L 1184 0 
L 609 0 
L 609 3500 
L 1184 3500 
L 1184 2975 
Q 1338 3275 1600 3429 
Q 1863 3584 2222 3584 
Q 2756 3584 3020 3232 
Q 3284 2881 3284 2169 
z
" id="DejaVuSansMono-6e" transform="scale(0.015625)"/>
     <path d="M 1925 3097 
Q 1488 3097 1263 2756 
Q 1038 2416 1038 1747 
Q 1038 1081 1263 739 
Q 1488 397 1925 397 
Q 2366 397 2591 739 
Q 2816 1081 2816 1747 
Q 2816 2416 2591 2756 
Q 2366 3097 1925 3097 
z
M 1925 3584 
Q 2653 3584 3039 3112 
Q 3425 2641 3425 1747 
Q 3425 850 3040 379 
Q 2656 -91 1925 -91 
Q 1197 -91 812 379 
Q 428 850 428 1747 
Q 428 2641 812 3112 
Q 1197 3584 1925 3584 
z
" id="DejaVuSansMono-6f" transform="scale(0.015625)"/>
     <path d="M 2113 3144 
Q 2219 3369 2383 3476 
Q 2547 3584 2778 3584 
Q 3200 3584 3373 3257 
Q 3547 2931 3547 2028 
L 3547 0 
L 3022 0 
L 3022 2003 
Q 3022 2744 2939 2923 
Q 2856 3103 2638 3103 
Q 2388 3103 2295 2911 
Q 2203 2719 2203 2003 
L 2203 0 
L 1678 0 
L 1678 2003 
Q 1678 2753 1589 2928 
Q 1500 3103 1269 3103 
Q 1041 3103 952 2911 
Q 863 2719 863 2003 
L 863 0 
L 341 0 
L 341 3500 
L 863 3500 
L 863 3200 
Q 966 3388 1120 3486 
Q 1275 3584 1472 3584 
Q 1709 3584 1867 3475 
Q 2025 3366 2113 3144 
z
" id="DejaVuSansMono-6d" transform="scale(0.015625)"/>
     <path d="M 800 3500 
L 2272 3500 
L 2272 447 
L 3413 447 
L 3413 0 
L 556 0 
L 556 447 
L 1697 447 
L 1697 3053 
L 800 3053 
L 800 3500 
z
M 1697 4863 
L 2272 4863 
L 2272 4134 
L 1697 4134 
L 1697 4863 
z
" id="DejaVuSansMono-69" transform="scale(0.015625)"/>
     <path d="M 2681 1778 
Q 2681 2425 2470 2761 
Q 2259 3097 1856 3097 
Q 1434 3097 1212 2761 
Q 991 2425 991 1778 
Q 991 1131 1214 792 
Q 1438 453 1863 453 
Q 2259 453 2470 793 
Q 2681 1134 2681 1778 
z
M 3256 225 
Q 3256 -563 2884 -969 
Q 2513 -1375 1791 -1375 
Q 1553 -1375 1293 -1331 
Q 1034 -1288 775 -1203 
L 775 -634 
Q 1081 -778 1331 -847 
Q 1581 -916 1791 -916 
Q 2256 -916 2468 -662 
Q 2681 -409 2681 141 
L 2681 166 
L 2681 556 
Q 2544 263 2306 119 
Q 2069 -25 1728 -25 
Q 1116 -25 750 465 
Q 384 956 384 1778 
Q 384 2603 750 3093 
Q 1116 3584 1728 3584 
Q 2066 3584 2300 3450 
Q 2534 3316 2681 3034 
L 2681 3488 
L 3256 3488 
L 3256 225 
z
" id="DejaVuSansMono-67" transform="scale(0.015625)"/>
     <path d="M 3284 2169 
L 3284 0 
L 2706 0 
L 2706 2169 
Q 2706 2641 2540 2862 
Q 2375 3084 2022 3084 
Q 1619 3084 1401 2798 
Q 1184 2513 1184 1978 
L 1184 0 
L 609 0 
L 609 4863 
L 1184 4863 
L 1184 2975 
Q 1338 3275 1600 3429 
Q 1863 3584 2222 3584 
Q 2756 3584 3020 3232 
Q 3284 2881 3284 2169 
z
" id="DejaVuSansMono-68" transform="scale(0.015625)"/>
     <path d="M 1919 4494 
L 1919 3500 
L 3225 3500 
L 3225 3053 
L 1919 3053 
L 1919 1153 
Q 1919 766 2066 612 
Q 2213 459 2578 459 
L 3225 459 
L 3225 0 
L 2522 0 
Q 1875 0 1609 259 
Q 1344 519 1344 1153 
L 1344 3053 
L 409 3053 
L 409 3500 
L 1344 3500 
L 1344 4494 
L 1919 4494 
z
" id="DejaVuSansMono-74" transform="scale(0.015625)"/>
     <path d="M 1528 953 
L 2316 953 
L 2316 0 
L 1528 0 
L 1528 953 
z
" id="DejaVuSansMono-2e" transform="scale(0.015625)"/>
     <path d="M 3475 1894 
L 3475 1613 
L 984 1613 
L 984 1594 
Q 984 1022 1282 709 
Q 1581 397 2125 397 
Q 2400 397 2700 484 
Q 3000 572 3341 750 
L 3341 178 
Q 3013 44 2708 -23 
Q 2403 -91 2119 -91 
Q 1303 -91 843 398 
Q 384 888 384 1747 
Q 384 2584 834 3084 
Q 1284 3584 2034 3584 
Q 2703 3584 3089 3131 
Q 3475 2678 3475 1894 
z
M 2900 2063 
Q 2888 2569 2661 2833 
Q 2434 3097 2009 3097 
Q 1594 3097 1325 2822 
Q 1056 2547 1006 2059 
L 2900 2063 
z
" id="DejaVuSansMono-65" transform="scale(0.015625)"/>
    </defs>
    <use xlink:href="#DejaVuSansMono-64"/>
    <use x="60.205078" xlink:href="#DejaVuSansMono-79"/>
    <use x="120.410156" xlink:href="#DejaVuSansMono-6e"/>
    <use x="180.615234" xlink:href="#DejaVuSansMono-6f"/>
    <use x="240.820312" xlink:href="#DejaVuSansMono-6d"/>
    <use x="301.025391" xlink:href="#DejaVuSansMono-69"/>
    <use x="361.230469" xlink:href="#DejaVuSansMono-67"/>
    <use x="421.435547" xlink:href="#DejaVuSansMono-68"/>
    <use x="481.640625" xlink:href="#DejaVuSansMono-74"/>
    <use x="541.845703" xlink:href="#DejaVuSansMono-2e"/>
    <use x="602.050781" xlink:href="#DejaVuSansMono-6e"/>
    <use x="662.255859" xlink:href="#DejaVuSansMono-65"/>
    <use x="722.460938" xlink:href="#DejaVuSansMono-74"/>
   </g>
  </g>
 </g>
 <defs>
  <clipPath id="pf4f58a4647">
   <rect height="266.112" width="357.12" x="35.20625" y="7.2"/>
  </clipPath>
 </defs>
</svg>
