<?xml version="1.0" encoding="utf-8" standalone="no"?>
<!DOCTYPE svg PUBLIC "-//W3C//DTD SVG 1.1//EN"
  "http://www.w3.org/Graphics/SVG/1.1/DTD/svg11.dtd">
<svg height="306.541687pt" version="1.1" viewBox="0 0 406.839238 306.541687" width="406.839238pt" xmlns="http://www.w3.org/2000/svg" xmlns:xlink="http://www.w3.org/1999/xlink">
 <metadata>
  <rdf:RDF xmlns:cc="http://creativecommons.org/ns#" xmlns:dc="http://purl.org/dc/elements/1.1/" xmlns:rdf="http://www.w3.org/1999/02/22-rdf-syntax-ns#">
   <cc:Work>
    <dc:type rdf:resource="http://purl.org/dc/dcmitype/StillImage"/>
    <dc:date>2021-07-01T15:57:13.857027</dc:date>
    <dc:format>image/svg+xml</dc:format>
    <dc:creator>
     <cc:Agent>
      <dc:title>Matplotlib v3.4.1, https://matplotlib.org/</dc:title>
     </cc:Agent>
    </dc:creator>
   </cc:Work>
  </rdf:RDF>
 </metadata>
 <defs>
  <style type="text/css">*{stroke-linecap:butt;stroke-linejoin:round;}</style>
 </defs>
 <g id="figure_1">
  <g id="patch_1">
   <path d="M 0 306.541687 
L 406.839238 306.541687 
L 406.839238 0 
L 0 0 
z
" style="fill:#ffffff;"/>
  </g>
  <g id="axes_1">
   <g id="patch_2">
    <path d="M 34.967188 273.312 
L 392.087188 273.312 
L 392.087188 7.2 
L 34.967188 7.2 
z
" style="fill:#ffffff;"/>
   </g>
   <g id="matplotlib.axis_1">
    <g id="xtick_1">
     <g id="line2d_1"/>
     <g id="text_1">
      <!-- 0.55 -->
      <g style="fill:#262626;" transform="translate(28.820568 283.969812)scale(0.1 -0.1)">
       <defs>
        <path d="M 266 2259 
Q 266 3072 433 3567 
Q 600 4063 929 4331 
Q 1259 4600 1759 4600 
Q 2128 4600 2406 4451 
Q 2684 4303 2865 4023 
Q 3047 3744 3150 3342 
Q 3253 2941 3253 2259 
Q 3253 1453 3087 958 
Q 2922 463 2592 192 
Q 2263 -78 1759 -78 
Q 1097 -78 719 397 
Q 266 969 266 2259 
z
M 844 2259 
Q 844 1131 1108 757 
Q 1372 384 1759 384 
Q 2147 384 2411 759 
Q 2675 1134 2675 2259 
Q 2675 3391 2411 3762 
Q 2147 4134 1753 4134 
Q 1366 4134 1134 3806 
Q 844 3388 844 2259 
z
" id="ArialMT-30" transform="scale(0.015625)"/>
        <path d="M 581 0 
L 581 641 
L 1222 641 
L 1222 0 
L 581 0 
z
" id="ArialMT-2e" transform="scale(0.015625)"/>
        <path d="M 266 1200 
L 856 1250 
Q 922 819 1161 601 
Q 1400 384 1738 384 
Q 2144 384 2425 690 
Q 2706 997 2706 1503 
Q 2706 1984 2436 2262 
Q 2166 2541 1728 2541 
Q 1456 2541 1237 2417 
Q 1019 2294 894 2097 
L 366 2166 
L 809 4519 
L 3088 4519 
L 3088 3981 
L 1259 3981 
L 1013 2750 
Q 1425 3038 1878 3038 
Q 2478 3038 2890 2622 
Q 3303 2206 3303 1553 
Q 3303 931 2941 478 
Q 2500 -78 1738 -78 
Q 1113 -78 717 272 
Q 322 622 266 1200 
z
" id="ArialMT-35" transform="scale(0.015625)"/>
       </defs>
       <use xlink:href="#ArialMT-30"/>
       <use x="55.615234" xlink:href="#ArialMT-2e"/>
       <use x="83.398438" xlink:href="#ArialMT-35"/>
       <use x="139.013672" xlink:href="#ArialMT-35"/>
      </g>
     </g>
    </g>
    <g id="xtick_2">
     <g id="line2d_2"/>
     <g id="text_2">
      <!-- 0.60 -->
      <g style="fill:#262626;" transform="translate(99.092114 283.969812)scale(0.1 -0.1)">
       <defs>
        <path d="M 3184 3459 
L 2625 3416 
Q 2550 3747 2413 3897 
Q 2184 4138 1850 4138 
Q 1581 4138 1378 3988 
Q 1113 3794 959 3422 
Q 806 3050 800 2363 
Q 1003 2672 1297 2822 
Q 1591 2972 1913 2972 
Q 2475 2972 2870 2558 
Q 3266 2144 3266 1488 
Q 3266 1056 3080 686 
Q 2894 316 2569 119 
Q 2244 -78 1831 -78 
Q 1128 -78 684 439 
Q 241 956 241 2144 
Q 241 3472 731 4075 
Q 1159 4600 1884 4600 
Q 2425 4600 2770 4297 
Q 3116 3994 3184 3459 
z
M 888 1484 
Q 888 1194 1011 928 
Q 1134 663 1356 523 
Q 1578 384 1822 384 
Q 2178 384 2434 671 
Q 2691 959 2691 1453 
Q 2691 1928 2437 2201 
Q 2184 2475 1800 2475 
Q 1419 2475 1153 2201 
Q 888 1928 888 1484 
z
" id="ArialMT-36" transform="scale(0.015625)"/>
       </defs>
       <use xlink:href="#ArialMT-30"/>
       <use x="55.615234" xlink:href="#ArialMT-2e"/>
       <use x="83.398438" xlink:href="#ArialMT-36"/>
       <use x="139.013672" xlink:href="#ArialMT-30"/>
      </g>
     </g>
    </g>
    <g id="xtick_3">
     <g id="line2d_3"/>
     <g id="text_3">
      <!-- 0.65 -->
      <g style="fill:#262626;" transform="translate(169.363661 283.969812)scale(0.1 -0.1)">
       <use xlink:href="#ArialMT-30"/>
       <use x="55.615234" xlink:href="#ArialMT-2e"/>
       <use x="83.398438" xlink:href="#ArialMT-36"/>
       <use x="139.013672" xlink:href="#ArialMT-35"/>
      </g>
     </g>
    </g>
    <g id="xtick_4">
     <g id="line2d_4"/>
     <g id="text_4">
      <!-- 0.70 -->
      <g style="fill:#262626;" transform="translate(239.635208 283.969812)scale(0.1 -0.1)">
       <defs>
        <path d="M 303 3981 
L 303 4522 
L 3269 4522 
L 3269 4084 
Q 2831 3619 2401 2847 
Q 1972 2075 1738 1259 
Q 1569 684 1522 0 
L 944 0 
Q 953 541 1156 1306 
Q 1359 2072 1739 2783 
Q 2119 3494 2547 3981 
L 303 3981 
z
" id="ArialMT-37" transform="scale(0.015625)"/>
       </defs>
       <use xlink:href="#ArialMT-30"/>
       <use x="55.615234" xlink:href="#ArialMT-2e"/>
       <use x="83.398438" xlink:href="#ArialMT-37"/>
       <use x="139.013672" xlink:href="#ArialMT-30"/>
      </g>
     </g>
    </g>
    <g id="xtick_5">
     <g id="line2d_5"/>
     <g id="text_5">
      <!-- 0.75 -->
      <g style="fill:#262626;" transform="translate(309.906754 283.969812)scale(0.1 -0.1)">
       <use xlink:href="#ArialMT-30"/>
       <use x="55.615234" xlink:href="#ArialMT-2e"/>
       <use x="83.398438" xlink:href="#ArialMT-37"/>
       <use x="139.013672" xlink:href="#ArialMT-35"/>
      </g>
     </g>
    </g>
    <g id="xtick_6">
     <g id="line2d_6"/>
     <g id="text_6">
      <!-- 0.80 -->
      <g style="fill:#262626;" transform="translate(380.178301 283.969812)scale(0.1 -0.1)">
       <defs>
        <path d="M 1131 2484 
Q 781 2613 612 2850 
Q 444 3088 444 3419 
Q 444 3919 803 4259 
Q 1163 4600 1759 4600 
Q 2359 4600 2725 4251 
Q 3091 3903 3091 3403 
Q 3091 3084 2923 2848 
Q 2756 2613 2416 2484 
Q 2838 2347 3058 2040 
Q 3278 1734 3278 1309 
Q 3278 722 2862 322 
Q 2447 -78 1769 -78 
Q 1091 -78 675 323 
Q 259 725 259 1325 
Q 259 1772 486 2073 
Q 713 2375 1131 2484 
z
M 1019 3438 
Q 1019 3113 1228 2906 
Q 1438 2700 1772 2700 
Q 2097 2700 2305 2904 
Q 2513 3109 2513 3406 
Q 2513 3716 2298 3927 
Q 2084 4138 1766 4138 
Q 1444 4138 1231 3931 
Q 1019 3725 1019 3438 
z
M 838 1322 
Q 838 1081 952 856 
Q 1066 631 1291 507 
Q 1516 384 1775 384 
Q 2178 384 2440 643 
Q 2703 903 2703 1303 
Q 2703 1709 2433 1975 
Q 2163 2241 1756 2241 
Q 1359 2241 1098 1978 
Q 838 1716 838 1322 
z
" id="ArialMT-38" transform="scale(0.015625)"/>
       </defs>
       <use xlink:href="#ArialMT-30"/>
       <use x="55.615234" xlink:href="#ArialMT-2e"/>
       <use x="83.398438" xlink:href="#ArialMT-38"/>
       <use x="139.013672" xlink:href="#ArialMT-30"/>
      </g>
     </g>
    </g>
    <g id="text_7">
     <!-- GGGI (more is more equal) -->
     <g style="fill:#262626;" transform="translate(152.96 297.237)scale(0.1 -0.1)">
      <defs>
       <path d="M 2638 1797 
L 2638 2334 
L 4578 2338 
L 4578 638 
Q 4131 281 3656 101 
Q 3181 -78 2681 -78 
Q 2006 -78 1454 211 
Q 903 500 622 1047 
Q 341 1594 341 2269 
Q 341 2938 620 3517 
Q 900 4097 1425 4378 
Q 1950 4659 2634 4659 
Q 3131 4659 3532 4498 
Q 3934 4338 4162 4050 
Q 4391 3763 4509 3300 
L 3963 3150 
Q 3859 3500 3706 3700 
Q 3553 3900 3268 4020 
Q 2984 4141 2638 4141 
Q 2222 4141 1919 4014 
Q 1616 3888 1430 3681 
Q 1244 3475 1141 3228 
Q 966 2803 966 2306 
Q 966 1694 1177 1281 
Q 1388 869 1791 669 
Q 2194 469 2647 469 
Q 3041 469 3416 620 
Q 3791 772 3984 944 
L 3984 1797 
L 2638 1797 
z
" id="ArialMT-47" transform="scale(0.015625)"/>
       <path d="M 597 0 
L 597 4581 
L 1203 4581 
L 1203 0 
L 597 0 
z
" id="ArialMT-49" transform="scale(0.015625)"/>
       <path id="ArialMT-20" transform="scale(0.015625)"/>
       <path d="M 1497 -1347 
Q 1031 -759 709 28 
Q 388 816 388 1659 
Q 388 2403 628 3084 
Q 909 3875 1497 4659 
L 1900 4659 
Q 1522 4009 1400 3731 
Q 1209 3300 1100 2831 
Q 966 2247 966 1656 
Q 966 153 1900 -1347 
L 1497 -1347 
z
" id="ArialMT-28" transform="scale(0.015625)"/>
       <path d="M 422 0 
L 422 3319 
L 925 3319 
L 925 2853 
Q 1081 3097 1340 3245 
Q 1600 3394 1931 3394 
Q 2300 3394 2536 3241 
Q 2772 3088 2869 2813 
Q 3263 3394 3894 3394 
Q 4388 3394 4653 3120 
Q 4919 2847 4919 2278 
L 4919 0 
L 4359 0 
L 4359 2091 
Q 4359 2428 4304 2576 
Q 4250 2725 4106 2815 
Q 3963 2906 3769 2906 
Q 3419 2906 3187 2673 
Q 2956 2441 2956 1928 
L 2956 0 
L 2394 0 
L 2394 2156 
Q 2394 2531 2256 2718 
Q 2119 2906 1806 2906 
Q 1569 2906 1367 2781 
Q 1166 2656 1075 2415 
Q 984 2175 984 1722 
L 984 0 
L 422 0 
z
" id="ArialMT-6d" transform="scale(0.015625)"/>
       <path d="M 213 1659 
Q 213 2581 725 3025 
Q 1153 3394 1769 3394 
Q 2453 3394 2887 2945 
Q 3322 2497 3322 1706 
Q 3322 1066 3130 698 
Q 2938 331 2570 128 
Q 2203 -75 1769 -75 
Q 1072 -75 642 372 
Q 213 819 213 1659 
z
M 791 1659 
Q 791 1022 1069 705 
Q 1347 388 1769 388 
Q 2188 388 2466 706 
Q 2744 1025 2744 1678 
Q 2744 2294 2464 2611 
Q 2184 2928 1769 2928 
Q 1347 2928 1069 2612 
Q 791 2297 791 1659 
z
" id="ArialMT-6f" transform="scale(0.015625)"/>
       <path d="M 416 0 
L 416 3319 
L 922 3319 
L 922 2816 
Q 1116 3169 1280 3281 
Q 1444 3394 1641 3394 
Q 1925 3394 2219 3213 
L 2025 2691 
Q 1819 2813 1613 2813 
Q 1428 2813 1281 2702 
Q 1134 2591 1072 2394 
Q 978 2094 978 1738 
L 978 0 
L 416 0 
z
" id="ArialMT-72" transform="scale(0.015625)"/>
       <path d="M 2694 1069 
L 3275 997 
Q 3138 488 2766 206 
Q 2394 -75 1816 -75 
Q 1088 -75 661 373 
Q 234 822 234 1631 
Q 234 2469 665 2931 
Q 1097 3394 1784 3394 
Q 2450 3394 2872 2941 
Q 3294 2488 3294 1666 
Q 3294 1616 3291 1516 
L 816 1516 
Q 847 969 1125 678 
Q 1403 388 1819 388 
Q 2128 388 2347 550 
Q 2566 713 2694 1069 
z
M 847 1978 
L 2700 1978 
Q 2663 2397 2488 2606 
Q 2219 2931 1791 2931 
Q 1403 2931 1139 2672 
Q 875 2413 847 1978 
z
" id="ArialMT-65" transform="scale(0.015625)"/>
       <path d="M 425 3934 
L 425 4581 
L 988 4581 
L 988 3934 
L 425 3934 
z
M 425 0 
L 425 3319 
L 988 3319 
L 988 0 
L 425 0 
z
" id="ArialMT-69" transform="scale(0.015625)"/>
       <path d="M 197 991 
L 753 1078 
Q 800 744 1014 566 
Q 1228 388 1613 388 
Q 2000 388 2187 545 
Q 2375 703 2375 916 
Q 2375 1106 2209 1216 
Q 2094 1291 1634 1406 
Q 1016 1563 777 1677 
Q 538 1791 414 1992 
Q 291 2194 291 2438 
Q 291 2659 392 2848 
Q 494 3038 669 3163 
Q 800 3259 1026 3326 
Q 1253 3394 1513 3394 
Q 1903 3394 2198 3281 
Q 2494 3169 2634 2976 
Q 2775 2784 2828 2463 
L 2278 2388 
Q 2241 2644 2061 2787 
Q 1881 2931 1553 2931 
Q 1166 2931 1000 2803 
Q 834 2675 834 2503 
Q 834 2394 903 2306 
Q 972 2216 1119 2156 
Q 1203 2125 1616 2013 
Q 2213 1853 2448 1751 
Q 2684 1650 2818 1456 
Q 2953 1263 2953 975 
Q 2953 694 2789 445 
Q 2625 197 2315 61 
Q 2006 -75 1616 -75 
Q 969 -75 630 194 
Q 291 463 197 991 
z
" id="ArialMT-73" transform="scale(0.015625)"/>
       <path d="M 2538 -1272 
L 2538 353 
Q 2406 169 2170 47 
Q 1934 -75 1669 -75 
Q 1078 -75 651 397 
Q 225 869 225 1691 
Q 225 2191 398 2587 
Q 572 2984 901 3189 
Q 1231 3394 1625 3394 
Q 2241 3394 2594 2875 
L 2594 3319 
L 3100 3319 
L 3100 -1272 
L 2538 -1272 
z
M 803 1669 
Q 803 1028 1072 708 
Q 1341 388 1716 388 
Q 2075 388 2334 692 
Q 2594 997 2594 1619 
Q 2594 2281 2320 2615 
Q 2047 2950 1678 2950 
Q 1313 2950 1058 2639 
Q 803 2328 803 1669 
z
" id="ArialMT-71" transform="scale(0.015625)"/>
       <path d="M 2597 0 
L 2597 488 
Q 2209 -75 1544 -75 
Q 1250 -75 995 37 
Q 741 150 617 320 
Q 494 491 444 738 
Q 409 903 409 1263 
L 409 3319 
L 972 3319 
L 972 1478 
Q 972 1038 1006 884 
Q 1059 663 1231 536 
Q 1403 409 1656 409 
Q 1909 409 2131 539 
Q 2353 669 2445 892 
Q 2538 1116 2538 1541 
L 2538 3319 
L 3100 3319 
L 3100 0 
L 2597 0 
z
" id="ArialMT-75" transform="scale(0.015625)"/>
       <path d="M 2588 409 
Q 2275 144 1986 34 
Q 1697 -75 1366 -75 
Q 819 -75 525 192 
Q 231 459 231 875 
Q 231 1119 342 1320 
Q 453 1522 633 1644 
Q 813 1766 1038 1828 
Q 1203 1872 1538 1913 
Q 2219 1994 2541 2106 
Q 2544 2222 2544 2253 
Q 2544 2597 2384 2738 
Q 2169 2928 1744 2928 
Q 1347 2928 1158 2789 
Q 969 2650 878 2297 
L 328 2372 
Q 403 2725 575 2942 
Q 747 3159 1072 3276 
Q 1397 3394 1825 3394 
Q 2250 3394 2515 3294 
Q 2781 3194 2906 3042 
Q 3031 2891 3081 2659 
Q 3109 2516 3109 2141 
L 3109 1391 
Q 3109 606 3145 398 
Q 3181 191 3288 0 
L 2700 0 
Q 2613 175 2588 409 
z
M 2541 1666 
Q 2234 1541 1622 1453 
Q 1275 1403 1131 1340 
Q 988 1278 909 1158 
Q 831 1038 831 891 
Q 831 666 1001 516 
Q 1172 366 1500 366 
Q 1825 366 2078 508 
Q 2331 650 2450 897 
Q 2541 1088 2541 1459 
L 2541 1666 
z
" id="ArialMT-61" transform="scale(0.015625)"/>
       <path d="M 409 0 
L 409 4581 
L 972 4581 
L 972 0 
L 409 0 
z
" id="ArialMT-6c" transform="scale(0.015625)"/>
       <path d="M 791 -1347 
L 388 -1347 
Q 1322 153 1322 1656 
Q 1322 2244 1188 2822 
Q 1081 3291 891 3722 
Q 769 4003 388 4659 
L 791 4659 
Q 1378 3875 1659 3084 
Q 1900 2403 1900 1659 
Q 1900 816 1576 28 
Q 1253 -759 791 -1347 
z
" id="ArialMT-29" transform="scale(0.015625)"/>
      </defs>
      <use xlink:href="#ArialMT-47"/>
      <use x="77.783203" xlink:href="#ArialMT-47"/>
      <use x="155.566406" xlink:href="#ArialMT-47"/>
      <use x="233.349609" xlink:href="#ArialMT-49"/>
      <use x="261.132812" xlink:href="#ArialMT-20"/>
      <use x="288.916016" xlink:href="#ArialMT-28"/>
      <use x="322.216797" xlink:href="#ArialMT-6d"/>
      <use x="405.517578" xlink:href="#ArialMT-6f"/>
      <use x="461.132812" xlink:href="#ArialMT-72"/>
      <use x="494.433594" xlink:href="#ArialMT-65"/>
      <use x="550.048828" xlink:href="#ArialMT-20"/>
      <use x="577.832031" xlink:href="#ArialMT-69"/>
      <use x="600.048828" xlink:href="#ArialMT-73"/>
      <use x="650.048828" xlink:href="#ArialMT-20"/>
      <use x="677.832031" xlink:href="#ArialMT-6d"/>
      <use x="761.132812" xlink:href="#ArialMT-6f"/>
      <use x="816.748047" xlink:href="#ArialMT-72"/>
      <use x="850.048828" xlink:href="#ArialMT-65"/>
      <use x="905.664062" xlink:href="#ArialMT-20"/>
      <use x="933.447266" xlink:href="#ArialMT-65"/>
      <use x="989.0625" xlink:href="#ArialMT-71"/>
      <use x="1044.677734" xlink:href="#ArialMT-75"/>
      <use x="1100.292969" xlink:href="#ArialMT-61"/>
      <use x="1155.908203" xlink:href="#ArialMT-6c"/>
      <use x="1178.125" xlink:href="#ArialMT-29"/>
     </g>
    </g>
   </g>
   <g id="matplotlib.axis_2">
    <g id="ytick_1">
     <g id="line2d_7"/>
     <g id="text_8">
      <!-- 0 -->
      <g style="fill:#262626;" transform="translate(25.90625 274.522459)scale(0.1 -0.1)">
       <use xlink:href="#ArialMT-30"/>
      </g>
     </g>
    </g>
    <g id="ytick_2">
     <g id="line2d_8"/>
     <g id="text_9">
      <!-- 10 -->
      <g style="fill:#262626;" transform="translate(20.345313 232.228752)scale(0.1 -0.1)">
       <defs>
        <path d="M 2384 0 
L 1822 0 
L 1822 3584 
Q 1619 3391 1289 3197 
Q 959 3003 697 2906 
L 697 3450 
Q 1169 3672 1522 3987 
Q 1875 4303 2022 4600 
L 2384 4600 
L 2384 0 
z
" id="ArialMT-31" transform="scale(0.015625)"/>
       </defs>
       <use xlink:href="#ArialMT-31"/>
       <use x="55.615234" xlink:href="#ArialMT-30"/>
      </g>
     </g>
    </g>
    <g id="ytick_3">
     <g id="line2d_9"/>
     <g id="text_10">
      <!-- 20 -->
      <g style="fill:#262626;" transform="translate(20.345313 189.935046)scale(0.1 -0.1)">
       <defs>
        <path d="M 3222 541 
L 3222 0 
L 194 0 
Q 188 203 259 391 
Q 375 700 629 1000 
Q 884 1300 1366 1694 
Q 2113 2306 2375 2664 
Q 2638 3022 2638 3341 
Q 2638 3675 2398 3904 
Q 2159 4134 1775 4134 
Q 1369 4134 1125 3890 
Q 881 3647 878 3216 
L 300 3275 
Q 359 3922 746 4261 
Q 1134 4600 1788 4600 
Q 2447 4600 2831 4234 
Q 3216 3869 3216 3328 
Q 3216 3053 3103 2787 
Q 2991 2522 2730 2228 
Q 2469 1934 1863 1422 
Q 1356 997 1212 845 
Q 1069 694 975 541 
L 3222 541 
z
" id="ArialMT-32" transform="scale(0.015625)"/>
       </defs>
       <use xlink:href="#ArialMT-32"/>
       <use x="55.615234" xlink:href="#ArialMT-30"/>
      </g>
     </g>
    </g>
    <g id="ytick_4">
     <g id="line2d_10"/>
     <g id="text_11">
      <!-- 30 -->
      <g style="fill:#262626;" transform="translate(20.345313 147.64134)scale(0.1 -0.1)">
       <defs>
        <path d="M 269 1209 
L 831 1284 
Q 928 806 1161 595 
Q 1394 384 1728 384 
Q 2125 384 2398 659 
Q 2672 934 2672 1341 
Q 2672 1728 2419 1979 
Q 2166 2231 1775 2231 
Q 1616 2231 1378 2169 
L 1441 2663 
Q 1497 2656 1531 2656 
Q 1891 2656 2178 2843 
Q 2466 3031 2466 3422 
Q 2466 3731 2256 3934 
Q 2047 4138 1716 4138 
Q 1388 4138 1169 3931 
Q 950 3725 888 3313 
L 325 3413 
Q 428 3978 793 4289 
Q 1159 4600 1703 4600 
Q 2078 4600 2393 4439 
Q 2709 4278 2876 4000 
Q 3044 3722 3044 3409 
Q 3044 3113 2884 2869 
Q 2725 2625 2413 2481 
Q 2819 2388 3044 2092 
Q 3269 1797 3269 1353 
Q 3269 753 2831 336 
Q 2394 -81 1725 -81 
Q 1122 -81 723 278 
Q 325 638 269 1209 
z
" id="ArialMT-33" transform="scale(0.015625)"/>
       </defs>
       <use xlink:href="#ArialMT-33"/>
       <use x="55.615234" xlink:href="#ArialMT-30"/>
      </g>
     </g>
    </g>
    <g id="ytick_5">
     <g id="line2d_11"/>
     <g id="text_12">
      <!-- 40 -->
      <g style="fill:#262626;" transform="translate(20.345313 105.347634)scale(0.1 -0.1)">
       <defs>
        <path d="M 2069 0 
L 2069 1097 
L 81 1097 
L 81 1613 
L 2172 4581 
L 2631 4581 
L 2631 1613 
L 3250 1613 
L 3250 1097 
L 2631 1097 
L 2631 0 
L 2069 0 
z
M 2069 1613 
L 2069 3678 
L 634 1613 
L 2069 1613 
z
" id="ArialMT-34" transform="scale(0.015625)"/>
       </defs>
       <use xlink:href="#ArialMT-34"/>
       <use x="55.615234" xlink:href="#ArialMT-30"/>
      </g>
     </g>
    </g>
    <g id="ytick_6">
     <g id="line2d_12"/>
     <g id="text_13">
      <!-- 50 -->
      <g style="fill:#262626;" transform="translate(20.345313 63.053927)scale(0.1 -0.1)">
       <use xlink:href="#ArialMT-35"/>
       <use x="55.615234" xlink:href="#ArialMT-30"/>
      </g>
     </g>
    </g>
    <g id="ytick_7">
     <g id="line2d_13"/>
     <g id="text_14">
      <!-- 60 -->
      <g style="fill:#262626;" transform="translate(20.345313 20.760221)scale(0.1 -0.1)">
       <use xlink:href="#ArialMT-36"/>
       <use x="55.615234" xlink:href="#ArialMT-30"/>
      </g>
     </g>
    </g>
    <g id="text_15">
     <!-- female share of natural science researchers -->
     <g style="fill:#262626;" transform="translate(14.357813 237.519281)rotate(-90)scale(0.1 -0.1)">
      <defs>
       <path d="M 556 0 
L 556 2881 
L 59 2881 
L 59 3319 
L 556 3319 
L 556 3672 
Q 556 4006 616 4169 
Q 697 4388 901 4523 
Q 1106 4659 1475 4659 
Q 1713 4659 2000 4603 
L 1916 4113 
Q 1741 4144 1584 4144 
Q 1328 4144 1222 4034 
Q 1116 3925 1116 3625 
L 1116 3319 
L 1763 3319 
L 1763 2881 
L 1116 2881 
L 1116 0 
L 556 0 
z
" id="ArialMT-66" transform="scale(0.015625)"/>
       <path d="M 422 0 
L 422 4581 
L 984 4581 
L 984 2938 
Q 1378 3394 1978 3394 
Q 2347 3394 2619 3248 
Q 2891 3103 3008 2847 
Q 3125 2591 3125 2103 
L 3125 0 
L 2563 0 
L 2563 2103 
Q 2563 2525 2380 2717 
Q 2197 2909 1863 2909 
Q 1613 2909 1392 2779 
Q 1172 2650 1078 2428 
Q 984 2206 984 1816 
L 984 0 
L 422 0 
z
" id="ArialMT-68" transform="scale(0.015625)"/>
       <path d="M 422 0 
L 422 3319 
L 928 3319 
L 928 2847 
Q 1294 3394 1984 3394 
Q 2284 3394 2536 3286 
Q 2788 3178 2913 3003 
Q 3038 2828 3088 2588 
Q 3119 2431 3119 2041 
L 3119 0 
L 2556 0 
L 2556 2019 
Q 2556 2363 2490 2533 
Q 2425 2703 2258 2804 
Q 2091 2906 1866 2906 
Q 1506 2906 1245 2678 
Q 984 2450 984 1813 
L 984 0 
L 422 0 
z
" id="ArialMT-6e" transform="scale(0.015625)"/>
       <path d="M 1650 503 
L 1731 6 
Q 1494 -44 1306 -44 
Q 1000 -44 831 53 
Q 663 150 594 308 
Q 525 466 525 972 
L 525 2881 
L 113 2881 
L 113 3319 
L 525 3319 
L 525 4141 
L 1084 4478 
L 1084 3319 
L 1650 3319 
L 1650 2881 
L 1084 2881 
L 1084 941 
Q 1084 700 1114 631 
Q 1144 563 1211 522 
Q 1278 481 1403 481 
Q 1497 481 1650 503 
z
" id="ArialMT-74" transform="scale(0.015625)"/>
       <path d="M 2588 1216 
L 3141 1144 
Q 3050 572 2676 248 
Q 2303 -75 1759 -75 
Q 1078 -75 664 370 
Q 250 816 250 1647 
Q 250 2184 428 2587 
Q 606 2991 970 3192 
Q 1334 3394 1763 3394 
Q 2303 3394 2647 3120 
Q 2991 2847 3088 2344 
L 2541 2259 
Q 2463 2594 2264 2762 
Q 2066 2931 1784 2931 
Q 1359 2931 1093 2626 
Q 828 2322 828 1663 
Q 828 994 1084 691 
Q 1341 388 1753 388 
Q 2084 388 2306 591 
Q 2528 794 2588 1216 
z
" id="ArialMT-63" transform="scale(0.015625)"/>
      </defs>
      <use xlink:href="#ArialMT-66"/>
      <use x="27.783203" xlink:href="#ArialMT-65"/>
      <use x="83.398438" xlink:href="#ArialMT-6d"/>
      <use x="166.699219" xlink:href="#ArialMT-61"/>
      <use x="222.314453" xlink:href="#ArialMT-6c"/>
      <use x="244.53125" xlink:href="#ArialMT-65"/>
      <use x="300.146484" xlink:href="#ArialMT-20"/>
      <use x="327.929688" xlink:href="#ArialMT-73"/>
      <use x="377.929688" xlink:href="#ArialMT-68"/>
      <use x="433.544922" xlink:href="#ArialMT-61"/>
      <use x="489.160156" xlink:href="#ArialMT-72"/>
      <use x="522.460938" xlink:href="#ArialMT-65"/>
      <use x="578.076172" xlink:href="#ArialMT-20"/>
      <use x="605.859375" xlink:href="#ArialMT-6f"/>
      <use x="661.474609" xlink:href="#ArialMT-66"/>
      <use x="689.257812" xlink:href="#ArialMT-20"/>
      <use x="717.041016" xlink:href="#ArialMT-6e"/>
      <use x="772.65625" xlink:href="#ArialMT-61"/>
      <use x="828.271484" xlink:href="#ArialMT-74"/>
      <use x="856.054688" xlink:href="#ArialMT-75"/>
      <use x="911.669922" xlink:href="#ArialMT-72"/>
      <use x="944.970703" xlink:href="#ArialMT-61"/>
      <use x="1000.585938" xlink:href="#ArialMT-6c"/>
      <use x="1022.802734" xlink:href="#ArialMT-20"/>
      <use x="1050.585938" xlink:href="#ArialMT-73"/>
      <use x="1100.585938" xlink:href="#ArialMT-63"/>
      <use x="1150.585938" xlink:href="#ArialMT-69"/>
      <use x="1172.802734" xlink:href="#ArialMT-65"/>
      <use x="1228.417969" xlink:href="#ArialMT-6e"/>
      <use x="1284.033203" xlink:href="#ArialMT-63"/>
      <use x="1334.033203" xlink:href="#ArialMT-65"/>
      <use x="1389.648438" xlink:href="#ArialMT-20"/>
      <use x="1417.431641" xlink:href="#ArialMT-72"/>
      <use x="1450.732422" xlink:href="#ArialMT-65"/>
      <use x="1506.347656" xlink:href="#ArialMT-73"/>
      <use x="1556.347656" xlink:href="#ArialMT-65"/>
      <use x="1611.962891" xlink:href="#ArialMT-61"/>
      <use x="1667.578125" xlink:href="#ArialMT-72"/>
      <use x="1700.878906" xlink:href="#ArialMT-63"/>
      <use x="1750.878906" xlink:href="#ArialMT-68"/>
      <use x="1806.494141" xlink:href="#ArialMT-65"/>
      <use x="1862.109375" xlink:href="#ArialMT-72"/>
      <use x="1895.410156" xlink:href="#ArialMT-73"/>
     </g>
    </g>
   </g>
   <g id="PolyCollection_1">
    <path clip-path="url(#pad74f4bd41)" d="M 51.199915 130.217694 
L 51.199915 258.347958 
L 54.44646 255.5762 
L 57.693006 252.670838 
L 60.939551 249.967565 
L 64.186097 247.254231 
L 67.432642 244.530623 
L 70.679188 241.796528 
L 73.925733 239.05174 
L 77.172278 236.298763 
L 80.418824 233.559364 
L 83.665369 230.669664 
L 86.911915 226.861374 
L 90.15846 223.119932 
L 93.405006 219.712114 
L 96.651551 217.587575 
L 99.898097 214.985374 
L 103.144642 211.800912 
L 106.391188 209.124814 
L 109.637733 206.515753 
L 112.884278 203.519026 
L 116.130824 200.639425 
L 119.377369 197.753542 
L 122.623915 195.300629 
L 125.87046 192.871108 
L 129.117006 190.487927 
L 132.363551 188.241533 
L 135.610097 186.667242 
L 138.856642 184.294995 
L 142.103187 183.526752 
L 145.349733 182.335947 
L 148.596278 180.897416 
L 151.842824 179.13152 
L 155.089369 176.489803 
L 158.335915 174.267873 
L 161.58246 172.450352 
L 164.829006 170.043342 
L 168.075551 168.427414 
L 171.322097 166.819381 
L 174.568642 165.65194 
L 177.815187 163.957474 
L 181.061733 162.139258 
L 184.308278 158.890398 
L 187.554824 156.176185 
L 190.801369 153.546843 
L 194.047915 151.076634 
L 197.29446 150.842604 
L 200.541006 148.79629 
L 203.787551 146.906613 
L 207.034097 145.63772 
L 210.280642 142.773971 
L 213.527187 140.05748 
L 216.773733 139.143426 
L 220.020278 138.041483 
L 223.266824 136.738807 
L 226.513369 136.084752 
L 229.759915 135.527787 
L 233.00646 135.744087 
L 236.253006 135.733279 
L 239.499551 136.058898 
L 242.746097 135.735409 
L 245.992642 136.329094 
L 249.239187 136.010475 
L 252.485733 135.517708 
L 255.732278 136.697421 
L 258.978824 136.242031 
L 262.225369 135.193636 
L 265.471915 134.004174 
L 268.71846 131.965461 
L 271.965006 129.859559 
L 275.211551 127.473781 
L 278.458097 125.456391 
L 281.704642 124.29703 
L 284.951188 123.310909 
L 288.197733 121.810677 
L 291.444278 121.418597 
L 294.690824 122.631894 
L 297.937369 122.607907 
L 301.183915 122.530828 
L 304.43046 122.668207 
L 307.677006 123.087569 
L 310.923551 123.937584 
L 314.170097 124.886442 
L 317.416642 125.17661 
L 320.663187 126.251827 
L 323.909733 127.075324 
L 327.156278 127.804235 
L 330.402824 128.739685 
L 333.649369 129.787731 
L 336.895915 131.212373 
L 340.14246 132.797775 
L 343.389006 134.500767 
L 346.635551 135.637257 
L 349.882097 137.352118 
L 353.128642 139.158979 
L 356.375187 140.605721 
L 359.621733 142.498672 
L 362.868278 144.495041 
L 366.114824 146.913517 
L 369.361369 149.737916 
L 372.607915 152.642271 
L 375.85446 154.648509 
L 375.85446 24.606537 
L 375.85446 24.606537 
L 372.607915 27.51571 
L 369.361369 30.032521 
L 366.114824 32.606721 
L 362.868278 35.69891 
L 359.621733 38.888618 
L 356.375187 41.28821 
L 353.128642 43.599874 
L 349.882097 45.668319 
L 346.635551 47.804688 
L 343.389006 50.431058 
L 340.14246 52.723152 
L 336.895915 55.117852 
L 333.649369 57.552383 
L 330.402824 59.622003 
L 327.156278 61.586964 
L 323.909733 63.80893 
L 320.663187 66.133666 
L 317.416642 68.379816 
L 314.170097 70.46867 
L 310.923551 72.62117 
L 307.677006 74.845981 
L 304.43046 76.503879 
L 301.183915 78.640839 
L 297.937369 80.544034 
L 294.690824 81.460174 
L 291.444278 83.124145 
L 288.197733 83.563693 
L 284.951188 84.807288 
L 281.704642 86.779708 
L 278.458097 88.321054 
L 275.211551 89.367959 
L 271.965006 91.114918 
L 268.71846 92.058404 
L 265.471915 93.438572 
L 262.225369 94.244295 
L 258.978824 95.096957 
L 255.732278 96.349543 
L 252.485733 98.086583 
L 249.239187 99.855616 
L 245.992642 99.937978 
L 242.746097 99.722657 
L 239.499551 99.991292 
L 236.253006 100.015446 
L 233.00646 99.598199 
L 229.759915 99.762583 
L 226.513369 98.857917 
L 223.266824 97.956759 
L 220.020278 98.009813 
L 216.773733 98.232645 
L 213.527187 98.787378 
L 210.280642 98.811184 
L 207.034097 99.296194 
L 203.787551 100.358529 
L 200.541006 101.319409 
L 197.29446 101.564497 
L 194.047915 102.208375 
L 190.801369 103.967278 
L 187.554824 104.556381 
L 184.308278 105.337114 
L 181.061733 106.384212 
L 177.815187 108.393604 
L 174.568642 110.434733 
L 171.322097 112.011106 
L 168.075551 113.612683 
L 164.829006 115.185915 
L 161.58246 117.100102 
L 158.335915 118.105817 
L 155.089369 118.893 
L 151.842824 119.77454 
L 148.596278 120.554952 
L 145.349733 121.075964 
L 142.103187 121.87313 
L 138.856642 122.237633 
L 135.610097 122.666697 
L 132.363551 122.960046 
L 129.117006 123.233844 
L 125.87046 123.593975 
L 122.623915 124.321865 
L 119.377369 124.659579 
L 116.130824 125.522783 
L 112.884278 126.225118 
L 109.637733 126.868007 
L 106.391188 127.293317 
L 103.144642 127.098875 
L 99.898097 126.888883 
L 96.651551 127.068062 
L 93.405006 127.276948 
L 90.15846 127.078511 
L 86.911915 127.084707 
L 83.665369 127.640569 
L 80.418824 127.753248 
L 77.172278 128.065822 
L 73.925733 128.655618 
L 70.679188 129.378923 
L 67.432642 130.007936 
L 64.186097 130.280004 
L 60.939551 130.453882 
L 57.693006 130.421211 
L 54.44646 130.295736 
L 51.199915 130.217694 
z
" style="fill:#00008b;fill-opacity:0.15;"/>
   </g>
   <g id="text_16">
    <!-- Angola -->
    <g style="fill:#8b0000;opacity:0.75;" transform="translate(163.096109 123.926205)scale(0.04 -0.04)">
     <defs>
      <path d="M -9 0 
L 1750 4581 
L 2403 4581 
L 4278 0 
L 3588 0 
L 3053 1388 
L 1138 1388 
L 634 0 
L -9 0 
z
M 1313 1881 
L 2866 1881 
L 2388 3150 
Q 2169 3728 2063 4100 
Q 1975 3659 1816 3225 
L 1313 1881 
z
" id="ArialMT-41" transform="scale(0.015625)"/>
      <path d="M 319 -275 
L 866 -356 
Q 900 -609 1056 -725 
Q 1266 -881 1628 -881 
Q 2019 -881 2231 -725 
Q 2444 -569 2519 -288 
Q 2563 -116 2559 434 
Q 2191 0 1641 0 
Q 956 0 581 494 
Q 206 988 206 1678 
Q 206 2153 378 2554 
Q 550 2956 876 3175 
Q 1203 3394 1644 3394 
Q 2231 3394 2613 2919 
L 2613 3319 
L 3131 3319 
L 3131 450 
Q 3131 -325 2973 -648 
Q 2816 -972 2473 -1159 
Q 2131 -1347 1631 -1347 
Q 1038 -1347 672 -1080 
Q 306 -813 319 -275 
z
M 784 1719 
Q 784 1066 1043 766 
Q 1303 466 1694 466 
Q 2081 466 2343 764 
Q 2606 1063 2606 1700 
Q 2606 2309 2336 2618 
Q 2066 2928 1684 2928 
Q 1309 2928 1046 2623 
Q 784 2319 784 1719 
z
" id="ArialMT-67" transform="scale(0.015625)"/>
     </defs>
     <use xlink:href="#ArialMT-41"/>
     <use x="66.699219" xlink:href="#ArialMT-6e"/>
     <use x="122.314453" xlink:href="#ArialMT-67"/>
     <use x="177.929688" xlink:href="#ArialMT-6f"/>
     <use x="233.544922" xlink:href="#ArialMT-6c"/>
     <use x="255.761719" xlink:href="#ArialMT-61"/>
    </g>
   </g>
   <g id="text_17">
    <!-- Armenia -->
    <g style="fill:#006400;opacity:0.75;" transform="translate(206.664468 75.734818)scale(0.04 -0.04)">
     <use xlink:href="#ArialMT-41"/>
     <use x="66.699219" xlink:href="#ArialMT-72"/>
     <use x="100" xlink:href="#ArialMT-6d"/>
     <use x="183.300781" xlink:href="#ArialMT-65"/>
     <use x="238.916016" xlink:href="#ArialMT-6e"/>
     <use x="294.53125" xlink:href="#ArialMT-69"/>
     <use x="316.748047" xlink:href="#ArialMT-61"/>
    </g>
   </g>
   <g id="text_18">
    <!-- Azerbaijan -->
    <g style="fill:#006400;opacity:0.75;" transform="translate(216.502485 43.991101)scale(0.04 -0.04)">
     <defs>
      <path d="M 125 0 
L 125 456 
L 2238 2881 
Q 1878 2863 1603 2863 
L 250 2863 
L 250 3319 
L 2963 3319 
L 2963 2947 
L 1166 841 
L 819 456 
Q 1197 484 1528 484 
L 3063 484 
L 3063 0 
L 125 0 
z
" id="ArialMT-7a" transform="scale(0.015625)"/>
      <path d="M 941 0 
L 419 0 
L 419 4581 
L 981 4581 
L 981 2947 
Q 1338 3394 1891 3394 
Q 2197 3394 2470 3270 
Q 2744 3147 2920 2923 
Q 3097 2700 3197 2384 
Q 3297 2069 3297 1709 
Q 3297 856 2875 390 
Q 2453 -75 1863 -75 
Q 1275 -75 941 416 
L 941 0 
z
M 934 1684 
Q 934 1088 1097 822 
Q 1363 388 1816 388 
Q 2184 388 2453 708 
Q 2722 1028 2722 1663 
Q 2722 2313 2464 2622 
Q 2206 2931 1841 2931 
Q 1472 2931 1203 2611 
Q 934 2291 934 1684 
z
" id="ArialMT-62" transform="scale(0.015625)"/>
      <path d="M 419 3928 
L 419 4581 
L 981 4581 
L 981 3928 
L 419 3928 
z
M -294 -1288 
L -188 -809 
Q -19 -853 78 -853 
Q 250 -853 334 -739 
Q 419 -625 419 -169 
L 419 3319 
L 981 3319 
L 981 -181 
Q 981 -794 822 -1034 
Q 619 -1347 147 -1347 
Q -81 -1347 -294 -1288 
z
" id="ArialMT-6a" transform="scale(0.015625)"/>
     </defs>
     <use xlink:href="#ArialMT-41"/>
     <use x="66.699219" xlink:href="#ArialMT-7a"/>
     <use x="116.699219" xlink:href="#ArialMT-65"/>
     <use x="172.314453" xlink:href="#ArialMT-72"/>
     <use x="205.615234" xlink:href="#ArialMT-62"/>
     <use x="261.230469" xlink:href="#ArialMT-61"/>
     <use x="316.845703" xlink:href="#ArialMT-69"/>
     <use x="339.0625" xlink:href="#ArialMT-6a"/>
     <use x="361.279297" xlink:href="#ArialMT-61"/>
     <use x="416.894531" xlink:href="#ArialMT-6e"/>
    </g>
   </g>
   <g id="text_19">
    <!-- Bahrain -->
    <g style="fill:#006400;opacity:0.75;" transform="translate(172.934126 100.688104)scale(0.04 -0.04)">
     <defs>
      <path d="M 469 0 
L 469 4581 
L 2188 4581 
Q 2713 4581 3030 4442 
Q 3347 4303 3526 4014 
Q 3706 3725 3706 3409 
Q 3706 3116 3547 2856 
Q 3388 2597 3066 2438 
Q 3481 2316 3704 2022 
Q 3928 1728 3928 1328 
Q 3928 1006 3792 729 
Q 3656 453 3456 303 
Q 3256 153 2954 76 
Q 2653 0 2216 0 
L 469 0 
z
M 1075 2656 
L 2066 2656 
Q 2469 2656 2644 2709 
Q 2875 2778 2992 2937 
Q 3109 3097 3109 3338 
Q 3109 3566 3000 3739 
Q 2891 3913 2687 3977 
Q 2484 4041 1991 4041 
L 1075 4041 
L 1075 2656 
z
M 1075 541 
L 2216 541 
Q 2509 541 2628 563 
Q 2838 600 2978 687 
Q 3119 775 3209 942 
Q 3300 1109 3300 1328 
Q 3300 1584 3169 1773 
Q 3038 1963 2805 2039 
Q 2572 2116 2134 2116 
L 1075 2116 
L 1075 541 
z
" id="ArialMT-42" transform="scale(0.015625)"/>
     </defs>
     <use xlink:href="#ArialMT-42"/>
     <use x="66.699219" xlink:href="#ArialMT-61"/>
     <use x="122.314453" xlink:href="#ArialMT-68"/>
     <use x="177.929688" xlink:href="#ArialMT-72"/>
     <use x="211.230469" xlink:href="#ArialMT-61"/>
     <use x="266.845703" xlink:href="#ArialMT-69"/>
     <use x="289.0625" xlink:href="#ArialMT-6e"/>
    </g>
   </g>
   <g id="text_20">
    <!-- Belarus -->
    <g style="fill:#00008b;opacity:0.75;" transform="translate(299.42291 57.971461)scale(0.04 -0.04)">
     <use xlink:href="#ArialMT-42"/>
     <use x="66.699219" xlink:href="#ArialMT-65"/>
     <use x="122.314453" xlink:href="#ArialMT-6c"/>
     <use x="144.53125" xlink:href="#ArialMT-61"/>
     <use x="200.146484" xlink:href="#ArialMT-72"/>
     <use x="233.447266" xlink:href="#ArialMT-75"/>
     <use x="289.0625" xlink:href="#ArialMT-73"/>
    </g>
   </g>
   <g id="text_21">
    <!-- Botswana -->
    <g style="fill:#8b0000;opacity:0.75;" transform="translate(265.692567 154.401111)scale(0.04 -0.04)">
     <defs>
      <path d="M 1034 0 
L 19 3319 
L 600 3319 
L 1128 1403 
L 1325 691 
Q 1338 744 1497 1375 
L 2025 3319 
L 2603 3319 
L 3100 1394 
L 3266 759 
L 3456 1400 
L 4025 3319 
L 4572 3319 
L 3534 0 
L 2950 0 
L 2422 1988 
L 2294 2553 
L 1622 0 
L 1034 0 
z
" id="ArialMT-77" transform="scale(0.015625)"/>
     </defs>
     <use xlink:href="#ArialMT-42"/>
     <use x="66.699219" xlink:href="#ArialMT-6f"/>
     <use x="122.314453" xlink:href="#ArialMT-74"/>
     <use x="150.097656" xlink:href="#ArialMT-73"/>
     <use x="200.097656" xlink:href="#ArialMT-77"/>
     <use x="272.314453" xlink:href="#ArialMT-61"/>
     <use x="327.929688" xlink:href="#ArialMT-6e"/>
     <use x="383.544922" xlink:href="#ArialMT-61"/>
    </g>
   </g>
   <g id="text_22">
    <!-- Bulgaria -->
    <g style="fill:#00008b;opacity:0.75;" transform="translate(282.557739 56.256275)scale(0.04 -0.04)">
     <use xlink:href="#ArialMT-42"/>
     <use x="66.699219" xlink:href="#ArialMT-75"/>
     <use x="122.314453" xlink:href="#ArialMT-6c"/>
     <use x="144.53125" xlink:href="#ArialMT-67"/>
     <use x="200.146484" xlink:href="#ArialMT-61"/>
     <use x="255.761719" xlink:href="#ArialMT-72"/>
     <use x="289.0625" xlink:href="#ArialMT-69"/>
     <use x="311.279297" xlink:href="#ArialMT-61"/>
    </g>
   </g>
   <g id="text_23">
    <!-- BurkinaFaso -->
    <g style="fill:#8b0000;opacity:0.75;" transform="translate(182.772142 229.260972)scale(0.04 -0.04)">
     <defs>
      <path d="M 425 0 
L 425 4581 
L 988 4581 
L 988 1969 
L 2319 3319 
L 3047 3319 
L 1778 2088 
L 3175 0 
L 2481 0 
L 1384 1697 
L 988 1316 
L 988 0 
L 425 0 
z
" id="ArialMT-6b" transform="scale(0.015625)"/>
      <path d="M 525 0 
L 525 4581 
L 3616 4581 
L 3616 4041 
L 1131 4041 
L 1131 2622 
L 3281 2622 
L 3281 2081 
L 1131 2081 
L 1131 0 
L 525 0 
z
" id="ArialMT-46" transform="scale(0.015625)"/>
     </defs>
     <use xlink:href="#ArialMT-42"/>
     <use x="66.699219" xlink:href="#ArialMT-75"/>
     <use x="122.314453" xlink:href="#ArialMT-72"/>
     <use x="155.615234" xlink:href="#ArialMT-6b"/>
     <use x="205.615234" xlink:href="#ArialMT-69"/>
     <use x="227.832031" xlink:href="#ArialMT-6e"/>
     <use x="283.447266" xlink:href="#ArialMT-61"/>
     <use x="339.0625" xlink:href="#ArialMT-46"/>
     <use x="400.146484" xlink:href="#ArialMT-61"/>
     <use x="455.761719" xlink:href="#ArialMT-73"/>
     <use x="505.761719" xlink:href="#ArialMT-6f"/>
    </g>
   </g>
   <g id="text_24">
    <!-- Chile -->
    <g style="fill:#cd853f;opacity:0.75;" transform="translate(248.827396 159.899293)scale(0.04 -0.04)">
     <defs>
      <path d="M 3763 1606 
L 4369 1453 
Q 4178 706 3683 314 
Q 3188 -78 2472 -78 
Q 1731 -78 1267 223 
Q 803 525 561 1097 
Q 319 1669 319 2325 
Q 319 3041 592 3573 
Q 866 4106 1370 4382 
Q 1875 4659 2481 4659 
Q 3169 4659 3637 4309 
Q 4106 3959 4291 3325 
L 3694 3184 
Q 3534 3684 3231 3912 
Q 2928 4141 2469 4141 
Q 1941 4141 1586 3887 
Q 1231 3634 1087 3207 
Q 944 2781 944 2328 
Q 944 1744 1114 1308 
Q 1284 872 1643 656 
Q 2003 441 2422 441 
Q 2931 441 3284 734 
Q 3638 1028 3763 1606 
z
" id="ArialMT-43" transform="scale(0.015625)"/>
     </defs>
     <use xlink:href="#ArialMT-43"/>
     <use x="72.216797" xlink:href="#ArialMT-68"/>
     <use x="127.832031" xlink:href="#ArialMT-69"/>
     <use x="150.048828" xlink:href="#ArialMT-6c"/>
     <use x="172.265625" xlink:href="#ArialMT-65"/>
    </g>
   </g>
   <g id="text_25">
    <!-- Colombia -->
    <g style="fill:#cd853f;opacity:0.75;" transform="translate(286.774031 137.483629)scale(0.04 -0.04)">
     <use xlink:href="#ArialMT-43"/>
     <use x="72.216797" xlink:href="#ArialMT-6f"/>
     <use x="127.832031" xlink:href="#ArialMT-6c"/>
     <use x="150.048828" xlink:href="#ArialMT-6f"/>
     <use x="205.664062" xlink:href="#ArialMT-6d"/>
     <use x="288.964844" xlink:href="#ArialMT-62"/>
     <use x="344.580078" xlink:href="#ArialMT-69"/>
     <use x="366.796875" xlink:href="#ArialMT-61"/>
    </g>
   </g>
   <g id="text_26">
    <!-- CostaRica -->
    <g style="fill:#cd853f;opacity:0.75;" transform="translate(296.612048 116.759713)scale(0.04 -0.04)">
     <defs>
      <path d="M 503 0 
L 503 4581 
L 2534 4581 
Q 3147 4581 3465 4457 
Q 3784 4334 3975 4021 
Q 4166 3709 4166 3331 
Q 4166 2844 3850 2509 
Q 3534 2175 2875 2084 
Q 3116 1969 3241 1856 
Q 3506 1613 3744 1247 
L 4541 0 
L 3778 0 
L 3172 953 
Q 2906 1366 2734 1584 
Q 2563 1803 2427 1890 
Q 2291 1978 2150 2013 
Q 2047 2034 1813 2034 
L 1109 2034 
L 1109 0 
L 503 0 
z
M 1109 2559 
L 2413 2559 
Q 2828 2559 3062 2645 
Q 3297 2731 3419 2920 
Q 3541 3109 3541 3331 
Q 3541 3656 3305 3865 
Q 3069 4075 2559 4075 
L 1109 4075 
L 1109 2559 
z
" id="ArialMT-52" transform="scale(0.015625)"/>
     </defs>
     <use xlink:href="#ArialMT-43"/>
     <use x="72.216797" xlink:href="#ArialMT-6f"/>
     <use x="127.832031" xlink:href="#ArialMT-73"/>
     <use x="177.832031" xlink:href="#ArialMT-74"/>
     <use x="205.615234" xlink:href="#ArialMT-61"/>
     <use x="261.230469" xlink:href="#ArialMT-52"/>
     <use x="333.447266" xlink:href="#ArialMT-69"/>
     <use x="355.664062" xlink:href="#ArialMT-63"/>
     <use x="405.664062" xlink:href="#ArialMT-61"/>
    </g>
   </g>
   <g id="text_27">
    <!-- Croatia -->
    <g style="fill:#00008b;opacity:0.75;" transform="translate(262.881706 61.777895)scale(0.04 -0.04)">
     <use xlink:href="#ArialMT-43"/>
     <use x="72.216797" xlink:href="#ArialMT-72"/>
     <use x="105.517578" xlink:href="#ArialMT-6f"/>
     <use x="161.132812" xlink:href="#ArialMT-61"/>
     <use x="216.748047" xlink:href="#ArialMT-74"/>
     <use x="244.53125" xlink:href="#ArialMT-69"/>
     <use x="266.748047" xlink:href="#ArialMT-61"/>
    </g>
   </g>
   <g id="text_28">
    <!-- Cyprus -->
    <g style="fill:#006400;opacity:0.75;" transform="translate(210.880761 108.301909)scale(0.04 -0.04)">
     <defs>
      <path d="M 397 -1278 
L 334 -750 
Q 519 -800 656 -800 
Q 844 -800 956 -737 
Q 1069 -675 1141 -563 
Q 1194 -478 1313 -144 
Q 1328 -97 1363 -6 
L 103 3319 
L 709 3319 
L 1400 1397 
Q 1534 1031 1641 628 
Q 1738 1016 1872 1384 
L 2581 3319 
L 3144 3319 
L 1881 -56 
Q 1678 -603 1566 -809 
Q 1416 -1088 1222 -1217 
Q 1028 -1347 759 -1347 
Q 597 -1347 397 -1278 
z
" id="ArialMT-79" transform="scale(0.015625)"/>
      <path d="M 422 -1272 
L 422 3319 
L 934 3319 
L 934 2888 
Q 1116 3141 1344 3267 
Q 1572 3394 1897 3394 
Q 2322 3394 2647 3175 
Q 2972 2956 3137 2557 
Q 3303 2159 3303 1684 
Q 3303 1175 3120 767 
Q 2938 359 2589 142 
Q 2241 -75 1856 -75 
Q 1575 -75 1351 44 
Q 1128 163 984 344 
L 984 -1272 
L 422 -1272 
z
M 931 1641 
Q 931 1000 1190 694 
Q 1450 388 1819 388 
Q 2194 388 2461 705 
Q 2728 1022 2728 1688 
Q 2728 2322 2467 2637 
Q 2206 2953 1844 2953 
Q 1484 2953 1207 2617 
Q 931 2281 931 1641 
z
" id="ArialMT-70" transform="scale(0.015625)"/>
     </defs>
     <use xlink:href="#ArialMT-43"/>
     <use x="72.216797" xlink:href="#ArialMT-79"/>
     <use x="122.216797" xlink:href="#ArialMT-70"/>
     <use x="177.832031" xlink:href="#ArialMT-72"/>
     <use x="211.132812" xlink:href="#ArialMT-75"/>
     <use x="266.748047" xlink:href="#ArialMT-73"/>
    </g>
   </g>
   <g id="text_29">
    <!-- Egypt -->
    <g style="fill:#8b0000;opacity:0.75;" transform="translate(109.689734 99.818793)scale(0.04 -0.04)">
     <defs>
      <path d="M 506 0 
L 506 4581 
L 3819 4581 
L 3819 4041 
L 1113 4041 
L 1113 2638 
L 3647 2638 
L 3647 2100 
L 1113 2100 
L 1113 541 
L 3925 541 
L 3925 0 
L 506 0 
z
" id="ArialMT-45" transform="scale(0.015625)"/>
     </defs>
     <use xlink:href="#ArialMT-45"/>
     <use x="66.699219" xlink:href="#ArialMT-67"/>
     <use x="122.314453" xlink:href="#ArialMT-79"/>
     <use x="172.314453" xlink:href="#ArialMT-70"/>
     <use x="227.929688" xlink:href="#ArialMT-74"/>
    </g>
   </g>
   <g id="text_30">
    <!-- ElSalvador -->
    <g style="fill:#cd853f;opacity:0.75;" transform="translate(260.070844 122.257895)scale(0.04 -0.04)">
     <defs>
      <path d="M 288 1472 
L 859 1522 
Q 900 1178 1048 958 
Q 1197 738 1509 602 
Q 1822 466 2213 466 
Q 2559 466 2825 569 
Q 3091 672 3220 851 
Q 3350 1031 3350 1244 
Q 3350 1459 3225 1620 
Q 3100 1781 2813 1891 
Q 2628 1963 1997 2114 
Q 1366 2266 1113 2400 
Q 784 2572 623 2826 
Q 463 3081 463 3397 
Q 463 3744 659 4045 
Q 856 4347 1234 4503 
Q 1613 4659 2075 4659 
Q 2584 4659 2973 4495 
Q 3363 4331 3572 4012 
Q 3781 3694 3797 3291 
L 3216 3247 
Q 3169 3681 2898 3903 
Q 2628 4125 2100 4125 
Q 1550 4125 1298 3923 
Q 1047 3722 1047 3438 
Q 1047 3191 1225 3031 
Q 1400 2872 2139 2705 
Q 2878 2538 3153 2413 
Q 3553 2228 3743 1945 
Q 3934 1663 3934 1294 
Q 3934 928 3725 604 
Q 3516 281 3123 101 
Q 2731 -78 2241 -78 
Q 1619 -78 1198 103 
Q 778 284 539 648 
Q 300 1013 288 1472 
z
" id="ArialMT-53" transform="scale(0.015625)"/>
      <path d="M 1344 0 
L 81 3319 
L 675 3319 
L 1388 1331 
Q 1503 1009 1600 663 
Q 1675 925 1809 1294 
L 2547 3319 
L 3125 3319 
L 1869 0 
L 1344 0 
z
" id="ArialMT-76" transform="scale(0.015625)"/>
      <path d="M 2575 0 
L 2575 419 
Q 2259 -75 1647 -75 
Q 1250 -75 917 144 
Q 584 363 401 755 
Q 219 1147 219 1656 
Q 219 2153 384 2558 
Q 550 2963 881 3178 
Q 1213 3394 1622 3394 
Q 1922 3394 2156 3267 
Q 2391 3141 2538 2938 
L 2538 4581 
L 3097 4581 
L 3097 0 
L 2575 0 
z
M 797 1656 
Q 797 1019 1065 703 
Q 1334 388 1700 388 
Q 2069 388 2326 689 
Q 2584 991 2584 1609 
Q 2584 2291 2321 2609 
Q 2059 2928 1675 2928 
Q 1300 2928 1048 2622 
Q 797 2316 797 1656 
z
" id="ArialMT-64" transform="scale(0.015625)"/>
     </defs>
     <use xlink:href="#ArialMT-45"/>
     <use x="66.699219" xlink:href="#ArialMT-6c"/>
     <use x="88.916016" xlink:href="#ArialMT-53"/>
     <use x="155.615234" xlink:href="#ArialMT-61"/>
     <use x="211.230469" xlink:href="#ArialMT-6c"/>
     <use x="233.447266" xlink:href="#ArialMT-76"/>
     <use x="283.447266" xlink:href="#ArialMT-61"/>
     <use x="339.0625" xlink:href="#ArialMT-64"/>
     <use x="394.677734" xlink:href="#ArialMT-6f"/>
     <use x="450.292969" xlink:href="#ArialMT-72"/>
    </g>
   </g>
   <g id="text_31">
    <!-- Estonia -->
    <g style="fill:#00008b;opacity:0.75;" transform="translate(320.504374 110.415657)scale(0.04 -0.04)">
     <use xlink:href="#ArialMT-45"/>
     <use x="66.699219" xlink:href="#ArialMT-73"/>
     <use x="116.699219" xlink:href="#ArialMT-74"/>
     <use x="144.482422" xlink:href="#ArialMT-6f"/>
     <use x="200.097656" xlink:href="#ArialMT-6e"/>
     <use x="255.712891" xlink:href="#ArialMT-69"/>
     <use x="277.929688" xlink:href="#ArialMT-61"/>
    </g>
   </g>
   <g id="text_32">
    <!-- Ethiopia -->
    <g style="fill:#8b0000;opacity:0.75;" transform="translate(167.312402 220.379293)scale(0.04 -0.04)">
     <use xlink:href="#ArialMT-45"/>
     <use x="66.699219" xlink:href="#ArialMT-74"/>
     <use x="94.482422" xlink:href="#ArialMT-68"/>
     <use x="150.097656" xlink:href="#ArialMT-69"/>
     <use x="172.314453" xlink:href="#ArialMT-6f"/>
     <use x="227.929688" xlink:href="#ArialMT-70"/>
     <use x="283.544922" xlink:href="#ArialMT-69"/>
     <use x="305.761719" xlink:href="#ArialMT-61"/>
    </g>
   </g>
   <g id="text_33">
    <!-- Ghana -->
    <g style="fill:#8b0000;opacity:0.75;" transform="translate(257.259982 200.560125)scale(0.04 -0.04)">
     <use xlink:href="#ArialMT-47"/>
     <use x="77.783203" xlink:href="#ArialMT-68"/>
     <use x="133.398438" xlink:href="#ArialMT-61"/>
     <use x="189.013672" xlink:href="#ArialMT-6e"/>
     <use x="244.628906" xlink:href="#ArialMT-61"/>
    </g>
   </g>
   <g id="text_34">
    <!-- Greece -->
    <g style="fill:#00008b;opacity:0.75;" transform="translate(230.556794 141.743563)scale(0.04 -0.04)">
     <use xlink:href="#ArialMT-47"/>
     <use x="77.783203" xlink:href="#ArialMT-72"/>
     <use x="111.083984" xlink:href="#ArialMT-65"/>
     <use x="166.699219" xlink:href="#ArialMT-65"/>
     <use x="222.314453" xlink:href="#ArialMT-63"/>
     <use x="272.314453" xlink:href="#ArialMT-65"/>
    </g>
   </g>
   <g id="text_35">
    <!-- Guatemala -->
    <g style="fill:#cd853f;opacity:0.75;" transform="translate(205.259037 86.367695)scale(0.04 -0.04)">
     <use xlink:href="#ArialMT-47"/>
     <use x="77.783203" xlink:href="#ArialMT-75"/>
     <use x="133.398438" xlink:href="#ArialMT-61"/>
     <use x="189.013672" xlink:href="#ArialMT-74"/>
     <use x="216.796875" xlink:href="#ArialMT-65"/>
     <use x="272.412109" xlink:href="#ArialMT-6d"/>
     <use x="355.712891" xlink:href="#ArialMT-61"/>
     <use x="411.328125" xlink:href="#ArialMT-6c"/>
     <use x="433.544922" xlink:href="#ArialMT-61"/>
    </g>
   </g>
   <g id="text_36">
    <!-- Hungary -->
    <g style="fill:#00008b;opacity:0.75;" transform="translate(212.286192 170.449282)scale(0.04 -0.04)">
     <defs>
      <path d="M 513 0 
L 513 4581 
L 1119 4581 
L 1119 2700 
L 3500 2700 
L 3500 4581 
L 4106 4581 
L 4106 0 
L 3500 0 
L 3500 2159 
L 1119 2159 
L 1119 0 
L 513 0 
z
" id="ArialMT-48" transform="scale(0.015625)"/>
     </defs>
     <use xlink:href="#ArialMT-48"/>
     <use x="72.216797" xlink:href="#ArialMT-75"/>
     <use x="127.832031" xlink:href="#ArialMT-6e"/>
     <use x="183.447266" xlink:href="#ArialMT-67"/>
     <use x="239.0625" xlink:href="#ArialMT-61"/>
     <use x="294.677734" xlink:href="#ArialMT-72"/>
     <use x="327.978516" xlink:href="#ArialMT-79"/>
    </g>
   </g>
   <g id="text_37">
    <!-- Iran -->
    <g style="fill:#006400;opacity:0.75;" transform="translate(82.986546 126.910202)scale(0.04 -0.04)">
     <use xlink:href="#ArialMT-49"/>
     <use x="27.783203" xlink:href="#ArialMT-72"/>
     <use x="61.083984" xlink:href="#ArialMT-61"/>
     <use x="116.699219" xlink:href="#ArialMT-6e"/>
    </g>
   </g>
   <g id="text_38">
    <!-- Japan -->
    <g style="fill:#006400;opacity:0.75;" transform="translate(209.47533 218.687545)scale(0.04 -0.04)">
     <defs>
      <path d="M 184 1300 
L 731 1375 
Q 753 850 928 656 
Q 1103 463 1413 463 
Q 1641 463 1806 567 
Q 1972 672 2034 851 
Q 2097 1031 2097 1425 
L 2097 4581 
L 2703 4581 
L 2703 1459 
Q 2703 884 2564 568 
Q 2425 253 2123 87 
Q 1822 -78 1416 -78 
Q 813 -78 492 269 
Q 172 616 184 1300 
z
" id="ArialMT-4a" transform="scale(0.015625)"/>
     </defs>
     <use xlink:href="#ArialMT-4a"/>
     <use x="50" xlink:href="#ArialMT-61"/>
     <use x="105.615234" xlink:href="#ArialMT-70"/>
     <use x="161.230469" xlink:href="#ArialMT-61"/>
     <use x="216.845703" xlink:href="#ArialMT-6e"/>
    </g>
   </g>
   <g id="text_39">
    <!-- Jordan -->
    <g style="fill:#006400;opacity:0.75;" transform="translate(101.257148 163.28279)scale(0.04 -0.04)">
     <use xlink:href="#ArialMT-4a"/>
     <use x="50" xlink:href="#ArialMT-6f"/>
     <use x="105.615234" xlink:href="#ArialMT-72"/>
     <use x="138.916016" xlink:href="#ArialMT-64"/>
     <use x="194.53125" xlink:href="#ArialMT-61"/>
     <use x="250.146484" xlink:href="#ArialMT-6e"/>
    </g>
   </g>
   <g id="text_40">
    <!-- Kazakhstan -->
    <g style="fill:#006400;opacity:0.75;" transform="translate(278.341446 52.473279)scale(0.04 -0.04)">
     <defs>
      <path d="M 469 0 
L 469 4581 
L 1075 4581 
L 1075 2309 
L 3350 4581 
L 4172 4581 
L 2250 2725 
L 4256 0 
L 3456 0 
L 1825 2319 
L 1075 1588 
L 1075 0 
L 469 0 
z
" id="ArialMT-4b" transform="scale(0.015625)"/>
     </defs>
     <use xlink:href="#ArialMT-4b"/>
     <use x="66.699219" xlink:href="#ArialMT-61"/>
     <use x="122.314453" xlink:href="#ArialMT-7a"/>
     <use x="172.314453" xlink:href="#ArialMT-61"/>
     <use x="227.929688" xlink:href="#ArialMT-6b"/>
     <use x="277.929688" xlink:href="#ArialMT-68"/>
     <use x="333.544922" xlink:href="#ArialMT-73"/>
     <use x="383.544922" xlink:href="#ArialMT-74"/>
     <use x="411.328125" xlink:href="#ArialMT-61"/>
     <use x="466.943359" xlink:href="#ArialMT-6e"/>
    </g>
   </g>
   <g id="text_41">
    <!-- Kenya -->
    <g style="fill:#8b0000;opacity:0.75;" transform="translate(278.341446 211.05124)scale(0.04 -0.04)">
     <use xlink:href="#ArialMT-4b"/>
     <use x="66.699219" xlink:href="#ArialMT-65"/>
     <use x="122.314453" xlink:href="#ArialMT-6e"/>
     <use x="177.929688" xlink:href="#ArialMT-79"/>
     <use x="227.929688" xlink:href="#ArialMT-61"/>
    </g>
   </g>
   <g id="text_42">
    <!-- Kuwait -->
    <g style="fill:#006400;opacity:0.75;" transform="translate(175.744988 95.189923)scale(0.04 -0.04)">
     <use xlink:href="#ArialMT-4b"/>
     <use x="66.699219" xlink:href="#ArialMT-75"/>
     <use x="122.314453" xlink:href="#ArialMT-77"/>
     <use x="194.53125" xlink:href="#ArialMT-61"/>
     <use x="250.146484" xlink:href="#ArialMT-69"/>
     <use x="272.363281" xlink:href="#ArialMT-74"/>
    </g>
   </g>
   <g id="text_43">
    <!-- Latvia -->
    <g style="fill:#00008b;opacity:0.75;" transform="translate(324.720667 70.659573)scale(0.04 -0.04)">
     <defs>
      <path d="M 469 0 
L 469 4581 
L 1075 4581 
L 1075 541 
L 3331 541 
L 3331 0 
L 469 0 
z
" id="ArialMT-4c" transform="scale(0.015625)"/>
     </defs>
     <use xlink:href="#ArialMT-4c"/>
     <use x="55.615234" xlink:href="#ArialMT-61"/>
     <use x="111.230469" xlink:href="#ArialMT-74"/>
     <use x="139.013672" xlink:href="#ArialMT-76"/>
     <use x="189.013672" xlink:href="#ArialMT-69"/>
     <use x="211.230469" xlink:href="#ArialMT-61"/>
    </g>
   </g>
   <g id="text_44">
    <!-- Lesotho -->
    <g style="fill:#8b0000;opacity:0.75;" transform="translate(260.070844 94.344049)scale(0.04 -0.04)">
     <use xlink:href="#ArialMT-4c"/>
     <use x="55.615234" xlink:href="#ArialMT-65"/>
     <use x="111.230469" xlink:href="#ArialMT-73"/>
     <use x="161.230469" xlink:href="#ArialMT-6f"/>
     <use x="216.845703" xlink:href="#ArialMT-74"/>
     <use x="244.628906" xlink:href="#ArialMT-68"/>
     <use x="300.244141" xlink:href="#ArialMT-6f"/>
    </g>
   </g>
   <g id="text_45">
    <!-- Lithuania -->
    <g style="fill:#00008b;opacity:0.75;" transform="translate(307.855495 86.308244)scale(0.04 -0.04)">
     <use xlink:href="#ArialMT-4c"/>
     <use x="55.615234" xlink:href="#ArialMT-69"/>
     <use x="77.832031" xlink:href="#ArialMT-74"/>
     <use x="105.615234" xlink:href="#ArialMT-68"/>
     <use x="161.230469" xlink:href="#ArialMT-75"/>
     <use x="216.845703" xlink:href="#ArialMT-61"/>
     <use x="272.460938" xlink:href="#ArialMT-6e"/>
     <use x="328.076172" xlink:href="#ArialMT-69"/>
     <use x="350.292969" xlink:href="#ArialMT-61"/>
    </g>
   </g>
   <g id="text_46">
    <!-- NorthMacedonia -->
    <g style="fill:#00008b;opacity:0.75;" transform="translate(253.043689 101.111042)scale(0.04 -0.04)">
     <defs>
      <path d="M 488 0 
L 488 4581 
L 1109 4581 
L 3516 984 
L 3516 4581 
L 4097 4581 
L 4097 0 
L 3475 0 
L 1069 3600 
L 1069 0 
L 488 0 
z
" id="ArialMT-4e" transform="scale(0.015625)"/>
      <path d="M 475 0 
L 475 4581 
L 1388 4581 
L 2472 1338 
Q 2622 884 2691 659 
Q 2769 909 2934 1394 
L 4031 4581 
L 4847 4581 
L 4847 0 
L 4263 0 
L 4263 3834 
L 2931 0 
L 2384 0 
L 1059 3900 
L 1059 0 
L 475 0 
z
" id="ArialMT-4d" transform="scale(0.015625)"/>
     </defs>
     <use xlink:href="#ArialMT-4e"/>
     <use x="72.216797" xlink:href="#ArialMT-6f"/>
     <use x="127.832031" xlink:href="#ArialMT-72"/>
     <use x="161.132812" xlink:href="#ArialMT-74"/>
     <use x="188.916016" xlink:href="#ArialMT-68"/>
     <use x="244.53125" xlink:href="#ArialMT-4d"/>
     <use x="327.832031" xlink:href="#ArialMT-61"/>
     <use x="383.447266" xlink:href="#ArialMT-63"/>
     <use x="433.447266" xlink:href="#ArialMT-65"/>
     <use x="489.0625" xlink:href="#ArialMT-64"/>
     <use x="544.677734" xlink:href="#ArialMT-6f"/>
     <use x="600.292969" xlink:href="#ArialMT-6e"/>
     <use x="655.908203" xlink:href="#ArialMT-69"/>
     <use x="678.125" xlink:href="#ArialMT-61"/>
    </g>
   </g>
   <g id="text_47">
    <!-- Madagascar -->
    <g style="fill:#8b0000;opacity:0.75;" transform="translate(248.827396 125.840084)scale(0.04 -0.04)">
     <use xlink:href="#ArialMT-4d"/>
     <use x="83.300781" xlink:href="#ArialMT-61"/>
     <use x="138.916016" xlink:href="#ArialMT-64"/>
     <use x="194.53125" xlink:href="#ArialMT-61"/>
     <use x="250.146484" xlink:href="#ArialMT-67"/>
     <use x="305.761719" xlink:href="#ArialMT-61"/>
     <use x="361.376953" xlink:href="#ArialMT-73"/>
     <use x="411.376953" xlink:href="#ArialMT-63"/>
     <use x="461.376953" xlink:href="#ArialMT-61"/>
     <use x="516.992188" xlink:href="#ArialMT-72"/>
    </g>
   </g>
   <g id="text_48">
    <!-- Malawi -->
    <g style="fill:#8b0000;opacity:0.75;" transform="translate(253.043689 178.085587)scale(0.04 -0.04)">
     <use xlink:href="#ArialMT-4d"/>
     <use x="83.300781" xlink:href="#ArialMT-61"/>
     <use x="138.916016" xlink:href="#ArialMT-6c"/>
     <use x="161.132812" xlink:href="#ArialMT-61"/>
     <use x="216.748047" xlink:href="#ArialMT-77"/>
     <use x="288.964844" xlink:href="#ArialMT-69"/>
    </g>
   </g>
   <g id="text_49">
    <!-- Malaysia -->
    <g style="fill:#006400;opacity:0.75;" transform="translate(188.393866 64.715017)scale(0.04 -0.04)">
     <use xlink:href="#ArialMT-4d"/>
     <use x="83.300781" xlink:href="#ArialMT-61"/>
     <use x="138.916016" xlink:href="#ArialMT-6c"/>
     <use x="161.132812" xlink:href="#ArialMT-61"/>
     <use x="216.748047" xlink:href="#ArialMT-79"/>
     <use x="266.748047" xlink:href="#ArialMT-73"/>
     <use x="316.748047" xlink:href="#ArialMT-69"/>
     <use x="338.964844" xlink:href="#ArialMT-61"/>
    </g>
   </g>
   <g id="text_50">
    <!-- Mali -->
    <g style="fill:#8b0000;opacity:0.75;" transform="translate(109.689734 241.526146)scale(0.04 -0.04)">
     <use xlink:href="#ArialMT-4d"/>
     <use x="83.300781" xlink:href="#ArialMT-61"/>
     <use x="138.916016" xlink:href="#ArialMT-6c"/>
     <use x="161.132812" xlink:href="#ArialMT-69"/>
    </g>
   </g>
   <g id="text_51">
    <!-- Malta -->
    <g style="fill:#00008b;opacity:0.75;" transform="translate(206.664468 156.938734)scale(0.04 -0.04)">
     <use xlink:href="#ArialMT-4d"/>
     <use x="83.300781" xlink:href="#ArialMT-61"/>
     <use x="138.916016" xlink:href="#ArialMT-6c"/>
     <use x="161.132812" xlink:href="#ArialMT-74"/>
     <use x="188.916016" xlink:href="#ArialMT-61"/>
    </g>
   </g>
   <g id="text_52">
    <!-- Mauritius -->
    <g style="fill:#8b0000;opacity:0.75;" transform="translate(175.744988 118.028524)scale(0.04 -0.04)">
     <use xlink:href="#ArialMT-4d"/>
     <use x="83.300781" xlink:href="#ArialMT-61"/>
     <use x="138.916016" xlink:href="#ArialMT-75"/>
     <use x="194.53125" xlink:href="#ArialMT-72"/>
     <use x="227.832031" xlink:href="#ArialMT-69"/>
     <use x="250.048828" xlink:href="#ArialMT-74"/>
     <use x="277.832031" xlink:href="#ArialMT-69"/>
     <use x="300.048828" xlink:href="#ArialMT-75"/>
     <use x="355.664062" xlink:href="#ArialMT-73"/>
    </g>
   </g>
   <g id="text_53">
    <!-- Moldova -->
    <g style="fill:#00008b;opacity:0.75;" transform="translate(310.666357 78.695377)scale(0.04 -0.04)">
     <use xlink:href="#ArialMT-4d"/>
     <use x="83.300781" xlink:href="#ArialMT-6f"/>
     <use x="138.916016" xlink:href="#ArialMT-6c"/>
     <use x="161.132812" xlink:href="#ArialMT-64"/>
     <use x="216.748047" xlink:href="#ArialMT-6f"/>
     <use x="272.363281" xlink:href="#ArialMT-76"/>
     <use x="322.363281" xlink:href="#ArialMT-61"/>
    </g>
   </g>
   <g id="text_54">
    <!-- Mongolia -->
    <g style="fill:#006400;opacity:0.75;" transform="translate(264.287136 65.983828)scale(0.04 -0.04)">
     <use xlink:href="#ArialMT-4d"/>
     <use x="83.300781" xlink:href="#ArialMT-6f"/>
     <use x="138.916016" xlink:href="#ArialMT-6e"/>
     <use x="194.53125" xlink:href="#ArialMT-67"/>
     <use x="250.146484" xlink:href="#ArialMT-6f"/>
     <use x="305.761719" xlink:href="#ArialMT-6c"/>
     <use x="327.978516" xlink:href="#ArialMT-69"/>
     <use x="350.195312" xlink:href="#ArialMT-61"/>
    </g>
   </g>
   <g id="text_55">
    <!-- Montenegro -->
    <g style="fill:#00008b;opacity:0.75;" transform="translate(236.178518 32.148863)scale(0.04 -0.04)">
     <use xlink:href="#ArialMT-4d"/>
     <use x="83.300781" xlink:href="#ArialMT-6f"/>
     <use x="138.916016" xlink:href="#ArialMT-6e"/>
     <use x="194.53125" xlink:href="#ArialMT-74"/>
     <use x="222.314453" xlink:href="#ArialMT-65"/>
     <use x="277.929688" xlink:href="#ArialMT-6e"/>
     <use x="333.544922" xlink:href="#ArialMT-65"/>
     <use x="389.160156" xlink:href="#ArialMT-67"/>
     <use x="444.775391" xlink:href="#ArialMT-72"/>
     <use x="478.076172" xlink:href="#ArialMT-6f"/>
    </g>
   </g>
   <g id="text_56">
    <!-- Morocco -->
    <g style="fill:#8b0000;opacity:0.75;" transform="translate(101.257148 138.75244)scale(0.04 -0.04)">
     <use xlink:href="#ArialMT-4d"/>
     <use x="83.300781" xlink:href="#ArialMT-6f"/>
     <use x="138.916016" xlink:href="#ArialMT-72"/>
     <use x="172.216797" xlink:href="#ArialMT-6f"/>
     <use x="227.832031" xlink:href="#ArialMT-63"/>
     <use x="277.832031" xlink:href="#ArialMT-63"/>
     <use x="327.832031" xlink:href="#ArialMT-6f"/>
    </g>
   </g>
   <g id="text_57">
    <!-- Mozambique -->
    <g style="fill:#8b0000;opacity:0.75;" transform="translate(309.260926 154.401111)scale(0.04 -0.04)">
     <use xlink:href="#ArialMT-4d"/>
     <use x="83.300781" xlink:href="#ArialMT-6f"/>
     <use x="138.916016" xlink:href="#ArialMT-7a"/>
     <use x="188.916016" xlink:href="#ArialMT-61"/>
     <use x="244.53125" xlink:href="#ArialMT-6d"/>
     <use x="327.832031" xlink:href="#ArialMT-62"/>
     <use x="383.447266" xlink:href="#ArialMT-69"/>
     <use x="405.664062" xlink:href="#ArialMT-71"/>
     <use x="461.279297" xlink:href="#ArialMT-75"/>
     <use x="516.894531" xlink:href="#ArialMT-65"/>
    </g>
   </g>
   <g id="text_58">
    <!-- Netherlands -->
    <g style="fill:#00008b;opacity:0.75;" transform="translate(358.451009 173.433279)scale(0.04 -0.04)">
     <use xlink:href="#ArialMT-4e"/>
     <use x="72.216797" xlink:href="#ArialMT-65"/>
     <use x="127.832031" xlink:href="#ArialMT-74"/>
     <use x="155.615234" xlink:href="#ArialMT-68"/>
     <use x="211.230469" xlink:href="#ArialMT-65"/>
     <use x="266.845703" xlink:href="#ArialMT-72"/>
     <use x="300.146484" xlink:href="#ArialMT-6c"/>
     <use x="322.363281" xlink:href="#ArialMT-61"/>
     <use x="377.978516" xlink:href="#ArialMT-6e"/>
     <use x="433.59375" xlink:href="#ArialMT-64"/>
     <use x="489.208984" xlink:href="#ArialMT-73"/>
    </g>
   </g>
   <g id="text_59">
    <!-- Oman -->
    <g style="fill:#006400;opacity:0.75;" transform="translate(116.716889 216.995797)scale(0.04 -0.04)">
     <defs>
      <path d="M 309 2231 
Q 309 3372 921 4017 
Q 1534 4663 2503 4663 
Q 3138 4663 3647 4359 
Q 4156 4056 4423 3514 
Q 4691 2972 4691 2284 
Q 4691 1588 4409 1038 
Q 4128 488 3612 205 
Q 3097 -78 2500 -78 
Q 1853 -78 1343 234 
Q 834 547 571 1087 
Q 309 1628 309 2231 
z
M 934 2222 
Q 934 1394 1379 917 
Q 1825 441 2497 441 
Q 3181 441 3623 922 
Q 4066 1403 4066 2288 
Q 4066 2847 3877 3264 
Q 3688 3681 3323 3911 
Q 2959 4141 2506 4141 
Q 1863 4141 1398 3698 
Q 934 3256 934 2222 
z
" id="ArialMT-4f" transform="scale(0.015625)"/>
     </defs>
     <use xlink:href="#ArialMT-4f"/>
     <use x="77.783203" xlink:href="#ArialMT-6d"/>
     <use x="161.083984" xlink:href="#ArialMT-61"/>
     <use x="216.699219" xlink:href="#ArialMT-6e"/>
    </g>
   </g>
   <g id="text_60">
    <!-- Pakistan -->
    <g style="fill:#006400;opacity:0.75;" transform="translate(53.472497 129.024888)scale(0.04 -0.04)">
     <defs>
      <path d="M 494 0 
L 494 4581 
L 2222 4581 
Q 2678 4581 2919 4538 
Q 3256 4481 3484 4323 
Q 3713 4166 3852 3881 
Q 3991 3597 3991 3256 
Q 3991 2672 3619 2267 
Q 3247 1863 2275 1863 
L 1100 1863 
L 1100 0 
L 494 0 
z
M 1100 2403 
L 2284 2403 
Q 2872 2403 3119 2622 
Q 3366 2841 3366 3238 
Q 3366 3525 3220 3729 
Q 3075 3934 2838 4000 
Q 2684 4041 2272 4041 
L 1100 4041 
L 1100 2403 
z
" id="ArialMT-50" transform="scale(0.015625)"/>
     </defs>
     <use xlink:href="#ArialMT-50"/>
     <use x="66.699219" xlink:href="#ArialMT-61"/>
     <use x="122.314453" xlink:href="#ArialMT-6b"/>
     <use x="172.314453" xlink:href="#ArialMT-69"/>
     <use x="194.53125" xlink:href="#ArialMT-73"/>
     <use x="244.53125" xlink:href="#ArialMT-74"/>
     <use x="272.314453" xlink:href="#ArialMT-61"/>
     <use x="327.929688" xlink:href="#ArialMT-6e"/>
    </g>
   </g>
   <g id="text_61">
    <!-- Philippines -->
    <g style="fill:#006400;opacity:0.75;" transform="translate(378.127042 20.330062)scale(0.04 -0.04)">
     <use xlink:href="#ArialMT-50"/>
     <use x="66.699219" xlink:href="#ArialMT-68"/>
     <use x="122.314453" xlink:href="#ArialMT-69"/>
     <use x="144.53125" xlink:href="#ArialMT-6c"/>
     <use x="166.748047" xlink:href="#ArialMT-69"/>
     <use x="188.964844" xlink:href="#ArialMT-70"/>
     <use x="244.580078" xlink:href="#ArialMT-70"/>
     <use x="300.195312" xlink:href="#ArialMT-69"/>
     <use x="322.412109" xlink:href="#ArialMT-6e"/>
     <use x="378.027344" xlink:href="#ArialMT-65"/>
     <use x="433.642578" xlink:href="#ArialMT-73"/>
    </g>
   </g>
   <g id="text_62">
    <!-- Poland -->
    <g style="fill:#00008b;opacity:0.75;" transform="translate(272.719722 115.490902)scale(0.04 -0.04)">
     <use xlink:href="#ArialMT-50"/>
     <use x="66.699219" xlink:href="#ArialMT-6f"/>
     <use x="122.314453" xlink:href="#ArialMT-6c"/>
     <use x="144.53125" xlink:href="#ArialMT-61"/>
     <use x="200.146484" xlink:href="#ArialMT-6e"/>
     <use x="255.761719" xlink:href="#ArialMT-64"/>
    </g>
   </g>
   <g id="text_63">
    <!-- Portugal -->
    <g style="fill:#00008b;opacity:0.75;" transform="translate(295.206617 83.747184)scale(0.04 -0.04)">
     <use xlink:href="#ArialMT-50"/>
     <use x="66.699219" xlink:href="#ArialMT-6f"/>
     <use x="122.314453" xlink:href="#ArialMT-72"/>
     <use x="155.615234" xlink:href="#ArialMT-74"/>
     <use x="183.398438" xlink:href="#ArialMT-75"/>
     <use x="239.013672" xlink:href="#ArialMT-67"/>
     <use x="294.628906" xlink:href="#ArialMT-61"/>
     <use x="350.244141" xlink:href="#ArialMT-6c"/>
    </g>
   </g>
   <g id="text_64">
    <!-- Qatar -->
    <g style="fill:#006400;opacity:0.75;" transform="translate(174.339557 180.200272)scale(0.04 -0.04)">
     <defs>
      <path d="M 3966 491 
Q 4388 200 4744 66 
L 4566 -356 
Q 4072 -178 3581 206 
Q 3072 -78 2456 -78 
Q 1834 -78 1328 222 
Q 822 522 548 1065 
Q 275 1609 275 2291 
Q 275 2969 550 3525 
Q 825 4081 1333 4372 
Q 1841 4663 2469 4663 
Q 3103 4663 3612 4361 
Q 4122 4059 4389 3517 
Q 4656 2975 4656 2294 
Q 4656 1728 4484 1276 
Q 4313 825 3966 491 
z
M 2631 1266 
Q 3156 1119 3497 828 
Q 4031 1316 4031 2294 
Q 4031 2850 3842 3265 
Q 3653 3681 3289 3911 
Q 2925 4141 2472 4141 
Q 1794 4141 1347 3677 
Q 900 3213 900 2291 
Q 900 1397 1342 919 
Q 1784 441 2472 441 
Q 2797 441 3084 563 
Q 2800 747 2484 825 
L 2631 1266 
z
" id="ArialMT-51" transform="scale(0.015625)"/>
     </defs>
     <use xlink:href="#ArialMT-51"/>
     <use x="77.783203" xlink:href="#ArialMT-61"/>
     <use x="133.398438" xlink:href="#ArialMT-74"/>
     <use x="161.181641" xlink:href="#ArialMT-61"/>
     <use x="216.796875" xlink:href="#ArialMT-72"/>
    </g>
   </g>
   <g id="text_65">
    <!-- Romania -->
    <g style="fill:#00008b;opacity:0.75;" transform="translate(241.800242 74.043069)scale(0.04 -0.04)">
     <use xlink:href="#ArialMT-52"/>
     <use x="72.216797" xlink:href="#ArialMT-6f"/>
     <use x="127.832031" xlink:href="#ArialMT-6d"/>
     <use x="211.132812" xlink:href="#ArialMT-61"/>
     <use x="266.748047" xlink:href="#ArialMT-6e"/>
     <use x="322.363281" xlink:href="#ArialMT-69"/>
     <use x="344.580078" xlink:href="#ArialMT-61"/>
    </g>
   </g>
   <g id="text_66">
    <!-- Russia -->
    <g style="fill:#00008b;opacity:0.75;" transform="translate(243.205673 96.458734)scale(0.04 -0.04)">
     <use xlink:href="#ArialMT-52"/>
     <use x="72.216797" xlink:href="#ArialMT-75"/>
     <use x="127.832031" xlink:href="#ArialMT-73"/>
     <use x="177.832031" xlink:href="#ArialMT-73"/>
     <use x="227.832031" xlink:href="#ArialMT-69"/>
     <use x="250.048828" xlink:href="#ArialMT-61"/>
    </g>
   </g>
   <g id="text_67">
    <!-- SaudiArabia -->
    <g style="fill:#006400;opacity:0.75;" transform="translate(118.122319 262.250062)scale(0.04 -0.04)">
     <use xlink:href="#ArialMT-53"/>
     <use x="66.699219" xlink:href="#ArialMT-61"/>
     <use x="122.314453" xlink:href="#ArialMT-75"/>
     <use x="177.929688" xlink:href="#ArialMT-64"/>
     <use x="233.544922" xlink:href="#ArialMT-69"/>
     <use x="255.761719" xlink:href="#ArialMT-41"/>
     <use x="322.460938" xlink:href="#ArialMT-72"/>
     <use x="355.761719" xlink:href="#ArialMT-61"/>
     <use x="411.376953" xlink:href="#ArialMT-62"/>
     <use x="466.992188" xlink:href="#ArialMT-69"/>
     <use x="489.208984" xlink:href="#ArialMT-61"/>
    </g>
   </g>
   <g id="text_68">
    <!-- Senegal -->
    <g style="fill:#8b0000;opacity:0.75;" transform="translate(248.827396 202.996176)scale(0.04 -0.04)">
     <use xlink:href="#ArialMT-53"/>
     <use x="66.699219" xlink:href="#ArialMT-65"/>
     <use x="122.314453" xlink:href="#ArialMT-6e"/>
     <use x="177.929688" xlink:href="#ArialMT-65"/>
     <use x="233.544922" xlink:href="#ArialMT-67"/>
     <use x="289.160156" xlink:href="#ArialMT-61"/>
     <use x="344.775391" xlink:href="#ArialMT-6c"/>
    </g>
   </g>
   <g id="text_69">
    <!-- Serbia -->
    <g style="fill:#00008b;opacity:0.75;" transform="translate(279.746877 38.516356)scale(0.04 -0.04)">
     <use xlink:href="#ArialMT-53"/>
     <use x="66.699219" xlink:href="#ArialMT-65"/>
     <use x="122.314453" xlink:href="#ArialMT-72"/>
     <use x="155.615234" xlink:href="#ArialMT-62"/>
     <use x="211.230469" xlink:href="#ArialMT-69"/>
     <use x="233.447266" xlink:href="#ArialMT-61"/>
    </g>
   </g>
   <g id="text_70">
    <!-- Slovakia -->
    <g style="fill:#00008b;opacity:0.75;" transform="translate(216.502485 83.711171)scale(0.04 -0.04)">
     <use xlink:href="#ArialMT-53"/>
     <use x="66.699219" xlink:href="#ArialMT-6c"/>
     <use x="88.916016" xlink:href="#ArialMT-6f"/>
     <use x="144.53125" xlink:href="#ArialMT-76"/>
     <use x="194.53125" xlink:href="#ArialMT-61"/>
     <use x="250.146484" xlink:href="#ArialMT-6b"/>
     <use x="300.146484" xlink:href="#ArialMT-69"/>
     <use x="322.363281" xlink:href="#ArialMT-61"/>
    </g>
   </g>
   <g id="text_71">
    <!-- Slovenia -->
    <g style="fill:#00008b;opacity:0.75;" transform="translate(369.694456 113.376216)scale(0.04 -0.04)">
     <use xlink:href="#ArialMT-53"/>
     <use x="66.699219" xlink:href="#ArialMT-6c"/>
     <use x="88.916016" xlink:href="#ArialMT-6f"/>
     <use x="144.53125" xlink:href="#ArialMT-76"/>
     <use x="194.53125" xlink:href="#ArialMT-65"/>
     <use x="250.146484" xlink:href="#ArialMT-6e"/>
     <use x="305.761719" xlink:href="#ArialMT-69"/>
     <use x="327.978516" xlink:href="#ArialMT-61"/>
    </g>
   </g>
   <g id="text_72">
    <!-- SriLanka -->
    <g style="fill:#006400;opacity:0.75;" transform="translate(231.962225 102.80279)scale(0.04 -0.04)">
     <use xlink:href="#ArialMT-53"/>
     <use x="66.699219" xlink:href="#ArialMT-72"/>
     <use x="100" xlink:href="#ArialMT-69"/>
     <use x="122.216797" xlink:href="#ArialMT-4c"/>
     <use x="177.832031" xlink:href="#ArialMT-61"/>
     <use x="233.447266" xlink:href="#ArialMT-6e"/>
     <use x="289.0625" xlink:href="#ArialMT-6b"/>
     <use x="339.0625" xlink:href="#ArialMT-61"/>
    </g>
   </g>
   <g id="text_73">
    <!-- Tajikistan -->
    <g style="fill:#006400;opacity:0.75;" transform="translate(216.502485 144.196621)scale(0.04 -0.04)">
     <defs>
      <path d="M 1659 0 
L 1659 4041 
L 150 4041 
L 150 4581 
L 3781 4581 
L 3781 4041 
L 2266 4041 
L 2266 0 
L 1659 0 
z
" id="ArialMT-54" transform="scale(0.015625)"/>
     </defs>
     <use xlink:href="#ArialMT-54"/>
     <use x="49.958984" xlink:href="#ArialMT-61"/>
     <use x="105.574219" xlink:href="#ArialMT-6a"/>
     <use x="127.791016" xlink:href="#ArialMT-69"/>
     <use x="150.007812" xlink:href="#ArialMT-6b"/>
     <use x="200.007812" xlink:href="#ArialMT-69"/>
     <use x="222.224609" xlink:href="#ArialMT-73"/>
     <use x="272.224609" xlink:href="#ArialMT-74"/>
     <use x="300.007812" xlink:href="#ArialMT-61"/>
     <use x="355.623047" xlink:href="#ArialMT-6e"/>
    </g>
   </g>
   <g id="text_74">
    <!-- Turkey -->
    <g style="fill:#006400;opacity:0.75;" transform="translate(144.825507 119.696835)scale(0.04 -0.04)">
     <use xlink:href="#ArialMT-54"/>
     <use x="57.333984" xlink:href="#ArialMT-75"/>
     <use x="112.949219" xlink:href="#ArialMT-72"/>
     <use x="146.25" xlink:href="#ArialMT-6b"/>
     <use x="196.25" xlink:href="#ArialMT-65"/>
     <use x="251.865234" xlink:href="#ArialMT-79"/>
    </g>
   </g>
   <g id="text_75">
    <!-- Uganda -->
    <g style="fill:#8b0000;opacity:0.75;" transform="translate(262.881706 197.924953)scale(0.04 -0.04)">
     <defs>
      <path d="M 3500 4581 
L 4106 4581 
L 4106 1934 
Q 4106 1244 3950 837 
Q 3794 431 3386 176 
Q 2978 -78 2316 -78 
Q 1672 -78 1262 144 
Q 853 366 678 786 
Q 503 1206 503 1934 
L 503 4581 
L 1109 4581 
L 1109 1938 
Q 1109 1341 1220 1058 
Q 1331 775 1601 622 
Q 1872 469 2263 469 
Q 2931 469 3215 772 
Q 3500 1075 3500 1938 
L 3500 4581 
z
" id="ArialMT-55" transform="scale(0.015625)"/>
     </defs>
     <use xlink:href="#ArialMT-55"/>
     <use x="72.216797" xlink:href="#ArialMT-67"/>
     <use x="127.832031" xlink:href="#ArialMT-61"/>
     <use x="183.447266" xlink:href="#ArialMT-6e"/>
     <use x="239.0625" xlink:href="#ArialMT-64"/>
     <use x="294.677734" xlink:href="#ArialMT-61"/>
    </g>
   </g>
   <g id="text_76">
    <!-- Ukraine -->
    <g style="fill:#00008b;opacity:0.75;" transform="translate(254.44912 83.770622)scale(0.04 -0.04)">
     <use xlink:href="#ArialMT-55"/>
     <use x="72.216797" xlink:href="#ArialMT-6b"/>
     <use x="122.216797" xlink:href="#ArialMT-72"/>
     <use x="155.517578" xlink:href="#ArialMT-61"/>
     <use x="211.132812" xlink:href="#ArialMT-69"/>
     <use x="233.349609" xlink:href="#ArialMT-6e"/>
     <use x="288.964844" xlink:href="#ArialMT-65"/>
    </g>
   </g>
   <g id="text_77">
    <!-- Venezuela -->
    <g style="fill:#cd853f;opacity:0.75;" transform="translate(238.98938 123.304575)scale(0.04 -0.04)">
     <defs>
      <path d="M 1803 0 
L 28 4581 
L 684 4581 
L 1875 1253 
Q 2019 853 2116 503 
Q 2222 878 2363 1253 
L 3600 4581 
L 4219 4581 
L 2425 0 
L 1803 0 
z
" id="ArialMT-56" transform="scale(0.015625)"/>
     </defs>
     <use xlink:href="#ArialMT-56"/>
     <use x="61.199219" xlink:href="#ArialMT-65"/>
     <use x="116.814453" xlink:href="#ArialMT-6e"/>
     <use x="172.429688" xlink:href="#ArialMT-65"/>
     <use x="228.044922" xlink:href="#ArialMT-7a"/>
     <use x="278.044922" xlink:href="#ArialMT-75"/>
     <use x="333.660156" xlink:href="#ArialMT-65"/>
     <use x="389.275391" xlink:href="#ArialMT-6c"/>
     <use x="411.492188" xlink:href="#ArialMT-61"/>
    </g>
   </g>
   <g id="text_78">
    <!-- Zimbabwe -->
    <g style="fill:#8b0000;opacity:0.75;" transform="translate(264.287136 164.974538)scale(0.04 -0.04)">
     <defs>
      <path d="M 128 0 
L 128 563 
L 2475 3497 
Q 2725 3809 2950 4041 
L 394 4041 
L 394 4581 
L 3675 4581 
L 3675 4041 
L 1103 863 
L 825 541 
L 3750 541 
L 3750 0 
L 128 0 
z
" id="ArialMT-5a" transform="scale(0.015625)"/>
     </defs>
     <use xlink:href="#ArialMT-5a"/>
     <use x="61.083984" xlink:href="#ArialMT-69"/>
     <use x="83.300781" xlink:href="#ArialMT-6d"/>
     <use x="166.601562" xlink:href="#ArialMT-62"/>
     <use x="222.216797" xlink:href="#ArialMT-61"/>
     <use x="277.832031" xlink:href="#ArialMT-62"/>
     <use x="333.447266" xlink:href="#ArialMT-77"/>
     <use x="405.664062" xlink:href="#ArialMT-65"/>
    </g>
   </g>
   <g id="line2d_14">
    <defs>
     <path d="M 0 1.5 
C 0.397805 1.5 0.77937 1.341951 1.06066 1.06066 
C 1.341951 0.77937 1.5 0.397805 1.5 0 
C 1.5 -0.397805 1.341951 -0.77937 1.06066 -1.06066 
C 0.77937 -1.341951 0.397805 -1.5 0 -1.5 
C -0.397805 -1.5 -0.77937 -1.341951 -1.06066 -1.06066 
C -1.341951 -0.77937 -1.5 -0.397805 -1.5 0 
C -1.5 0.397805 -1.341951 0.77937 -1.06066 1.06066 
C -0.77937 1.341951 -0.397805 1.5 0 1.5 
z
" id="m1ce9290e37" style="stroke:#000000;stroke-opacity:0;"/>
    </defs>
    <g clip-path="url(#pad74f4bd41)">
     <use style="fill:#8b0000;fill-opacity:0.9;stroke:#000000;stroke-opacity:0;" x="160.823528" xlink:href="#m1ce9290e37" y="122.91558"/>
    </g>
   </g>
   <g id="line2d_15">
    <defs>
     <path d="M 0 1.5 
C 0.397805 1.5 0.77937 1.341951 1.06066 1.06066 
C 1.341951 0.77937 1.5 0.397805 1.5 0 
C 1.5 -0.397805 1.341951 -0.77937 1.06066 -1.06066 
C 0.77937 -1.341951 0.397805 -1.5 0 -1.5 
C -0.397805 -1.5 -0.77937 -1.341951 -1.06066 -1.06066 
C -1.341951 -0.77937 -1.5 -0.397805 -1.5 0 
C -1.5 0.397805 -1.341951 0.77937 -1.06066 1.06066 
C -0.77937 1.341951 -0.397805 1.5 0 1.5 
z
" id="ma91139da3a" style="stroke:#000000;stroke-opacity:0;"/>
    </defs>
    <g clip-path="url(#pad74f4bd41)">
     <use style="fill:#006400;fill-opacity:0.9;stroke:#000000;stroke-opacity:0;" x="204.391886" xlink:href="#ma91139da3a" y="74.700755"/>
    </g>
   </g>
   <g id="line2d_16">
    <g clip-path="url(#pad74f4bd41)">
     <use style="fill:#006400;fill-opacity:0.9;stroke:#000000;stroke-opacity:0;" x="214.229903" xlink:href="#ma91139da3a" y="42.980476"/>
    </g>
   </g>
   <g id="line2d_17">
    <g clip-path="url(#pad74f4bd41)">
     <use style="fill:#006400;fill-opacity:0.9;stroke:#000000;stroke-opacity:0;" x="170.661544" xlink:href="#ma91139da3a" y="99.654042"/>
    </g>
   </g>
   <g id="line2d_18">
    <defs>
     <path d="M 0 1.5 
C 0.397805 1.5 0.77937 1.341951 1.06066 1.06066 
C 1.341951 0.77937 1.5 0.397805 1.5 0 
C 1.5 -0.397805 1.341951 -0.77937 1.06066 -1.06066 
C 0.77937 -1.341951 0.397805 -1.5 0 -1.5 
C -0.397805 -1.5 -0.77937 -1.341951 -1.06066 -1.06066 
C -1.341951 -0.77937 -1.5 -0.397805 -1.5 0 
C -1.5 0.397805 -1.341951 0.77937 -1.06066 1.06066 
C -0.77937 1.341951 -0.397805 1.5 0 1.5 
z
" id="m883e88fd74" style="stroke:#000000;stroke-opacity:0;"/>
    </defs>
    <g clip-path="url(#pad74f4bd41)">
     <use style="fill:#00008b;fill-opacity:0.9;stroke:#000000;stroke-opacity:0;" x="297.150328" xlink:href="#m883e88fd74" y="56.937399"/>
    </g>
   </g>
   <g id="line2d_19">
    <g clip-path="url(#pad74f4bd41)">
     <use style="fill:#8b0000;fill-opacity:0.9;stroke:#000000;stroke-opacity:0;" x="263.419986" xlink:href="#m1ce9290e37" y="153.367049"/>
    </g>
   </g>
   <g id="line2d_20">
    <g clip-path="url(#pad74f4bd41)">
     <use style="fill:#00008b;fill-opacity:0.9;stroke:#000000;stroke-opacity:0;" x="280.285157" xlink:href="#m883e88fd74" y="55.24565"/>
    </g>
   </g>
   <g id="line2d_21">
    <g clip-path="url(#pad74f4bd41)">
     <use style="fill:#8b0000;fill-opacity:0.9;stroke:#000000;stroke-opacity:0;" x="180.499561" xlink:href="#m1ce9290e37" y="228.226909"/>
    </g>
   </g>
   <g id="line2d_22">
    <defs>
     <path d="M 0 1.5 
C 0.397805 1.5 0.77937 1.341951 1.06066 1.06066 
C 1.341951 0.77937 1.5 0.397805 1.5 0 
C 1.5 -0.397805 1.341951 -0.77937 1.06066 -1.06066 
C 0.77937 -1.341951 0.397805 -1.5 0 -1.5 
C -0.397805 -1.5 -0.77937 -1.341951 -1.06066 -1.06066 
C -1.341951 -0.77937 -1.5 -0.397805 -1.5 0 
C -1.5 0.397805 -1.341951 0.77937 -1.06066 1.06066 
C -0.77937 1.341951 -0.397805 1.5 0 1.5 
z
" id="m0d24799a96" style="stroke:#000000;stroke-opacity:0;"/>
    </defs>
    <g clip-path="url(#pad74f4bd41)">
     <use style="fill:#cd853f;fill-opacity:0.9;stroke:#000000;stroke-opacity:0;" x="246.554814" xlink:href="#m0d24799a96" y="158.865231"/>
    </g>
   </g>
   <g id="line2d_23">
    <g clip-path="url(#pad74f4bd41)">
     <use style="fill:#cd853f;fill-opacity:0.9;stroke:#000000;stroke-opacity:0;" x="284.50145" xlink:href="#m0d24799a96" y="136.449566"/>
    </g>
   </g>
   <g id="line2d_24">
    <g clip-path="url(#pad74f4bd41)">
     <use style="fill:#cd853f;fill-opacity:0.9;stroke:#000000;stroke-opacity:0;" x="294.339466" xlink:href="#m0d24799a96" y="115.72565"/>
    </g>
   </g>
   <g id="line2d_25">
    <g clip-path="url(#pad74f4bd41)">
     <use style="fill:#00008b;fill-opacity:0.9;stroke:#000000;stroke-opacity:0;" x="260.609124" xlink:href="#m883e88fd74" y="60.743832"/>
    </g>
   </g>
   <g id="line2d_26">
    <g clip-path="url(#pad74f4bd41)">
     <use style="fill:#006400;fill-opacity:0.9;stroke:#000000;stroke-opacity:0;" x="208.608179" xlink:href="#ma91139da3a" y="107.266909"/>
    </g>
   </g>
   <g id="line2d_27">
    <g clip-path="url(#pad74f4bd41)">
     <use style="fill:#8b0000;fill-opacity:0.9;stroke:#000000;stroke-opacity:0;" x="107.417152" xlink:href="#m1ce9290e37" y="98.808168"/>
    </g>
   </g>
   <g id="line2d_28">
    <g clip-path="url(#pad74f4bd41)">
     <use style="fill:#cd853f;fill-opacity:0.9;stroke:#000000;stroke-opacity:0;" x="257.798262" xlink:href="#m0d24799a96" y="121.223832"/>
    </g>
   </g>
   <g id="line2d_29">
    <g clip-path="url(#pad74f4bd41)">
     <use style="fill:#00008b;fill-opacity:0.9;stroke:#000000;stroke-opacity:0;" x="318.231792" xlink:href="#m883e88fd74" y="109.381594"/>
    </g>
   </g>
   <g id="line2d_30">
    <g clip-path="url(#pad74f4bd41)">
     <use style="fill:#8b0000;fill-opacity:0.9;stroke:#000000;stroke-opacity:0;" x="165.03982" xlink:href="#m1ce9290e37" y="219.345231"/>
    </g>
   </g>
   <g id="line2d_31">
    <g clip-path="url(#pad74f4bd41)">
     <use style="fill:#8b0000;fill-opacity:0.9;stroke:#000000;stroke-opacity:0;" x="254.9874" xlink:href="#m1ce9290e37" y="199.467189"/>
    </g>
   </g>
   <g id="line2d_32">
    <g clip-path="url(#pad74f4bd41)">
     <use style="fill:#00008b;fill-opacity:0.9;stroke:#000000;stroke-opacity:0;" x="228.284212" xlink:href="#m883e88fd74" y="141.101874"/>
    </g>
   </g>
   <g id="line2d_33">
    <g clip-path="url(#pad74f4bd41)">
     <use style="fill:#cd853f;fill-opacity:0.9;stroke:#000000;stroke-opacity:0;" x="202.986456" xlink:href="#m0d24799a96" y="84.428308"/>
    </g>
   </g>
   <g id="line2d_34">
    <g clip-path="url(#pad74f4bd41)">
     <use style="fill:#00008b;fill-opacity:0.9;stroke:#000000;stroke-opacity:0;" x="210.01361" xlink:href="#m883e88fd74" y="169.438657"/>
    </g>
   </g>
   <g id="line2d_35">
    <g clip-path="url(#pad74f4bd41)">
     <use style="fill:#006400;fill-opacity:0.9;stroke:#000000;stroke-opacity:0;" x="80.713964" xlink:href="#ma91139da3a" y="125.87614"/>
    </g>
   </g>
   <g id="line2d_36">
    <g clip-path="url(#pad74f4bd41)">
     <use style="fill:#006400;fill-opacity:0.9;stroke:#000000;stroke-opacity:0;" x="207.202748" xlink:href="#ma91139da3a" y="217.653483"/>
    </g>
   </g>
   <g id="line2d_37">
    <g clip-path="url(#pad74f4bd41)">
     <use style="fill:#006400;fill-opacity:0.9;stroke:#000000;stroke-opacity:0;" x="98.984566" xlink:href="#ma91139da3a" y="162.248727"/>
    </g>
   </g>
   <g id="line2d_38">
    <g clip-path="url(#pad74f4bd41)">
     <use style="fill:#006400;fill-opacity:0.9;stroke:#000000;stroke-opacity:0;" x="276.068864" xlink:href="#ma91139da3a" y="51.439217"/>
    </g>
   </g>
   <g id="line2d_39">
    <g clip-path="url(#pad74f4bd41)">
     <use style="fill:#8b0000;fill-opacity:0.9;stroke:#000000;stroke-opacity:0;" x="276.068864" xlink:href="#m1ce9290e37" y="210.040615"/>
    </g>
   </g>
   <g id="line2d_40">
    <g clip-path="url(#pad74f4bd41)">
     <use style="fill:#006400;fill-opacity:0.9;stroke:#000000;stroke-opacity:0;" x="173.472406" xlink:href="#ma91139da3a" y="94.15586"/>
    </g>
   </g>
   <g id="line2d_41">
    <g clip-path="url(#pad74f4bd41)">
     <use style="fill:#00008b;fill-opacity:0.9;stroke:#000000;stroke-opacity:0;" x="322.448085" xlink:href="#m883e88fd74" y="69.62551"/>
    </g>
   </g>
   <g id="line2d_42">
    <g clip-path="url(#pad74f4bd41)">
     <use style="fill:#8b0000;fill-opacity:0.9;stroke:#000000;stroke-opacity:0;" x="257.798262" xlink:href="#m1ce9290e37" y="93.309986"/>
    </g>
   </g>
   <g id="line2d_43">
    <g clip-path="url(#pad74f4bd41)">
     <use style="fill:#00008b;fill-opacity:0.9;stroke:#000000;stroke-opacity:0;" x="305.582914" xlink:href="#m883e88fd74" y="85.274182"/>
    </g>
   </g>
   <g id="line2d_44">
    <g clip-path="url(#pad74f4bd41)">
     <use style="fill:#00008b;fill-opacity:0.9;stroke:#000000;stroke-opacity:0;" x="250.771107" xlink:href="#m883e88fd74" y="100.076979"/>
    </g>
   </g>
   <g id="line2d_45">
    <g clip-path="url(#pad74f4bd41)">
     <use style="fill:#8b0000;fill-opacity:0.9;stroke:#000000;stroke-opacity:0;" x="246.554814" xlink:href="#m1ce9290e37" y="124.607329"/>
    </g>
   </g>
   <g id="line2d_46">
    <g clip-path="url(#pad74f4bd41)">
     <use style="fill:#8b0000;fill-opacity:0.9;stroke:#000000;stroke-opacity:0;" x="250.771107" xlink:href="#m1ce9290e37" y="177.051524"/>
    </g>
   </g>
   <g id="line2d_47">
    <g clip-path="url(#pad74f4bd41)">
     <use style="fill:#006400;fill-opacity:0.9;stroke:#000000;stroke-opacity:0;" x="186.121284" xlink:href="#ma91139da3a" y="63.704392"/>
    </g>
   </g>
   <g id="line2d_48">
    <g clip-path="url(#pad74f4bd41)">
     <use style="fill:#8b0000;fill-opacity:0.9;stroke:#000000;stroke-opacity:0;" x="107.417152" xlink:href="#m1ce9290e37" y="240.492084"/>
    </g>
   </g>
   <g id="line2d_49">
    <g clip-path="url(#pad74f4bd41)">
     <use style="fill:#00008b;fill-opacity:0.9;stroke:#000000;stroke-opacity:0;" x="204.391886" xlink:href="#m883e88fd74" y="155.904671"/>
    </g>
   </g>
   <g id="line2d_50">
    <g clip-path="url(#pad74f4bd41)">
     <use style="fill:#8b0000;fill-opacity:0.9;stroke:#000000;stroke-opacity:0;" x="173.472406" xlink:href="#m1ce9290e37" y="116.994462"/>
    </g>
   </g>
   <g id="line2d_51">
    <g clip-path="url(#pad74f4bd41)">
     <use style="fill:#00008b;fill-opacity:0.9;stroke:#000000;stroke-opacity:0;" x="308.393775" xlink:href="#m883e88fd74" y="77.661315"/>
    </g>
   </g>
   <g id="line2d_52">
    <g clip-path="url(#pad74f4bd41)">
     <use style="fill:#006400;fill-opacity:0.9;stroke:#000000;stroke-opacity:0;" x="262.014555" xlink:href="#ma91139da3a" y="64.973203"/>
    </g>
   </g>
   <g id="line2d_53">
    <g clip-path="url(#pad74f4bd41)">
     <use style="fill:#00008b;fill-opacity:0.9;stroke:#000000;stroke-opacity:0;" x="233.905936" xlink:href="#m883e88fd74" y="31.138238"/>
    </g>
   </g>
   <g id="line2d_54">
    <g clip-path="url(#pad74f4bd41)">
     <use style="fill:#8b0000;fill-opacity:0.9;stroke:#000000;stroke-opacity:0;" x="98.984566" xlink:href="#m1ce9290e37" y="137.718378"/>
    </g>
   </g>
   <g id="line2d_55">
    <g clip-path="url(#pad74f4bd41)">
     <use style="fill:#8b0000;fill-opacity:0.9;stroke:#000000;stroke-opacity:0;" x="306.988345" xlink:href="#m1ce9290e37" y="153.367049"/>
    </g>
   </g>
   <g id="line2d_56">
    <g clip-path="url(#pad74f4bd41)">
     <use style="fill:#00008b;fill-opacity:0.9;stroke:#000000;stroke-opacity:0;" x="356.178427" xlink:href="#m883e88fd74" y="172.399217"/>
    </g>
   </g>
   <g id="line2d_57">
    <g clip-path="url(#pad74f4bd41)">
     <use style="fill:#006400;fill-opacity:0.9;stroke:#000000;stroke-opacity:0;" x="114.444307" xlink:href="#ma91139da3a" y="215.961734"/>
    </g>
   </g>
   <g id="line2d_58">
    <g clip-path="url(#pad74f4bd41)">
     <use style="fill:#006400;fill-opacity:0.9;stroke:#000000;stroke-opacity:0;" x="51.199915" xlink:href="#ma91139da3a" y="127.990825"/>
    </g>
   </g>
   <g id="line2d_59">
    <g clip-path="url(#pad74f4bd41)">
     <use style="fill:#006400;fill-opacity:0.9;stroke:#000000;stroke-opacity:0;" x="375.85446" xlink:href="#ma91139da3a" y="19.296"/>
    </g>
   </g>
   <g id="line2d_60">
    <g clip-path="url(#pad74f4bd41)">
     <use style="fill:#00008b;fill-opacity:0.9;stroke:#000000;stroke-opacity:0;" x="270.44714" xlink:href="#m883e88fd74" y="114.456839"/>
    </g>
   </g>
   <g id="line2d_61">
    <g clip-path="url(#pad74f4bd41)">
     <use style="fill:#00008b;fill-opacity:0.9;stroke:#000000;stroke-opacity:0;" x="292.934035" xlink:href="#m883e88fd74" y="82.736559"/>
    </g>
   </g>
   <g id="line2d_62">
    <g clip-path="url(#pad74f4bd41)">
     <use style="fill:#006400;fill-opacity:0.9;stroke:#000000;stroke-opacity:0;" x="172.066975" xlink:href="#ma91139da3a" y="179.16621"/>
    </g>
   </g>
   <g id="line2d_63">
    <g clip-path="url(#pad74f4bd41)">
     <use style="fill:#00008b;fill-opacity:0.9;stroke:#000000;stroke-opacity:0;" x="239.52766" xlink:href="#m883e88fd74" y="73.009007"/>
    </g>
   </g>
   <g id="line2d_64">
    <g clip-path="url(#pad74f4bd41)">
     <use style="fill:#00008b;fill-opacity:0.9;stroke:#000000;stroke-opacity:0;" x="240.933091" xlink:href="#m883e88fd74" y="95.424671"/>
    </g>
   </g>
   <g id="line2d_65">
    <g clip-path="url(#pad74f4bd41)">
     <use style="fill:#006400;fill-opacity:0.9;stroke:#000000;stroke-opacity:0;" x="115.849738" xlink:href="#ma91139da3a" y="261.216"/>
    </g>
   </g>
   <g id="line2d_66">
    <g clip-path="url(#pad74f4bd41)">
     <use style="fill:#8b0000;fill-opacity:0.9;stroke:#000000;stroke-opacity:0;" x="246.554814" xlink:href="#m1ce9290e37" y="200.313063"/>
    </g>
   </g>
   <g id="line2d_67">
    <g clip-path="url(#pad74f4bd41)">
     <use style="fill:#00008b;fill-opacity:0.9;stroke:#000000;stroke-opacity:0;" x="277.474295" xlink:href="#m883e88fd74" y="37.482294"/>
    </g>
   </g>
   <g id="line2d_68">
    <g clip-path="url(#pad74f4bd41)">
     <use style="fill:#00008b;fill-opacity:0.9;stroke:#000000;stroke-opacity:0;" x="214.229903" xlink:href="#m883e88fd74" y="83.582434"/>
    </g>
   </g>
   <g id="line2d_69">
    <g clip-path="url(#pad74f4bd41)">
     <use style="fill:#00008b;fill-opacity:0.9;stroke:#000000;stroke-opacity:0;" x="367.421875" xlink:href="#m883e88fd74" y="112.342154"/>
    </g>
   </g>
   <g id="line2d_70">
    <g clip-path="url(#pad74f4bd41)">
     <use style="fill:#006400;fill-opacity:0.9;stroke:#000000;stroke-opacity:0;" x="229.689643" xlink:href="#ma91139da3a" y="101.768727"/>
    </g>
   </g>
   <g id="line2d_71">
    <g clip-path="url(#pad74f4bd41)">
     <use style="fill:#006400;fill-opacity:0.9;stroke:#000000;stroke-opacity:0;" x="214.229903" xlink:href="#ma91139da3a" y="142.793622"/>
    </g>
   </g>
   <g id="line2d_72">
    <g clip-path="url(#pad74f4bd41)">
     <use style="fill:#006400;fill-opacity:0.9;stroke:#000000;stroke-opacity:0;" x="142.552925" xlink:href="#ma91139da3a" y="118.68621"/>
    </g>
   </g>
   <g id="line2d_73">
    <g clip-path="url(#pad74f4bd41)">
     <use style="fill:#8b0000;fill-opacity:0.9;stroke:#000000;stroke-opacity:0;" x="260.609124" xlink:href="#m1ce9290e37" y="198.621315"/>
    </g>
   </g>
   <g id="line2d_74">
    <g clip-path="url(#pad74f4bd41)">
     <use style="fill:#00008b;fill-opacity:0.9;stroke:#000000;stroke-opacity:0;" x="252.176538" xlink:href="#m883e88fd74" y="82.736559"/>
    </g>
   </g>
   <g id="line2d_75">
    <g clip-path="url(#pad74f4bd41)">
     <use style="fill:#cd853f;fill-opacity:0.9;stroke:#000000;stroke-opacity:0;" x="236.716798" xlink:href="#m0d24799a96" y="122.492643"/>
    </g>
   </g>
   <g id="line2d_76">
    <g clip-path="url(#pad74f4bd41)">
     <use style="fill:#8b0000;fill-opacity:0.9;stroke:#000000;stroke-opacity:0;" x="262.014555" xlink:href="#m1ce9290e37" y="163.940476"/>
    </g>
   </g>
   <g id="line2d_77">
    <path clip-path="url(#pad74f4bd41)" d="M 51.199915 171.230818 
L 54.44646 170.576562 
L 57.693006 169.902495 
L 60.939551 169.208942 
L 64.186097 168.496275 
L 67.432642 167.764914 
L 70.679188 167.015335 
L 73.925733 166.24807 
L 77.172278 165.463715 
L 80.418824 164.662931 
L 83.665369 163.846603 
L 86.911915 163.016518 
L 90.15846 162.174902 
L 93.405006 161.324182 
L 96.651551 160.467009 
L 99.898097 159.606268 
L 103.144642 158.745319 
L 106.391188 157.888231 
L 109.637733 157.039476 
L 112.884278 156.203781 
L 116.130824 155.386168 
L 119.377369 154.590602 
L 122.623915 153.818587 
L 125.87046 153.070789 
L 129.117006 152.34688 
L 132.363551 151.64466 
L 135.610097 150.958499 
L 138.856642 150.276799 
L 142.103187 149.575919 
L 145.349733 148.825824 
L 148.596278 147.978444 
L 151.842824 146.98462 
L 155.089369 145.857244 
L 158.335915 144.667575 
L 161.58246 143.418332 
L 164.829006 142.027214 
L 168.075551 140.4152 
L 171.322097 138.558424 
L 174.568642 136.461643 
L 177.815187 134.125814 
L 181.061733 131.752893 
L 184.308278 129.747565 
L 187.554824 128.241253 
L 190.801369 126.958382 
L 194.047915 125.910844 
L 197.29446 124.978231 
L 200.541006 123.999678 
L 203.787551 122.972999 
L 207.034097 121.921067 
L 210.280642 120.822287 
L 213.527187 119.744478 
L 216.773733 118.798124 
L 220.020278 118.126755 
L 223.266824 117.8645 
L 226.513369 117.871552 
L 229.759915 118.042629 
L 233.00646 118.12127 
L 236.253006 118.081891 
L 239.499551 117.893499 
L 242.746097 117.660417 
L 245.992642 117.351689 
L 249.239187 116.953558 
L 252.485733 116.39764 
L 255.732278 115.681393 
L 258.978824 114.705031 
L 262.225369 113.476578 
L 265.471915 112.205279 
L 268.71846 110.881005 
L 271.965006 109.54487 
L 275.211551 108.183809 
L 278.458097 106.832733 
L 281.704642 105.448179 
L 284.951188 104.099361 
L 288.197733 102.959329 
L 291.444278 102.218066 
L 294.690824 101.753154 
L 297.937369 101.476162 
L 301.183915 101.216961 
L 304.43046 100.950871 
L 307.677006 100.632541 
L 310.923551 100.189745 
L 314.170097 99.594937 
L 317.416642 98.907242 
L 320.663187 98.177997 
L 323.909733 97.433319 
L 327.156278 96.687443 
L 330.402824 95.94971 
L 333.649369 95.226299 
L 336.895915 94.521539 
L 340.14246 93.838595 
L 343.389006 93.179847 
L 346.635551 92.547101 
L 349.882097 91.94173 
L 353.128642 91.364753 
L 356.375187 90.816902 
L 359.621733 90.297709 
L 362.868278 89.803519 
L 366.114824 89.330278 
L 369.361369 88.874166 
L 372.607915 88.431007 
L 375.85446 87.996493 
" style="fill:none;stroke:#00008b;stroke-linecap:round;stroke-opacity:0.5;stroke-width:1.5;"/>
   </g>
  </g>
  <g id="text_79">
   <!-- dynomight.net -->
   <g style="fill:#808080;opacity:0.5;" transform="translate(346.007188 297.504)scale(0.06 -0.06)">
    <defs>
     <path d="M 2681 3053 
L 2681 4863 
L 3256 4863 
L 3256 0 
L 2681 0 
L 2681 441 
Q 2538 181 2298 45 
Q 2059 -91 1747 -91 
Q 1113 -91 748 401 
Q 384 894 384 1759 
Q 384 2613 750 3098 
Q 1116 3584 1747 3584 
Q 2063 3584 2303 3448 
Q 2544 3313 2681 3053 
z
M 991 1747 
Q 991 1078 1203 737 
Q 1416 397 1831 397 
Q 2247 397 2464 740 
Q 2681 1084 2681 1747 
Q 2681 2413 2464 2755 
Q 2247 3097 1831 3097 
Q 1416 3097 1203 2756 
Q 991 2416 991 1747 
z
" id="DejaVuSansMono-64" transform="scale(0.015625)"/>
     <path d="M 2681 1125 
Q 2538 759 2316 163 
Q 2006 -663 1900 -844 
Q 1756 -1088 1540 -1209 
Q 1325 -1331 1038 -1331 
L 575 -1331 
L 575 -850 
L 916 -850 
Q 1169 -850 1312 -703 
Q 1456 -556 1678 56 
L 325 3500 
L 934 3500 
L 1972 763 
L 2994 3500 
L 3603 3500 
L 2681 1125 
z
" id="DejaVuSansMono-79" transform="scale(0.015625)"/>
     <path d="M 3284 2169 
L 3284 0 
L 2706 0 
L 2706 2169 
Q 2706 2641 2540 2862 
Q 2375 3084 2022 3084 
Q 1619 3084 1401 2798 
Q 1184 2513 1184 1978 
L 1184 0 
L 609 0 
L 609 3500 
L 1184 3500 
L 1184 2975 
Q 1338 3275 1600 3429 
Q 1863 3584 2222 3584 
Q 2756 3584 3020 3232 
Q 3284 2881 3284 2169 
z
" id="DejaVuSansMono-6e" transform="scale(0.015625)"/>
     <path d="M 1925 3097 
Q 1488 3097 1263 2756 
Q 1038 2416 1038 1747 
Q 1038 1081 1263 739 
Q 1488 397 1925 397 
Q 2366 397 2591 739 
Q 2816 1081 2816 1747 
Q 2816 2416 2591 2756 
Q 2366 3097 1925 3097 
z
M 1925 3584 
Q 2653 3584 3039 3112 
Q 3425 2641 3425 1747 
Q 3425 850 3040 379 
Q 2656 -91 1925 -91 
Q 1197 -91 812 379 
Q 428 850 428 1747 
Q 428 2641 812 3112 
Q 1197 3584 1925 3584 
z
" id="DejaVuSansMono-6f" transform="scale(0.015625)"/>
     <path d="M 2113 3144 
Q 2219 3369 2383 3476 
Q 2547 3584 2778 3584 
Q 3200 3584 3373 3257 
Q 3547 2931 3547 2028 
L 3547 0 
L 3022 0 
L 3022 2003 
Q 3022 2744 2939 2923 
Q 2856 3103 2638 3103 
Q 2388 3103 2295 2911 
Q 2203 2719 2203 2003 
L 2203 0 
L 1678 0 
L 1678 2003 
Q 1678 2753 1589 2928 
Q 1500 3103 1269 3103 
Q 1041 3103 952 2911 
Q 863 2719 863 2003 
L 863 0 
L 341 0 
L 341 3500 
L 863 3500 
L 863 3200 
Q 966 3388 1120 3486 
Q 1275 3584 1472 3584 
Q 1709 3584 1867 3475 
Q 2025 3366 2113 3144 
z
" id="DejaVuSansMono-6d" transform="scale(0.015625)"/>
     <path d="M 800 3500 
L 2272 3500 
L 2272 447 
L 3413 447 
L 3413 0 
L 556 0 
L 556 447 
L 1697 447 
L 1697 3053 
L 800 3053 
L 800 3500 
z
M 1697 4863 
L 2272 4863 
L 2272 4134 
L 1697 4134 
L 1697 4863 
z
" id="DejaVuSansMono-69" transform="scale(0.015625)"/>
     <path d="M 2681 1778 
Q 2681 2425 2470 2761 
Q 2259 3097 1856 3097 
Q 1434 3097 1212 2761 
Q 991 2425 991 1778 
Q 991 1131 1214 792 
Q 1438 453 1863 453 
Q 2259 453 2470 793 
Q 2681 1134 2681 1778 
z
M 3256 225 
Q 3256 -563 2884 -969 
Q 2513 -1375 1791 -1375 
Q 1553 -1375 1293 -1331 
Q 1034 -1288 775 -1203 
L 775 -634 
Q 1081 -778 1331 -847 
Q 1581 -916 1791 -916 
Q 2256 -916 2468 -662 
Q 2681 -409 2681 141 
L 2681 166 
L 2681 556 
Q 2544 263 2306 119 
Q 2069 -25 1728 -25 
Q 1116 -25 750 465 
Q 384 956 384 1778 
Q 384 2603 750 3093 
Q 1116 3584 1728 3584 
Q 2066 3584 2300 3450 
Q 2534 3316 2681 3034 
L 2681 3488 
L 3256 3488 
L 3256 225 
z
" id="DejaVuSansMono-67" transform="scale(0.015625)"/>
     <path d="M 3284 2169 
L 3284 0 
L 2706 0 
L 2706 2169 
Q 2706 2641 2540 2862 
Q 2375 3084 2022 3084 
Q 1619 3084 1401 2798 
Q 1184 2513 1184 1978 
L 1184 0 
L 609 0 
L 609 4863 
L 1184 4863 
L 1184 2975 
Q 1338 3275 1600 3429 
Q 1863 3584 2222 3584 
Q 2756 3584 3020 3232 
Q 3284 2881 3284 2169 
z
" id="DejaVuSansMono-68" transform="scale(0.015625)"/>
     <path d="M 1919 4494 
L 1919 3500 
L 3225 3500 
L 3225 3053 
L 1919 3053 
L 1919 1153 
Q 1919 766 2066 612 
Q 2213 459 2578 459 
L 3225 459 
L 3225 0 
L 2522 0 
Q 1875 0 1609 259 
Q 1344 519 1344 1153 
L 1344 3053 
L 409 3053 
L 409 3500 
L 1344 3500 
L 1344 4494 
L 1919 4494 
z
" id="DejaVuSansMono-74" transform="scale(0.015625)"/>
     <path d="M 1528 953 
L 2316 953 
L 2316 0 
L 1528 0 
L 1528 953 
z
" id="DejaVuSansMono-2e" transform="scale(0.015625)"/>
     <path d="M 3475 1894 
L 3475 1613 
L 984 1613 
L 984 1594 
Q 984 1022 1282 709 
Q 1581 397 2125 397 
Q 2400 397 2700 484 
Q 3000 572 3341 750 
L 3341 178 
Q 3013 44 2708 -23 
Q 2403 -91 2119 -91 
Q 1303 -91 843 398 
Q 384 888 384 1747 
Q 384 2584 834 3084 
Q 1284 3584 2034 3584 
Q 2703 3584 3089 3131 
Q 3475 2678 3475 1894 
z
M 2900 2063 
Q 2888 2569 2661 2833 
Q 2434 3097 2009 3097 
Q 1594 3097 1325 2822 
Q 1056 2547 1006 2059 
L 2900 2063 
z
" id="DejaVuSansMono-65" transform="scale(0.015625)"/>
    </defs>
    <use xlink:href="#DejaVuSansMono-64"/>
    <use x="60.205078" xlink:href="#DejaVuSansMono-79"/>
    <use x="120.410156" xlink:href="#DejaVuSansMono-6e"/>
    <use x="180.615234" xlink:href="#DejaVuSansMono-6f"/>
    <use x="240.820312" xlink:href="#DejaVuSansMono-6d"/>
    <use x="301.025391" xlink:href="#DejaVuSansMono-69"/>
    <use x="361.230469" xlink:href="#DejaVuSansMono-67"/>
    <use x="421.435547" xlink:href="#DejaVuSansMono-68"/>
    <use x="481.640625" xlink:href="#DejaVuSansMono-74"/>
    <use x="541.845703" xlink:href="#DejaVuSansMono-2e"/>
    <use x="602.050781" xlink:href="#DejaVuSansMono-6e"/>
    <use x="662.255859" xlink:href="#DejaVuSansMono-65"/>
    <use x="722.460938" xlink:href="#DejaVuSansMono-74"/>
   </g>
  </g>
 </g>
 <defs>
  <clipPath id="pad74f4bd41">
   <rect height="266.112" width="357.12" x="34.967188" y="7.2"/>
  </clipPath>
 </defs>
</svg>
