<?xml version="1.0" encoding="utf-8" standalone="no"?>
<!DOCTYPE svg PUBLIC "-//W3C//DTD SVG 1.1//EN"
  "http://www.w3.org/Graphics/SVG/1.1/DTD/svg11.dtd">
<svg height="306.541687pt" version="1.1" viewBox="0 0 400.404687 306.541687" width="400.404687pt" xmlns="http://www.w3.org/2000/svg" xmlns:xlink="http://www.w3.org/1999/xlink">
 <metadata>
  <rdf:RDF xmlns:cc="http://creativecommons.org/ns#" xmlns:dc="http://purl.org/dc/elements/1.1/" xmlns:rdf="http://www.w3.org/1999/02/22-rdf-syntax-ns#">
   <cc:Work>
    <dc:type rdf:resource="http://purl.org/dc/dcmitype/StillImage"/>
    <dc:date>2021-07-01T15:57:40.170056</dc:date>
    <dc:format>image/svg+xml</dc:format>
    <dc:creator>
     <cc:Agent>
      <dc:title>Matplotlib v3.4.1, https://matplotlib.org/</dc:title>
     </cc:Agent>
    </dc:creator>
   </cc:Work>
  </rdf:RDF>
 </metadata>
 <defs>
  <style type="text/css">*{stroke-linecap:butt;stroke-linejoin:round;}</style>
 </defs>
 <g id="figure_1">
  <g id="patch_1">
   <path d="M 0 306.541687 
L 400.404687 306.541687 
L 400.404687 0 
L 0 0 
z
" style="fill:#ffffff;"/>
  </g>
  <g id="axes_1">
   <g id="patch_2">
    <path d="M 35.20625 273.312 
L 392.32625 273.312 
L 392.32625 7.2 
L 35.20625 7.2 
z
" style="fill:#ffffff;"/>
   </g>
   <g id="matplotlib.axis_1">
    <g id="xtick_1">
     <g id="line2d_1"/>
     <g id="text_1">
      <!-- 0.65 -->
      <g style="fill:#262626;" transform="translate(79.058146 283.969812)scale(0.1 -0.1)">
       <defs>
        <path d="M 266 2259 
Q 266 3072 433 3567 
Q 600 4063 929 4331 
Q 1259 4600 1759 4600 
Q 2128 4600 2406 4451 
Q 2684 4303 2865 4023 
Q 3047 3744 3150 3342 
Q 3253 2941 3253 2259 
Q 3253 1453 3087 958 
Q 2922 463 2592 192 
Q 2263 -78 1759 -78 
Q 1097 -78 719 397 
Q 266 969 266 2259 
z
M 844 2259 
Q 844 1131 1108 757 
Q 1372 384 1759 384 
Q 2147 384 2411 759 
Q 2675 1134 2675 2259 
Q 2675 3391 2411 3762 
Q 2147 4134 1753 4134 
Q 1366 4134 1134 3806 
Q 844 3388 844 2259 
z
" id="ArialMT-30" transform="scale(0.015625)"/>
        <path d="M 581 0 
L 581 641 
L 1222 641 
L 1222 0 
L 581 0 
z
" id="ArialMT-2e" transform="scale(0.015625)"/>
        <path d="M 3184 3459 
L 2625 3416 
Q 2550 3747 2413 3897 
Q 2184 4138 1850 4138 
Q 1581 4138 1378 3988 
Q 1113 3794 959 3422 
Q 806 3050 800 2363 
Q 1003 2672 1297 2822 
Q 1591 2972 1913 2972 
Q 2475 2972 2870 2558 
Q 3266 2144 3266 1488 
Q 3266 1056 3080 686 
Q 2894 316 2569 119 
Q 2244 -78 1831 -78 
Q 1128 -78 684 439 
Q 241 956 241 2144 
Q 241 3472 731 4075 
Q 1159 4600 1884 4600 
Q 2425 4600 2770 4297 
Q 3116 3994 3184 3459 
z
M 888 1484 
Q 888 1194 1011 928 
Q 1134 663 1356 523 
Q 1578 384 1822 384 
Q 2178 384 2434 671 
Q 2691 959 2691 1453 
Q 2691 1928 2437 2201 
Q 2184 2475 1800 2475 
Q 1419 2475 1153 2201 
Q 888 1928 888 1484 
z
" id="ArialMT-36" transform="scale(0.015625)"/>
        <path d="M 266 1200 
L 856 1250 
Q 922 819 1161 601 
Q 1400 384 1738 384 
Q 2144 384 2425 690 
Q 2706 997 2706 1503 
Q 2706 1984 2436 2262 
Q 2166 2541 1728 2541 
Q 1456 2541 1237 2417 
Q 1019 2294 894 2097 
L 366 2166 
L 809 4519 
L 3088 4519 
L 3088 3981 
L 1259 3981 
L 1013 2750 
Q 1425 3038 1878 3038 
Q 2478 3038 2890 2622 
Q 3303 2206 3303 1553 
Q 3303 931 2941 478 
Q 2500 -78 1738 -78 
Q 1113 -78 717 272 
Q 322 622 266 1200 
z
" id="ArialMT-35" transform="scale(0.015625)"/>
       </defs>
       <use xlink:href="#ArialMT-30"/>
       <use x="55.615234" xlink:href="#ArialMT-2e"/>
       <use x="83.398438" xlink:href="#ArialMT-36"/>
       <use x="139.013672" xlink:href="#ArialMT-35"/>
      </g>
     </g>
    </g>
    <g id="xtick_2">
     <g id="line2d_2"/>
     <g id="text_2">
      <!-- 0.70 -->
      <g style="fill:#262626;" transform="translate(150.884373 283.969812)scale(0.1 -0.1)">
       <defs>
        <path d="M 303 3981 
L 303 4522 
L 3269 4522 
L 3269 4084 
Q 2831 3619 2401 2847 
Q 1972 2075 1738 1259 
Q 1569 684 1522 0 
L 944 0 
Q 953 541 1156 1306 
Q 1359 2072 1739 2783 
Q 2119 3494 2547 3981 
L 303 3981 
z
" id="ArialMT-37" transform="scale(0.015625)"/>
       </defs>
       <use xlink:href="#ArialMT-30"/>
       <use x="55.615234" xlink:href="#ArialMT-2e"/>
       <use x="83.398438" xlink:href="#ArialMT-37"/>
       <use x="139.013672" xlink:href="#ArialMT-30"/>
      </g>
     </g>
    </g>
    <g id="xtick_3">
     <g id="line2d_3"/>
     <g id="text_3">
      <!-- 0.75 -->
      <g style="fill:#262626;" transform="translate(222.7106 283.969812)scale(0.1 -0.1)">
       <use xlink:href="#ArialMT-30"/>
       <use x="55.615234" xlink:href="#ArialMT-2e"/>
       <use x="83.398438" xlink:href="#ArialMT-37"/>
       <use x="139.013672" xlink:href="#ArialMT-35"/>
      </g>
     </g>
    </g>
    <g id="xtick_4">
     <g id="line2d_4"/>
     <g id="text_4">
      <!-- 0.80 -->
      <g style="fill:#262626;" transform="translate(294.536827 283.969812)scale(0.1 -0.1)">
       <defs>
        <path d="M 1131 2484 
Q 781 2613 612 2850 
Q 444 3088 444 3419 
Q 444 3919 803 4259 
Q 1163 4600 1759 4600 
Q 2359 4600 2725 4251 
Q 3091 3903 3091 3403 
Q 3091 3084 2923 2848 
Q 2756 2613 2416 2484 
Q 2838 2347 3058 2040 
Q 3278 1734 3278 1309 
Q 3278 722 2862 322 
Q 2447 -78 1769 -78 
Q 1091 -78 675 323 
Q 259 725 259 1325 
Q 259 1772 486 2073 
Q 713 2375 1131 2484 
z
M 1019 3438 
Q 1019 3113 1228 2906 
Q 1438 2700 1772 2700 
Q 2097 2700 2305 2904 
Q 2513 3109 2513 3406 
Q 2513 3716 2298 3927 
Q 2084 4138 1766 4138 
Q 1444 4138 1231 3931 
Q 1019 3725 1019 3438 
z
M 838 1322 
Q 838 1081 952 856 
Q 1066 631 1291 507 
Q 1516 384 1775 384 
Q 2178 384 2440 643 
Q 2703 903 2703 1303 
Q 2703 1709 2433 1975 
Q 2163 2241 1756 2241 
Q 1359 2241 1098 1978 
Q 838 1716 838 1322 
z
" id="ArialMT-38" transform="scale(0.015625)"/>
       </defs>
       <use xlink:href="#ArialMT-30"/>
       <use x="55.615234" xlink:href="#ArialMT-2e"/>
       <use x="83.398438" xlink:href="#ArialMT-38"/>
       <use x="139.013672" xlink:href="#ArialMT-30"/>
      </g>
     </g>
    </g>
    <g id="xtick_5">
     <g id="line2d_5"/>
     <g id="text_5">
      <!-- 0.85 -->
      <g style="fill:#262626;" transform="translate(366.363054 283.969812)scale(0.1 -0.1)">
       <use xlink:href="#ArialMT-30"/>
       <use x="55.615234" xlink:href="#ArialMT-2e"/>
       <use x="83.398438" xlink:href="#ArialMT-38"/>
       <use x="139.013672" xlink:href="#ArialMT-35"/>
      </g>
     </g>
    </g>
    <g id="text_6">
     <!-- GGGI (more is more equal) -->
     <g style="fill:#262626;" transform="translate(153.199063 297.237)scale(0.1 -0.1)">
      <defs>
       <path d="M 2638 1797 
L 2638 2334 
L 4578 2338 
L 4578 638 
Q 4131 281 3656 101 
Q 3181 -78 2681 -78 
Q 2006 -78 1454 211 
Q 903 500 622 1047 
Q 341 1594 341 2269 
Q 341 2938 620 3517 
Q 900 4097 1425 4378 
Q 1950 4659 2634 4659 
Q 3131 4659 3532 4498 
Q 3934 4338 4162 4050 
Q 4391 3763 4509 3300 
L 3963 3150 
Q 3859 3500 3706 3700 
Q 3553 3900 3268 4020 
Q 2984 4141 2638 4141 
Q 2222 4141 1919 4014 
Q 1616 3888 1430 3681 
Q 1244 3475 1141 3228 
Q 966 2803 966 2306 
Q 966 1694 1177 1281 
Q 1388 869 1791 669 
Q 2194 469 2647 469 
Q 3041 469 3416 620 
Q 3791 772 3984 944 
L 3984 1797 
L 2638 1797 
z
" id="ArialMT-47" transform="scale(0.015625)"/>
       <path d="M 597 0 
L 597 4581 
L 1203 4581 
L 1203 0 
L 597 0 
z
" id="ArialMT-49" transform="scale(0.015625)"/>
       <path id="ArialMT-20" transform="scale(0.015625)"/>
       <path d="M 1497 -1347 
Q 1031 -759 709 28 
Q 388 816 388 1659 
Q 388 2403 628 3084 
Q 909 3875 1497 4659 
L 1900 4659 
Q 1522 4009 1400 3731 
Q 1209 3300 1100 2831 
Q 966 2247 966 1656 
Q 966 153 1900 -1347 
L 1497 -1347 
z
" id="ArialMT-28" transform="scale(0.015625)"/>
       <path d="M 422 0 
L 422 3319 
L 925 3319 
L 925 2853 
Q 1081 3097 1340 3245 
Q 1600 3394 1931 3394 
Q 2300 3394 2536 3241 
Q 2772 3088 2869 2813 
Q 3263 3394 3894 3394 
Q 4388 3394 4653 3120 
Q 4919 2847 4919 2278 
L 4919 0 
L 4359 0 
L 4359 2091 
Q 4359 2428 4304 2576 
Q 4250 2725 4106 2815 
Q 3963 2906 3769 2906 
Q 3419 2906 3187 2673 
Q 2956 2441 2956 1928 
L 2956 0 
L 2394 0 
L 2394 2156 
Q 2394 2531 2256 2718 
Q 2119 2906 1806 2906 
Q 1569 2906 1367 2781 
Q 1166 2656 1075 2415 
Q 984 2175 984 1722 
L 984 0 
L 422 0 
z
" id="ArialMT-6d" transform="scale(0.015625)"/>
       <path d="M 213 1659 
Q 213 2581 725 3025 
Q 1153 3394 1769 3394 
Q 2453 3394 2887 2945 
Q 3322 2497 3322 1706 
Q 3322 1066 3130 698 
Q 2938 331 2570 128 
Q 2203 -75 1769 -75 
Q 1072 -75 642 372 
Q 213 819 213 1659 
z
M 791 1659 
Q 791 1022 1069 705 
Q 1347 388 1769 388 
Q 2188 388 2466 706 
Q 2744 1025 2744 1678 
Q 2744 2294 2464 2611 
Q 2184 2928 1769 2928 
Q 1347 2928 1069 2612 
Q 791 2297 791 1659 
z
" id="ArialMT-6f" transform="scale(0.015625)"/>
       <path d="M 416 0 
L 416 3319 
L 922 3319 
L 922 2816 
Q 1116 3169 1280 3281 
Q 1444 3394 1641 3394 
Q 1925 3394 2219 3213 
L 2025 2691 
Q 1819 2813 1613 2813 
Q 1428 2813 1281 2702 
Q 1134 2591 1072 2394 
Q 978 2094 978 1738 
L 978 0 
L 416 0 
z
" id="ArialMT-72" transform="scale(0.015625)"/>
       <path d="M 2694 1069 
L 3275 997 
Q 3138 488 2766 206 
Q 2394 -75 1816 -75 
Q 1088 -75 661 373 
Q 234 822 234 1631 
Q 234 2469 665 2931 
Q 1097 3394 1784 3394 
Q 2450 3394 2872 2941 
Q 3294 2488 3294 1666 
Q 3294 1616 3291 1516 
L 816 1516 
Q 847 969 1125 678 
Q 1403 388 1819 388 
Q 2128 388 2347 550 
Q 2566 713 2694 1069 
z
M 847 1978 
L 2700 1978 
Q 2663 2397 2488 2606 
Q 2219 2931 1791 2931 
Q 1403 2931 1139 2672 
Q 875 2413 847 1978 
z
" id="ArialMT-65" transform="scale(0.015625)"/>
       <path d="M 425 3934 
L 425 4581 
L 988 4581 
L 988 3934 
L 425 3934 
z
M 425 0 
L 425 3319 
L 988 3319 
L 988 0 
L 425 0 
z
" id="ArialMT-69" transform="scale(0.015625)"/>
       <path d="M 197 991 
L 753 1078 
Q 800 744 1014 566 
Q 1228 388 1613 388 
Q 2000 388 2187 545 
Q 2375 703 2375 916 
Q 2375 1106 2209 1216 
Q 2094 1291 1634 1406 
Q 1016 1563 777 1677 
Q 538 1791 414 1992 
Q 291 2194 291 2438 
Q 291 2659 392 2848 
Q 494 3038 669 3163 
Q 800 3259 1026 3326 
Q 1253 3394 1513 3394 
Q 1903 3394 2198 3281 
Q 2494 3169 2634 2976 
Q 2775 2784 2828 2463 
L 2278 2388 
Q 2241 2644 2061 2787 
Q 1881 2931 1553 2931 
Q 1166 2931 1000 2803 
Q 834 2675 834 2503 
Q 834 2394 903 2306 
Q 972 2216 1119 2156 
Q 1203 2125 1616 2013 
Q 2213 1853 2448 1751 
Q 2684 1650 2818 1456 
Q 2953 1263 2953 975 
Q 2953 694 2789 445 
Q 2625 197 2315 61 
Q 2006 -75 1616 -75 
Q 969 -75 630 194 
Q 291 463 197 991 
z
" id="ArialMT-73" transform="scale(0.015625)"/>
       <path d="M 2538 -1272 
L 2538 353 
Q 2406 169 2170 47 
Q 1934 -75 1669 -75 
Q 1078 -75 651 397 
Q 225 869 225 1691 
Q 225 2191 398 2587 
Q 572 2984 901 3189 
Q 1231 3394 1625 3394 
Q 2241 3394 2594 2875 
L 2594 3319 
L 3100 3319 
L 3100 -1272 
L 2538 -1272 
z
M 803 1669 
Q 803 1028 1072 708 
Q 1341 388 1716 388 
Q 2075 388 2334 692 
Q 2594 997 2594 1619 
Q 2594 2281 2320 2615 
Q 2047 2950 1678 2950 
Q 1313 2950 1058 2639 
Q 803 2328 803 1669 
z
" id="ArialMT-71" transform="scale(0.015625)"/>
       <path d="M 2597 0 
L 2597 488 
Q 2209 -75 1544 -75 
Q 1250 -75 995 37 
Q 741 150 617 320 
Q 494 491 444 738 
Q 409 903 409 1263 
L 409 3319 
L 972 3319 
L 972 1478 
Q 972 1038 1006 884 
Q 1059 663 1231 536 
Q 1403 409 1656 409 
Q 1909 409 2131 539 
Q 2353 669 2445 892 
Q 2538 1116 2538 1541 
L 2538 3319 
L 3100 3319 
L 3100 0 
L 2597 0 
z
" id="ArialMT-75" transform="scale(0.015625)"/>
       <path d="M 2588 409 
Q 2275 144 1986 34 
Q 1697 -75 1366 -75 
Q 819 -75 525 192 
Q 231 459 231 875 
Q 231 1119 342 1320 
Q 453 1522 633 1644 
Q 813 1766 1038 1828 
Q 1203 1872 1538 1913 
Q 2219 1994 2541 2106 
Q 2544 2222 2544 2253 
Q 2544 2597 2384 2738 
Q 2169 2928 1744 2928 
Q 1347 2928 1158 2789 
Q 969 2650 878 2297 
L 328 2372 
Q 403 2725 575 2942 
Q 747 3159 1072 3276 
Q 1397 3394 1825 3394 
Q 2250 3394 2515 3294 
Q 2781 3194 2906 3042 
Q 3031 2891 3081 2659 
Q 3109 2516 3109 2141 
L 3109 1391 
Q 3109 606 3145 398 
Q 3181 191 3288 0 
L 2700 0 
Q 2613 175 2588 409 
z
M 2541 1666 
Q 2234 1541 1622 1453 
Q 1275 1403 1131 1340 
Q 988 1278 909 1158 
Q 831 1038 831 891 
Q 831 666 1001 516 
Q 1172 366 1500 366 
Q 1825 366 2078 508 
Q 2331 650 2450 897 
Q 2541 1088 2541 1459 
L 2541 1666 
z
" id="ArialMT-61" transform="scale(0.015625)"/>
       <path d="M 409 0 
L 409 4581 
L 972 4581 
L 972 0 
L 409 0 
z
" id="ArialMT-6c" transform="scale(0.015625)"/>
       <path d="M 791 -1347 
L 388 -1347 
Q 1322 153 1322 1656 
Q 1322 2244 1188 2822 
Q 1081 3291 891 3722 
Q 769 4003 388 4659 
L 791 4659 
Q 1378 3875 1659 3084 
Q 1900 2403 1900 1659 
Q 1900 816 1576 28 
Q 1253 -759 791 -1347 
z
" id="ArialMT-29" transform="scale(0.015625)"/>
      </defs>
      <use xlink:href="#ArialMT-47"/>
      <use x="77.783203" xlink:href="#ArialMT-47"/>
      <use x="155.566406" xlink:href="#ArialMT-47"/>
      <use x="233.349609" xlink:href="#ArialMT-49"/>
      <use x="261.132812" xlink:href="#ArialMT-20"/>
      <use x="288.916016" xlink:href="#ArialMT-28"/>
      <use x="322.216797" xlink:href="#ArialMT-6d"/>
      <use x="405.517578" xlink:href="#ArialMT-6f"/>
      <use x="461.132812" xlink:href="#ArialMT-72"/>
      <use x="494.433594" xlink:href="#ArialMT-65"/>
      <use x="550.048828" xlink:href="#ArialMT-20"/>
      <use x="577.832031" xlink:href="#ArialMT-69"/>
      <use x="600.048828" xlink:href="#ArialMT-73"/>
      <use x="650.048828" xlink:href="#ArialMT-20"/>
      <use x="677.832031" xlink:href="#ArialMT-6d"/>
      <use x="761.132812" xlink:href="#ArialMT-6f"/>
      <use x="816.748047" xlink:href="#ArialMT-72"/>
      <use x="850.048828" xlink:href="#ArialMT-65"/>
      <use x="905.664062" xlink:href="#ArialMT-20"/>
      <use x="933.447266" xlink:href="#ArialMT-65"/>
      <use x="989.0625" xlink:href="#ArialMT-71"/>
      <use x="1044.677734" xlink:href="#ArialMT-75"/>
      <use x="1100.292969" xlink:href="#ArialMT-61"/>
      <use x="1155.908203" xlink:href="#ArialMT-6c"/>
      <use x="1178.125" xlink:href="#ArialMT-29"/>
     </g>
    </g>
   </g>
   <g id="matplotlib.axis_2">
    <g id="ytick_1">
     <g id="line2d_6"/>
     <g id="text_7">
      <!-- 15 -->
      <g style="fill:#262626;" transform="translate(20.584375 272.567436)scale(0.1 -0.1)">
       <defs>
        <path d="M 2384 0 
L 1822 0 
L 1822 3584 
Q 1619 3391 1289 3197 
Q 959 3003 697 2906 
L 697 3450 
Q 1169 3672 1522 3987 
Q 1875 4303 2022 4600 
L 2384 4600 
L 2384 0 
z
" id="ArialMT-31" transform="scale(0.015625)"/>
       </defs>
       <use xlink:href="#ArialMT-31"/>
       <use x="55.615234" xlink:href="#ArialMT-35"/>
      </g>
     </g>
    </g>
    <g id="ytick_2">
     <g id="line2d_7"/>
     <g id="text_8">
      <!-- 20 -->
      <g style="fill:#262626;" transform="translate(20.584375 223.989123)scale(0.1 -0.1)">
       <defs>
        <path d="M 3222 541 
L 3222 0 
L 194 0 
Q 188 203 259 391 
Q 375 700 629 1000 
Q 884 1300 1366 1694 
Q 2113 2306 2375 2664 
Q 2638 3022 2638 3341 
Q 2638 3675 2398 3904 
Q 2159 4134 1775 4134 
Q 1369 4134 1125 3890 
Q 881 3647 878 3216 
L 300 3275 
Q 359 3922 746 4261 
Q 1134 4600 1788 4600 
Q 2447 4600 2831 4234 
Q 3216 3869 3216 3328 
Q 3216 3053 3103 2787 
Q 2991 2522 2730 2228 
Q 2469 1934 1863 1422 
Q 1356 997 1212 845 
Q 1069 694 975 541 
L 3222 541 
z
" id="ArialMT-32" transform="scale(0.015625)"/>
       </defs>
       <use xlink:href="#ArialMT-32"/>
       <use x="55.615234" xlink:href="#ArialMT-30"/>
      </g>
     </g>
    </g>
    <g id="ytick_3">
     <g id="line2d_8"/>
     <g id="text_9">
      <!-- 25 -->
      <g style="fill:#262626;" transform="translate(20.584375 175.41081)scale(0.1 -0.1)">
       <use xlink:href="#ArialMT-32"/>
       <use x="55.615234" xlink:href="#ArialMT-35"/>
      </g>
     </g>
    </g>
    <g id="ytick_4">
     <g id="line2d_9"/>
     <g id="text_10">
      <!-- 30 -->
      <g style="fill:#262626;" transform="translate(20.584375 126.832497)scale(0.1 -0.1)">
       <defs>
        <path d="M 269 1209 
L 831 1284 
Q 928 806 1161 595 
Q 1394 384 1728 384 
Q 2125 384 2398 659 
Q 2672 934 2672 1341 
Q 2672 1728 2419 1979 
Q 2166 2231 1775 2231 
Q 1616 2231 1378 2169 
L 1441 2663 
Q 1497 2656 1531 2656 
Q 1891 2656 2178 2843 
Q 2466 3031 2466 3422 
Q 2466 3731 2256 3934 
Q 2047 4138 1716 4138 
Q 1388 4138 1169 3931 
Q 950 3725 888 3313 
L 325 3413 
Q 428 3978 793 4289 
Q 1159 4600 1703 4600 
Q 2078 4600 2393 4439 
Q 2709 4278 2876 4000 
Q 3044 3722 3044 3409 
Q 3044 3113 2884 2869 
Q 2725 2625 2413 2481 
Q 2819 2388 3044 2092 
Q 3269 1797 3269 1353 
Q 3269 753 2831 336 
Q 2394 -81 1725 -81 
Q 1122 -81 723 278 
Q 325 638 269 1209 
z
" id="ArialMT-33" transform="scale(0.015625)"/>
       </defs>
       <use xlink:href="#ArialMT-33"/>
       <use x="55.615234" xlink:href="#ArialMT-30"/>
      </g>
     </g>
    </g>
    <g id="ytick_5">
     <g id="line2d_10"/>
     <g id="text_11">
      <!-- 35 -->
      <g style="fill:#262626;" transform="translate(20.584375 78.254183)scale(0.1 -0.1)">
       <use xlink:href="#ArialMT-33"/>
       <use x="55.615234" xlink:href="#ArialMT-35"/>
      </g>
     </g>
    </g>
    <g id="ytick_6">
     <g id="line2d_11"/>
     <g id="text_12">
      <!-- 40 -->
      <g style="fill:#262626;" transform="translate(20.584375 29.67587)scale(0.1 -0.1)">
       <defs>
        <path d="M 2069 0 
L 2069 1097 
L 81 1097 
L 81 1613 
L 2172 4581 
L 2631 4581 
L 2631 1613 
L 3250 1613 
L 3250 1097 
L 2631 1097 
L 2631 0 
L 2069 0 
z
M 2069 1613 
L 2069 3678 
L 634 1613 
L 2069 1613 
z
" id="ArialMT-34" transform="scale(0.015625)"/>
       </defs>
       <use xlink:href="#ArialMT-34"/>
       <use x="55.615234" xlink:href="#ArialMT-30"/>
      </g>
     </g>
    </g>
    <g id="text_13">
     <!-- female STEM propensity -->
     <g style="fill:#262626;" transform="translate(14.479688 194.996625)rotate(-90)scale(0.1 -0.1)">
      <defs>
       <path d="M 556 0 
L 556 2881 
L 59 2881 
L 59 3319 
L 556 3319 
L 556 3672 
Q 556 4006 616 4169 
Q 697 4388 901 4523 
Q 1106 4659 1475 4659 
Q 1713 4659 2000 4603 
L 1916 4113 
Q 1741 4144 1584 4144 
Q 1328 4144 1222 4034 
Q 1116 3925 1116 3625 
L 1116 3319 
L 1763 3319 
L 1763 2881 
L 1116 2881 
L 1116 0 
L 556 0 
z
" id="ArialMT-66" transform="scale(0.015625)"/>
       <path d="M 288 1472 
L 859 1522 
Q 900 1178 1048 958 
Q 1197 738 1509 602 
Q 1822 466 2213 466 
Q 2559 466 2825 569 
Q 3091 672 3220 851 
Q 3350 1031 3350 1244 
Q 3350 1459 3225 1620 
Q 3100 1781 2813 1891 
Q 2628 1963 1997 2114 
Q 1366 2266 1113 2400 
Q 784 2572 623 2826 
Q 463 3081 463 3397 
Q 463 3744 659 4045 
Q 856 4347 1234 4503 
Q 1613 4659 2075 4659 
Q 2584 4659 2973 4495 
Q 3363 4331 3572 4012 
Q 3781 3694 3797 3291 
L 3216 3247 
Q 3169 3681 2898 3903 
Q 2628 4125 2100 4125 
Q 1550 4125 1298 3923 
Q 1047 3722 1047 3438 
Q 1047 3191 1225 3031 
Q 1400 2872 2139 2705 
Q 2878 2538 3153 2413 
Q 3553 2228 3743 1945 
Q 3934 1663 3934 1294 
Q 3934 928 3725 604 
Q 3516 281 3123 101 
Q 2731 -78 2241 -78 
Q 1619 -78 1198 103 
Q 778 284 539 648 
Q 300 1013 288 1472 
z
" id="ArialMT-53" transform="scale(0.015625)"/>
       <path d="M 1659 0 
L 1659 4041 
L 150 4041 
L 150 4581 
L 3781 4581 
L 3781 4041 
L 2266 4041 
L 2266 0 
L 1659 0 
z
" id="ArialMT-54" transform="scale(0.015625)"/>
       <path d="M 506 0 
L 506 4581 
L 3819 4581 
L 3819 4041 
L 1113 4041 
L 1113 2638 
L 3647 2638 
L 3647 2100 
L 1113 2100 
L 1113 541 
L 3925 541 
L 3925 0 
L 506 0 
z
" id="ArialMT-45" transform="scale(0.015625)"/>
       <path d="M 475 0 
L 475 4581 
L 1388 4581 
L 2472 1338 
Q 2622 884 2691 659 
Q 2769 909 2934 1394 
L 4031 4581 
L 4847 4581 
L 4847 0 
L 4263 0 
L 4263 3834 
L 2931 0 
L 2384 0 
L 1059 3900 
L 1059 0 
L 475 0 
z
" id="ArialMT-4d" transform="scale(0.015625)"/>
       <path d="M 422 -1272 
L 422 3319 
L 934 3319 
L 934 2888 
Q 1116 3141 1344 3267 
Q 1572 3394 1897 3394 
Q 2322 3394 2647 3175 
Q 2972 2956 3137 2557 
Q 3303 2159 3303 1684 
Q 3303 1175 3120 767 
Q 2938 359 2589 142 
Q 2241 -75 1856 -75 
Q 1575 -75 1351 44 
Q 1128 163 984 344 
L 984 -1272 
L 422 -1272 
z
M 931 1641 
Q 931 1000 1190 694 
Q 1450 388 1819 388 
Q 2194 388 2461 705 
Q 2728 1022 2728 1688 
Q 2728 2322 2467 2637 
Q 2206 2953 1844 2953 
Q 1484 2953 1207 2617 
Q 931 2281 931 1641 
z
" id="ArialMT-70" transform="scale(0.015625)"/>
       <path d="M 422 0 
L 422 3319 
L 928 3319 
L 928 2847 
Q 1294 3394 1984 3394 
Q 2284 3394 2536 3286 
Q 2788 3178 2913 3003 
Q 3038 2828 3088 2588 
Q 3119 2431 3119 2041 
L 3119 0 
L 2556 0 
L 2556 2019 
Q 2556 2363 2490 2533 
Q 2425 2703 2258 2804 
Q 2091 2906 1866 2906 
Q 1506 2906 1245 2678 
Q 984 2450 984 1813 
L 984 0 
L 422 0 
z
" id="ArialMT-6e" transform="scale(0.015625)"/>
       <path d="M 1650 503 
L 1731 6 
Q 1494 -44 1306 -44 
Q 1000 -44 831 53 
Q 663 150 594 308 
Q 525 466 525 972 
L 525 2881 
L 113 2881 
L 113 3319 
L 525 3319 
L 525 4141 
L 1084 4478 
L 1084 3319 
L 1650 3319 
L 1650 2881 
L 1084 2881 
L 1084 941 
Q 1084 700 1114 631 
Q 1144 563 1211 522 
Q 1278 481 1403 481 
Q 1497 481 1650 503 
z
" id="ArialMT-74" transform="scale(0.015625)"/>
       <path d="M 397 -1278 
L 334 -750 
Q 519 -800 656 -800 
Q 844 -800 956 -737 
Q 1069 -675 1141 -563 
Q 1194 -478 1313 -144 
Q 1328 -97 1363 -6 
L 103 3319 
L 709 3319 
L 1400 1397 
Q 1534 1031 1641 628 
Q 1738 1016 1872 1384 
L 2581 3319 
L 3144 3319 
L 1881 -56 
Q 1678 -603 1566 -809 
Q 1416 -1088 1222 -1217 
Q 1028 -1347 759 -1347 
Q 597 -1347 397 -1278 
z
" id="ArialMT-79" transform="scale(0.015625)"/>
      </defs>
      <use xlink:href="#ArialMT-66"/>
      <use x="27.783203" xlink:href="#ArialMT-65"/>
      <use x="83.398438" xlink:href="#ArialMT-6d"/>
      <use x="166.699219" xlink:href="#ArialMT-61"/>
      <use x="222.314453" xlink:href="#ArialMT-6c"/>
      <use x="244.53125" xlink:href="#ArialMT-65"/>
      <use x="300.146484" xlink:href="#ArialMT-20"/>
      <use x="327.929688" xlink:href="#ArialMT-53"/>
      <use x="394.628906" xlink:href="#ArialMT-54"/>
      <use x="455.712891" xlink:href="#ArialMT-45"/>
      <use x="522.412109" xlink:href="#ArialMT-4d"/>
      <use x="605.712891" xlink:href="#ArialMT-20"/>
      <use x="633.496094" xlink:href="#ArialMT-70"/>
      <use x="689.111328" xlink:href="#ArialMT-72"/>
      <use x="722.412109" xlink:href="#ArialMT-6f"/>
      <use x="778.027344" xlink:href="#ArialMT-70"/>
      <use x="833.642578" xlink:href="#ArialMT-65"/>
      <use x="889.257812" xlink:href="#ArialMT-6e"/>
      <use x="944.873047" xlink:href="#ArialMT-73"/>
      <use x="994.873047" xlink:href="#ArialMT-69"/>
      <use x="1017.089844" xlink:href="#ArialMT-74"/>
      <use x="1044.873047" xlink:href="#ArialMT-79"/>
     </g>
    </g>
   </g>
   <g id="PolyCollection_1">
    <path clip-path="url(#p51d7aadc14)" d="M 51.438977 22.08308 
L 51.438977 207.417132 
L 54.685523 204.984372 
L 57.932068 202.551204 
L 61.178614 200.118329 
L 64.425159 197.753513 
L 67.671705 195.636962 
L 70.91825 193.550265 
L 74.164795 191.493756 
L 77.411341 188.991516 
L 80.657886 186.541409 
L 83.904432 184.53941 
L 87.150977 182.915495 
L 90.397523 180.806294 
L 93.644068 178.747248 
L 96.890614 176.450791 
L 100.137159 174.651545 
L 103.383705 172.651555 
L 106.63025 171.048255 
L 109.876795 170.405824 
L 113.123341 169.218639 
L 116.369886 167.768184 
L 119.616432 167.50571 
L 122.862977 167.315597 
L 126.109523 168.087493 
L 129.356068 167.193023 
L 132.602614 167.636743 
L 135.849159 166.681258 
L 139.095705 167.294534 
L 142.34225 167.04591 
L 145.588795 167.304626 
L 148.835341 166.839953 
L 152.081886 165.754478 
L 155.328432 165.00268 
L 158.574977 164.194679 
L 161.821523 163.871535 
L 165.068068 163.692271 
L 168.314614 163.552243 
L 171.561159 164.111039 
L 174.807705 165.077926 
L 178.05425 165.464283 
L 181.300795 166.390142 
L 184.547341 166.341267 
L 187.793886 167.988247 
L 191.040432 169.797981 
L 194.286977 171.538425 
L 197.533523 173.213716 
L 200.780068 173.971334 
L 204.026614 175.814522 
L 207.273159 177.943155 
L 210.519705 179.777063 
L 213.76625 181.459943 
L 217.012795 183.644446 
L 220.259341 186.045224 
L 223.505886 187.069102 
L 226.752432 186.682134 
L 229.998977 187.702683 
L 233.245523 188.522144 
L 236.492068 189.061328 
L 239.738614 189.669561 
L 242.985159 190.152751 
L 246.231705 190.838797 
L 249.47825 191.086229 
L 252.724795 191.588173 
L 255.971341 191.64178 
L 259.217886 192.067729 
L 262.464432 192.842402 
L 265.710977 194.081324 
L 268.957523 194.848463 
L 272.204068 195.351098 
L 275.450614 195.894293 
L 278.697159 196.23191 
L 281.943705 196.606882 
L 285.19025 197.056184 
L 288.436795 197.621957 
L 291.683341 198.421477 
L 294.929886 199.313434 
L 298.176432 200.30303 
L 301.422977 201.083977 
L 304.669523 201.91928 
L 307.916068 202.771239 
L 311.162614 203.63474 
L 314.409159 204.505993 
L 317.655705 205.285406 
L 320.90225 205.942023 
L 324.148795 206.553588 
L 327.395341 207.022381 
L 330.641886 207.513563 
L 333.888432 208.018438 
L 337.134977 208.483335 
L 340.381523 209.05559 
L 343.628068 209.808378 
L 346.874614 210.76008 
L 350.121159 211.706188 
L 353.367705 212.461907 
L 356.61425 213.233759 
L 359.860795 214.235455 
L 363.107341 215.333337 
L 366.353886 216.462595 
L 369.600432 217.502701 
L 372.846977 218.579093 
L 376.093523 219.659304 
L 376.093523 180.463074 
L 376.093523 180.463074 
L 372.846977 180.031939 
L 369.600432 179.669373 
L 366.353886 179.414281 
L 363.107341 179.072488 
L 359.860795 178.728815 
L 356.61425 178.356223 
L 353.367705 178.102052 
L 350.121159 178.220859 
L 346.874614 178.283946 
L 343.628068 178.246344 
L 340.381523 178.21107 
L 337.134977 178.178116 
L 333.888432 177.970002 
L 330.641886 177.399129 
L 327.395341 176.701159 
L 324.148795 175.869269 
L 320.90225 175.055175 
L 317.655705 174.336983 
L 314.409159 174.104631 
L 311.162614 174.228565 
L 307.916068 174.311969 
L 304.669523 173.500294 
L 301.422977 172.902432 
L 298.176432 171.944865 
L 294.929886 170.050113 
L 291.683341 168.554985 
L 288.436795 167.733951 
L 285.19025 166.412604 
L 281.943705 165.563053 
L 278.697159 164.705254 
L 275.450614 163.346056 
L 272.204068 161.980144 
L 268.957523 161.368967 
L 265.710977 160.343737 
L 262.464432 159.299883 
L 259.217886 158.06454 
L 255.971341 157.455198 
L 252.724795 157.268482 
L 249.47825 155.863748 
L 246.231705 154.827894 
L 242.985159 154.259199 
L 239.738614 153.979892 
L 236.492068 153.738006 
L 233.245523 152.891506 
L 229.998977 151.974061 
L 226.752432 151.082013 
L 223.505886 150.534814 
L 220.259341 149.269653 
L 217.012795 148.170879 
L 213.76625 147.08296 
L 210.519705 145.66274 
L 207.273159 144.919988 
L 204.026614 143.300353 
L 200.780068 141.449216 
L 197.533523 138.884829 
L 194.286977 134.539208 
L 191.040432 132.544636 
L 187.793886 129.752392 
L 184.547341 127.482504 
L 181.300795 125.190355 
L 178.05425 122.307718 
L 174.807705 120.15065 
L 171.561159 117.881746 
L 168.314614 117.492927 
L 165.068068 116.080606 
L 161.821523 114.627798 
L 158.574977 111.935091 
L 155.328432 111.326207 
L 152.081886 109.923119 
L 148.835341 108.517975 
L 145.588795 106.78367 
L 142.34225 104.075486 
L 139.095705 102.72283 
L 135.849159 101.346052 
L 132.602614 98.243372 
L 129.356068 95.102548 
L 126.109523 92.764439 
L 122.862977 90.671953 
L 119.616432 88.402632 
L 116.369886 85.652149 
L 113.123341 82.302274 
L 109.876795 79.761203 
L 106.63025 77.416125 
L 103.383705 74.671516 
L 100.137159 72.023553 
L 96.890614 69.025809 
L 93.644068 65.438037 
L 90.397523 61.820718 
L 87.150977 58.566999 
L 83.904432 55.796734 
L 80.657886 53.240817 
L 77.411341 49.922313 
L 74.164795 46.012457 
L 70.91825 42.154346 
L 67.671705 38.595186 
L 64.425159 35.489533 
L 61.178614 31.688253 
L 57.932068 28.029024 
L 54.685523 25.288058 
L 51.438977 22.08308 
z
" style="fill:#00008b;fill-opacity:0.15;"/>
   </g>
   <g id="text_14">
    <!-- Albania -->
    <g style="fill:#00008b;opacity:0.75;" transform="translate(164.323948 40.732954)scale(0.04 -0.04)">
     <defs>
      <path d="M -9 0 
L 1750 4581 
L 2403 4581 
L 4278 0 
L 3588 0 
L 3053 1388 
L 1138 1388 
L 634 0 
L -9 0 
z
M 1313 1881 
L 2866 1881 
L 2388 3150 
Q 2169 3728 2063 4100 
Q 1975 3659 1816 3225 
L 1313 1881 
z
" id="ArialMT-41" transform="scale(0.015625)"/>
      <path d="M 941 0 
L 419 0 
L 419 4581 
L 981 4581 
L 981 2947 
Q 1338 3394 1891 3394 
Q 2197 3394 2470 3270 
Q 2744 3147 2920 2923 
Q 3097 2700 3197 2384 
Q 3297 2069 3297 1709 
Q 3297 856 2875 390 
Q 2453 -75 1863 -75 
Q 1275 -75 941 416 
L 941 0 
z
M 934 1684 
Q 934 1088 1097 822 
Q 1363 388 1816 388 
Q 2184 388 2453 708 
Q 2722 1028 2722 1663 
Q 2722 2313 2464 2622 
Q 2206 2931 1841 2931 
Q 1472 2931 1203 2611 
Q 934 2291 934 1684 
z
" id="ArialMT-62" transform="scale(0.015625)"/>
     </defs>
     <use xlink:href="#ArialMT-41"/>
     <use x="66.699219" xlink:href="#ArialMT-6c"/>
     <use x="88.916016" xlink:href="#ArialMT-62"/>
     <use x="144.53125" xlink:href="#ArialMT-61"/>
     <use x="200.146484" xlink:href="#ArialMT-6e"/>
     <use x="255.761719" xlink:href="#ArialMT-69"/>
     <use x="277.978516" xlink:href="#ArialMT-61"/>
    </g>
   </g>
   <g id="text_15">
    <!-- Algeria -->
    <g style="fill:#8b0000;opacity:0.75;" transform="translate(65.203755 20.306625)scale(0.04 -0.04)">
     <defs>
      <path d="M 319 -275 
L 866 -356 
Q 900 -609 1056 -725 
Q 1266 -881 1628 -881 
Q 2019 -881 2231 -725 
Q 2444 -569 2519 -288 
Q 2563 -116 2559 434 
Q 2191 0 1641 0 
Q 956 0 581 494 
Q 206 988 206 1678 
Q 206 2153 378 2554 
Q 550 2956 876 3175 
Q 1203 3394 1644 3394 
Q 2231 3394 2613 2919 
L 2613 3319 
L 3131 3319 
L 3131 450 
Q 3131 -325 2973 -648 
Q 2816 -972 2473 -1159 
Q 2131 -1347 1631 -1347 
Q 1038 -1347 672 -1080 
Q 306 -813 319 -275 
z
M 784 1719 
Q 784 1066 1043 766 
Q 1303 466 1694 466 
Q 2081 466 2343 764 
Q 2606 1063 2606 1700 
Q 2606 2309 2336 2618 
Q 2066 2928 1684 2928 
Q 1309 2928 1046 2623 
Q 784 2319 784 1719 
z
" id="ArialMT-67" transform="scale(0.015625)"/>
     </defs>
     <use xlink:href="#ArialMT-41"/>
     <use x="66.699219" xlink:href="#ArialMT-6c"/>
     <use x="88.916016" xlink:href="#ArialMT-67"/>
     <use x="144.53125" xlink:href="#ArialMT-65"/>
     <use x="200.146484" xlink:href="#ArialMT-72"/>
     <use x="233.447266" xlink:href="#ArialMT-69"/>
     <use x="255.664062" xlink:href="#ArialMT-61"/>
    </g>
   </g>
   <g id="text_16">
    <!-- Australia -->
    <g style="fill:#696969;opacity:0.75;" transform="translate(210.292734 178.499559)scale(0.04 -0.04)">
     <use xlink:href="#ArialMT-41"/>
     <use x="66.699219" xlink:href="#ArialMT-75"/>
     <use x="122.314453" xlink:href="#ArialMT-73"/>
     <use x="172.314453" xlink:href="#ArialMT-74"/>
     <use x="200.097656" xlink:href="#ArialMT-72"/>
     <use x="233.398438" xlink:href="#ArialMT-61"/>
     <use x="289.013672" xlink:href="#ArialMT-6c"/>
     <use x="311.230469" xlink:href="#ArialMT-69"/>
     <use x="333.447266" xlink:href="#ArialMT-61"/>
    </g>
   </g>
   <g id="text_17">
    <!-- Austria -->
    <g style="fill:#00008b;opacity:0.75;" transform="translate(210.292734 202.012954)scale(0.04 -0.04)">
     <use xlink:href="#ArialMT-41"/>
     <use x="66.699219" xlink:href="#ArialMT-75"/>
     <use x="122.314453" xlink:href="#ArialMT-73"/>
     <use x="172.314453" xlink:href="#ArialMT-74"/>
     <use x="200.097656" xlink:href="#ArialMT-72"/>
     <use x="233.398438" xlink:href="#ArialMT-69"/>
     <use x="255.615234" xlink:href="#ArialMT-61"/>
    </g>
   </g>
   <g id="text_18">
    <!-- Belgium -->
    <g style="fill:#00008b;opacity:0.75;" transform="translate(239.023224 234.051203)scale(0.04 -0.04)">
     <defs>
      <path d="M 469 0 
L 469 4581 
L 2188 4581 
Q 2713 4581 3030 4442 
Q 3347 4303 3526 4014 
Q 3706 3725 3706 3409 
Q 3706 3116 3547 2856 
Q 3388 2597 3066 2438 
Q 3481 2316 3704 2022 
Q 3928 1728 3928 1328 
Q 3928 1006 3792 729 
Q 3656 453 3456 303 
Q 3256 153 2954 76 
Q 2653 0 2216 0 
L 469 0 
z
M 1075 2656 
L 2066 2656 
Q 2469 2656 2644 2709 
Q 2875 2778 2992 2937 
Q 3109 3097 3109 3338 
Q 3109 3566 3000 3739 
Q 2891 3913 2687 3977 
Q 2484 4041 1991 4041 
L 1075 4041 
L 1075 2656 
z
M 1075 541 
L 2216 541 
Q 2509 541 2628 563 
Q 2838 600 2978 687 
Q 3119 775 3209 942 
Q 3300 1109 3300 1328 
Q 3300 1584 3169 1773 
Q 3038 1963 2805 2039 
Q 2572 2116 2134 2116 
L 1075 2116 
L 1075 541 
z
" id="ArialMT-42" transform="scale(0.015625)"/>
     </defs>
     <use xlink:href="#ArialMT-42"/>
     <use x="66.699219" xlink:href="#ArialMT-65"/>
     <use x="122.314453" xlink:href="#ArialMT-6c"/>
     <use x="144.53125" xlink:href="#ArialMT-67"/>
     <use x="200.146484" xlink:href="#ArialMT-69"/>
     <use x="222.363281" xlink:href="#ArialMT-75"/>
     <use x="277.978516" xlink:href="#ArialMT-6d"/>
    </g>
   </g>
   <g id="text_19">
    <!-- Brazil -->
    <g style="fill:#cd853f;opacity:0.75;" transform="translate(142.77608 176.043858)scale(0.04 -0.04)">
     <defs>
      <path d="M 125 0 
L 125 456 
L 2238 2881 
Q 1878 2863 1603 2863 
L 250 2863 
L 250 3319 
L 2963 3319 
L 2963 2947 
L 1166 841 
L 819 456 
Q 1197 484 1528 484 
L 3063 484 
L 3063 0 
L 125 0 
z
" id="ArialMT-7a" transform="scale(0.015625)"/>
     </defs>
     <use xlink:href="#ArialMT-42"/>
     <use x="66.699219" xlink:href="#ArialMT-72"/>
     <use x="100" xlink:href="#ArialMT-61"/>
     <use x="155.615234" xlink:href="#ArialMT-7a"/>
     <use x="205.615234" xlink:href="#ArialMT-69"/>
     <use x="227.832031" xlink:href="#ArialMT-6c"/>
    </g>
   </g>
   <g id="text_20">
    <!-- Bulgaria -->
    <g style="fill:#00008b;opacity:0.75;" transform="translate(194.490964 123.292649)scale(0.04 -0.04)">
     <use xlink:href="#ArialMT-42"/>
     <use x="66.699219" xlink:href="#ArialMT-75"/>
     <use x="122.314453" xlink:href="#ArialMT-6c"/>
     <use x="144.53125" xlink:href="#ArialMT-67"/>
     <use x="200.146484" xlink:href="#ArialMT-61"/>
     <use x="255.761719" xlink:href="#ArialMT-72"/>
     <use x="289.0625" xlink:href="#ArialMT-69"/>
     <use x="311.279297" xlink:href="#ArialMT-61"/>
    </g>
   </g>
   <g id="text_21">
    <!-- Chile -->
    <g style="fill:#cd853f;opacity:0.75;" transform="translate(160.014375 262.250062)scale(0.04 -0.04)">
     <defs>
      <path d="M 3763 1606 
L 4369 1453 
Q 4178 706 3683 314 
Q 3188 -78 2472 -78 
Q 1731 -78 1267 223 
Q 803 525 561 1097 
Q 319 1669 319 2325 
Q 319 3041 592 3573 
Q 866 4106 1370 4382 
Q 1875 4659 2481 4659 
Q 3169 4659 3637 4309 
Q 4106 3959 4291 3325 
L 3694 3184 
Q 3534 3684 3231 3912 
Q 2928 4141 2469 4141 
Q 1941 4141 1586 3887 
Q 1231 3634 1087 3207 
Q 944 2781 944 2328 
Q 944 1744 1114 1308 
Q 1284 872 1643 656 
Q 2003 441 2422 441 
Q 2931 441 3284 734 
Q 3638 1028 3763 1606 
z
" id="ArialMT-43" transform="scale(0.015625)"/>
      <path d="M 422 0 
L 422 4581 
L 984 4581 
L 984 2938 
Q 1378 3394 1978 3394 
Q 2347 3394 2619 3248 
Q 2891 3103 3008 2847 
Q 3125 2591 3125 2103 
L 3125 0 
L 2563 0 
L 2563 2103 
Q 2563 2525 2380 2717 
Q 2197 2909 1863 2909 
Q 1613 2909 1392 2779 
Q 1172 2650 1078 2428 
Q 984 2206 984 1816 
L 984 0 
L 422 0 
z
" id="ArialMT-68" transform="scale(0.015625)"/>
     </defs>
     <use xlink:href="#ArialMT-43"/>
     <use x="72.216797" xlink:href="#ArialMT-68"/>
     <use x="127.832031" xlink:href="#ArialMT-69"/>
     <use x="150.048828" xlink:href="#ArialMT-6c"/>
     <use x="172.265625" xlink:href="#ArialMT-65"/>
    </g>
   </g>
   <g id="text_22">
    <!-- Colombia -->
    <g style="fill:#cd853f;opacity:0.75;" transform="translate(198.800537 127.202352)scale(0.04 -0.04)">
     <use xlink:href="#ArialMT-43"/>
     <use x="72.216797" xlink:href="#ArialMT-6f"/>
     <use x="127.832031" xlink:href="#ArialMT-6c"/>
     <use x="150.048828" xlink:href="#ArialMT-6f"/>
     <use x="205.664062" xlink:href="#ArialMT-6d"/>
     <use x="288.964844" xlink:href="#ArialMT-62"/>
     <use x="344.580078" xlink:href="#ArialMT-69"/>
     <use x="366.796875" xlink:href="#ArialMT-61"/>
    </g>
   </g>
   <g id="text_23">
    <!-- CostaRica -->
    <g style="fill:#cd853f;opacity:0.75;" transform="translate(208.856209 209.785484)scale(0.04 -0.04)">
     <defs>
      <path d="M 503 0 
L 503 4581 
L 2534 4581 
Q 3147 4581 3465 4457 
Q 3784 4334 3975 4021 
Q 4166 3709 4166 3331 
Q 4166 2844 3850 2509 
Q 3534 2175 2875 2084 
Q 3116 1969 3241 1856 
Q 3506 1613 3744 1247 
L 4541 0 
L 3778 0 
L 3172 953 
Q 2906 1366 2734 1584 
Q 2563 1803 2427 1890 
Q 2291 1978 2150 2013 
Q 2047 2034 1813 2034 
L 1109 2034 
L 1109 0 
L 503 0 
z
M 1109 2559 
L 2413 2559 
Q 2828 2559 3062 2645 
Q 3297 2731 3419 2920 
Q 3541 3109 3541 3331 
Q 3541 3656 3305 3865 
Q 3069 4075 2559 4075 
L 1109 4075 
L 1109 2559 
z
" id="ArialMT-52" transform="scale(0.015625)"/>
      <path d="M 2588 1216 
L 3141 1144 
Q 3050 572 2676 248 
Q 2303 -75 1759 -75 
Q 1078 -75 664 370 
Q 250 816 250 1647 
Q 250 2184 428 2587 
Q 606 2991 970 3192 
Q 1334 3394 1763 3394 
Q 2303 3394 2647 3120 
Q 2991 2847 3088 2344 
L 2541 2259 
Q 2463 2594 2264 2762 
Q 2066 2931 1784 2931 
Q 1359 2931 1093 2626 
Q 828 2322 828 1663 
Q 828 994 1084 691 
Q 1341 388 1753 388 
Q 2084 388 2306 591 
Q 2528 794 2588 1216 
z
" id="ArialMT-63" transform="scale(0.015625)"/>
     </defs>
     <use xlink:href="#ArialMT-43"/>
     <use x="72.216797" xlink:href="#ArialMT-6f"/>
     <use x="127.832031" xlink:href="#ArialMT-73"/>
     <use x="177.832031" xlink:href="#ArialMT-74"/>
     <use x="205.615234" xlink:href="#ArialMT-61"/>
     <use x="261.230469" xlink:href="#ArialMT-52"/>
     <use x="333.447266" xlink:href="#ArialMT-69"/>
     <use x="355.664062" xlink:href="#ArialMT-63"/>
     <use x="405.664062" xlink:href="#ArialMT-61"/>
    </g>
   </g>
   <g id="text_24">
    <!-- Croatia -->
    <g style="fill:#00008b;opacity:0.75;" transform="translate(174.37962 151.491508)scale(0.04 -0.04)">
     <use xlink:href="#ArialMT-43"/>
     <use x="72.216797" xlink:href="#ArialMT-72"/>
     <use x="105.517578" xlink:href="#ArialMT-6f"/>
     <use x="161.132812" xlink:href="#ArialMT-61"/>
     <use x="216.748047" xlink:href="#ArialMT-74"/>
     <use x="244.53125" xlink:href="#ArialMT-69"/>
     <use x="266.748047" xlink:href="#ArialMT-61"/>
    </g>
   </g>
   <g id="text_25">
    <!-- CzechRepublic -->
    <g style="fill:#00008b;opacity:0.75;" transform="translate(144.212605 178.719739)scale(0.04 -0.04)">
     <use xlink:href="#ArialMT-43"/>
     <use x="72.216797" xlink:href="#ArialMT-7a"/>
     <use x="122.216797" xlink:href="#ArialMT-65"/>
     <use x="177.832031" xlink:href="#ArialMT-63"/>
     <use x="227.832031" xlink:href="#ArialMT-68"/>
     <use x="283.447266" xlink:href="#ArialMT-52"/>
     <use x="355.664062" xlink:href="#ArialMT-65"/>
     <use x="411.279297" xlink:href="#ArialMT-70"/>
     <use x="466.894531" xlink:href="#ArialMT-75"/>
     <use x="522.509766" xlink:href="#ArialMT-62"/>
     <use x="578.125" xlink:href="#ArialMT-6c"/>
     <use x="600.341797" xlink:href="#ArialMT-69"/>
     <use x="622.558594" xlink:href="#ArialMT-63"/>
    </g>
   </g>
   <g id="text_26">
    <!-- Denmark -->
    <g style="fill:#00008b;opacity:0.75;" transform="translate(259.134568 131.864378)scale(0.04 -0.04)">
     <defs>
      <path d="M 494 0 
L 494 4581 
L 2072 4581 
Q 2606 4581 2888 4516 
Q 3281 4425 3559 4188 
Q 3922 3881 4101 3404 
Q 4281 2928 4281 2316 
Q 4281 1794 4159 1391 
Q 4038 988 3847 723 
Q 3656 459 3429 307 
Q 3203 156 2883 78 
Q 2563 0 2147 0 
L 494 0 
z
M 1100 541 
L 2078 541 
Q 2531 541 2789 625 
Q 3047 709 3200 863 
Q 3416 1078 3536 1442 
Q 3656 1806 3656 2325 
Q 3656 3044 3420 3430 
Q 3184 3816 2847 3947 
Q 2603 4041 2063 4041 
L 1100 4041 
L 1100 541 
z
" id="ArialMT-44" transform="scale(0.015625)"/>
      <path d="M 425 0 
L 425 4581 
L 988 4581 
L 988 1969 
L 2319 3319 
L 3047 3319 
L 1778 2088 
L 3175 0 
L 2481 0 
L 1384 1697 
L 988 1316 
L 988 0 
L 425 0 
z
" id="ArialMT-6b" transform="scale(0.015625)"/>
     </defs>
     <use xlink:href="#ArialMT-44"/>
     <use x="72.216797" xlink:href="#ArialMT-65"/>
     <use x="127.832031" xlink:href="#ArialMT-6e"/>
     <use x="183.447266" xlink:href="#ArialMT-6d"/>
     <use x="266.748047" xlink:href="#ArialMT-61"/>
     <use x="322.363281" xlink:href="#ArialMT-72"/>
     <use x="355.664062" xlink:href="#ArialMT-6b"/>
    </g>
   </g>
   <g id="text_27">
    <!-- Estonia -->
    <g style="fill:#00008b;opacity:0.75;" transform="translate(233.277126 168.008135)scale(0.04 -0.04)">
     <use xlink:href="#ArialMT-45"/>
     <use x="66.699219" xlink:href="#ArialMT-73"/>
     <use x="116.699219" xlink:href="#ArialMT-74"/>
     <use x="144.482422" xlink:href="#ArialMT-6f"/>
     <use x="200.097656" xlink:href="#ArialMT-6e"/>
     <use x="255.712891" xlink:href="#ArialMT-69"/>
     <use x="277.929688" xlink:href="#ArialMT-61"/>
    </g>
   </g>
   <g id="text_28">
    <!-- Finland -->
    <g style="fill:#00008b;opacity:0.75;" transform="translate(378.366105 221.444279)scale(0.04 -0.04)">
     <defs>
      <path d="M 525 0 
L 525 4581 
L 3616 4581 
L 3616 4041 
L 1131 4041 
L 1131 2622 
L 3281 2622 
L 3281 2081 
L 1131 2081 
L 1131 0 
L 525 0 
z
" id="ArialMT-46" transform="scale(0.015625)"/>
      <path d="M 2575 0 
L 2575 419 
Q 2259 -75 1647 -75 
Q 1250 -75 917 144 
Q 584 363 401 755 
Q 219 1147 219 1656 
Q 219 2153 384 2558 
Q 550 2963 881 3178 
Q 1213 3394 1622 3394 
Q 1922 3394 2156 3267 
Q 2391 3141 2538 2938 
L 2538 4581 
L 3097 4581 
L 3097 0 
L 2575 0 
z
M 797 1656 
Q 797 1019 1065 703 
Q 1334 388 1700 388 
Q 2069 388 2326 689 
Q 2584 991 2584 1609 
Q 2584 2291 2321 2609 
Q 2059 2928 1675 2928 
Q 1300 2928 1048 2622 
Q 797 2316 797 1656 
z
" id="ArialMT-64" transform="scale(0.015625)"/>
     </defs>
     <use xlink:href="#ArialMT-46"/>
     <use x="61.083984" xlink:href="#ArialMT-69"/>
     <use x="83.300781" xlink:href="#ArialMT-6e"/>
     <use x="138.916016" xlink:href="#ArialMT-6c"/>
     <use x="161.132812" xlink:href="#ArialMT-61"/>
     <use x="216.748047" xlink:href="#ArialMT-6e"/>
     <use x="272.363281" xlink:href="#ArialMT-64"/>
    </g>
   </g>
   <g id="text_29">
    <!-- France -->
    <g style="fill:#00008b;opacity:0.75;" transform="translate(250.515421 167.036569)scale(0.04 -0.04)">
     <use xlink:href="#ArialMT-46"/>
     <use x="61.083984" xlink:href="#ArialMT-72"/>
     <use x="94.384766" xlink:href="#ArialMT-61"/>
     <use x="150" xlink:href="#ArialMT-6e"/>
     <use x="205.615234" xlink:href="#ArialMT-63"/>
     <use x="255.615234" xlink:href="#ArialMT-65"/>
    </g>
   </g>
   <g id="text_30">
    <!-- Georgia -->
    <g style="fill:#006400;opacity:0.75;" transform="translate(144.212605 90.283771)scale(0.04 -0.04)">
     <use xlink:href="#ArialMT-47"/>
     <use x="77.783203" xlink:href="#ArialMT-65"/>
     <use x="133.398438" xlink:href="#ArialMT-6f"/>
     <use x="189.013672" xlink:href="#ArialMT-72"/>
     <use x="222.314453" xlink:href="#ArialMT-67"/>
     <use x="277.929688" xlink:href="#ArialMT-69"/>
     <use x="300.146484" xlink:href="#ArialMT-61"/>
    </g>
   </g>
   <g id="text_31">
    <!-- Germany -->
    <g style="fill:#00008b;opacity:0.75;" transform="translate(276.372862 155.182906)scale(0.04 -0.04)">
     <use xlink:href="#ArialMT-47"/>
     <use x="77.783203" xlink:href="#ArialMT-65"/>
     <use x="133.398438" xlink:href="#ArialMT-72"/>
     <use x="166.699219" xlink:href="#ArialMT-6d"/>
     <use x="250" xlink:href="#ArialMT-61"/>
     <use x="305.615234" xlink:href="#ArialMT-6e"/>
     <use x="361.230469" xlink:href="#ArialMT-79"/>
    </g>
   </g>
   <g id="text_32">
    <!-- Greece -->
    <g style="fill:#00008b;opacity:0.75;" transform="translate(141.339556 120.401388)scale(0.04 -0.04)">
     <use xlink:href="#ArialMT-47"/>
     <use x="77.783203" xlink:href="#ArialMT-72"/>
     <use x="111.083984" xlink:href="#ArialMT-65"/>
     <use x="166.699219" xlink:href="#ArialMT-65"/>
     <use x="222.314453" xlink:href="#ArialMT-63"/>
     <use x="272.314453" xlink:href="#ArialMT-65"/>
    </g>
   </g>
   <g id="text_33">
    <!-- Hungary -->
    <g style="fill:#00008b;opacity:0.75;" transform="translate(122.664737 219.477709)scale(0.04 -0.04)">
     <defs>
      <path d="M 513 0 
L 513 4581 
L 1119 4581 
L 1119 2700 
L 3500 2700 
L 3500 4581 
L 4106 4581 
L 4106 0 
L 3500 0 
L 3500 2159 
L 1119 2159 
L 1119 0 
L 513 0 
z
" id="ArialMT-48" transform="scale(0.015625)"/>
     </defs>
     <use xlink:href="#ArialMT-48"/>
     <use x="72.216797" xlink:href="#ArialMT-75"/>
     <use x="127.832031" xlink:href="#ArialMT-6e"/>
     <use x="183.447266" xlink:href="#ArialMT-67"/>
     <use x="239.0625" xlink:href="#ArialMT-61"/>
     <use x="294.677734" xlink:href="#ArialMT-72"/>
     <use x="327.978516" xlink:href="#ArialMT-79"/>
    </g>
   </g>
   <g id="text_34">
    <!-- Indonesia -->
    <g style="fill:#006400;opacity:0.75;" transform="translate(135.593458 70.851508)scale(0.04 -0.04)">
     <use xlink:href="#ArialMT-49"/>
     <use x="27.783203" xlink:href="#ArialMT-6e"/>
     <use x="83.398438" xlink:href="#ArialMT-64"/>
     <use x="139.013672" xlink:href="#ArialMT-6f"/>
     <use x="194.628906" xlink:href="#ArialMT-6e"/>
     <use x="250.244141" xlink:href="#ArialMT-65"/>
     <use x="305.859375" xlink:href="#ArialMT-73"/>
     <use x="355.859375" xlink:href="#ArialMT-69"/>
     <use x="378.076172" xlink:href="#ArialMT-61"/>
    </g>
   </g>
   <g id="text_35">
    <!-- Ireland -->
    <g style="fill:#00008b;opacity:0.75;" transform="translate(316.595549 183.553195)scale(0.04 -0.04)">
     <use xlink:href="#ArialMT-49"/>
     <use x="27.783203" xlink:href="#ArialMT-72"/>
     <use x="61.083984" xlink:href="#ArialMT-65"/>
     <use x="116.699219" xlink:href="#ArialMT-6c"/>
     <use x="138.916016" xlink:href="#ArialMT-61"/>
     <use x="194.53125" xlink:href="#ArialMT-6e"/>
     <use x="250.146484" xlink:href="#ArialMT-64"/>
    </g>
   </g>
   <g id="text_36">
    <!-- Italy -->
    <g style="fill:#00008b;opacity:0.75;" transform="translate(200.237062 103.861324)scale(0.04 -0.04)">
     <use xlink:href="#ArialMT-49"/>
     <use x="27.783203" xlink:href="#ArialMT-74"/>
     <use x="55.566406" xlink:href="#ArialMT-61"/>
     <use x="111.181641" xlink:href="#ArialMT-6c"/>
     <use x="133.398438" xlink:href="#ArialMT-79"/>
    </g>
   </g>
   <g id="text_37">
    <!-- SouthKorea -->
    <g style="fill:#006400;opacity:0.75;" transform="translate(92.497722 154.406207)scale(0.04 -0.04)">
     <defs>
      <path d="M 469 0 
L 469 4581 
L 1075 4581 
L 1075 2309 
L 3350 4581 
L 4172 4581 
L 2250 2725 
L 4256 0 
L 3456 0 
L 1825 2319 
L 1075 1588 
L 1075 0 
L 469 0 
z
" id="ArialMT-4b" transform="scale(0.015625)"/>
     </defs>
     <use xlink:href="#ArialMT-53"/>
     <use x="66.699219" xlink:href="#ArialMT-6f"/>
     <use x="122.314453" xlink:href="#ArialMT-75"/>
     <use x="177.929688" xlink:href="#ArialMT-74"/>
     <use x="205.712891" xlink:href="#ArialMT-68"/>
     <use x="261.328125" xlink:href="#ArialMT-4b"/>
     <use x="328.027344" xlink:href="#ArialMT-6f"/>
     <use x="383.642578" xlink:href="#ArialMT-72"/>
     <use x="416.943359" xlink:href="#ArialMT-65"/>
     <use x="472.558594" xlink:href="#ArialMT-61"/>
    </g>
   </g>
   <g id="text_38">
    <!-- Latvia -->
    <g style="fill:#00008b;opacity:0.75;" transform="translate(237.5867 228.245243)scale(0.04 -0.04)">
     <defs>
      <path d="M 469 0 
L 469 4581 
L 1075 4581 
L 1075 541 
L 3331 541 
L 3331 0 
L 469 0 
z
" id="ArialMT-4c" transform="scale(0.015625)"/>
      <path d="M 1344 0 
L 81 3319 
L 675 3319 
L 1388 1331 
Q 1503 1009 1600 663 
Q 1675 925 1809 1294 
L 2547 3319 
L 3125 3319 
L 1869 0 
L 1344 0 
z
" id="ArialMT-76" transform="scale(0.015625)"/>
     </defs>
     <use xlink:href="#ArialMT-4c"/>
     <use x="55.615234" xlink:href="#ArialMT-61"/>
     <use x="111.230469" xlink:href="#ArialMT-74"/>
     <use x="139.013672" xlink:href="#ArialMT-76"/>
     <use x="189.013672" xlink:href="#ArialMT-69"/>
     <use x="211.230469" xlink:href="#ArialMT-61"/>
    </g>
   </g>
   <g id="text_39">
    <!-- Lithuania -->
    <g style="fill:#00008b;opacity:0.75;" transform="translate(220.348405 227.273677)scale(0.04 -0.04)">
     <use xlink:href="#ArialMT-4c"/>
     <use x="55.615234" xlink:href="#ArialMT-69"/>
     <use x="77.832031" xlink:href="#ArialMT-74"/>
     <use x="105.615234" xlink:href="#ArialMT-68"/>
     <use x="161.230469" xlink:href="#ArialMT-75"/>
     <use x="216.845703" xlink:href="#ArialMT-61"/>
     <use x="272.460938" xlink:href="#ArialMT-6e"/>
     <use x="328.076172" xlink:href="#ArialMT-69"/>
     <use x="350.292969" xlink:href="#ArialMT-61"/>
    </g>
   </g>
   <g id="text_40">
    <!-- Luxembourg -->
    <g style="fill:#00008b;opacity:0.75;" transform="translate(217.475356 136.894577)scale(0.04 -0.04)">
     <defs>
      <path d="M 47 0 
L 1259 1725 
L 138 3319 
L 841 3319 
L 1350 2541 
Q 1494 2319 1581 2169 
Q 1719 2375 1834 2534 
L 2394 3319 
L 3066 3319 
L 1919 1756 
L 3153 0 
L 2463 0 
L 1781 1031 
L 1600 1309 
L 728 0 
L 47 0 
z
" id="ArialMT-78" transform="scale(0.015625)"/>
     </defs>
     <use xlink:href="#ArialMT-4c"/>
     <use x="55.615234" xlink:href="#ArialMT-75"/>
     <use x="111.230469" xlink:href="#ArialMT-78"/>
     <use x="161.230469" xlink:href="#ArialMT-65"/>
     <use x="216.845703" xlink:href="#ArialMT-6d"/>
     <use x="300.146484" xlink:href="#ArialMT-62"/>
     <use x="355.761719" xlink:href="#ArialMT-6f"/>
     <use x="411.376953" xlink:href="#ArialMT-75"/>
     <use x="466.992188" xlink:href="#ArialMT-72"/>
     <use x="500.292969" xlink:href="#ArialMT-67"/>
    </g>
   </g>
   <g id="text_41">
    <!-- NorthMacedonia -->
    <g style="fill:#00008b;opacity:0.75;" transform="translate(164.323948 86.396569)scale(0.04 -0.04)">
     <defs>
      <path d="M 488 0 
L 488 4581 
L 1109 4581 
L 3516 984 
L 3516 4581 
L 4097 4581 
L 4097 0 
L 3475 0 
L 1069 3600 
L 1069 0 
L 488 0 
z
" id="ArialMT-4e" transform="scale(0.015625)"/>
     </defs>
     <use xlink:href="#ArialMT-4e"/>
     <use x="72.216797" xlink:href="#ArialMT-6f"/>
     <use x="127.832031" xlink:href="#ArialMT-72"/>
     <use x="161.132812" xlink:href="#ArialMT-74"/>
     <use x="188.916016" xlink:href="#ArialMT-68"/>
     <use x="244.53125" xlink:href="#ArialMT-4d"/>
     <use x="327.832031" xlink:href="#ArialMT-61"/>
     <use x="383.447266" xlink:href="#ArialMT-63"/>
     <use x="433.447266" xlink:href="#ArialMT-65"/>
     <use x="489.0625" xlink:href="#ArialMT-64"/>
     <use x="544.677734" xlink:href="#ArialMT-6f"/>
     <use x="600.292969" xlink:href="#ArialMT-6e"/>
     <use x="655.908203" xlink:href="#ArialMT-69"/>
     <use x="678.125" xlink:href="#ArialMT-61"/>
    </g>
   </g>
   <g id="text_42">
    <!-- Malta -->
    <g style="fill:#00008b;opacity:0.75;" transform="translate(116.918639 182.581629)scale(0.04 -0.04)">
     <use xlink:href="#ArialMT-4d"/>
     <use x="83.300781" xlink:href="#ArialMT-61"/>
     <use x="138.916016" xlink:href="#ArialMT-6c"/>
     <use x="161.132812" xlink:href="#ArialMT-74"/>
     <use x="188.916016" xlink:href="#ArialMT-61"/>
    </g>
   </g>
   <g id="text_43">
    <!-- Mexico -->
    <g style="fill:#cd853f;opacity:0.75;" transform="translate(161.450899 133.031749)scale(0.04 -0.04)">
     <use xlink:href="#ArialMT-4d"/>
     <use x="83.300781" xlink:href="#ArialMT-65"/>
     <use x="138.916016" xlink:href="#ArialMT-78"/>
     <use x="188.916016" xlink:href="#ArialMT-69"/>
     <use x="211.132812" xlink:href="#ArialMT-63"/>
     <use x="261.132812" xlink:href="#ArialMT-6f"/>
    </g>
   </g>
   <g id="text_44">
    <!-- Moldova -->
    <g style="fill:#00008b;opacity:0.75;" transform="translate(223.221455 170.601567)scale(0.04 -0.04)">
     <use xlink:href="#ArialMT-4d"/>
     <use x="83.300781" xlink:href="#ArialMT-6f"/>
     <use x="138.916016" xlink:href="#ArialMT-6c"/>
     <use x="161.132812" xlink:href="#ArialMT-64"/>
     <use x="216.748047" xlink:href="#ArialMT-6f"/>
     <use x="272.363281" xlink:href="#ArialMT-76"/>
     <use x="322.363281" xlink:href="#ArialMT-61"/>
    </g>
   </g>
   <g id="text_45">
    <!-- Netherlands -->
    <g style="fill:#00008b;opacity:0.75;" transform="translate(272.063289 219.501147)scale(0.04 -0.04)">
     <use xlink:href="#ArialMT-4e"/>
     <use x="72.216797" xlink:href="#ArialMT-65"/>
     <use x="127.832031" xlink:href="#ArialMT-74"/>
     <use x="155.615234" xlink:href="#ArialMT-68"/>
     <use x="211.230469" xlink:href="#ArialMT-65"/>
     <use x="266.845703" xlink:href="#ArialMT-72"/>
     <use x="300.146484" xlink:href="#ArialMT-6c"/>
     <use x="322.363281" xlink:href="#ArialMT-61"/>
     <use x="377.978516" xlink:href="#ArialMT-6e"/>
     <use x="433.59375" xlink:href="#ArialMT-64"/>
     <use x="489.208984" xlink:href="#ArialMT-73"/>
    </g>
   </g>
   <g id="text_46">
    <!-- NewZealand -->
    <g style="fill:#696969;opacity:0.75;" transform="translate(280.682436 152.658879)scale(0.04 -0.04)">
     <defs>
      <path d="M 1034 0 
L 19 3319 
L 600 3319 
L 1128 1403 
L 1325 691 
Q 1338 744 1497 1375 
L 2025 3319 
L 2603 3319 
L 3100 1394 
L 3266 759 
L 3456 1400 
L 4025 3319 
L 4572 3319 
L 3534 0 
L 2950 0 
L 2422 1988 
L 2294 2553 
L 1622 0 
L 1034 0 
z
" id="ArialMT-77" transform="scale(0.015625)"/>
      <path d="M 128 0 
L 128 563 
L 2475 3497 
Q 2725 3809 2950 4041 
L 394 4041 
L 394 4581 
L 3675 4581 
L 3675 4041 
L 1103 863 
L 825 541 
L 3750 541 
L 3750 0 
L 128 0 
z
" id="ArialMT-5a" transform="scale(0.015625)"/>
     </defs>
     <use xlink:href="#ArialMT-4e"/>
     <use x="72.216797" xlink:href="#ArialMT-65"/>
     <use x="127.832031" xlink:href="#ArialMT-77"/>
     <use x="200.048828" xlink:href="#ArialMT-5a"/>
     <use x="261.132812" xlink:href="#ArialMT-65"/>
     <use x="316.748047" xlink:href="#ArialMT-61"/>
     <use x="372.363281" xlink:href="#ArialMT-6c"/>
     <use x="394.580078" xlink:href="#ArialMT-61"/>
     <use x="450.195312" xlink:href="#ArialMT-6e"/>
     <use x="505.810547" xlink:href="#ArialMT-64"/>
    </g>
   </g>
   <g id="text_47">
    <!-- Norway -->
    <g style="fill:#00008b;opacity:0.75;" transform="translate(378.366105 218.506143)scale(0.04 -0.04)">
     <use xlink:href="#ArialMT-4e"/>
     <use x="72.216797" xlink:href="#ArialMT-6f"/>
     <use x="127.832031" xlink:href="#ArialMT-72"/>
     <use x="161.132812" xlink:href="#ArialMT-77"/>
     <use x="233.349609" xlink:href="#ArialMT-61"/>
     <use x="288.964844" xlink:href="#ArialMT-79"/>
    </g>
   </g>
   <g id="text_48">
    <!-- Poland -->
    <g style="fill:#00008b;opacity:0.75;" transform="translate(184.435292 154.406207)scale(0.04 -0.04)">
     <defs>
      <path d="M 494 0 
L 494 4581 
L 2222 4581 
Q 2678 4581 2919 4538 
Q 3256 4481 3484 4323 
Q 3713 4166 3852 3881 
Q 3991 3597 3991 3256 
Q 3991 2672 3619 2267 
Q 3247 1863 2275 1863 
L 1100 1863 
L 1100 0 
L 494 0 
z
M 1100 2403 
L 2284 2403 
Q 2872 2403 3119 2622 
Q 3366 2841 3366 3238 
Q 3366 3525 3220 3729 
Q 3075 3934 2838 4000 
Q 2684 4041 2272 4041 
L 1100 4041 
L 1100 2403 
z
" id="ArialMT-50" transform="scale(0.015625)"/>
     </defs>
     <use xlink:href="#ArialMT-50"/>
     <use x="66.699219" xlink:href="#ArialMT-6f"/>
     <use x="122.314453" xlink:href="#ArialMT-6c"/>
     <use x="144.53125" xlink:href="#ArialMT-61"/>
     <use x="200.146484" xlink:href="#ArialMT-6e"/>
     <use x="255.761719" xlink:href="#ArialMT-64"/>
    </g>
   </g>
   <g id="text_49">
    <!-- Portugal -->
    <g style="fill:#00008b;opacity:0.75;" transform="translate(207.419685 110.662288)scale(0.04 -0.04)">
     <use xlink:href="#ArialMT-50"/>
     <use x="66.699219" xlink:href="#ArialMT-6f"/>
     <use x="122.314453" xlink:href="#ArialMT-72"/>
     <use x="155.615234" xlink:href="#ArialMT-74"/>
     <use x="183.398438" xlink:href="#ArialMT-75"/>
     <use x="239.013672" xlink:href="#ArialMT-67"/>
     <use x="294.628906" xlink:href="#ArialMT-61"/>
     <use x="350.244141" xlink:href="#ArialMT-6c"/>
    </g>
   </g>
   <g id="text_50">
    <!-- Qatar -->
    <g style="fill:#006400;opacity:0.75;" transform="translate(83.878574 193.268858)scale(0.04 -0.04)">
     <defs>
      <path d="M 3966 491 
Q 4388 200 4744 66 
L 4566 -356 
Q 4072 -178 3581 206 
Q 3072 -78 2456 -78 
Q 1834 -78 1328 222 
Q 822 522 548 1065 
Q 275 1609 275 2291 
Q 275 2969 550 3525 
Q 825 4081 1333 4372 
Q 1841 4663 2469 4663 
Q 3103 4663 3612 4361 
Q 4122 4059 4389 3517 
Q 4656 2975 4656 2294 
Q 4656 1728 4484 1276 
Q 4313 825 3966 491 
z
M 2631 1266 
Q 3156 1119 3497 828 
Q 4031 1316 4031 2294 
Q 4031 2850 3842 3265 
Q 3653 3681 3289 3911 
Q 2925 4141 2472 4141 
Q 1794 4141 1347 3677 
Q 900 3213 900 2291 
Q 900 1397 1342 919 
Q 1784 441 2472 441 
Q 2797 441 3084 563 
Q 2800 747 2484 825 
L 2631 1266 
z
" id="ArialMT-51" transform="scale(0.015625)"/>
     </defs>
     <use xlink:href="#ArialMT-51"/>
     <use x="77.783203" xlink:href="#ArialMT-61"/>
     <use x="133.398438" xlink:href="#ArialMT-74"/>
     <use x="161.181641" xlink:href="#ArialMT-61"/>
     <use x="216.796875" xlink:href="#ArialMT-72"/>
    </g>
   </g>
   <g id="text_51">
    <!-- Romania -->
    <g style="fill:#00008b;opacity:0.75;" transform="translate(152.831752 99.02693)scale(0.04 -0.04)">
     <use xlink:href="#ArialMT-52"/>
     <use x="72.216797" xlink:href="#ArialMT-6f"/>
     <use x="127.832031" xlink:href="#ArialMT-6d"/>
     <use x="211.132812" xlink:href="#ArialMT-61"/>
     <use x="266.748047" xlink:href="#ArialMT-6e"/>
     <use x="322.363281" xlink:href="#ArialMT-69"/>
     <use x="344.580078" xlink:href="#ArialMT-61"/>
    </g>
   </g>
   <g id="text_52">
    <!-- Slovakia -->
    <g style="fill:#00008b;opacity:0.75;" transform="translate(126.97431 173.57434)scale(0.04 -0.04)">
     <use xlink:href="#ArialMT-53"/>
     <use x="66.699219" xlink:href="#ArialMT-6c"/>
     <use x="88.916016" xlink:href="#ArialMT-6f"/>
     <use x="144.53125" xlink:href="#ArialMT-76"/>
     <use x="194.53125" xlink:href="#ArialMT-61"/>
     <use x="250.146484" xlink:href="#ArialMT-6b"/>
     <use x="300.146484" xlink:href="#ArialMT-69"/>
     <use x="322.363281" xlink:href="#ArialMT-61"/>
    </g>
   </g>
   <g id="text_53">
    <!-- Slovenia -->
    <g style="fill:#00008b;opacity:0.75;" transform="translate(283.555485 195.21199)scale(0.04 -0.04)">
     <use xlink:href="#ArialMT-53"/>
     <use x="66.699219" xlink:href="#ArialMT-6c"/>
     <use x="88.916016" xlink:href="#ArialMT-6f"/>
     <use x="144.53125" xlink:href="#ArialMT-76"/>
     <use x="194.53125" xlink:href="#ArialMT-65"/>
     <use x="250.146484" xlink:href="#ArialMT-6e"/>
     <use x="305.761719" xlink:href="#ArialMT-69"/>
     <use x="327.978516" xlink:href="#ArialMT-61"/>
    </g>
   </g>
   <g id="text_54">
    <!-- Spain -->
    <g style="fill:#00008b;opacity:0.75;" transform="translate(223.221455 173.211608)scale(0.04 -0.04)">
     <use xlink:href="#ArialMT-53"/>
     <use x="66.699219" xlink:href="#ArialMT-70"/>
     <use x="122.314453" xlink:href="#ArialMT-61"/>
     <use x="177.929688" xlink:href="#ArialMT-69"/>
     <use x="200.146484" xlink:href="#ArialMT-6e"/>
    </g>
   </g>
   <g id="text_55">
    <!-- Sweden -->
    <g style="fill:#00008b;opacity:0.75;" transform="translate(339.579942 188.411026)scale(0.04 -0.04)">
     <use xlink:href="#ArialMT-53"/>
     <use x="66.699219" xlink:href="#ArialMT-77"/>
     <use x="138.916016" xlink:href="#ArialMT-65"/>
     <use x="194.53125" xlink:href="#ArialMT-64"/>
     <use x="250.146484" xlink:href="#ArialMT-65"/>
     <use x="305.761719" xlink:href="#ArialMT-6e"/>
    </g>
   </g>
   <g id="text_56">
    <!-- Switzerland -->
    <g style="fill:#00008b;opacity:0.75;" transform="translate(284.99201 192.297291)scale(0.04 -0.04)">
     <use xlink:href="#ArialMT-53"/>
     <use x="66.699219" xlink:href="#ArialMT-77"/>
     <use x="138.916016" xlink:href="#ArialMT-69"/>
     <use x="161.132812" xlink:href="#ArialMT-74"/>
     <use x="188.916016" xlink:href="#ArialMT-7a"/>
     <use x="238.916016" xlink:href="#ArialMT-65"/>
     <use x="294.53125" xlink:href="#ArialMT-72"/>
     <use x="327.832031" xlink:href="#ArialMT-6c"/>
     <use x="350.048828" xlink:href="#ArialMT-61"/>
     <use x="405.664062" xlink:href="#ArialMT-6e"/>
     <use x="461.279297" xlink:href="#ArialMT-64"/>
    </g>
   </g>
   <g id="text_57">
    <!-- Thailand -->
    <g style="fill:#006400;opacity:0.75;" transform="translate(171.506571 176.752231)scale(0.04 -0.04)">
     <use xlink:href="#ArialMT-54"/>
     <use x="61.083984" xlink:href="#ArialMT-68"/>
     <use x="116.699219" xlink:href="#ArialMT-61"/>
     <use x="172.314453" xlink:href="#ArialMT-69"/>
     <use x="194.53125" xlink:href="#ArialMT-6c"/>
     <use x="216.748047" xlink:href="#ArialMT-61"/>
     <use x="272.363281" xlink:href="#ArialMT-6e"/>
     <use x="327.978516" xlink:href="#ArialMT-64"/>
    </g>
   </g>
   <g id="text_58">
    <!-- Tunisia -->
    <g style="fill:#8b0000;opacity:0.75;" transform="translate(68.076804 41.70452)scale(0.04 -0.04)">
     <use xlink:href="#ArialMT-54"/>
     <use x="57.333984" xlink:href="#ArialMT-75"/>
     <use x="112.949219" xlink:href="#ArialMT-6e"/>
     <use x="168.564453" xlink:href="#ArialMT-69"/>
     <use x="190.78125" xlink:href="#ArialMT-73"/>
     <use x="240.78125" xlink:href="#ArialMT-69"/>
     <use x="262.998047" xlink:href="#ArialMT-61"/>
    </g>
   </g>
   <g id="text_59">
    <!-- Turkey -->
    <g style="fill:#006400;opacity:0.75;" transform="translate(53.711559 63.055541)scale(0.04 -0.04)">
     <use xlink:href="#ArialMT-54"/>
     <use x="57.333984" xlink:href="#ArialMT-75"/>
     <use x="112.949219" xlink:href="#ArialMT-72"/>
     <use x="146.25" xlink:href="#ArialMT-6b"/>
     <use x="196.25" xlink:href="#ArialMT-65"/>
     <use x="251.865234" xlink:href="#ArialMT-79"/>
    </g>
   </g>
   <g id="text_60">
    <!-- UnitedArabEmirates -->
    <g style="fill:#006400;opacity:0.75;" transform="translate(85.315099 52.391749)scale(0.04 -0.04)">
     <defs>
      <path d="M 3500 4581 
L 4106 4581 
L 4106 1934 
Q 4106 1244 3950 837 
Q 3794 431 3386 176 
Q 2978 -78 2316 -78 
Q 1672 -78 1262 144 
Q 853 366 678 786 
Q 503 1206 503 1934 
L 503 4581 
L 1109 4581 
L 1109 1938 
Q 1109 1341 1220 1058 
Q 1331 775 1601 622 
Q 1872 469 2263 469 
Q 2931 469 3215 772 
Q 3500 1075 3500 1938 
L 3500 4581 
z
" id="ArialMT-55" transform="scale(0.015625)"/>
     </defs>
     <use xlink:href="#ArialMT-55"/>
     <use x="72.216797" xlink:href="#ArialMT-6e"/>
     <use x="127.832031" xlink:href="#ArialMT-69"/>
     <use x="150.048828" xlink:href="#ArialMT-74"/>
     <use x="177.832031" xlink:href="#ArialMT-65"/>
     <use x="233.447266" xlink:href="#ArialMT-64"/>
     <use x="289.0625" xlink:href="#ArialMT-41"/>
     <use x="355.761719" xlink:href="#ArialMT-72"/>
     <use x="389.0625" xlink:href="#ArialMT-61"/>
     <use x="444.677734" xlink:href="#ArialMT-62"/>
     <use x="500.292969" xlink:href="#ArialMT-45"/>
     <use x="566.992188" xlink:href="#ArialMT-6d"/>
     <use x="650.292969" xlink:href="#ArialMT-69"/>
     <use x="672.509766" xlink:href="#ArialMT-72"/>
     <use x="705.810547" xlink:href="#ArialMT-61"/>
     <use x="761.425781" xlink:href="#ArialMT-74"/>
     <use x="789.208984" xlink:href="#ArialMT-65"/>
     <use x="844.824219" xlink:href="#ArialMT-73"/>
    </g>
   </g>
   <g id="text_61">
    <!-- UK -->
    <g style="fill:#00008b;opacity:0.75;" transform="translate(246.205847 129.341289)scale(0.04 -0.04)">
     <use xlink:href="#ArialMT-55"/>
     <use x="72.216797" xlink:href="#ArialMT-4b"/>
    </g>
   </g>
   <g id="text_62">
    <!-- USA -->
    <g style="fill:#cd853f;opacity:0.75;" transform="translate(220.348405 175.97647)scale(0.04 -0.04)">
     <use xlink:href="#ArialMT-55"/>
     <use x="72.216797" xlink:href="#ArialMT-53"/>
     <use x="138.916016" xlink:href="#ArialMT-41"/>
    </g>
   </g>
   <g id="line2d_12">
    <defs>
     <path d="M 0 1.5 
C 0.397805 1.5 0.77937 1.341951 1.06066 1.06066 
C 1.341951 0.77937 1.5 0.397805 1.5 0 
C 1.5 -0.397805 1.341951 -0.77937 1.06066 -1.06066 
C 0.77937 -1.341951 0.397805 -1.5 0 -1.5 
C -0.397805 -1.5 -0.77937 -1.341951 -1.06066 -1.06066 
C -1.341951 -0.77937 -1.5 -0.397805 -1.5 0 
C -1.5 0.397805 -1.341951 0.77937 -1.06066 1.06066 
C -0.77937 1.341951 -0.397805 1.5 0 1.5 
z
" id="mc393146144" style="stroke:#000000;stroke-opacity:0;"/>
    </defs>
    <g clip-path="url(#p51d7aadc14)">
     <use style="fill:#00008b;fill-opacity:0.9;stroke:#000000;stroke-opacity:0;" x="162.051367" xlink:href="#mc393146144" y="39.698892"/>
    </g>
   </g>
   <g id="line2d_13">
    <defs>
     <path d="M 0 1.5 
C 0.397805 1.5 0.77937 1.341951 1.06066 1.06066 
C 1.341951 0.77937 1.5 0.397805 1.5 0 
C 1.5 -0.397805 1.341951 -0.77937 1.06066 -1.06066 
C 0.77937 -1.341951 0.397805 -1.5 0 -1.5 
C -0.397805 -1.5 -0.77937 -1.341951 -1.06066 -1.06066 
C -1.341951 -0.77937 -1.5 -0.397805 -1.5 0 
C -1.5 0.397805 -1.341951 0.77937 -1.06066 1.06066 
C -0.77937 1.341951 -0.397805 1.5 0 1.5 
z
" id="medb6fb21ab" style="stroke:#000000;stroke-opacity:0;"/>
    </defs>
    <g clip-path="url(#p51d7aadc14)">
     <use style="fill:#8b0000;fill-opacity:0.9;stroke:#000000;stroke-opacity:0;" x="62.931174" xlink:href="#medb6fb21ab" y="19.296"/>
    </g>
   </g>
   <g id="line2d_14">
    <defs>
     <path d="M 0 1.5 
C 0.397805 1.5 0.77937 1.341951 1.06066 1.06066 
C 1.341951 0.77937 1.5 0.397805 1.5 0 
C 1.5 -0.397805 1.341951 -0.77937 1.06066 -1.06066 
C 0.77937 -1.341951 0.397805 -1.5 0 -1.5 
C -0.397805 -1.5 -0.77937 -1.341951 -1.06066 -1.06066 
C -1.341951 -0.77937 -1.5 -0.397805 -1.5 0 
C -1.5 0.397805 -1.341951 0.77937 -1.06066 1.06066 
C -0.77937 1.341951 -0.397805 1.5 0 1.5 
z
" id="m6026ca7a9c" style="stroke:#000000;stroke-opacity:0;"/>
    </defs>
    <g clip-path="url(#p51d7aadc14)">
     <use style="fill:#696969;fill-opacity:0.9;stroke:#000000;stroke-opacity:0;" x="208.020152" xlink:href="#m6026ca7a9c" y="176.689735"/>
    </g>
   </g>
   <g id="line2d_15">
    <g clip-path="url(#p51d7aadc14)">
     <use style="fill:#00008b;fill-opacity:0.9;stroke:#000000;stroke-opacity:0;" x="208.020152" xlink:href="#mc393146144" y="200.978892"/>
    </g>
   </g>
   <g id="line2d_16">
    <g clip-path="url(#p51d7aadc14)">
     <use style="fill:#00008b;fill-opacity:0.9;stroke:#000000;stroke-opacity:0;" x="236.750643" xlink:href="#mc393146144" y="233.040578"/>
    </g>
   </g>
   <g id="line2d_17">
    <defs>
     <path d="M 0 1.5 
C 0.397805 1.5 0.77937 1.341951 1.06066 1.06066 
C 1.341951 0.77937 1.5 0.397805 1.5 0 
C 1.5 -0.397805 1.341951 -0.77937 1.06066 -1.06066 
C 0.77937 -1.341951 0.397805 -1.5 0 -1.5 
C -0.397805 -1.5 -0.77937 -1.341951 -1.06066 -1.06066 
C -1.341951 -0.77937 -1.5 -0.397805 -1.5 0 
C -1.5 0.397805 -1.341951 0.77937 -1.06066 1.06066 
C -0.77937 1.341951 -0.397805 1.5 0 1.5 
z
" id="m5cc6859154" style="stroke:#000000;stroke-opacity:0;"/>
    </defs>
    <g clip-path="url(#p51d7aadc14)">
     <use style="fill:#cd853f;fill-opacity:0.9;stroke:#000000;stroke-opacity:0;" x="140.503499" xlink:href="#m5cc6859154" y="173.775036"/>
    </g>
   </g>
   <g id="line2d_18">
    <g clip-path="url(#p51d7aadc14)">
     <use style="fill:#00008b;fill-opacity:0.9;stroke:#000000;stroke-opacity:0;" x="192.218382" xlink:href="#mc393146144" y="122.282024"/>
    </g>
   </g>
   <g id="line2d_19">
    <g clip-path="url(#p51d7aadc14)">
     <use style="fill:#cd853f;fill-opacity:0.9;stroke:#000000;stroke-opacity:0;" x="157.741793" xlink:href="#m5cc6859154" y="261.216"/>
    </g>
   </g>
   <g id="line2d_20">
    <g clip-path="url(#p51d7aadc14)">
     <use style="fill:#cd853f;fill-opacity:0.9;stroke:#000000;stroke-opacity:0;" x="196.527956" xlink:href="#m5cc6859154" y="126.168289"/>
    </g>
   </g>
   <g id="line2d_21">
    <g clip-path="url(#p51d7aadc14)">
     <use style="fill:#cd853f;fill-opacity:0.9;stroke:#000000;stroke-opacity:0;" x="206.583627" xlink:href="#m5cc6859154" y="208.751422"/>
    </g>
   </g>
   <g id="line2d_22">
    <g clip-path="url(#p51d7aadc14)">
     <use style="fill:#00008b;fill-opacity:0.9;stroke:#000000;stroke-opacity:0;" x="172.107038" xlink:href="#mc393146144" y="150.457446"/>
    </g>
   </g>
   <g id="line2d_23">
    <g clip-path="url(#p51d7aadc14)">
     <use style="fill:#00008b;fill-opacity:0.9;stroke:#000000;stroke-opacity:0;" x="141.940023" xlink:href="#mc393146144" y="177.661301"/>
    </g>
   </g>
   <g id="line2d_24">
    <g clip-path="url(#p51d7aadc14)">
     <use style="fill:#00008b;fill-opacity:0.9;stroke:#000000;stroke-opacity:0;" x="256.861986" xlink:href="#mc393146144" y="130.054554"/>
    </g>
   </g>
   <g id="line2d_25">
    <g clip-path="url(#p51d7aadc14)">
     <use style="fill:#00008b;fill-opacity:0.9;stroke:#000000;stroke-opacity:0;" x="231.004544" xlink:href="#mc393146144" y="166.974072"/>
    </g>
   </g>
   <g id="line2d_26">
    <g clip-path="url(#p51d7aadc14)">
     <use style="fill:#00008b;fill-opacity:0.9;stroke:#000000;stroke-opacity:0;" x="376.093523" xlink:href="#mc393146144" y="220.410217"/>
    </g>
   </g>
   <g id="line2d_27">
    <g clip-path="url(#p51d7aadc14)">
     <use style="fill:#00008b;fill-opacity:0.9;stroke:#000000;stroke-opacity:0;" x="248.242839" xlink:href="#mc393146144" y="166.002506"/>
    </g>
   </g>
   <g id="line2d_28">
    <defs>
     <path d="M 0 1.5 
C 0.397805 1.5 0.77937 1.341951 1.06066 1.06066 
C 1.341951 0.77937 1.5 0.397805 1.5 0 
C 1.5 -0.397805 1.341951 -0.77937 1.06066 -1.06066 
C 0.77937 -1.341951 0.397805 -1.5 0 -1.5 
C -0.397805 -1.5 -0.77937 -1.341951 -1.06066 -1.06066 
C -1.341951 -0.77937 -1.5 -0.397805 -1.5 0 
C -1.5 0.397805 -1.341951 0.77937 -1.06066 1.06066 
C -0.77937 1.341951 -0.397805 1.5 0 1.5 
z
" id="m1a9d61d285" style="stroke:#000000;stroke-opacity:0;"/>
    </defs>
    <g clip-path="url(#p51d7aadc14)">
     <use style="fill:#006400;fill-opacity:0.9;stroke:#000000;stroke-opacity:0;" x="141.940023" xlink:href="#m1a9d61d285" y="89.248771"/>
    </g>
   </g>
   <g id="line2d_29">
    <g clip-path="url(#p51d7aadc14)">
     <use style="fill:#00008b;fill-opacity:0.9;stroke:#000000;stroke-opacity:0;" x="274.100281" xlink:href="#mc393146144" y="153.372145"/>
    </g>
   </g>
   <g id="line2d_30">
    <g clip-path="url(#p51d7aadc14)">
     <use style="fill:#00008b;fill-opacity:0.9;stroke:#000000;stroke-opacity:0;" x="139.066974" xlink:href="#mc393146144" y="119.367325"/>
    </g>
   </g>
   <g id="line2d_31">
    <g clip-path="url(#p51d7aadc14)">
     <use style="fill:#00008b;fill-opacity:0.9;stroke:#000000;stroke-opacity:0;" x="120.392155" xlink:href="#mc393146144" y="218.467084"/>
    </g>
   </g>
   <g id="line2d_32">
    <g clip-path="url(#p51d7aadc14)">
     <use style="fill:#006400;fill-opacity:0.9;stroke:#000000;stroke-opacity:0;" x="133.320876" xlink:href="#m1a9d61d285" y="69.817446"/>
    </g>
   </g>
   <g id="line2d_33">
    <g clip-path="url(#p51d7aadc14)">
     <use style="fill:#00008b;fill-opacity:0.9;stroke:#000000;stroke-opacity:0;" x="314.322968" xlink:href="#mc393146144" y="182.519133"/>
    </g>
   </g>
   <g id="line2d_34">
    <g clip-path="url(#p51d7aadc14)">
     <use style="fill:#00008b;fill-opacity:0.9;stroke:#000000;stroke-opacity:0;" x="197.96448" xlink:href="#mc393146144" y="102.850699"/>
    </g>
   </g>
   <g id="line2d_35">
    <g clip-path="url(#p51d7aadc14)">
     <use style="fill:#006400;fill-opacity:0.9;stroke:#000000;stroke-opacity:0;" x="90.22514" xlink:href="#m1a9d61d285" y="153.372145"/>
    </g>
   </g>
   <g id="line2d_36">
    <g clip-path="url(#p51d7aadc14)">
     <use style="fill:#00008b;fill-opacity:0.9;stroke:#000000;stroke-opacity:0;" x="235.314118" xlink:href="#mc393146144" y="227.211181"/>
    </g>
   </g>
   <g id="line2d_37">
    <g clip-path="url(#p51d7aadc14)">
     <use style="fill:#00008b;fill-opacity:0.9;stroke:#000000;stroke-opacity:0;" x="218.075824" xlink:href="#mc393146144" y="226.239614"/>
    </g>
   </g>
   <g id="line2d_38">
    <g clip-path="url(#p51d7aadc14)">
     <use style="fill:#00008b;fill-opacity:0.9;stroke:#000000;stroke-opacity:0;" x="215.202775" xlink:href="#mc393146144" y="135.883952"/>
    </g>
   </g>
   <g id="line2d_39">
    <g clip-path="url(#p51d7aadc14)">
     <use style="fill:#00008b;fill-opacity:0.9;stroke:#000000;stroke-opacity:0;" x="162.051367" xlink:href="#mc393146144" y="85.362506"/>
    </g>
   </g>
   <g id="line2d_40">
    <g clip-path="url(#p51d7aadc14)">
     <use style="fill:#00008b;fill-opacity:0.9;stroke:#000000;stroke-opacity:0;" x="114.646057" xlink:href="#mc393146144" y="181.547566"/>
    </g>
   </g>
   <g id="line2d_41">
    <g clip-path="url(#p51d7aadc14)">
     <use style="fill:#cd853f;fill-opacity:0.9;stroke:#000000;stroke-opacity:0;" x="159.178318" xlink:href="#m5cc6859154" y="131.997687"/>
    </g>
   </g>
   <g id="line2d_42">
    <g clip-path="url(#p51d7aadc14)">
     <use style="fill:#00008b;fill-opacity:0.9;stroke:#000000;stroke-opacity:0;" x="220.948873" xlink:href="#mc393146144" y="169.888771"/>
    </g>
   </g>
   <g id="line2d_43">
    <g clip-path="url(#p51d7aadc14)">
     <use style="fill:#00008b;fill-opacity:0.9;stroke:#000000;stroke-opacity:0;" x="269.790707" xlink:href="#mc393146144" y="218.467084"/>
    </g>
   </g>
   <g id="line2d_44">
    <g clip-path="url(#p51d7aadc14)">
     <use style="fill:#696969;fill-opacity:0.9;stroke:#000000;stroke-opacity:0;" x="278.409854" xlink:href="#m6026ca7a9c" y="152.400578"/>
    </g>
   </g>
   <g id="line2d_45">
    <g clip-path="url(#p51d7aadc14)">
     <use style="fill:#00008b;fill-opacity:0.9;stroke:#000000;stroke-opacity:0;" x="376.093523" xlink:href="#mc393146144" y="217.495518"/>
    </g>
   </g>
   <g id="line2d_46">
    <g clip-path="url(#p51d7aadc14)">
     <use style="fill:#00008b;fill-opacity:0.9;stroke:#000000;stroke-opacity:0;" x="182.16271" xlink:href="#mc393146144" y="153.372145"/>
    </g>
   </g>
   <g id="line2d_47">
    <g clip-path="url(#p51d7aadc14)">
     <use style="fill:#00008b;fill-opacity:0.9;stroke:#000000;stroke-opacity:0;" x="205.147103" xlink:href="#mc393146144" y="109.651663"/>
    </g>
   </g>
   <g id="line2d_48">
    <g clip-path="url(#p51d7aadc14)">
     <use style="fill:#006400;fill-opacity:0.9;stroke:#000000;stroke-opacity:0;" x="81.605993" xlink:href="#m1a9d61d285" y="192.234795"/>
    </g>
   </g>
   <g id="line2d_49">
    <g clip-path="url(#p51d7aadc14)">
     <use style="fill:#00008b;fill-opacity:0.9;stroke:#000000;stroke-opacity:0;" x="150.55917" xlink:href="#mc393146144" y="97.992867"/>
    </g>
   </g>
   <g id="line2d_50">
    <g clip-path="url(#p51d7aadc14)">
     <use style="fill:#00008b;fill-opacity:0.9;stroke:#000000;stroke-opacity:0;" x="124.701729" xlink:href="#mc393146144" y="173.775036"/>
    </g>
   </g>
   <g id="line2d_51">
    <g clip-path="url(#p51d7aadc14)">
     <use style="fill:#00008b;fill-opacity:0.9;stroke:#000000;stroke-opacity:0;" x="281.282903" xlink:href="#mc393146144" y="194.177928"/>
    </g>
   </g>
   <g id="line2d_52">
    <g clip-path="url(#p51d7aadc14)">
     <use style="fill:#00008b;fill-opacity:0.9;stroke:#000000;stroke-opacity:0;" x="220.948873" xlink:href="#mc393146144" y="171.831904"/>
    </g>
   </g>
   <g id="line2d_53">
    <g clip-path="url(#p51d7aadc14)">
     <use style="fill:#00008b;fill-opacity:0.9;stroke:#000000;stroke-opacity:0;" x="337.30736" xlink:href="#mc393146144" y="187.376964"/>
    </g>
   </g>
   <g id="line2d_54">
    <g clip-path="url(#p51d7aadc14)">
     <use style="fill:#00008b;fill-opacity:0.9;stroke:#000000;stroke-opacity:0;" x="282.719428" xlink:href="#mc393146144" y="191.263229"/>
    </g>
   </g>
   <g id="line2d_55">
    <g clip-path="url(#p51d7aadc14)">
     <use style="fill:#006400;fill-opacity:0.9;stroke:#000000;stroke-opacity:0;" x="169.233989" xlink:href="#m1a9d61d285" y="175.718169"/>
    </g>
   </g>
   <g id="line2d_56">
    <g clip-path="url(#p51d7aadc14)">
     <use style="fill:#8b0000;fill-opacity:0.9;stroke:#000000;stroke-opacity:0;" x="65.804223" xlink:href="#medb6fb21ab" y="40.670458"/>
    </g>
   </g>
   <g id="line2d_57">
    <g clip-path="url(#p51d7aadc14)">
     <use style="fill:#006400;fill-opacity:0.9;stroke:#000000;stroke-opacity:0;" x="51.438977" xlink:href="#m1a9d61d285" y="62.044916"/>
    </g>
   </g>
   <g id="line2d_58">
    <g clip-path="url(#p51d7aadc14)">
     <use style="fill:#006400;fill-opacity:0.9;stroke:#000000;stroke-opacity:0;" x="83.042517" xlink:href="#m1a9d61d285" y="51.357687"/>
    </g>
   </g>
   <g id="line2d_59">
    <g clip-path="url(#p51d7aadc14)">
     <use style="fill:#00008b;fill-opacity:0.9;stroke:#000000;stroke-opacity:0;" x="243.933265" xlink:href="#mc393146144" y="129.082988"/>
    </g>
   </g>
   <g id="line2d_60">
    <g clip-path="url(#p51d7aadc14)">
     <use style="fill:#cd853f;fill-opacity:0.9;stroke:#000000;stroke-opacity:0;" x="218.075824" xlink:href="#m5cc6859154" y="175.718169"/>
    </g>
   </g>
   <g id="line2d_61">
    <path clip-path="url(#p51d7aadc14)" d="M 51.438977 82.377326 
L 54.685523 84.772351 
L 57.932068 87.126646 
L 61.178614 89.438203 
L 64.425159 91.704969 
L 67.671705 93.926281 
L 70.91825 96.104321 
L 74.164795 98.24272 
L 77.411341 100.345674 
L 80.657886 102.417962 
L 83.904432 104.464848 
L 87.150977 106.491286 
L 90.397523 108.503504 
L 93.644068 110.508425 
L 96.890614 112.512545 
L 100.137159 114.523232 
L 103.383705 116.54942 
L 106.63025 118.60189 
L 109.876795 120.692526 
L 113.123341 122.820563 
L 116.369886 125.015751 
L 119.616432 127.304354 
L 122.862977 129.691398 
L 126.109523 132.142315 
L 129.356068 134.544629 
L 132.602614 136.616303 
L 135.849159 138.217329 
L 139.095705 139.172225 
L 142.34225 139.558846 
L 145.588795 139.679272 
L 148.835341 139.55323 
L 152.081886 139.344207 
L 155.328432 139.319909 
L 158.574977 139.517729 
L 161.821523 139.791386 
L 165.068068 140.151514 
L 168.314614 140.681494 
L 171.561159 141.393118 
L 174.807705 142.383425 
L 178.05425 143.668164 
L 181.300795 145.200573 
L 184.547341 146.956578 
L 187.793886 148.893316 
L 191.040432 150.910278 
L 194.286977 153.085225 
L 197.533523 155.260098 
L 200.780068 157.333316 
L 204.026614 159.292483 
L 207.273159 161.182653 
L 210.519705 162.976767 
L 213.76625 164.616891 
L 217.012795 165.991075 
L 220.259341 167.16708 
L 223.505886 168.055298 
L 226.752432 168.83605 
L 229.998977 169.63646 
L 233.245523 170.465123 
L 236.492068 171.282268 
L 239.738614 172.09649 
L 242.985159 172.909852 
L 246.231705 173.638754 
L 249.47825 174.28643 
L 252.724795 174.874466 
L 255.971341 175.412636 
L 259.217886 175.917284 
L 262.464432 176.393628 
L 265.710977 176.8687 
L 268.957523 177.35774 
L 272.204068 177.898774 
L 275.450614 178.537637 
L 278.697159 179.298163 
L 281.943705 180.172632 
L 285.19025 181.123379 
L 288.436795 182.127453 
L 291.683341 183.195922 
L 294.929886 184.286579 
L 298.176432 185.359026 
L 301.422977 186.402629 
L 304.669523 187.417845 
L 307.916068 188.409042 
L 311.162614 189.381134 
L 314.409159 190.338322 
L 317.655705 191.283984 
L 320.90225 192.220937 
L 324.148795 193.151442 
L 327.395341 194.077307 
L 330.641886 194.999998 
L 333.888432 195.920721 
L 337.134977 196.840484 
L 340.381523 197.760173 
L 343.628068 198.680704 
L 346.874614 199.602924 
L 350.121159 200.527575 
L 353.367705 201.455314 
L 356.61425 202.386723 
L 359.860795 203.32232 
L 363.107341 204.262564 
L 366.353886 205.207862 
L 369.600432 206.158577 
L 372.846977 207.115027 
L 376.093523 208.077492 
" style="fill:none;stroke:#00008b;stroke-linecap:round;stroke-opacity:0.5;stroke-width:1.5;"/>
   </g>
  </g>
  <g id="text_63">
   <!-- dynomight.net -->
   <g style="fill:#808080;opacity:0.5;" transform="translate(346.24625 297.504)scale(0.06 -0.06)">
    <defs>
     <path d="M 2681 3053 
L 2681 4863 
L 3256 4863 
L 3256 0 
L 2681 0 
L 2681 441 
Q 2538 181 2298 45 
Q 2059 -91 1747 -91 
Q 1113 -91 748 401 
Q 384 894 384 1759 
Q 384 2613 750 3098 
Q 1116 3584 1747 3584 
Q 2063 3584 2303 3448 
Q 2544 3313 2681 3053 
z
M 991 1747 
Q 991 1078 1203 737 
Q 1416 397 1831 397 
Q 2247 397 2464 740 
Q 2681 1084 2681 1747 
Q 2681 2413 2464 2755 
Q 2247 3097 1831 3097 
Q 1416 3097 1203 2756 
Q 991 2416 991 1747 
z
" id="DejaVuSansMono-64" transform="scale(0.015625)"/>
     <path d="M 2681 1125 
Q 2538 759 2316 163 
Q 2006 -663 1900 -844 
Q 1756 -1088 1540 -1209 
Q 1325 -1331 1038 -1331 
L 575 -1331 
L 575 -850 
L 916 -850 
Q 1169 -850 1312 -703 
Q 1456 -556 1678 56 
L 325 3500 
L 934 3500 
L 1972 763 
L 2994 3500 
L 3603 3500 
L 2681 1125 
z
" id="DejaVuSansMono-79" transform="scale(0.015625)"/>
     <path d="M 3284 2169 
L 3284 0 
L 2706 0 
L 2706 2169 
Q 2706 2641 2540 2862 
Q 2375 3084 2022 3084 
Q 1619 3084 1401 2798 
Q 1184 2513 1184 1978 
L 1184 0 
L 609 0 
L 609 3500 
L 1184 3500 
L 1184 2975 
Q 1338 3275 1600 3429 
Q 1863 3584 2222 3584 
Q 2756 3584 3020 3232 
Q 3284 2881 3284 2169 
z
" id="DejaVuSansMono-6e" transform="scale(0.015625)"/>
     <path d="M 1925 3097 
Q 1488 3097 1263 2756 
Q 1038 2416 1038 1747 
Q 1038 1081 1263 739 
Q 1488 397 1925 397 
Q 2366 397 2591 739 
Q 2816 1081 2816 1747 
Q 2816 2416 2591 2756 
Q 2366 3097 1925 3097 
z
M 1925 3584 
Q 2653 3584 3039 3112 
Q 3425 2641 3425 1747 
Q 3425 850 3040 379 
Q 2656 -91 1925 -91 
Q 1197 -91 812 379 
Q 428 850 428 1747 
Q 428 2641 812 3112 
Q 1197 3584 1925 3584 
z
" id="DejaVuSansMono-6f" transform="scale(0.015625)"/>
     <path d="M 2113 3144 
Q 2219 3369 2383 3476 
Q 2547 3584 2778 3584 
Q 3200 3584 3373 3257 
Q 3547 2931 3547 2028 
L 3547 0 
L 3022 0 
L 3022 2003 
Q 3022 2744 2939 2923 
Q 2856 3103 2638 3103 
Q 2388 3103 2295 2911 
Q 2203 2719 2203 2003 
L 2203 0 
L 1678 0 
L 1678 2003 
Q 1678 2753 1589 2928 
Q 1500 3103 1269 3103 
Q 1041 3103 952 2911 
Q 863 2719 863 2003 
L 863 0 
L 341 0 
L 341 3500 
L 863 3500 
L 863 3200 
Q 966 3388 1120 3486 
Q 1275 3584 1472 3584 
Q 1709 3584 1867 3475 
Q 2025 3366 2113 3144 
z
" id="DejaVuSansMono-6d" transform="scale(0.015625)"/>
     <path d="M 800 3500 
L 2272 3500 
L 2272 447 
L 3413 447 
L 3413 0 
L 556 0 
L 556 447 
L 1697 447 
L 1697 3053 
L 800 3053 
L 800 3500 
z
M 1697 4863 
L 2272 4863 
L 2272 4134 
L 1697 4134 
L 1697 4863 
z
" id="DejaVuSansMono-69" transform="scale(0.015625)"/>
     <path d="M 2681 1778 
Q 2681 2425 2470 2761 
Q 2259 3097 1856 3097 
Q 1434 3097 1212 2761 
Q 991 2425 991 1778 
Q 991 1131 1214 792 
Q 1438 453 1863 453 
Q 2259 453 2470 793 
Q 2681 1134 2681 1778 
z
M 3256 225 
Q 3256 -563 2884 -969 
Q 2513 -1375 1791 -1375 
Q 1553 -1375 1293 -1331 
Q 1034 -1288 775 -1203 
L 775 -634 
Q 1081 -778 1331 -847 
Q 1581 -916 1791 -916 
Q 2256 -916 2468 -662 
Q 2681 -409 2681 141 
L 2681 166 
L 2681 556 
Q 2544 263 2306 119 
Q 2069 -25 1728 -25 
Q 1116 -25 750 465 
Q 384 956 384 1778 
Q 384 2603 750 3093 
Q 1116 3584 1728 3584 
Q 2066 3584 2300 3450 
Q 2534 3316 2681 3034 
L 2681 3488 
L 3256 3488 
L 3256 225 
z
" id="DejaVuSansMono-67" transform="scale(0.015625)"/>
     <path d="M 3284 2169 
L 3284 0 
L 2706 0 
L 2706 2169 
Q 2706 2641 2540 2862 
Q 2375 3084 2022 3084 
Q 1619 3084 1401 2798 
Q 1184 2513 1184 1978 
L 1184 0 
L 609 0 
L 609 4863 
L 1184 4863 
L 1184 2975 
Q 1338 3275 1600 3429 
Q 1863 3584 2222 3584 
Q 2756 3584 3020 3232 
Q 3284 2881 3284 2169 
z
" id="DejaVuSansMono-68" transform="scale(0.015625)"/>
     <path d="M 1919 4494 
L 1919 3500 
L 3225 3500 
L 3225 3053 
L 1919 3053 
L 1919 1153 
Q 1919 766 2066 612 
Q 2213 459 2578 459 
L 3225 459 
L 3225 0 
L 2522 0 
Q 1875 0 1609 259 
Q 1344 519 1344 1153 
L 1344 3053 
L 409 3053 
L 409 3500 
L 1344 3500 
L 1344 4494 
L 1919 4494 
z
" id="DejaVuSansMono-74" transform="scale(0.015625)"/>
     <path d="M 1528 953 
L 2316 953 
L 2316 0 
L 1528 0 
L 1528 953 
z
" id="DejaVuSansMono-2e" transform="scale(0.015625)"/>
     <path d="M 3475 1894 
L 3475 1613 
L 984 1613 
L 984 1594 
Q 984 1022 1282 709 
Q 1581 397 2125 397 
Q 2400 397 2700 484 
Q 3000 572 3341 750 
L 3341 178 
Q 3013 44 2708 -23 
Q 2403 -91 2119 -91 
Q 1303 -91 843 398 
Q 384 888 384 1747 
Q 384 2584 834 3084 
Q 1284 3584 2034 3584 
Q 2703 3584 3089 3131 
Q 3475 2678 3475 1894 
z
M 2900 2063 
Q 2888 2569 2661 2833 
Q 2434 3097 2009 3097 
Q 1594 3097 1325 2822 
Q 1056 2547 1006 2059 
L 2900 2063 
z
" id="DejaVuSansMono-65" transform="scale(0.015625)"/>
    </defs>
    <use xlink:href="#DejaVuSansMono-64"/>
    <use x="60.205078" xlink:href="#DejaVuSansMono-79"/>
    <use x="120.410156" xlink:href="#DejaVuSansMono-6e"/>
    <use x="180.615234" xlink:href="#DejaVuSansMono-6f"/>
    <use x="240.820312" xlink:href="#DejaVuSansMono-6d"/>
    <use x="301.025391" xlink:href="#DejaVuSansMono-69"/>
    <use x="361.230469" xlink:href="#DejaVuSansMono-67"/>
    <use x="421.435547" xlink:href="#DejaVuSansMono-68"/>
    <use x="481.640625" xlink:href="#DejaVuSansMono-74"/>
    <use x="541.845703" xlink:href="#DejaVuSansMono-2e"/>
    <use x="602.050781" xlink:href="#DejaVuSansMono-6e"/>
    <use x="662.255859" xlink:href="#DejaVuSansMono-65"/>
    <use x="722.460938" xlink:href="#DejaVuSansMono-74"/>
   </g>
  </g>
 </g>
 <defs>
  <clipPath id="p51d7aadc14">
   <rect height="266.112" width="357.12" x="35.20625" y="7.2"/>
  </clipPath>
 </defs>
</svg>
