<?xml version="1.0" encoding="utf-8" standalone="no"?>
<!DOCTYPE svg PUBLIC "-//W3C//DTD SVG 1.1//EN"
  "http://www.w3.org/Graphics/SVG/1.1/DTD/svg11.dtd">
<svg height="306.541687pt" version="1.1" viewBox="0 0 400.404687 306.541687" width="400.404687pt" xmlns="http://www.w3.org/2000/svg" xmlns:xlink="http://www.w3.org/1999/xlink">
 <metadata>
  <rdf:RDF xmlns:cc="http://creativecommons.org/ns#" xmlns:dc="http://purl.org/dc/elements/1.1/" xmlns:rdf="http://www.w3.org/1999/02/22-rdf-syntax-ns#">
   <cc:Work>
    <dc:type rdf:resource="http://purl.org/dc/dcmitype/StillImage"/>
    <dc:date>2021-07-01T15:59:14.808746</dc:date>
    <dc:format>image/svg+xml</dc:format>
    <dc:creator>
     <cc:Agent>
      <dc:title>Matplotlib v3.4.1, https://matplotlib.org/</dc:title>
     </cc:Agent>
    </dc:creator>
   </cc:Work>
  </rdf:RDF>
 </metadata>
 <defs>
  <style type="text/css">*{stroke-linecap:butt;stroke-linejoin:round;}</style>
 </defs>
 <g id="figure_1">
  <g id="patch_1">
   <path d="M 0 306.541687 
L 400.404687 306.541687 
L 400.404687 0 
L 0 0 
z
" style="fill:#ffffff;"/>
  </g>
  <g id="axes_1">
   <g id="patch_2">
    <path d="M 35.20625 273.312 
L 392.32625 273.312 
L 392.32625 7.2 
L 35.20625 7.2 
z
" style="fill:#ffffff;"/>
   </g>
   <g id="matplotlib.axis_1">
    <g id="xtick_1">
     <g id="line2d_1"/>
     <g id="text_1">
      <!-- 0.60 -->
      <g style="fill:#262626;" transform="translate(50.551239 283.969812)scale(0.1 -0.1)">
       <defs>
        <path d="M 266 2259 
Q 266 3072 433 3567 
Q 600 4063 929 4331 
Q 1259 4600 1759 4600 
Q 2128 4600 2406 4451 
Q 2684 4303 2865 4023 
Q 3047 3744 3150 3342 
Q 3253 2941 3253 2259 
Q 3253 1453 3087 958 
Q 2922 463 2592 192 
Q 2263 -78 1759 -78 
Q 1097 -78 719 397 
Q 266 969 266 2259 
z
M 844 2259 
Q 844 1131 1108 757 
Q 1372 384 1759 384 
Q 2147 384 2411 759 
Q 2675 1134 2675 2259 
Q 2675 3391 2411 3762 
Q 2147 4134 1753 4134 
Q 1366 4134 1134 3806 
Q 844 3388 844 2259 
z
" id="ArialMT-30" transform="scale(0.015625)"/>
        <path d="M 581 0 
L 581 641 
L 1222 641 
L 1222 0 
L 581 0 
z
" id="ArialMT-2e" transform="scale(0.015625)"/>
        <path d="M 3184 3459 
L 2625 3416 
Q 2550 3747 2413 3897 
Q 2184 4138 1850 4138 
Q 1581 4138 1378 3988 
Q 1113 3794 959 3422 
Q 806 3050 800 2363 
Q 1003 2672 1297 2822 
Q 1591 2972 1913 2972 
Q 2475 2972 2870 2558 
Q 3266 2144 3266 1488 
Q 3266 1056 3080 686 
Q 2894 316 2569 119 
Q 2244 -78 1831 -78 
Q 1128 -78 684 439 
Q 241 956 241 2144 
Q 241 3472 731 4075 
Q 1159 4600 1884 4600 
Q 2425 4600 2770 4297 
Q 3116 3994 3184 3459 
z
M 888 1484 
Q 888 1194 1011 928 
Q 1134 663 1356 523 
Q 1578 384 1822 384 
Q 2178 384 2434 671 
Q 2691 959 2691 1453 
Q 2691 1928 2437 2201 
Q 2184 2475 1800 2475 
Q 1419 2475 1153 2201 
Q 888 1928 888 1484 
z
" id="ArialMT-36" transform="scale(0.015625)"/>
       </defs>
       <use xlink:href="#ArialMT-30"/>
       <use x="55.615234" xlink:href="#ArialMT-2e"/>
       <use x="83.398438" xlink:href="#ArialMT-36"/>
       <use x="139.013672" xlink:href="#ArialMT-30"/>
      </g>
     </g>
    </g>
    <g id="xtick_2">
     <g id="line2d_2"/>
     <g id="text_2">
      <!-- 0.65 -->
      <g style="fill:#262626;" transform="translate(113.713602 283.969812)scale(0.1 -0.1)">
       <defs>
        <path d="M 266 1200 
L 856 1250 
Q 922 819 1161 601 
Q 1400 384 1738 384 
Q 2144 384 2425 690 
Q 2706 997 2706 1503 
Q 2706 1984 2436 2262 
Q 2166 2541 1728 2541 
Q 1456 2541 1237 2417 
Q 1019 2294 894 2097 
L 366 2166 
L 809 4519 
L 3088 4519 
L 3088 3981 
L 1259 3981 
L 1013 2750 
Q 1425 3038 1878 3038 
Q 2478 3038 2890 2622 
Q 3303 2206 3303 1553 
Q 3303 931 2941 478 
Q 2500 -78 1738 -78 
Q 1113 -78 717 272 
Q 322 622 266 1200 
z
" id="ArialMT-35" transform="scale(0.015625)"/>
       </defs>
       <use xlink:href="#ArialMT-30"/>
       <use x="55.615234" xlink:href="#ArialMT-2e"/>
       <use x="83.398438" xlink:href="#ArialMT-36"/>
       <use x="139.013672" xlink:href="#ArialMT-35"/>
      </g>
     </g>
    </g>
    <g id="xtick_3">
     <g id="line2d_3"/>
     <g id="text_3">
      <!-- 0.70 -->
      <g style="fill:#262626;" transform="translate(176.875965 283.969812)scale(0.1 -0.1)">
       <defs>
        <path d="M 303 3981 
L 303 4522 
L 3269 4522 
L 3269 4084 
Q 2831 3619 2401 2847 
Q 1972 2075 1738 1259 
Q 1569 684 1522 0 
L 944 0 
Q 953 541 1156 1306 
Q 1359 2072 1739 2783 
Q 2119 3494 2547 3981 
L 303 3981 
z
" id="ArialMT-37" transform="scale(0.015625)"/>
       </defs>
       <use xlink:href="#ArialMT-30"/>
       <use x="55.615234" xlink:href="#ArialMT-2e"/>
       <use x="83.398438" xlink:href="#ArialMT-37"/>
       <use x="139.013672" xlink:href="#ArialMT-30"/>
      </g>
     </g>
    </g>
    <g id="xtick_4">
     <g id="line2d_4"/>
     <g id="text_4">
      <!-- 0.75 -->
      <g style="fill:#262626;" transform="translate(240.038328 283.969812)scale(0.1 -0.1)">
       <use xlink:href="#ArialMT-30"/>
       <use x="55.615234" xlink:href="#ArialMT-2e"/>
       <use x="83.398438" xlink:href="#ArialMT-37"/>
       <use x="139.013672" xlink:href="#ArialMT-35"/>
      </g>
     </g>
    </g>
    <g id="xtick_5">
     <g id="line2d_5"/>
     <g id="text_5">
      <!-- 0.80 -->
      <g style="fill:#262626;" transform="translate(303.200691 283.969812)scale(0.1 -0.1)">
       <defs>
        <path d="M 1131 2484 
Q 781 2613 612 2850 
Q 444 3088 444 3419 
Q 444 3919 803 4259 
Q 1163 4600 1759 4600 
Q 2359 4600 2725 4251 
Q 3091 3903 3091 3403 
Q 3091 3084 2923 2848 
Q 2756 2613 2416 2484 
Q 2838 2347 3058 2040 
Q 3278 1734 3278 1309 
Q 3278 722 2862 322 
Q 2447 -78 1769 -78 
Q 1091 -78 675 323 
Q 259 725 259 1325 
Q 259 1772 486 2073 
Q 713 2375 1131 2484 
z
M 1019 3438 
Q 1019 3113 1228 2906 
Q 1438 2700 1772 2700 
Q 2097 2700 2305 2904 
Q 2513 3109 2513 3406 
Q 2513 3716 2298 3927 
Q 2084 4138 1766 4138 
Q 1444 4138 1231 3931 
Q 1019 3725 1019 3438 
z
M 838 1322 
Q 838 1081 952 856 
Q 1066 631 1291 507 
Q 1516 384 1775 384 
Q 2178 384 2440 643 
Q 2703 903 2703 1303 
Q 2703 1709 2433 1975 
Q 2163 2241 1756 2241 
Q 1359 2241 1098 1978 
Q 838 1716 838 1322 
z
" id="ArialMT-38" transform="scale(0.015625)"/>
       </defs>
       <use xlink:href="#ArialMT-30"/>
       <use x="55.615234" xlink:href="#ArialMT-2e"/>
       <use x="83.398438" xlink:href="#ArialMT-38"/>
       <use x="139.013672" xlink:href="#ArialMT-30"/>
      </g>
     </g>
    </g>
    <g id="xtick_6">
     <g id="line2d_6"/>
     <g id="text_6">
      <!-- 0.85 -->
      <g style="fill:#262626;" transform="translate(366.363054 283.969812)scale(0.1 -0.1)">
       <use xlink:href="#ArialMT-30"/>
       <use x="55.615234" xlink:href="#ArialMT-2e"/>
       <use x="83.398438" xlink:href="#ArialMT-38"/>
       <use x="139.013672" xlink:href="#ArialMT-35"/>
      </g>
     </g>
    </g>
    <g id="text_7">
     <!-- GGGI (more is more equal) -->
     <g style="fill:#262626;" transform="translate(153.199063 297.237)scale(0.1 -0.1)">
      <defs>
       <path d="M 2638 1797 
L 2638 2334 
L 4578 2338 
L 4578 638 
Q 4131 281 3656 101 
Q 3181 -78 2681 -78 
Q 2006 -78 1454 211 
Q 903 500 622 1047 
Q 341 1594 341 2269 
Q 341 2938 620 3517 
Q 900 4097 1425 4378 
Q 1950 4659 2634 4659 
Q 3131 4659 3532 4498 
Q 3934 4338 4162 4050 
Q 4391 3763 4509 3300 
L 3963 3150 
Q 3859 3500 3706 3700 
Q 3553 3900 3268 4020 
Q 2984 4141 2638 4141 
Q 2222 4141 1919 4014 
Q 1616 3888 1430 3681 
Q 1244 3475 1141 3228 
Q 966 2803 966 2306 
Q 966 1694 1177 1281 
Q 1388 869 1791 669 
Q 2194 469 2647 469 
Q 3041 469 3416 620 
Q 3791 772 3984 944 
L 3984 1797 
L 2638 1797 
z
" id="ArialMT-47" transform="scale(0.015625)"/>
       <path d="M 597 0 
L 597 4581 
L 1203 4581 
L 1203 0 
L 597 0 
z
" id="ArialMT-49" transform="scale(0.015625)"/>
       <path id="ArialMT-20" transform="scale(0.015625)"/>
       <path d="M 1497 -1347 
Q 1031 -759 709 28 
Q 388 816 388 1659 
Q 388 2403 628 3084 
Q 909 3875 1497 4659 
L 1900 4659 
Q 1522 4009 1400 3731 
Q 1209 3300 1100 2831 
Q 966 2247 966 1656 
Q 966 153 1900 -1347 
L 1497 -1347 
z
" id="ArialMT-28" transform="scale(0.015625)"/>
       <path d="M 422 0 
L 422 3319 
L 925 3319 
L 925 2853 
Q 1081 3097 1340 3245 
Q 1600 3394 1931 3394 
Q 2300 3394 2536 3241 
Q 2772 3088 2869 2813 
Q 3263 3394 3894 3394 
Q 4388 3394 4653 3120 
Q 4919 2847 4919 2278 
L 4919 0 
L 4359 0 
L 4359 2091 
Q 4359 2428 4304 2576 
Q 4250 2725 4106 2815 
Q 3963 2906 3769 2906 
Q 3419 2906 3187 2673 
Q 2956 2441 2956 1928 
L 2956 0 
L 2394 0 
L 2394 2156 
Q 2394 2531 2256 2718 
Q 2119 2906 1806 2906 
Q 1569 2906 1367 2781 
Q 1166 2656 1075 2415 
Q 984 2175 984 1722 
L 984 0 
L 422 0 
z
" id="ArialMT-6d" transform="scale(0.015625)"/>
       <path d="M 213 1659 
Q 213 2581 725 3025 
Q 1153 3394 1769 3394 
Q 2453 3394 2887 2945 
Q 3322 2497 3322 1706 
Q 3322 1066 3130 698 
Q 2938 331 2570 128 
Q 2203 -75 1769 -75 
Q 1072 -75 642 372 
Q 213 819 213 1659 
z
M 791 1659 
Q 791 1022 1069 705 
Q 1347 388 1769 388 
Q 2188 388 2466 706 
Q 2744 1025 2744 1678 
Q 2744 2294 2464 2611 
Q 2184 2928 1769 2928 
Q 1347 2928 1069 2612 
Q 791 2297 791 1659 
z
" id="ArialMT-6f" transform="scale(0.015625)"/>
       <path d="M 416 0 
L 416 3319 
L 922 3319 
L 922 2816 
Q 1116 3169 1280 3281 
Q 1444 3394 1641 3394 
Q 1925 3394 2219 3213 
L 2025 2691 
Q 1819 2813 1613 2813 
Q 1428 2813 1281 2702 
Q 1134 2591 1072 2394 
Q 978 2094 978 1738 
L 978 0 
L 416 0 
z
" id="ArialMT-72" transform="scale(0.015625)"/>
       <path d="M 2694 1069 
L 3275 997 
Q 3138 488 2766 206 
Q 2394 -75 1816 -75 
Q 1088 -75 661 373 
Q 234 822 234 1631 
Q 234 2469 665 2931 
Q 1097 3394 1784 3394 
Q 2450 3394 2872 2941 
Q 3294 2488 3294 1666 
Q 3294 1616 3291 1516 
L 816 1516 
Q 847 969 1125 678 
Q 1403 388 1819 388 
Q 2128 388 2347 550 
Q 2566 713 2694 1069 
z
M 847 1978 
L 2700 1978 
Q 2663 2397 2488 2606 
Q 2219 2931 1791 2931 
Q 1403 2931 1139 2672 
Q 875 2413 847 1978 
z
" id="ArialMT-65" transform="scale(0.015625)"/>
       <path d="M 425 3934 
L 425 4581 
L 988 4581 
L 988 3934 
L 425 3934 
z
M 425 0 
L 425 3319 
L 988 3319 
L 988 0 
L 425 0 
z
" id="ArialMT-69" transform="scale(0.015625)"/>
       <path d="M 197 991 
L 753 1078 
Q 800 744 1014 566 
Q 1228 388 1613 388 
Q 2000 388 2187 545 
Q 2375 703 2375 916 
Q 2375 1106 2209 1216 
Q 2094 1291 1634 1406 
Q 1016 1563 777 1677 
Q 538 1791 414 1992 
Q 291 2194 291 2438 
Q 291 2659 392 2848 
Q 494 3038 669 3163 
Q 800 3259 1026 3326 
Q 1253 3394 1513 3394 
Q 1903 3394 2198 3281 
Q 2494 3169 2634 2976 
Q 2775 2784 2828 2463 
L 2278 2388 
Q 2241 2644 2061 2787 
Q 1881 2931 1553 2931 
Q 1166 2931 1000 2803 
Q 834 2675 834 2503 
Q 834 2394 903 2306 
Q 972 2216 1119 2156 
Q 1203 2125 1616 2013 
Q 2213 1853 2448 1751 
Q 2684 1650 2818 1456 
Q 2953 1263 2953 975 
Q 2953 694 2789 445 
Q 2625 197 2315 61 
Q 2006 -75 1616 -75 
Q 969 -75 630 194 
Q 291 463 197 991 
z
" id="ArialMT-73" transform="scale(0.015625)"/>
       <path d="M 2538 -1272 
L 2538 353 
Q 2406 169 2170 47 
Q 1934 -75 1669 -75 
Q 1078 -75 651 397 
Q 225 869 225 1691 
Q 225 2191 398 2587 
Q 572 2984 901 3189 
Q 1231 3394 1625 3394 
Q 2241 3394 2594 2875 
L 2594 3319 
L 3100 3319 
L 3100 -1272 
L 2538 -1272 
z
M 803 1669 
Q 803 1028 1072 708 
Q 1341 388 1716 388 
Q 2075 388 2334 692 
Q 2594 997 2594 1619 
Q 2594 2281 2320 2615 
Q 2047 2950 1678 2950 
Q 1313 2950 1058 2639 
Q 803 2328 803 1669 
z
" id="ArialMT-71" transform="scale(0.015625)"/>
       <path d="M 2597 0 
L 2597 488 
Q 2209 -75 1544 -75 
Q 1250 -75 995 37 
Q 741 150 617 320 
Q 494 491 444 738 
Q 409 903 409 1263 
L 409 3319 
L 972 3319 
L 972 1478 
Q 972 1038 1006 884 
Q 1059 663 1231 536 
Q 1403 409 1656 409 
Q 1909 409 2131 539 
Q 2353 669 2445 892 
Q 2538 1116 2538 1541 
L 2538 3319 
L 3100 3319 
L 3100 0 
L 2597 0 
z
" id="ArialMT-75" transform="scale(0.015625)"/>
       <path d="M 2588 409 
Q 2275 144 1986 34 
Q 1697 -75 1366 -75 
Q 819 -75 525 192 
Q 231 459 231 875 
Q 231 1119 342 1320 
Q 453 1522 633 1644 
Q 813 1766 1038 1828 
Q 1203 1872 1538 1913 
Q 2219 1994 2541 2106 
Q 2544 2222 2544 2253 
Q 2544 2597 2384 2738 
Q 2169 2928 1744 2928 
Q 1347 2928 1158 2789 
Q 969 2650 878 2297 
L 328 2372 
Q 403 2725 575 2942 
Q 747 3159 1072 3276 
Q 1397 3394 1825 3394 
Q 2250 3394 2515 3294 
Q 2781 3194 2906 3042 
Q 3031 2891 3081 2659 
Q 3109 2516 3109 2141 
L 3109 1391 
Q 3109 606 3145 398 
Q 3181 191 3288 0 
L 2700 0 
Q 2613 175 2588 409 
z
M 2541 1666 
Q 2234 1541 1622 1453 
Q 1275 1403 1131 1340 
Q 988 1278 909 1158 
Q 831 1038 831 891 
Q 831 666 1001 516 
Q 1172 366 1500 366 
Q 1825 366 2078 508 
Q 2331 650 2450 897 
Q 2541 1088 2541 1459 
L 2541 1666 
z
" id="ArialMT-61" transform="scale(0.015625)"/>
       <path d="M 409 0 
L 409 4581 
L 972 4581 
L 972 0 
L 409 0 
z
" id="ArialMT-6c" transform="scale(0.015625)"/>
       <path d="M 791 -1347 
L 388 -1347 
Q 1322 153 1322 1656 
Q 1322 2244 1188 2822 
Q 1081 3291 891 3722 
Q 769 4003 388 4659 
L 791 4659 
Q 1378 3875 1659 3084 
Q 1900 2403 1900 1659 
Q 1900 816 1576 28 
Q 1253 -759 791 -1347 
z
" id="ArialMT-29" transform="scale(0.015625)"/>
      </defs>
      <use xlink:href="#ArialMT-47"/>
      <use x="77.783203" xlink:href="#ArialMT-47"/>
      <use x="155.566406" xlink:href="#ArialMT-47"/>
      <use x="233.349609" xlink:href="#ArialMT-49"/>
      <use x="261.132812" xlink:href="#ArialMT-20"/>
      <use x="288.916016" xlink:href="#ArialMT-28"/>
      <use x="322.216797" xlink:href="#ArialMT-6d"/>
      <use x="405.517578" xlink:href="#ArialMT-6f"/>
      <use x="461.132812" xlink:href="#ArialMT-72"/>
      <use x="494.433594" xlink:href="#ArialMT-65"/>
      <use x="550.048828" xlink:href="#ArialMT-20"/>
      <use x="577.832031" xlink:href="#ArialMT-69"/>
      <use x="600.048828" xlink:href="#ArialMT-73"/>
      <use x="650.048828" xlink:href="#ArialMT-20"/>
      <use x="677.832031" xlink:href="#ArialMT-6d"/>
      <use x="761.132812" xlink:href="#ArialMT-6f"/>
      <use x="816.748047" xlink:href="#ArialMT-72"/>
      <use x="850.048828" xlink:href="#ArialMT-65"/>
      <use x="905.664062" xlink:href="#ArialMT-20"/>
      <use x="933.447266" xlink:href="#ArialMT-65"/>
      <use x="989.0625" xlink:href="#ArialMT-71"/>
      <use x="1044.677734" xlink:href="#ArialMT-75"/>
      <use x="1100.292969" xlink:href="#ArialMT-61"/>
      <use x="1155.908203" xlink:href="#ArialMT-6c"/>
      <use x="1178.125" xlink:href="#ArialMT-29"/>
     </g>
    </g>
   </g>
   <g id="matplotlib.axis_2">
    <g id="ytick_1">
     <g id="line2d_7"/>
     <g id="text_8">
      <!-- 0 -->
      <g style="fill:#262626;" transform="translate(26.145313 264.794906)scale(0.1 -0.1)">
       <use xlink:href="#ArialMT-30"/>
      </g>
     </g>
    </g>
    <g id="ytick_2">
     <g id="line2d_8"/>
     <g id="text_9">
      <!-- 10 -->
      <g style="fill:#262626;" transform="translate(20.584375 232.580669)scale(0.1 -0.1)">
       <defs>
        <path d="M 2384 0 
L 1822 0 
L 1822 3584 
Q 1619 3391 1289 3197 
Q 959 3003 697 2906 
L 697 3450 
Q 1169 3672 1522 3987 
Q 1875 4303 2022 4600 
L 2384 4600 
L 2384 0 
z
" id="ArialMT-31" transform="scale(0.015625)"/>
       </defs>
       <use xlink:href="#ArialMT-31"/>
       <use x="55.615234" xlink:href="#ArialMT-30"/>
      </g>
     </g>
    </g>
    <g id="ytick_3">
     <g id="line2d_9"/>
     <g id="text_10">
      <!-- 20 -->
      <g style="fill:#262626;" transform="translate(20.584375 200.366431)scale(0.1 -0.1)">
       <defs>
        <path d="M 3222 541 
L 3222 0 
L 194 0 
Q 188 203 259 391 
Q 375 700 629 1000 
Q 884 1300 1366 1694 
Q 2113 2306 2375 2664 
Q 2638 3022 2638 3341 
Q 2638 3675 2398 3904 
Q 2159 4134 1775 4134 
Q 1369 4134 1125 3890 
Q 881 3647 878 3216 
L 300 3275 
Q 359 3922 746 4261 
Q 1134 4600 1788 4600 
Q 2447 4600 2831 4234 
Q 3216 3869 3216 3328 
Q 3216 3053 3103 2787 
Q 2991 2522 2730 2228 
Q 2469 1934 1863 1422 
Q 1356 997 1212 845 
Q 1069 694 975 541 
L 3222 541 
z
" id="ArialMT-32" transform="scale(0.015625)"/>
       </defs>
       <use xlink:href="#ArialMT-32"/>
       <use x="55.615234" xlink:href="#ArialMT-30"/>
      </g>
     </g>
    </g>
    <g id="ytick_4">
     <g id="line2d_10"/>
     <g id="text_11">
      <!-- 30 -->
      <g style="fill:#262626;" transform="translate(20.584375 168.152194)scale(0.1 -0.1)">
       <defs>
        <path d="M 269 1209 
L 831 1284 
Q 928 806 1161 595 
Q 1394 384 1728 384 
Q 2125 384 2398 659 
Q 2672 934 2672 1341 
Q 2672 1728 2419 1979 
Q 2166 2231 1775 2231 
Q 1616 2231 1378 2169 
L 1441 2663 
Q 1497 2656 1531 2656 
Q 1891 2656 2178 2843 
Q 2466 3031 2466 3422 
Q 2466 3731 2256 3934 
Q 2047 4138 1716 4138 
Q 1388 4138 1169 3931 
Q 950 3725 888 3313 
L 325 3413 
Q 428 3978 793 4289 
Q 1159 4600 1703 4600 
Q 2078 4600 2393 4439 
Q 2709 4278 2876 4000 
Q 3044 3722 3044 3409 
Q 3044 3113 2884 2869 
Q 2725 2625 2413 2481 
Q 2819 2388 3044 2092 
Q 3269 1797 3269 1353 
Q 3269 753 2831 336 
Q 2394 -81 1725 -81 
Q 1122 -81 723 278 
Q 325 638 269 1209 
z
" id="ArialMT-33" transform="scale(0.015625)"/>
       </defs>
       <use xlink:href="#ArialMT-33"/>
       <use x="55.615234" xlink:href="#ArialMT-30"/>
      </g>
     </g>
    </g>
    <g id="ytick_5">
     <g id="line2d_11"/>
     <g id="text_12">
      <!-- 40 -->
      <g style="fill:#262626;" transform="translate(20.584375 135.937956)scale(0.1 -0.1)">
       <defs>
        <path d="M 2069 0 
L 2069 1097 
L 81 1097 
L 81 1613 
L 2172 4581 
L 2631 4581 
L 2631 1613 
L 3250 1613 
L 3250 1097 
L 2631 1097 
L 2631 0 
L 2069 0 
z
M 2069 1613 
L 2069 3678 
L 634 1613 
L 2069 1613 
z
" id="ArialMT-34" transform="scale(0.015625)"/>
       </defs>
       <use xlink:href="#ArialMT-34"/>
       <use x="55.615234" xlink:href="#ArialMT-30"/>
      </g>
     </g>
    </g>
    <g id="ytick_6">
     <g id="line2d_12"/>
     <g id="text_13">
      <!-- 50 -->
      <g style="fill:#262626;" transform="translate(20.584375 103.723719)scale(0.1 -0.1)">
       <use xlink:href="#ArialMT-35"/>
       <use x="55.615234" xlink:href="#ArialMT-30"/>
      </g>
     </g>
    </g>
    <g id="ytick_7">
     <g id="line2d_13"/>
     <g id="text_14">
      <!-- 60 -->
      <g style="fill:#262626;" transform="translate(20.584375 71.509481)scale(0.1 -0.1)">
       <use xlink:href="#ArialMT-36"/>
       <use x="55.615234" xlink:href="#ArialMT-30"/>
      </g>
     </g>
    </g>
    <g id="ytick_8">
     <g id="line2d_14"/>
     <g id="text_15">
      <!-- 70 -->
      <g style="fill:#262626;" transform="translate(20.584375 39.295244)scale(0.1 -0.1)">
       <use xlink:href="#ArialMT-37"/>
       <use x="55.615234" xlink:href="#ArialMT-30"/>
      </g>
     </g>
    </g>
    <g id="text_16">
     <!-- female share of degrees -->
     <g style="fill:#262626;" transform="translate(14.479688 194.172406)rotate(-90)scale(0.1 -0.1)">
      <defs>
       <path d="M 556 0 
L 556 2881 
L 59 2881 
L 59 3319 
L 556 3319 
L 556 3672 
Q 556 4006 616 4169 
Q 697 4388 901 4523 
Q 1106 4659 1475 4659 
Q 1713 4659 2000 4603 
L 1916 4113 
Q 1741 4144 1584 4144 
Q 1328 4144 1222 4034 
Q 1116 3925 1116 3625 
L 1116 3319 
L 1763 3319 
L 1763 2881 
L 1116 2881 
L 1116 0 
L 556 0 
z
" id="ArialMT-66" transform="scale(0.015625)"/>
       <path d="M 422 0 
L 422 4581 
L 984 4581 
L 984 2938 
Q 1378 3394 1978 3394 
Q 2347 3394 2619 3248 
Q 2891 3103 3008 2847 
Q 3125 2591 3125 2103 
L 3125 0 
L 2563 0 
L 2563 2103 
Q 2563 2525 2380 2717 
Q 2197 2909 1863 2909 
Q 1613 2909 1392 2779 
Q 1172 2650 1078 2428 
Q 984 2206 984 1816 
L 984 0 
L 422 0 
z
" id="ArialMT-68" transform="scale(0.015625)"/>
       <path d="M 2575 0 
L 2575 419 
Q 2259 -75 1647 -75 
Q 1250 -75 917 144 
Q 584 363 401 755 
Q 219 1147 219 1656 
Q 219 2153 384 2558 
Q 550 2963 881 3178 
Q 1213 3394 1622 3394 
Q 1922 3394 2156 3267 
Q 2391 3141 2538 2938 
L 2538 4581 
L 3097 4581 
L 3097 0 
L 2575 0 
z
M 797 1656 
Q 797 1019 1065 703 
Q 1334 388 1700 388 
Q 2069 388 2326 689 
Q 2584 991 2584 1609 
Q 2584 2291 2321 2609 
Q 2059 2928 1675 2928 
Q 1300 2928 1048 2622 
Q 797 2316 797 1656 
z
" id="ArialMT-64" transform="scale(0.015625)"/>
       <path d="M 319 -275 
L 866 -356 
Q 900 -609 1056 -725 
Q 1266 -881 1628 -881 
Q 2019 -881 2231 -725 
Q 2444 -569 2519 -288 
Q 2563 -116 2559 434 
Q 2191 0 1641 0 
Q 956 0 581 494 
Q 206 988 206 1678 
Q 206 2153 378 2554 
Q 550 2956 876 3175 
Q 1203 3394 1644 3394 
Q 2231 3394 2613 2919 
L 2613 3319 
L 3131 3319 
L 3131 450 
Q 3131 -325 2973 -648 
Q 2816 -972 2473 -1159 
Q 2131 -1347 1631 -1347 
Q 1038 -1347 672 -1080 
Q 306 -813 319 -275 
z
M 784 1719 
Q 784 1066 1043 766 
Q 1303 466 1694 466 
Q 2081 466 2343 764 
Q 2606 1063 2606 1700 
Q 2606 2309 2336 2618 
Q 2066 2928 1684 2928 
Q 1309 2928 1046 2623 
Q 784 2319 784 1719 
z
" id="ArialMT-67" transform="scale(0.015625)"/>
      </defs>
      <use xlink:href="#ArialMT-66"/>
      <use x="27.783203" xlink:href="#ArialMT-65"/>
      <use x="83.398438" xlink:href="#ArialMT-6d"/>
      <use x="166.699219" xlink:href="#ArialMT-61"/>
      <use x="222.314453" xlink:href="#ArialMT-6c"/>
      <use x="244.53125" xlink:href="#ArialMT-65"/>
      <use x="300.146484" xlink:href="#ArialMT-20"/>
      <use x="327.929688" xlink:href="#ArialMT-73"/>
      <use x="377.929688" xlink:href="#ArialMT-68"/>
      <use x="433.544922" xlink:href="#ArialMT-61"/>
      <use x="489.160156" xlink:href="#ArialMT-72"/>
      <use x="522.460938" xlink:href="#ArialMT-65"/>
      <use x="578.076172" xlink:href="#ArialMT-20"/>
      <use x="605.859375" xlink:href="#ArialMT-6f"/>
      <use x="661.474609" xlink:href="#ArialMT-66"/>
      <use x="689.257812" xlink:href="#ArialMT-20"/>
      <use x="717.041016" xlink:href="#ArialMT-64"/>
      <use x="772.65625" xlink:href="#ArialMT-65"/>
      <use x="828.271484" xlink:href="#ArialMT-67"/>
      <use x="883.886719" xlink:href="#ArialMT-72"/>
      <use x="917.1875" xlink:href="#ArialMT-65"/>
      <use x="972.802734" xlink:href="#ArialMT-65"/>
      <use x="1028.417969" xlink:href="#ArialMT-73"/>
     </g>
    </g>
   </g>
   <g id="PolyCollection_1">
    <path clip-path="url(#p4aef917112)" d="M 51.438977 46.829613 
L 51.438977 99.465408 
L 54.685523 98.283852 
L 57.932068 96.95591 
L 61.178614 95.808599 
L 64.425159 94.718757 
L 67.671705 93.540223 
L 70.91825 92.404792 
L 74.164795 91.267879 
L 77.411341 90.125455 
L 80.657886 88.979289 
L 83.904432 87.676407 
L 87.150977 86.319246 
L 90.397523 85.146657 
L 93.644068 84.000297 
L 96.890614 82.717682 
L 100.137159 81.393316 
L 103.383705 80.185998 
L 106.63025 78.911656 
L 109.876795 77.669556 
L 113.123341 76.447974 
L 116.369886 75.294195 
L 119.616432 74.20193 
L 122.862977 73.299193 
L 126.109523 72.536479 
L 129.356068 71.943283 
L 132.602614 71.211746 
L 135.849159 70.199894 
L 139.095705 68.823208 
L 142.34225 67.724096 
L 145.588795 66.372601 
L 148.835341 64.986857 
L 152.081886 63.408605 
L 155.328432 62.624621 
L 158.574977 61.989414 
L 161.821523 61.040056 
L 165.068068 60.308287 
L 168.314614 59.561006 
L 171.561159 58.75053 
L 174.807705 57.913924 
L 178.05425 57.131678 
L 181.300795 56.650237 
L 184.547341 56.080041 
L 187.793886 55.701484 
L 191.040432 55.512057 
L 194.286977 55.300322 
L 197.533523 54.688264 
L 200.780068 54.245527 
L 204.026614 54.018983 
L 207.273159 53.804195 
L 210.519705 53.424732 
L 213.76625 52.932578 
L 217.012795 52.406831 
L 220.259341 52.022222 
L 223.505886 51.949659 
L 226.752432 51.849125 
L 229.998977 51.74255 
L 233.245523 51.741485 
L 236.492068 51.880169 
L 239.738614 51.868488 
L 242.985159 52.012563 
L 246.231705 52.413547 
L 249.47825 52.736657 
L 252.724795 53.171239 
L 255.971341 53.550107 
L 259.217886 54.229757 
L 262.464432 54.671918 
L 265.710977 55.079434 
L 268.957523 55.521062 
L 272.204068 56.004607 
L 275.450614 56.476982 
L 278.697159 57.140681 
L 281.943705 57.685991 
L 285.19025 57.833601 
L 288.436795 58.189987 
L 291.683341 58.60464 
L 294.929886 58.699709 
L 298.176432 59.031323 
L 301.422977 59.469818 
L 304.669523 59.927574 
L 307.916068 60.385353 
L 311.162614 60.959928 
L 314.409159 61.677645 
L 317.655705 62.405529 
L 320.90225 63.146158 
L 324.148795 63.777837 
L 327.395341 64.408241 
L 330.641886 65.258672 
L 333.888432 65.989159 
L 337.134977 66.710871 
L 340.381523 67.452703 
L 343.628068 68.198012 
L 346.874614 68.837276 
L 350.121159 69.485745 
L 353.367705 70.153391 
L 356.61425 70.824051 
L 359.860795 71.497524 
L 363.107341 72.173629 
L 366.353886 72.852196 
L 369.600432 73.533072 
L 372.846977 74.216113 
L 376.093523 74.901188 
L 376.093523 28.787154 
L 376.093523 28.787154 
L 372.846977 29.275778 
L 369.600432 29.754154 
L 366.353886 30.239829 
L 363.107341 30.73377 
L 359.860795 31.224311 
L 356.61425 31.711801 
L 353.367705 32.214257 
L 350.121159 32.717134 
L 346.874614 33.208296 
L 343.628068 33.696949 
L 340.381523 34.085308 
L 337.134977 34.559191 
L 333.888432 35.063617 
L 330.641886 35.435197 
L 327.395341 35.825732 
L 324.148795 36.286806 
L 320.90225 36.804309 
L 317.655705 37.334045 
L 314.409159 37.814813 
L 311.162614 38.244495 
L 307.916068 38.736058 
L 304.669523 39.237847 
L 301.422977 39.6865 
L 298.176432 40.070725 
L 294.929886 40.117659 
L 291.683341 40.520371 
L 288.436795 40.99079 
L 285.19025 41.413114 
L 281.943705 41.642503 
L 278.697159 41.808601 
L 275.450614 41.902105 
L 272.204068 42.253191 
L 268.957523 42.624902 
L 265.710977 42.84936 
L 262.464432 42.843913 
L 259.217886 42.7193 
L 255.971341 42.798354 
L 252.724795 42.744533 
L 249.47825 42.829938 
L 246.231705 42.600841 
L 242.985159 42.777928 
L 239.738614 42.92479 
L 236.492068 42.941523 
L 233.245523 43.084855 
L 229.998977 43.447848 
L 226.752432 43.858549 
L 223.505886 44.323653 
L 220.259341 44.685325 
L 217.012795 44.989086 
L 213.76625 45.215932 
L 210.519705 45.48016 
L 207.273159 45.890263 
L 204.026614 46.077789 
L 200.780068 46.423518 
L 197.533523 46.272736 
L 194.286977 46.236816 
L 191.040432 46.262291 
L 187.793886 46.462433 
L 184.547341 46.614346 
L 181.300795 46.417509 
L 178.05425 46.27947 
L 174.807705 46.190883 
L 171.561159 46.208317 
L 168.314614 46.270172 
L 165.068068 46.314917 
L 161.821523 46.279771 
L 158.574977 46.282537 
L 155.328432 46.151737 
L 152.081886 46.141926 
L 148.835341 46.001166 
L 145.588795 45.916074 
L 142.34225 46.102534 
L 139.095705 46.172318 
L 135.849159 46.177488 
L 132.602614 46.466953 
L 129.356068 46.733076 
L 126.109523 46.668239 
L 122.862977 46.782276 
L 119.616432 46.878283 
L 116.369886 47.023491 
L 113.123341 47.089203 
L 109.876795 47.3999 
L 106.63025 47.336051 
L 103.383705 47.265962 
L 100.137159 47.294165 
L 96.890614 47.391413 
L 93.644068 47.39266 
L 90.397523 47.332646 
L 87.150977 47.26431 
L 83.904432 47.180872 
L 80.657886 47.167942 
L 77.411341 47.168343 
L 74.164795 47.169813 
L 70.91825 47.172947 
L 67.671705 47.178301 
L 64.425159 47.1864 
L 61.178614 47.197542 
L 57.932068 47.151853 
L 54.685523 46.991778 
L 51.438977 46.829613 
z
" style="fill:#00008b;fill-opacity:0.15;"/>
   </g>
   <g id="PolyCollection_2">
    <path clip-path="url(#p4aef917112)" d="M 51.438977 73.956958 
L 51.438977 126.581386 
L 54.685523 127.125466 
L 57.932068 127.654245 
L 61.178614 128.091829 
L 64.425159 128.699927 
L 67.671705 129.219559 
L 70.91825 129.788924 
L 74.164795 130.537021 
L 77.411341 131.147292 
L 80.657886 131.786536 
L 83.904432 132.523614 
L 87.150977 133.691616 
L 90.397523 134.31414 
L 93.644068 135.178761 
L 96.890614 136.028439 
L 100.137159 136.519763 
L 103.383705 136.968276 
L 106.63025 137.468335 
L 109.876795 138.294426 
L 113.123341 139.153445 
L 116.369886 140.068811 
L 119.616432 141.029585 
L 122.862977 142.052918 
L 126.109523 143.191736 
L 129.356068 143.707808 
L 132.602614 144.723631 
L 135.849159 145.762214 
L 139.095705 146.660424 
L 142.34225 147.402054 
L 145.588795 148.042091 
L 148.835341 149.09253 
L 152.081886 150.832691 
L 155.328432 152.379442 
L 158.574977 153.778578 
L 161.821523 154.528708 
L 165.068068 155.728796 
L 168.314614 156.522054 
L 171.561159 157.579621 
L 174.807705 158.432743 
L 178.05425 159.173132 
L 181.300795 160.071964 
L 184.547341 160.802146 
L 187.793886 161.111366 
L 191.040432 161.783176 
L 194.286977 162.348883 
L 197.533523 163.025684 
L 200.780068 163.864072 
L 204.026614 164.655495 
L 207.273159 165.137558 
L 210.519705 165.493383 
L 213.76625 165.511059 
L 217.012795 165.038483 
L 220.259341 165.147369 
L 223.505886 165.177015 
L 226.752432 164.928383 
L 229.998977 164.673642 
L 233.245523 164.329194 
L 236.492068 164.205856 
L 239.738614 164.130116 
L 242.985159 164.189852 
L 246.231705 164.311182 
L 249.47825 164.588853 
L 252.724795 164.865554 
L 255.971341 165.0718 
L 259.217886 165.459443 
L 262.464432 165.848938 
L 265.710977 166.11254 
L 268.957523 166.041672 
L 272.204068 166.225583 
L 275.450614 166.357974 
L 278.697159 166.460169 
L 281.943705 166.669919 
L 285.19025 166.833313 
L 288.436795 166.938928 
L 291.683341 167.042185 
L 294.929886 167.289255 
L 298.176432 167.479833 
L 301.422977 167.705509 
L 304.669523 168.036709 
L 307.916068 168.358244 
L 311.162614 168.710527 
L 314.409159 168.985492 
L 317.655705 169.410827 
L 320.90225 169.681982 
L 324.148795 169.963639 
L 327.395341 170.294355 
L 330.641886 170.675793 
L 333.888432 170.964446 
L 337.134977 171.253063 
L 340.381523 171.541214 
L 343.628068 171.828507 
L 346.874614 172.114586 
L 350.121159 172.399234 
L 353.367705 172.676419 
L 356.61425 172.933684 
L 359.860795 173.211781 
L 363.107341 173.523207 
L 366.353886 173.955488 
L 369.600432 174.442901 
L 372.846977 174.893214 
L 376.093523 175.350965 
L 376.093523 150.622891 
L 376.093523 150.622891 
L 372.846977 150.677908 
L 369.600432 150.605605 
L 366.353886 150.538619 
L 363.107341 150.482496 
L 359.860795 150.530854 
L 356.61425 150.637808 
L 353.367705 150.782171 
L 350.121159 150.715989 
L 346.874614 150.755903 
L 343.628068 150.828723 
L 340.381523 150.905245 
L 337.134977 150.989101 
L 333.888432 150.872193 
L 330.641886 150.785104 
L 327.395341 150.774698 
L 324.148795 150.596894 
L 320.90225 150.494963 
L 317.655705 150.41182 
L 314.409159 150.42401 
L 311.162614 150.254956 
L 307.916068 150.052367 
L 304.669523 149.702102 
L 301.422977 149.331233 
L 298.176432 148.827754 
L 294.929886 148.078214 
L 291.683341 147.590075 
L 288.436795 146.986563 
L 285.19025 145.511776 
L 281.943705 145.160763 
L 278.697159 145.43706 
L 275.450614 145.61172 
L 272.204068 145.605069 
L 268.957523 145.376917 
L 265.710977 145.444231 
L 262.464432 145.880514 
L 259.217886 146.079054 
L 255.971341 146.347021 
L 252.724795 147.079377 
L 249.47825 147.258546 
L 246.231705 147.39837 
L 242.985159 147.624101 
L 239.738614 147.982887 
L 236.492068 148.111504 
L 233.245523 148.868011 
L 229.998977 149.063072 
L 226.752432 149.348913 
L 223.505886 149.495852 
L 220.259341 149.578237 
L 217.012795 149.49195 
L 213.76625 149.223618 
L 210.519705 149.02638 
L 207.273159 148.155435 
L 204.026614 147.279661 
L 200.780068 146.583169 
L 197.533523 145.784061 
L 194.286977 144.836274 
L 191.040432 144.540395 
L 187.793886 143.729042 
L 184.547341 142.916705 
L 181.300795 142.492935 
L 178.05425 142.156699 
L 174.807705 141.614384 
L 171.561159 140.934893 
L 168.314614 140.378425 
L 165.068068 139.697539 
L 161.821523 138.749344 
L 158.574977 137.47483 
L 155.328432 135.91398 
L 152.081886 134.406902 
L 148.835341 132.968325 
L 145.588795 130.850185 
L 142.34225 129.059984 
L 139.095705 127.078051 
L 135.849159 125.2994 
L 132.602614 123.584321 
L 129.356068 122.155719 
L 126.109523 120.393122 
L 122.862977 118.744089 
L 119.616432 116.944397 
L 116.369886 115.181473 
L 113.123341 113.587428 
L 109.876795 111.879582 
L 106.63025 110.099068 
L 103.383705 108.159573 
L 100.137159 106.25588 
L 96.890614 104.556752 
L 93.644068 102.450379 
L 90.397523 100.356501 
L 87.150977 98.438236 
L 83.904432 96.478581 
L 80.657886 94.376909 
L 77.411341 92.257032 
L 74.164795 90.112702 
L 70.91825 87.837236 
L 67.671705 85.424702 
L 64.425159 82.98434 
L 61.178614 80.635075 
L 57.932068 78.329671 
L 54.685523 76.189243 
L 51.438977 73.956958 
z
" style="fill:#8b0000;fill-opacity:0.15;"/>
   </g>
   <g id="line2d_15">
    <defs>
     <path d="M 0 1.5 
C 0.397805 1.5 0.77937 1.341951 1.06066 1.06066 
C 1.341951 0.77937 1.5 0.397805 1.5 0 
C 1.5 -0.397805 1.341951 -0.77937 1.06066 -1.06066 
C 0.77937 -1.341951 0.397805 -1.5 0 -1.5 
C -0.397805 -1.5 -0.77937 -1.341951 -1.06066 -1.06066 
C -1.341951 -0.77937 -1.5 -0.397805 -1.5 0 
C -1.5 0.397805 -1.341951 0.77937 -1.06066 1.06066 
C -0.77937 1.341951 -0.397805 1.5 0 1.5 
z
" id="ma2c5caa9b2" style="stroke:#000000;stroke-opacity:0;"/>
    </defs>
    <g clip-path="url(#p4aef917112)">
     <use style="fill:#00008b;fill-opacity:0.9;stroke:#000000;stroke-opacity:0;" x="187.869681" xlink:href="#ma2c5caa9b2" y="46.388238"/>
     <use style="fill:#00008b;fill-opacity:0.9;stroke:#000000;stroke-opacity:0;" x="100.70562" xlink:href="#ma2c5caa9b2" y="39.732841"/>
     <use style="fill:#00008b;fill-opacity:0.9;stroke:#000000;stroke-opacity:0;" x="107.021857" xlink:href="#ma2c5caa9b2" y="106.892987"/>
     <use style="fill:#00008b;fill-opacity:0.9;stroke:#000000;stroke-opacity:0;" x="146.182522" xlink:href="#ma2c5caa9b2" y="54.095237"/>
     <use style="fill:#00008b;fill-opacity:0.9;stroke:#000000;stroke-opacity:0;" x="228.293593" xlink:href="#ma2c5caa9b2" y="56.801329"/>
     <use style="fill:#00008b;fill-opacity:0.9;stroke:#000000;stroke-opacity:0;" x="228.293593" xlink:href="#ma2c5caa9b2" y="42.753474"/>
     <use style="fill:#00008b;fill-opacity:0.9;stroke:#000000;stroke-opacity:0;" x="155.025252" xlink:href="#ma2c5caa9b2" y="62.301588"/>
     <use style="fill:#00008b;fill-opacity:0.9;stroke:#000000;stroke-opacity:0;" x="115.864587" xlink:href="#ma2c5caa9b2" y="52.128719"/>
     <use style="fill:#00008b;fill-opacity:0.9;stroke:#000000;stroke-opacity:0;" x="229.556841" xlink:href="#ma2c5caa9b2" y="25.354306"/>
     <use style="fill:#00008b;fill-opacity:0.9;stroke:#000000;stroke-opacity:0;" x="253.558539" xlink:href="#ma2c5caa9b2" y="46.130621"/>
     <use style="fill:#00008b;fill-opacity:0.9;stroke:#000000;stroke-opacity:0;" x="146.182522" xlink:href="#ma2c5caa9b2" y="35.910976"/>
     <use style="fill:#00008b;fill-opacity:0.9;stroke:#000000;stroke-opacity:0;" x="91.86289" xlink:href="#ma2c5caa9b2" y="65.213208"/>
     <use style="fill:#00008b;fill-opacity:0.9;stroke:#000000;stroke-opacity:0;" x="168.920972" xlink:href="#ma2c5caa9b2" y="48.836842"/>
     <use style="fill:#00008b;fill-opacity:0.9;stroke:#000000;stroke-opacity:0;" x="214.397874" xlink:href="#ma2c5caa9b2" y="48.265523"/>
     <use style="fill:#00008b;fill-opacity:0.9;stroke:#000000;stroke-opacity:0;" x="124.707318" xlink:href="#ma2c5caa9b2" y="137.49677"/>
     <use style="fill:#00008b;fill-opacity:0.9;stroke:#000000;stroke-opacity:0;" x="138.603038" xlink:href="#ma2c5caa9b2" y="107.698536"/>
     <use style="fill:#00008b;fill-opacity:0.9;stroke:#000000;stroke-opacity:0;" x="237.136324" xlink:href="#ma2c5caa9b2" y="52.387786"/>
     <use style="fill:#00008b;fill-opacity:0.9;stroke:#000000;stroke-opacity:0;" x="184.079939" xlink:href="#ma2c5caa9b2" y="50.06952"/>
     <use style="fill:#00008b;fill-opacity:0.9;stroke:#000000;stroke-opacity:0;" x="218.187615" xlink:href="#ma2c5caa9b2" y="62.6534"/>
     <use style="fill:#00008b;fill-opacity:0.9;stroke:#000000;stroke-opacity:0;" x="227.030346" xlink:href="#ma2c5caa9b2" y="43.463089"/>
     <use style="fill:#00008b;fill-opacity:0.9;stroke:#000000;stroke-opacity:0;" x="196.712412" xlink:href="#ma2c5caa9b2" y="44.815539"/>
     <use style="fill:#00008b;fill-opacity:0.9;stroke:#000000;stroke-opacity:0;" x="149.972263" xlink:href="#ma2c5caa9b2" y="40.70977"/>
     <use style="fill:#00008b;fill-opacity:0.9;stroke:#000000;stroke-opacity:0;" x="170.18422" xlink:href="#ma2c5caa9b2" y="35.371323"/>
     <use style="fill:#00008b;fill-opacity:0.9;stroke:#000000;stroke-opacity:0;" x="271.244" xlink:href="#ma2c5caa9b2" y="55.603765"/>
     <use style="fill:#00008b;fill-opacity:0.9;stroke:#000000;stroke-opacity:0;" x="168.920972" xlink:href="#ma2c5caa9b2" y="46.168215"/>
     <use style="fill:#00008b;fill-opacity:0.9;stroke:#000000;stroke-opacity:0;" x="234.60983" xlink:href="#ma2c5caa9b2" y="60.398725"/>
     <use style="fill:#00008b;fill-opacity:0.9;stroke:#000000;stroke-opacity:0;" x="194.185917" xlink:href="#ma2c5caa9b2" y="50.839891"/>
     <use style="fill:#00008b;fill-opacity:0.9;stroke:#000000;stroke-opacity:0;" x="248.50555" xlink:href="#ma2c5caa9b2" y="19.296"/>
     <use style="fill:#00008b;fill-opacity:0.9;stroke:#000000;stroke-opacity:0;" x="376.093523" xlink:href="#ma2c5caa9b2" y="26.542947"/>
     <use style="fill:#00008b;fill-opacity:0.9;stroke:#000000;stroke-opacity:0;" x="263.664517" xlink:href="#ma2c5caa9b2" y="53.712177"/>
     <use style="fill:#00008b;fill-opacity:0.9;stroke:#000000;stroke-opacity:0;" x="286.402967" xlink:href="#ma2c5caa9b2" y="55.903196"/>
     <use style="fill:#00008b;fill-opacity:0.9;stroke:#000000;stroke-opacity:0;" x="191.659423" xlink:href="#ma2c5caa9b2" y="117.103644"/>
     <use style="fill:#00008b;fill-opacity:0.9;stroke:#000000;stroke-opacity:0;" x="144.919274" xlink:href="#ma2c5caa9b2" y="49.95226"/>
     <use style="fill:#00008b;fill-opacity:0.9;stroke:#000000;stroke-opacity:0;" x="171.447467" xlink:href="#ma2c5caa9b2" y="38.582567"/>
     <use style="fill:#00008b;fill-opacity:0.9;stroke:#000000;stroke-opacity:0;" x="151.235511" xlink:href="#ma2c5caa9b2" y="37.143428"/>
     <use style="fill:#00008b;fill-opacity:0.9;stroke:#000000;stroke-opacity:0;" x="141.129533" xlink:href="#ma2c5caa9b2" y="86.499828"/>
     <use style="fill:#00008b;fill-opacity:0.9;stroke:#000000;stroke-opacity:0;" x="162.604736" xlink:href="#ma2c5caa9b2" y="61.759197"/>
     <use style="fill:#00008b;fill-opacity:0.9;stroke:#000000;stroke-opacity:0;" x="321.773891" xlink:href="#ma2c5caa9b2" y="67.93312"/>
     <use style="fill:#00008b;fill-opacity:0.9;stroke:#000000;stroke-opacity:0;" x="219.450863" xlink:href="#ma2c5caa9b2" y="52.765884"/>
     <use style="fill:#00008b;fill-opacity:0.9;stroke:#000000;stroke-opacity:0;" x="148.709016" xlink:href="#ma2c5caa9b2" y="74.876094"/>
     <use style="fill:#00008b;fill-opacity:0.9;stroke:#000000;stroke-opacity:0;" x="252.295291" xlink:href="#ma2c5caa9b2" y="22.232457"/>
     <use style="fill:#00008b;fill-opacity:0.9;stroke:#000000;stroke-opacity:0;" x="194.185917" xlink:href="#ma2c5caa9b2" y="49.349951"/>
     <use style="fill:#00008b;fill-opacity:0.9;stroke:#000000;stroke-opacity:0;" x="237.136324" xlink:href="#ma2c5caa9b2" y="25.653125"/>
     <use style="fill:#00008b;fill-opacity:0.9;stroke:#000000;stroke-opacity:0;" x="234.60983" xlink:href="#ma2c5caa9b2" y="61.196511"/>
     <use style="fill:#00008b;fill-opacity:0.9;stroke:#000000;stroke-opacity:0;" x="187.869681" xlink:href="#ma2c5caa9b2" y="66.341544"/>
     <use style="fill:#00008b;fill-opacity:0.9;stroke:#000000;stroke-opacity:0;" x="184.079939" xlink:href="#ma2c5caa9b2" y="86.775067"/>
     <use style="fill:#00008b;fill-opacity:0.9;stroke:#000000;stroke-opacity:0;" x="146.182522" xlink:href="#ma2c5caa9b2" y="56.336993"/>
     <use style="fill:#00008b;fill-opacity:0.9;stroke:#000000;stroke-opacity:0;" x="185.343187" xlink:href="#ma2c5caa9b2" y="64.373479"/>
     <use style="fill:#00008b;fill-opacity:0.9;stroke:#000000;stroke-opacity:0;" x="239.662819" xlink:href="#ma2c5caa9b2" y="44.275081"/>
     <use style="fill:#00008b;fill-opacity:0.9;stroke:#000000;stroke-opacity:0;" x="51.438977" xlink:href="#ma2c5caa9b2" y="98.619243"/>
     <use style="fill:#00008b;fill-opacity:0.9;stroke:#000000;stroke-opacity:0;" x="238.399572" xlink:href="#ma2c5caa9b2" y="111.674578"/>
     <use style="fill:#00008b;fill-opacity:0.9;stroke:#000000;stroke-opacity:0;" x="262.401269" xlink:href="#ma2c5caa9b2" y="39.578632"/>
     <use style="fill:#00008b;fill-opacity:0.9;stroke:#000000;stroke-opacity:0;" x="290.192709" xlink:href="#ma2c5caa9b2" y="54.980581"/>
     <use style="fill:#00008b;fill-opacity:0.9;stroke:#000000;stroke-opacity:0;" x="376.093523" xlink:href="#ma2c5caa9b2" y="46.216665"/>
     <use style="fill:#00008b;fill-opacity:0.9;stroke:#000000;stroke-opacity:0;" x="65.334697" xlink:href="#ma2c5caa9b2" y="62.494745"/>
     <use style="fill:#00008b;fill-opacity:0.9;stroke:#000000;stroke-opacity:0;" x="277.560237" xlink:href="#ma2c5caa9b2" y="35.598208"/>
     <use style="fill:#00008b;fill-opacity:0.9;stroke:#000000;stroke-opacity:0;" x="205.555143" xlink:href="#ma2c5caa9b2" y="28.798813"/>
     <use style="fill:#00008b;fill-opacity:0.9;stroke:#000000;stroke-opacity:0;" x="225.767099" xlink:href="#ma2c5caa9b2" y="44.754268"/>
     <use style="fill:#00008b;fill-opacity:0.9;stroke:#000000;stroke-opacity:0;" x="177.763703" xlink:href="#ma2c5caa9b2" y="52.259154"/>
     <use style="fill:#00008b;fill-opacity:0.9;stroke:#000000;stroke-opacity:0;" x="66.597944" xlink:href="#ma2c5caa9b2" y="89.094427"/>
     <use style="fill:#00008b;fill-opacity:0.9;stroke:#000000;stroke-opacity:0;" x="211.871379" xlink:href="#ma2c5caa9b2" y="51.81012"/>
     <use style="fill:#00008b;fill-opacity:0.9;stroke:#000000;stroke-opacity:0;" x="155.025252" xlink:href="#ma2c5caa9b2" y="36.344612"/>
     <use style="fill:#00008b;fill-opacity:0.9;stroke:#000000;stroke-opacity:0;" x="292.719204" xlink:href="#ma2c5caa9b2" y="33.98144"/>
     <use style="fill:#00008b;fill-opacity:0.9;stroke:#000000;stroke-opacity:0;" x="261.138022" xlink:href="#ma2c5caa9b2" y="51.630429"/>
     <use style="fill:#00008b;fill-opacity:0.9;stroke:#000000;stroke-opacity:0;" x="239.662819" xlink:href="#ma2c5caa9b2" y="53.038739"/>
     <use style="fill:#00008b;fill-opacity:0.9;stroke:#000000;stroke-opacity:0;" x="341.985847" xlink:href="#ma2c5caa9b2" y="30.288464"/>
     <use style="fill:#00008b;fill-opacity:0.9;stroke:#000000;stroke-opacity:0;" x="293.982451" xlink:href="#ma2c5caa9b2" y="78.074806"/>
     <use style="fill:#00008b;fill-opacity:0.9;stroke:#000000;stroke-opacity:0;" x="194.185917" xlink:href="#ma2c5caa9b2" y="41.239598"/>
     <use style="fill:#00008b;fill-opacity:0.9;stroke:#000000;stroke-opacity:0;" x="103.232115" xlink:href="#ma2c5caa9b2" y="30.24243"/>
     <use style="fill:#00008b;fill-opacity:0.9;stroke:#000000;stroke-opacity:0;" x="189.132928" xlink:href="#ma2c5caa9b2" y="56.331452"/>
     <use style="fill:#00008b;fill-opacity:0.9;stroke:#000000;stroke-opacity:0;" x="118.391082" xlink:href="#ma2c5caa9b2" y="72.754077"/>
     <use style="fill:#00008b;fill-opacity:0.9;stroke:#000000;stroke-opacity:0;" x="259.874775" xlink:href="#ma2c5caa9b2" y="55.141781"/>
     <use style="fill:#00008b;fill-opacity:0.9;stroke:#000000;stroke-opacity:0;" x="237.136324" xlink:href="#ma2c5caa9b2" y="56.306551"/>
     <use style="fill:#00008b;fill-opacity:0.9;stroke:#000000;stroke-opacity:0;" x="197.975659" xlink:href="#ma2c5caa9b2" y="108.191092"/>
    </g>
   </g>
   <g id="line2d_16">
    <path clip-path="url(#p4aef917112)" d="M 51.438977 77.216799 
L 54.685523 76.399725 
L 57.932068 75.588388 
L 61.178614 74.782491 
L 64.425159 73.981711 
L 67.671705 73.185715 
L 70.91825 72.394135 
L 74.164795 71.606337 
L 77.411341 70.821589 
L 80.657886 70.039085 
L 83.904432 69.257935 
L 87.150977 68.477157 
L 90.397523 67.695665 
L 93.644068 66.912258 
L 96.890614 66.125642 
L 100.137159 65.334409 
L 103.383705 64.537042 
L 106.63025 63.732516 
L 109.876795 62.920427 
L 113.123341 62.100086 
L 116.369886 61.270784 
L 119.616432 60.432449 
L 122.862977 59.586399 
L 126.109523 58.7359 
L 129.356068 57.886872 
L 132.602614 57.056338 
L 135.849159 56.276791 
L 139.095705 55.584747 
L 142.34225 54.998749 
L 145.588795 54.506252 
L 148.835341 54.096101 
L 152.081886 53.737233 
L 155.328432 53.38649 
L 158.574977 53.030881 
L 161.821523 52.661205 
L 165.068068 52.273702 
L 168.314614 51.878914 
L 171.561159 51.520757 
L 174.807705 51.209758 
L 178.05425 50.942895 
L 181.300795 50.702887 
L 184.547341 50.499784 
L 187.793886 50.352116 
L 191.040432 50.24377 
L 194.286977 50.143723 
L 197.533523 50.056851 
L 200.780068 49.964493 
L 204.026614 49.82566 
L 207.273159 49.61564 
L 210.519705 49.353562 
L 213.76625 49.09515 
L 217.012795 48.85077 
L 220.259341 48.619363 
L 223.505886 48.399667 
L 226.752432 48.206925 
L 229.998977 48.045822 
L 233.245523 47.938368 
L 236.492068 47.893381 
L 239.738614 47.889961 
L 242.985159 47.925586 
L 246.231705 48.002095 
L 249.47825 48.11079 
L 252.724795 48.245968 
L 255.971341 48.407755 
L 259.217886 48.586944 
L 262.464432 48.754385 
L 265.710977 48.896266 
L 268.957523 49.001316 
L 272.204068 49.065845 
L 275.450614 49.094902 
L 278.697159 49.066671 
L 281.943705 48.96113 
L 285.19025 48.763792 
L 288.436795 48.489554 
L 291.683341 48.179577 
L 294.929886 47.869696 
L 298.176432 47.581 
L 301.422977 47.319133 
L 304.669523 47.08227 
L 307.916068 46.866537 
L 311.162614 46.668066 
L 314.409159 46.483549 
L 317.655705 46.310284 
L 320.90225 46.146083 
L 324.148795 45.989124 
L 327.395341 45.8375 
L 330.641886 45.689397 
L 333.888432 45.543266 
L 337.134977 45.397769 
L 340.381523 45.251741 
L 343.628068 45.104169 
L 346.874614 44.954375 
L 350.121159 44.801966 
L 353.367705 44.646612 
L 356.61425 44.488023 
L 359.860795 44.325952 
L 363.107341 44.160185 
L 366.353886 43.990542 
L 369.600432 43.816872 
L 372.846977 43.639049 
L 376.093523 43.456973 
" style="fill:none;stroke:#00008b;stroke-linecap:round;stroke-opacity:0.5;stroke-width:1.5;"/>
   </g>
   <g id="line2d_17">
    <defs>
     <path d="M 0 1.5 
C 0.397805 1.5 0.77937 1.341951 1.06066 1.06066 
C 1.341951 0.77937 1.5 0.397805 1.5 0 
C 1.5 -0.397805 1.341951 -0.77937 1.06066 -1.06066 
C 0.77937 -1.341951 0.397805 -1.5 0 -1.5 
C -0.397805 -1.5 -0.77937 -1.341951 -1.06066 -1.06066 
C -1.341951 -0.77937 -1.5 -0.397805 -1.5 0 
C -1.5 0.397805 -1.341951 0.77937 -1.06066 1.06066 
C -0.77937 1.341951 -0.397805 1.5 0 1.5 
z
" id="mf11fb33e89" style="stroke:#000000;stroke-opacity:0;"/>
    </defs>
    <g clip-path="url(#p4aef917112)">
     <use style="fill:#8b0000;fill-opacity:0.9;stroke:#000000;stroke-opacity:0;" x="187.869681" xlink:href="#mf11fb33e89" y="91.187644"/>
     <use style="fill:#8b0000;fill-opacity:0.9;stroke:#000000;stroke-opacity:0;" x="100.70562" xlink:href="#mf11fb33e89" y="88.695905"/>
     <use style="fill:#8b0000;fill-opacity:0.9;stroke:#000000;stroke-opacity:0;" x="107.021857" xlink:href="#mf11fb33e89" y="137.462301"/>
     <use style="fill:#8b0000;fill-opacity:0.9;stroke:#000000;stroke-opacity:0;" x="146.182522" xlink:href="#mf11fb33e89" y="123.381522"/>
     <use style="fill:#8b0000;fill-opacity:0.9;stroke:#000000;stroke-opacity:0;" x="228.293593" xlink:href="#mf11fb33e89" y="158.990238"/>
     <use style="fill:#8b0000;fill-opacity:0.9;stroke:#000000;stroke-opacity:0;" x="228.293593" xlink:href="#mf11fb33e89" y="179.72374"/>
     <use style="fill:#8b0000;fill-opacity:0.9;stroke:#000000;stroke-opacity:0;" x="155.025252" xlink:href="#mf11fb33e89" y="153.510274"/>
     <use style="fill:#8b0000;fill-opacity:0.9;stroke:#000000;stroke-opacity:0;" x="115.864587" xlink:href="#mf11fb33e89" y="124.821466"/>
     <use style="fill:#8b0000;fill-opacity:0.9;stroke:#000000;stroke-opacity:0;" x="229.556841" xlink:href="#mf11fb33e89" y="176.445265"/>
     <use style="fill:#8b0000;fill-opacity:0.9;stroke:#000000;stroke-opacity:0;" x="253.558539" xlink:href="#mf11fb33e89" y="175.662717"/>
     <use style="fill:#8b0000;fill-opacity:0.9;stroke:#000000;stroke-opacity:0;" x="146.182522" xlink:href="#mf11fb33e89" y="126.463619"/>
     <use style="fill:#8b0000;fill-opacity:0.9;stroke:#000000;stroke-opacity:0;" x="91.86289" xlink:href="#mf11fb33e89" y="84.408866"/>
     <use style="fill:#8b0000;fill-opacity:0.9;stroke:#000000;stroke-opacity:0;" x="168.920972" xlink:href="#mf11fb33e89" y="150.249162"/>
     <use style="fill:#8b0000;fill-opacity:0.9;stroke:#000000;stroke-opacity:0;" x="214.397874" xlink:href="#mf11fb33e89" y="140.446563"/>
     <use style="fill:#8b0000;fill-opacity:0.9;stroke:#000000;stroke-opacity:0;" x="124.707318" xlink:href="#mf11fb33e89" y="222.935113"/>
     <use style="fill:#8b0000;fill-opacity:0.9;stroke:#000000;stroke-opacity:0;" x="138.603038" xlink:href="#mf11fb33e89" y="207.482781"/>
     <use style="fill:#8b0000;fill-opacity:0.9;stroke:#000000;stroke-opacity:0;" x="237.136324" xlink:href="#mf11fb33e89" y="159.205687"/>
     <use style="fill:#8b0000;fill-opacity:0.9;stroke:#000000;stroke-opacity:0;" x="184.079939" xlink:href="#mf11fb33e89" y="202.556676"/>
     <use style="fill:#8b0000;fill-opacity:0.9;stroke:#000000;stroke-opacity:0;" x="218.187615" xlink:href="#mf11fb33e89" y="154.526923"/>
     <use style="fill:#8b0000;fill-opacity:0.9;stroke:#000000;stroke-opacity:0;" x="227.030346" xlink:href="#mf11fb33e89" y="160.351773"/>
     <use style="fill:#8b0000;fill-opacity:0.9;stroke:#000000;stroke-opacity:0;" x="196.712412" xlink:href="#mf11fb33e89" y="147.747179"/>
     <use style="fill:#8b0000;fill-opacity:0.9;stroke:#000000;stroke-opacity:0;" x="149.972263" xlink:href="#mf11fb33e89" y="129.090948"/>
     <use style="fill:#8b0000;fill-opacity:0.9;stroke:#000000;stroke-opacity:0;" x="170.18422" xlink:href="#mf11fb33e89" y="149.99074"/>
     <use style="fill:#8b0000;fill-opacity:0.9;stroke:#000000;stroke-opacity:0;" x="271.244" xlink:href="#mf11fb33e89" y="157.489055"/>
     <use style="fill:#8b0000;fill-opacity:0.9;stroke:#000000;stroke-opacity:0;" x="168.920972" xlink:href="#mf11fb33e89" y="127.265142"/>
     <use style="fill:#8b0000;fill-opacity:0.9;stroke:#000000;stroke-opacity:0;" x="234.60983" xlink:href="#mf11fb33e89" y="170.789379"/>
     <use style="fill:#8b0000;fill-opacity:0.9;stroke:#000000;stroke-opacity:0;" x="194.185917" xlink:href="#mf11fb33e89" y="176.554826"/>
     <use style="fill:#8b0000;fill-opacity:0.9;stroke:#000000;stroke-opacity:0;" x="248.50555" xlink:href="#mf11fb33e89" y="130.595804"/>
     <use style="fill:#8b0000;fill-opacity:0.9;stroke:#000000;stroke-opacity:0;" x="376.093523" xlink:href="#mf11fb33e89" y="172.461685"/>
     <use style="fill:#8b0000;fill-opacity:0.9;stroke:#000000;stroke-opacity:0;" x="263.664517" xlink:href="#mf11fb33e89" y="160.60604"/>
     <use style="fill:#8b0000;fill-opacity:0.9;stroke:#000000;stroke-opacity:0;" x="286.402967" xlink:href="#mf11fb33e89" y="174.723317"/>
     <use style="fill:#8b0000;fill-opacity:0.9;stroke:#000000;stroke-opacity:0;" x="191.659423" xlink:href="#mf11fb33e89" y="194.104401"/>
     <use style="fill:#8b0000;fill-opacity:0.9;stroke:#000000;stroke-opacity:0;" x="144.919274" xlink:href="#mf11fb33e89" y="149.4603"/>
     <use style="fill:#8b0000;fill-opacity:0.9;stroke:#000000;stroke-opacity:0;" x="171.447467" xlink:href="#mf11fb33e89" y="140.552741"/>
     <use style="fill:#8b0000;fill-opacity:0.9;stroke:#000000;stroke-opacity:0;" x="151.235511" xlink:href="#mf11fb33e89" y="159.11436"/>
     <use style="fill:#8b0000;fill-opacity:0.9;stroke:#000000;stroke-opacity:0;" x="141.129533" xlink:href="#mf11fb33e89" y="125.704265"/>
     <use style="fill:#8b0000;fill-opacity:0.9;stroke:#000000;stroke-opacity:0;" x="162.604736" xlink:href="#mf11fb33e89" y="145.002365"/>
     <use style="fill:#8b0000;fill-opacity:0.9;stroke:#000000;stroke-opacity:0;" x="321.773891" xlink:href="#mf11fb33e89" y="168.900336"/>
     <use style="fill:#8b0000;fill-opacity:0.9;stroke:#000000;stroke-opacity:0;" x="219.450863" xlink:href="#mf11fb33e89" y="130.695861"/>
     <use style="fill:#8b0000;fill-opacity:0.9;stroke:#000000;stroke-opacity:0;" x="124.707318" xlink:href="#mf11fb33e89" y="177.568414"/>
     <use style="fill:#8b0000;fill-opacity:0.9;stroke:#000000;stroke-opacity:0;" x="203.028648" xlink:href="#mf11fb33e89" y="186.450008"/>
     <use style="fill:#8b0000;fill-opacity:0.9;stroke:#000000;stroke-opacity:0;" x="252.295291" xlink:href="#mf11fb33e89" y="159.91047"/>
     <use style="fill:#8b0000;fill-opacity:0.9;stroke:#000000;stroke-opacity:0;" x="194.185917" xlink:href="#mf11fb33e89" y="185.69204"/>
     <use style="fill:#8b0000;fill-opacity:0.9;stroke:#000000;stroke-opacity:0;" x="237.136324" xlink:href="#mf11fb33e89" y="161.97537"/>
     <use style="fill:#8b0000;fill-opacity:0.9;stroke:#000000;stroke-opacity:0;" x="234.60983" xlink:href="#mf11fb33e89" y="190.88913"/>
     <use style="fill:#8b0000;fill-opacity:0.9;stroke:#000000;stroke-opacity:0;" x="187.869681" xlink:href="#mf11fb33e89" y="115.788433"/>
     <use style="fill:#8b0000;fill-opacity:0.9;stroke:#000000;stroke-opacity:0;" x="184.079939" xlink:href="#mf11fb33e89" y="162.516666"/>
     <use style="fill:#8b0000;fill-opacity:0.9;stroke:#000000;stroke-opacity:0;" x="129.760307" xlink:href="#mf11fb33e89" y="136.996547"/>
     <use style="fill:#8b0000;fill-opacity:0.9;stroke:#000000;stroke-opacity:0;" x="146.182522" xlink:href="#mf11fb33e89" y="164.902002"/>
     <use style="fill:#8b0000;fill-opacity:0.9;stroke:#000000;stroke-opacity:0;" x="185.343187" xlink:href="#mf11fb33e89" y="160.282512"/>
     <use style="fill:#8b0000;fill-opacity:0.9;stroke:#000000;stroke-opacity:0;" x="239.662819" xlink:href="#mf11fb33e89" y="157.614497"/>
     <use style="fill:#8b0000;fill-opacity:0.9;stroke:#000000;stroke-opacity:0;" x="51.438977" xlink:href="#mf11fb33e89" y="114.680038"/>
     <use style="fill:#8b0000;fill-opacity:0.9;stroke:#000000;stroke-opacity:0;" x="238.399572" xlink:href="#mf11fb33e89" y="192.342669"/>
     <use style="fill:#8b0000;fill-opacity:0.9;stroke:#000000;stroke-opacity:0;" x="262.401269" xlink:href="#mf11fb33e89" y="111.202317"/>
     <use style="fill:#8b0000;fill-opacity:0.9;stroke:#000000;stroke-opacity:0;" x="290.192709" xlink:href="#mf11fb33e89" y="151.962058"/>
     <use style="fill:#8b0000;fill-opacity:0.9;stroke:#000000;stroke-opacity:0;" x="376.093523" xlink:href="#mf11fb33e89" y="167.59843"/>
     <use style="fill:#8b0000;fill-opacity:0.9;stroke:#000000;stroke-opacity:0;" x="65.334697" xlink:href="#mf11fb33e89" y="107.878839"/>
     <use style="fill:#8b0000;fill-opacity:0.9;stroke:#000000;stroke-opacity:0;" x="277.560237" xlink:href="#mf11fb33e89" y="103.518416"/>
     <use style="fill:#8b0000;fill-opacity:0.9;stroke:#000000;stroke-opacity:0;" x="205.555143" xlink:href="#mf11fb33e89" y="120.674785"/>
     <use style="fill:#8b0000;fill-opacity:0.9;stroke:#000000;stroke-opacity:0;" x="225.767099" xlink:href="#mf11fb33e89" y="135.700762"/>
     <use style="fill:#8b0000;fill-opacity:0.9;stroke:#000000;stroke-opacity:0;" x="177.763703" xlink:href="#mf11fb33e89" y="126.770782"/>
     <use style="fill:#8b0000;fill-opacity:0.9;stroke:#000000;stroke-opacity:0;" x="66.597944" xlink:href="#mf11fb33e89" y="140.281691"/>
     <use style="fill:#8b0000;fill-opacity:0.9;stroke:#000000;stroke-opacity:0;" x="211.871379" xlink:href="#mf11fb33e89" y="131.994224"/>
     <use style="fill:#8b0000;fill-opacity:0.9;stroke:#000000;stroke-opacity:0;" x="155.025252" xlink:href="#mf11fb33e89" y="146.605507"/>
     <use style="fill:#8b0000;fill-opacity:0.9;stroke:#000000;stroke-opacity:0;" x="292.719204" xlink:href="#mf11fb33e89" y="153.835219"/>
     <use style="fill:#8b0000;fill-opacity:0.9;stroke:#000000;stroke-opacity:0;" x="261.138022" xlink:href="#mf11fb33e89" y="128.062251"/>
     <use style="fill:#8b0000;fill-opacity:0.9;stroke:#000000;stroke-opacity:0;" x="239.662819" xlink:href="#mf11fb33e89" y="166.668308"/>
     <use style="fill:#8b0000;fill-opacity:0.9;stroke:#000000;stroke-opacity:0;" x="168.920972" xlink:href="#mf11fb33e89" y="133.90717"/>
     <use style="fill:#8b0000;fill-opacity:0.9;stroke:#000000;stroke-opacity:0;" x="148.709016" xlink:href="#mf11fb33e89" y="261.216"/>
     <use style="fill:#8b0000;fill-opacity:0.9;stroke:#000000;stroke-opacity:0;" x="341.985847" xlink:href="#mf11fb33e89" y="152.319894"/>
     <use style="fill:#8b0000;fill-opacity:0.9;stroke:#000000;stroke-opacity:0;" x="293.982451" xlink:href="#mf11fb33e89" y="187.981602"/>
     <use style="fill:#8b0000;fill-opacity:0.9;stroke:#000000;stroke-opacity:0;" x="194.185917" xlink:href="#mf11fb33e89" y="165.570576"/>
     <use style="fill:#8b0000;fill-opacity:0.9;stroke:#000000;stroke-opacity:0;" x="103.232115" xlink:href="#mf11fb33e89" y="89.57007"/>
     <use style="fill:#8b0000;fill-opacity:0.9;stroke:#000000;stroke-opacity:0;" x="189.132928" xlink:href="#mf11fb33e89" y="165.690445"/>
     <use style="fill:#8b0000;fill-opacity:0.9;stroke:#000000;stroke-opacity:0;" x="118.391082" xlink:href="#mf11fb33e89" y="127.457589"/>
     <use style="fill:#8b0000;fill-opacity:0.9;stroke:#000000;stroke-opacity:0;" x="259.874775" xlink:href="#mf11fb33e89" y="138.90727"/>
     <use style="fill:#8b0000;fill-opacity:0.9;stroke:#000000;stroke-opacity:0;" x="237.136324" xlink:href="#mf11fb33e89" y="153.662486"/>
     <use style="fill:#8b0000;fill-opacity:0.9;stroke:#000000;stroke-opacity:0;" x="197.975659" xlink:href="#mf11fb33e89" y="168.461063"/>
    </g>
   </g>
   <g id="line2d_18">
    <path clip-path="url(#p4aef917112)" d="M 51.438977 103.841737 
L 54.685523 105.02631 
L 57.932068 106.217442 
L 61.178614 107.414896 
L 64.425159 108.618395 
L 67.671705 109.827616 
L 70.91825 111.041743 
L 74.164795 112.259178 
L 77.411341 113.47812 
L 80.657886 114.696612 
L 83.904432 115.912525 
L 87.150977 117.123538 
L 90.397523 118.327111 
L 93.644068 119.520482 
L 96.890614 120.701245 
L 100.137159 121.867328 
L 103.383705 123.01656 
L 106.63025 124.147636 
L 109.876795 125.26051 
L 113.123341 126.355355 
L 116.369886 127.433348 
L 119.616432 128.498972 
L 122.862977 129.5636 
L 126.109523 130.646669 
L 129.356068 131.76113 
L 132.602614 132.934675 
L 135.849159 134.200526 
L 139.095705 135.591736 
L 142.34225 137.090494 
L 145.588795 138.667787 
L 148.835341 140.289425 
L 152.081886 141.881314 
L 155.328432 143.451783 
L 158.574977 144.904663 
L 161.821523 146.181109 
L 165.068068 147.257973 
L 168.314614 148.181208 
L 171.561159 148.988433 
L 174.807705 149.759074 
L 178.05425 150.488688 
L 181.300795 151.203707 
L 184.547341 151.878761 
L 187.793886 152.592046 
L 191.040432 153.306043 
L 194.286977 154.026352 
L 197.533523 154.834159 
L 200.780068 155.65029 
L 204.026614 156.447119 
L 207.273159 157.104881 
L 210.519705 157.553155 
L 213.76625 157.825452 
L 217.012795 157.899307 
L 220.259341 157.896356 
L 223.505886 157.814918 
L 226.752432 157.633019 
L 229.998977 157.38479 
L 233.245523 157.111685 
L 236.492068 156.914892 
L 239.738614 156.807206 
L 242.985159 156.753764 
L 246.231705 156.752481 
L 249.47825 156.783771 
L 252.724795 156.847427 
L 255.971341 156.940378 
L 259.217886 157.040913 
L 262.464432 157.131883 
L 265.710977 157.195307 
L 268.957523 157.230031 
L 272.204068 157.26504 
L 275.450614 157.312129 
L 278.697159 157.400702 
L 281.943705 157.545535 
L 285.19025 157.759468 
L 288.436795 158.044353 
L 291.683341 158.363604 
L 294.929886 158.686393 
L 298.176432 158.997739 
L 301.422977 159.294263 
L 304.669523 159.577532 
L 307.916068 159.85034 
L 311.162614 160.115377 
L 314.409159 160.374884 
L 317.655705 160.630634 
L 320.90225 160.884006 
L 324.148795 161.136039 
L 327.395341 161.387362 
L 330.641886 161.638351 
L 333.888432 161.889273 
L 337.134977 162.140313 
L 340.381523 162.391586 
L 343.628068 162.643166 
L 346.874614 162.895244 
L 350.121159 163.148122 
L 353.367705 163.402066 
L 356.61425 163.657303 
L 359.860795 163.914028 
L 363.107341 164.172411 
L 366.353886 164.432598 
L 369.600432 164.694714 
L 372.846977 164.958867 
L 376.093523 165.22515 
" style="fill:none;stroke:#8b0000;stroke-linecap:round;stroke-opacity:0.5;stroke-width:1.5;"/>
   </g>
   <g id="legend_1">
    <g id="patch_3">
     <path d="M 42.20625 268.312 
L 121.996875 268.312 
Q 123.996875 268.312 123.996875 266.312 
L 123.996875 239.021375 
Q 123.996875 237.021375 121.996875 237.021375 
L 42.20625 237.021375 
Q 40.20625 237.021375 40.20625 239.021375 
L 40.20625 266.312 
Q 40.20625 268.312 42.20625 268.312 
z
" style="fill:#ffffff;opacity:0.8;stroke:#cccccc;stroke-linejoin:miter;"/>
    </g>
    <g id="line2d_19"/>
    <g id="line2d_20">
     <g>
      <use style="fill:#00008b;fill-opacity:0.9;stroke:#000000;stroke-opacity:0;" x="54.20625" xlink:href="#ma2c5caa9b2" y="244.679187"/>
     </g>
    </g>
    <g id="text_17">
     <!-- non-STEM -->
     <g style="fill:#262626;" transform="translate(72.20625 248.179187)scale(0.1 -0.1)">
      <defs>
       <path d="M 422 0 
L 422 3319 
L 928 3319 
L 928 2847 
Q 1294 3394 1984 3394 
Q 2284 3394 2536 3286 
Q 2788 3178 2913 3003 
Q 3038 2828 3088 2588 
Q 3119 2431 3119 2041 
L 3119 0 
L 2556 0 
L 2556 2019 
Q 2556 2363 2490 2533 
Q 2425 2703 2258 2804 
Q 2091 2906 1866 2906 
Q 1506 2906 1245 2678 
Q 984 2450 984 1813 
L 984 0 
L 422 0 
z
" id="ArialMT-6e" transform="scale(0.015625)"/>
       <path d="M 203 1375 
L 203 1941 
L 1931 1941 
L 1931 1375 
L 203 1375 
z
" id="ArialMT-2d" transform="scale(0.015625)"/>
       <path d="M 288 1472 
L 859 1522 
Q 900 1178 1048 958 
Q 1197 738 1509 602 
Q 1822 466 2213 466 
Q 2559 466 2825 569 
Q 3091 672 3220 851 
Q 3350 1031 3350 1244 
Q 3350 1459 3225 1620 
Q 3100 1781 2813 1891 
Q 2628 1963 1997 2114 
Q 1366 2266 1113 2400 
Q 784 2572 623 2826 
Q 463 3081 463 3397 
Q 463 3744 659 4045 
Q 856 4347 1234 4503 
Q 1613 4659 2075 4659 
Q 2584 4659 2973 4495 
Q 3363 4331 3572 4012 
Q 3781 3694 3797 3291 
L 3216 3247 
Q 3169 3681 2898 3903 
Q 2628 4125 2100 4125 
Q 1550 4125 1298 3923 
Q 1047 3722 1047 3438 
Q 1047 3191 1225 3031 
Q 1400 2872 2139 2705 
Q 2878 2538 3153 2413 
Q 3553 2228 3743 1945 
Q 3934 1663 3934 1294 
Q 3934 928 3725 604 
Q 3516 281 3123 101 
Q 2731 -78 2241 -78 
Q 1619 -78 1198 103 
Q 778 284 539 648 
Q 300 1013 288 1472 
z
" id="ArialMT-53" transform="scale(0.015625)"/>
       <path d="M 1659 0 
L 1659 4041 
L 150 4041 
L 150 4581 
L 3781 4581 
L 3781 4041 
L 2266 4041 
L 2266 0 
L 1659 0 
z
" id="ArialMT-54" transform="scale(0.015625)"/>
       <path d="M 506 0 
L 506 4581 
L 3819 4581 
L 3819 4041 
L 1113 4041 
L 1113 2638 
L 3647 2638 
L 3647 2100 
L 1113 2100 
L 1113 541 
L 3925 541 
L 3925 0 
L 506 0 
z
" id="ArialMT-45" transform="scale(0.015625)"/>
       <path d="M 475 0 
L 475 4581 
L 1388 4581 
L 2472 1338 
Q 2622 884 2691 659 
Q 2769 909 2934 1394 
L 4031 4581 
L 4847 4581 
L 4847 0 
L 4263 0 
L 4263 3834 
L 2931 0 
L 2384 0 
L 1059 3900 
L 1059 0 
L 475 0 
z
" id="ArialMT-4d" transform="scale(0.015625)"/>
      </defs>
      <use xlink:href="#ArialMT-6e"/>
      <use x="55.615234" xlink:href="#ArialMT-6f"/>
      <use x="111.230469" xlink:href="#ArialMT-6e"/>
      <use x="166.845703" xlink:href="#ArialMT-2d"/>
      <use x="200.146484" xlink:href="#ArialMT-53"/>
      <use x="266.845703" xlink:href="#ArialMT-54"/>
      <use x="327.929688" xlink:href="#ArialMT-45"/>
      <use x="394.628906" xlink:href="#ArialMT-4d"/>
     </g>
    </g>
    <g id="line2d_21"/>
    <g id="line2d_22">
     <g>
      <use style="fill:#8b0000;fill-opacity:0.9;stroke:#000000;stroke-opacity:0;" x="54.20625" xlink:href="#mf11fb33e89" y="258.8245"/>
     </g>
    </g>
    <g id="text_18">
     <!-- STEM -->
     <g style="fill:#262626;" transform="translate(72.20625 262.3245)scale(0.1 -0.1)">
      <use xlink:href="#ArialMT-53"/>
      <use x="66.699219" xlink:href="#ArialMT-54"/>
      <use x="127.783203" xlink:href="#ArialMT-45"/>
      <use x="194.482422" xlink:href="#ArialMT-4d"/>
     </g>
    </g>
   </g>
  </g>
  <g id="text_19">
   <!-- dynomight.net -->
   <g style="fill:#808080;opacity:0.5;" transform="translate(346.24625 297.504)scale(0.06 -0.06)">
    <defs>
     <path d="M 2681 3053 
L 2681 4863 
L 3256 4863 
L 3256 0 
L 2681 0 
L 2681 441 
Q 2538 181 2298 45 
Q 2059 -91 1747 -91 
Q 1113 -91 748 401 
Q 384 894 384 1759 
Q 384 2613 750 3098 
Q 1116 3584 1747 3584 
Q 2063 3584 2303 3448 
Q 2544 3313 2681 3053 
z
M 991 1747 
Q 991 1078 1203 737 
Q 1416 397 1831 397 
Q 2247 397 2464 740 
Q 2681 1084 2681 1747 
Q 2681 2413 2464 2755 
Q 2247 3097 1831 3097 
Q 1416 3097 1203 2756 
Q 991 2416 991 1747 
z
" id="DejaVuSansMono-64" transform="scale(0.015625)"/>
     <path d="M 2681 1125 
Q 2538 759 2316 163 
Q 2006 -663 1900 -844 
Q 1756 -1088 1540 -1209 
Q 1325 -1331 1038 -1331 
L 575 -1331 
L 575 -850 
L 916 -850 
Q 1169 -850 1312 -703 
Q 1456 -556 1678 56 
L 325 3500 
L 934 3500 
L 1972 763 
L 2994 3500 
L 3603 3500 
L 2681 1125 
z
" id="DejaVuSansMono-79" transform="scale(0.015625)"/>
     <path d="M 3284 2169 
L 3284 0 
L 2706 0 
L 2706 2169 
Q 2706 2641 2540 2862 
Q 2375 3084 2022 3084 
Q 1619 3084 1401 2798 
Q 1184 2513 1184 1978 
L 1184 0 
L 609 0 
L 609 3500 
L 1184 3500 
L 1184 2975 
Q 1338 3275 1600 3429 
Q 1863 3584 2222 3584 
Q 2756 3584 3020 3232 
Q 3284 2881 3284 2169 
z
" id="DejaVuSansMono-6e" transform="scale(0.015625)"/>
     <path d="M 1925 3097 
Q 1488 3097 1263 2756 
Q 1038 2416 1038 1747 
Q 1038 1081 1263 739 
Q 1488 397 1925 397 
Q 2366 397 2591 739 
Q 2816 1081 2816 1747 
Q 2816 2416 2591 2756 
Q 2366 3097 1925 3097 
z
M 1925 3584 
Q 2653 3584 3039 3112 
Q 3425 2641 3425 1747 
Q 3425 850 3040 379 
Q 2656 -91 1925 -91 
Q 1197 -91 812 379 
Q 428 850 428 1747 
Q 428 2641 812 3112 
Q 1197 3584 1925 3584 
z
" id="DejaVuSansMono-6f" transform="scale(0.015625)"/>
     <path d="M 2113 3144 
Q 2219 3369 2383 3476 
Q 2547 3584 2778 3584 
Q 3200 3584 3373 3257 
Q 3547 2931 3547 2028 
L 3547 0 
L 3022 0 
L 3022 2003 
Q 3022 2744 2939 2923 
Q 2856 3103 2638 3103 
Q 2388 3103 2295 2911 
Q 2203 2719 2203 2003 
L 2203 0 
L 1678 0 
L 1678 2003 
Q 1678 2753 1589 2928 
Q 1500 3103 1269 3103 
Q 1041 3103 952 2911 
Q 863 2719 863 2003 
L 863 0 
L 341 0 
L 341 3500 
L 863 3500 
L 863 3200 
Q 966 3388 1120 3486 
Q 1275 3584 1472 3584 
Q 1709 3584 1867 3475 
Q 2025 3366 2113 3144 
z
" id="DejaVuSansMono-6d" transform="scale(0.015625)"/>
     <path d="M 800 3500 
L 2272 3500 
L 2272 447 
L 3413 447 
L 3413 0 
L 556 0 
L 556 447 
L 1697 447 
L 1697 3053 
L 800 3053 
L 800 3500 
z
M 1697 4863 
L 2272 4863 
L 2272 4134 
L 1697 4134 
L 1697 4863 
z
" id="DejaVuSansMono-69" transform="scale(0.015625)"/>
     <path d="M 2681 1778 
Q 2681 2425 2470 2761 
Q 2259 3097 1856 3097 
Q 1434 3097 1212 2761 
Q 991 2425 991 1778 
Q 991 1131 1214 792 
Q 1438 453 1863 453 
Q 2259 453 2470 793 
Q 2681 1134 2681 1778 
z
M 3256 225 
Q 3256 -563 2884 -969 
Q 2513 -1375 1791 -1375 
Q 1553 -1375 1293 -1331 
Q 1034 -1288 775 -1203 
L 775 -634 
Q 1081 -778 1331 -847 
Q 1581 -916 1791 -916 
Q 2256 -916 2468 -662 
Q 2681 -409 2681 141 
L 2681 166 
L 2681 556 
Q 2544 263 2306 119 
Q 2069 -25 1728 -25 
Q 1116 -25 750 465 
Q 384 956 384 1778 
Q 384 2603 750 3093 
Q 1116 3584 1728 3584 
Q 2066 3584 2300 3450 
Q 2534 3316 2681 3034 
L 2681 3488 
L 3256 3488 
L 3256 225 
z
" id="DejaVuSansMono-67" transform="scale(0.015625)"/>
     <path d="M 3284 2169 
L 3284 0 
L 2706 0 
L 2706 2169 
Q 2706 2641 2540 2862 
Q 2375 3084 2022 3084 
Q 1619 3084 1401 2798 
Q 1184 2513 1184 1978 
L 1184 0 
L 609 0 
L 609 4863 
L 1184 4863 
L 1184 2975 
Q 1338 3275 1600 3429 
Q 1863 3584 2222 3584 
Q 2756 3584 3020 3232 
Q 3284 2881 3284 2169 
z
" id="DejaVuSansMono-68" transform="scale(0.015625)"/>
     <path d="M 1919 4494 
L 1919 3500 
L 3225 3500 
L 3225 3053 
L 1919 3053 
L 1919 1153 
Q 1919 766 2066 612 
Q 2213 459 2578 459 
L 3225 459 
L 3225 0 
L 2522 0 
Q 1875 0 1609 259 
Q 1344 519 1344 1153 
L 1344 3053 
L 409 3053 
L 409 3500 
L 1344 3500 
L 1344 4494 
L 1919 4494 
z
" id="DejaVuSansMono-74" transform="scale(0.015625)"/>
     <path d="M 1528 953 
L 2316 953 
L 2316 0 
L 1528 0 
L 1528 953 
z
" id="DejaVuSansMono-2e" transform="scale(0.015625)"/>
     <path d="M 3475 1894 
L 3475 1613 
L 984 1613 
L 984 1594 
Q 984 1022 1282 709 
Q 1581 397 2125 397 
Q 2400 397 2700 484 
Q 3000 572 3341 750 
L 3341 178 
Q 3013 44 2708 -23 
Q 2403 -91 2119 -91 
Q 1303 -91 843 398 
Q 384 888 384 1747 
Q 384 2584 834 3084 
Q 1284 3584 2034 3584 
Q 2703 3584 3089 3131 
Q 3475 2678 3475 1894 
z
M 2900 2063 
Q 2888 2569 2661 2833 
Q 2434 3097 2009 3097 
Q 1594 3097 1325 2822 
Q 1056 2547 1006 2059 
L 2900 2063 
z
" id="DejaVuSansMono-65" transform="scale(0.015625)"/>
    </defs>
    <use xlink:href="#DejaVuSansMono-64"/>
    <use x="60.205078" xlink:href="#DejaVuSansMono-79"/>
    <use x="120.410156" xlink:href="#DejaVuSansMono-6e"/>
    <use x="180.615234" xlink:href="#DejaVuSansMono-6f"/>
    <use x="240.820312" xlink:href="#DejaVuSansMono-6d"/>
    <use x="301.025391" xlink:href="#DejaVuSansMono-69"/>
    <use x="361.230469" xlink:href="#DejaVuSansMono-67"/>
    <use x="421.435547" xlink:href="#DejaVuSansMono-68"/>
    <use x="481.640625" xlink:href="#DejaVuSansMono-74"/>
    <use x="541.845703" xlink:href="#DejaVuSansMono-2e"/>
    <use x="602.050781" xlink:href="#DejaVuSansMono-6e"/>
    <use x="662.255859" xlink:href="#DejaVuSansMono-65"/>
    <use x="722.460938" xlink:href="#DejaVuSansMono-74"/>
   </g>
  </g>
 </g>
 <defs>
  <clipPath id="p4aef917112">
   <rect height="266.112" width="357.12" x="35.20625" y="7.2"/>
  </clipPath>
 </defs>
</svg>
