<?xml version="1.0" encoding="utf-8" standalone="no"?>
<!DOCTYPE svg PUBLIC "-//W3C//DTD SVG 1.1//EN"
  "http://www.w3.org/Graphics/SVG/1.1/DTD/svg11.dtd">
<svg height="306.541687pt" version="1.1" viewBox="0 0 400.404687 306.541687" width="400.404687pt" xmlns="http://www.w3.org/2000/svg" xmlns:xlink="http://www.w3.org/1999/xlink">
 <metadata>
  <rdf:RDF xmlns:cc="http://creativecommons.org/ns#" xmlns:dc="http://purl.org/dc/elements/1.1/" xmlns:rdf="http://www.w3.org/1999/02/22-rdf-syntax-ns#">
   <cc:Work>
    <dc:type rdf:resource="http://purl.org/dc/dcmitype/StillImage"/>
    <dc:date>2021-07-01T15:59:23.955551</dc:date>
    <dc:format>image/svg+xml</dc:format>
    <dc:creator>
     <cc:Agent>
      <dc:title>Matplotlib v3.4.1, https://matplotlib.org/</dc:title>
     </cc:Agent>
    </dc:creator>
   </cc:Work>
  </rdf:RDF>
 </metadata>
 <defs>
  <style type="text/css">*{stroke-linecap:butt;stroke-linejoin:round;}</style>
 </defs>
 <g id="figure_1">
  <g id="patch_1">
   <path d="M 0 306.541687 
L 400.404687 306.541687 
L 400.404687 0 
L 0 0 
z
" style="fill:#ffffff;"/>
  </g>
  <g id="axes_1">
   <g id="patch_2">
    <path d="M 35.20625 273.312 
L 392.32625 273.312 
L 392.32625 7.2 
L 35.20625 7.2 
z
" style="fill:#ffffff;"/>
   </g>
   <g id="matplotlib.axis_1">
    <g id="xtick_1">
     <g id="line2d_1"/>
     <g id="text_1">
      <!-- 0.0 -->
      <g style="fill:#262626;" transform="translate(31.334417 283.969812)scale(0.1 -0.1)">
       <defs>
        <path d="M 266 2259 
Q 266 3072 433 3567 
Q 600 4063 929 4331 
Q 1259 4600 1759 4600 
Q 2128 4600 2406 4451 
Q 2684 4303 2865 4023 
Q 3047 3744 3150 3342 
Q 3253 2941 3253 2259 
Q 3253 1453 3087 958 
Q 2922 463 2592 192 
Q 2263 -78 1759 -78 
Q 1097 -78 719 397 
Q 266 969 266 2259 
z
M 844 2259 
Q 844 1131 1108 757 
Q 1372 384 1759 384 
Q 2147 384 2411 759 
Q 2675 1134 2675 2259 
Q 2675 3391 2411 3762 
Q 2147 4134 1753 4134 
Q 1366 4134 1134 3806 
Q 844 3388 844 2259 
z
" id="ArialMT-30" transform="scale(0.015625)"/>
        <path d="M 581 0 
L 581 641 
L 1222 641 
L 1222 0 
L 581 0 
z
" id="ArialMT-2e" transform="scale(0.015625)"/>
       </defs>
       <use xlink:href="#ArialMT-30"/>
       <use x="55.615234" xlink:href="#ArialMT-2e"/>
       <use x="83.398438" xlink:href="#ArialMT-30"/>
      </g>
     </g>
    </g>
    <g id="xtick_2">
     <g id="line2d_2"/>
     <g id="text_2">
      <!-- 0.1 -->
      <g style="fill:#262626;" transform="translate(83.952658 283.969812)scale(0.1 -0.1)">
       <defs>
        <path d="M 2384 0 
L 1822 0 
L 1822 3584 
Q 1619 3391 1289 3197 
Q 959 3003 697 2906 
L 697 3450 
Q 1169 3672 1522 3987 
Q 1875 4303 2022 4600 
L 2384 4600 
L 2384 0 
z
" id="ArialMT-31" transform="scale(0.015625)"/>
       </defs>
       <use xlink:href="#ArialMT-30"/>
       <use x="55.615234" xlink:href="#ArialMT-2e"/>
       <use x="83.398438" xlink:href="#ArialMT-31"/>
      </g>
     </g>
    </g>
    <g id="xtick_3">
     <g id="line2d_3"/>
     <g id="text_3">
      <!-- 0.2 -->
      <g style="fill:#262626;" transform="translate(136.570899 283.969812)scale(0.1 -0.1)">
       <defs>
        <path d="M 3222 541 
L 3222 0 
L 194 0 
Q 188 203 259 391 
Q 375 700 629 1000 
Q 884 1300 1366 1694 
Q 2113 2306 2375 2664 
Q 2638 3022 2638 3341 
Q 2638 3675 2398 3904 
Q 2159 4134 1775 4134 
Q 1369 4134 1125 3890 
Q 881 3647 878 3216 
L 300 3275 
Q 359 3922 746 4261 
Q 1134 4600 1788 4600 
Q 2447 4600 2831 4234 
Q 3216 3869 3216 3328 
Q 3216 3053 3103 2787 
Q 2991 2522 2730 2228 
Q 2469 1934 1863 1422 
Q 1356 997 1212 845 
Q 1069 694 975 541 
L 3222 541 
z
" id="ArialMT-32" transform="scale(0.015625)"/>
       </defs>
       <use xlink:href="#ArialMT-30"/>
       <use x="55.615234" xlink:href="#ArialMT-2e"/>
       <use x="83.398438" xlink:href="#ArialMT-32"/>
      </g>
     </g>
    </g>
    <g id="xtick_4">
     <g id="line2d_4"/>
     <g id="text_4">
      <!-- 0.3 -->
      <g style="fill:#262626;" transform="translate(189.189139 283.969812)scale(0.1 -0.1)">
       <defs>
        <path d="M 269 1209 
L 831 1284 
Q 928 806 1161 595 
Q 1394 384 1728 384 
Q 2125 384 2398 659 
Q 2672 934 2672 1341 
Q 2672 1728 2419 1979 
Q 2166 2231 1775 2231 
Q 1616 2231 1378 2169 
L 1441 2663 
Q 1497 2656 1531 2656 
Q 1891 2656 2178 2843 
Q 2466 3031 2466 3422 
Q 2466 3731 2256 3934 
Q 2047 4138 1716 4138 
Q 1388 4138 1169 3931 
Q 950 3725 888 3313 
L 325 3413 
Q 428 3978 793 4289 
Q 1159 4600 1703 4600 
Q 2078 4600 2393 4439 
Q 2709 4278 2876 4000 
Q 3044 3722 3044 3409 
Q 3044 3113 2884 2869 
Q 2725 2625 2413 2481 
Q 2819 2388 3044 2092 
Q 3269 1797 3269 1353 
Q 3269 753 2831 336 
Q 2394 -81 1725 -81 
Q 1122 -81 723 278 
Q 325 638 269 1209 
z
" id="ArialMT-33" transform="scale(0.015625)"/>
       </defs>
       <use xlink:href="#ArialMT-30"/>
       <use x="55.615234" xlink:href="#ArialMT-2e"/>
       <use x="83.398438" xlink:href="#ArialMT-33"/>
      </g>
     </g>
    </g>
    <g id="xtick_5">
     <g id="line2d_5"/>
     <g id="text_5">
      <!-- 0.4 -->
      <g style="fill:#262626;" transform="translate(241.80738 283.969812)scale(0.1 -0.1)">
       <defs>
        <path d="M 2069 0 
L 2069 1097 
L 81 1097 
L 81 1613 
L 2172 4581 
L 2631 4581 
L 2631 1613 
L 3250 1613 
L 3250 1097 
L 2631 1097 
L 2631 0 
L 2069 0 
z
M 2069 1613 
L 2069 3678 
L 634 1613 
L 2069 1613 
z
" id="ArialMT-34" transform="scale(0.015625)"/>
       </defs>
       <use xlink:href="#ArialMT-30"/>
       <use x="55.615234" xlink:href="#ArialMT-2e"/>
       <use x="83.398438" xlink:href="#ArialMT-34"/>
      </g>
     </g>
    </g>
    <g id="xtick_6">
     <g id="line2d_6"/>
     <g id="text_6">
      <!-- 0.5 -->
      <g style="fill:#262626;" transform="translate(294.425621 283.969812)scale(0.1 -0.1)">
       <defs>
        <path d="M 266 1200 
L 856 1250 
Q 922 819 1161 601 
Q 1400 384 1738 384 
Q 2144 384 2425 690 
Q 2706 997 2706 1503 
Q 2706 1984 2436 2262 
Q 2166 2541 1728 2541 
Q 1456 2541 1237 2417 
Q 1019 2294 894 2097 
L 366 2166 
L 809 4519 
L 3088 4519 
L 3088 3981 
L 1259 3981 
L 1013 2750 
Q 1425 3038 1878 3038 
Q 2478 3038 2890 2622 
Q 3303 2206 3303 1553 
Q 3303 931 2941 478 
Q 2500 -78 1738 -78 
Q 1113 -78 717 272 
Q 322 622 266 1200 
z
" id="ArialMT-35" transform="scale(0.015625)"/>
       </defs>
       <use xlink:href="#ArialMT-30"/>
       <use x="55.615234" xlink:href="#ArialMT-2e"/>
       <use x="83.398438" xlink:href="#ArialMT-35"/>
      </g>
     </g>
    </g>
    <g id="xtick_7">
     <g id="line2d_7"/>
     <g id="text_7">
      <!-- 0.6 -->
      <g style="fill:#262626;" transform="translate(347.043862 283.969812)scale(0.1 -0.1)">
       <defs>
        <path d="M 3184 3459 
L 2625 3416 
Q 2550 3747 2413 3897 
Q 2184 4138 1850 4138 
Q 1581 4138 1378 3988 
Q 1113 3794 959 3422 
Q 806 3050 800 2363 
Q 1003 2672 1297 2822 
Q 1591 2972 1913 2972 
Q 2475 2972 2870 2558 
Q 3266 2144 3266 1488 
Q 3266 1056 3080 686 
Q 2894 316 2569 119 
Q 2244 -78 1831 -78 
Q 1128 -78 684 439 
Q 241 956 241 2144 
Q 241 3472 731 4075 
Q 1159 4600 1884 4600 
Q 2425 4600 2770 4297 
Q 3116 3994 3184 3459 
z
M 888 1484 
Q 888 1194 1011 928 
Q 1134 663 1356 523 
Q 1578 384 1822 384 
Q 2178 384 2434 671 
Q 2691 959 2691 1453 
Q 2691 1928 2437 2201 
Q 2184 2475 1800 2475 
Q 1419 2475 1153 2201 
Q 888 1928 888 1484 
z
" id="ArialMT-36" transform="scale(0.015625)"/>
       </defs>
       <use xlink:href="#ArialMT-30"/>
       <use x="55.615234" xlink:href="#ArialMT-2e"/>
       <use x="83.398438" xlink:href="#ArialMT-36"/>
      </g>
     </g>
    </g>
    <g id="text_8">
     <!-- GII (less is more equal) -->
     <g style="fill:#262626;" transform="translate(162.087344 297.237)scale(0.1 -0.1)">
      <defs>
       <path d="M 2638 1797 
L 2638 2334 
L 4578 2338 
L 4578 638 
Q 4131 281 3656 101 
Q 3181 -78 2681 -78 
Q 2006 -78 1454 211 
Q 903 500 622 1047 
Q 341 1594 341 2269 
Q 341 2938 620 3517 
Q 900 4097 1425 4378 
Q 1950 4659 2634 4659 
Q 3131 4659 3532 4498 
Q 3934 4338 4162 4050 
Q 4391 3763 4509 3300 
L 3963 3150 
Q 3859 3500 3706 3700 
Q 3553 3900 3268 4020 
Q 2984 4141 2638 4141 
Q 2222 4141 1919 4014 
Q 1616 3888 1430 3681 
Q 1244 3475 1141 3228 
Q 966 2803 966 2306 
Q 966 1694 1177 1281 
Q 1388 869 1791 669 
Q 2194 469 2647 469 
Q 3041 469 3416 620 
Q 3791 772 3984 944 
L 3984 1797 
L 2638 1797 
z
" id="ArialMT-47" transform="scale(0.015625)"/>
       <path d="M 597 0 
L 597 4581 
L 1203 4581 
L 1203 0 
L 597 0 
z
" id="ArialMT-49" transform="scale(0.015625)"/>
       <path id="ArialMT-20" transform="scale(0.015625)"/>
       <path d="M 1497 -1347 
Q 1031 -759 709 28 
Q 388 816 388 1659 
Q 388 2403 628 3084 
Q 909 3875 1497 4659 
L 1900 4659 
Q 1522 4009 1400 3731 
Q 1209 3300 1100 2831 
Q 966 2247 966 1656 
Q 966 153 1900 -1347 
L 1497 -1347 
z
" id="ArialMT-28" transform="scale(0.015625)"/>
       <path d="M 409 0 
L 409 4581 
L 972 4581 
L 972 0 
L 409 0 
z
" id="ArialMT-6c" transform="scale(0.015625)"/>
       <path d="M 2694 1069 
L 3275 997 
Q 3138 488 2766 206 
Q 2394 -75 1816 -75 
Q 1088 -75 661 373 
Q 234 822 234 1631 
Q 234 2469 665 2931 
Q 1097 3394 1784 3394 
Q 2450 3394 2872 2941 
Q 3294 2488 3294 1666 
Q 3294 1616 3291 1516 
L 816 1516 
Q 847 969 1125 678 
Q 1403 388 1819 388 
Q 2128 388 2347 550 
Q 2566 713 2694 1069 
z
M 847 1978 
L 2700 1978 
Q 2663 2397 2488 2606 
Q 2219 2931 1791 2931 
Q 1403 2931 1139 2672 
Q 875 2413 847 1978 
z
" id="ArialMT-65" transform="scale(0.015625)"/>
       <path d="M 197 991 
L 753 1078 
Q 800 744 1014 566 
Q 1228 388 1613 388 
Q 2000 388 2187 545 
Q 2375 703 2375 916 
Q 2375 1106 2209 1216 
Q 2094 1291 1634 1406 
Q 1016 1563 777 1677 
Q 538 1791 414 1992 
Q 291 2194 291 2438 
Q 291 2659 392 2848 
Q 494 3038 669 3163 
Q 800 3259 1026 3326 
Q 1253 3394 1513 3394 
Q 1903 3394 2198 3281 
Q 2494 3169 2634 2976 
Q 2775 2784 2828 2463 
L 2278 2388 
Q 2241 2644 2061 2787 
Q 1881 2931 1553 2931 
Q 1166 2931 1000 2803 
Q 834 2675 834 2503 
Q 834 2394 903 2306 
Q 972 2216 1119 2156 
Q 1203 2125 1616 2013 
Q 2213 1853 2448 1751 
Q 2684 1650 2818 1456 
Q 2953 1263 2953 975 
Q 2953 694 2789 445 
Q 2625 197 2315 61 
Q 2006 -75 1616 -75 
Q 969 -75 630 194 
Q 291 463 197 991 
z
" id="ArialMT-73" transform="scale(0.015625)"/>
       <path d="M 425 3934 
L 425 4581 
L 988 4581 
L 988 3934 
L 425 3934 
z
M 425 0 
L 425 3319 
L 988 3319 
L 988 0 
L 425 0 
z
" id="ArialMT-69" transform="scale(0.015625)"/>
       <path d="M 422 0 
L 422 3319 
L 925 3319 
L 925 2853 
Q 1081 3097 1340 3245 
Q 1600 3394 1931 3394 
Q 2300 3394 2536 3241 
Q 2772 3088 2869 2813 
Q 3263 3394 3894 3394 
Q 4388 3394 4653 3120 
Q 4919 2847 4919 2278 
L 4919 0 
L 4359 0 
L 4359 2091 
Q 4359 2428 4304 2576 
Q 4250 2725 4106 2815 
Q 3963 2906 3769 2906 
Q 3419 2906 3187 2673 
Q 2956 2441 2956 1928 
L 2956 0 
L 2394 0 
L 2394 2156 
Q 2394 2531 2256 2718 
Q 2119 2906 1806 2906 
Q 1569 2906 1367 2781 
Q 1166 2656 1075 2415 
Q 984 2175 984 1722 
L 984 0 
L 422 0 
z
" id="ArialMT-6d" transform="scale(0.015625)"/>
       <path d="M 213 1659 
Q 213 2581 725 3025 
Q 1153 3394 1769 3394 
Q 2453 3394 2887 2945 
Q 3322 2497 3322 1706 
Q 3322 1066 3130 698 
Q 2938 331 2570 128 
Q 2203 -75 1769 -75 
Q 1072 -75 642 372 
Q 213 819 213 1659 
z
M 791 1659 
Q 791 1022 1069 705 
Q 1347 388 1769 388 
Q 2188 388 2466 706 
Q 2744 1025 2744 1678 
Q 2744 2294 2464 2611 
Q 2184 2928 1769 2928 
Q 1347 2928 1069 2612 
Q 791 2297 791 1659 
z
" id="ArialMT-6f" transform="scale(0.015625)"/>
       <path d="M 416 0 
L 416 3319 
L 922 3319 
L 922 2816 
Q 1116 3169 1280 3281 
Q 1444 3394 1641 3394 
Q 1925 3394 2219 3213 
L 2025 2691 
Q 1819 2813 1613 2813 
Q 1428 2813 1281 2702 
Q 1134 2591 1072 2394 
Q 978 2094 978 1738 
L 978 0 
L 416 0 
z
" id="ArialMT-72" transform="scale(0.015625)"/>
       <path d="M 2538 -1272 
L 2538 353 
Q 2406 169 2170 47 
Q 1934 -75 1669 -75 
Q 1078 -75 651 397 
Q 225 869 225 1691 
Q 225 2191 398 2587 
Q 572 2984 901 3189 
Q 1231 3394 1625 3394 
Q 2241 3394 2594 2875 
L 2594 3319 
L 3100 3319 
L 3100 -1272 
L 2538 -1272 
z
M 803 1669 
Q 803 1028 1072 708 
Q 1341 388 1716 388 
Q 2075 388 2334 692 
Q 2594 997 2594 1619 
Q 2594 2281 2320 2615 
Q 2047 2950 1678 2950 
Q 1313 2950 1058 2639 
Q 803 2328 803 1669 
z
" id="ArialMT-71" transform="scale(0.015625)"/>
       <path d="M 2597 0 
L 2597 488 
Q 2209 -75 1544 -75 
Q 1250 -75 995 37 
Q 741 150 617 320 
Q 494 491 444 738 
Q 409 903 409 1263 
L 409 3319 
L 972 3319 
L 972 1478 
Q 972 1038 1006 884 
Q 1059 663 1231 536 
Q 1403 409 1656 409 
Q 1909 409 2131 539 
Q 2353 669 2445 892 
Q 2538 1116 2538 1541 
L 2538 3319 
L 3100 3319 
L 3100 0 
L 2597 0 
z
" id="ArialMT-75" transform="scale(0.015625)"/>
       <path d="M 2588 409 
Q 2275 144 1986 34 
Q 1697 -75 1366 -75 
Q 819 -75 525 192 
Q 231 459 231 875 
Q 231 1119 342 1320 
Q 453 1522 633 1644 
Q 813 1766 1038 1828 
Q 1203 1872 1538 1913 
Q 2219 1994 2541 2106 
Q 2544 2222 2544 2253 
Q 2544 2597 2384 2738 
Q 2169 2928 1744 2928 
Q 1347 2928 1158 2789 
Q 969 2650 878 2297 
L 328 2372 
Q 403 2725 575 2942 
Q 747 3159 1072 3276 
Q 1397 3394 1825 3394 
Q 2250 3394 2515 3294 
Q 2781 3194 2906 3042 
Q 3031 2891 3081 2659 
Q 3109 2516 3109 2141 
L 3109 1391 
Q 3109 606 3145 398 
Q 3181 191 3288 0 
L 2700 0 
Q 2613 175 2588 409 
z
M 2541 1666 
Q 2234 1541 1622 1453 
Q 1275 1403 1131 1340 
Q 988 1278 909 1158 
Q 831 1038 831 891 
Q 831 666 1001 516 
Q 1172 366 1500 366 
Q 1825 366 2078 508 
Q 2331 650 2450 897 
Q 2541 1088 2541 1459 
L 2541 1666 
z
" id="ArialMT-61" transform="scale(0.015625)"/>
       <path d="M 791 -1347 
L 388 -1347 
Q 1322 153 1322 1656 
Q 1322 2244 1188 2822 
Q 1081 3291 891 3722 
Q 769 4003 388 4659 
L 791 4659 
Q 1378 3875 1659 3084 
Q 1900 2403 1900 1659 
Q 1900 816 1576 28 
Q 1253 -759 791 -1347 
z
" id="ArialMT-29" transform="scale(0.015625)"/>
      </defs>
      <use xlink:href="#ArialMT-47"/>
      <use x="77.783203" xlink:href="#ArialMT-49"/>
      <use x="105.566406" xlink:href="#ArialMT-49"/>
      <use x="133.349609" xlink:href="#ArialMT-20"/>
      <use x="161.132812" xlink:href="#ArialMT-28"/>
      <use x="194.433594" xlink:href="#ArialMT-6c"/>
      <use x="216.650391" xlink:href="#ArialMT-65"/>
      <use x="272.265625" xlink:href="#ArialMT-73"/>
      <use x="322.265625" xlink:href="#ArialMT-73"/>
      <use x="372.265625" xlink:href="#ArialMT-20"/>
      <use x="400.048828" xlink:href="#ArialMT-69"/>
      <use x="422.265625" xlink:href="#ArialMT-73"/>
      <use x="472.265625" xlink:href="#ArialMT-20"/>
      <use x="500.048828" xlink:href="#ArialMT-6d"/>
      <use x="583.349609" xlink:href="#ArialMT-6f"/>
      <use x="638.964844" xlink:href="#ArialMT-72"/>
      <use x="672.265625" xlink:href="#ArialMT-65"/>
      <use x="727.880859" xlink:href="#ArialMT-20"/>
      <use x="755.664062" xlink:href="#ArialMT-65"/>
      <use x="811.279297" xlink:href="#ArialMT-71"/>
      <use x="866.894531" xlink:href="#ArialMT-75"/>
      <use x="922.509766" xlink:href="#ArialMT-61"/>
      <use x="978.125" xlink:href="#ArialMT-6c"/>
      <use x="1000.341797" xlink:href="#ArialMT-29"/>
     </g>
    </g>
   </g>
   <g id="matplotlib.axis_2">
    <g id="ytick_1">
     <g id="line2d_8"/>
     <g id="text_9">
      <!-- 0 -->
      <g style="fill:#262626;" transform="translate(26.145313 264.794906)scale(0.1 -0.1)">
       <use xlink:href="#ArialMT-30"/>
      </g>
     </g>
    </g>
    <g id="ytick_2">
     <g id="line2d_9"/>
     <g id="text_10">
      <!-- 10 -->
      <g style="fill:#262626;" transform="translate(20.584375 232.580669)scale(0.1 -0.1)">
       <use xlink:href="#ArialMT-31"/>
       <use x="55.615234" xlink:href="#ArialMT-30"/>
      </g>
     </g>
    </g>
    <g id="ytick_3">
     <g id="line2d_10"/>
     <g id="text_11">
      <!-- 20 -->
      <g style="fill:#262626;" transform="translate(20.584375 200.366431)scale(0.1 -0.1)">
       <use xlink:href="#ArialMT-32"/>
       <use x="55.615234" xlink:href="#ArialMT-30"/>
      </g>
     </g>
    </g>
    <g id="ytick_4">
     <g id="line2d_11"/>
     <g id="text_12">
      <!-- 30 -->
      <g style="fill:#262626;" transform="translate(20.584375 168.152194)scale(0.1 -0.1)">
       <use xlink:href="#ArialMT-33"/>
       <use x="55.615234" xlink:href="#ArialMT-30"/>
      </g>
     </g>
    </g>
    <g id="ytick_5">
     <g id="line2d_12"/>
     <g id="text_13">
      <!-- 40 -->
      <g style="fill:#262626;" transform="translate(20.584375 135.937956)scale(0.1 -0.1)">
       <use xlink:href="#ArialMT-34"/>
       <use x="55.615234" xlink:href="#ArialMT-30"/>
      </g>
     </g>
    </g>
    <g id="ytick_6">
     <g id="line2d_13"/>
     <g id="text_14">
      <!-- 50 -->
      <g style="fill:#262626;" transform="translate(20.584375 103.723719)scale(0.1 -0.1)">
       <use xlink:href="#ArialMT-35"/>
       <use x="55.615234" xlink:href="#ArialMT-30"/>
      </g>
     </g>
    </g>
    <g id="ytick_7">
     <g id="line2d_14"/>
     <g id="text_15">
      <!-- 60 -->
      <g style="fill:#262626;" transform="translate(20.584375 71.509481)scale(0.1 -0.1)">
       <use xlink:href="#ArialMT-36"/>
       <use x="55.615234" xlink:href="#ArialMT-30"/>
      </g>
     </g>
    </g>
    <g id="ytick_8">
     <g id="line2d_15"/>
     <g id="text_16">
      <!-- 70 -->
      <g style="fill:#262626;" transform="translate(20.584375 39.295244)scale(0.1 -0.1)">
       <defs>
        <path d="M 303 3981 
L 303 4522 
L 3269 4522 
L 3269 4084 
Q 2831 3619 2401 2847 
Q 1972 2075 1738 1259 
Q 1569 684 1522 0 
L 944 0 
Q 953 541 1156 1306 
Q 1359 2072 1739 2783 
Q 2119 3494 2547 3981 
L 303 3981 
z
" id="ArialMT-37" transform="scale(0.015625)"/>
       </defs>
       <use xlink:href="#ArialMT-37"/>
       <use x="55.615234" xlink:href="#ArialMT-30"/>
      </g>
     </g>
    </g>
    <g id="text_17">
     <!-- female share of degrees -->
     <g style="fill:#262626;" transform="translate(14.479688 194.172406)rotate(-90)scale(0.1 -0.1)">
      <defs>
       <path d="M 556 0 
L 556 2881 
L 59 2881 
L 59 3319 
L 556 3319 
L 556 3672 
Q 556 4006 616 4169 
Q 697 4388 901 4523 
Q 1106 4659 1475 4659 
Q 1713 4659 2000 4603 
L 1916 4113 
Q 1741 4144 1584 4144 
Q 1328 4144 1222 4034 
Q 1116 3925 1116 3625 
L 1116 3319 
L 1763 3319 
L 1763 2881 
L 1116 2881 
L 1116 0 
L 556 0 
z
" id="ArialMT-66" transform="scale(0.015625)"/>
       <path d="M 422 0 
L 422 4581 
L 984 4581 
L 984 2938 
Q 1378 3394 1978 3394 
Q 2347 3394 2619 3248 
Q 2891 3103 3008 2847 
Q 3125 2591 3125 2103 
L 3125 0 
L 2563 0 
L 2563 2103 
Q 2563 2525 2380 2717 
Q 2197 2909 1863 2909 
Q 1613 2909 1392 2779 
Q 1172 2650 1078 2428 
Q 984 2206 984 1816 
L 984 0 
L 422 0 
z
" id="ArialMT-68" transform="scale(0.015625)"/>
       <path d="M 2575 0 
L 2575 419 
Q 2259 -75 1647 -75 
Q 1250 -75 917 144 
Q 584 363 401 755 
Q 219 1147 219 1656 
Q 219 2153 384 2558 
Q 550 2963 881 3178 
Q 1213 3394 1622 3394 
Q 1922 3394 2156 3267 
Q 2391 3141 2538 2938 
L 2538 4581 
L 3097 4581 
L 3097 0 
L 2575 0 
z
M 797 1656 
Q 797 1019 1065 703 
Q 1334 388 1700 388 
Q 2069 388 2326 689 
Q 2584 991 2584 1609 
Q 2584 2291 2321 2609 
Q 2059 2928 1675 2928 
Q 1300 2928 1048 2622 
Q 797 2316 797 1656 
z
" id="ArialMT-64" transform="scale(0.015625)"/>
       <path d="M 319 -275 
L 866 -356 
Q 900 -609 1056 -725 
Q 1266 -881 1628 -881 
Q 2019 -881 2231 -725 
Q 2444 -569 2519 -288 
Q 2563 -116 2559 434 
Q 2191 0 1641 0 
Q 956 0 581 494 
Q 206 988 206 1678 
Q 206 2153 378 2554 
Q 550 2956 876 3175 
Q 1203 3394 1644 3394 
Q 2231 3394 2613 2919 
L 2613 3319 
L 3131 3319 
L 3131 450 
Q 3131 -325 2973 -648 
Q 2816 -972 2473 -1159 
Q 2131 -1347 1631 -1347 
Q 1038 -1347 672 -1080 
Q 306 -813 319 -275 
z
M 784 1719 
Q 784 1066 1043 766 
Q 1303 466 1694 466 
Q 2081 466 2343 764 
Q 2606 1063 2606 1700 
Q 2606 2309 2336 2618 
Q 2066 2928 1684 2928 
Q 1309 2928 1046 2623 
Q 784 2319 784 1719 
z
" id="ArialMT-67" transform="scale(0.015625)"/>
      </defs>
      <use xlink:href="#ArialMT-66"/>
      <use x="27.783203" xlink:href="#ArialMT-65"/>
      <use x="83.398438" xlink:href="#ArialMT-6d"/>
      <use x="166.699219" xlink:href="#ArialMT-61"/>
      <use x="222.314453" xlink:href="#ArialMT-6c"/>
      <use x="244.53125" xlink:href="#ArialMT-65"/>
      <use x="300.146484" xlink:href="#ArialMT-20"/>
      <use x="327.929688" xlink:href="#ArialMT-73"/>
      <use x="377.929688" xlink:href="#ArialMT-68"/>
      <use x="433.544922" xlink:href="#ArialMT-61"/>
      <use x="489.160156" xlink:href="#ArialMT-72"/>
      <use x="522.460938" xlink:href="#ArialMT-65"/>
      <use x="578.076172" xlink:href="#ArialMT-20"/>
      <use x="605.859375" xlink:href="#ArialMT-6f"/>
      <use x="661.474609" xlink:href="#ArialMT-66"/>
      <use x="689.257812" xlink:href="#ArialMT-20"/>
      <use x="717.041016" xlink:href="#ArialMT-64"/>
      <use x="772.65625" xlink:href="#ArialMT-65"/>
      <use x="828.271484" xlink:href="#ArialMT-67"/>
      <use x="883.886719" xlink:href="#ArialMT-72"/>
      <use x="917.1875" xlink:href="#ArialMT-65"/>
      <use x="972.802734" xlink:href="#ArialMT-65"/>
      <use x="1028.417969" xlink:href="#ArialMT-73"/>
     </g>
    </g>
   </g>
   <g id="PolyCollection_1">
    <path clip-path="url(#p3d67f7d188)" d="M 51.438977 39.724399 
L 51.438977 57.854107 
L 54.685523 57.334258 
L 57.932068 56.888937 
L 61.178614 56.369249 
L 64.425159 55.741042 
L 67.671705 55.414588 
L 70.91825 55.045412 
L 74.164795 54.516252 
L 77.411341 54.036734 
L 80.657886 53.767905 
L 83.904432 53.646542 
L 87.150977 53.552841 
L 90.397523 53.52169 
L 93.644068 53.269563 
L 96.890614 52.971001 
L 100.137159 52.695815 
L 103.383705 52.555286 
L 106.63025 52.673136 
L 109.876795 52.609715 
L 113.123341 52.448469 
L 116.369886 52.27875 
L 119.616432 52.22654 
L 122.862977 52.141261 
L 126.109523 52.306303 
L 129.356068 52.388091 
L 132.602614 52.604138 
L 135.849159 52.887803 
L 139.095705 53.023502 
L 142.34225 53.140547 
L 145.588795 53.495986 
L 148.835341 54.018348 
L 152.081886 54.447949 
L 155.328432 54.943335 
L 158.574977 55.37045 
L 161.821523 55.751864 
L 165.068068 55.502146 
L 168.314614 55.420647 
L 171.561159 55.453903 
L 174.807705 55.541946 
L 178.05425 55.308921 
L 181.300795 55.390115 
L 184.547341 55.291412 
L 187.793886 55.206715 
L 191.040432 55.435996 
L 194.286977 55.904791 
L 197.533523 56.700233 
L 200.780068 57.521074 
L 204.026614 58.461826 
L 207.273159 59.387894 
L 210.519705 60.593159 
L 213.76625 62.395945 
L 217.012795 63.621564 
L 220.259341 64.904386 
L 223.505886 66.25249 
L 226.752432 67.679264 
L 229.998977 69.0956 
L 233.245523 70.531058 
L 236.492068 72.044694 
L 239.738614 73.384487 
L 242.985159 74.787122 
L 246.231705 76.212604 
L 249.47825 77.628234 
L 252.724795 79.042729 
L 255.971341 80.46892 
L 259.217886 81.720019 
L 262.464432 82.930725 
L 265.710977 84.241439 
L 268.957523 85.595078 
L 272.204068 86.992575 
L 275.450614 88.416644 
L 278.697159 90.019355 
L 281.943705 91.662875 
L 285.19025 93.314613 
L 288.436795 94.972858 
L 291.683341 96.636333 
L 294.929886 98.354204 
L 298.176432 100.139461 
L 301.422977 101.923857 
L 304.669523 103.696276 
L 307.916068 105.322454 
L 311.162614 106.922116 
L 314.409159 108.53596 
L 317.655705 110.369147 
L 320.90225 112.216072 
L 324.148795 114.026136 
L 327.395341 115.870849 
L 330.641886 117.615738 
L 333.888432 119.249773 
L 337.134977 121.002726 
L 340.381523 122.893267 
L 343.628068 125.047198 
L 346.874614 126.916988 
L 350.121159 129.074349 
L 353.367705 131.440253 
L 356.61425 133.669262 
L 359.860795 135.998572 
L 363.107341 138.092732 
L 366.353886 140.373534 
L 369.600432 142.903321 
L 372.846977 145.478519 
L 376.093523 147.959512 
L 376.093523 54.617529 
L 376.093523 54.617529 
L 372.846977 54.534512 
L 369.600432 54.453179 
L 366.353886 54.325956 
L 363.107341 54.134359 
L 359.860795 53.942954 
L 356.61425 53.750603 
L 353.367705 53.557477 
L 350.121159 53.376687 
L 346.874614 53.198279 
L 343.628068 53.020432 
L 340.381523 52.842525 
L 337.134977 52.667031 
L 333.888432 52.493896 
L 330.641886 52.323066 
L 327.395341 52.154484 
L 324.148795 51.988146 
L 320.90225 51.824073 
L 317.655705 51.662251 
L 314.409159 51.502641 
L 311.162614 51.345191 
L 307.916068 51.197622 
L 304.669523 51.083473 
L 301.422977 50.983481 
L 298.176432 50.860995 
L 294.929886 50.737047 
L 291.683341 50.618745 
L 288.436795 50.526147 
L 285.19025 50.566891 
L 281.943705 50.492327 
L 278.697159 50.345602 
L 275.450614 50.346762 
L 272.204068 50.127422 
L 268.957523 50.091234 
L 265.710977 50.100181 
L 262.464432 49.963114 
L 259.217886 49.84573 
L 255.971341 49.428305 
L 252.724795 49.282624 
L 249.47825 49.146024 
L 246.231705 49.012637 
L 242.985159 48.767701 
L 239.738614 48.748522 
L 236.492068 48.686321 
L 233.245523 48.539275 
L 229.998977 48.433235 
L 226.752432 48.284703 
L 223.505886 47.948406 
L 220.259341 47.473662 
L 217.012795 47.298326 
L 213.76625 47.021583 
L 210.519705 46.887841 
L 207.273159 46.786516 
L 204.026614 46.535494 
L 200.780068 46.353073 
L 197.533523 46.255803 
L 194.286977 46.210952 
L 191.040432 45.973519 
L 187.793886 45.614669 
L 184.547341 45.380062 
L 181.300795 45.424289 
L 178.05425 45.370399 
L 174.807705 45.452112 
L 171.561159 45.310519 
L 168.314614 45.308062 
L 165.068068 45.214894 
L 161.821523 44.897747 
L 158.574977 44.696996 
L 155.328432 44.595232 
L 152.081886 44.57926 
L 148.835341 44.547906 
L 145.588795 44.451901 
L 142.34225 44.295519 
L 139.095705 44.068456 
L 135.849159 43.89187 
L 132.602614 43.803076 
L 129.356068 43.748483 
L 126.109523 43.831718 
L 122.862977 43.659697 
L 119.616432 43.694189 
L 116.369886 43.551238 
L 113.123341 43.362776 
L 109.876795 43.319493 
L 106.63025 43.273964 
L 103.383705 43.234002 
L 100.137159 43.121829 
L 96.890614 42.801095 
L 93.644068 42.607323 
L 90.397523 42.547284 
L 87.150977 42.542757 
L 83.904432 42.419063 
L 80.657886 42.176994 
L 77.411341 41.911771 
L 74.164795 41.718027 
L 70.91825 41.488567 
L 67.671705 41.279988 
L 64.425159 40.957398 
L 61.178614 40.630305 
L 57.932068 40.301865 
L 54.685523 40.043694 
L 51.438977 39.724399 
z
" style="fill:#00008b;fill-opacity:0.15;"/>
   </g>
   <g id="PolyCollection_2">
    <path clip-path="url(#p3d67f7d188)" d="M 51.438977 154.639047 
L 51.438977 173.205327 
L 54.685523 172.225189 
L 57.932068 170.963567 
L 61.178614 169.889216 
L 64.425159 168.860644 
L 67.671705 167.981237 
L 70.91825 167.051898 
L 74.164795 166.232566 
L 77.411341 165.386503 
L 80.657886 164.535173 
L 83.904432 163.663952 
L 87.150977 162.820521 
L 90.397523 161.885862 
L 93.644068 161.080126 
L 96.890614 160.466817 
L 100.137159 159.900986 
L 103.383705 159.25695 
L 106.63025 158.565427 
L 109.876795 157.748906 
L 113.123341 157.128042 
L 116.369886 156.590323 
L 119.616432 155.931579 
L 122.862977 155.558334 
L 126.109523 155.19784 
L 129.356068 154.952613 
L 132.602614 154.637387 
L 135.849159 154.1879 
L 139.095705 153.896664 
L 142.34225 153.733551 
L 145.588795 153.802113 
L 148.835341 153.870714 
L 152.081886 154.002562 
L 155.328432 154.24476 
L 158.574977 154.358435 
L 161.821523 154.60462 
L 165.068068 154.656512 
L 168.314614 154.651322 
L 171.561159 154.695167 
L 174.807705 154.696145 
L 178.05425 154.526181 
L 181.300795 154.376249 
L 184.547341 154.269893 
L 187.793886 154.259767 
L 191.040432 154.311845 
L 194.286977 154.271761 
L 197.533523 154.147728 
L 200.780068 154.182462 
L 204.026614 153.915785 
L 207.273159 153.952134 
L 210.519705 153.962127 
L 213.76625 153.941764 
L 217.012795 154.103565 
L 220.259341 154.283567 
L 223.505886 154.654561 
L 226.752432 155.124224 
L 229.998977 155.715928 
L 233.245523 156.542439 
L 236.492068 157.018684 
L 239.738614 157.638781 
L 242.985159 158.482295 
L 246.231705 159.142337 
L 249.47825 160.059554 
L 252.724795 161.071285 
L 255.971341 162.312976 
L 259.217886 163.45385 
L 262.464432 164.64716 
L 265.710977 165.597068 
L 268.957523 166.738558 
L 272.204068 168.090758 
L 275.450614 169.58999 
L 278.697159 170.757057 
L 281.943705 171.852045 
L 285.19025 173.039655 
L 288.436795 174.130985 
L 291.683341 175.190522 
L 294.929886 176.245319 
L 298.176432 177.280977 
L 301.422977 178.46217 
L 304.669523 179.744123 
L 307.916068 180.961648 
L 311.162614 182.24786 
L 314.409159 183.736506 
L 317.655705 185.240844 
L 320.90225 186.554491 
L 324.148795 188.286898 
L 327.395341 189.826421 
L 330.641886 191.311464 
L 333.888432 193.449516 
L 337.134977 195.470626 
L 340.381523 197.54693 
L 343.628068 199.482112 
L 346.874614 201.261561 
L 350.121159 203.245558 
L 353.367705 204.96657 
L 356.61425 206.701196 
L 359.860795 208.488297 
L 363.107341 210.362741 
L 366.353886 212.452064 
L 369.600432 214.252651 
L 372.846977 216.06795 
L 376.093523 218.194475 
L 376.093523 117.847833 
L 376.093523 117.847833 
L 372.846977 118.492781 
L 369.600432 119.116464 
L 366.353886 119.73454 
L 363.107341 120.303375 
L 359.860795 120.838961 
L 356.61425 121.374051 
L 353.367705 121.905198 
L 350.121159 122.447424 
L 346.874614 123.036187 
L 343.628068 123.720864 
L 340.381523 124.403972 
L 337.134977 125.086016 
L 333.888432 125.759906 
L 330.641886 126.32662 
L 327.395341 126.866312 
L 324.148795 127.446119 
L 320.90225 128.084467 
L 317.655705 128.716017 
L 314.409159 129.271674 
L 311.162614 129.847817 
L 307.916068 130.487665 
L 304.669523 131.141337 
L 301.422977 131.608202 
L 298.176432 131.981577 
L 294.929886 132.43848 
L 291.683341 133.076698 
L 288.436795 133.630652 
L 285.19025 134.030188 
L 281.943705 134.584644 
L 278.697159 135.025339 
L 275.450614 135.526017 
L 272.204068 135.809583 
L 268.957523 135.787682 
L 265.710977 136.172442 
L 262.464432 135.951776 
L 259.217886 135.974564 
L 255.971341 135.732543 
L 252.724795 135.627972 
L 249.47825 135.545798 
L 246.231705 135.554538 
L 242.985159 135.296968 
L 239.738614 134.731027 
L 236.492068 134.476707 
L 233.245523 134.268644 
L 229.998977 133.839601 
L 226.752432 133.808524 
L 223.505886 133.949429 
L 220.259341 134.209412 
L 217.012795 134.455543 
L 213.76625 134.451629 
L 210.519705 134.609567 
L 207.273159 134.665774 
L 204.026614 134.70436 
L 200.780068 134.863442 
L 197.533523 134.986953 
L 194.286977 134.82464 
L 191.040432 134.654135 
L 187.793886 134.773779 
L 184.547341 134.848947 
L 181.300795 135.000802 
L 178.05425 134.845452 
L 174.807705 134.601186 
L 171.561159 134.348687 
L 168.314614 134.315652 
L 165.068068 133.965478 
L 161.821523 133.865997 
L 158.574977 134.333071 
L 155.328432 134.724083 
L 152.081886 135.134336 
L 148.835341 135.714333 
L 145.588795 136.348616 
L 142.34225 136.9709 
L 139.095705 137.843057 
L 135.849159 138.840747 
L 132.602614 139.707216 
L 129.356068 140.452031 
L 126.109523 141.068437 
L 122.862977 141.858854 
L 119.616432 142.809438 
L 116.369886 143.48378 
L 113.123341 144.368001 
L 109.876795 145.18261 
L 106.63025 146.157191 
L 103.383705 146.73942 
L 100.137159 147.401834 
L 96.890614 147.908635 
L 93.644068 148.61498 
L 90.397523 149.443428 
L 87.150977 150.134228 
L 83.904432 150.709571 
L 80.657886 151.224355 
L 77.411341 151.68037 
L 74.164795 152.030902 
L 70.91825 152.366436 
L 67.671705 152.830411 
L 64.425159 153.13999 
L 61.178614 153.508656 
L 57.932068 153.955052 
L 54.685523 154.277464 
L 51.438977 154.639047 
z
" style="fill:#8b0000;fill-opacity:0.15;"/>
   </g>
   <g id="line2d_16">
    <defs>
     <path d="M 0 1.5 
C 0.397805 1.5 0.77937 1.341951 1.06066 1.06066 
C 1.341951 0.77937 1.5 0.397805 1.5 0 
C 1.5 -0.397805 1.341951 -0.77937 1.06066 -1.06066 
C 0.77937 -1.341951 0.397805 -1.5 0 -1.5 
C -0.397805 -1.5 -0.77937 -1.341951 -1.06066 -1.06066 
C -1.341951 -0.77937 -1.5 -0.397805 -1.5 0 
C -1.5 0.397805 -1.341951 0.77937 -1.06066 1.06066 
C -0.77937 1.341951 -0.397805 1.5 0 1.5 
z
" id="m02614f60c3" style="stroke:#000000;stroke-opacity:0;"/>
    </defs>
    <g clip-path="url(#p3d67f7d188)">
     <use style="fill:#00008b;fill-opacity:0.9;stroke:#000000;stroke-opacity:0;" x="51.438977" xlink:href="#m02614f60c3" y="78.074806"/>
     <use style="fill:#00008b;fill-opacity:0.9;stroke:#000000;stroke-opacity:0;" x="58.279349" xlink:href="#m02614f60c3" y="46.216665"/>
     <use style="fill:#00008b;fill-opacity:0.9;stroke:#000000;stroke-opacity:0;" x="58.805531" xlink:href="#m02614f60c3" y="26.542947"/>
     <use style="fill:#00008b;fill-opacity:0.9;stroke:#000000;stroke-opacity:0;" x="60.910261" xlink:href="#m02614f60c3" y="55.603765"/>
     <use style="fill:#00008b;fill-opacity:0.9;stroke:#000000;stroke-opacity:0;" x="61.962625" xlink:href="#m02614f60c3" y="30.288464"/>
     <use style="fill:#00008b;fill-opacity:0.9;stroke:#000000;stroke-opacity:0;" x="61.962625" xlink:href="#m02614f60c3" y="46.130621"/>
     <use style="fill:#00008b;fill-opacity:0.9;stroke:#000000;stroke-opacity:0;" x="64.067355" xlink:href="#m02614f60c3" y="53.712177"/>
     <use style="fill:#00008b;fill-opacity:0.9;stroke:#000000;stroke-opacity:0;" x="71.433909" xlink:href="#m02614f60c3" y="33.98144"/>
     <use style="fill:#00008b;fill-opacity:0.9;stroke:#000000;stroke-opacity:0;" x="72.486274" xlink:href="#m02614f60c3" y="61.196511"/>
     <use style="fill:#00008b;fill-opacity:0.9;stroke:#000000;stroke-opacity:0;" x="74.591003" xlink:href="#m02614f60c3" y="42.753474"/>
     <use style="fill:#00008b;fill-opacity:0.9;stroke:#000000;stroke-opacity:0;" x="74.591003" xlink:href="#m02614f60c3" y="52.765884"/>
     <use style="fill:#00008b;fill-opacity:0.9;stroke:#000000;stroke-opacity:0;" x="75.117186" xlink:href="#m02614f60c3" y="53.038739"/>
     <use style="fill:#00008b;fill-opacity:0.9;stroke:#000000;stroke-opacity:0;" x="77.748098" xlink:href="#m02614f60c3" y="74.876094"/>
     <use style="fill:#00008b;fill-opacity:0.9;stroke:#000000;stroke-opacity:0;" x="79.852827" xlink:href="#m02614f60c3" y="44.754268"/>
     <use style="fill:#00008b;fill-opacity:0.9;stroke:#000000;stroke-opacity:0;" x="80.37901" xlink:href="#m02614f60c3" y="52.387786"/>
     <use style="fill:#00008b;fill-opacity:0.9;stroke:#000000;stroke-opacity:0;" x="82.483739" xlink:href="#m02614f60c3" y="55.903196"/>
     <use style="fill:#00008b;fill-opacity:0.9;stroke:#000000;stroke-opacity:0;" x="83.536104" xlink:href="#m02614f60c3" y="40.70977"/>
     <use style="fill:#00008b;fill-opacity:0.9;stroke:#000000;stroke-opacity:0;" x="83.536104" xlink:href="#m02614f60c3" y="19.296"/>
     <use style="fill:#00008b;fill-opacity:0.9;stroke:#000000;stroke-opacity:0;" x="87.219381" xlink:href="#m02614f60c3" y="67.93312"/>
     <use style="fill:#00008b;fill-opacity:0.9;stroke:#000000;stroke-opacity:0;" x="87.745563" xlink:href="#m02614f60c3" y="54.980581"/>
     <use style="fill:#00008b;fill-opacity:0.9;stroke:#000000;stroke-opacity:0;" x="89.324111" xlink:href="#m02614f60c3" y="56.801329"/>
     <use style="fill:#00008b;fill-opacity:0.9;stroke:#000000;stroke-opacity:0;" x="95.6383" xlink:href="#m02614f60c3" y="55.141781"/>
     <use style="fill:#00008b;fill-opacity:0.9;stroke:#000000;stroke-opacity:0;" x="98.795394" xlink:href="#m02614f60c3" y="28.798813"/>
     <use style="fill:#00008b;fill-opacity:0.9;stroke:#000000;stroke-opacity:0;" x="99.321576" xlink:href="#m02614f60c3" y="44.815539"/>
     <use style="fill:#00008b;fill-opacity:0.9;stroke:#000000;stroke-opacity:0;" x="100.373941" xlink:href="#m02614f60c3" y="25.354306"/>
     <use style="fill:#00008b;fill-opacity:0.9;stroke:#000000;stroke-opacity:0;" x="103.531036" xlink:href="#m02614f60c3" y="25.653125"/>
     <use style="fill:#00008b;fill-opacity:0.9;stroke:#000000;stroke-opacity:0;" x="107.740495" xlink:href="#m02614f60c3" y="51.81012"/>
     <use style="fill:#00008b;fill-opacity:0.9;stroke:#000000;stroke-opacity:0;" x="116.685596" xlink:href="#m02614f60c3" y="57.049089"/>
     <use style="fill:#00008b;fill-opacity:0.9;stroke:#000000;stroke-opacity:0;" x="130.366338" xlink:href="#m02614f60c3" y="56.336993"/>
     <use style="fill:#00008b;fill-opacity:0.9;stroke:#000000;stroke-opacity:0;" x="130.892521" xlink:href="#m02614f60c3" y="22.232457"/>
     <use style="fill:#00008b;fill-opacity:0.9;stroke:#000000;stroke-opacity:0;" x="133.523433" xlink:href="#m02614f60c3" y="46.388238"/>
     <use style="fill:#00008b;fill-opacity:0.9;stroke:#000000;stroke-opacity:0;" x="138.785257" xlink:href="#m02614f60c3" y="36.344612"/>
     <use style="fill:#00008b;fill-opacity:0.9;stroke:#000000;stroke-opacity:0;" x="145.625628" xlink:href="#m02614f60c3" y="56.306551"/>
     <use style="fill:#00008b;fill-opacity:0.9;stroke:#000000;stroke-opacity:0;" x="145.625628" xlink:href="#m02614f60c3" y="44.275081"/>
     <use style="fill:#00008b;fill-opacity:0.9;stroke:#000000;stroke-opacity:0;" x="146.677993" xlink:href="#m02614f60c3" y="48.265523"/>
     <use style="fill:#00008b;fill-opacity:0.9;stroke:#000000;stroke-opacity:0;" x="149.835087" xlink:href="#m02614f60c3" y="52.128719"/>
     <use style="fill:#00008b;fill-opacity:0.9;stroke:#000000;stroke-opacity:0;" x="160.884918" xlink:href="#m02614f60c3" y="37.143428"/>
     <use style="fill:#00008b;fill-opacity:0.9;stroke:#000000;stroke-opacity:0;" x="161.4111" xlink:href="#m02614f60c3" y="56.331452"/>
     <use style="fill:#00008b;fill-opacity:0.9;stroke:#000000;stroke-opacity:0;" x="167.199107" xlink:href="#m02614f60c3" y="54.095237"/>
     <use style="fill:#00008b;fill-opacity:0.9;stroke:#000000;stroke-opacity:0;" x="168.251472" xlink:href="#m02614f60c3" y="50.06952"/>
     <use style="fill:#00008b;fill-opacity:0.9;stroke:#000000;stroke-opacity:0;" x="170.882384" xlink:href="#m02614f60c3" y="89.094427"/>
     <use style="fill:#00008b;fill-opacity:0.9;stroke:#000000;stroke-opacity:0;" x="183.510762" xlink:href="#m02614f60c3" y="52.259154"/>
     <use style="fill:#00008b;fill-opacity:0.9;stroke:#000000;stroke-opacity:0;" x="189.82495" xlink:href="#m02614f60c3" y="43.463089"/>
     <use style="fill:#00008b;fill-opacity:0.9;stroke:#000000;stroke-opacity:0;" x="194.03441" xlink:href="#m02614f60c3" y="30.24243"/>
     <use style="fill:#00008b;fill-opacity:0.9;stroke:#000000;stroke-opacity:0;" x="199.296234" xlink:href="#m02614f60c3" y="62.494745"/>
     <use style="fill:#00008b;fill-opacity:0.9;stroke:#000000;stroke-opacity:0;" x="207.715152" xlink:href="#m02614f60c3" y="64.373479"/>
     <use style="fill:#00008b;fill-opacity:0.9;stroke:#000000;stroke-opacity:0;" x="208.241335" xlink:href="#m02614f60c3" y="62.301588"/>
     <use style="fill:#00008b;fill-opacity:0.9;stroke:#000000;stroke-opacity:0;" x="227.183901" xlink:href="#m02614f60c3" y="41.239598"/>
     <use style="fill:#00008b;fill-opacity:0.9;stroke:#000000;stroke-opacity:0;" x="239.812279" xlink:href="#m02614f60c3" y="50.839891"/>
     <use style="fill:#00008b;fill-opacity:0.9;stroke:#000000;stroke-opacity:0;" x="240.338462" xlink:href="#m02614f60c3" y="60.398725"/>
     <use style="fill:#00008b;fill-opacity:0.9;stroke:#000000;stroke-opacity:0;" x="251.914475" xlink:href="#m02614f60c3" y="51.630429"/>
     <use style="fill:#00008b;fill-opacity:0.9;stroke:#000000;stroke-opacity:0;" x="252.440657" xlink:href="#m02614f60c3" y="35.598208"/>
     <use style="fill:#00008b;fill-opacity:0.9;stroke:#000000;stroke-opacity:0;" x="252.966839" xlink:href="#m02614f60c3" y="48.836842"/>
     <use style="fill:#00008b;fill-opacity:0.9;stroke:#000000;stroke-opacity:0;" x="256.650116" xlink:href="#m02614f60c3" y="35.910976"/>
     <use style="fill:#00008b;fill-opacity:0.9;stroke:#000000;stroke-opacity:0;" x="260.859575" xlink:href="#m02614f60c3" y="38.582567"/>
     <use style="fill:#00008b;fill-opacity:0.9;stroke:#000000;stroke-opacity:0;" x="263.490488" xlink:href="#m02614f60c3" y="62.6534"/>
     <use style="fill:#00008b;fill-opacity:0.9;stroke:#000000;stroke-opacity:0;" x="264.01667" xlink:href="#m02614f60c3" y="39.732841"/>
     <use style="fill:#00008b;fill-opacity:0.9;stroke:#000000;stroke-opacity:0;" x="269.804676" xlink:href="#m02614f60c3" y="39.578632"/>
     <use style="fill:#00008b;fill-opacity:0.9;stroke:#000000;stroke-opacity:0;" x="277.17123" xlink:href="#m02614f60c3" y="98.619243"/>
     <use style="fill:#00008b;fill-opacity:0.9;stroke:#000000;stroke-opacity:0;" x="277.697413" xlink:href="#m02614f60c3" y="46.168215"/>
     <use style="fill:#00008b;fill-opacity:0.9;stroke:#000000;stroke-opacity:0;" x="287.694878" xlink:href="#m02614f60c3" y="107.698536"/>
     <use style="fill:#00008b;fill-opacity:0.9;stroke:#000000;stroke-opacity:0;" x="290.32579" xlink:href="#m02614f60c3" y="49.95226"/>
     <use style="fill:#00008b;fill-opacity:0.9;stroke:#000000;stroke-opacity:0;" x="290.851973" xlink:href="#m02614f60c3" y="61.759197"/>
     <use style="fill:#00008b;fill-opacity:0.9;stroke:#000000;stroke-opacity:0;" x="295.061432" xlink:href="#m02614f60c3" y="86.499828"/>
     <use style="fill:#00008b;fill-opacity:0.9;stroke:#000000;stroke-opacity:0;" x="313.477816" xlink:href="#m02614f60c3" y="111.674578"/>
     <use style="fill:#00008b;fill-opacity:0.9;stroke:#000000;stroke-opacity:0;" x="315.582546" xlink:href="#m02614f60c3" y="108.191092"/>
     <use style="fill:#00008b;fill-opacity:0.9;stroke:#000000;stroke-opacity:0;" x="320.318188" xlink:href="#m02614f60c3" y="106.892987"/>
     <use style="fill:#00008b;fill-opacity:0.9;stroke:#000000;stroke-opacity:0;" x="321.370552" xlink:href="#m02614f60c3" y="117.103644"/>
     <use style="fill:#00008b;fill-opacity:0.9;stroke:#000000;stroke-opacity:0;" x="325.053829" xlink:href="#m02614f60c3" y="102.620735"/>
     <use style="fill:#00008b;fill-opacity:0.9;stroke:#000000;stroke-opacity:0;" x="329.263288" xlink:href="#m02614f60c3" y="49.349951"/>
     <use style="fill:#00008b;fill-opacity:0.9;stroke:#000000;stroke-opacity:0;" x="350.836767" xlink:href="#m02614f60c3" y="137.49677"/>
     <use style="fill:#00008b;fill-opacity:0.9;stroke:#000000;stroke-opacity:0;" x="360.308051" xlink:href="#m02614f60c3" y="65.213208"/>
     <use style="fill:#00008b;fill-opacity:0.9;stroke:#000000;stroke-opacity:0;" x="376.093523" xlink:href="#m02614f60c3" y="150.043926"/>
    </g>
   </g>
   <g id="line2d_17">
    <path clip-path="url(#p3d67f7d188)" d="M 51.438977 48.645859 
L 54.685523 48.567161 
L 57.932068 48.491732 
L 61.178614 48.419331 
L 64.425159 48.35003 
L 67.671705 48.28421 
L 70.91825 48.222328 
L 74.164795 48.164894 
L 77.411341 48.112526 
L 80.657886 48.065773 
L 83.904432 48.024935 
L 87.150977 47.990264 
L 90.397523 47.962238 
L 93.644068 47.940964 
L 96.890614 47.926122 
L 100.137159 47.916901 
L 103.383705 47.913016 
L 106.63025 47.913671 
L 109.876795 47.920204 
L 113.123341 47.930736 
L 116.369886 47.960192 
L 119.616432 48.004225 
L 122.862977 48.062087 
L 126.109523 48.135618 
L 129.356068 48.218211 
L 132.602614 48.302781 
L 135.849159 48.399535 
L 139.095705 48.524149 
L 142.34225 48.664642 
L 145.588795 48.823559 
L 148.835341 48.999253 
L 152.081886 49.181975 
L 155.328432 49.366684 
L 158.574977 49.558659 
L 161.821523 49.74842 
L 165.068068 49.933259 
L 168.314614 50.092532 
L 171.561159 50.189197 
L 174.807705 50.209632 
L 178.05425 50.20721 
L 181.300795 50.184337 
L 184.547341 50.214583 
L 187.793886 50.299394 
L 191.040432 50.43917 
L 194.286977 50.658804 
L 197.533523 50.934329 
L 200.780068 51.251209 
L 204.026614 51.609594 
L 207.273159 52.000647 
L 210.519705 52.456033 
L 213.76625 53.014684 
L 217.012795 53.697851 
L 220.259341 54.442561 
L 223.505886 55.20968 
L 226.752432 55.999945 
L 229.998977 56.839497 
L 233.245523 57.706015 
L 236.492068 58.592035 
L 239.738614 59.46831 
L 242.985159 60.361004 
L 246.231705 61.288618 
L 249.47825 62.270808 
L 252.724795 63.272291 
L 255.971341 64.330848 
L 259.217886 65.428619 
L 262.464432 66.55482 
L 265.710977 67.712636 
L 268.957523 68.885174 
L 272.204068 70.070126 
L 275.450614 71.266387 
L 278.697159 72.473335 
L 281.943705 73.690688 
L 285.19025 74.918444 
L 288.436795 76.15676 
L 291.683341 77.405818 
L 294.929886 78.665837 
L 298.176432 79.937185 
L 301.422977 81.220183 
L 304.669523 82.515117 
L 307.916068 83.82224 
L 311.162614 85.141776 
L 314.409159 86.473915 
L 317.655705 87.818757 
L 320.90225 89.176216 
L 324.148795 90.546098 
L 327.395341 91.92803 
L 330.641886 93.321572 
L 333.888432 94.726344 
L 337.134977 96.142059 
L 340.381523 97.568447 
L 343.628068 99.005243 
L 346.874614 100.452193 
L 350.121159 101.909047 
L 353.367705 103.375551 
L 356.61425 104.851345 
L 359.860795 106.336033 
L 363.107341 107.829245 
L 366.353886 109.330717 
L 369.600432 110.840227 
L 372.846977 112.357568 
L 376.093523 113.882543 
" style="fill:none;stroke:#00008b;stroke-linecap:round;stroke-opacity:0.5;stroke-width:1.5;"/>
   </g>
   <g id="line2d_18">
    <defs>
     <path d="M 0 1.5 
C 0.397805 1.5 0.77937 1.341951 1.06066 1.06066 
C 1.341951 0.77937 1.5 0.397805 1.5 0 
C 1.5 -0.397805 1.341951 -0.77937 1.06066 -1.06066 
C 0.77937 -1.341951 0.397805 -1.5 0 -1.5 
C -0.397805 -1.5 -0.77937 -1.341951 -1.06066 -1.06066 
C -1.341951 -0.77937 -1.5 -0.397805 -1.5 0 
C -1.5 0.397805 -1.341951 0.77937 -1.06066 1.06066 
C -0.77937 1.341951 -0.397805 1.5 0 1.5 
z
" id="mb3ef3cc634" style="stroke:#000000;stroke-opacity:0;"/>
    </defs>
    <g clip-path="url(#p3d67f7d188)">
     <use style="fill:#8b0000;fill-opacity:0.9;stroke:#000000;stroke-opacity:0;" x="51.438977" xlink:href="#mb3ef3cc634" y="187.981602"/>
     <use style="fill:#8b0000;fill-opacity:0.9;stroke:#000000;stroke-opacity:0;" x="58.279349" xlink:href="#mb3ef3cc634" y="167.59843"/>
     <use style="fill:#8b0000;fill-opacity:0.9;stroke:#000000;stroke-opacity:0;" x="58.805531" xlink:href="#mb3ef3cc634" y="172.461685"/>
     <use style="fill:#8b0000;fill-opacity:0.9;stroke:#000000;stroke-opacity:0;" x="60.910261" xlink:href="#mb3ef3cc634" y="157.489055"/>
     <use style="fill:#8b0000;fill-opacity:0.9;stroke:#000000;stroke-opacity:0;" x="61.962625" xlink:href="#mb3ef3cc634" y="152.319894"/>
     <use style="fill:#8b0000;fill-opacity:0.9;stroke:#000000;stroke-opacity:0;" x="61.962625" xlink:href="#mb3ef3cc634" y="175.662717"/>
     <use style="fill:#8b0000;fill-opacity:0.9;stroke:#000000;stroke-opacity:0;" x="64.067355" xlink:href="#mb3ef3cc634" y="160.60604"/>
     <use style="fill:#8b0000;fill-opacity:0.9;stroke:#000000;stroke-opacity:0;" x="71.433909" xlink:href="#mb3ef3cc634" y="153.835219"/>
     <use style="fill:#8b0000;fill-opacity:0.9;stroke:#000000;stroke-opacity:0;" x="72.486274" xlink:href="#mb3ef3cc634" y="190.88913"/>
     <use style="fill:#8b0000;fill-opacity:0.9;stroke:#000000;stroke-opacity:0;" x="74.591003" xlink:href="#mb3ef3cc634" y="179.72374"/>
     <use style="fill:#8b0000;fill-opacity:0.9;stroke:#000000;stroke-opacity:0;" x="74.591003" xlink:href="#mb3ef3cc634" y="130.695861"/>
     <use style="fill:#8b0000;fill-opacity:0.9;stroke:#000000;stroke-opacity:0;" x="75.117186" xlink:href="#mb3ef3cc634" y="166.668308"/>
     <use style="fill:#8b0000;fill-opacity:0.9;stroke:#000000;stroke-opacity:0;" x="79.852827" xlink:href="#mb3ef3cc634" y="135.700762"/>
     <use style="fill:#8b0000;fill-opacity:0.9;stroke:#000000;stroke-opacity:0;" x="80.37901" xlink:href="#mb3ef3cc634" y="159.205687"/>
     <use style="fill:#8b0000;fill-opacity:0.9;stroke:#000000;stroke-opacity:0;" x="82.483739" xlink:href="#mb3ef3cc634" y="174.723317"/>
     <use style="fill:#8b0000;fill-opacity:0.9;stroke:#000000;stroke-opacity:0;" x="83.536104" xlink:href="#mb3ef3cc634" y="129.090948"/>
     <use style="fill:#8b0000;fill-opacity:0.9;stroke:#000000;stroke-opacity:0;" x="83.536104" xlink:href="#mb3ef3cc634" y="130.595804"/>
     <use style="fill:#8b0000;fill-opacity:0.9;stroke:#000000;stroke-opacity:0;" x="87.219381" xlink:href="#mb3ef3cc634" y="168.900336"/>
     <use style="fill:#8b0000;fill-opacity:0.9;stroke:#000000;stroke-opacity:0;" x="87.745563" xlink:href="#mb3ef3cc634" y="151.962058"/>
     <use style="fill:#8b0000;fill-opacity:0.9;stroke:#000000;stroke-opacity:0;" x="89.324111" xlink:href="#mb3ef3cc634" y="158.990238"/>
     <use style="fill:#8b0000;fill-opacity:0.9;stroke:#000000;stroke-opacity:0;" x="95.6383" xlink:href="#mb3ef3cc634" y="138.90727"/>
     <use style="fill:#8b0000;fill-opacity:0.9;stroke:#000000;stroke-opacity:0;" x="98.795394" xlink:href="#mb3ef3cc634" y="120.674785"/>
     <use style="fill:#8b0000;fill-opacity:0.9;stroke:#000000;stroke-opacity:0;" x="99.321576" xlink:href="#mb3ef3cc634" y="147.747179"/>
     <use style="fill:#8b0000;fill-opacity:0.9;stroke:#000000;stroke-opacity:0;" x="100.373941" xlink:href="#mb3ef3cc634" y="176.445265"/>
     <use style="fill:#8b0000;fill-opacity:0.9;stroke:#000000;stroke-opacity:0;" x="103.531036" xlink:href="#mb3ef3cc634" y="161.97537"/>
     <use style="fill:#8b0000;fill-opacity:0.9;stroke:#000000;stroke-opacity:0;" x="107.740495" xlink:href="#mb3ef3cc634" y="131.994224"/>
     <use style="fill:#8b0000;fill-opacity:0.9;stroke:#000000;stroke-opacity:0;" x="116.685596" xlink:href="#mb3ef3cc634" y="124.102767"/>
     <use style="fill:#8b0000;fill-opacity:0.9;stroke:#000000;stroke-opacity:0;" x="130.366338" xlink:href="#mb3ef3cc634" y="164.902002"/>
     <use style="fill:#8b0000;fill-opacity:0.9;stroke:#000000;stroke-opacity:0;" x="130.892521" xlink:href="#mb3ef3cc634" y="159.91047"/>
     <use style="fill:#8b0000;fill-opacity:0.9;stroke:#000000;stroke-opacity:0;" x="133.523433" xlink:href="#mb3ef3cc634" y="91.187644"/>
     <use style="fill:#8b0000;fill-opacity:0.9;stroke:#000000;stroke-opacity:0;" x="138.785257" xlink:href="#mb3ef3cc634" y="146.605507"/>
     <use style="fill:#8b0000;fill-opacity:0.9;stroke:#000000;stroke-opacity:0;" x="145.625628" xlink:href="#mb3ef3cc634" y="153.662486"/>
     <use style="fill:#8b0000;fill-opacity:0.9;stroke:#000000;stroke-opacity:0;" x="145.625628" xlink:href="#mb3ef3cc634" y="157.614497"/>
     <use style="fill:#8b0000;fill-opacity:0.9;stroke:#000000;stroke-opacity:0;" x="146.677993" xlink:href="#mb3ef3cc634" y="140.446563"/>
     <use style="fill:#8b0000;fill-opacity:0.9;stroke:#000000;stroke-opacity:0;" x="149.835087" xlink:href="#mb3ef3cc634" y="124.821466"/>
     <use style="fill:#8b0000;fill-opacity:0.9;stroke:#000000;stroke-opacity:0;" x="160.884918" xlink:href="#mb3ef3cc634" y="159.11436"/>
     <use style="fill:#8b0000;fill-opacity:0.9;stroke:#000000;stroke-opacity:0;" x="161.4111" xlink:href="#mb3ef3cc634" y="165.690445"/>
     <use style="fill:#8b0000;fill-opacity:0.9;stroke:#000000;stroke-opacity:0;" x="167.199107" xlink:href="#mb3ef3cc634" y="123.381522"/>
     <use style="fill:#8b0000;fill-opacity:0.9;stroke:#000000;stroke-opacity:0;" x="168.251472" xlink:href="#mb3ef3cc634" y="202.556676"/>
     <use style="fill:#8b0000;fill-opacity:0.9;stroke:#000000;stroke-opacity:0;" x="170.882384" xlink:href="#mb3ef3cc634" y="140.281691"/>
     <use style="fill:#8b0000;fill-opacity:0.9;stroke:#000000;stroke-opacity:0;" x="171.408566" xlink:href="#mb3ef3cc634" y="136.996547"/>
     <use style="fill:#8b0000;fill-opacity:0.9;stroke:#000000;stroke-opacity:0;" x="183.510762" xlink:href="#mb3ef3cc634" y="126.770782"/>
     <use style="fill:#8b0000;fill-opacity:0.9;stroke:#000000;stroke-opacity:0;" x="189.82495" xlink:href="#mb3ef3cc634" y="160.351773"/>
     <use style="fill:#8b0000;fill-opacity:0.9;stroke:#000000;stroke-opacity:0;" x="194.03441" xlink:href="#mb3ef3cc634" y="89.57007"/>
     <use style="fill:#8b0000;fill-opacity:0.9;stroke:#000000;stroke-opacity:0;" x="199.296234" xlink:href="#mb3ef3cc634" y="107.878839"/>
     <use style="fill:#8b0000;fill-opacity:0.9;stroke:#000000;stroke-opacity:0;" x="207.715152" xlink:href="#mb3ef3cc634" y="160.282512"/>
     <use style="fill:#8b0000;fill-opacity:0.9;stroke:#000000;stroke-opacity:0;" x="208.241335" xlink:href="#mb3ef3cc634" y="153.510274"/>
     <use style="fill:#8b0000;fill-opacity:0.9;stroke:#000000;stroke-opacity:0;" x="227.183901" xlink:href="#mb3ef3cc634" y="165.570576"/>
     <use style="fill:#8b0000;fill-opacity:0.9;stroke:#000000;stroke-opacity:0;" x="232.445725" xlink:href="#mb3ef3cc634" y="164.021619"/>
     <use style="fill:#8b0000;fill-opacity:0.9;stroke:#000000;stroke-opacity:0;" x="239.812279" xlink:href="#mb3ef3cc634" y="176.554826"/>
     <use style="fill:#8b0000;fill-opacity:0.9;stroke:#000000;stroke-opacity:0;" x="240.338462" xlink:href="#mb3ef3cc634" y="170.789379"/>
     <use style="fill:#8b0000;fill-opacity:0.9;stroke:#000000;stroke-opacity:0;" x="249.283563" xlink:href="#mb3ef3cc634" y="133.90717"/>
     <use style="fill:#8b0000;fill-opacity:0.9;stroke:#000000;stroke-opacity:0;" x="251.914475" xlink:href="#mb3ef3cc634" y="128.062251"/>
     <use style="fill:#8b0000;fill-opacity:0.9;stroke:#000000;stroke-opacity:0;" x="252.440657" xlink:href="#mb3ef3cc634" y="103.518416"/>
     <use style="fill:#8b0000;fill-opacity:0.9;stroke:#000000;stroke-opacity:0;" x="252.966839" xlink:href="#mb3ef3cc634" y="150.249162"/>
     <use style="fill:#8b0000;fill-opacity:0.9;stroke:#000000;stroke-opacity:0;" x="256.650116" xlink:href="#mb3ef3cc634" y="126.463619"/>
     <use style="fill:#8b0000;fill-opacity:0.9;stroke:#000000;stroke-opacity:0;" x="260.859575" xlink:href="#mb3ef3cc634" y="140.552741"/>
     <use style="fill:#8b0000;fill-opacity:0.9;stroke:#000000;stroke-opacity:0;" x="263.490488" xlink:href="#mb3ef3cc634" y="154.526923"/>
     <use style="fill:#8b0000;fill-opacity:0.9;stroke:#000000;stroke-opacity:0;" x="264.01667" xlink:href="#mb3ef3cc634" y="88.695905"/>
     <use style="fill:#8b0000;fill-opacity:0.9;stroke:#000000;stroke-opacity:0;" x="269.804676" xlink:href="#mb3ef3cc634" y="111.202317"/>
     <use style="fill:#8b0000;fill-opacity:0.9;stroke:#000000;stroke-opacity:0;" x="277.17123" xlink:href="#mb3ef3cc634" y="114.680038"/>
     <use style="fill:#8b0000;fill-opacity:0.9;stroke:#000000;stroke-opacity:0;" x="277.697413" xlink:href="#mb3ef3cc634" y="127.265142"/>
     <use style="fill:#8b0000;fill-opacity:0.9;stroke:#000000;stroke-opacity:0;" x="279.802142" xlink:href="#mb3ef3cc634" y="186.450008"/>
     <use style="fill:#8b0000;fill-opacity:0.9;stroke:#000000;stroke-opacity:0;" x="287.694878" xlink:href="#mb3ef3cc634" y="207.482781"/>
     <use style="fill:#8b0000;fill-opacity:0.9;stroke:#000000;stroke-opacity:0;" x="290.32579" xlink:href="#mb3ef3cc634" y="149.4603"/>
     <use style="fill:#8b0000;fill-opacity:0.9;stroke:#000000;stroke-opacity:0;" x="290.851973" xlink:href="#mb3ef3cc634" y="145.002365"/>
     <use style="fill:#8b0000;fill-opacity:0.9;stroke:#000000;stroke-opacity:0;" x="295.061432" xlink:href="#mb3ef3cc634" y="125.704265"/>
     <use style="fill:#8b0000;fill-opacity:0.9;stroke:#000000;stroke-opacity:0;" x="313.477816" xlink:href="#mb3ef3cc634" y="192.342669"/>
     <use style="fill:#8b0000;fill-opacity:0.9;stroke:#000000;stroke-opacity:0;" x="315.582546" xlink:href="#mb3ef3cc634" y="168.461063"/>
     <use style="fill:#8b0000;fill-opacity:0.9;stroke:#000000;stroke-opacity:0;" x="320.318188" xlink:href="#mb3ef3cc634" y="137.462301"/>
     <use style="fill:#8b0000;fill-opacity:0.9;stroke:#000000;stroke-opacity:0;" x="321.370552" xlink:href="#mb3ef3cc634" y="194.104401"/>
     <use style="fill:#8b0000;fill-opacity:0.9;stroke:#000000;stroke-opacity:0;" x="325.053829" xlink:href="#mb3ef3cc634" y="109.220691"/>
     <use style="fill:#8b0000;fill-opacity:0.9;stroke:#000000;stroke-opacity:0;" x="329.263288" xlink:href="#mb3ef3cc634" y="185.69204"/>
     <use style="fill:#8b0000;fill-opacity:0.9;stroke:#000000;stroke-opacity:0;" x="336.629842" xlink:href="#mb3ef3cc634" y="261.216"/>
     <use style="fill:#8b0000;fill-opacity:0.9;stroke:#000000;stroke-opacity:0;" x="350.836767" xlink:href="#mb3ef3cc634" y="222.935113"/>
     <use style="fill:#8b0000;fill-opacity:0.9;stroke:#000000;stroke-opacity:0;" x="360.308051" xlink:href="#mb3ef3cc634" y="84.408866"/>
     <use style="fill:#8b0000;fill-opacity:0.9;stroke:#000000;stroke-opacity:0;" x="376.093523" xlink:href="#mb3ef3cc634" y="204.345758"/>
    </g>
   </g>
   <g id="line2d_19">
    <path clip-path="url(#p3d67f7d188)" d="M 51.438977 163.924872 
L 54.685523 163.169071 
L 57.932068 162.42305 
L 61.178614 161.686784 
L 64.425159 160.960107 
L 67.671705 160.242769 
L 70.91825 159.534491 
L 74.164795 158.834972 
L 77.411341 158.14377 
L 80.657886 157.460233 
L 83.904432 156.783717 
L 87.150977 156.11377 
L 90.397523 155.450278 
L 93.644068 154.793167 
L 96.890614 154.142378 
L 100.137159 153.498019 
L 103.383705 152.860631 
L 106.63025 152.230982 
L 109.876795 151.60976 
L 113.123341 151.000354 
L 116.369886 150.402996 
L 119.616432 149.818346 
L 122.862977 149.245941 
L 126.109523 148.696375 
L 129.356068 148.16609 
L 132.602614 147.647758 
L 135.849159 147.128764 
L 139.095705 146.626917 
L 142.34225 146.16034 
L 145.588795 145.743427 
L 148.835341 145.403645 
L 152.081886 145.17627 
L 155.328432 145.074352 
L 158.574977 145.084592 
L 161.821523 145.150778 
L 165.068068 145.247348 
L 168.314614 145.364829 
L 171.561159 145.461028 
L 174.807705 145.488469 
L 178.05425 145.459304 
L 181.300795 145.353293 
L 184.547341 145.198008 
L 187.793886 145.023297 
L 191.040432 144.855276 
L 194.286977 144.692762 
L 197.533523 144.540746 
L 200.780068 144.403218 
L 204.026614 144.307197 
L 207.273159 144.237738 
L 210.519705 144.194281 
L 213.76625 144.192897 
L 217.012795 144.231719 
L 220.259341 144.330052 
L 223.505886 144.472132 
L 226.752432 144.640614 
L 229.998977 144.861463 
L 233.245523 145.114166 
L 236.492068 145.406558 
L 239.738614 145.728817 
L 242.985159 146.091225 
L 246.231705 146.500825 
L 249.47825 146.969442 
L 252.724795 147.48409 
L 255.971341 148.044036 
L 259.217886 148.639769 
L 262.464432 149.274478 
L 265.710977 149.947011 
L 268.957523 150.639781 
L 272.204068 151.350273 
L 275.450614 152.074963 
L 278.697159 152.813003 
L 281.943705 153.561078 
L 285.19025 154.31716 
L 288.436795 155.082589 
L 291.683341 155.85585 
L 294.929886 156.636647 
L 298.176432 157.425012 
L 301.422977 158.221279 
L 304.669523 159.025872 
L 307.916068 159.839229 
L 311.162614 160.661773 
L 314.409159 161.493911 
L 317.655705 162.33593 
L 320.90225 163.187908 
L 324.148795 164.049914 
L 327.395341 164.922004 
L 330.641886 165.804378 
L 333.888432 166.697243 
L 337.134977 167.600692 
L 340.381523 168.514764 
L 343.628068 169.439394 
L 346.874614 170.374498 
L 350.121159 171.31999 
L 353.367705 172.275749 
L 356.61425 173.241415 
L 359.860795 174.216519 
L 363.107341 175.200632 
L 366.353886 176.19349 
L 369.600432 177.194893 
L 372.846977 178.204652 
L 376.093523 179.222584 
" style="fill:none;stroke:#8b0000;stroke-linecap:round;stroke-opacity:0.5;stroke-width:1.5;"/>
   </g>
   <g id="legend_1">
    <g id="patch_3">
     <path d="M 305.535625 43.490625 
L 385.32625 43.490625 
Q 387.32625 43.490625 387.32625 41.490625 
L 387.32625 14.2 
Q 387.32625 12.2 385.32625 12.2 
L 305.535625 12.2 
Q 303.535625 12.2 303.535625 14.2 
L 303.535625 41.490625 
Q 303.535625 43.490625 305.535625 43.490625 
z
" style="fill:#ffffff;opacity:0.8;stroke:#cccccc;stroke-linejoin:miter;"/>
    </g>
    <g id="line2d_20"/>
    <g id="line2d_21">
     <g>
      <use style="fill:#00008b;fill-opacity:0.9;stroke:#000000;stroke-opacity:0;" x="317.535625" xlink:href="#m02614f60c3" y="19.857812"/>
     </g>
    </g>
    <g id="text_18">
     <!-- non-STEM -->
     <g style="fill:#262626;" transform="translate(335.535625 23.357812)scale(0.1 -0.1)">
      <defs>
       <path d="M 422 0 
L 422 3319 
L 928 3319 
L 928 2847 
Q 1294 3394 1984 3394 
Q 2284 3394 2536 3286 
Q 2788 3178 2913 3003 
Q 3038 2828 3088 2588 
Q 3119 2431 3119 2041 
L 3119 0 
L 2556 0 
L 2556 2019 
Q 2556 2363 2490 2533 
Q 2425 2703 2258 2804 
Q 2091 2906 1866 2906 
Q 1506 2906 1245 2678 
Q 984 2450 984 1813 
L 984 0 
L 422 0 
z
" id="ArialMT-6e" transform="scale(0.015625)"/>
       <path d="M 203 1375 
L 203 1941 
L 1931 1941 
L 1931 1375 
L 203 1375 
z
" id="ArialMT-2d" transform="scale(0.015625)"/>
       <path d="M 288 1472 
L 859 1522 
Q 900 1178 1048 958 
Q 1197 738 1509 602 
Q 1822 466 2213 466 
Q 2559 466 2825 569 
Q 3091 672 3220 851 
Q 3350 1031 3350 1244 
Q 3350 1459 3225 1620 
Q 3100 1781 2813 1891 
Q 2628 1963 1997 2114 
Q 1366 2266 1113 2400 
Q 784 2572 623 2826 
Q 463 3081 463 3397 
Q 463 3744 659 4045 
Q 856 4347 1234 4503 
Q 1613 4659 2075 4659 
Q 2584 4659 2973 4495 
Q 3363 4331 3572 4012 
Q 3781 3694 3797 3291 
L 3216 3247 
Q 3169 3681 2898 3903 
Q 2628 4125 2100 4125 
Q 1550 4125 1298 3923 
Q 1047 3722 1047 3438 
Q 1047 3191 1225 3031 
Q 1400 2872 2139 2705 
Q 2878 2538 3153 2413 
Q 3553 2228 3743 1945 
Q 3934 1663 3934 1294 
Q 3934 928 3725 604 
Q 3516 281 3123 101 
Q 2731 -78 2241 -78 
Q 1619 -78 1198 103 
Q 778 284 539 648 
Q 300 1013 288 1472 
z
" id="ArialMT-53" transform="scale(0.015625)"/>
       <path d="M 1659 0 
L 1659 4041 
L 150 4041 
L 150 4581 
L 3781 4581 
L 3781 4041 
L 2266 4041 
L 2266 0 
L 1659 0 
z
" id="ArialMT-54" transform="scale(0.015625)"/>
       <path d="M 506 0 
L 506 4581 
L 3819 4581 
L 3819 4041 
L 1113 4041 
L 1113 2638 
L 3647 2638 
L 3647 2100 
L 1113 2100 
L 1113 541 
L 3925 541 
L 3925 0 
L 506 0 
z
" id="ArialMT-45" transform="scale(0.015625)"/>
       <path d="M 475 0 
L 475 4581 
L 1388 4581 
L 2472 1338 
Q 2622 884 2691 659 
Q 2769 909 2934 1394 
L 4031 4581 
L 4847 4581 
L 4847 0 
L 4263 0 
L 4263 3834 
L 2931 0 
L 2384 0 
L 1059 3900 
L 1059 0 
L 475 0 
z
" id="ArialMT-4d" transform="scale(0.015625)"/>
      </defs>
      <use xlink:href="#ArialMT-6e"/>
      <use x="55.615234" xlink:href="#ArialMT-6f"/>
      <use x="111.230469" xlink:href="#ArialMT-6e"/>
      <use x="166.845703" xlink:href="#ArialMT-2d"/>
      <use x="200.146484" xlink:href="#ArialMT-53"/>
      <use x="266.845703" xlink:href="#ArialMT-54"/>
      <use x="327.929688" xlink:href="#ArialMT-45"/>
      <use x="394.628906" xlink:href="#ArialMT-4d"/>
     </g>
    </g>
    <g id="line2d_22"/>
    <g id="line2d_23">
     <g>
      <use style="fill:#8b0000;fill-opacity:0.9;stroke:#000000;stroke-opacity:0;" x="317.535625" xlink:href="#mb3ef3cc634" y="34.003125"/>
     </g>
    </g>
    <g id="text_19">
     <!-- STEM -->
     <g style="fill:#262626;" transform="translate(335.535625 37.503125)scale(0.1 -0.1)">
      <use xlink:href="#ArialMT-53"/>
      <use x="66.699219" xlink:href="#ArialMT-54"/>
      <use x="127.783203" xlink:href="#ArialMT-45"/>
      <use x="194.482422" xlink:href="#ArialMT-4d"/>
     </g>
    </g>
   </g>
  </g>
  <g id="text_20">
   <!-- dynomight.net -->
   <g style="fill:#808080;opacity:0.5;" transform="translate(346.24625 297.504)scale(0.06 -0.06)">
    <defs>
     <path d="M 2681 3053 
L 2681 4863 
L 3256 4863 
L 3256 0 
L 2681 0 
L 2681 441 
Q 2538 181 2298 45 
Q 2059 -91 1747 -91 
Q 1113 -91 748 401 
Q 384 894 384 1759 
Q 384 2613 750 3098 
Q 1116 3584 1747 3584 
Q 2063 3584 2303 3448 
Q 2544 3313 2681 3053 
z
M 991 1747 
Q 991 1078 1203 737 
Q 1416 397 1831 397 
Q 2247 397 2464 740 
Q 2681 1084 2681 1747 
Q 2681 2413 2464 2755 
Q 2247 3097 1831 3097 
Q 1416 3097 1203 2756 
Q 991 2416 991 1747 
z
" id="DejaVuSansMono-64" transform="scale(0.015625)"/>
     <path d="M 2681 1125 
Q 2538 759 2316 163 
Q 2006 -663 1900 -844 
Q 1756 -1088 1540 -1209 
Q 1325 -1331 1038 -1331 
L 575 -1331 
L 575 -850 
L 916 -850 
Q 1169 -850 1312 -703 
Q 1456 -556 1678 56 
L 325 3500 
L 934 3500 
L 1972 763 
L 2994 3500 
L 3603 3500 
L 2681 1125 
z
" id="DejaVuSansMono-79" transform="scale(0.015625)"/>
     <path d="M 3284 2169 
L 3284 0 
L 2706 0 
L 2706 2169 
Q 2706 2641 2540 2862 
Q 2375 3084 2022 3084 
Q 1619 3084 1401 2798 
Q 1184 2513 1184 1978 
L 1184 0 
L 609 0 
L 609 3500 
L 1184 3500 
L 1184 2975 
Q 1338 3275 1600 3429 
Q 1863 3584 2222 3584 
Q 2756 3584 3020 3232 
Q 3284 2881 3284 2169 
z
" id="DejaVuSansMono-6e" transform="scale(0.015625)"/>
     <path d="M 1925 3097 
Q 1488 3097 1263 2756 
Q 1038 2416 1038 1747 
Q 1038 1081 1263 739 
Q 1488 397 1925 397 
Q 2366 397 2591 739 
Q 2816 1081 2816 1747 
Q 2816 2416 2591 2756 
Q 2366 3097 1925 3097 
z
M 1925 3584 
Q 2653 3584 3039 3112 
Q 3425 2641 3425 1747 
Q 3425 850 3040 379 
Q 2656 -91 1925 -91 
Q 1197 -91 812 379 
Q 428 850 428 1747 
Q 428 2641 812 3112 
Q 1197 3584 1925 3584 
z
" id="DejaVuSansMono-6f" transform="scale(0.015625)"/>
     <path d="M 2113 3144 
Q 2219 3369 2383 3476 
Q 2547 3584 2778 3584 
Q 3200 3584 3373 3257 
Q 3547 2931 3547 2028 
L 3547 0 
L 3022 0 
L 3022 2003 
Q 3022 2744 2939 2923 
Q 2856 3103 2638 3103 
Q 2388 3103 2295 2911 
Q 2203 2719 2203 2003 
L 2203 0 
L 1678 0 
L 1678 2003 
Q 1678 2753 1589 2928 
Q 1500 3103 1269 3103 
Q 1041 3103 952 2911 
Q 863 2719 863 2003 
L 863 0 
L 341 0 
L 341 3500 
L 863 3500 
L 863 3200 
Q 966 3388 1120 3486 
Q 1275 3584 1472 3584 
Q 1709 3584 1867 3475 
Q 2025 3366 2113 3144 
z
" id="DejaVuSansMono-6d" transform="scale(0.015625)"/>
     <path d="M 800 3500 
L 2272 3500 
L 2272 447 
L 3413 447 
L 3413 0 
L 556 0 
L 556 447 
L 1697 447 
L 1697 3053 
L 800 3053 
L 800 3500 
z
M 1697 4863 
L 2272 4863 
L 2272 4134 
L 1697 4134 
L 1697 4863 
z
" id="DejaVuSansMono-69" transform="scale(0.015625)"/>
     <path d="M 2681 1778 
Q 2681 2425 2470 2761 
Q 2259 3097 1856 3097 
Q 1434 3097 1212 2761 
Q 991 2425 991 1778 
Q 991 1131 1214 792 
Q 1438 453 1863 453 
Q 2259 453 2470 793 
Q 2681 1134 2681 1778 
z
M 3256 225 
Q 3256 -563 2884 -969 
Q 2513 -1375 1791 -1375 
Q 1553 -1375 1293 -1331 
Q 1034 -1288 775 -1203 
L 775 -634 
Q 1081 -778 1331 -847 
Q 1581 -916 1791 -916 
Q 2256 -916 2468 -662 
Q 2681 -409 2681 141 
L 2681 166 
L 2681 556 
Q 2544 263 2306 119 
Q 2069 -25 1728 -25 
Q 1116 -25 750 465 
Q 384 956 384 1778 
Q 384 2603 750 3093 
Q 1116 3584 1728 3584 
Q 2066 3584 2300 3450 
Q 2534 3316 2681 3034 
L 2681 3488 
L 3256 3488 
L 3256 225 
z
" id="DejaVuSansMono-67" transform="scale(0.015625)"/>
     <path d="M 3284 2169 
L 3284 0 
L 2706 0 
L 2706 2169 
Q 2706 2641 2540 2862 
Q 2375 3084 2022 3084 
Q 1619 3084 1401 2798 
Q 1184 2513 1184 1978 
L 1184 0 
L 609 0 
L 609 4863 
L 1184 4863 
L 1184 2975 
Q 1338 3275 1600 3429 
Q 1863 3584 2222 3584 
Q 2756 3584 3020 3232 
Q 3284 2881 3284 2169 
z
" id="DejaVuSansMono-68" transform="scale(0.015625)"/>
     <path d="M 1919 4494 
L 1919 3500 
L 3225 3500 
L 3225 3053 
L 1919 3053 
L 1919 1153 
Q 1919 766 2066 612 
Q 2213 459 2578 459 
L 3225 459 
L 3225 0 
L 2522 0 
Q 1875 0 1609 259 
Q 1344 519 1344 1153 
L 1344 3053 
L 409 3053 
L 409 3500 
L 1344 3500 
L 1344 4494 
L 1919 4494 
z
" id="DejaVuSansMono-74" transform="scale(0.015625)"/>
     <path d="M 1528 953 
L 2316 953 
L 2316 0 
L 1528 0 
L 1528 953 
z
" id="DejaVuSansMono-2e" transform="scale(0.015625)"/>
     <path d="M 3475 1894 
L 3475 1613 
L 984 1613 
L 984 1594 
Q 984 1022 1282 709 
Q 1581 397 2125 397 
Q 2400 397 2700 484 
Q 3000 572 3341 750 
L 3341 178 
Q 3013 44 2708 -23 
Q 2403 -91 2119 -91 
Q 1303 -91 843 398 
Q 384 888 384 1747 
Q 384 2584 834 3084 
Q 1284 3584 2034 3584 
Q 2703 3584 3089 3131 
Q 3475 2678 3475 1894 
z
M 2900 2063 
Q 2888 2569 2661 2833 
Q 2434 3097 2009 3097 
Q 1594 3097 1325 2822 
Q 1056 2547 1006 2059 
L 2900 2063 
z
" id="DejaVuSansMono-65" transform="scale(0.015625)"/>
    </defs>
    <use xlink:href="#DejaVuSansMono-64"/>
    <use x="60.205078" xlink:href="#DejaVuSansMono-79"/>
    <use x="120.410156" xlink:href="#DejaVuSansMono-6e"/>
    <use x="180.615234" xlink:href="#DejaVuSansMono-6f"/>
    <use x="240.820312" xlink:href="#DejaVuSansMono-6d"/>
    <use x="301.025391" xlink:href="#DejaVuSansMono-69"/>
    <use x="361.230469" xlink:href="#DejaVuSansMono-67"/>
    <use x="421.435547" xlink:href="#DejaVuSansMono-68"/>
    <use x="481.640625" xlink:href="#DejaVuSansMono-74"/>
    <use x="541.845703" xlink:href="#DejaVuSansMono-2e"/>
    <use x="602.050781" xlink:href="#DejaVuSansMono-6e"/>
    <use x="662.255859" xlink:href="#DejaVuSansMono-65"/>
    <use x="722.460938" xlink:href="#DejaVuSansMono-74"/>
   </g>
  </g>
 </g>
 <defs>
  <clipPath id="p3d67f7d188">
   <rect height="266.112" width="357.12" x="35.20625" y="7.2"/>
  </clipPath>
 </defs>
</svg>
