<?xml version="1.0" encoding="utf-8" standalone="no"?>
<!DOCTYPE svg PUBLIC "-//W3C//DTD SVG 1.1//EN"
  "http://www.w3.org/Graphics/SVG/1.1/DTD/svg11.dtd">
<svg height="306.302625pt" version="1.1" viewBox="0 0 404.029278 306.302625" width="404.029278pt" xmlns="http://www.w3.org/2000/svg" xmlns:xlink="http://www.w3.org/1999/xlink">
 <metadata>
  <rdf:RDF xmlns:cc="http://creativecommons.org/ns#" xmlns:dc="http://purl.org/dc/elements/1.1/" xmlns:rdf="http://www.w3.org/1999/02/22-rdf-syntax-ns#">
   <cc:Work>
    <dc:type rdf:resource="http://purl.org/dc/dcmitype/StillImage"/>
    <dc:date>2021-07-01T15:58:21.649362</dc:date>
    <dc:format>image/svg+xml</dc:format>
    <dc:creator>
     <cc:Agent>
      <dc:title>Matplotlib v3.4.1, https://matplotlib.org/</dc:title>
     </cc:Agent>
    </dc:creator>
   </cc:Work>
  </rdf:RDF>
 </metadata>
 <defs>
  <style type="text/css">*{stroke-linecap:butt;stroke-linejoin:round;}</style>
 </defs>
 <g id="figure_1">
  <g id="patch_1">
   <path d="M 0 306.302625 
L 404.029278 306.302625 
L 404.029278 0 
L 0 0 
z
" style="fill:#ffffff;"/>
  </g>
  <g id="axes_1">
   <g id="patch_2">
    <path d="M 35.20625 273.312 
L 392.32625 273.312 
L 392.32625 7.2 
L 35.20625 7.2 
z
" style="fill:#ffffff;"/>
   </g>
   <g id="matplotlib.axis_1">
    <g id="xtick_1">
     <g id="line2d_1"/>
     <g id="text_1">
      <!-- −0.1 -->
      <g style="fill:#262626;" transform="translate(35.365075 283.969812)scale(0.1 -0.1)">
       <defs>
        <path d="M 3381 1997 
L 356 1997 
L 356 2522 
L 3381 2522 
L 3381 1997 
z
" id="ArialMT-2212" transform="scale(0.015625)"/>
        <path d="M 266 2259 
Q 266 3072 433 3567 
Q 600 4063 929 4331 
Q 1259 4600 1759 4600 
Q 2128 4600 2406 4451 
Q 2684 4303 2865 4023 
Q 3047 3744 3150 3342 
Q 3253 2941 3253 2259 
Q 3253 1453 3087 958 
Q 2922 463 2592 192 
Q 2263 -78 1759 -78 
Q 1097 -78 719 397 
Q 266 969 266 2259 
z
M 844 2259 
Q 844 1131 1108 757 
Q 1372 384 1759 384 
Q 2147 384 2411 759 
Q 2675 1134 2675 2259 
Q 2675 3391 2411 3762 
Q 2147 4134 1753 4134 
Q 1366 4134 1134 3806 
Q 844 3388 844 2259 
z
" id="ArialMT-30" transform="scale(0.015625)"/>
        <path d="M 581 0 
L 581 641 
L 1222 641 
L 1222 0 
L 581 0 
z
" id="ArialMT-2e" transform="scale(0.015625)"/>
        <path d="M 2384 0 
L 1822 0 
L 1822 3584 
Q 1619 3391 1289 3197 
Q 959 3003 697 2906 
L 697 3450 
Q 1169 3672 1522 3987 
Q 1875 4303 2022 4600 
L 2384 4600 
L 2384 0 
z
" id="ArialMT-31" transform="scale(0.015625)"/>
       </defs>
       <use xlink:href="#ArialMT-2212"/>
       <use x="58.398438" xlink:href="#ArialMT-30"/>
       <use x="114.013672" xlink:href="#ArialMT-2e"/>
       <use x="141.796875" xlink:href="#ArialMT-31"/>
      </g>
     </g>
    </g>
    <g id="xtick_2">
     <g id="line2d_2"/>
     <g id="text_2">
      <!-- 0.0 -->
      <g style="fill:#262626;" transform="translate(107.214165 283.969812)scale(0.1 -0.1)">
       <use xlink:href="#ArialMT-30"/>
       <use x="55.615234" xlink:href="#ArialMT-2e"/>
       <use x="83.398438" xlink:href="#ArialMT-30"/>
      </g>
     </g>
    </g>
    <g id="xtick_3">
     <g id="line2d_3"/>
     <g id="text_3">
      <!-- 0.1 -->
      <g style="fill:#262626;" transform="translate(176.142944 283.969812)scale(0.1 -0.1)">
       <use xlink:href="#ArialMT-30"/>
       <use x="55.615234" xlink:href="#ArialMT-2e"/>
       <use x="83.398438" xlink:href="#ArialMT-31"/>
      </g>
     </g>
    </g>
    <g id="xtick_4">
     <g id="line2d_4"/>
     <g id="text_4">
      <!-- 0.2 -->
      <g style="fill:#262626;" transform="translate(245.071722 283.969812)scale(0.1 -0.1)">
       <defs>
        <path d="M 3222 541 
L 3222 0 
L 194 0 
Q 188 203 259 391 
Q 375 700 629 1000 
Q 884 1300 1366 1694 
Q 2113 2306 2375 2664 
Q 2638 3022 2638 3341 
Q 2638 3675 2398 3904 
Q 2159 4134 1775 4134 
Q 1369 4134 1125 3890 
Q 881 3647 878 3216 
L 300 3275 
Q 359 3922 746 4261 
Q 1134 4600 1788 4600 
Q 2447 4600 2831 4234 
Q 3216 3869 3216 3328 
Q 3216 3053 3103 2787 
Q 2991 2522 2730 2228 
Q 2469 1934 1863 1422 
Q 1356 997 1212 845 
Q 1069 694 975 541 
L 3222 541 
z
" id="ArialMT-32" transform="scale(0.015625)"/>
       </defs>
       <use xlink:href="#ArialMT-30"/>
       <use x="55.615234" xlink:href="#ArialMT-2e"/>
       <use x="83.398438" xlink:href="#ArialMT-32"/>
      </g>
     </g>
    </g>
    <g id="xtick_5">
     <g id="line2d_5"/>
     <g id="text_5">
      <!-- 0.3 -->
      <g style="fill:#262626;" transform="translate(314.0005 283.969812)scale(0.1 -0.1)">
       <defs>
        <path d="M 269 1209 
L 831 1284 
Q 928 806 1161 595 
Q 1394 384 1728 384 
Q 2125 384 2398 659 
Q 2672 934 2672 1341 
Q 2672 1728 2419 1979 
Q 2166 2231 1775 2231 
Q 1616 2231 1378 2169 
L 1441 2663 
Q 1497 2656 1531 2656 
Q 1891 2656 2178 2843 
Q 2466 3031 2466 3422 
Q 2466 3731 2256 3934 
Q 2047 4138 1716 4138 
Q 1388 4138 1169 3931 
Q 950 3725 888 3313 
L 325 3413 
Q 428 3978 793 4289 
Q 1159 4600 1703 4600 
Q 2078 4600 2393 4439 
Q 2709 4278 2876 4000 
Q 3044 3722 3044 3409 
Q 3044 3113 2884 2869 
Q 2725 2625 2413 2481 
Q 2819 2388 3044 2092 
Q 3269 1797 3269 1353 
Q 3269 753 2831 336 
Q 2394 -81 1725 -81 
Q 1122 -81 723 278 
Q 325 638 269 1209 
z
" id="ArialMT-33" transform="scale(0.015625)"/>
       </defs>
       <use xlink:href="#ArialMT-30"/>
       <use x="55.615234" xlink:href="#ArialMT-2e"/>
       <use x="83.398438" xlink:href="#ArialMT-33"/>
      </g>
     </g>
    </g>
    <g id="xtick_6">
     <g id="line2d_6"/>
     <g id="text_6">
      <!-- 0.4 -->
      <g style="fill:#262626;" transform="translate(382.929278 283.969812)scale(0.1 -0.1)">
       <defs>
        <path d="M 2069 0 
L 2069 1097 
L 81 1097 
L 81 1613 
L 2172 4581 
L 2631 4581 
L 2631 1613 
L 3250 1613 
L 3250 1097 
L 2631 1097 
L 2631 0 
L 2069 0 
z
M 2069 1613 
L 2069 3678 
L 634 1613 
L 2069 1613 
z
" id="ArialMT-34" transform="scale(0.015625)"/>
       </defs>
       <use xlink:href="#ArialMT-30"/>
       <use x="55.615234" xlink:href="#ArialMT-2e"/>
       <use x="83.398438" xlink:href="#ArialMT-34"/>
      </g>
     </g>
    </g>
    <g id="text_7">
     <!-- stereotypes -->
     <g style="fill:#262626;" transform="translate(187.920938 296.997937)scale(0.1 -0.1)">
      <defs>
       <path d="M 197 991 
L 753 1078 
Q 800 744 1014 566 
Q 1228 388 1613 388 
Q 2000 388 2187 545 
Q 2375 703 2375 916 
Q 2375 1106 2209 1216 
Q 2094 1291 1634 1406 
Q 1016 1563 777 1677 
Q 538 1791 414 1992 
Q 291 2194 291 2438 
Q 291 2659 392 2848 
Q 494 3038 669 3163 
Q 800 3259 1026 3326 
Q 1253 3394 1513 3394 
Q 1903 3394 2198 3281 
Q 2494 3169 2634 2976 
Q 2775 2784 2828 2463 
L 2278 2388 
Q 2241 2644 2061 2787 
Q 1881 2931 1553 2931 
Q 1166 2931 1000 2803 
Q 834 2675 834 2503 
Q 834 2394 903 2306 
Q 972 2216 1119 2156 
Q 1203 2125 1616 2013 
Q 2213 1853 2448 1751 
Q 2684 1650 2818 1456 
Q 2953 1263 2953 975 
Q 2953 694 2789 445 
Q 2625 197 2315 61 
Q 2006 -75 1616 -75 
Q 969 -75 630 194 
Q 291 463 197 991 
z
" id="ArialMT-73" transform="scale(0.015625)"/>
       <path d="M 1650 503 
L 1731 6 
Q 1494 -44 1306 -44 
Q 1000 -44 831 53 
Q 663 150 594 308 
Q 525 466 525 972 
L 525 2881 
L 113 2881 
L 113 3319 
L 525 3319 
L 525 4141 
L 1084 4478 
L 1084 3319 
L 1650 3319 
L 1650 2881 
L 1084 2881 
L 1084 941 
Q 1084 700 1114 631 
Q 1144 563 1211 522 
Q 1278 481 1403 481 
Q 1497 481 1650 503 
z
" id="ArialMT-74" transform="scale(0.015625)"/>
       <path d="M 2694 1069 
L 3275 997 
Q 3138 488 2766 206 
Q 2394 -75 1816 -75 
Q 1088 -75 661 373 
Q 234 822 234 1631 
Q 234 2469 665 2931 
Q 1097 3394 1784 3394 
Q 2450 3394 2872 2941 
Q 3294 2488 3294 1666 
Q 3294 1616 3291 1516 
L 816 1516 
Q 847 969 1125 678 
Q 1403 388 1819 388 
Q 2128 388 2347 550 
Q 2566 713 2694 1069 
z
M 847 1978 
L 2700 1978 
Q 2663 2397 2488 2606 
Q 2219 2931 1791 2931 
Q 1403 2931 1139 2672 
Q 875 2413 847 1978 
z
" id="ArialMT-65" transform="scale(0.015625)"/>
       <path d="M 416 0 
L 416 3319 
L 922 3319 
L 922 2816 
Q 1116 3169 1280 3281 
Q 1444 3394 1641 3394 
Q 1925 3394 2219 3213 
L 2025 2691 
Q 1819 2813 1613 2813 
Q 1428 2813 1281 2702 
Q 1134 2591 1072 2394 
Q 978 2094 978 1738 
L 978 0 
L 416 0 
z
" id="ArialMT-72" transform="scale(0.015625)"/>
       <path d="M 213 1659 
Q 213 2581 725 3025 
Q 1153 3394 1769 3394 
Q 2453 3394 2887 2945 
Q 3322 2497 3322 1706 
Q 3322 1066 3130 698 
Q 2938 331 2570 128 
Q 2203 -75 1769 -75 
Q 1072 -75 642 372 
Q 213 819 213 1659 
z
M 791 1659 
Q 791 1022 1069 705 
Q 1347 388 1769 388 
Q 2188 388 2466 706 
Q 2744 1025 2744 1678 
Q 2744 2294 2464 2611 
Q 2184 2928 1769 2928 
Q 1347 2928 1069 2612 
Q 791 2297 791 1659 
z
" id="ArialMT-6f" transform="scale(0.015625)"/>
       <path d="M 397 -1278 
L 334 -750 
Q 519 -800 656 -800 
Q 844 -800 956 -737 
Q 1069 -675 1141 -563 
Q 1194 -478 1313 -144 
Q 1328 -97 1363 -6 
L 103 3319 
L 709 3319 
L 1400 1397 
Q 1534 1031 1641 628 
Q 1738 1016 1872 1384 
L 2581 3319 
L 3144 3319 
L 1881 -56 
Q 1678 -603 1566 -809 
Q 1416 -1088 1222 -1217 
Q 1028 -1347 759 -1347 
Q 597 -1347 397 -1278 
z
" id="ArialMT-79" transform="scale(0.015625)"/>
       <path d="M 422 -1272 
L 422 3319 
L 934 3319 
L 934 2888 
Q 1116 3141 1344 3267 
Q 1572 3394 1897 3394 
Q 2322 3394 2647 3175 
Q 2972 2956 3137 2557 
Q 3303 2159 3303 1684 
Q 3303 1175 3120 767 
Q 2938 359 2589 142 
Q 2241 -75 1856 -75 
Q 1575 -75 1351 44 
Q 1128 163 984 344 
L 984 -1272 
L 422 -1272 
z
M 931 1641 
Q 931 1000 1190 694 
Q 1450 388 1819 388 
Q 2194 388 2461 705 
Q 2728 1022 2728 1688 
Q 2728 2322 2467 2637 
Q 2206 2953 1844 2953 
Q 1484 2953 1207 2617 
Q 931 2281 931 1641 
z
" id="ArialMT-70" transform="scale(0.015625)"/>
      </defs>
      <use xlink:href="#ArialMT-73"/>
      <use x="50" xlink:href="#ArialMT-74"/>
      <use x="77.783203" xlink:href="#ArialMT-65"/>
      <use x="133.398438" xlink:href="#ArialMT-72"/>
      <use x="166.699219" xlink:href="#ArialMT-65"/>
      <use x="222.314453" xlink:href="#ArialMT-6f"/>
      <use x="277.929688" xlink:href="#ArialMT-74"/>
      <use x="305.712891" xlink:href="#ArialMT-79"/>
      <use x="355.712891" xlink:href="#ArialMT-70"/>
      <use x="411.328125" xlink:href="#ArialMT-65"/>
      <use x="466.943359" xlink:href="#ArialMT-73"/>
     </g>
    </g>
   </g>
   <g id="matplotlib.axis_2">
    <g id="ytick_1">
     <g id="line2d_7"/>
     <g id="text_8">
      <!-- 10 -->
      <g style="fill:#262626;" transform="translate(20.584375 240.014116)scale(0.1 -0.1)">
       <use xlink:href="#ArialMT-31"/>
       <use x="55.615234" xlink:href="#ArialMT-30"/>
      </g>
     </g>
    </g>
    <g id="ytick_2">
     <g id="line2d_8"/>
     <g id="text_9">
      <!-- 20 -->
      <g style="fill:#262626;" transform="translate(20.584375 187.28903)scale(0.1 -0.1)">
       <use xlink:href="#ArialMT-32"/>
       <use x="55.615234" xlink:href="#ArialMT-30"/>
      </g>
     </g>
    </g>
    <g id="ytick_3">
     <g id="line2d_9"/>
     <g id="text_10">
      <!-- 30 -->
      <g style="fill:#262626;" transform="translate(20.584375 134.563944)scale(0.1 -0.1)">
       <use xlink:href="#ArialMT-33"/>
       <use x="55.615234" xlink:href="#ArialMT-30"/>
      </g>
     </g>
    </g>
    <g id="ytick_4">
     <g id="line2d_10"/>
     <g id="text_11">
      <!-- 40 -->
      <g style="fill:#262626;" transform="translate(20.584375 81.838857)scale(0.1 -0.1)">
       <use xlink:href="#ArialMT-34"/>
       <use x="55.615234" xlink:href="#ArialMT-30"/>
      </g>
     </g>
    </g>
    <g id="ytick_5">
     <g id="line2d_11"/>
     <g id="text_12">
      <!-- 50 -->
      <g style="fill:#262626;" transform="translate(20.584375 29.113771)scale(0.1 -0.1)">
       <defs>
        <path d="M 266 1200 
L 856 1250 
Q 922 819 1161 601 
Q 1400 384 1738 384 
Q 2144 384 2425 690 
Q 2706 997 2706 1503 
Q 2706 1984 2436 2262 
Q 2166 2541 1728 2541 
Q 1456 2541 1237 2417 
Q 1019 2294 894 2097 
L 366 2166 
L 809 4519 
L 3088 4519 
L 3088 3981 
L 1259 3981 
L 1013 2750 
Q 1425 3038 1878 3038 
Q 2478 3038 2890 2622 
Q 3303 2206 3303 1553 
Q 3303 931 2941 478 
Q 2500 -78 1738 -78 
Q 1113 -78 717 272 
Q 322 622 266 1200 
z
" id="ArialMT-35" transform="scale(0.015625)"/>
       </defs>
       <use xlink:href="#ArialMT-35"/>
       <use x="55.615234" xlink:href="#ArialMT-30"/>
      </g>
     </g>
    </g>
    <g id="text_13">
     <!-- female share of engineering researchers -->
     <g style="fill:#262626;" transform="translate(14.479688 230.021625)rotate(-90)scale(0.1 -0.1)">
      <defs>
       <path d="M 556 0 
L 556 2881 
L 59 2881 
L 59 3319 
L 556 3319 
L 556 3672 
Q 556 4006 616 4169 
Q 697 4388 901 4523 
Q 1106 4659 1475 4659 
Q 1713 4659 2000 4603 
L 1916 4113 
Q 1741 4144 1584 4144 
Q 1328 4144 1222 4034 
Q 1116 3925 1116 3625 
L 1116 3319 
L 1763 3319 
L 1763 2881 
L 1116 2881 
L 1116 0 
L 556 0 
z
" id="ArialMT-66" transform="scale(0.015625)"/>
       <path d="M 422 0 
L 422 3319 
L 925 3319 
L 925 2853 
Q 1081 3097 1340 3245 
Q 1600 3394 1931 3394 
Q 2300 3394 2536 3241 
Q 2772 3088 2869 2813 
Q 3263 3394 3894 3394 
Q 4388 3394 4653 3120 
Q 4919 2847 4919 2278 
L 4919 0 
L 4359 0 
L 4359 2091 
Q 4359 2428 4304 2576 
Q 4250 2725 4106 2815 
Q 3963 2906 3769 2906 
Q 3419 2906 3187 2673 
Q 2956 2441 2956 1928 
L 2956 0 
L 2394 0 
L 2394 2156 
Q 2394 2531 2256 2718 
Q 2119 2906 1806 2906 
Q 1569 2906 1367 2781 
Q 1166 2656 1075 2415 
Q 984 2175 984 1722 
L 984 0 
L 422 0 
z
" id="ArialMT-6d" transform="scale(0.015625)"/>
       <path d="M 2588 409 
Q 2275 144 1986 34 
Q 1697 -75 1366 -75 
Q 819 -75 525 192 
Q 231 459 231 875 
Q 231 1119 342 1320 
Q 453 1522 633 1644 
Q 813 1766 1038 1828 
Q 1203 1872 1538 1913 
Q 2219 1994 2541 2106 
Q 2544 2222 2544 2253 
Q 2544 2597 2384 2738 
Q 2169 2928 1744 2928 
Q 1347 2928 1158 2789 
Q 969 2650 878 2297 
L 328 2372 
Q 403 2725 575 2942 
Q 747 3159 1072 3276 
Q 1397 3394 1825 3394 
Q 2250 3394 2515 3294 
Q 2781 3194 2906 3042 
Q 3031 2891 3081 2659 
Q 3109 2516 3109 2141 
L 3109 1391 
Q 3109 606 3145 398 
Q 3181 191 3288 0 
L 2700 0 
Q 2613 175 2588 409 
z
M 2541 1666 
Q 2234 1541 1622 1453 
Q 1275 1403 1131 1340 
Q 988 1278 909 1158 
Q 831 1038 831 891 
Q 831 666 1001 516 
Q 1172 366 1500 366 
Q 1825 366 2078 508 
Q 2331 650 2450 897 
Q 2541 1088 2541 1459 
L 2541 1666 
z
" id="ArialMT-61" transform="scale(0.015625)"/>
       <path d="M 409 0 
L 409 4581 
L 972 4581 
L 972 0 
L 409 0 
z
" id="ArialMT-6c" transform="scale(0.015625)"/>
       <path id="ArialMT-20" transform="scale(0.015625)"/>
       <path d="M 422 0 
L 422 4581 
L 984 4581 
L 984 2938 
Q 1378 3394 1978 3394 
Q 2347 3394 2619 3248 
Q 2891 3103 3008 2847 
Q 3125 2591 3125 2103 
L 3125 0 
L 2563 0 
L 2563 2103 
Q 2563 2525 2380 2717 
Q 2197 2909 1863 2909 
Q 1613 2909 1392 2779 
Q 1172 2650 1078 2428 
Q 984 2206 984 1816 
L 984 0 
L 422 0 
z
" id="ArialMT-68" transform="scale(0.015625)"/>
       <path d="M 422 0 
L 422 3319 
L 928 3319 
L 928 2847 
Q 1294 3394 1984 3394 
Q 2284 3394 2536 3286 
Q 2788 3178 2913 3003 
Q 3038 2828 3088 2588 
Q 3119 2431 3119 2041 
L 3119 0 
L 2556 0 
L 2556 2019 
Q 2556 2363 2490 2533 
Q 2425 2703 2258 2804 
Q 2091 2906 1866 2906 
Q 1506 2906 1245 2678 
Q 984 2450 984 1813 
L 984 0 
L 422 0 
z
" id="ArialMT-6e" transform="scale(0.015625)"/>
       <path d="M 319 -275 
L 866 -356 
Q 900 -609 1056 -725 
Q 1266 -881 1628 -881 
Q 2019 -881 2231 -725 
Q 2444 -569 2519 -288 
Q 2563 -116 2559 434 
Q 2191 0 1641 0 
Q 956 0 581 494 
Q 206 988 206 1678 
Q 206 2153 378 2554 
Q 550 2956 876 3175 
Q 1203 3394 1644 3394 
Q 2231 3394 2613 2919 
L 2613 3319 
L 3131 3319 
L 3131 450 
Q 3131 -325 2973 -648 
Q 2816 -972 2473 -1159 
Q 2131 -1347 1631 -1347 
Q 1038 -1347 672 -1080 
Q 306 -813 319 -275 
z
M 784 1719 
Q 784 1066 1043 766 
Q 1303 466 1694 466 
Q 2081 466 2343 764 
Q 2606 1063 2606 1700 
Q 2606 2309 2336 2618 
Q 2066 2928 1684 2928 
Q 1309 2928 1046 2623 
Q 784 2319 784 1719 
z
" id="ArialMT-67" transform="scale(0.015625)"/>
       <path d="M 425 3934 
L 425 4581 
L 988 4581 
L 988 3934 
L 425 3934 
z
M 425 0 
L 425 3319 
L 988 3319 
L 988 0 
L 425 0 
z
" id="ArialMT-69" transform="scale(0.015625)"/>
       <path d="M 2588 1216 
L 3141 1144 
Q 3050 572 2676 248 
Q 2303 -75 1759 -75 
Q 1078 -75 664 370 
Q 250 816 250 1647 
Q 250 2184 428 2587 
Q 606 2991 970 3192 
Q 1334 3394 1763 3394 
Q 2303 3394 2647 3120 
Q 2991 2847 3088 2344 
L 2541 2259 
Q 2463 2594 2264 2762 
Q 2066 2931 1784 2931 
Q 1359 2931 1093 2626 
Q 828 2322 828 1663 
Q 828 994 1084 691 
Q 1341 388 1753 388 
Q 2084 388 2306 591 
Q 2528 794 2588 1216 
z
" id="ArialMT-63" transform="scale(0.015625)"/>
      </defs>
      <use xlink:href="#ArialMT-66"/>
      <use x="27.783203" xlink:href="#ArialMT-65"/>
      <use x="83.398438" xlink:href="#ArialMT-6d"/>
      <use x="166.699219" xlink:href="#ArialMT-61"/>
      <use x="222.314453" xlink:href="#ArialMT-6c"/>
      <use x="244.53125" xlink:href="#ArialMT-65"/>
      <use x="300.146484" xlink:href="#ArialMT-20"/>
      <use x="327.929688" xlink:href="#ArialMT-73"/>
      <use x="377.929688" xlink:href="#ArialMT-68"/>
      <use x="433.544922" xlink:href="#ArialMT-61"/>
      <use x="489.160156" xlink:href="#ArialMT-72"/>
      <use x="522.460938" xlink:href="#ArialMT-65"/>
      <use x="578.076172" xlink:href="#ArialMT-20"/>
      <use x="605.859375" xlink:href="#ArialMT-6f"/>
      <use x="661.474609" xlink:href="#ArialMT-66"/>
      <use x="689.257812" xlink:href="#ArialMT-20"/>
      <use x="717.041016" xlink:href="#ArialMT-65"/>
      <use x="772.65625" xlink:href="#ArialMT-6e"/>
      <use x="828.271484" xlink:href="#ArialMT-67"/>
      <use x="883.886719" xlink:href="#ArialMT-69"/>
      <use x="906.103516" xlink:href="#ArialMT-6e"/>
      <use x="961.71875" xlink:href="#ArialMT-65"/>
      <use x="1017.333984" xlink:href="#ArialMT-65"/>
      <use x="1072.949219" xlink:href="#ArialMT-72"/>
      <use x="1106.25" xlink:href="#ArialMT-69"/>
      <use x="1128.466797" xlink:href="#ArialMT-6e"/>
      <use x="1184.082031" xlink:href="#ArialMT-67"/>
      <use x="1239.697266" xlink:href="#ArialMT-20"/>
      <use x="1267.480469" xlink:href="#ArialMT-72"/>
      <use x="1300.78125" xlink:href="#ArialMT-65"/>
      <use x="1356.396484" xlink:href="#ArialMT-73"/>
      <use x="1406.396484" xlink:href="#ArialMT-65"/>
      <use x="1462.011719" xlink:href="#ArialMT-61"/>
      <use x="1517.626953" xlink:href="#ArialMT-72"/>
      <use x="1550.927734" xlink:href="#ArialMT-63"/>
      <use x="1600.927734" xlink:href="#ArialMT-68"/>
      <use x="1656.542969" xlink:href="#ArialMT-65"/>
      <use x="1712.158203" xlink:href="#ArialMT-72"/>
      <use x="1745.458984" xlink:href="#ArialMT-73"/>
     </g>
    </g>
   </g>
   <g id="PolyCollection_1">
    <path clip-path="url(#p738d43f620)" d="M 51.438977 19.296 
L 51.438977 187.2213 
L 54.685523 185.686198 
L 57.932068 184.280975 
L 61.178614 182.241866 
L 64.425159 180.390739 
L 67.671705 178.689031 
L 70.91825 177.663594 
L 74.164795 176.349779 
L 77.411341 173.663243 
L 80.657886 172.699655 
L 83.904432 171.105794 
L 87.150977 169.349659 
L 90.397523 169.001966 
L 93.644068 168.772318 
L 96.890614 168.658956 
L 100.137159 169.601637 
L 103.383705 171.481179 
L 106.63025 171.303519 
L 109.876795 174.440572 
L 113.123341 176.788329 
L 116.369886 179.722336 
L 119.616432 181.867837 
L 122.862977 184.2777 
L 126.109523 188.012474 
L 129.356068 194.258001 
L 132.602614 203.16347 
L 135.849159 206.47471 
L 139.095705 210.486843 
L 142.34225 214.248308 
L 145.588795 213.390595 
L 148.835341 215.238664 
L 152.081886 214.68464 
L 155.328432 215.374333 
L 158.574977 216.163254 
L 161.821523 214.877359 
L 165.068068 215.3211 
L 168.314614 214.940433 
L 171.561159 212.622319 
L 174.807705 209.753608 
L 178.05425 208.384802 
L 181.300795 205.77235 
L 184.547341 203.415231 
L 187.793886 200.738021 
L 191.040432 202.637422 
L 194.286977 198.249054 
L 197.533523 197.224386 
L 200.780068 194.338895 
L 204.026614 191.905019 
L 207.273159 189.691725 
L 210.519705 188.878874 
L 213.76625 185.983141 
L 217.012795 182.933864 
L 220.259341 178.618984 
L 223.505886 174.084722 
L 226.752432 169.36505 
L 229.998977 164.220362 
L 233.245523 160.039895 
L 236.492068 157.297312 
L 239.738614 154.076597 
L 242.985159 151.481332 
L 246.231705 149.017657 
L 249.47825 147.84816 
L 252.724795 146.337118 
L 255.971341 144.608204 
L 259.217886 143.204514 
L 262.464432 142.909528 
L 265.710977 142.223412 
L 268.957523 146.403202 
L 272.204068 146.756991 
L 275.450614 150.986398 
L 278.697159 154.537378 
L 281.943705 157.466566 
L 285.19025 159.84458 
L 288.436795 162.822298 
L 291.683341 165.206269 
L 294.929886 167.046026 
L 298.176432 169.097927 
L 301.422977 170.245841 
L 304.669523 171.556078 
L 307.916068 173.19837 
L 311.162614 174.722498 
L 314.409159 175.92967 
L 317.655705 177.440762 
L 320.90225 179.260596 
L 324.148795 181.190663 
L 327.395341 182.963216 
L 330.641886 184.534443 
L 333.888432 185.79954 
L 337.134977 187.674101 
L 340.381523 190.214025 
L 343.628068 192.600601 
L 346.874614 195.56587 
L 350.121159 198.412478 
L 353.367705 201.396406 
L 356.61425 204.36973 
L 359.860795 207.693844 
L 363.107341 210.759738 
L 366.353886 213.73333 
L 369.600432 217.359596 
L 372.846977 221.021527 
L 376.093523 224.649526 
L 376.093523 26.15682 
L 376.093523 26.15682 
L 372.846977 28.607301 
L 369.600432 31.102419 
L 366.353886 33.719513 
L 363.107341 36.310537 
L 359.860795 39.017211 
L 356.61425 41.765928 
L 353.367705 44.52104 
L 350.121159 47.222975 
L 346.874614 49.399206 
L 343.628068 51.582398 
L 340.381523 53.735801 
L 337.134977 56.557083 
L 333.888432 59.401539 
L 330.641886 62.250359 
L 327.395341 65.090581 
L 324.148795 67.933318 
L 320.90225 70.627979 
L 317.655705 73.105865 
L 314.409159 75.400437 
L 311.162614 77.635975 
L 307.916068 79.891688 
L 304.669523 82.024501 
L 301.422977 84.616474 
L 298.176432 82.924499 
L 294.929886 85.234556 
L 291.683341 85.16715 
L 288.436795 85.795191 
L 285.19025 86.797812 
L 281.943705 86.575883 
L 278.697159 88.854586 
L 275.450614 82.686464 
L 272.204068 86.097652 
L 268.957523 95.647861 
L 265.710977 100.25309 
L 262.464432 103.866135 
L 259.217886 105.566488 
L 255.971341 107.695677 
L 252.724795 108.253892 
L 249.47825 109.590917 
L 246.231705 111.739347 
L 242.985159 112.4498 
L 239.738614 112.510225 
L 236.492068 112.435524 
L 233.245523 112.810791 
L 229.998977 113.73741 
L 226.752432 113.405091 
L 223.505886 113.51684 
L 220.259341 112.728786 
L 217.012795 112.183746 
L 213.76625 111.403528 
L 210.519705 110.439875 
L 207.273159 110.311084 
L 204.026614 110.464522 
L 200.780068 110.506765 
L 197.533523 106.352539 
L 194.286977 106.291535 
L 191.040432 104.463737 
L 187.793886 104.029991 
L 184.547341 103.524268 
L 181.300795 102.055285 
L 178.05425 103.355482 
L 174.807705 102.455109 
L 171.561159 103.550725 
L 168.314614 102.843406 
L 165.068068 102.333477 
L 161.821523 101.765331 
L 158.574977 101.182277 
L 155.328432 100.873411 
L 152.081886 99.411039 
L 148.835341 97.753569 
L 145.588795 95.718825 
L 142.34225 93.971904 
L 139.095705 91.855224 
L 135.849159 90.087424 
L 132.602614 88.1065 
L 129.356068 86.056534 
L 126.109523 83.994359 
L 122.862977 81.929441 
L 119.616432 79.797745 
L 116.369886 77.852301 
L 113.123341 75.407296 
L 109.876795 73.194383 
L 106.63025 70.972343 
L 103.383705 68.742754 
L 100.137159 66.506929 
L 96.890614 64.644664 
L 93.644068 62.972204 
L 90.397523 60.138397 
L 87.150977 58.127233 
L 83.904432 56.104349 
L 80.657886 53.387861 
L 77.411341 51.182935 
L 74.164795 48.944283 
L 70.91825 46.44632 
L 67.671705 43.303276 
L 64.425159 40.32932 
L 61.178614 36.294555 
L 57.932068 31.885177 
L 54.685523 25.593757 
L 51.438977 19.296 
z
" style="fill:#00008b;fill-opacity:0.15;"/>
   </g>
   <g id="text_14">
    <!-- Chile -->
    <g style="fill:#cd853f;opacity:0.75;" transform="translate(235.683534 190.016694)scale(0.04 -0.04)">
     <defs>
      <path d="M 3763 1606 
L 4369 1453 
Q 4178 706 3683 314 
Q 3188 -78 2472 -78 
Q 1731 -78 1267 223 
Q 803 525 561 1097 
Q 319 1669 319 2325 
Q 319 3041 592 3573 
Q 866 4106 1370 4382 
Q 1875 4659 2481 4659 
Q 3169 4659 3637 4309 
Q 4106 3959 4291 3325 
L 3694 3184 
Q 3534 3684 3231 3912 
Q 2928 4141 2469 4141 
Q 1941 4141 1586 3887 
Q 1231 3634 1087 3207 
Q 944 2781 944 2328 
Q 944 1744 1114 1308 
Q 1284 872 1643 656 
Q 2003 441 2422 441 
Q 2931 441 3284 734 
Q 3638 1028 3763 1606 
z
" id="ArialMT-43" transform="scale(0.015625)"/>
     </defs>
     <use xlink:href="#ArialMT-43"/>
     <use x="72.216797" xlink:href="#ArialMT-68"/>
     <use x="127.832031" xlink:href="#ArialMT-69"/>
     <use x="150.048828" xlink:href="#ArialMT-6c"/>
     <use x="172.265625" xlink:href="#ArialMT-65"/>
    </g>
   </g>
   <g id="text_15">
    <!-- Estonia -->
    <g style="fill:#00008b;opacity:0.75;" transform="translate(234.994246 121.474083)scale(0.04 -0.04)">
     <defs>
      <path d="M 506 0 
L 506 4581 
L 3819 4581 
L 3819 4041 
L 1113 4041 
L 1113 2638 
L 3647 2638 
L 3647 2100 
L 1113 2100 
L 1113 541 
L 3925 541 
L 3925 0 
L 506 0 
z
" id="ArialMT-45" transform="scale(0.015625)"/>
     </defs>
     <use xlink:href="#ArialMT-45"/>
     <use x="66.699219" xlink:href="#ArialMT-73"/>
     <use x="116.699219" xlink:href="#ArialMT-74"/>
     <use x="144.482422" xlink:href="#ArialMT-6f"/>
     <use x="200.097656" xlink:href="#ArialMT-6e"/>
     <use x="255.712891" xlink:href="#ArialMT-69"/>
     <use x="277.929688" xlink:href="#ArialMT-61"/>
    </g>
   </g>
   <g id="text_16">
    <!-- Greece -->
    <g style="fill:#00008b;opacity:0.75;" transform="translate(240.508548 134.655354)scale(0.04 -0.04)">
     <defs>
      <path d="M 2638 1797 
L 2638 2334 
L 4578 2338 
L 4578 638 
Q 4131 281 3656 101 
Q 3181 -78 2681 -78 
Q 2006 -78 1454 211 
Q 903 500 622 1047 
Q 341 1594 341 2269 
Q 341 2938 620 3517 
Q 900 4097 1425 4378 
Q 1950 4659 2634 4659 
Q 3131 4659 3532 4498 
Q 3934 4338 4162 4050 
Q 4391 3763 4509 3300 
L 3963 3150 
Q 3859 3500 3706 3700 
Q 3553 3900 3268 4020 
Q 2984 4141 2638 4141 
Q 2222 4141 1919 4014 
Q 1616 3888 1430 3681 
Q 1244 3475 1141 3228 
Q 966 2803 966 2306 
Q 966 1694 1177 1281 
Q 1388 869 1791 669 
Q 2194 469 2647 469 
Q 3041 469 3416 620 
Q 3791 772 3984 944 
L 3984 1797 
L 2638 1797 
z
" id="ArialMT-47" transform="scale(0.015625)"/>
     </defs>
     <use xlink:href="#ArialMT-47"/>
     <use x="77.783203" xlink:href="#ArialMT-72"/>
     <use x="111.083984" xlink:href="#ArialMT-65"/>
     <use x="166.699219" xlink:href="#ArialMT-65"/>
     <use x="222.314453" xlink:href="#ArialMT-63"/>
     <use x="272.314453" xlink:href="#ArialMT-65"/>
    </g>
   </g>
   <g id="text_17">
    <!-- Hungary -->
    <g style="fill:#00008b;opacity:0.75;" transform="translate(378.366105 184.720748)scale(0.04 -0.04)">
     <defs>
      <path d="M 513 0 
L 513 4581 
L 1119 4581 
L 1119 2700 
L 3500 2700 
L 3500 4581 
L 4106 4581 
L 4106 0 
L 3500 0 
L 3500 2159 
L 1119 2159 
L 1119 0 
L 513 0 
z
" id="ArialMT-48" transform="scale(0.015625)"/>
      <path d="M 2597 0 
L 2597 488 
Q 2209 -75 1544 -75 
Q 1250 -75 995 37 
Q 741 150 617 320 
Q 494 491 444 738 
Q 409 903 409 1263 
L 409 3319 
L 972 3319 
L 972 1478 
Q 972 1038 1006 884 
Q 1059 663 1231 536 
Q 1403 409 1656 409 
Q 1909 409 2131 539 
Q 2353 669 2445 892 
Q 2538 1116 2538 1541 
L 2538 3319 
L 3100 3319 
L 3100 0 
L 2597 0 
z
" id="ArialMT-75" transform="scale(0.015625)"/>
     </defs>
     <use xlink:href="#ArialMT-48"/>
     <use x="72.216797" xlink:href="#ArialMT-75"/>
     <use x="127.832031" xlink:href="#ArialMT-6e"/>
     <use x="183.447266" xlink:href="#ArialMT-67"/>
     <use x="239.0625" xlink:href="#ArialMT-61"/>
     <use x="294.677734" xlink:href="#ArialMT-72"/>
     <use x="327.978516" xlink:href="#ArialMT-79"/>
    </g>
   </g>
   <g id="text_18">
    <!-- Japan -->
    <g style="fill:#006400;opacity:0.75;" transform="translate(147.454697 262.250062)scale(0.04 -0.04)">
     <defs>
      <path d="M 184 1300 
L 731 1375 
Q 753 850 928 656 
Q 1103 463 1413 463 
Q 1641 463 1806 567 
Q 1972 672 2034 851 
Q 2097 1031 2097 1425 
L 2097 4581 
L 2703 4581 
L 2703 1459 
Q 2703 884 2564 568 
Q 2425 253 2123 87 
Q 1822 -78 1416 -78 
Q 813 -78 492 269 
Q 172 616 184 1300 
z
" id="ArialMT-4a" transform="scale(0.015625)"/>
     </defs>
     <use xlink:href="#ArialMT-4a"/>
     <use x="50" xlink:href="#ArialMT-61"/>
     <use x="105.615234" xlink:href="#ArialMT-70"/>
     <use x="161.230469" xlink:href="#ArialMT-61"/>
     <use x="216.845703" xlink:href="#ArialMT-6e"/>
    </g>
   </g>
   <g id="text_19">
    <!-- Netherlands -->
    <g style="fill:#00008b;opacity:0.75;" transform="translate(362.512486 211.63398)scale(0.04 -0.04)">
     <defs>
      <path d="M 488 0 
L 488 4581 
L 1109 4581 
L 3516 984 
L 3516 4581 
L 4097 4581 
L 4097 0 
L 3475 0 
L 1069 3600 
L 1069 0 
L 488 0 
z
" id="ArialMT-4e" transform="scale(0.015625)"/>
      <path d="M 2575 0 
L 2575 419 
Q 2259 -75 1647 -75 
Q 1250 -75 917 144 
Q 584 363 401 755 
Q 219 1147 219 1656 
Q 219 2153 384 2558 
Q 550 2963 881 3178 
Q 1213 3394 1622 3394 
Q 1922 3394 2156 3267 
Q 2391 3141 2538 2938 
L 2538 4581 
L 3097 4581 
L 3097 0 
L 2575 0 
z
M 797 1656 
Q 797 1019 1065 703 
Q 1334 388 1700 388 
Q 2069 388 2326 689 
Q 2584 991 2584 1609 
Q 2584 2291 2321 2609 
Q 2059 2928 1675 2928 
Q 1300 2928 1048 2622 
Q 797 2316 797 1656 
z
" id="ArialMT-64" transform="scale(0.015625)"/>
     </defs>
     <use xlink:href="#ArialMT-4e"/>
     <use x="72.216797" xlink:href="#ArialMT-65"/>
     <use x="127.832031" xlink:href="#ArialMT-74"/>
     <use x="155.615234" xlink:href="#ArialMT-68"/>
     <use x="211.230469" xlink:href="#ArialMT-65"/>
     <use x="266.845703" xlink:href="#ArialMT-72"/>
     <use x="300.146484" xlink:href="#ArialMT-6c"/>
     <use x="322.363281" xlink:href="#ArialMT-61"/>
     <use x="377.978516" xlink:href="#ArialMT-6e"/>
     <use x="433.59375" xlink:href="#ArialMT-64"/>
     <use x="489.208984" xlink:href="#ArialMT-73"/>
    </g>
   </g>
   <g id="text_20">
    <!-- Poland -->
    <g style="fill:#00008b;opacity:0.75;" transform="translate(219.140627 181.580681)scale(0.04 -0.04)">
     <defs>
      <path d="M 494 0 
L 494 4581 
L 2222 4581 
Q 2678 4581 2919 4538 
Q 3256 4481 3484 4323 
Q 3713 4166 3852 3881 
Q 3991 3597 3991 3256 
Q 3991 2672 3619 2267 
Q 3247 1863 2275 1863 
L 1100 1863 
L 1100 0 
L 494 0 
z
M 1100 2403 
L 2284 2403 
Q 2872 2403 3119 2622 
Q 3366 2841 3366 3238 
Q 3366 3525 3220 3729 
Q 3075 3934 2838 4000 
Q 2684 4041 2272 4041 
L 1100 4041 
L 1100 2403 
z
" id="ArialMT-50" transform="scale(0.015625)"/>
     </defs>
     <use xlink:href="#ArialMT-50"/>
     <use x="66.699219" xlink:href="#ArialMT-6f"/>
     <use x="122.314453" xlink:href="#ArialMT-6c"/>
     <use x="144.53125" xlink:href="#ArialMT-61"/>
     <use x="200.146484" xlink:href="#ArialMT-6e"/>
     <use x="255.761719" xlink:href="#ArialMT-64"/>
    </g>
   </g>
   <g id="text_21">
    <!-- Portugal -->
    <g style="fill:#00008b;opacity:0.75;" transform="translate(123.329625 139.904425)scale(0.04 -0.04)">
     <use xlink:href="#ArialMT-50"/>
     <use x="66.699219" xlink:href="#ArialMT-6f"/>
     <use x="122.314453" xlink:href="#ArialMT-72"/>
     <use x="155.615234" xlink:href="#ArialMT-74"/>
     <use x="183.398438" xlink:href="#ArialMT-75"/>
     <use x="239.013672" xlink:href="#ArialMT-67"/>
     <use x="294.628906" xlink:href="#ArialMT-61"/>
     <use x="350.244141" xlink:href="#ArialMT-6c"/>
    </g>
   </g>
   <g id="text_22">
    <!-- Slovenia -->
    <g style="fill:#00008b;opacity:0.75;" transform="translate(230.169231 187.38044)scale(0.04 -0.04)">
     <defs>
      <path d="M 288 1472 
L 859 1522 
Q 900 1178 1048 958 
Q 1197 738 1509 602 
Q 1822 466 2213 466 
Q 2559 466 2825 569 
Q 3091 672 3220 851 
Q 3350 1031 3350 1244 
Q 3350 1459 3225 1620 
Q 3100 1781 2813 1891 
Q 2628 1963 1997 2114 
Q 1366 2266 1113 2400 
Q 784 2572 623 2826 
Q 463 3081 463 3397 
Q 463 3744 659 4045 
Q 856 4347 1234 4503 
Q 1613 4659 2075 4659 
Q 2584 4659 2973 4495 
Q 3363 4331 3572 4012 
Q 3781 3694 3797 3291 
L 3216 3247 
Q 3169 3681 2898 3903 
Q 2628 4125 2100 4125 
Q 1550 4125 1298 3923 
Q 1047 3722 1047 3438 
Q 1047 3191 1225 3031 
Q 1400 2872 2139 2705 
Q 2878 2538 3153 2413 
Q 3553 2228 3743 1945 
Q 3934 1663 3934 1294 
Q 3934 928 3725 604 
Q 3516 281 3123 101 
Q 2731 -78 2241 -78 
Q 1619 -78 1198 103 
Q 778 284 539 648 
Q 300 1013 288 1472 
z
" id="ArialMT-53" transform="scale(0.015625)"/>
      <path d="M 1344 0 
L 81 3319 
L 675 3319 
L 1388 1331 
Q 1503 1009 1600 663 
Q 1675 925 1809 1294 
L 2547 3319 
L 3125 3319 
L 1869 0 
L 1344 0 
z
" id="ArialMT-76" transform="scale(0.015625)"/>
     </defs>
     <use xlink:href="#ArialMT-53"/>
     <use x="66.699219" xlink:href="#ArialMT-6c"/>
     <use x="88.916016" xlink:href="#ArialMT-6f"/>
     <use x="144.53125" xlink:href="#ArialMT-76"/>
     <use x="194.53125" xlink:href="#ArialMT-65"/>
     <use x="250.146484" xlink:href="#ArialMT-6e"/>
     <use x="305.761719" xlink:href="#ArialMT-69"/>
     <use x="327.978516" xlink:href="#ArialMT-61"/>
    </g>
   </g>
   <g id="text_23">
    <!-- Turkey -->
    <g style="fill:#006400;opacity:0.75;" transform="translate(106.097431 155.1947)scale(0.04 -0.04)">
     <defs>
      <path d="M 1659 0 
L 1659 4041 
L 150 4041 
L 150 4581 
L 3781 4581 
L 3781 4041 
L 2266 4041 
L 2266 0 
L 1659 0 
z
" id="ArialMT-54" transform="scale(0.015625)"/>
      <path d="M 425 0 
L 425 4581 
L 988 4581 
L 988 1969 
L 2319 3319 
L 3047 3319 
L 1778 2088 
L 3175 0 
L 2481 0 
L 1384 1697 
L 988 1316 
L 988 0 
L 425 0 
z
" id="ArialMT-6b" transform="scale(0.015625)"/>
     </defs>
     <use xlink:href="#ArialMT-54"/>
     <use x="57.333984" xlink:href="#ArialMT-75"/>
     <use x="112.949219" xlink:href="#ArialMT-72"/>
     <use x="146.25" xlink:href="#ArialMT-6b"/>
     <use x="196.25" xlink:href="#ArialMT-65"/>
     <use x="251.865234" xlink:href="#ArialMT-79"/>
    </g>
   </g>
   <g id="text_24">
    <!-- Bulgaria -->
    <g style="fill:#00008b;opacity:0.75;" transform="translate(187.433389 119.341642)scale(0.04 -0.04)">
     <defs>
      <path d="M 469 0 
L 469 4581 
L 2188 4581 
Q 2713 4581 3030 4442 
Q 3347 4303 3526 4014 
Q 3706 3725 3706 3409 
Q 3706 3116 3547 2856 
Q 3388 2597 3066 2438 
Q 3481 2316 3704 2022 
Q 3928 1728 3928 1328 
Q 3928 1006 3792 729 
Q 3656 453 3456 303 
Q 3256 153 2954 76 
Q 2653 0 2216 0 
L 469 0 
z
M 1075 2656 
L 2066 2656 
Q 2469 2656 2644 2709 
Q 2875 2778 2992 2937 
Q 3109 3097 3109 3338 
Q 3109 3566 3000 3739 
Q 2891 3913 2687 3977 
Q 2484 4041 1991 4041 
L 1075 4041 
L 1075 2656 
z
M 1075 541 
L 2216 541 
Q 2509 541 2628 563 
Q 2838 600 2978 687 
Q 3119 775 3209 942 
Q 3300 1109 3300 1328 
Q 3300 1584 3169 1773 
Q 3038 1963 2805 2039 
Q 2572 2116 2134 2116 
L 1075 2116 
L 1075 541 
z
" id="ArialMT-42" transform="scale(0.015625)"/>
     </defs>
     <use xlink:href="#ArialMT-42"/>
     <use x="66.699219" xlink:href="#ArialMT-75"/>
     <use x="122.314453" xlink:href="#ArialMT-6c"/>
     <use x="144.53125" xlink:href="#ArialMT-67"/>
     <use x="200.146484" xlink:href="#ArialMT-61"/>
     <use x="255.761719" xlink:href="#ArialMT-72"/>
     <use x="289.0625" xlink:href="#ArialMT-69"/>
     <use x="311.279297" xlink:href="#ArialMT-61"/>
    </g>
   </g>
   <g id="text_25">
    <!-- Colombia -->
    <g style="fill:#cd853f;opacity:0.75;" transform="translate(105.408143 176.308172)scale(0.04 -0.04)">
     <defs>
      <path d="M 941 0 
L 419 0 
L 419 4581 
L 981 4581 
L 981 2947 
Q 1338 3394 1891 3394 
Q 2197 3394 2470 3270 
Q 2744 3147 2920 2923 
Q 3097 2700 3197 2384 
Q 3297 2069 3297 1709 
Q 3297 856 2875 390 
Q 2453 -75 1863 -75 
Q 1275 -75 941 416 
L 941 0 
z
M 934 1684 
Q 934 1088 1097 822 
Q 1363 388 1816 388 
Q 2184 388 2453 708 
Q 2722 1028 2722 1663 
Q 2722 2313 2464 2622 
Q 2206 2931 1841 2931 
Q 1472 2931 1203 2611 
Q 934 2291 934 1684 
z
" id="ArialMT-62" transform="scale(0.015625)"/>
     </defs>
     <use xlink:href="#ArialMT-43"/>
     <use x="72.216797" xlink:href="#ArialMT-6f"/>
     <use x="127.832031" xlink:href="#ArialMT-6c"/>
     <use x="150.048828" xlink:href="#ArialMT-6f"/>
     <use x="205.664062" xlink:href="#ArialMT-6d"/>
     <use x="288.964844" xlink:href="#ArialMT-62"/>
     <use x="344.580078" xlink:href="#ArialMT-69"/>
     <use x="366.796875" xlink:href="#ArialMT-61"/>
    </g>
   </g>
   <g id="text_26">
    <!-- CostaRica -->
    <g style="fill:#cd853f;opacity:0.75;" transform="translate(256.362167 127.273842)scale(0.04 -0.04)">
     <defs>
      <path d="M 503 0 
L 503 4581 
L 2534 4581 
Q 3147 4581 3465 4457 
Q 3784 4334 3975 4021 
Q 4166 3709 4166 3331 
Q 4166 2844 3850 2509 
Q 3534 2175 2875 2084 
Q 3116 1969 3241 1856 
Q 3506 1613 3744 1247 
L 4541 0 
L 3778 0 
L 3172 953 
Q 2906 1366 2734 1584 
Q 2563 1803 2427 1890 
Q 2291 1978 2150 2013 
Q 2047 2034 1813 2034 
L 1109 2034 
L 1109 0 
L 503 0 
z
M 1109 2559 
L 2413 2559 
Q 2828 2559 3062 2645 
Q 3297 2731 3419 2920 
Q 3541 3109 3541 3331 
Q 3541 3656 3305 3865 
Q 3069 4075 2559 4075 
L 1109 4075 
L 1109 2559 
z
" id="ArialMT-52" transform="scale(0.015625)"/>
     </defs>
     <use xlink:href="#ArialMT-43"/>
     <use x="72.216797" xlink:href="#ArialMT-6f"/>
     <use x="127.832031" xlink:href="#ArialMT-73"/>
     <use x="177.832031" xlink:href="#ArialMT-74"/>
     <use x="205.615234" xlink:href="#ArialMT-61"/>
     <use x="261.230469" xlink:href="#ArialMT-52"/>
     <use x="333.447266" xlink:href="#ArialMT-69"/>
     <use x="355.664062" xlink:href="#ArialMT-63"/>
     <use x="405.664062" xlink:href="#ArialMT-61"/>
    </g>
   </g>
   <g id="text_27">
    <!-- Croatia -->
    <g style="fill:#00008b;opacity:0.75;" transform="translate(282.555103 106.183808)scale(0.04 -0.04)">
     <use xlink:href="#ArialMT-43"/>
     <use x="72.216797" xlink:href="#ArialMT-72"/>
     <use x="105.517578" xlink:href="#ArialMT-6f"/>
     <use x="161.132812" xlink:href="#ArialMT-61"/>
     <use x="216.748047" xlink:href="#ArialMT-74"/>
     <use x="244.53125" xlink:href="#ArialMT-69"/>
     <use x="266.748047" xlink:href="#ArialMT-61"/>
    </g>
   </g>
   <g id="text_28">
    <!-- Jordan -->
    <g style="fill:#006400;opacity:0.75;" transform="translate(169.511907 193.1802)scale(0.04 -0.04)">
     <use xlink:href="#ArialMT-4a"/>
     <use x="50" xlink:href="#ArialMT-6f"/>
     <use x="105.615234" xlink:href="#ArialMT-72"/>
     <use x="138.916016" xlink:href="#ArialMT-64"/>
     <use x="194.53125" xlink:href="#ArialMT-61"/>
     <use x="250.146484" xlink:href="#ArialMT-6e"/>
    </g>
   </g>
   <g id="text_29">
    <!-- Kazakhstan -->
    <g style="fill:#006400;opacity:0.75;" transform="translate(73.011617 54.513223)scale(0.04 -0.04)">
     <defs>
      <path d="M 469 0 
L 469 4581 
L 1075 4581 
L 1075 2309 
L 3350 4581 
L 4172 4581 
L 2250 2725 
L 4256 0 
L 3456 0 
L 1825 2319 
L 1075 1588 
L 1075 0 
L 469 0 
z
" id="ArialMT-4b" transform="scale(0.015625)"/>
      <path d="M 125 0 
L 125 456 
L 2238 2881 
Q 1878 2863 1603 2863 
L 250 2863 
L 250 3319 
L 2963 3319 
L 2963 2947 
L 1166 841 
L 819 456 
Q 1197 484 1528 484 
L 3063 484 
L 3063 0 
L 125 0 
z
" id="ArialMT-7a" transform="scale(0.015625)"/>
     </defs>
     <use xlink:href="#ArialMT-4b"/>
     <use x="66.699219" xlink:href="#ArialMT-61"/>
     <use x="122.314453" xlink:href="#ArialMT-7a"/>
     <use x="172.314453" xlink:href="#ArialMT-61"/>
     <use x="227.929688" xlink:href="#ArialMT-6b"/>
     <use x="277.929688" xlink:href="#ArialMT-68"/>
     <use x="333.544922" xlink:href="#ArialMT-73"/>
     <use x="383.544922" xlink:href="#ArialMT-74"/>
     <use x="411.328125" xlink:href="#ArialMT-61"/>
     <use x="466.943359" xlink:href="#ArialMT-6e"/>
    </g>
   </g>
   <g id="text_30">
    <!-- Lithuania -->
    <g style="fill:#00008b;opacity:0.75;" transform="translate(246.712138 110.401814)scale(0.04 -0.04)">
     <defs>
      <path d="M 469 0 
L 469 4581 
L 1075 4581 
L 1075 541 
L 3331 541 
L 3331 0 
L 469 0 
z
" id="ArialMT-4c" transform="scale(0.015625)"/>
     </defs>
     <use xlink:href="#ArialMT-4c"/>
     <use x="55.615234" xlink:href="#ArialMT-69"/>
     <use x="77.832031" xlink:href="#ArialMT-74"/>
     <use x="105.615234" xlink:href="#ArialMT-68"/>
     <use x="161.230469" xlink:href="#ArialMT-75"/>
     <use x="216.845703" xlink:href="#ArialMT-61"/>
     <use x="272.460938" xlink:href="#ArialMT-6e"/>
     <use x="328.076172" xlink:href="#ArialMT-69"/>
     <use x="350.292969" xlink:href="#ArialMT-61"/>
    </g>
   </g>
   <g id="text_31">
    <!-- Latvia -->
    <g style="fill:#00008b;opacity:0.75;" transform="translate(233.61567 107.238309)scale(0.04 -0.04)">
     <use xlink:href="#ArialMT-4c"/>
     <use x="55.615234" xlink:href="#ArialMT-61"/>
     <use x="111.230469" xlink:href="#ArialMT-74"/>
     <use x="139.013672" xlink:href="#ArialMT-76"/>
     <use x="189.013672" xlink:href="#ArialMT-69"/>
     <use x="211.230469" xlink:href="#ArialMT-61"/>
    </g>
   </g>
   <g id="text_32">
    <!-- Montenegro -->
    <g style="fill:#00008b;opacity:0.75;" transform="translate(197.772706 95.088102)scale(0.04 -0.04)">
     <defs>
      <path d="M 475 0 
L 475 4581 
L 1388 4581 
L 2472 1338 
Q 2622 884 2691 659 
Q 2769 909 2934 1394 
L 4031 4581 
L 4847 4581 
L 4847 0 
L 4263 0 
L 4263 3834 
L 2931 0 
L 2384 0 
L 1059 3900 
L 1059 0 
L 475 0 
z
" id="ArialMT-4d" transform="scale(0.015625)"/>
     </defs>
     <use xlink:href="#ArialMT-4d"/>
     <use x="83.300781" xlink:href="#ArialMT-6f"/>
     <use x="138.916016" xlink:href="#ArialMT-6e"/>
     <use x="194.53125" xlink:href="#ArialMT-74"/>
     <use x="222.314453" xlink:href="#ArialMT-65"/>
     <use x="277.929688" xlink:href="#ArialMT-6e"/>
     <use x="333.544922" xlink:href="#ArialMT-65"/>
     <use x="389.160156" xlink:href="#ArialMT-67"/>
     <use x="444.775391" xlink:href="#ArialMT-72"/>
     <use x="478.076172" xlink:href="#ArialMT-6f"/>
    </g>
   </g>
   <g id="text_33">
    <!-- Malaysia -->
    <g style="fill:#006400;opacity:0.75;" transform="translate(53.711559 27.599992)scale(0.04 -0.04)">
     <use xlink:href="#ArialMT-4d"/>
     <use x="83.300781" xlink:href="#ArialMT-61"/>
     <use x="138.916016" xlink:href="#ArialMT-6c"/>
     <use x="161.132812" xlink:href="#ArialMT-61"/>
     <use x="216.748047" xlink:href="#ArialMT-79"/>
     <use x="266.748047" xlink:href="#ArialMT-73"/>
     <use x="316.748047" xlink:href="#ArialMT-69"/>
     <use x="338.964844" xlink:href="#ArialMT-61"/>
    </g>
   </g>
   <g id="text_34">
    <!-- Qatar -->
    <g style="fill:#006400;opacity:0.75;" transform="translate(168.133331 224.288)scale(0.04 -0.04)">
     <defs>
      <path d="M 3966 491 
Q 4388 200 4744 66 
L 4566 -356 
Q 4072 -178 3581 206 
Q 3072 -78 2456 -78 
Q 1834 -78 1328 222 
Q 822 522 548 1065 
Q 275 1609 275 2291 
Q 275 2969 550 3525 
Q 825 4081 1333 4372 
Q 1841 4663 2469 4663 
Q 3103 4663 3612 4361 
Q 4122 4059 4389 3517 
Q 4656 2975 4656 2294 
Q 4656 1728 4484 1276 
Q 4313 825 3966 491 
z
M 2631 1266 
Q 3156 1119 3497 828 
Q 4031 1316 4031 2294 
Q 4031 2850 3842 3265 
Q 3653 3681 3289 3911 
Q 2925 4141 2472 4141 
Q 1794 4141 1347 3677 
Q 900 3213 900 2291 
Q 900 1397 1342 919 
Q 1784 441 2472 441 
Q 2797 441 3084 563 
Q 2800 747 2484 825 
L 2631 1266 
z
" id="ArialMT-51" transform="scale(0.015625)"/>
     </defs>
     <use xlink:href="#ArialMT-51"/>
     <use x="77.783203" xlink:href="#ArialMT-61"/>
     <use x="133.398438" xlink:href="#ArialMT-74"/>
     <use x="161.181641" xlink:href="#ArialMT-61"/>
     <use x="216.796875" xlink:href="#ArialMT-72"/>
    </g>
   </g>
   <g id="text_35">
    <!-- Romania -->
    <g style="fill:#00008b;opacity:0.75;" transform="translate(127.465352 84.566522)scale(0.04 -0.04)">
     <use xlink:href="#ArialMT-52"/>
     <use x="72.216797" xlink:href="#ArialMT-6f"/>
     <use x="127.832031" xlink:href="#ArialMT-6d"/>
     <use x="211.132812" xlink:href="#ArialMT-61"/>
     <use x="266.748047" xlink:href="#ArialMT-6e"/>
     <use x="322.363281" xlink:href="#ArialMT-69"/>
     <use x="344.580078" xlink:href="#ArialMT-61"/>
    </g>
   </g>
   <g id="text_36">
    <!-- Russia -->
    <g style="fill:#00008b;opacity:0.75;" transform="translate(266.012196 100.911299)scale(0.04 -0.04)">
     <use xlink:href="#ArialMT-52"/>
     <use x="72.216797" xlink:href="#ArialMT-75"/>
     <use x="127.832031" xlink:href="#ArialMT-73"/>
     <use x="177.832031" xlink:href="#ArialMT-73"/>
     <use x="227.832031" xlink:href="#ArialMT-69"/>
     <use x="250.048828" xlink:href="#ArialMT-61"/>
    </g>
   </g>
   <g id="text_37">
    <!-- Serbia -->
    <g style="fill:#00008b;opacity:0.75;" transform="translate(303.233736 100.911299)scale(0.04 -0.04)">
     <use xlink:href="#ArialMT-53"/>
     <use x="66.699219" xlink:href="#ArialMT-65"/>
     <use x="122.314453" xlink:href="#ArialMT-72"/>
     <use x="155.615234" xlink:href="#ArialMT-62"/>
     <use x="211.230469" xlink:href="#ArialMT-69"/>
     <use x="233.447266" xlink:href="#ArialMT-61"/>
    </g>
   </g>
   <g id="line2d_12">
    <defs>
     <path d="M 0 1.5 
C 0.397805 1.5 0.77937 1.341951 1.06066 1.06066 
C 1.341951 0.77937 1.5 0.397805 1.5 0 
C 1.5 -0.397805 1.341951 -0.77937 1.06066 -1.06066 
C 0.77937 -1.341951 0.397805 -1.5 0 -1.5 
C -0.397805 -1.5 -0.77937 -1.341951 -1.06066 -1.06066 
C -1.341951 -0.77937 -1.5 -0.397805 -1.5 0 
C -1.5 0.397805 -1.341951 0.77937 -1.06066 1.06066 
C -0.77937 1.341951 -0.397805 1.5 0 1.5 
z
" id="m0a9fe72ec8" style="stroke:#000000;stroke-opacity:0;"/>
    </defs>
    <g clip-path="url(#p738d43f620)">
     <use style="fill:#cd853f;fill-opacity:0.9;stroke:#000000;stroke-opacity:0;" x="233.410952" xlink:href="#m0a9fe72ec8" y="188.982632"/>
    </g>
   </g>
   <g id="line2d_13">
    <defs>
     <path d="M 0 1.5 
C 0.397805 1.5 0.77937 1.341951 1.06066 1.06066 
C 1.341951 0.77937 1.5 0.397805 1.5 0 
C 1.5 -0.397805 1.341951 -0.77937 1.06066 -1.06066 
C 0.77937 -1.341951 0.397805 -1.5 0 -1.5 
C -0.397805 -1.5 -0.77937 -1.341951 -1.06066 -1.06066 
C -1.341951 -0.77937 -1.5 -0.397805 -1.5 0 
C -1.5 0.397805 -1.341951 0.77937 -1.06066 1.06066 
C -0.77937 1.341951 -0.397805 1.5 0 1.5 
z
" id="mc653f2b933" style="stroke:#000000;stroke-opacity:0;"/>
    </defs>
    <g clip-path="url(#p738d43f620)">
     <use style="fill:#00008b;fill-opacity:0.9;stroke:#000000;stroke-opacity:0;" x="232.721664" xlink:href="#mc653f2b933" y="120.44002"/>
    </g>
   </g>
   <g id="line2d_14">
    <g clip-path="url(#p738d43f620)">
     <use style="fill:#00008b;fill-opacity:0.9;stroke:#000000;stroke-opacity:0;" x="238.235966" xlink:href="#mc653f2b933" y="133.621292"/>
    </g>
   </g>
   <g id="line2d_15">
    <g clip-path="url(#p738d43f620)">
     <use style="fill:#00008b;fill-opacity:0.9;stroke:#000000;stroke-opacity:0;" x="376.093523" xlink:href="#mc653f2b933" y="183.710123"/>
    </g>
   </g>
   <g id="line2d_16">
    <defs>
     <path d="M 0 1.5 
C 0.397805 1.5 0.77937 1.341951 1.06066 1.06066 
C 1.341951 0.77937 1.5 0.397805 1.5 0 
C 1.5 -0.397805 1.341951 -0.77937 1.06066 -1.06066 
C 0.77937 -1.341951 0.397805 -1.5 0 -1.5 
C -0.397805 -1.5 -0.77937 -1.341951 -1.06066 -1.06066 
C -1.341951 -0.77937 -1.5 -0.397805 -1.5 0 
C -1.5 0.397805 -1.341951 0.77937 -1.06066 1.06066 
C -0.77937 1.341951 -0.397805 1.5 0 1.5 
z
" id="m5fa2d87e7e" style="stroke:#000000;stroke-opacity:0;"/>
    </defs>
    <g clip-path="url(#p738d43f620)">
     <use style="fill:#006400;fill-opacity:0.9;stroke:#000000;stroke-opacity:0;" x="145.182116" xlink:href="#m5fa2d87e7e" y="261.216"/>
    </g>
   </g>
   <g id="line2d_17">
    <g clip-path="url(#p738d43f620)">
     <use style="fill:#00008b;fill-opacity:0.9;stroke:#000000;stroke-opacity:0;" x="360.239904" xlink:href="#mc653f2b933" y="210.599917"/>
    </g>
   </g>
   <g id="line2d_18">
    <g clip-path="url(#p738d43f620)">
     <use style="fill:#00008b;fill-opacity:0.9;stroke:#000000;stroke-opacity:0;" x="216.868045" xlink:href="#mc653f2b933" y="180.546618"/>
    </g>
   </g>
   <g id="line2d_19">
    <g clip-path="url(#p738d43f620)">
     <use style="fill:#00008b;fill-opacity:0.9;stroke:#000000;stroke-opacity:0;" x="121.057043" xlink:href="#mc653f2b933" y="138.8938"/>
    </g>
   </g>
   <g id="line2d_20">
    <g clip-path="url(#p738d43f620)">
     <use style="fill:#00008b;fill-opacity:0.9;stroke:#000000;stroke-opacity:0;" x="227.89665" xlink:href="#mc653f2b933" y="186.346378"/>
    </g>
   </g>
   <g id="line2d_21">
    <g clip-path="url(#p738d43f620)">
     <use style="fill:#006400;fill-opacity:0.9;stroke:#000000;stroke-opacity:0;" x="103.824849" xlink:href="#m5fa2d87e7e" y="154.184075"/>
    </g>
   </g>
   <g id="line2d_22">
    <g clip-path="url(#p738d43f620)">
     <use style="fill:#00008b;fill-opacity:0.9;stroke:#000000;stroke-opacity:0;" x="185.160807" xlink:href="#mc653f2b933" y="118.331017"/>
    </g>
   </g>
   <g id="line2d_23">
    <g clip-path="url(#p738d43f620)">
     <use style="fill:#cd853f;fill-opacity:0.9;stroke:#000000;stroke-opacity:0;" x="103.135561" xlink:href="#m0a9fe72ec8" y="175.27411"/>
    </g>
   </g>
   <g id="line2d_24">
    <g clip-path="url(#p738d43f620)">
     <use style="fill:#cd853f;fill-opacity:0.9;stroke:#000000;stroke-opacity:0;" x="254.089585" xlink:href="#m0a9fe72ec8" y="126.23978"/>
    </g>
   </g>
   <g id="line2d_25">
    <g clip-path="url(#p738d43f620)">
     <use style="fill:#00008b;fill-opacity:0.9;stroke:#000000;stroke-opacity:0;" x="280.282521" xlink:href="#mc653f2b933" y="105.149745"/>
    </g>
   </g>
   <g id="line2d_26">
    <g clip-path="url(#p738d43f620)">
     <use style="fill:#006400;fill-opacity:0.9;stroke:#000000;stroke-opacity:0;" x="167.239325" xlink:href="#m5fa2d87e7e" y="192.146137"/>
    </g>
   </g>
   <g id="line2d_27">
    <g clip-path="url(#p738d43f620)">
     <use style="fill:#006400;fill-opacity:0.9;stroke:#000000;stroke-opacity:0;" x="70.739035" xlink:href="#m5fa2d87e7e" y="53.479161"/>
    </g>
   </g>
   <g id="line2d_28">
    <g clip-path="url(#p738d43f620)">
     <use style="fill:#00008b;fill-opacity:0.9;stroke:#000000;stroke-opacity:0;" x="244.439556" xlink:href="#mc653f2b933" y="109.367752"/>
    </g>
   </g>
   <g id="line2d_29">
    <g clip-path="url(#p738d43f620)">
     <use style="fill:#00008b;fill-opacity:0.9;stroke:#000000;stroke-opacity:0;" x="231.343088" xlink:href="#mc653f2b933" y="106.204247"/>
    </g>
   </g>
   <g id="line2d_30">
    <g clip-path="url(#p738d43f620)">
     <use style="fill:#00008b;fill-opacity:0.9;stroke:#000000;stroke-opacity:0;" x="195.500124" xlink:href="#mc653f2b933" y="94.077477"/>
    </g>
   </g>
   <g id="line2d_31">
    <g clip-path="url(#p738d43f620)">
     <use style="fill:#006400;fill-opacity:0.9;stroke:#000000;stroke-opacity:0;" x="51.438977" xlink:href="#m5fa2d87e7e" y="26.589367"/>
    </g>
   </g>
   <g id="line2d_32">
    <g clip-path="url(#p738d43f620)">
     <use style="fill:#006400;fill-opacity:0.9;stroke:#000000;stroke-opacity:0;" x="165.860749" xlink:href="#m5fa2d87e7e" y="223.253938"/>
    </g>
   </g>
   <g id="line2d_33">
    <g clip-path="url(#p738d43f620)">
     <use style="fill:#00008b;fill-opacity:0.9;stroke:#000000;stroke-opacity:0;" x="125.19277" xlink:href="#mc653f2b933" y="83.53246"/>
    </g>
   </g>
   <g id="line2d_34">
    <g clip-path="url(#p738d43f620)">
     <use style="fill:#00008b;fill-opacity:0.9;stroke:#000000;stroke-opacity:0;" x="263.739614" xlink:href="#mc653f2b933" y="99.877236"/>
    </g>
   </g>
   <g id="line2d_35">
    <g clip-path="url(#p738d43f620)">
     <use style="fill:#00008b;fill-opacity:0.9;stroke:#000000;stroke-opacity:0;" x="300.961154" xlink:href="#mc653f2b933" y="99.877236"/>
    </g>
   </g>
   <g id="line2d_36">
    <path clip-path="url(#p738d43f620)" d="M 51.438977 64.891182 
L 54.685523 68.605652 
L 57.932068 72.291008 
L 61.178614 75.946685 
L 64.425159 79.572114 
L 67.671705 83.166725 
L 70.91825 86.729935 
L 74.164795 90.261485 
L 77.411341 93.762344 
L 80.657886 97.233945 
L 83.904432 100.678132 
L 87.150977 104.098544 
L 90.397523 107.497549 
L 93.644068 110.868102 
L 96.890614 114.217296 
L 100.137159 117.554414 
L 103.383705 120.888259 
L 106.63025 124.229075 
L 109.876795 127.579532 
L 113.123341 130.776134 
L 116.369886 134.006127 
L 119.616432 137.191385 
L 122.862977 140.27799 
L 126.109523 143.288383 
L 129.356068 146.186192 
L 132.602614 148.96083 
L 135.849159 151.483875 
L 139.095705 153.636813 
L 142.34225 155.498902 
L 145.588795 157.053167 
L 148.835341 158.025616 
L 152.081886 158.38644 
L 155.328432 158.873882 
L 158.574977 159.611875 
L 161.821523 160.074214 
L 165.068068 160.784776 
L 168.314614 161.486844 
L 171.561159 161.417899 
L 174.807705 161.319494 
L 178.05425 160.542446 
L 181.300795 159.770061 
L 184.547341 159.306992 
L 187.793886 158.529238 
L 191.040432 157.754217 
L 194.286977 156.221044 
L 197.533523 154.50833 
L 200.780068 152.609862 
L 204.026614 150.607665 
L 207.273159 148.724447 
L 210.519705 147.328518 
L 213.76625 146.134701 
L 217.012795 145.097299 
L 220.259341 144.054746 
L 223.505886 142.770389 
L 226.752432 141.354982 
L 229.998977 139.769636 
L 233.245523 137.985714 
L 236.492068 135.877844 
L 239.738614 133.581355 
L 242.985159 131.225714 
L 246.231705 128.865664 
L 249.47825 126.612948 
L 252.724795 124.490388 
L 255.971341 122.456521 
L 259.217886 120.491062 
L 262.464432 118.50858 
L 265.710977 116.525043 
L 268.957523 115.223442 
L 272.204068 114.315644 
L 275.450614 114.038684 
L 278.697159 115.246725 
L 281.943705 117.099888 
L 285.19025 119.381821 
L 288.436795 121.758828 
L 291.683341 124.243616 
L 294.929886 126.756688 
L 298.176432 129.680925 
L 301.422977 132.972989 
L 304.669523 135.570203 
L 307.916068 137.837819 
L 311.162614 139.80367 
L 314.409159 141.535109 
L 317.655705 143.129807 
L 320.90225 144.656839 
L 324.148795 146.151777 
L 327.395341 147.633999 
L 330.641886 149.115144 
L 333.888432 150.602748 
L 337.134977 152.101947 
L 340.381523 153.61636 
L 343.628068 155.148583 
L 346.874614 156.700482 
L 350.121159 158.27338 
L 353.367705 159.868185 
L 356.61425 161.485471 
L 359.860795 163.125545 
L 363.107341 164.788246 
L 366.353886 166.471914 
L 369.600432 168.174516 
L 372.846977 169.894175 
L 376.093523 171.629149 
" style="fill:none;stroke:#00008b;stroke-linecap:round;stroke-opacity:0.5;stroke-width:1.5;"/>
   </g>
  </g>
  <g id="text_38">
   <!-- dynomight.net -->
   <g style="fill:#808080;opacity:0.5;" transform="translate(346.24625 297.504)scale(0.06 -0.06)">
    <defs>
     <path d="M 2681 3053 
L 2681 4863 
L 3256 4863 
L 3256 0 
L 2681 0 
L 2681 441 
Q 2538 181 2298 45 
Q 2059 -91 1747 -91 
Q 1113 -91 748 401 
Q 384 894 384 1759 
Q 384 2613 750 3098 
Q 1116 3584 1747 3584 
Q 2063 3584 2303 3448 
Q 2544 3313 2681 3053 
z
M 991 1747 
Q 991 1078 1203 737 
Q 1416 397 1831 397 
Q 2247 397 2464 740 
Q 2681 1084 2681 1747 
Q 2681 2413 2464 2755 
Q 2247 3097 1831 3097 
Q 1416 3097 1203 2756 
Q 991 2416 991 1747 
z
" id="DejaVuSansMono-64" transform="scale(0.015625)"/>
     <path d="M 2681 1125 
Q 2538 759 2316 163 
Q 2006 -663 1900 -844 
Q 1756 -1088 1540 -1209 
Q 1325 -1331 1038 -1331 
L 575 -1331 
L 575 -850 
L 916 -850 
Q 1169 -850 1312 -703 
Q 1456 -556 1678 56 
L 325 3500 
L 934 3500 
L 1972 763 
L 2994 3500 
L 3603 3500 
L 2681 1125 
z
" id="DejaVuSansMono-79" transform="scale(0.015625)"/>
     <path d="M 3284 2169 
L 3284 0 
L 2706 0 
L 2706 2169 
Q 2706 2641 2540 2862 
Q 2375 3084 2022 3084 
Q 1619 3084 1401 2798 
Q 1184 2513 1184 1978 
L 1184 0 
L 609 0 
L 609 3500 
L 1184 3500 
L 1184 2975 
Q 1338 3275 1600 3429 
Q 1863 3584 2222 3584 
Q 2756 3584 3020 3232 
Q 3284 2881 3284 2169 
z
" id="DejaVuSansMono-6e" transform="scale(0.015625)"/>
     <path d="M 1925 3097 
Q 1488 3097 1263 2756 
Q 1038 2416 1038 1747 
Q 1038 1081 1263 739 
Q 1488 397 1925 397 
Q 2366 397 2591 739 
Q 2816 1081 2816 1747 
Q 2816 2416 2591 2756 
Q 2366 3097 1925 3097 
z
M 1925 3584 
Q 2653 3584 3039 3112 
Q 3425 2641 3425 1747 
Q 3425 850 3040 379 
Q 2656 -91 1925 -91 
Q 1197 -91 812 379 
Q 428 850 428 1747 
Q 428 2641 812 3112 
Q 1197 3584 1925 3584 
z
" id="DejaVuSansMono-6f" transform="scale(0.015625)"/>
     <path d="M 2113 3144 
Q 2219 3369 2383 3476 
Q 2547 3584 2778 3584 
Q 3200 3584 3373 3257 
Q 3547 2931 3547 2028 
L 3547 0 
L 3022 0 
L 3022 2003 
Q 3022 2744 2939 2923 
Q 2856 3103 2638 3103 
Q 2388 3103 2295 2911 
Q 2203 2719 2203 2003 
L 2203 0 
L 1678 0 
L 1678 2003 
Q 1678 2753 1589 2928 
Q 1500 3103 1269 3103 
Q 1041 3103 952 2911 
Q 863 2719 863 2003 
L 863 0 
L 341 0 
L 341 3500 
L 863 3500 
L 863 3200 
Q 966 3388 1120 3486 
Q 1275 3584 1472 3584 
Q 1709 3584 1867 3475 
Q 2025 3366 2113 3144 
z
" id="DejaVuSansMono-6d" transform="scale(0.015625)"/>
     <path d="M 800 3500 
L 2272 3500 
L 2272 447 
L 3413 447 
L 3413 0 
L 556 0 
L 556 447 
L 1697 447 
L 1697 3053 
L 800 3053 
L 800 3500 
z
M 1697 4863 
L 2272 4863 
L 2272 4134 
L 1697 4134 
L 1697 4863 
z
" id="DejaVuSansMono-69" transform="scale(0.015625)"/>
     <path d="M 2681 1778 
Q 2681 2425 2470 2761 
Q 2259 3097 1856 3097 
Q 1434 3097 1212 2761 
Q 991 2425 991 1778 
Q 991 1131 1214 792 
Q 1438 453 1863 453 
Q 2259 453 2470 793 
Q 2681 1134 2681 1778 
z
M 3256 225 
Q 3256 -563 2884 -969 
Q 2513 -1375 1791 -1375 
Q 1553 -1375 1293 -1331 
Q 1034 -1288 775 -1203 
L 775 -634 
Q 1081 -778 1331 -847 
Q 1581 -916 1791 -916 
Q 2256 -916 2468 -662 
Q 2681 -409 2681 141 
L 2681 166 
L 2681 556 
Q 2544 263 2306 119 
Q 2069 -25 1728 -25 
Q 1116 -25 750 465 
Q 384 956 384 1778 
Q 384 2603 750 3093 
Q 1116 3584 1728 3584 
Q 2066 3584 2300 3450 
Q 2534 3316 2681 3034 
L 2681 3488 
L 3256 3488 
L 3256 225 
z
" id="DejaVuSansMono-67" transform="scale(0.015625)"/>
     <path d="M 3284 2169 
L 3284 0 
L 2706 0 
L 2706 2169 
Q 2706 2641 2540 2862 
Q 2375 3084 2022 3084 
Q 1619 3084 1401 2798 
Q 1184 2513 1184 1978 
L 1184 0 
L 609 0 
L 609 4863 
L 1184 4863 
L 1184 2975 
Q 1338 3275 1600 3429 
Q 1863 3584 2222 3584 
Q 2756 3584 3020 3232 
Q 3284 2881 3284 2169 
z
" id="DejaVuSansMono-68" transform="scale(0.015625)"/>
     <path d="M 1919 4494 
L 1919 3500 
L 3225 3500 
L 3225 3053 
L 1919 3053 
L 1919 1153 
Q 1919 766 2066 612 
Q 2213 459 2578 459 
L 3225 459 
L 3225 0 
L 2522 0 
Q 1875 0 1609 259 
Q 1344 519 1344 1153 
L 1344 3053 
L 409 3053 
L 409 3500 
L 1344 3500 
L 1344 4494 
L 1919 4494 
z
" id="DejaVuSansMono-74" transform="scale(0.015625)"/>
     <path d="M 1528 953 
L 2316 953 
L 2316 0 
L 1528 0 
L 1528 953 
z
" id="DejaVuSansMono-2e" transform="scale(0.015625)"/>
     <path d="M 3475 1894 
L 3475 1613 
L 984 1613 
L 984 1594 
Q 984 1022 1282 709 
Q 1581 397 2125 397 
Q 2400 397 2700 484 
Q 3000 572 3341 750 
L 3341 178 
Q 3013 44 2708 -23 
Q 2403 -91 2119 -91 
Q 1303 -91 843 398 
Q 384 888 384 1747 
Q 384 2584 834 3084 
Q 1284 3584 2034 3584 
Q 2703 3584 3089 3131 
Q 3475 2678 3475 1894 
z
M 2900 2063 
Q 2888 2569 2661 2833 
Q 2434 3097 2009 3097 
Q 1594 3097 1325 2822 
Q 1056 2547 1006 2059 
L 2900 2063 
z
" id="DejaVuSansMono-65" transform="scale(0.015625)"/>
    </defs>
    <use xlink:href="#DejaVuSansMono-64"/>
    <use x="60.205078" xlink:href="#DejaVuSansMono-79"/>
    <use x="120.410156" xlink:href="#DejaVuSansMono-6e"/>
    <use x="180.615234" xlink:href="#DejaVuSansMono-6f"/>
    <use x="240.820312" xlink:href="#DejaVuSansMono-6d"/>
    <use x="301.025391" xlink:href="#DejaVuSansMono-69"/>
    <use x="361.230469" xlink:href="#DejaVuSansMono-67"/>
    <use x="421.435547" xlink:href="#DejaVuSansMono-68"/>
    <use x="481.640625" xlink:href="#DejaVuSansMono-74"/>
    <use x="541.845703" xlink:href="#DejaVuSansMono-2e"/>
    <use x="602.050781" xlink:href="#DejaVuSansMono-6e"/>
    <use x="662.255859" xlink:href="#DejaVuSansMono-65"/>
    <use x="722.460938" xlink:href="#DejaVuSansMono-74"/>
   </g>
  </g>
 </g>
 <defs>
  <clipPath id="p738d43f620">
   <rect height="266.112" width="357.12" x="35.20625" y="7.2"/>
  </clipPath>
 </defs>
</svg>
