<?xml version="1.0" encoding="iso-8859-1"?>
<!-- Generator: Adobe Illustrator 19.0.0, SVG Export Plug-In . SVG Version: 6.00 Build 0)  -->
<svg version="1.1" id="Layer_1" xmlns="http://www.w3.org/2000/svg" xmlns:xlink="http://www.w3.org/1999/xlink" x="0px" y="0px"
	 viewBox="0 0 512 512" style="enable-background:new 0 0 512 512;" xml:space="preserve">
<g>
	<g>
		<path d="M512,233.883c0-33.842-29.516-61.374-65.797-61.374c-18.212,0-35.665,7.103-48.082,19.496
			c-39.693-24.063-89.529-37.189-142.121-37.189c-0.18,0-0.361,0.004-0.541,0.004c-0.001-0.186-0.012-0.372-0.012-0.557
			c0-49.086,39.934-89.019,89.019-89.019c6.631,0,13.175,0.739,19.56,2.171c-6.413,9.694-10.16,21.299-10.16,33.769
			c0,7.012,1.175,13.895,3.494,20.458c1.525,4.318,6.263,6.582,10.583,5.056c4.318-1.526,6.582-6.265,5.056-10.583
			c-1.69-4.783-2.546-9.805-2.546-14.931c0-24.695,20.091-44.786,44.786-44.786s44.786,20.091,44.786,44.786
			s-20.091,44.786-44.786,44.786c-8.859,0-17.421-2.58-24.762-7.461c-3.811-2.536-8.962-1.5-11.497,2.315
			c-2.537,3.814-1.499,8.963,2.315,11.498c10.07,6.696,21.807,10.236,33.945,10.236c33.842,0,61.374-27.532,61.374-61.374
			c0-33.842-27.532-61.374-61.374-61.374c-14.681,0-28.169,5.186-38.743,13.816c-10.327-3.284-21.086-4.97-32.03-4.97
			c-58.232,0-105.607,47.375-105.607,105.607c0,0.341,0.02,0.683,0.023,1.025c-46.236,2.529-89.644,15.28-125.003,36.717
			c-12.417-12.393-29.871-19.496-48.083-19.496C29.516,172.51,0,200.042,0,233.883c0,23.99,14.766,45.496,37.869,55.581
			c-1.642,7.88-2.483,15.91-2.483,24.039c0,42.937,23.329,83.108,65.686,113.112c41.491,29.39,96.513,45.575,154.927,45.575
			c42.832,0,84.349-8.799,120.065-25.446c35.182-16.399,63.008-39.516,80.467-66.85c2.466-3.86,1.336-8.988-2.525-11.454
			c-3.858-2.464-8.988-1.336-11.453,2.526C409.713,422.381,336.486,455.603,256,455.603c-112.501,0-204.026-63.746-204.026-142.099
			S143.499,171.404,256,171.404c112.5,0,204.026,63.746,204.026,142.099c0,11.052-1.839,22.058-5.467,32.714
			c-1.476,4.336,0.842,9.048,5.179,10.524c4.333,1.475,9.048-0.842,10.524-5.178c4.214-12.382,6.352-25.186,6.352-38.06
			c0-8.129-0.84-16.158-2.483-24.039C497.234,279.379,512,257.873,512,233.883z M42.45,273.31
			c-15.848-7.771-25.862-22.815-25.862-39.426c0-24.695,22.075-44.786,49.21-44.786c12.643,0,24.752,4.454,33.863,12.321
			C71.646,221.617,52.148,246.314,42.45,273.31z M469.55,273.31c-9.698-26.994-29.196-51.692-57.21-71.891
			c9.11-7.866,21.22-12.321,33.863-12.321c27.134,0,49.21,20.091,49.21,44.786C495.413,250.494,485.398,265.54,469.55,273.31z"/>
	</g>
</g>
<g>
	<g>
		<path d="M335.62,243.283c-21.647,0-39.257,17.61-39.257,39.257c0,21.647,17.61,39.257,39.257,39.257s39.257-17.61,39.257-39.257
			C374.877,260.893,357.267,243.283,335.62,243.283z M335.62,305.209c-12.5,0-22.67-10.169-22.67-22.669
			c0-12.5,10.169-22.67,22.67-22.67s22.67,10.169,22.67,22.67C358.289,295.04,348.12,305.209,335.62,305.209z"/>
	</g>
</g>
<g>
	<g>
		<path d="M176.38,243.283c-21.647,0-39.257,17.61-39.257,39.257c0,21.647,17.61,39.257,39.257,39.257s39.257-17.61,39.257-39.257
			C215.637,260.893,198.027,243.283,176.38,243.283z M176.38,305.209c-12.5,0-22.67-10.169-22.67-22.669
			c0-12.5,10.169-22.67,22.67-22.67s22.67,10.169,22.67,22.67C199.05,295.04,188.88,305.209,176.38,305.209z"/>
	</g>
</g>
<g>
	<g>
		<path d="M351.647,365.298c-2.295-3.966-7.367-5.318-11.333-3.027c-25.508,14.758-54.664,22.558-84.314,22.558
			c-33.142,0-65.215-9.604-92.752-27.774c-3.823-2.522-8.967-1.47-11.491,2.354c-2.524,3.824-1.467,8.968,2.355,11.491
			C184.369,390.865,219.6,401.417,256,401.417c32.562,0,64.591-8.57,92.621-24.786C352.586,374.337,353.941,369.264,351.647,365.298
			z"/>
	</g>
</g>
<g>
</g>
<g>
</g>
<g>
</g>
<g>
</g>
<g>
</g>
<g>
</g>
<g>
</g>
<g>
</g>
<g>
</g>
<g>
</g>
<g>
</g>
<g>
</g>
<g>
</g>
<g>
</g>
<g>
</g>
</svg>
